<svg xmlns="http://www.w3.org/2000/svg" width="24" height="24" viewBox="0 0 24 24"><title>ico_action_button_24</title><path d="M16.013,15.972A7.987,7.987,0,1,0,8.027,7.985V8c-.02,0-.039,0-.059,0a8,8,0,1,0,7.968,8l0-.033C15.961,15.968,15.987,15.972,16.013,15.972ZM16.013,1A6.987,6.987,0,1,1,9.027,7.985,6.994,6.994,0,0,1,16.013,1ZM14.939,16a6.971,6.971,0,1,1-6.97-7c.044,0,.087.005.131.007a7.941,7.941,0,0,0,.53,2.015,4.592,4.592,0,0,0-.619-.047v-.471a.5.5,0,0,0-1,0v.608c-.1.025-.2.041-.286.074a2.933,2.933,0,0,0-.963.579,2.431,2.431,0,0,0-.6.843,2.481,2.481,0,0,0-.207.99,2.345,2.345,0,0,0,.237,1.1,2.252,2.252,0,0,0,.619.736,3.4,3.4,0,0,0,.845.471c.113.044.239.08.357.122v3.934c-.026-.005-.062,0-.087-.009a3.181,3.181,0,0,1-.562-.185,2.524,2.524,0,0,1-.423-.235c-.15-.1-.3-.219-.323-.241-.074-.062-.129-.109-.172-.147a.49.49,0,0,0-.336-.174H5.1a.538.538,0,0,0-.5.4A.71.71,0,0,0,4.878,20a2.919,2.919,0,0,0,.984.656,4.843,4.843,0,0,0,1.147.3v.559a.5.5,0,0,0,1,0v-.542a3.82,3.82,0,0,0,1.027-.2,3.152,3.152,0,0,0,1.06-.651,2.8,2.8,0,0,0,.666-.977,3.121,3.121,0,0,0,.229-1.19,2.183,2.183,0,0,0-.238-1.062,2.272,2.272,0,0,0-.618-.719,3.538,3.538,0,0,0-.843-.468c-.3-.119-.61-.229-.928-.328-.122-.038-.236-.077-.354-.115V11.94a2.708,2.708,0,0,1,.855.114,3.5,3.5,0,0,1,.38.157,7.975,7.975,0,0,0,5.684,3.678A.929.929,0,0,1,14.939,16ZM8.01,16.36c.161.05.326.1.481.15a3.58,3.58,0,0,1,.752.343,1.6,1.6,0,0,1,.5.479,1.268,1.268,0,0,1,.181.711,2.021,2.021,0,0,1-.152.783,1.8,1.8,0,0,1-.437.625,2.154,2.154,0,0,1-.716.422A2.616,2.616,0,0,1,8.01,20Zm-1-4.227v2.732c-.1-.05-.219-.087-.31-.144a1.693,1.693,0,0,1-.5-.474,1.188,1.188,0,0,1-.178-.679,1.528,1.528,0,0,1,.127-.619,1.509,1.509,0,0,1,.372-.517A1.746,1.746,0,0,1,7.01,12.133Z" fill="#666667"/><path d="M15.994,12.975a5.245,5.245,0,0,0,1.493-.229,3.808,3.808,0,0,0,1.372-.878.5.5,0,0,0-.705-.71,2.794,2.794,0,0,1-.994.644,4.286,4.286,0,0,1-1.166.173A3.986,3.986,0,0,1,12.151,9H12.5a.5.5,0,1,0,0-1h-.5V7.985A3.937,3.937,0,0,1,12.143,7H12.5a.5.5,0,0,0,.046-.991A3.977,3.977,0,0,1,15.994,4a4.287,4.287,0,0,1,1.157.169,2.591,2.591,0,0,1,.956.663.5.5,0,1,0,.738-.674,3.6,3.6,0,0,0-1.352-.928,5.168,5.168,0,0,0-1.5-.23,4.994,4.994,0,0,0-4.572,3H10.5a.5.5,0,0,0,0,1h.6a4.985,4.985,0,0,0-.1.987V8h-.5a.5.5,0,0,0,0,1h.6A5,5,0,0,0,15.994,12.975Z" fill="#666667"/><path d="M22.479,15a.5.5,0,0,0-.467.531,5.465,5.465,0,0,1-1.55,4.1,5.042,5.042,0,0,1-2.741,1.376l1.125-1.173a.5.5,0,0,0-.721-.691l-2,2.08a.5.5,0,0,0,.017.709l2.018,1.916a.5.5,0,1,0,.688-.725l-1.158-1.1a6.073,6.073,0,0,0,3.47-1.677,6.394,6.394,0,0,0,1.849-4.882A.5.5,0,0,0,22.479,15Z" fill="#666667"/><path d="M1.547,9a.491.491,0,0,0,.105-.011.5.5,0,0,0,.383-.595A4.773,4.773,0,0,1,3.192,4.317a4.5,4.5,0,0,1,3.09-1.342L5.145,4.154a.5.5,0,0,0,.721.694l2-2.079a.5.5,0,0,0-.014-.708L5.849.133a.5.5,0,1,0-.693.721L6.31,1.965A5.5,5.5,0,0,0,2.471,3.624,5.725,5.725,0,0,0,1.059,8.6.5.5,0,0,0,1.547,9Z" fill="#666667"/></svg>