<svg xmlns="http://www.w3.org/2000/svg" width="24" height="24" viewBox="0 0 24 24"><title>ico_file_uploader_24</title><path d="M6.858,3.855,9,1.717V15.491a.5.5,0,1,0,1,0V1.7l2.153,2.152a.5.5,0,0,0,.707-.707l-3-3a.5.5,0,0,0-.707,0l-3,3a.5.5,0,0,0,.707.707Z" fill="#666667"/><path d="M18.5,6h-7a.5.5,0,0,0-.5.5V6.5a.5.5,0,0,0,.5.5H18.5a.5.5,0,0,1,.5.5V20.5a.5.5,0,0,1-.5.5H18V12.6c0-.016-.008-.029-.009-.045a.49.49,0,0,0-.136-.411L13.852,8.153a.5.5,0,0,0-.39-.139A.469.469,0,0,0,13.394,8H11.509a.5.5,0,1,0,0,1H13v2.5A1.5,1.5,0,0,0,14.5,13H17v9.5a.5.5,0,0,1-.5.5H5.5a.5.5,0,0,1-.5-.5V9.5A.5.5,0,0,1,5.5,9h1l.01,0,.01,0h.964a.5.5,0,0,0,0-1H7.01V7.5a.5.5,0,0,1,.5-.5A.5.5,0,0,0,7.5,6,1.5,1.5,0,0,0,6,7.5V8H5.5A1.5,1.5,0,0,0,4,9.5v13A1.5,1.5,0,0,0,5.5,24H16.5A1.5,1.5,0,0,0,18,22.5V22h.5A1.5,1.5,0,0,0,20,20.5V7.5A1.5,1.5,0,0,0,18.5,6ZM14,11.5V9.711L16.294,12H14.5A.5.5,0,0,1,14,11.5Z" fill="#666667"/></svg>