<svg xmlns="http://www.w3.org/2000/svg" xmlns:xlink="http://www.w3.org/1999/xlink" viewBox="0 0 689 250"><defs><clipPath id="a"><path d="M118.45018,29.47093s-.02,7.96382,20.79792,20.61162c40.41941,24.55663,40.28318,47.06949,40.28318,51.79394,0,20.06893-20.88762,33.04231-30.5793,22.54224,0,0,9.50966-7.05764,9.50966-17.91,0,0-6.97376,4.59639-10.61913,5.38887,0,0,4.75483-8.40028,2.53591-23.14029,0,0-3.80382,7.44927-16.00792,13.4721,0,0,4.75483-10.61913.317-20.76283,0,0,.95093,12.67961-27.89512,26.15162S86.822,134.56235,86.822,134.56235s5.75026-6.10629,15.51272-1.81774c13.20736,5.80184,7.87,29.08437-13.36834,29.08437-20.67747,0-34.24962-22.48689-34.24962-40.04616,0-7.26015.787-20.61718,13.904-35.30817,10.43295-11.6849,23.29777-17.84991,26.059-30.771-14.29747,13.24812-40.0758,21.89389-55.40589,44.5658-13.76979,20.36437-9.29919,47.30036-6.82038,55.586a91.1633,91.1633,0,0,0,87.31244,64.96411c50.32581,0,91.64753-40.27245,91.64753-90.59818C211.41346,54.03326,138.98256,45.94893,118.45018,29.47093ZM106.25727,122.7376c-1.53364.35686-3.002-.28484-5.45253-1.03012a8.25747,8.25747,0,0,0-3.10242-.56341,38.82581,38.82581,0,0,1,4.84894-2.78109c2.43419-1.1208,4.51346-1.17918,5.48062,1.05088A2.54475,2.54475,0,0,1,106.25727,122.7376Z" fill="none"/></clipPath><linearGradient id="b" x1="165.72587" y1="208.61138" x2="76.33685" y2="53.78507" gradientUnits="userSpaceOnUse"><stop offset="0" stop-color="#ff5a37"/><stop offset="1" stop-color="#ffa52d"/></linearGradient></defs><title>-</title><g style="isolation:isolate"><g clip-path="url(#a)"><path d="M118.45018,29.47093s-.02,7.96382,20.79792,20.61162c40.41941,24.55663,40.28318,47.06949,40.28318,51.79394,0,20.06893-20.88762,33.04231-30.5793,22.54224,0,0,9.50966-7.05764,9.50966-17.91,0,0-6.97376,4.59639-10.61913,5.38887,0,0,4.75483-8.40028,2.53591-23.14029,0,0-3.80382,7.44927-16.00792,13.4721,0,0,4.75483-10.61913.317-20.76283,0,0,.95093,12.67961-27.89512,26.15162S86.822,134.56235,86.822,134.56235s5.75026-6.10629,15.51272-1.81774c13.20736,5.80184,7.87,29.08437-13.36834,29.08437-20.67747,0-34.24962-22.48689-34.24962-40.04616,0-7.26015.787-20.61718,13.904-35.30817,10.43295-11.6849,23.29777-17.84991,26.059-30.771-14.29747,13.24812-40.0758,21.89389-55.40589,44.5658-13.76979,20.36437-9.29919,47.30036-6.82038,55.586a91.1633,91.1633,0,0,0,87.31244,64.96411c50.32581,0,91.64753-40.27245,91.64753-90.59818C211.41346,54.03326,138.98256,45.94893,118.45018,29.47093Z" fill="#ff5a37"/><path d="M136.666,148.81605s2.28636,36.1963-40.58876,41.5341c-27.99875,3.48574-50.0353-14.35608-59.59614-37.08163-6.65592-15.82073-7.26553-34.00834.36878-49.01479,0,0-27.80493,26.50176-26.52645,66.16515,1.32755,41.18573,33.91638,95.31166,156.1759,79.64716,40.64662-5.20785,55.55484-62.163,56.15744-95.98049.74927-42.04879-18.92571-61.97926-18.92571-61.97926s10.26827,29.70975-13.39839,53.37642C177.14532,158.67009,154.70655,163.23345,136.666,148.81605Z" fill="#ffa52d" opacity="0.4" style="mix-blend-mode:lighten"/><path d="M202.666,169.81605s-40.87708,12.47289-66-21c0,0,10.99077,42.60284-35.84256,70.26951,0,0,16.22667,48.10912,69.82591,24.22575C187.84763,235.64791,200.80388,198.61339,202.666,169.81605Z" fill="#ffa52d" opacity="0.6" style="mix-blend-mode:lighten"/><path d="M131.49936,231.19105s25.5741-32.60549,5.16667-82.375c0,0,18.3241,37.43617,51.16667,50.66667C187.83269,199.48272,168.19313,232.361,131.49936,231.19105Z" fill="#ffa52d" opacity="0.8" style="mix-blend-mode:lighten"/><path d="M113.2189,124.64577a45.51781,45.51781,0,0,0,21.19-22.44225s4.75515-10.625.314-20.77618c0,0,.95164,12.689-27.91576,26.171s-19.98512,26.964-19.98512,26.964a12.65358,12.65358,0,0,1,5.79972-3.02257C97.37176,130.2619,104.84827,128.96053,113.2189,124.64577Z" fill="#ffa52d" opacity="0.6" style="mix-blend-mode:overlay"/><path d="M114.046,130.51838c12.40153,0,26.74785-5.76439,33.847-18.63552a28.18616,28.18616,0,0,0,2.58891-8.34913,45.46935,45.46935,0,0,0-.04136-15.15712s-2.35076,6.58412-16.03169,13.82691a111.155,111.155,0,0,1-19.75127,7.813c-32.62054,9.8998-27.8356,24.54583-27.8356,24.54583C91.96262,131.15981,91.99363,130.51838,114.046,130.51838Z" fill="#ffa52d" opacity="0.4" style="mix-blend-mode:overlay"/><path d="M114.046,130.51838c11.401,0,26.90119.64112,34.95192-6.10715,4.93724-4.13848,9.44509-9.60787,9.53-17.94264,0,0-6.75362,4.45761-10.63631,5.41606-5.37086,1.3258-15.035,3.35915-23.87688,2.85726C94.00922,113.03868,86.822,134.56235,86.822,134.56235,90.95972,130.73591,95.99487,130.51838,114.046,130.51838Z" fill="#ffa52d" opacity="0.2" style="mix-blend-mode:overlay"/><path d="M118.45018,29.47093s-.02,7.96382,20.79792,20.61162c40.41941,24.55663,40.28318,47.06949,40.28318,51.79394,0,20.06893-20.88762,33.04231-30.5793,22.54224,0,0,9.50966-7.05764,9.50966-17.91,0,0-6.97376,4.59639-10.61913,5.38887,0,0,4.75483-8.40028,2.53591-23.14029,0,0-3.80382,7.44927-16.00792,13.4721,0,0,4.75483-10.61913.317-20.76283,0,0,.95093,12.67961-27.89512,26.15162S86.822,134.56235,86.822,134.56235s5.75026-6.10629,15.51272-1.81774c13.20736,5.80184,7.87,29.08437-13.36834,29.08437-20.67747,0-34.24962-22.48689-34.24962-40.04616,0-7.26015.787-20.61718,13.904-35.30817,10.43295-11.6849,23.29777-17.84991,26.059-30.771-14.29747,13.24812-40.0758,21.89389-55.40589,44.5658-13.76979,20.36437-9.29919,47.30036-6.82038,55.586a91.1633,91.1633,0,0,0,87.31244,64.96411c50.32581,0,91.64753-40.27245,91.64753-90.59818C211.41346,54.03326,138.98256,45.94893,118.45018,29.47093Z" fill="url(#b)" style="mix-blend-mode:overlay"/></g><path d="M263.07477,180.70062a30.15286,30.15286,0,0,1-13.28369-2.93164,30.99526,30.99526,0,0,1-10.48145-8.25049,39.10051,39.10051,0,0,1-6.90137-12.86816,57.81012,57.81012,0,0,1,0-33.57227,39.11032,39.11032,0,0,1,6.90137-12.86816,30.73448,30.73448,0,0,1,10.48145-8.22461,31.815,31.815,0,0,1,26.56689,0,30.73911,30.73911,0,0,1,10.48145,8.22461,39.12832,39.12832,0,0,1,6.90137,12.86816,57.81012,57.81012,0,0,1,0,33.57227,39.1185,39.1185,0,0,1-6.90137,12.86816A31,31,0,0,1,276.358,177.769,30.15378,30.15378,0,0,1,263.07477,180.70062Zm0-6.79736a23.33224,23.33224,0,0,0,10.24756-2.2832,22.53537,22.53537,0,0,0,8.147-6.69385,32.832,32.832,0,0,0,5.29248-10.74072,54.89461,54.89461,0,0,0,0-28.59082,32.23179,32.23179,0,0,0-5.29248-10.689,22.75371,22.75371,0,0,0-8.147-6.6416,24.31479,24.31479,0,0,0-20.57373,0,22.948,22.948,0,0,0-8.06836,6.6416,32.55561,32.55561,0,0,0-5.31885,10.689,54.18039,54.18039,0,0,0,0,28.59082,33.166,33.166,0,0,0,5.31885,10.74072,22.72542,22.72542,0,0,0,8.06836,6.69385A23.1864,23.1864,0,0,0,263.07477,173.90325Z" fill="#ffa52d"/><path d="M309.982,123.20794h7.31641v7.939a38.87132,38.87132,0,0,1,7.88672-6.30469,20.4376,20.4376,0,0,1,10.84473-2.72412,22.76462,22.76462,0,0,1,9.02881,1.81641,19.82723,19.82723,0,0,1,7.31641,5.37012,26.42227,26.42227,0,0,1,4.87744,9.02881,40.68763,40.68763,0,0,1,1.81592,12.79053,40.868,40.868,0,0,1-1.81592,12.84229,25.41861,25.41861,0,0,1-4.98145,9.02881,20.27171,20.27171,0,0,1-7.52393,5.34473,24.48021,24.48021,0,0,1-9.3916,1.79,20.57226,20.57226,0,0,1-9.85889-2.38721,33.99492,33.99492,0,0,1-8.19824-6.17432v28.90186H309.982Zm24.751,50.79883a17.22177,17.22177,0,0,0,6.875-1.34912,13.91026,13.91026,0,0,0,5.37061-4.09912,20.1306,20.1306,0,0,0,3.50244-7.05664A36.57045,36.57045,0,0,0,351.7525,151.228a34.60922,34.60922,0,0,0-1.32324-10.11865,20.30181,20.30181,0,0,0-3.68408-7.13428,15.12117,15.12117,0,0,0-5.42236-4.20312,15.91016,15.91016,0,0,0-6.58984-1.375,17.52556,17.52556,0,0,0-9.28809,2.49072,40.247,40.247,0,0,0-8.14648,6.74512v27.2417a34.52123,34.52123,0,0,0,8.354,6.79736A18.39486,18.39486,0,0,0,334.733,174.00677Z" fill="#ffa52d"/><path d="M394.30084,180.38909a23.95078,23.95078,0,0,1-9.33984-1.86768,21.58178,21.58178,0,0,1-7.80957-5.604,28.52512,28.52512,0,0,1-5.37012-9.13281,35.99981,35.99981,0,0,1-2.02393-12.66064,34.75968,34.75968,0,0,1,2.17969-12.894,26.54623,26.54623,0,0,1,5.70752-9.02881,23.53972,23.53972,0,0,1,7.86133-5.31885,23.14726,23.14726,0,0,1,8.79492-1.76416,22.05562,22.05562,0,0,1,9.10645,1.86816,19.77543,19.77543,0,0,1,7.2124,5.52637,27.18887,27.18887,0,0,1,4.7998,9.13232,41.03244,41.03244,0,0,1,1.76416,12.583v1.40088H377.12555a27.21244,27.21244,0,0,0,1.42725,9.18408,20.855,20.855,0,0,0,3.81348,6.74561,16.13825,16.13825,0,0,0,12.40137,5.65576,18.2746,18.2746,0,0,0,10.248-2.62012,25.41812,25.41812,0,0,0,7.18652-7.60156l4.56641,3.63184a29.58921,29.58921,0,0,1-9.10645,9.33984Q402.29205,180.38909,394.30084,180.38909Zm15.77393-33.62354A35.40448,35.40448,0,0,0,408.648,139.475a18.73189,18.73189,0,0,0-3.00928-5.91553,13.22162,13.22162,0,0,0-4.82568-3.8916,15.19123,15.19123,0,0,0-6.61621-1.375,15.70841,15.70841,0,0,0-5.86328,1.11572,15.28142,15.28142,0,0,0-5.11084,3.39893,19.22607,19.22607,0,0,0-3.8916,5.7334,26.56951,26.56951,0,0,0-2.10156,8.22461Z" fill="#ffa52d"/><path d="M430.9859,123.20794h7.31641v8.82129a41.43863,41.43863,0,0,1,9.36572-6.97949,24.473,24.473,0,0,1,12.01221-2.93164q8.30127,0,12.479,4.35889,4.17627,4.35864,4.17725,12.24561v40.47314h-7.31641v-39.124q0-5.915-2.69824-8.79492t-8.45752-2.87988a20.53953,20.53953,0,0,0-10.09229,2.59424,46.27762,46.27762,0,0,0-9.46973,7.16064v41.04395H430.9859Z" fill="#ffa52d"/><path d="M522.77692,180.4931a41.60059,41.60059,0,0,1-14.16553-2.17969,24.52106,24.52106,0,0,1-15.72217-16.16309,42.36861,42.36861,0,0,1-1.86816-13.0498V100.53265h17.33105v48.15283q0,8.61328,3.4502,13.17969,3.45044,4.56592,11.23389,4.56592,7.62817,0,11.02637-4.56592,3.39844-4.56592,3.39893-13.17969V100.53265H554.481v48.46387a42.885,42.885,0,0,1-1.86816,13.10205,25.63256,25.63256,0,0,1-5.73389,9.93652,25.02212,25.02212,0,0,1-9.88477,6.27832A41.77872,41.77872,0,0,1,522.77692,180.4931Z" fill="#ff5a37"/><path d="M570.20319,179.19573V100.53265h17.22705v78.66309Z" fill="#ff5a37"/><path d="M627.48834,180.70062a45.73926,45.73926,0,0,1-16.88965-2.82812,42.14719,42.14719,0,0,1-12.53125-7.60156l8.71729-11.36377a32.58584,32.58584,0,0,0,8.95068,5.75977,26.21409,26.21409,0,0,0,10.71484,2.2832q7.83472,0,11.38965-3.91748a14.29827,14.29827,0,0,0,3.5542-9.98877q0-6.6936-3.4502-10.45557-3.4519-3.76172-10.14453-3.76172a16.53692,16.53692,0,0,0-7.70508,1.89355,21.59923,21.59923,0,0,0-6.71973,5.62988l-11.15625-3.47656,3.16553-42.34082h47.7373l-.88232,13.07568H618.66705l-1.50488,17.43457a17.71737,17.71737,0,0,1,5.91553-3.39844,28.412,28.412,0,0,1,9.9624-1.479,28.83812,28.83812,0,0,1,11.02637,1.97168,22.72112,22.72112,0,0,1,8.043,5.42236,22.41259,22.41259,0,0,1,4.87744,8.27637,32.81463,32.81463,0,0,1,1.63428,10.58545,29.94732,29.94732,0,0,1-2.12744,11.46729,24.94236,24.94236,0,0,1-6.14844,8.9248,28.13845,28.13845,0,0,1-9.833,5.81152A38.54447,38.54447,0,0,1,627.48834,180.70062Z" fill="#ff5a37"/></g></svg>