<svg width="128" height="128" viewBox="0 0 128 128" id="tnt-Spot-SessionExpired">
  <path fill="var(--sapIllus_ObjectFillColor)" d="M81.2268,79.7899 C78.5488,76.5439 74.8098,73.0109 69.6178,68.8429 C69.5538,68.7679 68.5928,67.9849 67.4248,66.5009 C66.7098,65.5919 66.7098,64.1779 67.4218,63.2669 C68.6048,61.7519 69.5858,60.9529 69.6498,60.8769 C74.8588,56.6899 78.5978,53.1559 81.2588,49.9299 C83.7248,46.9339 85.2758,44.2069 86.2548,41.4789 C87.9048,36.9279 87.9368,32.0639 87.9368,26.2259 L39.9168,26.2259 C39.8518,32.0249 39.9168,36.8899 41.5668,41.4789 C42.5788,44.2069 44.1458,46.9339 46.6118,49.9299 C49.2898,53.1759 53.0288,56.7089 58.2208,60.8769 C58.2838,60.9499 59.2048,61.6989 60.3358,63.1209 C61.0998,64.0789 61.1008,65.5909 60.3398,66.5519 C59.1908,68.0029 58.2518,68.7689 58.1888,68.8429 C52.9798,73.0289 49.2408,76.5629 46.5798,79.7899 C44.1148,82.7859 42.5628,85.5129 41.5838,88.2399 C39.9348,92.7919 39.9018,97.3809 39.9018,103.2199 L87.9218,103.2199 C87.9868,97.4199 87.9218,92.8299 86.2718,88.2399 C85.2598,85.5129 83.6928,82.7859 81.2268,79.7899" class="sapIllus_ObjectFillColor"/>
  <path fill="var(--sapIllus_Layering1)" d="M87.7097,95.5038 C85.4757,97.0988 81.4247,97.3158 78.9457,96.1378 L64.0567,85.8148 C63.9217,85.7418 63.7667,85.7388 63.6287,85.8058 L47.8457,96.0108 C46.5577,96.5888 41.8707,97.3978 40.1707,95.3358 C39.9187,97.9018 39.9017,100.6348 39.9017,103.7198 L87.9217,103.7198 C87.9557,100.7108 87.9487,98.0298 87.7097,95.5038" class="sapIllus_Layering1"/>
  <path fill="var(--sapIllus_BrandColorSecondary)" d="M94.2796 103.7196L33.5716 103.7196C32.1516 103.7196 30.9996 104.8706 30.9996 106.2916L30.9996 109.1486C30.9996 110.5686 32.1516 111.7196 33.5716 111.7196L94.2796 111.7196C95.6996 111.7196 96.8516 110.5686 96.8516 109.1486L96.8516 106.2916C96.8516 104.8706 95.6996 103.7196 94.2796 103.7196M94.2796 17.9998L33.5716 17.9998C32.1516 17.9998 30.9996 19.1508 30.9996 20.5718L30.9996 23.4288C30.9996 24.8488 32.1516 25.9998 33.5716 25.9998L94.2796 25.9998C95.6996 25.9998 96.8516 24.8488 96.8516 23.4288L96.8516 20.5718C96.8516 19.1508 95.6996 17.9998 94.2796 17.9998" class="sapIllus_BrandColorSecondary"/>
  <path fill="var(--sapIllus_StrokeDetailColor)" d="M49.2044 82.9588C49.0904 82.9588 48.9764 82.9198 48.8824 82.8408 48.6714 82.6628 48.6444 82.3478 48.8224 82.1368 51.1354 79.3958 52.7854 77.8968 55.2014 75.9338 55.4164 75.7608 55.7304 75.7938 55.9054 76.0058 56.0794 76.2208 56.0464 76.5348 55.8324 76.7088 53.4134 78.6748 51.8624 80.0848 49.5874 82.7808 49.4884 82.8978 49.3474 82.9588 49.2044 82.9588M57.4695 74.9959C57.3355 74.9959 57.2015 74.9419 57.1025 74.8359 56.9145 74.6339 56.9275 74.3169 57.1295 74.1289 57.8305 73.4789 58.5135 72.8589 59.1795 72.2679 59.3855 72.0859 59.7015 72.1029 59.8855 72.3099 60.0685 72.5169 60.0505 72.8329 59.8435 73.0169 59.1825 73.6029 58.5055 74.2179 57.8095 74.8629 57.7135 74.9519 57.5915 74.9959 57.4695 74.9959" class="sapIllus_StrokeDetailColor"/>
  <path fill="var(--sapIllus_PatternShadow)" d="M63.9324 57.9393C69.4494 53.3503 78.5524 43.0253 84.6974 28.9903 86.6304 40.2583 73.4754 57.6003 63.9324 57.9393M85.8015 88.4081C85.3015 87.0611 84.6765 85.7581 83.9115 84.4531 80.1025 92.6541 62.7665 100.8761 40.4045 102.0611 40.4035 102.2821 40.4025 102.4971 40.4025 102.7201L87.4265 102.7201C87.4815 97.1131 87.3635 92.7561 85.8015 88.4081" class="sapIllus_PatternShadow"/>
  <path fill="var(--sapIllus_StrokeDetailColor)" d="M40.4019158,102.7196 C40.4031,97.4296 40.4521,92.8286 42.0541,88.4076 C43.0691,85.5846 44.6291,82.9476 46.9651,80.1086 C49.6021,76.9096 53.3761,73.3526 58.5511,69.1866 L58.6311,69.1136 C58.9091,68.8626 59.7551,68.0966 60.7321,66.8626 C61.6321,65.7236 61.6311,63.9436 60.7271,62.8086 C59.7621,61.5976 58.9321,60.8486 58.6591,60.6016 L58.5341,60.4876 C53.4271,56.3886 49.6541,52.8306 46.9981,49.6126 C44.6621,46.7736 43.0851,44.1336 42.0371,41.3106 C40.4751,36.9636 40.3571,32.6066 40.4121,26.9996 L87.4372492,26.9996 C87.4361,32.2876 87.3871,36.8886 85.7841,41.3106 C84.7711,44.1336 83.2101,46.7716 80.8731,49.6116 C78.2361,52.8086 74.4631,56.3656 69.2881,60.5316 L69.2091,60.6046 C68.9201,60.8656 68.0401,61.6626 67.0271,62.9586 C66.1681,64.0586 66.1701,65.7136 67.0321,66.8106 C68.0301,68.0786 68.8941,68.8606 69.1781,69.1156 L69.3051,69.2326 C74.4131,73.3326 78.1871,76.8906 80.8411,80.1086 C83.1761,82.9466 84.7541,85.5846 85.8011,88.4076 C87.3631,92.7556 87.4821,97.1136 87.4271,102.7196 L40.4019158,102.7196 Z M92.4261,102.7196 L88.4251,102.7196 C88.4801,97.0186 88.3591,92.5676 86.7411,88.0656 C85.6661,85.1696 83.9881,82.3596 81.6131,79.4726 L81.6121,79.4716 C78.9141,76.2006 75.0931,72.5966 69.9991,68.5186 C69.9831,68.4996 69.9331,68.4506 69.8491,68.3736 C69.5801,68.1316 68.7631,67.3946 67.8181,66.1926 C67.2421,65.4586 67.2411,64.3096 67.8161,63.5736 C68.7751,62.3466 69.6071,61.5936 69.8801,61.3466 C69.9271,61.3026 69.9641,61.2686 69.9791,61.2546 C75.1511,57.0946 78.9671,53.4946 81.6451,50.2466 C84.0241,47.3566 85.6861,44.5426 86.7251,41.6496 C88.3851,37.0686 88.4351,32.3796 88.4361,26.9996 L92.5001,26.9996 C92.7761,26.9996 93.0001,26.7766 93.0001,26.4996 C93.0001,26.2236 92.7761,25.9996 92.5001,25.9996 L87.9371,25.9996 L39.9171,25.9996 L35.4251,25.9996 C35.1491,25.9996 34.9251,26.2236 34.9251,26.4996 C34.9251,26.7766 35.1491,26.9996 35.4251,26.9996 L39.4141,26.9996 C39.3591,32.7016 39.4801,37.1536 41.0981,41.6536 C42.1731,44.5496 43.8501,47.3606 46.2261,50.2476 C48.9271,53.5206 52.7481,57.1246 57.8401,61.2006 C57.8561,61.2196 57.9061,61.2686 57.9891,61.3446 C58.2751,61.6016 59.0311,62.2846 59.9451,63.4316 C60.5611,64.2046 60.5621,65.4656 59.9471,66.2406 C59.0221,67.4106 58.2511,68.1096 57.9601,68.3716 C57.9121,68.4156 57.8741,68.4506 57.8601,68.4656 C52.6881,72.6236 48.8721,76.2236 46.1941,79.4726 C43.8151,82.3636 42.1531,85.1756 41.1131,88.0696 C39.4541,92.6496 39.4041,97.3376 39.4031,102.7196 L35.3521,102.7196 C35.0751,102.7196 34.8521,102.9436 34.8521,103.2196 C34.8521,103.4956 35.0751,103.7196 35.3521,103.7196 L39.9021,103.7196 L87.9221,103.7196 L92.4261,103.7196 C92.7031,103.7196 92.9261,103.4956 92.9261,103.2196 C92.9261,102.9436 92.7031,102.7196 92.4261,102.7196 L92.4261,102.7196 Z" class="sapIllus_StrokeDetailColor"/>
  <path fill="var(--sapIllus_Layering1)" d="M108.164 9.2762L101.247 15.3712C100.831 15.7362 100.791 16.3682 101.157 16.7822 101.321 16.9682 101.539 17.0792 101.768 17.1112 102.046 17.1502 102.34 17.0722 102.568 16.8722L109.485 10.7772C109.901 10.4122 109.94 9.7802 109.575 9.3652 109.211 8.9522 108.579 8.9112 108.164 9.2762M116.5443 26.0838C116.4613 25.5378 115.9523 25.1618 115.4053 25.2458L109.3003 26.1768C108.7543 26.2598 108.3793 26.7698 108.4623 27.3148 108.5313 27.7628 108.8853 28.0958 109.3123 28.1558 109.4053 28.1688 109.5033 28.1688 109.6023 28.1538L115.7063 27.2238C116.2523 27.1408 116.6273 26.6308 116.5443 26.0838M94.0873 1.0457C93.5563.8807 93.0003 1.1757 92.8353 1.7027L91.0453 7.4417C90.8813 7.9697 91.1753 8.5297 91.7023 8.6947 91.7563 8.7117 91.8093 8.7237 91.8623 8.7307 92.3383 8.7977 92.8073 8.5127 92.9553 8.0377L94.7453 2.2987C94.9093 1.7717 94.6153 1.2107 94.0873 1.0457" class="sapIllus_Layering1"/>
</svg>