<svg width="320" height="240" viewBox="0 0 320 240" id="tnt-Scene-Fingerprint">
  <path fill="var(--sapIllus_BackgroundColor)" d="M277.2206,107.7143 C268.8236,100.8953 258.3986,96.3043 247.2836,93.3623 C235.4896,90.3873 223.3716,88.8863 211.2076,88.8953 C210.5876,88.8913 209.9696,88.8953 209.3506,88.8953 C208.9586,88.8963 208.5796,88.8793 208.2116,88.8483 C218.7696,81.1693 225.0126,68.8993 225.0036,55.8443 C225.0036,33.2863 206.7176,14.9993 184.1596,14.9993 L57.8436,14.9993 C35.2856,14.9993 16.9996,33.2863 16.9996,55.8443 C16.9996,78.4023 35.2856,96.6883 57.8436,96.6883 L71.9886,96.6883 C42.7666,106.4083 19.9216,127.9563 20.0276,158.3233 C20.1006,179.0763 31.3086,199.2053 50.0406,211.6153 C70.5126,225.1783 96.8526,225.0663 121.2516,225.0333 C141.0746,225.0073 160.8956,225.1573 180.7166,225.0223 C199.5076,224.8933 219.0966,225.8273 237.7236,223.2673 C274.2366,218.2473 302.1636,190.6563 302.04796,157.3383 C301.9826,138.6873 292.6786,120.2673 277.2206,107.7143" class="sapIllus_BackgroundColor"/>
  <path fill="var(--sapIllus_ObjectFillColor)" d="M242.4277,47.9711 L242.4277,146.3981 L58.0047,146.3981 L58.0047,47.9711 C58.0047,42.6451 62.3247,38.3161 67.6597,38.3161 L232.7717,38.3161 C238.1077,38.3161 242.4277,42.6451 242.4277,47.9711" class="sapIllus_ObjectFillColor"/>
  <path fill="var(--sapIllus_BrandColorSecondary)" d="M164.0058,101.0082 L69.3028,101.0082 C68.7458,101.0082 68.2948,100.5572 68.2948,100.0002 L68.2948,88.3412 C68.2948,87.7842 68.7458,87.3332 69.3028,87.3332 L164.0058,87.3332 C164.5628,87.3332 165.0138,87.7842 165.0138,88.3412 L165.0138,100.0002 C165.0138,100.5572 164.5628,101.0082 164.0058,101.0082" class="sapIllus_BrandColorSecondary"/>
  <path fill="var(--sapIllus_StrokeDetailColor)" d="M110.1992 128.769C110.0972 128.769 109.9952 128.739 109.9072 128.674 109.6822 128.513 109.6322 128.201 109.7942 127.977 114.0072 122.132 117.0652 115.65 118.8842 108.708 118.9532 108.441 119.2212 108.278 119.4942 108.352 119.7612 108.421 119.9212 108.695 119.8502 108.962 118.0012 116.023 114.8902 122.618 110.6042 128.561 110.5072 128.697 110.3542 128.769 110.1992 128.769M97.0273 123.2465C96.9163 123.2465 96.8033 123.2095 96.7113 123.1335 96.4973 122.9585 96.4653 122.6435 96.6403 122.4305 97.9723 120.8005 99.2003 119.0635 100.2883 117.2685 100.4313 117.0325 100.7403 116.9585 100.9743 117.1005 101.2113 117.2435 101.2863 117.5515 101.1433 117.7865 100.0313 119.6215 98.7763 121.3965 97.4143 123.0625 97.3153 123.1845 97.1723 123.2465 97.0273 123.2465M121.6005 129.0698C121.5115 129.0698 121.4215 129.0468 121.3405 128.9978 121.1045 128.8538 121.0305 128.5468 121.1725 128.3098 122.5505 126.0428 123.8055 123.6648 124.9035 121.2428 125.0165 120.9908 125.3165 120.8808 125.5645 120.9938 125.8165 121.1068 125.9275 121.4038 125.8135 121.6548 124.7005 124.1138 123.4265 126.5268 122.0285 128.8298 121.9335 128.9838 121.7685 129.0698 121.6005 129.0698M93.1835 120.2133C93.0725 120.2133 92.9605 120.1773 92.8695 120.1023 92.6545 119.9283 92.6215 119.6123 92.7945 119.3993 95.8095 115.6783 98.1185 111.5063 99.6585 106.9973 99.7475 106.7363 100.0335 106.6003 100.2935 106.6863 100.5545 106.7753 100.6945 107.0603 100.6055 107.3213 99.0265 111.9413 96.6605 116.2163 93.5725 120.0273 93.4735 120.1503 93.3295 120.2133 93.1835 120.2133M128.0458 127.5893C127.9668 127.5893 127.8858 127.5703 127.8118 127.5303 127.5668 127.4023 127.4748 127.0993 127.6048 126.8553 131.0938 120.2793 133.5018 113.2293 134.7618 105.8973 134.8088 105.6243 135.0638 105.4413 135.3398 105.4883 135.6108 105.5353 135.7948 105.7943 135.7478 106.0673 134.4698 113.5033 132.0258 120.6543 128.4868 127.3233 128.3978 127.4923 128.2248 127.5893 128.0458 127.5893M98.9814 87.3335C101.0104 81.8215 105.5454 77.5005 111.1544 75.7565 111.4184 75.6745 111.5654 75.3945 111.4834 75.1305 111.4024 74.8675 111.1254 74.7185 110.8574 74.8015 104.8934 76.6555 100.0784 81.2775 97.9754 87.1645 97.9554 87.2205 97.9424 87.2775 97.9224 87.3335L98.9814 87.3335zM96.1093 101.0082C95.0383 106.3372 92.7183 111.4402 89.3923 115.7702 89.2243 115.9882 89.2653 116.3032 89.4843 116.4712 89.5753 116.5402 89.6823 116.5742 89.7893 116.5742 89.9383 116.5742 90.0873 116.5072 90.1853 116.3792 93.6253 111.9022 96.0203 106.6202 97.1123 101.1052 97.1183 101.0722 97.1233 101.0402 97.1293 101.0082L96.1093 101.0082z" class="sapIllus_StrokeDetailColor"/>
  <path fill="var(--sapIllus_StrokeDetailColor)" d="M93.7587 86.0893C93.7017 86.0893 93.6457 86.0793 93.5897 86.0603 93.3297 85.9663 93.1947 85.6803 93.2877 85.4203 96.8457 75.5403 106.2937 68.9023 116.7997 68.9023 127.0197 68.9023 136.1087 75.0213 139.9537 84.4883 140.0587 84.7443 139.9357 85.0363 139.6797 85.1403 139.4227 85.2443 139.1307 85.1213 139.0287 84.8653 135.3357 75.7763 126.6117 69.9023 116.7997 69.9023 106.7147 69.9023 97.6437 76.2753 94.2297 85.7583 94.1557 85.9623 93.9637 86.0893 93.7587 86.0893M91.0097 101.0082C90.1337 104.7792 88.5807 108.3202 86.3907 111.5342 86.2357 111.7622 86.2937 112.0732 86.5227 112.2292 86.6087 112.2872 86.7057 112.3162 86.8037 112.3162 86.9627 112.3162 87.1197 112.2392 87.2167 112.0972 89.4997 108.7492 91.1137 105.0562 92.0127 101.1192 92.0207 101.0822 92.0267 101.0452 92.0337 101.0082L91.0097 101.0082zM142.7021 117.9506C142.6531 117.9506 142.6021 117.9436 142.5531 117.9286 142.2891 117.8456 142.1421 117.5646 142.2241 117.3016 143.6621 112.6986 144.6761 107.9296 145.2381 103.1286 145.2701 102.8546 145.5121 102.6646 145.7941 102.6896 146.0671 102.7216 146.2641 102.9716 146.2321 103.2456 145.6621 108.1086 144.6351 112.9376 143.1801 117.5996 143.1121 117.8136 142.9151 117.9506 142.7021 117.9506" class="sapIllus_StrokeDetailColor"/>
  <path fill="var(--sapIllus_StrokeDetailColor)" d="M88.5654 87.3335C91.6174 74.1225 103.2094 64.9035 116.7994 64.9035 118.0984 64.9035 119.4004 64.9895 120.6694 65.1585 120.9314 65.2055 121.1934 65.0035 121.2304 64.7295 121.2674 64.4555 121.0754 64.2045 120.8014 64.1685 119.4894 63.9925 118.1424 63.9035 116.7994 63.9035 102.7004 63.9035 90.6764 73.4925 87.5614 87.2225 87.5524 87.2595 87.5474 87.2965 87.5394 87.3335L88.5654 87.3335zM85.8583 101.0082C85.7423 101.4322 85.6183 101.8522 85.4823 102.2672 85.3953 102.5292 85.5393 102.8122 85.8003 102.8982 85.8523 102.9152 85.9053 102.9232 85.9573 102.9232 86.1673 102.9232 86.3633 102.7892 86.4313 102.5792 86.5873 102.1042 86.7323 101.6232 86.8633 101.1382 86.8743 101.0952 86.8813 101.0512 86.8933 101.0082L85.8583 101.0082zM84.2206 107.0248C84.1416 107.0248 84.0626 107.0058 83.9886 106.9668 83.7436 106.8388 83.6496 106.5378 83.7786 106.2928 84.1506 105.5828 84.4946 104.8438 84.8036 104.0978 84.9076 103.8418 85.2046 103.7178 85.4556 103.8268 85.7116 103.9318 85.8326 104.2238 85.7276 104.4788 85.4076 105.2538 85.0496 106.0198 84.6626 106.7568 84.5746 106.9268 84.4006 107.0248 84.2206 107.0248M111.3163 101.0082C110.0583 109.7702 106.4603 118.0602 100.9033 124.9872 100.7303 125.2012 100.7643 125.5162 100.9803 125.6892 101.0723 125.7632 101.1823 125.7992 101.2933 125.7992 101.4393 125.7992 101.5843 125.7352 101.6823 125.6122 107.3683 118.5282 111.0453 110.0442 112.3193 101.0782 112.3223 101.0552 112.3233 101.0312 112.3263 101.0082L111.3163 101.0082zM115.8349 101.0082C114.6109 110.3512 110.9399 119.2592 105.2159 126.7752 105.0479 126.9942 105.0909 127.3082 105.3109 127.4752 105.3999 127.5442 105.5069 127.5772 105.6129 127.5772 105.7639 127.5772 105.9129 127.5102 106.0109 127.3802 111.8559 119.7082 115.5999 110.6122 116.8369 101.0722 116.8389 101.0512 116.8409 101.0292 116.8439 101.0082L115.8349 101.0082zM120.3505 101.0082C120.1455 102.6882 119.8675 104.3692 119.5215 106.0082 119.4645 106.2792 119.6365 106.5432 119.9075 106.6012 119.9425 106.6082 119.9765 106.6122 120.0115 106.6122 120.2425 106.6122 120.4505 106.4502 120.4995 106.2152 120.8565 104.5292 121.1435 102.7962 121.3515 101.0682 121.3535 101.0482 121.3545 101.0282 121.3565 101.0082L120.3505 101.0082zM106.249 101.0082C105.492 105.7832 103.979 110.3812 101.749 114.6732 101.621 114.9182 101.717 115.2202 101.962 115.3472 102.204 115.4772 102.509 115.3802 102.636 115.1342 104.93 110.7232 106.481 105.9962 107.251 101.0852 107.255 101.0602 107.257 101.0332 107.261 101.0082L106.249 101.0082zM110.6699 87.3335C112.3389 85.7675 114.4929 84.9015 116.7999 84.9015 119.1069 84.9015 121.2589 85.7685 122.9279 87.3335L124.3159 87.3335C124.2159 87.2185 124.1219 87.0985 124.0159 86.9865 122.1129 84.9975 119.5509 83.9015 116.7999 83.9015 114.0489 83.9015 111.4859 84.9975 109.5839 86.9855 109.4769 87.0975 109.3819 87.2175 109.2809 87.3335L110.6699 87.3335zM125.3701 101.0082C124.2501 110.8612 120.7321 120.4202 115.1911 128.6572 115.0371 128.8872 115.0991 129.1972 115.3271 129.3522 115.4131 129.4092 115.5101 129.4372 115.6061 129.4372 115.7661 129.4372 115.9251 129.3602 116.0211 129.2162 121.6621 120.8302 125.2411 111.0962 126.3731 101.0642 126.3751 101.0452 126.3751 101.0272 126.3771 101.0082L125.3701 101.0082zM129.1396 87.3335L130.2626 87.3335C130.2266 87.2585 130.2016 87.1805 130.1636 87.1055 129.6026 86.0005 128.9026 84.9645 128.0826 84.0275 127.9016 83.8185 127.5846 83.8005 127.3776 83.9805 127.1696 84.1625 127.1486 84.4785 127.3306 84.6865 128.0356 85.4945 128.6366 86.3885 129.1396 87.3335M130.4033 101.0082C129.7643 106.9882 128.3193 112.8462 126.1033 118.4162 126.0023 118.6732 126.1273 118.9632 126.3833 119.0662 126.4443 119.0892 126.5073 119.1012 126.568305 119.1012 126.7663 119.1012 126.9553 118.9822 127.0333 118.7852 129.2893 113.1132 130.7593 107.1512 131.4043 101.0612 131.4053 101.0432 131.4063 101.0262 131.4083 101.0082L130.4033 101.0082zM135.4257 101.0082C135.3687 101.5682 135.3057 102.1242 135.2387 102.6792 135.2037 102.9532 135.3987 103.2022 135.6727 103.2372 135.6937 103.2392 135.7147 103.2402 135.7357 103.2402 135.9837 103.2402 136.1987 103.0552 136.2307 102.8022 136.3027 102.2232 136.3677 101.6422 136.4257 101.0582L136.4287 101.0082 135.4257 101.0082zM114.8476 75.0014C115.4896 74.9364 116.1456 74.9024 116.7996 74.9024 124.7436 74.9024 131.8756 79.8934 134.6146 87.3334L135.6746 87.3334C135.6556 87.2764 135.6426 87.2194 135.6226 87.1634 132.7906 79.2314 125.2256 73.9024 116.7996 73.9024 116.1126 73.9024 115.4206 73.9384 114.7456 74.0074 114.4716 74.0344 114.2716 74.2804 114.2996 74.5554 114.3276 74.8304 114.5686 75.0304 114.8476 75.0014M140.4423 101.0082C139.7023 108.8252 137.7403 116.4272 134.6143 123.6022 134.5043 123.8562 134.6193 124.1502 134.8723 124.2602 134.9373 124.2882 135.0053 124.3022 135.0723 124.3022 135.2643 124.3022 135.4483 124.1902 135.5303 124.0022 138.7073 116.7152 140.6963 108.9942 141.4443 101.0552 141.4453 101.0392 141.4453 101.0242 141.4473 101.0082L140.4423 101.0082zM124.5644 65.9545C134.8104 68.7985 142.6424 76.9835 145.0344 87.3335L146.0594 87.3335C146.0514 87.2965 146.0454 87.2595 146.0384 87.2225 143.5964 76.4615 135.4704 67.9425 124.8324 64.9915 124.5614 64.9165 124.2904 65.0735 124.2164 65.3395 124.1424 65.6055 124.2984 65.8815 124.5644 65.9545M150.1464 87.3335L151.1664 87.3335C151.1604 87.3015 151.1564 87.2695 151.1504 87.2375 150.2034 82.3165 148.2474 77.7445 145.3354 73.6475 145.1764 73.4225 144.8634 73.3705 144.6384 73.5305 144.4144 73.6895 144.3614 74.0025 144.5214 74.2285 147.3294 78.1805 149.2194 82.5895 150.1464 87.3335M150.4765 101.0082C150.4265 101.5802 150.3735 102.1522 150.3135 102.7202 150.2845 102.9942 150.4835 103.2402 150.7575 103.2702 150.7755 103.2722 150.7925 103.2732 150.8115 103.2732 151.0635 103.2732 151.2805 103.0822 151.3075 102.8252 151.3705 102.2372 151.4265 101.6442 151.4775 101.0502 151.4785 101.0362 151.4785 101.0222 151.4795 101.0082L150.4765 101.0082z" class="sapIllus_StrokeDetailColor"/>
  <path fill="var(--sapIllus_StrokeDetailColor)" d="M141.4726 70.2983C141.3426 70.2983 141.2126 70.2473 141.1156 70.1483 134.6646 63.5413 126.0296 59.9033 116.7996 59.9033 111.8346 59.9033 107.0496 60.9493 102.5766 63.0133 102.3296 63.1293 102.0296 63.0203 101.9136 62.7683 101.7986 62.5183 101.9086 62.2213 102.1596 62.1053 106.7636 59.9813 111.6896 58.9033 116.7996 58.9033 126.3016 58.9033 135.1906 62.6493 141.8296 69.4483 142.0236 69.6473 142.0196 69.9633 141.8226 70.1553 141.7246 70.2513 141.5986 70.2983 141.4726 70.2983M83.4521 87.3335C85.1901 78.4335 90.5511 70.4635 98.1761 65.4575 98.4061 65.3065 98.4711 64.9955 98.3191 64.7655 98.1681 64.5325 97.8561 64.4695 97.6271 64.6215 89.7511 69.7925 84.2191 78.0355 82.4491 87.2375 82.4421 87.2695 82.4381 87.3015 82.4321 87.3335L83.4521 87.3335zM110.1992 128.769C110.0972 128.769 109.9952 128.739 109.9072 128.674 109.6822 128.513 109.6322 128.201 109.7942 127.977 114.0072 122.132 117.0652 115.65 118.8842 108.708 118.9532 108.441 119.2212 108.278 119.4942 108.352 119.7612 108.421 119.9212 108.695 119.8502 108.962 118.0012 116.023 114.8902 122.618 110.6042 128.561 110.5072 128.697 110.3542 128.769 110.1992 128.769M97.0273 123.2465C96.9163 123.2465 96.8033 123.2095 96.7113 123.1335 96.4973 122.9585 96.4653 122.6435 96.6403 122.4305 97.9723 120.8005 99.2003 119.0635 100.2883 117.2685 100.4313 117.0325 100.7403 116.9585 100.9743 117.1005 101.2113 117.2435 101.2863 117.5515 101.1433 117.7865 100.0313 119.6215 98.7763 121.3965 97.4143 123.0625 97.3153 123.1845 97.1723 123.2465 97.0273 123.2465M121.6005 129.0698C121.5115 129.0698 121.4215 129.0468 121.3405 128.9978 121.1045 128.8538 121.0305 128.5468 121.1725 128.3098 122.5505 126.0428 123.8055 123.6648 124.9035 121.2428 125.0165 120.9908 125.3165 120.8808 125.5645 120.9938 125.8165 121.1068 125.9275 121.4038 125.8135 121.6548 124.7005 124.1138 123.4265 126.5268 122.0285 128.8298 121.9335 128.9838 121.7685 129.0698 121.6005 129.0698M104.4501 87.3335C106.8881 82.7455 111.5921 79.9025 116.8001 79.9025 119.5201 79.9025 122.1571 80.6845 124.4251 82.1635 124.6581 82.3145 124.9671 82.2495 125.1171 82.0185 125.2671 81.7865 125.2031 81.4775 124.9711 81.3255 122.5411 79.7405 119.7151 78.9025 116.8001 78.9025 111.1281 78.9025 106.0071 82.0465 103.4351 87.1055 103.3971 87.1805 103.3721 87.2585 103.3361 87.3335L104.4501 87.3335zM101.1992 101.0082C101.0592 101.7952 100.8982 102.5852 100.7142 103.3562 100.6492 103.6242 100.8152 103.8942 101.0842 103.9582 101.1232 103.9682 101.1622 103.9722 101.2002 103.9722 101.4272 103.9722 101.6322 103.8182 101.6862 103.5882 101.8822 102.7702 102.0552 101.9312 102.2022 101.0942 102.2072 101.0662 102.2102 101.0362 102.2152 101.0082L101.1992 101.0082zM93.1835 120.2133C93.0725 120.2133 92.9605 120.1773 92.8695 120.1023 92.6545 119.9283 92.6215 119.6123 92.7945 119.3993 95.8095 115.6783 98.1185 111.5063 99.6585 106.9973 99.7475 106.7363 100.0335 106.6003 100.2935 106.6863 100.5545 106.7753 100.6945 107.0603 100.6055 107.3213 99.0265 111.9413 96.6605 116.2163 93.5725 120.0273 93.4735 120.1503 93.3295 120.2133 93.1835 120.2133M128.0458 127.5893C127.9668 127.5893 127.8858 127.5703 127.8118 127.5303 127.5668 127.4023 127.4748 127.0993 127.6048 126.8553 131.0938 120.2793 133.5018 113.2293 134.7618 105.8973 134.8088 105.6243 135.0638 105.4413 135.3398 105.4883 135.6108 105.5353 135.7948 105.7943 135.7478 106.0673 134.4698 113.5033 132.0258 120.6543 128.4868 127.3233 128.3978 127.4923 128.2248 127.5893 128.0458 127.5893" class="sapIllus_StrokeDetailColor"/>
  <path fill="var(--sapIllus_StrokeDetailColor)" d="M93.7587 86.0893C93.7017 86.0893 93.6457 86.0793 93.5897 86.0603 93.3297 85.9663 93.1947 85.6803 93.2877 85.4203 96.8457 75.5403 106.2937 68.9023 116.7997 68.9023 127.0197 68.9023 136.1087 75.0213 139.9537 84.4883 140.0587 84.7443 139.9357 85.0363 139.6797 85.1403 139.4227 85.2443 139.1307 85.1213 139.0287 84.8653 135.3357 75.7763 126.6117 69.9023 116.7997 69.9023 106.7147 69.9023 97.6437 76.2753 94.2297 85.7583 94.1557 85.9623 93.9637 86.0893 93.7587 86.0893M142.7021 117.9506C142.6531 117.9506 142.6021 117.9436 142.5531 117.9286 142.2891 117.8456 142.1421 117.5646 142.2241 117.3016 143.6621 112.6986 144.6761 107.9296 145.2381 103.1286 145.2701 102.8546 145.5121 102.6646 145.7941 102.6896 146.0671 102.7216 146.2641 102.9716 146.2321 103.2456 145.6621 108.1086 144.6351 112.9376 143.1801 117.5996 143.1121 117.8136 142.9151 117.9506 142.7021 117.9506M84.2206 107.0248C84.1416 107.0248 84.0626 107.0058 83.9886 106.9668 83.7436 106.8388 83.6496 106.5378 83.7786 106.2928 84.1506 105.5828 84.4946 104.8438 84.8036 104.0978 84.9076 103.8418 85.2046 103.7178 85.4556 103.8268 85.7116 103.9318 85.8326 104.2238 85.7276 104.4788 85.4076 105.2538 85.0496 106.0198 84.6626 106.7568 84.5746 106.9268 84.4006 107.0248 84.2206 107.0248M141.4726 70.2983C141.3426 70.2983 141.2126 70.2473 141.1156 70.1483 134.6646 63.5413 126.0296 59.9033 116.7996 59.9033 111.8346 59.9033 107.0496 60.9493 102.5766 63.0133 102.3296 63.1293 102.0296 63.0203 101.9136 62.7683 101.7986 62.5183 101.9086 62.2213 102.1596 62.1053 106.7636 59.9813 111.6896 58.9033 116.7996 58.9033 126.3016 58.9033 135.1906 62.6493 141.8296 69.4483 142.0236 69.6473 142.0196 69.9633 141.8226 70.1553 141.7246 70.2513 141.5986 70.2983 141.4726 70.2983" class="sapIllus_StrokeDetailColor"/>
  <path fill="var(--sapIllus_ObjectFillColor)" d="M127.747,161.0014 L172.734,161.0014 C172.81,174.0654 180.038,184.2294 186.256,191.2404 L114.145,191.2404 C121.72,183.7774 127.361,174.6514 127.747,161.0014" class="sapIllus_ObjectFillColor"/>
  <path fill="var(--sapIllus_BrandColorSecondary)" d="M101.7119,199.3266 L101.7119,199.1096 C101.7119,193.1066 105.9499,191.2406 111.1799,191.2406 L189.2529,191.2406 C194.4829,191.2406 198.7209,193.1066 198.7209,199.1096 L198.7209,199.3266 L101.7119,199.3266 Z" class="sapIllus_BrandColorSecondary"/>
  <path fill="var(--sapIllus_BackgroundColor)" d="M225.7421 95.1274L174.7201 95.1274C174.1631 95.1274 173.7121 94.6764 173.7121 94.1194L173.7121 88.5494C173.7121 87.9924 174.1631 87.5414 174.7201 87.5414L225.7421 87.5414C226.2991 87.5414 226.7501 87.9924 226.7501 88.5494L226.7501 94.1194C226.7501 94.6764 226.2991 95.1274 225.7421 95.1274M225.7421 107.3588L174.7201 107.3588C174.1631 107.3588 173.7121 106.9078 173.7121 106.3508L173.7121 100.7808C173.7121 100.2238 174.1631 99.7728 174.7201 99.7728L225.7421 99.7728C226.2991 99.7728 226.7501 100.2238 226.7501 100.7808L226.7501 106.3508C226.7501 106.9078 226.2991 107.3588 225.7421 107.3588M225.7421 119.5903L174.7201 119.5903C174.1631 119.5903 173.7121 119.1393 173.7121 118.5823L173.7121 113.0123C173.7121 112.4553 174.1631 112.0043 174.7201 112.0043L225.7421 112.0043C226.2991 112.0043 226.7501 112.4553 226.7501 113.0123L226.7501 118.5823C226.7501 119.1393 226.2991 119.5903 225.7421 119.5903" class="sapIllus_BackgroundColor"/>
  <path fill="var(--sapIllus_AccentColor)" d="M191.206,67.6938 C187.672,63.8158 181.663,63.5378 177.785,67.0718 C173.907,70.6058 173.629,76.6148 177.163,80.4918 C178.86,82.3548 181.228,83.4658 183.745,83.5828 C183.895,83.5898 184.046,83.5918 184.195,83.5918 C189.442,83.5868 193.69,79.3288 193.684006,74.0818 C193.682,71.7178 192.798,69.4398 191.205,67.6938 L191.206,67.6938 Z" class="sapIllus_AccentColor"/>
  <path fill="var(--sapIllus_ObjectFillColor)" d="M184.1845 69.5932C185.5655 69.5932 186.6845 70.7122 186.6845 72.0932 186.6845 73.4742 185.5655 74.5932 184.1845 74.5932 182.8035 74.5932 181.6845 73.4742 181.6845 72.0932 181.6845 70.7122 182.8035 69.5932 184.1845 69.5932M184.5322 74.9311L184.1642 74.9141C181.6942 74.8001 179.5162 76.5181 179.0512 78.9471 178.9802 79.2841 179.0952 79.6331 179.3502 79.8641 182.0432 82.1841 185.9722 82.3671 188.8682 80.3051 189.1442 80.0991 189.2902 79.7611 189.2512 79.4191 189.0122 76.9581 187.0022 75.0461 184.5322 74.9311" class="sapIllus_ObjectFillColor"/>
  <path fill="var(--sapIllus_BrandColorSecondary)" d="M242.4277,146.3979 L242.4277,151.3459 C242.4277,156.6719 238.1077,161.0019 232.7717,161.0019 L67.6597,161.0019 C62.3247,161.0019 58.0047,156.6719 58.0047,151.3459 L58.0047,146.3979 L242.4277,146.3979 Z" class="sapIllus_BrandColorSecondary"/>
  <path fill="var(--sapIllus_ObjectFillColor)" d="M265.0087 199.3266L219.8837 199.3266C218.0317 199.3266 216.5317 197.8266 216.5317 195.9756L216.5317 108.3786C216.5317 106.5276 218.0317 105.0276 219.8837 105.0276L265.0087 105.0276C266.8607 105.0276 268.3607 106.5276 268.3607 108.3786L268.3607 195.9756C268.3607 197.8266 266.8607 199.3266 265.0087 199.3266M116.7997 93.3842C116.5237 93.3842 116.2997 93.6082 116.2997 93.8842 116.2997 96.2432 116.1467 98.6182 115.8447 100.9442 115.8417 100.9652 115.8377 100.9872 115.8347 101.0082L116.8437 101.0082C117.1447 98.6612 117.2997 96.2652 117.2997 93.8842 117.2997 93.6082 117.0757 93.3842 116.7997 93.3842" class="sapIllus_ObjectFillColor"/>
  <path fill="var(--sapIllus_ObjectFillColor)" d="M116.7997 88.9018C114.0517 88.9018 111.8167 91.1368 111.8167 93.8848 111.8167 93.9158 111.8197 93.9458 111.8247 93.9748 111.8237 94.2368 111.8217 94.4988 111.8177 94.7588 111.8127 95.0358 112.0327 95.2628 112.3087 95.2678 112.6057 95.2758 112.8127 95.0518 112.8177 94.7768 112.8217 94.4798 112.8247 94.1818 112.8247 93.8838 112.8247 93.8548 112.8217 93.8268 112.8177 93.7978 112.8627 91.6418 114.6317 89.9018 116.7997 89.9018 118.9957 89.9018 120.7817 91.6878 120.7817 93.8838 120.7817 96.2478 120.6397 98.6248 120.3597 100.9488 120.3567 100.9678 120.3527 100.9878 120.3507 101.0078L121.3567 101.0078C121.6377 98.6638 121.7817 96.2668 121.7817 93.8848 121.7817 91.1368 119.5467 88.9018 116.7997 88.9018M112.2177 97.2202C111.9517 97.1932 111.7027 97.4072 111.6817 97.6822 111.6007 98.7682 111.4817 99.8642 111.3287 100.9382 111.3247 100.9612 111.3197 100.9852 111.3167 101.0082L112.3257 101.0082C112.4777 99.9342 112.5967 98.8412 112.6797 97.7562 112.6997 97.4812 112.4927 97.2412 112.2177 97.2202M123.2929 87.6782C124.8779 89.3352 125.7599 91.5062 125.7819 93.7982 125.7769 93.8262 125.7739 93.8552 125.7739 93.8842 125.7739 96.2482 125.6419 98.6262 125.3789 100.9522L125.3699 101.0082 126.3769 101.0082C126.6359 98.6932 126.7719 96.3272 126.7739 93.9742 126.7789 93.9452 126.7819 93.9152 126.7819 93.8852 126.7819 91.4562 125.9029 89.1512 124.3159 87.3322L122.9279 87.3322C123.0499 87.4482 123.1759 87.5562 123.2929 87.6782M107.2607 101.0082C107.6187 98.6972 107.8057 96.3292 107.8097 93.9682 107.8147 93.9412 107.8167 93.9132 107.8167 93.8852 107.8167 91.5622 108.7007 89.3572 110.3067 87.6772 110.4227 87.5552 110.5477 87.4462 110.6697 87.3322L109.2817 87.3322C107.7127 89.1312 106.8357 91.4042 106.8167 93.7992 106.8127 93.8272 106.8097 93.8562 106.8097 93.8842 106.8097 96.2482 106.6257 98.6182 106.2627 100.9312 106.2577 100.9562 106.2527 100.9822 106.2487 101.0082L107.2607 101.0082zM129.2734 87.559C130.2744 89.53 130.7824 91.659 130.7814 93.884 130.7814 96.243 130.6564 98.621 130.4104 100.955 130.4084 100.973 130.4054 100.991 130.4034 101.008L131.4084 101.008C131.6544 98.659 131.7814 96.263 131.7824 93.885 131.7824 91.583 131.2634 89.382 130.2624 87.332L129.1394 87.332C129.1804 87.41 129.2334 87.481 129.2734 87.559M101.8173 93.8852C101.8173 93.9162 101.8203 93.9472 101.8263 93.9772 101.8213 96.3102 101.6163 98.6462 101.2173 100.9222 101.2123 100.9502 101.2053 100.9792 101.1993 101.0082L102.2143 101.0082C102.6193 98.6722 102.8263 96.2772 102.8263 93.8852 102.8263 93.8542 102.8233 93.8232 102.8173 93.7942 102.8313 91.6002 103.3383 89.5032 104.3263 87.5592 104.3633 87.4862 104.3753 87.4092 104.3753 87.3322L103.3363 87.3322C102.3363 89.3822 101.8173 91.5832 101.8173 93.8852M134.6816 87.4995C135.4106 89.5425 135.7816 91.6905 135.7826 93.8855 135.7826 96.2405 135.6636 98.6205 135.4316 100.9585L135.4256 101.0085 136.4286 101.0085C136.6626 98.6495 136.7826 96.2535 136.781606 93.8855 136.781606 91.6365 136.4046 89.4345 135.6746 87.3325L134.6146 87.3325C134.6346 87.3895 134.6606 87.4425 134.6816 87.4995M97.9228 87.3325C97.1938 89.4365 96.8178 91.6395 96.8178 93.8855 96.8178 94.1615 97.0408 94.3855 97.3178 94.3855 97.5938 94.3855 97.8178 94.1615 97.8178 93.8855 97.8178 91.6945 98.1878 89.5465 98.9168 87.5005 98.9368 87.4435 98.9608 87.3895 98.9828 87.3325L97.9228 87.3325zM97.1191 97.7495C96.8521 97.7175 96.5961 97.9115 96.5631 98.1865 96.4541 99.0955 96.3091 100.0125 96.1321 100.9115 96.1251 100.9435 96.1161 100.9765 96.1091 101.0085L97.1291 101.0085C97.3031 100.1145 97.4481 99.2065 97.5561 98.3055 97.5891 98.0305 97.3931 97.7815 97.1191 97.7495M140.498 87.6967C140.229 87.7607 140.063 88.0307 140.128 88.2997 140.561 90.1167 140.781 91.9957 140.781 93.8837 140.781 96.2447 140.669 98.6257 140.448 100.9617L140.442 101.0087 141.447 101.0087C141.668 98.6567 141.781 96.2607 141.781 93.8847 141.781 91.9187 141.553 89.9607 141.101 88.0667 141.037 87.7987 140.766 87.6287 140.498 87.6967M93.1816 87.394C92.9116 87.323 92.6416 87.489 92.5756 87.756 92.0726 89.75 91.8176 91.812 91.8176 93.885 91.8176 93.913 91.8196 93.94 91.8246 93.966 91.8186 96.305 91.5536 98.636 91.0376 100.897 91.0296 100.934 91.0186 100.97 91.0096 101.008L92.0346 101.008C92.5556 98.682 92.8246 96.288 92.8246 93.885 92.8246 93.858 92.8226 93.831 92.8176 93.804 92.8246 91.841 93.0686 89.889 93.5436 88 93.6126 87.733 93.4496 87.461 93.1816 87.394M145.0634 87.4428C145.5354 89.5258 145.7764 91.6718 145.7814 93.8228 145.7784 93.8428 145.7774 93.8638 145.7774 93.8848 145.7774 95.8738 145.7024 97.8828 145.5524 99.8588 145.5324 100.1338 145.7394 100.3738 146.0144 100.3948 146.0274 100.3958 146.0404 100.3958 146.0524 100.3958 146.3114 100.3958 146.5304 100.1958 146.5504 99.9328 146.6994 97.9538 146.7754 95.9408 146.7774 93.9478 146.7804 93.9268 146.7814 93.9068 146.7814 93.8848 146.7814 91.6768 146.5364 89.4728 146.0594 87.3328L145.0344 87.3328C145.0424 87.3698 145.0544 87.4058 145.0634 87.4428M87.539 87.3325C87.061 89.4725 86.818 91.6755 86.82 93.8855 86.82 96.2565 86.51 98.6085 85.898 100.8775 85.886 100.9215 85.871 100.9645 85.859 101.0085L86.893 101.0085C87.506 98.6915 87.82 96.2965 87.818 93.8855 87.818 91.7095 88.06 89.5415 88.536 87.4425 88.544 87.4055 88.557 87.3705 88.565 87.3325L87.539 87.3325z" class="sapIllus_ObjectFillColor"/>
  <path fill="var(--sapIllus_PatternShadow)" d="M242.3427,146.3998 L242.3427,151.3488 C242.3427,156.6738 238.0227,161.0038 232.6877,161.0038 L67.5757,161.0038 C62.2397,161.0038 242.3427,146.3998 242.3427,146.3998" class="sapIllus_PatternShadow"/>
  <path fill="var(--sapIllus_ObjectFillColor)" d="M150.1679 87.4272C150.5739 89.5372 150.7799 91.7102 150.7799 93.8842 150.7799 96.2452 150.6799 98.6282 150.4809 100.9652 150.4799 100.9802 150.4789 100.9932 150.4769 101.0082L151.4799 101.0082C151.6789 98.6562 151.7799 96.2592 151.7799 93.8852 151.7799 91.6792 151.5719 89.4762 151.1659 87.3322L150.1469 87.3322C150.1529 87.3652 150.1609 87.3952 150.1679 87.4272M82.4326 87.3325C82.0266 89.4785 81.8186 91.6825 81.8186 93.8845 81.8186 95.0745 81.7236 96.2695 81.5366 97.4335 81.4926 97.7055 81.6766 97.9615 81.9506 98.0055 81.9766 98.0105 82.0036 98.0125 82.0306 98.0125 82.2716 98.0125 82.4836 97.8375 82.5226 97.5915 82.7186 96.3755 82.8186 95.1285 82.8186 93.8855 82.8186 91.7135 83.0246 89.5405 83.4316 87.4275 83.4376 87.3955 83.4456 87.3645 83.4526 87.3325L82.4326 87.3325z" class="sapIllus_ObjectFillColor"/>
  <path fill="var(--sapIllus_StrokeDetailColor)" d="M239.5204 165.8852C239.4184 165.8852 239.3164 165.8552 239.2274 165.7902 239.0034 165.6292 238.9534 165.3172 239.1154 165.0922 240.9404 162.5622 241.5644 161.3592 242.6314 158.3172 242.7234 158.0562 243.0084 157.9162 243.2684 158.0102 243.5294 158.1012 243.6664 158.3872 243.5754 158.6472 242.4814 161.7672 241.7994 163.0802 239.9254 165.6782 239.8284 165.8132 239.6744 165.8852 239.5204 165.8852M245.2079 165.8862C245.1249 165.8862 245.0419 165.8652 244.9649 165.8242 244.7239 165.6892 244.6369 165.3842 244.7709 165.1432 245.0979 164.5552 245.3809 163.9152 245.6359 163.1882 245.7279 162.9272 246.0119 162.7892 246.2719 162.8812 246.5329 162.9722 246.6709 163.2572 246.5789 163.5182 246.3049 164.3002 245.9999 164.9902 245.6449 165.6292 245.5539 165.7932 245.3829 165.8862 245.2079 165.8862M235.4687 164.5346C235.3587 164.5346 235.2477 164.4986 235.1567 164.4246 234.9407 164.2516 234.9067 163.9366 235.0787 163.7226 237.9237 160.1756 238.7037 158.8916 239.8427 154.4276 239.9097 154.1596 240.1777 153.9946 240.4497 154.0656 240.7177 154.1346 240.8797 154.4056 240.8117 154.6736 239.6327 159.2996 238.7667 160.7226 235.8587 164.3476 235.7597 164.4706 235.6147 164.5346 235.4687 164.5346M231.7792 161.9926C231.6682 161.9926 231.5562 161.9566 231.4652 161.8816 231.2502 161.7076 231.2172 161.3916 231.3902 161.1786 232.2032 160.1756 232.4812 159.6406 232.9012 158.8336 233.1682 158.3206 233.4692 157.7396 233.9802 156.8976 234.1242 156.6616 234.4312 156.5876 234.6672 156.7286 234.9032 156.8726 234.9782 157.1796 234.8362 157.4156 234.3422 158.2296 234.0482 158.7956 233.7882 159.2956 233.3722 160.0956 233.0442 160.7256 232.1682 161.8066 232.0692 161.9296 231.9252 161.9926 231.7792 161.9926M252.8476 146.0522C252.6506 146.0522 252.4626 145.9352 252.3846 145.7402 250.7466 141.7072 246.8756 139.1022 242.5236 139.1022 238.5136 139.1022 235.5816 141.0032 233.8116 144.7542 233.6936 145.0042 233.3946 145.1092 233.1456 144.9922 232.8966 144.8742 232.7886 144.5762 232.9076 144.3262 234.8576 140.1972 238.0926 138.1022 242.5236 138.1022 247.2856 138.1022 251.5196 140.9522 253.3106 145.3642 253.4146 145.6192 253.2916 145.9112 253.0356 146.0152 252.9746 146.0402 252.9096 146.0522 252.8476 146.0522M253.7499 139.2817C253.6199 139.2817 253.4899 139.2307 253.3929 139.1317 250.5099 136.1787 246.6489 134.5527 242.5229 134.5527 240.3039 134.5527 238.1649 135.0207 236.1679 135.9427 235.9159 136.0577 235.6199 135.9497 235.5039 135.6987 235.3889 135.4477 235.4979 135.1507 235.7479 135.0347 237.8779 134.0517 240.1569 133.5527 242.5229 133.5527 246.9209 133.5527 251.0349 135.2857 254.1069 138.4317 254.3009 138.6307 254.2969 138.9467 254.0999 139.1387 254.0019 139.2347 253.8759 139.2817 253.7499 139.2817M74.3486 199.8295L48.9776 199.8295C48.7016 199.8295 48.4776 199.6055 48.4776 199.3295 48.4776 199.0535 48.7016 198.8295 48.9776 198.8295L74.3486 198.8295C74.6246 198.8295 74.8486 199.0535 74.8486 199.3295 74.8486 199.6055 74.6246 199.8295 74.3486 199.8295" class="sapIllus_StrokeDetailColor"/>
  <path fill="var(--sapIllus_StrokeDetailColor)" d="M219.7802,198.8295 C218.2082,198.8295 216.9282,197.5505 216.9282,195.9775 L216.9282,184.6385 L267.7572,184.6385 L267.7572,195.9775 C267.7572,197.5505 266.4782,198.8295 264.9062,198.8295 L219.7802,198.8295 Z M199.1062,198.8295 C198.9872,193.5415 195.5552,190.7435 189.1492,190.7435 L186.3802,190.7435 C180.7582,184.3775 173.4162,174.4975 173.1522,161.5045 L215.9282,161.5045 L215.9282,195.9775 C215.9282,197.1125 216.4312,198.1245 217.2152,198.8295 L199.1062,198.8295 Z M102.1122,198.8295 C102.2262,194.1275 105.2412,191.7435 111.0762,191.7435 L112.8222,191.7435 L187.2632,191.7435 L189.1492,191.7435 C194.9852,191.7435 198.0002,194.1275 198.1142,198.8295 L102.1122,198.8295 Z M128.1262,161.5205 L172.7062,167.1445 C174.5002,177.2895 180.2592,185.2245 185.0492,190.7435 L115.2452,190.7435 C123.5882,182.1925 127.6952,172.8645 128.1262,161.5205 L128.1262,161.5205 Z M58.4022,151.3485 L58.4022,146.8995 L215.9282,146.8995 L215.9282,160.5045 L173.1292,160.5045 L173.1292,160.5035 L127.1572,160.5035 L127.1572,160.5045 L67.5572,160.5045 C62.5092,160.5045 58.4022,156.3965 58.4022,151.3485 L58.4022,151.3485 Z M58.4022,47.9735 C58.4022,42.9255 62.5092,38.8175 67.5572,38.8175 L232.6692,38.8175 C237.7172,38.8175 241.8242,42.9255 241.8242,47.9735 L241.8242,104.5295 L219.7802,104.5295 C217.6562,104.5295 215.9282,106.2575 215.9282,108.3805 L215.9282,145.8995 L58.4022,145.8995 L58.4022,47.9735 Z M264.9062,105.5295 C266.4782,105.5295 267.7572,106.8085 267.7572,108.3805 L267.7572,113.8005 L216.9282,113.8005 L216.9282,108.3805 C216.9282,106.8085 218.2082,105.5295 219.7802,105.5295 L264.9062,105.5295 Z M216.9282,183.6385 L267.7562,183.6385 L267.7562,114.8005 L216.9282,114.8005 L216.9282,183.6385 Z M275.5202,198.8295 L267.4702,198.8295 C268.2542,198.1245 268.7572,197.1125 268.7572,195.9775 L268.7572,108.3805 C268.7572,106.2575 267.0292,104.5295 264.9062,104.5295 L242.8242,104.5295 L242.8242,47.9735 C242.8242,42.3735 238.2682,37.8175 232.6692,37.8175 L67.5572,37.8175 C61.9582,37.8175 57.4022,42.3735 57.4022,47.9735 L57.4022,145.8995 L57.4022,146.8995 L57.4022,151.3485 C57.4022,156.9485 61.9582,161.5045 67.5572,161.5045 L127.1182,161.5045 C126.6802,173.0315 122.5692,182.0805 113.8322,190.7435 L111.0762,190.7435 C104.6712,190.7435 101.2392,193.5415 101.1202,198.8295 L82.8052,198.8295 C82.5292,198.8295 82.3052,199.0535 82.3052,199.3295 C82.3052,199.6055 82.5292,199.8295 82.8052,199.8295 L101.1082,199.8295 L199.1182,199.8295 L219.7802,199.8295 L264.9062,199.8295 L275.5202,199.8295 C275.7972,199.8295 276.0202,199.6055 276.0202,199.3295 C276.0202,199.0535 275.7972,198.8295 275.5202,198.8295 L275.5202,198.8295 Z" class="sapIllus_StrokeDetailColor"/>
  <polygon fill="var(--sapIllus_ObjectFillColor)" points="216.929 183.638 267.757 183.638 267.757 114.8 216.929 114.8" class="sapIllus_ObjectFillColor"/>
  <path fill="var(--sapIllus_BrandColorSecondary)" d="M263.0263,153.5688 L222.2033,153.5688 C221.6463,153.5688 221.1953,153.1178 221.1953,152.5608 L221.1953,147.2498 C221.1953,146.6928 221.6463,146.2418 222.2033,146.2418 L263.0263,146.2418 C263.5833,146.2418 264.0343,146.6928 264.0343,147.2498 L264.0343,152.5608 C264.0343,153.1178 263.5833,153.5688 263.0263,153.5688" class="sapIllus_BrandColorSecondary"/>
  <path fill="var(--sapIllus_StrokeDetailColor)" d="M243.7841 153.5688C243.7041 154.1188 243.6091 154.6628 243.4961 155.2008 243.4391 155.4708 243.6121 155.7368 243.8821 155.7938 243.9171 155.8008 243.9521 155.8038 243.9861 155.8038 244.2171 155.8038 244.4251 155.6428 244.4741 155.4078 244.5961 154.8268 244.7011 154.2378 244.7861 153.6448 244.7891 153.6208 244.7901 153.5938 244.7941 153.5688L243.7841 153.5688zM237.5546 146.2416C238.6986 144.6186 240.5256 143.6516 242.5236 143.6516 243.7076 143.6516 244.8566 143.9926 245.8446 144.6366 246.0776 144.7866 246.3866 144.7216 246.5366 144.4906 246.6876 144.2596 246.6216 143.9486 246.3916 143.7986 245.2406 143.0486 243.9026 142.6516 242.5236 142.6516 240.0636 142.6516 237.8156 143.8986 236.5086 145.9876 236.4576 146.0696 236.4206 146.1576 236.3736 146.2416L237.5546 146.2416zM235.0331 153.5688C235.0041 153.7098 234.9731 153.8478 234.9401 153.9858 234.8761 154.2548 235.0411 154.5248 235.3091 154.5898 235.3491 154.5978 235.3881 154.6028 235.4271 154.6028 235.6531 154.6028 235.8571 154.4488 235.9131 154.2198 235.9561 154.0408 235.9961 153.8588 236.0341 153.6748 236.0411 153.6398 236.0431 153.6038 236.0501 153.5688L235.0331 153.5688zM248.3681 153.5688C248.0521 156.0488 247.4251 158.4828 246.5041 160.8018 246.4021 161.0588 246.5271 161.3488 246.7841 161.4518 246.8451 161.4748 246.9071 161.4868 246.9691 161.4868 247.1671 161.4868 247.3551 161.3678 247.4331 161.1718 248.3931 158.7558 249.0451 156.2198 249.3701 153.6358 249.3721 153.6138 249.3731 153.5908 249.3761 153.5688L248.3681 153.5688zM248.704 146.2416C248.646 146.1506 248.589 146.0596 248.527 145.9696 248.372 145.7426 248.061 145.6836 247.832 145.8406 247.694 145.9346 247.628 146.0866 247.624 146.2416L248.704 146.2416zM252.9443 153.5688C252.5693 156.8818 251.7073 160.1048 250.3803 163.1528 250.2693 163.4068 250.3843 163.7008 250.6373 163.8108 250.7033 163.8398 250.7703 163.8528 250.8383 163.8528 251.0303 163.8528 251.2143 163.7408 251.2963 163.5528 252.6713 160.3968 253.5623 157.0588 253.9463 153.6298 253.9483 153.6098 253.9493 153.5898 253.9513 153.5688L252.9443 153.5688zM230.3525 153.5688C229.9425 155.0118 229.3105 156.3758 228.4625 157.6178 228.3075 157.8458 228.3665 158.1578 228.5935 158.3128 228.6805 158.3718 228.7785 158.3998 228.8755 158.3998 229.0355 158.3998 229.1925 158.3238 229.2895 158.1818 230.2245 156.8098 230.9205 155.3038 231.3585 153.7058 231.3705 153.6608 231.3785 153.6148 231.3905 153.5688L230.3525 153.5688zM257.3007 146.2416L258.3257 146.2416C258.3187 146.2066 258.3167 146.1696 258.3087 146.1346 257.8367 144.0576 256.9687 142.1206 255.7297 140.3766 255.5707 140.1496 255.2557 140.0986 255.0327 140.2586 254.8077 140.4176 254.7547 140.7296 254.9147 140.9546 256.0537 142.5586 256.8527 144.3376 257.3007 146.2416M258.5214 153.5688L257.5174 153.5688 257.5004 153.7298C257.4704 154.0048 257.6674 154.2528 257.9424 154.2828 257.9614 154.2848 257.9804 154.2858 257.9994 154.2858 258.2504 154.2858 258.4664 154.0958 258.4954 153.8408L258.5174 153.6288C258.5174 153.6278 258.5164 153.6268 258.5164 153.6258 258.5164 153.6248 258.5174 153.6248 258.5174 153.6238 258.5184 153.6058 258.5194 153.5878 258.5214 153.5688M227.746 146.2416C228.64 142.4526 230.925 139.1856 234.2 137.0346 234.431 136.8836 234.495 136.5726 234.344 136.3426 234.191 136.1096 233.881 136.0466 233.651 136.1986 230.125 138.5136 227.67 142.0426 226.739 146.1346 226.73 146.1696 226.728 146.2066 226.721 146.2416L227.746 146.2416zM239.5204 165.8852C239.4184 165.8852 239.3164 165.8552 239.2274 165.7902 239.0034 165.6292 238.9534 165.3172 239.1154 165.0922 240.9404 162.5622 241.5644 161.3592 242.6314 158.3172 242.7234 158.0562 243.0084 157.9162 243.2684 158.0102 243.5294 158.1012 243.6664 158.3872 243.5754 158.6472 242.4814 161.7672 241.7994 163.0802 239.9254 165.6782 239.8284 165.8132 239.6744 165.8852 239.5204 165.8852M245.2079 165.8862C245.1249 165.8862 245.0419 165.8652 244.9649 165.8242 244.7239 165.6892 244.6369 165.3842 244.7709 165.1432 245.0979 164.5552 245.3809 163.9152 245.6359 163.1882 245.7279 162.9272 246.0119 162.7892 246.2719 162.8812 246.5329 162.9722 246.6709 163.2572 246.5789 163.5182 246.3049 164.3002 245.9999 164.9902 245.6449 165.6292 245.5539 165.7932 245.3829 165.8862 245.2079 165.8862" class="sapIllus_StrokeDetailColor"/>
  <path fill="var(--sapIllus_ObjectFillColor)" d="M242.5234,147.2016 C241.1234,147.2016 239.9844,148.3416 239.9844,149.7416 C239.9844,149.7616 239.9854,149.7796 239.9874,149.7986 L239.9844,150.1326 C239.9784,150.4076 240.1974,150.6376 240.4734,150.6426 C240.7394,150.6796 240.9784,150.4306 240.9844,150.1536 L240.9884,149.7406 C240.9884,149.7226 240.9874,149.7046 240.9854,149.6866 C241.0134,148.8626 241.6934,148.2016 242.5234,148.2016 C243.3734,148.2016 244.0634,148.8916 244.0634,149.7406 C244.0634,151.0006 243.9734,152.2656 243.7954,153.5036 C243.7924,153.5276 243.7864,153.5506 243.7834,153.5736 L244.7934,153.5736 C244.9704,152.3126 245.0634,151.0246 245.0634,149.7416 C245.0634,148.3416 243.9234,147.2016 242.5234,147.2016" class="sapIllus_ObjectFillColor"/>
  <path fill="var(--sapIllus_StrokeDetailColor)" d="M235.4687,164.5346 C235.3587,164.5346 235.2477,164.4986 235.1567,164.4246 C234.9407,164.2516 234.9067,163.9366 235.0787,163.7226 C237.9237,160.1756 238.7037,158.8916 239.8427,154.4276 C239.9097,154.1596 240.1777,153.9946 240.4497,154.0656 C240.7177,154.1346 240.8797,154.4056 240.8117,154.6736 C239.6327,159.2996 238.7667,160.7226 235.8587,164.3476 C235.7597,164.4706 235.6147,164.5346 235.4687,164.5346" class="sapIllus_StrokeDetailColor"/>
  <path fill="var(--sapIllus_ObjectFillColor)" d="M247.7031 146.5356C248.2931 147.3946 248.6131 148.1606 248.6131 149.7406 248.6131 150.9966 248.5341 152.2646 248.3781 153.5116 248.3751 153.5326 248.3701 153.5536 248.3681 153.5736L249.3761 153.5736C249.5311 152.3066 249.6131 151.0166 249.6131 149.7416 249.6131 148.0786 249.2821 147.1516 248.7071 146.2466L247.6241 146.2466C247.6231 146.3466 247.6411 146.4476 247.7031 146.5356M237.5507 146.2465L236.3707 146.2465C235.7657 147.3105 235.4347 148.5095 235.4347 149.7415 235.4347 149.7625 235.4357 149.7825 235.4387 149.8035 235.4347 151.0375 235.3057 152.2715 235.0557 153.4715 235.0477 153.5065 235.0397 153.5395 235.0317 153.5735L236.0497 153.5735C236.3047 152.3195 236.4387 151.0305 236.4387 149.7415 236.4387 149.7215 236.4377 149.7015 236.4347 149.6825 236.4457 148.5595 236.7637 147.4665 237.3567 146.5175 237.4157 146.4225 237.4877 146.3375 237.5507 146.2465" class="sapIllus_ObjectFillColor"/>
  <path fill="var(--sapIllus_StrokeDetailColor)" d="M231.7792,161.9926 C231.6682,161.9926 231.5562,161.9566 231.4652,161.8816 C231.2502,161.7076 231.2172,161.3916 231.3902,161.1786 C232.2032,160.1756 232.4812,159.6406 232.9012,158.8336 C233.1682,158.3206 233.4692,157.7396 233.9802,156.8976 C234.1242,156.6616 234.4312,156.5876 234.6672,156.7286 C234.9032,156.8726 234.9782,157.1796 234.8362,157.4156 C234.3422,158.2296 234.0482,158.7956 233.7882,159.2956 C233.3722,160.0956 233.0442,160.7256 232.1682,161.8066 C232.0692,161.9296 231.9252,161.9926 231.7792,161.9926" class="sapIllus_StrokeDetailColor"/>
  <path fill="var(--sapIllus_ObjectFillColor)" d="M252.9521,153.518 C252.9501,153.538 252.9451,153.555 252.9431,153.574 L253.9501,153.574 C254.0891,152.313 254.1621,151.024 254.1631,149.742 C254.1901,149.115 253.1841,149.109 253.1621,149.741 C253.1621,151.002 253.0921,152.273 252.9521,153.518" class="sapIllus_ObjectFillColor"/>
  <path fill="var(--sapIllus_StrokeDetailColor)" d="M252.8476,146.0522 C252.6506,146.0522 252.4626,145.9352 252.3846,145.7402 C250.7466,141.7072 246.8756,139.1022 242.5236,139.1022 C238.5136,139.1022 235.5816,141.0032 233.8116,144.7542 C233.6936,145.0042 233.3946,145.1092 233.1456,144.9922 C232.8966,144.8742 232.7886,144.5762 232.9076,144.3262 C234.8576,140.1972 238.0926,138.1022 242.5236,138.1022 C247.2856,138.1022 251.5196,140.9522 253.3106,145.3642 C253.4146,145.6192 253.2916,145.9112 253.0356,146.0152 C252.9746,146.0402 252.9096,146.0522 252.8476,146.0522" class="sapIllus_StrokeDetailColor"/>
  <path fill="var(--sapIllus_ObjectFillColor)" d="M231.8447 146.5239C231.5727 146.4509 231.3047 146.6199 231.2387 146.8859 231.0037 147.8149 230.8847 148.7759 230.8847 149.7419 230.8847 149.7589 230.8857 149.7779 230.8877 149.7949 230.8827 151.0339 230.7167 152.2599 230.3937 153.4419 230.3807 153.4869 230.3647 153.5299 230.3517 153.5739L231.3897 153.5739C231.7177 152.3309 231.8877 151.0439 231.8877 149.7419 231.8877 149.7239 231.8867 149.7069 231.8847 149.6889 231.8887 148.8229 231.9977 147.9619 232.2067 147.1299 232.2757 146.8629 232.1127 146.5909 231.8447 146.5239M257.3339 146.3569C257.5849 147.4589 257.7119 148.5969 257.7119 149.7409 257.7119 151.0049 257.6479 152.2759 257.5229 153.5179L257.5229 153.5189 257.5179 153.5739 258.5209 153.5739C258.6459 152.3139 258.7119 151.0239 258.7119 149.7419 258.7119 148.5609 258.5779 147.3869 258.3269 146.2469L257.3029 146.2469C257.3119 146.2839 257.3249 146.3199 257.3339 146.3569" class="sapIllus_ObjectFillColor"/>
  <path fill="var(--sapIllus_StrokeDetailColor)" d="M253.7499,139.2817 C253.6199,139.2817 253.4899,139.2307 253.3929,139.1317 C250.5099,136.1787 246.6489,134.5527 242.5229,134.5527 C240.3039,134.5527 238.1649,135.0207 236.1679,135.9427 C235.9159,136.0577 235.6199,135.9497 235.5039,135.6987 C235.3889,135.4477 235.4979,135.1507 235.7479,135.0347 C237.8779,134.0517 240.1569,133.5527 242.5229,133.5527 C246.9209,133.5527 251.0349,135.2857 254.1069,138.4317 C254.3009,138.6307 254.2969,138.9467 254.0999,139.1387 C254.0019,139.2347 253.8759,139.2817 253.7499,139.2817" class="sapIllus_StrokeDetailColor"/>
  <path fill="var(--sapIllus_ObjectFillColor)" d="M226.7197,146.2465 C226.4687,147.3875 226.3357,148.5605 226.3357,149.7405 C226.3357,150.2675 226.2937,150.7975 226.2107,151.3115 C226.1657,151.5855 226.3517,151.8415 226.6237,151.8855 C226.6517,151.8905 226.6777,151.8925 226.7047,151.8925 C226.9457,151.8925 227.1577,151.7175 227.1977,151.4725 C227.2887,150.9035 227.3357,150.3215 227.3357,149.7415 C227.3357,148.5985 227.4627,147.4585 227.7137,146.3565 C227.7217,146.3195 227.7357,146.2835 227.7437,146.2465 L226.7197,146.2465 Z" class="sapIllus_ObjectFillColor"/>
  <path fill="var(--sapIllus_StrokeDetailColor)" d="M246.5596 111L238.7136 111C238.4376 111 238.2136 110.776 238.2136 110.5 238.2136 110.224 238.4376 110 238.7136 110L246.5596 110C246.8356 110 247.0596 110.224 247.0596 110.5 247.0596 110.776 246.8356 111 246.5596 111M242.8047 188.0859C240.7067 188.0859 238.9997 189.7929 238.9997 191.8909 238.9997 193.9879 240.7067 195.6949 242.8047 195.6949 244.9027 195.6949 246.6097 193.9879 246.6097 191.8909 246.6097 189.7929 244.9027 188.0859 242.8047 188.0859M242.8047 196.6949C240.1557 196.6949 237.9997 194.5399 237.9997 191.8909 237.9997 189.2409 240.1557 187.0859 242.8047 187.0859 245.4537 187.0859 247.6097 189.2409 247.6097 191.8909 247.6097 194.5399 245.4537 196.6949 242.8047 196.6949" class="sapIllus_StrokeDetailColor"/>
</svg>