<svg width="320" height="240" viewBox="0 0 320 240" id="tnt-Scene-ExternalLink">
  <path fill="var(--sapIllus_BackgroundColor)" d="M68.4605,67.2751 C36.6835,93.1601 27.4365,144.4371 51.9185,178.7351 C65.0305,197.1031 85.8335,208.5591 107.3745,214.4211 C129.1275,220.3411 155.6925,224.0041 178.1765,221.4151 C215.6015,217.1051 246.0035,190.9041 253.9835,152.9011 C264.1575,104.4491 232.3875,58.2231 187.6035,43.6501 C147.9595,30.7491 101.9115,40.2681 69.4455,66.4711 C69.1175,66.7401 68.7895,67.0071 68.4605,67.2751" class="sapIllus_BackgroundColor"/>
  <path fill="var(--sapIllus_PatternShadow)" d="M248.1724,56.3044 L246.6414,56.2514 C246.6554,56.3714 240.6004,56.4924 240.5954,56.6174 L239.5654,84.0584 L235.9564,79.7844 C235.8024,79.6064 235.6224,79.4664 235.4334,79.3464 L235.0774,88.8374 L231.2444,190.9414 C231.1254,194.1114 228.4094,196.5814 225.1784,196.4604 L73.0974,190.5484 L73.0044,193.0524 C72.8864,196.2204 75.4054,198.8864 78.6324,199.0074 L231.4734,204.9494 C234.7034,205.0714 237.4194,202.5994 237.5384,199.4294 L241.6534,86.5724 C242.3984,86.8294 243.2024,87.0044 243.8324,87.0684 L245.1914,88.4214 C246.6104,90.0624 249.3254,89.1404 249.4064,86.9914 L250.469089,58.7304 C250.5164,57.4344 249.4934,56.3554 248.1724,56.3044" class="sapIllus_PatternShadow"/>
  <path fill="var(--sapIllus_ObjectFillColor)" d="M70.4693,82.4479 L66.7103,184.5639 C66.5913,187.7309 69.1113,190.3979 72.3383,190.5189 L225.1783,196.4609 C228.4093,196.5819 231.1253,194.1109 231.2443,190.9409 L235.0773,88.8379 L70.4693,82.4479 Z" class="sapIllus_ObjectFillColor"/>
  <path fill="var(--sapIllus_Layering2)" d="M235.0767,88.8376 L70.4547,82.4466 L71.2037,62.4986 C71.3277,59.1906 74.0917,56.6086 77.3777,56.7326 L230.4957,62.6906 C233.5627,62.8056 235.9567,65.4016 235.8407,68.4916 L235.0767,88.8376 Z" class="sapIllus_Layering2"/>
  <path fill="var(--sapIllus_BrandColorSecondary)" d="M244.4146,54.194 L215.7626,53.119 C213.6646,53.04 212.5296,55.525 213.9586,57.047 L219.9336,63.506 C220.8036,64.443 220.7656,65.911 219.8436,66.798 L206.2966,79.809 C206.2266,79.875 206.1386,79.94 206.0666,80.022 L204.5266,81.467 C204.3136,81.681 204.1166,81.913 203.9036,82.144 C200.5336,85.928 198.4186,90.871 198.2126,96.345 C197.8286,106.579 204.2746,115.479 213.4626,118.694 C211.4776,115.596 210.3886,111.866 210.5366,107.91 C210.7286,102.776 212.9676,98.198 216.4546,94.947 C216.5436,94.847 216.6496,94.749 216.7556,94.668 L228.8996,83.056 L232.5306,79.605 C233.5216,78.686 235.0726,78.761 235.9566,79.786 L241.4676,86.311 C242.8576,87.952 245.5226,87.027 245.6026,84.879 L246.6636,56.618 C246.7126,55.322 245.7116,54.243 244.4146,54.194" class="sapIllus_BrandColorSecondary"/>
  <path fill="var(--sapIllus_StrokeDetailColor)" d="M215.6646,53.6169 C214.7946,53.6169 214.2306,54.1679 213.9906,54.6949 C213.7456,55.2339 213.7036,56.0449 214.3226,56.7049 L220.3006,63.1659 C221.3506,64.2979 221.3016,66.0889 220.1896,67.1589 L206.6436,80.1699 C206.6366,80.1769 206.5556,80.2479 206.5486,80.2539 C206.5146,80.2829 206.4766,80.3129 206.4436,80.3499 L204.8686,81.8319 C204.7446,81.9569 204.6156,82.1009 204.4836,82.2479 L204.2716,82.4829 C200.8826,86.2889 198.9056,91.2209 198.7126,96.3639 C198.3616,105.7139 203.7726,114.1209 212.3056,117.7129 C210.6876,114.7139 209.9076,111.3459 210.0366,107.8909 C210.2276,102.7829 212.3866,98.0549 216.1136,94.5809 C216.1906,94.4919 216.3206,94.3709 216.4506,94.2709 L232.1856,79.2429 C232.7746,78.6969 233.5476,78.4089 234.3216,78.4689 C235.1066,78.5119 235.8216,78.8639 236.3356,79.4599 L241.8496,85.9889 C242.4536,86.7009 243.2846,86.7449 243.8616,86.5439 C244.4386,86.3449 245.0686,85.7969 245.1026,84.8599 L246.1636,56.5989 C246.1826,56.1059 246.0096,55.6369 245.6776,55.2779 C245.3446,54.9199 244.8896,54.7129 244.3956,54.6939 L215.7436,53.6189 C215.7176,53.6179 215.6906,53.6169 215.6646,53.6169 M213.4626,119.1939 C213.4066,119.1939 213.3516,119.1849 213.2976,119.1659 C203.5906,115.7689 197.3276,106.5919 197.7126,96.3269 C197.9156,90.9519 199.9806,85.7969 203.5306,81.8109 L203.7396,81.5799 C203.8836,81.4209 204.0236,81.2629 204.1726,81.1149 L205.7256,79.6579 C205.7536,79.6209 205.8266,79.5549 205.8966,79.4949 L219.4966,66.4379 C220.2176,65.7439 220.2496,64.5809 219.5666,63.8459 L213.5916,57.3869 C212.7926,56.5359 212.5966,55.3449 213.0806,54.2809 C213.5666,53.2119 214.6176,52.5859 215.7806,52.6189 L244.4336,53.6939 C245.1936,53.7229 245.8956,54.0439 246.4106,54.5979 C246.9246,55.1519 247.1916,55.8769 247.1636,56.6369 L246.1026,84.8969 C246.0586,86.1029 245.3236,87.0959 244.1876,87.4889 C243.0556,87.8789 241.8636,87.5539 241.0856,86.6349 L235.5746,80.1079 C235.2436,79.7239 234.7776,79.4949 234.2666,79.4669 C233.7516,79.4319 233.2546,79.6169 232.8706,79.9709 L217.1016,95.0289 C216.9786,95.1269 216.8956,95.2029 216.8276,95.2799 C213.2636,98.6059 211.2176,103.0869 211.0366,107.9289 C210.8956,111.6689 211.8806,115.2979 213.8836,118.4249 C213.9986,118.6039 213.9866,118.8369 213.8546,119.0039 C213.7586,119.1269 213.6126,119.1939 213.4626,119.1939" class="sapIllus_StrokeDetailColor"/>
  <path fill="var(--sapIllus_StrokeDetailColor)" d="M235.698135,85.6657 C235.7078,85.3907 235.4928,85.1577 235.2168,85.1467 C234.9238,85.1597 234.7088,85.3537 234.6978,85.6287 L234.5938,88.3887 L228.5148,88.1597 C228.2238,88.1677 228.0078,88.3657 227.9968,88.6417 C227.9868,88.9167 228.2018,89.1487 228.4778,89.1597 L234.5558,89.3877 L230.7448,190.9267 C230.6928,192.3227 230.0888,193.6157 229.0438,194.5667 C227.9948,195.5197 226.6218,196.0097 225.2018,195.9607 L72.2728,190.0157 C70.8428,189.9617 69.5188,189.3657 68.5458,188.3367 C67.5748,187.3107 67.0688,185.9767 67.1218,184.5787 L70.9358,82.9597 C71.0108,83.0097 71.0938,83.0477 71.1898,83.0517 L194.0268,87.8667 L194.0468,87.8667 C194.3138,87.8667 194.5358,87.6557 194.5468,87.3867 C194.5568,87.1107 194.3428,86.8777 194.0658,86.8667 L71.2288,82.0517 C71.1258,82.0547 71.0418,82.0827 70.9678,82.1207 L71.7128,62.2627 C71.8208,59.3767 74.2898,57.0957 77.2568,57.2287 L209.8818,62.4117 L209.9008,62.4117 C210.1688,62.4117 210.3898,62.2007 210.4008,61.9317 C210.4118,61.6547 210.1968,61.4227 209.9208,61.4117 L77.2948,56.2287 C73.7628,56.1057 70.8428,58.7877 70.7128,62.2257 L66.1218,184.5417 C66.0588,186.2087 66.6618,187.8007 67.8188,189.0237 C68.9728,190.2447 70.5428,190.9517 72.2348,191.0157 L225.1638,196.9607 C225.2468,196.9647 225.3308,196.9647 225.4138,196.9647 C227.0148,196.9647 228.5348,196.3817 229.7168,195.3067 C230.9618,194.1737 231.6808,192.6317 231.7448,190.9637 L235.5748,88.9297 L235.5748,88.9287 L235.698135,85.6657 Z" class="sapIllus_StrokeDetailColor"/>
  <path fill="var(--sapIllus_StrokeDetailColor)" d="M210.9292,181.4635 C210.8552,181.4635 210.7802,181.4625 210.7052,181.4595 L87.7082,176.7025 C86.1962,176.6455 84.8132,176.0035 83.8162,174.8935 C82.8052,173.7685 82.2832,172.2525 82.3432,170.6255 L85.0752,97.8295 C85.0802,97.6965 85.1392,97.5705 85.2372,97.4815 C85.3342,97.3905 85.4642,97.3555 85.5972,97.3485 L193.0282,101.9325 C193.3032,101.9445 193.5182,102.1775 193.5062,102.4535 C193.4932,102.7295 193.2742,102.9125 192.9852,102.9325 L86.0562,98.3685 L83.3432,170.6625 C83.2912,172.0285 83.7232,173.2945 84.5602,174.2255 C85.3742,175.1315 86.5062,175.6565 87.7462,175.7025 L210.7432,180.4595 C213.3812,180.5835 215.6092,178.5365 215.7052,175.9525 L218.4162,103.7275 C218.4272,103.4515 218.6542,103.2525 218.9352,103.2455 C219.2112,103.2565 219.4262,103.4885 219.416535,103.7645 L216.7052,175.9895 C216.5902,179.0515 214.0212,181.4635 210.9292,181.4635" class="sapIllus_StrokeDetailColor"/>
  <path fill="var(--sapIllus_ObjectFillColor)" d="M92.437 70.5524C92.36 72.6194 90.588 74.2314 88.481 74.1524 86.374 74.0734 84.727 72.3324 84.805 70.2654 84.882 68.1984 86.654 66.5864 88.761 66.6654 90.87 66.7444 92.515 68.4854 92.437 70.5524M104.1743 70.9928C104.0963 73.0598 102.3243 74.6718 100.2173 74.5928 98.1103 74.5138 96.4633 72.7728 96.5413 70.7058 96.6183 68.6388 98.3903 67.0268 100.4983 67.1058 102.6063 67.1848 104.2513 68.9258 104.1743 70.9928M115.9107 71.4333C115.8327 73.5003 114.0607 75.1123 111.9537 75.0333 109.8467 74.9543 108.2007 73.2133 108.2777 71.1463 108.3547 69.0793 110.1267 67.4673 112.2347 67.5463 114.3427 67.6253 115.9877 69.3663 115.9107 71.4333" class="sapIllus_ObjectFillColor"/>
  <path fill="var(--sapIllus_BrandColorSecondary)" d="M199.814 205.6296L186.504 212.1686C185.851 212.4886 185.791 213.3976 186.395 213.8026L198.712 222.0596C199.317 222.4646 200.133 222.0646 200.182 221.3376L201.174 206.5416C201.223 205.8156 200.467 205.3096 199.814 205.6296M87.44 42.2858C86.48 44.2748 84.088 45.1088 82.1 44.1488 80.111 43.1878 79.277 40.7978 80.237 38.8088 81.198 36.8198 83.588 35.9858 85.577 36.9458 87.566 37.9058 88.4 40.2968 87.44 42.2858" class="sapIllus_BrandColorSecondary"/>
  <path fill="var(--sapIllus_Layering1)" d="M244.9771 19.0202C244.7001 18.9652 244.4221 19.0222 244.1911 19.1782 243.9571 19.3332 243.7991 19.5712 243.7451 19.8452L241.1391 32.9872C241.1241 33.0512 241.1171 33.1192 241.1151 33.1872 241.1071 33.6942 241.4621 34.1332 241.9621 34.2322 242.0241 34.2452 242.0851 34.2502 242.1461 34.2513351 242.6431 34.2592 243.0921 33.9112 243.1931 33.4072L245.8011 20.2602C245.8581 19.9882 245.8041 19.7092 245.6501 19.4742 245.4931 19.2372 245.2541 19.0762 244.9771 19.0202M269.8706 29.2721C269.4416 28.8821 268.7766 28.9161 268.3886 29.3441L259.3846 39.2851C259.1826 39.5101 259.0876 39.8101 259.1226 40.1101 259.1516 40.3621 259.2716 40.5941 259.4596 40.7651 259.6926 40.9761 259.9956 41.0631 260.2866 41.0291 260.5296 41.0011 260.7646 40.8871 260.9416 40.6921L269.9456 30.7511C270.3316 30.3211 270.2966 29.6571 269.8706 29.2721M282.0376 51.7546C281.9586 51.4846 281.7786 51.2626 281.5326 51.1286 281.2866 50.9946 281.0036 50.9636 280.7356 51.0436L267.8686 54.8186C267.4256 54.9476 267.1226 55.3466 267.11455 55.8096 267.1136 55.9126 267.1276 56.0176 267.1566 56.1216 267.2906 56.5726 267.7026 56.8676 268.1476 56.8746 268.2516 56.8766 268.3556 56.8616 268.4596 56.8316L281.3266 53.0566C281.8866 52.8916 282.1986 52.3206 282.0376 51.7546" class="sapIllus_Layering1"/>
  <path fill="var(--sapIllus_AccentColor)" d="M255.9732,182.7018 C255.0132,184.6908 252.6222,185.5248 250.6332,184.5638 C248.6452,183.6038 247.8112,181.2138 248.7712,179.2238 C249.7312,177.2348 252.1212,176.4008 254.1112,177.3618 C256.1002,178.3218 256.9342,180.7128 255.9732,182.7018" class="sapIllus_AccentColor"/>
</svg>