<svg width="128" height="128" viewBox="0 0 128 128" id="tnt-Spot-NoFlows">
  <path fill="var(--sapIllus_ObjectFillColor)" d="M93.9993,107.0001 L30.0003,107.0001 C28.3433,107.0001 27.0003,105.6561 27.0003,103.9991 L27.0003,40.0011 C27.0003,38.3441 28.3433,37.0001 30.0003,37.0001 L93.9993,37.0001 C95.6563,37.0001 97.0003,38.3441 97.0003,40.0011 L97.0003,103.9991 C97.0003,105.6561 95.6563,107.0001 93.9993,107.0001" class="sapIllus_ObjectFillColor"/>
  <path fill="var(--sapIllus_BrandColorSecondary)" d="M97.0002,50.0001 L27.0002,50.0001 L27.0002,39.9951 C27.0002,38.3411 28.3412,37.0001 29.9952,37.0001 L94.0042,37.0001 C95.6592,37.0001 97.0002,38.3411 97.0002,39.9951 L97.0002,50.0001 Z" class="sapIllus_BrandColorSecondary"/>
  <path fill="var(--sapIllus_StrokeDetailColor)" d="M94.0002,106.0001 L30.0002,106.0001 C28.8952,106.0001 28.0002,105.1041 28.0002,104.0001 L28.0002,50.0001 L29.8212,50.0001 L96.0002,52.9041 L96.0002,104.0001 C96.0002,105.1041 95.1042,106.0001 94.0002,106.0001 M96.0002,40.0001 L96.0002,49.0001 L28.0002,49.0001 L28.0002,40.0001 C28.0002,38.8961 28.8952,38.0001 30.0002,38.0001 L94.0002,38.0001 C95.1042,38.0001 96.0002,38.8961 96.0002,40.0001 M94.0002,37.0001 L93.5262,37.0001 L29.5902,37.0001 L29.5442,37.0001 C27.8172,37.0001 27.0002,38.6911 27.0002,39.8971 L27.0002,50.0001 L27.0002,104.0001 C27.0002,105.6571 28.3432,107.0001 30.0002,107.0001 L94.0002,107.0001 C95.6572,107.0001 97.0002,105.6571 97.0002,104.0001 L97.0002,52.9941 L97.0002,49.9501 L97.0002,40.0001 C97.0002,38.3431 95.6572,37.0001 94.0002,37.0001" class="sapIllus_StrokeDetailColor"/>
  <path fill="var(--sapIllus_PatternShadow)" d="M98.0002,42.0001 L97.9562,42.0001 L97.0002,42.0001 L97.0002,49.9501 L97.0002,52.9941 L97.0002,104.0001 C97.0002,105.6571 95.6572,107.0001 94.0002,107.0001 L31.0442,107.0001 L31.0452,108.9991 C31.0452,110.6561 32.3882,112.0001 34.0442,112.0001 L98.0002,112.0001 C99.6572,112.0001 101.0002,110.6571 101.0002,109.0001 L101.0002,45.0001 C101.0002,43.3431 99.6572,42.0001 98.0002,42.0001" class="sapIllus_PatternShadow"/>
  <path fill="var(--sapIllus_Layering1)" d="M108.9495 33.256C108.9405 33.256 108.9315 33.256 108.9235 33.255L98.4295 32.986C98.0115 32.976 97.6445 32.706 97.5095 32.31 97.3735 31.914 97.4995 31.476 97.8245 31.211L106.6765 24 99.0005 24C98.4485 24 98.0005 23.552 98.0005 23 98.0005 22.447 98.4485 22 99.0005 22L109.4875 22C109.9095 22 110.2875 22.266 110.4295 22.665 110.5715 23.064 110.4465 23.508 110.1185 23.776L101.1805 31.056 108.9745 31.256C109.5265 31.271 109.9625 31.73 109.9485 32.281 109.9345 32.824 109.4905 33.256 108.9495 33.256M118.886 14.5079L118.86 14.5079 112.615 14.3479C112.197 14.3369 111.829 14.0679 111.694 13.6709 111.559 13.2759 111.684 12.8369 112.009 12.5719L116.395 8.9999 113 8.9999C112.448 8.9999 112 8.5519 112 7.9999 112 7.4469 112.448 6.9999 113 6.9999L119.206 6.9999C119.629 6.9999 120.006 7.2659 120.148 7.6649 120.29 8.0639 120.165 8.5079 119.837 8.7759L115.366 12.4169 118.911 12.5089C119.463 12.5229 119.899 12.9819 119.885 13.5339 119.871 14.0769 119.427 14.5079 118.886 14.5079" class="sapIllus_Layering1"/>
  <path fill="var(--sapIllus_BackgroundColor)" d="M66.8928,68.9611 L58.2178,68.9611 L58.2178,64.4111 C58.2178,63.8871 57.7918,63.4611 57.2678,63.4611 L39.1678,63.4611 C38.6428,63.4611 38.2178,63.8871 38.2178,64.4111 L38.2178,74.5111 C38.2178,75.0361 38.6428,75.4611 39.1678,75.4611 L47.7178,75.4611 L47.7178,82.9231 L39.1678,82.9231 C38.6428,82.9231 38.2178,83.3481 38.2178,83.8721 L38.2178,93.9731 C38.2178,94.4971 38.6428,94.9231 39.1678,94.9231 L57.2678,94.9231 C57.7918,94.9231 58.2178,94.4971 58.2178,93.9731 L58.2178,83.8721 C58.2178,83.3481 57.7918,82.9231 57.2678,82.9231 L48.7178,82.9231 L48.7178,75.4611 L57.2678,75.4611 C57.7918,75.4611 58.2178,75.0361 58.2178,74.5111 L58.2178,69.9611 L66.8928,69.9611 L66.8928,68.9611 Z" class="sapIllus_BackgroundColor"/>
  <path fill="var(--sapIllus_AccentColor)" d="M75.7351,61.1202 C75.1451,61.1202 74.5561,61.3452 74.1071,61.7932 L68.0671,67.8332 C67.6321,68.2672 67.3931,68.8472 67.3931,69.4612 C67.3931,70.0762 67.6321,70.6542 68.0671,71.0892 L74.1071,77.1292 C74.9771,77.9982 76.4931,77.9982 77.3631,77.1292 L83.4031,71.0892 C83.8381,70.6542 84.0771,70.0762 84.0771,69.4612 C84.0771,68.8472 83.8381,68.2672 83.4031,67.8332 L77.3631,61.7932 C76.9141,61.3452 76.3241,61.1202 75.7351,61.1202 M75.7351,78.8042 C74.8531,78.8042 74.0241,78.4602 73.4001,77.8362 L67.3601,71.7962 C66.7361,71.1732 66.3931,70.3442 66.3931,69.4612 C66.3931,68.5792 66.7361,67.7502 67.3601,67.1262 L73.4001,61.0862 C74.6871,59.7992 76.7831,59.7992 78.0701,61.0862 L84.1101,67.1262 C84.7341,67.7502 85.0771,68.5792 85.0771,69.4612 C85.0771,70.3442 84.7341,71.1732 84.1101,71.7962 L78.0701,77.8362 C77.4461,78.4602 76.6171,78.8042 75.7351,78.8042" class="sapIllus_AccentColor"/>
</svg>
