<svg width="160" height="160" viewBox="0 0 160 160" id="tnt-Dialog-Lock">
  <path fill="var(--sapIllus_BackgroundColor)" d="M157.71,46.9997 C157.71,33.1917 146.517,21.9997 132.71,21.9997 L60.2,21.9997 C46.393,21.9997 35.2,33.1917 35.2,46.9997 C35.2,59.1357 43.847,69.2467 55.315,71.5197 L33,71.5197 C16.432,71.5197 3,84.9507 3,101.5197 C3,118.0877 16.432,131.5197 33,131.5197 L112.51,131.5197 C129.078,131.5197 142.51,118.0877 142.51,101.5197 C142.51,86.7687 131.86,74.5137 117.833,71.9997 L132.71,71.9997 C146.517,71.9997 157.71,60.8077 157.71,46.9997" class="sapIllus_BackgroundColor"/>
  <path fill="var(--sapIllus_AccentColor)" d="M134.2988 36.5026C131.5958 35.4376 130.2838 32.8506 129.2698 30.2126 129.2078 30.0496 129.0538 29.9406 128.8788 29.9376L128.8738 29.9376C128.7008 29.9386 128.5468 30.0426 128.4828 30.2026 127.1288 33.4816 125.1168 35.1576 122.7888 37.0986L122.7348 37.1436C122.6078 37.2506 122.5508 37.4206 122.5888 37.5826 122.6268 37.7446 122.7528 37.8706 122.9148 37.9066 124.9698 38.3526 128.1498 42.3646 128.1498 44.5126 128.1478 44.7266 128.3028 44.9096 128.5148 44.9436 128.5338 44.9456 128.5548 44.9476 128.5748 44.9476 128.7658 44.9456 128.9328 44.8186 128.9838 44.6356 129.6648 42.2586 131.6438 38.3496 134.2978 37.3166 134.5228 37.2256 134.6308 36.9696 134.5398 36.7446 134.4948 36.6346 134.4088 36.5476 134.2988 36.5026M117.3125 52.738C115.8775 52.152 115.1745 50.708 114.6265 49.234 114.5715 49.073 114.4215 48.963 114.2505 48.958L114.2465 48.958C114.0775 48.961 113.9275 49.066 113.8685 49.224 113.1985 50.771 112.1275 52.112 110.7675 53.108L110.7375 53.134C110.6135 53.244 110.5595 53.413 110.5975 53.574 110.6305 53.733 110.7525 53.859 110.9115 53.898 111.9685 54.135 113.6705 56.362 113.6705 57.507 113.6665 57.717 113.8155 57.9 114.0225 57.937 114.0415 57.94 114.0615 57.942 114.0815 57.942 114.2675 57.938 114.4285 57.81 114.4745 57.63 114.8415 56.301 115.9015 54.12 117.3115 53.55 117.5365 53.451 117.6365 53.188 117.5375 52.964 117.4925 52.863 117.4135 52.783 117.3125 52.738" class="sapIllus_AccentColor"/>
  <path fill="var(--sapIllus_ObjectFillColor)" d="M62.0376,66.7624 L62.0376,50.0164 L62.0236,50.0164 C62.0646,41.6924 68.8546,34.9164 77.2046,34.9164 C85.5426,34.9164 92.3326,41.6924 92.3726,50.0164 L92.3726,65.8374 C88.0146,64.0734 83.2546,63.0934 78.2626,63.0934 C72.4526,63.0934 66.9516,64.4114 62.0376,66.7624 M100.6016,70.4404 L100.6016,50.0164 L100.5866,50.0164 C100.5456,37.1604 90.0736,26.7024 77.2046,26.7024 C64.3366,26.7024 53.8506,37.1604 53.8096,50.0164 L53.8096,72.1294 C45.7406,79.0334 40.6196,89.2834 40.6196,100.7374 C40.6196,121.5274 57.4726,138.3804 78.2626,138.3804 C99.0526,138.3804 115.9076,121.5274 115.9076,100.7374 C115.9076,88.3114 109.8836,77.2954 100.6016,70.4404" class="sapIllus_ObjectFillColor"/>
  <path fill="var(--sapIllus_StrokeDetailColor)" d="M78.2627,137.8815 C57.7827,137.8815 41.1227,121.2225 41.1227,100.7325 C41.1227,89.8525 45.8327,80.0415 53.3127,73.2415 C53.6427,72.9425 53.9727,72.6525 54.3127,72.3715 C56.5127,70.5125 58.9327,68.9025 61.5327,67.5815 C61.8627,67.4115 62.1927,67.2525 62.5327,67.0925 C67.3127,64.8525 72.6427,63.5925 78.2627,63.5925 C83.0627,63.5925 87.6627,64.5125 91.8727,66.1725 C92.2127,66.3125 92.5427,66.4515 92.8727,66.5925 C95.4427,67.6925 97.8727,69.0815 100.1027,70.7115 C100.4427,70.9615 100.7727,71.2115 101.1027,71.4725 C109.8027,78.2725 115.4027,88.8615 115.4027,100.7325 C115.4027,121.2225 98.7427,137.8815 78.2627,137.8815 L78.2627,137.8815 Z M91.8727,65.1025 C87.6427,63.4825 83.0627,62.5925 78.2627,62.5925 C72.6527,62.5925 67.3227,63.8125 62.5327,65.9825 L62.5327,49.6925 C62.7427,41.7915 69.2527,35.4115 77.2027,35.4115 C85.2527,35.4115 91.8327,41.9725 91.8727,50.0125 L91.8727,65.1025 Z M54.3127,50.0225 C54.3527,37.4425 64.6227,27.2015 77.2027,27.2015 C89.7827,27.2015 100.0427,37.4425 100.0827,50.0225 L100.1027,69.4825 C97.8627,67.9025 95.4427,66.5715 92.8727,65.5025 L92.8727,50.0125 C92.8327,41.4115 85.8027,34.4115 77.2027,34.4115 C68.6027,34.4115 61.5627,41.4115 61.5227,50.0125 L61.5327,66.4725 C58.9527,67.7225 56.5327,69.2725 54.3127,71.0625 L54.3127,50.0225 Z M101.1027,70.2015 L101.1027,50.0125 L101.0827,49.5125 C100.7727,36.6115 90.1627,26.2015 77.2027,26.2015 C64.0727,26.2015 53.3527,36.8815 53.3127,50.0125 L53.3127,71.9025 C45.2427,78.9025 40.1227,89.2325 40.1227,100.7325 C40.1227,121.7725 57.2327,138.8815 78.2627,138.8815 C99.2927,138.8815 116.4027,121.7725 116.4027,100.7325 C116.4027,88.2625 110.3827,77.1615 101.1027,70.2015 L101.1027,70.2015 Z" class="sapIllus_StrokeDetailColor"/>
  <path fill="var(--sapIllus_BrandColorSecondary)" d="M75.4541,71.4665 C91.6201,69.9145 105.9821,81.7625 107.5341,97.9285 C109.0851,114.0945 97.2371,128.4565 81.0721,130.0075 C64.9061,131.5595 50.5431,119.7115 48.9921,103.5465 C47.4411,87.3805 59.2881,73.0175 75.4541,71.4665 Z" class="sapIllus_BrandColorSecondary"/>
  <path fill="var(--sapIllus_PatternShadow)" d="M115.6416,98.1012 C115.3446,94.4262 114.5016,90.8162 113.1416,87.3892 C110.5136,80.9632 106.1926,75.3712 100.6376,71.2052 C103.7636,76.8522 105.7866,83.0422 106.5946,89.4462 C107.5706,95.2992 107.2486,101.2952 105.6546,107.0112 C104.2706,111.8602 101.7956,116.3292 98.4206,120.0762 C97.5276,120.9892 96.5796,121.8492 95.5856,122.6522 C94.0426,123.8382 92.3996,124.8862 90.6726,125.7852 C83.7906,129.2842 73.6986,129.3262 73.6986,129.3262 C65.0486,129.2602 56.5286,127.2132 48.7916,123.3442 C52.5166,128.3472 57.4416,132.3312 63.1126,134.9292 C67.2816,136.8432 71.7686,137.9652 76.3486,138.2382 C78.0066,138.3282 79.6686,138.3192 81.3266,138.2112 C82.2756,138.1442 83.0906,138.0422 83.4486,137.9972 C83.9746,137.9432 84.4976,137.8602 85.0156,137.7492 C85.6206,137.6102 85.8566,137.4982 86.8276,137.1802 C87.6466,136.9132 88.0796,136.7942 88.5286,136.6572 C90.8956,135.8912 93.2156,134.9902 95.4796,133.9572 C96.7656,133.4262 98.0086,132.7972 99.1996,132.0782 C100.0576,131.5292 100.8806,130.9292 101.6656,130.2812 C103.2876,128.9642 104.8106,127.5332 106.2246,125.9972 C109.2446,122.4932 111.6656,118.5152 113.3926,114.2252 C115.3206,109.0812 116.0886,103.5762 115.6416,98.1012" class="sapIllus_PatternShadow"/>
  <path fill="var(--sapIllus_StrokeDetailColor)" d="M78.1641 85.8571C77.8881 85.8571 77.6641 85.6331 77.6641 85.3571L77.6641 80.0471C77.6641 79.7711 77.8881 79.5471 78.1641 79.5471 78.4401 79.5471 78.6641 79.7711 78.6641 80.0471L78.6641 85.3571C78.6641 85.6331 78.4401 85.8571 78.1641 85.8571M78.1641 121.5251C77.8881 121.5251 77.6641 121.3011 77.6641 121.0251L77.6641 115.7151C77.6641 115.4391 77.8881 115.2151 78.1641 115.2151 78.4401 115.2151 78.6641 115.4391 78.6641 115.7151L78.6641 121.0251C78.6641 121.3011 78.4401 121.5251 78.1641 121.5251M62.9849 101.2301L57.6749 101.2301C57.3989 101.2301 57.1749 101.0061 57.1749 100.7301 57.1749 100.4541 57.3989 100.2301 57.6749 100.2301L62.9849 100.2301C63.2609 100.2301 63.4849 100.4541 63.4849 100.7301 63.4849 101.0061 63.2609 101.2301 62.9849 101.2301M98.6533 101.2301L93.3433 101.2301C93.0673 101.2301 92.8433 101.0061 92.8433 100.7301 92.8433 100.4541 93.0673 100.2301 93.3433 100.2301L98.6533 100.2301C98.9293 100.2301 99.1533 100.4541 99.1533 100.7301 99.1533 101.0061 98.9293 101.2301 98.6533 101.2301M64.1401 95.2272C64.0761 95.2272 64.0111 95.2152 63.9491 95.1892L59.0431 93.1582C58.7881 93.0522 58.6671 92.7592 58.7731 92.5042 58.8781 92.2492 59.1731 92.1272 59.4261 92.2342L64.3311 94.2652C64.5861 94.3712 64.7071 94.6642 64.6021 94.9182 64.5221 95.1112 64.3361 95.2272 64.1401 95.2272M97.0938 108.8776C97.0298 108.8776 96.9648 108.8656 96.9028 108.8396L91.9968 106.8076C91.7418 106.7016 91.6208 106.4086 91.7268 106.1536 91.8328 105.8986 92.1268 105.7766 92.3798 105.8836L97.2848 107.9156C97.5398 108.0216 97.6608 108.3146 97.5558 108.5686 97.4758 108.7616 97.2898 108.8776 97.0938 108.8776M70.5029 120.0397C70.4389 120.0397 70.3739 120.0277 70.3119 120.0017 70.0569 119.8957 69.9359 119.6027 70.0409 119.3487L72.0729 114.4427C72.1789 114.1867 72.4729 114.0647 72.7259 114.1727 72.9809 114.2777 73.1019 114.5707 72.9969 114.8257L70.9649 119.7307C70.8849 119.9237 70.6989 120.0397 70.5029 120.0397M84.1523 87.0866C84.0883 87.0866 84.0233 87.0746 83.9613 87.0486 83.7063 86.9426 83.5853 86.6496 83.6903 86.3956L85.7223 81.4896C85.8293 81.2346 86.1223 81.1136 86.3763 81.2196 86.6313 81.3246 86.7523 81.6176 86.6463 81.8726L84.6143 86.7776C84.5343 86.9706 84.3483 87.0866 84.1523 87.0866M67.4307 90.3024C67.3027 90.3024 67.1747 90.2534 67.0767 90.1564L63.3227 86.4024C63.1277 86.2064 63.1277 85.8904 63.3227 85.6954 63.5177 85.4994 63.8347 85.4994 64.0297 85.6954L67.7847 89.4484C67.9797 89.6444 67.9797 89.9604 67.7847 90.1564 67.6867 90.2534 67.5587 90.3024 67.4307 90.3024M92.6523 115.5241C92.5243 115.5241 92.3963 115.4751 92.2983 115.3781L88.5443 111.6241C88.3483 111.4281 88.3483 111.1121 88.5443 110.9171 88.7393 110.7211 89.0553 110.7211 89.2513 110.9171L93.0063 114.6701C93.2013 114.8661 93.2013 115.1821 93.0063 115.3781 92.9083 115.4751 92.7803 115.5241 92.6523 115.5241M63.8135 115.6618C63.6855 115.6618 63.5575 115.6128 63.4595 115.5158 63.2645 115.3198 63.2645 115.0038 63.4595 114.8078L67.2145 111.0538C67.4095 110.8578 67.7265 110.8578 67.9215 111.0538 68.1165 111.2488 68.1165 111.5648 67.9215 111.7608L64.1675 115.5158C64.0695 115.6128 63.9415 115.6618 63.8135 115.6618M72.355 87.0124C72.159 87.0124 71.973 86.8964 71.893 86.7034L69.861 81.7984C69.756 81.5434 69.877 81.2504 70.132 81.1454 70.385 81.0394 70.68 81.1604 70.785 81.4154L72.817 86.3214C72.922 86.5754 72.801 86.8684 72.546 86.9744 72.484 87.0004 72.419 87.0124 72.355 87.0124M86.0049 119.9655C85.8089 119.9655 85.6229 119.8495 85.5429 119.6565L83.5109 114.7515C83.4049 114.4965 83.5259 114.2035 83.7809 114.0985 84.0379 113.9905 84.3289 114.1145 84.4349 114.3685L86.4669 119.2745C86.5719 119.5285 86.4509 119.8215 86.1959 119.9275 86.1339 119.9535 86.0679 119.9655 86.0049 119.9655M59.3091 109.0563C59.1131 109.0563 58.9271 108.9403 58.8471 108.7473 58.7421 108.4933 58.8631 108.2003 59.1181 108.0943L64.0231 106.0633C64.2781 105.9563 64.5711 106.0783 64.6761 106.3333 64.7821 106.5883 64.6611 106.8813 64.4061 106.9873L59.5001 109.0183C59.4381 109.0443 59.3731 109.0563 59.3091 109.0563" class="sapIllus_StrokeDetailColor"/>
  <path fill="var(--sapIllus_StrokeDetailColor)" d="M97.6299,92.6833 C97.5249,92.4283 97.2339,92.3063 96.9769,92.4123 L92.0709,94.4453 C92.0549,94.4523 92.0439,94.4653 92.0279,94.4733 L94.7889,85.7683 L83.3799,90.2043 C82.0319,89.6883 80.5749,89.3933 79.0459,89.3933 C72.3479,89.3933 66.9189,94.8223 66.9189,101.5193 C66.9189,108.2163 72.3479,113.6453 79.0459,113.6453 C85.7419,113.6453 91.1709,108.2163 91.1709,101.5193 C91.1709,100.4583 91.0219,99.4363 90.7659,98.4553 L91.8219,95.1243 C91.9089,95.2973 92.0779,95.4073 92.2629,95.4073 C92.3259,95.4073 92.3919,95.3953 92.4539,95.3693 L97.3589,93.3363 C97.6139,93.2313 97.7349,92.9383 97.6299,92.6833" class="sapIllus_StrokeDetailColor"/>
  <polygon fill="var(--sapIllus_AccentColor)" points="81.026 89.063 89.938 97.974 94.011 84.99" class="sapIllus_AccentColor"/>
  <path fill="var(--sapIllus_ObjectFillColor)" d="M90.3887,100.737 C90.3887,107.434 84.9597,112.863 78.2637,112.863 C71.5657,112.863 66.1367,107.434 66.1367,100.737 C66.1367,94.04 71.5657,88.611 78.2637,88.611 C84.9597,88.611 90.3887,94.04 90.3887,100.737" class="sapIllus_ObjectFillColor"/>
</svg>
