<svg width="320" height="240" viewBox="0 0 320 240" id="tnt-Scene-Success">
  <path fill="var(--sapIllus_BackgroundColor)" d="M235.470472,138.04625 C235.573472,129.48925 242.834472,123.43625 252.605472,123.23225 C282.933472,122.59825 307.430472,97.90625 304.397472,68.13025 C301.758472,42.21525 278.055472,23.00425 251.012472,23.00225 C207.079472,23 135.201472,23 91.268472,23.00225 C64.226472,23.00325 40.523472,42.21525 37.883472,68.12925 C34.850472,97.90625 59.340472,123.23225 89.675472,123.23225 L89.835472,123.23225 C95.990472,123.23225 101.009472,128.07925 100.991472,134.00525 L100.990472,134.12625 L100.991472,134.24625 C101.009472,140.17225 95.990472,145.02125 89.835472,145.02125 L45.402472,145.02025 C31.523472,145.02025 18.796472,153.85025 15.753472,166.88825 C11.469472,185.24025 26.047472,201.67225 44.417472,201.67225 L73.981472,201.67225 L206.231472,201.67225 L224.417472,201.67225 C238.725472,201.67225 251.712472,192.27025 254.344472,178.72825 C256.816472,166.01225 248.756472,156.45025 239.870472,148.71525 C237.332472,146.50625 235.415472,142.54125 235.470472,138.04625" class="sapIllus_BackgroundColor"/>
  <path fill="var(--sapIllus_BrandColorSecondary)" d="M158.346472,64.54335 L188.627472,80.07435 C188.752472,80.13935 188.746472,80.31935 188.617472,80.37535 L158.335472,93.40235 C158.226472,93.44935 158.104472,93.36935 158.104472,93.25035 L158.104472,64.69135 C158.104472,64.56635 158.236472,64.48635 158.346472,64.54335" class="sapIllus_BrandColorSecondary"/>
  <path fill="var(--sapIllus_StrokeDetailColor)" d="M157.284872,117.98475 L157.284872,117.98475 C156.497872,117.98475 155.853872,117.33975 155.853872,116.55275 L155.853872,63.26375 C155.853872,62.47675 156.497872,61.83375 157.284872,61.83375 C158.071872,61.83375 158.715872,62.47675 158.715872,63.26375 L158.715872,116.55275 C158.715872,117.33975 158.071872,117.98475 157.284872,117.98475" class="sapIllus_StrokeDetailColor"/>
  <path fill="var(--sapIllus_Layering1)" d="M214.748772,163.05305 C214.748772,193.38505 190.158772,217.97505 159.825772,217.97505 C129.492772,217.97505 104.902772,193.38505 104.902772,163.05305 C104.902772,132.72005 129.492772,108.13005 159.825772,108.13005 C190.158772,108.13005 214.748772,132.72005 214.748772,163.05305" class="sapIllus_Layering1"/>
  <path fill="var(--sapIllus_Layering2)" d="M189.909872 157.45835C189.909872 162.62935 185.718872 166.82035 180.548872 166.82035 175.377872 166.82035 171.185872 162.62935 171.185872 157.45835 171.185872 152.28835 175.377872 148.09735 180.548872 148.09735 185.718872 148.09735 189.909872 152.28835 189.909872 157.45835M206.651072 147.28065C206.651072 150.18465 204.297072 152.53865 201.393072 152.53865 198.489072 152.53865 196.135072 150.18465 196.135072 147.28065 196.135072 144.37765 198.489072 142.02365 201.393072 142.02365 204.297072 142.02365 206.651072 144.37765 206.651072 147.28065M162.162872 137.67125C162.162872 140.79225 159.632872 143.32225 156.511872 143.32225 153.391872 143.32225 150.860872 140.79225 150.860872 137.67125 150.860872 134.55125 153.391872 132.02125 156.511872 132.02125 159.632872 132.02125 162.162872 134.55125 162.162872 137.67125M192.533972 191.04035C192.533972 193.52235 190.521972 195.53535 188.039972 195.53535 185.556972 195.53535 183.544972 193.52235 183.544972 191.04035 183.544972 188.55835 185.556972 186.54635 188.039972 186.54635 190.521972 186.54635 192.533972 188.55835 192.533972 191.04035M139.116972 145.56875C139.116972 151.76475 134.093972 156.78875 127.896972 156.78875 121.700972 156.78875 116.677972 151.76475 116.677972 145.56875 116.677972 139.37175 121.700972 134.34775 127.896972 134.34775 134.093972 134.34775 139.116972 139.37175 139.116972 145.56875" class="sapIllus_Layering2"/>
  <path fill="var(--sapIllus_BrandColorSecondary)" d="M277.058372,127.55795 C280.312372,127.55795 283.389372,126.93895 286.289372,125.70195 C289.190372,124.46295 291.718372,122.76595 293.875372,120.60795 C296.034372,118.45095 297.731372,115.92195 298.969372,113.02195 C300.206372,110.12095 300.826372,107.04395 300.826372,103.78995 C300.826372,100.53695 300.206372,97.45995 298.969372,94.55995 C297.731372,91.65995 296.034372,89.12995 293.875372,86.97295 C291.718372,84.81595 289.190372,83.11895 286.289372,81.87995 C283.389372,80.64195 280.312372,80.02395 277.058372,80.02395 C273.734372,80.02395 270.639372,80.64195 267.774372,81.87995 C264.910372,83.11895 262.398372,84.81595 260.241372,86.97295 C258.083372,89.12995 256.385372,91.65995 255.148372,94.55995 C253.910372,97.45995 253.291372,100.53695 253.291372,103.78995 C253.291372,107.04395 253.910372,110.12095 255.148372,113.02195 C256.385372,115.92195 258.083372,118.45095 260.241372,120.60795 C262.398372,122.76595 264.910372,124.46295 267.774372,125.70195 C270.639372,126.93895 273.734372,127.55795 277.058372,127.55795" class="sapIllus_BrandColorSecondary"/>
  <path fill="var(--sapIllus_Layering2)" d="M277.501672 106.23175L279.531672 107.94175 279.531672 111.78875 274.510672 116.70475 274.296672 117.34475 273.976672 118.84075 273.548672 120.44375 273.440672 121.72675C273.440672 121.79675 273.459672 121.86875 273.494672 121.93975 273.530672 122.01075 273.548672 122.08275 273.548672 122.15375L273.120672 122.58175C272.835672 122.58175 272.657672 122.61675 272.586672 122.68775L271.624672 120.55075 270.449672 117.87875C270.235672 117.09575 270.075672 116.16975 269.968672 115.10075 269.861672 114.03275 269.701672 112.85775 269.487672 111.57575L266.495672 108.90375 269.167672 105.59075 267.991672 104.09475C266.210672 104.09475 264.679672 103.45375 263.396672 102.17075L262.648672 101.63675 261.900672 100.78275 263.076672 102.91875 262.328672 103.24075 260.725672 100.03475 261.046672 97.25575 260.404672 95.11975 258.480672 93.94375 258.054672 92.76775C258.054672 92.34075 258.356672 91.75275 258.962672 91.00475 259.567672 90.25675 260.279672 89.52675 261.099672 88.81475 261.918672 88.10175 262.720672 87.49675 263.503672 86.99875 264.287672 86.49975 264.893672 86.25075 265.319672 86.25075 265.961672 86.25075 266.655672 86.48175 267.403672 86.94475 268.151672 87.40775 268.811672 87.63875 269.380672 87.63875 269.310672 87.71075 269.273672 87.81775 269.273672 87.95975 269.273672 88.24475 269.380672 88.42275 269.594672 88.49475L267.885672 92.34075 270.021672 92.76775 271.731672 91.05875 274.724672 91.27175 275.364672 92.87575 273.654672 94.69175 273.654672 95.86775 274.616672 95.97375 275.150672 95.11975 277.074672 93.83675 277.074672 94.69175 277.929672 96.08075 276.967672 97.04275 277.608672 97.57675 276.219672 97.68375 276.754672 98.75275 273.976672 100.14075 274.402672 101.95875 273.548672 101.95875 273.120672 100.14075 270.876672 100.14075 270.556672 100.78275 269.594672 100.35475 268.205672 101.85075 269.380672 103.13275 269.273672 104.62875 270.556672 105.48375 277.501672 106.23175zM278.997772 87.53255C279.781772 86.74855 280.601772 86.07155 281.455772 85.50255 282.310772 84.93155 283.236772 84.36255 284.233772 83.79255 285.230772 84.71855 286.050772 85.32355 286.691772 85.60855 286.335772 85.75155 285.978772 85.94755 285.622772 86.19655 285.267772 86.44555 284.875772 86.89055 284.447772 87.53255L283.379772 89.24155 282.523772 90.63155 281.561772 91.27155C281.135772 91.27155 280.796772 90.95155 280.547772 90.31055 280.298772 89.66955 280.173772 89.38455 280.173772 89.45555 279.674772 89.45555 279.282772 89.56255 278.997772 89.77655 278.784772 89.56255 278.428772 89.45555 277.929772 89.45555 277.786772 89.45555 277.680772 89.47355 277.608772 89.50955 277.537772 89.54455 277.431772 89.56255 277.288772 89.56255 277.786772 88.84955 278.356772 88.17355 278.997772 87.53255M296.415772 99.50035C297.269772 99.85635 297.769772 100.62235 297.911772 101.79735 298.054772 102.97335 298.125772 103.95235 298.125772 104.73635 298.125772 107.37235 297.591772 109.81235 296.521772 112.05635 295.453772 114.30035 294.421772 116.45435 293.423772 118.52135 293.209772 118.52135 293.102772 118.27135 293.102772 117.77235 293.102772 117.13135 293.209772 116.20535 293.423772 114.99435 293.637772 113.78335 293.743772 112.57235 293.743772 111.36135L293.743772 110.50635 293.530772 109.54435 292.034772 107.08735 287.974772 106.12535 286.905772 103.88135 287.652772 100.35435C288.223772 100.21235 288.846772 100.08835 289.522772 99.98035 290.199772 99.87435 291.072772 99.57135 292.141772 99.07235 292.283772 99.21535 292.461772 99.28635 292.675772 99.28635 292.889772 99.28635 293.120772 99.26935 293.370772 99.23235 293.619772 99.19735 293.886772 99.18035 294.171772 99.18035 294.527772 99.18035 294.901772 99.21535 295.293772 99.28635 295.685772 99.35735 296.059772 99.42935 296.415772 99.50035" class="sapIllus_Layering2"/>
  <polygon fill="var(--sapIllus_Layering2)" points="290.218 89.455 289.042 89.669 289.47 87.959 290.752 87.959 290.966 88.814" class="sapIllus_Layering2"/>
  <path fill="var(--sapIllus_Layering2)" d="M295.239972,93.51595 C295.382972,93.87195 295.524972,94.21095 295.667972,94.53195 C295.809972,94.85195 295.952972,95.22595 296.094972,95.65395 L295.133972,96.50795 L293.530972,96.18795 L292.996972,97.89795 L290.966972,97.04195 L292.140972,95.22595 L294.705972,95.22595 L294.705972,93.94395 L295.239972,93.51595 Z" class="sapIllus_Layering2"/>
  <polygon fill="var(--sapIllus_Layering2)" points="292.141 92.875 291.821 92.02 292.248 91.271 292.783 92.127" class="sapIllus_Layering2"/>
  <path fill="var(--sapIllus_Layering2)" d="M62.866972,143.90175 C62.866972,151.03575 57.084972,156.81775 49.951972,156.81775 C42.818972,156.81775 37.035972,151.03575 37.035972,143.90175 C37.035972,136.76875 42.818972,130.98675 49.951972,130.98675 C57.084972,130.98675 62.866972,136.76875 62.866972,143.90175" class="sapIllus_Layering2"/>
  <path fill="var(--sapIllus_Layering1)" d="M60.366972 138.51595C60.366972 139.67595 59.427972 140.61595 58.267972 140.61595 57.107972 140.61595 56.168972 139.67595 56.168972 138.51595 56.168972 137.35695 57.107972 136.41595 58.267972 136.41595 59.427972 136.41595 60.366972 137.35695 60.366972 138.51595M61.138472 145.91345C61.138472 146.70645 60.495472 147.34945 59.702472 147.34945 58.909472 147.34945 58.268472 146.70645 58.268472 145.91345 58.268472 145.12145 58.909472 144.47845 59.702472 144.47845 60.495472 144.47845 61.138472 145.12145 61.138472 145.91345M56.237072 151.72495C56.237072 152.32895 55.748072 152.81795 55.144072 152.81795 54.541072 152.81795 54.051072 152.32895 54.051072 151.72495 54.051072 151.12095 54.541072 150.63195 55.144072 150.63195 55.748072 150.63195 56.237072 151.12095 56.237072 151.72495M49.385472 140.61555C49.385472 141.40855 48.742472 142.05155 47.950472 142.05155 47.157472 142.05155 46.515472 141.40855 46.515472 140.61555 46.515472 139.82355 47.157472 139.18055 47.950472 139.18055 48.742472 139.18055 49.385472 139.82355 49.385472 140.61555" class="sapIllus_Layering1"/>
  <path fill="var(--sapIllus_Layering1)" d="M45.143272,151.40175 C40.011272,148.70575 35.491272,145.57675 32.414272,142.59075 C28.959272,139.23875 27.804272,136.61075 28.881272,134.55875 C30.562272,131.36075 36.897272,132.58475 41.613272,134.03875 L40.070272,135.58575 C32.592272,133.27975 30.427272,134.60475 30.112272,135.20575 C30.103272,135.22175 29.317272,136.85975 33.571272,140.98875 C36.580272,143.90975 41.020272,146.97975 46.072272,149.63375 C51.123272,152.28775 56.171272,154.20175 60.284272,155.02275 C66.098272,156.18275 67.000272,154.60575 67.009272,154.58975 C67.328272,153.98375 68.560272,152.42975 62.346272,147.54675 L62.777272,145.43475 C66.692272,148.51175 69.929272,152.01975 68.239272,155.23675 C67.161272,157.28875 64.342272,157.82775 59.621272,156.88475 C55.417272,156.04575 50.276272,154.09775 45.143272,151.40175" class="sapIllus_Layering1"/>
  <path fill="var(--sapIllus_AccentColor)" d="M97.254672 84.29915C92.241672 82.44315 89.788672 77.87515 87.884672 73.21515 87.795672 73.00015 87.584672 72.85915 87.352672 72.85915 87.125672 72.88015 86.925672 73.01215 86.816672 73.21115 84.339672 79.14215 81.092672 81.70615 76.420672 84.94115 76.161672 85.11815 76.097672 85.47115 76.275672 85.72915 76.348672 85.83615 76.456672 85.91415 76.581672 85.95115 80.512672 87.15015 86.412672 94.52715 86.445672 98.28715 86.449672 98.57115 86.662672 98.81115 86.944672 98.84715 86.972672 98.85015 86.999672 98.85215 87.027672 98.85215 87.281672 98.85015 87.505672 98.68215 87.576672 98.43815 88.534672 95.11115 91.627672 88.16815 96.476672 85.71415 96.733672 85.58315 96.994672 85.46715 97.262672 85.36315 97.555672 85.25315 97.702672 84.92515 97.592672 84.63215 97.533672 84.47715 97.410672 84.35615 97.254672 84.29915M253.341013 36.6545199C249.483821 35.2264431 247.59639 31.7116506 246.13138 28.1260699 246.0629 27.9606407 245.900549 27.85215 245.722039 27.85215 245.547377 27.8683082 245.393489 27.969874 245.30962 28.1229921 243.403723 32.6865285 240.905358 34.6593673 237.310544 37.148499 237.111259 37.2846895 237.062015 37.5563011 237.198975 37.7548161 237.255144 37.837146 237.338243 37.8971621 237.434423 37.9256313 240.459084 38.8481874 244.998767 44.524331 245.024159 47.4174176 245.027237 47.6359379 245.191127 47.820603 245.408108 47.8483028 245.429653 47.8506111 245.450428 47.85215 245.471972 47.85215 245.667409 47.8506111 245.839763 47.7213456 245.894393 47.5336027 246.631515 44.9736827 249.011386 39.6314752 252.742391 37.7432745 252.940136 37.6424782 253.14096 37.5532234 253.347169 37.4732018 253.572614 37.3885636 253.685722 37.136188 253.601083 36.9107427 253.555687 36.7914798 253.461046 36.6983778 253.341013 36.6545199" class="sapIllus_AccentColor"/>
  <path fill="var(--sapIllus_BrandColorPrimary)" d="M226.801472 54.24835L223.979472 52.01935C223.579472 51.70335 223.511472 51.12435 223.826472 50.72535L226.056472 47.90235C226.371472 47.50435 226.950472 47.43635 227.350472 47.75135L230.172472 49.98035C230.572472 50.29635 230.640472 50.87535 230.324472 51.27435L228.095472 54.09735C227.780472 54.49635 227.200472 54.56335 226.801472 54.24835M82.884572 177.58235L80.062572 175.35335C79.662572 175.03735 79.595572 174.45835 79.910572 174.05935L82.140572 171.23635C82.455572 170.83735 83.034572 170.76935 83.434572 171.08435L86.256572 173.31335C86.655572 173.62935 86.723572 174.20835 86.407572 174.60735L84.178572 177.43035C83.863572 177.82935 83.283572 177.89735 82.884572 177.58235M128.322072 62.34215L127.056072 59.72715C126.835072 59.26915 127.026072 58.71815 127.484072 58.49615L130.098072 57.23115C130.556072 57.00915 131.108072 57.20015 131.330072 57.65815L132.595072 60.27315C132.817072 60.73115 132.626072 61.28115 132.168072 61.50315L129.553072 62.77015C129.095072 62.99115 128.544072 62.80015 128.322072 62.34215z" class="sapIllus_BrandColorPrimary"/>
  <path fill="var(--sapIllus_Layering1)" d="M43.493872 59.60195C42.840872 59.61795 42.297872 59.09995 42.281872 58.44595L42.227872 51.16295C42.246872 50.49795 42.800872 49.97295 43.465872 49.99195 44.097872 50.00895 44.608872 50.51295 44.635872 51.14495L44.688872 58.42695C44.682872 59.08095 44.148872 59.60695 43.494872 59.60195L43.493872 59.60195zM43.300572 33.16635C42.646572 33.18235 42.104572 32.66435 42.088572 32.01035L42.088572 32.00935 42.034572 24.71535C42.048572 24.05035 42.599572 23.52235 43.263572 23.53735 43.902572 23.55035 44.418572 24.06035 44.441572 24.69735L44.494572 31.99135C44.489572 32.64535 43.954572 33.17235 43.300572 33.16635M33.795672 42.83825L26.509672 42.89225C25.845672 42.89725 25.303672 42.36225 25.2986372 41.69825 25.293672 41.03425 25.827672 40.49225 26.491672 40.48725L33.777672 40.43425C34.441672 40.42925 34.983672 40.96325 34.9887068 41.62725 34.993672 42.29125 34.459672 42.83325 33.795672 42.83825M60.241972 42.64685L52.964972 42.70085C52.301972 42.68385 51.776972 42.13385 51.793972 41.47085 51.808972 40.83685 52.313972 40.32585 52.946972 40.29985L60.223972 40.24785C60.887972 40.26285 61.410972 40.81385 61.394972 41.47685 61.379972 42.10985 60.874972 42.62285 60.241972 42.64685M265.547572 188.01595C265.111572 188.02395 264.753572 187.67595 264.745572 187.24095L264.745572 182.39095C264.761572 181.94895 265.132572 181.60195 265.575572 181.61795 265.996572 181.63095 266.334572 181.96995 266.349572 182.39095L266.349572 187.24095C266.342572 187.67595 265.984572 188.02395 265.548572 188.01595L265.547572 188.01595zM265.547572 170.41245C265.111572 170.42045 264.753572 170.07245 264.746572 169.63745L264.746572 169.63645 264.746572 164.77845C264.758572 164.33645 265.127572 163.98745 265.569572 164.00045 265.994572 164.01245 266.336572 164.35345 266.349572 164.77845L266.349572 169.63645C266.342572 170.07145 265.984572 170.41945 265.548572 170.41245L265.547572 170.41245zM259.171572 176.80695L254.318572 176.80695C253.876572 176.80695 253.519572 176.44895 253.519572 176.00595 253.519572 175.56395 253.876572 175.20495 254.318572 175.20495L259.171572 175.20495C259.612572 175.20495 259.971572 175.56395 259.971572 176.00595 259.971572 176.44895 259.612572 176.80695 259.171572 176.80695M276.782972 176.80895L271.935972 176.80895C271.494972 176.79395 271.148972 176.42495 271.162972 175.98395 271.176972 175.56295 271.513972 175.22395 271.935972 175.20995L276.782972 175.20995C277.223972 175.22395 277.569972 175.59295 277.555972 176.03495 277.542972 176.45595 277.203972 176.79495 276.782972 176.80895" class="sapIllus_Layering1"/>
</svg>