<svg width="45" height="45" version="1.1" id="tnt-Dot-Dialog" xmlns="http://www.w3.org/2000/svg" xmlns:xlink="http://www.w3.org/1999/xlink" x="0px" y="0px"
	 viewBox="0 0 45 45" enable-background="new 0 0 45 45" xml:space="preserve">
<g>
	<path fill-rule="evenodd" clip-rule="evenodd" style="fill:var(--sapContent_Illustrative_Color2)" d="M31.3,25.8c-7.1,0-12.9-5.8-12.9-12.9S24.2,0,31.3,0
		s12.9,5.8,12.9,12.9c0,2.3-0.6,4.4-1.7,6.3l2.1,4.8c0.3,0.7-0.3,1.4-1,1.3l-5.5-1.4C36.1,25.1,33.8,25.8,31.3,25.8z"/>
	<circle style="fill:var(--sapContent_Illustrative_Color8)" cx="26.1" cy="12.9" r="1.7"/>
	<circle style="fill:var(--sapContent_Illustrative_Color8)" cx="31.6" cy="12.9" r="1.7"/>
	<circle style="fill:var(--sapContent_Illustrative_Color8)" cx="37.1" cy="12.9" r="1.7"/>
	<path fill-rule="evenodd" clip-rule="evenodd" style="fill:var(--sapContent_Illustrative_Color8)" d="M16.9,44.2c8.3,0,15.1-6.8,15.1-15.1S25.2,14,16.9,14
		C8.5,14,1.8,20.8,1.8,29.1c0,2.7,0.7,5.2,1.9,7.4l-2.6,6.1C0.8,43.3,1.4,44,2,43.8L9,42C11.3,43.4,14,44.2,16.9,44.2z"/>
	<path fill-rule="evenodd" clip-rule="evenodd" style="fill:var(--sapContent_Illustrative_Color4)" d="M32.7,29.1c0,8.7-7.1,15.8-15.8,15.8c-2.9,0-5.7-0.8-8-2.2
		l-6.7,1.7c-1.3,0.3-2.2-1-1.8-2.1l2.5-5.8C1.7,34.3,1,31.7,1,29.1c0-8.7,7.1-15.8,15.8-15.8C25.6,13.3,32.7,20.4,32.7,29.1z
		 M3.7,36.5c-1.2-2.2-1.9-4.7-1.9-7.4C1.8,20.8,8.5,14,16.9,14C25.2,14,32,20.8,32,29.1s-6.8,15.1-15.1,15.1c-2.9,0-5.6-0.8-7.9-2.2
		l-7,1.8c-0.6,0.2-1.2-0.5-0.9-1.1L3.7,36.5z"/>
	<circle style="fill:var(--sapContent_Illustrative_Color3)" cx="9.5" cy="29.1" r="2.1"/>
	<circle style="fill:var(--sapContent_Illustrative_Color3)" cx="16.5" cy="29.1" r="2.1"/>
	<circle style="fill:var(--sapContent_Illustrative_Color3)" cx="23.5" cy="29.1" r="2.1"/>
</g>
</svg>
