<svg width="320" height="240" viewBox="0 0 320 240" id="tnt-Scene-SessionExpired">
  <path fill="var(--sapIllus_BackgroundColor)" d="M270.6023,107.7142 C262.4083,100.8952 252.9523,95.0432 242.1043,92.1012 C234.4333,89.8752 229.3913,89.0242 226.1793,88.8962 C225.5743,88.8912 224.9713,88.8962 224.3673,88.8962 C223.9853,88.8972 223.6153,88.8792 223.2543,88.8482 C233.5583,81.1692 239.6513,68.8992 239.6433,55.8442 C239.6433,33.2862 221.7963,15.0002 199.7833,15.0002 L79.5073,15.0002 C57.4943,15.0002 39.6473,33.2862 39.6473,55.8442 C39.6473,78.4022 57.4943,96.6882 79.5073,96.6882 L82.3123,96.6882 C53.7933,106.4082 31.4983,127.9562 31.6019376,158.3232 C31.6723,179.0762 42.6123,199.2052 60.8923,211.6152 C80.8723,225.1782 106.5773,225.0662 130.3893,225.0332 C149.7343,225.0072 169.0783,225.1572 188.4213,225.0222 C206.7613,224.8932 213.8773,225.8272 232.0563,223.2672 C267.6903,218.2472 294.9453,190.6562 294.83265,157.3382 C294.7683,138.6872 285.6883,120.2672 270.6023,107.7142" class="sapIllus_BackgroundColor"/>
  <path fill="var(--sapIllus_ObjectFillColor)" d="M271.5281,176.3714 L246.3901,169.7674 C246.0241,169.6714 245.8051,169.2964 245.9011,168.9304 L252.5051,143.7914 C252.6011,143.4254 252.9761,143.2064 253.3421,143.3034 L278.4801,149.9064 C278.8461,150.0034 279.0651,150.3774 278.9691,150.7434 L272.3661,175.8824 C272.2691,176.2484 271.8941,176.4674 271.5281,176.3714" class="sapIllus_ObjectFillColor"/>
  <path fill="var(--sapIllus_Layering1)" d="M271.655,175.887 C271.755,175.914 271.856,175.854 271.883,175.755 L278.486,150.616 C278.512,150.518 278.453,150.416 278.353,150.39 L253.216,143.786 C253.117,143.764 253.014,143.821 252.989,143.918 L246.384,169.057 C246.359,169.156 246.419,169.257 246.517,169.283 L271.655,175.887 Z M271.705,176.894 C271.603,176.894 271.502,176.88 271.401,176.854 L246.263,170.25 C245.957,170.17 245.7,169.975 245.541,169.701 C245.381,169.428 245.338,169.109 245.418,168.803 L252.022,143.664 C252.188,143.033 252.834,142.652 253.469,142.82 L278.607,149.423 C279.24,149.589 279.62,150.239 279.453,150.87 L272.849,176.009 C272.769,176.316 272.574,176.572 272.301,176.732 C272.116,176.839 271.912,176.894 271.705,176.894 L271.705,176.894 Z" class="sapIllus_Layering1"/>
  <path fill="var(--sapIllus_Layering2)" d="M271.4841 171.9417L268.2261 162.6817C268.0801 162.2647 267.5571 162.1277 267.2241 162.4197L263.2521 165.8937 260.2731 155.5017C260.1331 155.0137 259.5231 154.8537 259.1631 155.2107L248.3751 165.8377C248.0051 166.2007 248.1721 166.8277 248.6731 166.9597L260.0891 169.9587 261.3451 170.2877 263.6331 170.8887 270.7341 172.7537C271.2191 172.8817 271.6501 172.4147 271.4841 171.9417M274.1658 155.0735C273.8138 156.4085 272.4478 157.2065 271.1128 156.8555 269.7778 156.5055 268.9798 155.1375 269.3308 153.8025 269.6818 152.4685 271.0478 151.6705 272.3828 152.0205 273.7188 152.3715 274.5168 153.7385 274.1658 155.0735M258.3845 82.9691C256.4265 80.5091 253.6295 78.9581 250.5055 78.6031 247.3875 78.2531 244.3075 79.1291 241.8465 81.0881 239.3875 83.0451 237.8365 85.8431 237.4815 88.9671 237.1255 92.0911 238.0085 95.1651 239.9655 97.6251 241.9235 100.0851 244.7215 101.6361 247.8455 101.9911 248.0305 102.0121 248.2155 102.0291 248.4015 102.0411 251.3305 102.2381 254.1895 101.3481 256.5035 99.5071 258.9625 97.5491 260.5135 94.7511 260.8685 91.6271 261.2245 88.5041 260.3425 85.4291 258.3845 82.9691" class="sapIllus_Layering2"/>
  <path fill="var(--sapIllus_ObjectFillColor)" d="M252.4187 88.1751C252.2257 89.8741 250.6897 91.0961 248.9907 90.9031 247.2917 90.7091 246.0697 89.1741 246.2637 87.4751 246.4567 85.7761 247.9917 84.5541 249.6907 84.7471 251.3907 84.9411 252.6117 86.4761 252.4187 88.1751M249.5359 91.3626L249.0819 91.3106C245.9969 90.9596 243.1889 92.9526 242.4269 95.8716 242.3189 96.2826 242.4179 96.7316 242.7209 97.0296 244.1949 98.4786 246.1409 99.4696 248.3539 99.7216 250.5679 99.9736 252.6869 99.4456 254.4499 98.3646 254.8109 98.1416 255.0089 97.7256 254.9959 97.3006 254.9089 94.2856 252.6209 91.7136 249.5359 91.3626M55.5398 115.6653L72.6478 145.6303C72.9598 146.1773 72.7688 146.8733 72.2238 147.1853L44.3118 163.1203C43.7668 163.4333 43.0698 163.2423 42.7578 162.6953L25.6498 132.7303C25.3378 132.1853 25.5278 131.4883 26.0738 131.1763L53.9848 115.2413C54.5308 114.9293 55.2278 115.1193 55.5398 115.6653" class="sapIllus_ObjectFillColor"/>
  <path fill="var(--sapIllus_Layering1)" d="M54.5486,115.5911 C54.4396,115.5911 54.3306,115.6191 54.2336,115.6751 L26.3216,131.6111 C26.0166,131.7851 25.9086,132.1771 26.0836,132.4831 L43.1926,162.4471 C43.2776,162.5961 43.4136,162.7021 43.5786,162.7481 C43.7436,162.7911 43.9156,162.769844 44.0646,162.6871 L71.9756,146.7501 C72.2816,146.5751 72.3886,146.1841 72.2136,145.8771 L55.1056,115.9131 C55.0216,115.7651 54.8836,115.6581 54.7186,115.6131 C54.6626,115.5991 54.6056,115.5911 54.5486,115.5911 M43.7506,163.7721 C43.6056,163.7721 43.4596,163.7521 43.3156,163.7121 C42.8936,163.5971 42.5406,163.3241 42.3226,162.9441 L25.2156,132.9791 C24.7676,132.1951 25.0406,131.1921 25.8256,130.7421 L53.7366,114.8071 C54.5216,114.3611 55.5246,114.6321 55.9736,115.4171 L55.9746,115.4171 L73.0826,145.3821 C73.5296,146.1681 73.2556,147.1711 72.4716,147.6191 L44.5606,163.5551 C44.3096,163.6971 44.0316,163.7721 43.7506,163.7721" class="sapIllus_Layering1"/>
  <path fill="var(--sapIllus_Layering2)" d="M42.9529 144.056L47.9339 152.781C48.1129 153.093 48.0039 153.491 47.6919 153.669L45.9429 154.667C45.6309 154.846 45.2329 154.738 45.0549 154.425L40.0729 145.7C39.8939 145.388 40.0039 144.99 40.3149 144.812L42.0639 143.813C42.3769 143.635 42.7739 143.744 42.9529 144.056M49.2019 136.6898L55.7739 148.2008C55.9769 148.5558 55.8529 149.0088 55.4969 149.2128L53.9059 150.1218C53.5509 150.3248 53.0979 150.2008 52.8939 149.8448L46.3219 138.3348C46.1189 137.9788 46.2429 137.5248 46.5979 137.3218L48.1889 136.4138C48.5459 136.2108 48.9989 136.3348 49.2019 136.6898M54.9021 127.8997L63.8001 143.4857C64.0351 143.8957 63.8921 144.4207 63.4811 144.6547L62.0891 145.4487C61.6781 145.6837 61.1551 145.5407 60.9211 145.1287L52.0221 129.5447C51.7871 129.1327 51.9301 128.6097 52.3411 128.3747L53.7321 127.5807C54.1431 127.3447 54.6671 127.4887 54.9021 127.8997" class="sapIllus_Layering2"/>
  <path fill="var(--sapIllus_Layering1)" d="M43.4743,156.472 C43.3283,156.493 43.1793,156.424 43.1023,156.289 C43.0003,156.113 43.0633,155.887 43.2403,155.785 L65.9343,142.828 C66.1113,142.728 66.3373,142.788 66.4383,142.966 C66.5393,143.143 66.4783,143.368 66.3013,143.469 L43.6063,156.427 C43.5643,156.451 43.5193,156.465 43.4743,156.472" class="sapIllus_Layering1"/>
  <path fill="var(--sapIllus_StrokeDetailColor)" d="M257.1111,205.3489 L234.7521,205.3489 C234.4751,205.3489 234.2521,205.1249 234.2521,204.8489 C234.2521,204.5729 234.4751,204.3489 234.7521,204.3489 L257.1111,204.3489 C257.3871,204.3489 257.6111,204.5729 257.6111,204.8489 C257.6111,205.1249 257.3871,205.3489 257.1111,205.3489" class="sapIllus_StrokeDetailColor"/>
  <path fill="var(--sapIllus_ObjectFillColor)" d="M185.1238,147.681 C180.3378,141.881 173.6558,135.565 164.3758,128.116 C164.2618,127.981 162.5428,126.584 160.4558,123.93 C159.1788,122.306 159.1778,119.779 160.4498,118.149 C162.5648,115.442 164.3168,114.015 164.4338,113.878 C173.7418,106.395 180.4248,100.079 185.1818,94.313 C189.5878,88.957 192.3598,84.083 194.1108,79.21 C197.0588,71.075 197.1168,62.871 197.1168,52.436 L111.2918,52.436 C111.1758,62.802 111.2918,71.006 114.2388,79.21 C116.0488,84.083 118.8498,88.957 123.2568,94.313 C128.0428,100.114 134.7258,106.429 144.0058,113.878 C144.1168,114.01 145.7628,115.349 147.7858,117.889 C149.1508,119.601 149.1518,122.303 147.7918,124.021 C145.7398,126.615 144.0608,127.983 143.9478,128.116 C134.6388,135.599 127.9558,141.914 123.1988,147.681 C118.7928,153.036 116.0198,157.91 114.2698,162.785 C111.3218,170.919 111.2638,179.122 111.2638,189.558 L197.0898,189.558 C197.2058,179.192 197.0898,170.989 194.1418,162.785 C192.3318,157.91 189.5308,153.036 185.1238,147.681" class="sapIllus_ObjectFillColor"/>
  <path fill="var(--sapIllus_Layering1)" d="M180.5827,173.973 L154.1487,155.524 C153.9077,155.394 153.6327,155.389 153.3887,155.508 L125.3657,173.748 C123.1247,174.76 115.1027,176.156 111.9397,172.745 C111.3087,177.715 111.2657,183.002 111.2647,189.033 L196.7507,189.033 L196.7507,176.055 C196.7507,175.752 196.7507,175.471 196.7477,175.198 C196.6707,174.336 196.5747,173.485 196.4647,172.641 C192.5707,175.693 185.0957,176.133 180.5827,173.973" class="sapIllus_Layering1"/>
  <path fill="var(--sapIllus_StrokeDetailColor)" d="M127.8904 152.9525C127.7764 152.9525 127.6614 152.9135 127.5684 152.8345 127.3574 152.6565 127.3294 152.3415 127.5084 152.1305 131.6194 147.2585 134.5544 144.5915 138.8564 141.0955 139.0704 140.9215 139.3844 140.9525 139.5594 141.1675 139.7344 141.3815 139.7014 141.6965 139.4874 141.8705 135.1424 145.4025 132.3564 147.9345 128.2724 152.7745 128.1734 152.8915 128.0324 152.9525 127.8904 152.9525M142.6628 138.72C142.5288 138.72 142.3938 138.666 142.2968 138.56 142.1078 138.358 142.1208 138.041 142.3228 137.854 143.5738 136.694 144.7918 135.588 145.9788 134.533 146.1838 134.35 146.5018 134.366 146.6848 134.574 146.8688 134.781 146.8498 135.097 146.6428 135.281 145.4618 136.33 144.2478 137.432 143.0028 138.586 142.9068 138.676 142.7848 138.72 142.6628 138.72" class="sapIllus_StrokeDetailColor"/>
  <path fill="var(--sapIllus_PatternShadow)" d="M154.2136 108.6292C164.0726 100.4272 180.3446 81.9722 191.3256 56.8872 194.7816 77.0262 171.2706 108.0222 154.2136 108.6292M193.6706 162.9534C192.6806 160.2864 191.4216 157.7134 189.8536 155.1334 182.8866 170.2404 151.7936 185.3484 111.7646 187.4434 111.7646 187.9784 111.7636 188.5154 111.7636 189.0574L196.5956 189.0574C196.7016 178.8074 196.5216 170.8854 193.6706 162.9534" class="sapIllus_PatternShadow"/>
  <path fill="var(--sapIllus_BrandColorSecondary)" d="M86.9333 51.9427L221.3333 51.9427C222.7543 51.9427 223.9063 50.7907 223.9063 49.3707L223.9063 40.2217C223.9063 38.8007 222.7543 37.6497 221.3333 37.6497L86.9333 37.6497C85.5123 37.6497 84.3613 38.8007 84.3613 40.2217L84.3613 49.3707C84.3613 50.7907 85.5123 51.9427 86.9333 51.9427M86.9255 204.3499L221.3265 204.3499C222.7465 204.3499 223.8985 203.1989 223.8985 201.7789L223.8985 192.6299C223.8985 191.2089 222.7465 190.0579 221.3265 190.0579L86.9255 190.0579C85.5055 190.0579 84.3545 191.2089 84.3545 192.6299L84.3545 201.7789C84.3545 203.1989 85.5055 204.3499 86.9255 204.3499" class="sapIllus_BrandColorSecondary"/>
  <path fill="var(--sapIllus_Layering2)" d="M107.116 186.2581C104.616 184.7721 103.021 182.5111 103.021 179.9771L102.94 178.9141C102.887 178.1981 102.882 177.4691 102.929 176.7531L105.17 141.6331C105.187 141.3201 105.181 141.0001 105.159 140.6881 105.159 140.6671 105.153 140.6531 105.153 140.6321L105.083 139.9241C105.035 139.4361 104.844 138.9851 104.543 138.6511L104.444 138.5411C103.968 138.2781 103.55 137.8251 103.23 137.2561 102.789 136.4781 102.516 135.4631 102.516 134.3591 102.516 132.2871 103.458 130.5451 104.741 130.0241 104.85 129.9791 104.904 129.8281 104.844 129.7091 104.221 128.4921 103.406 127.5631 102.478 127.0431 104.11 126.0591 105.26 123.7101 105.26 120.9671 105.26 118.2501 104.134 115.9191 102.528 114.9181 103.435 114.3931 104.232 113.4731 104.844 112.2781 104.904 112.1581 104.85 112.0081 104.741 111.9631 103.458 111.4421 102.516 109.6991 102.516 107.6281 102.516 106.5241 102.789 105.5091 103.23 104.7311 103.55 104.1601 103.968 103.7091 104.444 103.4451L104.543 103.3361C104.844 103.0021 105.035 102.5511 105.083 102.0631L105.153 101.3541C105.153 101.3331 105.159 101.3201 105.159 101.2991 105.181 100.9871 105.187 100.6661 105.17 100.3541L102.929 65.2331C102.882 64.5181 102.887 63.7881 102.94 63.0721L103.021 62.0101C103.021 59.4761 104.616 57.2151 107.116 55.7291 107.429 54.7981 107.429 53.8671 107.11 52.9361L94.345 52.9361C94.049 53.8601 94.043 54.7831 94.333 55.7081 94.362 55.7151 94.386 55.7291 94.409 55.7501 96.888 57.2371 98.468 59.4871 98.468 62.0101L98.473 62.0101 98.526 63.3221C98.55 63.9611 98.544 64.6011 98.503 65.2401L96.262 100.3891C96.244 100.6951 96.25 101.0071 96.278 101.3201L96.296 101.5071 96.368 102.1541C96.42 102.6201 96.613 103.0481 96.912 103.3561L96.952 103.3971C97.464 103.6601 97.905 104.1261 98.247 104.7311 98.688 105.5091 98.962 106.5241 98.962 107.6281 98.962 109.6701 98.043 111.3931 96.785 111.9451 96.678 111.9921 96.629 112.1391 96.687 112.2541 97.301 113.4601 98.102 114.3891 99.016 114.9181 97.41 115.9181 96.284 118.2501 96.284 120.9671 96.284 123.7111 97.434 126.0611 99.067 127.0431 98.132 127.5671 97.311 128.5041 96.687 129.7331 96.629 129.8481 96.678 129.9941 96.785 130.0411 98.043 130.5941 98.962 132.3171 98.962 134.3591 98.962 135.4631 98.688 136.4781 98.247 137.2561 97.905 137.8601 97.464 138.3251 96.952 138.5901L96.912 138.6311C96.613 138.9391 96.42 139.3651 96.368 139.8321L96.296 140.4801 96.278 140.6671C96.25 140.9801 96.244 141.2921 96.262 141.5981L98.503 176.7461C98.544 177.3851 98.55 178.0251 98.526 178.6641L98.473 179.9771 98.468 179.9771C98.468 182.4991 96.888 184.7501 94.409 186.2371 94.386 186.2581 94.362 186.2721 94.333 186.2791 94.043 187.2021 94.049 188.1271 94.345 189.0511L107.11 189.0511C107.429 188.1191 107.429 187.1891 107.116 186.2581M213.2224 186.2581C210.7224 184.7721 209.1274 182.5111 209.1274 179.9771L209.0464 178.9141C208.9944 178.1981 208.9884 177.4691 209.0354 176.7531L211.2774 141.6331C211.2944 141.3201 211.2884 141.0001 211.2654 140.6881 211.2654 140.6671 211.2594 140.6531 211.2594 140.6321L211.1894 139.9241C211.1414 139.4361 210.9504 138.9851 210.6494 138.6511L210.5504 138.5411C210.0754 138.2781 209.6564 137.8251 209.3364 137.2561 208.8954 136.4781 208.6224 135.4631 208.6224 134.3591 208.6224 132.2871 209.5644 130.5451 210.8474 130.0241 210.9574 129.9791 211.0104 129.8281 210.9504 129.7091 210.3274 128.4921 209.5124 127.5631 208.5844 127.0431 210.2164 126.0591 211.3664 123.7101 211.3664 120.9671 211.3664 118.2501 210.2404 115.9191 208.6344 114.9181 209.5414 114.3931 210.3384 113.4731 210.9504 112.2781 211.0104 112.1581 210.9574 112.0081 210.8474 111.9631 209.5644 111.4421 208.6224 109.6991 208.6224 107.6281 208.6224 106.5241 208.8954 105.5091 209.3364 104.7311 209.6564 104.1601 210.0754 103.7091 210.5504 103.4451L210.6494 103.3361C210.9504 103.0021 211.1414 102.5511 211.1894 102.0631L211.2594 101.3541C211.2594 101.3331 211.2654 101.3201 211.2654 101.2991 211.2884 100.9871 211.2944 100.6661 211.2774 100.3541L209.0354 65.2331C208.9884 64.5181 208.9944 63.7881 209.0464 63.0721L209.1274 62.0101C209.1274 59.4761 210.7224 57.2151 213.2224 55.7291 213.5354 54.7981 213.5354 53.8671 213.2164 52.9361L200.4514 52.9361C200.1554 53.8601 200.1494 54.7831 200.4394 55.7081 200.4684 55.7151 200.4924 55.7291 200.5154 55.7501 202.9944 57.2371 204.5754 59.4871 204.5754 62.0101L204.5804 62.0101 204.6324 63.3221C204.6564 63.9611 204.6504 64.6011 204.6094 65.2401L202.3684 100.3891C202.3504 100.6951 202.3564 101.0071 202.3844 101.3201L202.4024 101.5071 202.4744 102.1541C202.5264 102.6201 202.7194 103.0481 203.0184 103.3561L203.0584 103.3971C203.5704 103.6601 204.0114 104.1261 204.3544 104.7311 204.7944 105.5091 205.0684 106.5241 205.0684 107.6281 205.0684 109.6701 204.1494 111.3931 202.8914 111.9451 202.7844 111.9921 202.7354 112.1391 202.7934 112.2541 203.4074 113.4601 204.2084 114.3891 205.1224 114.9181 203.5174 115.9181 202.3914 118.2501 202.3914 120.9671 202.3914 123.7111 203.5404 126.0611 205.1734 127.0431 204.2394 127.5671 203.4184 128.5041 202.7934 129.7331 202.7354 129.8481 202.7844 129.9941 202.8914 130.0411 204.1494 130.5941 205.0684 132.3171 205.0684 134.3591 205.0684 135.4631 204.7944 136.4781 204.3544 137.2561 204.0114 137.8601 203.5704 138.3251 203.0584 138.5901L203.0184 138.6311C202.7194 138.9391 202.5264 139.3651 202.4744 139.8321L202.4024 140.4801 202.3844 140.6671C202.3564 140.9801 202.3504 141.2921 202.3684 141.5981L204.6094 176.7461C204.6504 177.3851 204.6564 178.0251 204.6324 178.6641L204.5804 179.9771 204.5754 179.9771C204.5754 182.4991 202.9944 184.7501 200.5154 186.2371 200.4924 186.2581 200.4684 186.2721 200.4394 186.2791 200.1494 187.2021 200.1554 188.1271 200.4514 189.0511L213.2164 189.0511C213.5354 188.1191 213.5354 187.1891 213.2224 186.2581" class="sapIllus_Layering2"/>
  <path fill="var(--sapIllus_StrokeDetailColor)" d="M196.5954 189.0579L111.7634 189.0579C111.7644 179.4019 111.8144 171.0299 114.7404 162.9539 116.5694 157.8629 119.3794 153.1109 123.5844 147.9989 128.3184 142.2609 135.0814 135.8839 144.3164 128.4539 144.3404 128.4289 144.3924 128.3819 144.4684 128.3139 144.9584 127.8699 146.4514 126.5199 148.1834 124.3309 149.6864 122.4329 149.6834 119.4669 148.1764 117.5779 146.4784 115.4459 145.0634 114.1659 144.5314 113.6849 144.4524 113.6139 144.3994 113.5669 144.3194 113.4889 135.1674 106.1429 128.4054 99.7669 123.6424 93.9949 119.4404 88.8889 116.6014 84.1349 114.7094 79.0409 111.8604 71.1099 111.6794 63.1869 111.7854 52.9359L196.617095 52.9359C196.617095 62.5919 196.5664 70.9639 193.6404 79.0409 191.8114 84.1319 189.0004 88.8839 184.7954 93.9949 180.0624 99.7329 173.2994 106.1089 164.0644 113.5409 164.0394 113.5659 163.9874 113.6129 163.9094 113.6829 163.3994 114.1449 161.8454 115.5499 160.0554 117.8409 158.6524 119.6389 158.6554 122.4499 160.0634 124.2389 161.8244 126.4799 163.3504 127.8579 163.8524 128.3109 163.9294 128.3809 163.9824 128.4279 164.0634 128.5049 173.2084 135.8469 179.9714 142.2239 184.7384 147.9979 188.9404 153.1059 191.7794 157.8589 193.6704 162.9539 196.5214 170.8849 196.7014 178.8069 196.5954 189.0579M216.6024 189.0579L197.5944 189.0579C197.7024 178.7089 197.5164 170.6989 194.6104 162.6109 192.6764 157.4039 189.7844 152.5589 185.5094 147.3639L185.5094 147.3629C180.6994 141.5339 173.8884 135.1109 164.7574 127.7919 164.7334 127.7639 164.6544 127.6879 164.5224 127.5689 164.0364 127.1299 162.5584 125.7939 160.8484 123.6199 159.7124 122.1769 159.7104 119.9089 160.8434 118.4559 162.5804 116.2339 164.0864 114.8709 164.5804 114.4239 164.6884 114.3269 164.7604 114.2579 164.7584 114.2579 173.9864 106.8389 180.7924 100.4189 185.5674 94.6299 189.7894 89.4989 192.7384 84.5099 194.5804 79.3799 197.5664 71.1419 197.6164 62.6849 197.6164 52.9359L216.6024 52.9359C216.8784 52.9359 217.1024 52.7119 217.1024 52.4359 217.1024 52.1599 216.8784 51.9359 216.6024 51.9359L197.1164 51.9359 111.2914 51.9359 91.6764 51.9359C91.4004 51.9359 91.1764 52.1599 91.1764 52.4359 91.1764 52.7119 91.4004 52.9359 91.6764 52.9359L110.7864 52.9359C110.6784 63.2859 110.8654 71.2959 113.7704 79.3839 115.7034 84.5909 118.5954 89.4359 122.8704 94.6309 127.6774 100.4559 134.4884 106.8799 143.6234 114.2009 143.6484 114.2299 143.7274 114.3059 143.8604 114.4259 144.3764 114.8929 145.7464 116.1319 147.3954 118.2009 148.6234 119.7419 148.6254 122.1619 147.3994 123.7099 145.7194 125.8339 144.2734 127.1419 143.7974 127.5729 143.6924 127.6679 143.6204 127.7359 143.6224 127.7359 134.3954 135.1539 127.5884 141.5739 122.8134 147.3639 118.5904 152.4949 115.6424 157.4839 113.7994 162.6149 110.8144 170.8519 110.7644 179.3089 110.7634 189.0579L91.6764 189.0579C91.4004 189.0579 91.1764 189.2819 91.1764 189.5579 91.1764 189.8339 91.4004 190.0579 91.6764 190.0579L111.2634 190.0579 197.0894 190.0579 216.6024 190.0579C216.8784 190.0579 217.1024 189.8339 217.1024 189.5579 217.1024 189.2819 216.8784 189.0579 216.6024 189.0579M229.9177 205.3489L72.3207 205.3489C72.0447 205.3489 71.8207 205.1249 71.8207 204.8489 71.8207 204.5729 72.0447 204.3489 72.3207 204.3489L229.9177 204.3489C230.1937 204.3489 230.4177 204.5729 230.4177 204.8489 230.4177 205.1249 230.1937 205.3489 229.9177 205.3489" class="sapIllus_StrokeDetailColor"/>
</svg>