<svg width="160" height="160" viewBox="0 0 160 160" id="tnt-Dialog-Mission">
  <path fill="var(--sapIllus_BackgroundColor)" d="M120.221357,98.36 C120.221357,93.81 124.131357,90.59 129.331357,90.49 C145.451357,90.19 158.481357,77.02 156.861357,61.19 C155.461357,47.41 142.861357,37.19 128.481357,37.19 L43.5513569,37.19 C29.1713569,37.19 16.5513569,47.4 15.1713569,61.19 C13.5513569,77.02 26.5713569,90.49 42.7013569,90.49 L42.7913569,90.49 C45.9998818,90.4341698 48.6502866,92.9817765 48.7213569,96.19 L48.7213569,96.32 C48.6611308,99.5376466 46.0091761,102.100159 42.7913569,102.05 L19.1613569,102.05 C11.7913569,102.05 5.0213569,106.74 3.4013569,113.68 C1.1213569,123.45 8.8713569,132.19 18.6413569,132.19 L114.341357,132.19 C121.951357,132.19 128.851357,127.19 130.251357,119.99 C131.571357,113.23 127.251357,108.15 122.561357,103.99 C121.018278,102.530071 120.167695,100.483583 120.221357,98.36 Z" class="sapIllus_BackgroundColor"/>
  <path fill="var(--sapIllus_AccentColor)" d="M150.121357 129.86C144.801357 127.86 142.201357 123.04 140.181357 118.1 140.084939 117.870335 139.860439 117.720669 139.611357 117.72 139.371806 117.748997 139.160258 117.890028 139.041357 118.1 136.421357 124.39 132.971357 127.1 128.041357 130.54 127.907731 130.629353 127.815548 130.768589 127.78547 130.926498 127.755393 131.084406 127.789936 131.247781 127.881357 131.38 127.963779 131.49014 128.079497 131.570792 128.211357 131.61 132.381357 132.88 138.641357 140.71 138.671357 144.7 138.678624 145.00035 138.903503 145.250686 139.201357 145.290018L139.291357 145.290018C139.558948 145.292044 139.795545 145.116635 139.871357 144.86 140.871357 141.33 144.171357 133.96 149.311357 131.36 149.581428 131.222374 149.858468 131.098874 150.141357 130.99 150.380087 130.904679 150.539429 130.678519 150.539429 130.425 150.539429 130.171481 150.380087 129.945321 150.141357 129.86L150.121357 129.86zM33.3813569 24.6C30.0213569 23.25 28.3813569 19.95 27.1213569 16.6 27.0224172 16.324227 26.764244 16.1375479 26.4713569 16.13 26.1901869 16.1608417 25.9427794 16.3295286 25.8113569 16.58 24.1213569 20.77 21.5913569 22.91 18.6713569 25.4L18.5913569 25.46C18.3817701 25.6483043 18.2900267 25.9350023 18.3513569 26.21 18.4141328 26.480005 18.6225491 26.6922809 18.8913569 26.76 21.4413569 27.32 25.3813569 32.39 25.3813569 35.1 25.371372 35.4588956 25.6273207 35.7702998 25.9813569 35.83L26.0813569 35.83C26.4016191 35.8269268 26.6801747 35.6098173 26.7613569 35.3 27.6113569 32.3 30.0813569 27.3 33.3813569 25.98 33.5673345 25.9010417 33.7135886 25.750387 33.7870006 25.5621511 33.8604127 25.3739151 33.8547723 25.1640217 33.7713569 24.98 33.6964705 24.8046007 33.5567562 24.6648864 33.3813569 24.59L33.3813569 24.6z" class="sapIllus_AccentColor"/>
  <path fill="var(--sapIllus_BrandColorSecondary)" d="M94.4513791,97.86 C94.4513791,104.07 92.1713569,120.72 70.3913569,133.18 C69.8875833,133.469205 69.2522242,133.382915 68.8438304,132.969827 C68.4354366,132.556739 68.3564138,131.920436 68.6513569,131.42 C71.6513569,126.47 75.5713569,118.26 72.1513569,113.42 C71.7756533,112.856525 71.9125712,112.096852 72.4613569,111.7 L92.4013569,96.83 C92.7900902,96.537248 93.3112051,96.490252 93.746043,96.7087315 C94.1808809,96.9272111 94.4542158,97.3733696 94.4513791,97.86 Z" class="sapIllus_BrandColorSecondary"/>
  <path fill="var(--sapIllus_PatternHighlight)" d="M92.1113569,99.38 C86.1113569,105.78 84.6413569,106.08 82.2013569,110.2 C81.5313569,111.34 67.9613569,132.55 68.6513569,131.42 C71.6513569,126.47 75.5713569,118.26 72.1513569,113.42 C71.7756533,112.856525 71.9125712,112.096852 72.4613569,111.7 L92.4013569,96.83 C93.2513569,96.19 92.8313569,98.6 92.1113569,99.38 Z" class="sapIllus_PatternHighlight"/>
  <path fill="var(--sapIllus_BrandColorSecondary)" d="M58.2713569,61.69 C52.0713569,61.69 35.4213569,63.97 22.9513569,85.75 C22.6553154,86.2559326 22.740776,86.898308 23.158796,87.309243 C23.5768161,87.7201779 24.2205584,87.7946461 24.7213569,87.49 C29.7213569,84.49 37.8713569,80.56 42.7213569,83.99 C43.2884608,84.3582089 44.0446226,84.2175276 44.4413569,83.67 L59.3113569,63.74 C59.5971286,63.3480608 59.6388829,62.828944 59.4194297,62.396368 C59.1999765,61.9637919 58.7564146,61.6908842 58.2713569,61.69 L58.2713569,61.69 Z" class="sapIllus_BrandColorSecondary"/>
  <path fill="var(--sapIllus_StrokeDetailColor)" d="M46.4924671,97.0483559 L64.9824671,97.0483559 C65.4850463,97.0483559 65.8924671,97.4557768 65.8924671,97.9583559 L65.8924671,102.198356 C65.8924671,103.457565 64.8716764,104.478378 63.6124671,104.478378 L47.8724671,104.478378 C47.2660428,104.481016 46.6835435,104.241977 46.2537953,103.814105 C45.8240471,103.386234 45.5824671,102.804786 45.5824671,102.198356 L45.5824671,97.9983559 C45.5824671,97.4957768 45.989888,97.0883559 46.4924671,97.0883559 L46.4924671,97.0483559 Z" class="sapIllus_StrokeDetailColor" transform="rotate(45 55.737 100.763)"/>
  <path fill="var(--sapIllus_BrandColorSecondary)" d="M134.631357,21.5 C127.631357,14.5 101.231357,25.69 81.0913569,44.12 L112.141357,75.12 C127.201357,58.06 141.581357,28.45 134.631357,21.5 Z" class="sapIllus_BrandColorSecondary"/>
  <path fill="var(--sapIllus_PatternHighlight)" d="M135.001357,23.37 C134.581357,24.24 131.821357,26.17 131.211357,32.06 C130.86244,34.4905689 130.014691,36.8227303 128.721357,38.91 C127.021357,41.8 124.171357,44.48 123.141357,44.54 C119.301357,44.77 118.711357,49.16 116.781357,51.54 C116.651357,51.71 114.631357,53.28 114.361357,54.13 C113.011357,58.33 112.831357,56.22 111.981357,57.23 C109.981357,59.6 108.401357,61.23 108.041357,61.63 C107.221357,62.49 106.531357,63.16 106.141357,63.54 C104.991357,64.66 103.951357,65.54 103.141357,66.32 L112.591357,75.88 C127.281357,59.13 142.001357,30.31 135.001357,23.37 Z" class="sapIllus_PatternHighlight"/>
  <path fill="var(--sapIllus_ObjectFillColor)" d="M81.4913569,43.66 C80.1813569,44.85 79.2913569,45.86 78.0413569,47.1 C57.5613569,67.58 48.4913569,82.19 48.4913569,82.19 C45.9476053,86.3721077 46.4733986,91.7319384 49.7813569,95.34 L60.7113569,106.27 C64.2746792,109.564111 69.634551,109.978001 73.6613569,107.27 C86.1383127,98.7550959 97.8493021,89.1688146 108.661357,78.62 C109.861357,77.42 111.331357,76.11 112.541357,74.74 L81.4913569,43.66 Z" class="sapIllus_ObjectFillColor"/>
  <path fill="var(--sapIllus_StrokeDetailColor)" d="M112.801357,75.4 L112.801357,75.4 C120.603951,66.32398 127.140135,56.2320857 132.231357,45.4 C135.381357,38.53 139.951357,26.27 135.121357,21.4 C127.691357,13.98 101.921357,24.59 81.0413569,43.66 C79.7413569,44.85 78.4613569,46.07 77.2413569,47.29 C57.5213569,67.01 48.4913569,80.88 48.1113569,81.46 C45.3855379,86.0793674 46.0201077,91.9410022 49.6713569,95.87 L60.6013569,106.8 C64.4915771,110.462262 70.3870357,110.97527 74.8513569,108.04 C87.0147481,99.3102376 98.4946993,89.6656076 109.191357,79.19 C110.561357,77.86 111.741357,76.61 112.801357,75.4 Z M134.411357,22.11 C141.531357,29.23 126.411357,57.99 112.781357,73.89 L82.5413569,43.65 C102.901357,25.39 127.431357,15.13 134.411357,22.11 Z M74.2813569,107.19 C70.2115631,109.878559 64.8262215,109.410449 61.2813569,106.06 L50.3813569,95.19 C47.0440219,91.5873096 46.4819922,86.2154459 49.0013569,82 C49.3813569,81.43 58.3513569,67.64 78.0013569,48 C79.2113569,46.79 80.4713569,45.58 81.7613569,44.41 L81.8513569,44.33 L112.181357,74.66 L112.101357,74.75 C111.101357,75.94 109.881357,77.18 108.531357,78.53 C97.8611194,88.9415097 86.4111426,98.5227166 74.2813569,107.19 L74.2813569,107.19 Z" class="sapIllus_StrokeDetailColor"/>
  <circle cx="106.181" cy="50.87" r="6.63" fill="var(--sapIllus_StrokeDetailColor)" class="sapIllus_StrokeDetailColor"/>
  <circle cx="106.611" cy="49.86" r="6.63" fill="var(--sapIllus_ObjectFillColor)" class="sapIllus_ObjectFillColor"/>
  <rect width="2" height="14.84" x="43.144" y="105.37" fill="var(--sapIllus_Layering1)" class="sapIllus_Layering1" rx="1" transform="rotate(45 44.144 112.79)"/>
  <rect width="2" height="14.84" x="42.129" y="114.147" fill="var(--sapIllus_Layering1)" class="sapIllus_Layering1" rx="1" transform="rotate(45 43.129 121.567)"/>
  <rect width="2" height="14.84" x="36.67" y="103.225" fill="var(--sapIllus_Layering1)" class="sapIllus_Layering1" rx="1" transform="rotate(45 37.67 110.645)"/>
  <path fill="var(--sapIllus_Layering1)" d="M59.0013569 21.57C58.6793745 21.5700863 58.4168142 21.3119361 58.4113569 20.99L58.4113569 20.99 58.4113569 17.38C58.4501978 17.0810231 58.7048676 16.8572981 59.0063569 16.8572981 59.3078462 16.8572981 59.562516 17.0810231 59.6013569 17.38L59.6013569 20.99C59.5987271 21.146485 59.53403 21.2955134 59.4215032 21.4042893 59.3089765 21.5130652 59.1578411 21.5726748 59.0013569 21.57L59.0013569 21.57zM59.0013569 8.57000001C58.6793745 8.57008629 58.4168142 8.31193613 58.4113569 7.99000001L58.4113569 7.99000001 58.4113569 4.38000001C58.4501978 4.08102313 58.7048676 3.85729813 59.0063569 3.85729813 59.3078462 3.85729813 59.562516 4.08102313 59.6013569 4.38000001L59.6013569 7.99000001C59.5987271 8.14648501 59.53403 8.29551343 59.4215032 8.40428932 59.3089765 8.51306521 59.1578411 8.57267476 59.0013569 8.57000001L59.0013569 8.57000001zM54.2113569 13.19L50.6013569 13.19C50.4431538 13.1926818 50.2905031 13.1317072 50.1776843 13.0207687 50.0648655 12.9098303 50.0013569 12.7582259 50.0013569 12.6 50.0013569 12.2686292 50.2699861 12 50.6013569 12L54.2113569 12C54.3695828 11.9999773 54.5211872 12.0635086 54.6321256 12.1763274 54.7430641 12.2891462 54.8040387 12.4417969 54.8013569 12.6 54.8040932 12.7573006 54.7428117 12.9089645 54.6315666 13.0202097 54.5203214 13.1314548 54.3686575 13.1927363 54.2113569 13.19zM67.3213569 13.19L63.7113569 13.19C63.5530935 13.1874089 63.4025084 13.1213347 63.2934405 13.0066254 63.1843726 12.8919161 63.1259701 12.738193 63.1313569 12.58 63.146448 12.2661382 63.3974951 12.0150911 63.7113569 12L67.3213569 12C67.6488504 12.0161989 67.9026871 12.2923019 67.8913569 12.62 67.8810013 12.9304117 67.6317686 13.1796444 67.3213569 13.19L67.3213569 13.19zM100.561357 147.19C100.448244 147.192694 100.338828 147.149636 100.257886 147.070577 100.176945 146.991518 100.131325 146.883145 100.131357 146.77L100.131357 146.77 100.131357 144.19C100.131357 143.952518 100.323874 143.76 100.561357 143.76 100.798839 143.76 100.991357 143.952518 100.991357 144.19L100.991357 146.79C100.985924 147.023568 100.794988 147.210063 100.561357 147.21L100.561357 147.19zM100.561357 137.75C100.448244 137.752694 100.338828 137.709636 100.257886 137.630577 100.176945 137.551518 100.131325 137.443145 100.131357 137.33L100.131357 137.33 100.131357 134.73C100.131357 134.492518 100.323874 134.3 100.561357 134.3 100.798839 134.3 100.991357 134.492518 100.991357 134.73L100.991357 137.33C100.980885 137.561344 100.792883 137.744974 100.561357 137.75L100.561357 137.75zM97.1413569 141.19L94.5413569 141.19C94.3038745 141.19 94.1113569 140.997482 94.1113569 140.76 94.1113569 140.522518 94.3038745 140.33 94.5413569 140.33L97.1413569 140.33C97.3788393 140.33 97.5713569 140.522518 97.5713569 140.76 97.5713569 140.997482 97.3788393 141.19 97.1413569 141.19L97.1413569 141.19zM106.581357 141.19L104.001357 141.19C103.763874 141.19 103.571357 140.997482 103.571357 140.76 103.571357 140.522518 103.763874 140.33 104.001357 140.33L106.591357 140.33C106.828839 140.33 107.021357 140.522518 107.021357 140.76 107.021357 140.997482 106.828839 141.19 106.591357 141.19L106.581357 141.19z" class="sapIllus_Layering1"/>
</svg>