<svg width="320" height="240" viewBox="0 0 320 240" id="tnt-Scene-Company">
  <path fill="var(--sapIllus_BackgroundColor)" d="M296.2317,83.9857 C296.2317,64.9017 285.4017,46.3547 267.2287,34.8827 C247.3687,22.3447 221.7557,22.3647 198.0307,22.3157 C178.7557,22.2757 159.4827,22.0737 140.2087,22.1347 C121.9357,22.1927 102.8917,21.2707 84.7707,23.5657 C49.2507,28.0647 22.0007,53.3467 22.0007,83.9867 C22.0007,101.1377 30.9847,118.1067 45.9727,129.6997 C56.0757,137.5137 69.2237,142.1827 82.9347,144.7137 C87.8897,145.6287 91.5847,149.8827 91.5347,154.9227 C91.5337,155.0167 91.5317,155.1127 91.5297,155.2097 C91.4857,157.0177 90.7297,159.0907 89.4057,160.9067 C87.5007,163.5187 84.3907,164.9817 81.1577,164.9817 L77.9227,164.9817 C63.6647,164.9817 47.5747,163.1407 38.2287,176.0217 C31.7717,184.9237 32.1677,196.8737 38.6037,205.6817 C46.6127,216.6407 58.9607,217.1327 71.7507,217.1327 C118.3087,217.1327 164.6967,217.1647 211.4017,217.197755 C218.2567,217.2027 226.1607,216.8657 233.6147,215.9597 C244.8097,214.5987 255.4787,210.8397 259.0817,199.1607 C264.1957,182.5807 251.5487,168.7957 235.6477,165.4967 C232.1157,164.7627 228.4767,164.2917 224.7757,163.9937 C223.8047,163.9167 222.8367,163.7377 221.9367,163.3687 C218.4477,161.9387 216.2857,159.2607 216.1157,155.8287 C215.8407,150.2857 219.0137,146.2647 224.7657,144.9237 C225.0927,144.8477 225.4307,144.7967 225.7647,144.7547 C226.4167,144.6717 227.0677,144.5847 227.7167,144.4917 C228.0737,144.4657 228.4277,144.4407 228.7987,144.4327 C228.7987,144.4327 228.5857,144.4287 228.1867,144.4217 C264.3597,139.0807 296.2317,117.3837 296.2317,83.9857" class="sapIllus_BackgroundColor"/>
  <path fill="var(--sapIllus_ObjectFillColor)" d="M191.9846,72.4573 L191.9846,56.9523 C191.9846,56.9503 191.9856,56.9493 191.9856,56.9473 L191.9856,36.7933 C191.9856,36.3113 191.4496,35.3243 190.4186,35.3863 L144.1576,35.3863 C143.1596,35.3863 142.8786,35.9653 142.8786,36.8623 L142.8786,217.1593 L191.9856,217.1853 L191.9856,72.4623 C191.9856,72.4603 191.9846,72.4593 191.9846,72.4573" class="sapIllus_ObjectFillColor"/>
  <path fill="var(--sapIllus_Layering1)" d="M198.2571,217.1634 L174.2181,217.1634 L174.2181,130.4174 C174.2181,129.8614 174.6691,129.4104 175.2251,129.4104 L197.2511,129.4104 C197.8071,129.4104 198.2571,129.8614 198.2571,130.4174 L198.2571,217.1634 Z" class="sapIllus_Layering1"/>
  <path fill="var(--sapIllus_ObjectFillColor)" d="M106.719 70.1683C105.835 69.7163 105.011 69.1313 104.293 68.3213 102.015 65.7513 101.375 62.0013 98.966 59.5523 96.274 56.8153 91.519 56.4533 88.443 58.7503 86.44 60.2463 85.315 62.7483 85.288 65.2253 85.27 66.9603 87.236 70.3493 84.67 70.9553 81.678 71.6623 77.892 67.3123 75.497 66.0303 72.766 64.5693 69.269 63.8143 66.658 65.4833 64.808 66.6673 63.817 68.8113 63.157 70.9073 62.637 72.5643 62.354 74.5243 61.46 76.0333 60.408 77.8073 59.235 77.0953 57.53 76.4493 56.431 76.0343 55.142 76.0413 54.125 76.6303 52.721 77.4433 52.087 79.2513 52.367 80.8503 53.21 85.6683 59.708 87.7253 63.823 88.4103 68.945 89.2653 74.311 88.5233 79.111 86.5913 81.367 85.6823 83.57 84.5213 85.981 84.1963 87.987 83.9273 90.022 84.2563 92.009 84.6413 99.102 86.0163 109.701 89.8403 115.931 84.3043 118.608 81.9253 119.552 77.4203 117.23 74.6943 114.626 71.6393 110.201 71.9443 106.719 70.1683M240.7874 96.3382C240.8384 96.3152 240.8894 96.2902 240.9384 96.2652 243.6774 94.8762 243.8644 91.5672 245.9254 89.5542 247.3854 88.1282 249.6994 87.6522 251.6034 88.3892 253.5084 89.1242 254.9014 91.0302 255.0234 93.0682 255.0944 94.2342 254.7844 95.4262 255.0594 96.5622 256.0044 100.4532 260.5884 96.8202 262.5544 96.2922 264.1314 95.8682 266.1704 96.3322 266.7174 97.8722 267.1184 99.0022 266.7114 100.5752 267.7364 101.1982 268.3234 101.5562 269.0734 101.3592 269.7404 101.1952 271.2854 100.8192 272.9984 100.7092 274.3914 101.4772 275.7824 102.2442 276.6304 104.1362 275.8204 105.5042 275.5074 106.0342 274.9984 106.4202 274.4704 106.7362 268.9944 110.0282 262.4464 106.3252 256.7474 105.7822 251.3854 105.2712 246.2094 107.0492 240.8974 107.2542 238.5554 107.3442 236.0524 106.8552 234.3584 105.2342 232.6654 103.6122 232.1574 100.6432 233.7434 98.9152 235.4594 97.0482 238.4924 97.4192 240.7874 96.3382" class="sapIllus_ObjectFillColor"/>
  <path fill="var(--sapIllus_BrandColorSecondary)" d="M153.5999,182.6028 L153.5999,101.2728 L153.5999,92.7548 C153.5999,92.2908 153.2929,91.8818 152.8469,91.7528 L102.6659,77.1728 C101.9959,76.9778 101.3279,77.4778 101.3299,78.1748 C101.3409,80.8738 101.3649,86.5698 101.3649,86.7728 L101.3649,177.0938 C101.3649,177.4308 101.2019,177.7478 100.9269,177.9438 L79.5939,193.1798 C79.4879,193.2558 79.4249,193.3768 79.4249,193.5078 L79.4249,216.7648 C79.4249,216.9878 79.6049,217.1678 79.8289,217.1698 L153.1919,217.1378 C153.4159,217.1398 153.5999,216.9588 153.5999,216.7348 L153.5999,182.6028 Z" class="sapIllus_BrandColorSecondary"/>
  <path fill="var(--sapIllus_PatternHighlight)" d="M102.6663,77.178 C101.9963,76.984 101.3273,77.483 101.3303,78.18 C101.3413,80.878 101.3633,86.574 101.3633,86.779 L101.3633,177.429 C101.3633,177.56 101.3013,177.681 101.1953,177.757 L79.5943,193.185 C79.4873,193.261 79.4253,193.383 79.4253,193.513 L79.4253,216.771 C79.4253,216.992 79.6043,217.173 79.8283,217.176 L111.9813,217.161 L148.5183,90.5 L102.6663,77.178 Z" class="sapIllus_PatternHighlight"/>
  <path fill="var(--sapIllus_Layering1)" d="M143.7073,151.6009 L127.9593,151.6009 C127.4033,151.6009 126.9533,151.1499 126.9533,150.5939 L126.9533,111.0919 C126.9533,110.5369 127.4033,110.0849 127.9593,110.0849 L143.7073,110.0849 C144.2633,110.0849 144.7143,110.5369 144.7143,111.0919 L144.7143,150.5939 C144.7143,151.1499 144.2633,151.6009 143.7073,151.6009" class="sapIllus_Layering1"/>
  <path fill="var(--sapIllus_Layering2)" d="M222.7131,216.8919 C214.2751,217.3739 200.9231,217.2459 187.1921,217.1629 L187.1921,161.8339 C187.1921,161.5039 187.4851,161.0929 187.8021,160.8769 L221.5251,144.1089 C221.8721,143.9329 222.7131,144.0639 222.7131,144.9979 L222.7131,216.8919 Z" class="sapIllus_Layering2"/>
  <path fill="var(--sapIllus_ObjectFillColor)" d="M107.6458,217.1761 L96.1548,217.1761 L96.1548,197.0941 C96.1548,196.6501 96.5148,196.2891 96.9588,196.2891 L106.8408,196.2891 C107.2858,196.2891 107.6458,196.6501 107.6458,197.0941 L107.6458,217.1761 Z" class="sapIllus_ObjectFillColor"/>
  <path fill="var(--sapIllus_BrandColorSecondary)" d="M98.2278,207.2376 C98.2278,206.3726 98.9288,205.6716 99.7948,205.6716 C100.6608,205.6716 101.3618,206.3726 101.3618,207.2376 C101.3618,208.1026 100.6608,208.8046 99.7948,208.8046 C98.9288,208.8046 98.2278,208.1026 98.2278,207.2376" class="sapIllus_BrandColorSecondary"/>
  <path fill="var(--sapIllus_ObjectFillColor)" d="M183.6272,140.8968 L178.4032,140.8968 L178.4032,136.6798 C178.4032,136.1278 178.8512,135.6808 179.4022,135.6808 L182.6282,135.6808 C183.1802,135.6808 183.6272,136.1278 183.6272,136.6798 L183.6272,140.8968 Z" class="sapIllus_ObjectFillColor"/>
  <path fill="var(--sapIllus_AccentColor)" d="M195.1643,76.1341 L191.9853,76.1341 L191.9853,69.8661 L196.1643,69.8661 L196.1643,75.1341 C196.1643,75.6871 195.7173,76.1341 195.1643,76.1341" class="sapIllus_AccentColor"/>
  <path fill="var(--sapIllus_Layering1)" d="M197.8977,70.9046 L190.9427,70.9046 L190.9427,67.7696 L197.8977,67.7696 C198.6697,67.7696 199.2957,68.3966 199.2957,69.1696 L199.2957,69.5066 C199.2957,70.2786 198.6697,70.9046 197.8977,70.9046" class="sapIllus_Layering1"/>
  <polygon fill="var(--sapIllus_StrokeDetailColor)" points="192.508 70.905 196.164 70.905 196.164 71.95" class="sapIllus_StrokeDetailColor"/>
  <path fill="var(--sapIllus_ObjectFillColor)" d="M89.5549,200.1224 C91.7549,197.0894 92.1219,192.8274 90.4729,189.4624 C88.8709,186.1954 85.5169,184.0034 81.9519,183.7044 C81.0339,183.6274 80.0999,183.6754 79.1799,183.8644 C80.1579,183.6634 78.0729,178.9704 77.7499,178.4174 C76.6369,176.5094 74.9819,174.9024 72.9579,173.9894 C69.2209,172.3044 65.4879,173.4424 62.5019,176.0224 C59.6479,178.4894 57.8999,182.2934 54.4219,184.0174 C54.2749,184.0894 54.1129,184.1594 53.9519,184.1244 C53.8299,184.0974 53.7299,184.0134 53.6349,183.9324 C51.7879,182.3524 49.7269,181.2984 47.2589,181.1294 C42.9649,180.8354 38.5539,183.3884 37.1259,187.5364 C36.8339,188.3844 36.6619,189.2904 36.1749,190.0424 C35.5099,191.0694 34.6159,191.5474 33.6279,191.7024 C33.8219,195.5174 34.8779,199.2984 36.7629,202.7514 C37.5529,202.6464 38.3419,202.5584 39.1249,202.5084 C42.7449,202.2754 46.5279,202.4514 50.1649,202.6984 C58.0949,203.2354 65.9409,204.5814 73.8409,205.4044 C79.3429,205.9774 86.0829,204.9064 89.5549,200.1224" class="sapIllus_ObjectFillColor"/>
  <path fill="var(--sapIllus_Layering1)" d="M205.4983,184.2054 L195.0063,184.2054 C194.7293,184.2054 194.5063,183.9804 194.5063,183.7054 L194.5063,172.9894 C194.5063,169.9514 196.9683,167.4894 200.0063,167.4894 L200.4983,167.4894 C203.5353,167.4894 205.9983,169.9514 205.9983,172.9894 L205.9983,183.7054 C205.9983,183.9804 205.7733,184.2054 205.4983,184.2054" class="sapIllus_Layering1"/>
  <path fill="var(--sapIllus_AccentColor)" d="M195.1594,98.0736 L191.9804,98.0736 L191.9804,91.8046 L196.1594,91.8046 L196.1594,97.0736 C196.1594,97.6256 195.7124,98.0736 195.1594,98.0736" class="sapIllus_AccentColor"/>
  <path fill="var(--sapIllus_Layering1)" d="M197.8928,92.8431 L190.9378,92.8431 L190.9378,89.7091 L197.8928,89.7091 C198.6648,89.7091 199.2908,90.3351 199.2908,91.1081 L199.2908,91.4451 C199.2908,92.2171 198.6648,92.8431 197.8928,92.8431" class="sapIllus_Layering1"/>
  <polygon fill="var(--sapIllus_StrokeDetailColor)" points="192.503 92.843 196.159 92.843 196.159 93.888" class="sapIllus_StrokeDetailColor"/>
  <path fill="var(--sapIllus_AccentColor)" d="M195.1633,120.0111 L191.9833,120.0111 L191.9833,113.7421 L196.1633,113.7421 L196.1633,119.0111 C196.1633,119.5631 195.7153,120.0111 195.1633,120.0111" class="sapIllus_AccentColor"/>
  <path fill="var(--sapIllus_Layering1)" d="M197.8958,114.7816 L190.9408,114.7816 L190.9408,111.6466 L197.8958,111.6466 C198.6678,111.6466 199.2948,112.2726 199.2948,113.0456 L199.2948,113.3826 C199.2948,114.1546 198.6678,114.7816 197.8958,114.7816" class="sapIllus_Layering1"/>
  <polygon fill="var(--sapIllus_StrokeDetailColor)" points="192.506 114.782 196.163 114.782 196.163 115.827" class="sapIllus_StrokeDetailColor"/>
  <path fill="var(--sapIllus_ObjectFillColor)" d="M127.4534,150.8616 L127.4534,111.0916 C127.4534,110.8126 127.6804,110.5856 127.9594,110.5856 L143.7074,110.5856 C143.9864,110.5856 144.2144,110.8126 144.2144,111.0916 L144.2144,150.8616 C144.2144,150.8726 144.2084,150.8826 144.2074,150.8936 L127.4604,150.8936 C127.4594,150.8826 127.4534,150.8726 127.4534,150.8616 M146.2884,150.8936 L145.2114,150.8936 C145.2114,150.8826 145.2144,150.8726 145.2144,150.8616 L145.2144,111.0916 C145.2144,110.2606 144.5384,109.5856 143.7074,109.5856 L127.9594,109.5856 C127.1294,109.5856 126.4534,110.2606 126.4534,111.0916 L126.4534,150.8616 C126.4534,150.8726 126.4564,150.8826 126.4564,150.8936 L125.2254,150.8936 C124.8514,150.8936 124.5494,151.1966 124.5494,151.5696 L124.5494,153.9526 C124.5494,154.3266 124.8514,154.6296 125.2254,154.6296 L146.2884,154.6296 C146.6624,154.6296 146.9654,154.3266 146.9654,153.9526 L146.9654,151.5696 C146.9654,151.1966 146.6624,150.8936 146.2884,150.8936" class="sapIllus_ObjectFillColor"/>
  <polygon fill="var(--sapIllus_StrokeDetailColor)" points="125.182 154.629 146.333 154.629 146.333 156.301" class="sapIllus_StrokeDetailColor"/>
  <path fill="var(--sapIllus_BackgroundColor)" d="M192.7043,183.7796 L207.2283,183.7796 C207.6023,183.7796 207.9053,184.0826 207.9053,184.4566 L207.9053,185.6836 C207.9053,186.0566 207.6023,186.3606 207.2283,186.3606 L192.7043,186.3606 C192.3303,186.3606 192.0273,186.0566 192.0273,185.6836 L192.0273,184.4566 C192.0273,184.0826 192.3303,183.7796 192.7043,183.7796" class="sapIllus_BackgroundColor"/>
  <polygon fill="var(--sapIllus_StrokeDetailColor)" points="192.476 186.361 207.457 186.361 207.457 187.516" class="sapIllus_StrokeDetailColor"/>
  <path fill="var(--sapIllus_AccentColor)" d="M188.8831,204.0081 L169.8161,204.0081 C169.4431,204.0081 169.1391,204.3121 169.1391,204.6851 L169.1391,206.8171 C169.1391,207.1911 169.4431,207.4931 169.8161,207.4931 L171.5591,207.4931 C171.5421,207.5681 171.5141,207.6371 171.5141,207.7161 L171.5141,217.1651 L187.1851,217.1651 L187.1851,207.7161 C187.1851,207.6371 187.1571,207.5681 187.1401,207.4931 L188.8831,207.4931 C189.2571,207.4931 189.5601,207.1911 189.5601,206.8171 L189.5601,204.6851 C189.5601,204.3121 189.2571,204.0081 188.8831,204.0081" class="sapIllus_AccentColor"/>
  <polygon fill="var(--sapIllus_StrokeDetailColor)" points="171.514 207.494 187.185 207.494 187.185 208.719" class="sapIllus_StrokeDetailColor"/>
</svg>