<svg width="160" height="160" viewBox="0 0 160 160" id="tnt-Dialog-Fingerprint">
  <path fill="var(--sapIllus_BackgroundColor)" d="M103.2212,8.8953 C124.3622,13.0203 133.9552,43.1723 135.9292,53.9313 C137.9222,64.7983 138.6952,93.6143 133.5842,110.1163 C125.2712,136.9683 99.4732,157.5073 65.2982,151.6843 C35.0012,145.3533 16.1982,112.7623 22.7372,70.4303 C28.0012,36.3533 67.7832,1.9803 103.2212,8.8953" class="sapIllus_BackgroundColor"/>
  <path fill="var(--sapIllus_ObjectFillColor)" d="M131.9146,80.2381 C131.9146,108.9571 108.6336,132.2381 79.9146,132.2381 C51.1956,132.2381 27.9136,108.9571 27.9136,80.2381 C27.9136,51.5191 51.1956,28.2381 79.9146,28.2381 C108.6336,28.2381 131.9146,51.5191 131.9146,80.2381" class="sapIllus_ObjectFillColor"/>
  <path fill="var(--sapIllus_BrandColorSecondary)" d="M147.8208,89.3836 L12.0078,89.3836 C11.4508,89.3836 10.9998,88.9326 10.9998,88.3756 L10.9998,72.1006 C10.9998,71.5436 11.4508,71.0926 12.0078,71.0926 L147.8208,71.0926 C148.3778,71.0926 148.8288,71.5436 148.8288,72.1006 L148.8288,88.3756 C148.8288,88.9326 148.3778,89.3836 147.8208,89.3836" class="sapIllus_BrandColorSecondary"/>
  <path fill="var(--sapIllus_StrokeDetailColor)" d="M71.4654 125.0652C71.3644 125.0652 71.2614 125.0352 71.1734 124.9702 70.9494 124.8092 70.8994 124.4972 71.0604 124.2732 76.5484 116.6622 80.5324 108.2172 82.9004 99.1752 82.9694 98.9082 83.2374 98.7442 83.5104 98.8192 83.7774 98.8882 83.9374 99.1622 83.8664 99.4292 81.4684 108.5902 77.4324 117.1462 71.8714 124.8572 71.7734 124.9932 71.6204 125.0652 71.4654 125.0652M54.3433 117.8855C54.2323 117.8855 54.1203 117.8485 54.0273 117.7725 53.8133 117.5985 53.7813 117.2825 53.9563 117.0695 55.6933 114.9445 57.2933 112.6815 58.7113 110.3425 58.8543 110.1075 59.1623 110.0325 59.3983 110.1745 59.6343 110.3185 59.7093 110.6255 59.5663 110.8625 58.1233 113.2395 56.4973 115.5405 54.7313 117.7015 54.6323 117.8235 54.4883 117.8855 54.3433 117.8855M86.2867 125.4558C86.1977 125.4558 86.1077 125.4328 86.0267 125.3838 85.7907 125.2398 85.7167 124.9328 85.8587 124.6958 87.6557 121.7388 89.2897 118.6438 90.7167 115.4928 90.8297 115.2408 91.1287 115.1308 91.3777 115.2438 91.6297 115.3568 91.7407 115.6538 91.6267 115.9048 90.1837 119.0918 88.5307 122.2248 86.7147 125.2158 86.6197 125.3698 86.4547 125.4558 86.2867 125.4558M49.3462 113.9432C49.2362 113.9432 49.1242 113.9072 49.0322 113.8322 48.8172 113.6582 48.7842 113.3422 48.9582 113.1292 52.8882 108.2802 55.8982 102.8412 57.9062 96.9632 57.9952 96.7022 58.2802 96.5642 58.5412 96.6512 58.8022 96.7412 58.9422 97.0252 58.8522 97.2872 56.8062 103.2762 53.7392 108.8182 49.7352 113.7572 49.6362 113.8802 49.4922 113.9432 49.3462 113.9432M94.6665 123.531C94.5875 123.531 94.5075 123.512 94.4325 123.472 94.1875 123.344 94.0955 123.041 94.2255 122.797 98.7685 114.235 101.9025 105.053 103.5435 95.508 103.5905 95.235 103.8435 95.052 104.1215 95.099 104.3935 95.146 104.5765 95.405 104.5295 95.677 102.8705 105.328 99.7005 114.61 95.1075 123.265 95.0185 123.434 94.8455 123.531 94.6665 123.531M54.7207 80.368C54.4447 80.368 54.2207 80.144 54.2207 79.868 54.2207 68.492 61.5127 58.58 72.3667 55.203 72.6337 55.121 72.9107 55.269 72.9927 55.532 73.0747 55.796 72.9277 56.076 72.6637 56.158 62.2307 59.403 55.2207 68.931 55.2207 79.868 55.2207 80.144 54.9967 80.368 54.7207 80.368" class="sapIllus_StrokeDetailColor"/>
  <path fill="var(--sapIllus_StrokeDetailColor)" d="M50.0952 69.5838C50.0392 69.5838 49.9822 69.5738 49.9262 69.5548 49.6662 69.4608 49.5312 69.1748 49.6252 68.9148 54.2272 56.1318 66.4532 47.5428 80.0462 47.5428 93.2712 47.5428 105.0312 55.4588 110.0062 67.7098 110.1112 67.9658 109.9882 68.2578 109.7322 68.3608 109.4752 68.4658 109.1832 68.3428 109.0802 68.0868 104.2582 56.2138 92.8622 48.5428 80.0462 48.5428 66.8732 48.5428 55.0262 56.8658 50.5652 69.2528 50.4922 69.4568 50.3002 69.5838 50.0952 69.5838M113.7183 111.0017C113.6693 111.0017 113.6183 110.9947 113.5693 110.9797 113.3063 110.8977 113.1583 110.6157 113.2403 110.3527 115.1113 104.3597 116.4313 98.1517 117.1633 91.9017 117.1973 91.6287 117.4383 91.4367 117.7193 91.4637 117.9923 91.4957 118.1893 91.7447 118.1573 92.0197 117.4163 98.3307 116.0833 104.5997 114.1963 110.6507 114.1283 110.8647 113.9313 111.0017 113.7183 111.0017M37.6948 96.7986C37.6168 96.7986 37.5368 96.7796 37.4638 96.7406 37.2188 96.6126 37.1238 96.3116 37.2528 96.0666 37.7398 95.1366 38.1908 94.1726 38.5918 93.2006 38.6978 92.9446 38.9908 92.8226 39.2448 92.9296 39.5008 93.0346 39.6218 93.3266 39.5158 93.5816 39.1038 94.5816 38.6398 95.5736 38.1378 96.5306 38.0488 96.7006 37.8748 96.7986 37.6948 96.7986" class="sapIllus_StrokeDetailColor"/>
  <path fill="var(--sapIllus_StrokeDetailColor)" d="M43.2613 71.0926C47.2303 54.4546 62.2113 42.0436 80.0463 42.0436 81.7363 42.0436 83.4353 42.1556 85.0963 42.3776 85.3643 42.4246 85.6213 42.2226 85.6573 41.9486 85.6953 41.6756 85.5023 41.4236 85.2293 41.3876 83.5243 41.1586 81.7803 41.0436 80.0463 41.0436 61.6573 41.0436 46.2243 53.8996 42.2353 71.0926L43.2613 71.0926zM39.8858 89.3836C39.7518 89.8606 39.6328 90.3396 39.4778 90.8106 39.3918 91.0716 39.5348 91.3556 39.7968 91.4416 39.8488 91.4586 39.9018 91.4666 39.9527948 91.4666 40.1628 91.4666 40.3588 91.3336 40.4278 91.1226 40.6168 90.5496 40.7658 89.9656 40.9248 89.3836L39.8858 89.3836zM46.6133 89.3836C45.4703 94.1886 43.4623 98.7566 40.6403 102.8946 40.4843 103.1226 40.5433 103.4346 40.7713 103.5896 40.8583 103.6486 40.9553 103.6766 41.0523 103.6766 41.2123 103.6766 41.3693 103.6006 41.4663 103.4586 44.4033 99.1536 46.4823 94.3916 47.6433 89.3836L46.6133 89.3836zM53.2329 89.3836C51.8079 96.2756 48.8529 102.7906 44.5379 108.4076 44.3689 108.6266 44.4109 108.9416 44.6289 109.1096 44.7199 109.1786 44.8279 109.2126 44.9339 109.2126 45.0839 109.2126 45.2319 109.1456 45.3309 109.0176 49.7809 103.2256 52.8179 96.4976 54.2569 89.3836L53.2329 89.3836zM63.9615 71.0926C67.0765 65.4056 73.1185 61.5416 80.0465 61.5416 83.6105 61.5416 87.0665 62.5666 90.0405 64.5046 90.2735 64.6556 90.5825 64.5896 90.7325 64.3596 90.8835 64.1276 90.8175 63.8176 90.5875 63.6666 87.4505 61.6226 83.8055 60.5416 80.0465 60.5416 72.5515 60.5416 66.0535 64.8396 62.8495 71.0926L63.9615 71.0926zM59.8716 89.3836C59.6996 90.3336 59.5056 91.2786 59.2816 92.2146 59.2176 92.4836 59.3836 92.7526 59.6516 92.8176 59.6906 92.8266 59.7296 92.8306 59.7686 92.8306 59.9946 92.8306 60.1996 92.6766 60.2546 92.4466 60.4966 91.4336 60.7086 90.4116 60.8916 89.3836L59.8716 89.3836zM73.0318 89.3836C71.3648 100.7296 66.7378 111.3696 59.4988 120.3926 59.3258 120.6076 59.3608 120.9216 59.5758 121.0946 59.6678 121.1686 59.7788 121.2046 59.8878 121.2046 60.0348 121.2046 60.1798 121.1406 60.2788 121.0176 67.6598 111.8176 72.3668 100.9586 74.0408 89.3836L73.0318 89.3836zM78.9063 89.3836C77.2943 101.4826 72.6123 112.8626 65.1073 122.7136 64.9403 122.9336 64.9823 123.2466 65.2013 123.4136 65.2923 123.4836 65.3993 123.5166 65.5043 123.5166 65.6553 123.5166 65.8043 123.4486 65.9033 123.3196 73.5413 113.2916 78.2983 101.7036 79.9163 89.3836L78.9063 89.3836zM84.7574 89.3836C84.4944 91.4926 84.1684 93.5906 83.7314 95.6586 83.6744 95.9296 83.8464 96.1946 84.1164 96.2516 84.1524 96.2586 84.1864 96.2626 84.2214 96.2626 84.4514 96.2626 84.6594 96.1016 84.7094 95.8656 85.1614 93.7306 85.4974 91.5636 85.7664 89.3836L84.7574 89.3836zM66.4126 89.3836C65.4096 95.5126 63.4666 101.4726 60.6136 106.9606 60.4866 107.2056 60.5816 107.5076 60.8276 107.6346 61.0716 107.7636 61.3726 107.6676 61.5016 107.4216 64.4286 101.7906 66.4116 95.6736 67.4236 89.3836L66.4126 89.3836z" class="sapIllus_StrokeDetailColor"/>
  <path fill="var(--sapIllus_StrokeDetailColor)" d="M72.1455 71.0926C74.2425 69.2016 77.0075 68.0406 80.0465 68.0406 83.0855 68.0406 85.8505 69.2026 87.9475 71.0926L89.3765 71.0926C87.0355 68.6056 83.7245 67.0406 80.0465 67.0406 76.3695 67.0406 73.0585 68.6056 70.7175 71.0926L72.1455 71.0926zM91.3042 89.3836C89.8112 102.1756 85.3192 114.3926 78.0802 125.1546 77.9262 125.3836 77.9872 125.6946 78.2162 125.8486 78.3022 125.9056 78.3982 125.9336 78.4942 125.9336 78.6552 125.9336 78.8132 125.8566 78.9102 125.7126 86.2602 114.7836 90.8162 102.3756 92.3142 89.3836L91.3042 89.3836zM96.1158 71.0926L97.2498 71.0926C96.5328 69.6866 95.6538 68.3586 94.5998 67.1536 94.4188 66.9446 94.1008 66.9256 93.8948 67.1066 93.6868 67.2876 93.6658 67.6036 93.8478 67.8116 94.7328 68.8226 95.4808 69.9296 96.1158 71.0926M97.8355 89.3836C96.9945 97.0816 95.1495 104.5966 92.2795 111.8126 92.1785 112.0696 92.3035 112.3596 92.5605 112.4616 92.6205 112.4856 92.6835 112.4966 92.7445 112.4966 92.9425 112.4966 93.1315 112.3776 93.2095 112.1816 96.1265 104.8486 97.9975 97.2096 98.8425 89.3836L97.8355 89.3836zM77.4942 55.1717C78.3292 55.0867 79.1882 55.0427 80.0462 55.0427 90.6462 55.0427 99.7112 61.7227 103.2642 71.0927L104.3342 71.0927C100.7342 61.1587 91.2062 54.0427 80.0462 54.0427 79.1542 54.0427 78.2612 54.0877 77.3912 54.1777 77.1172 54.2057 76.9172 54.4507 76.9452 54.7257 76.9732 55.0007 77.2132 55.1997 77.4942 55.1717M104.3736 89.3836C104.3076 90.0296 104.2436 90.6776 104.1636 91.3196 104.1296 91.5926 104.3236 91.8426 104.5986 91.8766 104.6186 91.8796 104.6406 91.8806 104.6606 91.8806 104.9086 91.8806 105.1246 91.6956 105.1556 91.4426 105.2406 90.7596 105.3096 90.0706 105.3796 89.3836L104.3736 89.3836zM110.9077 89.3836C109.9317 99.4616 107.4017 109.2396 103.3417 118.5586 103.2307 118.8126 103.3457 119.1066 103.5987 119.2166 103.6647 119.2446 103.7317 119.2586 103.7997 119.2586 103.9917 119.2586 104.1757 119.1466 104.2577 118.9586 108.3737 109.5136 110.9327 99.5996 111.9117 89.3836L110.9077 89.3836zM90.1802 43.4158C103.5932 47.1378 113.6712 57.9448 116.8262 71.0928L117.8522 71.0928C114.6772 57.4918 104.2942 46.2938 90.4482 42.4528 90.1782 42.3778 89.9072 42.5348 89.8322 42.8008 89.7582 43.0668 89.9142 43.3428 90.1802 43.4158M123.9449 89.3836C123.8869 90.0466 123.8319 90.7096 123.7609 91.3686 123.7319 91.6436 123.9309 91.8896 124.2059 91.9186 124.2229 91.9206 124.2419 91.9216 124.2589 91.9216 124.5109 91.9216 124.7279 91.7316 124.7559 91.4746 124.8289 90.7796 124.8879 90.0816 124.9489 89.3836L123.9449 89.3836zM123.4995 71.0926L124.5225 71.0926C123.2995 64.8406 120.7655 58.9206 117.0195 53.6476 116.8595 53.4226 116.5455 53.3696 116.3215 53.5306 116.0975 53.6896 116.0445 54.0016 116.2045 54.2276 119.8285 59.3286 122.2895 65.0506 123.4995 71.0926" class="sapIllus_StrokeDetailColor"/>
  <path fill="var(--sapIllus_StrokeDetailColor)" d="M112.1197 49.0564C111.9897 49.0564 111.8597 49.0054 111.7627 48.9064 103.3487 40.2894 92.0857 35.5444 80.0467 35.5444 73.5697 35.5444 67.3287 36.9104 61.4967 39.6014 61.2457 39.7164 60.9487 39.6074 60.8327 39.3574 60.7177 39.1064 60.8267 38.8094 61.0777 38.6934 67.0417 35.9404 73.4237 34.5444 80.0467 34.5444 92.3567 34.5444 103.8747 39.3974 112.4767 48.2064 112.6707 48.4054 112.6667 48.7214 112.4697 48.9134 112.3717 49.0094 112.2457 49.0564 112.1197 49.0564M36.6065 71.0926C38.9175 59.5916 45.7085 49.3836 55.7535 42.7886 55.9845 42.6376 56.0485 42.3266 55.8975 42.0966 55.7465 41.8656 55.4365 41.8016 55.2055 41.9526 44.8755 48.7346 37.9055 59.2516 35.5825 71.0926L36.6065 71.0926zM71.4654 125.0652C71.3644 125.0652 71.2614 125.0352 71.1734 124.9702 70.9494 124.8092 70.8994 124.4972 71.0604 124.2732 76.5484 116.6622 80.5324 108.2172 82.9004 99.1752 82.9694 98.9082 83.2374 98.7442 83.5104 98.8192 83.7774 98.8882 83.9374 99.1622 83.8664 99.4292 81.4684 108.5902 77.4324 117.1462 71.8714 124.8572 71.7734 124.9932 71.6204 125.0652 71.4654 125.0652M54.3433 117.8855C54.2323 117.8855 54.1203 117.8485 54.0273 117.7725 53.8133 117.5985 53.7813 117.2825 53.9563 117.0695 55.6933 114.9445 57.2933 112.6815 58.7113 110.3425 58.8543 110.1075 59.1623 110.0325 59.3983 110.1745 59.6343 110.3185 59.7093 110.6255 59.5663 110.8625 58.1233 113.2395 56.4973 115.5405 54.7313 117.7015 54.6323 117.8235 54.4883 117.8855 54.3433 117.8855M86.2867 125.4558C86.1977 125.4558 86.1077 125.4328 86.0267 125.3838 85.7907 125.2398 85.7167 124.9328 85.8587 124.6958 87.6557 121.7388 89.2897 118.6438 90.7167 115.4928 90.8297 115.2408 91.1287 115.1308 91.3777 115.2438 91.6297 115.3568 91.7407 115.6538 91.6267 115.9048 90.1837 119.0918 88.5307 122.2248 86.7147 125.2158 86.6197 125.3698 86.4547 125.4558 86.2867 125.4558M49.3462 113.9432C49.2362 113.9432 49.1242 113.9072 49.0322 113.8322 48.8172 113.6582 48.7842 113.3422 48.9582 113.1292 52.8882 108.2802 55.8982 102.8412 57.9062 96.9632 57.9952 96.7022 58.2802 96.5642 58.5412 96.6512 58.8022 96.7412 58.9422 97.0252 58.8522 97.2872 56.8062 103.2762 53.7392 108.8182 49.7352 113.7572 49.6362 113.8802 49.4922 113.9432 49.3462 113.9432M94.6665 123.531C94.5875 123.531 94.5075 123.512 94.4325 123.472 94.1875 123.344 94.0955 123.041 94.2255 122.797 98.7685 114.235 101.9025 105.053 103.5435 95.508 103.5905 95.235 103.8435 95.052 104.1215 95.099 104.3935 95.146 104.5765 95.405 104.5295 95.677 102.8705 105.328 99.7005 114.61 95.1075 123.265 95.0185 123.434 94.8455 123.531 94.6665 123.531M50.0952 69.5838C50.0392 69.5838 49.9822 69.5738 49.9262 69.5548 49.6662 69.4608 49.5312 69.1748 49.6252 68.9148 54.2272 56.1318 66.4532 47.5428 80.0462 47.5428 93.2712 47.5428 105.0312 55.4588 110.0062 67.7098 110.1112 67.9658 109.9882 68.2578 109.7322 68.3608 109.4752 68.4658 109.1832 68.3428 109.0802 68.0868 104.2582 56.2138 92.8622 48.5428 80.0462 48.5428 66.8732 48.5428 55.0262 56.8658 50.5652 69.2528 50.4922 69.4568 50.3002 69.5838 50.0952 69.5838M113.7183 111.0017C113.6693 111.0017 113.6183 110.9947 113.5693 110.9797 113.3063 110.8977 113.1583 110.6157 113.2403 110.3527 115.1113 104.3597 116.4313 98.1517 117.1633 91.9017 117.1973 91.6287 117.4383 91.4367 117.7193 91.4637 117.9923 91.4957 118.1893 91.7447 118.1573 92.0197 117.4163 98.3307 116.0833 104.5997 114.1963 110.6507 114.1283 110.8647 113.9313 111.0017 113.7183 111.0017" class="sapIllus_StrokeDetailColor"/>
  <path fill="var(--sapIllus_ObjectFillColor)" d="M49.3091 71.576C49.0371 71.505 48.7681 71.671 48.7021 71.938 48.0511 74.515 47.7221 77.183 47.7221 79.868 47.7221 79.898 47.7251 79.929 47.7301 79.957 47.7231 83.162 47.3431 86.32 46.6131 89.384L47.6431 89.384C48.3611 86.29 48.7301 83.101 48.7301 79.868 48.7301 79.838 48.7271 79.807 48.7221 79.779 48.7291 77.207 49.0481 74.651 49.6711 72.182 49.7391 71.915 49.5771 71.643 49.3091 71.576M54.4449 85.0398C54.1659 85.0008 53.9219 85.2018 53.8889 85.4768 53.7329 86.7918 53.4999 88.0918 53.2329 89.3838L54.2579 89.3838C54.5099 88.1308 54.7309 86.8698 54.8819 85.5958 54.9149 85.3208 54.7189 85.0718 54.4449 85.0398M55.7539 71.0926C54.7669 73.8476 54.2209 76.8006 54.2209 79.8676 54.2209 80.1446 54.4439 80.3676 54.7209 80.3676 54.9969 80.3676 55.2209 80.1446 55.2209 79.8676 55.2209 76.7926 55.7929 73.8366 56.8219 71.0926L55.7539 71.0926zM62.8496 71.0926C61.4976 73.7296 60.7206 76.7066 60.7206 79.8676 60.7206 79.9036 60.7246 79.9376 60.7316 79.9706 60.7246 83.1366 60.4326 86.2906 59.8716 89.3836L60.8916 89.3836C61.4486 86.2556 61.7316 83.0676 61.7316 79.8676 61.7316 79.8326 61.7276 79.7986 61.7206 79.7656 61.7376 76.6266 62.5486 73.6716 63.9616 71.0926L62.8496 71.0926zM74.0801 84.3533C73.8071 84.3323 73.5641 84.5403 73.5441 84.8143 73.4281 86.3493 73.2541 87.8723 73.0321 89.3833L74.0401 89.3833C74.2551 87.8963 74.4271 86.3993 74.5411 84.8903 74.5621 84.6153 74.3551 84.3743 74.0801 84.3533M80.0459 79.367C79.7699 79.367 79.5459 79.591 79.5459 79.867 79.5459 83.079 79.3229 86.255 78.9059 89.384L79.9159 89.384C80.3279 86.254 80.5459 83.079 80.5459 79.867 80.5459 79.591 80.3219 79.367 80.0459 79.367" class="sapIllus_ObjectFillColor"/>
  <path fill="var(--sapIllus_ObjectFillColor)" d="M80.0464 73.5398C76.5574 73.5398 73.7184 76.3788 73.7184 79.8678 73.7184 79.9018 73.7224 79.9358 73.7304 79.9688 73.7294 80.3158 73.7264 80.6618 73.7204 81.0068 73.7154 81.2828 73.9364 81.5108 74.2124 81.5158 74.5174 81.5348 74.7154 81.2998 74.7204 81.0238 74.7264 80.6398 74.7304 80.2538 74.7304 79.8668 74.7304 79.8338 74.7264 79.8018 74.7194 79.7688 74.7724 76.8768 77.1414 74.5398 80.0464 74.5398 82.9844 74.5398 85.3734 76.9298 85.3734 79.8668 85.3734 83.0558 85.1504 86.2348 84.7574 89.3838L85.7664 89.3838C86.1534 86.2338 86.3734 83.0548 86.3734 79.8678 86.3734 76.3788 83.5354 73.5398 80.0464 73.5398M91.8736 79.7703C91.8666 79.8023 91.8636 79.8343 91.8636 79.8673 91.8636 83.0663 91.6716 86.2423 91.3046 89.3833L92.3136 89.3833C92.6726 86.2743 92.8596 83.1313 92.8636 79.9663 92.8706 79.9343 92.8736 79.9013 92.8736 79.8683 92.8736 76.4723 91.5376 73.3893 89.3766 71.0923L87.9476 71.0923C90.3286 73.2383 91.8456 76.3263 91.8736 79.7703M67.4234 89.3836C67.9234 86.2736 68.2044 83.1246 68.2104 79.9646 68.2154 79.9326 68.2194 79.9006 68.2194 79.8676 68.2194 76.3846 69.7414 73.2586 72.1454 71.0926L70.7174 71.0926C68.5764 73.3666 67.2454 76.4116 67.2194 79.7696 67.2134 79.8016 67.2104 79.8336 67.2104 79.8666 67.2104 83.0606 66.9264 86.2426 66.4124 89.3836L67.4234 89.3836zM98.3716 79.867C98.3716 83.067 98.1786 86.239 97.8356 89.384L98.8426 89.384C99.1826 86.239 99.3726 83.067 99.3726 79.868 99.3726 76.791 98.6266 73.791 97.2496 71.093L96.1156 71.093C97.5766 73.766 98.3726 76.774 98.3716 79.867M104.8716 79.868C104.8716 83.043 104.6976 86.233 104.3736 89.384L105.3796 89.384C105.6996 86.232 105.8716 83.043 105.8716 79.868 105.8716 76.788 105.3276 73.834 104.3346 71.093L103.2646 71.093C104.3006 73.822 104.8716 76.779 104.8716 79.868M110.8872 71.9695C110.6182 72.0335 110.4522 72.3035 110.5172 72.5725 111.0832 74.9465 111.3702 77.4015 111.3702 79.8665 111.3702 83.0655 111.2122 86.2395 110.9082 89.3835L111.9112 89.3835C112.2132 86.2395 112.3702 83.0665 112.3702 79.8675 112.3702 77.3235 112.0742 74.7905 111.4902 72.3395 111.4262 72.0725 111.1592 71.9015 110.8872 71.9695M117.8697 79.8055C117.8667 79.8265 117.8657 79.8465 117.8657 79.8675 117.8657 82.4605 117.7677 85.0765 117.5737 87.6455 117.5537 87.9205 117.7607 88.1595 118.0357 88.1815 118.0487 88.1825 118.0607 88.1825 118.0737 88.1825 118.3327 88.1825 118.5517 87.9825 118.5717 87.7195 118.7657 85.1485 118.8637 82.5285 118.8657 79.9305 118.8687 79.9095 118.8697 79.8895 118.8697 79.8675 118.8697 76.8675 118.5147 73.9285 117.8517 71.0925L116.8257 71.0925C117.5007 73.9065 117.8647 76.8245 117.8697 79.8055M42.2349 71.0926C41.5799 73.9146 41.2219 76.8496 41.2219 79.8676 41.2219 79.8866 41.2229 79.9046 41.2249 79.9216 41.2199 83.1446 40.7529 86.3166 39.8859 89.3836L40.9249 89.3836C41.7709 86.2946 42.2249 83.1066 42.2249 79.8676 42.2249 79.8496 42.2239 79.8316 42.2219 79.8146 42.2259 76.8116 42.5929 73.8946 43.2609 71.0926L42.2349 71.0926z" class="sapIllus_ObjectFillColor"/>
  <path fill="var(--sapIllus_StrokeDetailColor)" d="M37.6948,96.7986 C37.6168,96.7986 37.5368,96.7796 37.4638,96.7406 C37.2188,96.6126 37.1238,96.3116 37.2528,96.0666 C37.7398,95.1366 38.1908,94.1726 38.5918,93.2006 C38.6978,92.9446 38.9908,92.8226 39.2448,92.9296 C39.5008,93.0346 39.6218,93.3266 39.5158,93.5816 C39.1038,94.5816 38.6398,95.5736 38.1378,96.5306 C38.0488,96.7006 37.8748,96.7986 37.6948,96.7986" class="sapIllus_StrokeDetailColor"/>
  <path fill="var(--sapIllus_ObjectFillColor)" d="M124.3697,79.867 C124.3697,83.035 124.2217,86.225 123.9447,89.384 L124.9487,89.384 C125.2237,86.225 125.3697,83.035 125.3697,79.868 C125.3697,76.893 125.0837,73.958 124.5227,71.093 L123.4997,71.093 C124.0737,73.956 124.3697,76.891 124.3697,79.867" class="sapIllus_ObjectFillColor"/>
  <path fill="var(--sapIllus_StrokeDetailColor)" d="M112.1197,49.0564 C111.9897,49.0564 111.8597,49.0054 111.7627,48.9064 C103.3487,40.2894 92.0857,35.5444 80.0467,35.5444 C73.5697,35.5444 67.3287,36.9104 61.4967,39.6014 C61.2457,39.7164 60.9487,39.6074 60.8327,39.3574 C60.7177,39.1064 60.8267,38.8094 61.0777,38.6934 C67.0417,35.9404 73.4237,34.5444 80.0467,34.5444 C92.3567,34.5444 103.8747,39.3974 112.4767,48.2064 C112.6707,48.4054 112.6667,48.7214 112.4697,48.9134 C112.3717,49.0094 112.2457,49.0564 112.1197,49.0564" class="sapIllus_StrokeDetailColor"/>
  <path fill="var(--sapIllus_ObjectFillColor)" d="M35.5825,71.0926 C35.0205,73.9516 34.7235,76.8866 34.7235,79.8666 C34.7235,81.4216 34.5995,82.9816 34.3535,84.5036 C34.3105,84.7766 34.4955,85.0326 34.7685,85.0756 C34.7945,85.0806 34.8215,85.0826 34.8485,85.0826 C35.0895,85.0826 35.3015,84.9076 35.3415,84.6616 C35.5945,83.0876 35.7235,81.4756 35.7235,79.8676 C35.7235,76.8856 36.0325,73.9506 36.6065,71.0926 L35.5825,71.0926 Z" class="sapIllus_ObjectFillColor"/>
</svg>