<svg width="160" height="160" viewBox="0 0 160 160" id="tnt-Dialog-CodePlaceholder">
  <path fill="var(--sapIllus_PatternShadow)" d="M151.0156,19 L148.3576,19 L148.3576,144.219 C148.3576,146.419 146.5736,148.203 144.3726,148.203 L18.9996,148.203 L18.9996,151.016 C18.9996,153.217 20.7836,155 22.9836,155 L151.0156,155 C153.2166,155 154.9996,153.217 154.9996,151.016 L154.9996,22.984 C154.9996,20.783 153.2166,19 151.0156,19" class="sapIllus_PatternShadow"/>
  <path fill="var(--sapIllus_ObjectFillColor)" d="M144.5161,148.5 L16.4841,148.5 C14.2841,148.5 12.5001,146.716 12.5001,144.516 L12.5001,16.483 C12.5001,14.283 14.2841,12.5 16.4841,12.5 L144.5161,12.5 C146.7161,12.5 148.5001,14.283 148.5001,16.483 L148.5001,144.516 C148.5001,146.716 146.7161,148.5 144.5161,148.5" class="sapIllus_ObjectFillColor"/>
  <path fill="var(--sapIllus_StrokeDetailColor)" d="M16.4839,13 C14.5629,13 12.9999,14.562 12.9999,16.483 L12.9999,144.516 C12.9999,146.437 14.5629,148 16.4839,148 L144.5159,148 C146.4369,148 148.0009,146.437 148.0009,144.516 L148.0009,16.483 C148.0009,14.562 146.4369,13 144.5159,13 L16.4839,13 Z M144.5159,149 L16.4839,149 C14.0109,149 11.9999,146.988 11.9999,144.516 L11.9999,16.483 C11.9999,14.012 14.0109,12 16.4839,12 L144.5159,12 C146.9889,12 149.0009,14.012 149.0009,16.483 L149.0009,144.516 C149.0009,146.988 146.9889,149 144.5159,149 L144.5159,149 Z" class="sapIllus_StrokeDetailColor"/>
  <path fill="var(--sapIllus_BackgroundColor)" d="M143.5005 144L137.5005 144C137.2245 144 137.0005 143.776 137.0005 143.5 137.0005 143.224 137.2245 143 137.5005 143L143.0005 143 143.0005 137.5C143.0005 137.224 143.2245 137 143.5005 137 143.7765 137 144.0005 137.224 144.0005 137.5L144.0005 143.5C144.0005 143.776 143.7765 144 143.5005 144M124.7222 144L111.9452 144C111.6682 144 111.4452 143.776 111.4452 143.5 111.4452 143.224 111.6682 143 111.9452 143L124.7222 143C124.9982 143 125.2222 143.224 125.2222 143.5 125.2222 143.776 124.9982 144 124.7222 144M99.1665 144L86.3895 144C86.1125 144 85.8895 143.776 85.8895 143.5 85.8895 143.224 86.1125 143 86.3895 143L99.1665 143C99.4425 143 99.6665 143.224 99.6665 143.5 99.6665 143.776 99.4425 144 99.1665 144M73.6108 144L60.8338 144C60.5568 144 60.3338 143.776 60.3338 143.5 60.3338 143.224 60.5568 143 60.8338 143L73.6108 143C73.8868 143 74.1108 143.224 74.1108 143.5 74.1108 143.776 73.8868 144 73.6108 144M48.0557 144L35.2777 144C35.0017 144 34.7777 143.776 34.7777 143.5 34.7777 143.224 35.0017 143 35.2777 143L48.0557 143C48.3317 143 48.5557 143.224 48.5557 143.5 48.5557 143.776 48.3317 144 48.0557 144M22.5 144L16.5 144C16.224 144 16 143.776 16 143.5L16 137.5C16 137.224 16.224 137 16.5 137 16.776 137 17 137.224 17 137.5L17 143 22.5 143C22.776 143 23 143.224 23 143.5 23 143.776 22.776 144 22.5 144M16.5 125.2217C16.224 125.2217 16 124.9977 16 124.7217L16 111.9447C16 111.6677 16.224 111.4447 16.5 111.4447 16.776 111.4447 17 111.6677 17 111.9447L17 124.7217C17 124.9977 16.776 125.2217 16.5 125.2217M16.5 99.666C16.224 99.666 16 99.442 16 99.166L16 86.389C16 86.112 16.224 85.889 16.5 85.889 16.776 85.889 17 86.112 17 86.389L17 99.166C17 99.442 16.776 99.666 16.5 99.666M16.5 74.1104C16.224 74.1104 16 73.8864 16 73.6104L16 60.8334C16 60.5564 16.224 60.3334 16.5 60.3334 16.776 60.3334 17 60.5564 17 60.8334L17 73.6104C17 73.8864 16.776 74.1104 16.5 74.1104M16.5 48.5547C16.224 48.5547 16 48.3307 16 48.0547L16 35.2777C16 35.0007 16.224 34.7777 16.5 34.7777 16.776 34.7777 17 35.0007 17 35.2777L17 48.0547C17 48.3307 16.776 48.5547 16.5 48.5547M16.5 23C16.224 23 16 22.776 16 22.5L16 16.5C16 16.224 16.224 16 16.5 16L22.5 16C22.776 16 23 16.224 23 16.5 23 16.776 22.776 17 22.5 17L17 17 17 22.5C17 22.776 16.776 23 16.5 23M124.7222 17L111.9452 17C111.6682 17 111.4452 16.776 111.4452 16.5 111.4452 16.224 111.6682 16 111.9452 16L124.7222 16C124.9982 16 125.2222 16.224 125.2222 16.5 125.2222 16.776 124.9982 17 124.7222 17M99.1665 17L86.3895 17C86.1125 17 85.8895 16.776 85.8895 16.5 85.8895 16.224 86.1125 16 86.3895 16L99.1665 16C99.4425 16 99.6665 16.224 99.6665 16.5 99.6665 16.776 99.4425 17 99.1665 17M73.6113 17L60.8333 17C60.5573 17 60.3333 16.776 60.3333 16.5 60.3333 16.224 60.5573 16 60.8333 16L73.6113 16C73.8873 16 74.1113 16.224 74.1113 16.5 74.1113 16.776 73.8873 17 73.6113 17M48.0557 17L35.2777 17C35.0017 17 34.7777 16.776 34.7777 16.5 34.7777 16.224 35.0017 16 35.2777 16L48.0557 16C48.3317 16 48.5557 16.224 48.5557 16.5 48.5557 16.776 48.3317 17 48.0557 17M143.5005 23C143.2245 23 143.0005 22.776 143.0005 22.5L143.0005 17 137.5005 17C137.2245 17 137.0005 16.776 137.0005 16.5 137.0005 16.224 137.2245 16 137.5005 16L143.5005 16C143.7765 16 144.0005 16.224 144.0005 16.5L144.0005 22.5C144.0005 22.776 143.7765 23 143.5005 23M143.5005 125.2217C143.2245 125.2217 143.0005 124.9977 143.0005 124.7217L143.0005 111.9447C143.0005 111.6677 143.2245 111.4447 143.5005 111.4447 143.7765 111.4447 144.0005 111.6677 144.0005 111.9447L144.0005 124.7217C144.0005 124.9977 143.7765 125.2217 143.5005 125.2217M143.5005 99.666C143.2245 99.666 143.0005 99.442 143.0005 99.166L143.0005 86.389C143.0005 86.112 143.2245 85.889 143.5005 85.889 143.7765 85.889 144.0005 86.112 144.0005 86.389L144.0005 99.166C144.0005 99.442 143.7765 99.666 143.5005 99.666M143.5005 74.1104C143.2245 74.1104 143.0005 73.8864 143.0005 73.6104L143.0005 60.8334C143.0005 60.5564 143.2245 60.3334 143.5005 60.3334 143.7765 60.3334 144.0005 60.5564 144.0005 60.8334L144.0005 73.6104C144.0005 73.8864 143.7765 74.1104 143.5005 74.1104M143.5005 48.5547C143.2245 48.5547 143.0005 48.3307 143.0005 48.0547L143.0005 35.2777C143.0005 35.0007 143.2245 34.7777 143.5005 34.7777 143.7765 34.7777 144.0005 35.0007 144.0005 35.2777L144.0005 48.0547C144.0005 48.3307 143.7765 48.5547 143.5005 48.5547" class="sapIllus_BackgroundColor"/>
</svg>