<svg width="320" height="240" viewBox="0 0 320 240" id="tnt-Scene-UnsuccessfulAuth">
  <path fill="var(--sapIllus_BackgroundColor)" d="M84.27,59.8838 C52.493,85.7688 43.246,137.0458 67.729,171.3448 C80.841,189.7128 101.643,201.1688 123.184,207.0308 C144.938,212.9508 171.502,216.6128 193.987,214.0238 C231.411,209.7138 261.814,183.5138 269.793,145.5108 C279.967,97.0588 248.197,50.8328 203.414,36.2588 C163.769,23.3578 117.721,32.8778 85.256,59.0808 C84.928,59.3488 84.599,59.6158 84.27,59.8838" class="sapIllus_BackgroundColor"/>
  <path fill="var(--sapIllus_PatternShadow)" d="M248.8471,69.2734 L248.7661,69.2704 L247.0041,69.2054 L242.7381,182.8794 C242.6241,185.9084 240.0771,188.2714 237.0491,188.1574 L84.9681,182.4494 L84.8331,186.1124 C84.7191,189.1504 87.0881,191.7064 90.1241,191.8204 L244.0311,197.5964 C247.0681,197.7104 249.6221,195.3404 249.7371,192.3034 L254.1401,74.9794 C254.2541,71.9424 251.8841,69.3874 248.8471,69.2734" class="sapIllus_PatternShadow"/>
  <path fill="var(--sapIllus_ObjectFillColor)" d="M274.1421,175.4141 L227.6781,173.2611 C227.2111,173.2391 226.8511,172.8431 226.8721,172.3771 L228.0231,147.5571 C228.0441,147.0901 228.4401,146.7281 228.9071,146.7501 L275.3711,148.9031 C275.8371,148.9261 276.1981,149.3211 276.1761,149.7881 L275.0261,174.6081 C275.0041,175.0751 274.6091,175.4351 274.1421,175.4141" class="sapIllus_ObjectFillColor"/>
  <path fill="var(--sapIllus_Layering1)" d="M274.5268,174.585 C274.5168,174.775 274.3588,174.938 274.1648,174.914 L227.7018,172.761 C227.6088,172.757 227.5238,172.717 227.4618,172.648 C227.3998,172.58 227.3678,172.492 227.3728,172.399 L228.5218,147.579 C228.5308,147.39 228.6988,147.229 228.8838,147.25 L275.3468,149.403 C275.4398,149.407 275.5248,149.447 275.5868,149.516 C275.6488,149.584 275.6808,149.672 275.6758,149.765 L274.5268,174.585 Z M276.3258,148.842 C276.0838,148.576 275.7528,148.421 275.3928,148.404 L228.9298,146.251 C228.1728,146.209 227.5578,146.792 227.5228,147.533 L226.3738,172.354 C226.3558,172.712 226.4798,173.057 226.7218,173.322 C226.9638,173.588 227.2968,173.743 227.6558,173.76 L274.1188,175.913 C274.1398,175.914 274.1608,175.915 274.1808,175.915 C274.8948,175.915 275.4918,175.352 275.5258,174.631 L276.6748,149.812 C276.6918,149.452 276.5678,149.107 276.3258,148.842 L276.3258,148.842 Z" class="sapIllus_Layering1"/>
  <path fill="var(--sapIllus_AccentColor)" d="M268.2661,155.2588 C266.5571,153.3838 264.2201,152.2858 261.6851,152.1688 C259.1551,152.0558 256.7221,152.9278 254.8461,154.6378 C252.9711,156.3468 251.8731,158.6838 251.7551,161.2188 C251.6381,163.7538 252.5151,166.1828 254.2241,168.0578 C255.9341,169.9328 258.2711,171.0298 260.8061,171.1488 C260.9561,171.1548 261.1061,171.1578 261.2561,171.1578 C263.6261,171.1578 265.8801,170.2868 267.6451,168.6798 C269.5201,166.9698 270.6181,164.6328 270.7351,162.0978 C270.8521,159.5638 269.9761,157.1348 268.2661,155.2588" class="sapIllus_AccentColor"/>
  <path fill="var(--sapIllus_ObjectFillColor)" d="M263.7426 159.7744C263.6786 161.1534 262.5096 162.2194 261.1296 162.1564 259.7506 162.0914 258.6836 160.9214 258.7486 159.5434 258.8116 158.1644 259.9816 157.0974 261.3606 157.1614 262.7406 157.2254 263.8056 158.3954 263.7426 159.7744M261.5932 162.4971L261.2252 162.4791C258.7212 162.3641 256.5682 164.1201 256.1122 166.5131 256.0472 166.8501 256.1512 167.2061 256.4102 167.4301 257.6762 168.5171 259.2972 169.2101 261.0932 169.2931 262.8902 169.3761 264.5682 168.8361 265.9292 167.8701 266.2082 167.6721 266.3442 167.3261 266.3112 166.9851 266.0772 164.5601 264.0972 162.6131 261.5932 162.4971M237.0581 188.1563L83.0621 182.3763C80.0211 182.2613 77.6481 179.7043 77.7621 176.6623L82.1691 59.2433C82.2811 56.2623 84.7871 53.9373 87.7681 54.0493L242.0121 59.8393C244.9641 59.9493 247.2681 62.4323 247.1581 65.3853L242.7471 182.8793C242.6331 185.9073 240.0861 188.2693 237.0581 188.1563" class="sapIllus_ObjectFillColor"/>
  <path fill="var(--sapIllus_BrandColorSecondary)" d="M246.4633,83.8701 L81.4773,77.6781 L82.1653,59.3351 C82.2793,56.3041 84.8283,53.9381 87.8593,54.0531 L241.8693,59.8331 C244.9013,59.9471 247.2663,62.4961 247.1513,65.5271 L246.4633,83.8701 Z" class="sapIllus_BrandColorSecondary"/>
  <path fill="var(--sapIllus_ObjectFillColor)" d="M99.3999 66.418C99.3269 68.387 97.6709 69.924 95.7009 69.85 93.7319 69.775 92.1959 68.119 92.2699 66.15 92.3429 64.182 93.9999 62.646 95.9689 62.719 97.9379 62.793 99.4739 64.449 99.3999 66.418M110.3647 66.8301C110.2917 68.7991 108.6357 70.3351 106.6657 70.2611 104.6967 70.1871 103.1607 68.5311 103.2347 66.5611 103.3077 64.5931 104.9647 63.0571 106.9327 63.1311 108.9027 63.2041 110.4387 64.8601 110.3647 66.8301M121.3296 67.2412C121.2556 69.2102 119.6006 70.7462 117.6306 70.6732 115.6616 70.5982 114.1256 68.9422 114.1986 66.9732 114.2726 65.0052 115.9296 63.4682 117.8976 63.5422 119.8676 63.6162 121.4036 65.2722 121.3296 67.2412" class="sapIllus_ObjectFillColor"/>
  <path fill="var(--sapIllus_BackgroundColor)" d="M117.6399,126.8798 C118.0259,116.6208 126.6539,108.6168 136.9119,109.0028 C145.6679,109.3318 152.7599,115.6718 154.4179,123.8988 L154.4179,123.8988 L202.6949,125.7098 L202.6949,125.7268 C202.7509,125.7268 202.8029,125.7148 202.8589,125.7168 C205.1709,125.8028 206.9739,127.7468 206.8869,130.0588 C206.7999,132.3698 204.8559,134.1738 202.5459,134.0868 C202.4889,134.0838 202.4369,134.0688 202.3809,134.0648 L202.3809,134.0648 L202.3809,134.0738 L201.0339,134.0238 L200.6849,143.3188 C200.6709,143.7098 200.3399,144.0158 199.9489,144.0008 L199.9489,144.0008 L194.7079,143.8048 C194.3159,143.7888 194.0099,143.4598 194.0249,143.0688 L194.0249,143.0688 L194.1149,140.6698 C194.1299,140.2778 193.8239,139.9468 193.4319,139.9338 L193.4319,139.9338 L188.1139,139.7338 C187.7189,139.7188 187.3879,140.0298 187.3779,140.4248 L187.3779,140.4248 L187.2949,142.8068 C187.2849,143.2018 186.9539,143.5138 186.5579,143.4978 L186.5579,143.4978 L181.1869,143.2968 C180.7949,143.2818 180.4889,142.9518 180.5039,142.5608 L180.5039,142.5608 L180.8519,133.2658 L154.1929,132.2658 C152.0459,140.5268 144.3989,146.4848 135.5179,146.1518 C125.2589,145.7668 117.2549,137.1388 117.6399,126.8798 Z M127.5424,127.1123 C127.3594,131.9813 131.1584,136.0773 136.0284,136.2593 C140.8974,136.4423 144.9934,132.6433 145.1764,127.7733 C145.3584,122.9043 141.5604,118.8083 136.6894,118.6263 C131.8204,118.4433 127.7254,122.2433 127.5424,127.1123 Z" class="sapIllus_BackgroundColor"/>
  <path fill="var(--sapIllus_ObjectFillColor)" d="M170.0258,50.5918 L144.8868,43.9878 C144.5208,43.8918 144.3018,43.5168 144.3988,43.1508 L151.0028,18.0118 C151.0988,17.6458 151.4728,17.4268 151.8388,17.5238 L176.9778,24.1268 C177.3438,24.2238 177.5628,24.5978 177.4668,24.9638 L170.8628,50.1028 C170.7668,50.4688 170.3918,50.6878 170.0258,50.5918" class="sapIllus_ObjectFillColor"/>
  <path fill="var(--sapIllus_Layering1)" d="M170.1528,50.1074 C170.2518,50.1344 170.3538,50.0744 170.3798,49.9754 L176.9838,24.8364 C177.0088,24.7384 176.9498,24.6364 176.8508,24.6104 L151.7128,18.0064 C151.6138,17.9844 151.5118,18.0414 151.4858,18.1384 L144.8818,43.2774 C144.8558,43.3764 144.9158,43.4774 145.0138,43.5034 L170.1528,50.1074 Z M170.2018,51.1144 C170.1008,51.1144 169.9988,51.1004 169.8988,51.0744 L144.7598,44.4704 C144.4538,44.3904 144.1978,44.1954 144.0378,43.9214 C143.8788,43.6484 143.8348,43.3294 143.9158,43.0234 L150.5188,17.8844 C150.6848,17.2534 151.3308,16.8724 151.9658,17.0404 L177.1048,23.6434 C177.7368,23.8094 178.1168,24.4594 177.9508,25.0904 L171.3458,50.2294 C171.2658,50.5364 171.0708,50.7924 170.7978,50.9524 C170.6138,51.0594 170.4098,51.1144 170.2018,51.1144 L170.2018,51.1144 Z" class="sapIllus_Layering1"/>
  <path fill="var(--sapIllus_AccentColor)" d="M169.9809 46.1621L166.7239 36.9021C166.5769 36.4851 166.0539 36.3481 165.7209 36.6401L161.7499 40.1141 158.7709 29.7221C158.6309 29.2341 158.0209 29.0741 157.6599 29.4311L146.8729 40.0581C146.5029 40.4211 146.6699 41.0481 147.1709 41.1801L158.5869 44.1791 159.8429 44.5081 162.1299 45.1091 169.2319 46.9741C169.7169 47.1021 170.1479 46.6351 169.9809 46.1621M172.6626 28.794C172.3116 30.129 170.9456 30.927 169.6096 30.576 168.2746 30.226 167.4766 28.858 167.8276 27.523 168.1786 26.189 169.5456 25.391 170.8806 25.741 172.2156 26.092 173.0136 27.459 172.6626 28.794" class="sapIllus_AccentColor"/>
  <path fill="var(--sapIllus_BrandColorSecondary)" d="M184.7153 205.0645L171.4053 211.6035C170.7523 211.9235 170.6923 212.8325 171.2963 213.2375L183.6133 221.4945C184.2183 221.8995 185.0343 221.4995 185.0833 220.7725L186.0753 205.9765C186.1243 205.2515 185.3683 204.7445 184.7153 205.0645M134.3471 37.8975C133.3861 39.8855 130.9951 40.7195 129.0061 39.7595 127.0181 38.7995 126.1841 36.4095 127.1441 34.4195 128.1041 32.4305 130.4941 31.5965 132.4841 32.5575 134.4731 33.5175 135.3071 35.9085 134.3471 37.8975" class="sapIllus_BrandColorSecondary"/>
  <path fill="var(--sapIllus_StrokeDetailColor)" d="M242.2065,182.8438 C242.1025,185.5998 239.7775,187.7688 237.0195,187.6558 L83.1125,181.8788 C80.3565,181.7758 78.1985,179.4478 78.3035,176.6898 L81.9385,77.9668 L245.9085,84.2158 L242.2065,182.8438 Z M84.2205,55.8848 C85.1495,55.0218 86.3455,54.5518 87.6775,54.5518 C87.7485,54.5518 87.8195,54.5528 87.8925,54.5558 L241.7985,60.3328 C243.1335,60.3828 244.3695,60.9488 245.2785,61.9298 C246.1875,62.9088 246.6605,64.1848 246.6095,65.5208 L245.9455,83.2158 L81.9755,76.9668 L82.6235,59.3658 C82.6735,58.0308 83.2405,56.7938 84.2205,55.8848 L84.2205,55.8848 Z M246.9285,83.7088 L247.6095,65.5578 C247.6695,63.9548 247.1025,62.4248 246.0115,61.2488 C244.9215,60.0728 243.4375,59.3938 241.7545,59.3298 L87.8465,53.5528 C86.2285,53.4938 84.7145,54.0608 83.5395,55.1518 C82.3645,56.2418 81.6845,57.7258 81.6235,59.3288 L77.3035,176.6528 C77.1795,179.9608 79.7685,182.7538 83.0755,182.8788 L236.9815,188.6558 C237.0585,188.6588 237.1345,188.6588 237.2105,188.6588 C240.4175,188.6588 243.0845,186.1128 243.2065,182.8808 L246.9255,83.8008 C246.9275,83.7838 246.9355,83.7718 246.9355,83.7548 C246.9365,83.7398 246.9295,83.7248 246.9285,83.7088 L246.9285,83.7088 Z" class="sapIllus_StrokeDetailColor"/>
  <path fill="var(--sapIllus_Layering1)" d="M250.2807,45.1885 C238.0767,45.1885 228.1477,55.1175 228.1477,67.3215 C228.1477,79.5255 238.0767,89.4545 250.2807,89.4545 C262.4837,89.4545 272.4127,79.5255 272.4127,67.3215 C272.4127,55.1175 262.4837,45.1885 250.2807,45.1885" class="sapIllus_Layering1"/>
  <path fill="var(--sapIllus_ObjectFillColor)" d="M253.5874,67.3213 L261.6214,59.2843 C262.0634,58.8423 262.3074,58.2553 262.3074,57.6303 C262.3074,57.0053 262.0634,56.4173 261.6214,55.9753 C260.7394,55.0913 259.1954,55.0903 258.3144,55.9753 L250.2794,64.0123 L242.2464,55.9753 C241.3674,55.0913 239.8224,55.0903 238.9404,55.9743 C238.4974,56.4173 238.2544,57.0053 238.2544,57.6303 C238.2544,58.2553 238.4974,58.8423 238.9404,59.2833 L246.9744,67.3213 L238.9404,75.3583 C238.0274,76.2703 238.0274,77.7553 238.9404,78.6693 C239.8254,79.5513 241.3644,79.5503 242.2464,78.6683 L250.2794,70.6313 L258.3144,78.6693 C258.7564,79.1093 259.3424,79.3523 259.9674,79.3523 C260.5934,79.3523 261.1794,79.1093 261.6214,78.6683 C262.5334,77.7553 262.5334,76.2703 261.6214,75.3593 L253.5874,67.3213 Z" class="sapIllus_ObjectFillColor"/>
  <path fill="var(--sapIllus_ObjectFillColor)" d="M272.4126 67.3213C272.4126 79.5253 262.4836 89.4543 250.2806 89.4543 238.0766 89.4543 228.1476 79.5253 228.1476 67.3213 228.1476 55.1173 238.0766 45.1883 250.2806 45.1883 262.4836 45.1883 272.4126 55.1173 272.4126 67.3213M250.2816 40.6753C235.5886 40.6753 223.6346 52.6293 223.6346 67.3213 223.6346 82.0143 235.5886 93.9683 250.2816 93.9683 264.9746 93.9683 276.9276 82.0143 276.9276 67.3213 276.9276 52.6293 264.9746 40.6753 250.2816 40.6753M75.8774 79.1963L93.4974 123.3493C93.7314 123.9333 93.4454 124.5963 92.8614 124.8303L51.6834 141.2633C51.0994 141.4973 50.4364 141.2123 50.2024 140.6283L32.5824 96.4743C32.3494 95.8893 32.6334 95.2263 33.2184 94.9933L74.3964 78.5603C74.9814 78.3273 75.6444 78.6113 75.8774 79.1963" class="sapIllus_ObjectFillColor"/>
  <path fill="var(--sapIllus_Layering1)" d="M74.8188,78.9785 C74.7388,78.9785 74.6588,78.9945 74.5818,79.0245 L33.4038,95.4575 C33.2448,95.5215 33.1208,95.6425 33.0528,95.7985 C32.9858,95.9565 32.9828,96.1295 33.0468,96.2885 L50.6678,140.4415 C50.7308,140.6005 50.8518,140.7255 51.0078,140.7925 C51.1658,140.8595 51.3398,140.8625 51.4978,140.7985 L92.6758,124.3665 C93.0038,124.2355 93.1638,123.8625 93.0338,123.5345 L75.4128,79.3815 C75.3488,79.2225 75.2278,79.0985 75.0708,79.0315 C74.9898,78.9965 74.9048,78.9785 74.8188,78.9785 M51.2598,141.8455 C51.0408,141.8455 50.8218,141.8005 50.6138,141.7115 C50.2118,141.5385 49.8998,141.2185 49.7388,140.8125 L32.1178,96.6595 C31.9558,96.2525 31.9618,95.8065 32.1338,95.4045 C32.3068,95.0015 32.6258,94.6915 33.0328,94.5295 L74.2108,78.0955 C74.6168,77.9335 75.0628,77.9395 75.4648,78.1125 C75.8678,78.2855 76.1788,78.6035 76.3408,79.0105 L93.9628,123.1645 C94.2968,124.0035 93.8858,124.9595 93.0478,125.2945 L51.8688,141.7275 C51.6728,141.8065 51.4658,141.8455 51.2598,141.8455" class="sapIllus_Layering1"/>
  <path fill="var(--sapIllus_BrandColorSecondary)" d="M53.729,115.0733 L58.943,128.1393 C59.077,128.4733 58.914,128.8523 58.58,128.9863 L55.618,130.1683 C55.284,130.3023 54.905,130.1383 54.772,129.8043 L49.557,116.7373 C49.424,116.4033 49.586,116.0243 49.92,115.8913 L52.882,114.7103 C53.216,114.5763 53.595,114.7393 53.729,115.0733" class="sapIllus_BrandColorSecondary"/>
  <path fill="var(--sapIllus_AccentColor)" d="M72.7622,95.5781 L81.9962,118.7181 C82.1712,119.1581 81.9572,119.6561 81.5182,119.8321 L78.9392,120.8611 C78.4992,121.0371 78.0002,120.8221 77.8242,120.3831 L68.5902,97.2431 C68.4152,96.8041 68.6292,96.3051 69.0692,96.1301 L71.6482,95.1001 C72.0872,94.9251 72.5862,95.1391 72.7622,95.5781" class="sapIllus_AccentColor"/>
  <path fill="var(--sapIllus_Layering1)" d="M85.52,118.2344 C85.417,117.9784 85.125,117.8534 84.87,117.9564 L70.374,123.7404 C70.371,123.6604 70.362,123.5784 70.33,123.4984 L63.481,106.3374 C63.33,105.9564 62.898,105.7714 62.517,105.9224 L59.724,107.0374 C59.343,107.1894 59.159,107.6214 59.31,108.0024 L66.159,125.1624 C66.19,125.2424 66.241,125.3074 66.293,125.3694 L51.997,131.0744 C51.741,131.1764 51.616,131.4674 51.718,131.7244 C51.796,131.9204 51.984,132.0394 52.182,132.0394 C52.245,132.0394 52.307,132.0274 52.368,132.0034 L85.241,118.8844 C85.498,118.7824 85.623,118.4914 85.52,118.2344" class="sapIllus_Layering1"/>
</svg>
