<svg width="160" height="160" viewBox="0 0 160 160" id="tnt-Dialog-NoFlows">
  <path fill="var(--sapIllus_ObjectFillColor)" d="M120.7804,123.5002 L36.2194,123.5002 C34.7174,123.5002 33.5004,122.2822 33.5004,120.7802 L33.5004,36.2202 C33.5004,34.7182 34.7174,33.5002 36.2194,33.5002 L120.7804,33.5002 C122.2824,33.5002 123.5004,34.7182 123.5004,36.2202 L123.5004,120.7802 C123.5004,122.2822 122.2824,123.5002 120.7804,123.5002" class="sapIllus_ObjectFillColor"/>
  <path fill="var(--sapIllus_BrandColorSecondary)" d="M124.0001,50.0002 L34.0001,50.0002 L34.0001,36.8842 C34.0001,34.7382 35.7391,33.0002 37.8841,33.0002 L120.1161,33.0002 C122.2611,33.0002 124.0001,34.7382 124.0001,36.8842 L124.0001,50.0002 Z" class="sapIllus_BrandColorSecondary"/>
  <path fill="var(--sapIllus_BrandColorSecondary)" d="M123.0001,50.0002 L33.0001,50.0002 L33.0001,36.9972 C33.0001,34.7892 34.7901,33.0002 36.9971,33.0002 L119.9811,33.0002 C121.6481,33.0002 123.0001,34.3522 123.0001,36.0192 L123.0001,50.0002 Z" class="sapIllus_BrandColorSecondary"/>
  <path fill="var(--sapIllus_StrokeDetailColor)" d="M36.5001,34.0002 C35.1221,34.0002 34.0001,35.1212 34.0001,36.5002 L34.0001,120.5002 C34.0001,121.8782 35.1221,123.0002 36.5001,123.0002 L120.5001,123.0002 C121.8781,123.0002 123.0001,121.8782 123.0001,120.5002 L123.0001,36.5002 C123.0001,35.1212 121.8781,34.0002 120.5001,34.0002 L36.5001,34.0002 Z M120.5001,124.0002 L36.5001,124.0002 C34.5701,124.0002 33.0001,122.4302 33.0001,120.5002 L33.0001,36.5002 C33.0001,34.5702 34.5701,33.0002 36.5001,33.0002 L120.5001,33.0002 C122.4301,33.0002 124.0001,34.5702 124.0001,36.5002 L124.0001,120.5002 C124.0001,122.4302 122.4301,124.0002 120.5001,124.0002 L120.5001,124.0002 Z" class="sapIllus_StrokeDetailColor"/>
  <path fill="var(--sapIllus_StrokeDetailColor)" d="M34.0001,50.0002 L34.0001,36.5002 C34.0001,35.1212 35.1221,34.0002 36.5001,34.0002 L120.5001,34.0002 C121.8781,34.0002 123.0001,35.1212 123.0001,36.5002 L123.0001,50.0002 L34.0001,50.0002 Z M120.5001,123.0002 L36.5001,123.0002 C35.1221,123.0002 34.0001,121.8782 34.0001,120.5002 L34.0001,50.0022 L123.0001,53.6032 L123.0001,120.5002 C123.0001,121.8782 121.8781,123.0002 120.5001,123.0002 L120.5001,123.0002 Z M120.5001,33.0002 L36.5001,33.0002 C34.5701,33.0002 33.0001,34.5702 33.0001,36.5002 L33.0001,120.5002 C33.0001,122.4302 34.5701,124.0002 36.5001,124.0002 L120.5001,124.0002 C122.4301,124.0002 124.0001,122.4302 124.0001,120.5002 L124.0001,36.5002 C124.0001,34.5702 122.4301,33.0002 120.5001,33.0002 L120.5001,33.0002 Z" class="sapIllus_StrokeDetailColor"/>
  <path fill="var(--sapIllus_BackgroundColor)" d="M129.0001,146.5002 C129.0001,148.9852 106.3911,151.0002 78.5001,151.0002 C50.6091,151.0002 28.0001,148.9852 28.0001,146.5002 C28.0001,144.0152 50.6091,142.0002 78.5001,142.0002 C106.3911,142.0002 129.0001,144.0152 129.0001,146.5002" class="sapIllus_BackgroundColor"/>
  <path fill="var(--sapIllus_Layering1)" d="M143.3732 34.256C143.3642 34.256 143.3552 34.256 143.3472 34.255L132.8522 33.986C132.4352 33.976 132.0672 33.706 131.9332 33.31 131.7972 32.914 131.9232 32.476 132.2472 32.211L141.1002 25 133.0002 25C132.4472 25 132.0002 24.552 132.0002 24 132.0002 23.447 132.4472 23 133.0002 23L143.9102 23C144.3332 23 144.7112 23.266 144.8522 23.665 144.9942 24.064 144.8702 24.508 144.5422 24.776L135.6042 32.056 143.3972 32.256C143.9502 32.271 144.3862 32.73 144.3722 33.281 144.3582 33.824 143.9132 34.256 143.3732 34.256M151.3917 15.508L151.3667 15.508 145.1207 15.348C144.7027 15.337 144.3347 15.068 144.2007 14.671 144.0647 14.276 144.1907 13.837 144.5147 13.572L148.9007 10 144.9997 10C144.4477 10 143.9997 9.552 143.9997 9 143.9997 8.447 144.4477 8 144.9997 8L151.7117 8C152.1347 8 152.5117 8.266 152.6547 8.665 152.7957 9.064 152.6707 9.508 152.3427 9.776L147.8717 13.417 151.4167 13.509C151.9687 13.523 152.4057 13.982 152.3907 14.534 152.3767 15.077 151.9327 15.508 151.3917 15.508" class="sapIllus_Layering1"/>
  <path fill="var(--sapIllus_BackgroundColor)" d="M86.4445,75.9094 L75.1225,75.9094 L75.1225,69.5284 C75.1225,69.0044 74.6965,68.5794 74.1725,68.5794 L49.9695,68.5794 C49.4445,68.5794 49.0195,69.0044 49.0195,69.5284 L49.0195,83.2904 C49.0195,83.8144 49.4445,84.2404 49.9695,84.2404 L61.5705,84.2404 L61.5705,93.9774 L49.9695,93.9774 C49.4445,93.9774 49.0195,94.4034 49.0195,94.9284 L49.0195,108.6894 C49.0195,109.2144 49.4445,109.6394 49.9695,109.6394 L74.1725,109.6394 C74.6965,109.6394 75.1225,109.2144 75.1225,108.6894 L75.1225,94.9284 C75.1225,94.4034 74.6965,93.9774 74.1725,93.9774 L62.5705,93.9774 L62.5705,84.2404 L74.1725,84.2404 C74.6965,84.2404 75.1225,83.8144 75.1225,83.2904 L75.1225,76.9094 L86.4445,76.9094 L86.4445,75.9094 Z" class="sapIllus_BackgroundColor"/>
  <path fill="var(--sapIllus_AccentColor)" d="M98.339,65.0168 C97.749,65.0168 97.159,65.2418 96.711,65.6898 L87.618,74.7828 C87.184,75.2168 86.944,75.7948 86.944,76.4108 C86.944,77.0248 87.184,77.6028 87.618,78.0378 L96.711,87.1298 C97.607,88.0258 99.068,88.0278 99.966,87.1298 L109.059,78.0378 C109.956,77.1398 109.956,75.6798 109.059,74.7828 L99.966,65.6898 C99.518,65.2418 98.928,65.0168 98.339,65.0168 M98.339,88.8038 C97.456,88.8038 96.627,88.4598 96.004,87.8368 L86.911,78.7448 C86.288,78.1208 85.944,77.2918 85.944,76.4108 C85.944,75.5278 86.288,74.6988 86.911,74.0758 L96.004,64.9828 C97.25,63.7378 99.426,63.7358 100.673,64.9828 L109.766,74.0758 C110.389,74.6988 110.733,75.5278 110.733,76.4108 C110.733,77.2918 110.389,78.1208 109.766,78.7448 L100.673,87.8368 C100.05,88.4598 99.221,88.8038 98.339,88.8038" class="sapIllus_AccentColor"/>
  <path fill="var(--sapIllus_PatternShadow)" d="M125.1388,40.0002 L125.0858,40.0002 L123.9998,40.0002 L123.9998,120.5002 C123.9998,122.4302 122.4298,124.0002 120.4998,124.0002 L39.0568,124.0002 L39.0578,126.1422 C39.0578,128.2722 40.7848,130.0002 42.9138,130.0002 L125.1388,130.0002 C127.2718,130.0002 128.9998,128.2712 128.9998,126.1392 L128.9998,43.8602 C128.9998,41.7292 127.2718,40.0002 125.1388,40.0002" class="sapIllus_PatternShadow"/>
</svg>
