<svg width="160" height="160" viewBox="0 0 160 160" id="tnt-Dialog-Fingerprint">
  <path fill="var(--sapIllus_BackgroundColor)" d="M99.9985,15.9955 C119.1475,19.7315 127.8485,46.9925 129.6395,56.7185 C131.4485,66.5425 132.1575,92.5905 127.5355,107.5055 C120.0155,131.7755 96.6565,150.3325 65.7025,145.0575 C33.3705,138.8855 21.5225,109.5935 28.9365,71.5925 C36.3515,33.5925 67.8985,9.7325 99.9985,15.9955" class="sapIllus_BackgroundColor"/>
  <path fill="var(--sapIllus_BrandColorSecondary)" d="M143.3638,94.4173 L16.0078,94.4173 C15.4508,94.4173 14.9998,93.9663 14.9998,93.4093 L14.9998,77.1333 C14.9998,76.5763 15.4508,76.1253 16.0078,76.1253 L143.3638,76.1253 C143.9208,76.1253 144.3718,76.5763 144.3718,77.1333 L144.3718,93.4093 C144.3718,93.9663 143.9208,94.4173 143.3638,94.4173" class="sapIllus_BrandColorSecondary"/>
  <path fill="var(--sapIllus_StrokeDetailColor)" d="M64.9155 129.7884C64.8105 129.7884 64.7035 129.7554 64.6125 129.6854 64.3935 129.5184 64.3515 129.2054 64.5185 128.9854 74.2395 116.2244 79.3785 100.9754 79.3785 84.8894 79.3785 84.6124 79.6025 84.3894 79.8785 84.3894 80.1545 84.3894 80.3785 84.6124 80.3785 84.8894 80.3785 101.1954 75.1685 116.6534 65.3135 129.5914 65.2155 129.7214 65.0665 129.7884 64.9155 129.7884M71.0493 131.3822C70.9483 131.3822 70.8453 131.3522 70.7573 131.2872 70.5333 131.1262 70.4833 130.8142 70.6443 130.5902 76.2933 122.7562 80.3923 114.0662 82.8293 104.7602 82.8993 104.4932 83.1683 104.3282 83.4403 104.4032 83.7063 104.4732 83.8663 104.7462 83.7963 105.0142 81.3283 114.4392 77.1763 123.2402 71.4553 131.1742 71.3573 131.3102 71.2043 131.3822 71.0493 131.3822" class="sapIllus_StrokeDetailColor"/>
  <path fill="var(--sapIllus_StrokeDetailColor)" d="M84.1753 101.7445C84.1403 101.7445 84.1063 101.7405 84.0713 101.7335 83.8013 101.6775 83.6283 101.4115 83.6853 101.1405 84.8073 95.8295 85.3753 90.3615 85.3753 84.8895 85.3753 81.8585 82.9093 79.3925 79.8793 79.3925 76.8823 79.3925 74.4373 81.8045 74.3833 84.7875 74.3903 84.8205 74.3943 84.8535 74.3943 84.8895 74.3943 85.2865 74.3903 85.6825 74.3833 86.0795 74.3793 86.3555 74.1393 86.5755 73.8753 86.5705 73.5993 86.5655 73.3793 86.3385 73.3833 86.0615 73.3903 85.7065 73.3933 85.3505 73.3943 84.9945 73.3863 84.9605 73.3823 84.9255 73.3823 84.8895 73.3823 81.3075 76.2973 78.3925 79.8793 78.3925 83.4613 78.3925 86.3753 81.3075 86.3753 84.8895 86.3753 90.4315 85.7993 95.9685 84.6633 101.3485 84.6133 101.5835 84.4053 101.7445 84.1753 101.7445M59.1362 127.4095C59.0272 127.4095 58.9162 127.3735 58.8242 127.2995 58.6082 127.1265 58.5742 126.8115 58.7462 126.5975 67.1902 116.0735 72.1882 103.4125 73.2022 89.9805 73.2222 89.7065 73.4682 89.4895 73.7392 89.5195 74.0142 89.5415 74.2202 89.7815 74.1992 90.0565 73.1702 103.6895 68.0962 116.5415 59.5272 127.2225 59.4282 127.3455 59.2822 127.4095 59.1362 127.4095" class="sapIllus_StrokeDetailColor"/>
  <path fill="var(--sapIllus_StrokeDetailColor)" d="M78.2822 132.2757C78.1862 132.2757 78.0892 132.2487 78.0032 132.1907 77.7742 132.0367 77.7142 131.7257 77.8672 131.4967 87.1482 117.7017 92.0532 101.5847 92.0532 84.8887 92.0532 84.8557 92.0562 84.8237 92.0632 84.7927 92.0102 78.1187 86.5652 72.7057 79.8792 72.7057 73.1602 72.7057 67.6952 78.1717 67.6952 84.8887 67.6952 84.9227 67.6912 84.9567 67.6852 84.9887 67.6692 94.8127 65.2832 104.5777 60.7832 113.2347 60.6552 113.4807 60.3542 113.5767 60.1092 113.4477 59.8642 113.3207 59.7692 113.0187 59.8962 112.7737 64.3372 104.2287 66.6852 94.5877 66.6852 84.8887 66.6852 84.8547 66.6882 84.8207 66.6952 84.7887 66.7492 77.5647 72.6432 71.7057 79.8792 71.7057 87.1492 71.7057 93.0632 77.6197 93.0632 84.8887 93.0632 84.9227 93.0602 84.9567 93.0532 84.9887 93.0332 101.8477 88.0712 118.1217 78.6982 132.0547 78.6012 132.1987 78.4432 132.2757 78.2822 132.2757M53.4312 123.9945C53.3202 123.9945 53.2082 123.9575 53.1152 123.8815 52.9012 123.7065 52.8692 123.3915 53.0442 123.1785 54.8292 120.9945 56.4752 118.6655 57.9382 116.2555 58.0802 116.0195 58.3892 115.9455 58.6252 116.0875 58.8612 116.2305 58.9362 116.5385 58.7932 116.7745 57.3062 119.2235 55.6332 121.5915 53.8192 123.8105 53.7202 123.9325 53.5762 123.9945 53.4312 123.9945M86.3003 131.7836C86.2113 131.7836 86.1213 131.7606 86.0403 131.7116 85.8053 131.5676 85.7303 131.2606 85.8723 131.0236 87.7243 127.9756 89.4053 124.7886 90.8713 121.5526 90.9853 121.3006 91.2833 121.1886 91.5323 121.3036 91.7843 121.4166 91.8963 121.7136 91.7813 121.9646 90.3003 125.2376 88.6003 128.4606 86.7283 131.5436 86.6333 131.6976 86.4683 131.7836 86.3003 131.7836M92.9448046 118.4496C92.8828 118.4496 92.8208 118.4376 92.7598 118.4146 92.5038 118.3116 92.3788 118.0206 92.4798 117.7646 96.6398 107.3066 98.7498 96.2456 98.7498 84.8886 98.7508 80.3196 97.0958 75.9116 94.0918 72.4736 93.9098 72.2656 93.9308 71.9506 94.1388 71.7686 94.3458 71.5876 94.6628 71.6066 94.8438 71.8156 98.0078 75.4346 99.7508 80.0776 99.7508 84.8886 99.7498 96.3736 97.6158 107.5586 93.4098 118.1346 93.3318 118.3306 93.1428 118.4496 92.9448046 118.4496" class="sapIllus_StrokeDetailColor"/>
  <path fill="var(--sapIllus_StrokeDetailColor)" d="M59.0137 98.2142C58.9747 98.2142 58.9357 98.2102 58.8967 98.2002 58.6287 98.1362 58.4627 97.8662 58.5267 97.5982 59.5087 93.4932 60.0107 89.2552 60.0187 84.9962 60.0117 84.9612 60.0067 84.9262 60.0067 84.8892 60.0067 73.9322 68.9217 65.0182 79.8787 65.0182 83.7447 65.0182 87.4927 66.1292 90.7187 68.2312 90.9487 68.3812 91.0137 68.6922 90.8637 68.9232 90.7137 69.1532 90.4047 69.2192 90.1717 69.0682 87.1087 67.0722 83.5507 66.0182 79.8787 66.0182 69.5087 66.0182 61.0647 74.4262 61.0077 84.7822 61.0147 84.8172 61.0187 84.8532 61.0187 84.8892 61.0187 89.2622 60.5077 93.6162 59.4997 97.8302 59.4447 98.0602 59.2397 98.2142 59.0137 98.2142M48.2891 119.9369C48.1791 119.9369 48.0671 119.9009 47.9751 119.8259 47.7601 119.6519 47.7271 119.3359 47.9011 119.1229 51.9451 114.1329 55.0441 108.5359 57.1111 102.4839 57.2001 102.2229 57.4841 102.0859 57.7461 102.1719 58.0071 102.2619 58.1461 102.5459 58.0571 102.8069 55.9521 108.9699 52.7961 114.6709 48.6781 119.7509 48.5791 119.8739 48.4351 119.9369 48.2891 119.9369M94.9224 129.8041C94.8434 129.8041 94.7624 129.7851 94.6884 129.7451 94.4434 129.6171 94.3514 129.3141 94.4814 129.0701 99.1564 120.2591 102.3834 110.8101 104.0704 100.9851 104.1174 100.7121 104.3724 100.5281 104.6494 100.5761 104.9204 100.6231 105.1034 100.8821 105.0574 101.1551 103.3514 111.0841 100.0894 120.6341 95.3634 129.5381 95.2744 129.7071 95.1014 129.8041 94.9224 129.8041" class="sapIllus_StrokeDetailColor"/>
  <path fill="var(--sapIllus_StrokeDetailColor)" d="M105.2065 97.2357C105.1855 97.2357 105.1645 97.2347 105.1445 97.2317 104.8695 97.1977 104.6755 96.9477 104.7095 96.6737 105.1925 92.7927 105.4375 88.8277 105.4375 84.8887 105.4375 70.7967 93.9725 59.3307 79.8785 59.3307 79.0005 59.3307 78.1165 59.3757 77.2505 59.4637 76.9805 59.4927 76.7305 59.2917 76.7025 59.0167 76.6745 58.7427 76.8745 58.4967 77.1495 58.4687 78.0485 58.3777 78.9675 58.3307 79.8785 58.3307 94.5235 58.3307 106.4375 70.2447 106.4375 84.8887 106.4375 88.8687 106.1895 92.8757 105.7015 96.7977 105.6705 97.0497 105.4545 97.2357 105.2065 97.2357M53.8193 85.389C53.5433 85.389 53.3193 85.165 53.3193 84.889 53.3193 73.19 60.8193 62.996 71.9813 59.524 72.2463 59.441 72.5243 59.59 72.6073 59.853 72.6893 60.117 72.5413 60.397 72.2773 60.479 61.5363 63.82 54.3193 73.63 54.3193 84.889 54.3193 85.165 54.0953 85.389 53.8193 85.389M43.7485 115.0707C43.6425 115.0707 43.5355 115.0367 43.4445 114.9667 43.2255 114.7997 43.1845 114.4847 43.3525 114.2657 48.6275 107.3997 51.9565 99.2377 52.9775 90.6627 53.0105 90.3877 53.2575 90.1867 53.5335 90.2257 53.8085 90.2587 54.0035 90.5077 53.9715 90.7817 52.9275 99.5347 49.5295 107.8667 44.1455 114.8757 44.0465 115.0037 43.8985 115.0707 43.7485 115.0707M104.3208 125.4076C104.2538 125.4076 104.1858 125.3936 104.1208 125.3656 103.8678 125.2556 103.7528 124.9616 103.8628 124.7076 109.3448 112.1266 112.1248 98.7296 112.1248 84.8886 112.1258 82.3506 111.8298 79.8246 111.2468 77.3796 111.1818 77.1106 111.3478 76.8416 111.6168 76.7766 111.8868 76.7076 112.1548 76.8796 112.2188 77.1466 112.8208 79.6676 113.1258 82.2716 113.1258 84.8886 113.1248 98.8686 110.3168 112.3996 104.7788 125.1076 104.6968 125.2956 104.5128 125.4076 104.3208 125.4076" class="sapIllus_StrokeDetailColor"/>
  <path fill="var(--sapIllus_StrokeDetailColor)" d="M49.0596 74.2933C49.0036 74.2933 48.9466 74.2833 48.8906 74.2643 48.6306 74.1703 48.4956 73.8843 48.5896 73.6243 53.3236 60.4763 65.8976 51.6433 79.8786 51.6433 93.4796 51.6433 105.5756 59.7843 110.6936 72.3853 110.7986 72.6413 110.6756 72.9333 110.4196 73.0363 110.1626 73.1403 109.8706 73.0183 109.7676 72.7623 104.8036 60.5403 93.0706 52.6433 79.8786 52.6433 66.3186 52.6433 54.1216 61.2103 49.5296 73.9623 49.4566 74.1663 49.2646 74.2933 49.0596 74.2933M39.7554 109.3744C39.6584 109.3744 39.5604 109.3464 39.4744 109.2874 39.2464 109.1324 39.1874 108.8204 39.3424 108.5934 44.1004 101.6174 46.6224 93.4544 46.6404 84.9804 46.6344 84.9504 46.6314 84.9204 46.6314 84.8894 46.6314 82.1284 46.9704 79.3844 47.6394 76.7334 47.7074 76.4654 47.9794 76.2984 48.2464 76.3714 48.5144 76.4384 48.6764 76.7104 48.6094 76.9784 47.9684 79.5204 47.6394 82.1494 47.6314 84.7974 47.6374 84.8274 47.6404 84.8574 47.6404 84.8894 47.6404 93.5984 45.0574 101.9884 40.1694 109.1554 40.0724 109.2984 39.9154 109.3744 39.7554 109.3744M114.5259 116.9115C114.4769 116.9115 114.4259 116.9045 114.3769 116.8895 114.1139 116.8065 113.9659 116.5255 114.0479 116.2625 115.9739 110.0935 117.3329 103.7045 118.0869 97.2735 118.1189 97.0005 118.3559 96.8105 118.6419 96.8355 118.9159 96.8675 119.1119 97.1165 119.0809 97.3905 118.3189 103.8825 116.9469 110.3325 115.0039 116.5605 114.9359 116.7745 114.7389 116.9115 114.5259 116.9115" class="sapIllus_StrokeDetailColor"/>
  <path fill="var(--sapIllus_StrokeDetailColor)" d="M119.008 93.43C118.996 93.43 118.983 93.43 118.97 93.429 118.695 93.408 118.488 93.168 118.508 92.893 118.708 90.245 118.808 87.553 118.808 84.889 118.808 84.866 118.81 84.842 118.813 84.82 118.782 67.411 107.07 52.017 90.31 47.368 90.044 47.294 89.888 47.019 89.962 46.752 90.036 46.487 90.309 46.327 90.578 46.405 107.791 51.179 119.813 67.004 119.813 84.889 119.813 84.912 119.811 84.936 119.808 84.959 119.806 87.625 119.705 90.32 119.506 92.967 119.486 93.23 119.267 93.43 119.008 93.43L119.008 93.43zM38.6235 96.8099C38.5715 96.8099 38.5195 96.8019 38.4675 96.7849 38.2045 96.6989 38.0615 96.4149 38.1485 96.1539 39.3365 92.5469 39.9415 88.7759 39.9475 84.9429 39.9455 84.9249 39.9445 84.9079 39.9445 84.8889 39.9445 62.8699 57.8585 44.9549 79.8785 44.9549 81.6585 44.9549 83.4515 45.0739 85.2095 45.3069 85.4825 45.3439 85.6755 45.5949 85.6395 45.8699 85.6025 46.1429 85.3445 46.3359 85.0765 46.2989 83.3635 46.0709 81.6145 45.9549 79.8785 45.9549 58.4285 45.9549 40.9745 63.3919 40.9445 84.8349 40.9465 84.8529 40.9475 84.8709 40.9475 84.8889 40.9475 88.8469 40.3255 92.7429 39.0985 96.4659 39.0295 96.6769 38.8335 96.8099 38.6235 96.8099M36.3003 102.2962C36.2223 102.2962 36.1423 102.2772 36.0693 102.2382 35.8243 102.1102 35.7293 101.8092 35.8583 101.5642 36.3603 100.6072 36.8233 99.6142 37.2373 98.6142 37.3423 98.3582 37.6353 98.2362 37.8893 98.3432 38.1453 98.4482 38.2663 98.7402 38.1603 98.9952 37.7363 100.0242 37.2593 101.0442 36.7433 102.0282 36.6543 102.1982 36.4803 102.2962 36.3003 102.2962M125.3726 97.2777C125.3536 97.2777 125.3366 97.2767 125.3186 97.2747 125.0446 97.2457 124.8456 96.9997 124.8746 96.7247 125.2896 92.8247 125.5006 88.8427 125.5006 84.8887 125.5006 75.3627 122.5946 66.2367 117.0976 58.4987 116.9366 58.2727 116.9896 57.9607 117.2146 57.8007 117.4386 57.6407 117.7526 57.6937 117.9116 57.9187 123.5306 65.8277 126.5006 75.1537 126.5006 84.8887 126.5006 88.8787 126.2876 92.8957 125.8686 96.8307 125.8416 97.0877 125.6246 97.2777 125.3726 97.2777" class="sapIllus_StrokeDetailColor"/>
  <path fill="var(--sapIllus_StrokeDetailColor)" d="M112.8813 53.1703C112.7513 53.1703 112.6213 53.1193 112.5243 53.0203 103.8633 44.1503 92.2713 39.2673 79.8793 39.2673 73.2133 39.2673 66.7893 40.6723 60.7853 43.4423 60.5333 43.5593 60.2373 43.4483 60.1213 43.1983 60.0063 42.9473 60.1153 42.6503 60.3663 42.5343 66.5033 39.7023 73.0683 38.2673 79.8793 38.2673 92.5423 38.2673 104.3903 43.2583 113.2383 52.3203 113.4323 52.5193 113.4283 52.8353 113.2313 53.0273 113.1333 53.1233 113.0073 53.1703 112.8813 53.1703M33.3711 90.2416C33.3451 90.2416 33.3181 90.2396 33.2911 90.2346 33.0181 90.1916 32.8331 89.9346 32.8771 89.6626 33.1291 88.0956 33.2571 86.4906 33.2571 84.8886 33.2571 69.1286 41.1331 54.5496 54.3261 45.8876 54.5561 45.7366 54.8671 45.8006 55.0181 46.0316 55.1691 46.2626 55.1051 46.5726 54.8741 46.7236 41.9641 55.1996 34.2571 69.4666 34.2571 84.8886 34.2571 86.5436 34.1241 88.2036 33.8641 89.8206 33.8251 90.0666 33.6121 90.2416 33.3711 90.2416M53.8213 85.5902C53.6393 85.5902 53.4573 85.5192 53.3163 85.3792 53.2593 85.3222 53.2033 85.2392 53.1763 85.1542 53.1343 85.0702 53.1203 84.9862 53.1203 84.8892 53.1203 84.7052 53.1903 84.5232 53.3163 84.3972 53.5833 84.1312 54.0463 84.1312 54.3113 84.3972 54.4523 84.5232 54.5223 84.7052 54.5223 84.8892 54.5223 84.9862 54.5083 85.0702 54.4663 85.1542 54.4373 85.2392 54.3813 85.3222 54.3113 85.3792 54.2553 85.4482 54.1723 85.5052 54.0873 85.5332 54.0033 85.5742 53.9203 85.5902 53.8213 85.5902" class="sapIllus_StrokeDetailColor"/>
  <path fill="var(--sapIllus_ObjectFillColor)" d="M53.5581 90.0267C53.1921 89.9787 52.8261 90.2547 52.7791 90.6387 52.6281 91.9097 52.4091 93.1687 52.1571 94.4187L53.5921 94.4187C53.8261 93.2227 54.0261 92.0197 54.1701 90.8057 54.2171 90.4217 53.9421 90.0717 53.5581 90.0267M112.4155 77.1009C112.3245 76.7249 111.9495 76.4869 111.5705 76.5819 111.1935 76.6729 110.9615 77.0509 111.0515 77.4269 111.6325 79.8609 111.9255 82.3719 111.9235 84.8899 111.9235 88.0919 111.7585 91.2679 111.4615 94.4179L112.8675 94.4179C113.1605 91.2669 113.3265 88.0919 113.3275 84.8899 113.3275 82.2609 113.0195 79.6399 112.4155 77.1009M32.6787 89.6312C32.6177 90.0132 32.8787 90.3732 33.2607 90.4352 33.2977 90.4402 33.3357 90.4432 33.3727 90.4432 33.7107 90.4432 34.0087 90.1972 34.0647 89.8532 34.3257 88.2182 34.4587 86.5482 34.4587 84.8902 34.4587 81.9132 34.7547 78.9832 35.3127 76.1262L33.8777 76.1262C33.3357 78.9852 33.0567 81.9162 33.0567 84.8902 33.0567 86.4752 32.9287 88.0692 32.6787 89.6312M41.145 84.8148C41.151 81.8268 41.508 78.9208 42.157 76.1268L40.718 76.1268C40.087 78.9498 39.743 81.8788 39.743 84.8898 39.743 84.9168 39.744 84.9408 39.747 84.9648 39.74 88.1818 39.283 91.3498 38.437 94.4188L39.893 94.4188C40.713 91.3208 41.149 88.1278 41.149 84.8898 41.149 84.8648 41.148 84.8388 41.145 84.8148M47.833 84.7845C47.841 82.1615 48.168 79.5525 48.804 77.0275 48.9 76.6525 48.671 76.2715 48.296 76.1775 47.918 76.0785 47.539 76.3095 47.445 76.6845 46.772 79.3555 46.431 82.1155 46.431 84.8895 46.431 84.9265 46.434 84.9615 46.439 84.9955 46.431 88.1975 46.06 91.3535 45.348 94.4185L46.787 94.4185C47.482 91.3155 47.841 88.1255 47.841 84.8895 47.841 84.8545 47.838 84.8185 47.833 84.7845M56.0786 76.1244C55.0976 78.8314 54.5366 81.7194 54.5226 84.7344L54.5226 84.9314C54.5226 85.3094 54.5086 85.6874 54.4946 86.0524 54.4806 86.3604 54.1716 86.5854 53.7926 86.5854L53.7656 86.5854C53.3866 86.5854 53.0786 86.3184 53.0916 86.0244 53.1066 85.6594 53.1206 85.2674 53.1206 84.8884L53.1206 84.6914C53.1476 81.7054 53.6526 78.8314 54.5786 76.1244L56.0786 76.1244zM61.209 84.7699C61.229 81.6469 62.027 78.7089 63.407 76.1259L61.849 76.1259C60.554 78.7789 59.807 81.7459 59.807 84.8899 59.807 84.9309 59.811 84.9719 59.817 85.0119 59.811 88.1759 59.529 91.3269 58.982 94.4179L60.399 94.4179C60.94 91.2849 61.22 88.0939 61.22 84.8899 61.22 84.8489 61.216 84.8089 61.209 84.7699M73.7549 89.3197C73.3379 89.2807 73.0319 89.5817 73.0019 89.9657 72.8889 91.4617 72.7189 92.9447 72.5079 94.4187L73.9229 94.4187C74.1249 92.9787 74.2909 91.5317 74.4009 90.0737 74.4299 89.6867 74.1409 89.3497 73.7549 89.3197M79.8784 84.1888C79.4904 84.1888 79.1774 84.5018 79.1774 84.8898 79.1774 88.1048 78.9614 91.2838 78.5544 94.4178L79.9714 94.4178C80.3704 91.2828 80.5794 88.1038 80.5794 84.8898 80.5794 84.5018 80.2654 84.1888 79.8784 84.1888" class="sapIllus_ObjectFillColor"/>
  <path fill="var(--sapIllus_ObjectFillColor)" d="M79.8784 78.1927C76.1854 78.1927 73.1804 81.1967 73.1804 84.8897 73.1804 84.9337 73.1854 84.9767 73.1934 85.0187 73.1914 85.3657 73.1874 85.7127 73.1824 86.0577 73.1754 86.4457 73.4834 86.7647 73.8714 86.7717 74.2544 86.7957 74.5774 86.4717 74.5844 86.0837 74.5914 85.6857 74.5954 85.2887 74.5954 84.8897 74.5954 84.8487 74.5914 84.8077 74.5844 84.7677 74.6494 81.9047 76.9984 79.5947 79.8784 79.5947 82.7994 79.5947 85.1754 81.9707 85.1754 84.8897 85.1754 88.0787 84.9574 91.2617 84.5734 94.4187L85.9864 94.4187C86.3644 91.2607 86.5774 88.0787 86.5774 84.8897 86.5774 81.1967 83.5714 78.1927 79.8784 78.1927M67.8965 84.89C67.8965 81.429 69.3805 78.316 71.7345 76.126L69.7835 76.126C67.7645 78.45 66.5235 81.465 66.4945 84.771 66.4885 84.809 66.4845 84.849 66.4845 84.89 66.4845 88.086 66.2045 91.272 65.7025 94.418L67.1195 94.418C67.6045 91.308 67.8805 88.162 67.8875 85.006 67.8945 84.97 67.8965 84.93 67.8965 84.89M93.2632 84.89C93.2632 81.537 92.0162 78.477 89.9722 76.126L88.0252 76.126C90.3532 78.291 91.8292 81.362 91.8622 84.777 91.8552 84.814 91.8522 84.852 91.8522 84.89 91.8522 88.092 91.6672 91.272 91.3092 94.418L92.7242 94.418C93.0722 91.309 93.2492 88.168 93.2542 85.006 93.2612 84.97 93.2632 84.93 93.2632 84.89M97.9351 76.1263L96.3451 76.1263C97.7721 78.8063 98.5491 81.8073 98.5491 84.8903 98.5491 88.0933 98.3621 91.2693 98.0271 94.4183L99.4391 94.4183C99.7691 91.2683 99.9521 88.0923 99.9521 84.8903 99.9521 81.8283 99.2501 78.8363 97.9351 76.1263M105.1353 76.1263L103.6433 76.1263C104.6563 78.8623 105.2373 81.8063 105.2373 84.8903 105.2373 88.0673 105.0693 91.2623 104.7523 94.4183L106.1623 94.4183C106.4753 91.2613 106.6393 88.0673 106.6393 84.8903 106.6393 81.8173 106.0933 78.8763 105.1353 76.1263M118.6069 84.89C118.6069 87.555 118.5059 90.243 118.3069 92.879 118.2789 93.265 118.5689 93.601 118.9559 93.631 118.9729 93.632 118.9909 93.632 119.0079 93.632 119.3719 93.632 119.6779 93.351 119.7069 92.983 119.9059 90.341 120.0069 87.65 120.0089 84.979 120.0139 84.95 120.0149 84.92 120.0149 84.89 120.0149 81.894 119.6509 78.965 119.0109 76.126L117.5789 76.126C118.2349 78.933 118.6059 81.834 118.6129 84.802 118.6089 84.831 118.6069 84.86 118.6069 84.89M125.8511 76.1263L124.4231 76.1263C124.9821 78.9903 125.2991 81.9163 125.2991 84.8903 125.2991 88.0723 125.1261 91.2613 124.8571 94.4183L126.2631 94.4183C126.5301 91.2603 126.7021 88.0723 126.7021 84.8903 126.7021 81.9183 126.3931 78.9933 125.8511 76.1263" class="sapIllus_ObjectFillColor"/>
</svg>