<svg width="320" height="240" viewBox="0 0 320 240" id="tnt-Scene-Radar">
  <path fill="var(--sapIllus_BackgroundColor)" d="M235.470472,161.02995 C235.573472,152.47295 242.834472,146.41995 252.605472,146.21595 C282.933472,145.58195 307.430472,120.88995 304.397472,91.1139502 C301.758472,65.1989502 278.055472,45.9879502 251.012472,45.9859502 C207.079472,45.9837002 135.201472,45.9837002 91.268472,45.9859502 C64.226472,45.9869502 40.523472,65.1989502 37.883472,91.1129502 C34.850472,120.88995 59.340472,146.21595 89.675472,146.21595 L89.835472,146.21595 C95.990472,146.21595 101.009472,151.06295 100.991472,156.98895 L100.990472,157.10995 L100.991472,157.22995 C101.009472,163.15595 95.990472,168.00495 89.835472,168.00495 L45.402472,168.00395 C31.523472,168.00395 18.796472,176.83395 15.753472,189.87195 C11.469472,208.22395 26.047472,224.65595 44.417472,224.65595 L73.981472,224.65595 L206.231472,224.65595 L224.417472,224.65595 C238.725472,224.65595 251.712472,215.25395 254.344472,201.71195 C256.816472,188.99595 248.756472,179.43395 239.870472,171.69895 C237.332472,169.48995 235.415472,165.52495 235.470472,161.02995" class="sapIllus_BackgroundColor"/>
  <path fill="var(--sapIllus_Layering2)" d="M93.742972,224.66085 L127.492972,224.66085 L127.492972,160.52985 C127.492972,160.16185 127.287972,159.82385 126.960972,159.65385 L95.195972,143.15485 C94.533972,142.80985 93.742972,143.29185 93.742972,144.03785 L93.742972,224.66085 Z" class="sapIllus_Layering2"/>
  <path fill="var(--sapIllus_Layering1)" d="M130.494872 36.0456502C130.131872 36.0516502 129.831872 35.7616502 129.825872 35.3986502L129.825872 31.3506502C129.838872 30.9806502 130.147872 30.6916502 130.516872 30.7036502 130.868872 30.7166502 131.150872 30.9986502 131.163872 31.3506502L131.163872 35.3976502C131.157872 35.7616502 130.858872 36.0516502 130.494872 36.0456502M130.494872 21.3522502C130.131872 21.3582502 129.831872 21.0682502 129.825872 20.7052502L129.825872 16.6502502C129.836872 16.2812502 130.143872 15.9902502 130.513872 16.0002502 130.867872 16.0102502 131.152872 16.2952502 131.163872 16.6502502L131.163872 20.7052502C131.157872 21.0682502 130.858872 21.3582502 130.494872 21.3522502M125.172572 26.6891502L121.122572 26.6891502C120.753572 26.6891502 120.454572 26.3901502 120.454572 26.0211502 120.454572 25.6521502 120.753572 25.3531502 121.122572 25.3531502L125.172572 25.3531502C125.541572 25.3531502 125.840572 25.6521502 125.840572 26.0211502 125.840572 26.3901502 125.541572 26.6891502 125.172572 26.6891502M139.871872 26.6911502L135.826872 26.6911502C135.458872 26.6791502 135.169872 26.3711502 135.181872 26.0031502 135.191872 25.6511502 135.475872 25.3681502 135.826872 25.3571502L139.871872 25.3571502C140.239872 25.3691502 140.528872 25.6761502 140.517872 26.0451502 140.506872 26.3971502 140.223872 26.6791502 139.871872 26.6911502M28.282972 161.28875C27.863972 161.29575 27.518972 160.96275 27.511972 160.54375L27.511972 155.88175C27.526972 155.45675 27.884972 155.12375 28.308972 155.13875 28.714972 155.15175 29.039972 155.47675 29.053972 155.88175L29.053972 160.54275C29.046972 160.96175 28.701972 161.29575 28.283972 161.28875L28.282972 161.28875zM28.282972 144.36885C27.863972 144.37585 27.518972 144.04185 27.511972 143.62285L27.511972 143.62185 27.511972 138.95285C27.524972 138.52785 27.879972 138.19285 28.303972 138.20485 28.712972 138.21685 29.041972 138.54485 29.053972 138.95285L29.053972 143.62185C29.046972 144.04085 28.701972 144.37485 28.282972 144.36885M22.154072 150.51435L17.490072 150.51435C17.065072 150.51435 16.720072 150.16935 16.720072 149.74435 16.720072 149.32035 17.065072 148.97535 17.490072 148.97535L22.154072 148.97535C22.579072 148.97535 22.924072 149.32035 22.924072 149.74435 22.924072 150.16935 22.579072 150.51435 22.154072 150.51435M39.081772 150.51635L34.423772 150.51635C33.999772 150.50235 33.666772 150.14835 33.680772 149.72335 33.692772 149.31835 34.018772 148.99335 34.423772 148.98035L39.081772 148.98035C39.505772 148.99435 39.838772 149.34835 39.825772 149.77235 39.811772 150.17735 39.486772 150.50335 39.081772 150.51635" class="sapIllus_Layering1"/>
  <polygon fill="var(--sapIllus_Layering2)" points="178.177 201.484 160.081 201.484 169.552 114.796 170.048 116.327" class="sapIllus_Layering2"/>
  <path fill="var(--sapIllus_AccentColor)" d="M295.403072 158.72235C290.089072 156.75335 287.488072 151.91035 285.469072 146.97035 285.375072 146.74235 285.151072 146.59235 284.904072 146.59235 284.665072 146.61535 284.452072 146.75535 284.337072 146.96635 281.711072 153.25435 278.267072 155.97235 273.314072 159.40235 273.041072 159.59035 272.971072 159.96435 273.160072 160.23835 273.238072 160.35135 273.353072 160.43535 273.485072 160.47335 277.652072 161.74335 283.908072 169.56635 283.943072 173.55235 283.948072 173.85435 284.174072 174.10735 284.473072 174.14635 284.502072 174.15035 284.531072 174.15135 284.560072 174.15135 284.830072 174.15035 285.067072 173.97135 285.143072 173.71235 286.159072 170.18435 289.437072 162.82535 294.578072 160.22235 294.850072 160.08335 295.129072 159.95935 295.412072 159.85035 295.722072 159.73335 295.879072 159.38635 295.761072 159.07535 295.700072 158.91035 295.569072 158.78235 295.404072 158.72235L295.403072 158.72235zM51.937272 37.0251502C47.719272 35.4631502 45.656272 31.6201502 44.053272 27.6991502 43.978272 27.5181502 43.801272 27.3991502 43.605272 27.4001439 43.415272 27.4181502 43.247272 27.5291502 43.155272 27.6961502 41.071272 32.6861502 38.338272 34.8421502 34.408272 37.5641502 34.191272 37.7131502 34.136272 38.0111502 34.286272 38.2281502 34.347272 38.3181502 34.438272 38.3841502 34.543272 38.4151502 37.850272 39.4221502 42.815272 45.6301502 42.842272 48.7941502 42.846272 49.0331502 43.025272 49.2341502 43.263272 49.2641502 43.286272 49.2671502 43.309272 49.2691502 43.333272 49.2681502 43.546272 49.2671502 43.734272 49.1261502 43.794272 48.9211502 44.601272 46.1211502 47.203272 40.2801502 51.282272 38.2151502 51.498272 38.1051502 51.718272 38.0071502 51.943272 37.9211502 52.190272 37.8271502 52.314272 37.5511502 52.221272 37.3051502 52.172272 37.1741502 52.068272 37.0721502 51.937272 37.0251502" class="sapIllus_AccentColor"/>
  <path fill="var(--sapIllus_BrandColorSecondary)" d="M221.950872,81.5973502 C224.110872,79.4363502 227.613872,79.4363502 229.774872,81.5973502 C231.934872,83.7573502 231.934872,87.2603502 229.774872,89.4203502 C227.613872,91.5813502 224.110872,91.5813502 221.950872,89.4203502 C219.789872,87.2603502 219.789872,83.7573502 221.950872,81.5973502" class="sapIllus_BrandColorSecondary"/>
  <path fill="var(--sapIllus_ObjectFillColor)" d="M166.942172,144.43035 C192.317172,169.80535 233.380172,169.91435 258.902172,144.77535 L166.596172,52.4703502 C141.458172,77.9923502 141.566172,119.05435 166.942172,144.43035" class="sapIllus_ObjectFillColor"/>
  <path fill="var(--sapIllus_StrokeDetailColor)" d="M167.295672,144.07685 C142.350672,119.13185 142.080672,78.4638502 166.600672,53.1808502 L258.191672,144.77085 C232.907672,169.29085 192.240672,169.01985 167.295672,144.07685 M259.255672,144.42185 L213.456672,98.6228502 L221.151672,90.9288502 C221.347672,90.7328502 221.347672,90.4158502 221.151672,90.2208502 C220.956672,90.0258502 220.640672,90.0258502 220.444672,90.2208502 L212.749672,97.9158502 L166.949672,52.1168502 C166.856672,52.0228502 166.729672,51.9708502 166.596672,51.9708502 L166.594672,51.9708502 C166.461672,51.9708502 166.333672,52.0238502 166.239672,52.1198502 C140.981672,77.7638502 141.137672,119.33285 166.588672,144.78385 C179.377672,157.57285 196.234672,163.97385 213.098672,163.97385 C229.793672,163.97385 246.494672,157.69785 259.252672,145.13185 C259.348672,145.03785 259.401686,144.90985 259.401686,144.77685 C259.401686,144.64285 259.350672,144.51485 259.255672,144.42185" class="sapIllus_StrokeDetailColor"/>
  <path fill="var(--sapIllus_BrandColorSecondary)" d="M171.836672,139.53485 C192.897672,160.59585 225.977672,163.68685 247.159672,142.82285 L168.548672,64.2128502 C147.684672,85.3938502 150.775672,118.47385 171.836672,139.53485" class="sapIllus_BrandColorSecondary"/>
  <path fill="var(--sapIllus_PatternHighlight)" d="M205.42584,173.493177 C207.63584,158.361177 208.54184,146.621177 229.72384,125.757177 L202.13784,98.1711774 C181.27384,119.352177 184.36484,152.432177 205.42584,173.493177" class="sapIllus_PatternHighlight" transform="scale(1 -1) rotate(89 347.07 0)"/>
  <path fill="var(--sapIllus_StrokeDetailColor)" d="M175.434272,153.02605 C175.434272,157.05105 175.876272,159.97905 171.331272,160.31405 C166.853272,160.64505 161.859272,157.05105 161.859272,153.02605 C161.859272,149.00105 165.498272,145.73805 169.989272,145.73805 C174.479272,145.73805 175.434272,149.00105 175.434272,153.02605" class="sapIllus_StrokeDetailColor"/>
  <path fill="var(--sapIllus_Layering1)" d="M179.744872,148.47625 C179.744872,154.27325 175.045872,158.97225 169.248872,158.97225 C163.452872,158.97225 158.753872,154.27325 158.753872,148.47625 C158.753872,142.68025 163.452872,137.98125 169.248872,137.98125 C175.045872,137.98125 179.744872,142.68025 179.744872,148.47625" class="sapIllus_Layering1"/>
  <polygon fill="var(--sapIllus_Layering1)" points="82.905 224.65 64.747 224.65 64.747 119.062 64.747 102.126 82.905 102.126" class="sapIllus_Layering1"/>
  <path fill="var(--sapIllus_StrokeDetailColor)" d="M64.8883988,118.69205 L82.877472,123.57805 L82.888472,117.06705 C82.888472,117.06705 64.846472,118.69205 64.8883988,118.69205" class="sapIllus_StrokeDetailColor"/>
  <path fill="var(--sapIllus_Layering2)" d="M99.986072,118.81705 L45.666072,118.81705 C45.180072,118.81705 44.764072,118.46805 44.681072,117.99005 L36.531072,71.4900502 C36.424072,70.8780502 36.895072,70.3170502 37.516072,70.3170502 L108.135072,70.3170502 C108.757072,70.3170502 109.227072,70.8780502 109.121072,71.4900502 L100.970072,117.99005 C100.887072,118.46805 100.471072,118.81705 99.986072,118.81705" class="sapIllus_Layering2"/>
  <path fill="var(--sapIllus_Layering1)" d="M46.697972 84.0046502L46.697972 98.5046502C46.697972 99.0576502 47.144972 99.5046502 47.697972 99.5046502L56.947972 99.5046502C57.499972 99.5046502 57.947972 99.0576502 57.947972 98.5046502L57.947972 84.0046502C57.947972 83.4516502 57.499972 83.0046502 56.947972 83.0046502L47.697972 83.0046502C47.144972 83.0046502 46.697972 83.4516502 46.697972 84.0046502M60.347372 84.0046502L60.347372 98.5046502C60.347372 99.0576502 60.795372 99.5046502 61.347372 99.5046502L70.597372 99.5046502C71.150372 99.5046502 71.597372 99.0576502 71.597372 98.5046502L71.597372 84.0046502C71.597372 83.4516502 71.150372 83.0046502 70.597372 83.0046502L61.347372 83.0046502C60.795372 83.0046502 60.347372 83.4516502 60.347372 84.0046502M87.897172 84.0046502L87.897172 98.5046502C87.897172 99.0576502 88.345172 99.5046502 88.897172 99.5046502L98.147172 99.5046502C98.700172 99.5046502 99.147172 99.0576502 99.147172 98.5046502L99.147172 84.0046502C99.147172 83.4516502 98.700172 83.0046502 98.147172 83.0046502L88.897172 83.0046502C88.345172 83.0046502 87.897172 83.4516502 87.897172 84.0046502M43.297572 83.0046502L38.766572 83.0046502C38.145572 83.0046502 37.674572 83.5656502 37.780572 84.1776502L40.322572 98.6776502C40.406572 99.1556502 40.821572 99.5046502 41.307572 99.5046502L43.297572 99.5046502C43.850572 99.5046502 44.297572 99.0576502 44.297572 98.5046502L44.297572 84.0046502C44.297572 83.4516502 43.850572 83.0046502 43.297572 83.0046502M101.547572 84.0046502L101.547572 98.5046502C101.547572 99.0576502 101.994572 99.5046502 102.547572 99.5046502L104.287572 99.5046502C104.773572 99.5046502 105.188572 99.1556502 105.272572 98.6776502L107.814572 84.1776502C107.920572 83.5656502 107.449572 83.0046502 106.828572 83.0046502L102.547572 83.0046502C101.994572 83.0046502 101.547572 83.4516502 101.547572 84.0046502M73.997772 84.0046502L73.997772 98.5046502C73.997772 99.0576502 74.444772 99.5046502 74.997772 99.5046502L84.497772 99.5046502C85.049772 99.5046502 85.497772 99.0576502 85.497772 98.5046502L85.497772 84.0046502C85.497772 83.4516502 85.049772 83.0046502 84.497772 83.0046502L74.997772 83.0046502C74.444772 83.0046502 73.997772 83.4516502 73.997772 84.0046502M120.242972 182.40015L113.865972 182.40015C113.312972 182.40015 112.865972 181.95315 112.865972 181.40015L112.865972 169.43815C112.865972 168.88615 113.312972 168.43815 113.865972 168.43815L120.242972 168.43815C120.794972 168.43815 121.242972 168.88615 121.242972 169.43815L121.242972 181.40015C121.242972 181.95315 120.794972 182.40015 120.242972 182.40015M120.242972 202.02515L113.865972 202.02515C113.312972 202.02515 112.865972 201.57815 112.865972 201.02515L112.865972 189.06315C112.865972 188.51115 113.312972 188.06315 113.865972 188.06315L120.242972 188.06315C120.794972 188.06315 121.242972 188.51115 121.242972 189.06315L121.242972 201.02515C121.242972 201.57815 120.794972 202.02515 120.242972 202.02515" class="sapIllus_Layering1"/>
  <path fill="var(--sapIllus_ObjectFillColor)" d="M137.081772 125.88355C136.683772 125.85055 136.278772 125.87155 135.879772 125.95255 136.303772 125.86555 135.399772 123.83055 135.259772 123.59055 134.776772 122.76355 134.059772 122.06755 133.182772 121.67155 131.560772 120.94055 129.942772 121.43455 128.647772 122.55255 127.410772 123.62155 126.651772 125.27255 125.143772 126.01955 125.080772 126.05055 125.010772 126.08055 124.940772 126.06555 124.888772 126.05455 124.844772 126.01755 124.803772 125.98255 124.002772 125.29755 123.108772 124.84055 122.038772 124.76755 120.176772 124.63955 118.263772 125.74655 117.644772 127.54555 117.518772 127.91255 117.443772 128.30555 117.231772 128.63155 116.431772 129.87055 114.861772 129.28455 113.779772 128.88955 109.348772 127.27255 107.138772 135.89155 113.411772 134.86855 115.084772 134.59655 116.821772 134.14655 118.511772 134.03655 120.080772 133.93655 121.721772 134.01255 123.298772 134.11955 126.736772 134.35355 130.139772 134.93655 133.564772 135.29355 135.950772 135.54155 138.873772 135.07655 140.378772 133.00255 141.332772 131.68855 141.491772 129.83955 140.776772 128.38055 140.081772 126.96355 138.627772 126.01355 137.081772 125.88355M278.204752 68.8769276C277.722424 68.8369356 277.231613 68.862385 276.748074 68.9605472 277.26191 68.8551138 276.166372 66.3889406 275.996709 66.0980897 275.411371 65.095866 274.542454 64.2523985 273.479637 63.7724945 271.513969 62.8866112 269.55315 63.4852792 267.983767 64.8401596 266.484673 66.135658 265.564857 68.1364697 263.737344 69.0417431 263.660995 69.0793113 263.576164 69.1156677 263.491332 69.0974895 263.428315 69.0841588 263.374992 69.0393193 263.325305 68.9969036 262.35459 68.1667667 261.271171 67.6129381 259.97446 67.5244709 257.717942 67.3693505 255.399618 68.7109002 254.649465 70.89107 254.496769 71.3358294 254.405878 71.8120978 254.14896 72.2071702 253.179457 73.7086879 251.276807 72.998527 249.965554 72.5198349 244.59572 70.5602271 241.917468 81.0054096 249.519583 79.7656577 251.547056 79.4360267 253.652089 78.8906812 255.700164 78.7573746 257.601602 78.6361867 259.590295 78.7282895 261.501428 78.8579605 265.667867 79.1415401 269.79189 79.8480654 273.942574 80.2807061 276.834117 80.581252 280.376438 80.0177284 282.200316 77.504292 283.356448 75.9118834 283.549137 73.6711197 282.682644 71.9029887 281.840388 70.1857566 280.078316 69.0344718 278.204752 68.8769276" class="sapIllus_ObjectFillColor"/>
  <path fill="var(--sapIllus_Layering1)" d="M197.325872,224.65205 L139.825872,224.65205 L139.825872,200.97805 C139.825872,200.42505 140.272872,199.97805 140.825872,199.97805 L196.325872,199.97805 C196.878872,199.97805 197.325872,200.42505 197.325872,200.97805 L197.325872,224.65205 Z" class="sapIllus_Layering1"/>
</svg>