<svg width="320" height="240" viewBox="0 0 320 240" id="tnt-Scene-Fingerprint">
  <path fill="var(--sapIllus_BackgroundColor)" d="M277.2204,107.714 C268.8244,100.895 258.3984,96.305 247.2834,93.362 C235.4894,90.387 223.3714,88.886 211.2084,88.896 C210.5884,88.891 209.9704,88.896 209.3514,88.896 C208.9594,88.897 208.5794,88.879 208.2114,88.849 C218.7694,81.169 225.0124,68.9 225.0044,55.844 C225.0034,33.286 206.7174,15 184.1594,15 L57.8444,15 C35.2864,15 16.9994,33.286 16.9994,55.844 C16.9994,78.402 35.2864,96.688 57.8444,96.688 L71.9894,96.688 C42.7664,106.408 19.9214,127.956 20.0284,158.323 C20.1004,179.076 31.3094,199.206 50.0404,211.615 C70.5134,225.178 96.8524,225.066 121.2524,225.033 C141.0744,225.007 160.8954,225.157 180.7164,225.022 C199.5084,224.894 219.0964,225.827 237.7234,223.267 C274.2364,218.247 302.1634,190.656 302.04776,157.338 C301.9824,138.688 292.6794,120.267 277.2204,107.714" class="sapIllus_BackgroundColor"/>
  <path fill="var(--sapIllus_ObjectFillColor)" d="M127.7467 161.0011L172.7347 161.0011C172.8107 174.0651 180.0377 184.2291 186.2557 191.2411L114.1447 191.2411C121.7197 183.7781 127.3607 174.6511 127.7467 161.0011M242.4274 47.9708L242.4274 146.3978 58.0054 146.3978 58.0054 47.9708C58.0054 42.6458 62.3244 38.3158 67.6604 38.3158L232.7724 38.3158C238.1074 38.3158 242.4274 42.6458 242.4274 47.9708" class="sapIllus_ObjectFillColor"/>
  <path fill="var(--sapIllus_BackgroundColor)" d="M159.1637,91.8087 C159.1637,114.8477 140.4877,133.5247 117.4487,133.5247 C94.4097,133.5247 75.7327,114.8477 75.7327,91.8087 C75.7327,68.7697 94.4097,50.0927 117.4487,50.0927 C140.4877,50.0927 159.1637,68.7697 159.1637,91.8087" class="sapIllus_BackgroundColor"/>
  <path fill="var(--sapIllus_BrandColorSecondary)" d="M101.7116,199.3273 L101.7116,199.1093 C101.7116,193.1073 105.9506,191.2413 111.1796,191.2413 L189.2526,191.2413 C194.4826,191.2413 198.7216,193.1073 198.7216,199.1093 L198.7216,199.3273 L101.7116,199.3273 Z" class="sapIllus_BrandColorSecondary"/>
  <path fill="var(--sapIllus_StrokeDetailColor)" d="M74.4518,199.8273 L49.0808,199.8273 C48.8048,199.8273 48.5808,199.6033 48.5808,199.3273 C48.5808,199.0513 48.8048,198.8273 49.0808,198.8273 L74.4518,198.8273 C74.7278,198.8273 74.9518,199.0513 74.9518,199.3273 C74.9518,199.6033 74.7278,199.8273 74.4518,199.8273" class="sapIllus_StrokeDetailColor"/>
  <path fill="var(--sapIllus_BrandColorSecondary)" d="M152.8952,97.2687 L81.6942,97.2687 C81.1372,97.2687 80.6862,96.8177 80.6862,96.2607 L80.6862,87.9247 C80.6862,87.3687 81.1372,86.9167 81.6942,86.9167 L152.8952,86.9167 C153.4522,86.9167 153.9032,87.3687 153.9032,87.9247 L153.9032,96.2607 C153.9032,96.8177 153.4522,97.2687 152.8952,97.2687" class="sapIllus_BrandColorSecondary"/>
  <path fill="var(--sapIllus_BackgroundColor)" d="M225.7419 95.1281L174.7199 95.1281C174.1629 95.1281 173.7119 94.6761 173.7119 94.1191L173.7119 88.5491C173.7119 87.9921 174.1629 87.5411 174.7199 87.5411L225.7419 87.5411C226.2989 87.5411 226.7499 87.9921 226.7499 88.5491L226.7499 94.1191C226.7499 94.6761 226.2989 95.1281 225.7419 95.1281M225.7419 107.3595L174.7199 107.3595C174.1629 107.3595 173.7119 106.9085 173.7119 106.3515L173.7119 100.7805C173.7119 100.2235 174.1629 99.7725 174.7199 99.7725L225.7419 99.7725C226.2989 99.7725 226.7499 100.2235 226.7499 100.7805L226.7499 106.3515C226.7499 106.9085 226.2989 107.3595 225.7419 107.3595M225.7419 119.591L174.7199 119.591C174.1629 119.591 173.7119 119.14 173.7119 118.583L173.7119 113.012C173.7119 112.455 174.1629 112.004 174.7199 112.004L225.7419 112.004C226.2989 112.004 226.7499 112.455 226.7499 113.012L226.7499 118.583C226.7499 119.14 226.2989 119.591 225.7419 119.591" class="sapIllus_BackgroundColor"/>
  <path fill="var(--sapIllus_StrokeDetailColor)" d="M108.9362 117.504C108.8302 117.504 108.7232 117.471 108.6332 117.401 108.4142 117.234 108.3712 116.921 108.5392 116.701 114.0112 109.516 116.9042 100.932 116.9042 91.876 116.9042 91.6 117.1272 91.376 117.4042 91.376 117.6802 91.376 117.9042 91.6 117.9042 91.876 117.9042 101.152 114.9402 109.946 109.3332 117.307 109.2362 117.436 109.0862 117.504 108.9362 117.504M112.4069 118.4064C112.3049 118.4064 112.2029 118.3764 112.1149 118.3114 111.8899 118.1504 111.8399 117.8384 112.0019 117.6144 115.1819 113.2024 117.4909 108.3084 118.8639 103.0674 118.9329 102.8014 119.2039 102.6354 119.4739 102.7114 119.7409 102.7804 119.9009 103.0534 119.8309 103.3214 118.4279 108.6814 116.0659 113.6864 112.8119 118.1984 112.7149 118.3344 112.5619 118.4064 112.4069 118.4064" class="sapIllus_StrokeDetailColor"/>
  <path fill="var(--sapIllus_StrokeDetailColor)" d="M119.8356 101.633C119.8006 101.633 119.7666 101.629 119.7316 101.622 119.4616 101.566 119.2886 101.3 119.3456 101.029 119.9776 98.039 120.2976 94.959 120.2976 91.876 120.2976 90.281 118.9996 88.984 117.4036 88.984 115.8336 88.984 114.5516 90.24 114.5116 91.802 114.5156 91.826 114.5176 91.851 114.5176 91.876 114.5176 92.103 114.5156 92.328 114.5116 92.554 114.5066 92.83 114.3186 93.049 114.0026 93.045 113.7266 93.04 113.5066 92.813 113.5116 92.536 113.5156 92.344 113.5166 92.151 113.5176 91.957 113.5126 91.931 113.5106 91.904 113.5106 91.877 113.5106 89.731 115.2576 87.984 117.4036 87.984 119.5506 87.984 121.2976 89.731 121.2976 91.877 121.2976 95.029 120.9706 98.178 120.3236 101.237 120.2736 101.472 120.0656 101.633 119.8356 101.633M105.6657 116.1574C105.5557 116.1574 105.4447 116.1214 105.3537 116.0474 105.1377 115.8744 105.1037 115.5594 105.2757 115.3454 110.0257 109.4254 112.8387 102.3004 113.4087 94.7414 113.4307 94.4674 113.6467 94.2644 113.9457 94.2804 114.2217 94.3024 114.4277 94.5424 114.4067 94.8174 113.8197 102.5774 110.9327 109.8914 106.0557 115.9704 105.9567 116.0934 105.8117 116.1574 105.6657 116.1574" class="sapIllus_StrokeDetailColor"/>
  <path fill="var(--sapIllus_StrokeDetailColor)" d="M116.5006 118.9113C116.4036 118.9113 116.3076 118.8843 116.2216 118.8263 115.9926 118.6723 115.9316 118.3613 116.0856 118.1323 121.3126 110.3603 124.0766 101.2813 124.0766 91.8763 124.0766 91.8513 124.0786 91.8263 124.0826 91.8033 124.0416 88.1543 121.0616 85.1983 117.4036 85.1983 113.7216 85.1983 110.7256 88.1943 110.7256 91.8773 110.7256 91.9003 110.7236 91.9243 110.7206 91.9473 110.7086 97.5363 109.3506 103.0923 106.7896 108.0183 106.6626 108.2653 106.3586 108.3613 106.1156 108.2313 105.8706 108.1043 105.7746 107.8033 105.9026 107.5573 108.3996 102.7523 109.7206 97.3293 109.7206 91.8763 109.7206 91.8513 109.7226 91.8273 109.7256 91.8043 109.7656 87.6033 113.1936 84.1983 117.4036 84.1983 121.6386 84.1983 125.0826 87.6423 125.0826 91.8773 125.0826 91.9033 125.0806 91.9293 125.0766 91.9543 125.0616 101.5313 122.2396 110.7743 116.9156 118.6903 116.8186 118.8343 116.6606 118.9113 116.5006 118.9113M102.4362 114.2247C102.3252 114.2247 102.2122 114.1877 102.1202 114.1117 101.9062 113.9367 101.8742 113.6217 102.0492 113.4087 103.0532 112.1797 103.9792 110.8707 104.8012 109.5147 104.9462 109.2797 105.2542 109.2057 105.4892 109.3467 105.7242 109.4907 105.7992 109.7977 105.6572 110.0347 104.8102 111.4287 103.8572 112.7777 102.8232 114.0407 102.7242 114.1627 102.5812 114.2247 102.4362 114.2247M121.0378 118.633C120.9488 118.633 120.8588 118.61 120.7778 118.561 120.5428 118.417 120.4678 118.11 120.6098 117.873 121.6528 116.156 122.6008 114.362 123.4278 112.536 123.5408 112.284 123.8408 112.174 124.0888 112.287 124.3408 112.401 124.4518 112.697 124.3378 112.948 123.4948 114.81 122.5288 116.642 121.4658 118.393 121.3708 118.547 121.2058 118.633 121.0378 118.633" class="sapIllus_StrokeDetailColor"/>
  <path fill="var(--sapIllus_StrokeDetailColor)" d="M124.798505 111.0871C124.7365 111.0871 124.6745 111.0751 124.6135 111.0521 124.3575 110.9491 124.2325 110.6581 124.3335 110.4021 126.6785 104.5101 127.8665 98.2761 127.8665 91.8761 127.8665 89.3431 126.9495 86.8991 125.2835 84.9931 125.1025 84.7851 125.1235 84.4701 125.3315 84.2871 125.5385 84.1081 125.8545 84.1261 126.0375 84.3351 127.8615 86.4231 128.8665 89.1021 128.8665 91.8771 128.8665 98.4041 127.6535 104.7611 125.2635 110.7721 125.1855 110.9681 124.9965 111.0871 124.798505 111.0871M105.5954 99.6349C105.5574 99.6349 105.5184 99.6309 105.4794 99.6209 105.2104 99.5569 105.0444 99.2869 105.1094 99.0189 105.6584 96.7169 105.9414 94.3399 105.9474 91.9519 105.9434 91.9279 105.9414 91.9029 105.9414 91.8769 105.9414 85.5559 111.0834 80.4129 117.4044 80.4129 119.6334 80.4129 121.7954 81.0549 123.6574 82.2679 123.8874 82.4189 123.9524 82.7289 123.8024 82.9599 123.6524 83.1919 123.3434 83.2559 123.1104 83.1059 121.4114 81.9979 119.4394 81.4129 117.4044 81.4129 111.6594 81.4129 106.9814 86.0669 106.9414 91.8029 106.9454 91.8269 106.9474 91.8519 106.9474 91.8769 106.9474 94.3669 106.6564 96.8489 106.0814 99.2509 106.0274 99.4809 105.8224 99.6349 105.5954 99.6349M99.526 111.9288C99.415 111.9288 99.303 111.8928 99.212 111.8178 98.997 111.6438 98.964 111.3278 99.137 111.1148 101.41 108.3108 103.152 105.1648 104.314 101.7638 104.403 101.5028 104.687 101.3628 104.949 101.4528 105.21 101.5418 105.349 101.8258 105.259 102.0878 104.059 105.5998 102.261 108.8488 99.915 111.7428 99.816 111.8658 99.672 111.9288 99.526 111.9288M125.9176 117.5128C125.8386 117.5128 125.7586 117.4938 125.6836 117.4538 125.4386 117.3258 125.3466 117.0228 125.4766 116.7788 128.1106 111.8118 129.9306 106.4858 130.8816 100.9498 130.9286 100.6768 131.1816 100.4918 131.4596 100.5408 131.7306 100.5878 131.9146 100.8468 131.8676 101.1188 130.8976 106.7598 129.0446 112.1858 126.3586 117.2468 126.2696 117.4158 126.0966 117.5128 125.9176 117.5128" class="sapIllus_StrokeDetailColor"/>
  <path fill="var(--sapIllus_StrokeDetailColor)" d="M131.7389 99.0812C131.7179 99.0812 131.6969 99.0802 131.6769 99.0772 131.4019 99.0432 131.2079 98.7932 131.2419 98.5192 131.5139 96.3332 131.6519 94.0982 131.6519 91.8772 131.6519 84.0202 125.2599 77.6292 117.4039 77.6292 116.9179 77.6292 116.4249 77.6542 115.9389 77.7032 115.6679 77.7282 115.4199 77.5322 115.3909 77.2572 115.3629 76.9822 115.5629 76.7362 115.8379 76.7092 116.3559 76.6552 116.8839 76.6292 117.4039 76.6292 125.8119 76.6292 132.6519 83.4692 132.6519 91.8772 132.6519 94.1402 132.5109 96.4162 132.2339 98.6432 132.2029 98.8952 131.9869 99.0812 131.7389 99.0812M102.6559 92.3771C102.3799 92.3771 102.1559 92.1531 102.1559 91.8771 102.1559 85.1601 106.4619 79.3081 112.8699 77.3141 113.1379 77.2311 113.4149 77.3811 113.4959 77.6441 113.5779 77.9071 113.4299 78.1881 113.1669 78.2701 107.1789 80.1321 103.1559 85.6001 103.1559 91.8771 103.1559 92.1531 102.9319 92.3771 102.6559 92.3771M96.9567 109.174C96.8507 109.174 96.7427 109.14 96.6517 109.07 96.4337 108.903 96.3927 108.588 96.5607 108.369 99.5217 104.514 101.3917 99.932 101.9647 95.118 101.9977 94.844 102.2527 94.649 102.5197 94.682 102.7937 94.714 102.9897 94.963 102.9567 95.237 102.3627 100.229 100.4247 104.981 97.3527 108.979 97.2547 109.107 97.1057 109.174 96.9567 109.174M131.236 115.0246C131.169 115.0246 131.101 115.0106 131.036 114.9826 130.783 114.8726 130.668 114.5786 130.778 114.3246 133.869 107.2316 135.436 99.6786 135.436 91.8766 135.436 90.4576 135.271 89.0446 134.945 87.6766 134.881 87.4086 135.047 87.1386 135.315 87.0746 135.586 87.0066 135.853 87.1756 135.918 87.4446 136.261 88.8876 136.436 90.3786 136.436 91.8776 136.436 99.8176 134.84 107.5046 131.694 114.7246 131.612 114.9126 131.428 115.0246 131.236 115.0246" class="sapIllus_StrokeDetailColor"/>
  <path fill="var(--sapIllus_StrokeDetailColor)" d="M99.9616 86.0968C99.9046 86.0968 99.8486 86.0868 99.7926 86.0678 99.5316 85.9738 99.3976 85.6878 99.4906 85.4278 102.2016 77.9008 109.4006 72.8438 117.4036 72.8438 125.1906 72.8438 132.1136 77.5048 135.0436 84.7178 135.1486 84.9738 135.0246 85.2658 134.7696 85.3688 134.5116 85.4728 134.2206 85.3508 134.1176 85.0948 131.3416 78.2598 124.7806 73.8438 117.4036 73.8438 109.8206 73.8438 103.0006 78.6348 100.4326 85.7658 100.3586 85.9698 100.1666 86.0968 99.9616 86.0968M94.6969 105.9503C94.5989 105.9503 94.5019 105.9223 94.4159 105.8633 94.1869 105.7083 94.1289 105.3963 94.2839 105.1693 96.9479 101.2633 98.3619 96.6913 98.3759 91.9453 98.3729 91.9233 98.3709 91.9003 98.3709 91.8773 98.3709 90.2983 98.5649 88.7263 98.9489 87.2083 99.0149 86.9413 99.2849 86.7753 99.5549 86.8463 99.8229 86.9133 99.9859 87.1843 99.9179 87.4523 99.5599 88.8693 99.3769 90.3353 99.3709 91.8083 99.3739 91.8313 99.3759 91.8533 99.3759 91.8773 99.3759 96.8483 97.9009 101.6393 95.1099 105.7313 95.0129 105.8743 94.8559 105.9503 94.6969 105.9503M137.0124 110.216C136.9634 110.216 136.9124 110.209 136.8634 110.194 136.6004 110.112 136.4524 109.83 136.5344 109.567 137.6204 106.089 138.3864 102.487 138.8114 98.861 138.8444 98.586 139.0864 98.399 139.3664 98.422 139.6404 98.454 139.8364 98.703 139.8054 98.978 139.3724 102.664 138.5934 106.327 137.4904 109.865 137.4224 110.079 137.2254 110.216 137.0124 110.216" class="sapIllus_StrokeDetailColor"/>
  <path fill="var(--sapIllus_StrokeDetailColor)" d="M139.5493 96.9281C139.5363 96.9281 139.5243 96.9281 139.5113 96.9271 139.2363 96.9051 139.0293 96.6661 139.0493 96.3911 139.1613 94.8951 139.2183 93.3761 139.2183 91.8771 139.2183 91.8581 139.2193 91.8411 139.2213 91.8231 139.1973 82.0731 132.6363 73.4541 123.2483 70.8511 122.9833 70.7771 122.8263 70.5021 122.9013 70.2351 122.9733 69.9691 123.2463 69.8121 123.5163 69.8881 133.3523 72.6151 140.2213 81.6571 140.2213 91.8771 140.2213 91.8961 140.2203 91.9141 140.2183 91.9321 140.2173 93.4381 140.1593 94.9631 140.0473 96.4651 140.0273 96.7281 139.8083 96.9281 139.5493 96.9281L139.5493 96.9281zM94.0563 98.84C94.0043 98.84 93.9523 98.832 93.9003 98.815 93.6373 98.729 93.4943 98.446 93.5813 98.184 94.2483 96.154 94.5873 94.032 94.5873 91.877 94.5873 85.782 96.9593 80.052 101.2693 75.742 105.5783 71.433 111.3093 69.06 117.4043 69.06 118.4253 69.06 119.4503 69.127 120.4503 69.26 120.7233 69.297 120.9153 69.548 120.8793 69.822 120.8423 70.096 120.5863 70.283 120.3173 70.252 119.3623 70.124 118.3813 70.06 117.4043 70.06 105.3733 70.06 95.5863 79.847 95.5863 91.877 95.5873 94.138 95.2323 96.365 94.5313 98.496 94.4613 98.706 94.2663 98.84 94.0563 98.84M92.7409 101.9455C92.6619 101.9455 92.5829 101.9265 92.5089 101.8875 92.2639 101.7595 92.1699 101.4575 92.2989 101.2135 92.5779 100.6805 92.8379 100.1255 93.0709 99.5605 93.1779 99.3065 93.4699 99.1825 93.7239 99.2905 93.9789 99.3955 94.0999 99.6885 93.9949 99.9435 93.7499 100.5355 93.4769 101.1195 93.1829 101.6775 93.0949 101.8475 92.9209 101.9455 92.7409 101.9455" class="sapIllus_StrokeDetailColor"/>
  <path fill="var(--sapIllus_StrokeDetailColor)" d="M143.151 99.1056C143.133 99.1056 143.115 99.1046 143.097 99.1026 142.823 99.0736 142.624 98.8276 142.653 98.5526 142.887 96.3476 143.006 94.1016 143.006 91.8766 143.006 86.5316 141.376 81.4106 138.291 77.0656 138.13 76.8406 138.183 76.5286 138.409 76.3696 138.63 76.2096 138.947 76.2606 139.105 76.4876 142.312 81.0016 144.006 86.3236 144.006 91.8766 144.006 94.1376 143.885 96.4186 143.647 98.6586 143.62 98.9156 143.403 99.1056 143.151 99.1056M136.0817 74.1427C135.9517 74.1427 135.8217 74.0917 135.7247 73.9927 130.8637 69.0157 124.3577 66.2747 117.4037 66.2747 113.6637 66.2747 110.0597 67.0627 106.6877 68.6177 106.4387 68.7327 106.1407 68.6247 106.0247 68.3717 105.9097 68.1217 106.0197 67.8247 106.2697 67.7087 109.7717 66.0937 113.5187 65.2747 117.4037 65.2747 124.6297 65.2747 131.3907 68.1217 136.4387 73.2927 136.6327 73.4917 136.6287 73.8077 136.4317 73.9997 136.3337 74.0957 136.2077 74.1427 136.0817 74.1427M91.0836 95.1232C91.0566 95.1232 91.0296 95.1212 91.0026 95.1162 90.7296 95.0722 90.5446 94.8152 90.5896 94.5432 90.7296 93.6712 90.8016 92.7732 90.8016 91.8762 90.8016 82.8842 95.2956 74.5642 102.8226 69.6232 103.0526 69.4722 103.3626 69.5342 103.5156 69.7672 103.6666 69.9972 103.6026 70.3082 103.3716 70.4592 96.1266 75.2152 91.8016 83.2222 91.8016 91.8772 91.8016 92.8272 91.7256 93.7782 91.5756 94.7032 91.5366 94.9482 91.3236 95.1232 91.0836 95.1232" class="sapIllus_StrokeDetailColor"/>
  <path fill="var(--sapIllus_AccentColor)" d="M191.2057,67.6935 C187.6717,63.8155 181.6627,63.5375 177.7847,67.0715 C173.9067,70.6055 173.6287,76.6145 177.1627,80.4925 C178.8597,82.3545 181.2277,83.4655 183.7447,83.5835 C183.8947,83.5895 184.0457,83.5925 184.1947,83.5925 C189.4417,83.5865 193.6897,79.3285 193.684704,74.0815 C193.6817,71.7175 192.7977,69.4405 191.2047,67.6935 L191.2057,67.6935 Z" class="sapIllus_AccentColor"/>
  <path fill="var(--sapIllus_ObjectFillColor)" d="M184.1842 69.5929C185.5652 69.5929 186.6842 70.7119 186.6842 72.0929 186.6842 73.4739 185.5652 74.5929 184.1842 74.5929 182.8042 74.5929 181.6842 73.4739 181.6842 72.0929 181.6842 70.7119 182.8042 69.5929 184.1842 69.5929M184.5319 74.9318L184.1649 74.9138C181.6939 74.8008 179.5159 76.5188 179.0519 78.9468 178.9799 79.2848 179.0949 79.6328 179.3499 79.8638 182.0429 82.1838 185.9719 82.3668 188.8679 80.3048 189.1439 80.0988 189.2899 79.7618 189.2509 79.4188 189.0119 76.9578 187.0019 75.0468 184.5319 74.9318M102.5211 94.6818C102.2551 94.6448 101.9991 94.8438 101.9651 95.1188 101.8781 95.8418 101.7531 96.5578 101.6091 97.2688L102.6331 97.2688C102.7641 96.5968 102.8751 95.9198 102.9581 95.2378 102.9911 94.9628 102.7941 94.7138 102.5211 94.6818M99.3717 91.8087C99.3777 90.3357 99.5607 88.8707 99.9187 87.4527 99.9717 87.2407 99.8777 87.0317 99.7047 86.9167L99.1567 86.9167C99.0577 86.9837 98.9787 87.0827 98.9477 87.2077 98.5657 88.7287 98.3717 90.2987 98.3717 91.8767 98.3717 91.9007 98.3737 91.9227 98.3767 91.9457 98.3707 93.7547 98.1597 95.5377 97.7557 97.2687L98.7807 97.2687C99.1727 95.5127 99.3767 93.7077 99.3767 91.8767 99.3767 91.8537 99.3747 91.8307 99.3717 91.8087M90.5895 94.5431C90.5465 94.8151 90.7325 95.0721 91.0045 95.1161 91.0305 95.1201 91.0585 95.1221 91.0845 95.1221 91.3255 95.1221 91.5375 94.9471 91.5775 94.7011 91.7265 93.7721 91.8025 92.8211 91.8025 91.8771 91.8025 90.1921 91.9705 88.5331 92.2875 86.9171L91.2655 86.9171C90.9595 88.5341 90.8025 90.1931 90.8025 91.8761 90.8025 92.7691 90.7315 93.6651 90.5895 94.5431M96.1628 86.9171L95.1438 86.9171C94.7888 88.5291 94.5888 90.1871 94.5888 91.8771 94.5888 93.7131 94.3278 95.5201 93.8428 97.2691L94.8818 97.2691C95.3438 95.5161 95.5878 93.7091 95.5878 91.8771 95.5878 90.1711 95.7908 88.5121 96.1628 86.9171M102.6569 92.3771C102.9329 92.3771 103.1569 92.1531 103.1569 91.8771 103.1569 90.1411 103.4739 88.4711 104.0469 86.9171L102.9789 86.9171C102.4459 88.4801 102.1569 90.1481 102.1569 91.8771 102.1569 92.1531 102.3809 92.3771 102.6569 92.3771M117.4049 91.3761C117.1289 91.3761 116.9049 91.6001 116.9049 91.8761 116.9049 93.6951 116.7819 95.4951 116.5509 97.2691L117.5609 97.2691C117.7869 95.4941 117.9049 93.6951 117.9049 91.8761 117.9049 91.6001 117.6809 91.3761 117.4049 91.3761" class="sapIllus_ObjectFillColor"/>
  <path fill="var(--sapIllus_ObjectFillColor)" d="M117.4049 87.9826C115.2589 87.9826 113.510846 89.7296 113.510846 91.8776 113.510846 91.9026 113.5129 91.9266 113.5169 91.9516 113.5169 92.1466 113.5149 92.3416 113.510846 92.5366 113.5069 92.8126 113.7259 93.0406 114.0029 93.0446L114.0109 93.0446C114.2839 93.0446 114.5069 92.8276 114.5109 92.5536 114.5149 92.3286 114.5169 92.1026 114.5169 91.8766 114.5169 91.8526 114.5149 91.8296 114.5119 91.8066 114.5499 90.2436 115.8329 88.9826 117.4049 88.9826 119.0009 88.9826 120.2989 90.2806 120.2989 91.8766 120.2989 93.6816 120.1759 95.4836 119.9569 97.2686L120.9659 97.2686C121.1779 95.4836 121.2989 93.6816 121.2989 91.8776 121.2989 89.7296 119.5509 87.9826 117.4049 87.9826M113.9469 94.2804C113.6609 94.2654 113.4309 94.4664 113.4099 94.7414 113.3449 95.5914 113.2439 96.4314 113.1239 97.2684L114.1299 97.2684C114.2439 96.4564 114.3449 95.6404 114.4079 94.8174 114.4279 94.5424 114.2219 94.3014 113.9469 94.2804M125.0827 91.8771C125.0827 89.9861 124.3927 88.2561 123.2557 86.9171L121.8597 86.9171C123.2047 88.1261 124.0617 89.8671 124.0827 91.8091 124.0797 91.8311 124.0777 91.8541 124.0777 91.8761 124.0777 93.6891 123.9727 95.4881 123.7697 97.2691L124.7777 97.2691C124.9747 95.5111 125.0747 93.7351 125.0777 91.9471 125.0807 91.9241 125.0827 91.9001 125.0827 91.8771M110.7262 91.8771C110.7262 89.9081 111.5872 88.1411 112.9482 86.9171L111.5502 86.9171C110.4302 88.2371 109.7452 89.9391 109.7262 91.7971 109.7222 91.8231 109.7202 91.8501 109.7202 91.8761 109.7202 93.6851 109.5612 95.4881 109.2762 97.2691L110.2872 97.2691C110.5602 95.5131 110.7162 93.7361 110.7202 91.9541 110.7242 91.9291 110.7262 91.9031 110.7262 91.8771M127.7389 86.9171L126.6059 86.9171C127.4229 88.4311 127.8679 90.1301 127.8679 91.8761 127.8679 93.6891 127.7609 95.4861 127.5709 97.2691L128.5779 97.2691C128.7639 95.4861 128.8679 93.6891 128.8679 91.8771 128.8679 90.1461 128.4759 88.4521 127.7389 86.9171M106.9411 91.797C106.9551 90.032 107.4101 88.372 108.1971 86.917L107.0861 86.917C106.3591 88.421 105.9411 90.099 105.9411 91.877 105.9411 91.904 105.9431 91.932 105.9481 91.958 105.9421 93.743 105.7841 95.523 105.4731 97.269L106.4841 97.269C106.7901 95.494 106.9481 93.689 106.9481 91.877 106.9481 91.85 106.9461 91.823 106.9411 91.797M131.8083 86.9171L130.7443 86.9171C131.3223 88.4641 131.6533 90.1311 131.6533 91.8771 131.6533 93.6751 131.5373 95.4801 131.3583 97.2691L132.3623 97.2691C132.5383 95.4791 132.6533 93.6751 132.6533 91.8771 132.6533 90.1391 132.3463 88.4751 131.8083 86.9171M135.9186 87.4445C135.8556 87.1755 135.5846 87.0045 135.3156 87.0745 135.0476 87.1385 134.8816 87.4085 134.9456 87.6765 135.2726 89.0445 135.4376 90.4575 135.4376 91.8765 135.4376 93.6885 135.3436 95.4865 135.1746 97.2685L136.1776 97.2685C136.3436 95.4865 136.4376 93.6895 136.4376 91.8775 136.4376 90.3795 136.2626 88.8875 135.9186 87.4445M139.2194 91.8771C139.2194 93.3801 139.1624 94.8981 139.0494 96.3911 139.0294 96.6651 139.2364 96.9051 139.5114 96.9271 139.5244 96.9281 139.5364 96.9281 139.5494 96.9281 139.8084 96.9281 140.0274 96.7281 140.0474 96.4651 140.1594 94.9671 140.2184 93.4411 140.2194 91.9321 140.2214 91.9141 140.2224 91.8961 140.2224 91.8771 140.2224 90.1821 140.0164 88.5241 139.6564 86.9171L138.6344 86.9171C139.0064 88.5041 139.2174 90.1451 139.2224 91.8231 139.2204 91.8411 139.2194 91.8581 139.2194 91.8771M143.527 86.9171L142.508 86.9171C142.826 88.5381 143.006 90.1931 143.006 91.8761 143.006 93.6781 142.909 95.4821 142.756 97.2691L143.758 97.2691C143.909 95.4811 144.006 93.6781 144.006 91.8771 144.006 90.1951 143.833 88.5401 143.527 86.9171" class="sapIllus_ObjectFillColor"/>
  <path fill="var(--sapIllus_BrandColorSecondary)" d="M242.4274,146.3976 L242.4274,151.3456 C242.4274,156.6716 238.1074,161.0016 232.7724,161.0016 L67.6604,161.0016 C62.3244,161.0016 58.0054,156.6716 58.0054,151.3456 L58.0054,146.3976 L242.4274,146.3976 Z" class="sapIllus_BrandColorSecondary"/>
  <path fill="var(--sapIllus_PatternShadow)" d="M242.7995,145.8693 L242.7995,150.8173 C242.7995,156.1433 238.4795,160.4733 233.1445,160.4733 L68.0325,160.4733 C62.6975,160.4733 242.7995,145.8693 242.7995,145.8693" class="sapIllus_PatternShadow"/>
  <path fill="var(--sapIllus_ObjectFillColor)" d="M265.0094,199.3273 L219.8834,199.3273 C218.0324,199.3273 216.5314,197.8263 216.5314,195.9753 L216.5314,108.3783 C216.5314,106.5273 218.0324,105.0273 219.8834,105.0273 L265.0094,105.0273 C266.8604,105.0273 268.3604,106.5273 268.3604,108.3783 L268.3604,195.9753 C268.3604,197.8263 266.8604,199.3273 265.0094,199.3273" class="sapIllus_ObjectFillColor"/>
  <path fill="var(--sapIllus_StrokeDetailColor)" d="M219.8835,198.8273 C218.3115,198.8273 217.0315,197.5483 217.0315,195.9753 L217.0315,184.6363 L267.8605,184.6363 L267.8605,195.9753 C267.8605,197.5483 266.5815,198.8273 265.0095,198.8273 L219.8835,198.8273 Z M199.2095,198.8273 C199.0905,193.5393 195.6585,190.7413 189.2525,190.7413 L186.4835,190.7413 C180.8615,184.3753 173.5195,174.4953 173.2555,161.5023 L216.0315,161.5023 L216.0315,195.9753 C216.0315,197.1103 216.5345,198.1223 217.3185,198.8273 L199.2095,198.8273 Z M102.2155,198.8273 C102.3295,194.1253 105.3445,191.7413 111.1795,191.7413 L112.9255,191.7413 L187.3665,191.7413 L189.2525,191.7413 C195.0885,191.7413 198.1035,194.1253 198.2175,198.8273 L102.2155,198.8273 Z M128.2295,161.5183 L172.8095,167.1423 C174.6035,177.2873 180.3625,185.2223 185.1525,190.7413 L115.3485,190.7413 C123.6915,182.1903 127.7985,172.8623 128.2295,161.5183 L128.2295,161.5183 Z M58.5055,151.3463 L58.5055,146.8973 L216.0315,146.8973 L216.0315,160.5023 L173.2325,160.5023 L173.2325,160.5013 L127.2605,160.5013 L127.2605,160.5023 L67.6605,160.5023 C62.6125,160.5023 58.5055,156.3943 58.5055,151.3463 L58.5055,151.3463 Z M58.5055,47.9713 C58.5055,42.9233 62.6125,38.8153 67.6605,38.8153 L232.7725,38.8153 C237.8205,38.8153 241.9275,42.9233 241.9275,47.9713 L241.9275,104.5273 L219.8835,104.5273 C217.7595,104.5273 216.0315,106.2553 216.0315,108.3783 L216.0315,145.8973 L58.5055,145.8973 L58.5055,47.9713 Z M265.0095,105.5273 C266.5815,105.5273 267.8605,106.8063 267.8605,108.3783 L267.8605,113.7983 L217.0315,113.7983 L217.0315,108.3783 C217.0315,106.8063 218.3115,105.5273 219.8835,105.5273 L265.0095,105.5273 Z M217.0315,183.6363 L267.8595,183.6363 L267.8595,114.7983 L217.0315,114.7983 L217.0315,183.6363 Z M275.6235,198.8273 L267.5735,198.8273 C268.3575,198.1223 268.8605,197.1103 268.8605,195.9753 L268.8605,108.3783 C268.8605,106.2553 267.1325,104.5273 265.0095,104.5273 L242.9275,104.5273 L242.9275,47.9713 C242.9275,42.3713 238.3715,37.8153 232.7725,37.8153 L67.6605,37.8153 C62.0615,37.8153 57.5055,42.3713 57.5055,47.9713 L57.5055,145.8973 L57.5055,146.8973 L57.5055,151.3463 C57.5055,156.9463 62.0615,161.5023 67.6605,161.5023 L127.2215,161.5023 C126.7835,173.0293 122.6725,182.0783 113.9355,190.7413 L111.1795,190.7413 C104.7745,190.7413 101.3425,193.5393 101.2235,198.8273 L82.9085,198.8273 C82.6325,198.8273 82.4085,199.0513 82.4085,199.3273 C82.4085,199.6033 82.6325,199.8273 82.9085,199.8273 L101.2115,199.8273 L199.2215,199.8273 L219.8835,199.8273 L265.0095,199.8273 L275.6235,199.8273 C275.9005,199.8273 276.1235,199.6033 276.1235,199.3273 C276.1235,199.0513 275.9005,198.8273 275.6235,198.8273 L275.6235,198.8273 Z" class="sapIllus_StrokeDetailColor"/>
  <polygon fill="var(--sapIllus_ObjectFillColor)" points="217.031 183.636 267.86 183.636 267.86 114.798 217.031 114.798" class="sapIllus_ObjectFillColor"/>
  <path fill="var(--sapIllus_StrokeDetailColor)" d="M246.3688 109.9562L238.5228 109.9562C238.2468 109.9562 238.0228 109.7322 238.0228 109.4562 238.0228 109.1802 238.2468 108.9562 238.5228 108.9562L246.3688 108.9562C246.6448 108.9562 246.8688 109.1802 246.8688 109.4562 246.8688 109.7322 246.6448 109.9562 246.3688 109.9562M242.6139 187.0421C240.5159 187.0421 238.8089 188.7491 238.8089 190.8471 238.8089 192.9441 240.5159 194.6511 242.6139 194.6511 244.7119 194.6511 246.4189 192.9441 246.4189 190.8471 246.4189 188.7491 244.7119 187.0421 242.6139 187.0421M242.6139 195.6511C239.9649 195.6511 237.8089 193.4961 237.8089 190.8471 237.8089 188.1971 239.9649 186.0421 242.6139 186.0421 245.2629 186.0421 247.4189 188.1971 247.4189 190.8471 247.4189 193.4961 245.2629 195.6511 242.6139 195.6511" class="sapIllus_StrokeDetailColor"/>
  <path fill="var(--sapIllus_BackgroundColor)" d="M248.5583,132.006 C254.1263,133.093 256.6563,141.02 257.1773,143.848 C257.7043,146.705 257.9103,154.279 256.5663,158.616 C254.3783,165.674 247.5863,171.07 238.5843,169.536 C229.1833,167.742 225.7373,159.224 227.8933,148.174 C230.0493,137.123 239.2233,130.185 248.5583,132.006" class="sapIllus_BackgroundColor"/>
  <path fill="var(--sapIllus_BrandColorSecondary)" d="M260.5651,153.171 L224.4081,153.171 C223.8511,153.171 223.4001,152.72 223.4001,152.163 L223.4001,148.782 C223.4001,148.226 223.8511,147.775 224.4081,147.775 L260.5651,147.775 C261.1221,147.775 261.5731,148.226 261.5731,148.782 L261.5731,152.163 C261.5731,152.72 261.1221,153.171 260.5651,153.171" class="sapIllus_BrandColorSecondary"/>
  <path fill="var(--sapIllus_StrokeDetailColor)" d="M240.2829 162.3712C240.1809 162.3712 240.0789 162.3412 239.9909 162.2762 239.7659 162.1152 239.7159 161.8032 239.8779 161.5792 241.2129 159.7262 241.6699 158.8472 242.4499 156.6212 242.5419 156.3602 242.8269 156.2212 243.0869 156.3142 243.3469 156.4052 243.4849 156.6912 243.3929 156.9512 242.5839 159.2632 242.0779 160.2372 240.6879 162.1632 240.5909 162.2992 240.4379 162.3712 240.2829 162.3712M244.4723 162.3712C244.3893 162.3712 244.3063 162.3502 244.2303 162.3092 243.9883 162.1752 243.9013 161.8702 244.0353 161.6292 244.2703 161.2042 244.4753 160.7392 244.6613 160.2092 244.7523 159.9482 245.0373 159.8082 245.2983 159.9022 245.5593 159.9932 245.6973 160.2782 245.6053 160.5392 245.4003 161.1242 245.1723 161.6392 244.9093 162.1132 244.8183 162.2782 244.6483 162.3712 244.4723 162.3712M243.5719 154.9464C243.5369 154.9464 243.5029 154.9424 243.4679 154.9354 243.1979 154.8794 243.0249 154.6134 243.0819 154.3424 243.3569 153.0394 243.4969 151.6954 243.4969 150.3484 243.4969 149.7964 243.0479 149.3454 242.4949 149.3454 241.9569 149.3454 241.5159 149.7714 241.4929 150.3044 241.4939 150.3194 241.4949 150.3344 241.4949 150.3484L241.4929 150.6544C241.4869 150.9264 241.2639 151.1444 240.9929 151.1444L240.9829 151.1444C240.7069 151.1384 240.4879 150.9114 240.4929 150.6344L240.4949 150.3994C240.4929 150.3834 240.4919 150.3664 240.4919 150.3484 240.4919 149.2444 241.3899 148.3454 242.4949 148.3454 243.5979 148.3454 244.4969 149.2444 244.4969 150.3484 244.4969 151.7644 244.3499 153.1774 244.0599 154.5504 244.0099 154.7854 243.8019 154.9464 243.5719 154.9464M237.2985 161.3761C237.1885 161.3761 237.0775 161.3401 236.9865 161.2661 236.7705 161.0931 236.7365 160.7781 236.9085 160.5641 238.9725 157.9901 239.6695 156.5471 240.4605 153.2121 240.5245 152.9431 240.7895 152.7721 241.0625 152.8411 241.3305 152.9041 241.4965 153.1741 241.4335 153.4421 240.6105 156.9131 239.8405 158.5061 237.6885 161.1891 237.5895 161.3121 237.4445 161.3761 237.2985 161.3761M245.768205 159.131C245.7062 159.131 245.6442 159.119 245.5832 159.096 245.3272 158.993 245.2022 158.702 245.3032 158.446 246.3282 155.871 246.8472 153.148 246.8472 150.349 246.8472 149.211 246.6292 148.687 246.2012 148.063 246.0442 147.835 246.1022 147.524 246.3302 147.367 246.5572 147.211 246.8702 147.269 247.0252 147.496 247.5452 148.254 247.8472 148.963 247.8472 150.349 247.8472 153.275 247.3042 156.123 246.2332 158.816 246.1552 159.012 245.9662 159.131 245.768205 159.131" class="sapIllus_StrokeDetailColor"/>
  <path fill="var(--sapIllus_StrokeDetailColor)" d="M237.2672 154.0617C237.2292 154.0617 237.1902 154.0577 237.1512 154.0477 236.8822 153.9837 236.7162 153.7137 236.7812 153.4457 237.0182 152.4527 237.1402 151.4287 237.1442 150.4017 237.1422 150.3847 237.1412 150.3667 237.1412 150.3487 237.1412 147.3967 239.5422 144.9957 242.4952 144.9957 243.5362 144.9957 244.5452 145.2947 245.4142 145.8617 245.6462 146.0127 245.7102 146.3227 245.5602 146.5537 245.4102 146.7857 245.1012 146.8497 244.8682 146.6997 244.1622 146.2387 243.3412 145.9957 242.4952 145.9957 240.1112 145.9957 238.1692 147.9197 238.1412 150.2967 238.1432 150.3147 238.1442 150.3317 238.1442 150.3487 238.1442 151.4717 238.0122 152.5917 237.7532 153.6777 237.6992 153.9077 237.4942 154.0617 237.2672 154.0617M234.5807 159.504C234.4697 159.504 234.3587 159.468 234.2667 159.393 234.0517 159.219 234.0187 158.904 234.1917 158.69 234.7817 157.961 234.9837 157.573 235.2897 156.985 235.4837 156.612 235.7117 156.174 236.0897 155.551 236.2337 155.317 236.5427 155.242 236.7767 155.383 237.0127 155.526 237.0877 155.834 236.9447 156.07 236.5817 156.668 236.3627 157.088 236.1767 157.447 235.8667 158.042 235.6217 158.513 234.9697 159.318 234.8707 159.441 234.7267 159.504 234.5807 159.504M248.6178 160.8742C248.5508 160.8742 248.4828 160.8602 248.4178 160.8322 248.1648 160.7222 248.0498 160.4282 248.1598 160.1742 249.5128 157.0702 250.1988 153.7642 250.1988 150.3492 250.1988 150.0722 250.4228 149.8492 250.6988 149.8492 250.9748 149.8492 251.1988 150.0722 251.1988 150.3492 251.1988 153.9022 250.4848 157.3432 249.0758 160.5742 248.9938 160.7622 248.8098 160.8742 248.6178 160.8742" class="sapIllus_StrokeDetailColor"/>
  <path fill="var(--sapIllus_StrokeDetailColor)" d="M250.0983 147.7628C249.9013 147.7628 249.7133 147.6458 249.6353 147.4508 248.4503 144.5318 245.6473 142.6448 242.4943 142.6448 239.5543 142.6448 237.4943 143.9818 236.1973 146.7318 236.0793 146.9828 235.7783 147.0868 235.5323 146.9708 235.2823 146.8528 235.1743 146.5548 235.2923 146.3058 236.7513 143.2128 239.1743 141.6448 242.4943 141.6448 246.0563 141.6448 249.2223 143.7768 250.5613 147.0748 250.6653 147.3298 250.5423 147.6218 250.2863 147.7258 250.2253 147.7508 250.1603 147.7628 250.0983 147.7628M232.443 156.8576C232.345 156.8576 232.248 156.8296 232.162 156.7706 231.933 156.6156 231.875 156.3036 232.03 156.0766 233.183 154.3836 233.793 152.4036 233.793 150.3486 233.791 149.6286 233.879 148.9106 234.054 148.2136 234.121 147.9466 234.391 147.7806 234.661 147.8516 234.928 147.9196 235.091 148.1906 235.023 148.4586 234.869 149.0716 234.791 149.7086 234.791 150.3486 234.793 152.6046 234.124 154.7796 232.856 156.6386 232.759 156.7816 232.602 156.8576 232.443 156.8576M253.8932 153.8273C253.8752 153.8273 253.8572 153.8263 253.8392 153.8243 253.5652 153.7953 253.3662 153.5493 253.3952 153.2743 253.4972 152.3063 253.5492 151.3213 253.5492 150.3483 253.5492 148.0403 252.8452 145.8283 251.5132 143.9543 251.3532 143.7283 251.4062 143.4163 251.6302 143.2573 251.8542 143.0973 252.1672 143.1493 252.3282 143.3743 253.7812 145.4193 254.5492 147.8313 254.5492 150.3483 254.5492 151.3563 254.4962 152.3763 254.3892 153.3803 254.3622 153.6373 254.1452 153.8273 253.8932 153.8273M250.7633 142.7765C250.6333 142.7765 250.5033 142.7255 250.4063 142.6265 248.3073 140.4775 245.4973 139.2945 242.4943 139.2945 240.8773 139.2945 239.3213 139.6335 237.8683 140.3055 237.6173 140.4215 237.3213 140.3115 237.2043 140.0615 237.0893 139.8105 237.1993 139.5135 237.4493 139.3975 239.0343 138.6655 240.7313 138.2945 242.4943 138.2945 245.7693 138.2945 248.8323 139.5845 251.1203 141.9265 251.3143 142.1255 251.3103 142.4415 251.1133 142.6335 251.0153 142.7295 250.8893 142.7765 250.7633 142.7765M230.8434 152.0646C230.8164 152.0646 230.7894 152.0626 230.7624 152.0576 230.4894 152.0136 230.3044 151.7566 230.3494 151.4846 230.4094 151.1126 230.4404 150.7306 230.4404 150.3486 230.4404 146.2736 232.4764 142.5026 235.8874 140.2636 236.1164 140.1126 236.4274 140.1746 236.5794 140.4076 236.7314 140.6376 236.6664 140.9486 236.4364 141.0996 233.3084 143.1536 231.4404 146.6116 231.4404 150.3486 231.4404 150.7836 231.4054 151.2196 231.3354 151.6446 231.2964 151.8896 231.0834 152.0646 230.8434 152.0646" class="sapIllus_StrokeDetailColor"/>
  <path fill="var(--sapIllus_ObjectFillColor)" d="M230.3483 151.4816C230.3053 151.7536 230.4913 152.0106 230.7633 152.0546 230.7893 152.0586 230.8173 152.0606 230.8433 152.0606 231.0843 152.0606 231.2963 151.8856 231.3363 151.6396 231.4053 151.2136 231.4393 150.7786 231.4393 150.3446 231.4393 149.4666 231.5513 148.6076 231.7493 147.7756L230.7333 147.7756C230.5513 148.6116 230.4393 149.4676 230.4393 150.3446 230.4393 150.7256 230.4093 151.1076 230.3483 151.4816M238.1413 150.2931C238.1533 149.3501 238.4743 148.4841 238.9963 147.7751L237.8283 147.7751C237.4043 148.5411 237.1413 149.4091 237.1413 150.3451 237.1413 150.3621 237.1423 150.3811 237.1443 150.3971 237.1413 151.3351 237.0263 152.2651 236.8293 153.1731L237.8423 153.1731C238.0293 152.2451 238.1443 151.2991 238.1443 150.3451 238.1443 150.3271 238.1433 150.3111 238.1413 150.2931M234.7897 150.2921C234.7937 149.6731 234.8727 149.0551 235.0237 148.4541 235.0917 148.1871 234.9287 147.9141 234.6607 147.8471 234.3877 147.7801 234.1207 147.9421 234.0537 148.2101 233.8787 148.9071 233.7897 149.6251 233.7897 150.3451 233.7897 150.3621 233.7907 150.3801 233.7927 150.3971 233.7877 151.3481 233.6407 152.2771 233.3817 153.1731L234.4247 153.1731C234.6637 152.2571 234.7927 151.3101 234.7927 150.3451 234.7927 150.3271 234.7917 150.3101 234.7897 150.2921M242.4938 148.3429C241.3898 148.3429 240.4918 149.2409 240.4918 150.3449 240.4918 150.3619 240.4928 150.3779 240.4938 150.3949L240.4918 150.6309C240.4868 150.9069 240.7058 151.1349 240.9818 151.1409L240.9918 151.1409C241.2638 151.1409 241.4858 150.9229 241.4918 150.6509L241.4948 150.3449C241.4948 150.3299 241.4938 150.3159 241.4928 150.3009 241.5158 149.7689 241.9558 149.3429 242.4938 149.3429 243.0468 149.3429 243.4968 149.7919 243.4968 150.3449 243.4968 151.2929 243.4018 152.2379 243.2648 153.1729L244.2748 153.1729C244.4058 152.2369 244.4968 151.2929 244.4968 150.3449 244.4968 149.2409 243.5978 148.3429 242.4938 148.3429M241.0622 152.8371C240.8102 152.7741 240.5562 152.9251 240.4772 153.1731L241.4152 153.1731C241.3632 153.0121 241.2392 152.8781 241.0622 152.8371M247.2086 147.7755L246.1216 147.7755C246.1216 147.8735 246.1406 147.9715 246.1996 148.0585 246.6296 148.6835 246.8476 149.2095 246.8476 150.3445 246.8476 151.2975 246.7656 152.2395 246.6456 153.1725L247.6536 153.1725C247.7686 152.2385 247.8476 151.2975 247.8476 150.3445 247.8476 149.1335 247.6166 148.4395 247.2086 147.7755M250.6979 149.8449C250.4219 149.8449 250.1979 150.0689 250.1979 150.3449 250.1979 151.2969 250.1389 152.2399 250.0329 153.1729L251.0409 153.1729C251.1429 152.2399 251.1979 151.2959 251.1979 150.3449 251.1979 150.0689 250.9739 149.8449 250.6979 149.8449M254.2702 147.7755L253.2492 147.7755C253.4482 148.6095 253.5492 149.4695 253.5492 150.3445 253.5492 151.2875 253.4992 152.2385 253.4022 153.1725L254.4052 153.1725C254.4992 152.2375 254.5492 151.2875 254.5492 150.3445 254.5492 149.4715 254.4512 148.6125 254.2702 147.7755" class="sapIllus_ObjectFillColor"/>
</svg>