<svg width="45" height="46" viewBox="0 0 45 46" fill="none" xmlns="http://www.w3.org/2000/svg" id="tnt-Dot-Avatar">
<path fill-rule="evenodd" clip-rule="evenodd" d="M2.11758 42.3634V40.1078C2.11758 34.1023 6.98599 29.2339 12.9915 29.2339H32.0089C38.0144 29.2339 42.8828 34.1023 42.8828 40.1078V42.3634H2.11758Z" style="fill:var(--sapContent_Illustrative_Color8)"/>
<path fill-rule="evenodd" clip-rule="evenodd" d="M1.11757 43.3634H43.8828V40.1078C43.8828 33.55 38.5667 28.2339 32.0089 28.2339H12.9915C6.4337 28.2339 1.11757 33.55 1.11757 40.1078V43.3634ZM2.11757 40.1078C2.11757 34.1023 6.98599 29.2339 12.9915 29.2339H32.0089C38.0144 29.2339 42.8828 34.1023 42.8828 40.1078V42.3634H2.11757V40.1078Z" style="fill:var(--sapContent_Illustrative_Color4)"/>
<path d="M30.3496 38.2173C30.3496 37.5107 29.7769 36.938 29.0703 36.938H15.9278C15.2212 36.938 14.6485 37.5107 14.6485 38.2173V42.3633H30.3496V38.2173Z" style="fill:var(--sapContent_Illustrative_Color3)"/>
<path fill-rule="evenodd" clip-rule="evenodd" d="M9.26367 13.6074V18.1765V22.7456C9.26367 22.7456 6.05313 22.2743 6.17787 18.8407V18.1765V17.5128C6.05313 14.0787 9.26367 13.6074 9.26367 13.6074Z" style="fill:var(--sapContent_Illustrative_Color4)"/>
<path fill-rule="evenodd" clip-rule="evenodd" d="M35.9536 13.6074V18.1765V22.7456C35.9536 22.7456 39.1642 22.2743 39.0394 18.8407V18.1765V17.5128C39.1642 14.0787 35.9536 13.6074 35.9536 13.6074Z" style="fill:var(--sapContent_Illustrative_Color4)"/>
<path d="M9.21094 17.7171C9.25433 21.5919 10.3479 23.5363 13.2398 26.0479C18.446 29.7808 27.6089 29.0841 31.9227 26.036C34.5342 24.2574 36.0511 21.4324 36.0069 17.4138C35.9188 9.84573 30.4764 2.97785 22.6012 3.0608C14.7295 3.1429 9.12373 10.1473 9.21094 17.7171Z" style="fill:var(--sapContent_Illustrative_Color8)"/>
<path fill-rule="evenodd" clip-rule="evenodd" d="M12.6206 26.8327L12.6584 26.8598C15.4958 28.8942 19.3272 29.6756 22.9422 29.5836C26.5486 29.4918 30.1266 28.526 32.4932 26.8568C35.4082 24.8682 37.0543 21.7121 37.0068 17.4027L37.0068 17.4021C36.9139 9.41943 31.1456 1.9715 22.5917 2.0616C14.0679 2.1505 8.12034 9.71195 8.21269 17.7285C8.23546 19.7592 8.53456 21.3766 9.26381 22.8394C9.98857 24.2932 11.0962 25.5088 12.5855 26.8022L12.6206 26.8327ZM9.21178 17.717C9.25517 21.5918 10.3487 23.5362 13.2406 26.0478C18.4468 29.7807 27.6098 29.084 31.9236 26.0359C34.535 24.2573 36.052 21.4323 36.0077 17.4137C35.9197 9.84563 30.4773 2.97775 22.6021 3.0607C14.7303 3.1428 9.12458 10.1472 9.21178 17.717Z" style="fill:var(--sapContent_Illustrative_Color4)"/>
<path fill-rule="evenodd" clip-rule="evenodd" d="M11.8513 17.896C11.9163 23.66 16.3011 26.1583 22.7932 26.0897C29.2849 26.0188 33.5198 23.4046 33.4563 17.6442C33.3893 11.883 29.0434 8.14497 22.5513 8.21358C16.0616 8.28178 11.7847 12.1336 11.8513 17.896Z" style="fill:var(--sapContent_Illustrative_Color4)"/>
<circle cx="3.3467" cy="3.3467" r="3.3467" transform="matrix(-0.983212 -0.182469 -0.182469 0.983212 31.3242 11.7922)" style="fill:var(--sapContent_Illustrative_Color5)"/>
<path fill-rule="evenodd" clip-rule="evenodd" d="M22.5087 28.7609H22.8028C22.8028 28.7609 29.1239 28.9759 32.9454 25.6261C32.9564 25.6163 32.9735 25.6206 32.9726 25.6355C32.9424 26.1349 32.3864 31.8143 22.8028 31.8143H22.5087C12.9247 31.8143 12.3691 26.1349 12.3389 25.6355C12.338 25.6206 12.3551 25.6163 12.3661 25.6261C16.1876 28.9759 22.5087 28.7609 22.5087 28.7609Z" style="fill:var(--sapContent_Illustrative_Color4)"/>
</svg>
