<svg width="320" height="240" viewBox="0 0 320 240" id="tnt-Scene-Unlock">
  <path fill="var(--sapIllus_BackgroundColor)" d="M49.4662,32.8152 L248.3342,32.8152 C272.2232,32.8152 295.9042,58.1252 295.9042,82.0972 L295.9042,85.0392 C295.9042,109.0112 275.2232,134.5112 251.3342,134.5112 C243.1472,134.9782 239.1992,139.6962 239.1992,145.7832 L239.1892,145.9572 C239.1892,152.7592 246.4192,158.4342 254.2172,158.4342 L285.3732,158.4342 C303.4962,158.4672 318.1612,173.1842 318.130252,191.3072 L318.130252,192.2072 C318.1622,210.3302 303.4962,225.0472 285.3732,225.080215 L60.3562,225.080215 C42.1152,225.0972 27.2502,210.4492 27.0002,192.2112 L27.0002,191.4752 C27.2622,176.9692 36.8772,164.2992 50.7782,160.1432 L50.7692,160.1432 L50.7942,160.1392 C52.0312,159.7672 53.2902,159.4692 54.5632,159.2472 C60.7672,157.1272 65.4612,152.0712 65.4612,146.3932 L65.4672,146.2012 C65.4672,139.4022 58.7372,134.5112 50.9382,134.5112 L49.4662,134.5112 C25.4182,134.4682 0.9572,109.9392 1.00014339,85.8912 L1.00014339,82.4352 C0.9572,58.3872 25.4182,32.8582 49.4662,32.8152" class="sapIllus_BackgroundColor"/>
  <path fill="var(--sapIllus_StrokeDetailColor)" d="M104.0189,198.4734 L49.1249,198.4734 C48.8469,198.4934 48.6039,198.2834 48.5839,198.0044 C48.5639,197.7254 48.7739,197.4834 49.0529,197.4624 C49.0779,197.4614 49.1009,197.4614 49.1249,197.4624 L104.0189,197.4624 C104.2979,197.4434 104.5399,197.6534 104.5609,197.9314 C104.5809,198.2104 104.3709,198.4524 104.0919,198.4734 C104.0679,198.4744 104.0429,198.4744 104.0189,198.4734" class="sapIllus_StrokeDetailColor"/>
  <path fill="var(--sapIllus_BrandColorSecondary)" d="M264.2581,176.5163 C264.2581,177.6163 263.3671,178.5073 262.2671,178.5073 L152.5471,178.5073 C151.4471,178.5073 150.5561,177.6163 150.5561,176.5163 L150.5561,77.4183 C150.5561,76.3193 151.4471,75.4273 152.5471,75.4273 L262.2671,75.4273 C263.3671,75.4273 264.2581,76.3193 264.2581,77.4183 L264.2581,176.5163 Z M271.4471,62.1773 L143.3661,62.1773 C139.9041,62.1773 137.0981,64.9843 137.0981,68.4463 L137.0981,185.4883 C137.0981,188.9503 139.9041,191.7573 143.3661,191.7573 L271.4471,191.7573 C274.9101,191.7573 277.7171,188.9503 277.7171,185.4883 L277.7171,68.4463 C277.7171,64.9843 274.9101,62.1773 271.4471,62.1773 L271.4471,62.1773 Z" class="sapIllus_BrandColorSecondary"/>
  <path fill="var(--sapIllus_StrokeDetailColor)" d="M281.5697,197.863 C281.5117,197.591 281.2437,197.416 280.9707,197.473 L257.8207,197.473 C259.3667,196.967 260.4917,195.53 260.4917,193.814 L260.4917,191.758 L235.8157,191.758 L235.8157,193.814 C235.8157,195.53 236.9397,196.967 238.4857,197.473 L176.6137,197.473 C178.1597,196.967 179.2837,195.53 179.2837,193.814 L179.2837,191.758 L154.6077,191.758 L154.6077,193.814 C154.6077,195.53 155.7327,196.967 157.2787,197.473 L110.1847,197.473 C110.1167,197.459 110.0457,197.459 109.9767,197.473 C109.7047,197.531 109.5297,197.799 109.5877,198.071 C109.6447,198.344 109.9127,198.518 110.1847,198.461 L280.9707,198.461 C281.0407,198.475 281.1107,198.475 281.1797,198.461 C281.4527,198.403 281.6277,198.135 281.5697,197.863" class="sapIllus_StrokeDetailColor"/>
  <path fill="var(--sapIllus_Layering1)" d="M49.8871 62.4001C49.5851 62.4001 49.3411 62.1641 49.3411 61.8721L49.3411 57.4701C49.3411 57.1781 49.5851 56.9431 49.8871 56.9431 50.1891 56.9431 50.4331 57.1781 50.4331 57.4701L50.4331 61.8721C50.4331 62.1641 50.1891 62.4001 49.8871 62.4001M49.8871 53.4665C49.5851 53.4665 49.3411 53.2305 49.3411 52.9385L49.3411 48.5395C49.3411 48.2465 49.5851 48.0105 49.8871 48.0105 50.1891 48.0105 50.4331 48.2465 50.4331 48.5395L50.4331 52.9385C50.4331 53.2305 50.1891 53.4665 49.8871 53.4665M47.3197 55.7048L42.9107 55.7048C42.6187 55.7048 42.3827 55.4608 42.3827 55.1588 42.3827 54.8578 42.6187 54.6138 42.9107 54.6138L47.3197 54.6138C47.6117 54.6138 47.8487 54.8578 47.8487 55.1588 47.8487 55.4608 47.6117 55.7048 47.3197 55.7048M57.0277 55.7048L52.6247 55.7048C52.3317 55.7048 52.0947 55.4608 52.0947 55.1588 52.0947 54.8578 52.3317 54.6138 52.6247 54.6138L57.0277 54.6138C57.3197 54.6138 57.5567 54.8578 57.5567 55.1588 57.5567 55.4608 57.3197 55.7048 57.0277 55.7048M294.4173 187.3679C294.1413 187.3679 293.9173 187.1509 293.9173 186.8839L293.9173 182.8519C293.9173 182.5859 294.1413 182.3689 294.4173 182.3689 294.6933 182.3689 294.9173 182.5859 294.9173 182.8519L294.9173 186.8839C294.9173 187.1509 294.6933 187.3679 294.4173 187.3679M294.4193 175.3679C294.1433 175.3679 293.9193 175.1509 293.9193 174.8839L293.9193 170.8539C293.9193 170.5869 294.1433 170.3699 294.4193 170.3699 294.6953 170.3699 294.9193 170.5869 294.9193 170.8539L294.9193 174.8839C294.9193 175.1509 294.6953 175.3679 294.4193 175.3679M290.4359 179.3679L286.3979 179.3679C286.1289 179.3679 285.9139 179.1439 285.9139 178.8679 285.9139 178.5919 286.1289 178.3679 286.3979 178.3679L290.4359 178.3679C290.7039 178.3679 290.9199 178.5919 290.9199 178.8679 290.9199 179.1439 290.7039 179.3679 290.4359 179.3679M302.433 179.3679L298.399 179.3679C298.131 179.3679 297.914 179.1439 297.914 178.8679 297.914 178.5919 298.131 178.3679 298.399 178.3679L302.433 178.3679C302.701 178.3679 302.917 178.5919 302.917 178.8679 302.917 179.1439 302.701 179.3679 302.433 179.3679M274.5755 15.0095C274.2955 14.9715 274.0215 15.0445 273.8015 15.2135 273.5765 15.3825 273.4325 15.6285 273.3945 15.9055L271.5735 29.1795C271.5615 29.2435 271.5575 29.3125 271.5615 29.3805 271.5835 29.8865 271.9645 30.3045 272.4695 30.3735 272.5305 30.3815 272.5935 30.3845 272.6535 30.3815 273.1505 30.3605 273.5785 29.9855 273.6485 29.4765L275.4715 16.1975C275.5125 15.9235 275.4425 15.6485 275.2735 15.4225 275.1035 15.1955 274.8555 15.0485 274.5755 15.0095M300.3548 23.1267C299.9228 22.7417 299.2578 22.7817 298.8738 23.2147L289.9718 33.2467C289.7728 33.4747 289.6808 33.7757 289.7188 34.0747 289.7508 34.3267 289.8738 34.5587 290.0628 34.7277 290.2978 34.9357 290.6028 35.0197 290.8928 34.9817 291.1348 34.9507 291.3688 34.8357 291.5438 34.6387L300.4458 24.6057C300.8278 24.1707 300.7858 23.5077 300.3548 23.1267M313.2162 44.695C313.1222 44.43 312.9302 44.219 312.6752 44.1 312.4222 43.981 312.1382 43.966 311.8752 44.062L299.2552 48.594C298.8202 48.75 298.5412 49.166 298.5622 49.628 298.5662 49.731 298.5862 49.835 298.6212 49.937 298.7812 50.38 299.2102 50.649 299.6552 50.63 299.7592 50.626 299.8622 50.605 299.9642 50.569L312.5842 46.037C313.1332 45.839 313.4112 45.251 313.2162 44.695" class="sapIllus_Layering1"/>
  <path fill="var(--sapIllus_PatternShadow)" d="M271.4593,191.7575 L143.1033,191.7575 C141.1623,191.7575 138.8943,190.5355 137.7443,188.2615 C137.3963,187.5715 137.6473,186.7005 138.4193,186.6395 L261.5433,176.8335 C262.1483,176.7855 262.6313,176.3075 262.6853,175.7015 L272.5893,64.4715 C272.6563,63.7055 273.1033,62.3465 273.8133,62.6395 C276.1043,63.5825 277.6153,65.7725 277.7173,68.1755 L277.7173,185.4995 C277.7173,188.9555 274.9153,191.7575 271.4593,191.7575" class="sapIllus_PatternShadow"/>
  <path fill="var(--sapIllus_ObjectFillColor)" d="M39.2113,178.5075 L148.8133,178.5075 C149.9123,178.5075 150.8043,177.6155 150.8043,176.5165 L150.8043,77.5265 C150.8043,76.4265 149.9123,75.5345 148.8133,75.5345 L39.2113,75.5345 C38.1113,75.5345 37.2203,76.4265 37.2203,77.5265 L37.2203,176.5165 C37.2203,177.6155 38.1113,178.5075 39.2113,178.5075" class="sapIllus_ObjectFillColor"/>
  <path fill="var(--sapIllus_StrokeDetailColor)" d="M150.3041,176.5163 C150.3041,177.3383 149.6351,178.0073 148.8131,178.0073 L39.2111,178.0073 C38.3891,178.0073 37.7201,177.3383 37.7201,176.5163 L37.7201,77.5263 C37.7201,76.7033 38.3891,76.0353 39.2111,76.0353 L148.8131,76.0353 C149.6351,76.0353 150.3041,76.7033 150.3041,77.5263 L150.3041,93.3403 C149.3601,93.6633 148.6741,94.5503 148.6741,95.6033 L148.6741,116.1703 C148.6741,117.2233 149.3601,118.1113 150.3041,118.4343 L150.3041,136.8913 C149.3601,137.2143 148.6741,138.1013 148.6741,139.1543 L148.6741,159.7213 C148.6741,160.7743 149.3601,161.6623 150.3041,161.9853 L150.3041,176.5163 Z M262.2671,75.4273 L152.5471,75.4273 C151.8861,75.4273 151.3031,75.7533 150.9421,76.2503 C150.5051,75.5263 149.7191,75.0353 148.8131,75.0353 L39.2111,75.0353 C37.8371,75.0353 36.7201,76.1523 36.7201,77.5263 L36.7201,176.5163 C36.7201,177.8903 37.8371,179.0073 39.2111,179.0073 L148.8131,179.0073 C149.7451,179.0073 150.5501,178.4873 150.9771,177.7273 C151.3411,178.1983 151.9061,178.5073 152.5471,178.5073 L262.2671,178.5073 C263.3671,178.5073 264.2581,177.6163 264.2581,176.5163 L264.2581,77.4183 C264.2581,76.3193 263.3671,75.4273 262.2671,75.4273 L262.2671,75.4273 Z" class="sapIllus_StrokeDetailColor"/>
  <path fill="var(--sapIllus_ObjectFillColor)" d="M151.0755 94.2019C150.3035 94.2019 149.6745 94.8309 149.6745 95.6029L149.6745 116.1709C149.6745 116.9439 150.3035 117.5729 151.0755 117.5729 151.8485 117.5729 152.4775 116.9439 152.4775 116.1709L152.4775 95.6029C152.4775 94.8309 151.8485 94.2019 151.0755 94.2019M151.0755 137.7526C150.3035 137.7526 149.6745 138.3816 149.6745 139.1536L149.6745 159.7216C149.6745 160.4946 150.3035 161.1236 151.0755 161.1236 151.8485 161.1236 152.4775 160.4946 152.4775 159.7216L152.4775 139.1536C152.4775 138.3816 151.8485 137.7526 151.0755 137.7526" class="sapIllus_ObjectFillColor"/>
  <path fill="var(--sapIllus_BackgroundColor)" d="M138.223,168.0583 L49.801,168.0583 C48.565,168.0583 47.563,167.0563 47.563,165.8203 L47.563,88.5763 C47.563,87.3393 48.565,86.3373 49.801,86.3373 L138.223,86.3373 C139.459,86.3373 140.462,87.3393 140.462,88.5763 L140.462,165.8203 C140.462,167.0563 139.459,168.0583 138.223,168.0583" class="sapIllus_BackgroundColor"/>
  <path fill="var(--sapIllus_PatternHighlight)" d="M262.2591,178.5075 L152.5471,178.5075 C151.4471,178.5075 150.5561,177.6145 150.5561,176.5155 L164.9991,160.6035 L248.1541,160.6035 L264.2501,176.5175 C264.2501,177.6155 263.3591,178.5075 262.2591,178.5075" class="sapIllus_PatternHighlight"/>
  <path fill="var(--sapIllus_Layering2)" d="M105.4877,104.698 C92.9857,103.498 81.8777,112.661 80.6777,125.163 C79.4777,137.666 88.6407,148.773 101.1427,149.973 C113.6457,151.173 124.7537,142.011 125.9537,129.509 C127.1527,117.006 117.9907,105.898 105.4877,104.698" class="sapIllus_Layering2"/>
  <path fill="var(--sapIllus_AccentColor)" d="M55.5755 110.4216C55.5755 111.9576 56.8205 113.2036 58.3575 113.2036 59.8945 113.2036 61.1395 111.9576 61.1395 110.4216 61.1395 108.8846 59.8945 107.6396 58.3575 107.6396 56.8205 107.6396 55.5755 108.8846 55.5755 110.4216M55.5755 144.2497C55.5755 145.7857 56.8205 147.0317 58.3575 147.0317 59.8945 147.0317 61.1395 145.7857 61.1395 144.2497 61.1395 142.7127 59.8945 141.4677 58.3575 141.4677 56.8205 141.4677 55.5755 142.7127 55.5755 144.2497" class="sapIllus_AccentColor"/>
</svg>
