<svg width="161" height="160" viewBox="0 0 161 160" fill="none" xmlns="http://www.w3.org/2000/svg" id="tnt-Dialog-Help">
<circle cx="81.895" cy="80" r="70.9126" style="fill:var(--sapContent_Illustrative_Color7)"/>
<circle cx="104.984" cy="26.5076" r="2.53875" transform="rotate(180 104.984 26.5076)" style="fill:var(--sapContent_Illustrative_Color18)"/>
<path fill-rule="evenodd" clip-rule="evenodd" d="M72.8677 132.513C74.7956 132.513 76.3585 130.95 76.3585 129.022C76.3585 127.094 74.7956 125.531 72.8677 125.531C70.9398 125.531 69.377 127.094 69.377 129.022C69.377 130.95 70.9398 132.513 72.8677 132.513ZM72.8674 131.582C74.2812 131.582 75.4273 130.436 75.4273 129.022C75.4273 127.608 74.2812 126.462 72.8674 126.462C71.4536 126.462 70.3075 127.608 70.3075 129.022C70.3075 130.436 71.4536 131.582 72.8674 131.582Z" style="fill:var(--sapContent_Illustrative_Color18)"/>
<path d="M108.347 134.1C108.347 134.976 107.637 135.687 106.761 135.687C105.884 135.687 105.174 134.976 105.174 134.1C105.174 133.224 105.884 132.513 106.761 132.513C107.637 132.513 108.347 133.224 108.347 134.1Z" style="fill:var(--sapContent_Illustrative_Color18)"/>
<path d="M73.1863 98.2478C73.2858 98.0099 73.0121 97.7958 72.793 97.9489L41.592 119.845L34.0947 128.165L71.5004 101.432C71.9079 101.132 72.229 100.722 72.4171 100.254L73.1863 98.2478Z" style="fill:var(--sapContent_Illustrative_Color19)"/>
<path d="M43.5263 48.8386C42.834 47.7218 41.4351 47.2982 40.2455 47.8514L6.55532 63.2635L41.6105 119.848L72.1838 99.8654C73.3609 99.0904 73.7055 97.5216 72.9724 96.3297L43.5263 48.8386Z" style="fill:var(--sapContent_Illustrative_Color18)"/>
<path d="M6.55664 63.2632L0.760767 72.7142L34.1059 128.156L41.6032 119.836L6.55664 63.2632Z" style="fill:var(--sapContent_Illustrative_Color7)"/>
<path d="M41.1037 49.6594C40.9211 49.3565 40.5119 49.2657 40.209 49.4484C39.9061 49.631 39.8154 50.0402 39.998 50.3431L69.295 97.8257C69.4777 98.1286 69.8868 98.2194 70.1897 98.0367C70.4926 97.8541 70.5834 97.4449 70.4007 97.142L41.1037 49.6594Z" style="fill:var(--sapContent_Illustrative_Color19)"/>
<path d="M7.3215 63.3083C7.13885 63.0054 6.7297 62.9146 6.4268 63.0973C6.12389 63.2799 6.03314 63.6891 6.2158 63.992L40.6122 119.754C40.7949 120.057 41.204 120.148 41.5069 119.965C41.8098 119.782 41.9006 119.373 41.7179 119.07L7.3215 63.3083Z" style="fill:var(--sapContent_Illustrative_Color19)"/>
<path d="M6.01486 66.0185C5.83221 65.7156 5.42306 65.6248 5.12016 65.8075C4.81725 65.9901 4.7265 66.3993 4.90916 66.7022L38.8156 121.653C38.9983 121.956 39.4074 122.046 39.7103 121.864C40.0132 121.681 40.104 121.272 39.9213 120.969L6.01486 66.0185Z" style="fill:var(--sapContent_Illustrative_Color19)"/>
<path d="M4.52756 68.4069C4.3449 68.104 3.93576 68.0133 3.63285 68.1959C3.32995 68.3786 3.23919 68.7877 3.42185 69.0906L37.0852 123.661C37.2678 123.964 37.677 124.054 37.9799 123.872C38.2828 123.689 38.3736 123.28 38.1909 122.977L4.52756 68.4069Z" style="fill:var(--sapContent_Illustrative_Color19)"/>
<path d="M3.07834 70.7297C2.89568 70.4268 2.48654 70.336 2.18363 70.5187C1.88073 70.7013 1.78997 71.1105 1.97263 71.4134L35.3435 125.517C35.5261 125.82 35.9353 125.91 36.2382 125.728C36.5411 125.545 36.6318 125.136 36.4492 124.833L3.07834 70.7297Z" style="fill:var(--sapContent_Illustrative_Color19)"/>
<path d="M1.28537 72.9997C1.10271 72.6968 0.69357 72.606 0.390666 72.7887C0.0877619 72.9714 -0.00299506 73.3805 0.179663 73.6834L33.611 127.864C33.7936 128.167 34.2028 128.258 34.5057 128.075C34.8086 127.893 34.8993 127.484 34.7167 127.181L1.28537 72.9997Z" style="fill:var(--sapContent_Illustrative_Color19)"/>
<path d="M54.7209 25.4702L58.2244 24.8861L59.86 34.5279L56.3441 35.1211L54.7209 25.4702Z" style="fill:var(--sapContent_Illustrative_Color20)"/>
<path d="M78.623 93.2283L40.0391 105.332C38.3906 105.845 36.658 104.931 36.142 103.304L18.5303 47.1587C18.0177 45.5102 18.9315 43.7777 20.5585 43.2617L59.1514 31.1705C60.8 30.6579 62.5325 31.5717 63.0485 33.1986L80.6602 89.3438C81.1728 90.9923 80.2591 92.7248 78.6321 93.2408L78.623 93.2283Z" style="fill:var(--sapContent_Illustrative_Color20)"/>
<path d="M46.5095 30.6988L49.8643 29.5172L53.1008 38.7383L49.746 39.9199L46.5095 30.6988Z" style="fill:var(--sapContent_Illustrative_Color20)"/>
<path d="M79.3781 91.4601L40.8191 103.336C39.183 103.839 37.4505 102.926 36.947 101.29L19.6709 45.1864C19.1673 43.5504 20.0811 41.8178 21.7171 41.3143L60.2761 29.4386C61.9122 28.935 63.6447 29.8488 64.1482 31.4848L81.4368 87.579C81.9403 89.215 81.0266 90.9476 79.3905 91.4511L79.3781 91.4601Z" style="fill:var(--sapContent_Illustrative_Color19)"/>
<path d="M32.2873 50.9969L54.9846 44.0032L57.4727 52.0905L34.7754 59.0842L32.2873 50.9969Z" style="fill:var(--sapContent_Illustrative_Color7)"/>
<path d="M156.351 84.5753C159.194 77.9622 156.696 70.26 150.505 66.5743L111.516 43.2896C113.672 47.0756 113.931 51.842 111.794 56.0064L89.3882 99.5905C89.0955 100.157 88.833 100.743 88.6185 101.334C86.5094 107.497 89.1922 114.442 95.1637 117.502C97.8583 118.885 100.8 119.258 103.563 118.784L145.198 125.116L144.327 121.852C142.635 115.46 143.423 108.657 146.548 102.823L156.337 84.5574L156.351 84.5753Z" style="fill:var(--sapContent_Illustrative_Color18)"/>
<path d="M116.155 107.412L160.161 121.674C149.887 125.788 145.401 127.994 134.541 125.827L99.4197 118.855C99.2135 118.815 99.2328 118.509 99.4605 118.503L102.924 118.433C107.84 118.143 112.19 114.754 114.048 110.201L114.951 108.002C115.153 107.523 115.684 107.276 116.171 107.414L116.155 107.412Z" style="fill:var(--sapContent_Illustrative_Color19)"/>
<path d="M143.284 92.3719L112.512 80.0636C111.473 79.6513 110.313 80.1494 109.884 81.1865C109.472 82.2255 109.97 83.3862 111.009 83.7986L141.781 96.1069C142.82 96.5192 143.981 96.0211 144.409 94.984C144.821 93.9449 144.323 92.7842 143.284 92.3719Z" style="fill:var(--sapContent_Illustrative_Color19)"/>
<path d="M138.391 101.553L107.127 90.5502C106.083 90.1859 104.933 90.7339 104.552 91.7766C104.188 92.8211 104.736 93.9714 105.779 94.3518L137.042 105.354C138.087 105.719 139.237 105.171 139.618 104.128C139.982 103.084 139.434 101.933 138.391 101.553Z" style="fill:var(--sapContent_Illustrative_Color19)"/>
<path d="M80.1159 110.626C97.0305 110.626 110.742 96.9145 110.742 79.9999C110.742 63.0853 97.0305 49.3733 80.1159 49.3733C63.2013 49.3733 49.4893 63.0853 49.4893 79.9999C49.4893 96.9145 63.2013 110.626 80.1159 110.626Z" style="fill:var(--sapContent_Illustrative_Color14)"/>
<path fill-rule="evenodd" clip-rule="evenodd" d="M80.1034 96.3772C82.2819 96.3772 84.1881 94.471 84.1881 92.2925C84.1881 90.114 82.2819 88.2079 80.1034 88.2079C77.9249 88.2079 76.0188 90.114 76.0188 92.2925C76.0188 94.471 77.9249 96.3772 80.1034 96.3772ZM77.3803 82.7614C77.3803 84.2591 78.6057 85.4845 80.1034 85.4845C81.3833 85.4845 82.4453 84.6131 82.7449 83.4421C83.0515 83.2377 83.5738 82.9614 84.0195 82.7256C84.0489 82.7101 84.0779 82.6948 84.1064 82.6797C86.6934 81.3181 90.996 79.0307 90.996 73.2304C90.996 67.8931 86.2033 63.6995 80.1034 63.6995C74.0036 63.6995 69.2109 67.8931 69.2109 73.2304C69.2109 74.7281 70.4363 75.9535 71.9341 75.9535C73.4318 75.9535 74.6572 74.7281 74.6572 73.2304C74.6572 70.943 77.0535 69.1457 80.1034 69.1457C83.1533 69.1457 85.5497 70.943 85.5497 73.2304C85.5497 75.5178 84.2971 76.4437 81.5739 77.8597C79.695 78.84 77.3803 80.0655 77.3803 82.7614Z" style="fill:var(--sapContent_Illustrative_Color8)"/>
<path fill-rule="evenodd" clip-rule="evenodd" d="M80.1162 115.444C99.6915 115.444 115.56 99.5753 115.56 79.9999C115.56 60.4246 99.6915 44.5557 80.1162 44.5557C60.5408 44.5557 44.6719 60.4246 44.6719 79.9999C44.6719 99.5753 60.5408 115.444 80.1162 115.444ZM80.1162 118.197C101.212 118.197 118.313 101.096 118.313 79.9999C118.313 58.9042 101.212 41.8027 80.1162 41.8027C59.0204 41.8027 41.9189 58.9042 41.9189 79.9999C41.9189 101.096 59.0204 118.197 80.1162 118.197Z" style="fill:var(--sapContent_Illustrative_Color3)"/>
</svg>
