<svg width="320" height="240" viewBox="0 0 320 240" fill="none" xmlns="http://www.w3.org/2000/svg" id="tnt-Scene-Settings">
<path d="M305.547 20H14.4533C12.5559 19.9983 10.6768 20.3705 8.92329 21.0954C7.16981 21.8203 5.57638 22.8836 4.23409 24.2247C2.8918 25.5657 1.82697 27.1582 1.10045 28.911C0.373942 30.6638 -8.08861e-07 32.5426 0 34.44V205.547C0 209.38 1.52275 213.056 4.23328 215.767C6.9438 218.477 10.6201 220 14.4533 220H305.547C309.38 220 313.056 218.477 315.767 215.767C318.477 213.056 320 209.38 320 205.547V34.44C320 32.5426 319.626 30.6638 318.9 28.911C318.173 27.1582 317.108 25.5657 315.766 24.2247C314.424 22.8836 312.83 21.8203 311.077 21.0954C309.323 20.3705 307.444 19.9983 305.547 20Z" style="fill:var(--sapContent_Illustrative_Color7)"/>
<path d="M38.5019 181.691C38.5019 180.333 34.5592 179.246 29.2911 178.999C28.9899 173.737 27.8303 169.825 26.4718 169.828C25.1134 169.831 23.9839 173.773 23.6948 179.062C18.4117 179.423 14.4839 180.604 14.502 181.965C14.5201 183.326 18.4448 184.414 23.7128 184.658C24.0291 189.919 25.1737 193.831 26.5291 193.828C27.8845 193.825 29.02 189.883 29.3092 184.594C34.5923 184.233 38.517 183.052 38.5019 181.691Z" style="fill:var(--sapContent_Illustrative_Color18)"/>
<path d="M293.434 192.616C293.434 191.711 290.805 190.986 287.293 190.821C287.092 187.314 286.319 184.706 285.414 184.708C284.508 184.71 283.755 187.338 283.562 190.863C280.04 191.104 277.422 191.891 277.434 192.799C277.446 193.706 280.062 194.431 283.574 194.594C283.785 198.101 284.548 200.71 285.452 200.708C286.355 200.706 287.112 198.077 287.305 194.552C290.827 194.311 293.444 193.524 293.434 192.616Z" style="fill:var(--sapContent_Illustrative_Color18)"/>
<path d="M214.57 43.4846C214.57 42.1263 210.628 41.0391 205.359 40.7921C205.058 35.5307 203.899 31.6186 202.54 31.6216C201.182 31.6246 200.052 35.5669 199.763 40.8554C194.48 41.2168 190.552 42.3973 190.57 43.7586C190.588 45.1199 194.513 46.2071 199.781 46.451C200.097 51.7124 201.242 55.6246 202.597 55.6216C203.953 55.6186 205.088 51.6763 205.378 46.3878C210.661 46.0264 214.585 44.8458 214.57 43.4846Z" style="fill:var(--sapContent_Illustrative_Color18)"/>
<rect x="60.8906" y="55.0828" width="5.7116" height="7.67057" style="fill:var(--sapContent_Illustrative_Color18)"/>
<path fill-rule="evenodd" clip-rule="evenodd" d="M52.8344 18.5845L52.0741 19.0568L52.0849 19.0612L49.8582 20.4774C48.9094 21.0809 48.3777 22.2092 48.3659 23.6686C48.3567 24.8139 48.6669 26.0501 49.264 27.2508L51.566 31.9194L42.4786 37.5641C41.2125 37.9875 40.402 39.2464 40.3873 41.0562L40.3244 48.8333C40.3028 51.5119 42.0309 54.5845 44.4288 56.1285L50.13 59.817C50.701 62.1553 51.4572 64.5229 52.3821 66.8751L49.0159 70.4312C48.4039 71.0777 48.0758 72.0399 48.0666 73.1852C48.0548 74.6445 48.5642 76.2686 49.4964 77.7157L54.4562 85.5328C56.1539 88.2021 58.8556 89.6999 60.8498 89.0565L65.5987 87.5247C67.3538 89.3489 69.1777 91.0007 71.0703 92.4986L71.9612 99.0626C72.3429 101.889 74.3929 104.757 76.828 105.873L83.8981 109.113C85.4461 109.823 86.8511 109.688 87.7783 108.864L98.9887 101.924L88.5872 96.9202L88.3989 98.5695C86.0176 97.4149 84.0293 94.5957 83.654 91.8167L82.7632 85.2526C81.0504 83.8971 79.3938 82.4155 77.7936 80.794C77.5597 80.6477 77.3273 80.4968 77.0967 80.3417L72.5427 81.8105C70.5485 82.454 67.8468 80.9562 66.1491 78.2868L61.1893 70.4697C60.257 69.0227 59.7476 67.3986 59.7594 65.9393C59.7687 64.7939 60.0967 63.8318 60.7088 63.1852L63.7265 59.9974C63.5872 59.2752 63.4791 58.5539 63.4037 57.8362C62.7782 56.0772 62.249 54.316 61.8228 52.571L56.1217 48.8826C53.7948 47.3843 52.0986 44.4466 52.0199 41.8263L55.7101 43.3334L54.078 30.3591L53.1348 30.9449C53.8861 30.2224 54.9877 29.9664 56.2718 30.3174L61.8557 31.8383C62.461 29.9464 63.2671 28.2207 64.2405 26.6644L62.6114 23.3604L65.6605 24.6057L64.0284 11.6313L55.2873 17.0609C55.1561 17.119 55.0292 17.1873 54.9072 17.2662L52.8344 18.5845Z" style="fill:var(--sapContent_Illustrative_Color18)"/>
<path fill-rule="evenodd" clip-rule="evenodd" d="M61.4723 62.3733L49.6076 69.8007L49.012 70.4299C48.4 71.0764 48.072 72.0386 48.0627 73.1839C48.0509 74.6432 48.5603 76.2673 49.4925 77.7144L54.4523 85.5315C56.1501 88.2008 58.8517 89.6986 60.8459 89.0552L65.5948 87.5234C67.3499 89.3476 69.1739 90.9994 71.0665 92.4973L71.9573 99.0613C72.324 101.777 74.231 104.531 76.5399 105.733L88.1686 98.4528C85.8887 97.234 84.0135 94.5059 83.6502 91.8154L82.7593 85.2513C81.0465 83.8958 79.3899 82.4142 77.7897 80.7927C77.5558 80.6464 77.3235 80.4955 77.0928 80.3404L72.5388 81.8092C70.5446 82.4527 67.8429 80.9549 66.1452 78.2855L61.1854 70.4684C60.2532 69.0214 59.7438 67.3973 59.7556 65.938C59.7648 64.7926 60.0929 63.8305 60.7049 63.184L61.4723 62.3733ZM88.4268 98.2912L89.7334 97.4732L88.5834 96.9199L88.4268 98.2912Z" style="fill:var(--sapContent_Illustrative_Color19)"/>
<path fill-rule="evenodd" clip-rule="evenodd" d="M55.6663 48.563L44.0273 55.8491C44.1599 55.947 44.2948 56.0403 44.4319 56.1286L50.1331 59.817C50.1663 59.9531 50.2002 60.0893 50.2346 60.2256L61.9114 52.9158C61.8825 52.8008 61.854 52.6859 61.8259 52.5711L56.1248 48.8827C55.969 48.7824 55.8161 48.6756 55.6663 48.563ZM67.0925 79.5372L55.4419 86.8306C57.088 88.6639 59.2104 89.5865 60.8529 89.0565L65.6018 87.5248C67.3569 89.349 69.1808 91.0008 71.0734 92.4986L71.1257 92.8841L82.8094 85.5701L82.7663 85.2527C81.0535 83.8971 79.3969 82.4155 77.7967 80.7941C77.5628 80.6477 77.3304 80.4969 77.0997 80.3417L72.5457 81.8106C70.8892 82.3451 68.7444 81.402 67.0925 79.5372ZM84.9212 95.2595L73.2612 102.559C74.1625 104.015 75.4334 105.232 76.8311 105.873L83.9012 109.113C85.4481 109.822 86.8521 109.688 87.7794 108.865L98.9918 101.925L88.5903 96.9207L88.4021 98.5696C87.0355 97.907 85.7984 96.6963 84.9212 95.2595Z" style="fill:var(--sapContent_Illustrative_Color20)"/>
<path d="M119.459 88.3755L131.266 81.0665L120.865 76.0625L119.459 88.3755Z" style="fill:var(--sapContent_Illustrative_Color20)"/>
<path d="M85.3683 10.323L73.4141 17.7484L87.0004 23.2974L85.3683 10.323Z" style="fill:var(--sapContent_Illustrative_Color18)"/>
<path fill-rule="evenodd" clip-rule="evenodd" d="M108.965 96.1127L107.037 93.6887C105.282 93.9227 103.445 93.9335 101.559 93.718L100.534 99.5523C100.151 101.767 98.4221 102.778 96.3008 102.137L99.9165 106.683C101.886 109.143 104.591 110.142 106.32 109.024L110.582 106.314L119.397 100.857L108.995 95.853L108.965 96.1127Z" style="fill:var(--sapContent_Illustrative_Color20)"/>
<path fill-rule="evenodd" clip-rule="evenodd" d="M83.1193 18.1664L84.1268 12.3983C84.5512 9.94139 86.6323 8.96694 89.0671 10.12L96.1372 13.3604C98.5723 14.4765 100.622 17.3444 101.004 20.1707L101.894 26.8087C103.77 28.2988 105.594 29.9875 107.349 31.8117L112.047 30.2939C114.041 29.6504 116.743 31.1482 118.441 33.8176L123.401 41.6162C124.333 43.0817 124.842 44.6873 124.83 46.1467C124.821 47.292 124.493 48.2541 123.881 48.9007L120.515 52.4937C121.423 54.8382 122.162 57.1981 122.733 59.5549L128.367 63.1941C130.765 64.7381 132.493 67.8107 132.472 70.4893L132.408 78.2849C132.387 80.9634 130.622 82.4351 128.217 81.7778L122.566 80.2261C121.979 81.9779 121.241 83.6051 120.335 85.0629L123.652 91.7932C124.249 92.9939 124.56 94.2301 124.55 95.3754C124.538 96.8347 124.007 97.9631 123.058 98.5666L118.009 101.778C116.281 102.895 113.575 101.896 111.606 99.4363L107.034 93.6882C105.279 93.9222 103.442 93.933 101.555 93.7175L100.531 99.5518C100.106 102.009 98.025 102.983 95.5899 101.867L88.5198 98.6266C86.0847 97.5106 84.0347 94.6427 83.653 91.8163L82.7621 85.2523C80.8695 83.7544 79.0456 82.1026 77.2905 80.2785L72.5416 81.8102C70.5474 82.4536 67.8457 80.9558 66.148 78.2865L61.1882 70.4694C60.256 69.0223 59.7466 67.3982 59.7584 65.9389C59.7676 64.7936 60.0957 63.8314 60.7077 63.1849L64.074 59.6289C63.1491 57.2766 62.3928 54.909 61.8218 52.5707L56.1206 48.8823C53.7227 47.3382 51.9946 44.2656 52.0162 41.587L52.0791 33.8099C52.1008 31.1314 53.8657 29.6597 56.2708 30.317L61.8546 31.8379C62.4599 29.946 63.2661 28.2203 64.2395 26.664L60.9559 20.0045C60.3588 18.8038 60.0485 17.5676 60.0578 16.4223C60.0696 14.963 60.6012 13.8346 61.55 13.2311L66.599 10.0199C68.3274 8.9023 71.0331 9.90139 73.0022 12.3614L77.6244 18.1511C79.3792 17.9355 81.2164 17.9432 83.1193 18.1664ZM109.52 63.8728C109.605 53.3777 101.939 41.3247 92.3977 36.9518C82.8567 32.5788 75.0533 37.5418 74.9684 48.0369C74.8835 58.5321 82.5493 70.585 92.0903 74.958C101.631 79.3309 109.435 74.3679 109.52 63.8728Z" style="fill:var(--sapContent_Illustrative_Color19)"/>
<path d="M97.0022 76.4289C97.5246 74.8714 97.8137 73.0929 97.8297 71.1186C97.9146 60.6235 90.2488 48.5706 80.7078 44.1976C79.0048 43.4171 77.3571 42.934 75.7988 42.7267C78.0536 36.0049 84.6544 33.4014 92.4007 36.9517C93.2618 37.3464 94.1077 37.8037 94.934 38.3168C95.3457 38.5724 95.3856 38.5938 95.9314 38.9694C102.513 43.4995 107.684 51.533 109.123 59.4207C109.232 60.0227 109.323 60.6389 109.39 61.2658C109.484 62.1419 109.53 63.0125 109.523 63.8728C109.453 72.4946 104.174 77.3829 97.0022 76.4289Z" style="fill:var(--sapContent_Illustrative_Color20)"/>
<path fill-rule="evenodd" clip-rule="evenodd" d="M97.8245 71.4347C97.7818 73.2832 97.4964 74.9551 97.002 76.4291C104.174 77.3831 109.453 72.4948 109.522 63.873C109.528 63.1198 109.495 62.3586 109.423 61.5928C106.101 68.1625 101.62 70.9105 97.8245 71.4347Z" style="fill:var(--sapContent_Illustrative_Color18)"/>
<path fill-rule="evenodd" clip-rule="evenodd" d="M265.507 113.628L274.343 115.098C278.107 115.716 279.623 118.888 277.889 122.627L273.02 133.482C271.343 137.22 266.981 140.392 262.662 141.011L252.519 142.455C250.263 145.343 247.702 148.153 244.934 150.86L247.314 158.028C248.323 161.071 246.065 165.222 242.003 167.852L230.135 175.536C227.904 176.98 225.454 177.779 223.222 177.779C221.47 177.779 219.994 177.289 218.997 176.361L213.46 171.256C209.884 172.674 206.284 173.834 202.686 174.737L197.188 183.4C194.856 187.087 190.177 189.769 186.08 189.769H174.154C170.056 189.769 167.783 187.087 168.759 183.4L171.063 174.737C168.376 173.86 165.878 172.751 163.636 171.385L153.382 176.542C151.553 177.47 149.666 177.96 147.914 177.96C145.681 177.96 143.949 177.16 143.014 175.716L138.039 168.033C136.308 165.403 137.803 161.251 141.541 158.209L150.278 151.144C149.898 148.462 149.859 145.652 150.165 142.764L141.228 141.269C137.464 140.65 135.948 137.478 137.625 133.74L142.494 122.884C144.172 119.146 148.533 115.974 152.852 115.355L162.882 113.911C165.15 110.998 167.654 108.187 170.423 105.48L168.021 98.2346C167.012 95.192 169.27 91.0407 173.332 88.4107L185.228 80.727C187.43 79.2831 189.908 78.4838 192.141 78.4838C193.893 78.4838 195.369 78.9737 196.365 79.9019L201.847 85.0072C205.433 83.5633 209.046 82.3772 212.616 81.4748L218.187 72.7081C220.519 69.0209 225.198 66.3394 229.296 66.3394H241.193C245.291 66.3394 247.564 69.0209 246.588 72.7081L244.331 81.2685C247.232 82.1709 249.882 83.3828 252.275 84.8525L262.421 79.7472C264.251 78.819 266.138 78.3291 267.89 78.3291C270.122 78.3291 271.855 79.1284 272.79 80.5723L277.764 88.256C279.495 90.886 278.001 95.0373 274.262 98.0799L265.463 105.222C265.814 107.904 265.825 110.714 265.507 113.628ZM195.917 154.579C211.973 154.579 230.315 142.703 236.886 128.054C243.458 113.405 235.769 101.53 219.714 101.53C203.659 101.53 185.316 113.405 178.745 128.054C172.174 142.703 179.862 154.579 195.917 154.579Z" style="fill:var(--sapContent_Illustrative_Color2)"/>
<path fill-rule="evenodd" clip-rule="evenodd" d="M213.895 102.021C217.212 100.724 220.547 99.6475 223.845 98.8136L229.417 90.047C231.749 86.3598 236.428 83.6782 240.526 83.6782H249.074L257.227 85.741C258.026 86.8504 258.269 88.3411 257.818 90.047L255.561 98.6074C258.462 99.5098 261.112 100.722 263.505 102.191L273.651 97.0861C273.81 97.0055 273.969 96.9282 274.129 96.8543L289.738 107.1L278.411 89.9119C278.309 89.3166 278.096 88.7586 277.765 88.256L272.791 80.5723C271.856 79.1284 270.123 78.3291 267.891 78.3291C266.139 78.3291 264.252 78.819 262.422 79.7472L255.59 83.185L246.412 68.9879L246.386 69.0615C245.596 67.3822 243.75 66.3394 241.194 66.3394H229.297C225.199 66.3394 220.52 69.0209 218.188 72.7081L212.617 81.4748C209.047 82.3772 205.434 83.5633 201.848 85.0072L196.366 79.9019C195.37 78.9737 193.894 78.4838 192.142 78.4838C189.909 78.4838 187.431 79.2831 185.229 80.727L173.333 88.4107C169.271 91.0407 167.013 95.192 168.022 98.2346L170.424 105.48C167.655 108.187 165.151 110.998 162.883 113.911L152.853 115.355C148.534 115.974 144.173 119.146 142.495 122.884L137.626 133.74C136.427 136.413 136.861 138.797 138.582 140.165L147.376 153.492L141.543 158.209C137.804 161.251 136.309 165.403 138.04 168.033L139.293 169.968L139.107 169.962L150.255 186.856L156.905 172.205L161.508 168.483C161.128 165.801 161.089 162.991 161.395 160.103L152.458 158.607C150.049 158.211 148.56 156.77 148.241 154.803L149.219 156.285L156.574 140.08L153.839 139.978C155.593 136.347 159.858 133.299 164.082 132.694L174.112 131.25C176.38 128.337 178.884 125.526 181.652 122.819L179.251 115.573C178.242 112.531 180.499 108.38 184.562 105.75L196.458 98.0659C198.66 96.622 201.138 95.8227 203.371 95.8227C205.123 95.8227 206.599 96.3126 207.595 97.2408L212.915 102.196C213.242 102.133 213.568 102.075 213.895 102.021Z" style="fill:var(--sapContent_Illustrative_Color2)"/>
<path d="M289.738 135.281L278.905 118.523L274.369 131.392L289.738 135.281Z" style="fill:var(--sapContent_Illustrative_Color2)"/>
<path d="M180.269 204.785L169.121 187.89L187.624 188.58L180.269 204.785Z" style="fill:var(--sapContent_Illustrative_Color4)"/>
<path fill-rule="evenodd" clip-rule="evenodd" d="M276.736 130.967L285.572 132.437C289.335 133.056 290.851 136.227 289.118 139.966L284.248 150.821C282.571 154.56 278.21 157.731 273.891 158.35L263.748 159.794C261.492 162.682 258.931 165.492 256.162 168.2L258.542 175.368C259.551 178.41 257.293 182.562 253.231 185.192L241.363 192.875C239.133 194.319 236.683 195.119 234.45 195.119C232.698 195.119 231.223 194.629 230.226 193.7L224.688 188.595C221.113 190.013 217.512 191.174 213.914 192.076L208.417 200.74C206.085 204.427 201.406 207.108 197.308 207.108H185.383C181.285 207.108 179.012 204.427 179.988 200.74L182.291 192.076C179.604 191.199 177.106 190.091 174.865 188.724L164.611 193.881C162.781 194.809 160.894 195.299 159.142 195.299C156.91 195.299 155.177 194.5 154.242 193.056L149.268 185.372C147.537 182.742 149.031 178.591 152.77 175.548L161.506 168.483C161.127 165.802 161.087 162.991 161.394 160.103L152.456 158.608C148.693 157.989 147.176 154.818 148.854 151.079L153.723 140.224C155.4 136.485 159.762 133.314 164.08 132.695L174.11 131.251C176.378 128.337 178.882 125.527 181.651 122.819L179.249 115.574C178.24 112.531 180.498 108.38 184.56 105.75L196.457 98.0664C198.659 96.6224 201.137 95.8231 203.369 95.8231C205.121 95.8231 206.597 96.313 207.594 97.2413L213.075 102.347C216.662 100.903 220.274 99.7166 223.844 98.8141L229.416 90.0474C231.748 86.3603 236.427 83.6787 240.524 83.6787H252.422C256.519 83.6787 258.793 86.3603 257.817 90.0474L255.559 98.6078C258.461 99.5103 261.111 100.722 263.503 102.192L273.65 97.0866C275.479 96.1583 277.366 95.6684 279.118 95.6684C281.351 95.6684 283.083 96.4677 284.018 97.9117L288.993 105.595C290.724 108.225 289.229 112.377 285.49 115.419L276.691 122.561C277.043 125.243 277.054 128.054 276.736 130.967ZM207.146 171.918C223.201 171.918 241.544 160.043 248.115 145.394C254.686 130.745 246.998 118.869 230.942 118.869C214.887 118.869 196.545 130.745 189.973 145.394C183.402 160.043 191.091 171.918 207.146 171.918Z" style="fill:var(--sapContent_Illustrative_Color13)"/>
<path d="M212.84 103.676V101.842H214.306L212.84 103.676Z" style="fill:var(--sapContent_Illustrative_Color13)"/>
<path d="M213.536 171.327L213.458 171.255C213.33 171.307 213.201 171.357 213.072 171.408C211.079 171.742 209.095 171.917 207.145 171.917C194.132 171.917 186.616 164.117 187.732 153.362C190.133 154.152 192.874 154.578 195.916 154.578C211.971 154.578 230.314 142.703 236.885 128.054C238.13 125.277 238.864 122.6 239.125 120.085C249.398 123.467 253.44 133.519 248.114 145.393C247.323 147.155 246.363 148.876 245.256 150.542C245.149 150.648 245.041 150.754 244.932 150.86L244.969 150.969C238.022 161.138 225.657 169.146 213.536 171.327Z" style="fill:var(--sapContent_Illustrative_Color4)"/>
<path fill-rule="evenodd" clip-rule="evenodd" d="M179.121 112.887L167.821 95.9971C167.727 96.78 167.786 97.5364 168.018 98.2344L170.42 105.48C168.424 107.431 166.565 109.436 164.834 111.495L176.27 128.589C177.942 126.616 179.732 124.693 181.648 122.819L179.246 115.573C178.971 114.743 178.939 113.83 179.121 112.887Z" style="fill:var(--sapContent_Illustrative_Color4)"/>
<path fill-rule="evenodd" clip-rule="evenodd" d="M223.846 98.8144C220.547 99.6483 217.212 100.724 213.895 102.022C213.568 102.076 213.242 102.134 212.915 102.196L212.904 102.186L200.692 83.9312L201.848 85.008C205.434 83.5641 209.047 82.378 212.617 81.4755L214.275 78.8667L225.684 95.9214L223.846 98.8144ZM151.719 115.576C152.096 115.484 152.475 115.41 152.853 115.356L162.883 113.912C163.712 112.847 164.573 111.796 165.467 110.758L176.904 127.855C175.936 128.971 175.005 130.103 174.112 131.251L164.082 132.695C163.811 132.734 163.54 132.783 163.269 132.841L151.719 115.576Z" style="fill:var(--sapContent_Illustrative_Color13)"/>
<path fill-rule="evenodd" clip-rule="evenodd" d="M149.234 156.24L149.179 156.235L149.213 156.286L149.234 156.24ZM148.289 155.083L146.618 152.155L146.473 152.133L147.37 153.492L145.129 155.305L156.712 172.618L156.899 172.206L161.502 168.484C161.122 165.802 161.083 162.992 161.389 160.104L152.452 158.608C150.159 158.231 148.7 156.907 148.289 155.083Z" style="fill:var(--sapContent_Illustrative_Color4)"/>
<path d="M99.541 97.9714L131.903 118.812L87.4952 187.773C81.7403 196.709 69.8305 199.289 60.8939 193.534C51.9572 187.779 49.3779 175.869 55.1327 166.932L99.541 97.9714Z" style="fill:var(--sapContent_Illustrative_Color3)"/>
<ellipse cx="115.364" cy="108.947" rx="19.2459" ry="9.71286" transform="rotate(32.78 115.364 108.947)" style="fill:var(--sapContent_Illustrative_Color15)"/>
<path d="M113.969 92.0911C109.674 96.4495 105.155 95.8441 103.211 96.0011L132.169 114.648C130.743 110.804 130.17 104.966 131.162 103.163L113.969 92.0911Z" style="fill:var(--sapContent_Illustrative_Color15)"/>
<path fill-rule="evenodd" clip-rule="evenodd" d="M120.553 100.888C127.003 105.041 133.931 105.77 136.027 102.515C136.052 102.476 136.076 102.437 136.099 102.398L139.157 97.6489L134.077 94.3777C132.619 92.5195 130.592 90.6765 128.144 89.1002C125.696 87.524 123.179 86.441 120.884 85.8818L115.8 82.6077L112.601 87.5754L112.605 87.578C110.649 90.8558 114.172 96.7785 120.553 100.888Z" style="fill:var(--sapContent_Illustrative_Color3)"/>
<ellipse cx="127.479" cy="90.1295" rx="13.8906" ry="7.01018" transform="rotate(32.78 127.479 90.1295)" style="fill:var(--sapContent_Illustrative_Color15)"/>
<path fill-rule="evenodd" clip-rule="evenodd" d="M181.162 6.76309L172.727 11.0315L123.469 87.5243L123.569 87.5891C123.391 88.7538 124.557 90.4609 126.472 91.6938C128.386 92.9266 130.423 93.2825 131.41 92.638L131.508 92.7013L131.79 92.2638C131.792 92.2604 131.794 92.2569 131.796 92.2535C131.799 92.2501 131.801 92.2467 131.803 92.2432L180.766 16.2086L181.162 6.76309Z" style="fill:var(--sapContent_Illustrative_Color6)"/>
<path fill-rule="evenodd" clip-rule="evenodd" d="M175.081 9.83861L172.639 19.9949L180.876 13.5695L181.161 6.76184L175.081 9.83861Z" style="fill:var(--sapContent_Illustrative_Color5)"/>
<rect width="5.1865" height="67.9541" rx="2.59325" transform="matrix(0.703914 0.710286 -0.541415 0.840756 96.0723 112.696)" style="fill:var(--sapContent_Illustrative_Color15)"/>
<rect width="5.1865" height="67.9541" rx="2.59325" transform="matrix(-0.937878 -0.346966 -0.541415 0.840756 120.17 128.213)" style="fill:var(--sapContent_Illustrative_Color15)"/>
<rect x="104.432" y="121.325" width="5.26153" height="67.9541" rx="2.63076" transform="rotate(32.78 104.432 121.325)" style="fill:var(--sapContent_Illustrative_Color15)"/>
<rect x="144.57" y="58.9934" width="2.92578" height="34.2068" rx="1.46289" transform="rotate(32.78 144.57 58.9934)" style="fill:var(--sapContent_Illustrative_Color8)"/>
<rect x="149.783" y="50.8977" width="2.92578" height="6.46777" rx="1.46289" transform="rotate(32.78 149.783 50.8977)" style="fill:var(--sapContent_Illustrative_Color8)"/>
</svg>
