<svg width="160" height="160" viewBox="0 0 160 160" id="tnt-Dialog-Radar">
  <path fill="var(--sapIllus_BackgroundColor)" d="M120.217689,114.182 C120.272689,109.633 124.133689,106.414 129.327689,106.306 C145.452689,105.969 158.477689,92.841 156.864689,77.01 C155.461689,63.232 142.859689,53.018 128.481689,53.017 C105.123689,53.0155 66.9076889,53.0155 43.5496889,53.017 C29.1716889,53.018 16.5696889,63.232 15.1656889,77.01 C13.5536889,92.841 26.5746889,106.306 42.7026889,106.306 L42.7876889,106.306 C46.0606889,106.306 48.7286889,108.883 48.7186889,112.034 L48.7186889,112.098 L48.7186889,112.162 C48.7286889,115.313 46.0606889,117.89 42.7876889,117.89 L19.1636889,117.89 C11.7846889,117.89 5.0186889,122.585 3.4006889,129.517 C1.1226889,139.275 8.8736889,148.01 18.6406889,148.01 L34.3586889,148.01 L104.672689,148.01 L114.341689,148.01 C121.948689,148.01 128.853689,143.012 130.252689,135.812 C131.566689,129.051 127.281689,123.968 122.557689,119.855 C121.207689,118.68 120.189689,116.573 120.217689,114.182" class="sapIllus_BackgroundColor"/>
  <path fill="var(--sapIllus_Layering1)" d="M28.7537889 35.3343C28.4607889 35.3393 28.2197889 35.1053 28.2147889 34.8133L28.2147889 34.8123 28.2147889 31.5493C28.2257889 31.2513 28.4757889 31.0193 28.7737889 31.0283 29.0567889 31.0383 29.2837889 31.2663 29.2937889 31.5493L29.2937889 34.8123C29.2887889 35.1053 29.0477889 35.3383 28.7547889 35.3343L28.7537889 35.3343zM28.7537889 23.4916C28.4607889 23.4956 28.2197889 23.2626 28.2147889 22.9696L28.2147889 19.7016C28.2237889 19.4036 28.4717889 19.1696 28.7697889 19.1776 29.0557889 19.1846 29.2847889 19.4156 29.2927889 19.7016L29.2927889 22.9696C29.2887889 23.2626 29.0477889 23.4956 28.7547889 23.4916L28.7537889 23.4916zM24.4646889 27.7923L21.1996889 27.7923C20.9026889 27.7923 20.6616889 27.5513 20.6616889 27.2543 20.6616889 26.9563 20.9026889 26.7153 21.1996889 26.7153L24.4646889 26.7153C24.7616889 26.7153 25.0026889 26.9563 25.0026889 27.2543 25.0026889 27.5513 24.7616889 27.7923 24.4646889 27.7923M36.3123889 27.7943L33.0523889 27.7943C32.7553889 27.7843 32.5223889 27.5363 32.5323889 27.2393 32.5413889 26.9553 32.7683889 26.7283 33.0523889 26.7193L36.3123889 26.7193C36.6093889 26.7283 36.8423889 26.9773 36.8333889 27.2733 36.8243889 27.5573 36.5963889 27.7843 36.3123889 27.7943M143.499889 91.013C143.227889 91.018 143.003889 90.801 142.998889 90.529L142.998889 87.499C143.008889 87.223 143.239889 87.006 143.516889 87.016 143.779889 87.025 143.990889 87.237 143.999889 87.499L143.999889 90.529C143.995889 90.8 143.770889 91.017 143.499889 91.013M143.499889 80.0179C143.227889 80.0229 143.003889 79.8059 142.998889 79.5339L142.998889 76.4989C143.006889 76.2229 143.236889 76.0049 143.513889 76.0129 143.778889 76.0209 143.991889 76.2339 143.999889 76.4989L143.999889 79.5339C143.995889 79.8049 143.770889 80.0229 143.499889 80.0179M139.516489 84.0121L136.486489 84.0121C136.210489 84.0121 135.986489 83.7871 135.986489 83.5121 135.986489 83.2361 136.210489 83.0121 136.486489 83.0121L139.516489 83.0121C139.792489 83.0121 140.016489 83.2361 140.016489 83.5121 140.016489 83.7871 139.792489 84.0121 139.516489 84.0121M150.516489 84.013L147.489489 84.013C147.213489 84.004 146.997489 83.774 147.006489 83.498 147.014489 83.235 147.226489 83.023 147.489489 83.015L150.516489 83.015C150.791489 83.024 151.008489 83.254 150.999489 83.53 150.991489 83.793 150.780489 84.004 150.516489 84.013" class="sapIllus_Layering1"/>
  <path fill="var(--sapIllus_AccentColor)" d="M142.118989 23.182C137.219989 21.368 134.821989 16.903 132.960989 12.349 132.873989 12.138 132.668989 12 132.439989 12 132.219989 12.021 132.022989 12.151 131.916989 12.345 129.496989 18.141 126.321989 20.647 121.756989 23.808 121.504989 23.982 121.439989 24.328 121.613989 24.579 121.685989 24.684 121.791989 24.76 121.913989 24.796 125.755989 25.967 131.521989 33.178 131.554989 36.853 131.557989 37.131 131.765989 37.365 132.042989 37.4 132.069989 37.404 132.096989 37.405 132.123989 37.405 132.371989 37.404 132.590989 37.239 132.660989 37 133.597989 33.748 136.618989 26.963 141.357989 24.565 141.608989 24.437 141.864989 24.323 142.125989 24.222 142.412989 24.114 142.556989 23.793 142.448989 23.507 142.391989 23.356 142.270989 23.237 142.118989 23.182M26.6463889 109.9017C23.1633889 108.6117 21.4593889 105.4377 20.1363889 102.2007 20.0743889 102.0507 19.9273889 101.9527 19.7653889 101.9527 19.6093889 101.9677 19.4693889 102.0597 19.3943889 102.1977 17.6723889 106.3187 15.4173889 108.0997 12.1703889 110.3467 11.9913889 110.4707 11.9463889 110.7157 12.0693889 110.8947 12.1213889 110.9697 12.1963889 111.0237 12.2823889 111.0497 15.0133889 111.8817 19.1133889 117.0077 19.1363889 119.6207 19.1393889 119.8187 19.2873889 119.9847 19.4833889 120.0087 19.5023889 120.0117 19.5213889 120.0127 19.5413889 120.0127 19.7173889 120.0117 19.8733889 119.8947 19.9223889 119.7257 20.5873889 117.4137 22.7363889 112.5897 26.1053889 110.8847 26.2843889 110.7947 26.4653889 110.7137 26.6513889 110.6407 26.8553889 110.5637 26.9583889 110.3377 26.8813889 110.1327 26.8403889 110.0257 26.7543889 109.9407 26.6463889 109.9017" class="sapIllus_AccentColor"/>
  <polygon fill="var(--sapIllus_Layering2)" points="67.469 144.534 51.771 144.534 59.987 78.584 60.417 79.748" class="sapIllus_Layering2"/>
  <path fill="var(--sapIllus_Layering1)" d="M104.747889,146.8636 L37.1918889,146.8636 L37.1918889,146.2806 C37.1918889,144.3346 38.7838889,142.7426 40.7298889,142.7426 L101.209889,142.7426 C103.155889,142.7426 104.747889,144.3346 104.747889,146.2806 L104.747889,146.8636 Z" class="sapIllus_Layering1"/>
  <path fill="var(--sapIllus_StrokeDetailColor)" d="M108.705989 147.9056L34.5559889 147.9056C34.2789889 147.9056 34.0559889 147.6816 34.0559889 147.4056 34.0559889 147.1306 34.2789889 146.9056 34.5559889 146.9056L108.705989 146.9056C108.981989 146.9056 109.205989 147.1306 109.205989 147.4056 109.205989 147.6816 108.981989 147.9056 108.705989 147.9056M135.198089 147.9056L112.650089 147.9056C112.375089 147.9056 112.150089 147.6806 112.150089 147.4056 112.150089 147.1316 112.375089 146.9056 112.650089 146.9056L135.198089 146.9056C135.472089 146.9056 135.698089 147.1316 135.698089 147.4056 135.698089 147.6806 135.472089 147.9056 135.198089 147.9056M29.2322889 147.9056L18.4592889 147.9056C18.1832889 147.9056 17.9592889 147.6806 17.9592889 147.4056 17.9592889 147.1316 18.1832889 146.9056 18.4592889 146.9056L29.2322889 146.9056C29.5072889 146.9056 29.7322889 147.1316 29.7322889 147.4056 29.7322889 147.6806 29.5072889 147.9056 29.2322889 147.9056" class="sapIllus_StrokeDetailColor"/>
  <path fill="var(--sapIllus_BrandColorSecondary)" d="M105.443289,49.7816 C107.318289,47.9066 110.357289,47.9066 112.231289,49.7816 C114.106289,51.6556 114.106289,54.6946 112.231289,56.5696 C110.357289,58.4436 107.318289,58.4436 105.443289,56.5696 C103.569289,54.6946 103.569289,51.6556 105.443289,49.7816" class="sapIllus_BrandColorSecondary"/>
  <path fill="var(--sapIllus_ObjectFillColor)" d="M57.7215889,104.2914 C79.7355889,126.3064 115.359589,126.3994 137.499589,104.5914 L57.4215889,24.5134 C35.6135889,46.6534 35.7065889,82.2774 57.7215889,104.2914" class="sapIllus_ObjectFillColor"/>
  <path fill="var(--sapIllus_StrokeDetailColor)" d="M58.0750889,103.9379 C36.4750889,82.3389 36.2260889,47.1349 57.4260889,25.2239 L136.789089,104.5869 C114.877089,125.7859 79.6750889,125.5369 58.0750889,103.9379 M137.853089,104.2379 L98.2490889,64.6329 L104.751089,58.1309 C104.990089,57.8909 104.990089,57.5019 104.751089,57.2629 C104.511089,57.0239 104.122089,57.0239 103.883089,57.2629 L97.3810889,63.7649 L57.7750889,24.1599 C57.6800889,24.0649 57.5340889,24.0379 57.4200889,24.0129 C57.2870889,24.0139 57.1590889,24.0669 57.0650889,24.1629 C35.1260889,46.4359 35.2620889,82.5399 57.3680889,104.6449 C68.4750889,115.7529 83.1170889,121.3139 97.7630889,121.3139 C112.264089,121.3129 126.769089,115.8619 137.850089,104.9479 C137.946089,104.8539 137.999089,104.7259 138.000103,104.5929 C138.001089,104.4589 137.948089,104.3319 137.853089,104.2379" class="sapIllus_StrokeDetailColor"/>
  <path fill="var(--sapIllus_BrandColorSecondary)" d="M61.9676889,100.0453 C80.2386889,118.3163 108.937689,120.9983 127.313689,102.8983 L59.1146889,34.6993 C41.0146889,53.0753 43.6966889,81.7743 61.9676889,100.0453" class="sapIllus_BrandColorSecondary"/>
  <path fill="var(--sapIllus_PatternHighlight)" d="M90.5072153,128.867282 C92.4242153,115.739282 93.2112153,105.555282 111.587215,87.4532822 L87.6542153,63.5212822 C69.5542153,81.8972822 72.2362153,110.596282 90.5072153,128.867282" class="sapIllus_PatternHighlight" transform="scale(1 -1) rotate(88 193.087 0)"/>
  <path fill="var(--sapIllus_StrokeDetailColor)" d="M65.0887889,111.7494 C65.0887889,115.2404 64.9997889,117.5134 61.5287889,118.0714 C57.6837889,118.6904 53.3117889,115.2404 53.3117889,111.7494 C53.3117889,108.2574 56.4697889,105.4264 60.3647889,105.4264 C64.2607889,105.4264 65.0887889,108.2574 65.0887889,111.7494" class="sapIllus_StrokeDetailColor"/>
  <path fill="var(--sapIllus_Layering1)" d="M68.8279889,107.8021 C68.8279889,112.8301 64.7519889,116.9071 59.7239889,116.9071 C54.6939889,116.9071 50.6179889,112.8301 50.6179889,107.8021 C50.6179889,102.7741 54.6939889,98.6971 59.7239889,98.6971 C64.7519889,98.6971 68.8279889,102.7741 68.8279889,107.8021" class="sapIllus_Layering1"/>
</svg>