<svg width="128" height="128" viewBox="0 0 128 128" id="tnt-Spot-SuccessfulAuth">
  <path fill="var(--sapIllus_PatternShadow)" d="M109.9558,33.5663 L108.9998,33.5663 L108.9998,41.5163 L108.9998,44.5593 L108.9998,95.5663 C108.9998,97.2223 107.6568,98.5663 105.9998,98.5663 L23.0438,98.5663 L23.0448,100.5653 C23.0448,102.2223 24.3878,103.5663 26.0438,103.5663 L109.9998,103.5663 C111.6568,103.5663 112.9998,102.2223 112.9998,100.5663 L112.9998,36.5663 C112.9998,34.9093 111.6568,33.5663 109.9998,33.5663 L109.9558,33.5663 Z" class="sapIllus_PatternShadow"/>
  <path fill="var(--sapIllus_ObjectFillColor)" d="M105.999,99 L22,99 C20.343,99 19,97.657 19,96 L19,32.001 C19,30.344 20.343,29 22,29 L105.999,29 C107.656,29 109,30.344 109,32.001 L109,96 C109,97.657 107.656,99 105.999,99" class="sapIllus_ObjectFillColor"/>
  <path fill="var(--sapIllus_BrandColorSecondary)" d="M109,42 L19,42 L19,31.969 C19,30.329 20.329,29 21.968,29 L106.005,29 C107.659,29 109,30.342 109,31.996 L109,42 Z" class="sapIllus_BrandColorSecondary"/>
  <path fill="var(--sapIllus_StrokeDetailColor)" d="M106,98 L22,98 C20.896,98 20,97.105 20,96 L20,42 L21.821,42 L108,42 L108,96 C108,97.105 107.104,98 106,98 M108,32 L108,41 L20,41 L20,32 C20,30.896 20.896,30 22,30 L106,30 C107.104,30 108,30.896 108,32 M106,29 L105.526,29 L21.59,29 L21.544,29 C19.817,29 19,30.692 19,31.897 L19,42 L19,96 C19,97.657 20.343,99 22,99 L106,99 C107.657,99 109,97.657 109,96 L109,44.994 L109,41.951 L109,32 C109,30.344 107.657,29 106,29" class="sapIllus_StrokeDetailColor"/>
  <path fill="var(--sapIllus_ObjectFillColor)" d="M28.5332 35.5C28.5332 36.574 27.6622 37.445 26.5882 37.445 25.5142 37.445 24.6432 36.574 24.6432 35.5 24.6432 34.427 25.5142 33.556 26.5882 33.556 27.6622 33.556 28.5332 34.427 28.5332 35.5M34.5142 35.5C34.5142 36.574 33.6432 37.445 32.5692 37.445 31.4952 37.445 30.6242 36.574 30.6242 35.5 30.6242 34.427 31.4952 33.556 32.5692 33.556 33.6432 33.556 34.5142 34.427 34.5142 35.5M40.4956 35.5C40.4956 36.574 39.6246 37.445 38.5506 37.445 37.4766 37.445 36.6056 36.574 36.6056 35.5 36.6056 34.427 37.4766 33.556 38.5506 33.556 39.6246 33.556 40.4956 34.427 40.4956 35.5" class="sapIllus_ObjectFillColor"/>
  <path fill="var(--sapIllus_AccentColor)" d="M49.9136,72.7959 C47.2576,72.7959 45.1036,70.6439 45.1036,67.9869 C45.1036,65.3309 47.2576,63.1779 49.9136,63.1779 C52.5696,63.1779 54.7236,65.3309 54.7236,67.9869 C54.7236,70.6439 52.5696,72.7959 49.9136,72.7959 M86.0136,65.6869 L59.6786,65.6869 C58.6076,61.2389 54.6136,57.9309 49.8376,57.9309 C44.2416,57.9309 39.7056,62.4679 39.7056,68.0639 C39.7056,73.6589 44.2416,78.1949 49.8376,78.1949 C54.6826,78.1949 58.7266,74.7929 59.7266,70.2489 L74.1896,70.2489 L74.1896,75.3119 C74.1896,75.5249 74.3626,75.6979 74.5766,75.6979 L77.5036,75.6979 C77.7196,75.6979 77.8926,75.5229 77.8906,75.3079 L77.8876,74.0089 C77.8846,73.7939 78.0586,73.6179 78.2736,73.6179 L81.1726,73.6179 C81.3866,73.6179 81.5596,73.7909 81.5596,74.0049 L81.5596,75.3119 C81.5596,75.5249 81.7326,75.6979 81.9456,75.6979 L84.8026,75.6979 C85.0166,75.6979 85.1896,75.5249 85.1896,75.3119 L85.1896,70.2489 L86.0136,70.2489 C87.2736,70.2489 88.2946,69.2279 88.2946,67.9679 C88.2946,66.7079 87.2736,65.6869 86.0136,65.6869" class="sapIllus_AccentColor"/>
  <path fill="var(--sapIllus_BrandColorSecondary)" d="M16.5438 20.0267C13.6508 18.8867 12.2478 16.1177 11.1618 13.2957 11.0968 13.1207 10.9308 13.0037 10.7438 13.0007L10.7388 13.0007C10.5538 13.0017 10.3878 13.1137 10.3188 13.2857 8.8718 16.7937 6.7188 18.5877 4.2268 20.6637L4.1688 20.7127C4.0318 20.8267 3.9718 21.0087 4.0128 21.1827 4.0528 21.3557 4.1888 21.4907 4.3618 21.5287 6.5608 22.0057 9.9628 26.2997 9.9628 28.5977 9.9608 28.8277 10.1268 29.0237 10.3538 29.0597 10.3758 29.0627 10.3968 29.0637 10.4188 29.0637 10.6228 29.0627 10.8008 28.9257 10.8558 28.7297 11.5858 26.1857 13.7028 22.0027 16.5428 20.8977 16.7838 20.7997 16.8998 20.5257 16.8018 20.2857 16.7548 20.1687 16.6618 20.0747 16.5438 20.0267zM123.3153 100.8734C121.7803 100.2464 121.0283 98.7004 120.4423 97.1234 120.3823 96.9514 120.2223 96.8344 120.0393 96.8284L120.0343 96.8284C119.8543 96.8314 119.6933 96.9444 119.6293 97.1134 118.9133 98.7694 117.7673 100.2034 116.3113 101.2694L116.2793 101.2984C116.1473 101.4154 116.0893 101.5964 116.1293 101.7694 116.1663 101.9384 116.2963 102.0734 116.4653 102.1144 117.5973 102.3684 119.4183 104.7514 119.4183 105.9774 119.4133 106.2024 119.5733 106.3974 119.7943 106.4374 119.8153 106.4404 119.8363 106.4424 119.8573 106.4424 120.0573 106.4384 120.2293 106.3024 120.2783 106.1084 120.6723 104.6864 121.8053 102.3524 123.3143 101.7434 123.5553 101.6374 123.6633 101.3554 123.5563 101.1144 123.5083 101.0084 123.4233 100.9224 123.3163 100.8744L123.3153 100.8734z" class="sapIllus_BrandColorSecondary"/>
</svg>