<svg width="128" height="128" viewBox="0 0 128 128" id="tnt-Spot-CodePlaceholder">
  <path fill="var(--sapIllus_PatternShadow)" d="M119.0161,19 L116.8001,19 L116.8001,112.719 C116.8001,114.919 115.0161,116.703 112.8161,116.703 L19.0001,116.703 L19.0001,119.016 C19.0001,121.217 20.7841,123 22.9841,123 L119.0161,123 C121.2161,123 123.0001,121.217 123.0001,119.016 L123.0001,22.984 C123.0001,20.783 121.2161,19 119.0161,19" class="sapIllus_PatternShadow"/>
  <path fill="var(--sapIllus_ObjectFillColor)" d="M112.5159,116.5004 L16.4839,116.5004 C14.2839,116.5004 12.4999,114.7164 12.4999,112.5164 L12.4999,16.4834 C12.4999,14.2834 14.2839,12.5004 16.4839,12.5004 L112.5159,12.5004 C114.7169,12.5004 116.4999,14.2834 116.4999,16.4834 L116.4999,112.5164 C116.4999,114.7164 114.7169,116.5004 112.5159,116.5004" class="sapIllus_ObjectFillColor"/>
  <path fill="var(--sapIllus_StrokeDetailColor)" d="M16.4837,13.0004 C14.5627,13.0004 12.9997,14.5624 12.9997,16.4834 L12.9997,112.5164 C12.9997,114.4374 14.5627,116.0004 16.4837,116.0004 L112.5157,116.0004 C114.4367,116.0004 115.9997,114.4374 115.9997,112.5164 L115.9997,16.4834 C115.9997,14.5624 114.4367,13.0004 112.5157,13.0004 L16.4837,13.0004 Z M112.5157,117.0004 L16.4837,117.0004 C14.0107,117.0004 11.9997,114.9884 11.9997,112.5164 L11.9997,16.4834 C11.9997,14.0124 14.0107,12.0004 16.4837,12.0004 L112.5157,12.0004 C114.9887,12.0004 116.9997,14.0124 116.9997,16.4834 L116.9997,112.5164 C116.9997,114.9884 114.9887,117.0004 112.5157,117.0004 L112.5157,117.0004 Z" class="sapIllus_StrokeDetailColor"/>
  <path fill="var(--sapIllus_BackgroundColor)" d="M111.5 112L105.5 112C105.224 112 105 111.776 105 111.5 105 111.224 105.224 111 105.5 111L111 111 111 105.5C111 105.224 111.224 105 111.5 105 111.776 105 112 105.224 112 105.5L112 111.5C112 111.776 111.776 112 111.5 112M93.6431 112L81.7861 112C81.5101 112 81.2861 111.776 81.2861 111.5 81.2861 111.224 81.5101 111 81.7861 111L93.6431 111C93.9191 111 94.1431 111.224 94.1431 111.5 94.1431 111.776 93.9191 112 93.6431 112M69.9287 112L58.0717 112C57.7957 112 57.5717 111.776 57.5717 111.5 57.5717 111.224 57.7957 111 58.0717 111L69.9287 111C70.2047 111 70.4287 111.224 70.4287 111.5 70.4287 111.776 70.2047 112 69.9287 112M46.2144 112L34.3574 112C34.0814 112 33.8574 111.776 33.8574 111.5 33.8574 111.224 34.0814 111 34.3574 111L46.2144 111C46.4904 111 46.7144 111.224 46.7144 111.5 46.7144 111.776 46.4904 112 46.2144 112M22.5 112L16.5 112C16.224 112 16 111.776 16 111.5L16 105.5C16 105.224 16.224 105 16.5 105 16.776 105 17 105.224 17 105.5L17 111 22.5 111C22.776 111 23 111.224 23 111.5 23 111.776 22.776 112 22.5 112M16.5 94.1426C16.224 94.1426 16 93.9186 16 93.6426L16 81.7856C16 81.5086 16.224 81.2856 16.5 81.2856 16.776 81.2856 17 81.5086 17 81.7856L17 93.6426C17 93.9186 16.776 94.1426 16.5 94.1426M16.5 70.4287C16.224 70.4287 16 70.2047 16 69.9287L16 58.0717C16 57.7947 16.224 57.5717 16.5 57.5717 16.776 57.5717 17 57.7947 17 58.0717L17 69.9287C17 70.2047 16.776 70.4287 16.5 70.4287M16.5 46.7139C16.224 46.7139 16 46.4899 16 46.2139L16 34.3569C16 34.0799 16.224 33.8569 16.5 33.8569 16.776 33.8569 17 34.0799 17 34.3569L17 46.2139C17 46.4899 16.776 46.7139 16.5 46.7139M16.5 23C16.224 23 16 22.776 16 22.5L16 16.5C16 16.224 16.224 16 16.5 16L22.5 16C22.776 16 23 16.224 23 16.5 23 16.776 22.776 17 22.5 17L17 17 17 22.5C17 22.776 16.776 23 16.5 23M93.6431 17L81.7861 17C81.5101 17 81.2861 16.776 81.2861 16.5 81.2861 16.224 81.5101 16 81.7861 16L93.6431 16C93.9191 16 94.1431 16.224 94.1431 16.5 94.1431 16.776 93.9191 17 93.6431 17M69.9287 17L58.0717 17C57.7957 17 57.5717 16.776 57.5717 16.5 57.5717 16.224 57.7957 16 58.0717 16L69.9287 16C70.2047 16 70.4287 16.224 70.4287 16.5 70.4287 16.776 70.2047 17 69.9287 17M46.2144 17L34.3574 17C34.0814 17 33.8574 16.776 33.8574 16.5 33.8574 16.224 34.0814 16 34.3574 16L46.2144 16C46.4904 16 46.7144 16.224 46.7144 16.5 46.7144 16.776 46.4904 17 46.2144 17M111.5 23C111.224 23 111 22.776 111 22.5L111 17 105.5 17C105.224 17 105 16.776 105 16.5 105 16.224 105.224 16 105.5 16L111.5 16C111.776 16 112 16.224 112 16.5L112 22.5C112 22.776 111.776 23 111.5 23M111.5 94.1426C111.224 94.1426 111 93.9186 111 93.6426L111 81.7856C111 81.5086 111.224 81.2856 111.5 81.2856 111.776 81.2856 112 81.5086 112 81.7856L112 93.6426C112 93.9186 111.776 94.1426 111.5 94.1426M111.5 70.4277C111.224 70.4277 111 70.2037 111 69.9277L111 58.0707C111 57.7937 111.224 57.5707 111.5 57.5707 111.776 57.5707 112 57.7937 112 58.0707L112 69.9277C112 70.2037 111.776 70.4277 111.5 70.4277M111.5 46.7139C111.224 46.7139 111 46.4899 111 46.2139L111 34.3569C111 34.0799 111.224 33.8569 111.5 33.8569 111.776 33.8569 112 34.0799 112 34.3569L112 46.2139C112 46.4899 111.776 46.7139 111.5 46.7139" class="sapIllus_BackgroundColor"/>
</svg>