<svg width="45" height="46" viewBox="0 0 45 46" fill="none" xmlns="http://www.w3.org/2000/svg" id="tnt-Dot-Settings">
<path fill-rule="evenodd" clip-rule="evenodd" d="M6.3719 14.314C5.39593 12.5799 5.77842 10.3982 7.28604 9.09954L9.44046 7.24377C10.9493 5.94407 13.1658 5.89005 14.7362 7.11471L16.8664 8.77602L20.9638 8.11189L22.1546 5.75334C23.1423 3.79697 25.4739 2.93638 27.4958 3.7819L30.5579 5.06243C32.4199 5.84111 33.4591 7.83964 33.027 9.81114L32.5062 12.1873L35.2335 15.3536L37.6607 15.1905C39.6744 15.0552 41.497 16.3789 41.9913 18.3357L42.8097 21.5757C43.3418 23.6823 42.1703 25.8452 40.1151 26.5504L37.5932 27.4158L36.2969 31.3366L37.6216 33.6834C38.6008 35.4179 38.2192 37.6025 36.7101 38.9024L34.5563 40.7576C33.0484 42.0565 30.8336 42.1114 29.2632 40.8887L27.1331 39.2302L23.0667 39.929L21.8376 42.2944C20.8357 44.2224 18.5232 45.0606 16.5186 44.2223L13.4364 42.9334C11.5736 42.1544 10.5345 40.1548 10.9677 38.1828L11.49 35.805L8.76346 32.6397L6.3346 32.804C4.32016 32.9404 2.49649 31.6165 2.00203 29.659L1.18938 26.4418C0.652667 24.3169 1.84912 22.1385 3.93021 21.4515L6.43852 20.6234L7.69926 16.6724L6.3719 14.314ZM26.8119 29.5879C29.8978 26.9297 30.2446 22.2731 27.5864 19.1872C24.9282 16.1012 20.2717 15.7544 17.1857 18.4126C14.0998 21.0708 13.753 25.7274 16.4112 28.8133C19.0694 31.8993 23.7259 32.246 26.8119 29.5879Z" style="fill:var(--sapContent_Illustrative_Color5)"/>
<path fill-rule="evenodd" clip-rule="evenodd" d="M7.37189 12.314C6.39593 10.5799 6.77841 8.39819 8.28604 7.09955L10.4405 5.24377C11.9493 3.94407 14.1658 3.89005 15.7362 5.11472L17.8664 6.77602L21.9638 6.11189L23.1546 3.75334C24.1423 1.79697 26.4739 0.936378 28.4958 1.7819L31.5579 3.06243C33.4199 3.84111 34.4591 5.83963 34.027 7.81114L33.5062 10.1873L36.2335 13.3536L38.6606 13.1905C40.6744 13.0552 42.497 14.3789 42.9913 16.3357L43.8096 19.5757C44.3418 21.6823 43.1703 23.8452 41.1151 24.5504L38.5932 25.4158L37.2968 29.3366L38.6216 31.6833C39.6008 33.4179 39.2192 35.6024 37.7101 36.9024L35.5563 38.7576C34.0484 40.0565 31.8336 40.1114 30.2632 38.8887L28.1331 37.2302L24.0667 37.929L22.8375 40.2943C21.8357 42.2224 19.5232 43.0606 17.5186 42.2223L14.4364 40.9334C12.5736 40.1544 11.5345 38.1548 11.9677 36.1827L12.49 33.805L9.76345 30.6397L7.33459 30.804C5.32015 30.9403 3.49649 29.6165 3.00202 27.659L2.18938 24.4418C1.65266 22.3169 2.84911 20.1385 4.9302 19.4515L7.43852 18.6234L8.69925 14.6724L7.37189 12.314ZM27.8119 27.5878C30.8978 24.9297 31.2446 20.2731 28.5864 17.1871C25.9282 14.1012 21.2717 13.7544 18.1857 16.4126C15.0997 19.0708 14.753 23.7273 17.4112 26.8133C20.0693 29.8993 24.7259 30.246 27.8119 27.5878Z" style="fill:var(--sapContent_Illustrative_Color8)"/>
<path fill-rule="evenodd" clip-rule="evenodd" d="M17.5956 7.83296L15.1212 5.90327C13.9267 4.97175 12.2408 5.01284 11.0931 6.00144L8.93868 7.85721C7.79192 8.84501 7.50099 10.5045 8.24335 11.8235L9.78432 14.5614L8.23619 19.4131L5.2437 20.4011C3.66074 20.9237 2.75068 22.5806 3.15893 24.1969L3.97157 27.4141C4.34768 28.9031 5.73482 29.91 7.26707 29.8063L10.1948 29.6082L13.574 33.5312L12.9444 36.3973C12.6149 37.8973 13.4053 39.4183 14.8222 40.0108L17.9044 41.2997C19.4292 41.9374 21.1881 41.2998 21.9502 39.8332L23.4082 37.0275L28.399 36.1699L30.8775 38.0997C32.072 39.0297 33.7567 38.9879 34.9037 38L37.0574 36.1447C38.2053 35.1559 38.4956 33.4943 37.7508 32.1749L36.2085 29.4428L37.7994 24.6309L40.7905 23.6045C42.3538 23.0681 43.2448 21.423 42.8401 19.8206L42.0217 16.5806C41.6457 15.0922 40.2594 14.0853 38.7277 14.1882L35.802 14.3848L32.4224 10.4614L33.0501 7.59705C33.3788 6.09745 32.5884 4.5773 31.1721 3.98501L28.11 2.70448C26.572 2.06134 24.7985 2.71594 24.0473 4.20403L22.6268 7.01747L17.5956 7.83296ZM8.69925 14.6724L7.43852 18.6234L4.9302 19.4515C2.84911 20.1385 1.65266 22.3169 2.18938 24.4418L3.00202 27.659C3.49649 29.6165 5.32015 30.9403 7.33459 30.804L9.76345 30.6397L12.49 33.805L11.9677 36.1827C11.5345 38.1548 12.5736 40.1544 14.4364 40.9334L17.5186 42.2223C19.5232 43.0606 21.8357 42.2224 22.8375 40.2943L24.0667 37.929L28.1331 37.2302L30.2632 38.8887C31.8336 40.1114 34.0484 40.0565 35.5563 38.7576L37.7101 36.9024C39.2192 35.6024 39.6008 33.4179 38.6216 31.6833L37.2968 29.3366L38.5932 25.4158L41.1151 24.5504C43.1703 23.8452 44.3418 21.6823 43.8096 19.5757L42.9913 16.3357C42.497 14.3789 40.6744 13.0552 38.6606 13.1905L36.2335 13.3536L33.5062 10.1873L34.027 7.81114C34.4591 5.83963 33.4199 3.84111 31.5579 3.06243L28.4958 1.7819C26.4739 0.936378 24.1423 1.79697 23.1546 3.75334L21.9638 6.11189L17.8664 6.77602L15.7362 5.11472C14.1658 3.89005 11.9493 3.94407 10.4405 5.24377L8.28604 7.09955C6.77841 8.39819 6.39593 10.5799 7.37189 12.314L8.69925 14.6724ZM29.3441 16.5345C32.3627 20.0389 31.9689 25.3269 28.4645 28.3455C24.9601 31.3641 19.6721 30.9703 16.6535 27.4659C13.6349 23.9615 14.0287 18.6736 17.5331 15.6549C21.0375 12.6363 26.3254 13.0301 29.3441 16.5345ZM28.5864 17.1871C31.2446 20.2731 30.8978 24.9297 27.8119 27.5878C24.7259 30.246 20.0693 29.8993 17.4112 26.8133C14.753 23.7273 15.0997 19.0708 18.1857 16.4126C21.2717 13.7544 25.9282 14.1012 28.5864 17.1871Z" style="fill:var(--sapContent_Illustrative_Color4)"/>
<path d="M31.4853 14.691C35.5221 19.3774 34.9954 26.4489 30.309 30.4857C25.6226 34.5225 18.5511 33.9958 14.5143 29.3095C10.4775 24.6231 11.0042 17.5515 15.6906 13.5147C20.377 9.47796 27.4485 10.0046 31.4853 14.691ZM16.6932 27.4326C19.6934 30.9156 24.9491 31.307 28.4321 28.3068C31.9152 25.3066 32.3065 20.0509 29.3063 16.5679C26.3061 13.0848 21.0505 12.6935 17.5674 15.6937C14.0844 18.6939 13.693 23.9496 16.6932 27.4326Z" style="fill:var(--sapContent_Illustrative_Color3)"/>
</svg>
