<svg width="128" height="128" viewBox="0 0 128 128" id="tnt-Spot-Lock">
  <path fill="var(--sapIllus_AccentColor)" d="M111.9575 25.566C109.2545 24.501 107.9425 21.913 106.9285 19.276 106.8665 19.113 106.7125 19.004 106.5375 19L106.5325 19C106.3595 19.001 106.2055 19.106 106.1405 19.266 104.7875 22.545 102.7755 24.22 100.4465 26.161L100.3935 26.207C100.2655 26.314 100.2095 26.484 100.2475 26.646 100.2845 26.808 100.4115 26.933 100.5735 26.97 102.6285 27.416 105.8085 31.428 105.8085 33.576 105.8065 33.79 105.9615 33.973 106.1735 34.006 106.1925 34.009 106.2135 34.011 106.2335 34.011 106.4245 34.009 106.5915 33.882 106.6425 33.698 107.3235 31.322 109.3025 27.412 111.9565 26.379 112.1815 26.289 112.2895 26.033 112.1985 25.807 112.1535 25.698 112.0665 25.611 111.9575 25.566M94.9702 41.8013C93.5362 41.2153 92.8332 39.7703 92.2852 38.2963 92.2302 38.1353 92.0792 38.0263 91.9092 38.0213L91.9052 38.0213C91.7362 38.0243 91.5862 38.1293 91.5272 38.2863 90.8572 39.8343 89.7862 41.1753 88.4262 42.1713L88.3962 42.1973C88.2722 42.3073 88.2182 42.4763 88.2562 42.6373 88.2892 42.7963 88.4112 42.9223 88.5702 42.9603 89.6272 43.1973 91.3292 45.4243 91.3292 46.5703 91.3242 46.7803 91.4742 46.9633 91.6812 47.0003 91.7002 47.0033 91.7202 47.0043 91.7402 47.0043 91.9262 47.0013 92.0872 46.8733 92.1322 46.6933 92.5002 45.3643 93.5592 43.1823 94.9692 42.6133 95.1942 42.5143 95.2952 42.2513 95.1962 42.0273 95.1512 41.9263 95.0712 41.8463 94.9712 41.8013L94.9702 41.8013z" class="sapIllus_AccentColor"/>
  <path fill="var(--sapIllus_ObjectFillColor)" d="M74.8056,40.5272 L74.8056,52.5952 L79.8166,55.5952 L79.8056,40.5312 C79.7776,31.4162 72.3396,24.0002 63.2256,24.0002 C54.1066,24.0002 46.6646,31.4162 46.6356,40.5312 L46.6356,56.5192 L51.6466,52.5952 L51.6356,40.5262 C51.6666,34.1712 56.8666,29.0002 63.2256,29.0002 C69.5796,29.0002 74.7756,34.1712 74.8056,40.5272" class="sapIllus_ObjectFillColor"/>
  <path fill="var(--sapIllus_StrokeDetailColor)" d="M63.998,104.578 C49.111,104.578 37,92.467 37,77.58 C37,67.846 42.181,59.299 49.928,54.549 L50.161,54.408 C54.211,51.981 58.943,50.582 63.998,50.582 C69.042,50.582 73.765,51.975 77.808,54.392 L78.083,54.557 C85.822,59.31 90.996,67.851 90.996,77.58 C90.996,92.467 78.885,104.578 63.998,104.578 L63.998,104.578 Z M46.636,40.531 C46.665,31.416 54.106,24 63.226,24 C72.34,24 79.777,31.416 79.806,40.531 L79.815,54.494 C78.252,53.419 76.575,52.497 74.806,51.754 L74.806,40.527 C74.775,34.171 69.58,29 63.226,29 C56.866,29 51.667,34.171 51.636,40.526 L51.645,52.463 C49.859,53.345 48.183,54.413 46.636,55.64 L46.636,40.531 Z M52.641,40.257 C52.815,34.576 57.507,30 63.226,30 C69.031,30 73.777,34.724 73.806,40.529 L73.806,51.359 C70.752,50.213 67.447,49.582 63.998,49.582 C59.958,49.582 56.119,50.449 52.646,51.996 L52.646,40.529 L52.641,40.257 Z M80.816,55.212 L80.816,40.529 L80.806,40.029 L80.797,40.029 C80.503,30.595 72.723,23 63.226,23 C53.558,23 45.666,30.863 45.636,40.529 L45.636,56.472 C39.739,61.608 36,69.163 36,77.58 C36,93.018 48.56,105.578 63.998,105.578 C79.436,105.578 91.996,93.018 91.996,77.58 C91.996,68.448 87.601,60.326 80.816,55.212 L80.816,55.212 Z" class="sapIllus_StrokeDetailColor"/>
  <path fill="var(--sapIllus_ObjectFillColor)" d="M63.998,50.5819 C49.111,50.5819 37,62.6929 37,77.5799 C37,92.4669 49.111,104.5779 63.998,104.5779 C78.885,104.5779 90.996,92.4669 90.996,77.5799 C90.996,62.6929 78.885,50.5819 63.998,50.5819" class="sapIllus_ObjectFillColor"/>
  <path fill="var(--sapIllus_BrandColorSecondary)" d="M61.9462,56.1981 C73.7562,55.0651 84.2472,63.7191 85.3802,75.5281 C86.5132,87.3381 77.8592,97.8291 66.0502,98.9621 C54.2412,100.0951 43.7502,91.4411 42.6162,79.6331 C41.4832,67.8231 50.1372,57.3321 61.9462,56.1981" class="sapIllus_BrandColorSecondary"/>
  <path fill="var(--sapIllus_PatternShadow)" d="M91.3026,75.6551 C91.0856,72.9701 90.4706,70.3331 89.4766,67.8301 C87.5566,63.1351 84.4006,59.0511 80.3426,56.0091 C82.6266,60.1331 84.1036,64.6551 84.6946,69.3331 C85.4066,73.6081 85.1716,77.9881 84.0066,82.1631 C82.9956,85.7061 81.1886,88.9701 78.7236,91.7071 C78.0706,92.3741 77.3786,93.0031 76.6526,93.5891 C75.5256,94.4561 74.3246,95.2211 73.0636,95.8781 C68.0366,98.4331 60.6636,98.4651 60.6636,98.4651 C54.3456,98.4161 48.1216,96.9211 42.4696,94.0941 C45.1906,97.7491 48.7886,100.6601 52.9316,102.5571 C55.9766,103.9561 59.2546,104.7751 62.5996,104.9731 C63.8116,105.0401 65.0256,105.0331 66.2366,104.9551 C66.9296,104.9051 67.5256,104.8311 67.7856,104.7981 C68.1706,104.7591 68.5526,104.6981 68.9316,104.6171 C69.3726,104.5151 69.5456,104.4331 70.2546,104.2021 C70.8536,104.0061 71.1686,103.9201 71.4966,103.8191 C73.2256,103.2591 74.9216,102.6011 76.5746,101.8471 C77.5146,101.4591 78.4226,101.0001 79.2916,100.4741 C79.9186,100.0731 80.5206,99.6351 81.0936,99.1621 C82.2776,98.2001 83.3906,97.1541 84.4236,96.0321 C86.6296,93.4721 88.3986,90.5671 89.6596,87.4331 C91.0686,83.6761 91.6286,79.6541 91.3026,75.6551" class="sapIllus_PatternShadow"/>
  <path fill="var(--sapIllus_StrokeDetailColor)" d="M63.9257 66.8456C63.6497 66.8456 63.4257 66.6216 63.4257 66.3456L63.4257 62.4666C63.4257 62.1906 63.6497 61.9666 63.9257 61.9666 64.2017 61.9666 64.4257 62.1906 64.4257 62.4666L64.4257 66.3456C64.4257 66.6216 64.2017 66.8456 63.9257 66.8456M63.9257 92.9003C63.6497 92.9003 63.4257 92.6763 63.4257 92.4003L63.4257 88.5223C63.4257 88.2463 63.6497 88.0223 63.9257 88.0223 64.2017 88.0223 64.4257 88.2463 64.4257 88.5223L64.4257 92.4003C64.4257 92.6763 64.2017 92.9003 63.9257 92.9003M52.8378 78.076L48.9598 78.076C48.6828 78.076 48.4598 77.852 48.4598 77.576 48.4598 77.3 48.6828 77.076 48.9598 77.076L52.8378 77.076C53.1138 77.076 53.3378 77.3 53.3378 77.576 53.3378 77.852 53.1138 78.076 52.8378 78.076M78.8925 78.076L75.0145 78.076C74.7385 78.076 74.5145 77.852 74.5145 77.576 74.5145 77.3 74.7385 77.076 75.0145 77.076L78.8925 77.076C79.1685 77.076 79.3925 77.3 79.3925 77.576 79.3925 77.852 79.1685 78.076 78.8925 78.076M53.6816 73.6903C53.6176 73.6903 53.5526 73.6783 53.4906 73.6523L49.9076 72.1683C49.6526 72.0623 49.5316 71.7693 49.6366 71.5143 49.7436 71.2593 50.0376 71.1373 50.2896 71.2443L53.8726 72.7283C54.1276 72.8343 54.2486 73.1273 54.1436 73.3813 54.0636 73.5743 53.8776 73.6903 53.6816 73.6903M77.7538 83.661C77.6908 83.661 77.6248 83.649 77.5628 83.623L73.9798 82.14C73.7248 82.034 73.6038 81.741 73.7088 81.486 73.8158 81.231 74.1068 81.109 74.3618 81.216L77.9448 82.699C78.1998 82.805 78.3208 83.098 78.2158 83.352 78.1358 83.545 77.9498 83.661 77.7538 83.661M58.33 91.8153C58.266 91.8153 58.201 91.8033 58.139 91.7773 57.884 91.6713 57.763 91.3783 57.868 91.1243L59.352 87.5413C59.459 87.2853 59.752 87.1643 60.006 87.2703 60.261 87.3763 60.382 87.6693 60.276 87.9233L58.792 91.5063C58.712 91.6993 58.526 91.8153 58.33 91.8153M68.3007 67.744C68.2367 67.744 68.1717 67.732 68.1097 67.706 67.8547 67.6 67.7337 67.307 67.8387 67.053L69.3227 63.47C69.4297 63.214 69.7237 63.093 69.9767 63.199 70.2317 63.305 70.3527 63.598 70.2467 63.852L68.7627 67.435C68.6827 67.628 68.4967 67.744 68.3007 67.744M56.0858 70.0936C55.9578 70.0936 55.8298 70.0446 55.7318 69.9476L52.9888 67.2036C52.7938 67.0086 52.7938 66.6926 52.9888 66.4966 53.1848 66.3016 53.5008 66.3016 53.6958 66.4966L56.4398 69.2396C56.6348 69.4356 56.6348 69.7516 56.4398 69.9476 56.3418 70.0446 56.2138 70.0936 56.0858 70.0936M74.5097 88.5165C74.3817 88.5165 74.2537 88.4675 74.1557 88.3705L71.4127 85.6275C71.2177 85.4325 71.2177 85.1165 71.4127 84.9205 71.6087 84.7255 71.9247 84.7255 72.1197 84.9205L74.8637 87.6625C75.0587 87.8585 75.0587 88.1745 74.8637 88.3705 74.7657 88.4675 74.6377 88.5165 74.5097 88.5165M53.4433 88.6171C53.3153 88.6171 53.1873 88.5681 53.0893 88.4711 52.8943 88.2751 52.8943 87.9591 53.0893 87.7631L55.8323 85.0211C56.0273 84.8261 56.3433 84.8261 56.5393 85.0211 56.7343 85.2171 56.7343 85.5331 56.5393 85.7281L53.7973 88.4711C53.6993 88.5681 53.5713 88.6171 53.4433 88.6171M71.8671 70.1932C71.7391 70.1932 71.6111 70.1442 71.5131 70.0472 71.3181 69.8512 71.3181 69.5352 71.5131 69.3392L74.2561 66.5972C74.4511 66.4022 74.7671 66.4022 74.9631 66.5972 75.1581 66.7932 75.1581 67.1092 74.9631 67.3042L72.2211 70.0472C72.1231 70.1442 71.9951 70.1932 71.8671 70.1932M59.6825 67.6893C59.4865 67.6893 59.3005 67.5733 59.2205 67.3803L57.7365 63.7973C57.6305 63.5433 57.7515 63.2503 58.0065 63.1443 58.2625 63.0383 58.5545 63.1613 58.6605 63.4153L60.1445 66.9983C60.2495 67.2523 60.1285 67.5453 59.8735 67.6513 59.8115 67.6773 59.7455 67.6893 59.6825 67.6893M69.6532 91.7616C69.4572 91.7616 69.2712 91.6456 69.1912 91.4526L67.7082 87.8686C67.6022 87.6146 67.7232 87.3216 67.9782 87.2156 68.2362 87.1086 68.5262 87.2326 68.6322 87.4866L70.1152 91.0706C70.2202 91.3246 70.0992 91.6176 69.8442 91.7236 69.7822 91.7496 69.7162 91.7616 69.6532 91.7616M50.1532 83.7928C49.9572 83.7928 49.7712 83.6768 49.6912 83.4838 49.5862 83.2298 49.7072 82.9368 49.9622 82.8308L53.5452 81.3468C53.8002 81.2388 54.0922 81.3628 54.1982 81.6168 54.3032 81.8718 54.1822 82.1648 53.9272 82.2708L50.3442 83.7548C50.2822 83.7808 50.2162 83.7928 50.1532 83.7928M74.2245 73.8212C74.0285 73.8212 73.8425 73.7052 73.7625 73.5122 73.6575 73.2582 73.7785 72.9652 74.0335 72.8592L77.6165 71.3762C77.8725 71.2682 78.1635 71.3922 78.2695 71.6462 78.3745 71.9012 78.2535 72.1942 77.9985 72.3002L74.4155 73.7832C74.3535 73.8092 74.2875 73.8212 74.2245 73.8212" class="sapIllus_StrokeDetailColor"/>
  <polygon fill="var(--sapIllus_StrokeDetailColor)" points="66.815 70.245 72.975 76.405 76.07 66.645" class="sapIllus_StrokeDetailColor"/>
  <polygon fill="var(--sapIllus_AccentColor)" points="66.016 69.053 72.526 75.563 75.501 66.077" class="sapIllus_AccentColor"/>
  <path fill="var(--sapIllus_ObjectFillColor)" d="M72.8564,77.58 C72.8564,82.473 68.8904,86.438 63.9984,86.438 C59.1064,86.438 55.1404,82.473 55.1404,77.58 C55.1404,72.688 59.1064,68.723 63.9984,68.723 C68.8904,68.723 72.8564,72.688 72.8564,77.58" class="sapIllus_ObjectFillColor"/>
  <path fill="var(--sapIllus_StrokeDetailColor)" d="M70.5341,71.6161 C71.9711,73.1911 72.8561,75.2801 72.8561,77.5801 C72.8561,82.4721 68.8901,86.4381 63.9981,86.4381 C61.6981,86.4381 59.6091,85.5541 58.0341,84.1161 C59.6541,85.8901 61.9781,87.0101 64.5701,87.0101 C69.4621,87.0101 73.4281,83.0441 73.4281,78.1521 C73.4281,75.5601 72.3071,73.2361 70.5341,71.6161" class="sapIllus_StrokeDetailColor"/>
</svg>