<svg width="160" height="160" viewBox="0 0 160 160" id="tnt-Dialog-NoUsers">
  <path fill="var(--sapIllus_BackgroundColor)" d="M145.7871,59.5582 C140.1311,51.1172 127.5651,38.9932 115.1881,36.4162 C93.1781,31.8362 65.3081,21.2642 43.2771,28.6342 C22.7071,35.5152 7.2341,57.2492 6.0881,80.7272 C4.0031,123.4322 39.2381,149.3732 74.7251,152.0572 C91.1371,153.2982 108.0161,150.9012 122.3301,142.5572 C151.5011,125.5532 162.7551,84.8812 145.7871,59.5582" class="sapIllus_BackgroundColor"/>
  <path fill="var(--sapIllus_ObjectFillColor)" d="M138.5752,88.6421 C138.5752,112.2721 123.8202,132.5311 102.8312,141.0801 L58.2392,141.0801 C37.2502,132.5311 22.4942,112.2721 22.4942,88.6421 C22.4942,70.1341 31.5472,53.6951 45.5562,43.3291 L115.9542,43.6591 C129.7132,54.0401 138.5752,70.3301 138.5752,88.6421" class="sapIllus_ObjectFillColor"/>
  <path fill="var(--sapIllus_Layering2)" d="M108.8554,134.1089 C106.4384,135.5779 103.8964,136.8609 101.2454,137.9409 L59.8264,137.9409 C56.8794,136.7369 54.0654,135.2909 51.4064,133.6109 C51.5004,133.4789 51.6084,133.3469 51.7254,133.2299 C52.2234,132.7329 52.9154,132.4219 53.6764,132.4219 L106.3134,132.4219 C107.4564,132.4219 108.4354,133.1139 108.8554,134.1089" class="sapIllus_Layering2"/>
  <polygon fill="var(--sapIllus_BrandColorSecondary)" points="81.056 132.422 105.233 132.422 105.233 105.75 81.056 105.75" class="sapIllus_BrandColorSecondary"/>
  <polygon fill="var(--sapIllus_BrandColorSecondary)" points="109.764 92.244 109.764 105.747 76.526 105.747 76.526 92.244 81.588 92.244 81.588 95.606 86.149 95.606 86.149 92.244 90.86 92.244 90.86 95.606 95.43 95.606 95.43 92.244 100.142 92.244 100.142 95.606 104.703 95.606 104.703 92.244" class="sapIllus_BrandColorSecondary"/>
  <path fill="var(--sapIllus_StrokeDetailColor)" d="M93.1728,117.1128 C89.8948,117.1128 87.2358,119.7708 87.2358,123.0498 L87.2358,132.4228 L99.1098,132.4228 L99.1098,123.0498 C99.1098,119.7708 96.4508,117.1128 93.1728,117.1128" class="sapIllus_StrokeDetailColor"/>
  <polygon fill="var(--sapIllus_StrokeDetailColor)" points="81.056 105.747 105.233 105.747 105.233 107.003 83.143 107.003" class="sapIllus_StrokeDetailColor"/>
  <path fill="var(--sapIllus_StrokeDetailColor)" d="M45.687,118.6968 C45.541,118.6968 45.396,118.6338 45.297,118.5098 C38.537,110.1248 34.813,99.5618 34.813,88.7688 C34.813,84.7098 35.327,80.6768 36.341,76.7848 C36.411,76.5168 36.684,76.3498 36.951,76.4268 C37.218,76.4968 37.378,76.7688 37.309,77.0368 C36.316,80.8468 35.813,84.7948 35.813,88.7688 C35.813,99.3348 39.458,109.6748 46.076,117.8838 C46.249,118.0978 46.215,118.4128 46,118.5868 C45.908,118.6608 45.797,118.6968 45.687,118.6968" class="sapIllus_StrokeDetailColor"/>
  <path fill="var(--sapIllus_BackgroundColor)" d="M55.9931 97.48C55.9931 99.454 54.3931 101.053 52.4201 101.053 50.4471 101.053 48.8471 99.454 48.8471 97.48 48.8471 95.507 50.4471 93.908 52.4201 93.908 54.3931 93.908 55.9931 95.507 55.9931 97.48M61.9116 106.6119C61.9116 107.8739 60.8886 108.8969 59.6266 108.8969 58.3646 108.8969 57.3416 107.8739 57.3416 106.6119 57.3416 105.3499 58.3646 104.3269 59.6266 104.3269 60.8886 104.3269 61.9116 105.3499 61.9116 106.6119M59.1767 77.3482C59.1767 78.3612 58.3557 79.1832 57.3417 79.1832 56.3287 79.1832 55.5067 78.3612 55.5067 77.3482 55.5067 76.3342 56.3287 75.5132 57.3417 75.5132 58.3557 75.5132 59.1767 76.3342 59.1767 77.3482" class="sapIllus_BackgroundColor"/>
  <path fill="var(--sapIllus_StrokeDetailColor)" d="M102.7334,140.5806 L58.3374,140.5806 C36.8644,131.7926 22.9944,111.4156 22.9944,88.6426 C22.9944,70.9036 31.2754,54.5796 45.7204,43.8296 L115.7854,44.1576 C129.9534,54.9106 138.0754,71.1146 138.0754,88.6426 C138.0754,111.4166 124.2064,131.7926 102.7334,140.5806 M139.0754,88.6426 C139.0754,70.7436 130.7574,54.2026 116.2544,43.2596 C116.1694,43.1946 116.0644,43.1596 115.9564,43.1586 L45.5594,42.8286 C45.4554,42.7886 45.3464,42.8626 45.2594,42.9266 C30.4744,53.8666 21.9944,70.5286 21.9944,88.6426 C21.9944,111.0596 35.1944,131.1906 55.8254,140.5806 L45.6864,140.5806 C45.4104,140.5806 45.1864,140.8046 45.1864,141.0806 C45.1864,141.3566 45.4104,141.5806 45.6864,141.5806 L58.2394,141.5806 L102.8314,141.5806 L116.6544,141.5806 C116.9304,141.5806 117.1544,141.3566 117.1544,141.0806 C117.1544,140.8046 116.9304,140.5806 116.6544,140.5806 L105.2454,140.5806 C125.8754,131.1906 139.0754,111.0596 139.0754,88.6426" class="sapIllus_StrokeDetailColor"/>
  <path fill="var(--sapIllus_AccentColor)" d="M76.79,120.3951 C74.775,122.7881 78.081,128.8711 75.82,132.3211 C73.098,126.0811 77.097,118.5321 75.617,113.3431 C74.981,111.4911 72.21,112.2801 72.973,114.2371 C74.507,118.1741 72.156,124.5511 73.51,129.4941 C72.517,127.3031 71.926,125.3631 72.107,123.1131 C72.328,121.7901 70.254,121.5251 69.857,123.4651 C69.321,127.0391 71.651,130.2441 74.029,132.4221 L74.944,132.4221 L75.763,132.4221 L75.859,132.4221 L76.856,132.4221 C79.26,129.5601 78.087,124.1631 78.741,122.0021 C79.587,119.9371 77.883,119.4031 76.79,120.3951" class="sapIllus_AccentColor"/>
  <path fill="var(--sapIllus_Layering1)" d="M139.2021 33.2564C139.1931 33.2564 139.1841 33.2564 139.1771 33.2554L128.6821 32.9864C128.2641 32.9764 127.8971 32.7064 127.7621 32.3104 127.6271 31.9144 127.7521 31.4764 128.0771 31.2114L136.9291 24.0004 128.8291 24.0004C128.2771 24.0004 127.8291 23.5524 127.8291 23.0004 127.8291 22.4474 128.2771 22.0004 128.8291 22.0004L139.7401 22.0004C140.1631 22.0004 140.5401 22.2664 140.6821 22.6654 140.8241 23.0644 140.6991 23.5084 140.3711 23.7764L131.4331 31.0564 139.2271 31.2564C139.7791 31.2714 140.2161 31.7304 140.2011 32.2814 140.1871 32.8244 139.7431 33.2564 139.2021 33.2564M147.2216 14.5083L147.1956 14.5083 140.9506 14.3483C140.5326 14.3373 140.1646 14.0683 140.0296 13.6713 139.8946 13.2763 140.0196 12.8373 140.3446 12.5723L144.7306 9.0003 140.8286 9.0003C140.2776 9.0003 139.8286 8.5523 139.8286 8.0003 139.8286 7.4473 140.2776 7.0003 140.8286 7.0003L147.5406 7.0003C147.9636 7.0003 148.3416 7.2663 148.4836 7.6653 148.6246 8.0643 148.5006 8.5083 148.1726 8.7763L143.7006 12.4173 147.2466 12.5093C147.7986 12.5233 148.2346 12.9823 148.2206 13.5343 148.2066 14.0773 147.7616 14.5083 147.2216 14.5083" class="sapIllus_Layering1"/>
  <path fill="var(--sapIllus_PatternShadow)" d="M134.4121,89.2359 C134.4121,111.1829 120.7021,130.0019 101.2091,137.9419 L59.7911,137.9419 C45.5951,132.1609 34.4741,120.6079 29.4831,106.2859 C39.7191,118.2169 54.9041,125.7679 71.8591,125.7679 C102.7041,125.7679 127.6941,100.7679 127.6941,69.9329 C127.6941,67.8379 127.5781,65.7629 127.3471,63.7309 L127.6941,63.7309 C131.9701,71.2919 134.4121,79.9909 134.4121,89.2359" class="sapIllus_PatternShadow"/>
  <path fill="var(--sapIllus_StrokeDetailColor)" d="M101.1435,137.44 L59.9255,137.44 C39.9995,129.281 27.1295,110.371 27.1295,89.238 C27.1295,80.656 29.3005,72.157 33.4105,64.639 L41.4305,64.605 C40.9525,65.41 40.4935,66.225 40.0645,67.056 C39.9385,67.302 40.0345,67.603 40.2805,67.73 C40.3535,67.768 40.4315,67.786 40.5085,67.786 C40.6895,67.786 40.8645,67.687 40.9535,67.515 C41.4655,66.522 42.0285,65.555 42.6135,64.6 L127.4365,64.235 C131.6925,71.858 133.9405,80.497 133.9405,89.238 C133.9405,110.372 121.0705,129.281 101.1435,137.44 M128.1645,63.488 C128.0745,63.33 127.8665,63.217 127.7265,63.234 L43.2425,63.596 C46.1255,59.149 49.7715,55.168 53.9725,51.938 C54.1915,51.77 54.2325,51.456 54.0645,51.237 C53.8955,51.018 53.5825,50.979 53.3635,51.145 C48.9015,54.575 45.0555,58.838 42.0595,63.602 L33.1125,63.64 C32.9315,63.641 32.7645,63.74 32.6765,63.898 C28.3935,71.627 26.1295,80.389 26.1295,89.238 C26.1295,110.812 39.2835,130.11 59.6395,138.403 C59.6985,138.427 59.7635,138.44 59.8275,138.44 L101.2425,138.44 C101.3065,138.44 101.3715,138.427 101.4305,138.403 C121.7875,130.111 134.9405,110.812 134.9405,89.238 C134.9405,80.227 132.5965,71.323 128.1645,63.488" class="sapIllus_StrokeDetailColor"/>
</svg>