<svg width="128" height="128" id="tnt-Spot-Settings" xmlns="http://www.w3.org/2000/svg" viewBox="0 0 128 128">
    <circle cx="64" cy="64" r="64" style="fill:var(--sapContent_Illustrative_Color7)" stroke-width="0" />
    <circle cx="64" cy="64" r="64" style="fill:var(--sapContent_Illustrative_Color7)" stroke-width="0" />
    <path d="m103.7,25.7c0-.7-2-1.3-4.8-1.4-.2-2.7-.8-4.7-1.5-4.7s-1.3,2-1.4,4.8c-2.7.2-4.8.8-4.8,1.5s2,1.3,4.8,1.4c.2,2.7.8,4.7,1.5,4.7s1.3-2,1.4-4.8c2.7-.2,4.8-.8,4.8-1.5Z" style="fill:var(--sapContent_Illustrative_Color18)" stroke-width="0" />
    <path d="m42.3,108.9c0-.5-1.4-.8-3.2-.9-.1-1.8-.5-3.2-1-3.2s-.9,1.4-1,3.2c-1.8.1-3.2.5-3.2,1s1.4.8,3.2.9c.1,1.8.5,3.2,1,3.2s.9-1.4,1-3.2c1.9-.1,3.2-.5,3.2-1Z" style="fill:var(--sapContent_Illustrative_Color18)" stroke-width="0" />
    <rect x="15.1" y="30.5" width="3" height="4" style="fill:var(--sapContent_Illustrative_Color18)" stroke-width="0" />
    <path d="m8.4,32.2c1.1-1.9,2.3-3.7,3.5-5.5.2.2.4.4.7.5l2.9,1.9c.2.9.5,1.8.8,2.7,0,.4.1.7.2,1.1l-1.5,1.8c-.3.3-.5.8-.5,1.4,0,.8.3,1.6.7,2.3l2.6,4c.9,1.4,2.3,2.2,3.3,1.8l2.4-.8c.1.1.2.2.4.2.8.8,1.7,1.6,2.6,2.3l.5,3.4c.2,1.4,1.2,2.9,2.5,3.5l.1-.9,5.4,2.6-6,3.8c-.5.4-1.2.5-2,.1l-3.7-1.7c-1.3-.6-2.3-2.1-2.5-3.5l-.5-3.4c-1-.8-1.9-1.6-2.8-2.6l-2.4.8c-1,.3-2.4-.4-3.3-1.8l-2.6-4c-.5-.7-.7-1.6-.7-2.3,0-.6.2-1.1.5-1.4l1.7-1.8c-.5-1.2-.9-2.4-1.2-3.6l-1.1-.9Z" style="fill:var(--sapContent_Illustrative_Color18)" fill-rule="evenodd" stroke-width="0" />
    <path d="m15.4,34.2l-6.1,3.8-.3.3c-.3.3-.5.8-.5,1.4,0,.8.3,1.6.7,2.3l2.6,4c.9,1.4,2.3,2.2,3.3,1.8l2.5-.8c.9.9,1.8,1.8,2.8,2.6l.5,3.4c.2,1.4,1.2,2.8,2.4,3.4l6-3.8c-1.2-.6-2.1-2-2.3-3.4l-.5-3.4c-.9-.7-1.7-1.5-2.6-2.3-.1-.1-.2-.2-.4-.2l-2.4.8c-1,.3-2.4-.4-3.3-1.8l-2.6-4c-.5-.7-.7-1.6-.7-2.3,0-.6.2-1.1.5-1.4l.4-.4Zm13.9,18.6l.7-.4-.6-.3-.1.7Z" style="fill:var(--sapContent_Illustrative_Color19)" fill-rule="evenodd" stroke-width="0" />
    <path d="m8.4,32.2c.9-1.5,1.8-3,2.7-4.4l1.2-.7c.1.1.2.1.2.2l2.9,1.9v.2l-6,3.8q0-.1-.1-.2l-.9-.8Zm3.9,14.7l6-3.8c.9,1,2,1.5,2.8,1.2l2.4-.8c.1.1.2.2.4.2.8.8,1.7,1.6,2.6,2.3v.2l-6,3.8v-.2c-1-.8-1.9-1.6-2.8-2.6l-2.6.8c-.9.3-2-.2-2.8-1.1Zm9.2,8.1l6-3.8c.5.7,1.1,1.4,1.8,1.7l.1-.9,5.4,2.6-5.8,3.7c-.5.4-1.2.5-2,.1l-3.7-1.7c-.7-.3-1.4-.9-1.8-1.7Z" style="fill:var(--sapContent_Illustrative_Color20)" fill-rule="evenodd" stroke-width="0" />
    <path d="m45.3,47.7l6.1-3.8-5.4-2.6-.7,6.4Z" style="fill:var(--sapContent_Illustrative_Color20)" stroke-width="0" />
    <path d="m39.9,51.7l-1-1.3c-.9.1-1.9.1-2.8,0l-.5,3c-.2,1.1-1.1,1.7-2.2,1.3l1.9,2.3c1,1.3,2.4,1.8,3.3,1.2l2.2-1.4,4.5-2.8-5.4-2.6v.3Z" style="fill:var(--sapContent_Illustrative_Color20)" fill-rule="evenodd" stroke-width="0" />
    <path d="m12,26.7c5.3-7.4,12.2-13.7,20.2-18.3l1.1.5c1.3.6,2.3,2.1,2.5,3.5l.5,3.4c1,.8,1.9,1.6,2.8,2.6l2.4-.8c1-.3,2.4.4,3.3,1.8l2.6,4c.5.8.7,1.6.7,2.3,0,.6-.2,1.1-.5,1.4l-1.7,1.9c.5,1.2.9,2.4,1.1,3.6l2.9,1.9c1.2.8,2.1,2.4,2.1,3.8v4c0,1.4-.9,2.1-2.2,1.8l-2.8-.6c-.3.9-.7,1.7-1.2,2.5l1.7,3.5c.3.6.5,1.3.5,1.9,0,.8-.3,1.3-.8,1.6l-2.6,1.7c-.9.6-2.3.1-3.3-1.2l-2.4-3c-.9.1-1.9.1-2.8,0l-.5,3c-.2,1.3-1.3,1.8-2.6,1.2l-3.6-1.7c-1.3-.6-2.3-2.1-2.5-3.5l-.5-3.4c-1-.8-1.9-1.6-2.8-2.6l-2.5.8c-1,.3-2.4-.4-3.3-1.8l-2.6-4c-.5-.7-.7-1.6-.7-2.3,0-.6.2-1.1.5-1.4l1.7-1.8c-.5-1.2-.9-2.4-1.2-3.6l-2.9-1.9c-.2-.4-.4-.6-.6-.8Zm19.4-5.6c4.9,2.3,8.9,8.5,8.8,13.9,0,5.4-4.1,8-9,5.7-4.9-2.3-8.9-8.5-8.8-13.9,0-5.4,4-8,9-5.7Z" style="fill:var(--sapContent_Illustrative_Color19)" fill-rule="evenodd" stroke-width="0" />
    <path d="m33.7,41.5c.3-.8.4-1.7.4-2.7,0-5.4-3.9-11.7-8.8-13.9-.9-.4-1.7-.7-2.5-.8,1.2-3.5,4.6-4.8,8.6-3,.4.2.9.4,1.3.7q.2.1.5.3c3.4,2.3,6.1,6.5,6.8,10.6.1.3.1.6.1,1,0,.5.1.9.1,1.3,0,4.5-2.8,7-6.5,6.5Z" style="fill:var(--sapContent_Illustrative_Color20)" stroke-width="0" />
    <path d="m34.2,38.9c0,1-.2,1.8-.4,2.6,3.7.5,6.4-2,6.5-6.5,0-.4,0-.8-.1-1.2-1.8,3.4-4.1,4.8-6,5.1Z" style="fill:var(--sapContent_Illustrative_Color18)" fill-rule="evenodd" stroke-width="0" />
    <path d="m115.9,70.9l4.6.8c1.9.3,2.7,2,1.8,3.9l-2.5,5.6c-.9,1.9-3.1,3.6-5.4,3.9l-5.2.7c-1.2,1.5-2.5,2.9-3.9,4.3l1.2,3.7c.5,1.6-.6,3.7-2.7,5.1l-6.1,4c-1.2.7-2.4,1.2-3.6,1.2-.9,0-1.7-.3-2.2-.7l-2.9-2.6c-1.8.7-3.7,1.3-5.6,1.8l-2.8,4.5c-1.2,1.9-3.6,3.3-5.7,3.3h-6.2c-2.1,0-3.3-1.4-2.8-3.3l1.2-4.5c-1.4-.5-2.7-1-3.8-1.7l-5.3,2.7c-.9.5-1.9.7-2.8.7-1.2,0-2-.4-2.5-1.2l-2.7-4.1c-.9-1.4-.1-3.5,1.8-5.1l4.5-3.7c-.2-1.4-.2-2.8-.1-4.3l-4.6-.8c-1.9-.3-2.7-2-1.9-3.9l2.5-5.6c.9-1.9,3.1-3.6,5.4-3.9l5.2-.7c1.2-1.5,2.5-3,3.9-4.4l-1.2-3.6c-.5-1.6.6-3.7,2.7-5.1l6.1-4c1.1-.7,2.4-1.2,3.6-1.2.9,0,1.7.3,2.2.7l2.8,2.6c1.9-.7,3.7-1.4,5.6-1.8l2.9-4.5c1.2-1.9,3.6-3.3,5.7-3.3h6.1c2.1,0,3.3,1.4,2.8,3.3l-1.2,4.4c1.5.5,2.9,1.1,4.1,1.9l5.2-2.6c.9-.5,1.9-.7,2.8-.7,1.2,0,2,.4,2.5,1.2l2.6,4c.9,1.4.1,3.5-1.8,5.1l-4.5,3.7c.3,1.2.3,2.7.2,4.2Zm-36,21.2c8.3,0,17.8-6.1,21.2-13.7,3.4-7.6-.6-13.7-8.9-13.7s-17.8,6.1-21.2,13.7c-3.4,7.5.6,13.7,8.9,13.7Z" style="fill:var(--sapContent_Illustrative_Color2)" fill-rule="evenodd" stroke-width="0" />
    <path d="m127.9,67.2l-7.6-5c-.1,0-.2.1-.2.1l-5.2,2.6c-1.2-.8-2.6-1.4-4.1-1.9l1.2-4.4c.2-.9.1-1.7-.3-2.2l-4.2-1.1h-4.5c-2.1,0-4.5,1.4-5.7,3.3l-2.9,4.5c-1.7.4-3.4,1-5.1,1.7-.2,0-.3.1-.5.1l-2.7-2.6c-.5-.5-1.3-.7-2.2-.7-1.2,0-2.4.4-3.6,1.2l-6.1,4c-2.1,1.4-3.3,3.5-2.7,5.1l1.2,3.7c-1.4,1.4-2.7,2.9-3.9,4.4l-5.2.7c-2.2.3-4.4,1.9-5.3,3.8l1.4.1-3.9,8.4-.5-.8c.2,1,.9,1.8,2.2,2l4.6.8c-.2,1.5-.1,2.9.1,4.3l-2.4,1.9-3.4,7.6-5.8-8.7h.1l-.7-1.1c-.9-1.4-.1-3.5,1.8-5.1l3-2.4-4.5-6.9c-.9-.7-1.1-1.9-.5-3.3l2.5-5.6c.9-1.9,3.1-3.6,5.4-3.9l5.2-.7c1.2-1.5,2.5-3,3.9-4.4l-1.3-3.7c-.5-1.6.6-3.7,2.7-5.1l6.1-4c1.1-.7,2.4-1.2,3.6-1.2.9,0,1.7.3,2.2.7l2.8,2.6c1.9-.7,3.7-1.4,5.6-1.8l2.9-4.5c1.2-1.9,3.6-3.3,5.7-3.3h6.1c1.3,0,2.3.5,2.7,1.4h0l4.7,7.3,3.5-1.8c.9-.5,1.9-.7,2.8-.7,1.2,0,2.1.4,2.5,1.2l2.6,4c.2.3.3.5.3.9l5.4,8.2c.2.1.2.2.2.3Z" style="fill:var(--sapContent_Illustrative_Color2)" fill-rule="evenodd" stroke-width="0" />
    <path d="m126.3,78.8c-.2.9-.4,1.7-.7,2.6l-5.2-1.3,2.3-6.7,3.6,5.4Z" style="fill:var(--sapContent_Illustrative_Color2)" fill-rule="evenodd" stroke-width="0" />
    <path d="m71.8,118l-5.8-8.7,9.6.4-3.8,8.3Z" style="fill:var(--sapContent_Illustrative_Color4)" stroke-width="0" />
    <path d="m120.6,94c-.1,0-.2,0-.4.1l-5.2.7c-1.2,1.5-2.5,2.9-3.9,4.3l1.2,3.7c.5,1.6-.6,3.7-2.7,5.1l-6.1,4c-1.2.7-2.4,1.2-3.6,1.2-.9,0-1.7-.3-2.2-.7l-2.9-2.6c-1.8.7-3.7,1.3-5.6,1.8l-2.8,4.5c-1.2,1.9-3.6,3.3-5.7,3.3h-6.2c-2.1,0-3.3-1.4-2.8-3.3l1.2-4.5c-1.4-.5-2.7-1-3.8-1.7l-5.3,2.7c-.9.5-1.9.7-2.8.7-1.2,0-2-.4-2.5-1.2l-2.6-4c-.9-1.4-.1-3.5,1.8-5.1l4.5-3.7c-.2-1.4-.2-2.8-.1-4.3l-4.6-.8c-1.9-.3-2.7-2-1.9-3.9l2.5-5.6c.9-1.9,3.1-3.6,5.4-3.9l5.2-.7c1.2-1.5,2.5-3,3.9-4.4l-1.2-3.7c-.5-1.6.6-3.7,2.7-5.1l6.1-4c1.1-.7,2.4-1.2,3.6-1.2.9,0,1.7.3,2.2.7l2.8,2.6c1.9-.7,3.7-1.4,5.6-1.8l2.9-4.5c1.2-1.9,3.6-3.3,5.7-3.3h6.1c2.1,0,3.3,1.4,2.8,3.3l-1.2,4.4c1.5.5,2.9,1.1,4.1,1.9l5.2-2.6c.9-.5,1.9-.7,2.8-.7,1.2,0,2,.4,2.5,1.2l2.5,3.9c0,1.2-.1,2.4-.2,3.5-.4.6-.9,1.2-1.5,1.7l-4.5,3.7c.2,1.4.2,2.8,0,4.3l4.2.7c-1.2,4.6-3,9-5.2,13.3Zm-13.7-6.7c-3.4,7.6-12.9,13.7-21.2,13.7s-12.3-6.1-8.9-13.7,12.9-13.7,21.2-13.7c8.3,0,12.3,6.2,8.9,13.7Z" style="fill:var(--sapContent_Illustrative_Color13)" fill-rule="evenodd" stroke-width="0" />
    <path d="m88.7,65.8v-.9h.8l-.8.9Z" style="fill:var(--sapContent_Illustrative_Color13)" stroke-width="0" />
    <path d="m89,100.7h-.2c-1,.2-2.1.3-3.1.3-6.7,0-10.6-4-10-9.6,1.2.4,2.7.6,4.2.6,8.3,0,17.8-6.1,21.2-13.7.6-1.4,1-2.8,1.2-4.1,5.3,1.7,7.4,6.9,4.6,13.1-.4.9-.9,1.8-1.5,2.7l-.2.2v.1c-3.5,5.2-9.9,9.3-16.2,10.4Z" style="fill:var(--sapContent_Illustrative_Color4)" stroke-width="0" />
    <path d="m71.2,70.5l-5.8-8.7c0,.4,0,.8.1,1.2l1.2,3.7c-1,1-2,2-2.9,3.1l5.9,8.8c.9-1,1.8-2,2.8-3l-1.2-3.7c-.1-.4-.2-.9-.1-1.4Z" style="fill:var(--sapContent_Illustrative_Color4)" fill-rule="evenodd" stroke-width="0" />
    <path d="m94.3,63.3c-1.7.4-3.4,1-5.1,1.7-.2,0-.3.1-.5.1h0l-6.3-9.4.6.6c1.9-.7,3.7-1.4,5.6-1.8l.9-1.3,5.9,8.8-1.1,1.3Zm-37.2,8.6c.2,0,.4-.1.6-.1l5.2-.7c.4-.6.9-1.1,1.3-1.6l5.9,8.8c-.5.6-1,1.2-1.4,1.8l-5.2.7c-.1,0-.3,0-.4.1l-6-9Z" style="fill:var(--sapContent_Illustrative_Color13)" fill-rule="evenodd" stroke-width="0" />
    <path d="m55.8,92.9h0Zm-.5-.6l-.9-1.5h-.1l.5.7-1.2.9,6,8.9.1-.2,2.4-1.9c-.2-1.4-.2-2.8-.1-4.3l-4.6-.8c-1.1-.1-1.9-.8-2.1-1.8Z" style="fill:var(--sapContent_Illustrative_Color4)" fill-rule="evenodd" stroke-width="0" />
    <path d="m6.7,92.6c.1-.2.2-.4.3-.5l24.6-38.2,17.9,11.6-24.5,38.1c-1.7,2.6-4.3,4.2-7.1,4.7-4.5-4.6-8.3-9.9-11.2-15.7Z" style="fill:var(--sapContent_Illustrative_Color3)" fill-rule="evenodd" stroke-width="0" />
    <ellipse cx="40.42" cy="59.94" rx="5.4" ry="10.7" transform="translate(-31.86 61.47) rotate(-57.22)" style="fill:var(--sapContent_Illustrative_Color15)" stroke-width="0" />
    <path d="m39.7,50.6c-2.4,2.4-4.9,2.1-6,2.2l16.1,10.3c-.8-2.1-1.1-5.4-.6-6.4l-9.5-6.1Z" style="fill:var(--sapContent_Illustrative_Color15)" stroke-width="0" />
    <path d="m50.8,51.8l2.8,1.8-1.8,2.8h0c-1.2,1.7-5,1.3-8.5-1s-5.5-5.6-4.4-7.4h0l1.7-2.7,2.8,1.8c1.3.3,2.7.9,4,1.8,1.5.9,2.6,1.9,3.4,2.9Z" style="fill:var(--sapContent_Illustrative_Color3)" fill-rule="evenodd" stroke-width="0" />
    <ellipse cx="47.21" cy="49.45" rx="3.9" ry="7.7" transform="translate(-19.93 62.37) rotate(-57.22)" style="fill:var(--sapContent_Illustrative_Color15)" stroke-width="0" />
    <path d="m76.9,3.2l-4.7,2.4-27.3,42.4h.1c-.1.6.5,1.6,1.6,2.3s2.2.9,2.7.5h.1l.2-.2h0l27.1-42.1.2-5.3Z" style="fill:var(--sapContent_Illustrative_Color6)" fill-rule="evenodd" stroke-width="0" />
    <path d="m73.6,4.9l-1.4,5.6,4.6-3.5.2-3.8-3.4,1.7Z" style="fill:var(--sapContent_Illustrative_Color5)" fill-rule="evenodd" stroke-width="0" />
    <path d="m30.8,63h0c.6.6.7,1.6.2,2.2l-18.9,29.3c-.4.7-1.2.8-1.8.2h0c-.6-.6-.7-1.6-.2-2.2l18.9-29.3c.4-.7,1.2-.8,1.8-.2Z" style="fill:var(--sapContent_Illustrative_Color15)" stroke-width="0" />
    <path d="m41.8,70.1h0c-.7-.3-1.7,0-2.1.7l-18.8,29.3c-.4.7-.2,1.4.6,1.7h0c.7.3,1.7,0,2.1-.7l18.8-29.3c.4-.7.1-1.4-.6-1.7Z" style="fill:var(--sapContent_Illustrative_Color15)" stroke-width="0" />
    <path d="m35.6,67.6h0c.7.4.9,1.3.4,2l-18.8,29.2c-.4.7-1.3.9-2,.4h0c-.7-.4-.9-1.3-.4-2l18.8-29.2c.4-.7,1.3-.9,2-.4Z" style="fill:var(--sapContent_Illustrative_Color15)" stroke-width="0" />
    <path d="m57.6,30.6h0c.4.2.5.7.2,1.1l-9.4,14.6c-.2.4-.7.5-1.1.2h0c-.4-.2-.5-.7-.2-1.1l9.4-14.6c.2-.4.7-.5,1.1-.2Z" style="fill:var(--sapContent_Illustrative_Color8)" stroke-width="0" />
    <path d="m60.4,26.1h0c.4.2.5.7.2,1.1l-1.1,1.7c-.2.4-.7.5-1.1.2h0c-.4-.2-.5-.7-.2-1.1l1.1-1.7c.3-.4.8-.5,1.1-.2Z" style="fill:var(--sapContent_Illustrative_Color8)" stroke-width="0" />
</svg>