<svg width="160" height="160" viewBox="0 0 160 160" fill="none" xmlns="http://www.w3.org/2000/svg" id="tnt-Dialog-MissionFailed">
<circle cx="79.8644" cy="84.02" r="75.9797" style="fill:var(--sapContent_Illustrative_Color7)"/>
<path fill-rule="evenodd" clip-rule="evenodd" d="M153.303 103.572C154.959 97.3333 155.842 90.7797 155.842 84.0199C155.842 74.3482 154.035 65.0985 150.74 56.5901C147.995 55.7553 144.892 56.3893 142.676 58.5174C139.841 61.2388 139.389 65.5086 141.372 68.7223C135.682 66.5024 129.043 67.5621 124.427 71.9941C122.973 73.3903 121.845 75.0007 121.044 76.7324L121.007 76.6937C113.914 69.3065 102.176 69.0676 94.7888 76.16C87.4015 83.2525 87.1626 94.9907 94.2551 102.378C101.348 109.765 113.086 110.004 120.473 102.912C122.622 100.848 124.166 98.3921 125.101 95.7641C131.281 101.323 140.628 101.456 146.729 95.9618C147.66 97.7607 148.862 99.4578 150.336 100.993C151.262 101.958 152.256 102.817 153.303 103.572ZM147.323 72.7075C147.265 72.6478 147.208 72.5885 147.15 72.5298C147.778 72.6223 148.415 72.6418 149.048 72.588C148.755 72.9537 148.475 73.3267 148.209 73.7065C147.929 73.3649 147.634 73.0316 147.323 72.7075ZM39.5671 68.3552C32.9325 74.7251 32.7179 85.2674 39.0878 91.902C45.4577 98.5366 55.9999 98.7512 62.6345 92.3813C69.2691 86.0114 69.4837 75.4691 63.1138 68.8345C56.7439 62.1999 46.2017 61.9853 39.5671 68.3552Z" style="fill:var(--sapContent_Illustrative_Color18)"/>
<path fill-rule="evenodd" clip-rule="evenodd" d="M139.847 130.66C131.494 134.73 121.131 133.176 114.35 126.112C105.937 117.35 106.22 103.426 114.983 95.0132C123.745 86.6002 137.669 86.8836 146.082 95.6462C149.435 99.139 151.407 103.452 152.011 107.909C149.26 116.221 145.113 123.897 139.847 130.66Z" style="fill:var(--sapContent_Illustrative_Color19)"/>
<path fill-rule="evenodd" clip-rule="evenodd" d="M140.841 129.358H84.5783L77.4043 89.334L91.7524 62.1481L96.2833 89.334L121.581 53.0862L114.785 94.6201L131.398 86.6909L125.735 97.6408L154.058 100.473C153.517 102.923 152.858 105.329 152.087 107.684L129.133 120.296L144.819 123.459C143.584 125.49 142.256 127.458 140.841 129.358Z" style="fill:var(--sapContent_Illustrative_Color3)"/>
<path fill-rule="evenodd" clip-rule="evenodd" d="M4.66548 94.9617C4.56582 94.2707 4.47546 93.5767 4.39453 92.8799L43.4217 103.682L60.0353 145.216L24.841 136.417C20.4491 131.807 16.6307 126.645 13.5003 121.046L15.1031 120.673L12.4065 119.018C10.9756 116.266 9.70818 113.415 8.61716 110.479H23.0323L4.66548 94.9617Z" style="fill:var(--sapContent_Illustrative_Color3)"/>
<path fill-rule="evenodd" clip-rule="evenodd" d="M147.807 118.064C135.322 142.932 109.585 160 79.8624 160C50.1829 160 24.4779 142.982 11.9727 118.172C24.4454 117.061 37.4352 114.988 47.5203 111.218C69.3441 103.059 81.7652 106.044 102.229 111.218C116.133 114.733 132.196 116.837 147.807 118.064Z" style="fill:var(--sapContent_Illustrative_Color18)"/>
<path fill-rule="evenodd" clip-rule="evenodd" d="M24.291 135.833L30.6929 133.922L49.1195 136.033L54.3978 131.107L52.1106 125.3V122.561L49.1195 118.791L48.2347 110.953C51.2011 109.867 53.9941 108.989 56.6587 108.296L98.4538 110.269C99.6832 110.575 100.94 110.892 102.229 111.218C104.121 111.696 106.054 112.149 108.02 112.576L109.974 114.941L108.743 116.112L114.197 121.45L127.942 125.3L124.951 131.986H134.627V136.033H135.25C134.709 136.609 134.16 137.176 133.601 137.734L133.044 137.792V133.922H120.376L122.312 127.764L107.532 126.708L104.541 133.922L90.642 137.792V140.959H102.43L99.4307 143.226L104.541 146.738L98.4538 143.965L87.299 152.396L93.2811 144.654H86.4194L83.4283 138.672C77.5049 138.086 65.1655 136.314 63.195 133.922L58.9374 137.792H53.3811L45.0466 140.959L40.4163 137.792L29.4581 136.033L25.0997 136.687C24.828 136.404 24.5584 136.12 24.291 135.833Z" style="fill:var(--sapContent_Illustrative_Color19)"/>
<path fill-rule="evenodd" clip-rule="evenodd" d="M142.877 126.487C142.672 126.791 142.465 127.092 142.256 127.393L136.406 126.487H142.877Z" style="fill:var(--sapContent_Illustrative_Color19)"/>
<path fill-rule="evenodd" clip-rule="evenodd" d="M135.25 136.033C134.71 136.609 134.16 137.176 133.602 137.734L133.044 137.792V133.922H120.376L122.312 127.764L114.252 127.188V121.466L127.942 125.3L124.951 131.986H134.628V136.033H135.25Z" style="fill:var(--sapContent_Illustrative_Color19)"/>
<path fill-rule="evenodd" clip-rule="evenodd" d="M135.25 136.033C134.709 136.609 134.16 137.176 133.601 137.735L133.046 137.792V133.922H125.123V131.986H134.629V136.033H135.25Z" style="fill:var(--sapContent_Illustrative_Color20)"/>
<path fill-rule="evenodd" clip-rule="evenodd" d="M135.25 136.033C135.035 136.262 134.818 136.49 134.6 136.717V132.302H134.629V136.033H135.25Z" style="fill:var(--sapContent_Illustrative_Color19)"/>
<path fill-rule="evenodd" clip-rule="evenodd" d="M114.151 127.181L108.949 126.809V116.314L114.151 121.405V127.181ZM109.012 115.856H108.949V115.915L109.012 115.856Z" style="fill:var(--sapContent_Illustrative_Color20)"/>
<path fill-rule="evenodd" clip-rule="evenodd" d="M25.0997 136.687C24.828 136.404 24.5584 136.12 24.291 135.833L30.6926 133.922L49.1081 136.032V139.416L45.0464 140.959L40.4161 137.792L29.4578 136.033L25.0997 136.687Z" style="fill:var(--sapContent_Illustrative_Color20)"/>
<path fill-rule="evenodd" clip-rule="evenodd" d="M30.5564 133.963L24.293 135.833C24.5604 136.12 24.8301 136.404 25.1019 136.687L29.458 136.033L30.5564 136.21V133.963Z" style="fill:var(--sapContent_Illustrative_Color19)"/>
<path fill-rule="evenodd" clip-rule="evenodd" d="M90.6094 148.114L93.2831 144.654H90.6094V139.254H90.644V140.959H102.432L99.4327 143.226L102.537 145.36V145.824L98.4558 143.965L90.6094 149.895V148.114Z" style="fill:var(--sapContent_Illustrative_Color20)"/>
<path fill-rule="evenodd" clip-rule="evenodd" d="M93.2494 147.904V144.704L87.306 152.396L93.2494 147.904ZM93.2494 144.654H86.4263L86.4121 144.626H93.2494V144.654Z" style="fill:var(--sapContent_Illustrative_Color19)"/>
<path fill-rule="evenodd" clip-rule="evenodd" d="M122.296 133.922H120.373L122.274 127.872H122.296V133.922Z" style="fill:var(--sapContent_Illustrative_Color20)"/>
<path d="M34.3637 39.1488C31.6549 39.7324 24.3963 33.8241 30.7759 32.9403C31.795 32.7991 32.8218 32.7291 33.833 32.5167C34.4834 32.3777 35.3452 32.2326 35.3104 31.3333C35.281 30.5225 34.5173 30.2076 33.8577 30.0296C32.1839 29.5726 30.4528 29.4058 28.7053 29.3596C20.7967 27.6312 26.3966 19.3315 17.2596 20.8482C15.9854 21.0596 15.0655 20.0919 14.2473 19.2784C10.7866 15.8584 9.39201 4.00429 15.9831 0.696903C16.243 0.592154 16.488 0.467831 16.7479 0.363082C19.1475 0.130194 20.9634 1.3433 22.6555 2.82009C25.2986 5.54949 27.5203 5.97627 29.6819 4.14987C32.1074 2.06143 34.107 1.93166 36.7506 3.88941C38.7573 5.37417 40.7076 6.88629 43.1357 7.72716C44.793 8.30471 45.4535 9.88589 45.4661 11.5889C45.4891 17.5727 44.1319 19.5443 38.6206 21.7541C37.6947 21.8554 36.8861 22.2534 36.2487 22.9379C35.0753 23.5666 34.5238 24.6487 34.7792 25.8587C35.0447 27.1228 36.2473 27.6907 37.3961 27.883C39.2139 28.1843 39.3701 28.8371 38.8176 30.568C37.8089 33.7097 31.8735 35.3695 34.3958 39.1707L34.3637 39.1488Z" style="fill:var(--sapContent_Illustrative_Color19)"/>
<path fill-rule="evenodd" clip-rule="evenodd" d="M29.5143 36.9618C30.9159 38.3161 33.1186 39.4166 34.3623 39.1487L34.3944 39.1706C32.8244 36.8046 34.5313 35.2682 36.2872 33.6876C37.3522 32.7289 38.4354 31.754 38.8162 30.5679C39.3687 28.837 39.2125 28.1842 37.3946 27.8829C36.2459 27.6906 35.0432 27.1226 34.7777 25.8586C34.5224 24.6485 35.0739 23.5665 36.2473 22.9378C36.8846 22.2533 37.6933 21.8553 38.6191 21.754C44.1305 19.5441 45.4877 17.5726 45.4646 11.5887C45.4521 9.88576 44.7916 8.30458 43.1343 7.72703C40.8596 6.93929 39.0043 5.56246 37.129 4.1709C37.0025 4.07703 36.876 3.9831 36.7491 3.88928C34.1056 1.93153 32.106 2.0613 29.6805 4.14974C27.5189 5.97613 25.2972 5.54936 22.6541 2.81995C20.9619 1.34317 19.1461 0.130061 16.7465 0.36295C16.6165 0.415326 16.4903 0.472593 16.3641 0.529859C16.2379 0.587126 16.1117 0.644397 15.9817 0.696772C13.922 1.73035 12.6421 3.59858 11.9614 5.78324C12.1982 5.63621 12.4489 5.50207 12.714 5.38204C12.8331 5.33901 12.9488 5.29178 13.0645 5.24456C13.1802 5.19734 13.2959 5.15012 13.415 5.10708C15.6232 4.9345 17.3085 5.98107 18.8825 7.24978C21.3456 9.58963 23.3966 9.97413 25.3691 8.44893C27.582 6.70442 29.4228 6.61508 31.8782 8.30111C31.996 8.38191 32.1136 8.4628 32.2311 8.54363C33.9729 9.74202 35.6963 10.9277 37.7999 11.6186C39.3326 12.1251 39.9574 13.4716 39.9865 14.9146C40.0694 19.9849 38.8395 21.6414 33.7851 23.457C32.9332 23.5333 32.1924 23.8622 31.6123 24.4355C30.5378 24.9561 30.0409 25.8673 30.2886 26.8952C30.5462 27.9689 31.66 28.4625 32.7202 28.6373C34.0649 28.857 34.4286 29.2569 34.2672 30.159C34.7977 30.3571 35.2856 30.6883 35.3089 31.3332C35.3424 32.1972 34.5482 32.3651 33.909 32.5002C33.8829 32.5057 33.8571 32.5111 33.8316 32.5166C33.4721 32.5921 33.1106 32.6496 32.7482 32.6987C32.4353 32.987 32.0966 33.2664 31.7598 33.5442C30.5027 34.5813 29.2731 35.5957 29.5143 36.9618Z" style="fill:var(--sapContent_Illustrative_Color18)"/>
<path d="M81.0162 39.743L84.834 46.1387C86.7181 49.2949 87.583 52.9554 87.3108 56.6211L85.7323 77.8772C76.7871 75.9549 67.8604 59.0588 67.1461 55.7332L75.6556 39.866C76.7874 37.7557 79.7887 37.6868 81.0162 39.743Z" style="fill:var(--sapContent_Illustrative_Color2)"/>
<path fill-rule="evenodd" clip-rule="evenodd" d="M81.0201 39.749L81.0167 39.7433C79.7892 37.6871 76.7879 37.756 75.6562 39.8663L67.1466 55.7335C67.8489 59.0032 76.49 75.3913 85.2821 77.7681C70.4885 61.0218 75.2262 46.7825 81.0201 39.749Z" style="fill:var(--sapContent_Illustrative_Color13)"/>
<path d="M51.1181 114.667C30.8483 89.2333 26.6543 61.2993 27.9985 49.4856C30.8348 38.219 42.4863 35.0002 48.3965 36.1373C57.4374 39.8268 70.3757 53.2447 83.3184 71.8295C90.3373 81.9082 95.648 93.1958 99.6957 107.011C100.053 108.229 104.479 110.794 104.805 112C105.066 112.965 101.915 115.713 102.156 116.666C102.426 117.738 105.487 118.914 105.731 119.966C106.123 121.659 103.676 123.209 103.996 124.832C101.079 133.42 78.6632 136.888 64.7293 130.122C63.0903 128.455 58.8683 129.579 57.1833 127.719C55.9544 126.362 57.2723 122.068 56.0231 120.609C55.1534 119.593 53.0997 119.801 52.3415 118.88C51.5832 117.959 51.8817 115.625 51.1181 114.667Z" style="fill:var(--sapContent_Illustrative_Color8)"/>
<path fill-rule="evenodd" clip-rule="evenodd" d="M25.9709 49.1167L25.9554 49.253C24.5486 61.6171 28.9045 90.0631 49.4693 115.897C49.4799 115.924 49.5019 115.986 49.5289 116.094C49.5899 116.341 49.6344 116.641 49.6957 117.075L49.7018 117.118C49.7553 117.497 49.8257 117.996 49.9426 118.465C50.0594 118.933 50.2746 119.605 50.754 120.187C51.2544 120.794 51.8834 121.116 52.3464 121.303C52.7692 121.473 53.2237 121.593 53.5414 121.677C53.5662 121.683 53.5901 121.689 53.6132 121.696C53.9899 121.795 54.2148 121.86 54.3883 121.934C54.4078 121.942 54.4247 121.949 54.4391 121.956C54.4594 122.026 54.4906 122.158 54.5154 122.376C54.5692 122.851 54.565 123.429 54.5547 124.174L54.5537 124.25C54.5444 124.913 54.5329 125.728 54.6157 126.469C54.6957 127.186 54.8996 128.261 55.6594 129.099C56.4436 129.965 57.4387 130.389 58.2939 130.626C59.1375 130.859 60.037 130.959 60.7509 131.037L60.8175 131.044C61.5685 131.125 62.1313 131.187 62.6112 131.303C63.1011 131.422 63.2415 131.542 63.263 131.563L63.5117 131.816L63.8308 131.971C71.254 135.576 80.7757 136.407 88.7825 135.27C92.8001 134.7 96.5506 133.619 99.5415 132.055C102.491 130.513 104.97 128.355 105.942 125.494L106.119 124.974L106.033 124.539C106.04 124.52 106.05 124.494 106.065 124.462C106.163 124.242 106.323 123.992 106.613 123.547L106.628 123.524C106.873 123.149 107.231 122.6 107.479 121.999C107.747 121.353 107.961 120.484 107.733 119.502C107.506 118.523 106.773 117.873 106.434 117.587C106.022 117.239 105.53 116.907 105.147 116.649L105.103 116.619C104.91 116.489 104.741 116.374 104.593 116.271C104.739 116.075 104.911 115.855 105.107 115.604L105.131 115.573C105.471 115.14 105.894 114.598 106.211 114.091C106.374 113.83 106.56 113.499 106.692 113.132C106.809 112.803 106.983 112.178 106.79 111.463C106.636 110.895 106.314 110.454 106.101 110.191C105.86 109.896 105.58 109.617 105.311 109.37C104.786 108.887 104.138 108.373 103.565 107.92L103.538 107.899C102.925 107.412 102.392 106.989 101.987 106.619C101.806 106.453 101.686 106.33 101.613 106.245C97.5179 92.329 92.1343 80.8913 85.0052 70.6545C78.4877 61.2958 71.9469 53.202 65.8663 46.9626C59.8282 40.7667 54.0935 36.2416 49.173 34.2336L48.9845 34.1567L48.7846 34.1182C45.33 33.4536 40.4725 34.0735 36.1003 36.3335C31.6617 38.628 27.5897 42.6863 26.0045 48.9836L25.9709 49.1167ZM101.551 106.167C101.551 106.167 101.554 106.171 101.562 106.181C101.555 106.171 101.552 106.166 101.551 106.167ZM103.965 115.768C103.965 115.768 103.969 115.774 103.98 115.786C103.971 115.774 103.966 115.768 103.965 115.768ZM64.7289 130.122C78.6628 136.888 101.078 133.42 103.996 124.832C103.839 124.037 104.346 123.259 104.858 122.474C105.392 121.656 105.93 120.83 105.73 119.966C105.609 119.44 104.783 118.884 103.954 118.324C103.124 117.764 102.291 117.202 102.155 116.666C102.036 116.193 102.752 115.278 103.472 114.358C104.202 113.425 104.936 112.486 104.805 112C104.641 111.395 103.446 110.449 102.251 109.502C101.062 108.56 99.8733 107.618 99.6954 107.011C95.6477 93.1956 90.337 81.908 83.3181 71.8294C70.3754 53.2446 57.4371 39.8267 48.3962 36.1372C42.4859 35.0001 30.8344 38.2188 27.9982 49.4855C26.654 61.2992 30.8479 89.2331 51.1177 114.667C51.4996 115.146 51.6158 115.969 51.7315 116.787C51.8471 117.606 51.962 118.419 52.3411 118.88C52.7119 119.33 53.3926 119.51 54.0931 119.696C54.8249 119.89 55.5784 120.089 56.0228 120.609C56.6501 121.341 56.63 122.789 56.6102 124.221C56.5906 125.64 56.5712 127.043 57.183 127.719C58.0505 128.676 59.5905 128.843 61.1043 129.007C62.5307 129.161 63.9338 129.313 64.7289 130.122Z" style="fill:var(--sapContent_Illustrative_Color20)"/>
<path d="M40.4921 86.7874C47.4174 70.4829 63.1736 67.5321 73.4932 68.2869C74.283 68.3447 74.2491 69.2942 73.4624 69.3854C65.1699 70.3459 54.5575 72.7321 49.8608 79.7958C48.06 82.5042 44.5089 87.8413 43.2402 88.9328C40.5195 91.2735 41.0085 87.0594 40.4921 86.7874Z" style="fill:var(--sapContent_Illustrative_Color19)"/>
<path fill-rule="evenodd" clip-rule="evenodd" d="M92.5911 132.439C50.8345 113.77 40.432 90.8771 33.6884 40.3746C31.1165 42.5103 29.0038 45.4925 27.9985 49.4858C26.6543 61.2995 30.8483 89.2335 51.118 114.667C51.4999 115.146 51.6162 115.969 51.7318 116.788C51.8474 117.606 51.9623 118.42 52.3414 118.88C52.7123 119.33 53.3929 119.511 54.0934 119.696C54.8253 119.89 55.5788 120.09 56.0231 120.609C56.6504 121.342 56.6304 122.79 56.6106 124.221C56.591 125.64 56.5715 127.044 57.1833 127.719C58.0508 128.677 59.5909 128.843 61.1046 129.007C62.531 129.162 63.9341 129.314 64.7293 130.122C72.9791 134.128 84.202 134.547 92.5911 132.439Z" style="fill:var(--sapContent_Illustrative_Color19)"/>
<path d="M63.3904 47.3808C58.7242 44.7254 50.2412 45.7025 42.171 50.2679C34.6599 54.5169 29.6287 60.6736 28.8647 65.8336C27.7149 59.0689 27.5533 53.3946 27.9981 49.4854C30.8343 38.2188 42.4858 35.0001 48.396 36.1371C52.6626 37.8783 57.797 41.7859 63.3904 47.3808Z" style="fill:var(--sapContent_Illustrative_Color2)"/>
<path fill-rule="evenodd" clip-rule="evenodd" d="M28.3095 48.3891C28.3442 48.2797 28.3798 48.1711 28.4162 48.0633C29.5278 44.7744 31.4311 42.2485 33.6879 40.3745C34.3648 45.443 35.0784 50.2335 35.8569 54.7695C31.9094 58.3037 29.3877 62.3021 28.8648 65.8337C27.7149 59.0689 27.5533 53.3947 27.9981 49.4855C28.0924 49.1112 28.1963 48.7458 28.3095 48.3891Z" style="fill:var(--sapContent_Illustrative_Color13)"/>
<ellipse cx="4.50551" cy="16.4899" rx="4.50551" ry="16.4899" transform="matrix(0.847876 -0.530195 -0.530195 -0.847876 65.5215 95.4709)" style="fill:var(--sapContent_Illustrative_Color2)"/>
<ellipse cx="11.9763" cy="14.9444" rx="11.9763" ry="14.9444" transform="matrix(0.958199 -0.286104 -0.286104 -0.958199 84.1133 130.464)" style="fill:var(--sapContent_Illustrative_Color13)"/>
<ellipse cx="8.80317" cy="10.8946" rx="8.80317" ry="10.8946" transform="matrix(0.958199 -0.286104 -0.286104 -0.958199 88.8203 124.849)" style="fill:var(--sapContent_Illustrative_Color20)"/>
<path fill-rule="evenodd" clip-rule="evenodd" d="M91.8989 122.072C91.9685 121.919 91.9834 121.74 91.9277 121.568L91.3707 119.841L93.9999 115.637L97.6666 114.896C98.046 114.82 98.2913 114.45 98.2146 114.071C98.138 113.691 97.7683 113.446 97.389 113.523L93.1314 114.383L90.8083 118.097L89.9055 115.298L94.1753 109.027L91.8931 104.248C91.7264 103.899 91.3081 103.751 90.9589 103.917C90.6097 104.084 90.4618 104.502 90.6285 104.852L92.5636 108.904L88.3613 115.076L90.3254 121.165C90.8318 121.526 91.3588 121.83 91.8989 122.072Z" style="fill:var(--sapContent_Illustrative_Color18)"/>
<path fill-rule="evenodd" clip-rule="evenodd" d="M90.4751 101.646C94.8373 102.482 98.6707 105.833 100.096 110.608C101.325 114.722 100.478 118.933 98.1797 121.997C102.314 120.182 104.337 114.735 102.722 109.329C101.001 103.563 95.7952 100.027 91.0952 101.43C90.8838 101.493 90.6771 101.565 90.4751 101.646Z" style="fill:var(--sapContent_Illustrative_Color14)"/>
<path d="M11.8857 81.2605L15.7788 87.6106C17.7001 90.7444 20.541 93.2094 23.9143 94.6696L43.4749 103.137C45.9239 94.3215 35.101 78.5725 32.4869 76.3963L14.4827 76.5694C12.0881 76.5924 10.6341 79.2189 11.8857 81.2605Z" style="fill:var(--sapContent_Illustrative_Color2)"/>
<path fill-rule="evenodd" clip-rule="evenodd" d="M43.7845 99.1163C43.0748 90.2074 34.7376 78.2702 32.4866 76.3963L14.9211 76.5652C14.8242 77.2351 14.9473 77.95 15.3487 78.6048L19.2419 84.9549C21.1631 88.0887 24.004 90.5537 27.3773 92.0139L43.7845 99.1163Z" style="fill:var(--sapContent_Illustrative_Color13)"/>
<path d="M90.984 87.5792C90.2065 87.1406 89.5687 86.5426 89.0703 85.8051C90.3062 81.599 93.077 78.2302 95.2498 74.5425C98.1601 69.5989 101.369 64.8347 103.482 59.4725C105.675 53.8712 106.512 48.1302 105.416 42.1501C105.276 41.3727 105.356 40.5554 105.336 39.7581C108.366 43.7448 109.502 48.3894 110.14 53.2333C110.978 59.632 108.466 64.7949 104.499 69.579C100.293 74.6421 96.3262 79.9047 92.2597 85.0874C91.6816 85.8449 91.0238 86.5625 91.0039 87.5991L90.984 87.5792Z" style="fill:var(--sapContent_Illustrative_Color8)"/>
<path d="M91.9407 11.0736C92.0802 12.15 91.6417 13.1068 91.3028 14.0836C88.6317 21.7182 88.8709 29.2332 92.1799 36.6286C92.6185 37.6054 92.9174 38.642 93.4158 40.0174C84.1865 32.1635 84.1267 23.273 88.7513 13.7846C89.3493 12.5487 90.3859 11.4324 91.9008 11.0337L91.9407 11.0736Z" style="fill:var(--sapContent_Illustrative_Color8)"/>
<path d="M95.3104 43.0873C99.2772 46.9345 100.852 51.4994 99.1775 56.8815C98.3004 59.6722 96.9649 62.2437 94.9715 64.5959C94.2539 63.7586 94.832 63.2603 95.0512 62.7619C97.5828 57.2403 98.0214 51.6389 95.709 45.9179C95.3502 45.0209 95.1908 44.1039 95.2506 43.1272L95.3104 43.0674L95.3104 43.0873Z" style="fill:var(--sapContent_Illustrative_Color8)"/>
<path d="M62.6852 121.075L61.4551 100.777L65.5146 114.801L69.0821 111.725L73.6338 115.539L80.0307 133.869C75.7005 133.869 72.1576 132.802 70.9274 132.269C69.4512 128.825 67.852 121.895 67.2369 118.86L62.6852 121.075Z" style="fill:var(--sapContent_Illustrative_Color4)"/>
<path d="M62.6852 121.075L61.4551 100.777L63.6554 119.297L67.8842 117.107L72.7926 132.739L70.9274 132.269C69.4512 128.825 67.852 121.895 67.2369 118.86L62.6852 121.075Z" style="fill:var(--sapContent_Illustrative_Color5)"/>
</svg>
