<svg width="320" height="240" viewBox="0 0 320 240" id="tnt-Scene-NoFlows">
  <path fill="var(--sapIllus_BackgroundColor)" d="M73.212,58.962 C41.435,84.847 32.188,136.124 56.67,170.422 C69.782,188.791 90.584,200.246 112.126,206.108 C133.879,212.028 160.444,215.691 182.928,213.102 C220.352,208.792 250.755,182.591 258.735,144.588 C268.908,96.136 237.139,49.91 192.355,35.337 C152.711,22.436 106.662,31.955 74.197,58.159 C73.869,58.427 73.54,58.694 73.212,58.962" class="sapIllus_BackgroundColor"/>
  <path fill="var(--sapIllus_PatternShadow)" d="M239.2198,194.179442 L80.7848,188.2328 C80.3218,188.2148 79.9588,187.8248 79.9761585,187.3608 L84.7188,61.0078 C84.7368,60.5438 85.1258,60.1818 85.5908,60.1991568 L244.0258,66.1458 C244.4898,66.1628 244.8518,66.5538 244.834443,67.0178 L240.0918,193.3698 C240.0738,193.8338 239.6838,194.1968 239.2198,194.179442" class="sapIllus_PatternShadow"/>
  <path fill="var(--sapIllus_ObjectFillColor)" d="M229.2315,185.0831 L75.1125,179.2991 C73.4565,179.2361 72.1645,177.8441 72.2265,176.1881 L76.8165,53.9051 C76.8785,52.2491 78.2715,50.9571 79.9265,51.0201 L234.0455,56.8051 C235.7025,56.8661 236.9945,58.2591 236.9315,59.9151 L232.3415,182.1981 C232.2795,183.8541 230.8865,185.1451 229.2315,185.0831" class="sapIllus_ObjectFillColor"/>
  <path fill="var(--sapIllus_StrokeDetailColor)" d="M229.25,184.585305 C229.926,184.605 230.555,184.372 231.045,183.918 C231.534,183.464 231.817,182.847 231.843,182.18 L236.433,59.896 C236.483,58.519 235.405,57.355 234.028,57.304 L79.908,51.52 C79.235,51.496 78.604,51.73 78.114,52.185 C77.625,52.639 77.341,53.257 77.316,53.924 L72.727,176.207 C72.675,177.585 73.754,178.747 75.131,178.799 L229.25,184.585305 Z M229.346,185.585 C229.302,185.585 229.258,185.585 229.213,185.583 L75.094,179.798 C74.159,179.764 73.295,179.366 72.659,178.681 C72.023,177.996 71.692,177.104 71.728,176.17 L76.317,53.887 C76.352,52.952 76.749,52.087 77.435,51.451 C78.119,50.815 79.005,50.484 79.946,50.521 L234.065,56.305 C235,56.34 235.864,56.736 236.5,57.422 C237.136,58.107 237.467,58.999 237.432,59.934 L232.842,182.217 C232.771,184.101 231.216,185.585 229.346,185.585 L229.346,185.585 Z" class="sapIllus_StrokeDetailColor"/>
  <path fill="var(--sapIllus_Layering1)" d="M264.9405 53.293L264.9155 53.293 247.5765 52.849C247.1575 52.838 246.7905 52.568 246.6555 52.172 246.5195 51.776 246.6455 51.338 246.9695 51.073L263.0185 38 247.6865 38C247.1345 38 246.6865 37.552 246.6865 37 246.6865 36.447 247.1345 36 247.6865 36L265.8295 36C266.2525 36 266.6295 36.266 266.7715 36.665 266.9135 37.064 266.7895 37.508 266.4615 37.775L250.3275 50.918 264.9655 51.294C265.5175 51.308 265.9545 51.767 265.9395 52.318 265.9255 52.862 265.4815 53.293 264.9405 53.293M288.6075 32.8721L288.5815 32.8721 277.3885 32.5851C276.9705 32.5741 276.6035 32.3051 276.4685 31.9081 276.3335 31.5131 276.4595 31.0741 276.7835 30.8091L286.3705 23.0001 277.6865 23.0001C277.1345 23.0001 276.6865 22.5521 276.6865 22.0001 276.6865 21.4471 277.1345 21.0001 277.6865 21.0001L289.1815 21.0001C289.6045 21.0001 289.9815 21.2661 290.1245 21.6651 290.2655 22.0631 290.1405 22.5081 289.8125 22.7751L280.1405 30.6551 288.6325 30.8731C289.1845 30.8871 289.6215 31.3461 289.6065 31.8981 289.5925 32.4411 289.1485 32.8721 288.6075 32.8721" class="sapIllus_Layering1"/>
  <path fill="var(--sapIllus_ObjectFillColor)" d="M297.0587,184.2725 C298.3997,182.9655 298.3607,180.7995 296.9727,179.5435 L296.8497,179.4305 L291.3517,174.4515 L288.8617,177.2005 L292.8767,180.8365 C293.6767,181.5615 293.6917,182.8135 292.9087,183.5565 L277.5587,198.1165 C276.8077,198.8625 276.8357,200.0855 277.6207,200.7965 C278.3517,201.4595 279.4727,201.4295 280.1687,200.7315 L297.0587,184.2725 Z" class="sapIllus_ObjectFillColor"/>
  <path fill="var(--sapIllus_StrokeDetailColor)" d="M289.5684,177.1651 L293.2124,180.4661 C293.6964,180.9041 293.9784,181.5301 293.9864,182.1831 C293.9944,182.8371 293.7254,183.4701 293.2524,183.9191 L277.9034,198.4791 C277.6454,198.7341 277.5054,199.0861 277.5134,199.4591 C277.5224,199.8321 277.6784,200.1751 277.9564,200.4261 C278.4904,200.9081 279.3064,200.8891 279.8154,200.3791 L296.7094,183.9141 C297.2574,183.3791 297.5514,182.6641 297.5394,181.8971 C297.5244,181.1321 297.2044,180.4281 296.6364,179.9141 L291.3854,175.1571 L289.5684,177.1651 Z M278.9784,201.7741 C278.3784,201.8041 277.7644,201.6021 277.2854,201.1671 C276.8024,200.7301 276.5284,200.1321 276.5134,199.4811 C276.4994,198.8311 276.7444,198.2211 277.2074,197.7621 L292.5634,183.1941 C292.8394,182.9321 292.9904,182.5761 292.9854,182.1951 C292.9814,181.8141 292.8234,181.4631 292.5414,181.2071 L288.1554,177.2351 L291.3164,173.7451 L297.3084,179.1731 C298.0824,179.8731 298.5194,180.8361 298.5384,181.8801 C298.5574,182.9251 298.1564,183.9011 297.4074,184.6301 L280.5184,201.0901 C280.0924,201.5171 279.5414,201.7461 278.9784,201.7741 L278.9784,201.7741 Z" class="sapIllus_StrokeDetailColor"/>
  <path fill="var(--sapIllus_AccentColor)" d="M280.0919,188.3184 C277.8449,186.9404 275.5399,185.2994 274.0799,183.1094 L272.8029,180.4304 L265.2829,189.0414 C259.5869,195.5604 256.3179,200.1644 251.5539,207.4264 C250.5899,208.8974 249.5109,210.2974 248.3119,211.6264 C247.4449,212.5884 247.5189,214.0784 248.4799,214.9474 L250.1809,216.4894 C250.6619,216.9244 251.2759,217.1234 251.8779,217.0934 C252.4799,217.0634 253.0709,216.8054 253.5069,216.3244 C254.6959,215.0134 256.0049,213.7784 257.3979,212.6554 C264.1719,207.1934 268.4379,203.4854 274.3559,197.1844 L281.7369,189.3274 L280.0919,188.3184 Z" class="sapIllus_AccentColor"/>
  <path fill="var(--sapIllus_ObjectFillColor)" d="M292.6241,167.9356 L292.6241,167.9356 C290.0881,165.6386 286.1601,165.8766 283.9201,168.4626 L272.7501,181.2516 L273.1551,181.8606 C275.2111,184.9426 278.1151,187.3636 281.5181,188.8286 L292.9561,176.6486 C295.3101,174.1646 295.1591,170.2326 292.6241,167.9356" class="sapIllus_ObjectFillColor"/>
  <path fill="var(--sapIllus_StrokeDetailColor)" d="M273.377,181.293 L273.571,181.583 C275.514,184.495 278.214,186.787 281.397,188.229 L292.593,176.307 C293.638,175.202 294.182,173.76 294.123,172.242 C294.065,170.724 293.414,169.325 292.288,168.306 C291.179,167.3 289.749,166.789 288.256,166.862 C288.234,166.864 288.213,166.865 288.191,166.867 C286.675,166.958 285.293,167.642 284.299,168.791 L273.377,181.293 Z M281.643,189.427 L281.319,189.288 C277.821,187.78 274.854,185.308 272.739,182.138 L272.122,181.21 L283.544,168.135 C284.715,166.782 286.344,165.978 288.131,165.869 C289.912,165.731 291.633,166.361 292.959,167.564 C294.287,168.767 295.055,170.414 295.122,172.203 C295.191,173.992 294.551,175.693 293.319,176.992 L281.643,189.427 Z" class="sapIllus_StrokeDetailColor"/>
  <path fill="var(--sapIllus_AccentColor)" d="M289.0547,168.4551 L292.4577,171.5381 L297.1417,166.3681 C297.9927,165.4281 297.9207,163.9761 296.9817,163.1251 C296.0417,162.2731 294.5897,162.3451 293.7387,163.2851 L289.0547,168.4551 Z" class="sapIllus_AccentColor"/>
  <path fill="var(--sapIllus_StrokeDetailColor)" d="M292.8311 171.8751C292.3731 171.8971 291.5951 171.6681 290.3741 170.5631 288.4991 168.8641 288.8561 167.6871 288.9021 167.5591 288.9971 167.3001 289.2831 167.1661 289.5441 167.2601 289.7961 167.3521 289.9291 167.6251 289.8501 167.8781 289.8411 167.9281 289.7381 168.6381 291.0451 169.8211 292.3081 170.9671 292.8021 170.8681 292.8031 170.8681 293.0361 170.7181 293.3071 170.8051 293.4561 171.0381 293.6031 171.2711 293.4991 171.5991 293.2661 171.7471 293.1791 171.8031 293.0381 171.8641 292.8311 171.8751M248.4795 214.9473C248.2475 214.7363 248.0695 214.4883 247.9415 214.2213L245.5465 218.4553C245.0875 219.3693 246.1245 220.3073 246.9895 219.7603L250.9685 216.9593C250.6855 216.8583 250.4165 216.7033 250.1805 216.4893L248.4795 214.9473z" class="sapIllus_StrokeDetailColor"/>
  <path fill="var(--sapIllus_BrandColorSecondary)" d="M199.6221 201.1251L186.3121 207.6631C185.6591 207.9841 185.5991 208.8921 186.2031 209.2971L198.5201 217.5551C199.1251 217.9601 199.9411 217.5591 199.9901 216.8321L200.9821 202.0361C201.0311 201.3111 200.2751 200.8041 199.6221 201.1251M111.376 31.3633C110.415 33.3513 108.024 34.1853 106.035 33.2253 104.047 32.2653 103.213 29.8753 104.173 27.8853 105.133 25.8963 107.523 25.0623 109.513 26.0233 111.502 26.9833 112.336 29.3743 111.376 31.3633" class="sapIllus_BrandColorSecondary"/>
  <path fill="var(--sapIllus_BackgroundColor)" d="M205.5264,94.7295 L205.5264,94.7295 C197.6994,94.7295 191.3404,100.9515 191.0894,108.7175 L178.4864,108.2445 C178.4084,107.6985 178.1724,107.1695 177.7694,106.7355 L163.0834,90.9035 C162.0304,89.7685 160.2574,89.7025 159.1234,90.7545 L143.2924,105.4415 C142.8574,105.8445 142.5824,106.3535 142.4634,106.8915 L127.1434,106.3175 L127.4974,96.8915 C127.5164,96.3675 127.1074,95.9265 126.5834,95.9065 L92.2324,94.6175 C91.7084,94.5975 91.2674,95.0065 91.2484,95.5315 L90.5034,115.3815 C90.4834,115.9065 90.8924,116.3465 91.4164,116.3675 L108.0914,116.9935 L107.5854,130.5165 L90.9094,129.8895 C90.3844,129.8705 89.9434,130.2795 89.9234,130.8035 L89.1777639,150.6555 C89.1594,151.1785 89.5684,151.6205 90.0924,151.6395 L124.4434,152.9285 C124.9674,152.9495 125.4084,152.5405 125.4284,152.0155 L126.1724,132.1655 C126.1934,131.6395 125.7844,131.1995 125.2594,131.1795 L108.5854,130.5535 L109.0914,117.0305 L125.7664,117.6565 C126.2914,117.6755 126.7324,117.2665 126.7524,116.7425 L127.1054,107.3175 L142.4264,107.8915 C142.5044,108.4375 142.7404,108.9655 143.1434,109.4015 L157.8294,125.2325 C158.8814,126.3675 160.6544,126.4335 161.7894,125.3805 L177.6214,110.6955 C178.0554,110.2925 178.3304,109.7825 178.4484,109.2445 L191.0924,109.7185 C191.3734,117.4585 197.7184,123.6505 205.5264,123.6505 C213.5124,123.6505 219.9864,117.1755 219.9864,109.1895 C219.9864,101.2035 213.5124,94.7295 205.5264,94.7295" class="sapIllus_BackgroundColor"/>
  <polygon fill="var(--sapIllus_StrokeDetailColor)" points="76.479 69.787 76.33 68.833 236.142 68.507 235.825 79.177" class="sapIllus_StrokeDetailColor"/>
  <path fill="var(--sapIllus_BrandColorSecondary)" d="M236.0577,74.8146925 L76.5717,68.8285 C76.3977,68.8215 76.2617,68.6755 76.2684414,68.5025 L76.8167,53.9055 C76.8787,52.2495 78.2717,50.9575 79.9267,51.0195 L234.0457,56.8045 C235.7027,56.8665 236.9947,58.2585 236.9317,59.9155 L236.3837,74.5115 C236.3767,74.6855 236.2317,74.8205 236.0577,74.8146925" class="sapIllus_BrandColorSecondary"/>
  <path fill="var(--sapIllus_StrokeDetailColor)" d="M229.25,184.585305 C229.926,184.605 230.555,184.372 231.045,183.918 C231.534,183.464 231.817,182.847 231.843,182.18 L236.433,59.896 C236.483,58.519 235.405,57.355 234.028,57.304 L79.908,51.52 C79.235,51.496 78.604,51.73 78.114,52.185 C77.625,52.639 77.341,53.257 77.316,53.924 L72.727,176.207 C72.675,177.585 73.754,178.747 75.131,178.799 L229.25,184.585305 Z M229.346,185.585 C229.302,185.585 229.258,185.585 229.213,185.583 L75.094,179.798 C74.159,179.764 73.295,179.366 72.659,178.681 C72.023,177.996 71.692,177.104 71.728,176.17 L76.317,53.887 C76.352,52.952 76.749,52.087 77.435,51.451 C78.119,50.815 79.005,50.484 79.946,50.521 L234.065,56.305 C235,56.34 235.864,56.736 236.5,57.422 C237.136,58.107 237.467,58.999 237.432,59.934 L232.842,182.217 C232.771,184.101 231.216,185.585 229.346,185.585 L229.346,185.585 Z" class="sapIllus_StrokeDetailColor"/>
  <polygon fill="var(--sapIllus_ObjectFillColor)" points="21.5 134.299 31.669 119.13 123.948 180.992 113.78 196.161" class="sapIllus_ObjectFillColor"/>
  <path fill="var(--sapIllus_Layering1)" d="M113.6436,195.4678 L22.1936,134.1618 L31.8056,119.8228 L34.7306,121.7838 L31.5426,126.5398 C31.3886,126.7698 31.4506,127.0798 31.6796,127.2338 C31.7646,127.2908 31.8626,127.3188 31.9576,127.3188 C32.1196,127.3188 32.2776,127.2398 32.3726,127.0968 L35.5616,122.3408 L38.3346,124.1998 L35.1476,128.9558 C34.9936,129.1858 35.0546,129.4958 35.2846,129.6498 C35.3696,129.7068 35.4666,129.7348 35.5626,129.7348 C35.7236,129.7348 35.8816,129.6558 35.9776,129.5128 L39.1646,124.7568 L41.9396,126.6158 L38.7506,131.3718 C38.5966,131.6018 38.6586,131.9118 38.8876,132.0658 C38.9726,132.1228 39.0706,132.1508 39.1656,132.1508 C39.3276,132.1508 39.4846,132.0718 39.5806,131.9288 L42.7696,127.1728 L45.5436,129.0328 L39.8816,137.4798 C39.7276,137.7088 39.7896,138.0198 40.0186,138.1728 C40.1036,138.2308 40.2016,138.2578 40.2966,138.2578 C40.4576,138.2578 40.6156,138.1798 40.7116,138.0358 L46.3736,129.5898 L49.1486,131.4488 L45.9596,136.2048 C45.8056,136.4348 45.8676,136.7448 46.0966,136.8988 C46.1816,136.9558 46.2796,136.9838 46.3746,136.9838 C46.5366,136.9838 46.6936,136.9048 46.7896,136.7618 L49.9786,132.0058 L52.7516,133.8648 L49.5646,138.6208 C49.4106,138.8508 49.4716,139.1608 49.7016,139.3148 C49.7866,139.3718 49.8836,139.3998 49.9796,139.3998 C50.1406,139.3998 50.2986,139.3218 50.3946,139.1778 L53.5816,134.4218 L56.3576,136.2818 L53.1686,141.0378 C53.0146,141.2678 53.0766,141.5778 53.3056,141.7318 C53.3906,141.7888 53.4886,141.8168 53.5836,141.8168 C53.7456,141.8168 53.9036,141.7388 53.9986,141.5948 L57.1876,136.8388 L59.9606,138.6978 L56.7736,143.4538 C56.6196,143.6838 56.6806,143.9938 56.9106,144.1478 C56.9956,144.2048 57.0926,144.2328 57.1886,144.2328 C57.3496,144.2328 57.5076,144.1548 57.6036,144.0108 L60.7916,139.2548 L63.5656,141.1138 L57.9036,149.5618 C57.7486,149.7908 57.8106,150.1018 58.0396,150.2548 C58.1246,150.3128 58.2226,150.3398 58.3186,150.3398 C58.4796,150.3398 58.6376,150.2618 58.7336,150.1178 L64.3956,141.6708 L67.1706,143.5308 L63.9826,148.2868 C63.8286,148.5168 63.8896,148.8268 64.1196,148.9808 C64.2046,149.0378 64.3016,149.0658 64.3976,149.0658 C64.5586,149.0658 64.7166,148.9878 64.8126,148.8438 L68.0006,144.0878 L70.7746,145.9468 L67.5866,150.7028 C67.4326,150.9328 67.4946,151.2428 67.7236,151.3968 C67.8086,151.4538 67.9066,151.4818 68.0016,151.4818 C68.1636,151.4818 68.3216,151.4038 68.4166,151.2598 L71.6046,146.5038 L74.3786,148.3638 L71.1916,153.1188 C71.0376,153.3488 71.0986,153.6588 71.3286,153.8128 C71.4136,153.8698 71.5106,153.8978 71.6066,153.8978 C71.7676,153.8978 71.9256,153.8198 72.0216,153.6758 L75.2086,148.9198 L77.9836,150.7798 L74.7956,155.5358 C74.6416,155.7658 74.7036,156.0758 74.9326,156.2298 C75.0176,156.2868 75.1156,156.3148 75.2106,156.3148 C75.3726,156.3148 75.5306,156.2368 75.6256,156.0928 L78.8146,151.3368 L81.5876,153.1968 L75.9256,161.6438 C75.7716,161.8728 75.8326,162.1838 76.0626,162.3368 C76.1476,162.3948 76.2456,162.4218 76.3406,162.4218 C76.5016,162.4218 76.6606,162.3438 76.7556,162.1998 L82.4176,153.7528 L85.1926,155.6128 L82.0036,160.3678 C81.8496,160.5978 81.9116,160.9078 82.1406,161.0618 C82.2256,161.1188 82.3236,161.1468 82.4186,161.1468 C82.5806,161.1468 82.7376,161.0688 82.8336,160.9248 L86.0226,156.1688 L88.7966,158.0298 L85.6086,162.7848 C85.4546,163.0148 85.5156,163.3248 85.7456,163.4788 C85.8306,163.5358 85.9276,163.5638 86.0236,163.5638 C86.1846,163.5638 86.3416,163.4858 86.4386,163.3418 L89.6276,158.5858 L92.4016,160.4458 L89.2126,165.2008 C89.0586,165.4308 89.1206,165.7408 89.3496,165.8948 C89.4346,165.9518 89.5326,165.9798 89.6276,165.9798 C89.7896,165.9798 89.9476,165.9018 90.0426,165.7578 L93.2316,161.0018 L96.0046,162.8618 L92.8176,167.6168 C92.6636,167.8468 92.7246,168.1568 92.9546,168.3108 C93.0396,168.3678 93.1366,168.3958 93.2326,168.3958 C93.3936,168.3958 93.5516,168.3178 93.6476,168.1738 L96.8346,163.4178 L99.6106,165.2788 L93.9476,173.7248 C93.7926,173.9538 93.8546,174.2648 94.0836,174.4178 C94.1686,174.4758 94.2666,174.5028 94.3626,174.5028 C94.5236,174.5028 94.6806,174.4248 94.7776,174.2808 L100.4406,165.8348 L103.2146,167.6948 L100.0266,172.4498 C99.8726,172.6798 99.9336,172.9898 100.1636,173.1438 C100.2476,173.2008 100.3456,173.2288 100.4416,173.2288 C100.6026,173.2288 100.7606,173.1508 100.8566,173.0068 L104.0446,168.2508 L106.8186,170.1108 L103.6306,174.8658 C103.4766,175.0958 103.5386,175.4058 103.7676,175.5598 C103.8526,175.6168 103.9506,175.6448 104.0456,175.6448 C104.2066,175.6448 104.3656,175.5668 104.4606,175.4228 L107.6486,170.6668 L123.2546,181.1288 L113.6436,195.4678 Z M124.2266,180.5768 L31.9476,118.7148 C31.8366,118.6408 31.7026,118.6118 31.5726,118.6398 C31.4426,118.6648 31.3276,118.7408 31.2536,118.8518 L21.0846,134.0208 C21.0106,134.1308 20.9836,134.2658 21.0096,134.3958 C21.0356,134.5258 21.1116,134.6408 21.2216,134.7138 L113.5016,196.5758 C113.5846,196.6318 113.6816,196.6608 113.7806,196.6608 C113.8126,196.6608 113.8446,196.6578 113.8766,196.6518 C114.0066,196.6258 114.1226,196.5498 114.1956,196.4398 L124.3636,181.2708 C124.5176,181.0408 124.4566,180.7308 124.2266,180.5768 L124.2266,180.5768 Z" class="sapIllus_Layering1"/>
</svg>
