<svg width="160" height="160" viewBox="0 0 160 160" id="tnt-Dialog-SessionExpired">
  <path fill="var(--sapIllus_BackgroundColor)" d="M138.612,77.1945 C139.305,104.5815 126.726,129.1895 105.505,140.3015 C84.304,151.3155 52.263,150.1805 35.968,131.6625 C19.742,113.2635 17.007,75.9195 31.177,49.8115 C45.348,23.7055 76.554,7.2835 104.907,14.8505 C130.029,21.7505 137.896,49.9065 138.612,77.1945" class="sapIllus_BackgroundColor"/>
  <path fill="var(--sapIllus_ObjectFillColor)" d="M103.2321,99.425 C100.0311,95.545 95.5601,91.32 89.3521,86.336 C89.2761,86.246 88.1261,85.312 86.7301,83.536 C85.8761,82.45 85.8751,80.759 86.7261,79.669 C88.1411,77.858 89.3131,76.904 89.3901,76.813 C95.6181,71.806 100.0881,67.581 103.2701,63.724 C106.2181,60.141 108.0731,56.881 109.2451,53.62 C111.2161,48.178 111.255608,42.69 111.255608,35.709 L53.8401,35.709 C53.7631,42.644 53.8401,48.132 55.8121,53.62 C57.0231,56.881 58.8971,60.141 61.8451,63.724 C65.0461,67.604 69.5171,71.829 75.7251,76.813 C75.8001,76.901 76.9011,77.796 78.2541,79.495 C79.1681,80.641 79.1681,82.448 78.2581,83.597 C76.8851,85.332 75.7621,86.247 75.6871,86.336 C69.4591,91.343 64.9881,95.568 61.8071,99.425 C58.8591,103.008 57.0041,106.268 55.8331,109.529 C53.8611,114.971 53.8215924,119.853 53.8215924,126.833 L111.2371,126.833 C111.3141,119.899 111.2371,115.017 109.2651,109.529 C108.0541,106.268 106.1801,103.008 103.2321,99.425" class="sapIllus_ObjectFillColor"/>
  <path fill="var(--sapIllus_Layering1)" d="M110.985,117.0353 C108.311,118.8363 103.464,119.0683 100.504,117.7333 L82.703,106.0273 C82.541,105.9453 82.355,105.9413 82.191,106.0163 L63.319,117.5913 C61.779,118.2463 56.176,119.1633 54.143,116.8253 C53.842,119.7353 53.822,122.8343 53.822,126.3333 L111.237,126.3333 C111.277,122.9283 111.269,119.8953 110.985,117.0353" class="sapIllus_Layering1"/>
  <path fill="var(--sapIllus_StrokeDetailColor)" d="M64.9445 103.1173C64.8305 103.1173 64.7165 103.0783 64.6225 102.9993 64.4115 102.8213 64.3845 102.5063 64.5625 102.2953 67.3215 99.0233 69.2915 97.2353 72.1765 94.8903 72.3915 94.7183 72.7055 94.7503 72.8805 94.9633 73.0535 95.1783 73.0215 95.4923 72.8075 95.6663 69.9095 98.0213 68.0505 99.7103 65.3275 102.9393 65.2285 103.0563 65.0875 103.1173 64.9445 103.1173M74.8268 93.5958C74.6928 93.5958 74.5578 93.5418 74.4598 93.4358 74.2718 93.2328 74.2848 92.9158 74.4868 92.7288 75.3248 91.9528 76.1408 91.2128 76.9358 90.5048 77.1408 90.3228 77.4578 90.3388 77.6418 90.5468 77.8258 90.7528 77.8068 91.0698 77.6008 91.2528 76.8108 91.9548 75.9998 92.6918 75.1668 93.4628 75.0708 93.5518 74.9488 93.5958 74.8268 93.5958" class="sapIllus_StrokeDetailColor"/>
  <path fill="var(--sapIllus_PatternShadow)" d="M108.7946,109.6974 C108.1246,107.8924 107.2676,106.1494 106.1946,104.4014 C101.1686,114.0484 80.6496,123.5794 54.3276,124.9534 C54.3246,125.4084 54.3236,125.8704 54.3236,126.3334 L110.7446,126.3334 C110.7966,119.8674 110.6176,114.7724 108.7946,109.6974" class="sapIllus_PatternShadow"/>
  <path fill="var(--sapIllus_BrandColorSecondary)" d="M46.1178 35.2091L118.9738 35.2091C120.3948 35.2091 121.5468 34.0581 121.5468 32.6371L121.5468 28.7811C121.5468 27.3601 120.3948 26.2091 118.9738 26.2091L46.1178 26.2091C44.6978 26.2091 43.5458 27.3601 43.5458 28.7811L43.5458 32.6371C43.5458 34.0581 44.6978 35.2091 46.1178 35.2091M46.1085 136.3332L118.9645 136.3332C120.3855 136.3332 121.5365 135.1822 121.5365 133.7612L121.5365 129.9052C121.5365 128.4842 120.3855 127.3332 118.9645 127.3332L46.1085 127.3332C44.6885 127.3332 43.5365 128.4842 43.5365 129.9052L43.5365 133.7612C43.5365 135.1822 44.6885 136.3332 46.1085 136.3332" class="sapIllus_BrandColorSecondary"/>
  <path fill="var(--sapIllus_StrokeDetailColor)" d="M110.7418,126.3302 L54.3218,126.3302 C54.3238,119.9582 54.3728,115.0262 56.3038,109.6972 C57.5208,106.3102 59.3918,103.1462 62.1928,99.7432 C65.3498,95.9152 69.8668,91.6572 76.0508,86.6792 L76.1458,86.5912 C76.4768,86.2922 77.4838,85.3822 78.6508,83.9072 C79.7008,82.5802 79.6998,80.5062 78.6458,79.1842 C77.4988,77.7442 76.5108,76.8512 76.1848,76.5582 L76.0378,76.4232 C69.9278,71.5172 65.4108,67.2602 62.2308,63.4062 C59.4308,60.0032 57.5408,56.8382 56.2828,53.4512 C54.4018,48.2162 54.2678,42.9732 54.3348,36.2162 L110.7558,36.2162 C110.7548,42.5872 110.7038,48.1232 108.7738,53.4512 C107.5568,56.8392 105.6848,60.0022 102.8848,63.4052 C99.7268,67.2332 95.2108,71.4912 89.0258,76.4702 L88.9298,76.5592 C88.5858,76.8692 87.5388,77.8162 86.3328,79.3612 C85.3318,80.6422 85.3338,82.5692 86.3368,83.8452 C87.5238,85.3552 88.5538,86.2852 88.8908,86.5902 L89.0388,86.7262 C95.1508,91.6322 99.6668,95.8902 102.8458,99.7422 C105.6458,103.1452 107.5368,106.3102 108.7948,109.6972 C110.6758,114.9322 110.8088,119.5692 110.7418,126.3302 M116.6228,126.3302 L111.7408,126.3302 C111.8078,119.5052 111.6698,114.7422 109.7338,109.3542 C108.4338,105.8542 106.4908,102.5992 103.6178,99.1072 L103.6178,99.1062 C100.3948,95.2002 95.8308,90.8952 89.7338,86.0132 C89.7158,85.9912 89.6578,85.9342 89.5608,85.8482 C89.2388,85.5572 88.2578,84.6712 87.1228,83.2262 C86.4078,82.3172 86.4068,80.8912 87.1198,79.9762 C88.2738,78.5002 89.2718,77.5972 89.6008,77.3002 C89.6608,77.2452 89.7058,77.2032 89.7188,77.1902 C95.8978,72.2212 100.4578,67.9202 103.6558,64.0412 C106.4928,60.5942 108.4748,57.2402 109.7148,53.7902 C111.7028,48.3022 111.7538,42.6792 111.7548,36.2162 L116.7108,36.2162 C116.9868,36.2162 117.2108,35.9912 117.2108,35.7162 C117.2108,35.4382 116.9868,35.2162 116.7108,35.2162 L111.2868,35.2162 C111.2758,35.2142 111.2658,35.2092 111.2558,35.2092 L53.8408,35.2092 C53.8288,35.2092 53.8198,35.2142 53.8088,35.2162 L48.4698,35.2162 C48.1928,35.2162 47.9698,35.4382 47.9698,35.7162 C47.9698,35.9912 48.1928,36.2162 48.4698,36.2162 L53.3368,36.2162 C53.2688,43.0692 53.4068,48.4042 55.3438,53.7942 C56.6428,57.2942 58.5858,60.5502 61.4588,64.0422 C64.6838,67.9492 69.2478,72.2552 75.3448,77.1372 C75.3618,77.1572 75.4188,77.2142 75.5148,77.3002 C75.8578,77.6092 76.7678,78.4312 77.8638,79.8072 C78.6268,80.7642 78.6278,82.3252 77.8668,83.2862 C76.7508,84.6952 75.7908,85.5632 75.4758,85.8502 C75.4158,85.9032 75.3708,85.9452 75.3588,85.9582 C69.1788,90.9282 64.6198,95.2282 61.4208,99.1072 C58.5838,102.5552 56.6018,105.9082 55.3628,109.3582 C53.3748,114.8462 53.3238,119.8972 53.3228,126.3302 L48.3818,126.3302 C48.1048,126.3302 47.8818,126.5542 47.8818,126.8302 C47.8818,127.1062 48.1048,127.3302 48.3818,127.3302 L53.8068,127.3302 C53.8128,127.3302 53.8168,127.3332 53.8218,127.3332 L111.2368,127.3332 C111.2418,127.3332 111.2468,127.3302 111.2518,127.3302 L116.6228,127.3302 C116.8988,127.3302 117.1228,127.1062 117.1228,126.8302 C117.1228,126.5542 116.8988,126.3302 116.6228,126.3302" class="sapIllus_StrokeDetailColor"/>
  <path fill="var(--sapIllus_Layering1)" d="M135.225 11.4534L128.663 17.9294C128.268 18.3164 128.264 18.9494 128.653 19.3434 128.828 19.5194 129.051 19.6174 129.281 19.6374 129.561 19.6604 129.85 19.5654 130.066 19.3514L136.628 12.8764C137.023 12.4884 137.027 11.8554 136.638 11.4624 136.251 11.0704 135.618 11.0654 135.225 11.4534M144.5404 27.7611C144.4264 27.2211 143.8974 26.8731 143.3554 26.9891L137.3134 28.2621C136.7724 28.3761 136.4284 28.9071 136.5414 29.4481 136.6344 29.8901 137.0074 30.2011 137.4364 30.2381 137.5304 30.2451 137.6284 30.2401 137.7264 30.2191L143.7684 28.9471C144.3094 28.8321 144.6544 28.3021 144.5404 27.7611M120.7064 4.0306C120.1664 3.8946 119.6284 4.2216 119.4924 4.7576L118.0294 10.5886C117.8954 11.1246 118.2214 11.6676 118.7574 11.8016 118.8114 11.8156 118.8644 11.8246 118.9184 11.8286 119.3974 11.8686 119.8494 11.5566 119.9714 11.0756L121.4344 5.2436C121.5674 4.7086 121.2424 4.1656 120.7064 4.0306" class="sapIllus_Layering1"/>
  <path fill="var(--sapIllus_PatternShadow)" d="M82.5538,73.3004 C89.1498,67.8134 100.0348,55.4674 107.3818,38.6874 C109.6928,52.1594 93.9648,72.8944 82.5538,73.3004" class="sapIllus_PatternShadow"/>
</svg>