<svg width="128" height="128" viewBox="0 0 128 128" id="tnt-Spot-SuccessfulAuth">
  <path fill="var(--sapIllus_PatternShadow)" d="M109.9998,34.5663 L109.9558,34.5663 L108.9998,34.5663 L108.9998,42.5163 L108.9998,45.5593 L108.9998,96.5663 C108.9998,98.2223 107.6568,99.5663 105.9998,99.5663 L23.0438,99.5663 L23.0448,101.5653 C23.0448,103.2223 24.3878,104.5663 26.0438,104.5663 L109.9998,104.5663 C111.6568,104.5663 112.9998,103.2223 112.9998,101.5663 L112.9998,37.5663 C112.9998,35.9093 111.6568,34.5663 109.9998,34.5663" class="sapIllus_PatternShadow"/>
  <path fill="var(--sapIllus_ObjectFillColor)" d="M105.991,99.5663 L21.992,99.5663 C20.335,99.5663 18.992,98.2233 18.992,96.5663 L18.992,32.5673 C18.992,30.9103 20.335,29.5663 21.992,29.5663 L105.991,29.5663 C107.648,29.5663 108.992,30.9103 108.992,32.5673 L108.992,96.5663 C108.992,98.2233 107.648,99.5663 105.991,99.5663" class="sapIllus_ObjectFillColor"/>
  <path fill="var(--sapIllus_BrandColorSecondary)" d="M108.992,42.5663 L18.992,42.5663 L18.992,32.5353 C18.992,30.8953 20.321,29.5663 21.96,29.5663 L105.997,29.5663 C107.651,29.5663 108.992,30.9083 108.992,32.5623 L108.992,42.5663 Z" class="sapIllus_BrandColorSecondary"/>
  <path fill="var(--sapIllus_StrokeDetailColor)" d="M105.992,98.5663 L21.992,98.5663 C20.888,98.5663 19.992,97.6713 19.992,96.5663 L19.992,42.5663 L21.813,42.5663 L107.992,42.5663 L107.992,96.5663 C107.992,97.6713 107.096,98.5663 105.992,98.5663 M107.992,32.5663 L107.992,41.5663 L19.992,41.5663 L19.992,32.5663 C19.992,31.4623 20.888,30.5663 21.992,30.5663 L105.992,30.5663 C107.096,30.5663 107.992,31.4623 107.992,32.5663 M105.992,29.5663 L105.518,29.5663 L21.582,29.5663 L21.536,29.5663 C19.809,29.5663 18.992,31.2583 18.992,32.4633 L18.992,42.5663 L18.992,96.5663 C18.992,98.2233 20.335,99.5663 21.992,99.5663 L105.992,99.5663 C107.649,99.5663 108.992,98.2233 108.992,96.5663 L108.992,45.5603 L108.992,42.5173 L108.992,32.5663 C108.992,30.9103 107.649,29.5663 105.992,29.5663" class="sapIllus_StrokeDetailColor"/>
  <path fill="var(--sapIllus_ObjectFillColor)" d="M28.5252 36.0663C28.5252 37.1403 27.6542 38.0113 26.5802 38.0113 25.5062 38.0113 24.6352 37.1403 24.6352 36.0663 24.6352 34.9933 25.5062 34.1223 26.5802 34.1223 27.6542 34.1223 28.5252 34.9933 28.5252 36.0663M34.5062 36.0663C34.5062 37.1403 33.6352 38.0113 32.5612 38.0113 31.4872 38.0113 30.6162 37.1403 30.6162 36.0663 30.6162 34.9933 31.4872 34.1223 32.5612 34.1223 33.6352 34.1223 34.5062 34.9933 34.5062 36.0663M40.4876 36.0663C40.4876 37.1403 39.6166 38.0113 38.5426 38.0113 37.4686 38.0113 36.5976 37.1403 36.5976 36.0663 36.5976 34.9933 37.4686 34.1223 38.5426 34.1223 39.6166 34.1223 40.4876 34.9933 40.4876 36.0663" class="sapIllus_ObjectFillColor"/>
  <path fill="var(--sapIllus_BackgroundColor)" d="M49.9056,73.3622 C47.2496,73.3622 45.0956,71.2102 45.0956,68.5532 C45.0956,65.8972 47.2496,63.7442 49.9056,63.7442 C52.5616,63.7442 54.7156,65.8972 54.7156,68.5532 C54.7156,71.2102 52.5616,73.3622 49.9056,73.3622 M86.0056,66.2532 L59.6706,66.2532 C58.5996,61.8052 54.6056,58.4972 49.8296,58.4972 C44.2336,58.4972 39.6976,63.0342 39.6976,68.6302 C39.6976,74.2252 44.2336,78.7612 49.8296,78.7612 C54.6746,78.7612 58.7186,75.3592 59.7186,70.8152 L74.1816,70.8152 L74.1816,75.8782 C74.1816,76.0912 74.3546,76.2642 74.5686,76.2642 L77.4956,76.2642 C77.7116,76.2642 77.8846,76.0892 77.8826,75.8742 L77.8796,74.5752 C77.8766,74.3602 78.0506,74.1842 78.2656,74.1842 L81.1646,74.1842 C81.3786,74.1842 81.5516,74.3572 81.5516,74.5712 L81.5516,75.8782 C81.5516,76.0912 81.7246,76.2642 81.9376,76.2642 L84.7946,76.2642 C85.0086,76.2642 85.1816,76.0912 85.1816,75.8782 L85.1816,70.8152 L86.0056,70.8152 C87.2656,70.8152 88.2866,69.7942 88.2866,68.5342 C88.2866,67.2742 87.2656,66.2532 86.0056,66.2532" class="sapIllus_BackgroundColor"/>
  <path fill="var(--sapIllus_AccentColor)" d="M124.7142 103.6249C122.7612 102.8959 121.8112 101.1179 121.0742 99.3059 121.0172 99.1649 120.8782 99.0709 120.7212 99.0689 120.5472 99.0719 120.4232 99.1569 120.3632 99.2969 119.3802 101.5519 117.9152 102.7079 116.2192 104.0469L116.1772 104.0789C116.0632 104.1699 116.0112 104.3159 116.0462 104.4559 116.0812 104.5959 116.1952 104.7029 116.3402 104.7319 117.8212 105.0369 120.1132 107.7769 120.1132 109.2419 120.1132 109.4279 120.2542 109.5849 120.4432 109.6109 120.4622 109.6129 120.4802 109.6139 120.4982 109.6139 120.6662 109.6139 120.8182 109.5079 120.8662 109.3469 121.3612 107.7139 122.7942 105.0269 124.7132 104.3209 124.8612 104.2669 124.960208 104.1279 124.960208 103.9739 124.9612 103.8189 124.8622 103.6809 124.7142 103.6249M16.741 24.58C14.021 23.509 12.701 20.912 11.681 18.265 11.621 18.106 11.472 18.002 11.306 18 11.141 18.019 10.991 18.099 10.925 18.255 9.565 21.545 7.544 23.226 5.204 25.173L5.151 25.218C5.029 25.319 4.974 25.483 5.012 25.64 5.049 25.796 5.17 25.916 5.324 25.95 7.392 26.398 10.594 30.432 10.594 32.589 10.594 32.797 10.742 32.973 10.944 33.002 10.964 33.005 10.983 33.007 11.002 33.007 11.18 33.007 11.343 32.887 11.393 32.707 12.078 30.321 14.068 26.396 16.74 25.359 16.897 25.299 17.002 25.143 17.0030071 24.971 17.004 24.798 16.899 24.642 16.741 24.58" class="sapIllus_AccentColor"/>
</svg>
