<svg width="320" height="240" viewBox="0 0 320 240" id="tnt-Scene-Lock">
  <path fill="var(--sapIllus_BackgroundColor)" d="M275.6089,25 L69.2849,25 C45.5739,25 25.0459,44.166 25.0459,67.961 L25.0459,81.799 C25.0459,105.594 45.5739,125.94 69.2849,125.94 C77.4119,126.404 81.3289,131.087 81.3289,137.129 L81.3389,137.302 C81.3389,144.054 74.1639,149.687 66.4229,149.687 L33.5129,149.687 C15.5249,149.719 0.9679,164.327 0.999847343,182.315 L0.999847343,183.208 C0.9679,201.196 15.5249,215.805 33.5129,215.837015 L258.8449,215.837015 C276.9499,215.854 291.7049,201.314 291.9539,183.212 L291.9539,182.481 C291.6929,168.083 282.1489,155.508 268.3519,151.383 L268.3609,151.383 L268.3359,151.379 C267.1069,151.01 265.8579,150.714 264.5949,150.492 C258.4369,148.39 253.7779,143.37 253.7779,137.734 L253.7719,137.543 C253.7719,130.795 260.4509,125.94 268.1929,125.94 L275.6099,125.94 C299.4789,125.898 318.7949,105.521 318.752968,81.651 L318.752968,68.296 C318.7949,44.427 299.4789,25.042 275.6089,25" class="sapIllus_BackgroundColor"/>
  <path fill="var(--sapIllus_StrokeDetailColor)" d="M249.436318 203.8852L221.142318 203.8852C222.540318 203.0372 223.483318 201.5152 223.483318 199.7612L223.483318 197.1892 192.621318 197.1892 192.621318 199.7612C192.621318 201.5152 193.564318 203.0372 194.961318 203.8852L119.577318 203.8852C120.974318 203.0372 121.917318 201.5152 121.917318 199.7612L121.917318 197.1892 91.0553179 197.1892 91.0553179 199.7612C91.0553179 201.5152 91.9993179 203.0372 93.3963179 203.8852L57.5423179 203.8852C57.5183179 203.8832 57.4943179 203.8832 57.4703179 203.8852 57.1913179 203.9062 56.9813179 204.1482 57 204.4262 57.0213179 204.7052 57.2633179 204.9152 57.5423179 204.8952L249.436318 204.8952C249.460318 204.8972 249.484318 204.8972 249.508318 204.8952 249.788318 204.8752 249.998318 204.6322 249.978765 204.3542 249.957318 204.0742 249.714318 203.8642 249.436318 203.8852M262.986118 204.2847C262.928118 204.0127 262.661118 203.8387 262.388118 203.8957L255.602118 203.8957C255.533118 203.8817 255.463118 203.8817 255.393118 203.8957 255.121118 203.9537 254.947118 204.2217 255.005118 204.4937 255.062118 204.7657 255.330118 204.9407 255.602118 204.8837L262.388118 204.8837C262.457118 204.8977 262.528118 204.8977 262.597118 204.8837 262.870118 204.8257 263.044118 204.5577 262.986118 204.2847" class="sapIllus_StrokeDetailColor"/>
  <path fill="var(--sapIllus_BrandColorSecondary)" d="M228.195118,178.6255 C228.195118,179.7255 227.303118,180.6165 226.204118,180.6165 L87.9791179,180.6165 C86.8801179,180.6165 85.9881179,179.7255 85.9881179,178.6255 L85.9881179,53.6875 C85.9881179,52.5875 86.8801179,51.6955 87.9791179,51.6955 L226.204118,51.6955 C227.303118,51.6955 228.195118,52.5875 228.195118,53.6875 L228.195118,178.6255 Z M238.758118,35.1235 L75.4241179,35.1235 C71.9631179,35.1235 69.1551179,37.9305 69.1551179,41.3935 L69.1551179,190.9195 C69.1551179,194.3825 71.9631179,197.1885 75.4241179,197.1885 L91.0551179,197.1885 L121.918118,197.1885 L192.621118,197.1885 L223.483118,197.1885 L238.758118,197.1885 C242.220118,197.1885 245.027118,194.3825 245.027118,190.9195 L245.027118,41.3935 C245.027118,37.9305 242.220118,35.1235 238.758118,35.1235 L238.758118,35.1235 Z" class="sapIllus_BrandColorSecondary"/>
  <path fill="var(--sapIllus_PatternShadow)" d="M238.758618,197.064 L75.4246179,197.064 C71.9616179,197.064 69.1546179,194.257 69.1546179,190.795 L220.348618,177.741 C220.348618,174.278 223.154618,171.471 226.617618,171.471 L238.758618,35 C242.220618,35 245.027618,37.806 245.027618,41.268 L245.027618,190.795 C245.027618,194.257 242.220618,197.064 238.758618,197.064" class="sapIllus_PatternShadow"/>
  <path fill="var(--sapIllus_ObjectFillColor)" d="M226.203918,51.6958 L87.9789179,51.6958 C86.8799179,51.6958 85.9879179,52.5878 85.9879179,53.6868 L85.9879179,178.6258 C85.9879179,179.7248 86.8799179,180.6168 87.9789179,180.6168 L226.203918,180.6168 C227.303918,180.6168 228.194918,179.7248 228.194918,178.6258 L228.194918,53.6868 C228.194918,52.5878 227.303918,51.6958 226.203918,51.6958" class="sapIllus_ObjectFillColor"/>
  <path fill="var(--sapIllus_ObjectFillColor)" d="M86.8933179,74.9399 L85.0823179,74.9399 C83.2313179,74.9399 81.7253179,76.4469 81.7253179,78.2979 L81.7253179,101.0959 C81.7253179,102.9479 83.2313179,104.4539 85.0823179,104.4539 L86.8933179,104.4539 C88.7453179,104.4539 90.2503179,102.9479 90.2503179,101.0959 L90.2503179,78.2979 C90.2503179,76.4469 88.7453179,74.9399 86.8933179,74.9399" class="sapIllus_ObjectFillColor"/>
  <path fill="var(--sapIllus_StrokeDetailColor)" d="M90.2507179,101.0962 C90.2507179,102.9482 88.7447179,104.4532 86.8937179,104.4532 L85.0827179,104.4532 C83.2307179,104.4532 81.7257179,102.9482 81.7257179,101.0962 L81.7257179,78.2982 C81.7257179,76.4472 83.2307179,74.9402 85.0827179,74.9402 L86.8937179,74.9402 C88.7447179,74.9402 90.2507179,76.4472 90.2507179,78.2982 L90.2507179,101.0962 Z M86.8937179,73.9402 L85.0827179,73.9402 C82.6807179,73.9402 80.7257179,75.8952 80.7257179,78.2982 L80.7257179,101.0962 C80.7257179,103.4982 82.6807179,105.4532 85.0827179,105.4532 L86.8937179,105.4532 C89.2957179,105.4532 91.2507179,103.4982 91.2507179,101.0962 L91.2507179,78.2982 C91.2507179,75.8952 89.2957179,73.9402 86.8937179,73.9402 L86.8937179,73.9402 Z" class="sapIllus_StrokeDetailColor"/>
  <path fill="var(--sapIllus_Layering2)" d="M214.916818,149.6831 L213.106818,149.6831 C210.976818,149.6831 209.249818,147.9551 209.249818,145.8261 L209.249818,92.8671 C209.249818,90.7361 210.976818,89.0091 213.106818,89.0091 L214.916818,89.0091 C217.047818,89.0091 218.773818,90.7361 218.773818,92.8671 L218.773818,145.8261 C218.773818,147.9551 217.047818,149.6831 214.916818,149.6831" class="sapIllus_Layering2"/>
  <path fill="var(--sapIllus_ObjectFillColor)" d="M86.8933179,129.4663 L85.0823179,129.4663 C83.2313179,129.4663 81.7253179,130.9723 81.7253179,132.8233 L81.7253179,155.6213 C81.7253179,157.4733 83.2313179,158.9793 85.0823179,158.9793 L86.8933179,158.9793 C88.7453179,158.9793 90.2503179,157.4733 90.2503179,155.6213 L90.2503179,132.8233 C90.2503179,130.9723 88.7453179,129.4663 86.8933179,129.4663" class="sapIllus_ObjectFillColor"/>
  <path fill="var(--sapIllus_StrokeDetailColor)" d="M90.2507179,155.6216 C90.2507179,157.4736 88.7447179,158.9786 86.8937179,158.9786 L85.0827179,158.9786 C83.2307179,158.9786 81.7257179,157.4736 81.7257179,155.6216 L81.7257179,132.8236 C81.7257179,130.9726 83.2307179,129.4666 85.0827179,129.4666 L86.8937179,129.4666 C88.7447179,129.4666 90.2507179,130.9726 90.2507179,132.8236 L90.2507179,155.6216 Z M86.8937179,128.4666 L85.0827179,128.4666 C82.6807179,128.4666 80.7257179,130.4216 80.7257179,132.8236 L80.7257179,155.6216 C80.7257179,158.0236 82.6807179,159.9786 85.0827179,159.9786 L86.8937179,159.9786 C89.2957179,159.9786 91.2507179,158.0236 91.2507179,155.6216 L91.2507179,132.8236 C91.2507179,130.4216 89.2957179,128.4666 86.8937179,128.4666 L86.8937179,128.4666 Z" class="sapIllus_StrokeDetailColor"/>
  <path fill="var(--sapIllus_ObjectFillColor)" d="M212.717518,89.0444 L210.907518,89.0444 C209.056518,89.0444 207.550518,90.5504 207.550518,92.4014 L207.550518,145.3614 C207.550518,147.2134 209.056518,148.7194 210.907518,148.7194 L212.717518,148.7194 C214.569518,148.7194 216.074518,147.2134 216.074518,145.3614 L216.074518,92.4014 C216.074518,90.5504 214.569518,89.0444 212.717518,89.0444" class="sapIllus_ObjectFillColor"/>
  <path fill="var(--sapIllus_StrokeDetailColor)" d="M216.075018,145.3618 C216.075018,147.2138 214.569018,148.7188 212.718018,148.7188 L210.908018,148.7188 C209.056018,148.7188 207.551018,147.2138 207.551018,145.3618 L207.551018,92.4018 C207.551018,90.5498 209.056018,89.0448 210.908018,89.0448 L212.718018,89.0448 C214.569018,89.0448 216.075018,90.5498 216.075018,92.4018 L216.075018,145.3618 Z M212.718018,88.0448 L210.908018,88.0448 C208.506018,88.0448 206.551018,89.9998 206.551018,92.4018 L206.551018,145.3618 C206.551018,147.7638 208.506018,149.7188 210.908018,149.7188 L212.718018,149.7188 C215.120018,149.7188 217.075018,147.7638 217.075018,145.3618 L217.075018,92.4018 C217.075018,89.9998 215.120018,88.0448 212.718018,88.0448 L212.718018,88.0448 Z" class="sapIllus_StrokeDetailColor"/>
  <path fill="var(--sapIllus_PatternShadow)" d="M186.391418,116.647 C186.124418,113.345 185.367418,110.101 184.145418,107.022 C181.784418,101.249 176.338418,95.017 170.586418,92.482 C173.396418,97.555 177.537418,103.118 178.263418,108.871 C179.139418,114.129 178.851418,119.517 177.417418,124.652 C176.174418,129.009 173.952418,133.024 170.918418,136.39 C170.116418,137.211 169.265418,137.984 168.371418,138.705 C166.986418,139.771 165.508418,140.712 163.957418,141.52 C157.775418,144.663 148.706418,144.702 148.706418,144.702 C140.935418,144.642 133.280418,138.938 126.328418,135.461 C128.352418,140.21 134.100418,147.402 139.196418,149.736 C142.941418,151.456 146.973418,152.464 151.087418,152.709 C152.578418,152.789 154.071418,152.781 155.560418,152.684 C156.412418,152.625 157.145418,152.533 157.466418,152.492 C157.939418,152.443 158.410418,152.369 158.874418,152.27 C159.417418,152.144 159.630418,152.043 160.502418,151.758 C161.239418,151.517 161.627418,151.412 162.031418,151.289 C164.157418,150.6 166.243418,149.79 168.277418,148.863 C169.431418,148.385 170.549418,147.821 171.619418,147.173 C172.389418,146.681 173.129418,146.142 173.834418,145.56 C175.290418,144.376 176.660418,143.09 177.930418,141.71 C180.643418,138.562 182.819418,134.989 184.370418,131.133 C186.103418,126.512 186.792418,121.566 186.391418,116.647" class="sapIllus_PatternShadow"/>
  <path fill="var(--sapIllus_ObjectFillColor)" d="M175.203918,137.8667 C180.273918,131.7197 182.647918,123.9647 181.886918,116.0317 C180.314918,99.6557 165.711918,87.6027 149.338918,89.1827 C141.404918,89.9437 134.243918,93.7497 129.172918,99.8967 C124.100918,106.0447 121.727918,113.7997 122.489918,121.7317 C124.060918,138.1067 138.650918,150.1467 155.037918,148.5797 C162.970918,147.8187 170.132918,144.0137 175.203918,137.8667" class="sapIllus_ObjectFillColor"/>
  <path fill="var(--sapIllus_StrokeDetailColor)" d="M122.490018,121.7319 C121.728018,113.7989 124.101018,106.0439 129.173018,99.8969 C134.244018,93.7499 141.405018,89.9439 149.339018,89.1829 C165.712018,87.6029 180.315018,99.6559 181.886018,116.0319 C182.648018,123.9639 180.274018,131.7189 175.204018,137.8669 C170.133018,144.0139 162.970018,147.8189 155.038018,148.5799 C138.651018,150.1469 124.061018,138.1069 122.490018,121.7319 M182.883018,115.9359 C181.258018,99.0099 166.151018,86.5699 149.243018,88.1869 L149.242018,88.1879 C141.044018,88.9749 133.642018,92.9069 128.401018,99.2609 C123.160018,105.6149 120.708018,113.6279 121.494018,121.8279 C122.281018,130.0259 126.214018,137.4269 132.567018,142.6689 C138.142018,147.2679 144.996018,149.7189 152.132018,149.7189 C153.128018,149.7189 154.130018,149.6709 155.134018,149.5759 C163.332018,148.7889 170.734018,144.8569 175.974018,138.5029 C181.216018,132.1499 183.669018,124.1349 182.883018,115.9359" class="sapIllus_StrokeDetailColor"/>
  <path fill="var(--sapIllus_StrokeDetailColor)" d="M152.086718 103.5151C151.810718 103.5151 151.586718 103.2911 151.586718 103.0151L151.586718 97.5381C151.586718 97.2621 151.810718 97.0381 152.086718 97.0381 152.362718 97.0381 152.586718 97.2621 152.586718 97.5381L152.586718 103.0151C152.586718 103.2911 152.362718 103.5151 152.086718 103.5151M152.086718 140.312C151.810718 140.312 151.586718 140.088 151.586718 139.812L151.586718 134.334C151.586718 134.058 151.810718 133.834 152.086718 133.834 152.362718 133.834 152.586718 134.058 152.586718 134.334L152.586718 139.812C152.586718 140.088 152.362718 140.312 152.086718 140.312M136.426518 119.3755L130.949518 119.3755C130.673518 119.3755 130.449518 119.1515 130.449518 118.8755 130.449518 118.5995 130.673518 118.3755 130.949518 118.3755L136.426518 118.3755C136.702518 118.3755 136.926518 118.5995 136.926518 118.8755 136.926518 119.1515 136.702518 119.3755 136.426518 119.3755M173.223418 119.3755L167.745418 119.3755C167.469418 119.3755 167.245418 119.1515 167.245418 118.8755 167.245418 118.5995 167.469418 118.3755 167.745418 118.3755L173.223418 118.3755C173.499418 118.3755 173.723418 118.5995 173.723418 118.8755 173.723418 119.1515 173.499418 119.3755 173.223418 119.3755M137.618918 113.1821C137.555918 113.1821 137.489918 113.1701 137.427918 113.1441L132.366918 111.0481C132.111918 110.9431 131.990918 110.6501 132.096918 110.3951 132.201918 110.1401 132.494918 110.0181 132.749918 110.1241L137.809918 112.2201C138.064918 112.3261 138.185918 112.6191 138.080918 112.8731 138.000918 113.0661 137.814918 113.1821 137.618918 113.1821M171.614018 127.2632C171.551018 127.2632 171.485018 127.2512 171.423018 127.2252L166.362018 125.1292C166.107018 125.0242 165.986018 124.7312 166.092018 124.4762 166.198018 124.2212 166.489018 124.0992 166.745018 124.2052L171.805018 126.3012C172.060018 126.4072 172.181018 126.7002 172.076018 126.9542 171.996018 127.1472 171.810018 127.2632 171.614018 127.2632M144.182418 138.7798C144.118418 138.7798 144.053418 138.7678 143.991418 138.7418 143.736418 138.6358 143.615418 138.3428 143.720418 138.0888L145.817418 133.0278C145.923418 132.7718 146.217418 132.6508 146.470418 132.7578 146.725418 132.8628 146.846418 133.1558 146.741418 133.4108L144.644418 138.4708C144.564418 138.6638 144.378418 138.7798 144.182418 138.7798M158.264418 104.7837C158.201418 104.7837 158.135418 104.7717 158.073418 104.7457 157.818418 104.6397 157.697418 104.3467 157.802418 104.0927L159.898418 99.0327C160.004418 98.7767 160.297418 98.6557 160.551418 98.7627 160.806418 98.8677 160.927418 99.1607 160.822418 99.4157L158.726418 104.4747C158.646418 104.6677 158.460418 104.7837 158.264418 104.7837M141.013418 108.102C140.885418 108.102 140.757418 108.053 140.659418 107.956L136.786418 104.082C136.591418 103.887 136.591418 103.571 136.786418 103.375 136.982418 103.18 137.298418 103.18 137.493418 103.375L141.367418 107.248C141.562418 107.444 141.562418 107.76 141.367418 107.956 141.269418 108.053 141.141418 108.102 141.013418 108.102M167.032018 134.1206C166.904018 134.1206 166.776018 134.0716 166.678018 133.9746L162.805018 130.1006C162.610018 129.9056 162.610018 129.5896 162.805018 129.3936 163.001018 129.1986 163.317018 129.1986 163.512018 129.3936L167.386018 133.2666C167.581018 133.4626 167.581018 133.7786 167.386018 133.9746 167.288018 134.0716 167.160018 134.1206 167.032018 134.1206M137.282018 134.2622C137.154018 134.2622 137.026018 134.2132 136.928018 134.1162 136.733018 133.9202 136.733018 133.6042 136.928018 133.4082L140.802018 129.5352C140.997018 129.3402 141.313018 129.3402 141.509018 129.5352 141.704018 129.7312 141.704018 130.0472 141.509018 130.2422L137.636018 134.1162C137.538018 134.2132 137.410018 134.2622 137.282018 134.2622M146.093518 104.7075C145.897518 104.7075 145.711518 104.5915 145.631518 104.3985L143.535518 99.3385C143.430518 99.0835 143.551518 98.7905 143.806518 98.6855 144.063518 98.5785 144.354518 98.7005 144.459518 98.9555L146.555518 104.0165C146.660518 104.2705 146.539518 104.5635 146.284518 104.6695 146.222518 104.6955 146.156518 104.7075 146.093518 104.7075M160.174618 138.7026C159.978618 138.7026 159.792618 138.5866 159.712618 138.3936L157.616618 133.3336C157.511618 133.0786 157.632618 132.7856 157.887618 132.6806 158.144618 132.5736 158.435618 132.6966 158.540618 132.9506L160.636618 138.0116C160.741618 138.2656 160.620618 138.5586 160.365618 138.6646 160.303618 138.6906 160.237618 138.7026 160.174618 138.7026M132.635518 127.4487C132.439518 127.4487 132.253518 127.3327 132.173518 127.1397 132.068518 126.8857 132.189518 126.5927 132.444518 126.4867L137.503518 124.3907C137.761518 124.2837 138.051518 124.4077 138.156518 124.6617 138.262518 124.9167 138.141518 125.2097 137.886518 125.3147L132.826518 127.4107C132.764518 127.4367 132.698518 127.4487 132.635518 127.4487M166.630618 113.3677C166.434618 113.3677 166.248618 113.2517 166.168618 113.0587 166.063618 112.8047 166.184618 112.5117 166.439618 112.4057L171.499618 110.3087C171.752618 110.2017 172.046618 110.3247 172.152618 110.5797 172.258618 110.8347 172.137618 111.1277 171.882618 111.2327L166.821618 113.3297C166.759618 113.3557 166.693618 113.3677 166.630618 113.3677" class="sapIllus_StrokeDetailColor"/>
  <polygon fill="var(--sapIllus_AccentColor)" points="168.035 103.907 168.433 102.636 155.039 106.839 164.231 116.032" class="sapIllus_AccentColor"/>
  <path fill="var(--sapIllus_StrokeDetailColor)" d="M169.237118,103.439 L168.035118,103.907 L164.563118,114.974 C163.853118,113.244 162.779118,111.701 161.418118,110.459 C163.449118,112.683 164.698118,115.632 164.698118,118.882 C164.698118,125.791 159.097118,131.391 152.188118,131.391 C148.939118,131.391 145.989118,130.142 143.765118,128.112 C146.052118,130.617 149.336118,132.199 152.995118,132.199 C159.904118,132.199 165.505118,126.597 165.505118,119.689 C165.505118,118.596 165.348118,117.544 165.084118,116.536 L169.237118,103.439 Z" class="sapIllus_StrokeDetailColor"/>
  <path fill="var(--sapIllus_BrandColorSecondary)" d="M164.698018,118.8823 C164.698018,115.6323 163.449018,112.6833 161.418018,110.4583 C159.131018,107.9533 155.848018,106.3723 152.188018,106.3723 C145.279018,106.3723 139.678018,111.9733 139.678018,118.8823 C139.678018,122.5413 141.261018,125.8233 143.765018,128.1113 C145.989018,130.1423 148.939018,131.3913 152.188018,131.3913 C159.097018,131.3913 164.698018,125.7903 164.698018,118.8823" class="sapIllus_BrandColorSecondary"/>
  <path fill="var(--sapIllus_AccentColor)" d="M291.7691 51.9795C287.3501 50.2985 285.2171 46.2405 283.5691 42.1055 283.4921 41.9145 283.3071 41.7885 283.1001 41.7865 282.9011 41.8025 282.7221 41.9175 282.6241 42.0935 280.3881 47.3195 277.4971 49.5615 273.3391 52.3845 273.1101 52.5405 273.0501 52.8525 273.2051 53.0825 273.2691 53.1765 273.3651 53.2475 273.4741 53.2805 276.9411 54.3715 282.1021 60.9405 282.1021 64.2655 282.1031 64.5175 282.2901 64.7305 282.5401 64.7645 282.5641 64.7685 282.5871 64.7695051 282.6121 64.7695051 282.8371 64.7705 283.0371 64.6235 283.1011 64.4085 283.9741 61.4725 286.7631 55.3585 291.0701 53.2245 291.2981 53.1115 291.5311 53.0105 291.7671 52.9205 292.0281 52.8255 292.1611 52.5375 292.0661 52.2775 292.0151 52.1395 291.9071 52.0315 291.7691 51.9795M268.2994 74.8819C265.9174 73.9229 264.7564 71.5819 263.8564 69.1949 263.7854 68.9999 263.6034 68.8679 263.3954 68.8629 263.1964 68.8869 263.0224 69.0059 262.9274 69.1829 261.7264 72.1529 259.9334 73.6779 257.8594 75.4429L257.8074 75.4869C257.6554 75.6169 257.5904 75.8209 257.6354 76.0159 257.6784 76.2079 257.8264 76.3599 258.0194 76.4039 259.8244 76.8049 262.6194 80.4029 262.6194 82.3279 262.6154 82.5829 262.7974 82.8029 263.0494 82.8459 263.0724 82.8499 263.0964 82.8519 263.1204 82.8509 263.3464 82.8479 263.5424 82.6939 263.6014 82.4759 264.2064 80.3239 265.9574 76.7859 268.2974 75.8589 268.5674 75.7429 268.6924 75.4319 268.5764 75.1609 268.5244 75.0359 268.4244 74.9359 268.2994 74.8819" class="sapIllus_AccentColor"/>
</svg>