<svg width="160" height="160" viewBox="0 0 160 160" id="tnt-Dialog-Services">
  <path fill="var(--sapIllus_BackgroundColor)" d="M120.217689,89.8495569 C120.272689,85.2995569 124.133689,82.0815569 129.327689,81.9725569 C145.452689,81.6365569 158.477689,68.5085569 156.864689,52.6765569 C155.461689,38.8995569 142.859689,28.6845569 128.481689,28.6828069 C105.123689,28.6828069 66.9076889,28.6828069 43.5496889,28.6828069 C29.1716889,28.6845569 16.5696889,38.8995569 15.1656889,52.6765569 C13.5536889,68.5085569 26.5746889,81.9725569 42.7026889,81.9725569 L42.7876889,81.9725569 C46.0606889,81.9725569 48.7286889,84.5505569 48.7186889,87.7015569 L48.7186889,87.7655569 L48.7186889,87.8285569 C48.7286889,90.9805569 46.0606889,93.5575569 42.7876889,93.5575569 L19.1636889,93.5575569 C11.7846889,93.5575569 5.0186889,98.2515569 3.4006889,105.184557 C1.1226889,114.941557 8.8736889,123.677557 18.6406889,123.677557 L34.3586889,123.677557 L104.672689,123.677557 L114.341689,123.677557 C121.948689,123.677557 128.853689,118.679557 130.252689,111.479557 C131.566689,104.718557 127.281689,99.6345569 122.557689,95.5225569 C121.207689,94.3475569 120.189689,92.2395569 120.217689,89.8495569" class="sapIllus_BackgroundColor"/>
  <path fill="var(--sapIllus_Layering1)" d="M78.0027889 149.177657C77.7137889 149.182657 77.4747889 148.950657 77.4697889 148.660657L77.4697889 145.431657C77.4797889 145.136657 77.7277889 144.906657 78.0217889 144.915657 78.3027889 144.925657 78.5267889 145.151657 78.5367889 145.431657L78.5367889 148.660657C78.5317889 148.950657 78.2937889 149.182657 78.0037889 149.177657L78.0027889 149.177657zM78.0027889 137.455957C77.7137889 137.459957 77.4747889 137.227957 77.4697889 136.938957L77.4697889 136.937957 77.4697889 133.703957C77.4787889 133.408957 77.7237889 133.177957 78.0187889 133.184957 78.3017889 133.192957 78.5287889 133.420957 78.5367889 133.703957L78.5367889 136.937957C78.5317889 137.227957 78.2937889 137.459957 78.0037889 137.455957L78.0027889 137.455957zM73.7576889 141.712857L70.5266889 141.712857C70.2326889 141.712857 69.9926889 141.474857 69.9926889 141.180857 69.9926889 140.885857 70.2326889 140.647857 70.5266889 140.647857L73.7576889 140.647857C74.0516889 140.647857 74.2896889 140.885857 74.2896889 141.180857 74.2896889 141.474857 74.0516889 141.712857 73.7576889 141.712857M85.4842889 141.714757L82.2572889 141.714757C81.9632889 141.704757 81.7332889 141.458757 81.7422889 141.164757 81.7512889 140.884757 81.9762889 140.658757 82.2572889 140.650757L85.4842889 140.650757C85.7782889 140.658757 86.0082889 140.904757 86.0002889 141.198757 85.9912889 141.480757 85.7652889 141.704757 85.4842889 141.714757" class="sapIllus_Layering1"/>
  <path fill="var(--sapIllus_AccentColor)" d="M148.293789 22.0458569C143.572789 20.2968569 141.263789 15.9958569 139.470789 11.6078569 139.386789 11.4048569 139.188789 11.2728569 138.968789 11.2728569 138.755789 11.2918569 138.566789 11.4168569 138.464789 11.6048569 136.131789 17.1898569 133.073789 19.6038569 128.674789 22.6498569 128.431789 22.8168569 128.369789 23.1498569 128.536789 23.3928569 128.606789 23.4928569 128.708789 23.5668569 128.825789 23.6018569 132.526789 24.7298569 138.083789 31.6768569 138.114789 35.2178569 138.118789 35.4858569 138.318789 35.7108569 138.585789 35.7448569 138.610789 35.7478569 138.637789 35.7498569 138.662789 35.7488569 138.902789 35.7478569 139.112789 35.5898569 139.180789 35.3588569 140.082789 32.2268569 142.994789 25.6898569 147.560789 23.3778569 147.802789 23.2548569 148.049789 23.1448569 148.300789 23.0478569 148.576789 22.9428569 148.716789 22.6358569 148.611789 22.3588569 148.557789 22.2128569 148.440789 22.0988569 148.293789 22.0458569M19.1941889 87.9237569C16.9201889 87.0077569 15.8111889 84.7737569 14.9511889 82.4937569 14.8841889 82.3087569 14.7101889 82.1827569 14.5121889 82.1777569 14.3231889 82.1997569 14.1561889 82.3147569 14.0651889 82.4827569 12.9191889 85.3197569 11.2071889 86.7747569 9.2261889 88.4587569L9.1761889 88.5007569C9.0331889 88.6257569 8.9691889 88.8197569 9.0131889 89.0057569 9.0531889 89.1897569 9.1961889 89.3337569 9.3801889 89.3767569 11.1031889 89.7587569 13.7711889 93.1947569 13.7711889 95.0317569 13.7671889 95.2757569 13.9411889 95.4857569 14.1811889 95.5267569 14.2041889 95.5297569 14.2271889 95.5307569 14.2501889 95.5307569 14.4651889 95.5277569 14.6531889 95.3817569 14.7081889 95.1727569 15.2861889 93.1187569 16.9581889 89.7417569 19.1911889 88.8567569 19.4491889 88.7457569 19.5691889 88.4477569 19.4591889 88.1907569 19.4081889 88.0697569 19.3131889 87.9757569 19.1931889 87.9237569L19.1941889 87.9237569z" class="sapIllus_AccentColor"/>
  <path fill="var(--sapIllus_ObjectFillColor)" d="M79.8357889,112.903257 L118.358789,74.3802569 C120.713789,72.0262569 114.820789,62.3182569 105.198789,52.6962569 C95.5777889,43.0742569 85.8697889,37.1822569 83.5167889,39.5362569 L44.9927889,78.0592569 L79.8357889,112.903257 Z" class="sapIllus_ObjectFillColor"/>
  <path fill="var(--sapIllus_PatternShadow)" d="M120.281984,68.4820866 C110.660984,58.8600866 100.952984,52.9680866 98.5989841,55.3220866 L60.0759841,93.8450866 L77.8229841,111.592087 L120.281984,68.4820866 Z" class="sapIllus_PatternShadow" transform="scale(1 -1) rotate(90 173.377 0)"/>
  <path fill="var(--sapIllus_ObjectFillColor)" d="M126.883689,85.2772569 L143.028689,107.511257 C143.868689,108.353257 143.888689,109.696257 143.071689,110.512257 L115.328689,138.256257 C114.512689,139.072257 113.168689,139.052257 112.327689,138.212257 L90.0926889,122.067257 C89.2516889,121.226257 89.2326889,119.882257 90.0486889,119.066257 L123.882689,85.2322569 C124.698689,84.4162569 126.041689,84.4362569 126.883689,85.2772569" class="sapIllus_ObjectFillColor"/>
  <path fill="var(--sapIllus_BrandColorSecondary)" d="M118.516489 115.663057L125.308489 122.454057C125.597489 122.744057 125.570489 123.241057 125.246489 123.564057L114.519489 134.292057C114.196489 134.615057 113.699489 134.642057 113.409489 134.352057L105.553489 128.626057C105.263489 128.336057 105.290489 127.839057 105.614489 127.516057L117.406489 115.724057C117.729489 115.400057 118.226489 115.373057 118.516489 115.663057M109.063389 106.208857L115.675389 112.821857C115.965389 113.110857 115.938389 113.607857 115.615389 113.931857L103.355389 126.190857C103.032389 126.514857 102.535389 126.541857 102.245389 126.252857L94.4893889 120.782857C94.1993889 120.493857 94.2263889 119.996857 94.5493889 119.673857L107.953389 106.270857C108.276389 105.945857 108.773389 105.919857 109.063389 106.208857M133.270389 100.909057L138.842389 108.920057C139.132389 109.209057 139.105389 109.706057 138.782389 110.029057L128.167389 120.643057C127.844389 120.967057 127.347389 120.994057 127.057389 120.705057L120.266389 113.913057C119.976389 113.623057 120.003389 113.126057 120.327389 112.803057L132.160389 100.970057C132.483389 100.646057 132.980389 100.619057 133.270389 100.909057M125.386589 89.8856569L130.856589 97.6416569C131.145589 97.9316569 131.117589 98.4286569 130.794589 98.7516569L118.534589 111.011657C118.211589 111.334657 117.714589 111.362657 117.424589 111.072657L110.812589 104.459657C110.523589 104.169657 110.549589 103.672657 110.873589 103.349657L124.277589 89.9466569C124.600589 89.6226569 125.097589 89.5956569 125.386589 89.8856569" class="sapIllus_BrandColorSecondary"/>
  <path fill="var(--sapIllus_ObjectFillColor)" d="M53.7498889,12.1434569 L69.8948889,34.3784569 C70.7348889,35.2194569 70.7548889,36.5624569 69.9378889,37.3784569 L42.1948889,65.1224569 C41.3788889,65.9394569 40.0348889,65.9184569 39.1938889,65.0784569 L16.9588889,48.9334569 C16.1178889,48.0924569 16.0988889,46.7484569 16.9148889,45.9324569 L50.7488889,12.0984569 C51.5648889,11.2824569 52.9088889,11.3024569 53.7498889,12.1434569" class="sapIllus_ObjectFillColor"/>
  <path fill="var(--sapIllus_BrandColorSecondary)" d="M45.3826889 42.5292569L52.1746889 49.3202569C52.4636889 49.6102569 52.4376889 50.1072569 52.1126889 50.4302569L41.3856889 61.1582569C41.0626889 61.4812569 40.5656889 61.5082569 40.2756889 61.2182569L32.4196889 55.4922569C32.1296889 55.2032569 32.1566889 54.7062569 32.4806889 54.3822569L44.2726889 42.5902569C44.5966889 42.2662569 45.0936889 42.2392569 45.3826889 42.5292569M35.9295889 33.0751569L42.5415889 39.6881569C42.8315889 39.9771569 42.8045889 40.4741569 42.4815889 40.7991569L30.2215889 53.0571569C29.8985889 53.3821569 29.4015889 53.4091569 29.1115889 53.1191569L21.3555889 47.6501569C21.0655889 47.3601569 21.0925889 46.8631569 21.4155889 46.5401569L34.8195889 33.1371569C35.1425889 32.8131569 35.6395889 32.7861569 35.9295889 33.0751569M60.1365889 27.7753569L65.7085889 35.7863569C65.9985889 36.0763569 65.9715889 36.5733569 65.6485889 36.8963569L55.0335889 47.5093569C54.7105889 47.8343569 54.2135889 47.8603569 53.9235889 47.5713569L47.1325889 40.7793569C46.8425889 40.4903569 46.8695889 39.9933569 47.1935889 39.6693569L59.0265889 27.8363569C59.3505889 27.5123569 59.8475889 27.4853569 60.1365889 27.7753569M52.2537889 16.7518569L57.7227889 24.5078569C58.0117889 24.7978569 57.9847889 25.2948569 57.6607889 25.6178569L45.4017889 37.8778569C45.0777889 38.2008569 44.5807889 38.2288569 44.2917889 37.9388569L37.6787889 31.3258569C37.3897889 31.0358569 37.4167889 30.5388569 37.7397889 30.2158569L51.1437889 16.8128569C51.4667889 16.4888569 51.9637889 16.4618569 52.2537889 16.7518569" class="sapIllus_BrandColorSecondary"/>
  <path fill="var(--sapIllus_ObjectFillColor)" d="M55.4275889,102.468657 C47.1255889,94.1666569 34.8385889,92.8496569 27.2715889,99.2006569 L58.6955889,130.623657 C65.0455889,123.056657 63.7295889,110.770657 55.4275889,102.468657" class="sapIllus_ObjectFillColor"/>
  <path fill="var(--sapIllus_PatternShadow)" d="M69.3018018,116.246895 C60.9998018,107.944895 48.7128018,106.627895 41.1458018,112.978895 L50.9978018,122.831895 C57.3498018,115.264895 60.8738018,116.955895 69.3018018,116.246895" class="sapIllus_PatternShadow" transform="scale(-1 1) rotate(-90 0 171.132)"/>
  <path fill="var(--sapIllus_BrandColorSecondary)" d="M37.9412889,126.321257 C36.1832889,128.079257 33.3332889,128.079257 31.5752889,126.321257 C29.8162889,124.562257 29.8162889,121.712257 31.5752889,119.954257 C33.3332889,118.196257 36.1832889,118.196257 37.9412889,119.954257 C39.6992889,121.712257 39.6992889,124.562257 37.9412889,126.321257" class="sapIllus_BrandColorSecondary"/>
  <path fill="var(--sapIllus_StrokeDetailColor)" d="M142.718589,110.159057 L114.975589,137.902057 C114.354589,138.523057 113.325589,138.502057 112.621589,137.807057 L90.4475889,121.713057 C90.1325889,121.398057 89.9555889,120.985057 89.9484752,120.550057 C89.9435889,120.120057 90.1035889,119.719057 90.4025889,119.420057 L124.236589,85.5860569 C124.529589,85.2930569 124.920589,85.1330569 125.342589,85.1330569 L125.366589,85.1330569 C125.790589,85.1380569 126.193589,85.3050569 126.503589,85.6040569 L142.674589,107.865057 C143.319589,108.510057 143.338589,109.539057 142.718589,110.159057 L142.718589,110.159057 Z M79.8365889,112.195057 L45.6995889,78.0580569 L83.8695889,39.8880569 C85.7205889,38.0410569 94.7865889,42.9900569 104.846589,53.0490569 C114.904589,63.1080569 119.854589,72.1780569 118.006589,74.0250569 L79.8365889,112.195057 Z M58.6555889,129.878057 L28.0175889,99.2390569 C35.4395889,93.4360569 47.2075889,94.9550569 55.0735889,102.821057 C62.9415889,110.688057 64.4595889,122.456057 58.6555889,129.878057 L58.6555889,129.878057 Z M41.8415889,64.7680569 C41.2205889,65.3890569 40.1915889,65.3680569 39.4885889,64.6740569 L17.3135889,48.5800569 C16.9985889,48.2650569 16.8225889,47.8520569 16.8163699,47.4160569 C16.8095889,46.9860569 16.9705889,46.5850569 17.2685889,46.2860569 L51.1025889,12.4520569 C51.3955889,12.1590569 51.7865889,11.9990569 52.2085889,11.9990569 L52.2335889,11.9990569 C52.6565889,12.0050569 53.0595889,12.1720569 53.3695889,12.4710569 L69.5405889,34.7310569 C70.1855889,35.3760569 70.2055889,36.4050569 69.5855889,37.0250569 L41.8415889,64.7680569 Z M143.432589,107.218057 L127.287589,84.9820569 L127.237589,84.9230569 C126.201589,83.8880569 124.538589,83.8700569 123.529589,84.8790569 L106.505589,101.902057 L99.0255889,94.4210569 L118.713589,74.7320569 C121.710589,71.7350569 114.170589,60.9590569 105.553589,52.3420569 C96.9375889,43.7250569 86.1575889,36.1790569 83.1625889,39.1810569 L63.4875889,58.8570569 L56.3265889,51.6980569 L70.2925889,37.7320569 C71.3025889,36.7220569 71.2825889,35.0580569 70.2985889,34.0840569 L54.1545889,11.8480569 L54.1035889,11.7890569 C53.0685889,10.7540569 51.4055889,10.7350569 50.3955889,11.7450569 L16.5615889,45.5790569 C15.5515889,46.5890569 15.5715889,48.2530569 16.6655889,49.3380569 L38.8405889,65.4310569 C39.3655889,65.9570569 40.0535889,66.2200569 40.7355889,66.2200569 C41.3965889,66.2200569 42.0515889,65.9720569 42.5485889,65.4750569 L55.5125889,52.5120569 L62.6725889,59.6720569 L44.6395889,77.7050569 C44.4445889,77.9000569 44.4445889,78.2170569 44.6395889,78.4120569 L61.6545889,95.4270569 L55.3565889,101.724057 C46.9755889,93.7020569 34.6065889,92.3910569 26.9495889,98.8170569 C26.8425889,98.9070569 26.7785889,99.0380569 26.7715889,99.1790569 C26.7655889,99.3180569 26.8185889,99.4550569 26.9175889,99.5540569 L42.2225889,114.858057 L38.5375889,118.543057 C38.3435889,118.737057 38.3435889,119.055057 38.5375889,119.250057 L38.6455889,119.357057 C38.8395889,119.552057 39.1575889,119.552057 39.3525889,119.357057 L43.0355889,115.673057 L58.3415889,130.977057 C58.4355889,131.071057 58.5625889,131.124057 58.6955889,131.124057 L58.7165889,131.124057 C58.8575889,131.117057 58.9885889,131.053057 59.0775889,130.945057 C65.5045889,123.289057 64.1935889,110.920057 56.1705889,102.538057 L62.4675889,96.2410569 L79.4835889,113.256057 C79.5805889,113.353057 79.7085889,113.402057 79.8365889,113.402057 C79.9645889,113.402057 80.0925889,113.353057 80.1905889,113.256057 L98.2105889,95.2350569 L105.692589,102.716057 L89.6955889,118.713057 C89.2035889,119.204057 88.9395889,119.862057 88.9485889,120.564057 C88.9595889,121.262057 89.2405889,121.921057 89.7995889,122.471057 L111.974589,138.565057 C112.499589,139.091057 113.187589,139.354057 113.868589,139.354057 C114.530589,139.354057 115.185589,139.106057 115.682589,138.609057 L143.425589,110.866057 C144.435589,109.856057 144.415589,108.192057 143.432589,107.218057 L143.432589,107.218057 Z" class="sapIllus_StrokeDetailColor"/>
  <path fill="var(--sapIllus_StrokeDetailColor)" d="M58.3475889,69.6483569 C58.5725889,69.8733569 58.9365889,69.8733569 59.1615889,69.6483569 L67.7835889,61.0273569 C68.0085889,60.8013569 68.0085889,60.4373569 67.7835889,60.2123569 C67.5585889,59.9883569 67.1945889,59.9883569 66.9695889,60.2123569 L58.3475889,68.8353569 C58.1225889,69.0593569 58.1225889,69.4233569 58.3475889,69.6483569" class="sapIllus_StrokeDetailColor"/>
</svg>