<svg width="128" height="128" viewBox="0 0 128 128" id="tnt-Spot-Success">
  <path fill="var(--sapIllus_AccentColor)" d="M24.0305286,55.8378574 C21.6455286,54.9538574 20.4775286,52.7798574 19.5725286,50.5638574 C19.5295286,50.4608574 19.4295286,50.3938574 19.3185286,50.3938574 C19.2115286,50.4038574 19.1155286,50.4668574 19.0635286,50.5618574 C17.8845286,53.3838574 16.3405286,54.6038574 14.1165286,56.1428574 C13.9935286,56.2278574 13.9635286,56.3958574 14.0475286,56.5188574 C14.0825286,56.5688574 14.1345286,56.6068574 14.1925286,56.6238574 C16.0635286,57.1938574 18.8715286,60.7048574 18.8865286,62.4938574 C18.8885286,62.6298574 18.9905286,62.7428574 19.1255286,62.7608574 C19.1375286,62.7628574 19.1505286,62.7628574 19.1645286,62.7628574 C19.2855286,62.7628574 19.3915286,62.6828574 19.4265286,62.5668574 C19.8825286,60.9828574 21.3525286,57.6798574 23.6605286,56.5108574 C23.7825286,56.4488574 23.9075286,56.3938574 24.0345286,56.3448574 C24.1745286,56.2918574 24.2445286,56.1358574 24.1915286,55.9958574 C24.1645286,55.9228574 24.1055286,55.8638574 24.0315286,55.8378574 L24.0305286,55.8378574 Z" class="sapIllus_AccentColor"/>
  <path fill="var(--sapIllus_BrandColorSecondary)" d="M61.1184286,30.0985574 L88.3874286,44.0835574 C88.5314286,44.1585574 88.5234286,44.3665574 88.3754286,44.4295574 L61.1064286,56.1605574 C60.9804286,56.2155574 60.8404286,56.1225574 60.8404286,55.9865574 L60.8404286,30.2685574 C60.8404286,30.1255574 60.9914286,30.0335574 61.1184286,30.0985574" class="sapIllus_BrandColorSecondary"/>
  <path fill="var(--sapIllus_StrokeDetailColor)" d="M60.0989286,77.4325574 L60.0989286,77.4325574 C59.5459286,77.4325574 59.0989286,76.9845574 59.0989286,76.4325574 L59.0989286,27.6155574 C59.0989286,27.0635574 59.5459286,26.6155574 60.0989286,26.6155574 C60.6509286,26.6155574 61.0989286,27.0635574 61.0989286,27.6155574 L61.0989286,76.4325574 C61.0989286,76.9845574 60.6509286,77.4325574 60.0989286,77.4325574" class="sapIllus_StrokeDetailColor"/>
  <path fill="var(--sapIllus_Layering1)" d="M109.990529,100.935557 C107.407529,94.8835574 103.865529,89.6075574 99.3635286,85.1055574 C94.8615286,80.6045574 89.5855286,77.0625574 83.5335286,74.4795574 C77.4825286,71.8965574 71.0625286,70.6045574 64.2725286,70.6045574 C57.3365286,70.6045574 50.8795286,71.8965574 44.9015286,74.4795574 C38.9245286,77.0625574 33.6835286,80.6045574 29.1825286,85.1055574 C24.6805286,89.6075574 21.1385286,94.8835574 18.5555286,100.935557 C16.8235286,104.994557 15.3095286,112.634557 15.3095286,112.634557 C15.2035286,113.173557 15.5655286,113.615557 16.1155286,113.615557 L112.430529,113.615557 C112.980529,113.615557 113.343529,113.173557 113.236529,112.634557 C113.236529,112.634557 111.722529,104.994557 109.990529,100.935557" class="sapIllus_Layering1"/>
  <path fill="var(--sapIllus_Layering2)" d="M52.6194286 95.3359574C52.6194286 100.965957 48.0554286 105.529957 42.4244286 105.529957 36.7944286 105.529957 32.2294286 100.965957 32.2294286 95.3359574 32.2294286 89.7049574 36.7944286 85.1409574 42.4244286 85.1409574 48.0554286 85.1409574 52.6194286 89.7049574 52.6194286 95.3359574M81.3499286 83.7509574C81.3499286 87.0779574 78.6539286 89.7739574 75.3269286 89.7739574 71.9989286 89.7739574 69.3019286 87.0779574 69.3019286 83.7509574 69.3019286 80.4239574 71.9989286 77.7269574 75.3269286 77.7269574 78.6539286 77.7269574 81.3499286 80.4239574 81.3499286 83.7509574M98.9592286 96.2626574C98.9592286 98.8226574 96.8852286 100.896657 94.3252286 100.896657 91.7662286 100.896657 89.6912286 98.8226574 89.6912286 96.2626574 89.6912286 93.7026574 91.7662286 91.6286574 94.3252286 91.6286574 96.8852286 91.6286574 98.9592286 93.7026574 98.9592286 96.2626574" class="sapIllus_Layering2"/>
  <path fill="var(--sapIllus_BrandColorPrimary)" d="M98.2434286 19.1991574L96.2584286 17.6301574C95.8584286 17.3141574 95.7904286 16.7351574 96.1054286 16.3361574L97.6754286 14.3491574C97.9904286 13.9511574 98.5694286 13.8831574 98.9694286 14.1981574L100.955429 15.7671574C101.353429 16.0831574 101.422429 16.6621574 101.106429 17.0611574L99.5374286 19.0481574C99.2224286 19.4461574 98.6424286 19.5141574 98.2434286 19.1991574M82.1145264 65.3917973L81.3459974 63.8056463C81.1478401 63.3968353 81.3192194 62.9050125 81.7271378 62.7068552L83.3150739 61.9383262C83.7238849 61.7401689 84.2157078 61.9115482 84.4129725 62.3203592L85.1815014 63.9074028C85.3787661 64.3153212 85.2082794 64.8080366 84.7994684 65.0053013L83.2124249 65.7738303C82.8036139 65.971095 82.3126837 65.8006083 82.1145264 65.3917973zM38.8118485 42.5135917L36.7003783 41.2943558C36.3018167 41.0633712 36.1641318 40.5533936 36.3951164 40.1548321L37.6143523 38.042456C37.844431 37.6438945 38.3544086 37.5071154 38.7538759 37.7371941L40.866252 38.9564301C41.2648135 39.1865088 41.4015926 39.6973922 41.1706081 40.0959537L39.952278 42.2083298C39.7212934 42.6077971 39.21041 42.7436704 38.8118485 42.5135917" class="sapIllus_BrandColorPrimary"/>
  <path fill="var(--sapIllus_Layering1)" d="M25.1292286 32.1151574C24.8062286 32.1211574 24.5392286 31.8631574 24.5342286 31.5401574L24.5342286 27.9431574C24.5462286 27.6151574 24.8202286 27.3581574 25.1502286 27.3701574 25.4612286 27.3811574 25.7122286 27.6311574 25.7232286 27.9431574L25.7232286 31.5401574C25.7182286 31.8621574 25.4522286 32.1201574 25.1292286 32.1151574M25.1292286 19.0614574C24.8062286 19.0664574 24.5392286 18.8084574 24.5342286 18.4864574L24.5342286 18.4854574 24.5342286 14.8834574C24.5442286 14.5554574 24.8172286 14.2964574 25.1462286 14.3064574 25.4602286 14.3154574 25.7142286 14.5684574 25.7232286 14.8834574L25.7232286 18.4854574C25.7182286 18.8084574 25.4522286 19.0664574 25.1292286 19.0614574M20.4006286 23.8026574L16.8016286 23.8026574C16.4746286 23.8026574 16.2086286 23.5366574 16.2086286 23.2086574 16.2086286 22.8806574 16.4746286 22.6156574 16.8016286 22.6156574L20.4006286 22.6156574C20.7276286 22.6156574 20.9936286 22.8806574 20.9936286 23.2086574 20.9936286 23.5366574 20.7276286 23.8026574 20.4006286 23.8026574M33.4602286 23.8036574L29.8662286 23.8036574C29.5392286 23.7936574 29.2822286 23.5196574 29.2922286 23.1926574 29.3022286 22.8796574 29.5542286 22.6286574 29.8662286 22.6186574L33.4602286 22.6186574C33.7872286 22.6286574 34.0442286 22.9036574 34.0332286 23.2306574 34.0232286 23.5426574 33.7722286 23.7936574 33.4602286 23.8036574M105.077429 75.8222574C104.844429 75.8252574 104.651429 75.6392574 104.647429 75.4052574L104.647429 72.8022574C104.655429 72.5642574 104.854429 72.3792574 105.093429 72.3862574 105.318429 72.3942574 105.500429 72.5762574 105.508429 72.8022574L105.508429 75.4052574C105.504429 75.6382574 105.311429 75.8252574 105.078429 75.8222574L105.077429 75.8222574zM105.077429 66.3739574C104.844429 66.3779574 104.651429 66.1909574 104.647429 65.9569574L104.647429 63.3499574C104.654429 63.1119574 104.852429 62.9259574 105.090429 62.9329574 105.317429 62.9379574 105.501429 63.1219574 105.508429 63.3499574L105.508429 65.9569574C105.504429 66.1899574 105.311429 66.3769574 105.078429 66.3739574L105.077429 66.3739574zM101.655529 69.8056574L99.0515286 69.8056574C98.8135286 69.8056574 98.6215286 69.6136574 98.6215286 69.3756574 98.6215286 69.1386574 98.8135286 68.9466574 99.0515286 68.9466574L101.655529 68.9466574C101.892529 68.9466574 102.085529 69.1386574 102.085529 69.3756574 102.085529 69.6136574 101.892529 69.8056574 101.655529 69.8056574M111.107729 69.8066574L108.505729 69.8066574C108.269729 69.7986574 108.084729 69.6006574 108.090729 69.3646574 108.098729 69.1376574 108.280729 68.9556574 108.505729 68.9486574L111.107729 68.9486574C111.343729 68.9556574 111.530729 69.1546574 111.522729 69.3906574 111.515729 69.6176574 111.334729 69.7986574 111.107729 69.8066574" class="sapIllus_Layering1"/>
</svg>