<svg width="160" height="160" viewBox="0 0 160 160" id="tnt-Dialog-UnsuccessfulAuth">
    <path fill="var(--sapIllus_PatternShadow)" d="M136.022,35.1663 L135.965,35.1663 L134.747,35.1663 L134.747,45.3033 L134.747,49.1843 L134.747,114.2153 C134.747,116.3273 133.035,118.0393 130.922,118.0393 L25.156,118.0393 L25.158,120.5883 C25.158,122.7013 26.87,124.4143 28.981,124.4143 L136.022,124.4143 C138.134,124.4143 139.846,122.7013 139.846,120.5903 L139.846,38.9913 C139.846,36.8793 138.134,35.1663 136.022,35.1663" class="sapIllus_PatternShadow"/>
    <path fill="var(--sapIllus_ObjectFillColor)" d="M130.6402,118.0394 L24.1072,118.0394 C21.8392,118.0394 20.0002,116.2004 20.0002,113.9334 L20.0002,32.8984 C20.0002,30.6314 21.8392,28.7924 24.1072,28.7924 L130.6402,28.7924 C132.9082,28.7924 134.7462,30.6314 134.7462,32.8984 L134.7462,113.9334 C134.7462,116.2004 132.9082,118.0394 130.6402,118.0394" class="sapIllus_ObjectFillColor"/>
    <path fill="var(--sapIllus_BrandColorSecondary)" d="M134.7467,45.3665 L19.9997,45.3665 L19.9997,32.9865 C19.9997,30.6705 21.8777,28.7925 24.1937,28.7925 L130.3727,28.7925 C132.7887,28.7925 134.7467,30.7505 134.7467,33.1665 L134.7467,45.3665 Z" class="sapIllus_BrandColorSecondary"/>
    <path fill="var(--sapIllus_StrokeDetailColor)" d="M130.9224,116.7649 L23.8244,116.7649 C22.4164,116.7649 21.2754,115.6229 21.2754,114.2149 L21.2754,45.3669 L23.5974,45.3669 L133.4724,45.3779 L133.4724,114.2149 C133.4724,115.6229 132.3304,116.7649 130.9224,116.7649 M133.4724,32.6179 L133.4724,44.0919 L21.2754,44.0919 L21.2754,32.6179 C21.2754,31.2079 22.4164,30.0669 23.8244,30.0669 L130.9224,30.0669 C132.3304,30.0669 133.4724,31.2079 133.4724,32.6179 M130.9224,28.7919 L130.3184,28.7919 L23.3024,28.7919 L23.2444,28.7919 C21.0414,28.7919 20.0004,30.9489 20.0004,32.4859 L20.0004,45.3669 L20.0004,114.2149 C20.0004,116.3279 21.7124,118.0389 23.8244,118.0389 L130.9224,118.0389 C133.0344,118.0389 134.7464,116.3279 134.7464,114.2149 L134.7464,49.1839 L134.7464,45.3029 L134.7464,32.6179 C134.7464,30.5039 133.0344,28.7919 130.9224,28.7919" class="sapIllus_StrokeDetailColor"/>
    <path fill="var(--sapIllus_ObjectFillColor)" d="M32.1544 37.0794C32.1544 38.4484 31.0444 39.5584 29.6754 39.5584 28.3054 39.5584 27.1954 38.4484 27.1954 37.0794 27.1954 35.7104 28.3054 34.6004 29.6754 34.6004 31.0444 34.6004 32.1544 35.7104 32.1544 37.0794M39.7803 37.0794C39.7803 38.4484 38.6703 39.5584 37.3013 39.5584 35.9313 39.5584 34.8213 38.4484 34.8213 37.0794 34.8213 35.7104 35.9313 34.6004 37.3013 34.6004 38.6703 34.6004 39.7803 35.7104 39.7803 37.0794M47.4063 37.0794C47.4063 38.4484 46.2963 39.5584 44.9263 39.5584 43.5573 39.5584 42.4473 38.4484 42.4473 37.0794 42.4473 35.7104 43.5573 34.6004 44.9263 34.6004 46.2963 34.6004 47.4063 35.7104 47.4063 37.0794" class="sapIllus_ObjectFillColor"/>
    <path fill="var(--sapIllus_BackgroundColor)" d="M59.317,65.6767 C65.406,65.6767 70.498,69.8957 71.863,75.5657 L71.863,75.5657 L105.44,75.5657 C107.046,75.5657 108.348,76.8677 108.348,78.4747 C108.348,80.0807 107.046,81.3827 105.44,81.3827 L105.44,81.3827 L104.389,81.3827 L104.389,87.8367 C104.389,88.1097 104.169,88.3307 103.896,88.3307 L103.896,88.3307 L100.253,88.3307 C99.982,88.3307 99.76,88.1097 99.76,87.8367 L99.76,87.8367 L99.76,86.1697 C99.76,85.8987 99.54,85.6777 99.268,85.6777 L99.268,85.6777 L95.573,85.6777 C95.297,85.6777 95.076,85.9017 95.08,86.1757 L95.08,86.1757 L95.084,87.8327 C95.086,88.1057 94.865,88.3307 94.59,88.3307 L94.59,88.3307 L90.858,88.3307 C90.586,88.3307 90.365,88.1097 90.365,87.8367 L90.365,87.8367 L90.365,81.3827 L71.925,81.3827 C70.65,87.1757 65.494,91.5137 59.317,91.5137 C52.182,91.5137 46.398,85.7307 46.398,78.5957 C46.398,71.4617 52.182,65.6767 59.317,65.6767 Z M59.4138,72.3663 C56.0278,72.3663 53.2818,75.1113 53.2818,78.4983 C53.2818,81.8853 56.0278,84.6303 59.4138,84.6303 C62.8008,84.6303 65.5458,81.8853 65.5458,78.4983 C65.5458,75.1113 62.8008,72.3663 59.4138,72.3663 Z" class="sapIllus_BackgroundColor"/>
    <path fill="var(--sapIllus_Layering1)" d="M133.4732,15.9876 C122.6912,15.9876 113.9202,24.7586 113.9202,35.5396 C113.9202,46.3206 122.6912,55.0916 133.4732,55.0916 C144.2522,55.0916 153.0242,46.3206 153.0242,35.5396 C153.0242,24.7586 144.2522,15.9876 133.4732,15.9876" class="sapIllus_Layering1"/>
    <path fill="var(--sapIllus_ObjectFillColor)" d="M136.3931,35.5394 L143.4911,28.4394 C143.8811,28.0494 144.0971,27.5294 144.0971,26.9774 C144.0971,26.4264 143.8811,25.9064 143.4911,25.5174 C142.7121,24.7354 141.3481,24.7334 140.5701,25.5174 L133.4721,32.6174 L126.3751,25.5174 C125.5981,24.7354 124.2341,24.7344 123.4541,25.5164 C123.0641,25.9064 122.8481,26.4264 122.8481,26.9774 C122.8481,27.5294 123.0641,28.0494 123.4541,28.4384 L130.5511,35.5394 L123.4541,42.6404 C122.6481,43.4454 122.6481,44.7574 123.4541,45.5634 C124.2371,46.3444 125.5961,46.3434 126.3751,45.5624 L133.4721,38.4634 L140.5701,45.5634 C140.9591,45.9534 141.4781,46.1684 142.0301,46.1684 C142.5821,46.1684 143.1001,45.9534 143.4911,45.5624 C144.2971,44.7574 144.2971,43.4454 143.4911,42.6404 L136.3931,35.5394 Z" class="sapIllus_ObjectFillColor"/>
    <path fill="var(--sapIllus_ObjectFillColor)" d="M153.024,35.5394 C153.024,46.3204 144.253,55.0924 133.473,55.0924 C122.691,55.0924 113.92,46.3204 113.92,35.5394 C113.92,24.7594 122.691,15.9874 133.473,15.9874 C144.253,15.9874 153.024,24.7594 153.024,35.5394 M133.473,12.0004 C120.494,12.0004 109.933,22.5604 109.933,35.5394 C109.933,48.5194 120.494,59.0794 133.473,59.0794 C146.453,59.0794 157.012,48.5194 157.012,35.5394 C157.012,22.5604 146.453,12.0004 133.473,12.0004" class="sapIllus_ObjectFillColor"/>
    <path fill="var(--sapIllus_BackgroundColor)" d="M139.8463,143.9212 C139.8463,146.4062 113.5123,148.4212 81.0273,148.4212 C48.5413,148.4212 22.2073,146.4062 22.2073,143.9212 C22.2073,141.4362 48.5413,139.4212 81.0273,139.4212 C113.5123,139.4212 139.8463,141.4362 139.8463,143.9212" class="sapIllus_BackgroundColor"/>
</svg>
