<svg width="320" height="240" viewBox="0 0 320 240" id="tnt-Scene-Unlock">
  <path fill="var(--sapIllus_BackgroundColor)" d="M49.4662,32.8152 L248.3342,32.8152 C272.2232,32.8152 295.9042,58.1252 295.9042,82.0972 L295.9042,85.0392 C295.9042,109.0112 275.2232,134.5112 251.3342,134.5112 C243.1472,134.9782 239.1992,139.6962 239.1992,145.7832 L239.1892,145.9572 C239.1892,152.7592 246.4192,158.4342 254.2172,158.4342 L285.3732,158.4342 C303.4962,158.4672 318.1612,173.1842 318.130252,191.3072 L318.130252,192.2072 C318.1622,210.3302 303.4962,225.0472 285.3732,225.080215 L60.3562,225.080215 C42.1152,225.0972 27.2502,210.4492 27.0002,192.2112 L27.0002,191.4752 C27.2622,176.9692 36.8772,164.2992 50.7782,160.1432 L50.7692,160.1432 L50.7942,160.1392 C52.0312,159.7672 53.2902,159.4692 54.5632,159.2472 C60.7672,157.1272 65.4612,152.0712 65.4612,146.3932 L65.4672,146.2012 C65.4672,139.4022 58.7372,134.5112 50.9382,134.5112 L49.4662,134.5112 C25.4182,134.4682 0.9572,109.9392 1.00014339,85.8912 L1.00014339,82.4352 C0.9572,58.3872 25.4182,32.8582 49.4662,32.8152" class="sapIllus_BackgroundColor"/>
  <path fill="var(--sapIllus_StrokeDetailColor)" d="M105.2988,198.2961 L50.4048,198.2961 C50.1268,198.3161 49.8838,198.1061 49.8638,197.8271 C49.8438,197.5481 50.0538,197.3061 50.3328,197.2851 C50.3578,197.2841 50.3808,197.2841 50.4048,197.2851 L105.2988,197.2851 C105.5778,197.2661 105.8198,197.4761 105.8408,197.7541 C105.8608,198.0331 105.6508,198.2751 105.3718,198.2961 C105.3478,198.2971 105.3228,198.2971 105.2988,198.2961" class="sapIllus_StrokeDetailColor"/>
  <path fill="var(--sapIllus_BrandColorSecondary)" d="M265.538,176.339 C265.538,177.439 264.647,178.33 263.547,178.33 L153.827,178.33 C152.727,178.33 151.836,177.439 151.836,176.339 L151.836,77.241 C151.836,76.142 152.727,75.25 153.827,75.25 L263.547,75.25 C264.647,75.25 265.538,76.142 265.538,77.241 L265.538,176.339 Z M272.727,62 L144.646,62 C141.184,62 138.378,64.807 138.378,68.269 L138.378,185.311 C138.378,188.773 141.184,191.58 144.646,191.58 L272.727,191.58 C276.19,191.58 278.997,188.773 278.997,185.311 L278.997,68.269 C278.997,64.807 276.19,62 272.727,62 L272.727,62 Z" class="sapIllus_BrandColorSecondary"/>
  <path fill="var(--sapIllus_StrokeDetailColor)" d="M282.8496,197.6857 C282.7916,197.4137 282.5236,197.2387 282.2506,197.2957 L259.1006,197.2957 C260.6466,196.7897 261.7716,195.3527 261.7716,193.6367 L261.7716,191.5807 L237.0956,191.5807 L237.0956,193.6367 C237.0956,195.3527 238.2196,196.7897 239.7656,197.2957 L177.8936,197.2957 C179.4396,196.7897 180.5636,195.3527 180.5636,193.6367 L180.5636,191.5807 L155.8876,191.5807 L155.8876,193.6367 C155.8876,195.3527 157.0126,196.7897 158.5586,197.2957 L111.4646,197.2957 C111.3966,197.2817 111.3256,197.2817 111.2566,197.2957 C110.9846,197.3537 110.8096,197.6217 110.8676,197.8937 C110.9246,198.1667 111.1926,198.3407 111.4646,198.2837 L282.2506,198.2837 C282.3206,198.2977 282.3906,198.2977 282.4596,198.2837 C282.7326,198.2257 282.9076,197.9577 282.8496,197.6857" class="sapIllus_StrokeDetailColor"/>
  <path fill="var(--sapIllus_PatternShadow)" d="M272.7392,191.5802 L144.3832,191.5802 C142.4422,191.5802 140.1742,190.3582 139.0242,188.0842 C138.6762,187.3942 138.9272,186.5232 139.6992,186.4622 L262.8232,176.6562 C263.4282,176.6082 263.9112,176.1302 263.9652,175.5242 L273.8692,64.2942 C273.9362,63.5282 274.3832,62.1692 275.0932,62.4622 C277.3842,63.4052 278.8952,65.5952 278.9972,67.9982 L278.9972,185.3222 C278.9972,188.7782 276.1952,191.5802 272.7392,191.5802" class="sapIllus_PatternShadow"/>
  <path fill="var(--sapIllus_ObjectFillColor)" d="M40.4912,178.3302 L150.0932,178.3302 C151.1922,178.3302 152.0842,177.4382 152.0842,176.3392 L152.0842,77.3492 C152.0842,76.2492 151.1922,75.3572 150.0932,75.3572 L40.4912,75.3572 C39.3912,75.3572 38.5002,76.2492 38.5002,77.3492 L38.5002,176.3392 C38.5002,177.4382 39.3912,178.3302 40.4912,178.3302" class="sapIllus_ObjectFillColor"/>
  <path fill="var(--sapIllus_StrokeDetailColor)" d="M151.584,176.339 C151.584,177.161 150.915,177.83 150.093,177.83 L40.491,177.83 C39.669,177.83 39,177.161 39,176.339 L39,77.349 C39,76.526 39.669,75.858 40.491,75.858 L150.093,75.858 C150.915,75.858 151.584,76.526 151.584,77.349 L151.584,93.163 C150.64,93.486 149.954,94.373 149.954,95.426 L149.954,115.993 C149.954,117.046 150.64,117.934 151.584,118.257 L151.584,136.714 C150.64,137.037 149.954,137.924 149.954,138.977 L149.954,159.544 C149.954,160.597 150.64,161.485 151.584,161.808 L151.584,176.339 Z M263.547,75.25 L153.827,75.25 C153.166,75.25 152.583,75.576 152.222,76.073 C151.785,75.349 150.999,74.858 150.093,74.858 L40.491,74.858 C39.117,74.858 38,75.975 38,77.349 L38,176.339 C38,177.713 39.117,178.83 40.491,178.83 L150.093,178.83 C151.025,178.83 151.83,178.31 152.257,177.55 C152.621,178.021 153.186,178.33 153.827,178.33 L263.547,178.33 C264.647,178.33 265.538,177.439 265.538,176.339 L265.538,77.241 C265.538,76.142 264.647,75.25 263.547,75.25 L263.547,75.25 Z" class="sapIllus_StrokeDetailColor"/>
  <path fill="var(--sapIllus_ObjectFillColor)" d="M152.3554 94.0246C151.5834 94.0246 150.9544 94.6536 150.9544 95.4256L150.9544 115.9936C150.9544 116.7666 151.5834 117.3956 152.3554 117.3956 153.1284 117.3956 153.7574 116.7666 153.7574 115.9936L153.7574 95.4256C153.7574 94.6536 153.1284 94.0246 152.3554 94.0246M152.3554 137.5753C151.5834 137.5753 150.9544 138.2043 150.9544 138.9763L150.9544 159.5443C150.9544 160.3173 151.5834 160.9463 152.3554 160.9463 153.1284 160.9463 153.7574 160.3173 153.7574 159.5443L153.7574 138.9763C153.7574 138.2043 153.1284 137.5753 152.3554 137.5753" class="sapIllus_ObjectFillColor"/>
  <path fill="var(--sapIllus_BackgroundColor)" d="M139.5029,167.881 L51.0809,167.881 C49.8449,167.881 48.8429,166.879 48.8429,165.643 L48.8429,88.399 C48.8429,87.162 49.8449,86.16 51.0809,86.16 L139.5029,86.16 C140.7389,86.16 141.7419,87.162 141.7419,88.399 L141.7419,165.643 C141.7419,166.879 140.7389,167.881 139.5029,167.881" class="sapIllus_BackgroundColor"/>
  <path fill="var(--sapIllus_PatternHighlight)" d="M263.539,178.3302 L153.827,178.3302 C152.727,178.3302 151.836,177.4372 151.836,176.3382 L166.279,160.4262 L249.434,160.4262 L265.53,176.3402 C265.53,177.4382 264.639,178.3302 263.539,178.3302" class="sapIllus_PatternHighlight"/>
  <path fill="var(--sapIllus_Layering2)" d="M106.7676,104.5207 C94.2656,103.3207 83.1576,112.4837 81.9576,124.9857 C80.7576,137.4887 89.9206,148.5957 102.4226,149.7957 C114.9256,150.9957 126.0336,141.8337 127.2336,129.3317 C128.4326,116.8287 119.2706,105.7207 106.7676,104.5207" class="sapIllus_Layering2"/>
  <path fill="var(--sapIllus_AccentColor)" d="M56.8554 110.2443C56.8554 111.7803 58.1004 113.0263 59.6374 113.0263 61.1744 113.0263 62.4194 111.7803 62.4194 110.2443 62.4194 108.7073 61.1744 107.4623 59.6374 107.4623 58.1004 107.4623 56.8554 108.7073 56.8554 110.2443M56.8554 144.0724C56.8554 145.6084 58.1004 146.8544 59.6374 146.8544 61.1744 146.8544 62.4194 145.6084 62.4194 144.0724 62.4194 142.5354 61.1744 141.2904 59.6374 141.2904 58.1004 141.2904 56.8554 142.5354 56.8554 144.0724" class="sapIllus_AccentColor"/>
  <path fill="var(--sapIllus_Layering1)" d="M49.8871 62.4001C49.5851 62.4001 49.3411 62.1641 49.3411 61.8721L49.3411 57.4701C49.3411 57.1781 49.5851 56.9431 49.8871 56.9431 50.1891 56.9431 50.4331 57.1781 50.4331 57.4701L50.4331 61.8721C50.4331 62.1641 50.1891 62.4001 49.8871 62.4001M49.8871 53.4665C49.5851 53.4665 49.3411 53.2305 49.3411 52.9385L49.3411 48.5395C49.3411 48.2465 49.5851 48.0105 49.8871 48.0105 50.1891 48.0105 50.4331 48.2465 50.4331 48.5395L50.4331 52.9385C50.4331 53.2305 50.1891 53.4665 49.8871 53.4665M47.3197 55.7048L42.9107 55.7048C42.6187 55.7048 42.3827 55.4608 42.3827 55.1588 42.3827 54.8578 42.6187 54.6138 42.9107 54.6138L47.3197 54.6138C47.6117 54.6138 47.8487 54.8578 47.8487 55.1588 47.8487 55.4608 47.6117 55.7048 47.3197 55.7048M57.0277 55.7048L52.6247 55.7048C52.3317 55.7048 52.0947 55.4608 52.0947 55.1588 52.0947 54.8578 52.3317 54.6138 52.6247 54.6138L57.0277 54.6138C57.3197 54.6138 57.5567 54.8578 57.5567 55.1588 57.5567 55.4608 57.3197 55.7048 57.0277 55.7048M294.4173 187.3679C294.1413 187.3679 293.9173 187.1509 293.9173 186.8839L293.9173 182.8519C293.9173 182.5859 294.1413 182.3689 294.4173 182.3689 294.6933 182.3689 294.9173 182.5859 294.9173 182.8519L294.9173 186.8839C294.9173 187.1509 294.6933 187.3679 294.4173 187.3679M294.4193 175.3679C294.1433 175.3679 293.9193 175.1509 293.9193 174.8839L293.9193 170.8539C293.9193 170.5869 294.1433 170.3699 294.4193 170.3699 294.6953 170.3699 294.9193 170.5869 294.9193 170.8539L294.9193 174.8839C294.9193 175.1509 294.6953 175.3679 294.4193 175.3679M290.4359 179.3679L286.3979 179.3679C286.1289 179.3679 285.9139 179.1439 285.9139 178.8679 285.9139 178.5919 286.1289 178.3679 286.3979 178.3679L290.4359 178.3679C290.7039 178.3679 290.9199 178.5919 290.9199 178.8679 290.9199 179.1439 290.7039 179.3679 290.4359 179.3679M302.433 179.3679L298.399 179.3679C298.131 179.3679 297.914 179.1439 297.914 178.8679 297.914 178.5919 298.131 178.3679 298.399 178.3679L302.433 178.3679C302.701 178.3679 302.917 178.5919 302.917 178.8679 302.917 179.1439 302.701 179.3679 302.433 179.3679M269.5755 9.0095C269.2955 8.9715 269.0215 9.0445 268.8015 9.2135 268.5765 9.3825 268.4325 9.6285 268.3945 9.9055L266.5735 23.1795C266.5615 23.2435 266.5575 23.3125 266.5615 23.3805 266.5835 23.8865 266.9645 24.3045 267.4695 24.3735 267.5305 24.3815 267.5935 24.3845 267.6535 24.3815 268.1505 24.3605 268.5785 23.9855 268.6485 23.4765L270.4715 10.1975C270.5125 9.9235 270.4425 9.6485 270.2735 9.4225 270.1035 9.1955 269.8555 9.0485 269.5755 9.0095M295.3548 17.1267C294.9228 16.7417 294.2578 16.7817 293.8738 17.2147L284.9718 27.2467C284.7728 27.4747 284.6808 27.7757 284.7188 28.0747 284.7508 28.3267 284.8738 28.5587 285.0628 28.7277 285.2978 28.9357 285.6028 29.0197 285.8928 28.9817 286.1348 28.9507 286.3688 28.8357 286.5438 28.6387L295.4458 18.6057C295.8278 18.1707 295.7858 17.5077 295.3548 17.1267M308.2162 38.695C308.1222 38.43 307.9302 38.219 307.6752 38.1 307.4222 37.981 307.1382 37.966 306.8752 38.062L294.2552 42.594C293.8202 42.75 293.5412 43.166 293.5622 43.628 293.5662 43.731 293.5862 43.835 293.6212 43.937 293.7812 44.38 294.2102 44.649 294.6552 44.63 294.7592 44.626 294.8622 44.605 294.9642 44.569L307.5842 40.037C308.1332 39.839 308.4112 39.251 308.2162 38.695" class="sapIllus_Layering1"/>
</svg>