<svg width="128" height="128" viewBox="0 0 128 128" fill="none" xmlns="http://www.w3.org/2000/svg" id="tnt-Spot-ChartFlow">
<path d="M64 128C99.3462 128 128 99.3462 128 64C128 28.6538 99.3462 0 64 0C28.6538 0 0 28.6538 0 64C0 99.3462 28.6538 128 64 128Z" style="fill:var(--sapContent_Illustrative_Color7)"/>
<path fill-rule="evenodd" clip-rule="evenodd" d="M83.8688 124.856C107.875 117.023 125.641 95.3808 127.783 69.3114L98.4351 55.6084C96.7922 54.8413 94.8357 55.5528 94.065 57.1975L67.6179 113.639C66.8472 115.283 67.5542 117.239 69.1971 118.006L83.8688 124.856Z" style="fill:var(--sapContent_Illustrative_Color18)"/>
<path fill-rule="evenodd" clip-rule="evenodd" d="M119.501 86.6797C119.991 87.2845 119.898 88.1722 119.293 88.6623L103.491 101.468C103.118 101.77 102.617 101.862 102.161 101.711C101.706 101.561 101.358 101.189 101.238 100.724L99.0754 92.3091L85.9384 102.308C85.3189 102.78 84.4345 102.66 83.963 102.04C83.4915 101.421 83.6115 100.536 84.231 100.065L99.0581 88.7793C99.434 88.4932 99.9282 88.4144 100.374 88.5694C100.821 88.7244 101.159 89.0926 101.277 89.55L103.422 97.8952L117.518 86.472C118.123 85.9819 119.01 86.0749 119.501 86.6797Z" style="fill:var(--sapContent_Illustrative_Color19)"/>
<path d="M96.4304 69.8646C96.5955 69.5121 97.015 69.3601 97.3676 69.5252L99.2985 70.4292C99.651 70.5942 99.803 71.0138 99.638 71.3663L85.3258 101.937C85.1608 102.289 84.7412 102.441 84.3887 102.276L82.4577 101.372C82.1052 101.207 81.9532 100.788 82.1183 100.435L96.4304 69.8646Z" style="fill:var(--sapContent_Illustrative_Color7)"/>
<path fill-rule="evenodd" clip-rule="evenodd" d="M107.999 110.477L83.5349 99.1606C83.1816 98.9972 82.7627 99.1511 82.5993 99.5044L81.7042 101.44C81.5408 101.793 81.6947 102.212 82.048 102.375L105.118 113.046C106.104 112.218 107.065 111.361 107.999 110.477Z" style="fill:var(--sapContent_Illustrative_Color7)"/>
<path d="M79.0663 108.619C79.3874 107.909 80.2256 107.588 80.9348 107.909L95.7893 114.635C96.4985 114.956 96.8102 115.797 96.4891 116.507C96.1681 117.216 95.3299 117.537 94.6207 117.216L79.7662 110.491C79.057 110.17 78.7453 109.328 79.0663 108.619Z" style="fill:var(--sapContent_Illustrative_Color7)"/>
<path fill-rule="evenodd" clip-rule="evenodd" d="M24.6627 114.487H86.3122C89.6585 114.487 92.3712 111.774 92.3712 108.428V44.2815L75.6925 30.4536H12.3093C11.01 30.4536 9.80617 30.8626 8.8196 31.5589C7.89778 33.1235 7.0406 34.7307 6.25174 36.3769C6.25074 36.422 6.25024 36.4673 6.25024 36.5127V91.62C10.5533 100.601 16.8895 108.422 24.6627 114.487Z" style="fill:var(--sapContent_Illustrative_Color6)"/>
<path fill-rule="evenodd" clip-rule="evenodd" d="M21.0597 111.457H84.4944C87.1715 111.457 89.3417 109.287 89.3417 106.61V41.9511L71.9963 27.4238H11.4748C7.9766 32.438 5.17807 37.9765 3.2207 43.8978V84.1022C6.73222 94.725 12.9509 104.116 21.0597 111.457Z" style="fill:var(--sapContent_Illustrative_Color8)"/>
<path d="M71.9028 41.8191L89.3418 45.3359V41.8191H71.9028Z" style="fill:var(--sapContent_Illustrative_Color5)"/>
<path d="M71.9028 41.8194H89.3418L71.9028 27.4238V41.8194Z" style="fill:var(--sapContent_Illustrative_Color6)"/>
<path d="M97.8751 22.8469C97.8751 21.9485 95.2671 21.2293 91.7825 21.066C91.5832 17.5858 90.8162 14.998 89.9176 15C89.0191 15.002 88.272 17.6097 88.0807 21.1078C84.5861 21.3469 81.9881 22.1278 82 23.0282C82.012 23.9286 84.608 24.6478 88.0927 24.8091C88.3019 28.2894 89.0589 30.8771 89.9555 30.8751C90.8521 30.8731 91.6032 28.2655 91.7944 24.7673C95.289 24.5283 97.885 23.7474 97.8751 22.8469Z" style="fill:var(--sapContent_Illustrative_Color3)"/>
<path d="M114.231 40.0569C114.231 39.4779 112.55 39.0145 110.304 38.9092C110.176 36.6664 109.682 34.9987 109.102 35C108.523 35.0013 108.042 36.6818 107.919 38.9361C105.667 39.0902 103.992 39.5934 104 40.1737C104.008 40.754 105.681 41.2175 107.926 41.3214C108.061 43.5642 108.549 45.2319 109.127 45.2306C109.705 45.2293 110.189 43.5488 110.312 41.2945C112.564 41.1404 114.237 40.6372 114.231 40.0569Z" style="fill:var(--sapContent_Illustrative_Color3)"/>
<rect x="13" y="51.8271" width="65.6545" height="50.6581" rx="3.53116" style="fill:var(--sapContent_Illustrative_Color7)"/>
<path fill-rule="evenodd" clip-rule="evenodd" d="M46.1553 91.0286V78.6526H47.9209V91.0286C47.9209 91.1911 48.0526 91.3229 48.2151 91.3229H60.0119V93.0884H48.2151C47.0775 93.0884 46.1553 92.1662 46.1553 91.0286Z" style="fill:var(--sapContent_Illustrative_Color20)"/>
<path fill-rule="evenodd" clip-rule="evenodd" d="M25.6009 75.1537L25.6009 64.1956L27.3665 64.1956L27.3665 75.1537L25.6009 75.1537Z" style="fill:var(--sapContent_Illustrative_Color20)"/>
<path fill-rule="evenodd" clip-rule="evenodd" d="M27.3664 76.6031H67.0867V78.3687H27.3664V76.6031Z" style="fill:var(--sapContent_Illustrative_Color20)"/>
<rect x="18.6445" y="58.7671" width="19.0623" height="7.49347" rx="1.17716" style="fill:var(--sapContent_Illustrative_Color13)"/>
<rect x="19.4182" y="73.3818" width="13.9861" height="7.27148" rx="1.17716" style="fill:var(--sapContent_Illustrative_Color2)"/>
<rect x="59.8384" y="73.3818" width="13.1715" height="7.27148" rx="1.17716" style="fill:var(--sapContent_Illustrative_Color2)"/>
<rect x="53.9617" y="88.2739" width="18.9619" height="7.27148" rx="1.17716" style="fill:var(--sapContent_Illustrative_Color3)"/>
<rect x="46.7764" y="70.6438" width="9.32935" height="9.32935" rx="1.17716" transform="rotate(45 46.7764 70.6438)" style="fill:var(--sapContent_Illustrative_Color14)"/>
<path d="M25.8613 37H14.5471C13.7845 37 13.1663 37.6182 13.1663 38.3809C13.1663 39.1435 13.7845 39.7617 14.5471 39.7617H25.8613C26.6239 39.7617 27.2422 39.1435 27.2422 38.3809C27.2422 37.6182 26.6239 37 25.8613 37Z" style="fill:var(--sapContent_Illustrative_Color14)"/>
<path d="M37.0946 42.3645H14.3365C13.6902 42.3645 13.1663 42.8885 13.1663 43.5348C13.1663 44.1811 13.6902 44.7051 14.3365 44.7051H37.0946C37.7409 44.7051 38.2649 44.1811 38.2649 43.5348C38.2649 42.8885 37.7409 42.3645 37.0946 42.3645Z" style="fill:var(--sapContent_Illustrative_Color13)"/>
</svg>
