<svg width="160" height="160" viewBox="0 0 160 160" fill="none" xmlns="http://www.w3.org/2000/svg" id="tnt-Dialog-ChartFlow">
<path d="M79.3943 161.789C123.243 161.789 158.789 126.243 158.789 82.3943C158.789 38.546 123.243 3 79.3943 3C35.546 3 0 38.546 0 82.3943C0 126.243 35.546 161.789 79.3943 161.789Z" style="fill:var(--sapContent_Illustrative_Color7)"/>
<path d="M105.777 19.0182L56.1169 9.07575C54.0115 8.65422 51.9647 10.0228 51.5453 12.1325L37.1527 84.5321C36.7333 86.6419 38.1001 88.6939 40.2055 89.1154L89.8657 99.0578C91.9711 99.4793 94.0179 98.1108 94.4373 96.001L108.83 23.6014C109.249 21.4917 107.883 19.4397 105.777 19.0182Z" style="fill:var(--sapContent_Illustrative_Color18)"/>
<path d="M77.4613 24.0189C75.8098 23.6019 74.0724 23.6847 72.4685 24.2572C70.8647 24.8296 69.4665 25.8659 68.4508 27.2349C67.4351 28.604 66.8474 30.2443 66.7621 31.9486C66.6767 33.6529 67.0976 35.3446 67.9714 36.8098C68.8452 38.2749 70.1328 39.4478 71.6713 40.1801C73.2098 40.9124 74.9302 41.1712 76.6148 40.9239C78.2995 40.6765 79.8729 39.934 81.1361 38.7903C82.3992 37.6466 83.2954 36.1531 83.7113 34.4986L75.3563 32.3915L77.4613 24.0189Z" style="fill:var(--sapContent_Illustrative_Color7)"/>
<path d="M79.841 22.5057L77.7424 30.8701L86.0901 32.9781C86.3663 31.8796 86.4237 30.7373 86.2591 29.6164C86.0944 28.4954 85.711 27.4179 85.1306 26.4453C84.5503 25.4727 83.7844 24.6242 82.8767 23.9482C81.9691 23.2722 80.9375 22.782 79.841 22.5057Z" style="fill:var(--sapContent_Illustrative_Color19)"/>
<path d="M90.2204 50.0298L55.6151 43.1015C54.4671 42.8716 53.351 43.6179 53.1223 44.7683C52.8936 45.9187 53.6389 47.0376 54.787 47.2675L89.3923 54.1957C90.5403 54.4256 91.6564 53.6793 91.8851 52.5289C92.1138 51.3785 91.3685 50.2596 90.2204 50.0298Z" style="fill:var(--sapContent_Illustrative_Color7)"/>
<path d="M88.2617 57.1497L53.6564 50.2214C52.5083 49.9915 51.3922 50.7378 51.1636 51.8882C50.9349 53.0386 51.6802 54.1575 52.8282 54.3873L87.4335 61.3156C88.5816 61.5455 89.6977 60.7992 89.9264 59.6488C90.1551 58.4984 89.4097 57.3795 88.2617 57.1497Z" style="fill:var(--sapContent_Illustrative_Color7)"/>
<path d="M70.2658 60.8923L51.8302 57.2013C50.6821 56.9715 49.5661 57.7177 49.3374 58.8681C49.1087 60.0185 49.854 61.1374 51.0021 61.3672L69.4376 65.0582C70.5857 65.288 71.7018 64.5419 71.9305 63.3915C72.1591 62.2411 71.4138 61.1221 70.2658 60.8923Z" style="fill:var(--sapContent_Illustrative_Color7)"/>
<path fill-rule="evenodd" clip-rule="evenodd" d="M108.268 156.375C135.132 145.883 154.88 121.181 158.271 91.5091L126.578 71.1208C124.772 69.9591 122.363 70.4826 121.197 72.29L81.1759 134.316C80.0097 136.123 80.5282 138.53 82.334 139.692L108.268 156.375Z" style="fill:var(--sapContent_Illustrative_Color18)"/>
<path fill-rule="evenodd" clip-rule="evenodd" d="M146.353 110.937C146.832 111.724 146.582 112.751 145.794 113.23L125.211 125.743C124.726 126.038 124.123 126.066 123.612 125.817C123.101 125.567 122.752 125.075 122.686 124.511L121.488 114.291L104.479 123.934C103.677 124.389 102.658 124.108 102.204 123.306C101.749 122.504 102.031 121.485 102.833 121.03L122.029 110.146C122.516 109.871 123.108 109.857 123.607 110.11C124.106 110.363 124.445 110.849 124.511 111.404L125.699 121.539L144.06 110.377C144.847 109.898 145.874 110.149 146.353 110.937Z" style="fill:var(--sapContent_Illustrative_Color19)"/>
<path d="M121.956 87.5316C122.206 87.1442 122.723 87.0326 123.11 87.2824L125.232 88.6506C125.62 88.9004 125.731 89.417 125.481 89.8045L103.819 123.402C103.569 123.789 103.053 123.901 102.665 123.651L100.543 122.283C100.156 122.033 100.044 121.516 100.294 121.129L121.956 87.5316Z" style="fill:var(--sapContent_Illustrative_Color7)"/>
<path fill-rule="evenodd" clip-rule="evenodd" d="M133.904 140.119L102.159 119.859C101.771 119.611 101.255 119.725 101.007 120.113L99.6482 122.242C99.4002 122.63 99.5141 123.146 99.9027 123.394L130.657 143.023C131.766 142.084 132.848 141.116 133.904 140.119Z" style="fill:var(--sapContent_Illustrative_Color7)"/>
<path d="M95.4102 130.246C95.8998 129.465 96.9345 129.221 97.7157 129.711L114.077 139.968C114.859 140.458 115.09 141.495 114.601 142.276C114.111 143.057 113.076 143.301 112.295 142.811L95.9334 132.554C95.1523 132.064 94.9205 131.027 95.4102 130.246Z" style="fill:var(--sapContent_Illustrative_Color7)"/>
<path d="M126.007 35.1744C126.007 33.9855 122.556 33.0339 117.945 32.8177C117.681 28.2126 116.666 24.7884 115.477 24.791C114.288 24.7937 113.299 28.2442 113.046 32.8731C108.422 33.1894 104.984 34.2227 105 35.4142C105.016 36.6057 108.451 37.5573 113.062 37.7709C113.339 42.376 114.341 45.8002 115.527 45.7976C116.713 45.7949 117.707 42.3444 117.96 37.7155C122.585 37.3992 126.02 36.3659 126.007 35.1744Z" style="fill:var(--sapContent_Illustrative_Color3)"/>
<path d="M143.011 56.6881C143.011 55.9219 140.787 55.3087 137.815 55.1694C137.646 52.2016 136.991 49.9949 136.225 49.9966C135.459 49.9983 134.822 52.222 134.659 55.205C131.679 55.4089 129.463 56.0748 129.473 56.8427C129.484 57.6105 131.697 58.2238 134.669 58.3614C134.847 61.3291 135.493 63.5358 136.257 63.5341C137.022 63.5324 137.663 61.3087 137.826 58.3257C140.806 58.1218 143.019 57.4559 143.011 56.6881Z" style="fill:var(--sapContent_Illustrative_Color3)"/>
<path d="M7.45996 56.7103C7.45996 52.8137 10.6188 49.6548 14.5155 49.6548H88.3227L107.744 65.7568V140.453C107.744 144.349 104.586 147.508 100.689 147.508H14.5155C10.6188 147.508 7.45996 144.349 7.45996 140.453V56.7103Z" style="fill:var(--sapContent_Illustrative_Color6)"/>
<path d="M3.93213 51.7714C3.93213 48.6541 6.45923 46.127 9.57656 46.127H84.0185L104.217 63.0434V138.336C104.217 141.453 101.689 143.981 98.5721 143.981H9.57656C6.45923 143.981 3.93213 141.453 3.93213 138.336V51.7714Z" style="fill:var(--sapContent_Illustrative_Color8)"/>
<path d="M83.9097 62.8896L104.217 66.9848V62.8896H83.9097Z" style="fill:var(--sapContent_Illustrative_Color5)"/>
<path d="M83.9097 62.89H104.217L83.9097 46.127V62.89Z" style="fill:var(--sapContent_Illustrative_Color6)"/>
<rect x="15.9902" y="74.269" width="76.1684" height="58.7705" rx="4.09664" style="fill:var(--sapContent_Illustrative_Color7)"/>
<path fill-rule="evenodd" clip-rule="evenodd" d="M54.4548 119.748V105.39H56.5032V119.748C56.5032 119.937 56.656 120.089 56.8445 120.089H70.5305V122.138H56.8445C55.5247 122.138 54.4548 121.068 54.4548 119.748Z" style="fill:var(--sapContent_Illustrative_Color20)"/>
<path fill-rule="evenodd" clip-rule="evenodd" d="M30.6089 101.331L30.6089 88.6179L32.6572 88.6179L32.6572 101.331L30.6089 101.331Z" style="fill:var(--sapContent_Illustrative_Color20)"/>
<path fill-rule="evenodd" clip-rule="evenodd" d="M32.6572 103.012H78.7383V105.061H32.6572V103.012Z" style="fill:var(--sapContent_Illustrative_Color20)"/>
<rect x="22.5388" y="82.3203" width="22.115" height="8.69347" rx="1.36567" style="fill:var(--sapContent_Illustrative_Color13)"/>
<rect x="23.4363" y="99.2754" width="16.2258" height="8.43594" rx="1.36567" style="fill:var(--sapContent_Illustrative_Color2)"/>
<rect x="70.3293" y="99.2754" width="15.2807" height="8.43594" rx="1.36567" style="fill:var(--sapContent_Illustrative_Color2)"/>
<rect x="63.5117" y="116.552" width="21.9985" height="8.43594" rx="1.36567" style="fill:var(--sapContent_Illustrative_Color3)"/>
<rect x="55.1758" y="96.0989" width="10.8233" height="10.8233" rx="1.36567" transform="rotate(45 55.1758 96.0989)" style="fill:var(--sapContent_Illustrative_Color14)"/>
<path d="M30.9111 57.0674H17.7851C16.9003 57.0674 16.1831 57.7846 16.1831 58.6694C16.1831 59.5541 16.9003 60.2714 17.7851 60.2714H30.9111C31.7959 60.2714 32.5131 59.5541 32.5131 58.6694C32.5131 57.7846 31.7959 57.0674 30.9111 57.0674Z" style="fill:var(--sapContent_Illustrative_Color14)"/>
<path d="M43.9434 63.291H17.5408C16.791 63.291 16.1831 63.8989 16.1831 64.6487C16.1831 65.3985 16.791 66.0064 17.5408 66.0064H43.9434C44.6932 66.0064 45.301 65.3985 45.301 64.6487C45.301 63.8989 44.6932 63.291 43.9434 63.291Z" style="fill:var(--sapContent_Illustrative_Color13)"/>
</svg>
