<svg width="45" height="45" viewBox="0 0 45 45" fill="none" xmlns="http://www.w3.org/2000/svg" id="tnt-Dot-ChartArea">
<path fill-rule="evenodd" clip-rule="evenodd" d="M42.582 6.63086C42.582 6.907 42.3582 7.13086 42.082 7.13086L2.8845 7.13086C2.60836 7.13086 2.3845 6.907 2.3845 6.63086C2.3845 6.35471 2.60836 6.13086 2.8845 6.13086L42.082 6.13086C42.3582 6.13086 42.582 6.35472 42.582 6.63086Z" style="fill:var(--sapContent_Illustrative_Color5)"/>
<path fill-rule="evenodd" clip-rule="evenodd" d="M42.582 22.53C42.582 22.8062 42.3582 23.03 42.082 23.03L2.8845 23.03C2.60836 23.03 2.3845 22.8062 2.3845 22.53C2.3845 22.2539 2.60836 22.03 2.8845 22.03L42.082 22.03C42.3582 22.03 42.582 22.2539 42.582 22.53Z" style="fill:var(--sapContent_Illustrative_Color5)"/>
<path fill-rule="evenodd" clip-rule="evenodd" d="M42.582 38.4292C42.582 38.7053 42.3582 38.9292 42.082 38.9292L2.8845 38.9292C2.60836 38.9292 2.3845 38.7053 2.3845 38.4292C2.3845 38.1531 2.60836 37.9292 2.8845 37.9292L42.082 37.9292C42.3582 37.9292 42.582 38.1531 42.582 38.4292Z" style="fill:var(--sapContent_Illustrative_Color5)"/>
<path fill-rule="evenodd" clip-rule="evenodd" d="M43.8674 3.47801C44.2326 3.89236 44.1927 4.52427 43.7784 4.88942L35.0544 12.5775C34.6496 12.9342 34.1703 13.196 33.6513 13.3438L16.7095 18.167C16.5013 18.2263 16.307 18.3267 16.1381 18.4622L2.17198 29.6749C1.74132 30.0206 1.1119 29.9518 0.766148 29.5211C0.420392 29.0905 0.489224 28.461 0.919888 28.1153L14.886 16.9026C15.2631 16.6 15.6969 16.3758 16.1619 16.2434L33.1037 11.4202C33.3361 11.354 33.5508 11.2368 33.7321 11.077L42.456 3.38893C42.8704 3.02378 43.5023 3.06366 43.8674 3.47801Z" style="fill:var(--sapContent_Illustrative_Color3)"/>
<path fill-rule="evenodd" clip-rule="evenodd" d="M44.2673 10.7376C44.7319 11.0363 44.8663 11.655 44.5676 12.1196L34.4133 27.9117C33.7467 28.9483 32.5989 29.5749 31.3666 29.5749H16.0776C15.7097 29.5749 15.3526 29.7 15.0651 29.9297L2.93717 39.618C2.50567 39.9628 1.87642 39.8924 1.53172 39.4609C1.18701 39.0294 1.25738 38.4001 1.68888 38.0554L13.8169 28.367C14.4588 27.8542 15.256 27.5749 16.0776 27.5749H31.3666C31.9185 27.5749 32.4325 27.2943 32.731 26.8301L42.8854 11.0379C43.1841 10.5734 43.8028 10.4389 44.2673 10.7376Z" style="fill:var(--sapContent_Illustrative_Color14)"/>
</svg>
