<svg width="46" height="46" viewBox="0 0 46 46" fill="none" xmlns="http://www.w3.org/2000/svg" id="tnt-Dot-UnsuccessfulAuth">
<rect width="36.8472" height="26.6814" rx="2.8549" transform="matrix(1 0 0.156434 0.987688 -0.160156 10.3)" style="fill:var(--sapContent_Illustrative_Color5)"/>
<path d="M2.27061 11.5742C2.06506 10.2764 2.96359 9.22437 4.27752 9.22437L34.6819 9.22437C35.9959 9.22437 37.2276 10.2764 37.4332 11.5742L40.6833 32.0945C40.8888 33.3923 39.9903 34.4443 38.6764 34.4443H8.27197C6.95804 34.4443 5.72626 33.3923 5.52071 32.0945L2.27061 11.5742Z" style="fill:var(--sapContent_Illustrative_Color8)"/>
<path fill-rule="evenodd" clip-rule="evenodd" d="M4.12127 8.23657L34.5257 8.23657C36.3919 8.23657 38.1414 9.73081 38.4334 11.5741L41.6835 32.0944C41.9754 33.9377 40.6992 35.4319 38.833 35.4319H8.42859C6.56237 35.4319 4.81284 33.9377 4.5209 32.0944L1.27079 11.5741C0.978852 9.73082 2.25505 8.23657 4.12127 8.23657ZM4.27771 9.22426C2.96377 9.22426 2.06525 10.2763 2.27079 11.5741L5.5209 32.0944C5.72644 33.3922 6.95822 34.4442 8.27215 34.4442H38.6766C39.9905 34.4442 40.889 33.3922 40.6835 32.0944L37.4334 11.5741C37.2278 10.2763 35.996 9.22426 34.6821 9.22426L4.27771 9.22426Z" style="fill:var(--sapContent_Illustrative_Color4)"/>
<path d="M2.27061 11.5742C2.06506 10.2764 2.96359 9.22437 4.27752 9.22437L34.6819 9.22437C35.9959 9.22437 37.2276 10.2764 37.4332 11.5742L37.7762 13.7401L2.61366 13.7401L2.27061 11.5742Z" style="fill:var(--sapContent_Illustrative_Color2)"/>
<rect width="21.2412" height="3.47422" rx="0.903432" transform="matrix(1 0 0.156434 0.987688 11.0215 22.8792)" style="fill:var(--sapContent_Illustrative_Color20)"/>
<rect width="21.2412" height="3.47422" rx="0.903432" transform="matrix(1 0 0.156434 0.987688 11.8184 27.9077)" style="fill:var(--sapContent_Illustrative_Color20)"/>
<circle cx="2.8841" cy="2.8841" r="2.8841" transform="matrix(1 0 0.156434 0.987688 17.3926 15.5916)" style="fill:var(--sapContent_Illustrative_Color18)"/>
<rect x="32.9512" y="32.573" width="8.61286" height="8.84553" style="fill:var(--sapContent_Illustrative_Color8)"/>
<path d="M37.0605 28.593C35.4663 28.593 33.9079 29.0657 32.5823 29.9513C31.2568 30.8369 30.2236 32.0957 29.6136 33.5684C29.0035 35.0411 28.8439 36.6617 29.1549 38.2251C29.4659 39.7885 30.2336 41.2246 31.3609 42.3518C32.4881 43.479 33.9244 44.2466 35.488 44.5576C37.0515 44.8685 38.6722 44.7089 40.1451 44.0989C41.6179 43.4889 42.8768 42.4559 43.7625 41.1305C44.6482 39.805 45.1209 38.2468 45.1209 36.6527C45.1146 34.5171 44.2634 32.4707 42.7531 30.9606C41.2428 29.4505 39.1963 28.5993 37.0605 28.593ZM40.0428 38.5065C40.1173 38.5809 40.1763 38.6692 40.2166 38.7665C40.2569 38.8637 40.2776 38.9679 40.2776 39.0732C40.2776 39.1784 40.2569 39.2826 40.2166 39.3798C40.1763 39.4771 40.1173 39.5654 40.0428 39.6398C39.9684 39.7143 39.8801 39.7733 39.7828 39.8136C39.6856 39.8539 39.5813 39.8746 39.4761 39.8746C39.3708 39.8746 39.2666 39.8539 39.1694 39.8136C39.0721 39.7733 38.9838 39.7143 38.9093 39.6398L37.0554 37.7861L35.2066 39.6348C35.1321 39.7092 35.0438 39.7683 34.9465 39.8085C34.8493 39.8488 34.7451 39.8695 34.6398 39.8695C34.5346 39.8695 34.4303 39.8488 34.3331 39.8085C34.2358 39.7683 34.1475 39.7092 34.0731 39.6348C33.9986 39.5604 33.9396 39.472 33.8993 39.3748C33.859 39.2776 33.8383 39.1734 33.8383 39.0681C33.8383 38.9629 33.859 38.8587 33.8993 38.7614C33.9396 38.6642 33.9986 38.5758 34.0731 38.5014L35.927 36.6477L34.0781 34.799C33.9278 34.6487 33.8433 34.4448 33.8433 34.2323C33.8433 34.0197 33.9278 33.8159 34.0781 33.6656C34.2284 33.5153 34.4323 33.4309 34.6448 33.4309C34.8574 33.4309 35.0613 33.5153 35.2116 33.6656L37.0655 35.5193L38.9194 33.6656C39.0697 33.5153 39.2736 33.4309 39.4862 33.4309C39.6987 33.4309 39.9026 33.5153 40.0529 33.6656C40.2032 33.8159 40.2877 34.0197 40.2877 34.2323C40.2877 34.4448 40.2032 34.6487 40.0529 34.799L38.1864 36.6527L40.0428 38.5065Z" style="fill:var(--sapContent_Illustrative_Color11)"/>
</svg>
