<svg width="161" height="161" viewBox="0 0 161 161" fill="none" xmlns="http://www.w3.org/2000/svg" id="tnt-Dialog-NoApplications">
<circle cx="79.7069" cy="81.0001" r="76.9412" style="fill:var(--sapContent_Illustrative_Color7)"/>
<path d="M46.4854 2.24782L44.8857 18.9332L55.5299 16.36L46.4854 2.24782Z" style="fill:var(--sapContent_Illustrative_Color18)"/>
<path fill-rule="evenodd" clip-rule="evenodd" d="M67.6974 66.779L57.0898 69.3433L44.9098 18.9574L44.9104 18.9572C44.6908 18.0462 46.8866 16.7339 49.8155 16.0259C52.7447 15.3178 55.2978 15.4823 55.518 16.3933C55.5199 16.4011 55.5216 16.409 55.5231 16.4168L67.6974 66.779Z" style="fill:var(--sapContent_Illustrative_Color19)"/>
<path fill-rule="evenodd" clip-rule="evenodd" d="M50.7318 15.8297L63.3047 67.8406L67.6977 66.7786L55.5232 16.4153C55.5217 16.4078 55.5201 16.4004 55.5183 16.393C55.3214 15.5785 53.2598 15.3606 50.7318 15.8297Z" style="fill:var(--sapContent_Illustrative_Color20)"/>
<path fill-rule="evenodd" clip-rule="evenodd" d="M68.4708 69.9843L57.8633 72.5486L57.0884 69.3431L57.0892 69.3429C56.8697 68.4319 59.0656 67.1196 61.9943 66.4116C64.9235 65.7035 67.4767 65.868 67.6969 66.779C67.6992 66.7888 67.7013 66.7986 67.7031 66.8084L68.4708 69.9843Z" style="fill:var(--sapContent_Illustrative_Color18)"/>
<path fill-rule="evenodd" clip-rule="evenodd" d="M70.0685 76.5837L59.4609 79.1479L57.8659 72.5495L57.8662 72.5495C57.8662 72.5494 57.8662 72.5493 57.8662 72.5492C57.6459 71.6381 59.842 70.3255 62.7712 69.6174C65.7004 68.9093 68.2535 69.0738 68.4737 69.9849C68.4753 69.9914 68.4768 69.998 68.4781 70.0046L70.0685 76.5837Z" style="fill:var(--sapContent_Illustrative_Color19)"/>
<ellipse cx="5.45655" cy="1.69711" rx="5.45655" ry="1.69711" transform="matrix(0.972002 -0.234972 -0.234967 -0.972003 59.8594 80.7966)" style="fill:var(--sapContent_Illustrative_Color20)"/>
<path fill-rule="evenodd" clip-rule="evenodd" d="M45.7617 9.79102C46.4563 9.5018 47.2587 9.23944 48.1252 9.02997C48.991 8.82067 49.8239 8.68761 50.5735 8.62753L46.4849 2.24806L45.7617 9.79102Z" style="fill:var(--sapContent_Illustrative_Color20)"/>
<path fill-rule="evenodd" clip-rule="evenodd" d="M3.41431 23.1401C3.28473 22.2772 4.30089 21.7209 4.95806 22.2949L76.7424 84.9992C77.344 85.5247 77.0548 86.5136 76.2649 86.6323L15.2718 95.7913C14.7598 95.8682 14.2825 95.5154 14.2056 95.0034L3.41431 23.1401ZM22.5081 54.3492C21.851 53.7751 20.8348 54.3315 20.9644 55.1944L24.791 80.6772C24.8679 81.1892 25.3452 81.5419 25.8572 81.465L47.4854 78.2172C48.2753 78.0986 48.5645 77.1097 47.9629 76.5842L22.5081 54.3492Z" style="fill:var(--sapContent_Illustrative_Color20)"/>
<path d="M76.6501 86.4805L78.4102 85.1796L75.8998 83.2925L76.6501 86.4805Z" style="fill:var(--sapContent_Illustrative_Color20)"/>
<path d="M3.738 22.2842L5.49813 20.9833L6.56551 23.937L3.738 22.2842Z" style="fill:var(--sapContent_Illustrative_Color20)"/>
<path fill-rule="evenodd" clip-rule="evenodd" d="M5.10181 21.8997C4.97223 21.0368 5.98839 20.4804 6.64556 21.0544L78.4299 83.7587C79.0315 84.2842 78.7423 85.2732 77.9524 85.3918L16.9593 94.5508C16.4473 94.6277 15.97 94.275 15.8931 93.763L5.10181 21.8997ZM24.1956 53.1087C23.5385 52.5346 22.5223 53.091 22.6519 53.9539L26.4785 79.4367C26.5554 79.9487 27.0327 80.3014 27.5447 80.2246L49.1729 76.9768C49.9628 76.8581 50.252 75.8692 49.6504 75.3437L24.1956 53.1087Z" style="fill:var(--sapContent_Illustrative_Color19)"/>
<path fill-rule="evenodd" clip-rule="evenodd" d="M7.84668 37.8654C7.87352 37.8676 7.90128 37.867 7.92939 37.8621L11.8525 37.2512C12.0462 37.2206 12.1786 37.04 12.148 36.8463C12.1187 36.6528 11.9396 36.5191 11.7438 36.551L7.82058 37.1626C7.62699 37.1925 7.49448 37.3738 7.52521 37.5667C7.55033 37.7322 7.68638 37.8526 7.84668 37.8654Z" style="fill:var(--sapContent_Illustrative_Color8)"/>
<path fill-rule="evenodd" clip-rule="evenodd" d="M8.44819 41.8654C8.47502 41.8675 8.50279 41.8669 8.5309 41.8621L12.454 41.2512C12.6477 41.2205 12.7801 41.0399 12.7495 40.8463C12.7202 40.6528 12.542 40.517 12.3453 40.5509L8.42209 41.1625C8.2285 41.1925 8.09599 41.3738 8.12672 41.5667C8.15183 41.7322 8.28788 41.8525 8.44819 41.8654Z" style="fill:var(--sapContent_Illustrative_Color8)"/>
<path fill-rule="evenodd" clip-rule="evenodd" d="M9.1492 46.533C9.17604 46.5351 9.20381 46.5345 9.23191 46.5297L16.1045 45.4587C16.2981 45.4287 16.4306 45.2475 16.3999 45.0545C16.3706 44.861 16.1916 44.7265 15.9957 44.7584L9.1231 45.8301C8.92951 45.8601 8.797 46.0414 8.82773 46.2343C8.85285 46.3998 8.9889 46.5201 9.1492 46.533Z" style="fill:var(--sapContent_Illustrative_Color8)"/>
<path fill-rule="evenodd" clip-rule="evenodd" d="M9.84667 51.1845C9.8735 51.1866 9.90127 51.186 9.92938 51.1811L13.8525 50.5703C14.0462 50.5396 14.1786 50.359 14.1479 50.1654C14.1186 49.9726 13.9397 49.8374 13.7438 49.87L9.82057 50.4816C9.62698 50.5116 9.49447 50.6928 9.5252 50.8858C9.55031 51.0513 9.68636 51.1716 9.84667 51.1845Z" style="fill:var(--sapContent_Illustrative_Color8)"/>
<path fill-rule="evenodd" clip-rule="evenodd" d="M10.4482 55.1837C10.4751 55.1859 10.5028 55.1853 10.5309 55.1804L14.4541 54.5695C14.6477 54.5389 14.7802 54.3583 14.7495 54.1646C14.7202 53.9718 14.5413 53.8367 14.3453 53.8693L10.4221 54.4809C10.2285 54.5108 10.096 54.6921 10.1268 54.885C10.1519 55.0505 10.2879 55.1709 10.4482 55.1837Z" style="fill:var(--sapContent_Illustrative_Color8)"/>
<path fill-rule="evenodd" clip-rule="evenodd" d="M11.0498 59.1837C11.0766 59.1859 11.1044 59.1853 11.1325 59.1804L15.0557 58.5688C15.2493 58.5381 15.3818 58.3576 15.3511 58.1639C15.3218 57.9711 15.1435 57.8367 14.9469 57.8686L11.0237 58.4809C10.8301 58.5108 10.6976 58.6921 10.7283 58.885C10.7534 59.0505 10.8894 59.1709 11.0498 59.1837Z" style="fill:var(--sapContent_Illustrative_Color8)"/>
<path fill-rule="evenodd" clip-rule="evenodd" d="M11.6494 63.1826C11.6763 63.1847 11.704 63.1841 11.7321 63.1792L15.6553 62.5684C15.8489 62.5377 15.9814 62.3571 15.9507 62.1635C15.9214 61.9699 15.741 61.8361 15.5465 61.8681L11.6233 62.4797C11.4297 62.5097 11.2972 62.6909 11.3279 62.8839C11.3531 63.0494 11.4891 63.1697 11.6494 63.1826Z" style="fill:var(--sapContent_Illustrative_Color8)"/>
<path fill-rule="evenodd" clip-rule="evenodd" d="M12.3504 67.8508C12.3772 67.853 12.405 67.8524 12.4331 67.8475L19.3056 66.7766C19.4992 66.7466 19.6317 66.5653 19.601 66.3724C19.5717 66.1788 19.3935 66.0437 19.1969 66.0763L12.3243 67.148C12.1307 67.1779 11.9982 67.3592 12.0289 67.5522C12.054 67.7176 12.1901 67.838 12.3504 67.8508Z" style="fill:var(--sapContent_Illustrative_Color8)"/>
<path fill-rule="evenodd" clip-rule="evenodd" d="M13.0498 72.5023C13.0766 72.5045 13.1044 72.5039 13.1325 72.499L17.0556 71.8881C17.2493 71.8574 17.3817 71.6769 17.351 71.4832C17.3217 71.2904 17.1436 71.1546 16.9469 71.1879L13.0237 71.7995C12.8301 71.8294 12.6976 72.0107 12.7283 72.2036C12.7534 72.3691 12.8895 72.4895 13.0498 72.5023Z" style="fill:var(--sapContent_Illustrative_Color8)"/>
<path fill-rule="evenodd" clip-rule="evenodd" d="M13.6494 76.5021C13.6762 76.5043 13.704 76.5037 13.7321 76.4988L17.6552 75.8879C17.8489 75.8572 17.9813 75.6767 17.9507 75.483C17.9214 75.2895 17.7432 75.1544 17.5465 75.1877L13.6233 75.7992C13.4297 75.8292 13.2972 76.0105 13.3279 76.2034C13.353 76.3689 13.4891 76.4893 13.6494 76.5021Z" style="fill:var(--sapContent_Illustrative_Color8)"/>
<path fill-rule="evenodd" clip-rule="evenodd" d="M14.249 80.5014C14.2758 80.5035 14.3036 80.5029 14.3317 80.4981L18.2549 79.8872C18.4485 79.8565 18.581 79.676 18.5503 79.4823C18.521 79.2888 18.3406 79.1542 18.1461 79.1869L14.2229 79.7985C14.0293 79.8285 13.8968 80.0098 13.9275 80.2027C13.9527 80.3682 14.0887 80.4885 14.249 80.5014Z" style="fill:var(--sapContent_Illustrative_Color8)"/>
<path fill-rule="evenodd" clip-rule="evenodd" d="M14.8506 84.5009C14.8774 84.5031 14.9052 84.5024 14.9333 84.4976L18.8564 83.8867C19.0501 83.856 19.1825 83.6755 19.1518 83.4818C19.1226 83.2883 18.9436 83.1538 18.7477 83.1865L14.8245 83.798C14.6309 83.828 14.4984 84.0093 14.5291 84.2022C14.5542 84.3677 14.6903 84.4881 14.8506 84.5009Z" style="fill:var(--sapContent_Illustrative_Color8)"/>
<path fill-rule="evenodd" clip-rule="evenodd" d="M15.5516 89.1685C15.5784 89.1706 15.6062 89.17 15.6343 89.1652L22.5068 88.0949C22.7004 88.0649 22.8329 87.8837 22.8022 87.6907C22.7729 87.4972 22.5926 87.3612 22.398 87.3946L15.5255 88.4656C15.3319 88.4956 15.1994 88.6769 15.2301 88.8698C15.2552 89.0353 15.3913 89.1556 15.5516 89.1685Z" style="fill:var(--sapContent_Illustrative_Color8)"/>
<path d="M25.5441 66.533C24.3811 63.0591 26.5724 59.3623 30.1782 58.7151L129.102 40.9588C132.036 40.4322 134.912 42.137 135.858 44.9635L155.031 102.234C156.194 105.708 154.003 109.404 150.397 110.052L51.4732 127.808C48.5395 128.334 45.6634 126.63 44.7171 123.803L25.5441 66.533Z" style="fill:var(--sapContent_Illustrative_Color14)"/>
<path d="M27.8505 57.9077L25.9102 61.9959L30.4517 60.9979L27.8505 57.9077Z" style="fill:var(--sapContent_Illustrative_Color14)"/>
<path d="M154.734 103.567L154.696 106.819L156.219 103.567L154.734 103.567Z" style="fill:var(--sapContent_Illustrative_Color14)"/>
<path d="M27.4387 62.732C26.2757 59.2581 28.4669 55.5613 32.0727 54.914L130.996 37.1578C133.93 36.6312 136.806 38.336 137.752 41.1625L156.925 98.4326C158.088 101.907 155.897 105.603 152.291 106.251L53.3678 124.007C50.434 124.533 47.5579 122.829 46.6116 120.002L27.4387 62.732Z" style="fill:var(--sapContent_Illustrative_Color2)"/>
<path d="M27.4422 62.7426C26.278 59.2651 28.4751 55.5652 32.0858 54.923L131.061 37.321C133.992 36.7997 136.863 38.5044 137.808 41.3274L140.936 50.6734L30.0063 70.4015L27.4422 62.7426Z" style="fill:var(--sapContent_Illustrative_Color13)"/>
<path d="M40.1013 77.3511C39.6361 75.9615 40.5127 74.4827 41.9551 74.2239L133.268 57.8407C134.441 57.6302 135.592 58.3121 135.97 59.4426L148.593 97.1479C149.058 98.5376 148.182 100.016 146.739 100.275L55.4266 116.658C54.2532 116.869 53.1028 116.187 52.7244 115.056L40.1013 77.3511Z" style="fill:var(--sapContent_Illustrative_Color13)"/>
<path d="M41.8064 74.8799C41.3412 73.4903 42.2178 72.0115 43.6602 71.7527L134.973 55.3695C136.146 55.159 137.297 55.8409 137.675 56.9714L150.298 94.6767C150.764 96.0664 149.887 97.5451 148.445 97.8039L57.1317 114.187C55.9582 114.398 54.8079 113.716 54.4294 112.585L41.8064 74.8799Z" style="fill:var(--sapContent_Illustrative_Color8)"/>
<circle cx="2.7026" cy="2.7026" r="2.7026" transform="matrix(0.94827 -0.317465 0.317463 0.948271 33.498 59.6897)" style="fill:var(--sapContent_Illustrative_Color20)"/>
<circle cx="2.7026" cy="2.7026" r="2.7026" transform="matrix(0.94827 -0.317465 0.317463 0.948271 43.752 57.9739)" style="fill:var(--sapContent_Illustrative_Color20)"/>
<circle cx="2.7026" cy="2.7026" r="2.7026" transform="matrix(0.94827 -0.317465 0.317463 0.948271 54.0059 56.0896)" style="fill:var(--sapContent_Illustrative_Color20)"/>
<path d="M50.5134 79.4998C50.0482 78.1101 50.9248 76.6314 52.3672 76.3726L77.6083 71.8439C78.7818 71.6333 79.9321 72.3152 80.3106 73.4458L83.1943 82.0593C83.6595 83.449 82.7829 84.9278 81.3405 85.1865L56.0994 89.7153C54.9259 89.9258 53.7756 89.2439 53.3971 88.1134L50.5134 79.4998Z" style="fill:var(--sapContent_Illustrative_Color6)"/>
<path d="M85.0173 72.7793C84.5521 71.3897 85.4287 69.9109 86.8711 69.6521L112.112 65.1234C113.286 64.9129 114.436 65.5948 114.815 66.7253L117.698 75.3389C118.163 76.7285 117.287 78.2073 115.844 78.4661L90.6033 82.9948C89.4298 83.2053 88.2795 82.5234 87.901 81.3929L85.0173 72.7793Z" style="fill:var(--sapContent_Illustrative_Color6)"/>
<path d="M56.4001 96.0242C55.9349 94.6346 56.8115 93.1558 58.2539 92.897L83.4951 88.3683C84.6685 88.1577 85.8189 88.8397 86.1973 89.9702L89.081 98.5838C89.5462 99.9734 88.6696 101.452 87.2272 101.711L61.9861 106.24C60.8126 106.45 59.6623 105.768 59.2838 104.638L56.4001 96.0242Z" style="fill:var(--sapContent_Illustrative_Color6)"/>
<path d="M138.048 7.07757C138.224 7.28258 138.342 7.53132 138.389 7.79762C138.436 8.06392 138.41 8.33793 138.314 8.59081L136.194 14.665C135.844 15.6698 134.825 15.9207 134.038 15.6461C133.712 15.5455 133.427 15.3416 133.226 15.0651C133.026 14.7887 132.92 14.4546 132.926 14.1131C132.933 13.9482 132.966 13.7853 133.022 13.6301L135.142 7.55592C135.23 7.28752 135.388 7.04777 135.601 6.86206C135.813 6.67634 136.072 6.55156 136.35 6.50092C136.659 6.44448 136.977 6.46782 137.274 6.56874C137.571 6.66966 137.838 6.8448 138.048 7.07757Z" style="fill:var(--sapContent_Illustrative_Color5)"/>
<path d="M159.081 34.9957C159.113 35.1866 159.104 35.382 159.056 35.5694C159.008 35.7568 158.921 35.9321 158.801 36.0841C158.681 36.236 158.531 36.3614 158.36 36.4521C158.189 36.5427 158.001 36.5968 157.808 36.6108L151.585 37.3483C151.361 37.374 151.134 37.3549 150.918 37.2921C150.702 37.2293 150.5 37.1239 150.325 36.9823C150.15 36.8406 150.004 36.6655 149.897 36.4671C149.791 36.2686 149.724 36.0509 149.703 35.8266C149.691 35.7344 149.687 35.6414 149.691 35.5485C149.7 35.2051 149.836 34.8775 150.075 34.63C150.313 34.3826 150.635 34.2335 150.978 34.2119L157.199 33.4763C157.422 33.4502 157.649 33.4689 157.865 33.5315C158.082 33.594 158.284 33.6991 158.459 33.8406C158.634 33.9821 158.78 34.1571 158.886 34.3554C158.993 34.5538 159.059 34.7714 159.081 34.9957Z" style="fill:var(--sapContent_Illustrative_Color5)"/>
<path d="M153.594 18.2942C153.573 18.5046 153.51 18.7084 153.407 18.8933C153.305 19.0782 153.166 19.2402 152.998 19.3695L145.553 25.2442C145.218 25.5058 144.794 25.6276 144.371 25.5842C143.948 25.5408 143.558 25.3355 143.283 25.0112C143.029 24.7094 142.898 24.3231 142.915 23.929C142.925 23.7018 142.985 23.4795 143.089 23.2774C143.193 23.0752 143.339 22.8978 143.518 22.7573L150.963 16.8826C151.3 16.6193 151.726 16.4968 152.151 16.5411C152.577 16.5853 152.968 16.7927 153.244 17.1197C153.379 17.2818 153.479 17.4694 153.539 17.6712C153.599 17.873 153.618 18.0849 153.594 18.2942Z" style="fill:var(--sapContent_Illustrative_Color5)"/>
<path d="M113.634 133.48C113.634 132.707 111.389 132.088 108.39 131.947C108.218 128.951 107.558 126.724 106.784 126.725C106.011 126.727 105.368 128.972 105.203 131.983C102.195 132.189 99.9585 132.861 99.9688 133.636C99.9791 134.411 102.214 135.03 105.213 135.169C105.393 138.165 106.045 140.393 106.817 140.391C107.589 140.389 108.235 138.144 108.4 135.133C111.408 134.927 113.643 134.255 113.634 133.48Z" style="fill:var(--sapContent_Illustrative_Color18)"/>
<path d="M28.4619 107.615C28.4619 107.1 26.9653 106.687 24.9655 106.593C24.8512 104.596 24.411 103.111 23.8953 103.112C23.3797 103.113 22.9509 104.61 22.8411 106.617C20.8357 106.754 19.3447 107.203 19.3516 107.719C19.3584 108.236 20.8483 108.649 22.848 108.741C22.9681 110.739 23.4025 112.224 23.917 112.222C24.4316 112.221 24.8626 110.725 24.9724 108.717C26.9778 108.58 28.4676 108.132 28.4619 107.615Z" style="fill:var(--sapContent_Illustrative_Color18)"/>
<path d="M86.1851 24.4867C86.1851 23.7133 83.9401 23.0942 80.9405 22.9536C80.7689 19.9578 80.1087 17.7302 79.3352 17.7319C78.5617 17.7336 77.9185 19.9784 77.7539 22.9896C74.7457 23.1954 72.5093 23.8676 72.5196 24.6427C72.5299 25.4178 74.7646 26.0369 77.7642 26.1758C77.9443 29.1716 78.596 31.3992 79.3678 31.3975C80.1395 31.3958 80.7861 29.1511 80.9507 26.1398C83.9589 25.934 86.1936 25.2618 86.1851 24.4867Z" style="fill:var(--sapContent_Illustrative_Color18)"/>
<path d="M139.382 128.547C150.361 128.547 159.262 119.647 159.262 108.667C159.262 97.6877 150.361 88.7871 139.382 88.7871C128.403 88.7871 119.502 97.6877 119.502 108.667C119.502 119.647 128.403 128.547 139.382 128.547Z" style="fill:var(--sapContent_Illustrative_Color3)"/>
<path d="M139.389 97.8418H139.382C137.898 97.8418 136.695 99.0445 136.695 100.528V116.807C136.695 118.29 137.898 119.493 139.382 119.493H139.389C140.873 119.493 142.075 118.29 142.075 116.807V100.528C142.075 99.0445 140.873 97.8418 139.389 97.8418Z" style="fill:var(--sapContent_Illustrative_Color8)"/>
<path d="M129.016 108.36V108.968C129.016 110.286 130.084 111.354 131.402 111.354H147.38C148.698 111.354 149.767 110.286 149.767 108.968V108.36C149.767 107.042 148.698 105.974 147.38 105.974H131.402C130.084 105.974 129.016 107.042 129.016 108.36Z" style="fill:var(--sapContent_Illustrative_Color8)"/>
</svg>
