<svg width="128" height="189" viewBox="0 0 128 189" fill="none" xmlns="http://www.w3.org/2000/svg" id="tnt-Spot-FaceID">
<circle cx="64" cy="64.7703" r="64" style="fill:var(--sapContent_Illustrative_Color7)"/>
<path fill-rule="evenodd" clip-rule="evenodd" d="M115.44 102.855C103.779 118.579 85.08 128.77 64.0001 128.77C43.5408 128.77 25.3237 119.17 13.6078 104.229C13.4531 101.286 13.374 98.3023 13.374 95.2855V95.2854H115.608V95.2855C115.608 97.8338 115.551 100.358 115.44 102.855Z" style="fill:var(--sapContent_Illustrative_Color18)"/>
<path fill-rule="evenodd" clip-rule="evenodd" d="M115.44 102.855C112.31 107.076 108.672 110.898 104.618 114.232C105.335 108.117 105.721 101.78 105.74 95.2854H115.607V95.2855C115.607 97.8339 115.551 100.358 115.44 102.855Z" style="fill:var(--sapContent_Illustrative_Color19)"/>
<ellipse cx="64.4913" cy="95.2855" rx="51.1168" ry="10.0104" style="fill:var(--sapContent_Illustrative_Color20)"/>
<ellipse cx="7.24272" cy="8.95233" rx="7.24272" ry="8.95233" transform="matrix(-0.877901 -0.478843 -0.478843 0.877901 33.2905 48.5437)" style="fill:var(--sapContent_Illustrative_Color19)"/>
<path fill-rule="evenodd" clip-rule="evenodd" d="M115.608 79.2994L115.608 79.2994C115.608 51.6701 92.7224 29.2722 64.4914 29.2722C36.2689 29.2722 13.3884 51.6568 13.3747 79.2746C13.3746 79.2829 13.3745 79.2912 13.3745 79.2994C13.3745 84.828 36.2603 89.3098 64.4913 89.3098C92.7223 89.3098 115.608 84.828 115.608 79.2994Z" style="fill:var(--sapContent_Illustrative_Color18)"/>
<path fill-rule="evenodd" clip-rule="evenodd" d="M97.1141 72.7818C97.1141 72.8293 97.114 72.8768 97.1138 72.9242H97.1059C96.7191 76.3867 82.2653 79.1703 64.4917 79.1703C46.7181 79.1703 32.2644 76.3867 31.8776 72.9242H31.8702C31.87 72.8854 31.8699 72.8466 31.8699 72.8078C31.8697 72.7991 31.8696 72.7904 31.8696 72.7817C31.8696 72.7731 31.8697 72.7644 31.8699 72.7557C31.8843 55.135 46.4842 40.855 64.492 40.855C82.5087 40.855 97.1141 55.1491 97.1141 72.7818Z" style="fill:var(--sapContent_Illustrative_Color20)"/>
<rect x="40.8828" y="10.7417" width="4.48261" height="30.1132" rx="2.2413" style="fill:var(--sapContent_Illustrative_Color20)"/>
<rect x="83.6172" y="8.28149" width="4.48261" height="32.5733" rx="2.2413" style="fill:var(--sapContent_Illustrative_Color20)"/>
<circle cx="43.1243" cy="14.8316" r="6.5501" style="fill:var(--sapContent_Illustrative_Color18)"/>
<path fill-rule="evenodd" clip-rule="evenodd" d="M40.5601 19.5904C44.1776 19.5904 47.1102 16.6578 47.1102 13.0403C47.1102 11.3844 46.4958 9.87204 45.4824 8.71875C47.9346 9.6655 49.6741 12.0453 49.6741 14.8314C49.6741 18.4489 46.7415 21.3815 43.124 21.3815C41.1623 21.3815 39.4021 20.5192 38.2017 19.153C38.9334 19.4355 39.7287 19.5904 40.5601 19.5904Z" style="fill:var(--sapContent_Illustrative_Color19)"/>
<circle cx="85.8582" cy="14.8316" r="6.5501" style="fill:var(--sapContent_Illustrative_Color1)"/>
<circle cx="52.9103" cy="60.0126" r="4.56358" style="fill:var(--sapContent_Illustrative_Color8)"/>
<circle cx="76.0719" cy="60.0126" r="4.56358" style="fill:var(--sapContent_Illustrative_Color9)"/>
<ellipse cx="105.836" cy="52.9348" rx="7.24272" ry="8.95233" transform="rotate(-28.6099 105.836 52.9348)" style="fill:var(--sapContent_Illustrative_Color2)"/>
<path fill-rule="evenodd" clip-rule="evenodd" d="M50.1431 88.9101V31.2698C54.695 29.9695 59.5098 29.2722 64.4909 29.2722C92.7155 29.2722 115.597 51.66 115.608 79.2807L115.608 79.2994C115.608 84.828 92.722 89.3098 64.491 89.3098C59.5098 89.3098 54.6951 89.1703 50.1431 88.9101Z" style="fill:var(--sapContent_Illustrative_Color2)"/>
<path fill-rule="evenodd" clip-rule="evenodd" d="M105.356 85.314C105.715 82.9293 105.901 80.4898 105.901 78.0079C105.901 54.1349 88.7062 34.1798 65.7402 29.2869C93.3875 29.936 115.597 52.0688 115.607 79.2807L115.607 79.2994C115.607 81.5567 111.792 83.6395 105.356 85.314Z" style="fill:var(--sapContent_Illustrative_Color13)"/>
<path fill-rule="evenodd" clip-rule="evenodd" d="M50.1431 78.5207V44.1011C54.4732 42.0222 59.3431 40.855 64.4916 40.855C82.5083 40.855 97.1137 55.1491 97.1137 72.7818C97.1137 72.8293 97.1136 72.8768 97.1134 72.9242H97.1055C96.7187 76.3867 82.2649 79.1703 64.4913 79.1703C59.343 79.1703 54.4731 78.9367 50.1431 78.5207Z" style="fill:var(--sapContent_Illustrative_Color4)"/>
<rect x="83.6167" y="10.7417" width="4.48261" height="30.1132" rx="2.2413" style="fill:var(--sapContent_Illustrative_Color5)"/>
<circle cx="85.8577" cy="14.8316" r="6.5501" style="fill:var(--sapContent_Illustrative_Color2)"/>
<path fill-rule="evenodd" clip-rule="evenodd" d="M82.8699 19.8192C86.4875 19.8192 89.42 16.8866 89.42 13.2691C89.42 11.3573 88.601 9.63689 87.2948 8.43945C90.2211 9.0944 92.408 11.7075 92.408 14.8315C92.408 18.449 89.4755 21.3816 85.8579 21.3816C84.1521 21.3816 82.5987 20.7295 81.4331 19.6611C81.8955 19.7646 82.3763 19.8192 82.8699 19.8192Z" style="fill:var(--sapContent_Illustrative_Color13)"/>
<path fill-rule="evenodd" clip-rule="evenodd" d="M50.1431 63.642V56.3831C50.9106 55.7971 51.8696 55.449 52.9099 55.449C55.4303 55.449 57.4735 57.4922 57.4735 60.0126C57.4735 62.5329 55.4303 64.5761 52.9099 64.5761C51.8696 64.5761 50.9106 64.228 50.1431 63.642Z" style="fill:var(--sapContent_Illustrative_Color9)"/>
<circle cx="76.0719" cy="60.0126" r="4.56358" style="fill:var(--sapContent_Illustrative_Color9)"/>
<path fill-rule="evenodd" clip-rule="evenodd" d="M59.0121 70.5443C59.2947 70.0433 59.93 69.8664 60.4309 70.149C62.9506 71.5707 66.0304 71.5707 68.55 70.149C69.051 69.8664 69.6862 70.0433 69.9689 70.5443C70.2516 71.0453 70.0746 71.6805 69.5736 71.9632C66.4186 73.7433 62.5623 73.7433 59.4073 71.9632C58.9064 71.6805 58.7294 71.0453 59.0121 70.5443Z" style="fill:var(--sapContent_Illustrative_Color5)"/>
<rect x="46.71" y="94.7556" width="71.5706" height="3.77276" rx="1.88638" transform="rotate(-90 46.71 94.7556)" style="fill:var(--sapContent_Illustrative_Color3)"/>
</svg>
