<svg width="45" height="45" viewBox="0 0 45 45" fill="none" xmlns="http://www.w3.org/2000/svg" id="tnt-Dot-ChartArea2">
<path fill-rule="evenodd" clip-rule="evenodd" d="M44.8428 6.47432C44.8428 5.95565 44.7102 5.43581 44.4075 5.01459C41.5151 0.989138 38.0296 4.01753 33.6639 7.81078L33.6638 7.81082C32.3995 8.90936 31.0613 10.072 29.6423 11.1461C24.7002 14.887 18.651 17.3485 11.3096 15.0219C7.02901 13.6653 3.47933 16.019 0.836468 19.082C0.413808 19.5718 0.201172 20.2045 0.201172 20.8515V24.3765L0.578426 24.478C4.1676 25.4476 9.76123 25.8772 15.7126 23.3358C18.5792 22.1117 21.447 20.1052 24.5129 17.9521L24.5783 17.9062C27.5989 15.7849 30.8049 13.5334 34.1633 12.0717C37.4736 10.6309 41.0356 9.90885 44.8428 10.8357V6.47432ZM44.8428 12.3221C37.7664 10.4039 31.4733 14.8233 25.3403 19.1303L25.3403 19.1303C22.3055 21.2615 19.3099 23.3651 16.278 24.6598C10.7096 27.0376 5.43476 26.9651 1.641 26.205C1.13427 26.1034 0.653957 25.9896 0.202902 25.8678L0.201359 25.8673V39.9729C0.201359 40.7679 0.684682 41.4501 1.37353 41.7415C1.48838 41.7901 1.60895 41.8278 1.73393 41.8534C1.85886 41.8789 1.98821 41.8924 2.12069 41.8924H42.9233C43.9834 41.8924 44.8428 41.033 44.8428 39.9728V12.3221Z" style="fill:var(--sapContent_Illustrative_Color13)"/>
<path fill-rule="evenodd" clip-rule="evenodd" d="M44.8428 12.3223V39.973C44.8428 41.0331 43.9834 41.8925 42.9233 41.8925H2.12069C1.06057 41.8925 0.201172 41.0331 0.201172 39.973V25.8674C0.201686 25.8676 0.202201 25.8677 0.202715 25.8678C4.03067 26.9021 9.96567 27.3553 16.2778 24.6599C19.3097 23.3652 22.3053 21.2615 25.3401 19.1303C31.4732 14.8233 37.7664 10.4039 44.8428 12.3223Z" style="fill:var(--sapContent_Illustrative_Color3)"/>
<path fill-rule="evenodd" clip-rule="evenodd" d="M44.8428 25.9771V39.973C44.8428 41.0331 43.9834 41.8925 42.9233 41.8925H2.12069C1.06057 41.8925 0.201172 41.0331 0.201172 39.973V36.8594C4.43144 32.2702 11.7061 27.7791 21.1735 30.6244C30.4682 33.4178 39.1938 29.8442 44.8428 25.9771Z" style="fill:var(--sapContent_Illustrative_Color2)"/>
</svg>
