<svg width="160" height="160" viewBox="0 0 160 160" fill="none" xmlns="http://www.w3.org/2000/svg" id="tnt-Dialog-ChartDoughnut">
<path d="M79.3943 161.789C123.243 161.789 158.789 126.243 158.789 82.3943C158.789 38.546 123.243 3 79.3943 3C35.546 3 0 38.546 0 82.3943C0 126.243 35.546 161.789 79.3943 161.789Z" style="fill:var(--sapContent_Illustrative_Color7)"/>
<path d="M105.777 19.0182L56.1169 9.07575C54.0114 8.65422 51.9646 10.0228 51.5452 12.1325L37.1526 84.5321C36.7332 86.6419 38.1 88.6939 40.2055 89.1154L89.8656 99.0578C91.9711 99.4793 94.0179 98.1108 94.4373 96.001L108.83 23.6014C109.249 21.4917 107.882 19.4397 105.777 19.0182Z" style="fill:var(--sapContent_Illustrative_Color18)"/>
<path d="M77.4612 24.0189C75.8098 23.6019 74.0723 23.6847 72.4685 24.2572C70.8646 24.8296 69.4665 25.8659 68.4507 27.2349C67.435 28.604 66.8473 30.2443 66.762 31.9486C66.6767 33.6529 67.0975 35.3446 67.9713 36.8098C68.8452 38.2749 70.1327 39.4478 71.6712 40.1801C73.2097 40.9124 74.9301 41.1712 76.6148 40.9239C78.2995 40.6765 79.8729 39.934 81.136 38.7903C82.3991 37.6466 83.2953 36.1531 83.7112 34.4986L75.3563 32.3915L77.4612 24.0189Z" style="fill:var(--sapContent_Illustrative_Color7)"/>
<path d="M79.8411 22.5057L77.7424 30.8701L86.0902 32.9781C86.3664 31.8796 86.4238 30.7373 86.2591 29.6164C86.0945 28.4954 85.7111 27.4179 85.1307 26.4453C84.5503 25.4727 83.7844 24.6242 82.8768 23.9482C81.9692 23.2722 80.9376 22.782 79.8411 22.5057V22.5057Z" style="fill:var(--sapContent_Illustrative_Color19)"/>
<path d="M90.2204 50.0298L55.6151 43.1015C54.467 42.8716 53.3509 43.6179 53.1222 44.7683C52.8935 45.9187 53.6388 47.0376 54.7869 47.2675L89.3922 54.1957C90.5403 54.4256 91.6564 53.6793 91.8851 52.5289C92.1137 51.3785 91.3685 50.2596 90.2204 50.0298Z" style="fill:var(--sapContent_Illustrative_Color7)"/>
<path d="M88.2616 57.1497L53.6563 50.2214C52.5083 49.9915 51.3922 50.7378 51.1635 51.8882C50.9348 53.0386 51.6801 54.1575 52.8282 54.3873L87.4334 61.3156C88.5815 61.5455 89.6976 60.7992 89.9263 59.6488C90.155 58.4984 89.4097 57.3795 88.2616 57.1497Z" style="fill:var(--sapContent_Illustrative_Color7)"/>
<path d="M70.2659 60.8923L51.8303 57.2013C50.6823 56.9715 49.5662 57.7177 49.3375 58.8681C49.1088 60.0185 49.8541 61.1374 51.0022 61.3672L69.4377 65.0582C70.5858 65.288 71.7019 64.5419 71.9306 63.3915C72.1593 62.2411 71.414 61.1221 70.2659 60.8923Z" style="fill:var(--sapContent_Illustrative_Color7)"/>
<path fill-rule="evenodd" clip-rule="evenodd" d="M108.268 156.375C135.132 145.883 154.88 121.181 158.271 91.5091L126.578 71.1208C124.773 69.9591 122.363 70.4826 121.197 72.29L81.176 134.316C80.0098 136.123 80.5283 138.53 82.3341 139.692L108.268 156.375Z" style="fill:var(--sapContent_Illustrative_Color18)"/>
<path fill-rule="evenodd" clip-rule="evenodd" d="M146.353 110.937C146.832 111.724 146.582 112.751 145.794 113.23L125.211 125.743C124.726 126.038 124.123 126.066 123.612 125.817C123.101 125.567 122.752 125.075 122.686 124.511L121.488 114.291L104.479 123.934C103.677 124.389 102.658 124.108 102.204 123.306C101.749 122.504 102.031 121.485 102.833 121.03L122.029 110.146C122.516 109.871 123.108 109.857 123.607 110.11C124.106 110.363 124.445 110.849 124.51 111.404L125.699 121.539L144.06 110.377C144.847 109.898 145.874 110.149 146.353 110.937Z" style="fill:var(--sapContent_Illustrative_Color19)"/>
<path d="M121.956 87.5316C122.206 87.1442 122.722 87.0326 123.11 87.2824L125.232 88.6506C125.619 88.9004 125.731 89.417 125.481 89.8045L103.819 123.402C103.569 123.789 103.053 123.901 102.665 123.651L100.543 122.283C100.156 122.033 100.044 121.516 100.294 121.129L121.956 87.5316Z" style="fill:var(--sapContent_Illustrative_Color7)"/>
<path fill-rule="evenodd" clip-rule="evenodd" d="M133.904 140.119L102.159 119.859C101.771 119.611 101.255 119.725 101.007 120.113L99.6482 122.242C99.4002 122.63 99.5142 123.146 99.9027 123.394L130.657 143.023C131.766 142.084 132.849 141.116 133.904 140.119Z" style="fill:var(--sapContent_Illustrative_Color7)"/>
<path d="M95.4102 130.246C95.8999 129.465 96.9346 129.221 97.7157 129.711L114.077 139.968C114.859 140.458 115.09 141.495 114.601 142.276V142.276C114.111 143.057 113.076 143.301 112.295 142.811L95.9335 132.554C95.1524 132.064 94.9205 131.027 95.4102 130.246V130.246Z" style="fill:var(--sapContent_Illustrative_Color7)"/>
<path d="M126.007 35.1744C126.007 33.9855 122.556 33.0339 117.945 32.8177C117.681 28.2126 116.666 24.7884 115.477 24.791C114.288 24.7937 113.299 28.2442 113.046 32.8731C108.422 33.1894 104.984 34.2227 105 35.4142C105.016 36.6057 108.451 37.5573 113.062 37.7709C113.339 42.376 114.341 45.8002 115.527 45.7976C116.713 45.7949 117.707 42.3444 117.96 37.7155C122.585 37.3992 126.02 36.3659 126.007 35.1744Z" style="fill:var(--sapContent_Illustrative_Color3)"/>
<path d="M143.011 56.6881C143.011 55.9219 140.787 55.3087 137.815 55.1694C137.646 52.2016 136.991 49.9949 136.225 49.9966C135.459 49.9983 134.822 52.222 134.659 55.205C131.679 55.4089 129.463 56.0748 129.473 56.8427C129.484 57.6105 131.697 58.2238 134.669 58.3614C134.847 61.3291 135.493 63.5358 136.257 63.5341C137.022 63.5324 137.663 61.3087 137.826 58.3257C140.806 58.1218 143.019 57.4559 143.011 56.6881Z" style="fill:var(--sapContent_Illustrative_Color3)"/>
<path d="M7.4599 56.7103C7.4599 52.8137 10.6188 49.6548 14.5154 49.6548H88.3226L107.744 65.7568V140.453C107.744 144.349 104.585 147.508 100.689 147.508H14.5154C10.6188 147.508 7.4599 144.349 7.4599 140.453V56.7103Z" style="fill:var(--sapContent_Illustrative_Color6)"/>
<path d="M3.93213 51.7714C3.93213 48.6541 6.45923 46.127 9.57656 46.127H84.0185L104.217 63.0434V138.336C104.217 141.453 101.689 143.981 98.5721 143.981H9.57656C6.45923 143.981 3.93213 141.453 3.93213 138.336V51.7714Z" style="fill:var(--sapContent_Illustrative_Color8)"/>
<path d="M83.9097 62.8896L104.217 66.9848V62.8896H83.9097Z" style="fill:var(--sapContent_Illustrative_Color5)"/>
<path d="M83.9097 62.89H104.217L83.9097 46.127V62.89Z" style="fill:var(--sapContent_Illustrative_Color6)"/>
<rect x="15.9902" y="74.269" width="76.1684" height="58.7705" rx="4.09664" style="fill:var(--sapContent_Illustrative_Color7)"/>
<path d="M52.4394 86.4959C52.4726 86.0921 52.1721 85.7364 51.7673 85.7183C48.1364 85.5561 44.5262 86.4035 41.3407 88.1732C37.9411 90.0619 35.1779 92.9162 33.4006 96.3753C31.6232 99.8344 30.9115 103.743 31.3554 107.606C31.7994 111.47 33.379 115.115 35.8946 118.081C38.4102 121.047 41.7488 123.2 45.4882 124.268C49.2275 125.337 53.1997 125.272 56.9024 124.083C60.6052 122.894 63.8721 120.633 66.2901 117.588C68.5559 114.734 69.981 111.31 70.4134 107.701C70.4616 107.299 70.1597 106.944 69.7558 106.911L62.8462 106.344C62.4423 106.311 62.0905 106.612 62.0311 107.013C61.7419 108.965 60.9436 110.812 59.711 112.365C58.326 114.109 56.4547 115.404 54.3338 116.085C52.213 116.766 49.9377 116.803 47.7959 116.191C45.654 115.579 43.7417 114.346 42.3008 112.647C40.8599 110.948 39.9551 108.86 39.7008 106.647C39.4465 104.434 39.8542 102.196 40.8722 100.214C41.8903 98.2331 43.473 96.5982 45.4202 95.5164C47.1532 94.5536 49.1056 94.0674 51.0792 94.1006C51.4843 94.1074 51.8388 93.8094 51.8719 93.4056L52.4394 86.4959Z" style="fill:var(--sapContent_Illustrative_Color2)"/>
<path d="M52.7509 86.5244C52.7907 86.1211 52.4961 85.7605 52.0917 85.7357C49.0942 85.5522 46.091 86.0575 43.3139 87.2171C40.5367 88.3767 38.0658 90.157 36.0888 92.4175C35.8221 92.7225 35.8714 93.1855 36.1861 93.4407L41.5714 97.8069C41.8862 98.0621 42.3465 98.012 42.6216 97.7145C43.7171 96.5301 45.0564 95.5927 46.5505 94.9688C48.0445 94.345 49.6528 94.0518 51.2652 94.1055C51.6702 94.119 52.0295 93.8269 52.0693 93.4237L52.7509 86.5244Z" style="fill:var(--sapContent_Illustrative_Color20)"/>
<path d="M75.509 103.357C75.9123 103.396 76.2729 103.102 76.2977 102.697C76.4403 100.368 76.1673 98.0302 75.4894 95.7932C74.7406 93.322 73.5123 91.0225 71.8748 89.0259C70.2372 87.0294 68.2225 85.3749 65.9456 84.157C63.8845 83.0546 61.6451 82.3294 59.333 82.0135C58.9316 81.9587 58.5721 82.2547 58.5323 82.6579L57.7143 90.938C57.6745 91.3412 57.9698 91.6976 58.369 91.7673C59.4021 91.9476 60.4016 92.2916 61.3291 92.7877C62.4727 93.3994 63.4845 94.2303 64.3069 95.233C65.1294 96.2357 65.7462 97.3906 66.1223 98.6317C66.4274 99.6384 66.5692 100.686 66.5438 101.734C66.534 102.139 66.8258 102.499 67.229 102.539L75.509 103.357Z" style="fill:var(--sapContent_Illustrative_Color3)"/>
<path d="M69.7277 107.223C70.1309 107.263 70.4269 107.622 70.3721 108.024C69.9959 110.777 69.0398 113.423 67.5639 115.784C65.9582 118.353 63.7806 120.516 61.2011 122.105C58.6216 123.693 55.7099 124.664 52.6932 124.942C49.9203 125.198 47.1276 124.861 44.4994 123.958C44.1162 123.826 43.9284 123.4 44.0743 123.022L46.565 116.568C46.7109 116.19 47.135 116.005 47.5217 116.126C48.9417 116.57 50.4379 116.73 51.9242 116.593C53.6545 116.433 55.3246 115.876 56.8042 114.965C58.2837 114.054 59.5327 112.813 60.4537 111.34C61.2448 110.074 61.7756 108.666 62.0178 107.198C62.0837 106.798 62.4405 106.503 62.8437 106.543L69.7277 107.223Z" style="fill:var(--sapContent_Illustrative_Color14)"/>
<path d="M30.9111 57.0674H17.7851C16.9003 57.0674 16.1831 57.7846 16.1831 58.6694C16.1831 59.5541 16.9003 60.2714 17.7851 60.2714H30.9111C31.7959 60.2714 32.5131 59.5541 32.5131 58.6694C32.5131 57.7846 31.7959 57.0674 30.9111 57.0674Z" style="fill:var(--sapContent_Illustrative_Color14)"/>
<path d="M43.9434 63.291H17.5408C16.791 63.291 16.1831 63.8989 16.1831 64.6487C16.1831 65.3985 16.791 66.0064 17.5408 66.0064H43.9434C44.6932 66.0064 45.301 65.3985 45.301 64.6487C45.301 63.8989 44.6932 63.291 43.9434 63.291Z" style="fill:var(--sapContent_Illustrative_Color13)"/>
</svg>
