<svg width="128" height="129" viewBox="0 0 128 129" fill="none" xmlns="http://www.w3.org/2000/svg" id="tnt-Spot-Mission">
<circle cx="64" cy="64.7703" r="64" style="fill:var(--sapContent_Illustrative_Color7)"/>
<path d="M75.9831 101.436L79.8362 82.9122L58.6426 95.9285L62.8814 111.075C63.4241 113.015 65.8551 113.65 67.2777 112.225L73.5563 105.935C74.7854 104.703 75.6288 103.14 75.9831 101.436Z" style="fill:var(--sapContent_Illustrative_Color2)"/>
<path fill-rule="evenodd" clip-rule="evenodd" d="M76.2922 85.0886L73.2488 99.7205C72.8945 101.424 72.0511 102.987 70.8219 104.219L64.5434 110.509C64.0831 110.97 63.5172 111.216 62.9439 111.271C62.9209 111.207 62.8999 111.142 62.8812 111.075L58.6424 95.9285L76.2922 85.0886Z" style="fill:var(--sapContent_Illustrative_Color13)"/>
<path d="M59.8719 44.0226C37.2965 60.2052 27.3494 82.1838 25.7048 92.2045C25.4135 102.123 34.239 107.479 39.3603 107.92C47.6482 106.992 61.4028 98.9774 76.3634 86.7174C96.0445 70.5892 116.719 32.0332 111.127 26.1578C105.844 20.6057 85.866 25.3894 59.8719 44.0226Z" style="fill:var(--sapContent_Illustrative_Color8)"/>
<path fill-rule="evenodd" clip-rule="evenodd" d="M93.5322 26.8573C84.7405 29.6526 73.3301 35.4556 60.3834 44.7361C38.036 60.7553 28.2158 82.4768 26.5808 92.2885C26.462 96.927 28.4559 100.494 31.1033 102.976C33.7526 105.459 37.0115 106.811 39.3502 107.038C43.3024 106.573 48.6528 104.416 54.9216 100.807C61.2143 97.1851 68.3533 92.1464 75.807 86.0382C85.5303 78.0702 95.5552 64.5025 102.456 52.1641C105.904 45.9997 108.549 40.184 109.984 35.5701C110.702 33.2594 111.105 31.2898 111.169 29.7487C111.235 28.1702 110.938 27.2325 110.491 26.7629C109.406 25.622 107.45 24.9041 104.533 24.8644C101.637 24.8249 97.931 25.4587 93.5322 26.8573ZM104.557 23.1086C107.685 23.1512 110.207 23.9173 111.763 25.5524C112.714 26.5517 112.995 28.1041 112.923 29.8218C112.85 31.5768 112.401 33.7093 111.66 36.0915C110.176 40.8633 107.471 46.7962 103.989 53.0213C97.0305 65.4618 86.8777 79.2362 76.92 87.3964C69.413 93.5482 62.1944 98.647 55.7976 102.329C49.4234 105.998 43.7854 108.308 39.458 108.793L39.3716 108.802L39.285 108.795C36.5079 108.556 32.8409 107.011 29.9024 104.257C26.9406 101.481 24.673 97.4301 24.8272 92.1786L24.8289 92.1201L24.8384 92.0622C26.522 81.8047 36.6013 59.6232 59.3604 43.309C72.4079 33.9562 83.9835 28.0507 93.0002 25.1839C97.5056 23.7514 101.409 23.0657 104.557 23.1086Z" style="fill:var(--sapContent_Illustrative_Color20)"/>
<path d="M70.7081 89.8913C71.9625 74.8143 61.2298 66.3147 53.1309 62.7787C52.5111 62.5081 52.1588 63.2392 52.7171 63.6211C58.6015 67.6467 65.6718 73.6728 66.4103 80.8798C67.3006 89.569 69.9772 89.8913 70.7081 89.8913Z" style="fill:var(--sapContent_Illustrative_Color20)"/>
<path fill-rule="evenodd" clip-rule="evenodd" d="M56.3795 87.4373L76.2427 73.5371L76.6759 73.2419C81.2266 70.1408 83.2677 64.4654 81.7346 59.1763L101.12 45.6008C106.354 40.5684 109.72 31.6057 110.767 25.8147C110.894 25.9243 111.014 26.0387 111.127 26.1578C116.719 32.0333 96.0445 70.5892 76.3634 86.7174C61.4028 98.9774 47.6482 106.993 39.3603 107.92C34.239 107.479 25.4135 102.123 25.7048 92.2046C26.7635 85.7543 31.2622 74.3492 40.3548 62.7247L48.7457 55.2199C45.8418 68.0008 44.6902 80.9028 56.3795 87.4373Z" style="fill:var(--sapContent_Illustrative_Color19)"/>
<path fill-rule="evenodd" clip-rule="evenodd" d="M86.2008 28.6828C91.7329 29.4794 99.1195 31.6932 102.949 36.7104C105.733 40.3578 106.379 44.0723 106.126 47.1078C111.139 37.044 113.502 28.6533 111.127 26.1579C107.832 22.6953 98.8217 23.2528 86.2008 28.6828Z" style="fill:var(--sapContent_Illustrative_Color9)"/>
<path d="M106.126 47.1079C111.139 37.0441 113.502 28.6535 111.127 26.158C111.014 26.0389 110.894 25.9245 110.767 25.8149C111.059 29.839 108.084 35.7187 105.129 40.5065C106.073 42.8579 106.291 45.1274 106.126 47.1079Z" style="fill:var(--sapContent_Illustrative_Color17)"/>
<path fill-rule="evenodd" clip-rule="evenodd" d="M48.576 105.073C51.023 100.477 49.2564 93.4014 43.9797 88.0674C39.2677 83.3044 33.1368 81.3251 28.5877 82.6629C27.0563 86.4111 26.1182 89.6857 25.7048 92.2046C25.4135 102.123 34.239 107.479 39.3603 107.92C41.944 107.631 45.0589 106.653 48.576 105.073Z" style="fill:var(--sapContent_Illustrative_Color2)"/>
<ellipse cx="33.2174" cy="99.0123" rx="8.85641" ry="4.2057" transform="rotate(49.2452 33.2174 99.0123)" style="fill:var(--sapContent_Illustrative_Color14)"/>
<path d="M19.0288 61.9199L23.7058 57.6077C26.0138 55.4797 28.922 54.1152 32.0338 53.7003L50.0781 51.2943C50.0391 59.1084 37.4803 69.5313 34.8257 70.7113L20.0711 66.3791C18.1087 65.8029 17.5251 63.3063 19.0288 61.9199Z" style="fill:var(--sapContent_Illustrative_Color2)"/>
<ellipse cx="65.6524" cy="81.4247" rx="3.84799" ry="13.3182" transform="rotate(50.9269 65.6524 81.4247)" style="fill:var(--sapContent_Illustrative_Color2)"/>
<ellipse cx="92.449" cy="54.9789" rx="10.2285" ry="12.7635" transform="rotate(32.437 92.449 54.9789)" style="fill:var(--sapContent_Illustrative_Color13)"/>
<ellipse cx="94.5773" cy="56.3146" rx="7.51845" ry="9.30468" transform="rotate(32.437 94.5773 56.3146)" style="fill:var(--sapContent_Illustrative_Color20)"/>
<path fill-rule="evenodd" clip-rule="evenodd" d="M101.836 55.6954L89.1411 51.031C89.7985 50.2384 90.5326 49.5613 91.3094 49.0122L101.931 52.9147C102.037 53.7995 102.006 54.7392 101.836 55.6954Z" style="fill:var(--sapContent_Illustrative_Color18)"/>
<path fill-rule="evenodd" clip-rule="evenodd" d="M98.5823 61.8879L86.4514 57.4308C86.5875 55.7353 87.1743 53.9439 88.2308 52.2815C88.2348 52.2752 88.2388 52.2688 88.2429 52.2625L101.478 57.1255C101.179 58.0564 100.748 58.9849 100.181 59.8762C99.7057 60.6242 99.1664 61.2971 98.5823 61.8879Z" style="fill:var(--sapContent_Illustrative_Color18)"/>
<path fill-rule="evenodd" clip-rule="evenodd" d="M89.1834 63.8814C92.9626 64.2097 96.8927 62.3479 99.1753 58.7562C101.142 55.6612 101.427 52.0041 100.251 48.9516C103.226 51.4047 103.62 56.3515 101.036 60.4186C98.2792 64.7557 93.1786 66.4501 89.643 64.2031C89.4839 64.102 89.3307 63.9946 89.1834 63.8814Z" style="fill:var(--sapContent_Illustrative_Color14)"/>
<path fill-rule="evenodd" clip-rule="evenodd" d="M14.6723 105.55C22.6579 99.9569 28.1159 94.894 29.1862 93.8865C31.7754 91.4492 35.8501 91.5724 38.2873 94.1615C40.7246 96.7506 40.6015 100.825 38.0124 103.263C33.159 108.307 29.4427 112.756 26.5855 116.7C22.1551 113.503 18.1504 109.752 14.6723 105.55Z" style="fill:var(--sapContent_Illustrative_Color18)"/>
<path fill-rule="evenodd" clip-rule="evenodd" d="M18.5672 109.846C24.3872 101.097 34.7587 85.5172 41.2696 92.6792C46.0124 97.8962 31.6527 106.591 20.6892 111.889C19.9663 111.225 19.2588 110.543 18.5672 109.846Z" style="fill:var(--sapContent_Illustrative_Color19)"/>
<path d="M43.9469 88.0429C49.2237 93.3769 50.9903 100.453 48.5433 105.048C45.0262 106.629 41.9113 107.607 39.3276 107.896C38.0267 107.784 36.4867 107.355 34.9179 106.614L35.5508 105.887C36.9551 106.394 38.1838 106.371 38.9664 105.697C40.7259 104.18 39.5638 99.9474 36.3706 96.2422C33.1775 92.537 29.1626 90.7626 27.4031 92.2789C26.5664 93 26.3904 94.3355 26.7793 95.9363L26.1617 96.5216C25.8061 95.1883 25.6262 93.7407 25.6721 92.1801C26.0855 89.6611 27.0236 86.3866 28.555 82.6384C33.1041 81.3006 39.235 83.2799 43.9469 88.0429Z" style="fill:var(--sapContent_Illustrative_Color2)"/>
<path fill-rule="evenodd" clip-rule="evenodd" d="M19.0329 61.916L19.0288 61.9198C17.5252 63.3061 18.1088 65.8028 20.0711 66.379L34.8257 70.7111C37.4357 69.551 49.6196 59.4561 50.0657 51.6904C38.6603 66.9912 25.9274 65.5265 19.0329 61.916Z" style="fill:var(--sapContent_Illustrative_Color13)"/>
<path fill-rule="evenodd" clip-rule="evenodd" d="M3.36255 44.244C7.62379 31.6514 15.6976 20.8165 26.21 13.113C33.6928 16.0061 39 23.2703 39 31.774C39 42.8197 30.0457 51.774 19 51.774C12.6702 51.774 7.02724 48.8335 3.36255 44.244Z" style="fill:var(--sapContent_Illustrative_Color19)"/>
<path d="M15.3031 36.6866C15.2344 36.8866 13.7125 36.0085 12.2594 36.6866C10.5313 37.4897 10.3563 39.8116 9.975 39.7304C9.5375 39.6397 8.92187 36.3866 10.6531 35.2491C12.5219 34.0178 15.4 36.4022 15.3031 36.6866Z" style="fill:var(--sapContent_Illustrative_Color20)"/>
<path d="M24.0093 21.7676C23.9405 21.9676 22.4187 21.0926 20.9655 21.7676C19.2374 22.5738 19.0624 24.8926 18.6812 24.8144C18.2437 24.7207 17.6281 21.4676 19.3593 20.3301C21.228 19.102 24.1062 21.4863 24.0093 21.7676Z" style="fill:var(--sapContent_Illustrative_Color20)"/>
<path d="M29.9343 33.2708C29.8656 33.4677 28.3437 32.5927 26.8906 33.2708C25.1625 34.0739 24.9875 36.3958 24.6062 36.3145C24.1687 36.2208 23.5531 32.9677 25.2843 31.8333C27.1531 30.6021 30.0218 32.9864 29.9343 33.2708Z" style="fill:var(--sapContent_Illustrative_Color20)"/>
<path fill-rule="evenodd" clip-rule="evenodd" d="M3.36133 44.2476C3.64261 43.4162 3.94051 42.5925 4.25464 41.7768C6.16972 43.2395 8.3482 44.3555 10.694 45.0531C15.2436 46.4059 20.126 46.0966 24.4685 44.1805C28.811 42.2644 32.3304 38.8663 34.3978 34.5937C36.4651 30.3212 36.9455 25.4526 35.7531 20.8584C37.3348 23.2875 38.3696 26.0315 38.7858 28.9001C39.202 31.7688 38.9896 34.6936 38.1634 37.4721C37.3372 40.2505 35.9169 42.8162 34.0009 44.9914C32.0849 47.1666 29.719 48.8993 27.067 50.0695C24.415 51.2397 21.5403 51.8194 18.6421 51.7685C15.7438 51.7177 12.8912 51.0374 10.2819 49.7749C7.67264 48.5123 5.36897 46.6977 3.53047 44.4566C3.4736 44.3873 3.41722 44.3176 3.36133 44.2476Z" style="fill:var(--sapContent_Illustrative_Color20)"/>
<path d="M112.52 73.3926C112.366 70.8343 111.808 68.932 111.149 68.9353C110.49 68.9386 109.939 70.8507 109.798 73.4222C107.23 73.5993 105.321 74.1732 105.327 74.8358C105.334 75.4983 107.246 76.0264 109.808 76.1477C109.962 78.706 110.516 80.6083 111.175 80.6051C111.835 80.6018 112.386 78.6896 112.527 76.1182C115.095 75.9411 117.004 75.3671 116.997 74.7046C116.99 74.0421 115.078 73.5107 112.52 73.3926Z" style="fill:var(--sapContent_Illustrative_Color3)"/>
<path d="M52.3493 24.2766C52.2477 22.5579 51.8737 21.2788 51.431 21.2788C50.9882 21.2788 50.6176 22.5678 50.5224 24.2963C48.794 24.4144 47.5115 24.8014 47.5181 25.2442C47.5247 25.6869 48.8071 26.0444 50.5257 26.1232C50.6307 27.8451 51.0046 29.1242 51.4474 29.121C51.8901 29.1177 52.2608 27.832 52.3559 26.1035C54.0811 25.9854 55.3635 25.6017 55.3602 25.1556C55.357 24.7095 54.0713 24.3553 52.3493 24.2766Z" style="fill:var(--sapContent_Illustrative_Color3)"/>
</svg>
