<svg width="46" height="46" viewBox="0 0 46 46" fill="none" xmlns="http://www.w3.org/2000/svg" id="tnt-Dot-Radar">
<path fill-rule="evenodd" clip-rule="evenodd" d="M37.8309 43.2642C37.9574 43.6125 37.6994 43.9806 37.3289 43.9806H22.8536C22.4728 43.9806 22.2143 43.5933 22.3604 43.2415L30.2671 24.2082C30.3569 23.992 30.6295 23.9231 30.8113 24.0706V24.0706C30.8606 24.1107 30.8981 24.1633 30.9198 24.223L37.8309 43.2642Z" style="fill:var(--sapContent_Illustrative_Color8)"/>
<path fill-rule="evenodd" clip-rule="evenodd" d="M30.581 24.7555L22.822 43.4333C22.8186 43.4415 22.8187 43.4463 22.819 43.4495C22.8195 43.4538 22.8213 43.4595 22.8252 43.4653C22.8291 43.4711 22.8336 43.4749 22.8374 43.477C22.8402 43.4786 22.8447 43.4805 22.8536 43.4805H37.3288C37.3372 43.4805 37.3416 43.4787 37.3446 43.4771C37.3484 43.4751 37.3529 43.4714 37.3567 43.466C37.3606 43.4605 37.3625 43.455 37.3631 43.4507C37.3636 43.4474 37.3637 43.4426 37.3608 43.4347L30.581 24.7555ZM29.8052 24.0163C30.0233 23.4914 30.685 23.3241 31.1263 23.6824C31.246 23.7795 31.3371 23.9074 31.3897 24.0524L38.3008 43.0935C38.5456 43.7679 38.0461 44.4805 37.3288 44.4805H22.8536C22.1161 44.4805 21.6156 43.7307 21.8986 43.0496L29.8052 24.0163Z" style="fill:var(--sapContent_Illustrative_Color4)"/>
<path fill-rule="evenodd" clip-rule="evenodd" d="M34.1535 27.5801C34.1535 29.682 32.4498 31.3857 30.3479 31.3857C28.2465 31.3857 26.5427 29.682 26.5427 27.5801C26.5427 25.4786 28.2465 23.7749 30.3479 23.7749C32.4498 23.7749 34.1535 25.4786 34.1535 27.5801Z" style="fill:var(--sapContent_Illustrative_Color2)"/>
<path fill-rule="evenodd" clip-rule="evenodd" d="M7.52373 8.09617C7.37323 8.32769 7.43891 8.63739 7.67043 8.78789L24.2576 19.5705C24.4891 19.721 24.7988 19.6553 24.9493 19.4238C25.0998 19.1923 25.0342 18.8826 24.8026 18.7321L8.21545 7.94947C7.98393 7.79897 7.67423 7.86465 7.52373 8.09617Z" style="fill:var(--sapContent_Illustrative_Color4)"/>
<circle cx="2.0157" cy="2.0157" r="2.0157" transform="matrix(-0.930304 -0.366789 -0.366789 0.930304 10.5575 7.23267)" style="fill:var(--sapContent_Illustrative_Color9)"/>
<path fill-rule="evenodd" clip-rule="evenodd" d="M17.1811 22.4788C17.4273 22.3538 17.5255 22.0528 17.4005 21.8066L11.5668 10.318C11.4418 10.0718 11.1408 9.97352 10.8946 10.0985C10.6484 10.2236 10.5501 10.5245 10.6751 10.7707L16.5089 22.2594C16.6339 22.5056 16.9349 22.6038 17.1811 22.4788Z" style="fill:var(--sapContent_Illustrative_Color4)"/>
<path fill-rule="evenodd" clip-rule="evenodd" d="M24.5267 11.141C24.5107 11.4166 24.2742 11.6271 23.9985 11.6111L11.2071 10.8673C10.9314 10.8513 10.721 10.6148 10.737 10.3392C10.753 10.0635 10.9895 9.853 11.2652 9.86903L24.0565 10.6128C24.3322 10.6288 24.5427 10.8653 24.5267 11.141Z" style="fill:var(--sapContent_Illustrative_Color4)"/>
<path fill-rule="evenodd" clip-rule="evenodd" d="M27.9562 2.08863C28.1241 1.83372 28.4725 1.77106 28.7124 1.95977C35.3122 7.14989 36.88 16.72 32.0984 23.9767C27.3168 31.2334 17.9044 33.5684 10.5315 29.5515C10.2634 29.4055 10.1836 29.0607 10.3515 28.8058L27.9562 2.08863Z" style="fill:var(--sapContent_Illustrative_Color8)"/>
<path fill-rule="evenodd" clip-rule="evenodd" d="M9.93401 28.5305C9.6109 29.0209 9.75794 29.6994 10.2923 29.9905C17.8976 34.134 27.5939 31.7213 32.5159 24.2517C37.4378 16.782 35.8294 6.92038 29.0215 1.56661C28.5432 1.19046 27.8617 1.32302 27.5386 1.81339L9.93401 28.5305ZM10.7644 29.1035C10.7628 29.0968 10.7635 29.0891 10.769 29.0808L28.3736 2.3636C28.3791 2.35525 28.3859 2.35153 28.3927 2.35036C28.396 2.34978 28.3982 2.35009 28.3992 2.35032L28.3992 2.35033C28.3997 2.35044 28.4008 2.35072 28.4033 2.35266C34.795 7.37914 36.3221 16.6578 31.6809 23.7014C27.0396 30.7451 17.9111 33.0025 10.7707 29.1123C10.7679 29.1108 10.7672 29.1099 10.7669 29.1095L10.7669 29.1095C10.7663 29.1087 10.7652 29.1068 10.7644 29.1035Z" style="fill:var(--sapContent_Illustrative_Color4)"/>
</svg>
