<svg width="134" height="129" viewBox="0 0 134 129" fill="none" xmlns="http://www.w3.org/2000/svg" id="tnt-Spot-Success">
<circle cx="64.5044" cy="64.7703" r="64" style="fill:var(--sapContent_Illustrative_Color7)"/>
<path fill-rule="evenodd" clip-rule="evenodd" d="M4.45312 42.5873C8.61134 31.3346 15.8421 21.5708 25.1272 14.3142C33.0632 16.4898 38.8947 23.7545 38.8947 32.3811C38.8947 42.7264 30.5082 51.1129 20.1629 51.1129C13.5823 51.1129 7.79427 47.7196 4.45312 42.5873Z" style="fill:var(--sapContent_Illustrative_Color19)"/>
<path d="M16.7004 36.9824C16.6361 37.1697 15.2107 36.3473 13.8497 36.9824C12.2312 37.7346 12.0673 39.9092 11.7102 39.8331C11.3004 39.7483 10.7238 36.7014 12.3453 35.636C14.0956 34.4829 16.7912 36.716 16.7004 36.9824Z" style="fill:var(--sapContent_Illustrative_Color20)"/>
<path d="M24.8547 23.0093C24.7903 23.1966 23.365 22.3771 22.004 23.0093C20.3854 23.7644 20.2215 25.9361 19.8645 25.8629C19.4547 25.7751 18.8781 22.7283 20.4996 21.6629C22.2498 20.5127 24.9455 22.7459 24.8547 23.0093Z" style="fill:var(--sapContent_Illustrative_Color20)"/>
<path d="M30.4041 33.7832C30.3397 33.9675 28.9143 33.148 27.5533 33.7832C25.9348 34.5353 25.7709 36.71 25.4138 36.6339C25.004 36.5461 24.4274 33.4993 26.0489 32.4368C27.7992 31.2836 30.486 33.5168 30.4041 33.7832Z" style="fill:var(--sapContent_Illustrative_Color20)"/>
<path fill-rule="evenodd" clip-rule="evenodd" d="M4.45239 42.5897C4.67954 41.975 4.91585 41.3647 5.16117 40.7589C7.22074 42.6207 9.68393 44.0154 12.3838 44.8182C16.6449 46.0853 21.2177 45.7956 25.2848 44.001C29.3519 42.2063 32.6482 39.0238 34.5845 35.0221C36.5207 31.0205 36.9707 26.4606 35.8539 22.1577C37.3353 24.4328 38.3045 27.0027 38.6943 29.6895C39.0841 32.3763 38.8852 35.1157 38.1114 37.7179C37.3376 40.3202 36.0073 42.7232 34.2128 44.7604C32.4183 46.7977 30.2024 48.4205 27.7186 49.5165C25.2347 50.6125 22.5423 51.1555 19.8278 51.1079C17.1134 51.0602 14.4417 50.4231 11.9978 49.2406C9.55399 48.0581 7.39639 46.3586 5.67447 44.2596C5.23567 43.7247 4.82784 43.1672 4.45239 42.5897Z" style="fill:var(--sapContent_Illustrative_Color20)"/>
<path d="M64.9191 117.845C42.8723 117.845 24.9998 100.13 24.9998 78.2761C24.9998 56.4227 42.8723 38.707 64.9191 38.707C86.9659 38.707 104.838 56.4227 104.838 78.2761C104.838 100.13 86.9659 117.845 64.9191 117.845Z" style="fill:var(--sapContent_Illustrative_Color18)"/>
<path d="M64.9196 112.465C45.8703 112.465 30.4278 97.1583 30.4278 78.2761C30.4278 59.3939 45.8703 44.0869 64.9196 44.0869C83.9689 44.0869 99.4114 59.3939 99.4114 78.2761C99.4114 97.1583 83.9689 112.465 64.9196 112.465Z" style="fill:var(--sapContent_Illustrative_Color2)"/>
<path fill-rule="evenodd" clip-rule="evenodd" d="M85.4033 105.786L55.564 105.786C54.8956 105.786 54.3537 105.244 54.3537 104.576C54.3537 103.907 54.8956 103.365 55.564 103.365L88.3507 103.365C87.4149 104.225 86.4309 105.033 85.4033 105.786ZM92.211 99.1852H37.6276C35.7817 96.8214 34.2414 94.2111 33.0655 91.4128H58.8598C60.2409 91.4128 61.5932 91.0189 62.7584 90.2775L65.0869 88.7957C66.252 88.0542 67.6044 87.6604 68.9854 87.6604H96.3531C96.9341 87.6604 97.4951 87.7464 98.0239 87.9063C96.8004 92.0456 94.8082 95.8593 92.211 99.1852ZM99.2039 74.5068H72.806C71.9705 74.5068 71.2932 73.8295 71.2932 72.994C71.2932 72.1585 71.9705 71.4812 72.806 71.4812H98.7299C98.932 72.4748 99.0907 73.484 99.2039 74.5068ZM98.0816 68.8432C97.623 69.3563 96.9554 69.6894 96.1856 69.6894H46.9702C46.119 69.6894 45.4291 68.9994 45.4291 68.1483C45.4291 67.2972 44.7391 66.6072 43.8879 66.6072H32.4887C33.3639 64.2177 34.5003 61.9524 35.8636 59.8451C36.2014 59.7971 36.5433 59.7727 36.8866 59.7727H72.4991C72.4991 62.4371 74.659 64.597 77.3234 64.597H96.1856C96.3092 64.597 96.4313 64.606 96.5511 64.6233C97.1506 65.986 97.6631 67.3949 98.0816 68.8432ZM44.4697 50.7412H55.4734C56.3089 50.7412 56.9862 50.0639 56.9862 49.2284C56.9862 48.3929 56.3089 47.7156 55.4734 47.7156H49.4387C47.6922 48.5865 46.0307 49.6002 44.4697 50.7412ZM30.5306 80.939L52.9904 80.939C54.6614 80.939 56.016 82.2936 56.016 83.9646C56.016 85.6355 54.6614 86.9902 52.9904 86.9902L31.5579 86.9902C31.0398 85.0359 30.6918 83.0134 30.5306 80.939ZM60.3429 71.4812C59.5074 71.4812 58.8301 72.1585 58.8301 72.994C58.8301 73.8295 59.5074 74.5068 60.3429 74.5068H64.1517C64.9872 74.5068 65.6645 73.8295 65.6645 72.994C65.6645 72.1585 64.9872 71.4812 64.1517 71.4812H60.3429Z" style="fill:var(--sapContent_Illustrative_Color20)"/>
<path fill-rule="evenodd" clip-rule="evenodd" d="M68.4461 112.289C67.2866 112.406 66.1101 112.465 64.9196 112.465C51.9749 112.465 40.6958 105.397 34.796 94.9418C40.0704 98.1859 46.2928 100.059 52.9565 100.059C72.0058 100.059 87.4483 84.752 87.4483 65.8698C87.4483 59.8187 85.8624 54.1349 83.0802 49.2042C92.8832 55.2338 99.4113 65.9993 99.4113 78.2761C99.4113 91.3867 91.9664 102.774 81.0386 108.51C77.2115 110.519 72.9573 111.835 68.4461 112.289Z" style="fill:var(--sapContent_Illustrative_Color14)"/>
<path fill-rule="evenodd" clip-rule="evenodd" d="M55.564 105.786H85.4035C86.4312 105.033 87.4151 104.224 88.3509 103.365L55.564 103.365C54.8956 103.365 54.3538 103.907 54.3538 104.576C54.3538 105.244 54.8956 105.786 55.564 105.786ZM60.7387 99.1851H92.2112C94.8085 95.8592 96.8006 92.0455 98.0241 87.9064C97.4952 87.7463 96.9341 87.6603 96.3529 87.6603H79.5362C74.7927 93.3388 68.2326 97.4721 60.7387 99.1851ZM45.1745 99.1851H37.6281C36.5825 97.8461 35.6349 96.4281 34.7961 94.9417C37.9523 96.8829 41.448 98.3333 45.1745 99.1851ZM87.2356 69.6891C87.3762 68.4351 87.4484 67.1608 87.4484 65.8697C87.4484 65.4435 87.4405 65.0191 87.4249 64.5967H96.1856C96.3093 64.5967 96.4314 64.6056 96.5513 64.623C97.1508 65.9856 97.6632 67.3945 98.0817 68.8427C97.6231 69.3559 96.9555 69.6891 96.1856 69.6891H87.2356ZM86.9861 71.4808C86.8154 72.5055 86.5988 73.5147 86.3384 74.5064H99.2041C99.0909 73.4837 98.9323 72.4744 98.7301 71.4808H86.9861Z" style="fill:var(--sapContent_Illustrative_Color2)"/>
<path fill-rule="evenodd" clip-rule="evenodd" d="M64.4251 11.9355C65.2594 11.9355 65.9358 12.6119 65.9358 13.4463L65.9358 50.9888C65.9358 51.8232 65.2594 52.4995 64.4251 52.4995C63.5907 52.4995 62.9144 51.8232 62.9144 50.9888L62.9144 13.4463C62.9144 12.6119 63.5907 11.9355 64.4251 11.9355Z" style="fill:var(--sapContent_Illustrative_Color4)"/>
<path d="M78.3247 14.396C73.8761 11.2449 68.13 12.3107 65.813 13.2375V35.3646C78.9039 27.3711 78.3247 29.8039 90.2571 30.0356C99.803 30.2209 102.885 26.4057 103.232 24.4748C93.2692 26.2126 83.8854 18.3349 78.3247 14.396Z" style="fill:var(--sapContent_Illustrative_Color3)"/>
<path fill-rule="evenodd" clip-rule="evenodd" d="M81.7671 29.5495V16.8892C84.9406 19.1701 88.8044 21.7596 93.0374 23.3155V29.9695C92.1782 30.0305 91.2528 30.0547 90.2571 30.0354C87.6808 29.9854 85.6877 29.8327 84.0144 29.7046C83.1996 29.6422 82.4607 29.5856 81.7671 29.5495Z" style="fill:var(--sapContent_Illustrative_Color15)"/>
<path fill-rule="evenodd" clip-rule="evenodd" d="M70.5628 12.3V32.5947C69.198 33.3381 67.6384 34.25 65.813 35.3647V13.2375C66.8503 12.8226 68.575 12.3798 70.5628 12.3Z" style="fill:var(--sapContent_Illustrative_Color15)"/>
<path d="M99.8927 39.64C99.3587 38.3753 100.475 36.4752 102.731 34.3933C102.673 34.0038 102.632 33.6093 102.606 33.21C99.0049 36.1064 97.082 38.86 97.8151 40.5948C98.5482 42.3295 101.773 42.6723 106.225 41.8067C105.972 41.5285 105.729 41.24 105.498 40.941C102.517 41.3063 100.428 40.9047 99.8927 39.64Z" style="fill:var(--sapContent_Illustrative_Color18)"/>
<path fill-rule="evenodd" clip-rule="evenodd" d="M110.062 19.8206C116.35 26.1927 121.311 33.8774 124.496 42.4265C122.168 44.6683 119.067 46.036 115.662 46.036C108.435 46.036 102.576 39.8719 102.576 32.268C102.576 26.7721 105.636 22.0284 110.062 19.8206Z" style="fill:var(--sapContent_Illustrative_Color18)"/>
<path fill-rule="evenodd" clip-rule="evenodd" d="M122.65 37.9913C122.791 38.2983 122.93 38.6066 123.067 38.9162H122.309C122.245 38.9162 122.183 38.9013 122.125 38.8727C122.068 38.844 122.018 38.8023 121.978 38.7505C121.938 38.6988 121.91 38.6383 121.895 38.5735C121.88 38.5087 121.879 38.4412 121.892 38.376C121.915 38.2737 121.97 38.1827 122.048 38.1181C122.127 38.0534 122.224 38.0192 122.324 38.0211L122.65 37.9913ZM121.65 35.9233C120.473 36.5704 119.233 37.2006 117.944 37.8031C115.536 38.9288 113.177 39.8536 110.969 40.5636L110.97 40.5645C109.834 40.935 108.683 41.2563 107.522 41.5276C107.33 41.5727 107.14 41.6157 106.952 41.6566C106.709 41.7097 106.467 41.7605 106.223 41.8092C106.099 41.6731 105.978 41.5349 105.86 41.3946L105.845 41.3764C105.725 41.2345 105.609 41.0902 105.497 40.9436L105.5 40.9432L105.498 40.9411C105.583 40.9307 105.669 40.9197 105.755 40.9081C106.306 40.8299 106.855 40.7367 107.401 40.6285C110.377 40.0265 113.967 38.8196 117.693 37.0777C118.953 36.4889 120.159 35.8711 121.298 35.2371C121.416 35.465 121.534 35.6938 121.65 35.9233ZM118.406 30.2511H115.66C115.167 30.2509 114.694 30.0447 114.345 29.6778C113.997 29.3109 113.801 28.8135 113.801 28.2948V27.7685C113.801 27.6943 113.787 27.6208 113.76 27.5523C113.733 27.4837 113.694 27.4215 113.644 27.3691C113.594 27.3166 113.535 27.2751 113.469 27.2468C113.404 27.2185 113.334 27.2039 113.264 27.2041H104.886L104.886 27.2024H103.487L103.46 27.2768C103.424 27.3747 103.389 27.4725 103.355 27.5712L103.347 27.5952C103.336 27.625 103.326 27.6545 103.316 27.6846C103.293 27.754 103.271 27.825 103.248 27.8954L103.248 27.8955C103.23 27.9541 103.212 28.0123 103.193 28.0689C103.188 28.085 103.183 28.1014 103.178 28.1177L103.178 28.1177L103.171 28.1451C103.137 28.2576 103.105 28.3701 103.074 28.4844L103.046 28.5848C103.011 28.7216 102.976 28.8592 102.944 28.9977L102.939 29.0185C102.908 29.1527 102.88 29.2877 102.853 29.4228L102.836 29.5093C102.781 29.7976 102.733 30.0893 102.695 30.3836L102.685 30.4563C102.667 30.6035 102.651 30.7515 102.637 30.9004L102.64 30.9004L102.64 30.9012H113.15L118.828 30.9171C118.689 30.6942 118.548 30.4722 118.406 30.2511ZM112.735 32.2351H113.558C113.671 32.2351 113.779 32.2822 113.859 32.3662C113.938 32.4501 113.983 32.5639 113.983 32.6826C113.983 32.8013 113.938 32.9151 113.859 32.9991C113.779 33.083 113.671 33.1302 113.558 33.1302H112.735C112.622 33.1302 112.514 33.083 112.434 32.9991C112.354 32.9151 112.31 32.8013 112.31 32.6826C112.31 32.5639 112.354 32.4501 112.434 32.3662C112.514 32.2822 112.622 32.2351 112.735 32.2351ZM102.574 32.2344H102.577V32.2343H105.184L105.184 32.2344H110.72C110.833 32.2344 110.941 32.2814 111.02 32.3652C111.1 32.449 111.145 32.5626 111.145 32.681C111.145 32.799 111.101 32.9124 111.022 32.9962C110.943 33.0801 110.836 33.1276 110.723 33.1286H102.6C102.583 32.8446 102.574 32.5581 102.574 32.269V32.2344Z" style="fill:var(--sapContent_Illustrative_Color7)"/>
<path fill-rule="evenodd" clip-rule="evenodd" d="M124.496 42.4267C122.168 44.6684 119.067 46.0361 115.663 46.0361C111.145 46.0361 107.163 43.6282 104.811 39.9659C104.267 39.1186 103.81 38.2042 103.454 37.2369C103.071 36.1955 102.805 35.0927 102.672 33.9465C104.504 38.1541 108.542 41.077 113.229 41.077C116.771 41.077 119.944 39.4066 122.072 36.7737C122.967 38.6105 123.777 40.4966 124.496 42.4267Z" style="fill:var(--sapContent_Illustrative_Color19)"/>
<path fill-rule="evenodd" clip-rule="evenodd" d="M122.65 37.9912C122.791 38.2982 122.93 38.6065 123.067 38.916H122.309C122.245 38.9161 122.183 38.9012 122.126 38.8725C122.069 38.8439 122.018 38.8022 121.978 38.7504C121.938 38.6986 121.91 38.6381 121.895 38.5733C121.88 38.5085 121.879 38.4411 121.892 38.3759C121.915 38.2736 121.97 38.1825 122.049 38.1179C122.127 38.0533 122.225 38.0191 122.324 38.021L122.65 37.9912ZM106.952 41.6565C106.711 41.7093 106.469 41.7599 106.227 41.8084C105.974 41.5309 105.731 41.2422 105.5 40.9431L105.5 40.9431L105.499 40.941C105.583 40.9306 105.669 40.9196 105.755 40.9079C106.306 40.8298 106.855 40.7365 107.401 40.6283C107.926 40.5221 108.47 40.3971 109.031 40.2536C109.493 40.4426 109.97 40.6012 110.46 40.7272C109.489 41.0298 108.51 41.2967 107.522 41.5275C107.33 41.5725 107.14 41.6155 106.952 41.6565Z" style="fill:var(--sapContent_Illustrative_Color18)"/>
<path d="M113.024 73.3926C112.87 70.8343 112.313 68.932 111.653 68.9353C110.994 68.9386 110.443 70.8507 110.302 73.4222C107.734 73.5993 105.825 74.1732 105.832 74.8358C105.838 75.4983 107.75 76.0264 110.312 76.1477C110.466 78.706 111.02 80.6083 111.68 80.6051C112.339 80.6018 112.89 78.6896 113.031 76.1182C115.599 75.9411 117.508 75.3671 117.501 74.7046C117.495 74.0421 115.583 73.5107 113.024 73.3926Z" style="fill:var(--sapContent_Illustrative_Color3)"/>
<path d="M48.6452 26.1308C48.5436 24.4122 48.1696 23.1331 47.7269 23.1331C47.2841 23.1331 46.9135 24.422 46.8183 26.1505C45.0899 26.2686 43.8074 26.6556 43.814 27.0984C43.8205 27.5412 45.103 27.8987 46.8216 27.9774C46.9266 29.6993 47.3005 30.9785 47.7433 30.9752C48.186 30.9719 48.5567 29.6862 48.6518 27.9577C50.377 27.8397 51.6594 27.4559 51.6561 27.0098C51.6529 26.5638 50.3672 26.2096 48.6452 26.1308Z" style="fill:var(--sapContent_Illustrative_Color3)"/>
<path d="M17.241 76.2741C18.0717 75.4434 18.0717 74.0966 17.241 73.2659C16.4104 72.4352 15.0635 72.4352 14.2329 73.2659C13.4022 74.0966 13.4022 75.4434 14.2329 76.2741C15.0635 77.1048 16.4104 77.1048 17.241 76.2741Z" style="fill:var(--sapContent_Illustrative_Color18)"/>
<path d="M111.503 95.2498C111.952 94.8009 111.952 94.0731 111.503 93.6242C111.054 93.1753 110.326 93.1753 109.877 93.6242C109.428 94.0731 109.428 94.8009 109.877 95.2498C110.326 95.6988 111.054 95.6988 111.503 95.2498Z" style="fill:var(--sapContent_Illustrative_Color19)"/>
<path d="M10.3442 59.6074C10.8196 59.132 10.8196 58.3612 10.3442 57.8858C9.86876 57.4103 9.09796 57.4103 8.62254 57.8858C8.14712 58.3612 8.14712 59.132 8.62254 59.6074C9.09796 60.0828 9.86876 60.0828 10.3442 59.6074Z" style="fill:var(--sapContent_Illustrative_Color18)"/>
</svg>
