<svg width="128" height="128" viewBox="0 0 128 128" fill="none" xmlns="http://www.w3.org/2000/svg" id="tnt-Spot-SuccessfulAuth">
<circle cx="64" cy="64.7703" r="64" style="fill:var(--sapContent_Illustrative_Color7)"/>
<path d="M0 97.7734C0 96.8375 0.758678 96.0789 1.69455 96.0789H112.409C113.345 96.0789 114.104 96.8375 114.104 97.7734V98.4708H0V97.7734Z" style="fill:var(--sapContent_Illustrative_Color2)"/>
<path d="M2.34207 100.509C2.65261 100.787 3.05436 100.94 3.47068 100.94H110.633C111.049 100.94 111.451 100.787 111.762 100.509L114.104 98.4182H0L2.34207 100.509Z" style="fill:var(--sapContent_Illustrative_Color13)"/>
<rect x="11.2305" y="35.0415" width="91.6448" height="61.1446" rx="3.38911" style="fill:var(--sapContent_Illustrative_Color2)"/>
<path d="M57.0516 37.0871C57.3757 37.0871 57.6384 36.824 57.6384 36.4994C57.6384 36.1748 57.3757 35.9116 57.0516 35.9116C56.7276 35.9116 56.4648 36.1748 56.4648 36.4994C56.4648 36.824 56.7276 37.0871 57.0516 37.0871Z" style="fill:var(--sapContent_Illustrative_Color14)"/>
<rect x="14.2598" y="37.8909" width="85.5853" height="55.4455" rx="2.25941" style="fill:var(--sapContent_Illustrative_Color8)"/>
<path d="M50.4141 95.7385H63.69V96.1451C63.69 96.769 63.1842 97.2748 62.5603 97.2748H51.5438C50.9198 97.2748 50.4141 96.769 50.4141 96.1451V95.7385Z" style="fill:var(--sapContent_Illustrative_Color14)"/>
<rect x="28.5586" y="66.4226" width="56.9816" height="8.43316" rx="1.69455" style="fill:var(--sapContent_Illustrative_Color6)"/>
<path d="M66.6817 52.2276C66.6817 57.1701 62.675 61.1768 57.7325 61.1768C52.7899 61.1768 48.7832 57.1701 48.7832 52.2276C48.7832 47.285 52.7899 43.2783 57.7325 43.2783C62.675 43.2783 66.6817 47.285 66.6817 52.2276Z" style="fill:var(--sapContent_Illustrative_Color16)"/>
<path fill-rule="evenodd" clip-rule="evenodd" d="M51.0137 58.1395C51.4723 55.7763 53.5441 54.0589 55.964 54.0589H59.5231C61.9359 54.0589 64.0026 55.7662 64.4693 58.1186C62.829 59.9931 60.4189 61.1769 57.7323 61.1769C55.0558 61.1769 52.6537 60.0019 51.0137 58.1395ZM60.7691 49.016C60.7691 50.6871 59.4144 52.0418 57.7433 52.0418C56.0722 52.0418 54.7175 50.6871 54.7175 49.016C54.7175 47.3449 56.0722 45.9902 57.7433 45.9902C59.4144 45.9902 60.7691 47.3449 60.7691 49.016Z" style="fill:var(--sapContent_Illustrative_Color8)"/>
<path fill-rule="evenodd" clip-rule="evenodd" d="M57.7325 59.6912C61.8545 59.6912 65.196 56.3496 65.196 52.2276C65.196 48.1056 61.8545 44.764 57.7325 44.764C53.6104 44.764 50.2689 48.1056 50.2689 52.2276C50.2689 56.3496 53.6104 59.6912 57.7325 59.6912ZM57.7325 61.1768C62.675 61.1768 66.6817 57.1701 66.6817 52.2276C66.6817 47.285 62.675 43.2783 57.7325 43.2783C52.7899 43.2783 48.7832 47.285 48.7832 52.2276C48.7832 57.1701 52.7899 61.1768 57.7325 61.1768Z" style="fill:var(--sapContent_Illustrative_Color16)"/>
<rect x="28.5586" y="78.5063" width="56.9816" height="8.43316" rx="1.69455" style="fill:var(--sapContent_Illustrative_Color6)"/>
<circle cx="33.938" cy="70.6392" r="1.36965" style="fill:var(--sapContent_Illustrative_Color4)"/>
<circle cx="40.0669" cy="70.6392" r="1.36965" style="fill:var(--sapContent_Illustrative_Color4)"/>
<circle cx="46.1939" cy="70.6392" r="1.36965" style="fill:var(--sapContent_Illustrative_Color4)"/>
<circle cx="52.3228" cy="70.6392" r="1.36965" style="fill:var(--sapContent_Illustrative_Color4)"/>
<circle cx="33.938" cy="82.7229" r="1.36965" style="fill:var(--sapContent_Illustrative_Color4)"/>
<circle cx="40.0669" cy="82.7229" r="1.36965" style="fill:var(--sapContent_Illustrative_Color4)"/>
<circle cx="46.1939" cy="82.7229" r="1.36965" style="fill:var(--sapContent_Illustrative_Color4)"/>
<circle cx="52.3228" cy="82.7229" r="1.36965" style="fill:var(--sapContent_Illustrative_Color4)"/>
<circle cx="58.4517" cy="82.7229" r="1.36965" style="fill:var(--sapContent_Illustrative_Color4)"/>
<circle cx="64.5806" cy="82.7229" r="1.36965" style="fill:var(--sapContent_Illustrative_Color4)"/>
<path d="M91.4842 116.116C91.4842 115.43 89.4946 114.882 86.8361 114.757C86.6841 112.102 86.099 110.128 85.4135 110.129C84.7279 110.131 84.158 112.12 84.012 114.789C81.346 114.971 79.364 115.567 79.3731 116.254C79.3822 116.941 81.3627 117.489 84.0212 117.613C84.1808 120.268 84.7583 122.242 85.4423 122.24C86.1263 122.239 86.6993 120.249 86.8453 117.581C89.5113 117.398 91.4918 116.803 91.4842 116.116Z" style="fill:var(--sapContent_Illustrative_Color18)"/>
<path d="M58.9695 19.3498C58.9695 18.3217 55.985 17.4987 51.9974 17.3118C51.7694 13.3291 50.8916 10.3678 49.8633 10.3701C48.8351 10.3724 47.9801 13.3565 47.7612 17.3596C43.7622 17.6332 40.7891 18.5268 40.8028 19.5572C40.8165 20.5877 43.7873 21.4106 47.7749 21.5953C48.0143 25.5779 48.8807 28.5392 49.9067 28.5369C50.9326 28.5346 51.7922 25.5505 52.0111 21.5474C56.0101 21.2738 58.9809 20.3802 58.9695 19.3498Z" style="fill:var(--sapContent_Illustrative_Color18)"/>
<rect x="94.2598" y="84.5071" width="24.1113" height="23.3432" style="fill:var(--sapContent_Illustrative_Color8)"/>
<path d="M106.269 74.9092C102.062 74.9092 97.9497 76.1566 94.4516 78.4937C90.9536 80.8308 88.2272 84.1527 86.6172 88.0392C85.0073 91.9256 84.586 96.2022 85.4068 100.328C86.2275 104.454 88.2534 108.244 91.2283 111.218C94.2031 114.193 97.9933 116.219 102.119 117.039C106.246 117.86 110.523 117.439 114.409 115.829C118.296 114.219 121.618 111.493 123.956 107.995C126.293 104.498 127.541 100.385 127.541 96.1786C127.524 90.5427 125.277 85.1424 121.292 81.1573C117.306 77.1721 111.906 74.9258 106.269 74.9092ZM116.26 91.2867L103.497 104.048C103.305 104.252 103.073 104.414 102.816 104.525C102.559 104.636 102.282 104.693 102.002 104.693C101.722 104.693 101.445 104.636 101.187 104.525C100.93 104.414 100.698 104.252 100.506 104.048L96.2519 99.7944C95.8552 99.3978 95.6324 98.8599 95.6324 98.2989C95.6324 97.738 95.8552 97.2001 96.2519 96.8034C96.6485 96.4068 97.1865 96.184 97.7475 96.184C98.3085 96.184 98.8465 96.4068 99.2431 96.8034L102.008 99.5684L113.282 88.2956C113.679 87.899 114.217 87.6762 114.778 87.6762C115.056 87.6762 115.331 87.7309 115.587 87.8372C115.844 87.9435 116.077 88.0992 116.273 88.2956C116.47 88.492 116.626 88.7252 116.732 88.9818C116.838 89.2384 116.893 89.5134 116.893 89.7911C116.893 90.0689 116.838 90.3439 116.732 90.6005C116.626 90.8571 116.47 91.0903 116.273 91.2867H116.26Z" style="fill:var(--sapContent_Illustrative_Color12)"/>
</svg>
