<svg width="333" height="248" viewBox="0 0 333 248" fill="none" xmlns="http://www.w3.org/2000/svg" id="tnt-Scene-NoFlows">
<path d="M317.711 28.0059H26.6174C24.72 28.0041 22.8408 28.3763 21.0874 29.1012C19.3339 29.8261 17.7404 30.8895 16.3982 32.2305C15.0559 33.5716 13.991 35.164 13.2645 36.9168C12.538 38.6696 12.1641 40.5485 12.1641 42.4459V213.553C12.1641 217.386 13.6868 221.062 16.3973 223.773C19.1079 226.483 22.7841 228.006 26.6174 228.006H317.711C321.544 228.006 325.22 226.483 327.931 223.773C330.641 221.062 332.164 217.386 332.164 213.553V42.4459C332.164 40.5485 331.79 38.6696 331.064 36.9168C330.337 35.164 329.272 33.5716 327.93 32.2305C326.588 30.8895 324.994 29.8261 323.241 29.1012C321.487 28.3763 319.608 28.0041 317.711 28.0059Z" style="fill:var(--sapContent_Illustrative_Color7)"/>
<path d="M268.265 16.9607C268.575 17.3207 268.782 17.7576 268.864 18.2253C268.946 18.6929 268.901 19.1742 268.733 19.6183L265.01 30.2861C264.395 32.0507 262.606 32.4914 261.223 32.0091C260.65 31.8323 260.149 31.4743 259.797 30.9888C259.445 30.5033 259.26 29.9165 259.269 29.3167C259.283 29.0271 259.34 28.7411 259.439 28.4685L263.162 17.8008C263.316 17.3294 263.594 16.9083 263.967 16.5822C264.341 16.256 264.795 16.0369 265.283 15.9479C265.825 15.8488 266.384 15.8898 266.906 16.067C267.428 16.2443 267.896 16.5519 268.265 16.9607Z" style="fill:var(--sapContent_Illustrative_Color5)"/>
<path d="M305.206 65.9913C305.261 66.3266 305.246 66.6698 305.161 66.9989C305.077 67.3281 304.924 67.6359 304.714 67.9028C304.503 68.1697 304.24 68.3899 303.94 68.5491C303.639 68.7084 303.309 68.8033 302.97 68.8278L292.041 70.1231C291.648 70.1683 291.25 70.1348 290.869 70.0244C290.489 69.914 290.135 69.7291 289.828 69.4803C289.52 69.2315 289.265 68.9239 289.077 68.5754C288.89 68.227 288.773 67.8446 288.735 67.4507C288.715 67.2888 288.708 67.1254 288.714 66.9623C288.729 66.3592 288.97 65.7837 289.388 65.3492C289.807 64.9147 290.373 64.6527 290.975 64.6149L301.899 63.323C302.292 63.2771 302.691 63.31 303.071 63.4198C303.451 63.5297 303.805 63.7142 304.113 63.9627C304.421 64.2112 304.676 64.5186 304.864 64.8669C305.051 65.2152 305.168 65.5975 305.206 65.9913Z" style="fill:var(--sapContent_Illustrative_Color5)"/>
<path d="M295.567 36.6594C295.53 37.0289 295.418 37.3869 295.238 37.7116C295.058 38.0363 294.813 38.3209 294.52 38.5479L281.444 48.8653C280.855 49.3248 280.111 49.5387 279.368 49.4624C278.625 49.3862 277.941 49.0256 277.457 48.4561C277.011 47.926 276.78 47.2476 276.811 46.5554C276.829 46.1565 276.933 45.7662 277.116 45.4111C277.299 45.056 277.556 44.7444 277.87 44.4977L290.945 34.1803C291.537 33.7179 292.285 33.5029 293.032 33.5805C293.779 33.6582 294.467 34.0225 294.951 34.5968C295.188 34.8815 295.364 35.2109 295.47 35.5653C295.575 35.9198 295.608 36.2919 295.567 36.6594Z" style="fill:var(--sapContent_Illustrative_Color5)"/>
<path d="M312.283 104.281C312.283 102.923 308.34 101.835 303.072 101.589C302.771 96.3271 301.612 92.415 300.253 92.418C298.895 92.421 297.765 96.3633 297.476 101.652C292.193 102.013 288.265 103.194 288.283 104.555C288.301 105.916 292.226 107.003 297.494 107.247C297.81 112.509 298.955 116.421 300.31 116.418C301.666 116.415 302.801 112.473 303.09 107.184C308.374 106.823 312.298 105.642 312.283 104.281Z" style="fill:var(--sapContent_Illustrative_Color18)"/>
<path d="M53.6211 194.88C53.6211 193.974 50.9926 193.25 47.4805 193.085C47.2797 189.577 46.5066 186.969 45.601 186.971C44.6954 186.973 43.9424 189.601 43.7496 193.127C40.2276 193.368 37.6091 194.155 37.6211 195.063C37.6332 195.97 40.2497 196.695 43.7617 196.857C43.9725 200.365 44.7356 202.973 45.6392 202.971C46.5428 202.969 47.2998 200.341 47.4926 196.815C51.0146 196.574 53.6311 195.787 53.6211 194.88Z" style="fill:var(--sapContent_Illustrative_Color18)"/>
<path d="M157.338 49.0344C157.338 47.6761 153.395 46.5889 148.127 46.3419C147.826 41.0805 146.666 37.1684 145.308 37.1714C143.949 37.1744 142.82 41.1167 142.531 46.4052C137.248 46.7666 133.32 47.9471 133.338 49.3084C133.356 50.6697 137.281 51.7569 142.549 52.0008C142.865 57.2622 144.01 61.1744 145.365 61.1714C146.72 61.1684 147.856 57.2261 148.145 51.9376C153.428 51.5762 157.353 50.3956 157.338 49.0344Z" style="fill:var(--sapContent_Illustrative_Color18)"/>
<path d="M46.6794 48.0209C47.6036 47.0179 48.8881 46.4226 50.2508 46.3657C51.6135 46.3088 52.943 46.795 53.9476 47.7175L115.054 104.022C116.055 104.948 116.648 106.234 116.703 107.596C116.757 108.959 116.269 110.288 115.345 111.291L75.4178 154.623C74.4941 155.625 73.2101 156.219 71.8482 156.275C70.4862 156.331 69.1579 155.843 68.1555 154.92L12.7828 103.898L13.8884 83.6081L46.6794 48.0209Z" style="fill:var(--sapContent_Illustrative_Color19)"/>
<path d="M46.4783 43.1139C47.4025 42.1109 48.6869 41.5156 50.0496 41.4587C51.4123 41.4018 52.7419 41.888 53.7464 42.8105L114.852 99.1153C115.854 100.041 116.447 101.327 116.502 102.689C116.556 104.052 116.068 105.381 115.144 106.384L75.2166 149.716C74.7593 150.212 74.2086 150.613 73.5962 150.897C72.9837 151.18 72.3213 151.341 71.647 151.368C70.9726 151.396 70.2994 151.29 69.6658 151.058C69.0323 150.825 68.4507 150.47 67.9543 150.013L12.5816 98.9905L13.6872 78.7011L46.4783 43.1139Z" style="fill:var(--sapContent_Illustrative_Color18)"/>
<path d="M23.207 87.46L14.9124 101.125L12.5885 98.984L23.207 87.46Z" style="fill:var(--sapContent_Illustrative_Color20)"/>
<path d="M23.2063 87.4603L12.5877 98.9843L13.6934 78.6948L23.2063 87.4603Z" style="fill:var(--sapContent_Illustrative_Color19)"/>
<path d="M91.1816 34.9559C96.7905 44.718 102.345 56.3441 94.3872 59.9031C84.4102 64.3612 79.9458 54.7015 74.323 44.9074C68.7002 35.1133 65.4913 26.2633 72.6042 22.1882C79.2725 18.3535 85.5468 25.1518 91.1816 34.9559Z" style="fill:var(--sapContent_Illustrative_Color20)"/>
<path d="M92.7412 22.6967C94.3791 17.1943 93.2033 11.9888 90.115 11.0699C87.0266 10.1511 83.1953 13.8667 81.5574 19.3691C79.9196 24.8715 81.0954 30.0769 84.1837 30.9958C87.272 31.9147 91.1034 28.199 92.7412 22.6967Z" style="fill:var(--sapContent_Illustrative_Color20)"/>
<path d="M111.464 38.4792C114.041 44.3682 113.338 50.3339 109.923 51.8666C101.581 55.6095 101.175 50.0757 99.0436 43.9151C96.9124 37.7544 97.1891 32.1052 100.584 30.5277C106.807 27.6288 108.873 32.5582 111.464 38.4792Z" style="fill:var(--sapContent_Illustrative_Color20)"/>
<path d="M123.638 53.8047L77.571 73.9662C77.0259 74.2048 76.7774 74.84 77.0159 75.385L90.6263 106.483C90.8649 107.028 91.5001 107.277 92.0452 107.038L138.112 86.8767C138.657 86.6381 138.906 86.0029 138.667 85.4579L125.057 54.3596C124.818 53.8146 124.183 53.5661 123.638 53.8047Z" style="fill:var(--sapContent_Illustrative_Color19)"/>
<path d="M121.183 48.2823L75.1862 68.413C74.6411 68.6516 74.3926 69.2868 74.6311 69.8318L79.5166 80.9946C79.7552 81.5397 80.3904 81.7881 80.9355 81.5495L126.932 61.4188C127.477 61.1803 127.725 60.5451 127.487 60L122.601 48.8372C122.363 48.2922 121.728 48.0438 121.183 48.2823Z" style="fill:var(--sapContent_Illustrative_Color20)"/>
<path d="M122.095 42.775L70.8952 65.1833C70.3501 65.4218 70.1016 66.0571 70.3401 66.6021L75.694 78.8351C75.9325 79.3801 76.5677 79.6285 77.1128 79.39L128.313 56.9817C128.858 56.7431 129.107 56.1079 128.868 55.5629L123.514 43.3299C123.276 42.7849 122.641 42.5365 122.095 42.775Z" style="fill:var(--sapContent_Illustrative_Color19)"/>
<path d="M72.0954 103.83C70.159 98.0461 73.8076 91.8907 79.8114 90.8131L244.526 61.2478C249.411 60.371 254.199 63.2096 255.775 67.9159L287.699 163.274C289.636 169.059 285.987 175.214 279.983 176.292L115.269 205.857C110.384 206.734 105.595 203.895 104.02 199.189L72.0954 103.83Z" style="fill:var(--sapContent_Illustrative_Color14)"/>
<path d="M75.9348 89.4686L72.7041 96.2758L80.2661 94.614L75.9348 89.4686Z" style="fill:var(--sapContent_Illustrative_Color14)"/>
<path d="M287.205 165.495L287.141 170.91L289.677 165.495L287.205 165.495Z" style="fill:var(--sapContent_Illustrative_Color14)"/>
<path d="M75.2497 97.5015C73.3133 91.7173 76.9619 85.5619 82.9657 84.4842L247.68 54.919C252.565 54.0422 257.354 56.8808 258.929 61.5871L290.854 156.946C292.79 162.73 289.142 168.885 283.138 169.963L118.423 199.528C113.539 200.405 108.75 197.566 107.174 192.86L75.2497 97.5015Z" style="fill:var(--sapContent_Illustrative_Color2)"/>
<path d="M75.2557 97.5193C73.3172 91.7289 76.9755 85.5683 82.9874 84.4992L247.788 55.1908C252.668 54.3228 257.448 57.1611 259.021 61.8616L264.231 77.4233L79.525 110.272L75.2557 97.5193Z" style="fill:var(--sapContent_Illustrative_Color13)"/>
<path d="M96.3328 121.844C95.5582 119.53 97.0178 117.068 99.4195 116.637L251.461 89.3577C253.415 89.0071 255.331 90.1425 255.961 92.0249L276.979 154.807C277.754 157.121 276.294 159.583 273.892 160.014L121.85 187.293C119.897 187.643 117.981 186.508 117.351 184.625L96.3328 121.844Z" style="fill:var(--sapContent_Illustrative_Color13)"/>
<path d="M99.1727 117.729C98.398 115.415 99.8577 112.953 102.259 112.522L254.301 85.2429C256.255 84.8923 258.171 86.0278 258.801 87.9102L279.819 150.692C280.594 153.006 279.134 155.468 276.732 155.899L124.69 183.178C122.736 183.529 120.821 182.393 120.191 180.511L99.1727 117.729Z" style="fill:var(--sapContent_Illustrative_Color8)"/>
<path d="M114.985 127.316C114.373 125.488 115.526 123.544 117.422 123.204L150.609 117.249C152.152 116.973 153.665 117.869 154.162 119.356L157.954 130.681C158.566 132.508 157.413 134.452 155.517 134.793L122.329 140.747C120.786 141.024 119.274 140.127 118.776 138.641L114.985 127.316Z" style="fill:var(--sapContent_Illustrative_Color6)"/>
<path d="M125.143 156.429C124.531 154.601 125.684 152.657 127.58 152.317L160.768 146.362C162.311 146.086 163.823 146.982 164.321 148.469L168.112 159.794C168.724 161.621 167.571 163.565 165.675 163.906L132.487 169.86C130.944 170.137 129.432 169.24 128.934 167.754L125.143 156.429Z" style="fill:var(--sapContent_Illustrative_Color6)"/>
<circle cx="91.0356" cy="95.2747" r="4.5" transform="rotate(-18.5096 91.0356 95.2747)" style="fill:var(--sapContent_Illustrative_Color20)"/>
<circle cx="108.108" cy="92.417" r="4.5" transform="rotate(-18.5096 108.108 92.417)" style="fill:var(--sapContent_Illustrative_Color20)"/>
<circle cx="125.182" cy="89.2795" r="4.5" transform="rotate(-18.5096 125.182 89.2795)" style="fill:var(--sapContent_Illustrative_Color20)"/>
<path d="M170.346 121.062L183.213 108.196C183.973 107.435 185.108 107.189 186.116 107.566L205.376 114.765C206.028 115.009 206.238 115.829 205.782 116.356L193.96 130.017C193.193 130.903 191.95 131.205 190.863 130.77L170.682 122.698C170.015 122.431 169.838 121.57 170.346 121.062Z" style="fill:var(--sapContent_Illustrative_Color6)"/>
<path fill-rule="evenodd" clip-rule="evenodd" d="M145.08 159.081L134.487 127.383L137.332 126.432L147.925 158.13L145.08 159.081Z" style="fill:var(--sapContent_Illustrative_Color6)"/>
<path fill-rule="evenodd" clip-rule="evenodd" d="M245.319 109.987L129.429 131.214L128.889 128.263L244.779 107.036L245.319 109.987Z" style="fill:var(--sapContent_Illustrative_Color6)"/>
<ellipse cx="14.068" cy="13.3149" rx="14.068" ry="13.3149" transform="matrix(0.998834 -0.0482839 0.252197 0.967676 215.438 98.6143)" style="fill:var(--sapContent_Illustrative_Color6)"/>
<path d="M270.918 209C290.203 209 305.836 193.367 305.836 174.082C305.836 154.797 290.203 139.164 270.918 139.164C251.633 139.164 236 154.797 236 174.082C236 193.367 251.633 209 270.918 209Z" style="fill:var(--sapContent_Illustrative_Color3)"/>
<path d="M270.93 155.068H270.918C268.312 155.068 266.199 157.181 266.199 159.786V188.379C266.199 190.985 268.312 193.097 270.918 193.097H270.93C273.536 193.097 275.649 190.985 275.649 188.379V159.786C275.649 157.181 273.536 155.068 270.93 155.068Z" style="fill:var(--sapContent_Illustrative_Color8)"/>
<path d="M252.711 173.543V174.61C252.711 176.925 254.587 178.802 256.902 178.802H284.968C287.282 178.802 289.159 176.925 289.159 174.61V173.543C289.159 171.229 287.282 169.352 284.968 169.352H256.902C254.587 169.352 252.711 171.229 252.711 173.543Z" style="fill:var(--sapContent_Illustrative_Color8)"/>
</svg>
