<svg width="321" height="240" viewBox="0 0 321 240" fill="none" xmlns="http://www.w3.org/2000/svg" id="tnt-Scene-Lock">
<path d="M305.711 20.0059H14.6174C12.72 20.0041 10.8408 20.3763 9.08735 21.1012C7.33387 21.8261 5.74044 22.8895 4.39815 24.2305C3.05586 25.5716 1.99103 27.164 1.26452 28.9168C0.538005 30.6696 0.164062 32.5485 0.164063 34.4459V205.553C0.164063 209.386 1.68681 213.062 4.39734 215.773C7.10786 218.483 10.7841 220.006 14.6174 220.006H305.711C309.544 220.006 313.22 218.483 315.931 215.773C318.641 213.062 320.164 209.386 320.164 205.553V34.4459C320.164 32.5485 319.79 30.6696 319.064 28.9168C318.337 27.164 317.272 25.5716 315.93 24.2305C314.588 22.8895 312.994 21.8261 311.241 21.1012C309.487 20.3763 307.608 20.0041 305.711 20.0059Z" style="fill:var(--sapContent_Illustrative_Color7)"/>
<rect x="27.8623" y="202.574" width="231.534" height="17.4263" rx="4" style="fill:var(--sapContent_Illustrative_Color18)"/>
<path d="M199.019 206.574C199.019 204.365 200.809 202.574 203.019 202.574H297.906C300.115 202.574 301.906 204.365 301.906 206.574V216C301.906 218.209 300.115 220 297.906 220H203.019C200.809 220 199.019 218.209 199.019 216V206.574Z" style="fill:var(--sapContent_Illustrative_Color20)"/>
<rect x="51.3525" y="39.7451" width="28.3814" height="35.9498" rx="3.15349" style="fill:var(--sapContent_Illustrative_Color18)"/>
<rect x="53.2451" y="41.6372" width="24.5973" height="32.1656" rx="1.8921" style="fill:var(--sapContent_Illustrative_Color7)"/>
<path fill-rule="evenodd" clip-rule="evenodd" d="M76.5811 73.6952V41.7449C77.3155 42.0045 77.8418 42.7046 77.8425 43.5278V71.9123C77.8418 72.7354 77.3155 73.4356 76.5811 73.6952Z" style="fill:var(--sapContent_Illustrative_Color19)"/>
<path d="M53.2451 58.666C53.2451 58.666 59.5521 58.666 63.6516 64.3423C67.7512 70.0186 70.274 73.8028 70.274 73.8028H55.1372C54.0922 73.8028 53.2451 72.9557 53.2451 71.9107V58.666Z" style="fill:var(--sapContent_Illustrative_Color19)"/>
<path d="M68.864 67.594C67.8119 67.315 66.7801 67.6553 65.6669 68.3053C64.8195 68.8305 63.9996 69.4037 63.211 70.0224C61.8131 71.0752 60.5787 72.3505 59.5518 73.8028H74.0578C71.1514 70.9483 71.0933 68.1858 68.864 67.594Z" style="fill:var(--sapContent_Illustrative_Color20)"/>
<path d="M70.4526 58.1585C72.293 58.1585 73.785 56.7191 73.785 54.9435C73.785 53.1679 72.293 51.7285 70.4526 51.7285C68.6121 51.7285 67.1201 53.1679 67.1201 54.9435C67.1201 56.7191 68.6121 58.1585 70.4526 58.1585Z" style="fill:var(--sapContent_Illustrative_Color18)"/>
<rect x="22.2764" y="88.6721" width="39.4831" height="50.0119" rx="4.38701" style="fill:var(--sapContent_Illustrative_Color18)"/>
<rect x="24.9082" y="91.3044" width="34.2187" height="44.7475" rx="2.63221" style="fill:var(--sapContent_Illustrative_Color7)"/>
<path fill-rule="evenodd" clip-rule="evenodd" d="M57.373 135.902V91.4541C58.3954 91.8154 59.1279 92.7905 59.1279 93.9365V133.42C59.1279 134.566 58.3954 135.541 57.373 135.902Z" style="fill:var(--sapContent_Illustrative_Color19)"/>
<path d="M42.8111 108.245C43.1627 111.537 43.2852 115.326 40.7817 115.346C37.6433 115.371 37.581 112.241 37.2294 108.938C36.8778 105.635 37.0526 102.872 39.3933 102.613C41.5894 102.366 42.4574 104.938 42.8111 108.245Z" style="fill:var(--sapContent_Illustrative_Color18)"/>
<path d="M44.6315 105.125C45.6961 103.835 45.9861 102.294 45.2794 101.682C44.5726 101.07 43.1367 101.619 42.0721 102.909C41.0075 104.199 40.7175 105.74 41.4242 106.352C42.131 106.964 43.5669 106.415 44.6315 105.125Z" style="fill:var(--sapContent_Illustrative_Color18)"/>
<path d="M47.741 111.587C47.741 113.478 46.869 115.003 45.7941 115.013C43.168 115.038 43.6984 113.498 43.8471 111.587C43.9958 109.675 44.7191 108.185 45.7941 108.16C47.7651 108.113 47.741 109.685 47.741 111.587Z" style="fill:var(--sapContent_Illustrative_Color18)"/>
<path d="M49.1796 117.153H34.7372C34.5663 117.153 34.4277 117.295 34.4277 117.47V127.456C34.4277 127.631 34.5663 127.773 34.7372 127.773H49.1796C49.3505 127.773 49.489 127.631 49.489 127.456V117.47C49.489 117.295 49.3505 117.153 49.1796 117.153Z" style="fill:var(--sapContent_Illustrative_Color18)"/>
<path d="M49.1702 115.375H34.7499C34.579 115.375 34.4404 115.517 34.4404 115.692V119.277C34.4404 119.452 34.579 119.594 34.7499 119.594H49.1702C49.3411 119.594 49.4796 119.452 49.4796 119.277V115.692C49.4796 115.517 49.3411 115.375 49.1702 115.375Z" style="fill:var(--sapContent_Illustrative_Color19)"/>
<path d="M50.0438 113.999H33.992C33.8211 113.999 33.6826 114.14 33.6826 114.315V118.244C33.6826 118.419 33.8211 118.561 33.992 118.561H50.0438C50.2147 118.561 50.3533 118.419 50.3533 118.244V114.315C50.3533 114.14 50.2147 113.999 50.0438 113.999Z" style="fill:var(--sapContent_Illustrative_Color18)"/>
<rect x="90.7148" y="76.0085" width="178.1" height="113.946" rx="12.3835" style="fill:var(--sapContent_Illustrative_Color13)"/>
<rect x="90.7148" y="76.0085" width="138.824" height="113.946" rx="12.3835" style="fill:var(--sapContent_Illustrative_Color2)"/>
<rect x="111.592" y="96.7041" width="101.572" height="77.0582" rx="9.00618" style="fill:var(--sapContent_Illustrative_Color14)"/>
<rect x="109.341" y="94.4524" width="101.572" height="77.0582" rx="9.00618" style="fill:var(--sapContent_Illustrative_Color19)"/>
<rect x="105.477" y="104.479" width="8.75772" height="24.4715" rx="4.37886" style="fill:var(--sapContent_Illustrative_Color13)"/>
<rect x="105.477" y="120.737" width="5.83994" height="2.26391" style="fill:var(--sapContent_Illustrative_Color2)"/>
<rect x="105.477" y="137.8" width="8.75772" height="24.4715" rx="4.37886" style="fill:var(--sapContent_Illustrative_Color13)"/>
<rect x="105.477" y="154.059" width="5.83994" height="2.26391" style="fill:var(--sapContent_Illustrative_Color2)"/>
<rect x="193.891" y="107.576" width="9.82573" height="50.812" rx="4.91287" style="fill:var(--sapContent_Illustrative_Color14)"/>
<rect x="193.891" y="107.576" width="7.41016" height="50.812" rx="3.70508" style="fill:var(--sapContent_Illustrative_Color2)"/>
<circle cx="157.218" cy="134.734" r="28.6552" style="fill:var(--sapContent_Illustrative_Color20)"/>
<circle cx="154.067" cy="133.584" r="28.6552" style="fill:var(--sapContent_Illustrative_Color7)"/>
<circle cx="155.677" cy="134.147" r="18.3779" style="fill:var(--sapContent_Illustrative_Color15)"/>
<circle cx="153.505" cy="133.021" r="18.3779" style="fill:var(--sapContent_Illustrative_Color3)"/>
<circle cx="155.631" cy="134.147" r="7.30378" style="fill:var(--sapContent_Illustrative_Color15)"/>
<circle cx="153.505" cy="133.022" r="7.30378" style="fill:var(--sapContent_Illustrative_Color18)"/>
<path fill-rule="evenodd" clip-rule="evenodd" d="M153.84 117.043C154.151 117.043 154.403 117.295 154.403 117.606L154.403 122.75C154.403 123.061 154.151 123.313 153.84 123.313C153.53 123.313 153.278 123.061 153.278 122.75L153.278 117.606C153.278 117.295 153.53 117.043 153.84 117.043Z" style="fill:var(--sapContent_Illustrative_Color4)"/>
<path fill-rule="evenodd" clip-rule="evenodd" d="M153.84 142.73C154.151 142.73 154.403 142.982 154.403 143.293L154.403 148.437C154.403 148.748 154.151 149 153.84 149C153.53 149 153.278 148.748 153.278 148.437L153.278 143.293C153.278 142.982 153.53 142.73 153.84 142.73Z" style="fill:var(--sapContent_Illustrative_Color4)"/>
<path fill-rule="evenodd" clip-rule="evenodd" d="M169.255 133.585C169.255 133.895 169.003 134.147 168.692 134.147L163.548 134.147C163.237 134.147 162.985 133.895 162.985 133.585C162.985 133.274 163.237 133.022 163.548 133.022L168.692 133.022C169.003 133.022 169.255 133.274 169.255 133.585Z" style="fill:var(--sapContent_Illustrative_Color4)"/>
<path fill-rule="evenodd" clip-rule="evenodd" d="M143.568 133.585C143.568 133.895 143.316 134.147 143.005 134.147L137.861 134.147C137.551 134.147 137.299 133.895 137.299 133.585C137.299 133.274 137.551 133.022 137.861 133.022L143.005 133.022C143.316 133.022 143.568 133.274 143.568 133.585Z" style="fill:var(--sapContent_Illustrative_Color4)"/>
<path fill-rule="evenodd" clip-rule="evenodd" d="M164.176 144.718C163.957 144.938 163.6 144.938 163.38 144.718L159.743 141.081C159.523 140.861 159.523 140.505 159.743 140.285C159.963 140.065 160.319 140.065 160.539 140.285L164.176 143.922C164.396 144.142 164.396 144.498 164.176 144.718Z" style="fill:var(--sapContent_Illustrative_Color4)"/>
<path fill-rule="evenodd" clip-rule="evenodd" d="M146.014 126.554C145.794 126.774 145.438 126.774 145.218 126.554L141.581 122.917C141.361 122.697 141.361 122.341 141.581 122.121C141.801 121.901 142.157 121.901 142.377 122.121L146.014 125.758C146.234 125.978 146.234 126.335 146.014 126.554Z" style="fill:var(--sapContent_Illustrative_Color4)"/>
<path fill-rule="evenodd" clip-rule="evenodd" d="M164.973 122.122C165.193 122.342 165.193 122.698 164.973 122.918L161.336 126.555C161.116 126.775 160.759 126.775 160.54 126.555C160.32 126.335 160.32 125.979 160.54 125.759L164.177 122.122C164.397 121.902 164.753 121.902 164.973 122.122Z" style="fill:var(--sapContent_Illustrative_Color4)"/>
<path fill-rule="evenodd" clip-rule="evenodd" d="M146.811 140.285C147.031 140.505 147.031 140.861 146.811 141.081L143.174 144.718C142.954 144.938 142.597 144.938 142.378 144.718C142.158 144.498 142.158 144.142 142.378 143.922L146.015 140.285C146.235 140.065 146.591 140.065 146.811 140.285Z" style="fill:var(--sapContent_Illustrative_Color4)"/>
<path d="M154.235 112.37C153.892 112.963 153.036 112.963 152.693 112.37L150.639 108.811C150.296 108.217 150.724 107.476 151.409 107.476L155.519 107.476C156.204 107.476 156.633 108.217 156.29 108.811L154.235 112.37Z" style="fill:var(--sapContent_Illustrative_Color3)"/>
<path d="M106.501 189.997H131.654L122.951 201.395C122.383 202.138 121.502 202.574 120.566 202.574H109.501C107.844 202.574 106.501 201.231 106.501 199.574V189.997Z" style="fill:var(--sapContent_Illustrative_Color13)"/>
<path fill-rule="evenodd" clip-rule="evenodd" d="M128.181 194.545H106.501V189.997H131.654L128.181 194.545Z" style="fill:var(--sapContent_Illustrative_Color14)"/>
<path d="M147.256 189.997H172.409L163.706 201.395C163.138 202.138 162.256 202.574 161.321 202.574H150.256C148.599 202.574 147.256 201.231 147.256 199.574V189.997Z" style="fill:var(--sapContent_Illustrative_Color14)"/>
<path fill-rule="evenodd" clip-rule="evenodd" d="M167.607 196.285H147.256V189.997H172.409L167.607 196.285Z" style="fill:var(--sapContent_Illustrative_Color14)"/>
<path d="M213.164 189.997H188.011L196.714 201.395C197.282 202.138 198.163 202.574 199.099 202.574H210.164C211.821 202.574 213.164 201.231 213.164 199.574V189.997Z" style="fill:var(--sapContent_Illustrative_Color13)"/>
<path fill-rule="evenodd" clip-rule="evenodd" d="M191.484 194.545H213.164V189.997H188.011L191.484 194.545Z" style="fill:var(--sapContent_Illustrative_Color14)"/>
<path d="M253.919 189.997H228.766L237.469 201.395C238.037 202.138 238.918 202.574 239.853 202.574H250.919C252.576 202.574 253.919 201.231 253.919 199.574V189.997Z" style="fill:var(--sapContent_Illustrative_Color14)"/>
<path fill-rule="evenodd" clip-rule="evenodd" d="M233.568 196.285H253.919V189.997H228.766L233.568 196.285Z" style="fill:var(--sapContent_Illustrative_Color14)"/>
</svg>
