<svg width="128" height="129" viewBox="0 0 128 129" fill="none" xmlns="http://www.w3.org/2000/svg" id="tnt-Spot-Unlock">
<circle cx="64" cy="64.7703" r="64" style="fill:var(--sapContent_Illustrative_Color7)"/>
<path d="M34.4315 21.4191C34.2955 21.5783 34.2049 21.7713 34.1693 21.9776C34.1336 22.184 34.1543 22.3962 34.2291 22.5918L35.8865 27.2913C36.1602 28.0686 36.9499 28.2604 37.5591 28.0457C37.8116 27.9669 38.0318 27.8083 38.1864 27.5937C38.3411 27.379 38.4219 27.12 38.4168 26.8555C38.4105 26.7278 38.3849 26.6017 38.3408 26.4817L36.6834 21.7822C36.615 21.5746 36.4916 21.3893 36.3265 21.246C36.1613 21.1026 35.9605 21.0067 35.7453 20.9681C35.506 20.9252 35.2597 20.9441 35.0298 21.023C34.7999 21.1019 34.594 21.2382 34.4315 21.4191Z" style="fill:var(--sapContent_Illustrative_Color5)"/>
<path d="M18.2113 43.096C18.1874 43.244 18.1945 43.3953 18.2324 43.5403C18.2702 43.6854 18.3379 43.8209 18.431 43.9383C18.5242 44.0557 18.6408 44.1524 18.7734 44.2222C18.9061 44.2921 19.0518 44.3334 19.2013 44.3438L24.0234 44.8993C24.1968 44.9187 24.3724 44.9033 24.5398 44.8541C24.7073 44.8049 24.8632 44.7228 24.9986 44.6126C25.134 44.5025 25.246 44.3664 25.3282 44.2125C25.4105 44.0585 25.4612 43.8897 25.4775 43.716C25.4862 43.6445 25.489 43.5724 25.4859 43.5005C25.4784 43.2346 25.3715 42.9811 25.1864 42.7901C25.0012 42.599 24.7512 42.4843 24.4857 42.4685L19.6657 41.9144C19.4923 41.8947 19.3167 41.9098 19.1493 41.9588C18.9818 42.0078 18.8258 42.0897 18.6904 42.1998C18.5549 42.3098 18.4428 42.4457 18.3605 42.5996C18.2783 42.7535 18.2275 42.9223 18.2113 43.096Z" style="fill:var(--sapContent_Illustrative_Color5)"/>
<path d="M22.4194 30.1461C22.4362 30.309 22.4861 30.4668 22.566 30.6097C22.6459 30.7527 22.7541 30.8778 22.8839 30.9775L28.6654 35.509C28.9258 35.7108 29.2541 35.804 29.5817 35.7693C29.9094 35.7346 30.2109 35.5746 30.4232 35.3227C30.6192 35.0883 30.72 34.7888 30.7055 34.4836C30.6969 34.3077 30.6504 34.1357 30.5693 33.9793C30.4882 33.823 30.3744 33.6859 30.2355 33.5776L24.4541 29.0461C24.1924 28.843 23.8621 28.7493 23.5327 28.7846C23.2034 28.8199 22.9005 28.9816 22.6878 29.2356C22.5841 29.3614 22.5068 29.507 22.4607 29.6635C22.4146 29.8199 22.4005 29.9841 22.4194 30.1461Z" style="fill:var(--sapContent_Illustrative_Color5)"/>
<path fill-rule="evenodd" clip-rule="evenodd" d="M9.53027 98.3889H111.092C112.067 98.3889 112.857 99.1787 112.857 100.153V104.31C112.857 105.285 112.067 106.074 111.092 106.074H15.1107C13.0682 103.659 11.2015 101.091 9.53027 98.3889Z" style="fill:var(--sapContent_Illustrative_Color18)"/>
<path fill-rule="evenodd" clip-rule="evenodd" d="M118.469 98.3889C116.798 101.091 114.931 103.659 112.889 106.074H87.9926C87.0183 106.074 86.2285 105.285 86.2285 104.31V100.153C86.2285 99.1787 87.0183 98.3889 87.9926 98.3889H118.469Z" style="fill:var(--sapContent_Illustrative_Color20)"/>
<rect x="41.1758" y="42.5698" width="78.5474" height="50.2538" rx="5.4615" style="fill:var(--sapContent_Illustrative_Color13)"/>
<rect x="41.1758" y="42.5698" width="61.2257" height="50.2538" rx="5.4615" style="fill:var(--sapContent_Illustrative_Color2)"/>
<rect x="49.3896" y="50.7041" width="44.7965" height="33.9851" rx="3.972" style="fill:var(--sapContent_Illustrative_Color4)"/>
<path d="M48.1377 92.8423H59.2311L55.3926 97.8688C55.1423 98.1966 54.7534 98.3889 54.341 98.3889H49.4608C48.7301 98.3889 48.1377 97.7965 48.1377 97.0658V92.8423Z" style="fill:var(--sapContent_Illustrative_Color13)"/>
<path fill-rule="evenodd" clip-rule="evenodd" d="M57.6993 94.8481H48.1377V92.8423H59.2311L57.6993 94.8481Z" style="fill:var(--sapContent_Illustrative_Color14)"/>
<path d="M66.1123 92.8425H77.2057L73.3672 97.869C73.1169 98.1968 72.728 98.3891 72.3156 98.3891H67.4354C66.7047 98.3891 66.1123 97.7967 66.1123 97.066V92.8425Z" style="fill:var(--sapContent_Illustrative_Color14)"/>
<path fill-rule="evenodd" clip-rule="evenodd" d="M75.0879 95.6158H66.1123V92.8425H77.2057L75.0879 95.6158Z" style="fill:var(--sapContent_Illustrative_Color14)"/>
<path d="M95.1787 92.8425H84.0853L87.9239 97.869C88.1742 98.1968 88.563 98.3891 88.9754 98.3891H93.8556C94.5863 98.3891 95.1787 97.7967 95.1787 97.066V92.8425Z" style="fill:var(--sapContent_Illustrative_Color13)"/>
<path fill-rule="evenodd" clip-rule="evenodd" d="M85.617 94.8483H95.1787V92.8425H84.0853L85.617 94.8483Z" style="fill:var(--sapContent_Illustrative_Color14)"/>
<path d="M113.153 92.8423H102.06L105.898 97.8688C106.149 98.1966 106.538 98.3889 106.95 98.3889H111.83C112.561 98.3889 113.153 97.7965 113.153 97.0658V92.8423Z" style="fill:var(--sapContent_Illustrative_Color14)"/>
<path fill-rule="evenodd" clip-rule="evenodd" d="M104.178 95.6156H113.153V92.8423H102.06L104.178 95.6156Z" style="fill:var(--sapContent_Illustrative_Color14)"/>
<rect x="5.63965" y="50.7041" width="44.3253" height="33.9851" rx="3.972" style="fill:var(--sapContent_Illustrative_Color13)"/>
<rect x="3.87598" y="50.7041" width="44.7965" height="33.9851" rx="3.972" style="fill:var(--sapContent_Illustrative_Color20)"/>
<circle cx="12.5109" cy="61.1728" r="1.64762" style="fill:var(--sapContent_Illustrative_Color3)"/>
<circle cx="12.5119" cy="74.2204" r="1.64762" style="fill:var(--sapContent_Illustrative_Color3)"/>
<circle cx="29.8087" cy="67.6966" r="7.16998" style="fill:var(--sapContent_Illustrative_Color18)"/>
<rect x="47.6855" y="54.3975" width="3.86242" height="10.7927" rx="1.93121" style="fill:var(--sapContent_Illustrative_Color14)"/>
<rect x="47.6855" y="69.093" width="3.86242" height="10.7927" rx="1.93121" style="fill:var(--sapContent_Illustrative_Color14)"/>
<path d="M96.659 29.6549C96.659 29.1147 95.0908 28.6822 92.9955 28.584C92.8757 26.4913 92.4145 24.9353 91.8742 24.9365C91.3339 24.9377 90.8846 26.5057 90.7696 28.6092C88.6683 28.7529 87.1061 29.2225 87.1133 29.7639C87.1205 30.3053 88.6815 30.7378 90.7768 30.8348C90.9026 32.9274 91.3578 34.4835 91.8969 34.4823C92.436 34.4811 92.8877 32.9131 93.0027 30.8096C95.104 30.6659 96.665 30.1963 96.659 29.6549Z" style="fill:var(--sapContent_Illustrative_Color18)"/>
<path d="M76.6195 17.6163C76.6195 16.9378 74.6499 16.3946 72.0181 16.2713C71.8676 13.6428 71.2883 11.6884 70.6097 11.6899C69.9311 11.6914 69.3668 13.6609 69.2223 16.3029C66.5831 16.4834 64.6209 17.0732 64.6299 17.7532C64.6389 18.4333 66.5996 18.9764 69.2314 19.0983C69.3894 21.7267 69.9612 23.6811 70.6383 23.6796C71.3154 23.6781 71.8827 21.7087 72.0271 19.0667C74.6664 18.8862 76.6271 18.2964 76.6195 17.6163Z" style="fill:var(--sapContent_Illustrative_Color18)"/>
</svg>
