<svg width="128" height="128" viewBox="0 0 128 128" fill="none" xmlns="http://www.w3.org/2000/svg" id="tnt-Spot-ChartPie">
<path d="M64 128C99.3462 128 128 99.3462 128 64C128 28.6538 99.3462 0 64 0C28.6538 0 0 28.6538 0 64C0 99.3462 28.6538 128 64 128Z" style="fill:var(--sapContent_Illustrative_Color7)"/>
<path fill-rule="evenodd" clip-rule="evenodd" d="M83.8686 124.856C107.875 117.023 125.641 95.3808 127.782 69.3114L98.4348 55.6084C96.792 54.8413 94.8354 55.5528 94.0647 57.1975L67.6176 113.639C66.847 115.283 67.554 117.239 69.1969 118.006L83.8686 124.856Z" style="fill:var(--sapContent_Illustrative_Color18)"/>
<path fill-rule="evenodd" clip-rule="evenodd" d="M119.5 86.6797C119.991 87.2845 119.898 88.1722 119.293 88.6623L103.491 101.468C103.118 101.77 102.617 101.862 102.161 101.711C101.705 101.561 101.358 101.189 101.238 100.724L99.0753 92.3091L85.9383 102.308C85.3188 102.78 84.4344 102.66 83.9629 102.04C83.4914 101.421 83.6114 100.536 84.2308 100.065L99.058 88.7793C99.4339 88.4932 99.9281 88.4144 100.374 88.5694C100.82 88.7244 101.159 89.0926 101.277 89.55L103.422 97.8952L117.518 86.472C118.123 85.9819 119.01 86.0749 119.5 86.6797Z" style="fill:var(--sapContent_Illustrative_Color19)"/>
<path d="M96.43 69.8646C96.5951 69.5121 97.0147 69.3601 97.3672 69.5252L99.2982 70.4292C99.6507 70.5942 99.8027 71.0138 99.6376 71.3663L85.3255 101.937C85.1604 102.289 84.7409 102.441 84.3883 102.276L82.4574 101.372C82.1048 101.207 81.9529 100.788 82.1179 100.435L96.43 69.8646Z" style="fill:var(--sapContent_Illustrative_Color7)"/>
<path fill-rule="evenodd" clip-rule="evenodd" d="M107.999 110.477L83.5345 99.1606C83.1812 98.9972 82.7623 99.1511 82.5989 99.5044L81.7038 101.44C81.5404 101.793 81.6943 102.212 82.0476 102.375L105.118 113.046C106.104 112.218 107.065 111.361 107.999 110.477Z" style="fill:var(--sapContent_Illustrative_Color7)"/>
<path d="M79.0662 108.619C79.3873 107.909 80.2254 107.588 80.9346 107.909L95.7892 114.635C96.4984 114.956 96.8101 115.797 96.489 116.507V116.507C96.1679 117.216 95.3298 117.537 94.6206 117.216L79.7661 110.491C79.0569 110.17 78.7451 109.328 79.0662 108.619V108.619Z" style="fill:var(--sapContent_Illustrative_Color7)"/>
<path fill-rule="evenodd" clip-rule="evenodd" d="M24.6627 114.487H86.3122C89.6585 114.487 92.3712 111.774 92.3712 108.428V44.2815L75.6925 30.4536H12.3093C11.01 30.4536 9.80617 30.8626 8.8196 31.5589C7.89778 33.1235 7.0406 34.7307 6.25174 36.3769C6.25074 36.422 6.25024 36.4673 6.25024 36.5127V91.62C10.5533 100.601 16.8895 108.422 24.6627 114.487Z" style="fill:var(--sapContent_Illustrative_Color6)"/>
<path fill-rule="evenodd" clip-rule="evenodd" d="M21.0597 111.457H84.4944C87.1715 111.457 89.3417 109.287 89.3417 106.61V41.9511L71.9963 27.4238H11.4748C7.9766 32.438 5.17807 37.9765 3.2207 43.8978V84.1022C6.73222 94.725 12.9509 104.116 21.0597 111.457Z" style="fill:var(--sapContent_Illustrative_Color8)"/>
<path d="M71.9028 41.8191L89.3418 45.3359V41.8191H71.9028Z" style="fill:var(--sapContent_Illustrative_Color5)"/>
<path d="M71.9028 41.8194H89.3418L71.9028 27.4238V41.8194Z" style="fill:var(--sapContent_Illustrative_Color6)"/>
<path d="M97.8751 22.8469C97.8751 21.9485 95.2671 21.2293 91.7825 21.066C91.5832 17.5858 90.8162 14.998 89.9176 15C89.0191 15.002 88.272 17.6097 88.0807 21.1078C84.5861 21.3469 81.9881 22.1278 82 23.0282C82.012 23.9286 84.608 24.6478 88.0927 24.8091C88.3019 28.2894 89.0589 30.8771 89.9555 30.8751C90.8521 30.8731 91.6032 28.2655 91.7944 24.7673C95.289 24.5283 97.885 23.7474 97.8751 22.8469Z" style="fill:var(--sapContent_Illustrative_Color3)"/>
<path d="M114.231 40.0569C114.231 39.4779 112.55 39.0145 110.304 38.9092C110.176 36.6664 109.682 34.9987 109.102 35C108.523 35.0013 108.042 36.6818 107.919 38.9361C105.667 39.0902 103.992 39.5934 104 40.1737C104.008 40.754 105.681 41.2175 107.926 41.3214C108.061 43.5643 108.549 45.2319 109.127 45.2306C109.705 45.2293 110.189 43.5488 110.312 41.2945C112.564 41.1404 114.237 40.6372 114.231 40.0569Z" style="fill:var(--sapContent_Illustrative_Color3)"/>
<rect x="13" y="51.8271" width="65.6545" height="50.6581" rx="3.53116" style="fill:var(--sapContent_Illustrative_Color7)"/>
<path d="M45.8526 61.6148C45.887 61.2672 45.6331 60.9563 45.2844 60.935C42.1575 60.7435 39.0339 61.4224 36.2633 62.9023C33.3065 64.4816 30.8844 66.9023 29.3033 69.8581C27.7223 72.814 27.0532 76.1724 27.3808 79.5085C27.7084 82.8446 29.0179 86.0087 31.1438 88.6006C33.2696 91.1925 36.1163 93.0958 39.3238 94.0698C42.5314 95.0438 45.9557 95.0448 49.1638 94.0727C52.3719 93.1005 55.2197 91.1989 57.3471 88.6083C59.3405 86.1808 60.6174 83.2505 61.0415 80.1465C61.0887 79.8004 60.8336 79.4906 60.486 79.4562L44.8779 77.9144C44.5304 77.88 44.2764 77.5704 44.3108 77.2228L45.8526 61.6148Z" style="fill:var(--sapContent_Illustrative_Color2)"/>
<path d="M45.8527 61.6149C45.887 61.2674 45.6331 60.9565 45.2844 60.9352C42.1653 60.7441 39.0537 61.4194 36.2943 62.886C35.9858 63.0499 35.8836 63.438 36.0589 63.7401L43.7568 77.0049C43.9109 77.2704 44.3148 77.1827 44.345 76.8772L45.8527 61.6149Z" style="fill:var(--sapContent_Illustrative_Color20)"/>
<path d="M60.486 79.4562C60.8336 79.4906 61.0887 79.8004 61.0415 80.1465C60.7172 82.5199 59.8931 84.8002 58.6209 86.8356C57.2368 89.0499 55.3599 90.9145 53.1364 92.2838C50.9129 93.6531 48.4031 94.4902 45.8029 94.7296C43.4127 94.9498 41.0055 94.6595 38.7401 93.8809C38.4098 93.7674 38.2479 93.4001 38.3737 93.0743L44.0753 78.3011C44.1777 78.0359 44.4445 77.8715 44.7275 77.8995L60.486 79.4562Z" style="fill:var(--sapContent_Illustrative_Color14)"/>
<path d="M57.6126 59.6439C57.8061 59.3531 58.1994 59.2734 58.4838 59.4762C61.2151 61.4239 63.403 64.0433 64.8332 67.0855C66.2634 70.1278 66.8845 73.4838 66.6417 76.8296C66.6165 77.1779 66.3042 77.4299 65.9568 77.3934L48.1584 75.5224C47.6857 75.4727 47.4347 74.9388 47.698 74.5431L57.6126 59.6439Z" style="fill:var(--sapContent_Illustrative_Color3)"/>
<path d="M25.8613 37H14.5471C13.7845 37 13.1663 37.6182 13.1663 38.3809C13.1663 39.1435 13.7845 39.7617 14.5471 39.7617H25.8613C26.6239 39.7617 27.2422 39.1435 27.2422 38.3809C27.2422 37.6182 26.6239 37 25.8613 37Z" style="fill:var(--sapContent_Illustrative_Color14)"/>
<path d="M37.0946 42.3645H14.3365C13.6902 42.3645 13.1663 42.8885 13.1663 43.5348C13.1663 44.1811 13.6902 44.7051 14.3365 44.7051H37.0946C37.7409 44.7051 38.2649 44.1811 38.2649 43.5348C38.2649 42.8885 37.7409 42.3645 37.0946 42.3645Z" style="fill:var(--sapContent_Illustrative_Color13)"/>
</svg>
