<svg width="320" height="240" viewBox="0 0 320 240" fill="none" xmlns="http://www.w3.org/2000/svg" id="tnt-Scene-ChartDoughnut">
<path d="M305.547 19H14.4533C12.5559 18.9983 10.6768 19.3705 8.92329 20.0954C7.16981 20.8203 5.57638 21.8836 4.23409 23.2247C2.8918 24.5657 1.82697 26.1582 1.10045 27.911C0.373942 29.6638 -8.08861e-07 31.5426 0 33.44V204.547C0 208.38 1.52275 212.056 4.23328 214.767C6.9438 217.477 10.6201 219 14.4533 219H305.547C309.38 219 313.056 217.477 315.767 214.767C318.477 212.056 320 208.38 320 204.547V33.44C320 31.5426 319.626 29.6638 318.9 27.911C318.173 26.1582 317.108 24.5657 315.766 23.2247C314.424 21.8836 312.83 20.8203 311.077 20.0954C309.323 19.3705 307.444 18.9983 305.547 19V19Z" style="fill:var(--sapContent_Illustrative_Color7)"/>
<path d="M307.616 114.777L250.515 95.1718C248.094 94.3406 245.459 95.6337 244.629 98.0601L216.168 181.325C215.339 183.751 216.629 186.392 219.05 187.223L276.152 206.828C278.573 207.66 281.208 206.366 282.037 203.94L310.498 120.675C311.328 118.249 310.037 115.608 307.616 114.777Z" style="fill:var(--sapContent_Illustrative_Color18)"/>
<path d="M273.369 116.205C271.484 115.451 269.418 115.274 267.432 115.696C265.447 116.119 263.631 117.122 262.214 118.579C260.797 120.036 259.843 121.881 259.473 123.881C259.102 125.881 259.332 127.947 260.133 129.816C260.933 131.685 262.269 133.275 263.971 134.384C265.673 135.492 267.665 136.07 269.694 136.045C271.724 136.019 273.7 135.391 275.374 134.239C277.047 133.088 278.342 131.465 279.096 129.576L269.557 125.764L273.369 116.205Z" style="fill:var(--sapContent_Illustrative_Color7)"/>
<path d="M276.42 114.794L272.617 124.345L282.147 128.156C282.647 126.902 282.895 125.561 282.878 124.211C282.861 122.86 282.579 121.527 282.047 120.286C281.515 119.045 280.744 117.921 279.779 116.979C278.813 116.036 277.672 115.294 276.42 114.794V114.794Z" style="fill:var(--sapContent_Illustrative_Color19)"/>
<path d="M284.329 148.956L244.538 135.295C243.218 134.842 241.781 135.547 241.329 136.87C240.876 138.193 241.58 139.633 242.9 140.086L282.691 153.747C284.011 154.201 285.448 153.496 285.9 152.173C286.352 150.849 285.649 149.41 284.329 148.956Z" style="fill:var(--sapContent_Illustrative_Color7)"/>
<path d="M280.888 157.059L241.097 143.397C239.777 142.944 238.34 143.649 237.888 144.972C237.436 146.295 238.139 147.735 239.459 148.188L279.25 161.85C280.57 162.303 282.007 161.598 282.459 160.275C282.912 158.952 282.208 157.512 280.888 157.059Z" style="fill:var(--sapContent_Illustrative_Color7)"/>
<path d="M259.033 158.634L237.835 151.356C236.515 150.902 235.078 151.607 234.626 152.931C234.174 154.254 234.877 155.693 236.197 156.147L257.396 163.425C258.716 163.878 260.152 163.173 260.605 161.85C261.057 160.527 260.353 159.087 259.033 158.634Z" style="fill:var(--sapContent_Illustrative_Color7)"/>
<path d="M16 214.207C16 212.95 17.0195 211.93 18.2772 211.93H167.058C168.316 211.93 169.335 212.95 169.335 214.207V215.145H16V214.207Z" style="fill:var(--sapContent_Illustrative_Color18)"/>
<path d="M19.1473 217.884C19.5646 218.257 20.1045 218.463 20.664 218.463H164.671C165.231 218.463 165.771 218.257 166.188 217.884L169.335 215.074H16L19.1473 217.884Z" style="fill:var(--sapContent_Illustrative_Color19)"/>
<rect x="31.0904" y="129.906" width="123.154" height="82.1674" rx="4.55436" style="fill:var(--sapContent_Illustrative_Color18)"/>
<path d="M92.6676 132.656C93.1031 132.656 93.4562 132.302 93.4562 131.866C93.4562 131.43 93.1031 131.076 92.6676 131.076C92.2321 131.076 91.8791 131.43 91.8791 131.866C91.8791 132.302 92.2321 132.656 92.6676 132.656Z" style="fill:var(--sapContent_Illustrative_Color20)"/>
<rect x="35.1618" y="133.736" width="115.011" height="74.5088" rx="3.03624" style="fill:var(--sapContent_Illustrative_Color7)"/>
<path d="M83.7473 211.473H101.588V212.019C101.588 212.858 100.908 213.537 100.07 213.537H85.2654C84.427 213.537 83.7473 212.858 83.7473 212.019V211.473Z" style="fill:var(--sapContent_Illustrative_Color20)"/>
<path d="M258.613 45.3833C258.613 44.1945 255.162 43.2429 250.551 43.0267C250.287 38.4216 249.272 34.9974 248.083 35C246.894 35.0026 245.906 38.4532 245.652 43.0821C241.028 43.3984 237.59 44.4317 237.606 45.6232C237.622 46.8147 241.057 47.7663 245.668 47.9798C245.945 52.585 246.947 56.0092 248.133 56.0066C249.32 56.0039 250.313 52.5534 250.567 47.9245C255.191 47.6082 258.626 46.5748 258.613 45.3833Z" style="fill:var(--sapContent_Illustrative_Color3)"/>
<path d="M275.617 66.8971C275.617 66.1309 273.393 65.5176 270.422 65.3783C270.252 62.4106 269.598 60.2039 268.831 60.2056C268.065 60.2073 267.428 62.431 267.265 65.414C264.285 65.6179 262.069 66.2838 262.08 67.0516C262.09 67.8195 264.304 68.4327 267.275 68.5703C267.454 71.5381 268.099 73.7448 268.864 73.7431C269.628 73.7414 270.269 71.5177 270.432 68.5347C273.412 68.3308 275.626 67.6649 275.617 66.8971Z" style="fill:var(--sapContent_Illustrative_Color3)"/>
<path d="M23.5128 67.2369L80.6147 47.632C83.0357 46.8008 85.6706 48.0939 86.4999 50.5203L114.961 133.785C115.79 136.212 114.5 138.852 112.079 139.684L54.9772 159.289C52.5563 160.12 49.9214 158.827 49.092 156.4L20.631 73.1352C19.8016 70.7089 21.0919 68.0681 23.5128 67.2369Z" style="fill:var(--sapContent_Illustrative_Color18)"/>
<path fill-rule="evenodd" clip-rule="evenodd" d="M75.3718 78.1518C76.4626 78.2857 77.2383 79.2786 77.1044 80.3695L73.6044 108.869C73.5218 109.542 73.1026 110.126 72.492 110.42C71.8814 110.714 71.1633 110.677 70.5862 110.322L60.1401 103.893L56.5961 126.93C56.4289 128.016 55.4129 128.761 54.3266 128.594C53.2403 128.427 52.4952 127.411 52.6623 126.324L56.6623 100.324C56.7637 99.6652 57.1885 99.1007 57.7938 98.8208C58.399 98.5408 59.1042 98.5826 59.6721 98.9321L70.0319 105.307L73.154 79.8844C73.288 78.7935 74.2809 78.0178 75.3718 78.1518Z" style="fill:var(--sapContent_Illustrative_Color19)"/>
<path d="M35.4513 83.687C35.2734 83.1671 35.5506 82.6014 36.0706 82.4235L38.9184 81.449C39.4384 81.271 40.0041 81.5483 40.182 82.0682L55.6102 127.155C55.7882 127.675 55.5109 128.241 54.991 128.419L52.1431 129.393C51.6232 129.571 51.0575 129.294 50.8795 128.774L35.4513 83.687Z" style="fill:var(--sapContent_Illustrative_Color7)"/>
<path d="M52.7097 130.813C52.1906 130.993 51.6236 130.719 51.4433 130.199L50.4556 127.356C50.2753 126.837 50.55 126.27 51.0691 126.09L96.0844 110.453C96.6035 110.273 97.1705 110.548 97.3508 111.067L98.3384 113.91C98.5187 114.429 98.2441 114.996 97.725 115.177L52.7097 130.813Z" style="fill:var(--sapContent_Illustrative_Color7)"/>
<path d="M55.8007 140.077C55.4317 139.042 55.9684 137.894 57.0036 137.525L78.6871 129.795C79.7223 129.426 80.8641 129.976 81.2331 131.011V131.011C81.6021 132.046 81.0654 133.194 80.0302 133.563L58.3467 141.293C57.3115 141.662 56.1697 141.112 55.8007 140.077V140.077Z" style="fill:var(--sapContent_Illustrative_Color7)"/>
<path d="M93.9321 61.127C93.9321 55.6041 98.4093 51.127 103.932 51.127H208.541L236.068 73.9487V179.817C236.068 185.34 231.591 189.817 226.068 189.817H103.932C98.4093 189.817 93.9321 185.34 93.9321 179.817V61.127Z" style="fill:var(--sapContent_Illustrative_Color6)"/>
<path d="M88.9321 54.1269C88.9321 49.7087 92.5139 46.127 96.9321 46.127H202.441L231.068 70.103V176.817C231.068 181.236 227.486 184.817 223.068 184.817H96.9321C92.5139 184.817 88.9321 181.236 88.9321 176.817V54.1269Z" style="fill:var(--sapContent_Illustrative_Color8)"/>
<path d="M202.286 69.8853L231.068 75.6894V69.8853H202.286Z" style="fill:var(--sapContent_Illustrative_Color5)"/>
<path d="M202.286 69.8857H231.068L202.286 46.127V69.8857Z" style="fill:var(--sapContent_Illustrative_Color6)"/>
<rect x="103.671" y="84.1938" width="111.557" height="86.0762" rx="6" style="fill:var(--sapContent_Illustrative_Color7)"/>
<path d="M157.055 102.102C157.104 101.51 156.664 100.989 156.071 100.963C150.753 100.725 145.465 101.966 140.8 104.558C135.821 107.325 131.774 111.505 129.171 116.571C126.567 121.637 125.525 127.362 126.175 133.02C126.825 138.679 129.139 144.018 132.823 148.362C136.508 152.705 141.398 155.859 146.874 157.424C152.351 158.989 158.169 158.894 163.592 157.153C169.015 155.411 173.8 152.1 177.341 147.639C180.66 143.459 182.747 138.445 183.38 133.159C183.451 132.57 183.009 132.051 182.417 132.002L172.297 131.171C171.706 131.123 171.19 131.564 171.103 132.151C170.68 135.01 169.511 137.715 167.705 139.989C165.677 142.545 162.936 144.441 159.83 145.439C156.723 146.436 153.391 146.49 150.254 145.594C147.117 144.698 144.316 142.891 142.206 140.403C140.096 137.915 138.77 134.857 138.398 131.616C138.026 128.375 138.623 125.096 140.114 122.194C141.605 119.292 143.923 116.898 146.775 115.313C149.313 113.903 152.172 113.191 155.063 113.24C155.656 113.25 156.175 112.813 156.224 112.222L157.055 102.102Z" style="fill:var(--sapContent_Illustrative_Color2)"/>
<path d="M157.511 102.143C157.57 101.553 157.138 101.024 156.546 100.988C152.156 100.719 147.757 101.459 143.69 103.158C139.622 104.856 136.003 107.463 133.108 110.774C132.717 111.221 132.789 111.899 133.25 112.273L141.138 118.668C141.599 119.042 142.273 118.968 142.676 118.532C144.28 116.798 146.242 115.425 148.43 114.511C150.618 113.597 152.974 113.168 155.335 113.247C155.929 113.266 156.455 112.839 156.513 112.248L157.511 102.143Z" style="fill:var(--sapContent_Illustrative_Color20)"/>
<path d="M190.843 126.796C191.434 126.854 191.962 126.423 191.998 125.831C192.207 122.419 191.807 118.995 190.815 115.719C189.718 112.099 187.919 108.731 185.521 105.807C183.122 102.883 180.171 100.46 176.836 98.6762C173.818 97.0615 170.538 95.9994 167.152 95.5367C166.564 95.4564 166.037 95.89 165.979 96.4806L164.781 108.608C164.723 109.198 165.155 109.72 165.74 109.822C167.253 110.086 168.717 110.59 170.075 111.317C171.75 112.213 173.232 113.43 174.437 114.898C175.641 116.367 176.545 118.058 177.095 119.876C177.542 121.35 177.75 122.885 177.713 124.42C177.698 125.013 178.126 125.54 178.716 125.598L190.843 126.796Z" style="fill:var(--sapContent_Illustrative_Color3)"/>
<path d="M182.376 132.459C182.966 132.517 183.4 133.043 183.32 133.632C182.769 137.664 181.368 141.539 179.207 144.997C176.855 148.76 173.666 151.928 169.888 154.255C166.11 156.581 161.845 158.004 157.427 158.411C153.366 158.785 149.275 158.291 145.426 156.969C144.865 156.776 144.59 156.152 144.803 155.598L148.451 146.146C148.665 145.592 149.286 145.32 149.853 145.498C151.932 146.148 154.124 146.382 156.301 146.182C158.835 145.948 161.281 145.133 163.448 143.798C165.615 142.464 167.444 140.646 168.793 138.488C169.952 136.634 170.729 134.572 171.084 132.422C171.18 131.837 171.703 131.404 172.293 131.463L182.376 132.459Z" style="fill:var(--sapContent_Illustrative_Color14)"/>
<path d="M125.524 59H106.3C105.004 59 103.954 60.0505 103.954 61.3463C103.954 62.6421 105.004 63.6926 106.3 63.6926H125.524C126.82 63.6926 127.871 62.6421 127.871 61.3463C127.871 60.0505 126.82 59 125.524 59Z" style="fill:var(--sapContent_Illustrative_Color14)"/>
<path d="M144.612 68.1152H105.942C104.844 68.1152 103.954 69.0055 103.954 70.1037C103.954 71.2019 104.844 72.0922 105.942 72.0922H144.612C145.71 72.0922 146.6 71.2019 146.6 70.1037C146.6 69.0055 145.71 68.1152 144.612 68.1152Z" style="fill:var(--sapContent_Illustrative_Color13)"/>
</svg>
