<svg width="128" height="128" version="1.1" id="tnt-Spot-Tutorials" xmlns="http://www.w3.org/2000/svg" xmlns:xlink="http://www.w3.org/1999/xlink" x="0px"
	 y="0px" viewBox="0 0 128 128" enable-background="new 0 0 128 128" xml:space="preserve">
<g>
	<circle style="fill:var(--sapContent_Illustrative_Color7)" cx="64" cy="64" r="64"/>
	<path style="fill:var(--sapContent_Illustrative_Color18)" d="M96.5,105.5c0-0.8-2.2-1.4-5.2-1.5c-0.2-3-0.8-5.2-1.6-5.2c-0.8,0-1.4,2.2-1.6,5.3c-3,0.2-5.2,0.9-5.2,1.7
		c0,0.8,2.2,1.4,5.2,1.5c0.2,3,0.8,5.2,1.6,5.2c0.8,0,1.4-2.2,1.6-5.3C94.3,106.9,96.5,106.2,96.5,105.5z"/>
	<path style="fill:var(--sapContent_Illustrative_Color18)" d="M50.2,17.5c0-0.5-1.5-0.9-3.5-1c-0.1-2-0.6-3.5-1.1-3.5s-0.9,1.5-1.1,3.5c-2,0.1-3.5,0.6-3.5,1.1
		s1.5,0.9,3.5,1c0.1,2,0.6,3.5,1.1,3.5s0.9-1.5,1.1-3.5C48.8,18.4,50.2,18,50.2,17.5z"/>
	<path style="fill:var(--sapContent_Illustrative_Color18)" d="M21.1,110.6l44.8-1.8L38.8,60c-0.2-0.4-0.6-0.7-1-0.9s-0.9-0.3-1.4-0.2l-34.2,7L21.1,110.6L21.1,110.6z"/>
	<path style="fill:var(--sapContent_Illustrative_Color19)" d="M62.4,108.7c0-0.1,0-0.2,0-0.3c0-0.1,0-0.2-0.1-0.3L35.9,59.7c0,0-0.1-0.1-0.2-0.2
		c-0.1-0.1-0.1-0.1-0.2-0.1c-0.1,0-0.2,0-0.2,0s-0.2,0-0.2,0.1c-0.1,0-0.1,0.1-0.2,0.2c-0.1,0.1-0.1,0.1-0.1,0.2c0,0.1,0,0.2,0,0.2
		c0,0.1,0,0.2,0.1,0.2l26.5,48.5c0.1,0.1,0.2,0.2,0.3,0.3c0.1,0.1,0.2,0.1,0.4,0.1c0.1,0,0.2-0.1,0.3-0.1
		C62.3,108.9,62.4,108.8,62.4,108.7L62.4,108.7z"/>
	<path fill-rule="evenodd" clip-rule="evenodd" style="fill:var(--sapContent_Illustrative_Color7)" d="M0.6,72.4l1.9-6.2l18.5,45l42.9-2.9c1.7-0.1,2.4,2.2,0.8,3
		L34.9,121c-5.1-2.6-9.8-5.9-14-9.7C10,101.4,2.6,87.8,0.6,72.4z"/>
	<path fill-rule="evenodd" clip-rule="evenodd" style="fill:var(--sapContent_Illustrative_Color19)" d="M0.4,70.9L1.8,66c0-0.1,0.1-0.2,0.2-0.3c0.1-0.1,0.2-0.1,0.4-0.1
		l0,0c0.1,0,0.2,0,0.4,0.1C2.9,65.7,3,65.9,3,66l18.3,44.6l42.5-2.9c0.5-0.1,1,0.1,1.4,0.4c0.4,0.3,0.7,0.7,0.9,1.2
		c0.1,0.5,0.1,0.9,0,1.4l0,0c-0.2,0.5-0.6,0.9-1.1,1.2h-0.1l-29.2,9.5c-0.5-0.3-1.1-0.5-1.6-0.8l30.3-9.8c0.2-0.1,0.3-0.3,0.4-0.5
		s0.1-0.4,0-0.6s-0.2-0.4-0.4-0.5c-0.2-0.1-0.4-0.2-0.6-0.2l-42.4,2.9c-0.6-0.5-1.1-1-1.7-1.6L2.5,68.2L0.8,74
		C0.6,73,0.5,71.9,0.4,70.9z"/>
	<path style="fill:var(--sapContent_Illustrative_Color20)" d="M64.9,109.8c0-0.1-0.1-0.3-0.1-0.4c-0.1-0.1-0.2-0.2-0.3-0.3c-0.1-0.1-0.2-0.1-0.4-0.2c-0.1,0-0.3,0-0.4,0
		l-2.3,0.2l0.5,2.4l2.1-0.6c0.1,0,0.3-0.1,0.4-0.1c0.1-0.1,0.2-0.2,0.3-0.3c0.1-0.1,0.1-0.2,0.2-0.4
		C64.9,110.1,64.9,109.9,64.9,109.8L64.9,109.8z"/>
	<path style="fill:var(--sapContent_Illustrative_Color19)" d="M55.8,111.2c0,0,0-0.1,0-0.2s0-0.1-0.1-0.2c0-0.1-0.1-0.1-0.1-0.1c-0.1,0-0.1-0.1-0.2-0.1
		c-0.1,0-0.1,0-0.2,0l-29,3.3c-0.1,0-0.2,0.1-0.3,0.2c-0.1,0.1-0.1,0.2-0.1,0.3c0,0.1,0,0.1,0.1,0.2c0,0.1,0.1,0.1,0.1,0.1
		c0.1,0,0.1,0.1,0.2,0.1s0.1,0,0.2,0l29-3.3c0,0,0.2,0,0.2-0.1C55.7,111.3,55.8,111.2,55.8,111.2L55.8,111.2z"/>
	<path fill-rule="evenodd" clip-rule="evenodd" style="fill:var(--sapContent_Illustrative_Color19)" d="M29.4,117.9l20-4.4l0,0c0.1,0,0.1,0,0.2,0h0.1c0,0,0,0,0.1,0
		s0.1,0.1,0.1,0.1s0,0.1,0.1,0.1l0,0c0,0.1,0,0.2,0,0.2l0,0c0,0.1-0.1,0.1-0.1,0.2c-0.1,0.1-0.2,0.1-0.2,0.1l-19.1,4.2
		C30.1,118.3,29.7,118.1,29.4,117.9z"/>
	<path style="fill:var(--sapContent_Illustrative_Color19)" d="M15.1,103.4c0-0.1,0-0.3,0-0.4L3.3,74.5c0-0.1-0.2-0.2-0.3-0.3c-0.1,0-0.3-0.1-0.4,0
		c-0.1,0-0.1,0.1-0.2,0.1c0,0-0.1,0.1-0.1,0.2s0,0.1,0,0.2s0,0.1,0,0.2l11.8,28.5c0,0,0.1,0.1,0.1,0.2c0,0,0.1,0.1,0.2,0.1
		c0.1,0,0.1,0,0.2,0c0.1,0,0.1,0,0.2,0c0.1,0,0.1-0.1,0.2-0.1C15,103.6,15,103.5,15.1,103.4L15.1,103.4z"/>
	<path fill-rule="evenodd" clip-rule="evenodd" style="fill:var(--sapContent_Illustrative_Color19)" d="M5.1,89.1l-0.2-0.5l0,0c0-0.1,0-0.1,0-0.2s0-0.1,0-0.2
		S5,88.1,5,88s0.2,0,0.2,0c0.1,0,0.1,0,0.2,0s0.1,0,0.2,0s0.1,0.1,0.2,0.1l0.1,0.2L9,96.8C7.6,94.3,6.3,91.8,5.1,89.1z"/>
	<path fill-rule="evenodd" clip-rule="evenodd" style="fill:var(--sapContent_Illustrative_Color18)" d="M69.4,0.2c17.2,1.4,32.5,9.7,43.2,22c0.9,4,3,7.6,6.1,10.3
		l1.9,1.6l-28,13.2c-1.5,1.4-3.4,2.4-5.7,2.7c-4.9,0.6-9.4-2.6-10.6-7.2c-0.1-0.4-0.2-0.9-0.2-1.4L71.8,5.6
		C71.5,3.5,70.7,1.7,69.4,0.2z"/>
	<path fill-rule="evenodd" clip-rule="evenodd" style="fill:var(--sapContent_Illustrative_Color19)" d="M117.3,28.6c1.4,2.1,2.7,4.4,3.9,6.7c-2.2,1.4-4.5,2.7-7,3.7
		L89.9,49.1c-0.1,0.1-0.3-0.1-0.1-0.2l2.1-1.5c2.9-2.2,4.2-6,3.4-9.6L95,36.1c-0.1-0.4,0.2-0.7,0.5-0.9l0,0L117.3,28.6z"/>
	<path fill-rule="evenodd" clip-rule="evenodd" style="fill:var(--sapContent_Illustrative_Color19)" d="M105.3,15.1c0.8,0.6,1.5,1.3,2.2,2c-0.2,0.4-0.6,0.7-1,0.8
		L82.7,23c-0.8,0.2-1.6-0.3-1.8-1.1c-0.2-0.8,0.3-1.6,1.1-1.8L105.3,15.1z"/>
	<path style="fill:var(--sapContent_Illustrative_Color19)" d="M106.7,22.6l-23.6,6.1c-0.8,0.2-1.3,1-1.1,1.8c0.2,0.8,1,1.3,1.8,1.1l23.6-6.1c0.8-0.2,1.3-1,1.1-1.8
		C108.3,22.8,107.5,22.4,106.7,22.6z"/>
	<path style="fill:var(--sapContent_Illustrative_Color14)" d="M6.6,47.5c-1-3,0.9-6.1,4-6.7l84.5-15.2c2.5-0.4,5,1,5.8,3.4l16.3,49c1,3-0.9,6.1-4,6.7L28.8,99.9
		c-2.5,0.4-5-1-5.8-3.4L6.6,47.5z"/>
	<path style="fill:var(--sapContent_Illustrative_Color14)" d="M8.6,40.2L7,43.7l3.9-0.9L8.6,40.2z"/>
	<path style="fill:var(--sapContent_Illustrative_Color14)" d="M116.9,79.2V82l1.3-2.8H116.9z"/>
	<path style="fill:var(--sapContent_Illustrative_Color2)" d="M8.3,44.3c-1-3,0.9-6.1,4-6.7l84.5-15.2c2.5-0.4,5,1,5.8,3.4L119,74.7c1,3-0.9,6.1-4,6.7L30.4,96.6
		c-2.5,0.4-5-1-5.8-3.4L8.3,44.3z"/>
	<path style="fill:var(--sapContent_Illustrative_Color13)" d="M8.3,44.3c-1-3,0.9-6.1,4-6.7l84.5-15c2.5-0.4,5,1,5.8,3.4l2.7,8L10.5,50.8L8.3,44.3z"/>
	<path style="fill:var(--sapContent_Illustrative_Color13)" d="M19.1,56.8c-0.4-1.2,0.4-2.4,1.6-2.7l78-14c1-0.2,2,0.4,2.3,1.4l10.8,32.2c0.4,1.2-0.4,2.4-1.6,2.7l-78,14
		c-1,0.2-2-0.4-2.3-1.4L19.1,56.8z"/>
	<path style="fill:var(--sapContent_Illustrative_Color18)" d="M20.5,54.7c-0.4-1.2,0.4-2.4,1.6-2.7l78-14c1-0.2,2,0.4,2.3,1.4l10.8,32.2c0.4,1.2-0.4,2.4-1.6,2.7l-78,14
		c-1,0.2-2-0.4-2.3-1.4L20.5,54.7z"/>
	<circle style="fill:var(--sapContent_Illustrative_Color20)" cx="16.4" cy="43.2" r="2.3"/>
	<circle style="fill:var(--sapContent_Illustrative_Color20)" cx="25.1" cy="41.7" r="2.3"/>
	<circle style="fill:var(--sapContent_Illustrative_Color20)" cx="33.9" cy="40.1" r="2.3"/>
	<path style="fill:var(--sapContent_Illustrative_Color3)" d="M65.8,71.4c-1,0.8-2.7,0.2-3.2-1.1l-2.7-7.8l-2.7-7.8c-0.5-1.3,0.7-2.4,2.1-2l18.9,5
		c1.6,0.4,2.2,2.3,1.1,3.1L65.8,71.4z"/>
	<path style="fill:var(--sapContent_Illustrative_Color13)" d="M29.6,93.2l93.3-15.8c1.4-0.2,2.1-1.5,1.6-2.8l-3.7-10.7c-0.4-1.3-1.9-2.2-3.3-1.9L24.2,77.8
		c-1.4,0.2-2.1,1.5-1.6,2.8l3.7,10.7C26.8,92.5,28.2,93.4,29.6,93.2z"/>
	<path style="fill:var(--sapContent_Illustrative_Color8)" d="M31.1,91.1l93.3-15.8c1.4-0.2,2.1-1.5,1.6-2.8l-3.7-10.7c-0.4-1.3-1.9-2.2-3.3-1.9L25.8,75.8
		c-1.4,0.2-2.1,1.5-1.6,2.8l3.7,10.7C28.3,90.5,29.8,91.4,31.1,91.1z"/>
	<path style="fill:var(--sapContent_Illustrative_Color6)" d="M43.8,79.9l72.3-12.2c0.8-0.1,1.8,0.4,2,1.2l0,0c0.3,0.8-0.2,1.6-1,1.7L44.8,82.8c-0.8,0.1-1.8-0.4-2-1.2
		l0,0C42.5,80.8,42.9,80.1,43.8,79.9z"/>
	<path style="fill:var(--sapContent_Illustrative_Color15)" d="M43.8,79.9l25.7-4.4c0.8-0.1,1.8,0.4,2,1.2l0,0c0.3,0.8-0.2,1.6-1,1.7l-25.7,4.4c-0.8,0.1-1.8-0.4-2-1.2
		l0,0C42.5,80.8,42.9,80.1,43.8,79.9z"/>
	<path style="fill:var(--sapContent_Illustrative_Color3)" d="M74,76c0.7,2-0.4,3.9-2.5,4.3s-4.3-1-5-3s0.4-3.9,2.5-4.3C71.1,72.7,73.3,74,74,76z"/>
	<path fill-rule="evenodd" clip-rule="evenodd" style="fill:var(--sapContent_Illustrative_Color8)" d="M69.2,73.8c-1.7,0.3-2.6,1.8-2,3.4s2.3,2.7,4,2.4
		c1.7-0.3,2.6-1.8,2-3.4C72.7,74.6,70.9,73.5,69.2,73.8z M65.7,77.4c-0.8-2.4,0.5-4.7,3-5.1s5.2,1.2,6,3.6s-0.5,4.7-3,5.1
		S66.5,79.8,65.7,77.4z"/>
	<g>
		<g>
			<g>
				<defs>
					<polygon id="SVGID_1_" points="27.8,79.5 36.3,78.1 39.2,86.3 30.6,87.7 					"/>
				</defs>
				<clipPath id="SVGID_00000002345145723346519720000003752532901098211244_">
					<use xlink:href="#SVGID_1_"  overflow="visible"/>
				</clipPath>
				<g clip-path="url(#SVGID_00000002345145723346519720000003752532901098211244_)">
					<path fill-rule="evenodd" clip-rule="evenodd" style="fill:var(--sapContent_Illustrative_Color4)" d="M33.5,80.7c-0.1-0.2,0-0.4,0.2-0.4l0.4-0.1
						c0.2,0,0.4,0.1,0.5,0.3l1.4,4.1c0.1,0.2,0,0.4-0.2,0.4l-0.4,0.1c-0.2,0-0.4-0.1-0.5-0.3L33.5,80.7z"/>
					<path fill-rule="evenodd" clip-rule="evenodd" style="fill:var(--sapContent_Illustrative_Color4)" d="M31,81.1c-0.1-0.2,0-0.4,0.2-0.4l0.4-0.1
						c0.2,0,0.4,0.1,0.5,0.3l1.4,4.1c0.1,0.2,0,0.4-0.2,0.4l-0.4,0.1c-0.2,0-0.4-0.1-0.5-0.3L31,81.1z"/>
				</g>
			</g>
		</g>
	</g>
</g>
</svg>
