<svg width="321" height="240" viewBox="0 0 321 240" fill="none" xmlns="http://www.w3.org/2000/svg" id="tnt-Scene-RoadMap">
<path d="M305.711 20.0059H14.6174C12.72 20.0041 10.8408 20.3763 9.08735 21.1012C7.33387 21.8261 5.74044 22.8895 4.39815 24.2305C3.05586 25.5716 1.99103 27.164 1.26452 28.9168C0.538005 30.6696 0.164062 32.5485 0.164063 34.4459V205.553C0.164063 209.386 1.68681 213.062 4.39734 215.773C7.10786 218.483 10.7841 220.006 14.6174 220.006H305.711C309.544 220.006 313.22 218.483 315.931 215.773C318.641 213.062 320.164 209.386 320.164 205.553V34.4459C320.164 32.5485 319.79 30.6696 319.064 28.9168C318.337 27.164 317.272 25.5716 315.93 24.2305C314.588 22.8895 312.994 21.8261 311.241 21.1012C309.487 20.3763 307.608 20.0041 305.711 20.0059Z" style="fill:var(--sapContent_Illustrative_Color7)"/>
<path d="M273.889 81.9329C288.647 81.9329 300.61 69.9694 300.61 55.2117C300.61 40.454 288.647 28.4905 273.889 28.4905C259.131 28.4905 247.168 40.454 247.168 55.2117C247.168 69.9694 259.131 81.9329 273.889 81.9329Z" style="fill:var(--sapContent_Illustrative_Color20)"/>
<path d="M268.95 61.7753C268.858 62.0425 266.825 60.8693 264.883 61.7753C262.574 62.8483 262.34 65.9505 261.831 65.842C261.247 65.7209 260.424 61.3745 262.737 59.8547C265.234 58.2097 269.079 61.3954 268.95 61.7753Z" style="fill:var(--sapContent_Illustrative_Color2)"/>
<path d="M280.582 41.8429C280.49 42.1101 278.456 40.941 276.515 41.8429C274.206 42.92 273.972 46.018 273.463 45.9136C272.878 45.7884 272.056 41.442 274.369 39.9223C276.866 38.2814 280.711 41.4671 280.582 41.8429Z" style="fill:var(--sapContent_Illustrative_Color2)"/>
<path d="M288.498 57.2116C288.406 57.4746 286.372 56.3056 284.431 57.2116C282.122 58.2846 281.888 61.3867 281.379 61.2782C280.794 61.1529 279.972 56.8066 282.285 55.291C284.782 53.646 288.615 56.8316 288.498 57.2116Z" style="fill:var(--sapContent_Illustrative_Color2)"/>
<path d="M296.271 40.6279C297.865 46.7661 297.223 53.2708 294.461 58.9792C291.699 64.6876 286.996 69.2276 281.194 71.7876C275.393 74.3477 268.869 74.7609 262.791 72.9534C256.712 71.146 251.475 67.2356 248.015 61.9214C248.988 65.67 250.764 69.1624 253.22 72.1566C255.676 75.1508 258.754 77.5752 262.24 79.262C265.727 80.9489 269.538 81.8577 273.41 81.9257C277.282 81.9937 281.123 81.2191 284.666 79.6557C288.209 78.0922 291.37 75.7772 293.93 72.871C296.49 69.9649 298.388 66.537 299.492 62.8248C300.596 59.1126 300.879 55.2049 300.323 51.3721C299.767 47.5394 298.385 43.8734 296.271 40.6279Z" style="fill:var(--sapContent_Illustrative_Color2)"/>
<path fill-rule="evenodd" clip-rule="evenodd" d="M194.297 8.684C194.303 9.5124 193.636 10.1888 192.808 10.1948C190.877 10.2087 188.935 10.2764 186.984 10.397C186.157 10.4481 185.445 9.81926 185.394 8.99241C185.343 8.16556 185.972 7.45384 186.799 7.40273C188.804 7.27883 190.8 7.2092 192.786 7.19486C193.614 7.18888 194.291 7.85559 194.297 8.684ZM197.21 8.74521C197.252 7.91783 197.956 7.28085 198.784 7.32247C200.793 7.42352 202.788 7.58364 204.768 7.80394C205.591 7.89557 206.184 8.6373 206.093 9.46065C206.001 10.284 205.259 10.8772 204.436 10.7855C202.518 10.5721 200.583 10.4168 198.633 10.3187C197.806 10.2771 197.169 9.57259 197.21 8.74521ZM182.496 9.2483C182.59 10.0714 181.998 10.8147 181.175 10.9085C179.255 11.1275 177.328 11.396 175.396 11.7132C174.578 11.8475 173.807 11.2937 173.673 10.4762C173.538 9.65871 174.092 8.88717 174.91 8.7529C176.889 8.42777 178.865 8.15244 180.836 7.92785C181.659 7.83402 182.402 8.42521 182.496 9.2483ZM208.976 9.87344C209.12 9.05761 209.898 8.51291 210.714 8.65682C212.695 9.00625 214.657 9.4193 216.596 9.89715C217.401 10.0953 217.892 10.908 217.694 11.7124C217.496 12.5168 216.683 13.0082 215.879 12.8101C214.005 12.3485 212.109 11.9492 210.193 11.6112C209.377 11.4673 208.833 10.6893 208.976 9.87344ZM170.813 11.0163C170.985 11.8266 170.468 12.6233 169.658 12.7958C167.765 13.1991 165.869 13.6481 163.972 14.1421C163.171 14.3509 162.352 13.8703 162.143 13.0687C161.934 12.267 162.415 11.4478 163.216 11.239C165.155 10.7338 167.095 10.2744 169.033 9.86164C169.844 9.68909 170.64 10.206 170.813 11.0163ZM220.496 12.5062C220.75 11.7177 221.595 11.2843 222.384 11.5383C224.296 12.1542 226.184 12.8375 228.043 13.5894C228.811 13.9 229.182 14.7743 228.871 15.5423C228.56 16.3103 227.686 16.6811 226.918 16.3705C225.127 15.6464 223.309 14.9878 221.464 14.3938C220.676 14.1399 220.242 13.2948 220.496 12.5062ZM159.341 13.8644C159.585 14.6563 159.14 15.4954 158.348 15.7387C156.494 16.3083 154.642 16.9202 152.793 17.5737C152.012 17.8498 151.155 17.4404 150.879 16.6593C150.603 15.8782 151.012 15.0212 151.793 14.7452C153.681 14.078 155.573 13.453 157.467 12.871C158.259 12.6277 159.098 13.0725 159.341 13.8644ZM231.528 16.7336C231.895 15.9911 232.795 15.6868 233.538 16.0541C235.334 16.9428 237.1 17.9008 238.831 18.9293C239.544 19.3524 239.778 20.2727 239.355 20.985C238.932 21.6973 238.012 21.9317 237.299 21.5087C235.634 20.5197 233.936 19.5982 232.207 18.7432C231.465 18.3759 231.161 17.4762 231.528 16.7336ZM148.15 17.6865C148.458 18.4558 148.083 19.3286 147.314 19.6359C145.51 20.3566 143.711 21.1165 141.918 21.9151C141.162 22.2522 140.275 21.9121 139.938 21.1554C139.601 20.3987 139.941 19.5119 140.697 19.1748C142.525 18.3604 144.36 17.5853 146.201 16.8499C146.97 16.5426 147.843 16.9171 148.15 17.6865ZM137.303 22.3904C137.669 23.1337 137.363 24.0328 136.619 24.3985C134.876 25.2559 133.142 26.1498 131.417 27.0795C130.688 27.4726 129.778 27.2001 129.385 26.4708C128.992 25.7416 129.264 24.8318 129.994 24.4387C131.751 23.4915 133.518 22.5806 135.295 21.7066C136.038 21.3409 136.937 21.647 137.303 22.3904ZM241.799 22.5672C242.275 21.8898 243.211 21.7272 243.889 22.2041C245.521 23.3534 247.118 24.5716 248.677 25.8598C249.315 26.3875 249.405 27.333 248.877 27.9716C248.35 28.6101 247.404 28.7 246.765 28.1722C245.267 26.9334 243.731 25.7621 242.162 24.6572C241.484 24.1803 241.322 23.2446 241.799 22.5672ZM126.848 27.8988C127.268 28.6132 127.029 29.5324 126.314 29.9518C124.637 30.9368 122.97 31.9559 121.317 33.0084C120.618 33.4532 119.691 33.2472 119.246 32.5484C118.801 31.8495 119.007 30.9223 119.706 30.4775C121.39 29.4058 123.087 28.368 124.795 27.3647C125.51 26.9453 126.429 27.1844 126.848 27.8988ZM251.047 29.9098C251.622 29.3133 252.572 29.2957 253.168 29.8706C254.599 31.2493 255.991 32.694 257.342 34.2055C257.895 34.8231 257.841 35.7713 257.224 36.3235C256.606 36.8757 255.658 36.8227 255.106 36.2051C253.804 34.7487 252.463 33.3576 251.086 32.0307C250.49 31.4559 250.472 30.5063 251.047 29.9098ZM116.815 34.1568C117.285 34.8395 117.112 35.7734 116.429 36.2427C114.824 37.3463 113.233 38.4819 111.657 39.6488C110.991 40.1418 110.052 40.0018 109.559 39.3361C109.066 38.6703 109.206 37.731 109.872 37.2379C111.475 36.0502 113.095 34.8942 114.729 33.7706C115.412 33.3013 116.346 33.4742 116.815 34.1568ZM259.082 38.5604C259.738 38.0539 260.68 38.1746 261.186 38.8301C261.8 39.6246 262.404 40.435 262.998 41.2611C263.481 41.9339 263.328 42.8712 262.655 43.3546C261.982 43.8379 261.045 43.6844 260.562 43.0116C259.988 42.2136 259.405 41.4313 258.813 40.6646C258.306 40.009 258.427 39.067 259.082 38.5604ZM107.252 41.1078C107.768 41.756 107.661 42.6997 107.013 43.2156C105.489 44.4283 103.983 45.6709 102.494 46.9427C101.864 47.4809 100.917 47.4066 100.379 46.7767C99.841 46.1469 99.9153 45.2001 100.545 44.6619C102.06 43.3675 103.594 42.1028 105.144 40.8685C105.792 40.3525 106.736 40.4597 107.252 41.1078ZM98.1985 48.7065C98.7581 49.3173 98.7167 50.2661 98.1059 50.8258C96.6689 52.1426 95.2512 53.4875 93.854 54.8599C93.2631 55.4405 92.3134 55.432 91.7328 54.8411C91.1523 54.2501 91.1607 53.3004 91.7517 52.7198C93.1737 51.3229 94.6166 49.9541 96.0792 48.614C96.6899 48.0543 97.6388 48.0957 98.1985 48.7065ZM89.689 56.9199C90.2898 57.4903 90.3144 58.4397 89.744 59.0405C88.4027 60.4533 87.083 61.8925 85.7863 63.3576C85.2373 63.9779 84.2893 64.0357 83.6689 63.4867C83.0486 62.9376 82.9908 61.9896 83.5398 61.3693C84.8598 59.8779 86.2031 58.4129 87.5684 56.9749C88.1388 56.3741 89.0882 56.3495 89.689 56.9199ZM81.7787 65.6994C82.418 66.2263 82.5091 67.1717 81.9822 67.811C81.3608 68.5649 80.7454 69.3252 80.1362 70.0916C79.6207 70.7401 78.6771 70.8479 78.0286 70.3324C77.3801 69.817 77.2723 68.8734 77.7877 68.2248C78.408 67.4445 79.0345 66.6705 79.6671 65.9029C80.194 65.2637 81.1394 65.1726 81.7787 65.6994Z" style="fill:var(--sapContent_Illustrative_Color5)"/>
<path d="M66.6181 135.545C87.9846 135.545 105.306 117.322 105.306 94.8433C105.306 72.3645 87.9846 54.1418 66.6181 54.1418C45.2516 54.1418 27.9307 72.3645 27.9307 94.8433C27.9307 117.322 45.2516 135.545 66.6181 135.545Z" style="fill:var(--sapContent_Illustrative_Color3)"/>
<path d="M60.395 94.7461H57.9626C57.6291 94.7461 57.3092 94.8855 57.0734 95.1336C56.8375 95.3817 56.7051 95.7182 56.7051 96.0691C56.7051 96.42 56.8375 96.7565 57.0734 97.0046C57.3092 97.2527 57.6291 97.3921 57.9626 97.3921H60.395C60.7285 97.3921 61.0484 97.2527 61.2843 97.0046C61.5201 96.7565 61.6526 96.42 61.6526 96.0691C61.6526 95.7182 61.5201 95.3817 61.2843 95.1336C61.0484 94.8855 60.7285 94.7461 60.395 94.7461Z" style="fill:var(--sapContent_Illustrative_Color15)"/>
<path d="M90.6377 76.5155C90.6377 76.6891 90.6703 76.861 90.7335 77.0214C90.7967 77.1818 90.8894 77.3275 91.0062 77.4501C91.123 77.5728 91.2616 77.67 91.4142 77.7362C91.5667 77.8024 91.7302 77.8363 91.8952 77.8359H101.773C101.379 76.9369 100.955 76.0557 100.501 75.1925H91.9074C91.7412 75.1904 91.5762 75.2232 91.4221 75.2888C91.2679 75.3544 91.1277 75.4515 91.0096 75.5746C90.8914 75.6977 90.7977 75.8443 90.7339 76.0058C90.6701 76.1673 90.6374 76.3406 90.6377 76.5155Z" style="fill:var(--sapContent_Illustrative_Color15)"/>
<path d="M83.5036 77.8406H85.936C86.2696 77.8406 86.5894 77.7012 86.8253 77.4531C87.0611 77.205 87.1936 76.8685 87.1936 76.5176C87.1936 76.1667 87.0611 75.8302 86.8253 75.5821C86.5894 75.334 86.2696 75.1946 85.936 75.1946H83.5036C83.1701 75.1946 82.8502 75.334 82.6144 75.5821C82.3786 75.8302 82.2461 76.1667 82.2461 76.5176C82.2461 76.8685 82.3786 77.205 82.6144 77.4531C82.8502 77.7012 83.1701 77.8406 83.5036 77.8406Z" style="fill:var(--sapContent_Illustrative_Color15)"/>
<path d="M91.6186 109.629C91.3361 110.188 90.9249 110.664 90.4227 111.013C89.9205 111.362 89.3432 111.574 88.7435 111.628L86.3111 111.85C86.0161 111.845 85.7284 111.946 85.4959 112.137C85.2634 112.328 85.1004 112.597 85.0341 112.899C84.9953 113.092 84.998 113.292 85.0418 113.483C85.0857 113.675 85.1697 113.854 85.2876 114.007C85.4056 114.16 85.5545 114.283 85.7236 114.368C85.8926 114.452 86.0776 114.496 86.2649 114.496H100.516C101.579 112.463 102.474 110.338 103.192 108.145H93.9683C93.4915 108.173 93.0283 108.322 92.6189 108.581C92.2095 108.84 91.8661 109.199 91.6186 109.629Z" style="fill:var(--sapContent_Illustrative_Color15)"/>
<path fill-rule="evenodd" clip-rule="evenodd" d="M42.2743 119.542C51.0574 117.757 61.6394 114.195 72.6217 109.061C86.107 102.759 97.5149 95.3348 104.849 88.5662C105.008 89.6546 105.126 90.7567 105.204 91.8724C97.099 98.4415 86.051 105.277 73.3636 111.206C66.2448 114.534 59.271 117.268 52.7423 119.367C52.7435 119.367 52.7446 119.368 52.7458 119.369C49.4984 120.428 46.213 121.35 42.8973 122.135C42.1233 122.319 41.3593 122.492 40.6061 122.654C39.9762 122.791 39.3452 122.922 38.7133 123.049C38.3468 122.646 37.9884 122.238 37.6381 121.823L37.5943 121.769C37.2408 121.35 36.8979 120.923 36.5654 120.49C36.5688 120.489 36.5722 120.489 36.5756 120.488C36.5741 120.486 36.5725 120.484 36.571 120.482C36.8109 120.453 37.0528 120.422 37.2966 120.389C38.9631 120.154 40.623 119.871 42.2743 119.542Z" style="fill:var(--sapContent_Illustrative_Color15)"/>
<path fill-rule="evenodd" clip-rule="evenodd" d="M52.8951 95.1302C53.1305 95.3778 53.2627 95.7137 53.2627 96.0639C53.2634 96.4128 53.1328 96.7477 52.8994 96.9956C52.6661 97.2435 52.3489 97.3842 52.0173 97.3869H36.3713H28.0022C27.9535 96.5475 27.9268 95.7005 27.9268 94.8458V94.7434H27.9357H35.6415H52.0076C52.3405 94.7434 52.6597 94.8825 52.8951 95.1302Z" style="fill:var(--sapContent_Illustrative_Color15)"/>
<rect x="64.7256" y="105.191" width="38.015" height="4.47226" rx="2.23613" style="fill:var(--sapContent_Illustrative_Color15)"/>
<path fill-rule="evenodd" clip-rule="evenodd" d="M34.759 79.8732C34.7592 79.8715 34.7594 79.8698 34.7596 79.8682H30.6245L30.5442 80.0882C30.4372 80.3774 30.3326 80.6666 30.2329 80.9583C30.2247 80.9821 30.2164 81.0057 30.2083 81.0293C30.1776 81.1174 30.1473 81.2047 30.1185 81.2935C30.0495 81.4989 29.9834 81.7087 29.9178 81.917C29.8632 82.0903 29.8089 82.2624 29.7537 82.4298C29.7381 82.4772 29.7246 82.5257 29.7111 82.5739C29.7035 82.6011 29.6959 82.6282 29.688 82.655C29.5883 82.9876 29.4934 83.3203 29.401 83.6581L29.3207 83.9549C29.2161 84.3593 29.114 84.7662 29.0191 85.1756L29.0045 85.237C28.9121 85.6337 28.8294 86.0329 28.7491 86.4321L28.698 86.688C28.535 87.5402 28.394 88.4025 28.2821 89.2726L28.2529 89.4876C28.1994 89.9226 28.1507 90.3602 28.1094 90.8003L28.1206 90.8003C28.1206 90.8012 28.1205 90.802 28.1204 90.8028H59.192L93.9219 90.9H105.111C104.947 89.0962 104.668 87.306 104.277 85.5414H82.9079C82.4873 85.5414 82.0839 85.7172 81.7865 86.0301C81.4891 86.343 81.322 86.7674 81.322 87.2099C81.322 87.4294 81.2809 87.6467 81.2011 87.8494C81.1213 88.0522 81.0043 88.2364 80.8568 88.3915C80.7093 88.5467 80.5342 88.6698 80.3415 88.7538C80.1488 88.8377 79.9422 88.881 79.7336 88.881H66.6108C65.1533 88.8803 63.7557 88.2707 62.7253 87.1861C61.6949 86.1016 61.116 84.631 61.116 83.0976V81.5417C61.116 81.3224 61.0749 81.1052 60.9951 80.9026C60.9152 80.7 60.7982 80.5159 60.6507 80.361C60.5031 80.206 60.328 80.0831 60.1353 79.9994C59.9426 79.9157 59.7361 79.8728 59.5276 79.8732H34.759Z" style="fill:var(--sapContent_Illustrative_Color15)"/>
<path d="M93.7272 84.791C93.7272 104.725 78.3674 120.884 59.4202 120.884C45.5667 120.884 33.6311 112.245 28.2148 99.8086C30.5428 119.945 46.8485 135.545 66.6173 135.545C87.9838 135.545 105.305 117.322 105.305 94.8432C105.305 77.9999 95.5798 63.5462 81.715 57.3577C89.0674 63.9774 93.7272 73.8117 93.7272 84.791Z" style="fill:var(--sapContent_Illustrative_Color15)"/>
<path fill-rule="evenodd" clip-rule="evenodd" d="M119.068 70.2792C116.921 65.1919 107.512 64.1375 94.5012 66.6403C95.2552 67.4643 95.9744 68.3173 96.6587 69.1993C105.474 68.1168 111.65 69.3042 113.228 73.0378C114.807 76.7715 111.509 82.3911 104.841 88.5482C104.842 88.5549 104.843 88.5616 104.844 88.5684C97.5106 95.3365 86.1035 102.759 72.6196 109.062C61.6374 114.196 51.0553 117.757 42.2722 119.542C40.6209 119.871 38.9611 120.154 37.2945 120.39C37.051 120.422 36.8095 120.453 36.5698 120.482C36.5698 120.482 36.5698 120.482 36.5698 120.482C27.7547 121.562 21.5789 120.375 19.9978 116.636C18.4192 112.897 21.7199 107.28 28.3872 101.126C28.2169 99.9743 28.0945 98.8082 28.0199 97.6277C17.3732 106.19 11.6887 114.33 13.856 119.459C16.0226 124.586 25.5504 125.6 38.7063 123.044C38.7079 123.045 38.7096 123.047 38.7112 123.049C39.3431 122.922 39.9741 122.791 40.604 122.654C41.3572 122.492 42.1212 122.319 42.8953 122.135C46.2109 121.35 49.4964 120.428 52.7437 119.369L52.7402 119.367C59.2689 117.268 66.2428 114.534 73.3615 111.206C86.0489 105.277 97.0969 98.4416 105.202 91.8726C105.201 91.8655 105.201 91.8585 105.2 91.8514C115.66 83.3949 121.216 75.3532 119.068 70.2792Z" style="fill:var(--sapContent_Illustrative_Color6)"/>
<path d="M290.774 107.501C291.677 106.599 291.677 105.136 290.774 104.234C289.872 103.332 288.41 103.332 287.508 104.234C286.605 105.136 286.605 106.599 287.508 107.501C288.41 108.403 289.872 108.403 290.774 107.501Z" style="fill:var(--sapContent_Illustrative_Color18)"/>
<path d="M275.421 124.906C276.323 124.004 276.323 122.542 275.421 121.639C274.519 120.737 273.056 120.737 272.154 121.639C271.252 122.542 271.252 124.004 272.154 124.906C273.056 125.809 274.519 125.809 275.421 124.906Z" style="fill:var(--sapContent_Illustrative_Color18)"/>
<path d="M172.839 61.4196C173.741 60.5175 173.741 59.0548 172.839 58.1526C171.937 57.2505 170.474 57.2505 169.572 58.1526C168.67 59.0548 168.67 60.5175 169.572 61.4196C170.474 62.3218 171.937 62.3218 172.839 61.4196Z" style="fill:var(--sapContent_Illustrative_Color18)"/>
<path d="M26.7657 44.6611C27.6679 43.7589 27.6679 42.2962 26.7657 41.3941C25.8636 40.4919 24.4009 40.4919 23.4987 41.3941C22.5966 42.2962 22.5966 43.7589 23.4987 44.6611C24.4009 45.5632 25.8636 45.5632 26.7657 44.6611Z" style="fill:var(--sapContent_Illustrative_Color18)"/>
<path d="M105.334 192.128C106.236 191.226 106.236 189.763 105.334 188.861C104.432 187.959 102.969 187.959 102.067 188.861C101.165 189.763 101.165 191.226 102.067 192.128C102.969 193.03 104.432 193.03 105.334 192.128Z" style="fill:var(--sapContent_Illustrative_Color18)"/>
<path d="M283.793 196.168C284.942 195.019 284.942 193.156 283.793 192.007C282.644 190.857 280.781 190.857 279.632 192.007C278.482 193.156 278.482 195.019 279.632 196.168C280.781 197.317 282.644 197.317 283.793 196.168Z" style="fill:var(--sapContent_Illustrative_Color19)"/>
<path d="M138.038 41.394C138.94 40.4918 138.94 39.0292 138.038 38.127C137.136 37.2249 135.673 37.2249 134.771 38.127C133.869 39.0292 133.869 40.4918 134.771 41.394C135.673 42.2961 137.136 42.2961 138.038 41.394Z" style="fill:var(--sapContent_Illustrative_Color20)"/>
<circle cx="186.762" cy="164.843" r="66.2081" style="fill:var(--sapContent_Illustrative_Color20)"/>
<path d="M249.875 177.755C249.652 177.342 248.613 175.511 246.94 175.363C245.621 175.246 244.522 176.097 243.06 177.944C239.157 182.864 239.006 184.098 240.083 187.315C240.246 187.842 240.583 188.299 241.039 188.61C241.502 188.905 242.043 189.054 242.591 189.037C244.586 189.09 246.679 187.667 247.174 187.319C247.509 187.088 247.822 186.826 248.107 186.536C250.88 183.701 250.12 179.034 249.875 177.755Z" style="fill:var(--sapContent_Illustrative_Color14)"/>
<path d="M182.052 156.079C180.508 156.109 178.968 156.235 177.44 156.458C176.723 156.575 176 156.65 175.275 156.681C174.346 156.589 173.434 156.368 172.566 156.022C171.455 155.583 170.283 155.319 169.091 155.239C167.852 155.239 166.269 155.746 165.759 158.324C165.611 158.83 165.583 159.364 165.676 159.883C165.769 160.402 165.981 160.893 166.295 161.317C166.998 162.169 168.241 162.581 169.979 162.581C170.961 162.56 171.941 162.479 172.914 162.339C173.37 162.271 173.827 162.226 174.285 162.203C174.852 162.203 175.128 162.441 175.721 163.017C176.566 163.937 177.632 164.624 178.819 165.011L179.196 165.14C181.163 165.89 183.229 166.342 185.328 166.484H185.354C185.98 166.532 186.61 166.443 187.198 166.222C187.786 166.006 188.319 165.66 188.758 165.212C189.176 164.65 189.467 164.005 189.612 163.32C189.752 162.631 189.74 161.92 189.574 161.238C189.075 157.794 186.552 156.079 182.052 156.079Z" style="fill:var(--sapContent_Illustrative_Color14)"/>
<path d="M220.673 184.238C218.278 184.249 215.9 184.649 213.632 185.422C212.852 185.714 212.036 185.895 211.206 185.96C210.663 185.956 210.135 185.783 209.695 185.464C208.822 184.738 208.168 183.782 207.806 182.705C206.99 180.888 205.978 178.621 202.517 178.621H201.762C200.31 178.625 198.872 178.341 197.531 177.785C196.193 177.228 194.979 176.41 193.961 175.378C193.463 174.849 192.861 174.43 192.193 174.148C191.523 173.867 190.803 173.729 190.077 173.743C188.947 173.789 187.828 173.984 186.749 174.322C185.949 174.572 185.122 174.726 184.286 174.78C183.098 174.723 181.943 174.374 180.924 173.762C179.906 173.152 179.052 172.302 178.438 171.286C178.192 170.783 177.527 169.47 176.284 169.47C175.298 169.47 174.396 170.246 173.104 172.149C172.907 172.479 172.726 172.762 172.56 173.016C172.298 173.473 171.991 173.902 171.642 174.295C170.9 173.677 170.254 172.951 169.726 172.142C169.299 171.57 168.891 171.025 168.514 170.495C166.179 167.392 164.532 165.098 162.715 164.232C162.134 163.951 161.534 163.712 160.92 163.516C159.715 163.138 158.831 162.816 158.317 161.787C158.148 161.344 158.057 160.875 158.049 160.401C157.887 158.358 157.358 156.526 152.76 156.526C151.219 156.526 150.203 156.204 149.912 155.659C149.534 154.902 150.067 153.388 151.566 151.151C152.726 149.308 154.037 148.445 155.344 148.445C156.428 148.445 157.611 149.074 158.873 150.338C160.788 152.249 162.688 153.218 164.517 153.218C165.313 153.199 166.097 153.018 166.821 152.684C167.539 152.352 168.182 151.877 168.71 151.288C170.746 149.289 171.77 147.23 172.767 143.234C173.806 139.07 175.654 134.218 180.701 133.352C181.834 133.162 182.967 133.015 184.021 132.867C188.475 132.254 192.004 131.758 193.738 129.162C196.216 125.449 197.429 119.428 192.672 114.678C190.142 112 186.668 110.419 182.99 110.272C181.274 110.302 179.586 110.719 178.052 111.491C176.521 112.261 175.183 113.369 174.139 114.731C171.592 117.785 169.605 119.817 168.124 119.817C167.219 119.696 166.396 119.223 165.835 118.5C165.416 117.998 165.114 117.408 164.951 116.774C164.79 116.139 164.773 115.475 164.902 114.833C165.013 114.074 165.307 113.354 165.76 112.736C166.213 112.115 166.811 111.615 167.501 111.279C168.792 110.776 170.176 110.56 171.558 110.647C174.252 110.586 177.312 110.526 179.356 107.123C180.406 105.378 180.655 103.812 180.111 102.46C179.79 101.805 179.333 101.226 178.77 100.761C178.209 100.293 177.472 99.6634 176.769 99.468H176.425C165.555 100.983 155.33 105.521 146.546 112.112C137.771 118.685 130.812 127.388 126.323 137.401C126.195 137.663 123.082 143.96 124.106 148.044C124.69 150.121 125.924 151.954 127.627 153.275C129.331 154.599 131.413 155.343 133.569 155.398C137.184 155.398 139.636 156.265 141.37 160.591C143.297 165.401 147.962 168.436 151.43 169.587C151.906 169.742 152.382 169.875 152.851 170.003C155.144 170.643 157.12 171.188 158.563 174.806C159.008 176.173 159.896 177.35 161.086 178.152C162.285 178.947 163.714 179.321 165.148 179.215H167.278C168.121 179.257 169.273 179.329 169.602 179.923C169.79 180.279 170.025 181.437 168.204 184.605C164.184 191.63 165.182 194.79 167.21 198.802C168.374 201.164 170.077 203.218 172.182 204.797C174.299 206.376 176.758 207.431 179.36 207.878C179.915 207.923 180.451 208.105 180.92 208.407C181.393 208.707 181.782 209.121 182.053 209.611C183.118 211.711 182.053 215.39 180.659 218.138C179.999 219.429 179.214 220.652 178.317 221.79C177.425 222.994 176.723 223.921 176.723 225.253C176.812 226.863 177.157 228.449 177.743 229.95L177.935 230.423L178.445 230.488C180.886 230.77 183.473 231.057 185.929 231.051C187.063 231.051 188.155 231.025 189.246 231.017L192.306 230.858L189.469 229.235C189.409 229.205 188.067 228.436 188.067 225.295C188.067 224.319 190.043 223.274 195.581 223.274H197.799C198.782 223.2 199.697 222.743 200.349 222.002L200.799 221.446C202.808 218.929 207.648 213.029 209.744 211.636C210.673 211.042 211.694 210.61 212.767 210.357C214.579 209.956 216.235 209.035 217.534 207.707C218.176 207.09 218.69 206.352 219.045 205.535C219.401 204.715 219.588 203.832 219.597 202.938C219.599 201.874 219.9 200.831 220.466 199.93C221.217 198.934 222.175 198.113 223.273 197.522C224.712 196.659 226.446 195.558 227.311 193.196C228.509 190.006 228.648 187.996 227.579 186.475C226.51 184.953 224.364 184.238 220.673 184.238Z" style="fill:var(--sapContent_Illustrative_Color14)"/>
<path d="M189.326 106.873C190.587 107.262 191.903 107.438 193.221 107.395C194.052 107.395 194.566 107.395 194.778 107.615C195.076 108.028 195.295 108.492 195.424 108.985C195.862 110.2 196.402 111.699 197.906 112.422C199.132 112.923 200.45 113.162 201.774 113.122C202.968 113.122 205.93 112.951 207.607 111.335C211.034 108.035 206.132 101.8 205.916 101.55L205.758 101.365L205.512 101.289C199.312 99.3466 192.566 98.5886 186.07 98.6375H184.68L184.846 99.6139C184.959 100.246 186.025 105.813 189.326 106.873Z" style="fill:var(--sapContent_Illustrative_Color14)"/>
<path d="M244.609 150.546C246.593 146.762 246.343 142.651 243.914 138.692C239.339 131.267 228.395 126.282 221.036 126.282C216.446 126.282 213.344 128.125 212.294 131.445C211.391 134.139 211.168 137.015 211.644 139.817C212.12 142.622 213.28 145.266 215.022 147.515C219.177 153.101 226.483 156.856 233.219 156.856C238.459 156.856 242.494 154.615 244.609 150.546Z" style="fill:var(--sapContent_Illustrative_Color14)"/>
<path fill-rule="evenodd" clip-rule="evenodd" d="M228.873 113.751C228.873 113.751 228.873 113.751 228.873 113.751C233.07 122.446 235.423 132.198 235.423 142.5C235.423 179.066 205.781 208.708 169.215 208.708C153.219 208.708 138.548 203.036 127.104 193.592C127.563 194.542 128.043 195.479 128.545 196.402C123.448 187.021 120.554 176.27 120.554 164.843C120.554 128.278 150.196 98.6353 186.762 98.6353C202.758 98.6353 217.429 104.308 228.873 113.751Z" style="fill:var(--sapContent_Illustrative_Color18)"/>
<path fill-rule="evenodd" clip-rule="evenodd" d="M234.264 130.097C229.835 127.68 224.933 126.282 221.037 126.282C216.447 126.282 213.345 128.125 212.295 131.445C211.392 134.139 211.169 137.015 211.645 139.817C212.121 142.622 213.281 145.266 215.023 147.515C219.178 153.101 226.484 156.856 233.22 156.856C233.437 156.856 233.653 156.852 233.866 156.844C234.886 152.225 235.424 147.425 235.424 142.5C235.424 138.261 235.025 134.115 234.264 130.097Z" style="fill:var(--sapContent_Illustrative_Color17)"/>
<path fill-rule="evenodd" clip-rule="evenodd" d="M220.612 184.238C218.237 184.256 215.88 184.656 213.631 185.423C212.851 185.714 212.035 185.895 211.205 185.96C210.662 185.956 210.134 185.783 209.694 185.464C208.821 184.738 208.167 183.783 207.805 182.705L207.801 182.696C206.986 180.881 205.971 178.622 202.516 178.622H201.761C200.309 178.625 198.871 178.341 197.53 177.785C196.192 177.228 194.978 176.41 193.96 175.378C193.462 174.85 192.86 174.431 192.192 174.148C191.522 173.867 190.802 173.729 190.076 173.743C188.946 173.79 187.827 173.984 186.748 174.322C185.948 174.572 185.121 174.726 184.285 174.78C183.097 174.724 181.942 174.374 180.923 173.762C179.905 173.152 179.052 172.302 178.437 171.287C178.191 170.783 177.526 169.47 176.284 169.47C175.297 169.47 174.395 170.246 173.103 172.15C172.906 172.479 172.725 172.763 172.559 173.016C172.297 173.473 171.99 173.902 171.641 174.296C170.899 173.677 170.253 172.951 169.725 172.142L169.666 172.063C169.261 171.52 168.873 171.001 168.513 170.496C168.372 170.309 168.234 170.125 168.098 169.944C165.979 167.121 164.421 165.046 162.714 164.232C162.133 163.951 161.533 163.712 160.919 163.517C159.714 163.138 158.83 162.816 158.316 161.787C158.147 161.344 158.056 160.876 158.048 160.402C157.886 158.358 157.357 156.526 152.759 156.526C151.218 156.526 150.202 156.204 149.911 155.659C149.533 154.902 150.066 153.388 151.565 151.152C152.725 149.308 154.036 148.446 155.343 148.446C156.427 148.446 157.61 149.074 158.872 150.338C160.787 152.249 162.687 153.218 164.516 153.218C165.312 153.2 166.096 153.018 166.82 152.685C167.538 152.352 168.181 151.877 168.709 151.288C170.745 149.29 171.769 147.231 172.766 143.234C173.805 139.071 175.653 134.219 180.7 133.352C181.597 133.202 182.495 133.078 183.353 132.96C183.579 132.929 183.801 132.898 184.02 132.867C188.474 132.254 192.003 131.759 193.737 129.162C196.215 125.449 197.428 119.428 192.672 114.678C190.141 112 186.667 110.419 182.989 110.272C181.273 110.303 179.585 110.719 178.052 111.491C176.52 112.262 175.182 113.369 174.138 114.731C171.591 117.785 169.604 119.818 168.123 119.818C167.218 119.696 166.395 119.223 165.834 118.5C165.415 117.998 165.113 117.408 164.95 116.775C164.789 116.139 164.772 115.476 164.901 114.833C165.012 114.074 165.306 113.355 165.759 112.736C166.212 112.116 166.81 111.615 167.5 111.279C168.791 110.776 170.175 110.56 171.557 110.647L171.577 110.647C174.266 110.586 177.316 110.518 179.355 107.123C180.405 105.379 180.654 103.812 180.11 102.461C179.789 101.805 179.332 101.226 178.769 100.761C178.75 100.745 178.73 100.729 178.711 100.712C178.157 100.25 177.447 99.6569 176.768 99.4683H176.424C165.554 100.984 155.329 105.521 146.545 112.112C137.77 118.685 130.811 127.389 126.322 137.402L126.32 137.406C126.166 137.72 123.086 143.979 124.105 148.044C124.689 150.121 125.923 151.954 127.626 153.275C129.33 154.599 131.412 155.343 133.568 155.398C137.183 155.398 139.635 156.265 141.369 160.591C143.296 165.401 147.961 168.437 151.429 169.587C151.905 169.742 152.381 169.875 152.85 170.004L152.863 170.007C155.15 170.645 157.122 171.195 158.562 174.806C159.007 176.173 159.895 177.351 161.085 178.152C162.284 178.947 163.713 179.321 165.147 179.216H167.277C168.12 179.257 169.272 179.329 169.601 179.923C169.789 180.279 170.024 181.437 168.203 184.605C164.183 191.63 165.181 194.79 167.209 198.802C168.373 201.164 170.076 203.218 172.181 204.797C174.298 206.376 176.757 207.432 179.359 207.878C179.431 207.884 179.503 207.892 179.574 207.902C196.065 205.311 210.535 196.632 220.612 184.238ZM183.385 230.967C184.241 231.021 185.092 231.053 185.928 231.052C186.069 231.052 186.209 231.051 186.349 231.051C185.355 231.045 184.368 231.017 183.385 230.967ZM188.768 231.022C188.927 231.02 189.086 231.019 189.245 231.018L192.305 230.859L192.251 230.828C191.098 230.922 189.937 230.987 188.768 231.022Z" style="fill:var(--sapContent_Illustrative_Color17)"/>
<path d="M182.052 156.079C180.508 156.109 178.968 156.235 177.44 156.458C176.723 156.576 176 156.65 175.275 156.681C174.346 156.589 173.434 156.368 172.566 156.023C171.455 155.583 170.283 155.319 169.091 155.239C167.852 155.239 166.269 155.746 165.759 158.324C165.611 158.83 165.583 159.364 165.676 159.883C165.769 160.403 165.981 160.894 166.295 161.318C166.998 162.169 168.241 162.582 169.979 162.582C170.961 162.56 171.941 162.479 172.914 162.339C173.37 162.271 173.827 162.226 174.285 162.203C174.852 162.203 175.128 162.442 175.721 163.017C176.566 163.937 177.632 164.624 178.819 165.012L179.196 165.14C181.163 165.89 183.229 166.343 185.328 166.484H185.354C185.98 166.532 186.61 166.443 187.198 166.223C187.786 166.006 188.319 165.661 188.758 165.212C189.176 164.65 189.467 164.005 189.612 163.32C189.752 162.632 189.74 161.921 189.574 161.238C189.075 157.794 186.552 156.079 182.052 156.079Z" style="fill:var(--sapContent_Illustrative_Color17)"/>
<path d="M189.326 106.873C190.587 107.262 191.903 107.438 193.221 107.395C194.052 107.395 194.566 107.395 194.778 107.615C195.076 108.028 195.295 108.492 195.424 108.985C195.862 110.2 196.402 111.699 197.906 112.422C199.132 112.923 200.45 113.162 201.774 113.122C202.968 113.122 205.93 112.951 207.607 111.335C211.034 108.035 206.132 101.8 205.916 101.55L205.758 101.365L205.512 101.289C199.312 99.3466 192.566 98.5886 186.07 98.6375H184.68L184.846 99.6139C184.959 100.246 186.025 105.813 189.326 106.873Z" style="fill:var(--sapContent_Illustrative_Color17)"/>
<path d="M38.2848 174.831L38.1945 174.887C36.6578 175.952 35.6309 177.545 35.3378 179.319C35.0446 181.093 35.5091 182.905 36.6298 184.358C37.7475 185.808 39.4279 186.784 41.3063 187.076C43.1847 187.367 45.1095 186.95 46.6629 185.915C46.7082 185.887 46.75 185.854 46.7876 185.818L80.5407 153.565C80.6704 153.423 80.7441 153.244 80.7494 153.058C80.7547 152.871 80.6913 152.689 80.5698 152.541C80.4484 152.393 80.2764 152.29 80.083 152.248C79.8897 152.206 79.6869 152.228 79.5091 152.311L38.2848 174.831Z" style="fill:var(--sapContent_Illustrative_Color19)"/>
<path d="M42.9879 184.528C45.6327 184.528 47.7767 182.511 47.7767 180.023C47.7767 177.535 45.6327 175.518 42.9879 175.518C40.3432 175.518 38.1992 177.535 38.1992 180.023C38.1992 182.511 40.3432 184.528 42.9879 184.528Z" style="fill:var(--sapContent_Illustrative_Color7)"/>
<path d="M65.8565 179.582L65.8049 179.635C64.9691 180.569 64.56 181.776 64.6672 182.993C64.7743 184.209 65.3888 185.337 66.3766 186.129C67.3604 186.913 68.6322 187.303 69.9184 187.215C71.2046 187.126 72.4026 186.567 73.2545 185.656L73.319 185.571L90.1655 159.185C90.2398 159.073 90.2676 158.938 90.2436 158.808C90.2196 158.677 90.1454 158.559 90.0352 158.476C89.9251 158.394 89.7865 158.352 89.6457 158.359C89.5049 158.366 89.3717 158.421 89.2714 158.514L65.8565 179.582Z" style="fill:var(--sapContent_Illustrative_Color19)"/>
<path d="M69.8414 185.377C71.641 185.377 73.0998 184.005 73.0998 182.312C73.0998 180.619 71.641 179.247 69.8414 179.247C68.0418 179.247 66.583 180.619 66.583 182.312C66.583 184.005 68.0418 185.377 69.8414 185.377Z" style="fill:var(--sapContent_Illustrative_Color7)"/>
<path fill-rule="evenodd" clip-rule="evenodd" d="M112.079 59.2857C112.222 60.659 111.224 61.888 109.851 62.0307C107.172 62.3092 104.537 62.8998 101.994 63.7804C100.689 64.2322 99.2654 63.5408 98.8136 62.2361C98.3618 60.9314 99.0532 59.5074 100.358 59.0556C103.257 58.0518 106.267 57.3763 109.334 57.0575C110.707 56.9148 111.936 57.9124 112.079 59.2857ZM115.736 59.3351C115.918 57.9663 117.174 57.0037 118.543 57.185C121.534 57.5812 124.523 58.3291 127.46 59.4504C128.75 59.9429 129.396 61.3878 128.904 62.6777C128.411 63.9676 126.966 64.614 125.676 64.1216C123.104 63.1396 120.494 62.4871 117.887 62.1417C116.518 61.9604 115.555 60.7038 115.736 59.3351ZM95.5151 63.8133C96.244 64.9859 95.8843 66.5274 94.7117 67.2563C92.4403 68.6682 90.3054 70.3383 88.3529 72.2448C87.365 73.2093 85.7822 73.1904 84.8176 72.2026C83.853 71.2147 83.8719 69.6319 84.8598 68.6673C87.0714 66.5078 89.4925 64.6133 92.0721 63.0099C93.2447 62.281 94.7862 62.6407 95.5151 63.8133ZM132.144 64.3574C132.905 63.2053 134.456 62.8882 135.608 63.6491C138.056 65.2656 140.422 67.1801 142.678 69.4037C143.661 70.3731 143.672 71.956 142.703 72.9392C141.733 73.9224 140.151 73.9336 139.167 72.9642C137.136 70.9617 135.021 69.2536 132.853 67.8213C131.701 67.0603 131.383 65.5095 132.144 64.3574ZM82.491 75.022C83.6427 75.7836 83.9589 77.3346 83.1974 78.4863C82.4575 79.6051 81.7692 80.773 81.1374 81.9877C80.5003 83.2126 78.9908 83.6892 77.7659 83.0521C76.541 82.415 76.0644 80.9055 76.7015 79.6806C77.4139 78.3108 78.1908 76.9925 79.0267 75.7284C79.7883 74.5767 81.3393 74.2604 82.491 75.022ZM145.062 75.7172C146.18 74.9071 147.743 75.1567 148.553 76.2748C150.233 78.5932 151.816 81.1295 153.287 83.89C153.937 85.1086 153.475 86.6227 152.257 87.272C151.038 87.9213 149.524 87.4599 148.875 86.2413C147.506 83.6734 146.043 81.3327 144.504 79.2085C143.694 78.0904 143.944 76.5273 145.062 75.7172ZM153.777 90.6009C155.061 90.0943 156.513 90.7248 157.02 92.0092C158.059 94.6437 159.011 97.4371 159.866 100.393C160.25 101.72 159.486 103.106 158.16 103.49C156.834 103.874 155.447 103.11 155.064 101.783C154.249 98.9704 153.348 96.3258 152.369 93.8439C151.862 92.5595 152.492 91.1076 153.777 90.6009ZM159.033 107.068C160.386 106.79 161.707 107.662 161.985 109.014C162.552 111.774 163.044 114.654 163.455 117.656C163.642 119.024 162.685 120.285 161.317 120.473C159.949 120.66 158.689 119.703 158.501 118.335C158.104 115.437 157.631 112.667 157.087 110.02C156.81 108.667 157.681 107.346 159.033 107.068ZM161.701 124.081C163.077 123.972 164.282 124.999 164.391 126.375C164.506 127.827 164.604 129.305 164.684 130.808C164.757 132.187 163.699 133.364 162.32 133.437C160.941 133.511 159.764 132.452 159.691 131.074C159.613 129.613 159.518 128.179 159.406 126.771C159.297 125.394 160.325 124.19 161.701 124.081Z" style="fill:var(--sapContent_Illustrative_Color5)"/>
<path d="M178.423 45.894C165.526 45.894 158.737 56.7992 158.737 68.7896C158.737 81.6108 171.472 98.6739 176.866 105.326C178.18 106.947 180.501 107.175 182.079 105.809C188.613 100.155 204.137 85.0132 204.137 68.7897C204.137 54.4204 191.319 45.894 178.423 45.894ZM182.064 76.5354C177.466 76.5354 173.733 73.0653 173.733 68.7896C173.733 64.514 177.466 61.0438 182.064 61.0438C186.663 61.0438 190.395 64.514 190.395 68.7896C190.395 73.0653 186.663 76.5354 182.064 76.5354Z" style="fill:var(--sapContent_Illustrative_Color16)"/>
<path d="M176.862 45.9138C164.872 45.9138 155.174 55.6115 155.174 67.602C155.174 80.163 168.107 97.343 173.999 104.518C175.503 106.349 178.221 106.349 179.725 104.518C185.617 97.343 198.55 80.163 198.55 67.602C198.55 55.6115 188.852 45.9138 176.862 45.9138ZM176.862 75.3477C172.586 75.3477 169.116 71.8776 169.116 67.602C169.116 63.3263 172.586 59.8562 176.862 59.8562C181.138 59.8562 184.608 63.3263 184.608 67.602C184.608 71.8776 181.138 75.3477 176.862 75.3477Z" style="fill:var(--sapContent_Illustrative_Color1)"/>
</svg>
