<svg width="160" height="160" viewBox="0 0 160 160" fill="none" xmlns="http://www.w3.org/2000/svg" id="tnt-Dialog-Dialog">
<circle cx="80" cy="80" r="80" style="fill:var(--sapContent_Illustrative_Color7)"/>
<path d="M32.0936 36.9167C32.3491 36.6673 32.6671 36.4914 33.0142 36.4075C33.3613 36.3235 33.7246 36.3347 34.0659 36.4398L42.2483 38.728C43.6018 39.1058 44.0174 40.4275 43.721 41.4883C43.6156 41.9268 43.3706 42.3193 43.0229 42.6067C42.6753 42.8941 42.2437 43.0608 41.7931 43.082C41.5751 43.0857 41.3578 43.0564 41.1486 42.9951L32.9661 40.7069C32.6051 40.6138 32.2759 40.425 32.0134 40.1602C31.7509 39.8954 31.5649 39.5646 31.475 39.2028C31.3749 38.8006 31.3792 38.3795 31.4874 37.9795C31.5957 37.5794 31.8043 37.2136 32.0936 36.9167Z" style="fill:var(--sapContent_Illustrative_Color5)"/>
<path d="M67.136 6.8695C67.3851 6.81205 67.6433 6.80716 67.8943 6.85513C68.1453 6.9031 68.3836 7.00288 68.5939 7.1481C68.8042 7.29332 68.9819 7.48078 69.1156 7.69853C69.2494 7.91627 69.3363 8.15951 69.3708 8.41272L70.8612 16.5535C70.9138 16.8464 70.9075 17.1468 70.8427 17.4373C70.7779 17.7277 70.6559 18.0023 70.4838 18.2451C70.3117 18.4878 70.093 18.6939 69.8403 18.8511C69.5877 19.0084 69.3063 19.1138 69.0125 19.1612C68.8919 19.184 68.7696 19.197 68.6469 19.1999C68.1936 19.2172 67.7503 19.064 67.4044 18.7706C67.0584 18.4772 66.835 18.0649 66.7781 17.6149L65.2903 9.47742C65.2372 9.18469 65.243 8.88431 65.3075 8.59386C65.3719 8.30341 65.4936 8.02873 65.6655 7.78588C65.8373 7.54303 66.0559 7.33691 66.3084 7.17956C66.5609 7.02221 66.8423 6.9168 67.136 6.8695Z" style="fill:var(--sapContent_Illustrative_Color5)"/>
<path d="M45.5815 15.494C45.8605 15.5042 46.1345 15.5712 46.3867 15.6909C46.6389 15.8106 46.8641 15.9805 47.0484 16.1902L55.4115 25.5136C55.7842 25.9338 55.9801 26.4819 55.9581 27.0431C55.9361 27.6044 55.6979 28.1355 55.2935 28.5252C54.9168 28.8852 54.4186 29.0905 53.8977 29.1004C53.5975 29.1056 53.2996 29.046 53.0244 28.9257C52.7493 28.8054 52.5033 28.6272 52.3032 28.4033L43.9401 19.08C43.565 18.6577 43.3682 18.1064 43.391 17.542C43.4139 16.9777 43.6547 16.4441 44.0627 16.0536C44.2651 15.8628 44.504 15.7149 44.765 15.6188C45.0259 15.5226 45.3037 15.4802 45.5815 15.494Z" style="fill:var(--sapContent_Illustrative_Color5)"/>
<path fill-rule="evenodd" clip-rule="evenodd" d="M114.287 91.3308C94.0541 91.8635 79.9521 74.6523 82.7891 52.8886C85.6262 31.1249 104.328 13.0501 124.561 12.5175C144.793 11.9848 158.895 29.196 156.058 50.9597C155.123 58.1346 152.463 64.9085 148.593 70.7852L152.341 84.5786C152.706 85.9203 151.283 87.4897 150.009 87.1515L136.394 83.5368C129.823 88.252 122.171 91.1233 114.287 91.3308Z" style="fill:var(--sapContent_Illustrative_Color6)"/>
<path fill-rule="evenodd" clip-rule="evenodd" d="M82.5565 55.1577C80.9506 75.8362 94.766 91.8453 114.29 91.3313C122.175 91.1237 129.826 88.2525 136.397 83.5372L150.013 87.1519C150.633 87.3167 151.289 87.0287 151.757 86.5349L82.5565 55.1577ZM85.5205 42.2396L148.614 70.8477L148.597 70.7856C152.467 64.909 155.127 58.135 156.062 50.9601C156.169 50.1403 156.252 49.3269 156.311 48.5206L99.3915 22.7119C93.3568 27.8518 88.4729 34.6126 85.5205 42.2396Z" style="fill:var(--sapContent_Illustrative_Color5)"/>
<path fill-rule="evenodd" clip-rule="evenodd" d="M108.437 87.6289C88.6511 88.1498 74.8605 71.3186 77.6349 50.0354C80.4092 28.7522 98.6981 11.0765 118.484 10.5556C138.27 10.0347 152.061 26.8659 149.286 48.1491C148.372 55.1642 145.772 61.7874 141.988 67.5335L145.634 80.9494C145.998 82.2912 144.576 83.8606 143.302 83.5224L130.057 80.0061C123.631 84.6177 116.148 87.4259 108.437 87.6289Z" style="fill:var(--sapContent_Illustrative_Color8)"/>
<circle cx="96.9541" cy="51.1526" r="4.73343" style="fill:var(--sapContent_Illustrative_Color6)"/>
<circle cx="96.3506" cy="46.4192" r="4.73343" style="fill:var(--sapContent_Illustrative_Color3)"/>
<path fill-rule="evenodd" clip-rule="evenodd" d="M100.317 43.8345C100.189 46.335 98.1216 48.3234 95.5894 48.3234C93.929 48.3234 92.4683 47.4684 91.6234 46.1747C91.6193 46.2557 91.6172 46.3372 91.6172 46.4192C91.6172 49.0334 93.7364 51.1527 96.3506 51.1527C98.9648 51.1527 101.084 49.0334 101.084 46.4192C101.084 45.4655 100.802 44.5776 100.317 43.8345Z" style="fill:var(--sapContent_Illustrative_Color15)"/>
<circle cx="113.716" cy="51.1529" r="4.73343" style="fill:var(--sapContent_Illustrative_Color6)"/>
<circle cx="113.11" cy="46.4192" r="4.73343" style="fill:var(--sapContent_Illustrative_Color3)"/>
<path fill-rule="evenodd" clip-rule="evenodd" d="M117.076 43.8345C116.949 46.335 114.881 48.3234 112.349 48.3234C110.689 48.3234 109.228 47.4684 108.383 46.1747C108.379 46.2557 108.377 46.3372 108.377 46.4192C108.377 49.0334 110.496 51.1527 113.11 51.1527C115.725 51.1527 117.844 49.0334 117.844 46.4192C117.844 45.4655 117.562 44.5776 117.076 43.8345Z" style="fill:var(--sapContent_Illustrative_Color15)"/>
<circle cx="130.718" cy="51.1529" r="4.73343" style="fill:var(--sapContent_Illustrative_Color6)"/>
<circle cx="130.112" cy="46.4192" r="4.73343" style="fill:var(--sapContent_Illustrative_Color3)"/>
<path fill-rule="evenodd" clip-rule="evenodd" d="M134.078 43.8347C133.951 46.3353 131.883 48.3236 129.351 48.3236C127.691 48.3236 126.23 47.4687 125.385 46.175C125.381 46.256 125.379 46.3375 125.379 46.4195C125.379 49.0337 127.498 51.1529 130.112 51.1529C132.727 51.1529 134.846 49.0337 134.846 46.4195C134.846 45.4657 134.564 44.5778 134.078 43.8347Z" style="fill:var(--sapContent_Illustrative_Color15)"/>
<path fill-rule="evenodd" clip-rule="evenodd" d="M78.2871 64.1423C81.6764 78.2744 93.3026 88.0273 108.436 87.6289C108.771 87.6201 109.105 87.6064 109.439 87.5879C107.34 80.3034 102.073 73.4012 94.3502 68.881C89.1786 65.854 83.6147 64.3102 78.2871 64.1423Z" style="fill:var(--sapContent_Illustrative_Color6)"/>
<path fill-rule="evenodd" clip-rule="evenodd" d="M55.9873 148.507C80.7536 147.674 99.0942 126.168 96.9523 100.472C94.8103 74.775 72.997 54.6184 48.2307 55.4508C23.4645 56.2831 5.1239 77.7891 7.26582 103.486C7.97178 111.955 10.8146 119.823 15.1957 126.535L9.69051 143.423C9.18254 144.982 10.7204 146.664 12.2233 146.194L29.368 140.832C37.133 145.968 46.336 148.831 55.9873 148.507Z" style="fill:var(--sapContent_Illustrative_Color4)"/>
<path fill-rule="evenodd" clip-rule="evenodd" d="M95.6058 116.391L9.58885 144.12C9.58061 143.89 9.61088 143.656 9.68654 143.423L15.1918 126.535C10.8106 119.823 7.9678 111.955 7.26185 103.486C5.11993 77.7892 23.4606 56.2832 48.2268 55.4509C72.993 54.6186 94.8064 74.7752 96.9483 100.472C97.4116 106.03 96.9167 111.392 95.6058 116.391Z" style="fill:var(--sapContent_Illustrative_Color13)"/>
<path fill-rule="evenodd" clip-rule="evenodd" d="M9.58886 144.121L59.5069 128.028L54.637 112.922L14.7157 125.792C14.8723 126.041 15.031 126.289 15.1918 126.535L9.68654 143.423C9.61085 143.655 9.58058 143.89 9.58886 144.121ZM10.0926 116.353L51.4526 103.014L40.7942 69.9658L11.6303 79.3714C8.17388 86.4927 6.53343 94.7469 7.26185 103.486C7.63573 107.971 8.60894 112.288 10.0926 116.353Z" style="fill:var(--sapContent_Illustrative_Color20)"/>
<path fill-rule="evenodd" clip-rule="evenodd" d="M59.761 144.984C82.7503 144.211 99.7279 123.683 97.6815 99.1325C95.6351 74.5819 75.3397 55.3061 52.3504 56.0787C29.3611 56.8513 12.3835 77.3798 14.4299 101.93C15.1044 110.023 17.7618 117.542 21.8449 123.959L16.8489 139.844C16.3545 141.416 17.9089 143.127 19.3971 142.649L35.0329 137.628C42.2528 142.542 50.8024 145.285 59.761 144.984Z" style="fill:var(--sapContent_Illustrative_Color2)"/>
<circle cx="36.6173" cy="101.768" r="5.42396" style="fill:var(--sapContent_Illustrative_Color14)"/>
<circle cx="39.7169" cy="93.9008" r="5.42396" style="fill:var(--sapContent_Illustrative_Color8)"/>
<path fill-rule="evenodd" clip-rule="evenodd" d="M45.1374 93.7726C44.1556 95.1649 42.5349 96.0744 40.7017 96.0744C37.749 96.0744 35.3474 93.7151 35.2792 90.7788C34.6567 91.6617 34.291 92.7386 34.291 93.901C34.291 96.8966 36.7194 99.325 39.715 99.325C42.7105 99.325 45.1389 96.8966 45.1389 93.901C45.1389 93.8581 45.1384 93.8153 45.1374 93.7726Z" style="fill:var(--sapContent_Illustrative_Color6)"/>
<circle cx="56.4064" cy="104.071" r="5.42396" style="fill:var(--sapContent_Illustrative_Color14)"/>
<circle cx="76.1935" cy="107.192" r="5.42396" style="fill:var(--sapContent_Illustrative_Color14)"/>
<circle cx="59.504" cy="96.2035" r="5.42396" style="fill:var(--sapContent_Illustrative_Color8)"/>
<circle cx="79.2931" cy="99.3246" r="5.42396" style="fill:var(--sapContent_Illustrative_Color8)"/>
<path fill-rule="evenodd" clip-rule="evenodd" d="M64.9285 96.0749C63.9466 97.4672 62.3259 98.3766 60.4927 98.3766C57.5401 98.3766 55.1386 96.0174 55.0702 93.0813C54.4477 93.9641 54.082 95.0411 54.082 96.2035C54.082 99.1991 56.5104 101.628 59.506 101.628C62.5016 101.628 64.9299 99.1991 64.9299 96.2035C64.9299 96.1605 64.9294 96.1177 64.9285 96.0749Z" style="fill:var(--sapContent_Illustrative_Color6)"/>
<path fill-rule="evenodd" clip-rule="evenodd" d="M84.7156 99.1965C83.7338 100.589 82.113 101.498 80.2798 101.498C77.3272 101.498 74.9256 99.1389 74.8574 96.2026C74.2348 97.0855 73.8691 98.1625 73.8691 99.3249C73.8691 102.32 76.2975 104.749 79.2931 104.749C82.2887 104.749 84.7171 102.32 84.7171 99.3249C84.7171 99.282 84.7166 99.2392 84.7156 99.1965Z" style="fill:var(--sapContent_Illustrative_Color6)"/>
</svg>
