<svg width="128" height="128" version="1.1" id="tnt-Spot-Avatar" xmlns="http://www.w3.org/2000/svg" xmlns:xlink="http://www.w3.org/1999/xlink" x="0px" y="0px"
	 viewBox="0 0 128 128" enable-background="new 0 0 128 128" xml:space="preserve">
<circle style="fill:var(--sapContent_Illustrative_Color7)" cx="64" cy="64" r="64"/>
<path style="fill:var(--sapContent_Illustrative_Color3)" d="M114.1,52.1c-0.1-2.4-0.7-4.2-1.3-4.2c-0.6,0-1.1,1.8-1.3,4.2c-2.4,0.2-4.2,0.7-4.2,1.3s1.8,1.1,4.2,1.2
	c0.1,2.4,0.7,4.2,1.3,4.2c0.6,0,1.1-1.8,1.3-4.2c2.4-0.2,4.2-0.7,4.2-1.3C118.3,52.7,116.5,52.2,114.1,52.1z"/>
<path style="fill:var(--sapContent_Illustrative_Color3)" d="M64.5,9.9c-0.1-1.3-0.4-2.4-0.7-2.4s-0.6,1-0.7,2.4c-1.4,0.1-2.4,0.4-2.4,0.7s1,0.6,2.4,0.7
	c0.1,1.3,0.4,2.4,0.7,2.4s0.6-1,0.7-2.4c1.4-0.1,2.4-0.4,2.4-0.7C66.8,10.3,65.8,10,64.5,9.9z"/>
<path style="fill:var(--sapContent_Illustrative_Color18)" d="M101.3,59.5c0.5-0.5,0.5-1.3,0-1.8s-1.3-0.5-1.8,0s-0.5,1.3,0,1.8C100,60.1,100.8,60.1,101.3,59.5z"/>
<path style="fill:var(--sapContent_Illustrative_Color18)" d="M79.7,45.9c0.5-0.5,0.5-1.3,0-1.8s-1.3-0.5-1.8,0s-0.5,1.3,0,1.8C78.4,46.4,79.2,46.4,79.7,45.9z"/>
<path style="fill:var(--sapContent_Illustrative_Color18)" d="M6.4,53.8c0.6-0.6,0.6-1.7,0-2.3s-1.7-0.6-2.3,0s-0.6,1.7,0,2.3C4.7,54.4,5.8,54.4,6.4,53.8z"/>
<path style="fill:var(--sapContent_Illustrative_Color20)" d="M58.8,16.5c0.5-0.5,0.5-1.3,0-1.8s-1.3-0.5-1.8,0s-0.5,1.3,0,1.8S58.3,17,58.8,16.5z"/>
<path style="fill:var(--sapContent_Illustrative_Color19)" d="M92.4,115.2c0.6-0.6,0.6-1.7,0-2.3c-0.6-0.6-1.7-0.6-2.3,0c-0.6,0.6-0.6,1.7,0,2.3S91.7,115.8,92.4,115.2z"
	/>
<path style="fill:var(--sapContent_Illustrative_Color19)" d="M72.7,28.4c-0.4-2,1.8-4.3,5.6-6.6c0-0.6,0.1-1.1,0.2-1.7c-6,3-9.6,6.4-9,9.1c0.5,2.7,5,4.1,11.6,4.2
	c-0.3-0.5-0.5-1-0.8-1.5C76,31.6,73.1,30.4,72.7,28.4z"/>
<path fill-rule="evenodd" clip-rule="evenodd" style="fill:var(--sapContent_Illustrative_Color19)" d="M116,26.7c-2.3,10.8-12.5,17.7-22.7,15.6
	C83,40.1,76.5,29.6,78.8,18.7c1.3-6.1,5.1-11,10-13.7C99.7,9.6,109.1,17.2,116,26.7z"/>
<path fill-rule="evenodd" clip-rule="evenodd" style="fill:var(--sapContent_Illustrative_Color7)" d="M111.3,20.9l-5.1-1.1c-0.2,0-0.4,0-0.6,0.1s-0.3,0.3-0.3,0.5
	c0,0.1-0.1,0.2-0.1,0.3c-0.1,0.1-0.1,0.2-0.2,0.2c-0.1,0.1-0.2,0.1-0.3,0.1c-0.1,0-0.2,0-0.3,0L98,19.8c-0.7-0.1-1.3-0.6-1.7-1.2
	s-0.5-1.4-0.4-2.1l0.2-0.7c0-0.1,0-0.2,0-0.3S96,15.3,96,15.2c-0.1-0.1-0.1-0.2-0.2-0.2c-0.1-0.1-0.2-0.1-0.3-0.1l-11.9-2.5l0,0
	l-2-0.4l-0.1,0.1c-0.1,0.1-0.2,0.3-0.2,0.4l0,0c0,0,0,0.1-0.1,0.1c-0.1,0.1-0.1,0.2-0.2,0.3l0,0c0,0.1-0.1,0.2-0.1,0.2s0,0,0,0.1
	l0,0l0,0l0,0c-0.1,0.2-0.2,0.3-0.2,0.5l-0.1,0.1c-0.1,0.2-0.2,0.4-0.3,0.6l0,0c-0.1,0.2-0.2,0.4-0.2,0.5H80
	c-0.2,0.4-0.3,0.8-0.5,1.2v0.1c-0.1,0.2-0.1,0.4-0.2,0.6l0,0l0,0l15,3.1l16.7,3.6l3.2,0.7C113.2,23,112.3,21.9,111.3,20.9z
	 M114.4,24.6c0.3,0.3,0.5,0.7,0.8,1c-4.4,2.1-10,4.1-16.2,5.6c-3.8,0.9-7.4,1.5-10.8,1.8l0,0c-1.8,0.2-3.6,0.3-5.4,0.3
	c-0.2,0-0.3,0-0.5,0c-0.4,0-0.8,0-1.3,0c-0.1-0.2-0.3-0.5-0.4-0.7l0,0c-0.1-0.2-0.2-0.5-0.4-0.7l0,0l0,0c0.1,0,0.3,0,0.4,0
	C81.4,32,82.2,32,83,32c4.4,0,9.9-0.6,15.8-2C104.9,28.7,110.4,26.7,114.4,24.6z M93.2,21.7l1.2,0.2c0.2,0,0.3,0.1,0.4,0.3
	c0.1,0.1,0.1,0.3,0.1,0.5s-0.1,0.3-0.3,0.4s-0.3,0.1-0.5,0.1L93,23c-0.2,0-0.3-0.1-0.4-0.3s-0.1-0.3-0.1-0.5s0.1-0.3,0.3-0.4
	C92.9,21.7,93.1,21.7,93.2,21.7z M107.2,32.8c0.3-0.1,0.5-0.3,0.7-0.5s0.4-0.3,0.6-0.4s0.5-0.1,0.7-0.1l4.4,0.9
	c-0.6,1-1.2,1.9-1.9,2.8l-6.9-1.4c-0.1,0-0.2-0.1-0.2-0.1c-0.1-0.1-0.1-0.1-0.2-0.2c0-0.1-0.1-0.2-0.1-0.3s0-0.2,0.1-0.3
	s0.2-0.3,0.3-0.3c0.1-0.1,0.3-0.1,0.4-0.1l1.2,0.1C106.6,33,106.9,33,107.2,32.8z M78.8,18.7L78.8,18.7L78.8,18.7l3.7,0.8l0,0
	l7.9,1.7c0.2,0,0.3,0.1,0.4,0.3c0.1,0.1,0.1,0.3,0.1,0.5s-0.1,0.3-0.3,0.4c-0.1,0.1-0.3,0.1-0.5,0.1L78.5,20
	C78.6,19.5,78.7,19.1,78.8,18.7L78.8,18.7z"/>
<path fill-rule="evenodd" clip-rule="evenodd" style="fill:var(--sapContent_Illustrative_Color20)" d="M111.4,21c1.6,1.8,3.2,3.7,4.6,5.7c-2.3,10.8-12.5,17.7-22.7,15.6
	c-2.7-0.6-5.2-1.7-7.3-3.3c-0.1-0.1-0.2-0.2-0.4-0.3c-5-4-7.8-10.6-7.2-17.5c1.3,6.5,6.2,11.9,12.9,13.3
	C100.3,36.3,109.2,30.3,111.4,21z"/>
<path fill-rule="evenodd" clip-rule="evenodd" style="fill:var(--sapContent_Illustrative_Color19)" d="M111.4,21c-0.2,0.9-0.5,1.7-0.8,2.5l0.3,0.1l3.2,0.7
	C113.2,23.1,112.3,22,111.4,21z M114.4,24.6c0.3,0.3,0.5,0.7,0.8,1c-2.3,1.1-5,2.2-7.8,3.2c0.5-0.5,0.9-1.1,1.3-1.7
	C110.8,26.3,112.7,25.5,114.4,24.6z M113.7,32.8c-0.1,0.2-0.2,0.4-0.3,0.5c-0.5,0.8-1,1.5-1.6,2.2l-6.9-1.4c-0.1,0-0.2-0.1-0.2-0.1
	c-0.1-0.1-0.1-0.1-0.2-0.2c0-0.1-0.1-0.2-0.1-0.3s0-0.2,0.1-0.3s0.2-0.3,0.3-0.3c0.1-0.1,0.3-0.1,0.4-0.1l1.2,0.1
	c0.3,0,0.6,0,0.9-0.1s0.5-0.3,0.7-0.5s0.4-0.3,0.6-0.4s0.5-0.1,0.7-0.1L113.7,32.8z M82.4,33.4c-0.4,0-0.8,0-1.3,0
	c-0.3-0.5-0.5-1-0.8-1.4l0,0l0,0c0.1,0,0.3,0,0.4,0c0.8,0.1,1.6,0.1,2.4,0.1s1.6,0,2.5,0c0.6,0.4,1.2,0.8,1.9,1.1
	c-1.5,0.1-3.1,0.2-4.6,0.3C82.7,33.4,82.5,33.4,82.4,33.4z"/>
<path fill-rule="evenodd" clip-rule="evenodd" style="fill:var(--sapContent_Illustrative_Color19)" d="M5.8,90.6c2.2-4,4.3-7.6,6.1-10.2c0.4-0.6,1.3-0.4,1.3,0.3
	c0.2,2.2-2.3,6.4-4.3,9.8c-0.6,1.1-1.2,2.1-1.7,2.9C6.7,92.5,6.2,91.6,5.8,90.6z M47.7,125.9c12.7-7.2,23.6-17.8,32.8-29.3
	c1-1.3,2.2-2.9,3.4-4.6l0,0c6.5-9,16-22.1,26.7-18.5c3.1,1.1-0.1,7.5-1.4,10l0,0c-0.1,0.3-0.3,0.5-0.4,0.7c-0.4,0.9-1,2-1.6,3.2l0,0
	c-4.1,8.2-10.8,21.4-1.4,24.9c1-0.9,2-1.7,2.9-2.7c-7.7-1.5-3.3-10,1.4-18.9c5.5-10.5,11.3-21.5-2-22.5C95.8,67.5,86.5,79.7,79,89.5
	c-1.7,2.2-3.2,4.2-4.7,6c-8.9,10.6-20.6,21.4-33.8,28C42.8,124.5,45.3,125.3,47.7,125.9z"/>
<path fill-rule="evenodd" clip-rule="evenodd" style="fill:var(--sapContent_Illustrative_Color20)" d="M5.8,90.6c2.2-4,4.3-7.6,6.1-10.2c0.4-0.6,1.3-0.4,1.3,0.3
	c0.1,0.7-0.1,1.7-0.6,2.7c-0.3-0.1-0.6,0-0.8,0.3C10.3,86,8.5,89,6.6,92.4C6.3,91.8,6.1,91.2,5.8,90.6z M40.5,123.5
	c13.3-6.6,25-17.5,33.8-28c1.5-1.8,3.1-3.8,4.7-6c7.5-9.8,16.8-22,29.1-21.1c7,0.5,8.7,3.8,8,8.3c-0.6-2.7-2.9-4.6-8-4.9
	C95.8,70.9,86.5,83.1,79,92.9c-1.7,2.2-3.2,4.2-4.7,6c-8,9.5-18.4,19.3-30.1,26C42.9,124.5,41.7,124,40.5,123.5z M108.8,109.7
	c-0.8,0.8-1.7,1.6-2.5,2.4c-1.6-1.2-1.9-3.1-1.5-5.4C105.2,108.2,106.4,109.3,108.8,109.7z M107.2,90.8c-2.3,4.6-5.4,10.8-6.1,15.9
	c-0.8-5.6,3.2-13.6,6.1-19.3l0,0l0,0c0.6-1.2,1.1-2.3,1.6-3.2c0.1-0.2,0.2-0.4,0.3-0.7l0,0l0,0l0,0c0.7-1.3,1.9-3.7,2.4-5.8
	c1.1,2.1-1.3,7-2.4,9.2l0,0c-0.1,0.3-0.3,0.5-0.4,0.7C108.4,88.6,107.8,89.6,107.2,90.8L107.2,90.8z"/>
<path style="fill:var(--sapContent_Illustrative_Color13)" d="M19.2,64l-9.8,9.8h13l8.7-8.6L19.2,64z"/>
<path style="fill:var(--sapContent_Illustrative_Color2)" d="M10.8,72.7c5-2,13-1.7,15.7-1.9l17,29.8c-1.3,2.2-7.7,3.9-12.3,5.1c-1.5,0.4-3.1,0.2-4.2-0.9
	C22.4,100,13.6,86.6,9.3,77.9C8.3,75.9,8.7,73.5,10.8,72.7z"/>
<path style="fill:var(--sapContent_Illustrative_Color6)" d="M83.6,63.5c-6.4,6.7-20.3-1.3-27.7-5.9l-6.6,6.6c3.6,5.3,14,14.3,28.8,12.2C96.7,73.7,90.7,56,83.6,63.5z"/>
<path fill-rule="evenodd" clip-rule="evenodd" style="fill:var(--sapContent_Illustrative_Color5)" d="M52.2,61.2C56.6,66.7,65,73.1,77,72.7c8.8-0.3,12.6-4.4,13.3-8.1
	c1,3.8-1.6,10.2-12.1,11.7C63.3,78.5,53,69.5,49.3,64.1L52.2,61.2z"/>
<path fill-rule="evenodd" clip-rule="evenodd" style="fill:var(--sapContent_Illustrative_Color8)" d="M28,79.9c2.9,14.6,11.6,29.7,30.4,24.4c1.9-0.5,3.9,0.4,4.9,2.1
	c3.3,6.3,9.7,13.1,17.9,8c6.5-4.1,3.7-11.9-4-12.7c0.7-1.5,1.3-5.3-2.2-9c2.5,2.2,8.7,6.5,13.1,6.5c5.4,0,12.6-10.8,8.2-16.8
	c-2.4-3.3-6.5-1.7-8.9,1c-1.6-2.6-7.9-8.1-17.4-4.8c-0.7-1.5-1.4-2.9-2.1-4.2c-3.1-6.3-5.5-11.3-9.8-15.2c-6.9-6.3-29,0.8-31.2,7.5
	c-7.3,4.4-16.8,13.2-14.6,24.2c3.2,16.1,15.3,10.8,12.2,0C23.1,86.4,25.3,82.6,28,79.9z"/>
<path fill-rule="evenodd" clip-rule="evenodd" style="fill:var(--sapContent_Illustrative_Color6)" d="M17.2,100.4c4.4,3,9.5-1.8,7.4-9.3C23,85.8,25.9,81.7,29,79
	c1-0.8,1.7-1.7,2.3-2.8c-4.5,2.2-12.4,7-10.4,14.1C22.4,95.7,20.2,99.7,17.2,100.4z M31.5,68.9c-0.3-1.2-0.6-2.4-1.1-3.9
	c-0.1,0-0.1,0.1-0.2,0.1L31.5,68.9z"/>
<path style="fill:var(--sapContent_Illustrative_Color6)" d="M60.8,101.4c-18.9,5.3-27.5-9.8-30.4-24.4c-0.9,0.9-1.7,1.9-2.4,3c2.9,14.6,11.6,29.7,30.4,24.4
	c1.9-0.5,3.9,0.4,4.9,2.1c3.3,6.3,9.7,13.1,17.9,8c1.6-1,2.7-2.2,3.2-3.5c-0.3,0.2-0.5,0.4-0.8,0.6c-8.1,5-14.5-1.7-17.9-8
	C64.8,101.8,62.7,100.9,60.8,101.4z"/>
<path fill-rule="evenodd" clip-rule="evenodd" style="fill:var(--sapContent_Illustrative_Color5)" d="M27.5,65.9c-0.2,0.4-0.4,0.7-0.5,1.1c-2,1.2-4.1,2.7-6.1,4.5
	c8.6,3.6,25.6,5.7,36.4-10.3c0.4-0.5,0.7-1.1,1-1.5l-0.1-0.1c-1.6-3.1-6.1-3.8-11.1-3C41.1,58.7,34,62.3,27.5,65.9z"/>
<path fill-rule="evenodd" clip-rule="evenodd" style="fill:var(--sapContent_Illustrative_Color6)" d="M95.6,93.6c-5.8-1.4-10.1-3.4-13.7-5.1c-8-3.7-12.7-5.9-24.3,2.8
	c0.2-0.1,0.4-0.2,0.6-0.3c4.1-1.8,12.3-5.4,17.9,2.8c3,2.3,8.1,5.6,11.9,5.6C90.6,99.4,93.7,96.9,95.6,93.6z"/>
<path fill-rule="evenodd" clip-rule="evenodd" style="fill:var(--sapContent_Illustrative_Color5)" d="M64.4,88.3c7-1.4,11.1,3,12.3,5.4c0.1,0.3,0,0.6-0.3,0.8
	c-0.3,0.1-0.6,0-0.8-0.3c-1-2.1-4.7-6.1-11-4.8c-2.8,0.6-4.7,1.4-6.1,2.4c-0.3,0.2-0.6,0.1-0.8-0.2c-0.2-0.3-0.1-0.6,0.2-0.8
	C59.4,89.9,61.5,88.9,64.4,88.3z"/>
<path fill-rule="evenodd" clip-rule="evenodd" style="fill:var(--sapContent_Illustrative_Color5)" d="M88.1,82.9c0.2,0.2,0.3,0.6,0,0.8c-0.3,0.3-0.7,0.8-1,1.4
	c-0.4,0.6-0.6,1.3-0.7,1.9c0,0.3-0.3,0.6-0.6,0.5c-0.3,0-0.6-0.3-0.5-0.6c0.1-0.8,0.5-1.6,0.9-2.3c0.4-0.7,0.8-1.3,1.1-1.6
	C87.5,82.7,87.9,82.7,88.1,82.9z"/>
<path fill-rule="evenodd" clip-rule="evenodd" style="fill:var(--sapContent_Illustrative_Color5)" d="M95.6,81.8c-2.6,0.1-5.8,3.5-7.7,8.3c-1.4,3.4-1.7,6.8-1.2,9.1
	c0.5,0.1,0.9,0.1,1.3,0.1c5.4,0,12.6-10.8,8.2-16.8C96,82.3,95.8,82,95.6,81.8z"/>
<path fill-rule="evenodd" clip-rule="evenodd" style="fill:var(--sapContent_Illustrative_Color5)" d="M77.6,101.4c0.3,0,0.6,0.3,0.6,0.6c-0.1,1-0.9,3.1-3.4,4.5
	c-0.3,0.1-0.6,0-0.8-0.2c-0.1-0.3,0-0.6,0.2-0.8c2.2-1.2,2.8-2.9,2.8-3.5C77,101.6,77.3,101.4,77.6,101.4z"/>
<path style="fill:var(--sapContent_Illustrative_Color8)" d="M60.8,39.7c7.4,18.8-13.4,27.4-22.3,30.1c-3.7,1-12.7,1.4-18.7-5.4C12.3,56,4.4,36.7,26.1,24.5
	C45,13.9,57.4,30.8,60.8,39.7z"/>
<path fill-rule="evenodd" clip-rule="evenodd" style="fill:var(--sapContent_Illustrative_Color6)" d="M40.9,69c9.7-3.4,26.7-12,19.9-29.3C57.4,30.8,45,13.9,26.1,24.5
	c-0.7,0.4-1.3,0.8-2,1.2c15-6,24.9,9.1,27.9,17.3C56.9,56.3,48.9,64.4,40.9,69z"/>
<path style="fill:var(--sapContent_Illustrative_Color4)" d="M60.4,36.3c6.8,13.7-3.3,18.1-8.6,21.6c-6.6,4.5-16.3,8.9-23.3,0.3c-8.8-10.8-8-22.7,2.1-29.5
	C40.6,21.9,51.9,19.1,60.4,36.3z"/>
<path style="fill:var(--sapContent_Illustrative_Color8)" d="M57.2,36.9c1.4,2.8,1.9,6.5,1.7,9.8c-0.1,0.8-0.6,1.6-1.3,2L56,49.6c-1,0.6-2.2-0.3-2-1.4
	c0.5-2.9,0.9-7.2,0.1-10.2c-0.2-0.8,0.2-1.7,1-2C55.9,35.7,56.8,36.1,57.2,36.9z"/>
<path style="fill:var(--sapContent_Illustrative_Color5)" d="M40.6,35.4c0.6-0.5,0.7-1.4,0.2-2s-1.4-0.7-2-0.2s-0.7,1.4-0.2,2S40,35.9,40.6,35.4z"/>
<path style="fill:var(--sapContent_Illustrative_Color6)" d="M48.3,35.8c0.5-0.4,0.6-1.1,0.2-1.6c-0.4-0.5-1.1-0.6-1.6-0.2c-0.5,0.4-0.6,1.1-0.2,1.6S47.8,36.2,48.3,35.8
	z"/>
<ellipse transform="matrix(0.9119 -0.4105 0.4105 0.9119 -20.9445 12.8653)" style="fill:var(--sapContent_Illustrative_Color5)" cx="19.49" cy="55.21" rx="5.5" ry="6.7"/>
<ellipse transform="matrix(0.9119 -0.4105 0.4105 0.9119 -21.583 12.1105)" style="fill:var(--sapContent_Illustrative_Color6)" cx="17.41" cy="56.32" rx="5.5" ry="6.7"/>
<path fill-rule="evenodd" clip-rule="evenodd" style="fill:var(--sapContent_Illustrative_Color5)" d="M22.9,47.8c2.4-3.7,6.6-6.1,11.3-6.1c7.5,0,13.6,6.1,13.6,13.6
	c0,2-0.4,3.9-1.2,5.6c-5.9,2.9-12.8,3.9-18.3-2.7C25.6,54.7,23.8,51.2,22.9,47.8z"/>
<path style="fill:var(--sapContent_Illustrative_Color17)" d="M51.7,88.9c4-3.2,9-5.9,12.2-7.5c0.7-0.3,1.1-1.2,0.8-1.9c-1.2-2.9-3.2-6.6-5.2-8.6c-0.8-0.8-2-1.2-3.1-1
	c-3.5,0.8-9.2,4.4-12.8,7.4c-1.1,1-1.3,2.6-0.4,3.9l5,7.2C48.9,89.6,50.6,89.8,51.7,88.9z"/>
<path style="fill:var(--sapContent_Illustrative_Color9)" d="M52.3,87.1c4-3.2,9-5.9,12.2-7.5c0.7-0.3,1.1-1.2,0.8-1.9c-1.3-3-3.3-6.6-5.3-8.6c-0.8-0.8-2-1.2-3.1-1
	c-3.5,0.8-9.2,4.4-12.8,7.4c-1.1,1-1.3,2.6-0.4,3.9l5,7.2C49.4,87.8,51.1,88,52.3,87.1z"/>
<path style="fill:var(--sapContent_Illustrative_Color18)" d="M41.3,111.4c0.5-0.5,0.5-1.3,0-1.8s-1.3-0.5-1.8,0s-0.5,1.3,0,1.8S40.8,111.9,41.3,111.4z"/>
</svg>
