<svg width="128" height="129" viewBox="0 0 128 129" fill="none" xmlns="http://www.w3.org/2000/svg" id="tnt-Spot-Help">
<circle cx="64" cy="64.7703" r="64" style="fill:var(--sapContent_Illustrative_Color7)"/>
<circle cx="81.9886" cy="12.334" r="2.53875" transform="rotate(180 81.9886 12.334)" style="fill:var(--sapContent_Illustrative_Color18)"/>
<path fill-rule="evenodd" clip-rule="evenodd" d="M56.7525 118.639C58.6804 118.639 60.2433 117.076 60.2433 115.148C60.2433 113.22 58.6804 111.657 56.7525 111.657C54.8246 111.657 53.2617 113.22 53.2617 115.148C53.2617 117.076 54.8246 118.639 56.7525 118.639ZM56.7521 117.708C58.1659 117.708 59.312 116.562 59.312 115.148C59.312 113.734 58.1659 112.588 56.7521 112.588C55.3383 112.588 54.1922 113.734 54.1922 115.148C54.1922 116.562 55.3383 117.708 56.7521 117.708Z" style="fill:var(--sapContent_Illustrative_Color18)"/>
<path d="M82.2301 111.225C82.2301 112.102 81.5197 112.812 80.6434 112.812C79.767 112.812 79.0566 112.102 79.0566 111.225C79.0566 110.349 79.767 109.639 80.6434 109.639C81.5197 109.639 82.2301 110.349 82.2301 111.225Z" style="fill:var(--sapContent_Illustrative_Color18)"/>
<path fill-rule="evenodd" clip-rule="evenodd" d="M22.9005 113.832L25.4788 110.971L56.6797 89.0743C56.8988 88.9213 57.1726 89.1354 57.073 89.3733L56.3038 91.3799C56.1158 91.8471 55.7946 92.2577 55.3871 92.5575L24.1689 114.868C23.7416 114.528 23.3188 114.182 22.9005 113.832Z" style="fill:var(--sapContent_Illustrative_Color19)"/>
<path fill-rule="evenodd" clip-rule="evenodd" d="M1.92278 49.1364L24.1308 38.977C25.3204 38.4238 26.7193 38.8474 27.4116 39.9642L56.8577 87.4553C57.5908 88.6472 57.2462 90.216 56.0691 90.991L25.4958 110.973L0.225186 70.1828C0.0757646 68.3985 -0.000451843 66.5933 -0.000452751 64.7704C-0.000451758 59.3772 0.666627 54.1399 1.92278 49.1364Z" style="fill:var(--sapContent_Illustrative_Color18)"/>
<path fill-rule="evenodd" clip-rule="evenodd" d="M0.224608 70.1809L25.4881 110.962L22.9009 113.833C10.1956 103.179 1.68952 87.6807 0.224608 70.1809Z" style="fill:var(--sapContent_Illustrative_Color7)"/>
<path d="M24.9885 40.7848C24.8058 40.4819 24.3967 40.3912 24.0938 40.5738C23.7909 40.7565 23.7001 41.1657 23.8828 41.4686L53.1798 88.9512C53.3624 89.2541 53.7716 89.3449 54.0745 89.1622C54.3774 88.9795 54.4681 88.5704 54.2855 88.2675L24.9885 40.7848Z" style="fill:var(--sapContent_Illustrative_Color19)"/>
<path fill-rule="evenodd" clip-rule="evenodd" d="M0.130862 68.9009L25.6034 110.196C25.786 110.499 25.6953 110.908 25.3924 111.09C25.0895 111.273 24.6803 111.182 24.4977 110.879L0.379139 71.7796C0.275282 70.8262 0.192367 69.8664 0.130862 68.9009ZM0.77638 74.7703L23.8068 112.095C23.9894 112.397 23.8987 112.807 23.5958 112.989C23.2929 113.172 22.8837 113.081 22.7011 112.778L1.43561 78.3144C1.18357 77.1446 0.963509 75.9629 0.77638 74.7703ZM2.40648 82.2166L20.7404 111.937C19.3487 110.66 18.0137 109.322 16.7395 107.927L4.17791 87.5643C3.5118 85.8172 2.92004 84.0333 2.40648 82.2166Z" style="fill:var(--sapContent_Illustrative_Color19)"/>
<path d="M38.6067 16.596L42.1101 16.0118L43.7457 25.6537L40.2298 26.2469L38.6067 16.596Z" style="fill:var(--sapContent_Illustrative_Color20)"/>
<path fill-rule="evenodd" clip-rule="evenodd" d="M8.33223 33.1691L43.0361 22.2964C44.6846 21.7838 46.4171 22.6975 46.9331 24.3245L64.5448 80.4696C65.0574 82.1182 64.1437 83.8507 62.5167 84.3667L62.5076 84.3542L23.9237 96.4579C22.2752 96.9705 20.5427 96.0567 20.0267 94.4297L3.84905 42.8564C5.07729 39.4859 6.58075 36.2478 8.33223 33.1691Z" style="fill:var(--sapContent_Illustrative_Color20)"/>
<path d="M30.3942 21.8246L33.7491 20.6429L36.9856 29.864L33.6307 31.0456L30.3942 21.8246Z" style="fill:var(--sapContent_Illustrative_Color20)"/>
<path fill-rule="evenodd" clip-rule="evenodd" d="M9.46923 31.2491L44.1616 20.5642C45.7977 20.0607 47.5302 20.9745 48.0337 22.6105L65.3223 78.7047C65.8258 80.3407 64.9121 82.0732 63.276 82.5768L63.2636 82.5858L24.7046 94.4616C23.0685 94.9651 21.336 94.0514 20.8325 92.4153L4.80964 40.382C6.12191 37.2007 7.6832 34.1483 9.46923 31.2491Z" style="fill:var(--sapContent_Illustrative_Color19)"/>
<path d="M16.173 42.1226L38.8703 35.129L41.3584 43.2163L18.6611 50.2099L16.173 42.1226Z" style="fill:var(--sapContent_Illustrative_Color7)"/>
<path fill-rule="evenodd" clip-rule="evenodd" d="M127.084 75.623C127.686 72.0955 128 68.4695 128 64.7703C128 57.3937 126.752 50.3087 124.456 43.7147L96.6962 19.2295C98.1219 23.3468 97.5021 28.0798 94.6376 31.7816L64.6185 70.5173C64.2269 71.0202 63.8614 71.5481 63.542 72.0902C60.3385 77.7617 61.7021 85.081 67.011 89.1843C69.4064 91.0378 72.2294 91.9442 75.0334 91.9845L113.467 105.381C113.869 104.892 114.264 104.397 114.651 103.896L114.543 102.477C114.052 95.8827 116.074 89.3402 120.216 84.1782L127.084 75.623Z" style="fill:var(--sapContent_Illustrative_Color18)"/>
<path fill-rule="evenodd" clip-rule="evenodd" d="M118.249 98.7426C116.434 101.635 114.394 104.372 112.153 106.929C109.778 106.545 107.223 105.805 104.193 104.59L70.9471 91.2946C70.7517 91.2173 70.8268 90.9201 71.0518 90.9559L74.4687 91.523C79.3546 92.1394 84.2528 89.6059 86.9141 85.4702L88.2056 83.4746C88.4916 83.0402 89.0593 82.8952 89.5127 83.1197L89.4973 83.1149L118.249 98.7426Z" style="fill:var(--sapContent_Illustrative_Color19)"/>
<path d="M118.924 73.3054L90.931 55.5624C89.9853 54.9665 88.7529 55.2433 88.1416 56.1843C87.5456 57.13 87.8224 58.3624 88.7682 58.9583L116.761 76.7013C117.707 77.2972 118.939 77.0205 119.55 76.0795C120.146 75.1337 119.869 73.9013 118.924 73.3054Z" style="fill:var(--sapContent_Illustrative_Color19)"/>
<path d="M112.43 81.4335L83.7145 64.8836C82.7544 64.3339 81.5232 64.6616 80.9581 65.6169C80.4083 66.5769 80.7361 67.8082 81.6913 68.3733L110.407 84.9232C111.367 85.4729 112.598 85.1452 113.163 84.1899C113.713 83.2299 113.385 81.9986 112.43 81.4335Z" style="fill:var(--sapContent_Illustrative_Color19)"/>
<path d="M63.6471 95.397C80.5617 95.397 94.2737 81.685 94.2737 64.7704C94.2737 47.8558 80.5617 34.1438 63.6471 34.1438C46.7325 34.1438 33.0205 47.8558 33.0205 64.7704C33.0205 81.685 46.7325 95.397 63.6471 95.397Z" style="fill:var(--sapContent_Illustrative_Color14)"/>
<path fill-rule="evenodd" clip-rule="evenodd" d="M63.6347 81.1477C65.8132 81.1477 67.7194 79.2416 67.7194 77.0631C67.7194 74.8846 65.8132 72.9784 63.6347 72.9784C61.4562 72.9784 59.55 74.8846 59.55 77.0631C59.55 79.2416 61.4562 81.1477 63.6347 81.1477ZM60.9116 67.5319C60.9116 69.0296 62.137 70.255 63.6347 70.255C64.9146 70.255 65.9766 69.3836 66.2761 68.2126C66.5827 68.0082 67.1051 67.7319 67.5508 67.4962C67.5801 67.4806 67.6091 67.4653 67.6377 67.4502C70.2247 66.0886 74.5272 63.8012 74.5272 58.0009C74.5272 52.6636 69.7345 48.47 63.6347 48.47C57.5349 48.47 52.7422 52.6636 52.7422 58.0009C52.7422 59.4986 53.9676 60.724 55.4653 60.724C56.963 60.724 58.1884 59.4986 58.1884 58.0009C58.1884 55.7135 60.5848 53.9162 63.6347 53.9162C66.6846 53.9162 69.081 55.7135 69.081 58.0009C69.081 60.2883 67.8283 61.2142 65.1052 62.6302C63.2262 63.6106 60.9116 64.836 60.9116 67.5319Z" style="fill:var(--sapContent_Illustrative_Color8)"/>
<path fill-rule="evenodd" clip-rule="evenodd" d="M63.6474 100.215C83.2227 100.215 99.0917 84.3458 99.0917 64.7705C99.0917 45.1951 83.2227 29.3262 63.6474 29.3262C44.0721 29.3262 28.2031 45.1951 28.2031 64.7705C28.2031 84.3458 44.0721 100.215 63.6474 100.215ZM63.6474 102.968C84.7431 102.968 101.845 85.8662 101.845 64.7705C101.845 43.6747 84.7431 26.5732 63.6474 26.5732C42.5517 26.5732 25.4502 43.6747 25.4502 64.7705C25.4502 85.8662 42.5517 102.968 63.6474 102.968Z" style="fill:var(--sapContent_Illustrative_Color3)"/>
</svg>
