<svg width="45" height="46" viewBox="0 0 45 46" fill="none" xmlns="http://www.w3.org/2000/svg" id="tnt-Dot-MissionFailed">
<path d="M21.9779 12.2853L33.0943 27.1295L33.9145 19.1472C34.161 16.748 33.3852 14.356 31.7774 12.5582L26.1049 6.21498C25.8581 5.9391 25.4126 5.99059 25.2354 6.31548L21.9779 12.2853Z" style="fill:var(--sapContent_Illustrative_Color2)"/>
<path d="M12.1421 19.475L22.9135 34.5714L15.0587 32.9309C12.6978 32.4378 10.6539 30.9727 9.42873 28.8953L5.10581 21.5655C4.91779 21.2467 5.10203 20.8378 5.46539 20.7675L12.1421 19.475Z" style="fill:var(--sapContent_Illustrative_Color2)"/>
<path fill-rule="evenodd" clip-rule="evenodd" d="M28.0778 44.0723H43.24C42.0265 36.2838 38.3189 28.9456 32.5885 23.2551L21.9656 12.7063C17.9904 13.5893 14.5945 16.0719 12.5469 19.5918L19.3751 32.9146C21.5706 37.1984 24.5419 40.9749 28.0778 44.0723Z" style="fill:var(--sapContent_Illustrative_Color8)"/>
<path fill-rule="evenodd" clip-rule="evenodd" d="M27.7023 45.0724L27.4195 44.8246C23.7896 41.6448 20.7394 37.7681 18.4857 33.3708L11.4082 19.5614L11.6831 19.0889C13.871 15.3279 17.5017 12.6737 21.7493 11.7301L22.283 11.6116L33.2937 22.5456C39.1756 28.3864 42.9824 35.9194 44.2287 43.9184L44.4084 45.0724H27.7023ZM43.2406 44.0724C43.1885 43.7382 43.1318 43.4048 43.0706 43.0724C41.7052 35.6571 38.0736 28.7014 32.5891 23.2551L21.9662 12.7063C17.991 13.5894 14.595 16.0719 12.5474 19.5918L19.3757 32.9147C21.5712 37.1984 24.5425 40.975 28.0784 44.0724H43.2406Z" style="fill:var(--sapContent_Illustrative_Color4)"/>
<circle cx="33.2476" cy="38.21" r="2.77605" transform="rotate(143.832 33.2476 38.21)" style="fill:var(--sapContent_Illustrative_Color14)"/>
<path d="M23.6177 28.1664C23.8564 28.5305 24.3515 28.6204 24.703 28.3635L26.4582 27.0803C26.8097 26.8234 26.8742 26.3244 26.5997 25.9864L16.5058 13.5615C16.1592 13.1349 15.5391 13.0547 15.0954 13.379C14.6517 13.7034 14.54 14.3186 14.8413 14.7783L23.6177 28.1664Z" style="fill:var(--sapContent_Illustrative_Color2)"/>
<path fill-rule="evenodd" clip-rule="evenodd" d="M2.68555 1.6604C2.68555 1.10812 3.13326 0.6604 3.68555 0.6604H15.6476C17.6158 0.6604 19.2114 2.25597 19.2114 4.2242C19.2114 6.19243 17.6158 7.788 15.6476 7.788H8.98733C8.18146 7.788 7.52817 8.44129 7.52817 9.24716C7.52817 10.053 8.18146 10.7063 8.98733 10.7063H12.8522C13.4045 10.7063 13.8522 11.154 13.8522 11.7063C13.8522 12.2586 13.4045 12.7063 12.8522 12.7063H8.98733C7.07689 12.7063 5.52817 11.1576 5.52817 9.24716C5.52817 7.33672 7.07689 5.788 8.98733 5.788H15.6476C16.5113 5.788 17.2114 5.08786 17.2114 4.2242C17.2114 3.36054 16.5113 2.6604 15.6476 2.6604H3.68555C3.13326 2.6604 2.68555 2.21269 2.68555 1.6604Z" style="fill:var(--sapContent_Illustrative_Color5)"/>
</svg>
