<svg width="45" height="46" viewBox="0 0 45 46" fill="none" xmlns="http://www.w3.org/2000/svg" id="tnt-Dot-Tutorials">
<rect width="39.9954" height="26.7119" rx="3.48292" transform="matrix(1 0 0.156434 0.987688 -0.371094 11.29)" style="fill:var(--sapContent_Illustrative_Color5)"/>
<path d="M2.33099 13.0793C2.08023 11.4961 3.17641 10.2126 4.77938 10.2126H37.1413C38.7443 10.2126 40.247 11.4961 40.4978 13.0793L43.5887 32.5947C43.8394 34.1779 42.7433 35.4614 41.1403 35.4614H8.77839C7.17542 35.4614 5.67268 34.1779 5.42192 32.5947L2.33099 13.0793Z" style="fill:var(--sapContent_Illustrative_Color8)"/>
<path fill-rule="evenodd" clip-rule="evenodd" d="M4.61917 9.2019H36.9811C39.1493 9.2019 41.1819 10.9379 41.521 13.0794L44.612 32.5947C44.9511 34.7362 43.4684 36.4722 41.3003 36.4722H8.93836C6.7702 36.4722 4.73759 34.7362 4.39842 32.5947L1.30749 13.0794C0.968315 10.9379 2.45101 9.2019 4.61917 9.2019ZM4.77926 10.2127C3.1763 10.2127 2.08012 11.4961 2.33087 13.0794L5.4218 32.5947C5.67256 34.1779 7.1753 35.4614 8.77827 35.4614H41.1402C42.7431 35.4614 43.8393 34.1779 43.5886 32.5947L40.4976 13.0794C40.2469 11.4962 38.7441 10.2127 37.1412 10.2127H4.77926Z" style="fill:var(--sapContent_Illustrative_Color4)"/>
<path d="M2.33099 13.0793C2.08023 11.4961 3.17641 10.2126 4.77938 10.2126H37.1413C38.7443 10.2126 40.247 11.4961 40.4978 13.0793L40.82 15.1142H2.65328L2.33099 13.0793Z" style="fill:var(--sapContent_Illustrative_Color2)"/>
<path d="M21.1469 29.6739C20.5394 30.0013 19.6736 29.5251 19.5451 28.7929L18.7889 24.482L18.0325 20.1704C17.9041 19.4382 18.6029 18.962 19.3252 19.2894L28.8357 23.601C29.6365 23.964 29.8182 25 29.1448 25.3629L21.1469 29.6739Z" style="fill:var(--sapContent_Illustrative_Color3)"/>
</svg>
