<svg width="321" height="240" viewBox="0 0 321 240" fill="none" xmlns="http://www.w3.org/2000/svg" id="tnt-Scene-MissionFailed">
<path d="M305.711 31.75H14.6174C12.72 31.7483 10.8408 32.1205 9.08735 32.8454C7.33387 33.5703 5.74044 34.6336 4.39815 35.9747C3.05586 37.3157 1.99103 38.9082 1.26452 40.661C0.538005 42.4138 0.164062 44.2926 0.164063 46.19V217.297C0.164063 221.13 1.68681 224.806 4.39734 227.517C7.10786 230.227 10.7841 231.75 14.6174 231.75H305.711C309.544 231.75 313.22 230.227 315.931 227.517C318.641 224.806 320.164 221.13 320.164 217.297V46.19C320.164 44.2926 319.79 42.4138 319.064 40.661C318.337 38.9082 317.272 37.3157 315.93 35.9747C314.588 34.6336 312.994 33.5703 311.241 32.8454C309.487 32.1205 307.608 31.7483 305.711 31.75Z" style="fill:var(--sapContent_Illustrative_Color7)"/>
<path fill-rule="evenodd" clip-rule="evenodd" d="M320.164 154.585V64.7043C316.002 71.9915 314.062 80.22 314.365 88.3894C311.768 89.8605 309.311 91.6763 307.06 93.8381C302.33 98.3792 299.089 103.888 297.349 109.754C296.742 108.988 296.092 108.243 295.401 107.523C285.813 97.5361 271.109 95.4204 259.359 101.34C260.532 97.4329 259.623 93.0232 256.596 89.8705C252.125 85.2132 244.724 85.0625 240.067 89.534C235.41 94.0055 235.259 101.406 239.731 106.063C242.274 108.712 245.766 109.903 249.161 109.615C246.631 112.77 244.811 116.315 243.705 120.03C235.115 115.511 224.37 116.644 217.121 123.604C216.443 124.255 215.814 124.938 215.236 125.65C214.042 121.954 212.013 118.464 209.142 115.474C199.021 104.931 182.269 104.59 171.726 114.712C161.183 124.834 160.842 141.586 170.964 152.129C181.086 162.671 197.838 163.012 208.381 152.89C209.72 151.604 210.895 150.211 211.905 148.738C213.006 151.463 214.64 154.035 216.808 156.294C225.745 165.602 240.374 166.058 249.484 157.312C251.039 155.819 252.333 154.154 253.365 152.373C265.25 162.415 283.043 162.053 294.515 151.039C297.803 147.882 300.238 144.17 301.814 140.192C303.027 142.036 304.425 143.796 306.009 145.446C310.093 149.699 314.959 152.749 320.164 154.585ZM288.393 76.867C284.174 80.9182 284.037 87.623 288.089 91.8425C292.14 96.0621 298.845 96.1986 303.064 92.1474C307.284 88.0961 307.42 81.3914 303.369 77.1718C299.318 72.9523 292.613 72.8158 288.393 76.867ZM272.077 163.586C267.857 167.637 267.721 174.342 271.772 178.562C275.823 182.781 282.528 182.918 286.748 178.867C290.967 174.815 291.104 168.111 287.053 163.891C283.001 159.672 276.297 159.535 272.077 163.586ZM92.917 103.574C83.4485 112.665 83.1422 127.71 92.233 137.179C101.324 146.647 116.369 146.953 125.837 137.863C135.306 128.772 135.612 113.727 126.521 104.258C117.431 94.7896 102.385 94.4833 92.917 103.574Z" style="fill:var(--sapContent_Illustrative_Color18)"/>
<path fill-rule="evenodd" clip-rule="evenodd" d="M320.164 210.172V118.324C312.591 118.5 305.059 121.402 299.163 127.062C295.085 130.978 292.294 135.73 290.8 140.79C279.671 140.223 268.341 144.074 259.668 152.401C257.23 154.742 255.137 157.307 253.39 160.033C252.53 153.668 249.716 147.509 244.927 142.522C232.921 130.016 213.05 129.612 200.544 141.618C188.039 153.625 187.634 173.496 199.641 186.001C211.647 198.507 231.518 198.911 244.024 186.905C245.034 185.935 245.965 184.914 246.817 183.849C247.113 193.86 250.981 203.798 258.464 211.592C274.476 228.27 300.977 228.809 317.654 212.797C318.536 211.95 319.373 211.074 320.164 210.172Z" style="fill:var(--sapContent_Illustrative_Color19)"/>
<path d="M167.389 94.7156L146.912 133.514L157.15 190.633H284.86L220.736 177.7L269.772 150.757L215.886 145.368L223.969 129.742L200.259 141.058L209.959 81.783L173.855 133.514L167.389 94.7156Z" style="fill:var(--sapContent_Illustrative_Color3)"/>
<path d="M38.063 137.286L98.4154 153.99L122.125 213.265L18.6641 187.4L58.0009 178.239L34.291 163.69H69.3169L38.063 137.286Z" style="fill:var(--sapContent_Illustrative_Color3)"/>
<path fill-rule="evenodd" clip-rule="evenodd" d="M320.164 176.703C286.656 177.113 226.776 175.979 182.343 164.745C153.138 157.361 135.411 153.102 104.265 164.745C72.1002 176.769 19.2307 176.7 0.164062 176.233V217.297C0.164062 221.13 1.68681 224.806 4.39734 227.517C7.10786 230.227 10.7841 231.75 14.6174 231.75H305.711C309.544 231.75 313.22 230.227 315.931 227.517C318.641 224.806 320.164 221.13 320.164 217.297V176.703Z" style="fill:var(--sapContent_Illustrative_Color18)"/>
<path fill-rule="evenodd" clip-rule="evenodd" d="M31.0977 176.047C43.412 185.34 60.0628 193.949 99.8168 191.909C103.556 191.717 106.092 188.044 105.012 184.459L100.068 173.131C99.4548 171.725 99.468 170.125 100.104 168.73C100.511 167.839 100.654 166.92 100.58 166.042C80.2293 172.78 53.0445 175.252 31.0977 176.047Z" style="fill:var(--sapContent_Illustrative_Color19)"/>
<path d="M106.548 175.552L105.285 164.368C109.519 162.818 113.505 161.565 117.307 160.575L176.955 163.39C178.709 163.827 180.503 164.28 182.343 164.745C185.043 165.428 187.801 166.073 190.606 166.683L193.396 170.058L191.638 171.729L199.422 179.348L219.038 184.843L214.769 194.384H228.58V200.159H250.425L226.32 202.67V197.146H208.241L211.003 188.358L189.911 186.851L185.643 197.146L165.806 202.67V207.19H182.629L178.349 210.425L185.643 215.437L176.955 211.479L161.035 223.511L169.573 212.463H159.78L155.511 203.926C147.058 203.089 129.448 200.561 126.635 197.146L120.559 202.67H112.63L100.735 207.19L94.1272 202.67L78.4883 200.159L61.748 202.67L80.2505 197.146L106.548 200.159L114.081 193.129L110.816 184.843V180.933L106.548 175.552Z" style="fill:var(--sapContent_Illustrative_Color19)"/>
<path d="M262.006 186.536L231.115 186.536L260.286 191.051L272.787 195.565L292.234 188.62L275.218 191.051L262.006 186.536Z" style="fill:var(--sapContent_Illustrative_Color19)"/>
<path fill-rule="evenodd" clip-rule="evenodd" d="M261.779 191.59V186.536L262.006 186.536L275.218 191.051L275.268 191.043V194.679L272.787 195.565L261.779 191.59Z" style="fill:var(--sapContent_Illustrative_Color20)"/>
<path fill-rule="evenodd" clip-rule="evenodd" d="M199.498 179.37L219.037 184.843L214.768 194.384H228.579V200.159H250.424L226.319 202.67V197.146H208.24L211.002 188.358L199.498 187.536V179.37Z" style="fill:var(--sapContent_Illustrative_Color19)"/>
<path fill-rule="evenodd" clip-rule="evenodd" d="M215.012 194.384H228.579V200.159H250.424L226.319 202.67V197.146H215.012V194.384Z" style="fill:var(--sapContent_Illustrative_Color20)"/>
<path fill-rule="evenodd" clip-rule="evenodd" d="M228.58 194.835V200.159H250.425L228.537 202.439V194.835H228.58Z" style="fill:var(--sapContent_Illustrative_Color19)"/>
<path fill-rule="evenodd" clip-rule="evenodd" d="M199.356 187.526L191.932 186.996V172.017L199.356 179.283V187.526ZM192.021 171.364H191.932V171.449L192.021 171.364Z" style="fill:var(--sapContent_Illustrative_Color20)"/>
<path fill-rule="evenodd" clip-rule="evenodd" d="M67.248 201.028L80.2496 197.146L106.529 200.157V204.988L100.734 207.19L94.1263 202.67L78.4874 200.159L67.248 201.845V201.028Z" style="fill:var(--sapContent_Illustrative_Color20)"/>
<path fill-rule="evenodd" clip-rule="evenodd" d="M80.0526 200.411L78.4883 200.16L61.748 202.671L80.0526 197.206V200.411Z" style="fill:var(--sapContent_Illustrative_Color19)"/>
<path fill-rule="evenodd" clip-rule="evenodd" d="M165.758 217.4L169.573 212.463H165.758V204.756H165.807V207.19H182.63L178.35 210.425L182.781 213.47V214.133L176.955 211.479L165.758 219.942V217.4Z" style="fill:var(--sapContent_Illustrative_Color20)"/>
<path fill-rule="evenodd" clip-rule="evenodd" d="M169.526 217.094V212.524L161.035 223.511L169.526 217.094ZM169.526 212.463H159.78L159.76 212.423H169.526V212.463Z" style="fill:var(--sapContent_Illustrative_Color19)"/>
<path fill-rule="evenodd" clip-rule="evenodd" d="M210.977 197.146H208.24L210.954 188.513H210.977V197.146Z" style="fill:var(--sapContent_Illustrative_Color20)"/>
<path d="M85.6235 62.4542C81.6205 63.3167 70.8941 54.5857 80.3217 53.2795C81.8276 53.0709 83.345 52.9675 84.8393 52.6536C85.8005 52.4482 87.0739 52.2337 87.0225 50.9048C86.9791 49.7067 85.8506 49.2412 84.8757 48.9783C82.4023 48.3029 79.8442 48.0565 77.2618 47.9882C65.5749 45.4339 73.8501 33.1691 60.3479 35.4103C58.465 35.7229 57.1056 34.2928 55.8964 33.0906C50.7824 28.0366 48.7215 10.5192 58.4616 5.6317C58.8456 5.4769 59.2076 5.29318 59.5917 5.13839C63.1377 4.79424 65.8211 6.58691 68.3216 8.76924C72.2276 12.8026 75.5106 13.4333 78.705 10.7343C82.2893 7.64813 85.2442 7.45636 89.1507 10.3494C92.1162 12.5436 94.9983 14.7781 98.5864 16.0207C101.035 16.8742 102.012 19.2108 102.03 21.7273C102.064 30.57 100.059 33.4835 91.9141 36.7491C90.5459 36.8989 89.351 37.487 88.4091 38.4985C86.6751 39.4275 85.8601 41.0266 86.2375 42.8147C86.6298 44.6826 88.407 45.5219 90.1046 45.8061C92.791 46.2514 93.0218 47.2161 92.2053 49.7739C90.7147 54.4166 81.9437 56.8694 85.6709 62.4866L85.6235 62.4542Z" style="fill:var(--sapContent_Illustrative_Color19)"/>
<path fill-rule="evenodd" clip-rule="evenodd" d="M78.4577 59.2225C80.5289 61.2239 83.784 62.8502 85.6218 62.4542L85.6692 62.4866C83.3492 58.9902 85.8715 56.7197 88.4663 54.3841C90.0402 52.9674 91.6408 51.5267 92.2036 49.7739C93.0201 47.216 92.7892 46.2514 90.1029 45.8061C88.4053 45.5219 86.6281 44.6826 86.2358 42.8147C85.8584 41.0266 86.6733 39.4275 88.4074 38.4985C89.3492 37.4869 90.5442 36.8988 91.9124 36.7491C100.057 33.4835 102.062 30.57 102.028 21.7273C102.01 19.2108 101.034 16.8742 98.5846 16.0207C95.2233 14.8566 92.4815 12.822 89.7103 10.7656C89.5234 10.6269 89.3364 10.4881 89.149 10.3494C85.2425 7.45635 82.2876 7.64812 78.7033 10.7343C75.5089 13.4333 72.2259 12.8026 68.3199 8.76923C65.8194 6.58689 63.136 4.79422 59.5899 5.13838C59.3979 5.21577 59.2114 5.3004 59.0249 5.38503C58.8384 5.46966 58.6518 5.55428 58.4598 5.63168C55.4159 7.15909 53.5246 9.91999 52.5187 13.1485C52.8687 12.9312 53.2392 12.7329 53.6309 12.5556C53.807 12.492 53.978 12.4222 54.1489 12.3524C54.3199 12.2826 54.4908 12.2128 54.6669 12.1492C57.93 11.8942 60.4205 13.4408 62.7466 15.3156C66.3864 18.7733 69.4173 19.3415 72.3322 17.0877C75.6023 14.5097 78.3224 14.3777 81.951 16.8692C82.125 16.9886 82.2988 17.1082 82.4724 17.2276C85.0464 18.9985 87.5932 20.7507 90.7017 21.7717C92.9667 22.5201 93.89 24.5099 93.933 26.6424C94.0556 34.135 92.238 36.5829 84.7688 39.2659C83.51 39.3787 82.4152 39.8647 81.558 40.712C79.9701 41.4813 79.2359 42.8277 79.602 44.3467C79.9826 45.9334 81.6284 46.6629 83.1953 46.9211C85.1822 47.2457 85.7198 47.8366 85.4813 49.1697C86.2654 49.4625 86.9862 49.9519 87.0207 50.9048C87.0701 52.1816 85.8966 52.4297 84.952 52.6293C84.9134 52.6375 84.8753 52.6456 84.8376 52.6536C84.3064 52.7652 83.7723 52.8502 83.2369 52.9227C82.7743 53.3488 82.2737 53.7618 81.7761 54.1723C79.9184 55.7049 78.1014 57.2039 78.4577 59.2225Z" style="fill:var(--sapContent_Illustrative_Color18)"/>
<path d="M152.067 62.7407L157.515 71.8682C160.204 76.3726 161.438 81.5966 161.05 86.8281L158.797 117.164C146.031 114.42 133.291 90.307 132.272 85.561L144.416 62.9163C146.032 59.9045 150.315 59.8062 152.067 62.7407Z" style="fill:var(--sapContent_Illustrative_Color2)"/>
<path fill-rule="evenodd" clip-rule="evenodd" d="M152.072 62.7489L152.067 62.7408C150.315 59.8063 146.032 59.9046 144.417 62.9164L132.272 85.5611C133.275 90.2274 145.607 113.616 158.154 117.007C137.042 93.1081 143.803 72.7866 152.072 62.7489Z" style="fill:var(--sapContent_Illustrative_Color13)"/>
<path d="M109.398 169.667C80.4702 133.37 74.4849 93.5044 76.4033 76.6446C80.451 60.5656 97.0793 55.9719 105.514 57.5947C118.417 62.8601 136.881 82.0094 155.352 108.532C165.369 122.916 172.948 139.025 178.725 158.741C181.169 167.082 183.184 175.647 184.862 184.175C180.699 196.431 148.709 201.38 128.823 191.724C123.322 186.129 121.288 183.86 116.398 178.147C113.799 175.111 111.964 172.887 109.398 169.667Z" style="fill:var(--sapContent_Illustrative_Color8)"/>
<path fill-rule="evenodd" clip-rule="evenodd" d="M73.5106 76.1183L73.4885 76.3129C71.4794 93.9698 77.7054 134.608 107.104 171.496C109.69 174.741 111.548 176.991 114.17 180.055C119.096 185.811 121.176 188.131 126.731 193.781L127.086 194.142L127.542 194.363C138.136 199.508 151.725 200.694 163.151 199.072C168.885 198.257 174.238 196.715 178.506 194.483C182.715 192.282 186.254 189.202 187.641 185.119L187.893 184.377L187.742 183.608C186.049 175.011 184.014 166.357 181.541 157.916C175.687 137.935 167.981 121.531 157.761 106.856C148.459 93.4996 139.125 81.9487 130.447 73.0442C121.83 64.2018 113.645 57.7438 106.623 54.8781L106.354 54.7683L106.069 54.7134C101.139 53.7649 94.2064 54.6496 87.9667 57.875C81.6321 61.1495 75.8208 66.9412 73.5584 75.9283L73.5106 76.1183ZM128.824 191.724C148.709 201.38 180.699 196.431 184.863 184.175C183.184 175.647 181.169 167.082 178.726 158.741C172.949 139.025 165.37 122.916 155.353 108.533C136.882 82.0094 118.417 62.8602 105.515 57.5947C97.0798 55.972 80.4515 60.5656 76.4038 76.6446C74.4854 93.5044 80.4708 133.37 109.399 169.667C111.964 172.887 113.8 175.111 116.399 178.147C121.288 183.86 123.322 186.129 128.824 191.724Z" style="fill:var(--sapContent_Illustrative_Color20)"/>
<path d="M94.2337 129.879C104.117 106.611 126.603 102.399 141.331 103.477C142.458 103.559 142.41 104.914 141.287 105.044C129.452 106.415 114.307 109.821 107.604 119.901C105.034 123.767 99.9662 131.383 98.1556 132.941C94.2728 136.282 94.9706 130.267 94.2337 129.879Z" style="fill:var(--sapContent_Illustrative_Color19)"/>
<path fill-rule="evenodd" clip-rule="evenodd" d="M168.586 195.031C108.994 168.387 94.1477 135.716 84.5236 63.6418C80.8531 66.6896 77.8379 70.9458 76.4033 76.6448C74.4849 93.5046 80.4702 133.37 109.398 169.667C111.964 172.887 113.799 175.111 116.398 178.147C121.288 183.86 123.322 186.13 128.823 191.724C140.597 197.441 156.614 198.039 168.586 195.031Z" style="fill:var(--sapContent_Illustrative_Color19)"/>
<path d="M126.914 73.6412C120.255 69.8516 108.148 71.2461 96.631 77.7614C85.9116 83.8254 78.7314 92.6119 77.641 99.9759C76.0001 90.3217 75.7695 82.2237 76.4043 76.6448C80.4519 60.5658 97.0802 55.9722 105.515 57.595C111.604 60.0798 118.932 65.6566 126.914 73.6412Z" style="fill:var(--sapContent_Illustrative_Color2)"/>
<path fill-rule="evenodd" clip-rule="evenodd" d="M87.6192 84.1856C86.5081 77.7121 85.4896 70.8754 84.5237 63.6417C80.8532 66.6896 77.8381 70.9457 76.4035 76.6447C75.7687 82.2236 75.9993 90.3216 77.6403 99.9758C78.3865 94.9358 81.9854 89.2294 87.6192 84.1856Z" style="fill:var(--sapContent_Illustrative_Color13)"/>
<ellipse cx="6.42999" cy="23.5333" rx="6.42999" ry="23.5333" transform="matrix(0.847876 -0.530195 -0.530195 -0.847876 129.955 142.272)" style="fill:var(--sapContent_Illustrative_Color2)"/>
<ellipse cx="17.0919" cy="21.3277" rx="17.0919" ry="21.3277" transform="matrix(0.958199 -0.286104 -0.286104 -0.958199 156.488 192.211)" style="fill:var(--sapContent_Illustrative_Color13)"/>
<ellipse cx="12.5633" cy="15.5481" rx="12.5633" ry="15.5481" transform="matrix(0.958199 -0.286104 -0.286104 -0.958199 163.203 184.199)" style="fill:var(--sapContent_Illustrative_Color20)"/>
<path fill-rule="evenodd" clip-rule="evenodd" d="M167.665 180.033C167.701 179.867 167.694 179.689 167.639 179.516L166.844 177.052L170.596 171.053L175.829 169.995C176.371 169.886 176.721 169.358 176.611 168.817C176.502 168.275 175.975 167.925 175.433 168.035L169.357 169.263L166.041 174.564L164.753 170.569L170.846 161.619L167.589 154.798C167.351 154.3 166.754 154.089 166.256 154.327C165.758 154.565 165.546 155.162 165.784 155.66L168.546 161.443L162.549 170.252L165.264 178.671C166.033 179.213 166.837 179.67 167.665 180.033Z" style="fill:var(--sapContent_Illustrative_Color18)"/>
<path fill-rule="evenodd" clip-rule="evenodd" d="M165.566 151.085C171.792 152.278 177.263 157.06 179.297 163.874C181.05 169.746 179.843 175.755 176.562 180.127C182.462 177.538 185.349 169.764 183.045 162.049C180.588 153.821 173.159 148.774 166.451 150.777C166.15 150.867 165.854 150.97 165.566 151.085Z" style="fill:var(--sapContent_Illustrative_Color14)"/>
<path d="M53.411 121.992L58.9671 131.054C61.709 135.527 65.7634 139.045 70.5775 141.129L98.4932 153.213C101.988 140.632 86.5425 118.156 82.8118 115.05L57.1173 115.297C53.6999 115.33 51.6248 119.078 53.411 121.992Z" style="fill:var(--sapContent_Illustrative_Color2)"/>
<path fill-rule="evenodd" clip-rule="evenodd" d="M98.9347 147.474C97.9217 134.76 86.0235 117.724 82.8111 115.05L57.7427 115.291C57.6044 116.247 57.7801 117.267 58.353 118.202L63.909 127.264C66.6509 131.736 70.7053 135.254 75.5194 137.338L98.9347 147.474Z" style="fill:var(--sapContent_Illustrative_Color13)"/>
<path d="M125.908 178.812L124.152 149.844L129.946 169.858L135.037 165.469L141.533 170.912L150.662 197.071C144.482 197.071 139.426 195.549 137.671 194.788C135.564 189.873 133.282 179.983 132.404 175.652L125.908 178.812Z" style="fill:var(--sapContent_Illustrative_Color4)"/>
<path d="M125.908 178.812L124.152 149.844L127.292 176.275L133.328 173.15L140.332 195.458L137.671 194.788C135.564 189.873 133.282 179.983 132.404 175.652L125.908 178.812Z" style="fill:var(--sapContent_Illustrative_Color5)"/>
<path d="M166.292 131.009C165.182 130.383 164.272 129.53 163.561 128.477C165.324 122.475 169.279 117.667 172.379 112.404C176.533 105.349 181.113 98.5496 184.129 90.897C187.258 82.9031 188.453 74.71 186.888 66.1755C186.689 65.066 186.803 63.8996 186.774 62.7617C191.098 68.4514 192.72 75.0798 193.63 81.9927C194.825 91.1246 191.241 98.4927 185.579 105.32C179.577 112.546 173.916 120.056 168.112 127.453C167.287 128.534 166.348 129.558 166.32 131.037L166.292 131.009Z" style="fill:var(--sapContent_Illustrative_Color8)"/>
<path d="M167.658 21.825C167.857 23.3612 167.231 24.7267 166.748 26.1206C162.936 37.0163 163.277 47.7413 167.999 58.2956C168.625 59.6896 169.052 61.1689 169.763 63.1318C156.592 51.9232 156.506 39.2353 163.106 25.6939C163.96 23.9301 165.439 22.337 167.601 21.7681L167.658 21.825Z" style="fill:var(--sapContent_Illustrative_Color8)"/>
<path d="M172.465 67.5128C178.126 73.0033 180.374 79.518 177.984 87.199C176.733 91.1818 174.826 94.8516 171.982 98.2085C170.958 97.0136 171.783 96.3024 172.095 95.5912C175.708 87.7111 176.334 79.7171 173.034 71.5525C172.522 70.2723 172.295 68.9637 172.38 67.5697L172.465 67.4844L172.465 67.5128Z" style="fill:var(--sapContent_Illustrative_Color8)"/>
<path d="M26.3497 68.8688L20.3166 72.2826L20.9394 65.7408L26.3497 68.8688Z" style="fill:var(--sapContent_Illustrative_Color15)"/>
<path d="M264.525 60.5408L259.774 59.0433L263.867 55.0533L264.525 60.5408Z" style="fill:var(--sapContent_Illustrative_Color15)"/>
<circle cx="42.2042" cy="97.9288" r="4.01868" style="fill:var(--sapContent_Illustrative_Color15)"/>
<circle cx="270.077" cy="101.947" r="4.01868" style="fill:var(--sapContent_Illustrative_Color15)"/>
<circle cx="28.9736" cy="108.727" r="2.45605" style="fill:var(--sapContent_Illustrative_Color15)"/>
<rect x="238.273" y="68.3379" width="8.58032" height="8.58032" transform="rotate(34.4455 238.273 68.3379)" style="fill:var(--sapContent_Illustrative_Color15)"/>
</svg>
