<svg id="Layer_1" data-name="Layer 1" xmlns="http://www.w3.org/2000/svg" viewBox="0 0 24 24"><defs><style>.cls-1{fill:none;stroke:#4a4a4a;stroke-miterlimit:10;stroke-width:0.25px;}.cls-2{fill:#fff;}.cls-3{fill:#4a4a4a;}</style></defs><title>BusyDialog</title><line class="cls-1" x1="1.5" y1="2.5" x2="22.5" y2="2.5"/><line class="cls-1" x1="20.36" y1="8.5" x2="22.5" y2="8.5"/><line class="cls-1" x1="1.5" y1="8.5" x2="3.63" y2="8.5"/><line class="cls-1" x1="1.5" y1="4.5" x2="22.5" y2="4.5"/><line class="cls-1" x1="1.5" y1="3.5" x2="22.5" y2="3.5"/><rect class="cls-2" x="4.25" y="8.25" width="15.5" height="8.5" rx="0.61" ry="0.61"/><path class="cls-3" d="M19.14,8.5a.36.36,0,0,1,.36.36v7.28a.36.36,0,0,1-.36.36H4.86a.36.36,0,0,1-.36-.36V8.86a.36.36,0,0,1,.36-.36H19.14m0-.5H4.86A.86.86,0,0,0,4,8.86v7.28a.86.86,0,0,0,.86.86H19.14a.86.86,0,0,0,.86-.86V8.86A.86.86,0,0,0,19.14,8Z"/><line class="cls-1" x1="22.51" y1="21.48" x2="1.51" y2="21.52"/><line class="cls-1" x1="22.5" y1="19.48" x2="1.5" y2="19.52"/><line class="cls-1" x1="22.5" y1="20.48" x2="1.5" y2="20.52"/><line class="cls-1" x1="19" y1="7.5" x2="22.5" y2="7.5"/><line class="cls-1" x1="1.5" y1="7.5" x2="19" y2="7.5"/><line class="cls-1" x1="19" y1="6.5" x2="22.5" y2="6.5"/><line class="cls-1" x1="1.5" y1="6.5" x2="19" y2="6.5"/><line class="cls-1" x1="19" y1="17.5" x2="22.5" y2="17.5"/><line class="cls-1" x1="1.5" y1="17.5" x2="19" y2="17.5"/><line class="cls-1" x1="22.44" y1="18.52" x2="1.49" y2="18.52"/><line class="cls-1" x1="19" y1="22.5" x2="22.5" y2="22.5"/><line class="cls-1" x1="1.5" y1="22.5" x2="19" y2="22.5"/><line class="cls-1" x1="19" y1="5.5" x2="22.5" y2="5.5"/><line class="cls-1" x1="1.5" y1="5.5" x2="19" y2="5.5"/><line class="cls-1" x1="22.44" y1="1.52" x2="1.49" y2="1.52"/><line class="cls-1" x1="20.36" y1="11.5" x2="22.5" y2="11.5"/><line class="cls-1" x1="1.5" y1="11.5" x2="3.63" y2="11.5"/><line class="cls-1" x1="20.36" y1="15.5" x2="22.5" y2="15.5"/><line class="cls-1" x1="1.5" y1="15.5" x2="3.63" y2="15.5"/><line class="cls-1" x1="20.36" y1="14.5" x2="22.5" y2="14.5"/><line class="cls-1" x1="1.5" y1="14.5" x2="3.63" y2="14.5"/><line class="cls-1" x1="20.36" y1="13.5" x2="22.5" y2="13.5"/><line class="cls-1" x1="1.5" y1="13.5" x2="3.63" y2="13.5"/><line class="cls-1" x1="20.36" y1="12.5" x2="22.5" y2="12.5"/><line class="cls-1" x1="1.5" y1="12.5" x2="3.63" y2="12.5"/><line class="cls-1" x1="20.36" y1="10.5" x2="22.5" y2="10.5"/><line class="cls-1" x1="1.5" y1="10.5" x2="3.63" y2="10.5"/><line class="cls-1" x1="20.36" y1="9.5" x2="22.5" y2="9.5"/><line class="cls-1" x1="1.5" y1="9.5" x2="3.63" y2="9.5"/><line class="cls-1" x1="20.36" y1="16.5" x2="22.5" y2="16.5"/><line class="cls-1" x1="1.5" y1="16.5" x2="3.63" y2="16.5"/><circle class="cls-2" cx="8.75" cy="13.25" r="0.5"/><path class="cls-3" d="M8.75,13a.25.25,0,1,1-.25.25A.25.25,0,0,1,8.75,13m0-.5a.75.75,0,1,0,.75.75.75.75,0,0,0-.75-.75Z"/><circle class="cls-2" cx="11.38" cy="12.88" r="0.8"/><path class="cls-3" d="M11.38,12.4a.48.48,0,1,1-.48.48.48.48,0,0,1,.48-.48m0-.65a1.13,1.13,0,1,0,1.13,1.13,1.13,1.13,0,0,0-1.12-1.12Z"/><circle class="cls-2" cx="14.75" cy="12.5" r="1.13"/><path class="cls-3" d="M14.75,11.75a.75.75,0,1,1-.75.75.75.75,0,0,1,.75-.75m0-.75a1.5,1.5,0,1,0,1.5,1.5,1.5,1.5,0,0,0-1.5-1.5Z"/></svg>