<?xml version="1.0" encoding="utf-8"?>
<!-- Generator: Adobe Illustrator 19.1.0, SVG Export Plug-In . SVG Version: 6.00 Build 0)  -->
<svg version="1.1" xmlns="http://www.w3.org/2000/svg" xmlns:xlink="http://www.w3.org/1999/xlink" x="0px" y="0px" width="24px"
	 height="24px" viewBox="0 0 24 24" enable-background="new 0 0 24 24" xml:space="preserve">
<g id="Icons">
	<g>
		<defs>
			<rect id="SVGID_61_" width="24" height="24"/>
		</defs>
		<clipPath id="SVGID_2_">
			<use xlink:href="#SVGID_61_"  overflow="visible"/>
		</clipPath>
		<g clip-path="url(#SVGID_2_)">
			<path fill="#4A4A4A" d="M14.496,21H3.5C3.224,21,3,20.775,3,20.5v-17C3,3.224,3.224,3,3.5,3h17C20.776,3,21,3.224,21,3.5v9.99
				c0,0.275,0.224,0.5,0.5,0.5c0.276,0,0.5-0.225,0.5-0.5V3.5C22,2.671,21.328,2,20.5,2h-17C2.671,2,2,2.671,2,3.5v17
				C2,21.328,2.671,22,3.5,22h10.996c0.276,0,0.5-0.225,0.5-0.5C14.996,21.224,14.772,21,14.496,21z"/>
			<path fill="#4A4A4A" d="M22.929,19.057l-5.515-5.547c-0.069-0.069-0.174-0.09-0.265-0.053S17,13.583,17,13.682v7.827
				c0,0.093,0.053,0.178,0.137,0.218c0.083,0.041,0.183,0.03,0.256-0.027l2.09-1.643l0.964,2.331
				c0.08,0.193,0.266,0.309,0.462,0.309c0.064,0,0.128-0.012,0.191-0.037c0.255-0.106,0.377-0.398,0.271-0.653l-0.934-2.258
				l2.349-0.278c0.092-0.011,0.17-0.074,0.201-0.161C23.017,19.22,22.995,19.123,22.929,19.057z"/>
		</g>
	</g>
</g>
<g id="LABELS">
</g>
</svg>
