<?xml version="1.0" encoding="utf-8"?>
<!-- Generator: Adobe Illustrator 19.1.0, SVG Export Plug-In . SVG Version: 6.00 Build 0)  -->
<svg version="1.1" xmlns="http://www.w3.org/2000/svg" xmlns:xlink="http://www.w3.org/1999/xlink" x="0px" y="0px" width="24px"
	 height="24px" viewBox="0 0 24 24" enable-background="new 0 0 24 24" xml:space="preserve">
<g id="Icons">
	<g>
		<defs>
			<rect id="SVGID_115_" width="24" height="24"/>
		</defs>
		<clipPath id="SVGID_2_">
			<use xlink:href="#SVGID_115_"  overflow="visible"/>
		</clipPath>
		<g clip-path="url(#SVGID_2_)">
			<path fill="none" d="M22.5,1h-21C1.224,1,1,1.225,1,1.5v21C1,22.775,1.224,23,1.5,23h21c0.276,0,0.5-0.225,0.5-0.5v-21
				C23,1.225,22.776,1,22.5,1z M19.866,9.84l-7.499,8.001C12.271,17.942,12.139,18,12,18c-0.139,0-0.271-0.058-0.366-0.159l-7.5-8
				C3.946,9.64,3.957,9.323,4.159,9.135c0.203-0.188,0.518-0.178,0.707,0.024L12,16.768l7.134-7.609
				c0.19-0.201,0.505-0.212,0.707-0.024C20.043,9.322,20.054,9.639,19.866,9.84z"/>
			<path fill="#4A4A4A" d="M19.134,9.158L12,16.768L4.866,9.159C4.677,8.957,4.361,8.946,4.159,9.135
				C3.957,9.323,3.946,9.64,4.134,9.841l7.5,8C11.729,17.942,11.862,18,12,18c0.139,0,0.271-0.058,0.366-0.159l7.499-8.001
				c0.188-0.201,0.177-0.518-0.024-0.706C19.639,8.946,19.324,8.957,19.134,9.158z"/>
			<path fill="#4A4A4A" d="M22.5,0h-21C0.673,0,0,0.673,0,1.5v21C0,23.327,0.673,24,1.5,24h21c0.827,0,1.5-0.673,1.5-1.5v-21
				C24,0.673,23.327,0,22.5,0z M23,22.5c0,0.275-0.224,0.5-0.5,0.5h-21C1.224,23,1,22.775,1,22.5v-21C1,1.225,1.224,1,1.5,1h21
				C22.776,1,23,1.225,23,1.5V22.5z"/>
		</g>
	</g>
</g>
<g id="LABELS">
</g>
</svg>
