<?xml version="1.0" encoding="utf-8"?>
<!-- Generator: Adobe Illustrator 19.1.0, SVG Export Plug-In . SVG Version: 6.00 Build 0)  -->
<svg version="1.1" xmlns="http://www.w3.org/2000/svg" xmlns:xlink="http://www.w3.org/1999/xlink" x="0px" y="0px" width="24px"
	 height="24px" viewBox="0 0 24 24" enable-background="new 0 0 24 24" xml:space="preserve">
<g id="Icons">
	<g>
		<defs>
			<rect id="SVGID_47_" width="24.005" height="24"/>
		</defs>
		<clipPath id="SVGID_2_">
			<use xlink:href="#SVGID_47_"  overflow="visible"/>
		</clipPath>
		<g clip-path="url(#SVGID_2_)">
			<path fill="#4B4A4B" d="M10.5,20.006H0.496c-0.276,0-0.5-0.224-0.5-0.5V4.498c0-0.276,0.224-0.5,0.5-0.5H10.5
				c0.276,0,0.5,0.224,0.5,0.5v15.008C11,19.782,10.776,20.006,10.5,20.006z M0.996,19.006H10V4.998H0.996V19.006z"/>
		</g>
		<g clip-path="url(#SVGID_2_)">
			<path fill="#4B4A4B" d="M6.473,18.002H2.491c-0.276,0-0.5-0.224-0.5-0.5s0.224-0.5,0.5-0.5h3.981c0.276,0,0.5,0.224,0.5,0.5
				S6.749,18.002,6.473,18.002z"/>
		</g>
		<g clip-path="url(#SVGID_2_)">
			<path fill="#4B4A4B" d="M5.485,12H2.487c-0.276,0-0.5-0.224-0.5-0.5s0.224-0.5,0.5-0.5h2.998c0.276,0,0.5,0.224,0.5,0.5
				S5.762,12,5.485,12z"/>
		</g>
		<g clip-path="url(#SVGID_2_)">
			<path fill="#4B4A4B" d="M4.485,8.992H2.487c-0.276,0-0.5-0.224-0.5-0.5V6.501c0-0.276,0.224-0.5,0.5-0.5h1.998
				c0.276,0,0.5,0.224,0.5,0.5v1.991C4.985,8.769,4.762,8.992,4.485,8.992z M2.987,7.992h0.998V7.001H2.987V7.992z"/>
		</g>
		<g clip-path="url(#SVGID_2_)">
			<path fill="#4B4A4B" d="M8.007,8H6.993c-0.553,0-1-0.448-1-1s0.447-1,1-1h1.014c0.553,0,1,0.448,1,1S8.56,8,8.007,8z"/>
		</g>
		<g clip-path="url(#SVGID_2_)">
			<path fill="#4B4A4B" d="M8.497,9.998H7.502c-0.276,0-0.5-0.224-0.5-0.5s0.224-0.5,0.5-0.5h0.995c0.276,0,0.5,0.224,0.5,0.5
				S8.773,9.998,8.497,9.998z"/>
		</g>
		<g clip-path="url(#SVGID_2_)">
			<path fill="#4B4A4B" d="M4.461,13.995H2.476c-0.276,0-0.5-0.224-0.5-0.5s0.224-0.5,0.5-0.5h1.985c0.276,0,0.5,0.224,0.5,0.5
				S4.737,13.995,4.461,13.995z"/>
		</g>
		<g clip-path="url(#SVGID_2_)">
			<path fill="#4B4A4B" d="M8.473,16.002H2.491c-0.276,0-0.5-0.224-0.5-0.5s0.224-0.5,0.5-0.5h5.981c0.276,0,0.5,0.224,0.5,0.5
				S8.749,16.002,8.473,16.002z"/>
		</g>
		<g clip-path="url(#SVGID_2_)">
			<path fill="#4B4A4B" d="M23.505,20.006h-9.996c-0.276,0-0.5-0.224-0.5-0.5V4.498c0-0.276,0.224-0.5,0.5-0.5h9.996
				c0.276,0,0.5,0.224,0.5,0.5v15.008C24.005,19.782,23.781,20.006,23.505,20.006z M14.009,19.006h8.996V4.998h-8.996V19.006z"/>
		</g>
		<g clip-path="url(#SVGID_2_)">
			<path fill="#4B4A4B" d="M20.503,17.001h-4.999c-0.276,0-0.5-0.224-0.5-0.5s0.224-0.5,0.5-0.5h4.999c0.276,0,0.5,0.224,0.5,0.5
				S20.779,17.001,20.503,17.001z"/>
		</g>
		<g clip-path="url(#SVGID_2_)">
			<path fill="#4B4A4B" d="M16.976,8h-0.973c-0.553,0-1-0.448-1-1s0.447-1,1-1h0.973c0.553,0,1,0.448,1,1S17.528,8,16.976,8z"/>
		</g>
		<g clip-path="url(#SVGID_2_)">
			<path fill="#4B4A4B" d="M16.482,9.998h-0.994c-0.276,0-0.5-0.224-0.5-0.5s0.224-0.5,0.5-0.5h0.994c0.276,0,0.5,0.224,0.5,0.5
				S16.759,9.998,16.482,9.998z"/>
		</g>
		<g clip-path="url(#SVGID_2_)">
			<path fill="#4B4A4B" d="M19.502,12.995h-4.014c-0.276,0-0.5-0.224-0.5-0.5s0.224-0.5,0.5-0.5h4.014c0.276,0,0.5,0.224,0.5,0.5
				S19.778,12.995,19.502,12.995z"/>
		</g>
		<g clip-path="url(#SVGID_2_)">
			<path fill="#4B4A4B" d="M18.495,15.001h-2.991c-0.276,0-0.5-0.224-0.5-0.5s0.224-0.5,0.5-0.5h2.991c0.276,0,0.5,0.224,0.5,0.5
				S18.771,15.001,18.495,15.001z"/>
		</g>
	</g>
</g>
<g id="LABELS">
</g>
</svg>
