<?xml version="1.0" encoding="utf-8"?>
<!-- Generator: Adobe Illustrator 19.1.0, SVG Export Plug-In . SVG Version: 6.00 Build 0)  -->
<svg version="1.1" xmlns="http://www.w3.org/2000/svg" xmlns:xlink="http://www.w3.org/1999/xlink" x="0px" y="0px" width="24px"
	 height="24px" viewBox="0 0 24 24" enable-background="new 0 0 24 24" xml:space="preserve">
<g id="Icons">
	<g>
		<defs>
			<rect id="SVGID_119_" y="-0.002" width="24" height="24"/>
		</defs>
		<clipPath id="SVGID_2_">
			<use xlink:href="#SVGID_119_"  overflow="visible"/>
		</clipPath>
		<g clip-path="url(#SVGID_2_)">
			<path fill="none" d="M3,21.5C3,21.775,3.224,22,3.5,22h17c0.276,0,0.5-0.225,0.5-0.5V9.004H3V21.5z M14,16.5
				c0-0.276,0.224-0.5,0.5-0.5h3c0.276,0,0.5,0.224,0.5,0.5v2c0,0.276-0.224,0.5-0.5,0.5h-3c-0.276,0-0.5-0.224-0.5-0.5V16.5z"/>
			<path fill="none" d="M20.489,4H18v1c0,0.553-0.447,1-1,1c-0.553,0-1-0.447-1-1V4H8v1c0,0.553-0.448,1-1,1C6.448,6,6,5.553,6,5V4
				H3.511C3.229,4,3,4.229,3,4.511V8h18V4.511C21,4.229,20.771,4,20.489,4z"/>
			<path fill="#4A4A4A" d="M14.5,19h3c0.276,0,0.5-0.224,0.5-0.5v-2c0-0.276-0.224-0.5-0.5-0.5h-3c-0.276,0-0.5,0.224-0.5,0.5v2
				C14,18.776,14.224,19,14.5,19z"/>
			<path fill="#4A4A4A" d="M20.489,3H18V2c0-0.553-0.447-1-1-1c-0.553,0-1,0.447-1,1v1H8V2c0-0.553-0.448-1-1-1C6.448,1,6,1.447,6,2
				v1H3.511C2.678,3,2,3.678,2,4.511V21.5C2,22.327,2.673,23,3.5,23h17c0.827,0,1.5-0.673,1.5-1.5V4.511C22,3.678,21.322,3,20.489,3
				z M21,21.5c0,0.275-0.224,0.5-0.5,0.5h-17C3.224,22,3,21.775,3,21.5V9.004h18V21.5z M21,8H3V4.511C3,4.229,3.229,4,3.511,4H6v1
				c0,0.553,0.448,1,1,1c0.552,0,1-0.447,1-1V4h8v1c0,0.553,0.447,1,1,1c0.553,0,1-0.447,1-1V4h2.489C20.771,4,21,4.229,21,4.511V8z
				"/>
		</g>
	</g>
</g>
<g id="LABELS">
</g>
</svg>
