<svg id="Layer_1" data-name="Layer 1" xmlns="http://www.w3.org/2000/svg" viewBox="0 0 24 24"><defs><style>.cls-1{fill:none;stroke:#4a4a4a;stroke-miterlimit:10;stroke-width:0.25px;}.cls-2{fill:#fff;}.cls-3{fill:#4a4a4a;}</style></defs><title>Dialog</title><line class="cls-1" x1="1.5" y1="2.5" x2="22.5" y2="2.5"/><line class="cls-1" x1="19" y1="8.5" x2="22.5" y2="8.5"/><line class="cls-1" x1="1.5" y1="8.5" x2="5" y2="8.5"/><line class="cls-1" x1="1.5" y1="4.5" x2="22.5" y2="4.5"/><line class="cls-1" x1="1.5" y1="3.5" x2="22.5" y2="3.5"/><rect class="cls-2" x="6.25" y="5.25" width="11.5" height="13.5" rx="0.61" ry="0.61"/><path class="cls-3" d="M17.14,5.5a.36.36,0,0,1,.36.36V18.14a.36.36,0,0,1-.36.36H6.86a.36.36,0,0,1-.36-.36V5.86a.36.36,0,0,1,.36-.36H17.14m0-.5H6.86A.86.86,0,0,0,6,5.86V18.14a.86.86,0,0,0,.86.86H17.14a.86.86,0,0,0,.86-.86V5.86A.86.86,0,0,0,17.14,5Z"/><line class="cls-1" x1="19" y1="14.5" x2="22.5" y2="14.5"/><line class="cls-1" x1="1.5" y1="14.5" x2="4.9" y2="14.5"/><line class="cls-1" x1="19" y1="13.5" x2="22.5" y2="13.5"/><line class="cls-1" x1="1.5" y1="13.5" x2="4.9" y2="13.5"/><line class="cls-1" x1="19" y1="12.5" x2="22.5" y2="12.5"/><line class="cls-1" x1="1.5" y1="12.5" x2="4.9" y2="12.5"/><line class="cls-1" x1="19" y1="11.5" x2="22.5" y2="11.5"/><line class="cls-1" x1="1.5" y1="11.5" x2="4.9" y2="11.5"/><line class="cls-1" x1="19" y1="10.5" x2="22.5" y2="10.5"/><line class="cls-1" x1="1.5" y1="10.5" x2="4.9" y2="10.5"/><line class="cls-1" x1="19" y1="9.5" x2="22.5" y2="9.5"/><line class="cls-1" x1="1.5" y1="9.5" x2="4.9" y2="9.5"/><line class="cls-1" x1="22.51" y1="21.48" x2="1.51" y2="21.52"/><line class="cls-1" x1="5" y1="15.52" x2="1.49" y2="15.52"/><line class="cls-1" x1="22.49" y1="15.48" x2="19.1" y2="15.48"/><line class="cls-1" x1="22.5" y1="19.48" x2="1.5" y2="19.52"/><line class="cls-1" x1="22.5" y1="20.48" x2="1.5" y2="20.52"/><rect class="cls-2" x="13.62" y="14.62" width="1.75" height="2.75" transform="matrix(0, -1, 1, 0, -1.52, 30.48)"/><path class="cls-3" d="M15.75,15.25v1.5h-2.5v-1.5h2.5m.13-.25H13.12a.12.12,0,0,0-.12.12v1.75a.12.12,0,0,0,.12.12h2.75a.12.12,0,0,0,.12-.12V15.12a.12.12,0,0,0-.12-.12Z"/><line class="cls-1" x1="19" y1="7.5" x2="22.5" y2="7.5"/><line class="cls-1" x1="1.5" y1="7.5" x2="4.9" y2="7.5"/><line class="cls-1" x1="19" y1="6.5" x2="22.5" y2="6.5"/><line class="cls-1" x1="1.5" y1="6.5" x2="4.9" y2="6.5"/><line class="cls-1" x1="19" y1="17.5" x2="22.5" y2="17.5"/><line class="cls-1" x1="1.5" y1="17.5" x2="4.9" y2="17.5"/><line class="cls-1" x1="19" y1="16.5" x2="22.5" y2="16.5"/><line class="cls-1" x1="1.5" y1="16.5" x2="4.9" y2="16.5"/><line class="cls-1" x1="5" y1="18.52" x2="1.49" y2="18.52"/><line class="cls-1" x1="22.49" y1="18.48" x2="19.1" y2="18.48"/><line class="cls-1" x1="19" y1="22.5" x2="22.5" y2="22.5"/><line class="cls-1" x1="1.5" y1="22.5" x2="19" y2="22.5"/><line class="cls-1" x1="19" y1="5.5" x2="22.5" y2="5.5"/><line class="cls-1" x1="1.5" y1="5.5" x2="4.9" y2="5.5"/><line class="cls-1" x1="22.44" y1="1.52" x2="1.49" y2="1.52"/></svg>