<svg xmlns="http://www.w3.org/2000/svg" width="24" height="24" viewBox="0 0 24 24"><title>ico_draft_indicator_24</title><path d="M23.5,7H.5a.5.5,0,0,0-.5.5v6a.5.5,0,0,0,.5.5H23.5a.5.5,0,0,0,.5-.5v-6A.5.5,0,0,0,23.5,7ZM23,13H1V8H23Z" fill="#666"/><path d="M15.5,16h-3a.5.5,0,1,0,0,1h3a.5.5,0,0,0,0-1Z" fill="#666"/><circle cx="21.5" cy="16.498" r="0.5" fill="#666"/><path d="M3.5,11h17a.5.5,0,0,0,0-1H3.5a.5.5,0,1,0,0,1Z" fill="#666"/><circle cx="19.5" cy="16.498" r="0.5" fill="#666"/><circle cx="17.5" cy="16.498" r="0.5" fill="#666"/></svg>