<svg xmlns="http://www.w3.org/2000/svg" width="24" height="24" viewBox="0 0 24 24"><title>ico_title_24</title><path d="M22.5-.01H1.5A1.5,1.5,0,0,0,0,1.49v21a1.5,1.5,0,0,0,1.5,1.5h21a1.5,1.5,0,0,0,1.5-1.5v-21A1.5,1.5,0,0,0,22.5-.01Zm.5,22.5a.5.5,0,0,1-.5.5H1.5a.5.5,0,0,1-.5-.5v-21a.5.5,0,0,1,.5-.5h21a.5.5,0,0,1,.5.5Z" fill="#666"/><rect x="3.006" y="7.002" width="10" height="10" rx="1" ry="1" fill="#666"/><path d="M20.514,18H19V6h1.5a.5.5,0,0,0,0-1H19a.744.744,0,0,0-.5.181A.754.754,0,0,0,18,5H16.5a.5.5,0,0,0,0,1H18V18H16.49a.5.5,0,0,0,0,1H18a.706.706,0,0,0,.5-.19A.691.691,0,0,0,19,19h1.513a.5.5,0,0,0,0-1Z" fill="#666"/></svg>