<?xml version="1.0" encoding="utf-8"?>
<!-- Generator: Adobe Illustrator 19.1.0, SVG Export Plug-In . SVG Version: 6.00 Build 0)  -->
<svg version="1.1" xmlns="http://www.w3.org/2000/svg" xmlns:xlink="http://www.w3.org/1999/xlink" x="0px" y="0px" width="24px"
	 height="24px" viewBox="0 0 24 24" enable-background="new 0 0 24 24" xml:space="preserve">
<g id="Icons">
	<g>
		<defs>
			<rect id="SVGID_93_" width="24" height="24"/>
		</defs>
		<clipPath id="SVGID_2_">
			<use xlink:href="#SVGID_93_"  overflow="visible"/>
		</clipPath>
		<g clip-path="url(#SVGID_2_)">
			<path fill="none" d="M22.5,1h-21C1.224,1,1,1.224,1,1.5v21C1,22.775,1.224,23,1.5,23h21c0.276,0,0.5-0.225,0.5-0.5v-21
				C23,1.224,22.776,1,22.5,1z M15.5,6C16.33,6,17,6.671,17,7.499c0,0.829-0.67,1.5-1.5,1.5c-0.827,0-1.5-0.671-1.5-1.5
				C14,6.671,14.673,6,15.5,6z M21.421,17.484C21.284,17.798,20.975,18,20.633,18H3.403c-0.348,0-0.663-0.205-0.803-0.524
				c-0.14-0.319-0.078-0.69,0.158-0.946L9.932,8.73c0.119-0.13,0.287-0.203,0.463-0.203c0.176,0,0.344,0.074,0.463,0.203
				l4.559,4.957l1.3-1.413c0.079-0.085,0.19-0.134,0.307-0.134c0.116,0,0.228,0.049,0.307,0.134l3.937,4.281
				C21.498,16.807,21.559,17.172,21.421,17.484z"/>
			<circle fill="#4A4A4A" cx="15.5" cy="7.5" r="1.5"/>
			<path fill="#4A4A4A" d="M17.33,12.274c-0.079-0.085-0.19-0.134-0.307-0.134c-0.117,0-0.228,0.049-0.307,0.134l-1.3,1.413
				L10.858,8.73c-0.119-0.129-0.287-0.203-0.463-0.203c-0.176,0-0.344,0.073-0.463,0.203l-7.174,7.799
				C2.521,16.785,2.46,17.156,2.6,17.476C2.739,17.795,3.055,18,3.403,18h17.23c0.342,0,0.651-0.202,0.789-0.516
				c0.138-0.312,0.077-0.678-0.154-0.929L17.33,12.274z"/>
			<path fill="#4A4A4A" d="M22.5,0h-21C0.673,0,0,0.673,0,1.5v21C0,23.327,0.673,24,1.5,24h21c0.827,0,1.5-0.673,1.5-1.5v-21
				C24,0.673,23.327,0,22.5,0z M23,22.5c0,0.275-0.224,0.5-0.5,0.5h-21C1.224,23,1,22.775,1,22.5v-21C1,1.224,1.224,1,1.5,1h21
				C22.776,1,23,1.224,23,1.5V22.5z"/>
		</g>
	</g>
</g>
<g id="LABELS">
</g>
</svg>
