<?xml version="1.0" encoding="utf-8"?>
<!-- Generator: Adobe Illustrator 19.1.0, SVG Export Plug-In . SVG Version: 6.00 Build 0)  -->
<svg version="1.1" xmlns="http://www.w3.org/2000/svg" xmlns:xlink="http://www.w3.org/1999/xlink" x="0px" y="0px" width="24px"
	 height="24px" viewBox="0 0 24 24" enable-background="new 0 0 24 24" xml:space="preserve">
<g id="Icons">
	<g>
		<defs>
			<rect id="SVGID_71_" width="24" height="24"/>
		</defs>
		<clipPath id="SVGID_2_">
			<use xlink:href="#SVGID_71_"  overflow="visible"/>
		</clipPath>
		<path clip-path="url(#SVGID_2_)" fill="#4A4A4A" d="M22.5,0h-21C0.672,0,0,0.672,0,1.5v21c0,0.397,0.158,0.779,0.439,1.06
			C0.721,23.842,1.102,24,1.5,24l21-0.001c0.828,0,1.5-0.671,1.5-1.5V1.5C24,0.672,23.328,0,22.5,0z M23,22.5
			c0,0.276-0.224,0.5-0.5,0.5h-21C1.224,23,1,22.776,1,22.5v-21C1,1.224,1.224,1,1.5,1h21c0.133,0,0.26,0.053,0.353,0.146
			C22.947,1.24,23,1.367,23,1.5V22.5z"/>
		<path clip-path="url(#SVGID_2_)" fill="#4A4A4A" d="M14.5,18c-0.06,0-0.1-0.003-0.17-0.004c-0.15-0.003-0.261,0.003-0.309,0.004
			c-0.101,0.003-0.248,0.005-0.436,0.002c-0.038,0.002-0.235,0.011-0.401-0.137c-0.187-0.166-0.184-0.395-0.184-0.428
			c0-0.194,0-1.083,0-1.28c0-0.099,0-0.745,0-0.828c0-0.166,0-1.56,0-3.286h0V8.689c0-0.025,0-0.866,0-0.891V6.531
			c-0.001-0.058,0.004-0.245,0.139-0.382c0.11-0.11,0.25-0.131,0.368-0.149c0.075-0.011,0.07-0.001,0.455,0H14.5
			c0.033,0,0.212-0.002,0.355-0.145C14.945,5.765,15,5.64,15,5.5C15,5.22,14.78,5,14.5,5H13c-0.39,0-0.74,0.15-1,0.39
			C11.74,5.15,11.39,5,11,5H9.5C9.22,5,9,5.22,9,5.5S9.22,6,9.5,6c0.06,0,0.1,0.003,0.17,0.004C9.82,6.007,9.931,6.001,9.979,6
			c0.101-0.003,0.248-0.005,0.436-0.002c0.038-0.002,0.235-0.011,0.401,0.137C11.003,6.302,11.001,6.531,11,6.563
			c0,0.194,0,1.083,0,1.28c0,0.099,0,0.745,0,0.828c0,0.166,0,1.56,0,3.286h0v3.354c0,0.025,0,0.866,0,0.891v1.267
			c0.001,0.058-0.004,0.245-0.139,0.382c-0.11,0.11-0.25,0.131-0.368,0.149c-0.075,0.011-0.07,0.001-0.455,0H9.5
			c-0.033,0-0.212,0.002-0.355,0.145C9.055,18.235,9,18.36,9,18.5C9,18.78,9.22,19,9.5,19H11c0.39,0,0.74-0.15,1-0.39
			C12.26,18.85,12.61,19,13,19h1.5c0.28,0,0.5-0.22,0.5-0.5S14.78,18,14.5,18z"/>
	</g>
</g>
<g id="LABELS">
</g>
</svg>
