<?xml version="1.0" encoding="utf-8"?>
<!-- Generator: Adobe Illustrator 19.1.0, SVG Export Plug-In . SVG Version: 6.00 Build 0)  -->
<svg version="1.1" xmlns="http://www.w3.org/2000/svg" xmlns:xlink="http://www.w3.org/1999/xlink" x="0px" y="0px" width="24px"
	 height="24px" viewBox="0 0 24 24" enable-background="new 0 0 24 24" xml:space="preserve">
<g id="Icons">
	<g>
		<defs>
			<rect id="SVGID_95_" x="0" width="24" height="24"/>
		</defs>
		<clipPath id="SVGID_2_">
			<use xlink:href="#SVGID_95_"  overflow="visible"/>
		</clipPath>
		<g clip-path="url(#SVGID_2_)">
			<path fill="none" d="M1.079,14.651c-0.097,0.093-0.151,0.222-0.152,0.354c-0.002,0.135,0.052,0.264,0.145,0.358l7.567,7.563
				c0.094,0.094,0.357,0.145,0.359,0.146c0.132-0.001,0.258-0.057,0.351-0.152l1.899-1.965l-8.204-8.205L1.079,14.651z"/>
			<path fill="none" d="M22.5,1h-7.096c-0.131,0-0.254,0.05-0.348,0.14L3.764,12.057l8.181,8.18L22.861,8.943
				C22.951,8.849,23,8.726,23,8.596V1.5C23,1.224,22.775,1,22.5,1z M9,13.429c-0.109,0-0.22-0.042-0.303-0.126
				c-0.168-0.167-0.168-0.438,0-0.606l6-6c0.166-0.167,0.439-0.167,0.605,0c0.168,0.167,0.168,0.439,0,0.606l-6,5.999
				C9.22,13.387,9.109,13.429,9,13.429z M18.354,8.354l-7,7C11.256,15.451,11.128,15.5,11,15.5c-0.128,0-0.256-0.049-0.354-0.147
				c-0.195-0.195-0.195-0.512,0-0.707l7-7c0.195-0.195,0.512-0.195,0.707,0C18.549,7.842,18.549,8.158,18.354,8.354z M20.706,4.707
				c-0.39,0.391-1.023,0.391-1.412,0c-0.392-0.39-0.392-1.024,0-1.415c0.39-0.39,1.023-0.39,1.412,0
				C21.098,3.683,21.098,4.317,20.706,4.707z"/>
			<circle fill="#4A4A4A" cx="20" cy="4" r="0.999"/>
			<path fill="#4A4A4A" d="M22.505,0H15.43c-0.39,0-0.759,0.147-1.04,0.419L0.457,13.928C0.169,14.205,0.003,14.588,0,14.988
				c-0.004,0.399,0.155,0.781,0.437,1.064l7.539,7.545C8.258,23.881,8.634,24,9.034,24c0.002,0,0.011,0,0.013,0
				c0.397,0,0.785-0.134,1.061-0.421L23.579,9.638C23.851,9.357,24,8.987,24,8.596V1.5C24,0.673,23.329,0,22.505,0z M9.394,22.921
				c-0.093,0.096-0.218,0.151-0.35,0.152c-0.003-0.001-0.265-0.052-0.358-0.146l-7.544-7.563c-0.093-0.095-0.147-0.224-0.145-0.358
				c0.001-0.133,0.055-0.262,0.152-0.354l1.96-1.9l8.179,8.205L9.394,22.921z M23.003,8.596c0,0.13-0.049,0.253-0.138,0.347
				L11.981,20.236l-8.156-8.18L15.084,1.14C15.177,1.05,15.3,1,15.43,1h7.074c0.275,0,0.498,0.224,0.498,0.5V8.596z"/>
			<path fill="#4A4A4A" d="M15.303,6.697c-0.166-0.167-0.439-0.167-0.605,0l-6,6c-0.168,0.167-0.168,0.439,0,0.606
				C8.78,13.387,8.891,13.429,9,13.429c0.109,0,0.22-0.042,0.303-0.126l6-5.999C15.471,7.136,15.471,6.864,15.303,6.697z"/>
			<path fill="#4A4A4A" d="M17.646,7.646l-7,7c-0.195,0.195-0.195,0.512,0,0.707C10.744,15.451,10.872,15.5,11,15.5
				c0.128,0,0.256-0.049,0.354-0.147l7-7c0.195-0.195,0.195-0.512,0-0.707C18.158,7.451,17.842,7.451,17.646,7.646z"/>
		</g>
	</g>
</g>
<g id="LABELS">
</g>
</svg>
