<svg xmlns="http://www.w3.org/2000/svg" width="24" height="24" viewBox="0 0 24 24">
  <g fill="#666666" fill-rule="evenodd" transform="translate(0 7)">
    <path d="M15,8.99414 L22.995,8.99414 L22.995,1.00014 L15,1.00014 L15,8.99414 Z M23.495,9.99414 L14.5,9.99414 C14.223,9.99414 14,9.77014 14,9.49414 L14,0.50014 C14,0.22314 14.223,0.00014 14.5,0.00014 L23.495,0.00014 C23.771,0.00014 23.995,0.22314 23.995,0.50014 L23.995,9.49414 C23.995,9.77014 23.771,9.99414 23.495,9.99414 L23.495,9.99414 Z"/>
    <path d="M19.0083 6.98924C18.8983 6.98924 18.7883 6.95324 18.6973 6.88124L16.1903 4.88824C15.9733 4.71724 15.9373 4.40224 16.1093 4.18624 16.2813 3.96924 16.5953 3.93324 16.8123 4.10524L19.0073 5.84924 21.1853 4.10824C21.4013 3.93624 21.7163 3.97124 21.8883 4.18624 22.0603 4.40224 22.0253 4.71724 21.8103 4.88924L19.3203 6.88024C19.2293 6.95324 19.1183 6.98924 19.0083 6.98924M12.4971 6.00004L.5001 6.00004C.2241 6.00004.0001 5.77604.0001 5.50004.0001 5.22404.2241 5.00004.5001 5.00004L12.4971 5.00004C12.7731 5.00004 12.9971 5.22404 12.9971 5.50004 12.9971 5.77604 12.7731 6.00004 12.4971 6.00004"/>
  </g>
</svg>
