<?xml version="1.0" encoding="utf-8"?>
<!-- Generator: Adobe Illustrator 19.1.0, SVG Export Plug-In . SVG Version: 6.00 Build 0)  -->
<svg version="1.1" xmlns="http://www.w3.org/2000/svg" xmlns:xlink="http://www.w3.org/1999/xlink" x="0px" y="0px" width="24px"
	 height="24px" viewBox="0 0 24 24" enable-background="new 0 0 24 24" xml:space="preserve">
<g id="Icons">
	<g>
		<defs>
			<rect id="SVGID_63_" width="24" height="24"/>
		</defs>
		<clipPath id="SVGID_2_">
			<use xlink:href="#SVGID_63_"  overflow="visible"/>
		</clipPath>
		<path clip-path="url(#SVGID_2_)" fill="none" d="M4,22.5C4,22.775,4.225,23,4.5,23h15c0.275,0,0.5-0.225,0.5-0.5V15H4V22.5z
			 M9.5,17h5c0.276,0,0.5,0.224,0.5,0.5c0,0.276-0.224,0.5-0.5,0.5h-5C9.224,18,9,17.776,9,17.5C9,17.224,9.224,17,9.5,17z"/>
		<rect x="4" y="12" clip-path="url(#SVGID_2_)" fill="none" width="16" height="2"/>
		<path clip-path="url(#SVGID_2_)" fill="#4A4A4A" d="M20.5,11h-17C3.224,11,3,11.224,3,11.5v11C3,23.327,3.673,24,4.5,24h15
			c0.827,0,1.5-0.673,1.5-1.5v-11C21,11.224,20.776,11,20.5,11z M20,22.5c0,0.275-0.225,0.5-0.5,0.5h-15C4.225,23,4,22.775,4,22.5
			V15h16V22.5z M20,14H4v-2h16V14z"/>
		<path clip-path="url(#SVGID_2_)" fill="#4A4A4A" d="M9.5,18h5c0.276,0,0.5-0.224,0.5-0.5c0-0.276-0.224-0.5-0.5-0.5h-5
			C9.224,17,9,17.224,9,17.5C9,17.776,9.224,18,9.5,18z"/>
		<g clip-path="url(#SVGID_2_)">
			<path fill="#4A4A4A" d="M17.5,8.001h-1.596c-0.207-0.581-0.756-1-1.408-1s-1.202,0.419-1.408,1H6.504c-0.276,0-0.5,0.224-0.5,0.5
				s0.224,0.5,0.5,0.5h6.583c0.207,0.581,0.756,1,1.408,1s1.202-0.419,1.408-1H17.5c0.276,0,0.5-0.224,0.5-0.5
				S17.776,8.001,17.5,8.001z"/>
			<path fill="#4A4A4A" d="M6.502,6.001h1.579c0.207,0.581,0.756,1,1.408,1c0.652,0,1.202-0.419,1.408-1h6.6
				c0.276,0,0.5-0.224,0.5-0.5s-0.224-0.5-0.5-0.5h-6.6c-0.207-0.581-0.756-1-1.408-1c-0.652,0-1.202,0.419-1.408,1H6.502
				c-0.276,0-0.5,0.224-0.5,0.5S6.226,6.001,6.502,6.001z"/>
			<path fill="#4A4A4A" d="M6.5,3.001h6.583c0.207,0.581,0.756,1,1.408,1s1.202-0.419,1.408-1h1.596c0.276,0,0.5-0.224,0.5-0.5
				s-0.224-0.5-0.5-0.5h-1.596c-0.207-0.581-0.756-1-1.408-1s-1.202,0.419-1.408,1H6.5c-0.276,0-0.5,0.224-0.5,0.5
				S6.223,3.001,6.5,3.001z"/>
		</g>
	</g>
</g>
<g id="LABELS">
</g>
</svg>
