<?xml version="1.0" encoding="utf-8"?>
<!-- Generator: Adobe Illustrator 19.1.0, SVG Export Plug-In . SVG Version: 6.00 Build 0)  -->
<svg version="1.1" xmlns="http://www.w3.org/2000/svg" xmlns:xlink="http://www.w3.org/1999/xlink" x="0px" y="0px" width="24px"
	 height="24px" viewBox="0 0 24 24" enable-background="new 0 0 24 24" xml:space="preserve">
<g id="Icons">
	<g>
		<defs>
			<rect id="SVGID_1_" width="24" height="24"/>
		</defs>
		<clipPath id="SVGID_2_">
			<use xlink:href="#SVGID_1_"  overflow="visible"/>
		</clipPath>
		<path clip-path="url(#SVGID_2_)" fill="#4A4A4A" d="M20,5H10C9.448,5,9,4.552,9,4s0.448-1,1-1h10c0.552,0,1,0.448,1,1
			S20.552,5,20,5z"/>
		<path clip-path="url(#SVGID_2_)" fill="#4A4A4A" d="M22.5,0h-21C0.671,0,0,0.672,0,1.5v21C0,23.328,0.671,24,1.5,24h21
			c0.829,0,1.5-0.672,1.5-1.5v-21C24,0.672,23.329,0,22.5,0z M23,22.5c0,0.276-0.224,0.5-0.5,0.5h-21C1.224,23,1,22.776,1,22.5V10V9
			l0,0h22V22.5z M23,8H1V1.5C1,1.224,1.224,1,1.5,1h21C22.776,1,23,1.224,23,1.5V8z"/>
		<path clip-path="url(#SVGID_2_)" fill="#4A4A4A" d="M5.501,2.995c0.828,0,1.501,0.673,1.501,1.501S6.329,5.996,5.501,5.996
			S4,5.323,4,4.495S4.674,2.995,5.501,2.995 M5.501,1.995C4.12,1.995,3,3.114,3,4.495s1.12,2.501,2.501,2.501
			s2.501-1.12,2.501-2.501S6.882,1.995,5.501,1.995L5.501,1.995z"/>
	</g>
</g>
<g id="LABELS">
</g>
</svg>
