<svg xmlns="http://www.w3.org/2000/svg" width="24" height="24" viewBox="0 0 24 24"><title>ico_action_button_24</title><path d="M22.5,1H1.515A1.51,1.51,0,0,0,.007,2.508V9.495A1.51,1.51,0,0,0,1.515,11H22.5a1.51,1.51,0,0,0,1.508-1.508V2.508A1.51,1.51,0,0,0,22.5,1Zm.508,8.494A.508.508,0,0,1,22.5,10H1.515a.508.508,0,0,1-.508-.508V2.508A.508.508,0,0,1,1.515,2H22.5a.508.508,0,0,1,.508.508Z" fill="#666667"/><path d="M20.237,5.092l-1.226.818-1.233-.817a.5.5,0,0,0-.553.834l1.511,1a.5.5,0,0,0,.554,0l1.5-1a.5.5,0,1,0-.555-.832Z" fill="#666667"/><path d="M1.5,17h17a.5.5,0,1,0,0-1H1.5a.5.5,0,0,0,0,1Z" fill="#666667"/><path d="M20.51,19h-19a.5.5,0,1,0,0,1h19a.5.5,0,0,0,0-1Z" fill="#666667"/><path d="M9.939,5H4.073A1.035,1.035,0,0,0,3.006,6,1.035,1.035,0,0,0,4.073,7H9.939a1.035,1.035,0,0,0,1.067-1A1.035,1.035,0,0,0,9.939,5Z" fill="#666667"/><path d="M22.5,13H1.5a.5.5,0,1,0,0,1h21a.5.5,0,0,0,0-1Z" fill="#666667"/><path d="M11.511,22h-10a.5.5,0,0,0,0,1h10a.5.5,0,1,0,0-1Z" fill="#666667"/></svg>