<svg id="Layer_1" data-name="Layer 1" xmlns="http://www.w3.org/2000/svg" viewBox="0 0 24 24"><defs><style>.cls-1,.cls-4,.cls-5{fill:#fff;}.cls-2{fill:#4a4a4a;}.cls-3{fill:none;}.cls-3,.cls-4,.cls-5{stroke:#4a4a4a;stroke-miterlimit:10;}.cls-3,.cls-4{stroke-width:0.25px;}.cls-5{stroke-width:0.5px;}</style></defs><title>PlanningCalendarLegend</title><rect class="cls-1" x="0.25" y="0.25" width="23.5" height="23.5" rx="0.61" ry="0.61"/><path class="cls-2" d="M23.14.5a.36.36,0,0,1,.36.36V23.14a.36.36,0,0,1-.36.36H.86a.36.36,0,0,1-.36-.36V.86A.36.36,0,0,1,.86.5H23.14m0-.5H.86A.86.86,0,0,0,0,.86V23.14A.86.86,0,0,0,.86,24H23.14a.86.86,0,0,0,.86-.86V.86A.86.86,0,0,0,23.14,0Z"/><path class="cls-1" d="M3,6.88a1.38,1.38,0,1,1,1-.4A1.37,1.37,0,0,1,3,6.88Z"/><path class="cls-2" d="M3,4.25a1.25,1.25,0,1,1-.88.37A1.24,1.24,0,0,1,3,4.25M3,4a1.5,1.5,0,1,0,1.06.44A1.5,1.5,0,0,0,3,4Z"/><line class="cls-3" y1="2" x2="24" y2="2"/><line class="cls-3" x1="5.5" y1="24" x2="5.5"/><rect class="cls-1" x="7.13" y="4.13" width="5.75" height="2.75" rx="0.38" ry="0.38"/><path class="cls-2" d="M12.5,4.25a.25.25,0,0,1,.25.25v2a.25.25,0,0,1-.25.25h-5a.25.25,0,0,1-.25-.25v-2a.25.25,0,0,1,.25-.25h5m0-.25h-5a.5.5,0,0,0-.5.5v2a.5.5,0,0,0,.5.5h5a.5.5,0,0,0,.5-.5v-2a.5.5,0,0,0-.5-.5Z"/><path class="cls-4" d="M23.5,6.9H19a.46.46,0,0,1-.45-.47V4.57A.46.46,0,0,1,19,4.1H23.5"/><path class="cls-1" d="M3,11.88a1.38,1.38,0,1,1,1-.4A1.37,1.37,0,0,1,3,11.88Z"/><path class="cls-2" d="M3,9.25a1.25,1.25,0,1,1-.88.37A1.24,1.24,0,0,1,3,9.25M3,9a1.5,1.5,0,1,0,1.06.44A1.5,1.5,0,0,0,3,9Z"/><rect class="cls-1" x="11.13" y="9.13" width="5.75" height="2.75" rx="0.38" ry="0.38"/><path class="cls-2" d="M16.5,9.25a.25.25,0,0,1,.25.25v2a.25.25,0,0,1-.25.25h-5a.25.25,0,0,1-.25-.25v-2a.25.25,0,0,1,.25-.25h5m0-.25h-5a.5.5,0,0,0-.5.5v2a.5.5,0,0,0,.5.5h5a.5.5,0,0,0,.5-.5v-2a.5.5,0,0,0-.5-.5Z"/><rect class="cls-1" x="17.13" y="9.13" width="3.75" height="2.75" rx="0.38" ry="0.38"/><path class="cls-2" d="M20.5,9.25a.25.25,0,0,1,.25.25v2a.25.25,0,0,1-.25.25h-3a.25.25,0,0,1-.25-.25v-2a.25.25,0,0,1,.25-.25h3m0-.25h-3a.5.5,0,0,0-.5.5v2a.5.5,0,0,0,.5.5h3a.5.5,0,0,0,.5-.5v-2a.5.5,0,0,0-.5-.5Z"/><rect class="cls-1" x="9.13" y="14.13" width="3.75" height="2.75" rx="0.38" ry="0.38"/><path class="cls-2" d="M12.5,14.25a.25.25,0,0,1,.25.25v2a.25.25,0,0,1-.25.25h-3a.25.25,0,0,1-.25-.25v-2a.25.25,0,0,1,.25-.25h3m0-.25h-3a.5.5,0,0,0-.5.5v2a.5.5,0,0,0,.5.5h3a.5.5,0,0,0,.5-.5v-2a.5.5,0,0,0-.5-.5Z"/><path class="cls-1" d="M3,16.88a1.38,1.38,0,1,1,1-.4A1.37,1.37,0,0,1,3,16.88Z"/><path class="cls-2" d="M3,14.25a1.25,1.25,0,1,1-.88.37A1.24,1.24,0,0,1,3,14.25M3,14a1.5,1.5,0,1,0,1.06.44A1.5,1.5,0,0,0,3,14Z"/><rect class="cls-1" x="16.13" y="14.13" width="5.75" height="2.75" rx="0.38" ry="0.38"/><path class="cls-2" d="M21.5,14.25a.25.25,0,0,1,.25.25v2a.25.25,0,0,1-.25.25h-5a.25.25,0,0,1-.25-.25v-2a.25.25,0,0,1,.25-.25h5m0-.25h-5a.5.5,0,0,0-.5.5v2a.5.5,0,0,0,.5.5h5a.5.5,0,0,0,.5-.5v-2a.5.5,0,0,0-.5-.5Z"/><path class="cls-1" d="M3,21.88a1.38,1.38,0,1,1,1-.4A1.37,1.37,0,0,1,3,21.88Z"/><path class="cls-2" d="M3,19.25a1.25,1.25,0,1,1-.88.37A1.24,1.24,0,0,1,3,19.25M3,19a1.5,1.5,0,1,0,1.06.44A1.5,1.5,0,0,0,3,19Z"/><rect class="cls-1" x="14.13" y="19.13" width="5.75" height="2.75" rx="0.38" ry="0.38"/><path class="cls-2" d="M19.5,19.25a.25.25,0,0,1,.25.25v2a.25.25,0,0,1-.25.25h-5a.25.25,0,0,1-.25-.25v-2a.25.25,0,0,1,.25-.25h5m0-.25h-5a.5.5,0,0,0-.5.5v2a.5.5,0,0,0,.5.5h5a.5.5,0,0,0,.5-.5v-2a.5.5,0,0,0-.5-.5Z"/><rect class="cls-1" x="7.12" y="19.13" width="5.75" height="2.75" rx="0.38" ry="0.38"/><path class="cls-2" d="M12.5,19.25a.25.25,0,0,1,.25.25v2a.25.25,0,0,1-.25.25h-5a.25.25,0,0,1-.25-.25v-2a.25.25,0,0,1,.25-.25h5m0-.25h-5a.5.5,0,0,0-.5.5v2a.5.5,0,0,0,.5.5h5a.5.5,0,0,0,.5-.5v-2a.5.5,0,0,0-.5-.5Z"/><rect class="cls-1" x="17.13" y="0.83" width="0.75" height="0.75" rx="0.13" ry="0.13"/><path class="cls-2" d="M17.75,1v.5h-.5V1h.5m0-.25h-.5A.25.25,0,0,0,17,1v.5a.25.25,0,0,0,.25.25h.5A.25.25,0,0,0,18,1.45V1A.25.25,0,0,0,17.75.7Z"/><rect class="cls-1" x="12.25" y="4.25" width="10.5" height="16.5" rx="0.25" ry="0.25"/><path class="cls-2" d="M22.5,4.5v16h-10V4.5h10m0-.5h-10a.5.5,0,0,0-.5.5v16a.5.5,0,0,0,.5.5h10a.5.5,0,0,0,.5-.5V4.5a.5.5,0,0,0-.5-.5Z"/><line class="cls-3" x1="15.24" y1="7.65" x2="20.76" y2="7.65"/><line class="cls-3" x1="15.24" y1="10.65" x2="20.76" y2="10.65"/><line class="cls-3" x1="15.24" y1="12.15" x2="19.37" y2="12.15"/><line class="cls-3" x1="15.24" y1="15.65" x2="20.76" y2="15.65"/><line class="cls-3" x1="15.24" y1="17.15" x2="18.33" y2="17.15"/><line class="cls-3" x1="15.24" y1="18.65" x2="20.76" y2="18.65"/><line class="cls-3" x1="15.24" y1="14.15" x2="18.33" y2="14.15"/><rect class="cls-1" x="15.86" y="3.39" width="2.41" height="2.41" transform="translate(8.29 -10.75) rotate(45.15)"/><line class="cls-5" x1="18.81" y1="4.36" x2="17.31" y2="2.85"/><line class="cls-5" x1="15.8" y1="4.35" x2="17.49" y2="2.66"/><line class="cls-3" x1="15.24" y1="9.15" x2="18.33" y2="9.15"/><line class="cls-3" x1="15.24" y1="6.15" x2="19.37" y2="6.15"/><rect class="cls-1" x="13.83" y="5.73" width="0.75" height="0.75" rx="0.13" ry="0.13"/><path class="cls-2" d="M14.45,5.85v.5H14v-.5h.5m0-.25H14a.25.25,0,0,0-.25.25v.5A.25.25,0,0,0,14,6.6h.5a.25.25,0,0,0,.25-.25v-.5a.25.25,0,0,0-.25-.25Z"/><rect class="cls-1" x="13.83" y="7.33" width="0.75" height="0.75" rx="0.13" ry="0.13"/><path class="cls-2" d="M14.45,7.45v.5H14v-.5h.5m0-.25H14a.25.25,0,0,0-.25.25v.5A.25.25,0,0,0,14,8.2h.5a.25.25,0,0,0,.25-.25v-.5a.25.25,0,0,0-.25-.25Z"/><rect class="cls-1" x="13.83" y="8.83" width="0.75" height="0.75" rx="0.13" ry="0.13"/><path class="cls-2" d="M14.45,8.95v.5H14v-.5h.5m0-.25H14a.25.25,0,0,0-.25.25v.5A.25.25,0,0,0,14,9.7h.5a.25.25,0,0,0,.25-.25v-.5a.25.25,0,0,0-.25-.25Z"/><rect class="cls-1" x="13.83" y="10.33" width="0.75" height="0.75" rx="0.13" ry="0.13"/><path class="cls-2" d="M14.45,10.45v.5H14v-.5h.5m0-.25H14a.25.25,0,0,0-.25.25v.5a.25.25,0,0,0,.25.25h.5a.25.25,0,0,0,.25-.25v-.5a.25.25,0,0,0-.25-.25Z"/><rect class="cls-1" x="13.83" y="11.83" width="0.75" height="0.75" rx="0.13" ry="0.13"/><path class="cls-2" d="M14.45,11.95v.5H14v-.5h.5m0-.25H14a.25.25,0,0,0-.25.25v.5a.25.25,0,0,0,.25.25h.5a.25.25,0,0,0,.25-.25v-.5a.25.25,0,0,0-.25-.25Z"/><rect class="cls-1" x="13.83" y="13.83" width="0.75" height="0.75" rx="0.13" ry="0.13"/><path class="cls-2" d="M14.45,13.95v.5H14v-.5h.5m0-.25H14a.25.25,0,0,0-.25.25v.5a.25.25,0,0,0,.25.25h.5a.25.25,0,0,0,.25-.25v-.5a.25.25,0,0,0-.25-.25Z"/><rect class="cls-1" x="13.83" y="15.33" width="0.75" height="0.75" rx="0.13" ry="0.13"/><path class="cls-2" d="M14.45,15.45V16H14v-.5h.5m0-.25H14a.25.25,0,0,0-.25.25V16a.25.25,0,0,0,.25.25h.5A.25.25,0,0,0,14.7,16v-.5a.25.25,0,0,0-.25-.25Z"/><rect class="cls-1" x="13.83" y="16.83" width="0.75" height="0.75" rx="0.13" ry="0.13"/><path class="cls-2" d="M14.45,17v.5H14V17h.5m0-.25H14a.25.25,0,0,0-.25.25v.5a.25.25,0,0,0,.25.25h.5a.25.25,0,0,0,.25-.25V17a.25.25,0,0,0-.25-.25Z"/><rect class="cls-1" x="13.83" y="18.28" width="0.75" height="0.75" rx="0.13" ry="0.13"/><path class="cls-2" d="M14.45,18.4v.5H14v-.5h.5m0-.25H14a.25.25,0,0,0-.25.25v.5a.25.25,0,0,0,.25.25h.5a.25.25,0,0,0,.25-.25v-.5a.25.25,0,0,0-.25-.25Z"/><line class="cls-5" x1="16.07" y1="4.25" x2="13.93" y2="4.25"/></svg>