<?xml version="1.0" encoding="utf-8"?>
<!-- Generator: Adobe Illustrator 19.1.0, SVG Export Plug-In . SVG Version: 6.00 Build 0)  -->
<svg version="1.1" xmlns="http://www.w3.org/2000/svg" xmlns:xlink="http://www.w3.org/1999/xlink" x="0px" y="0px" width="24px"
	 height="24px" viewBox="0 0 24 24" enable-background="new 0 0 24 24" xml:space="preserve">
<g id="Icons">
	<g>
		<defs>
			<rect id="SVGID_161_" x="0" y="0" width="24" height="24"/>
		</defs>
		<clipPath id="SVGID_2_">
			<use xlink:href="#SVGID_161_"  overflow="visible"/>
		</clipPath>
		<g clip-path="url(#SVGID_2_)">
			<path fill="none" d="M21.5,6H15c-0.132,0-0.259-0.052-0.353-0.146l-2.658-2.647L9.354,5.853C9.261,5.947,9.133,6,9,6H2.5
				C2.224,6,2,6.224,2,6.5v14C2,20.775,2.224,21,2.5,21h19c0.276,0,0.5-0.225,0.5-0.5v-14C22,6.224,21.776,6,21.5,6z"/>
			<path fill="#4A4A4A" d="M21.5,5h-6.294L12.34,2.146C12.246,2.052,12.119,2,11.987,2h-0.001c-0.133,0-0.26,0.053-0.354,0.147
				L8.792,5H2.5C1.672,5,1,5.671,1,6.5v14C1,21.328,1.672,22,2.5,22h19c0.828,0,1.5-0.672,1.5-1.5v-14C23,5.671,22.328,5,21.5,5z
				 M22,20.5c0,0.275-0.224,0.5-0.5,0.5h-19C2.224,21,2,20.775,2,20.5v-14C2,6.224,2.224,6,2.5,6H9c0.133,0,0.261-0.053,0.354-0.147
				l2.635-2.646l2.658,2.647C14.741,5.948,14.868,6,15,6h6.5C21.776,6,22,6.224,22,6.5V20.5z"/>
		</g>
		<rect clip-path="url(#SVGID_2_)" fill="none" width="24" height="24"/>
	</g>
</g>
<g id="LABELS">
</g>
</svg>
