<svg id="Layer_1" data-name="Layer 1" xmlns="http://www.w3.org/2000/svg" viewBox="0 0 24 24"><defs><style>.cls-1,.cls-3{fill:#fff;}.cls-2{fill:#4a4a4a;}.cls-3,.cls-4{stroke:#4a4a4a;stroke-miterlimit:10;}.cls-3{stroke-width:0.5px;}.cls-4{fill:none;stroke-width:0.25px;}</style></defs><title>QuickView</title><rect class="cls-1" x="11" y="6.29" width="2.41" height="2.41" transform="translate(-1.73 10.83) rotate(-45)"/><path class="cls-2" d="M9.69,6.25a.06.06,0,0,1,.06.06V8.69a.06.06,0,0,1-.06.06H1.31a.06.06,0,0,1-.06-.06V6.31a.06.06,0,0,1,.06-.06H9.69m0-.25H1.31A.31.31,0,0,0,1,6.31V8.69A.31.31,0,0,0,1.31,9H9.69A.31.31,0,0,0,10,8.69V6.31A.31.31,0,0,0,9.69,6Z"/><path class="cls-3" d="M12,6V3.81a.35.35,0,0,1,.38-.31H22.62a.35.35,0,0,1,.38.31v16.7a.35.35,0,0,1-.38.31H12.35a.35.35,0,0,1-.38-.31V8.6"/><line class="cls-4" x1="17" y1="5.5" x2="20.38" y2="5.5"/><line class="cls-4" x1="17" y1="7" x2="21.53" y2="7"/><line class="cls-4" x1="13.5" y1="10" x2="21.53" y2="10"/><line class="cls-4" x1="13.5" y1="11.5" x2="19.5" y2="11.5"/><line class="cls-4" x1="13.5" y1="15" x2="21.53" y2="15"/><line class="cls-4" x1="13.5" y1="17.5" x2="18" y2="17.5"/><line class="cls-4" x1="13.5" y1="19" x2="21.53" y2="19"/><path class="cls-2" d="M15.75,5.25v2h-2v-2h2M16,5H13.5V7.5H16V5Z"/><line class="cls-4" x1="13.5" y1="13.5" x2="18" y2="13.5"/><line class="cls-3" x1="11.96" y1="5.76" x2="10.46" y2="7.27"/><line class="cls-3" x1="11.96" y1="8.77" x2="10.27" y2="7.08"/></svg>