<svg xmlns="http://www.w3.org/2000/svg" width="24" height="24" viewBox="0 0 24 24"><title>ico_action_button_24</title><path d="M3.5,0A3.5,3.5,0,1,0,7,3.5,3.5,3.5,0,0,0,3.5,0Zm0,6A2.5,2.5,0,1,1,6,3.5,2.5,2.5,0,0,1,3.5,6Z" fill="#666667"/><circle cx="3.503" cy="11.504" r="1.5" fill="#666667"/><path d="M3.5,8A3.5,3.5,0,1,0,7,11.5,3.5,3.5,0,0,0,3.5,8Zm0,6A2.5,2.5,0,1,1,6,11.5,2.5,2.5,0,0,1,3.5,14Z" fill="#666667"/><path d="M3.5,16A3.5,3.5,0,1,0,7,19.5,3.5,3.5,0,0,0,3.5,16Zm0,6A2.5,2.5,0,1,1,6,19.5,2.5,2.5,0,0,1,3.5,22Z" fill="#666667"/><path d="M10,4.006H23a1,1,0,0,0,0-2H10a1,1,0,0,0,0,2Z" fill="#666667"/><path d="M23,10.006H10a1,1,0,0,0,0,2H23a1,1,0,0,0,0-2Z" fill="#666667"/><path d="M23,18.006H10a1,1,0,0,0,0,2H23a1,1,0,0,0,0-2Z" fill="#666667"/></svg>