<?xml version="1.0" encoding="utf-8"?>
<!-- Generator: Adobe Illustrator 19.1.0, SVG Export Plug-In . SVG Version: 6.00 Build 0)  -->
<svg version="1.1" xmlns="http://www.w3.org/2000/svg" xmlns:xlink="http://www.w3.org/1999/xlink" x="0px" y="0px" width="24px"
	 height="24px" viewBox="0 0 24 24" enable-background="new 0 0 24 24" xml:space="preserve">
<g id="Icons">
	<g>
		<defs>
			<rect id="SVGID_43_" width="23.992" height="24"/>
		</defs>
		<clipPath id="SVGID_2_">
			<use xlink:href="#SVGID_43_"  overflow="visible"/>
		</clipPath>
		<g clip-path="url(#SVGID_2_)">
			<path fill="#4B4A4B" d="M12.001,4.007c0.048,0,0.097,0.037,0.134,0.111l2.557,5.142c0.073,0.148,0.267,0.288,0.43,0.311
				l5.721,0.825c0.163,0.024,0.2,0.137,0.081,0.251l-4.138,4.004c-0.118,0.115-0.193,0.342-0.165,0.504l0.977,5.651
				c0.02,0.118-0.025,0.188-0.107,0.188c-0.031,0-0.067-0.01-0.107-0.031l-5.116-2.67c-0.073-0.038-0.17-0.057-0.266-0.057
				s-0.193,0.019-0.266,0.057l-5.116,2.67c-0.04,0.021-0.076,0.031-0.107,0.031c-0.083,0-0.128-0.07-0.107-0.188l0.977-5.651
				c0.028-0.163-0.046-0.389-0.165-0.504l-4.138-4.004c-0.119-0.115-0.082-0.228,0.081-0.251L8.88,9.571
				c0.163-0.024,0.357-0.164,0.43-0.311l2.557-5.142C11.904,4.044,11.953,4.007,12.001,4.007 M12.001,3.007
				c-0.431,0-0.826,0.255-1.03,0.667l-2.457,4.94L3.016,9.407C2.56,9.472,2.194,9.769,2.061,10.18
				c-0.133,0.411-0.01,0.866,0.322,1.186l3.973,3.844l-0.938,5.426c-0.062,0.361,0.025,0.704,0.246,0.967
				c0.209,0.249,0.518,0.391,0.847,0.391c0.195,0,0.387-0.049,0.57-0.144l4.92-2.567l4.919,2.567
				c0.183,0.096,0.375,0.144,0.57,0.144c0.329,0,0.638-0.143,0.847-0.391c0.221-0.262,0.308-0.605,0.246-0.967l-0.938-5.426
				l3.974-3.845c0.331-0.32,0.454-0.775,0.321-1.186c-0.133-0.411-0.499-0.708-0.955-0.774l-5.499-0.793L13.03,3.672
				C12.826,3.262,12.432,3.007,12.001,3.007L12.001,3.007z"/>
		</g>
	</g>
</g>
<g id="LABELS">
</g>
</svg>
