<svg xmlns="http://www.w3.org/2000/svg" width="24" height="24" viewBox="0 0 24 24"><title>ico_select_24</title><path d="M23.5,1H.5a.5.5,0,0,0-.5.5V8.5A.5.5,0,0,0,.5,9H23.5a.5.5,0,0,0,.5-.5V1.5A.5.5,0,0,0,23.5,1ZM23,8H1V2H23Z" fill="#666"/><path d="M4,6h9.021a1,1,0,0,0,0-2H4A1,1,0,1,0,4,6Z" fill="#666"/><path d="M16.289,4.953l1.989,1.018a.5.5,0,0,0,.454,0l2-1.009a.5.5,0,1,0-.451-.893l-1.771.895-1.764-.9a.5.5,0,1,0-.455.891Z" fill="#666"/><path d="M19.5,11H4.492a.5.5,0,0,0,0,1H19.5a.5.5,0,0,0,0-1Z" fill="#666"/><path d="M20,16.5a.5.5,0,0,0-.5-.5H4.488a.5.5,0,0,0,0,1H19.5A.5.5,0,0,0,20,16.5Z" fill="#666"/><path d="M19.5,21H4.5a.5.5,0,1,0,0,1h15a.5.5,0,0,0,0-1Z" fill="#666"/><path d="M3.5,13.993h-1a.5.5,0,0,0-.5.5v1.014a.5.5,0,1,0,1,0v-.514h.5a.5.5,0,0,0,0-1Z" fill="#666"/><path d="M21.5,14h-1a.5.5,0,0,0,0,1H21v.514a.5.5,0,0,0,1,0V14.5A.5.5,0,0,0,21.5,14Z" fill="#666"/><path d="M3.5,18H3v-.514a.5.5,0,0,0-1,0V18.5a.5.5,0,0,0,.5.5h1a.5.5,0,0,0,0-1Z" fill="#666"/><path d="M21.5,16.98a.5.5,0,0,0-.5.5v.514h-.5a.5.5,0,0,0,0,1h1a.5.5,0,0,0,.5-.5V17.48A.5.5,0,0,0,21.5,16.98Z" fill="#666"/><path d="M6.5,15a.5.5,0,0,0,0-1H5.5a.5.5,0,1,0,0,1Z" fill="#666"/><path d="M9.5,15a.5.5,0,1,0,0-1H8.509a.5.5,0,0,0,0,1Z" fill="#666"/><path d="M12.5,15a.5.5,0,0,0,0-1h-.992a.5.5,0,0,0,0,1Z" fill="#666"/><path d="M15.5,15a.5.5,0,0,0,0-1h-.992a.5.5,0,0,0,0,1Z" fill="#666"/><path d="M18.5,15a.5.5,0,0,0,0-1h-.992a.5.5,0,0,0,0,1Z" fill="#666"/><path d="M5.5,18a.5.5,0,0,0,0,1H6.5a.5.5,0,0,0,0-1Z" fill="#666"/><path d="M8.507,18a.5.5,0,0,0,0,1H9.5a.5.5,0,1,0,0-1Z" fill="#666"/><path d="M11.5,18a.5.5,0,0,0,0,1H12.5a.5.5,0,0,0,0-1Z" fill="#666"/><path d="M14.5,18a.5.5,0,0,0,0,1H15.5a.5.5,0,1,0,0-1Z" fill="#666"/><path d="M17.506,18a.5.5,0,0,0,0,1H18.5a.5.5,0,0,0,0-1Z" fill="#666"/></svg>