<?xml version="1.0" encoding="utf-8"?>
<!-- Generator: Adobe Illustrator 19.1.0, SVG Export Plug-In . SVG Version: 6.00 Build 0)  -->
<svg version="1.1" xmlns="http://www.w3.org/2000/svg" xmlns:xlink="http://www.w3.org/1999/xlink" x="0px" y="0px" width="24px"
	 height="24px" viewBox="0 0 24 24" enable-background="new 0 0 24 24" xml:space="preserve">
<g id="Icons">
	<g>
		<defs>
			<rect id="SVGID_45_" x="0.01" y="0" width="23.99" height="24"/>
		</defs>
		<clipPath id="SVGID_2_">
			<use xlink:href="#SVGID_45_"  overflow="visible"/>
		</clipPath>
		<path clip-path="url(#SVGID_2_)" fill="#4B4A4B" d="M22.023,10h-4.765c-1.147,0-2.957-0.002-5.808-0.011
			c-0.694-1.182-1.963-1.984-3.433-1.984c-1.47,0-2.74,0.803-3.434,1.986c-0.205,0.006-0.519,0.014-0.911,0.007
			C3.091,9.991,2.78,9.998,2.502,10.005c-0.159,0.004-0.308,0.008-0.492,0.008c-1.103,0-2,0.897-2,2s0.897,1.999,2.003,1.999
			l2.545-0.015c0.007,0,0.012-0.004,0.019-0.004c0.691,1.191,1.966,2.001,3.442,2.001c1.481,0,2.759-0.816,3.448-2.013
			c0.024,0.004,0.046,0.014,0.071,0.014l10.485,0.004c0.514,0,1.003-0.196,1.378-0.553c0.396-0.377,0.622-0.904,0.622-1.446
			C24.023,10.897,23.126,10,22.023,10z M8.019,14.994c-1.651,0-2.994-1.343-2.994-2.994c0-1.651,1.343-2.994,2.994-2.994
			c1.651,0,2.994,1.343,2.994,2.994C11.012,13.651,9.669,14.994,8.019,14.994z M22.713,12.722c-0.188,0.179-0.434,0.277-0.689,0.277
			l-10.151-0.004c0.083-0.32,0.14-0.65,0.14-0.995c0-0.351-0.06-0.685-0.145-1.009C14.474,10.999,16.171,11,17.259,11h4.765
			c0.552,0,1,0.448,1,1C23.023,12.274,22.913,12.531,22.713,12.722z"/>
	</g>
</g>
<g id="LABELS">
</g>
</svg>
