<svg xmlns="http://www.w3.org/2000/svg" xmlns:xlink="http://www.w3.org/1999/xlink" width="128" height="128" viewBox="0 0 128 128" id="sapIllus-Spot-NoNotifications">
    <path class="sapIllus_BackgroundColor" d="M64.4951,22.9964a5.5008,5.5008,0,1,0,5.5018,5.501A5.508,5.508,0,0,0,64.4951,22.9964Z"/>
    <path class="sapIllus_StrokeDetailColor" d="M64.4951,21.9991a6.5,6.5,0,1,0,6.4948,6.5A6.5049,6.5049,0,0,0,64.4951,21.9991Zm0,11.9988a5.5008,5.5008,0,1,1,5.5018-5.5005A5.5079,5.5079,0,0,1,64.4951,33.9979Z"/>
    <path class="sapIllus_ObjectFillColor" d="M98.0314,89.0074q-1.0175-.015-2.0347-.03l.0039-22.0852a30.369,30.369,0,0,0-9.25-21.8142A31.5652,31.5652,0,0,0,63.7339,36.01c-16.9627.3919-30.7621,14.889-30.7621,32.3165l-.0024,20.6582H30.9838a3.2357,3.2357,0,0,0-1.9519.7709A2.9042,2.9042,0,0,0,28.1,91.2008a2.9872,2.9872,0,0,0-.01,1.4138,3.1331,3.1331,0,0,0,.9473,1.5986,3.616,3.616,0,0,0,2.3437.7887c1.964.0524,29.1258.0629,66.3332,0a2.9786,2.9786,0,0,0,1.8121-.4137,3.1672,3.1672,0,0,0,.73-.6567,3.3339,3.3339,0,0,0,.62-1.0459,3.0031,3.0031,0,0,0-.07-2.0991A3.3325,3.3325,0,0,0,98.0314,89.0074Z"/>
    <path class="sapIllus_StrokeDetailColor" d="M101.881,91.1141a3.7926,3.7926,0,0,0-.84-1.76,4.5816,4.5816,0,0,0-3.0457-1.3216,6.2992,6.2992,0,0,0-.9908-.0432l-.0016-21.0977A31.3611,31.3611,0,0,0,87.45,44.36,32.5472,32.5472,0,0,0,63.712,35.0079c-17.5012.4045-31.74,15.3513-31.74,33.3186q.003,9.8379.0061,19.6758l-1.4379.0022a4.2537,4.2537,0,0,0-1.4931.468,3.783,3.783,0,0,0-1.0847.83,3.9159,3.9159,0,0,0-.8548,1.6584,4.2026,4.2026,0,0,0,.0273,2.0012A4.0945,4.0945,0,0,0,28.3231,94.99a4.1942,4.1942,0,0,0,3.0555,1.0137h20.78a12.4626,12.4626,0,0,0,24.6234,0H97.7207a4.4238,4.4238,0,0,0,2.11-.4915,4.1388,4.1388,0,0,0,.9242-.6567,4.0335,4.0335,0,0,0,1.09-1.7752A3.9376,3.9376,0,0,0,101.881,91.1141Zm-2.3543,3.4741a2.9786,2.9786,0,0,1-1.8121.4137c-37.2074.0629-64.3692.0524-66.3332,0a3.616,3.616,0,0,1-2.3437-.7887,3.1331,3.1331,0,0,1-.9473-1.5986,2.9872,2.9872,0,0,1,.01-1.4138,2.9042,2.9042,0,0,1,.9319-1.4452,3.2357,3.2357,0,0,1,1.9519-.7709h1.9856l.0024-20.6582c0-17.4275,13.7994-31.9246,30.7621-32.3165A31.5652,31.5652,0,0,1,86.75,45.0777a30.369,30.369,0,0,1,9.25,21.8142l-.0039,22.0852q1.0174.015,2.0347.03a3.3325,3.3325,0,0,1,2.7752,1.7791,3.0031,3.0031,0,0,1,.07,2.0991,3.3339,3.3339,0,0,1-.62,1.0459A3.1672,3.1672,0,0,1,99.5267,94.5882ZM64.47,105.4751A11.43,11.43,0,0,1,53.2328,96.004h1.3984l2.4428.41L71.19,98.7851l3.3839.5684A11.4184,11.4184,0,0,1,64.47,105.4751Z"/>
    <path class="sapIllus_BrandColorSecondary" d="M87.975,65.9348V86.0079a3.0114,3.0114,0,0,1-3.0372,2.9849H44.0417a3.0114,3.0114,0,0,1-3.0372-2.9849V65.9348a22.1792,22.1792,0,0,1,22.3038-21.92h2.3628A22.1793,22.1793,0,0,1,87.975,65.9348Z"/>
    <path class="sapIllus_PatternShadow" d="M77.8309,47.59C80.2737,49.1627,75.0093,56.16,74,57.6539A128.067,128.067,0,0,1,43.7827,88.881v.1118H84.9378a3.0114,3.0114,0,0,0,3.0372-2.9849V65.9348A21.8547,21.8547,0,0,0,77.8309,47.59Z"/>
    <path class="sapIllus_BrandColorSecondary" d="M64.4994,102.99A7.6857,7.6857,0,0,0,71.19,98.7851L57.074,96.4143A7.8639,7.8639,0,0,0,64.4994,102.99Z"/>
    <path class="sapIllus_ObjectFillColor" d="M64.4994,102.99a7.8639,7.8639,0,0,1-7.4254-6.5754l-2.4428-.41H53.2328a11.4009,11.4009,0,0,0,21.3413,3.3495L71.19,98.7851A7.6857,7.6857,0,0,1,64.4994,102.99Z"/>
</svg>