<svg width="45" height="45" viewBox="0 0 45 45" fill="none" xmlns="http://www.w3.org/2000/svg" id="sapIllus-Dot-AddDimensions">
<path d="M35.9579 38.0599L25.0386 34.9187C25.0123 34.9088 24.986 34.9039 24.9597 34.9113L0.728496 37.6866C-0.0438478 37.7957 -0.116633 38.0608 0.1179 38.1996L11.0595 41.4547C11.5346 41.653 12.0401 41.7 12.5334 41.591L35.2705 38.5034C35.9842 38.387 36.1278 38.1268 35.9579 38.0599Z" fill="var(--sapContent_Illustrative_Color21)"/>
<path d="M30.5515 13.1919L38.1128 34.9098C38.274 35.739 37.3968 36.3725 36.8804 36.4166L13.2271 39.772C12.824 39.8066 12.4555 39.5398 12.3633 39.1443L6.75043 15.6259C6.55079 14.6585 7.3551 13.499 7.8638 13.476L29.7337 12.6122C30.1061 12.5949 30.444 12.833 30.5515 13.1919Z" fill="var(--sapContent_Illustrative_Color14)"/>
<path d="M31.1736 12.5283L38.0784 34.7222C38.2281 35.2194 37.8845 35.7281 37.3662 35.7722L13.8492 39.1084C13.4461 39.143 13.0776 38.8762 12.9854 38.4807L7.25734 14.4767C7.14024 13.9795 7.50497 13.4996 8.01558 13.4747L30.3558 11.9467C30.7282 11.9294 31.0661 12.1674 31.1736 12.5264V12.5283Z" fill="var(--sapContent_Illustrative_Color2)"/>
<path d="M21.6885 16.5421C21.7088 16.6154 21.6559 16.6887 21.5805 16.6928L13.9302 17.0982C13.8915 17.1003 13.8772 17.1492 13.9098 17.1716L32.4415 30.6381C32.4741 30.6605 32.5149 30.63 32.5047 30.5933L30.5715 24.2832C30.5491 24.2119 30.598 24.1366 30.6733 24.1284L32.3698 24.0449C32.4268 24.0388 32.4798 24.0734 32.4981 24.1284L35.3503 33.5383C35.3727 33.6096 35.3259 33.6829 35.2505 33.6931L24.1032 34.9062C24.0441 34.9144 23.9891 34.8777 23.9728 34.8207L23.4523 33.0462C23.432 32.9749 23.4788 32.9036 23.5521 32.8934L30.9205 32.2595C30.9571 32.2554 30.9694 32.2065 30.9388 32.1862L12.9266 19.1059C12.8961 19.0835 12.8554 19.112 12.8635 19.1487L14.6211 26.3018C14.6395 26.3731 14.5886 26.4444 14.5152 26.4505L12.7913 26.6236C12.7322 26.6277 12.6793 26.589 12.665 26.532L9.95287 15.6143C9.93453 15.541 9.98749 15.4697 10.0629 15.4657L21.0883 14.6741C21.1453 14.67 21.1963 14.7087 21.2105 14.7637L21.6885 16.5421Z" fill="var(--sapContent_Illustrative_Color22)"/>
<path d="M43.762 19.1485C43.762 19.1485 41.3867 22.3757 36.7734 22.9751C32.1602 23.5744 25.832 20.1597 24.1787 14.9063C22.3819 9.19703 25.6691 5.28454 31.286 4.06708C36.4283 3.65707 43.762 19.1485 43.762 19.1485Z" fill="var(--sapContent_Illustrative_Color16)"/>
<path d="M44.3857 11.9419C46.2955 16.9413 43.6185 21.6392 38.2302 22.2926C32.7096 22.9618 26.7525 19.121 25.0992 13.865C23.5015 8.78886 26.6017 4.45339 31.8604 4.0328C37.0028 3.6228 42.5393 7.10123 44.3883 11.9393L44.3857 11.9419Z" fill="var(--sapContent_Illustrative_Color15)"/>
<path d="M40.1571 11.5896C40.1094 11.4628 39.9822 11.3839 39.8474 11.3978L35.9363 11.7988C35.8003 11.8127 35.6722 11.7324 35.6255 11.6038L34.367 8.13406C34.3208 8.00672 34.1946 7.92649 34.0597 7.93873L31.9958 8.12586C31.8019 8.14344 31.6765 8.33916 31.7417 8.52268L32.8839 11.7397C32.9486 11.9219 32.8256 12.1165 32.6333 12.1362L28.8349 12.5259C28.644 12.5454 28.521 12.7376 28.5831 12.9191L29.2231 14.7895C29.2682 14.9216 29.399 15.0046 29.5378 14.9894L33.6358 14.5398C33.7733 14.5248 33.9031 14.6062 33.9494 14.7365L35.2368 18.36C35.2835 18.4915 35.4152 18.5731 35.5538 18.5562L37.666 18.2998C37.8565 18.2767 37.9759 18.0824 37.9104 17.902L36.7031 14.5753C36.6372 14.3936 36.7589 14.1981 36.951 14.1771L40.5817 13.7796C40.7752 13.7584 40.8969 13.5606 40.8285 13.3783L40.1571 11.5896Z" fill="var(--sapContent_Illustrative_Color8)"/>
</svg>
