<svg width="320" height="240" viewBox="0 0 320 240" fill="none" xmlns="http://www.w3.org/2000/svg" id="sapIllus-Scene-UnableToLoad">
<rect y="59" width="320" height="138" rx="24" fill="var(--sapContent_Illustrative_Color20)"/>
<g clip-path="url(#clip0_6879_7409)">
<path d="M164.192 184.542L170.474 184.985L254.652 148.841L173.978 114.248L60.3305 133.995C57.5367 134.549 54.806 135.529 59.6518 137.821L159.598 183.356C161.445 184.194 162.187 184.384 164.192 184.542Z" fill="var(--sapContent_Illustrative_Color21)"/>
<path d="M101.165 150.691L101.259 153.964C101.259 154.106 101.354 154.249 101.496 154.312L165.486 183.925C165.486 183.925 170.584 186.313 175.588 183.925C182.644 180.558 267.769 144.241 267.769 144.241C267.769 144.241 268.937 143.877 268.968 142.596C269 141.316 268.968 139.972 268.968 139.972L101.149 150.691H101.165Z" fill="var(--sapContent_Illustrative_Color29)"/>
<path d="M114.613 145.948L114.313 146.043L113.492 146.28L112.261 146.644L110.746 147.086L109.041 147.592L107.289 148.098L105.584 148.604C105.079 148.747 101.496 149.932 101.496 149.932C101.133 150.106 101.133 150.976 101.244 151.292C101.323 151.498 101.465 151.671 101.67 151.766C102.522 152.209 168.343 180.842 168.343 180.842C168.343 180.842 171.91 182.518 177.135 179.909C181.349 177.807 220.479 161.379 220.479 161.379L267.674 141.553C267.674 141.553 271.889 139.466 264.88 138.47L204.016 122.928C204.016 122.928 201.206 121.947 197.086 122.833C192.982 123.718 114.629 145.948 114.629 145.948H114.597H114.613Z" fill="var(--sapContent_Illustrative_Color9)"/>
<path d="M139.095 144.572C139.773 142.959 140.894 140.509 142.33 138.105C127.083 142.422 114.597 145.948 114.597 145.948C114.503 145.979 114.392 146.011 114.297 146.042C114.029 146.122 113.745 146.201 113.477 146.28C113.066 146.406 112.656 146.517 112.245 146.643C111.74 146.786 111.219 146.944 110.73 147.086L109.025 147.592C108.441 147.766 107.857 147.924 107.273 148.098C106.705 148.256 106.137 148.43 105.569 148.604C105.064 148.746 101.48 149.932 101.48 149.932C101.117 150.106 101.117 150.975 101.228 151.292C101.307 151.497 101.449 151.671 101.654 151.766C102.096 152.003 120.785 160.161 138.274 167.766C136.38 160.067 136.032 151.908 139.126 144.572H139.095Z" fill="var(--sapContent_Illustrative_Color17)"/>
<path d="M101.307 151.07L198.57 122.927C198.57 122.927 199.549 123.006 199.28 119.654C199.012 116.303 190.567 47.3995 190.567 47.3995C190.567 47.3995 190.204 44.0476 186.337 44.0002C182.47 43.9685 90.1155 48.9331 90.1155 48.9331C90.1155 48.9331 85.0803 49.3758 85.6643 54.9886C86.2326 60.6014 98.2603 146.343 98.2603 146.343C98.2603 146.343 99.2862 151.007 101.307 151.055V151.07Z" fill="var(--sapContent_Illustrative_Color9)"/>
<path d="M155.242 129.852C142.362 129.062 129.198 126.516 117.849 120.065C106.547 113.662 102.917 102.768 98.7497 90.4676C95.2456 80.1906 92.2466 66.6882 92.878 59.7315C93.7461 55.9369 94.9141 52.2372 96.2085 48.585C92.3571 48.7905 90.0999 48.917 90.0999 48.917C90.0999 48.917 85.0647 49.3597 85.6487 54.9725C86.2169 60.5853 98.2446 146.327 98.2446 146.327C98.2446 146.327 98.6708 151.023 101.291 151.038L175.051 129.694C168.454 130.137 161.824 130.216 155.21 129.82V129.852H155.242Z" fill="var(--sapContent_Illustrative_Color17)"/>
<path d="M90.0684 55.178L102.238 139.987L195.887 116.081L188.121 48.7114L90.0684 55.178Z" fill="var(--sapContent_Illustrative_Color8)"/>
<path d="M207.835 161.19L235.379 149.79C236.168 149.458 235.995 148.035 235.127 147.845L217.906 144.146C217.227 144.003 216.564 144.051 215.949 144.256L182.596 155.925C182.344 156.02 182.407 156.478 182.707 156.541L197.655 161.411C201.159 162.549 204.71 162.47 207.835 161.174V161.206V161.19Z" fill="var(--sapContent_Illustrative_Color27)"/>
<path d="M182.596 156.32C182.296 156.225 182.218 155.75 182.47 155.64L215.57 144.272C216.406 143.987 217.29 143.94 218.19 144.129L235.064 147.813C235.285 147.861 235.537 147.987 235.711 148.256C235.837 148.446 235.9 148.667 235.9 148.888V148.952L217.985 144.778C217.227 144.635 216.454 144.699 215.744 144.936L182.596 156.304V156.272V156.32Z" fill="var(--sapContent_Illustrative_Color17)"/>
<path d="M207.788 140.809L212.602 142.042C212.823 142.106 212.887 142.485 212.681 142.548L208.199 143.94H208.104L203.1 142.659C202.879 142.596 202.8 142.216 203.021 142.153L207.694 140.825H207.788V140.809Z" fill="var(--sapContent_Illustrative_Color17)"/>
<path d="M216.138 138.438L220.747 139.528C220.984 139.592 221.031 139.971 220.826 140.034L215.238 141.774H215.144L210.456 140.588C210.235 140.525 210.172 140.145 210.377 140.082L216.075 138.453H216.17L216.138 138.438Z" fill="var(--sapContent_Illustrative_Color17)"/>
<path d="M162.787 153.679L169.227 155.656C169.401 155.703 169.448 155.972 169.306 156.003L163.671 157.743H163.576L157.152 155.64C156.994 155.592 156.931 155.308 157.057 155.292L162.692 153.679H162.787Z" fill="var(--sapContent_Illustrative_Color17)"/>
<path d="M205.61 144.224L200.48 142.912H200.385L195.539 144.303L164.886 153.063C164.697 153.11 164.776 153.442 164.981 153.505L171.168 155.403H171.263L201.964 145.885L205.673 144.73C205.878 144.667 205.815 144.288 205.594 144.224H205.61Z" fill="var(--sapContent_Illustrative_Color17)"/>
<path d="M133.128 153.457L129.324 154.548H129.198L125.757 153.442C125.473 153.347 125.362 152.936 125.583 152.857L129.482 151.718H129.608L132.954 152.857C133.223 152.951 133.349 153.363 133.112 153.442L133.128 153.457Z" fill="var(--sapContent_Illustrative_Color17)"/>
<path d="M145.566 157.664L142.125 158.66H141.999L137.974 157.379C137.69 157.284 137.595 156.873 137.816 156.81L141.383 155.782H141.525L145.44 157.11C145.708 157.205 145.819 157.616 145.582 157.68H145.55V157.648L145.566 157.664Z" fill="var(--sapContent_Illustrative_Color17)"/>
<path d="M139.142 155.481L135.512 156.525H135.385L131.771 155.371C131.487 155.276 131.376 154.865 131.613 154.786L135.354 153.71H135.48L138.984 154.912C139.252 155.007 139.363 155.418 139.142 155.497V155.481Z" fill="var(--sapContent_Illustrative_Color17)"/>
<path d="M155.226 155.845L161.461 157.884C161.714 157.979 161.777 158.327 161.572 158.39L156.489 159.956H156.363L150.049 157.805C149.797 157.711 149.718 157.363 149.923 157.299L155.084 155.829H155.211L155.226 155.845Z" fill="var(--sapContent_Illustrative_Color17)"/>
<path d="M224.567 136.002L230.076 137.157L223.415 139.228L217.874 137.916L224.567 136.002Z" fill="var(--sapContent_Illustrative_Color17)"/>
<path d="M150.286 144.715L147.239 143.861C147.002 143.782 146.908 143.419 147.113 143.371L151.785 142.075H151.88L154.879 142.881C155.116 142.944 155.21 143.324 154.989 143.371L150.364 144.699H150.27H150.301L150.286 144.715Z" fill="var(--sapContent_Illustrative_Color17)"/>
<path d="M143.151 146.769L140.231 145.868C139.963 145.773 139.852 145.346 140.089 145.299L144.651 144.034H144.761L147.681 144.872C147.949 144.951 148.076 145.394 147.823 145.441L143.246 146.769H143.119H143.151Z" fill="var(--sapContent_Illustrative_Color17)"/>
<path d="M142.314 150.754L138.842 149.599C138.574 149.505 138.463 149.093 138.7 149.03L143.277 147.702H143.404L147.034 148.809C147.302 148.904 147.413 149.315 147.176 149.378L142.457 150.738H142.314V150.754Z" fill="var(--sapContent_Illustrative_Color17)"/>
<path d="M157.373 142.644L154.453 141.853C154.216 141.79 154.121 141.41 154.342 141.347L158.967 140.066H159.062L161.871 140.825C162.108 140.889 162.187 141.268 161.982 141.331L157.468 142.628H157.373V142.644Z" fill="var(--sapContent_Illustrative_Color17)"/>
<path d="M123.121 152.604L119.791 151.529C119.522 151.434 119.396 151.023 119.617 150.975L123.816 149.805H123.958L127.114 150.88C127.383 150.975 127.493 151.386 127.272 151.449L123.263 152.619H123.137L123.121 152.604Z" fill="var(--sapContent_Illustrative_Color17)"/>
<path d="M164.381 140.619L161.351 139.797C161.193 139.75 161.114 139.481 161.272 139.433L166.197 138.074H166.26L169.227 138.848C169.385 138.896 169.464 139.165 169.306 139.212L164.444 140.619H164.381Z" fill="var(--sapContent_Illustrative_Color17)"/>
<path d="M129.34 150.786L126.246 149.743C125.978 149.648 125.867 149.237 126.088 149.173L130.776 147.877H130.918L133.965 148.873C134.233 148.968 134.344 149.379 134.123 149.442L129.498 150.786H129.356H129.34Z" fill="var(--sapContent_Illustrative_Color17)"/>
<path d="M136.269 148.778L133.286 147.798C133.018 147.703 132.907 147.292 133.128 147.228L137.611 145.995H137.737L140.72 146.912C140.989 147.007 141.099 147.418 140.862 147.481L136.395 148.794H136.253V148.762L136.269 148.778Z" fill="var(--sapContent_Illustrative_Color17)"/>
<path d="M221.584 135.387L216.075 134.232H215.98L208.072 134.454C207.867 134.517 208.072 135.434 208.293 135.481L216.028 137.458H216.122L221.631 135.877C221.852 135.813 221.789 135.402 221.552 135.355V135.387H221.584Z" fill="var(--sapContent_Illustrative_Color17)"/>
<path d="M196.282 132.319L200.717 131.039H200.812L205.5 132.019C205.752 132.066 205.815 132.477 205.594 132.541L200.922 133.9H200.828L196.392 132.857C196.14 132.794 196.076 132.398 196.297 132.335H196.266L196.282 132.319Z" fill="var(--sapContent_Illustrative_Color17)"/>
<path d="M191.262 131.133L195.54 129.947H195.618L197.686 130.389C197.939 130.437 198.002 130.864 197.781 130.927L193.535 132.16H193.44L191.341 131.67C191.088 131.607 191.009 131.212 191.246 131.148L191.262 131.133Z" fill="var(--sapContent_Illustrative_Color17)"/>
<path d="M178.713 136.43L176.314 135.813C176.062 135.75 175.983 135.355 176.219 135.291L180.86 134.011H180.955L183.244 134.596C183.496 134.659 183.559 135.054 183.338 135.117L178.808 136.43H178.713Z" fill="var(--sapContent_Illustrative_Color17)"/>
<path d="M171.563 138.533L168.674 137.774C168.517 137.727 168.438 137.458 168.595 137.411L173.52 136.051H173.583L176.377 136.778C176.535 136.826 176.598 137.094 176.456 137.142L171.626 138.533H171.547H171.563Z" fill="var(--sapContent_Illustrative_Color17)"/>
<path d="M185.927 134.342L183.717 133.789C183.465 133.725 183.402 133.33 183.623 133.267L188.389 131.955H188.484L190.647 132.461C190.899 132.524 190.978 132.919 190.741 132.982L186.022 134.358H185.927V134.342Z" fill="var(--sapContent_Illustrative_Color17)"/>
<path d="M154.358 160.636L151.265 161.585H151.138L144.509 159.466C144.241 159.371 144.13 158.976 144.367 158.897L147.776 157.917H147.903L154.216 160.067C154.485 160.162 154.564 160.557 154.358 160.62V160.636Z" fill="var(--sapContent_Illustrative_Color17)"/>
<path d="M192.777 140.936L198.033 142.264C198.191 142.312 198.239 142.581 198.081 142.628L193.014 144.083H192.951L187.774 142.739C187.616 142.691 187.568 142.422 187.71 142.375L192.714 140.92H192.777V140.936Z" fill="var(--sapContent_Illustrative_Color17)"/>
<path d="M185.469 143.054L190.662 144.398C190.82 144.446 190.867 144.714 190.725 144.762L185.453 146.264H185.39L180.323 144.904C180.165 144.857 180.102 144.588 180.26 144.54L185.437 143.054H185.501H185.469Z" fill="var(--sapContent_Illustrative_Color17)"/>
<path d="M200.038 138.864L205.026 140.129C205.247 140.192 205.31 140.572 205.105 140.635L200.448 141.963H200.354L195.397 140.698C195.161 140.635 195.098 140.256 195.319 140.192L199.943 138.864H200.038Z" fill="var(--sapContent_Illustrative_Color17)"/>
<path d="M213.045 133.6L208.578 132.683H208.483L204.805 133.742L195.729 136.351C195.524 136.414 195.587 136.81 195.824 136.873L199.943 137.916H200.038L209.682 135.134L213.139 134.138C213.36 134.074 213.297 133.663 213.045 133.616V133.6Z" fill="var(--sapContent_Illustrative_Color17)"/>
<path d="M178.05 145.204L182.849 146.485C183.07 146.548 183.149 146.912 182.943 146.975L178.382 148.272H178.287L173.536 146.991C173.299 146.928 173.236 146.564 173.441 146.501L177.987 145.188H178.082L178.05 145.204Z" fill="var(--sapContent_Illustrative_Color17)"/>
<path d="M208.072 136.54L213.281 137.758C213.518 137.821 213.581 138.2 213.36 138.264L207.788 139.86H207.693L202.706 138.596C202.469 138.532 202.406 138.153 202.627 138.09L207.993 136.524H208.088L208.072 136.54Z" fill="var(--sapContent_Illustrative_Color17)"/>
<path d="M146.276 153.442L141.399 154.849H141.273L137.737 153.632C137.469 153.537 137.358 153.142 137.595 153.063L142.425 151.671H142.551L146.134 152.857C146.403 152.952 146.497 153.347 146.276 153.411V153.442Z" fill="var(--sapContent_Illustrative_Color17)"/>
<path d="M163.639 149.362L168.091 150.612C168.359 150.691 168.454 151.117 168.217 151.165L162.74 152.73H162.613L158.383 151.434C158.115 151.339 158.02 150.928 158.257 150.865L163.529 149.347H163.655L163.639 149.362Z" fill="var(--sapContent_Illustrative_Color17)"/>
<path d="M180.876 140.603L185.801 139.196H185.864L190.284 140.335C190.457 140.382 190.505 140.667 190.347 140.714L185.406 142.153H185.343L180.955 141.015C180.781 140.967 180.734 140.698 180.892 140.635V140.603H180.876Z" fill="var(--sapContent_Illustrative_Color17)"/>
<path d="M188.657 134.532L193.487 133.141H193.582L198.018 134.184C198.27 134.247 198.333 134.643 198.112 134.706L193.109 136.145H193.014L188.736 135.054C188.484 134.99 188.421 134.595 188.642 134.532H188.673H188.657Z" fill="var(--sapContent_Illustrative_Color17)"/>
<path d="M140.152 151.434L135.385 152.809H135.259L131.865 151.655C131.597 151.56 131.487 151.149 131.708 151.102L136.396 149.742H136.538L140.01 150.896C140.278 150.991 140.389 151.402 140.152 151.45V151.434Z" fill="var(--sapContent_Illustrative_Color17)"/>
<path d="M155.968 151.576L160.198 152.873C160.466 152.968 160.561 153.363 160.324 153.442L155.131 154.944H155.005L150.933 153.616C150.664 153.521 150.57 153.126 150.791 153.062L155.826 151.608H155.952L155.968 151.576Z" fill="var(--sapContent_Illustrative_Color17)"/>
<path d="M152.843 155.576L147.808 157.031H147.681L143.704 155.687C143.435 155.592 143.341 155.197 143.562 155.134L148.502 153.695H148.628L152.701 155.023C152.969 155.118 153.064 155.513 152.843 155.576Z" fill="var(--sapContent_Illustrative_Color17)"/>
<path d="M171.058 147.228L175.825 148.509C176.046 148.572 176.125 148.936 175.92 148.983L170.711 150.469H170.616L165.991 149.157C165.754 149.078 165.675 148.73 165.896 148.683L170.963 147.228H171.058Z" fill="var(--sapContent_Illustrative_Color17)"/>
<path d="M159.314 146.817L164.223 145.41H164.318L168.422 146.517C168.659 146.58 168.738 146.944 168.517 147.007L163.529 148.446H163.434L159.425 147.307C159.188 147.228 159.109 146.881 159.314 146.817Z" fill="var(--sapContent_Illustrative_Color17)"/>
<path d="M151.943 148.952L156.931 147.497H157.057L160.893 148.588C161.161 148.667 161.271 149.094 161.019 149.157L155.873 150.643H155.747L152.069 149.505C151.801 149.41 151.69 148.999 151.927 148.936L151.943 148.952Z" fill="var(--sapContent_Illustrative_Color17)"/>
<path d="M166.686 144.699L171.232 143.386H171.326L175.43 144.493C175.667 144.556 175.73 144.92 175.525 144.983L171.011 146.295H170.916L166.828 145.189C166.591 145.125 166.512 144.762 166.733 144.699H166.701H166.686Z" fill="var(--sapContent_Illustrative_Color17)"/>
<path d="M173.489 142.738L178.556 141.284H178.619L183.038 142.438C183.196 142.485 183.259 142.754 183.101 142.802L177.987 144.272H177.924L173.568 143.102C173.41 143.054 173.347 142.786 173.489 142.738Z" fill="var(--sapContent_Illustrative_Color17)"/>
<path d="M185.753 138.232L181.539 137.157C181.302 137.094 181.223 136.698 181.444 136.635L186.006 135.307H186.1L190.378 136.398C190.63 136.461 190.694 136.857 190.473 136.92L185.895 138.248H185.785L185.753 138.232Z" fill="var(--sapContent_Illustrative_Color17)"/>
<path d="M144.698 151.023L149.512 149.631H149.639L153.348 150.786C153.616 150.88 153.727 151.291 153.49 151.339L148.565 152.762H148.439L144.856 151.576C144.588 151.481 144.493 151.07 144.714 151.007L144.698 151.023Z" fill="var(--sapContent_Illustrative_Color17)"/>
<path d="M197.355 138.675L192.762 140.003H192.667L188.531 138.944C188.295 138.881 188.216 138.501 188.437 138.438L193.03 137.11H193.125L197.26 138.153C197.497 138.217 197.56 138.596 197.339 138.659H197.371L197.355 138.675Z" fill="var(--sapContent_Illustrative_Color17)"/>
<path d="M171.169 142.453L166.781 141.268C166.623 141.22 166.544 140.951 166.702 140.904L171.626 139.481H171.69L176.172 140.651C176.33 140.698 176.393 140.967 176.251 141.015L171.248 142.453H171.184H171.169Z" fill="var(--sapContent_Illustrative_Color17)"/>
<path d="M164.144 144.477L160.056 143.386C159.819 143.323 159.741 142.944 159.946 142.896L164.46 141.584H164.555L168.659 142.691C168.895 142.754 168.974 143.133 168.753 143.181L164.239 144.493H164.129L164.144 144.477Z" fill="var(--sapContent_Illustrative_Color17)"/>
<path d="M178.508 140.335L173.741 139.086C173.631 139.054 173.599 138.896 173.71 138.881L178.792 137.41H178.903L183.701 138.643C183.796 138.675 183.843 138.833 183.733 138.849L178.571 140.335H178.524H178.508Z" fill="var(--sapContent_Illustrative_Color17)"/>
<path d="M156.852 146.565L152.874 145.442C152.638 145.363 152.543 145.015 152.764 144.952L157.468 143.592H157.562L161.651 144.683C161.887 144.746 161.966 145.11 161.761 145.173L156.947 146.565H156.852Z" fill="var(--sapContent_Illustrative_Color17)"/>
<path d="M149.433 148.714L145.819 147.608C145.55 147.513 145.44 147.102 145.677 147.038L150.396 145.679H150.522L154.311 146.754C154.579 146.833 154.69 147.26 154.453 147.323L149.591 148.73H149.465L149.433 148.714Z" fill="var(--sapContent_Illustrative_Color17)"/>
<path d="M207.725 140.367L212.539 141.6C212.76 141.663 212.823 142.043 212.618 142.106L208.12 143.497H208.025L203.021 142.217C202.8 142.153 202.721 141.774 202.942 141.711L207.63 140.383H207.725V140.367Z" fill="var(--sapContent_Illustrative_Color27)"/>
<path d="M216.075 137.963L220.684 139.054C220.921 139.118 220.968 139.497 220.763 139.56L215.159 141.299H215.065L210.377 140.098C210.156 140.035 210.093 139.655 210.298 139.592L215.98 137.963H216.075Z" fill="var(--sapContent_Illustrative_Color27)"/>
<path d="M162.692 153.221L169.132 155.197C169.306 155.245 169.353 155.513 169.211 155.545L163.576 157.284H163.481L157.041 155.166C156.883 155.118 156.82 154.834 156.946 154.818L162.581 153.205H162.692V153.221Z" fill="var(--sapContent_Illustrative_Color27)"/>
<path d="M205.547 143.766L200.417 142.454H200.322L198.16 143.07L196.992 143.402L195.476 143.845L189.352 145.6L181.223 147.924L175.43 149.584C175.43 149.584 174.246 149.79 170.632 150.96L164.823 152.62C164.634 152.667 164.713 152.999 164.918 153.063L171.105 154.96H171.2L181.839 151.655L186.811 150.122L193.551 148.019L202.737 145.157L205.642 144.272C205.847 144.209 205.784 143.829 205.563 143.766H205.547Z" fill="var(--sapContent_Illustrative_Color27)"/>
<path d="M133.002 153.015L129.198 154.106H129.072L125.631 152.999C125.347 152.904 125.236 152.493 125.457 152.414L129.356 151.276H129.498L132.844 152.414C133.112 152.509 133.239 152.92 133.002 152.999V153.015Z" fill="var(--sapContent_Illustrative_Color27)"/>
<path d="M145.456 157.221L142.015 158.217H141.888L137.863 156.921C137.579 156.826 137.485 156.415 137.706 156.351L141.273 155.324H141.415L145.345 156.652C145.614 156.747 145.724 157.158 145.487 157.221H145.456Z" fill="var(--sapContent_Illustrative_Color27)"/>
<path d="M139.031 155.054L135.401 156.098H135.275L131.66 154.944C131.376 154.849 131.265 154.438 131.502 154.359L135.243 153.284H135.369L138.873 154.485C139.142 154.58 139.252 154.991 139.031 155.07V155.054Z" fill="var(--sapContent_Illustrative_Color27)"/>
<path d="M155.116 155.402L161.35 157.442C161.603 157.537 161.666 157.885 161.461 157.948L156.378 159.513H156.252L149.923 157.363C149.67 157.268 149.591 156.92 149.796 156.857L154.958 155.371H155.1V155.402H155.116Z" fill="var(--sapContent_Illustrative_Color27)"/>
<path d="M224.52 135.528L230.044 136.683L223.368 138.754L217.812 137.441L224.504 135.528H224.52Z" fill="var(--sapContent_Illustrative_Color27)"/>
<path d="M150.175 144.24L147.129 143.386C146.892 143.307 146.798 142.944 147.003 142.896L151.675 141.6H151.77L154.785 142.406C155.021 142.469 155.116 142.849 154.895 142.896L150.27 144.24H150.175Z" fill="var(--sapContent_Illustrative_Color27)"/>
<path d="M143.041 146.311L140.121 145.41C139.852 145.315 139.742 144.888 139.979 144.841L144.556 143.576H144.667L147.587 144.414C147.855 144.493 147.981 144.935 147.729 144.983L143.136 146.311H143.009H143.041Z" fill="var(--sapContent_Illustrative_Color27)"/>
<path d="M142.188 150.328L138.716 149.174C138.447 149.079 138.337 148.668 138.574 148.604L143.151 147.276H143.277L146.908 148.383C147.176 148.478 147.287 148.889 147.05 148.952L142.33 150.328H142.188Z" fill="var(--sapContent_Illustrative_Color27)"/>
<path d="M157.262 142.185L154.326 141.395C154.09 141.331 153.995 140.952 154.216 140.889L158.841 139.608H158.935L161.745 140.367C161.982 140.43 162.061 140.81 161.856 140.873L157.341 142.185H157.246H157.262Z" fill="var(--sapContent_Illustrative_Color27)"/>
<path d="M122.995 152.145L119.664 151.07C119.396 150.975 119.269 150.564 119.49 150.517L123.705 149.347H123.847L127.004 150.422C127.272 150.517 127.383 150.928 127.162 150.975L123.152 152.145H123.01H122.995Z" fill="var(--sapContent_Illustrative_Color27)"/>
<path d="M164.271 140.161L161.24 139.339C161.082 139.291 161.003 139.023 161.161 138.975L166.102 137.6H166.165L169.132 138.374C169.29 138.422 169.369 138.691 169.211 138.738L164.35 140.145H164.271V140.161Z" fill="var(--sapContent_Illustrative_Color27)"/>
<path d="M129.214 150.328L126.12 149.284C125.851 149.189 125.741 148.778 125.962 148.715L130.65 147.418H130.792L133.838 148.43C134.107 148.525 134.217 148.936 133.996 149L129.371 150.359H129.229V150.328H129.214Z" fill="var(--sapContent_Illustrative_Color27)"/>
<path d="M136.143 148.319L133.159 147.339C132.891 147.244 132.781 146.833 133.002 146.77L137.484 145.537H137.611L140.594 146.454C140.862 146.549 140.973 146.96 140.736 147.023L136.253 148.335H136.111L136.143 148.303V148.319Z" fill="var(--sapContent_Illustrative_Color27)"/>
<path d="M196.203 131.844L200.638 130.563H200.733L205.421 131.544C205.673 131.591 205.736 132.002 205.515 132.065L200.843 133.425H200.749L196.313 132.382C196.061 132.318 195.997 131.923 196.218 131.86H196.187L196.203 131.844Z" fill="var(--sapContent_Illustrative_Color27)"/>
<path d="M191.199 130.658L195.476 129.473H195.555L197.623 129.915C197.876 129.963 197.939 130.39 197.718 130.453L193.456 131.686H193.361L191.262 131.196C191.009 131.133 190.93 130.738 191.167 130.658H191.199Z" fill="var(--sapContent_Illustrative_Color27)"/>
<path d="M178.635 135.971L176.22 135.354C175.967 135.291 175.904 134.896 176.125 134.833L180.781 133.536H180.876L183.165 134.121C183.417 134.184 183.48 134.58 183.26 134.643L178.729 135.971H178.635Z" fill="var(--sapContent_Illustrative_Color27)"/>
<path d="M171.452 138.058L168.548 137.299C168.39 137.252 168.311 136.983 168.469 136.936L173.394 135.56H173.457L176.251 136.287C176.409 136.335 176.472 136.619 176.33 136.667L171.5 138.058H171.437H171.452Z" fill="var(--sapContent_Illustrative_Color27)"/>
<path d="M185.832 133.853L183.622 133.299C183.37 133.236 183.307 132.841 183.528 132.778L188.294 131.465H188.389L190.552 131.971C190.804 132.035 190.883 132.43 190.646 132.493L185.927 133.884H185.832V133.853Z" fill="var(--sapContent_Illustrative_Color27)"/>
<path d="M154.248 160.209L151.154 161.174H151.028L144.398 159.055C144.13 158.96 144.019 158.565 144.256 158.502L147.666 157.521H147.792L154.106 159.672C154.374 159.767 154.453 160.162 154.248 160.225V160.209Z" fill="var(--sapContent_Illustrative_Color27)"/>
<path d="M192.699 140.493L197.955 141.837C198.113 141.885 198.16 142.153 198.002 142.201L192.935 143.655H192.872L187.679 142.311C187.521 142.264 187.458 141.995 187.616 141.948L192.62 140.493H192.699Z" fill="var(--sapContent_Illustrative_Color27)"/>
<path d="M185.375 142.596L190.568 143.94C190.725 143.987 190.773 144.256 190.631 144.303L185.343 145.821H185.28L180.213 144.462C180.055 144.414 179.992 144.145 180.15 144.098L185.327 142.612H185.39V142.58L185.375 142.596Z" fill="var(--sapContent_Illustrative_Color27)"/>
<path d="M199.975 138.39L204.963 139.655C205.199 139.718 205.263 140.098 205.042 140.161L200.385 141.489H200.291L195.334 140.224C195.097 140.161 195.034 139.781 195.255 139.718L199.88 138.39H199.975Z" fill="var(--sapContent_Illustrative_Color27)"/>
<path d="M221.552 134.912L216.043 133.758C216.043 133.758 212.034 132.904 212.002 132.904L208.498 132.161H208.404L204.679 133.236L195.634 135.861C195.429 135.924 195.492 136.319 195.729 136.383L199.849 137.426H199.943L208.183 135.039L215.98 137.015H216.075L221.599 135.434C221.82 135.371 221.757 134.96 221.52 134.912H221.552Z" fill="var(--sapContent_Illustrative_Color27)"/>
<path d="M177.972 144.746L182.77 146.027C182.991 146.09 183.07 146.454 182.865 146.517L178.303 147.814H178.209L173.442 146.517C173.205 146.454 173.142 146.09 173.347 146.027L177.893 144.715H177.988V144.746H177.972Z" fill="var(--sapContent_Illustrative_Color27)"/>
<path d="M208.009 136.067L213.218 137.284C213.455 137.347 213.518 137.743 213.297 137.79L207.725 139.387H207.63L202.643 138.122C202.406 138.059 202.343 137.679 202.548 137.616L207.93 136.051H208.025L208.009 136.067Z" fill="var(--sapContent_Illustrative_Color27)"/>
<path d="M146.166 152.984L141.289 154.391H141.162L137.627 153.173C137.358 153.079 137.248 152.683 137.484 152.604L142.315 151.213H142.457L146.055 152.399C146.324 152.494 146.418 152.889 146.197 152.968H146.166V152.984Z" fill="var(--sapContent_Illustrative_Color27)"/>
<path d="M163.544 148.919L167.996 150.184C168.264 150.263 168.359 150.69 168.122 150.753L162.645 152.319H162.518L158.288 151.006C158.02 150.912 157.925 150.501 158.162 150.453L163.434 148.935H163.56L163.544 148.919Z" fill="var(--sapContent_Illustrative_Color27)"/>
<path d="M180.797 140.145L185.722 138.722H185.785L190.22 139.861C190.394 139.908 190.441 140.193 190.283 140.24L185.327 141.679H185.264L180.876 140.54C180.702 140.493 180.655 140.208 180.813 140.161L180.797 140.145Z" fill="var(--sapContent_Illustrative_Color27)"/>
<path d="M188.579 134.074L193.409 132.683H193.503L197.939 133.727C198.191 133.79 198.254 134.185 198.033 134.248L193.03 135.703H192.935L188.658 134.612C188.405 134.549 188.342 134.154 188.563 134.09H188.594L188.579 134.074Z" fill="var(--sapContent_Illustrative_Color27)"/>
<path d="M140.026 150.975L135.259 152.351H135.133L131.739 151.197C131.471 151.102 131.36 150.691 131.581 150.643L136.269 149.284H136.411L139.899 150.438C140.168 150.533 140.278 150.944 140.042 150.991L140.026 150.975Z" fill="var(--sapContent_Illustrative_Color27)"/>
<path d="M155.873 151.134L160.119 152.43C160.388 152.525 160.483 152.92 160.246 152.984L155.037 154.486H154.911L150.838 153.158C150.57 153.063 150.475 152.667 150.696 152.604L155.731 151.15H155.858L155.873 151.134Z" fill="var(--sapContent_Illustrative_Color27)"/>
<path d="M152.748 155.149L147.713 156.604H147.587L143.609 155.26C143.341 155.165 143.246 154.77 143.467 154.691L148.407 153.252H148.534L152.622 154.58C152.89 154.675 152.985 155.07 152.764 155.133L152.748 155.149Z" fill="var(--sapContent_Illustrative_Color27)"/>
<path d="M170.963 146.77L175.73 148.05C175.951 148.113 176.03 148.477 175.825 148.54L170.616 150.027H170.521L165.896 148.714C165.66 148.635 165.581 148.287 165.802 148.224L170.869 146.77H170.979H170.963Z" fill="var(--sapContent_Illustrative_Color27)"/>
<path d="M159.22 146.358L164.129 144.951H164.223L168.327 146.058C168.564 146.121 168.643 146.485 168.422 146.548L163.434 148.003H163.339L159.33 146.864C159.093 146.785 159.015 146.437 159.22 146.374V146.358Z" fill="var(--sapContent_Illustrative_Color27)"/>
<path d="M151.817 148.493L156.82 147.039H156.947L160.782 148.13C161.051 148.209 161.161 148.635 160.909 148.699L155.747 150.185H155.621L151.927 149.047C151.659 148.952 151.549 148.541 151.785 148.477H151.817V148.493Z" fill="var(--sapContent_Illustrative_Color27)"/>
<path d="M166.591 144.241L171.137 142.928H171.232L175.335 144.035C175.572 144.098 175.635 144.462 175.43 144.525L170.9 145.837H170.805L166.701 144.731C166.465 144.667 166.386 144.304 166.607 144.241H166.591Z" fill="var(--sapContent_Illustrative_Color27)"/>
<path d="M173.394 142.28L178.461 140.825H178.524L182.959 141.979C183.117 142.027 183.18 142.296 183.023 142.343L177.893 143.829H177.829L173.473 142.643C173.315 142.596 173.252 142.327 173.394 142.28Z" fill="var(--sapContent_Illustrative_Color27)"/>
<path d="M185.659 137.757L181.428 136.666C181.192 136.603 181.113 136.208 181.334 136.145L185.895 134.816H185.99L190.268 135.907C190.52 135.971 190.583 136.366 190.362 136.429L185.769 137.757H185.674H185.659Z" fill="var(--sapContent_Illustrative_Color27)"/>
<path d="M144.588 150.581L149.418 149.189H149.544L153.253 150.344C153.522 150.439 153.632 150.85 153.395 150.897L148.455 152.32H148.329L144.745 151.134C144.477 151.039 144.382 150.628 144.603 150.565L144.588 150.581Z" fill="var(--sapContent_Illustrative_Color27)"/>
<path d="M197.276 138.201L192.682 139.529H192.588L188.452 138.47C188.215 138.407 188.137 138.027 188.358 137.964L192.967 136.636H193.061L197.197 137.695C197.434 137.758 197.497 138.138 197.276 138.201Z" fill="var(--sapContent_Illustrative_Color27)"/>
<path d="M171.074 141.979L166.686 140.793C166.528 140.746 166.449 140.477 166.607 140.43L171.531 139.007H171.595L176.077 140.177C176.235 140.224 176.298 140.493 176.156 140.54L171.153 141.995H171.089V141.963L171.074 141.979Z" fill="var(--sapContent_Illustrative_Color27)"/>
<path d="M164.05 144.003L159.961 142.912C159.725 142.849 159.646 142.469 159.851 142.422L164.365 141.094H164.46L168.564 142.201C168.801 142.264 168.88 142.643 168.659 142.691L164.129 144.003H164.034H164.05Z" fill="var(--sapContent_Illustrative_Color27)"/>
<path d="M178.413 139.861L173.646 138.612C173.536 138.58 173.504 138.422 173.615 138.406L178.713 136.936H178.824L183.622 138.169C183.717 138.201 183.764 138.359 183.654 138.375L178.492 139.877H178.429L178.413 139.861Z" fill="var(--sapContent_Illustrative_Color27)"/>
<path d="M156.742 146.122L152.764 144.983C152.527 144.904 152.433 144.556 152.653 144.493L157.357 143.133H157.452L161.54 144.24C161.777 144.303 161.856 144.667 161.651 144.73L156.836 146.122H156.742Z" fill="var(--sapContent_Illustrative_Color27)"/>
<path d="M149.323 148.256L145.708 147.149C145.44 147.054 145.33 146.643 145.566 146.58L150.286 145.22H150.412L154.2 146.295C154.469 146.374 154.579 146.801 154.343 146.865L149.465 148.256H149.339H149.323Z" fill="var(--sapContent_Illustrative_Color27)"/>
<path d="M162.439 90.161C161.492 90.1135 160.671 90.825 160.561 91.7579C160.387 93.5919 159.803 95.3469 158.935 96.9596C156.82 100.865 152.889 103.885 148.201 104.818C148.201 104.818 148.186 104.818 148.17 104.818C140.704 106.288 133.601 102.193 131.644 95.4259C131.47 94.8093 131.312 94.1927 131.233 93.5445C130.16 85.6233 136.268 78.2555 144.571 77.1804C148.028 76.7377 151.358 77.465 154.073 79.0618C155.525 79.9156 156.82 81.0066 157.846 82.3347L150.916 83.3465C149.938 83.4888 149.227 84.3901 149.354 85.3229C149.48 86.2715 150.38 86.9198 151.374 86.7617L160.876 85.2913L161.003 85.2755L161.792 85.149C162.723 85.0067 163.386 84.1371 163.26 83.2359L161.997 73.2909V73.2593C161.871 72.3423 161.018 71.6782 160.087 71.7889C159.156 71.8996 158.477 72.7534 158.588 73.6862L158.824 75.5993L159.219 78.635C158.556 77.9867 157.83 77.4175 157.072 76.88C153.521 74.3661 148.928 73.1328 144.113 73.702C133.664 74.9352 125.882 84.1845 127.256 94.1927C127.429 95.505 127.776 96.754 128.234 97.924C130.586 103.964 136.363 108.011 143.024 108.58C144.855 108.739 146.749 108.628 148.659 108.233C156.346 106.636 162.36 100.564 163.733 93.4496C163.828 92.9437 163.907 92.4377 163.954 91.916C164.049 90.9989 163.37 90.1926 162.439 90.1452V90.161Z" fill="var(--sapContent_Illustrative_Color23)"/>
</g>
<defs>
<clipPath id="clip0_6879_7409">
<rect width="212" height="141" fill="var(--sapContent_Illustrative_Color8)" transform="translate(57 44)"/>
</clipPath>
</defs>
</svg>