<svg width="45" height="45" viewBox="0 0 45 45" fill="none" xmlns="http://www.w3.org/2000/svg" id="sapIllus-Dot-NoTasks_v1">
<path d="M31.5614 41.435C31.94 41.3898 32.301 41.2493 32.6105 41.0266C32.5102 40.979 32.4257 40.9037 32.3668 40.8096C32.308 40.7155 32.2774 40.6064 32.2785 40.4954L32.4645 30.5352C32.4671 30.3942 32.5201 30.2589 32.6139 30.1535C32.7077 30.0482 32.836 29.9799 32.9757 29.9609L40.5554 28.8951C40.6683 28.8779 40.7837 28.894 40.8874 28.9416C40.9817 28.6437 41.0123 28.3292 40.9771 28.0187L38.1982 4.50937C38.131 3.96032 37.8654 3.45477 37.4514 3.08789C37.0375 2.721 36.5037 2.51809 35.9505 2.51733C35.8595 2.5179 35.7687 2.52344 35.6783 2.53393L2.67032 6.43832C2.37369 6.47208 2.08666 6.56417 1.82575 6.70929C1.56485 6.8544 1.33523 7.04967 1.15009 7.28387C0.964951 7.51807 0.827953 7.78659 0.746981 8.07394C0.666009 8.3613 0.642664 8.66181 0.678286 8.95822L4.62583 42.348C4.66044 42.6443 4.75307 42.9309 4.89844 43.1913C5.04382 43.4518 5.2391 43.6811 5.47311 43.8661C5.70712 44.051 5.97528 44.1881 6.26227 44.2694C6.54927 44.3508 6.84947 44.3747 7.14574 44.34L31.5614 41.435ZM19.2507 6.33539C19.7255 6.36391 20.1816 6.53077 20.5628 6.81543C20.9439 7.10008 21.2334 7.49008 21.3956 7.9373C21.5577 8.38453 21.5854 8.86942 21.4753 9.3322C21.3651 9.79498 21.1219 10.2154 20.7757 10.5416C20.4294 10.8678 19.9953 11.0856 19.5268 11.168C19.0583 11.2504 18.5759 11.1939 18.1391 11.0054C17.7023 10.8169 17.3302 10.5048 17.0688 10.1074C16.8073 9.70995 16.6679 9.24469 16.6677 8.76898C16.6876 8.10378 16.9709 7.47376 17.4553 7.0174C17.9397 6.56104 18.5855 6.31573 19.2507 6.33539V6.33539Z" style="fill:var(--sapContent_Illustrative_Color6)"/>
<path d="M41.6344 27.9387L38.8555 4.42938C38.8102 4.04699 38.69 3.67727 38.5018 3.34132C38.3136 3.00538 38.0611 2.70982 37.7586 2.47149C37.4562 2.23317 37.1097 2.05676 36.7391 1.95235C36.3685 1.84794 35.9809 1.81758 35.5985 1.86299L2.58722 5.76405C2.20466 5.80891 1.83469 5.92882 1.49854 6.11688C1.16238 6.30495 0.866641 6.5575 0.628241 6.86005C0.389842 7.16259 0.213471 7.5092 0.10924 7.88001C0.00500836 8.25083 -0.025029 8.63857 0.0208279 9.02102L3.96836 42.4108C4.05277 43.1233 4.39529 43.7803 4.93118 44.2575C5.46707 44.7346 6.15919 44.9989 6.87673 45.0004C6.98767 44.9998 7.0985 44.9932 7.20873 44.9805L31.6211 42.0954C32.038 42.0458 32.4395 41.9076 32.7986 41.69C33.1576 41.4724 33.4659 41.1804 33.7028 40.8338L41.1297 29.9374C41.5338 29.3539 41.713 28.644 41.6344 27.9387V27.9387ZM4.62574 42.3344L0.678192 8.94466C0.64257 8.64825 0.665915 8.34772 0.746887 8.06036C0.827859 7.77301 0.964858 7.50451 1.15 7.27031C1.33514 7.03611 1.56476 6.84082 1.82566 6.69571C2.08656 6.55059 2.3736 6.4585 2.67022 6.42474L35.6815 2.52035C35.7719 2.50986 35.8628 2.50432 35.9538 2.50375C36.5069 2.50451 37.0407 2.70744 37.4547 3.07433C37.8686 3.44121 38.1342 3.94674 38.2014 4.49578L40.9803 28.0051C41.0155 28.3156 40.985 28.6301 40.8907 28.9281C40.7869 28.8805 40.6715 28.8643 40.5587 28.8816L32.979 29.9473C32.8392 29.9663 32.7109 30.0346 32.6171 30.14C32.5234 30.2453 32.4704 30.3807 32.4677 30.5217L32.2818 40.4818C32.2806 40.5929 32.3112 40.7019 32.3701 40.796C32.4289 40.8902 32.5135 40.9655 32.6138 41.013C32.3042 41.2357 31.9433 41.3762 31.5646 41.4214L7.14897 44.3099C6.55265 44.3812 5.95237 44.2133 5.47948 43.8431C5.0066 43.4729 4.69964 42.9304 4.62574 42.3344V42.3344Z" style="fill:var(--sapContent_Illustrative_Color6)"/>
<path d="M33.517 39.5953C33.8953 39.5486 34.2559 39.4082 34.5662 39.187C34.4661 39.1391 34.3817 39.0637 34.323 38.9696C34.2642 38.8755 34.2334 38.7667 34.2342 38.6558L34.4201 28.6956C34.4226 28.5542 34.4755 28.4184 34.5692 28.3125C34.663 28.2066 34.7913 28.1376 34.9314 28.1179L42.5111 27.0555C42.6239 27.0374 42.7395 27.0536 42.8431 27.102C42.9363 26.8038 42.9657 26.4893 42.9294 26.179L40.1505 2.6697C40.0833 2.12065 39.8177 1.61512 39.4037 1.24824C38.9897 0.881355 38.456 0.678424 37.9028 0.677664C37.8121 0.672712 37.7212 0.672712 37.6306 0.677664L4.6226 4.57873C4.32601 4.61332 4.03914 4.70607 3.77843 4.85166C3.51772 4.99725 3.28828 5.19283 3.10325 5.4272C2.91822 5.66157 2.78123 5.93014 2.70012 6.21752C2.61901 6.5049 2.59538 6.80545 2.63057 7.10198L6.58142 40.4951C6.61603 40.7913 6.70868 41.0779 6.85406 41.3384C6.99943 41.5989 7.19471 41.8281 7.42872 42.0131C7.66273 42.1981 7.93089 42.3352 8.21788 42.4165C8.50488 42.4978 8.80508 42.5218 9.10135 42.4871L33.517 39.5953ZM21.2063 4.49572C21.6811 4.52424 22.1372 4.69112 22.5184 4.97578C22.8995 5.26043 23.189 5.65041 23.3512 6.09763C23.5133 6.54486 23.541 7.02977 23.4309 7.49255C23.3207 7.95533 23.0775 8.37575 22.7313 8.70196C22.385 9.02818 21.9509 9.24593 21.4824 9.32834C21.0139 9.41076 20.5315 9.35424 20.0947 9.16576C19.6579 8.97729 19.2858 8.66509 19.0244 8.26768C18.7629 7.87028 18.6235 7.40504 18.6233 6.92933C18.6441 6.26443 18.9277 5.63492 19.4118 5.17874C19.896 4.72257 20.5413 4.47694 21.2063 4.49572Z" style="fill:var(--sapContent_Illustrative_Color8)"/>
<path d="M43.59 26.0994L40.8111 2.59014C40.7196 1.81762 40.3251 1.11304 39.7144 0.631196C39.1037 0.14935 38.3267 -0.0703384 37.5541 0.0204191L4.54281 3.9414C4.16024 3.98626 3.79028 4.10617 3.45412 4.29424C3.11797 4.48231 2.82222 4.73485 2.58382 5.0374C2.34542 5.33995 2.16905 5.68655 2.06482 6.05737C1.96059 6.42819 1.93053 6.81592 1.97639 7.19837L5.92394 40.5882C6.00842 41.3013 6.35141 41.9587 6.888 42.4359C7.42458 42.9131 8.11753 43.1771 8.83563 43.1778C8.94658 43.1772 9.05741 43.1705 9.16764 43.1579L33.58 40.2727C33.9969 40.2232 34.3984 40.085 34.7574 39.8674C35.1165 39.6498 35.4248 39.3578 35.6617 39.0111L43.0886 28.1147C43.4955 27.5264 43.6737 26.8098 43.59 26.0994V26.0994ZM6.5813 40.4952L2.63377 7.10542C2.59859 6.8089 2.62221 6.50834 2.70332 6.22096C2.78443 5.93358 2.92142 5.66501 3.10645 5.43064C3.29148 5.19627 3.52092 5.0007 3.78163 4.8551C4.04234 4.70951 4.32921 4.61676 4.62581 4.58217L37.6338 0.681106C37.7245 0.676155 37.8153 0.676155 37.906 0.681106C38.4592 0.681866 38.993 0.884777 39.4069 1.25166C39.8209 1.61854 40.0865 2.12409 40.1537 2.67314L42.9293 26.1858C42.9656 26.4961 42.9362 26.8106 42.8429 27.1087C42.7394 27.0604 42.6238 27.0442 42.5109 27.0623L34.9313 28.1247C34.7912 28.1444 34.6628 28.2134 34.5691 28.3193C34.4754 28.4252 34.4225 28.561 34.42 28.7024L34.2341 38.6625C34.2333 38.7735 34.2641 38.8823 34.3228 38.9764C34.3816 39.0704 34.466 39.1458 34.5661 39.1937C34.2558 39.415 33.8951 39.5554 33.5169 39.6021L9.10123 42.4872C8.80497 42.5219 8.50476 42.498 8.21776 42.4166C7.93077 42.3353 7.66261 42.1982 7.4286 42.0132C7.19459 41.8282 6.99931 41.599 6.85394 41.3385C6.70856 41.078 6.61591 40.7915 6.5813 40.4952V40.4952ZM42.4379 27.7362L34.8981 38.4334L35.0807 28.7688L42.4379 27.7362Z" style="fill:var(--sapContent_Illustrative_Color4)"/>
<path d="M34.908 38.4334L42.4445 27.7329L35.0906 28.7688L34.908 38.4334Z" style="fill:var(--sapContent_Illustrative_Color8)"/>
<path d="M21.206 9.35975C22.6326 9.35975 23.7891 8.27019 23.7891 6.92615C23.7891 5.58211 22.6326 4.49255 21.206 4.49255C19.7795 4.49255 18.623 5.58211 18.623 6.92615C18.623 8.27019 19.7795 9.35975 21.206 9.35975Z" style="fill:var(--sapContent_Illustrative_Color3)"/>
<path d="M32.7224 14.7509L12.8078 16.8335C11.9999 16.918 11.4135 17.6414 11.4979 18.4493L11.5801 19.2351C11.6646 20.043 12.388 20.6295 13.1959 20.545L33.1105 18.4624C33.9184 18.3779 34.5049 17.6545 34.4204 16.8466L34.3382 16.0607C34.2537 15.2529 33.5303 14.6664 32.7224 14.7509Z" style="fill:var(--sapContent_Illustrative_Color6)"/>
<path d="M26.0553 22.0886L13.3953 23.4126C12.7388 23.4812 12.2622 24.0691 12.3309 24.7256L12.4704 26.0596C12.539 26.7162 13.1269 27.1927 13.7834 27.124L26.4435 25.8001C27.1 25.7315 27.5765 25.1436 27.5079 24.4871L27.3684 23.1531C27.2997 22.4965 26.7119 22.02 26.0553 22.0886Z" style="fill:var(--sapContent_Illustrative_Color6)"/>
<path d="M30.9041 16.5579C30.7803 16.4304 30.6322 16.329 30.4685 16.2598C30.3048 16.1906 30.1289 16.1549 29.9512 16.1549C29.7735 16.1549 29.5976 16.1906 29.4339 16.2598C29.2702 16.329 29.1221 16.4304 28.9983 16.5579L19.7022 25.854L16.5481 22.7C16.4228 22.5748 16.274 22.4756 16.1103 22.408C15.9467 22.3404 15.7712 22.3056 15.5941 22.3058C15.417 22.3059 15.2416 22.341 15.0781 22.4089C14.9145 22.4768 14.7659 22.5763 14.6408 22.7016C14.5156 22.827 14.4164 22.9757 14.3488 23.1394C14.2812 23.3031 14.2464 23.4785 14.2466 23.6557C14.2467 23.8328 14.2818 24.0081 14.3497 24.1717C14.4176 24.3353 14.5171 24.4839 14.6424 24.609L18.7493 28.7226C18.8731 28.8501 19.0212 28.9514 19.1849 29.0206C19.3486 29.0899 19.5245 29.1255 19.7022 29.1255C19.8799 29.1255 20.0558 29.0899 20.2195 29.0206C20.3831 28.9514 20.5313 28.8501 20.6551 28.7226L30.9173 18.4603C31.0449 18.3365 31.1462 18.1884 31.2154 18.0247C31.2846 17.861 31.3203 17.6851 31.3203 17.5074C31.3203 17.3297 31.2846 17.1538 31.2154 16.9901C31.1462 16.8265 31.0449 16.6783 30.9173 16.5546L30.9041 16.5579Z" style="fill:var(--sapContent_Illustrative_Color3)"/>
<path d="M23.0823 6.02049C23.1701 5.89172 22.9392 5.58132 22.5665 5.32719C22.1938 5.07307 21.8205 4.97146 21.7327 5.10022C21.6449 5.22899 21.8758 5.53939 22.2485 5.79351C22.6212 6.04763 22.9945 6.14925 23.0823 6.02049Z" style="fill:var(--sapContent_Illustrative_Color8)"/>
</svg>
