<svg xmlns="http://www.w3.org/2000/svg" xmlns:xlink="http://www.w3.org/1999/xlink" width="160" height="160" viewBox="0 0 160 160" id="sapIllus-Dialog-UnableToUpload">
    <path class="sapIllus_BackgroundColor" d="M148.6775,104.2367c-.7539,19.4951-8.1861,26.7283-24.988,36.8755-11.3637,6.8629-41.8817,9.09-56.7351,8.5158-42.0629-1.6267-50.3384-27.6506-49.8382-59.0471C17.6371,57.88,49.0282,38.2652,85.843,39.689S149.9413,71.5562,148.6775,104.2367Z"/>
    <path class="sapIllus_ObjectFillColor" d="M123.69,141.1121c1.7-1.0267,3.3-2.023,4.8105-3.0058V56.3284a2,2,0,0,0-.5859-1.4142L105.0859,32.0858a2,2,0,0,0-1.4143-.5858H39.01a4,4,0,0,0-4,4V140.4c7.457,5.3556,17.7778,8.68,31.944,9.2277C81.8079,150.2025,112.3257,147.9751,123.69,141.1121Z"/>
    <polygon class="sapIllus_PatternShadow" points="133.5 134 128 138 128 59 133.5 65 133.5 134"/>
    <path class="sapIllus_Layering1" d="M136.3229,45.9731l6.022-1.3679c1.3436-.3051.9276-2.4687-.4236-2.1618l-6.022,1.3678c-1.3436.3052-.9275,2.4687.4236,2.1619Z"/>
    <path class="sapIllus_Layering1" d="M118.254,27.0051l1.371-5.8537c.3039-1.2976-1.6457-1.9967-1.952-.689l-1.371,5.8537c-.3039,1.2976,1.6458,1.9967,1.952.689Z"/>
    <path class="sapIllus_Layering1" d="M127.7126,35.4194a1.01,1.01,0,0,1-.6641-.3127,1.0783,1.0783,0,0,1,.0148-1.4956l6.4033-6.4674a1.01,1.01,0,0,1,1.4565.01,1.0783,1.0783,0,0,1-.0147,1.4955l-6.4034,6.4674A1.0165,1.0165,0,0,1,127.7126,35.4194Z"/>
    <path class="sapIllus_Layering1" d="M85.3183,92.4932l9.6423-10.0558a2.247,2.247,0,0,0,0-3.0746,2.0115,2.0115,0,0,0-2.9369,0L82.3814,89.4185,72.7391,79.3628a2.0115,2.0115,0,0,0-2.9369,0,2.247,2.247,0,0,0,0,3.0746l9.6423,10.0558L69.8022,102.549a2.2472,2.2472,0,0,0,0,3.0747,2.0116,2.0116,0,0,0,2.9369,0l9.6423-10.0558,9.6423,10.0558a2.0116,2.0116,0,0,0,2.9369,0,2.2472,2.2472,0,0,0,0-3.0747Z"/>
    <path class="sapIllus_StrokeDetailColor" d="M128,60l0-3H104Z"/>
    <path class="sapIllus_BrandColorSecondary" d="M103,32.5022V56a1,1,0,0,0,1,1h23.4976a1,1,0,0,0,.7072-1.7074L104.7074,31.795A1,1,0,0,0,103,32.5022Z"/>
      <path class="sapIllus_NoColor" d="M127.8535,55.5605,104.44,32.1465A.496.496,0,0,0,104.0859,32H39.01a3.5042,3.5042,0,0,0-3.5,3.5V140.745c7.4174,5.1506,17.5883,8.3472,31.4445,8.883,14.8536.5745,45.3714-1.6529,56.7352-8.5159,1.5131-.9138,2.9475-1.8034,4.3105-2.6811V55.9141A.5038.5038,0,0,0,127.8535,55.5605Z"/>
      <path class="sapIllus_StrokeDetailColor" d="M128.56,54.8535,105.1465,31.44A1.4905,1.4905,0,0,0,104.0859,31H39.01a4.5049,4.5049,0,0,0-4.5,4.5V140.0518c.322.2392.667.4619,1,.6932V35.5a3.5042,3.5042,0,0,1,3.5-3.5h63.5818a1.5131,1.5131,0,0,0-.0916.502V56a1.4982,1.4982,0,0,0,1.4275,1.4927l.0105.0034,23.9995,3A.5375.5375,0,0,0,128,60.5H128V138.431c.3391-.2183.67-.4355,1-.6524V55.9141A1.5107,1.5107,0,0,0,128.56,54.8535ZM103.5,32.502a.4915.4915,0,0,1,.3086-.462.54.54,0,0,1,.2007-.0395.477.477,0,0,1,.3447.1479L127.8516,55.646a.5.5,0,0,1-.3536.854H104a.5.5,0,0,1-.5-.5Z"/>
    </svg>
