<svg width="320" height="240" viewBox="0 0 320 240" fill="none" xmlns="http://www.w3.org/2000/svg" id="sapIllus-Scene-DragFilesToUpload">
<rect y="45" width="320" height="138" rx="24" fill="var(--sapContent_Illustrative_Color20)"/>
<path d="M144.65 55.369C143.41 56.279 142.06 57.029 140.72 57.769C134.03 61.479 127.34 65.189 120.65 68.899C119.06 69.779 117.19 70.719 116.03 72.169C114.63 73.929 114.23 76.409 113.22 78.399C112.21 80.409 106.82 91.809 106.48 93.499C106.35 94.169 105.63 99.169 104.96 99.599L82.96 101.729L83.12 111.239C83.12 111.239 79.63 111.489 76.76 111.559C73.25 111.649 71.31 113.669 71 116.639L74.5 162.809C74.64 164.629 75 165.829 76.36 166.979L79.79 170.179C80.6 170.899 81.66 171.369 82.82 171.439L147.53 174.969C150.13 175.109 151.89 173.539 152.68 170.649L161.83 127.449C162.11 124.649 160.11 122.239 157.35 122.089L151.73 121.779C151.98 119.049 150.18 116.779 147.51 116.619L145.37 116.489L141.93 94.199L128.74 95.769C129.81 93.849 131.01 90.499 131.3 89.859C132.24 87.829 141.42 84.669 146.57 80.259C151.72 75.859 153.63 74.489 153.63 74.489L156.63 72.879C157.07 73.659 157.45 74.159 157.73 74.289C159.1 74.919 161.78 72.979 163.47 71.579C163.76 71.949 164.06 72.299 164.36 72.589C164.36 72.589 166.59 75.209 168.08 75.209C168.08 75.209 168.08 75.209 168.09 75.209H168.1H168.12C168.12 75.209 168.15 75.179 168.17 75.169L202.12 45.019H160.64C154.21 49.189 144.68 55.349 144.64 55.379L144.66 55.359L144.65 55.369Z" fill="var(--sapContent_Illustrative_Color21)"/>
<path d="M146.16 123.349L146.23 118.189C146.58 115.719 144.96 113.589 142.61 113.439L114.74 111.719C112.37 111.569 110.21 113.479 109.93 115.959L110.02 120.249L102.47 119.789C99.0699 119.579 96.0099 122.289 95.6299 125.819L99.7799 180.569C99.9499 182.729 100.37 184.159 101.99 185.519L106.05 189.309L185.79 194.769C188.96 194.939 192.71 188.779 193.31 185.589L191.3 132.479C191.92 128.999 189.72 125.989 186.37 125.789L146.16 123.339V123.349Z" fill="var(--sapContent_Illustrative_Color22)"/>
<path d="M182.401 129.679L105.841 125.569C105.141 125.569 104.811 125.879 104.811 126.659L105.231 179.449C105.231 180.639 106.201 181.649 107.371 181.719L182.851 185.829C184.021 185.889 184.961 184.979 184.951 183.799L184.531 131.949C184.531 130.759 183.561 129.749 182.391 129.679H182.401Z" fill="var(--sapContent_Illustrative_Color2)"/>
<path d="M124.81 141.609L186.03 134.719L179.56 92.8188L119.77 101.549L124.81 141.609Z" fill="var(--sapContent_Illustrative_Color27)"/>
<path d="M147.551 83.9289L144.721 95.8689C144.561 96.5589 144.491 97.2889 144.531 97.9989L150.051 97.2089L150.961 94.1089C150.961 94.1089 153.581 87.7189 153.341 83.7089C153.221 81.6389 151.801 81.2689 150.461 81.3889C149.051 81.5189 147.881 82.5489 147.551 83.9289Z" fill="var(--sapContent_Illustrative_Color29)"/>
<path d="M153.66 80.419L150.7 92.879C150.57 93.419 150.5 93.969 150.49 94.519L150.42 97.139L155.71 96.379L157 90.869C157 90.869 159.62 84.479 159.38 80.469C159.24 78.109 157.41 77.959 155.93 78.229C154.81 78.439 153.92 79.289 153.65 80.399V80.419H153.66Z" fill="var(--sapContent_Illustrative_Color29)"/>
<path d="M182.88 45.2091C181.36 46.3191 179.71 47.2391 178.06 48.1491C169.86 52.6991 161.66 57.2491 153.46 61.7991C151.51 62.8791 149.22 64.0291 147.8 65.8091C146.08 67.9691 145.59 71.0091 144.36 73.4491C143.12 75.9091 136.51 89.8891 136.1 91.9591C135.93 92.8091 134.99 99.3591 134.15 99.4891L144.11 98.0591L146.13 90.5091L162.47 83.7491C161.07 85.8491 160.18 86.7791 156.43 91.7091C152.68 96.6391 152.03 102.029 156.63 104.679C161.23 107.339 169.53 91.0291 170.69 88.5491C171.84 86.0591 178.97 83.1091 185.28 77.7091C191.6 72.3091 194.09 67.8791 194.09 67.8791L218.97 54.4891L217.9 45.0391H183.11C183.03 45.0991 182.94 45.1691 182.86 45.2291L182.88 45.2091Z" fill="var(--sapContent_Illustrative_Color31)"/>
<path d="M203.471 57.959C201.131 57.899 198.761 58.199 196.571 59.029C195.471 59.439 194.431 59.989 193.471 60.659C192.981 60.999 192.471 61.359 192.091 61.829C191.411 62.669 190.921 63.669 190.431 64.629C189.751 65.969 189.121 67.339 188.461 68.689C187.131 71.449 185.791 74.339 183.861 76.739C182.651 78.239 176.581 81.749 175.201 83.039C173.951 84.209 172.631 85.309 171.381 86.479C170.091 87.699 168.851 89.009 168.061 90.619C167.351 92.069 166.841 93.949 165.461 94.909C164.991 95.239 164.491 95.419 163.971 95.539C163.161 95.729 162.931 96.769 163.591 97.249C163.811 97.409 163.981 97.559 164.031 97.689C164.221 98.149 159.891 103.759 159.061 104.629C163.761 103.499 169.491 91.529 170.511 89.329C171.661 86.839 178.791 83.889 185.101 78.489C191.411 73.089 193.901 68.659 193.901 68.659L211.361 59.259C208.791 58.489 206.141 57.999 203.471 57.939V57.959Z" fill="var(--sapContent_Illustrative_Color15)"/>
<path d="M157.32 90.5791C157.54 90.3591 158.26 89.9891 158.5 89.7991C159.7 88.8591 160.39 87.8691 161.24 86.8191C162.11 85.7391 162.98 84.5591 163.5 83.2591C164.04 81.8991 164.26 80.2791 163.71 78.8891C163.44 78.2091 162.98 77.6291 162.38 77.2091C161.98 76.9391 161.43 76.3591 160.99 76.1691C159.88 75.6791 158.79 75.0991 157.6 74.8391C156.76 74.6491 155.93 74.4991 155.06 74.4791C154.26 74.4591 153.78 74.9191 153.87 75.6691C153.96 76.4091 154.32 77.2791 154.49 78.1091C154.69 79.0991 154.66 79.9091 153.87 80.5291C153.43 80.8791 152.68 81.0291 152.16 81.2591C149.51 82.3691 148.35 85.1191 146.34 87.1891C145.3 88.2591 144.28 89.4991 143.21 90.5491C142.85 90.8991 142.5 91.2891 142.3 91.7491C142.06 92.3191 142.06 92.9691 141.99 93.5791C141.71 95.9991 140.2 96.9991 138.91 98.8091L144.12 98.0591L146.33 91.3991L162.5 83.7591C161.32 85.5191 159.75 87.4491 157.32 90.5991V90.5791Z" fill="var(--sapContent_Illustrative_Color3)"/>
<path d="M155.9 97.049C156.23 96.729 156.74 96.699 157.12 96.959C157.95 97.529 159.81 98.509 160.96 99.099C161.53 99.389 161.78 100.059 161.54 100.639C160.76 102.559 158.97 105.689 156.53 104.799C153.74 103.779 152.13 100.639 155.89 97.049H155.9Z" fill="var(--sapContent_Illustrative_Color3)"/>
<path d="M207.04 66.319C207.04 66.319 209.8 69.559 211.62 69.529C212.74 69.529 207.54 55.649 203.39 45.019H197.13C199.52 52.829 203.08 62.429 207.04 66.319Z" fill="var(--sapContent_Illustrative_Color22)"/>
<path d="M198.91 68.419C201.46 69.589 207.79 63.449 207.79 63.449L218.96 56.959L217.62 45.019H188.88C191.6 52.739 197.03 67.549 198.92 68.409H198.91V68.419Z" fill="var(--sapContent_Illustrative_Color8)"/>
<path d="M199.22 45.019C203.84 55.079 210.11 68.319 211.63 69.529L249.39 45.019H199.21H199.22Z" fill="var(--sapContent_Illustrative_Color13)"/>
<path d="M244.32 45.019C242.27 46.459 240.18 47.829 238.02 49.099C235.67 50.479 233.26 51.769 230.72 52.769C228.08 53.809 225.33 54.609 222.51 54.959C219.69 55.319 216.81 55.219 214.01 54.699C211.39 54.209 208.82 53.399 206.44 52.189C204.32 51.109 202.36 49.729 200.62 48.099C205.02 57.599 210.24 68.449 211.61 69.539L249.39 45.019H244.32Z" fill="var(--sapContent_Illustrative_Color22)"/>
<path d="M157.93 120.359C157.93 120.359 162.02 122.159 161.08 126.839L185.01 128.089L186.03 133.589H155.19L157.93 120.359Z" fill="var(--sapContent_Illustrative_Color26)"/>
<path d="M159.31 130.159L160.19 124.409C160.33 122.049 158.6 120.029 156.31 119.909L129.34 118.439C127.05 118.319 125.14 120.139 125.07 122.499L123.95 128.239L116.68 127.839C113.41 127.659 110.71 130.239 110.65 133.579L104.13 185.049C104.09 188.069 106.56 190.639 109.65 190.809L186.39 194.989C189.47 195.159 191.56 193.289 192.5 189.869L203.35 138.639C203.69 135.319 201.31 132.459 198.04 132.279L159.32 130.169L159.31 130.159Z" fill="var(--sapContent_Illustrative_Color17)"/>
<path d="M165.565 178.066L139.715 176.656C138.795 176.606 138.165 175.826 138.305 174.926C138.445 174.026 139.315 173.326 140.235 173.376L166.085 174.786C167.005 174.836 167.635 175.616 167.495 176.516C167.355 177.416 166.485 178.116 165.565 178.066ZM153.955 169.166C153.035 169.116 152.405 168.336 152.545 167.436L155.315 150.076L149.935 154.396C149.185 154.996 148.125 154.936 147.575 154.266C147.035 153.596 147.195 152.546 147.945 151.946L156.605 144.996C156.965 144.706 157.455 144.546 157.875 144.566C158.355 144.596 158.725 144.796 158.985 145.126L165.315 152.916C165.855 153.586 165.695 154.636 164.945 155.236C164.195 155.836 163.135 155.776 162.585 155.106L158.665 150.286L155.895 167.646C155.755 168.546 154.885 169.246 153.965 169.196L153.945 169.176L153.955 169.166Z" fill="var(--sapContent_Illustrative_Color27)"/>
</svg>