<svg width="45" height="46" viewBox="0 0 45 46" fill="none" xmlns="http://www.w3.org/2000/svg" id="sapIllus-Dot-SimpleMagnifier">
<path d="M29.0119 24.0869L25.6301 25.4582L27.7892 30.8093L31.1709 29.4415L29.0119 24.0869Z" style="fill:var(--sapContent_Illustrative_Color6)"/>
<path d="M27.7435 30.4522C27.6791 30.4778 27.6205 30.516 27.5711 30.5644C27.5216 30.6129 27.4823 30.6707 27.4553 30.7344C27.4284 30.7982 27.4143 30.8667 27.4141 30.936C27.4138 31.0052 27.4273 31.0738 27.4537 31.1378L32.5705 43.7343C32.7821 44.2373 33.1839 44.6361 33.6882 44.844C34.1926 45.0519 34.7587 45.052 35.2631 44.8441L35.6625 44.678C36.1653 44.4664 36.5641 44.0645 36.7719 43.56C36.9798 43.0556 36.9798 42.4893 36.772 41.9848L31.6552 29.4095C31.629 29.3432 31.5896 29.2829 31.5394 29.2323C31.4892 29.1816 31.4293 29.1417 31.3632 29.1149C31.2971 29.0882 31.2263 29.0751 31.155 29.0765C31.0837 29.078 31.0135 29.0938 30.9485 29.1232L27.7435 30.4522Z" style="fill:var(--sapContent_Illustrative_Color3)"/>
<path d="M25.4958 25.172L25.8492 26.0167C25.8492 26.0167 27.6161 26.8014 29.4677 25.1579L28.9058 23.8077L27.3475 24.5676L25.4958 25.172Z" style="fill:var(--sapContent_Illustrative_Color4)"/>
<path d="M22.9304 25.8928C19.7178 25.8895 16.6212 24.6913 14.2427 22.5313C11.8643 20.3713 10.3739 17.4038 10.0614 14.2057C9.74891 11.0077 10.6366 7.80774 12.5519 5.22798C14.4673 2.64823 17.2733 0.873066 20.4245 0.247637C23.5757 -0.377792 26.8468 0.191217 29.6019 1.84402C32.357 3.49683 34.399 6.11532 35.3311 9.19038C36.2632 12.2654 36.0186 15.5773 34.645 18.482C33.2713 21.3867 30.8667 23.6767 27.8988 24.9067C26.3235 25.5587 24.6353 25.8938 22.9304 25.8928ZM22.9304 0.996717C20.1703 0.991009 17.4937 1.94303 15.3568 3.69047C13.22 5.4379 11.7553 7.87255 11.2125 10.5793C10.6697 13.2861 11.0823 16.0974 12.3801 18.5338C13.6779 20.9703 15.7805 22.8811 18.3293 23.9405C20.8781 24.9999 23.7154 25.1422 26.3575 24.3432C28.9995 23.5442 31.2826 21.8534 32.8176 19.559C34.3526 17.2646 35.0444 14.5087 34.7751 11.7612C34.5057 9.01371 33.2919 6.44471 31.3406 4.49221C29.1099 2.26017 26.0858 1.00324 22.9304 0.996717Z" style="fill:var(--sapContent_Illustrative_Color4)"/>
</svg>
