<svg width="160" height="160" viewBox="0 0 160 160" fill="none" xmlns="http://www.w3.org/2000/svg" id="sapIllus-Dialog-NewMail">
<mask id="mask0_396_6198" style="mask-type:alpha" maskUnits="userSpaceOnUse" x="0" y="9" width="142" height="142">
<circle cx="70.9957" cy="79.9957" r="70.9957" style="fill:var(--sapContent_Illustrative_Color7)"/>
</mask>
<g mask="url(#mask0_396_6198)">
<path d="M165.613 5.82105H-111.995C-113.805 5.81938 -115.597 6.17435 -117.269 6.86566C-118.941 7.55698 -120.461 8.57108 -121.741 9.85001C-123.021 11.1289 -124.037 12.6476 -124.729 14.3192C-125.422 15.9908 -125.779 17.7826 -125.779 19.5921V182.772C-125.779 186.428 -124.327 189.934 -121.742 192.519C-119.157 195.103 -115.651 196.556 -111.995 196.556H165.613C169.269 196.556 172.774 195.103 175.359 192.519C177.944 189.934 179.397 186.428 179.397 182.772V19.5921C179.397 17.7826 179.04 15.9908 178.347 14.3192C177.654 12.6476 176.639 11.1289 175.359 9.85001C174.079 8.57108 172.559 7.55698 170.887 6.86566C169.214 6.17435 167.422 5.81938 165.613 5.82105V5.82105Z" style="fill:var(--sapContent_Illustrative_Color7)"/>
<path d="M-4.77976 43.0144H-36.0163C-37.2841 43.0144 -38.5394 43.2611 -39.7107 43.7403C-40.882 44.2196 -41.9463 44.9221 -42.8427 45.8076C-43.7392 46.6932 -44.4503 47.7445 -44.9355 48.9016C-45.4207 50.0586 -45.6703 51.2988 -45.6703 52.5511C-45.6703 53.8035 -45.4207 55.0436 -44.9355 56.2007C-44.4503 57.3577 -43.7392 58.4091 -42.8427 59.2946C-41.9463 60.1802 -40.882 60.8827 -39.7107 61.3619C-38.5394 61.8412 -37.2841 62.0879 -36.0163 62.0879H-4.77976C-2.21934 62.0879 0.23623 61.0831 2.04672 59.2946C3.85721 57.5061 4.87434 55.0804 4.87434 52.5511C4.87434 50.0218 3.85721 47.5961 2.04672 45.8076C0.23623 44.0192 -2.21934 43.0144 -4.77976 43.0144V43.0144Z" style="fill:var(--sapContent_Illustrative_Color18)"/>
<path d="M11.0735 83.0685H11.0729C8.70294 83.0685 6.78168 84.9164 6.78168 87.1959V88.5875C6.78168 90.867 8.70294 92.7149 11.0729 92.7149H11.0735C13.4435 92.7149 15.3647 90.867 15.3647 88.5875V87.1959C15.3647 84.9164 13.4435 83.0685 11.0735 83.0685Z" style="fill:var(--sapContent_Illustrative_Color18)"/>
<path d="M11.382 88.6975C11.382 88.549 11.2569 88.4287 11.1026 88.4287C10.9483 88.4287 10.8232 88.549 10.8232 88.6975V99.0122C10.8232 99.1606 10.9483 99.281 11.1026 99.281C11.2569 99.281 11.382 99.1606 11.382 99.0122V88.6975Z" style="fill:var(--sapContent_Illustrative_Color19)"/>
<path d="M21.5641 74.4854H21.5633C19.1934 74.4854 17.2722 76.5129 17.2722 79.0139V85.994C17.2722 88.4951 19.1934 90.5226 21.5633 90.5226H21.5641C23.934 90.5226 25.8552 88.4951 25.8552 85.994V79.0139C25.8552 76.5129 23.934 74.4854 21.5641 74.4854Z" style="fill:var(--sapContent_Illustrative_Color18)"/>
<path d="M21.9563 81.8239C21.9563 81.5791 21.7682 81.3806 21.5363 81.3806C21.3043 81.3806 21.1162 81.5791 21.1162 81.8239V98.8375C21.1162 99.0824 21.3043 99.2808 21.5363 99.2808C21.7682 99.2808 21.9563 99.0824 21.9563 98.8375V81.8239Z" style="fill:var(--sapContent_Illustrative_Color19)"/>
<ellipse cx="142.839" cy="30.2986" rx="2.54311" ry="2.54313" style="fill:var(--sapContent_Illustrative_Color10)"/>
<ellipse cx="23.9479" cy="36.0206" rx="1.90735" ry="1.90735" style="fill:var(--sapContent_Illustrative_Color10)"/>
<ellipse cx="107.235" cy="34.1134" rx="1.27157" ry="1.27156" style="fill:var(--sapContent_Illustrative_Color10)"/>
<path d="M-161.065 143.188C-161.065 143.188 -82.5571 115.949 -30.4116 106.472C-3.98155 101.668 10.916 97.8032 37.7761 97.4118C79.7129 96.8006 103.434 103.572 143.634 115.532C172.006 123.972 214.206 143.188 214.206 143.188L-159.157 144.142L-161.065 143.188Z" style="fill:var(--sapContent_Illustrative_Color18)"/>
<path d="M69.6702 110.288V204.227C69.6702 206.66 70.9265 208.636 72.4827 208.636H80.5841V110.288H69.6702Z" style="fill:var(--sapContent_Illustrative_Color19)"/>
<path d="M80.5841 110.288V208.636C81.1723 208.636 81.7365 208.401 82.1524 207.984C82.5683 207.567 82.802 207.001 82.802 206.411V110.288H80.5841Z" style="fill:var(--sapContent_Illustrative_Color20)"/>
</g>
<path d="M54.0207 54.3232H102.153C109.13 54.3232 115.82 57.1034 120.753 62.052C125.687 67.0007 128.458 73.7125 128.458 80.711V106.798C128.458 107.967 127.995 109.088 127.171 109.915C126.347 110.742 125.229 111.206 124.064 111.206H32.1569C30.9914 111.206 29.8737 110.742 29.0496 109.915C28.2254 109.088 27.7625 107.967 27.7625 106.798V80.6747C27.7611 77.2146 28.4393 73.7882 29.7583 70.5912C31.0773 67.3942 33.0112 64.4891 35.4497 62.042C37.8881 59.5949 40.7833 57.6537 43.9697 56.3293C47.1562 55.0049 50.5716 54.3232 54.0207 54.3232V54.3232Z" style="fill:var(--sapContent_Illustrative_Color13)"/>
<path d="M102.861 54.3232H103.12C109.976 54.3232 116.551 57.0553 121.399 61.9184C126.246 66.7814 128.97 73.3772 128.97 80.2546V105.838C128.97 106.421 128.856 106.997 128.633 107.535C128.411 108.073 128.086 108.562 127.675 108.974C127.265 109.386 126.777 109.712 126.241 109.935C125.705 110.158 125.13 110.273 124.55 110.273H81.4268C80.8463 110.273 80.2715 110.158 79.7352 109.935C79.1989 109.712 78.7116 109.386 78.3012 108.974C77.8907 108.562 77.5651 108.073 77.3429 107.535C77.1208 106.997 77.0065 106.421 77.0065 105.838V80.2546C77.0065 73.3772 79.7299 66.7814 84.5777 61.9184C89.4255 57.0553 96.0005 54.3232 102.856 54.3232H102.861Z" style="fill:var(--sapContent_Illustrative_Color2)"/>
<path d="M102.582 57.2073H103.316C106.286 57.2073 109.227 57.794 111.97 58.934C114.714 60.0741 117.207 61.745 119.307 63.8515C121.406 65.958 123.072 68.4587 124.209 71.2109C125.345 73.9632 125.93 76.913 125.93 79.892V107.618H79.9792V79.8972C79.9792 76.9182 80.5641 73.9684 81.7005 71.2161C82.837 68.4639 84.5027 65.9631 86.6025 63.8567C88.7024 61.7502 91.1953 60.0792 93.9388 58.9392C96.6824 57.7992 99.623 57.2125 102.593 57.2125L102.582 57.2073Z" style="fill:var(--sapContent_Illustrative_Color14)"/>
<path d="M158.211 107.623H78.2783C77.2903 107.623 76.4894 108.426 76.4894 109.417V109.422C76.4894 110.413 77.2903 111.217 78.2783 111.217H158.211C159.199 111.217 160 110.413 160 109.422V109.417C160 108.426 159.199 107.623 158.211 107.623Z" style="fill:var(--sapContent_Illustrative_Color13)"/>
<path d="M112.302 105.621L114.085 85.358L92.8266 95.9795C92.3699 96.2148 91.8639 96.3375 91.3505 96.3375C90.8372 96.3375 90.3312 96.2148 89.8745 95.9795L79.9637 90.6843V107.405H110.363C110.848 107.397 111.313 107.211 111.671 106.883C112.028 106.554 112.253 106.105 112.302 105.621V105.621Z" style="fill:var(--sapContent_Illustrative_Color8)"/>
<path d="M92.8266 95.9795L114.085 85.358C114.111 85.1313 114.089 84.9017 114.019 84.6846C113.949 84.4675 113.833 84.2679 113.68 84.0994C113.526 83.9308 113.339 83.7972 113.13 83.7074C112.921 83.6177 112.695 83.574 112.467 83.5791H79.9637V90.6843L89.8693 95.9951C90.3279 96.2288 90.8355 96.3493 91.3498 96.3466C91.8642 96.3439 92.3705 96.218 92.8266 95.9795Z" style="fill:var(--sapContent_Illustrative_Color6)"/>
<path d="M66.9944 38H48.9925C48.464 38 47.9572 38.208 47.5836 38.5783C47.2099 38.9486 47 39.4508 47 39.9745V47.5104C47 48.0341 47.2099 48.5363 47.5836 48.9066C47.9572 49.2769 48.464 49.4849 48.9925 49.4849H56.103V50.4535V90.6028C56.1036 91.319 56.248 92.0278 56.5276 92.6882C56.8072 93.3486 57.2165 93.9473 57.7318 94.4495C58.247 94.9516 58.8579 95.3473 59.5288 95.6133C60.1998 95.8794 60.9174 96.0106 61.64 95.9993C61.8809 95.9915 62.1212 95.9702 62.3597 95.9355C63.6681 95.7064 64.8522 95.0252 65.7017 94.0129C66.5512 93.0005 67.0112 91.7225 66.9998 90.4059V38.016L66.9944 38Z" style="fill:var(--sapContent_Illustrative_Color15)"/>
<path d="M65.9038 38.2461H47.8774C47.3482 38.2461 46.8407 38.4513 46.4666 38.8166C46.0924 39.1819 45.8822 39.6774 45.8822 40.194V47.6287C45.8822 48.1453 46.0924 48.6408 46.4666 49.0061C46.8407 49.3714 47.3482 49.5766 47.8774 49.5766H54.9976V50.5322V90.1418C54.9982 90.8484 55.1427 91.5477 55.4227 92.1992C55.7027 92.8507 56.1126 93.4414 56.6285 93.9368C57.1445 94.4322 57.7562 94.8225 58.428 95.085C59.0999 95.3475 59.8185 95.477 60.5421 95.4658C60.7833 95.4581 61.0239 95.4371 61.2627 95.4028C62.5729 95.1769 63.7586 94.5048 64.6093 93.5061C65.46 92.5073 65.9205 91.2465 65.9091 89.9476V38.2618L65.9038 38.2461Z" style="fill:var(--sapContent_Illustrative_Color3)"/>
</svg>
