<svg width="148" height="160" viewBox="0 0 148 160" fill="none" xmlns="http://www.w3.org/2000/svg" id="sapIllus-Dialog-EmptyList">
<mask id="mask0_396_6637" class="sapIllus_MaskTypeAlpha" maskUnits="userSpaceOnUse" x="0" y="0" width="148" height="160">
<path d="M147.498 101.023C147.498 133.595 114.507 160 73.8111 160C33.1148 160 0.123883 133.595 0.123883 101.023C0.123883 68.4516 -6.32375 -1.54782 73.8111 0.0261035C148.88 1.50052 147.498 68.4516 147.498 101.023Z" fill="#C4C4C4"/>
</mask>
<g mask="url(#mask0_396_6637)">
<circle cx="73.7207" cy="97.7207" r="73.7207" fill="var(--sapContent_Illustrative_Color7)"/>
<path d="M117.417 47.9587H17.3525C11.8405 47.9587 7.37207 52.4271 7.37207 57.9392V249.885C7.37207 255.397 11.8405 259.865 17.3525 259.865H117.417C122.929 259.865 127.398 255.397 127.398 249.885V57.9392C127.398 52.4271 122.929 47.9587 117.417 47.9587Z" fill="var(--sapContent_Illustrative_Color19)"/>
<path d="M129.855 47.9585H29.79C24.278 47.9585 19.8096 52.4269 19.8096 57.9389V249.885C19.8096 255.397 24.278 259.865 29.79 259.865H129.855C135.367 259.865 139.835 255.397 139.835 249.885V57.9389C139.835 52.4269 135.367 47.9585 129.855 47.9585Z" fill="var(--sapContent_Illustrative_Color18)"/>
<path d="M35.7643 92.6741H34.2977C32.1518 92.6741 30.4122 94.4137 30.4122 96.5596V240.203C30.4122 242.349 32.1518 244.089 34.2977 244.089H35.7643C37.9102 244.089 39.6498 242.349 39.6498 240.203V96.5596C39.6498 94.4137 37.9102 92.6741 35.7643 92.6741Z" fill="var(--sapContent_Illustrative_Color7)"/>
<path d="M139.835 115.124H19.8096V118.298H139.835V115.124Z" fill="var(--sapContent_Illustrative_Color19)"/>
<path d="M130.49 92.6741H109.068C107.498 92.6741 106.224 93.9475 106.224 95.5184V95.5247C106.224 97.0956 107.498 98.369 109.068 98.369H130.49C132.06 98.369 133.334 97.0956 133.334 95.5247V95.5184C133.334 93.9475 132.06 92.6741 130.49 92.6741Z" fill="var(--sapContent_Illustrative_Color19)"/>
<path d="M39.6498 66.809C39.6498 64.2563 37.5819 62.187 35.031 62.187C32.4801 62.187 30.4122 64.2563 30.4122 66.809V77.2085C30.4122 79.7611 32.4801 81.8304 35.031 81.8304C37.5819 81.8304 39.6498 79.7611 39.6498 77.2085V66.809Z" fill="var(--sapContent_Illustrative_Color7)"/>
<path d="M93.0565 119.136V79.8995C93.0669 79.1722 92.7912 78.47 92.2889 77.9439C91.7867 77.4179 91.0979 77.1101 90.3709 77.0869H65.496C64.7115 77.0869 63.9346 77.2414 63.2098 77.5417C62.4849 77.8419 61.8263 78.282 61.2716 78.8368C60.7168 79.3915 60.2767 80.0501 59.9765 80.7749C59.6763 81.4998 59.5217 82.2767 59.5217 83.0612V119.809C59.5234 121.392 60.1534 122.911 61.2734 124.031C62.3935 125.151 63.9121 125.781 65.496 125.783H98.9229V125.738C97.3061 125.547 95.8158 124.769 94.7345 123.552C93.6532 122.335 93.0561 120.764 93.0565 119.136Z" fill="var(--sapContent_Illustrative_Color6)"/>
<path d="M93.0565 117.231V77.9952C93.0669 77.2679 92.7912 76.5657 92.2889 76.0396C91.7867 75.5136 91.0979 75.2058 90.3709 75.1826H65.496C64.7115 75.1826 63.9346 75.3371 63.2098 75.6374C62.4849 75.9376 61.8263 76.3777 61.2716 76.9325C60.7168 77.4872 60.2767 78.1458 59.9765 78.8706C59.6763 79.5955 59.5217 80.3724 59.5217 81.1569V117.904C59.5234 119.488 60.1534 121.007 61.2734 122.127C62.3935 123.247 63.9121 123.877 65.496 123.879H98.9229V123.834C97.3061 123.643 95.8158 122.865 94.7345 121.648C93.6532 120.431 93.0561 118.859 93.0565 117.231Z" fill="var(--sapContent_Illustrative_Color8)"/>
<path d="M76.2891 85.7661H65.7564C65.0305 85.7661 64.4421 86.3545 64.4421 87.0803V87.0867C64.4421 87.8125 65.0305 88.4009 65.7564 88.4009H76.2891C77.015 88.4009 77.6034 87.8125 77.6034 87.0867V87.0803C77.6034 86.3545 77.015 85.7661 76.2891 85.7661Z" fill="var(--sapContent_Illustrative_Color3)"/>
<path d="M77.705 72.0076H76.3019C75.8881 72.0076 75.5527 72.343 75.5527 72.7567V76.0708C75.5527 76.4846 75.8881 76.82 76.3019 76.82H77.705C78.1188 76.82 78.4542 76.4846 78.4542 76.0708V72.7567C78.4542 72.343 78.1188 72.0076 77.705 72.0076Z" fill="var(--sapContent_Illustrative_Color6)"/>
<path d="M57.5479 62.4859C57.4417 62.5825 57.3636 62.706 57.3217 62.8432C57.2798 62.9805 57.2757 63.1265 57.3099 63.2659L58.0355 66.6022C58.1553 67.1541 58.6761 67.3519 59.109 67.258C59.2876 67.226 59.4509 67.137 59.5745 67.0043C59.6981 66.8716 59.7752 66.7024 59.7943 66.5221C59.801 66.4348 59.7944 66.3469 59.7747 66.2615L59.049 62.9252C59.0202 62.7781 58.9521 62.6416 58.852 62.5301C58.7519 62.4186 58.6235 62.3361 58.4803 62.2916C58.3212 62.2419 58.1521 62.2337 57.9889 62.2677C57.8257 62.3018 57.6739 62.3768 57.5479 62.4859Z" fill="var(--sapContent_Illustrative_Color5)"/>
<path d="M44.6576 75.8369C44.6287 75.9354 44.6206 76.0389 44.634 76.1407C44.6473 76.2426 44.6817 76.3405 44.7351 76.4283C44.7884 76.5161 44.8595 76.5918 44.9438 76.6505C45.028 76.7093 45.1237 76.7499 45.2245 76.7697L48.4578 77.5593C48.5742 77.5873 48.6949 77.5918 48.8131 77.5727C48.9312 77.5535 49.0443 77.511 49.1459 77.4477C49.2474 77.3844 49.3353 77.3015 49.4044 77.2038C49.4735 77.1062 49.5224 76.9958 49.5484 76.879C49.5604 76.8312 49.5685 76.7824 49.5726 76.7333C49.5902 76.5518 49.5391 76.3704 49.4295 76.2247C49.3199 76.079 49.1596 75.9797 48.9803 75.9463L45.7482 75.1578C45.632 75.1297 45.5112 75.1249 45.3931 75.1439C45.275 75.1629 45.1618 75.2053 45.0602 75.2685C44.9587 75.3317 44.8708 75.4146 44.8016 75.5122C44.7325 75.6098 44.6835 75.7202 44.6576 75.8369Z" fill="var(--sapContent_Illustrative_Color5)"/>
<path d="M48.629 67.3925C48.6265 67.5047 48.6469 67.6161 48.6891 67.7202C48.7312 67.8242 48.7941 67.9185 48.8739 67.9974L52.4199 71.5718C52.5798 71.7312 52.7952 71.8227 53.0211 71.8271C53.2469 71.8315 53.4658 71.7485 53.6318 71.5954C53.7852 71.4527 53.8794 71.2577 53.8956 71.049C53.9048 70.9287 53.8879 70.8078 53.8461 70.6946C53.8043 70.5813 53.7386 70.4785 53.6534 70.3929L50.1074 66.8185C49.9467 66.658 49.7301 66.5661 49.5029 66.562C49.2758 66.5579 49.0559 66.6419 48.8895 66.7964C48.8081 66.8731 48.7431 66.9654 48.6983 67.0679C48.6536 67.1703 48.63 67.2807 48.629 67.3925Z" fill="var(--sapContent_Illustrative_Color5)"/>
</g>
</svg>
