<svg width="160" height="160" viewBox="0 0 160 160" fill="none" xmlns="http://www.w3.org/2000/svg" id="sapIllus-Dialog-ResizingColumns">
<rect y="50" width="160" height="69" rx="12" fill="var(--sapContent_Illustrative_Color20)"/>
<path d="M30.3388 52.9482L40.781 90.8938C41.0045 91.7094 41.7992 92.2351 42.6352 92.1275L114.017 83.4836C116.633 82.8212 117.378 80.7099 117.026 79.6915L75.965 47.3801C75.7126 46.6598 75.0131 46.1961 74.2557 46.2458L32.3999 47.4754C31.3238 47.5416 29.1675 49.0899 30.3388 52.9482Z" fill="var(--sapContent_Illustrative_Color14)"/>
<path d="M30.8848 49.6108L41.8403 89.4194C42.0638 90.2349 42.8584 90.7607 43.6945 90.653L115.635 81.9387C116.703 81.8021 117.378 80.7133 117.022 79.6949L103.19 44.1379C102.937 43.4176 102.238 42.954 101.481 43.0036L32.4162 47.4622C31.3401 47.5285 30.5993 48.5676 30.8848 49.6067V49.6108Z" fill="var(--sapContent_Illustrative_Color2)"/>
<path d="M48.8468 57.4391L39.6378 58.1775C39.2887 58.2056 39.064 58.4543 39.1442 58.7352L39.6137 60.4045C39.6939 60.6854 40.043 60.89 40.3921 60.8579L49.6292 60.0795C49.9703 60.0514 50.183 59.8026 50.0987 59.5257L49.6092 57.8846C49.5289 57.6117 49.1838 57.4111 48.8427 57.4391H48.8468Z" fill="var(--sapContent_Illustrative_Color8)"/>
<path d="M50.2432 62.1503L40.9861 62.9608C40.633 62.9929 40.4123 63.2457 40.4925 63.5306L40.966 65.224C41.0463 65.5089 41.3994 65.7135 41.7525 65.6814L51.0378 64.8307C51.3828 64.7986 51.5915 64.5458 51.5072 64.2649L51.0137 62.5997C50.9294 62.3228 50.5843 62.1182 50.2432 62.1503Z" fill="var(--sapContent_Illustrative_Color8)"/>
<path d="M51.6639 66.9365L42.3586 67.8193C42.0054 67.8514 41.7807 68.1122 41.861 68.4011L42.3425 70.1185C42.4228 70.4075 42.7799 70.6121 43.133 70.58L52.4664 69.6531C52.8115 69.617 53.0241 69.3602 52.9399 69.0753L52.4383 67.3859C52.354 67.1051 52.0089 66.9004 51.6639 66.9325V66.9365Z" fill="var(--sapContent_Illustrative_Color8)"/>
<path d="M53.1003 71.7893L43.7428 72.7483C43.3857 72.7844 43.161 73.0493 43.2453 73.3422L43.7348 75.0877C43.8191 75.3806 44.1762 75.5893 44.5333 75.5491L53.9189 74.546C54.268 74.5099 54.4766 74.245 54.3923 73.9561L53.8827 72.2427C53.7985 71.9578 53.4494 71.7532 53.1003 71.7893Z" fill="var(--sapContent_Illustrative_Color8)"/>
<path d="M54.5606 76.7163L45.151 77.7556C44.7939 77.7957 44.5692 78.0686 44.6535 78.3655L45.151 80.1391C45.2353 80.4361 45.5964 80.6447 45.9535 80.6046L55.3913 79.5212C55.7404 79.481 55.953 79.2122 55.8648 78.9193L55.3471 77.1778C55.2588 76.8849 54.9097 76.6802 54.5606 76.7204V76.7163Z" fill="var(--sapContent_Illustrative_Color8)"/>
<path d="M56.0415 81.7212L46.5837 82.8407C46.2226 82.8849 45.9979 83.1618 46.0822 83.4627L46.5877 85.2644C46.672 85.5653 47.0372 85.778 47.3983 85.7339L56.8842 84.5702C57.2373 84.5261 57.4459 84.2492 57.3577 83.9522L56.832 82.1867C56.7437 81.8898 56.3906 81.6851 56.0375 81.7252L56.0415 81.7212Z" fill="var(--sapContent_Illustrative_Color8)"/>
<path d="M68.2199 55.8866L59.5486 56.5808C59.2196 56.6088 59.019 56.8456 59.1032 57.1184L59.6088 58.7315C59.6931 59.0044 60.0301 59.201 60.3632 59.1729L69.0586 58.4386C69.3796 58.4105 69.5722 58.1738 69.4839 57.9049L68.9623 56.3159C68.874 56.0511 68.5449 55.8545 68.2239 55.8826L68.2199 55.8866Z" fill="var(--sapContent_Illustrative_Color8)"/>
<path d="M69.7167 60.4455L61.0053 61.2079C60.6722 61.236 60.4716 61.4808 60.5599 61.7577L61.0735 63.3948C61.1578 63.6717 61.4988 63.8683 61.8319 63.8402L70.5674 63.0377C70.8924 63.0096 71.081 62.7648 70.9927 62.492L70.4631 60.8829C70.3748 60.6141 70.0417 60.4175 69.7167 60.4455Z" fill="var(--sapContent_Illustrative_Color8)"/>
<path d="M71.2291 65.0742L62.4736 65.9048C62.1405 65.937 61.9399 66.1857 62.0282 66.4666L62.5458 68.1278C62.6341 68.4087 62.9751 68.6094 63.3122 68.5733L72.0918 67.7025C72.4169 67.6704 72.6055 67.4216 72.5172 67.1448L71.9795 65.5116C71.8912 65.2388 71.5541 65.0421 71.2291 65.0742Z" fill="var(--sapContent_Illustrative_Color8)"/>
<path d="M72.766 69.7705L63.9663 70.6734C63.6293 70.7095 63.4286 70.9623 63.5169 71.2472L64.0426 72.9325C64.1308 73.2174 64.4759 73.418 64.813 73.3819L73.6368 72.4389C73.9618 72.4028 74.1544 72.15 74.0621 71.8691L73.5164 70.2119C73.4241 69.935 73.087 69.7384 72.762 69.7705H72.766Z" fill="var(--sapContent_Illustrative_Color8)"/>
<path d="M74.3268 74.534L65.4829 75.5091C65.1459 75.5452 64.9452 75.81 65.0335 76.0949L65.5672 77.8083C65.6555 78.0972 66.0046 78.2978 66.3416 78.2617L75.2095 77.2425C75.5386 77.2064 75.7272 76.9456 75.6349 76.6607L75.0811 74.9794C74.9889 74.6985 74.6478 74.4979 74.3228 74.534H74.3268Z" fill="var(--sapContent_Illustrative_Color8)"/>
<path d="M75.9079 79.3713L67.0199 80.4226C66.6829 80.4628 66.4782 80.7316 66.5705 81.0205L67.1122 82.758C67.2045 83.0509 67.5536 83.2556 67.8947 83.2114L76.8067 82.116C77.1358 82.0758 77.3284 81.811 77.2321 81.5221L76.6703 79.8167C76.578 79.5318 76.2329 79.3312 75.9039 79.3713H75.9079Z" fill="var(--sapContent_Illustrative_Color8)"/>
<path d="M88.0661 58.8406L79.8483 59.5588C79.5353 59.5869 79.3547 59.8237 79.447 60.0885L79.9887 61.6735C80.081 61.9383 80.41 62.1349 80.723 62.1028L88.9609 61.3485C89.2659 61.3204 89.4384 61.0836 89.3421 60.8228L88.7844 59.2619C88.6921 59.0011 88.3671 58.8125 88.0661 58.8365V58.8406Z" fill="var(--sapContent_Illustrative_Color8)"/>
<path d="M89.6633 63.3238L81.4093 64.1063C81.0963 64.1344 80.9157 64.3791 81.008 64.648L81.5578 66.257C81.65 66.5259 81.9831 66.7225 82.2961 66.6904L90.5701 65.8678C90.8751 65.8357 91.0476 65.595 90.9513 65.3301L90.3856 63.7491C90.2892 63.4843 89.9682 63.2917 89.6593 63.3238H89.6633Z" fill="var(--sapContent_Illustrative_Color8)"/>
<path d="M91.2886 67.8692L82.9985 68.7199C82.6815 68.752 82.5009 69.0008 82.5972 69.2736L83.155 70.9068C83.2473 71.1796 83.5843 71.3763 83.8973 71.3442L92.2075 70.4534C92.5164 70.4213 92.685 70.1765 92.5887 69.9036L92.0149 68.2986C91.9185 68.0297 91.5935 67.8371 91.2846 67.8692H91.2886Z" fill="var(--sapContent_Illustrative_Color8)"/>
<path d="M92.9336 72.4799L84.6074 73.3988C84.2904 73.4349 84.1098 73.6877 84.2061 73.9646L84.7719 75.6218C84.8682 75.8987 85.2012 76.0953 85.5222 76.0592L93.8725 75.1002C94.1815 75.0641 94.354 74.8153 94.2537 74.5384L93.6719 72.9093C93.5756 72.6364 93.2466 72.4438 92.9376 72.4799H92.9336Z" fill="var(--sapContent_Illustrative_Color8)"/>
<path d="M94.6031 77.1556L86.2367 78.1467C85.9198 78.1828 85.7392 78.4437 85.8355 78.7246L86.4093 80.4058C86.5056 80.6867 86.8427 80.8874 87.1637 80.8472L95.5501 79.816C95.859 79.7759 96.0316 79.5231 95.9313 79.2422L95.3414 77.593C95.2411 77.3161 94.9121 77.1235 94.6031 77.1596V77.1556Z" fill="var(--sapContent_Illustrative_Color8)"/>
<path d="M103.74 53.0332L96.0113 53.6552C95.7183 53.6792 95.5538 53.9039 95.6501 54.1567L96.2119 55.6735C96.3082 55.9303 96.6212 56.1149 96.9181 56.0908L104.667 55.4368C104.955 55.4127 105.108 55.188 105.012 54.9392L104.438 53.4465C104.341 53.1977 104.033 53.0131 103.744 53.0372L103.74 53.0332Z" fill="var(--sapContent_Illustrative_Color8)"/>
<path d="M105.393 57.324L97.6322 58.0021C97.3353 58.0262 97.1748 58.2589 97.2711 58.5157L97.8409 60.0526C97.9372 60.3094 98.2542 60.498 98.5511 60.4699L106.332 59.7557C106.621 59.7276 106.773 59.5029 106.677 59.246L106.095 57.7333C105.999 57.4805 105.686 57.2959 105.397 57.32L105.393 57.324Z" fill="var(--sapContent_Illustrative_Color8)"/>
<path d="M107.062 61.6704L99.2694 62.4127C98.9725 62.4408 98.812 62.6736 98.9083 62.9344L99.4861 64.4913C99.5824 64.7521 99.9034 64.9407 100.2 64.9126L108.013 64.1382C108.302 64.1101 108.454 63.8774 108.358 63.6206L107.768 62.0877C107.668 61.8309 107.355 61.6463 107.066 61.6744L107.062 61.6704Z" fill="var(--sapContent_Illustrative_Color8)"/>
<path d="M108.759 66.0776L100.935 66.8802C100.638 66.9123 100.473 67.149 100.573 67.4138L101.159 68.9948C101.26 69.2597 101.581 69.4523 101.878 69.4202L109.722 68.5815C110.011 68.5494 110.168 68.3127 110.067 68.0519L109.469 66.499C109.369 66.2381 109.052 66.0536 108.763 66.0817L108.759 66.0776Z" fill="var(--sapContent_Illustrative_Color8)"/>
<path d="M110.477 70.5417L102.62 71.4084C102.319 71.4405 102.159 71.6853 102.259 71.9542L102.853 73.5552C102.953 73.824 103.278 74.0167 103.579 73.9805L111.456 73.0777C111.749 73.0456 111.901 72.8008 111.797 72.536L111.187 70.959C111.087 70.6942 110.766 70.5096 110.477 70.5417Z" fill="var(--sapContent_Illustrative_Color8)"/>
<path d="M112.222 75.0712L104.333 76.0062C104.032 76.0423 103.872 76.2911 103.972 76.5639L104.574 78.189C104.674 78.4619 105.003 78.6545 105.304 78.6184L113.213 77.6473C113.506 77.6112 113.659 77.3624 113.554 77.0936L112.936 75.4966C112.832 75.2277 112.511 75.0391 112.222 75.0752V75.0712Z" fill="var(--sapContent_Illustrative_Color8)"/>
<path d="M103.19 44.1379C102.937 43.4176 102.238 42.954 101.481 43.0036L32.4162 47.4622C31.3401 47.5285 30.5993 48.5676 30.8848 49.6067L32.4203 55.183L105.114 49.0892L103.186 44.1338L103.19 44.1379Z" fill="var(--sapContent_Illustrative_Color22)"/>
<path d="M95.6105 111.942L57.3487 99.6965C57.3487 99.6965 56.9573 99.5744 56.9373 99.3719C56.9173 99.1693 57.29 99.0628 57.29 99.0628L67.7824 96.1388C67.7824 96.1388 68.1888 95.9966 68.4616 95.9966C68.7343 95.9966 69.1752 96.1388 69.1752 96.1388L103.497 107.469L95.6105 111.942Z" fill="var(--sapContent_Illustrative_Color21)"/>
<path d="M88.4069 58.3982L90.2484 58.3566L115.16 56.7183L129.795 88.6934C130.294 89.7718 129.85 91.0491 128.795 91.5906L128.49 91.7526L101.871 95.978C100.4 96.2094 98.9609 95.3717 98.4519 93.9694L87.0466 62.9569C86.3341 61.027 87.0975 58.9999 88.4162 58.3982H88.4069Z" fill="var(--sapContent_Illustrative_Color14)"/>
<path d="M88.9207 58.2659L115.229 55.887C115.905 55.8269 116.539 56.211 116.793 56.8358L129.864 88.8711C130.239 89.7875 129.661 90.8149 128.684 90.9676L102.538 95.1144C101.376 95.2949 100.252 94.6377 99.8448 93.5362L87.6252 60.33C87.2781 59.3812 87.9213 58.3584 88.9299 58.2659H88.9253H88.9207Z" fill="var(--sapContent_Illustrative_Color8)"/>
<path d="M112.897 62.7047L98.3818 64.2805C98.0721 64.3136 97.8872 64.5313 97.975 64.7726L99.0845 67.9054C99.1677 68.1468 99.4913 68.3077 99.801 68.2745L114.353 66.5852C114.644 66.5521 114.815 66.3344 114.728 66.1025L113.586 63.0691C113.498 62.8372 113.193 62.681 112.902 62.7094L112.897 62.7047Z" fill="var(--sapContent_Illustrative_Color2)"/>
<path d="M115.162 68.7345L100.587 70.4901C100.277 70.5279 100.092 70.7551 100.18 70.9964L101.308 74.186C101.396 74.4274 101.719 74.593 102.029 74.5552L116.641 72.6812C116.937 72.6434 117.104 72.421 117.016 72.1844L115.856 69.0989C115.768 68.867 115.458 68.7061 115.167 68.7392L115.162 68.7345Z" fill="var(--sapContent_Illustrative_Color2)"/>
<path d="M117.464 74.863L102.828 76.8079C102.514 76.8505 102.334 77.0824 102.422 77.3285L103.573 80.5701C103.661 80.8162 103.984 80.9819 104.298 80.9393L118.971 78.8713C119.267 78.8287 119.433 78.6016 119.341 78.3602L118.157 75.2227C118.069 74.9861 117.755 74.8252 117.464 74.863Z" fill="var(--sapContent_Illustrative_Color2)"/>
<path d="M119.808 81.0909L105.117 83.2298C104.803 83.2772 104.622 83.5138 104.71 83.7646L105.88 87.063C105.968 87.3138 106.296 87.4795 106.61 87.4322L121.343 85.1655C121.638 85.1181 121.805 84.8863 121.712 84.6402L120.511 81.4506C120.418 81.2092 120.108 81.0483 119.808 81.0909Z" fill="var(--sapContent_Illustrative_Color2)"/>
<path d="M86.152 51.3958C85.733 49.6094 83.745 48.2604 81.6944 48.4075C79.6218 48.5582 78.3246 50.1755 78.8097 51.9913C78.9457 52.4985 79.2066 52.9616 79.5557 53.3623C79.4528 53.1748 80.9374 53.2667 80.8713 53.0646C80.3348 51.3811 80.8897 50.6496 81.7863 50.2821C83.1938 49.705 85.0018 50.5136 85.2406 52.1934C85.3913 53.2557 84.796 54.3511 83.8148 54.7958C85.5052 54.4246 86.5268 52.9984 86.152 51.3921V51.3958Z" fill="var(--sapContent_Illustrative_Color1)"/>
<path d="M95.6002 111.937L96.4307 111.996C96.5887 112.007 96.7468 111.996 96.9011 111.97L97.3053 111.893L74.856 47.498L74.0218 47.5458C73.7976 47.5605 73.5551 47.6377 73.217 47.9575C73.081 48.0862 72.8128 48.4206 72.8128 48.4206C72.6878 48.6596 72.743 48.9389 72.8311 49.1925L95.2695 111.691C95.3209 111.834 95.4496 111.929 95.6002 111.94V111.937Z" fill="var(--sapContent_Illustrative_Color1)"/>
<path d="M86.1265 46.896L74.0181 47.5466C73.6947 47.565 73.4779 47.8884 73.5881 48.1935L96.4931 111.596C96.5813 111.835 96.8276 111.978 97.0774 111.934L108.969 109.82C109.157 109.787 109.27 109.592 109.204 109.409L86.6079 47.2158C86.5344 47.0173 86.3397 46.885 86.1265 46.8997V46.896ZM83.9511 53.2476C82.595 53.3689 81.2243 52.5014 80.8973 51.2921C80.5666 50.0608 81.4448 48.9654 82.8523 48.8662C84.2414 48.7669 85.59 49.6822 85.873 50.8915C86.1523 52.0824 85.296 53.13 83.9547 53.2513L83.9511 53.2476Z" fill="var(--sapContent_Illustrative_Color24)"/>
<path d="M83.3778 58.5331L83.0361 57.5777C83.0177 57.5262 83.0544 57.4711 83.1059 57.4674L88.6658 56.9971C88.7026 56.9971 88.7357 57.0154 88.7504 57.0522L89.0921 57.9966C89.1105 58.0481 89.0774 58.1032 89.0223 58.1069L83.466 58.5883C83.4293 58.5883 83.3925 58.5699 83.3815 58.5331H83.3778Z" fill="var(--sapContent_Illustrative_Color1)"/>
<path d="M88.9853 74.171L88.6399 73.2082C88.6215 73.1568 88.6546 73.1053 88.7097 73.098L94.2329 72.4843C94.2697 72.4806 94.3064 72.5027 94.3174 72.5394L94.6592 73.4912C94.6776 73.5426 94.6445 73.5941 94.5894 73.6014L89.0698 74.2261C89.0331 74.2298 88.9963 74.2078 88.9816 74.171H88.9853Z" fill="var(--sapContent_Illustrative_Color1)"/>
<path d="M86.7402 61.2198C86.7034 61.2198 86.6667 61.2014 86.6557 61.1646L86.4756 60.6685L89.8711 60.3599C89.9078 60.3599 89.9446 60.3782 89.9556 60.415L90.132 60.9074L86.7365 61.2161L86.7402 61.2198Z" fill="var(--sapContent_Illustrative_Color1)"/>
<path d="M87.8574 64.3346C87.8206 64.3346 87.7839 64.3162 87.7728 64.2794L87.5928 63.7833L90.9846 63.46C91.0214 63.46 91.0581 63.4783 91.0691 63.5151L91.2455 64.0075L87.8537 64.3346H87.8574Z" fill="var(--sapContent_Illustrative_Color1)"/>
<path d="M88.8896 67.3964L88.7463 66.9995C88.7279 66.948 88.761 66.8966 88.8161 66.8892L92.0977 66.5585C92.1345 66.5548 92.1712 66.5769 92.1823 66.6136L92.3586 67.106L88.9705 67.4515C88.9337 67.4552 88.897 67.4331 88.886 67.3964H88.8896Z" fill="var(--sapContent_Illustrative_Color1)"/>
<path d="M90.0107 70.5117L89.8674 70.1111C89.849 70.0597 89.8821 70.0082 89.9372 70.0009L93.2152 69.6518C93.2519 69.6481 93.2886 69.6701 93.2997 69.7069L93.443 70.1038C93.4614 70.1552 93.4283 70.2067 93.3732 70.214L90.0952 70.5668C90.0585 70.5705 90.0217 70.5484 90.0107 70.5117Z" fill="var(--sapContent_Illustrative_Color1)"/>
<path d="M94.6521 89.9753L94.303 89.0051C94.2846 88.9573 94.3177 88.9022 94.3691 88.8949L99.8556 88.1342C99.8924 88.1305 99.9328 88.1526 99.9438 88.1893L100.289 89.1484C100.308 89.1962 100.275 89.2513 100.223 89.2587L94.7366 90.0304C94.6999 90.0341 94.6594 90.012 94.6484 89.9753H94.6521Z" fill="var(--sapContent_Illustrative_Color1)"/>
<path d="M92.2817 76.8387L92.1384 76.4381C92.1201 76.3867 92.1531 76.3352 92.2046 76.3279L95.4751 75.9457C95.5119 75.942 95.5486 75.9641 95.5633 76.0008L95.7067 76.3977C95.725 76.4492 95.692 76.5006 95.6405 76.508L92.3699 76.8938C92.3332 76.8975 92.2964 76.8754 92.2817 76.8387Z" fill="var(--sapContent_Illustrative_Color1)"/>
<path d="M93.4063 79.9699L93.2629 79.5693C93.2446 79.5215 93.2776 79.4664 93.3291 79.4591L96.596 79.0585C96.6327 79.0548 96.6695 79.0769 96.6842 79.1136L96.8275 79.5105C96.8459 79.5583 96.8128 79.6134 96.7613 79.6207L93.4944 80.025C93.4577 80.0287 93.421 80.0066 93.4063 79.9699Z" fill="var(--sapContent_Illustrative_Color1)"/>
<path d="M94.5308 83.1008L94.3875 82.6966C94.3691 82.6488 94.4021 82.5937 94.4536 82.5863L97.7168 82.1674C97.7536 82.1637 97.7903 82.1858 97.805 82.2225L97.9483 82.6231C97.9667 82.6708 97.9336 82.726 97.8822 82.7333L94.619 83.1559C94.5822 83.1596 94.5455 83.1375 94.5308 83.1008Z" fill="var(--sapContent_Illustrative_Color1)"/>
<path d="M95.6553 86.2412L95.512 85.837C95.4936 85.7892 95.5267 85.7341 95.5781 85.7268L98.8377 85.2895C98.8744 85.2858 98.9112 85.3078 98.9259 85.3446L99.0692 85.7451C99.0875 85.7929 99.0545 85.848 99.003 85.8554L95.7472 86.2927C95.7104 86.2964 95.6737 86.2743 95.659 86.2376L95.6553 86.2412Z" fill="var(--sapContent_Illustrative_Color1)"/>
<path d="M100.352 105.876L100.003 104.898C99.9843 104.851 100.017 104.799 100.065 104.788L105.519 103.877C105.559 103.87 105.596 103.892 105.61 103.928L105.96 104.895C105.978 104.943 105.945 104.994 105.897 105.005L100.447 105.927C100.407 105.935 100.37 105.913 100.355 105.876H100.352Z" fill="var(--sapContent_Illustrative_Color1)"/>
<path d="M97.9412 92.6028L97.7942 92.1986C97.7758 92.1508 97.8089 92.0957 97.8603 92.0883L101.109 91.618C101.149 91.6106 101.186 91.6363 101.197 91.6731L101.34 92.0736C101.359 92.1214 101.326 92.1765 101.274 92.1839L98.0257 92.6579C97.9853 92.6653 97.9485 92.6396 97.9375 92.6028H97.9412Z" fill="var(--sapContent_Illustrative_Color1)"/>
<path d="M99.0691 95.7541L98.9221 95.3499C98.9037 95.3021 98.9368 95.247 98.9883 95.2397L102.233 94.7509C102.274 94.7436 102.31 94.7656 102.321 94.806L102.465 95.2103C102.483 95.258 102.45 95.3132 102.398 95.3205L99.1536 95.8129C99.1132 95.8203 99.0765 95.7982 99.0654 95.7578L99.0691 95.7541Z" fill="var(--sapContent_Illustrative_Color1)"/>
<path d="M100.201 98.9031L100.054 98.4952C100.036 98.4475 100.069 98.396 100.12 98.385L103.361 97.8779C103.402 97.8705 103.438 97.8926 103.449 97.933L103.596 98.3372C103.615 98.385 103.582 98.4364 103.53 98.4475L100.289 98.9583C100.249 98.9656 100.212 98.9436 100.201 98.9031Z" fill="var(--sapContent_Illustrative_Color1)"/>
<path d="M101.337 102.061L101.19 101.653C101.171 101.605 101.204 101.554 101.252 101.543L104.49 101.018C104.53 101.01 104.567 101.032 104.582 101.069L104.729 101.473C104.747 101.521 104.714 101.572 104.666 101.583L101.429 102.109C101.388 102.116 101.351 102.094 101.337 102.054V102.061Z" fill="var(--sapContent_Illustrative_Color1)"/>
</svg>