<svg width="320" height="240" viewBox="0 0 320 240" fill="none" xmlns="http://www.w3.org/2000/svg" id="sapIllus-Scene-GroupingColumns">
<rect y="53.2563" width="320" height="138" rx="24" fill="var(--sapContent_Illustrative_Color20)"/>
<path d="M220.739 153.788L181.623 141.476C181.497 141.436 181.37 141.416 181.243 141.446L63.2296 150C59.079 150.177 59.158 151.502 60.2879 152.059L87.6079 167.268C89.8969 168.064 92.332 168.253 94.7087 167.815L217.428 155.569C220.866 155.101 222.323 154.451 220.739 153.788Z" fill="var(--sapContent_Illustrative_Color21)"/>
<path d="M76.2119 67.2306L98.6037 148.58C99.0829 150.328 100.787 151.455 102.58 151.224L227.186 134.229C231.561 132.826 233.283 128.318 232.529 126.134L174.051 55.2936C173.509 53.7493 172.009 52.7553 170.385 52.8618L80.6317 55.4977C78.3241 55.6397 73.7002 58.959 76.2119 67.2306Z" fill="var(--sapContent_Illustrative_Color22)"/>
<path d="M77.3831 60.0779L100.875 145.421C101.355 147.169 103.059 148.296 104.851 148.065L229.608 130.91C231.898 130.617 233.345 128.283 232.582 126.1L204.652 50.4396C204.11 48.8953 202.61 47.9013 200.986 48.0078L80.6668 55.4717C78.3593 55.6137 76.7707 57.8414 77.3831 60.069V60.0779Z" fill="var(--sapContent_Illustrative_Color8)"/>
<path d="M204.652 50.4396C204.11 48.8953 202.61 47.9013 200.986 48.0078L80.6668 55.4717C78.3593 55.6137 76.7707 57.8414 77.3831 60.069L80.6757 72.0238L208.574 61.0719L204.643 50.4307L204.652 50.4396Z" fill="var(--sapContent_Illustrative_Color13)"/>
<path d="M100.157 62.1275C100.778 64.7723 98.8792 67.0975 95.8971 67.3638C92.8796 67.6389 89.8354 65.713 89.1166 63.0239C88.3888 60.2903 90.3324 57.8586 93.4565 57.6367C96.5361 57.4148 99.527 59.4472 100.157 62.1275Z" fill="var(--sapContent_Illustrative_Color2)"/>
<path d="M117.454 83.3275L94.4943 85.4487C94.2014 85.4753 93.9085 85.2978 93.8375 85.0493L92.8701 81.6767C92.7991 81.4282 92.9766 81.2064 93.2695 81.1797L116.176 79.1296C116.46 79.103 116.744 79.2805 116.815 79.5201L117.818 82.8305C117.889 83.0701 117.72 83.292 117.445 83.3186L117.454 83.3275Z" fill="var(--sapContent_Illustrative_Color2)"/>
<path d="M117.241 93.6928L97.4231 95.6719C97.1302 95.6985 96.8373 95.521 96.7663 95.2725L95.79 91.8556C95.719 91.6071 95.8965 91.3764 96.1894 91.3497L115.963 89.4416C116.247 89.415 116.531 89.5925 116.611 89.841L117.623 93.2046C117.694 93.4531 117.525 93.675 117.241 93.7016V93.6928Z" fill="var(--sapContent_Illustrative_Color2)"/>
<path d="M123.569 103.554L100.387 106.039C100.094 106.074 99.8014 105.888 99.7215 105.63L98.7275 102.16C98.6565 101.903 98.834 101.672 99.1269 101.646L122.264 99.2404C122.548 99.2138 122.841 99.3913 122.912 99.6398L123.942 103.039C124.022 103.287 123.853 103.518 123.569 103.545V103.554Z" fill="var(--sapContent_Illustrative_Color2)"/>
<path d="M126.693 113.884L103.396 116.555C103.103 116.591 102.801 116.405 102.73 116.147L101.728 112.633C101.657 112.375 101.834 112.145 102.127 112.109L125.38 109.518C125.664 109.482 125.957 109.668 126.036 109.917L127.084 113.369C127.164 113.627 126.995 113.857 126.711 113.884H126.693Z" fill="var(--sapContent_Illustrative_Color2)"/>
<path d="M124.359 125.032L106.449 127.215C106.156 127.251 105.854 127.064 105.775 126.807L104.754 123.239C104.683 122.982 104.86 122.742 105.153 122.707L123.019 120.585C123.303 120.55 123.605 120.736 123.676 120.994L124.723 124.508C124.803 124.766 124.625 125.005 124.341 125.041L124.359 125.032Z" fill="var(--sapContent_Illustrative_Color2)"/>
<path d="M133.075 134.98L109.547 138.033C109.245 138.069 108.943 137.891 108.872 137.625L107.834 134.004C107.754 133.738 107.94 133.498 108.233 133.454L131.717 130.481C132.001 130.445 132.303 130.623 132.382 130.889L133.456 134.439C133.536 134.696 133.368 134.945 133.075 134.98Z" fill="var(--sapContent_Illustrative_Color2)"/>
<path d="M157.871 79.5822L139.331 81.2951C139.056 81.3217 138.772 81.1442 138.701 80.9046L137.662 77.6474C137.582 77.4078 137.742 77.1948 138.017 77.1681L156.522 75.5085C156.788 75.4819 157.063 75.6594 157.143 75.8901L158.208 79.1029C158.288 79.3425 158.137 79.5467 157.871 79.5733V79.5822Z" fill="var(--sapContent_Illustrative_Color2)"/>
<path d="M164.155 89.0177L142.482 91.1832C142.207 91.2098 141.923 91.0323 141.843 90.7927L140.796 87.4912C140.716 87.2515 140.876 87.0297 141.151 87.003L162.788 84.9085C163.055 84.8819 163.33 85.0505 163.41 85.2902L164.492 88.5384C164.572 88.7781 164.421 88.9911 164.155 89.0177Z" fill="var(--sapContent_Illustrative_Color2)"/>
<path d="M167.439 98.8595L145.668 101.194C145.393 101.22 145.109 101.052 145.029 100.803L143.964 97.4572C143.884 97.2087 144.044 96.9869 144.319 96.9602L166.054 94.6971C166.32 94.6705 166.604 94.8391 166.684 95.0787L167.785 98.3714C167.865 98.611 167.714 98.8329 167.447 98.8595H167.439Z" fill="var(--sapContent_Illustrative_Color2)"/>
<path d="M165.619 109.429L148.899 111.346C148.623 111.381 148.331 111.204 148.251 110.955L147.177 107.556C147.097 107.307 147.257 107.086 147.532 107.05L164.226 105.195C164.492 105.169 164.776 105.337 164.856 105.586L165.965 108.932C166.045 109.18 165.894 109.402 165.628 109.437L165.619 109.429Z" fill="var(--sapContent_Illustrative_Color2)"/>
<path d="M174.139 118.951L152.164 121.632C151.889 121.667 151.596 121.49 151.517 121.232L150.425 117.789C150.345 117.54 150.505 117.309 150.78 117.274L172.71 114.665C172.976 114.629 173.26 114.807 173.349 115.055L174.476 118.437C174.556 118.685 174.405 118.916 174.139 118.942V118.951Z" fill="var(--sapContent_Illustrative_Color2)"/>
<path d="M174.441 129.612L155.484 132.071C155.209 132.106 154.916 131.928 154.827 131.671L153.718 128.183C153.638 127.926 153.798 127.695 154.073 127.66L172.995 125.263C173.261 125.228 173.554 125.405 173.634 125.654L174.77 129.088C174.849 129.337 174.699 129.577 174.432 129.612H174.441Z" fill="var(--sapContent_Illustrative_Color2)"/>
<path d="M201.83 75.5178L181.506 77.3994C181.248 77.426 180.973 77.2574 180.893 77.0266L179.793 73.8759C179.713 73.6452 179.855 73.4411 180.112 73.4144L200.401 71.5951C200.649 71.5684 200.915 71.7371 200.995 71.9678L202.122 75.0652C202.202 75.296 202.069 75.5001 201.821 75.5178H201.83Z" fill="var(--sapContent_Illustrative_Color2)"/>
<path d="M199.469 85.4947L184.834 86.9502C184.576 86.9768 184.301 86.8082 184.221 86.5686L183.112 83.3735C183.032 83.1428 183.174 82.9298 183.432 82.9032L198.04 81.492C198.288 81.4654 198.564 81.634 198.643 81.8648L199.779 85.0154C199.859 85.2462 199.726 85.4592 199.478 85.4769L199.469 85.4947Z" fill="var(--sapContent_Illustrative_Color2)"/>
<path d="M202.903 95.0597L188.206 96.6305C187.949 96.6572 187.674 96.4885 187.585 96.2489L186.458 93.0095C186.378 92.7699 186.52 92.5569 186.777 92.5303L201.448 91.0037C201.696 90.9771 201.971 91.1457 202.06 91.3765L203.205 94.5715C203.294 94.8023 203.152 95.0153 202.903 95.0508V95.0597Z" fill="var(--sapContent_Illustrative_Color2)"/>
<path d="M212.196 104.096L191.623 106.448C191.366 106.474 191.082 106.306 191.002 106.066L189.857 102.782C189.777 102.543 189.919 102.321 190.177 102.294L210.714 100.004C210.962 99.9776 211.237 100.146 211.326 100.377L212.498 103.599C212.586 103.838 212.453 104.051 212.196 104.078V104.096Z" fill="var(--sapContent_Illustrative_Color2)"/>
<path d="M212.826 114.222L195.085 116.388C194.827 116.423 194.543 116.246 194.455 116.006L193.301 112.678C193.212 112.438 193.363 112.216 193.62 112.181L211.335 110.077C211.593 110.051 211.868 110.219 211.948 110.459L213.128 113.734C213.217 113.974 213.084 114.196 212.826 114.222Z" fill="var(--sapContent_Illustrative_Color2)"/>
<path d="M214.45 124.41L198.59 126.469C198.324 126.505 198.048 126.327 197.96 126.079L196.788 122.706C196.699 122.458 196.841 122.236 197.108 122.2L212.941 120.194C213.198 120.159 213.473 120.336 213.562 120.576L214.76 123.904C214.849 124.153 214.716 124.375 214.458 124.41H214.45Z" fill="var(--sapContent_Illustrative_Color2)"/>
<path d="M229.937 104.933L140.432 115.689C138.506 115.884 136.509 114.571 135.976 112.752L121.767 67.6928C121.253 65.9355 122.113 62.4121 125.939 61.8086L214.831 58.2585C216.402 58.1343 218.177 59.3058 218.799 60.8856L235.812 99.7673C234.676 102.554 233.15 104.515 229.937 104.941V104.933Z" fill="var(--sapContent_Illustrative_Color24)"/>
<path d="M233.957 101.222L142.109 111.979C140.183 112.174 138.186 110.861 137.654 109.041L123.755 65.2249C123.241 63.4676 124.368 61.9234 126.267 61.7636L216.518 54.5393C218.089 54.4151 219.864 55.5866 220.485 57.1663L235.688 97.9828C236.327 99.607 235.564 101.062 233.975 101.222H233.957Z" fill="var(--sapContent_Illustrative_Color25)"/>
<path fill-rule="evenodd" clip-rule="evenodd" d="M233.885 99.7222C233.945 99.7132 233.996 99.7005 234.04 99.6865C234.331 99.5917 234.63 99.5908 234.904 99.667C234.647 99.46 234.457 99.1672 234.381 98.8198C234.362 98.7317 234.333 98.6355 234.292 98.532L234.287 98.5192L233.902 97.486C233.613 96.7097 234.008 95.8459 234.784 95.5568L235.688 97.9828C235.757 98.1575 235.809 98.3303 235.846 98.4997C235.903 98.7583 235.923 99.0091 235.91 99.2471C235.895 99.5156 235.837 99.7677 235.741 99.9964C235.64 99.9893 235.542 99.9722 235.447 99.9458C235.525 100.009 235.598 100.081 235.663 100.16C235.574 100.326 235.462 100.478 235.33 100.612C235.278 100.664 235.224 100.713 235.166 100.76C235.024 100.873 234.865 100.969 234.688 101.044C234.629 101.069 234.567 101.092 234.504 101.113C234.34 101.166 234.163 101.203 233.975 101.222H233.957L231.511 101.509C231.414 100.686 232.003 99.9408 232.826 99.8445L233.87 99.7222H233.885ZM228.75 101.832C228.654 101.009 227.908 100.42 227.086 100.517L225.172 100.741C224.349 100.837 223.76 101.582 223.857 102.405L228.75 101.832ZM221.096 102.728C221 101.906 220.254 101.317 219.432 101.413L217.518 101.637C216.695 101.734 216.106 102.479 216.203 103.302L221.096 102.728ZM213.442 103.625C213.345 102.802 212.6 102.213 211.778 102.31L209.864 102.534C209.041 102.63 208.452 103.375 208.549 104.198L213.442 103.625ZM205.788 104.521C205.691 103.698 204.946 103.11 204.124 103.206L202.21 103.43C201.387 103.526 200.798 104.271 200.895 105.094L205.788 104.521ZM198.134 105.418C198.037 104.595 197.292 104.006 196.47 104.102L194.556 104.326C193.733 104.423 193.144 105.168 193.241 105.991L198.134 105.418ZM190.48 106.314C190.383 105.491 189.638 104.902 188.816 104.999L186.902 105.223C186.079 105.319 185.49 106.064 185.587 106.887L190.48 106.314ZM182.826 107.21C182.729 106.388 181.984 105.799 181.161 105.895L179.248 106.119C178.425 106.215 177.836 106.961 177.933 107.783L182.826 107.21ZM175.172 108.107C175.075 107.284 174.33 106.695 173.507 106.791L171.594 107.016C170.771 107.112 170.182 107.857 170.279 108.68L175.172 108.107ZM167.518 109.003C167.421 108.18 166.676 107.591 165.853 107.688L163.94 107.912C163.117 108.008 162.528 108.753 162.625 109.576L167.518 109.003ZM159.864 109.9C159.767 109.077 159.022 108.488 158.199 108.584L156.286 108.808C155.463 108.905 154.874 109.65 154.971 110.473L159.864 109.9ZM152.21 110.796C152.113 109.973 151.368 109.384 150.545 109.481L148.632 109.705C147.809 109.801 147.22 110.546 147.317 111.369L152.21 110.796ZM144.556 111.692C144.459 110.869 143.714 110.281 142.891 110.377L141.948 110.487C141.808 110.501 141.664 110.502 141.519 110.489C140.784 110.426 140.128 110.904 139.942 111.591C140.171 111.698 140.409 111.786 140.652 111.852C140.894 111.918 141.141 111.962 141.391 111.984C141.629 112.004 141.87 112.003 142.109 111.979L144.556 111.692ZM138.857 110.882C139.411 110.443 139.593 109.659 139.252 109.01C139.185 108.882 139.132 108.751 139.093 108.62L139.089 108.604L138.794 107.675C138.544 106.885 137.7 106.448 136.911 106.699L137.654 109.041C137.721 109.272 137.812 109.495 137.924 109.707C138.04 109.928 138.178 110.138 138.335 110.335C138.491 110.531 138.667 110.714 138.857 110.882ZM136.081 104.081C136.87 103.831 137.307 102.987 137.057 102.198L136.478 100.372C136.227 99.5824 135.384 99.1453 134.594 99.3958L136.081 104.081ZM133.764 96.7784C134.554 96.5279 134.991 95.6847 134.74 94.8951L134.161 93.0694C133.911 92.2797 133.068 91.8426 132.278 92.0931L133.764 96.7784ZM131.448 89.4757C132.237 89.2252 132.674 88.382 132.424 87.5924L131.845 85.7667C131.594 84.977 130.751 84.5399 129.962 84.7904L131.448 89.4757ZM129.131 82.173C129.921 81.9225 130.358 81.0793 130.108 80.2896L129.529 78.464C129.278 77.6743 128.435 77.2372 127.645 77.4877L129.131 82.173ZM126.815 74.8702C127.605 74.6198 128.042 73.7766 127.791 72.9869L127.212 71.1613C126.962 70.3716 126.118 69.9345 125.329 70.185L126.815 74.8702ZM124.499 67.5675C125.288 67.3171 125.725 66.4739 125.475 65.6842L125.191 64.7896C125.16 64.682 125.143 64.5825 125.135 64.4918C125.079 63.8136 124.579 63.2785 123.945 63.1474C123.822 63.3696 123.732 63.6114 123.681 63.8676C123.634 64.1062 123.619 64.3573 123.641 64.6166C123.657 64.8151 123.695 65.0186 123.755 65.2249L124.499 67.5675ZM124.351 62.6071C124.679 63.1878 125.368 63.4975 126.043 63.318C126.147 63.2902 126.263 63.2695 126.39 63.2586L126.393 63.2583L127.412 63.1767C128.238 63.1106 128.854 62.3876 128.788 61.5618L126.267 61.7636C126.053 61.7816 125.85 61.8171 125.657 61.8684C125.405 61.9355 125.172 62.0296 124.96 62.147C124.73 62.2744 124.526 62.4294 124.351 62.6071ZM131.951 61.3087C132.017 62.1344 132.74 62.7503 133.566 62.6842L135.617 62.52C136.443 62.4539 137.059 61.7309 136.993 60.9051L131.951 61.3087ZM140.156 60.6519C140.222 61.4777 140.945 62.0935 141.77 62.0274L143.822 61.8632C144.647 61.7971 145.263 61.0741 145.197 60.2483L140.156 60.6519ZM148.36 59.9951C148.426 60.8209 149.149 61.4368 149.975 61.3707L152.026 61.2065C152.852 61.1404 153.468 60.4174 153.402 59.5916L148.36 59.9951ZM156.565 59.3384C156.631 60.1642 157.354 60.78 158.18 60.7139L160.231 60.5497C161.057 60.4836 161.672 59.7606 161.606 58.9348L156.565 59.3384ZM164.769 58.6816C164.835 59.5074 165.558 60.1233 166.384 60.0572L168.435 59.893C169.261 59.8269 169.877 59.1038 169.811 58.2781L164.769 58.6816ZM172.974 58.0249C173.04 58.8507 173.763 59.4665 174.589 59.4004L176.64 59.2362C177.466 59.1701 178.082 58.4471 178.016 57.6213L172.974 58.0249ZM181.179 57.3681C181.245 58.1939 181.968 58.8097 182.793 58.7436L184.845 58.5795C185.67 58.5134 186.286 57.7903 186.22 56.9646L181.179 57.3681ZM189.383 56.7114C189.449 57.5371 190.172 58.153 190.998 58.0869L193.049 57.9227C193.875 57.8566 194.491 57.1336 194.425 56.3078L189.383 56.7114ZM197.588 56.0546C197.654 56.8804 198.377 57.4962 199.203 57.4301L201.254 57.2659C202.08 57.1998 202.695 56.4768 202.629 55.651L197.588 56.0546ZM205.792 55.3978C205.859 56.2236 206.582 56.8395 207.407 56.7734L209.458 56.6092C210.284 56.5431 210.9 55.8201 210.834 54.9943L205.792 55.3978ZM213.997 54.7411C214.063 55.5669 214.786 56.1827 215.612 56.1166L216.636 56.0346C216.734 56.0269 216.843 56.0292 216.96 56.0441C217.68 56.1354 218.346 55.7002 218.57 55.0384C218.346 54.9136 218.115 54.8092 217.879 54.7282C217.638 54.6454 217.393 54.587 217.149 54.556C216.937 54.5291 216.726 54.5229 216.518 54.5393L213.997 54.7411ZM219.213 55.4742C218.677 55.9446 218.539 56.7452 218.92 57.3766C218.986 57.4856 219.041 57.5953 219.085 57.7042L219.459 58.7103C219.749 59.4866 220.612 59.8816 221.389 59.5924L220.485 57.1663C220.408 56.9709 220.314 56.7817 220.204 56.6005C220.075 56.3874 219.925 56.1852 219.759 55.9967C219.592 55.8079 219.409 55.6328 219.213 55.4742ZM222.622 62.9036C221.846 63.1927 221.451 64.0565 221.74 64.8328L222.5 66.8736C222.789 67.6499 223.653 68.0449 224.429 67.7557L222.622 62.9036ZM225.663 71.0669C224.886 71.356 224.491 72.2198 224.78 72.9961L225.541 75.0369C225.83 75.8132 226.694 76.2082 227.47 75.919L225.663 71.0669ZM228.703 79.2302C227.927 79.5193 227.532 80.3831 227.821 81.1594L228.581 83.2002C228.87 83.9765 229.734 84.3715 230.51 84.0823L228.703 79.2302ZM233.551 92.2456L231.744 87.3935C230.967 87.6826 230.572 88.5464 230.862 89.3227L231.622 91.3635C231.911 92.1398 232.775 92.5348 233.551 92.2456Z" fill="var(--sapContent_Illustrative_Color11)"/>
<path d="M163.729 71.3722L145.189 73.0851C144.914 73.1117 144.63 72.9342 144.559 72.6946L143.521 69.4374C143.441 69.1978 143.6 68.9848 143.876 68.9582L162.38 67.2985C162.646 67.2719 162.922 67.4494 163.001 67.6802L164.066 70.893C164.146 71.1326 163.995 71.3367 163.729 71.3633V71.3722Z" fill="var(--sapContent_Illustrative_Color14)"/>
<path d="M170.013 80.8077L148.34 82.9732C148.065 82.9999 147.781 82.8224 147.701 82.5827L146.653 79.2812C146.574 79.0416 146.733 78.8197 147.008 78.7931L168.646 76.6986C168.912 76.6719 169.187 76.8406 169.267 77.0802L170.35 80.3285C170.43 80.5681 170.279 80.7811 170.013 80.8077Z" fill="var(--sapContent_Illustrative_Color14)"/>
<path d="M173.287 90.6496L151.517 92.9837C151.241 93.0103 150.957 92.8417 150.878 92.5932L149.813 89.2473C149.733 88.9988 149.892 88.7769 150.168 88.7503L171.903 86.4871C172.169 86.4605 172.453 86.6291 172.533 86.8688L173.633 90.1614C173.713 90.401 173.562 90.6229 173.296 90.6496H173.287Z" fill="var(--sapContent_Illustrative_Color14)"/>
<path d="M171.468 101.219L154.747 103.136C154.472 103.171 154.179 102.994 154.099 102.745L153.025 99.346C152.946 99.0975 153.105 98.8756 153.38 98.8401L170.074 96.9852C170.341 96.9586 170.625 97.1272 170.705 97.3757L171.814 100.722C171.894 100.97 171.743 101.192 171.477 101.227L171.468 101.219Z" fill="var(--sapContent_Illustrative_Color14)"/>
<path d="M207.687 67.3079L187.363 69.1894C187.106 69.216 186.831 69.0474 186.751 68.8166L185.65 65.666C185.57 65.4352 185.712 65.2311 185.97 65.2045L206.258 63.3851C206.507 63.3585 206.773 63.5271 206.853 63.7578L207.98 66.8552C208.06 67.086 207.927 67.2901 207.678 67.3079H207.687Z" fill="var(--sapContent_Illustrative_Color14)"/>
<path d="M205.326 77.2847L190.691 78.7402C190.434 78.7669 190.159 78.5982 190.079 78.3586L188.969 75.1636C188.89 74.9328 189.032 74.7198 189.289 74.6932L203.897 73.2821C204.146 73.2554 204.421 73.4241 204.501 73.6548L205.637 76.8055C205.717 77.0362 205.584 77.2492 205.335 77.267L205.326 77.2847Z" fill="var(--sapContent_Illustrative_Color14)"/>
<path d="M208.752 86.8497L194.055 88.4206C193.797 88.4472 193.522 88.2786 193.434 88.039L192.306 84.7996C192.227 84.5599 192.369 84.3469 192.626 84.3203L207.296 82.7938C207.545 82.7672 207.82 82.9358 207.909 83.1665L209.054 86.3616C209.142 86.5923 209 86.8053 208.752 86.8408V86.8497Z" fill="var(--sapContent_Illustrative_Color14)"/>
<path d="M218.044 95.8857L197.472 98.2376C197.215 98.2642 196.931 98.0956 196.851 97.856L195.706 94.5722C195.626 94.3325 195.768 94.1107 196.025 94.084L216.562 91.7943C216.811 91.7676 217.086 91.9363 217.175 92.167L218.346 95.3887C218.435 95.6283 218.302 95.8413 218.044 95.8679V95.8857Z" fill="var(--sapContent_Illustrative_Color14)"/>
<path d="M255.342 82.7765L226.574 82.3398C223.984 83.0024 222.079 85.1933 222.99 87.9037L231.769 111.71C232.996 114.714 235.367 115.971 237.965 115.663L266.763 111.672C270.158 111.221 271.83 107.735 270.851 104.911L260.559 85.5321C259.844 83.8155 257.51 82.5883 255.342 82.7765Z" fill="var(--sapContent_Illustrative_Color22)"/>
<path d="M256.433 79.6958L227.454 82.2406C225.075 82.4514 223.682 84.0852 224.36 85.9072L233.282 109.766C234.614 112.454 236.564 112.996 238.989 112.672L268.449 108.735C270.655 108.441 271.815 106.725 271.054 104.918L261.651 82.4514C260.935 80.7348 258.601 79.5076 256.433 79.6958Z" fill="var(--sapContent_Illustrative_Color13)"/>
<path d="M255.251 106.115C255.078 106.138 254.897 106.145 254.724 106.115C254.295 106.055 253.873 105.874 253.572 105.588L248.369 100.785L244.371 103.954C243.972 104.27 243.355 104.361 242.753 104.203C242.143 104.045 241.661 103.653 241.48 103.194L235.246 86.9991C235.066 86.5248 235.261 86.0655 235.721 85.8171C236.18 85.5686 236.865 85.5536 237.452 85.802L257.652 94.2871C258.217 94.528 258.616 94.9572 258.684 95.424C258.759 95.8908 258.488 96.2898 257.976 96.4705L252.962 98.2925L257.946 102.878C258.563 103.45 258.556 104.24 257.916 104.632L255.876 105.897C255.695 106.002 255.484 106.077 255.251 106.107V106.115ZM239.402 89.2277L243.792 100.506L247.963 97.2535C248.076 97.1782 248.204 97.0954 248.332 97.0502L253.594 95.183L239.402 89.2277Z" fill="var(--sapContent_Illustrative_Color8)"/>
</svg>