<svg width="160" height="160" viewBox="0 0 160 160" fill="none" xmlns="http://www.w3.org/2000/svg" id="sapIllus-Dialog-SimpleCalendar">
<g clip-path="url(#clip0_101_5566)">
<path d="M137.769 31.0923H14.3444C13.448 31.0923 12.7214 31.8189 12.7214 32.7152V128.339C12.7214 129.236 13.448 129.962 14.3444 129.962H137.769C138.665 129.962 139.392 129.236 139.392 128.339V32.7152C139.392 31.8189 138.665 31.0923 137.769 31.0923Z" fill="var(--sapContent_Illustrative_Color6)"/>
<path d="M132.048 25.7559H8.62292C7.72661 25.7559 7 26.4825 7 27.3788V123.003C7 123.899 7.72661 124.626 8.62292 124.626H132.048C132.944 124.626 133.67 123.899 133.67 123.003V27.3788C133.67 26.4825 132.944 25.7559 132.048 25.7559Z" fill="var(--sapContent_Illustrative_Color2)"/>
<path d="M132.048 25.5083H8.62292C7.72661 25.5083 7 26.2349 7 27.1312V41.6642C7 42.5605 7.72661 43.2871 8.62292 43.2871H132.048C132.944 43.2871 133.67 42.5605 133.67 41.6642V27.1312C133.67 26.2349 132.944 25.5083 132.048 25.5083Z" fill="var(--sapContent_Illustrative_Color3)"/>
<path d="M34.1405 37.4281C35.9281 37.4281 37.3772 35.9379 37.3772 34.0997C37.3772 32.2615 35.9281 30.7714 34.1405 30.7714C32.3529 30.7714 30.9038 32.2615 30.9038 34.0997C30.9038 35.9379 32.3529 37.4281 34.1405 37.4281Z" fill="var(--sapContent_Illustrative_Color5)"/>
<path d="M104.494 37.4281C106.282 37.4281 107.731 35.9379 107.731 34.0997C107.731 32.2615 106.282 30.7714 104.494 30.7714C102.707 30.7714 101.258 32.2615 101.258 34.0997C101.258 35.9379 102.707 37.4281 104.494 37.4281Z" fill="var(--sapContent_Illustrative_Color5)"/>
<path d="M34.1955 17.4854H34.0854C33.0119 17.4854 32.1416 18.3557 32.1416 19.4293V33.5679C32.1416 34.6415 33.0119 35.5118 34.0854 35.5118H34.1955C35.269 35.5118 36.1393 34.6415 36.1393 33.5679V19.4293C36.1393 18.3557 35.269 17.4854 34.1955 17.4854Z" fill="var(--sapContent_Illustrative_Color6)"/>
<path d="M104.522 17.3754H104.412C103.339 17.3754 102.468 18.2457 102.468 19.3192V33.4579C102.468 34.5314 103.339 35.4017 104.412 35.4017H104.522C105.596 35.4017 106.466 34.5314 106.466 33.4579V19.3192C106.466 18.2457 105.596 17.3754 104.522 17.3754Z" fill="var(--sapContent_Illustrative_Color6)"/>
<path d="M117.24 60.1398H22.7433C21.847 60.1398 21.1204 60.8664 21.1204 61.7628V114.32C21.1204 115.216 21.847 115.943 22.7433 115.943H117.24C118.136 115.943 118.862 115.216 118.862 114.32V61.7628C118.862 60.8664 118.136 60.1398 117.24 60.1398Z" fill="var(--sapContent_Illustrative_Color8)"/>
<path d="M61.3449 50.5032H24.1002C22.9861 50.5032 22.083 51.4063 22.083 52.5204C22.083 53.6344 22.9861 54.5376 24.1002 54.5376H61.3449C62.459 54.5376 63.3621 53.6344 63.3621 52.5204C63.3621 51.4063 62.459 50.5032 61.3449 50.5032Z" fill="var(--sapContent_Illustrative_Color8)"/>
<path d="M35.1306 68.7312H30.2251C29.8048 68.7312 29.4641 69.0719 29.4641 69.4922V73.6C29.4641 74.0203 29.8048 74.361 30.2251 74.361H35.1306C35.5509 74.361 35.8916 74.0203 35.8916 73.6V69.4922C35.8916 69.0719 35.5509 68.7312 35.1306 68.7312Z" fill="var(--sapContent_Illustrative_Color6)"/>
<path d="M47.674 68.7587H42.7686C42.3483 68.7587 42.0076 69.0995 42.0076 69.5198V73.6275C42.0076 74.0478 42.3483 74.3885 42.7686 74.3885H47.674C48.0944 74.3885 48.4351 74.0478 48.4351 73.6275V69.5198C48.4351 69.0995 48.0944 68.7587 47.674 68.7587Z" fill="var(--sapContent_Illustrative_Color6)"/>
<path d="M60.364 68.8046H55.4585C55.0382 68.8046 54.6975 69.1453 54.6975 69.5656V73.6733C54.6975 74.0936 55.0382 74.4344 55.4585 74.4344H60.364C60.7843 74.4344 61.125 74.0936 61.125 73.6733V69.5656C61.125 69.1453 60.7843 68.8046 60.364 68.8046Z" fill="var(--sapContent_Illustrative_Color6)"/>
<path d="M72.8979 68.8321H67.9925C67.5722 68.8321 67.2314 69.1728 67.2314 69.5931V73.7009C67.2314 74.1212 67.5722 74.4619 67.9925 74.4619H72.8979C73.3182 74.4619 73.659 74.1212 73.659 73.7009V69.5931C73.659 69.1728 73.3182 68.8321 72.8979 68.8321Z" fill="var(--sapContent_Illustrative_Color6)"/>
<path d="M85.7072 68.9604H80.8018C80.3815 68.9604 80.0408 69.3012 80.0408 69.7215V73.8292C80.0408 74.2495 80.3815 74.5902 80.8018 74.5902H85.7072C86.1275 74.5902 86.4683 74.2495 86.4683 73.8292V69.7215C86.4683 69.3012 86.1275 68.9604 85.7072 68.9604Z" fill="var(--sapContent_Illustrative_Color6)"/>
<path d="M98.2412 68.988H93.3357C92.9154 68.988 92.5747 69.3287 92.5747 69.749V73.8567C92.5747 74.2771 92.9154 74.6178 93.3357 74.6178H98.2412C98.6615 74.6178 99.0022 74.2771 99.0022 73.8567V69.749C99.0022 69.3287 98.6615 68.988 98.2412 68.988Z" fill="var(--sapContent_Illustrative_Color6)"/>
<path d="M109.831 68.9604H104.926C104.505 68.9604 104.165 69.3012 104.165 69.7215V73.8292C104.165 74.2495 104.505 74.5902 104.926 74.5902H109.831C110.251 74.5902 110.592 74.2495 110.592 73.8292V69.7215C110.592 69.3012 110.251 68.9604 109.831 68.9604Z" fill="var(--sapContent_Illustrative_Color6)"/>
<path d="M35.2407 79.8716H30.3352C29.9149 79.8716 29.5742 80.2124 29.5742 80.6327V84.7404C29.5742 85.1607 29.9149 85.5014 30.3352 85.5014H35.2407C35.661 85.5014 36.0017 85.1607 36.0017 84.7404V80.6327C36.0017 80.2124 35.661 79.8716 35.2407 79.8716Z" fill="var(--sapContent_Illustrative_Color6)"/>
<path d="M47.7839 79.8992H42.8785C42.4582 79.8992 42.1174 80.2399 42.1174 80.6602V84.7679C42.1174 85.1882 42.4582 85.529 42.8785 85.529H47.7839C48.2042 85.529 48.5449 85.1882 48.5449 84.7679V80.6602C48.5449 80.2399 48.2042 79.8992 47.7839 79.8992Z" fill="var(--sapContent_Illustrative_Color6)"/>
<path d="M60.4738 79.945H55.5684C55.1481 79.945 54.8074 80.2857 54.8074 80.706V84.8138C54.8074 85.2341 55.1481 85.5748 55.5684 85.5748H60.4738C60.8942 85.5748 61.2349 85.2341 61.2349 84.8138V80.706C61.2349 80.2857 60.8942 79.945 60.4738 79.945Z" fill="var(--sapContent_Illustrative_Color6)"/>
<path d="M73.008 79.9725H68.1026C67.6823 79.9725 67.3416 80.3132 67.3416 80.7335V84.8412C67.3416 85.2615 67.6823 85.6023 68.1026 85.6023H73.008C73.4283 85.6023 73.7691 85.2615 73.7691 84.8412V80.7335C73.7691 80.3132 73.4283 79.9725 73.008 79.9725Z" fill="var(--sapContent_Illustrative_Color6)"/>
<path d="M85.8171 80.1008H80.9117C80.4914 80.1008 80.1506 80.4416 80.1506 80.8619V84.9696C80.1506 85.3899 80.4914 85.7306 80.9117 85.7306H85.8171C86.2374 85.7306 86.5781 85.3899 86.5781 84.9696V80.8619C86.5781 80.4416 86.2374 80.1008 85.8171 80.1008Z" fill="var(--sapContent_Illustrative_Color6)"/>
<path d="M98.3513 80.1284H93.4458C93.0255 80.1284 92.6848 80.4691 92.6848 80.8894V84.9971C92.6848 85.4174 93.0255 85.7582 93.4458 85.7582H98.3513C98.7716 85.7582 99.1123 85.4174 99.1123 84.9971V80.8894C99.1123 80.4691 98.7716 80.1284 98.3513 80.1284Z" fill="var(--sapContent_Illustrative_Color6)"/>
<path d="M109.941 80.1008H105.035C104.615 80.1008 104.274 80.4416 104.274 80.8619V84.9696C104.274 85.3899 104.615 85.7306 105.035 85.7306H109.941C110.361 85.7306 110.702 85.3899 110.702 84.9696V80.8619C110.702 80.4416 110.361 80.1008 109.941 80.1008Z" fill="var(--sapContent_Illustrative_Color6)"/>
<path d="M35.3874 90.6178H30.482C30.0617 90.6178 29.7209 90.9585 29.7209 91.3788V95.4866C29.7209 95.9069 30.0617 96.2476 30.482 96.2476H35.3874C35.8077 96.2476 36.1485 95.9069 36.1485 95.4866V91.3788C36.1485 90.9585 35.8077 90.6178 35.3874 90.6178Z" fill="var(--sapContent_Illustrative_Color6)"/>
<path d="M47.9216 90.6361H43.0162C42.5959 90.6361 42.2551 90.9768 42.2551 91.3971V95.5049C42.2551 95.9252 42.5959 96.2659 43.0162 96.2659H47.9216C48.3419 96.2659 48.6826 95.9252 48.6826 95.5049V91.3971C48.6826 90.9768 48.3419 90.6361 47.9216 90.6361Z" fill="var(--sapContent_Illustrative_Color6)"/>
<path d="M60.6206 90.6819H55.7151C55.2948 90.6819 54.9541 91.0227 54.9541 91.443V95.5507C54.9541 95.971 55.2948 96.3117 55.7151 96.3117H60.6206C61.0409 96.3117 61.3816 95.971 61.3816 95.5507V91.443C61.3816 91.0227 61.0409 90.6819 60.6206 90.6819Z" fill="var(--sapContent_Illustrative_Color6)"/>
<path d="M73.1548 90.7095H68.2493C67.829 90.7095 67.4883 91.0502 67.4883 91.4705V95.5782C67.4883 95.9985 67.829 96.3393 68.2493 96.3393H73.1548C73.5751 96.3393 73.9158 95.9985 73.9158 95.5782V91.4705C73.9158 91.0502 73.5751 90.7095 73.1548 90.7095Z" fill="var(--sapContent_Illustrative_Color6)"/>
<path d="M85.9638 90.8378H81.0584C80.6381 90.8378 80.2974 91.1786 80.2974 91.5989V95.7066C80.2974 96.1269 80.6381 96.4676 81.0584 96.4676H85.9638C86.3841 96.4676 86.7249 96.1269 86.7249 95.7066V91.5989C86.7249 91.1786 86.3841 90.8378 85.9638 90.8378Z" fill="var(--sapContent_Illustrative_Color6)"/>
<path d="M98.498 90.8654H93.5926C93.1723 90.8654 92.8315 91.2061 92.8315 91.6264V95.7341C92.8315 96.1544 93.1723 96.4952 93.5926 96.4952H98.498C98.9183 96.4952 99.259 96.1544 99.259 95.7341V91.6264C99.259 91.2061 98.9183 90.8654 98.498 90.8654Z" fill="var(--sapContent_Illustrative_Color6)"/>
<path d="M110.088 90.847H105.182C104.762 90.847 104.421 91.1877 104.421 91.608V95.7158C104.421 96.1361 104.762 96.4768 105.182 96.4768H110.088C110.508 96.4768 110.849 96.1361 110.849 95.7158V91.608C110.849 91.1877 110.508 90.847 110.088 90.847Z" fill="var(--sapContent_Illustrative_Color6)"/>
<path d="M35.4975 101.382H30.5921C30.1718 101.382 29.8311 101.723 29.8311 102.143V106.251C29.8311 106.671 30.1718 107.012 30.5921 107.012H35.4975C35.9178 107.012 36.2586 106.671 36.2586 106.251V102.143C36.2586 101.723 35.9178 101.382 35.4975 101.382Z" fill="var(--sapContent_Illustrative_Color6)"/>
<path d="M48.0407 101.401H43.1353C42.715 101.401 42.3743 101.741 42.3743 102.162V106.269C42.3743 106.69 42.715 107.03 43.1353 107.03H48.0407C48.461 107.03 48.8018 106.69 48.8018 106.269V102.162C48.8018 101.741 48.461 101.401 48.0407 101.401Z" fill="var(--sapContent_Illustrative_Color6)"/>
<path d="M60.7307 101.456H55.8252C55.4049 101.456 55.0642 101.796 55.0642 102.217V106.324C55.0642 106.745 55.4049 107.085 55.8252 107.085H60.7307C61.151 107.085 61.4917 106.745 61.4917 106.324V102.217C61.4917 101.796 61.151 101.456 60.7307 101.456Z" fill="var(--sapContent_Illustrative_Color6)"/>
<path d="M73.2646 101.474H68.3592C67.9389 101.474 67.5981 101.815 67.5981 102.235V106.343C67.5981 106.763 67.9389 107.104 68.3592 107.104H73.2646C73.6849 107.104 74.0257 106.763 74.0257 106.343V102.235C74.0257 101.815 73.6849 101.474 73.2646 101.474Z" fill="var(--sapContent_Illustrative_Color6)"/>
<path d="M86.0739 101.611H81.1685C80.7482 101.611 80.4075 101.952 80.4075 102.372V106.48C80.4075 106.901 80.7482 107.241 81.1685 107.241H86.0739C86.4942 107.241 86.835 106.901 86.835 106.48V102.372C86.835 101.952 86.4942 101.611 86.0739 101.611Z" fill="var(--sapContent_Illustrative_Color6)"/>
</g>
<path d="M73.8424 160C105.188 160 130.599 158.461 130.599 156.562C130.599 154.663 105.188 153.123 73.8424 153.123C42.4967 153.123 17.0859 154.663 17.0859 156.562C17.0859 158.461 42.4967 160 73.8424 160Z" fill="var(--sapContent_Illustrative_Color6)"/>
<path d="M153.486 24.8123C153.357 24.6567 153.187 24.5392 152.996 24.4723C152.803 24.4223 152.6 24.4223 152.406 24.4723L147.716 25.2823C147.555 25.3105 147.402 25.3718 147.266 25.4623C147.128 25.5495 147.009 25.6649 146.917 25.801C146.826 25.9371 146.764 26.0908 146.736 26.2523C146.706 26.4142 146.706 26.5803 146.736 26.7423C146.774 26.9917 146.889 27.2228 147.066 27.4023C147.194 27.5341 147.351 27.6336 147.525 27.6927C147.699 27.7518 147.885 27.7688 148.066 27.7423L152.756 26.9323C152.965 26.8996 153.161 26.8135 153.326 26.6823C153.486 26.5458 153.606 26.3699 153.676 26.1723C153.759 25.9523 153.783 25.7145 153.746 25.4823C153.718 25.2406 153.628 25.0101 153.486 24.8123Z" fill="var(--sapContent_Illustrative_Color5)"/>
<path d="M135.676 6.06231C135.539 6.01313 135.392 5.99271 135.246 6.00231C135.098 6.01395 134.955 6.05835 134.826 6.1323C134.701 6.20414 134.591 6.30046 134.503 6.41556C134.416 6.53065 134.352 6.66217 134.316 6.80231L133.026 11.2523C132.991 11.4171 132.991 11.5875 133.026 11.7523C133.043 11.9178 133.094 12.078 133.176 12.2223C133.258 12.368 133.371 12.4942 133.506 12.5923C133.637 12.6948 133.786 12.7696 133.946 12.8123H134.146C134.399 12.8498 134.657 12.7889 134.866 12.6423C135.076 12.4984 135.222 12.2803 135.276 12.0323L136.566 7.58231C136.618 7.42443 136.635 7.25734 136.616 7.09231C136.595 6.9278 136.545 6.76852 136.466 6.62231C136.385 6.47925 136.276 6.35355 136.146 6.25231C136.005 6.15595 135.845 6.09115 135.676 6.06231Z" fill="var(--sapContent_Illustrative_Color5)"/>
<path d="M147.167 12.0923C147.01 12.0903 146.855 12.114 146.707 12.1623C146.561 12.2205 146.426 12.3015 146.307 12.4023L141.117 17.1423C140.887 17.3559 140.747 17.6492 140.727 17.9623C140.704 18.2792 140.809 18.5921 141.017 18.8323C141.206 19.052 141.469 19.1944 141.757 19.2323C141.921 19.2674 142.092 19.2674 142.257 19.2323C142.415 19.1788 142.562 19.0938 142.687 18.9823L147.877 14.2523C148.11 14.036 148.253 13.7395 148.277 13.4223C148.293 13.1091 148.189 12.8015 147.987 12.5623C147.778 12.3213 147.484 12.1708 147.167 12.1423V12.0923Z" fill="var(--sapContent_Illustrative_Color5)"/>
<defs>
<clipPath id="clip0_101_5566">
<rect width="146.705" height="129.962" fill="var(--sapContent_Illustrative_Color8)" transform="translate(7)"/>
</clipPath>
</defs>
</svg>
