<svg width="160" height="160" viewBox="0 0 160 160" fill="none" xmlns="http://www.w3.org/2000/svg" id="sapIllus-Dialog-AddingColumns">
<rect y="47.8936" width="160" height="69" rx="12" fill="var(--sapContent_Illustrative_Color20)"/>
<path d="M109.781 98.3151L90.2237 90.9639C90.1576 90.9436 90.0914 90.9334 90.0253 90.9487L31.8828 94.8819C29.7154 94.9726 29.7567 95.65 30.3467 95.9348L51.2285 104.357C52.4238 104.764 53.6954 104.861 54.9365 104.637L108.052 99.2256C109.847 98.9866 110.608 98.6539 109.781 98.3151Z" fill="var(--sapContent_Illustrative_Color21)"/>
<path d="M36.057 52.9358L47.6263 94.9668C47.8739 95.8701 48.7543 96.4525 49.6806 96.3333L114.061 87.552C116.322 86.8275 117.212 84.498 116.822 83.37L86.6079 46.7683C86.3282 45.9704 85.5532 45.4568 84.7141 45.5118L38.3406 46.8737C37.1484 46.9471 34.7593 48.6621 36.057 52.9358Z" fill="var(--sapContent_Illustrative_Color22)"/>
<path d="M36.662 49.2403L48.7999 93.3348C49.0475 94.2381 49.9279 94.8205 50.8542 94.7013L115.313 85.8375C116.496 85.6861 117.244 84.4801 116.849 83.3521L102.418 44.2605C102.139 43.4626 101.364 42.949 100.525 43.004L38.3586 46.8605C37.1664 46.9338 36.3456 48.0848 36.662 49.2358V49.2403Z" fill="var(--sapContent_Illustrative_Color8)"/>
<path d="M102.418 44.2605C102.139 43.4626 101.364 42.949 100.525 43.004L38.3586 46.8605C37.1664 46.9338 36.3456 48.0848 36.662 49.2358L38.3632 55.4125L104.445 49.7539L102.414 44.2559L102.418 44.2605Z" fill="var(--sapContent_Illustrative_Color14)"/>
<path d="M48.4298 50.2991C48.7508 51.6655 47.7695 52.867 46.2287 53.0045C44.6696 53.1467 43.0968 52.1516 42.7254 50.7622C42.3494 49.3499 43.3536 48.0934 44.9677 47.9788C46.5589 47.8641 48.1042 48.9142 48.4298 50.2991Z" fill="var(--sapContent_Illustrative_Color2)"/>
<path d="M57.3662 61.2543L45.5035 62.3502C45.3522 62.364 45.2008 62.2723 45.1641 62.1439L44.6643 60.4014C44.6276 60.273 44.7194 60.1584 44.8707 60.1446L56.7059 59.0854C56.8527 59.0716 56.9994 59.1633 57.0361 59.2871L57.5542 60.9975C57.5909 61.1213 57.5038 61.236 57.3617 61.2497L57.3662 61.2543Z" fill="var(--sapContent_Illustrative_Color2)"/>
<path d="M57.2554 66.6095L47.0159 67.632C46.8646 67.6458 46.7132 67.5541 46.6765 67.4257L46.1721 65.6602C46.1355 65.5319 46.2272 65.4126 46.3785 65.3989L56.595 64.413C56.7418 64.3992 56.8885 64.4909 56.9298 64.6193L57.4525 66.3573C57.4892 66.4856 57.4021 66.6003 57.2554 66.614V66.6095Z" fill="var(--sapContent_Illustrative_Color2)"/>
<path d="M60.5266 71.7045L48.5492 72.9885C48.3978 73.0068 48.2465 72.9105 48.2052 72.7776L47.6917 70.9846C47.655 70.8516 47.7467 70.7324 47.898 70.7187L59.8525 69.476C59.9992 69.4622 60.1506 69.5539 60.1872 69.6823L60.7192 71.4386C60.7604 71.567 60.6733 71.6862 60.5266 71.7V71.7045Z" fill="var(--sapContent_Illustrative_Color2)"/>
<path d="M62.1406 77.0425L50.1036 78.4228C49.9522 78.4411 49.7963 78.3448 49.7596 78.2118L49.2415 76.3959C49.2048 76.263 49.2965 76.1437 49.4478 76.1254L61.4619 74.7864C61.6086 74.7681 61.76 74.8644 61.8012 74.9928L62.3423 76.7765C62.3836 76.9095 62.2965 77.0287 62.1497 77.0425H62.1406Z" fill="var(--sapContent_Illustrative_Color2)"/>
<path d="M60.9334 82.8006L51.6798 83.9286C51.5285 83.947 51.3726 83.8507 51.3313 83.7177L50.804 81.8743C50.7673 81.7413 50.859 81.6175 51.0103 81.5992L60.241 80.5032C60.3877 80.4849 60.5436 80.5812 60.5803 80.7142L61.1214 82.53C61.1627 82.663 61.071 82.7868 60.9242 82.8052L60.9334 82.8006Z" fill="var(--sapContent_Illustrative_Color2)"/>
<path d="M65.4366 87.9419L53.2803 89.5194C53.1244 89.5377 52.9685 89.446 52.9318 89.3084L52.3953 87.4375C52.3541 87.3 52.4504 87.1762 52.6017 87.1532L64.735 85.6171C64.8817 85.5987 65.0376 85.6904 65.0789 85.828L65.6338 87.6622C65.675 87.7952 65.5879 87.9236 65.4366 87.9419Z" fill="var(--sapContent_Illustrative_Color2)"/>
<path d="M78.2488 59.3185L68.6696 60.2035C68.5274 60.2173 68.3807 60.1256 68.344 60.0018L67.8075 58.3189C67.7662 58.1951 67.8488 58.085 67.9909 58.0713L77.5518 57.2138C77.6893 57.2 77.8315 57.2917 77.8728 57.4109L78.423 59.0709C78.4643 59.1947 78.3863 59.3002 78.2488 59.3139V59.3185Z" fill="var(--sapContent_Illustrative_Color2)"/>
<path d="M81.4958 64.1929L70.2979 65.3118C70.1558 65.3255 70.009 65.2338 69.9677 65.11L69.4267 63.4042C69.3854 63.2804 69.4679 63.1657 69.6101 63.152L80.7896 62.0698C80.9272 62.056 81.0693 62.1432 81.1106 62.267L81.67 63.9453C81.7113 64.0691 81.6333 64.1791 81.4958 64.1929Z" fill="var(--sapContent_Illustrative_Color2)"/>
<path d="M83.1931 69.2785L71.9448 70.4845C71.8026 70.4983 71.6559 70.4111 71.6146 70.2827L71.0643 68.554C71.0231 68.4256 71.1056 68.311 71.2478 68.2972L82.4777 67.1279C82.6153 67.1141 82.762 67.2013 82.8033 67.3251L83.3719 69.0263C83.4132 69.1501 83.3352 69.2648 83.1977 69.2785H83.1931Z" fill="var(--sapContent_Illustrative_Color2)"/>
<path d="M82.2513 74.74L73.6121 75.7305C73.47 75.7488 73.3187 75.6571 73.2774 75.5287L72.7225 73.7724C72.6813 73.6441 72.7638 73.5294 72.906 73.5111L81.5314 72.5527C81.6689 72.5389 81.8157 72.6261 81.8569 72.7545L82.4301 74.4832C82.4714 74.6116 82.3934 74.7262 82.2559 74.7446L82.2513 74.74Z" fill="var(--sapContent_Illustrative_Color2)"/>
<path d="M86.6548 79.66L75.301 81.0448C75.1588 81.0632 75.0075 80.9715 74.9663 80.8385L74.4022 79.0593C74.361 78.9309 74.4435 78.8117 74.5857 78.7934L85.9165 77.4452C86.0541 77.4269 86.2008 77.5186 86.2467 77.647L86.829 79.3941C86.8703 79.5225 86.7923 79.6417 86.6548 79.6554V79.66Z" fill="var(--sapContent_Illustrative_Color2)"/>
<path d="M86.8096 85.1682L77.015 86.4384C76.8728 86.4567 76.7215 86.365 76.6756 86.232L76.1024 84.4299C76.0612 84.2969 76.1437 84.1777 76.2859 84.1594L86.0622 82.9213C86.1998 82.9029 86.3511 82.9947 86.3924 83.123L86.9793 84.8976C87.0206 85.026 86.9426 85.1499 86.8051 85.1682H86.8096Z" fill="var(--sapContent_Illustrative_Color2)"/>
<path d="M100.962 57.2187L90.4609 58.1908C90.328 58.2046 90.1858 58.1174 90.1445 57.9982L89.5759 56.3703C89.5347 56.2511 89.608 56.1456 89.741 56.1319L100.224 55.1919C100.352 55.1781 100.49 55.2652 100.531 55.3845L101.113 56.9848C101.154 57.104 101.086 57.2095 100.957 57.2187H100.962Z" fill="var(--sapContent_Illustrative_Color2)"/>
<path d="M99.7409 62.3732L92.1794 63.1252C92.0464 63.139 91.9043 63.0519 91.863 62.9281L91.2898 61.2773C91.2485 61.158 91.3219 61.048 91.4549 61.0342L99.0027 60.3051C99.1311 60.2914 99.2732 60.3785 99.3145 60.4977L99.9014 62.1256C99.9427 62.2448 99.8739 62.3549 99.7455 62.364L99.7409 62.3732Z" fill="var(--sapContent_Illustrative_Color2)"/>
<path d="M101.516 67.3158L93.9226 68.1274C93.7897 68.1412 93.6475 68.054 93.6017 67.9302L93.0193 66.2565C92.978 66.1327 93.0514 66.0226 93.1844 66.0089L100.764 65.2202C100.893 65.2064 101.035 65.2935 101.081 65.4128L101.672 67.0636C101.718 67.1828 101.645 67.2928 101.516 67.3112V67.3158Z" fill="var(--sapContent_Illustrative_Color2)"/>
<path d="M106.317 71.9835L95.6877 73.1987C95.5547 73.2124 95.408 73.1253 95.3667 73.0015L94.7752 71.3049C94.7339 71.1811 94.8073 71.0664 94.9402 71.0527L105.551 69.8696C105.68 69.8558 105.822 69.943 105.868 70.0622L106.473 71.7267C106.519 71.8505 106.45 71.9606 106.317 71.9744V71.9835Z" fill="var(--sapContent_Illustrative_Color2)"/>
<path d="M106.642 77.2156L97.4759 78.3345C97.3429 78.3528 97.1962 78.2611 97.1503 78.1373L96.5542 76.4177C96.5084 76.2939 96.5863 76.1793 96.7193 76.161L105.872 75.0742C106.005 75.0604 106.147 75.1476 106.188 75.2714L106.798 76.9634C106.844 77.0872 106.775 77.2019 106.642 77.2156Z" fill="var(--sapContent_Illustrative_Color2)"/>
<path d="M107.482 82.4803L99.2873 83.5441C99.1497 83.5625 99.0076 83.4707 98.9617 83.3424L98.3564 81.5999C98.3106 81.4715 98.3839 81.3568 98.5215 81.3385L106.702 80.3021C106.835 80.2838 106.977 80.3755 107.023 80.4993L107.642 82.2189C107.688 82.3473 107.619 82.4619 107.486 82.4803H107.482Z" fill="var(--sapContent_Illustrative_Color2)"/>
<path d="M90.589 61.0597L102.843 95.8326C103.119 96.8376 104.098 97.4855 105.129 97.3529L126.943 94.0215C128.26 93.8532 130.169 92.1169 129.889 90.4079L115.669 57.7334C115.358 56.8457 114.495 56.2743 113.562 56.3355L92.9537 56.878C91.6375 57.3218 89.9257 58.9323 90.589 61.0597Z" fill="var(--sapContent_Illustrative_Color14)"/>
<path d="M91.6755 59.3939L104.016 94.325C104.292 95.33 105.271 95.9779 106.302 95.8453L128.173 92.5598C129.489 92.3915 130.321 91.0497 129.882 89.7947L116.842 56.2207C116.531 55.333 115.669 54.7616 114.735 54.8228L93.5632 56.7462C92.2367 56.8278 91.3235 58.1083 91.6755 59.3888V59.3939Z" fill="var(--sapContent_Illustrative_Color2)"/>
<path d="M112.025 62.6078L100.546 63.9241C100.403 63.9394 100.25 63.8526 100.199 63.7251L99.5563 62.0211C99.5104 61.8987 99.5869 61.7814 99.7297 61.7661L111.188 60.4651C111.331 60.4498 111.484 60.5366 111.53 60.659L112.188 62.3527C112.234 62.4752 112.162 62.5925 112.02 62.6078H112.025Z" fill="var(--sapContent_Illustrative_Color8)"/>
<path d="M110.729 68.1021L102.49 69.0714C102.347 69.0867 102.189 69 102.143 68.8724L101.495 67.1532C101.449 67.0256 101.525 66.9134 101.668 66.893L109.897 65.9339C110.04 65.9186 110.193 66.0053 110.244 66.1328L110.902 67.8419C110.948 67.9694 110.872 68.0817 110.734 68.1021H110.729Z" fill="var(--sapContent_Illustrative_Color8)"/>
<path d="M112.718 73.2756L104.454 74.2755C104.311 74.2908 104.153 74.2041 104.107 74.0766L103.454 72.342C103.408 72.2144 103.484 72.0971 103.627 72.0818L111.882 71.0921C112.025 71.0768 112.178 71.1635 112.229 71.291L112.892 73.0154C112.943 73.1429 112.866 73.2603 112.723 73.2756H112.718Z" fill="var(--sapContent_Illustrative_Color8)"/>
<path d="M118.025 78.0809L106.434 79.5196C106.291 79.54 106.133 79.4482 106.082 79.3206L105.423 77.5708C105.378 77.4432 105.454 77.3259 105.597 77.3055L117.173 75.8821C117.315 75.8668 117.474 75.9535 117.52 76.0811L118.193 77.8156C118.244 77.9432 118.167 78.0605 118.025 78.0809Z" fill="var(--sapContent_Illustrative_Color8)"/>
<path d="M118.406 83.5399L108.432 84.8103C108.284 84.8307 108.131 84.7388 108.08 84.6062L107.412 82.841C107.361 82.7135 107.442 82.591 107.585 82.5757L117.549 81.3207C117.692 81.3003 117.85 81.3921 117.901 81.5197L118.579 83.2746C118.63 83.4022 118.554 83.5246 118.411 83.5399H118.406Z" fill="var(--sapContent_Illustrative_Color8)"/>
<path d="M119.345 88.9886L110.443 90.1517C110.295 90.1722 110.137 90.0803 110.091 89.9477L109.418 88.1672C109.367 88.0346 109.448 87.9172 109.591 87.8968L118.478 86.7489C118.621 86.7285 118.779 86.8204 118.83 86.9479L119.514 88.7182C119.565 88.8508 119.488 88.9682 119.345 88.9886Z" fill="var(--sapContent_Illustrative_Color8)"/>
<path d="M108.566 73.0408C108.566 73.0408 105.535 77.159 99.6484 77.9238C93.7616 78.6886 85.6866 74.3311 83.5769 67.6275C81.2842 60.342 85.4787 55.3494 92.6461 53.7958C99.208 53.2727 108.566 73.0408 108.566 73.0408Z" fill="var(--sapContent_Illustrative_Color16)"/>
<path d="M109.361 63.8454C111.799 70.225 108.383 76.2198 101.507 77.0536C94.4622 77.9075 86.8607 73.0064 84.751 66.2994C82.7123 59.8219 86.6683 54.2895 93.3787 53.7528C99.9406 53.2296 107.005 57.6683 109.365 63.842L109.361 63.8454Z" fill="var(--sapContent_Illustrative_Color15)"/>
<path d="M103.965 63.3958C103.905 63.2338 103.742 63.1333 103.57 63.1509L98.5795 63.6626C98.4059 63.6804 98.2425 63.5779 98.1829 63.4138L96.5769 58.9862C96.518 58.8237 96.357 58.7213 96.1848 58.7369L93.5512 58.9757C93.3038 58.9982 93.1438 59.2479 93.227 59.4821L94.6845 63.5873C94.767 63.8197 94.61 64.068 94.3647 64.0932L89.5177 64.5904C89.2742 64.6154 89.1172 64.8606 89.1965 65.0922L90.0131 67.479C90.0707 67.6475 90.2376 67.7535 90.4147 67.7341L95.644 67.1604C95.8194 67.1412 95.985 67.245 96.0441 67.4113L97.6869 72.0352C97.7465 72.2031 97.9146 72.3071 98.0914 72.2856L100.787 71.9584C101.03 71.9289 101.182 71.6809 101.099 71.4508L99.558 67.2056C99.4738 66.9738 99.6291 66.7243 99.8743 66.6975L104.507 66.1903C104.754 66.1633 104.909 65.9108 104.822 65.6782L103.965 63.3958Z" fill="var(--sapContent_Illustrative_Color8)"/>
</svg>
