<svg width="128" height="128" viewBox="0 0 128 128" fill="none" xmlns="http://www.w3.org/2000/svg" id="sapIllus-Spot-ResizeColumn">
<mask id="mask0_1663_6423" style="mask-type:alpha" maskUnits="userSpaceOnUse" x="0" y="0" width="128" height="128">
<circle cx="64" cy="64" r="64" style="fill:var(--sapContent_Illustrative_Color7)"/>
</mask>
<g mask="url(#mask0_1663_6423)">
<path d="M161.979 -15.876H-52.9697C-54.3708 -15.8774 -55.7584 -15.5819 -57.0532 -15.0065C-58.348 -14.4311 -59.5246 -13.587 -60.5158 -12.5224C-61.507 -11.4579 -62.2933 -10.1938 -62.8297 -8.80246C-63.3662 -7.41108 -63.6423 -5.91968 -63.6423 -4.41352V131.411C-63.6423 134.454 -62.5179 137.372 -60.5164 139.523C-58.5149 141.675 -55.8003 142.884 -52.9697 142.884H161.979C164.809 142.884 167.524 141.675 169.525 139.523C171.527 137.372 172.651 134.454 172.651 131.411V-4.41352C172.651 -5.91968 172.375 -7.41108 171.839 -8.80246C171.302 -10.1938 170.516 -11.4579 169.525 -12.5224C168.533 -13.587 167.357 -14.4311 166.062 -15.0065C164.767 -15.5819 163.38 -15.8774 161.979 -15.876Z" style="fill:var(--sapContent_Illustrative_Color7)"/>
<path d="M48.5476 76.1973H-41.8198C-43.2125 76.1973 -44.3416 77.3283 -44.3416 78.7236V137.354C-44.3416 138.749 -43.2125 139.88 -41.8198 139.88H48.5476C49.9403 139.88 51.0693 138.749 51.0693 137.354V78.7236C51.0693 77.3283 49.9403 76.1973 48.5476 76.1973Z" style="fill:var(--sapContent_Illustrative_Color18)"/>
<path d="M46.4555 79.6289H-39.8531C-41.1457 79.6289 -42.1935 80.6786 -42.1935 81.9735V134.782C-42.1935 136.077 -41.1457 137.127 -39.8531 137.127H46.4555C47.748 137.127 48.7959 136.077 48.7959 134.782V81.9735C48.7959 80.6786 47.748 79.6289 46.4555 79.6289Z" style="fill:var(--sapContent_Illustrative_Color7)"/>
<path d="M3.53828 78.4413C3.87567 78.4413 4.14919 78.1673 4.14919 77.8293C4.14919 77.4913 3.87567 77.2173 3.53828 77.2173C3.20088 77.2173 2.92737 77.4913 2.92737 77.8293C2.92737 78.1673 3.20088 78.4413 3.53828 78.4413Z" style="fill:var(--sapContent_Illustrative_Color19)"/>
<path d="M154.206 78.3285L113.658 64.4388C111.936 63.854 110.068 64.7637 109.483 66.4857L89.2738 125.472C88.689 127.194 89.5987 129.062 91.3207 129.647L131.869 143.537C133.591 144.121 135.459 143.212 136.044 141.49L156.253 82.5035C156.838 80.7815 155.928 78.9133 154.206 78.3285Z" style="fill:var(--sapContent_Illustrative_Color18)"/>
<path d="M129.887 79.3352C128.555 78.7991 127.076 78.6692 125.679 78.9778C124.266 79.2702 122.982 79.985 121.975 81.0247C120.968 82.0644 120.286 83.364 120.026 84.7774C119.766 86.1907 119.928 87.6528 120.497 88.9849C121.066 90.317 122.008 91.4379 123.226 92.2176C124.428 92.9974 125.842 93.4198 127.287 93.3873C128.733 93.3711 130.13 92.9162 131.316 92.1039C132.502 91.2917 133.428 90.1383 133.964 88.8062L127.19 86.1095L129.903 79.3352H129.887Z" style="fill:var(--sapContent_Illustrative_Color7)"/>
<path d="M137.668 102.533L109.418 92.8512C108.476 92.5263 107.468 93.0299 107.143 93.9721C106.818 94.9143 107.322 95.9215 108.264 96.2464L136.515 105.929C137.457 106.253 138.464 105.75 138.789 104.808C139.114 103.865 138.61 102.858 137.668 102.533Z" style="fill:var(--sapContent_Illustrative_Color7)"/>
<path d="M135.231 108.284L106.981 98.6021C106.039 98.2772 105.032 98.7808 104.707 99.7231C104.382 100.665 104.885 101.672 105.828 101.997L134.078 111.68C135.02 112.004 136.044 111.501 136.352 110.559C136.677 109.616 136.174 108.609 135.231 108.284Z" style="fill:var(--sapContent_Illustrative_Color7)"/>
<path d="M119.701 109.39L104.658 104.24C103.716 103.915 102.692 104.419 102.384 105.361C102.059 106.303 102.562 107.31 103.505 107.635L118.564 112.785C119.506 113.11 120.513 112.606 120.838 111.664C121.163 110.722 120.66 109.714 119.717 109.39H119.701Z" style="fill:var(--sapContent_Illustrative_Color7)"/>
<path d="M81.7645 13.2793H5.70279C1.09391 13.2793 -2.64233 17.0155 -2.64233 21.6244V115.697C-2.64233 120.306 1.09391 124.042 5.70279 124.042H81.7645C86.3734 124.042 90.1096 120.306 90.1096 115.697V21.6244C90.1096 17.0155 86.3734 13.2793 81.7645 13.2793Z" style="fill:var(--sapContent_Illustrative_Color8)"/>
<path fill-rule="evenodd" clip-rule="evenodd" d="M5.90839 22.2468C5.90839 21.8675 5.99817 21.5635 6.1053 21.5635H69.2671C69.3771 21.5635 69.464 21.853 69.464 22.2468V115.077C69.464 115.456 69.3771 115.76 69.2671 115.76H6.1053C5.99817 115.76 5.90839 115.471 5.90839 115.077V22.2468Z" style="fill:var(--sapContent_Illustrative_Color8)"/>
<path d="M69.464 30.4502H5.90839V38.1438H69.464V30.4502Z" style="fill:var(--sapContent_Illustrative_Color18)"/>
<path d="M32.1512 24.2969H11.2942C10.3027 24.2969 9.4989 25.1006 9.4989 26.0921C9.4989 27.0836 10.3027 27.8874 11.2942 27.8874H32.1512C33.1427 27.8874 33.9465 27.0836 33.9465 26.0921C33.9465 25.1006 33.1427 24.2969 32.1512 24.2969Z" style="fill:var(--sapContent_Illustrative_Color14)"/>
<path d="M27.7933 33.3574H10.5239C9.95783 33.3574 9.4989 33.8163 9.4989 34.3825C9.4989 34.9486 9.95783 35.4075 10.5239 35.4075H27.7933C28.3594 35.4075 28.8184 34.9486 28.8184 34.3825C28.8184 33.8163 28.3594 33.3574 27.7933 33.3574Z" style="fill:var(--sapContent_Illustrative_Color14)"/>
<path d="M24.5445 40.8799H10.5239C9.95783 40.8799 9.4989 41.3388 9.4989 41.9049C9.4989 42.471 9.95783 42.93 10.5239 42.93H24.5445C25.1106 42.93 25.5695 42.471 25.5695 41.9049C25.5695 41.3388 25.1106 40.8799 24.5445 40.8799Z" style="fill:var(--sapContent_Illustrative_Color14)"/>
<path d="M26.7654 48.7446H10.5239C9.95783 48.7446 9.4989 49.2036 9.4989 49.7697C9.4989 50.3358 9.95783 50.7947 10.5239 50.7947H26.7654C27.3315 50.7947 27.7904 50.3358 27.7904 49.7697C27.7904 49.2036 27.3315 48.7446 26.7654 48.7446Z" style="fill:var(--sapContent_Illustrative_Color14)"/>
<path d="M17.8759 56.2642H10.5239C9.95783 56.2642 9.4989 56.7231 9.4989 57.2892C9.4989 57.8553 9.95783 58.3142 10.5239 58.3142H17.8759C18.442 58.3142 18.9009 57.8553 18.9009 57.2892C18.9009 56.7231 18.442 56.2642 17.8759 56.2642Z" style="fill:var(--sapContent_Illustrative_Color14)"/>
<path d="M17.8759 63.958H10.5239C9.95783 63.958 9.4989 64.4169 9.4989 64.9831C9.4989 65.5492 9.95783 66.0081 10.5239 66.0081H17.8759C18.442 66.0081 18.9009 65.5492 18.9009 64.9831C18.9009 64.4169 18.442 63.958 17.8759 63.958Z" style="fill:var(--sapContent_Illustrative_Color14)"/>
<path d="M17.8759 79.3452H10.5239C9.95783 79.3452 9.4989 79.8041 9.4989 80.3703C9.4989 80.9364 9.95783 81.3953 10.5239 81.3953H17.8759C18.442 81.3953 18.9009 80.9364 18.9009 80.3703C18.9009 79.8041 18.442 79.3452 17.8759 79.3452Z" style="fill:var(--sapContent_Illustrative_Color14)"/>
<path d="M17.8759 71.6514H10.5239C9.95783 71.6514 9.4989 72.1103 9.4989 72.6764C9.4989 73.2425 9.95783 73.7015 10.5239 73.7015H17.8759C18.442 73.7015 18.9009 73.2425 18.9009 72.6764C18.9009 72.1103 18.442 71.6514 17.8759 71.6514Z" style="fill:var(--sapContent_Illustrative_Color14)"/>
<path d="M17.8759 87.0386H10.5239C9.95783 87.0386 9.4989 87.4975 9.4989 88.0636C9.4989 88.6297 9.95783 89.0887 10.5239 89.0887H17.8759C18.442 89.0887 18.9009 88.6297 18.9009 88.0636C18.9009 87.4975 18.442 87.0386 17.8759 87.0386Z" style="fill:var(--sapContent_Illustrative_Color14)"/>
<path d="M17.8412 94.7646H10.4893C9.92316 94.7646 9.46423 95.2236 9.46423 95.7897C9.46423 96.3558 9.92316 96.8147 10.4893 96.8147H17.8412C18.4073 96.8147 18.8663 96.3558 18.8663 95.7897C18.8663 95.2236 18.4073 94.7646 17.8412 94.7646Z" style="fill:var(--sapContent_Illustrative_Color14)"/>
<path d="M63.7104 33.1631H46.4411C45.8749 33.1631 45.416 33.622 45.416 34.1881C45.416 34.7542 45.8749 35.2132 46.4411 35.2132H63.7104C64.2765 35.2132 64.7355 34.7542 64.7355 34.1881C64.7355 33.622 64.2765 33.1631 63.7104 33.1631Z" style="fill:var(--sapContent_Illustrative_Color14)"/>
<path d="M60.4616 40.686H46.4411C45.8749 40.686 45.416 41.145 45.416 41.7111C45.416 42.2772 45.8749 42.7361 46.4411 42.7361H60.4616C61.0277 42.7361 61.4866 42.2772 61.4866 41.7111C61.4866 41.145 61.0277 40.686 60.4616 40.686Z" style="fill:var(--sapContent_Illustrative_Color14)"/>
<path d="M62.6825 48.5474H46.4411C45.8749 48.5474 45.416 49.0063 45.416 49.5724C45.416 50.1385 45.8749 50.5974 46.4411 50.5974H62.6825C63.2486 50.5974 63.7075 50.1385 63.7075 49.5724C63.7075 49.0063 63.2486 48.5474 62.6825 48.5474Z" style="fill:var(--sapContent_Illustrative_Color14)"/>
<path d="M53.793 56.0703H46.4411C45.8749 56.0703 45.416 56.5292 45.416 57.0954C45.416 57.6615 45.8749 58.1204 46.4411 58.1204H53.793C54.3591 58.1204 54.818 57.6615 54.818 57.0954C54.818 56.5292 54.3591 56.0703 53.793 56.0703Z" style="fill:var(--sapContent_Illustrative_Color14)"/>
<path d="M53.793 63.7637H46.4411C45.8749 63.7637 45.416 64.2226 45.416 64.7887C45.416 65.3548 45.8749 65.8138 46.4411 65.8138H53.793C54.3591 65.8138 54.818 65.3548 54.818 64.7887C54.818 64.2226 54.3591 63.7637 53.793 63.7637Z" style="fill:var(--sapContent_Illustrative_Color14)"/>
<path d="M53.793 79.1514H46.4411C45.8749 79.1514 45.416 79.6103 45.416 80.1764C45.416 80.7425 45.8749 81.2015 46.4411 81.2015H53.793C54.3591 81.2015 54.818 80.7425 54.818 80.1764C54.818 79.6103 54.3591 79.1514 53.793 79.1514Z" style="fill:var(--sapContent_Illustrative_Color14)"/>
<path d="M53.793 71.4575H46.4411C45.8749 71.4575 45.416 71.9164 45.416 72.4826C45.416 73.0487 45.8749 73.5076 46.4411 73.5076H53.793C54.3591 73.5076 54.818 73.0487 54.818 72.4826C54.818 71.9164 54.3591 71.4575 53.793 71.4575Z" style="fill:var(--sapContent_Illustrative_Color14)"/>
<path d="M53.793 86.8447H46.4411C45.8749 86.8447 45.416 87.3037 45.416 87.8698C45.416 88.4359 45.8749 88.8948 46.4411 88.8948H53.793C54.3591 88.8948 54.818 88.4359 54.818 87.8698C54.818 87.3037 54.3591 86.8447 53.793 86.8447Z" style="fill:var(--sapContent_Illustrative_Color14)"/>
<path d="M53.793 94.5386H46.4411C45.8749 94.5386 45.416 94.9975 45.416 95.5636C45.416 96.1297 45.8749 96.5886 46.4411 96.5886H53.793C54.3591 96.5886 54.818 96.1297 54.818 95.5636C54.818 94.9975 54.3591 94.5386 53.793 94.5386Z" style="fill:var(--sapContent_Illustrative_Color14)"/>
<path d="M74.4099 30.6162H113.8C113.826 30.6162 113.852 30.6244 113.87 30.6389C113.889 30.6534 113.899 30.6731 113.899 30.6937V108.554C113.899 108.575 113.889 108.594 113.87 108.609C113.852 108.623 113.826 108.632 113.8 108.632H74.5089C74.4826 108.632 74.4574 108.623 74.4389 108.609C74.4203 108.594 74.4099 108.575 74.4099 108.554V30.6162Z" style="fill:var(--sapContent_Illustrative_Color6)"/>
<path d="M120.125 28.6899H76.783V106.705H120.125V28.6899Z" style="fill:var(--sapContent_Illustrative_Color8)"/>
<path d="M76.783 28.6899H120.03C120.056 28.6899 120.08 28.6973 120.097 28.7103C120.115 28.7233 120.125 28.7409 120.125 28.7594V38.3215H76.783V28.6899Z" style="fill:var(--sapContent_Illustrative_Color18)"/>
<path d="M100.099 31.9351H79.9874C79.3281 31.9351 78.7937 32.4695 78.7937 33.1288C78.7937 33.788 79.3281 34.3225 79.9874 34.3225H100.099C100.758 34.3225 101.292 33.788 101.292 33.1288C101.292 32.4695 100.758 31.9351 100.099 31.9351Z" style="fill:var(--sapContent_Illustrative_Color14)"/>
<path d="M96.2307 42.1738H79.903C79.2437 42.1738 78.7093 42.7083 78.7093 43.3675C78.7093 44.0268 79.2437 44.5613 79.903 44.5613H96.2307C96.8899 44.5613 97.4244 44.0268 97.4244 43.3675C97.4244 42.7083 96.8899 42.1738 96.2307 42.1738Z" style="fill:var(--sapContent_Illustrative_Color14)"/>
<path d="M98.817 51.3325H79.903C79.2437 51.3325 78.7093 51.867 78.7093 52.5262C78.7093 53.1855 79.2437 53.72 79.903 53.72H98.817C99.4763 53.72 100.011 53.1855 100.011 52.5262C100.011 51.867 99.4763 51.3325 98.817 51.3325Z" style="fill:var(--sapContent_Illustrative_Color14)"/>
<path d="M88.4647 60.0928H79.903C79.2437 60.0928 78.7093 60.6272 78.7093 61.2865C78.7093 61.9458 79.2437 62.4802 79.903 62.4802H88.4647C89.124 62.4802 89.6585 61.9458 89.6585 61.2865C89.6585 60.6272 89.124 60.0928 88.4647 60.0928Z" style="fill:var(--sapContent_Illustrative_Color14)"/>
<path d="M88.4647 69.0527H79.903C79.2437 69.0527 78.7093 69.5872 78.7093 70.2464C78.7093 70.9057 79.2437 71.4402 79.903 71.4402H88.4647C89.124 71.4402 89.6585 70.9057 89.6585 70.2464C89.6585 69.5872 89.124 69.0527 88.4647 69.0527Z" style="fill:var(--sapContent_Illustrative_Color14)"/>
<path d="M88.4647 86.9717H79.903C79.2437 86.9717 78.7093 87.5061 78.7093 88.1654C78.7093 88.8247 79.2437 89.3591 79.903 89.3591H88.4647C89.124 89.3591 89.6585 88.8247 89.6585 88.1654C89.6585 87.5061 89.124 86.9717 88.4647 86.9717Z" style="fill:var(--sapContent_Illustrative_Color14)"/>
<path d="M88.4647 78.0127H79.903C79.2437 78.0127 78.7093 78.5471 78.7093 79.2064C78.7093 79.8657 79.2437 80.4001 79.903 80.4001H88.4647C89.124 80.4001 89.6585 79.8657 89.6585 79.2064C89.6585 78.5471 89.124 78.0127 88.4647 78.0127Z" style="fill:var(--sapContent_Illustrative_Color14)"/>
<path d="M88.4647 95.9282H79.903C79.2437 95.9282 78.7093 96.4627 78.7093 97.1219C78.7093 97.7812 79.2437 98.3157 79.903 98.3157H88.4647C89.124 98.3157 89.6585 97.7812 89.6585 97.1219C89.6585 96.4627 89.124 95.9282 88.4647 95.9282Z" style="fill:var(--sapContent_Illustrative_Color14)"/>
</g>
</svg>
