<svg width="160" height="160" viewBox="0 0 160 160" fill="none" xmlns="http://www.w3.org/2000/svg" id="sapIllus-Dialog-NoEntries">
<rect y="51.5" width="160" height="69" rx="12" fill="var(--sapContent_Illustrative_Color20)"/>
<path d="M53.7953 57.0944L63.2879 91.4247C63.4913 92.1622 64.2103 92.6394 64.9765 92.5418L105.148 87.3612C107.526 86.7611 108.205 84.8522 107.882 83.9303L95.2774 52.0547C95.0486 51.404 94.4131 50.9846 93.7231 51.028L55.6728 52.1415C54.6959 52.2029 52.7349 53.602 53.7989 57.0944H53.7953Z" fill="var(--sapContent_Illustrative_Color22)"/>
<path d="M54.2965 54.0755L64.2575 90.0942C64.4609 90.8317 65.1799 91.3089 65.9461 91.2113L106.626 85.9655C107.599 85.839 108.209 84.8557 107.886 83.9338L96.2469 50.7241C96.0182 50.0734 95.3827 49.654 94.6927 49.6974L55.6946 52.1341C54.7177 52.1955 54.0423 53.1355 54.3037 54.0755H54.2965Z" fill="var(--sapContent_Illustrative_Color8)"/>
<path d="M66.5441 42.8766L73.7908 61.6838C74.0772 62.6304 72.1645 64.5052 71.177 64.5893L35.4793 67.641C34.7084 67.7068 34.0035 67.1987 33.8273 66.4459L29.0586 46.1842C28.6768 44.3422 30.2496 42.1994 31.2262 42.1556L64.9765 41.7766C65.6887 41.7437 66.3348 42.1969 66.5404 42.8803L66.5441 42.8766Z" fill="var(--sapContent_Illustrative_Color14)"/>
<path d="M67.7335 41.612L73.7248 61.3255C74.0111 62.2721 73.354 63.2406 72.3628 63.3246L36.6651 66.3763C35.8942 66.4421 35.1893 65.9341 35.0131 65.1812L30.0314 43.9949C29.8075 43.0483 30.505 42.1346 31.4815 42.0871L66.166 40.5119C66.8782 40.479 67.5243 40.9322 67.7299 41.6157L67.7335 41.612Z" fill="var(--sapContent_Illustrative_Color2)"/>
<path d="M41.6761 44.0791C40.0535 44.1558 38.6328 44.6346 37.5094 45.3911L43.4639 51.2971L34.8589 50.8915C34.8883 51.1875 34.9286 51.4835 35.0021 51.7869C35.9712 55.8948 40.6115 58.9939 45.2921 58.6687C49.9067 58.3471 52.7481 54.8166 51.7092 50.822C50.6813 46.8713 46.2209 43.8708 41.6761 44.0791Z" fill="var(--sapContent_Illustrative_Color13)"/>
<path d="M105.435 112.612L84.4522 106.155C87.8663 103.711 85.7697 100.89 79.3616 99.1703C72.0287 97.1998 60.4215 97.0847 52.2826 99.0315C43.0192 101.249 41.0141 105.414 49.468 108.18C58.2471 111.051 72.9568 110.749 81.0957 107.811L100.618 114.569L102.993 114.164C103.43 113.636 103.67 114.21 104.354 113.797C105.621 112.93 106.285 112.361 106.075 112.256H105.435V112.612Z" fill="var(--sapContent_Illustrative_Color21)"/>
<path d="M108.284 61.2213C109.677 67.0493 107.381 73.0511 104.514 77.336C101.935 81.1863 97.5832 83.8993 91.8856 84.5802C79.3188 86.0798 65.8679 77.1296 62.477 65.0028C59.0861 52.876 66.5338 41.3324 78.4675 40.7819C89.9318 40.253 104.438 50.4818 108.284 61.2213Z" fill="var(--sapContent_Illustrative_Color16)"/>
<path d="M107.443 58.2294C111.442 69.3927 105.409 79.8895 93.3737 81.3275C80.807 82.827 67.3561 73.8769 63.9651 61.7501C60.5742 49.6233 68.2147 40.5753 80.1521 40.0248C91.6164 39.4959 103.601 47.4935 107.447 58.2294H107.443Z" fill="var(--sapContent_Illustrative_Color15)"/>
<path d="M104.762 58.4467C108.193 68.1575 102.873 77.2128 92.4386 78.4044C81.6037 79.6396 70.0265 71.9354 67.054 61.5037C64.187 51.4416 70.6086 43.1035 80.9706 42.5783C90.976 42.0748 101.447 49.0619 104.765 58.4467H104.762Z" fill="var(--sapContent_Illustrative_Color25)"/>
<path d="M107.298 112.68L100.443 114.498L89.5534 79.8531L95.975 79.1069L107.298 112.68Z" fill="var(--sapContent_Illustrative_Color15)"/>
<path d="M66.6938 53.6835L80.8651 42.5854C73.4211 43.002 68.0328 47.4572 66.6938 53.6835Z" fill="var(--sapContent_Illustrative_Color25)"/>
<path d="M92.4387 78.4044C101.644 77.354 106.865 70.1859 105.613 61.8442L82.939 77.3323C86.0134 78.3537 89.2588 78.7667 92.4387 78.4044Z" fill="var(--sapContent_Illustrative_Color8)"/>
<path d="M93.5919 45.715L93.5847 45.7114L93.5919 45.715Z" fill="var(--sapContent_Illustrative_Color25)"/>
<path d="M80.967 42.5784C81.2617 42.564 81.5528 42.5568 81.8475 42.5532C81.5528 42.5532 81.2617 42.564 80.967 42.5784Z" fill="var(--sapContent_Illustrative_Color25)"/>
<path d="M90.4885 44.2407C90.5794 44.2769 90.6704 44.3132 90.7577 44.3494C90.6667 44.3132 90.5794 44.2769 90.4885 44.2407Z" fill="var(--sapContent_Illustrative_Color25)"/>
<path d="M91.3144 44.5815C91.3762 44.6105 91.4381 44.6395 91.5 44.6649C91.4381 44.6359 91.3762 44.6069 91.3144 44.5815Z" fill="var(--sapContent_Illustrative_Color25)"/>
<path d="M89.6516 43.9258C89.7535 43.962 89.859 43.9982 89.9609 44.0381C89.859 43.9982 89.7571 43.962 89.6516 43.9258Z" fill="var(--sapContent_Illustrative_Color25)"/>
<path d="M83.9904 42.6509C84.1578 42.6653 84.3251 42.6833 84.4961 42.7049C84.3288 42.6869 84.1614 42.6689 83.9904 42.6509Z" fill="var(--sapContent_Illustrative_Color25)"/>
<path d="M83.0845 42.5854C83.2591 42.5963 83.4374 42.6035 83.612 42.6179C83.4374 42.6035 83.2591 42.5927 83.0845 42.5854Z" fill="var(--sapContent_Illustrative_Color25)"/>
<path d="M84.8818 42.752C85.0456 42.7736 85.2129 42.7988 85.3766 42.824C85.2129 42.7988 85.0492 42.7736 84.8818 42.752Z" fill="var(--sapContent_Illustrative_Color25)"/>
<path d="M82.1422 42.5566C82.3387 42.5566 82.5315 42.5602 82.728 42.5674C82.5315 42.5602 82.335 42.5566 82.1422 42.5566Z" fill="var(--sapContent_Illustrative_Color25)"/>
<path d="M105.773 63.3513C105.235 52.5647 94.8254 43.9368 84.4925 42.651C80.8978 42.3214 74.5781 42.3214 69.9901 47.2873C69.4735 47.8451 68.9896 48.4971 68.5385 49.1853C68.462 49.3012 68.4184 49.3808 68.3493 49.4931C68.3383 49.5076 68.3347 49.5257 68.3238 49.5438C73.7631 43.0205 82.4587 42.6039 90.1428 45.6465C98.0962 48.7941 104.965 55.6507 105.773 63.3585V63.3513Z" fill="var(--sapContent_Illustrative_Color16)"/>
<path d="M79.1624 43.9187L66.6938 53.6839C66.1808 56.0744 66.2609 58.7222 67.054 61.504C67.1195 61.7358 67.1923 61.964 67.2687 62.1922L91.3944 46.1789C87.4432 44.4149 83.1645 43.5384 79.1624 43.9187Z" fill="var(--sapContent_Illustrative_Color8)"/>
<path d="M86.9412 81.2224L90.6777 83.4283C90.6777 83.4283 89.8991 81.5049 92.4605 81.2405V81.2007C91.4345 81.3564 89.3679 81.5629 86.9412 81.2188V81.2224Z" fill="var(--sapContent_Illustrative_Color16)"/>
<path d="M95.1746 80.8566C95.6949 80.8783 96.6045 81.2623 97.0374 82.367L97.656 80.3604C97.656 80.3604 97.0847 80.6356 95.1746 80.853V80.8566Z" fill="var(--sapContent_Illustrative_Color16)"/>
<path d="M100.443 114.499L90.2338 82.0554L90.9215 81.3672C90.9215 81.3672 92.2276 81.2912 93.7121 80.9941C93.7121 80.9941 93.1991 81.5701 93.3482 82.3669C93.9449 85.4964 103.652 113.89 103.652 113.89L100.439 114.499H100.443Z" fill="var(--sapContent_Illustrative_Color16)"/>
<path d="M107.298 112.68C107.298 113.057 105.529 113.684 102.637 114.426C101.207 114.712 100.505 114.676 100.443 114.499C100.399 114.372 101.182 113.883 102.6 113.427C104.725 112.764 107.057 112.391 107.298 112.68Z" fill="var(--sapContent_Illustrative_Color16)"/>
<path d="M88.4001 60.8443C89.3606 59.8772 90.2556 58.8956 89.699 57.1896C89.0805 55.2953 87.2759 54.3608 85.1693 54.5057C82.9972 54.6542 81.9384 55.7408 81.3417 57.1208L79.3261 55.777C80.0465 54.176 81.4946 52.8178 84.5289 52.6185C88.1527 52.3795 90.9797 54.0312 91.9329 56.8999C92.7224 59.2868 91.6673 60.6016 90.463 61.9418C89.357 63.1588 88.7894 63.7999 89.1714 64.9916L89.2515 65.2379L87.0394 65.4371L86.9593 65.1908C86.2717 63.0248 87.3413 61.9056 88.4001 60.8479V60.8443ZM88.7203 67.0562C89.6335 66.9729 90.5431 67.5778 90.8269 68.458C91.1107 69.3381 90.634 70.0879 89.7172 70.1785C88.7858 70.269 87.8835 69.6714 87.5997 68.7658C87.3159 67.8603 87.7925 67.1395 88.7203 67.0526V67.0562Z" fill="var(--sapContent_Illustrative_Color22)"/>
<path d="M128.905 87.507L114.719 89.4705C113.253 89.6744 111.575 88.4691 110.986 86.7917C110.4 85.1215 111.417 83.1366 112.674 82.6609L126.685 81.6595C128.057 81.4879 129.66 82.6395 130.274 84.2417L130.957 84.0701C131.208 85.869 130.285 87.3139 128.905 87.507Z" fill="var(--sapContent_Illustrative_Color14)"/>
<path d="M129.394 86.6451L115.207 88.6085C113.741 88.8124 112.064 87.6071 111.475 85.9298C110.889 84.2596 111.604 82.761 113.062 82.5786L127.17 80.8011C128.542 80.6295 130.145 81.7811 130.759 83.3833C131.377 84.9927 130.766 86.4591 129.39 86.6486L129.394 86.6451Z" fill="var(--sapContent_Illustrative_Color13)"/>
<path d="M123.969 84.2382C124.167 84.7676 123.955 85.2504 123.499 85.3112C123.042 85.372 122.507 84.9893 122.313 84.46C122.115 83.9271 122.331 83.4514 122.787 83.3906C123.244 83.3298 123.772 83.7125 123.969 84.2418V84.2382Z" fill="var(--sapContent_Illustrative_Color2)"/>
<path d="M126.193 83.945C126.391 84.4743 126.186 84.95 125.733 85.0108C125.28 85.0716 124.749 84.6925 124.551 84.1632C124.354 83.6339 124.562 83.1582 125.015 83.101C125.467 83.0437 125.995 83.4193 126.193 83.9486V83.945Z" fill="var(--sapContent_Illustrative_Color2)"/>
<path d="M128.399 83.6516C128.596 84.1773 128.399 84.653 127.946 84.7138C127.493 84.7746 126.969 84.3955 126.771 83.8697C126.574 83.344 126.779 82.8719 127.228 82.8111C127.677 82.7503 128.201 83.1294 128.399 83.6551V83.6516Z" fill="var(--sapContent_Illustrative_Color2)"/>
<path d="M125.543 79.3063L111.701 81.0123C110.253 81.1875 108.608 80.0073 108.04 78.38C107.472 76.7635 108.568 74.7213 109.779 74.3744L123.66 73.6412C125.015 73.4946 126.588 74.6247 127.184 76.1769L127.781 75.923C128.237 77.5539 126.911 79.1382 125.55 79.3027L125.543 79.3063Z" fill="var(--sapContent_Illustrative_Color14)"/>
<path d="M126.293 78.4406L112.189 80.1466C110.742 80.3218 109.096 79.1416 108.529 77.5143C107.961 75.8977 108.68 74.4636 110.117 74.3062L124.145 72.7755C125.5 72.6289 127.073 73.759 127.669 75.3112C128.269 76.8705 127.655 78.2725 126.293 78.437V78.4406Z" fill="var(--sapContent_Illustrative_Color2)"/>
<path d="M117.219 77.171L111.546 77.8326C111.234 77.8684 110.878 77.6145 110.752 77.264C110.627 76.9135 110.781 76.6023 111.094 76.5666L116.759 75.9228C117.064 75.887 117.413 76.141 117.542 76.4843C117.668 76.8312 117.524 77.1388 117.219 77.1746V77.171Z" fill="var(--sapContent_Illustrative_Color13)"/>
<path d="M122.13 71.3841L108.805 72.8469C107.368 72.9971 105.748 71.8312 105.191 70.2504C104.638 68.6767 105.504 66.4343 107.275 66.3019L120.707 65.8692C122.051 65.744 124.257 66.5452 124.835 68.058C125.227 69.8319 123.527 71.2232 122.13 71.3841Z" fill="var(--sapContent_Illustrative_Color14)"/>
<path d="M123.29 70.5223L109.294 71.9851C107.857 72.1353 106.237 70.9694 105.68 69.3886C105.127 67.815 105.849 66.438 107.275 66.3057L121.196 65.011C122.539 64.8858 124.095 66.0053 124.673 67.5145C125.255 69.0345 124.641 70.3829 123.287 70.5259L123.29 70.5223Z" fill="var(--sapContent_Illustrative_Color13)"/>
<path d="M122.051 68.391L116.594 68.9382C116.292 68.9668 115.947 68.72 115.825 68.3838C115.703 68.0476 115.847 67.7544 116.145 67.7222L121.598 67.1893C121.893 67.1607 122.23 67.4039 122.356 67.7365C122.482 68.0691 122.345 68.3588 122.051 68.391Z" fill="var(--sapContent_Illustrative_Color2)"/>
</svg>