<svg width="320" height="202" viewBox="0 0 320 202" fill="none" xmlns="http://www.w3.org/2000/svg" id="sapIllus-Scene-ResizeColumn">
<path d="M305.547 6.15619e-06H14.4533C12.5559 -0.00174584 10.6768 0.37047 8.92329 1.09536C7.16981 1.82026 5.57638 2.88362 4.23409 4.22468C2.8918 5.56573 1.82697 7.15816 1.10045 8.91098C0.373942 10.6638 -8.08861e-07 12.5426 0 14.44V185.547C0 189.38 1.52275 193.056 4.23328 195.767C6.9438 198.477 10.6201 200 14.4533 200H305.547C309.38 200 313.056 198.477 315.767 195.767C318.477 193.056 320 189.38 320 185.547V14.44C320 12.5426 319.626 10.6638 318.9 8.91098C318.173 7.15816 317.108 5.56573 315.766 4.22468C314.424 2.88362 312.83 1.82026 311.077 1.09536C309.323 0.37047 307.444 -0.00174584 305.547 6.15619e-06V6.15619e-06Z" fill="var(--sapContent_Illustrative_Color7)"/>
<path d="M307.616 95.7767L250.515 76.1718C248.094 75.3406 245.459 76.6337 244.629 79.0601L216.168 162.325C215.339 164.751 216.629 167.392 219.05 168.223L276.152 187.828C278.573 188.66 281.208 187.366 282.037 184.94L310.498 101.675C311.328 99.2487 310.037 96.6079 307.616 95.7767Z" fill="var(--sapContent_Illustrative_Color18)"/>
<path d="M273.369 97.2048C271.484 96.4507 269.418 96.2737 267.432 96.6963C265.447 97.1189 263.631 98.122 262.214 99.5789C260.797 101.036 259.843 102.881 259.473 104.881C259.102 106.881 259.332 108.947 260.133 110.816C260.933 112.685 262.269 114.275 263.971 115.384C265.673 116.492 267.665 117.07 269.694 117.045C271.724 117.019 273.7 116.391 275.374 115.239C277.047 114.088 278.342 112.465 279.096 110.576L269.557 106.764L273.369 97.2048Z" fill="var(--sapContent_Illustrative_Color7)"/>
<path d="M276.42 95.7939L272.617 105.345L282.147 109.156C282.647 107.902 282.895 106.561 282.878 105.211C282.861 103.86 282.579 102.527 282.047 101.286C281.515 100.045 280.744 98.9209 279.779 97.9786C278.813 97.0363 277.672 96.2939 276.42 95.7939V95.7939Z" fill="var(--sapContent_Illustrative_Color19)"/>
<path d="M284.329 129.956L244.538 116.295C243.218 115.842 241.781 116.547 241.329 117.87C240.876 119.193 241.58 120.633 242.9 121.086L282.691 134.747C284.011 135.201 285.448 134.496 285.9 133.173C286.352 131.849 285.649 130.41 284.329 129.956Z" fill="var(--sapContent_Illustrative_Color7)"/>
<path d="M280.888 138.059L241.097 124.397C239.777 123.944 238.34 124.649 237.888 125.972C237.435 127.295 238.139 128.735 239.459 129.189L279.25 142.85C280.57 143.303 282.007 142.598 282.459 141.275C282.911 139.952 282.208 138.512 280.888 138.059Z" fill="var(--sapContent_Illustrative_Color7)"/>
<path d="M259.033 139.634L237.835 132.356C236.515 131.902 235.078 132.607 234.626 133.931C234.174 135.254 234.877 136.693 236.197 137.147L257.396 144.425C258.716 144.878 260.152 144.173 260.605 142.85C261.057 141.527 260.353 140.087 259.033 139.634Z" fill="var(--sapContent_Illustrative_Color7)"/>
<path d="M36.2031 116H152.846C154.644 116 156.101 117.452 156.101 119.244V194.526C156.101 196.318 154.644 197.77 152.846 197.77H36.2031C34.4054 197.77 32.9481 196.318 32.9481 194.526V119.244C32.9481 117.452 34.4054 116 36.2031 116Z" fill="var(--sapContent_Illustrative_Color18)"/>
<path d="M38.9036 120.406H150.307C151.976 120.406 153.328 121.754 153.328 123.417V191.225C153.328 192.888 151.976 194.236 150.307 194.236H38.9036C37.2351 194.236 35.8826 192.888 35.8826 191.225V123.417C35.8826 121.754 37.2351 120.406 38.9036 120.406Z" fill="var(--sapContent_Illustrative_Color7)"/>
<path d="M15.9999 199.266H169.333L165.484 200.824C165.241 200.92 164.982 200.972 164.721 200.974L19.939 201.333C19.5573 201.335 19.1828 201.229 18.8588 201.028L16.0035 199.256L15.9999 199.266Z" fill="var(--sapContent_Illustrative_Color19)"/>
<path d="M15.9999 198.707C16.0009 198.437 16.109 198.179 16.3007 197.988C16.4924 197.798 16.7519 197.691 17.0225 197.691H168.311C168.581 197.691 168.841 197.798 169.032 197.988C169.224 198.179 169.332 198.437 169.333 198.707V199.266H15.9999V198.707Z" fill="var(--sapContent_Illustrative_Color18)"/>
<path d="M101.587 197.659H83.9043V198.018C83.9043 198.398 84.0561 198.764 84.3262 199.033C84.5963 199.302 84.9626 199.453 85.3446 199.453H100.158C100.54 199.453 100.906 199.302 101.176 199.033C101.446 198.764 101.598 198.398 101.598 198.018V197.659H101.587Z" fill="var(--sapContent_Illustrative_Color20)"/>
<path d="M94.2996 118.881C93.8641 118.881 93.5111 118.53 93.5111 118.096C93.5111 117.662 93.8641 117.31 94.2996 117.31C94.7351 117.31 95.0881 117.662 95.0881 118.096C95.0881 118.53 94.7351 118.881 94.2996 118.881Z" fill="var(--sapContent_Illustrative_Color19)"/>
<path d="M196.848 26.6667H91.5525C85.1722 26.6667 80 31.839 80 38.2193V168.448C80 174.828 85.1722 180 91.5525 180H196.848C203.228 180 208.4 174.828 208.4 168.448V38.2193C208.4 31.839 203.228 26.6667 196.848 26.6667Z" fill="var(--sapContent_Illustrative_Color8)"/>
<path fill-rule="evenodd" clip-rule="evenodd" d="M91.8372 39.081C91.8372 38.5559 91.9614 38.135 92.1098 38.135H179.547C179.7 38.135 179.82 38.5359 179.82 39.081V167.59C179.82 168.115 179.7 168.536 179.547 168.536H92.1098C91.9614 168.536 91.8372 168.135 91.8372 167.59V39.081Z" fill="var(--sapContent_Illustrative_Color8)"/>
<path d="M179.82 50.4373H91.8372V61.0879H179.82V50.4373Z" fill="var(--sapContent_Illustrative_Color18)"/>
<path d="M128.166 41.9189H99.2929C97.9203 41.9189 96.8076 43.0316 96.8076 44.4042C96.8076 45.7768 97.9203 46.8895 99.2929 46.8895H128.166C129.539 46.8895 130.651 45.7768 130.651 44.4042C130.651 43.0316 129.539 41.9189 128.166 41.9189Z" fill="var(--sapContent_Illustrative_Color14)"/>
<path d="M122.133 54.4617H98.2266C97.4429 54.4617 96.8076 55.097 96.8076 55.8807C96.8076 56.6644 97.4429 57.2997 98.2266 57.2997H122.133C122.917 57.2997 123.552 56.6644 123.552 55.8807C123.552 55.097 122.917 54.4617 122.133 54.4617Z" fill="var(--sapContent_Illustrative_Color14)"/>
<path d="M117.636 64.8757H98.2266C97.4429 64.8757 96.8076 65.511 96.8076 66.2947C96.8076 67.0784 97.4429 67.7138 98.2266 67.7138H117.636C118.42 67.7138 119.055 67.0784 119.055 66.2947C119.055 65.511 118.42 64.8757 117.636 64.8757Z" fill="var(--sapContent_Illustrative_Color14)"/>
<path d="M120.71 75.7629H98.2266C97.4429 75.7629 96.8076 76.3982 96.8076 77.1819C96.8076 77.9656 97.4429 78.601 98.2266 78.601H120.71C121.494 78.601 122.129 77.9656 122.129 77.1819C122.129 76.3982 121.494 75.7629 120.71 75.7629Z" fill="var(--sapContent_Illustrative_Color14)"/>
<path d="M108.404 86.1731H98.2266C97.4429 86.1731 96.8076 86.8084 96.8076 87.5921C96.8076 88.3758 97.4429 89.0111 98.2266 89.0111H108.404C109.188 89.0111 109.823 88.3758 109.823 87.5921C109.823 86.8084 109.188 86.1731 108.404 86.1731Z" fill="var(--sapContent_Illustrative_Color14)"/>
<path d="M108.404 96.8237H98.2266C97.4429 96.8237 96.8076 97.459 96.8076 98.2427C96.8076 99.0264 97.4429 99.6618 98.2266 99.6618H108.404C109.188 99.6618 109.823 99.0264 109.823 98.2427C109.823 97.459 109.188 96.8237 108.404 96.8237Z" fill="var(--sapContent_Illustrative_Color14)"/>
<path d="M108.404 118.125H98.2266C97.4429 118.125 96.8076 118.76 96.8076 119.544C96.8076 120.327 97.4429 120.963 98.2266 120.963H108.404C109.188 120.963 109.823 120.327 109.823 119.544C109.823 118.76 109.188 118.125 108.404 118.125Z" fill="var(--sapContent_Illustrative_Color14)"/>
<path d="M108.404 107.474H98.2266C97.4429 107.474 96.8076 108.109 96.8076 108.893C96.8076 109.677 97.4429 110.312 98.2266 110.312H108.404C109.188 110.312 109.823 109.677 109.823 108.893C109.823 108.109 109.188 107.474 108.404 107.474Z" fill="var(--sapContent_Illustrative_Color14)"/>
<path d="M108.404 128.775H98.2266C97.4429 128.775 96.8076 129.411 96.8076 130.194C96.8076 130.978 97.4429 131.613 98.2266 131.613H108.404C109.188 131.613 109.823 130.978 109.823 130.194C109.823 129.411 109.188 128.775 108.404 128.775Z" fill="var(--sapContent_Illustrative_Color14)"/>
<path d="M108.356 139.47H98.1785C97.3948 139.47 96.7595 140.106 96.7595 140.889C96.7595 141.673 97.3948 142.308 98.1785 142.308H108.356C109.14 142.308 109.775 141.673 109.775 140.889C109.775 140.106 109.14 139.47 108.356 139.47Z" fill="var(--sapContent_Illustrative_Color14)"/>
<path d="M171.855 54.1931H147.948C147.165 54.1931 146.529 54.8284 146.529 55.6121C146.529 56.3958 147.165 57.0311 147.948 57.0311H171.855C172.639 57.0311 173.274 56.3958 173.274 55.6121C173.274 54.8284 172.639 54.1931 171.855 54.1931Z" fill="var(--sapContent_Illustrative_Color14)"/>
<path d="M167.357 64.6072H147.948C147.165 64.6072 146.529 65.2425 146.529 66.0262C146.529 66.8099 147.165 67.4452 147.948 67.4452H167.357C168.141 67.4452 168.777 66.8099 168.777 66.0262C168.777 65.2425 168.141 64.6072 167.357 64.6072Z" fill="var(--sapContent_Illustrative_Color14)"/>
<path d="M170.432 75.4902H147.948C147.165 75.4902 146.529 76.1255 146.529 76.9092C146.529 77.6929 147.165 78.3283 147.948 78.3283H170.432C171.216 78.3283 171.851 77.6929 171.851 76.9092C171.851 76.1255 171.216 75.4902 170.432 75.4902Z" fill="var(--sapContent_Illustrative_Color14)"/>
<path d="M158.126 85.9043H147.948C147.165 85.9043 146.529 86.5396 146.529 87.3233C146.529 88.107 147.165 88.7423 147.948 88.7423H158.126C158.91 88.7423 159.545 88.107 159.545 87.3233C159.545 86.5396 158.91 85.9043 158.126 85.9043Z" fill="var(--sapContent_Illustrative_Color14)"/>
<path d="M158.126 96.5552H147.948C147.165 96.5552 146.529 97.1905 146.529 97.9742C146.529 98.7579 147.165 99.3932 147.948 99.3932H158.126C158.91 99.3932 159.545 98.7579 159.545 97.9742C159.545 97.1905 158.91 96.5552 158.126 96.5552Z" fill="var(--sapContent_Illustrative_Color14)"/>
<path d="M158.126 117.856H147.948C147.165 117.856 146.529 118.492 146.529 119.275C146.529 120.059 147.165 120.694 147.948 120.694H158.126C158.91 120.694 159.545 120.059 159.545 119.275C159.545 118.492 158.91 117.856 158.126 117.856Z" fill="var(--sapContent_Illustrative_Color14)"/>
<path d="M158.126 107.206H147.948C147.165 107.206 146.529 107.841 146.529 108.625C146.529 109.408 147.165 110.044 147.948 110.044H158.126C158.91 110.044 159.545 109.408 159.545 108.625C159.545 107.841 158.91 107.206 158.126 107.206Z" fill="var(--sapContent_Illustrative_Color14)"/>
<path d="M158.126 128.507H147.948C147.165 128.507 146.529 129.142 146.529 129.926C146.529 130.71 147.165 131.345 147.948 131.345H158.126C158.91 131.345 159.545 130.71 159.545 129.926C159.545 129.142 158.91 128.507 158.126 128.507Z" fill="var(--sapContent_Illustrative_Color14)"/>
<path d="M158.126 139.157H147.948C147.165 139.157 146.529 139.793 146.529 140.576C146.529 141.36 147.165 141.995 147.948 141.995H158.126C158.91 141.995 159.545 141.36 159.545 140.576C159.545 139.793 158.91 139.157 158.126 139.157Z" fill="var(--sapContent_Illustrative_Color14)"/>
<path d="M249.007 29.0501C249.007 27.8612 245.556 26.9096 240.945 26.6935C240.681 22.0883 239.666 18.6641 238.477 18.6667C237.288 18.6694 236.299 22.12 236.046 26.7488C231.422 27.0652 227.984 28.0985 228 29.29C228.016 30.4815 231.451 31.4331 236.062 31.6466C236.339 36.2517 237.341 39.6759 238.527 39.6733C239.713 39.6707 240.707 36.2201 240.96 31.5912C245.585 31.2749 249.02 30.2416 249.007 29.0501Z" fill="var(--sapContent_Illustrative_Color3)"/>
<path d="M263.011 43.564C263.011 42.7979 260.787 42.1846 257.815 42.0453C257.646 39.0776 256.991 36.8709 256.225 36.8726C255.459 36.8743 254.822 39.098 254.659 42.081C251.679 42.2849 249.463 42.9508 249.473 43.7186C249.484 44.4865 251.697 45.0997 254.669 45.2373C254.847 48.2051 255.493 50.4118 256.257 50.4101C257.022 50.4084 257.663 48.1847 257.826 45.2017C260.806 44.9978 263.019 44.3319 263.011 43.564Z" fill="var(--sapContent_Illustrative_Color3)"/>
<path d="M186.667 50.6667H241.196C241.233 50.6667 241.268 50.678 241.293 50.6982C241.319 50.7183 241.333 50.7456 241.333 50.774V158.559C241.333 158.588 241.319 158.615 241.293 158.635C241.268 158.655 241.233 158.667 241.196 158.667H186.804C186.767 158.667 186.733 158.655 186.707 158.635C186.681 158.615 186.667 158.588 186.667 158.559V50.6667Z" fill="var(--sapContent_Illustrative_Color6)"/>
<path d="M249.952 48H189.952V156H249.952V48Z" fill="var(--sapContent_Illustrative_Color8)"/>
<path d="M189.952 48H249.821C249.856 48 249.889 48.0101 249.914 48.0281C249.938 48.0462 249.952 48.0706 249.952 48.0961V61.3333H189.952V48Z" fill="var(--sapContent_Illustrative_Color18)"/>
<path d="M222.229 52.4929H194.388C193.475 52.4929 192.735 53.2328 192.735 54.1454C192.735 55.0581 193.475 55.7979 194.388 55.7979H222.229C223.141 55.7979 223.881 55.0581 223.881 54.1454C223.881 53.2328 223.141 52.4929 222.229 52.4929Z" fill="var(--sapContent_Illustrative_Color14)"/>
<path d="M216.874 66.6667H194.271C193.359 66.6667 192.619 67.4066 192.619 68.3193C192.619 69.2319 193.359 69.9718 194.271 69.9718H216.874C217.787 69.9718 218.527 69.2319 218.527 68.3193C218.527 67.4066 217.787 66.6667 216.874 66.6667Z" fill="var(--sapContent_Illustrative_Color14)"/>
<path d="M220.455 79.345H194.271C193.359 79.345 192.619 80.0848 192.619 80.9975C192.619 81.9101 193.359 82.65 194.271 82.65H220.455C221.367 82.65 222.107 81.9101 222.107 80.9975C222.107 80.0848 221.367 79.345 220.455 79.345Z" fill="var(--sapContent_Illustrative_Color14)"/>
<path d="M206.124 91.4727H194.271C193.359 91.4727 192.619 92.2125 192.619 93.1252C192.619 94.0378 193.359 94.7777 194.271 94.7777H206.124C207.036 94.7777 207.776 94.0378 207.776 93.1252C207.776 92.2125 207.036 91.4727 206.124 91.4727Z" fill="var(--sapContent_Illustrative_Color14)"/>
<path d="M206.124 103.876H194.271C193.359 103.876 192.619 104.616 192.619 105.528C192.619 106.441 193.359 107.181 194.271 107.181H206.124C207.036 107.181 207.776 106.441 207.776 105.528C207.776 104.616 207.036 103.876 206.124 103.876Z" fill="var(--sapContent_Illustrative_Color14)"/>
<path d="M206.124 128.682H194.271C193.359 128.682 192.619 129.422 192.619 130.335C192.619 131.248 193.359 131.987 194.271 131.987H206.124C207.036 131.987 207.776 131.248 207.776 130.335C207.776 129.422 207.036 128.682 206.124 128.682Z" fill="var(--sapContent_Illustrative_Color14)"/>
<path d="M206.124 116.279H194.271C193.359 116.279 192.619 117.019 192.619 117.932C192.619 118.844 193.359 119.584 194.271 119.584H206.124C207.036 119.584 207.776 118.844 207.776 117.932C207.776 117.019 207.036 116.279 206.124 116.279Z" fill="var(--sapContent_Illustrative_Color14)"/>
<path d="M206.124 141.081H194.271C193.359 141.081 192.619 141.821 192.619 142.733C192.619 143.646 193.359 144.386 194.271 144.386H206.124C207.036 144.386 207.776 143.646 207.776 142.733C207.776 141.821 207.036 141.081 206.124 141.081Z" fill="var(--sapContent_Illustrative_Color14)"/>
<path d="M40.0001 81.0501C40.0001 79.8612 43.4511 78.9096 48.062 78.6935C48.3257 74.0883 49.3407 70.6641 50.5297 70.6667C51.7187 70.6694 52.7073 74.12 52.9604 78.7488C57.5845 79.0652 61.0224 80.0985 61.0065 81.29C60.9907 82.4815 57.5555 83.4331 52.9446 83.6466C52.6677 88.2517 51.6659 91.6759 50.4796 91.6733C49.2932 91.6707 48.2993 88.2201 48.0462 83.5912C43.4221 83.2749 39.9869 82.2416 40.0001 81.0501Z" fill="var(--sapContent_Illustrative_Color18)"/>
<path d="M18.6667 22.6915C18.6667 21.9253 20.8907 21.3121 23.8622 21.1728C24.0321 18.205 24.6862 15.9983 25.4524 16C26.2187 16.0017 26.8558 18.2254 27.0189 21.2085C29.9989 21.4123 32.2144 22.0782 32.2042 22.8461C32.194 23.6139 29.9802 24.2272 27.0087 24.3648C26.8303 27.3325 26.1847 29.5393 25.4201 29.5376C24.6556 29.5359 24.0151 27.3122 23.852 24.3291C20.872 24.1253 18.6582 23.4593 18.6667 22.6915Z" fill="var(--sapContent_Illustrative_Color18)"/>
</svg>
