<svg width="45" height="45" viewBox="0 0 45 45" fill="none" xmlns="http://www.w3.org/2000/svg" id="sapIllus-Dot-SignOut">
<g clip-path="url(#clip0_8_1598)">
<path d="M41.6571 22.6285C41.6571 33.2797 33.0226 41.9142 22.3714 41.9142C11.7202 41.9142 3.08569 33.2797 3.08569 22.6285C3.08569 11.9773 11.7202 3.34285 22.3714 3.34285C33.0226 3.34285 41.6571 11.9773 41.6571 22.6285Z" style="fill:var(--sapContent_Illustrative_Color12)"/>
<path fill-rule="evenodd" clip-rule="evenodd" d="M32.0868 15.4737C32.8429 16.2238 32.8478 17.4449 32.0976 18.2011L20.6181 29.7725C20.256 30.1375 19.7631 30.3428 19.2489 30.3428C18.7348 30.3428 18.2419 30.1375 17.8798 29.7725L13.288 25.1439C12.5378 24.3878 12.5427 23.1667 13.2989 22.4166C14.055 21.6664 15.2761 21.6713 16.0262 22.4274L19.2489 25.6759L29.3594 15.4846C30.1095 14.7284 31.3306 14.7236 32.0868 15.4737Z" style="fill:var(--sapContent_Illustrative_Color8)"/>
<path d="M22.4546 45C10.0718 45 0 34.9068 0 22.5006C0 10.0944 10.0718 0 22.4546 0C34.8374 0 44.9128 10.0932 44.9128 22.5006C44.9128 34.908 34.8374 45 22.4546 45ZM22.4546 1.20485C10.7352 1.20122 1.19896 10.7578 1.19896 22.5006C1.19896 34.2434 10.7352 43.7964 22.4546 43.7964C34.174 43.7964 43.7102 34.2422 43.7102 22.5006C43.7102 10.7591 34.1752 1.20122 22.4546 1.20122V1.20485Z" style="fill:var(--sapContent_Illustrative_Color12)"/>
</g>
<defs>
<clipPath id="clip0_8_1598">
<rect width="45" height="45" style="fill:var(--sapContent_Illustrative_Color8)"/>
</clipPath>
</defs>
</svg>
