<svg width="160" height="159" viewBox="0 0 160 159" fill="none" xmlns="http://www.w3.org/2000/svg" id="sapIllus-Dialog-SortColumn">
<mask id="mask0_1663_6101" class="sapIllus_MaskTypeAlpha" maskUnits="userSpaceOnUse" x="0" y="0" width="159" height="159">
<path d="M79.3943 158.789C123.243 158.789 158.789 123.243 158.789 79.3943C158.789 35.546 123.243 0 79.3943 0C35.546 0 0 35.546 0 79.3943C0 123.243 35.546 158.789 79.3943 158.789Z" fill="var(--sapContent_Illustrative_Color7)"/>
</mask>
<g mask="url(#mask0_1663_6101)">
<path d="M79.3943 158.789C123.243 158.789 158.789 123.243 158.789 79.3943C158.789 35.546 123.243 0 79.3943 0C35.546 0 0 35.546 0 79.3943C0 123.243 35.546 158.789 79.3943 158.789Z" fill="var(--sapContent_Illustrative_Color7)"/>
<path d="M125.378 40.6687H33.411C27.8383 40.6687 23.3208 45.1862 23.3208 50.7589V164.502C23.3208 170.075 27.8383 174.593 33.411 174.593H125.378C130.95 174.593 135.468 170.075 135.468 164.502V50.7589C135.468 45.1862 130.95 40.6687 125.378 40.6687Z" fill="var(--sapContent_Illustrative_Color8)"/>
<path fill-rule="evenodd" clip-rule="evenodd" d="M33.6595 51.508C33.6595 51.0493 33.7681 50.6782 33.8976 50.6782H110.267C110.4 50.6782 110.505 51.0493 110.505 51.508V163.75C110.505 164.208 110.4 164.576 110.267 164.576H33.8976C33.7681 164.576 33.6595 164.226 33.6595 163.75V51.508Z" fill="var(--sapContent_Illustrative_Color8)"/>
<path d="M110.505 61.4302H33.6595V70.7326H110.505V61.4302Z" fill="var(--sapContent_Illustrative_Color18)"/>
<path d="M65.3899 53.9868H40.1715C38.9727 53.9868 38.0009 54.9587 38.0009 56.1575C38.0009 57.3563 38.9727 58.3282 40.1715 58.3282H65.3899C66.5887 58.3282 67.5606 57.3563 67.5606 56.1575C67.5606 54.9587 66.5887 53.9868 65.3899 53.9868Z" fill="var(--sapContent_Illustrative_Color14)"/>
<path d="M60.1208 64.9453H39.2402C38.5557 64.9453 38.0009 65.5002 38.0009 66.1847C38.0009 66.8692 38.5557 67.4241 39.2402 67.4241H60.1208C60.8053 67.4241 61.3602 66.8692 61.3602 66.1847C61.3602 65.5002 60.8053 64.9453 60.1208 64.9453Z" fill="var(--sapContent_Illustrative_Color14)"/>
<path d="M56.1925 74.0376H39.2402C38.5557 74.0376 38.0009 74.5925 38.0009 75.277C38.0009 75.9615 38.5557 76.5164 39.2402 76.5164H56.1925C56.877 76.5164 57.4319 75.9615 57.4319 75.277C57.4319 74.5925 56.877 74.0376 56.1925 74.0376Z" fill="var(--sapContent_Illustrative_Color14)"/>
<path d="M58.8779 83.5466H39.2402C38.5557 83.5466 38.0009 84.1015 38.0009 84.786C38.0009 85.4705 38.5557 86.0254 39.2402 86.0254H58.8779C59.5624 86.0254 60.1173 85.4705 60.1173 84.786C60.1173 84.1015 59.5624 83.5466 58.8779 83.5466Z" fill="var(--sapContent_Illustrative_Color14)"/>
<path d="M48.1295 92.6423H39.2402C38.5557 92.6423 38.0009 93.1972 38.0009 93.8817C38.0009 94.5662 38.5557 95.1211 39.2402 95.1211H48.1295C48.814 95.1211 49.3689 94.5662 49.3689 93.8817C49.3689 93.1972 48.814 92.6423 48.1295 92.6423Z" fill="var(--sapContent_Illustrative_Color14)"/>
<path d="M48.1295 101.945H39.2402C38.5557 101.945 38.0009 102.5 38.0009 103.184C38.0009 103.869 38.5557 104.424 39.2402 104.424H48.1295C48.814 104.424 49.3689 103.869 49.3689 103.184C49.3689 102.5 48.814 101.945 48.1295 101.945Z" fill="var(--sapContent_Illustrative_Color14)"/>
<path d="M48.1295 120.55H39.2402C38.5557 120.55 38.0009 121.104 38.0009 121.789C38.0009 122.473 38.5557 123.028 39.2402 123.028H48.1295C48.814 123.028 49.3689 122.473 49.3689 121.789C49.3689 121.104 48.814 120.55 48.1295 120.55Z" fill="var(--sapContent_Illustrative_Color14)"/>
<path d="M48.1295 111.247H39.2402C38.5557 111.247 38.0009 111.802 38.0009 112.487C38.0009 113.171 38.5557 113.726 39.2402 113.726H48.1295C48.814 113.726 49.3689 113.171 49.3689 112.487C49.3689 111.802 48.814 111.247 48.1295 111.247Z" fill="var(--sapContent_Illustrative_Color14)"/>
<path d="M48.1295 129.852H39.2402C38.5557 129.852 38.0009 130.407 38.0009 131.091C38.0009 131.776 38.5557 132.331 39.2402 132.331H48.1295C48.814 132.331 49.3689 131.776 49.3689 131.091C49.3689 130.407 48.814 129.852 48.1295 129.852Z" fill="var(--sapContent_Illustrative_Color14)"/>
<path d="M103.548 64.7073H82.6679C81.9834 64.7073 81.4285 65.2622 81.4285 65.9467C81.4285 66.6312 81.9834 67.186 82.6679 67.186H103.548C104.233 67.186 104.788 66.6312 104.788 65.9467C104.788 65.2622 104.233 64.7073 103.548 64.7073Z" fill="var(--sapContent_Illustrative_Color14)"/>
<path d="M99.6202 73.803H82.6679C81.9834 73.803 81.4285 74.3579 81.4285 75.0424C81.4285 75.7269 81.9834 76.2818 82.6679 76.2818H99.6202C100.305 76.2818 100.86 75.7269 100.86 75.0424C100.86 74.3579 100.305 73.803 99.6202 73.803Z" fill="var(--sapContent_Illustrative_Color14)"/>
<path d="M102.305 83.312H82.6679C81.9834 83.312 81.4285 83.8669 81.4285 84.5514C81.4285 85.2359 81.9834 85.7908 82.6679 85.7908H102.305C102.99 85.7908 103.545 85.2359 103.545 84.5514C103.545 83.8669 102.99 83.312 102.305 83.312Z" fill="var(--sapContent_Illustrative_Color14)"/>
<path d="M91.5571 92.408H82.6679C81.9834 92.408 81.4285 92.9629 81.4285 93.6473C81.4285 94.3318 81.9834 94.8867 82.6679 94.8867H91.5571C92.2416 94.8867 92.7965 94.3318 92.7965 93.6473C92.7965 92.9629 92.2416 92.408 91.5571 92.408Z" fill="var(--sapContent_Illustrative_Color14)"/>
<path d="M91.5571 101.71H82.6679C81.9834 101.71 81.4285 102.265 81.4285 102.95C81.4285 103.634 81.9834 104.189 82.6679 104.189H91.5571C92.2416 104.189 92.7965 103.634 92.7965 102.95C92.7965 102.265 92.2416 101.71 91.5571 101.71Z" fill="var(--sapContent_Illustrative_Color14)"/>
<path d="M91.5571 120.315H82.6679C81.9834 120.315 81.4285 120.87 81.4285 121.554C81.4285 122.239 81.9834 122.794 82.6679 122.794H91.5571C92.2416 122.794 92.7965 122.239 92.7965 121.554C92.7965 120.87 92.2416 120.315 91.5571 120.315Z" fill="var(--sapContent_Illustrative_Color14)"/>
<path d="M91.5571 111.013H82.6679C81.9834 111.013 81.4285 111.568 81.4285 112.252C81.4285 112.937 81.9834 113.491 82.6679 113.491H91.5571C92.2416 113.491 92.7965 112.937 92.7965 112.252C92.7965 111.568 92.2416 111.013 91.5571 111.013Z" fill="var(--sapContent_Illustrative_Color14)"/>
<path d="M91.5571 129.614H82.6679C81.9834 129.614 81.4285 130.169 81.4285 130.853C81.4285 131.538 81.9834 132.093 82.6679 132.093H91.5571C92.2416 132.093 92.7965 131.538 92.7965 130.853C92.7965 130.169 92.2416 129.614 91.5571 129.614Z" fill="var(--sapContent_Illustrative_Color14)"/>
</g>
<path d="M115.536 62.1968H147.596C147.617 62.1968 147.637 62.2053 147.653 62.2204C147.668 62.2355 147.676 62.2559 147.676 62.2773V143.195C147.676 143.216 147.668 143.236 147.653 143.252C147.637 143.267 147.617 143.275 147.596 143.275H115.617C115.595 143.275 115.575 143.267 115.56 143.252C115.545 143.236 115.536 143.216 115.536 143.195V62.1968Z" fill="var(--sapContent_Illustrative_Color6)"/>
<path d="M149.962 59.8687H117.822V140.95H149.962V59.8687Z" fill="var(--sapContent_Illustrative_Color8)"/>
<path d="M133.941 110.071C139.193 110.071 143.45 105.813 143.45 100.562C143.45 95.31 139.193 91.0527 133.941 91.0527C128.69 91.0527 124.432 95.31 124.432 100.562C124.432 105.813 128.69 110.071 133.941 110.071Z" fill="var(--sapContent_Illustrative_Color3)"/>
<path d="M130.589 104.537V94.939" stroke="white" stroke-width="1.59962" stroke-linecap="round" stroke-linejoin="round"/>
<path d="M132.989 103.737L130.589 106.136L128.19 103.737" stroke="white" stroke-width="1.59962" stroke-linecap="round" stroke-linejoin="round"/>
<path d="M136.988 106.136V96.5386" stroke="white" stroke-width="1.59962" stroke-linecap="round" stroke-linejoin="round"/>
<path d="M139.387 97.3384L136.988 94.939L134.588 97.3384" stroke="white" stroke-width="1.59962" stroke-linecap="round" stroke-linejoin="round"/>
<path d="M117.822 59.8687H149.892C149.911 59.8687 149.929 59.876 149.942 59.8892C149.955 59.9023 149.962 59.9201 149.962 59.9387V69.5842H117.822V59.8687Z" fill="var(--sapContent_Illustrative_Color18)"/>
<path d="M142.207 63.3696H121.327C120.642 63.3696 120.088 63.9245 120.088 64.609C120.088 65.2935 120.642 65.8484 121.327 65.8484H142.207C142.892 65.8484 143.447 65.2935 143.447 64.609C143.447 63.9245 142.892 63.3696 142.207 63.3696Z" fill="var(--sapContent_Illustrative_Color14)"/>
<path d="M149.497 43.8488C149.497 42.9572 146.908 42.2434 143.45 42.0813C143.253 38.6275 142.491 36.0593 141.6 36.0613C140.708 36.0633 139.966 38.6512 139.776 42.1228C136.308 42.3601 133.73 43.1351 133.742 44.0287C133.754 44.9223 136.33 45.636 139.788 45.7962C139.996 49.25 140.747 51.8182 141.637 51.8162C142.527 51.8142 143.272 49.2263 143.462 45.7546C146.93 45.5174 149.507 44.7424 149.497 43.8488Z" fill="var(--sapContent_Illustrative_Color3)"/>
<path d="M160 54.7342C160 54.1596 158.332 53.6996 156.103 53.5952C155.976 51.3693 155.485 49.7143 154.911 49.7156C154.336 49.7169 153.858 51.3846 153.736 53.6219C151.501 53.7748 149.839 54.2742 149.847 54.8501C149.854 55.426 151.515 55.886 153.743 55.9892C153.877 58.215 154.361 59.87 154.935 59.8687C155.508 59.8675 155.989 58.1997 156.111 55.9624C158.346 55.8095 160.006 55.3101 160 54.7342Z" fill="var(--sapContent_Illustrative_Color3)"/>
</svg>
