<svg width="128" height="128" viewBox="0 0 128 128" fill="none" xmlns="http://www.w3.org/2000/svg" id="sapIllus-Spot-PageNotFound">
<mask id="mask0_2331_5786" style="mask-type:alpha" maskUnits="userSpaceOnUse" x="0" y="0" width="128" height="128">
<circle cx="64" cy="64" r="64" style="fill:var(--sapContent_Illustrative_Color7)"/>
</mask>
<g mask="url(#mask0_2331_5786)">
<path d="M181.779 -19.6602H-50.1536C-51.6654 -19.6616 -53.1626 -19.3546 -54.5597 -18.7569C-55.9569 -18.1591 -57.2264 -17.2822 -58.2959 -16.1763C-59.3654 -15.0704 -60.2138 -13.7572 -60.7927 -12.3117C-61.3716 -10.8663 -61.6695 -9.3169 -61.6695 -7.7522V133.351C-61.6695 136.512 -60.4562 139.544 -58.2966 141.779C-56.1369 144.014 -53.2078 145.27 -50.1536 145.27H181.779C184.833 145.27 187.762 144.014 189.922 141.779C192.081 139.544 193.295 136.512 193.295 133.351V-7.7522C193.295 -9.3169 192.997 -10.8663 192.418 -12.3117C191.839 -13.7572 190.991 -15.0704 189.921 -16.1763C188.852 -17.2822 187.582 -18.1591 186.185 -18.7569C184.788 -19.3546 183.291 -19.6616 181.779 -19.6602Z" style="fill:var(--sapContent_Illustrative_Color7)"/>
<path d="M-47.4727 65.7559H61.2232C61.8166 65.7467 62.394 65.9491 62.8518 66.3268C63.3097 66.7045 63.6181 67.2328 63.7219 67.8171L76.9403 136.125C77.024 136.495 77.0221 136.88 76.9346 137.25C76.8471 137.62 76.6764 137.965 76.4355 138.259C76.1945 138.553 75.8897 138.788 75.5441 138.946C75.1986 139.105 74.8215 139.182 74.4416 139.173H-33.0049C-33.59 139.171 -34.1569 138.97 -34.6115 138.602C-35.0661 138.234 -35.381 137.721 -35.5037 137.149L-49.9715 68.8416C-50.0619 68.4683 -50.065 68.0791 -49.9806 67.7044C-49.8962 67.3298 -49.7266 66.9797 -49.4849 66.6812C-49.2432 66.3827 -48.9359 66.1439 -48.587 65.9834C-48.238 65.8229 -47.8567 65.7451 -47.4727 65.7559ZM-36.7281 83.9947L-28.4322 129.416C-28.3337 130.005 -28.0276 130.539 -27.5692 130.922C-27.1108 131.305 -26.5305 131.511 -25.9334 131.503H48.9043C49.2816 131.511 49.656 131.434 49.9993 131.277C50.3425 131.12 50.6458 130.887 50.8862 130.596C51.1267 130.305 51.2981 129.964 51.3876 129.597C51.4771 129.231 51.4824 128.848 51.403 128.479L48.4045 112.727H60.1237C60.5006 112.723 60.872 112.636 61.2116 112.472C61.5512 112.309 61.8507 112.073 62.0891 111.781C62.3274 111.489 62.4987 111.148 62.5909 110.783C62.6831 110.417 62.6938 110.036 62.6225 109.666L56.2006 75.5747C56.0887 74.9911 55.7792 74.4639 55.3241 74.0817C54.869 73.6995 54.2961 73.4856 53.7019 73.4761H21.7178C21.3422 73.4806 20.9721 73.5672 20.6336 73.7299C20.295 73.8926 19.9962 74.1275 19.7581 74.4179C19.52 74.7084 19.3483 75.0476 19.2552 75.4114C19.1621 75.7753 19.1498 76.155 19.2191 76.5242L20.0936 81.1714L-34.1668 80.984C-34.5481 80.9663 -34.9283 81.036 -35.2783 81.188C-35.6284 81.34 -35.939 81.5703 -36.1862 81.861C-36.4335 82.1516 -36.6109 82.495 -36.7049 82.8648C-36.7988 83.2347 -36.8067 83.6212 -36.7281 83.9947Z" style="fill:var(--sapContent_Illustrative_Color18)"/>
<path d="M40.2835 81.2467L20.0312 81.1718L19.1566 76.5246C19.0873 76.1555 19.0996 75.7757 19.1927 75.4119C19.2858 75.048 19.4575 74.7088 19.6956 74.4184C19.9337 74.1279 20.2326 73.893 20.5711 73.7303C20.9097 73.5676 21.2797 73.4811 21.6553 73.4766H53.6394C54.2337 73.486 54.8065 73.6999 55.2616 74.0821C55.7167 74.4643 56.0262 74.9915 56.1381 75.5752L62.5599 109.666C62.6313 110.037 62.6206 110.418 62.5284 110.783C62.4362 111.149 62.2649 111.489 62.0265 111.781C61.7882 112.073 61.4886 112.309 61.149 112.473C60.8094 112.636 60.438 112.723 60.0612 112.727H48.342L42.7323 83.3204C42.6326 82.7423 42.3326 82.2177 41.8848 81.8385C41.4371 81.4594 40.8703 81.2499 40.2835 81.2467Z" style="fill:var(--sapContent_Illustrative_Color19)"/>
<path d="M21.9551 99.2473C21.8522 99.1515 21.7702 99.0354 21.7141 98.9065C21.6579 98.7775 21.629 98.6384 21.629 98.4978C21.629 98.3572 21.6579 98.2179 21.7141 98.089C21.7702 97.96 21.8522 97.844 21.9551 97.7481C22.052 97.6468 22.1683 97.5664 22.2972 97.5113C22.426 97.4562 22.5647 97.4277 22.7048 97.4277C22.8449 97.4277 22.9836 97.4562 23.1124 97.5113C23.2413 97.5664 23.3576 97.6468 23.4544 97.7481L25.9532 100.247L28.452 97.7481C28.6544 97.5682 28.918 97.4725 29.1887 97.4805C29.4594 97.4885 29.7168 97.5996 29.9083 97.7911C30.0999 97.9826 30.211 98.2399 30.2189 98.5106C30.2269 98.7813 30.1312 99.0449 29.9512 99.2473L27.4525 101.746L29.9512 104.244C30.0594 104.34 30.1468 104.458 30.208 104.589C30.2693 104.72 30.303 104.862 30.3073 105.007C30.3115 105.151 30.2862 105.295 30.2328 105.43C30.1794 105.564 30.099 105.686 29.9967 105.789C29.8944 105.891 29.7722 105.971 29.6377 106.025C29.5032 106.078 29.3592 106.104 29.2145 106.099C29.0699 106.095 28.9276 106.061 28.7965 106C28.6653 105.939 28.5481 105.852 28.452 105.743L25.9532 103.245L23.4544 105.743C23.3576 105.845 23.2413 105.925 23.1124 105.98C22.9836 106.035 22.8449 106.064 22.7048 106.064C22.5647 106.064 22.426 106.035 22.2972 105.98C22.1683 105.925 22.052 105.845 21.9551 105.743C21.8522 105.648 21.7702 105.531 21.7141 105.403C21.6579 105.274 21.629 105.134 21.629 104.994C21.629 104.853 21.6579 104.714 21.7141 104.585C21.7702 104.456 21.8522 104.34 21.9551 104.244L24.4539 101.746L21.9551 99.2473Z" style="fill:var(--sapContent_Illustrative_Color8)"/>
<path d="M-34.2043 80.9849L20.0561 81.1724L40.3085 81.2472C40.9038 81.2386 41.4827 81.4427 41.9408 81.8229C42.3989 82.2031 42.7062 82.7344 42.8073 83.321L48.417 112.728L51.4155 128.48C51.4949 128.849 51.4896 129.232 51.4001 129.598C51.3106 129.965 51.1392 130.306 50.8987 130.597C50.6583 130.888 50.355 131.121 50.0118 131.278C49.6685 131.435 49.2941 131.512 48.9168 131.503H-25.846C-26.4431 131.512 -27.0234 131.306 -27.4817 130.923C-27.9401 130.54 -28.2463 130.006 -28.3447 129.417L-36.7031 83.9956C-36.7803 83.6275 -36.7734 83.2467 -36.6829 82.8816C-36.5924 82.5166 -36.4206 82.1767 -36.1804 81.8872C-35.9402 81.5978 -35.6377 81.3664 -35.2955 81.2102C-34.9534 81.0539 -34.5804 80.9769 -34.2043 80.9849Z" style="fill:var(--sapContent_Illustrative_Color7)"/>
<path d="M155.495 20.9858L104.073 3.37111C101.889 2.62943 99.5197 3.78315 98.778 5.96696L73.1491 80.7729C72.4074 82.9568 73.5612 85.326 75.745 86.0677L127.168 103.682C129.351 104.424 131.721 103.27 132.462 101.087L158.091 26.2806C158.833 24.0967 157.679 21.7275 155.495 20.9858Z" style="fill:var(--sapContent_Illustrative_Color18)"/>
<path d="M124.654 22.2632C122.965 21.5834 121.09 21.4185 119.318 21.81C117.526 22.1808 115.898 23.0873 114.621 24.4058C113.344 25.7244 112.478 27.3725 112.149 29.1649C111.819 30.9573 112.025 32.8115 112.746 34.5008C113.467 36.1902 114.662 37.6117 116.207 38.6006C117.732 39.5895 119.524 40.1252 121.358 40.084C123.191 40.0634 124.963 39.4865 126.467 38.4564C127.971 37.4263 129.145 35.9636 129.825 34.2742L121.234 30.8543L124.675 22.2632H124.654Z" style="fill:var(--sapContent_Illustrative_Color7)"/>
<path d="M127.394 21.0059L123.974 29.5763L132.545 32.9962C132.998 31.8631 133.225 30.6682 133.204 29.4527C133.204 28.2372 132.936 27.0423 132.462 25.9297C131.989 24.8172 131.288 23.8077 130.423 22.9631C129.558 22.1184 128.527 21.4591 127.394 21.0059Z" style="fill:var(--sapContent_Illustrative_Color19)"/>
<path d="M134.523 51.6823L98.6956 39.4035C97.5007 38.9915 96.2233 39.6301 95.8113 40.8251C95.3993 42.02 96.0379 43.2973 97.2328 43.7093L133.06 55.9882C134.255 56.4002 135.532 55.7615 135.944 54.5666C136.356 53.3717 135.717 52.0944 134.523 51.6823Z" style="fill:var(--sapContent_Illustrative_Color7)"/>
<path d="M131.432 58.9753L95.6052 46.6965C94.4103 46.2844 93.133 46.9231 92.721 48.118C92.3089 49.3129 92.9476 50.5903 94.1425 51.0023L129.969 63.2811C131.164 63.6932 132.462 63.0545 132.854 61.8596C133.266 60.6647 132.627 59.3873 131.432 58.9753Z" style="fill:var(--sapContent_Illustrative_Color7)"/>
<path d="M111.737 60.3758L92.6593 53.8449C91.4644 53.4329 90.1665 54.0715 89.775 55.2665C89.363 56.4614 90.0017 57.7387 91.1966 58.1508L110.295 64.6816C111.49 65.0936 112.767 64.455 113.179 63.2601C113.591 62.0651 112.952 60.7878 111.757 60.3758H111.737Z" style="fill:var(--sapContent_Illustrative_Color7)"/>
<path d="M97.5252 21.4743L29.5501 32.193C26.2755 32.7093 24.0395 35.7825 24.5559 39.0571L39.6713 134.915C40.1877 138.19 43.2609 140.426 46.5354 139.91L114.511 129.191C117.785 128.675 120.021 125.601 119.505 122.327L104.389 26.4685C103.873 23.1939 100.8 20.9579 97.5252 21.4743Z" style="fill:var(--sapContent_Illustrative_Color8)"/>
<path fill-rule="evenodd" clip-rule="evenodd" d="M29.5501 32.193C28.9104 32.2939 28.3104 32.4923 27.7628 32.7707C27.4097 32.9502 27.0785 33.1629 26.7725 33.4042C26.4599 33.6507 26.1736 33.9269 25.9172 34.2279C26.5968 35.0905 27.812 35.3832 28.8283 34.8664C29.1588 34.6984 29.5231 34.5773 29.9163 34.5153L34.448 33.8007C35.7305 33.5985 36.6063 32.3948 36.4041 31.1122L29.5501 32.193ZM45.3545 29.7009C45.5567 30.9834 46.7604 31.8592 48.043 31.657L57.1064 30.2278C58.3889 30.0256 59.2647 28.8219 59.0625 27.5393L45.3545 29.7009ZM68.0129 26.128C68.2151 27.4105 69.4188 28.2863 70.7014 28.0841L79.7647 26.6549C81.0473 26.4527 81.9231 25.249 81.7209 23.9664L68.0129 26.128ZM90.6712 22.5551C90.8735 23.8376 92.0772 24.7134 93.3598 24.5112L97.8914 23.7966C98.2846 23.7346 98.6685 23.7377 99.0347 23.7959C100.161 23.9748 101.227 23.3225 101.608 22.2925C101.271 22.085 100.914 21.9103 100.541 21.772C100.175 21.6366 99.7948 21.5361 99.4036 21.474C98.7969 21.3776 98.1649 21.3734 97.5252 21.4743L90.6712 22.5551ZM102.354 22.8356C101.492 23.5152 101.199 24.7304 101.716 25.7467C101.884 26.0772 102.005 26.4416 102.067 26.8347L102.823 31.6276C103.025 32.9102 104.229 33.786 105.511 33.5838L104.389 26.4685C104.289 25.8288 104.09 25.2288 103.812 24.6812C103.632 24.3282 103.419 23.9969 103.178 23.6909C102.932 23.3783 102.655 23.092 102.354 22.8356ZM107.046 43.3179C105.764 43.5201 104.888 44.7238 105.09 46.0064L106.602 55.5922C106.804 56.8748 108.008 57.7506 109.29 57.5483L107.046 43.3179ZM110.825 67.2824C109.543 67.4847 108.667 68.6884 108.869 69.971L110.381 79.5568C110.583 80.8394 111.786 81.7152 113.069 81.5129L110.825 67.2824ZM114.604 91.247C113.321 91.4493 112.446 92.6529 112.648 93.9355L114.159 103.521C114.362 104.804 115.565 105.68 116.848 105.478L114.604 91.247ZM118.383 115.212C117.1 115.414 116.224 116.618 116.427 117.9L117.183 122.693C117.245 123.086 117.241 123.47 117.183 123.836C117.004 124.962 117.657 126.028 118.687 126.41C118.894 126.073 119.069 125.716 119.207 125.342C119.343 124.977 119.443 124.596 119.505 124.205C119.602 123.598 119.606 122.966 119.505 122.327L118.383 115.212ZM118.144 127.156C117.464 126.293 116.249 126.001 115.232 126.518C114.902 126.686 114.538 126.807 114.144 126.869L109.613 127.583C108.33 127.785 107.454 128.989 107.657 130.272L114.511 129.191C115.15 129.09 115.75 128.892 116.298 128.613C116.651 128.434 116.982 128.221 117.288 127.98C117.601 127.733 117.887 127.457 118.144 127.156ZM98.7062 131.683C98.504 130.4 97.3003 129.525 96.0177 129.727L86.9543 131.156C85.6718 131.358 84.796 132.562 84.9982 133.845L98.7062 131.683ZM76.0478 135.256C75.8456 133.973 74.6419 133.098 73.3593 133.3L64.296 134.729C63.0134 134.931 62.1376 136.135 62.3398 137.418L76.0478 135.256ZM53.3895 138.829C53.1872 137.546 51.9835 136.671 50.7009 136.873L46.1692 137.587C45.7761 137.649 45.3922 137.646 45.026 137.588C43.9 137.409 42.8338 138.061 42.4527 139.091C42.7892 139.299 43.1466 139.474 43.5199 139.612C43.8853 139.747 44.2659 139.848 44.6571 139.91C45.2638 140.006 45.8958 140.011 46.5354 139.91L53.3895 138.829ZM41.7062 138.548C42.5689 137.869 42.8615 136.654 42.3448 135.637C42.1767 135.307 42.0556 134.942 41.9937 134.549L41.2379 129.756C41.0356 128.474 39.8319 127.598 38.5494 127.8L39.6713 134.915C39.7722 135.555 39.9706 136.155 40.2491 136.703C40.4286 137.056 40.6413 137.387 40.8826 137.693C41.129 138.006 41.4052 138.292 41.7062 138.548ZM37.0144 118.066C38.297 117.864 39.1728 116.66 38.9706 115.378L37.459 105.792C37.2568 104.509 36.0531 103.633 34.7705 103.836L37.0144 118.066ZM33.2356 94.1015C34.5181 93.8993 35.3939 92.6956 35.1917 91.413L33.6801 81.8271C33.4779 80.5446 32.2742 79.6688 30.9916 79.871L33.2356 94.1015ZM29.4567 70.1369C30.7393 69.9347 31.6151 68.731 31.4128 67.4484L29.9013 57.8626C29.699 56.58 28.4953 55.7042 27.2128 55.9064L29.4567 70.1369ZM25.6778 46.1723C26.9604 45.9701 27.8362 44.7664 27.634 43.4838L26.8782 38.6909C26.8162 38.2978 26.8193 37.9139 26.8775 37.5477C27.0564 36.4217 26.404 35.3555 25.3741 34.9743C25.1666 35.3109 24.9919 35.6683 24.8536 36.0415C24.7182 36.407 24.6177 36.7876 24.5556 37.1787C24.4591 37.7855 24.455 38.4174 24.5559 39.0571L25.6778 46.1723Z" style="fill:var(--sapContent_Illustrative_Color3)"/>
<path d="M88.2761 73.2765C89.7804 82.8178 83.2652 91.7721 73.7239 93.2765C64.1826 94.7809 55.2283 88.2657 53.7239 78.7243C52.2195 69.183 58.7348 60.2287 68.2761 58.7243C77.8174 57.22 86.7717 63.7352 88.2761 73.2765Z" style="fill:var(--sapContent_Illustrative_Color8)"/>
<path d="M68.2761 58.7243C64.8592 59.2631 61.6788 60.8029 59.1371 63.1492C56.5953 65.4955 54.8065 68.5431 53.9966 71.906C53.1868 75.269 53.3923 78.7963 54.5873 82.0424C55.7823 85.2886 57.913 88.1074 60.71 90.1425C63.5071 92.1777 66.8448 93.3378 70.3011 93.476C73.7575 93.6142 77.1772 92.7243 80.1278 90.919C83.0784 89.1137 85.4274 86.4739 86.8778 83.3336C88.3282 80.1932 88.8148 76.6934 88.2761 73.2765C87.5536 68.6946 85.0407 64.5874 81.2899 61.8583C77.5392 59.1293 72.858 58.0019 68.2761 58.7243ZM72.6343 86.3661C72.1218 86.4469 71.5968 86.3741 71.1258 86.1565C70.6547 85.939 70.2587 85.5863 69.9879 85.1437C69.7171 84.7012 69.5837 84.1886 69.6045 83.6701C69.6252 83.1516 69.7992 82.6509 70.1045 82.2314C70.4098 81.8118 70.8325 81.492 71.3194 81.3127C71.8064 81.1335 72.3355 81.1028 72.84 81.2243C73.3444 81.3458 73.8015 81.6141 74.1535 81.9954C74.5054 82.3767 74.7363 82.8535 74.8171 83.3661C74.9255 84.0534 74.7565 84.7558 74.3471 85.3184C73.9377 85.881 73.3216 86.2577 72.6343 86.3661ZM73.9748 77.1251C73.7548 77.2753 73.544 77.4385 73.3437 77.6141C73.2511 78.1233 72.9809 78.5832 72.5811 78.9118C72.1813 79.2405 71.678 79.4167 71.1605 79.409C70.643 79.4014 70.1449 79.2102 69.755 78.8698C69.3652 78.5295 69.1086 78.0619 69.0311 77.5502C68.7206 75.5807 70.312 74.4445 71.3715 73.64C72.862 72.5375 73.4594 71.9475 73.266 70.7209C73.0726 69.4943 71.5435 68.7793 69.9022 69.0381C68.261 69.2969 67.0369 70.5168 67.2194 71.6743C67.3097 72.247 67.1688 72.8325 66.8277 73.3013C66.4866 73.7701 65.9731 74.084 65.4004 74.1743C64.8276 74.2646 64.2425 74.1239 63.7737 73.7828C63.3049 73.4417 62.9907 72.928 62.9004 72.3553C62.8309 70.5245 63.4354 68.732 64.5991 67.317C65.7628 65.902 67.405 64.9631 69.2147 64.6778C71.0245 64.3924 72.876 64.7804 74.4186 65.7687C75.9612 66.7571 77.0878 68.2767 77.5851 70.04C77.7494 71.4454 77.4944 72.8682 76.852 74.1289C76.2095 75.3896 75.2085 76.4322 73.9748 77.1251Z" style="fill:var(--sapContent_Illustrative_Color14)"/>
<path d="M17.0432 -8.40491C17.2922 -8.48968 17.5562 -8.5216 17.8182 -8.49863C18.0802 -8.47567 18.3346 -8.39832 18.5651 -8.27153C18.7956 -8.14474 18.997 -7.9713 19.1567 -7.76226C19.3164 -7.55323 19.4307 -7.31321 19.4924 -7.05752L21.8668 1.1233C21.9512 1.41773 21.9761 1.72602 21.94 2.03017C21.9039 2.33432 21.8076 2.62822 21.6566 2.89474C21.5057 3.16125 21.3032 3.39503 21.0609 3.58241C20.8186 3.7698 20.5414 3.90704 20.2455 3.98612C20.1244 4.02213 20.0005 4.04815 19.8751 4.06392C19.4128 4.12883 18.9429 4.01818 18.5581 3.75379C18.1733 3.48941 17.9015 3.09047 17.7963 2.63562L15.425 -5.54209C15.3401 -5.83631 15.3147 -6.14451 15.3504 -6.44864C15.3861 -6.75277 15.4821 -7.04672 15.6328 -7.31331C15.7835 -7.57989 15.9859 -7.81374 16.228 -8.00117C16.4702 -8.18861 16.7473 -8.32587 17.0432 -8.40491Z" style="fill:var(--sapContent_Illustrative_Color5)"/>
<path d="M-4.13099 2.67241C-3.84422 2.65379 -3.55666 2.69386 -3.28591 2.79017C-3.01516 2.88648 -2.7669 3.03699 -2.55631 3.23252L6.97892 11.9081C7.40439 12.2996 7.66203 12.8404 7.69799 13.4174C7.73395 13.9944 7.54544 14.563 7.17187 15.0043C6.8237 15.4122 6.33497 15.6743 5.80258 15.7387C5.49566 15.7753 5.18444 15.7454 4.89014 15.6508C4.59585 15.5563 4.32538 15.3995 4.09719 15.191L-5.43804 6.51543C-5.86617 6.12209 -6.12516 5.57812 -6.16056 4.99783C-6.19596 4.41755 -6.00502 3.84613 -5.62787 3.40367C-5.44048 3.18727 -5.21129 3.01094 -4.95407 2.88528C-4.69685 2.75962 -4.41689 2.68722 -4.13099 2.67241Z" style="fill:var(--sapContent_Illustrative_Color5)"/>
</g>
</svg>
