<svg width="128" height="128" viewBox="0 0 128 128" fill="none" xmlns="http://www.w3.org/2000/svg" id="sapIllus-Spot-NoTasks">
<rect y="41" width="128" height="55" rx="8" fill="var(--sapContent_Illustrative_Color20)"/>
<path d="M38.0779 60.6333C34.0488 57.6474 30.0198 54.6615 25.9907 51.6788C25.8082 51.5451 25.6321 51.8483 25.8114 51.9819C29.8405 54.9679 33.8695 57.9538 37.8986 60.9365C38.0811 61.0701 38.2572 60.767 38.0779 60.6333Z" fill="var(--sapContent_Illustrative_Color30)"/>
<path d="M29.0005 40.9203C27.6455 40.6066 26.2838 40.2996 24.9288 39.9858C24.5083 39.8924 24.3281 40.5332 24.7486 40.6333L28.8203 41.5678C29.2408 41.6612 29.421 41.0205 29.0005 40.9203Z" fill="var(--sapContent_Illustrative_Color30)"/>
<path d="M37.5044 59.984C36.0225 56.7333 34.5407 53.4827 33.0589 50.232C30.6959 45.0456 28.333 39.8659 25.9701 34.6795C25.4228 33.4847 24.8821 32.2899 24.3348 31.0884C24.2613 30.9282 23.981 31.0016 24.001 31.1818C24.5751 37.236 25.1491 43.2968 25.7165 49.3509C25.7966 50.212 25.8767 51.0797 25.9634 51.9408C25.9835 52.1677 26.3439 52.1744 26.3239 51.9408C25.7499 45.8866 25.1758 39.8258 24.6084 33.7717C24.5283 32.9106 24.4482 32.0429 24.3615 31.1818L24.0277 31.2753C25.5096 34.526 26.9914 37.7766 28.4732 41.0273C30.8361 46.2137 33.199 51.3934 35.5619 56.5798C36.1093 57.7746 36.65 58.9694 37.1973 60.1709C37.2908 60.3845 37.6045 60.1976 37.511 59.9907L37.5044 59.984Z" fill="var(--sapContent_Illustrative_Color30)"/>
<path d="M32.9454 49.2376C30.4556 48.1963 27.9726 47.155 25.4828 46.1138C25.1157 45.9602 24.9488 46.561 25.316 46.7145C27.8057 47.7558 30.2888 48.7971 32.7785 49.8383C33.1456 49.9919 33.3125 49.3911 32.9454 49.2376Z" fill="var(--sapContent_Illustrative_Color30)"/>
<path d="M29.1266 41.2152C27.7608 40.9022 26.3982 40.5893 25.0324 40.2731C24.827 40.2274 24.739 40.5404 24.9443 40.5893C26.3102 40.9022 27.6728 41.2152 29.0386 41.5313C29.2439 41.577 29.332 41.2641 29.1266 41.2152Z" fill="var(--sapContent_Illustrative_Color30)"/>
<path d="M33.0905 49.5634L25.5898 46.4243C25.4105 46.3493 25.3291 46.6427 25.5083 46.7176C28.0086 47.764 30.5088 48.8104 33.009 49.8568C33.1883 49.9318 33.2698 49.6384 33.0905 49.5634Z" fill="var(--sapContent_Illustrative_Color30)"/>
<path d="M82.7443 92.6552C94.616 90.7918 103.958 87.4834 103.61 85.2656C103.262 83.0478 92.8317 79.8966 80.96 81.7599C69.0882 83.6232 60.2703 89.7954 60.6184 92.0132C60.9665 94.2311 70.8726 94.5185 82.7443 92.6552Z" fill="var(--sapContent_Illustrative_Color21)"/>
<path d="M89.5021 53.531C92.9463 57.1421 96.3906 60.7466 99.8348 64.3577C100.155 64.6914 100.663 64.1841 100.342 63.8504C96.8979 60.2393 93.4536 56.6348 90.0094 53.0237C89.689 52.69 89.1817 53.1973 89.5021 53.531Z" fill="var(--sapContent_Illustrative_Color30)"/>
<path d="M89.906 53.6041C92.6894 47.6635 95.4728 41.7228 98.2563 35.7888C98.6501 34.9478 99.0439 34.1068 99.4377 33.2591L99.104 33.1656C99.1173 36.5765 99.1307 39.9807 99.144 43.3915L99.2108 59.685C99.2108 60.9332 99.2174 62.1814 99.2241 63.4296C99.2241 63.6632 99.5846 63.6632 99.5846 63.4296C99.5712 60.0187 99.5579 56.6145 99.5445 53.2036C99.5245 47.7703 99.5045 42.3369 99.4778 36.9102C99.4778 35.662 99.4711 34.4138 99.4644 33.1656C99.4644 32.9987 99.2041 32.9053 99.1307 33.0722C96.3472 39.0128 93.5638 44.9535 90.7804 50.8875C90.3865 51.7285 89.9928 52.5695 89.5989 53.4172C89.4988 53.6242 89.8125 53.8111 89.9126 53.5975L89.906 53.6041Z" fill="var(--sapContent_Illustrative_Color30)"/>
<path d="M100.55 41.0117C99.0946 40.3242 97.6462 39.6434 96.1911 38.9559C96.0175 38.8758 95.8039 38.9091 95.6971 39.0827C95.6037 39.2362 95.6504 39.4898 95.824 39.5766C97.2791 40.2641 98.7275 40.945 100.183 41.6325C100.356 41.7126 100.57 41.6792 100.677 41.5057C100.77 41.3521 100.723 41.0985 100.55 41.0117Z" fill="var(--sapContent_Illustrative_Color30)"/>
<path d="M100.53 50.5568C97.9933 48.6812 95.4568 46.8055 92.9204 44.9366C92.5466 44.6629 92.1861 45.2837 92.5533 45.5573C95.0897 47.433 97.6262 49.3086 100.163 51.1776C100.536 51.4513 100.897 50.8305 100.53 50.5568Z" fill="var(--sapContent_Illustrative_Color30)"/>
<path d="M99.8111 64.392L76.8787 74.181L69.3422 74.9177L59.9052 74.4092C59.9052 74.4092 85.9408 64.0301 89.6439 53.7261L99.8111 64.392Z" fill="var(--sapContent_Illustrative_Color15)"/>
<path d="M29.6841 54.3747L29.2147 54.9875C29.7428 55.3885 30.2904 55.8024 30.8413 56.223L31.3107 55.6101C30.7598 55.1929 30.2089 54.7756 29.6841 54.3747ZM26.7536 52.1548L26.2842 52.7676C26.7471 53.1197 27.3012 53.5402 27.9108 54.0031L28.3802 53.3902C27.7706 52.9273 27.2165 52.5068 26.7536 52.1548ZM37.1717 60.0532C36.7317 59.7207 36.1743 59.2969 35.5451 58.8177L35.0757 59.4305C35.7081 59.9097 36.2655 60.3302 36.7023 60.666L37.1717 60.0532ZM32.6114 56.5978L32.1419 57.2107C32.6994 57.6344 33.247 58.0484 33.7686 58.4461L34.238 57.8333C33.7164 57.4356 33.1688 57.0216 32.6114 56.5978Z" fill="var(--sapContent_Illustrative_Color16)"/>
<path d="M98.9928 61.6572L97.9791 62.5471L99.384 64.0336L100.398 63.1437L98.9928 61.6572Z" fill="var(--sapContent_Illustrative_Color16)"/>
<path d="M98.7321 61.3833L97.7704 62.3254L99.1754 63.8118L100.137 62.8697L98.7321 61.3833Z" fill="var(--sapContent_Illustrative_Color15)"/>
<path d="M96.4894 58.9905L95.4756 59.8804L96.8805 61.3668L97.8943 60.4769L96.4894 58.9905Z" fill="var(--sapContent_Illustrative_Color16)"/>
<path d="M96.2286 58.7134L95.267 59.6554L96.6719 61.1419L97.6335 60.1998L96.2286 58.7134Z" fill="var(--sapContent_Illustrative_Color15)"/>
<path d="M93.9076 56.2849L92.8939 57.1748L94.2988 58.6613L95.3126 57.7714L93.9076 56.2849Z" fill="var(--sapContent_Illustrative_Color16)"/>
<path d="M93.6436 56.0078L92.682 56.9531L94.0902 58.4396L95.0518 57.4943L93.6436 56.0078Z" fill="var(--sapContent_Illustrative_Color15)"/>
<path d="M91.4238 53.6511L90.41 54.541L91.8149 56.0275L92.8287 55.1376L91.4238 53.6511Z" fill="var(--sapContent_Illustrative_Color16)"/>
<path d="M91.1629 53.374L90.1981 54.3161L91.6063 55.8025L92.5679 54.8605L91.1629 53.374Z" fill="var(--sapContent_Illustrative_Color15)"/>
<path d="M81.4391 62.8467L87.9293 71.6773L80.4905 74.9175L77.2568 65.6566L81.4391 62.8467Z" fill="var(--sapContent_Illustrative_Color16)"/>
<path d="M74.2905 71.1951C75.8356 72.0459 80.4514 72.1535 80.4514 72.1535C80.5264 72.1535 80.6046 72.1567 80.6665 72.16L89.8786 71.2636C90.3871 71.2147 90.7587 70.7485 90.6805 70.2433C90.6577 70.0933 90.6316 69.9369 90.6023 69.7804C90.4686 69.0372 90.2795 68.2679 90.1948 67.9321C90.1655 67.818 90.1492 67.7528 90.1492 67.7528C90.1492 67.7528 90.2567 67.5605 90.4002 67.2997C90.5175 67.0846 90.775 66.5239 90.8989 66.2859C91.1695 65.7579 91.4205 64.7017 91.3618 64.1736C91.3553 64.1215 91.2933 64.0009 91.2933 64.0009C91.1303 63.6847 90.8174 63.476 90.4588 63.4793H90.4523C89.3635 63.5021 88.2161 63.6358 83.7242 63.1794C80.1906 62.8176 77.7491 62.3025 76.8657 62.0972C76.6668 62.0515 76.4615 62.0743 76.2789 62.1624C76.2789 62.1624 75.9529 62.2927 75.8617 62.3612C75.7769 62.4231 75.715 62.4329 75.6465 62.5698C75.64 62.5829 75.6172 62.6774 75.6172 62.6839C75.5879 62.7752 75.5813 62.8795 75.5748 62.9284C75.4933 63.4826 75.4901 63.9976 75.4346 64.6104C75.3792 65.2526 75.3401 65.8231 75.3206 66.1132C75.314 66.237 75.2814 66.3544 75.2228 66.4652C75.1445 66.6119 75.0109 66.8923 74.8023 67.4106C74.786 67.4529 74.7664 67.4986 74.7501 67.5442C74.6784 67.7202 74.6001 67.9256 74.5219 68.144C74.3557 68.5971 74.0199 69.3371 73.8048 70.1944C73.7754 70.3085 73.7363 70.478 73.7982 70.6703C73.8276 70.7616 73.9189 70.9898 74.2937 71.1951H74.2905Z" fill="var(--sapContent_Illustrative_Color25)"/>
<path d="M72.2466 74.4157C72.2401 74.256 72.1064 74.2201 71.963 73.8453C71.963 73.8453 71.963 73.8453 71.963 73.842C71.8587 73.5649 71.7446 73.1966 71.6827 72.7337C71.6598 72.5805 71.6435 72.4175 71.637 72.2415C71.6175 71.9253 71.624 71.5765 71.6631 71.1951C71.6729 71.0973 71.6859 70.9995 71.7022 70.8952C71.7283 70.7192 71.7674 70.5366 71.8098 70.3508C71.9369 69.8227 72.1162 69.2751 72.3216 68.7568C72.3998 68.558 72.4813 68.3656 72.5628 68.1798C73.0583 67.0519 73.5961 66.1816 73.72 66.1881C73.7526 66.1881 73.8569 66.2077 74.0101 66.2305C74.6099 66.3315 75.979 66.5923 76.882 66.7358C77.2894 66.8009 77.5991 66.8433 77.7099 66.8401C78.1239 66.8238 80.6046 66.0479 80.9371 66.1783C81.1327 66.2566 81.0773 67.6648 80.8654 69.1284C80.8295 69.3599 80.7937 69.5913 80.7545 69.8227C80.6437 70.4356 80.5101 71.0256 80.3536 71.4885C80.3177 71.6058 80.2786 71.7134 80.2395 71.8144C80.1678 71.9937 80.0896 72.1698 80.0178 72.3425C79.8712 72.6718 79.7245 72.9814 79.5843 73.2618C79.5289 73.3726 79.4767 73.4737 79.4278 73.5747C79.0627 74.2821 78.7791 74.7482 78.7791 74.7482" fill="var(--sapContent_Illustrative_Color24)"/>
<path d="M77.7458 74.882C77.7458 74.882 74.7826 74.7712 73.8504 74.6473C72.9181 74.5267 72.6573 74.5137 72.6573 74.5137" fill="var(--sapContent_Illustrative_Color24)"/>
<path d="M72.2466 74.4159C72.2466 74.4159 72.1064 74.2203 71.963 73.8454C72.1357 74.1192 72.3411 74.3213 72.4291 74.2757C72.5204 74.23 75.3238 73.8487 76.5364 74.0997C77.7523 74.3474 77.3709 74.3767 77.8631 74.3409C78.3521 74.3018 78.7074 73.9921 79.3039 73.3108C79.9037 72.6263 80.3992 69.6208 80.4481 69.4219C80.497 69.2231 80.4057 68.6559 80.4579 68.0952C80.51 67.5345 80.9305 66.1785 80.9305 66.1785C81.1261 66.2567 81.0707 67.6649 80.8588 69.1285C80.823 69.36 80.7871 69.5914 80.748 69.8229C80.6371 70.4357 80.5035 71.0257 80.347 71.4886C80.3112 71.6059 80.2721 71.7135 80.2329 71.8146C80.1612 71.9939 80.083 72.1699 80.0113 72.3427C79.8646 72.6719 79.7179 72.9816 79.5777 73.2619C79.5191 73.376 79.5191 73.3793 79.4213 73.5748C78.9323 74.543 78.9062 74.6408 78.7726 74.7483C78.6389 74.8559 78.3488 75.0059 77.7523 74.882C75.5128 74.7972 74.4306 74.7092 73.8569 74.6473C73.7623 74.6375 72.6638 74.5136 72.6638 74.5136" fill="var(--sapContent_Illustrative_Color1)"/>
<path d="M77.2242 74.2722C77.2242 74.2722 74.0753 74.9307 73.0615 75.0448C72.0477 75.1621 71.7674 75.2143 71.7674 75.2143" fill="var(--sapContent_Illustrative_Color24)"/>
<path d="M26.3069 52.2397L37.8823 60.7705C37.8823 60.7705 57.1833 71.8537 60.769 73.3434C64.358 74.8331 74.486 73.6204 76.6505 72.9457C78.8182 72.2676 99.8078 64.3986 99.8078 64.3986C99.8078 64.3986 99.9023 64.3367 94.8464 68.545C88.1868 74.0833 78.8802 77.7766 73.0126 79.4424C69.5671 80.4203 62.9791 81.6166 58.849 81.6166C54.7189 81.6166 47.7072 78.2982 44.8549 75.8045C39.209 70.8627 26.3069 52.2397 26.3069 52.2397Z" fill="var(--sapContent_Illustrative_Color16)"/>
<path d="M32.3505 60.6661C32.3505 60.6661 48.6721 71.5797 52.1796 73.1705C54.5364 74.2397 57.8059 76.7269 63.0574 77.4994C64.0646 77.6461 78.5444 77.594 78.5444 77.594C77.4035 77.6103 72.7095 80.7429 59.5042 81.6491C57.0268 81.8186 56.3423 81.3883 55.1753 81.1438C51.6971 80.4234 48.0104 78.1416 46.7814 77.2321C45.4743 76.2673 44.3757 75.4295 42.2569 73.1672C41.1258 71.9611 40.0468 70.7844 39.4503 70.1357C38.9254 69.5652 33.247 61.794 32.3538 60.6628L32.3505 60.6661Z" fill="var(--sapContent_Illustrative_Color16)"/>
</svg>