<svg width="128" height="128" viewBox="0 0 128 128" fill="none" xmlns="http://www.w3.org/2000/svg" id="sapIllus-Spot-GroupTable">
<circle cx="64" cy="64" r="64" fill="var(--sapContent_Illustrative_Color7)"/>
<path d="M100.137 37.873H50.3476C47.3306 37.873 44.8849 40.3188 44.8849 43.3357V104.915C44.8849 107.932 47.3306 110.378 50.3476 110.378H100.137C103.154 110.378 105.6 107.932 105.6 104.915V43.3357C105.6 40.3188 103.154 37.873 100.137 37.873Z" fill="var(--sapContent_Illustrative_Color18)"/>
<path fill-rule="evenodd" clip-rule="evenodd" d="M50.4822 43.7432C50.4822 43.4949 50.5504 43.2959 50.6338 43.2959H99.5365C99.6199 43.2959 99.6881 43.4854 99.6881 43.7432V104.51C99.6881 104.758 99.6199 104.957 99.5365 104.957H50.6338C50.5504 104.957 50.4822 104.767 50.4822 104.51V43.7432Z" fill="var(--sapContent_Illustrative_Color18)"/>
<path d="M99.6919 49.1128H50.4822V54.149H99.6919V49.1128Z" fill="var(--sapContent_Illustrative_Color19)"/>
<path d="M53.331 51.0161H61.7923C62.069 51.0161 62.2946 51.3175 62.2946 51.689C62.2946 52.0681 62.069 52.36 61.7923 52.36H53.331C53.0523 52.36 52.8268 52.0586 52.8268 51.689C52.8268 51.3175 53.0448 51.0161 53.331 51.0161Z" fill="var(--sapContent_Illustrative_Color20)"/>
<path d="M53.331 55.9404H60.2001C60.4768 55.9404 60.7024 56.2418 60.7024 56.6114C60.7024 56.9905 60.4768 57.2843 60.2001 57.2843H53.331C53.0523 57.2843 52.8268 56.9829 52.8268 56.6114C52.8268 56.2418 53.0448 55.9404 53.331 55.9404Z" fill="var(--sapContent_Illustrative_Color20)"/>
<path d="M53.331 61.0903H61.2919C61.5705 61.0903 61.7961 61.3917 61.7961 61.7613C61.7961 62.1404 61.5705 62.4342 61.2919 62.4342H53.331C53.0523 62.4342 52.8268 62.1328 52.8268 61.7613C52.8268 61.3898 53.0448 61.0903 53.331 61.0903Z" fill="var(--sapContent_Illustrative_Color20)"/>
<path d="M53.331 66.0186H56.9323C57.211 66.0186 57.4346 66.3199 57.4346 66.6895C57.4346 67.0686 57.211 67.3605 56.9323 67.3605H53.331C53.0523 67.3605 52.8268 67.061 52.8268 66.6895C52.8268 66.3142 53.0448 66.0186 53.331 66.0186Z" fill="var(--sapContent_Illustrative_Color20)"/>
<path d="M53.331 71.0488H56.9323C57.211 71.0488 57.4346 71.3483 57.4346 71.7198C57.4346 72.0989 57.211 72.3908 56.9323 72.3908H53.331C53.0523 72.3908 52.8268 72.0913 52.8268 71.7198C52.8268 71.3483 53.0448 71.0488 53.331 71.0488Z" fill="var(--sapContent_Illustrative_Color20)"/>
<path d="M53.331 81.1211H56.9323C57.211 81.1211 57.4346 81.4206 57.4346 81.7921C57.4346 82.1712 57.211 82.4631 56.9323 82.4631H53.331C53.0523 82.4631 52.8268 82.1617 52.8268 81.7921C52.8268 81.4206 53.0448 81.1211 53.331 81.1211Z" fill="var(--sapContent_Illustrative_Color20)"/>
<path d="M53.331 76.0854H56.9323C57.211 76.0854 57.4346 76.3849 57.4346 76.7564C57.4346 77.1355 57.211 77.4274 56.9323 77.4274H53.331C53.0523 77.4274 52.8268 77.1279 52.8268 76.7564C52.8268 76.3849 53.0448 76.0854 53.331 76.0854Z" fill="var(--sapContent_Illustrative_Color20)"/>
<path d="M53.331 86.1558H56.9323C57.211 86.1558 57.4346 86.4571 57.4346 86.8287C57.4346 87.2077 57.211 87.4996 56.9323 87.4996H53.331C53.0523 87.4996 52.8268 87.1983 52.8268 86.8287C52.8268 86.4571 53.0448 86.1558 53.331 86.1558Z" fill="var(--sapContent_Illustrative_Color20)"/>
<path d="M53.3139 91.2129H56.9153C57.192 91.2129 57.4176 91.5143 57.4176 91.8839C57.4176 92.263 57.192 92.5568 56.9153 92.5568H53.3139C53.0372 92.5568 52.8116 92.2554 52.8116 91.8839C52.8116 91.5143 53.0448 91.2129 53.3139 91.2129Z" fill="var(--sapContent_Illustrative_Color20)"/>
<path d="M71.0213 51.0161H79.4826C79.7593 51.0161 79.9849 51.3175 79.9849 51.689C79.9849 52.0681 79.7593 52.36 79.4826 52.36H71.0213C70.7426 52.36 70.5171 52.0586 70.5171 51.689C70.5171 51.3175 70.7426 51.0161 71.0213 51.0161Z" fill="var(--sapContent_Illustrative_Color20)"/>
<path d="M71.0213 55.9404H77.8904C78.1671 55.9404 78.3927 56.2418 78.3927 56.6114C78.3927 56.9905 78.1671 57.2843 77.8904 57.2843H71.0213C70.7426 57.2843 70.5171 56.9829 70.5171 56.6114C70.5171 56.2418 70.7426 55.9404 71.0213 55.9404Z" fill="var(--sapContent_Illustrative_Color20)"/>
<path d="M71.0213 61.0903H78.9822C79.2608 61.0903 79.4864 61.3917 79.4864 61.7613C79.4864 62.1404 79.2608 62.4342 78.9822 62.4342H71.0213C70.7426 62.4342 70.5171 62.1328 70.5171 61.7613C70.5171 61.3898 70.7426 61.0903 71.0213 61.0903Z" fill="var(--sapContent_Illustrative_Color20)"/>
<path d="M71.0213 66.0186H74.6226C74.9013 66.0186 75.1249 66.3199 75.1249 66.6895C75.1249 67.0686 74.9013 67.3605 74.6226 67.3605H71.0213C70.7426 67.3605 70.5171 67.061 70.5171 66.6895C70.5171 66.3142 70.7426 66.0186 71.0213 66.0186Z" fill="var(--sapContent_Illustrative_Color20)"/>
<path d="M71.0213 71.0488H74.6226C74.9013 71.0488 75.1249 71.3483 75.1249 71.7198C75.1249 72.0989 74.9013 72.3908 74.6226 72.3908H71.0213C70.7426 72.3908 70.5171 72.0913 70.5171 71.7198C70.5171 71.3483 70.7426 71.0488 71.0213 71.0488Z" fill="var(--sapContent_Illustrative_Color20)"/>
<path d="M71.0213 81.1211H74.6226C74.9013 81.1211 75.1249 81.4206 75.1249 81.7921C75.1249 82.1712 74.9013 82.4631 74.6226 82.4631H71.0213C70.7426 82.4631 70.5171 82.1617 70.5171 81.7921C70.5171 81.4206 70.7426 81.1211 71.0213 81.1211Z" fill="var(--sapContent_Illustrative_Color20)"/>
<path d="M71.0213 76.0854H74.6226C74.9013 76.0854 75.1249 76.3849 75.1249 76.7564C75.1249 77.1355 74.9013 77.4274 74.6226 77.4274H71.0213C70.7426 77.4274 70.5171 77.1279 70.5171 76.7564C70.5171 76.3849 70.7426 76.0854 71.0213 76.0854Z" fill="var(--sapContent_Illustrative_Color20)"/>
<path d="M71.0213 86.1558H74.6226C74.9013 86.1558 75.1249 86.4571 75.1249 86.8287C75.1249 87.2077 74.9013 87.4996 74.6226 87.4996H71.0213C70.7426 87.4996 70.5171 87.1983 70.5171 86.8287C70.5171 86.4571 70.7426 86.1558 71.0213 86.1558Z" fill="var(--sapContent_Illustrative_Color20)"/>
<path d="M71.0043 91.2129H74.6056C74.8823 91.2129 75.1079 91.5143 75.1079 91.8839C75.1079 92.263 74.8823 92.5568 74.6056 92.5568H71.0043C70.7275 92.5568 70.502 92.2554 70.502 91.8839C70.502 91.5143 70.7275 91.2129 71.0043 91.2129Z" fill="var(--sapContent_Illustrative_Color20)"/>
<path d="M88.5105 51.0161H96.9718C97.2486 51.0161 97.4741 51.3175 97.4741 51.689C97.4741 52.0681 97.2486 52.36 96.9718 52.36H88.5105C88.2319 52.36 88.0063 52.0586 88.0063 51.689C88.0063 51.3175 88.2319 51.0161 88.5105 51.0161Z" fill="var(--sapContent_Illustrative_Color20)"/>
<path d="M88.5105 55.9404H95.3797C95.6564 55.9404 95.882 56.2418 95.882 56.6114C95.882 56.9905 95.6564 57.2843 95.3797 57.2843H88.5105C88.2319 57.2843 88.0063 56.9829 88.0063 56.6114C88.0063 56.2418 88.2319 55.9404 88.5105 55.9404Z" fill="var(--sapContent_Illustrative_Color20)"/>
<path d="M88.5105 61.0903H96.4714C96.7501 61.0903 96.9756 61.3917 96.9756 61.7613C96.9756 62.1404 96.7501 62.4342 96.4714 62.4342H88.5105C88.2319 62.4342 88.0063 62.1328 88.0063 61.7613C88.0063 61.3898 88.2319 61.0903 88.5105 61.0903Z" fill="var(--sapContent_Illustrative_Color20)"/>
<path d="M88.5105 66.0186H92.1119C92.3886 66.0186 92.6142 66.3199 92.6142 66.6895C92.6142 67.0686 92.3886 67.3605 92.1119 67.3605H88.5105C88.2319 67.3605 88.0063 67.061 88.0063 66.6895C88.0063 66.3142 88.2319 66.0186 88.5105 66.0186Z" fill="var(--sapContent_Illustrative_Color20)"/>
<path d="M88.5105 71.0488H92.1119C92.3886 71.0488 92.6142 71.3483 92.6142 71.7198C92.6142 72.0989 92.3886 72.3908 92.1119 72.3908H88.5105C88.2319 72.3908 88.0063 72.0913 88.0063 71.7198C88.0063 71.3483 88.2319 71.0488 88.5105 71.0488Z" fill="var(--sapContent_Illustrative_Color20)"/>
<path d="M88.5105 81.1211H92.1119C92.3886 81.1211 92.6142 81.4206 92.6142 81.7921C92.6142 82.1712 92.3886 82.4631 92.1119 82.4631H88.5105C88.2319 82.4631 88.0063 82.1617 88.0063 81.7921C88.0063 81.4206 88.2319 81.1211 88.5105 81.1211Z" fill="var(--sapContent_Illustrative_Color20)"/>
<path d="M88.5105 76.0854H92.1119C92.3886 76.0854 92.6142 76.3849 92.6142 76.7564C92.6142 77.1355 92.3886 77.4274 92.1119 77.4274H88.5105C88.2319 77.4274 88.0063 77.1279 88.0063 76.7564C88.0063 76.3849 88.2319 76.0854 88.5105 76.0854Z" fill="var(--sapContent_Illustrative_Color20)"/>
<path d="M88.5105 86.1558H92.1119C92.3886 86.1558 92.6142 86.4571 92.6142 86.8287C92.6142 87.2077 92.3886 87.4996 92.1119 87.4996H88.5105C88.2319 87.4996 88.0063 87.1983 88.0063 86.8287C88.0063 86.4571 88.2319 86.1558 88.5105 86.1558Z" fill="var(--sapContent_Illustrative_Color20)"/>
<path d="M88.4897 91.2129H92.0911C92.3697 91.2129 92.5953 91.5143 92.5953 91.8839C92.5953 92.263 92.3697 92.5568 92.0911 92.5568H88.4897C88.2111 92.5568 87.9874 92.2554 87.9874 91.8839C87.9912 91.5143 88.2149 91.2129 88.4897 91.2129Z" fill="var(--sapContent_Illustrative_Color20)"/>
<path d="M63.6309 45.0854H54.002C53.3529 45.0854 52.8268 45.6116 52.8268 46.2606C52.8268 46.9097 53.3529 47.4358 54.002 47.4358H63.6309C64.2799 47.4358 64.806 46.9097 64.806 46.2606C64.806 45.6116 64.2799 45.0854 63.6309 45.0854Z" fill="var(--sapContent_Illustrative_Color20)"/>
<path d="M80.0525 23.105H30.2627C27.2458 23.105 24.8 25.5507 24.8 28.5677V90.1471C24.8 93.1641 27.2458 95.6098 30.2627 95.6098H80.0525C83.0694 95.6098 85.5152 93.1641 85.5152 90.1471V28.5677C85.5152 25.5507 83.0694 23.105 80.0525 23.105Z" fill="var(--sapContent_Illustrative_Color8)"/>
<path fill-rule="evenodd" clip-rule="evenodd" d="M30.3973 28.9749C30.3973 28.7266 30.4656 28.5276 30.549 28.5276H79.4516C79.535 28.5276 79.6033 28.7171 79.6033 28.9749V89.7412C79.6033 89.9895 79.535 90.1885 79.4516 90.1885H30.549C30.4656 90.1885 30.3973 89.999 30.3973 89.7412V28.9749Z" fill="var(--sapContent_Illustrative_Color8)"/>
<path d="M79.6071 34.345H30.3973V39.3812H79.6071V34.345Z" fill="var(--sapContent_Illustrative_Color18)"/>
<path d="M33.2461 36.248H41.7074C41.9842 36.248 42.2097 36.5494 42.2097 36.9209C42.2097 37.3 41.9842 37.5919 41.7074 37.5919H33.2461C32.9675 37.5919 32.7419 37.2906 32.7419 36.9209C32.7419 36.5494 32.9599 36.248 33.2461 36.248Z" fill="var(--sapContent_Illustrative_Color14)"/>
<path d="M33.2461 41.1724H40.1153C40.392 41.1724 40.6176 41.4737 40.6176 41.8433C40.6176 42.2224 40.392 42.5162 40.1153 42.5162H33.2461C32.9675 42.5162 32.7419 42.2149 32.7419 41.8433C32.7419 41.4737 32.9599 41.1724 33.2461 41.1724Z" fill="var(--sapContent_Illustrative_Color14)"/>
<path d="M33.2461 46.3223H41.207C41.4857 46.3223 41.7112 46.6236 41.7112 46.9933C41.7112 47.3723 41.4857 47.6661 41.207 47.6661H33.2461C32.9675 47.6661 32.7419 47.3648 32.7419 46.9933C32.7419 46.6217 32.9599 46.3223 33.2461 46.3223Z" fill="var(--sapContent_Illustrative_Color14)"/>
<path d="M33.2461 51.2505H36.8475C37.1261 51.2505 37.3498 51.5519 37.3498 51.9215C37.3498 52.3006 37.1261 52.5925 36.8475 52.5925H33.2461C32.9675 52.5925 32.7419 52.293 32.7419 51.9215C32.7419 51.5462 32.9599 51.2505 33.2461 51.2505Z" fill="var(--sapContent_Illustrative_Color14)"/>
<path d="M33.2461 56.2808H36.8475C37.1261 56.2808 37.3498 56.5803 37.3498 56.9518C37.3498 57.3309 37.1261 57.6227 36.8475 57.6227H33.2461C32.9675 57.6227 32.7419 57.3233 32.7419 56.9518C32.7419 56.5803 32.9599 56.2808 33.2461 56.2808Z" fill="var(--sapContent_Illustrative_Color14)"/>
<path d="M33.2461 66.353H36.8475C37.1261 66.353 37.3498 66.6525 37.3498 67.024C37.3498 67.4031 37.1261 67.695 36.8475 67.695H33.2461C32.9675 67.695 32.7419 67.3936 32.7419 67.024C32.7419 66.6525 32.9599 66.353 33.2461 66.353Z" fill="var(--sapContent_Illustrative_Color14)"/>
<path d="M33.2461 61.3174H36.8475C37.1261 61.3174 37.3498 61.6169 37.3498 61.9884C37.3498 62.3675 37.1261 62.6594 36.8475 62.6594H33.2461C32.9675 62.6594 32.7419 62.3599 32.7419 61.9884C32.7419 61.6169 32.9599 61.3174 33.2461 61.3174Z" fill="var(--sapContent_Illustrative_Color14)"/>
<path d="M33.2461 71.3877H36.8475C37.1261 71.3877 37.3498 71.6891 37.3498 72.0606C37.3498 72.4397 37.1261 72.7316 36.8475 72.7316H33.2461C32.9675 72.7316 32.7419 72.4302 32.7419 72.0606C32.7419 71.6891 32.9599 71.3877 33.2461 71.3877Z" fill="var(--sapContent_Illustrative_Color14)"/>
<path d="M33.2291 76.4448H36.8305C37.1072 76.4448 37.3327 76.7462 37.3327 77.1158C37.3327 77.4949 37.1072 77.7887 36.8305 77.7887H33.2291C32.9524 77.7887 32.7268 77.4873 32.7268 77.1158C32.7268 76.7462 32.96 76.4448 33.2291 76.4448Z" fill="var(--sapContent_Illustrative_Color14)"/>
<path d="M50.9364 36.248H59.3977C59.6745 36.248 59.9 36.5494 59.9 36.9209C59.9 37.3 59.6745 37.5919 59.3977 37.5919H50.9364C50.6578 37.5919 50.4323 37.2906 50.4323 36.9209C50.4323 36.5494 50.6578 36.248 50.9364 36.248Z" fill="var(--sapContent_Illustrative_Color14)"/>
<path d="M50.9364 41.1724H57.8055C58.0823 41.1724 58.3078 41.4737 58.3078 41.8433C58.3078 42.2224 58.0823 42.5162 57.8055 42.5162H50.9364C50.6578 42.5162 50.4323 42.2149 50.4323 41.8433C50.4323 41.4737 50.6578 41.1724 50.9364 41.1724Z" fill="var(--sapContent_Illustrative_Color14)"/>
<path d="M50.9364 46.3223H58.8973C59.176 46.3223 59.4015 46.6236 59.4015 46.9933C59.4015 47.3723 59.176 47.6661 58.8973 47.6661H50.9364C50.6578 47.6661 50.4323 47.3648 50.4323 46.9933C50.4323 46.6217 50.6578 46.3223 50.9364 46.3223Z" fill="var(--sapContent_Illustrative_Color14)"/>
<path d="M50.9364 51.2505H54.5378C54.8164 51.2505 55.0401 51.5519 55.0401 51.9215C55.0401 52.3006 54.8164 52.5925 54.5378 52.5925H50.9364C50.6578 52.5925 50.4323 52.293 50.4323 51.9215C50.4323 51.5462 50.6578 51.2505 50.9364 51.2505Z" fill="var(--sapContent_Illustrative_Color14)"/>
<path d="M50.9364 56.2808H54.5378C54.8164 56.2808 55.0401 56.5803 55.0401 56.9518C55.0401 57.3309 54.8164 57.6227 54.5378 57.6227H50.9364C50.6578 57.6227 50.4323 57.3233 50.4323 56.9518C50.4323 56.5803 50.6578 56.2808 50.9364 56.2808Z" fill="var(--sapContent_Illustrative_Color14)"/>
<path d="M50.9364 66.353H54.5378C54.8164 66.353 55.0401 66.6525 55.0401 67.024C55.0401 67.4031 54.8164 67.695 54.5378 67.695H50.9364C50.6578 67.695 50.4323 67.3936 50.4323 67.024C50.4323 66.6525 50.6578 66.353 50.9364 66.353Z" fill="var(--sapContent_Illustrative_Color14)"/>
<path d="M50.9364 61.3174H54.5378C54.8164 61.3174 55.0401 61.6169 55.0401 61.9884C55.0401 62.3675 54.8164 62.6594 54.5378 62.6594H50.9364C50.6578 62.6594 50.4323 62.3599 50.4323 61.9884C50.4323 61.6169 50.6578 61.3174 50.9364 61.3174Z" fill="var(--sapContent_Illustrative_Color14)"/>
<path d="M50.9364 71.3877H54.5378C54.8164 71.3877 55.0401 71.6891 55.0401 72.0606C55.0401 72.4397 54.8164 72.7316 54.5378 72.7316H50.9364C50.6578 72.7316 50.4323 72.4302 50.4323 72.0606C50.4323 71.6891 50.6578 71.3877 50.9364 71.3877Z" fill="var(--sapContent_Illustrative_Color14)"/>
<path d="M50.9194 76.4448H54.5208C54.7975 76.4448 55.0231 76.7462 55.0231 77.1158C55.0231 77.4949 54.7975 77.7887 54.5208 77.7887H50.9194C50.6427 77.7887 50.4171 77.4873 50.4171 77.1158C50.4171 76.7462 50.6427 76.4448 50.9194 76.4448Z" fill="var(--sapContent_Illustrative_Color14)"/>
<path d="M68.4258 36.248H76.8871C77.1639 36.248 77.3894 36.5494 77.3894 36.9209C77.3894 37.3 77.1639 37.5919 76.8871 37.5919H68.4258C68.1472 37.5919 67.9216 37.2906 67.9216 36.9209C67.9216 36.5494 68.1472 36.248 68.4258 36.248Z" fill="var(--sapContent_Illustrative_Color14)"/>
<path d="M68.4258 41.1724H75.2949C75.5717 41.1724 75.7972 41.4737 75.7972 41.8433C75.7972 42.2224 75.5717 42.5162 75.2949 42.5162H68.4258C68.1472 42.5162 67.9216 42.2149 67.9216 41.8433C67.9216 41.4737 68.1472 41.1724 68.4258 41.1724Z" fill="var(--sapContent_Illustrative_Color14)"/>
<path d="M68.4258 46.3223H76.3867C76.6653 46.3223 76.8909 46.6236 76.8909 46.9933C76.8909 47.3723 76.6653 47.6661 76.3867 47.6661H68.4258C68.1472 47.6661 67.9216 47.3648 67.9216 46.9933C67.9216 46.6217 68.1472 46.3223 68.4258 46.3223Z" fill="var(--sapContent_Illustrative_Color14)"/>
<path d="M68.4258 51.2505H72.0272C72.3039 51.2505 72.5295 51.5519 72.5295 51.9215C72.5295 52.3006 72.3039 52.5925 72.0272 52.5925H68.4258C68.1472 52.5925 67.9216 52.293 67.9216 51.9215C67.9216 51.5462 68.1472 51.2505 68.4258 51.2505Z" fill="var(--sapContent_Illustrative_Color14)"/>
<path d="M68.4258 56.2808H72.0272C72.3039 56.2808 72.5295 56.5803 72.5295 56.9518C72.5295 57.3309 72.3039 57.6227 72.0272 57.6227H68.4258C68.1472 57.6227 67.9216 57.3233 67.9216 56.9518C67.9216 56.5803 68.1472 56.2808 68.4258 56.2808Z" fill="var(--sapContent_Illustrative_Color14)"/>
<path d="M68.4258 66.353H72.0272C72.3039 66.353 72.5295 66.6525 72.5295 67.024C72.5295 67.4031 72.3039 67.695 72.0272 67.695H68.4258C68.1472 67.695 67.9216 67.3936 67.9216 67.024C67.9216 66.6525 68.1472 66.353 68.4258 66.353Z" fill="var(--sapContent_Illustrative_Color14)"/>
<path d="M68.4258 61.3174H72.0272C72.3039 61.3174 72.5295 61.6169 72.5295 61.9884C72.5295 62.3675 72.3039 62.6594 72.0272 62.6594H68.4258C68.1472 62.6594 67.9216 62.3599 67.9216 61.9884C67.9216 61.6169 68.1472 61.3174 68.4258 61.3174Z" fill="var(--sapContent_Illustrative_Color14)"/>
<path d="M68.4258 71.3877H72.0272C72.3039 71.3877 72.5295 71.6891 72.5295 72.0606C72.5295 72.4397 72.3039 72.7316 72.0272 72.7316H68.4258C68.1472 72.7316 67.9216 72.4302 67.9216 72.0606C67.9216 71.6891 68.1472 71.3877 68.4258 71.3877Z" fill="var(--sapContent_Illustrative_Color14)"/>
<path d="M68.4049 76.4448H72.0062C72.2849 76.4448 72.5104 76.7462 72.5104 77.1158C72.5104 77.4949 72.2849 77.7887 72.0062 77.7887H68.4049C68.1263 77.7887 67.9026 77.4873 67.9026 77.1158C67.9064 76.7462 68.13 76.4448 68.4049 76.4448Z" fill="var(--sapContent_Illustrative_Color14)"/>
<path d="M43.546 30.3176H33.9171C33.2681 30.3176 32.7419 30.8438 32.7419 31.4928C32.7419 32.1418 33.2681 32.668 33.9171 32.668H43.546C44.1951 32.668 44.7212 32.1418 44.7212 31.4928C44.7212 30.8438 44.1951 30.3176 43.546 30.3176Z" fill="var(--sapContent_Illustrative_Color14)"/>
<path d="M105.6 24.7087C105.6 23.8032 103.103 23.0784 99.7665 22.9137C99.5757 19.4062 98.8413 16.798 97.981 16.8C97.1206 16.8021 96.4053 19.4302 96.2221 22.9559C92.8762 23.1968 90.3886 23.9839 90.4001 24.8914C90.4115 25.7989 92.8972 26.5237 96.2336 26.6864C96.4339 30.1939 97.1588 32.8021 98.0172 32.8C98.8756 32.798 99.5948 30.1699 99.7779 26.6442C103.124 26.4033 105.61 25.6162 105.6 24.7087Z" fill="var(--sapContent_Illustrative_Color3)"/>
<path d="M116 35.5405C116 34.9519 114.291 34.4808 112.009 34.3738C111.878 32.0939 111.376 30.3986 110.787 30.3999C110.198 30.4012 109.709 32.1095 109.584 34.4012C107.294 34.5578 105.592 35.0694 105.6 35.6593C105.608 36.2492 107.309 36.7203 109.591 36.826C109.728 39.1059 110.224 40.8012 110.812 40.7999C111.399 40.7986 111.891 39.0903 112.016 36.7986C114.306 36.642 116.006 36.1304 116 35.5405Z" fill="var(--sapContent_Illustrative_Color3)"/>
</svg>
