<svg width="320" height="240" viewBox="0 0 320 240" fill="none" xmlns="http://www.w3.org/2000/svg" id="sapIllus-Scene-SuccessScreen">
<mask id="mask0_396_5942" style="mask-type:alpha" maskUnits="userSpaceOnUse" x="0" y="20" width="320" height="200">
<path d="M305.547 20H14.4533C12.5559 19.9983 10.6768 20.3705 8.92329 21.0954C7.16981 21.8203 5.57638 22.8836 4.23409 24.2247C2.8918 25.5657 1.82697 27.1582 1.10045 28.911C0.373942 30.6638 -8.08861e-07 32.5426 0 34.44V205.547C0 209.38 1.52275 213.056 4.23328 215.767C6.9438 218.477 10.6201 220 14.4533 220H305.547C309.38 220 313.056 218.477 315.767 215.767C318.477 213.056 320 209.38 320 205.547V34.44C320 32.5426 319.626 30.6638 318.9 28.911C318.173 27.1582 317.108 25.5657 315.766 24.2247C314.424 22.8836 312.83 21.8203 311.077 21.0954C309.323 20.3705 307.444 19.9983 305.547 20Z" style="fill:var(--sapContent_Illustrative_Color7)"/>
</mask>
<g mask="url(#mask0_396_5942)">
<path d="M305.547 20H14.4533C12.5559 19.9983 10.6768 20.3705 8.92329 21.0954C7.16981 21.8203 5.57638 22.8836 4.23409 24.2247C2.8918 25.5657 1.82697 27.1582 1.10045 28.911C0.373942 30.6638 -8.08861e-07 32.5426 0 34.44V205.547C0 209.38 1.52275 213.056 4.23328 215.767C6.9438 218.477 10.6201 220 14.4533 220H305.547C309.38 220 313.056 218.477 315.767 215.767C318.477 213.056 320 209.38 320 205.547V34.44C320 32.5426 319.626 30.6638 318.9 28.911C318.173 27.1582 317.108 25.5657 315.766 24.2247C314.424 22.8836 312.83 21.8203 311.077 21.0954C309.323 20.3705 307.444 19.9983 305.547 20Z" style="fill:var(--sapContent_Illustrative_Color7)"/>
<rect x="32" y="207" width="86.6463" height="13" rx="4" style="fill:var(--sapContent_Illustrative_Color19)"/>
<rect x="111.272" y="207" width="191.728" height="13" rx="4" style="fill:var(--sapContent_Illustrative_Color18)"/>
<rect x="-15.4889" y="6.48901" width="56" height="70.9333" rx="6.22222" style="fill:var(--sapContent_Illustrative_Color19)"/>
<rect x="-13.6222" y="4.45312" width="56" height="70.9333" rx="6.22222" style="fill:var(--sapContent_Illustrative_Color18)"/>
<rect x="-9.88889" y="8.18652" width="48.5333" height="63.4667" rx="3.73333" style="fill:var(--sapContent_Illustrative_Color7)"/>
<path fill-rule="evenodd" clip-rule="evenodd" d="M36.1555 71.4407V8.39893C37.6052 8.91129 38.6439 10.2935 38.6444 11.9185V67.9212C38.6439 69.5461 37.6052 70.9284 36.1555 71.4407Z" style="fill:var(--sapContent_Illustrative_Color19)"/>
<path d="M19.6293 21.7803C20.6373 22.6515 20.2142 24.8292 18.7084 26.6586C17.8124 27.7537 16.7173 28.463 15.784 28.687C15.9208 29.4461 16.0453 30.2426 16.1324 31.0888C16.6302 35.7555 16.8044 41.1315 13.2577 41.1563C9.13862 41.1937 8.75284 37.3857 8.32973 33.1048C8.2924 32.7563 8.25506 32.4203 8.21773 32.0719C7.71995 27.3928 7.96884 23.4728 11.2915 23.0995C12.6231 22.9501 13.6062 23.535 14.3404 24.6052C14.552 24.2319 14.8008 23.871 15.0871 23.5101C16.5928 21.6808 18.6213 20.9092 19.6293 21.7803Z" style="fill:var(--sapContent_Illustrative_Color18)"/>
<path d="M23.1138 35.8177C23.1138 38.5057 21.8818 40.6586 20.3512 40.6711C16.6303 40.7084 17.3769 38.5182 17.5885 35.8177C17.8001 33.1049 18.8205 30.9893 20.3512 30.9644C23.1512 30.9022 23.1138 33.1297 23.1138 35.8177Z" style="fill:var(--sapContent_Illustrative_Color18)"/>
<path d="M25.1546 43.7197H4.67107C4.43463 43.7197 4.23552 43.9188 4.23552 44.1677V58.3295C4.23552 58.5784 4.43463 58.7775 4.67107 58.7775H25.1546C25.3911 58.7775 25.5902 58.5784 25.5902 58.3295V44.1677C25.5902 43.9188 25.3911 43.7197 25.1546 43.7197Z" style="fill:var(--sapContent_Illustrative_Color18)"/>
<path d="M25.1422 41.1936H4.69599C4.45955 41.1936 4.26044 41.3927 4.26044 41.6416V46.7314C4.26044 46.9803 4.45955 47.1794 4.69599 47.1794H25.1422C25.3787 47.1794 25.5778 46.9803 25.5778 46.7314V41.6416C25.5778 41.3927 25.3787 41.1936 25.1422 41.1936Z" style="fill:var(--sapContent_Illustrative_Color19)"/>
<path d="M26.3867 39.24H3.61334C3.37689 39.24 3.17778 39.4391 3.17778 39.688V45.2631C3.17778 45.512 3.37689 45.7111 3.61334 45.7111H26.3867C26.6231 45.7111 26.8222 45.512 26.8222 45.2631V39.688C26.8222 39.4391 26.6231 39.24 26.3867 39.24Z" style="fill:var(--sapContent_Illustrative_Color18)"/>
<rect x="73" y="100" width="45" height="57" rx="5" style="fill:var(--sapContent_Illustrative_Color19)"/>
<rect x="75" y="98.4355" width="45" height="57" rx="5" style="fill:var(--sapContent_Illustrative_Color18)"/>
<rect x="78" y="101.436" width="39" height="51" rx="3" style="fill:var(--sapContent_Illustrative_Color7)"/>
<path fill-rule="evenodd" clip-rule="evenodd" d="M115 152.265V101.606C116.165 102.018 117 103.129 117 104.435V149.435C117 150.742 116.165 151.853 115 152.265Z" style="fill:var(--sapContent_Illustrative_Color19)"/>
<mask id="mask1_396_5942" style="mask-type:alpha" maskUnits="userSpaceOnUse" x="78" y="101" width="39" height="52">
<rect x="78" y="101.436" width="39" height="51" rx="3" style="fill:var(--sapContent_Illustrative_Color7)"/>
</mask>
<g mask="url(#mask1_396_5942)">
<path d="M102.073 139.258L87.9387 142.024L86.145 139.104C85.0386 137.299 84.3395 135.275 84.0963 133.173C83.8531 131.071 84.0717 128.942 84.7367 126.933C85.4018 124.923 86.4975 123.083 87.9475 121.539C89.3976 119.995 91.1672 118.785 93.1334 117.993L97.4471 116.257C102.923 114.051 108.5 119.212 106.7 124.824L102.073 139.258Z" style="fill:var(--sapContent_Illustrative_Color19)"/>
<path d="M99.5534 160.741L94.7598 158.929C94.2562 158.738 93.8043 158.432 93.4403 158.036C93.0762 157.64 92.81 157.165 92.6629 156.648L88.6271 142.529C88.54 142.225 88.5411 141.903 88.6303 141.6C88.7195 141.297 88.8932 141.025 89.1312 140.817C89.3691 140.609 89.6615 140.472 89.9742 140.423C90.287 140.374 90.6072 140.415 90.8977 140.54L102.096 145.377L103.163 158.025C103.201 158.473 103.124 158.925 102.94 159.336C102.756 159.747 102.47 160.105 102.109 160.376C101.749 160.648 101.325 160.823 100.878 160.887C100.431 160.951 99.9756 160.9 99.5534 160.741Z" style="fill:var(--sapContent_Illustrative_Color18)"/>
<path d="M102.576 151.077L102.336 148.206C101.381 147.556 100.358 147.012 99.285 146.584C96.2945 145.367 93.5597 145.15 93.1745 146.095C92.7892 147.04 94.8987 148.789 97.8861 150.005C99.7018 150.743 101.417 151.111 102.576 151.077Z" style="fill:var(--sapContent_Illustrative_Color19)"/>
<path d="M96.6588 126.493L101.672 126.764C102.515 126.809 103.341 127.018 104.102 127.381C104.863 127.743 105.546 128.252 106.11 128.879C106.674 129.505 107.108 130.236 107.389 131.03C107.669 131.824 107.79 132.665 107.744 133.506L107.251 142.573C107.158 144.269 106.395 145.858 105.128 146.992C103.861 148.126 102.194 148.711 100.495 148.619L98.354 148.503C95.8928 148.369 93.5855 147.266 91.9397 145.435C90.294 143.604 89.4445 141.196 89.5782 138.74L89.9159 132.539C90.0081 130.846 90.7699 129.258 92.034 128.124C93.2982 126.991 94.9615 126.404 96.6588 126.493Z" style="fill:var(--sapContent_Illustrative_Color18)"/>
<path d="M104.044 135.184L102.553 139.082C102.545 139.104 102.542 139.129 102.544 139.153C102.547 139.177 102.556 139.2 102.57 139.22C102.584 139.24 102.603 139.257 102.625 139.268C102.647 139.278 102.671 139.284 102.696 139.283H105.168C105.191 139.284 105.214 139.279 105.234 139.269C105.255 139.259 105.273 139.244 105.287 139.226C105.301 139.208 105.311 139.187 105.315 139.165C105.32 139.143 105.319 139.119 105.313 139.097L104.331 135.203C104.323 135.172 104.306 135.145 104.281 135.124C104.257 135.104 104.226 135.092 104.195 135.09C104.163 135.088 104.131 135.096 104.104 135.113C104.077 135.129 104.056 135.154 104.044 135.184Z" style="fill:var(--sapContent_Illustrative_Color19)"/>
<path d="M84.9935 130.904L87.4217 130.208C87.4662 130.192 87.5135 130.186 87.5606 130.189C87.6078 130.192 87.6537 130.205 87.6955 130.227C87.7374 130.249 87.7742 130.28 87.8036 130.316C87.8331 130.353 87.8546 130.396 87.8667 130.441L90.3434 139.048C90.5545 139.782 90.4649 140.569 90.0944 141.236C89.7239 141.903 89.1029 142.397 88.3679 142.607C88.281 142.632 88.1877 142.622 88.1086 142.578C88.0294 142.534 87.971 142.461 87.946 142.374L84.7677 131.329C84.7545 131.286 84.7499 131.242 84.7541 131.197C84.7583 131.153 84.7713 131.109 84.7923 131.07C84.8133 131.03 84.8418 130.995 84.8764 130.967C84.9109 130.938 84.9507 130.917 84.9935 130.904Z" style="fill:var(--sapContent_Illustrative_Color19)"/>
<path d="M89.1796 138.026L87.0196 137.15L92.8933 129.613L92.1796 133.47C91.9028 134.976 91.304 136.406 90.4238 137.661C90.2888 137.853 90.092 137.994 89.8659 138.061C89.6398 138.127 89.3978 138.115 89.1796 138.026Z" style="fill:var(--sapContent_Illustrative_Color19)"/>
<path d="M90.4814 140.129C91.2685 139.934 91.6155 138.607 91.2564 137.165C90.8973 135.722 89.9682 134.711 89.1811 134.906C88.3941 135.101 88.0471 136.429 88.4062 137.871C88.7652 139.313 89.6944 140.324 90.4814 140.129Z" style="fill:var(--sapContent_Illustrative_Color18)"/>
<path d="M101.181 131.137C107.691 130.244 112.643 127.155 112.241 124.238C111.839 121.321 106.235 119.681 99.7251 120.574C93.2148 121.467 88.263 124.556 88.665 127.473C89.067 130.39 94.6706 132.031 101.181 131.137Z" style="fill:var(--sapContent_Illustrative_Color19)"/>
<path d="M92.7897 129.578L88.7803 127.948L86.9165 132.512L90.9259 134.142L92.7897 129.578Z" style="fill:var(--sapContent_Illustrative_Color19)"/>
<path d="M92.5604 121.842C95.3396 119.005 96.9717 116.099 96.2058 115.352C95.44 114.605 92.5661 116.3 89.7869 119.138C87.0077 121.976 85.3756 124.881 86.1415 125.628C86.9073 126.375 89.7812 124.68 92.5604 121.842Z" style="fill:var(--sapContent_Illustrative_Color19)"/>
</g>
<rect x="151" y="5.56445" width="45" height="57" rx="5" style="fill:var(--sapContent_Illustrative_Color19)"/>
<rect x="153" y="4" width="45" height="57" rx="5" style="fill:var(--sapContent_Illustrative_Color18)"/>
<rect x="156" y="7" width="39" height="51" rx="3" style="fill:var(--sapContent_Illustrative_Color7)"/>
<path fill-rule="evenodd" clip-rule="evenodd" d="M193 57.8292V7.17065C194.165 7.58249 195 8.69373 195 9.99995V55C195 56.3062 194.165 57.4174 193 57.8292Z" style="fill:var(--sapContent_Illustrative_Color19)"/>
<path d="M156 34C156 34 166 34 172.5 43C179 52 183 58 183 58H159C157.34 58 156 56.66 156 55V34Z" style="fill:var(--sapContent_Illustrative_Color19)"/>
<path d="M180.76 48.1601C179.09 47.7201 177.46 48.2601 175.69 49.2901C174.35 50.1201 173.05 51.0301 171.8 52.0101C169.58 53.6801 167.63 55.7001 166 58.0001H189C184.39 53.4701 184.3 49.0901 180.76 48.1601Z" style="fill:var(--sapContent_Illustrative_Color20)"/>
<path d="M183.28 33.19C186.2 33.19 188.56 30.91 188.56 28.09C188.56 25.27 186.19 22.99 183.28 22.99C180.37 22.99 178 25.27 178 28.09C178 30.91 180.37 33.19 183.28 33.19Z" style="fill:var(--sapContent_Illustrative_Color18)"/>
<rect x="248" y="53" width="45" height="57" rx="5" style="fill:var(--sapContent_Illustrative_Color19)"/>
<rect x="250" y="51.4355" width="45" height="57" rx="5" style="fill:var(--sapContent_Illustrative_Color18)"/>
<rect x="253" y="54.4355" width="39" height="51" rx="3" style="fill:var(--sapContent_Illustrative_Color7)"/>
<path fill-rule="evenodd" clip-rule="evenodd" d="M290 105.265V54.6062C291.165 55.018 292 56.1293 292 57.4355V102.435C292 103.742 291.165 104.853 290 105.265Z" style="fill:var(--sapContent_Illustrative_Color19)"/>
<g opacity="0.5">
<path d="M284.092 80.4989L284.058 80.4546C282.487 77.8114 279.297 76 275.615 76C272.076 76 268.994 77.6686 267.365 80.1445V76.9204C267.365 76.8682 267.344 76.8182 267.307 76.7812C267.27 76.7443 267.22 76.7235 267.168 76.7235L265.031 78.2593H264.908C264.536 78.097 264.133 78.0181 263.727 78.0279C263.353 78.0223 262.983 78.0875 262.634 78.2199H262.58L260.197 76.7433C260.171 76.7433 260.145 76.7483 260.122 76.7582C260.098 76.7681 260.076 76.7827 260.058 76.8009C260.039 76.8192 260.025 76.8409 260.015 76.8648C260.005 76.8887 260 76.9143 260 76.9402V80.9911C260 82.0773 260.432 83.1189 261.2 83.8869C261.968 84.655 263.01 85.0864 264.096 85.0864H283.472C283.497 85.3374 283.511 85.5786 283.511 85.874C283.516 87.0401 283.233 88.1894 282.687 89.2198C282.14 90.2502 281.348 91.1299 280.38 91.7806L280.302 91.8348C280.179 91.9168 280.075 92.0227 279.995 92.1461C279.914 92.2695 279.86 92.4079 279.834 92.553C279.809 92.698 279.813 92.8467 279.846 92.9901C279.88 93.1335 279.942 93.2687 280.029 93.3875C280.116 93.5063 280.226 93.6063 280.352 93.6815C280.479 93.7568 280.619 93.8056 280.765 93.8252C280.911 93.8448 281.06 93.8346 281.202 93.7953C281.344 93.7561 281.476 93.6886 281.591 93.5969L281.651 93.5575C282.9 92.7002 283.921 91.5508 284.626 90.2092C285.33 88.8676 285.696 87.3744 285.692 85.8592C285.681 83.9564 285.126 82.0966 284.092 80.4989ZM266.144 81.8082L267.335 78.8549L267.36 80.1888L266.144 81.8082Z" style="fill:var(--sapContent_Illustrative_Color19)"/>
<path d="M266.144 81.7982L267.36 80.1592L267.34 78.8253L266.144 81.7982Z" style="fill:var(--sapContent_Illustrative_Color19)"/>
</g>
<rect width="44.25" height="6.75" rx="3" transform="matrix(-1 0 0 1 163.75 200.25)" style="fill:var(--sapContent_Illustrative_Color14)"/>
<path d="M152.477 205.114L149.5 200.25H256V204.615C256 204.93 255.946 205.241 255.841 205.531C255.736 205.821 255.582 206.085 255.388 206.306C255.194 206.528 254.964 206.703 254.711 206.822C254.458 206.941 254.187 207.002 253.914 207H155.642C155.021 207.001 154.41 206.831 153.859 206.502C153.308 206.174 152.834 205.698 152.477 205.114Z" style="fill:var(--sapContent_Illustrative_Color13)"/>
<path d="M210.439 132.001H108.411C108.051 131.991 107.693 132.063 107.366 132.212C107.038 132.362 106.749 132.584 106.523 132.861C106.296 133.138 106.136 133.464 106.057 133.812C105.978 134.161 105.981 134.522 106.066 134.869L119.646 198.368C119.761 198.9 120.057 199.376 120.484 199.719C120.91 200.061 121.442 200.248 121.992 200.249H222.847C223.204 200.258 223.558 200.186 223.882 200.039C224.206 199.892 224.492 199.673 224.719 199.4C224.945 199.127 225.105 198.806 225.187 198.462C225.269 198.118 225.271 197.76 225.192 197.416L212.785 133.929C212.69 133.383 212.401 132.889 211.971 132.536C211.541 132.183 210.998 131.993 210.439 132.001Z" style="fill:var(--sapContent_Illustrative_Color2)"/>
<path d="M205.793 142.015C205.439 140.122 203.787 138.75 201.861 138.75H175.017C172.616 138.75 170.756 140.85 171.046 143.234L174.64 172.734C174.885 174.741 176.589 176.25 178.611 176.25H207.377C209.88 176.25 211.769 173.976 211.309 171.515L205.793 142.015Z" style="fill:var(--sapContent_Illustrative_Color13)"/>
<path d="M120.854 146.286L171.746 146.462L190.741 146.532C191.3 146.524 191.843 146.716 192.272 147.072C192.702 147.429 192.99 147.927 193.085 148.478L198.347 176.064L201.159 190.842C201.235 191.189 201.232 191.548 201.149 191.894C201.066 192.239 200.906 192.561 200.68 192.836C200.454 193.11 200.169 193.329 199.846 193.477C199.523 193.625 199.17 193.698 198.815 193.689H128.694C128.136 193.683 127.597 193.483 127.17 193.124C126.743 192.765 126.453 192.269 126.35 191.721L118.511 149.122C118.447 148.777 118.46 148.423 118.548 148.083C118.637 147.744 118.798 147.428 119.022 147.158C119.245 146.888 119.525 146.67 119.841 146.519C120.158 146.368 120.504 146.289 120.854 146.286Z" style="fill:var(--sapContent_Illustrative_Color8)"/>
<path d="M158.753 150.002C156.285 149.966 153.838 150.448 151.567 151.415C149.299 152.395 147.262 153.839 145.584 155.655C143.92 157.494 142.659 159.662 141.883 162.02C141.108 164.377 140.839 166.872 141.093 169.341C142.034 179.951 151.44 188.605 162.036 188.605C164.502 188.643 166.949 188.162 169.218 187.192C171.485 186.222 173.523 184.785 175.2 182.975C176.868 181.138 178.13 178.969 178.906 176.61C179.681 174.251 179.951 171.755 179.696 169.285C178.77 158.633 169.396 150.002 158.753 150.002ZM174.485 182.273C172.903 183.983 170.98 185.34 168.841 186.259C166.697 187.174 164.385 187.629 162.055 187.597C151.924 187.597 142.969 179.362 142.081 169.223C141.84 166.905 142.089 164.561 142.81 162.345C143.539 160.114 144.728 158.061 146.299 156.32C147.881 154.61 149.804 153.254 151.943 152.339C154.085 151.421 156.396 150.965 158.725 151.001C168.851 151.001 177.815 159.231 178.699 169.351C178.942 171.685 178.691 174.045 177.961 176.276C177.235 178.507 176.046 180.559 174.471 182.297L174.485 182.273Z" style="fill:var(--sapContent_Illustrative_Color3)"/>
<path d="M158.998 153.483C150.325 153.483 143.849 160.588 144.611 169.28C145.373 177.972 153.076 185.076 161.758 185.076C170.44 185.076 176.907 177.967 176.15 169.28C175.393 160.592 167.67 153.483 158.998 153.483ZM167.463 165.643L158.828 175.122C158.686 175.271 158.515 175.39 158.325 175.471C158.136 175.553 157.932 175.595 157.725 175.595C157.519 175.595 157.315 175.553 157.125 175.471C156.936 175.39 156.765 175.271 156.622 175.122L153.194 171.965C153.033 171.835 152.899 171.673 152.802 171.49C152.704 171.307 152.644 171.107 152.626 170.9C152.608 170.693 152.631 170.485 152.694 170.288C152.758 170.09 152.861 169.908 152.996 169.751C153.139 169.601 153.311 169.482 153.501 169.401C153.691 169.319 153.895 169.277 154.102 169.277C154.308 169.277 154.513 169.319 154.703 169.401C154.893 169.482 155.064 169.601 155.207 169.751L157.436 171.805L165.065 163.433C165.207 163.284 165.378 163.165 165.568 163.083C165.757 163.002 165.961 162.96 166.167 162.96C166.374 162.96 166.578 163.002 166.767 163.083C166.957 163.165 167.128 163.284 167.27 163.433C167.432 163.563 167.565 163.723 167.663 163.906C167.761 164.088 167.821 164.289 167.84 164.495C167.859 164.701 167.836 164.909 167.773 165.106C167.71 165.303 167.608 165.486 167.472 165.643H167.463Z" style="fill:var(--sapContent_Illustrative_Color12)"/>
</g>
</svg>
