<svg width="160" height="160" viewBox="0 0 160 160" fill="none" xmlns="http://www.w3.org/2000/svg" id="sapIllus-Dialog-NoSavedItems">
<rect y="50" width="160" height="69" rx="12" fill="var(--sapContent_Illustrative_Color20)"/>
<path d="M128.388 76.8324C125.427 75.2878 121.651 74.2219 118.029 73.7432C118.014 73.7432 118 73.7432 117.985 73.7383C117.753 73.7087 117.521 73.679 117.289 73.6544C117.274 73.6544 117.259 73.6544 117.24 73.6494C116.514 73.5705 115.789 73.5162 115.083 73.4817C115.049 73.4817 115.009 73.4817 114.975 73.4817C114.782 73.4718 114.595 73.4668 114.407 73.4619C114.353 73.4619 114.303 73.4619 114.249 73.4619C114.071 73.4619 113.894 73.4619 113.721 73.4619C113.672 73.4619 113.622 73.4619 113.568 73.4619C113.361 73.4619 113.154 73.4668 112.946 73.4718C112.936 73.4718 112.922 73.4718 112.912 73.4718C112.695 73.4767 112.482 73.4866 112.27 73.5014C110.351 73.5952 109.408 73.679 107.844 73.911C107.444 73.9603 107.044 74.0196 106.664 74.0936C102.524 74.898 100.812 76.9262 102.05 79.2702C99.6617 79.7144 96.4787 80.351 93.1477 81.0418C91.4353 80.6273 89.6637 80.3263 87.8872 80.1486C87.8526 80.1486 87.8329 80.1388 87.7934 80.1338C84.867 79.7538 81.4521 79.7637 78.2346 79.9809C78.2099 79.9809 78.1852 79.9809 78.1606 79.9809C75.9991 80.1092 74.9677 80.1931 72.2832 80.5829C71.4985 80.6964 70.6941 80.8691 69.9292 81.0369C66.7315 81.7377 64.1111 82.848 62.1815 84.2396C61.8213 84.4962 61.4857 84.7677 61.1748 85.044C60.8639 85.3204 60.5728 85.6115 60.3063 85.9125C60.173 86.0606 60.0497 86.2136 59.9263 86.3666C59.6845 86.6774 59.4723 86.9933 59.2848 87.319C58.0659 89.4558 58.056 91.9331 59.6253 94.44C59.4081 94.5041 59.1811 94.5732 58.9295 94.6423C58.9295 94.6423 58.9196 94.6423 58.9147 94.6423C58.7469 94.6916 58.5643 94.7459 58.3817 94.8002C58.357 94.8101 58.3274 94.815 58.3027 94.8249C58.1349 94.8742 57.9622 94.9236 57.7796 94.9779C57.7451 94.9877 57.7105 94.9976 57.676 95.0075C57.4885 95.0618 57.296 95.121 57.0937 95.1802C57.069 95.1851 57.0493 95.195 57.0295 95.1999C56.8075 95.2641 56.5805 95.3332 56.3485 95.4023C55.3714 95.6885 54.3006 96.0093 53.1804 96.3448C53.1705 96.3448 53.1606 96.3498 53.1507 96.3547C52.8892 96.4336 52.6227 96.5126 52.3562 96.5916C52.3168 96.6014 52.2773 96.6162 52.2329 96.6261C51.996 96.6952 51.7591 96.7692 51.5222 96.8383C51.4581 96.858 51.3939 96.8778 51.3298 96.8975C51.1176 96.9617 50.9054 97.0258 50.6932 97.09C50.5994 97.1196 50.5106 97.1443 50.4168 97.1739C50.2194 97.2331 50.0171 97.2923 49.8197 97.3515C49.7358 97.3762 49.6519 97.4009 49.573 97.4256C49.3608 97.4897 49.1436 97.5539 48.9314 97.618C48.8525 97.6427 48.7735 97.6674 48.6946 97.6871C48.4676 97.7562 48.2406 97.8253 48.0185 97.8944C47.9593 97.9141 47.8951 97.9289 47.8359 97.9487C47.2536 98.1263 46.6762 98.304 46.1087 98.4767C46.084 98.4816 46.0594 98.4915 46.0396 98.4964C45.7879 98.5754 45.5363 98.6494 45.2895 98.7284C45.2155 98.753 45.1415 98.7728 45.0675 98.7974C44.875 98.8567 44.6875 98.9159 44.5 98.9702C44.4013 98.9998 44.3075 99.0294 44.2137 99.059C44.0459 99.1083 43.8831 99.1626 43.7202 99.212C43.6265 99.2416 43.5278 99.2712 43.434 99.3008C43.2761 99.3501 43.1231 99.3995 42.9652 99.4488C42.8665 99.4785 42.7728 99.5081 42.679 99.5377C42.5359 99.5821 42.3928 99.6265 42.2497 99.6709C42.1559 99.7005 42.0621 99.7301 41.9733 99.7597C41.8302 99.8042 41.692 99.8486 41.5538 99.893C41.4749 99.9177 41.391 99.9473 41.312 99.9719C41.1591 100.021 41.0159 100.066 40.8728 100.115C40.8136 100.135 40.7495 100.155 40.6952 100.174C40.4978 100.238 40.3053 100.303 40.1277 100.362C39.3726 100.613 38.7114 100.845 38.1291 101.063C36.6585 101.61 35.7011 102.064 35.0793 102.42C34.9559 102.494 34.8424 102.563 34.7437 102.627C34.5464 102.755 34.3983 102.874 34.2897 102.977C34.0677 103.185 34.0035 103.333 33.9937 103.436C33.9937 103.486 33.9986 103.525 34.0134 103.555C34.0134 103.555 34.0134 103.555 34.0134 103.56C34.0183 103.574 34.0282 103.584 34.043 103.599C34.27 103.856 35.4889 104.403 39.4861 103.416C43.1478 102.508 57.069 98.5951 61.9397 97.243C63.2869 98.5112 65.4336 99.9522 69.3469 101.373C69.421 101.403 69.4999 101.428 69.5789 101.457C69.7565 101.521 69.9292 101.586 70.1168 101.65C70.556 101.803 71.005 101.951 71.459 102.089C71.4689 102.089 71.4837 102.099 71.4936 102.099C71.844 102.202 72.1993 102.306 72.5546 102.405C72.5842 102.415 72.6187 102.42 72.6533 102.429C72.974 102.518 73.2997 102.597 73.6304 102.676C73.6847 102.691 73.7439 102.701 73.7982 102.716C74.1041 102.79 74.415 102.859 74.7259 102.923C74.7999 102.938 74.874 102.953 74.948 102.967C75.2441 103.027 75.5402 103.086 75.8412 103.14C75.93 103.155 76.0188 103.17 76.1077 103.185C76.3939 103.234 76.6801 103.283 76.9663 103.323C77.07 103.338 77.1736 103.352 77.2723 103.367C77.5487 103.407 77.825 103.446 78.1014 103.481C78.2149 103.495 78.3284 103.51 78.4419 103.52C78.7083 103.55 78.9798 103.579 79.2462 103.604C79.3696 103.614 79.493 103.629 79.6164 103.639C79.8779 103.663 80.1395 103.683 80.401 103.698C80.5342 103.708 80.6625 103.717 80.7958 103.722C81.0475 103.737 81.3041 103.747 81.5558 103.757C81.6939 103.762 81.8321 103.767 81.9703 103.772C82.217 103.777 82.4638 103.782 82.7105 103.787C82.8536 103.787 82.9967 103.787 83.1448 103.787C83.3866 103.787 83.6284 103.787 83.8702 103.777C84.0182 103.777 84.1663 103.777 84.3143 103.767C84.5512 103.762 84.7881 103.747 85.025 103.737C85.173 103.732 85.326 103.722 85.474 103.717C85.7109 103.703 85.9428 103.683 86.1748 103.668C86.3228 103.658 86.4709 103.648 86.6189 103.634C86.8558 103.614 87.0927 103.584 87.3295 103.56C87.4677 103.545 87.6108 103.53 87.749 103.515C88.0056 103.486 88.2523 103.446 88.504 103.412C88.6225 103.397 88.7409 103.382 88.8593 103.362C89.2245 103.303 89.5897 103.244 89.9499 103.175V103.194H89.945C91.7314 102.928 94.1248 102.415 96.5824 101.566C96.8044 101.492 97.0265 101.413 97.2437 101.329C98.1221 101.003 99.0054 100.638 99.8542 100.229C100.066 100.125 100.274 100.021 100.481 99.9127C101.917 99.1626 103.239 98.2842 104.32 97.2578C105.519 96.1178 106.408 94.8051 106.807 93.3099C106.876 93.0878 106.926 92.8658 106.96 92.6387C106.97 92.5746 106.98 92.5104 106.985 92.4512C107.01 92.2785 107.02 92.1008 107.025 91.9281C107.025 91.8738 107.025 91.8146 107.025 91.7603C107.025 91.3014 106.955 90.8375 106.827 90.3687C106.817 90.3243 106.802 90.2799 106.788 90.2355C106.724 90.0282 106.649 89.8209 106.566 89.6087C106.556 89.5841 106.546 89.5594 106.536 89.5397C106.373 89.1597 106.166 88.7748 105.924 88.3997C109.072 87.2005 111.801 86.1395 113.346 85.5424C117.24 86.4751 121.36 86.7761 124.681 86.2481C124.681 86.2481 124.726 86.2432 124.746 86.2382C124.775 86.2382 124.805 86.2284 124.829 86.2234C127.435 85.8287 130.159 85.0835 131.59 84.1409C131.59 84.1409 131.595 84.1409 131.6 84.136C131.694 84.0718 131.783 84.0077 131.867 83.9435C131.906 83.9139 131.946 83.8794 131.985 83.8448C132.005 83.83 132.024 83.8152 132.039 83.8004C132.039 83.8004 132.044 83.7906 132.049 83.7856C132.182 83.6721 132.306 83.5537 132.414 83.4303C132.631 83.1836 132.794 82.9171 132.898 82.6457C133.076 82.1966 133.1 81.7179 132.977 81.2244C132.952 81.1257 132.923 81.027 132.888 80.9283C132.409 79.5713 130.87 78.1303 128.373 76.8225L128.388 76.8324Z" fill="var(--sapContent_Illustrative_Color21)"/>
<path d="M88.0792 69.4613C84.3435 62.7993 78.7326 58.1901 73.0871 56.4432C73.0476 56.4284 73.023 56.4037 72.9835 56.3889C67.5749 54.3064 60.8141 55.1749 56.2001 56.8824C55.3907 57.1538 54.6012 57.4745 53.8412 57.8989C44.7512 62.9966 43.1227 77.3571 50.1993 89.9804C56.6442 101.474 68.0881 107.529 76.9462 104.667V104.701C81.0668 103.699 89.3771 99.6379 91.5484 88.347C92.7476 82.741 91.6619 75.8519 88.0792 69.4613Z" fill="var(--sapContent_Illustrative_Color15)"/>
<path d="M50.6782 87.5469C50.6782 87.5469 39.3034 95.1317 35.3703 98.221C31.4372 101.31 31.9307 102.781 32.138 103.131C32.3452 103.482 33.6086 104.602 36.4856 103.131C39.3577 101.661 51.833 94.0905 53.6589 93.0394C55.4798 91.9882 50.6782 87.5469 50.6782 87.5469Z" fill="var(--sapContent_Illustrative_Color22)"/>
<path d="M76.9465 104.665V104.7C81.0671 103.698 89.3774 99.6364 91.5488 88.3454C92.3581 84.5604 92.1212 80.1881 90.7839 75.7813L68.7573 66.8652C68.7573 66.8652 62.0672 75.3671 73.5506 87.4871C79.9215 94.2083 73.9314 104.774 61.9199 102.281C66.9091 105.208 72.2831 106.175 76.9465 104.67V104.665Z" fill="var(--sapContent_Illustrative_Color16)"/>
<path d="M87.7546 97.4159C89.934 89.4249 79.1793 88.1174 74.476 82.84C74.476 82.84 83.812 84.0573 85.3407 82.84C86.8694 81.6227 91.3964 78.1162 91.3964 78.1162C93.2053 85.9806 90.9483 92.9799 87.7546 97.4159Z" fill="var(--sapContent_Illustrative_Color29)"/>
<path d="M91.4747 53.6047C87.818 54.8828 79.3498 58.9541 72.4459 62.3937C68.276 64.4614 65.8924 71.5626 69.2037 77.4055C73.27 84.5758 81.7975 85.5431 84.6745 83.3421C92.0521 77.7065 100.732 70.7138 100.732 70.7138L102.331 67.5161C102.331 67.5161 95.1364 52.3217 91.4796 53.5998L91.4747 53.6047Z" fill="var(--sapContent_Illustrative_Color28)"/>
<path d="M36.298 99.6171C40.8036 96.9572 52.2672 90.6751 52.2672 90.6751L50.3328 87.7734C48.418 89.0565 38.8987 95.4422 35.3703 98.2156C31.4372 101.305 31.9307 102.775 32.138 103.126C32.2465 103.303 32.6265 103.678 33.347 103.817C33.347 103.817 31.7925 102.277 36.298 99.6171Z" fill="var(--sapContent_Illustrative_Color17)"/>
<path d="M97.5854 68.2271L74.5708 82.7689C75.9247 83.6858 78.8942 84.4286 81.0777 84.4286C82.8246 84.4286 84.1056 83.8172 84.5277 83.5115L99.9213 71.4798L97.5854 68.2271Z" fill="var(--sapContent_Illustrative_Color16)"/>
<path d="M116.79 67.9402C118.814 63.1682 118.508 56.5308 115.463 50.229C115.221 49.7257 114.96 49.2371 114.693 48.7584C114.629 48.6449 114.565 48.5364 114.501 48.4229C114.259 47.9985 114.007 47.5889 113.746 47.1842C113.716 47.1398 113.691 47.0954 113.662 47.051C113.02 46.0837 112.334 45.1807 111.609 44.3467L105.08 57.2266L95.9801 63.8048L93.1919 65.9515C93.2659 66.06 93.3449 66.1637 93.4238 66.2722C93.5077 66.3857 93.5867 66.4992 93.6706 66.6078C93.7545 66.7164 93.8384 66.8249 93.9223 66.9335C94.0012 67.0371 94.0851 67.1408 94.1641 67.2444C94.248 67.353 94.3368 67.4566 94.4256 67.5602C94.5095 67.6589 94.5934 67.7576 94.6773 67.8563C94.7661 67.9599 94.8549 68.0586 94.9438 68.1623C95.0326 68.261 95.1165 68.3547 95.2053 68.4534C95.2941 68.5521 95.383 68.6459 95.4718 68.7397C95.5705 68.8482 95.6741 68.9469 95.7778 69.0505C95.9159 69.1887 96.0492 69.3269 96.1874 69.4601C96.3009 69.5687 96.4143 69.6773 96.5279 69.7858C96.6167 69.8697 96.7055 69.9487 96.7993 70.0276C96.898 70.1165 96.9917 70.2053 97.0904 70.2892C97.1842 70.3682 97.278 70.4471 97.3717 70.5261C97.4704 70.61 97.5691 70.6889 97.6678 70.7679C97.7616 70.8419 97.8553 70.9209 97.9491 70.9949C98.0527 71.0738 98.1514 71.1528 98.255 71.2317C98.3488 71.3008 98.4376 71.3699 98.5314 71.439C98.6449 71.5229 98.7584 71.6019 98.8719 71.6808C98.9558 71.74 99.0397 71.7993 99.1186 71.8535C99.3062 71.9818 99.4986 72.1052 99.6862 72.2237C99.7651 72.273 99.8391 72.3174 99.9181 72.3618C100.041 72.4359 100.165 72.5099 100.288 72.5839C100.377 72.6332 100.466 72.6826 100.555 72.7319C100.668 72.7961 100.782 72.8553 100.9 72.9195C100.989 72.9688 101.083 73.0132 101.176 73.0576C101.295 73.1169 101.408 73.1711 101.527 73.2254C101.616 73.2698 101.705 73.3093 101.793 73.3488C101.917 73.4031 102.045 73.4574 102.168 73.5117C102.247 73.5462 102.331 73.5807 102.41 73.6153C102.583 73.6844 102.751 73.7485 102.923 73.8077C102.978 73.8275 103.027 73.8472 103.081 73.862C103.269 73.9262 103.451 73.9854 103.639 74.0446C103.713 74.0693 103.787 74.089 103.866 74.1088C103.999 74.1482 104.132 74.1828 104.266 74.2173C104.35 74.2371 104.433 74.2568 104.517 74.2766C104.646 74.3062 104.769 74.3308 104.897 74.3604C104.981 74.3753 105.065 74.395 105.149 74.4098C105.277 74.4345 105.411 74.4542 105.539 74.4739C105.618 74.4838 105.692 74.4986 105.771 74.5085C105.924 74.5282 106.072 74.543 106.22 74.5578C106.274 74.5628 106.333 74.5677 106.388 74.5726C106.59 74.5875 106.797 74.5973 107 74.6023C107.049 74.6023 107.103 74.6023 107.153 74.6023C107.306 74.6023 107.459 74.6023 107.612 74.6023C107.686 74.6023 107.76 74.5973 107.829 74.5924C107.957 74.5875 108.09 74.5776 108.219 74.5628C108.297 74.5578 108.371 74.548 108.45 74.5381C108.579 74.5233 108.702 74.5085 108.83 74.4888C108.904 74.4789 108.978 74.4641 109.053 74.4542C109.186 74.4295 109.319 74.4049 109.452 74.3752C109.516 74.3604 109.581 74.3506 109.645 74.3358C109.837 74.2914 110.035 74.2371 110.227 74.1828C110.227 74.1828 110.271 74.1729 110.296 74.168C110.326 74.1581 110.355 74.1482 110.385 74.1384C113.454 73.2501 116.938 71.3156 118.769 68.6706C119.431 67.7181 118.394 67.649 116.805 67.9451L116.79 67.9402Z" fill="var(--sapContent_Illustrative_Color29)"/>
<path d="M62.418 55.3765C60.0937 55.6232 58.9883 55.791 56.2099 56.7533C55.4056 57.0296 54.6012 57.4738 53.8412 57.8982C44.7512 62.9959 43.1227 77.3563 50.1993 89.9796C52.0597 93.3008 54.6801 97.9445 61.9146 102.282C61.9146 102.282 52.4014 92.8352 51.7044 78.8318C51.0074 64.8285 55.2847 58.5592 62.413 55.3765H62.418Z" fill="var(--sapContent_Illustrative_Color3)"/>
<path d="M106.378 74.5837C106.323 74.5837 106.269 74.5738 106.21 74.5688C106.264 74.5738 106.323 74.5787 106.378 74.5837Z" fill="var(--sapContent_Illustrative_Color29)"/>
<path d="M99.1134 71.8646C99.0295 71.8103 98.9457 71.7462 98.8667 71.6919C98.9506 71.7511 99.0345 71.8103 99.1134 71.8646Z" fill="var(--sapContent_Illustrative_Color29)"/>
<path d="M97.939 71.0107C97.8452 70.9367 97.7515 70.8626 97.6577 70.7837C97.7515 70.8577 97.8452 70.9367 97.939 71.0107Z" fill="var(--sapContent_Illustrative_Color29)"/>
<path d="M99.9131 72.3765C99.8341 72.3271 99.7552 72.2827 99.6812 72.2383C99.7601 72.2876 99.8341 72.332 99.9131 72.3765Z" fill="var(--sapContent_Illustrative_Color29)"/>
<path d="M96.7895 70.0367C96.7006 69.9578 96.6069 69.8739 96.5181 69.7949C96.6069 69.8788 96.6957 69.9578 96.7895 70.0367Z" fill="var(--sapContent_Illustrative_Color29)"/>
<path d="M103.861 74.1247C103.787 74.105 103.713 74.0852 103.634 74.0605C103.708 74.0852 103.782 74.105 103.861 74.1247Z" fill="var(--sapContent_Illustrative_Color29)"/>
<path d="M103.076 73.8775C103.022 73.8578 102.973 73.838 102.918 73.8232C102.973 73.843 103.022 73.8627 103.076 73.8775Z" fill="var(--sapContent_Illustrative_Color29)"/>
<path d="M105.139 74.4204C105.055 74.4056 104.972 74.3908 104.888 74.3711C104.972 74.3859 105.055 74.4056 105.139 74.4204Z" fill="var(--sapContent_Illustrative_Color29)"/>
<path d="M101.788 73.3636C101.7 73.3241 101.611 73.2797 101.522 73.2402C101.611 73.2846 101.7 73.3241 101.788 73.3636Z" fill="var(--sapContent_Illustrative_Color29)"/>
<path d="M101.172 73.0727C101.078 73.0283 100.989 72.979 100.896 72.9346C100.984 72.9839 101.078 73.0283 101.172 73.0727Z" fill="var(--sapContent_Illustrative_Color29)"/>
<path d="M109.043 74.459C108.969 74.4738 108.895 74.4837 108.821 74.4935C108.895 74.4837 108.969 74.4689 109.043 74.459Z" fill="var(--sapContent_Illustrative_Color29)"/>
<path d="M113.746 47.1909C114.007 47.5906 114.259 48.0052 114.501 48.4296C114.259 48.0052 114.007 47.5956 113.746 47.1909Z" fill="var(--sapContent_Illustrative_Color29)"/>
<path d="M95.9801 63.8099L105.08 57.2317L111.609 44.3518C112.334 45.1858 113.02 46.0938 113.662 47.0561C110.558 42.3482 106.309 39.1406 102.099 38.0845C102.568 37.3936 102.598 36.915 101.69 36.989C99.3259 37.1864 98.1662 37.4084 96.212 38.1191C95.7185 38.2671 95.23 38.4448 94.7562 38.6718C87.9757 41.9436 86.2584 52.4252 90.9218 62.0827C91.6522 63.5977 92.501 64.9992 93.4337 66.2773C93.3547 66.1688 93.2758 66.0651 93.2017 65.9566L95.9899 63.8099H95.9801Z" fill="var(--sapContent_Illustrative_Color15)"/>
<path d="M95.7729 69.062C95.9111 69.2002 96.0444 69.3384 96.1825 69.4716C96.0444 69.3384 95.9062 69.2002 95.7729 69.062Z" fill="var(--sapContent_Illustrative_Color29)"/>
<path d="M94.4256 67.5702C94.3368 67.4666 94.2529 67.358 94.1641 67.2544C94.248 67.363 94.3368 67.4666 94.4256 67.5702Z" fill="var(--sapContent_Illustrative_Color29)"/>
<path d="M94.9388 68.1727C94.85 68.074 94.7612 67.9703 94.6724 67.8667C94.7612 67.9703 94.85 68.069 94.9388 68.1727Z" fill="var(--sapContent_Illustrative_Color29)"/>
<path d="M108.44 74.543C108.361 74.5528 108.287 74.5578 108.208 74.5676C108.287 74.5627 108.361 74.5528 108.44 74.543Z" fill="var(--sapContent_Illustrative_Color29)"/>
<path d="M107.819 74.5981C107.745 74.5981 107.671 74.608 107.602 74.608C107.676 74.608 107.75 74.6031 107.819 74.5981Z" fill="var(--sapContent_Illustrative_Color29)"/>
<path d="M110.212 74.1831C110.02 74.2423 109.827 74.2917 109.63 74.3361C109.822 74.2917 110.02 74.2374 110.212 74.1831Z" fill="var(--sapContent_Illustrative_Color29)"/>
<path d="M108.209 74.5688C108.08 74.5787 107.947 74.5886 107.819 74.5985C107.947 74.5935 108.08 74.5837 108.209 74.5688Z" fill="var(--sapContent_Illustrative_Color29)"/>
<path d="M106.99 74.6131C106.788 74.6131 106.585 74.5983 106.378 74.5835C106.58 74.5983 106.788 74.6082 106.99 74.6131Z" fill="var(--sapContent_Illustrative_Color29)"/>
<path d="M106.21 74.5669C106.062 74.5521 105.909 74.5373 105.761 74.5176C105.914 74.5373 106.062 74.5521 106.21 74.5669Z" fill="var(--sapContent_Illustrative_Color29)"/>
<path d="M104.888 74.371C104.759 74.3463 104.636 74.3167 104.508 74.2871C104.636 74.3167 104.759 74.3414 104.888 74.371Z" fill="var(--sapContent_Illustrative_Color29)"/>
<path d="M107.597 74.6069C107.444 74.6119 107.291 74.6119 107.138 74.6069C107.291 74.6069 107.444 74.6069 107.597 74.6069Z" fill="var(--sapContent_Illustrative_Color29)"/>
<path d="M95.7728 69.0624C95.6691 68.9587 95.5704 68.8551 95.4668 68.7515C95.5655 68.86 95.6691 68.9587 95.7728 69.0624Z" fill="var(--sapContent_Illustrative_Color29)"/>
<path d="M95.2054 68.4577C95.1166 68.3639 95.0277 68.2652 94.9438 68.1665C95.0327 68.2652 95.1166 68.359 95.2054 68.4577Z" fill="var(--sapContent_Illustrative_Color29)"/>
<path d="M94.1642 67.2494C94.0803 67.1457 94.0013 67.0421 93.9224 66.9385C94.0013 67.0421 94.0852 67.1457 94.1642 67.2494Z" fill="var(--sapContent_Illustrative_Color29)"/>
<path d="M93.6706 66.6139C93.5867 66.5053 93.5028 66.3918 93.4238 66.2783C93.5077 66.3918 93.5867 66.5053 93.6706 66.6139Z" fill="var(--sapContent_Illustrative_Color29)"/>
<path d="M97.0856 70.2996C96.9869 70.2157 96.8882 70.1269 96.7944 70.0381C96.8931 70.1269 96.9869 70.2157 97.0856 70.2996Z" fill="var(--sapContent_Illustrative_Color29)"/>
<path d="M101.522 73.2415C101.403 73.1872 101.29 73.128 101.171 73.0737C101.29 73.1329 101.403 73.1872 101.522 73.2415Z" fill="var(--sapContent_Illustrative_Color29)"/>
<path d="M103.634 74.0605C103.446 74.0062 103.264 73.9421 103.076 73.8779C103.264 73.9421 103.446 74.0013 103.634 74.0605Z" fill="var(--sapContent_Illustrative_Color29)"/>
<path d="M100.9 72.9302C100.787 72.871 100.668 72.8068 100.555 72.7427C100.668 72.8068 100.782 72.866 100.9 72.9302Z" fill="var(--sapContent_Illustrative_Color29)"/>
<path d="M102.164 73.5271C102.04 73.4728 101.912 73.4235 101.789 73.3643C101.912 73.4185 102.04 73.4728 102.164 73.5271Z" fill="var(--sapContent_Illustrative_Color29)"/>
<path d="M98.2454 71.2418C98.1418 71.1628 98.0382 71.0838 97.9395 71.0049C98.0431 71.0838 98.1418 71.1628 98.2454 71.2418Z" fill="var(--sapContent_Illustrative_Color29)"/>
<path d="M97.6579 70.7823C97.5592 70.7034 97.4605 70.6195 97.3618 70.5405C97.4605 70.6244 97.5592 70.7034 97.6579 70.7823Z" fill="var(--sapContent_Illustrative_Color29)"/>
<path d="M99.6813 72.2339C99.4888 72.1154 99.3013 71.9921 99.1138 71.8638C99.3013 71.9921 99.4938 72.1154 99.6813 72.2339Z" fill="var(--sapContent_Illustrative_Color29)"/>
<path d="M100.289 72.5995C100.165 72.5304 100.042 72.4515 99.9185 72.3774C100.042 72.4515 100.165 72.5255 100.289 72.5995Z" fill="var(--sapContent_Illustrative_Color29)"/>
<path d="M94.9031 62.0166C96.6844 65.2778 99.0944 67.772 100.053 68.587L97.7896 70.8688C94.9217 68.7186 92.7303 65.5393 91.7856 63.7287L94.9031 62.0166Z" fill="var(--sapContent_Illustrative_Color16)"/>
<path d="M114.834 72.0117C121.613 68.739 123.425 58.4555 118.881 49.0429C114.337 39.6304 105.158 34.653 98.3785 37.9258C91.5995 41.1985 89.7878 51.482 94.3319 60.8945C98.876 70.3071 108.055 75.2845 114.834 72.0117Z" fill="var(--sapContent_Illustrative_Color28)"/>
<path d="M98.3835 37.9309C91.603 41.2027 89.7919 51.4869 94.3369 60.8977C94.5069 61.2498 94.6856 61.611 94.905 62.0214C94.905 62.0214 87.6107 34.8219 111.806 40.2354C107.498 36.9982 102.499 35.9421 98.3884 37.9259L98.3835 37.9309Z" fill="var(--sapContent_Illustrative_Color3)"/>
<path d="M114.836 72.0161C121.617 68.7443 123.428 58.4601 118.883 49.0493C118.754 68.6703 100.5 68.9516 100.471 68.9614C104.981 72.781 110.414 74.1529 114.831 72.0211L114.836 72.0161Z" fill="var(--sapContent_Illustrative_Color16)"/>
</svg>