<svg width="320" height="200" viewBox="0 0 320 200" fill="none" xmlns="http://www.w3.org/2000/svg" id="sapIllus-Scene-EmptyList">
<path d="M305.547 6.15619e-06H14.4533C12.5559 -0.00174584 10.6768 0.37047 8.92329 1.09536C7.16981 1.82026 5.57638 2.88362 4.23409 4.22468C2.8918 5.56573 1.82697 7.15817 1.10045 8.91098C0.373942 10.6638 -8.08861e-07 12.5426 0 14.44V185.547C0 189.38 1.52275 193.056 4.23328 195.767C6.9438 198.477 10.6201 200 14.4533 200H305.547C309.38 200 313.056 198.477 315.767 195.767C318.477 193.056 320 189.38 320 185.547V14.44C320 12.5426 319.626 10.6638 318.9 8.91098C318.173 7.15817 317.108 5.56573 315.766 4.22468C314.424 2.88362 312.83 1.82026 311.077 1.09536C309.323 0.37047 307.444 -0.00174584 305.547 6.15619e-06V6.15619e-06Z" fill="var(--sapContent_Illustrative_Color7)"/>
<mask id="mask0_396_6618" class="sapIllus_MaskTypeAlpha" maskUnits="userSpaceOnUse" x="0" y="0" width="320" height="200">
<path d="M305.547 6.15619e-06H14.4533C12.5559 -0.00174584 10.6768 0.37047 8.92329 1.09536C7.16981 1.82026 5.57638 2.88362 4.23409 4.22468C2.8918 5.56573 1.82697 7.15817 1.10045 8.91098C0.373942 10.6638 -8.08861e-07 12.5426 0 14.44V185.547C0 189.38 1.52275 193.056 4.23328 195.767C6.9438 198.477 10.6201 200 14.4533 200H305.547C309.38 200 313.056 198.477 315.767 195.767C318.477 193.056 320 189.38 320 185.547V14.44C320 12.5426 319.626 10.6638 318.9 8.91098C318.173 7.15817 317.108 5.56573 315.766 4.22468C314.424 2.88362 312.83 1.82026 311.077 1.09536C309.323 0.37047 307.444 -0.00174584 305.547 6.15619e-06V6.15619e-06Z" fill="var(--sapContent_Illustrative_Color7)"/>
</mask>
<g mask="url(#mask0_396_6618)">
<path d="M263.953 26.6667H85.7718C75.9567 26.6667 68 34.6234 68 44.4385V386.228C68 396.043 75.9567 404 85.7718 404H263.953C273.768 404 281.725 396.043 281.725 386.228V44.4385C281.725 34.6234 273.768 26.6667 263.953 26.6667Z" fill="var(--sapContent_Illustrative_Color19)"/>
<path d="M286.1 26.6667H107.919C98.1035 26.6667 90.1469 34.6234 90.1469 44.4385V386.228C90.1469 396.043 98.1035 404 107.919 404H286.1C295.915 404 303.872 396.043 303.872 386.228V44.4385C303.872 34.6234 295.915 26.6667 286.1 26.6667Z" fill="var(--sapContent_Illustrative_Color18)"/>
<path d="M118.557 106.289H115.945C112.124 106.289 109.027 109.387 109.027 113.208V368.988C109.027 372.809 112.124 375.907 115.945 375.907H118.557C122.378 375.907 125.476 372.809 125.476 368.988V113.208C125.476 109.387 122.378 106.289 118.557 106.289Z" fill="var(--sapContent_Illustrative_Color7)"/>
<path d="M303.872 146.264H90.1469V151.917H303.872V146.264Z" fill="var(--sapContent_Illustrative_Color19)"/>
<path d="M287.23 106.289H249.086C246.289 106.289 244.022 108.557 244.022 111.354V111.365C244.022 114.163 246.289 116.43 249.086 116.43H287.23C290.027 116.43 292.295 114.163 292.295 111.365V111.354C292.295 108.557 290.027 106.289 287.23 106.289Z" fill="var(--sapContent_Illustrative_Color19)"/>
<path d="M125.476 60.2319C125.476 55.6865 121.793 52.0017 117.251 52.0017C112.709 52.0017 109.027 55.6865 109.027 60.2319V78.7498C109.027 83.2952 112.709 86.98 117.251 86.98C121.793 86.98 125.476 83.2952 125.476 78.7498V60.2319Z" fill="var(--sapContent_Illustrative_Color7)"/>
<path d="M220.575 153.409V83.5429C220.593 82.2479 220.102 80.9974 219.208 80.0607C218.314 79.124 217.087 78.576 215.793 78.5347H171.499C170.102 78.5347 168.719 78.8098 167.428 79.3445C166.137 79.8791 164.965 80.6627 163.977 81.6505C162.989 82.6384 162.205 83.8111 161.671 85.1018C161.136 86.3925 160.861 87.7758 160.861 89.1729V154.607C160.864 157.428 161.986 160.132 163.98 162.126C165.974 164.121 168.679 165.243 171.499 165.245H231.021V165.166C228.142 164.826 225.488 163.441 223.563 161.273C221.637 159.106 220.574 156.308 220.575 153.409V153.409Z" fill="var(--sapContent_Illustrative_Color6)"/>
<path d="M220.575 150.017V80.1513C220.593 78.8563 220.102 77.6058 219.208 76.6691C218.314 75.7324 217.087 75.1844 215.793 75.1431H171.499C170.102 75.1431 168.719 75.4182 167.428 75.9528C166.137 76.4875 164.965 77.2711 163.977 78.2589C162.989 79.2468 162.205 80.4195 161.671 81.7102C161.136 83.0009 160.861 84.3842 160.861 85.7813V151.216C160.864 154.036 161.986 156.74 163.98 158.735C165.974 160.729 168.679 161.851 171.499 161.854H231.021V161.775C228.142 161.434 225.488 160.049 223.563 157.882C221.637 155.715 220.574 152.916 220.575 150.017V150.017Z" fill="var(--sapContent_Illustrative_Color8)"/>
<path d="M190.718 93.9888H171.962C170.67 93.9888 169.622 95.0365 169.622 96.3289V96.3403C169.622 97.6327 170.67 98.6804 171.962 98.6804H190.718C192.01 98.6804 193.058 97.6327 193.058 96.3403V96.3289C193.058 95.0365 192.01 93.9888 190.718 93.9888Z" fill="var(--sapContent_Illustrative_Color3)"/>
<path d="M193.239 69.4905H190.741C190.004 69.4905 189.406 70.0877 189.406 70.8245V76.7258C189.406 77.4625 190.004 78.0598 190.741 78.0598H193.239C193.976 78.0598 194.573 77.4625 194.573 76.7258V70.8245C194.573 70.0877 193.976 69.4905 193.239 69.4905Z" fill="var(--sapContent_Illustrative_Color6)"/>
<path d="M157.346 52.5351C157.157 52.7072 157.018 52.927 156.943 53.1714C156.869 53.4158 156.861 53.6758 156.922 53.924L158.214 59.8649C158.428 60.8476 159.355 61.1999 160.126 61.0326C160.444 60.9757 160.735 60.8171 160.955 60.5808C161.175 60.3445 161.312 60.0433 161.346 59.7223C161.358 59.5667 161.346 59.4102 161.311 59.2582L160.019 53.3173C159.968 53.0554 159.846 52.8124 159.668 52.6138C159.49 52.4152 159.261 52.2684 159.006 52.1891C158.723 52.1007 158.422 52.0861 158.131 52.1466C157.841 52.2072 157.57 52.3409 157.346 52.5351V52.5351Z" fill="var(--sapContent_Illustrative_Color5)"/>
<path d="M134.393 76.3086C134.341 76.484 134.327 76.6683 134.351 76.8496C134.375 77.031 134.436 77.2053 134.531 77.3616C134.626 77.518 134.752 77.6527 134.902 77.7574C135.053 77.8621 135.223 77.9344 135.402 77.9696L141.16 79.3756C141.367 79.4254 141.582 79.4335 141.792 79.3994C142.003 79.3653 142.204 79.2896 142.385 79.1769C142.566 79.0641 142.722 78.9165 142.845 78.7426C142.968 78.5688 143.056 78.3722 143.102 78.1643C143.123 78.0791 143.138 77.9923 143.145 77.9047C143.176 77.5817 143.085 77.2586 142.89 76.9992C142.695 76.7398 142.409 76.5629 142.09 76.5033L136.335 75.0994C136.128 75.0492 135.913 75.0408 135.703 75.0746C135.492 75.1085 135.291 75.1839 135.11 75.2965C134.929 75.4091 134.772 75.5566 134.649 75.7304C134.526 75.9041 134.439 76.1007 134.393 76.3086V76.3086Z" fill="var(--sapContent_Illustrative_Color5)"/>
<path d="M141.465 61.2723C141.46 61.472 141.497 61.6705 141.572 61.8557C141.647 62.0409 141.759 62.2089 141.901 62.3493L148.215 68.7142C148.5 68.9981 148.883 69.161 149.285 69.1688C149.688 69.1766 150.077 69.0287 150.373 68.7562C150.646 68.5022 150.814 68.1549 150.843 67.7833C150.859 67.569 150.829 67.3537 150.755 67.1521C150.68 66.9505 150.563 66.7673 150.411 66.615L144.097 60.2501C143.811 59.9645 143.425 59.8008 143.021 59.7934C142.616 59.7861 142.225 59.9357 141.928 60.2108C141.784 60.3474 141.668 60.5118 141.588 60.6942C141.508 60.8766 141.466 61.0732 141.465 61.2723V61.2723Z" fill="var(--sapContent_Illustrative_Color5)"/>
</g>
<path d="M47.8347 109.333L10.2025 108.993C9.96955 108.986 9.74849 108.889 9.58622 108.721C9.42396 108.554 9.33327 108.33 9.33337 108.097V54.4823C9.33337 54.2447 9.42776 54.0169 9.59579 53.8488C9.76383 53.6808 9.99174 53.5864 10.2294 53.5864L47.8616 54.9751C48.0898 54.9888 48.3041 55.0892 48.4606 55.2557C48.6172 55.4223 48.7042 55.6424 48.7038 55.871V108.455C48.6993 108.685 48.6066 108.905 48.4448 109.068C48.283 109.232 48.0646 109.327 47.8347 109.333V109.333Z" fill="var(--sapContent_Illustrative_Color19)"/>
<path d="M50.3212 106.789L12.6889 106.453C12.46 106.453 12.2403 106.363 12.0775 106.202C11.9148 106.041 11.8222 105.822 11.8198 105.593V52.8606C11.8203 52.7448 11.8442 52.6302 11.8898 52.5238C11.9355 52.4173 12.0021 52.3211 12.0857 52.2409C12.1692 52.1606 12.2681 52.098 12.3764 52.0568C12.4846 52.0155 12.6 51.9964 12.7158 52.0006L50.348 53.3444C50.5723 53.3513 50.7852 53.4447 50.9422 53.605C51.0992 53.7653 51.1881 53.9801 51.1903 54.2045V105.947C51.1844 106.173 51.0901 106.388 50.9276 106.545C50.7652 106.703 50.5474 106.79 50.3212 106.789V106.789Z" fill="var(--sapContent_Illustrative_Color18)" stroke="#D1EFFF" stroke-width="0.927523" stroke-miterlimit="10"/>
<path d="M46.2891 101.019L17.5273 100.746C17.3467 100.739 17.176 100.661 17.052 100.53C16.928 100.398 16.8606 100.224 16.8643 100.043V56.9862C16.8625 56.8943 16.8792 56.803 16.9134 56.7177C16.9476 56.6324 16.9986 56.5548 17.0633 56.4897C17.1281 56.4245 17.2054 56.373 17.2905 56.3382C17.3756 56.3035 17.4668 56.2862 17.5587 56.2874L46.3204 57.4028C46.4983 57.4132 46.6651 57.4925 46.7855 57.6237C46.9059 57.755 46.9705 57.928 46.9656 58.1061V100.298C46.9704 100.39 46.9565 100.483 46.9248 100.569C46.8931 100.656 46.8442 100.736 46.781 100.803C46.7178 100.87 46.6417 100.924 46.5571 100.961C46.4726 100.999 46.3814 101.018 46.2891 101.019V101.019Z" fill="var(--sapContent_Illustrative_Color7)"/>
<path d="M16.8016 57.2728L46.0517 58.3479L46.2622 101.055L47.1045 100.97L47.0194 57.125L16.8375 56.2874L16.8016 57.2728Z" fill="var(--sapContent_Illustrative_Color19)"/>
<path opacity="0.5" d="M42.1226 77.2783L42.0912 77.238C40.6621 74.8325 37.7591 73.1841 34.408 73.1841C31.1869 73.1841 28.3824 74.7026 26.8995 76.9558V74.0217C26.8995 73.9742 26.8806 73.9286 26.847 73.895C26.8134 73.8614 26.7678 73.8426 26.7203 73.8426L24.776 75.2401H24.664C24.3252 75.0925 23.9582 75.0206 23.5888 75.0296C23.2492 75.0245 22.9117 75.0838 22.5942 75.2043H22.5449L20.3766 73.8605C20.353 73.8605 20.3297 73.8651 20.308 73.8741C20.2863 73.8831 20.2665 73.8963 20.2499 73.913C20.2332 73.9296 20.22 73.9494 20.211 73.9711C20.202 73.9928 20.1974 74.0161 20.1974 74.0397V77.7263C20.1974 78.7147 20.5901 79.6627 21.2891 80.3616C21.9881 81.0606 22.9362 81.4532 23.9248 81.4532H41.5581C41.5805 81.6816 41.594 81.9012 41.594 82.1699C41.5983 83.2312 41.3405 84.2771 40.8434 85.2148C40.3464 86.1526 39.6254 86.9531 38.7447 87.5453L38.673 87.5945C38.5617 87.6692 38.4666 87.7656 38.3935 87.8779C38.3204 87.9902 38.2708 88.1162 38.2476 88.2481C38.2244 88.3801 38.2281 88.5154 38.2585 88.646C38.2889 88.7765 38.3454 88.8995 38.4245 89.0076C38.5037 89.1158 38.6039 89.2068 38.7191 89.2752C38.8343 89.3437 38.9622 89.3882 39.095 89.406C39.2279 89.4238 39.3629 89.4145 39.4921 89.3788C39.6213 89.3431 39.7419 89.2817 39.8467 89.1982L39.9005 89.1624C41.0376 88.3821 41.967 87.3361 42.608 86.1152C43.2489 84.8943 43.5821 83.5354 43.5786 82.1565C43.5684 80.4249 43.0632 78.7323 42.1226 77.2783ZM25.7884 78.4699L26.8726 75.7822L26.895 76.9961L25.7884 78.4699Z" fill="var(--sapContent_Illustrative_Color19)"/>
<path opacity="0.5" d="M25.7886 78.4607L26.8951 76.969L26.8772 75.7551L25.7886 78.4607Z" fill="var(--sapContent_Illustrative_Color19)"/>
</svg>
