<svg width="161" height="155" viewBox="0 0 161 155" fill="none" xmlns="http://www.w3.org/2000/svg" id="sapIllus-Dialog-SearchFolder">
<path d="M142.952 117.71L116.514 108.674C115.779 108.422 115.127 107.973 114.63 107.375L110.786 108.266L84.0272 114.496L51.163 122.289C50.3337 122.487 49.4696 122.489 48.6397 122.294C47.8097 122.099 47.0371 121.713 46.3834 121.166C45.0835 120.311 44.1366 119.016 43.7167 117.52L27.3604 59.1298C27.2723 58.8149 27.2487 58.4855 27.2912 58.1613C27.3336 57.8371 27.4413 57.5248 27.6076 57.2431C27.774 56.9614 27.9956 56.7162 28.2592 56.522C28.5228 56.3278 28.823 56.1888 29.1418 56.1132L80.8562 43.853L84.3165 38.7806C84.706 38.2078 85.2961 37.801 85.9708 37.6402L126.377 28.0621C126.926 27.9324 127.497 27.9229 128.05 28.034C128.603 28.1452 129.126 28.3745 129.582 28.7062C130.038 29.038 130.416 29.4642 130.692 29.9558C130.967 30.4473 131.133 30.9926 131.177 31.5541L132.521 48.9042L138.761 30.7268C131.572 21.2492 122.278 13.5645 111.61 8.2765C100.942 2.98846 89.1909 0.241115 77.2794 0.250512C63.0754 0.246824 49.1461 4.15577 37.0258 11.5467C24.9056 18.9376 15.0649 29.5237 8.58791 42.1387L13.1276 55.3634C13.4872 55.4425 13.8005 55.6608 13.9989 55.9704C14.1973 56.2799 14.2645 56.6553 14.1858 57.0142C14.146 57.2498 14.0491 57.4722 13.9036 57.662L25.431 91.1936C25.6992 91.9703 25.7346 92.8083 25.5329 93.6048C25.3311 94.4013 24.901 95.1218 24.2952 95.6781C24.5519 96.7048 24.4132 97.7903 23.9063 98.7199C23.3994 99.6494 22.5613 100.355 21.558 100.698L5.74487 106.101C16.0306 131.47 39.4628 150.122 67.618 153.621H86.9726C98.3974 152.183 109.355 148.212 119.041 141.998C128.728 135.784 136.898 127.485 142.952 117.71ZM20.7608 48.0136C20.5427 48.2663 20.2386 48.4292 19.9072 48.4712C19.7158 48.492 19.5221 48.4713 19.3395 48.4106C19.1569 48.3498 18.9895 48.2504 18.849 48.1192L12.8983 42.7195C12.635 42.4734 12.4762 42.1358 12.4545 41.7764C12.4329 41.4169 12.55 41.0629 12.7819 40.787C12.8987 40.6523 13.0412 40.5421 13.201 40.463C13.3609 40.3838 13.535 40.3372 13.7131 40.3259C13.8925 40.3156 14.072 40.3415 14.2411 40.402C14.4102 40.4624 14.5653 40.5563 14.6973 40.6779L20.6444 46.0776C20.9057 46.3235 21.0633 46.6595 21.0849 47.0173C21.1065 47.375 20.9906 47.7276 20.7608 48.0031V48.0136ZM26.916 33.4407C27.0717 33.3883 27.2366 33.3687 27.4003 33.3832C27.5641 33.3978 27.7229 33.4462 27.8669 33.5253C28.0109 33.6044 28.1368 33.7126 28.2366 33.8428C28.3364 33.9731 28.4081 34.1227 28.4469 34.2821L29.9248 39.372C29.9777 39.555 29.9935 39.7468 29.9713 39.936C29.949 40.1252 29.8892 40.3081 29.7952 40.474C29.7013 40.6398 29.5751 40.7853 29.4242 40.9019C29.2732 41.0186 29.1004 41.104 28.916 41.1531C28.84 41.1763 28.7621 41.1927 28.6832 41.2024C28.3951 41.2407 28.1031 41.1708 27.8639 41.0062C27.6246 40.8416 27.4553 40.5941 27.3887 40.3118L25.9072 35.2219C25.8531 35.0381 25.8365 34.8455 25.8582 34.6552C25.8799 34.4649 25.9395 34.2809 26.0335 34.114C26.1275 33.947 26.2539 33.8006 26.4055 33.6832C26.5571 33.5657 26.7306 33.4797 26.916 33.4302V33.4407Z" fill="var(--sapContent_Illustrative_Color7)"/>
<path d="M134.133 69.4715C134.428 69.0901 134.836 68.8103 135.298 68.6714C135.761 68.5325 136.255 68.5416 136.712 68.6971L154.412 74.748C154.37 73.5195 154.306 72.2839 154.207 71.0906L138.349 65.6734C137.768 65.4734 137.291 65.0522 137.022 64.5021C136.752 63.9519 136.712 63.3175 136.909 62.7377C137.109 62.159 137.53 61.683 138.081 61.4138C138.632 61.1446 139.267 61.1043 139.848 61.3016L153.625 66.0113C151.744 53.1842 146.631 41.0435 138.765 30.7267L132.525 48.9041L134.133 69.4715Z" fill="var(--sapContent_Illustrative_Color18)"/>
<path d="M151.636 86.9695L135.058 81.2987L136.532 100.275C136.576 100.835 136.417 101.391 136.084 101.843C135.751 102.296 135.267 102.613 134.719 102.739L114.631 107.386C115.127 107.983 115.779 108.432 116.514 108.684L142.952 117.72C148.831 108.242 152.563 97.595 153.887 86.526C153.582 86.7887 153.215 86.9678 152.82 87.0456C152.426 87.1234 152.017 87.0971 151.636 86.9695Z" fill="var(--sapContent_Illustrative_Color18)"/>
<path d="M134.37 72.5586L134.659 76.2687L153.139 82.5836C153.565 82.7303 153.939 82.9982 154.215 83.3544C154.31 82.1189 154.377 80.8904 154.416 79.6302L135.213 73.0655C134.898 72.9593 134.611 72.7864 134.37 72.5586Z" fill="var(--sapContent_Illustrative_Color18)"/>
<path d="M136.937 62.7377C136.74 63.3175 136.78 63.9519 137.05 64.5021C137.319 65.0523 137.797 65.4734 138.377 65.6734L154.221 71.0907C154.087 69.38 153.893 67.6869 153.65 66.0114L139.872 61.3016C139.292 61.1054 138.658 61.1463 138.108 61.4154C137.558 61.6845 137.137 62.1599 136.937 62.7377Z" fill="var(--sapContent_Illustrative_Color7)"/>
<path d="M134.133 69.4715L134.37 72.5586C134.611 72.7863 134.898 72.9593 135.213 73.0654L154.416 79.6302C154.441 78.8417 154.454 78.0485 154.454 77.2507C154.454 76.4129 154.454 75.5787 154.412 74.748L136.712 68.6971C136.255 68.5416 135.76 68.5326 135.298 68.6714C134.836 68.8103 134.428 69.0901 134.133 69.4715Z" fill="var(--sapContent_Illustrative_Color7)"/>
<path d="M153.139 82.5836L134.659 76.2687L135.047 81.2847L151.625 86.9554C152.008 87.0855 152.418 87.1134 152.815 87.0362C153.211 86.959 153.581 86.7794 153.886 86.5154C154.013 85.4594 154.119 84.4034 154.204 83.3474C153.93 82.9954 153.56 82.7301 153.139 82.5836Z" fill="var(--sapContent_Illustrative_Color7)"/>
<path d="M89.1915 113.278L84.0416 114.496L110.786 108.266L102.165 110.265L89.1915 113.278Z" fill="var(--sapContent_Illustrative_Color2)"/>
<path d="M44.4047 117.178L44.1895 112.25L33.7239 71.5941C33.6819 71.4338 33.6725 71.2668 33.6963 71.1029C33.7201 70.9389 33.7766 70.7814 33.8624 70.6397C33.9482 70.4979 34.0617 70.3748 34.196 70.2775C34.3303 70.1802 34.4829 70.1108 34.6446 70.0734L36.5775 69.6123L35.2548 64.4731C35.2138 64.3131 35.2052 64.1465 35.2295 63.9832C35.2537 63.8198 35.3104 63.6629 35.3961 63.5217C35.4818 63.3804 35.5949 63.2577 35.7287 63.1606C35.8625 63.0634 36.0144 62.9938 36.1754 62.956L38.962 62.2941L37.7063 56.5566C37.682 56.3801 37.693 56.2005 37.7387 56.0283C37.7844 55.8561 37.8638 55.6947 37.9723 55.5533C38.0809 55.4119 38.2165 55.2933 38.3712 55.2045C38.5259 55.1157 38.6968 55.0585 38.8738 55.0359L78.5494 47.2672L80.8704 43.8634L29.156 56.1236C28.8373 56.1992 28.5371 56.3383 28.2734 56.5324C28.0098 56.7266 27.7882 56.9719 27.6219 57.2535C27.4556 57.5352 27.3479 57.8475 27.3055 58.1717C27.263 58.4959 27.2865 58.8253 27.3747 59.1402L43.731 117.53C44.1508 119.027 45.0977 120.321 46.3977 121.177C45.8009 120.689 45.3148 120.08 44.9712 119.391C44.6277 118.702 44.4346 117.948 44.4047 117.178Z" fill="var(--sapContent_Illustrative_Color20)"/>
<path d="M34.6445 70.0734C34.4832 70.1109 34.3311 70.1802 34.197 70.2772C34.0629 70.3742 33.9497 70.497 33.8639 70.6384C33.7781 70.7798 33.7215 70.9369 33.6975 71.1004C33.6734 71.2639 33.6824 71.4306 33.7239 71.5906L44.1895 112.247L43.5123 96.5369L36.5775 69.6123L34.6445 70.0734Z" fill="var(--sapContent_Illustrative_Color8)"/>
<path d="M36.1754 62.9455C36.0143 62.9834 35.8624 63.053 35.7286 63.1502C35.5948 63.2473 35.4817 63.37 35.396 63.5113C35.3103 63.6525 35.2537 63.8094 35.2294 63.9727C35.2051 64.1361 35.2137 64.3027 35.2547 64.4627L36.5775 69.6018L43.5123 96.5264L42.7856 79.7677L38.962 62.2838L36.1754 62.9455Z" fill="var(--sapContent_Illustrative_Color18)"/>
<path d="M37.7062 56.5461L38.9619 62.2837L42.7856 79.7676L42.1542 65.1947C42.1002 63.8903 42.502 62.6078 43.2908 61.5664C44.0796 60.525 45.2065 59.7893 46.4787 59.4852L73.738 53.0225C74.4134 52.8631 75.0047 52.4576 75.3959 51.8856L78.5493 47.2567L38.8773 55.0254C38.6999 55.0475 38.5287 55.1045 38.3735 55.1932C38.2184 55.2818 38.0824 55.4002 37.9735 55.5416C37.8646 55.6831 37.7849 55.8447 37.739 56.0171C37.6931 56.1895 37.682 56.3693 37.7062 56.5461Z" fill="var(--sapContent_Illustrative_Color8)"/>
<path d="M136.521 100.261L135.047 81.2848L134.659 76.2687L134.37 72.5586L134.133 69.4716L132.535 48.9042L131.191 31.554C131.147 30.9926 130.981 30.4473 130.706 29.9557C130.431 29.4642 130.052 29.0379 129.596 28.7062C129.14 28.3745 128.617 28.1452 128.064 28.034C127.511 27.9228 126.94 27.9324 126.391 28.0621L85.985 37.6401C85.3103 37.8009 84.7202 38.2077 84.3307 38.7806L80.8703 43.8529L78.5493 47.2567L75.3959 51.8856C75.0047 52.4576 74.4134 52.8631 73.7381 53.0226L46.4787 59.4853C45.2065 59.7893 44.0797 60.525 43.2909 61.5664C42.502 62.6079 42.1003 63.8904 42.1542 65.1947L42.7856 79.7676L43.5123 96.5264L44.1895 112.236L44.4047 117.164C44.436 117.932 44.6298 118.684 44.9733 119.371C45.3168 120.059 45.8022 120.666 46.3976 121.152C47.0513 121.699 47.824 122.085 48.6539 122.28C49.4838 122.475 50.3479 122.473 51.1772 122.275L84.0273 114.496L89.1772 113.278L102.151 110.265L110.772 108.266L114.616 107.375L134.694 102.725C135.245 102.602 135.732 102.286 136.068 101.833C136.404 101.381 136.565 100.822 136.521 100.261Z" fill="var(--sapContent_Illustrative_Color20)"/>
<path d="M24.2953 95.6604C23.8627 96.0636 23.3494 96.3707 22.7892 96.5615L4.4928 102.81C4.88786 103.922 5.30527 105.022 5.74501 106.111L21.5581 100.698C22.5653 100.355 23.4062 99.6464 23.9135 98.713C24.4207 97.7795 24.5571 96.6896 24.2953 95.6604Z" fill="var(--sapContent_Illustrative_Color20)"/>
<path d="M24.2953 95.6604C24.9012 95.1041 25.3313 94.3836 25.533 93.5871C25.7347 92.7906 25.6993 91.9527 25.4311 91.1759L13.9284 57.6619C13.8294 57.7974 13.7034 57.911 13.5583 57.9958C13.4133 58.0806 13.2523 58.1347 13.0854 58.1546C12.9475 58.1755 12.8071 58.1755 12.6692 58.1546L7.29351 57.2254C7.05545 57.1906 6.8313 57.092 6.64494 56.9402C6.45859 56.7883 6.31701 56.5888 6.23531 56.363C6.14557 56.1127 6.12115 55.8437 6.16435 55.5813C6.20754 55.319 6.31694 55.072 6.48223 54.8635C6.62926 54.6884 6.82088 54.5561 7.03689 54.4805C7.25291 54.405 7.48535 54.3889 7.70975 54.4341L13.0854 55.3633C13.1006 55.3613 13.1161 55.3613 13.1313 55.3633L8.5951 42.1456C3.01432 53.0084 0.112046 65.0435 0.129473 77.2507C0.124101 85.9553 1.5995 94.5978 4.4928 102.81L22.7892 96.558C23.3491 96.3682 23.8624 96.0623 24.2953 95.6604Z" fill="var(--sapContent_Illustrative_Color18)"/>
<path d="M7.71668 54.4235C7.49228 54.3784 7.25985 54.3944 7.04383 54.47C6.82781 54.5456 6.6362 54.6778 6.48916 54.8529C6.32387 55.0614 6.21448 55.3084 6.17128 55.5708C6.12809 55.8331 6.15251 56.1021 6.24225 56.3524C6.32396 56.5783 6.46553 56.7777 6.65188 56.9296C6.83823 57.0815 7.06239 57.1801 7.30046 57.2148L12.6761 58.1442C12.8141 58.1651 12.9544 58.1651 13.0923 58.1442C13.2592 58.1242 13.4202 58.0701 13.5653 57.9853C13.7103 57.9005 13.8363 57.7868 13.9354 57.6513C14.0809 57.4616 14.1777 57.2393 14.2176 57.0037C14.2963 56.6448 14.2291 56.2692 14.0307 55.9597C13.8323 55.6502 13.5189 55.4319 13.1594 55.3527C13.1441 55.3507 13.1287 55.3507 13.1135 55.3527L7.71668 54.4235Z" fill="var(--sapContent_Illustrative_Color5)"/>
<path d="M28.6835 41.2093C28.7623 41.1997 28.8403 41.1832 28.9163 41.1601C29.1007 41.1109 29.2735 41.0255 29.4245 40.9089C29.5754 40.7923 29.7016 40.6468 29.7955 40.4809C29.8894 40.315 29.9493 40.1322 29.9715 39.9429C29.9938 39.7537 29.978 39.562 29.9251 39.3789L28.4471 34.289C28.4083 34.1296 28.3367 33.98 28.2369 33.8498C28.137 33.7195 28.0111 33.6113 27.8672 33.5322C27.7232 33.4531 27.5643 33.4047 27.4006 33.3902C27.2369 33.3756 27.072 33.3952 26.9163 33.4477C26.7321 33.4973 26.5596 33.5829 26.4089 33.6996C26.2582 33.8163 26.1322 33.9619 26.0384 34.1276C25.9445 34.2933 25.8845 34.476 25.8621 34.6651C25.8396 34.8541 25.855 35.0458 25.9074 35.2288L27.3889 40.3187C27.4555 40.601 27.6249 40.8484 27.8642 41.013C28.1034 41.1776 28.3954 41.2476 28.6835 41.2093Z" fill="var(--sapContent_Illustrative_Color5)"/>
<path d="M14.6938 40.6744C14.5619 40.5528 14.4067 40.4589 14.2376 40.3985C14.0686 40.338 13.889 40.3121 13.7097 40.3224C13.5315 40.3337 13.3575 40.3803 13.1976 40.4595C13.0377 40.5386 12.8952 40.6488 12.7785 40.7835C12.5466 41.0594 12.4294 41.4135 12.451 41.7729C12.4727 42.1324 12.6315 42.4699 12.8949 42.716L18.8455 48.1158C18.9861 48.247 19.1534 48.3463 19.3361 48.4071C19.5187 48.4678 19.7123 48.4886 19.9037 48.4678C20.2352 48.4258 20.5393 48.2628 20.7573 48.0101C20.9877 47.734 21.1037 47.3805 21.0814 47.0219C21.0591 46.6632 20.9003 46.3267 20.6374 46.0812L14.6938 40.6744Z" fill="var(--sapContent_Illustrative_Color5)"/>
<path opacity="0.5" d="M118.07 111.11C134.352 107.819 144.825 91.7498 141.463 75.1776C138.101 58.6054 122.19 47.8658 105.907 51.1535C89.6252 54.4412 79.1455 70.5136 82.507 87.0858C85.8686 103.658 101.787 114.398 118.07 111.11Z" fill="var(--sapContent_Illustrative_Color7)"/>
<path opacity="0.7" d="M118.264 52.2939L106.539 51.0266L99.1737 109.547L110.902 110.803L118.264 52.2939Z" fill="var(--sapContent_Illustrative_Color8)"/>
<path opacity="0.7" d="M115.548 111.61L123.227 52.931L119.58 52.5297L111.893 111.215L115.548 111.61Z" fill="var(--sapContent_Illustrative_Color8)"/>
<path d="M132.112 104.879L124.705 109.765L132.447 121.466L139.855 116.587L132.112 104.879Z" fill="var(--sapContent_Illustrative_Color6)"/>
<path d="M132.158 120.631C131.88 120.82 131.687 121.11 131.621 121.439C131.555 121.769 131.621 122.11 131.805 122.391L150.088 149.9C150.832 150.999 151.982 151.759 153.287 152.012C153.933 152.138 154.598 152.135 155.243 152.004C155.888 151.873 156.501 151.616 157.047 151.249L157.922 150.668C159.022 149.924 159.782 148.776 160.038 147.475C160.29 146.174 160.016 144.827 159.276 143.726L141.001 116.27C140.907 116.13 140.787 116.009 140.646 115.916C140.505 115.822 140.348 115.757 140.182 115.724C140.016 115.692 139.845 115.692 139.68 115.725C139.514 115.758 139.356 115.824 139.216 115.918L132.158 120.631Z" fill="var(--sapContent_Illustrative_Color3)"/>
<path d="M124.239 109.146L125.491 110.987C125.491 110.987 130.077 111.997 133.71 107.199L131.714 104.26L128.38 106.812L124.239 109.146Z" fill="var(--sapContent_Illustrative_Color4)"/>
<path d="M118.479 112.106C111.314 113.556 103.867 112.483 97.4065 109.068C90.9451 105.652 85.8704 100.107 83.0467 93.3761C80.2235 86.6458 79.8271 79.1467 81.925 72.1574C84.021 65.1673 88.4814 59.119 94.5458 55.0432C100.61 50.967 107.902 49.1158 115.181 49.8053C122.461 50.4883 129.277 53.6707 134.468 58.8096C139.656 63.9498 142.897 70.7257 143.639 77.9831C144.38 85.2416 142.578 92.5321 138.539 98.6139C136.249 102.066 133.299 105.034 129.858 107.347C126.416 109.665 122.549 111.282 118.479 112.106ZM106.461 52.8572C99.8777 54.1743 93.9561 57.7298 89.7063 62.9174C85.4549 68.1041 83.1374 74.6015 83.149 81.3024C83.1628 88.0045 85.5051 94.4946 89.7768 99.6664C94.0463 104.838 99.9817 108.371 106.571 109.663C113.161 110.955 119.996 109.927 125.911 106.752C131.825 103.575 136.452 98.4497 139.004 92.2497C141.559 86.0523 141.879 79.1626 139.911 72.7559C137.942 66.3494 133.809 60.8223 128.214 57.1164C121.815 52.877 113.991 51.3452 106.461 52.8572Z" fill="var(--sapContent_Illustrative_Color4)"/>
</svg>
