<svg width="320" height="200" viewBox="0 0 320 200" fill="none" xmlns="http://www.w3.org/2000/svg" id="sapIllus-Scene-EmptyPlanningCalendar">
<path d="M305.547 6.15619e-06H14.4533C12.5559 -0.00174584 10.6768 0.37047 8.92329 1.09536C7.16981 1.82026 5.57638 2.88362 4.23409 4.22468C2.8918 5.56573 1.82697 7.15816 1.10045 8.91098C0.373942 10.6638 -8.08861e-07 12.5426 0 14.44V185.547C0 189.38 1.52275 193.056 4.23328 195.767C6.9438 198.477 10.6201 200 14.4533 200H305.547C309.38 200 313.056 198.477 315.767 195.767C318.477 193.056 320 189.38 320 185.547V14.44C320 12.5426 319.626 10.6638 318.9 8.91098C318.173 7.15816 317.108 5.56573 315.766 4.22468C314.424 2.88362 312.83 1.82026 311.077 1.09536C309.323 0.37047 307.444 -0.00174584 305.547 6.15619e-06V6.15619e-06Z" fill="var(--sapContent_Illustrative_Color7)"/>
<rect x="29.3334" y="188" width="83.5556" height="12" rx="4" fill="var(--sapContent_Illustrative_Color18)"/>
<rect x="105.778" y="188" width="184.889" height="12" rx="4" fill="var(--sapContent_Illustrative_Color20)"/>
<path d="M238.084 188C235.358 188 232.659 187.47 230.141 186.44C227.623 185.41 225.335 183.9 223.408 181.997C221.481 180.094 219.953 177.835 218.911 175.348C217.868 172.862 217.332 170.197 217.333 167.506L226.322 130.779H251.126L258.869 167.506C258.87 170.2 258.333 172.868 257.288 175.356C256.244 177.845 254.712 180.106 252.781 182.009C250.851 183.913 248.559 185.422 246.037 186.45C243.515 187.478 240.812 188.005 238.084 188V188Z" fill="var(--sapContent_Illustrative_Color19)"/>
<path d="M234.48 153.038H234.318C233.948 152.996 233.609 152.811 233.377 152.523C233.145 152.235 233.038 151.868 233.079 151.502C234.443 139.554 238.871 128.148 245.946 118.361C251.74 110.378 259.175 103.693 267.766 98.7431C268.086 98.5919 268.451 98.5651 268.79 98.6682C269.128 98.7712 269.415 98.9966 269.593 99.2992C269.771 99.6019 269.826 99.9596 269.748 100.301C269.671 100.642 269.466 100.942 269.174 101.141C260.922 105.895 253.78 112.315 248.212 119.98C241.417 129.381 237.163 140.338 235.852 151.815C235.812 152.148 235.65 152.455 235.398 152.68C235.146 152.905 234.82 153.032 234.48 153.038Z" fill="var(--sapContent_Illustrative_Color19)"/>
<path d="M252.763 112.008C253.821 111.523 253.629 108.898 252.334 106.144C251.04 103.39 249.133 101.551 248.075 102.036C247.017 102.521 247.209 105.146 248.504 107.9C249.798 110.653 251.705 112.492 252.763 112.008Z" fill="var(--sapContent_Illustrative_Color19)"/>
<path d="M252.758 121.153C255.787 120.628 258.079 119.283 257.877 118.149C257.675 117.015 255.057 116.521 252.028 117.046C248.999 117.571 246.708 118.916 246.909 120.05C247.111 121.184 249.73 121.678 252.758 121.153Z" fill="var(--sapContent_Illustrative_Color19)"/>
<path d="M240.397 130.157C241.339 129.478 240.634 126.94 238.822 124.487C237.009 122.035 234.777 120.597 233.834 121.275C232.892 121.954 233.597 124.492 235.41 126.945C237.222 129.397 239.455 130.836 240.397 130.157Z" fill="var(--sapContent_Illustrative_Color19)"/>
<path d="M270.12 108.748C270.422 107.636 268.259 106.098 265.288 105.313C262.318 104.527 259.666 104.792 259.364 105.905C259.062 107.017 261.226 108.555 264.196 109.34C267.166 110.125 269.819 109.86 270.12 108.748Z" fill="var(--sapContent_Illustrative_Color19)"/>
<path d="M261.118 101.688C261.263 98.6554 260.437 96.153 259.272 96.0985C258.107 96.0441 257.045 98.4582 256.899 101.491C256.754 104.523 257.581 107.026 258.745 107.08C259.91 107.134 260.973 104.72 261.118 101.688Z" fill="var(--sapContent_Illustrative_Color19)"/>
<path d="M175.888 70.1513L144.72 69.8693C144.527 69.8635 144.344 69.7827 144.209 69.6442C144.075 69.5057 144 69.3203 144 69.1273V24.7225C144 24.5257 144.078 24.337 144.217 24.1978C144.357 24.0587 144.545 23.9805 144.742 23.9805L175.91 25.1306C176.099 25.1419 176.276 25.2251 176.406 25.363C176.536 25.501 176.608 25.6833 176.607 25.8726V69.4241C176.604 69.6145 176.527 69.7962 176.393 69.9315C176.259 70.0669 176.078 70.1456 175.888 70.1513V70.1513Z" fill="var(--sapContent_Illustrative_Color19)"/>
<path d="M177.947 68.0438L146.779 67.7655C146.59 67.7655 146.408 67.6907 146.273 67.5573C146.138 67.424 146.061 67.2428 146.059 67.0532V23.3793C146.06 23.2833 146.079 23.1885 146.117 23.1003C146.155 23.0121 146.21 22.9324 146.279 22.866C146.349 22.7995 146.431 22.7477 146.52 22.7135C146.61 22.6793 146.706 22.6635 146.801 22.667L177.969 23.78C178.155 23.7857 178.331 23.863 178.461 23.9958C178.591 24.1286 178.665 24.3065 178.667 24.4923V67.3463C178.662 67.5336 178.584 67.7116 178.449 67.842C178.315 67.9724 178.134 68.0448 177.947 68.0438V68.0438Z" fill="var(--sapContent_Illustrative_Color18)" stroke="#D1EFFF" stroke-width="0.768193" stroke-miterlimit="10"/>
<path d="M174.607 63.2652L150.786 63.0389C150.637 63.0331 150.495 62.9688 150.393 62.8599C150.29 62.751 150.234 62.6061 150.237 62.4564V26.7961C150.236 26.72 150.25 26.6444 150.278 26.5737C150.306 26.5031 150.348 26.4388 150.402 26.3848C150.456 26.3308 150.52 26.2882 150.59 26.2594C150.661 26.2306 150.736 26.2163 150.812 26.2173L174.633 27.1411C174.781 27.1497 174.919 27.2154 175.019 27.3241C175.118 27.4328 175.172 27.5761 175.168 27.7236V62.6679C175.172 62.7443 175.16 62.8207 175.134 62.8925C175.108 62.9644 175.067 63.0301 175.015 63.0859C174.962 63.1417 174.899 63.1863 174.829 63.2172C174.759 63.248 174.684 63.2643 174.607 63.2652V63.2652Z" fill="var(--sapContent_Illustrative_Color7)"/>
<path d="M150.185 27.0335L174.411 27.9239L174.585 63.2949L175.283 63.2244L175.212 26.9111L150.215 26.2173L150.185 27.0335Z" fill="var(--sapContent_Illustrative_Color19)"/>
<path opacity="0.5" d="M171.157 43.6024L171.131 43.569C169.947 41.5767 167.543 40.2114 164.767 40.2114C162.1 40.2114 159.777 41.4691 158.549 43.3352V40.9052C158.549 40.8658 158.533 40.8281 158.505 40.8003C158.477 40.7724 158.44 40.7568 158.4 40.7568L156.79 41.9143H156.697C156.417 41.792 156.113 41.7325 155.807 41.7399C155.525 41.7357 155.246 41.7848 154.983 41.8846H154.942L153.146 40.7716C153.127 40.7716 153.107 40.7755 153.089 40.7829C153.071 40.7904 153.055 40.8013 153.041 40.8151C153.027 40.8289 153.017 40.8452 153.009 40.8633C153.002 40.8813 152.998 40.9006 152.998 40.92V43.9734C152.998 44.792 153.323 45.5771 153.902 46.156C154.481 46.7349 155.266 47.06 156.085 47.06H170.689C170.708 47.2492 170.719 47.4311 170.719 47.6537C170.722 48.5326 170.509 49.3989 170.097 50.1755C169.686 50.9522 169.089 51.6152 168.359 52.1056L168.3 52.1465C168.207 52.2083 168.129 52.2881 168.068 52.3811C168.008 52.4742 167.967 52.5785 167.947 52.6878C167.928 52.7971 167.931 52.9092 167.956 53.0172C167.982 53.1253 168.028 53.2272 168.094 53.3168C168.159 53.4063 168.242 53.4817 168.338 53.5384C168.433 53.5951 168.539 53.632 168.649 53.6467C168.759 53.6614 168.871 53.6538 168.978 53.6242C169.085 53.5946 169.185 53.5438 169.272 53.4746L169.316 53.4449C170.258 52.7987 171.028 51.9324 171.559 50.9212C172.09 49.91 172.366 48.7846 172.363 47.6425C172.354 46.2084 171.936 44.8066 171.157 43.6024ZM157.628 44.5892L158.526 42.3632L158.545 43.3686L157.628 44.5892Z" fill="var(--sapContent_Illustrative_Color19)"/>
<path opacity="0.5" d="M157.628 44.5821L158.545 43.3467L158.53 42.3413L157.628 44.5821Z" fill="var(--sapContent_Illustrative_Color19)"/>
<path d="M87.1702 117.67C87.1791 117.618 87.1847 117.566 87.1869 117.513V82.48C87.1848 82.4286 87.1792 82.3773 87.1702 82.3267V117.67Z" fill="var(--sapContent_Illustrative_Color7)"/>
<path d="M85.7917 80.8367C85.8174 80.8349 85.8432 80.8349 85.8689 80.8367C85.7461 80.8058 85.6199 80.7901 85.4932 80.79H59.8401C59.3953 80.79 58.9688 80.9656 58.6543 81.2782C58.3398 81.5908 58.1632 82.0147 58.1632 82.4567V117.513C58.161 117.734 58.2027 117.952 58.286 118.156C58.3692 118.36 58.4924 118.546 58.6484 118.703C58.8043 118.859 58.9899 118.983 59.1945 119.068C59.399 119.153 59.6184 119.197 59.8401 119.197H85.4932C85.6738 119.195 85.8529 119.163 86.0231 119.103C85.9469 119.118 85.8694 119.126 85.7917 119.127V80.8367Z" fill="var(--sapContent_Illustrative_Color7)"/>
<path d="M85.4932 78.6665H59.8401C58.8225 78.6674 57.8468 79.0693 57.1269 79.7842C56.407 80.499 56.0018 81.4684 56 82.4798V117.513C56.0009 118.525 56.4056 119.496 57.1255 120.212C57.8454 120.928 58.8216 121.331 59.8401 121.333H85.4932C86.5117 121.331 87.488 120.928 88.2078 120.212C88.9277 119.496 89.3324 118.525 89.3333 117.513V82.4798C89.3316 81.4684 88.9263 80.499 88.2064 79.7842C87.4866 79.0693 86.5108 78.6674 85.4932 78.6665V78.6665ZM87.1869 117.513C87.1846 117.566 87.179 117.618 87.1701 117.67V117.756C87.1667 118.077 87.05 118.386 86.8403 118.63C86.6306 118.874 86.3413 119.037 86.0231 119.09C85.8529 119.15 85.6739 119.181 85.4932 119.183H59.8401C59.6185 119.183 59.399 119.14 59.1945 119.055C58.9899 118.97 58.8043 118.846 58.6484 118.689C58.4924 118.533 58.3693 118.347 58.286 118.143C58.2027 117.939 58.161 117.72 58.1632 117.5V82.4798C58.1632 82.0378 58.3399 81.6139 58.6543 81.3013C58.9688 80.9888 59.3953 80.8132 59.8401 80.8132H85.4932C85.6199 80.8133 85.7461 80.829 85.8689 80.8598C86.2197 80.8778 86.5503 81.0288 86.7924 81.2819C87.0345 81.5349 87.1697 81.8706 87.1701 82.2198V82.3432C87.1792 82.3939 87.1848 82.4451 87.1869 82.4965V117.513Z" fill="var(--sapContent_Illustrative_Color18)"/>
<path d="M85.8689 80.8466C85.8432 80.8448 85.8174 80.8448 85.7917 80.8466V119.137C85.8694 119.136 85.9469 119.128 86.0232 119.113C86.3343 119.012 86.6087 118.822 86.8125 118.567C87.0163 118.312 87.1406 118.004 87.1702 117.68V82.3466C87.1432 81.9911 87.0022 81.6536 86.768 81.3836C86.5338 81.1137 86.2187 80.9254 85.8689 80.8466V80.8466Z" fill="var(--sapContent_Illustrative_Color7)"/>
<path d="M85.8689 80.8466C85.8432 80.8448 85.8174 80.8448 85.7917 80.8466V119.137C85.8694 119.136 85.9469 119.128 86.0232 119.113C86.3343 119.012 86.6087 118.822 86.8125 118.567C87.0163 118.312 87.1406 118.004 87.1702 117.68V82.3466C87.1432 81.9911 87.0022 81.6536 86.768 81.3836C86.5338 81.1137 86.2187 80.9254 85.8689 80.8466V80.8466Z" fill="var(--sapContent_Illustrative_Color19)"/>
<path d="M87.1702 82.33V82.2067C87.1698 81.8575 87.0346 81.5218 86.7925 81.2687C86.5503 81.0157 86.2198 80.8646 85.8689 80.8467C86.2161 80.9246 86.5294 81.1104 86.7633 81.3771C86.9973 81.6438 87.1398 81.9775 87.1702 82.33V82.33Z" fill="var(--sapContent_Illustrative_Color8)"/>
<path opacity="0.2" d="M87.1702 82.33V82.2067C87.1698 81.8575 87.0346 81.5218 86.7925 81.2687C86.5503 81.0157 86.2198 80.8646 85.8689 80.8467C86.2161 80.9246 86.5294 81.1104 86.7633 81.3771C86.9973 81.6438 87.1398 81.9775 87.1702 82.33V82.33Z" fill="var(--sapContent_Illustrative_Color20)"/>
<path d="M86.0232 119.103C86.3414 119.05 86.6306 118.887 86.8403 118.643C87.05 118.4 87.1668 118.09 87.1702 117.77V117.683C87.1382 118.005 87.0127 118.31 86.8091 118.563C86.6054 118.815 86.3324 119.003 86.0232 119.103Z" fill="var(--sapContent_Illustrative_Color8)"/>
<path opacity="0.2" d="M86.0232 119.103C86.3414 119.05 86.6306 118.887 86.8403 118.643C87.05 118.4 87.1668 118.09 87.1702 117.77V117.683C87.1382 118.005 87.0127 118.31 86.8091 118.563C86.6054 118.815 86.3324 119.003 86.0232 119.103Z" fill="var(--sapContent_Illustrative_Color20)"/>
<path opacity="0.5" d="M78.997 104.08H66.152C66.0112 104.08 65.8971 104.193 65.8971 104.333V111.743C65.8971 111.883 66.0112 111.997 66.152 111.997H78.997C79.1378 111.997 79.2519 111.883 79.2519 111.743V104.333C79.2519 104.193 79.1378 104.08 78.997 104.08Z" fill="var(--sapContent_Illustrative_Color19)"/>
<path opacity="0.5" d="M79.1009 104.023H66.048C65.9702 104.023 65.9071 104.086 65.9071 104.163V104.82C65.9071 104.897 65.9702 104.96 66.048 104.96H79.1009C79.1787 104.96 79.2418 104.897 79.2418 104.82V104.163C79.2418 104.086 79.1787 104.023 79.1009 104.023Z" fill="var(--sapContent_Illustrative_Color19)"/>
<path opacity="0.5" d="M79.7415 100.143H65.508C65.3562 100.143 65.233 100.265 65.233 100.416V103.796C65.233 103.947 65.3562 104.07 65.508 104.07H79.7415C79.8934 104.07 80.0165 103.947 80.0165 103.796V100.416C80.0165 100.265 79.8934 100.143 79.7415 100.143Z" fill="var(--sapContent_Illustrative_Color19)"/>
<path opacity="0.5" d="M73.329 95.22C73.272 94.71 73.2016 94.22 73.111 93.7633C73.8367 93.5574 74.4787 93.1294 74.9455 92.54C75.8879 91.4334 76.1462 90.1067 75.519 89.58C74.8919 89.0533 73.6174 89.5267 72.675 90.6333C72.5003 90.8416 72.3444 91.0647 72.2088 91.3C72.0146 90.978 71.7307 90.7189 71.3915 90.5538C71.0522 90.3888 70.6721 90.325 70.2972 90.37C68.2212 90.5934 68.0669 92.97 68.3788 95.8134C68.5633 97.48 68.6639 99.1067 69.2776 100.147H73.1479C73.6375 98.95 73.5235 97.0067 73.329 95.22Z" fill="var(--sapContent_Illustrative_Color19)"/>
<path opacity="0.5" d="M75.9751 95.1466C75.0226 95.1666 74.3787 96.4799 74.2479 98.0932C74.1842 98.8966 74.04 99.6199 74.1775 100.15H77.1959C77.5339 99.5173 77.7036 98.8094 77.6889 98.0932C77.699 96.4799 77.7224 95.1133 75.9751 95.1466Z" fill="var(--sapContent_Illustrative_Color19)"/>
<path d="M51.0836 49.5652C51.0836 49.5137 51.1011 49.4621 51.1011 49.4071V13.2705C51.1011 13.2189 51.1011 13.1673 51.0836 13.1123V49.5652Z" fill="var(--sapContent_Illustrative_Color7)"/>
<path d="M49.6501 11.5755H49.7303C49.6021 11.5464 49.4711 11.5314 49.3396 11.5308H22.6604C22.1992 11.5352 21.7583 11.7178 21.4322 12.0392C21.1061 12.3607 20.9209 12.7954 20.9164 13.2499V49.3968C20.9218 49.8511 21.1073 50.2853 21.4332 50.6065C21.7591 50.9278 22.1995 51.1106 22.6604 51.116H49.3396C49.5274 51.1139 49.7136 51.0813 49.8907 51.0197C49.8114 51.0348 49.7309 51.0429 49.6501 51.0438V11.5755Z" fill="var(--sapContent_Illustrative_Color7)"/>
<path d="M49.3396 9.3335H22.6603C21.6017 9.33531 20.587 9.75068 19.8384 10.4886C19.0898 11.2265 18.6685 12.2268 18.6666 13.2704V49.3967C18.6685 50.4402 19.0898 51.4405 19.8384 52.1784C20.587 52.9164 21.6017 53.3317 22.6603 53.3335H49.3396C50.3982 53.3317 51.413 52.9164 52.1615 52.1784C52.9101 51.4405 53.3315 50.4402 53.3333 49.3967V13.2601C53.3287 12.2183 52.9061 11.2206 52.1579 10.4849C51.4096 9.74926 50.3964 9.3353 49.3396 9.3335V9.3335ZM51.101 49.3967C51.101 49.4517 51.101 49.5032 51.0836 49.5548V49.6476C51.08 49.9784 50.9586 50.2975 50.7405 50.5489C50.5225 50.8003 50.2216 50.9681 49.8907 51.023C49.7136 51.0846 49.5274 51.1172 49.3396 51.1192H22.6603C22.1995 51.1139 21.759 50.931 21.4332 50.6098C21.1073 50.2885 20.9218 49.8544 20.9163 49.4001V13.2635C20.9209 12.8089 21.1061 12.3742 21.4322 12.0528C21.7582 11.7314 22.1992 11.5488 22.6603 11.5443H49.3396C49.4711 11.545 49.6021 11.56 49.7303 11.589C50.0952 11.6092 50.4385 11.766 50.6901 12.0274C50.9416 12.2888 51.0824 12.635 51.0836 12.9953V13.1191C51.0836 13.1741 51.101 13.2257 51.101 13.2772V49.3967Z" fill="var(--sapContent_Illustrative_Color18)"/>
<path d="M49.7302 11.5752H49.65V51.071C49.7308 51.0702 49.8114 51.0621 49.8907 51.047C50.2148 50.942 50.5005 50.7457 50.7125 50.4823C50.9245 50.2189 51.0535 49.9 51.0836 49.565V13.119C51.0548 12.7529 50.9079 12.4056 50.6644 12.1278C50.4208 11.85 50.0935 11.6563 49.7302 11.5752V11.5752Z" fill="var(--sapContent_Illustrative_Color7)"/>
<path d="M49.7302 11.5752H49.65V51.071C49.7308 51.0702 49.8114 51.0621 49.8907 51.047C50.2148 50.942 50.5005 50.7457 50.7125 50.4823C50.9245 50.2189 51.0535 49.9 51.0836 49.565V13.119C51.0548 12.7529 50.9079 12.4056 50.6644 12.1278C50.4208 11.85 50.0935 11.6563 49.7302 11.5752V11.5752Z" fill="var(--sapContent_Illustrative_Color19)"/>
<path d="M51.0835 13.1121V12.9883C51.0823 12.628 50.9416 12.2818 50.69 12.0204C50.4385 11.759 50.0951 11.6022 49.7302 11.582C50.0913 11.6624 50.4171 11.8541 50.6604 12.1291C50.9037 12.4042 51.0519 12.7485 51.0835 13.1121V13.1121Z" fill="var(--sapContent_Illustrative_Color8)"/>
<path opacity="0.2" d="M51.0835 13.1121V12.9883C51.0823 12.628 50.9416 12.2818 50.69 12.0204C50.4385 11.759 50.0951 11.6022 49.7302 11.582C50.0913 11.6624 50.4171 11.8541 50.6604 12.1291C50.9037 12.4042 51.0519 12.7485 51.0835 13.1121V13.1121Z" fill="var(--sapContent_Illustrative_Color20)"/>
<path d="M49.8907 51.0473C50.2217 50.9924 50.5225 50.8246 50.7406 50.5732C50.9586 50.3217 51.0801 50.0027 51.0836 49.6719V49.5791C51.051 49.9116 50.9208 50.2275 50.7089 50.4883C50.4971 50.749 50.2128 50.9433 49.8907 51.0473V51.0473Z" fill="var(--sapContent_Illustrative_Color8)"/>
<path opacity="0.2" d="M49.8907 51.0473C50.2217 50.9924 50.5225 50.8246 50.7406 50.5732C50.9586 50.3217 51.0801 50.0027 51.0836 49.6719V49.5791C51.051 49.9116 50.9208 50.2275 50.7089 50.4883C50.4971 50.749 50.2128 50.9433 49.8907 51.0473V51.0473Z" fill="var(--sapContent_Illustrative_Color20)"/>
<path d="M42.8207 35.1894C45.0687 35.1894 46.8911 33.456 46.8911 31.3178C46.8911 29.1796 45.0687 27.4463 42.8207 27.4463C40.5726 27.4463 38.7502 29.1796 38.7502 31.3178C38.7502 33.456 40.5726 35.1894 42.8207 35.1894Z" fill="var(--sapContent_Illustrative_Color18)"/>
<path d="M33.6264 46.9589C34.5729 46.2651 35.5568 45.6223 36.5737 45.0334L35.7855 44.167C30.428 38.2428 28.841 35.8016 24.6973 33.9655C23.4805 33.3893 22.2184 32.9109 20.9233 32.5352V49.2316C20.9233 49.4899 20.9749 49.7456 21.0752 49.9842C21.1755 50.2229 21.3224 50.4397 21.5077 50.6223C21.693 50.8049 21.9129 50.9498 22.155 51.0486C22.397 51.1474 22.6564 51.1983 22.9184 51.1983H29.2351C30.4675 49.5697 31.9489 48.1395 33.6264 46.9589V46.9589Z" fill="var(--sapContent_Illustrative_Color19)"/>
<path d="M40.4035 44.239C39.1409 43.9261 37.9027 44.3077 36.5668 45.0366C35.5498 45.6255 34.5659 46.2683 33.6195 46.9621C31.942 48.1427 30.4606 49.5729 29.2281 51.2015H46.6365C43.1485 48.0005 43.0788 44.9026 40.4035 44.239Z" fill="var(--sapContent_Illustrative_Color20)"/>
<path d="M119.739 159.997L126.769 158.793L128.729 174.051C128.761 174.294 128.697 174.541 128.551 174.738C128.405 174.936 128.188 175.069 127.946 175.11L124.016 175.78C123.773 175.823 123.522 175.77 123.318 175.632C123.113 175.494 122.97 175.282 122.919 175.04L119.739 159.997Z" fill="var(--sapContent_Illustrative_Color3)"/>
<path d="M117.333 164.799H138.383V184.066C138.383 185.11 137.968 186.11 137.231 186.848C136.493 187.586 135.492 188 134.449 188H121.267C120.224 188 119.223 187.586 118.485 186.848C117.748 186.11 117.333 185.11 117.333 184.066V164.799Z" fill="var(--sapContent_Illustrative_Color19)"/>
<path d="M127.857 165.949C133.67 165.949 138.381 165.434 138.381 164.799C138.381 164.164 133.67 163.649 127.857 163.649C122.045 163.649 117.333 164.164 117.333 164.799C117.333 165.434 122.045 165.949 127.857 165.949Z" fill="var(--sapContent_Illustrative_Color20)"/>
<path d="M126.762 158.793L124.839 156.076L120.673 156.789L119.73 159.995L126.762 158.793Z" fill="var(--sapContent_Illustrative_Color4)"/>
<path d="M124.409 153.56L120.244 154.272L120.675 156.787L124.839 156.074L124.409 153.56Z" fill="var(--sapContent_Illustrative_Color4)"/>
<path d="M123.924 153.646L123.463 150.956C123.454 150.9 123.431 150.847 123.397 150.803C123.363 150.758 123.319 150.722 123.267 150.698C123.216 150.675 123.16 150.664 123.104 150.667C123.047 150.67 122.993 150.687 122.944 150.716L120.442 152.211C120.381 152.247 120.333 152.3 120.303 152.364C120.273 152.427 120.263 152.498 120.274 152.568L120.559 154.222L123.924 153.646Z" fill="var(--sapContent_Illustrative_Color3)"/>
<path d="M120.93 165.651C122.742 165.832 125.097 165.944 127.681 165.949L127.367 163.5C125.092 163.516 122.819 163.649 120.557 163.899L120.93 165.651Z" fill="var(--sapContent_Illustrative_Color3)"/>
<path d="M210.925 129.85C210.731 129.85 210.54 129.795 210.375 129.691C210.21 129.587 210.078 129.439 209.993 129.264C209.908 129.089 209.875 128.893 209.896 128.699C209.917 128.506 209.993 128.322 210.114 128.169C210.848 127.252 211.356 126.176 211.599 125.027C211.853 123.805 212.218 120.776 210.158 119.026C209.032 118.074 207.115 117.433 205.362 118.154C203.279 119.007 202.074 121.541 202.561 124.047C202.584 124.304 202.511 124.56 202.357 124.766C202.202 124.971 201.976 125.112 201.723 125.16C201.47 125.209 201.208 125.161 200.988 125.027C200.768 124.893 200.606 124.682 200.533 124.435C199.851 120.922 201.554 117.469 204.583 116.228C207.318 115.108 210.023 116.181 211.506 117.439C213.556 119.177 214.332 122.094 213.638 125.442C213.33 126.907 212.684 128.279 211.751 129.449C211.653 129.574 211.528 129.675 211.385 129.745C211.242 129.815 211.084 129.851 210.925 129.85V129.85Z" fill="var(--sapContent_Illustrative_Color6)"/>
<path d="M164.699 129.905C164.502 129.906 164.309 129.851 164.143 129.747C163.976 129.644 163.842 129.495 163.755 129.318C163.669 129.141 163.635 128.944 163.655 128.749C163.676 128.553 163.752 128.368 163.873 128.213C164.615 127.289 165.128 126.203 165.373 125.043C165.629 123.814 165.995 120.759 163.917 118.99C162.787 118.03 160.852 117.386 159.086 118.11C156.987 118.971 155.784 121.524 156.263 124.05C156.313 124.321 156.254 124.601 156.099 124.828C155.943 125.056 155.705 125.213 155.434 125.266C155.164 125.318 154.884 125.262 154.654 125.109C154.425 124.956 154.266 124.719 154.21 124.449C153.523 120.908 155.239 117.427 158.294 116.176C161.045 115.048 163.774 116.129 165.271 117.397C167.335 119.147 168.119 122.088 167.42 125.462C167.11 126.938 166.458 128.322 165.516 129.501C165.419 129.625 165.295 129.727 165.154 129.797C165.012 129.867 164.857 129.904 164.699 129.905V129.905Z" fill="var(--sapContent_Illustrative_Color6)"/>
<path d="M146.985 123.772H227.822C227.955 123.767 228.088 123.793 228.21 123.848C228.331 123.903 228.439 123.985 228.523 124.088C228.608 124.191 228.668 124.312 228.699 124.442C228.729 124.572 228.73 124.707 228.7 124.837L217.655 187.473C217.596 187.765 217.441 188.029 217.214 188.222C216.987 188.415 216.701 188.526 216.404 188.538H135.564C135.431 188.542 135.299 188.516 135.177 188.461C135.056 188.406 134.949 188.324 134.864 188.221C134.78 188.118 134.72 187.997 134.69 187.867C134.659 187.738 134.659 187.603 134.689 187.473L145.733 124.837C145.791 124.544 145.947 124.28 146.174 124.087C146.401 123.893 146.687 123.782 146.985 123.772V123.772Z" fill="var(--sapContent_Illustrative_Color14)"/>
<path d="M227.681 123.772H146.842C146.709 123.767 146.576 123.793 146.454 123.848C146.333 123.903 146.226 123.985 146.141 124.088C146.056 124.191 145.997 124.312 145.966 124.442C145.936 124.572 145.936 124.707 145.967 124.837L157.011 187.473C157.069 187.766 157.225 188.03 157.452 188.223C157.679 188.417 157.965 188.527 158.263 188.538H239.1C239.233 188.542 239.366 188.516 239.487 188.462C239.609 188.407 239.716 188.325 239.801 188.222C239.886 188.119 239.946 187.998 239.977 187.868C240.007 187.738 240.008 187.603 239.977 187.473L228.931 124.837C228.873 124.544 228.718 124.28 228.491 124.087C228.265 123.894 227.979 123.783 227.681 123.772V123.772Z" fill="var(--sapContent_Illustrative_Color2)"/>
<path d="M227.651 123.61H146.812C146.679 123.606 146.546 123.632 146.425 123.687C146.304 123.742 146.197 123.824 146.112 123.927C146.028 124.03 145.968 124.151 145.938 124.28C145.907 124.41 145.907 124.545 145.937 124.675L147.615 134.192C147.673 134.484 147.829 134.749 148.056 134.942C148.283 135.135 148.569 135.246 148.867 135.257H229.698C229.832 135.261 229.964 135.235 230.086 135.181C230.207 135.126 230.315 135.044 230.399 134.941C230.484 134.838 230.544 134.716 230.574 134.587C230.604 134.457 230.604 134.322 230.573 134.192L228.895 124.675C228.837 124.383 228.683 124.12 228.458 123.927C228.232 123.734 227.948 123.622 227.651 123.61V123.61Z" fill="var(--sapContent_Illustrative_Color13)"/>
<path d="M164.902 131.415C166.072 131.415 166.85 130.441 166.639 129.239C166.527 128.648 166.218 128.112 165.764 127.717C165.31 127.323 164.736 127.093 164.135 127.065C162.963 127.065 162.187 128.039 162.399 129.239C162.51 129.831 162.818 130.367 163.272 130.762C163.727 131.157 164.301 131.387 164.902 131.415V131.415Z" fill="var(--sapContent_Illustrative_Color14)"/>
<path d="M210.989 131.415C212.161 131.415 212.937 130.441 212.725 129.239C212.613 128.648 212.305 128.112 211.85 127.717C211.396 127.323 210.822 127.093 210.221 127.065C209.052 127.065 208.273 128.039 208.485 129.239C208.596 129.831 208.904 130.367 209.359 130.762C209.813 131.157 210.387 131.387 210.989 131.415V131.415Z" fill="var(--sapContent_Illustrative_Color14)"/>
<path d="M221.959 146.293H160.068C159.935 146.287 159.802 146.313 159.681 146.368C159.559 146.422 159.452 146.504 159.367 146.607C159.282 146.709 159.222 146.83 159.191 146.96C159.16 147.09 159.16 147.225 159.19 147.355L165.26 181.775C165.318 182.068 165.473 182.332 165.701 182.525C165.928 182.719 166.214 182.829 166.512 182.84H228.402C228.536 182.845 228.668 182.819 228.79 182.764C228.911 182.709 229.019 182.627 229.103 182.524C229.188 182.421 229.248 182.3 229.278 182.17C229.308 182.04 229.308 181.905 229.277 181.775L223.208 147.355C223.15 147.063 222.995 146.799 222.768 146.606C222.541 146.414 222.256 146.303 221.959 146.293V146.293Z" fill="var(--sapContent_Illustrative_Color8)"/>
<path d="M184.237 139.983H159.842C159.676 139.976 159.511 140.008 159.359 140.075C159.206 140.142 159.072 140.244 158.965 140.371C158.859 140.499 158.783 140.65 158.745 140.812C158.706 140.973 158.705 141.142 158.742 141.304C158.815 141.667 159.008 141.995 159.29 142.235C159.572 142.475 159.926 142.613 160.296 142.628H184.691C184.857 142.635 185.023 142.603 185.175 142.536C185.328 142.469 185.462 142.367 185.569 142.239C185.675 142.111 185.751 141.96 185.789 141.797C185.828 141.635 185.829 141.466 185.791 141.304C185.717 140.942 185.524 140.614 185.242 140.375C184.96 140.135 184.606 139.998 184.237 139.983V139.983Z" fill="var(--sapContent_Illustrative_Color8)"/>
<path d="M169.167 151.927H165.948C165.886 151.925 165.824 151.938 165.768 151.963C165.711 151.989 165.662 152.027 165.622 152.075C165.583 152.123 165.555 152.179 165.541 152.239C165.527 152.3 165.527 152.362 165.541 152.423L166.019 155.125C166.046 155.26 166.118 155.383 166.224 155.473C166.329 155.563 166.462 155.615 166.6 155.62H169.819C169.881 155.622 169.943 155.61 169.999 155.584C170.055 155.559 170.105 155.52 170.145 155.472C170.184 155.425 170.212 155.368 170.226 155.308C170.24 155.248 170.24 155.185 170.226 155.125L169.748 152.423C169.72 152.287 169.648 152.164 169.543 152.074C169.438 151.985 169.305 151.933 169.167 151.927Z" fill="var(--sapContent_Illustrative_Color6)"/>
<path d="M177.383 151.949H174.164C174.102 151.947 174.04 151.96 173.984 151.985C173.927 152.011 173.877 152.049 173.838 152.097C173.799 152.145 173.771 152.201 173.757 152.261C173.743 152.322 173.743 152.384 173.756 152.445L174.232 155.147C174.261 155.282 174.333 155.405 174.439 155.495C174.545 155.584 174.677 155.636 174.816 155.642H178.032C178.094 155.644 178.156 155.633 178.213 155.607C178.27 155.582 178.32 155.544 178.359 155.496C178.399 155.448 178.426 155.391 178.44 155.331C178.454 155.27 178.454 155.207 178.439 155.147L177.972 152.436C177.943 152.301 177.869 152.179 177.762 152.09C177.655 152.002 177.522 151.952 177.383 151.949Z" fill="var(--sapContent_Illustrative_Color6)"/>
<path d="M185.7 151.974H182.484C182.422 151.972 182.36 151.984 182.303 152.009C182.246 152.035 182.196 152.073 182.157 152.121C182.117 152.169 182.09 152.225 182.076 152.286C182.062 152.346 182.062 152.409 182.077 152.47L182.553 155.174C182.58 155.31 182.652 155.432 182.757 155.522C182.863 155.611 182.995 155.662 183.133 155.667H186.352C186.414 155.669 186.475 155.657 186.531 155.631C186.588 155.606 186.637 155.568 186.676 155.52C186.716 155.473 186.744 155.417 186.758 155.357C186.772 155.297 186.773 155.235 186.759 155.174L186.283 152.47C186.255 152.334 186.183 152.211 186.077 152.122C185.971 152.032 185.839 151.98 185.7 151.974V151.974Z" fill="var(--sapContent_Illustrative_Color6)"/>
<path d="M193.93 151.988H190.711C190.649 151.986 190.587 151.998 190.531 152.024C190.474 152.049 190.424 152.088 190.385 152.135C190.346 152.183 190.318 152.239 190.304 152.3C190.29 152.36 190.289 152.423 190.303 152.483L190.779 155.185C190.807 155.321 190.879 155.444 190.985 155.534C191.091 155.624 191.224 155.676 191.363 155.68H194.579C194.641 155.683 194.703 155.671 194.76 155.646C194.816 155.62 194.866 155.582 194.906 155.534C194.945 155.486 194.973 155.43 194.987 155.369C195.001 155.309 195.001 155.246 194.986 155.185L194.51 152.483C194.483 152.348 194.411 152.225 194.306 152.135C194.201 152.045 194.068 151.993 193.93 151.988V151.988Z" fill="var(--sapContent_Illustrative_Color6)"/>
<path d="M202.322 152.076H199.105C199.043 152.074 198.982 152.086 198.925 152.112C198.869 152.137 198.819 152.175 198.78 152.223C198.74 152.271 198.713 152.327 198.698 152.388C198.684 152.448 198.684 152.511 198.698 152.571L199.174 155.273C199.201 155.409 199.273 155.532 199.378 155.622C199.483 155.712 199.616 155.763 199.755 155.768H202.974C203.036 155.77 203.097 155.758 203.154 155.733C203.21 155.707 203.26 155.669 203.299 155.621C203.339 155.573 203.367 155.517 203.381 155.457C203.395 155.396 203.395 155.333 203.381 155.273L202.905 152.571C202.877 152.435 202.805 152.312 202.699 152.223C202.593 152.133 202.46 152.081 202.322 152.076V152.076Z" fill="var(--sapContent_Illustrative_Color6)"/>
<path d="M210.535 152.09H207.318C207.256 152.087 207.194 152.099 207.138 152.124C207.081 152.15 207.031 152.188 206.991 152.236C206.952 152.284 206.924 152.34 206.91 152.401C206.896 152.462 206.897 152.525 206.911 152.585L207.387 155.287C207.414 155.423 207.486 155.545 207.591 155.635C207.697 155.725 207.829 155.777 207.968 155.782H211.187C211.249 155.784 211.31 155.772 211.367 155.746C211.423 155.721 211.473 155.683 211.512 155.635C211.552 155.587 211.579 155.531 211.594 155.47C211.608 155.41 211.608 155.347 211.594 155.287L211.118 152.585C211.09 152.449 211.017 152.327 210.912 152.237C210.806 152.147 210.673 152.095 210.535 152.09Z" fill="var(--sapContent_Illustrative_Color6)"/>
<path d="M218.126 152.076H214.91C214.848 152.074 214.786 152.086 214.73 152.112C214.673 152.137 214.623 152.175 214.584 152.223C214.545 152.271 214.517 152.327 214.503 152.388C214.488 152.448 214.488 152.511 214.502 152.571L214.978 155.273C215.006 155.409 215.078 155.532 215.184 155.622C215.29 155.712 215.423 155.764 215.562 155.768H218.778C218.84 155.771 218.902 155.759 218.959 155.734C219.015 155.708 219.065 155.67 219.105 155.622C219.144 155.574 219.172 155.518 219.186 155.457C219.2 155.396 219.2 155.333 219.185 155.273L218.709 152.571C218.682 152.435 218.609 152.312 218.503 152.223C218.397 152.133 218.265 152.081 218.126 152.076V152.076Z" fill="var(--sapContent_Illustrative_Color6)"/>
<path d="M170.543 159.224H167.313C167.251 159.221 167.189 159.233 167.132 159.259C167.075 159.284 167.025 159.322 166.986 159.37C166.946 159.418 166.918 159.475 166.905 159.535C166.891 159.596 166.891 159.659 166.905 159.719L167.381 162.421C167.409 162.557 167.481 162.68 167.586 162.769C167.691 162.859 167.824 162.911 167.962 162.916H171.181C171.243 162.918 171.305 162.906 171.361 162.881C171.417 162.855 171.467 162.817 171.507 162.769C171.546 162.721 171.574 162.665 171.588 162.605C171.602 162.544 171.602 162.481 171.588 162.421L171.112 159.719C171.086 159.585 171.015 159.464 170.912 159.374C170.809 159.285 170.679 159.232 170.543 159.224V159.224Z" fill="var(--sapContent_Illustrative_Color6)"/>
<path d="M178.745 159.238H175.526C175.464 159.236 175.402 159.247 175.346 159.273C175.289 159.298 175.239 159.336 175.2 159.384C175.161 159.431 175.133 159.487 175.119 159.548C175.104 159.608 175.104 159.67 175.118 159.731L175.594 162.435C175.622 162.571 175.695 162.694 175.8 162.784C175.906 162.874 176.039 162.925 176.178 162.931H179.394C179.456 162.933 179.518 162.92 179.574 162.895C179.63 162.869 179.68 162.831 179.72 162.783C179.759 162.735 179.787 162.679 179.801 162.619C179.815 162.558 179.815 162.496 179.801 162.435L179.325 159.731C179.298 159.595 179.226 159.473 179.121 159.383C179.015 159.294 178.883 159.243 178.745 159.238V159.238Z" fill="var(--sapContent_Illustrative_Color6)"/>
<path d="M187.051 159.271H183.832C183.77 159.269 183.709 159.281 183.652 159.307C183.596 159.333 183.546 159.371 183.507 159.419C183.467 159.466 183.439 159.523 183.425 159.583C183.411 159.643 183.411 159.706 183.425 159.766L183.901 162.468C183.928 162.605 184.001 162.728 184.106 162.817C184.212 162.907 184.345 162.959 184.484 162.964H187.712C187.774 162.966 187.836 162.954 187.892 162.929C187.949 162.904 187.999 162.865 188.039 162.817C188.078 162.769 188.106 162.713 188.12 162.652C188.134 162.592 188.133 162.529 188.119 162.468L187.643 159.766C187.615 159.629 187.542 159.505 187.434 159.415C187.327 159.325 187.192 159.274 187.051 159.271V159.271Z" fill="var(--sapContent_Illustrative_Color6)"/>
<path d="M195.281 159.285H192.064C192.002 159.282 191.94 159.294 191.884 159.319C191.827 159.345 191.777 159.383 191.737 159.431C191.698 159.479 191.67 159.535 191.656 159.596C191.642 159.656 191.643 159.719 191.657 159.78L192.133 162.482C192.16 162.617 192.232 162.74 192.338 162.83C192.443 162.92 192.575 162.972 192.714 162.977H195.933C195.995 162.979 196.056 162.967 196.113 162.941C196.169 162.916 196.219 162.877 196.258 162.83C196.298 162.782 196.326 162.725 196.34 162.665C196.354 162.605 196.354 162.542 196.34 162.482L195.856 159.78C195.828 159.645 195.757 159.524 195.653 159.434C195.549 159.345 195.418 159.292 195.281 159.285V159.285Z" fill="var(--sapContent_Illustrative_Color6)"/>
<path d="M203.684 159.378H200.467C200.405 159.376 200.343 159.388 200.286 159.413C200.23 159.438 200.179 159.477 200.14 159.524C200.1 159.572 200.072 159.629 200.058 159.689C200.043 159.75 200.043 159.813 200.057 159.873L200.533 162.57C200.561 162.706 200.634 162.828 200.74 162.918C200.845 163.008 200.978 163.059 201.117 163.065H204.333C204.395 163.068 204.457 163.056 204.514 163.03C204.57 163.005 204.62 162.967 204.66 162.919C204.699 162.871 204.727 162.814 204.741 162.754C204.755 162.693 204.755 162.63 204.74 162.57L204.264 159.868C204.236 159.733 204.164 159.612 204.058 159.523C203.953 159.434 203.821 159.383 203.684 159.378V159.378Z" fill="var(--sapContent_Illustrative_Color6)"/>
<path d="M211.897 159.378H208.677C208.615 159.376 208.554 159.388 208.497 159.414C208.441 159.439 208.391 159.478 208.352 159.526C208.312 159.573 208.285 159.63 208.27 159.69C208.256 159.75 208.256 159.813 208.27 159.873L208.749 162.575C208.776 162.711 208.848 162.834 208.953 162.924C209.059 163.013 209.191 163.065 209.329 163.071H212.549C212.611 163.073 212.672 163.06 212.729 163.035C212.785 163.009 212.835 162.971 212.874 162.923C212.913 162.875 212.941 162.819 212.955 162.759C212.97 162.698 212.97 162.636 212.956 162.575L212.477 159.873C212.45 159.737 212.379 159.614 212.273 159.525C212.168 159.435 212.035 159.383 211.897 159.378Z" fill="var(--sapContent_Illustrative_Color6)"/>
<path d="M219.482 159.378H216.263C216.201 159.376 216.14 159.388 216.083 159.414C216.027 159.439 215.977 159.478 215.937 159.526C215.898 159.573 215.87 159.63 215.856 159.69C215.842 159.75 215.842 159.813 215.856 159.873L216.332 162.575C216.36 162.711 216.433 162.834 216.538 162.923C216.644 163.013 216.777 163.065 216.915 163.071H220.132C220.194 163.073 220.255 163.061 220.312 163.036C220.369 163.011 220.419 162.972 220.458 162.924C220.498 162.876 220.526 162.82 220.54 162.759C220.554 162.699 220.553 162.636 220.539 162.575L220.068 159.868C220.04 159.732 219.967 159.61 219.86 159.521C219.754 159.432 219.621 159.382 219.482 159.378V159.378Z" fill="var(--sapContent_Illustrative_Color6)"/>
<path d="M171.866 166.257H168.647C168.585 166.255 168.524 166.267 168.468 166.293C168.412 166.318 168.362 166.356 168.323 166.404C168.283 166.451 168.256 166.507 168.241 166.567C168.227 166.627 168.226 166.689 168.24 166.75L168.716 169.454C168.743 169.59 168.816 169.713 168.922 169.803C169.027 169.893 169.16 169.944 169.299 169.949H172.515C172.577 169.951 172.639 169.939 172.695 169.914C172.752 169.888 172.802 169.85 172.841 169.802C172.88 169.754 172.908 169.698 172.922 169.638C172.936 169.577 172.937 169.515 172.923 169.454L172.447 166.75C172.419 166.614 172.347 166.492 172.242 166.402C172.137 166.313 172.004 166.262 171.866 166.257V166.257Z" fill="var(--sapContent_Illustrative_Color6)"/>
<path d="M180.079 166.257H176.871C176.809 166.255 176.748 166.267 176.691 166.293C176.635 166.318 176.585 166.357 176.546 166.404C176.506 166.452 176.478 166.509 176.464 166.569C176.45 166.629 176.45 166.692 176.464 166.752L176.94 169.457C176.968 169.593 177.04 169.715 177.146 169.804C177.252 169.894 177.385 169.945 177.523 169.949H180.723C180.785 169.952 180.847 169.94 180.903 169.915C180.959 169.89 181.009 169.852 181.049 169.804C181.088 169.756 181.116 169.7 181.13 169.64C181.144 169.58 181.144 169.517 181.13 169.457L180.654 166.752C180.628 166.617 180.556 166.495 180.452 166.406C180.348 166.316 180.217 166.264 180.079 166.257V166.257Z" fill="var(--sapContent_Illustrative_Color6)"/>
<path d="M188.397 166.303H185.178C185.116 166.301 185.054 166.314 184.998 166.339C184.941 166.365 184.891 166.403 184.852 166.451C184.813 166.499 184.785 166.555 184.771 166.615C184.757 166.676 184.756 166.738 184.77 166.799L185.246 169.501C185.274 169.636 185.347 169.759 185.453 169.849C185.559 169.938 185.691 169.99 185.83 169.996H189.046C189.108 169.998 189.17 169.987 189.227 169.961C189.283 169.936 189.334 169.898 189.373 169.85C189.412 169.802 189.44 169.745 189.454 169.685C189.468 169.624 189.468 169.561 189.453 169.501L188.977 166.807C188.952 166.669 188.881 166.545 188.776 166.453C188.67 166.361 188.536 166.309 188.397 166.303V166.303Z" fill="var(--sapContent_Illustrative_Color6)"/>
<path d="M196.615 166.317H193.399C193.337 166.315 193.276 166.327 193.219 166.352C193.163 166.377 193.113 166.415 193.073 166.463C193.034 166.51 193.006 166.566 192.992 166.627C192.978 166.687 192.978 166.749 192.992 166.81L193.468 169.514C193.495 169.65 193.567 169.773 193.672 169.863C193.777 169.952 193.91 170.004 194.048 170.01H197.267C197.329 170.012 197.391 169.999 197.447 169.974C197.504 169.948 197.554 169.91 197.593 169.862C197.632 169.814 197.66 169.758 197.674 169.698C197.688 169.637 197.689 169.575 197.675 169.514L197.199 166.807C197.17 166.672 197.097 166.55 196.992 166.461C196.886 166.372 196.753 166.322 196.615 166.317Z" fill="var(--sapContent_Illustrative_Color6)"/>
<path d="M205.018 166.406H201.802C201.74 166.403 201.678 166.415 201.622 166.44C201.565 166.466 201.515 166.503 201.475 166.551C201.436 166.599 201.408 166.655 201.393 166.715C201.379 166.775 201.378 166.838 201.392 166.898L201.87 169.603C201.896 169.742 201.968 169.868 202.075 169.96C202.182 170.052 202.318 170.105 202.459 170.109H205.678C205.74 170.111 205.802 170.099 205.858 170.073C205.915 170.048 205.964 170.009 206.004 169.962C206.043 169.914 206.071 169.857 206.085 169.797C206.099 169.737 206.099 169.674 206.086 169.614L205.607 166.909C205.581 166.77 205.509 166.644 205.402 166.553C205.295 166.461 205.159 166.409 205.018 166.406V166.406Z" fill="var(--sapContent_Illustrative_Color6)"/>
<path d="M213.231 166.419H210.012C209.95 166.417 209.889 166.429 209.833 166.455C209.777 166.48 209.727 166.518 209.688 166.566C209.648 166.613 209.621 166.669 209.606 166.729C209.592 166.789 209.591 166.851 209.605 166.912L210.083 169.616C210.111 169.752 210.183 169.874 210.288 169.963C210.393 170.053 210.526 170.104 210.664 170.109H213.883C213.945 170.111 214.006 170.098 214.062 170.073C214.118 170.048 214.168 170.01 214.207 169.962C214.247 169.915 214.275 169.859 214.289 169.799C214.303 169.739 214.304 169.676 214.29 169.616L213.812 166.912C213.784 166.776 213.712 166.654 213.607 166.564C213.502 166.475 213.369 166.424 213.231 166.419V166.419Z" fill="var(--sapContent_Illustrative_Color6)"/>
<path d="M220.817 166.405H217.592C217.53 166.404 217.469 166.416 217.413 166.441C217.357 166.467 217.307 166.504 217.268 166.552C217.228 166.6 217.201 166.655 217.186 166.715C217.172 166.775 217.171 166.838 217.185 166.898L217.664 169.603C217.691 169.738 217.763 169.861 217.868 169.951C217.973 170.041 218.106 170.093 218.244 170.098H221.461C221.523 170.1 221.585 170.088 221.641 170.063C221.698 170.038 221.748 170 221.788 169.952C221.828 169.904 221.856 169.847 221.87 169.787C221.884 169.726 221.884 169.663 221.87 169.603L221.392 166.898C221.365 166.763 221.293 166.642 221.189 166.552C221.085 166.463 220.954 166.411 220.817 166.405V166.405Z" fill="var(--sapContent_Illustrative_Color6)"/>
<path d="M173.184 173.309H169.965C169.903 173.306 169.842 173.318 169.785 173.344C169.729 173.369 169.679 173.407 169.639 173.454C169.6 173.502 169.572 173.558 169.558 173.618C169.544 173.679 169.544 173.741 169.558 173.801L170.034 176.506C170.061 176.642 170.134 176.765 170.24 176.855C170.346 176.944 170.478 176.996 170.617 177.001H173.845C173.907 177.004 173.968 176.992 174.025 176.967C174.082 176.941 174.132 176.903 174.171 176.855C174.211 176.807 174.239 176.751 174.253 176.69C174.267 176.629 174.266 176.566 174.252 176.506L173.776 173.801C173.748 173.664 173.674 173.541 173.566 173.451C173.459 173.362 173.324 173.312 173.184 173.309V173.309Z" fill="var(--sapContent_Illustrative_Color6)"/>
<path d="M181.397 173.322H178.178C178.116 173.321 178.055 173.333 177.999 173.358C177.943 173.384 177.893 173.421 177.854 173.469C177.814 173.517 177.787 173.572 177.772 173.632C177.758 173.692 177.757 173.755 177.771 173.815L178.247 176.52C178.275 176.655 178.348 176.777 178.453 176.866C178.559 176.956 178.692 177.007 178.83 177.012H182.046C182.108 177.015 182.17 177.003 182.226 176.978C182.283 176.952 182.333 176.914 182.372 176.867C182.411 176.819 182.439 176.763 182.453 176.703C182.468 176.643 182.468 176.58 182.454 176.52L181.978 173.815C181.95 173.679 181.878 173.557 181.773 173.468C181.668 173.378 181.535 173.327 181.397 173.322V173.322Z" fill="var(--sapContent_Illustrative_Color6)"/>
<path d="M189.715 173.356H186.501C186.439 173.354 186.378 173.366 186.321 173.391C186.265 173.417 186.215 173.455 186.176 173.503C186.136 173.551 186.108 173.607 186.094 173.667C186.08 173.728 186.08 173.791 186.094 173.851L186.57 176.553C186.598 176.689 186.671 176.811 186.776 176.901C186.882 176.991 187.015 177.042 187.153 177.048H190.353C190.415 177.051 190.477 177.039 190.534 177.013C190.59 176.988 190.641 176.95 190.68 176.902C190.719 176.854 190.747 176.797 190.761 176.737C190.775 176.676 190.775 176.613 190.76 176.553L190.284 173.851C190.258 173.717 190.188 173.595 190.085 173.505C189.981 173.416 189.851 173.363 189.715 173.356Z" fill="var(--sapContent_Illustrative_Color6)"/>
<path d="M197.928 173.369H194.708C194.646 173.367 194.585 173.38 194.528 173.405C194.472 173.431 194.422 173.469 194.383 173.517C194.343 173.565 194.316 173.621 194.301 173.681C194.287 173.741 194.287 173.804 194.301 173.865L194.78 176.567C194.807 176.702 194.879 176.825 194.984 176.915C195.09 177.005 195.222 177.056 195.36 177.062H198.58C198.642 177.064 198.703 177.052 198.76 177.026C198.816 177 198.866 176.962 198.905 176.914C198.945 176.867 198.972 176.81 198.986 176.75C199.001 176.69 199.001 176.627 198.987 176.567L198.508 173.865C198.481 173.729 198.41 173.606 198.304 173.516C198.199 173.426 198.066 173.374 197.928 173.369V173.369Z" fill="var(--sapContent_Illustrative_Color6)"/>
<path d="M206.331 173.457H203.111C203.049 173.455 202.988 173.467 202.931 173.493C202.875 173.519 202.825 173.557 202.786 173.605C202.747 173.652 202.719 173.709 202.705 173.769C202.69 173.829 202.69 173.892 202.704 173.952L203.18 176.654C203.208 176.79 203.281 176.913 203.387 177.002C203.492 177.092 203.625 177.144 203.764 177.15H206.98C207.042 177.152 207.104 177.14 207.161 177.115C207.217 177.09 207.267 177.051 207.307 177.003C207.346 176.955 207.374 176.899 207.388 176.838C207.402 176.778 207.402 176.715 207.387 176.654L206.911 173.961C206.886 173.823 206.815 173.698 206.709 173.607C206.604 173.515 206.47 173.463 206.331 173.457V173.457Z" fill="var(--sapContent_Illustrative_Color6)"/>
<path d="M165.568 123.544C165.542 124.048 165.479 124.549 165.378 125.043C165.134 126.203 164.62 127.288 163.879 128.213C163.707 128.432 163.63 128.71 163.663 128.986C163.697 129.262 163.839 129.513 164.058 129.685C164.277 129.856 164.555 129.934 164.831 129.9C165.107 129.867 165.358 129.725 165.53 129.506C166.471 128.327 167.123 126.944 167.434 125.467C167.565 124.833 167.645 124.188 167.673 123.541L165.568 123.544Z" fill="var(--sapContent_Illustrative_Color6)"/>
<path d="M211.787 123.539C211.764 124.039 211.701 124.537 211.6 125.027C211.357 126.176 210.848 127.252 210.114 128.169C209.943 128.385 209.866 128.66 209.898 128.933C209.93 129.206 210.07 129.456 210.286 129.626C210.502 129.796 210.777 129.874 211.05 129.842C211.323 129.81 211.572 129.67 211.743 129.454C212.676 128.284 213.322 126.912 213.63 125.448C213.763 124.819 213.843 124.181 213.869 123.539H211.787Z" fill="var(--sapContent_Illustrative_Color6)"/>
<path d="M207.894 88.261C207.536 88.2663 207.186 88.3681 206.88 88.5556C206.574 88.7431 206.323 89.0093 206.155 89.3264L201.953 96.7643C201.257 97.9941 201.894 99.2244 202.854 99.7639C203.238 99.999 203.689 100.102 204.139 100.058C204.589 100.014 205.014 99.8254 205.349 99.5198C205.506 99.3674 205.64 99.1921 205.746 99L209.948 91.5621C210.139 91.2395 210.24 90.8718 210.239 90.4979C210.239 90.1239 210.138 89.7577 209.947 89.4378C209.734 89.0822 209.434 88.7874 209.075 88.5815C208.715 88.3755 208.309 88.2652 207.894 88.261V88.261Z" fill="var(--sapContent_Illustrative_Color5)"/>
<path d="M161.777 91.9347C161.56 92.0712 161.373 92.2514 161.228 92.4639C161.084 92.6763 160.985 92.9164 160.938 93.1686C160.891 93.4209 160.897 93.6798 160.955 93.929C161.014 94.1781 161.124 94.412 161.278 94.6155L165.963 101.433C166.132 101.678 166.349 101.886 166.6 102.045C166.851 102.204 167.131 102.312 167.425 102.361C167.719 102.41 168.019 102.4 168.31 102.332C168.601 102.264 168.875 102.138 169.117 101.962C169.219 101.893 169.315 101.815 169.405 101.73C169.739 101.42 169.946 100.996 169.985 100.543C170.024 100.089 169.892 99.6385 169.615 99.2797L164.93 92.4664C164.761 92.2216 164.545 92.0133 164.294 91.8537C164.043 91.6941 163.763 91.5864 163.47 91.5369C163.176 91.4874 162.875 91.4971 162.585 91.5654C162.294 91.6337 162.02 91.7592 161.777 91.9347V91.9347Z" fill="var(--sapContent_Illustrative_Color5)"/>
<path d="M183.188 82.7036C182.997 82.9092 182.849 83.1515 182.754 83.4156C182.66 83.6796 182.619 83.9599 182.636 84.2393L183.27 96.7812C183.302 97.3435 183.549 97.8704 183.961 98.2517C184.373 98.633 184.917 98.8392 185.479 98.8272C186.001 98.8139 186.5 98.6048 186.877 98.2413C187.095 98.0314 187.264 97.7775 187.375 97.4967C187.486 97.2159 187.535 96.9149 187.519 96.6142L186.885 84.0724C186.854 83.5069 186.605 82.977 186.19 82.5941C185.776 82.2113 185.228 82.0052 184.662 82.0191C184.384 82.0282 184.11 82.0935 183.856 82.2111C183.603 82.3287 183.376 82.4962 183.188 82.7036V82.7036Z" fill="var(--sapContent_Illustrative_Color5)"/>
</svg>
