<svg xmlns="http://www.w3.org/2000/svg" xmlns:xlink="http://www.w3.org/1999/xlink" width="160" height="160" viewBox="0 0 160 160" id="sapIllus-Dialog-NoActivities">
    <path class="sapIllus_BackgroundColor" d="M134.1347,60.77c-4.8354-6.7991-12.41-12.1858-23.0668-14.9839C92.34,40.87,64.59,30.4218,45.39,36.6026c-17.9269,5.771-31.5612,23.5493-32.7692,42.6131-2.1975,34.6766,28.1671,55.4094,58.962,57.266,14.2417.8585,28.9221-1.24,41.4287-8.141C138.499,114.2769,148.641,81.1676,134.1347,60.77Z"/>
    <path class="sapIllus_PatternShadow" d="M130.59,43.4651l.0184-.7654-64.9769-.0169A18.8486,18.8486,0,0,0,48.1428,55.7h.05A36.4516,36.4516,0,0,0,46.28,71.663c1.3982,15.3072,6.8041,37.4434-7.8859,49.4026a1.3655,1.3655,0,0,0,.8329,2.4423l9.9551.1918h57.9609a.7162.7162,0,0,0,.36-.0976c17.6682-10.3588,15.3-31.1218,13.3966-47.8054-.2527-2.2212-.4525-4.3684-.6825-6.39-.6084-5.3545-.91-9.8527-.2161-13.7067a21.942,21.942,0,0,1,2.816-6.6955,16.8947,16.8947,0,0,1,2.8883-3.061l.0016-.0012.0036-.0027.9021-.6417A14.6359,14.6359,0,0,1,130.59,43.4651Z"/>
    <path class="sapIllus_Layering1" d="M35.1647,118.508a1.3653,1.3653,0,0,1-.8328-2.442C49.02,104.1086,43.2985,81.9754,41.9007,66.67,40.8924,55.629,43.9608,39.3845,61.0845,37.71c.0694-.0068.141-.01.2108-.01L123.856,37.45a.0521.0521,0,0,1,.03.0946l-4.5976,3.2878c-4.1379,5.5034-5.0055,12.9293-3.7944,23.5855.23,2.0215.43,4.168.6824,6.3889,1.9087,16.7274,4.284,37.5565-13.5448,47.8832a.0715.0715,0,0,1-.0353.01H44.8022Z"/>
    <path class="sapIllus_AccentColor" d="M106.2385,49.777l9.2948.0007a15.7976,15.7976,0,0,1,5.6115-9.8035c1.0144-.7914,2.4727-1.7391,3.5392-2.4077a.46.46,0,0,0-.2466-.85l-15.6359-.0041Z"/>
    <path class="sapIllus_ObjectFillColor" d="M27.8837,112.424a1.3653,1.3653,0,0,1-.8327-2.442C41.7387,98.0246,37.0115,75.9754,35.6137,60.67,34.6255,49.85,37.5528,34.0314,53.788,31.8272A16.5838,16.5838,0,0,1,56.0227,31.7l63.1869.0172-5.2609,3.3453c-6.6571,5.5353-5.9526,12.7-4.7414,23.3559.23,2.0215.43,4.168.6823,6.3889,1.9034,16.68,4.2706,37.4382-13.3932,47.7949-.1086.0637-57.9812.0978-57.9812.0978Z"/>
    <path class="sapIllus_Layering2" d="M110.88,89.7H86.3874c.6569-7.359-.283-15.1251-1.1216-22.04-.04-.329-.0751-.6361-.1143-.96h24.7544l-.2772-1H85.0324c-.2085-1.747-.4049-3.4483-.5521-5.0594-1.1389-12.474,2.9713-26.5254,17.9251-28.552a.3992.3992,0,0,0,.3417-.4493.3937.3937,0,0,0-.4493-.3417c-7.4543,1.01-12.8149,4.8684-15.9344,11.4678-3.1484,6.6625-3.03,14.1051-2.6788,17.9485.1457,1.5915.3386,3.2673.5432,4.9861h-26.1c-.2084-1.7468-.4047-3.4479-.5518-5.0594-1.1389-12.474,2.9713-26.5254,17.9252-28.552a.3991.3991,0,0,0,.3416-.4493.39.39,0,0,0-.4493-.3417c-7.4543,1.01-12.8149,4.8684-15.9344,11.4678-3.1484,6.6625-3.03,14.1051-2.6788,17.9485.1457,1.5915.3385,3.2672.543,4.9861H35.9969l.096,1H57.442c.0431.3574.082.697.126,1.06.8357,6.8892,1.7715,14.634,1.1062,21.94H37.3149l-.0849,1H58.5761c-.7506,6.6841-2.9262,12.9453-7.8594,17.7726a25.18,25.18,0,0,1-2.8932,2.3824l-1.4073,1.0194a.3995.3995,0,0,0,.4681.6475l1.4072-1.02a26.0042,26.0042,0,0,0,2.9837-2.4588c5.12-5.01,7.3512-11.4721,8.1076-18.3436H85.4807c-.7505,6.6841-2.9259,12.9453-7.8588,17.7726a25.147,25.147,0,0,1-2.894,2.3824l-1.4822,1.0512a.3994.3994,0,0,0,.468.6474l1.4823-1.0512a25.9089,25.9089,0,0,0,2.9845-2.4588c5.1194-5.01,7.3508-11.4721,8.1071-18.3436h24.477Zm-51.3974,0c.6569-7.358-.2827-15.1229-1.1212-22.0365-.04-.33-.0754-.6382-.1147-.9635h26.1c.043.3563.0818.695.1257,1.0571.8356,6.89,1.7718,14.6361,1.1065,21.9429Z"/>
    <path class="sapIllus_Layering1" d="M15.3073,34.7a.5.5,0,0,1-.5-.5v-3a.5.5,0,0,1,1,0v3A.5.5,0,0,1,15.3073,34.7Z"/>
    <path class="sapIllus_Layering1" d="M22.3073,38.7h-3a.5.5,0,0,1,0-1h3a.5.5,0,1,1,0,1Z"/>
    <path class="sapIllus_Layering1" d="M15.3073,45.7a.5.5,0,0,1-.5-.5v-3a.5.5,0,0,1,1,0v3A.5.5,0,0,1,15.3073,45.7Z"/>
    <path class="sapIllus_Layering1" d="M11.3073,38.7h-3a.5.5,0,1,1,0-1h3a.5.5,0,0,1,0,1Z"/>
    <path class="sapIllus_Layering1" d="M143.3073,118.7a.5.5,0,0,1-.5-.5v-3a.5.5,0,0,1,1,0v3A.5.5,0,0,1,143.3073,118.7Z"/>
    <path class="sapIllus_Layering1" d="M150.3088,122.7h-3.0015a.5.5,0,0,1,0-1h3.0015a.5.5,0,1,1,0,1Z"/>
    <path class="sapIllus_Layering1" d="M143.3073,129.7168a.5.5,0,0,1-.5-.5v-3a.5.5,0,1,1,1,0v3A.5.5,0,0,1,143.3073,129.7168Z"/>
    <path class="sapIllus_Layering1" d="M139.3117,122.7h-3.0039a.5.5,0,0,1,0-1h3.0039a.5.5,0,0,1,0,1Z"/>
    <path class="sapIllus_BrandColorSecondary" d="M37.2529,43.7726a18.8714,18.8714,0,0,1,6.4925-9.1766A22.8451,22.8451,0,0,1,54.8167,30.7l64.5985.3446.3468.4415a14.5281,14.5281,0,0,0-4.9064,2.4884,17.2042,17.2042,0,0,0-6.0616,9.8035"/>
    <path class="sapIllus_StrokeDetailColor" d="M119.3147,30.792l-17.5074-.0254V27.6219A1.9221,1.9221,0,0,0,99.8851,25.7H99.73a1.9222,1.9222,0,0,0-1.9223,1.9222v3.1389l-35-.0507V27.6219A1.9221,1.9221,0,0,0,60.8851,25.7H60.73a1.9222,1.9222,0,0,0-1.9223,1.9222v3.0824L55.62,30.7a16.9688,16.9688,0,0,0-2.2895.1309c-7.4551,1.01-12.8169,4.87-15.937,11.47C34.25,48.9526,34.3679,56.3794,34.718,60.2144c.1821,1.99.42,4.07.6728,6.2724,1.6578,14.459,3.72,32.4541-8.851,42.6875a1.8779,1.8779,0,0,0-.5967,2.105,1.8293,1.8293,0,0,0,1.7412,1.2246l10.4331.1919H96.5085c.0142.001.0279.0015.0415.0015a.518.518,0,0,0,.2583-.0689c17.58-10.1821,15.2364-30.5259,13.3535-46.8721l-.1733-1.5078c-.1284-1.1313-.2432-2.2436-.3555-3.33-.1079-1.0455-.2138-2.0669-.3266-3.0581-1.1275-9.92-1.418-17.3711,5.1245-22.899.1714-.1181,3.1733-2.0058,5.1489-3.2461a.5.5,0,0,0-.2651-.9233Zm-5.4995,3.3828c-6.9371,5.8589-6.6275,13.898-5.502,23.7988.1123.9878.2173,2.0059.3252,3.0479.1123,1.0893.2275,2.2051.3569,3.34l.1729,1.5088c1.8457,16.021,4.1416,35.9507-12.7451,45.8252H38.1267l-10.4287-.1919a.79.79,0,0,1-.8125-.56.8783.8783,0,0,1,.2856-.9946C40.1672,99.3706,38.07,81.0742,36.3845,66.3726c-.252-2.1958-.49-4.2706-.67-6.2491-1.1294-12.3662,2.94-26.2954,17.75-28.3017A15.9676,15.9676,0,0,1,55.6194,31.7l3.1879.0046v2.0732A1.9223,1.9223,0,0,0,60.73,35.7h.1555a1.9222,1.9222,0,0,0,1.9222-1.9222V31.71l35,.0508v2.0166A1.9223,1.9223,0,0,0,99.73,35.7h.1555a1.9222,1.9222,0,0,0,1.9222-1.9222V31.7667l15.774.0228C113.905,34.0991,113.8459,34.1489,113.8152,34.1748Z"/>
</svg>
