<svg width="128" height="128" viewBox="0 0 128 128" fill="none" xmlns="http://www.w3.org/2000/svg" id="sapIllus-Spot-AddDimensions">
<rect y="40.7041" width="128" height="55" rx="8" fill="var(--sapContent_Illustrative_Color20)"/>
<path d="M78.2809 86.4398L61.4451 81.3382C61.4046 81.3221 61.364 81.3141 61.3235 81.3261L23.9631 85.8336C22.7722 86.0107 22.66 86.4413 23.0216 86.6667L39.8916 91.9534C40.6242 92.2754 41.4035 92.3518 42.1642 92.1748L77.221 87.1602C78.3214 86.971 78.5427 86.5484 78.2809 86.4398Z" fill="var(--sapContent_Illustrative_Color21)"/>
<path d="M69.4951 43.6202L81.7752 78.8925C82.0371 80.2393 80.6124 81.2681 79.7737 81.3398L41.3589 86.7893C40.7042 86.8454 40.1057 86.4121 39.956 85.7699L30.8402 47.5733C30.516 46.002 31.8222 44.119 32.6484 44.0816L68.167 42.6787C68.7718 42.6506 69.3205 43.0372 69.4951 43.6202Z" fill="var(--sapContent_Illustrative_Color14)"/>
<path d="M70.5051 42.5432L81.719 78.5887C81.9622 79.3961 81.4041 80.2223 80.5624 80.294L42.3689 85.7124C41.7142 85.7685 41.1157 85.3351 40.966 84.6929L31.6632 45.7076C31.473 44.9001 32.0653 44.1207 32.8946 44.0802L69.177 41.5986C69.7818 41.5705 70.3305 41.9571 70.5051 42.5401V42.5432Z" fill="var(--sapContent_Illustrative_Color2)"/>
<path d="M55.0186 48.359C55.0534 48.4843 54.9629 48.6097 54.8341 48.6166L41.7573 49.3097C41.6912 49.3132 41.6668 49.3967 41.7225 49.435L73.3989 72.454C73.4546 72.4923 73.5242 72.44 73.5068 72.3774L70.2024 61.5913C70.1641 61.4694 70.2477 61.3406 70.3765 61.3267L73.2762 61.1839C73.3737 61.1735 73.4642 61.2327 73.4956 61.3267L78.3709 77.4113C78.4092 77.5332 78.3292 77.6585 78.2003 77.6759L59.1461 79.7496C59.0451 79.7635 58.9511 79.7009 58.9233 79.6034L58.0336 76.5701C57.9988 76.4482 58.0789 76.3264 58.2042 76.309L70.7989 75.2254C70.8616 75.2185 70.8825 75.1349 70.8303 75.1001L40.042 52.7415C39.9897 52.7032 39.9201 52.7519 39.934 52.8146L42.9384 65.0417C42.9697 65.1636 42.8827 65.2854 42.7573 65.2959L39.8106 65.5918C39.7096 65.5987 39.6191 65.5326 39.5947 65.4351L34.9589 46.7732C34.9275 46.6479 35.0181 46.526 35.1469 46.519L53.9928 45.166C54.0903 45.1591 54.1773 45.2252 54.2017 45.3192L55.0186 48.359Z" fill="var(--sapContent_Illustrative_Color14)"/>
<path d="M45.6025 37.906L53.7706 68.1284C53.9456 68.7659 54.5643 69.1783 55.2236 69.094L89.7894 64.6162C91.8361 64.0975 92.4205 62.4477 92.1424 61.6508L81.2933 34.1C81.0964 33.5376 80.5496 33.1751 79.9559 33.2126L47.2149 33.6282C46.3743 33.6813 44.687 34.8906 45.6025 37.9091V37.906Z" fill="var(--sapContent_Illustrative_Color22"/>
<path d="M46.034 35.296L54.6052 66.9777C54.7802 67.6152 55.3989 68.0276 56.0582 67.9433L91.0615 63.4093C91.8989 63.2999 92.4239 62.45 92.1458 61.6532L82.1247 32.9462C81.9279 32.3838 81.3811 32.0213 80.7874 32.0588L47.2308 33.6149C46.3903 33.668 45.8091 34.4805 46.034 35.2929V35.296Z" fill="var(--sapContent_Illustrative_Color8)"/>
<path d="M67.6764 42.1374L63.3292 42.4981C63.0909 42.5191 62.9485 42.701 63.0139 42.9075L68.8425 61.0933C68.9115 61.3101 69.1662 61.4617 69.4078 61.4338L73.8115 60.9236C74.0497 60.8957 74.1884 60.7 74.116 60.4867L68.2244 42.4747C68.159 42.2717 67.9112 42.12 67.6764 42.1409L67.6764 42.1374Z" fill="var(--sapContent_Illustrative_Color2)"/>
<path d="M61.5451 48.7833L57.057 49.2015C56.8084 49.2261 56.6627 49.415 56.7282 49.6283L60.5804 62.0466C60.6495 62.2668 60.9077 62.4219 61.1561 62.3904L65.6841 61.8645C65.9291 61.8365 66.0747 61.6372 66.0057 61.4204L62.1069 49.1239C62.0415 48.914 61.7902 48.7623 61.5451 48.7833Z" fill="var(--sapContent_Illustrative_Color2)"/>
<path d="M74.3085 37.9175L70.0952 38.2174C69.8638 38.2348 69.7282 38.4097 69.7935 38.6093L76.8805 60.1662C76.9495 60.3795 77.2007 60.5277 77.4354 60.5034L81.7183 60.0054C81.9495 59.9776 82.0814 59.7854 82.009 59.5756L74.8426 38.2482C74.7773 38.0486 74.5365 37.9037 74.3085 37.9175Z" fill="var(--sapContent_Illustrative_Color2)"/>
<path d="M83.0455 35.5803L82.1014 32.8895C81.9047 32.3274 81.3582 31.9652 80.7649 32.0027L47.2321 33.5546C46.389 33.6076 45.8113 34.4195 46.033 35.2345L46.7117 37.585L83.0424 35.5803H83.0455Z" fill="var(--sapContent_Illustrative_Color2)"/>
<path d="M101.336 64.2247C101.336 64.2247 98.4508 68.1448 92.8473 68.8728C87.2438 69.6008 79.5573 65.453 77.5491 59.0719C75.3667 52.1369 79.3594 47.3845 86.1819 45.9057C92.4281 45.4077 101.336 64.2247 101.336 64.2247Z" fill=" var(--sapContent_Illustrative_Color16)"/>
<path d="M102.093 55.4721C104.413 61.5447 101.162 67.2511 94.6167 68.0447C87.911 68.8576 80.6752 64.1923 78.6671 57.8079C76.7264 51.6421 80.4921 46.3759 86.8796 45.865C93.1258 45.367 99.8507 49.5922 102.097 55.4688L102.093 55.4721Z" fill="var(--sapContent_Illustrative_Color15)"/>
<path d="M96.9569 55.0441C96.8991 54.89 96.7446 54.7942 96.5808 54.811L91.8302 55.2981C91.665 55.3151 91.5094 55.2174 91.4527 55.0613L89.924 50.8467C89.8679 50.692 89.7146 50.5945 89.5507 50.6094L87.0438 50.8367C86.8083 50.8581 86.656 51.0958 86.7352 51.3187L88.1226 55.2264C88.2011 55.4476 88.0517 55.684 87.8181 55.708L83.2044 56.1813C82.9726 56.2051 82.8232 56.4384 82.8986 56.6589L83.6759 58.9309C83.7308 59.0913 83.8896 59.1922 84.0582 59.1737L89.0359 58.6276C89.2029 58.6093 89.3605 58.7082 89.4168 58.8665L90.9805 63.2679C91.0373 63.4276 91.1972 63.5267 91.3655 63.5062L93.9312 63.1948C94.1625 63.1667 94.3076 62.9306 94.2281 62.7116L92.7616 58.6707C92.6815 58.4499 92.8293 58.2125 93.0627 58.187L97.4727 57.7042C97.7078 57.6785 97.8555 57.4381 97.7725 57.2168L96.9569 55.0441Z" fill="var(--sapContent_Illustrative_Color8)"/>
</svg>
