<svg width="320" height="245" viewBox="0 0 320 245" fill="none" xmlns="http://www.w3.org/2000/svg" id="sapIllus-Scene-SearchFolder">
<mask id="mask0_396_4278" style="mask-type:alpha" maskUnits="userSpaceOnUse" x="0" y="0" width="320" height="200">
<path d="M305.547 6.15619e-06H14.4533C12.5559 -0.00174584 10.6768 0.37047 8.92329 1.09536C7.16981 1.82026 5.57638 2.88362 4.23409 4.22468C2.8918 5.56573 1.82697 7.15817 1.10045 8.91098C0.373942 10.6638 -8.08861e-07 12.5426 0 14.44V185.547C0 189.38 1.52275 193.056 4.23328 195.767C6.9438 198.477 10.6201 200 14.4533 200H305.547C309.38 200 313.056 198.477 315.767 195.767C318.477 193.056 320 189.38 320 185.547V14.44C320 12.5426 319.626 10.6638 318.9 8.91098C318.173 7.15817 317.108 5.56573 315.766 4.22468C314.424 2.88362 312.83 1.82026 311.077 1.09536C309.323 0.37047 307.444 -0.00174584 305.547 6.15619e-06Z" style="fill:var(--sapContent_Illustrative_Color7)"/>
</mask>
<g mask="url(#mask0_396_4278)">
<path d="M305.547 6.15619e-06H14.4533C12.5559 -0.00174584 10.6768 0.37047 8.92329 1.09536C7.16981 1.82026 5.57638 2.88362 4.23409 4.22468C2.8918 5.56573 1.82697 7.15817 1.10045 8.91098C0.373942 10.6638 -8.08861e-07 12.5426 0 14.44V185.547C0 189.38 1.52275 193.056 4.23328 195.767C6.9438 198.477 10.6201 200 14.4533 200H305.547C309.38 200 313.056 198.477 315.767 195.767C318.477 193.056 320 189.38 320 185.547V14.44C320 12.5426 319.626 10.6638 318.9 8.91098C318.173 7.15817 317.108 5.56573 315.766 4.22468C314.424 2.88362 312.83 1.82026 311.077 1.09536C309.323 0.37047 307.444 -0.00174584 305.547 6.15619e-06Z" style="fill:var(--sapContent_Illustrative_Color7)"/>
<path d="M-1.67725 180.836L77.3457 154.219C80.7165 153.075 82.4973 149.449 81.3843 146.11L42.652 31.1217C41.5072 27.7509 37.882 25.9701 34.543 27.0831L-44.48 53.7315C-47.8508 54.8763 -49.6316 58.5015 -48.5186 61.8405L-9.78625 176.829C-8.64145 180.2 -5.01625 181.981 -1.67725 180.868V180.836Z" style="fill:var(--sapContent_Illustrative_Color19)"/>
<path d="M-5.08009 178.801L73.6249 151.835C76.9639 150.69 78.7447 147.065 77.5999 143.726L38.3587 29.2139C37.2139 25.8749 33.5887 24.0941 30.2497 25.2389L-48.4553 52.2053C-51.7943 53.3501 -53.5751 56.9753 -52.4303 60.3143L-13.2209 174.826C-12.0761 178.165 -8.45089 179.946 -5.11189 178.801H-5.08009Z" style="fill:var(--sapContent_Illustrative_Color18)"/>
<path d="M24.3666 54.2083L-21.966 70.0765L-16.3056 86.5807L30.027 70.7125L24.3666 54.2083Z" style="fill:var(--sapContent_Illustrative_Color7)"/>
<path d="M363.766 42.6729L286.89 16.3389C283.625 15.2301 280.083 16.9549 278.974 20.2197L240.659 132.054C239.55 135.319 241.275 138.861 244.54 139.97L321.416 166.304C324.681 167.413 328.223 165.688 329.332 162.423L367.647 50.5885C368.756 47.3237 367.031 43.7817 363.766 42.6729Z" style="fill:var(--sapContent_Illustrative_Color18)"/>
<path d="M317.659 44.5821C315.133 43.5657 312.33 43.3193 309.681 43.9045C307.002 44.4589 304.569 45.8141 302.659 47.7853C300.749 49.7565 299.456 52.2205 298.963 54.9001C298.47 57.5797 298.778 60.3517 299.856 62.8773C300.934 65.4029 302.721 67.5281 305.031 69.0065C307.31 70.4849 309.989 71.2857 312.731 71.2241C315.472 71.1933 318.121 70.3309 320.369 68.7909C322.617 67.2509 324.373 65.0641 325.389 62.5385L312.546 57.4257L317.689 44.5821H317.659Z" style="fill:var(--sapContent_Illustrative_Color7)"/>
<path d="M321.755 42.7034L316.642 55.5162L329.455 60.629C330.133 58.935 330.472 57.1486 330.441 55.3314C330.441 53.5142 330.04 51.7278 329.332 50.0646C328.624 48.4014 327.576 46.8922 326.283 45.6294C324.989 44.3666 323.449 43.381 321.755 42.7034Z" style="fill:var(--sapContent_Illustrative_Color19)"/>
<path d="M332.412 88.5651L278.851 70.2083C277.064 69.5923 275.155 70.5471 274.539 72.3335C273.923 74.1199 274.877 76.0295 276.664 76.6455L330.225 95.0023C332.011 95.6183 333.921 94.6635 334.537 92.8771C335.153 91.0907 334.198 89.1811 332.412 88.5651Z" style="fill:var(--sapContent_Illustrative_Color7)"/>
<path d="M327.792 99.4684L274.231 81.1116C272.444 80.4956 270.535 81.4504 269.919 83.2368C269.303 85.0232 270.257 86.9328 272.044 87.5488L325.605 105.906C327.391 106.522 329.332 105.567 329.917 103.78C330.533 101.994 329.578 100.084 327.792 99.4684Z" style="fill:var(--sapContent_Illustrative_Color7)"/>
<path d="M298.347 101.563L269.826 91.7991C268.04 91.1831 266.1 92.1379 265.514 93.9243C264.898 95.7107 265.853 97.6203 267.64 98.2363L296.191 108C297.978 108.616 299.887 107.661 300.503 105.875C301.119 104.088 300.164 102.179 298.378 101.563H298.347Z" style="fill:var(--sapContent_Illustrative_Color7)"/>
<path d="M189.791 166.858L180.747 168.997L227.751 158.062L212.588 161.562L189.791 166.858Z" style="fill:var(--sapContent_Illustrative_Color20)"/>
<path d="M111.08 173.724L110.705 165.048L92.317 93.6319C92.2432 93.3518 92.2264 93.0599 92.2675 92.7733C92.3086 92.4866 92.4068 92.2112 92.5564 91.963C92.706 91.7149 92.9039 91.4991 93.1384 91.3285C93.3729 91.1578 93.6393 91.0356 93.9218 90.9693L97.3265 90.1614L95.0018 81.1858C94.9301 80.9039 94.9153 80.6105 94.9581 80.3228C95.0009 80.0351 95.1006 79.7587 95.2512 79.5097C95.4019 79.2606 95.6006 79.0439 95.8358 78.872C96.071 78.7001 96.338 78.5763 96.6215 78.5081L101.511 77.3562L99.3063 67.2736C99.2642 66.9639 99.2841 66.6491 99.3648 66.3472C99.4456 66.0453 99.5855 65.7623 99.7766 65.5147C99.9677 65.2671 100.206 65.0597 100.478 64.9046C100.75 64.7495 101.05 64.6497 101.361 64.611L171.088 50.9679L175.167 44.9842L84.278 66.5107C83.7189 66.6443 83.1927 66.8892 82.7307 67.2305C82.2686 67.5718 81.8804 68.0025 81.5891 68.4969C81.2979 68.9913 81.1096 69.5392 81.0356 70.1079C80.9616 70.6765 81.0033 71.2541 81.1583 71.8063L109.895 174.367C110.635 177 112.302 179.278 114.589 180.785C113.536 179.923 112.679 178.848 112.074 177.631C111.469 176.413 111.13 175.082 111.08 173.724Z" style="fill:var(--sapContent_Illustrative_Color20)"/>
<path d="M93.9219 90.9543C93.6393 91.0207 93.373 91.1429 93.1385 91.3135C92.904 91.4842 92.706 91.6999 92.5564 91.9481C92.4069 92.1963 92.3086 92.4717 92.2675 92.7583C92.2264 93.045 92.2433 93.3369 92.3171 93.617L110.72 165.033L109.52 137.433L97.3415 90.1465L93.9219 90.9543Z" style="fill:var(--sapContent_Illustrative_Color7)"/>
<path d="M101.511 77.2965L96.6215 78.4484C96.338 78.5167 96.071 78.6402 95.8358 78.8122C95.6005 78.9841 95.4018 79.2008 95.2512 79.4498C95.1005 79.6989 95.0009 79.9753 94.9581 80.263C94.9152 80.5507 94.9301 80.844 95.0017 81.126L97.3264 90.1016L109.505 137.388L108.23 107.963L101.511 77.2965Z" style="fill:var(--sapContent_Illustrative_Color18)"/>
<path d="M99.3063 67.2136L101.511 77.2962L108.23 108.007L107.135 82.4121C107.031 80.1195 107.732 77.8625 109.118 76.0302C110.503 74.1978 112.486 72.905 114.724 72.3745L162.629 61.0205C163.817 60.7497 164.857 60.0383 165.538 59.0308L171.088 50.908L101.361 64.5209C101.047 64.5594 100.744 64.66 100.47 64.8171C100.196 64.9741 99.9561 65.1843 99.7647 65.4352C99.5732 65.6861 99.434 65.9727 99.3553 66.2781C99.2766 66.5835 99.2599 66.9017 99.3063 67.2136Z" style="fill:var(--sapContent_Illustrative_Color7)"/>
<path d="M255.145 15.7751L183.347 32.7201C182.148 33.009 181.099 33.7286 180.403 34.7402L174.332 43.7855L170.204 49.8158L164.589 58.0019C163.899 59.0173 162.847 59.7341 161.645 60.0069L113.172 71.4494C110.907 71.984 108.901 73.2869 107.499 75.1335C106.097 76.9801 105.388 79.2547 105.493 81.5651L106.601 107.359L107.891 137.013L109.105 164.828L109.485 173.572C109.551 175.002 109.934 176.4 110.606 177.667C111.278 178.934 112.223 180.039 113.373 180.902C114.524 181.766 115.851 182.367 117.262 182.663C118.672 182.96 120.131 182.944 121.535 182.617L179.962 168.838L189.068 166.667L212.136 161.33L227.464 157.802L269.957 147.988C270.932 147.77 271.795 147.208 272.386 146.408C272.977 145.607 273.257 144.621 273.174 143.631L263.704 22.0165C263.635 21.0146 263.347 20.0398 262.859 19.16C262.372 18.2802 261.698 17.5166 260.883 16.9224C260.068 16.3282 259.132 15.9177 258.141 15.7196C257.15 15.5214 256.128 15.5404 255.145 15.7751Z" style="fill:var(--sapContent_Illustrative_Color20)"/>
<path d="M91.4879 22.759C91.1267 23.0458 90.8495 23.4248 90.6854 23.8559C90.5214 24.2871 90.4766 24.7545 90.5558 25.2089L92.1569 36.0674C92.4209 37.8634 94.047 38.611 95.4546 38.4038C96.0338 38.34 96.5766 38.0899 97.0015 37.6912C97.4264 37.2924 97.7103 36.7665 97.8107 36.1924C97.8509 35.9137 97.8488 35.6304 97.8043 35.3523L96.2031 24.4938C96.1427 24.016 95.9542 23.5634 95.6576 23.1839C95.361 22.8044 94.9673 22.5122 94.5183 22.3382C94.0191 22.1445 93.4788 22.0814 92.9484 22.1551C92.4181 22.2287 91.9154 22.4366 91.4879 22.759Z" style="fill:var(--sapContent_Illustrative_Color5)"/>
<path d="M47.28 62.7807C47.1659 63.0905 47.1176 63.4207 47.1382 63.7501C47.1589 64.0796 47.248 64.4012 47.3999 64.6944C47.5517 64.9875 47.7631 65.2457 48.0204 65.4525C48.2777 65.6594 48.5752 65.8103 48.8941 65.8957L59.0844 69.1303C59.4512 69.2454 59.8372 69.2862 60.22 69.2504C60.6027 69.2146 60.9745 69.1029 61.3136 68.9219C61.6527 68.7408 61.9523 68.494 62.195 68.1958C62.4377 67.8977 62.6185 67.5542 62.727 67.1854C62.7759 67.0345 62.8124 66.8799 62.8361 66.7231C62.932 66.1451 62.8078 65.552 62.4881 65.061C62.1684 64.5699 61.6764 64.2164 61.109 64.0703L50.9225 60.8397C50.556 60.724 50.1701 60.6826 49.7874 60.7179C49.4047 60.7532 49.0329 60.8644 48.6937 61.0452C48.3545 61.2259 48.0548 61.4725 47.812 61.7705C47.5693 62.0685 47.3884 62.412 47.28 62.7807Z" style="fill:var(--sapContent_Illustrative_Color5)"/>
<path d="M61.8403 36.5595C61.808 36.9187 61.8493 37.2808 61.9617 37.6235C62.0741 37.9662 62.2552 38.2824 62.4939 38.5527L73.0814 50.7873C73.5593 51.3333 74.2298 51.6735 74.9527 51.7366C75.6756 51.7997 76.3949 51.581 76.9602 51.126C77.4828 50.7019 77.8269 50.0969 77.9243 49.4309C77.9799 49.047 77.952 48.6556 77.8426 48.2834C77.7332 47.9112 77.5449 47.5669 77.2904 47.2741L66.7029 35.0395C66.2228 34.4901 65.5483 34.1481 64.8213 34.0856C64.0944 34.0231 63.3715 34.2448 62.8045 34.7042C62.5272 34.9326 62.2988 35.2146 62.1331 35.5334C61.9674 35.8522 61.8678 36.2012 61.8403 36.5595Z" style="fill:var(--sapContent_Illustrative_Color5)"/>
<path d="M17.8165 192.223C18.0324 192.051 18.2113 191.837 18.3424 191.594C18.4736 191.352 18.5543 191.085 18.5798 190.81C18.6061 190.503 18.5701 190.194 18.4742 189.901C18.3783 189.609 18.2243 189.339 18.0215 189.107C17.6368 188.639 17.0862 188.337 16.4846 188.265C15.883 188.192 15.2767 188.355 14.7918 188.718C14.6316 188.848 14.4911 189 14.3748 189.17C14.1782 189.458 14.0589 189.791 14.0286 190.139C14.0015 190.445 14.037 190.755 14.133 191.047C14.2289 191.34 14.3833 191.61 14.5868 191.842C14.9726 192.309 15.5236 192.609 16.1252 192.68C16.7268 192.751 17.3326 192.587 17.8165 192.223Z" style="fill:var(--sapContent_Illustrative_Color19)"/>
<path d="M34.7848 177.518L-15.689 118.338C-16.8692 116.925 -18.7703 116.593 -19.9293 117.526L-22.1555 119.313L-50.9401 142.413C-52.1062 143.346 -52.2263 145.063 -51.0461 146.448L-0.565182 205.628C-0.0217133 206.28 0.724915 206.73 1.55497 206.907L1.15214 206.716C1.60045 206.938 2.10079 207.032 2.59904 206.99C3.09731 206.948 3.57452 206.77 3.97901 206.476L7.02496 204.031L34.8272 181.723C35.9862 180.818 35.9862 178.903 34.7848 177.518ZM-47.0673 147.607L-15.2155 122.048L29.23 174.155L-2.62176 199.714L-47.0673 147.607ZM-29.3004 130.4L-35.9789 135.757C-36.1979 135.933 -36.5795 135.855 -36.9258 135.594C-36.8086 135.597 -36.6939 135.559 -36.6008 135.488L-29.4558 129.757C-29.3638 129.683 -29.3032 129.577 -29.2862 129.46C-29.0813 129.849 -29.0813 130.231 -29.3004 130.414V130.4ZM14.3536 188.153C14.9809 187.678 15.7671 187.463 16.5488 187.553C17.3306 187.642 18.0478 188.029 18.5515 188.634C18.8125 188.937 19.0096 189.29 19.131 189.671C19.2524 190.052 19.2957 190.454 19.2583 190.852C19.2163 191.315 19.0583 191.76 18.7989 192.146C18.6428 192.376 18.4521 192.581 18.2335 192.753C17.608 193.229 16.8225 193.445 16.0414 193.356C15.2604 193.266 14.5442 192.878 14.0427 192.273C13.7799 191.971 13.5817 191.618 13.4602 191.236C13.3387 190.855 13.2964 190.452 13.336 190.054C13.3701 189.687 13.4779 189.331 13.6527 189.007C13.8276 188.683 14.066 188.397 14.3536 188.167V188.153Z" style="fill:var(--sapContent_Illustrative_Color19)"/>
<path d="M18.2477 192.767C18.4663 192.595 18.6569 192.39 18.813 192.16C19.0725 191.774 19.2304 191.329 19.2724 190.867C19.3099 190.468 19.2666 190.066 19.1452 189.685C19.0237 189.304 18.8266 188.951 18.5657 188.648C18.0619 188.043 17.3447 187.656 16.563 187.567C15.7812 187.477 14.9951 187.692 14.3678 188.167C14.0785 188.399 13.8392 188.687 13.6642 189.014C13.4893 189.34 13.3824 189.699 13.3501 190.068C13.3105 190.467 13.3528 190.869 13.4744 191.25C13.5959 191.632 13.7941 191.985 14.0568 192.287C14.5583 192.892 15.2745 193.28 16.0556 193.37C16.8366 193.46 17.6221 193.244 18.2477 192.767ZM14.3748 189.164C14.4911 188.993 14.6316 188.841 14.7918 188.711C15.2767 188.348 15.883 188.186 16.4846 188.258C17.0862 188.33 17.6368 188.632 18.0215 189.1C18.2243 189.332 18.3783 189.602 18.4742 189.895C18.5701 190.187 18.6061 190.496 18.5798 190.803C18.5543 191.078 18.4736 191.345 18.3424 191.588C18.2113 191.83 18.0324 192.044 17.8165 192.216C17.3317 192.58 16.7253 192.742 16.1237 192.67C15.5221 192.597 14.9716 192.296 14.5868 191.828C14.3833 191.596 14.229 191.326 14.133 191.033C14.037 190.741 14.0015 190.432 14.0286 190.125C14.0601 189.78 14.1793 189.449 14.3748 189.164Z" style="fill:var(--sapContent_Illustrative_Color20)"/>
<path d="M-15.2154 122.062L-47.0672 147.621L-2.62172 199.728L29.23 174.162L-15.2154 122.062Z" style="fill:var(--sapContent_Illustrative_Color7)"/>
</g>
<g clip-path="url(#clip0_396_4278)">
<path opacity="0.5" d="M233.761 161.309C259.695 156.332 276.613 130.896 271.538 104.452C266.464 78.008 241.329 60.6282 215.395 65.6051C189.461 70.5819 172.542 96.0182 177.619 122.476C182.697 148.933 207.827 166.286 233.761 161.309Z" style="fill:var(--sapContent_Illustrative_Color7)"/>
<path d="M235.016 67.6228L216.397 65.4126L203.752 158.497L222.384 160.705L235.016 67.6228Z" style="fill:var(--sapContent_Illustrative_Color8)"/>
<path d="M229.748 162.079L242.924 68.7262L237.133 68.0345L223.944 161.39L229.748 162.079Z" style="fill:var(--sapContent_Illustrative_Color8)"/>
<path d="M256.144 151.633L244.287 159.289L256.401 178.045L268.245 170.391L256.144 151.633Z" style="fill:var(--sapContent_Illustrative_Color6)"/>
<path d="M256.558 176.336C255.957 176.731 255.536 177.348 255.388 178.052C255.24 178.756 255.376 179.49 255.768 180.093L284.011 223.643C285.176 225.402 286.991 226.628 289.058 227.053C291.125 227.477 293.276 227.066 295.04 225.909L296.445 224.987C297.335 224.418 298.102 223.676 298.702 222.806C299.302 221.936 299.722 220.955 299.938 219.921C300.359 217.85 299.945 215.696 298.788 213.928L270.555 170.432C270.36 170.13 270.106 169.869 269.81 169.665C269.514 169.461 269.18 169.318 268.828 169.244C268.476 169.169 268.112 169.165 267.759 169.232C267.405 169.299 267.068 169.436 266.768 169.634L256.558 176.336Z" style="fill:var(--sapContent_Illustrative_Color3)"/>
<path d="M243.626 158.306L245.577 161.246C245.577 161.246 252.837 162.946 258.703 155.357L255.58 150.645L250.231 154.639L243.626 158.306Z" style="fill:var(--sapContent_Illustrative_Color4)"/>
<path d="M234.4 162.906C222.985 165.126 211.154 163.317 200.924 157.788C190.694 152.259 182.699 143.352 178.301 132.587C173.903 121.822 173.375 109.864 176.808 98.7534C180.24 87.6427 187.42 78.0669 197.124 71.6588C206.827 65.2507 218.453 62.4072 230.019 63.6132C241.584 64.8192 252.373 69.9999 260.547 78.272C268.72 86.5441 273.771 97.3953 274.838 108.975C275.906 120.555 272.923 132.147 266.4 141.773C258.954 152.779 247.445 160.38 234.4 162.906ZM216.249 68.3256C205.763 70.3189 196.292 75.8879 189.451 84.0831C182.611 92.2784 178.825 102.592 178.738 113.267C178.651 123.942 182.268 134.317 188.974 142.623C195.68 150.929 205.059 156.652 215.511 158.817C225.964 160.982 236.844 159.454 246.296 154.494C255.749 149.534 263.188 141.449 267.347 131.618C271.506 121.786 272.126 110.816 269.102 100.578C266.078 90.34 259.597 81.4676 250.764 75.4733C245.764 72.0701 240.142 69.687 234.219 68.4604C228.296 67.2339 222.19 67.1881 216.249 68.3256Z" style="fill:var(--sapContent_Illustrative_Color4)"/>
</g>
<defs>
<clipPath id="clip0_396_4278">
<rect width="104.585" height="174.392" style="fill:var(--sapContent_Illustrative_Color8)" transform="translate(166 73.7107) rotate(-10.8633)"/>
</clipPath>
</defs>
</svg>
