<svg width="320" height="240" viewBox="0 0 320 240" fill="none" xmlns="http://www.w3.org/2000/svg" id="sapIllus-Scene-SimpleBell">
<path d="M130.573 148.696H33.96C18.1941 148.696 5.41333 161.477 5.41333 177.243C5.41333 193.009 18.1941 205.79 33.96 205.79H130.573C146.339 205.79 159.12 193.009 159.12 177.243C159.12 161.477 146.339 148.696 130.573 148.696Z" fill="var(--sapContent_Illustrative_Color7)"/>
<path d="M165.747 177.03H69.1333C53.3674 177.03 40.5867 189.81 40.5867 205.576C40.5867 221.342 53.3674 234.123 69.1333 234.123H165.747C181.513 234.123 194.293 221.342 194.293 205.576C194.293 189.81 181.513 177.03 165.747 177.03Z" fill="var(--sapContent_Illustrative_Color7)"/>
<path d="M291.453 98.083H194.84C179.074 98.083 166.293 110.864 166.293 126.63C166.293 142.396 179.074 155.176 194.84 155.176H291.453C307.219 155.176 320 142.396 320 126.63C320 110.864 307.219 98.083 291.453 98.083Z" fill="var(--sapContent_Illustrative_Color7)"/>
<path d="M219.453 45.9629H37.8267C16.9356 45.9629 0 62.8985 0 83.7896V83.8029C0 104.694 16.9356 121.63 37.8267 121.63H219.453C240.344 121.63 257.28 104.694 257.28 83.8029V83.7896C257.28 62.8985 240.344 45.9629 219.453 45.9629Z" fill="var(--sapContent_Illustrative_Color7)"/>
<path d="M158.187 41.5608C154.923 41.5608 151.792 42.8575 149.484 45.1657C147.176 47.4738 145.879 50.6044 145.879 53.8687V70.8755H170.512V53.8687C170.507 50.6029 169.207 47.4723 166.896 45.1647C164.585 42.857 161.453 41.5608 158.187 41.5608Z" fill="var(--sapContent_Illustrative_Color15)"/>
<path d="M222.419 122.933V178.552H93.0864V122.933C93.0864 105.783 99.8995 89.3344 112.027 77.2072C124.154 65.0799 140.602 58.2669 157.753 58.2669C174.903 58.2669 191.351 65.0799 203.479 77.2072C215.606 89.3344 222.419 105.783 222.419 122.933Z" fill="var(--sapContent_Illustrative_Color3)"/>
<path d="M158.187 216.63C166.933 216.63 174.024 209.54 174.024 200.793C174.024 192.047 166.933 184.957 158.187 184.957C149.441 184.957 142.351 192.047 142.351 200.793C142.351 209.54 149.441 216.63 158.187 216.63Z" fill="var(--sapContent_Illustrative_Color3)"/>
<path d="M236.934 184.974C233.054 184.154 222.419 178.552 222.419 178.552H93.0865C93.0865 178.552 82.4509 184.154 78.5713 184.974C74.6916 185.793 71.0796 188.318 71.0796 192.449C71.084 194.433 71.8752 196.334 73.2797 197.735C74.6842 199.137 76.5872 199.924 78.5713 199.924H236.934C238.917 199.924 240.818 199.136 242.22 197.734C243.622 196.333 244.409 194.431 244.409 192.449C244.409 188.318 240.981 185.827 236.934 184.974Z" fill="var(--sapContent_Illustrative_Color15)"/>
<path opacity="0.36" d="M151.365 58.5845C135.4 60.173 120.596 67.6377 109.826 79.529C99.0567 91.4204 93.0905 106.89 93.0864 122.933V178.552H213.623V123.2C213.617 106.469 207.129 90.3906 195.52 78.3419C183.911 66.2932 168.084 59.2117 151.365 58.5845Z" fill="var(--sapContent_Illustrative_Color15)"/>
<rect x="53" y="62" width="69" height="41.4" rx="6" fill="var(--sapContent_Illustrative_Color8)"/>
<path d="M95.8342 100.915C95.2729 100.267 95.7329 99.26 96.5899 99.26H111.34C111.892 99.26 112.34 99.7077 112.34 100.26V117.279C112.34 118.205 111.19 118.634 110.584 117.934L95.8342 100.915Z" fill="var(--sapContent_Illustrative_Color8)"/>
<circle cx="73.7001" cy="82.7" r="4.14" fill="var(--sapContent_Illustrative_Color4)"/>
<circle cx="101.3" cy="82.7" r="4.14" fill="var(--sapContent_Illustrative_Color4)"/>
<circle cx="87.5001" cy="82.7" r="4.14" fill="var(--sapContent_Illustrative_Color4)"/>
</svg>
