<svg width="160" height="160" viewBox="0 0 160 160" fill="none" xmlns="http://www.w3.org/2000/svg" id="sapIllus-Dialog-AddDimensions">
<rect y="50.7041" width="160" height="69" rx="12" fill="var(--sapContent_Illustrative_Color20)"/>
<path d="M102.37 106.43L78.0317 100.717C77.9731 100.699 77.9145 100.69 77.8559 100.704L32.7956 106.957C31.0741 107.155 30.9119 107.638 31.4347 107.89L55.8226 113.81C56.8816 114.17 58.0082 114.256 59.1078 114.058L100.838 107.237C102.429 107.025 102.749 106.552 102.37 106.43Z" fill="var(--sapContent_Illustrative_Color21)"/>
<path d="M87.9629 54.927L102.896 97.8207C103.215 99.4585 101.482 100.71 100.462 100.797L53.7472 107.424C52.951 107.492 52.2231 106.965 52.0411 106.184L40.9556 59.7342C40.5614 57.8234 42.1499 55.5336 43.1546 55.4881L86.3478 53.782C87.0833 53.7479 87.7506 54.218 87.9629 54.927Z" fill="var(--sapContent_Illustrative_Color14)"/>
<path d="M89.1912 53.6139L102.828 97.4478C103.124 98.4298 102.445 99.4344 101.422 99.5216L54.9755 106.111C54.1794 106.179 53.4515 105.652 53.2695 104.871L41.9565 57.4619C41.7252 56.48 42.4456 55.5322 43.454 55.4829L87.5761 52.4651C88.3116 52.431 88.9789 52.9011 89.1912 53.6101V53.6139Z" fill="var(--sapContent_Illustrative_Color2)"/>
<path d="M59.8391 57.8539L60.4487 60.1233C60.4911 60.2757 60.381 60.4281 60.2243 60.4366L51.9217 60.9616C51.8412 60.9658 51.8116 61.0674 51.8793 61.114L94.3791 91.4921C94.4468 91.5387 94.5315 91.4752 94.5103 91.399L91.9996 83.1768C91.9531 83.0286 92.0547 82.8719 92.2113 82.855L94.4003 82.6221C94.5188 82.6094 94.6289 82.6814 94.667 82.7957L98.7569 96.0181C98.8035 96.1663 98.7061 96.3187 98.5495 96.3399L85.8859 98.0038C85.7631 98.0208 85.6488 97.9445 85.6149 97.826L84.8825 95.3026C84.8401 95.1544 84.9375 95.0062 85.0899 94.9851L93.0581 93.9816C93.1343 93.9732 93.1597 93.8716 93.0962 93.8292L50.2747 63.2394C50.2112 63.1928 50.1265 63.2521 50.1435 63.3283L52.2138 71.5547C52.2519 71.7029 52.1461 71.8511 51.9937 71.8638L49.4703 72.067C49.3475 72.0755 49.2374 71.9951 49.2078 71.8765L45.9646 58.7599C45.9265 58.6075 46.0366 58.4593 46.1932 58.4509L59.5808 57.6676C59.6993 57.6591 59.8052 57.7396 59.8348 57.8539L59.8391 57.8539Z" fill="var(--sapContent_Illustrative_Color14)"/>
<path d="M58.5882 48.1664L68.4984 84.835C68.7107 85.6084 69.4614 86.1088 70.2613 86.0064L112.2 80.5736C114.683 79.9443 115.392 77.9425 115.054 76.9758L101.891 43.5487C101.653 42.8663 100.989 42.4265 100.269 42.472L60.5444 42.9762C59.5246 43.0407 57.4773 44.5079 58.5882 48.1702V48.1664Z" fill="var(--sapContent_Illustrative_Color22)"/>
<path d="M59.1113 44.9998L69.5106 83.4388C69.7229 84.2123 70.4736 84.7127 71.2735 84.6103L113.743 79.1093C114.759 78.9766 115.396 77.9454 115.058 76.9786L102.9 42.1488C102.661 41.4664 101.997 41.0266 101.277 41.0721L60.5634 42.9601C59.5435 43.0245 58.8384 44.0103 59.1113 44.996V44.9998Z" fill="var(--sapContent_Illustrative_Color8)"/>
<path d="M83.3316 57.4629L78.7055 57.8467C78.452 57.869 78.3004 58.0626 78.37 58.2823L84.5725 77.6349C84.646 77.8656 84.9171 78.027 85.1741 77.9973L89.8604 77.4543C90.1138 77.4247 90.2614 77.2164 90.1844 76.9894L83.9148 57.8218C83.8452 57.6058 83.5815 57.4443 83.3317 57.4665L83.3316 57.4629Z" fill="var(--sapContent_Illustrative_Color2)"/>
<path d="M102.984 65.4843L98.5756 65.9199C98.3332 65.9457 98.1963 66.1392 98.2696 66.3588L101.445 75.6881C101.522 75.9113 101.782 76.0692 102.024 76.0398L106.457 75.5228C106.699 75.4933 106.832 75.2926 106.755 75.073L103.552 65.8324C103.479 65.6164 103.223 65.4585 102.984 65.4843Z" fill="var(--sapContent_Illustrative_Color2)"/>
<path d="M76.8069 64.5355L72.0309 64.9805C71.7664 65.0066 71.6113 65.2077 71.681 65.4347L75.7804 78.6497C75.8539 78.884 76.1287 79.0491 76.3931 79.0156L81.2115 78.4558C81.4722 78.4261 81.6272 78.214 81.5537 77.9833L77.4049 64.8979C77.3352 64.6745 77.0678 64.513 76.8069 64.5355Z" fill="var(--sapContent_Illustrative_Color2)"/>
<path d="M89.3151 49.8555L84.8315 50.1746C84.5852 50.1931 84.4409 50.3793 84.5104 50.5916L93.1265 76.6473C93.1999 76.8743 93.4672 77.032 93.717 77.0061L98.2747 76.4762C98.5207 76.4466 98.6611 76.2421 98.584 76.0189L89.8834 50.2073C89.8139 49.995 89.5577 49.8407 89.3151 49.8555Z" fill="var(--sapContent_Illustrative_Color2)"/>
<path d="M104.017 45.344L102.871 42.0792C102.633 41.3972 101.97 40.9578 101.25 41.0032L60.5649 42.8861C59.542 42.9505 58.8411 43.9355 59.1101 44.9244L59.9335 47.7762L104.013 45.344H104.017Z" fill="var(--sapContent_Illustrative_Color2)"/>
<path d="M129.384 80.2616C129.384 80.2616 125.954 84.9222 119.291 85.7878C112.629 86.6533 103.491 81.7219 101.103 74.1352C98.5083 65.8902 103.255 60.24 111.367 58.4818C118.793 57.8897 129.384 80.2616 129.384 80.2616Z" fill="var(--sapContent_Illustrative_Color16)"/>
<path d="M130.285 69.8551C133.043 77.075 129.177 83.8594 121.395 84.8029C113.423 85.7694 104.82 80.2227 102.433 72.6323C100.125 65.3016 104.602 59.0405 112.197 58.4331C119.623 57.841 127.618 62.8644 130.288 69.8513L130.285 69.8551Z" fill="var(--sapContent_Illustrative_Color15)"/>
<path d="M124.178 69.3455C124.109 69.1623 123.925 69.0485 123.73 69.0684L118.082 69.6476C117.886 69.6677 117.701 69.5516 117.633 69.366L115.816 64.3551C115.749 64.1712 115.567 64.0554 115.372 64.0731L112.392 64.3433C112.112 64.3687 111.931 64.6513 112.025 64.9164L113.674 69.5623C113.768 69.8253 113.59 70.1063 113.312 70.1348L107.827 70.6976C107.551 70.7259 107.374 71.0033 107.463 71.2655L108.388 73.9666C108.453 74.1574 108.642 74.2773 108.842 74.2553L114.76 73.6061C114.959 73.5843 115.146 73.7018 115.213 73.89L117.072 79.123C117.14 79.3129 117.33 79.4306 117.53 79.4063L120.58 79.036C120.855 79.0027 121.028 78.722 120.933 78.4615L119.19 73.6573C119.094 73.3948 119.27 73.1125 119.548 73.0822L124.791 72.5082C125.07 72.4776 125.246 72.1918 125.147 71.9287L124.178 69.3455Z" fill="var(--sapContent_Illustrative_Color8)"/>
</svg>
