<svg width="45" height="45" viewBox="0 0 45 45" fill="none" xmlns="http://www.w3.org/2000/svg" id="sapIllus-Dot-SleepingBell">
<path d="M22.3815 0C21.5442 0.00297424 20.7421 0.336869 20.1501 0.928892C19.5581 1.52091 19.2242 2.32302 19.2212 3.16026V7.55079H25.5417V3.16026C25.5388 2.32302 25.2049 1.52091 24.6128 0.928892C24.0208 0.336869 23.2187 0.00297424 22.3815 0V0Z" style="fill:var(--sapContent_Illustrative_Color15)"/>
<path d="M38.8938 20.9143V35.2032H5.65454V20.9143C5.76746 16.5814 7.568 12.464 10.6725 9.43938C13.777 6.41476 17.9399 4.72211 22.2742 4.72211C26.6085 4.72211 30.7714 6.41476 33.8759 9.43938C36.9803 12.464 38.7809 16.5814 38.8938 20.9143V20.9143Z" style="fill:var(--sapContent_Illustrative_Color3)"/>
<path d="M22.3816 45C24.6319 45 26.4561 43.1758 26.4561 40.9255C26.4561 38.6752 24.6319 36.851 22.3816 36.851C20.1313 36.851 18.3071 38.6752 18.3071 40.9255C18.3071 43.1758 20.1313 45 22.3816 45Z" style="fill:var(--sapContent_Illustrative_Color3)"/>
<path d="M42.6185 36.851C41.334 36.4046 40.0882 35.8535 38.8939 35.2031H5.65464C4.45736 35.8554 3.20772 36.4066 1.91875 36.851C0.880375 37.0767 0 37.72 0 38.781C0 39.2899 0.202159 39.7779 0.561992 40.1377C0.921825 40.4976 1.40987 40.6997 1.91875 40.6997H42.6185C43.1284 40.6997 43.6176 40.4979 43.9793 40.1384C44.3409 39.7789 44.5456 39.2909 44.5485 38.781C44.5485 37.72 43.6569 37.0767 42.6185 36.851Z" style="fill:var(--sapContent_Illustrative_Color15)"/>
<path opacity="0.36" d="M20.632 4.37921C16.5287 4.78538 12.7232 6.7028 9.95504 9.75878C7.18693 12.8148 5.6541 16.7909 5.65454 20.9142V35.2031H36.6365V20.9819C36.6364 16.6812 34.9687 12.548 31.9839 9.4516C28.9991 6.35524 24.9298 4.53698 20.632 4.37921Z" style="fill:var(--sapContent_Illustrative_Color15)"/>
</svg>
