<svg width="97" height="161" viewBox="0 0 97 161" fill="none" xmlns="http://www.w3.org/2000/svg" id="sapIllus-Dialog-SimpleEmptyList">
<path d="M78.16 121V29.5C78.1764 27.8124 77.5296 26.1858 76.3589 24.9702C75.1882 23.7546 73.587 23.0471 71.9 23H13.9C10.2288 22.9942 6.70227 24.4307 4.08 27C2.7841 28.2959 1.75666 29.8348 1.05653 31.5285C0.35641 33.2222 -0.00261571 35.0373 1.43458e-05 36.87V122.52C1.33943e-05 126.213 1.46627 129.754 4.07649 132.366C6.68671 134.979 10.2273 136.447 13.92 136.45H91.84V136.34C88.0796 135.895 84.612 134.09 82.0918 131.264C79.5715 128.438 78.1729 124.787 78.16 121V121Z" fill="var(--sapContent_Illustrative_Color6)"/>
<path d="M77.16 25.05V116.51C77.1655 119.476 77.9686 122.387 79.4851 124.936C81.0017 127.485 83.1759 129.58 85.78 131H13.93C10.5033 130.997 7.21754 129.636 4.79355 127.214C2.36957 124.791 1.0053 121.507 1 118.08V32.43C0.998689 30.733 1.33198 29.0523 1.98081 27.4842C2.62963 25.9161 3.58126 24.4913 4.78125 23.2913C5.98125 22.0913 7.40607 21.1396 8.97419 20.4908C10.5423 19.842 12.223 19.5087 13.92 19.51H71.92C73.348 19.5621 74.6989 20.171 75.6838 21.2063C76.6686 22.2416 77.2092 23.6212 77.19 25.05H77.16Z" fill="var(--sapContent_Illustrative_Color8)"/>
<path d="M85.78 132H13.93C10.2373 132 6.69563 130.534 4.08354 127.923C1.47144 125.313 0.00266107 121.773 1.01494e-05 118.08V32.4299C-0.00331924 29.6752 0.812542 26.9817 2.34388 24.6918C3.87522 22.4019 6.05288 20.6191 8.60002 19.5699C10.2849 18.8653 12.0937 18.5049 13.92 18.5099H71.92C73.6205 18.5643 75.2322 19.2822 76.41 20.5099C77.5789 21.7333 78.2184 23.3682 78.19 25.0599V116.53C78.1886 120.323 79.58 123.985 82.1 126.82C83.2963 128.158 84.7136 129.281 86.29 130.14L85.78 132ZM71.85 20.5099H13.92C12.3557 20.5078 10.8062 20.8136 9.36 21.4099C7.91543 22.0163 6.60142 22.8957 5.49 23.9999C4.38135 25.1057 3.50427 26.4213 2.91001 27.8699C2.30952 29.3152 2.00027 30.8649 2.00001 32.4299V118.08C2.00794 121.241 3.2677 124.269 5.50358 126.503C7.73946 128.737 10.7693 129.995 13.93 130H82.52C81.8275 129.426 81.179 128.801 80.58 128.13C77.7325 124.929 76.1596 120.794 76.16 116.51V24.9999C76.1764 23.8323 75.7341 22.7048 74.9282 21.8596C74.1223 21.0145 73.0171 20.5191 71.85 20.4799V20.5099Z" fill="var(--sapContent_Illustrative_Color4)"/>
<path d="M39.0802 43.1801H14.5302C13.7186 43.1801 12.9403 43.5024 12.3665 44.0763C11.7926 44.6502 11.4702 45.4285 11.4702 46.2401C11.4702 47.0525 11.7923 47.8319 12.3658 48.4073C12.9394 48.9828 13.7177 49.3074 14.5302 49.3101H39.0802C39.8927 49.3074 40.671 48.9828 41.2446 48.4073C41.8181 47.8319 42.1402 47.0525 42.1402 46.2401C42.1402 45.4285 41.8178 44.6502 41.244 44.0763C40.6701 43.5024 39.8918 43.1801 39.0802 43.1801V43.1801Z" fill="var(--sapContent_Illustrative_Color3)"/>
<path d="M45.6998 161C69.4098 161 88.6398 159.84 88.6398 158.4C88.6398 156.96 69.4098 155.8 45.6998 155.8C21.9898 155.8 2.75977 156.96 2.75977 158.4C2.75977 159.84 21.9998 161 45.6998 161Z" fill="var(--sapContent_Illustrative_Color6)"/>
<path d="M96.0698 19.81C95.9402 19.6544 95.7708 19.5369 95.5798 19.47C95.3863 19.42 95.1833 19.42 94.9898 19.47L90.2998 20.28C90.1389 20.3082 89.9857 20.3695 89.8498 20.46C89.711 20.5472 89.5922 20.6626 89.5009 20.7987C89.4096 20.9348 89.3479 21.0885 89.3198 21.25C89.2899 21.4119 89.2899 21.578 89.3198 21.74C89.3571 21.9894 89.4726 22.2205 89.6498 22.4C89.7776 22.5317 89.935 22.6313 90.1088 22.6904C90.2827 22.7495 90.4681 22.7665 90.6498 22.74L95.3398 21.93C95.5482 21.8973 95.7446 21.8112 95.9098 21.68C96.069 21.5435 96.1897 21.3676 96.2598 21.17C96.3428 20.95 96.3669 20.7121 96.3298 20.48C96.3011 20.2382 96.2117 20.0077 96.0698 19.81V19.81Z" fill="var(--sapContent_Illustrative_Color5)"/>
<path d="M78.2599 1.05999C78.1221 1.01081 77.9758 0.990391 77.8298 0.999986C77.6819 1.01163 77.5385 1.05603 77.4098 1.12999C77.2843 1.20182 77.1745 1.29814 77.0868 1.41324C76.9992 1.52833 76.9356 1.65985 76.8998 1.79999L75.6098 6.24999C75.5747 6.4148 75.5747 6.58517 75.6098 6.74999C75.6262 6.91547 75.6773 7.07564 75.7599 7.21999C75.8419 7.36566 75.9545 7.49188 76.0898 7.58999C76.22 7.69244 76.3698 7.76729 76.5298 7.80999H76.7299C76.9828 7.84744 77.2404 7.78661 77.4499 7.63999C77.659 7.49607 77.8055 7.27799 77.8598 7.02999L79.1498 2.57999C79.2014 2.42212 79.2185 2.25502 79.1999 2.08999C79.1789 1.92549 79.1281 1.7662 79.0498 1.61999C78.9684 1.47693 78.8597 1.35123 78.7299 1.24999C78.5887 1.15363 78.4283 1.08883 78.2599 1.05999V1.05999Z" fill="var(--sapContent_Illustrative_Color5)"/>
<path d="M89.7501 7.08995C89.594 7.08802 89.4386 7.11166 89.2901 7.15995C89.1449 7.21815 89.0098 7.29917 88.8901 7.39995L83.7001 12.14C83.4703 12.3535 83.3308 12.6469 83.3101 12.96C83.2878 13.2769 83.3921 13.5898 83.6001 13.83C83.7893 14.0497 84.0527 14.1921 84.3401 14.23C84.5049 14.2651 84.6753 14.2651 84.8401 14.23C84.9988 14.1765 85.1451 14.0915 85.2701 13.98L90.4601 9.24995C90.6934 9.0337 90.8363 8.7372 90.8601 8.41995C90.8766 8.1068 90.7729 7.79917 90.5701 7.55995C90.3615 7.31901 90.0675 7.16843 89.7501 7.13995V7.08995Z" fill="var(--sapContent_Illustrative_Color5)"/>
</svg>
