<svg width="160" height="160" viewBox="0 0 160 160" fill="none" xmlns="http://www.w3.org/2000/svg" id="sapIllus-Dialog-BeforeSearch">
<rect y="43.5" width="160" height="69" rx="12" fill="var(--sapContent_Illustrative_Color20)"/>
<path d="M76.2292 115.282C97.0178 115.282 113.87 98.429 113.87 77.641C113.87 56.8524 97.0178 40 76.2292 40C55.4411 40 38.5886 56.8524 38.5886 77.641C38.5886 98.429 55.4411 115.282 76.2292 115.282Z" fill="var(--sapContent_Illustrative_Color2)"/>
<path d="M73.8795 72.3808C73.0114 72.3808 72.0919 72.4831 71.2239 72.5854C70.8155 72.6363 70.4067 72.6873 69.9984 72.7387C69.4877 72.6873 68.9256 72.534 68.4659 72.3808C67.8019 72.1257 67.138 71.9724 66.4741 71.9215C65.7593 71.9215 64.8398 72.2275 64.5333 73.7086C64.4315 74.0151 64.4315 74.3216 64.5333 74.6281C64.5847 74.9346 64.6865 75.1902 64.8907 75.4453C65.2995 75.9559 66.0144 76.1601 66.9848 76.1601C67.5469 76.1601 68.1084 76.1092 68.67 76.0073C68.9256 76.0073 69.1812 75.9559 69.4363 75.905C69.7428 75.905 69.896 76.0583 70.2534 76.3648C70.7641 76.8754 71.3771 77.2837 72.041 77.4884H72.2452C73.3689 77.9991 74.5434 78.2542 75.7694 78.3565C76.1268 78.3565 76.4843 78.3565 76.8417 78.2033C77.1996 78.1009 77.5061 77.8968 77.7612 77.6417C78.0168 77.3352 78.17 76.9263 78.2719 76.5689C78.3742 76.1601 78.3233 75.7518 78.2719 75.3943C77.9653 73.4026 76.5357 72.4322 73.9309 72.4322L73.8795 72.3808Z" fill="var(--sapContent_Illustrative_Color17)"/>
<path d="M96.3391 89.0298C94.9548 89.0298 93.5699 89.2849 92.2879 89.6937C91.8261 89.847 91.3649 89.9488 90.9031 90.0003C90.5956 90.0003 90.288 89.8979 90.0314 89.6937C89.5187 89.2849 89.1598 88.7233 88.9546 88.1103C88.4928 87.089 87.8778 85.7612 85.8774 85.7612H85.4675C84.6468 85.7612 83.7751 85.6079 83.0058 85.3014C82.2365 84.9949 81.5187 84.5352 80.9545 83.9222C80.6465 83.6162 80.339 83.3606 79.9286 83.2073C79.5188 83.0541 79.1084 82.9523 78.698 82.9523C78.0316 82.9523 77.416 83.105 76.8005 83.3097C76.3392 83.4629 75.8774 83.5648 75.3647 83.5648C74.6977 83.5648 74.0313 83.3097 73.4157 83.0032C72.8516 82.6458 72.3389 82.186 71.98 81.573C71.8262 81.2665 71.4673 80.5517 70.7494 80.5517C70.031 80.5517 69.672 81.0114 68.9027 82.0837C68.8004 82.2878 68.6981 82.4411 68.5952 82.5943C68.4415 82.8499 68.2877 83.105 68.0825 83.3097C67.6722 82.9523 67.2618 82.5434 66.9543 82.0837C66.6977 81.7772 66.4925 81.4198 66.2364 81.1133C64.9029 79.3257 63.9285 77.9978 62.9031 77.4872C62.5441 77.3339 62.2361 77.1807 61.8771 77.0788C61.1593 76.8742 60.6466 76.67 60.39 76.1084C60.2876 75.8528 60.2362 75.5973 60.2362 75.2913C60.1339 74.1162 59.8258 73.0439 57.1595 73.0439C54.4926 73.0439 55.6718 72.8398 55.518 72.5333C55.3128 72.0735 55.6209 71.2054 56.4925 69.9285C57.1595 68.8558 57.9283 68.396 58.6976 68.396C59.4669 68.396 60.031 68.7539 60.7489 69.4688C61.8771 70.5924 62.954 71.1031 64.0313 71.1031C64.4926 71.1031 64.9544 71.0008 65.3642 70.7966C65.7746 70.5924 66.1335 70.3368 66.4416 69.9794C67.6207 68.8558 68.1849 67.6303 68.8004 65.332C69.416 62.9314 70.4413 60.1734 73.3648 59.6627C74.0313 59.5605 74.6977 59.4584 75.2619 59.4073C77.8264 59.0498 79.8777 58.7944 80.8517 57.2622C82.288 55.1171 83.0058 51.6442 80.2366 48.9373C78.8004 47.4051 76.7491 46.4858 74.6468 46.3837C73.6723 46.3837 72.6978 46.639 71.7748 47.0987C70.9031 47.5583 70.1338 48.1712 69.5183 48.9373C68.0311 50.6738 66.9028 51.8485 66.0312 51.8485C65.5185 51.7974 65.0567 51.491 64.6978 51.0824C64.4412 50.7759 64.2874 50.4695 64.1851 50.112C64.0822 49.7545 64.0822 49.3459 64.1851 48.9884C64.2365 48.5287 64.4412 48.1201 64.6978 47.7626C64.9544 47.4051 65.3133 47.0987 65.7237 46.9454C66.4925 46.639 67.2618 46.5369 68.0825 46.5879C69.6211 46.5879 71.4158 46.5369 72.5955 44.545C73.2106 43.5236 73.3648 42.6553 73.0568 41.8892C72.8516 41.5317 72.5955 41.1742 72.2875 40.9188C71.98 40.6634 71.5696 40.4592 71.1592 40.357H70.9541C64.6978 41.2253 58.749 43.6768 53.6719 47.4562C48.595 51.2356 44.528 56.5014 41.9795 62.012C41.9282 62.1652 40.1334 65.7913 40.6975 68.1409C41.0564 69.3155 41.7231 70.3883 42.7487 71.154C43.7231 71.9203 44.9539 72.3286 46.1847 72.38C48.2873 72.38 49.6719 72.8907 50.6976 75.3422C51.8257 78.1002 54.4926 79.8363 56.4925 80.5008C56.7491 80.6026 57.0566 80.6535 57.3132 80.7558C58.6467 81.1133 59.7744 81.4198 60.5951 83.5138C60.8517 84.2801 61.3644 84.9949 62.0309 85.4547C62.6979 85.9144 63.5695 86.1186 64.3902 86.0677H65.6208C66.0826 86.0677 66.7491 86.1186 66.9543 86.476C67.0566 86.6802 67.2109 87.3441 66.1335 89.1831C63.8261 93.2175 64.3902 95.0565 65.5694 97.3547C66.2364 98.7335 67.2109 99.9081 68.4415 100.777C69.672 101.696 71.1083 102.309 72.5955 102.564C72.903 102.564 73.2106 102.717 73.5186 102.871C73.7747 103.024 74.0313 103.279 74.185 103.586C74.8006 104.812 74.185 106.905 73.3648 108.489C73.0054 109.255 72.5441 109.919 72.0314 110.583C71.5182 111.297 71.1083 111.808 71.1083 112.574C71.1592 113.494 71.2992 113.853 71.6068 114.722L71.7005 115.053C73.0853 115.258 75.8789 115.423 78.1527 115.252L79.9149 115.13L78.3763 114.262C78.3763 114.262 77.5555 113.802 77.6212 112.574C77.6212 110.787 78.7495 111.4 81.9799 111.4H83.2619C83.8261 111.4 84.3393 111.093 84.7491 110.685L85.0057 110.378C86.1854 108.948 88.9546 105.526 90.1852 104.76C90.6984 104.403 91.3134 104.147 91.929 104.045C92.9544 103.79 93.9289 103.279 94.6982 102.513C95.0571 102.155 95.3647 101.747 95.5698 101.287C95.775 100.828 95.8779 100.317 95.8779 99.8062C95.8779 99.1932 96.0316 98.5802 96.3906 98.0696C96.8009 97.508 97.3651 97.0482 98.0315 96.6908C98.8522 96.1802 99.8777 95.5672 100.339 94.1879C101.006 92.3494 101.109 91.1748 100.493 90.3068C99.8776 89.4382 98.6471 89.0298 96.4929 89.0298H96.3391Z" fill="var(--sapContent_Illustrative_Color17)"/>
<path d="M77.7103 44.7692C78.4251 44.9734 79.1914 45.0756 79.9576 45.0756C80.4169 45.0756 80.7234 45.0756 80.8766 45.1777C81.0299 45.4331 81.1831 45.6885 81.234 45.9438C81.4896 46.6588 81.7961 47.5271 82.6642 47.9356C83.3795 48.2421 84.1453 48.3443 84.9115 48.3443C85.5754 48.3443 87.3121 48.2421 88.2825 47.3228C90.2743 45.4331 87.3218 41.9032 87.2194 41.75L87.1059 41.6079C83.5812 40.4994 79.5452 39.9025 75.0546 40.0194L75.1565 40.5812C75.2079 40.9387 75.8204 44.1563 77.7103 44.7692Z" fill="var(--sapContent_Illustrative_Color17)"/>
<path d="M109.835 69.2152C110.958 67.0188 110.857 64.6696 109.426 62.4223C106.822 58.1322 100.489 55.2722 96.2495 55.2722C92.0104 55.2722 91.8062 56.3447 91.2447 58.2344C90.734 59.7665 90.5807 61.452 90.8872 63.0353C91.1423 64.6696 91.8062 66.1507 92.8276 67.4785C95.2282 70.6963 99.4163 72.8413 103.297 72.8413C107.179 72.8413 108.609 71.5644 109.835 69.2152Z" fill="var(--sapContent_Illustrative_Color17)"/>
<path d="M77.9012 85.9484C82.3745 79.3714 89.7056 78.2258 92.8123 78.4748L98.7764 82.9587C103.548 94.3191 98.6257 105.855 95.5194 109.965C83.4961 116.985 71.9565 115.906 64.7084 113.49C64.7084 109.379 72.3099 94.1694 77.9012 85.9484Z" fill="var(--sapContent_Illustrative_Color14)"/>
<path d="M86.4441 85.2514C83.3796 85.6603 80.9082 84.1558 80.1425 83.3045C75.3388 88.0797 70.3059 98.4025 69.1996 101.296C69.6079 101.501 70.5259 101.68 70.8665 101.85C73.5222 102.055 74.1866 103.297 74.1866 103.893C78.2724 105.119 86.2027 104.82 89.6924 104.48C89.948 104.224 90.8359 103.587 92.0619 103.382C93.5939 103.127 95.6371 101.34 95.6371 99.0409C95.6371 97.2024 97.8503 95.8919 98.9566 95.4663C99.7229 94.3594 101.051 91.6864 100.234 89.8479C99.4164 88.0094 95.4665 88.401 93.5939 88.8266C92.5726 90.2736 90.3252 92.4018 89.5081 89.3373C88.6909 86.2728 87.1248 85.3365 86.4441 85.2514Z" fill="var(--sapContent_Illustrative_Color17)"/>
<path d="M86.4441 85.2514C83.3796 85.6603 80.9082 84.1558 80.1425 83.3045C75.3388 88.0797 70.3059 98.4025 69.1996 101.296C69.6079 101.501 70.5259 101.68 70.8665 101.85C73.5222 102.055 74.1866 103.297 74.1866 103.893C78.2724 105.119 86.2027 104.82 89.6924 104.48C89.948 104.224 90.8359 103.587 92.0619 103.382C93.5939 103.127 95.6371 101.34 95.6371 99.0409C95.6371 97.2024 97.8503 95.8919 98.9566 95.4663C99.7229 94.3594 101.051 91.6864 100.234 89.8479C99.4164 88.0094 95.4665 88.401 93.5939 88.8266C92.5726 90.2736 90.3252 92.4018 89.5081 89.3373C88.6909 86.2728 87.1248 85.3365 86.4441 85.2514Z" fill="var(--sapContent_Illustrative_Color22)"/>
<path d="M104.923 60.2372C104.976 60.2372 105.081 60.29 105.134 60.3428C105.081 60.3428 104.976 60.29 104.923 60.2372Z" fill="var(--sapContent_Illustrative_Color25)"/>
<path d="M105.556 60.5024C105.556 60.5024 105.663 60.5024 105.715 60.5555C105.715 60.5555 105.61 60.5555 105.556 60.5024Z" fill="var(--sapContent_Illustrative_Color25)"/>
<path d="M104.237 59.974C104.342 59.974 104.395 60.0268 104.5 60.0796C104.395 60.0796 104.342 60.0268 104.237 59.974Z" fill="var(--sapContent_Illustrative_Color25)"/>
<path d="M62.204 98.8585C45.4234 91.499 40.1223 75.6154 40.0372 67.2737C35.4895 82.0534 41.2878 105.275 63.9697 113.234C83.6667 120.145 99.4118 109.206 105.979 100.699C82.7411 106.828 76.7597 105.243 62.204 98.8585Z" fill="var(--sapContent_Illustrative_Color13)"/>
<path d="M101.518 60.7553C101.62 60.7553 101.773 60.7553 101.876 60.8064C101.773 60.8064 101.62 60.8064 101.518 60.7553Z" fill="var(--sapContent_Illustrative_Color25)"/>
<path fill-rule="evenodd" clip-rule="evenodd" d="M68.9984 101.694C66.5062 106.865 64.7054 111.494 64.7028 113.497C66.5831 114.115 68.4409 114.563 70.2667 114.863C72.1026 115.161 74.0806 115.339 76.1691 115.34C83.5878 115.326 90.2615 113.026 95.5168 109.973C96.7103 108.392 98.1705 105.717 99.2468 102.378C84.7801 105.685 77.9928 105.085 68.9984 101.694Z" fill="var(--sapContent_Illustrative_Color14)"/>
<path d="M84.7037 109.895L89.9946 103.748C81.546 104.528 77.5381 103.814 74.164 103.033C74.2083 103.067 74.4659 103.709 74.2669 104.957C74.0184 106.516 71.7823 110.415 71.2854 111.194C70.8877 111.818 71.5084 113.929 71.8398 114.969C73.859 115.258 77.5376 115.374 79.6668 115.085C79.6668 115.085 78.2427 114.313 77.7458 113.534C75.8712 110.592 78.4912 110.675 81.2247 110.935C83.4115 111.142 84.4552 110.328 84.7037 109.895Z" fill="var(--sapContent_Illustrative_Color13)"/>
<path d="M84.7017 109.895L89.9927 103.748C81.5441 104.528 77.5361 103.814 74.1621 103.033C74.2064 103.067 74.464 103.709 74.2649 104.957C74.0164 106.516 71.7803 110.415 71.2834 111.194C70.8858 111.818 71.5064 113.929 71.8378 114.969C73.8571 115.258 77.5356 115.374 79.6648 115.084C79.6648 115.084 78.2408 114.313 77.7438 113.534C75.8692 110.592 78.4892 110.675 81.2228 110.934C83.4095 111.142 84.4533 110.328 84.7017 109.895Z" fill="var(--sapContent_Illustrative_Color22)"/>
<path d="M110.037 83.9813C109.879 83.717 109.298 82.661 108.295 82.5552C107.503 82.5026 106.869 82.9779 105.971 84.0865C103.648 86.9908 103.542 87.7304 104.176 89.6313C104.281 89.9482 104.493 90.2119 104.757 90.4235C105.021 90.582 105.338 90.6873 105.654 90.6873C106.816 90.6873 108.084 89.8955 108.401 89.6839C108.612 89.5255 108.77 89.367 108.929 89.2086C110.566 87.5188 110.143 84.773 109.985 83.9813H110.037Z" fill="var(--sapContent_Illustrative_Color17)"/>
<path d="M120.967 74.3042C122.149 79.2504 120.201 84.3442 117.767 87.9809C115.578 91.2487 111.885 93.5512 107.049 94.1291C96.3839 95.4018 84.968 87.8057 82.0901 77.5136C79.2122 67.2215 85.5331 57.4243 95.6614 56.957C105.391 56.5082 117.703 65.1895 120.967 74.3042Z" fill="var(--sapContent_Illustrative_Color16)"/>
<path d="M120.253 71.765C123.647 81.2394 118.527 90.1481 108.312 91.3685C97.6468 92.6412 86.2309 85.0451 83.353 74.753C80.4751 64.4609 86.9597 56.7818 97.091 56.3145C106.821 55.8657 116.992 62.6533 120.256 71.765H120.253Z" fill="var(--sapContent_Illustrative_Color15)"/>
<path d="M117.977 71.9494C120.889 80.1911 116.375 87.8764 107.519 88.8878C98.3231 89.936 88.4974 83.3974 85.9746 74.544C83.5414 66.0041 88.9915 58.9275 97.7858 58.4818C106.277 58.0545 115.164 63.9844 117.981 71.9494H117.977Z" fill="var(--sapContent_Illustrative_Color25)"/>
<path d="M120.13 117.978L114.312 119.521L105.07 90.1174L110.52 89.4841L120.13 117.978Z" fill="var(--sapContent_Illustrative_Color15)"/>
<path d="M85.6689 67.907L97.6962 58.4879C91.3784 58.8414 86.8053 62.6226 85.6689 67.907Z" fill="var(--sapContent_Illustrative_Color25)"/>
<path d="M107.519 88.8877C115.331 87.9963 119.762 81.9126 118.7 74.8329L99.4563 87.9778C102.066 88.8447 104.82 89.1952 107.519 88.8877Z" fill="var(--sapContent_Illustrative_Color8)"/>
<path d="M108.498 61.1439L108.491 61.1409L108.498 61.1439Z" fill="var(--sapContent_Illustrative_Color25)"/>
<path d="M97.7827 58.4817C98.0328 58.4694 98.2798 58.4633 98.5299 58.4603C98.2798 58.4603 98.0328 58.4694 97.7827 58.4817Z" fill="var(--sapContent_Illustrative_Color25)"/>
<path d="M105.864 59.8928C105.941 59.9236 106.018 59.9543 106.092 59.985C106.015 59.9543 105.941 59.9236 105.864 59.8928Z" fill="var(--sapContent_Illustrative_Color25)"/>
<path d="M106.565 60.1818C106.617 60.2064 106.67 60.2309 106.722 60.2525C106.67 60.2279 106.617 60.2033 106.565 60.1818Z" fill="var(--sapContent_Illustrative_Color25)"/>
<path d="M105.153 59.6254C105.24 59.6561 105.329 59.6868 105.416 59.7207C105.329 59.6868 105.243 59.6561 105.153 59.6254Z" fill="var(--sapContent_Illustrative_Color25)"/>
<path d="M100.349 58.5433C100.491 58.5555 100.633 58.5708 100.778 58.5891C100.636 58.5738 100.494 58.5586 100.349 58.5433Z" fill="var(--sapContent_Illustrative_Color25)"/>
<path d="M99.5798 58.4879C99.7281 58.4971 99.8794 58.5032 100.028 58.5154C99.8794 58.5032 99.7281 58.494 99.5798 58.4879Z" fill="var(--sapContent_Illustrative_Color25)"/>
<path d="M101.105 58.6293C101.244 58.6477 101.386 58.6691 101.525 58.6904C101.386 58.6691 101.247 58.6477 101.105 58.6293Z" fill="var(--sapContent_Illustrative_Color25)"/>
<path d="M98.7801 58.4633C98.9468 58.4633 99.1105 58.4664 99.2772 58.4725C99.1105 58.4664 98.9437 58.4633 98.7801 58.4633Z" fill="var(--sapContent_Illustrative_Color25)"/>
<path d="M118.836 76.1118C118.379 66.9571 109.544 59.6346 100.775 58.5433C97.724 58.2636 92.3604 58.2636 88.4666 62.4782C88.0281 62.9516 87.6174 63.5049 87.2345 64.089C87.1696 64.1874 87.1326 64.255 87.0739 64.3503C87.0647 64.3626 87.0616 64.378 87.0523 64.3933C91.6687 58.8569 99.0487 58.5033 105.57 61.0856C112.32 63.757 118.15 69.5763 118.836 76.118V76.1118Z" fill="var(--sapContent_Illustrative_Color16)"/>
<path d="M96.2511 59.6192L85.6689 67.907C85.2336 69.9359 85.3015 72.1831 85.9747 74.544C86.0302 74.7408 86.092 74.9344 86.1568 75.1281L106.633 61.5375C103.279 60.0404 99.6478 59.2965 96.2511 59.6192Z" fill="var(--sapContent_Illustrative_Color8)"/>
<path d="M102.853 91.2794L106.024 93.1516C106.024 93.1516 105.363 91.5192 107.537 91.2948V91.261C106.667 91.3932 104.913 91.5684 102.853 91.2764V91.2794Z" fill="var(--sapContent_Illustrative_Color16)"/>
<path d="M109.841 90.9689C110.282 90.9873 111.054 91.3132 111.422 92.2508L111.947 90.5477C111.947 90.5477 111.462 90.7814 109.841 90.9658V90.9689Z" fill="var(--sapContent_Illustrative_Color16)"/>
<path d="M114.312 119.521L105.648 91.9865L106.231 91.4024C106.231 91.4024 107.34 91.3378 108.6 91.0858C108.6 91.0858 108.164 91.5745 108.291 92.2508C108.797 94.9069 117.036 119.005 117.036 119.005L114.309 119.521H114.312Z" fill="var(--sapContent_Illustrative_Color16)"/>
<path d="M120.13 117.978C120.13 118.298 118.629 118.829 116.174 119.46C114.961 119.703 114.365 119.672 114.312 119.521C114.275 119.414 114.939 118.999 116.143 118.611C117.947 118.049 119.926 117.732 120.13 117.978Z" fill="var(--sapContent_Illustrative_Color16)"/>
</svg>
