<svg width="161" height="160" viewBox="0 0 161 160" fill="none" xmlns="http://www.w3.org/2000/svg" id="sapIllus-Dialog-FilterTable">
<mask id="mask0_1663_6221" style="mask-type:alpha" maskUnits="userSpaceOnUse" x="0" y="0" width="160" height="160">
<circle cx="80" cy="80" r="80" style="fill:var(--sapContent_Illustrative_Color7)"/>
</mask>
<g mask="url(#mask0_1663_6221)">
<path d="M178.026 0.76563H-44.8204C-46.273 0.764222 -47.7116 1.06342 -49.0539 1.64611C-50.3963 2.2288 -51.6162 3.08356 -52.6438 4.16154C-53.6713 5.23951 -54.4865 6.51956 -55.0427 7.92852C-55.5989 9.33747 -55.8852 10.8477 -55.8852 12.3729V149.913C-55.8852 152.994 -54.7194 155.95 -52.6444 158.128C-50.5693 160.307 -47.755 161.531 -44.8204 161.531H178.026C180.961 161.531 183.775 160.307 185.85 158.128C187.925 155.95 189.091 152.994 189.091 149.913V12.3729C189.091 10.8477 188.805 9.33747 188.248 7.92852C187.692 6.51956 186.877 5.23951 185.849 4.16154C184.822 3.08356 183.602 2.2288 182.26 1.64611C180.917 1.06342 179.479 0.764222 178.026 0.76563Z" style="fill:var(--sapContent_Illustrative_Color7)"/>
<path d="M60.2224 92.1816H-33.4655C-34.9094 92.1816 -36.0799 93.3543 -36.0799 94.8008V155.585C-36.0799 157.032 -34.9094 158.204 -33.4655 158.204H60.2224C61.6663 158.204 62.8368 157.032 62.8368 155.585V94.8008C62.8368 93.3543 61.6663 92.1816 60.2224 92.1816Z" style="fill:var(--sapContent_Illustrative_Color18)"/>
<path d="M58.0534 95.7393H-31.4265C-32.7666 95.7393 -33.853 96.8276 -33.853 98.1701V152.919C-33.853 154.262 -32.7666 155.35 -31.4265 155.35H58.0534C59.3935 155.35 60.4799 154.262 60.4799 152.919V98.1701C60.4799 96.8276 59.3935 95.7393 58.0534 95.7393Z" style="fill:var(--sapContent_Illustrative_Color7)"/>
<path d="M76.4498 159.413H-46.7081L-43.6165 160.67C-43.4214 160.749 -43.2135 160.79 -43.0034 160.792L73.2859 161.082C73.5925 161.083 73.8932 160.998 74.1535 160.836L76.4469 159.404L76.4498 159.413Z" style="fill:var(--sapContent_Illustrative_Color19)"/>
<path d="M76.4498 158.961C76.449 158.743 76.3621 158.534 76.2082 158.381C76.0542 158.227 75.8458 158.141 75.6284 158.141H-45.8868C-46.1041 158.141 -46.3126 158.227 -46.4665 158.381C-46.6205 158.534 -46.7074 158.743 -46.7081 158.961V159.413H76.4498V158.961Z" style="fill:var(--sapContent_Illustrative_Color18)"/>
<path d="M7.70582 158.115H21.9087V158.404C21.9087 158.712 21.7868 159.007 21.5698 159.224C21.3529 159.441 21.0587 159.563 20.7519 159.563H8.85396C8.54716 159.563 8.25292 159.441 8.03597 159.224C7.81903 159.007 7.69714 158.712 7.69714 158.404V158.115H7.70582Z" style="fill:var(--sapContent_Illustrative_Color20)"/>
<path d="M13.5592 94.5083C13.909 94.5083 14.1926 94.2242 14.1926 93.8738C14.1926 93.5233 13.909 93.2393 13.5592 93.2393C13.2094 93.2393 12.9258 93.5233 12.9258 93.8738C12.9258 94.2242 13.2094 94.5083 13.5592 94.5083Z" style="fill:var(--sapContent_Illustrative_Color19)"/>
<path d="M170.719 94.0973L128.681 79.6973C126.895 79.091 124.959 80.0341 124.352 81.8194L103.401 142.973C102.794 144.758 103.737 146.695 105.523 147.302L147.561 161.702C149.346 162.308 151.283 161.365 151.889 159.579L172.841 98.4257C173.447 96.6405 172.504 94.7036 170.719 94.0973Z" style="fill:var(--sapContent_Illustrative_Color18)"/>
<path d="M145.506 95.141C144.125 94.5852 142.592 94.4505 141.144 94.7705C139.678 95.0736 138.348 95.8147 137.304 96.8926C136.259 97.9705 135.552 99.3179 135.283 100.783C135.013 102.248 135.182 103.764 135.771 105.145C136.361 106.526 137.337 107.688 138.601 108.497C139.847 109.305 141.312 109.743 142.811 109.709C144.31 109.693 145.758 109.221 146.988 108.379C148.217 107.537 149.177 106.341 149.733 104.96L142.71 102.164L145.523 95.141H145.506Z" style="fill:var(--sapContent_Illustrative_Color7)"/>
<path d="M147.746 94.1138L144.95 101.12L151.956 103.916C152.327 102.99 152.512 102.013 152.495 101.019C152.495 100.025 152.276 99.0485 151.889 98.139C151.502 97.2296 150.929 96.4043 150.222 95.7138C149.514 95.0232 148.672 94.4843 147.746 94.1138Z" style="fill:var(--sapContent_Illustrative_Color19)"/>
<path d="M153.573 119.192L124.285 109.154C123.308 108.817 122.264 109.339 121.927 110.316C121.59 111.293 122.112 112.337 123.089 112.674L152.377 122.712C153.354 123.048 154.398 122.526 154.735 121.549C155.072 120.573 154.55 119.528 153.573 119.192Z" style="fill:var(--sapContent_Illustrative_Color7)"/>
<path d="M151.047 125.154L121.758 115.116C120.782 114.779 119.737 115.301 119.401 116.278C119.064 117.255 119.586 118.299 120.563 118.636L149.851 128.674C150.828 129.011 151.889 128.489 152.209 127.512C152.546 126.535 152.024 125.491 151.047 125.154Z" style="fill:var(--sapContent_Illustrative_Color7)"/>
<path d="M134.946 126.3L119.35 120.961C118.373 120.624 117.312 121.146 116.992 122.123C116.655 123.1 117.178 124.144 118.154 124.481L133.767 129.82C134.744 130.157 135.788 129.634 136.125 128.658C136.462 127.681 135.94 126.637 134.963 126.3H134.946Z" style="fill:var(--sapContent_Illustrative_Color7)"/>
<g clip-path="url(#clip0_1663_6221)">
<path d="M94.9342 27.1436H16.0776C11.2994 27.1436 7.42584 31.0171 7.42584 35.7953V133.324C7.42584 138.103 11.2994 141.976 16.0776 141.976H94.9342C99.7124 141.976 103.586 138.103 103.586 133.324V35.7953C103.586 31.0171 99.7124 27.1436 94.9342 27.1436Z" style="fill:var(--sapContent_Illustrative_Color8)"/>
<path fill-rule="evenodd" clip-rule="evenodd" d="M16.2907 36.4404C16.2907 36.0471 16.3988 35.7319 16.5309 35.7319H93.9825C94.1146 35.7319 94.2226 36.0321 94.2226 36.4404V132.682C94.2226 133.075 94.1146 133.39 93.9825 133.39H16.5309C16.3988 133.39 16.2907 133.09 16.2907 132.682V36.4404Z" style="fill:var(--sapContent_Illustrative_Color8)"/>
<path d="M94.2287 44.9453H16.2907V52.9216H94.2287V44.9453Z" style="fill:var(--sapContent_Illustrative_Color18)"/>
<path d="M20.8027 47.9595H34.2036C34.6419 47.9595 34.9992 48.4368 34.9992 49.0252C34.9992 49.6256 34.6419 50.0879 34.2036 50.0879H20.8027C20.3614 50.0879 20.0042 49.6106 20.0042 49.0252C20.0042 48.4368 20.3494 47.9595 20.8027 47.9595Z" style="fill:var(--sapContent_Illustrative_Color14)"/>
<path d="M20.8027 55.7588H31.6819C32.1202 55.7588 32.4775 56.2361 32.4775 56.8215C32.4775 57.4219 32.1202 57.8872 31.6819 57.8872H20.8027C20.3614 57.8872 20.0042 57.4099 20.0042 56.8215C20.0042 56.2361 20.3494 55.7588 20.8027 55.7588Z" style="fill:var(--sapContent_Illustrative_Color14)"/>
<path d="M20.8027 63.9155H33.4111C33.8524 63.9155 34.2096 64.3928 34.2096 64.9782C34.2096 65.5786 33.8524 66.0439 33.4111 66.0439H20.8027C20.3614 66.0439 20.0042 65.5666 20.0042 64.9782C20.0042 64.3898 20.3494 63.9155 20.8027 63.9155Z" style="fill:var(--sapContent_Illustrative_Color14)"/>
<path d="M20.8027 71.7202H26.5065C26.9478 71.7202 27.302 72.1975 27.302 72.7829C27.302 73.3833 26.9478 73.8456 26.5065 73.8456H20.8027C20.3614 73.8456 20.0042 73.3713 20.0042 72.7829C20.0042 72.1885 20.3494 71.7202 20.8027 71.7202Z" style="fill:var(--sapContent_Illustrative_Color14)"/>
<path d="M20.8027 79.6875H26.5065C26.9478 79.6875 27.302 80.1618 27.302 80.7502C27.302 81.3506 26.9478 81.8129 26.5065 81.8129H20.8027C20.3614 81.8129 20.0042 81.3386 20.0042 80.7502C20.0042 80.1618 20.3494 79.6875 20.8027 79.6875Z" style="fill:var(--sapContent_Illustrative_Color14)"/>
<path d="M20.8027 95.6396H26.5065C26.9478 95.6396 27.302 96.1139 27.302 96.7023C27.302 97.3027 26.9478 97.765 26.5065 97.765H20.8027C20.3614 97.765 20.0042 97.2877 20.0042 96.7023C20.0042 96.1139 20.3494 95.6396 20.8027 95.6396Z" style="fill:var(--sapContent_Illustrative_Color14)"/>
<path d="M20.8027 87.6641H26.5065C26.9478 87.6641 27.302 88.1384 27.302 88.7268C27.302 89.3272 26.9478 89.7895 26.5065 89.7895H20.8027C20.3614 89.7895 20.0042 89.3152 20.0042 88.7268C20.0042 88.1384 20.3494 87.6641 20.8027 87.6641Z" style="fill:var(--sapContent_Illustrative_Color14)"/>
<path d="M20.8027 103.613H26.5065C26.9478 103.613 27.302 104.091 27.302 104.679C27.302 105.279 26.9478 105.742 26.5065 105.742H20.8027C20.3614 105.742 20.0042 105.264 20.0042 104.679C20.0042 104.091 20.3494 103.613 20.8027 103.613Z" style="fill:var(--sapContent_Illustrative_Color14)"/>
<path d="M20.7758 111.623H26.4796C26.9179 111.623 27.2751 112.1 27.2751 112.686C27.2751 113.286 26.9179 113.751 26.4796 113.751H20.7758C20.3375 113.751 19.9802 113.274 19.9802 112.686C19.9802 112.1 20.3495 111.623 20.7758 111.623Z" style="fill:var(--sapContent_Illustrative_Color14)"/>
<path d="M48.8204 47.9595H62.2214C62.6597 47.9595 63.0169 48.4368 63.0169 49.0252C63.0169 49.6256 62.6597 50.0879 62.2214 50.0879H48.8204C48.3791 50.0879 48.0219 49.6106 48.0219 49.0252C48.0219 48.4368 48.3791 47.9595 48.8204 47.9595Z" style="fill:var(--sapContent_Illustrative_Color14)"/>
<path d="M48.8204 55.7588H59.6997C60.138 55.7588 60.4952 56.2361 60.4952 56.8215C60.4952 57.4219 60.138 57.8872 59.6997 57.8872H48.8204C48.3791 57.8872 48.0219 57.4099 48.0219 56.8215C48.0219 56.2361 48.3791 55.7588 48.8204 55.7588Z" style="fill:var(--sapContent_Illustrative_Color14)"/>
<path d="M48.8204 63.9155H61.4288C61.8701 63.9155 62.2274 64.3928 62.2274 64.9782C62.2274 65.5786 61.8701 66.0439 61.4288 66.0439H48.8204C48.3791 66.0439 48.0219 65.5666 48.0219 64.9782C48.0219 64.3898 48.3791 63.9155 48.8204 63.9155Z" style="fill:var(--sapContent_Illustrative_Color14)"/>
<path d="M48.8204 71.7202H54.5242C54.9655 71.7202 55.3198 72.1975 55.3198 72.7829C55.3198 73.3833 54.9655 73.8456 54.5242 73.8456H48.8204C48.3791 73.8456 48.0219 73.3713 48.0219 72.7829C48.0219 72.1885 48.3791 71.7202 48.8204 71.7202Z" style="fill:var(--sapContent_Illustrative_Color14)"/>
<path d="M48.8204 79.6875H54.5242C54.9655 79.6875 55.3198 80.1618 55.3198 80.7502C55.3198 81.3506 54.9655 81.8129 54.5242 81.8129H48.8204C48.3791 81.8129 48.0219 81.3386 48.0219 80.7502C48.0219 80.1618 48.3791 79.6875 48.8204 79.6875Z" style="fill:var(--sapContent_Illustrative_Color14)"/>
<path d="M48.8204 95.6396H54.5242C54.9655 95.6396 55.3198 96.1139 55.3198 96.7023C55.3198 97.3027 54.9655 97.765 54.5242 97.765H48.8204C48.3791 97.765 48.0219 97.2877 48.0219 96.7023C48.0219 96.1139 48.3791 95.6396 48.8204 95.6396Z" style="fill:var(--sapContent_Illustrative_Color14)"/>
<path d="M48.8204 87.6641H54.5242C54.9655 87.6641 55.3198 88.1384 55.3198 88.7268C55.3198 89.3272 54.9655 89.7895 54.5242 89.7895H48.8204C48.3791 89.7895 48.0219 89.3152 48.0219 88.7268C48.0219 88.1384 48.3791 87.6641 48.8204 87.6641Z" style="fill:var(--sapContent_Illustrative_Color14)"/>
<path d="M48.8204 103.613H54.5242C54.9655 103.613 55.3198 104.091 55.3198 104.679C55.3198 105.279 54.9655 105.742 54.5242 105.742H48.8204C48.3791 105.742 48.0219 105.264 48.0219 104.679C48.0219 104.091 48.3791 103.613 48.8204 103.613Z" style="fill:var(--sapContent_Illustrative_Color14)"/>
<path d="M48.7935 111.623H54.4973C54.9355 111.623 55.2928 112.1 55.2928 112.686C55.2928 113.286 54.9355 113.751 54.4973 113.751H48.7935C48.3552 113.751 47.9979 113.274 47.9979 112.686C47.9979 112.1 48.3552 111.623 48.7935 111.623Z" style="fill:var(--sapContent_Illustrative_Color14)"/>
<path d="M76.5199 47.9595H89.9209C90.3592 47.9595 90.7164 48.4368 90.7164 49.0252C90.7164 49.6256 90.3592 50.0879 89.9209 50.0879H76.5199C76.0786 50.0879 75.7214 49.6106 75.7214 49.0252C75.7214 48.4368 76.0786 47.9595 76.5199 47.9595Z" style="fill:var(--sapContent_Illustrative_Color14)"/>
<path d="M76.5199 55.7588H87.3992C87.8374 55.7588 88.1947 56.2361 88.1947 56.8215C88.1947 57.4219 87.8374 57.8872 87.3992 57.8872H76.5199C76.0786 57.8872 75.7214 57.4099 75.7214 56.8215C75.7214 56.2361 76.0786 55.7588 76.5199 55.7588Z" style="fill:var(--sapContent_Illustrative_Color14)"/>
<path d="M76.5199 63.9155H89.1283C89.5696 63.9155 89.9269 64.3928 89.9269 64.9782C89.9269 65.5786 89.5696 66.0439 89.1283 66.0439H76.5199C76.0786 66.0439 75.7214 65.5666 75.7214 64.9782C75.7214 64.3898 76.0786 63.9155 76.5199 63.9155Z" style="fill:var(--sapContent_Illustrative_Color14)"/>
<path d="M76.5199 71.7202H82.2237C82.662 71.7202 83.0193 72.1975 83.0193 72.7829C83.0193 73.3833 82.662 73.8456 82.2237 73.8456H76.5199C76.0786 73.8456 75.7214 73.3713 75.7214 72.7829C75.7214 72.1885 76.0786 71.7202 76.5199 71.7202Z" style="fill:var(--sapContent_Illustrative_Color14)"/>
<path d="M76.5199 79.6875H82.2237C82.662 79.6875 83.0193 80.1618 83.0193 80.7502C83.0193 81.3506 82.662 81.8129 82.2237 81.8129H76.5199C76.0786 81.8129 75.7214 81.3386 75.7214 80.7502C75.7214 80.1618 76.0786 79.6875 76.5199 79.6875Z" style="fill:var(--sapContent_Illustrative_Color14)"/>
<path d="M76.5199 95.6396H82.2237C82.662 95.6396 83.0193 96.1139 83.0193 96.7023C83.0193 97.3027 82.662 97.765 82.2237 97.765H76.5199C76.0786 97.765 75.7214 97.2877 75.7214 96.7023C75.7214 96.1139 76.0786 95.6396 76.5199 95.6396Z" style="fill:var(--sapContent_Illustrative_Color14)"/>
<path d="M76.5199 87.6641H82.2237C82.662 87.6641 83.0193 88.1384 83.0193 88.7268C83.0193 89.3272 82.662 89.7895 82.2237 89.7895H76.5199C76.0786 89.7895 75.7214 89.3152 75.7214 88.7268C75.7214 88.1384 76.0786 87.6641 76.5199 87.6641Z" style="fill:var(--sapContent_Illustrative_Color14)"/>
<path d="M76.5199 103.613H82.2237C82.662 103.613 83.0193 104.091 83.0193 104.679C83.0193 105.279 82.662 105.742 82.2237 105.742H76.5199C76.0786 105.742 75.7214 105.264 75.7214 104.679C75.7214 104.091 76.0786 103.613 76.5199 103.613Z" style="fill:var(--sapContent_Illustrative_Color14)"/>
<path d="M76.4868 111.623H82.1906C82.6319 111.623 82.9892 112.1 82.9892 112.686C82.9892 113.286 82.6319 113.751 82.1906 113.751H76.4868C76.0455 113.751 75.6913 113.274 75.6913 112.686C75.6973 112.1 76.0515 111.623 76.4868 111.623Z" style="fill:var(--sapContent_Illustrative_Color14)"/>
<path d="M37.1156 38.5664H21.8654C20.8375 38.5664 20.0042 39.3997 20.0042 40.4276C20.0042 41.4556 20.8375 42.2889 21.8654 42.2889H37.1156C38.1435 42.2889 38.9768 41.4556 38.9768 40.4276C38.9768 39.3997 38.1435 38.5664 37.1156 38.5664Z" style="fill:var(--sapContent_Illustrative_Color14)"/>
</g>
<path d="M69.873 60.9581L93.9354 86.5882C94.0302 86.691 94.0827 86.826 94.0823 86.966V111.952C94.0815 112.205 94.1479 112.454 94.2748 112.673C94.4016 112.892 94.5843 113.073 94.804 113.198C95.0238 113.322 95.2726 113.386 95.525 113.382C95.7774 113.378 96.0242 113.307 96.2401 113.176L112.538 103.361C112.749 103.235 112.923 103.057 113.044 102.843C113.165 102.63 113.229 102.388 113.23 102.143L113.306 86.966C113.306 86.8287 113.358 86.6965 113.45 86.5953L138.015 59.9175L69.873 60.9581Z" fill="#0070F2"/>
<path d="M110.307 86.7976V103.747C110.307 103.842 110.332 103.936 110.38 104.019C110.428 104.101 110.497 104.17 110.58 104.217C110.662 104.264 110.756 104.288 110.852 104.287C110.947 104.286 111.04 104.259 111.122 104.21L112.278 103.514C112.566 103.339 112.804 103.093 112.97 102.799C113.136 102.506 113.224 102.174 113.225 101.836L113.299 87.1706C113.301 86.8985 113.404 86.6369 113.588 86.4365L137.162 60.8348C137.233 60.7569 137.28 60.6598 137.297 60.5554C137.314 60.4511 137.3 60.3441 137.257 60.2476C137.214 60.1511 137.143 60.0694 137.055 60.0125C136.966 59.9556 136.862 59.926 136.757 59.9273C136.698 59.9287 136.64 59.9399 136.584 59.9606L123.083 64.8547C122.964 64.8985 122.865 64.9825 122.801 65.0923L110.378 86.5149C110.329 86.6009 110.305 86.6986 110.307 86.7976Z" style="fill:var(--sapContent_Illustrative_Color13)"/>
<path d="M103.348 64.9306C123.403 64.9306 139.661 60.4333 139.661 54.8857C139.661 49.3381 123.403 44.8408 103.348 44.8408C83.293 44.8408 67.0352 49.3381 67.0352 54.8857C67.0352 60.4333 83.293 64.9306 103.348 64.9306Z" style="fill:var(--sapContent_Illustrative_Color13)"/>
<path d="M139.661 54.895C139.661 52.3861 136.333 50.0935 130.833 48.333L123.36 63.2792C133.181 61.4712 139.661 58.3874 139.661 54.895Z" style="fill:var(--sapContent_Illustrative_Color14)"/>
<path d="M103.348 66.9023C93.4782 66.9023 84.1744 65.8308 77.1516 63.8898C69.1363 61.6708 65.0718 58.644 65.0718 54.8855C65.0718 51.127 69.1339 48.1026 77.1516 45.8836C84.1744 43.9426 93.4782 42.8711 103.348 42.8711C113.218 42.8711 122.534 43.9426 129.547 45.8836C137.562 48.1026 141.627 51.1294 141.627 54.8855C141.627 58.6417 137.565 61.6708 129.547 63.8898C122.524 65.8237 113.22 66.9023 103.348 66.9023ZM103.348 46.8125C93.8217 46.8125 84.8874 47.8318 78.1961 49.6825C70.9222 51.6948 69.0013 53.959 69.0013 54.8855C69.0013 55.8121 70.9222 58.0786 78.1961 60.0909C84.8874 61.9416 93.8288 62.9609 103.348 62.9609C112.867 62.9609 121.809 61.9416 128.502 60.0909C135.774 58.0786 137.697 55.8145 137.697 54.8855C137.697 53.9566 135.774 51.6948 128.502 49.6825C121.809 47.8318 112.877 46.8173 103.348 46.8173V46.8125Z" fill="#0070F2"/>
</g>
<path d="M146.798 29.5651C146.798 28.5253 143.78 27.693 139.747 27.5039C139.517 23.4761 138.629 20.4811 137.589 20.4834C136.549 20.4857 135.685 23.5037 135.463 27.5523C131.419 27.829 128.412 28.7328 128.426 29.7749C128.44 30.817 131.444 31.6493 135.477 31.8361C135.719 35.864 136.595 38.8589 137.633 38.8566C138.67 38.8543 139.54 35.8363 139.761 31.7877C143.805 31.511 146.81 30.6072 146.798 29.5651Z" style="fill:var(--sapContent_Illustrative_Color3)"/>
<path d="M160.492 48.2654C160.492 47.5289 158.354 46.9393 155.498 46.8054C155.334 43.9523 154.706 41.8309 153.969 41.8325C153.232 41.8342 152.62 43.9719 152.463 46.8397C149.598 47.0356 147.469 47.6758 147.478 48.414C147.488 49.1522 149.616 49.7417 152.473 49.874C152.645 52.7271 153.265 54.8485 154 54.8469C154.735 54.8452 155.351 52.7075 155.508 49.8397C158.372 49.6437 160.5 49.0036 160.492 48.2654Z" style="fill:var(--sapContent_Illustrative_Color3)"/>
<defs>
<clipPath id="clip0_1663_6221">
<rect width="96.1601" height="114.833" style="fill:var(--sapContent_Illustrative_Color8)" transform="translate(7.65552 27.5601)"/>
</clipPath>
</defs>
</svg>
