<svg width="45" height="45" viewBox="0 0 45 45" fill="none" xmlns="http://www.w3.org/2000/svg" id="sapIllus-Dot-NoMail_v1">
<path d="M21.5172 5.75552L1.78058 15.2522C1.38135 15.4294 1.04175 15.718 0.802552 16.0835C0.576527 16.4438 0.457794 16.8611 0.460242 17.2865V36.2699C0.460237 36.87 0.697951 37.4457 1.12136 37.8709C1.54477 38.2962 2.1194 38.5364 2.71948 38.539H42.2513C42.8514 38.5364 43.426 38.2962 43.8494 37.8709C44.2729 37.4457 44.5106 36.87 44.5106 36.2699V17.2865C44.513 16.8611 44.3943 16.4438 44.1683 16.0835C43.9291 15.718 43.5895 15.4294 43.1902 15.2522L23.4928 5.72619C23.1863 5.58426 22.8525 5.51074 22.5147 5.51074C22.177 5.51074 21.8432 5.58426 21.5367 5.72619L21.5172 5.75552Z" style="fill:var(--sapContent_Illustrative_Color8)"/>
<path d="M2.75854 39.0378C2.02511 39.0351 1.32231 38.7434 0.802483 38.226C0.546733 37.9687 0.344251 37.6635 0.206634 37.3279C0.0690171 36.9922 -0.00103074 36.6327 0.000501409 36.2699V17.2865C-0.00972935 16.7663 0.136809 16.2551 0.421053 15.8194C0.700192 15.3936 1.09328 15.0547 1.55556 14.8414L21.2921 5.35452C21.6669 5.16887 22.0771 5.0655 22.4951 5.05134C22.9064 5.03982 23.3147 5.1235 23.6883 5.29585L43.4444 14.8316C43.9067 15.045 44.2998 15.3838 44.5789 15.8096C44.8632 16.2454 45.0097 16.7565 44.9995 17.2767V36.2602C45.001 36.6229 44.931 36.9824 44.7934 37.3181C44.6558 37.6537 44.4533 37.9589 44.1975 38.2162C43.6777 38.7336 42.9749 39.0253 42.2415 39.028L2.75854 39.0378ZM22.544 6.02937C22.2755 6.03056 22.011 6.09418 21.7714 6.21519L2.0348 15.702C1.733 15.8463 1.47856 16.0736 1.30128 16.3573C1.1137 16.6484 1.01827 16.9892 1.02743 17.3354V36.3286C1.02206 36.7688 1.18269 37.1948 1.47732 37.5218C1.80957 37.8547 2.25892 38.0443 2.7292 38.05H42.2512C42.4891 38.051 42.7248 38.0048 42.9447 37.9142C43.1646 37.8235 43.3644 37.6902 43.5325 37.5218C43.6977 37.3581 43.8287 37.163 43.9177 36.9481C44.0067 36.7331 44.0519 36.5026 44.0508 36.2699V17.2865C44.0594 16.9404 43.964 16.5997 43.777 16.3084C43.6034 16.0276 43.352 15.8033 43.0532 15.6629L23.2775 6.16629C23.0448 6.07152 22.7953 6.02494 22.544 6.02937Z" style="fill:var(--sapContent_Illustrative_Color4)"/>
<path d="M23.2089 27.2623C22.9016 27.4011 22.5682 27.4729 22.2309 27.4729C21.8937 27.4729 21.5603 27.4011 21.2529 27.2623L10.8369 22.2353L4.96875 19.4088L21.0377 11.653C21.3418 11.5031 21.6767 11.426 22.0158 11.4281C22.355 11.4246 22.6902 11.5017 22.9938 11.653L39.2779 19.4773L33.6054 22.2157L23.2089 27.2623Z" style="fill:var(--sapContent_Illustrative_Color3)"/>
<path d="M23.4926 27.1547C23.1853 27.2935 22.8519 27.3653 22.5146 27.3653C22.1774 27.3653 21.844 27.2935 21.5366 27.1547L21.3116 27.0374L0.841553 37.6783C1.0473 37.9998 1.32957 38.2653 1.6631 38.4509C1.99826 38.6368 2.37521 38.7345 2.75848 38.7345H42.2414C42.5806 38.7377 42.9157 38.6606 43.2194 38.5096C43.5339 38.3562 43.8084 38.1319 44.0214 37.8543L23.6589 27.096L23.4926 27.1547Z" style="fill:var(--sapContent_Illustrative_Color6)"/>
<path d="M2.75854 39.0378C2.02511 39.0351 1.32231 38.7434 0.802483 38.226C0.546733 37.9687 0.344251 37.6635 0.206634 37.3279C0.0690171 36.9922 -0.00103074 36.6327 0.000501409 36.2699V17.2865C-0.00972935 16.7663 0.136809 16.2551 0.421053 15.8194C0.700192 15.3936 1.09328 15.0547 1.55556 14.8414L21.2921 5.35452C21.6669 5.16887 22.0771 5.0655 22.4951 5.05134C22.9064 5.03982 23.3147 5.1235 23.6883 5.29585L43.4444 14.8316C43.9067 15.045 44.2998 15.3838 44.5789 15.8096C44.8632 16.2454 45.0097 16.7565 44.9995 17.2767V36.2602C45.001 36.6229 44.931 36.9824 44.7934 37.3181C44.6558 37.6537 44.4533 37.9589 44.1975 38.2162C43.6777 38.7336 42.9749 39.0253 42.2415 39.028L2.75854 39.0378ZM22.544 6.02937C22.2755 6.03056 22.011 6.09418 21.7714 6.21519L2.0348 15.702C1.733 15.8463 1.47856 16.0736 1.30128 16.3573C1.1137 16.6484 1.01827 16.9892 1.02743 17.3354V36.3286C1.02206 36.7688 1.18269 37.1948 1.47732 37.5218C1.80957 37.8547 2.25892 38.0443 2.7292 38.05H42.2512C42.4891 38.051 42.7248 38.0048 42.9447 37.9142C43.1646 37.8235 43.3644 37.6902 43.5325 37.5218C43.6977 37.3581 43.8287 37.163 43.9177 36.9481C44.0067 36.7331 44.0519 36.5026 44.0508 36.2699V17.2865C44.0594 16.9404 43.964 16.5997 43.777 16.3084C43.6034 16.0276 43.352 15.8033 43.0532 15.6629L23.2775 6.16629C23.0448 6.07152 22.7953 6.02494 22.544 6.02937Z" style="fill:var(--sapContent_Illustrative_Color4)"/>
<path opacity="0.51" d="M20.2358 26.783L21.2139 27.2622C21.5209 27.4023 21.8544 27.4747 22.1919 27.4747C22.5294 27.4747 22.8629 27.4023 23.1699 27.2622L33.5859 22.2352L39.2585 19.4967L37.0579 18.4404L20.2358 26.783Z" style="fill:var(--sapContent_Illustrative_Color15)"/>
<path d="M22.505 27.859C22.0938 27.8588 21.6873 27.7721 21.3118 27.6047L1.56541 18.069C0.998393 17.8061 0.541538 17.3527 0.274414 16.7877L1.16442 16.3672C1.33478 16.728 1.62518 17.0184 1.98596 17.1887L21.7323 26.7147C21.9748 26.8256 22.2383 26.8829 22.505 26.8829C22.7716 26.8829 23.0351 26.8256 23.2776 26.7147L43.0142 17.1887C43.3758 17.0163 43.6688 16.7268 43.8455 16.3672L44.7355 16.7877C44.4702 17.3564 44.0132 17.8135 43.4445 18.0787L23.7079 27.6047C23.3301 27.7755 22.9196 27.8623 22.505 27.859Z" style="fill:var(--sapContent_Illustrative_Color4)"/>
</svg>
