<svg width="128" height="128" viewBox="0 0 128 128" fill="none" xmlns="http://www.w3.org/2000/svg" id="sapIllus-Spot-FilteringColumns">
<rect y="36" width="128" height="55" rx="8" fill="var(--sapContent_Illustrative_Color20)"/>
<path d="M96.2298 82.7443L94.3807 81.8904L62.7262 78.9863C62.7262 78.9863 44.5998 77.091 39.6835 76.8245C33.5842 76.4928 27.5285 76.3215 27.1614 77.6077C26.7943 78.8938 30.8433 80.8218 41.1437 84.7728C48.8799 87.7422 56.8037 88.4492 59.4359 87.3833L75.0524 82.7796L96.2325 82.7443H96.2298Z" fill="var(--sapContent_Illustrative_Color21)"/>
<path d="M29.6946 48.0095L38.1929 78.7687C38.3749 79.4295 39.0186 79.8571 39.7046 79.7696L97.7978 72.7633C99.9272 72.2256 100.535 70.5153 100.246 69.6893L66.825 43.4974C66.6201 42.9143 66.0512 42.5386 65.4335 42.5775L31.3689 43.5751C30.4944 43.6302 28.7388 44.8838 29.6914 48.0128L29.6946 48.0095Z" fill="var(--sapContent_Illustrative_Color14)"/>
<path d="M30.1405 45.3049L39.0582 77.5767C39.2402 78.2375 39.8839 78.6651 40.5699 78.5776L99.1182 71.513C99.9895 71.3996 100.536 70.5186 100.246 69.6926L88.9847 40.8704C88.7799 40.2874 88.2109 39.9116 87.5932 39.9505L31.3857 43.5654C30.5111 43.6205 29.9064 44.4627 30.1405 45.3049Z" fill="var(--sapContent_Illustrative_Color8)"/>
<path d="M88.9847 40.8704C88.7799 40.2874 88.2109 39.9116 87.5932 39.9505L31.3857 43.5654C30.5111 43.6205 29.9064 44.4627 30.1405 45.3049L31.3889 49.8267L90.5517 44.887L88.9814 40.8704H88.9847Z" fill="var(--sapContent_Illustrative_Color13)"/>
<path d="M32.7636 45.7326L33.2578 47.4494C33.3131 47.6373 33.5244 47.7765 33.7357 47.7603L51.2979 46.5554C51.493 46.5424 51.6068 46.3837 51.5482 46.2055L51.0151 44.5536C50.9565 44.3754 50.7517 44.2394 50.5567 44.2523L33.0465 45.3731C32.8384 45.386 32.7116 45.548 32.7636 45.7326Z" fill="var(--sapContent_Illustrative_Color2)"/>
<path d="M51.9844 60.5176L40.7911 61.6102C40.519 61.6385 40.3565 61.8611 40.4296 62.112L40.718 63.1074C40.7911 63.3583 41.0713 63.5404 41.3434 63.5121L52.557 62.3831C52.821 62.3548 52.9713 62.1362 52.8941 61.8894L52.5936 60.9142C52.5164 60.6673 52.2443 60.4893 51.9844 60.5176Z" fill="var(--sapContent_Illustrative_Color2)"/>
<path d="M53.4591 65.3208L42.213 66.5065C41.9409 66.5348 41.7784 66.7655 41.8515 67.0204L42.1439 68.028C42.217 68.2829 42.4973 68.465 42.7734 68.4367L54.0439 67.2146C54.3079 67.1863 54.4582 66.9597 54.381 66.7088L54.0764 65.7214C53.9992 65.4706 53.7231 65.2925 53.4631 65.3208H53.4591Z" fill="var(--sapContent_Illustrative_Color2)"/>
<path d="M44.2153 73.4389L58.6334 71.7596C58.8974 71.7272 59.0436 71.5006 58.9664 71.2457L58.6537 70.2503C58.5765 69.9994 58.3003 69.8213 58.0364 69.8496L43.6427 71.4804C43.3705 71.5128 43.2081 71.7475 43.2812 72.0024L43.5777 73.0262C43.6508 73.2852 43.9351 73.4713 44.2113 73.4389H44.2153Z" fill="var(--sapContent_Illustrative_Color2)"/>
<path d="M39.0902 57.4708L39.3745 58.4501C39.4476 58.6969 39.7238 58.879 39.9959 58.8547L54.2109 57.5315C54.4708 57.5072 54.617 57.2928 54.5439 57.05L54.2474 56.095C54.1703 55.8522 53.9022 55.6782 53.6423 55.7025L39.4557 56.9812C39.1836 57.0055 39.0252 57.224 39.0943 57.4749L39.0902 57.4708Z" fill="var(--sapContent_Illustrative_Color2)"/>
<path d="M60.5698 57.1816L60.8584 58.0121C60.9296 58.2144 61.154 58.3635 61.3606 58.3422L72.453 57.2278C72.6524 57.2065 72.7522 57.0326 72.6809 56.8338L72.3817 56.0246C72.3105 55.8294 72.0896 55.6839 71.8937 55.7017L60.8192 56.7806C60.6126 56.8019 60.5022 56.9793 60.5734 57.1816H60.5698Z" fill="var(--sapContent_Illustrative_Color2)"/>
<path d="M68.6424 52.1587L59.495 52.9856C59.2884 53.0033 59.1779 53.1808 59.2492 53.3795L59.5342 54.1994C59.6054 54.3981 59.8262 54.5472 60.0328 54.5259L71.0918 53.5059C71.2912 53.4882 71.3945 53.3143 71.3233 53.1191L71.0312 52.317C70.96 52.1218 70.7427 51.9798 70.5432 51.9976L68.6424 52.1587Z" fill="var(--sapContent_Illustrative_Color2)"/>
<path d="M71.4379 59.8258L62.2157 60.7982C62.0091 60.8195 61.8986 61.0041 61.9699 61.2064L62.262 62.0475C62.3332 62.2534 62.5612 62.4024 62.7678 62.3776L72.0043 61.3767C72.2038 61.3554 72.3071 61.1744 72.2323 60.9721L71.933 60.1488C71.8582 59.95 71.6374 59.8045 71.4379 59.8258Z" fill="var(--sapContent_Illustrative_Color2)"/>
<path d="M64.1929 66.4693L75.3743 65.1668C75.5738 65.142 75.6735 64.961 75.5987 64.7587L75.2923 63.9282C75.2175 63.7259 74.9967 63.5804 74.7972 63.6017L63.6336 64.8651C63.427 64.89 63.3166 65.0745 63.3879 65.2839L63.6835 66.1357C63.7548 66.3451 63.9827 66.4942 64.1929 66.4693Z" fill="var(--sapContent_Illustrative_Color2)"/>
<path d="M65.6077 70.529L74.9154 69.372C75.1185 69.3472 75.2182 69.1591 75.1434 68.9532L74.8335 68.1086C74.7587 67.9027 74.5343 67.7572 74.3312 67.7821L65.0378 68.9107C64.8276 68.9355 64.7172 69.1272 64.792 69.3365L65.0912 70.199C65.166 70.4084 65.394 70.561 65.6041 70.5326L65.6077 70.529Z" fill="var(--sapContent_Illustrative_Color2)"/>
<path d="M87.7435 57.0601L78.3154 57.9819C78.0911 58.0018 77.979 58.2013 78.0631 58.4288L78.3955 59.3147C78.4796 59.5381 78.7279 59.7018 78.9522 59.6818L88.3923 58.7321C88.6086 58.7121 88.7127 58.5126 88.6286 58.2931L88.2882 57.4232C88.2041 57.2037 87.9597 57.0441 87.7435 57.064V57.0601Z" fill="var(--sapContent_Illustrative_Color2)"/>
<path d="M80.6028 64.0712L92.3899 62.7943C92.6062 62.7703 92.7063 62.5708 92.6222 62.3473L92.2777 61.4694C92.1896 61.246 91.9453 61.0863 91.729 61.1103L79.958 62.3513C79.7337 62.3753 79.6216 62.5788 79.7057 62.8062L80.0421 63.7041C80.1262 63.9316 80.3785 64.0952 80.6028 64.0712Z" fill="var(--sapContent_Illustrative_Color2)"/>
<path d="M76.5083 54.2826L76.8367 55.1565C76.9208 55.38 77.1691 55.5436 77.3894 55.5197L89.0964 54.4303C89.3087 54.4103 89.4128 54.2188 89.3287 54.0033L88.9923 53.1493C88.9082 52.9338 88.6638 52.7742 88.4516 52.7942L76.7646 53.8477C76.5403 53.8676 76.4282 54.0631 76.5123 54.2826H76.5083Z" fill="var(--sapContent_Illustrative_Color2)"/>
<path d="M82.2769 68.5243L91.7851 67.415C92.0014 67.391 92.1055 67.1875 92.0174 66.9601L91.6689 66.0662C91.5808 65.8387 91.3325 65.6791 91.1162 65.7031L81.6201 66.7805C81.3958 66.8044 81.2837 67.0119 81.3678 67.2434L81.7082 68.1532C81.7963 68.3847 82.0486 68.5483 82.2729 68.5243H82.2769Z" fill="var(--sapContent_Illustrative_Color2)"/>
<path d="M80.6562 77.3775L95.9301 82.748C95.9301 82.748 96.5719 83.0961 96.7976 81.6467C96.9689 80.5563 97.094 79.1233 96.2592 77.0621L82.3666 72.2437L80.6562 73.3341V77.3775Z" fill="var(--sapContent_Illustrative_Color3)"/>
<path d="M95.9301 82.7448C95.9301 82.7448 96.5719 83.0929 96.7976 81.6435C96.8465 81.3254 80.6562 76.0093 80.6562 76.0093V77.3743L95.9301 82.7448Z" fill="var(--sapContent_Illustrative_Color16)"/>
<path d="M96.5813 77.9751C96.4943 77.6841 96.3909 77.3796 96.2604 77.0587L82.3679 72.2402L82.2129 72.3408L82.561 73.4693L96.5813 77.9751Z" fill="var(--sapContent_Illustrative_Color31)"/>
<path d="M70.079 49.9731L70.4515 50.3511C70.7452 50.6502 70.9954 50.9901 71.1939 51.3599L82.3672 72.2436C82.3672 72.2436 83.4141 74.525 80.6568 77.3775L59.1776 87.3353C58.5957 87.6045 57.9567 87.735 57.3122 87.7105H57.2959L70.079 49.9731Z" fill="var(--sapContent_Illustrative_Color3)"/>
<path d="M52.9945 86.6091C53.7505 86.8674 54.6125 86.7124 55.5343 86.2094C52.9021 83.8926 53.1305 75.482 56.2576 66.2829C59.3059 57.3122 64.0808 50.6175 67.5614 50.0736C67.1508 49.285 66.6124 48.7466 65.9408 48.5182C65.7667 48.4584 65.5846 48.4258 65.3969 48.4094C65.3317 48.4067 65.2691 48.3986 65.2039 48.3986C61.6798 48.3632 56.467 55.5991 53.1332 65.41C50.4711 73.2468 49.7587 80.5099 51.015 84.1971C51.257 84.7791 51.5343 85.3066 51.8416 85.7743C52.1706 86.174 52.554 86.4568 52.9945 86.6064V86.6091Z" fill="var(--sapContent_Illustrative_Color3)"/>
<path d="M56.2559 66.2832C53.1288 75.4824 52.9004 83.8929 55.5326 86.2097C58.8718 84.3878 62.9968 77.9596 65.8004 69.7176C68.6882 61.22 69.2837 53.3968 67.5597 50.0767C64.0791 50.6205 59.3041 57.3152 56.2559 66.286V66.2832Z" fill="var(--sapContent_Illustrative_Color28)"/>
<path d="M65.2579 71.2404C65.4428 70.74 65.6223 70.2315 65.799 69.7176C68.6868 61.22 69.2823 53.3968 67.5584 50.0767C65.9812 50.3241 63.4306 52.1677 60.9941 56.1432C60.9941 56.1432 66.9656 57.1766 65.2579 71.2431V71.2404Z" fill="var(--sapContent_Illustrative_Color29)"/>
<path d="M70.0927 65.4308L62.4271 80.2488L57.2959 87.7049H57.3122C57.954 87.7294 58.593 87.6016 59.1776 87.3324L80.6651 77.3759L68.7904 77.6039C71.3957 70.9545 72.3674 61.5947 72.3674 61.5947L70.0927 65.4308Z" fill="var(--sapContent_Illustrative_Color16)"/>
<path d="M82.3672 72.2407L79.376 66.6499L72.0042 56.1401C72.0042 56.1401 72.1147 59.975 71.6045 62.9572L82.5575 73.4697C82.5766 72.7029 82.3645 72.2407 82.3645 72.2407H82.3672Z" fill="var(--sapContent_Illustrative_Color31)"/>
<path d="M67.558 50.0736C67.1474 49.285 66.609 48.7466 65.9374 48.5182C65.7634 48.4584 65.5812 48.4257 65.3935 48.4094C65.3283 48.4067 65.2657 48.3986 65.2005 48.3986C62.9435 48.3768 59.9986 51.3353 57.293 56.0396C57.2957 56.0396 59.5091 55.3516 60.9911 56.1402C63.2318 52.6324 65.5975 50.3809 67.5553 50.0736H67.558Z" fill="var(--sapContent_Illustrative_Color15)"/>
<path d="M70.4955 50.4409C69.8102 49.3179 67.6539 49.0025 66.5743 48.6354C66.1882 48.5048 65.7939 48.4341 65.3942 48.4097C65.5791 48.426 65.7613 48.4586 65.9381 48.5184C66.6097 48.7469 67.1508 49.2853 67.5587 50.0738C69.28 53.394 68.6872 61.2172 65.7994 69.7148C62.9986 77.9568 58.8708 84.385 55.5316 86.2069C54.6098 86.7099 53.7478 86.8649 52.9918 86.6066C52.5513 86.457 52.1652 86.1742 51.8389 85.7745C51.8497 85.7908 51.8606 85.8099 51.8715 85.8262C52.6818 87.0444 55.8824 87.9445 57.2964 87.7079C61.8511 86.9465 66.6369 79.6671 69.5818 71.001C72.4751 62.4871 72.8993 54.3811 70.4955 50.4409Z" fill="var(--sapContent_Illustrative_Color31)"/>
<path d="M69.2409 49.4703C68.7031 49.1992 67.6235 48.9179 66.5738 48.6354C66.1876 48.5048 65.7934 48.4341 65.3936 48.4097C65.5785 48.426 65.7607 48.4586 65.9375 48.5184C66.6091 48.7469 67.1503 49.2853 67.5581 50.0738C69.2809 53.4045 68.5761 63.4827 64.3809 73.4856C70.5186 64.1008 70.8058 53.1154 69.2409 49.4703Z" fill="var(--sapContent_Illustrative_Color31)"/>
</svg>