<svg width="128" height="128" viewBox="0 0 128 128" fill="none" xmlns="http://www.w3.org/2000/svg" id="sapIllus-Spot-Tent">
<path d="M112.702 22.6339C102.671 10.9288 88.7429 3.22975 73.4785 0.951621C58.2142 -1.32651 42.6387 1.96934 29.6144 10.2335H35.3547C35.9581 10.2167 36.5588 10.3207 37.1213 10.5395C37.6837 10.7584 38.1965 11.0875 38.6293 11.5075C39.062 11.9275 39.4061 12.4298 39.641 12.9847C39.8759 13.5397 39.9969 14.136 39.9969 14.7384C39.9969 15.3409 39.8759 15.9372 39.641 16.4921C39.4061 17.0471 39.062 17.5494 38.6293 17.9694C38.1965 18.3894 37.6837 18.7185 37.1213 18.9373C36.5588 19.1561 35.9581 19.2602 35.3547 19.2434H32.5321C32.6034 19.5673 32.6412 19.8976 32.6451 20.2292C32.6451 20.8335 32.5251 21.4318 32.2922 21.9896C32.0522 22.5505 31.7018 23.0576 31.2618 23.481C30.8218 23.9043 30.3012 24.2353 29.7308 24.4542C29.1609 24.6677 28.5538 24.7647 27.9456 24.7394H13.5825C6.96805 33.1449 2.58933 43.082 0.852905 53.628C19.1993 41.7346 34.2504 23.5177 66.9669 19.349C82.1414 17.3984 97.63 18.9335 112.702 22.6339Z" fill="var(--sapContent_Illustrative_Color7)"/>
<path d="M56.573 85.0518H56.1813C52.306 90.2506 47.9599 95.0827 43.1978 99.4873H52.5156L56.573 85.0518Z" fill="var(--sapContent_Illustrative_Color7)"/>
<path d="M56.573 85.0518H56.1813C52.306 90.2506 47.9599 95.0827 43.1978 99.4873H52.5156L56.573 85.0518Z" fill="var(--sapContent_Illustrative_Color20)"/>
<path d="M54.1667 85.1292C39.2461 85.6538 23.2671 87.0832 5.09717 89.0021C6.67008 92.6808 8.58731 96.2032 10.8234 99.5224H40.8796C45.7509 95.1509 50.1995 90.3319 54.1667 85.1292Z" fill="var(--sapContent_Illustrative_Color7)"/>
<path d="M54.1667 85.1292C39.2461 85.6538 23.2671 87.0832 5.09717 89.0021C6.67008 92.6808 8.58731 96.2032 10.8234 99.5224H40.8796C45.7509 95.1509 50.1995 90.3319 54.1667 85.1292Z" fill="var(--sapContent_Illustrative_Color20)"/>
<path d="M92.8809 115.092C92.5485 114.843 92.2959 114.503 92.1541 114.113C92.1859 114.254 92.193 114.399 92.1753 114.542C92.1407 114.729 92.0648 114.906 91.953 115.06C91.8365 115.212 91.684 115.333 91.5091 115.411C91.3341 115.49 91.1424 115.524 90.951 115.51L75.8611 115.584L75.8188 115.609C75.6366 115.688 75.4386 115.724 75.2402 115.715L62.8599 115.662C62.7766 115.669 62.6928 115.669 62.6094 115.662L49.5553 115.722C49.3659 115.738 49.1755 115.706 49.0013 115.63C48.8259 115.553 48.6732 115.432 48.5578 115.279C48.4423 115.126 48.3679 114.947 48.3416 114.757C48.3126 114.57 48.3321 114.378 48.398 114.201L52.5224 99.5153H43.2046C37.3239 104.957 30.8477 109.72 23.8986 113.715C34.8866 122.539 48.4879 127.493 62.5884 127.808C76.6889 128.122 90.4985 123.779 101.871 115.454L94.1511 115.539C93.6912 115.526 93.247 115.37 92.8809 115.092Z" fill="var(--sapContent_Illustrative_Color7)"/>
<path d="M10.8232 99.5048C13.3253 103.214 16.2081 106.652 19.4249 109.765C19.4748 109.655 19.5388 109.552 19.6154 109.458C19.7401 109.31 19.8953 109.19 20.0705 109.106C20.2439 109.022 20.432 108.972 20.6244 108.958C20.8176 108.972 21.006 109.025 21.1784 109.113C21.3489 109.199 21.5001 109.319 21.6229 109.465C21.7479 109.613 21.8405 109.786 21.8946 109.972C21.9426 110.158 21.9558 110.352 21.9334 110.543L21.8522 111.986C22.1027 112.204 22.3532 112.423 22.6073 112.638C29.1569 108.929 35.2867 104.526 40.8901 99.5048H10.8232Z" fill="var(--sapContent_Illustrative_Color7)"/>
<path d="M56.8092 84.2102L56.1812 85.0658H56.5728L56.8092 84.2102Z" fill="var(--sapContent_Illustrative_Color19)"/>
<path d="M58.097 79.6331L70.0292 37.1223L70.0503 37.0554L69.9974 36.8829C69.9657 36.7839 69.9585 36.6789 69.9762 36.5765C69.9828 36.4741 70.0117 36.3744 70.0609 36.2843C70.1111 36.1928 70.1796 36.1125 70.262 36.0484C70.3424 35.9813 70.4362 35.9321 70.5372 35.9041C70.6376 35.8729 70.7437 35.8644 70.8477 35.8794C70.9471 35.8877 71.0435 35.9177 71.1299 35.9674C71.2286 35.8566 71.3486 35.7668 71.4828 35.7034C71.6565 35.6262 71.8472 35.5947 72.0367 35.6118L121.604 36.2033C119.225 31.3231 116.233 26.7655 112.699 22.641C97.6263 18.9406 82.1378 17.4055 66.9667 19.3384C34.2502 23.5071 19.2027 41.724 0.849227 53.6175C-1.11844 65.5711 0.349562 77.8365 5.08301 88.9915C23.253 87.0902 39.232 85.6608 54.1525 85.1186C55.5308 83.3393 56.8456 81.5109 58.097 79.6331ZM34.2008 42.7803C34.1674 42.9075 34.0945 43.0208 33.9927 43.1042L27.8819 48.4946L32.7543 48.6883C32.8424 48.6918 32.9289 48.7133 33.0083 48.7517C33.0834 48.7872 33.1506 48.8375 33.2059 48.8995C33.2628 48.9614 33.3082 49.0329 33.3399 49.1108C33.3722 49.1961 33.3855 49.2874 33.3788 49.3784C33.3685 49.5438 33.2968 49.6995 33.1776 49.815C33.0579 49.9208 32.9037 49.9796 32.7437 49.9804L26.2589 49.7234C26.1307 49.7201 26.007 49.6757 25.9061 49.5967C25.8 49.519 25.72 49.4109 25.6768 49.2868C25.6415 49.1649 25.6415 49.0355 25.6768 48.9136C25.706 48.7837 25.7796 48.6679 25.885 48.5862L31.9957 43.1993L26.5624 42.981C26.4785 42.9768 26.3961 42.9577 26.3189 42.9246C26.2429 42.8868 26.1728 42.8382 26.1108 42.7803C26.0511 42.7178 26.0054 42.6434 25.9767 42.562C25.9454 42.4837 25.9309 42.3997 25.9344 42.3155C25.94 42.1432 26.0135 41.9799 26.139 41.8613C26.2018 41.8012 26.2762 41.7544 26.3577 41.724C26.4404 41.6953 26.5278 41.6822 26.6153 41.6853L33.6716 41.9705C33.798 41.9806 33.9187 42.0268 34.0195 42.1036C34.1202 42.1804 34.1966 42.2845 34.2396 42.4036C34.2614 42.5303 34.248 42.6606 34.2008 42.7803ZM42.0333 54.2125C41.9908 54.3418 41.9064 54.4533 41.7934 54.5294L37.9795 57.3461L40.8584 57.4622C40.9425 57.4647 41.0253 57.4838 41.1019 57.5186C41.1813 57.5535 41.2514 57.6066 41.3065 57.6735C41.3657 57.7296 41.4094 57.7999 41.4335 57.8777C41.472 57.9613 41.4867 58.0539 41.4759 58.1453C41.4678 58.3095 41.3971 58.4645 41.2783 58.5784C41.155 58.6916 40.9942 58.7556 40.8267 58.7579L36.1131 58.5678C35.9781 58.562 35.8482 58.5145 35.7414 58.4319C35.6346 58.3492 35.5561 58.2356 35.5168 58.1066C35.4745 57.9785 35.4745 57.8403 35.5168 57.7122C35.5568 57.5807 35.6417 57.4674 35.7567 57.3918L39.5565 54.5751L36.2789 54.4414C36.1953 54.4414 36.1125 54.4246 36.0354 54.3921C35.9564 54.3581 35.8863 54.3063 35.8308 54.2407C35.7154 54.116 35.6512 53.9527 35.6509 53.783C35.65 53.6918 35.6731 53.6019 35.7179 53.5224C35.7555 53.4485 35.8043 53.3808 35.8626 53.3217C35.9908 53.2106 36.1549 53.1493 36.3248 53.1492L41.4512 53.364C41.5801 53.3698 41.7037 53.4167 41.804 53.4978C41.9133 53.5746 41.993 53.6864 42.0298 53.8146C42.0704 53.943 42.0704 54.0807 42.0298 54.209L42.0333 54.2125Z" fill="var(--sapContent_Illustrative_Color18)"/>
<path d="M82.2965 70.7816C79.7633 64.9135 77.4194 58.9856 75.2649 52.9978L92.1189 113.983C92.1339 114.025 92.1457 114.069 92.1541 114.113C92.2959 114.503 92.5485 114.843 92.8809 115.092C93.2408 115.362 93.676 115.515 94.1264 115.528L101.846 115.444C103.257 114.409 104.63 113.331 105.946 112.18C99.0764 104.994 92.5387 95.4311 83.1644 72.8625L82.2965 70.7816Z" fill="var(--sapContent_Illustrative_Color3)"/>
<path d="M121.618 36.1962L72.051 35.6223C71.8616 35.6052 71.6709 35.6367 71.4971 35.7139C71.3636 35.7785 71.2438 35.8682 71.1443 35.9779C71.2379 36.0251 71.3199 36.0924 71.3842 36.1751C71.4456 36.2573 71.4933 36.3488 71.5253 36.4462C74.9129 47.9351 79.0015 59.2064 83.768 70.1971L84.6324 72.285C93.922 94.66 100.379 104.092 107.138 111.152C117.326 101.889 124.24 89.5866 126.847 76.081C129.454 62.5755 127.615 48.5907 121.604 36.2138L121.618 36.1962Z" fill="var(--sapContent_Illustrative_Color3)"/>
<path d="M83.7644 70.176C78.9983 59.1848 74.9086 47.9135 71.5182 36.4251C71.4889 36.3273 71.4423 36.2355 71.3806 36.154C71.3163 36.0713 71.2343 36.004 71.1407 35.9569C71.0542 35.9071 70.9579 35.8771 70.8584 35.8688C70.7544 35.8539 70.6483 35.8623 70.5479 35.8935C70.447 35.9215 70.3532 35.9707 70.2728 36.0378C70.1903 36.1019 70.1218 36.1822 70.0716 36.2737C70.0224 36.3638 69.9935 36.4636 69.987 36.566C69.9674 36.6682 69.9747 36.7737 70.0081 36.8723L70.0611 37.0448L70.0399 37.1117L58.1077 79.6331C56.8564 81.5108 55.5463 83.3464 54.1773 85.1397C50.2144 90.3319 45.7705 95.1402 40.9044 99.5012C35.3019 104.523 29.172 108.926 22.6216 112.634C23.0485 112.986 23.4824 113.338 23.9164 113.69C30.867 109.699 37.3434 104.937 43.2224 99.4942C47.9845 95.0897 52.3307 90.2575 56.206 85.0587L56.834 84.2031L56.5976 85.0446L52.5403 99.4801L48.4159 114.166C48.3499 114.343 48.3305 114.535 48.3594 114.722C48.3876 114.91 48.4615 115.089 48.5746 115.243C48.6927 115.394 48.8451 115.515 49.0192 115.595C49.1928 115.673 49.3836 115.704 49.5731 115.687L62.6273 115.627C62.5142 115.61 62.4039 115.578 62.2991 115.532C62.1197 115.452 61.9615 115.331 61.8369 115.18C61.7139 115.024 61.6282 114.842 61.5864 114.648C61.5441 114.454 61.5514 114.253 61.6076 114.064L68.8827 78.3867C69.0555 77.5346 69.3343 77.5346 69.5107 78.3867L76.5387 114.137C76.5847 114.331 76.5847 114.532 76.5387 114.725C76.4988 114.921 76.4116 115.103 76.2847 115.257C76.1682 115.396 76.024 115.508 75.8613 115.588L90.9512 115.514C91.1426 115.528 91.3344 115.494 91.5093 115.415C91.6842 115.336 91.8367 115.216 91.9532 115.063C92.0664 114.91 92.1424 114.733 92.1755 114.546C92.1932 114.403 92.186 114.257 92.1543 114.116C92.1543 114.074 92.1332 114.028 92.119 113.986L75.251 53.0048C77.4031 59.0044 79.747 64.9323 82.2826 70.7887L83.1505 72.866C92.5142 95.4417 99.0624 105.001 105.932 112.187C106.334 111.835 106.729 111.483 107.117 111.131C100.361 104.071 93.9043 94.6389 84.6147 72.2639L83.7644 70.176Z" fill="var(--sapContent_Illustrative_Color8)"/>
<path d="M75.2403 115.715C75.4388 115.724 75.6368 115.688 75.8189 115.609L75.8613 115.585C76.0239 115.505 76.1681 115.392 76.2846 115.254C76.4115 115.1 76.4987 114.917 76.5387 114.722C76.5846 114.529 76.5846 114.327 76.5387 114.134L69.5071 78.4008C69.3307 77.5523 69.0519 77.5523 68.8791 78.4008L61.604 114.078C61.5477 114.268 61.5405 114.469 61.5828 114.662C61.6246 114.856 61.7103 115.038 61.8333 115.194C61.9579 115.345 62.1161 115.466 62.2955 115.546C62.401 115.59 62.511 115.622 62.6236 115.641C62.707 115.648 62.7908 115.648 62.8741 115.641L75.2403 115.715Z" fill="var(--sapContent_Illustrative_Color4)"/>
<path d="M21.8945 109.969C21.8404 109.783 21.7479 109.61 21.6228 109.462C21.5001 109.316 21.3488 109.196 21.1783 109.11C21.0059 109.022 20.8175 108.969 20.6244 108.955C20.4319 108.968 20.2439 109.018 20.0705 109.103C19.8952 109.186 19.74 109.306 19.6153 109.455C19.5387 109.548 19.4747 109.651 19.4248 109.761C20.2104 110.521 21.016 111.262 21.8416 111.983L21.9333 110.536C21.9553 110.346 21.9421 110.154 21.8945 109.969Z" fill="var(--sapContent_Illustrative_Color4)"/>
<path d="M29.7164 24.4366C30.2868 24.2176 30.8074 23.8867 31.2474 23.4634C31.6874 23.04 32.0378 22.5329 32.2778 21.972C32.5108 21.4142 32.6307 20.8159 32.6307 20.2116C32.6266 19.88 32.5888 19.5497 32.5178 19.2257H35.3403C35.9437 19.2426 36.5444 19.1385 37.1069 18.9197C37.6693 18.7009 38.1821 18.3717 38.6149 17.9517C39.0477 17.5318 39.3917 17.0294 39.6266 16.4745C39.8615 15.9196 39.9825 15.3232 39.9825 14.7208C39.9825 14.1184 39.8615 13.5221 39.6266 12.9671C39.3917 12.4122 39.0477 11.9099 38.6149 11.4899C38.1821 11.0699 37.6693 10.7407 37.1069 10.5219C36.5444 10.3031 35.9437 10.199 35.3403 10.2159H29.6141C23.4909 14.109 18.0736 19.0103 13.5928 24.7112H27.9382C28.5434 24.7398 29.1482 24.6464 29.7164 24.4366Z" fill="var(--sapContent_Illustrative_Color18)"/>
<path d="M41.6101 53.7548C41.554 53.7093 41.4846 53.6834 41.4125 53.6808L36.3178 53.4661C36.2275 53.4655 36.1403 53.4995 36.0744 53.5611C36.0363 53.5925 36.0061 53.6323 35.9862 53.6773C35.9654 53.7151 35.9545 53.7575 35.9544 53.8006C35.9528 53.8472 35.96 53.8938 35.9756 53.9379C36.0131 54.0221 36.0777 54.0914 36.1591 54.135C36.2019 54.1518 36.2472 54.1613 36.2931 54.1632L40.4175 54.3322L35.9333 57.6629C35.8717 57.7036 35.8267 57.7647 35.8063 57.8355C35.7817 57.9025 35.7817 57.9761 35.8063 58.0432C35.8274 58.1146 35.8706 58.1774 35.9297 58.2228C35.9875 58.2676 36.0577 58.2934 36.1308 58.2967L40.8374 58.4868C40.927 58.4856 41.0128 58.4503 41.0773 58.3882C41.1416 58.3235 41.1783 58.2364 41.1796 58.1453C41.1869 58.1007 41.1795 58.055 41.1584 58.015C41.1473 57.9729 41.124 57.9349 41.0914 57.9059C41.062 57.8673 41.0231 57.837 40.9785 57.8179C40.9387 57.7994 40.8954 57.7898 40.8515 57.7897L37.1293 57.6383L41.6101 54.304C41.6716 54.2642 41.7177 54.2046 41.7406 54.135C41.7654 54.0668 41.7654 53.992 41.7406 53.9238C41.7182 53.8539 41.672 53.7941 41.6101 53.7548Z" fill="var(--sapContent_Illustrative_Color5)"/>
<path d="M42.0299 53.8323C41.993 53.704 41.9134 53.5922 41.8041 53.5154C41.7038 53.4343 41.5802 53.3874 41.4512 53.3816L36.3178 53.1668C36.1479 53.1669 35.9838 53.2282 35.8556 53.3393C35.7952 53.3974 35.7451 53.4652 35.7074 53.54C35.6626 53.6195 35.6395 53.7094 35.6404 53.8006C35.6407 53.9703 35.7049 54.1336 35.8203 54.2583C35.8758 54.3239 35.9459 54.3758 36.0249 54.4097C36.1023 54.4415 36.1847 54.4594 36.2684 54.4625L39.546 54.5928L35.7462 57.4094C35.6312 57.485 35.5463 57.5983 35.5063 57.7298C35.464 57.8579 35.464 57.9961 35.5063 58.1242C35.5456 58.2532 35.6241 58.3668 35.7309 58.4495C35.8377 58.5321 35.9676 58.5796 36.1026 58.5854L40.8162 58.7755C40.9837 58.7732 41.1445 58.7092 41.2678 58.596C41.3866 58.4821 41.4573 58.3271 41.4654 58.1629C41.4762 58.0715 41.4615 57.9789 41.423 57.8953C41.3989 57.8175 41.3552 57.7472 41.296 57.6911C41.2417 57.6234 41.1714 57.5702 41.0914 57.5362C41.0148 57.5014 40.932 57.4823 40.8479 57.4799L37.969 57.3637L41.7829 54.547C41.8959 54.4709 41.9803 54.3594 42.0228 54.2301C42.0651 54.102 42.0651 53.9638 42.0228 53.8358L42.0299 53.8323ZM41.737 54.135C41.7141 54.2046 41.6681 54.2643 41.6065 54.304L37.1151 57.6383L40.8373 57.7897C40.8812 57.7898 40.9246 57.7994 40.9644 57.8179C41.0089 57.837 41.0478 57.8673 41.0773 57.9059C41.1099 57.9349 41.1332 57.9729 41.1443 58.015C41.1653 58.055 41.1728 58.1007 41.1655 58.1453C41.1642 58.2364 41.1275 58.3235 41.0631 58.3882C40.9986 58.4503 40.9128 58.4856 40.8232 58.4868L36.1167 58.2967C36.0436 58.2935 35.9733 58.2676 35.9156 58.2228C35.8564 58.1774 35.8132 58.1146 35.7921 58.0432C35.7675 57.9761 35.7675 57.9025 35.7921 57.8355C35.8125 57.7647 35.8576 57.7036 35.9191 57.6629L40.4034 54.3322L36.279 54.1632C36.233 54.1613 36.1877 54.1518 36.1449 54.135C36.0637 54.089 36.0003 54.0171 35.965 53.9308C35.9494 53.8868 35.9422 53.8402 35.9438 53.7935C35.9439 53.7504 35.9548 53.7081 35.9756 53.6703C35.9955 53.6252 36.0257 53.5855 36.0638 53.5541C36.1297 53.4925 36.2169 53.4585 36.3072 53.459L41.4265 53.6738C41.4987 53.6763 41.5681 53.7023 41.6241 53.7477C41.6834 53.7876 41.7261 53.8477 41.7441 53.9168C41.765 53.9884 41.7625 54.0649 41.737 54.135Z" fill="var(--sapContent_Illustrative_Color5)"/>
<path d="M33.7774 42.3578C33.7245 42.3162 33.6609 42.2905 33.5939 42.2838L26.5376 41.9987H26.5165C26.4755 41.9987 26.435 42.0059 26.3965 42.0198C26.3539 42.0343 26.3153 42.0584 26.2836 42.0902C26.2485 42.1213 26.2208 42.1598 26.2025 42.2029C26.1816 42.2456 26.1707 42.2926 26.1707 42.3402C26.1708 42.3844 26.178 42.4284 26.1919 42.4705C26.2064 42.5129 26.2306 42.5515 26.2624 42.5831C26.295 42.619 26.3346 42.6477 26.3789 42.6676C26.4199 42.686 26.4644 42.6956 26.5094 42.6958L32.6872 42.9493L25.9837 48.8291C25.9281 48.8712 25.8883 48.9307 25.8708 48.9981C25.8499 49.0658 25.8499 49.1382 25.8708 49.2058C25.8945 49.2721 25.9375 49.3297 25.9943 49.3713C26.0492 49.4131 26.1158 49.4365 26.1848 49.4382L32.666 49.6988C32.7094 49.7004 32.7526 49.6932 32.793 49.6776C32.8333 49.6622 32.8703 49.6395 32.9024 49.6107C32.9524 49.5634 32.9873 49.5025 33.003 49.4356C33.0187 49.3686 33.0144 49.2985 32.9906 49.234C32.9747 49.1933 32.9507 49.1561 32.92 49.1249C32.8882 49.0865 32.8485 49.0553 32.8036 49.0333C32.762 49.0125 32.7161 49.0017 32.6695 49.0016L27.0563 48.7798L33.728 42.893C33.782 42.848 33.8213 42.7879 33.8409 42.7204C33.8585 42.6523 33.8585 42.5808 33.8409 42.5127C33.8325 42.4567 33.8107 42.4036 33.7774 42.3578Z" fill="var(--sapContent_Illustrative_Color5)"/>
<path d="M33.9574 42.1219C33.8568 42.041 33.7336 41.993 33.6046 41.9846L26.5483 41.6994C26.4608 41.6962 26.3735 41.7094 26.2908 41.7381C26.2092 41.7685 26.1348 41.8152 26.072 41.8754C25.9465 41.994 25.873 42.1572 25.8674 42.3296C25.864 42.4138 25.8784 42.4978 25.9097 42.5761C25.9384 42.6575 25.9841 42.7319 26.0438 42.7944C26.1058 42.8523 26.1759 42.9009 26.252 42.9387C26.3291 42.9718 26.4115 42.9909 26.4954 42.995L31.9288 43.2133L25.818 48.6002C25.7126 48.682 25.6391 48.7977 25.6098 48.9277C25.5746 49.0496 25.5746 49.179 25.6098 49.3009C25.653 49.425 25.733 49.533 25.8392 49.6107C25.9409 49.6883 26.0641 49.7325 26.192 49.7375L32.6767 49.9945C32.8367 49.9937 32.9909 49.9349 33.1107 49.829C33.2299 49.7136 33.3016 49.5579 33.3118 49.3924C33.3185 49.3015 33.3053 49.2102 33.273 49.1249C33.2413 49.047 33.1959 48.9755 33.1389 48.9136C33.0836 48.8516 33.0164 48.8013 32.9413 48.7657C32.8619 48.7274 32.7754 48.7058 32.6873 48.7024L27.8149 48.5087L33.9257 43.1183C34.0276 43.0349 34.1004 42.9215 34.1338 42.7944C34.1692 42.6713 34.1692 42.5407 34.1338 42.4176C34.104 42.3045 34.0429 42.202 33.9574 42.1219ZM33.901 42.7204C33.8814 42.7879 33.8421 42.848 33.7881 42.8929L27.1164 48.7798L32.7296 49.0016C32.7762 49.0017 32.8221 49.0125 32.8637 49.0333C32.9086 49.0553 32.9483 49.0865 32.9801 49.1249C33.0111 49.1563 33.0353 49.1938 33.051 49.235C33.0668 49.2762 33.0739 49.3202 33.0719 49.3643C33.0647 49.4565 33.0261 49.5435 32.9625 49.6107C32.9304 49.6395 32.8934 49.6622 32.8531 49.6776C32.8127 49.6932 32.7694 49.7003 32.7261 49.6988L26.2449 49.4382C26.1759 49.4365 26.1093 49.4131 26.0544 49.3713C25.9976 49.3297 25.9546 49.2721 25.9309 49.2058C25.91 49.1382 25.91 49.0658 25.9309 48.9981C25.9484 48.9307 25.9882 48.8712 26.0438 48.8291L32.7155 42.9493L26.5377 42.6958C26.4927 42.6956 26.4483 42.686 26.4072 42.6676C26.363 42.6477 26.3233 42.619 26.2908 42.5831C26.2589 42.5515 26.2347 42.5129 26.2202 42.4704C26.2063 42.4284 26.1992 42.3844 26.199 42.3402C26.1987 42.2925 26.2095 42.2455 26.2308 42.2029C26.2492 42.1598 26.2769 42.1213 26.3119 42.0902C26.3437 42.0584 26.3823 42.0343 26.4248 42.0198C26.4633 42.0058 26.5039 41.9987 26.5448 41.9986H26.566L33.6223 42.2838C33.6892 42.2905 33.7529 42.3162 33.8057 42.3578C33.8586 42.3964 33.8981 42.4506 33.9186 42.5127C33.9305 42.5823 33.9245 42.6538 33.901 42.7204Z" fill="var(--sapContent_Illustrative_Color5)"/>
<path d="M66.1094 6.12816C66.2438 6.46129 66.2457 6.83309 66.1145 7.16752C65.9833 7.50195 65.7291 7.77375 65.4038 7.92732C65.2408 7.99546 65.0658 8.03015 64.8891 8.02933C64.7124 8.02851 64.5377 7.99218 64.3753 7.92252C64.213 7.85287 64.0664 7.7513 63.9443 7.62388C63.8221 7.49647 63.727 7.34581 63.6644 7.18089C63.53 6.84776 63.5282 6.47596 63.6593 6.14153C63.7905 5.8071 64.0447 5.53531 64.37 5.38174C64.5329 5.31308 64.7081 5.27799 64.8849 5.27857C65.0618 5.27915 65.2366 5.31538 65.3991 5.3851C65.5616 5.45481 65.7082 5.55657 65.8303 5.68426C65.9523 5.81195 66.0473 5.96293 66.1094 6.12816Z" fill="var(--sapContent_Illustrative_Color10)"/>
<path d="M83.0691 12.1136C82.9668 13.7965 82.5964 15.0535 82.1659 15.05C81.7355 15.0465 81.365 13.786 81.2733 12.0925C79.5798 11.9763 78.3167 11.5995 78.3238 11.163C78.3308 10.7264 79.5868 10.3813 81.2733 10.3039C81.3756 8.61738 81.7425 7.36395 82.18 7.36395C82.6175 7.36395 82.9809 8.62794 83.0691 10.3215C84.7662 10.4341 86.0292 10.8179 86.0222 11.251C86.0151 11.684 84.7591 12.0326 83.0691 12.1136Z" fill="var(--sapContent_Illustrative_Color10)"/>
<path d="M48.6662 11.7932C48.7606 12.0249 48.7616 12.284 48.6688 12.5163C48.5761 12.7487 48.3969 12.9362 48.1687 13.0396C48.0558 13.0862 47.9348 13.1098 47.8126 13.1089C47.6905 13.108 47.5698 13.0826 47.4576 13.0344C47.3455 12.9861 47.2441 12.9159 47.1596 12.8279C47.0751 12.7399 47.0091 12.6359 46.9656 12.5221C46.8713 12.2909 46.8705 12.0323 46.9633 11.8005C47.056 11.5688 47.2352 11.3819 47.4631 11.2792C47.5757 11.232 47.6966 11.2079 47.8187 11.2083C47.9408 11.2087 48.0616 11.2337 48.1739 11.2816C48.2861 11.3296 48.3875 11.3996 48.4721 11.4875C48.5567 11.5754 48.6227 11.6794 48.6662 11.7932Z" fill="var(--sapContent_Illustrative_Color10)"/>
</svg>
