<svg width="160" height="160" viewBox="0 0 160 160" fill="none" xmlns="http://www.w3.org/2000/svg" id="sapIllus-Dialog-UserHasSignedUp">
<rect y="51.3423" width="160" height="69" rx="12" fill="var(--sapContent_Illustrative_Color20)"/>
<mask id="mask0_6869_476424" style="mask-type:alpha" maskUnits="userSpaceOnUse" x="0" y="51" width="160" height="70">
<rect y="51.3477" width="159.929" height="68.9695" rx="24" fill="var(--sapContent_Illustrative_Color20)"/>
</mask>
<g mask="url(#mask0_6869_476424)">
<path d="M79.2273 79.1412C78.9829 78.7373 78.7335 78.0241 78.5041 77.2461C78.6438 76.3883 78.1251 74.2638 77.5266 73.416C77.3072 73.1018 76.8384 73.3163 76.7935 73.3362C76.7636 73.3362 76.7337 73.3362 76.7038 73.3362C76.3946 73.3412 76.1253 73.4459 76.1253 73.4459C75.851 73.5656 75.6265 73.7003 75.437 73.8499L75.2675 49.4229C75.2525 47.6325 73.7963 46.1912 72.0059 46.2062L57.5781 46.3059C57.5332 46.3059 57.4933 46.3109 57.4484 46.3109H57.3886C57.3886 46.3109 57.3487 46.3109 57.3287 46.3159C57.1941 46.3259 57.0644 46.3458 56.9347 46.3707C54.2517 46.8096 53.6133 48.4703 53.6283 50.4801L53.6781 61.8857C53.6781 61.8857 53.6183 61.8259 53.5086 61.7361C53.5036 61.7311 53.4936 61.7261 53.4886 61.7212C53.4737 61.7112 53.4637 61.7012 53.4537 61.6912C53.4138 61.6613 53.3789 61.6364 53.349 61.6114C53.349 61.6114 53.339 61.6065 53.334 61.6015C53.2492 61.5416 53.1894 61.5017 53.1894 61.5017C53.0996 61.4419 53.0099 61.387 52.9101 61.3371H52.9201C52.9201 61.3371 52.187 60.5592 51.3392 60.7786C50.4963 61.003 50.3916 61.771 50.4963 62.3296C50.4963 62.3296 50.4963 62.3246 50.4963 62.3196C50.4415 62.6388 50.4564 62.9729 50.5113 63.3121V63.3021C50.5113 63.317 50.5163 63.332 50.5213 63.347C50.5313 63.4118 50.5462 63.4816 50.5612 63.5465C50.5861 63.6562 50.616 63.7709 50.6509 63.8856C50.6659 63.9305 50.6809 63.9753 50.6958 64.0152C50.7108 64.0601 50.7258 64.105 50.7407 64.1499C50.8604 64.4741 51 64.7833 51.1497 65.0526C51.2295 65.2072 51.3541 65.4017 51.4988 65.6161C52.1321 66.6285 52.9001 67.5611 53.344 68.0648C53.4787 68.2294 53.5983 68.384 53.7031 68.5136L53.718 71.8002C53.5784 71.6805 53.4388 71.5708 53.3241 71.496C53.0198 71.3015 52.7007 71.2715 52.3466 71.3563C51.9925 71.4411 51.6085 71.6506 51.1796 71.9398C50.6759 72.2789 50.4664 72.6629 50.4415 73.1666L50.4365 73.1716C50.4365 73.1716 50.3966 73.5457 50.5063 73.9895C50.6111 74.4234 50.9053 75.5754 52.0872 76.7175C52.1421 76.7723 52.172 76.8073 52.172 76.8073C52.172 76.8073 51.8179 76.8821 51.3591 77.1015C51.0848 77.2312 50.7706 77.4157 50.4714 77.6601C50.0226 78.0291 50.0974 78.6874 50.3368 79.4205C50.4415 79.7447 50.5811 80.0888 50.7208 80.4279C50.7906 80.5925 50.8554 80.7571 50.9203 80.9216C50.9951 81.1211 51.0599 81.3106 51.1148 81.4752C51.1148 81.4902 51.1247 81.5051 51.1297 81.5201C51.1447 81.58 51.1646 81.6398 51.1796 81.6996C51.1896 81.7395 51.1995 81.7844 51.2095 81.8243C51.2245 81.8842 51.2394 81.939 51.2544 81.9989C51.2644 82.0487 51.2743 82.0936 51.2893 82.1435C51.3043 82.2033 51.3142 82.2632 51.3292 82.323C51.3392 82.3779 51.3541 82.4328 51.3641 82.4876C51.3741 82.5425 51.3841 82.6023 51.399 82.6572C51.409 82.7021 51.419 82.7469 51.424 82.7968C51.4339 82.8417 51.4389 82.8816 51.4489 82.9265C51.4838 83.131 51.5237 83.3454 51.5586 83.5648C51.6035 83.8541 51.6534 84.1483 51.6982 84.4575C51.7082 84.5274 51.8379 85.4151 52.0025 86.3826C52.0174 86.4574 52.0274 86.5322 52.0424 86.612C52.0523 86.6818 52.0673 86.7566 52.0773 86.8264C52.0872 86.8913 52.1022 86.9561 52.1122 87.0159C52.192 87.4648 52.2718 87.8887 52.3516 88.2228C52.3615 88.2627 52.3665 88.3026 52.3765 88.3425C52.4513 88.6767 52.5311 89.0357 52.6259 89.4197C52.6707 89.6092 52.7206 89.8087 52.7705 90.0082C52.975 90.8111 53.2143 91.6739 53.4836 92.5467C54.0223 94.2872 54.6756 96.0377 55.4037 97.2994C55.5832 97.6136 55.8276 98.0026 56.1119 98.4415C56.3014 98.7357 56.5058 99.0499 56.7203 99.3791C56.825 99.5436 56.9347 99.7132 57.0445 99.8828C58.1466 101.603 59.3435 103.618 59.5979 105.054C59.6029 105.089 59.6079 105.134 59.6128 105.174C59.6178 105.219 59.6228 105.254 59.6328 105.304C59.6378 105.359 59.6428 105.428 59.6477 105.493C59.6477 105.538 59.6577 105.573 59.6577 105.623C59.6577 105.688 59.6627 105.768 59.6677 105.842C59.6677 105.897 59.6727 105.947 59.6777 106.007C59.6777 106.077 59.6777 106.152 59.6827 106.221C59.6827 106.296 59.6827 106.366 59.6876 106.446C59.6876 106.516 59.6876 106.595 59.6876 106.67C59.6876 106.76 59.6876 106.845 59.6876 106.94C59.6876 107.019 59.6876 107.109 59.6876 107.199C59.6876 107.294 59.6876 107.383 59.6876 107.483C59.6876 107.568 59.6876 107.663 59.6876 107.747C59.6876 107.852 59.6876 107.957 59.6876 108.067C59.6876 108.146 59.6876 108.236 59.6876 108.321C59.6876 108.446 59.6876 108.565 59.6827 108.69C59.6827 108.77 59.6827 108.855 59.6777 108.934C59.6777 109.074 59.6727 109.209 59.6677 109.348C59.6677 109.428 59.6677 109.508 59.6627 109.588C59.6627 109.732 59.6527 109.882 59.6527 110.032C59.6527 110.131 59.6477 110.231 59.6428 110.331C59.6428 110.465 59.6328 110.6 59.6278 110.74C59.6278 110.805 59.6278 110.874 59.6228 110.939C59.6228 110.939 56.83 111.632 56.042 111.997C55.7528 112.131 55.7628 112.745 55.7927 113.493C55.8276 114.241 55.8974 115.418 55.8974 115.418H55.9074C55.9323 117.537 55.8675 122.18 55.8675 122.18H59.0543V122.19L63.3781 122.18H76.4943C76.4943 122.18 76.594 113.333 76.604 112.994C76.619 112.48 76.629 111.822 76.604 111.318C76.604 110.765 73.9808 110.51 73.9808 110.51L74.0157 110.835C73.6716 107.473 73.3474 104.7 73.3474 103.768C73.3474 102.401 74.4396 100.711 75.1677 99.4638C75.8659 98.2669 76.3995 96.8605 77.2573 95.0003C78.1201 93.1451 79.3918 88.5669 79.2522 87.38C79.2273 87.1556 79.2123 86.8913 79.2023 86.617C79.1724 85.8988 79.1874 85.056 79.2223 84.2531C79.2223 84.2132 79.2223 84.1683 79.2273 84.1284C79.2322 84.0087 79.2372 83.889 79.2422 83.7743C79.2422 83.6895 79.2522 83.6097 79.2572 83.5299C79.2572 83.4501 79.2672 83.3653 79.2721 83.2856C79.2821 83.121 79.2921 82.9614 79.3021 82.8118C79.327 82.4727 79.3769 82.1435 79.4267 81.8193C79.4517 81.6597 79.4816 81.5002 79.5065 81.3406C79.6262 80.5526 79.6811 79.8095 79.2572 79.1163L79.2273 79.1412ZM74.0007 111.054C74.0007 111.054 74.0157 111.054 74.0307 111.054C74.0207 111.054 74.0107 111.054 74.0007 111.054C74.0007 111.019 73.9957 110.984 73.9908 110.949L74.0007 111.054Z" fill="var(--sapContent_Illustrative_Color21)"/>
</g>
<path d="M71.9111 107.33C71.9111 107.33 77.8389 105.299 82.909 105.294C89.0535 105.29 93.4828 106.119 93.4828 106.119L88.7048 111.637L72.142 109.135L71.9111 107.33Z" fill="var(--sapContent_Illustrative_Color22)"/>
<path d="M75.1817 120.185C75.1817 120.185 76.1853 104.537 75.7612 102.11C75.3372 99.6831 72.3497 95.692 71.3366 93.925C69.8099 91.2627 68.566 86.5271 68.0382 83.9732C67.5105 81.4192 67.2325 78.2857 66.7236 76.9192C66.2147 75.5528 65.3099 73.9035 66.1487 73.2062C66.9874 72.5088 67.9487 72.3062 67.9487 72.3062C67.9487 72.3062 66.6717 71.0575 66.323 69.7805C65.9743 68.5035 66.0026 67.7779 66.9026 67.17C67.8026 66.5622 68.5283 66.2983 69.1644 66.7035C69.8005 67.1088 70.9031 68.3009 70.9927 68.824C71.0822 69.347 70.9267 70.5533 69.6167 71.1941L69.6026 72.4805C69.6026 72.4805 70.5262 74.1627 70.9314 75.2371C71.3366 76.3114 71.9398 77.8098 69.7534 78.2151L70.4602 82.4465L84.1628 83.5915L92.1733 78.3706C92.1733 78.3706 92.3476 77.5554 92.3476 76.9192C92.3476 76.9192 91.6502 75.124 91.7115 72.8292C91.7728 70.5344 91.7115 69.6391 93.2193 68.7391C93.2193 68.7391 94.3502 68.3056 94.6989 69.1161C95.0476 69.9266 95.7733 73.5784 96.4895 74.747C97.2057 75.9156 96.6309 77.2161 96.5366 78.6486C96.4424 80.081 96.3434 82.2109 96.4895 83.4643C96.6356 84.7177 95.2926 89.5428 94.3832 91.503C93.4738 93.4632 92.9131 94.9522 92.178 96.2103C91.4429 97.4684 90.2555 99.3109 90.2555 100.753C90.2555 102.195 90.9811 107.774 91.4476 113.4C91.7775 117.339 91.867 120.152 91.867 120.152L75.177 120.185H75.1817Z" fill="var(--sapContent_Illustrative_Color31)"/>
<path d="M69.9605 64.0352C69.9605 64.0352 67.4772 61.0289 66.8788 59.9074C66.2804 58.786 65.7243 57.1226 66.6196 56.0483C67.5149 54.9739 69.3149 56.2273 69.7013 56.7221C70.0877 57.2169 70.2149 57.3959 70.2149 57.3959L69.9558 64.0399L69.9605 64.0352Z" fill="var(--sapContent_Illustrative_Color31)"/>
<path d="M89.7463 67.5833C89.7463 67.5833 91.2871 67.6729 92.2154 69.9064C93.1437 72.1399 92.2578 73.8551 93.1013 75.2781C93.1013 75.2781 93.1814 75.9849 92.2154 79.2174C91.2494 82.4498 92.762 82.8833 91.4379 83.8634C89.9678 84.9519 89.0489 85.409 87.362 86.9262C85.6751 88.4435 85.6421 90.2341 84.2992 91.1152C82.9562 91.9964 77.773 89.2351 75.6055 81.6299L88.507 68.5729C88.507 68.5729 88.7945 67.9462 89.7416 67.5786L89.7463 67.5833Z" fill="var(--sapContent_Illustrative_Color3)"/>
<path d="M73.6313 85.4381C71.7465 85.4522 69.5601 84.2459 69.6449 81.282L69.4847 44.5187C69.4659 42.2852 70.2151 40.4522 73.4523 40.1177L88.0643 40.5229C89.9491 40.5088 91.4946 42.0308 91.5041 43.9156L92.5501 81.937C92.2015 84.0574 90.5899 85.1836 86.9852 85.4946L73.6266 85.4428L73.6313 85.4381Z" fill="var(--sapContent_Illustrative_Color1)"/>
<path d="M70.2578 43.5483L70.5264 81.5603C70.5405 83.4498 72.0814 84.9671 73.9709 84.9577L89.1908 84.8493C91.0803 84.8351 92.5976 83.2943 92.5835 81.4048L92.3149 43.3928C92.3007 41.5079 90.7599 39.986 88.8751 40.0001L73.6552 40.1085C71.7657 40.1226 70.2484 41.6634 70.2625 43.553L70.2578 43.5483Z" fill="var(--sapContent_Illustrative_Color11)"/>
<path d="M88.889 40.7914L85.2984 40.815L85.3126 42.8553C85.3126 43.3406 84.9262 43.7317 84.4408 43.7411L78.155 43.7835C77.6696 43.7835 77.2785 43.3971 77.2691 42.9118L77.255 40.8715L73.6644 40.8951C72.2131 40.9045 71.0492 42.0872 71.0587 43.5385L71.3272 81.5552C71.3367 83.0065 72.5194 84.1704 73.9707 84.161L89.1953 84.0526C90.6466 84.0432 91.8105 82.8605 91.801 81.4092L91.5325 43.3924C91.523 41.9411 90.3403 40.7773 88.889 40.7867V40.7914Z" fill="var(--sapContent_Illustrative_Color8)"/>
<path d="M82.3342 42.4119L79.3844 42.4307C79.1724 42.4307 78.998 42.2705 78.998 42.0726C78.998 41.8747 79.1724 41.7098 79.3844 41.7098L82.3342 41.6909C82.5462 41.6909 82.7206 41.8511 82.7206 42.049C82.7206 42.2469 82.5462 42.4119 82.3342 42.4119Z" fill="var(--sapContent_Illustrative_Color22)"/>
<path d="M83.626 42.3932C83.8191 42.3743 83.9605 42.2047 83.9464 42.0162C83.9322 41.8277 83.7579 41.6816 83.5694 41.6958C83.3809 41.7099 83.2349 41.8843 83.249 42.0727C83.2631 42.2612 83.4375 42.4073 83.626 42.3932Z" fill="var(--sapContent_Illustrative_Color22)"/>
<path d="M69.3577 51.0512L69.3766 54.6794C69.3766 55.014 69.1551 55.0611 69.2352 55.0988L69.4049 55.1648C69.7583 55.1553 70.0504 55.1553 70.0646 54.7313L70.074 50.8438C70.0504 50.4574 69.7441 50.3114 69.386 50.3444L69.3342 50.4622C69.0892 50.5046 69.3577 50.7213 69.353 51.0559L69.3577 51.0512Z" fill="var(--sapContent_Illustrative_Color11)"/>
<path d="M69.0656 50.927L69.042 54.6543C69.042 54.9181 69.0608 55.0972 69.3059 55.149C69.5697 55.149 69.7912 55.1726 69.7912 54.9087L69.7818 50.7998C69.7818 50.5359 69.6546 50.3333 69.3907 50.3286C69.1315 50.3522 69.0656 50.6537 69.0703 50.9176L69.0656 50.927Z" fill="var(--sapContent_Illustrative_Color1)"/>
<path d="M88.1254 56.3228C87.904 56.1249 87.6165 56.0259 87.3197 56.0448C87.0228 56.0636 86.7354 56.205 86.5422 56.4311L79.361 64.7385L76.8307 61.5296C76.6469 61.294 76.383 61.1432 76.0862 61.1102C75.7893 61.0772 75.4972 61.1573 75.2616 61.3411C75.026 61.5249 74.8752 61.7887 74.8422 62.0856C74.8092 62.3824 74.8893 62.6746 75.0778 62.9102L78.4563 67.1934C78.6731 67.462 78.9841 67.6175 79.3092 67.6175H79.3281C79.6485 67.6175 79.9548 67.4762 80.1668 67.2311L88.2338 57.8966C88.4317 57.6751 88.5307 57.3877 88.5118 57.0908C88.493 56.794 88.3516 56.5112 88.1301 56.3181L88.1254 56.3228Z" fill="var(--sapContent_Illustrative_Color9)"/>
<path d="M66.7238 76.9178C66.9406 77.5021 67.1149 78.4068 67.2893 79.4529C67.2893 79.4529 69.5558 79.4717 69.6406 79.4764V78.4916C72.5149 78.0628 71.6856 76.2534 71.2757 75.1791C70.8704 74.1047 69.6076 72.4744 69.6076 72.4744L69.6217 71.188C71.2851 71.0278 71.3275 69.5623 70.9977 68.8178C70.7809 68.3325 69.8102 67.1073 69.1694 66.6974C68.5286 66.2874 67.8076 66.5513 66.9076 67.1639C66.0076 67.7765 65.9793 68.4974 66.328 69.7744C66.6767 71.0513 67.9537 72.3 67.9537 72.3C67.9537 72.3 66.9971 72.5026 66.1537 73.2C65.3102 73.8974 66.2197 75.5419 66.7286 76.9131L66.7238 76.9178Z" fill="var(--sapContent_Illustrative_Color31)"/>
<path d="M68.7262 75.109C68.123 75.7122 68.6461 76.9138 68.9665 77.498L69.2304 77.8986C69.2304 77.8986 70.1869 78.1106 71.1717 76.9703C71.1717 76.9703 70.7429 75.3069 69.9749 74.9535C69.3293 74.6567 68.9665 74.8734 68.7262 75.1138V75.109Z" fill="var(--sapContent_Illustrative_Color11)"/>
<path d="M68.2074 70.1992C68.2074 70.1992 68.2828 68.484 70.3985 68.9599V68.8044C70.3985 68.8044 69.7106 67.4096 68.476 67.6028C67.2414 67.796 67.4865 68.9646 67.6655 69.384C67.8446 69.8034 68.0378 70.1992 68.0378 70.1992H68.2121H68.2074Z" fill="var(--sapContent_Illustrative_Color11)"/>
<path d="M66.1867 57.0236C66.1867 57.0236 66.4788 55.4026 68.4956 55.9728H68.7406C68.7406 55.9728 67.9678 55.1529 67.0725 55.3838C66.1773 55.6147 66.0736 56.4298 66.1867 57.0236Z" fill="var(--sapContent_Illustrative_Color11)"/>
<path d="M66.2051 58.0526C66.2051 58.0526 66.714 59.7348 68.0192 59.7348C69.1313 59.7348 69.5365 57.506 69.0276 56.1489C69.0276 56.1489 69.1501 56.229 69.3056 56.3468C69.4611 56.4646 69.5412 56.5494 69.5412 56.5494L69.5695 63.5138C69.5695 63.5138 66.5066 60.2672 66.2051 58.0573V58.0526Z" fill="var(--sapContent_Illustrative_Color3)"/>
<path d="M69.6215 71.1936C69.6215 71.1936 67.9251 71.3821 67.0299 69.8271C66.1346 68.2722 66.1157 68.4701 66.1157 68.4701C66.1157 68.4701 66.078 68.8659 66.1864 69.3324C66.2948 69.7989 66.6152 71.0711 67.944 72.3057C67.944 72.3057 69.0796 72.0041 69.6026 72.48L69.6168 71.1936H69.6215Z" fill="var(--sapContent_Illustrative_Color3)"/>
<path d="M69.6359 78.4919C69.6359 78.4919 68.3495 78.7416 66.0029 75.0615C66.0029 75.0615 66.5731 76.4798 66.8322 77.2479C67.0914 78.016 67.4307 80.3673 67.4307 80.3673C67.4307 80.3673 67.8218 83.0579 68.1186 84.349C68.1186 84.349 68.7689 80.994 69.6453 81.2767L69.6359 78.4919Z" fill="var(--sapContent_Illustrative_Color3)"/>
<path d="M96.4939 74.7467C95.7777 73.5734 95.052 69.9263 94.7033 69.1158C94.3546 68.3053 93.2238 68.7389 93.2238 68.7389C93.2238 68.7389 92.0599 70.1148 92.9881 72.3483C93.9164 74.5818 93.9918 76.6315 94.8353 78.0498C94.8353 78.0498 94.2604 78.342 93.5866 79.4729C94.1709 80.0996 94.8871 80.8771 95.3772 81.4566C95.7258 81.8666 96.084 82.2624 96.4374 82.6582C96.3855 81.4189 96.4609 79.8074 96.541 78.6483C96.6353 77.2158 97.2101 75.92 96.4939 74.7467Z" fill="var(--sapContent_Illustrative_Color31)"/>
<path d="M94.2941 77.7193C94.0773 76.0276 93.4035 74.746 92.9842 72.3428C92.5648 69.9397 93.2198 68.7334 93.2198 68.7334C91.6836 69.4025 91.5423 70.524 91.481 72.814C91.4245 75.1041 92.348 76.9135 92.348 76.9135C92.5836 77.5213 92.5836 78.4119 92.5836 78.4119C92.5836 78.4119 91.9899 81.3334 92.5506 81.9318C93.2198 80.8009 94.2894 77.7193 94.2894 77.7193H94.2941Z" fill="var(--sapContent_Illustrative_Color3)"/>
<path d="M95.7313 72.7482C95.7313 72.7482 94.7842 72.1215 94.4214 70.9811C94.0585 69.8408 93.9219 68.7571 93.9219 68.6251C93.9219 68.6251 94.459 68.3565 94.7041 68.7052C95.3355 69.6005 95.8774 71.8434 95.7313 72.7482Z" fill="var(--sapContent_Illustrative_Color11)"/>
<path d="M81.4202 107.731C82.1553 103.339 85.7883 100.819 80.4966 99.6405C77.4762 98.9667 75.0024 96.262 73.1836 93.7741C70.6579 90.3154 68.5611 82.894 69.0652 81.5981L67.9014 83.2568C67.9438 83.4971 67.9909 83.7327 68.038 83.9683C68.5658 86.5269 69.8097 91.2578 71.3364 93.9201C72.3495 95.6871 75.3417 99.6782 75.761 102.105C76.1804 104.518 75.1956 119.973 75.1815 120.171H79.7333C79.7333 120.171 80.8359 111.218 81.4202 107.731Z" fill="var(--sapContent_Illustrative_Color3)"/>
<path d="M93.5818 117.522C93.5818 117.522 93.6855 108.187 93.6996 107.829C93.7138 107.287 93.7279 106.59 93.6996 106.062C93.6808 105.676 91.3672 105.421 91.3672 105.421L91.4049 105.812C91.4049 105.812 92.7384 105.996 92.9598 106.171C93.1766 106.34 92.8185 106.543 92.4933 106.698C89.7745 107.919 83.3284 109.078 78.7106 108.894C76.4441 108.805 73.8054 108.343 72.7546 108.126C72.5284 108.079 72.3682 107.971 72.2457 107.853C72.1468 107.561 72.1279 107.254 72.7216 107.075C73.3153 106.896 75.6101 106.274 75.6101 106.274L75.6384 105.977C75.6384 105.977 72.2928 106.774 72.0054 106.958C71.718 107.137 71.718 107.57 71.7557 108.357C71.7934 109.149 71.8688 110.388 71.8688 110.388H71.8782C71.9064 112.621 71.8387 120.274 71.8387 120.274H93.5949L93.5818 117.522Z" fill="var(--sapContent_Illustrative_Color9)"/>
<path d="M93.6998 107.828C93.7139 107.286 93.6998 106.593 93.6998 106.061C93.6998 105.477 90.6432 105.183 90.6432 105.183L90.6974 105.731C90.6974 105.731 92.7338 105.99 92.9553 106.16C93.1721 106.33 92.8139 106.532 92.4888 106.688C89.77 107.908 83.3239 109.067 78.7061 108.884C76.4396 108.794 73.8009 108.332 72.7501 108.115C72.5239 108.068 72.3637 107.96 72.2412 107.842C72.1422 107.55 72.1234 107.244 72.7171 107.065C73.3108 106.886 75.8456 106.28 75.8456 106.28L75.8569 105.631C75.8569 105.631 72.8443 106.381 72.0103 106.768C71.704 106.909 71.7134 107.555 71.7511 108.346C71.7888 109.138 71.8642 110.377 71.8642 110.377H71.8736C71.9019 112.611 71.8312 120.275 71.8312 120.275H77.0098C77.0098 120.275 76.859 112.158 80.3459 111.631C89.4967 110.241 93.7045 107.903 93.7092 107.823L93.6998 107.828Z" fill="var(--sapContent_Illustrative_Color17)"/>
</svg>