<svg width="126" height="131" viewBox="0 0 126 131" fill="none" xmlns="http://www.w3.org/2000/svg" id="sapIllus-Spot-SimpleConnection">
<path d="M43.3377 47.3951H62.613C63.9437 47.3951 65.0225 46.3164 65.0225 44.9857C65.0225 43.655 63.9437 42.5763 62.613 42.5763H43.3377C42.007 42.5763 40.9283 43.655 40.9283 44.9857C40.9283 46.3164 42.007 47.3951 43.3377 47.3951Z" fill="var(--sapContent_Illustrative_Color3)"/>
<path d="M10.4192 120.471C9.87066 120.474 9.33817 120.286 8.91333 119.938C2.47819 114.758 -0.573708 108.745 0.0888805 102.531C1.0928 92.8728 9.38515 86.9496 24.6347 84.9418C35.7682 83.4761 46.982 83.7572 57.8244 84.0282C61.5991 84.1186 65.5144 84.219 69.3494 84.239C72.3612 84.239 75.373 84.3997 78.2643 84.5403C88.1428 85.0021 98.3426 85.494 107.278 81.0767C110.336 79.5387 113.03 77.3643 115.179 74.6995C117.327 72.0347 118.881 68.9411 119.736 65.6264C120.754 62.0775 121.012 58.354 120.493 54.6987C119.974 51.0435 118.69 47.5388 116.724 44.4135L116.463 44.0119C113.452 39.3939 109.235 37.4061 102.409 37.3659C101.77 37.3659 101.157 37.1121 100.705 36.6602C100.253 36.2084 99.9991 35.5956 99.9991 34.9566C99.9991 34.3175 100.253 33.7047 100.705 33.2528C101.157 32.801 101.77 32.5471 102.409 32.5471C110.962 32.5973 116.544 35.318 120.479 41.3716L120.75 41.7933C123.085 45.4864 124.617 49.63 125.245 53.9542C125.873 58.2785 125.583 62.6865 124.394 66.8913C123.359 70.8614 121.489 74.5649 118.907 77.7539C116.326 80.943 113.093 83.5441 109.426 85.3835C99.3867 90.3429 88.5343 89.8309 78.0434 89.3289C75.1721 89.1984 72.1905 89.0579 69.3293 89.0378C65.4441 89.0378 61.5188 88.9173 57.7139 88.827C47.0523 88.5559 36.0292 88.2848 25.2772 89.7004C12.3367 91.407 5.67065 95.7239 4.88759 103.022C4.39567 107.59 6.77497 112.058 11.915 116.164C12.304 116.477 12.5861 116.903 12.7225 117.383C12.8589 117.863 12.8428 118.374 12.6764 118.844C12.51 119.315 12.2014 119.722 11.7935 120.01C11.3855 120.298 10.8983 120.452 10.3991 120.45L10.4192 120.471Z" fill="var(--sapContent_Illustrative_Color4)"/>
<path d="M41.5607 69.0798H19.876V0H41.5607C41.8771 -7.54376e-08 42.1904 0.0623104 42.4827 0.183395C42.775 0.304479 43.0407 0.481964 43.2644 0.705699C43.4881 0.929433 43.6656 1.19505 43.7867 1.48738C43.9078 1.7797 43.9701 2.09303 43.9701 2.40944C43.9701 2.72584 43.9078 3.03911 43.7867 3.33143C43.6656 3.62376 43.4881 3.88938 43.2644 4.11311C43.0407 4.33685 42.775 4.51433 42.4827 4.63542C42.1904 4.7565 41.8771 4.81881 41.5607 4.81881H24.6547V64.251H41.5205C42.1595 64.251 42.7724 64.5048 43.2243 64.9567C43.6761 65.4085 43.93 66.0214 43.93 66.6604C43.93 67.2994 43.6761 67.9122 43.2243 68.3641C42.7724 68.8159 42.1595 69.0698 41.5205 69.0698L41.5607 69.0798Z" fill="var(--sapContent_Illustrative_Color5)"/>
<path d="M43.3377 27.3167L62.613 27.3167C63.9437 27.3167 65.0225 26.2379 65.0225 24.9072C65.0225 23.5765 63.9437 22.4978 62.613 22.4978L43.3377 22.4978C42.007 22.4978 40.9283 23.5765 40.9283 24.9072C40.9283 26.2379 42.007 27.3167 43.3377 27.3167Z" fill="var(--sapContent_Illustrative_Color3)"/>
<path d="M62.1011 60.2453V8.8545C62.1011 7.52382 61.0224 6.44507 59.6917 6.44507C58.361 6.44507 57.2823 7.52382 57.2823 8.8545V60.2453C57.2823 61.5759 58.361 62.6547 59.6917 62.6547C61.0224 62.6547 62.1011 61.5759 62.1011 60.2453Z" fill="var(--sapContent_Illustrative_Color9)"/>
<path d="M83.8861 57.0329H61.7998V12.8604H83.8861C89.7437 12.8604 95.3614 15.1873 99.5034 19.3293C103.645 23.4713 105.972 29.089 105.972 34.9466C105.972 40.8043 103.645 46.422 99.5034 50.564C95.3614 54.7059 89.7437 57.0329 83.8861 57.0329Z" fill="var(--sapContent_Illustrative_Color9)"/>
<path d="M106.033 34.846C106.042 35.8236 105.975 36.8003 105.832 37.7674C105.124 32.4657 102.517 27.6008 98.4938 24.0762C94.4706 20.5515 89.3051 18.6067 83.9564 18.6026H61.8701V12.7598H83.9564C89.8123 12.7624 95.4274 15.0905 99.5672 19.2322C103.707 23.3739 106.033 28.9901 106.033 34.846Z" fill="var(--sapContent_Illustrative_Color17)"/>
<path fill-rule="evenodd" clip-rule="evenodd" d="M14.5749 122.049C15.3665 120.918 16.9252 120.642 18.0565 121.434C19.7175 122.596 20.5057 123.136 21.2963 123.677L21.2982 123.678C22.0982 124.226 22.9013 124.776 24.582 125.952C25.7133 126.743 25.9887 128.302 25.1971 129.433C24.4056 130.565 22.8468 130.84 21.7155 130.048C20.0545 128.886 19.2663 128.347 18.4757 127.805L18.4738 127.804C17.6738 127.257 16.8708 126.707 15.19 125.531C14.0587 124.739 13.7833 123.18 14.5749 122.049Z" fill="var(--sapContent_Illustrative_Color4)"/>
</svg>
