<svg width="321" height="240" viewBox="0 0 321 240" fill="none" xmlns="http://www.w3.org/2000/svg" id="sapIllus-Scene-EmptyCalendar">
<path d="M306.462 19.6279H182.009V36.0359C182.009 37.814 181.304 39.5212 180.053 40.7805C178.802 42.0397 177.104 42.7472 175.335 42.7472H130.745C128.976 42.7472 127.278 42.035 126.027 40.7805C124.776 39.5212 124.07 37.8187 124.07 36.0406V19.6279H40.29V76.7658C40.29 78.5438 39.5844 80.2511 38.3333 81.5057C37.0821 82.7649 35.3841 83.4724 33.6155 83.4724H0.934937V206.129C0.934937 209.982 2.4589 213.675 5.16818 216.396C7.87745 219.118 11.5556 220.65 15.3844 220.65H306.462C308.357 220.65 310.239 220.273 311.993 219.547C313.748 218.816 315.338 217.745 316.683 216.396C318.023 215.047 319.091 213.449 319.815 211.685C320.54 209.921 320.916 208.034 320.916 206.129V34.1683C320.916 32.2582 320.544 30.3669 319.82 28.603C319.096 26.8391 318.033 25.2356 316.688 23.8867C315.347 22.5379 313.752 21.4626 311.998 20.7315C310.244 20.0005 308.362 19.6232 306.462 19.6232V19.6279ZM299.2 101.39C299.2 101.522 299.171 101.658 299.12 101.781C299.068 101.904 298.993 102.017 298.894 102.111C298.795 102.205 298.687 102.276 298.56 102.328C298.438 102.375 298.301 102.404 298.17 102.399H296.33V104.366C296.33 104.502 296.302 104.634 296.25 104.762C296.199 104.884 296.123 104.998 296.025 105.097C295.931 105.191 295.818 105.266 295.691 105.318C295.568 105.37 295.432 105.394 295.296 105.394L251.557 104.998C251.289 104.998 251.03 104.884 250.842 104.696C250.654 104.502 250.546 104.243 250.546 103.974V41.3087C250.546 41.172 250.574 41.0352 250.63 40.9078C250.687 40.7805 250.762 40.6673 250.861 40.573C250.959 40.4787 251.077 40.4032 251.204 40.356C251.331 40.3089 251.467 40.2853 251.604 40.29L253.415 40.356V39.4128C253.415 39.276 253.448 39.1439 253.499 39.0166C253.556 38.894 253.631 38.7808 253.73 38.6865C253.829 38.5921 253.946 38.5214 254.073 38.4742C254.2 38.4271 254.337 38.4035 254.473 38.4129L298.217 40.0117C298.48 40.0165 298.729 40.1249 298.913 40.3136C299.096 40.5022 299.2 40.7522 299.2 41.0163V101.39V101.39Z" fill="var(--sapContent_Illustrative_Color7)"/>
<path d="M109.301 110.803H109.16L108.84 101.569H105.346C105.181 101.569 105.016 101.602 104.866 101.668C104.715 101.734 104.574 101.828 104.461 101.946C104.348 102.064 104.259 102.206 104.198 102.361C104.137 102.517 104.113 102.682 104.118 102.847L106.903 182.911C106.917 183.231 107.048 183.533 107.279 183.76C107.505 183.981 107.815 184.109 108.13 184.109H210.876C211.04 184.109 211.205 184.076 211.355 184.01C211.506 183.944 211.647 183.849 211.76 183.731C211.873 183.613 211.962 183.472 212.023 183.316C212.085 183.161 212.108 182.996 212.103 182.831L211.962 178.713H112.853C112.533 178.713 112.227 178.591 111.997 178.364C111.766 178.143 111.634 177.836 111.62 177.515L109.306 110.803H109.301Z" fill="var(--sapContent_Illustrative_Color20)"/>
<path d="M214.507 110.803H109.301L111.615 177.515C111.63 177.836 111.761 178.143 111.992 178.364C112.222 178.586 112.528 178.713 112.848 178.713H215.588C215.753 178.713 215.918 178.68 216.073 178.614C216.223 178.548 216.365 178.454 216.477 178.336C216.59 178.218 216.68 178.077 216.741 177.921C216.797 177.765 216.825 177.6 216.821 177.435L214.507 110.808V110.803ZM122.095 118.515C122.095 118.066 122.274 117.642 122.589 117.326C122.904 117.01 123.327 116.831 123.77 116.831H154.705C155.147 116.831 155.575 117.01 155.89 117.321C156.205 117.637 156.384 118.066 156.384 118.51C156.384 118.731 156.342 118.948 156.257 119.156C156.173 119.359 156.05 119.547 155.895 119.703C155.74 119.859 155.552 119.981 155.349 120.066C155.147 120.151 154.926 120.194 154.71 120.194H123.77C123.327 120.194 122.899 120.014 122.584 119.698C122.269 119.382 122.095 118.953 122.095 118.51H122.1L122.095 118.515ZM128.68 164.201L124.423 127.395L189.742 129.636L189.991 161.173L128.68 164.201Z" fill="var(--sapContent_Illustrative_Color2)"/>
<path d="M109.301 110.803H214.737L214.267 97.1592C214.257 96.8385 214.121 96.5366 213.895 96.3102C213.665 96.0886 213.359 95.9612 213.039 95.9612H191.402L191.576 100.946C191.91 101.206 192.188 101.536 192.386 101.913C192.583 102.29 192.691 102.71 192.71 103.135C192.729 103.488 192.677 103.847 192.555 104.182C192.433 104.517 192.244 104.823 192.005 105.083C191.76 105.342 191.468 105.549 191.144 105.691C190.819 105.832 190.471 105.908 190.114 105.913C189.385 105.903 188.684 105.606 188.166 105.092C187.644 104.573 187.348 103.875 187.334 103.139C187.32 102.734 187.395 102.328 187.555 101.956C187.715 101.583 187.964 101.253 188.275 100.989L188.101 95.966H132.993L133.167 100.97C133.501 101.229 133.769 101.559 133.962 101.932C134.155 102.309 134.258 102.72 134.277 103.144C134.301 103.498 134.244 103.856 134.127 104.191C134.009 104.526 133.821 104.833 133.576 105.092C133.332 105.351 133.04 105.559 132.716 105.7C132.391 105.842 132.043 105.917 131.686 105.917C130.957 105.903 130.256 105.606 129.738 105.092C129.216 104.573 128.915 103.88 128.896 103.144C128.878 102.734 128.953 102.328 129.117 101.951C129.282 101.574 129.527 101.243 129.837 100.979L129.663 95.966H109.908C109.743 95.966 109.579 95.999 109.428 96.065C109.278 96.131 109.137 96.2253 109.024 96.3432C108.911 96.4612 108.821 96.6026 108.76 96.7583C108.704 96.9139 108.676 97.079 108.68 97.2441L108.831 101.569L109.193 110.803H109.311H109.301Z" fill="var(--sapContent_Illustrative_Color3)"/>
<path d="M131.662 104.309H131.568C131.135 104.309 130.721 104.135 130.411 103.833C130.101 103.531 129.917 103.121 129.898 102.687L129.837 100.97C129.527 101.234 129.282 101.569 129.118 101.941C128.953 102.319 128.878 102.724 128.897 103.135C128.92 103.87 129.221 104.568 129.738 105.083C130.256 105.601 130.957 105.894 131.686 105.908C132.038 105.908 132.391 105.832 132.716 105.691C133.04 105.549 133.332 105.342 133.577 105.083C133.821 104.823 134.009 104.517 134.127 104.182C134.249 103.847 134.301 103.493 134.277 103.135C134.263 102.715 134.155 102.3 133.962 101.923C133.769 101.545 133.501 101.22 133.167 100.96L133.228 102.687C133.238 102.899 133.205 103.111 133.13 103.305C133.054 103.503 132.942 103.682 132.796 103.833C132.65 103.984 132.471 104.106 132.278 104.186C132.085 104.267 131.874 104.309 131.667 104.304L131.662 104.309Z" fill="var(--sapContent_Illustrative_Color4)"/>
<path d="M190.081 104.219H189.987C189.554 104.219 189.14 104.05 188.83 103.743C188.519 103.441 188.336 103.031 188.317 102.597L188.261 100.979C187.95 101.243 187.706 101.574 187.546 101.946C187.381 102.319 187.306 102.724 187.325 103.13C187.339 103.866 187.64 104.564 188.157 105.083C188.679 105.601 189.375 105.894 190.109 105.903C190.462 105.903 190.815 105.828 191.139 105.682C191.464 105.54 191.755 105.333 192 105.073C192.245 104.814 192.428 104.507 192.55 104.172C192.673 103.837 192.724 103.484 192.705 103.125C192.691 102.701 192.578 102.281 192.386 101.904C192.193 101.526 191.915 101.196 191.581 100.937L191.638 102.592C191.647 102.805 191.614 103.012 191.539 103.21C191.464 103.408 191.356 103.587 191.21 103.738C191.064 103.889 190.89 104.012 190.697 104.092C190.504 104.172 190.297 104.215 190.086 104.215L190.081 104.219Z" fill="var(--sapContent_Illustrative_Color4)"/>
<path d="M129.88 102.691C129.898 103.125 130.082 103.536 130.392 103.837C130.703 104.139 131.117 104.309 131.549 104.314H131.643C131.85 104.314 132.062 104.276 132.255 104.191C132.448 104.111 132.622 103.988 132.768 103.837C132.914 103.687 133.026 103.507 133.102 103.309C133.177 103.111 133.21 102.904 133.2 102.691L133.139 100.965L132.965 95.9612L132.791 90.8818C132.772 90.4479 132.589 90.0376 132.278 89.7357C131.968 89.4339 131.554 89.2641 131.121 89.2594H131.027C130.816 89.2594 130.609 89.2971 130.416 89.382C130.223 89.4622 130.049 89.5848 129.903 89.7357C129.757 89.8867 129.644 90.0659 129.569 90.264C129.494 90.462 129.461 90.6696 129.47 90.8818L129.644 95.9612L129.818 100.975L129.88 102.691V102.691Z" fill="var(--sapContent_Illustrative_Color6)"/>
<path d="M188.308 102.602C188.327 103.036 188.51 103.446 188.82 103.748C189.131 104.05 189.545 104.219 189.978 104.219H190.072C190.283 104.219 190.49 104.182 190.683 104.102C190.876 104.021 191.05 103.899 191.196 103.748C191.342 103.597 191.455 103.418 191.53 103.22C191.605 103.022 191.638 102.814 191.629 102.602L191.572 100.946L191.398 95.9612L191.219 90.7969C191.201 90.363 191.017 89.9527 190.707 89.6508C190.396 89.349 189.982 89.1792 189.55 89.1745H189.456C189.249 89.1745 189.037 89.2122 188.844 89.2971C188.651 89.3773 188.477 89.4999 188.331 89.6508C188.185 89.8018 188.073 89.981 187.997 90.1791C187.922 90.3771 187.889 90.5847 187.899 90.7969L188.077 95.9612L188.251 100.984L188.308 102.602V102.602Z" fill="var(--sapContent_Illustrative_Color6)"/>
<path d="M121.564 126.15L123.097 170.257C123.111 170.578 123.243 170.88 123.473 171.106C123.704 171.328 124.009 171.455 124.325 171.455H203.044C203.209 171.455 203.373 171.422 203.524 171.356C203.675 171.29 203.816 171.196 203.928 171.078C204.041 170.96 204.131 170.818 204.192 170.663C204.248 170.507 204.277 170.342 204.272 170.177L202.739 126.065C202.729 125.745 202.593 125.443 202.362 125.221C202.136 124.999 201.826 124.877 201.511 124.877H122.791C122.627 124.877 122.462 124.91 122.312 124.976C122.161 125.042 122.02 125.136 121.907 125.259C121.794 125.377 121.705 125.518 121.644 125.674C121.587 125.829 121.559 125.995 121.564 126.16V126.15ZM128.746 133.404C128.737 133.229 128.765 133.055 128.831 132.89C128.892 132.725 128.986 132.574 129.108 132.446C129.231 132.319 129.376 132.22 129.536 132.149C129.696 132.083 129.87 132.046 130.049 132.046H132.706C133.069 132.046 133.421 132.187 133.68 132.442C133.944 132.696 134.099 133.041 134.113 133.404L134.179 135.394C134.188 135.569 134.155 135.748 134.094 135.908C134.033 136.073 133.939 136.224 133.817 136.352C133.694 136.479 133.548 136.578 133.388 136.649C133.229 136.715 133.055 136.752 132.876 136.752H130.237C129.875 136.752 129.522 136.611 129.259 136.361C128.995 136.106 128.84 135.762 128.826 135.399L128.746 133.409V133.404ZM129.16 142.704C129.151 142.53 129.183 142.351 129.245 142.186C129.306 142.021 129.4 141.87 129.527 141.742C129.649 141.615 129.795 141.516 129.955 141.445C130.115 141.374 130.289 141.341 130.468 141.341H133.106C133.468 141.341 133.821 141.483 134.08 141.733C134.343 141.987 134.499 142.332 134.513 142.695L134.583 144.685C134.588 144.86 134.56 145.039 134.499 145.204C134.437 145.369 134.343 145.52 134.216 145.647C134.094 145.775 133.948 145.874 133.788 145.944C133.624 146.015 133.454 146.048 133.276 146.048H130.637C130.275 146.048 129.922 145.907 129.659 145.657C129.395 145.402 129.24 145.058 129.226 144.695L129.155 142.704H129.16ZM129.593 151.684C129.588 151.51 129.616 151.335 129.677 151.17C129.738 151.005 129.833 150.859 129.955 150.731C130.077 150.604 130.223 150.505 130.383 150.434C130.543 150.368 130.717 150.331 130.891 150.331H133.534C133.897 150.331 134.245 150.472 134.508 150.722C134.771 150.972 134.927 151.316 134.945 151.684L135.011 153.679C135.016 153.854 134.988 154.033 134.927 154.193C134.865 154.358 134.771 154.509 134.649 154.637C134.527 154.764 134.381 154.863 134.221 154.929C134.061 154.995 133.887 155.033 133.713 155.033H131.07C130.707 155.033 130.355 154.891 130.091 154.641C129.828 154.387 129.673 154.047 129.654 153.679L129.588 151.684H129.593ZM131.474 164.022C131.112 164.022 130.759 163.881 130.5 163.631C130.237 163.376 130.082 163.032 130.068 162.668L129.997 160.678C129.993 160.504 130.021 160.324 130.082 160.164C130.143 159.999 130.237 159.848 130.359 159.721C130.482 159.593 130.627 159.494 130.787 159.424C130.947 159.353 131.121 159.32 131.3 159.32H133.939C134.301 159.32 134.654 159.461 134.917 159.711C135.181 159.966 135.336 160.31 135.35 160.673L135.42 162.664C135.425 162.838 135.397 163.017 135.336 163.178C135.275 163.338 135.181 163.494 135.058 163.621C134.936 163.748 134.79 163.848 134.63 163.918C134.47 163.989 134.296 164.022 134.122 164.022H131.484H131.474ZM139.174 133.442C139.165 133.267 139.197 133.088 139.259 132.923C139.32 132.758 139.414 132.607 139.536 132.479C139.658 132.352 139.804 132.253 139.964 132.182C140.124 132.112 140.298 132.079 140.477 132.079H143.116C143.478 132.079 143.831 132.22 144.089 132.47C144.353 132.725 144.508 133.069 144.522 133.432L144.588 135.422C144.597 135.597 144.564 135.771 144.503 135.936C144.442 136.102 144.348 136.252 144.226 136.375C144.103 136.502 143.958 136.601 143.798 136.672C143.638 136.738 143.464 136.776 143.29 136.776H140.646C140.284 136.776 139.936 136.635 139.673 136.385C139.409 136.13 139.254 135.79 139.235 135.422L139.169 133.432L139.174 133.442ZM139.588 142.737C139.583 142.563 139.611 142.384 139.673 142.223C139.734 142.058 139.828 141.907 139.955 141.78C140.077 141.653 140.223 141.554 140.383 141.483C140.547 141.417 140.717 141.379 140.895 141.379H143.525C143.887 141.379 144.24 141.521 144.503 141.771C144.767 142.025 144.922 142.37 144.936 142.733L145.006 144.723C145.016 144.897 144.983 145.077 144.922 145.237C144.861 145.402 144.762 145.553 144.64 145.68C144.517 145.808 144.371 145.907 144.212 145.977C144.052 146.044 143.878 146.081 143.699 146.081H141.06C140.698 146.081 140.345 145.94 140.086 145.69C139.823 145.435 139.668 145.091 139.654 144.728L139.593 142.737H139.588ZM140.021 151.722C140.011 151.547 140.044 151.368 140.105 151.203C140.166 151.038 140.26 150.887 140.383 150.76C140.505 150.632 140.651 150.533 140.811 150.463C140.971 150.397 141.145 150.359 141.323 150.359H143.962C144.324 150.359 144.677 150.5 144.941 150.75C145.204 151.005 145.359 151.349 145.373 151.712L145.444 153.703C145.449 153.877 145.42 154.056 145.359 154.217C145.298 154.382 145.204 154.533 145.082 154.66C144.959 154.788 144.814 154.887 144.654 154.957C144.494 155.028 144.32 155.061 144.141 155.061H141.498C141.135 155.061 140.783 154.92 140.524 154.67C140.26 154.415 140.105 154.071 140.091 153.707L140.025 151.717L140.021 151.722ZM141.902 164.06C141.54 164.06 141.187 163.918 140.924 163.664C140.66 163.409 140.505 163.065 140.491 162.701L140.42 160.711C140.411 160.537 140.444 160.357 140.505 160.197C140.566 160.032 140.665 159.881 140.787 159.754C140.91 159.626 141.055 159.527 141.215 159.457C141.375 159.391 141.549 159.353 141.728 159.353H144.367C144.729 159.353 145.082 159.494 145.34 159.744C145.604 159.999 145.759 160.343 145.773 160.706L145.844 162.697C145.848 162.871 145.82 163.05 145.759 163.211C145.698 163.371 145.604 163.527 145.481 163.654C145.359 163.781 145.213 163.881 145.053 163.951C144.889 164.017 144.719 164.055 144.541 164.055H141.902V164.06ZM149.724 133.503C149.719 133.328 149.748 133.149 149.809 132.984C149.87 132.819 149.964 132.668 150.086 132.541C150.209 132.413 150.354 132.314 150.514 132.244C150.674 132.173 150.848 132.14 151.027 132.14H153.666C154.028 132.14 154.381 132.281 154.644 132.531C154.908 132.786 155.063 133.13 155.077 133.493L155.147 135.484C155.152 135.658 155.124 135.837 155.063 136.003C155.002 136.168 154.907 136.319 154.785 136.446C154.663 136.573 154.517 136.672 154.357 136.743C154.197 136.814 154.023 136.847 153.844 136.847H151.206C150.844 136.847 150.491 136.705 150.232 136.455C149.969 136.201 149.814 135.856 149.799 135.493L149.729 133.503H149.724ZM150.143 142.799C150.138 142.624 150.166 142.445 150.227 142.285C150.289 142.12 150.383 141.969 150.505 141.841C150.627 141.714 150.773 141.615 150.933 141.544C151.093 141.478 151.267 141.44 151.446 141.44H154.084C154.447 141.44 154.799 141.582 155.063 141.832C155.326 142.087 155.481 142.431 155.495 142.794L155.561 144.784C155.571 144.959 155.542 145.138 155.477 145.298C155.415 145.463 155.321 145.614 155.199 145.742C155.077 145.869 154.931 145.968 154.771 146.039C154.611 146.105 154.437 146.143 154.258 146.143H151.615C151.253 146.143 150.9 146.001 150.637 145.746C150.373 145.492 150.218 145.147 150.204 144.784L150.138 142.794L150.143 142.799ZM150.571 151.779C150.566 151.604 150.594 151.43 150.655 151.264C150.717 151.099 150.815 150.953 150.938 150.826C151.06 150.698 151.206 150.599 151.366 150.533C151.526 150.463 151.7 150.43 151.874 150.43H154.517C154.879 150.43 155.227 150.571 155.491 150.821C155.754 151.076 155.909 151.415 155.928 151.783L155.999 153.774C156.003 153.948 155.975 154.127 155.914 154.288C155.853 154.453 155.759 154.604 155.637 154.731C155.514 154.858 155.368 154.957 155.209 155.028C155.044 155.094 154.875 155.132 154.696 155.132H152.057C151.695 155.132 151.342 154.99 151.079 154.74C150.815 154.486 150.66 154.141 150.646 153.778L150.571 151.788V151.779ZM152.452 164.116C152.09 164.116 151.737 163.975 151.479 163.72C151.215 163.465 151.06 163.121 151.046 162.758L150.98 160.768C150.975 160.593 151.004 160.414 151.065 160.254C151.126 160.089 151.22 159.938 151.342 159.81C151.464 159.683 151.61 159.584 151.77 159.513C151.93 159.447 152.104 159.409 152.278 159.409H154.922C155.284 159.409 155.637 159.551 155.895 159.801C156.159 160.056 156.314 160.4 156.328 160.763L156.394 162.753C156.403 162.928 156.37 163.107 156.309 163.267C156.248 163.428 156.154 163.583 156.032 163.711C155.909 163.838 155.764 163.937 155.604 164.008C155.444 164.074 155.27 164.112 155.091 164.112H152.452V164.116ZM160.152 133.531C160.147 133.357 160.176 133.182 160.237 133.017C160.298 132.852 160.392 132.706 160.514 132.578C160.637 132.451 160.782 132.352 160.942 132.286C161.102 132.215 161.276 132.182 161.45 132.182H164.094C164.456 132.182 164.804 132.324 165.067 132.574C165.331 132.824 165.486 133.168 165.505 133.536L165.571 135.531C165.575 135.705 165.547 135.88 165.486 136.045C165.425 136.21 165.326 136.361 165.204 136.488C165.081 136.616 164.936 136.715 164.776 136.781C164.616 136.847 164.442 136.884 164.263 136.884H161.624C161.262 136.884 160.914 136.743 160.651 136.493C160.387 136.238 160.232 135.899 160.213 135.531L160.147 133.536L160.152 133.531ZM160.566 142.836C160.561 142.662 160.589 142.483 160.651 142.322C160.712 142.162 160.806 142.006 160.928 141.879C161.05 141.752 161.196 141.653 161.361 141.582C161.521 141.516 161.695 141.478 161.869 141.478H164.508C164.87 141.478 165.223 141.62 165.486 141.874C165.749 142.129 165.905 142.473 165.919 142.836L165.989 144.827C165.994 145.001 165.966 145.18 165.905 145.341C165.843 145.506 165.749 145.657 165.622 145.784C165.5 145.911 165.354 146.01 165.194 146.081C165.034 146.147 164.86 146.185 164.682 146.185H162.043C161.681 146.185 161.328 146.044 161.069 145.794C160.806 145.539 160.651 145.195 160.637 144.831L160.566 142.841V142.836ZM160.999 151.821C160.994 151.646 161.022 151.467 161.083 151.307C161.144 151.142 161.239 150.991 161.361 150.864C161.483 150.736 161.629 150.637 161.789 150.566C161.949 150.496 162.123 150.463 162.302 150.463H164.94C165.303 150.463 165.655 150.604 165.914 150.854C166.177 151.109 166.333 151.453 166.347 151.816L166.413 153.807C166.417 153.981 166.389 154.16 166.328 154.321C166.267 154.486 166.173 154.637 166.05 154.764C165.928 154.891 165.782 154.99 165.622 155.061C165.462 155.132 165.288 155.165 165.114 155.165H162.471C162.109 155.165 161.756 155.023 161.497 154.773C161.234 154.519 161.079 154.174 161.065 153.811L160.999 151.821ZM162.88 164.154C162.518 164.154 162.17 164.017 161.906 163.763C161.643 163.513 161.488 163.168 161.474 162.801L161.403 160.81C161.394 160.636 161.427 160.456 161.488 160.296C161.549 160.131 161.643 159.98 161.765 159.853C161.888 159.725 162.033 159.626 162.193 159.556C162.353 159.49 162.527 159.452 162.706 159.452H165.345C165.707 159.452 166.06 159.593 166.318 159.848C166.582 160.103 166.737 160.447 166.751 160.81L166.817 162.801C166.826 162.975 166.794 163.15 166.732 163.315C166.671 163.48 166.577 163.631 166.455 163.753C166.333 163.881 166.187 163.98 166.027 164.05C165.867 164.116 165.693 164.154 165.519 164.154H162.88ZM170.806 133.668C170.796 133.493 170.829 133.314 170.89 133.154C170.952 132.994 171.046 132.838 171.168 132.711C171.29 132.583 171.436 132.484 171.596 132.413C171.756 132.347 171.93 132.31 172.109 132.31H174.747C175.11 132.31 175.462 132.451 175.726 132.701C175.989 132.956 176.144 133.3 176.158 133.663L176.224 135.654C176.229 135.828 176.201 136.007 176.14 136.168C176.078 136.328 175.984 136.484 175.862 136.611C175.74 136.738 175.594 136.837 175.434 136.908C175.274 136.974 175.1 137.012 174.926 137.012H172.212C171.85 137.012 171.497 136.87 171.234 136.62C170.97 136.366 170.815 136.021 170.801 135.658V133.668H170.806ZM171.224 142.968C171.22 142.794 171.248 142.615 171.309 142.454C171.37 142.289 171.469 142.138 171.591 142.011C171.713 141.884 171.859 141.785 172.019 141.719C172.179 141.653 172.353 141.615 172.527 141.615H175.166C175.528 141.615 175.881 141.756 176.14 142.006C176.403 142.261 176.558 142.601 176.577 142.968L176.648 144.963C176.652 145.138 176.624 145.312 176.563 145.478C176.502 145.643 176.408 145.794 176.285 145.916C176.163 146.044 176.017 146.143 175.857 146.213C175.697 146.279 175.523 146.317 175.349 146.317H172.711C172.348 146.317 172 146.18 171.737 145.926C171.474 145.676 171.318 145.331 171.3 144.963L171.229 142.968H171.224ZM171.657 151.948C171.652 151.774 171.681 151.595 171.742 151.434C171.803 151.269 171.897 151.118 172.019 150.991C172.142 150.864 172.287 150.765 172.447 150.694C172.607 150.628 172.781 150.59 172.96 150.59H175.599C175.961 150.59 176.314 150.732 176.572 150.986C176.836 151.241 176.991 151.585 177.005 151.948L177.071 153.939C177.076 154.113 177.047 154.292 176.986 154.453C176.925 154.618 176.831 154.769 176.709 154.896C176.586 155.023 176.441 155.122 176.281 155.193C176.121 155.259 175.947 155.297 175.773 155.297H173.129C172.767 155.297 172.414 155.155 172.151 154.901C171.888 154.646 171.732 154.302 171.718 153.939L171.652 151.948H171.657ZM173.538 164.281C173.176 164.281 172.824 164.14 172.56 163.885C172.297 163.631 172.142 163.286 172.127 162.923L172.057 160.933C172.047 160.758 172.08 160.584 172.142 160.419C172.203 160.254 172.297 160.103 172.419 159.975C172.541 159.848 172.687 159.749 172.847 159.678C173.007 159.612 173.181 159.575 173.36 159.579H175.98C176.342 159.579 176.69 159.721 176.953 159.971C177.217 160.221 177.372 160.565 177.391 160.933L177.461 162.923C177.466 163.098 177.438 163.277 177.377 163.437C177.316 163.598 177.221 163.753 177.094 163.881C176.972 164.008 176.826 164.107 176.666 164.178C176.502 164.244 176.332 164.281 176.154 164.281H173.534H173.538ZM181.234 133.701C181.229 133.526 181.257 133.347 181.318 133.187C181.379 133.027 181.473 132.871 181.596 132.744C181.718 132.616 181.864 132.517 182.024 132.446C182.184 132.38 182.358 132.343 182.536 132.343H185.175C185.537 132.343 185.89 132.484 186.154 132.739C186.417 132.994 186.572 133.338 186.586 133.701L186.657 135.691C186.666 135.866 186.633 136.045 186.572 136.205C186.511 136.37 186.417 136.521 186.295 136.649C186.172 136.776 186.027 136.875 185.867 136.946C185.707 137.012 185.533 137.05 185.354 137.05H182.711C182.348 137.05 181.996 136.908 181.732 136.653C181.469 136.399 181.314 136.054 181.299 135.691L181.234 133.701ZM181.648 143.002C181.643 142.827 181.671 142.648 181.732 142.487C181.793 142.322 181.887 142.171 182.014 142.044C182.137 141.917 182.283 141.818 182.442 141.752C182.602 141.686 182.776 141.648 182.95 141.648H185.589C185.951 141.648 186.299 141.789 186.563 142.039C186.826 142.294 186.981 142.634 187 143.002L187.071 144.992C187.075 145.166 187.047 145.345 186.986 145.506C186.925 145.671 186.831 145.822 186.704 145.949C186.582 146.077 186.436 146.176 186.276 146.246C186.116 146.312 185.942 146.35 185.768 146.35H183.129C182.767 146.35 182.414 146.209 182.151 145.959C181.887 145.704 181.732 145.36 181.718 144.996L181.648 143.006V143.002ZM183.529 155.292C183.167 155.292 182.819 155.155 182.555 154.901C182.292 154.651 182.137 154.306 182.118 153.939L182.047 151.944C182.043 151.769 182.071 151.59 182.132 151.43C182.193 151.264 182.292 151.118 182.414 150.991C182.536 150.864 182.682 150.765 182.842 150.698C183.002 150.632 183.176 150.595 183.35 150.595H185.989C186.351 150.595 186.704 150.736 186.963 150.986C187.226 151.241 187.381 151.58 187.4 151.948L187.471 153.943C187.475 154.118 187.447 154.292 187.386 154.457C187.325 154.622 187.226 154.773 187.104 154.896C186.981 155.023 186.836 155.122 186.676 155.193C186.516 155.259 186.342 155.297 186.163 155.297H183.524L183.529 155.292ZM190.838 133.663C190.834 133.489 190.862 133.31 190.923 133.149C190.984 132.984 191.083 132.833 191.205 132.711C191.328 132.583 191.473 132.484 191.633 132.413C191.793 132.347 191.967 132.31 192.141 132.31H194.78C195.142 132.31 195.49 132.446 195.754 132.701C196.017 132.951 196.172 133.295 196.191 133.663L196.262 135.658C196.266 135.833 196.238 136.007 196.177 136.172C196.116 136.337 196.017 136.488 195.895 136.611C195.772 136.738 195.627 136.837 195.467 136.908C195.307 136.974 195.133 137.012 194.959 137.012H192.32C191.958 137.012 191.605 136.875 191.346 136.62C191.083 136.37 190.928 136.026 190.909 135.658L190.838 133.663ZM191.257 142.968C191.252 142.794 191.28 142.615 191.342 142.454C191.403 142.289 191.497 142.138 191.624 142.011C191.746 141.884 191.892 141.785 192.052 141.714C192.212 141.643 192.386 141.61 192.56 141.61H195.199C195.561 141.61 195.914 141.752 196.177 142.002C196.44 142.256 196.596 142.601 196.61 142.964L196.676 144.954C196.685 145.129 196.657 145.308 196.591 145.468C196.53 145.633 196.436 145.784 196.313 145.911C196.191 146.039 196.045 146.138 195.885 146.209C195.725 146.279 195.551 146.312 195.377 146.312H192.734C192.372 146.312 192.019 146.171 191.756 145.921C191.492 145.666 191.337 145.322 191.323 144.959L191.257 142.968ZM193.138 155.259C192.776 155.259 192.423 155.118 192.165 154.868C191.901 154.613 191.746 154.269 191.732 153.906L191.662 151.915C191.657 151.741 191.685 151.562 191.746 151.401C191.807 151.236 191.901 151.085 192.024 150.958C192.146 150.831 192.292 150.732 192.452 150.661C192.616 150.595 192.786 150.557 192.964 150.557H195.603C195.965 150.557 196.318 150.698 196.581 150.948C196.845 151.203 197 151.547 197.014 151.911L197.085 153.901C197.094 154.075 197.061 154.255 197 154.415C196.939 154.58 196.84 154.731 196.718 154.858C196.596 154.986 196.45 155.085 196.29 155.155C196.13 155.221 195.956 155.259 195.777 155.259H193.138Z" fill="var(--sapContent_Illustrative_Color8)"/>
<path d="M123.831 120.189H154.766C154.983 120.189 155.199 120.146 155.401 120.061C155.603 119.977 155.782 119.849 155.933 119.694C156.083 119.538 156.201 119.349 156.281 119.147C156.356 118.944 156.394 118.722 156.384 118.505C156.365 118.052 156.173 117.628 155.853 117.317C155.528 117.005 155.1 116.826 154.649 116.821H123.713C123.497 116.821 123.28 116.864 123.078 116.949C122.876 117.034 122.697 117.156 122.547 117.317C122.396 117.472 122.278 117.661 122.199 117.864C122.123 118.066 122.086 118.288 122.095 118.505C122.114 118.958 122.302 119.382 122.627 119.694C122.951 120.005 123.379 120.184 123.831 120.184V120.189Z" fill="var(--sapContent_Illustrative_Color8)"/>
<path d="M134.056 132.678C134.047 132.508 133.976 132.347 133.854 132.23C133.732 132.112 133.572 132.046 133.403 132.046H129.329C129.249 132.046 129.165 132.064 129.094 132.093C129.019 132.126 128.948 132.173 128.892 132.23C128.835 132.286 128.788 132.357 128.76 132.437C128.727 132.512 128.718 132.597 128.718 132.678L128.84 136.116C128.845 136.286 128.915 136.446 129.038 136.564C129.16 136.682 129.32 136.748 129.489 136.752H133.567C133.647 136.752 133.732 136.738 133.807 136.705C133.882 136.672 133.948 136.625 134.009 136.568C134.066 136.512 134.113 136.441 134.141 136.361C134.169 136.286 134.183 136.205 134.183 136.12L134.061 132.682L134.056 132.678Z" fill="var(--sapContent_Illustrative_Color6)"/>
<path d="M144.461 132.701C144.456 132.531 144.385 132.371 144.263 132.253C144.141 132.135 143.981 132.069 143.812 132.069H139.757C139.677 132.069 139.593 132.083 139.517 132.116C139.442 132.149 139.371 132.196 139.315 132.253C139.259 132.314 139.212 132.38 139.183 132.461C139.155 132.536 139.141 132.621 139.146 132.701L139.268 136.135C139.277 136.304 139.348 136.465 139.47 136.583C139.593 136.701 139.752 136.767 139.922 136.767H143.99C144.07 136.767 144.155 136.752 144.23 136.719C144.306 136.686 144.376 136.639 144.432 136.583C144.489 136.526 144.536 136.455 144.564 136.375C144.592 136.3 144.607 136.215 144.602 136.135L144.461 132.701V132.701Z" fill="var(--sapContent_Illustrative_Color6)"/>
<path d="M155.016 132.739C155.006 132.569 154.936 132.409 154.813 132.291C154.691 132.173 154.531 132.107 154.362 132.107H150.284C150.199 132.107 150.119 132.121 150.044 132.154C149.969 132.187 149.903 132.234 149.846 132.291C149.79 132.352 149.743 132.418 149.715 132.498C149.686 132.574 149.672 132.659 149.677 132.739L149.795 136.177C149.804 136.347 149.874 136.507 149.997 136.625C150.119 136.743 150.279 136.809 150.448 136.814H154.526C154.606 136.814 154.691 136.8 154.762 136.767C154.837 136.734 154.903 136.686 154.964 136.63C155.02 136.573 155.063 136.502 155.091 136.422C155.119 136.347 155.133 136.262 155.133 136.182L155.016 132.744V132.739Z" fill="var(--sapContent_Illustrative_Color6)"/>
<path d="M165.425 132.758C165.415 132.588 165.345 132.428 165.222 132.31C165.1 132.192 164.94 132.126 164.771 132.126H160.697C160.618 132.126 160.533 132.14 160.458 132.173C160.382 132.206 160.312 132.253 160.255 132.31C160.199 132.366 160.152 132.437 160.124 132.517C160.095 132.593 160.081 132.678 160.081 132.758L160.204 136.191C160.208 136.361 160.279 136.521 160.401 136.639C160.523 136.757 160.683 136.823 160.853 136.823H164.931C165.011 136.823 165.095 136.809 165.171 136.776C165.246 136.743 165.316 136.696 165.373 136.639C165.429 136.583 165.476 136.512 165.504 136.432C165.533 136.356 165.547 136.271 165.542 136.191L165.42 132.758H165.425Z" fill="var(--sapContent_Illustrative_Color6)"/>
<path d="M176.064 132.871C176.06 132.701 175.989 132.541 175.867 132.423C175.745 132.305 175.585 132.239 175.415 132.234H171.337C171.252 132.234 171.173 132.248 171.097 132.281C171.022 132.314 170.951 132.362 170.895 132.418C170.839 132.475 170.791 132.546 170.763 132.626C170.735 132.701 170.721 132.786 170.721 132.866L170.843 136.3C170.848 136.469 170.923 136.63 171.046 136.748C171.168 136.866 171.328 136.932 171.497 136.932H175.57C175.655 136.932 175.735 136.918 175.81 136.884C175.886 136.851 175.956 136.804 176.013 136.748C176.069 136.686 176.116 136.62 176.144 136.54C176.173 136.465 176.187 136.38 176.182 136.3L176.06 132.866L176.064 132.871Z" fill="var(--sapContent_Illustrative_Color6)"/>
<path d="M186.483 132.89C186.473 132.72 186.403 132.56 186.28 132.442C186.158 132.324 185.998 132.258 185.829 132.253H181.751C181.671 132.253 181.586 132.267 181.516 132.3C181.44 132.333 181.37 132.38 181.313 132.437C181.257 132.494 181.21 132.564 181.182 132.645C181.153 132.72 181.139 132.8 181.144 132.885L181.262 136.323C181.271 136.493 181.341 136.653 181.464 136.771C181.586 136.889 181.746 136.955 181.915 136.955H185.989C186.073 136.955 186.153 136.941 186.228 136.908C186.304 136.875 186.374 136.828 186.431 136.771C186.487 136.715 186.534 136.644 186.562 136.564C186.591 136.488 186.605 136.403 186.6 136.323L186.483 132.885V132.89Z" fill="var(--sapContent_Illustrative_Color6)"/>
<path d="M196.106 132.871C196.101 132.701 196.026 132.541 195.904 132.423C195.782 132.305 195.622 132.239 195.452 132.239H191.374C191.294 132.239 191.214 132.253 191.139 132.286C191.064 132.319 190.998 132.366 190.937 132.423C190.88 132.484 190.838 132.55 190.81 132.63C190.782 132.706 190.768 132.791 190.768 132.871L190.885 136.304C190.89 136.474 190.965 136.635 191.087 136.752C191.21 136.87 191.37 136.936 191.539 136.936H195.617C195.702 136.936 195.782 136.922 195.857 136.889C195.932 136.856 196.003 136.809 196.059 136.752C196.116 136.691 196.158 136.625 196.191 136.545C196.219 136.469 196.233 136.385 196.228 136.304L196.111 132.871H196.106Z" fill="var(--sapContent_Illustrative_Color6)"/>
<path d="M134.475 142.002C134.466 141.832 134.395 141.672 134.273 141.554C134.15 141.436 133.991 141.37 133.821 141.37H129.743C129.659 141.37 129.579 141.384 129.503 141.417C129.428 141.45 129.362 141.497 129.301 141.554C129.245 141.615 129.202 141.681 129.174 141.761C129.146 141.837 129.132 141.921 129.136 142.002L129.254 145.44C129.259 145.61 129.334 145.77 129.456 145.888C129.579 146.006 129.738 146.072 129.908 146.072H133.986C134.066 146.072 134.146 146.058 134.221 146.025C134.296 145.992 134.362 145.944 134.423 145.888C134.48 145.831 134.522 145.761 134.555 145.68C134.583 145.605 134.597 145.52 134.593 145.44L134.475 142.002Z" fill="var(--sapContent_Illustrative_Color6)"/>
<path d="M144.884 142.002C144.875 141.832 144.804 141.672 144.682 141.554C144.56 141.436 144.4 141.37 144.23 141.37H140.152C140.072 141.37 139.988 141.384 139.917 141.417C139.842 141.45 139.771 141.497 139.715 141.554C139.659 141.615 139.611 141.681 139.583 141.761C139.555 141.837 139.541 141.921 139.546 142.002L139.663 145.44C139.673 145.61 139.743 145.77 139.865 145.888C139.988 146.006 140.148 146.072 140.317 146.077H144.395C144.475 146.077 144.555 146.062 144.63 146.029C144.705 145.996 144.771 145.949 144.832 145.893C144.889 145.836 144.931 145.765 144.964 145.685C144.992 145.61 145.006 145.525 145.002 145.445L144.884 142.006V142.002Z" fill="var(--sapContent_Illustrative_Color6)"/>
<path d="M155.425 142.039C155.42 141.87 155.345 141.709 155.227 141.591C155.105 141.473 154.945 141.407 154.776 141.403H150.698C150.613 141.403 150.533 141.417 150.458 141.45C150.383 141.483 150.312 141.53 150.256 141.587C150.199 141.643 150.152 141.714 150.124 141.794C150.096 141.87 150.082 141.95 150.082 142.035L150.204 145.473C150.209 145.643 150.284 145.803 150.406 145.921C150.528 146.039 150.688 146.105 150.858 146.105H154.931C155.016 146.105 155.096 146.091 155.171 146.058C155.246 146.025 155.317 145.978 155.373 145.921C155.43 145.86 155.477 145.794 155.505 145.713C155.533 145.638 155.547 145.553 155.547 145.473L155.425 142.035V142.039Z" fill="var(--sapContent_Illustrative_Color6)"/>
<path d="M165.843 142.058C165.839 141.888 165.763 141.728 165.641 141.61C165.519 141.492 165.359 141.426 165.19 141.426H161.112C161.027 141.426 160.947 141.44 160.872 141.473C160.796 141.506 160.726 141.554 160.669 141.61C160.613 141.667 160.571 141.738 160.542 141.818C160.514 141.893 160.5 141.978 160.505 142.058L160.622 145.496C160.632 145.666 160.702 145.827 160.825 145.944C160.947 146.062 161.107 146.128 161.276 146.128H165.354C165.434 146.128 165.514 146.114 165.589 146.081C165.665 146.048 165.73 146.001 165.792 145.944C165.848 145.883 165.89 145.817 165.923 145.737C165.952 145.661 165.966 145.581 165.961 145.496L165.843 142.058Z" fill="var(--sapContent_Illustrative_Color6)"/>
<path d="M176.483 142.171C176.478 142.002 176.403 141.841 176.281 141.723C176.158 141.606 175.998 141.539 175.829 141.539H171.737C171.652 141.539 171.572 141.554 171.497 141.587C171.422 141.62 171.356 141.667 171.299 141.723C171.243 141.78 171.196 141.851 171.168 141.931C171.139 142.006 171.125 142.087 171.13 142.171L171.248 145.605C171.252 145.775 171.328 145.935 171.45 146.053C171.572 146.171 171.732 146.237 171.901 146.237H175.98C176.059 146.237 176.144 146.218 176.215 146.19C176.29 146.157 176.356 146.11 176.417 146.053C176.473 145.996 176.52 145.926 176.544 145.845C176.572 145.77 176.586 145.685 176.582 145.605L176.478 142.171H176.483Z" fill="var(--sapContent_Illustrative_Color6)"/>
<path d="M186.897 142.19C186.892 142.021 186.817 141.86 186.694 141.742C186.572 141.624 186.412 141.558 186.243 141.558H182.165C182.085 141.558 182 141.572 181.93 141.606C181.854 141.639 181.788 141.686 181.727 141.742C181.671 141.799 181.624 141.87 181.596 141.95C181.567 142.025 181.553 142.105 181.558 142.19L181.676 145.624C181.685 145.794 181.756 145.954 181.878 146.072C182 146.19 182.16 146.256 182.329 146.256H186.407C186.492 146.256 186.572 146.242 186.647 146.209C186.723 146.176 186.793 146.128 186.85 146.072C186.906 146.015 186.953 145.944 186.981 145.864C187.009 145.789 187.024 145.704 187.019 145.624L186.901 142.19H186.897Z" fill="var(--sapContent_Illustrative_Color6)"/>
<path d="M196.52 142.171C196.516 142.002 196.445 141.841 196.323 141.723C196.2 141.606 196.04 141.539 195.871 141.539H191.793C191.713 141.539 191.628 141.554 191.553 141.587C191.478 141.62 191.407 141.667 191.351 141.723C191.294 141.785 191.247 141.851 191.219 141.931C191.191 142.006 191.177 142.091 191.182 142.171L191.304 145.61C191.304 145.784 191.379 145.949 191.501 146.072C191.624 146.194 191.788 146.26 191.962 146.26H196.036C196.12 146.26 196.2 146.246 196.276 146.213C196.351 146.18 196.421 146.133 196.478 146.077C196.534 146.02 196.581 145.949 196.61 145.869C196.638 145.794 196.652 145.713 196.652 145.629L196.525 142.176L196.52 142.171Z" fill="var(--sapContent_Illustrative_Color6)"/>
<path d="M134.903 150.944C134.898 150.774 134.828 150.614 134.705 150.496C134.583 150.378 134.423 150.312 134.254 150.312H130.176C130.096 150.312 130.011 150.326 129.936 150.359C129.861 150.392 129.79 150.439 129.734 150.496C129.677 150.552 129.63 150.623 129.602 150.703C129.574 150.779 129.56 150.864 129.564 150.944L129.687 154.377C129.696 154.547 129.767 154.707 129.889 154.825C130.011 154.943 130.171 155.009 130.34 155.009H134.414C134.494 155.009 134.578 154.995 134.654 154.962C134.729 154.929 134.8 154.882 134.856 154.825C134.912 154.769 134.959 154.698 134.988 154.618C135.016 154.542 135.03 154.457 135.025 154.377L134.903 150.944Z" fill="var(--sapContent_Illustrative_Color6)"/>
<path d="M145.321 150.986C145.317 150.816 145.242 150.656 145.119 150.533C144.997 150.416 144.837 150.35 144.668 150.345H140.59C140.51 150.345 140.425 150.364 140.35 150.392C140.275 150.425 140.204 150.472 140.148 150.533C140.091 150.59 140.044 150.661 140.016 150.741C139.988 150.816 139.973 150.901 139.978 150.981L140.096 154.415C140.1 154.585 140.176 154.745 140.298 154.863C140.42 154.981 140.58 155.047 140.75 155.047H144.823C144.903 155.047 144.988 155.033 145.063 155C145.138 154.967 145.209 154.92 145.265 154.863C145.321 154.806 145.368 154.736 145.397 154.655C145.425 154.58 145.439 154.495 145.434 154.415L145.317 150.981L145.321 150.986Z" fill="var(--sapContent_Illustrative_Color6)"/>
<path d="M155.857 151.01C155.853 150.84 155.778 150.68 155.655 150.562C155.533 150.444 155.373 150.378 155.204 150.378H151.13C151.05 150.378 150.966 150.392 150.891 150.425C150.815 150.458 150.745 150.505 150.688 150.562C150.632 150.623 150.585 150.689 150.557 150.769C150.528 150.845 150.514 150.93 150.519 151.01L150.641 154.443C150.646 154.613 150.716 154.773 150.839 154.891C150.961 155.009 151.121 155.075 151.29 155.075H155.368C155.448 155.075 155.533 155.061 155.603 155.028C155.679 154.995 155.749 154.948 155.806 154.891C155.862 154.835 155.909 154.764 155.933 154.684C155.961 154.608 155.975 154.523 155.97 154.443L155.853 151.01H155.857Z" fill="var(--sapContent_Illustrative_Color6)"/>
<path d="M166.271 151.024C166.262 150.854 166.191 150.694 166.069 150.576C165.947 150.458 165.787 150.392 165.618 150.392H161.544C161.464 150.392 161.379 150.406 161.309 150.439C161.234 150.472 161.163 150.519 161.107 150.576C161.05 150.632 161.003 150.703 160.975 150.783C160.942 150.859 160.933 150.944 160.933 151.024L161.055 154.462C161.06 154.632 161.13 154.792 161.252 154.91C161.375 155.028 161.535 155.094 161.704 155.094H165.782C165.862 155.094 165.947 155.08 166.022 155.047C166.097 155.014 166.168 154.967 166.224 154.91C166.281 154.854 166.328 154.783 166.356 154.703C166.384 154.627 166.398 154.542 166.394 154.462L166.271 151.024Z" fill="var(--sapContent_Illustrative_Color6)"/>
<path d="M176.911 151.137C176.906 150.967 176.835 150.807 176.713 150.689C176.591 150.571 176.431 150.505 176.262 150.505H172.207C172.127 150.505 172.043 150.519 171.972 150.552C171.897 150.585 171.826 150.632 171.77 150.689C171.713 150.746 171.666 150.816 171.638 150.897C171.61 150.972 171.596 151.057 171.6 151.137L171.718 154.575C171.723 154.745 171.798 154.905 171.92 155.023C172.043 155.141 172.203 155.207 172.372 155.207H176.44C176.525 155.207 176.605 155.188 176.68 155.16C176.756 155.132 176.826 155.08 176.882 155.023C176.939 154.967 176.986 154.896 177.014 154.816C177.042 154.74 177.057 154.655 177.057 154.575L176.915 151.137H176.911Z" fill="var(--sapContent_Illustrative_Color6)"/>
<path d="M182.597 150.51C182.513 150.51 182.433 150.524 182.358 150.557C182.282 150.59 182.212 150.637 182.155 150.694C182.099 150.75 182.052 150.821 182.024 150.901C181.995 150.977 181.981 151.062 181.986 151.142L182.104 154.575C182.108 154.745 182.184 154.905 182.306 155.023C182.428 155.141 182.588 155.207 182.757 155.207H186.835C186.915 155.207 187 155.193 187.07 155.16C187.146 155.127 187.216 155.08 187.273 155.023C187.329 154.967 187.376 154.896 187.4 154.816C187.428 154.74 187.442 154.66 187.442 154.575L187.324 151.142C187.315 150.972 187.245 150.812 187.122 150.694C187 150.576 186.84 150.51 186.671 150.51H182.593H182.597Z" fill="var(--sapContent_Illustrative_Color6)"/>
<path d="M192.221 150.51C192.141 150.51 192.056 150.529 191.986 150.557C191.911 150.59 191.845 150.637 191.784 150.694C191.727 150.75 191.68 150.821 191.657 150.901C191.628 150.977 191.614 151.062 191.614 151.142L191.732 154.58C191.741 154.75 191.812 154.91 191.934 155.028C192.056 155.146 192.216 155.212 192.386 155.212H196.464C196.543 155.212 196.628 155.198 196.703 155.165C196.779 155.132 196.849 155.085 196.906 155.028C196.962 154.971 197.009 154.901 197.037 154.821C197.066 154.745 197.08 154.66 197.075 154.58L196.957 151.142C196.948 150.972 196.877 150.812 196.755 150.694C196.633 150.576 196.473 150.51 196.304 150.505H192.226L192.221 150.51Z" fill="var(--sapContent_Illustrative_Color6)"/>
<path d="M130.58 159.301C130.496 159.301 130.416 159.315 130.34 159.348C130.265 159.381 130.195 159.428 130.138 159.485C130.082 159.546 130.035 159.612 130.006 159.692C129.978 159.768 129.964 159.853 129.964 159.933L130.086 163.371C130.091 163.541 130.166 163.701 130.289 163.819C130.411 163.937 130.571 164.003 130.74 164.003H134.813C134.898 164.003 134.978 163.989 135.053 163.956C135.129 163.923 135.199 163.876 135.256 163.819C135.312 163.758 135.359 163.692 135.387 163.612C135.416 163.536 135.43 163.451 135.425 163.371L135.303 159.933C135.298 159.763 135.223 159.603 135.105 159.485C134.983 159.367 134.823 159.301 134.654 159.296H130.576L130.58 159.301Z" fill="var(--sapContent_Illustrative_Color6)"/>
<path d="M140.994 159.32C140.909 159.32 140.83 159.334 140.754 159.367C140.679 159.4 140.608 159.447 140.552 159.504C140.496 159.56 140.453 159.631 140.425 159.711C140.397 159.787 140.383 159.872 140.387 159.952L140.505 163.39C140.514 163.56 140.585 163.72 140.707 163.838C140.83 163.956 140.989 164.022 141.159 164.022H145.237C145.317 164.022 145.397 164.008 145.472 163.975C145.547 163.942 145.613 163.895 145.674 163.838C145.731 163.777 145.773 163.711 145.806 163.631C145.834 163.555 145.848 163.475 145.844 163.39L145.726 159.952C145.721 159.782 145.646 159.622 145.524 159.504C145.401 159.386 145.241 159.32 145.072 159.32H140.994Z" fill="var(--sapContent_Illustrative_Color6)"/>
<path d="M151.539 159.362C151.455 159.362 151.375 159.376 151.3 159.409C151.224 159.442 151.154 159.49 151.097 159.546C151.041 159.608 150.994 159.674 150.966 159.754C150.937 159.829 150.923 159.914 150.923 159.994L151.046 163.432C151.05 163.602 151.126 163.763 151.243 163.881C151.365 163.998 151.525 164.064 151.695 164.069H155.773C155.853 164.069 155.937 164.055 156.013 164.022C156.088 163.989 156.158 163.942 156.215 163.885C156.271 163.829 156.318 163.758 156.347 163.678C156.375 163.602 156.389 163.522 156.389 163.437L156.267 159.999C156.257 159.829 156.187 159.669 156.064 159.551C155.942 159.433 155.782 159.367 155.613 159.367H151.539V159.362Z" fill="var(--sapContent_Illustrative_Color6)"/>
<path d="M161.949 159.381C161.864 159.381 161.784 159.395 161.709 159.428C161.634 159.461 161.563 159.509 161.507 159.565C161.45 159.626 161.403 159.692 161.375 159.773C161.347 159.848 161.333 159.933 161.333 160.013L161.455 163.447C161.46 163.616 161.535 163.777 161.657 163.895C161.779 164.013 161.939 164.079 162.109 164.079H166.182C166.266 164.079 166.346 164.064 166.422 164.031C166.497 163.998 166.568 163.951 166.624 163.895C166.68 163.838 166.727 163.767 166.756 163.687C166.784 163.612 166.798 163.527 166.793 163.447L166.671 160.013C166.666 159.843 166.596 159.683 166.473 159.565C166.351 159.447 166.191 159.381 166.022 159.381H161.944H161.949Z" fill="var(--sapContent_Illustrative_Color6)"/>
<path d="M172.588 159.494C172.508 159.494 172.424 159.509 172.348 159.542C172.273 159.575 172.202 159.622 172.146 159.678C172.09 159.735 172.043 159.806 172.014 159.886C171.986 159.961 171.972 160.046 171.977 160.126L172.094 163.56C172.104 163.73 172.174 163.89 172.297 164.008C172.419 164.126 172.579 164.192 172.748 164.192H176.826C176.906 164.192 176.991 164.173 177.061 164.145C177.137 164.112 177.207 164.064 177.264 164.008C177.32 163.951 177.367 163.881 177.395 163.8C177.423 163.725 177.438 163.64 177.433 163.56L177.315 160.126C177.306 159.957 177.235 159.796 177.113 159.678C176.991 159.56 176.831 159.494 176.661 159.494H172.584H172.588Z" fill="var(--sapContent_Illustrative_Color6)"/>
<path d="M253.438 100.998V40.3656L251.627 40.2996C251.491 40.2948 251.355 40.3184 251.228 40.3656C251.101 40.4128 250.983 40.4882 250.884 40.5825C250.785 40.6769 250.706 40.7901 250.654 40.9174C250.602 41.0447 250.574 41.1815 250.569 41.3183V103.965C250.569 104.234 250.677 104.493 250.865 104.686C251.054 104.88 251.312 104.988 251.58 104.988L295.324 105.384C295.455 105.384 295.592 105.361 295.714 105.309C295.841 105.257 295.954 105.182 296.048 105.087C296.142 104.993 296.222 104.88 296.274 104.752C296.326 104.63 296.354 104.493 296.354 104.356V102.39L254.464 102.017C254.327 102.017 254.196 101.993 254.069 101.941C253.942 101.89 253.829 101.814 253.735 101.72C253.641 101.626 253.565 101.508 253.514 101.385C253.462 101.258 253.438 101.126 253.438 100.989V100.998Z" fill="var(--sapContent_Illustrative_Color7)"/>
<path d="M253.438 100.998V40.3656L251.627 40.2996C251.491 40.2948 251.355 40.3184 251.228 40.3656C251.101 40.4128 250.983 40.4882 250.884 40.5825C250.785 40.6769 250.706 40.7901 250.654 40.9174C250.602 41.0447 250.574 41.1815 250.569 41.3183V103.965C250.569 104.234 250.677 104.493 250.865 104.686C251.054 104.88 251.312 104.988 251.58 104.988L295.324 105.384C295.455 105.384 295.592 105.361 295.714 105.309C295.841 105.257 295.954 105.182 296.048 105.087C296.142 104.993 296.222 104.88 296.274 104.752C296.326 104.63 296.354 104.493 296.354 104.356V102.39L254.464 102.017C254.327 102.017 254.196 101.993 254.069 101.941C253.942 101.89 253.829 101.814 253.735 101.72C253.641 101.626 253.565 101.508 253.514 101.385C253.462 101.258 253.438 101.126 253.438 100.989V100.998Z" fill="var(--sapContent_Illustrative_Color19)"/>
<path d="M298.226 39.9977L254.483 38.3989C254.346 38.3942 254.21 38.413 254.088 38.4602C253.961 38.5074 253.843 38.5781 253.744 38.6724C253.646 38.7668 253.566 38.8799 253.514 39.0026C253.457 39.1252 253.429 39.262 253.429 39.3987V100.998C253.429 101.267 253.537 101.522 253.726 101.71C253.914 101.899 254.172 102.003 254.436 102.003L296.326 102.375H298.165C298.297 102.375 298.433 102.352 298.555 102.305C298.678 102.257 298.791 102.182 298.889 102.088C298.983 101.993 299.063 101.88 299.115 101.758C299.167 101.635 299.195 101.503 299.195 101.366V40.9834C299.19 40.724 299.087 40.4788 298.903 40.2948C298.725 40.1109 298.48 40.0024 298.221 39.993L298.226 39.9977ZM293.485 95.6783V95.6169L260.089 95.3009C259.883 95.2915 259.68 95.2019 259.539 95.0463C259.393 94.8906 259.318 94.6878 259.323 94.4756V44.5442H259.252L259.29 43.3887H259.948C260.01 43.3793 260.071 43.3793 260.132 43.3887L262.192 43.4689L294.36 44.365L294.459 95.5792L293.485 95.6688V95.6783Z" fill="var(--sapContent_Illustrative_Color18)"/>
<path d="M260.132 43.4029C260.071 43.3934 260.01 43.3934 259.948 43.4029L262.192 43.4642L260.132 43.4029V43.4029Z" fill="var(--sapContent_Illustrative_Color7)"/>
<path d="M259.323 44.5631V94.4945C259.323 94.7067 259.398 94.9095 259.544 95.0651C259.689 95.2208 259.887 95.3104 260.094 95.3198L293.489 95.6358L293.245 45.8129L259.323 44.5631V44.5631ZM286.081 81.7982L286.02 81.8407C285.823 81.9869 285.583 82.0623 285.338 82.0623C285.155 82.0623 284.976 82.0246 284.811 81.9397C284.647 81.8548 284.506 81.7369 284.397 81.5907C284.219 81.3407 284.143 81.0342 284.19 80.7323C284.237 80.4305 284.402 80.1569 284.647 79.9777L284.731 79.9164C285.752 79.2231 286.589 78.2799 287.163 77.1857C287.737 76.0868 288.033 74.8653 288.024 73.6202C288.024 73.3372 288.005 73.0589 287.977 72.7807H267.511C266.942 72.7807 266.378 72.6675 265.851 72.4505C265.324 72.2336 264.845 71.9129 264.445 71.5073C264.04 71.1017 263.725 70.6206 263.504 70.0924C263.288 69.5641 263.175 68.9982 263.175 68.4275V64.1121C263.175 64.0555 263.198 64.0036 263.236 63.9659C263.278 63.9282 263.33 63.9046 263.382 63.9046L265.898 65.4893H265.969C266.34 65.3478 266.731 65.277 267.126 65.2818C267.554 65.2723 267.982 65.3572 268.372 65.5317H268.504L270.762 63.8999C270.818 63.8999 270.87 63.9235 270.907 63.9612C270.95 63.9989 270.969 64.0508 270.973 64.1074V67.5361C272.695 64.9092 275.954 63.1311 279.694 63.1311C283.433 63.1311 286.966 65.0554 288.631 67.8568C288.645 67.871 288.659 67.8851 288.668 67.904C289.76 69.6019 290.343 71.5827 290.352 73.606C290.357 75.219 289.971 76.8131 289.228 78.2421C288.485 79.6712 287.398 80.8974 286.077 81.8076L286.081 81.7982Z" fill="var(--sapContent_Illustrative_Color7)"/>
<path d="M262.192 43.4831L293.555 44.7093C293.762 44.7234 293.955 44.8131 294.096 44.9687C294.237 45.1243 294.313 45.3224 294.303 45.5346V94.8152C294.303 94.9189 294.289 95.0274 294.251 95.1264C294.214 95.2255 294.157 95.3151 294.082 95.3906C294.007 95.466 293.922 95.5273 293.823 95.5698C293.729 95.6122 293.621 95.6358 293.518 95.6358H293.485V95.6971L294.463 95.6028L294.364 44.3886L262.192 43.4925V43.4831Z" fill="var(--sapContent_Illustrative_Color8)"/>
<path opacity="0.5" d="M262.192 43.4831L293.555 44.7093C293.762 44.7234 293.955 44.8131 294.096 44.9687C294.237 45.1243 294.313 45.3224 294.303 45.5346V94.8152C294.303 94.9189 294.289 95.0274 294.251 95.1264C294.214 95.2255 294.157 95.3151 294.082 95.3906C294.007 95.466 293.922 95.5273 293.823 95.5698C293.729 95.6122 293.621 95.6358 293.518 95.6358H293.485V95.6971L294.463 95.6028L294.364 44.3886L262.192 43.4925V43.4831Z" fill="var(--sapContent_Illustrative_Color20)"/>
<path d="M259.948 43.4217H259.29L259.252 44.5772H259.323V44.2424C259.318 44.0537 259.374 43.8698 259.487 43.7189C259.6 43.5679 259.765 43.4642 259.944 43.4217H259.948Z" fill="var(--sapContent_Illustrative_Color8)"/>
<path opacity="0.5" d="M259.948 43.4217H259.29L259.252 44.5772H259.323V44.2424C259.318 44.0537 259.374 43.8698 259.487 43.7189C259.6 43.5679 259.765 43.4642 259.944 43.4217H259.948Z" fill="var(--sapContent_Illustrative_Color20)"/>
<path d="M294.303 94.8152V45.5299C294.308 45.3224 294.237 45.1196 294.096 44.964C293.955 44.8083 293.762 44.7187 293.555 44.7046L262.192 43.4783L259.948 43.417C259.769 43.4595 259.609 43.5632 259.492 43.7094C259.379 43.8556 259.318 44.0349 259.323 44.2235V44.5584L293.235 45.8082L293.48 95.6311H293.513C293.616 95.6311 293.72 95.6075 293.819 95.5651C293.917 95.5226 294.002 95.4613 294.077 95.3858C294.153 95.3104 294.209 95.2208 294.247 95.1217C294.284 95.0227 294.303 94.9189 294.298 94.8104L294.303 94.8152Z" fill="var(--sapContent_Illustrative_Color7)"/>
<path d="M294.303 94.8152V45.5299C294.308 45.3224 294.237 45.1196 294.096 44.964C293.955 44.8083 293.762 44.7187 293.555 44.7046L262.192 43.4783L259.948 43.417C259.769 43.4595 259.609 43.5632 259.492 43.7094C259.379 43.8556 259.318 44.0349 259.323 44.2235V44.5584L293.235 45.8082L293.48 95.6311H293.513C293.616 95.6311 293.72 95.6075 293.819 95.5651C293.917 95.5226 294.002 95.4613 294.077 95.3858C294.153 95.3104 294.209 95.2208 294.247 95.1217C294.284 95.0227 294.303 94.9189 294.298 94.8104L294.303 94.8152Z" fill="var(--sapContent_Illustrative_Color19)"/>
<path d="M288.636 67.8663C286.98 65.0554 283.603 63.1406 279.699 63.1406C275.795 63.1406 272.7 64.9186 270.978 67.5456V64.1168C270.978 64.0602 270.955 64.0084 270.912 63.9706C270.875 63.9329 270.818 63.9093 270.767 63.9093L268.509 65.5412H268.377C267.987 65.3666 267.559 65.2818 267.131 65.2912C266.736 65.2865 266.34 65.3572 265.974 65.4987H265.903L263.387 63.914C263.33 63.914 263.278 63.9376 263.241 63.9753C263.203 64.0131 263.18 64.065 263.18 64.1215V68.437C263.18 69.0076 263.293 69.5736 263.509 70.1065C263.725 70.6348 264.045 71.1158 264.45 71.5214C264.854 71.927 265.329 72.2477 265.856 72.4647C266.383 72.6816 266.947 72.7948 267.516 72.7948H288.001C288.029 73.0731 288.048 73.356 288.048 73.6343C288.057 74.8747 287.761 76.1009 287.187 77.1998C286.613 78.2987 285.776 79.2373 284.755 79.9306L284.671 79.9919C284.426 80.1711 284.261 80.4446 284.214 80.7465C284.167 81.0483 284.242 81.3596 284.421 81.6048C284.529 81.751 284.671 81.8737 284.835 81.9538C285 82.034 285.179 82.0765 285.362 82.0765C285.607 82.0765 285.846 82.001 286.044 81.8548L286.105 81.8124C287.427 80.9021 288.509 79.6806 289.252 78.2563C289.995 76.832 290.385 75.2426 290.381 73.6296C290.371 71.6063 289.788 69.6302 288.697 67.9276C288.683 67.8993 288.664 67.8804 288.64 67.8616L288.636 67.8663ZM269.694 69.2859L270.955 66.126L270.983 67.5456L269.694 69.2859Z" fill="var(--sapContent_Illustrative_Color18)"/>
<path opacity="0.7" d="M269.694 69.3095L270.978 67.5644L270.955 66.1448L269.694 69.3095Z" fill="var(--sapContent_Illustrative_Color19)"/>
<path d="M178.275 36.036V19.6281H178.247V36.3049C178.261 36.2153 178.27 36.1256 178.275 36.036Z" fill="var(--sapContent_Illustrative_Color7)"/>
<path d="M154 28.5796C156.22 27.3345 158.289 26.6883 160.401 27.2213C164.846 28.3532 165.001 33.5741 170.716 38.9931H175.335C175.655 38.9931 175.975 38.9365 176.276 38.8281C176.144 38.8564 176.008 38.8705 175.871 38.8705V19.6281H146.173C147.984 21.6938 150.067 24.1368 152.697 27.1081C153.139 27.6033 153.572 28.1079 154 28.5843V28.5796Z" fill="var(--sapContent_Illustrative_Color7)"/>
<path d="M130.256 38.946C129.56 38.7479 128.948 38.3281 128.516 37.748C128.078 37.1679 127.843 36.4652 127.838 35.7389V19.6328H127.805V36.0407C127.805 36.7388 128.055 37.4132 128.501 37.9461C128.948 38.4791 129.569 38.8328 130.256 38.9507V38.946Z" fill="var(--sapContent_Illustrative_Color7)"/>
<path d="M130.745 42.7284H175.335C177.104 42.7284 178.802 42.021 180.053 40.7618C181.304 39.5025 182.009 37.7999 182.014 36.0172V19.6139H178.279V36.0219C178.279 36.1115 178.265 36.2011 178.251 36.2907V36.4463C178.251 37.0123 178.049 37.5594 177.687 37.9933C177.325 38.4272 176.817 38.7149 176.262 38.8092C175.961 38.9177 175.641 38.9743 175.321 38.9743H170.702L170.801 39.0686H131.164C130.844 39.0686 130.529 39.0167 130.223 38.9224C129.536 38.8045 128.915 38.4508 128.468 37.9178C128.022 37.3849 127.772 36.7105 127.772 36.0124V19.6092H124.038V36.0172C124.038 36.8991 124.212 37.7763 124.55 38.5923C124.889 39.4082 125.383 40.1486 126.004 40.7712C126.629 41.3937 127.368 41.8889 128.181 42.2238C128.995 42.5587 129.865 42.7332 130.745 42.7284Z" fill="var(--sapContent_Illustrative_Color18)"/>
<path d="M176.257 38.8281C176.798 38.6489 177.273 38.314 177.626 37.866C177.979 37.4179 178.195 36.8755 178.247 36.3049V19.6281H175.853V38.8752C175.989 38.8752 176.125 38.8611 176.257 38.8328V38.8281Z" fill="var(--sapContent_Illustrative_Color7)"/>
<path d="M176.257 38.8281C176.798 38.6489 177.273 38.314 177.626 37.866C177.979 37.4179 178.195 36.8755 178.247 36.3049V19.6281H175.853V38.8752C175.989 38.8752 176.125 38.8611 176.257 38.8328V38.8281Z" fill="var(--sapContent_Illustrative_Color19)"/>
<path d="M176.257 38.8281C176.812 38.7337 177.315 38.4461 177.682 38.0122C178.044 37.5783 178.247 37.0312 178.247 36.4652V36.3096C178.195 36.8802 177.979 37.4179 177.626 37.8659C177.273 38.314 176.798 38.6489 176.257 38.8281Z" fill="var(--sapContent_Illustrative_Color8)"/>
<path opacity="0.2" d="M176.257 38.8281C176.812 38.7337 177.315 38.4461 177.682 38.0122C178.044 37.5783 178.247 37.0312 178.247 36.4652V36.3096C178.195 36.8802 177.979 37.4179 177.626 37.8659C177.273 38.314 176.798 38.6489 176.257 38.8281Z" fill="var(--sapContent_Illustrative_Color20)"/>
<path d="M130.256 38.946C130.411 38.9743 130.571 38.9931 130.726 38.9979H141.789C143.835 36.2624 146.286 33.8571 149.056 31.8621C150.637 30.683 152.283 29.5889 153.981 28.5796C153.553 28.1079 153.12 27.6363 152.664 27.1034C150.034 24.1368 147.96 21.6891 146.14 19.6233H127.819V35.7389C127.819 36.4652 128.064 37.1727 128.501 37.7528C128.939 38.3329 129.56 38.7479 130.256 38.946V38.946Z" fill="var(--sapContent_Illustrative_Color7)"/>
<path d="M130.256 38.946C130.411 38.9743 130.571 38.9931 130.726 38.9979H141.789C143.835 36.2624 146.286 33.8571 149.056 31.8621C150.637 30.683 152.283 29.5889 153.981 28.5796C153.553 28.1079 153.12 27.6363 152.664 27.1034C150.034 24.1368 147.96 21.6891 146.14 19.6233H127.819V35.7389C127.819 36.4652 128.064 37.1727 128.501 37.7528C128.939 38.3329 129.56 38.7479 130.256 38.946V38.946Z" fill="var(--sapContent_Illustrative_Color19)"/>
<path d="M130.745 38.9932C130.59 38.9932 130.43 38.9696 130.275 38.9413C130.58 39.0356 130.896 39.0828 131.215 39.0875H141.775L141.845 38.9932H130.745V38.9932Z" fill="var(--sapContent_Illustrative_Color8)"/>
<path opacity="0.5" d="M130.745 38.9932C130.59 38.9932 130.43 38.9696 130.275 38.9413C130.58 39.0356 130.896 39.0828 131.215 39.0875H141.775L141.845 38.9932H130.745V38.9932Z" fill="var(--sapContent_Illustrative_Color18)"/>
<path d="M160.401 27.2213C158.289 26.6883 156.22 27.3345 154 28.5796C152.302 29.5841 150.66 30.6783 149.075 31.8621C146.304 33.8524 143.854 36.2577 141.808 38.9979H170.716C165.001 33.5788 164.846 28.3579 160.401 27.226V27.2213Z" fill="var(--sapContent_Illustrative_Color7)"/>
<path d="M160.401 27.2213C158.289 26.6883 156.22 27.3345 154 28.5796C152.302 29.5841 150.66 30.6783 149.075 31.8621C146.304 33.8524 143.854 36.2577 141.808 38.9979H170.716C165.001 33.5788 164.846 28.3579 160.401 27.226V27.2213Z" fill="var(--sapContent_Illustrative_Color20)"/>
<path d="M141.737 39.0875H170.801L170.702 38.9931H141.794L141.737 39.0875Z" fill="var(--sapContent_Illustrative_Color8)"/>
<path opacity="0.5" d="M141.737 39.0875H170.801L170.702 38.9931H141.794L141.737 39.0875Z" fill="var(--sapContent_Illustrative_Color20)"/>
<path d="M36.5555 76.7659V19.6469H36.532V77.0348C36.532 76.9263 36.5555 76.8367 36.5555 76.7659Z" fill="var(--sapContent_Illustrative_Color7)"/>
<path d="M34.5374 79.5389C34.401 79.5625 34.2693 79.5767 34.1329 79.5767V19.6279H15.3844C11.5509 19.6279 7.87745 21.156 5.16817 23.882C2.4589 26.6033 0.934937 30.3009 0.934937 34.1494V46.2136H5.41745C4.35444 44.3696 4.18511 41.5398 3.86527 38.6062C3.31965 33.6117 3.59244 29.4283 7.2001 29.0369C7.8539 28.9567 8.51243 29.0699 9.10508 29.3576C9.69773 29.65 10.1916 30.1028 10.5256 30.6734C10.7655 30.2537 11.043 29.8575 11.3534 29.4897C12.9903 27.5371 15.2057 26.7118 16.2922 27.6314C17.3787 28.5511 16.9366 30.8904 15.295 32.8335C14.486 33.8711 13.3665 34.621 12.106 34.9794C12.2659 35.7859 12.3882 36.649 12.4869 37.5404C12.8256 40.672 13.0232 44.0724 12.1813 46.1948H13.9639C13.7334 45.2515 13.9639 44.0017 14.0862 42.6009C14.3119 39.7665 15.4314 37.4555 17.0871 37.3989C20.1256 37.3281 20.0833 39.7146 20.0833 42.6009C20.1068 43.8508 19.8152 45.0864 19.2366 46.1948H24.1096V53.123H22.7643V67.0596H0.939645V79.7182H33.6202C33.9354 79.7087 34.2411 79.6474 34.5374 79.5342V79.5389Z" fill="var(--sapContent_Illustrative_Color7)"/>
<path d="M40.2901 76.7659V19.6469H36.5554V76.7659C36.5554 76.8555 36.5555 76.9451 36.5319 77.0348V77.1904C36.5319 77.7563 36.3297 78.3034 35.9628 78.7373C35.5959 79.1712 35.0926 79.4589 34.5376 79.5533C34.2365 79.6617 33.9167 79.7183 33.5968 79.7183H0.91626V83.4678H33.5968C35.3701 83.4678 37.0681 82.765 38.324 81.5105C39.5799 80.2513 40.2854 78.5487 40.2901 76.7659V76.7659Z" fill="var(--sapContent_Illustrative_Color18)"/>
<path d="M34.5376 79.5391C35.0785 79.3599 35.5536 79.0203 35.9063 78.5723C36.2591 78.1242 36.4802 77.5818 36.532 77.0112V19.6281H34.1331V79.6051C34.2695 79.5957 34.4059 79.5768 34.5376 79.5438V79.5391Z" fill="var(--sapContent_Illustrative_Color7)"/>
<path d="M34.5376 79.5391C35.0785 79.3599 35.5536 79.0203 35.9063 78.5723C36.2591 78.1242 36.4802 77.5818 36.532 77.0112V19.6281H34.1331V79.6051C34.2695 79.5957 34.4059 79.5768 34.5376 79.5438V79.5391Z" fill="var(--sapContent_Illustrative_Color19)"/>
<path d="M34.5376 79.5391C35.0926 79.4448 35.6006 79.1571 35.9628 78.7232C36.325 78.2893 36.5273 77.7422 36.532 77.1762V77.0206C36.4755 77.5913 36.2591 78.1289 35.9064 78.577C35.5536 79.025 35.0785 79.3599 34.5376 79.5391Z" fill="var(--sapContent_Illustrative_Color8)"/>
<path opacity="0.2" d="M34.5376 79.5391C35.0926 79.4448 35.6006 79.1571 35.9628 78.7232C36.325 78.2893 36.5273 77.7422 36.532 77.1762V77.0206C36.4755 77.5913 36.2591 78.1289 35.9064 78.577C35.5536 79.025 35.0785 79.3599 34.5376 79.5391Z" fill="var(--sapContent_Illustrative_Color20)"/>
<path d="M22.7597 53.1326H22.7456V54.6795H0.935059V67.0504H22.7597V53.1326Z" fill="var(--sapContent_Illustrative_Color18)"/>
<path d="M19.5943 47.7985C19.5943 47.7985 19.5943 47.7796 19.5943 47.7702C20.3281 46.4496 20.6949 44.9734 20.6667 43.4831C20.6667 40.0685 20.7184 37.2151 16.8756 37.2764C14.7778 37.3236 13.362 40.059 13.0751 43.4831C12.9293 45.1762 12.6283 46.6571 12.9199 47.7702V47.7985H19.5943V47.7985Z" fill="var(--sapContent_Illustrative_Color18)"/>
<path d="M22.7456 53.1326V53.1137H0.935059V54.6795H22.7456V53.1326V53.1326Z" fill="var(--sapContent_Illustrative_Color19)"/>
<path d="M24.0909 53.1279V46.2327H0.963379V53.1279H24.0909Z" fill="var(--sapContent_Illustrative_Color18)"/>
<path d="M12.1532 46.2327C12.9952 44.1103 12.7976 40.7052 12.459 37.5783C12.3602 36.6869 12.2379 35.8238 12.0779 35.0173C13.3385 34.6589 14.4533 33.9043 15.267 32.8714C16.9086 30.9189 17.3554 28.589 16.2642 27.6693C15.1729 26.7544 12.9716 27.575 11.3254 29.5276C11.0196 29.8954 10.7468 30.2869 10.5164 30.7066C10.1777 30.1407 9.68382 29.6832 9.09587 29.3908C8.50322 29.0984 7.84475 28.9899 7.19094 29.0701C3.58327 29.4615 3.31045 33.6402 3.85607 38.6394C4.17591 41.5682 4.32642 44.4027 5.40826 46.2468L12.1532 46.2374V46.2327Z" fill="var(--sapContent_Illustrative_Color18)"/>
<path d="M71.0562 199.488L25.4313 200.196C25.1491 200.201 24.881 200.092 24.6788 199.899C24.4765 199.705 24.3589 199.437 24.3542 199.154L22.755 133.809C22.755 133.668 22.7785 133.522 22.8303 133.39C22.882 133.258 22.962 133.135 23.0608 133.031C23.1595 132.928 23.2818 132.847 23.4135 132.795C23.5452 132.739 23.6863 132.715 23.8321 132.715L69.4852 133.281C69.758 133.281 70.0262 133.394 70.219 133.588C70.4118 133.781 70.5247 134.045 70.5341 134.324L72.1004 198.39C72.1004 198.531 72.0816 198.673 72.0299 198.8C71.9781 198.932 71.9029 199.05 71.8041 199.154C71.7053 199.257 71.5924 199.338 71.4607 199.394C71.3337 199.451 71.1926 199.479 71.0562 199.484V199.488Z" fill="var(--sapContent_Illustrative_Color19)"/>
<path d="M73.9725 196.314L28.3476 197.027C28.0701 197.036 27.8019 196.932 27.5997 196.739C27.3974 196.546 27.2799 196.286 27.2704 196.003L25.6995 131.753C25.6995 131.612 25.7229 131.47 25.7794 131.338C25.8311 131.206 25.9111 131.088 26.0146 130.984C26.118 130.885 26.2356 130.805 26.3673 130.753C26.499 130.701 26.6401 130.678 26.7813 130.678L72.4344 131.216C72.7072 131.216 72.9706 131.324 73.1682 131.513C73.3657 131.706 73.4786 131.965 73.4833 132.239L75.0261 195.225C75.0261 195.362 75.0026 195.503 74.9509 195.635C74.8991 195.763 74.8239 195.885 74.7251 195.984C74.6263 196.083 74.5134 196.164 74.3817 196.22C74.2547 196.277 74.1183 196.305 73.9772 196.305L73.9725 196.314Z" fill="var(--sapContent_Illustrative_Color18)"/>
<path d="M68.9398 189.377L34.0719 189.91C33.8509 189.91 33.6439 189.815 33.4887 189.66C33.3335 189.504 33.2488 189.292 33.2488 189.07L31.9647 136.635C31.9647 136.521 31.9788 136.408 32.0165 136.304C32.0541 136.201 32.1152 136.102 32.1905 136.021C32.2657 135.941 32.3599 135.875 32.4633 135.828C32.5668 135.781 32.675 135.762 32.7879 135.757L67.684 136.257C67.9004 136.262 68.1026 136.356 68.2531 136.512C68.4036 136.668 68.4836 136.875 68.4836 137.092L69.7442 188.495C69.7489 188.608 69.7301 188.717 69.6924 188.82C69.6548 188.924 69.5983 189.018 69.5231 189.103C69.4478 189.183 69.3585 189.249 69.2597 189.297C69.1609 189.344 69.0527 189.367 68.9445 189.372L68.9398 189.377Z" fill="var(--sapContent_Illustrative_Color7)"/>
<path d="M31.894 136.993L67.378 137.422L68.9067 189.448L69.9274 189.32L68.5163 135.899L31.9082 135.781L31.894 136.993V136.993Z" fill="var(--sapContent_Illustrative_Color19)"/>
<path d="M60.8071 172.389C60.3931 171.625 60.0216 171.016 59.8663 170.663C59.65 170.13 59.4665 169.696 59.3019 169.29C59.3912 169.243 59.4712 169.177 59.5371 169.092C59.5982 169.012 59.6452 168.918 59.6641 168.814L61.2539 160.57C61.5925 159.004 61.5643 157.377 61.1645 155.825C60.7647 154.273 60.0121 152.835 58.9585 151.628C57.9049 150.42 56.5879 149.482 55.1063 148.883C53.6247 148.284 52.0254 148.039 50.4356 148.175L47.0773 148.458C46.1648 148.534 45.2805 148.817 44.4903 149.288C43.7001 149.76 43.0322 150.401 42.5289 151.17H40.591C40.1348 151.17 39.6832 151.26 39.2599 151.434C38.8366 151.609 38.4556 151.868 38.131 152.189C37.8065 152.514 37.5525 152.896 37.3785 153.321C37.2045 153.745 37.1151 154.198 37.1151 154.655C37.1151 154.948 37.228 155.221 37.4349 155.429C37.6372 155.632 37.9147 155.75 38.2016 155.75H39.227C38.371 156.396 37.9335 157.292 38.1922 158.07C38.5403 159.112 40.0031 159.575 41.5317 159.145C41.0378 161.037 41.1037 163.352 41.1037 165.89C41.1037 172.035 44.6079 177.048 48.9258 177.048C49.6219 177.048 50.3087 176.883 50.9342 176.577C50.9907 177.459 51.0283 178.044 51.0424 178.468C51.1365 180.784 56.3292 179.034 58.0695 177.949C60.3837 176.501 61.7948 173.912 61.2774 173.181C61.1034 172.926 60.9435 172.658 60.8071 172.379V172.389Z" fill="var(--sapContent_Illustrative_Color18)"/>
<path d="M238.616 97.2623C238.45 97.064 238.233 96.9141 237.988 96.8283C237.743 96.7425 237.479 96.7239 237.224 96.7745L231.135 97.8222C230.128 97.9949 229.73 98.9157 229.866 99.7008C229.91 100.024 230.059 100.325 230.289 100.557C230.519 100.789 230.819 100.941 231.144 100.989C231.301 101.008 231.461 101.003 231.617 100.974L237.706 99.9261C237.974 99.8856 238.226 99.7738 238.435 99.6025C238.645 99.4311 238.804 99.2067 238.895 98.9529C238.998 98.6707 239.025 98.3674 238.977 98.0715C238.928 97.7756 238.804 97.4971 238.616 97.2623V97.2623Z" fill="var(--sapContent_Illustrative_Color5)"/>
<path d="M215.472 73.071C215.296 73.0114 215.109 72.9889 214.924 73.0051C214.739 73.0212 214.559 73.0756 214.396 73.1647C214.233 73.2538 214.091 73.3757 213.978 73.5226C213.865 73.6695 213.784 73.8382 213.741 74.018L212.063 79.7678C212.003 79.9747 211.986 80.1914 212.011 80.4052C212.037 80.619 212.105 80.8255 212.212 81.0128C212.318 81.2002 212.461 81.3645 212.633 81.4962C212.804 81.6279 213 81.7243 213.209 81.7799C213.294 81.8052 213.382 81.8235 213.47 81.8346C213.797 81.8802 214.129 81.8024 214.401 81.6166C214.673 81.4308 214.865 81.1504 214.939 80.8307L216.615 75.0831C216.675 74.8763 216.693 74.6597 216.668 74.4459C216.642 74.2321 216.575 74.0255 216.468 73.8382C216.362 73.6508 216.219 73.4865 216.048 73.3547C215.876 73.223 215.681 73.1265 215.472 73.071V73.071Z" fill="var(--sapContent_Illustrative_Color5)"/>
<path d="M230.434 80.857C230.231 80.8439 230.028 80.872 229.837 80.9397C229.645 81.0074 229.47 81.1132 229.321 81.2506L222.583 87.3482C222.283 87.6234 222.1 88.0035 222.075 88.409C222.05 88.8146 222.183 89.2142 222.447 89.5244C222.693 89.811 223.038 89.9952 223.414 90.0405C223.631 90.0663 223.851 90.0452 224.059 89.9788C224.267 89.9123 224.458 89.8021 224.619 89.6556L231.357 83.558C231.66 83.2816 231.843 82.8992 231.868 82.4914C231.893 82.0835 231.758 81.6819 231.491 81.3709C231.359 81.2188 231.197 81.0949 231.015 81.0066C230.834 80.9183 230.636 80.8674 230.434 80.857V80.857Z" fill="var(--sapContent_Illustrative_Color5)"/>
</svg>
