<svg width="45" height="45" viewBox="0 0 45 45" fill="none" xmlns="http://www.w3.org/2000/svg" id="sapIllus-Dot-SimpleTask">
<path d="M31.5614 41.4346C31.94 41.3894 32.301 41.2489 32.6105 41.0263C32.5102 40.9787 32.4257 40.9034 32.3668 40.8092C32.308 40.7151 32.2773 40.606 32.2785 40.495L32.4645 30.5349C32.4671 30.3939 32.5201 30.2585 32.6139 30.1532C32.7077 30.0478 32.836 29.9795 32.9757 29.9605L40.5554 28.8948C40.6683 28.8775 40.7837 28.8937 40.8874 28.9413C40.9817 28.6433 41.0123 28.3288 40.9771 28.0183L38.1982 4.509C38.131 3.95995 37.8654 3.4544 37.4514 3.08752C37.0375 2.72064 36.5037 2.51773 35.9505 2.51697C35.8595 2.51754 35.7687 2.52307 35.6783 2.53356L2.67032 6.43795C2.37369 6.47171 2.08666 6.5638 1.82575 6.70892C1.56485 6.85404 1.33523 7.0493 1.15009 7.2835C0.964951 7.51771 0.827953 7.78622 0.746981 8.07358C0.666009 8.36093 0.642664 8.66145 0.678286 8.95786L4.62583 42.3476C4.66044 42.6439 4.75307 42.9305 4.89844 43.191C5.04382 43.4514 5.2391 43.6807 5.47311 43.8657C5.70712 44.0507 5.97528 44.1878 6.26227 44.2691C6.54927 44.3504 6.84947 44.3744 7.14574 44.3397L31.5614 41.4346ZM19.2507 6.33503C19.7255 6.36354 20.1816 6.53041 20.5628 6.81506C20.9439 7.09972 21.2334 7.48972 21.3956 7.93694C21.5577 8.38416 21.5854 8.86905 21.4753 9.33183C21.3651 9.79461 21.1219 10.215 20.7757 10.5412C20.4294 10.8675 19.9953 11.0852 19.5268 11.1676C19.0583 11.25 18.5759 11.1935 18.1391 11.005C17.7023 10.8166 17.3302 10.5044 17.0688 10.107C16.8073 9.70958 16.6679 9.24432 16.6677 8.76861C16.6876 8.10342 16.9709 7.47339 17.4553 7.01703C17.9397 6.56068 18.5855 6.31536 19.2507 6.33503Z" style="fill:var(--sapContent_Illustrative_Color6)"/>
<path d="M41.6344 27.9383L38.8555 4.42901C38.8102 4.04662 38.69 3.6769 38.5018 3.34096C38.3136 3.00502 38.0611 2.70945 37.7586 2.47113C37.4562 2.2328 37.1097 2.05639 36.7391 1.95198C36.3685 1.84757 35.9809 1.81721 35.5985 1.86262L2.58722 5.76368C2.20466 5.80854 1.83469 5.92845 1.49854 6.11652C1.16238 6.30459 0.866641 6.55713 0.628241 6.85968C0.389842 7.16223 0.213471 7.50883 0.10924 7.87965C0.00500836 8.25047 -0.025029 8.6382 0.0208279 9.02065L3.96836 42.4104C4.05277 43.123 4.39529 43.7799 4.93118 44.2571C5.46707 44.7342 6.15919 44.9986 6.87673 45.0001C6.98767 44.9994 7.0985 44.9928 7.20873 44.9801L31.6211 42.095C32.038 42.0455 32.4395 41.9072 32.7986 41.6896C33.1576 41.472 33.4659 41.1801 33.7028 40.8334L41.1297 29.937C41.5338 29.3536 41.713 28.6436 41.6344 27.9383ZM4.62574 42.3341L0.678192 8.9443C0.64257 8.64789 0.665915 8.34735 0.746887 8.06C0.827859 7.77264 0.964858 7.50415 1.15 7.26994C1.33514 7.03574 1.56476 6.84046 1.82566 6.69534C2.08656 6.55022 2.3736 6.45813 2.67022 6.42437L35.6815 2.51998C35.7719 2.50949 35.8628 2.50396 35.9538 2.50339C36.5069 2.50415 37.0407 2.70708 37.4547 3.07396C37.8686 3.44084 38.1342 3.94637 38.2014 4.49542L40.9803 28.0047C41.0155 28.3153 40.985 28.6297 40.8907 28.9277C40.7869 28.8801 40.6715 28.8639 40.5587 28.8812L32.979 29.947C32.8392 29.9659 32.7109 30.0343 32.6171 30.1396C32.5234 30.2449 32.4704 30.3803 32.4677 30.5213L32.2818 40.4815C32.2806 40.5925 32.3112 40.7015 32.37 40.7957C32.4289 40.8898 32.5135 40.9651 32.6138 41.0127C32.3042 41.2353 31.9433 41.3759 31.5646 41.4211L7.14897 44.3095C6.55265 44.3808 5.95237 44.213 5.47948 43.8428C5.0066 43.4725 4.69964 42.9301 4.62574 42.3341Z" style="fill:var(--sapContent_Illustrative_Color6)"/>
<path d="M33.517 39.595C33.8953 39.5482 34.2559 39.4079 34.5662 39.1866C34.4661 39.1387 34.3817 39.0633 34.323 38.9692C34.2642 38.8752 34.2334 38.7663 34.2342 38.6554L34.4201 28.6952C34.4226 28.5539 34.4755 28.418 34.5692 28.3121C34.663 28.2063 34.7913 28.1373 34.9314 28.1175L42.5111 27.0551C42.6239 27.0371 42.7395 27.0532 42.8431 27.1016C42.9363 26.8034 42.9657 26.4889 42.9294 26.1786L40.1505 2.66933C40.0833 2.12028 39.8177 1.61475 39.4037 1.24787C38.9897 0.880988 38.456 0.678057 37.9028 0.677298C37.8121 0.672346 37.7212 0.672346 37.6306 0.677298L4.6226 4.57836C4.32601 4.61295 4.03914 4.7057 3.77843 4.8513C3.51772 4.99689 3.28828 5.19246 3.10325 5.42683C2.91822 5.6612 2.78123 5.92977 2.70012 6.21715C2.61901 6.50453 2.59538 6.80509 2.63057 7.10161L6.58142 40.4947C6.61603 40.791 6.70868 41.0775 6.85406 41.338C6.99943 41.5985 7.19471 41.8278 7.42872 42.0127C7.66273 42.1977 7.93089 42.3348 8.21788 42.4161C8.50488 42.4975 8.80508 42.5214 9.10135 42.4867L33.517 39.595ZM21.2063 4.49536C21.6811 4.52388 22.1372 4.69076 22.5184 4.97541C22.8995 5.26007 23.189 5.65005 23.3512 6.09727C23.5133 6.54449 23.541 7.0294 23.4309 7.49218C23.3207 7.95496 23.0775 8.37538 22.7313 8.7016C22.385 9.02781 21.9509 9.24556 21.4824 9.32798C21.0139 9.41039 20.5315 9.35387 20.0947 9.1654C19.6579 8.97693 19.2858 8.66473 19.0244 8.26732C18.7629 7.86991 18.6235 7.40467 18.6233 6.92896C18.6441 6.26406 18.9277 5.63455 19.4118 5.17838C19.896 4.7222 20.5413 4.47658 21.2063 4.49536Z" style="fill:var(--sapContent_Illustrative_Color8)"/>
<path d="M43.59 26.0991L40.8111 2.58977C40.7196 1.81726 40.3251 1.11268 39.7144 0.63083C39.1037 0.148983 38.3267 -0.0707046 37.5541 0.0200529L4.54281 3.94103C4.16024 3.9859 3.79028 4.1058 3.45412 4.29387C3.11797 4.48194 2.82222 4.73448 2.58382 5.03703C2.34542 5.33958 2.16905 5.68618 2.06482 6.057C1.96059 6.42782 1.93053 6.81556 1.97639 7.19801L5.92394 40.5878C6.00842 41.3009 6.35141 41.9583 6.888 42.4355C7.42458 42.9128 8.11753 43.1767 8.83563 43.1774C8.94658 43.1768 9.05742 43.1702 9.16764 43.1575L33.58 40.2724C33.9969 40.2228 34.3984 40.0846 34.7575 39.867C35.1165 39.6494 35.4248 39.3574 35.6617 39.0108L43.0886 28.1143C43.4955 27.526 43.6737 26.8095 43.59 26.0991ZM6.5813 40.4948L2.63377 7.10506C2.59859 6.80853 2.62221 6.50797 2.70332 6.22059C2.78443 5.93321 2.92142 5.66465 3.10645 5.43028C3.29148 5.19591 3.52092 5.00033 3.78163 4.85474C4.04234 4.70915 4.32921 4.61639 4.62581 4.5818L37.6338 0.68074C37.7245 0.675789 37.8153 0.675789 37.906 0.68074C38.4592 0.6815 38.993 0.884411 39.4069 1.25129C39.8209 1.61818 40.0865 2.12373 40.1537 2.67277L42.9293 26.1854C42.9656 26.4957 42.9362 26.8102 42.8429 27.1084C42.7394 27.06 42.6238 27.0438 42.5109 27.0619L34.9313 28.1243C34.7912 28.144 34.6628 28.213 34.5691 28.3189C34.4754 28.4248 34.4225 28.5606 34.42 28.702L34.2341 38.6622C34.2333 38.7731 34.2641 38.8819 34.3228 38.976C34.3816 39.0701 34.466 39.1455 34.5661 39.1934C34.2558 39.4146 33.8951 39.555 33.5169 39.6017L9.10123 42.4868C8.80497 42.5216 8.50476 42.4976 8.21776 42.4163C7.93077 42.3349 7.66261 42.1979 7.4286 42.0129C7.19459 41.8279 6.99931 41.5986 6.85394 41.3381C6.70856 41.0777 6.61591 40.7911 6.5813 40.4948ZM42.4379 27.7359L34.8981 38.4331L35.0807 28.7684L42.4379 27.7359Z" style="fill:var(--sapContent_Illustrative_Color4)"/>
<path d="M34.908 38.4331L42.4445 27.7325L35.0906 28.7684L34.908 38.4331Z" style="fill:var(--sapContent_Illustrative_Color8)"/>
<path d="M21.206 9.35939C22.6326 9.35939 23.7891 8.26983 23.7891 6.92579C23.7891 5.58175 22.6326 4.49219 21.206 4.49219C19.7795 4.49219 18.623 5.58175 18.623 6.92579C18.623 8.26983 19.7795 9.35939 21.206 9.35939Z" style="fill:var(--sapContent_Illustrative_Color3)"/>
<path d="M32.7224 14.7505L12.8078 16.8331C11.9999 16.9176 11.4135 17.641 11.4979 18.4489L11.5801 19.2348C11.6646 20.0427 12.388 20.6291 13.1959 20.5446L33.1105 18.462C33.9184 18.3776 34.5049 17.6541 34.4204 16.8463L34.3382 16.0604C34.2537 15.2525 33.5303 14.6661 32.7224 14.7505Z" style="fill:var(--sapContent_Illustrative_Color6)"/>
<path d="M26.0553 22.0883L13.3953 23.4122C12.7388 23.4808 12.2622 24.0687 12.3309 24.7252L12.4704 26.0593C12.539 26.7158 13.1269 27.1923 13.7834 27.1237L26.4435 25.7998C27.1 25.7311 27.5765 25.1432 27.5079 24.4867L27.3684 23.1527C27.2997 22.4962 26.7119 22.0196 26.0553 22.0883Z" style="fill:var(--sapContent_Illustrative_Color6)"/>
<path d="M30.9041 16.5575C30.7803 16.43 30.6322 16.3286 30.4685 16.2594C30.3048 16.1902 30.1289 16.1545 29.9512 16.1545C29.7735 16.1545 29.5976 16.1902 29.4339 16.2594C29.2702 16.3286 29.1221 16.43 28.9983 16.5575L19.7022 25.8537L16.5481 22.6996C16.4228 22.5745 16.274 22.4753 16.1103 22.4076C15.9467 22.34 15.7712 22.3053 15.5941 22.3054C15.417 22.3056 15.2416 22.3406 15.0781 22.4085C14.9145 22.4764 14.7659 22.5759 14.6408 22.7013C14.5156 22.8266 14.4164 22.9754 14.3488 23.1391C14.2812 23.3028 14.2464 23.4782 14.2466 23.6553C14.2467 23.8324 14.2818 24.0078 14.3497 24.1713C14.4176 24.3349 14.5171 24.4835 14.6424 24.6086L18.7493 28.7222C18.8731 28.8497 19.0212 28.9511 19.1849 29.0203C19.3486 29.0895 19.5245 29.1252 19.7022 29.1252C19.8799 29.1252 20.0558 29.0895 20.2195 29.0203C20.3831 28.9511 20.5313 28.8497 20.6551 28.7222L30.9173 18.4599C31.0449 18.3361 31.1462 18.188 31.2154 18.0243C31.2846 17.8606 31.3203 17.6847 31.3203 17.507C31.3203 17.3293 31.2846 17.1534 31.2154 16.9898C31.1462 16.8261 31.0449 16.678 30.9173 16.5542L30.9041 16.5575Z" style="fill:var(--sapContent_Illustrative_Color3)"/>
<path d="M23.0823 6.02012C23.1701 5.89135 22.9392 5.58095 22.5665 5.32683C22.1938 5.0727 21.8205 4.97109 21.7327 5.09986C21.6449 5.22863 21.8758 5.53902 22.2485 5.79314C22.6212 6.04727 22.9945 6.14889 23.0823 6.02012Z" style="fill:var(--sapContent_Illustrative_Color8)"/>
</svg>
