<svg width="320" height="240" viewBox="0 0 320 240" fill="none" xmlns="http://www.w3.org/2000/svg" id="sapIllus-Scene-FilterTable">
<path d="M305.547 20H14.4533C12.5559 19.9983 10.6768 20.3705 8.92329 21.0954C7.16981 21.8203 5.57638 22.8836 4.23409 24.2247C2.8918 25.5657 1.82697 27.1582 1.10045 28.911C0.373942 30.6638 -8.08861e-07 32.5426 0 34.44V205.547C0 209.38 1.52275 213.056 4.23328 215.767C6.9438 218.477 10.6201 220 14.4533 220H305.547C309.38 220 313.056 218.477 315.767 215.767C318.477 213.056 320 209.38 320 205.547V34.44C320 32.5426 319.626 30.6638 318.9 28.911C318.173 27.1582 317.108 25.5657 315.766 24.2247C314.424 22.8836 312.83 21.8203 311.077 21.0954C309.323 20.3705 307.444 19.9983 305.547 20Z" style="fill:var(--sapContent_Illustrative_Color7)"/>
<path d="M151.678 130H29.2982C27.4121 130 25.8831 131.532 25.8831 133.421V212.821C25.8831 214.71 27.4121 216.242 29.2982 216.242H151.678C153.564 216.242 155.093 214.71 155.093 212.821V133.421C155.093 131.532 153.564 130 151.678 130Z" style="fill:var(--sapContent_Illustrative_Color18)"/>
<path d="M148.845 134.647H31.9616C30.2111 134.647 28.7921 136.069 28.7921 137.823V209.339C28.7921 211.093 30.2111 212.514 31.9616 212.514H148.845C150.595 212.514 152.014 211.093 152.014 209.339V137.823C152.014 136.069 150.595 134.647 148.845 134.647Z" style="fill:var(--sapContent_Illustrative_Color7)"/>
<path d="M172.875 217.82H12L16.0384 219.462C16.2933 219.564 16.5648 219.618 16.8393 219.621L168.742 220C169.143 220.002 169.536 219.89 169.875 219.678L172.871 217.809L172.875 217.82Z" style="fill:var(--sapContent_Illustrative_Color19)"/>
<path d="M172.875 217.23C172.874 216.945 172.761 216.673 172.559 216.472C172.358 216.271 172.086 216.159 171.802 216.159H13.0729C12.789 216.159 12.5167 216.271 12.3156 216.472C12.1145 216.673 12.001 216.945 12 217.23V217.82H172.875V217.23Z" style="fill:var(--sapContent_Illustrative_Color18)"/>
<path d="M83.0782 216.125H101.631V216.503C101.631 216.904 101.471 217.289 101.188 217.573C100.905 217.857 100.52 218.017 100.12 218.017H84.5779C84.1772 218.017 83.7928 217.857 83.5094 217.573C83.2261 217.289 83.0668 216.904 83.0668 216.503V216.125H83.0782Z" style="fill:var(--sapContent_Illustrative_Color20)"/>
<path d="M90.7242 133.039C91.1812 133.039 91.5516 132.668 91.5516 132.21C91.5516 131.752 91.1812 131.381 90.7242 131.381C90.2673 131.381 89.8969 131.752 89.8969 132.21C89.8969 132.668 90.2673 133.039 90.7242 133.039Z" style="fill:var(--sapContent_Illustrative_Color19)"/>
<path d="M295.976 132.052L241.064 113.242C238.732 112.45 236.202 113.682 235.41 116.014L208.042 195.896C207.25 198.228 208.482 200.758 210.814 201.55L265.726 220.36C268.058 221.152 270.588 219.92 271.38 217.588L298.748 137.706C299.54 135.374 298.308 132.844 295.976 132.052Z" style="fill:var(--sapContent_Illustrative_Color18)"/>
<path d="M263.042 133.416C261.238 132.69 259.236 132.514 257.344 132.932C255.43 133.328 253.692 134.296 252.328 135.704C250.964 137.112 250.04 138.872 249.688 140.786C249.336 142.7 249.556 144.68 250.326 146.484C251.096 148.288 252.372 149.806 254.022 150.862C255.65 151.918 257.564 152.49 259.522 152.446C261.48 152.424 263.372 151.808 264.978 150.708C266.584 149.608 267.838 148.046 268.564 146.242L259.39 142.59L263.064 133.416H263.042Z" style="fill:var(--sapContent_Illustrative_Color7)"/>
<path d="M265.968 132.074L262.316 141.226L271.468 144.878C271.952 143.668 272.194 142.392 272.172 141.094C272.172 139.796 271.886 138.52 271.38 137.332C270.874 136.144 270.126 135.066 269.202 134.164C268.278 133.262 267.178 132.558 265.968 132.074Z" style="fill:var(--sapContent_Illustrative_Color19)"/>
<path d="M273.58 164.832L235.322 151.72C234.046 151.28 232.682 151.962 232.242 153.238C231.802 154.514 232.484 155.878 233.76 156.318L272.018 169.43C273.294 169.87 274.658 169.188 275.098 167.912C275.538 166.636 274.856 165.272 273.58 164.832Z" style="fill:var(--sapContent_Illustrative_Color7)"/>
<path d="M270.28 172.62L232.022 159.508C230.746 159.068 229.382 159.75 228.942 161.026C228.502 162.302 229.184 163.666 230.46 164.106L268.718 177.218C269.994 177.658 271.38 176.976 271.798 175.7C272.238 174.424 271.556 173.06 270.28 172.62Z" style="fill:var(--sapContent_Illustrative_Color7)"/>
<path d="M249.248 174.116L228.876 167.142C227.6 166.702 226.214 167.384 225.796 168.66C225.356 169.936 226.038 171.3 227.314 171.74L247.708 178.714C248.984 179.154 250.348 178.472 250.788 177.196C251.228 175.92 250.546 174.556 249.27 174.116H249.248Z" style="fill:var(--sapContent_Illustrative_Color7)"/>
<g clip-path="url(#clip0_1663_6258)">
<path d="M197.308 45H94.3014C88.0598 45 83 50.0598 83 56.3014V183.699C83 189.94 88.0598 195 94.3014 195H197.308C203.549 195 208.609 189.94 208.609 183.699V56.3014C208.609 50.0598 203.549 45 197.308 45Z" style="fill:var(--sapContent_Illustrative_Color8)"/>
<path fill-rule="evenodd" clip-rule="evenodd" d="M94.5797 57.1442C94.5797 56.6305 94.7209 56.2188 94.8934 56.2188H196.065C196.237 56.2188 196.378 56.6109 196.378 57.1442V182.859C196.378 183.373 196.237 183.785 196.065 183.785H94.8934C94.7209 183.785 94.5797 183.392 94.5797 182.859V57.1442Z" style="fill:var(--sapContent_Illustrative_Color8)"/>
<path d="M196.386 68.2529H94.5797V78.672H196.386V68.2529Z" style="fill:var(--sapContent_Illustrative_Color18)"/>
<path d="M100.474 72.1909H117.978C118.551 72.1909 119.018 72.8144 119.018 73.583C119.018 74.3673 118.551 74.9712 117.978 74.9712H100.474C99.8971 74.9712 99.4304 74.3477 99.4304 73.583C99.4304 72.8144 99.8814 72.1909 100.474 72.1909Z" style="fill:var(--sapContent_Illustrative_Color14)"/>
<path d="M100.474 82.3784H114.685C115.257 82.3784 115.724 83.0019 115.724 83.7666C115.724 84.5508 115.257 85.1587 114.685 85.1587H100.474C99.8971 85.1587 99.4304 84.5352 99.4304 83.7666C99.4304 83.0019 99.8814 82.3784 100.474 82.3784Z" style="fill:var(--sapContent_Illustrative_Color14)"/>
<path d="M100.474 93.0332H116.943C117.52 93.0332 117.986 93.6567 117.986 94.4214C117.986 95.2056 117.52 95.8135 116.943 95.8135H100.474C99.8971 95.8135 99.4304 95.1899 99.4304 94.4214C99.4304 93.6528 99.8814 93.0332 100.474 93.0332Z" style="fill:var(--sapContent_Illustrative_Color14)"/>
<path d="M100.474 103.229H107.924C108.501 103.229 108.963 103.852 108.963 104.617C108.963 105.401 108.501 106.005 107.924 106.005H100.474C99.8971 106.005 99.4304 105.385 99.4304 104.617C99.4304 103.84 99.8814 103.229 100.474 103.229Z" style="fill:var(--sapContent_Illustrative_Color14)"/>
<path d="M100.474 113.635H107.924C108.501 113.635 108.963 114.254 108.963 115.023C108.963 115.807 108.501 116.411 107.924 116.411H100.474C99.8971 116.411 99.4304 115.792 99.4304 115.023C99.4304 114.254 99.8814 113.635 100.474 113.635Z" style="fill:var(--sapContent_Illustrative_Color14)"/>
<path d="M100.474 134.473H107.924C108.501 134.473 108.963 135.092 108.963 135.861C108.963 136.645 108.501 137.249 107.924 137.249H100.474C99.8971 137.249 99.4304 136.625 99.4304 135.861C99.4304 135.092 99.8814 134.473 100.474 134.473Z" style="fill:var(--sapContent_Illustrative_Color14)"/>
<path d="M100.474 124.055H107.924C108.501 124.055 108.963 124.674 108.963 125.443C108.963 126.227 108.501 126.831 107.924 126.831H100.474C99.8971 126.831 99.4304 126.211 99.4304 125.443C99.4304 124.674 99.8814 124.055 100.474 124.055Z" style="fill:var(--sapContent_Illustrative_Color14)"/>
<path d="M100.474 144.889H107.924C108.501 144.889 108.963 145.512 108.963 146.281C108.963 147.065 108.501 147.669 107.924 147.669H100.474C99.8971 147.669 99.4304 147.045 99.4304 146.281C99.4304 145.512 99.8814 144.889 100.474 144.889Z" style="fill:var(--sapContent_Illustrative_Color14)"/>
<path d="M100.438 155.351H107.889C108.461 155.351 108.928 155.975 108.928 156.739C108.928 157.523 108.461 158.131 107.889 158.131H100.438C99.8658 158.131 99.3992 157.508 99.3992 156.739C99.3992 155.975 99.8815 155.351 100.438 155.351Z" style="fill:var(--sapContent_Illustrative_Color14)"/>
<path d="M137.072 72.1909H154.577C155.149 72.1909 155.616 72.8144 155.616 73.583C155.616 74.3673 155.149 74.9712 154.577 74.9712H137.072C136.495 74.9712 136.029 74.3477 136.029 73.583C136.029 72.8144 136.495 72.1909 137.072 72.1909Z" style="fill:var(--sapContent_Illustrative_Color14)"/>
<path d="M137.072 82.3784H151.283C151.855 82.3784 152.322 83.0019 152.322 83.7666C152.322 84.5508 151.855 85.1587 151.283 85.1587H137.072C136.495 85.1587 136.029 84.5352 136.029 83.7666C136.029 83.0019 136.495 82.3784 137.072 82.3784Z" style="fill:var(--sapContent_Illustrative_Color14)"/>
<path d="M137.072 93.0332H153.541C154.118 93.0332 154.585 93.6567 154.585 94.4214C154.585 95.2056 154.118 95.8135 153.541 95.8135H137.072C136.495 95.8135 136.029 95.1899 136.029 94.4214C136.029 93.6528 136.495 93.0332 137.072 93.0332Z" style="fill:var(--sapContent_Illustrative_Color14)"/>
<path d="M137.072 103.229H144.522C145.099 103.229 145.561 103.852 145.561 104.617C145.561 105.401 145.099 106.005 144.522 106.005H137.072C136.495 106.005 136.029 105.385 136.029 104.617C136.029 103.84 136.495 103.229 137.072 103.229Z" style="fill:var(--sapContent_Illustrative_Color14)"/>
<path d="M137.072 113.635H144.522C145.099 113.635 145.561 114.254 145.561 115.023C145.561 115.807 145.099 116.411 144.522 116.411H137.072C136.495 116.411 136.029 115.792 136.029 115.023C136.029 114.254 136.495 113.635 137.072 113.635Z" style="fill:var(--sapContent_Illustrative_Color14)"/>
<path d="M137.072 134.473H144.522C145.099 134.473 145.561 135.092 145.561 135.861C145.561 136.645 145.099 137.249 144.522 137.249H137.072C136.495 137.249 136.029 136.625 136.029 135.861C136.029 135.092 136.495 134.473 137.072 134.473Z" style="fill:var(--sapContent_Illustrative_Color14)"/>
<path d="M137.072 124.055H144.522C145.099 124.055 145.561 124.674 145.561 125.443C145.561 126.227 145.099 126.831 144.522 126.831H137.072C136.495 126.831 136.029 126.211 136.029 125.443C136.029 124.674 136.495 124.055 137.072 124.055Z" style="fill:var(--sapContent_Illustrative_Color14)"/>
<path d="M137.072 144.889H144.522C145.099 144.889 145.561 145.512 145.561 146.281C145.561 147.065 145.099 147.669 144.522 147.669H137.072C136.495 147.669 136.029 147.045 136.029 146.281C136.029 145.512 136.495 144.889 137.072 144.889Z" style="fill:var(--sapContent_Illustrative_Color14)"/>
<path d="M137.036 155.351H144.487C145.06 155.351 145.526 155.975 145.526 156.739C145.526 157.523 145.06 158.131 144.487 158.131H137.036C136.464 158.131 135.997 157.508 135.997 156.739C135.997 155.975 136.464 155.351 137.036 155.351Z" style="fill:var(--sapContent_Illustrative_Color14)"/>
<path d="M173.254 72.1909H190.759C191.332 72.1909 191.798 72.8144 191.798 73.583C191.798 74.3673 191.332 74.9712 190.759 74.9712H173.254C172.678 74.9712 172.211 74.3477 172.211 73.583C172.211 72.8144 172.678 72.1909 173.254 72.1909Z" style="fill:var(--sapContent_Illustrative_Color14)"/>
<path d="M173.254 82.3784H187.465C188.038 82.3784 188.504 83.0019 188.504 83.7666C188.504 84.5508 188.038 85.1587 187.465 85.1587H173.254C172.678 85.1587 172.211 84.5352 172.211 83.7666C172.211 83.0019 172.678 82.3784 173.254 82.3784Z" style="fill:var(--sapContent_Illustrative_Color14)"/>
<path d="M173.254 93.0332H189.724C190.3 93.0332 190.767 93.6567 190.767 94.4214C190.767 95.2056 190.3 95.8135 189.724 95.8135H173.254C172.678 95.8135 172.211 95.1899 172.211 94.4214C172.211 93.6528 172.678 93.0332 173.254 93.0332Z" style="fill:var(--sapContent_Illustrative_Color14)"/>
<path d="M173.254 103.229H180.705C181.277 103.229 181.744 103.852 181.744 104.617C181.744 105.401 181.277 106.005 180.705 106.005H173.254C172.678 106.005 172.211 105.385 172.211 104.617C172.211 103.84 172.678 103.229 173.254 103.229Z" style="fill:var(--sapContent_Illustrative_Color14)"/>
<path d="M173.254 113.635H180.705C181.277 113.635 181.744 114.254 181.744 115.023C181.744 115.807 181.277 116.411 180.705 116.411H173.254C172.678 116.411 172.211 115.792 172.211 115.023C172.211 114.254 172.678 113.635 173.254 113.635Z" style="fill:var(--sapContent_Illustrative_Color14)"/>
<path d="M173.254 134.473H180.705C181.277 134.473 181.744 135.092 181.744 135.861C181.744 136.645 181.277 137.249 180.705 137.249H173.254C172.678 137.249 172.211 136.625 172.211 135.861C172.211 135.092 172.678 134.473 173.254 134.473Z" style="fill:var(--sapContent_Illustrative_Color14)"/>
<path d="M173.254 124.055H180.705C181.277 124.055 181.744 124.674 181.744 125.443C181.744 126.227 181.277 126.831 180.705 126.831H173.254C172.678 126.831 172.211 126.211 172.211 125.443C172.211 124.674 172.678 124.055 173.254 124.055Z" style="fill:var(--sapContent_Illustrative_Color14)"/>
<path d="M173.254 144.889H180.705C181.277 144.889 181.744 145.512 181.744 146.281C181.744 147.065 181.277 147.669 180.705 147.669H173.254C172.678 147.669 172.211 147.045 172.211 146.281C172.211 145.512 172.678 144.889 173.254 144.889Z" style="fill:var(--sapContent_Illustrative_Color14)"/>
<path d="M173.211 155.351H180.662C181.238 155.351 181.705 155.975 181.705 156.739C181.705 157.523 181.238 158.131 180.662 158.131H173.211C172.634 158.131 172.172 157.508 172.172 156.739C172.18 155.975 172.642 155.351 173.211 155.351Z" style="fill:var(--sapContent_Illustrative_Color14)"/>
<path d="M121.782 59.9209H101.862C100.519 59.9209 99.4304 61.0094 99.4304 62.3521C99.4304 63.6949 100.519 64.7834 101.862 64.7834H121.782C123.125 64.7834 124.213 63.6949 124.213 62.3521C124.213 61.0094 123.125 59.9209 121.782 59.9209Z" style="fill:var(--sapContent_Illustrative_Color14)"/>
</g>
<path d="M72.9991 97.863C72.9991 96.5047 69.0565 95.4175 63.7886 95.1705C63.4874 89.9092 62.3278 85.997 60.9695 86C59.6111 86.003 58.4816 89.9453 58.1925 95.2338C52.9096 95.5952 48.982 96.7758 49.0001 98.137C49.0181 99.4983 52.9427 100.586 58.2105 100.829C58.5268 106.091 59.6713 110.003 61.0267 110C62.3821 109.997 63.5175 106.055 63.8067 100.766C69.0896 100.405 73.0141 99.2242 72.9991 97.863Z" style="fill:var(--sapContent_Illustrative_Color18)"/>
<path d="M44.4994 59.9029C44.4994 58.9408 41.7067 58.1707 37.9753 57.9958C37.7619 54.269 36.9406 51.4979 35.9784 51.5C35.0162 51.5021 34.2161 54.2946 34.0113 58.0406C30.2693 58.2966 27.4872 59.1328 27.5 60.0971C27.5128 61.0613 30.2927 61.8314 34.0241 62.0042C34.2482 65.731 35.0589 68.5021 36.0189 68.5C36.979 68.4979 37.7833 65.7054 37.9881 61.9594C41.7301 61.7034 44.51 60.8672 44.4994 59.9029Z" style="fill:var(--sapContent_Illustrative_Color18)"/>
<path d="M264.999 47.863C264.999 46.5047 261.056 45.4175 255.789 45.1705C255.487 39.9092 254.328 35.997 252.969 36C251.611 36.003 250.482 39.9453 250.192 45.2338C244.91 45.5952 240.982 46.7758 241 48.137C241.018 49.4983 244.943 50.5855 250.211 50.8295C250.527 56.0908 251.671 60.003 253.027 60C254.382 59.997 255.518 56.0547 255.807 50.7662C261.09 50.4048 265.014 49.2242 264.999 47.863Z" style="fill:var(--sapContent_Illustrative_Color3)"/>
<path d="M282.499 71.9029C282.499 70.9408 279.707 70.1707 275.975 69.9958C275.762 66.269 274.941 63.4979 273.978 63.5C273.016 63.5021 272.216 66.2946 272.011 70.0406C268.269 70.2966 265.487 71.1328 265.5 72.0971C265.513 73.0613 268.293 73.8314 272.024 74.0042C272.248 77.731 273.059 80.5021 274.019 80.5C274.979 80.4979 275.783 77.7054 275.988 73.9594C279.73 73.7034 282.51 72.8672 282.499 71.9029Z" style="fill:var(--sapContent_Illustrative_Color3)"/>
<path d="M164.272 88.6264L195.703 122.106C195.827 122.24 195.896 122.416 195.895 122.599V155.238C195.894 155.568 195.981 155.893 196.146 156.179C196.312 156.465 196.551 156.702 196.838 156.864C197.125 157.027 197.45 157.11 197.78 157.105C198.109 157.1 198.432 157.007 198.714 156.836L220.003 144.016C220.278 143.851 220.505 143.618 220.664 143.339C220.822 143.06 220.906 142.745 220.907 142.424L221.006 122.599C221.006 122.42 221.073 122.247 221.194 122.115L253.282 87.2671L164.272 88.6264Z" style="fill:var(--sapContent_Illustrative_Color2)"/>
<path d="M217.089 122.379V144.518C217.088 144.643 217.121 144.766 217.184 144.874C217.246 144.982 217.336 145.071 217.445 145.133C217.553 145.194 217.675 145.226 217.8 145.224C217.924 145.223 218.046 145.188 218.153 145.123L219.663 144.214C220.039 143.986 220.351 143.665 220.567 143.281C220.784 142.897 220.899 142.464 220.9 142.023L220.996 122.866C220.999 122.51 221.134 122.169 221.374 121.907L252.168 88.4649C252.261 88.363 252.322 88.2362 252.344 88.0999C252.366 87.9636 252.348 87.8238 252.292 87.6978C252.235 87.5718 252.144 87.465 252.028 87.3906C251.912 87.3163 251.776 87.2776 251.639 87.2794C251.562 87.2812 251.485 87.2959 251.413 87.3228L233.777 93.7158C233.622 93.773 233.492 93.8828 233.409 94.0261L217.181 122.009C217.118 122.122 217.086 122.249 217.089 122.379Z" style="fill:var(--sapContent_Illustrative_Color13)"/>
<path d="M207.998 93.815C234.195 93.815 255.432 87.9405 255.432 80.6939C255.432 73.4473 234.195 67.5728 207.998 67.5728C181.802 67.5728 160.565 73.4473 160.565 80.6939C160.565 87.9405 181.802 93.815 207.998 93.815Z" style="fill:var(--sapContent_Illustrative_Color13)"/>
<path d="M255.432 80.7063C255.432 77.4291 251.085 74.4344 243.901 72.1348L234.139 91.6582C246.967 89.2965 255.432 85.2683 255.432 80.7063Z" style="fill:var(--sapContent_Illustrative_Color14)"/>
<path d="M207.998 96.3908C195.106 96.3908 182.953 94.9912 173.779 92.4557C163.309 89.5571 158 85.6034 158 80.6938C158 75.7843 163.306 71.8337 173.779 68.9351C182.953 66.3996 195.106 65 207.998 65C220.891 65 233.06 66.3996 242.221 68.9351C252.691 71.8337 258 75.7874 258 80.6938C258 85.6003 252.694 89.5571 242.221 92.4557C233.047 94.9818 220.894 96.3908 207.998 96.3908ZM207.998 70.1485C195.555 70.1485 183.884 71.4799 175.144 73.8974C165.642 76.526 163.133 79.4835 163.133 80.6938C163.133 81.9042 165.642 84.8648 175.144 87.4934C183.884 89.9109 195.564 91.2423 207.998 91.2423C220.433 91.2423 232.113 89.9109 240.856 87.4934C250.355 84.8648 252.867 81.9073 252.867 80.6938C252.867 79.4804 250.355 76.526 240.856 73.8974C232.113 71.4799 220.445 70.1547 207.998 70.1547V70.1485Z" style="fill:var(--sapContent_Illustrative_Color2)"/>
<defs>
<clipPath id="clip0_1663_6258">
<rect width="125.609" height="150" style="fill:var(--sapContent_Illustrative_Color8)" transform="translate(83 45)"/>
</clipPath>
</defs>
</svg>
