<svg width="128" height="129" viewBox="0 0 128 129" fill="none" xmlns="http://www.w3.org/2000/svg" id="sapIllus-Spot-NoTasks_v1">
<path d="M9.72451e-08 64.7305C9.72451e-08 81.7043 6.74284 97.983 18.7452 109.985C30.7475 121.988 47.0261 128.73 64 128.73C80.9736 128.73 97.2517 121.986 109.254 109.984C121.256 97.9821 127.999 81.704 128 64.7305C128 56.3259 126.345 48.0036 123.128 40.2387C119.912 32.4739 115.198 25.4186 109.255 19.4756C103.312 13.5327 96.2566 8.81849 88.4917 5.60219C80.7269 2.38589 72.4046 0.730469 64 0.730469C55.5953 0.730006 47.2728 2.38511 39.5077 5.60125C31.7427 8.81738 24.6872 13.5316 18.7441 19.4746C12.8011 25.4177 8.0869 32.4731 4.87077 40.2382C1.65463 48.0032 -0.000463216 56.3257 9.72451e-08 64.7305ZM62.0315 27.6188C62.1486 27.6047 62.2664 27.5977 62.3843 27.5976C63.0449 27.597 63.6863 27.8195 64.2046 28.2291C64.509 28.469 64.763 28.7667 64.9519 29.1052C65.1408 29.4436 65.2609 29.8161 65.3053 30.2011L68.7836 59.6012L101.436 55.7383C101.553 55.7243 101.671 55.7173 101.789 55.7171C102.45 55.7178 103.091 55.9415 103.609 56.3521C104.224 56.8359 104.621 57.544 104.713 58.3206L108.322 88.8707C108.369 89.2743 108.329 89.683 108.206 90.0701C108.076 90.0113 107.931 89.9905 107.79 90.0102L106.523 90.1865L106.626 91.0438L107.684 90.8921L106.544 92.5078C106.437 92.9525 106.251 93.3743 105.994 93.7531L96.3422 107.913C96.0356 108.364 95.6356 108.744 95.1694 109.027C94.7032 109.31 94.1816 109.49 93.64 109.554L61.9257 113.304C61.777 113.322 61.6274 113.331 61.4777 113.332C60.5473 113.331 59.6494 112.99 58.9525 112.373C58.2556 111.757 57.8075 110.907 57.6924 109.984L54.3164 81.4096H54.2458L22.521 85.1807C22.3723 85.1988 22.2227 85.2082 22.073 85.2089C21.1399 85.207 20.2398 84.8636 19.5425 84.2436C18.8452 83.6236 18.3989 82.7699 18.2877 81.8435L13.1584 38.4524C13.096 37.9529 13.1341 37.4459 13.2704 36.9612C13.4067 36.4766 13.6385 36.0241 13.9522 35.6303C14.2619 35.2387 14.6461 34.9123 15.0827 34.6701C15.5192 34.4279 15.9995 34.2747 16.4956 34.2192L16.926 34.1663C16.9971 34.0331 17.0785 33.9057 17.1694 33.7853C17.4086 33.4809 17.7057 33.227 18.0436 33.0381C18.3815 32.8492 18.7534 32.729 19.1379 32.6846L62.0315 27.6188Z" fill="var(--sapContent_Illustrative_Color7)"/>
<path d="M54.2142 80.5594L53.9708 78.5027L24.9623 81.9352C24.185 82.0257 23.4036 81.8043 22.7892 81.3196C22.1749 80.8349 21.7778 80.1264 21.685 79.3494L16.5557 35.9583C16.5255 35.6639 16.5398 35.3666 16.5981 35.0764C16.6557 34.7568 16.7666 34.4492 16.9261 34.1663L16.4958 34.2192C15.9996 34.2747 15.5193 34.428 15.0828 34.6702C14.6462 34.9124 14.262 35.2387 13.9523 35.6303C13.6386 36.0241 13.4068 36.4766 13.2705 36.9612C13.1342 37.4459 13.0961 37.9529 13.1585 38.4524L18.2878 81.8435C18.3988 82.7681 18.8436 83.6204 19.5387 84.2401C20.2337 84.8599 21.1313 85.2044 22.0625 85.2089C22.2123 85.2082 22.3619 85.1988 22.5105 85.1807L54.2354 81.4307H54.3059L54.2142 80.5594Z" fill="var(--sapContent_Illustrative_Color16)"/>
<path d="M17.1693 33.7853C17.0784 33.9057 16.997 34.0331 16.9259 34.1663C16.7664 34.4492 16.6555 34.7568 16.5978 35.0764C16.5395 35.3666 16.5252 35.6639 16.5555 35.9583L21.6848 79.3494C21.7776 80.1264 22.1747 80.8349 22.789 81.3196C23.4033 81.8043 24.1848 82.0257 24.962 81.9352L53.9705 78.5027L52.7535 68.3076C49.6494 70.2592 46.052 71.2824 42.3855 71.2568C32.7936 71.2568 25.0149 64.5541 25.0149 56.3239C25.0149 48.0937 32.7759 41.391 42.3855 41.391C51.995 41.391 59.756 48.0937 59.756 56.3239C59.7561 57.8358 59.4935 59.3362 58.9799 60.7583L68.7729 59.6012L65.2945 30.2011C65.2502 29.8161 65.1301 29.4436 64.9412 29.1052C64.7523 28.7667 64.4983 28.469 64.1939 28.2291C63.6756 27.8195 63.0341 27.597 62.3736 27.5976C62.2557 27.5977 62.1379 27.6047 62.0208 27.6188L19.1378 32.6881C18.7535 32.7321 18.3817 32.8517 18.0439 33.04C17.706 33.2283 17.4088 33.4816 17.1693 33.7853ZM40.6886 32.5717C41.1178 32.559 41.5452 32.6312 41.9464 32.784C42.3476 32.9368 42.7148 33.1673 43.0268 33.4622C43.3387 33.7572 43.5895 34.1108 43.7645 34.5028C43.9396 34.8948 44.0356 35.3175 44.047 35.7467C44.047 37.4894 42.5442 38.9216 40.6886 38.9216C40.2598 38.9338 39.8327 38.8614 39.4319 38.7083C39.0311 38.5553 38.6644 38.3248 38.3528 38.0299C38.0412 37.735 37.7908 37.3815 37.6159 36.9898C37.4411 36.598 37.3452 36.1756 37.3338 35.7467C37.3456 35.3181 37.4419 34.8961 37.6169 34.5047C37.792 34.1133 38.0424 33.7603 38.354 33.4658C38.6656 33.1712 39.0321 32.941 39.4327 32.7882C39.8333 32.6354 40.2601 32.563 40.6886 32.5753V32.5717Z" fill="var(--sapContent_Illustrative_Color1)"/>
<path d="M40.689 38.8934C42.5446 38.8934 44.0474 37.4823 44.0474 35.7185C44.036 35.2893 43.94 34.8666 43.7649 34.4746C43.5898 34.0825 43.3391 33.7289 43.0271 33.434C42.7151 33.139 42.348 32.9086 41.9468 32.7558C41.5456 32.603 41.1181 32.5308 40.689 32.5435C40.2601 32.5313 39.8331 32.6038 39.4323 32.7568C39.0314 32.9098 38.6647 33.1404 38.3531 33.4353C38.0415 33.7302 37.7911 34.0836 37.6163 34.4754C37.4414 34.8672 37.3455 35.2896 37.3341 35.7185C37.3455 36.1473 37.4414 36.5698 37.6163 36.9615C37.7911 37.3533 38.0415 37.7068 38.3531 38.0017C38.6647 38.2966 39.0314 38.5271 39.4323 38.6801C39.8331 38.8332 40.2601 38.9056 40.689 38.8934ZM41.3945 33.3902C41.5074 33.2244 41.9942 33.3584 42.4775 33.6865C42.9608 34.0146 43.2607 34.4203 43.1478 34.5861C43.0349 34.7519 42.5516 34.6178 42.0648 34.2897C41.578 33.9617 41.271 33.556 41.3839 33.3902H41.3945Z" fill="var(--sapContent_Illustrative_Color3)"/>
<path d="M42.054 34.2897C42.5409 34.6178 43.0242 34.7519 43.137 34.5861C43.2499 34.4203 42.9501 34.0181 42.4668 33.6865C41.9835 33.3549 41.4967 33.2243 41.3838 33.3901C41.2709 33.556 41.5707 33.9581 42.054 34.2897Z" fill="var(--sapContent_Illustrative_Color8)"/>
<path d="M53.3534 63.7709C53.6626 63.3788 54.0467 63.0521 54.4833 62.8098C54.92 62.5675 55.4005 62.4146 55.8969 62.3599L56.3273 62.3069C56.3984 62.1738 56.4798 62.0464 56.5707 61.9259C56.8106 61.6215 57.1083 61.3675 57.4467 61.1786C57.7852 60.9897 58.1576 60.8696 58.5427 60.8253L58.9907 60.7724C59.5043 59.3504 59.7669 57.8499 59.7668 56.338C59.7668 48.0902 52.0058 41.4052 42.3963 41.4052C32.7868 41.4052 25.0258 48.1078 25.0258 56.338C25.0258 64.5682 32.7868 71.2709 42.3963 71.2709C46.0606 71.2903 49.6542 70.2622 52.7537 68.3076L52.5491 66.579C52.4901 66.081 52.5308 65.5762 52.6689 65.0941C52.807 64.612 53.0397 64.1622 53.3534 63.7709ZM39.948 64.0532C39.7871 64.2191 39.5947 64.3513 39.3821 64.4422C39.1695 64.533 38.941 64.5807 38.7098 64.5823C38.4786 64.5807 38.2501 64.533 38.0375 64.4422C37.8249 64.3513 37.6326 64.2191 37.4716 64.0532L32.1447 58.7192C31.8128 58.3921 31.6238 57.947 31.6191 57.481C31.6238 57.015 31.8128 56.5699 32.1447 56.2428C32.4744 55.9196 32.9177 55.7386 33.3794 55.7386C33.8411 55.7386 34.2844 55.9196 34.6141 56.2428L38.7098 60.3385L50.8134 48.2489C50.9734 48.0829 51.1652 47.9509 51.3773 47.8607C51.5894 47.7705 51.8176 47.724 52.0481 47.724C52.2787 47.724 52.5068 47.7705 52.719 47.8607C52.9311 47.9509 53.1229 48.0829 53.2828 48.2489C53.4489 48.4098 53.5813 48.6022 53.6721 48.8148C53.763 49.0274 53.8105 49.256 53.812 49.4872C53.8105 49.7184 53.763 49.947 53.6721 50.1596C53.5813 50.3722 53.4489 50.5646 53.2828 50.7254L39.948 64.0532Z" fill="var(--sapContent_Illustrative_Color8)"/>
<path d="M53.8118 49.4801C53.8104 49.2489 53.7628 49.0203 53.672 48.8077C53.5811 48.5951 53.4488 48.4027 53.2827 48.2419C53.1227 48.0759 52.931 47.9438 52.7188 47.8536C52.5067 47.7634 52.2785 47.7169 52.048 47.7169C51.8175 47.7169 51.5893 47.7634 51.3771 47.8536C51.165 47.9438 50.9732 48.0759 50.8133 48.2419L38.7167 60.3385L34.621 56.2428C34.2913 55.9196 33.848 55.7386 33.3863 55.7386C32.9246 55.7386 32.4813 55.9196 32.1516 56.2428C31.8197 56.5699 31.6307 57.015 31.626 57.481C31.6307 57.947 31.8197 58.3921 32.1516 58.7192L37.4785 64.0532C37.6395 64.2191 37.8318 64.3513 38.0444 64.4422C38.257 64.533 38.4855 64.5806 38.7167 64.5823C38.9479 64.5806 39.1764 64.533 39.389 64.4422C39.6016 64.3513 39.794 64.2191 39.9549 64.0532L53.2897 50.7183C53.4545 50.5569 53.5856 50.3643 53.6752 50.1517C53.7649 49.9391 53.8113 49.7108 53.8118 49.4801Z" fill="var(--sapContent_Illustrative_Color3)"/>
<path d="M99.1042 103.825C99.0555 103.89 98.9875 103.939 98.9098 103.964C98.8321 103.989 98.7486 103.989 98.6708 103.964C98.5931 103.939 98.5251 103.89 98.4763 103.825C98.4275 103.76 98.4004 103.681 98.3987 103.599V91.714L97.5944 91.8163C97.498 91.8259 97.4086 91.8709 97.3434 91.9426C97.2783 92.0142 97.242 92.1075 97.2416 92.2044V95.4605H97.2028L97.0194 105.081C97.0196 105.153 97.0291 105.226 97.0476 105.296C97.0663 105.364 97.0948 105.43 97.1323 105.49C97.2088 105.61 97.316 105.707 97.4427 105.772C97.3435 105.843 97.2398 105.908 97.1323 105.966C96.8059 106.152 96.4464 106.272 96.0739 106.319L95.7705 106.354L94.49 106.506L81.0141 108.1L64.3491 110.069C64.1567 110.088 63.9629 110.088 63.7705 110.069H63.6753C63.5565 110.055 63.4387 110.034 63.3225 110.005C63.2305 109.985 63.1398 109.959 63.0509 109.928C62.9556 109.896 62.8674 109.857 62.7793 109.818C62.4945 109.679 62.2327 109.497 62.0032 109.279L61.9785 109.254C61.8951 109.174 61.8162 109.089 61.7421 109C61.6723 108.913 61.6075 108.822 61.5481 108.728C61.4611 108.6 61.3856 108.464 61.3223 108.323C61.2025 108.051 61.124 107.763 61.0895 107.469L59.3256 92.4795L55.9707 64.0813C55.94 63.7978 55.9518 63.5112 56.006 63.2311C56.006 63.2311 56.006 63.21 56.006 63.1959C56.0359 63.0375 56.0784 62.8818 56.133 62.7302C56.1862 62.5773 56.2535 62.4297 56.3341 62.2892L55.9037 62.3422C55.4075 62.3973 54.9271 62.5504 54.4904 62.7926C54.0538 63.0348 53.6697 63.3614 53.3602 63.7533C53.0466 64.1471 52.8148 64.5996 52.6785 65.0842C52.5422 65.5689 52.5041 66.0759 52.5665 66.5754L52.7711 68.304L53.9776 78.4991L54.221 80.5558L54.3233 81.4166L57.6923 109.984C57.8034 110.911 58.2497 111.764 58.947 112.384C59.6444 113.004 60.5445 113.348 61.4775 113.35C61.6273 113.349 61.7769 113.339 61.9255 113.321L93.6504 109.571C94.192 109.507 94.7136 109.328 95.1798 109.045C95.6461 108.762 96.046 108.382 96.3526 107.931L97.9683 105.56L100.018 102.551L99.1042 103.825Z" fill="var(--sapContent_Illustrative_Color20)"/>
<path d="M55.9954 63.2347C55.9413 63.5147 55.9294 63.8013 55.9602 64.0849L59.315 92.4831L61.0789 107.472C61.1134 107.767 61.1919 108.055 61.3117 108.326C61.375 108.468 61.4506 108.603 61.5375 108.732C61.5969 108.826 61.6617 108.917 61.7315 109.003C61.8057 109.092 61.8846 109.177 61.9679 109.257L61.9926 109.282C62.2255 109.495 62.4896 109.671 62.7757 109.804C62.8639 109.843 62.9521 109.882 63.0474 109.914C63.1363 109.945 63.227 109.971 63.319 109.991C63.4352 110.019 63.553 110.041 63.6718 110.055H63.767C63.9594 110.074 64.1532 110.074 64.3456 110.055L81.0105 108.086L94.4865 106.492L95.767 106.34L96.0704 106.305C96.4428 106.257 96.8024 106.138 97.1287 105.952C97.2362 105.894 97.3399 105.829 97.4392 105.758C97.3124 105.693 97.2053 105.596 97.1287 105.476C97.0913 105.415 97.0628 105.35 97.0441 105.282C97.0256 105.211 97.0161 105.139 97.0158 105.066L97.1993 95.4463L68.9175 97.4113C68.3003 97.4238 67.7001 97.209 67.2311 96.8076C66.762 96.4062 66.457 95.8464 66.374 95.2347L63.6894 77.5749C63.4919 76.2873 64.3138 75.176 65.5238 75.1055L95.8093 72.9889C96.4265 72.9763 97.0268 73.1912 97.4958 73.5926C97.9648 73.9939 98.2698 74.5537 98.3528 75.1655L100.731 90.7051L98.7374 90.9591C98.6407 90.9679 98.5508 91.0126 98.4855 91.0845C98.4202 91.1563 98.3842 91.25 98.3846 91.3471V103.599C98.3863 103.681 98.4134 103.76 98.4622 103.825C98.511 103.89 98.579 103.939 98.6567 103.964C98.7345 103.989 98.818 103.989 98.8957 103.964C98.9734 103.939 99.0414 103.89 99.0901 103.825L100 102.534L108.619 90.3629C108.661 90.302 108.685 90.2303 108.688 90.1562C108.691 90.0821 108.673 90.0086 108.636 89.9443C108.6 89.88 108.545 89.8275 108.479 89.7929C108.414 89.7584 108.34 89.7432 108.266 89.7491C108.322 89.4597 108.333 89.1636 108.301 88.8707L104.692 58.3206C104.6 57.544 104.202 56.8359 103.588 56.3521C103.07 55.9415 102.429 55.7178 101.768 55.7171C101.65 55.7172 101.532 55.7243 101.415 55.7383L68.7658 59.6011L58.9728 60.7582L58.5248 60.8111C58.1398 60.8555 57.7673 60.9756 57.4289 61.1645C57.0904 61.3534 56.7927 61.6073 56.5528 61.9118C56.4619 62.0323 56.3805 62.1596 56.3094 62.2928C56.2289 62.4332 56.1615 62.5808 56.1083 62.7338C56.0537 62.8853 56.0112 63.0411 55.9813 63.1994C55.9813 63.1994 55.9954 63.2241 55.9954 63.2347ZM80.0898 60.6982C81.9454 60.6982 83.4482 62.1093 83.4482 63.8732C83.4368 64.3024 83.3408 64.7251 83.1657 65.1171C82.9906 65.5091 82.7399 65.8627 82.4279 66.1577C82.1159 66.4526 81.7488 66.6831 81.3476 66.8359C80.9464 66.9887 80.519 67.0608 80.0898 67.0482C79.661 67.0604 79.2339 66.9879 78.8331 66.8349C78.4323 66.6819 78.0656 66.4513 77.754 66.1564C77.4423 65.8615 77.1919 65.5081 77.0171 65.1163C76.8422 64.7245 76.7464 64.3021 76.7349 63.8732C76.7464 63.4443 76.8422 63.0219 77.0171 62.6301C77.1919 62.2384 77.4423 61.8849 77.754 61.59C78.0656 61.2951 78.4323 61.0646 78.8331 60.9115C79.2339 60.7585 79.661 60.686 80.0898 60.6982Z" fill="var(--sapContent_Illustrative_Color2)"/>
<path d="M80.09 67.0165C80.5191 67.0291 80.9466 66.957 81.3478 66.8042C81.749 66.6514 82.1161 66.4209 82.4281 66.126C82.7401 65.831 82.9908 65.4774 83.1659 65.0854C83.341 64.6934 83.437 64.2707 83.4484 63.8415C83.4484 62.0988 81.9456 60.6666 80.09 60.6666C79.6611 60.6543 79.2341 60.7268 78.8333 60.8798C78.4324 61.0328 78.0657 61.2634 77.7541 61.5583C77.4425 61.8532 77.1921 62.2067 77.0173 62.5984C76.8424 62.9902 76.7465 63.4126 76.7351 63.8415C76.7465 64.2704 76.8424 64.6928 77.0173 65.0846C77.1921 65.4763 77.4425 65.8298 77.7541 66.1247C78.0657 66.4196 78.4324 66.6502 78.8333 66.8032C79.2341 66.9562 79.6611 67.0287 80.09 67.0165ZM80.7955 61.5132C80.9119 61.3474 81.3952 61.4779 81.8785 61.8095C82.3618 62.1411 82.6617 62.5433 82.5488 62.7091C82.4359 62.8749 81.9526 62.7409 81.4693 62.4128C80.986 62.0847 80.6721 61.679 80.7849 61.5132H80.7955Z" fill="var(--sapContent_Illustrative_Color3)"/>
<path d="M81.4589 62.4128C81.9422 62.7409 82.4255 62.8749 82.5383 62.7091C82.6512 62.5433 82.3514 62.1376 81.8681 61.8095C81.3848 61.4815 80.9015 61.3474 80.7851 61.5132C80.6687 61.679 80.9756 62.0812 81.4589 62.4128Z" fill="var(--sapContent_Illustrative_Color8)"/>
<path d="M98.734 90.9591L100.727 90.7051L98.3601 75.162C98.2771 74.5503 97.9721 73.9904 97.5031 73.5891C97.034 73.1877 96.4338 72.9728 95.8166 72.9854L65.5311 75.102C64.3211 75.1867 63.4991 76.2979 63.6967 77.5714L66.3848 95.2488C66.4678 95.8605 66.7728 96.4204 67.2418 96.8217C67.7109 97.2231 68.3111 97.438 68.9283 97.4255L97.203 95.464H97.2383V92.2079C97.2387 92.1111 97.275 92.0178 97.3401 91.9461C97.4053 91.8745 97.4947 91.8295 97.5911 91.8199L98.3954 91.7176V91.3648C98.3902 91.2669 98.4222 91.1707 98.485 91.0954C98.5478 91.0202 98.6368 90.9715 98.734 90.9591ZM87.59 83.9425L82.7393 88.8178L79.3704 92.1832C79.2094 92.3492 79.017 92.4814 78.8044 92.5723C78.5918 92.6631 78.3633 92.7107 78.1321 92.7124C77.6656 92.7067 77.2204 92.5164 76.8939 92.1832L74.3998 89.6891L71.5776 86.8493C71.2457 86.5222 71.0567 86.0771 71.052 85.6111C71.0542 85.458 71.0779 85.306 71.1225 85.1596C71.2037 84.8624 71.3605 84.5913 71.5776 84.3729C71.9073 84.0497 72.3506 83.8687 72.8123 83.8687C73.274 83.8687 73.7173 84.0497 74.047 84.3729L74.4809 84.8068L78.118 88.465L82.6335 83.9495L86.828 79.7551L90.2146 76.3685C90.3743 76.202 90.566 76.0695 90.7782 75.979C90.9903 75.8886 91.2186 75.8419 91.4493 75.8419C91.68 75.8419 91.9083 75.8886 92.1204 75.979C92.3326 76.0695 92.5243 76.202 92.684 76.3685C92.8501 76.5293 92.9824 76.7217 93.0733 76.9343C93.1641 77.1469 93.2117 77.3755 93.2132 77.6067C93.2117 77.8379 93.1641 78.0665 93.0733 78.2791C92.9824 78.4917 92.8501 78.6841 92.684 78.8449L92.3524 79.1765L87.59 83.9425Z" fill="var(--sapContent_Illustrative_Color8)"/>
<path d="M93.22 77.6032C93.2186 77.372 93.171 77.1434 93.0801 76.9308C92.9893 76.7182 92.8569 76.5258 92.6909 76.3649C92.5312 76.1985 92.3395 76.066 92.1273 75.9755C91.9151 75.8851 91.6868 75.8384 91.4562 75.8384C91.2255 75.8384 90.9972 75.8851 90.785 75.9755C90.5728 76.066 90.3811 76.1985 90.2215 76.3649L86.8348 79.7515L82.6333 83.946L78.1178 88.465L74.456 84.8033L74.0221 84.3694C73.6924 84.0462 73.2491 83.8651 72.7874 83.8651C72.3257 83.8651 71.8824 84.0462 71.5527 84.3694C71.3356 84.5878 71.1788 84.8589 71.0977 85.156C71.053 85.3025 71.0293 85.4545 71.0271 85.6076C71.0319 86.0736 71.2208 86.5187 71.5527 86.8458L74.3749 89.6856L76.869 92.1797C77.1955 92.5129 77.6408 92.7032 78.1072 92.7089C78.3384 92.7072 78.5669 92.6596 78.7795 92.5687C78.9921 92.4779 79.1845 92.3457 79.3455 92.1797L82.7391 88.8178L87.6039 83.9496L92.3734 79.1801L92.705 78.8485C92.8693 78.6856 92.9996 78.4915 93.088 78.2777C93.1765 78.0639 93.2213 77.8346 93.22 77.6032Z" fill="var(--sapContent_Illustrative_Color3)"/>
</svg>
