<svg width="160" height="160" viewBox="0 0 160 160" fill="none" xmlns="http://www.w3.org/2000/svg" id="sapIllus-Dialog-UnableToLoad">
<rect y="50" width="160" height="69" rx="12" fill="var(--sapContent_Illustrative_Color20)"/>
<g clip-path="url(#clip0_6879_7410)">
<path d="M83.5846 111.776L86.6664 111.993L127.961 94.3054L88.3854 77.3765L32.6338 87.0402C31.2632 87.311 29.9236 87.7907 32.3008 88.9126L81.3313 111.196C82.2372 111.606 82.6012 111.699 83.5846 111.776Z" fill="var(--sapContent_Illustrative_Color21)"/>
<path d="M52.6657 95.2106L52.7122 96.8122C52.7122 96.8819 52.7586 96.9515 52.8283 96.9824L84.2196 111.474C84.2196 111.474 86.7206 112.642 89.1753 111.474C92.6365 109.826 134.396 92.0539 134.396 92.0539C134.396 92.0539 134.969 91.8759 134.985 91.2492C135 90.6225 134.985 89.9648 134.985 89.9648L52.658 95.2106H52.6657Z" fill="var(--sapContent_Illustrative_Color29)"/>
<path d="M59.2629 92.8894L59.1157 92.9359L58.7131 93.0519L58.1091 93.2299L57.3658 93.4465L56.5295 93.6941L55.67 93.9417L54.8337 94.1893C54.5859 94.2589 52.8282 94.8392 52.8282 94.8392C52.6501 94.9243 52.6501 95.3499 52.7043 95.5046C52.743 95.6052 52.8127 95.6903 52.9134 95.7367C53.3315 95.9534 85.621 109.965 85.621 109.965C85.621 109.965 87.371 110.785 89.934 109.509C92.0014 108.48 111.197 100.441 111.197 100.441L134.349 90.7385C134.349 90.7385 136.417 89.7172 132.979 89.2298L103.121 81.6241C103.121 81.6241 101.742 81.1444 99.7215 81.5777C97.7082 82.011 59.2706 92.8894 59.2706 92.8894H59.2551H59.2629Z" fill="var(--sapContent_Illustrative_Color9)"/>
<path d="M71.2729 92.2163C71.6058 91.4271 72.1556 90.2278 72.8602 89.0518C65.3802 91.164 59.2553 92.8894 59.2553 92.8894C59.2088 92.9049 59.1546 92.9203 59.1082 92.9358C58.9765 92.9745 58.8372 93.0132 58.7055 93.0519C58.5042 93.1138 58.3029 93.1679 58.1015 93.2298C57.8538 93.2995 57.5982 93.3768 57.3582 93.4465L56.5219 93.6941C56.2354 93.7792 55.9489 93.8565 55.6624 93.9416C55.3836 94.019 55.1049 94.1041 54.8261 94.1892C54.5783 94.2589 52.8206 94.8392 52.8206 94.8392C52.6425 94.9243 52.6425 95.3498 52.6967 95.5046C52.7354 95.6051 52.8051 95.6902 52.9058 95.7367C53.1226 95.8527 62.2907 99.8451 70.8702 103.567C69.941 99.7987 69.7707 95.8063 71.2883 92.2163H71.2729Z" fill="var(--sapContent_Illustrative_Color17)"/>
<path d="M52.7353 95.3961L100.449 81.624C100.449 81.624 100.929 81.6627 100.798 80.0224C100.666 78.3821 96.5236 44.6636 96.5236 44.6636C96.5236 44.6636 96.3455 43.0233 94.4484 43.0001C92.5512 42.9846 47.2453 45.4141 47.2453 45.4141C47.2453 45.4141 44.7752 45.6307 45.0617 48.3774C45.3405 51.1241 51.2408 93.0827 51.2408 93.0827C51.2408 93.0827 51.7442 95.3652 52.7353 95.3884V95.3961Z" fill="var(--sapContent_Illustrative_Color9)"/>
<path d="M79.1943 85.0127C72.8757 84.6258 66.4178 83.3801 60.8504 80.2234C55.3062 77.0898 53.5253 71.7589 51.4811 65.7394C49.762 60.7102 48.2908 54.1027 48.6006 50.6984C49.0264 48.8414 49.5994 47.0309 50.2344 45.2437C48.345 45.3442 47.2377 45.4061 47.2377 45.4061C47.2377 45.4061 44.7676 45.6228 45.0541 48.3695C45.3329 51.1162 51.2333 93.0748 51.2333 93.0748C51.2333 93.0748 51.4423 95.3727 52.7277 95.3805L88.9121 84.9353C85.6754 85.1519 82.4232 85.1906 79.1788 84.9972V85.0127H79.1943Z" fill="var(--sapContent_Illustrative_Color17)"/>
<path d="M47.2222 48.4702L53.1922 89.9723L99.1331 78.2737L95.3234 45.3057L47.2222 48.4702Z" fill="var(--sapContent_Illustrative_Color8)"/>
<path d="M104.995 100.348L118.507 94.7695C118.894 94.607 118.809 93.9107 118.383 93.8178L109.935 92.0073C109.602 91.9377 109.277 91.9609 108.975 92.0615L92.6132 97.7715C92.4893 97.8179 92.5202 98.0423 92.6674 98.0732L100 100.456C101.719 101.013 103.461 100.975 104.995 100.34V100.356V100.348Z" fill="var(--sapContent_Illustrative_Color27)"/>
<path d="M92.6134 97.9649C92.4662 97.9185 92.4275 97.6864 92.5514 97.6322L108.789 92.0692C109.199 91.9299 109.633 91.9067 110.074 91.9996L118.352 93.8023C118.46 93.8255 118.584 93.8874 118.67 94.019C118.731 94.1118 118.762 94.2201 118.762 94.3284V94.3594L109.974 92.3168C109.602 92.2471 109.223 92.2781 108.874 92.3942L92.6134 97.9572V97.9417V97.9649Z" fill="var(--sapContent_Illustrative_Color17)"/>
<path d="M104.972 90.3745L107.333 90.978C107.442 91.009 107.473 91.1947 107.372 91.2256L105.173 91.9065H105.126L102.672 91.2798C102.563 91.2488 102.525 91.0631 102.633 91.0322L104.925 90.3823H104.972V90.3745Z" fill="var(--sapContent_Illustrative_Color17)"/>
<path d="M109.068 89.2139L111.329 89.7477C111.445 89.7787 111.468 89.9644 111.367 89.9953L108.626 90.8464H108.58L106.28 90.2661C106.172 90.2352 106.141 90.0495 106.241 90.0185L109.037 89.2216H109.083L109.068 89.2139Z" fill="var(--sapContent_Illustrative_Color17)"/>
<path d="M82.8955 96.6729L86.0548 97.64C86.14 97.6632 86.1632 97.7947 86.0935 97.8102L83.3291 98.6613H83.2827L80.1312 97.6323C80.0537 97.609 80.0228 97.4698 80.0847 97.462L82.8491 96.6729H82.8955Z" fill="var(--sapContent_Illustrative_Color17)"/>
<path d="M103.903 92.046L101.386 91.4038H101.34L98.9628 92.0847L83.9253 96.3711C83.8324 96.3943 83.8711 96.5568 83.9718 96.5877L87.0072 97.5162H87.0536L102.114 92.8584L103.934 92.2936C104.035 92.2626 104.004 92.0769 103.895 92.046H103.903Z" fill="var(--sapContent_Illustrative_Color17)"/>
<path d="M68.3457 96.5645L66.4795 97.0983H66.4176L64.7296 96.5567C64.5902 96.5103 64.536 96.3091 64.6444 96.2705L66.557 95.7134H66.6189L68.2605 96.2705C68.3921 96.3169 68.4541 96.518 68.3379 96.5567L68.3457 96.5645Z" fill="var(--sapContent_Illustrative_Color17)"/>
<path d="M74.4475 98.6224L72.7595 99.1098H72.6976L70.723 98.4831C70.5836 98.4367 70.5372 98.2355 70.6456 98.2046L72.3956 97.7017H72.4653L74.3856 98.3516C74.5172 98.398 74.5714 98.5992 74.4553 98.6301H74.4398V98.6146L74.4475 98.6224Z" fill="var(--sapContent_Illustrative_Color17)"/>
<path d="M71.2959 97.5546L69.5149 98.0652H69.453L67.6798 97.5004C67.5404 97.454 67.4862 97.2528 67.6024 97.2141L69.4375 96.688H69.4995L71.2185 97.276C71.3501 97.3224 71.4043 97.5236 71.2959 97.5623V97.5546Z" fill="var(--sapContent_Illustrative_Color17)"/>
<path d="M79.1865 97.7323L82.2451 98.7304C82.369 98.7769 82.3999 98.9471 82.2993 98.978L79.8059 99.744H79.744L76.6467 98.6918C76.5228 98.6453 76.4841 98.4751 76.5847 98.4442L79.1168 97.7246H79.1787L79.1865 97.7323Z" fill="var(--sapContent_Illustrative_Color17)"/>
<path d="M113.203 88.0225L115.905 88.5873L112.637 89.6008L109.919 88.9587L113.203 88.0225Z" fill="var(--sapContent_Illustrative_Color17)"/>
<path d="M76.7628 92.2862L75.2683 91.8684C75.1522 91.8298 75.1057 91.6518 75.2064 91.6286L77.4984 90.9941H77.5449L79.0161 91.3887C79.1322 91.4197 79.1787 91.6054 79.0703 91.6286L76.8015 92.2785H76.7551H76.7705L76.7628 92.2862Z" fill="var(--sapContent_Illustrative_Color17)"/>
<path d="M73.2627 93.2917L71.8302 92.8506C71.6985 92.8042 71.6443 92.5953 71.7605 92.5721L73.9983 91.9531H74.0525L75.485 92.3632C75.6166 92.4019 75.6786 92.6185 75.5547 92.6417L73.3091 93.2917H73.2472H73.2627Z" fill="var(--sapContent_Illustrative_Color17)"/>
<path d="M72.8523 95.2413L71.1488 94.6765C71.0171 94.6301 70.9629 94.4289 71.0791 94.398L73.3246 93.748H73.3866L75.1675 94.2897C75.2992 94.3361 75.3534 94.5372 75.2372 94.5682L72.922 95.2336H72.8523V95.2413Z" fill="var(--sapContent_Illustrative_Color17)"/>
<path d="M80.2396 91.2724L78.8071 90.8855C78.6909 90.8546 78.6445 90.6689 78.7529 90.6379L81.0217 90.0112H81.0681L82.4464 90.3826C82.5626 90.4136 82.6013 90.5993 82.5006 90.6302L80.286 91.2647H80.2396V91.2724Z" fill="var(--sapContent_Illustrative_Color17)"/>
<path d="M63.4367 96.1463L61.8028 95.6202C61.6712 95.5738 61.6093 95.3726 61.7177 95.3494L63.7774 94.7769H63.8471L65.3957 95.303C65.5274 95.3494 65.5816 95.5506 65.4732 95.5815L63.5064 96.1541H63.4444L63.4367 96.1463Z" fill="var(--sapContent_Illustrative_Color17)"/>
<path d="M83.6777 90.2818L82.191 89.8795C82.1136 89.8563 82.0749 89.7247 82.1523 89.7015L84.5682 89.0361H84.5992L86.0549 89.4153C86.1324 89.4385 86.1711 89.57 86.0936 89.5932L83.7087 90.2818H83.6777Z" fill="var(--sapContent_Illustrative_Color17)"/>
<path d="M66.4875 95.2571L64.9698 94.7465C64.8381 94.7001 64.7839 94.4989 64.8923 94.4679L67.1921 93.8335H67.2618L68.7562 94.3209C68.8879 94.3674 68.9421 94.5685 68.8337 94.5995L66.5649 95.2571H66.4952H66.4875Z" fill="var(--sapContent_Illustrative_Color17)"/>
<path d="M69.8866 94.2743L68.4231 93.7946C68.2915 93.7482 68.2373 93.547 68.3457 93.5161L70.5448 92.9126H70.6067L72.0702 93.3613C72.2019 93.4078 72.2561 93.6089 72.1399 93.6399L69.9486 94.2821H69.8789V94.2666L69.8866 94.2743Z" fill="var(--sapContent_Illustrative_Color17)"/>
<path d="M111.739 87.7211L109.037 87.1562H108.99L105.111 87.2646C105.01 87.2955 105.111 87.7443 105.219 87.7675L109.013 88.7346H109.06L111.762 87.9609C111.871 87.93 111.84 87.7288 111.724 87.7056V87.7211H111.739Z" fill="var(--sapContent_Illustrative_Color17)"/>
<path d="M99.3268 86.22L101.503 85.5933H101.549L103.849 86.073C103.973 86.0962 104.004 86.2973 103.895 86.3283L101.603 86.9937H101.557L99.381 86.483C99.2572 86.4521 99.2262 86.2587 99.3346 86.2277H99.3191L99.3268 86.22Z" fill="var(--sapContent_Illustrative_Color17)"/>
<path d="M96.8644 85.6394L98.9629 85.0591H99.0016L100.016 85.2757C100.14 85.2989 100.171 85.5078 100.062 85.5388L97.9795 86.1423H97.933L96.9031 85.9024C96.7792 85.8715 96.7405 85.6781 96.8567 85.6471L96.8644 85.6394Z" fill="var(--sapContent_Illustrative_Color17)"/>
<path d="M90.7085 88.2316L89.5316 87.9299C89.4077 87.8989 89.369 87.7055 89.4851 87.6746L91.7616 87.0479H91.8081L92.9309 87.3341C93.0548 87.3651 93.0857 87.5585 92.9773 87.5895L90.755 88.2316H90.7085Z" fill="var(--sapContent_Illustrative_Color17)"/>
<path d="M87.2006 89.2606L85.7836 88.8892C85.7061 88.866 85.6674 88.7345 85.7448 88.7113L88.1607 88.0459H88.1917L89.5623 88.4018C89.6397 88.425 89.6707 88.5565 89.601 88.5798L87.2316 89.2606H87.1928H87.2006Z" fill="var(--sapContent_Illustrative_Color17)"/>
<path d="M94.2471 87.2098L93.163 86.939C93.0391 86.9081 93.0082 86.7146 93.1166 86.6837L95.455 86.0415H95.5015L96.5623 86.2891C96.6862 86.32 96.7249 86.5135 96.6088 86.5444L94.2935 87.2176H94.2471V87.2098Z" fill="var(--sapContent_Illustrative_Color17)"/>
<path d="M78.7606 100.077L77.2429 100.542H77.181L73.9288 99.5048C73.7972 99.4584 73.743 99.265 73.8591 99.2263L75.5317 98.7466H75.5936L78.6909 99.7988C78.8226 99.8453 78.8613 100.039 78.7606 100.07V100.077Z" fill="var(--sapContent_Illustrative_Color17)"/>
<path d="M97.6077 90.4369L100.186 91.0869C100.264 91.1101 100.287 91.2416 100.209 91.2648L97.7238 91.9766H97.6929L95.1531 91.319C95.0756 91.2958 95.0524 91.1642 95.1221 91.141L97.5767 90.4292H97.6077V90.4369Z" fill="var(--sapContent_Illustrative_Color17)"/>
<path d="M94.0225 91.4731L96.57 92.1308C96.6475 92.154 96.6707 92.2855 96.601 92.3088L94.0148 93.0438H93.9838L91.4982 92.3784C91.4208 92.3552 91.3898 92.2236 91.4672 92.2004L94.007 91.4731H94.038H94.0225Z" fill="var(--sapContent_Illustrative_Color17)"/>
<path d="M101.17 89.4229L103.617 90.0418C103.725 90.0728 103.756 90.2585 103.655 90.2894L101.371 90.9393H101.325L98.8932 90.3204C98.777 90.2894 98.746 90.1037 98.8544 90.0728L101.123 89.4229H101.17Z" fill="var(--sapContent_Illustrative_Color17)"/>
<path d="M107.55 86.8467L105.359 86.3979H105.312L103.508 86.9163L99.0558 88.193C98.9551 88.2239 98.9861 88.4173 99.1022 88.4483L101.123 88.959H101.17L105.901 87.5972L107.597 87.1098C107.705 87.0788 107.674 86.8777 107.55 86.8544V86.8467Z" fill="var(--sapContent_Illustrative_Color17)"/>
<path d="M90.3832 92.5258L92.7372 93.1525C92.8456 93.1835 92.8843 93.3614 92.7836 93.3924L90.5458 94.0268H90.4993L88.1686 93.4001C88.0525 93.3692 88.0215 93.1912 88.1222 93.1603L90.3522 92.5181H90.3987L90.3832 92.5258Z" fill="var(--sapContent_Illustrative_Color17)"/>
<path d="M105.111 88.2856L107.666 88.8813C107.782 88.9123 107.813 89.098 107.705 89.1289L104.971 89.9104H104.925L102.478 89.2914C102.362 89.2605 102.331 89.0748 102.439 89.0438L105.072 88.2778H105.119L105.111 88.2856Z" fill="var(--sapContent_Illustrative_Color17)"/>
<path d="M74.7959 96.5565L72.4032 97.2451H72.3413L70.6068 96.6493C70.4752 96.6029 70.421 96.4095 70.5371 96.3708L72.9065 95.6899H72.9685L74.7262 96.2702C74.8579 96.3167 74.9043 96.5101 74.7959 96.541V96.5565Z" fill="var(--sapContent_Illustrative_Color17)"/>
<path d="M83.3137 94.5605L85.4973 95.1717C85.6289 95.2104 85.6754 95.4193 85.5592 95.4425L82.8723 96.2085H82.8104L80.7352 95.574C80.6035 95.5276 80.5571 95.3264 80.6732 95.2955L83.2595 94.5527H83.3214L83.3137 94.5605Z" fill="var(--sapContent_Illustrative_Color17)"/>
<path d="M91.7694 90.2741L94.1853 89.5854H94.2163L96.3844 90.1425C96.4696 90.1657 96.4928 90.305 96.4154 90.3282L93.9917 91.0323H93.9607L91.8081 90.4752C91.7229 90.452 91.6997 90.3205 91.7771 90.2895V90.2741H91.7694Z" fill="var(--sapContent_Illustrative_Color17)"/>
<path d="M95.5867 87.3029L97.9562 86.6221H98.0026L100.178 87.1327C100.302 87.1637 100.333 87.3571 100.225 87.388L97.7703 88.0921H97.7239L95.6254 87.5583C95.5015 87.5273 95.4706 87.3339 95.579 87.3029H95.5945H95.5867Z" fill="var(--sapContent_Illustrative_Color17)"/>
<path d="M71.7916 95.574L69.4531 96.2471H69.3912L67.7264 95.6823C67.5947 95.6359 67.5405 95.4347 67.6489 95.4115L69.9487 94.7461H70.0184L71.7219 95.3109C71.8535 95.3573 71.9077 95.5585 71.7916 95.5817V95.574Z" fill="var(--sapContent_Illustrative_Color17)"/>
<path d="M79.5503 95.6436L81.6255 96.278C81.7571 96.3244 81.8036 96.5179 81.6875 96.5565L79.1399 97.2916H79.078L77.0802 96.6416C76.9486 96.5952 76.9021 96.4018 77.0105 96.3708L79.4806 95.659H79.5426L79.5503 95.6436Z" fill="var(--sapContent_Illustrative_Color17)"/>
<path d="M78.0172 97.6009L75.5471 98.3127H75.4851L73.5338 97.6551C73.4022 97.6086 73.3557 97.4152 73.4641 97.3843L75.8878 96.6802H75.9497L77.9475 97.3301C78.0791 97.3765 78.1256 97.57 78.0172 97.6009Z" fill="var(--sapContent_Illustrative_Color17)"/>
<path d="M86.9529 93.5156L89.2914 94.1423C89.3998 94.1733 89.4385 94.3512 89.3379 94.3745L86.7826 95.1017H86.7361L84.4673 94.4596C84.3512 94.4209 84.3125 94.2507 84.4209 94.2274L86.9065 93.5156H86.9529Z" fill="var(--sapContent_Illustrative_Color17)"/>
<path d="M81.1919 93.3146L83.6001 92.626H83.6465L85.6598 93.1676C85.7759 93.1985 85.8146 93.3765 85.7062 93.4074L83.2594 94.1115H83.2129L81.2461 93.5544C81.13 93.5157 81.0912 93.3455 81.1919 93.3146Z" fill="var(--sapContent_Illustrative_Color17)"/>
<path d="M77.5756 94.3593L80.0225 93.6475H80.0844L81.966 94.1813C82.0977 94.22 82.1519 94.4289 82.028 94.4599L79.5037 95.1872H79.4417L77.6376 94.6301C77.5059 94.5837 77.4517 94.3825 77.5679 94.3515L77.5756 94.3593Z" fill="var(--sapContent_Illustrative_Color17)"/>
<path d="M84.8081 92.2779L87.0381 91.6357H87.0846L89.0978 92.1773C89.214 92.2083 89.245 92.3862 89.1443 92.4172L86.9297 93.0594H86.8833L84.8777 92.5178C84.7616 92.4868 84.7229 92.3089 84.8313 92.2779H84.8158H84.8081Z" fill="var(--sapContent_Illustrative_Color17)"/>
<path d="M88.1455 91.3188L90.6311 90.6069H90.6621L92.8302 91.1717C92.9076 91.195 92.9386 91.3265 92.8612 91.3497L90.3523 92.0693H90.3214L88.1842 91.4967C88.1068 91.4735 88.0758 91.342 88.1455 91.3188Z" fill="var(--sapContent_Illustrative_Color17)"/>
<path d="M94.162 89.1135L92.0945 88.5874C91.9784 88.5564 91.9397 88.363 92.0481 88.3321L94.2859 87.6821H94.3324L96.4308 88.216C96.5547 88.2469 96.5856 88.4404 96.4772 88.4713L94.2317 89.1212H94.1775L94.162 89.1135Z" fill="var(--sapContent_Illustrative_Color17)"/>
<path d="M74.0216 95.3728L76.3833 94.6919H76.4452L78.2649 95.2567C78.3965 95.3031 78.4507 95.5043 78.3346 95.5275L75.9187 96.2239H75.8567L74.099 95.6436C73.9674 95.5971 73.9209 95.396 74.0293 95.365L74.0216 95.3728Z" fill="var(--sapContent_Illustrative_Color17)"/>
<path d="M99.8535 89.3304L97.6002 89.9804H97.5537L95.525 89.462C95.4088 89.431 95.3701 89.2453 95.4785 89.2144L97.7318 88.5645H97.7783L99.807 89.0751C99.9231 89.1061 99.9541 89.2917 99.8457 89.3227H99.8612L99.8535 89.3304Z" fill="var(--sapContent_Illustrative_Color17)"/>
<path d="M87.0072 91.1792L84.8546 90.5989C84.7772 90.5757 84.7385 90.4442 84.8159 90.421L87.2318 89.7246H87.2628L89.4619 90.2972C89.5393 90.3204 89.5703 90.4519 89.5006 90.4751L87.046 91.1792H87.015H87.0072Z" fill="var(--sapContent_Illustrative_Color17)"/>
<path d="M83.5614 92.1698L81.5559 91.6359C81.4398 91.605 81.401 91.4193 81.5017 91.3961L83.7163 90.7539H83.7627L85.776 91.2955C85.8921 91.3265 85.9309 91.5121 85.8225 91.5354L83.6079 92.1775H83.5537L83.5614 92.1698Z" fill="var(--sapContent_Illustrative_Color17)"/>
<path d="M90.6077 90.1428L88.2692 89.5316C88.215 89.5161 88.1995 89.4387 88.2537 89.431L90.747 88.7114H90.8012L93.1552 89.3149C93.2017 89.3304 93.2249 89.4078 93.1707 89.4155L90.6386 90.1428H90.6154H90.6077Z" fill="var(--sapContent_Illustrative_Color17)"/>
<path d="M79.984 93.1914L78.0327 92.6421C77.9165 92.6034 77.8701 92.4332 77.9785 92.4022L80.286 91.7368H80.3324L82.3379 92.2707C82.4541 92.3016 82.4928 92.4796 82.3921 92.5105L80.0304 93.1914H79.984Z" fill="var(--sapContent_Illustrative_Color17)"/>
<path d="M76.3446 94.2434L74.5714 93.7017C74.4398 93.6553 74.3856 93.4542 74.5017 93.4232L76.8169 92.7578H76.8789L78.7373 93.2839C78.8689 93.3226 78.9231 93.5315 78.807 93.5625L76.422 94.2511H76.3601L76.3446 94.2434Z" fill="var(--sapContent_Illustrative_Color17)"/>
<path d="M104.94 90.1582L107.302 90.7617C107.411 90.7926 107.442 90.9783 107.341 91.0093L105.134 91.6902H105.088L102.633 91.0634C102.525 91.0325 102.486 90.8468 102.594 90.8159L104.894 90.1659H104.94V90.1582Z" fill="var(--sapContent_Illustrative_Color27)"/>
<path d="M109.037 88.9819L111.298 89.5158C111.414 89.5467 111.437 89.7324 111.337 89.7634L108.588 90.6145H108.541L106.242 90.0264C106.133 89.9955 106.102 89.8098 106.203 89.7789L108.99 88.9819H109.037Z" fill="var(--sapContent_Illustrative_Color27)"/>
<path d="M82.8488 96.4487L86.0081 97.4158C86.0933 97.439 86.1165 97.5705 86.0468 97.586L83.2824 98.4371H83.236L80.0767 97.4003C79.9993 97.3771 79.9683 97.2378 80.0303 97.2301L82.7946 96.4409H82.8488V96.4487Z" fill="var(--sapContent_Illustrative_Color27)"/>
<path d="M103.872 91.8214L101.355 91.1792H101.309L100.248 91.4809L99.6751 91.6434L98.9318 91.8601L95.9274 92.7189L91.9396 93.8563L89.0978 94.6687C89.0978 94.6687 88.5171 94.7692 86.7439 95.3418L83.8943 96.1542C83.8014 96.1774 83.8401 96.3399 83.9408 96.3708L86.9762 97.2993H87.0226L92.2416 95.6822L94.6807 94.9317L97.9871 93.9027L102.494 92.5023L103.918 92.069C104.019 92.038 103.988 91.8523 103.88 91.8214H103.872Z" fill="var(--sapContent_Illustrative_Color27)"/>
<path d="M68.2839 96.3477L66.4178 96.8815H66.3558L64.6678 96.3399C64.5284 96.2935 64.4742 96.0923 64.5826 96.0537L66.4952 95.4966H66.5649L68.2065 96.0537C68.3381 96.1001 68.4001 96.3012 68.2839 96.3399V96.3477Z" fill="var(--sapContent_Illustrative_Color27)"/>
<path d="M74.3933 98.406L72.7053 98.8934H72.6434L70.6688 98.259C70.5294 98.2126 70.483 98.0114 70.5914 97.9804L72.3414 97.4775H72.4111L74.3391 98.1275C74.4708 98.1739 74.525 98.375 74.4088 98.406H74.3933Z" fill="var(--sapContent_Illustrative_Color27)"/>
<path d="M71.2417 97.3456L69.4607 97.8562H69.3988L67.6256 97.2914C67.4862 97.245 67.432 97.0438 67.5482 97.0051L69.3833 96.479H69.4453L71.1643 97.067C71.2959 97.1134 71.3501 97.3146 71.2417 97.3533V97.3456Z" fill="var(--sapContent_Illustrative_Color27)"/>
<path d="M79.1322 97.516L82.1908 98.5141C82.3147 98.5605 82.3457 98.7307 82.245 98.7616L79.7517 99.5276H79.6897L76.5847 98.4754C76.4608 98.4289 76.4221 98.2587 76.5227 98.2278L79.0548 97.5005H79.1245V97.516H79.1322Z" fill="var(--sapContent_Illustrative_Color27)"/>
<path d="M113.18 87.7905L115.89 88.3553L112.614 89.3689L109.889 88.7267L113.172 87.7905H113.18Z" fill="var(--sapContent_Illustrative_Color27)"/>
<path d="M76.7086 92.0533L75.2141 91.6355C75.098 91.5968 75.0515 91.4189 75.1522 91.3957L77.4442 90.7612H77.4907L78.9696 91.1558C79.0858 91.1868 79.1322 91.3725 79.0238 91.3957L76.7551 92.0533H76.7086Z" fill="var(--sapContent_Illustrative_Color27)"/>
<path d="M73.2087 93.067L71.7762 92.626C71.6446 92.5796 71.5904 92.3707 71.7065 92.3475L73.9521 91.7285H74.0063L75.4388 92.1386C75.5704 92.1773 75.6324 92.3939 75.5085 92.4171L73.2552 93.067H73.1932H73.2087Z" fill="var(--sapContent_Illustrative_Color27)"/>
<path d="M72.7905 95.0328L71.087 94.468C70.9554 94.4216 70.9012 94.2204 71.0173 94.1895L73.2629 93.5396H73.3248L75.1058 94.0811C75.2374 94.1276 75.2916 94.3287 75.1755 94.3597L72.8602 95.0328H72.7905Z" fill="var(--sapContent_Illustrative_Color27)"/>
<path d="M80.1853 91.0478L78.7451 90.6609C78.6289 90.63 78.5825 90.4443 78.6909 90.4133L80.9596 89.7866H81.0061L82.3844 90.158C82.5006 90.189 82.5393 90.3746 82.4386 90.4056L80.224 91.0478H80.1776H80.1853Z" fill="var(--sapContent_Illustrative_Color27)"/>
<path d="M63.3747 95.9222L61.7408 95.3961C61.6092 95.3497 61.5472 95.1485 61.6556 95.1253L63.7231 94.5527H63.7928L65.3414 95.0789C65.4731 95.1253 65.5273 95.3265 65.4189 95.3497L63.4521 95.9222H63.3824H63.3747Z" fill="var(--sapContent_Illustrative_Color27)"/>
<path d="M83.6233 90.0576L82.1366 89.6553C82.0592 89.6321 82.0204 89.5005 82.0979 89.4773L84.5215 88.8042H84.5525L86.0082 89.1833C86.0857 89.2065 86.1244 89.3381 86.0469 89.3613L83.662 90.0499H83.6233V90.0576Z" fill="var(--sapContent_Illustrative_Color27)"/>
<path d="M66.4254 95.0325L64.9078 94.5219C64.7761 94.4754 64.7219 94.2743 64.8303 94.2433L67.1301 93.6089H67.1998L68.6942 94.1041C68.8259 94.1505 68.8801 94.3517 68.7717 94.3826L66.5029 95.048H66.4332V95.0325H66.4254Z" fill="var(--sapContent_Illustrative_Color27)"/>
<path d="M69.8246 94.0497L68.3611 93.57C68.2295 93.5236 68.1753 93.3224 68.2837 93.2915L70.4828 92.688H70.5447L72.0082 93.1367C72.1398 93.1832 72.194 93.3843 72.0779 93.4153L69.8788 94.0575H69.8091L69.8246 94.042V94.0497Z" fill="var(--sapContent_Illustrative_Color27)"/>
<path d="M99.288 85.9876L101.464 85.3608H101.51L103.81 85.8405C103.934 85.8638 103.965 86.0649 103.857 86.0959L101.565 86.7613H101.518L99.3422 86.2506C99.2183 86.2197 99.1874 86.0262 99.2958 85.9953H99.2803L99.288 85.9876Z" fill="var(--sapContent_Illustrative_Color27)"/>
<path d="M96.8333 85.4074L98.9318 84.8271H98.9705L99.9849 85.0438C100.109 85.067 100.14 85.2759 100.031 85.3069L97.9406 85.9103H97.8942L96.8643 85.6705C96.7404 85.6396 96.7017 85.4461 96.8179 85.4074H96.8333Z" fill="var(--sapContent_Illustrative_Color27)"/>
<path d="M90.6698 88.007L89.485 87.7052C89.3612 87.6743 89.3302 87.4808 89.4386 87.4499L91.7229 86.8154H91.7693L92.8921 87.1017C93.016 87.1327 93.047 87.3261 92.9386 87.357L90.7162 88.007H90.6698Z" fill="var(--sapContent_Illustrative_Color27)"/>
<path d="M87.1466 89.0281L85.7218 88.6568C85.6444 88.6335 85.6056 88.502 85.6831 88.4788L88.099 87.8057H88.13L89.5005 88.1616C89.5779 88.1848 89.6089 88.3241 89.5392 88.3473L87.1698 89.0281H87.1388H87.1466Z" fill="var(--sapContent_Illustrative_Color27)"/>
<path d="M94.2007 86.9706L93.1166 86.6998C92.9927 86.6688 92.9618 86.4754 93.0702 86.4444L95.4087 85.8022H95.4551L96.5159 86.0498C96.6398 86.0808 96.6785 86.2742 96.5624 86.3052L94.2472 86.986H94.2007V86.9706Z" fill="var(--sapContent_Illustrative_Color27)"/>
<path d="M78.7064 99.8685L77.1887 100.341H77.1268L73.8746 99.3037C73.743 99.2573 73.6888 99.0639 73.8049 99.0329L75.4775 98.5532H75.5394L78.6367 99.6055C78.7684 99.6519 78.8071 99.8453 78.7064 99.8763V99.8685Z" fill="var(--sapContent_Illustrative_Color27)"/>
<path d="M97.569 90.2202L100.147 90.8779C100.225 90.9011 100.248 91.0326 100.171 91.0558L97.6851 91.7676H97.6541L95.1066 91.11C95.0292 91.0868 94.9982 90.9552 95.0756 90.932L97.5302 90.2202H97.569Z" fill="var(--sapContent_Illustrative_Color27)"/>
<path d="M93.9763 91.2489L96.5238 91.9066C96.6013 91.9298 96.6245 92.0614 96.5548 92.0846L93.9608 92.8273H93.9298L91.4442 92.1619C91.3668 92.1387 91.3358 92.0072 91.4133 91.984L93.9531 91.2567H93.984V91.2412L93.9763 91.2489Z" fill="var(--sapContent_Illustrative_Color27)"/>
<path d="M101.139 89.1909L103.586 89.8099C103.702 89.8408 103.733 90.0265 103.624 90.0575L101.34 90.7074H101.294L98.8622 90.0884C98.746 90.0575 98.715 89.8718 98.8234 89.8408L101.092 89.1909H101.139Z" fill="var(--sapContent_Illustrative_Color27)"/>
<path d="M111.724 87.4888L109.021 86.924C109.021 86.924 107.054 86.5062 107.039 86.5062L105.32 86.1426H105.273L103.446 86.6687L99.0091 87.9531C98.9085 87.984 98.9394 88.1775 99.0556 88.2084L101.077 88.7191H101.123L105.165 87.5507L108.99 88.5179H109.037L111.747 87.7442C111.855 87.7132 111.824 87.5121 111.708 87.4888H111.724Z" fill="var(--sapContent_Illustrative_Color27)"/>
<path d="M90.3446 92.3011L92.6985 92.9278C92.8069 92.9588 92.8456 93.1367 92.745 93.1677L90.5072 93.8021H90.4607L88.1222 93.1677C88.0061 93.1367 87.9751 92.9588 88.0758 92.9278L90.3058 92.2856H90.3523V92.3011H90.3446Z" fill="var(--sapContent_Illustrative_Color27)"/>
<path d="M105.08 88.0536L107.635 88.6494C107.751 88.6803 107.782 88.8738 107.674 88.897L104.941 89.6784H104.894L102.447 89.0595C102.331 89.0285 102.3 88.8428 102.401 88.8119L105.041 88.0459H105.088L105.08 88.0536Z" fill="var(--sapContent_Illustrative_Color27)"/>
<path d="M74.7417 96.3324L72.349 97.021H72.2871L70.5526 96.4252C70.421 96.3788 70.3668 96.1854 70.4829 96.1467L72.8523 95.4658H72.922L74.6875 96.0461C74.8191 96.0925 74.8656 96.286 74.7572 96.3246H74.7417V96.3324Z" fill="var(--sapContent_Illustrative_Color27)"/>
<path d="M83.2671 94.3438L85.4507 94.9627C85.5823 95.0014 85.6288 95.2103 85.5126 95.2413L82.8257 96.0072H82.7637L80.6885 95.3651C80.5569 95.3186 80.5104 95.1175 80.6266 95.0943L83.2129 94.3515H83.2748L83.2671 94.3438Z" fill="var(--sapContent_Illustrative_Color27)"/>
<path d="M91.7306 90.0499L94.1465 89.3535H94.1775L96.3533 89.9106C96.4385 89.9338 96.4617 90.0731 96.3843 90.0963L93.9529 90.8004H93.9219L91.7693 90.2433C91.6841 90.2201 91.6609 90.0808 91.7383 90.0576L91.7306 90.0499Z" fill="var(--sapContent_Illustrative_Color27)"/>
<path d="M95.5479 87.0788L97.9173 86.3979H97.9638L100.14 86.9086C100.264 86.9396 100.295 87.133 100.186 87.1639L97.7315 87.8757H97.685L95.5866 87.3419C95.4627 87.3109 95.4317 87.1175 95.5402 87.0866H95.5556L95.5479 87.0788Z" fill="var(--sapContent_Illustrative_Color27)"/>
<path d="M71.7296 95.3494L69.3911 96.0225H69.3292L67.6643 95.4577C67.5327 95.4113 67.4785 95.2101 67.5869 95.1869L69.8867 94.5215H69.9564L71.6676 95.0863C71.7993 95.1327 71.8535 95.3339 71.7373 95.3571L71.7296 95.3494Z" fill="var(--sapContent_Illustrative_Color27)"/>
<path d="M79.5039 95.4272L81.5869 96.0617C81.7185 96.1081 81.765 96.3015 81.6488 96.3325L79.0935 97.0675H79.0316L77.0338 96.4176C76.9022 96.3712 76.8557 96.1778 76.9641 96.1468L79.4342 95.435H79.4962L79.5039 95.4272Z" fill="var(--sapContent_Illustrative_Color27)"/>
<path d="M77.9708 97.3923L75.5007 98.1041H75.4387L73.4874 97.4465C73.3558 97.4001 73.3093 97.2066 73.4177 97.168L75.8414 96.4639H75.9033L77.9088 97.1138C78.0405 97.1602 78.0869 97.3536 77.9785 97.3846L77.9708 97.3923Z" fill="var(--sapContent_Illustrative_Color27)"/>
<path d="M86.9065 93.2915L89.245 93.9182C89.3534 93.9492 89.3921 94.1271 89.2915 94.1581L86.7362 94.8854H86.6897L84.421 94.2432C84.3048 94.2045 84.2661 94.0343 84.3745 94.0033L86.8601 93.2915H86.9143H86.9065Z" fill="var(--sapContent_Illustrative_Color27)"/>
<path d="M81.1455 93.0905L83.5537 92.4019H83.6001L85.6134 92.9435C85.7295 92.9744 85.7682 93.1524 85.6598 93.1833L83.213 93.8951H83.1665L81.1997 93.3381C81.0836 93.2994 81.0448 93.1291 81.1455 93.0982V93.0905Z" fill="var(--sapContent_Illustrative_Color27)"/>
<path d="M77.514 94.1347L79.9686 93.4229H80.0306L81.9122 93.9567C82.0438 93.9954 82.098 94.2043 81.9741 94.2353L79.4421 94.9626H79.3801L77.5682 94.4055C77.4366 94.3591 77.3824 94.1579 77.4985 94.1269H77.514V94.1347Z" fill="var(--sapContent_Illustrative_Color27)"/>
<path d="M84.7615 92.0538L86.9916 91.4116H87.0381L89.0513 91.9532C89.1675 91.9842 89.1984 92.1621 89.0978 92.1931L86.8754 92.8353H86.829L84.8157 92.2937C84.6996 92.2627 84.6609 92.0848 84.7693 92.0538H84.7615Z" fill="var(--sapContent_Illustrative_Color27)"/>
<path d="M88.0989 91.0941L90.5845 90.3823H90.6154L92.7913 90.9471C92.8687 90.9703 92.8997 91.1019 92.8223 91.1251L90.3057 91.8524H90.2747L88.1376 91.2721C88.0602 91.2489 88.0292 91.1174 88.0989 91.0941Z" fill="var(--sapContent_Illustrative_Color27)"/>
<path d="M94.1155 88.881L92.0403 88.3471C91.9242 88.3162 91.8855 88.1228 91.9939 88.0918L94.2317 87.4419H94.2782L96.3766 87.9758C96.5005 88.0067 96.5314 88.2001 96.423 88.2311L94.1697 88.881H94.1233H94.1155Z" fill="var(--sapContent_Illustrative_Color27)"/>
<path d="M73.9676 95.1565L76.3371 94.4756H76.399L78.2187 95.0404C78.3503 95.0868 78.4045 95.288 78.2884 95.3112L75.8647 96.0075H75.8028L74.0451 95.4273C73.9134 95.3808 73.867 95.1797 73.9754 95.1487L73.9676 95.1565Z" fill="var(--sapContent_Illustrative_Color27)"/>
<path d="M99.8144 89.0985L97.5611 89.7484H97.5146L95.4859 89.23C95.3697 89.1991 95.331 89.0134 95.4394 88.9824L97.7005 88.3325H97.7469L99.7757 88.8509C99.8918 88.8819 99.9228 89.0676 99.8144 89.0985Z" fill="var(--sapContent_Illustrative_Color27)"/>
<path d="M86.9606 90.9473L84.808 90.367C84.7305 90.3438 84.6918 90.2122 84.7693 90.189L87.1852 89.4927H87.2161L89.4152 90.0652C89.4927 90.0884 89.5236 90.22 89.4539 90.2432L86.9993 90.955H86.9683V90.9395L86.9606 90.9473Z" fill="var(--sapContent_Illustrative_Color27)"/>
<path d="M83.5148 91.9378L81.5093 91.4039C81.3931 91.373 81.3544 91.1873 81.4551 91.1641L83.6697 90.5142H83.7161L85.7294 91.0558C85.8455 91.0867 85.8842 91.2724 85.7758 91.2956L83.5535 91.9378H83.507H83.5148Z" fill="var(--sapContent_Illustrative_Color27)"/>
<path d="M90.5613 89.9109L88.2228 89.2996C88.1686 89.2842 88.1531 89.2068 88.2073 89.199L90.7084 88.4795H90.7626L93.1166 89.083C93.163 89.0985 93.1862 89.1758 93.132 89.1836L90.6 89.9186H90.569L90.5613 89.9109Z" fill="var(--sapContent_Illustrative_Color27)"/>
<path d="M79.9298 92.9745L77.9785 92.4175C77.8623 92.3788 77.8159 92.2086 77.9243 92.1776L80.2318 91.5122H80.2782L82.2837 92.0538C82.3999 92.0848 82.4386 92.2627 82.3379 92.2937L79.9762 92.9745H79.9298Z" fill="var(--sapContent_Illustrative_Color27)"/>
<path d="M76.2906 94.0187L74.5174 93.4771C74.3858 93.4307 74.3316 93.2295 74.4477 93.1986L76.763 92.5332H76.8249L78.6833 93.0593C78.815 93.098 78.8692 93.3069 78.753 93.3379L76.3603 94.0187H76.2984H76.2906Z" fill="var(--sapContent_Illustrative_Color27)"/>
<path d="M82.7249 65.5893C82.2603 65.566 81.8577 65.9142 81.8034 66.3707C81.7183 67.2682 81.4318 68.127 81.0059 68.9162C79.9683 70.8273 78.0402 72.3051 75.7405 72.7616C75.7405 72.7616 75.7327 72.7616 75.725 72.7616C72.0624 73.4812 68.5779 71.4772 67.6178 68.1657C67.5326 67.864 67.4551 67.5622 67.4164 67.245C66.8899 63.3687 69.8865 59.7632 73.9595 59.237C75.6553 59.0204 77.2891 59.3763 78.621 60.1578C79.3333 60.5756 79.9683 61.1094 80.4716 61.7594L77.0723 62.2545C76.5922 62.3242 76.2438 62.7652 76.3057 63.2217C76.3677 63.6859 76.809 64.0031 77.2969 63.9258L81.9583 63.2062L82.0203 63.1985L82.4074 63.1366C82.8643 63.0669 83.1895 62.6414 83.1276 62.2004L82.5081 57.3337V57.3182C82.4461 56.8695 82.028 56.5445 81.5711 56.5987C81.1143 56.6528 80.7813 57.0706 80.8355 57.5271L80.9517 58.4633L81.1453 59.9489C80.8201 59.6316 80.4639 59.3531 80.0922 59.09C78.3499 57.8598 76.0967 57.2563 73.735 57.5349C68.6089 58.1384 64.7915 62.6646 65.4651 67.5622C65.5503 68.2044 65.7207 68.8157 65.9452 69.3882C67.099 72.3438 69.933 74.3245 73.2007 74.603C74.0989 74.6804 75.0281 74.6263 75.965 74.4328C79.736 73.6514 82.6862 70.6803 83.3598 67.1986C83.4063 66.951 83.445 66.7034 83.4683 66.4481C83.5147 65.9993 83.1818 65.6047 82.7249 65.5815V65.5893Z" fill="var(--sapContent_Illustrative_Color23)"/>
</g>
<defs>
<clipPath id="clip0_6879_7410">
<rect width="104" height="69" fill="var(--sapContent_Illustrative_Color8)" transform="translate(31 43)"/>
</clipPath>
</defs>
</svg>