<svg width="127" height="129" viewBox="0 0 127 129" fill="none" xmlns="http://www.w3.org/2000/svg" id="sapIllus-Spot-SimpleMail">
<path d="M60.2514 35.4622L4.59083 62.3466C3.51161 62.8671 2.60097 63.6812 1.96342 64.6957C1.32586 65.7101 0.987205 66.8838 0.986328 68.0819V121.622C0.988962 123.314 1.66226 124.935 2.85865 126.132C4.05504 127.328 5.67693 128.002 7.36888 128.004H118.7C119.538 128.004 120.367 127.839 121.141 127.518C121.915 127.197 122.618 126.727 123.21 126.134C123.802 125.541 124.271 124.838 124.59 124.063C124.91 123.289 125.074 122.459 125.073 121.622V68.0321C125.072 66.834 124.733 65.6603 124.096 64.6459C123.458 63.6314 122.547 62.8173 121.468 62.2968L65.8075 35.4622C64.9469 35.0365 63.9996 34.815 63.0394 34.815C62.0792 34.815 61.132 35.0365 60.2713 35.4622H60.2514Z" fill="var(--sapContent_Illustrative_Color8)"/>
<path d="M118.69 128.95H7.38901C5.43217 128.95 3.55547 128.173 2.17178 126.789C0.788088 125.405 0.0107422 123.529 0.0107422 121.572V68.0322C0.0156589 66.6471 0.409303 65.2912 1.14688 64.1188C1.88445 62.9464 2.93633 62.0047 4.1828 61.4007L59.8334 34.5661C60.833 34.0822 61.9291 33.8309 63.0396 33.8309C64.1502 33.8309 65.2463 34.0822 66.2458 34.5661L121.896 61.3907C123.143 61.9947 124.195 62.9365 124.932 64.1089C125.67 65.2812 126.064 66.6371 126.069 68.0222V121.562C126.069 123.519 125.291 125.395 123.907 126.779C122.524 128.163 120.647 128.94 118.69 128.94V128.95ZM63.0396 35.8008C62.2311 35.8011 61.4336 35.9885 60.7097 36.3484L5.05904 63.2328C4.14739 63.6711 3.37788 64.3577 2.83891 65.2138C2.29994 66.0698 2.01338 67.0604 2.01213 68.072V121.612C2.01213 123.04 2.57968 124.411 3.58991 125.421C4.60013 126.431 5.97029 126.999 7.39896 126.999H118.69C120.119 126.999 121.489 126.431 122.499 125.421C123.51 124.411 124.077 123.04 124.077 121.612V68.0322C124.072 67.0163 123.78 66.0227 123.233 65.1662C122.687 64.3098 121.909 63.6256 120.99 63.193L65.3796 36.3584C64.6525 35.9959 63.852 35.8051 63.0396 35.8008Z" fill="var(--sapContent_Illustrative_Color4)"/>
<path d="M86.3593 8.75709C85.9919 8.74811 85.6284 8.83384 85.3038 9.00602C84.9753 9.18236 84.7002 9.44371 84.5072 9.76277L79.7875 17.2804C79.62 17.5344 79.5077 17.8208 79.4579 18.121C79.4082 18.4212 79.4221 18.7285 79.4988 19.0229C79.5691 19.3146 79.6978 19.5889 79.8772 19.8295C80.0618 20.0745 80.2959 20.2781 80.5642 20.4269C80.9467 20.6971 81.4076 20.8338 81.8755 20.8158C82.3435 20.7978 82.7925 20.6261 83.1531 20.3273C83.3227 20.1762 83.4702 20.0019 83.5912 19.8096L88.3308 12.2919C88.5483 11.9702 88.6724 11.5945 88.6893 11.2066C88.7035 10.8216 88.6141 10.4399 88.4304 10.1013C88.2305 9.718 87.9357 9.39232 87.5741 9.15538C87.2083 8.9243 86.7909 8.78746 86.3593 8.75709V8.75709Z" fill="var(--sapContent_Illustrative_Color5)"/>
<path d="M38.4258 9.91212C38.194 10.0431 37.9909 10.2191 37.8283 10.4299C37.6704 10.6448 37.5554 10.8883 37.4898 11.1468C37.4307 11.4058 37.4241 11.6741 37.4702 11.9357C37.5164 12.1973 37.6145 12.4471 37.7586 12.6703L42.2593 19.9888C42.4263 20.2504 42.6428 20.477 42.8966 20.6559C43.1468 20.8374 43.4314 20.9662 43.7329 21.0343C44.3414 21.1673 44.9777 21.0565 45.5053 20.7256L45.804 20.4966C46.1657 20.1995 46.4006 19.7758 46.4612 19.3117C46.5293 18.8516 46.4227 18.3828 46.1625 17.9973L41.6619 10.6788C41.5045 10.4102 41.2904 10.1791 41.0345 10.0017C40.7874 9.81905 40.5065 9.68707 40.2081 9.61341C39.9023 9.55379 39.5879 9.55379 39.2821 9.61341C38.9798 9.65568 38.6888 9.75719 38.4258 9.91212V9.91212Z" fill="var(--sapContent_Illustrative_Color5)"/>
<path d="M61.0681 1.56803C60.8634 1.76957 60.7009 2.00991 60.5902 2.27499C60.4797 2.54355 60.4222 2.83095 60.4209 3.12135V16.1354C60.4203 16.7198 60.6491 17.2812 61.0582 17.6987C61.4443 18.0968 61.9666 18.3344 62.5205 18.3639C63.0744 18.3935 63.619 18.2128 64.0453 17.858C64.2747 17.6509 64.4609 17.4005 64.593 17.1211C64.7147 16.8344 64.779 16.5265 64.7821 16.215V3.21097C64.7744 2.62332 64.5429 2.06072 64.1349 1.63773C63.7249 1.21723 63.1685 0.971122 62.5816 0.950689C62.2945 0.944153 62.0091 0.995438 61.7422 1.1015C61.4754 1.20755 61.2326 1.36621 61.0283 1.56803H61.0681Z" fill="var(--sapContent_Illustrative_Color5)"/>
<path d="M64.9913 96.0417C64.1291 96.462 63.1824 96.6799 62.2232 96.6789C61.2643 96.6775 60.3181 96.4597 59.4551 96.0417L30.0814 81.8826L13.5625 73.9168L58.9174 52.0111C59.78 51.5919 60.7265 51.3741 61.6855 51.3741C62.6445 51.3741 63.591 51.5919 64.4536 52.0111L110.346 74.1259L94.4147 81.8328L64.9913 96.0417Z" fill="var(--sapContent_Illustrative_Color3)"/>
<path d="M65.8076 95.743C64.9432 96.1558 63.9974 96.3701 63.0395 96.3701C62.0816 96.3701 61.1358 96.1558 60.2714 95.743L59.6242 95.4343L1.97217 125.415C2.54511 126.327 3.33951 127.079 4.28139 127.602C5.22327 128.124 6.282 128.4 7.359 128.402H118.67C119.67 128.413 120.657 128.18 121.548 127.725C122.439 127.275 123.21 126.62 123.798 125.814L66.3851 95.4542L65.8076 95.743Z" fill="var(--sapContent_Illustrative_Color6)"/>
<path d="M118.69 128.95H7.38901C5.43217 128.95 3.55547 128.173 2.17178 126.789C0.788088 125.405 0.0107422 123.529 0.0107422 121.572V68.0322C0.0156589 66.6471 0.409303 65.2912 1.14688 64.1188C1.88445 62.9464 2.93633 62.0047 4.1828 61.4007L59.8334 34.5661C60.833 34.0822 61.9291 33.8309 63.0396 33.8309C64.1502 33.8309 65.2463 34.0822 66.2458 34.5661L121.896 61.3907C123.143 61.9947 124.195 62.9365 124.932 64.1089C125.67 65.2812 126.064 66.6371 126.069 68.0222V121.562C126.069 123.519 125.291 125.395 123.907 126.779C122.524 128.163 120.647 128.94 118.69 128.94V128.95ZM63.0396 35.8008C62.2311 35.8011 61.4336 35.9885 60.7097 36.3484L5.05904 63.2328C4.14739 63.6711 3.37788 64.3577 2.83891 65.2138C2.29994 66.0698 2.01338 67.0604 2.01213 68.072V121.612C2.01213 123.04 2.57968 124.411 3.58991 125.421C4.60013 126.431 5.97029 126.999 7.39896 126.999H118.69C120.119 126.999 121.489 126.431 122.499 125.421C123.51 124.411 124.077 123.04 124.077 121.612V68.0322C124.072 67.0163 123.78 66.0227 123.233 65.1662C122.687 64.3098 121.909 63.6256 120.99 63.193L65.3796 36.3584C64.6525 35.9959 63.852 35.8051 63.0396 35.8008Z" fill="var(--sapContent_Illustrative_Color4)"/>
<path opacity="0.51" d="M56.6274 94.7174L59.3856 96.0417C60.2478 96.462 61.1945 96.6799 62.1537 96.679C63.1126 96.6775 64.0588 96.4597 64.9218 96.0417L94.2954 81.8826L110.277 74.1758L104.004 71.1886L56.6274 94.7174Z" fill="var(--sapContent_Illustrative_Color15)"/>
<path d="M63.0794 97.4157C61.9698 97.4156 60.8743 97.1673 59.8731 96.6889L4.22252 69.8642C2.71713 69.1295 1.50339 67.9087 0.777344 66.3991L2.56964 65.5329C3.10088 66.6378 3.98811 67.532 5.0888 68.0719L60.7394 94.8966C61.4714 95.241 62.2704 95.4195 63.0794 95.4195C63.8883 95.4195 64.6873 95.241 65.4193 94.8966L121.07 68.062C122.172 67.5291 123.061 66.6373 123.589 65.5329L125.381 66.3991C124.667 67.8979 123.472 69.1143 121.986 69.8543L66.3254 96.7386C65.3086 97.207 64.1987 97.4386 63.0794 97.4157Z" fill="var(--sapContent_Illustrative_Color4)"/>
</svg>
