<svg width="320" height="240" viewBox="0 0 320 240" fill="none" xmlns="http://www.w3.org/2000/svg" id="sapIllus-Scene-KeyTask">
<rect y="56" width="320" height="138" rx="24" fill="var(--sapContent_Illustrative_Color20)"/>
<g clip-path="url(#clip0_396_5942)">
<path d="M160.893 177.754L166.747 178.166L245.193 144.54L170.013 112.355L64.1038 130.727C61.5002 131.242 58.9554 132.154 63.4713 134.287L156.612 176.651C158.333 177.43 159.025 177.607 160.893 177.754Z" fill="var(--sapContent_Illustrative_Color21)"/>
<path d="M102.157 146.26L102.246 149.305C102.246 149.438 102.334 149.57 102.466 149.629L162.099 177.18C162.099 177.18 166.85 179.401 171.513 177.18C178.088 174.047 257.417 140.259 257.417 140.259C257.417 140.259 258.505 139.921 258.535 138.729C258.564 137.538 258.535 136.287 258.535 136.287L102.143 146.26H102.157Z" fill="var(--sapContent_Illustrative_Color29)"/>
<path d="M114.69 141.848L114.411 141.936L113.646 142.157L112.498 142.495L111.086 142.907L109.498 143.378L107.865 143.848L106.276 144.319C105.805 144.451 102.466 145.555 102.466 145.555C102.128 145.716 102.128 146.525 102.231 146.82C102.305 147.011 102.437 147.173 102.628 147.261C103.423 147.673 164.761 174.312 164.761 174.312C164.761 174.312 168.086 175.871 172.955 173.444C176.882 171.488 213.347 156.204 213.347 156.204L257.329 137.758C257.329 137.758 261.256 135.817 254.725 134.89L198.005 120.431C198.005 120.431 195.387 119.519 191.548 120.342C187.723 121.166 114.705 141.848 114.705 141.848H114.675H114.69Z" fill="var(--sapContent_Illustrative_Color11)"/>
<path d="M137.505 140.568C138.137 139.067 139.182 136.787 140.52 134.552C126.311 138.567 114.675 141.847 114.675 141.847C114.587 141.877 114.484 141.906 114.396 141.936C114.146 142.009 113.881 142.083 113.631 142.156C113.249 142.274 112.866 142.377 112.484 142.495C112.013 142.627 111.528 142.774 111.072 142.907L109.483 143.377C108.939 143.539 108.394 143.686 107.85 143.848C107.321 143.995 106.791 144.157 106.261 144.319C105.791 144.451 102.452 145.554 102.452 145.554C102.113 145.716 102.113 146.525 102.216 146.819C102.29 147.011 102.422 147.172 102.614 147.261C103.025 147.481 120.442 155.071 136.74 162.147C134.975 154.983 134.651 147.393 137.534 140.568H137.505Z" fill="var(--sapContent_Illustrative_Color1)"/>
<path d="M102.29 146.613L192.93 120.43C192.93 120.43 193.842 120.504 193.592 117.385C193.342 114.267 185.472 50.1627 185.472 50.1627C185.472 50.1627 185.134 47.0443 181.53 47.0001C177.926 46.9707 91.8607 51.5895 91.8607 51.5895C91.8607 51.5895 87.1684 52.0014 87.7126 57.2233C88.2422 62.4452 99.4509 142.215 99.4509 142.215C99.4509 142.215 100.407 146.555 102.29 146.599V146.613Z" fill="var(--sapContent_Illustrative_Color11)"/>
<path d="M152.552 126.873C140.549 126.137 128.282 123.769 117.705 117.768C107.173 111.81 103.79 101.675 99.9068 90.2313C96.6413 80.6701 93.8465 68.1081 94.4349 61.6359C95.2439 58.1056 96.3324 54.6635 97.5386 51.2656C93.9495 51.4568 91.846 51.5745 91.846 51.5745C91.846 51.5745 87.1536 51.9864 87.6979 57.2083C88.2274 62.4302 99.4361 142.2 99.4361 142.2C99.4361 142.2 99.8333 146.569 102.275 146.584L171.013 126.726C164.864 127.138 158.686 127.211 152.523 126.843V126.873H152.552Z" fill="var(--sapContent_Illustrative_Color1)"/>
<path d="M91.8167 57.3995L103.158 136.302L190.43 114.061L183.193 51.3833L91.8167 57.3995Z" fill="var(--sapContent_Illustrative_Color8)"/>
<path d="M201.565 156.028L227.233 145.422C227.968 145.113 227.807 143.789 226.997 143.613L210.949 140.171C210.317 140.038 209.699 140.083 209.125 140.274L178.044 151.129C177.809 151.218 177.868 151.644 178.147 151.703L192.077 156.234C195.342 157.293 198.652 157.219 201.565 156.013V156.042V156.028Z" fill="var(--sapContent_Illustrative_Color27)"/>
<path d="M178.044 151.497C177.765 151.409 177.691 150.968 177.926 150.865L208.772 140.289C209.552 140.024 210.376 139.98 211.214 140.156L226.939 143.584C227.145 143.628 227.38 143.745 227.542 143.995C227.66 144.172 227.718 144.378 227.718 144.584V144.643L211.023 140.759C210.317 140.627 209.596 140.686 208.934 140.906L178.044 151.483V151.453V151.497Z" fill="var(--sapContent_Illustrative_Color1)"/>
<path d="M201.521 137.067L206.007 138.214C206.213 138.273 206.272 138.626 206.081 138.685L201.903 139.979H201.815L197.152 138.788C196.946 138.729 196.872 138.376 197.078 138.317L201.432 137.081H201.521V137.067Z" fill="var(--sapContent_Illustrative_Color1)"/>
<path d="M209.302 134.86L213.597 135.875C213.818 135.934 213.862 136.287 213.671 136.346L208.464 137.964H208.375L204.007 136.861C203.801 136.802 203.742 136.449 203.933 136.39L209.243 134.875H209.332L209.302 134.86Z" fill="var(--sapContent_Illustrative_Color1)"/>
<path d="M159.584 149.041L165.585 150.879C165.747 150.923 165.791 151.173 165.659 151.203L160.407 152.821H160.319L154.332 150.865C154.185 150.82 154.126 150.556 154.244 150.541L159.495 149.041H159.584Z" fill="var(--sapContent_Illustrative_Color1)"/>
<path d="M199.491 140.244L194.71 139.023H194.622L190.106 140.318L161.54 148.467C161.363 148.511 161.437 148.82 161.628 148.879L167.394 150.644H167.483L196.093 141.789L199.549 140.715C199.741 140.656 199.682 140.303 199.476 140.244H199.491Z" fill="var(--sapContent_Illustrative_Color1)"/>
<path d="M131.944 148.834L128.399 149.849H128.282L125.075 148.82C124.81 148.731 124.707 148.349 124.913 148.275L128.546 147.216H128.664L131.782 148.275C132.033 148.364 132.15 148.746 131.93 148.82L131.944 148.834Z" fill="var(--sapContent_Illustrative_Color1)"/>
<path d="M143.535 152.748L140.329 153.674H140.211L136.46 152.483C136.195 152.394 136.107 152.012 136.313 151.953L139.637 150.997H139.77L143.418 152.233C143.668 152.321 143.771 152.703 143.55 152.762H143.521V152.733L143.535 152.748Z" fill="var(--sapContent_Illustrative_Color1)"/>
<path d="M137.549 150.717L134.165 151.688H134.048L130.679 150.614C130.414 150.526 130.312 150.144 130.532 150.07L134.018 149.07H134.136L137.402 150.188C137.652 150.276 137.755 150.658 137.549 150.732V150.717Z" fill="var(--sapContent_Illustrative_Color1)"/>
<path d="M152.538 151.055L158.348 152.953C158.583 153.041 158.642 153.365 158.451 153.424L153.715 154.88H153.597L147.713 152.879C147.478 152.791 147.404 152.468 147.595 152.409L152.405 151.041H152.523L152.538 151.055Z" fill="var(--sapContent_Illustrative_Color1)"/>
<path d="M217.157 132.595L222.29 133.669L216.083 135.596L210.92 134.375L217.157 132.595Z" fill="var(--sapContent_Illustrative_Color1)"/>
<path d="M147.934 140.7L145.095 139.906C144.874 139.833 144.786 139.494 144.977 139.45L149.331 138.244H149.419L152.214 138.994C152.435 139.053 152.523 139.406 152.317 139.45L148.007 140.686H147.919H147.948L147.934 140.7Z" fill="var(--sapContent_Illustrative_Color1)"/>
<path d="M141.285 142.612L138.563 141.774C138.313 141.685 138.21 141.288 138.431 141.244L142.682 140.067H142.785L145.506 140.847C145.756 140.921 145.874 141.332 145.639 141.377L141.373 142.612H141.255H141.285Z" fill="var(--sapContent_Illustrative_Color1)"/>
<path d="M140.505 146.319L137.269 145.245C137.019 145.157 136.916 144.774 137.137 144.716L141.403 143.48H141.52L144.903 144.51C145.154 144.598 145.257 144.98 145.036 145.039L140.638 146.304H140.505V146.319Z" fill="var(--sapContent_Illustrative_Color1)"/>
<path d="M154.538 138.773L151.817 138.038C151.597 137.979 151.508 137.626 151.714 137.567L156.024 136.376H156.112L158.731 137.082C158.951 137.141 159.025 137.494 158.834 137.553L154.627 138.759H154.538V138.773Z" fill="var(--sapContent_Illustrative_Color1)"/>
<path d="M122.619 148.04L119.515 147.04C119.265 146.951 119.147 146.569 119.353 146.525L123.266 145.436H123.398L126.34 146.437C126.59 146.525 126.693 146.907 126.487 146.966L122.751 148.055H122.633L122.619 148.04Z" fill="var(--sapContent_Illustrative_Color1)"/>
<path d="M161.069 136.89L158.245 136.125C158.098 136.081 158.025 135.831 158.172 135.787L162.761 134.522H162.82L165.585 135.243C165.732 135.287 165.806 135.537 165.659 135.581L161.128 136.89H161.069Z" fill="var(--sapContent_Illustrative_Color1)"/>
<path d="M128.414 146.349L125.531 145.378C125.281 145.29 125.178 144.907 125.384 144.848L129.753 143.642H129.885L132.724 144.569C132.974 144.657 133.077 145.04 132.871 145.098L128.561 146.349H128.429H128.414Z" fill="var(--sapContent_Illustrative_Color1)"/>
<path d="M134.872 144.481L132.091 143.569C131.841 143.48 131.738 143.098 131.944 143.039L136.122 141.892H136.24L139.02 142.745C139.27 142.833 139.373 143.216 139.152 143.275L134.989 144.495H134.857V144.466L134.872 144.481Z" fill="var(--sapContent_Illustrative_Color1)"/>
<path d="M214.377 132.022L209.243 130.948H209.155L201.786 131.154C201.594 131.213 201.786 132.066 201.991 132.11L209.199 133.949H209.287L214.421 132.478C214.627 132.419 214.568 132.037 214.347 131.992V132.022H214.377Z" fill="var(--sapContent_Illustrative_Color1)"/>
<path d="M190.798 129.168L194.931 127.977H195.019L199.388 128.889C199.623 128.933 199.682 129.315 199.476 129.374L195.122 130.639H195.034L190.9 129.668C190.665 129.609 190.606 129.242 190.812 129.183H190.783L190.798 129.168Z" fill="var(--sapContent_Illustrative_Color1)"/>
<path d="M186.12 128.064L190.106 126.961H190.18L192.107 127.373C192.342 127.417 192.401 127.814 192.195 127.873L188.238 129.02H188.15L186.193 128.564C185.958 128.505 185.884 128.138 186.105 128.079L186.12 128.064Z" fill="var(--sapContent_Illustrative_Color1)"/>
<path d="M174.426 132.993L172.19 132.419C171.954 132.36 171.881 131.992 172.102 131.933L176.426 130.742H176.514L178.647 131.286C178.883 131.345 178.941 131.713 178.736 131.772L174.514 132.993H174.426Z" fill="var(--sapContent_Illustrative_Color1)"/>
<path d="M167.762 134.949L165.07 134.243C164.923 134.199 164.85 133.949 164.997 133.904L169.586 132.639H169.645L172.249 133.316C172.396 133.36 172.455 133.61 172.322 133.654L167.821 134.949H167.747H167.762Z" fill="var(--sapContent_Illustrative_Color1)"/>
<path d="M181.148 131.05L179.089 130.535C178.853 130.477 178.794 130.109 179 130.05L183.443 128.829H183.531L185.546 129.3C185.782 129.359 185.855 129.726 185.634 129.785L181.236 131.065H181.148V131.05Z" fill="var(--sapContent_Illustrative_Color1)"/>
<path d="M151.729 155.513L148.846 156.396H148.728L142.55 154.424C142.3 154.336 142.197 153.968 142.418 153.895L145.595 152.983H145.713L151.596 154.983C151.847 155.072 151.92 155.439 151.729 155.498V155.513Z" fill="var(--sapContent_Illustrative_Color1)"/>
<path d="M187.532 137.185L192.43 138.42C192.577 138.465 192.621 138.715 192.474 138.759L187.752 140.112H187.694L182.869 138.862C182.722 138.818 182.678 138.568 182.81 138.523L187.473 137.17H187.532V137.185Z" fill="var(--sapContent_Illustrative_Color1)"/>
<path d="M180.721 139.155L185.561 140.406C185.708 140.45 185.752 140.7 185.619 140.744L180.706 142.141H180.648L175.926 140.876C175.779 140.832 175.72 140.582 175.867 140.538L180.692 139.155H180.751H180.721Z" fill="var(--sapContent_Illustrative_Color1)"/>
<path d="M194.298 135.257L198.947 136.434C199.152 136.493 199.211 136.846 199.02 136.905L194.681 138.14H194.592L189.974 136.964C189.753 136.905 189.694 136.552 189.9 136.493L194.21 135.257H194.298Z" fill="var(--sapContent_Illustrative_Color1)"/>
<path d="M206.419 130.36L202.256 129.507H202.168L198.741 130.492L190.283 132.919C190.091 132.978 190.15 133.346 190.371 133.405L194.21 134.375H194.298L203.286 131.787L206.507 130.86C206.713 130.801 206.654 130.419 206.419 130.374V130.36Z" fill="var(--sapContent_Illustrative_Color1)"/>
<path d="M173.808 141.156L178.279 142.348C178.485 142.406 178.559 142.745 178.368 142.804L174.117 144.01H174.028L169.601 142.818C169.38 142.759 169.321 142.421 169.513 142.362L173.749 141.141H173.837L173.808 141.156Z" fill="var(--sapContent_Illustrative_Color1)"/>
<path d="M201.785 133.095L206.639 134.228C206.86 134.287 206.919 134.64 206.713 134.699L201.521 136.184H201.432L196.784 135.008C196.563 134.949 196.505 134.596 196.71 134.537L201.712 133.081H201.8L201.785 133.095Z" fill="var(--sapContent_Illustrative_Color1)"/>
<path d="M144.198 148.82L139.652 150.129H139.535L136.24 148.996C135.99 148.908 135.887 148.54 136.107 148.467L140.608 147.172H140.726L144.065 148.276C144.315 148.364 144.403 148.732 144.198 148.79V148.82Z" fill="var(--sapContent_Illustrative_Color1)"/>
<path d="M160.378 145.024L164.526 146.187C164.776 146.26 164.864 146.657 164.644 146.701L159.54 148.158H159.422L155.48 146.951C155.23 146.863 155.141 146.481 155.362 146.422L160.275 145.01H160.393L160.378 145.024Z" fill="var(--sapContent_Illustrative_Color1)"/>
<path d="M176.441 136.876L181.03 135.566H181.089L185.208 136.625C185.37 136.67 185.414 136.934 185.267 136.979L180.663 138.317H180.604L176.514 137.258C176.353 137.214 176.309 136.964 176.456 136.905V136.876H176.441Z" fill="var(--sapContent_Illustrative_Color1)"/>
<path d="M183.693 131.227L188.194 129.932H188.282L192.415 130.903C192.651 130.962 192.71 131.33 192.504 131.389L187.841 132.727H187.753L183.766 131.712C183.531 131.653 183.472 131.286 183.678 131.227H183.707H183.693Z" fill="var(--sapContent_Illustrative_Color1)"/>
<path d="M138.49 146.951L134.048 148.231H133.93L130.768 147.157C130.518 147.069 130.415 146.687 130.621 146.642L134.989 145.377H135.122L138.358 146.451C138.608 146.54 138.711 146.922 138.49 146.966V146.951Z" fill="var(--sapContent_Illustrative_Color1)"/>
<path d="M153.229 147.084L157.171 148.29C157.421 148.378 157.509 148.746 157.289 148.82L152.449 150.217H152.332L148.537 148.982C148.287 148.893 148.198 148.526 148.404 148.467L153.097 147.113H153.214L153.229 147.084Z" fill="var(--sapContent_Illustrative_Color1)"/>
<path d="M150.317 150.805L145.624 152.159H145.507L141.8 150.908C141.55 150.82 141.462 150.452 141.668 150.394L146.272 149.055H146.389L150.184 150.291C150.434 150.379 150.523 150.747 150.317 150.805Z" fill="var(--sapContent_Illustrative_Color1)"/>
<path d="M167.292 143.039L171.734 144.23C171.94 144.289 172.013 144.627 171.822 144.672L166.968 146.054H166.88L162.57 144.833C162.349 144.76 162.276 144.436 162.481 144.392L167.203 143.039H167.292Z" fill="var(--sapContent_Illustrative_Color1)"/>
<path d="M156.348 142.657L160.922 141.347H161.011L164.835 142.377C165.056 142.436 165.129 142.774 164.923 142.833L160.275 144.172H160.187L156.451 143.113C156.23 143.039 156.156 142.715 156.348 142.657Z" fill="var(--sapContent_Illustrative_Color1)"/>
<path d="M149.478 144.642L154.126 143.289H154.244L157.818 144.304C158.068 144.377 158.171 144.774 157.936 144.833L153.141 146.216H153.023L149.596 145.157C149.346 145.069 149.243 144.686 149.463 144.627L149.478 144.642Z" fill="var(--sapContent_Illustrative_Color1)"/>
<path d="M163.217 140.685L167.453 139.464H167.542L171.366 140.494C171.587 140.553 171.646 140.891 171.454 140.95L167.247 142.171H167.159L163.349 141.141C163.129 141.082 163.055 140.744 163.261 140.685H163.232H163.217Z" fill="var(--sapContent_Illustrative_Color1)"/>
<path d="M169.557 138.862L174.279 137.508H174.338L178.456 138.582C178.603 138.626 178.662 138.876 178.515 138.92L173.749 140.288H173.69L169.63 139.2C169.483 139.156 169.425 138.906 169.557 138.862Z" fill="var(--sapContent_Illustrative_Color1)"/>
<path d="M180.986 134.669L177.058 133.669C176.838 133.61 176.764 133.242 176.97 133.183L181.221 131.948H181.31L185.296 132.963C185.531 133.022 185.59 133.389 185.384 133.448L181.118 134.684H181.015L180.986 134.669Z" fill="var(--sapContent_Illustrative_Color1)"/>
<path d="M142.727 146.569L147.213 145.275H147.331L150.787 146.349C151.038 146.437 151.14 146.819 150.92 146.864L146.33 148.187H146.213L142.874 147.084C142.624 146.996 142.535 146.613 142.741 146.555L142.727 146.569Z" fill="var(--sapContent_Illustrative_Color1)"/>
<path d="M191.798 135.081L187.517 136.317H187.429L183.575 135.331C183.354 135.272 183.281 134.919 183.487 134.861L187.767 133.625H187.856L191.709 134.596C191.93 134.655 191.989 135.008 191.783 135.067H191.812L191.798 135.081Z" fill="var(--sapContent_Illustrative_Color1)"/>
<path d="M167.395 138.597L163.305 137.493C163.158 137.449 163.085 137.199 163.232 137.155L167.821 135.831H167.88L172.057 136.92C172.205 136.964 172.263 137.214 172.131 137.258L167.468 138.597H167.409H167.395Z" fill="var(--sapContent_Illustrative_Color1)"/>
<path d="M160.849 140.48L157.039 139.465C156.818 139.406 156.745 139.053 156.936 139.009L161.143 137.788H161.231L165.056 138.818C165.276 138.876 165.35 139.229 165.144 139.274L160.937 140.494H160.834L160.849 140.48Z" fill="var(--sapContent_Illustrative_Color1)"/>
<path d="M174.234 136.626L169.792 135.464C169.689 135.434 169.66 135.287 169.763 135.272L174.499 133.904H174.602L179.074 135.052C179.162 135.081 179.206 135.228 179.103 135.243L174.293 136.626H174.249H174.234Z" fill="var(--sapContent_Illustrative_Color1)"/>
<path d="M154.053 142.421L150.346 141.377C150.126 141.303 150.037 140.98 150.243 140.921L154.627 139.656H154.715L158.525 140.671C158.745 140.73 158.819 141.068 158.628 141.127L154.141 142.421H154.053Z" fill="var(--sapContent_Illustrative_Color1)"/>
<path d="M147.139 144.422L143.771 143.392C143.521 143.304 143.418 142.921 143.638 142.862L148.036 141.597H148.154L151.684 142.598C151.935 142.671 152.038 143.068 151.817 143.127L147.286 144.436H147.169L147.139 144.422Z" fill="var(--sapContent_Illustrative_Color1)"/>
<path d="M201.462 136.655L205.948 137.803C206.154 137.861 206.213 138.214 206.022 138.273L201.83 139.568H201.741L197.078 138.376C196.872 138.317 196.799 137.964 197.005 137.906L201.374 136.67H201.462V136.655Z" fill="var(--sapContent_Illustrative_Color27)"/>
<path d="M209.243 134.419L213.538 135.434C213.759 135.493 213.803 135.846 213.612 135.905L208.39 137.523H208.302L203.933 136.405C203.727 136.346 203.668 135.993 203.859 135.934L209.155 134.419H209.243Z" fill="var(--sapContent_Illustrative_Color27)"/>
<path d="M159.495 148.614L165.497 150.453C165.659 150.497 165.703 150.747 165.57 150.777L160.319 152.395H160.231L154.229 150.424C154.082 150.379 154.023 150.115 154.141 150.1L159.392 148.6H159.495V148.614Z" fill="var(--sapContent_Illustrative_Color27)"/>
<path d="M199.432 139.818L194.651 138.597H194.563L192.548 139.17L191.459 139.479L190.047 139.891L184.34 141.524L176.765 143.686L171.366 145.231C171.366 145.231 170.263 145.422 166.894 146.51L161.481 148.055C161.305 148.099 161.378 148.408 161.57 148.467L167.336 150.232H167.424L177.338 147.158L181.972 145.731L188.253 143.774L196.814 141.112L199.52 140.288C199.712 140.229 199.653 139.876 199.447 139.818H199.432Z" fill="var(--sapContent_Illustrative_Color27)"/>
<path d="M131.827 148.423L128.282 149.438H128.164L124.957 148.408C124.693 148.32 124.59 147.937 124.796 147.864L128.429 146.805H128.561L131.68 147.864C131.93 147.952 132.047 148.334 131.827 148.408V148.423Z" fill="var(--sapContent_Illustrative_Color27)"/>
<path d="M143.433 152.335L140.226 153.262H140.108L136.357 152.056C136.093 151.968 136.004 151.585 136.21 151.526L139.535 150.57H139.667L143.33 151.806C143.58 151.894 143.683 152.277 143.462 152.335H143.433Z" fill="var(--sapContent_Illustrative_Color27)"/>
<path d="M137.446 150.32L134.062 151.291H133.945L130.576 150.217C130.311 150.129 130.208 149.747 130.429 149.673L133.915 148.673H134.033L137.298 149.791C137.549 149.879 137.652 150.261 137.446 150.335V150.32Z" fill="var(--sapContent_Illustrative_Color27)"/>
<path d="M152.435 150.644L158.245 152.541C158.48 152.629 158.539 152.953 158.348 153.012L153.611 154.468H153.494L147.595 152.468C147.36 152.379 147.286 152.056 147.478 151.997L152.288 150.614H152.42V150.644H152.435Z" fill="var(--sapContent_Illustrative_Color27)"/>
<path d="M217.113 132.154L222.261 133.228L216.039 135.155L210.861 133.934L217.098 132.154H217.113Z" fill="var(--sapContent_Illustrative_Color27)"/>
<path d="M147.831 140.259L144.992 139.464C144.771 139.391 144.683 139.053 144.874 139.008L149.228 137.802H149.317L152.126 138.552C152.347 138.611 152.435 138.964 152.229 139.008L147.919 140.259H147.831Z" fill="var(--sapContent_Illustrative_Color27)"/>
<path d="M141.182 142.186L138.461 141.347C138.211 141.259 138.108 140.862 138.328 140.818L142.594 139.641H142.697L145.418 140.42C145.668 140.494 145.786 140.906 145.551 140.95L141.27 142.186H141.153H141.182Z" fill="var(--sapContent_Illustrative_Color27)"/>
<path d="M140.388 145.922L137.151 144.849C136.901 144.76 136.798 144.378 137.019 144.319L141.285 143.083H141.402L144.786 144.113C145.036 144.201 145.139 144.584 144.918 144.643L140.52 145.922H140.388Z" fill="var(--sapContent_Illustrative_Color27)"/>
<path d="M154.435 138.347L151.699 137.611C151.479 137.553 151.39 137.2 151.596 137.141L155.906 135.949H155.995L158.613 136.655C158.834 136.714 158.907 137.067 158.716 137.126L154.509 138.347H154.421H154.435Z" fill="var(--sapContent_Illustrative_Color27)"/>
<path d="M122.501 147.613L119.397 146.613C119.147 146.525 119.029 146.142 119.235 146.098L123.163 145.01H123.295L126.237 146.01C126.487 146.098 126.59 146.481 126.384 146.525L122.648 147.613H122.516H122.501Z" fill="var(--sapContent_Illustrative_Color27)"/>
<path d="M160.966 136.464L158.142 135.699C157.995 135.655 157.922 135.405 158.069 135.361L162.673 134.081H162.732L165.497 134.802C165.644 134.846 165.718 135.096 165.57 135.14L161.04 136.449H160.966V136.464Z" fill="var(--sapContent_Illustrative_Color27)"/>
<path d="M128.296 145.922L125.413 144.951C125.163 144.863 125.06 144.481 125.266 144.422L129.635 143.216H129.767L132.606 144.157C132.856 144.245 132.959 144.628 132.753 144.687L128.443 145.952H128.311V145.922H128.296Z" fill="var(--sapContent_Illustrative_Color27)"/>
<path d="M134.754 144.054L131.974 143.142C131.724 143.054 131.621 142.672 131.827 142.613L136.004 141.465H136.122L138.902 142.318C139.152 142.407 139.255 142.789 139.034 142.848L134.857 144.069H134.724L134.754 144.04V144.054Z" fill="var(--sapContent_Illustrative_Color27)"/>
<path d="M190.724 128.726L194.857 127.535H194.946L199.314 128.447C199.55 128.491 199.609 128.873 199.403 128.932L195.049 130.197H194.96L190.827 129.227C190.592 129.168 190.533 128.8 190.739 128.741H190.709L190.724 128.726Z" fill="var(--sapContent_Illustrative_Color27)"/>
<path d="M186.061 127.623L190.047 126.52H190.121L192.048 126.932C192.283 126.976 192.342 127.373 192.136 127.432L188.164 128.579H188.076L186.12 128.123C185.884 128.065 185.811 127.697 186.031 127.623H186.061Z" fill="var(--sapContent_Illustrative_Color27)"/>
<path d="M174.352 132.566L172.102 131.992C171.866 131.933 171.807 131.565 172.013 131.506L176.353 130.3H176.441L178.574 130.845C178.809 130.903 178.868 131.271 178.662 131.33L174.44 132.566H174.352Z" fill="var(--sapContent_Illustrative_Color27)"/>
<path d="M167.659 134.507L164.953 133.801C164.805 133.757 164.732 133.507 164.879 133.463L169.468 132.183H169.527L172.131 132.86C172.278 132.904 172.337 133.169 172.204 133.213L167.703 134.507H167.644H167.659Z" fill="var(--sapContent_Illustrative_Color27)"/>
<path d="M181.06 130.595L179 130.08C178.765 130.021 178.706 129.654 178.912 129.595L183.354 128.374H183.443L185.458 128.844C185.693 128.903 185.767 129.271 185.546 129.33L181.148 130.624H181.06V130.595Z" fill="var(--sapContent_Illustrative_Color27)"/>
<path d="M151.626 155.116L148.743 156.013H148.625L142.447 154.042C142.197 153.954 142.094 153.586 142.315 153.527L145.492 152.615H145.61L151.493 154.616C151.743 154.704 151.817 155.072 151.626 155.131V155.116Z" fill="var(--sapContent_Illustrative_Color27)"/>
<path d="M187.458 136.773L192.357 138.023C192.504 138.067 192.548 138.317 192.401 138.362L187.679 139.715H187.62L182.781 138.465C182.634 138.42 182.575 138.17 182.722 138.126L187.385 136.773H187.458Z" fill="var(--sapContent_Illustrative_Color27)"/>
<path d="M180.633 138.729L185.473 139.979C185.62 140.024 185.664 140.274 185.531 140.318L180.604 141.73H180.545L175.823 140.465C175.676 140.421 175.617 140.171 175.764 140.126L180.589 138.744H180.648V138.714L180.633 138.729Z" fill="var(--sapContent_Illustrative_Color27)"/>
<path d="M194.239 134.816L198.888 135.993C199.108 136.052 199.167 136.405 198.961 136.464L194.622 137.699H194.534L189.915 136.523C189.694 136.464 189.635 136.111 189.841 136.052L194.151 134.816H194.239Z" fill="var(--sapContent_Illustrative_Color27)"/>
<path d="M214.347 131.58L209.214 130.507C209.214 130.507 205.478 129.712 205.448 129.712L202.183 129.021H202.094L198.623 130.021L190.194 132.463C190.003 132.522 190.062 132.89 190.283 132.948L194.122 133.919H194.21L201.888 131.698L209.155 133.537H209.243L214.392 132.066C214.597 132.007 214.539 131.625 214.318 131.58H214.347Z" fill="var(--sapContent_Illustrative_Color27)"/>
<path d="M173.734 140.73L178.206 141.921C178.412 141.98 178.486 142.318 178.294 142.377L174.043 143.583H173.955L169.513 142.377C169.292 142.318 169.233 141.98 169.425 141.921L173.661 140.7H173.749V140.73H173.734Z" fill="var(--sapContent_Illustrative_Color27)"/>
<path d="M201.727 132.654L206.581 133.787C206.802 133.846 206.86 134.213 206.654 134.257L201.462 135.743H201.374L196.726 134.566C196.505 134.508 196.446 134.154 196.637 134.096L201.653 132.639H201.741L201.727 132.654Z" fill="var(--sapContent_Illustrative_Color27)"/>
<path d="M144.094 148.393L139.549 149.702H139.431L136.137 148.57C135.886 148.481 135.784 148.114 136.004 148.04L140.505 146.746H140.638L143.991 147.849C144.242 147.937 144.33 148.305 144.124 148.378H144.094V148.393Z" fill="var(--sapContent_Illustrative_Color27)"/>
<path d="M160.29 144.613L164.438 145.789C164.688 145.863 164.776 146.26 164.555 146.319L159.451 147.775H159.334L155.391 146.554C155.141 146.466 155.053 146.084 155.274 146.039L160.187 144.627H160.304L160.29 144.613Z" fill="var(--sapContent_Illustrative_Color27)"/>
<path d="M176.367 136.449L180.957 135.125H181.016L185.149 136.184C185.311 136.228 185.355 136.493 185.208 136.537L180.589 137.876H180.53L176.441 136.817C176.279 136.773 176.235 136.508 176.382 136.464L176.367 136.449Z" fill="var(--sapContent_Illustrative_Color27)"/>
<path d="M183.619 130.801L188.12 129.507H188.208L192.342 130.477C192.577 130.536 192.636 130.904 192.43 130.963L187.767 132.316H187.679L183.693 131.301C183.457 131.242 183.398 130.875 183.604 130.816H183.634L183.619 130.801Z" fill="var(--sapContent_Illustrative_Color27)"/>
<path d="M138.372 146.525L133.93 147.805H133.812L130.65 146.731C130.4 146.643 130.297 146.26 130.503 146.216L134.872 144.951H135.004L138.255 146.025C138.505 146.113 138.608 146.495 138.387 146.54L138.372 146.525Z" fill="var(--sapContent_Illustrative_Color27)"/>
<path d="M153.141 146.672L157.098 147.879C157.348 147.967 157.436 148.335 157.216 148.393L152.361 149.791H152.244L148.449 148.555C148.199 148.467 148.11 148.099 148.316 148.04L153.009 146.687H153.126L153.141 146.672Z" fill="var(--sapContent_Illustrative_Color27)"/>
<path d="M150.228 150.408L145.536 151.762H145.418L141.712 150.511C141.462 150.423 141.373 150.055 141.579 149.982L146.183 148.643H146.301L150.111 149.879C150.361 149.967 150.449 150.335 150.243 150.394L150.228 150.408Z" fill="var(--sapContent_Illustrative_Color27)"/>
<path d="M167.203 142.612L171.645 143.804C171.851 143.863 171.925 144.201 171.734 144.26L166.88 145.642H166.791L162.481 144.422C162.261 144.348 162.187 144.024 162.393 143.966L167.115 142.612H167.218H167.203Z" fill="var(--sapContent_Illustrative_Color27)"/>
<path d="M156.259 142.23L160.834 140.921H160.922L164.747 141.951C164.967 142.009 165.041 142.348 164.835 142.407L160.187 143.76H160.099L156.362 142.701C156.142 142.627 156.068 142.304 156.259 142.245V142.23Z" fill="var(--sapContent_Illustrative_Color27)"/>
<path d="M149.361 144.216L154.023 142.862H154.141L157.716 143.877C157.966 143.951 158.069 144.348 157.833 144.407L153.023 145.79H152.906L149.464 144.73C149.213 144.642 149.11 144.26 149.331 144.201H149.361V144.216Z" fill="var(--sapContent_Illustrative_Color27)"/>
<path d="M163.129 140.259L167.365 139.038H167.453L171.278 140.068C171.498 140.127 171.557 140.465 171.366 140.524L167.144 141.745H167.056L163.232 140.715C163.011 140.656 162.937 140.318 163.143 140.259H163.129Z" fill="var(--sapContent_Illustrative_Color27)"/>
<path d="M169.469 138.435L174.19 137.082H174.249L178.383 138.156C178.53 138.2 178.589 138.45 178.441 138.494L173.661 139.877H173.602L169.542 138.773C169.395 138.729 169.336 138.479 169.469 138.435Z" fill="var(--sapContent_Illustrative_Color27)"/>
<path d="M180.898 134.228L176.956 133.213C176.735 133.154 176.662 132.786 176.868 132.727L181.119 131.492H181.207L185.193 132.507C185.428 132.566 185.487 132.933 185.281 132.992L181.001 134.228H180.913H180.898Z" fill="var(--sapContent_Illustrative_Color27)"/>
<path d="M142.624 146.158L147.125 144.863H147.242L150.699 145.937C150.949 146.025 151.052 146.408 150.831 146.452L146.227 147.776H146.11L142.771 146.673C142.521 146.584 142.432 146.202 142.638 146.143L142.624 146.158Z" fill="var(--sapContent_Illustrative_Color27)"/>
<path d="M191.724 134.64L187.444 135.876H187.355L183.501 134.89C183.281 134.831 183.207 134.478 183.413 134.419L187.708 133.184H187.797L191.651 134.169C191.871 134.228 191.93 134.581 191.724 134.64Z" fill="var(--sapContent_Illustrative_Color27)"/>
<path d="M167.306 138.156L163.217 137.053C163.07 137.008 162.996 136.758 163.143 136.714L167.733 135.39H167.792L171.969 136.479C172.116 136.523 172.175 136.773 172.043 136.817L167.38 138.17H167.321V138.141L167.306 138.156Z" fill="var(--sapContent_Illustrative_Color27)"/>
<path d="M160.76 140.038L156.95 139.023C156.73 138.965 156.656 138.612 156.848 138.567L161.054 137.332H161.143L164.967 138.361C165.188 138.42 165.261 138.773 165.055 138.817L160.834 140.038H160.746H160.76Z" fill="var(--sapContent_Illustrative_Color27)"/>
<path d="M174.146 136.185L169.704 135.023C169.601 134.993 169.571 134.846 169.674 134.831L174.426 133.463H174.529L179 134.611C179.088 134.64 179.133 134.787 179.03 134.802L174.22 136.199H174.161L174.146 136.185Z" fill="var(--sapContent_Illustrative_Color27)"/>
<path d="M153.95 142.009L150.243 140.95C150.022 140.877 149.934 140.553 150.14 140.494L154.524 139.229H154.612L158.422 140.259C158.642 140.318 158.716 140.656 158.525 140.715L154.038 142.009H153.95Z" fill="var(--sapContent_Illustrative_Color27)"/>
<path d="M147.037 143.995L143.668 142.965C143.418 142.877 143.315 142.495 143.536 142.436L147.934 141.171H148.051L151.582 142.171C151.832 142.244 151.935 142.642 151.714 142.7L147.169 143.995H147.051H147.037Z" fill="var(--sapContent_Illustrative_Color27)"/>
<path d="M142.979 105.473H142.926C142.295 105.617 141.69 105.368 141.23 104.894L131.79 94.7182C130.935 93.7847 130.922 92.2464 131.79 91.2735C132.658 90.3137 134.038 90.2743 134.88 91.2078L142.361 99.3724L156.481 74.8917C157.06 73.8924 158.243 73.6426 159.111 74.3789C159.965 75.0757 160.228 76.4694 159.65 77.4686L144.425 104.368C144.096 104.947 143.557 105.355 142.965 105.486H142.992L142.979 105.473Z" fill="var(--sapContent_Illustrative_Color9)"/>
</g>
<defs>
<clipPath id="clip0_396_5942">
<rect width="197.564" height="131.18" fill="var(--sapContent_Illustrative_Color8)" transform="translate(61 47)"/>
</clipPath>
</defs>
</svg>
