<svg width="320" height="240" viewBox="0 0 320 240" fill="none" xmlns="http://www.w3.org/2000/svg" id="sapIllus-Scene-AddDimensions">
<rect y="57.0474" width="320" height="138" rx="24" fill="var(--sapContent_Illustrative_Color20)"/>
<path d="M208.208 170.399L157.886 158.587C157.765 158.55 157.644 158.531 157.523 158.559L64.3573 171.488C60.7979 171.898 60.4625 172.895 61.5433 173.417L111.967 185.657C114.157 186.403 116.486 186.58 118.76 186.17L205.04 172.067C208.329 171.629 208.99 170.65 208.208 170.399Z" fill="var(--sapContent_Illustrative_Color21)"/>
<path d="M178.502 72.5078L206.933 154.171C207.54 157.289 204.241 159.671 202.299 159.837L113.36 172.454C111.844 172.584 110.459 171.581 110.112 170.094L89.0069 81.6602C88.2563 78.0223 91.2806 73.6627 93.1933 73.5761L175.427 70.328C176.827 70.2631 178.098 71.1581 178.502 72.5078Z" fill="var(--sapContent_Illustrative_Color14)"/>
<path d="M180.84 70.0107L206.803 153.464C207.366 155.334 206.074 157.246 204.125 157.412L115.698 169.957C114.182 170.087 112.797 169.084 112.45 167.597L90.9118 77.3368C90.4715 75.4674 91.8429 73.6629 93.7629 73.5691L177.765 67.8236C179.165 67.7587 180.436 68.6537 180.84 70.0034V70.0107Z" fill="var(--sapContent_Illustrative_Color2)"/>
<path d="M124.958 78.0814L126.118 82.402C126.199 82.6921 125.989 82.9823 125.691 82.9985L109.884 83.998C109.731 84.006 109.675 84.1995 109.804 84.2882L190.717 142.124C190.846 142.212 191.007 142.091 190.967 141.946L186.187 126.293C186.098 126.01 186.292 125.712 186.59 125.68L190.757 125.237C190.983 125.212 191.193 125.349 191.265 125.567L199.052 150.741C199.14 151.023 198.955 151.313 198.657 151.353L174.547 154.521C174.313 154.553 174.096 154.408 174.031 154.183L172.637 149.378C172.556 149.096 172.742 148.814 173.032 148.774L188.202 146.863C188.347 146.847 188.395 146.654 188.275 146.573L106.749 88.3346C106.628 88.246 106.466 88.3588 106.499 88.5039L110.44 104.166C110.513 104.448 110.311 104.73 110.021 104.754L105.217 105.141C104.983 105.157 104.774 105.004 104.717 104.778L98.5428 79.8064C98.4702 79.5162 98.6798 79.2341 98.978 79.218L124.466 77.7267C124.692 77.7106 124.893 77.8638 124.95 78.0814L124.958 78.0814Z" fill="var(--sapContent_Illustrative_Color14)"/>
<path d="M121.572 58.511L140.44 128.323C140.844 129.795 142.273 130.748 143.796 130.553L223.641 120.21C228.369 119.012 229.718 115.201 229.076 113.36L204.015 49.7196C203.561 48.4204 202.297 47.5831 200.926 47.6697L125.297 48.6297C123.355 48.7524 119.457 51.5457 121.572 58.5182V58.511Z" fill="var(--sapContent_Illustrative_Color22)"/>
<path d="M122.569 52.4839L142.367 125.666C142.771 127.139 144.201 128.092 145.724 127.897L226.579 117.423C228.513 117.171 229.726 115.208 229.083 113.367L205.935 47.056C205.481 45.7568 204.218 44.9195 202.846 45.0061L125.333 48.6007C123.391 48.7234 122.049 50.6 122.569 52.4767V52.4839Z" fill="var(--sapContent_Illustrative_Color8)"/>
<path d="M168.68 76.21L159.873 76.9407C159.39 76.9832 159.102 77.3519 159.234 77.7701L171.043 114.615C171.183 115.054 171.699 115.361 172.188 115.305L181.11 114.271C181.592 114.214 181.874 113.818 181.727 113.386L169.79 76.8933C169.658 76.4821 169.156 76.1746 168.68 76.217L168.68 76.21Z" fill="var(--sapContent_Illustrative_Color2)"/>
<path d="M206.095 91.4792L197.702 92.3087C197.24 92.3578 196.98 92.7261 197.119 93.1442L203.164 110.906C203.311 111.331 203.806 111.632 204.267 111.575L212.706 110.591C213.168 110.535 213.421 110.153 213.275 109.735L207.176 92.142C207.037 91.7309 206.549 91.4302 206.095 91.4792Z" fill="var(--sapContent_Illustrative_Color2)"/>
<path d="M156.258 89.6746L147.165 90.5218C146.662 90.5716 146.366 90.9544 146.499 91.3866L154.304 116.546C154.444 116.992 154.967 117.306 155.47 117.243L164.644 116.177C165.14 116.12 165.435 115.717 165.295 115.277L157.396 90.3645C157.264 89.9393 156.755 89.6319 156.258 89.6746Z" fill="var(--sapContent_Illustrative_Color2)"/>
<path d="M180.071 61.7244L171.535 62.3319C171.066 62.3672 170.791 62.7216 170.924 63.1258L187.327 112.732C187.467 113.164 187.976 113.465 188.452 113.415L197.129 112.406C197.597 112.35 197.864 111.961 197.718 111.536L181.153 62.3942C181.021 61.99 180.533 61.6963 180.071 61.7244Z" fill="var(--sapContent_Illustrative_Color2)"/>
<path d="M208.062 53.1394L205.881 46.9237C205.427 45.6254 204.165 44.7887 202.794 44.8753L125.336 48.46C123.388 48.5827 122.054 50.458 122.566 52.3405L124.134 57.7701L208.055 53.1394H208.062Z" fill="var(--sapContent_Illustrative_Color2)"/>
<path d="M257.621 123.56C257.621 123.56 251.14 132.366 238.552 134.002C225.964 135.637 208.697 126.319 204.186 111.984C199.283 96.4056 208.252 85.7297 223.579 82.4076C237.61 81.2888 257.621 123.56 257.621 123.56Z" fill="var(--sapContent_Illustrative_Color16)"/>
<path d="M259.323 103.898C264.535 117.54 257.23 130.359 242.527 132.142C227.463 133.968 211.209 123.488 206.697 109.146C202.338 95.2944 210.797 83.4642 225.146 82.3166C239.178 81.1978 254.285 90.6893 259.331 103.891L259.323 103.898Z" fill="var(--sapContent_Illustrative_Color15)"/>
<path d="M247.785 102.937C247.655 102.591 247.308 102.376 246.94 102.414L236.268 103.508C235.897 103.546 235.547 103.327 235.42 102.976L231.985 93.508C231.859 93.1605 231.515 92.9416 231.147 92.975L225.515 93.4857C224.986 93.5336 224.644 94.0677 224.822 94.5684L227.939 103.347C228.115 103.844 227.78 104.375 227.255 104.429L216.89 105.492C216.37 105.545 216.034 106.07 216.203 106.565L217.95 111.669C218.073 112.029 218.43 112.256 218.808 112.214L229.99 110.987C230.366 110.946 230.72 111.168 230.846 111.524L234.359 121.412C234.486 121.77 234.846 121.993 235.224 121.947L240.987 121.247C241.507 121.184 241.833 120.654 241.654 120.162L238.36 111.084C238.18 110.588 238.512 110.055 239.036 109.998L248.943 108.913C249.471 108.855 249.803 108.315 249.617 107.818L247.785 102.937Z" fill="var(--sapContent_Illustrative_Color8)"/>
</svg>
