<svg width="128" height="128" viewBox="0 0 128 128" fill="none" xmlns="http://www.w3.org/2000/svg" id="sapIllus-Spot-SuccessScreen">
<mask id="mask0_396_5825" style="mask-type:alpha" maskUnits="userSpaceOnUse" x="0" y="0" width="128" height="128">
<circle cx="64" cy="64" r="64" style="fill:var(--sapContent_Illustrative_Color7)"/>
</mask>
<g mask="url(#mask0_396_5825)">
<path d="M181.139 -59.3584H-65.9228C-67.5332 -59.36 -69.1281 -59.022 -70.6163 -58.3636C-72.1045 -57.7053 -73.4569 -56.7396 -74.5962 -55.5218C-75.7354 -54.3039 -76.6392 -52.8577 -77.2558 -51.2659C-77.8724 -49.6741 -78.1898 -47.9679 -78.1898 -46.2447V109.145C-78.1898 112.627 -76.8974 115.965 -74.5969 118.427C-72.2964 120.888 -69.1762 122.271 -65.9228 122.271H181.139C184.392 122.271 187.512 120.888 189.813 118.427C192.113 115.965 193.406 112.627 193.406 109.145V-46.2447C193.406 -47.9679 193.088 -49.6741 192.472 -51.2659C191.855 -52.8577 190.951 -54.3039 189.812 -55.5218C188.673 -56.7396 187.32 -57.7053 185.832 -58.3636C184.344 -59.022 182.749 -59.36 181.139 -59.3584Z" style="fill:var(--sapContent_Illustrative_Color7)"/>
<rect x="-51.0303" y="99.3552" width="73.5398" height="11.0336" rx="3.39494" style="fill:var(--sapContent_Illustrative_Color19)"/>
<rect x="16.2508" y="99.3552" width="162.726" height="11.0336" rx="3.39494" style="fill:var(--sapContent_Illustrative_Color18)"/>
<rect x="-16.2321" y="8.54053" width="38.1931" height="48.378" rx="4.24368" style="fill:var(--sapContent_Illustrative_Color19)"/>
<rect x="-15.0555" y="7.59937" width="38.1931" height="48.378" rx="4.24368" style="fill:var(--sapContent_Illustrative_Color18)"/>
<rect x="-12.5093" y="10.1455" width="33.1007" height="43.2855" rx="2.54621" style="fill:var(--sapContent_Illustrative_Color7)"/>
<path fill-rule="evenodd" clip-rule="evenodd" d="M18.8939 53.2861V10.2903C19.8829 10.6398 20.5914 11.583 20.5914 12.6916V50.8847C20.5914 51.9934 19.8829 52.9365 18.8939 53.2861Z" style="fill:var(--sapContent_Illustrative_Color19)"/>
<mask id="mask1_396_5825" style="mask-type:alpha" maskUnits="userSpaceOnUse" x="-13" y="10" width="34" height="44">
<rect x="-12.5093" y="10.1458" width="33.1007" height="43.2855" rx="2.54621" style="fill:var(--sapContent_Illustrative_Color7)"/>
</mask>
<g mask="url(#mask1_396_5825)">
<path d="M7.92269 42.2467L-4.07397 44.5947L-5.59633 42.1157C-6.53535 40.5837 -7.12869 38.8661 -7.3351 37.0821C-7.5415 35.2982 -7.35602 33.4908 -6.79155 31.7857C-6.22708 30.0805 -5.29717 28.5185 -4.06646 27.2082C-2.83576 25.8979 -1.3338 24.8708 0.334991 24.1982L3.99616 22.7247C8.64366 20.8527 13.3769 25.2331 11.8492 29.996L7.92269 42.2467Z" style="fill:var(--sapContent_Illustrative_Color19)"/>
<path d="M5.78394 60.4799L1.71536 58.9422C1.28798 58.7802 0.904472 58.5208 0.595469 58.1846C0.286465 57.8485 0.0605271 57.4449 -0.0643048 57.006L-3.48962 45.0227C-3.56361 44.765 -3.56267 44.4916 -3.48693 44.2344C-3.41119 43.9772 -3.26376 43.7467 -3.06182 43.5699C-2.85987 43.3931 -2.61173 43.2771 -2.34629 43.2356C-2.08086 43.1941 -1.80905 43.2286 -1.56255 43.3353L7.94151 47.4403L8.84742 58.1747C8.87957 58.5557 8.81442 58.9386 8.65805 59.2877C8.50168 59.6368 8.2592 59.9406 7.95325 60.1708C7.64729 60.401 7.28785 60.5501 6.90849 60.6042C6.52914 60.6582 6.14224 60.6155 5.78394 60.4799Z" style="fill:var(--sapContent_Illustrative_Color18)"/>
<path d="M8.34885 52.2777L8.14515 49.8415C7.33496 49.2897 6.46678 48.8279 5.55605 48.4642C3.01789 47.432 0.696815 47.2475 0.369828 48.0497C0.0428413 48.852 1.83323 50.3362 4.36872 51.3685C5.90984 51.9943 7.3652 52.3071 8.34885 52.2777Z" style="fill:var(--sapContent_Illustrative_Color19)"/>
<path d="M3.32714 31.4124L7.58241 31.6431C8.29754 31.6805 8.99826 31.8582 9.64447 32.1661C10.2907 32.474 10.8697 32.906 11.3484 33.4374C11.827 33.9689 12.196 34.5893 12.4341 35.2631C12.6721 35.937 12.7747 36.6511 12.7358 37.3646L12.3168 45.0604C12.2384 46.4995 11.5903 47.8486 10.515 48.8109C9.43974 49.7732 8.02539 50.2699 6.5831 50.1917L4.76591 50.0932C2.677 49.9799 0.718716 49.0433 -0.678116 47.4895C-2.07495 45.9356 -2.79592 43.8917 -2.68242 41.8074L-2.39582 36.5443C-2.31755 35.107 -1.67101 33.7595 -0.59807 32.7974C0.474868 31.8352 1.88654 31.3371 3.32714 31.4124Z" style="fill:var(--sapContent_Illustrative_Color18)"/>
<path d="M9.5952 38.7891L8.33014 42.0971C8.32263 42.1164 8.32001 42.1373 8.32252 42.1578C8.32503 42.1784 8.33259 42.198 8.34452 42.2149C8.35645 42.2319 8.3724 42.2456 8.39093 42.2549C8.40946 42.2642 8.43001 42.2688 8.45075 42.2683H10.5494C10.5688 42.2685 10.588 42.2643 10.6055 42.2559C10.623 42.2475 10.6383 42.2352 10.6502 42.2199C10.6621 42.2046 10.6704 42.1868 10.6743 42.1678C10.6782 42.1488 10.6776 42.1292 10.6726 42.1105L9.83911 38.8051C9.83236 38.7789 9.81749 38.7556 9.79664 38.7383C9.77579 38.721 9.75001 38.7108 9.72297 38.709C9.69594 38.7072 9.66904 38.714 9.6461 38.7284C9.62315 38.7428 9.60534 38.764 9.5952 38.7891Z" style="fill:var(--sapContent_Illustrative_Color19)"/>
<path d="M-3.02074 41.2013L-4.854 40.4578L0.131205 34.061L-0.474527 37.3343C-0.709473 38.6129 -1.21774 39.826 -1.96473 40.8911C-2.07938 41.0546 -2.24636 41.1744 -2.43826 41.2308C-2.63015 41.2872 -2.83555 41.2768 -3.02074 41.2013Z" style="fill:var(--sapContent_Illustrative_Color19)"/>
<path d="M7.16528 35.3545C12.6908 34.5963 16.8936 31.9748 16.5524 29.4991C16.2112 27.0234 11.4552 25.631 5.92966 26.3892C0.4041 27.1473 -3.79865 29.7689 -3.45744 32.2446C-3.11623 34.7203 1.63973 36.1126 7.16528 35.3545Z" style="fill:var(--sapContent_Illustrative_Color19)"/>
<path d="M0.043291 34.0315L-3.35962 32.6479L-4.94144 36.5213L-1.53853 37.9048L0.043291 34.0315Z" style="fill:var(--sapContent_Illustrative_Color19)"/>
<path d="M-0.151345 27.4657C2.20746 25.0572 3.59269 22.591 2.94267 21.9572C2.29264 21.3234 -0.146499 22.762 -2.50531 25.1704C-4.86411 27.5788 -6.24936 30.0451 -5.59933 30.6789C-4.9493 31.3127 -2.51015 29.8741 -0.151345 27.4657Z" style="fill:var(--sapContent_Illustrative_Color19)"/>
</g>
<rect width="37.5566" height="5.72897" rx="2.54621" transform="matrix(-1 0 0 1 61.1355 93.3743)" style="fill:var(--sapContent_Illustrative_Color14)"/>
<path d="M51.5679 97.5023L49.041 93.3743H139.431V97.0792C139.431 97.346 139.386 97.6101 139.296 97.8564C139.207 98.1027 139.077 98.3264 138.912 98.5145C138.748 98.7026 138.552 98.8514 138.338 98.9524C138.123 99.0535 137.893 99.1047 137.661 99.1032H54.2539C53.7272 99.1045 53.2079 98.9597 52.7403 98.681C52.2727 98.4022 51.8705 97.9979 51.5679 97.5023Z" style="fill:var(--sapContent_Illustrative_Color13)"/>
<path d="M100.762 35.4488H14.1676C13.8618 35.4403 13.558 35.5017 13.2799 35.6283C13.0019 35.7549 12.7571 35.9433 12.5645 36.1788C12.372 36.4143 12.2368 36.6905 12.1696 36.9862C12.1024 37.2818 12.1049 37.5888 12.177 37.8833L23.703 91.7769C23.8007 92.2282 24.0516 92.6327 24.4138 92.9232C24.7759 93.2137 25.2276 93.3726 25.6937 93.3736H111.293C111.596 93.381 111.896 93.3199 112.172 93.195C112.447 93.07 112.69 92.8845 112.882 92.6526C113.074 92.4207 113.21 92.1485 113.279 91.8567C113.349 91.5649 113.351 91.2612 113.284 90.9687L102.753 37.0849C102.673 36.6221 102.428 36.2029 102.063 35.903C101.698 35.603 101.237 35.4419 100.762 35.4488Z" style="fill:var(--sapContent_Illustrative_Color2)"/>
<path d="M96.819 43.948C96.5186 42.3415 95.1162 41.177 93.4819 41.177H70.6981C68.6603 41.177 67.0816 42.9597 67.3281 44.9825L70.3786 70.0203C70.5862 71.7238 72.0324 73.0046 73.7486 73.0046H98.163C100.288 73.0046 101.891 71.0745 101.5 68.9857L96.819 43.948Z" style="fill:var(--sapContent_Illustrative_Color13)"/>
<path d="M24.7282 47.5732L67.9222 47.7224L84.0441 47.7821C84.518 47.7752 84.9788 47.9378 85.3435 48.2405C85.7081 48.5432 85.9527 48.9661 86.0332 49.4332L90.4989 72.8468L92.8858 85.3891C92.9507 85.6836 92.9478 85.989 92.8774 86.2822C92.8069 86.5754 92.6708 86.8487 92.4792 87.0815C92.2875 87.3144 92.0455 87.5005 91.7713 87.6261C91.4972 87.7516 91.1981 87.8132 90.8967 87.8061H31.3819C30.9083 87.8004 30.4513 87.6308 30.0886 87.3262C29.7259 87.0215 29.4801 86.6006 29.3928 86.1351L22.7391 49.9803C22.6854 49.6876 22.6964 49.3867 22.7713 49.0987C22.8462 48.8107 22.9833 48.5426 23.1728 48.3132C23.3624 48.0839 23.5999 47.8988 23.8686 47.7709C24.1373 47.6431 24.4307 47.5756 24.7282 47.5732Z" style="fill:var(--sapContent_Illustrative_Color8)"/>
<path d="M56.8944 50.7269C54.8001 50.6966 52.7225 51.1052 50.7951 51.9265C48.8706 52.7582 47.1411 53.984 45.7176 55.5251C44.3049 57.0859 43.2347 58.9262 42.5762 60.9272C41.9182 62.928 41.6897 65.0454 41.9056 67.1409C42.7039 76.1456 50.6873 83.4909 59.6806 83.4909C61.7739 83.5231 63.8505 83.1144 65.776 82.2913C67.7002 81.4682 69.4301 80.2489 70.8534 78.7126C72.2688 77.1531 73.3405 75.3125 73.9989 73.3106C74.6569 71.3084 74.8854 69.1896 74.6695 67.0929C73.8831 58.0522 65.9276 50.7269 56.8944 50.7269ZM70.2467 78.1168C68.9038 79.5676 67.2719 80.72 65.4566 81.4996C63.6366 82.276 61.6746 82.6628 59.6966 82.6352C51.0985 82.6352 43.4983 75.6458 42.7438 67.0409C42.5398 65.073 42.7506 63.0842 43.3625 61.2031C43.9815 59.3094 44.9906 57.5671 46.3244 56.0889C47.6667 54.6384 49.2987 53.4872 51.1144 52.7102C52.9324 51.9316 54.8935 51.5447 56.8705 51.5746C65.4646 51.5746 73.0728 58.56 73.8232 67.1489C74.0296 69.1305 73.8161 71.1335 73.1965 73.0267C72.5807 74.9205 71.5712 76.6622 70.2347 78.1368L70.2467 78.1168Z" style="fill:var(--sapContent_Illustrative_Color3)"/>
<path d="M57.1018 53.6814C49.7411 53.6814 44.2446 59.7112 44.8912 67.0885C45.5379 74.4658 52.0763 80.4956 59.4449 80.4956C66.8136 80.4956 72.3022 74.4618 71.6595 67.0885C71.0169 59.7152 64.4625 53.6814 57.1018 53.6814ZM64.2869 64.0016L56.9581 72.0467C56.8373 72.1736 56.6921 72.2746 56.5312 72.3436C56.3703 72.4126 56.1971 72.4482 56.0221 72.4482C55.847 72.4482 55.6738 72.4126 55.5129 72.3436C55.352 72.2746 55.2068 72.1736 55.086 72.0467L52.1761 69.3676C52.0393 69.2571 51.9261 69.1201 51.8433 68.9647C51.7605 68.8094 51.7097 68.639 51.6941 68.4636C51.6784 68.2882 51.6982 68.1115 51.7522 67.9439C51.8062 67.7764 51.8934 67.6214 52.0084 67.4883C52.1296 67.3613 52.2751 67.2602 52.4364 67.1912C52.5976 67.1221 52.7711 67.0865 52.9465 67.0865C53.1218 67.0865 53.2954 67.1221 53.4566 67.1912C53.6178 67.2602 53.7634 67.3613 53.8845 67.4883L55.7766 69.2317L62.2511 62.1263C62.3719 61.9994 62.5171 61.8984 62.678 61.8294C62.8389 61.7603 63.0121 61.7247 63.1872 61.7247C63.3622 61.7247 63.5354 61.7603 63.6963 61.8294C63.8572 61.8984 64.0024 61.9994 64.1232 62.1263C64.2602 62.2362 64.3736 62.3726 64.4567 62.5275C64.5399 62.6823 64.591 62.8523 64.607 63.0274C64.623 63.2025 64.6036 63.379 64.55 63.5464C64.4964 63.7137 64.4096 63.8686 64.2949 64.0016H64.2869Z" style="fill:var(--sapContent_Illustrative_Color12)"/>
</g>
</svg>
