<svg width="128" height="112" viewBox="0 0 128 112" fill="none" xmlns="http://www.w3.org/2000/svg" id="sapIllus-Spot-SimpleCalendar">
<g clip-path="url(#clip0_101_5527)">
<path d="M109.816 28.8893H6.16691C5.41377 28.8893 4.80322 29.4999 4.80322 30.253V110.563C4.80322 111.316 5.41377 111.927 6.16691 111.927H109.816C110.569 111.927 111.18 111.316 111.18 110.563V30.253C111.18 29.4999 110.569 28.8893 109.816 28.8893Z" fill="var(--sapContent_Illustrative_Color6)"/>
<path d="M105.013 24.4074H1.36369C0.610544 24.4074 0 25.018 0 25.7711V106.081C0 106.834 0.610544 107.445 1.36369 107.445H105.013C105.766 107.445 106.376 106.834 106.376 106.081V25.7711C106.376 25.018 105.766 24.4074 105.013 24.4074Z" fill="var(--sapContent_Illustrative_Color2)"/>
<path d="M105.135 24.199H1.36527C0.611254 24.199 0 24.8095 0 25.5627V37.7664C0 38.5195 0.611254 39.1301 1.36527 39.1301H105.135C105.889 39.1301 106.5 38.5195 106.5 37.7664V25.5627C106.5 24.8095 105.889 24.199 105.135 24.199Z" fill="var(--sapContent_Illustrative_Color3)"/>
<path d="M22.7919 34.2051C24.2934 34.2051 25.5106 32.9568 25.5106 31.417C25.5106 29.8771 24.2934 28.6288 22.7919 28.6288C21.2904 28.6288 20.0732 29.8771 20.0732 31.417C20.0732 32.9568 21.2904 34.2051 22.7919 34.2051Z" fill="var(--sapContent_Illustrative_Color5)"/>
<path d="M81.882 34.2051C83.3835 34.2051 84.6007 32.9568 84.6007 31.417C84.6007 29.8771 83.3835 28.6288 81.882 28.6288C80.3805 28.6288 79.1633 29.8771 79.1633 31.417C79.1633 32.9568 80.3805 34.2051 81.882 34.2051Z" fill="var(--sapContent_Illustrative_Color5)"/>
<path d="M22.844 17.4587H22.7484C21.8466 17.4587 21.1155 18.1898 21.1155 19.0916V30.9653C21.1155 31.8671 21.8466 32.5982 22.7484 32.5982H22.844C23.7458 32.5982 24.4769 31.8671 24.4769 30.9653V19.0916C24.4769 18.1898 23.7458 17.4587 22.844 17.4587Z" fill="var(--sapContent_Illustrative_Color6)"/>
<path d="M81.9082 17.3718H81.8126C80.9108 17.3718 80.1797 18.1029 80.1797 19.0048V30.8784C80.1797 31.7803 80.9108 32.5114 81.8126 32.5114H81.9082C82.81 32.5114 83.5411 31.7803 83.5411 30.8784V19.0048C83.5411 18.1029 82.81 17.3718 81.9082 17.3718Z" fill="var(--sapContent_Illustrative_Color6)"/>
<path d="M92.5832 53.2794H13.2287C12.4755 53.2794 11.865 53.89 11.865 54.6431V98.7762C11.865 99.5294 12.4755 100.14 13.2287 100.14H92.5832C93.3363 100.14 93.9469 99.5294 93.9469 98.7762V54.6431C93.9469 53.89 93.3363 53.2794 92.5832 53.2794Z" fill="var(--sapContent_Illustrative_Color8)"/>
<path d="M45.6446 45.1928H14.3666C13.4312 45.1928 12.6729 45.9511 12.6729 46.8866C12.6729 47.822 13.4312 48.5803 14.3666 48.5803H45.6446C46.58 48.5803 47.3383 47.822 47.3383 46.8866C47.3383 45.9511 46.58 45.1928 45.6446 45.1928Z" fill="var(--sapContent_Illustrative_Color8)"/>
<path d="M23.6256 60.506H19.4998C19.1496 60.506 18.8657 60.7899 18.8657 61.1401V64.6058C18.8657 64.956 19.1496 65.2399 19.4998 65.2399H23.6256C23.9758 65.2399 24.2597 64.956 24.2597 64.6058V61.1401C24.2597 60.7899 23.9758 60.506 23.6256 60.506Z" fill="var(--sapContent_Illustrative_Color6)"/>
<path d="M34.1529 60.5234H30.0271C29.6769 60.5234 29.3931 60.8073 29.3931 61.1575V64.6232C29.3931 64.9734 29.6769 65.2573 30.0271 65.2573H34.1529C34.5031 65.2573 34.787 64.9734 34.787 64.6232V61.1575C34.787 60.8073 34.5031 60.5234 34.1529 60.5234Z" fill="var(--sapContent_Illustrative_Color6)"/>
<path d="M44.8107 60.5669H40.6849C40.3347 60.5669 40.0508 60.8508 40.0508 61.201V64.6666C40.0508 65.0168 40.3347 65.3007 40.6849 65.3007H44.8107C45.1608 65.3007 45.4447 65.0168 45.4447 64.6666V61.201C45.4447 60.8508 45.1608 60.5669 44.8107 60.5669Z" fill="var(--sapContent_Illustrative_Color6)"/>
<path d="M55.3465 60.5842H51.2207C50.8706 60.5842 50.5867 60.8681 50.5867 61.2183V64.684C50.5867 65.0342 50.8706 65.3181 51.2207 65.3181H55.3465C55.6967 65.3181 55.9806 65.0342 55.9806 64.684V61.2183C55.9806 60.8681 55.6967 60.5842 55.3465 60.5842Z" fill="var(--sapContent_Illustrative_Color6)"/>
<path d="M66.0997 60.6971H61.9739C61.6237 60.6971 61.3398 60.981 61.3398 61.3312V64.7969C61.3398 65.1471 61.6237 65.431 61.9739 65.431H66.0997C66.4499 65.431 66.7338 65.1471 66.7338 64.7969V61.3312C66.7338 60.981 66.4499 60.6971 66.0997 60.6971Z" fill="var(--sapContent_Illustrative_Color6)"/>
<path d="M76.6271 60.7145H72.5013C72.1511 60.7145 71.8672 60.9984 71.8672 61.3486V64.8143C71.8672 65.1645 72.1511 65.4484 72.5013 65.4484H76.6271C76.9773 65.4484 77.2611 65.1645 77.2611 64.8143V61.3486C77.2611 60.9984 76.9773 60.7145 76.6271 60.7145Z" fill="var(--sapContent_Illustrative_Color6)"/>
<path d="M86.3641 60.6971H82.2383C81.8881 60.6971 81.6042 60.981 81.6042 61.3312V64.7969C81.6042 65.1471 81.8881 65.431 82.2383 65.431H86.3641C86.7143 65.431 86.9982 65.1471 86.9982 64.7969V61.3312C86.9982 60.981 86.7143 60.6971 86.3641 60.6971Z" fill="var(--sapContent_Illustrative_Color6)"/>
<path d="M23.7213 69.8608H19.5955C19.2453 69.8608 18.9614 70.1447 18.9614 70.4948V73.9605C18.9614 74.3107 19.2453 74.5946 19.5955 74.5946H23.7213C24.0715 74.5946 24.3554 74.3107 24.3554 73.9605V70.4948C24.3554 70.1447 24.0715 69.8608 23.7213 69.8608Z" fill="var(--sapContent_Illustrative_Color6)"/>
<path d="M34.2486 69.8782H30.1228C29.7727 69.8782 29.4888 70.1621 29.4888 70.5122V73.9779C29.4888 74.3281 29.7727 74.612 30.1228 74.612H34.2486C34.5988 74.612 34.8827 74.3281 34.8827 73.9779V70.5122C34.8827 70.1621 34.5988 69.8782 34.2486 69.8782Z" fill="var(--sapContent_Illustrative_Color6)"/>
<path d="M44.9061 69.9216H40.7803C40.4301 69.9216 40.1462 70.2055 40.1462 70.5557V74.0214C40.1462 74.3716 40.4301 74.6554 40.7803 74.6554H44.9061C45.2563 74.6554 45.5402 74.3716 45.5402 74.0214V70.5557C45.5402 70.2055 45.2563 69.9216 44.9061 69.9216Z" fill="var(--sapContent_Illustrative_Color6)"/>
<path d="M55.4423 69.939H51.3164C50.9663 69.939 50.6824 70.2228 50.6824 70.573V74.0387C50.6824 74.3889 50.9663 74.6728 51.3164 74.6728H55.4423C55.7924 74.6728 56.0763 74.3889 56.0763 74.0387V70.573C56.0763 70.2228 55.7924 69.939 55.4423 69.939Z" fill="var(--sapContent_Illustrative_Color6)"/>
<path d="M66.1954 70.0519H62.0696C61.7194 70.0519 61.4355 70.3358 61.4355 70.686V74.1516C61.4355 74.5018 61.7194 74.7857 62.0696 74.7857H66.1954C66.5456 74.7857 66.8295 74.5018 66.8295 74.1516V70.686C66.8295 70.3358 66.5456 70.0519 66.1954 70.0519Z" fill="var(--sapContent_Illustrative_Color6)"/>
<path d="M76.7228 70.0693H72.597C72.2468 70.0693 71.9629 70.3532 71.9629 70.7033V74.169C71.9629 74.5192 72.2468 74.8031 72.597 74.8031H76.7228C77.073 74.8031 77.3568 74.5192 77.3568 74.169V70.7033C77.3568 70.3532 77.073 70.0693 76.7228 70.0693Z" fill="var(--sapContent_Illustrative_Color6)"/>
<path d="M86.4508 70.0519H82.325C81.9748 70.0519 81.6909 70.3358 81.6909 70.686V74.1516C81.6909 74.5018 81.9748 74.7857 82.325 74.7857H86.4508C86.801 74.7857 87.0849 74.5018 87.0849 74.1516V70.686C87.0849 70.3358 86.801 70.0519 86.4508 70.0519Z" fill="var(--sapContent_Illustrative_Color6)"/>
<path d="M23.8429 78.8768H19.7171C19.3669 78.8768 19.083 79.1607 19.083 79.5108V82.9765C19.083 83.3267 19.3669 83.6106 19.7171 83.6106H23.8429C24.1931 83.6106 24.477 83.3267 24.477 82.9765V79.5108C24.477 79.1607 24.1931 78.8768 23.8429 78.8768Z" fill="var(--sapContent_Illustrative_Color6)"/>
<path d="M34.3702 78.8942H30.2444C29.8942 78.8942 29.6104 79.178 29.6104 79.5282V82.9939C29.6104 83.3441 29.8942 83.628 30.2444 83.628H34.3702C34.7204 83.628 35.0043 83.3441 35.0043 82.9939V79.5282C35.0043 79.178 34.7204 78.8942 34.3702 78.8942Z" fill="var(--sapContent_Illustrative_Color6)"/>
<path d="M45.0277 78.9376H40.9019C40.5517 78.9376 40.2678 79.2214 40.2678 79.5716V83.0373C40.2678 83.3875 40.5517 83.6714 40.9019 83.6714H45.0277C45.3779 83.6714 45.6618 83.3875 45.6618 83.0373V79.5716C45.6618 79.2214 45.3779 78.9376 45.0277 78.9376Z" fill="var(--sapContent_Illustrative_Color6)"/>
<path d="M55.5638 78.955H51.438C51.0878 78.955 50.804 79.2388 50.804 79.589V83.0547C50.804 83.4049 51.0878 83.6888 51.438 83.6888H55.5638C55.914 83.6888 56.1979 83.4049 56.1979 83.0547V79.589C56.1979 79.2388 55.914 78.955 55.5638 78.955Z" fill="var(--sapContent_Illustrative_Color6)"/>
<path d="M66.317 79.0679H62.1912C61.841 79.0679 61.5571 79.3518 61.5571 79.7019V83.1676C61.5571 83.5178 61.841 83.8017 62.1912 83.8017H66.317C66.6672 83.8017 66.9511 83.5178 66.9511 83.1676V79.7019C66.9511 79.3518 66.6672 79.0679 66.317 79.0679Z" fill="var(--sapContent_Illustrative_Color6)"/>
<path d="M76.8444 79.0853H72.7185C72.3684 79.0853 72.0845 79.3691 72.0845 79.7193V83.185C72.0845 83.5352 72.3684 83.8191 72.7185 83.8191H76.8444C77.1945 83.8191 77.4784 83.5352 77.4784 83.185V79.7193C77.4784 79.3691 77.1945 79.0853 76.8444 79.0853Z" fill="var(--sapContent_Illustrative_Color6)"/>
<path d="M86.5724 79.0679H82.4466C82.0964 79.0679 81.8125 79.3518 81.8125 79.7019V83.1676C81.8125 83.5178 82.0964 83.8017 82.4466 83.8017H86.5724C86.9226 83.8017 87.2065 83.5178 87.2065 83.1676V79.7019C87.2065 79.3518 86.9226 79.0679 86.5724 79.0679Z" fill="var(--sapContent_Illustrative_Color6)"/>
<path d="M23.9383 87.9188H19.8125C19.4623 87.9188 19.1785 88.2027 19.1785 88.5529V92.0186C19.1785 92.3688 19.4623 92.6526 19.8125 92.6526H23.9383C24.2885 92.6526 24.5724 92.3688 24.5724 92.0186V88.5529C24.5724 88.2027 24.2885 87.9188 23.9383 87.9188Z" fill="var(--sapContent_Illustrative_Color6)"/>
<path d="M34.4657 87.9362H30.3399C29.9897 87.9362 29.7058 88.22 29.7058 88.5702V92.0359C29.7058 92.3861 29.9897 92.67 30.3399 92.67H34.4657C34.8159 92.67 35.0998 92.3861 35.0998 92.0359V88.5702C35.0998 88.22 34.8159 87.9362 34.4657 87.9362Z" fill="var(--sapContent_Illustrative_Color6)"/>
<path d="M45.1234 87.9796H40.9976C40.6474 87.9796 40.3635 88.2635 40.3635 88.6137V92.0794C40.3635 92.4296 40.6474 92.7134 40.9976 92.7134H45.1234C45.4736 92.7134 45.7575 92.4296 45.7575 92.0794V88.6137C45.7575 88.2635 45.4736 87.9796 45.1234 87.9796Z" fill="var(--sapContent_Illustrative_Color6)"/>
<path d="M55.6507 87.9969H51.5249C51.1748 87.9969 50.8909 88.2808 50.8909 88.631V92.0967C50.8909 92.4469 51.1748 92.7308 51.5249 92.7308H55.6507C56.0009 92.7308 56.2848 92.4469 56.2848 92.0967V88.631C56.2848 88.2808 56.0009 87.9969 55.6507 87.9969Z" fill="var(--sapContent_Illustrative_Color6)"/>
<path d="M66.4039 88.1099H62.2781C61.9279 88.1099 61.644 88.3938 61.644 88.744V92.2097C61.644 92.5599 61.9279 92.8437 62.2781 92.8437H66.4039C66.7541 92.8437 67.038 92.5599 67.038 92.2097V88.744C67.038 88.3938 66.7541 88.1099 66.4039 88.1099Z" fill="var(--sapContent_Illustrative_Color6)"/>
</g>
<path d="M105.534 18.1187H96.24C95.8253 18.1187 95.4277 18.2834 95.1345 18.5767C94.8412 18.8699 94.6765 19.2676 94.6765 19.6822C94.6765 20.0969 94.8412 20.4945 95.1345 20.7877C95.4277 21.0809 95.8253 21.2457 96.24 21.2457H101.104L95.2585 25.9795C95.0071 26.1827 94.8249 26.4587 94.7368 26.7697C94.6488 27.0807 94.6593 27.4113 94.767 27.7161C94.8746 28.0209 95.074 28.2848 95.3378 28.4716C95.6016 28.6583 95.9168 28.7587 96.24 28.759H104.787C105.202 28.759 105.599 28.5943 105.892 28.3011C106.186 28.0079 106.35 27.6102 106.35 27.1955C106.35 26.7808 106.186 26.3832 105.892 26.09C105.599 25.7968 105.202 25.632 104.787 25.632H100.661L106.515 20.8982C106.767 20.6951 106.949 20.419 107.037 20.108C107.125 19.797 107.115 19.4664 107.007 19.1616C106.899 18.8568 106.7 18.5929 106.436 18.4062C106.172 18.2194 105.857 18.119 105.534 18.1187Z" fill="var(--sapContent_Illustrative_Color5)"/>
<path d="M127.883 0.981512C127.767 0.691806 127.566 0.443496 127.308 0.268572C127.049 0.0936482 126.744 0.000114207 126.432 0H113.638C113.242 0.0294695 112.873 0.207457 112.603 0.498231C112.333 0.789005 112.183 1.17106 112.183 1.5678C112.183 1.96455 112.333 2.34665 112.603 2.63742C112.873 2.9282 113.242 3.10613 113.638 3.1356H122.541L112.561 12.6901C112.336 12.9057 112.18 13.1837 112.114 13.4884C112.048 13.7931 112.075 14.1105 112.191 14.3999C112.306 14.6894 112.506 14.9376 112.764 15.1128C113.022 15.2879 113.326 15.3819 113.638 15.3828H125.407C125.822 15.3828 126.22 15.218 126.513 14.9248C126.806 14.6316 126.971 14.234 126.971 13.8193C126.971 13.4047 126.806 13.007 126.513 12.7137C126.22 12.4205 125.822 12.2558 125.407 12.2558H117.547L127.527 2.70131C127.751 2.48262 127.904 2.20218 127.967 1.8958C128.031 1.58943 128.001 1.27107 127.883 0.981512Z" fill="var(--sapContent_Illustrative_Color5)"/>
<defs>
<clipPath id="clip0_101_5527">
<rect width="111.18" height="94.5548" fill="var(--sapContent_Illustrative_Color8)" transform="translate(0 17.3718)"/>
</clipPath>
</defs>
</svg>
