<svg width="320" height="240" viewBox="0 0 320 240" fill="none" xmlns="http://www.w3.org/2000/svg" id="sapIllus-Scene-PageNotFound">
<path d="M305.547 20H14.4533C12.5559 19.9983 10.6768 20.3705 8.92329 21.0954C7.16981 21.8203 5.57638 22.8836 4.23409 24.2247C2.8918 25.5657 1.82697 27.1582 1.10045 28.911C0.373942 30.6638 -8.08861e-07 32.5426 0 34.44V205.547C0 209.38 1.52275 213.056 4.23328 215.767C6.9438 218.477 10.6201 220 14.4533 220H305.547C309.38 220 313.056 218.477 315.767 215.767C318.477 213.056 320 209.38 320 205.547V34.44C320 32.5426 319.626 30.6638 318.9 28.911C318.173 27.1582 317.108 25.5657 315.766 24.2247C314.424 22.8836 312.83 21.8203 311.077 21.0954C309.323 20.3705 307.444 19.9983 305.547 20Z" style="fill:var(--sapContent_Illustrative_Color7)"/>
<path d="M18.2242 120.001H154.646C155.391 119.99 156.116 120.244 156.69 120.718C157.265 121.192 157.652 121.855 157.782 122.588L174.372 208.32C174.477 208.785 174.475 209.268 174.365 209.732C174.255 210.196 174.041 210.629 173.739 210.998C173.436 211.367 173.054 211.662 172.62 211.861C172.186 212.06 171.713 212.157 171.236 212.145H36.3824C35.6482 212.144 34.9366 211.891 34.366 211.429C33.7954 210.966 33.4003 210.323 33.2463 209.605L15.0881 123.874C14.9746 123.406 14.9707 122.917 15.0766 122.447C15.1825 121.977 15.3954 121.537 15.6988 121.163C16.0022 120.788 16.3878 120.488 16.8257 120.287C17.2637 120.085 17.7423 119.988 18.2242 120.001ZM31.7096 142.892L42.1215 199.9C42.2451 200.639 42.6294 201.31 43.2047 201.79C43.78 202.27 44.5083 202.529 45.2577 202.518H139.185C139.658 202.529 140.128 202.432 140.559 202.235C140.99 202.038 141.371 201.746 141.672 201.381C141.974 201.016 142.189 200.587 142.302 200.127C142.414 199.667 142.421 199.187 142.321 198.724L138.558 178.953H153.266C153.739 178.948 154.205 178.839 154.631 178.634C155.058 178.429 155.434 178.133 155.733 177.766C156.032 177.4 156.247 176.972 156.363 176.514C156.478 176.055 156.492 175.576 156.402 175.112L148.342 132.325C148.202 131.592 147.813 130.931 147.242 130.451C146.671 129.971 145.952 129.703 145.206 129.691H105.064C104.592 129.696 104.128 129.805 103.703 130.009C103.278 130.213 102.903 130.508 102.604 130.873C102.305 131.237 102.09 131.663 101.973 132.12C101.856 132.576 101.841 133.053 101.928 133.516L103.025 139.349L34.9241 139.114C34.4456 139.091 33.9684 139.179 33.5291 139.37C33.0898 139.561 32.7 139.85 32.3896 140.214C32.0793 140.579 31.8566 141.01 31.7387 141.474C31.6208 141.939 31.6108 142.424 31.7096 142.892Z" style="fill:var(--sapContent_Illustrative_Color18)"/>
<path d="M215.722 212.145H73.2477L77.2306 217.804C77.7085 218.483 78.3426 219.037 79.0795 219.419C79.8163 219.801 80.6343 220 81.4643 220H36.649C35.8173 220 35.0196 219.669 34.4314 219.081C33.8433 218.493 33.5129 217.695 33.5129 216.864V215.437C33.5129 214.605 33.8433 213.808 34.4314 213.22C35.0196 212.632 35.8173 212.301 36.649 212.301H215.722V212.145Z" style="fill:var(--sapContent_Illustrative_Color19)"/>
<path d="M77.2306 217.804L73.2477 212.145H215.722V217.224C215.722 217.96 215.43 218.666 214.909 219.187C214.389 219.707 213.683 220 212.947 220H81.4643C80.6343 220 79.8163 219.801 79.0795 219.419C78.3426 219.037 77.7085 218.483 77.2306 217.804Z" style="fill:var(--sapContent_Illustrative_Color19)"/>
<path d="M128.365 139.442L102.947 139.348L101.849 133.515C101.762 133.052 101.778 132.575 101.895 132.118C102.011 131.662 102.227 131.236 102.526 130.871C102.825 130.507 103.2 130.212 103.625 130.008C104.05 129.804 104.514 129.695 104.985 129.689H145.128C145.874 129.701 146.593 129.97 147.164 130.449C147.735 130.929 148.124 131.591 148.264 132.323L156.324 175.111C156.413 175.575 156.4 176.054 156.284 176.512C156.169 176.971 155.954 177.398 155.654 177.765C155.355 178.131 154.979 178.427 154.553 178.633C154.127 178.838 153.661 178.947 153.188 178.952H138.479L131.439 142.044C131.313 141.319 130.937 140.66 130.375 140.184C129.813 139.708 129.102 139.446 128.365 139.442Z" style="fill:var(--sapContent_Illustrative_Color19)"/>
<path d="M105.362 162.036C105.233 161.915 105.13 161.77 105.059 161.608C104.989 161.446 104.952 161.271 104.952 161.095C104.952 160.918 104.989 160.744 105.059 160.582C105.13 160.42 105.233 160.274 105.362 160.154C105.483 160.027 105.629 159.926 105.791 159.857C105.953 159.788 106.127 159.752 106.303 159.752C106.478 159.752 106.652 159.788 106.814 159.857C106.976 159.926 107.122 160.027 107.243 160.154L110.38 163.29L113.516 160.154C113.77 159.928 114.101 159.808 114.44 159.818C114.78 159.828 115.103 159.968 115.344 160.208C115.584 160.448 115.723 160.771 115.733 161.111C115.743 161.451 115.623 161.782 115.397 162.036L112.261 165.171L115.397 168.307C115.533 168.428 115.643 168.575 115.72 168.74C115.797 168.904 115.839 169.083 115.844 169.264C115.85 169.446 115.818 169.626 115.751 169.795C115.684 169.964 115.583 170.117 115.454 170.246C115.326 170.374 115.173 170.475 115.004 170.542C114.835 170.609 114.654 170.641 114.473 170.636C114.291 170.63 114.113 170.588 113.948 170.511C113.783 170.434 113.636 170.324 113.516 170.189L110.38 167.053L107.243 170.189C107.122 170.316 106.976 170.417 106.814 170.486C106.652 170.555 106.478 170.591 106.303 170.591C106.127 170.591 105.953 170.555 105.791 170.486C105.629 170.417 105.483 170.316 105.362 170.189C105.233 170.068 105.13 169.923 105.059 169.761C104.989 169.599 104.952 169.425 104.952 169.248C104.952 169.072 104.989 168.897 105.059 168.735C105.13 168.573 105.233 168.428 105.362 168.307L108.498 165.171L105.362 162.036Z" style="fill:var(--sapContent_Illustrative_Color8)"/>
<path d="M34.8771 139.114L102.978 139.349L128.397 139.443C129.144 139.432 129.87 139.689 130.445 140.166C131.02 140.643 131.406 141.31 131.533 142.046L138.573 178.954L142.337 198.725C142.436 199.188 142.43 199.667 142.317 200.127C142.205 200.588 141.99 201.016 141.688 201.381C141.386 201.747 141.006 202.038 140.575 202.235C140.144 202.432 139.674 202.529 139.201 202.519H45.3675C44.6181 202.529 43.8898 202.271 43.3145 201.79C42.7392 201.31 42.3549 200.64 42.2313 199.9L31.741 142.893C31.6441 142.431 31.6528 141.953 31.7663 141.495C31.8799 141.036 32.0955 140.61 32.397 140.246C32.6985 139.883 33.0781 139.593 33.5075 139.397C33.937 139.201 34.4051 139.104 34.8771 139.114Z" style="fill:var(--sapContent_Illustrative_Color7)"/>
<path fill-rule="evenodd" clip-rule="evenodd" d="M292.612 141.737C294.918 143.687 293.972 148.598 290.498 152.707C288.166 155.465 285.289 157.16 282.951 157.387C283.272 159.113 283.525 160.955 283.724 162.874C284.821 173.414 285.203 185.542 277.396 185.608C268.336 185.681 267.497 177.099 266.552 167.435C266.476 166.661 266.4 165.879 266.318 165.094C265.222 154.521 265.767 145.674 273.067 144.844C276.177 144.485 278.433 145.988 280.073 148.727C280.608 147.689 281.302 146.645 282.146 145.647C285.62 141.538 290.305 139.788 292.612 141.737Z" style="fill:var(--sapContent_Illustrative_Color20)"/>
<path d="M300.117 173.759C300.117 179.572 297.274 184.259 293.77 184.29C285.209 184.366 286.938 179.635 287.423 173.759C287.907 167.883 290.265 163.304 293.77 163.228C300.195 163.082 300.117 167.915 300.117 173.759Z" style="fill:var(--sapContent_Illustrative_Color20)"/>
<path d="M265.504 189.308H301.38C303.358 189.308 304.966 190.916 304.966 192.894V211.055C304.966 216.153 300.824 220.295 295.726 220.295H271.171C266.072 220.295 261.931 216.153 261.931 211.055V192.894C261.931 190.916 263.539 189.308 265.517 189.308H265.504Z" style="fill:var(--sapContent_Illustrative_Color18)"/>
<path d="M304.959 189.359H261.918V194.962H304.959V189.359Z" style="fill:var(--sapContent_Illustrative_Color19)"/>
<path d="M304.679 181.778H262.212C260.802 181.778 259.659 182.921 259.659 184.331V189.595C259.659 191.005 260.802 192.148 262.212 192.148H304.679C306.088 192.148 307.231 191.005 307.231 189.595V184.331C307.231 182.921 306.088 181.778 304.679 181.778Z" style="fill:var(--sapContent_Illustrative_Color18)"/>
<path d="M272.335 63.7482L207.796 41.6403C205.055 40.7095 202.082 42.1575 201.151 44.8983L168.984 138.786C168.054 141.527 169.502 144.5 172.242 145.431L236.782 167.539C239.523 168.47 242.496 167.022 243.427 164.281L275.593 70.3935C276.524 67.6526 275.076 64.679 272.335 63.7482Z" style="fill:var(--sapContent_Illustrative_Color18)"/>
<path d="M233.627 65.3519C231.507 64.4986 229.154 64.2918 226.93 64.7831C224.681 65.2485 222.638 66.3862 221.035 68.0411C219.432 69.6959 218.346 71.7645 217.932 74.0141C217.518 76.2637 217.777 78.5908 218.682 80.7111C219.587 82.8314 221.086 84.6155 223.026 85.8567C224.939 87.0978 227.189 87.7701 229.49 87.7184C231.791 87.6925 234.015 86.9685 235.903 85.6757C237.79 84.3828 239.264 82.5469 240.117 80.4267L229.335 76.1344L233.653 65.3519H233.627Z" style="fill:var(--sapContent_Illustrative_Color7)"/>
<path d="M237.066 63.7734L232.774 74.53L243.531 78.8223C244.099 77.4002 244.384 75.9004 244.358 74.3749C244.358 72.8493 244.022 71.3496 243.427 69.9533C242.832 68.557 241.953 67.29 240.867 66.2299C239.781 65.1697 238.488 64.3423 237.066 63.7734Z" style="fill:var(--sapContent_Illustrative_Color19)"/>
<path d="M246.013 102.277L201.047 86.8661C199.547 86.349 197.944 87.1506 197.427 88.6503C196.91 90.15 197.712 91.7531 199.211 92.2703L244.177 107.681C245.677 108.198 247.28 107.397 247.797 105.897C248.314 104.397 247.512 102.794 246.013 102.277Z" style="fill:var(--sapContent_Illustrative_Color7)"/>
<path d="M242.134 111.431L197.169 96.0204C195.669 95.5033 194.066 96.3048 193.549 97.8046C193.031 99.3043 193.833 100.907 195.333 101.425L240.298 116.835C241.798 117.353 243.427 116.551 243.918 115.051C244.435 113.552 243.634 111.948 242.134 111.431Z" style="fill:var(--sapContent_Illustrative_Color7)"/>
<path d="M217.415 113.189L193.471 104.992C191.971 104.475 190.342 105.277 189.851 106.776C189.334 108.276 190.136 109.879 191.635 110.396L215.605 118.593C217.105 119.11 218.708 118.309 219.225 116.809C219.742 115.309 218.94 113.706 217.441 113.189H217.415Z" style="fill:var(--sapContent_Illustrative_Color7)"/>
<path d="M206.659 50.2482L113.156 64.9923C108.651 65.7025 105.576 69.9298 106.286 74.4342L127.078 206.292C127.788 210.796 132.016 213.872 136.52 213.162L230.023 198.418C234.527 197.707 237.603 193.48 236.893 188.976L216.101 57.118C215.39 52.6136 211.163 49.5379 206.659 50.2482Z" style="fill:var(--sapContent_Illustrative_Color8)"/>
<path fill-rule="evenodd" clip-rule="evenodd" d="M113.156 64.9923C112.276 65.131 111.45 65.404 110.697 65.787C110.212 66.0339 109.756 66.3265 109.335 66.6584C108.905 66.9974 108.511 67.3773 108.159 67.7914C109.093 68.978 110.765 69.3805 112.163 68.6697C112.618 68.4385 113.119 68.272 113.659 68.1867L119.893 67.2038C121.657 66.9256 122.862 65.2699 122.584 63.5056L113.156 64.9923ZM134.895 61.5642C135.174 63.3285 136.829 64.5332 138.594 64.255L151.061 62.2891C152.825 62.0109 154.03 60.3552 153.751 58.5909L134.895 61.5642ZM166.063 56.6495C166.341 58.4138 167.997 59.6185 169.761 59.3403L182.228 57.3744C183.993 57.0962 185.197 55.4405 184.919 53.6762L166.063 56.6495ZM197.231 51.7348C197.509 53.4991 199.165 54.7038 200.929 54.4256L207.163 53.4426C207.703 53.3574 208.231 53.3616 208.735 53.4416C210.284 53.6878 211.751 52.7904 212.275 51.3737C211.812 51.0883 211.32 50.848 210.807 50.6577C210.304 50.4715 209.781 50.3333 209.243 50.2478C208.408 50.1152 207.539 50.1094 206.659 50.2482L197.231 51.7348ZM213.302 52.1208C212.115 53.0556 211.713 54.7271 212.423 56.1251C212.654 56.5798 212.821 57.0809 212.906 57.6217L213.946 64.2146C214.224 65.9788 215.88 67.1835 217.644 66.9053L216.101 57.118C215.962 56.2381 215.689 55.4127 215.306 54.6594C215.059 54.1738 214.767 53.7182 214.435 53.2972C214.096 52.8672 213.716 52.4734 213.302 52.1208ZM219.755 80.295C217.991 80.5732 216.786 82.229 217.065 83.9932L219.144 97.179C219.422 98.9433 221.078 100.148 222.842 99.8698L219.755 80.295ZM224.953 113.259C223.189 113.538 221.984 115.193 222.263 116.958L224.342 130.143C224.62 131.908 226.276 133.112 228.04 132.834L224.953 113.259ZM230.151 146.224C228.387 146.502 227.182 148.158 227.461 149.922L229.54 163.108C229.818 164.872 231.474 166.077 233.238 165.799L230.151 146.224ZM235.349 179.188C233.585 179.466 232.381 181.122 232.659 182.886L233.698 189.479C233.784 190.02 233.779 190.548 233.699 191.052C233.453 192.601 234.351 194.067 235.767 194.592C236.053 194.129 236.293 193.637 236.483 193.124C236.669 192.621 236.808 192.097 236.893 191.559C237.026 190.725 237.032 189.856 236.893 188.976L235.349 179.188ZM235.02 195.618C234.085 194.432 232.414 194.029 231.016 194.74C230.561 194.971 230.06 195.138 229.519 195.223L223.286 196.206C221.521 196.484 220.317 198.14 220.595 199.904L230.023 198.418C230.903 198.279 231.728 198.006 232.482 197.623C232.967 197.376 233.423 197.083 233.844 196.751C234.274 196.412 234.668 196.032 235.02 195.618ZM208.283 201.846C208.005 200.081 206.349 198.877 204.585 199.155L192.118 201.121C190.354 201.399 189.149 203.055 189.427 204.819L208.283 201.846ZM177.116 206.76C176.837 204.996 175.182 203.791 173.417 204.07L160.95 206.035C159.186 206.314 157.981 207.969 158.26 209.734L177.116 206.76ZM145.948 211.675C145.67 209.911 144.014 208.706 142.25 208.984L136.016 209.967C135.475 210.052 134.947 210.048 134.444 209.968C132.895 209.722 131.428 210.619 130.904 212.036C131.367 212.322 131.858 212.562 132.372 212.752C132.875 212.938 133.398 213.077 133.936 213.162C134.771 213.295 135.64 213.3 136.52 213.162L145.948 211.675ZM129.877 211.289C131.064 210.354 131.466 208.683 130.755 207.285C130.524 206.83 130.358 206.329 130.272 205.788L129.233 199.195C128.955 197.431 127.299 196.226 125.535 196.504L127.078 206.292C127.217 207.172 127.49 207.997 127.873 208.75C128.12 209.236 128.412 209.692 128.744 210.113C129.083 210.543 129.463 210.936 129.877 211.289ZM123.423 183.115C125.188 182.837 126.392 181.181 126.114 179.417L124.035 166.231C123.757 164.467 122.101 163.262 120.337 163.54L123.423 183.115ZM118.225 150.15C119.99 149.872 121.194 148.216 120.916 146.452L118.837 133.266C118.559 131.502 116.903 130.297 115.139 130.576L118.225 150.15ZM113.027 117.186C114.792 116.908 115.996 115.252 115.718 113.488L113.639 100.302C113.361 98.5377 111.705 97.333 109.941 97.6112L113.027 117.186ZM107.829 84.2215C109.594 83.9433 110.798 82.2876 110.52 80.5233L109.48 73.9305C109.395 73.3897 109.399 72.8616 109.479 72.3579C109.726 70.809 108.828 69.3424 107.411 68.8181C107.126 69.281 106.886 69.7727 106.696 70.2861C106.509 70.7888 106.371 71.3124 106.286 71.8504C106.153 72.685 106.147 73.5543 106.286 74.4342L107.829 84.2215Z" style="fill:var(--sapContent_Illustrative_Color3)"/>
<path d="M199.914 127.914C202.171 142.226 192.398 155.658 178.086 157.914C163.774 160.171 150.342 150.398 148.086 136.086C145.829 121.774 155.602 108.343 169.914 106.086C184.226 103.829 197.658 113.602 199.914 127.914Z" style="fill:var(--sapContent_Illustrative_Color8)"/>
<path d="M169.914 106.086C164.789 106.894 160.018 109.204 156.206 112.723C152.393 116.243 149.71 120.814 148.495 125.859C147.28 130.903 147.588 136.194 149.381 141.063C151.173 145.932 154.369 150.161 158.565 153.213C162.761 156.266 167.767 158.006 172.952 158.214C178.136 158.421 183.266 157.086 187.692 154.378C192.118 151.67 195.641 147.711 197.817 143C199.992 138.289 200.722 133.04 199.914 127.914C198.831 121.041 195.061 114.881 189.435 110.787C183.809 106.693 176.787 105.002 169.914 106.086ZM176.452 147.549C175.683 147.67 174.895 147.561 174.189 147.234C173.482 146.908 172.888 146.379 172.482 145.715C172.076 145.051 171.876 144.282 171.907 143.505C171.938 142.727 172.199 141.976 172.657 141.347C173.115 140.717 173.749 140.238 174.479 139.969C175.21 139.7 176.003 139.654 176.76 139.836C177.517 140.018 178.202 140.421 178.73 140.993C179.258 141.565 179.605 142.28 179.726 143.049C179.888 144.08 179.635 145.133 179.021 145.977C178.407 146.821 177.482 147.386 176.452 147.549ZM178.462 133.687C178.132 133.913 177.816 134.157 177.516 134.421C177.377 135.185 176.971 135.874 176.372 136.367C175.772 136.86 175.017 137.125 174.241 137.113C173.465 137.102 172.717 136.815 172.133 136.304C171.548 135.794 171.163 135.092 171.047 134.325C170.581 131.371 172.968 129.666 174.557 128.46C176.793 126.806 177.689 125.921 177.399 124.081C177.109 122.241 174.815 121.169 172.353 121.557C169.892 121.945 168.055 123.775 168.329 125.511C168.465 126.37 168.253 127.248 167.742 127.952C167.23 128.655 166.46 129.126 165.601 129.261C164.742 129.396 163.864 129.185 163.161 128.674C162.457 128.162 161.986 127.392 161.851 126.532C161.746 123.786 162.653 121.098 164.399 118.975C166.144 116.852 168.608 115.444 171.322 115.016C174.037 114.588 176.814 115.17 179.128 116.653C181.442 118.135 183.132 120.415 183.878 123.059C184.124 125.168 183.742 127.302 182.778 129.193C181.814 131.084 180.313 132.648 178.462 133.687Z" style="fill:var(--sapContent_Illustrative_Color14)"/>
<path d="M57.6816 70.325C57.9774 69.971 58.3631 69.7033 58.7982 69.5501C59.2333 69.3968 59.7017 69.3637 60.154 69.4541L70.9693 71.3248C72.7582 71.6334 73.4652 73.2776 73.223 74.6797C73.1448 75.2571 72.8813 75.7935 72.4721 76.2083C72.0629 76.6231 71.53 76.8939 70.9537 76.98C70.674 77.0133 70.3909 77.0041 70.1139 76.9527L59.2987 75.0819C58.8225 75.0096 58.3747 74.8099 58.0027 74.504C57.6308 74.198 57.3484 73.7972 57.1856 73.344C57.0044 72.8402 56.9548 72.2984 57.0416 71.7701C57.1284 71.2418 57.3487 70.7444 57.6816 70.325Z" style="fill:var(--sapContent_Illustrative_Color5)"/>
<path d="M98.7905 27.1267C99.1031 27.0203 99.4343 26.9802 99.7632 27.0091C100.092 27.0379 100.411 27.135 100.701 27.2941C100.99 27.4532 101.243 27.6709 101.443 27.9333C101.644 28.1956 101.787 28.4969 101.864 28.8178L104.845 39.0853C104.95 39.4549 104.982 39.8418 104.936 40.2235C104.891 40.6053 104.77 40.9741 104.581 41.3086C104.391 41.6431 104.137 41.9365 103.833 42.1717C103.529 42.4069 103.181 42.5792 102.81 42.6784C102.658 42.7236 102.502 42.7563 102.345 42.7761C101.765 42.8575 101.175 42.7186 100.692 42.3868C100.209 42.055 99.8678 41.5543 99.7357 40.9834L96.7595 30.7198C96.653 30.3505 96.6212 29.9637 96.666 29.582C96.7108 29.2003 96.8313 28.8313 97.0204 28.4967C97.2095 28.1622 97.4635 27.8687 97.7674 27.6334C98.0714 27.3982 98.4192 27.2259 98.7905 27.1267Z" style="fill:var(--sapContent_Illustrative_Color5)"/>
<path d="M72.2153 41.03C72.5752 41.0066 72.9361 41.0569 73.2759 41.1778C73.6157 41.2987 73.9273 41.4876 74.1916 41.733L86.1591 52.6215C86.6931 53.1129 87.0164 53.7916 87.0616 54.5158C87.1067 55.24 86.8701 55.9537 86.4012 56.5075C85.9643 57.0194 85.3509 57.3483 84.6827 57.4292C84.2975 57.4752 83.9069 57.4376 83.5375 57.3189C83.1681 57.2003 82.8287 57.0035 82.5423 56.7418L70.5748 45.8533C70.0375 45.3596 69.7124 44.6769 69.668 43.9486C69.6236 43.2203 69.8632 42.5031 70.3366 41.9478C70.5718 41.6762 70.8594 41.4549 71.1822 41.2972C71.5051 41.1394 71.8564 41.0486 72.2153 41.03Z" style="fill:var(--sapContent_Illustrative_Color5)"/>
<path d="M40.9992 62.8744C40.9992 61.6293 37.3851 60.6327 32.5562 60.4063C32.2801 55.5834 31.2172 51.9972 29.972 52C28.7268 52.0028 27.6915 55.6165 27.4264 60.4643C22.5838 60.7956 18.9835 61.8778 19.0001 63.1256C19.0166 64.3734 22.6141 65.3701 27.443 65.5937C27.7329 70.4166 28.782 74.0028 30.0245 74C31.2669 73.9972 32.3078 70.3835 32.5728 65.5357C37.4155 65.2044 41.013 64.1222 40.9992 62.8744Z" style="fill:var(--sapContent_Illustrative_Color18)"/>
<path d="M304.999 46.8744C304.999 45.6293 301.385 44.6327 296.556 44.4063C296.28 39.5834 295.217 35.9972 293.972 36C292.727 36.0028 291.691 39.6165 291.426 44.4643C286.584 44.7956 282.983 45.8778 283 47.1256C283.017 48.3734 286.614 49.3701 291.443 49.5937C291.733 54.4166 292.782 58.0028 294.024 58C295.267 57.9972 296.308 54.3835 296.573 49.5357C301.415 49.2044 305.013 48.1222 304.999 46.8744Z" style="fill:var(--sapContent_Illustrative_Color18)"/>
</svg>
