<svg width="128" height="128" viewBox="0 0 128 128" fill="none" xmlns="http://www.w3.org/2000/svg" id="sapIllus-Spot-GroupingColumns">
<rect y="37.2837" width="128" height="55" rx="8" fill="var(--sapContent_Illustrative_Color20)"/>
<path d="M87.7242 77.163L73.2964 72.6218C73.2497 72.6071 73.203 72.5998 73.1563 72.6108L29.6277 75.7657C28.0968 75.8311 28.126 76.3198 28.5427 76.5252L38.6195 82.1349C39.4638 82.4285 40.362 82.4982 41.2386 82.3367L86.5027 77.8198C87.7709 77.6474 88.3082 77.4074 87.7242 77.163Z" fill="var(--sapContent_Illustrative_Color21)"/>
<path d="M32.6839 42.4765L41.3903 74.1062C41.5766 74.786 42.2392 75.2243 42.9362 75.1345L91.3858 68.5263C93.0871 67.9811 93.7565 66.2281 93.4632 65.3792L70.7257 37.8353C70.5152 37.2348 69.932 36.8483 69.3005 36.8897L34.4024 37.9146C33.5051 37.9698 31.7073 39.2604 32.6839 42.4765Z" fill="var(--sapContent_Illustrative_Color22)"/>
<path d="M33.1392 39.6961L42.2736 72.8786C42.4599 73.5584 43.1225 73.9966 43.8195 73.9069L92.3278 67.2366C93.2181 67.1227 93.7806 66.2152 93.4838 65.3663L82.624 35.9485C82.4135 35.3481 81.8304 34.9616 81.1989 35.003L34.4161 37.9051C33.5188 37.9603 32.9011 38.8265 33.1392 39.6926V39.6961Z" fill="var(--sapContent_Illustrative_Color8)"/>
<path d="M82.624 35.9485C82.4135 35.3481 81.8304 34.9616 81.1989 35.003L34.4161 37.9051C33.5188 37.9603 32.9011 38.8265 33.1392 39.6926L34.7737 45.661L84.7553 41.2948L82.6206 35.9451L82.624 35.9485Z" fill="var(--sapContent_Illustrative_Color14)"/>
<path d="M42.0282 41.1149C42.3093 42.3117 41.4498 43.3639 40.1004 43.4844C38.7349 43.6089 37.3573 42.7374 37.032 41.5205C36.7027 40.2835 37.5822 39.1831 38.9959 39.0827C40.3895 38.9823 41.743 39.902 42.0282 41.1149Z" fill="var(--sapContent_Illustrative_Color2)"/>
<path d="M51.1311 50.7607L40.9238 51.6691C40.7877 51.682 40.6517 51.6047 40.6225 51.4952L40.1982 50.0231C40.1658 49.9168 40.2532 49.8202 40.3893 49.8073L50.5772 48.9408C50.7067 48.9311 50.8395 49.0052 50.8719 49.1115L51.3125 50.5514C51.3449 50.6577 51.2639 50.7511 51.1343 50.764L51.1311 50.7607Z" fill="var(--sapContent_Illustrative_Color2)"/>
<path d="M50.9527 55.2777L42.2096 56.1377C42.0735 56.1506 41.9374 56.0733 41.9051 55.9638L41.4775 54.4692C41.4451 54.3597 41.5325 54.2598 41.6686 54.2469L50.3955 53.4223C50.5283 53.4094 50.6611 53.4867 50.6935 53.593L51.1373 55.0586C51.1697 55.1649 51.0887 55.2648 50.9591 55.2777H50.9527Z" fill="var(--sapContent_Illustrative_Color2)"/>
<path d="M53.8138 59.5589L43.5093 60.6702C43.3733 60.6863 43.234 60.6058 43.2016 60.4963L42.7675 58.9791C42.7351 58.8696 42.8226 58.7665 42.9586 58.7536L53.2437 57.6874C53.3765 57.6746 53.5093 57.7519 53.5417 57.8582L53.9952 59.3399C54.0276 59.4494 53.9499 59.5493 53.817 59.5621L53.8138 59.5589Z" fill="var(--sapContent_Illustrative_Color2)"/>
<path d="M55.1864 64.0552L44.8333 65.2728C44.6941 65.2889 44.558 65.2116 44.5256 65.0957L44.085 63.556C44.0527 63.4432 44.1369 63.3401 44.2762 63.324L54.6066 62.1515C54.7394 62.1354 54.8722 62.2127 54.9046 62.3223L55.3646 63.8233C55.397 63.9328 55.3192 64.0359 55.1864 64.052V64.0552Z" fill="var(--sapContent_Illustrative_Color2)"/>
<path d="M54.0176 68.945L46.1783 69.9435C46.039 69.9596 45.8997 69.8823 45.8674 69.7664L45.4171 68.2041C45.3847 68.0881 45.4689 67.9818 45.6082 67.9657L53.4346 67.0026C53.5674 66.9865 53.7034 67.0638 53.7391 67.1766L54.2023 68.7098C54.2347 68.8226 54.1537 68.9289 54.0209 68.945H54.0176Z" fill="var(--sapContent_Illustrative_Color2)"/>
<path d="M65.5111 49.4821L57.3738 50.2068C57.2474 50.2197 57.1178 50.1424 57.0854 50.0393L56.6384 48.6188C56.606 48.5157 56.6805 48.4223 56.8101 48.4126L64.9345 47.7201C65.0576 47.7104 65.1839 47.7845 65.2163 47.8844L65.6763 49.2759C65.7087 49.379 65.6374 49.4692 65.5143 49.4821H65.5111Z" fill="var(--sapContent_Illustrative_Color2)"/>
<path d="M68.3155 53.5708L58.7302 54.5146C58.6038 54.5275 58.471 54.4502 58.4386 54.3439L57.9851 52.9041C57.9527 52.7978 58.0272 52.7043 58.1568 52.6915L67.7259 51.7895C67.849 51.7767 67.9754 51.8507 68.0078 51.9538L68.4742 53.3615C68.5099 53.4645 68.4386 53.558 68.3155 53.5708Z" fill="var(--sapContent_Illustrative_Color2)"/>
<path d="M69.7352 57.8418L60.111 58.879C59.9814 58.8919 59.8518 58.8178 59.8162 58.7083L59.3562 57.2459C59.3238 57.1396 59.3983 57.043 59.5279 57.0269L69.1359 56.0283C69.259 56.0154 69.3853 56.0895 69.421 56.1958L69.8939 57.6228C69.9295 57.7291 69.8583 57.8225 69.7352 57.8354V57.8418Z" fill="var(--sapContent_Illustrative_Color2)"/>
<path d="M68.7926 62.4567L61.5072 63.3136C61.3776 63.3297 61.2448 63.2524 61.2124 63.1428L60.746 61.6611C60.7103 61.5516 60.7881 61.4517 60.9176 61.4389L68.1901 60.6142C68.3132 60.6014 68.4427 60.6754 68.4784 60.7817L68.9578 62.2377C68.9934 62.344 68.9189 62.4439 68.7958 62.4567H68.7926Z" fill="var(--sapContent_Illustrative_Color2)"/>
<path d="M72.6313 66.572L62.9261 67.8089C62.7965 67.8251 62.6637 67.7477 62.6281 67.6382L62.1551 66.134C62.1195 66.0244 62.1973 65.9214 62.3268 65.9052L72.0158 64.7102C72.1389 64.6941 72.2685 64.7682 72.3041 64.8777L72.7933 66.3465C72.8289 66.4561 72.7576 66.5559 72.6346 66.572H72.6313Z" fill="var(--sapContent_Illustrative_Color2)"/>
<path d="M81.7044 48.0434L72.7604 48.8391C72.6406 48.8487 72.5175 48.7779 72.4819 48.6748L72.0121 47.3026C71.9765 47.2027 72.0478 47.1125 72.1644 47.1029L81.0954 46.3427C81.2088 46.333 81.3319 46.4039 81.3643 46.5037L81.8437 47.8437C81.8793 47.9436 81.8145 48.0306 81.7011 48.0402L81.7044 48.0434Z" fill="var(--sapContent_Illustrative_Color2)"/>
<path d="M80.4993 52.3723L74.1793 52.994C74.0594 53.0069 73.9331 52.9328 73.9007 52.8297L73.4245 51.4382C73.3889 51.3351 73.4569 51.2449 73.5768 51.232L79.8871 50.6361C80.0037 50.6265 80.1268 50.6973 80.1624 50.7972L80.6451 52.1662C80.6807 52.266 80.6159 52.3562 80.4993 52.3691V52.3723Z" fill="var(--sapContent_Illustrative_Color2)"/>
<path d="M81.9634 56.5244L75.6206 57.2072C75.5008 57.2201 75.3744 57.146 75.3388 57.043L74.8561 55.6321C74.8205 55.529 74.8885 55.4356 75.0084 55.4227L81.3414 54.7656C81.458 54.7527 81.5811 54.8268 81.6167 54.9267L82.1059 56.315C82.1415 56.4181 82.0767 56.5115 81.9601 56.5211L81.9634 56.5244Z" fill="var(--sapContent_Illustrative_Color2)"/>
<path d="M86.1266 60.4179L77.0822 61.4808C76.9623 61.4937 76.836 61.4196 76.8004 61.3166L76.3112 59.8864C76.2756 59.7833 76.3436 59.6867 76.4635 59.6738L85.4916 58.6495C85.6083 58.6366 85.7314 58.7074 85.767 58.8105L86.2659 60.2085C86.3015 60.3116 86.2399 60.405 86.1233 60.4179H86.1266Z" fill="var(--sapContent_Illustrative_Color2)"/>
<path d="M86.3041 64.8319L78.5685 65.8176C78.4486 65.8337 78.319 65.7596 78.2834 65.6533L77.7878 64.2038C77.7522 64.0975 77.8202 64.0009 77.94 63.9848L85.666 63.0313C85.7826 63.0184 85.9057 63.0893 85.9446 63.1924L86.4499 64.6129C86.4855 64.716 86.424 64.8158 86.3074 64.8287L86.3041 64.8319Z" fill="var(--sapContent_Illustrative_Color2)"/>
<path d="M92.3447 57.3942L57.5431 61.5766C56.7943 61.6525 56.0179 61.1418 55.8108 60.4344L50.2861 42.9148C50.0859 42.2316 50.4206 40.8616 51.908 40.627L86.4714 39.2467C87.0822 39.1984 87.7724 39.6539 88.0139 40.2681L94.6291 55.3859C94.1874 56.4694 93.5939 57.232 92.3447 57.3977V57.3942Z" fill="var(--sapContent_Illustrative_Color24)"/>
<path d="M93.9081 55.9524L58.1955 60.1347C57.4467 60.2106 56.6702 59.6999 56.4632 58.9925L51.0592 41.9561C50.859 41.2728 51.2973 40.6724 52.0358 40.6103L87.1272 37.8014C87.738 37.7531 88.4282 38.2086 88.6697 38.8228L94.581 54.6928C94.8294 55.3243 94.5327 55.8903 93.915 55.9524H93.9081Z" fill="var(--sapContent_Illustrative_Color25)"/>
<path fill-rule="evenodd" clip-rule="evenodd" d="M94.3764 55.7737C94.3315 55.8095 94.2819 55.8407 94.2279 55.8668C94.2143 55.8734 94.2004 55.8796 94.1862 55.8855C94.1047 55.9195 94.0139 55.9424 93.915 55.9524H93.9081L91.9228 56.1849C91.8586 55.6363 92.2512 55.1396 92.7997 55.0753L93.6205 54.9792L93.3155 54.1602C93.1227 53.6427 93.386 53.0668 93.9035 52.8741L94.581 54.6928C94.6171 54.7846 94.6417 54.875 94.6554 54.9627C94.6577 54.977 94.6597 54.9913 94.6613 55.0055C94.6729 55.1038 94.6708 55.1984 94.6558 55.2871C94.6456 55.3478 94.6295 55.4058 94.6077 55.4605C94.5945 55.4935 94.5793 55.5252 94.5621 55.5556C94.5148 55.6395 94.4524 55.7131 94.3764 55.7737ZM89.9412 56.4169C89.877 55.8684 89.3802 55.4758 88.8317 55.54L86.8476 55.7724C86.2991 55.8366 85.9065 56.3334 85.9707 56.8819L89.9412 56.4169ZM83.9891 57.114C83.9249 56.5655 83.4281 56.1729 82.8796 56.2371L80.8955 56.4694C80.347 56.5337 79.9544 57.0304 80.0186 57.579L83.9891 57.114ZM78.037 57.811C77.9728 57.2625 77.476 56.8699 76.9275 56.9341L74.9434 57.1665C74.3949 57.2307 74.0023 57.7275 74.0666 58.276L78.037 57.811ZM72.0849 58.5081C72.0207 57.9596 71.5239 57.567 70.9754 57.6312L68.9914 57.8636C68.4428 57.9278 68.0502 58.4245 68.1145 58.9731L72.0849 58.5081ZM66.1328 59.2051C66.0686 58.6566 65.5718 58.264 65.0233 58.3283L63.0393 58.5606C62.4907 58.6248 62.0981 59.1216 62.1624 59.6701L66.1328 59.2051ZM60.1807 59.9022C60.1165 59.3537 59.6197 58.9611 59.0712 59.0253L58.0891 59.1403C58.0521 59.1436 58.0114 59.1427 57.9674 59.1363C57.8405 59.1178 57.7157 59.124 57.5979 59.1514C57.5765 59.035 57.5339 58.9205 57.4688 58.8134C57.4467 58.777 57.432 58.7428 57.4229 58.7116L57.4198 58.7008L57.1162 57.7437C56.9492 57.2172 56.387 56.9258 55.8606 57.0928L56.4632 58.9925C56.4982 59.1121 56.5495 59.2261 56.6141 59.3325C56.6962 59.4677 56.7999 59.5908 56.9193 59.6979C56.9253 59.7033 56.9314 59.7087 56.9375 59.714C57.0597 59.8206 57.1975 59.9107 57.345 59.9803C57.3525 59.9838 57.3599 59.9873 57.3674 59.9907C57.5124 60.0567 57.6663 60.103 57.8235 60.1259C57.9464 60.1437 58.0713 60.1473 58.1955 60.1347L60.1807 59.9022ZM55.2644 55.2134C55.7909 55.0464 56.0823 54.4842 55.9153 53.9578L55.3148 52.0649C55.1478 51.5384 54.5857 51.247 54.0593 51.414L55.2644 55.2134ZM53.4631 49.5345C53.9895 49.3676 54.2809 48.8054 54.1139 48.279L53.5135 46.3861C53.3465 45.8596 52.7844 45.5682 52.2579 45.7352L53.4631 49.5345ZM51.6618 43.8557C52.1882 43.6888 52.4796 43.1266 52.3126 42.6002L52.017 41.6681C52.0129 41.6527 52.0114 41.6416 52.011 41.6349C52.011 41.6348 52.011 41.6349 52.011 41.6349C52.012 41.6343 52.0132 41.6335 52.0144 41.6329C52.0283 41.6254 52.0607 41.6119 52.1182 41.6069L53.0903 41.5291C53.6409 41.485 54.0514 41.003 54.0074 40.4525L52.0358 40.6103C51.2973 40.6724 50.859 41.2728 51.0592 41.9561L51.6618 43.8557ZM55.9128 40.2999C55.9568 40.8505 56.4389 41.261 56.9894 41.217L58.9389 41.0609C59.4894 41.0169 59.9 40.5348 59.8559 39.9843L55.9128 40.2999ZM61.7613 39.8318C61.8054 40.3823 62.2874 40.7929 62.8379 40.7488L64.7875 40.5928C65.338 40.5487 65.7486 40.0667 65.7045 39.5162L61.7613 39.8318ZM67.6099 39.3636C67.654 39.9142 68.136 40.3247 68.6865 40.2807L70.636 40.1246C71.1866 40.0805 71.5971 39.5985 71.5531 39.048L67.6099 39.3636ZM73.4585 38.8955C73.5026 39.446 73.9846 39.8566 74.5351 39.8125L76.4846 39.6565C77.0351 39.6124 77.4457 39.1304 77.4016 38.5799L73.4585 38.8955ZM79.3071 38.4273C79.3511 38.9779 79.8331 39.3884 80.3837 39.3444L82.3332 39.1883C82.8837 39.1442 83.2943 38.6622 83.2502 38.1117L79.3071 38.4273ZM85.1556 37.9592C85.1997 38.5097 85.6817 38.9203 86.2322 38.8762L87.2061 38.7983C87.206 38.7983 87.2061 38.7982 87.2061 38.7983C87.2438 38.7953 87.3506 38.8086 87.4852 38.8977C87.6143 38.983 87.6998 39.0934 87.7368 39.183L88.061 40.0535C88.2538 40.5711 88.8296 40.8343 89.3472 40.6416L88.6697 38.8228C88.4282 38.2086 87.738 37.7531 87.1272 37.8014L85.1556 37.9592ZM89.9627 42.294C89.4451 42.4868 89.1819 43.0626 89.3746 43.5802L90.0314 45.3435C90.2242 45.8611 90.8 46.1244 91.3176 45.9316L89.9627 42.294ZM93.288 51.2216L91.9331 47.5841C91.4156 47.7768 91.1523 48.3527 91.3451 48.8702L92.0019 50.6335C92.1946 51.1511 92.7705 51.4144 93.288 51.2216Z" fill="var(--sapContent_Illustrative_Color11)"/>
<path d="M66.2395 45.4111L57.5271 46.216C57.3979 46.2285 57.2644 46.1451 57.231 46.0325L56.7431 44.5019C56.7055 44.3893 56.7806 44.2892 56.9099 44.2767L65.6056 43.4968C65.7307 43.4843 65.86 43.5677 65.8975 43.6762L66.398 45.1859C66.4355 45.2985 66.3646 45.3944 66.2395 45.4069V45.4111Z" fill="var(--sapContent_Illustrative_Color14)"/>
<path d="M69.1927 49.8395L59.0081 50.8571C58.8788 50.8696 58.7454 50.7862 58.7079 50.6736L58.2157 49.1221C58.1782 49.0095 58.2533 48.9053 58.3825 48.8928L68.5504 47.9085C68.6755 47.896 68.8048 47.9753 68.8424 48.0879L69.3512 49.6143C69.3887 49.7269 69.3178 49.827 69.1927 49.8395Z" fill="var(--sapContent_Illustrative_Color14)"/>
<path d="M70.7313 54.4675L60.5009 55.5644C60.3716 55.5769 60.2381 55.4976 60.2006 55.3809L59.7001 53.8086C59.6626 53.6918 59.7376 53.5875 59.8669 53.575L70.0807 52.5116C70.2058 52.499 70.3392 52.5783 70.3768 52.6909L70.8939 54.2381C70.9315 54.3507 70.8606 54.455 70.7355 54.4675H70.7313Z" fill="var(--sapContent_Illustrative_Color14)"/>
<path d="M85.3435 43.5366L75.7929 44.4207C75.672 44.4332 75.5427 44.354 75.5051 44.2455L74.988 42.765C74.9505 42.6566 75.0172 42.5607 75.1381 42.5481L84.6721 41.6932C84.7888 41.6807 84.914 41.7599 84.9515 41.8684L85.4812 43.3239C85.5187 43.4323 85.4561 43.5282 85.3394 43.5366H85.3435Z" fill="var(--sapContent_Illustrative_Color14)"/>
<path d="M84.2349 48.2245L77.3576 48.9084C77.2367 48.921 77.1074 48.8417 77.0699 48.7291L76.5485 47.2277C76.511 47.1193 76.5777 47.0192 76.6987 47.0067L83.5634 46.3436C83.6802 46.3311 83.8095 46.4103 83.847 46.5187L84.3809 47.9993C84.4184 48.1077 84.3559 48.2078 84.2391 48.2161L84.2349 48.2245Z" fill="var(--sapContent_Illustrative_Color14)"/>
<path d="M85.845 52.7183L78.9385 53.4564C78.8175 53.4689 78.6883 53.3897 78.6466 53.2771L78.1169 51.7549C78.0794 51.6423 78.1461 51.5422 78.267 51.5297L85.161 50.8123C85.2778 50.7998 85.4071 50.8791 85.4488 50.9875L85.9868 52.4889C86.0285 52.5973 85.9617 52.6974 85.845 52.7141V52.7183Z" fill="var(--sapContent_Illustrative_Color14)"/>
<path d="M102.334 48.5238L91.1483 48.354C90.1413 48.6116 89.4006 49.4635 89.7549 50.5173L93.1682 59.7736C93.6454 60.9416 94.5675 61.4305 95.5775 61.3104L106.775 59.759C108.095 59.5833 108.745 58.2279 108.364 57.1302L104.363 49.5952C104.084 48.9278 103.177 48.4506 102.334 48.5238Z" fill="var(--sapContent_Illustrative_Color22)"/>
<path d="M102.758 47.3263L91.4905 48.3157C90.5655 48.3977 90.0239 49.0329 90.2873 49.7413L93.7563 59.0181C94.2745 60.0632 95.0327 60.2739 95.9753 60.148L107.43 58.617C108.288 58.5029 108.739 57.8354 108.443 57.1329L104.787 48.3977C104.509 47.7302 103.601 47.2531 102.758 47.3263Z" fill="var(--sapContent_Illustrative_Color13)"/>
<path d="M102.298 57.5965C102.231 57.6053 102.161 57.6082 102.093 57.5965C101.926 57.5731 101.762 57.5028 101.645 57.3916L99.6225 55.5239L98.0681 56.7563C97.9129 56.8793 97.6729 56.9144 97.4387 56.8529C97.2016 56.7915 97.0142 56.6392 96.944 56.4607L94.5201 50.1639C94.4498 49.9795 94.5259 49.801 94.7045 49.7044C94.8831 49.6077 95.1495 49.6019 95.3778 49.6985L103.232 52.9976C103.452 53.0913 103.607 53.2582 103.633 53.4396C103.662 53.6211 103.557 53.7763 103.358 53.8466L101.408 54.555L103.346 56.3377C103.586 56.5602 103.583 56.8676 103.334 57.0198L102.541 57.5116C102.471 57.5526 102.389 57.5818 102.298 57.5936V57.5965ZM96.136 51.0304L97.8427 55.4156L99.4645 54.151C99.5084 54.1217 99.5581 54.0895 99.6079 54.072L101.654 53.346L96.136 51.0304Z" fill="var(--sapContent_Illustrative_Color8)"/>
</svg>