<svg width="320" height="240" viewBox="0 0 320 240" fill="none" xmlns="http://www.w3.org/2000/svg" id="sapIllus-Scene-EmptyPlanningCalendar">
<rect y="57.2402" width="320" height="138" rx="24" fill="var(--sapContent_Illustrative_Color20)"/>
<path d="M146.774 174.481L241.172 126.512L175.026 94.8935L54.6054 141.391L52 143.997L146.774 174.481Z" fill="var(--sapContent_Illustrative_Color21)"/>
<path d="M106.404 154.111L121.623 76.2205L124.463 77.255L223.239 44.6206L226.171 110.683L106.392 154.111H106.404Z" fill="var(--sapContent_Illustrative_Color14)"/>
<path d="M122.393 76.5997L146.763 174.48L241.425 126.638L223.17 44.2871L122.393 76.5997Z" fill="var(--sapContent_Illustrative_Color13)"/>
<path d="M121.623 76.2091L122.393 76.6L223.17 44.2874L220.205 44L121.623 76.0827V76.2091Z" fill="var(--sapContent_Illustrative_Color13)"/>
<path d="M123.681 77.5075L146.487 166.318L239.482 121.223L222.469 44.873L123.681 77.496V77.5075Z" fill="var(--sapContent_Illustrative_Color14)"/>
<path d="M124.462 77.2435L148.154 165.629L241.873 120.189L223.239 44.6206L124.451 77.2435H124.462Z" fill="var(--sapContent_Illustrative_Color2)"/>
<path d="M223.239 44.7476L229.435 68.094C232.274 79.0603 237.171 89.2449 243.873 98.3949L252 109.488L158.12 154.491C144.452 138.237 134.647 119.029 129.624 98.3949L124.462 77.2441L223.239 44.7476Z" fill="var(--sapContent_Illustrative_Color8)"/>
<path d="M197.065 58.1618C197.709 57.2537 197.835 56.3571 197.835 55.8398L195.778 56.4836C195.778 56.61 195.651 56.8744 195.525 57.0008C195.398 57.1273 195.007 57.3917 194.755 57.6446L195.008 59.5757C195.26 59.5757 196.421 58.8056 197.065 58.1618Z" fill="var(--sapContent_Illustrative_Color22)"/>
<path fill-rule="evenodd" clip-rule="evenodd" d="M124.462 77.2438L127.738 90.6815L226.205 55.7021L223.239 44.6094L124.451 77.2323L124.462 77.2438Z" fill="var(--sapContent_Illustrative_Color15)"/>
<path d="M152.832 73.8866L149.223 75.0476L148.832 71.9554L152.441 70.7944L152.832 73.8866Z" fill="var(--sapContent_Illustrative_Color14)"/>
<path d="M198.617 58.6801L195.008 59.8411L194.617 56.7489L198.226 55.5879L198.617 58.6801Z" fill="var(--sapContent_Illustrative_Color14)"/>
<path d="M197.835 58.92L197.536 55.7933L198.226 55.5749C198.226 55.4485 198.617 58.6671 198.617 58.6671L197.847 58.92H197.835Z" fill="var(--sapContent_Illustrative_Color16)"/>
<path d="M210.342 106.647L240.516 93.497C240.264 93.1062 240.126 92.8533 239.873 92.4625L209.825 105.486C206.985 99.4285 204.537 92.9797 202.479 86.531L231.757 75.3119C231.631 74.921 231.504 74.5417 231.366 74.1509L202.088 85.37C199.514 77.3695 197.318 69.254 195.249 61.2534L194.088 61.6442C196.146 69.6448 198.341 77.7603 200.928 85.8873L167.523 98.7847C164.81 90.5313 162.488 82.025 160.43 73.7715L159.269 74.1624C161.327 82.4158 163.649 90.9221 166.362 99.3135L133.601 111.947C133.727 112.337 133.854 112.717 133.992 113.108L166.753 100.475C169.075 107.441 171.788 114.269 175.006 120.855L143.924 134.396C144.176 134.787 144.314 135.167 144.567 135.431L175.523 122.016C178.88 128.591 182.616 134.914 187.133 140.719L188.294 140.201C183.777 134.396 179.915 128.074 176.684 121.499L209.307 107.314C212.273 113.498 215.63 119.568 219.63 125.108L220.791 124.591C216.791 119.051 213.446 112.981 210.468 106.797L210.342 106.67V106.647ZM176.167 120.189C172.949 113.613 170.362 106.774 167.914 99.9457L201.318 87.0483C203.514 93.497 205.962 99.8193 208.802 106.004L176.179 120.189H176.167Z" fill="var(--sapContent_Illustrative_Color15)"/>
<path d="M152.441 70.7944L151.625 71.0933L151.97 74.1625L152.832 73.8866L152.441 70.7944Z" fill="var(--sapContent_Illustrative_Color16)"/>
<path d="M149.223 75.0482L148.924 72.7262C148.924 72.7262 150.28 72.1285 150.51 70.8755C150.844 69.0019 150.154 66.3465 149.027 65.197C148.74 64.8981 148.257 64.7487 147.901 64.8406C147.464 64.9556 147.085 65.3809 146.993 65.8522C146.786 66.9442 147.027 67.7719 147.039 67.8064L144.912 68.4961C144.809 67.8753 144.556 66.5189 144.901 65.2315C145.246 63.944 146.246 62.967 147.487 62.6451C148.637 62.3577 149.798 62.6911 150.671 63.5762C152.327 65.266 153.166 68.634 152.786 71.2779C152.35 74.2436 149.361 74.9908 149.246 75.0368L149.223 75.0482Z" fill="var(--sapContent_Illustrative_Color22)"/>
<path d="M194.996 59.7019L194.709 57.5178C194.709 57.5178 195.985 56.9545 196.203 55.782C196.525 54.0233 195.87 51.5174 194.812 50.4368C194.536 50.161 194.088 50.0115 193.755 50.1035C193.341 50.2069 192.984 50.6093 192.892 51.0576C192.697 52.0806 192.915 52.8623 192.927 52.8853L190.927 53.5405C190.823 52.9543 190.593 51.6898 190.927 50.4713C191.26 49.2529 192.203 48.3447 193.364 48.0459C194.444 47.77 195.536 48.0919 196.352 48.9195C197.904 50.5058 198.697 53.6784 198.33 56.1614C197.916 58.9432 195.111 59.6559 194.996 59.6904V59.7019Z" fill="var(--sapContent_Illustrative_Color22)"/>
</svg>