<svg width="128" height="128" viewBox="0 0 128 128" fill="none" xmlns="http://www.w3.org/2000/svg" id="sapIllus-Spot-NoData">
<rect y="40.5" width="128" height="55" rx="8" fill="var(--sapContent_Illustrative_Color20)"/>
<path d="M95.8 77.5265L92.4661 76.5996L79.622 73.6264L69.4704 62.885L61.5098 54.6001L21 67.3884L31.8246 70.3513L29.805 74.0897L54.863 89.0001L56.3216 83.102L71.7838 88.6612L95.8 77.5265Z" fill="var(--sapContent_Illustrative_Color21)"/>
<path d="M68.2 45.3999L97 54.0473L96.1039 76.9999L68.2 64.8315V45.3999Z" fill="var(--sapContent_Illustrative_Color16)"/>
<path d="M45.0175 74.1999L68.2 65.0095V45.3999L43.8 51.8095L45.0175 74.1999Z" fill="var(--sapContent_Illustrative_Color28)"/>
<path d="M71.8 62.7055L97 54.2L96.1019 77.401L71.8 88.6V62.7055Z" fill="var(--sapContent_Illustrative_Color28)"/>
<path d="M77.1022 34.2L106.6 40.5754L96.7705 54.2L68.2 45.4588L77.1022 34.2Z" fill="var(--sapContent_Illustrative_Color15)"/>
<path d="M96.9335 54.2L107 65.9449L82.5101 76.6L71.8 62.6533L96.9335 54.2Z" fill="var(--sapContent_Illustrative_Color3)"/>
<path d="M68.2 45.7056L63.1018 33L38.6 38.0234L44.1302 52.2L68.2 45.7056Z" fill="var(--sapContent_Illustrative_Color3)"/>
<path d="M44.9825 74.4702L71.8 88.6V62.969L43.8 52.2L44.9825 74.4702Z" fill="var(--sapContent_Illustrative_Color29)"/>
<path d="M62.5186 79.8L71.8 62.8105L43.9234 52.2L35.4 66.2737L62.5186 79.8Z" fill="var(--sapContent_Illustrative_Color15)"/>
</svg>