<svg width="128" height="128" viewBox="0 0 128 128" fill="none" xmlns="http://www.w3.org/2000/svg" id="sapIllus-Spot-ReceiveAppreciation">
<rect y="43" width="128" height="55" rx="8" fill="var(--sapContent_Illustrative_Color20)"/>
<path d="M40.6663 55.342L40.6899 55.3722C40.7909 55.5596 41.0071 55.9043 41.3807 56.2622L42.0033 57.0643C42.2497 57.6057 42.4843 58.1404 42.677 58.5861C42.9693 59.2611 43.1069 60.7409 43.5604 61.935C43.567 61.9533 43.5762 61.9743 43.5853 61.9966C43.6181 62.0687 43.664 62.1604 43.7203 62.2679C43.7374 62.2994 43.7544 62.3321 43.7728 62.3662C44.28 63.3113 45.4072 65.2787 45.2119 67.056L45.1097 67.4649L43.6679 73.257C43.1161 73.0473 42.504 73.3357 42.3113 73.8914L34 97.9786H46.9591C48.9252 91.0855 51.3881 82.128 52.3108 78.7608C52.3331 78.6808 52.3541 78.6048 52.3737 78.5314C52.3751 78.5262 52.3764 78.5209 52.3777 78.5157C52.5795 77.7804 52.2859 76.9979 51.6489 76.581C51.5755 76.5325 51.4982 76.484 51.4182 76.4355C51.0552 76.218 50.8494 75.813 50.8848 75.3909C50.8848 75.3778 50.8874 75.3647 50.8887 75.3516C51.0001 74.0631 52.8102 73.8587 53.1969 75.0921C53.2008 75.1039 53.2034 75.1143 53.2074 75.1261C53.2192 75.1628 53.2297 75.1982 53.2401 75.2336C53.2611 75.3044 53.2834 75.3752 53.3031 75.4446C53.5193 76.1878 53.6635 76.8484 53.7539 77.336C53.5324 77.4474 53.421 77.7017 53.4905 77.9403L53.7172 78.7201C53.9768 79.6154 53.9623 80.5486 53.8981 81.4779C53.8981 81.4923 53.8981 81.5054 53.8981 81.5185C53.9348 81.8213 54.2193 82.689 54.6688 83.929C54.678 83.9526 54.6859 83.9762 54.695 84.0011C54.7527 84.1583 54.813 84.3222 54.8746 84.4913C54.8838 84.5149 54.893 84.5398 54.9008 84.5634C54.9402 84.6695 54.9808 84.7796 55.0227 84.8897C55.0319 84.9133 55.0411 84.9382 55.0503 84.9618C55.2206 85.4166 55.4055 85.9055 55.6034 86.4207C55.6126 86.4442 55.6217 86.4692 55.6309 86.4941C55.6807 86.6251 55.7318 86.7588 55.7843 86.8938C57.0321 90.1339 58.7059 94.3073 60.1962 97.9799H73.0216C69.8405 91.2599 65.6081 82.4308 63.6368 78.2286C63.6172 78.1854 63.5975 78.1434 63.5778 78.1015C63.566 78.0753 63.5529 78.0477 63.5411 78.0228C63.4795 77.8918 63.4205 77.7659 63.3642 77.644C63.3537 77.6218 63.3432 77.6008 63.334 77.5785C63.317 77.5405 63.2986 77.5038 63.2816 77.4671C63.2698 77.4409 63.258 77.416 63.2462 77.3911C63.2305 77.357 63.2148 77.3229 63.199 77.2901C63.1899 77.2692 63.1807 77.2495 63.1715 77.2298C63.1545 77.1931 63.1387 77.1578 63.1217 77.1237C63.1125 77.104 63.1033 77.0844 63.0955 77.066C63.0811 77.0332 63.0666 77.0031 63.0522 76.9716C63.0431 76.952 63.0339 76.9323 63.0247 76.9127C63.009 76.8799 62.9946 76.8471 62.9801 76.8157C62.9736 76.8012 62.9657 76.7855 62.9592 76.7711C62.9382 76.7252 62.9185 76.682 62.8989 76.6387C62.8989 76.6387 62.8989 76.6387 62.8989 76.6374C62.8792 76.5955 62.8609 76.5535 62.8425 76.5142C62.8373 76.5024 62.832 76.4919 62.8268 76.4801C62.8137 76.4513 62.8019 76.4237 62.7888 76.3975C62.7835 76.387 62.7796 76.3766 62.7744 76.3648C62.7626 76.3399 62.7521 76.315 62.7416 76.2914C62.7363 76.2809 62.7324 76.2704 62.7272 76.2599C62.7167 76.2363 62.7062 76.214 62.697 76.1918C62.6931 76.1839 62.6892 76.1747 62.6865 76.1669C62.6761 76.1446 62.6669 76.1223 62.6577 76.1013C62.6551 76.0948 62.6525 76.0895 62.6498 76.083C62.6394 76.0594 62.6302 76.0384 62.621 76.0174C62.621 76.0148 62.6184 76.0122 62.6184 76.0109C62.6079 75.9873 62.6 75.9663 62.5909 75.9467C62.4087 76.0397 62.1858 75.9676 62.0928 75.7854L60.9184 73.5008C60.8319 73.3331 60.6195 73.2754 60.4596 73.3789L60.4544 73.3829L58.1632 67.5999C57.6547 65.5316 58.9864 62.8958 59.1318 62.2718C59.4255 61.0188 59.3691 59.5324 59.5709 58.8194C59.7046 58.3475 59.8672 57.7813 60.0402 57.2072L61.1399 55.2922C61.2854 55.0393 61.2369 54.7208 61.0534 54.5307C61.0521 54.5294 61.0508 54.5281 61.0494 54.5255C61.035 54.511 61.0193 54.4966 61.0036 54.4835C60.9996 54.4809 60.997 54.4783 60.9931 54.4757C60.9787 54.4639 60.9616 54.4534 60.9459 54.4442C60.9407 54.4416 60.9367 54.439 60.9328 54.435C60.9118 54.4232 60.8908 54.4127 60.8686 54.4036C60.5933 54.2961 60.225 54.2397 59.7728 54.3695C59.7282 54.3826 59.681 54.397 59.6352 54.414C59.5618 54.4403 59.4857 54.473 59.4071 54.5097C59.238 54.5897 59.0598 54.6945 58.8736 54.8322C58.871 54.8335 58.8697 54.8361 58.8671 54.8374C58.8199 54.8728 58.774 54.9082 58.7295 54.9462C58.7137 54.9606 58.698 54.975 58.681 54.9895C58.6508 55.017 58.6194 55.0432 58.5905 55.0707C58.5722 55.0878 58.5551 55.1061 58.5381 55.1232C58.5119 55.1494 58.4844 55.1769 58.4581 55.2044C58.4398 55.2241 58.4227 55.2437 58.4057 55.2634C58.3808 55.2909 58.3572 55.3184 58.3323 55.346C58.3153 55.3669 58.2982 55.3879 58.2825 55.4089C58.2589 55.4377 58.2366 55.4666 58.2143 55.4954C58.1973 55.5177 58.1816 55.54 58.1658 55.5622C58.1436 55.5924 58.1226 55.6225 58.1016 55.6527C58.0859 55.675 58.0715 55.6986 58.0557 55.7208C58.0348 55.7523 58.0138 55.7838 57.9941 55.8152C57.9797 55.8388 57.9653 55.8624 57.9509 55.8847C57.9312 55.9175 57.9116 55.9489 57.8919 55.983C57.8788 56.0066 57.8657 56.0302 57.8526 56.0538C57.8342 56.0878 57.8146 56.1206 57.7975 56.1547C57.7844 56.1783 57.7726 56.2019 57.7608 56.2255C57.7425 56.2596 57.7254 56.2949 57.7084 56.329C57.6966 56.3526 57.6861 56.3762 57.6743 56.3998C57.6573 56.4352 57.6402 56.4706 57.6245 56.506C57.614 56.5296 57.6035 56.5532 57.5931 56.5767C57.5773 56.6121 57.5616 56.6488 57.5459 56.6842C57.5354 56.7078 57.5262 56.7314 57.517 56.7537C57.5013 56.7904 57.4869 56.8258 57.4725 56.8625C57.4633 56.8848 58.3952 51.0075 58.2025 50.0913C58.0374 49.3035 57.4567 49.124 57.1081 49.2944C57.0806 49.3075 57.0543 49.3232 57.0294 49.3415C57.0294 49.3415 57.0268 49.3429 57.0255 49.3442C57.0006 49.3625 56.977 49.3822 56.9574 49.4058C56.9482 49.4163 56.9377 49.4307 56.9259 49.449C56.9259 49.4516 56.9233 49.453 56.922 49.4543C56.9115 49.4713 56.8997 49.4923 56.8879 49.5159C56.8853 49.5198 56.884 49.5237 56.8813 49.5277C56.8695 49.5513 56.8564 49.5788 56.8433 49.6076C56.8407 49.6129 56.8381 49.6194 56.8355 49.6247C56.8224 49.6548 56.8079 49.6876 56.7935 49.723C56.7909 49.7295 56.7883 49.7361 56.7857 49.7426C56.7712 49.7793 56.7555 49.8186 56.7385 49.8606C56.7358 49.8658 56.7345 49.8711 56.7319 49.8763C56.7162 49.9196 56.6991 49.9641 56.6808 50.0126C56.6808 50.0153 56.6782 50.0179 56.6782 50.0205C56.6598 50.069 56.6415 50.1214 56.6231 50.1752C56.6205 50.183 56.6179 50.1909 56.6153 50.1988C56.5969 50.2512 56.5786 50.3049 56.5589 50.3613C56.555 50.3718 56.551 50.3823 56.5484 50.3941C56.5301 50.4504 56.5104 50.5081 56.4907 50.5671C56.4868 50.5789 56.4829 50.5907 56.4789 50.6038C56.4593 50.6641 56.4383 50.727 56.4186 50.7899C56.4147 50.8017 56.4108 50.8122 56.4082 50.824C56.3872 50.8895 56.3649 50.9577 56.3439 51.0258C56.3413 51.0337 56.3387 51.0429 56.3361 51.0507C56.3138 51.1202 56.2915 51.191 56.2692 51.2644C56.2679 51.2696 56.2653 51.2749 56.264 51.2801C56.2404 51.3548 56.2168 51.4308 56.1932 51.5082C56.1893 51.5187 56.1867 51.5305 56.1827 51.5409C56.1604 51.6157 56.1368 51.6904 56.1146 51.7664C56.1093 51.7821 56.1054 51.7978 56.1001 51.8136C56.0779 51.8896 56.0543 51.9656 56.0307 52.0429C56.0267 52.0574 56.0215 52.0718 56.0176 52.0862C55.994 52.1662 55.9704 52.2461 55.9455 52.3287C55.9429 52.3392 55.9389 52.351 55.9363 52.3615C55.9114 52.4466 55.8865 52.5318 55.8603 52.6184C55.859 52.6236 55.8577 52.6288 55.8563 52.6341C55.8301 52.7219 55.8052 52.811 55.779 52.9002C55.779 52.9041 55.7764 52.908 55.7751 52.9133C55.7489 53.0024 55.724 53.0915 55.6977 53.1807C55.6951 53.1911 55.6925 53.2003 55.6886 53.2108C55.6637 53.2986 55.6375 53.3864 55.6126 53.4756C55.6099 53.4861 55.6073 53.4965 55.6034 53.5057C55.5785 53.5948 55.5523 53.684 55.5274 53.7731C55.5247 53.781 55.5221 53.7901 55.5208 53.798C55.4946 53.8898 55.4684 53.9815 55.4435 54.0733C55.4435 54.0759 55.4422 54.0785 55.4408 54.0811C55.298 54.5858 55.1604 55.0812 55.0345 55.5373C54.9782 55.7418 54.6964 55.7549 54.619 55.5583L54.6164 55.5518C54.6806 55.076 54.7658 54.5242 54.8759 53.8989C55.0843 52.7245 55.3845 51.288 55.8196 49.588C56.0071 48.8553 56.1775 48.1147 56.2941 47.3637C56.3046 47.2994 56.3138 47.2339 56.3243 47.167C56.3308 47.1238 56.3374 47.0792 56.3439 47.0347C56.3479 47.0124 56.3505 46.9888 56.3531 46.9665C56.361 46.9115 56.3675 46.8551 56.3754 46.8C56.3754 46.7909 56.378 46.783 56.378 46.7738C56.4344 46.3164 56.4593 45.8406 56.3728 45.4133C56.3099 45.104 56.1526 44.8038 55.8983 44.6557C55.7279 44.5561 55.53 44.5325 55.3373 44.5115H55.3347C55.2718 44.505 55.2062 44.4971 55.1446 44.5154C55.1276 44.5207 55.1119 44.5259 55.0974 44.5338C55.0961 44.5338 55.0948 44.5364 55.0922 44.5364C55.0489 44.5587 55.0096 44.5928 54.9768 44.6334C54.9519 44.6623 54.931 44.695 54.91 44.7278C54.91 44.7278 54.5312 45.3202 54.4145 45.8419C54.2769 46.222 54.4132 45.7069 54.5456 44.9454C54.5535 44.8982 54.5613 44.8484 54.5692 44.7999C54.5718 44.7841 54.5745 44.7684 54.5758 44.7527C54.581 44.7186 54.5863 44.6832 54.5902 44.6478C54.5928 44.6282 54.5954 44.6085 54.598 44.5889C54.6033 44.543 54.6085 44.4971 54.6138 44.4499C54.6164 44.4211 54.619 44.3909 54.6216 44.3608C54.623 44.3411 54.6243 44.3202 54.6256 44.3005C54.6282 44.2664 54.6295 44.231 54.6321 44.1969C54.6321 44.1865 54.6321 44.176 54.6321 44.1655C54.6361 44.0475 54.6387 43.9296 54.6295 43.8129V43.7919C54.6085 43.4865 54.5443 43.1942 54.4067 42.9531C54.2835 42.7368 54.1039 42.5612 53.8431 42.4563C53.7356 42.413 53.6202 42.3881 53.5075 42.4065C53.1576 42.4655 52.8876 42.8784 52.6831 43.3188C52.6228 43.4236 52.5651 43.5468 52.5271 43.6858C52.455 43.8693 52.3947 44.041 52.3449 44.1773C52.3436 44.1812 52.341 44.1865 52.3397 44.1917C52.2872 44.3333 52.2361 44.4774 52.1876 44.6203C52.1457 44.7409 52.1064 44.8615 52.067 44.9821C52.067 44.9821 52.067 44.9834 52.067 44.9847C52.0749 44.9427 52.0828 44.9021 52.0893 44.8602C52.0919 44.8418 52.0959 44.8235 52.0985 44.8064C52.1051 44.7697 52.1103 44.733 52.1142 44.6976C52.1168 44.6767 52.1195 44.657 52.1221 44.636C52.126 44.602 52.13 44.5692 52.1326 44.5364C52.1339 44.5154 52.1352 44.4958 52.1365 44.4761C52.1391 44.4447 52.1404 44.4145 52.1418 44.3844C52.1418 44.3647 52.1418 44.3464 52.1418 44.3267C52.1418 44.2782 52.1418 44.231 52.1365 44.1865C52.1352 44.1642 52.1339 44.1406 52.1313 44.1196C52.1286 44.0986 52.1247 44.0777 52.1221 44.058C52.1182 44.037 52.1142 44.0161 52.1103 43.9951C52.1064 43.9767 52.1011 43.9584 52.0959 43.94C52.0893 43.9191 52.0828 43.8994 52.0762 43.8811C52.0697 43.8653 52.0644 43.8496 52.0579 43.8339C52.0474 43.8116 52.0369 43.7906 52.0251 43.771C52.0185 43.7605 52.0133 43.7487 52.0067 43.7395C51.9884 43.7107 51.9661 43.6844 51.9425 43.6595C51.9347 43.6517 51.9255 43.6438 51.9163 43.636C51.8993 43.6189 51.8809 43.6032 51.8613 43.5888C51.8508 43.5809 51.8377 43.573 51.8272 43.5665C51.8075 43.5534 51.7865 43.5416 51.7643 43.5311C51.7512 43.5245 51.738 43.518 51.7249 43.5127C51.7 43.5023 51.6738 43.4931 51.6463 43.4852C51.6332 43.4813 51.6214 43.4774 51.6083 43.4734C51.5663 43.4629 51.5231 43.4538 51.4759 43.4485C51.4562 43.4459 51.4366 43.4459 51.4169 43.4446C50.5518 43.3843 50.0551 44.3936 49.7156 45.3347C49.654 45.2993 49.5911 45.2691 49.5269 45.2442C49.5255 45.2442 49.5229 45.2442 49.5216 45.2429C49.4836 45.2285 49.4456 45.218 49.4063 45.2088C49.3997 45.2075 49.3945 45.2062 49.3879 45.2049C49.3512 45.197 49.3145 45.1905 49.2765 45.1865C49.2713 45.1865 49.266 45.1852 49.2608 45.1852C49.1743 45.1774 49.0838 45.1813 48.9921 45.1996C48.9593 45.2062 48.9265 45.2128 48.8925 45.2232C48.2371 45.4133 48.2201 45.9874 48.5084 46.8381C48.414 46.6414 48.3157 46.4475 48.2161 46.2548C48.2161 46.2548 48.2161 46.2548 48.2161 46.2535C48.1899 46.2024 48.1637 46.1525 48.1375 46.1014C48.1375 46.1001 48.1362 46.0975 48.1349 46.0962C47.8675 45.5955 47.355 44.5194 46.7468 44.5141C46.6328 44.5141 46.5214 44.5561 46.4204 44.6164C45.5514 45.1302 45.7887 46.361 46.0508 47.1933C46.4191 48.3651 46.0993 47.6402 45.7257 47.1199C45.6406 47.0006 45.537 46.8774 45.4007 46.8616C45.3378 46.8538 45.2735 46.8708 45.2119 46.8879C45.0232 46.939 44.8292 46.994 44.6732 47.1199C44.4412 47.3073 44.3246 47.6297 44.3023 47.9456C44.2577 48.5761 44.4583 49.2681 44.6339 49.8632C44.8476 50.588 45.1123 51.2932 45.3928 51.9892C45.9735 53.4271 46.4217 54.6736 46.7665 55.7274C46.7927 55.81 46.8189 55.8886 46.8438 55.9686L46.8412 55.9777C46.7678 56.2936 46.3339 56.333 46.2042 56.0354C45.3705 54.1231 44.4884 52.1845 44.2473 51.9866C43.9746 51.7625 43.4359 51.8608 43.2065 52.4086C43.1908 52.4466 43.1764 52.4873 43.1646 52.5279C43.1607 52.541 43.158 52.5541 43.1541 52.5672C43.1449 52.6 43.1371 52.6328 43.1305 52.6669C43.1279 52.6813 43.1253 52.6944 43.1226 52.7088C43.1148 52.7573 43.1082 52.8071 43.1043 52.8595C43.1043 52.8739 43.103 52.8897 43.1043 52.908C43.1043 52.9277 43.1056 52.9487 43.1082 52.9723C43.1109 53.0076 43.1161 53.047 43.1226 53.0915C43.1279 53.1269 43.1344 53.1636 43.1423 53.2029C43.1672 53.3314 43.2039 53.4834 43.2511 53.6551C43.2577 53.6787 43.2642 53.7023 43.2708 53.7259C43.3193 53.8976 43.3756 54.0877 43.4398 54.2922C43.4503 54.3249 43.4608 54.3577 43.4713 54.3918C43.5211 54.5491 43.5748 54.7142 43.6325 54.8846C43.6456 54.9226 43.6587 54.9619 43.6718 55.0013C43.702 55.0904 43.7334 55.1821 43.7649 55.2739C43.4949 54.9724 43.1921 54.7129 42.8513 54.5346C41.9024 54.0366 41.2339 54.1847 40.821 54.4245C40.7909 54.4416 40.7633 54.4625 40.7384 54.4848C40.7148 54.5058 40.6926 54.5268 40.6729 54.5504C40.6454 54.5831 40.6218 54.6198 40.6034 54.6578C40.5943 54.6775 40.5851 54.6972 40.5772 54.7168C40.5235 54.8584 40.5195 55.0196 40.5707 55.1677C40.5929 55.2306 40.6244 55.2909 40.6663 55.346V55.342ZM52.9229 55.519C52.9295 55.536 52.9374 55.5518 52.9439 55.5688C52.9452 55.5727 52.9478 55.578 52.9492 55.5819C52.94 55.5609 52.9308 55.54 52.9216 55.519H52.9229Z" fill="var(--sapContent_Illustrative_Color21)"/>
<path d="M52.2799 66.6787C52.2799 66.6787 65.7912 70.9538 65.556 72.0977C65.0731 74.4426 51.7789 72.5249 52.2799 66.6787Z" fill="var(--sapContent_Illustrative_Color22)"/>
<path d="M76.252 68.2021C76.252 68.2021 72.8119 60.3116 72.8091 60.306C72.1537 58.8017 72.9706 56.6642 73.4715 55.1946C74.0866 53.3855 74.1256 51.5054 74.6739 49.7436C74.8506 49.1772 75.0664 48.4953 75.2946 47.8037L76.7502 45.5005C76.9965 45.1109 76.824 44.5862 76.3898 44.4331C75.8081 44.2272 74.9063 44.1771 73.7485 44.9494C71.6235 46.3689 71.0974 50.1221 71.0974 50.1221C71.0974 50.1221 70.7871 50.4658 69.9118 49.4388C69.0448 48.4202 68.6329 47.0035 68.1054 45.7983C67.411 44.2105 66.8335 42.5851 66.1753 40.9819C65.4085 39.1185 64.8602 38.2696 63.8457 36.5315C63.2153 35.4516 62.1966 32.9522 60.5378 33.3878C58.4281 33.9417 61.3073 37.2329 62.8854 41.3869C63.7316 43.6135 65.2248 46.7808 65.2248 46.7808C64.895 46.9019 64.1059 44.7407 64.0224 44.5417C63.3071 42.8425 62.635 41.1266 61.9155 39.4289C61.1988 37.7352 60.4668 36.0263 59.533 34.4385C59.1782 33.8359 58.5004 32.5417 57.6947 32.5361C57.543 32.5361 57.3969 32.5876 57.2633 32.6586C56.1124 33.2765 56.4269 34.7558 56.7734 35.7577C57.2619 37.1675 58.1859 38.3782 58.6841 39.7795C59.007 40.6869 59.3632 41.5859 59.7195 42.4821C60.13 43.5161 60.5155 44.5723 60.997 45.5757C61.4131 46.444 62.0073 48.4132 61.9127 48.2907C61.8181 48.1683 61.8431 48.0291 60.9706 45.7037C60.1467 43.5077 59.2617 41.3284 58.2847 39.1965C57.7309 37.9885 57.1742 36.7152 56.3448 35.6673C56.2321 35.524 56.0943 35.3764 55.9134 35.357C55.8299 35.3486 55.7464 35.3681 55.6643 35.389C55.4152 35.4516 55.1577 35.517 54.9504 35.6687C54.6428 35.8941 54.4884 36.281 54.4591 36.6609C54.4007 37.4193 54.6651 38.2515 54.8975 38.9682C55.18 39.8394 55.5307 40.6883 55.9023 41.526C57.9229 46.0697 58.7301 49.0394 59.0223 50.335C59.0459 50.4394 58.8984 50.4895 58.8539 50.3921C57.8742 48.2643 54.9226 41.9227 54.3868 41.5233C53.9415 41.1907 52.9673 41.4467 52.8727 42.5753C52.7781 43.7025 56.4798 52.037 56.4798 52.037C56.4798 52.037 58.346 59.6019 62.3705 63.1338C66.3951 66.6658 67.1508 73.0714 67.1508 73.0714L76.2506 68.2021H76.252Z" fill="var(--sapContent_Illustrative_Color28)"/>
<path d="M61.9127 48.2906C61.8181 48.1695 61.8431 48.0289 60.9706 45.7035C60.7646 45.1538 60.5545 44.6041 60.3401 44.0558C60.5461 44.5694 60.7604 45.0773 60.997 45.5741C61.4131 46.4425 62.0073 48.4116 61.9127 48.2892V48.2906ZM64.0224 44.5415C63.3071 42.8424 62.6336 41.1265 61.9155 39.4287C61.6845 38.8846 61.4521 38.3377 61.2127 37.7949C61.7693 38.8693 62.3914 40.0855 62.8854 41.3867C63.7315 43.6133 65.2248 46.7807 65.2248 46.7807C64.8949 46.9017 64.1059 44.7391 64.0224 44.5415Z" fill="var(--sapContent_Illustrative_Color30)"/>
<path d="M61.3282 47.1926C61.4048 47.2427 61.4841 47.2872 61.5634 47.3303C61.4354 46.963 61.2489 46.4453 60.9706 45.7035C60.837 45.3459 60.6978 44.991 60.5615 44.6348C60.4793 45.101 60.4543 45.5866 60.5615 46.0459C60.67 46.5149 60.9233 46.9254 61.3296 47.1912L61.3282 47.1926Z" fill="var(--sapContent_Illustrative_Color30)"/>
<path d="M76.3884 44.4333C75.8067 44.2273 74.9049 44.1772 73.7471 44.9496C71.6791 46.3301 71.1253 49.9205 71.0974 50.1125C71.0766 50.125 71.0571 50.1404 71.039 50.1571C70.9151 50.2072 70.577 50.2211 69.9104 49.4376C69.0434 48.4189 68.6315 47.0022 68.104 45.7971C67.4096 44.2092 66.8321 42.5838 66.1739 40.9807C65.4071 39.1173 64.8588 38.2684 63.8443 36.5302C63.8192 36.4871 63.7928 36.4398 63.7663 36.3925C63.7594 36.38 63.7524 36.366 63.7441 36.3535C63.7218 36.3132 63.6982 36.27 63.6745 36.2269C63.6689 36.2171 63.6648 36.2088 63.6592 36.199C63.6355 36.1545 63.6105 36.11 63.5868 36.0627C63.4518 35.8094 63.3015 35.5269 63.1345 35.2416C63.1304 35.236 63.1276 35.2291 63.1234 35.2235C63.0886 35.1651 63.0538 35.1066 63.0176 35.0468C63.0135 35.0398 63.0107 35.0342 63.0065 35.0273C62.4276 34.0796 61.6664 33.1848 60.6658 33.3587C60.8634 33.7303 59.1322 48.5678 59.5121 48.9895C57.9438 48.899 56.4784 52.0357 56.4784 52.0357C56.4784 52.0357 58.3446 59.6006 62.3691 63.1326C66.3937 66.6645 67.1494 73.0702 67.1494 73.0702L70.6827 71.179C70.1943 70.7503 69.7406 70.2828 69.3315 69.7859C68.4506 68.7158 67.7283 67.48 67.386 66.1288C67.2315 65.5178 67.1536 64.8805 67.187 64.2487C67.2162 63.6934 67.3567 63.1493 67.5697 62.6344C68.0205 61.5475 68.651 60.5455 69.1784 59.4963C69.1812 59.4907 69.1839 59.4837 69.1881 59.4782C69.3913 59.0732 68.9265 58.6543 68.548 58.9048C68.4116 58.9953 68.2696 59.076 68.1207 59.1442C67.2482 59.5491 66.1864 59.4267 65.453 58.7851C65.2609 58.6181 65.1287 58.4205 65.0383 58.2048C65.2317 58.1561 65.4168 58.1018 65.5546 58.035C65.8065 57.9154 66.043 57.7484 66.2768 57.5967C66.5635 57.4102 66.8474 57.2182 67.1313 57.0275C67.3971 56.8508 67.6629 56.6754 67.9357 56.5084C67.9036 56.3637 67.8744 56.2176 67.8549 56.0687C67.841 55.9685 67.9092 55.8794 67.9969 55.8307C67.9955 55.5287 68.0289 55.2267 68.0873 54.9415C68.2627 54.0912 68.676 53.3216 69.2076 52.6425C69.5597 52.193 69.877 51.255 69.9883 50.4952C70.2931 50.6079 69.7935 51.422 70.2819 51.5654C70.5171 51.635 70.762 51.4902 70.8442 51.2606C71.167 50.3547 71.8823 48.4941 71.9797 48.1587C73.0374 44.4904 76.1741 44.6643 76.6918 44.6434C76.6138 44.5488 76.5109 44.4723 76.3842 44.4277L76.3884 44.4333Z" fill="var(--sapContent_Illustrative_Color30)"/>
<path d="M53.389 67.9612L55.6657 59.6532C55.9774 57.094 53.7773 54.2091 53.4781 53.4938C52.8769 52.0577 52.696 50.2778 52.3091 49.4665C52.0531 48.9307 51.7413 48.2864 51.4171 47.6365L49.6469 45.5644C49.3477 45.2137 49.4438 44.6709 49.8515 44.4566C50.3984 44.1699 51.2835 43.9904 52.5387 44.5902C54.8447 45.691 55.9023 49.3301 55.9023 49.3301C55.9023 49.3301 56.2586 49.6265 56.978 48.484C57.6905 47.3526 57.8951 45.89 58.2444 44.6222C58.705 42.9509 59.0432 41.2601 59.4649 39.5804C59.9561 37.6265 60.3792 36.708 61.1334 34.8419C61.6024 33.6826 62.2537 31.0636 63.957 31.257C66.1238 31.5034 63.7455 35.1717 62.7783 39.5094C62.2592 41.8348 61.235 45.183 61.235 45.183C61.5787 45.2554 62.0505 43.0038 62.1048 42.795C62.5696 41.011 62.9898 39.2158 63.4574 37.4331C63.925 35.6504 64.4037 33.858 65.1009 32.1533C65.3654 31.5061 65.8524 30.1284 66.6484 30.0074C66.7973 29.9851 66.9504 30.0157 67.0938 30.0672C68.3212 30.5139 68.221 32.0238 68.022 33.0648C67.7409 34.5301 66.9991 35.8605 66.7069 37.319C66.5176 38.2625 66.2936 39.2032 66.0695 40.1426C65.8107 41.2239 65.5811 42.326 65.2485 43.3879C64.9618 44.3063 64.6542 46.3409 64.7308 46.2059C64.8073 46.0723 64.7628 45.9373 65.293 43.5117C65.794 41.2211 66.3576 38.9374 67.02 36.6872C67.3957 35.4124 67.7645 34.0723 68.4339 32.9173C68.5257 32.76 68.6398 32.593 68.8166 32.5485C68.8987 32.5276 68.9836 32.5359 69.0685 32.5443C69.3245 32.5707 69.5875 32.5986 69.8144 32.7183C70.1512 32.8964 70.3585 33.2582 70.442 33.6298C70.609 34.3715 70.4657 35.2329 70.3376 35.976C70.1832 36.8792 69.9577 37.7699 69.7086 38.6508C68.3587 43.4366 67.9858 46.4912 67.8814 47.816C67.8731 47.9232 68.0261 47.951 68.0568 47.848C68.722 45.6019 70.7356 38.904 71.2088 38.4309C71.6012 38.0384 72.6032 38.1526 72.8579 39.2547C73.1125 40.3569 70.6424 49.1353 70.6424 49.1353C70.6424 49.1353 69.8784 56.8894 66.4007 60.9613C62.923 65.0332 63.0928 71.4806 63.0928 71.4806L53.3904 67.964L53.389 67.9612Z" fill="var(--sapContent_Illustrative_Color31)"/>
<path d="M53.389 67.9596L55.9037 69.3248C55.8605 67.0704 57.4178 64.7464 58.2708 62.6617C58.2834 62.6311 58.2973 62.6005 58.3112 62.5671C58.808 61.4886 58.9319 60.2584 58.6508 59.1047C58.2291 57.3819 56.6858 56.0445 56.0122 54.3913C55.0785 52.1007 54.4467 50.0355 52.895 48.0608C52.6765 47.7824 50.0756 44.3382 49.8515 44.4551C49.4438 44.6694 49.3477 45.2135 49.6469 45.5628C50.2634 46.2837 50.8743 46.9669 51.3948 47.7643C52.5332 49.5067 52.6904 51.608 53.4795 53.4923C53.7787 54.2076 55.9774 57.0924 55.6671 59.6516L53.3904 67.9596H53.389Z" fill="var(--sapContent_Illustrative_Color3)"/>
<path d="M66.7055 37.3149C66.9977 35.8565 67.7395 34.5261 68.0206 33.0607C68.1639 32.3134 68.253 31.324 67.8383 30.6602C67.72 31.7735 67.4333 32.8673 67.0882 33.9291C66.6011 35.4307 64.1171 46.4398 64.4093 46.4829C64.703 46.5275 64.8658 46.1573 64.9242 45.8665C65.3083 43.9613 65.7481 42.0548 66.0681 40.1371C66.2922 39.1992 66.5162 38.2584 66.7055 37.3135V37.3149Z" fill="var(--sapContent_Illustrative_Color3)"/>
<path d="M68.9502 39.0739C68.6093 40.2095 68.4172 41.3757 68.2168 42.5419C67.919 44.2758 67.6657 46.0209 67.5224 47.7758C67.5043 47.9901 67.7966 48.0736 67.8954 47.8829C67.8968 47.8802 67.8982 47.8774 67.8995 47.8746C67.887 47.8593 67.8801 47.8384 67.8815 47.8134C67.9844 46.4885 68.3588 43.4339 69.7087 38.6481C69.9578 37.7672 70.1832 36.8766 70.3377 35.9734C70.4393 35.3792 70.5492 34.7084 70.5047 34.085C70.3725 34.7015 70.1999 35.311 70.0065 35.9122C69.6655 36.9712 69.2703 38.0107 68.9502 39.0767V39.0739Z" fill="var(--sapContent_Illustrative_Color3)"/>
<path d="M64.5694 32.7152C64.5332 32.8405 64.4873 32.9629 64.4497 33.091C64.3773 33.3289 64.3133 33.5725 64.2395 33.8104C64.0809 34.3226 63.9195 34.8333 63.7608 35.344C63.431 36.4072 63.0998 37.469 62.7714 38.5322C62.4429 39.5954 62.095 40.724 61.7638 41.8206C61.5133 42.6487 61.2629 43.4767 61.0346 44.3103C60.9706 44.5441 60.901 44.7806 60.8579 45.02C60.8189 45.2385 61.1084 45.3665 61.2336 45.1842C61.2336 45.1828 61.2364 45.18 61.2378 45.1786C61.2921 45.0979 62.3692 41.3489 62.7811 39.505C63.0845 38.1468 63.5256 36.8539 63.9222 35.71C63.7622 36.282 64.856 32.782 64.7405 33.1021C64.9785 32.0055 64.8435 31.3153 63.8819 31.2471C64.3105 31.5337 64.6723 31.7926 64.6375 32.3618C64.6306 32.4842 64.6041 32.5997 64.5707 32.7125L64.5694 32.7152Z" fill="var(--sapContent_Illustrative_Color3)"/>
<path d="M71.0851 42.4137C71.0765 42.4137 71.0765 42.3994 71.0851 42.3994C71.0936 42.3994 71.0936 42.4137 71.0851 42.4137Z" fill="var(--sapContent_Illustrative_Color3)"/>
<path d="M68.7707 79.4657L79.2149 72.2821L76.2409 67.0273C76.2409 67.0273 70.7023 70.3338 66.4634 72.2543L68.7693 79.4657H68.7707Z" fill="var(--sapContent_Illustrative_Color8)"/>
<path d="M93.0712 97.9784C87.6843 87.6233 79.4973 72.1498 78.6721 70.3477C78.6721 70.3477 66.9908 75.7416 67.1633 77.0511C67.3456 78.4344 72.2678 89.6231 76.0071 97.9798H93.0712V97.9784Z" fill="var(--sapContent_Illustrative_Color13)"/>
<path d="M77.6131 97.9788C75.9125 94.497 74.5404 90.805 73.967 86.9599C73.6804 85.0353 73.5843 83.0745 73.8112 81.1373C73.9072 80.3177 74.0199 79.4688 74.3191 78.6937C74.5668 78.0535 74.9231 77.4746 75.3656 76.9513C76.6793 75.3955 78.5761 74.4687 80.0707 73.1202C79.3415 71.7091 78.8433 70.7266 78.6693 70.3467C78.6693 70.3467 66.988 75.7406 67.1606 77.0501C67.3429 78.4334 72.2651 89.6221 76.0044 97.9788H77.6117H77.6131Z" fill="var(--sapContent_Illustrative_Color22)"/>
<path d="M57.6224 97.9792C60.9275 87.5044 65.556 72.0977 65.556 72.0977L52.2799 66.6787L40.3912 97.9792H57.6224Z" fill="var(--sapContent_Illustrative_Color13)"/>
<path d="M43.855 97.9792C44.1097 96.8881 44.4075 95.8068 44.7331 94.7353C45.2717 92.9651 45.8896 91.22 46.5534 89.493C47.2227 87.7507 47.9422 86.0279 48.6881 84.3162C49.377 82.7367 50.0909 81.1683 50.8159 79.6041C50.8507 79.529 50.8938 79.4302 50.9453 79.3105C53.3626 73.6271 59.5567 70.5516 65.5379 72.0935L65.556 72.0977L52.2799 66.6787L40.3912 97.9792H43.855Z" fill="var(--sapContent_Illustrative_Color22)"/>
</svg>