<svg width="160" height="160" viewBox="0 0 160 160" fill="none" xmlns="http://www.w3.org/2000/svg" id="sapIllus-Dialog-NoSearchResults">
<rect y="53.2" width="160" height="69" rx="12" fill="var(--sapContent_Illustrative_Color20)"/>
<path fill-rule="evenodd" clip-rule="evenodd" d="M73.883 122H40.7078C40.7429 121.787 40.7854 121.57 40.8327 121.351C40.8482 121.281 40.8638 121.204 40.8793 121.126L40.8793 121.126C40.9114 120.97 40.9487 120.812 40.9868 120.651C41.0134 120.539 41.0404 120.425 41.066 120.309C41.0738 120.27 41.0835 120.231 41.0933 120.192C41.103 120.154 41.1127 120.115 41.1205 120.076C41.136 120.052 41.136 120.029 41.136 120.006C41.1438 119.967 41.1535 119.926 41.1633 119.885C41.173 119.844 41.1827 119.803 41.1905 119.765C41.1983 119.726 41.208 119.687 41.2177 119.648C41.2274 119.609 41.2372 119.57 41.2449 119.531C41.276 119.399 41.3071 119.259 41.3381 119.12L41.3383 119.119L41.3383 119.119C41.3694 118.987 41.4005 118.854 41.4239 118.722C41.4783 118.458 41.5328 118.186 41.5716 117.905L41.6183 117.555C41.621 117.534 41.6247 117.513 41.6284 117.492C41.6351 117.454 41.6417 117.417 41.6417 117.377C41.6883 116.956 41.7272 116.521 41.7272 116.077C41.735 115.626 41.7194 115.167 41.6728 114.685C41.6261 114.281 41.5639 113.853 41.4705 113.417C41.2994 112.616 41.0349 111.768 40.6382 110.874C40.6185 110.834 40.6019 110.795 40.5845 110.753C40.5744 110.729 40.564 110.705 40.5526 110.679V110.648C40.5215 110.578 40.4904 110.508 40.4671 110.438V110.422C39.8292 108.75 39.3003 106.144 38.8491 103.258C37.5656 102.597 36.3366 101.578 35.2942 100.419L35.1776 100.279C35.1698 100.271 35.1639 100.263 35.1581 100.256C35.1523 100.248 35.1464 100.24 35.1387 100.232C35.1166 100.21 35.0985 100.184 35.0815 100.16C35.0745 100.15 35.0677 100.14 35.0609 100.131C35.0531 100.119 35.0473 100.11 35.0414 100.1C35.0356 100.09 35.0298 100.081 35.022 100.069C35.0064 100.03 34.9831 99.9989 34.9598 99.9678L34.9597 99.9678C34.9503 99.9584 34.9438 99.9461 34.9366 99.9327C34.9319 99.924 34.927 99.9148 34.9209 99.9056C34.8975 99.8745 34.8742 99.8356 34.8586 99.8045C34.8508 99.7928 34.845 99.7811 34.8392 99.7695C34.8333 99.7578 34.8275 99.7461 34.8197 99.7344C34.812 99.715 34.8022 99.6975 34.7925 99.68C34.7828 99.6625 34.7731 99.645 34.7653 99.6255C34.7622 99.6162 34.7566 99.6069 34.751 99.5975C34.7426 99.5835 34.7342 99.5695 34.7342 99.5555C34.7264 99.5361 34.7167 99.5166 34.7069 99.4972C34.6972 99.4777 34.6875 99.4583 34.6797 99.4389C34.6642 99.4233 34.6486 99.4 34.6486 99.3766C34.6408 99.3533 34.6311 99.3319 34.6214 99.3105C34.6117 99.2891 34.6019 99.2677 34.5941 99.2444C34.5923 99.2407 34.59 99.2366 34.5876 99.2323C34.5799 99.2182 34.5708 99.2018 34.5708 99.1899C34.5591 99.1588 34.5475 99.1297 34.5358 99.1005C34.5241 99.0713 34.5125 99.0421 34.5008 99.011V98.9955C34.4541 98.8632 34.4075 98.7232 34.3686 98.5832V98.5443C34.353 98.4899 34.3375 98.4354 34.3219 98.3732C34.3063 98.3576 34.3063 98.3343 34.3063 98.3187C34.2986 98.2915 34.2927 98.2643 34.2869 98.237C34.2811 98.2098 34.2752 98.1826 34.2674 98.1554C34.2519 98.1398 34.2519 98.1165 34.2519 98.1009C34.2487 98.0898 34.2452 98.0783 34.2416 98.0666C34.2277 98.0213 34.213 97.9731 34.213 97.9298V97.8753C34.2098 97.8499 34.204 97.8258 34.1983 97.8019C34.19 97.7673 34.1819 97.7332 34.1819 97.6964V97.6497C34.1789 97.6259 34.1736 97.6021 34.1683 97.5778C34.1596 97.5387 34.1508 97.4985 34.1508 97.4553V97.4242C33.7971 94.987 34.1462 92.1376 34.378 90.2455C34.4725 89.4744 34.5475 88.8624 34.5475 88.502C34.5475 87.2574 34.9986 84.3482 38.0712 83.4303C38.8724 83.1969 39.5803 83.088 40.187 83.088H41.0427C41.0738 83.1036 41.1049 83.1036 41.136 83.1036H41.1749C41.2052 83.1069 41.2325 83.1132 41.2589 83.1192C41.2935 83.1272 41.3263 83.1347 41.3616 83.1347H41.4161C41.4472 83.1502 41.4705 83.1502 41.5016 83.1502H41.5483C41.5639 83.1502 41.5775 83.1541 41.5911 83.158C41.6047 83.1619 41.6183 83.1658 41.6339 83.1658H41.6572C41.7117 83.1736 41.7661 83.1891 41.8206 83.2047H41.8595C41.8672 83.2073 41.875 83.2108 41.8828 83.2142C41.8984 83.2211 41.9139 83.228 41.9295 83.228C41.945 83.2436 41.9528 83.2436 41.9684 83.2436C41.9761 83.2462 41.9839 83.2496 41.9917 83.2531C42.0073 83.26 42.0228 83.2669 42.0384 83.2669H42.0617C42.0812 83.2747 42.1026 83.2825 42.124 83.2903C42.1453 83.298 42.1667 83.3058 42.1862 83.3136H42.2173C42.2209 83.3154 42.2251 83.3177 42.2294 83.3201C42.2434 83.3279 42.2598 83.3369 42.2717 83.3369C42.2795 83.3525 42.3028 83.3525 42.3028 83.3525C42.3131 83.3559 42.3218 83.3608 42.3297 83.3652C42.3398 83.3709 42.3486 83.3758 42.3573 83.3758H42.3806C42.3936 83.3823 42.4066 83.3875 42.419 83.3924C42.4364 83.3992 42.4526 83.4057 42.4662 83.4147C42.4818 83.4303 42.4818 83.4303 42.4973 83.4303C42.5051 83.4303 42.5109 83.4342 42.5168 83.4381C42.5226 83.4419 42.5284 83.4458 42.5362 83.4458C42.5518 83.4614 42.5673 83.4614 42.5673 83.4614C42.5751 83.477 42.5984 83.477 42.5984 83.477C42.614 83.4925 42.614 83.4925 42.6295 83.4925C42.6451 83.4925 42.6684 83.5081 42.6684 83.5081C42.9832 83.3908 43.3029 83.2784 43.6198 83.167C43.7022 83.1381 43.7844 83.1092 43.8664 83.0802C43.9908 82.9247 44.1153 82.7691 44.2397 82.6057C44.2903 82.5396 44.3409 82.4754 44.3914 82.4113C44.442 82.3471 44.4925 82.2829 44.5431 82.2168C44.5539 82.1953 44.5683 82.1775 44.5839 82.1584C44.5909 82.1498 44.5981 82.1409 44.6053 82.1312V82.1157C44.6403 82.069 44.6773 82.0204 44.7142 81.9718C44.7512 81.9232 44.7881 81.8745 44.8231 81.8279C44.8465 81.8045 44.862 81.7812 44.8776 81.7579C44.8854 81.7423 44.9009 81.7267 44.9009 81.7267C44.9359 81.6801 44.9709 81.6315 45.0059 81.5828C45.0409 81.5342 45.076 81.4856 45.111 81.4389C45.1187 81.4273 45.1285 81.4137 45.1382 81.4C45.1479 81.3864 45.1576 81.3728 45.1654 81.3611C45.2432 81.26 45.3132 81.1589 45.3832 81.0578C45.3863 81.0516 45.3919 81.0453 45.3975 81.0391C45.4059 81.0298 45.4143 81.0204 45.4143 81.0111V80.9955C45.4493 80.9411 45.4863 80.8886 45.5232 80.8361C45.5602 80.7836 45.5971 80.7311 45.6321 80.6766C45.6352 80.6705 45.6395 80.6656 45.6435 80.6609C45.6498 80.6537 45.6555 80.6471 45.6555 80.6377C45.7333 80.5288 45.811 80.4121 45.881 80.3032C45.8966 80.3032 45.8966 80.2877 45.8966 80.2877C45.9355 80.2294 45.9724 80.171 46.0094 80.1127C46.0463 80.0543 46.0833 79.996 46.1222 79.9376C46.1526 79.889 46.1829 79.8416 46.2128 79.7949C46.2595 79.7221 46.3051 79.6509 46.3478 79.5798C46.3983 79.4981 46.4489 79.4145 46.4995 79.3309C46.55 79.2473 46.6006 79.1637 46.6511 79.082C46.69 79.0042 46.7367 78.9264 46.7834 78.8486C46.7912 78.8408 46.8067 78.8175 46.8067 78.8175C46.9934 78.4986 47.1645 78.1952 47.3201 77.8996C47.6779 77.2462 47.958 76.6628 48.1758 76.1883C47.7713 75.9861 47.4135 75.6905 47.149 75.3249C46.4178 74.3136 46.4333 72.8279 47.1801 71.8322C46.3555 70.9299 45.8344 69.7398 45.7333 68.5107C45.7099 68.3163 45.7099 68.2774 45.7099 67.9196C45.7099 67.5617 45.5388 67.2272 45.2432 67.025C44.0375 66.1927 43.2518 64.8081 43.2518 63.2368C43.2518 62.5445 43.4074 61.8911 43.6797 61.3077C43.7263 61.2143 43.7186 61.1132 43.6641 61.0276C42.824 59.6741 43.3763 57.7917 44.5509 56.7104C45.7255 55.6292 47.3512 55.2014 48.9303 54.9758C49.1559 54.9369 49.3737 54.8358 49.5293 54.6569C50.1671 53.9334 51.1006 53.4745 52.1429 53.4745C52.8508 53.4745 53.5042 53.6845 54.0565 54.0501C54.3286 53.9486 54.5966 53.8385 54.8636 53.7288C55.1079 53.6285 55.3514 53.5285 55.5966 53.4356C55.6453 53.4234 55.6893 53.4065 55.7359 53.3885C55.7488 53.3835 55.762 53.3785 55.7756 53.3734C55.7911 53.3578 55.7989 53.3578 55.8144 53.3578C55.8417 53.35 55.867 53.3403 55.8922 53.3306C55.9175 53.3209 55.9428 53.3111 55.97 53.3034C55.9856 53.2878 56.0089 53.2878 56.0245 53.2878L56.1645 53.2411C56.1723 53.2385 56.18 53.2351 56.1878 53.2316C56.2034 53.2247 56.2189 53.2178 56.2345 53.2178C56.2416 53.215 56.249 53.2118 56.2566 53.2087C56.2902 53.1945 56.3272 53.1789 56.359 53.1789C56.3704 53.1761 56.3807 53.1722 56.3908 53.1684C56.4082 53.1618 56.4248 53.1556 56.4445 53.1556C56.4502 53.1533 56.4557 53.151 56.4611 53.1488C56.4927 53.1358 56.5202 53.1245 56.5534 53.1245C56.5625 53.1222 56.5722 53.1193 56.5822 53.1163C56.6066 53.1089 56.6325 53.1011 56.6545 53.1011C56.6649 53.0985 56.6753 53.0951 56.6857 53.0916C56.7064 53.0847 56.7271 53.0778 56.7479 53.0778C56.7645 53.075 56.7802 53.0713 56.7955 53.0676C56.8233 53.0609 56.8501 53.0545 56.8801 53.0545C56.9035 53.0389 56.9268 53.0389 56.9501 53.0389C56.9746 53.0362 56.9981 53.0325 57.0213 53.0289C57.0645 53.0221 57.1068 53.0156 57.1524 53.0156C57.1991 53 57.2535 53 57.308 53H58.1714C58.2025 53.0156 58.2336 53.0156 58.2647 53.0156C58.2803 53.0311 58.3036 53.0311 58.327 53.0311C58.3373 53.0337 58.3477 53.0372 58.3581 53.0406C58.3788 53.0475 58.3996 53.0545 58.4203 53.0545C58.4437 53.07 58.4592 53.07 58.4825 53.07C58.5061 53.0767 58.5282 53.082 58.5494 53.0871C58.5773 53.0937 58.6038 53.1001 58.6303 53.1089C58.6381 53.1115 58.6459 53.115 58.6537 53.1184C58.6692 53.1253 58.6848 53.1322 58.7003 53.1322C58.7315 53.14 58.7548 53.1478 58.7781 53.1556C58.7846 53.1577 58.7916 53.1604 58.7988 53.1633C58.818 53.1707 58.839 53.1789 58.8559 53.1789C58.8637 53.1815 58.8715 53.185 58.8793 53.1884C58.8948 53.1953 58.9104 53.2022 58.9259 53.2022C58.9389 53.2055 58.9505 53.2114 58.9619 53.2173C58.9779 53.2254 58.9934 53.2334 59.0115 53.2334C59.0203 53.2363 59.028 53.2403 59.0354 53.2442C59.0477 53.2506 59.0592 53.2567 59.0737 53.2567C59.0867 53.2599 59.0983 53.2659 59.1097 53.2717C59.1257 53.2799 59.1412 53.2878 59.1593 53.2878C59.1685 53.2909 59.1777 53.2952 59.1864 53.2992C59.1998 53.3054 59.2121 53.3111 59.2215 53.3111C59.2371 53.3189 59.2507 53.3248 59.2643 53.3306C59.2779 53.3364 59.2915 53.3423 59.3071 53.35C59.3304 53.3578 59.3304 53.3578 59.3615 53.3734L59.3615 53.3734L59.4549 53.4201C59.4627 53.4278 59.4782 53.4434 59.4938 53.4434C59.5327 53.4667 59.5638 53.4823 59.5949 53.4978H59.6105C59.7816 53.5912 59.9372 53.6923 60.0927 53.8012C60.1122 53.8129 60.1297 53.8265 60.1472 53.8401C60.1647 53.8537 60.1822 53.8673 60.2016 53.879L60.2172 53.8946C60.2263 53.9014 60.236 53.9082 60.246 53.9152C60.2703 53.9322 60.2963 53.9503 60.3183 53.9723L60.3339 53.9879C60.3461 54.0001 60.3595 54.0111 60.3731 54.0223C60.3943 54.0397 60.4161 54.0576 60.435 54.0812C60.4506 54.0968 60.4681 54.1124 60.4856 54.1279C60.5031 54.1435 60.5206 54.159 60.5361 54.1746C60.7928 54.4157 61.0184 54.6724 61.2206 54.9602C61.3295 55.1158 61.4307 55.2792 61.5162 55.4503C62.0296 55.2636 62.5819 55.1703 63.1264 55.1703H63.5231C63.5698 55.1858 63.6087 55.1858 63.6554 55.1858H63.7176C63.7371 55.1858 63.7565 55.1897 63.7759 55.1936C63.7954 55.1975 63.8148 55.2014 63.8343 55.2014C63.8576 55.2169 63.881 55.2169 63.9043 55.2169C63.9183 55.2197 63.9313 55.2236 63.9441 55.2273C63.9666 55.2339 63.9883 55.2403 64.0132 55.2403C64.0246 55.2431 64.035 55.247 64.0451 55.2508C64.0625 55.2574 64.0791 55.2636 64.0988 55.2636C64.1091 55.2662 64.1195 55.2697 64.1299 55.2731C64.1506 55.28 64.1714 55.2869 64.1921 55.2869C64.2082 55.2902 64.223 55.296 64.2375 55.3018C64.2581 55.31 64.2782 55.3181 64.301 55.3181C64.3088 55.3206 64.3166 55.3241 64.3243 55.3276C64.3399 55.3345 64.3555 55.3414 64.371 55.3414C64.4021 55.3531 64.4313 55.3628 64.4605 55.3725C64.4896 55.3822 64.5188 55.392 64.5499 55.4036C65.9812 55.917 67.0936 57.2316 67.3736 58.7329C67.449 59.1425 67.4716 59.5756 67.4942 60.0076C67.5415 60.913 67.5885 61.8135 68.1204 62.4822C69.0616 62.5678 70.4151 62.8167 72.0097 63.4857C72.0134 63.4875 72.0175 63.4898 72.0218 63.4922C72.0359 63.5 72.0523 63.509 72.0642 63.509H72.0875C73.9466 63.6101 75.479 65.0725 75.6735 66.9161C75.8738 67.2677 76.0411 67.599 76.1878 67.8896C76.343 68.197 76.4752 68.4588 76.5991 68.6507C77.2448 69.6464 77.2448 69.7787 77.2448 69.7787C77.3459 71.2955 77.6182 73.2091 77.8671 74.8582C78.05 76.0699 78.5605 76.6895 79.056 77.2909C79.2349 77.5079 79.4118 77.7226 79.5706 77.9619C79.7412 78.2155 80.1645 78.9642 80.7361 79.9752C82.1976 82.56 84.6285 86.8594 86.2836 88.9843C88.5939 91.9402 91.4487 99.4933 91.9465 101.049C92.3744 102.371 92.8411 104.316 91.0986 105.794C91.052 105.841 91.0053 105.88 90.9509 105.919C90.9236 105.938 90.8983 105.957 90.8731 105.977C90.8478 105.996 90.8225 106.016 90.7953 106.035H90.7797C90.7525 106.055 90.7253 106.072 90.698 106.09C90.6708 106.107 90.6436 106.125 90.6164 106.144C90.6008 106.16 90.5853 106.16 90.5853 106.16C90.5308 106.199 90.4764 106.23 90.4219 106.261H90.4063C90.3752 106.276 90.346 106.294 90.3169 106.311C90.2877 106.329 90.2585 106.346 90.2274 106.362L90.3441 106.51L90.3286 106.619C90.3208 106.626 90.3052 106.642 90.2897 106.642L90.2896 106.642C90.2663 106.658 90.243 106.673 90.2119 106.689C90.2197 106.813 90.2197 106.93 90.1963 107.039V107.078V107.109V107.14C90.1808 107.148 90.1808 107.171 90.1808 107.171C90.1652 107.186 90.1652 107.202 90.1652 107.202C90.1496 107.218 90.1496 107.233 90.1496 107.233C90.1496 107.249 90.1341 107.264 90.1341 107.264L90.1108 107.288L90.0874 107.311L90.0641 107.334C89.9785 107.42 89.8463 107.49 89.6596 107.552C89.6362 107.568 89.6207 107.568 89.5974 107.568C89.574 107.583 89.5585 107.583 89.5351 107.583H89.5196C89.4962 107.599 89.4807 107.599 89.4573 107.599H89.4418C89.4184 107.614 89.4029 107.614 89.3796 107.614H89.364C89.3484 107.63 89.3251 107.63 89.3018 107.63H88.1583C88.0183 107.645 87.8705 107.645 87.7071 107.645C85.1526 107.685 81.3853 105.617 79.0185 104.317C78.5674 104.07 78.1672 103.85 77.836 103.678C77.8204 103.67 77.8029 103.661 77.7854 103.651C77.7679 103.641 77.7504 103.632 77.7348 103.624C77.7232 103.616 77.7095 103.61 77.6959 103.604C77.6823 103.599 77.6687 103.593 77.657 103.585C77.6493 103.569 77.6337 103.569 77.6337 103.569C77.622 103.562 77.6084 103.556 77.5948 103.55C77.5812 103.544 77.5676 103.538 77.5559 103.53H77.5326C77.5277 103.527 77.5232 103.524 77.5189 103.521C77.5024 103.509 77.4888 103.499 77.4704 103.499C77.4626 103.484 77.4392 103.484 77.4392 103.484C77.4237 103.468 77.4159 103.468 77.4003 103.468C77.3848 103.46 77.3615 103.445 77.3459 103.445H77.3303C77.3148 103.429 77.2914 103.414 77.2681 103.414H77.2526C77.2433 103.411 77.2341 103.406 77.2254 103.402C77.212 103.396 77.1997 103.39 77.1903 103.39C77.1815 103.388 77.1739 103.383 77.1664 103.38C77.1542 103.373 77.1426 103.367 77.1281 103.367H77.1125C77.1059 103.364 77.0994 103.362 77.0931 103.359C77.063 103.347 77.0372 103.336 77.0114 103.336C76.7936 103.289 76.568 103.212 76.3424 103.118C76.2258 103.072 76.1091 103.017 76.0002 102.963C75.9691 102.947 75.936 102.93 75.9029 102.912C75.8699 102.895 75.8368 102.877 75.8057 102.861L75.8056 102.861C75.6189 102.753 75.4323 102.644 75.2612 102.527L75.0979 102.41C74.7712 102.177 74.5067 101.944 74.3355 101.765C74.3197 101.744 74.3003 101.726 74.2822 101.71C74.2736 101.702 74.2653 101.694 74.2578 101.687C73.8066 101.282 73.1921 101.306 73.5888 102.729C73.9544 104.059 73.861 108.299 73.6666 113.3V113.332C73.664 113.402 73.6605 113.472 73.6571 113.542C73.6502 113.682 73.6432 113.822 73.6432 113.962V113.993C73.6406 114.06 73.6372 114.128 73.6337 114.195C73.6268 114.33 73.6199 114.465 73.6199 114.6V114.685C73.6173 114.753 73.6139 114.82 73.6104 114.887C73.6035 115.022 73.5966 115.157 73.5966 115.292V115.315C73.5577 116.326 73.5343 117.159 73.5188 117.851V119.01C73.5266 121.204 73.6899 121.258 73.6899 121.258C73.6964 121.278 73.7015 121.296 73.7065 121.313C73.7133 121.337 73.7197 121.36 73.7288 121.383V121.406C73.7318 121.418 73.737 121.431 73.7423 121.444C73.751 121.466 73.7599 121.488 73.7599 121.507V121.546C73.7618 121.551 73.764 121.557 73.7664 121.564C73.7742 121.584 73.7833 121.608 73.7833 121.631C73.7988 121.647 73.7988 121.663 73.7988 121.678C73.8017 121.69 73.8056 121.7 73.8094 121.71C73.8159 121.727 73.8221 121.744 73.8221 121.764C73.8377 121.779 73.8377 121.803 73.8377 121.818C73.8406 121.83 73.8445 121.84 73.8483 121.85C73.8548 121.867 73.861 121.884 73.861 121.904C73.8766 121.927 73.8766 121.943 73.8766 121.966C73.8766 121.976 73.8796 121.988 73.883 122ZM70.1195 72.1823C70.2673 72.2756 70.4073 72.2834 70.5318 72.2445H70.5473L70.6251 72.2601C70.734 72.229 70.8351 72.1512 70.9362 72.0656C70.9518 72.05 70.9751 72.0267 70.9751 71.98V71.35V71.1244C70.4345 71.1046 69.8212 71.0122 69.2916 70.9324C69.1964 70.918 69.1038 70.9041 69.0149 70.891C69.0761 70.9616 69.1344 71.0322 69.1899 71.0993C69.2261 71.1432 69.2611 71.1856 69.2949 71.2255C69.3263 71.2673 69.3576 71.306 69.3876 71.3429C69.4245 71.3885 69.4593 71.4315 69.4894 71.4744C69.645 71.6767 69.7383 71.8089 69.7383 71.8089C69.7461 71.8206 69.7558 71.8322 69.7656 71.8439C69.7753 71.8556 69.785 71.8672 69.7928 71.8789C69.8083 71.8789 69.8083 71.8945 69.8083 71.8945C69.8161 71.91 69.8317 71.9256 69.8472 71.9411L69.8628 71.9567L69.8629 71.9568C69.9017 71.9956 69.9406 72.0345 69.9717 72.0734C69.9795 72.0812 69.9872 72.087 69.995 72.0928C70.0028 72.0987 70.0106 72.1045 70.0184 72.1123C70.0339 72.1239 70.0514 72.1356 70.0689 72.1473C70.0864 72.1589 70.1039 72.1706 70.1195 72.1823ZM60.6217 81.649C60.6606 81.7034 60.7073 81.7812 60.7617 81.8823L60.6761 81.8979L60.575 81.8823C60.9173 81.9368 61.4462 82.0146 62.6597 81.8356C65.0034 81.4999 65.5624 79.8232 66.0294 78.4224C66.1359 78.1029 66.2376 77.7978 66.3546 77.5262C66.6346 76.8806 66.8135 76.2583 66.9302 75.6516C67.1791 74.3525 67.1091 73.1235 67.0002 71.8478C66.7591 71.5755 66.588 71.3811 66.588 71.3811C66.588 71.3811 65.8645 71.1477 65.4367 70.6188C65.3356 71.49 65.1333 72.6801 64.9078 73.9247C64.8922 73.9558 64.8922 73.9869 64.8922 74.0181C64.8766 74.0958 64.863 74.1717 64.8494 74.2475C64.8358 74.3234 64.8222 74.3992 64.8066 74.477C64.7911 74.5081 64.7911 74.5392 64.7911 74.5703V74.5703C64.7755 74.6442 64.7619 74.7181 64.7483 74.792C64.7347 74.8659 64.7211 74.9398 64.7055 75.0137C64.7055 75.0293 64.7016 75.0448 64.6977 75.0604C64.6938 75.076 64.6899 75.0915 64.6899 75.1071C64.6744 75.181 64.6608 75.2568 64.6472 75.3327C64.6336 75.4085 64.6199 75.4843 64.6044 75.5582C64.5849 75.6516 64.5674 75.7469 64.5499 75.8422C64.5324 75.9374 64.5149 76.0327 64.4955 76.1261L64.4488 76.3828C64.4063 76.5908 64.3666 76.793 64.328 76.9895C64.3032 77.1164 64.2788 77.2408 64.2543 77.3629C64.251 77.3828 64.2449 77.4027 64.2389 77.422C64.2309 77.448 64.2232 77.4728 64.2232 77.4951V77.534C64.2204 77.5454 64.2165 77.5558 64.2127 77.5659C64.2061 77.5833 64.1999 77.5999 64.1999 77.6196C64.1843 77.6274 64.1843 77.6429 64.1843 77.6585V77.6974C64.1688 77.7129 64.1688 77.7285 64.1688 77.744C64.1532 77.7596 64.1532 77.7674 64.1532 77.7829V77.8063C64.1502 77.8183 64.1449 77.8291 64.1395 77.8401C64.1309 77.8577 64.1221 77.8757 64.1221 77.8996L64.0754 78.0163V78.0319L64.0288 78.1252V78.1485C64.0262 78.1537 64.0227 78.1589 64.0193 78.1641C64.0123 78.1745 64.0054 78.1848 64.0054 78.1952L63.9821 78.2419V78.2574C63.881 78.4441 63.7565 78.6153 63.6243 78.7708C63.6009 78.7942 63.5795 78.8175 63.5582 78.8408C63.5368 78.8642 63.5154 78.8875 63.492 78.9109C63.4454 78.9575 63.3987 79.0042 63.352 79.0431C63.3442 79.0509 63.3345 79.0587 63.3248 79.0664C63.3151 79.0742 63.3053 79.082 63.2976 79.0898C62.5275 79.9765 61.5162 80.1243 61.0106 80.1399H60.9251C60.8473 80.1554 60.8084 80.1554 60.8084 80.1554H60.6839V80.2332V80.3499V80.4433V80.7155C60.6839 80.7389 60.68 80.7641 60.6761 80.7894C60.6722 80.8147 60.6684 80.84 60.6684 80.8633V81.2289C60.6528 81.33 60.6372 81.4389 60.6217 81.5478V81.649ZM65.8388 86.6626C64.3975 86.374 62.9086 85.8417 62.9086 85.8417C62.9086 85.8417 62.2397 84.5815 61.6174 83.4225C61.665 83.3726 61.9214 83.3213 62.2879 83.248C63.1771 83.0702 64.7145 82.7628 65.4912 82.0301C66.1697 81.3947 66.4276 80.4462 66.6798 79.5182C66.7457 79.2761 66.8111 79.0354 66.8835 78.802C67.1247 78.0319 67.3503 77.254 67.5525 76.4683C67.6381 76.1416 67.7159 75.8149 67.7937 75.4882V75.4649C67.8637 75.146 67.9337 74.827 67.9959 74.5003V74.4537C68.0581 74.1347 68.1126 73.8236 68.1593 73.5047V73.4424C68.1748 73.3491 68.1904 73.248 68.1981 73.1546C68.2198 73.1886 68.2451 73.2275 68.2735 73.2712C68.3168 73.3377 68.3674 73.4155 68.4237 73.5047L68.445 73.5377C68.5107 73.6398 68.5878 73.7597 68.6649 73.8858L68.7582 74.0258C68.7926 74.0799 68.8278 74.1353 68.8637 74.1918C69.0552 74.4936 69.2679 74.8287 69.4972 75.1693C69.5166 75.1965 69.5361 75.2257 69.5555 75.2549C69.575 75.284 69.5944 75.3132 69.6139 75.3404L69.8472 75.6905C69.925 75.8072 70.0028 75.9238 70.0806 76.0327C70.5473 76.7095 70.9907 77.324 71.2941 77.6196C71.5184 77.8439 71.8581 78.1067 72.2672 78.4232L72.2742 78.4286C72.3261 78.4675 72.3781 78.5089 72.4314 78.5514C72.4738 78.5852 72.5172 78.6197 72.562 78.6542C72.5961 78.6817 72.6305 78.7094 72.6654 78.7374C72.8376 78.8758 73.0187 79.0214 73.1998 79.1831C73.2465 79.2259 73.2951 79.2686 73.3437 79.3114C73.3923 79.3542 73.441 79.397 73.4877 79.4398L73.511 79.4631C73.6744 79.6109 73.8455 79.7743 74.0088 79.9376C74.6934 80.6299 75.409 81.4934 76.0313 82.598C76.8403 84.0215 77.6259 85.4527 78.2793 86.744C78.9716 88.1208 79.5162 89.3421 79.7729 90.2444C79.8809 90.6199 80.0025 91.128 80.1467 91.7304C80.2206 92.0392 80.3004 92.3727 80.3874 92.7258C80.0918 92.5391 79.7962 92.3447 79.5084 92.1424C79.5084 92.1424 78.785 92.2358 78.4427 91.8079C78.1082 91.3723 76.6069 90.4078 76.6069 90.4078C76.6069 90.4078 75.1601 88.6187 74.3822 88.2842C74.1244 88.1722 73.79 87.967 73.4228 87.7417C72.6932 87.2941 71.8346 86.7673 71.1929 86.7362C70.2284 86.6896 68.7738 86.7362 68.7738 86.7362C68.7738 86.7362 67.2725 86.9307 65.8256 86.6429L65.8388 86.6626Z" fill="var(--sapContent_Illustrative_Color21)"/>
<path d="M97.0306 55.9106C96.9782 55.3866 96.8909 54.8277 96.5503 54.4259C96.2096 54.0242 95.5284 53.8582 95.1529 54.2163L95.4061 54.5133C95.0393 59.2294 96.6987 62.6268 94.8297 66.9762C94.0699 68.7578 93.8341 71.7185 90.3406 72.2251C87.4061 72.653 87.7555 71.8932 86.6376 72.4521C86.4192 72.5569 86.2096 72.7229 86.1398 72.95C86.0437 73.2382 86.1922 73.5526 86.3756 73.8059C87.214 74.9587 87.8603 75.212 88.8384 74.1814C89.0393 73.9718 92.2184 73.7447 93.5546 72.4871C94.5939 71.5089 94.821 69.9281 95.2489 68.5569C96.5328 64.4696 97.4673 60.1814 97.0393 55.9106H97.0306Z" fill="var(--sapContent_Illustrative_Color17)"/>
<path d="M95.5197 64.6967C95.607 64.8801 95.6944 65.0547 95.7904 65.2382C95.8778 65.4041 95.9651 65.5613 96.0525 65.7272C96.8822 62.5133 97.3625 59.2119 97.0306 55.9194C96.9782 55.3953 96.8909 54.8364 96.5503 54.4346C96.2097 54.0329 95.5284 53.867 95.1529 54.225L95.4062 54.522C95.1092 58.3822 96.1573 61.3604 95.5284 64.6967H95.5197Z" fill="var(--sapContent_Illustrative_Color22)"/>
<path d="M92.8559 44.9587C91.738 41.5963 87.083 38.4783 83.4847 40.6006C79.9738 42.6705 74.6638 43.2818 73.869 53.8146C73.8166 53.9631 73.7642 54.1203 73.7293 54.2688C73.4673 53.5089 72.6201 51.6137 70.8122 52.5657C68.5764 53.7447 70.6987 58.6356 71.9913 59.5788C72.3057 59.8059 72.9258 60.5395 73.7904 61.5177C73.9039 64.5919 74.0087 67.2382 74.0087 67.2382L74.7074 76.5308C74.7074 76.5308 83.9738 80.8976 85.2751 80.8976C86.5764 80.8976 87.773 70.8889 87.8603 70.1727H88.0175C88.0175 70.1727 88.1048 70.1727 88.2533 70.1378C88.8734 70.1203 90.1048 69.9456 91.0393 68.8627C91.607 68.3648 92.0786 67.6836 92.262 66.7579C92.8472 63.7535 93.738 59.212 93.7904 57.5613C93.8516 55.9107 93.9651 48.3124 92.8472 44.95H92.8559V44.9587Z" fill="var(--sapContent_Illustrative_Color31)"/>
<path d="M78.6637 78.26C78.1223 77.4565 77.6419 76.6181 77.2664 75.7185C76.9694 75.0023 76.7249 74.2076 76.7773 73.4216C76.8297 72.6705 77.2314 71.8757 78.0262 71.701C78.5502 71.5788 79.083 71.6836 79.607 71.6486C79.7991 71.6486 80.0175 71.605 80.1659 71.4827C80.3493 71.3342 80.524 71.0809 80.4891 70.8277C80.4541 70.5919 80.2795 70.3735 80.1223 70.2076C79.9214 69.9805 79.6856 69.7884 79.4672 69.5788C78.9432 69.0635 80.1048 65.9805 79.5982 65.4477C78.5851 64.3648 77.3799 65.4128 76.5502 64.1814C76.1572 63.6049 74.393 63.3604 74.0087 62.784C73.9476 62.6967 73.8865 62.6006 73.8253 62.5132C73.9214 65.1421 74.0087 67.2469 74.0087 67.2469L74.7074 76.5395C74.7074 76.5395 76.5677 77.4216 78.7424 78.3823C78.7162 78.3386 78.69 78.3037 78.655 78.26H78.6637Z" fill="var(--sapContent_Illustrative_Color3)"/>
<path d="M92.8559 44.9587C91.738 41.5963 87.083 38.4783 83.4848 40.6006C79.9738 42.6705 74.6638 43.2818 73.869 53.8146C73.8166 53.9631 73.7642 54.1203 73.7293 54.2688C73.4673 53.5089 72.6201 51.6137 70.8123 52.5657C69.4847 53.2644 69.8952 55.6749 70.5502 57.3867C72.3843 58.3212 73.8079 59.2557 75.2926 60.6792C76.8123 62.129 78.1922 63.7186 79.5459 65.3255C79.5808 65.3692 79.5983 65.4041 79.607 65.4478C80.4367 66.7404 81.3188 68.0068 82.2708 69.2207C83.7555 71.0985 85.3974 72.8714 87.2577 74.3823C87.5983 72.3037 87.8341 70.4697 87.869 70.1814H88.0262C88.0262 70.1814 88.1136 70.1814 88.2621 70.1465C88.8821 70.129 90.1136 69.9544 91.0481 68.8714C91.6158 68.3736 92.0874 67.6924 92.2708 66.7666C92.8559 63.7622 93.7468 59.2207 93.7992 57.5701C93.8603 55.9194 93.9739 48.3212 92.8559 44.9587Z" fill="var(--sapContent_Illustrative_Color3)"/>
<path d="M91.607 67.2206C90.6813 66.9848 89.6944 66.9586 88.7424 66.9936C86.8035 67.0547 84.8123 67.4652 83.1092 68.4259C83.1441 69.0023 83.5109 69.5438 83.8778 69.9717C84.2446 70.4084 84.6725 70.8014 85.1616 71.1071C85.7118 71.4477 86.2882 71.7534 86.8821 72.0067C87.1092 72.1027 87.345 72.1988 87.5895 72.2774C87.7468 71.177 87.8516 70.3735 87.869 70.1901H88.0262C88.0262 70.1901 88.1136 70.1901 88.262 70.1551C88.8821 70.1377 90.1136 69.963 91.0481 68.88C91.4847 68.4957 91.8603 68.0067 92.0961 67.3778C91.9389 67.3254 91.7817 67.273 91.6158 67.2294V67.2119L91.607 67.2206Z" fill="var(--sapContent_Illustrative_Color28)"/>
<mask id="mask0_396_4314" style="mask-type:alpha" maskUnits="userSpaceOnUse" x="55" y="53" width="72" height="70">
<rect x="55.179" y="53.2" width="71.5" height="69" fill="var(--sapContent_Illustrative_Color20)"/>
</mask>
<g mask="url(#mask0_396_4314)">
<path d="M74.4106 71.2993C74.4106 71.2993 58.6376 75.9369 58.9084 77.7884C59.1704 79.6399 60.4979 100.976 63.2839 107.334C66.0699 113.692 63.6856 117.937 63.2839 121.509C62.8822 125.09 62.5153 129.492 63.4411 130.05L104.044 130.033C104.044 130.033 104.28 123.099 103.258 120.05C103.258 120.05 102.865 119.928 103.162 112.819C103.459 105.71 103.677 99.3255 103.162 97.4915C102.646 95.6574 103.52 95.7273 104.07 96.3212C104.62 96.9063 106.018 97.9369 107.336 98.2251C108.655 98.5221 115.221 103.268 119.622 103.198C124.024 103.128 123.031 102.478 123.616 100.688C124.201 98.8889 115.109 87.4478 115.109 87.4478C115.109 87.4478 113.214 86.5133 111.398 85.3255C109.581 84.1378 110.524 84.8714 110.044 84.784C109.563 84.6967 109.52 84.6268 109.336 84.3998C109.153 84.1727 108.62 83.7535 108.14 83.4041C107.66 83.0548 106.856 82.3823 106.306 81.7797C105.756 81.1771 104.926 80.3474 104.393 80.1203C103.45 79.7098 101.686 78.295 100.515 78.2338C99.3451 78.1727 97.5722 78.2338 97.5722 78.2338C97.5722 78.2338 95.7468 78.4696 93.9826 78.1203C92.2184 77.7709 90.3931 77.1247 90.3931 77.1247C90.3931 77.1247 87.9215 72.3998 87.6333 71.9805C86.8997 74.5046 87.8691 75.6487 85.2752 76.9412C82.69 78.2338 74.4106 71.2993 74.4106 71.2993Z" fill="var(--sapContent_Illustrative_Color13)"/>
</g>
<path d="M59.8953 88.4347C60.5503 86.3998 61.511 84.4609 62.821 82.7666C63.5459 81.8233 64.3669 80.9587 65.2752 80.1989C66.2795 79.3517 67.3712 78.6618 68.5241 78.0504C69.7468 77.4041 71.0044 76.8452 72.2533 76.26C73.4324 75.7098 74.6464 75.1771 75.7031 74.4172C76.1747 74.0766 76.594 73.7011 76.987 73.2993C75.4848 72.2076 74.4106 71.2993 74.4106 71.2993C74.4106 71.2993 58.6376 75.9369 58.9084 77.7884C59.0219 78.5919 59.3363 83.0897 59.8865 88.426H59.8953V88.4347Z" fill="var(--sapContent_Illustrative_Color22)"/>
<mask id="mask1_396_4314" style="mask-type:alpha" maskUnits="userSpaceOnUse" x="62" y="103" width="19" height="20">
<rect x="62.179" y="103.7" width="18.5" height="18.5" fill="var(--sapContent_Illustrative_Color20)"/>
</mask>
<g mask="url(#mask1_396_4314)">
<path d="M68.166 118.365C68.8385 117.919 69.5721 117.579 70.3232 117.308C70.9083 117.098 71.5197 116.915 72.131 116.801C72.6201 116.714 73.1179 116.697 73.6158 116.67C74.0961 116.644 74.5939 116.609 75.0568 116.487C75.345 116.408 75.5983 116.304 75.773 116.103C74.9607 115.71 74.0786 115.491 73.2053 115.282C72.2358 115.046 71.2751 114.793 70.3843 114.339C69.0131 113.64 67.8865 112.592 66.9433 111.387C66 110.181 66.035 110.146 65.5896 109.518C65.1354 108.863 64.6725 108.216 64.2096 107.57C63.5895 106.688 62.9782 105.788 62.4367 104.854C62.6987 105.823 62.9782 106.67 63.2751 107.343C66.0612 113.701 63.6769 117.946 63.2751 121.518C62.8734 125.098 62.4804 129.273 63.4061 129.832C63.4498 129.858 63.5721 129.884 63.7642 129.902C63.7642 129.727 63.7642 129.553 63.7992 129.387C63.8603 128.924 64.0786 128.513 64.3843 128.164C64.6638 127.841 64.9957 127.579 65.2402 127.229C65.4498 126.924 65.6332 126.601 65.8079 126.277C66.5066 124.941 67.1441 123.369 68.5852 122.67C69.3625 122.295 70.2795 122.208 71.1354 122.19C72.035 122.173 72.9345 122.26 73.8341 122.347C75.4498 122.496 77.2315 122.697 78.7424 121.998C78.428 121.483 77.7642 121.221 77.1878 121.072C76.4717 120.88 75.7206 120.81 74.9869 120.758C74.6638 120.732 74.3407 120.714 74.0262 120.679C73.6682 120.644 73.3014 120.574 72.952 120.505C72.0699 120.339 71.1965 120.146 70.3406 119.876C69.5546 119.622 68.7511 119.308 68.1136 118.767C67.9738 118.653 68.035 118.435 68.166 118.347V118.365Z" fill="var(--sapContent_Illustrative_Color22)"/>
</g>
<path d="M85.0394 77.0198C85.1616 77.4827 85.38 77.9194 85.6333 78.3298C85.9826 78.8975 86.3931 79.4128 86.8298 79.9019C87.7119 80.8713 88.7512 81.7884 89.9477 82.3473C90.4368 82.5744 90.8909 82.6792 91.4237 82.6355C91.5634 82.6355 91.7119 82.6093 91.8429 82.5482C91.8429 82.5482 91.8429 82.5307 91.8254 82.522C91.8254 82.522 91.7992 82.4871 91.7905 82.4871C91.7031 82.391 91.6158 82.3124 91.511 82.2338C91.0481 81.867 90.5154 81.5613 90.035 81.1945C89.2664 80.6093 88.6289 79.8844 87.9127 79.2469C87.7293 79.0809 87.5285 78.9412 87.3538 78.784C87.2402 78.6879 87.1529 78.5657 87.0568 78.4521C86.821 78.1726 86.594 77.8757 86.3581 77.5962C86.1223 77.3167 85.8778 77.0373 85.5896 76.8189C85.5721 76.8189 85.5634 76.8015 85.5547 76.7927C85.4586 76.8451 85.3712 76.8888 85.2752 76.9412C85.1791 76.9936 85.0394 77.0285 85.0394 77.0285V77.0198Z" fill="var(--sapContent_Illustrative_Color22)"/>
<g clip-path="url(#clip0_396_4314)">
<path d="M100.83 127.5C100.935 127.561 101.057 127.605 101.17 127.605C101.616 127.605 101.991 127.064 102.28 126.749C102.454 126.566 102.638 126.374 102.873 126.269C103.083 126.173 103.319 126.129 103.546 126.129C103.773 126.129 103.887 126.155 104.044 126.208C103.974 124.12 103.782 121.622 103.266 120.068C103.266 120.068 102.873 119.946 103.17 112.836C103.214 111.736 103.258 110.662 103.301 109.605C103.275 109.666 103.249 109.727 103.223 109.788C102.62 111.16 101.895 112.478 101.275 113.841C100.576 115.369 99.9302 116.932 99.3101 118.496C98.7075 120.024 98.1485 121.57 97.5284 123.09C97.249 123.78 96.9433 124.461 96.7075 125.168C96.5503 125.64 96.4193 126.138 96.3843 126.636C97.0132 125.911 97.4673 124.924 97.904 124.05C98.4193 123.046 98.9171 122.007 99.6158 121.107C100.122 120.461 100.865 119.788 101.756 119.989C102.585 120.173 102.734 121.133 102.707 121.841C102.673 122.784 102.428 123.727 102.131 124.618C102.009 124.994 101.869 125.369 101.703 125.727C101.537 126.094 101.301 126.391 101.066 126.714C100.935 126.898 100.751 127.151 100.734 127.334V127.404C100.734 127.369 100.734 127.404 100.734 127.422C100.751 127.457 100.786 127.483 100.83 127.509V127.5Z" fill="var(--sapContent_Illustrative_Color22)"/>
</g>
<path d="M77.3276 79.7885C76.7861 79.7099 76.2533 79.5003 75.7643 79.2732C74.9171 78.8889 74.1398 78.3911 73.4324 77.7972C73.1791 77.5876 72.9346 77.378 72.6725 77.1946C73.249 77.8933 73.738 78.6706 74.2708 79.3955C74.8298 80.1466 75.4411 80.9326 76.2271 81.4566C76.9171 81.9108 77.642 82.0156 78.3669 81.5614C78.8734 81.2383 79.2926 80.7754 79.6944 80.3387C80.1223 79.8758 80.5678 79.4391 81.1005 79.0985C81.6333 78.7667 82.1485 78.4173 82.594 77.9719C83.0394 77.5265 83.0481 77.4566 83.2053 77.1597C82.6027 77.6313 82.0001 78.0942 81.3538 78.5134C80.5416 79.0374 79.6595 79.5178 78.7075 79.7274C78.2533 79.8234 77.7992 79.8584 77.3363 79.7972H77.3276V79.7885Z" fill="var(--sapContent_Illustrative_Color22)"/>
<path d="M65.8865 74.2774C65.8865 74.2774 63.8515 72.8364 60.1135 73.9455C56.3755 75.0634 55.8253 78.6093 55.8253 80.1115C55.8253 81.6137 53.8166 91.3342 56.7685 94.618C59.7205 97.9019 63.9214 100.26 67.2664 98.356C67.2664 98.356 67.7904 98.0242 68.7773 94.6792C69.7642 91.3342 72.2533 86.2774 72.2533 86.2774C72.2533 86.2774 70.1572 87.9193 64.1135 82.4696L62.2795 80.8888C62.2795 80.8888 66.8734 81.6049 66.6725 79.2468C66.4716 76.8888 65.8865 74.2599 65.8865 74.2599V74.2774Z" fill="var(--sapContent_Illustrative_Color13)"/>
<path d="M62.4193 80.7841C62.4193 80.8452 62.2708 80.8452 62.2184 80.9063C61.6944 81.5177 61.345 82.4522 60.8647 83.0985C60.1049 84.1378 59.3887 85.212 58.6987 86.295C58.4018 86.7666 58.1136 87.2469 57.8953 87.7535C57.773 88.033 57.6682 88.3387 57.6245 88.6443C57.738 88.5221 57.8254 88.3823 57.8953 88.2426C58.0699 87.9456 58.2097 87.6312 58.4105 87.3518C58.6725 86.9937 58.952 86.6443 59.249 86.3124C59.5546 85.9718 59.8953 85.6574 60.1922 85.3168C60.428 85.0548 60.6463 84.7753 60.9258 84.557C61.0656 84.4522 61.214 84.3736 61.38 84.3212C61.5284 84.2775 61.7381 84.2338 61.8778 84.3212C62.0001 84.3823 62.0175 84.5046 62.1049 84.5919C62.1311 84.6181 62.1049 84.6269 62.166 84.5919C62.2621 84.5221 62.3319 84.3998 62.4018 84.3037C62.4891 84.1902 62.5765 84.0766 62.6988 83.998C62.9171 83.867 63.2315 83.7622 63.476 83.902C63.7206 84.0417 63.8603 84.3386 64.0612 84.5308C64.3494 84.8015 64.6813 85.0373 65.0044 85.2557C65.3276 85.474 65.642 85.7098 65.9651 85.9369C66.5328 86.3299 67.1267 86.688 67.773 86.9238C68.4717 87.1683 69.2053 87.2295 69.9389 87.2644C70.5678 87.2906 71.2053 87.2819 71.8167 87.1509C72.0699 86.6094 72.2359 86.2862 72.2359 86.2862C72.2359 86.2862 70.1398 87.9282 64.0961 82.4784L62.4193 80.7841Z" fill="var(--sapContent_Illustrative_Color22)"/>
<path d="M66.6812 79.2642C66.4803 76.9062 65.8952 74.2773 65.8952 74.2773C65.8952 74.2773 64.7423 73.4564 62.5764 73.535H62.5502C62.5153 73.535 62.4891 73.535 62.4541 73.5524C62.3843 73.5524 62.3231 73.5699 62.2533 73.5874C62.096 73.6136 61.9388 73.6485 61.7816 73.6747C61.3886 73.7533 61.0043 73.8494 60.6201 73.9629C60.2532 74.0765 59.8864 74.1987 59.5458 74.3647C59.3974 74.4433 59.2489 74.5219 59.1091 74.6179C59.048 74.6616 59.0917 74.6179 59.0393 74.6703C59.0131 74.6878 58.9956 74.714 58.9694 74.7315C58.9519 74.7489 58.9257 74.7751 58.9083 74.8013C58.9083 74.8013 58.9083 74.8188 58.8908 74.8275C58.8908 74.845 58.8646 74.8712 58.8559 74.8887C58.8559 74.8887 58.8384 74.9324 58.8384 74.9411V74.9585V74.9848C58.8559 74.9848 58.8908 75.011 58.8908 75.011C58.9607 75.0459 59.048 75.0634 59.1266 75.0721C59.4934 75.142 59.9388 75.107 60.262 75.3254C60.4279 75.4389 60.4367 75.6747 60.262 75.7795C60.0174 75.928 59.7554 76.0415 59.4934 76.1463C58.9432 76.3821 58.3581 76.6005 57.8777 76.9673C57.5458 77.2206 57.3624 77.5175 57.3711 77.8756C58.096 77.404 58.7074 76.7577 59.4934 76.3909C60.3231 76.0066 61.2751 76.0066 62.1222 76.3472C62.8995 76.6616 63.5458 77.2031 64.096 77.8232C64.6725 78.4695 65.1616 79.1944 65.6419 79.9105C65.7816 80.1114 65.9214 80.321 66.0611 80.5219C66.4891 80.2599 66.7511 79.8581 66.6987 79.2468L66.6812 79.2642Z" fill="var(--sapContent_Illustrative_Color22)"/>
<path d="M65.6245 97.605C64.8734 97.4652 64.166 97.1945 63.4673 96.8975C62.7511 96.5919 62.0437 96.2512 61.3712 95.867C60.0874 95.1246 58.9083 94.2076 57.8166 93.2119C57.2664 92.7141 56.7424 92.1901 56.2184 91.6574C55.9476 91.3779 55.6856 91.0984 55.4149 90.8189C55.3799 90.7753 55.3363 90.7403 55.3013 90.6967C55.5022 92.2949 55.9389 93.7185 56.7686 94.6355C59.7205 97.9194 63.9214 100.277 67.2664 98.3735C67.2664 98.3735 67.4149 98.2775 67.7031 97.6923H67.6594C66.9782 97.7709 66.297 97.736 65.6245 97.605Z" fill="var(--sapContent_Illustrative_Color22)"/>
<path d="M73.8777 53.6399C73.8603 53.8408 73.5895 53.8932 73.5022 53.7098C73.0917 52.8626 72.262 51.7971 70.8122 52.5657C68.5764 53.7447 70.6987 58.6356 71.9913 59.5788C73.2839 60.522 79.5371 69.8321 88.0175 70.1814C88.0175 70.1814 91.6682 69.771 92.262 66.7666C92.8472 63.7622 93.738 59.2207 93.7904 57.5701C93.8516 55.9194 93.9651 48.3212 92.8472 44.9587C91.7293 41.5963 87.0743 38.4783 83.476 40.6006C79.9826 42.6618 74.7074 43.2731 73.8777 53.6399Z" fill="var(--sapContent_Illustrative_Color31)"/>
<path d="M92.8996 60.3649C92.7686 61.3867 92.4018 62.3212 91.9826 63.2557C91.7643 63.7274 91.5372 64.1902 91.3363 64.6706C91.1354 65.1247 90.9782 65.5876 90.821 66.0505C90.332 67.4741 89.3887 68.6968 87.9826 69.2907C87.1704 69.64 86.297 69.771 85.4149 69.7885C86.2621 70.0068 87.1354 70.164 88.0263 70.199C88.0263 70.199 90.2883 70.33 91.6769 68.1902C91.8953 67.8496 92.0263 67.6051 92.1223 67.3169C92.2184 67.0287 92.2184 66.9763 92.2708 66.7579C92.856 63.7536 93.7468 59.2121 93.7992 57.5614C93.8341 56.5658 93.8953 53.4129 93.6857 50.33C93.3451 51.3605 93.2228 52.461 93.249 53.5701C93.2665 54.1116 93.3189 54.6531 93.3276 55.1946C93.3276 55.771 93.3276 56.3474 93.2839 56.9239C93.2053 58.0767 93.0481 59.2121 92.8996 60.3562V60.3649Z" fill="var(--sapContent_Illustrative_Color3)"/>
<path d="M87.4673 57.5701C87.4411 57.6836 87.4236 57.8059 87.4061 57.9194H87.4585C87.5459 57.8932 87.6245 57.8496 87.7031 57.771C87.8166 57.6574 87.869 57.5875 87.9476 57.4565C87.9825 57.3954 88.0175 57.3255 88.0524 57.2644C87.8603 57.3867 87.6681 57.5002 87.4585 57.5875L87.4673 57.5701Z" fill="var(--sapContent_Illustrative_Color3)"/>
<path d="M93.7118 48.6967C93.1616 48.5569 92.559 48.6093 91.9913 48.5657C91.3537 48.522 90.7075 48.4521 90.0699 48.4871C89.2839 48.522 88.4716 48.7229 87.8428 49.2207C87.738 49.2993 87.6158 49.4041 87.476 49.5089C87.8865 49.6574 88.2882 49.8146 88.6725 50.0154C89.4411 50.4172 90.0786 51.0023 90.393 51.8233C90.6813 52.5657 90.6463 53.343 90.4105 54.0853C90.9433 54.4347 90.393 55.5788 90.7337 56.6705C91.0219 57.605 94.2446 56.0504 94.3843 54.1727C94.4804 52.8626 96.1922 49.3342 93.7206 48.6967H93.7118Z" fill="var(--sapContent_Illustrative_Color3)"/>
<path d="M98.2883 50.9936C98.2621 50.5831 98.1835 50.1552 97.9564 49.8146C97.6856 49.4128 97.2402 49.1683 96.8996 48.819C95.7468 47.6312 96.1311 45.701 95.8254 44.0679C95.4848 42.2425 94.1311 40.6443 92.3843 40.0154C91.2053 39.5875 89.8778 39.6224 88.6987 40.0504C87.6944 38.1464 85.5459 36.7927 83.3799 37.0373C82.0612 37.1857 80.8559 37.8146 79.5983 38.2862C78.9258 37.8408 78.131 37.5875 77.2664 37.5875C76 37.5875 74.8647 38.1464 74.0874 39.0285C73.3101 39.9106 73.6332 39.3692 73.3537 39.4128C71.4323 39.6836 69.4498 40.2076 68.0262 41.5176C66.6026 42.8364 65.9214 45.1246 66.952 46.7753C67.0131 46.8801 67.0219 47.0024 66.9694 47.1159C66.6376 47.8321 66.4542 48.6268 66.4542 49.4652C66.4542 51.3779 67.4149 53.0635 68.8821 54.0766C69.2402 54.3211 69.4498 54.7316 69.4498 55.1596C69.4498 55.5875 69.4498 55.6399 69.476 55.8757C69.5983 57.3692 70.2271 58.819 71.2402 59.9194C70.3319 61.1334 70.3144 62.9412 71.2053 64.1727C72.0961 65.4041 73.8253 65.9456 75.2577 65.4565C75.3013 65.5875 75.4411 65.6574 75.5633 65.6137C76.1223 65.4391 76.4629 64.8277 76.5502 64.1901C76.2708 63.9543 76 63.6923 75.738 63.4303C74.8472 62.5395 74.0699 61.5613 73.1616 60.688C72.3581 59.9194 71.4585 59.1508 70.8996 58.1639C70.3406 57.177 69.9913 55.8583 70.0088 54.6705C70.6376 54.915 71.3275 55.0548 72.0524 55.0548C72.7773 55.0548 73.9214 54.8102 74.7162 54.3823C75.0131 54.5657 75.2926 54.7753 75.5721 54.9936C76.0524 55.3692 76.5328 55.7535 76.9957 56.1552C77.2577 56.3823 77.5109 56.6181 77.7468 56.8714C77.8952 57.0286 78.1485 57.0111 78.2708 56.8277C78.7075 56.1727 79.0743 55.5002 79.2053 54.7404C79.4411 53.3954 78.8909 52.0504 78.7075 50.7054C78.524 49.3517 78.9258 47.6836 80.2271 47.2644C81.1179 46.9762 82.0524 47.3954 82.9695 47.57C85.3363 48.0329 87.8341 46.5482 88.8472 44.3997C89.0219 44.4434 89.1965 44.4871 89.3538 44.5744C90.4804 45.1334 90.5066 46.784 91.4236 47.6486C92.5153 48.6705 94.7075 48.4259 94.9957 50.0591C95.0131 50.1814 95.0219 50.3124 95.0219 50.4347C94.952 52.3211 94.0437 55.212 93.8254 57.2818C96.1835 56.5744 98.4629 53.4565 98.3145 51.0024H98.2795L98.2883 50.9936Z" fill="var(--sapContent_Illustrative_Color30)"/>
<path d="M73.4149 45.2731C73.4935 45.2469 73.5459 45.2207 73.6507 45.1683C73.904 45.0373 74.0874 44.8975 74.297 44.7054C74.7075 44.3211 75.0306 43.8233 75.2227 43.3167C75.4236 42.7927 75.5022 42.2338 75.3799 41.7185C75.3537 41.6137 75.3188 41.5176 75.2839 41.4215C74.393 41.1421 73.4935 40.9237 72.559 40.9237H72.0524C70.0262 40.1202 68.2708 42.1464 67.6245 43.867C67.4585 44.3036 67.3101 44.8015 67.3537 45.2731C67.3887 45.6312 67.6419 45.8844 68.0088 45.8058C68.3581 45.736 68.6725 45.4827 68.9433 45.2643C69.2402 45.0285 69.5284 44.7665 69.8254 44.522C69.8778 44.4783 69.9302 44.4346 69.9913 44.391C70.0175 44.3735 70.0437 44.356 70.0699 44.3386C70.0699 44.3386 70.0874 44.3386 70.0961 44.3211C70.0175 44.3735 70.131 44.3036 70.1572 44.2862C70.393 44.1464 70.6638 44.0154 70.9433 44.0067C71.3887 43.9892 71.7555 44.3386 72.0961 44.6093C72.4978 44.9237 72.9258 45.2207 73.4323 45.2731H73.4149Z" fill="var(--sapContent_Illustrative_Color29)"/>
<path d="M88.3756 40.8015C88.3494 40.356 88.3407 39.9019 88.3407 39.4477C87.2315 37.867 85.3188 36.8102 83.3799 37.0285C82.0699 37.177 80.8647 37.7971 79.6245 38.2687C79.4673 38.7927 79.4673 39.3517 79.7031 39.867C79.8952 40.2862 80.166 40.6617 80.4018 41.0635C80.6551 41.5002 80.8385 41.9805 80.8647 42.4871C80.8909 43.0809 80.69 43.5962 80.3581 44.0242C80.1922 44.2425 79.7468 44.5657 79.3013 44.8539C79.0306 45.0285 79.1529 45.4478 79.476 45.4478C79.7992 45.4478 80.3406 45.4652 80.5852 45.5176C80.9083 45.5788 81.2227 45.6661 81.5459 45.7884C82.2271 46.0504 82.8734 46.3997 83.5022 46.7578C83.9738 47.0285 84.4455 47.308 84.9433 47.5176C86.4804 47.1683 87.869 46.129 88.6551 44.7578C88.7599 43.4565 88.4629 42.0154 88.3931 40.8015H88.3756Z" fill="var(--sapContent_Illustrative_Color29)"/>
<path d="M92.7948 48.3649C93.083 48.4697 93.1704 48.5657 93.249 48.688C93.4935 49.0898 93.5284 49.5788 93.3712 50.0155C93.1529 50.6094 92.9346 51.0024 93.5284 53.0112C93.7555 53.7797 93.6944 56.4872 93.8166 57.2732C94.4193 56.9588 97.6507 57.7361 98.3057 50.9937C98.3494 50.5832 98.2009 50.1553 97.9739 49.8147C97.7031 49.4129 97.2577 49.1684 96.9171 48.819C95.7642 47.6312 96.1485 45.7011 95.8429 44.0679C95.5022 42.2426 94.1485 40.6443 92.4018 40.0155C91.8516 39.8146 91.2664 39.7186 90.6725 39.7098C90.5677 40.6181 90.5153 41.5264 90.5241 42.4435C90.5415 43.7273 90.69 45.0286 91.1442 46.2339C91.4673 47.0985 92.1922 47.6924 92.8035 48.3649H92.7948Z" fill="var(--sapContent_Illustrative_Color29)"/>
<path d="M88.6725 63.0024C88.3493 62.985 89.0917 63.3256 88.786 63.2732C88.4891 63.2208 88.2358 63.2033 87.5982 63.2732C87.2664 63.3081 84.7423 63.6749 84.4192 63.4478C85.1615 63.9194 85.476 64.5832 87.9738 64.7841C89.3275 64.8889 90.0174 64.9762 90.3668 64.033C90.3493 64.0941 89.3362 63.0374 88.6637 63.0112L88.6725 63.0024Z" fill="var(--sapContent_Illustrative_Color23)"/>
<path d="M84.297 63.1945C84.297 63.1945 87.0306 62.3299 87.7555 62.4696C88.2359 62.557 88.9433 62.6618 89.4062 62.6618C89.8691 62.6618 91.3887 63.0984 90.3494 64.0417C90.3494 64.0417 89.5546 63.6137 88.1311 63.5089C86.7075 63.4041 84.3756 63.9631 84.297 63.1945Z" fill="var(--sapContent_Illustrative_Color23)"/>
<path d="M87.4149 58.3997C87.3101 58.8538 87.5372 59.273 88.0961 59.273C88.6551 59.273 88.5416 59.3167 88.7337 59.4302C89.3014 59.7708 90.1136 59.666 90.5503 59.404C90.5852 59.3778 90.6376 59.404 90.6376 59.4477C90.6376 59.5438 90.6376 59.6922 90.297 59.9892C89.9302 60.3036 89.7817 60.3647 89.4761 60.3647C88.8734 60.3647 87.6333 60.0765 87.2664 59.9979C87.0743 59.9979 86.9171 60.0328 86.9084 60.0328C86.4018 59.2468 86.7861 58.6267 87.4149 58.3997Z" fill="var(--sapContent_Illustrative_Color28)"/>
<path d="M88.5328 60.2599C88.035 59.9717 87.9302 59.8844 87.4586 59.8495C87.083 59.8145 86.821 60.0416 86.952 60.0678C87.2053 60.1202 88.5415 60.2599 88.5415 60.2599H88.5328Z" fill="var(--sapContent_Illustrative_Color22)"/>
<path d="M82.131 57.8495C82.131 57.8495 81.31 57.0896 81.0655 57.1071C80.821 57.1071 80.8646 55.2643 80.8646 55.2643C80.8646 55.2643 81.0917 51.8058 82.6376 50.4958C83.214 50.0067 85.0742 48.5569 86.1048 48.784C86.69 48.915 86.7773 48.4695 87.345 48.225C87.5371 48.1464 87.7205 47.9543 87.8865 47.7359C88.1834 47.3429 87.8603 46.7927 87.3799 46.8626C86.3057 47.0198 83.9563 47.3167 82.6026 47.8669C80.4105 48.7578 75.4585 51.4564 74.5153 52.487C73.8515 53.2032 74.1048 54.0503 74.1572 56.2163C74.2358 59.4914 74.4629 60.9761 74.0437 61.832C73.4323 63.0809 73.1528 63.5089 73.1528 63.5089C73.1528 63.5089 71.572 68.0853 67.5895 73.0809C63.8253 77.8146 62.4192 80.784 62.4192 80.784C62.4192 80.784 68.5327 87.6661 72.1572 86.4434C72.1572 86.4434 72.2096 86.3823 72.2358 86.2862C72.7249 84.653 76.9345 70.4783 77.8865 68.4958C79.5284 65.0809 79.607 65.4303 80.3581 64.88C81.1528 64.3036 82.9869 61.8495 83.7555 60.7927C84.3057 60.0329 88.0961 59.2818 88.5328 58.1115C88.7948 57.4215 87.869 55.3779 85.0655 57.7621" fill="var(--sapContent_Illustrative_Color31)"/>
<path d="M85.3101 57.5613C85.1616 57.6835 84.9695 57.7534 84.7774 57.7534L82.4804 57.832C82.2621 57.832 82.0437 57.7621 81.8691 57.6224C81.6071 57.4041 81.214 57.0897 81.0656 57.0984C80.821 57.0984 80.8647 55.2556 80.8647 55.2556C80.8647 55.2556 81.0918 51.7971 82.6376 50.487C83.214 49.9979 85.0743 48.5482 86.1049 48.7752C86.69 48.9062 86.7774 48.4608 87.3451 48.2163C87.5372 48.1377 87.7206 47.9455 87.8865 47.7272C88.1835 47.3342 87.8603 46.784 87.38 46.8538C86.3058 47.011 83.9564 47.308 82.6027 47.8582C81.9739 48.1115 81.1267 48.5132 80.2097 48.9848C80.1398 49.0198 80.0699 49.0547 79.9913 49.0984C79.9477 49.1158 79.9127 49.142 79.8691 49.1595C79.8167 49.1857 79.773 49.2119 79.7206 49.2381C79.6769 49.2556 79.642 49.2818 79.5983 49.2992C79.5285 49.3342 79.4499 49.3779 79.38 49.4128C79.3363 49.439 79.2926 49.4565 79.249 49.4827C79.1966 49.5089 79.1354 49.5438 79.083 49.57C79.0394 49.5962 79.0044 49.6137 78.9608 49.6399C78.9084 49.6661 78.8472 49.701 78.7948 49.7272C78.7424 49.7534 78.725 49.7621 78.69 49.7883C78.6027 49.832 78.5241 49.8757 78.4368 49.9281C78.4018 49.9455 78.3669 49.9717 78.3319 49.9892C78.2795 50.0241 78.2184 50.0503 78.166 50.0853C78.1311 50.1027 78.0961 50.1289 78.0612 50.1464C77.9739 50.1901 77.8953 50.2425 77.8079 50.2861C77.7817 50.3036 77.7643 50.3123 77.7381 50.3298C77.6769 50.3648 77.6071 50.3997 77.5459 50.4434C77.511 50.4608 77.4761 50.4783 77.4499 50.5045C77.3887 50.5394 77.3276 50.5744 77.2664 50.6093C77.2402 50.6268 77.214 50.6355 77.1878 50.653C77.1092 50.6966 77.0219 50.749 76.9433 50.7927C76.9171 50.8102 76.8909 50.8276 76.8647 50.8364C76.8036 50.8713 76.7512 50.9062 76.69 50.9412C76.6638 50.9586 76.6376 50.9761 76.6114 50.9936C76.5328 51.0372 76.4542 51.0896 76.3843 51.1333C76.3843 51.1333 76.3581 51.1508 76.3494 51.1508C76.2795 51.1944 76.2184 51.2294 76.1573 51.273C76.1311 51.2905 76.1136 51.2992 76.0874 51.3167C76.0263 51.3517 75.9739 51.3866 75.9215 51.4303C75.904 51.4303 75.8865 51.4477 75.8691 51.4652C75.7992 51.5089 75.7293 51.5525 75.6682 51.5962C75.6507 51.5962 75.6333 51.6224 75.6158 51.6311C75.5634 51.6661 75.5197 51.701 75.4673 51.7359C75.4498 51.7359 75.4324 51.7621 75.4149 51.7709C75.3538 51.8145 75.2926 51.8582 75.2402 51.8931C75.1878 51.9281 75.1354 51.9717 75.083 52.0067C75.0656 52.0067 75.0568 52.0329 75.0394 52.0416C74.9957 52.0765 74.9608 52.1027 74.9258 52.1289C74.9258 52.1289 74.9084 52.1464 74.8909 52.1551C74.8472 52.1901 74.8036 52.225 74.7599 52.26C74.7599 52.26 74.7424 52.2774 74.7337 52.2862C74.6988 52.3124 74.6726 52.3386 74.6464 52.3648C74.6201 52.391 74.6289 52.3822 74.6202 52.391C74.5852 52.4259 74.559 52.4521 74.5328 52.4783C73.8691 53.1945 74.1223 54.0416 74.1747 56.2076C74.2533 59.4827 74.4804 60.9674 74.0612 61.8233C73.4498 63.0722 73.1704 63.5001 73.1704 63.5001V63.57C73.1704 63.5875 73.1529 63.6137 73.1442 63.6399V63.6661C73.1442 63.6835 73.1267 63.701 73.118 63.7272V63.7534C73.0743 63.8582 73.0219 63.998 72.952 64.1639C72.6813 64.8277 72.1922 65.9194 71.4586 67.2818C71.2664 67.6399 71.0568 68.0154 70.8298 68.3997C70.8298 68.4172 70.8123 68.4259 70.8036 68.4434C70.7512 68.5394 70.69 68.6268 70.6376 68.7229C70.5153 68.9325 70.3931 69.1333 70.2621 69.3429C70.1747 69.4827 70.0787 69.6312 69.9913 69.7796C69.904 69.9194 69.8079 70.0678 69.7118 70.2076C69.7118 70.2076 69.7119 70.225 69.6944 70.2338C69.607 70.3735 69.511 70.5045 69.4236 70.6443C69.4236 70.6617 69.4062 70.6705 69.3887 70.6967C69.3014 70.8277 69.214 70.9587 69.118 71.0897L69.1005 71.1071C69.083 71.1246 69.0743 71.1421 69.0656 71.1595C68.9782 71.2818 68.8909 71.4041 68.8036 71.5264C68.7774 71.5613 68.7599 71.5875 68.7337 71.6224C68.6463 71.736 68.559 71.8582 68.4717 71.9718C68.4717 71.9718 68.4542 71.998 68.4455 72.0067C68.428 72.0329 68.4018 72.0591 68.3843 72.094C68.297 72.2076 68.2097 72.3298 68.1136 72.4434V72.4609C68.0874 72.4958 68.0612 72.5307 68.035 72.5657C67.9127 72.7229 67.7904 72.8801 67.6594 73.0373C63.8952 77.7709 62.4891 80.7403 62.4891 80.7403L62.5066 80.7578L62.5241 80.7753C62.5241 80.7753 62.5415 80.7927 62.5503 80.8015L62.5677 80.8189C62.5677 80.8189 62.5939 80.8451 62.6027 80.8539C62.6027 80.8539 62.6289 80.8801 62.6376 80.8888C62.6551 80.9063 62.6638 80.9237 62.6813 80.9412C62.6813 80.9412 62.6813 80.9587 62.7075 80.9674C62.7075 80.9674 62.7075 80.9849 62.7249 80.9849C62.7511 81.0111 62.7773 81.0373 62.8035 81.0635C62.821 81.0809 62.8385 81.0984 62.8559 81.1159C62.8821 81.1508 62.9171 81.177 62.952 81.212C62.9695 81.2294 62.9869 81.2469 63.0044 81.2644C63.0394 81.308 63.083 81.343 63.1267 81.3866C63.1442 81.4041 63.1529 81.4128 63.1704 81.4303L63.4324 81.6923C63.4673 81.7272 63.4935 81.7534 63.5372 81.7884C63.5634 81.8233 63.5896 81.8495 63.6245 81.8757C63.6507 81.9019 63.6769 81.9281 63.7118 81.9543H63.7293L63.7468 81.9718C63.773 81.998 63.8079 82.0329 63.8428 82.0591C63.8691 82.0853 63.8952 82.1115 63.9214 82.129C63.9214 82.129 63.9477 82.1552 63.9564 82.1639C63.9913 82.1989 64.0263 82.2251 64.0525 82.26C64.0699 82.2775 64.0874 82.2949 64.1136 82.3124C64.1136 82.3124 64.1311 82.3299 64.1485 82.3386C64.1485 82.3386 64.1747 82.3648 64.1835 82.3735C64.2184 82.4085 64.2533 82.4347 64.2883 82.4696C64.3057 82.4871 64.3232 82.4958 64.3407 82.5133L64.3581 82.5307C64.3843 82.5482 64.4018 82.5744 64.428 82.5919C64.4629 82.6268 64.4979 82.653 64.5328 82.6879C64.5328 82.6879 64.5503 82.7054 64.559 82.7141C64.559 82.7141 64.5765 82.7316 64.5852 82.7316C64.6114 82.7578 64.6376 82.7753 64.6638 82.8015C64.7162 82.8451 64.7599 82.8888 64.8123 82.9325C64.8734 82.9849 64.9258 83.0373 64.987 83.0897C65.0044 83.0897 65.0132 83.1159 65.0306 83.1246C66.4891 84.3823 68.3581 85.7534 70.0787 86.2775C70.8123 86.4958 71.4586 85.7447 71.1442 85.046C71.1267 85.0023 71.1092 84.9587 71.083 84.915C69.904 82.2076 69.3625 78.8015 70.0874 75.9194C70.428 74.5482 71.0394 73.2731 71.5896 71.9805C72.1311 70.6967 72.4542 69.3517 72.987 68.0678C73.1529 67.6574 73.3276 67.2381 73.5372 66.8451C73.7468 66.4434 73.9651 66.0504 74.1835 65.6486C74.6114 64.8364 75.0306 64.0242 75.4236 63.1857C75.7905 62.391 76.1573 61.57 76.4105 60.7316C76.6114 60.0504 76.7162 59.3429 76.8734 58.653C77.0219 57.9805 77.2053 57.2818 77.5896 56.7054C77.8079 56.3822 78.3669 55.5263 78.7774 56.1377C78.8385 56.2338 78.8909 56.3473 78.9258 56.4608C79.0481 56.8626 79.1267 57.2818 79.1529 57.7097C79.214 58.618 79.0568 59.5351 78.9346 60.4346C78.9346 60.4958 78.9171 60.5569 78.9346 60.618C78.9782 60.7141 79.1005 60.7403 79.2053 60.749C79.7555 60.7927 80.297 60.5831 80.7774 60.3211C81.2664 60.0591 81.7293 59.7447 82.2446 59.5613C82.4717 59.4827 82.7512 59.4303 82.952 59.5613C83.1267 59.6835 83.1878 59.9193 83.1529 60.129C83.118 60.3386 83.0044 60.522 82.8909 60.6966C81.9913 61.998 80.559 62.8539 79.5721 64.094C79.1966 64.5744 79.0656 65.0198 79.2228 65.6049C79.249 65.6923 79.2752 65.7884 79.3014 65.8757C79.773 65.1333 79.9826 65.1333 80.4368 64.8015C81.2315 64.225 83.0656 61.7709 83.8341 60.7141C84.3844 59.9543 88.1049 59.3429 88.6114 58.0329C88.8647 57.3604 87.9913 55.4041 85.3713 57.4914L85.3363 57.5525L85.3101 57.5613Z" fill="var(--sapContent_Illustrative_Color28)"/>
<path d="M77.9564 56.2164C78.035 56.0329 78.1136 55.8495 78.2009 55.6661C78.7861 54.4434 79.607 53.3081 80.6027 52.3823C81.0219 51.9893 81.476 51.6399 81.9564 51.3255C82.1485 51.0024 82.3756 50.7054 82.6463 50.4784C83.2227 49.9893 85.083 48.5395 86.1136 48.7666C86.6987 48.8976 86.7861 48.4522 87.3538 48.2076C87.5459 48.129 87.7293 47.9369 87.8952 47.7185C88.1922 47.3255 87.869 46.7753 87.3887 46.8452C86.3144 47.0024 83.9651 47.2993 82.6114 47.8495C81.9826 48.1028 81.1354 48.5046 80.2184 48.9762C80.1485 49.0111 80.0786 49.046 80 49.0897C79.9564 49.1072 79.9214 49.1334 79.8778 49.1508C79.8254 49.177 79.7817 49.2032 79.7293 49.2294C79.6856 49.2469 79.6507 49.2731 79.607 49.2906C79.5372 49.3255 79.4585 49.3692 79.3887 49.4041C79.345 49.4303 79.3013 49.4478 79.2577 49.474C79.2053 49.5002 79.1441 49.5351 79.0917 49.5613C79.0481 49.5875 79.0131 49.605 78.9695 49.6312C78.9171 49.6574 78.8559 49.6923 78.8035 49.7185C78.7511 49.7447 78.7337 49.7535 78.6987 49.7797C78.6114 49.8233 78.5328 49.867 78.4454 49.9194C78.4105 49.9369 78.3756 49.9631 78.3406 49.9805C78.2882 50.0155 78.2271 50.0417 78.1747 50.0766C78.1398 50.0941 78.1048 50.1203 78.0699 50.1377C77.9826 50.1814 77.904 50.2338 77.8166 50.2775C77.7904 50.2949 77.773 50.3037 77.7468 50.3211C77.6856 50.3561 77.6158 50.391 77.5546 50.4347C77.5197 50.4522 77.4847 50.4696 77.4585 50.4958C77.3974 50.5308 77.3363 50.5657 77.2751 50.6006C77.2489 50.6181 77.2227 50.6268 77.1965 50.6443C77.1179 50.688 77.0306 50.7404 76.952 50.784C76.9258 50.8015 76.8996 50.819 76.8734 50.8277C76.8123 50.8626 76.7599 50.8976 76.6987 50.9325C76.6725 50.95 76.6463 50.9674 76.6201 50.9849C76.5415 51.0286 76.4629 51.081 76.393 51.1246C76.393 51.1246 76.3668 51.1421 76.3581 51.1421C76.2882 51.1858 76.2271 51.2207 76.166 51.2644C76.1398 51.2818 76.1223 51.2906 76.0961 51.308C76.035 51.343 75.9826 51.3779 75.9302 51.4216C75.9127 51.4216 75.8952 51.4391 75.8778 51.4565C75.8079 51.5002 75.738 51.5439 75.6769 51.5875C75.6594 51.5875 75.6419 51.6137 75.6245 51.6225C75.5721 51.6574 75.5284 51.6923 75.476 51.7273C75.4585 51.7273 75.4411 51.7535 75.4236 51.7622C75.3625 51.8059 75.3013 51.8495 75.2489 51.8845C75.1965 51.9194 75.1441 51.9631 75.0917 51.998C75.0743 51.998 75.0655 52.0242 75.0481 52.0329C75.0044 52.0679 74.9695 52.0941 74.9345 52.1203C74.9345 52.1203 74.9171 52.1377 74.8996 52.1465C74.8559 52.1814 74.8123 52.2163 74.7686 52.2513C74.7686 52.2513 74.7511 52.2687 74.7424 52.2775C74.7074 52.3037 74.6812 52.3299 74.655 52.3561C74.6288 52.3823 74.6376 52.3736 74.6288 52.3823C74.5939 52.4172 74.5677 52.4434 74.5415 52.4696C73.8778 53.1858 74.131 54.0329 74.1834 56.1989C74.262 59.474 74.4891 60.9587 74.0699 61.8146C73.4585 63.0635 73.1791 63.4915 73.1791 63.4915V63.5613C73.1791 63.5788 73.1616 63.605 73.1529 63.6312V63.6574C73.1529 63.6749 73.1354 63.6923 73.1267 63.7185V63.7447C73.083 63.8496 73.0306 63.9893 72.9607 64.1552C72.69 64.819 72.2009 65.9107 71.4673 67.2731C71.2751 67.6312 71.0655 68.0068 70.8384 68.391C70.8384 68.4085 70.821 68.4172 70.8122 68.4347C70.7598 68.5308 70.6987 68.6181 70.6463 68.7142C70.524 68.9238 70.4018 69.1247 70.2708 69.3343C70.1834 69.474 70.0874 69.6225 70 69.771C69.9127 69.9107 69.8166 70.0592 69.7205 70.1989C69.7205 70.1989 69.7205 70.2164 69.7031 70.2251C69.6157 70.3648 69.5197 70.4958 69.4323 70.6356C69.4323 70.653 69.4149 70.6618 69.3974 70.688C69.3101 70.819 69.2227 70.95 69.1267 71.081L69.1092 71.0985C69.0917 71.1159 69.083 71.1334 69.0743 71.1509C68.9869 71.2731 68.8996 71.3954 68.8122 71.5177C68.786 71.5526 68.7686 71.5788 68.7424 71.6137C68.655 71.7273 68.5677 71.8496 68.4804 71.9631C68.4804 71.9631 68.4629 71.9893 68.4542 71.998C68.4367 72.0242 68.4105 72.0504 68.393 72.0854C68.3057 72.1989 68.2184 72.3212 68.1223 72.4347V72.4522C68.0961 72.4871 68.0699 72.522 68.0437 72.557C67.9214 72.7142 67.7991 72.8714 67.6681 73.0286C63.9039 77.7622 62.4629 80.7841 62.4629 80.7841C62.4629 80.7841 62.4716 80.8015 62.4978 80.8277C62.5502 80.8889 62.6638 81.0111 62.8035 81.1509C63.1354 81.5002 63.5983 81.9718 63.6856 82.033C63.7031 82.0504 65.6157 83.9893 67.8515 85.3518C68.6812 85.8583 69.4935 86.2077 70 86.3649C70.7336 86.5832 71.476 85.7535 71.1616 85.0548C71.1441 85.0111 71.1267 84.9675 71.1005 84.9238C69.9214 82.2164 69.3799 78.8103 70.1048 75.9282C70.4454 74.557 71.0568 73.2819 71.607 71.9893C72.1485 70.7055 72.4716 69.3605 73.0044 68.0766C73.1703 67.6661 73.345 67.2469 73.5546 66.8539C73.7642 66.4522 73.9826 66.0592 74.2009 65.6574C74.6288 64.8452 75.0481 64.033 75.4411 63.1945C75.8079 62.3998 76.1747 61.5788 76.428 60.7404C76.6288 60.0591 76.7337 59.3517 76.8909 58.6618C77.0393 57.9893 77.2227 57.2906 77.607 56.7142C77.7031 56.5744 77.8603 56.3386 78.035 56.1552L78 56.2251L77.9564 56.2164Z" fill="var(--sapContent_Illustrative_Color3)"/>
<path d="M94.4733 55.3499C94.4733 55.3499 93.4515 55.6469 93.8795 56.5464C94.3074 57.446 95.5039 57.8303 95.5039 57.8303C95.5039 57.8303 96.7004 59.1578 97.2506 60.005C97.8096 60.8609 100.028 64.4853 101.006 65.4722C101.984 66.4504 104.753 67.9526 106.788 71.5334C108.823 75.1229 110.744 78.7037 111.338 80.8434C111.932 82.9744 112.997 88.5028 115.172 93.4373C117.347 98.3718 120.098 102.398 123.748 100.573C127.408 98.7474 126.735 95.8216 126.124 93.9264C125.513 92.0399 122.037 82.8347 119.233 79.2364C116.43 75.6382 111.792 66.922 111.067 65.8216C110.334 64.7211 109.303 64.0574 108.997 62.0399C108.692 60.0312 108.36 57.6993 108.238 55.8565C108.238 55.8565 108.238 55.6993 107.452 54.4766C106.665 53.2539 105.574 49.7517 101.853 48.1883C98.8576 46.9307 96.5423 46.8774 95.7572 46.922C95.6096 46.9307 95.4428 47.0617 95.4253 47.2364C95.3904 47.6905 95.4078 48.5202 96.0279 48.8346C96.8926 49.2626 98.3074 48.9394 98.3074 48.9394C98.3074 48.9394 98.6742 49.3499 99.5825 49.184C99.7197 49.1589 101.827 50.4792 101.937 50.8231C102.554 52.7566 100.718 57.0107 100.407 57.285C100.049 57.6081 99.6698 59.1403 99.0672 58.3543C99.0672 58.3543 98.1415 56.9831 97.0148 56.0836C95.8882 55.1753 94.4733 55.3499 94.4733 55.3499Z" fill="var(--sapContent_Illustrative_Color31)"/>
<path d="M95.4166 47.6992C95.4428 48.1272 95.5738 48.6163 96.0192 48.8346C96.8839 49.2625 98.2987 48.9656 98.2987 48.9656C98.2987 48.9656 98.6655 49.3499 99.5738 49.1839H99.6175C98.3511 48.3979 96.8839 47.8914 95.4166 47.6992Z" fill="var(--sapContent_Illustrative_Color28)"/>
<path d="M98.5361 49.4627L100.577 49.2926L97.8559 48.6124L92.7544 48.9525L93.2645 49.1226L94.2848 50.8231L98.5361 49.4627Z" fill="var(--sapContent_Illustrative_Color17)"/>
<path d="M123.146 97.1491C122.395 96.7998 121.67 96.3369 121.12 95.7168C120.342 94.8435 119.74 93.7954 119.181 92.7736C118.604 91.7168 118.089 90.6338 117.513 89.5771C116.936 88.5116 116.255 87.4985 115.696 86.4242C114.569 84.267 113.731 81.9788 112.91 79.6906C112.08 77.3849 111.259 75.0618 110.168 72.8696C109.128 70.7998 107.897 68.8609 106.447 67.053C106.08 66.5989 105.696 66.1622 105.329 65.708C105.059 65.3674 104.797 65.0181 104.622 64.6163C104.281 63.839 104.386 63.0094 104.465 62.1884C104.535 61.3849 104.604 60.5814 104.517 59.7779C104.482 59.4286 104.421 59.053 104.255 58.7386C104.107 58.4591 103.766 58.1185 103.425 58.1884C103.059 58.2583 102.762 58.6338 102.465 58.8434C102.133 59.0792 101.74 58.8963 101.338 58.94C100.858 59.0011 99.4777 58.8958 99.076 58.3718C99.076 58.3718 98.1502 57.0006 97.0236 56.101C95.8969 55.1927 94.4821 55.3674 94.4821 55.3674C94.4821 55.3674 93.6349 55.8041 93.8882 56.5639C94.3162 57.4635 95.5127 57.8478 95.5127 57.8478C95.5127 57.8478 96.7092 59.1753 97.2594 60.0224C97.8183 60.8783 100.037 64.5028 101.015 65.4897C101.993 66.4679 104.762 67.9701 106.797 71.5508C108.831 75.1404 110.753 78.7212 111.347 80.8609C111.941 82.9919 113.006 88.5203 115.181 93.4548C117.355 98.3893 120.107 102.416 123.757 100.59C125.181 99.874 125.949 99.0007 126.316 98.0836C125.216 97.9526 124.133 97.6295 123.155 97.1666V97.1491H123.146Z" fill="var(--sapContent_Illustrative_Color3)"/>
<path d="M102.617 53.0337L102.107 52.5235C101.583 51.4056 102.786 50.9761 101.668 50.4171C101.24 50.1988 97.7119 49.9106 96.8123 53.9455C95.9128 57.9804 96.4709 57.3892 96.725 57.5438C96.339 57.5656 95.939 57.1944 95.5722 56.9761C95.4412 56.9062 95.3189 56.8276 95.1966 56.749C94.5067 56.3123 93.9739 55.6573 93.6857 54.8887C93.1879 53.5787 92.9259 51.7883 93.8429 49.8669C93.8429 49.8669 92.9171 50.749 92.4717 51.9368C92.4892 51.8058 92.5067 51.6835 92.5154 51.5525C92.5591 51.1245 92.6202 50.5831 92.3757 50.1988C92.035 49.666 93.4486 49.0398 92.9245 48.9525C92.5839 48.8913 93.1603 49.1883 92.9245 48.9525C92.7586 48.7865 89.4324 49.1944 89.2228 49.2992C89.0132 49.404 89.0831 49.3778 89.0831 49.3778C89.4412 50.0066 90.8473 54.4259 90.8473 54.4259C90.8473 54.4259 91.0307 54.4433 91.3014 54.4608C91.284 54.4783 91.2752 54.4957 91.2578 54.5132C91.2578 54.5132 91.2578 57.3778 93.3276 57.4826C95.4062 57.5874 96.0882 56.635 97.3458 56.7748C98.2891 56.8796 97.3792 56.727 98.3661 56.6047C98.4622 56.6047 99.2903 56.9761 99.3864 56.9761C99.8056 55.3691 99.9739 57.2818 100.419 57.142C100.83 57.011 100.319 56.8708 100.747 56.7748C101.096 56.6961 100.773 56.6006 101.087 56.4347C101.489 56.225 101.069 56.2127 101.427 55.9245C101.593 55.7935 101.296 55.9368 101.427 55.7621C101.479 55.6922 101.392 55.493 101.427 55.4144C101.444 55.3794 101.741 55.1179 101.767 55.0743C101.767 55.0568 101.257 54.6905 101.257 54.7342C101.257 54.6468 101.876 54.1064 101.937 54.054C102.051 53.4863 102.173 53.5402 101.937 53.0337H102.617Z" fill="var(--sapContent_Illustrative_Color22)"/>
<path d="M91.2402 53.2208C91.2402 50.7317 89.2228 48.7142 86.7337 48.7142C84.2446 48.7142 86.428 48.7142 86.2795 48.7404C86.2795 48.7404 84.4979 48.2077 81.9826 50.9238C80.6813 52.3299 80.3145 53.9544 80.2621 55.1858C80.2097 56.4173 81.38 58.0941 82.9433 58.1989C84.5066 58.3037 84.0699 58.2164 84.7948 58.1116C88.3057 57.6138 87.3625 57.9107 88.2883 57.4478C90.0175 56.819 91.249 55.1596 91.249 53.212H91.2402V53.2208Z" fill="var(--sapContent_Illustrative_Color17)"/>
<path d="M86.7337 57.5002C89.0972 57.5002 91.0132 55.5842 91.0132 53.2207C91.0132 50.8572 89.0972 48.9412 86.7337 48.9412C84.3702 48.9412 82.4542 50.8572 82.4542 53.2207C82.4542 55.5842 84.3702 57.5002 86.7337 57.5002Z" fill="var(--sapContent_Illustrative_Color22)"/>
<path d="M86.7337 57.1422C88.8994 57.1422 90.6551 55.3865 90.6551 53.2208C90.6551 51.055 88.8994 49.2994 86.7337 49.2994C84.5679 49.2994 82.8123 51.055 82.8123 53.2208C82.8123 55.3865 84.5679 57.1422 86.7337 57.1422Z" fill="var(--sapContent_Illustrative_Color8)"/>
<path d="M90.5503 52.2864C90.332 51.3868 89.7992 50.6095 89.0743 50.0681L83.5896 55.5528C84.1224 56.2777 84.9084 56.8017 85.8079 57.0288L90.5503 52.2864Z" fill="var(--sapContent_Illustrative_Color2)"/>
<path d="M87.0743 49.3081C86.9608 49.3081 86.8559 49.2906 86.7424 49.2906C84.5765 49.2906 82.8821 51.0461 82.821 53.2121C82.7599 55.378 82.8385 53.5177 82.8385 53.5439L87.083 49.2994L87.0743 49.3081Z" fill="var(--sapContent_Illustrative_Color2)"/>
<path d="M103.054 53.2208C103.054 50.7317 101.037 48.7142 98.5476 48.7142C96.0585 48.7142 98.2419 48.7142 98.0934 48.7404C98.0934 48.7404 96.3118 48.2077 93.7965 50.9238C92.4952 52.3299 92.9769 53.843 92.9245 55.0744C92.8721 56.3059 93.5718 57.343 95.1352 57.4478C96.6985 57.5527 95.8838 58.2164 96.6087 58.1116C100.12 57.6138 99.1764 57.9107 100.102 57.4478C101.831 56.819 103.063 55.1596 103.063 53.212H103.054V53.2208Z" fill="var(--sapContent_Illustrative_Color17)"/>
<path d="M98.5475 57.5002C100.911 57.5002 102.827 55.5842 102.827 53.2207C102.827 50.8572 100.911 48.9412 98.5475 48.9412C96.1841 48.9412 94.2681 50.8572 94.2681 53.2207C94.2681 55.5842 96.1841 57.5002 98.5475 57.5002Z" fill="var(--sapContent_Illustrative_Color22)"/>
<path d="M98.5475 57.1422C100.713 57.1422 102.469 55.3865 102.469 53.2208C102.469 51.055 100.713 49.2994 98.5475 49.2994C96.3818 49.2994 94.6261 51.055 94.6261 53.2208C94.6261 55.3865 96.3818 57.1422 98.5475 57.1422Z" fill="var(--sapContent_Illustrative_Color8)"/>
<path d="M102.364 52.2864C102.146 51.3868 101.613 50.6095 100.888 50.0681L95.4034 55.5528C95.9362 56.2777 96.7222 56.8017 97.6218 57.0288L102.364 52.2864Z" fill="var(--sapContent_Illustrative_Color2)"/>
<path d="M98.8881 49.3081C98.7746 49.3081 98.6698 49.2906 98.5563 49.2906C96.3903 49.2906 94.696 51.0461 94.6349 53.2121C94.5737 55.378 94.6523 53.5177 94.6523 53.5439L98.8969 49.2994L98.8881 49.3081Z" fill="var(--sapContent_Illustrative_Color2)"/>
<path d="M92.7948 52.0155C93.6389 52.0155 94.3232 51.3312 94.3232 50.4871C94.3232 49.643 93.6389 48.9587 92.7948 48.9587C91.9507 48.9587 91.2664 49.643 91.2664 50.4871C91.2664 51.3312 91.9507 52.0155 92.7948 52.0155Z" fill="var(--sapContent_Illustrative_Color17)"/>
<path d="M91.8603 50.4871C91.8603 49.7447 92.3931 49.1246 93.1005 48.9849C93.0044 48.9674 92.9083 48.9587 92.8035 48.9587C91.9564 48.9587 91.2751 49.6486 91.2751 50.4871C91.2751 51.3255 91.9651 52.0155 92.8035 52.0155C93.642 52.0155 93.0044 52.0067 93.1005 51.9893C92.3931 51.8495 91.8603 51.2294 91.8603 50.4871Z" fill="var(--sapContent_Illustrative_Color22)"/>
<path d="M121.677 96.4523V96.461C121.774 97.3623 121.531 98.2069 121.262 99.0593C121.301 97.847 121.212 96.6339 121.022 95.4304C120.856 95.1772 120.681 94.9326 120.507 94.6793C120.445 94.8977 120.393 95.116 120.332 95.3344L120.323 95.3431C120.236 95.6662 120.149 95.9807 120.026 96.2863C119.921 96.5483 119.79 96.8278 119.581 97.0287C119.066 97.509 118.428 97.1597 117.983 96.7667C116.961 95.8584 116.585 94.1641 115.135 93.8497C115.223 95.1422 115.476 96.4348 115.362 97.7274C115.319 98.2689 115.223 98.9064 114.821 99.3169C114.384 99.7623 113.773 99.6226 113.258 99.4217C112.542 99.151 111.878 98.7667 111.223 98.3824C110.969 98.2339 110.716 98.0855 110.463 97.937C110.044 97.6925 109.686 97.3256 109.345 96.9763C108.996 96.6269 108.646 96.2601 108.21 96.0156C107.817 95.7973 107.38 95.6662 106.978 95.4566C106.594 95.2558 106.306 94.9676 106.122 94.5745C105.956 94.2165 105.878 93.8235 105.886 93.4217C105.886 92.6095 106.183 91.8234 106.411 91.0549C106.594 90.4261 106.804 89.7448 106.707 89.0811C106.21 89.1597 105.694 89.1597 105.223 88.9501C104.419 88.6007 104.079 87.7361 103.843 86.9501C103.616 86.2077 103.459 85.4217 103.057 84.7579C102.664 85.1684 102.62 85.7798 102.673 86.3387C102.742 87.0287 102.952 87.6924 103.153 88.3475C103.371 89.0724 103.537 89.7972 103.659 90.5396C103.956 92.4173 103.983 94.3213 103.991 96.2165C104.026 96.2427 104.052 96.2776 104.087 96.3125C104.638 96.8977 106.035 97.9283 107.354 98.2165C108.673 98.5134 115.991 103.553 120.393 103.5C120.393 103.491 120.398 103.482 120.403 103.472C120.399 103.482 120.397 103.492 120.393 103.5C124.776 103.5 125.695 99.937 126.254 98.2165C126.446 97.6138 122.935 98.4173 121.677 96.4523ZM120.411 103.448C120.413 103.443 120.415 103.437 120.417 103.43C120.414 103.437 120.412 103.444 120.41 103.451C120.41 103.451 120.41 103.449 120.41 103.448H120.411Z" fill="var(--sapContent_Illustrative_Color22)"/>
<path d="M107.209 83.3026C107.209 83.3026 107.192 80.9954 105.367 84.4407C103.547 87.8921 105.693 90.7678 106.766 91.8197C107.838 92.8716 113.371 101.112 117.782 101.305C122.194 101.497 124.931 103.179 125.914 99.4573C125.914 99.4573 127.932 95.8212 126.235 92.7743C124.538 89.7275 122.671 84.4095 122.671 84.4095C122.671 84.4095 122.376 87.0556 114.253 87.554L111.84 87.7564C111.84 87.7564 112.774 86.681 110.95 85.1732C109.126 83.6653 107.379 82.9625 107.379 82.9625L107.209 83.3026Z" fill="var(--sapContent_Illustrative_Color13)"/>
<path d="M111.863 87.5831C111.907 87.6259 111.803 87.7319 111.81 87.8121C111.879 88.6143 112.302 89.5181 112.427 90.3136C112.637 91.5838 112.902 92.8473 113.192 94.0982C113.321 94.6405 113.462 95.1826 113.671 95.6932C113.785 95.9761 113.93 96.265 114.117 96.5102C114.109 96.3436 114.071 96.1834 114.02 96.0356C113.93 95.703 113.804 95.3831 113.745 95.044C113.673 94.6062 113.619 94.162 113.59 93.7176C113.561 93.2609 113.575 92.7976 113.54 92.3471C113.518 91.9953 113.471 91.6437 113.511 91.2913C113.534 91.1181 113.582 90.9571 113.661 90.8019C113.733 90.6654 113.849 90.4851 114.009 90.4465C114.139 90.4021 114.238 90.4752 114.362 90.474C114.399 90.4737 114.386 90.4985 114.404 90.4304C114.422 90.3129 114.383 90.1774 114.364 90.0602C114.344 89.9184 114.324 89.7765 114.353 89.6342C114.413 89.3866 114.558 89.0887 114.829 89.012C115.1 88.9353 115.41 89.0434 115.688 89.0346C116.083 89.0184 116.484 88.9466 116.866 88.8688C117.248 88.791 117.636 88.7317 118.025 88.66C118.703 88.5299 119.374 88.3567 119.995 88.0604C120.659 87.7329 121.217 87.252 121.755 86.7527C122.214 86.3221 122.654 85.8608 122.989 85.3327C122.78 84.7727 122.665 84.4279 122.665 84.4279C122.665 84.4279 122.37 87.0741 114.247 87.5725L111.863 87.5831Z" fill="var(--sapContent_Illustrative_Color22)"/>
<path d="M98.7062 57.7951L95.3052 57.455L96.1554 58.3053L98.026 59.6657L98.7062 57.7951Z" fill="var(--sapContent_Illustrative_Color3)"/>
<defs>
<clipPath id="clip0_396_4314">
<rect width="8" height="13.5" fill="var(--sapContent_Illustrative_Color8)" transform="translate(97.179 108.5)"/>
</clipPath>
</defs>
</svg>