<svg width="320" height="240" viewBox="0 0 320 240" fill="none" xmlns="http://www.w3.org/2000/svg" id="sapIllus-Scene-EmptyCalendar">
<mask id="mask0_396_5153" style="mask-type:alpha" maskUnits="userSpaceOnUse" x="0" y="20" width="320" height="200">
<path d="M305.547 20H14.4533C12.5559 19.9983 10.6768 20.3705 8.92329 21.0954C7.16981 21.8203 5.57638 22.8836 4.23409 24.2247C2.8918 25.5657 1.82697 27.1582 1.10045 28.911C0.373942 30.6638 -8.08861e-07 32.5426 0 34.44V205.547C0 209.38 1.52275 213.056 4.23328 215.767C6.9438 218.477 10.6201 220 14.4533 220H305.547C309.38 220 313.056 218.477 315.767 215.767C318.477 213.056 320 209.38 320 205.547V34.44C320 32.5426 319.626 30.6638 318.9 28.911C318.173 27.1582 317.108 25.5657 315.766 24.2247C314.424 22.8836 312.83 21.8203 311.077 21.0954C309.323 20.3705 307.444 19.9983 305.547 20Z" style="fill:var(--sapContent_Illustrative_Color7)"/>
</mask>
<g mask="url(#mask0_396_5153)">
<path d="M305.547 20H14.4533C12.5559 19.9983 10.6768 20.3705 8.92329 21.0954C7.16981 21.8203 5.57638 22.8836 4.23409 24.2247C2.8918 25.5657 1.82697 27.1582 1.10045 28.911C0.373942 30.6638 -8.08861e-07 32.5426 0 34.44V205.547C0 209.38 1.52275 213.056 4.23328 215.767C6.9438 218.477 10.6201 220 14.4533 220H305.547C309.38 220 313.056 218.477 315.767 215.767C318.477 213.056 320 209.38 320 205.547V34.44C320 32.5426 319.626 30.6638 318.9 28.911C318.173 27.1582 317.108 25.5657 315.766 24.2247C314.424 22.8836 312.83 21.8203 311.077 21.0954C309.323 20.3705 307.444 19.9983 305.547 20Z" style="fill:var(--sapContent_Illustrative_Color7)"/>
<rect x="-15.4889" y="6.48901" width="56" height="70.9333" rx="6.22222" style="fill:var(--sapContent_Illustrative_Color19)"/>
<rect x="-13.6222" y="4.45312" width="56" height="70.9333" rx="6.22222" style="fill:var(--sapContent_Illustrative_Color18)"/>
<rect x="-9.88889" y="8.18652" width="48.5333" height="63.4667" rx="3.73333" style="fill:var(--sapContent_Illustrative_Color7)"/>
<path fill-rule="evenodd" clip-rule="evenodd" d="M36.1555 71.4407V8.39893C37.6052 8.91129 38.6439 10.2935 38.6444 11.9185V67.9212C38.6439 69.5461 37.6052 70.9284 36.1555 71.4407Z" style="fill:var(--sapContent_Illustrative_Color19)"/>
<path d="M19.6293 21.7803C20.6373 22.6515 20.2142 24.8292 18.7084 26.6586C17.8124 27.7537 16.7173 28.463 15.784 28.687C15.9208 29.4461 16.0453 30.2426 16.1324 31.0888C16.6302 35.7555 16.8044 41.1315 13.2577 41.1563C9.13862 41.1937 8.75284 37.3857 8.32973 33.1048C8.2924 32.7563 8.25506 32.4203 8.21773 32.0719C7.71995 27.3928 7.96884 23.4728 11.2915 23.0995C12.6231 22.9501 13.6062 23.535 14.3404 24.6052C14.552 24.2319 14.8008 23.871 15.0871 23.5101C16.5928 21.6808 18.6213 20.9092 19.6293 21.7803Z" style="fill:var(--sapContent_Illustrative_Color18)"/>
<path d="M23.1138 35.8177C23.1138 38.5057 21.8818 40.6586 20.3512 40.6711C16.6303 40.7084 17.3769 38.5182 17.5885 35.8177C17.8001 33.1049 18.8205 30.9893 20.3512 30.9644C23.1512 30.9022 23.1138 33.1297 23.1138 35.8177Z" style="fill:var(--sapContent_Illustrative_Color18)"/>
<path d="M25.1546 43.7197H4.67107C4.43463 43.7197 4.23552 43.9188 4.23552 44.1677V58.3295C4.23552 58.5784 4.43463 58.7775 4.67107 58.7775H25.1546C25.3911 58.7775 25.5902 58.5784 25.5902 58.3295V44.1677C25.5902 43.9188 25.3911 43.7197 25.1546 43.7197Z" style="fill:var(--sapContent_Illustrative_Color18)"/>
<path d="M25.1422 41.1936H4.69599C4.45955 41.1936 4.26044 41.3927 4.26044 41.6416V46.7314C4.26044 46.9803 4.45955 47.1794 4.69599 47.1794H25.1422C25.3787 47.1794 25.5778 46.9803 25.5778 46.7314V41.6416C25.5778 41.3927 25.3787 41.1936 25.1422 41.1936Z" style="fill:var(--sapContent_Illustrative_Color19)"/>
<path d="M26.3867 39.24H3.61334C3.37689 39.24 3.17778 39.4391 3.17778 39.688V45.2631C3.17778 45.512 3.37689 45.7111 3.61334 45.7111H26.3867C26.6231 45.7111 26.8222 45.512 26.8222 45.2631V39.688C26.8222 39.4391 26.6231 39.24 26.3867 39.24Z" style="fill:var(--sapContent_Illustrative_Color18)"/>
<rect x="24.6438" y="147.313" width="52.0431" height="65.9213" rx="5.78257" style="fill:var(--sapContent_Illustrative_Color19)"/>
<rect x="26.3571" y="145.965" width="52.0431" height="65.9213" rx="5.78257" style="fill:var(--sapContent_Illustrative_Color18)"/>
<rect x="29.8266" y="149.434" width="45.104" height="58.9822" rx="3.46954" style="fill:var(--sapContent_Illustrative_Color7)"/>
<path fill-rule="evenodd" clip-rule="evenodd" d="M72.6176 208.219V149.632C73.9652 150.108 74.9306 151.393 74.9306 152.904V204.947C74.9306 206.458 73.9652 207.743 72.6176 208.219Z" style="fill:var(--sapContent_Illustrative_Color19)"/>
<mask id="mask1_396_5153" style="mask-type:alpha" maskUnits="userSpaceOnUse" x="29" y="149" width="46" height="60">
<rect x="29.8266" y="149.435" width="45.104" height="58.9822" rx="3.46954" style="fill:var(--sapContent_Illustrative_Color7)"/>
</mask>
<g mask="url(#mask1_396_5153)">
<path d="M57.6678 193.177L41.3208 196.376L39.2464 192.998C37.9668 190.911 37.1583 188.57 36.8771 186.139C36.5958 183.709 36.8486 181.246 37.6177 178.922C38.3869 176.599 39.654 174.47 41.331 172.685C43.008 170.899 45.0546 169.5 47.3286 168.583L52.3174 166.576C58.6502 164.025 65.0999 169.994 63.0182 176.484L57.6678 193.177Z" style="fill:var(--sapContent_Illustrative_Color19)"/>
<path d="M54.7535 218.022L49.2095 215.927C48.6271 215.706 48.1046 215.352 47.6835 214.894C47.2624 214.436 46.9546 213.886 46.7845 213.288L42.117 196.959C42.0162 196.608 42.0175 196.236 42.1207 195.885C42.2239 195.535 42.4248 195.221 42.7 194.98C42.9751 194.739 43.3133 194.581 43.675 194.524C44.0367 194.468 44.407 194.515 44.7429 194.66L57.6934 200.254L58.9279 214.881C58.9717 215.4 58.8829 215.922 58.6698 216.397C58.4567 216.873 58.1263 217.287 57.7094 217.601C57.2925 217.914 56.8027 218.118 56.2858 218.191C55.7689 218.265 55.2417 218.207 54.7535 218.022Z" style="fill:var(--sapContent_Illustrative_Color18)"/>
<path d="M58.2485 206.845L57.971 203.526C56.867 202.774 55.684 202.145 54.443 201.649C50.9844 200.242 47.8217 199.991 47.3761 201.084C46.9305 202.177 49.3702 204.2 52.8251 205.606C54.9251 206.459 56.9082 206.885 58.2485 206.845Z" style="fill:var(--sapContent_Illustrative_Color19)"/>
<path d="M51.4058 178.414L57.2041 178.728C58.1786 178.779 59.1334 179.021 60.014 179.441C60.8945 179.86 61.6835 180.449 62.3357 181.173C62.988 181.897 63.4907 182.743 63.8151 183.661C64.1395 184.579 64.2793 185.552 64.2263 186.524L63.6553 197.011C63.5485 198.972 62.6654 200.81 61.2002 202.122C59.735 203.433 57.8077 204.11 55.8424 204.003L53.3663 203.869C50.5199 203.715 47.8515 202.438 45.9481 200.321C44.0447 198.204 43.0623 195.419 43.217 192.578L43.6075 185.407C43.7141 183.448 44.5951 181.612 46.0572 180.301C47.5192 178.99 49.4428 178.311 51.4058 178.414Z" style="fill:var(--sapContent_Illustrative_Color18)"/>
<path d="M59.9468 188.465L58.223 192.973C58.2128 192.999 58.2092 193.028 58.2126 193.056C58.216 193.084 58.2263 193.11 58.2426 193.133C58.2589 193.156 58.2806 193.175 58.3058 193.188C58.3311 193.201 58.3591 193.207 58.3874 193.206H61.247C61.2734 193.206 61.2996 193.201 61.3234 193.189C61.3473 193.178 61.3681 193.161 61.3844 193.14C61.4007 193.119 61.4119 193.095 61.4172 193.069C61.4225 193.043 61.4217 193.017 61.415 192.991L60.2792 188.487C60.27 188.451 60.2497 188.42 60.2213 188.396C60.1929 188.372 60.1578 188.359 60.1209 188.356C60.0841 188.354 60.0474 188.363 60.0162 188.383C59.9849 188.402 59.9606 188.431 59.9468 188.465Z" style="fill:var(--sapContent_Illustrative_Color19)"/>
<path d="M37.9147 183.515L40.723 182.711C40.7744 182.692 40.8291 182.685 40.8836 182.689C40.9381 182.692 40.9913 182.707 41.0396 182.733C41.088 182.758 41.1306 182.793 41.1647 182.836C41.1987 182.878 41.2235 182.928 41.2375 182.98L44.102 192.935C44.346 193.783 44.2424 194.693 43.8139 195.465C43.3855 196.236 42.6672 196.807 41.8172 197.05C41.7167 197.079 41.6088 197.067 41.5173 197.016C41.4258 196.966 41.3582 196.881 41.3293 196.781L37.6535 184.007C37.6383 183.958 37.6329 183.906 37.6378 183.854C37.6427 183.803 37.6577 183.753 37.682 183.707C37.7062 183.662 37.7393 183.621 37.7792 183.588C37.8191 183.555 37.8652 183.53 37.9147 183.515Z" style="fill:var(--sapContent_Illustrative_Color19)"/>
<path d="M42.756 191.752L40.2579 190.739L47.0509 182.023L46.2256 186.483C45.9054 188.225 45.2128 189.878 44.195 191.33C44.0387 191.552 43.8112 191.716 43.5497 191.792C43.2882 191.869 43.0084 191.855 42.756 191.752Z" style="fill:var(--sapContent_Illustrative_Color19)"/>
<path d="M44.2616 194.185C45.1718 193.959 45.5731 192.424 45.1578 190.756C44.7426 189.088 43.668 187.919 42.7578 188.144C41.8475 188.37 41.4462 189.905 41.8615 191.573C42.2767 193.241 43.3513 194.41 44.2616 194.185Z" style="fill:var(--sapContent_Illustrative_Color18)"/>
<path d="M56.6357 183.785C64.165 182.752 69.8918 179.18 69.4268 175.806C68.9619 172.433 62.4813 170.536 54.952 171.569C47.4227 172.602 41.6959 176.174 42.1609 179.548C42.6258 182.921 49.1064 184.818 56.6357 183.785Z" style="fill:var(--sapContent_Illustrative_Color19)"/>
<path d="M46.9311 181.982L42.2941 180.097L40.1387 185.375L44.7756 187.26L46.9311 181.982Z" style="fill:var(--sapContent_Illustrative_Color19)"/>
<path d="M46.6659 173.035C49.8801 169.754 51.7676 166.393 50.8819 165.53C49.9961 164.666 46.6725 166.626 43.4583 169.908C40.2441 173.19 38.3565 176.55 39.2423 177.414C40.128 178.278 43.4517 176.317 46.6659 173.035Z" style="fill:var(--sapContent_Illustrative_Color19)"/>
</g>
<rect x="151" y="5.56445" width="45" height="57" rx="5" style="fill:var(--sapContent_Illustrative_Color19)"/>
<rect x="153" y="4" width="45" height="57" rx="5" style="fill:var(--sapContent_Illustrative_Color18)"/>
<rect x="156" y="7" width="39" height="51" rx="3" style="fill:var(--sapContent_Illustrative_Color7)"/>
<path fill-rule="evenodd" clip-rule="evenodd" d="M193 57.8292V7.17065C194.165 7.58249 195 8.69373 195 9.99995V55C195 56.3062 194.165 57.4174 193 57.8292Z" style="fill:var(--sapContent_Illustrative_Color19)"/>
<path d="M156 34C156 34 166 34 172.5 43C179 52 183 58 183 58H159C157.34 58 156 56.66 156 55V34Z" style="fill:var(--sapContent_Illustrative_Color19)"/>
<path d="M180.76 48.1601C179.09 47.7201 177.46 48.2601 175.69 49.2901C174.35 50.1201 173.05 51.0301 171.8 52.0101C169.58 53.6801 167.63 55.7001 166 58.0001H189C184.39 53.4701 184.3 49.0901 180.76 48.1601Z" style="fill:var(--sapContent_Illustrative_Color20)"/>
<path d="M183.28 33.19C186.2 33.19 188.56 30.91 188.56 28.09C188.56 25.27 186.19 22.99 183.28 22.99C180.37 22.99 178 25.27 178 28.09C178 30.91 180.37 33.19 183.28 33.19Z" style="fill:var(--sapContent_Illustrative_Color18)"/>
<rect x="264" y="58" width="45" height="57" rx="5" style="fill:var(--sapContent_Illustrative_Color19)"/>
<rect x="266" y="56.4355" width="45" height="57" rx="5" style="fill:var(--sapContent_Illustrative_Color18)"/>
<rect x="269" y="59.4355" width="39" height="51" rx="3" style="fill:var(--sapContent_Illustrative_Color7)"/>
<path fill-rule="evenodd" clip-rule="evenodd" d="M306 110.265V59.6062C307.165 60.018 308 61.1293 308 62.4355V107.435C308 108.742 307.165 109.853 306 110.265Z" style="fill:var(--sapContent_Illustrative_Color19)"/>
<g opacity="0.5">
<path d="M300.092 85.4989L300.058 85.4546C298.487 82.8114 295.297 81 291.615 81C288.076 81 284.994 82.6686 283.365 85.1445V81.9204C283.365 81.8682 283.344 81.8182 283.307 81.7812C283.27 81.7443 283.22 81.7235 283.168 81.7235L281.031 83.2593H280.908C280.536 83.097 280.133 83.0181 279.727 83.0279C279.353 83.0223 278.983 83.0875 278.634 83.2199H278.58L276.197 81.7433C276.171 81.7433 276.145 81.7483 276.122 81.7582C276.098 81.7681 276.076 81.7827 276.058 81.8009C276.039 81.8192 276.025 81.8409 276.015 81.8648C276.005 81.8887 276 81.9143 276 81.9402V85.9911C276 87.0773 276.432 88.1189 277.2 88.8869C277.968 89.655 279.01 90.0864 280.096 90.0864H299.472C299.497 90.3374 299.511 90.5786 299.511 90.874C299.516 92.0401 299.233 93.1894 298.687 94.2198C298.14 95.2502 297.348 96.1299 296.38 96.7806L296.302 96.8348C296.179 96.9168 296.075 97.0227 295.995 97.1461C295.914 97.2695 295.86 97.4079 295.834 97.553C295.809 97.698 295.813 97.8467 295.846 97.9901C295.88 98.1335 295.942 98.2687 296.029 98.3875C296.116 98.5063 296.226 98.6063 296.352 98.6815C296.479 98.7568 296.619 98.8056 296.765 98.8252C296.911 98.8448 297.06 98.8346 297.202 98.7953C297.344 98.7561 297.476 98.6886 297.591 98.5969L297.651 98.5575C298.9 97.7002 299.921 96.5508 300.626 95.2092C301.33 93.8676 301.696 92.3744 301.692 90.8592C301.681 88.9564 301.126 87.0966 300.092 85.4989ZM282.144 86.8082L283.335 83.8549L283.36 85.1888L282.144 86.8082Z" style="fill:var(--sapContent_Illustrative_Color19)"/>
<path d="M282.144 86.7982L283.36 85.1592L283.34 83.8253L282.144 86.7982Z" style="fill:var(--sapContent_Illustrative_Color19)"/>
</g>
<path fill-rule="evenodd" clip-rule="evenodd" d="M112.028 104.574C110.326 104.574 108.965 105.989 109.03 107.689L109.481 119.434H216.113L215.884 107.517C215.853 105.883 214.519 104.574 212.885 104.574H112.028ZM216.113 119.434H109.481L111.972 186.804C111.982 187.126 112.117 187.432 112.348 187.655C112.579 187.879 112.889 188.003 113.21 188H217.155C217.321 188 217.486 187.967 217.639 187.902C217.792 187.837 217.931 187.741 218.046 187.621C218.162 187.501 218.252 187.359 218.312 187.203C218.371 187.048 218.399 186.881 218.393 186.715L216.113 119.434Z" style="fill:var(--sapContent_Illustrative_Color20)"/>
<path d="M114.087 113.719H220.719L222.999 180.999C223.005 181.166 222.978 181.332 222.918 181.488C222.859 181.643 222.768 181.786 222.653 181.906C222.537 182.026 222.399 182.121 222.245 182.186C222.092 182.251 221.928 182.285 221.761 182.285H117.817C117.495 182.287 117.186 182.163 116.954 181.94C116.723 181.716 116.588 181.41 116.579 181.088L114.087 113.719Z" style="fill:var(--sapContent_Illustrative_Color2)"/>
<path d="M126.746 131.117C126.684 129.418 128.044 128.008 129.744 128.008H205.852C207.466 128.008 208.791 129.285 208.85 130.898L210.342 171.765C210.404 173.463 209.043 174.874 207.344 174.874H131.235C129.621 174.874 128.296 173.597 128.237 171.984L126.746 131.117Z" style="fill:var(--sapContent_Illustrative_Color8)"/>
<path d="M128.922 123.27H160.216C160.436 123.272 160.653 123.228 160.856 123.143C161.058 123.057 161.241 122.931 161.394 122.773C161.546 122.614 161.665 122.426 161.742 122.22C161.82 122.014 161.855 121.794 161.846 121.574C161.823 121.116 161.625 120.685 161.293 120.369C160.962 120.053 160.522 119.878 160.064 119.878H128.78C128.56 119.877 128.342 119.92 128.14 120.006C127.937 120.091 127.754 120.217 127.602 120.376C127.449 120.534 127.331 120.722 127.253 120.928C127.175 121.135 127.14 121.354 127.15 121.574C127.173 122.031 127.369 122.461 127.699 122.776C128.028 123.092 128.466 123.269 128.922 123.27Z" style="fill:var(--sapContent_Illustrative_Color8)"/>
<path d="M134.488 135.232C134.405 135.231 134.323 135.246 134.247 135.278C134.171 135.31 134.102 135.357 134.044 135.416C133.987 135.475 133.942 135.546 133.912 135.623C133.883 135.701 133.87 135.783 133.874 135.866L133.989 139.329C133.996 139.501 134.068 139.663 134.191 139.782C134.313 139.902 134.477 139.97 134.648 139.972H138.772C138.855 139.973 138.938 139.958 139.014 139.925C139.091 139.893 139.161 139.845 139.219 139.785C139.276 139.725 139.321 139.653 139.35 139.575C139.379 139.496 139.391 139.413 139.386 139.329L139.27 135.866C139.261 135.696 139.188 135.536 139.066 135.418C138.943 135.301 138.781 135.234 138.611 135.232H134.488Z" style="fill:var(--sapContent_Illustrative_Color6)"/>
<path d="M145.023 135.25C144.94 135.249 144.858 135.264 144.781 135.296C144.704 135.327 144.635 135.374 144.576 135.433C144.518 135.492 144.473 135.563 144.442 135.64C144.412 135.718 144.397 135.8 144.4 135.884L144.525 139.347C144.531 139.519 144.603 139.681 144.726 139.8C144.849 139.92 145.012 139.988 145.184 139.99H149.307C149.39 139.99 149.472 139.973 149.548 139.941C149.624 139.908 149.693 139.86 149.751 139.8C149.808 139.74 149.853 139.669 149.882 139.591C149.912 139.513 149.925 139.43 149.921 139.347L149.805 135.884C149.794 135.713 149.719 135.553 149.595 135.436C149.471 135.318 149.308 135.252 149.137 135.25H145.023Z" style="fill:var(--sapContent_Illustrative_Color6)"/>
<path d="M155.683 135.285C155.6 135.285 155.518 135.302 155.441 135.335C155.365 135.367 155.296 135.415 155.239 135.475C155.181 135.535 155.137 135.606 155.107 135.684C155.078 135.762 155.065 135.845 155.068 135.928L155.184 139.392C155.193 139.562 155.266 139.723 155.388 139.842C155.51 139.962 155.673 140.03 155.843 140.034H159.966C160.05 140.034 160.132 140.018 160.209 139.985C160.286 139.953 160.356 139.905 160.414 139.845C160.472 139.785 160.517 139.714 160.548 139.636C160.578 139.558 160.592 139.475 160.59 139.392L160.465 135.928C160.458 135.757 160.386 135.595 160.264 135.475C160.141 135.355 159.977 135.288 159.806 135.285H155.683Z" style="fill:var(--sapContent_Illustrative_Color6)"/>
<path d="M166.218 135.303C166.135 135.303 166.052 135.32 165.975 135.352C165.899 135.385 165.829 135.433 165.771 135.493C165.713 135.552 165.667 135.623 165.637 135.701C165.607 135.779 165.592 135.862 165.595 135.946L165.719 139.409C165.726 139.581 165.798 139.743 165.921 139.863C166.044 139.982 166.207 140.05 166.378 140.052H170.502C170.585 140.052 170.667 140.036 170.743 140.003C170.819 139.97 170.888 139.923 170.946 139.862C171.003 139.802 171.048 139.731 171.077 139.653C171.106 139.576 171.12 139.493 171.116 139.409L171 135.946C170.991 135.775 170.919 135.614 170.796 135.495C170.674 135.376 170.512 135.307 170.341 135.303H166.218Z" style="fill:var(--sapContent_Illustrative_Color6)"/>
<path d="M176.976 135.419C176.893 135.419 176.811 135.436 176.734 135.468C176.658 135.501 176.589 135.549 176.532 135.609C176.474 135.669 176.429 135.74 176.4 135.818C176.371 135.896 176.358 135.979 176.361 136.062L176.477 139.525C176.488 139.696 176.563 139.856 176.687 139.974C176.811 140.091 176.975 140.157 177.145 140.159H181.268C181.351 140.159 181.432 140.143 181.508 140.111C181.583 140.079 181.652 140.032 181.709 139.973C181.767 139.913 181.811 139.843 181.841 139.767C181.871 139.69 181.885 139.608 181.883 139.525L181.758 136.062C181.751 135.891 181.679 135.728 181.557 135.609C181.434 135.489 181.27 135.421 181.099 135.419H176.976Z" style="fill:var(--sapContent_Illustrative_Color6)"/>
<path d="M191.795 140.177C191.877 140.178 191.959 140.163 192.035 140.131C192.112 140.1 192.181 140.053 192.238 139.993C192.296 139.934 192.341 139.863 192.37 139.786C192.399 139.709 192.413 139.626 192.409 139.543L192.293 136.08C192.286 135.908 192.214 135.746 192.092 135.627C191.969 135.507 191.805 135.439 191.634 135.437H187.511C187.428 135.436 187.345 135.452 187.268 135.484C187.191 135.516 187.121 135.564 187.064 135.624C187.006 135.684 186.961 135.756 186.933 135.834C186.904 135.913 186.892 135.996 186.896 136.08L187.012 139.543C187.021 139.713 187.094 139.873 187.217 139.991C187.339 140.109 187.502 140.175 187.671 140.177H191.795Z" style="fill:var(--sapContent_Illustrative_Color6)"/>
<path d="M202.027 136.062C202.02 135.891 201.948 135.728 201.825 135.609C201.703 135.489 201.539 135.421 201.368 135.419H197.245C197.161 135.418 197.078 135.434 197.002 135.466C196.925 135.498 196.855 135.546 196.798 135.606C196.74 135.667 196.695 135.738 196.666 135.817C196.638 135.895 196.625 135.979 196.63 136.062L196.746 139.526C196.755 139.696 196.828 139.857 196.95 139.976C197.072 140.095 197.235 140.164 197.405 140.168H201.528C201.611 140.168 201.693 140.152 201.77 140.119C201.846 140.086 201.915 140.039 201.972 139.979C202.03 139.918 202.074 139.847 202.104 139.769C202.133 139.692 202.146 139.609 202.143 139.526L202.027 136.062Z" style="fill:var(--sapContent_Illustrative_Color6)"/>
<path d="M139.199 149.354C139.282 149.353 139.363 149.335 139.439 149.302C139.515 149.269 139.583 149.221 139.64 149.162C139.698 149.102 139.742 149.031 139.772 148.954C139.802 148.876 139.816 148.794 139.813 148.711L139.689 145.248C139.682 145.076 139.61 144.914 139.487 144.795C139.365 144.675 139.201 144.607 139.03 144.605H134.906C134.824 144.606 134.742 144.624 134.667 144.657C134.591 144.69 134.522 144.738 134.465 144.797C134.408 144.857 134.363 144.928 134.333 145.005C134.304 145.082 134.29 145.165 134.292 145.248L134.408 148.711C134.417 148.883 134.491 149.046 134.615 149.165C134.739 149.284 134.904 149.352 135.076 149.354H139.199Z" style="fill:var(--sapContent_Illustrative_Color6)"/>
<path d="M149.725 149.372C149.808 149.372 149.89 149.355 149.967 149.322C150.043 149.29 150.112 149.242 150.169 149.182C150.227 149.122 150.272 149.051 150.301 148.973C150.33 148.895 150.343 148.812 150.34 148.729L150.224 145.266C150.217 145.094 150.145 144.932 150.022 144.812C149.9 144.693 149.736 144.625 149.565 144.623H145.442C145.359 144.623 145.277 144.639 145.2 144.672C145.124 144.705 145.055 144.753 144.997 144.813C144.94 144.873 144.895 144.944 144.866 145.022C144.837 145.099 144.824 145.182 144.827 145.266L144.943 148.729C144.952 148.9 145.025 149.061 145.147 149.18C145.269 149.299 145.432 149.368 145.602 149.372H149.725Z" style="fill:var(--sapContent_Illustrative_Color6)"/>
<path d="M160.394 149.416C160.477 149.415 160.558 149.398 160.634 149.365C160.71 149.332 160.778 149.284 160.835 149.224C160.893 149.164 160.937 149.094 160.967 149.016C160.997 148.939 161.011 148.857 161.009 148.774L160.884 145.31C160.877 145.139 160.805 144.977 160.682 144.857C160.56 144.737 160.396 144.67 160.225 144.667H156.102C156.019 144.667 155.936 144.684 155.86 144.717C155.784 144.749 155.715 144.797 155.657 144.857C155.6 144.917 155.555 144.988 155.526 145.066C155.497 145.144 155.483 145.227 155.487 145.31L155.612 148.774C155.619 148.945 155.691 149.107 155.813 149.227C155.936 149.346 156.1 149.414 156.271 149.416H160.394Z" style="fill:var(--sapContent_Illustrative_Color6)"/>
<path d="M170.92 149.434C171.003 149.434 171.086 149.418 171.163 149.385C171.24 149.353 171.309 149.305 171.367 149.245C171.425 149.185 171.471 149.114 171.501 149.036C171.531 148.958 171.546 148.875 171.543 148.792L171.419 145.328C171.412 145.157 171.34 144.995 171.217 144.875C171.095 144.755 170.931 144.688 170.76 144.685H166.636C166.553 144.684 166.47 144.7 166.393 144.732C166.316 144.764 166.247 144.812 166.189 144.872C166.132 144.933 166.087 145.004 166.058 145.083C166.029 145.161 166.017 145.245 166.022 145.328L166.138 148.792C166.147 148.962 166.219 149.123 166.342 149.242C166.464 149.362 166.626 149.43 166.797 149.434H170.92Z" style="fill:var(--sapContent_Illustrative_Color6)"/>
<path d="M181.687 149.541C181.769 149.541 181.85 149.525 181.926 149.493C182.002 149.461 182.07 149.414 182.128 149.355C182.185 149.296 182.23 149.226 182.26 149.149C182.29 149.072 182.304 148.99 182.301 148.908L182.177 145.444C182.172 145.272 182.101 145.108 181.977 144.988C181.854 144.868 181.689 144.801 181.518 144.801H177.394C177.311 144.801 177.229 144.818 177.153 144.851C177.077 144.883 177.008 144.931 176.95 144.991C176.893 145.051 176.848 145.122 176.819 145.2C176.79 145.278 176.776 145.361 176.78 145.444L176.905 148.908C176.911 149.078 176.984 149.239 177.107 149.357C177.23 149.476 177.393 149.541 177.564 149.541H181.687Z" style="fill:var(--sapContent_Illustrative_Color6)"/>
<path d="M187.921 144.819C187.838 144.819 187.756 144.836 187.679 144.869C187.603 144.901 187.534 144.949 187.477 145.009C187.419 145.069 187.374 145.14 187.345 145.218C187.316 145.296 187.303 145.379 187.306 145.462L187.422 148.926C187.433 149.096 187.508 149.256 187.632 149.374C187.756 149.491 187.919 149.558 188.09 149.559H192.204C192.287 149.561 192.37 149.545 192.446 149.513C192.523 149.482 192.593 149.435 192.651 149.376C192.709 149.317 192.755 149.246 192.785 149.169C192.816 149.092 192.83 149.009 192.828 148.926L192.703 145.462C192.696 145.291 192.624 145.129 192.501 145.009C192.379 144.889 192.215 144.821 192.044 144.819H187.921Z" style="fill:var(--sapContent_Illustrative_Color6)"/>
<path d="M202.446 145.444C202.439 145.273 202.367 145.11 202.244 144.991C202.121 144.871 201.958 144.803 201.786 144.801H197.663C197.58 144.801 197.498 144.818 197.422 144.851C197.345 144.883 197.276 144.931 197.219 144.991C197.162 145.051 197.117 145.122 197.088 145.2C197.058 145.278 197.045 145.361 197.049 145.444L197.165 148.908C197.176 149.078 197.251 149.238 197.375 149.356C197.498 149.473 197.662 149.539 197.832 149.541H201.956C202.038 149.541 202.119 149.525 202.195 149.493C202.271 149.461 202.339 149.414 202.397 149.355C202.454 149.296 202.499 149.226 202.529 149.149C202.558 149.072 202.573 148.99 202.57 148.908L202.446 145.444Z" style="fill:var(--sapContent_Illustrative_Color6)"/>
<path d="M140.125 154.291C140.118 154.119 140.046 153.957 139.924 153.838C139.801 153.718 139.637 153.65 139.466 153.648H135.379C135.296 153.648 135.213 153.665 135.137 153.697C135.061 153.73 134.992 153.778 134.934 153.838C134.877 153.898 134.832 153.969 134.803 154.047C134.774 154.125 134.761 154.208 134.764 154.291L134.88 157.754C134.889 157.926 134.963 158.089 135.087 158.208C135.211 158.327 135.376 158.395 135.548 158.397H139.671C139.754 158.396 139.835 158.378 139.911 158.345C139.987 158.312 140.055 158.264 140.112 158.204C140.17 158.145 140.214 158.074 140.244 157.997C140.274 157.919 140.288 157.837 140.285 157.754L140.125 154.291Z" style="fill:var(--sapContent_Illustrative_Color6)"/>
<path d="M150.66 154.308C150.651 154.138 150.578 153.977 150.456 153.858C150.334 153.739 150.172 153.67 150.001 153.666H145.878C145.795 153.666 145.713 153.682 145.636 153.715C145.56 153.748 145.491 153.795 145.434 153.856C145.376 153.916 145.332 153.987 145.302 154.065C145.273 154.142 145.26 154.225 145.263 154.308L145.379 157.772C145.388 157.943 145.461 158.104 145.583 158.223C145.705 158.342 145.868 158.41 146.038 158.415H150.161C150.244 158.415 150.327 158.398 150.403 158.365C150.479 158.333 150.548 158.285 150.606 158.225C150.663 158.165 150.708 158.094 150.737 158.016C150.766 157.938 150.78 157.855 150.776 157.772L150.66 154.308Z" style="fill:var(--sapContent_Illustrative_Color6)"/>
<path d="M161.32 154.353C161.313 154.182 161.241 154.02 161.118 153.9C160.996 153.78 160.832 153.713 160.661 153.71H156.538C156.455 153.71 156.373 153.727 156.296 153.76C156.22 153.792 156.151 153.84 156.094 153.9C156.036 153.96 155.991 154.031 155.962 154.109C155.933 154.187 155.92 154.27 155.923 154.353L156.048 157.817C156.055 157.987 156.127 158.148 156.25 158.267C156.373 158.385 156.537 158.451 156.707 158.451H160.83C160.912 158.451 160.994 158.434 161.07 158.402C161.145 158.37 161.214 158.323 161.271 158.264C161.328 158.205 161.373 158.135 161.403 158.058C161.433 157.981 161.447 157.899 161.445 157.817L161.32 154.353Z" style="fill:var(--sapContent_Illustrative_Color6)"/>
<path d="M171.891 154.371C171.884 154.2 171.812 154.038 171.689 153.918C171.567 153.798 171.403 153.731 171.232 153.728H167.109C167.025 153.727 166.943 153.743 166.866 153.775C166.789 153.807 166.719 153.855 166.661 153.915C166.604 153.976 166.559 154.047 166.53 154.126C166.502 154.204 166.489 154.288 166.494 154.371L166.61 157.835C166.619 158.004 166.692 158.164 166.814 158.282C166.937 158.4 167.099 158.466 167.269 158.468H171.392C171.475 158.47 171.557 158.454 171.633 158.422C171.709 158.391 171.778 158.344 171.836 158.284C171.894 158.225 171.938 158.155 171.968 158.077C171.997 158 172.01 157.917 172.007 157.835L171.891 154.371Z" style="fill:var(--sapContent_Illustrative_Color6)"/>
<path d="M182.577 154.478C182.571 154.307 182.498 154.146 182.375 154.028C182.252 153.91 182.089 153.844 181.918 153.844H177.795C177.713 153.844 177.632 153.86 177.556 153.893C177.48 153.925 177.412 153.972 177.354 154.031C177.297 154.09 177.252 154.16 177.222 154.237C177.193 154.313 177.178 154.395 177.181 154.478L177.305 157.95C177.312 158.121 177.385 158.282 177.508 158.4C177.631 158.518 177.794 158.584 177.964 158.584H182.088C182.17 158.584 182.251 158.568 182.327 158.536C182.403 158.503 182.471 158.456 182.529 158.397C182.586 158.338 182.631 158.268 182.661 158.191C182.69 158.115 182.704 158.033 182.702 157.95L182.577 154.478Z" style="fill:var(--sapContent_Illustrative_Color6)"/>
<path d="M192.65 158.602C192.733 158.603 192.815 158.588 192.892 158.556C192.968 158.525 193.038 158.478 193.096 158.419C193.155 158.359 193.2 158.289 193.231 158.211C193.261 158.134 193.275 158.051 193.273 157.968L193.148 154.496C193.139 154.326 193.066 154.166 192.944 154.048C192.821 153.931 192.659 153.864 192.489 153.862H188.366C188.283 153.861 188.201 153.876 188.125 153.908C188.049 153.939 187.98 153.986 187.922 154.046C187.865 154.105 187.82 154.176 187.791 154.253C187.761 154.33 187.748 154.413 187.752 154.496L187.867 157.968C187.876 158.138 187.949 158.298 188.072 158.416C188.194 158.533 188.357 158.6 188.526 158.602H192.65Z" style="fill:var(--sapContent_Illustrative_Color6)"/>
<path d="M198.1 153.844C198.017 153.844 197.934 153.861 197.858 153.893C197.782 153.926 197.713 153.974 197.655 154.034C197.598 154.094 197.553 154.165 197.524 154.243C197.495 154.321 197.481 154.404 197.485 154.487L197.601 157.95C197.612 158.121 197.687 158.281 197.811 158.398C197.935 158.516 198.098 158.582 198.269 158.584H202.392C202.474 158.584 202.556 158.568 202.631 158.536C202.707 158.503 202.776 158.456 202.833 158.397C202.89 158.338 202.935 158.268 202.965 158.191C202.995 158.115 203.009 158.033 203.006 157.95L202.882 154.487C202.875 154.315 202.803 154.153 202.68 154.034C202.558 153.914 202.394 153.846 202.223 153.844H198.1Z" style="fill:var(--sapContent_Illustrative_Color6)"/>
<path d="M140.535 163.36C140.528 163.189 140.456 163.026 140.333 162.907C140.211 162.787 140.047 162.719 139.876 162.717H135.753C135.67 162.717 135.587 162.734 135.511 162.767C135.435 162.799 135.366 162.847 135.308 162.907C135.251 162.967 135.206 163.038 135.177 163.116C135.148 163.194 135.134 163.277 135.138 163.36L135.254 166.824C135.265 166.994 135.34 167.154 135.464 167.272C135.588 167.389 135.751 167.455 135.922 167.457H140.045C140.127 167.457 140.209 167.441 140.284 167.409C140.36 167.377 140.429 167.33 140.486 167.271C140.543 167.212 140.588 167.142 140.618 167.065C140.648 166.988 140.662 166.906 140.659 166.824L140.535 163.36Z" style="fill:var(--sapContent_Illustrative_Color6)"/>
<path d="M151.07 163.378C151.063 163.207 150.991 163.044 150.868 162.925C150.746 162.805 150.582 162.737 150.411 162.735H146.288C146.204 162.734 146.122 162.75 146.045 162.782C145.968 162.814 145.898 162.862 145.841 162.922C145.783 162.982 145.738 163.054 145.709 163.133C145.681 163.211 145.668 163.294 145.673 163.378L145.789 166.841C145.798 167.011 145.871 167.171 145.993 167.289C146.116 167.407 146.278 167.473 146.448 167.475H150.571C150.654 167.477 150.736 167.461 150.812 167.429C150.888 167.398 150.957 167.351 151.015 167.291C151.073 167.232 151.117 167.161 151.147 167.084C151.176 167.007 151.189 166.924 151.186 166.841L151.07 163.378Z" style="fill:var(--sapContent_Illustrative_Color6)"/>
<path d="M161.73 163.423C161.723 163.251 161.651 163.089 161.528 162.969C161.405 162.85 161.242 162.782 161.071 162.78H156.947C156.864 162.78 156.782 162.796 156.706 162.829C156.63 162.862 156.561 162.909 156.503 162.97C156.446 163.03 156.401 163.101 156.372 163.179C156.343 163.256 156.329 163.339 156.333 163.423L156.449 166.886C156.46 167.057 156.535 167.217 156.659 167.334C156.783 167.452 156.946 167.518 157.117 167.52H161.204C161.286 167.52 161.368 167.503 161.444 167.471C161.519 167.439 161.588 167.392 161.645 167.333C161.702 167.274 161.747 167.204 161.777 167.127C161.807 167.05 161.821 166.968 161.819 166.886L161.73 163.423Z" style="fill:var(--sapContent_Illustrative_Color6)"/>
<path d="M172.265 163.44C172.258 163.269 172.186 163.107 172.063 162.987C171.941 162.868 171.777 162.8 171.606 162.798H167.483C167.399 162.796 167.317 162.812 167.24 162.844C167.163 162.877 167.093 162.924 167.035 162.985C166.978 163.045 166.933 163.117 166.904 163.195C166.876 163.273 166.863 163.357 166.868 163.44L166.984 166.904C166.993 167.074 167.066 167.234 167.189 167.351C167.311 167.469 167.473 167.536 167.643 167.538H171.766C171.849 167.539 171.931 167.523 172.007 167.492C172.083 167.46 172.152 167.413 172.21 167.354C172.267 167.294 172.312 167.224 172.342 167.147C172.371 167.069 172.384 166.987 172.381 166.904L172.265 163.44Z" style="fill:var(--sapContent_Illustrative_Color6)"/>
<path d="M183.023 163.565C183.016 163.395 182.943 163.234 182.821 163.116C182.698 162.997 182.534 162.932 182.364 162.932H178.24C178.158 162.932 178.077 162.948 178.001 162.98C177.925 163.012 177.857 163.059 177.8 163.118C177.742 163.177 177.697 163.247 177.668 163.324C177.638 163.401 177.624 163.483 177.626 163.565L177.751 167.029C177.755 167.201 177.827 167.365 177.95 167.485C178.073 167.605 178.238 167.672 178.41 167.672H182.577C182.66 167.672 182.743 167.655 182.819 167.622C182.895 167.59 182.964 167.542 183.022 167.482C183.079 167.422 183.124 167.351 183.153 167.273C183.182 167.195 183.195 167.112 183.192 167.029L183.023 163.565Z" style="fill:var(--sapContent_Illustrative_Color6)"/>
<path d="M113.637 101.974C113.571 100.273 114.932 98.8589 116.634 98.8589H217.491C219.125 98.8589 220.459 100.167 220.49 101.801L220.719 113.719H114.087L113.637 101.974Z" style="fill:var(--sapContent_Illustrative_Color3)"/>
<path d="M136.848 107.247H136.75C136.313 107.245 135.894 107.074 135.581 106.77C135.267 106.465 135.083 106.051 135.067 105.614L135.004 103.882C134.686 104.147 134.433 104.482 134.266 104.862C134.1 105.241 134.023 105.655 134.042 106.069C134.065 106.808 134.369 107.511 134.893 108.032C135.416 108.553 136.119 108.854 136.857 108.872C137.214 108.866 137.567 108.789 137.895 108.644C138.222 108.499 138.517 108.289 138.762 108.028C139.007 107.766 139.197 107.458 139.321 107.122C139.445 106.785 139.5 106.427 139.484 106.069C139.467 105.644 139.357 105.229 139.164 104.851C138.97 104.473 138.696 104.143 138.362 103.882L138.424 105.614C138.432 105.826 138.398 106.038 138.322 106.236C138.247 106.435 138.132 106.616 137.984 106.768C137.837 106.921 137.66 107.042 137.465 107.125C137.27 107.207 137.06 107.249 136.848 107.247Z" style="fill:var(--sapContent_Illustrative_Color4)"/>
<path d="M195.936 107.167H195.838C195.404 107.16 194.988 106.989 194.676 106.687C194.363 106.386 194.177 105.976 194.154 105.542L194.101 103.917C193.79 104.181 193.543 104.513 193.379 104.888C193.215 105.262 193.139 105.669 193.157 106.077C193.177 106.817 193.481 107.521 194.005 108.043C194.529 108.565 195.233 108.865 195.971 108.88C196.333 108.881 196.691 108.808 197.023 108.665C197.356 108.523 197.656 108.314 197.906 108.052C198.156 107.79 198.35 107.48 198.476 107.141C198.603 106.801 198.66 106.439 198.643 106.077C198.624 105.649 198.513 105.23 198.316 104.849C198.119 104.468 197.842 104.135 197.503 103.873L197.556 105.542C197.565 105.758 197.529 105.973 197.451 106.174C197.372 106.375 197.253 106.558 197.101 106.71C196.949 106.863 196.767 106.982 196.566 107.061C196.365 107.139 196.151 107.175 195.936 107.167Z" style="fill:var(--sapContent_Illustrative_Color4)"/>
<path d="M135.067 105.613C135.083 106.051 135.267 106.465 135.581 106.769C135.894 107.074 136.313 107.245 136.75 107.247H136.848C137.06 107.248 137.27 107.207 137.465 107.124C137.661 107.042 137.837 106.921 137.985 106.768C138.132 106.615 138.247 106.434 138.322 106.236C138.398 106.037 138.433 105.826 138.424 105.613L138.362 103.882L138.184 98.8291L138.006 93.7052C137.989 93.2678 137.805 92.8536 137.492 92.5491C137.178 92.2447 136.759 92.0736 136.322 92.0716H136.269C136.057 92.0702 135.847 92.1119 135.652 92.1942C135.456 92.2765 135.28 92.3977 135.132 92.5504C134.985 92.7031 134.87 92.8841 134.794 93.0826C134.719 93.2811 134.684 93.4929 134.693 93.7052L134.871 98.8291L135.049 103.882L135.067 105.613Z" style="fill:var(--sapContent_Illustrative_Color6)"/>
<path d="M194.154 105.542C194.173 105.981 194.358 106.396 194.673 106.702C194.988 107.008 195.408 107.18 195.846 107.185H195.944C196.157 107.186 196.367 107.144 196.563 107.061C196.758 106.978 196.935 106.856 197.082 106.702C197.228 106.548 197.342 106.366 197.416 106.167C197.49 105.967 197.523 105.755 197.512 105.542L197.458 103.873L197.28 98.847L197.102 93.6339C197.084 93.1957 196.898 92.7815 196.583 92.4772C196.268 92.173 195.848 92.0022 195.41 92.0003H195.312C195.101 91.9988 194.891 92.0406 194.696 92.123C194.501 92.2054 194.325 92.3267 194.178 92.4795C194.032 92.6324 193.918 92.8135 193.843 93.012C193.769 93.2104 193.735 93.422 193.745 93.6339L193.923 98.847L194.101 103.917L194.154 105.542Z" style="fill:var(--sapContent_Illustrative_Color6)"/>
<path d="M261.275 101.326C260.979 100.972 260.593 100.704 260.158 100.551C259.723 100.397 259.255 100.364 258.802 100.455L247.987 102.325C246.198 102.634 245.491 104.278 245.734 105.68C245.812 106.258 246.075 106.794 246.484 107.209C246.894 107.624 247.426 107.894 248.003 107.98C248.283 108.014 248.566 108.005 248.843 107.953L259.658 106.082C260.134 106.01 260.582 105.81 260.954 105.504C261.326 105.199 261.608 104.798 261.771 104.344C261.952 103.841 262.002 103.299 261.915 102.771C261.828 102.242 261.608 101.745 261.275 101.326Z" style="fill:var(--sapContent_Illustrative_Color5)"/>
<path d="M220.166 58.1267C219.853 58.0203 219.522 57.9802 219.193 58.0091C218.864 58.0379 218.545 58.135 218.256 58.2941C217.967 58.4532 217.714 58.6709 217.513 58.9333C217.313 59.1956 217.17 59.4969 217.092 59.8178L214.112 70.0853C214.006 70.4549 213.975 70.8418 214.02 71.2235C214.065 71.6053 214.186 71.9741 214.376 72.3086C214.565 72.6431 214.819 72.9365 215.124 73.1717C215.428 73.4069 215.776 73.5792 216.147 73.6784C216.299 73.7236 216.454 73.7563 216.612 73.7761C217.192 73.8575 217.782 73.7186 218.265 73.3868C218.748 73.055 219.089 72.5543 219.221 71.9834L222.197 61.7198C222.304 61.3505 222.335 60.9637 222.291 60.582C222.246 60.2003 222.125 59.8313 221.936 59.4967C221.747 59.1622 221.493 58.8687 221.189 58.6334C220.885 58.3982 220.537 58.2259 220.166 58.1267Z" style="fill:var(--sapContent_Illustrative_Color5)"/>
<path d="M246.741 72.0302C246.381 72.0069 246.02 72.0572 245.681 72.178C245.341 72.2989 245.029 72.4878 244.765 72.7332L232.797 83.6218C232.263 84.1131 231.94 84.7918 231.895 85.5161C231.85 86.2403 232.086 86.9539 232.555 87.5077C232.992 88.0196 233.606 88.3486 234.274 88.4294C234.659 88.4754 235.05 88.4378 235.419 88.3192C235.788 88.2006 236.128 88.0037 236.414 87.7421L248.382 76.8535C248.919 76.3599 249.244 75.6771 249.289 74.9488C249.333 74.2205 249.093 73.5033 248.62 72.948C248.385 72.6764 248.097 72.4551 247.774 72.2974C247.451 72.1397 247.1 72.0488 246.741 72.0302Z" style="fill:var(--sapContent_Illustrative_Color5)"/>
</g>
</svg>
