<svg width="128" height="128" viewBox="0 0 128 128" fill="none" xmlns="http://www.w3.org/2000/svg" id="sapIllus-Spot-SuccessHighFive">
<mask id="mask0_9780_15277" style="mask-type:alpha" maskUnits="userSpaceOnUse" x="0" y="0" width="128" height="128">
<circle cx="64" cy="64" r="64" style="fill:var(--sapContent_Illustrative_Color7)"/>
</mask>
<g mask="url(#mask0_9780_15277)">
<path d="M209.547 -36.2002H-81.5467C-83.4441 -36.2019 -85.3232 -35.8297 -87.0767 -35.1048C-88.8302 -34.3799 -90.4236 -33.3166 -91.7659 -31.9755C-93.1082 -30.6345 -94.173 -29.042 -94.8995 -27.2892C-95.6261 -25.5364 -96 -23.6576 -96 -21.7602V149.346C-96 153.18 -94.4772 156.856 -91.7667 159.567C-89.0562 162.277 -85.3799 163.8 -81.5467 163.8H209.547C213.38 163.8 217.056 162.277 219.767 159.567C222.477 156.856 224 153.18 224 149.346V-21.7602C224 -23.6576 223.626 -25.5364 222.9 -27.2892C222.173 -29.042 221.108 -30.6345 219.766 -31.9755C218.424 -33.3166 216.83 -34.3799 215.077 -35.1048C213.323 -35.8297 211.444 -36.2019 209.547 -36.2002Z" style="fill:var(--sapContent_Illustrative_Color7)"/>
<path d="M25.4994 36.7142C25.4994 35.8652 23.0353 35.1857 19.7429 35.0314C19.5546 31.743 18.8299 29.2979 17.9809 29.2998C17.1319 29.3017 16.426 31.7656 16.2453 35.0709C12.9435 35.2968 10.4887 36.0346 10.5 36.8854C10.5113 37.7362 12.9642 38.4158 16.2566 38.5682C16.4543 41.8566 17.1696 44.3017 18.0167 44.2998C18.8638 44.2979 19.5735 41.834 19.7542 38.5287C23.056 38.3028 25.5088 37.565 25.4994 36.7142Z" style="fill:var(--sapContent_Illustrative_Color18)"/>
<path d="M71.4994 115.714C71.4994 114.865 69.0353 114.186 65.7429 114.031C65.5546 110.743 64.8299 108.298 63.9809 108.3C63.1319 108.302 62.426 110.766 62.2453 114.071C58.9435 114.297 56.4887 115.035 56.5 115.885C56.5113 116.736 58.9642 117.416 62.2566 117.568C62.4543 120.857 63.1696 123.302 64.0167 123.3C64.8638 123.298 65.5735 120.834 65.7542 117.529C69.056 117.303 71.5088 116.565 71.4994 115.714Z" style="fill:var(--sapContent_Illustrative_Color18)"/>
<path fill-rule="evenodd" clip-rule="evenodd" d="M72.4487 17.28C72.9594 17.1205 73.5124 17.1709 73.986 17.42C74.4597 17.6691 74.8152 18.0965 74.9743 18.6083L83.1867 45.0168L84.2995 45.1474L86.0895 37.9318C86.4929 36.3071 87.5019 34.8988 88.9092 33.9966C90.3165 33.0944 92.0152 32.7666 93.6562 33.0808C93.7459 33.098 93.8314 33.1326 93.9078 33.1829C93.9841 33.2332 94.0499 33.298 94.1012 33.3737C94.1525 33.4495 94.1885 33.5346 94.207 33.6243C94.2255 33.7139 94.2262 33.8064 94.2091 33.8963L88.9009 61.8234C88.8644 62.1302 88.8006 62.4332 88.7103 62.7287L100.569 76.5204L75.9393 78.7508L71.8441 71.9096C70.9734 71.7661 70.1201 71.5226 69.3011 71.1825C67.901 70.6012 66.629 69.7492 65.5576 68.6751C64.4861 67.601 63.6363 66.3259 63.0567 64.9226C62.4771 63.5193 62.179 62.0153 62.1795 60.4966V57.0099C61.9015 56.7193 61.6846 56.3613 61.557 55.9508L55.3967 36.1413C54.9561 34.7245 55.7442 33.2184 57.1569 32.7771C57.4083 32.6986 57.6624 32.6591 57.913 32.6552L56.5333 28.2186C56.0927 26.8019 56.8808 25.2957 58.2935 24.8545C58.8187 24.6904 59.3563 24.6967 59.8471 24.842C59.8074 23.6634 60.5508 22.5562 61.728 22.1885C63.1407 21.7473 64.6431 22.5381 65.0837 23.9548L65.2274 24.4168C65.5534 23.9796 66.015 23.6377 66.5746 23.4629C67.42 23.1988 68.2975 23.376 68.9603 23.8644C68.7664 23.2175 68.6976 22.5392 68.7579 21.8661C68.8199 21.1725 69.0178 20.498 69.34 19.881C69.6623 19.2641 70.1027 18.7168 70.6361 18.2705C71.1695 17.8242 71.7855 17.4877 72.4487 17.28Z" style="fill:var(--sapContent_Illustrative_Color19)"/>
<path fill-rule="evenodd" clip-rule="evenodd" d="M82.0115 46.4451C82.1515 46.8036 81.975 47.2079 81.6173 47.3482C78.6009 48.5311 77.382 50.5494 77.1594 51.2632C77.0449 51.6306 76.6548 51.8354 76.2882 51.7205C75.9216 51.6057 75.7173 51.2148 75.8318 50.8474C76.1888 49.7025 77.7286 47.3763 81.1105 46.0501C81.4681 45.9098 81.8716 46.0867 82.0115 46.4451Z" style="fill:var(--sapContent_Illustrative_Color14)"/>
<path fill-rule="evenodd" clip-rule="evenodd" d="M76.228 41.0567C75.5199 41.2822 74.5021 41.6638 73.1298 42.2826C72.7796 42.4406 72.3678 42.2841 72.2102 41.9331C72.0526 41.582 72.2088 41.1694 72.559 41.0114C73.9687 40.3757 75.0372 39.9732 75.8069 39.7282C76.5471 39.4926 77.073 39.3818 77.365 39.3818C77.749 39.3818 78.0604 39.6939 78.0604 40.0788C78.0604 40.4638 77.749 40.7758 77.365 40.7758C77.3652 40.7758 77.3651 40.7758 77.3647 40.7758C77.3612 40.776 77.3364 40.7771 77.2837 40.7847C77.2275 40.7928 77.151 40.8065 77.0522 40.8282C76.8548 40.8716 76.5823 40.944 76.228 41.0567Z" style="fill:var(--sapContent_Illustrative_Color14)"/>
<path fill-rule="evenodd" clip-rule="evenodd" d="M69.5478 23.3712C69.9207 23.2787 70.2977 23.5067 70.39 23.8803L74.5627 40.7822C74.655 41.1559 74.4275 41.5338 74.0547 41.6262C73.6818 41.7187 73.3048 41.4907 73.2125 41.117L69.0397 24.2151C68.9475 23.8415 69.175 23.4636 69.5478 23.3712Z" style="fill:var(--sapContent_Illustrative_Color14)"/>
<path fill-rule="evenodd" clip-rule="evenodd" d="M72.1759 71.76C72.3033 71.3969 72.7004 71.2061 73.0627 71.3338C73.9183 71.6355 76.1011 71.975 77.867 70.9834C78.2021 70.7953 78.6259 70.9149 78.8137 71.2508C79.0014 71.5866 78.882 72.0113 78.5469 72.1995C76.2956 73.4637 73.6551 73.0204 72.6011 72.6488C72.2387 72.521 72.0484 72.1231 72.1759 71.76Z" style="fill:var(--sapContent_Illustrative_Color14)"/>
<path fill-rule="evenodd" clip-rule="evenodd" d="M60.2881 10.8254C62.2773 11.0613 63.699 12.8686 63.4635 14.8622L60.8552 36.9484H61.2787L63.4891 18.2317C63.6823 16.5956 65.1624 15.4263 66.7949 15.6199C68.4275 15.8136 69.5942 17.2969 69.401 18.933L67.2734 36.9484H67.4824L68.6538 28.8911C68.8759 27.3636 70.2915 26.3058 71.8156 26.5284C73.3397 26.7509 74.3952 28.1696 74.1732 29.697L71.7456 46.3942V46.8597C71.7673 54.1669 69.2626 61.256 64.6575 66.9214C60.0525 72.5868 53.6314 76.4785 46.4864 77.9348L44.7477 78.2833C44.437 78.3482 44.1156 78.3413 43.808 78.263C43.5004 78.1847 43.2147 78.0371 42.9726 77.8314C42.7305 77.6258 42.5384 77.3674 42.411 77.0762C42.2835 76.7849 42.224 76.4683 42.2371 76.1505L42.7767 61.9784C42.6944 61.8935 42.6163 61.8042 42.5428 61.7107C42.2186 61.2985 41.9927 60.8174 41.8824 60.3043L37.501 33.1846C37.4535 32.8906 37.4673 32.5899 37.5416 32.3015C37.6159 32.0131 37.7491 31.7433 37.9328 31.5091C38.1164 31.2749 38.3466 31.0815 38.6086 30.941C38.8707 30.8005 39.159 30.716 39.4553 30.6929C40.7669 30.5902 42.0677 30.9972 43.088 31.8296C44.1082 32.6621 44.7698 33.856 44.9355 35.164L46.1448 44.7246L46.5695 44.7254C46.4836 44.4235 46.4377 44.1048 46.4377 43.7753V17.1958C46.4377 15.2846 47.9837 13.7352 49.8907 13.7352C51.7977 13.7352 53.3437 15.2846 53.3437 17.1958V36.9484H53.5509L56.2601 14.0077C56.4956 12.0142 58.299 10.5894 60.2881 10.8254Z" style="fill:var(--sapContent_Illustrative_Color3)"/>
<path fill-rule="evenodd" clip-rule="evenodd" d="M68.9577 27.9854C69.3367 28.0614 69.5824 28.4308 69.5066 28.8105L67.4479 39.1268C67.3721 39.5066 67.0035 39.7529 66.6245 39.6769C66.2456 39.601 65.9999 39.2315 66.0757 38.8518L68.1344 28.5355C68.2102 28.1558 68.5788 27.9095 68.9577 27.9854Z" style="fill:var(--sapContent_Illustrative_Color15)"/>
<path fill-rule="evenodd" clip-rule="evenodd" d="M63.008 20.0172C63.3925 20.0557 63.673 20.3994 63.6346 20.7847L61.8699 38.4698C61.8315 38.8551 61.4886 39.1363 61.1041 39.0977C60.7196 39.0592 60.4391 38.7156 60.4775 38.3302L62.2422 20.6452C62.2806 20.2598 62.6235 19.9787 63.008 20.0172Z" style="fill:var(--sapContent_Illustrative_Color15)"/>
<path fill-rule="evenodd" clip-rule="evenodd" d="M56.2407 14.7122C56.6253 14.7492 56.9073 15.0917 56.8704 15.4772L54.8116 36.994C54.7747 37.3795 54.433 37.6621 54.0483 37.6251C53.6637 37.5881 53.3818 37.2457 53.4186 36.8602L55.4774 15.3433C55.5143 14.9578 55.856 14.6753 56.2407 14.7122Z" style="fill:var(--sapContent_Illustrative_Color15)"/>
<path d="M92.0149 65.2042C91.9168 65.0946 91.7895 65.0153 91.6479 64.9757C91.5064 64.9362 91.3565 64.9379 91.2159 64.9807C91.0754 65.0235 90.9499 65.1056 90.8543 65.2175C90.7586 65.3293 90.6969 65.4661 90.6761 65.6119L90.4779 66.9641C89.2887 75.2059 80.1225 79.109 73.6164 74.8714L72.3229 72.7107C72.1364 72.8589 72.0061 73.0666 71.9536 73.2992C71.9011 73.5318 71.9296 73.7755 72.0342 73.9897L109.628 149.254L139.696 118.726L92.0149 65.2042Z" style="fill:var(--sapContent_Illustrative_Color2)"/>
<path d="M13.7057 144.609L-6.21933 123.323C-7.93646 121.49 -8.86984 119.057 -8.8198 116.544C-8.76976 114.031 -7.74028 111.637 -5.95158 109.874L40.5124 64.0651C42.1264 62.4784 44.1697 61.4015 46.3889 60.9678C48.608 60.5342 50.9053 60.7629 52.9959 61.6256C54.3068 62.1674 55.4936 62.9713 56.4841 63.9883C57.4745 65.0052 58.2476 66.2138 58.7563 67.5403C59.2649 68.8668 59.4984 70.2832 59.4425 71.7032C59.3866 73.1231 59.0424 74.5167 58.431 75.7989L26.4536 142.633C25.9044 143.781 25.0843 144.778 24.0642 145.537C23.0442 146.296 21.8549 146.794 20.5994 146.989C19.3438 147.183 18.0599 147.068 16.8587 146.653C15.6575 146.239 14.5753 145.537 13.7057 144.609Z" style="fill:var(--sapContent_Illustrative_Color17)"/>
<path d="M56.6331 83.66C55.4717 72.5082 44.2122 61.6143 33.8428 67.8872L-20 119.886L22.2911 162.799L56.3967 88.4518C56.7898 87.5946 56.9459 86.6474 56.8487 85.7091L56.6331 83.66Z" style="fill:var(--sapContent_Illustrative_Color9)"/>
<path d="M54.7034 88.6137C54.7034 90.0788 53.5183 91.2665 52.0564 91.2665C50.5945 91.2665 49.4094 90.0788 49.4094 88.6137C49.4094 87.1486 50.5945 85.9609 52.0564 85.9609C53.5183 85.9609 54.7034 87.1486 54.7034 88.6137Z" style="fill:var(--sapContent_Illustrative_Color17)"/>
<path d="M50.7329 95.6879C50.7329 97.153 49.5478 98.3407 48.0859 98.3407C46.6241 98.3407 45.439 97.153 45.439 95.6879C45.439 94.2228 46.6241 93.0352 48.0859 93.0352C49.5478 93.0352 50.7329 94.2228 50.7329 95.6879Z" style="fill:var(--sapContent_Illustrative_Color17)"/>
</g>
</svg>
