<svg width="128" height="128" viewBox="0 0 128 128" fill="none" xmlns="http://www.w3.org/2000/svg" id="sapIllus-Spot-EmptyCalendar">
<path d="M0 64C0 80.9739 6.72675 97.2525 18.7004 109.255C30.6741 121.257 46.9139 128 63.8472 128C72.2318 128 80.5342 126.345 88.2805 123.128C96.0268 119.912 103.065 115.198 108.994 109.255C114.923 103.312 119.626 96.2566 122.834 88.4917C126.043 80.7269 127.694 72.4046 127.694 64C127.694 55.5954 126.043 47.2731 122.834 39.5083C119.626 31.7434 114.923 24.6881 108.994 18.7452C103.065 12.8022 96.0268 8.08803 88.2805 4.87173C80.5342 1.65543 72.2318 0 63.8472 0C46.9139 0 30.6741 6.74284 18.7004 18.7452C6.72675 30.7475 0 47.0261 0 64ZM101.641 23.4581H110.443C110.658 23.4577 110.868 23.522 111.046 23.6428C111.224 23.7636 111.361 23.9353 111.44 24.1355C111.521 24.3353 111.541 24.5548 111.496 24.7656C111.451 24.9765 111.344 25.169 111.188 25.3181L104.314 31.9304H109.738C110.023 31.9351 110.294 32.0505 110.495 32.252C110.696 32.4536 110.811 32.7256 110.816 33.0106C110.811 33.2956 110.696 33.5675 110.495 33.769C110.294 33.9706 110.023 34.0859 109.738 34.0906H101.641C101.426 34.0884 101.217 34.0231 101.039 33.9027C100.861 33.7822 100.722 33.612 100.64 33.4133C100.562 33.2131 100.544 32.9943 100.589 32.7841C100.634 32.5739 100.739 32.3814 100.892 32.2307L107.766 25.6183H101.641C101.353 25.6183 101.077 25.5052 100.872 25.3031C100.667 25.1011 100.55 24.8263 100.545 24.5382C100.55 24.2501 100.667 23.9754 100.872 23.7733C101.077 23.5713 101.353 23.4581 101.641 23.4581ZM20.1879 44.9062H22.5402L22.4416 41.9991C22.4376 41.888 22.4561 41.7772 22.4958 41.6734C22.5355 41.5696 22.5957 41.4749 22.6727 41.395C22.7498 41.315 22.8421 41.2514 22.9442 41.208C23.0463 41.1646 23.1561 41.1423 23.2671 41.1424H36.5697L36.4492 37.73C36.4417 37.5878 36.4633 37.4456 36.5128 37.3121C36.5622 37.1786 36.6383 37.0566 36.7365 36.9537C36.8347 36.8508 36.9529 36.7691 37.0837 36.7137C37.2146 36.6583 37.3555 36.6304 37.4975 36.6316H37.5632C37.8558 36.6342 38.136 36.7499 38.3456 36.9545C38.5551 37.1592 38.6779 37.4369 38.6883 37.73L38.8052 41.1424H75.9044L75.784 37.6714C75.777 37.5294 75.799 37.3874 75.8486 37.2541C75.8982 37.1208 75.9743 36.999 76.0724 36.8963C76.1705 36.7935 76.2885 36.7118 76.4192 36.6563C76.5498 36.6007 76.6903 36.5724 76.8322 36.573H76.8979C77.1905 36.5757 77.4708 36.6914 77.6803 36.896C77.8899 37.1006 78.0126 37.3784 78.023 37.6714L78.1435 41.1424H89.2876L93.0205 38.1144H89.6674C89.3838 38.1098 89.1129 37.9949 88.912 37.7942C88.711 37.5934 88.5955 37.3224 88.5899 37.038C88.5946 36.753 88.7096 36.481 88.9107 36.2795C89.1118 36.0779 89.3831 35.9626 89.6674 35.9579H96.063C96.2874 35.9583 96.506 36.0292 96.6882 36.1605C96.8703 36.2918 97.0067 36.4771 97.0785 36.6901C97.1497 36.9004 97.1559 37.1273 97.0959 37.3411C97.0359 37.5548 96.9126 37.7453 96.7425 37.8874L92.7246 41.157H95.5663C95.85 41.1617 96.1209 41.2765 96.3218 41.4772C96.5228 41.678 96.6382 41.9491 96.6438 42.2334C96.6391 42.5184 96.5241 42.7904 96.3231 42.992C96.122 43.1935 95.8506 43.3088 95.5663 43.3135H93.6012L93.8751 51.1231H93.7181L95.2741 95.8682C95.278 95.9795 95.2596 96.0904 95.2199 96.1944C95.1802 96.2984 95.1202 96.3934 95.0432 96.4736C94.9662 96.5539 94.8738 96.6178 94.7717 96.6616C94.6696 96.7054 94.5597 96.7282 94.4486 96.7286H92.0014L92.0964 99.4929C92.1008 99.6046 92.0826 99.7161 92.0429 99.8206C92.0032 99.925 91.9427 100.02 91.8652 100.101C91.7878 100.181 91.6948 100.245 91.592 100.288C91.4892 100.332 91.3788 100.354 91.2672 100.353H22.058C21.8431 100.353 21.6365 100.27 21.4818 100.12C21.3271 99.9707 21.2365 99.7668 21.2289 99.5515L19.3551 45.7812C19.3466 45.667 19.3616 45.5522 19.3995 45.4441C19.4373 45.3359 19.497 45.2368 19.5749 45.1529C19.6527 45.069 19.7471 45.0021 19.8519 44.9565C19.9568 44.9109 20.0699 44.8876 20.1842 44.8879L20.1879 44.9062Z" fill="var(--sapContent_Illustrative_Color7)"/>
<path d="M54.5514 56.2674C54.5518 56.119 54.5231 55.9719 54.4668 55.8347C54.4105 55.6975 54.3277 55.5727 54.2232 55.4676C54.1187 55.3625 53.9945 55.2791 53.8578 55.2222C53.721 55.1653 53.5744 55.1361 53.4263 55.1361H53.3716C53.6761 55.1349 53.9692 55.2521 54.1892 55.4631C54.4093 55.6741 54.5391 55.9624 54.5514 56.2674Z" fill="var(--sapContent_Illustrative_Color7)"/>
<path d="M32.5921 57.3987H32.6322C32.3302 57.3961 32.0408 57.2772 31.8239 57.0666C31.607 56.856 31.4792 56.5699 31.467 56.2674C31.467 56.5668 31.5854 56.854 31.7963 57.0661C32.0071 57.2781 32.2934 57.3977 32.5921 57.3987Z" fill="var(--sapContent_Illustrative_Color7)"/>
<path d="M22.0579 100.32H91.2451C91.3567 100.321 91.4672 100.299 91.57 100.255C91.6728 100.212 91.7657 100.148 91.8432 100.068C91.9207 99.9874 91.9811 99.8921 92.0209 99.7876C92.0606 99.6831 92.0787 99.5717 92.0743 99.46L91.9793 96.6957H25.2466C25.032 96.6958 24.8258 96.6121 24.6718 96.4625C24.5177 96.3128 24.4277 96.1088 24.4211 95.8939L22.8578 51.0902H22.7628L22.5473 44.8879H20.195C20.0836 44.8878 19.9734 44.9103 19.8709 44.9539C19.7683 44.9975 19.6756 45.0613 19.5982 45.1416C19.5208 45.2219 19.4604 45.317 19.4204 45.4213C19.3805 45.5255 19.3619 45.6367 19.3659 45.7483L21.2397 99.5185C21.2472 99.732 21.3363 99.9344 21.4887 100.084C21.641 100.233 21.8448 100.318 22.0579 100.32Z" fill="var(--sapContent_Illustrative_Color20)"/>
<path d="M24.4101 95.8939C24.4196 96.1088 24.5122 96.3116 24.6684 96.4592C24.8245 96.6069 25.0319 96.6877 25.2466 96.6847H94.4265C94.5376 96.6843 94.6475 96.6614 94.7496 96.6176C94.8517 96.5738 94.944 96.5099 95.021 96.4297C95.098 96.3494 95.1582 96.2545 95.1979 96.1505C95.2375 96.0465 95.2559 95.9355 95.252 95.8242L93.696 51.0792H22.8358L24.4101 95.8939ZM31.456 56.2673C31.4516 56.1203 31.4766 55.9739 31.5297 55.8368C31.5828 55.6997 31.6628 55.5747 31.765 55.4692C31.8672 55.3637 31.9895 55.2798 32.1247 55.2226C32.2598 55.1653 32.405 55.1359 32.5517 55.1359H53.4226C53.5706 55.1359 53.7173 55.1652 53.854 55.2221C53.9907 55.279 54.1149 55.3624 54.2194 55.4675C54.3239 55.5726 54.4067 55.6974 54.4631 55.8346C54.5194 55.9718 54.5481 56.1189 54.5476 56.2673C54.552 56.4143 54.5269 56.5606 54.4738 56.6977C54.4207 56.8348 54.3407 56.9599 54.2385 57.0654C54.1363 57.1709 54.014 57.2548 53.8789 57.312C53.7437 57.3692 53.5985 57.3987 53.4518 57.3986H32.581C32.2823 57.3976 31.9961 57.2781 31.7853 57.066C31.5744 56.8539 31.456 56.5667 31.456 56.2673ZM31.9235 60.5401H84.9334C85.148 60.54 85.3542 60.6236 85.5083 60.7733C85.6624 60.923 85.7523 61.1269 85.7589 61.3419L86.7926 90.9656C86.7966 91.0772 86.778 91.1885 86.7381 91.2927C86.6982 91.397 86.6377 91.4921 86.5603 91.5724C86.4829 91.6527 86.3903 91.7165 86.2877 91.7601C86.1852 91.8037 86.0749 91.8262 85.9635 91.8261H32.9644C32.7499 91.8262 32.5437 91.7426 32.3896 91.5929C32.2355 91.4432 32.1457 91.2393 32.139 91.0243L31.1053 61.4004C31.1014 61.2888 31.1199 61.1777 31.1598 61.0734C31.1997 60.9692 31.2602 60.8741 31.3376 60.7937C31.415 60.7134 31.5077 60.6496 31.6102 60.606C31.7128 60.5624 31.8231 60.54 31.9345 60.5401H31.9235Z" fill="var(--sapContent_Illustrative_Color2)"/>
<path d="M22.8469 51.0902H93.8532L93.5793 43.2806H89.6601C89.4365 43.2769 89.2193 43.2049 89.0378 43.074C88.8563 42.9431 88.7192 42.7596 88.6447 42.5483C88.573 42.3372 88.567 42.1093 88.6277 41.8948C88.6884 41.6803 88.8128 41.4894 88.9843 41.3475L89.2802 41.1094H78.1362L78.2531 44.4559C78.4784 44.6299 78.663 44.851 78.7943 45.104C78.9255 45.3569 79.0001 45.6356 79.0127 45.9204C79.0261 46.1596 78.9909 46.399 78.9091 46.6241C78.8274 46.8492 78.7009 47.0554 78.5373 47.23C78.3736 47.4046 78.1764 47.544 77.9574 47.6399C77.7383 47.7358 77.5021 47.7861 77.2631 47.7877C76.7709 47.7775 76.3014 47.578 75.9519 47.2304C75.6024 46.8828 75.3997 46.4138 75.3857 45.9204C75.3749 45.6477 75.4262 45.376 75.5357 45.1261C75.6451 44.8761 75.81 44.6544 76.0176 44.4778L75.8971 41.1058H38.7978L38.9146 44.4668C39.1353 44.643 39.315 44.8653 39.4412 45.1183C39.5674 45.3712 39.637 45.6487 39.6452 45.9314C39.658 46.1702 39.6224 46.4093 39.5405 46.6339C39.4585 46.8586 39.3319 47.0643 39.1683 47.2386C39.0048 47.4128 38.8076 47.552 38.5889 47.6476C38.3701 47.7432 38.1342 47.7934 37.8955 47.795C37.404 47.7858 36.9349 47.5869 36.5859 47.2398C36.2369 46.8927 36.0349 46.424 36.0218 45.9314C36.0084 45.6544 36.0592 45.3781 36.1701 45.124C36.281 44.8699 36.449 44.645 36.661 44.4668L36.5441 41.1021H23.2451C23.1342 41.102 23.0244 41.1244 22.9223 41.1678C22.8202 41.2112 22.7279 41.2747 22.6508 41.3547C22.5738 41.4347 22.5135 41.5294 22.4738 41.6332C22.4341 41.737 22.4157 41.8478 22.4196 41.9589L22.5182 44.8659L22.7337 51.0682L22.8469 51.0902Z" fill="var(--sapContent_Illustrative_Color3)"/>
<path d="M37.9065 46.7296H37.8444C37.5516 46.7279 37.2709 46.6124 37.0611 46.4076C36.8513 46.2028 36.7288 45.9246 36.7194 45.6312L36.6793 44.4778C36.4672 44.656 36.2992 44.881 36.1884 45.135C36.0775 45.3891 36.0267 45.6654 36.0401 45.9424C36.0531 46.435 36.2552 46.9037 36.6042 47.2508C36.9532 47.5979 37.4222 47.7968 37.9138 47.806C38.1525 47.8044 38.3884 47.7543 38.6071 47.6586C38.8259 47.563 39.0229 47.4238 39.1865 47.2496C39.3501 47.0754 39.4766 46.8696 39.5586 46.645C39.6406 46.4203 39.6762 46.1813 39.6634 45.9424C39.6552 45.6597 39.5856 45.3822 39.4595 45.1293C39.3333 44.8764 39.1536 44.654 38.9329 44.4778L38.9731 45.6349C38.9802 45.7783 38.9576 45.9217 38.9068 46.0561C38.8561 46.1904 38.7782 46.3127 38.6781 46.4155C38.578 46.5183 38.4577 46.5992 38.325 46.6533C38.1922 46.7073 38.0497 46.7333 37.9065 46.7296Z" fill="var(--sapContent_Illustrative_Color4)"/>
<path d="M77.2412 46.6709H77.1791C76.8863 46.6692 76.6055 46.5538 76.3958 46.349C76.186 46.1442 76.0636 45.8659 76.0542 45.5725L76.0176 44.4741C75.8099 44.6507 75.6451 44.8724 75.5356 45.1224C75.4261 45.3723 75.3749 45.644 75.3857 45.9168C75.3997 46.4101 75.6024 46.8791 75.9519 47.2267C76.3014 47.5744 76.7708 47.7738 77.2631 47.784C77.5021 47.7824 77.7383 47.7321 77.9573 47.6362C78.1763 47.5404 78.3736 47.4009 78.5372 47.2263C78.7008 47.0517 78.8273 46.8455 78.9091 46.6204C78.9908 46.3953 79.0261 46.156 79.0127 45.9168C79 45.6319 78.9254 45.3533 78.7942 45.1003C78.663 44.8473 78.4783 44.6262 78.253 44.4522L78.2895 45.5506C78.3007 45.6947 78.2817 45.8396 78.2339 45.9759C78.1861 46.1123 78.1105 46.2372 78.0119 46.3426C77.9132 46.448 77.7938 46.5316 77.6611 46.5882C77.5284 46.6447 77.3854 46.6729 77.2412 46.6709Z" fill="var(--sapContent_Illustrative_Color4)"/>
<path d="M36.7194 45.6423C36.7288 45.9357 36.8513 46.2139 37.0611 46.4187C37.2708 46.6235 37.5516 46.739 37.8444 46.7407H37.9064C38.0485 46.7419 38.1893 46.714 38.3202 46.6586C38.4511 46.6032 38.5693 46.5214 38.6675 46.4186C38.7657 46.3157 38.8418 46.1937 38.8912 46.0602C38.9406 45.9267 38.9623 45.7845 38.9548 45.6423L38.9146 44.4853L38.7977 41.1242L38.6808 37.7118C38.6705 37.4187 38.5478 37.141 38.3382 36.9364C38.1287 36.7318 37.8483 36.6161 37.5558 36.6134H37.4901C37.348 36.6122 37.2073 36.6402 37.0764 36.6956C36.9455 36.751 36.8274 36.8327 36.7292 36.9356C36.631 37.0385 36.5547 37.1604 36.5053 37.2939C36.4559 37.4274 36.4343 37.5696 36.4418 37.7118L36.5623 41.1242L36.6792 44.4889L36.7194 45.6423Z" fill="var(--sapContent_Illustrative_Color6)"/>
<path d="M76.0542 45.5836C76.0637 45.877 76.1861 46.1553 76.3959 46.3602C76.6056 46.565 76.8864 46.6803 77.1792 46.682H77.2413C77.3835 46.6838 77.5245 46.6562 77.6556 46.601C77.7868 46.5458 77.9052 46.4641 78.0035 46.3611C78.1018 46.2581 78.1779 46.136 78.2272 46.0022C78.2764 45.8685 78.2976 45.726 78.2896 45.5836L78.2531 44.4852L78.1362 41.1388L78.0156 37.6679C78.0053 37.3748 77.8826 37.0971 77.673 36.8925C77.4635 36.6878 77.1832 36.5721 76.8906 36.5695H76.8249C76.683 36.5688 76.5425 36.5971 76.4118 36.6527C76.2812 36.7083 76.1632 36.7899 76.0651 36.8927C75.967 36.9955 75.8909 37.1173 75.8413 37.2505C75.7917 37.3838 75.7697 37.5258 75.7766 37.6679L75.8971 41.1388L76.0177 44.5109L76.0542 45.5836Z" fill="var(--sapContent_Illustrative_Color6)"/>
<path d="M32.5518 91.6468C32.9781 91.7749 33.4218 91.8354 33.8667 91.8262H85.0614C85.5124 91.835 85.9618 91.7681 86.3909 91.6285C86.621 91.5223 86.7817 90.5557 86.7561 90.0541L85.7882 62.25C85.7811 61.8042 85.7059 61.3623 85.5654 60.9393C85.4594 60.7196 84.5207 60.5402 84.0203 60.5402H32.844C32.3921 60.5321 31.9417 60.5976 31.5108 60.7342C31.2806 60.8404 31.1199 61.807 31.1455 62.3086L32.1135 90.1127C32.1244 90.6143 32.3363 91.5589 32.5518 91.6468ZM72.2262 68.6573C71.9827 68.6548 71.7493 68.5589 71.5741 68.3894C71.3988 68.2199 71.295 67.9895 71.2838 67.7456L71.2399 66.4093C71.235 66.2912 71.2541 66.1733 71.296 66.0628C71.338 65.9523 71.4018 65.8515 71.4838 65.7666C71.5658 65.6817 71.6642 65.6144 71.773 65.5688C71.8818 65.5232 71.9987 65.5002 72.1166 65.5013H73.8917C74.1349 65.5029 74.3683 65.5979 74.5436 65.7669C74.7189 65.9358 74.8229 66.1658 74.8341 66.4093L74.8779 67.7456C74.8828 67.8639 74.8639 67.982 74.822 68.0926C74.7801 68.2033 74.7162 68.3044 74.6343 68.3896C74.5523 68.4748 74.454 68.5424 74.3452 68.5885C74.2364 68.6345 74.1194 68.6579 74.0013 68.6573H72.2262ZM74.173 71.7438C74.4164 71.7455 74.6498 71.8412 74.8247 72.011C74.9995 72.1808 75.1023 72.4117 75.1117 72.6555L75.1592 73.9919C75.1641 74.1101 75.1451 74.2282 75.1032 74.3389C75.0614 74.4496 74.9975 74.5505 74.9155 74.6357C74.8336 74.721 74.7352 74.7887 74.6264 74.8347C74.5176 74.8807 74.4007 74.9041 74.2826 74.9035H72.5037C72.2608 74.9001 72.0285 74.8037 71.854 74.6343C71.6795 74.4649 71.5762 74.2351 71.5651 73.9919L71.5175 72.6555C71.5126 72.5373 71.5317 72.4192 71.5735 72.3085C71.6154 72.1979 71.6793 72.0968 71.7613 72.0116C71.8432 71.9264 71.9416 71.8587 72.0504 71.8127C72.1592 71.7667 72.2761 71.7432 72.3942 71.7438H74.173ZM72.8033 80.9411C72.5604 80.9394 72.3276 80.8443 72.1528 80.6752C71.9781 80.5062 71.8748 80.2763 71.8645 80.0331L71.8171 78.6931C71.8126 78.5751 71.832 78.4574 71.8741 78.3471C71.9163 78.2369 71.9802 78.1363 72.0621 78.0515C72.144 77.9667 72.2422 77.8993 72.3507 77.8535C72.4592 77.8077 72.5759 77.7844 72.6937 77.785H74.4725C74.7148 77.7884 74.9467 77.8842 75.1211 78.0529C75.2954 78.2215 75.3992 78.4505 75.4113 78.6931L75.4587 80.0331C75.4626 80.1509 75.4428 80.2684 75.4006 80.3784C75.3583 80.4884 75.2943 80.5887 75.2125 80.6734C75.1307 80.7582 75.0328 80.8255 74.9244 80.8715C74.8161 80.9175 74.6997 80.9411 74.5821 80.9411H72.8033ZM65.2205 68.6646C64.977 68.6621 64.7437 68.5662 64.5684 68.3966C64.3932 68.2271 64.2894 67.9968 64.2782 67.753L64.2343 66.4166C64.2294 66.2984 64.2484 66.1803 64.2903 66.0696C64.3322 65.9589 64.3961 65.8579 64.478 65.7727C64.56 65.6874 64.6582 65.6198 64.767 65.5738C64.8758 65.5278 64.9928 65.5044 65.1109 65.505H66.8861C67.1296 65.5075 67.3629 65.6033 67.5381 65.7728C67.7134 65.9424 67.8173 66.1728 67.8285 66.4166L67.8723 67.753C67.8772 67.8712 67.8581 67.9893 67.8163 68.1C67.7744 68.2106 67.7106 68.3116 67.6286 68.3968C67.5467 68.4821 67.4483 68.5498 67.3395 68.5958C67.2307 68.6418 67.1138 68.6652 66.9957 68.6646H65.2205ZM67.1673 71.7511C67.4108 71.7528 67.6442 71.8486 67.819 72.0184C67.9939 72.1882 68.0967 72.4189 68.1061 72.6628L68.1535 73.9992C68.1585 74.1175 68.1394 74.2355 68.0975 74.3462C68.0556 74.4569 67.9918 74.5578 67.9099 74.6431C67.8279 74.7283 67.7296 74.796 67.6208 74.842C67.512 74.8881 67.395 74.9115 67.2769 74.9109H65.4981C65.2552 74.9074 65.0228 74.8111 64.8484 74.6416C64.6739 74.4722 64.5705 74.2424 64.5593 73.9992L64.5119 72.6628C64.507 72.5445 64.526 72.4265 64.5679 72.3159C64.6098 72.2052 64.6736 72.1041 64.7555 72.0189C64.8375 71.9337 64.9358 71.8661 65.0446 71.82C65.1534 71.774 65.2704 71.7505 65.3885 71.7511H67.1673ZM64.8041 78.6821C64.7992 78.564 64.8182 78.4461 64.8601 78.3356C64.9021 78.2251 64.9659 78.1243 65.0479 78.0394C65.1299 77.9544 65.2283 77.8872 65.3371 77.8415C65.4459 77.7959 65.5628 77.773 65.6807 77.7741H67.4559C67.6991 77.7757 67.9324 77.8707 68.1077 78.0396C68.283 78.2086 68.387 78.4385 68.3982 78.6821L68.4457 80.0184C68.4502 80.1365 68.4307 80.2543 68.3887 80.3648C68.3466 80.4752 68.2827 80.5761 68.2009 80.6612C68.119 80.7463 68.021 80.814 67.9124 80.8602C67.8038 80.9064 67.6871 80.9302 67.5692 80.9301H65.7903C65.5468 80.9275 65.3135 80.8316 65.1383 80.6621C64.963 80.4926 64.8591 80.2623 64.8479 80.0184L64.8041 78.6821ZM58.0542 68.5878C57.8113 68.5861 57.5784 68.4909 57.4036 68.3218C57.2289 68.1528 57.1257 67.923 57.1154 67.6798L57.068 66.3397C57.0635 66.2218 57.0829 66.1041 57.125 65.9938C57.1672 65.8836 57.231 65.783 57.3129 65.6982C57.3948 65.6134 57.4931 65.546 57.6016 65.5002C57.7101 65.4544 57.8268 65.4311 57.9446 65.4317H59.7233C59.9656 65.4351 60.1975 65.5309 60.3719 65.6995C60.5463 65.8682 60.65 66.0972 60.6621 66.3397L60.7096 67.6798C60.714 67.7977 60.6945 67.9154 60.6524 68.0256C60.6103 68.1358 60.5464 68.2364 60.4645 68.3212C60.3826 68.406 60.2844 68.4734 60.1759 68.5192C60.0673 68.565 59.9507 68.5883 59.8329 68.5878H58.0542ZM60.0009 71.6779C60.2441 71.6795 60.4775 71.7746 60.6528 71.9436C60.8281 72.1125 60.9321 72.3424 60.9433 72.5859L60.9872 73.9223C60.9921 74.0406 60.9731 74.1586 60.9312 74.2693C60.8893 74.3799 60.8254 74.481 60.7435 74.5662C60.6615 74.6514 60.5632 74.7191 60.4544 74.7651C60.3456 74.8111 60.2286 74.8346 60.1105 74.834H58.3354C58.0919 74.8315 57.8585 74.7355 57.6833 74.566C57.508 74.3965 57.4042 74.1662 57.393 73.9223L57.3491 72.5859C57.3442 72.4678 57.3633 72.35 57.4052 72.2395C57.4472 72.129 57.511 72.0282 57.593 71.9433C57.675 71.8584 57.7734 71.791 57.8822 71.7454C57.991 71.6998 58.1079 71.6768 58.2258 71.6779H60.0009ZM57.6377 78.6088C57.6328 78.4905 57.6518 78.3725 57.6937 78.2618C57.7356 78.1512 57.7995 78.0501 57.8814 77.9649C57.9634 77.8797 58.0617 77.812 58.1705 77.766C58.2793 77.72 58.3963 77.6965 58.5144 77.6971H60.3114C60.5546 77.6997 60.7875 77.7957 60.9621 77.9653C61.1368 78.135 61.2399 78.3652 61.2502 78.6088L61.2976 79.9452C61.3026 80.0633 61.2835 80.1812 61.2416 80.2917C61.1997 80.4021 61.1358 80.5029 61.0538 80.5878C60.9718 80.6727 60.8734 80.7401 60.7646 80.7857C60.6558 80.8313 60.5389 80.8543 60.421 80.8532H58.6422C58.3993 80.8515 58.1665 80.7563 57.9917 80.5873C57.817 80.4182 57.7138 80.1884 57.7035 79.9452L57.6377 78.6088ZM51.0412 68.5768C50.7978 68.5751 50.5644 68.4794 50.3895 68.3096C50.2147 68.1398 50.1119 67.9089 50.1025 67.6651L50.0549 66.3288C50.05 66.2105 50.0691 66.0924 50.1109 65.9817C50.1528 65.8711 50.2167 65.77 50.2987 65.6848C50.3806 65.5996 50.479 65.5319 50.5878 65.4859C50.6966 65.4399 50.8135 65.4165 50.9316 65.4171H52.7104C52.9533 65.4206 53.1857 65.5168 53.3602 65.6862C53.5347 65.8557 53.638 66.0855 53.6491 66.3288L53.6966 67.6651C53.7015 67.7834 53.6825 67.9014 53.6406 68.0121C53.5988 68.1228 53.5349 68.2237 53.4529 68.309C53.371 68.3942 53.2726 68.4619 53.1638 68.5079C53.055 68.554 52.9381 68.5774 52.82 68.5768H51.0412ZM52.988 71.6632C53.2315 71.6658 53.4649 71.7617 53.6401 71.9312C53.8153 72.1008 53.9192 72.331 53.9304 72.5749L53.9742 73.9113C53.9791 74.0296 53.9601 74.1477 53.9182 74.2583C53.8764 74.369 53.8125 74.47 53.7305 74.5552C53.6486 74.6404 53.5502 74.7082 53.4414 74.7542C53.3326 74.8002 53.2157 74.8236 53.0976 74.823H51.3224C51.0788 74.8205 50.8456 74.7246 50.6703 74.555C50.4951 74.3855 50.3913 74.1552 50.3801 73.9113L50.3362 72.5749C50.3313 72.4566 50.3503 72.3387 50.3922 72.228C50.4341 72.1173 50.498 72.0163 50.5799 71.931C50.6619 71.8458 50.7602 71.7782 50.869 71.7322C50.9778 71.6861 51.0948 71.6626 51.2129 71.6632H52.988ZM50.6248 78.5942C50.6203 78.4762 50.6397 78.3585 50.6818 78.2483C50.7239 78.138 50.7879 78.0375 50.8698 77.9527C50.9517 77.8678 51.0498 77.8005 51.1584 77.7547C51.2669 77.7089 51.3836 77.6856 51.5013 77.6862H53.2802C53.5228 77.6887 53.7551 77.7842 53.9297 77.953C54.1042 78.1219 54.2078 78.3513 54.2189 78.5942L54.2664 79.9342C54.2708 80.0522 54.2514 80.1698 54.2093 80.28C54.1672 80.3903 54.1032 80.4909 54.0213 80.5757C53.9394 80.6606 53.8413 80.7278 53.7328 80.7736C53.6242 80.8194 53.5076 80.8428 53.3898 80.8422H51.6109C51.3684 80.8397 51.136 80.7441 50.9615 80.5753C50.7869 80.4065 50.6835 80.1771 50.6723 79.9342L50.6248 78.5942ZM43.9405 68.5474C43.6974 68.5449 43.4645 68.4489 43.2898 68.2793C43.1152 68.1097 43.0121 67.8793 43.0019 67.6358L42.9543 66.2994C42.9494 66.1813 42.9684 66.0634 43.0103 65.953C43.0523 65.8425 43.1162 65.7418 43.1982 65.6568C43.2802 65.5719 43.3785 65.5045 43.4873 65.4589C43.5961 65.4133 43.713 65.3903 43.8309 65.3914H45.6098C45.8526 65.3931 46.0855 65.4882 46.2602 65.6573C46.4349 65.8263 46.5382 66.0562 46.5485 66.2994L46.596 67.6358C46.6009 67.754 46.5818 67.8721 46.5399 67.9828C46.4981 68.0935 46.4343 68.1945 46.3523 68.2797C46.2704 68.365 46.172 68.4326 46.0632 68.4786C45.9544 68.5246 45.8375 68.548 45.7194 68.5474H43.9405ZM45.891 71.6377C46.1336 71.6402 46.3659 71.7357 46.5405 71.9045C46.715 72.0733 46.8186 72.3028 46.8298 72.5457L46.8772 73.882C46.8816 74.0002 46.8622 74.118 46.8201 74.2284C46.7781 74.3388 46.7143 74.4397 46.6324 74.5248C46.5506 74.6099 46.4524 74.6776 46.3439 74.7238C46.2353 74.77 46.1186 74.7938 46.0006 74.7937H44.2401C43.9966 74.792 43.7632 74.6963 43.5884 74.5265C43.4135 74.3567 43.3107 74.1259 43.3013 73.882L43.2539 72.5457C43.2489 72.4276 43.2679 72.3097 43.3099 72.1992C43.3518 72.0887 43.4157 71.9879 43.4977 71.903C43.5797 71.818 43.6781 71.7508 43.7869 71.7052C43.8956 71.6595 44.0125 71.6366 44.1305 71.6377H45.891ZM43.5242 78.5649C43.5202 78.447 43.54 78.3296 43.5823 78.2196C43.6246 78.1096 43.6886 78.0092 43.7704 77.9245C43.8522 77.8398 43.9501 77.7724 44.0584 77.7264C44.1667 77.6804 44.2831 77.6568 44.4007 77.6569H46.1796C46.4224 77.6585 46.6553 77.7537 46.83 77.9227C47.0048 78.0917 47.1079 78.3217 47.1182 78.5649L47.1658 79.9049C47.1702 80.0229 47.1508 80.1405 47.1087 80.2507C47.0666 80.361 47.0026 80.4616 46.9207 80.5464C46.8388 80.6313 46.7407 80.6986 46.6322 80.7444C46.5236 80.7902 46.407 80.8135 46.2892 80.8129H44.5103C44.268 80.8095 44.0361 80.7137 43.8618 80.5451C43.6874 80.3764 43.5836 80.1475 43.5716 79.9049L43.5242 78.5649ZM36.9349 68.5182C36.6917 68.5156 36.4588 68.4196 36.2842 68.25C36.1095 68.0803 36.0064 67.8501 35.9961 67.6065L35.9487 66.2701C35.9438 66.1518 35.9628 66.0339 36.0047 65.9232C36.0466 65.8125 36.1104 65.7115 36.1923 65.6263C36.2743 65.541 36.3726 65.4733 36.4814 65.4273C36.5902 65.3812 36.7072 65.3578 36.8253 65.3584H38.6041C38.8473 65.361 39.0802 65.4571 39.2548 65.6267C39.4295 65.7963 39.5325 66.0266 39.5428 66.2701L39.5903 67.6065C39.5953 67.7248 39.5762 67.8428 39.5343 67.9535C39.4924 68.0641 39.4286 68.1652 39.3466 68.2504C39.2647 68.3356 39.1664 68.4033 39.0576 68.4493C38.9488 68.4953 38.8318 68.5188 38.7137 68.5182H36.9349ZM38.8817 71.6047C39.1253 71.6072 39.3585 71.7031 39.5338 71.8727C39.709 72.0422 39.8129 72.2725 39.824 72.5164L39.8716 73.8527C39.876 73.9708 39.8566 74.0887 39.8145 74.1992C39.7724 74.3096 39.7085 74.4104 39.6267 74.4955C39.5449 74.5806 39.4468 74.6484 39.3382 74.6946C39.2297 74.7408 39.1128 74.7645 38.9949 74.7644H37.2161C36.9726 74.7618 36.7393 74.666 36.5641 74.4965C36.3889 74.3269 36.2849 74.0966 36.2737 73.8527L36.23 72.5164C36.225 72.3981 36.2441 72.28 36.286 72.1694C36.3278 72.0587 36.3916 71.9577 36.4736 71.8725C36.5555 71.7873 36.6539 71.7195 36.7627 71.6735C36.8715 71.6275 36.9885 71.6041 37.1065 71.6047H38.8817ZM36.5185 78.5356C36.5136 78.4175 36.5326 78.2997 36.5745 78.1892C36.6164 78.0787 36.6803 77.9779 36.7623 77.8929C36.8443 77.808 36.9427 77.7407 37.0515 77.695C37.1603 77.6494 37.2772 77.6265 37.3951 77.6276H39.1739C39.417 77.6283 39.6504 77.7232 39.8254 77.8924C40.0003 78.0616 40.1032 78.2921 40.1126 78.5356L40.1601 79.872C40.1651 79.9903 40.146 80.1082 40.1041 80.2189C40.0623 80.3296 39.9984 80.4306 39.9164 80.5159C39.8345 80.6011 39.7361 80.6687 39.6273 80.7147C39.5185 80.7608 39.4016 80.7843 39.2835 80.7837H37.5047C37.2618 80.7802 37.0293 80.6839 36.8549 80.5144C36.6804 80.345 36.5771 80.1152 36.566 79.872L36.5185 78.5356ZM37.7786 86.8212C37.5352 86.8195 37.3018 86.7237 37.127 86.5539C36.9521 86.3841 36.8493 86.1534 36.8399 85.9095L36.7925 84.5731C36.7875 84.455 36.8065 84.3372 36.8485 84.2267C36.8904 84.1162 36.9543 84.0154 37.0363 83.9305C37.1183 83.8455 37.2167 83.7782 37.3255 83.7326C37.4342 83.6869 37.5511 83.664 37.6691 83.6651H39.4478C39.6904 83.6676 39.9228 83.7631 40.0974 83.932C40.2719 84.1008 40.3754 84.3302 40.3866 84.5731L40.4341 85.9095C40.439 86.0278 40.42 86.1458 40.3781 86.2564C40.3362 86.3671 40.2723 86.4681 40.1904 86.5534C40.1084 86.6386 40.0101 86.7063 39.9013 86.7524C39.7925 86.7984 39.6755 86.8218 39.5574 86.8212H37.7786ZM44.7916 86.8212C44.549 86.8186 44.3166 86.7231 44.142 86.5543C43.9675 86.3854 43.864 86.1561 43.8529 85.9132L43.8054 84.5731C43.801 84.4551 43.8204 84.3375 43.8625 84.2272C43.9046 84.117 43.9686 84.0165 44.0505 83.9316C44.1324 83.8468 44.2305 83.7794 44.339 83.7336C44.4476 83.6878 44.5642 83.6645 44.682 83.6651H46.4609C46.7034 83.6676 46.9358 83.7631 47.1103 83.932C47.2849 84.1008 47.3883 84.3302 47.3995 84.5731L47.447 85.9132C47.4515 86.0311 47.4321 86.1488 47.39 86.259C47.3478 86.3693 47.2839 86.4698 47.202 86.5546C47.1201 86.6395 47.022 86.7068 46.9134 86.7526C46.8049 86.7984 46.6881 86.8218 46.5704 86.8212H44.7916ZM51.8922 86.8504C51.6493 86.8479 51.4165 86.7526 51.2413 86.5839C51.0662 86.4151 50.962 86.1856 50.9499 85.9424L50.906 84.6024C50.9016 84.4844 50.921 84.3668 50.9631 84.2566C51.0052 84.1463 51.0692 84.0457 51.1511 83.9609C51.233 83.876 51.3311 83.8088 51.4396 83.763C51.5482 83.7172 51.6648 83.6938 51.7826 83.6944H53.5578C53.8007 83.6969 54.0335 83.7923 54.2087 83.961C54.3838 84.1298 54.4881 84.3592 54.5002 84.6024L54.5476 85.9424C54.5516 86.0602 54.5318 86.1777 54.4895 86.2877C54.4472 86.3977 54.3832 86.4981 54.3014 86.5828C54.2196 86.6675 54.1217 86.7349 54.0134 86.7809C53.9051 86.8268 53.7887 86.8505 53.6711 86.8504H51.8922ZM58.9051 86.8504C58.6623 86.8488 58.4295 86.7536 58.2547 86.5846C58.08 86.4155 57.9768 86.1856 57.9665 85.9424L57.919 84.6024C57.9145 84.4844 57.9339 84.3668 57.976 84.2566C58.0182 84.1463 58.0821 84.0457 58.164 83.9609C58.2459 83.876 58.3441 83.8088 58.4527 83.763C58.5612 83.7172 58.6779 83.6938 58.7956 83.6944H60.5744C60.8167 83.6978 61.0486 83.7936 61.223 83.9623C61.3973 84.131 61.5011 84.3598 61.5131 84.6024L61.5606 85.9424C61.5645 86.0602 61.5447 86.1777 61.5024 86.2877C61.4601 86.3977 61.3963 86.4981 61.3145 86.5828C61.2327 86.6675 61.1346 86.7349 61.0263 86.7809C60.918 86.8268 60.8016 86.8505 60.684 86.8504H58.9051ZM66.0716 86.9274C65.828 86.9248 65.5948 86.8289 65.4195 86.6594C65.2443 86.4899 65.1404 86.2596 65.1292 86.0157L65.0817 84.6793C65.0773 84.5611 65.0967 84.4433 65.1388 84.3329C65.1809 84.2225 65.2447 84.1216 65.3265 84.0365C65.4084 83.9514 65.5065 83.8837 65.6151 83.8375C65.7236 83.7913 65.8404 83.7675 65.9583 83.7676H67.7372C67.9807 83.7702 68.214 83.8661 68.3892 84.0356C68.5644 84.2051 68.6683 84.4354 68.6795 84.6793L68.7233 86.0157C68.7283 86.134 68.7092 86.2519 68.6673 86.3626C68.6255 86.4733 68.5616 86.5743 68.4796 86.6596C68.3977 86.7448 68.2994 86.8124 68.1906 86.8585C68.0818 86.9045 67.9648 86.928 67.8467 86.9274H66.0716ZM81.9457 79.9709C81.9501 80.0888 81.9307 80.2065 81.8886 80.3167C81.8465 80.4269 81.7825 80.5275 81.7006 80.6123C81.6187 80.6971 81.5206 80.7645 81.4121 80.8103C81.3035 80.8561 81.1869 80.8794 81.0691 80.8789H79.2902C79.048 80.8754 78.8161 80.7796 78.6417 80.611C78.4673 80.4423 78.3636 80.2134 78.3515 79.9709L78.3041 78.6308C78.2996 78.5128 78.319 78.3952 78.3611 78.2849C78.4033 78.1747 78.4672 78.0741 78.5491 77.9893C78.631 77.9045 78.7291 77.8371 78.8377 77.7913C78.9462 77.7455 79.0629 77.7222 79.1807 77.7227H80.9595C81.2023 77.7244 81.4352 77.8197 81.6099 77.9887C81.7847 78.1577 81.8879 78.3876 81.8982 78.6308L81.9457 79.9709ZM81.6571 73.9479C81.6615 74.066 81.6421 74.1839 81.6 74.2944C81.558 74.4048 81.4942 74.5056 81.4123 74.5907C81.3305 74.6758 81.2323 74.7436 81.1238 74.7898C81.0152 74.836 80.8985 74.8597 80.7805 74.8596H79.0017C78.7582 74.857 78.5249 74.7612 78.3496 74.5917C78.1744 74.4221 78.0706 74.1918 78.0594 73.9479L78.0155 72.6116C78.0106 72.4933 78.0296 72.3752 78.0715 72.2645C78.1134 72.1539 78.1773 72.0529 78.2592 71.9677C78.3412 71.8825 78.4394 71.8147 78.5482 71.7687C78.657 71.7227 78.7741 71.6993 78.8922 71.6999H80.6673C80.9108 71.7024 81.1441 71.7983 81.3193 71.9679C81.4946 72.1374 81.5985 72.3677 81.6097 72.6116L81.6571 73.9479ZM80.4007 65.4903C80.6435 65.492 80.8763 65.5871 81.0511 65.7561C81.2258 65.9252 81.3291 66.1551 81.3394 66.3983L81.3868 67.7346C81.3918 67.8529 81.3727 67.971 81.3308 68.0816C81.2889 68.1923 81.2252 68.2934 81.1432 68.3786C81.0613 68.4638 80.9629 68.5315 80.8541 68.5775C80.7453 68.6235 80.6283 68.6469 80.5102 68.6463H78.7314C78.4882 68.6437 78.2553 68.5478 78.0807 68.3781C77.906 68.2085 77.803 67.9782 77.7927 67.7346L77.7452 66.3983C77.7403 66.2802 77.7593 66.1623 77.8012 66.0518C77.8431 65.9413 77.9071 65.8406 77.9891 65.7557C78.0711 65.6707 78.1694 65.6034 78.2782 65.5578C78.387 65.5122 78.5039 65.4892 78.6218 65.4903H80.4007Z" fill="var(--sapContent_Illustrative_Color8)"/>
<path d="M32.6322 57.3987H53.452C53.5987 57.3988 53.7439 57.3694 53.879 57.3121C54.0141 57.2549 54.1365 57.171 54.2386 57.0655C54.3408 56.96 54.4209 56.8349 54.474 56.6978C54.5271 56.5607 54.5521 56.4144 54.5477 56.2674C54.5355 55.965 54.4078 55.6787 54.1909 55.4681C53.9739 55.2575 53.6846 55.1386 53.3826 55.136H32.5628C32.4161 55.136 32.2709 55.1654 32.1358 55.2227C32.0006 55.2799 31.8783 55.3638 31.7761 55.4693C31.6739 55.5748 31.5939 55.6998 31.5408 55.8369C31.4877 55.974 31.4626 56.1204 31.467 56.2674C31.4792 56.5699 31.607 56.856 31.8239 57.0666C32.0408 57.2773 32.3302 57.3961 32.6322 57.3987Z" fill="var(--sapContent_Illustrative_Color8)"/>
<path d="M36.3359 65.3584C36.2804 65.3584 36.2255 65.3696 36.1745 65.3913C36.1234 65.413 36.0772 65.4448 36.0387 65.4847C36.0002 65.5247 35.9701 65.5721 35.9502 65.624C35.9304 65.6759 35.9211 65.7313 35.9231 65.7869L36.0035 68.0934C36.0099 68.2071 36.0591 68.3142 36.1411 68.393C36.2231 68.4718 36.3318 68.5165 36.4454 68.5182H39.1885C39.2436 68.5182 39.2982 68.5072 39.349 68.4857C39.3998 68.4642 39.4458 68.4328 39.4843 68.3932C39.5228 68.3536 39.5529 68.3066 39.573 68.2551C39.5931 68.2037 39.6028 68.1487 39.6013 68.0934L39.5209 65.7869C39.5154 65.6725 39.4666 65.5646 39.3845 65.485C39.3024 65.4054 39.1932 65.3602 39.079 65.3584H36.3359Z" fill="var(--sapContent_Illustrative_Color6)"/>
<path d="M43.3487 65.373C43.2934 65.3725 43.2386 65.3832 43.1876 65.4045C43.1365 65.4258 43.0903 65.4572 43.0518 65.4969C43.0132 65.5366 42.983 65.5838 42.9631 65.6355C42.9432 65.6872 42.934 65.7423 42.9359 65.7977L43.0163 68.1044C43.0227 68.218 43.072 68.3251 43.154 68.4039C43.236 68.4827 43.3447 68.5275 43.4583 68.5291H46.2014C46.2567 68.5297 46.3114 68.5189 46.3625 68.4976C46.4135 68.4763 46.4597 68.4448 46.4983 68.4051C46.5368 68.3654 46.567 68.3184 46.5869 68.2667C46.6068 68.215 46.6161 68.1597 46.6141 68.1044L46.5338 65.7977C46.5273 65.684 46.4781 65.577 46.3961 65.4982C46.3141 65.4194 46.2054 65.3747 46.0918 65.373H43.3487Z" fill="var(--sapContent_Illustrative_Color6)"/>
<path d="M50.4496 65.3987C50.3943 65.3987 50.3396 65.4099 50.2887 65.4316C50.2378 65.4534 50.1919 65.4852 50.1537 65.5252C50.1155 65.5653 50.0857 65.6127 50.0662 65.6646C50.0468 65.7165 50.038 65.7717 50.0404 65.8271L50.1209 68.1337C50.1265 68.2477 50.1753 68.3553 50.2575 68.4342C50.3397 68.5132 50.449 68.5576 50.5628 68.5584H53.3059C53.361 68.559 53.4157 68.5483 53.4665 68.5269C53.5174 68.5056 53.5633 68.4741 53.6016 68.4343C53.6399 68.3946 53.6697 68.3474 53.6892 68.2957C53.7087 68.244 53.7174 68.1889 53.715 68.1337L53.6346 65.8271C53.63 65.7131 53.582 65.6051 53.5005 65.5255C53.419 65.4458 53.3101 65.4005 53.1963 65.3987H50.4496Z" fill="var(--sapContent_Illustrative_Color6)"/>
<path d="M57.4624 65.4134C57.4071 65.4129 57.3523 65.4236 57.3013 65.4449C57.2502 65.4662 57.204 65.4976 57.1654 65.5373C57.1269 65.577 57.0967 65.6241 57.0768 65.6758C57.0569 65.7275 57.0477 65.7827 57.0497 65.8381L57.13 68.1447C57.1365 68.2584 57.1856 68.3654 57.2676 68.4442C57.3496 68.523 57.4584 68.5678 57.572 68.5694H60.3114C60.3666 68.57 60.4212 68.5593 60.472 68.538C60.5229 68.5166 60.5688 68.4851 60.6071 68.4454C60.6454 68.4056 60.6752 68.3584 60.6947 68.3067C60.7142 68.255 60.723 68.1999 60.7206 68.1447L60.6401 65.8381C60.6354 65.7244 60.5873 65.6169 60.5057 65.5378C60.4241 65.4588 60.3153 65.4143 60.2018 65.4134H57.4624Z" fill="var(--sapContent_Illustrative_Color6)"/>
<path d="M64.6254 65.4866C64.5701 65.4866 64.5154 65.4978 64.4645 65.5195C64.4136 65.5413 64.3676 65.5731 64.3294 65.6131C64.2912 65.6532 64.2614 65.7006 64.242 65.7525C64.2225 65.8044 64.2138 65.8596 64.2162 65.915L64.2966 68.218C64.3012 68.332 64.3493 68.4399 64.4308 68.5196C64.5123 68.5992 64.6211 68.6445 64.735 68.6463H67.4816C67.5369 68.6464 67.5917 68.6352 67.6426 68.6135C67.6934 68.5918 67.7394 68.5599 67.7776 68.5198C67.8158 68.4798 67.8455 68.4324 67.865 68.3806C67.8844 68.3287 67.8932 68.2733 67.8907 68.218L67.8104 65.915C67.8058 65.801 67.7577 65.693 67.6762 65.6134C67.5947 65.5337 67.4859 65.4884 67.3721 65.4866H64.6254Z" fill="var(--sapContent_Illustrative_Color6)"/>
<path d="M71.6346 65.5012C71.5796 65.5011 71.5252 65.5122 71.4746 65.5337C71.424 65.5552 71.3783 65.5868 71.3401 65.6264C71.3019 65.6661 71.2721 65.713 71.2524 65.7644C71.2327 65.8159 71.2235 65.8708 71.2255 65.9259L71.3059 68.2325C71.3106 68.3462 71.3587 68.4537 71.4403 68.5328C71.5219 68.6118 71.6307 68.6564 71.7442 68.6572H74.491C74.5459 68.6572 74.6003 68.6462 74.6509 68.6247C74.7016 68.6031 74.7473 68.5716 74.7855 68.532C74.8237 68.4923 74.8535 68.4454 74.8732 68.394C74.8929 68.3425 74.902 68.2876 74.9 68.2325L74.8197 65.9259C74.815 65.8122 74.7669 65.7047 74.6853 65.6256C74.6037 65.5465 74.4949 65.502 74.3814 65.5012H71.6346Z" fill="var(--sapContent_Illustrative_Color6)"/>
<path d="M80.9743 68.6463C81.0296 68.6468 81.0844 68.6361 81.1355 68.6148C81.1865 68.5935 81.2327 68.5621 81.2713 68.5224C81.3099 68.4827 81.34 68.4356 81.3599 68.3839C81.3798 68.3322 81.389 68.277 81.387 68.2216L81.3067 65.9149C81.3002 65.8013 81.2511 65.6943 81.1691 65.6155C81.0871 65.5367 80.9783 65.4919 80.8648 65.4903H78.1217C78.0664 65.4897 78.0116 65.5004 77.9605 65.5217C77.9095 65.543 77.8633 65.5745 77.8247 65.6142C77.7861 65.6538 77.756 65.701 77.7361 65.7527C77.7162 65.8044 77.7069 65.8596 77.7089 65.9149L77.7893 68.2216C77.7958 68.3353 77.8449 68.4423 77.9269 68.5211C78.0089 68.5999 78.1177 68.6446 78.2313 68.6463H80.9743Z" fill="var(--sapContent_Illustrative_Color6)"/>
<path d="M39.4697 74.7643C39.525 74.7644 39.5797 74.7533 39.6305 74.7315C39.6814 74.7098 39.7274 74.6779 39.7656 74.6379C39.8039 74.5978 39.8336 74.5505 39.853 74.4986C39.8725 74.4467 39.8813 74.3914 39.8788 74.336L39.7984 72.033C39.7938 71.919 39.7457 71.8112 39.6642 71.7315C39.5827 71.6518 39.4739 71.6064 39.3601 71.6047H36.6134C36.5581 71.6046 36.5033 71.6158 36.4524 71.6376C36.4016 71.6593 36.3557 71.6911 36.3174 71.7311C36.2792 71.7712 36.2495 71.8186 36.23 71.8705C36.2106 71.9224 36.2018 71.9776 36.2043 72.033L36.2846 74.336C36.2893 74.45 36.3373 74.5579 36.4188 74.6376C36.5003 74.7173 36.6091 74.7626 36.7229 74.7643H39.4697Z" fill="var(--sapContent_Illustrative_Color6)"/>
<path d="M46.4828 74.7753C46.5379 74.7759 46.5927 74.7652 46.6435 74.7439C46.6944 74.7225 46.7403 74.691 46.7786 74.6513C46.8169 74.6115 46.8467 74.5644 46.8662 74.5127C46.8857 74.461 46.8944 74.4059 46.892 74.3507L46.8116 72.044C46.8069 71.9303 46.7588 71.8228 46.6772 71.7438C46.5956 71.6647 46.4868 71.6202 46.3733 71.6193H43.6266C43.5716 71.6193 43.5171 71.6304 43.4665 71.6519C43.4159 71.6734 43.3702 71.7049 43.332 71.7446C43.2938 71.7842 43.2639 71.8311 43.2443 71.8826C43.2246 71.934 43.2155 71.9889 43.2174 72.044L43.2978 74.3507C43.3034 74.4646 43.3523 74.5722 43.4345 74.6512C43.5167 74.7302 43.6259 74.7745 43.7397 74.7753H46.4828Z" fill="var(--sapContent_Illustrative_Color6)"/>
<path d="M53.5835 74.8046C53.6385 74.8047 53.6929 74.7936 53.7435 74.7721C53.7941 74.7506 53.8399 74.719 53.8781 74.6794C53.9162 74.6397 53.946 74.5928 53.9657 74.5414C53.9854 74.4899 53.9945 74.435 53.9926 74.3799L53.9122 72.0733C53.9076 71.9593 53.8596 71.8514 53.7781 71.7717C53.6966 71.692 53.5877 71.6467 53.4739 71.6449H50.7272C50.6719 71.6449 50.6172 71.656 50.5663 71.6777C50.5154 71.6995 50.4694 71.7314 50.4312 71.7714C50.393 71.8115 50.3633 71.8588 50.3438 71.9107C50.3244 71.9626 50.3156 72.0179 50.318 72.0733L50.3985 74.3799C50.404 74.4933 50.4524 74.6002 50.5338 74.6791C50.6152 74.758 50.7235 74.8029 50.8368 74.8046H53.5835Z" fill="var(--sapContent_Illustrative_Color6)"/>
<path d="M60.5966 74.8156C60.6516 74.8156 60.7059 74.8046 60.7566 74.7831C60.8072 74.7615 60.8529 74.73 60.8911 74.6904C60.9293 74.6507 60.9591 74.6037 60.9788 74.5523C60.9985 74.5008 61.0076 74.446 61.0056 74.3909L60.9253 72.0843C60.9206 71.9706 60.8725 71.8631 60.7909 71.784C60.7093 71.7049 60.6005 71.6603 60.487 71.6595H57.7549C57.6999 71.6595 57.6455 71.6706 57.5949 71.6921C57.5443 71.7136 57.4985 71.7451 57.4603 71.7847C57.4221 71.8244 57.3923 71.8714 57.3726 71.9228C57.353 71.9743 57.3438 72.0292 57.3457 72.0843L57.4262 74.3909C57.4308 74.5046 57.4789 74.612 57.5605 74.6911C57.6421 74.7701 57.751 74.8147 57.8644 74.8156H60.5966Z" fill="var(--sapContent_Illustrative_Color6)"/>
<path d="M67.7629 74.8925C67.818 74.8921 67.8726 74.8806 67.9232 74.8587C67.9738 74.8367 68.0196 74.8048 68.0577 74.7649C68.0958 74.725 68.1255 74.6778 68.1452 74.6262C68.1648 74.5745 68.174 74.5194 68.172 74.4642L68.0917 72.1576C68.0852 72.0439 68.036 71.9368 67.954 71.858C67.872 71.7792 67.7633 71.7345 67.6497 71.7329H64.9066C64.8515 71.7323 64.7968 71.743 64.7459 71.7643C64.6951 71.7857 64.6491 71.8172 64.6108 71.8569C64.5725 71.8967 64.5427 71.9438 64.5233 71.9955C64.5038 72.0472 64.495 72.1024 64.4975 72.1576L64.5778 74.4642C64.5825 74.5782 64.6305 74.6861 64.712 74.7658C64.7935 74.8454 64.9023 74.8908 65.0161 74.8925H67.7629Z" fill="var(--sapContent_Illustrative_Color6)"/>
<path d="M74.7758 74.9034C74.8308 74.9035 74.8851 74.8924 74.9358 74.8709C74.9864 74.8494 75.0321 74.8178 75.0703 74.7782C75.1085 74.7386 75.1383 74.6916 75.158 74.6402C75.1777 74.5887 75.1868 74.5338 75.1848 74.4788L75.1045 72.1721C75.0989 72.0578 75.0501 71.9498 74.968 71.8702C74.8859 71.7907 74.7767 71.7454 74.6625 71.7437H71.9194C71.8641 71.7436 71.8094 71.7548 71.7586 71.7766C71.7077 71.7983 71.6617 71.8302 71.6235 71.8702C71.5852 71.9103 71.5555 71.9576 71.5361 72.0095C71.5166 72.0614 71.5078 72.1167 71.5103 72.1721L71.5906 74.4788C71.5953 74.5924 71.6435 74.6999 71.7251 74.7789C71.8067 74.858 71.9155 74.9026 72.029 74.9034H74.7758Z" fill="var(--sapContent_Illustrative_Color6)"/>
<path d="M78.0705 74.4678C78.0752 74.5815 78.1233 74.6889 78.2049 74.768C78.2865 74.8471 78.3953 74.8917 78.5088 74.8925H81.2555C81.3106 74.8931 81.3653 74.8824 81.4161 74.8611C81.467 74.8397 81.5129 74.8082 81.5512 74.7685C81.5895 74.7287 81.6193 74.6815 81.6388 74.6298C81.6583 74.5781 81.667 74.523 81.6646 74.4678L81.5842 72.1612C81.5796 72.0472 81.5316 71.9393 81.4501 71.8596C81.3686 71.7799 81.2597 71.7346 81.1459 71.7328H78.3992C78.3439 71.7328 78.2892 71.7439 78.2383 71.7657C78.1874 71.7874 78.1414 71.8193 78.1032 71.8593C78.065 71.8994 78.0353 71.9467 78.0158 71.9986C77.9964 72.0505 77.9876 72.1058 77.99 72.1612L78.0705 74.4678Z" fill="var(--sapContent_Illustrative_Color6)"/>
<path d="M40.0907 78.0522C40.0851 77.9382 40.0363 77.8307 39.9541 77.7517C39.8719 77.6727 39.7626 77.6283 39.6488 77.6275H36.9057C36.8505 77.6269 36.7959 77.6377 36.7451 77.659C36.6942 77.6803 36.6483 77.7119 36.61 77.7516C36.5717 77.7914 36.5419 77.8385 36.5224 77.8902C36.5029 77.9419 36.4941 77.997 36.4966 78.0522L36.577 80.3588C36.5817 80.4725 36.6298 80.58 36.7114 80.659C36.793 80.7381 36.9018 80.7827 37.0153 80.7836H39.762C39.817 80.7836 39.8714 80.7725 39.922 80.751C39.9726 80.7295 40.0184 80.698 40.0566 80.6583C40.0947 80.6187 40.1246 80.5717 40.1443 80.5202C40.164 80.4688 40.1731 80.4139 40.1711 80.3588L40.0907 78.0522Z" fill="var(--sapContent_Illustrative_Color6)"/>
<path d="M47.1037 78.0632C47.0981 77.9492 47.0492 77.8418 46.967 77.7628C46.8849 77.6838 46.7756 77.6393 46.6617 77.6385H43.9187C43.8636 77.638 43.8089 77.6487 43.758 77.6701C43.7072 77.6914 43.6612 77.7228 43.6229 77.7626C43.5846 77.8023 43.5548 77.8495 43.5353 77.9012C43.5158 77.9529 43.5071 78.008 43.5096 78.0632L43.5899 80.3699C43.5946 80.4835 43.6427 80.591 43.7243 80.6701C43.8059 80.7492 43.9147 80.7938 44.0282 80.7946H46.775C46.8299 80.7947 46.8843 80.7835 46.9349 80.762C46.9855 80.7405 47.0313 80.709 47.0695 80.6694C47.1077 80.6297 47.1376 80.5827 47.1572 80.5313C47.1769 80.4798 47.1861 80.4249 47.1841 80.3699L47.1037 78.0632Z" fill="var(--sapContent_Illustrative_Color6)"/>
<path d="M54.2044 78.0925C54.198 77.9789 54.1487 77.8718 54.0667 77.793C53.9847 77.7142 53.8761 77.6695 53.7625 77.6679H51.0194C50.9641 77.6673 50.9093 77.678 50.8582 77.6993C50.8072 77.7206 50.761 77.7521 50.7224 77.7918C50.6838 77.8315 50.6537 77.8786 50.6338 77.9303C50.6139 77.982 50.6046 78.0372 50.6066 78.0925L50.6869 80.3992C50.6934 80.5129 50.7426 80.6199 50.8246 80.6987C50.9066 80.7775 51.0154 80.8222 51.129 80.8239H53.8721C53.9273 80.8244 53.9821 80.8137 54.0331 80.7924C54.0842 80.7711 54.1303 80.7397 54.1689 80.7C54.2075 80.6603 54.2377 80.6131 54.2576 80.5614C54.2775 80.5097 54.2867 80.4546 54.2848 80.3992L54.2044 78.0925Z" fill="var(--sapContent_Illustrative_Color6)"/>
<path d="M61.2172 78.1035C61.2108 77.9898 61.1616 77.8828 61.0796 77.8039C60.9976 77.7251 60.8889 77.6805 60.7753 77.6788H58.0322C57.9769 77.6783 57.9221 77.689 57.8711 77.7103C57.82 77.7316 57.7738 77.763 57.7352 77.8027C57.6967 77.8424 57.6665 77.8895 57.6466 77.9412C57.6267 77.9929 57.6174 78.0481 57.6194 78.1035L57.6998 80.4102C57.7063 80.5238 57.7554 80.6308 57.8374 80.7096C57.9194 80.7884 58.0282 80.8332 58.1418 80.8348H60.8849C60.9402 80.8354 60.995 80.8247 61.046 80.8034C61.0971 80.7821 61.1433 80.7506 61.1818 80.7109C61.2204 80.6713 61.2506 80.6241 61.2705 80.5724C61.2904 80.5207 61.2996 80.4655 61.2976 80.4102L61.2172 78.1035Z" fill="var(--sapContent_Illustrative_Color6)"/>
<path d="M68.3802 78.1803C68.3755 78.0666 68.3273 77.9591 68.2457 77.8801C68.1641 77.801 68.0553 77.7565 67.9418 77.7556H65.1952C65.1402 77.7556 65.0857 77.7667 65.0351 77.7882C64.9845 77.8097 64.9387 77.8412 64.9005 77.8809C64.8623 77.9205 64.8325 77.9674 64.8129 78.0189C64.7932 78.0703 64.7841 78.1252 64.786 78.1803L64.8664 80.487C64.8711 80.6006 64.9192 80.7082 65.0008 80.7872C65.0824 80.8663 65.1912 80.9108 65.3047 80.9116H68.0514C68.1064 80.9117 68.1608 80.9006 68.2114 80.8791C68.262 80.8576 68.3078 80.8261 68.346 80.7864C68.3841 80.7468 68.414 80.6999 68.4337 80.6484C68.4534 80.5969 68.4625 80.542 68.4605 80.487L68.3802 78.1803Z" fill="var(--sapContent_Illustrative_Color6)"/>
<path d="M72.208 77.7667C72.153 77.7667 72.0985 77.7777 72.0479 77.7992C71.9973 77.8207 71.9516 77.8523 71.9134 77.8919C71.8752 77.9316 71.8454 77.9785 71.8257 78.0299C71.806 78.0814 71.7969 78.1363 71.7988 78.1914L71.8792 80.498C71.8847 80.6114 71.9331 80.7184 72.0146 80.7973C72.096 80.8762 72.2044 80.921 72.3176 80.9227H75.0642C75.1194 80.9232 75.1741 80.9126 75.2249 80.8912C75.2758 80.8699 75.3217 80.8384 75.36 80.7986C75.3983 80.7589 75.4281 80.7117 75.4476 80.66C75.4671 80.6083 75.4759 80.5532 75.4734 80.498L75.393 78.1914C75.3883 78.0777 75.3402 77.9702 75.2586 77.8911C75.177 77.8121 75.0682 77.7675 74.9547 77.7667H72.208Z" fill="var(--sapContent_Illustrative_Color6)"/>
<path d="M78.3626 80.487C78.3673 80.6007 78.4155 80.7082 78.4971 80.7873C78.5787 80.8663 78.6875 80.9108 78.801 80.9117H81.5477C81.6026 80.9117 81.6571 80.9007 81.7077 80.8791C81.7583 80.8576 81.8041 80.8261 81.8423 80.7864C81.8805 80.7468 81.9103 80.6999 81.9299 80.6484C81.9496 80.597 81.9588 80.5421 81.9568 80.487L81.8764 78.1803C81.8708 78.0663 81.8219 77.9589 81.7397 77.8799C81.6575 77.8009 81.5483 77.7564 81.4345 77.7557H78.6914C78.6363 77.7551 78.5816 77.7658 78.5307 77.7871C78.4799 77.8085 78.4339 77.84 78.3956 77.8797C78.3573 77.9195 78.3275 77.9667 78.308 78.0184C78.2886 78.0701 78.2798 78.1251 78.2823 78.1803L78.3626 80.487Z" fill="var(--sapContent_Illustrative_Color6)"/>
<path d="M40.361 84.0898C40.3563 83.9761 40.3082 83.8686 40.2266 83.7895C40.145 83.7105 40.0362 83.6659 39.9227 83.665H37.1796C37.1243 83.6645 37.0695 83.6752 37.0184 83.6965C36.9674 83.7178 36.9212 83.7492 36.8826 83.7889C36.844 83.8286 36.8139 83.8758 36.794 83.9275C36.7741 83.9792 36.7649 84.0344 36.7669 84.0898L36.8472 86.3964C36.8537 86.5101 36.9028 86.6171 36.9848 86.6959C37.0668 86.7747 37.1756 86.8195 37.2892 86.8211H40.0323C40.0874 86.8217 40.142 86.8109 40.1929 86.7896C40.2437 86.7683 40.2897 86.7367 40.328 86.697C40.3663 86.6572 40.3961 86.6101 40.4156 86.5584C40.4351 86.5067 40.4439 86.4516 40.4414 86.3964L40.361 84.0898Z" fill="var(--sapContent_Illustrative_Color6)"/>
<path d="M47.3775 84.1007C47.3711 83.987 47.3218 83.88 47.2398 83.8012C47.1578 83.7224 47.0491 83.6776 46.9355 83.676H44.1925C44.1372 83.6754 44.0824 83.6861 44.0313 83.7074C43.9803 83.7287 43.9341 83.7602 43.8955 83.7999C43.8569 83.8396 43.8268 83.8867 43.8069 83.9384C43.787 83.9901 43.7777 84.0453 43.7797 84.1007L43.86 86.4073C43.8665 86.521 43.9157 86.628 43.9977 86.7068C44.0797 86.7856 44.1884 86.8304 44.302 86.8321H47.0451C47.1004 86.8326 47.1552 86.8219 47.2062 86.8006C47.2572 86.7793 47.3034 86.7478 47.342 86.7081C47.3806 86.6684 47.4108 86.6213 47.4307 86.5696C47.4506 86.5179 47.4598 86.4627 47.4579 86.4073L47.3775 84.1007Z" fill="var(--sapContent_Illustrative_Color6)"/>
<path d="M54.4674 84.13C54.4627 84.0163 54.4146 83.9088 54.333 83.8297C54.2514 83.7507 54.1426 83.7061 54.0291 83.7053H51.2823C51.2273 83.7053 51.1729 83.7163 51.1223 83.7378C51.0717 83.7594 51.026 83.7909 50.9878 83.8305C50.9496 83.8702 50.9197 83.9171 50.9 83.9685C50.8803 84.02 50.8712 84.0749 50.8732 84.13L50.9535 86.4366C50.9582 86.5503 51.0064 86.6578 51.088 86.7369C51.1696 86.816 51.2784 86.8605 51.3919 86.8613H54.1387C54.1936 86.8614 54.248 86.8503 54.2986 86.8288C54.3493 86.8073 54.395 86.7757 54.4332 86.7361C54.4714 86.6964 54.5012 86.6495 54.5209 86.5981C54.5405 86.5466 54.5497 86.4917 54.5477 86.4366L54.4674 84.13Z" fill="var(--sapContent_Illustrative_Color6)"/>
<path d="M61.4876 84.141C61.4829 84.0274 61.4348 83.9199 61.3532 83.8408C61.2716 83.7617 61.1628 83.7172 61.0493 83.7164H58.3026C58.2476 83.7163 58.1932 83.7274 58.1426 83.7489C58.092 83.7704 58.0462 83.802 58.008 83.8416C57.9699 83.8812 57.9401 83.9282 57.9204 83.9796C57.9007 84.0311 57.8915 84.086 57.8934 84.141L57.9739 86.4477C57.9795 86.5617 58.0283 86.6691 58.1105 86.7481C58.1927 86.8271 58.302 86.8716 58.4158 86.8724H61.1589C61.2141 86.8729 61.2687 86.8622 61.3195 86.8409C61.3704 86.8196 61.4163 86.788 61.4546 86.7483C61.4929 86.7085 61.5227 86.6613 61.5422 86.6096C61.5617 86.558 61.5705 86.5029 61.568 86.4477L61.4876 84.141Z" fill="var(--sapContent_Illustrative_Color6)"/>
<path d="M68.6542 84.2362C68.6495 84.1222 68.6014 84.0143 68.5199 83.9346C68.4384 83.855 68.3296 83.8097 68.2158 83.8079H65.4691C65.4138 83.8078 65.359 83.8189 65.3081 83.8407C65.2573 83.8624 65.2114 83.8943 65.1731 83.9344C65.1349 83.9744 65.1052 84.0217 65.0857 84.0736C65.0663 84.1255 65.0575 84.1809 65.06 84.2362L65.1403 86.5429C65.145 86.6565 65.1931 86.7641 65.2747 86.8431C65.3563 86.9222 65.4651 86.9667 65.5786 86.9676H68.3254C68.3803 86.9676 68.4347 86.9565 68.4853 86.935C68.536 86.9135 68.5817 86.882 68.6199 86.8423C68.6581 86.8027 68.688 86.7558 68.7077 86.7043C68.7273 86.6529 68.7365 86.5979 68.7345 86.5429L68.6542 84.2362Z" fill="var(--sapContent_Illustrative_Color6)"/>
<path d="M88.6447 42.563C88.7192 42.7743 88.8563 42.9578 89.0379 43.0887C89.2194 43.2196 89.4365 43.2916 89.6601 43.2953H95.5444C95.8287 43.2906 96.1001 43.1753 96.3011 42.9737C96.5022 42.7722 96.6172 42.5002 96.6219 42.2152C96.6162 41.9308 96.5008 41.6598 96.2999 41.4591C96.0989 41.2583 95.8281 41.1435 95.5444 41.1388H92.7027L96.7205 37.8692C96.8907 37.7271 97.0139 37.5366 97.0739 37.3228C97.1339 37.1091 97.1279 36.8822 97.0566 36.672C96.9849 36.4589 96.8483 36.2736 96.6662 36.1423C96.4841 36.0109 96.2655 35.9402 96.0412 35.9397H89.6455C89.3612 35.9444 89.0898 36.0597 88.8888 36.2612C88.6877 36.4628 88.5727 36.7348 88.568 37.0198C88.5736 37.3041 88.689 37.5752 88.89 37.7759C89.091 37.9767 89.3618 38.0915 89.6455 38.0962H92.9985L89.2656 41.1241L88.9697 41.3621C88.8007 41.5058 88.6792 41.6976 88.6211 41.912C88.5631 42.1264 88.5714 42.3534 88.6447 42.563Z" fill="var(--sapContent_Illustrative_Color5)"/>
<path d="M101.64 25.6001H107.766L100.892 32.2124C100.739 32.3631 100.634 32.5555 100.589 32.7658C100.544 32.976 100.562 33.1947 100.64 33.395C100.722 33.5937 100.861 33.7639 101.039 33.8844C101.217 34.0048 101.426 34.0701 101.64 34.0723H109.738C110.023 34.0676 110.294 33.9524 110.495 33.7508C110.696 33.5493 110.811 33.2773 110.816 32.9923C110.811 32.7073 110.696 32.4353 110.495 32.2337C110.294 32.0322 110.023 31.9169 109.738 31.9122H104.314L111.188 25.2998C111.344 25.1507 111.451 24.9582 111.496 24.7473C111.541 24.5365 111.521 24.317 111.44 24.1172C111.361 23.917 111.224 23.7453 111.046 23.6245C110.868 23.5037 110.658 23.4394 110.443 23.4398H101.64C101.35 23.4398 101.071 23.5556 100.866 23.7615C100.66 23.9675 100.545 24.2469 100.545 24.5382C100.554 24.8232 100.674 25.0933 100.878 25.2914C101.083 25.4896 101.356 25.6002 101.64 25.6001Z" fill="var(--sapContent_Illustrative_Color5)"/>
</svg>
