<svg width="160" height="160" viewBox="0 0 160 160" fill="none" xmlns="http://www.w3.org/2000/svg" id="sapIllus-Dialog-NoColumnsSet">
<mask id="mask0_20263_10638" style="mask-type:alpha" maskUnits="userSpaceOnUse" x="0" y="12" width="145" height="145">
<circle cx="72.4424" cy="84.4609" r="72.4424" style="fill:var(--sapContent_Illustrative_Color7)"/>
</mask>
<g mask="url(#mask0_20263_10638)">
<path d="M177.674 7.39502H-46.661C-48.1233 7.39367 -49.5715 7.68053 -50.9228 8.23918C-52.2742 8.79783 -53.5022 9.61732 -54.5366 10.6508C-55.5711 11.6843 -56.3917 12.9116 -56.9516 14.2624C-57.5115 15.6132 -57.7997 17.0611 -57.7997 18.5234V150.389C-57.7997 153.343 -56.6262 156.176 -54.5373 158.265C-52.4483 160.354 -49.6152 161.528 -46.661 161.528H177.674C180.628 161.528 183.461 160.354 185.55 158.265C187.639 156.176 188.813 153.343 188.813 150.389V18.5234C188.813 17.0611 188.524 15.6132 187.965 14.2624C187.405 12.9116 186.584 11.6843 185.55 10.6508C184.515 9.61732 183.287 8.79783 181.936 8.23918C180.584 7.68053 179.136 7.39367 177.674 7.39502Z" style="fill:var(--sapContent_Illustrative_Color7)"/>
<path d="M179.269 81.2066L135.263 66.0978C133.397 65.4573 131.366 66.4539 130.727 68.3238L108.793 132.493C108.154 134.363 109.149 136.398 111.014 137.039L155.021 152.148C156.886 152.788 158.917 151.792 159.556 149.922L181.49 85.7523C182.129 83.8824 181.135 81.8472 179.269 81.2066Z" style="fill:var(--sapContent_Illustrative_Color18)"/>
<path d="M152.876 82.3075C151.423 81.7263 149.831 81.5899 148.301 81.9156C146.77 82.2413 145.371 83.0143 144.279 84.1371C143.187 85.2598 142.452 86.6818 142.167 88.2233C141.881 89.7647 142.058 91.3564 142.675 92.7971C143.292 94.2378 144.321 95.4628 145.633 96.3172C146.945 97.1716 148.48 97.6171 150.044 97.5973C151.608 97.5774 153.131 97.0932 154.421 96.2058C155.71 95.3185 156.709 94.0679 157.289 92.612L149.938 89.6745L152.876 82.3075Z" style="fill:var(--sapContent_Illustrative_Color7)"/>
<path d="M161.322 107.548L130.657 97.0192C129.639 96.6699 128.532 97.2133 128.183 98.2329C127.835 99.2525 128.377 100.362 129.394 100.712L160.06 111.24C161.077 111.589 162.185 111.046 162.533 110.026C162.882 109.007 162.339 107.897 161.322 107.548Z" style="fill:var(--sapContent_Illustrative_Color7)"/>
<path d="M158.67 113.792L128.005 103.263C126.988 102.914 125.88 103.457 125.532 104.477C125.183 105.497 125.725 106.606 126.743 106.956L157.408 117.484C158.426 117.833 159.533 117.29 159.881 116.27C160.23 115.251 159.688 114.141 158.67 113.792Z" style="fill:var(--sapContent_Illustrative_Color7)"/>
<path d="M141.828 115.006L125.491 109.397C124.474 109.047 123.367 109.591 123.018 110.61C122.67 111.63 123.212 112.74 124.229 113.089L140.566 118.698C141.583 119.047 142.69 118.504 143.039 117.484C143.387 116.465 142.845 115.355 141.828 115.006Z" style="fill:var(--sapContent_Illustrative_Color7)"/>
<path d="M-29.8993 96.792H59.9931C61.3785 96.792 62.5016 97.9112 62.5016 99.2919V157.309C62.5016 158.69 61.3785 159.809 59.9931 159.809H-29.8993C-31.2847 159.809 -32.4078 158.69 -32.4078 157.309V99.2919C-32.4078 97.9112 -31.2847 96.792 -29.8993 96.792Z" style="fill:var(--sapContent_Illustrative_Color18)"/>
<path d="M-27.8181 100.188H58.0368C59.3226 100.188 60.3649 101.227 60.3649 102.508V154.765C60.3649 156.047 59.3226 157.085 58.0368 157.085H-27.8181C-29.1039 157.085 -30.1462 156.047 -30.1462 154.765V102.508C-30.1462 101.227 -29.1039 100.188 -27.8181 100.188Z" style="fill:var(--sapContent_Illustrative_Color7)"/>
<path d="M14.8735 99.0125C14.5379 99.0125 14.2658 98.7414 14.2658 98.4069C14.2658 98.0724 14.5379 97.8013 14.8735 97.8013C15.2091 97.8013 15.4812 98.0724 15.4812 98.4069C15.4812 98.7414 15.2091 99.0125 14.8735 99.0125Z" style="fill:var(--sapContent_Illustrative_Color19)"/>
</g>
<path d="M107.742 29.6987H32.7799C28.2376 29.6987 24.5554 33.381 24.5554 37.9233V130.636C24.5554 135.178 28.2376 138.861 32.7799 138.861H107.742C112.285 138.861 115.967 135.178 115.967 130.636V37.9233C115.967 33.381 112.285 29.6987 107.742 29.6987Z" style="fill:var(--sapContent_Illustrative_Color8)"/>
<path fill-rule="evenodd" clip-rule="evenodd" d="M32.9824 38.5363C32.9824 38.1624 33.0852 37.8628 33.2107 37.8628H106.838C106.963 37.8628 107.066 38.1482 107.066 38.5363V130.025C107.066 130.399 106.963 130.698 106.838 130.698H33.2107C33.0852 130.698 32.9824 130.413 32.9824 130.025V38.5363Z" style="fill:var(--sapContent_Illustrative_Color8)"/>
<path d="M52.779 40.5571H38.2819C37.3047 40.5571 36.5126 41.3493 36.5126 42.3265C36.5126 43.3036 37.3047 44.0958 38.2819 44.0958H52.779C53.7561 44.0958 54.5483 43.3036 54.5483 42.3265C54.5483 41.3493 53.7561 40.5571 52.779 40.5571Z" style="fill:var(--sapContent_Illustrative_Color14)"/>
<path d="M37.0153 58.8544C37.0153 58.0214 37.6906 57.3462 38.5235 57.3462H53.1588C53.9917 57.3462 54.667 58.0214 54.667 58.8544V119.176C54.667 120.009 53.9917 120.684 53.1588 120.684H38.5235C37.6906 120.684 37.0153 120.009 37.0153 119.176V58.8544Z" style="fill:var(--sapContent_Illustrative_Color7)"/>
<path fill-rule="evenodd" clip-rule="evenodd" d="M38.1919 120.648C38.1522 120.639 38.1131 120.628 38.0747 120.617C37.8496 120.546 37.6471 120.425 37.4809 120.266C37.4648 120.251 37.4491 120.235 37.4338 120.219C37.2747 120.053 37.1533 119.85 37.0832 119.625C37.0713 119.587 37.0608 119.547 37.0519 119.508C37.0279 119.401 37.0153 119.29 37.0153 119.176V115.735C37.8483 115.735 38.5235 116.41 38.5235 117.243L38.5235 119.176H41.338C42.1709 119.176 42.8462 119.851 42.8462 120.684H38.5235C38.4096 120.684 38.2986 120.672 38.1919 120.648ZM54.667 105.681C53.834 105.681 53.1588 106.356 53.1588 107.189V111.056C53.1588 111.889 53.834 112.564 54.667 112.564V105.681ZM54.667 95.6274C53.834 95.6274 53.1588 96.3026 53.1588 97.1355V101.002C53.1588 101.835 53.834 102.511 54.667 102.511V95.6274ZM54.667 85.5737C53.834 85.5737 53.1588 86.249 53.1588 87.0819V90.9487C53.1588 91.7816 53.834 92.4569 54.667 92.4569V85.5737ZM54.667 75.5201C53.834 75.5201 53.1588 76.1953 53.1588 77.0283V80.8951C53.1588 81.728 53.834 82.4032 54.667 82.4032V75.5201ZM54.667 65.4664C53.834 65.4664 53.1588 66.1417 53.1588 66.9746V70.8414C53.1588 71.6744 53.834 72.3496 54.667 72.3496V65.4664ZM37.0153 62.2959C37.8483 62.2959 38.5235 61.6207 38.5235 60.7878V58.8544L41.338 58.8544C42.1709 58.8544 42.8462 58.1791 42.8462 57.3462H38.5235C38.4096 57.3462 38.2986 57.3588 38.1919 57.3828C38.1522 57.3917 38.1131 57.4021 38.0747 57.4141C37.8496 57.4842 37.6471 57.6056 37.4809 57.7646C37.4648 57.78 37.4491 57.7957 37.4337 57.8117C37.2747 57.9779 37.1533 58.1804 37.0832 58.4056C37.0713 58.444 37.0608 58.4831 37.0519 58.5228C37.0279 58.6295 37.0153 58.7405 37.0153 58.8544V62.2959ZM37.0153 65.4664C37.8483 65.4664 38.5235 66.1417 38.5235 66.9746V70.8414C38.5235 71.6744 37.8483 72.3496 37.0153 72.3496V65.4664ZM37.0153 75.5201C37.8483 75.5201 38.5235 76.1953 38.5235 77.0283V80.8951C38.5235 81.728 37.8483 82.4032 37.0153 82.4032V75.5201ZM37.0153 85.5737C37.8483 85.5737 38.5235 86.249 38.5235 87.0819V90.9487C38.5235 91.7816 37.8483 92.4569 37.0153 92.4569V85.5737ZM37.0153 95.6274C37.8483 95.6274 38.5235 96.3026 38.5235 97.1355V101.002C38.5235 101.835 37.8483 102.511 37.0153 102.511V95.6274ZM37.0153 105.681C37.8483 105.681 38.5235 106.356 38.5235 107.189V111.056C38.5235 111.889 37.8483 112.564 37.0153 112.564V105.681ZM48.8361 57.3462C48.8361 58.1791 49.5114 58.8544 50.3443 58.8544H53.1588V60.7878C53.1588 61.6207 53.834 62.2959 54.667 62.2959V58.8544C54.667 58.7405 54.6543 58.6295 54.6304 58.5228C54.6215 58.4831 54.611 58.444 54.599 58.4056C54.529 58.1804 54.4076 57.9779 54.2485 57.8118C54.2332 57.7957 54.2174 57.78 54.2014 57.7646C54.0352 57.6056 53.8327 57.4842 53.6076 57.4141C53.5691 57.4021 53.53 57.3917 53.4903 57.3828C53.3836 57.3588 53.2727 57.3462 53.1588 57.3462H48.8361ZM54.667 115.735C53.834 115.735 53.1588 116.41 53.1588 117.243V119.176H50.3443C49.5114 119.176 48.8361 119.851 48.8361 120.684H53.1588C53.2727 120.684 53.3836 120.672 53.4903 120.648C53.53 120.639 53.5691 120.628 53.6076 120.617C53.8327 120.546 54.0352 120.425 54.2014 120.266C54.2174 120.251 54.2332 120.235 54.2485 120.219C54.4076 120.053 54.529 119.85 54.599 119.625C54.611 119.587 54.6215 119.547 54.6304 119.508C54.6543 119.401 54.667 119.29 54.667 119.176V115.735Z" style="fill:var(--sapContent_Illustrative_Color6)"/>
<path d="M62.9736 58.8544C62.9736 58.0214 63.6488 57.3462 64.4818 57.3462H79.117C79.95 57.3462 80.6252 58.0214 80.6252 58.8544V119.176C80.6252 120.009 79.95 120.684 79.117 120.684H64.4818C63.6488 120.684 62.9736 120.009 62.9736 119.176V58.8544Z" style="fill:var(--sapContent_Illustrative_Color7)"/>
<path fill-rule="evenodd" clip-rule="evenodd" d="M64.1502 120.648C64.1105 120.639 64.0714 120.628 64.0329 120.617C63.8078 120.546 63.6053 120.425 63.4391 120.266C63.4231 120.251 63.4074 120.235 63.392 120.219C63.233 120.053 63.1116 119.85 63.0415 119.625C63.0295 119.587 63.019 119.547 63.0101 119.508C62.9862 119.401 62.9736 119.29 62.9736 119.176V115.735C63.8065 115.735 64.4818 116.41 64.4818 117.243L64.4818 119.176H67.2962C68.1292 119.176 68.8044 119.851 68.8044 120.684H64.4818C64.3678 120.684 64.2569 120.672 64.1502 120.648ZM80.6252 105.681C79.7923 105.681 79.117 106.356 79.117 107.189V111.056C79.117 111.889 79.7923 112.564 80.6252 112.564V105.681ZM80.6252 95.6274C79.7923 95.6274 79.117 96.3026 79.117 97.1355V101.002C79.117 101.835 79.7923 102.511 80.6252 102.511V95.6274ZM80.6252 85.5737C79.7923 85.5737 79.117 86.249 79.117 87.0819V90.9487C79.117 91.7816 79.7923 92.4569 80.6252 92.4569V85.5737ZM80.6252 75.5201C79.7923 75.5201 79.117 76.1953 79.117 77.0283V80.8951C79.117 81.728 79.7923 82.4032 80.6252 82.4032V75.5201ZM80.6252 65.4664C79.7923 65.4664 79.117 66.1417 79.117 66.9746V70.8414C79.117 71.6744 79.7923 72.3496 80.6252 72.3496V65.4664ZM62.9736 62.2959C63.8065 62.2959 64.4818 61.6207 64.4818 60.7878V58.8544L67.2962 58.8544C68.1292 58.8544 68.8044 58.1791 68.8044 57.3462H64.4818C64.3678 57.3462 64.2569 57.3588 64.1502 57.3828C64.1105 57.3917 64.0714 57.4021 64.0329 57.4141C63.8078 57.4842 63.6053 57.6056 63.4391 57.7646C63.4231 57.78 63.4074 57.7957 63.392 57.8117C63.233 57.9779 63.1116 58.1804 63.0415 58.4056C63.0295 58.444 63.019 58.4831 63.0101 58.5228C62.9862 58.6295 62.9736 58.7405 62.9736 58.8544V62.2959ZM62.9736 65.4664C63.8065 65.4664 64.4818 66.1417 64.4818 66.9746V70.8414C64.4818 71.6744 63.8065 72.3496 62.9736 72.3496V65.4664ZM62.9736 75.5201C63.8065 75.5201 64.4818 76.1953 64.4818 77.0283V80.8951C64.4818 81.728 63.8065 82.4032 62.9736 82.4032V75.5201ZM62.9736 85.5737C63.8065 85.5737 64.4818 86.249 64.4818 87.0819V90.9487C64.4818 91.7816 63.8065 92.4569 62.9736 92.4569V85.5737ZM62.9736 95.6274C63.8065 95.6274 64.4818 96.3026 64.4818 97.1355V101.002C64.4818 101.835 63.8065 102.511 62.9736 102.511V95.6274ZM62.9736 105.681C63.8065 105.681 64.4818 106.356 64.4818 107.189V111.056C64.4818 111.889 63.8065 112.564 62.9736 112.564V105.681ZM74.7944 57.3462C74.7944 58.1791 75.4696 58.8544 76.3025 58.8544H79.117V60.7878C79.117 61.6207 79.7923 62.2959 80.6252 62.2959V58.8544C80.6252 58.7405 80.6126 58.6295 80.5886 58.5228C80.5797 58.4831 80.5693 58.444 80.5573 58.4056C80.4872 58.1804 80.3658 57.9779 80.2068 57.8118C80.1914 57.7957 80.1757 57.78 80.1596 57.7646C79.9935 57.6056 79.791 57.4842 79.5658 57.4141C79.5274 57.4021 79.4883 57.3917 79.4486 57.3828C79.3419 57.3588 79.2309 57.3462 79.117 57.3462H74.7944ZM80.6252 115.735C79.7923 115.735 79.117 116.41 79.117 117.243V119.176H76.3025C75.4696 119.176 74.7944 119.851 74.7944 120.684H79.117C79.2309 120.684 79.3419 120.672 79.4486 120.648C79.4883 120.639 79.5274 120.628 79.5658 120.617C79.791 120.546 79.9935 120.425 80.1596 120.266C80.1757 120.251 80.1914 120.235 80.2068 120.219C80.3658 120.053 80.4872 119.85 80.5573 119.625C80.5693 119.587 80.5797 119.547 80.5886 119.508C80.6126 119.401 80.6252 119.29 80.6252 119.176V115.735Z" style="fill:var(--sapContent_Illustrative_Color6)"/>
<path d="M88.9318 58.8544C88.9318 58.0214 89.6071 57.3462 90.44 57.3462H105.075C105.908 57.3462 106.583 58.0214 106.583 58.8544V119.176C106.583 120.009 105.908 120.684 105.075 120.684H90.44C89.6071 120.684 88.9318 120.009 88.9318 119.176V58.8544Z" style="fill:var(--sapContent_Illustrative_Color7)"/>
<path fill-rule="evenodd" clip-rule="evenodd" d="M90.1084 120.648C90.0687 120.639 90.0296 120.628 89.9912 120.617C89.7661 120.546 89.5636 120.425 89.3974 120.266C89.3813 120.251 89.3656 120.235 89.3503 120.219C89.1912 120.053 89.0698 119.85 88.9997 119.625C88.9878 119.587 88.9773 119.547 88.9684 119.508C88.9445 119.401 88.9318 119.29 88.9318 119.176V115.735C89.7648 115.735 90.44 116.41 90.44 117.243L90.44 119.176H93.2545C94.0874 119.176 94.7627 119.851 94.7627 120.684H90.44C90.3261 120.684 90.2151 120.672 90.1084 120.648ZM106.583 105.681C105.751 105.681 105.075 106.356 105.075 107.189V111.056C105.075 111.889 105.751 112.564 106.583 112.564V105.681ZM106.583 95.6274C105.751 95.6274 105.075 96.3026 105.075 97.1355V101.002C105.075 101.835 105.751 102.511 106.583 102.511V95.6274ZM106.583 85.5737C105.751 85.5737 105.075 86.249 105.075 87.0819V90.9487C105.075 91.7816 105.751 92.4569 106.583 92.4569V85.5737ZM106.583 75.5201C105.751 75.5201 105.075 76.1953 105.075 77.0283V80.8951C105.075 81.728 105.751 82.4032 106.583 82.4032V75.5201ZM106.583 65.4664C105.751 65.4664 105.075 66.1417 105.075 66.9746V70.8414C105.075 71.6744 105.751 72.3496 106.583 72.3496V65.4664ZM88.9318 62.2959C89.7648 62.2959 90.44 61.6207 90.44 60.7878V58.8544L93.2545 58.8544C94.0874 58.8544 94.7627 58.1791 94.7627 57.3462H90.44C90.3261 57.3462 90.2151 57.3588 90.1084 57.3828C90.0687 57.3917 90.0296 57.4021 89.9912 57.4141C89.7661 57.4842 89.5636 57.6056 89.3974 57.7646C89.3813 57.78 89.3656 57.7957 89.3503 57.8117C89.1912 57.9779 89.0698 58.1804 88.9997 58.4056C88.9878 58.444 88.9773 58.4831 88.9684 58.5228C88.9445 58.6295 88.9318 58.7405 88.9318 58.8544V62.2959ZM88.9318 65.4664C89.7648 65.4664 90.44 66.1417 90.44 66.9746V70.8414C90.44 71.6744 89.7648 72.3496 88.9318 72.3496V65.4664ZM88.9318 75.5201C89.7648 75.5201 90.44 76.1953 90.44 77.0283V80.8951C90.44 81.728 89.7648 82.4032 88.9318 82.4032V75.5201ZM88.9318 85.5737C89.7648 85.5737 90.44 86.249 90.44 87.0819V90.9487C90.44 91.7816 89.7648 92.4569 88.9318 92.4569V85.5737ZM88.9318 95.6274C89.7648 95.6274 90.44 96.3026 90.44 97.1355V101.002C90.44 101.835 89.7648 102.511 88.9318 102.511V95.6274ZM88.9318 105.681C89.7648 105.681 90.44 106.356 90.44 107.189V111.056C90.44 111.889 89.7648 112.564 88.9318 112.564V105.681ZM100.753 57.3462C100.753 58.1791 101.428 58.8544 102.261 58.8544H105.075V60.7878C105.075 61.6207 105.751 62.2959 106.583 62.2959V58.8544C106.583 58.7405 106.571 58.6295 106.547 58.5228C106.538 58.4831 106.528 58.444 106.516 58.4056C106.445 58.1804 106.324 57.9779 106.165 57.8118C106.15 57.7957 106.134 57.78 106.118 57.7646C105.952 57.6056 105.749 57.4842 105.524 57.4141C105.486 57.4021 105.447 57.3917 105.407 57.3828C105.3 57.3588 105.189 57.3462 105.075 57.3462H100.753ZM106.583 115.735C105.751 115.735 105.075 116.41 105.075 117.243V119.176H102.261C101.428 119.176 100.753 119.851 100.753 120.684H105.075C105.189 120.684 105.3 120.672 105.407 120.648C105.447 120.639 105.486 120.628 105.524 120.617C105.749 120.546 105.952 120.425 106.118 120.266C106.134 120.251 106.15 120.235 106.165 120.219C106.324 120.053 106.445 119.85 106.516 119.625C106.528 119.587 106.538 119.547 106.547 119.508C106.571 119.401 106.583 119.29 106.583 119.176V115.735Z" style="fill:var(--sapContent_Illustrative_Color6)"/>
<path opacity="0.5" d="M119.775 94.5372C136.531 94.5372 150.115 80.7795 150.115 63.7802C150.115 46.7809 136.531 33.0146 119.775 33.0146C103.019 33.0146 89.4351 46.7723 89.4351 63.7802C89.4351 80.7881 103.019 94.5372 119.775 94.5372Z" style="fill:var(--sapContent_Illustrative_Color7)"/>
<path d="M131.761 36.6002L120.423 33.0146L101.412 89.2233L112.758 92.8089L131.761 36.6002Z" style="fill:var(--sapContent_Illustrative_Color8)"/>
<path d="M117.183 94.537L136.557 38.2252L133.031 37.1074L113.648 93.4192L117.183 94.537Z" style="fill:var(--sapContent_Illustrative_Color8)"/>
<path d="M134.88 91.2012L126.576 94.5374L131.882 107.607L140.177 104.271L134.88 91.2012Z" style="fill:var(--sapContent_Illustrative_Color6)"/>
<path d="M132.184 106.567C131.762 106.74 131.426 107.072 131.25 107.491C131.073 107.91 131.071 108.381 131.242 108.802L143.634 139.164C144.15 140.393 145.134 141.369 146.371 141.878C147.609 142.387 148.998 142.388 150.236 141.881L151.221 141.477C151.844 141.229 152.411 140.861 152.889 140.393C153.366 139.925 153.745 139.367 154.004 138.751C154.514 137.517 154.514 136.133 154.004 134.899L141.612 104.572C141.526 104.361 141.4 104.169 141.24 104.007C141.079 103.846 140.888 103.717 140.678 103.629C140.467 103.541 140.242 103.496 140.013 103.495C139.785 103.495 139.559 103.539 139.348 103.626L132.184 106.567Z" style="fill:var(--sapContent_Illustrative_Color3)"/>
<path d="M126.282 93.8491L127.146 95.9042C127.146 95.9042 131.467 97.8216 136.029 93.8147L134.647 90.5215L130.836 92.3616L126.282 93.8491Z" style="fill:var(--sapContent_Illustrative_Color4)"/>
<path d="M119.982 95.6035C112.604 95.6215 105.448 93.0922 99.7345 88.4471C94.0209 83.8019 90.1035 77.3285 88.6504 70.1306C87.1974 62.9328 88.2985 55.4562 91.7661 48.9759C95.2337 42.4956 100.853 37.4128 107.666 34.5943C114.479 31.7757 122.063 31.396 129.126 33.5198C136.189 35.6436 142.293 40.1395 146.396 46.2407C150.5 52.342 152.35 59.6708 151.63 66.9774C150.911 74.2841 147.666 81.1161 142.45 86.3084C136.494 92.2464 128.413 95.5895 119.982 95.6035ZM119.982 34.8032C113.209 34.7914 106.642 37.1173 101.399 41.3846C96.1568 45.6518 92.5639 51.5961 91.2331 58.2042C89.9023 64.8124 90.916 71.6752 94.1013 77.6229C97.2867 83.5706 102.447 88.2349 108.701 90.8207C114.956 93.4065 121.918 93.7538 128.402 91.8033C134.885 89.8529 140.488 85.7253 144.255 80.1244C148.022 74.5235 149.72 67.796 149.06 61.0885C148.4 54.3811 145.423 48.1091 140.635 43.3416C137.926 40.6366 134.708 38.4901 131.164 37.0249C127.62 35.5598 123.82 34.8048 119.982 34.8032Z" style="fill:var(--sapContent_Illustrative_Color4)"/>
<path d="M157.869 29.8051C157.59 29.6546 157.276 29.5819 156.959 29.5948C156.643 29.6077 156.335 29.7057 156.069 29.8784L149.641 33.8221C148.577 34.4739 148.544 35.7023 149.055 36.5349C149.251 36.8833 149.556 37.1584 149.922 37.3189C150.289 37.4794 150.698 37.5166 151.088 37.4249C151.275 37.375 151.453 37.2971 151.617 37.1939L158.045 33.2502C158.331 33.0829 158.566 32.8417 158.726 32.552C158.885 32.2623 158.964 31.9348 158.953 31.6044C158.94 31.2369 158.834 30.8788 158.645 30.5639C158.455 30.2491 158.188 29.9879 157.869 29.8051Z" style="fill:var(--sapContent_Illustrative_Color5)"/>
<path d="M120.65 12.7089C120.424 12.7206 120.202 12.7793 120 12.8813C119.797 12.9833 119.618 13.1264 119.474 13.3015C119.329 13.4765 119.223 13.6797 119.162 13.898C119.101 14.1162 119.086 14.3449 119.118 14.5692L119.824 21.8755C119.851 22.1382 119.929 22.3929 120.055 22.6248C120.181 22.8567 120.352 23.0613 120.558 23.2264C120.764 23.3916 121 23.514 121.254 23.5867C121.508 23.6594 121.774 23.6807 122.036 23.6496C122.145 23.6397 122.252 23.621 122.358 23.5936C122.749 23.498 123.09 23.2595 123.314 22.925C123.538 22.5905 123.629 22.1845 123.568 21.7868L122.86 14.484C122.834 14.2214 122.756 13.9666 122.63 13.7345C122.505 13.5025 122.334 13.2978 122.128 13.1325C121.923 12.9672 121.686 12.8446 121.432 12.7719C121.178 12.6992 120.913 12.6778 120.65 12.7089Z" style="fill:var(--sapContent_Illustrative_Color5)"/>
<path d="M141.148 14.8177C140.912 14.8943 140.694 15.0182 140.508 15.1817C140.322 15.3452 140.171 15.545 140.065 15.7687L135.192 25.7567C134.976 26.2059 134.942 26.721 135.097 27.1944C135.252 27.6678 135.585 28.0627 136.025 28.2967C136.434 28.512 136.909 28.5658 137.356 28.4475C137.614 28.3788 137.853 28.2555 138.059 28.0859C138.265 27.9163 138.431 27.7044 138.548 27.4647L143.42 17.4767C143.638 17.0252 143.672 16.5071 143.515 16.0313C143.359 15.5555 143.023 15.159 142.58 14.9253C142.361 14.8119 142.121 14.7439 141.875 14.7254C141.629 14.7069 141.381 14.7383 141.148 14.8177Z" style="fill:var(--sapContent_Illustrative_Color5)"/>
</svg>
