<svg width="161" height="156" viewBox="0 0 161 156" fill="none" xmlns="http://www.w3.org/2000/svg" id="sapIllus-Dialog-ErrorScreen">
<path d="M78.6975 155.492C98.864 155.518 118.247 147.687 132.732 133.661H24.6635C39.1477 147.688 58.5309 155.519 78.6975 155.492Z" fill="var(--sapContent_Illustrative_Color7)"/>
<path d="M47.3805 120.773H47.2112C46.7446 120.772 46.2924 120.612 45.9302 120.318C45.568 120.024 45.3179 119.614 45.2217 119.158L38.6147 87.9895L16.4903 88.3422C16.286 88.346 16.0885 88.2687 15.9411 88.1273C15.7937 87.9858 15.7083 87.7918 15.7037 87.5876L14.5396 40.1953C14.5362 40.0911 14.5541 39.9873 14.5921 39.8902C14.6301 39.7931 14.6875 39.7048 14.7608 39.6306C14.834 39.5564 14.9216 39.4978 15.0182 39.4585C15.1148 39.4192 15.2184 39.3999 15.3227 39.4019H16.7019V38.6966C16.7005 38.5931 16.7199 38.4904 16.759 38.3946C16.798 38.2987 16.856 38.2117 16.9294 38.1386C17.0027 38.0656 17.0901 38.0081 17.1861 37.9695C17.2822 37.9309 17.385 37.9119 17.4886 37.9138L50.7775 38.3088C50.9763 38.3087 51.1673 38.3859 51.3102 38.5241C51.453 38.6623 51.5365 38.8506 51.5429 39.0493L52.1179 62.3681H122.153C122.625 62.3678 123.083 62.532 123.447 62.8325C123.812 63.1331 124.06 63.5511 124.149 64.0148L134.672 118.35C134.729 118.645 134.72 118.949 134.646 119.24C134.572 119.531 134.435 119.802 134.243 120.033C134.052 120.265 133.812 120.451 133.54 120.579C133.269 120.707 132.972 120.773 132.672 120.773H143.48C151.974 108.034 156.496 93.0622 156.475 77.7529C156.475 34.8108 121.652 0 78.6975 0C35.7433 0 0.905849 34.8002 0.905849 77.7424C0.881851 93.7486 5.82254 109.368 15.0475 122.451H45.3839C45.4674 121.982 45.713 121.557 46.0778 121.25C46.4427 120.943 46.9037 120.774 47.3805 120.773Z" fill="var(--sapContent_Illustrative_Color7)"/>
<path d="M112.375 114.676H52.8976C52.4684 114.675 52.0506 114.538 51.7045 114.285C51.3583 114.031 51.1016 113.674 50.9716 113.265C51.1016 113.674 51.3583 114.031 51.7045 114.285C52.0506 114.538 52.4684 114.675 52.8976 114.676H112.375C112.832 114.675 113.276 114.52 113.635 114.236C113.993 113.952 114.245 113.555 114.35 113.11C114.245 113.555 113.993 113.952 113.635 114.236C113.276 114.52 112.832 114.675 112.375 114.676Z" fill="var(--sapContent_Illustrative_Color7)"/>
<path d="M46.2729 87.8732L48.1884 98.2755L46.2729 87.8732Z" fill="var(--sapContent_Illustrative_Color7)"/>
<path d="M89.4283 74.6357L105.485 74.6922L89.4283 74.6357L52.3967 74.5088L89.4283 74.6357Z" fill="var(--sapContent_Illustrative_Color7)"/>
<path d="M75.7909 125.755H47.3805C47.1129 125.755 46.848 125.702 46.6008 125.6C46.3536 125.497 46.1291 125.347 45.9401 125.158C45.751 124.969 45.6012 124.744 45.4991 124.497C45.397 124.249 45.3447 123.985 45.3452 123.717V122.807C45.3453 122.689 45.3559 122.571 45.3769 122.455H15.0405C17.8812 126.486 21.0973 130.239 24.6459 133.665H132.732C135.294 131.193 137.685 128.55 139.889 125.755H75.7909Z" fill="var(--sapContent_Illustrative_Color18)"/>
<path d="M18.6172 86.036C18.4145 86.0407 18.218 85.9652 18.0707 85.8259C17.9234 85.6865 17.8371 85.4946 17.8306 85.292L16.7018 39.4195H15.3226C15.2183 39.4175 15.1147 39.4368 15.0181 39.4761C14.9215 39.5154 14.8339 39.574 14.7607 39.6482C14.6874 39.7224 14.63 39.8107 14.592 39.9078C14.554 40.0049 14.5361 40.1087 14.5395 40.2129L15.7035 87.6052C15.7082 87.8094 15.7935 88.0034 15.941 88.1449C16.0884 88.2863 16.2859 88.3636 16.4902 88.3598L38.6146 88.0072L38.1348 85.7469L18.6172 86.036Z" fill="var(--sapContent_Illustrative_Color7)"/>
<path d="M18.6172 86.036C18.4145 86.0407 18.218 85.9652 18.0707 85.8259C17.9234 85.6865 17.8371 85.4946 17.8306 85.292L16.7018 39.4195H15.3226C15.2183 39.4175 15.1147 39.4368 15.0181 39.4761C14.9215 39.5154 14.8339 39.574 14.7607 39.6482C14.6874 39.7224 14.63 39.8107 14.592 39.9078C14.554 40.0049 14.5361 40.1087 14.5395 40.2129L15.7035 87.6052C15.7082 87.8094 15.7935 88.0034 15.941 88.1449C16.0884 88.2863 16.2859 88.3636 16.4902 88.3598L38.6146 88.0072L38.1348 85.7469L18.6172 86.036Z" fill="var(--sapContent_Illustrative_Color19)"/>
<path d="M18.6173 86.036L38.1348 85.7292L37.0766 80.655L22.8044 80.8701C22.6444 80.8683 22.4915 80.8037 22.3787 80.6902C22.2658 80.5768 22.2021 80.4236 22.2012 80.2636L21.2735 42.4908H21.217V41.6163H21.7179C21.7636 41.6107 21.8098 41.6107 21.8555 41.6163L23.4252 41.6375L47.913 41.7151L48.4598 62.3857H52.1072L51.5252 39.0669C51.5188 38.8683 51.4353 38.6799 51.2924 38.5417C51.1496 38.4035 50.9585 38.3263 50.7597 38.3264L17.4849 37.9138C17.3814 37.9119 17.2786 37.9309 17.1825 37.9695C17.0864 38.0081 16.9991 38.0656 16.9257 38.1386C16.8524 38.2117 16.7944 38.2987 16.7553 38.3946C16.7163 38.4904 16.6969 38.5931 16.6983 38.6966V39.4019L17.8271 85.2849C17.8294 85.3862 17.8517 85.486 17.8927 85.5787C17.9337 85.6713 17.9926 85.7549 18.066 85.8247C18.1394 85.8944 18.2259 85.9491 18.3205 85.9853C18.4151 86.0216 18.516 86.0388 18.6173 86.036Z" fill="var(--sapContent_Illustrative_Color18)"/>
<path d="M44.2481 76.8855C44.2112 76.6648 44.2112 76.4396 44.2481 76.219C44.2112 76.4396 44.2112 76.6648 44.2481 76.8855L44.9219 80.5386L44.2481 76.8855Z" fill="var(--sapContent_Illustrative_Color18)"/>
<path d="M48.0119 74.4947L46.2552 74.4876L48.0119 74.4947Z" fill="var(--sapContent_Illustrative_Color18)"/>
<path d="M21.2561 42.4908L22.1838 80.2636C22.1847 80.4236 22.2485 80.5768 22.3613 80.6902C22.4741 80.8037 22.627 80.8683 22.787 80.8701L37.0593 80.655L35.4754 73.1407C35.3852 73.0715 35.3124 72.9823 35.2628 72.88C35.2132 72.7778 35.1882 72.6654 35.1897 72.5518C35.1897 72.3085 35.1579 71.9735 35.1297 71.4939L35.0662 71.2013C34.6246 71.4089 34.1432 71.5184 33.6552 71.5222C30.5017 71.5222 27.9477 67.9007 27.9477 63.433C27.9477 61.5959 27.9019 59.9068 28.2617 58.5422C27.147 58.8525 26.0782 58.521 25.8242 57.7629C25.6372 57.1952 25.9582 56.5463 26.5791 56.0773H25.8313C25.6217 56.0773 25.4207 55.9941 25.2725 55.846C25.1243 55.6978 25.0411 55.497 25.0411 55.2875C25.0406 54.9549 25.1058 54.6254 25.2329 54.318C25.3601 54.0106 25.5466 53.7314 25.7819 53.4962C26.0172 53.261 26.2966 53.0745 26.604 52.9474C26.9115 52.8204 27.2411 52.7552 27.5738 52.7556H28.9848C29.3514 52.1968 29.8405 51.7289 30.415 51.3873C30.9896 51.0458 31.6345 50.8396 32.3007 50.7845L34.7487 50.5835C35.9072 50.4867 37.0722 50.6629 38.1501 51.0982C39.228 51.5334 40.1886 52.2154 40.9548 53.0894C41.721 53.9633 42.2713 55.0048 42.5615 56.1301C42.8517 57.2553 42.8737 58.433 42.6256 59.5683L42.0895 62.354H47.6629L47.0844 42.7871L21.2561 42.4908Z" fill="var(--sapContent_Illustrative_Color7)"/>
<path d="M21.8485 41.5988C21.8028 41.5931 21.7566 41.5931 21.7109 41.5988H23.4183H21.8485Z" fill="var(--sapContent_Illustrative_Color18)"/>
<path d="M23.4183 41.6199L47.2959 41.9725C47.4528 41.9788 47.6012 42.0454 47.7103 42.1584C47.8194 42.2714 47.8807 42.422 47.8815 42.579L48.3682 62.3787H48.4529L47.9061 41.708L23.4183 41.6199Z" fill="var(--sapContent_Illustrative_Color18)"/>
<path opacity="0.5" d="M23.4183 41.6199L47.2959 41.9725C47.4528 41.9788 47.6012 42.0454 47.7103 42.1584C47.8194 42.2714 47.8807 42.422 47.8815 42.579L48.3682 62.3787H48.4529L47.9061 41.708L23.4183 41.6199Z" fill="var(--sapContent_Illustrative_Color18)"/>
<path d="M21.7181 41.6163H21.2172V42.4908H21.2736V42.2334C21.2675 42.0956 21.308 41.9597 21.3887 41.8477C21.4693 41.7358 21.5854 41.6543 21.7181 41.6163Z" fill="var(--sapContent_Illustrative_Color18)"/>
<path opacity="0.5" d="M21.7181 41.6163H21.2172V42.4908H21.2736V42.2334C21.2675 42.0956 21.308 41.9597 21.3887 41.8477C21.4693 41.7358 21.5854 41.6543 21.7181 41.6163Z" fill="var(--sapContent_Illustrative_Color18)"/>
<path d="M47.2959 41.9619L23.4184 41.6093H21.7181C21.5821 41.6439 21.4621 41.724 21.378 41.8363C21.294 41.9486 21.2509 42.0862 21.256 42.2264V42.4838L47.0737 42.7941L47.6522 62.3611H48.3577L47.8709 42.5614C47.8685 42.4074 47.8079 42.2599 47.7012 42.1487C47.5946 42.0376 47.4498 41.9708 47.2959 41.9619Z" fill="var(--sapContent_Illustrative_Color18)"/>
<path opacity="0.5" d="M47.2959 41.9619L23.4184 41.6093H21.7181C21.5821 41.6439 21.4621 41.724 21.378 41.8363C21.294 41.9486 21.2509 42.0862 21.256 42.2264V42.4838L47.0737 42.7941L47.6522 62.3611H48.3577L47.8709 42.5614C47.8685 42.4074 47.8079 42.2599 47.7012 42.1487C47.5946 42.0376 47.4498 41.9708 47.2959 41.9619Z" fill="var(--sapContent_Illustrative_Color18)"/>
<path d="M34.738 50.5976L32.2899 50.7986C31.6237 50.8537 30.9789 51.0598 30.4043 51.4014C29.8298 51.7429 29.3407 52.2109 28.9741 52.7697H27.5631C27.2304 52.7693 26.9008 52.8344 26.5933 52.9615C26.2858 53.0886 26.0065 53.2751 25.7712 53.5103C25.5359 53.7455 25.3494 54.0247 25.2222 54.3321C25.0951 54.6395 25.0299 54.9689 25.0304 55.3016C25.0304 55.511 25.1136 55.7119 25.2618 55.8601C25.41 56.0082 25.611 56.0914 25.8206 56.0914H26.5684C25.9475 56.5604 25.6265 57.2092 25.8135 57.777C26.0675 58.5351 27.1363 58.8666 28.251 58.5562C27.8982 59.9138 27.937 61.6099 27.937 63.4471C27.937 67.9148 30.4909 71.5362 33.6445 71.5362C34.1325 71.5325 34.6139 71.423 35.0555 71.2154L33.7115 64.8082C33.6466 64.5108 33.6493 64.2027 33.7193 63.9064C33.7894 63.6102 33.925 63.3335 34.1163 63.0966C34.3075 62.8597 34.5495 62.6687 34.8244 62.5378C35.0993 62.4068 35.4001 62.3392 35.7046 62.3399H42.0858L42.622 59.5541C42.8651 58.4202 42.8391 57.2451 42.5462 56.1229C42.2533 55.0008 41.7016 53.9628 40.9352 53.0922C40.1688 52.2215 39.2091 51.5424 38.133 51.1092C37.0568 50.676 35.8941 50.5008 34.738 50.5976Z" fill="var(--sapContent_Illustrative_Color18)"/>
<path d="M34.738 50.5976L32.2899 50.7986C31.6237 50.8537 30.9789 51.0598 30.4043 51.4014C29.8298 51.7429 29.3407 52.2109 28.9741 52.7697H27.5631C27.2304 52.7693 26.9008 52.8344 26.5933 52.9615C26.2858 53.0886 26.0065 53.2751 25.7712 53.5103C25.5359 53.7455 25.3494 54.0247 25.2222 54.3321C25.0951 54.6395 25.0299 54.9689 25.0304 55.3016C25.0304 55.511 25.1136 55.7119 25.2618 55.8601C25.41 56.0082 25.611 56.0914 25.8206 56.0914H26.5684C25.9475 56.5604 25.6265 57.2092 25.8135 57.777C26.0675 58.5351 27.1363 58.8666 28.251 58.5562C27.8982 59.9138 27.937 61.6099 27.937 63.4471C27.937 67.9148 30.4909 71.5362 33.6445 71.5362C34.1325 71.5325 34.6139 71.423 35.0555 71.2154L33.7115 64.8082C33.6466 64.5108 33.6493 64.2027 33.7193 63.9064C33.7894 63.6102 33.925 63.3335 34.1163 63.0966C34.3075 62.8597 34.5495 62.6687 34.8244 62.5378C35.0993 62.4068 35.4001 62.3392 35.7046 62.3399H42.0858L42.622 59.5541C42.8651 58.4202 42.8391 57.2451 42.5462 56.1229C42.2533 55.0008 41.7016 53.9628 40.9352 53.0922C40.1688 52.2215 39.2091 51.5424 38.133 51.1092C37.0568 50.676 35.8941 50.5008 34.738 50.5976Z" fill="var(--sapContent_Illustrative_Color18)"/>
<path d="M35.4743 73.1407L35.1224 71.508C35.1506 71.9735 35.1717 72.3085 35.1822 72.5659C35.1837 72.6777 35.2109 72.7877 35.2615 72.8874C35.3121 72.987 35.3849 73.0737 35.4743 73.1407Z" fill="var(--sapContent_Illustrative_Color18)"/>
<path opacity="0.5" d="M35.4743 73.1407L35.1224 71.508C35.1506 71.9735 35.1717 72.3085 35.1822 72.5659C35.1837 72.6777 35.2109 72.7877 35.2615 72.8874C35.3121 72.987 35.3849 73.0737 35.4743 73.1407Z" fill="var(--sapContent_Illustrative_Color18)"/>
<path d="M134.672 118.35L124.149 64.0148C124.06 63.5511 123.812 63.133 123.447 62.8325C123.083 62.532 122.625 62.3677 122.153 62.368H35.6975C35.393 62.3674 35.0923 62.435 34.8174 62.566C34.5425 62.697 34.3005 62.8879 34.1093 63.1248C33.918 63.3616 33.7824 63.6384 33.7123 63.9346C33.6423 64.2308 33.6396 64.539 33.7045 64.8364L35.0591 71.2294L35.1226 71.5221L35.4753 73.1548L37.0662 80.6691L38.1244 85.7433L38.6042 88.0036L45.2112 119.172C45.3074 119.628 45.5575 120.038 45.9197 120.332C46.2819 120.626 46.7341 120.786 47.2007 120.787H132.672C132.973 120.788 133.272 120.721 133.545 120.592C133.818 120.464 134.059 120.276 134.25 120.043C134.441 119.81 134.579 119.537 134.652 119.244C134.725 118.951 134.731 118.646 134.672 118.35ZM121.313 99.7177H111.99L114.378 112.25C114.438 112.529 114.438 112.817 114.378 113.096C114.273 113.541 114.021 113.938 113.663 114.222C113.304 114.506 112.86 114.661 112.403 114.662H52.8976C52.4684 114.661 52.0506 114.524 51.7045 114.27C51.3583 114.017 51.1016 113.66 50.9716 113.251C50.9411 113.169 50.9175 113.084 50.901 112.997L48.1743 98.2719L46.2588 87.8732L45.8426 85.6093L44.9078 80.5386L44.2341 76.8855C44.1972 76.6649 44.1972 76.4396 44.2341 76.219C44.2764 75.9208 44.3862 75.6362 44.5551 75.3868C44.7163 75.1446 44.9281 74.9401 45.1759 74.7874C45.3652 74.6705 45.5726 74.5859 45.7897 74.537C45.9398 74.5009 46.0939 74.4843 46.2482 74.4876H48.7704H52.3931L89.4318 74.6146L88.7263 70.9191C88.6702 70.623 88.6802 70.3182 88.7555 70.0264C88.8309 69.7346 88.9696 69.4631 89.162 69.231C89.3543 68.999 89.5956 68.8122 89.8684 68.6841C90.1412 68.5559 90.439 68.4895 90.7404 68.4895H116.191C116.669 68.4893 117.132 68.6558 117.501 68.9603C117.869 69.2648 118.119 69.6881 118.209 70.1575L123.327 97.2811C123.384 97.5776 123.374 97.883 123.299 98.1754C123.224 98.4678 123.086 98.74 122.893 98.9727C122.701 99.2054 122.46 99.3928 122.186 99.5216C121.913 99.6504 121.615 99.7173 121.313 99.7177Z" fill="var(--sapContent_Illustrative_Color2)"/>
<path d="M47.3805 120.773C46.9025 120.773 46.4398 120.941 46.0735 121.248C45.7071 121.555 45.4605 121.981 45.3769 122.451C45.3558 122.568 45.3452 122.686 45.3451 122.804V123.714C45.3446 123.981 45.3969 124.246 45.499 124.493C45.6011 124.741 45.7509 124.965 45.94 125.155C46.129 125.344 46.3536 125.494 46.6007 125.597C46.8479 125.699 47.1129 125.752 47.3805 125.752H75.7908C75.2622 125.75 74.7418 125.622 74.2738 125.376C73.8058 125.13 73.4041 124.775 73.1029 124.341L70.5842 120.755H47.3805V120.773Z" fill="var(--sapContent_Illustrative_Color13)"/>
<path d="M160.906 120.773H70.5845L73.1031 124.359C73.4043 124.793 73.806 125.148 74.274 125.394C74.742 125.639 75.2625 125.768 75.791 125.769H159.138C159.606 125.769 160.055 125.584 160.386 125.253C160.716 124.922 160.902 124.474 160.902 124.006V120.79L160.906 120.773Z" fill="var(--sapContent_Illustrative_Color14)"/>
<path d="M118.212 70.1787C118.123 69.7093 117.872 69.2859 117.504 68.9815C117.136 68.677 116.673 68.5105 116.195 68.5108H90.7438C90.4423 68.5107 90.1446 68.5771 89.8717 68.7053C89.5989 68.8335 89.3577 69.0202 89.1653 69.2522C88.973 69.4842 88.8342 69.7558 88.7588 70.0476C88.6835 70.3394 88.6735 70.6442 88.7296 70.9403L89.4351 74.6358L105.492 74.6922H105.549C106.02 74.6937 106.477 74.8591 106.84 75.1603C107.203 75.4614 107.45 75.8793 107.538 76.3425L111.99 99.7177H121.313C121.615 99.7177 121.912 99.6512 122.185 99.5231C122.458 99.395 122.7 99.2083 122.892 98.9764C123.085 98.7444 123.224 98.4729 123.3 98.1811C123.376 97.8893 123.386 97.5845 123.331 97.2882L118.212 70.1787Z" fill="var(--sapContent_Illustrative_Color14)"/>
<path d="M82.3167 95.1618L85.04 92.1787C85.1517 92.0507 85.2364 91.9014 85.2891 91.7399C85.3417 91.5784 85.3612 91.4079 85.3464 91.2387C85.3316 91.0694 85.2827 90.9049 85.2028 90.755C85.1229 90.6051 85.0135 90.4728 84.8812 90.3662C84.7645 90.2425 84.6237 90.1439 84.4675 90.0766C84.3113 90.0092 84.143 89.9745 83.9729 89.9745C83.8028 89.9745 83.6345 90.0092 83.4783 90.0766C83.3221 90.1439 83.1813 90.2425 83.0646 90.3662L80.3413 93.3459L77.0996 90.3662C76.9828 90.2425 76.8421 90.1439 76.6859 90.0766C76.5297 90.0092 76.3614 89.9745 76.1912 89.9745C76.0211 89.9745 75.8528 90.0092 75.6966 90.0766C75.5404 90.1439 75.3996 90.2425 75.2829 90.3662C75.1712 90.4942 75.0865 90.6434 75.0338 90.8049C74.9812 90.9665 74.9617 91.137 74.9765 91.3062C74.9913 91.4754 75.0401 91.6399 75.1201 91.7898C75.2 91.9398 75.3094 92.072 75.4417 92.1787L78.6869 95.1618L75.9637 98.1415C75.8519 98.2698 75.7671 98.4193 75.7144 98.5811C75.6617 98.7429 75.6422 98.9137 75.657 99.0832C75.6718 99.2528 75.7207 99.4175 75.8007 99.5677C75.8806 99.718 75.9901 99.8505 76.1225 99.9575C76.2397 100.08 76.3807 100.178 76.5368 100.245C76.6929 100.312 76.861 100.346 77.0308 100.346C77.2006 100.346 77.3687 100.312 77.5248 100.245C77.6809 100.178 77.8219 100.08 77.9391 99.9575L80.6588 96.9743L83.9041 99.9575C84.0214 100.08 84.1623 100.178 84.3184 100.245C84.4746 100.312 84.6426 100.346 84.8124 100.346C84.9822 100.346 85.1503 100.312 85.3064 100.245C85.4625 100.178 85.6035 100.08 85.7208 99.9575C85.8324 99.829 85.9169 99.6793 85.9693 99.5173C86.0217 99.3554 86.041 99.1845 86.0258 99.015C86.0107 98.8455 85.9615 98.6808 85.8812 98.5307C85.8009 98.3806 85.6911 98.2482 85.5585 98.1415L82.3167 95.1618Z" fill="var(--sapContent_Illustrative_Color8)"/>
<path d="M79.1561 80.0062C77.2393 79.9771 75.3377 80.3517 73.5753 81.1056C71.8128 81.8596 70.2288 82.976 68.9264 84.3822C67.6339 85.8143 66.6573 87.5023 66.0599 89.3363C65.4625 91.1704 65.2577 93.1095 65.4589 95.0278C66.1855 103.346 73.5509 110.116 81.8723 110.116C83.7891 110.146 85.6906 109.771 87.4531 109.017C89.2156 108.263 90.7996 107.147 92.102 105.74C93.3982 104.31 94.3788 102.623 94.9798 100.789C95.5809 98.9547 95.789 97.0146 95.5907 95.0948C94.8428 86.7765 87.481 80.0062 79.1561 80.0062ZM81.6254 108.124C74.4928 108.124 68.1468 102.292 67.5154 95.1618C66.884 88.0318 72.2175 82.196 79.3501 82.196C86.4827 82.196 92.8287 88.0318 93.4601 95.1618C94.0915 102.292 88.7685 108.124 81.6359 108.124H81.6254Z" fill="var(--sapContent_Illustrative_Color8)"/>
<path d="M107.531 76.3424C107.443 75.8793 107.196 75.4613 106.833 75.1602C106.47 74.8591 106.013 74.6936 105.542 74.6922H105.485L89.4281 74.6358L52.3895 74.5088H48.7668H46.2446C46.0903 74.5055 45.9361 74.5221 45.786 74.5582C45.569 74.6071 45.3616 74.6917 45.1723 74.8085C44.9245 74.9612 44.7127 75.1658 44.5514 75.408C44.3826 75.6574 44.2728 75.942 44.2304 76.2402C44.1935 76.4608 44.1935 76.686 44.2304 76.9067L44.9042 80.5598L45.839 85.6305L46.2552 87.8943L48.1742 98.272L50.8868 113.011C50.9033 113.098 50.9269 113.183 50.9574 113.265C51.0874 113.674 51.3441 114.031 51.6903 114.285C52.0364 114.538 52.4542 114.675 52.8834 114.676H112.374C112.832 114.675 113.276 114.52 113.634 114.236C113.993 113.952 114.245 113.555 114.35 113.11C114.41 112.831 114.41 112.543 114.35 112.264L111.99 99.7177L107.531 76.3424ZM92.6734 106.28C91.2977 107.768 89.6241 108.95 87.7613 109.749C85.8986 110.548 83.8884 110.946 81.8617 110.917C73.1347 110.917 65.413 103.819 64.6511 95.0948C64.445 93.0662 64.6676 91.0169 65.3044 89.0797C65.9412 87.1425 66.9781 85.3607 68.3479 83.8497C69.7232 82.3621 71.3962 81.1804 73.2584 80.3815C75.1205 79.5826 77.1299 79.1844 79.1561 79.2128C87.8831 79.2128 95.6048 86.311 96.3702 95.0349C96.5765 97.0635 96.354 99.1129 95.7172 101.05C95.0803 102.987 94.0434 104.769 92.6734 106.28Z" fill="var(--sapContent_Illustrative_Color8)"/>
<path d="M79.3677 82.196C72.2352 82.196 66.9087 88.0319 67.533 95.1619C68.1574 102.292 74.5033 108.124 81.643 108.124C88.7826 108.124 94.0985 102.292 93.4741 95.1619C92.8498 88.0319 86.5003 82.196 79.3677 82.196ZM85.7172 99.9575C85.5999 100.08 85.459 100.178 85.3029 100.245C85.1467 100.312 84.9787 100.346 84.8089 100.346C84.6391 100.346 84.471 100.312 84.3149 100.245C84.1588 100.178 84.0178 100.08 83.9006 99.9575L80.6553 96.9743L77.9356 99.9575C77.8183 100.08 77.6773 100.178 77.5212 100.245C77.3651 100.312 77.1971 100.346 77.0272 100.346C76.8574 100.346 76.6894 100.312 76.5333 100.245C76.3771 100.178 76.2362 100.08 76.1189 99.9575C75.9865 99.8506 75.8771 99.718 75.7971 99.5678C75.7171 99.4175 75.6683 99.2528 75.6535 99.0833C75.6387 98.9137 75.6582 98.7429 75.7109 98.5811C75.7636 98.4193 75.8484 98.2698 75.9602 98.1415L78.6834 95.1619L75.4381 92.1787C75.3058 92.072 75.1965 91.9398 75.1165 91.7899C75.0366 91.64 74.9878 91.4755 74.9729 91.3062C74.9581 91.137 74.9776 90.9665 75.0303 90.805C75.0829 90.6434 75.1677 90.4942 75.2794 90.3662C75.3961 90.2425 75.5369 90.144 75.6931 90.0766C75.8493 90.0093 76.0176 89.9745 76.1877 89.9745C76.3578 89.9745 76.5261 90.0093 76.6823 90.0766C76.8385 90.144 76.9793 90.2425 77.096 90.3662L80.3378 93.3459L83.061 90.3662C83.1777 90.2425 83.3185 90.144 83.4747 90.0766C83.6309 90.0093 83.7992 89.9745 83.9693 89.9745C84.1394 89.9745 84.3078 90.0093 84.464 90.0766C84.6202 90.144 84.7609 90.2425 84.8777 90.3662C85.0099 90.4729 85.1193 90.6051 85.1993 90.755C85.2792 90.905 85.328 91.0695 85.3428 91.2387C85.3577 91.4079 85.3382 91.5784 85.2855 91.7399C85.2328 91.9015 85.1481 92.0507 85.0364 92.1787L82.3132 95.1619L85.5549 98.1415C85.6878 98.248 85.7979 98.3801 85.8785 98.5301C85.9591 98.68 86.0086 98.8448 86.0241 99.0143C86.0396 99.1838 86.0207 99.3547 85.9686 99.5168C85.9164 99.6789 85.8321 99.8288 85.7207 99.9575H85.7172Z" fill="var(--sapContent_Illustrative_Color11)"/>
<path d="M79.1561 79.2057C77.1294 79.1782 75.1196 79.5776 73.2575 80.3777C71.3953 81.1778 69.7225 82.3608 68.3479 83.8497C66.9772 85.3615 65.9398 87.1445 65.3029 89.083C64.6661 91.0214 64.444 93.0721 64.6511 95.1019C65.413 103.826 73.117 110.924 81.8617 110.924C83.8884 110.953 85.8986 110.555 87.7613 109.756C89.6241 108.957 91.2977 107.775 92.6734 106.287C94.0443 104.775 95.0818 102.992 95.7187 101.054C96.3556 99.1154 96.5775 97.0647 96.3702 95.0349C95.6048 86.3181 87.8831 79.2057 79.1561 79.2057ZM92.0843 105.74C90.7819 107.147 89.1979 108.263 87.4355 109.017C85.673 109.771 83.7715 110.146 81.8546 110.116C73.5333 110.116 66.1679 103.346 65.4412 95.0278C65.2429 93.108 65.451 91.1679 66.0521 89.3338C66.6531 87.4997 67.6337 85.8126 68.9299 84.3822C70.2323 82.976 71.8163 81.8596 73.5788 81.1056C75.3413 80.3517 77.2428 79.9771 79.1596 80.0062C87.4845 80.0062 94.8463 86.7765 95.5765 95.0948C95.7744 97.0149 95.5657 98.9551 94.9641 100.789C94.3624 102.623 93.3812 104.31 92.0843 105.74Z" fill="var(--sapContent_Illustrative_Color3)"/>
</svg>
