<svg width="128" height="128" viewBox="0 0 128 128" fill="none" xmlns="http://www.w3.org/2000/svg" id="sapIllus-Spot-NoColumnsSet">
<mask id="mask0_20263_10637" style="mask-type:alpha" maskUnits="userSpaceOnUse" x="0" y="0" width="128" height="128">
<circle cx="64" cy="64" r="64" style="fill:var(--sapContent_Illustrative_Color7)"/>
</mask>
<g mask="url(#mask0_20263_10637)">
<path d="M147.949 0.653324H-42.153C-43.3921 0.65218 -44.6193 0.89526 -45.7645 1.36866C-46.9096 1.84206 -47.9502 2.5365 -48.8268 3.41229C-49.7034 4.28808 -50.3988 5.32804 -50.8733 6.47273C-51.3477 7.61743 -51.5919 8.84441 -51.5919 10.0835V121.827C-51.5919 124.33 -50.5975 126.731 -48.8273 128.501C-47.0572 130.271 -44.6564 131.266 -42.153 131.266H147.949C150.452 131.266 152.853 130.271 154.623 128.501C156.393 126.731 157.388 124.33 157.388 121.827V10.0835C157.388 8.84441 157.143 7.61743 156.669 6.47273C156.195 5.32804 155.499 4.28808 154.623 3.41229C153.746 2.5365 152.705 1.84206 151.56 1.36866C150.415 0.89526 149.188 0.65218 147.949 0.653324Z" style="fill:var(--sapContent_Illustrative_Color7)"/>
<path d="M149.301 63.2016L112.01 50.3984C110.429 49.8556 108.708 50.7001 108.166 52.2846L89.5794 106.662C89.0378 108.246 89.8804 109.971 91.4614 110.514L128.752 123.317C130.333 123.86 132.054 123.015 132.596 121.431L151.183 67.0536C151.724 65.469 150.882 63.7444 149.301 63.2016Z" style="fill:var(--sapContent_Illustrative_Color18)"/>
<path d="M126.935 64.1344C125.704 63.6419 124.354 63.5263 123.058 63.8023C121.761 64.0783 120.575 64.7334 119.65 65.6848C118.725 66.6362 118.102 67.8412 117.86 69.1474C117.618 70.4537 117.768 71.8025 118.291 73.0233C118.813 74.2442 119.686 75.2822 120.797 76.0062C121.909 76.7303 123.209 77.1077 124.535 77.091C125.86 77.0742 127.151 76.6638 128.244 75.9119C129.337 75.1599 130.183 74.1001 130.675 72.8664L124.445 70.3772L126.935 64.1344Z" style="fill:var(--sapContent_Illustrative_Color7)"/>
<path d="M128.927 63.2129L126.444 69.4501L132.667 71.9392C132.994 71.1202 133.156 70.2447 133.145 69.3628C133.134 68.4808 132.949 67.6097 132.602 66.7993C132.255 65.9889 131.751 65.255 131.121 64.6396C130.49 64.0242 129.745 63.5394 128.927 63.2129Z" style="fill:var(--sapContent_Illustrative_Color19)"/>
<path d="M134.092 85.5227L108.106 76.6009C107.244 76.3049 106.306 76.7654 106.01 77.6294C105.715 78.4934 106.175 79.4338 107.037 79.7298L133.023 88.6516C133.885 88.9476 134.823 88.4871 135.118 87.6231C135.414 86.7591 134.954 85.8187 134.092 85.5227Z" style="fill:var(--sapContent_Illustrative_Color7)"/>
<path d="M131.845 90.8142L105.859 81.8924C104.997 81.5964 104.059 82.0569 103.763 82.9209C103.468 83.7849 103.927 84.7253 104.79 85.0213L130.776 93.9432C131.638 94.2392 132.576 93.7787 132.871 92.9146C133.167 92.0506 132.707 91.1102 131.845 90.8142Z" style="fill:var(--sapContent_Illustrative_Color7)"/>
<path d="M117.573 91.8426L103.729 87.0896C102.867 86.7937 101.929 87.2542 101.633 88.1182C101.338 88.9822 101.797 89.9225 102.659 90.2185L116.503 94.9715C117.365 95.2675 118.304 94.8071 118.599 93.943C118.894 93.079 118.435 92.1386 117.573 91.8426Z" style="fill:var(--sapContent_Illustrative_Color7)"/>
<path d="M-27.949 76.4082H48.2259C49.3999 76.4082 50.3516 77.3566 50.3516 78.5266V127.691C50.3516 128.861 49.3999 129.809 48.2259 129.809H-27.949C-29.123 129.809 -30.0747 128.861 -30.0747 127.691V78.5266C-30.0747 77.3566 -29.123 76.4082 -27.949 76.4082Z" style="fill:var(--sapContent_Illustrative_Color18)"/>
<path d="M-26.1855 79.2856H46.568C47.6576 79.2856 48.5409 80.1659 48.5409 81.2517V125.535C48.5409 126.62 47.6576 127.501 46.568 127.501H-26.1855C-27.2751 127.501 -28.1584 126.62 -28.1584 125.535V81.2517C-28.1584 80.1659 -27.2751 79.2856 -26.1855 79.2856Z" style="fill:var(--sapContent_Illustrative_Color7)"/>
<path d="M9.99138 78.2901C9.70698 78.2901 9.47642 78.0603 9.47642 77.7769C9.47642 77.4934 9.70698 77.2637 9.99138 77.2637C10.2758 77.2637 10.5063 77.4934 10.5063 77.7769C10.5063 78.0603 10.2758 78.2901 9.99138 78.2901Z" style="fill:var(--sapContent_Illustrative_Color19)"/>
<path d="M87.7154 20.0688H22.7961C18.8624 20.0688 15.6735 23.2578 15.6735 27.1915V107.483C15.6735 111.417 18.8624 114.606 22.7961 114.606H87.7154C91.6492 114.606 94.8381 111.417 94.8381 107.483V27.1915C94.8381 23.2578 91.6492 20.0688 87.7154 20.0688Z" style="fill:var(--sapContent_Illustrative_Color8)"/>
<path fill-rule="evenodd" clip-rule="evenodd" d="M22.9716 27.7224C22.9716 27.3987 23.0605 27.1392 23.1693 27.1392H86.932C87.0407 27.1392 87.1297 27.3863 87.1297 27.7224V106.954C87.1297 107.278 87.0407 107.537 86.932 107.537H23.1693C23.0605 107.537 22.9716 107.29 22.9716 106.954V27.7224Z" style="fill:var(--sapContent_Illustrative_Color8)"/>
<path d="M40.1158 29.4727H27.561C26.7147 29.4727 26.0287 30.1587 26.0287 31.0049C26.0287 31.8512 26.7147 32.5372 27.561 32.5372H40.1158C40.9621 32.5372 41.6481 31.8512 41.6481 31.0049C41.6481 30.1587 40.9621 29.4727 40.1158 29.4727Z" style="fill:var(--sapContent_Illustrative_Color14)"/>
<path d="M26.4641 45.3188C26.4641 44.5975 27.0489 44.0127 27.7702 44.0127H40.4447C41.1661 44.0127 41.7509 44.5975 41.7509 45.3188V97.5591C41.7509 98.2804 41.1661 98.8652 40.4447 98.8652H27.7702C27.0489 98.8652 26.4641 98.2804 26.4641 97.5591V45.3188Z" style="fill:var(--sapContent_Illustrative_Color7)"/>
<path fill-rule="evenodd" clip-rule="evenodd" d="M27.4831 98.8335C27.4487 98.8258 27.4148 98.8167 27.3816 98.8064C27.1866 98.7457 27.0112 98.6405 26.8673 98.5028C26.8534 98.4895 26.8398 98.4759 26.8265 98.462C26.6887 98.3181 26.5836 98.1427 26.5229 97.9477C26.5126 97.9144 26.5035 97.8806 26.4958 97.8462C26.475 97.7538 26.4641 97.6577 26.4641 97.5591V94.5786C27.1855 94.5786 27.7702 95.1633 27.7702 95.8847L27.7702 97.5591H30.2076C30.929 97.5591 31.5138 98.1438 31.5138 98.8652H27.7702C27.6716 98.8652 27.5755 98.8542 27.4831 98.8335ZM41.7509 85.8719C41.0295 85.8719 40.4447 86.4566 40.4447 87.178V90.5267C40.4447 91.2481 41.0295 91.8328 41.7509 91.8328V85.8719ZM41.7509 77.1651C41.0295 77.1651 40.4447 77.7499 40.4447 78.4713V81.82C40.4447 82.5414 41.0295 83.1261 41.7509 83.1261V77.1651ZM41.7509 68.4584C41.0295 68.4584 40.4447 69.0432 40.4447 69.7646V73.1133C40.4447 73.8347 41.0295 74.4194 41.7509 74.4194V68.4584ZM41.7509 59.7517C41.0295 59.7517 40.4447 60.3365 40.4447 61.0579V64.4066C40.4447 65.1279 41.0295 65.7127 41.7509 65.7127V59.7517ZM41.7509 51.045C41.0295 51.045 40.4447 51.6298 40.4447 52.3512V55.6999C40.4447 56.4212 41.0295 57.006 41.7509 57.006V51.045ZM26.4641 48.2993C27.1855 48.2993 27.7702 47.7145 27.7702 46.9932V45.3188L30.2076 45.3188C30.929 45.3188 31.5138 44.734 31.5138 44.0127H27.7702C27.6716 44.0127 27.5755 44.0236 27.4831 44.0444C27.4487 44.0521 27.4148 44.0611 27.3816 44.0715C27.1866 44.1322 27.0112 44.2373 26.8673 44.3751C26.8534 44.3884 26.8398 44.402 26.8265 44.4159C26.6887 44.5598 26.5836 44.7352 26.5229 44.9301C26.5126 44.9634 26.5035 44.9973 26.4958 45.0317C26.475 45.1241 26.4641 45.2202 26.4641 45.3188V48.2993ZM26.4641 51.045C27.1855 51.045 27.7702 51.6298 27.7702 52.3512V55.6999C27.7702 56.4212 27.1855 57.006 26.4641 57.006V51.045ZM26.4641 59.7517C27.1855 59.7517 27.7702 60.3365 27.7702 61.0579V64.4066C27.7702 65.1279 27.1855 65.7127 26.4641 65.7127V59.7517ZM26.4641 68.4584C27.1855 68.4584 27.7702 69.0432 27.7702 69.7646V73.1133C27.7702 73.8347 27.1855 74.4194 26.4641 74.4194V68.4584ZM26.4641 77.1651C27.1855 77.1651 27.7702 77.7499 27.7702 78.4713V81.82C27.7702 82.5414 27.1855 83.1261 26.4641 83.1261V77.1651ZM26.4641 85.8719C27.1855 85.8719 27.7702 86.4566 27.7702 87.178V90.5267C27.7702 91.2481 27.1855 91.8328 26.4641 91.8328V85.8719ZM36.7012 44.0127C36.7012 44.734 37.286 45.3188 38.0073 45.3188H40.4447V46.9932C40.4447 47.7145 41.0295 48.2993 41.7509 48.2993V45.3188C41.7509 45.2202 41.7399 45.1241 41.7192 45.0317C41.7115 44.9973 41.7024 44.9634 41.6921 44.9301C41.6314 44.7352 41.5262 44.5598 41.3885 44.4159C41.3752 44.402 41.3616 44.3884 41.3477 44.3751C41.2038 44.2373 41.0284 44.1322 40.8334 44.0715C40.8001 44.0611 40.7663 44.0521 40.7319 44.0444C40.6395 44.0236 40.5434 44.0127 40.4447 44.0127H36.7012ZM41.7509 94.5786C41.0295 94.5786 40.4447 95.1633 40.4447 95.8847V97.5591H38.0073C37.286 97.5591 36.7012 98.1438 36.7012 98.8652H40.4447C40.5434 98.8652 40.6395 98.8542 40.7319 98.8335C40.7663 98.8258 40.8001 98.8167 40.8334 98.8064C41.0284 98.7457 41.2038 98.6405 41.3477 98.5028C41.3616 98.4895 41.3752 98.4759 41.3885 98.462C41.5262 98.3181 41.6314 98.1427 41.6921 97.9477C41.7024 97.9144 41.7115 97.8806 41.7192 97.8462C41.7399 97.7538 41.7509 97.6577 41.7509 97.5591V94.5786Z" style="fill:var(--sapContent_Illustrative_Color6)"/>
<path d="M48.9447 45.3188C48.9447 44.5975 49.5295 44.0127 50.2508 44.0127H62.9253C63.6467 44.0127 64.2315 44.5975 64.2315 45.3188V97.5591C64.2315 98.2804 63.6467 98.8652 62.9253 98.8652H50.2508C49.5295 98.8652 48.9447 98.2804 48.9447 97.5591V45.3188Z" style="fill:var(--sapContent_Illustrative_Color7)"/>
<path fill-rule="evenodd" clip-rule="evenodd" d="M49.9637 98.8335C49.9293 98.8258 49.8954 98.8167 49.8621 98.8064C49.6672 98.7457 49.4918 98.6405 49.3479 98.5028C49.334 98.4895 49.3204 98.4759 49.3071 98.462C49.1693 98.3181 49.0642 98.1427 49.0035 97.9477C48.9931 97.9144 48.9841 97.8806 48.9764 97.8462C48.9556 97.7538 48.9447 97.6577 48.9447 97.5591V94.5786C49.6661 94.5786 50.2508 95.1633 50.2508 95.8847L50.2508 97.5591H52.6882C53.4096 97.5591 53.9944 98.1438 53.9944 98.8652H50.2508C50.1522 98.8652 50.0561 98.8542 49.9637 98.8335ZM64.2315 85.8719C63.5101 85.8719 62.9253 86.4566 62.9253 87.178V90.5267C62.9253 91.2481 63.5101 91.8328 64.2315 91.8328V85.8719ZM64.2315 77.1651C63.5101 77.1651 62.9253 77.7499 62.9253 78.4713V81.82C62.9253 82.5414 63.5101 83.1261 64.2315 83.1261V77.1651ZM64.2315 68.4584C63.5101 68.4584 62.9253 69.0432 62.9253 69.7646V73.1133C62.9253 73.8347 63.5101 74.4194 64.2315 74.4194V68.4584ZM64.2315 59.7517C63.5101 59.7517 62.9253 60.3365 62.9253 61.0579V64.4066C62.9253 65.1279 63.5101 65.7127 64.2315 65.7127V59.7517ZM64.2315 51.045C63.5101 51.045 62.9253 51.6298 62.9253 52.3512V55.6999C62.9253 56.4212 63.5101 57.006 64.2315 57.006V51.045ZM48.9447 48.2993C49.6661 48.2993 50.2508 47.7145 50.2508 46.9932V45.3188L52.6882 45.3188C53.4096 45.3188 53.9944 44.734 53.9944 44.0127H50.2508C50.1522 44.0127 50.0561 44.0236 49.9637 44.0444C49.9293 44.0521 49.8954 44.0611 49.8621 44.0715C49.6672 44.1322 49.4918 44.2373 49.3479 44.3751C49.334 44.3884 49.3204 44.402 49.3071 44.4159C49.1693 44.5598 49.0642 44.7352 49.0035 44.9301C48.9931 44.9634 48.9841 44.9973 48.9764 45.0317C48.9556 45.1241 48.9447 45.2202 48.9447 45.3188V48.2993ZM48.9447 51.045C49.6661 51.045 50.2508 51.6298 50.2508 52.3512V55.6999C50.2508 56.4212 49.6661 57.006 48.9447 57.006V51.045ZM48.9447 59.7517C49.6661 59.7517 50.2508 60.3365 50.2508 61.0579V64.4066C50.2508 65.1279 49.6661 65.7127 48.9447 65.7127V59.7517ZM48.9447 68.4584C49.6661 68.4584 50.2508 69.0432 50.2508 69.7646V73.1133C50.2508 73.8347 49.6661 74.4194 48.9447 74.4194V68.4584ZM48.9447 77.1651C49.6661 77.1651 50.2508 77.7499 50.2508 78.4713V81.82C50.2508 82.5414 49.6661 83.1261 48.9447 83.1261V77.1651ZM48.9447 85.8719C49.6661 85.8719 50.2508 86.4566 50.2508 87.178V90.5267C50.2508 91.2481 49.6661 91.8328 48.9447 91.8328V85.8719ZM59.1818 44.0127C59.1818 44.734 59.7666 45.3188 60.4879 45.3188H62.9253V46.9932C62.9253 47.7145 63.5101 48.2993 64.2315 48.2993V45.3188C64.2315 45.2202 64.2205 45.1241 64.1998 45.0317C64.1921 44.9973 64.183 44.9634 64.1726 44.9301C64.112 44.7352 64.0068 44.5598 63.8691 44.4159C63.8558 44.402 63.8422 44.3884 63.8283 44.3751C63.6844 44.2373 63.509 44.1322 63.314 44.0715C63.2807 44.0611 63.2469 44.0521 63.2125 44.0444C63.1201 44.0236 63.024 44.0127 62.9253 44.0127H59.1818ZM64.2315 94.5786C63.5101 94.5786 62.9253 95.1633 62.9253 95.8847V97.5591H60.4879C59.7666 97.5591 59.1818 98.1438 59.1818 98.8652H62.9253C63.024 98.8652 63.1201 98.8542 63.2125 98.8335C63.2469 98.8258 63.2807 98.8167 63.314 98.8064C63.509 98.7457 63.6843 98.6405 63.8283 98.5028C63.8422 98.4895 63.8558 98.4759 63.8691 98.462C64.0068 98.3181 64.112 98.1427 64.1726 97.9477C64.183 97.9144 64.1921 97.8806 64.1998 97.8462C64.2205 97.7538 64.2315 97.6577 64.2315 97.5591V94.5786Z" style="fill:var(--sapContent_Illustrative_Color6)"/>
<path d="M71.4252 45.3188C71.4252 44.5975 72.0099 44.0127 72.7313 44.0127H85.4058C86.1272 44.0127 86.7119 44.5975 86.7119 45.3188V97.5591C86.7119 98.2804 86.1272 98.8652 85.4058 98.8652H72.7313C72.0099 98.8652 71.4252 98.2804 71.4252 97.5591V45.3188Z" style="fill:var(--sapContent_Illustrative_Color7)"/>
<path fill-rule="evenodd" clip-rule="evenodd" d="M72.4442 98.8335C72.4098 98.8258 72.3759 98.8167 72.3426 98.8064C72.1476 98.7457 71.9723 98.6405 71.8284 98.5028C71.8145 98.4895 71.8008 98.4759 71.7875 98.462C71.6498 98.3181 71.5447 98.1427 71.484 97.9477C71.4736 97.9144 71.4645 97.8806 71.4568 97.8462C71.4361 97.7538 71.4252 97.6577 71.4252 97.5591V94.5786C72.1465 94.5786 72.7313 95.1633 72.7313 95.8847L72.7313 97.5591H75.1687C75.8901 97.5591 76.4748 98.1438 76.4748 98.8652H72.7313C72.6326 98.8652 72.5365 98.8542 72.4442 98.8335ZM86.7119 85.8719C85.9906 85.8719 85.4058 86.4566 85.4058 87.178V90.5267C85.4058 91.2481 85.9906 91.8328 86.7119 91.8328V85.8719ZM86.7119 77.1651C85.9906 77.1651 85.4058 77.7499 85.4058 78.4713V81.82C85.4058 82.5414 85.9906 83.1261 86.7119 83.1261V77.1651ZM86.7119 68.4584C85.9906 68.4584 85.4058 69.0432 85.4058 69.7646V73.1133C85.4058 73.8347 85.9906 74.4194 86.7119 74.4194V68.4584ZM86.7119 59.7517C85.9906 59.7517 85.4058 60.3365 85.4058 61.0579V64.4066C85.4058 65.1279 85.9906 65.7127 86.7119 65.7127V59.7517ZM86.7119 51.045C85.9906 51.045 85.4058 51.6298 85.4058 52.3512V55.6999C85.4058 56.4212 85.9906 57.006 86.7119 57.006V51.045ZM71.4252 48.2993C72.1465 48.2993 72.7313 47.7145 72.7313 46.9932V45.3188L75.1687 45.3188C75.8901 45.3188 76.4748 44.734 76.4748 44.0127H72.7313C72.6326 44.0127 72.5365 44.0236 72.4442 44.0444C72.4098 44.0521 72.3759 44.0611 72.3426 44.0715C72.1476 44.1322 71.9723 44.2373 71.8284 44.3751C71.8145 44.3884 71.8008 44.402 71.7875 44.4159C71.6498 44.5598 71.5447 44.7352 71.484 44.9301C71.4736 44.9634 71.4645 44.9973 71.4568 45.0317C71.4361 45.1241 71.4252 45.2202 71.4252 45.3188V48.2993ZM71.4252 51.045C72.1465 51.045 72.7313 51.6298 72.7313 52.3512V55.6999C72.7313 56.4212 72.1465 57.006 71.4252 57.006V51.045ZM71.4252 59.7517C72.1465 59.7517 72.7313 60.3365 72.7313 61.0579V64.4066C72.7313 65.1279 72.1465 65.7127 71.4252 65.7127V59.7517ZM71.4252 68.4584C72.1465 68.4584 72.7313 69.0432 72.7313 69.7646V73.1133C72.7313 73.8347 72.1465 74.4194 71.4252 74.4194V68.4584ZM71.4252 77.1651C72.1465 77.1651 72.7313 77.7499 72.7313 78.4713V81.82C72.7313 82.5414 72.1465 83.1261 71.4252 83.1261V77.1651ZM71.4252 85.8719C72.1465 85.8719 72.7313 86.4566 72.7313 87.178V90.5267C72.7313 91.2481 72.1465 91.8328 71.4252 91.8328V85.8719ZM81.6623 44.0127C81.6623 44.734 82.247 45.3188 82.9684 45.3188H85.4058V46.9932C85.4058 47.7145 85.9906 48.2993 86.7119 48.2993V45.3188C86.7119 45.2202 86.701 45.1241 86.6803 45.0317C86.6726 44.9973 86.6635 44.9634 86.6531 44.9301C86.5924 44.7352 86.4873 44.5598 86.3496 44.4159C86.3363 44.402 86.3226 44.3884 86.3087 44.3751C86.1648 44.2373 85.9895 44.1322 85.7945 44.0715C85.7612 44.0611 85.7273 44.0521 85.6929 44.0444C85.6006 44.0236 85.5045 44.0127 85.4058 44.0127H81.6623ZM86.7119 94.5786C85.9906 94.5786 85.4058 95.1633 85.4058 95.8847V97.5591H82.9684C82.247 97.5591 81.6623 98.1438 81.6623 98.8652H85.4058C85.5045 98.8652 85.6006 98.8542 85.6929 98.8335C85.7273 98.8258 85.7612 98.8167 85.7945 98.8064C85.9895 98.7457 86.1648 98.6405 86.3087 98.5028C86.3226 98.4895 86.3363 98.4759 86.3496 98.462C86.4873 98.3181 86.5924 98.1427 86.6531 97.9477C86.6635 97.9144 86.6726 97.8806 86.6803 97.8462C86.701 97.7538 86.7119 97.6577 86.7119 97.5591V94.5786Z" style="fill:var(--sapContent_Illustrative_Color6)"/>
<path opacity="0.5" d="M93.6517 83.0148C105.854 83.0148 115.747 73.0589 115.747 60.7571C115.747 48.4553 105.854 38.4932 93.6517 38.4932C81.4494 38.4932 71.5566 48.4491 71.5566 60.7571C71.5566 73.0651 81.4494 83.0148 93.6517 83.0148Z" style="fill:var(--sapContent_Illustrative_Color7)"/>
<path d="M102.38 41.0879L94.1236 38.4932L80.2788 79.1694L88.5416 81.7641L102.38 41.0879Z" style="fill:var(--sapContent_Illustrative_Color8)"/>
<path d="M91.7637 83.0149L105.873 42.264L103.305 41.4551L89.1898 82.2059L91.7637 83.0149Z" style="fill:var(--sapContent_Illustrative_Color8)"/>
<path d="M104.652 80.6006L98.6042 83.0149L102.468 92.473L108.51 90.0587L104.652 80.6006Z" style="fill:var(--sapContent_Illustrative_Color6)"/>
<path d="M102.689 91.7203C102.381 91.8458 102.137 92.0863 102.008 92.3894C101.88 92.6925 101.878 93.0336 102.003 93.3381L111.027 115.31C111.403 116.199 112.119 116.906 113.02 117.274C113.921 117.643 114.933 117.643 115.835 117.276L116.552 116.983C117.006 116.805 117.419 116.538 117.767 116.199C118.114 115.861 118.391 115.457 118.579 115.011C118.95 114.118 118.95 113.116 118.579 112.223L109.554 90.2767C109.492 90.1242 109.4 89.9854 109.283 89.8683C109.167 89.7513 109.028 89.6582 108.874 89.5946C108.721 89.531 108.556 89.498 108.39 89.4976C108.224 89.4972 108.059 89.5293 107.906 89.5922L102.689 91.7203Z" style="fill:var(--sapContent_Illustrative_Color3)"/>
<path d="M98.3903 82.5175L99.0196 84.0046C99.0196 84.0046 102.166 85.3922 105.489 82.4926L104.482 80.1094L101.707 81.441L98.3903 82.5175Z" style="fill:var(--sapContent_Illustrative_Color4)"/>
<path d="M93.8027 83.7867C88.4295 83.7997 83.2181 81.9694 79.0572 78.6078C74.8962 75.2463 72.0434 70.5617 70.9852 65.3528C69.927 60.144 70.7289 54.7335 73.2542 50.0439C75.7795 45.3543 79.8718 41.6761 84.8332 39.6364C89.7947 37.5968 95.3181 37.322 100.462 38.8589C105.605 40.3958 110.05 43.6493 113.039 48.0646C116.027 52.4798 117.374 57.7834 116.85 63.071C116.326 68.3585 113.963 73.3026 110.165 77.0602C105.827 81.3573 99.9426 83.7766 93.8027 83.7867ZM93.8027 39.7877C88.8702 39.7791 84.0874 41.4623 80.2695 44.5503C76.4517 47.6384 73.8352 51.9401 72.866 56.7222C71.8969 61.5042 72.6351 66.4706 74.9548 70.7747C77.2746 75.0789 81.0322 78.4543 85.5872 80.3255C90.1422 82.1968 95.2125 82.4481 99.9339 81.0366C104.655 79.6251 108.736 76.6382 111.479 72.585C114.222 68.5319 115.459 63.6633 114.978 58.8094C114.498 53.9555 112.33 49.4166 108.843 45.9666C106.87 44.0091 104.526 42.4557 101.945 41.3954C99.3646 40.3351 96.5975 39.7888 93.8027 39.7877Z" style="fill:var(--sapContent_Illustrative_Color4)"/>
<path d="M121.371 35.8694C121.168 35.76 120.94 35.7073 120.71 35.7167C120.48 35.726 120.257 35.7972 120.064 35.9226L115.394 38.7871C114.622 39.2605 114.597 40.1528 114.968 40.7575C115.111 41.0106 115.332 41.2104 115.599 41.327C115.865 41.4435 116.162 41.4705 116.445 41.404C116.581 41.3677 116.711 41.3111 116.829 41.2362L121.499 38.3717C121.706 38.2502 121.877 38.075 121.993 37.8646C122.109 37.6541 122.166 37.4163 122.158 37.1763C122.149 36.9094 122.072 36.6493 121.934 36.4206C121.796 36.1919 121.602 36.0021 121.371 35.8694Z" style="fill:var(--sapContent_Illustrative_Color5)"/>
<path d="M94.3372 23.4519C94.1726 23.4603 94.0116 23.503 93.8645 23.5771C93.7173 23.6512 93.5872 23.7551 93.4824 23.8823C93.3777 24.0094 93.3006 24.157 93.2561 24.3155C93.2116 24.4741 93.2007 24.6401 93.224 24.8031L93.7372 30.11C93.7563 30.3007 93.8133 30.4858 93.9047 30.6542C93.9962 30.8227 94.1203 30.9712 94.2699 31.0912C94.4194 31.2111 94.5914 31.3001 94.7758 31.3529C94.9603 31.4057 95.1533 31.4212 95.3439 31.3986C95.4227 31.3914 95.5008 31.3778 95.5774 31.3579C95.8615 31.2885 96.1093 31.1152 96.272 30.8723C96.4347 30.6293 96.5004 30.3344 96.4563 30.0455L95.942 24.7412C95.9233 24.5504 95.8666 24.3654 95.7754 24.1968C95.6842 24.0283 95.5602 23.8796 95.4108 23.7596C95.2613 23.6395 95.0894 23.5505 94.9051 23.4976C94.7207 23.4448 94.5276 23.4293 94.3372 23.4519Z" style="fill:var(--sapContent_Illustrative_Color5)"/>
<path d="M109.225 24.9837C109.054 25.0393 108.896 25.1293 108.761 25.2481C108.625 25.3668 108.516 25.5119 108.439 25.6744L104.899 32.9292C104.742 33.2554 104.718 33.6296 104.83 33.9734C104.943 34.3172 105.185 34.6041 105.504 34.7741C105.801 34.9305 106.146 34.9695 106.471 34.8836C106.658 34.8337 106.832 34.7441 106.982 34.6209C107.131 34.4978 107.252 34.3439 107.337 34.1698L110.876 26.915C111.034 26.5871 111.059 26.2107 110.945 25.8652C110.831 25.5196 110.588 25.2316 110.266 25.0618C110.106 24.9794 109.932 24.93 109.753 24.9166C109.575 24.9032 109.395 24.926 109.225 24.9837Z" style="fill:var(--sapContent_Illustrative_Color5)"/>
</g>
</svg>
