<svg width="160" height="160" viewBox="0 0 160 160" fill="none" xmlns="http://www.w3.org/2000/svg" id="sapIllus-Dialog-PageNotFound">
<mask id="mask0_2331_5787" style="mask-type:alpha" maskUnits="userSpaceOnUse" x="0" y="0" width="160" height="160">
<circle cx="80" cy="80" r="80" style="fill:var(--sapContent_Illustrative_Color7)"/>
</mask>
<g mask="url(#mask0_2331_5787)">
<path d="M194.939 -2.35253H-33.3699C-34.8581 -2.35396 -36.3319 -2.0518 -37.7072 -1.46336C-39.0825 -0.874919 -40.3322 -0.0117145 -41.385 1.0769C-42.4378 2.16552 -43.273 3.45821 -43.8428 4.88108C-44.4126 6.30395 -44.7059 7.8291 -44.7059 9.36935V148.268C-44.7059 151.379 -43.5116 154.364 -41.3857 156.564C-39.2598 158.764 -36.3764 160 -33.3699 160H194.939C197.945 160 200.828 158.764 202.954 156.564C205.08 154.364 206.275 151.379 206.275 148.268V9.36935C206.275 7.8291 205.981 6.30395 205.411 4.88108C204.842 3.45821 204.006 2.16552 202.954 1.0769C201.901 -0.0117145 200.651 -0.874919 199.276 -1.46336C197.901 -2.0518 196.427 -2.35396 194.939 -2.35253Z" style="fill:var(--sapContent_Illustrative_Color7)"/>
<path d="M-30.981 81.3535H76.0164C76.6007 81.3445 77.169 81.5437 77.6197 81.9155C78.0704 82.2873 78.374 82.8074 78.4762 83.3826L91.488 150.623C91.5704 150.988 91.5685 151.367 91.4824 151.731C91.3963 152.095 91.2282 152.434 90.9911 152.724C90.7539 153.013 90.4538 153.244 90.1137 153.4C89.7735 153.556 89.4024 153.632 89.0283 153.623H-16.7393C-17.3152 153.622 -17.8733 153.424 -18.3208 153.061C-18.7683 152.699 -19.0782 152.194 -19.199 151.631L-33.4407 84.391C-33.5297 84.0236 -33.5328 83.6404 -33.4498 83.2716C-33.3667 82.9028 -33.1997 82.5582 -32.9618 82.2644C-32.7238 81.9706 -32.4214 81.7354 -32.0779 81.5775C-31.7344 81.4195 -31.359 81.3429 -30.981 81.3535ZM-20.4043 99.3073L-12.238 144.019C-12.1411 144.599 -11.8397 145.125 -11.3885 145.502C-10.9373 145.878 -10.3661 146.081 -9.77832 146.073H63.89C64.2615 146.081 64.63 146.005 64.9679 145.851C65.3058 145.696 65.6044 145.467 65.841 145.181C66.0777 144.895 66.2465 144.558 66.3346 144.197C66.4227 143.836 66.4279 143.46 66.3498 143.097L63.3981 127.591H74.9342C75.3052 127.586 75.6707 127.501 76.005 127.34C76.3393 127.179 76.6342 126.947 76.8688 126.659C77.1035 126.372 77.2721 126.037 77.3628 125.677C77.4535 125.317 77.4641 124.942 77.3939 124.578L71.0724 91.019C70.9622 90.4444 70.6576 89.9255 70.2096 89.5492C69.7616 89.173 69.1977 88.9625 68.6127 88.9531H37.1284C36.7587 88.9576 36.3944 89.0428 36.0611 89.2029C35.7278 89.3631 35.4337 89.5943 35.1993 89.8802C34.9649 90.1662 34.7959 90.5 34.7042 90.8582C34.6126 91.2164 34.6005 91.5902 34.6687 91.9536L35.5296 96.5282L-17.8831 96.3437C-18.2583 96.3262 -18.6326 96.3949 -18.9772 96.5445C-19.3218 96.6942 -19.6275 96.9208 -19.8709 97.207C-20.1143 97.4931 -20.289 97.8311 -20.3814 98.1951C-20.4739 98.5592 -20.4817 98.9397 -20.4043 99.3073Z" style="fill:var(--sapContent_Illustrative_Color18)"/>
<path d="M123.919 153.623H12.1746L15.2984 158.062C15.6733 158.594 16.1706 159.029 16.7485 159.328C17.3265 159.628 17.968 159.784 18.619 159.784H-16.5302C-17.1826 159.784 -17.8082 159.525 -18.2695 159.063C-18.7308 158.602 -18.9899 157.977 -18.9899 157.324V156.205C-18.9899 155.553 -18.7308 154.928 -18.2695 154.466C-17.8082 154.005 -17.1826 153.746 -16.5302 153.746H123.919V153.623Z" style="fill:var(--sapContent_Illustrative_Color19)"/>
<path d="M15.2984 158.062L12.1746 153.623H123.919V157.607C123.919 158.185 123.69 158.738 123.282 159.146C122.874 159.555 122.32 159.784 121.742 159.784H18.619C17.968 159.784 17.3265 159.628 16.7485 159.328C16.1706 159.029 15.6733 158.594 15.2984 158.062Z" style="fill:var(--sapContent_Illustrative_Color19)"/>
<path d="M55.4041 96.6009L35.4681 96.5272L34.6072 91.9526C34.539 91.5892 34.5511 91.2154 34.6428 90.8572C34.7345 90.499 34.9034 90.1652 35.1378 89.8792C35.3722 89.5933 35.6664 89.3621 35.9997 89.2019C36.3329 89.0418 36.6972 88.9566 37.0669 88.9521H68.5512C69.1362 88.9615 69.7001 89.172 70.1481 89.5482C70.5961 89.9245 70.9008 90.4434 71.0109 91.018L77.3324 124.577C77.4026 124.941 77.3921 125.316 77.3013 125.676C77.2106 126.036 77.042 126.371 76.8073 126.658C76.5727 126.946 76.2778 127.178 75.9435 127.339C75.6092 127.5 75.2437 127.585 74.8727 127.589H63.3367L57.8146 98.6422C57.7164 98.0731 57.4211 97.5567 56.9803 97.1834C56.5396 96.8102 55.9816 96.604 55.4041 96.6009Z" style="fill:var(--sapContent_Illustrative_Color19)"/>
<path d="M37.3621 114.321C37.2608 114.227 37.18 114.113 37.1248 113.986C37.0695 113.859 37.041 113.722 37.041 113.584C37.041 113.445 37.0695 113.308 37.1248 113.181C37.18 113.054 37.2608 112.94 37.3621 112.846C37.4574 112.746 37.5719 112.667 37.6988 112.613C37.8256 112.558 37.9621 112.53 38.1 112.53C38.2379 112.53 38.3744 112.558 38.5013 112.613C38.6281 112.667 38.7426 112.746 38.8379 112.846L41.2977 115.305L43.7574 112.846C43.9567 112.669 44.2161 112.574 44.4826 112.582C44.7491 112.59 45.0025 112.699 45.191 112.888C45.3795 113.076 45.4889 113.33 45.4968 113.596C45.5046 113.863 45.4103 114.122 45.2332 114.321L42.7735 116.781L45.2332 119.24C45.3397 119.335 45.4257 119.45 45.486 119.579C45.5463 119.709 45.5795 119.849 45.5837 119.991C45.5879 120.133 45.563 120.275 45.5104 120.407C45.4578 120.54 45.3787 120.66 45.278 120.761C45.1772 120.861 45.057 120.941 44.9246 120.993C44.7922 121.046 44.6504 121.071 44.508 121.066C44.3656 121.062 44.2256 121.029 44.0965 120.969C43.9674 120.908 43.852 120.822 43.7574 120.716L41.2977 118.257L38.8379 120.716C38.7426 120.816 38.6281 120.895 38.5013 120.949C38.3744 121.003 38.2379 121.032 38.1 121.032C37.9621 121.032 37.8256 121.003 37.6988 120.949C37.5719 120.895 37.4574 120.816 37.3621 120.716C37.2608 120.622 37.18 120.507 37.1248 120.38C37.0695 120.254 37.041 120.117 37.041 119.978C37.041 119.84 37.0695 119.703 37.1248 119.576C37.18 119.449 37.2608 119.335 37.3621 119.24L39.8218 116.781L37.3621 114.321Z" style="fill:var(--sapContent_Illustrative_Color8)"/>
<path d="M-17.92 96.3433L35.4927 96.5278L55.4286 96.6015C56.0146 96.593 56.5844 96.7939 57.0354 97.1682C57.4863 97.5424 57.7888 98.0654 57.8884 98.6429L63.4104 127.59L66.3621 143.097C66.4402 143.46 66.435 143.836 66.3469 144.197C66.2588 144.558 66.0901 144.894 65.8534 145.181C65.6167 145.467 65.3182 145.696 64.9803 145.85C64.6424 146.005 64.2738 146.081 63.9024 146.072H-9.69221C-10.28 146.081 -10.8512 145.878 -11.3024 145.501C-11.7536 145.124 -12.055 144.599 -12.1519 144.019L-20.3797 99.307C-20.4557 98.9446 -20.4489 98.5697 -20.3598 98.2104C-20.2707 97.8511 -20.1016 97.5164 -19.8651 97.2315C-19.6287 96.9466 -19.3309 96.7188 -18.9941 96.565C-18.6573 96.4112 -18.2901 96.3355 -17.92 96.3433Z" style="fill:var(--sapContent_Illustrative_Color7)"/>
<path d="M194.434 129.865H161.127C160.021 129.865 159.125 130.762 159.125 131.867V135.996C159.125 137.102 160.021 137.998 161.127 137.998H194.434C195.54 137.998 196.436 137.102 196.436 135.996V131.867C196.436 130.762 195.54 129.865 194.434 129.865Z" style="fill:var(--sapContent_Illustrative_Color18)"/>
<path d="M168.753 37.4688L118.134 20.1293C115.984 19.3992 113.652 20.5349 112.922 22.6846L87.6936 96.3217C86.9636 98.4714 88.0993 100.804 90.2489 101.534L140.868 118.873C143.018 119.603 145.35 118.468 146.08 116.318L171.309 42.6808C172.039 40.5311 170.903 38.1989 168.753 37.4688Z" style="fill:var(--sapContent_Illustrative_Color18)"/>
<path d="M138.394 38.7265C136.731 38.0573 134.885 37.895 133.141 38.2804C131.377 38.6454 129.775 39.5377 128.517 40.8357C127.26 42.1336 126.408 43.756 126.084 45.5204C125.759 47.2847 125.962 49.1099 126.672 50.7729C127.382 52.4359 128.558 53.8352 130.079 54.8087C131.58 55.7821 133.344 56.3094 135.149 56.2688C136.954 56.2486 138.698 55.6807 140.179 54.6667C141.659 53.6527 142.815 52.2128 143.484 50.5498L135.027 47.1833L138.414 38.7265H138.394Z" style="fill:var(--sapContent_Illustrative_Color7)"/>
<path d="M141.091 37.4893L137.725 45.9258L146.161 49.2923C146.607 48.1769 146.831 47.0006 146.81 45.8041C146.81 44.6076 146.547 43.4313 146.08 42.3362C145.614 41.2411 144.924 40.2474 144.072 39.4159C143.221 38.5844 142.207 37.9354 141.091 37.4893Z" style="fill:var(--sapContent_Illustrative_Color19)"/>
<path d="M148.108 67.6877L112.841 55.6008C111.665 55.1952 110.407 55.8239 110.002 57.0001C109.596 58.1764 110.225 59.4337 111.401 59.8393L146.668 71.9263C147.844 72.3319 149.102 71.7032 149.507 70.527C149.913 69.3507 149.284 68.0933 148.108 67.6877Z" style="fill:var(--sapContent_Illustrative_Color7)"/>
<path d="M145.066 74.8674L109.799 62.7805C108.623 62.3749 107.365 63.0036 106.96 64.1798C106.554 65.356 107.183 66.6134 108.359 67.019L143.626 79.106C144.802 79.5116 146.08 78.8829 146.465 77.7066C146.871 76.5304 146.242 75.273 145.066 74.8674Z" style="fill:var(--sapContent_Illustrative_Color7)"/>
<path d="M125.678 76.2454L106.899 69.8166C105.723 69.411 104.445 70.0397 104.06 71.2159C103.654 72.3922 104.283 73.6495 105.459 74.0552L124.259 80.4839C125.435 80.8896 126.692 80.2609 127.098 79.0846C127.504 77.9084 126.875 76.651 125.699 76.2454H125.678Z" style="fill:var(--sapContent_Illustrative_Color7)"/>
<path d="M117.379 26.8609L44.0437 38.4249C40.5108 38.982 38.0985 42.2975 38.6556 45.8303L54.9631 149.248C55.5202 152.781 58.8357 155.193 62.3685 154.636L135.704 143.072C139.237 142.515 141.649 139.2 141.092 135.667L124.785 32.249C124.228 28.7162 120.912 26.3039 117.379 26.8609Z" style="fill:var(--sapContent_Illustrative_Color8)"/>
<path fill-rule="evenodd" clip-rule="evenodd" d="M44.0437 38.4249C43.3536 38.5337 42.7062 38.7478 42.1154 39.0482C41.7345 39.2419 41.3772 39.4714 41.047 39.7317C40.7097 39.9976 40.4009 40.2956 40.1243 40.6203C40.8575 41.551 42.1685 41.8667 43.265 41.3092C43.6215 41.1279 44.0146 40.9973 44.4387 40.9304L49.3278 40.1595C50.7115 39.9413 51.6564 38.6426 51.4382 37.2589L44.0437 38.4249ZM61.0944 35.7363C61.3126 37.12 62.6112 38.0649 63.9949 37.8467L73.773 36.3048C75.1568 36.0866 76.1016 34.788 75.8834 33.4042L61.0944 35.7363ZM85.5396 31.8816C85.7578 33.2653 87.0565 34.2102 88.4402 33.992L98.2183 32.4501C99.602 32.2319 100.547 30.9333 100.329 29.5496L85.5396 31.8816ZM109.985 28.0269C110.203 29.4107 111.502 30.3555 112.885 30.1373L117.774 29.3664C118.199 29.2995 118.613 29.3028 119.008 29.3656C120.223 29.5586 121.373 28.8548 121.784 27.7437C121.421 27.5198 121.035 27.3313 120.633 27.1821C120.239 27.0361 119.828 26.9277 119.406 26.8606C118.751 26.7566 118.07 26.7521 117.379 26.8609L109.985 28.0269ZM122.589 28.3296C121.659 29.0628 121.343 30.3738 121.901 31.4703C122.082 31.8269 122.212 32.2199 122.279 32.6441L123.095 37.815C123.313 39.1987 124.612 40.1436 125.995 39.9254L124.785 32.249C124.676 31.5589 124.462 30.9115 124.162 30.3207C123.968 29.9399 123.738 29.5825 123.478 29.2523C123.212 28.9151 122.914 28.6062 122.589 28.3296ZM127.651 50.4271C126.268 50.6453 125.323 51.9439 125.541 53.3276L127.172 63.6694C127.39 65.0532 128.688 65.998 130.072 65.7798L127.651 50.4271ZM131.728 76.2815C130.344 76.4997 129.4 77.7984 129.618 79.1821L131.248 89.5239C131.467 90.9076 132.765 91.8524 134.149 91.6342L131.728 76.2815ZM135.805 102.136C134.421 102.354 133.476 103.653 133.695 105.037L135.325 115.378C135.544 116.762 136.842 117.707 138.226 117.489L135.805 102.136ZM139.882 127.99C138.498 128.209 137.553 129.507 137.771 130.891L138.587 136.062C138.654 136.486 138.65 136.9 138.588 137.295C138.395 138.51 139.098 139.66 140.21 140.072C140.433 139.708 140.622 139.323 140.771 138.92C140.917 138.526 141.026 138.115 141.093 137.693C141.197 137.039 141.201 136.357 141.092 135.667L139.882 127.99ZM139.624 140.877C138.89 139.946 137.579 139.63 136.483 140.188C136.126 140.369 135.733 140.5 135.309 140.567L130.42 141.338C129.036 141.556 128.092 142.854 128.31 144.238L135.704 143.072C136.394 142.963 137.042 142.749 137.633 142.449C138.013 142.255 138.371 142.026 138.701 141.765C139.038 141.5 139.347 141.202 139.624 140.877ZM118.654 145.761C118.435 144.377 117.137 143.432 115.753 143.65L105.975 145.192C104.591 145.411 103.646 146.709 103.864 148.093L118.654 145.761ZM94.2083 149.616C93.9901 148.232 92.6915 147.287 91.3077 147.505L81.5296 149.047C80.1459 149.265 79.201 150.564 79.4192 151.948L94.2083 149.616ZM69.763 153.47C69.5448 152.086 68.2462 151.142 66.8625 151.36L61.9734 152.131C61.5493 152.198 61.1351 152.194 60.74 152.132C59.5252 151.938 58.375 152.642 57.9637 153.753C58.3268 153.977 58.7124 154.166 59.1151 154.315C59.5094 154.461 59.92 154.569 60.342 154.637C60.9966 154.741 61.6784 154.745 62.3685 154.636L69.763 153.47ZM57.1584 153.167C58.0891 152.434 58.4048 151.123 57.8473 150.027C57.666 149.67 57.5354 149.277 57.4685 148.853L56.6532 143.682C56.435 142.298 55.1364 141.354 53.7526 141.572L54.9631 149.248C55.0719 149.938 55.286 150.586 55.5864 151.176C55.78 151.557 56.0095 151.915 56.2698 152.245C56.5357 152.582 56.8337 152.891 57.1584 153.167ZM52.0967 131.07C53.4804 130.852 54.4252 129.553 54.207 128.169L52.5763 117.828C52.3581 116.444 51.0595 115.499 49.6757 115.717L52.0967 131.07ZM48.0198 105.216C49.4035 104.997 50.3484 103.699 50.1302 102.315L48.4994 91.9733C48.2812 90.5895 46.9826 89.6447 45.5989 89.8629L48.0198 105.216ZM43.9429 79.3611C45.3266 79.1429 46.2715 77.8443 46.0533 76.4606L44.4226 66.1188C44.2044 64.7351 42.9057 63.7902 41.522 64.0084L43.9429 79.3611ZM39.866 53.5067C41.2498 53.2885 42.1946 51.9899 41.9764 50.6062L41.1611 45.4353C41.0942 45.0111 41.0975 44.597 41.1603 44.2019C41.3533 42.9871 40.6495 41.8368 39.5384 41.4256C39.3145 41.7887 39.126 42.1743 38.9768 42.577C38.8307 42.9712 38.7223 43.3819 38.6553 43.8038C38.5513 44.4584 38.5468 45.1402 38.6556 45.8303L39.866 53.5067Z" style="fill:var(--sapContent_Illustrative_Color3)"/>
<path d="M107.276 87.2755C108.78 96.8168 102.265 105.771 92.7238 107.275C83.1826 108.78 74.2283 102.264 72.7239 92.7232C71.2195 83.1819 77.7347 74.2278 87.2759 72.7235C96.8171 71.2191 105.771 77.7343 107.276 87.2755Z" style="fill:var(--sapContent_Illustrative_Color8)"/>
<path d="M87.2759 72.7235C83.8591 73.2622 80.6787 74.802 78.137 77.1482C75.5953 79.4945 73.8065 82.542 72.9966 85.9049C72.1868 89.2678 72.3923 92.7951 73.5873 96.0412C74.7823 99.2873 76.913 102.106 79.71 104.141C82.5071 106.176 85.8448 107.336 89.3011 107.475C92.7574 107.613 96.1771 106.723 99.1276 104.918C102.078 103.113 104.427 100.473 105.878 97.3325C107.328 94.1922 107.814 90.6924 107.276 87.2755C106.553 82.6937 104.04 78.5865 100.29 75.8575C96.539 73.1284 91.8578 72.0011 87.2759 72.7235ZM91.6342 100.365C91.1217 100.446 90.5967 100.373 90.1257 100.155C89.6546 99.9378 89.2587 99.5852 88.9879 99.1426C88.7171 98.7 88.5836 98.1874 88.6044 97.6689C88.6251 97.1505 88.7991 96.6498 89.1044 96.2302C89.4096 95.8107 89.8324 95.4908 90.3193 95.3116C90.8062 95.1324 91.3354 95.1017 91.8398 95.2232C92.3443 95.3446 92.8014 95.613 93.1533 95.9943C93.5053 96.3755 93.7362 96.8524 93.817 97.3649C93.9254 98.0522 93.7563 98.7546 93.347 99.3172C92.9376 99.8798 92.3215 100.257 91.6342 100.365ZM92.9747 91.1241C92.7546 91.2742 92.5439 91.4375 92.3436 91.613C92.251 92.1222 91.9808 92.5821 91.581 92.9107C91.1812 93.2394 90.6778 93.4156 90.1603 93.4079C89.6429 93.4003 89.1448 93.2091 88.7549 92.8687C88.365 92.5284 88.1085 92.0608 88.031 91.5491C87.7205 89.5796 89.3119 88.4434 90.3713 87.639C91.8618 86.5364 92.4593 85.9465 92.2659 84.7199C92.0725 83.4933 90.5433 82.7783 88.9021 83.0371C87.2609 83.2959 86.0368 84.5158 86.2193 85.6733C86.3096 86.246 86.1687 86.8314 85.8276 87.3002C85.4865 87.7691 84.973 88.0829 84.4003 88.1732C83.8276 88.2635 83.2425 88.1229 82.7736 87.7817C82.3048 87.4406 81.9906 86.927 81.9003 86.3542C81.8309 84.5235 82.4353 82.731 83.599 81.316C84.7627 79.901 86.4049 78.9621 88.2146 78.6768C90.0243 78.3915 91.8758 78.7795 93.4184 79.7678C94.961 80.7561 96.0876 82.2757 96.5848 84.039C96.7492 85.4444 96.4942 86.8672 95.8518 88.1279C95.2094 89.3886 94.2083 90.4311 92.9747 91.1241Z" style="fill:var(--sapContent_Illustrative_Color14)"/>
</g>
<path d="M0.534585 42.6079C0.766563 42.3303 1.06909 42.1203 1.41034 42.0001C1.75159 41.8799 2.11893 41.8539 2.47372 41.9248L10.9563 43.3921C12.3593 43.634 12.9138 44.9236 12.7239 46.0233C12.6626 46.4762 12.4559 46.8969 12.1349 47.2222C11.814 47.5476 11.3961 47.76 10.944 47.8275C10.7247 47.8536 10.5026 47.8463 10.2854 47.806L1.80284 46.3388C1.42937 46.2821 1.07817 46.1254 0.786431 45.8855C0.494689 45.6455 0.273246 45.3312 0.145535 44.9757C0.00338268 44.5805 -0.0355015 44.1556 0.0325842 43.7413C0.10067 43.3269 0.273466 42.9368 0.534585 42.6079Z" style="fill:var(--sapContent_Illustrative_Color5)"/>
<path d="M32.7769 8.7273C33.022 8.64386 33.2818 8.61244 33.5398 8.63504C33.7977 8.65765 34.0481 8.73379 34.275 8.85859C34.5019 8.9834 34.7002 9.15414 34.8574 9.35991C35.0145 9.56567 35.1271 9.80195 35.1878 10.0536L37.5252 18.1066C37.6082 18.3965 37.6327 18.6999 37.5972 18.9993C37.5616 19.2987 37.4668 19.588 37.3182 19.8504C37.1697 20.1127 36.9703 20.3429 36.7318 20.5273C36.4933 20.7118 36.2204 20.8469 35.9291 20.9247C35.8099 20.9602 35.688 20.9858 35.5646 21.0013C35.1094 21.0652 34.6469 20.9563 34.2681 20.696C33.8893 20.4358 33.6218 20.0431 33.5182 19.5953L31.1839 11.5454C31.1004 11.2558 31.0754 10.9524 31.1106 10.653C31.1457 10.3536 31.2402 10.0643 31.3886 9.80185C31.5369 9.53943 31.7361 9.30924 31.9745 9.12473C32.2128 8.94022 32.4857 8.80511 32.7769 8.7273Z" style="fill:var(--sapContent_Illustrative_Color5)"/>
<path d="M11.9335 19.6323C12.2158 19.614 12.4989 19.6534 12.7654 19.7482C13.0319 19.843 13.2763 19.9912 13.4836 20.1837L22.8699 28.7237C23.2887 29.1091 23.5423 29.6414 23.5777 30.2094C23.6131 30.7774 23.4275 31.3371 23.0598 31.7715C22.7171 32.173 22.236 32.431 21.7119 32.4944C21.4098 32.5305 21.1034 32.501 20.8137 32.4079C20.524 32.3149 20.2578 32.1605 20.0332 31.9553L10.6469 23.4153C10.2255 23.0281 9.97053 22.4926 9.93569 21.9214C9.90084 21.3502 10.0888 20.7877 10.46 20.3521C10.6445 20.1391 10.8701 19.9655 11.1233 19.8418C11.3765 19.7181 11.6521 19.6469 11.9335 19.6323Z" style="fill:var(--sapContent_Illustrative_Color5)"/>
</svg>
