<svg width="320" height="240" viewBox="0 0 320 240" fill="none" xmlns="http://www.w3.org/2000/svg" id="sapIllus-Scene-NewMail">
<rect y="67" width="320" height="138" rx="24" fill="var(--sapContent_Illustrative_Color20)"/>
<g clip-path="url(#clip0_6865_476400)">
<path d="M189.99 117.96C189.75 117.62 189.28 117.55 188.94 117.8L177.999 124.592C177.789 124.752 177.416 124.56 177.346 124.8C176.442 123.924 176.87 124.622 176.664 124.39C176.664 124.35 176.32 124.84 176.33 124.8C176.35 124.66 176.36 124.51 176.37 124.36C176.37 124.21 176.38 124.05 176.39 123.88C176.39 123.84 176.39 123.79 176.39 123.75C176.39 123.62 176.39 123.49 176.39 123.36V123.22C176.39 123.08 176.39 122.93 176.39 122.78C176.39 122.74 176.39 122.71 176.39 122.67C176.39 122.48 176.38 122.29 176.36 122.09C176.1 117.43 174.29 110.52 167.56 107.79C165.31 106.88 162.98 106.28 160.62 105.78C160.26 105.7 159.89 105.65 159.52 105.62C159.25 105.34 158.97 105.07 158.7 104.8C158.41 104.51 158.11 104.23 157.81 103.95C155.68 101.93 153.44 100.02 151.25 98.12C147.19 94.61 143.07 90.4 137.7 89.02C134.79 88.27 131.91 87.23 129.44 85.52C128.51 84.88 127.48 84.32 126.36 84.15C123.92 83.79 121.55 82.97 119.41 81.75C117.77 80.81 116.3 79.43 114.61 78.54C114.49 78.48 114.37 78.42 114.25 78.36C114.23 78.36 114.22 78.35 114.2 78.34C114.09 78.29 113.99 78.24 113.88 78.2C113.83 78.18 113.78 78.16 113.74 78.14C113.66 78.11 113.58 78.08 113.49 78.05C113.35 78 113.21 77.96 113.08 77.92C112.88 77.87 112.65 77.83 112.49 77.96C112.2 78.18 112.39 78.64 112.6 78.94C113.38 80.06 114.16 81.18 114.94 82.3C115.06 82.47 115.19 82.65 115.31 82.83C115.43 83.01 115.56 83.19 115.69 83.37C115.82 83.55 115.95 83.74 116.08 83.93C116.21 84.12 116.35 84.3 116.48 84.49C116.61 84.68 116.75 84.87 116.88 85.06C116.95 85.16 117.01 85.25 117.08 85.35C117.21 85.54 117.35 85.73 117.48 85.92C117.55 86.01 117.61 86.11 117.68 86.2C117.88 86.48 118.08 86.76 118.27 87.03C118.4 87.21 118.53 87.39 118.66 87.57C118.79 87.75 118.91 87.92 119.04 88.09C119.35 88.52 119.64 88.92 119.92 89.3C120.08 89.52 120.24 89.74 120.39 89.94C120.94 90.67 121.36 91.22 121.6 91.48C122.287 92.2274 118.801 92.2023 118.09 92.17C117.19 92.13 116.33 91.6 115.6 91.11C114.88 90.62 114.21 90.08 113.48 89.61C112.92 89.25 112.33 88.94 111.69 88.76C111.17 88.61 110.64 88.56 110.11 88.47C106.05 87.81 102.99 85.38 99.5999 83.29C99.2999 83.1 99.0099 82.94 98.7399 82.79C98.7399 82.79 98.7399 82.79 98.7299 82.79C98.6499 82.75 98.5699 82.71 98.4899 82.67C98.4699 82.67 98.4599 82.65 98.4399 82.64C98.3799 82.61 98.3099 82.58 98.2499 82.55C98.2299 82.54 98.2099 82.53 98.1899 82.52C98.1299 82.49 98.0799 82.47 98.0299 82.45C98.0099 82.45 97.9899 82.43 97.9699 82.43C97.9199 82.41 97.8699 82.39 97.8199 82.38C97.7999 82.38 97.7799 82.37 97.7599 82.36C97.7099 82.34 97.6599 82.33 97.6199 82.32C97.6099 82.32 97.5899 82.32 97.5799 82.32C97.4699 82.3 97.3699 82.29 97.2799 82.31C97.2699 82.31 97.2599 82.31 97.2499 82.31C97.2199 82.31 97.1899 82.33 97.1699 82.34C97.1599 82.34 97.1499 82.35 97.1299 82.36C97.1099 82.37 97.0899 82.39 97.0699 82.4C97.0599 82.41 97.0499 82.42 97.0399 82.43C97.0299 82.45 97.0099 82.47 96.9999 82.49C96.9399 82.61 96.9299 82.76 96.9599 82.89C96.9599 82.93 96.9799 82.97 96.9899 83C97.0299 83.11 97.0999 83.21 97.1699 83.3C97.2399 83.4 97.3099 83.49 97.3799 83.59C97.4299 83.67 97.4799 83.74 97.5399 83.81C97.5999 83.9 97.6599 83.98 97.7199 84.07C97.7899 84.17 97.8499 84.26 97.9199 84.36C97.9899 84.47 98.0699 84.57 98.1399 84.68C98.2199 84.8 98.2999 84.91 98.3799 85.03C98.4699 85.15 98.5499 85.28 98.6399 85.4C98.7299 85.53 98.8199 85.66 98.9099 85.79C99.0099 85.93 99.0999 86.06 99.1999 86.2C99.2999 86.34 99.3999 86.49 99.4999 86.63C99.5999 86.78 99.7099 86.93 99.8099 87.07C99.9199 87.22 100.02 87.37 100.13 87.52C100.24 87.67 100.35 87.83 100.46 87.99C100.57 88.15 100.68 88.31 100.79 88.46C100.9 88.62 101.01 88.78 101.13 88.94C101.24 89.1 101.36 89.26 101.47 89.42C101.58 89.58 101.7 89.74 101.81 89.9C101.92 90.06 102.04 90.22 102.15 90.38C102.26 90.54 102.37 90.7 102.49 90.85C102.6 91.01 102.71 91.16 102.82 91.32C102.93 91.47 103.04 91.63 103.15 91.78C103.26 91.93 103.36 92.08 103.47 92.23C103.57 92.37 103.68 92.52 103.78 92.66C103.88 92.8 103.98 92.94 104.09 93.08C104.19 93.21 104.28 93.35 104.38 93.48C104.47 93.61 104.57 93.74 104.66 93.86C104.75 93.98 104.84 94.1 104.93 94.22C105.01 94.33 105.1 94.44 105.18 94.55C105.26 94.65 105.33 94.75 105.41 94.86C105.48 94.95 105.55 95.04 105.62 95.14C105.67 95.2 105.71 95.26 105.75 95.31C105.95 95.56 106.11 95.75 106.22 95.88C106.24 95.9 106.25 95.92 106.27 95.94C106.24 95.94 106.22 95.94 106.19 95.93C105.94 95.89 105.7 95.86 105.45 95.81C105.44 95.81 105.42 95.81 105.41 95.81C104.9 95.72 104.39 95.61 103.88 95.48C103.86 95.48 103.85 95.48 103.83 95.47C103.58 95.4 103.34 95.33 103.09 95.25C103.08 95.25 103.06 95.25 103.05 95.24C102.55 95.08 102.05 94.89 101.57 94.66C101.26 94.52 100.96 94.36 100.66 94.19C99.3799 93.45 98.2799 92.46 97.2399 91.41C96.2299 90.4 95.1899 89.49 94.1199 88.53C92.2499 86.85 90.3699 85.18 88.4899 83.51C86.4899 81.73 84.4899 79.96 82.4799 78.2C81.4399 77.29 80.3899 76.4 79.3599 75.48C78.3499 74.58 77.3099 73.71 76.1799 72.98C76.0399 72.89 75.9099 72.81 75.7699 72.72C75.4199 72.51 75.0499 72.31 74.6999 72.09C74.5899 72.02 74.4899 71.94 74.3799 71.86C74.3599 71.79 74.3399 71.73 74.3199 71.66C74.1499 71.52 73.9699 71.39 73.7799 71.3C73.7299 71.27 73.6799 71.26 73.6399 71.25H73.6299C73.5499 71.24 73.4899 71.28 73.4699 71.37C73.4199 71.4 73.3899 71.46 73.3899 71.57C73.3899 71.68 73.4399 71.88 73.5199 72.12C73.9599 73.36 74.5999 74.51 75.2099 75.67C75.3899 76.01 75.8499 76.85 76.1499 77.4C76.1699 77.43 76.1699 77.47 76.1699 77.5C76.1199 77.53 76.0599 77.54 76.0099 77.5C75.1699 76.96 73.5799 75.99 73.3399 76.3C73.3199 76.32 73.3199 76.34 73.3099 76.37C73.2899 76.37 73.2799 76.39 73.2699 76.4C73.2099 76.48 73.2399 76.64 73.3799 76.91C73.7899 77.67 74.3899 78.61 74.9199 79.42C74.9499 79.47 75.1799 79.8 75.4299 80.17C75.5099 80.28 75.5099 80.4 75.4599 80.5C75.3599 80.61 75.1999 80.66 75.0399 80.57C72.9799 79.47 69.0399 77.39 69.0499 78.02C68.9899 78.04 68.9699 78.09 68.9899 78.16C69.1599 78.88 74.6999 85.51 81.8099 92.26C81.9799 92.42 82.1599 92.59 82.3299 92.75C82.3499 92.77 82.3599 92.78 82.3799 92.8C82.5499 92.96 82.7199 93.12 82.8899 93.28C82.9099 93.3 82.9199 93.31 82.9399 93.33C83.1099 93.49 83.2899 93.65 83.4699 93.82C83.4699 93.82 83.4899 93.84 83.4999 93.84C84.4199 94.69 85.3699 95.53 86.3199 96.36C86.3299 96.37 86.3499 96.38 86.3599 96.39C86.5199 96.53 86.6899 96.68 86.8599 96.82C86.8999 96.85 86.9399 96.89 86.9799 96.92C87.1399 97.05 87.2899 97.19 87.4499 97.32C87.4999 97.36 87.5499 97.4 87.5899 97.44C87.7399 97.57 87.8999 97.7 88.0499 97.82C88.0999 97.86 88.1499 97.91 88.1999 97.95C88.3499 98.08 88.5099 98.2 88.6599 98.33C88.7099 98.37 88.7499 98.41 88.7999 98.44C88.9599 98.57 89.1199 98.7 89.2799 98.83C89.3099 98.85 89.3299 98.87 89.3599 98.89C90.0999 99.48 90.8299 100.04 91.5699 100.6C91.6199 100.63 91.6599 100.67 91.7099 100.7C91.8599 100.81 92.0099 100.92 92.1499 101.03C92.2099 101.07 92.2699 101.12 92.3299 101.16C92.4699 101.26 92.6099 101.36 92.7599 101.47C92.8299 101.52 92.8899 101.57 92.9599 101.61C93.0999 101.71 93.2399 101.8 93.3799 101.9C93.4499 101.95 93.5199 101.99 93.5799 102.04C93.7199 102.14 93.8599 102.23 93.9999 102.33C94.0599 102.37 94.1299 102.42 94.1899 102.46C94.3299 102.56 94.4799 102.65 94.6199 102.75C94.6699 102.78 94.7199 102.82 94.7699 102.85C95.3199 103.21 95.8599 103.55 96.3999 103.87C96.5499 103.96 96.6899 104.04 96.8399 104.13C96.8999 104.16 96.9599 104.2 97.0099 104.23L97.4099 104.46C97.4799 104.5 97.5499 104.54 97.6199 104.58C97.7499 104.65 97.8799 104.72 97.9999 104.79C98.0699 104.83 98.1399 104.87 98.2199 104.91C98.3499 104.98 98.4699 105.04 98.5999 105.1C98.6699 105.14 98.7399 105.17 98.8199 105.21C98.9499 105.27 99.0699 105.33 99.1899 105.39C99.2599 105.42 99.3299 105.46 99.3999 105.49C99.4099 105.49 99.4199 105.5 99.4299 105.51C99.4299 105.51 99.4399 105.51 99.4499 105.52C99.5599 105.57 99.6699 105.62 99.7799 105.67C99.8399 105.7 99.8999 105.72 99.9599 105.75C99.9999 105.77 100.04 105.79 100.08 105.8C100.14 105.82 100.19 105.85 100.24 105.87C100.28 105.89 100.32 105.91 100.36 105.92H100.37C100.55 106 100.73 106.07 100.91 106.14C102.471 107.422 103.372 112.605 104.2 115.64C104.21 115.68 104.22 115.72 104.23 115.76C104.41 116.36 104.71 116.98 105.04 117.5C105.28 117.88 105.58 118.22 105.95 118.48C106.22 118.66 106.84 118.87 106.71 119.31C106.71 119.32 106.7 119.33 106.69 119.35C106.69 119.35 106.69 119.35 106.68 119.36C106.65 119.39 106.62 119.42 106.58 119.44C106.55 119.46 106.51 119.48 106.47 119.5C106.42 119.52 106.37 119.54 106.31 119.56C106.31 119.56 106.31 119.56 106.3 119.56C106.25 119.58 106.19 119.59 106.13 119.6C106.12 119.6 106.11 119.6 106.1 119.6C106.04 119.6 105.98 119.61 105.92 119.62C105.9 119.62 105.89 119.62 105.87 119.62C105.64 119.62 105.34 119.57 105.23 119.82C105.19 119.86 105.15 119.91 105.14 119.99C105.09 120.17 105.17 120.37 105.25 120.54C105.93 122.02 107.29 123.17 108.86 123.6C109 123.64 109.18 123.74 109.16 123.87C109.13 123.89 109.09 123.91 109.05 123.92C108.44 124.15 107.8 124.3 107.16 124.39C106.84 124.44 106.41 124.39 106.09 124.41C105.96 124.41 105.65 124.45 105.67 124.59C105.57 124.64 105.55 124.73 105.77 124.87C106.91 125.62 108.09 126.31 109.3 126.93C110.36 127.47 111.38 128.06 112.55 128.33C112.76 128.38 112.97 128.42 113.16 128.5C113.21 128.52 113.26 128.55 113.28 128.6C113.28 128.61 113.28 128.63 113.28 128.64C113.25 128.66 113.21 128.68 113.17 128.7C112.57 128.88 111.95 128.96 111.33 128.93C111.11 128.92 110.61 128.79 110.52 129.08C110.49 129.11 110.46 129.14 110.45 129.19C110.43 129.26 110.43 129.36 110.46 129.47C110.49 129.57 110.53 129.67 110.59 129.79C111.33 131.22 112.97 132.24 114.51 132.56C114.94 132.65 115.39 132.69 115.81 132.82C116.09 132.9 116.41 133.1 116.38 133.39C116.38 133.45 116.35 133.51 116.32 133.56C116.31 133.58 116.29 133.6 116.28 133.61C116.12 133.81 115.58 133.97 115.13 134.07C115.01 134.1 114.93 134.17 114.89 134.26C114.76 134.4 114.75 134.64 114.92 134.78C115.02 134.86 115.1 134.93 115.14 134.96C115.93 135.64 116.83 136.22 117.79 136.63C118.67 137.02 119.63 137.14 120.54 137.48C121.77 137.94 122.92 138.56 124.11 139.11C124.28 139.25 124.96 139.83 125.86 140.62C126.07 140.8 126.29 141 126.51 141.2C126.74 141.4 126.97 141.62 127.21 141.83C127.33 141.94 127.45 142.05 127.57 142.16C127.86 142.42 128.14 142.69 128.43 142.95C129.05 143.53 129.66 144.12 130.24 144.74C130.17 144.75 130.1 144.77 130.03 144.77C127.08 145.08 123.5 145 121.19 147.15C120.69 147.61 120.27 148.17 119.79 148.64C119.5 148.92 119.19 149.18 118.82 149.36C118.59 149.48 118.34 149.56 118.09 149.63C117.67 149.75 117.24 149.82 116.82 149.96C116.34 150.11 115.9 150.34 115.46 150.59C115.24 150.72 115.03 150.85 114.81 150.98C114.6 151.11 114.38 151.25 114.17 151.38C111.08 153.25 107.43 154.19 103.88 154.66C101.99 154.91 99.5399 154.18 97.9399 155.42C97.0699 156.09 96.6099 157.16 96.2399 158.2C94.1199 164.17 93.9099 170.3 93.8199 176.55C93.7199 183.93 93.7399 191.46 93.9699 198.77C94.0899 200.83 94.1399 202.88 94.1299 204.92H109.25C109.25 204.57 109.26 204.23 109.27 203.88C109.31 201.6 109.35 199.24 109.36 196.93C109.38 194.34 109.45 191.73 109.51 189.2C109.65 183.65 109.81 177.9 109.41 172.26C109.24 169.81 109 167.21 110.59 165.15C110.8 164.88 111.03 164.62 111.34 164.47C111.51 164.38 111.7 164.33 111.89 164.29C112.39 164.17 112.91 164.09 113.42 164.04C114.4 163.96 115.39 164.01 116.36 163.85C118 163.58 119.21 162.69 120.39 161.58C121.74 160.32 122.95 158.91 124.2 157.55C125.49 156.15 127 154.96 128.65 154.03C129.34 153.64 130.07 153.29 130.81 153C134.219 151.661 138.793 151.691 142.4 152.25C146.006 152.831 147.439 153.123 150.95 152.71C153.29 152.45 155.56 151.74 157.77 150.95C159.25 150.42 160.73 149.85 162.29 149.56C162.47 149.53 162.65 149.5 162.84 149.47C163.02 149.44 163.19 149.42 163.37 149.41C163.4 149.41 163.42 149.41 163.45 149.41C163.62 149.39 163.79 149.38 163.96 149.37C163.99 149.37 164.02 149.37 164.05 149.37C164.22 149.36 164.39 149.35 164.56 149.34C164.59 149.34 164.62 149.34 164.65 149.34C164.83 149.34 165 149.33 165.18 149.32H165.23C165.84 149.3 166.44 149.3 167.05 149.29L173.07 158.75C173.47 159.39 174.33 159.92 175.03 159.84L204.13 137.96L189.97 117.94L189.99 117.96ZM144.71 146.86C144.76 146.91 144.81 146.97 144.86 147.02C145.08 147.26 145.3 147.52 145.5 147.78C143.7 147.46 141.41 147.01 140.17 146.77C139.87 146.7 139.58 146.65 139.29 146.59H139.28C136.89 146.16 135.17 146.18 134.15 146.19C133.97 146 133.75 145.78 133.52 145.54C134.03 145.2 134.61 144.8 135.24 144.39L137.11 142.39C137.98 142.82 139.1 143.4 140.23 144.01C140.3 144.05 140.38 144.09 140.45 144.13C142.22 145.1 143.96 146.14 144.69 146.86H144.71ZM132.58 141.7C132.58 141.7 132.66 141.71 132.7 141.72C133.37 141.84 134.07 141.96 134.8 142.06C134.95 142.08 135.1 142.1 135.25 142.12C135.38 142.14 135.51 142.15 135.65 142.17C135.94 142.2 136.23 142.23 136.52 142.26L133.93 143.4L132.72 144C132.72 144 132.7 144 132.69 144C132.53 144.07 132.37 144.14 132.22 144.21C131.55 143.52 130.8 142.77 130.05 142.01C129.66 141.62 129.28 141.23 128.9 140.84C130.01 141.16 131.23 141.45 132.58 141.7ZM154.12 147.72C153.11 147.92 152.09 148.05 151.06 148.1C150.7 148.12 150.33 148.13 149.97 148.14H149.82C149.57 148.14 149.32 148.14 149.07 148.13C148.91 147.72 148.69 147.33 148.41 146.98C147.98 146.46 147.43 146.15 146.84 145.84C146.57 145.68 146.26 145.49 145.92 145.28C145.81 145.21 145.69 145.14 145.57 145.07C144.35 144.34 142.8 143.41 141.29 142.51C142.18 142.51 143.09 142.51 144.04 142.47C144.36 142.46 144.68 142.44 144.98 142.42C145.06 142.42 145.14 142.41 145.22 142.4C145.49 142.38 145.75 142.37 146 142.34C146.04 142.34 146.08 142.34 146.12 142.34C146.42 142.31 146.71 142.29 146.99 142.25C147.04 142.25 147.08 142.25 147.13 142.24C147.38 142.21 147.63 142.18 147.88 142.15C147.91 142.15 147.94 142.15 147.98 142.14C148.54 142.06 149.07 141.97 149.57 141.87C149.59 141.87 149.6 141.87 149.61 141.87C150.12 141.77 150.6 141.65 151.06 141.53C151.06 141.52 151.06 141.5 151.07 141.49C151.07 141.5 151.07 141.51 151.07 141.52C153.35 140.91 154.92 140.07 156.01 139.14C156.59 138.65 157.1 138.07 157.52 137.44C157.52 137.44 157.52 137.44 157.53 137.43C157.78 137.06 158 136.68 158.18 136.28C158.67 135.21 158.59 133.93 159.37 133.01C159.67 132.65 160.12 132.28 160.53 132C160.53 132 160.53 132 160.54 132C160.66 131.91 160.79 131.83 160.92 131.74C160.93 131.74 160.94 131.72 160.96 131.71C163.03 130.27 163.354 131.8 165.984 131.74C166.304 131.74 166.73 131.66 167.05 131.71C167.27 131.75 167.743 131.841 167.973 131.871C168.203 131.901 168.532 132 168.542 132C169.002 132.06 169.264 131.7 169.714 131.71L170.53 131.871L171.223 132.102C170.923 132.082 171.81 132.744 171.56 132.934L161.25 137.999C160.75 138.369 160.63 139.069 160.96 139.589L163.79 144.12L165.18 146.3C163.47 146.3 161.76 146.33 160.05 146.51C159.79 146.54 159.53 146.57 159.27 146.61C159.25 146.61 159.22 146.61 159.2 146.62C157.49 146.89 155.84 147.37 154.15 147.73H154.14L154.12 147.72Z" fill="var(--sapContent_Illustrative_Color21)"/>
<path d="M207.29 131.36C205.94 131.18 204.55 131.16 203.19 131.16C200.63 131.16 198.07 131.16 195.52 131.43C192.97 131.7 190.53 132.46 188.02 132.98C184.81 133.63 181.55 133.64 178.29 133.28C175.95 132.89 172.18 132.15 170.31 131.78C169.93 131.7 169.56 131.62 169.2 131.56H169.19C163.02 130.44 160.36 131.69 161.59 130.41C162.29 129.94 163.14 129.36 164.06 128.75L167.24 125.35L162.38 127.49L160.85 128.26C160.85 128.26 160.83 128.26 160.82 128.26C160.07 128.6 159.31 128.92 158.5 129.09C158.16 129.15 157.81 129.21 157.46 129.25C153.71 129.64 149.17 129.54 146.23 132.28C145.22 133.22 144.46 134.47 143.23 135.09C142.44 135.49 141.54 135.58 140.69 135.85C139.48 136.24 138.42 136.99 137.33 137.65C133.4 140.03 128.77 141.22 124.26 141.81C121.86 142.12 118.74 141.2 116.71 142.78C115.61 143.64 115.02 144.99 114.55 146.3C111.85 153.89 111.58 161.67 111.48 169.61C111.35 178.99 111.38 188.55 111.68 197.83C111.83 200.45 111.89 203.05 111.88 205.64H131.08C131.08 205.2 131.09 204.76 131.1 204.32C131.15 201.42 131.2 198.43 131.22 195.49C131.24 192.2 131.33 188.89 131.41 185.68C131.59 178.63 131.79 171.33 131.28 164.16C131.06 161.05 130.75 157.75 132.78 155.13C133.04 154.79 133.34 154.46 133.73 154.27C133.95 154.16 134.19 154.1 134.42 154.04C135.06 153.89 135.71 153.78 136.36 153.73C137.6 153.62 138.86 153.69 140.09 153.49C142.17 153.14 143.71 152.01 145.21 150.61C146.92 149.01 148.46 147.22 150.05 145.5C151.68 143.72 153.6 142.21 155.7 141.03C156.58 140.53 157.5 140.1 158.44 139.72C160.73 138.81 163.17 138.28 165.63 138.14C168.09 138 170.67 138.38 173.17 138.78C175.99 139.23 178.85 139.6 181.72 139.53C182.49 139.51 183.26 139.46 184.03 139.38C187 139.04 189.88 138.15 192.7 137.14C194.58 136.47 196.46 135.74 198.44 135.38C200.64 134.98 202.91 135.05 205.15 134.99C205.7 134.98 206.26 134.95 206.8 134.82C208.38 134.43 209.59 133.16 211.1 132.55C209.93 131.89 208.64 131.55 207.31 131.37L207.29 131.36Z" fill="var(--sapContent_Illustrative_Color15)"/>
<path d="M118.92 205.36C117.96 203.77 117.29 202.01 116.72 200.26C115.95 197.9 115.46 195.43 115.04 192.98C114.6 190.36 114.3 187.73 114.08 185.08C113.65 179.9 113.48 174.67 113.46 169.47C113.43 164.48 113.16 158.71 117.37 155.18C118.13 154.54 119.06 154 120.06 154.05C120.91 154.1 121.68 154.58 122.53 154.66C123.99 154.79 125.41 153.49 125.41 152.03C125.41 150.86 124.63 149.78 124.72 148.61C124.78 147.77 125.29 147.01 125.94 146.48C129.06 143.88 133.76 143.59 137.58 142.82C141.15 142.11 144.64 141.26 147.77 139.31C150.5 137.61 152.59 134.6 155.96 134.08C157.58 133.83 159.2 134.33 160.72 134.92C161.79 135.33 163.57 135.89 164.67 136.17C165.53 136.39 166.39 136.59 167.26 136.76C169.16 137.14 171.08 137.34 173.01 137.32C174.67 137.3 176.26 136.99 177.82 136.43C180.02 135.64 182.04 134.46 184.16 133.48C182.22 133.59 180.26 133.51 178.32 133.29C175.98 132.9 172.21 132.16 170.34 131.79C169.96 131.71 169.59 131.63 169.23 131.57H169.22C163.05 130.45 160.39 131.7 161.62 130.42C162.32 129.95 163.17 129.37 164.09 128.76L167.27 125.36L162.41 127.5L160.88 128.27C160.88 128.27 160.86 128.27 160.85 128.27C160.1 128.61 159.34 128.93 158.53 129.1C158.19 129.16 157.84 129.22 157.49 129.26C153.74 129.65 149.2 129.55 146.26 132.29C145.25 133.23 144.49 134.48 143.26 135.1C142.47 135.5 141.57 135.59 140.72 135.86C139.51 136.25 138.45 137 137.36 137.66C133.43 140.04 128.8 141.23 124.29 141.82C121.89 142.13 118.77 141.21 116.74 142.79C115.64 143.65 115.05 145 114.58 146.31C111.88 153.9 111.61 161.68 111.51 169.62C111.38 179 111.41 188.56 111.71 197.84C111.86 200.46 111.92 203.06 111.91 205.65H119.13C119.07 205.56 119.01 205.47 118.96 205.38L118.92 205.36Z" fill="var(--sapContent_Illustrative_Color16)"/>
<path d="M207.29 131.36C205.94 131.18 204.55 131.16 203.19 131.16C200.63 131.16 198.07 131.16 195.52 131.43C194.85 131.5 194.19 131.61 193.52 131.73C193.98 131.78 194.45 131.84 194.9 131.92C196.73 132.25 198.26 133.17 198.98 134.93C199.02 135.04 199.07 135.15 199.1 135.26C201.08 134.98 203.11 135.04 205.11 134.98C205.66 134.97 206.22 134.94 206.76 134.81C208.34 134.42 209.55 133.15 211.06 132.54C209.89 131.88 208.6 131.54 207.27 131.36H207.29Z" fill="var(--sapContent_Illustrative_Color16)"/>
<path d="M197.49 122.07L214.42 148.11L214.6 148.39L251.57 120.6L233.58 95.1699L221.39 104.35L197.49 122.06V122.07Z" fill="var(--sapContent_Illustrative_Color8)"/>
<path d="M249.92 119.23L234.07 117.57C234.86 114.2 235.56 110.74 235.76 107.29C235.94 104.35 235.65 101.4 235.61 98.46C235.41 112.99 229.89 124.51 227.98 125.4C222.2 128.11 197.48 122.08 197.48 122.08C197.66 122.17 197.84 122.26 198.02 122.35C199.81 123.25 201.65 124.06 203.51 124.81C207.69 126.5 212.05 127.91 216.52 128.57C217.12 128.66 217.72 128.73 218.32 128.79L213.46 139.76C212.38 142.2 212.72 145.03 214.35 147.14L220.41 128.92C222.17 128.95 223.92 128.78 225.61 128.29C227.17 127.84 228.65 127.12 229.89 126.07C232 124.28 233.03 121.59 233.74 118.94L249.93 119.24L249.92 119.23Z" fill="var(--sapContent_Illustrative_Color14)"/>
<path d="M221.13 115.65C218.3 113.35 213.4 110.07 213.4 110.07L212.21 111.28L211.9 110.86L211.87 110.82C211.49 110.79 211.11 110.9 210.79 111.14L197.39 121.23C196.76 121.71 196.6 122.59 197.02 123.26L200.28 128.39L202.51 131.89L202.58 132L212.13 147.02C212.64 147.83 213.73 148.5 214.61 148.4L198.04 122.34C197.86 122.25 197.68 122.16 197.5 122.07L199.58 120.78L213.3 112.28C214.19 112.84 215.09 113.48 215.41 113.69C216.13 114.15 216.75 114.74 217.35 115.34C217.64 115.63 217.93 115.93 218.23 116.21C218.59 116.56 218.95 116.91 219.35 117.21C219.64 117.43 219.98 117.67 220.35 117.7C220.61 117.72 220.81 117.58 220.92 117.35C221.07 117.04 221.11 116.67 221.12 116.33C221.12 116.11 221.12 115.88 221.12 115.66L221.13 115.65Z" fill="var(--sapContent_Illustrative_Color14)"/>
<path d="M218.53 106.51L233.58 95.1799C233.27 94.7499 232.67 94.6499 232.25 94.9699L217.73 105.9C217.46 106.1 217.28 106.38 217.2 106.69C217.23 106.72 217.27 106.75 217.3 106.78C218.36 107.79 219.23 108.77 219.96 109.7C219.683 108.848 219.019 107.361 218.53 106.51Z" fill="var(--sapContent_Illustrative_Color14)"/>
<path d="M184.36 69.9601C179.2 65.5001 173.97 60.1501 167.15 58.4001C163.94 57.5701 161.04 56.2901 158.13 54.7001C155.88 53.4701 153.58 52.2101 151.05 51.6701C148.52 51.1301 146.23 50.4801 143.92 49.1601C141.23 47.6301 138.93 45.1401 135.88 44.3101C135.63 44.2401 135.34 44.2001 135.13 44.3501C134.76 44.6301 135 45.2101 135.27 45.5901C136.26 47.0101 137.25 48.4401 138.25 49.8601C138.4 50.0801 138.56 50.3001 138.72 50.5301C138.88 50.7601 139.04 50.9901 139.2 51.2201C139.36 51.4501 139.53 51.6901 139.7 51.9301C139.87 52.1701 140.04 52.4001 140.2 52.6501C140.37 52.8901 140.54 53.1301 140.71 53.3701C140.8 53.4901 140.88 53.6101 140.97 53.7301C141.14 53.9701 141.31 54.2101 141.48 54.4501C141.57 54.5701 141.65 54.6901 141.73 54.8101C141.98 55.1701 142.24 55.5201 142.48 55.8701C142.65 56.1001 142.81 56.3301 142.97 56.5601C143.13 56.7801 143.29 57.0101 143.45 57.2201C143.84 57.7601 144.22 58.2801 144.57 58.7501C144.78 59.0401 144.98 59.3101 145.17 59.5601C145.86 60.4901 146.41 61.1801 146.7 61.5101C147.14 61.9801 147.12 62.1001 146.84 62.0601C146.01 61.9201 145.23 61.5101 144.38 61.3801C144.2 61.3501 144.02 61.3301 143.84 61.3801C143.58 61.4601 143.4 61.6801 143.27 61.9201C143.14 62.1601 143.04 62.4401 143.1 62.7201C143.15 62.9601 143.32 63.1501 143.48 63.3301C145.37 65.3701 147.81 66.9101 150.11 68.4401C152.13 69.7801 154.18 71.0401 156.27 72.2601C160.25 74.5701 164.39 76.8301 168.76 78.3001C169.35 78.5001 169.94 78.6801 170.54 78.8201C179.21 80.8901 194.96 79.5901 194.96 79.5901C191.6 76.1901 187.92 73.0601 184.34 69.9701H184.35L184.36 69.9601Z" fill="var(--sapContent_Illustrative_Color24)"/>
<path d="M184.21 69.8301C183.85 69.8301 183.49 69.8401 183.13 69.8501C180.35 69.8701 177.56 69.7201 174.8 69.4501C171.87 69.1601 168.93 68.8001 166.04 68.2501C159.27 66.9501 152.3 64.5201 147.48 59.3901C144.97 56.7201 143.05 53.5301 141.04 50.4801C139.93 48.8001 138.86 47.0501 138.05 45.2101C137.36 44.8301 136.64 44.5201 135.88 44.3101C135.63 44.2401 135.34 44.2001 135.13 44.3501C134.76 44.6301 135 45.2101 135.27 45.5901C136.26 47.0101 137.25 48.4401 138.25 49.8601C138.4 50.0801 138.56 50.3001 138.72 50.5301C138.88 50.7601 139.04 50.9901 139.2 51.2201C139.36 51.4501 139.53 51.6901 139.7 51.9301C139.87 52.1701 140.04 52.4001 140.2 52.6501C140.37 52.8901 140.54 53.1301 140.71 53.3701C140.8 53.4901 140.88 53.6101 140.97 53.7301C141.14 53.9701 141.31 54.2101 141.48 54.4501C141.57 54.5701 141.65 54.6901 141.73 54.8101C141.98 55.1701 142.24 55.5201 142.48 55.8701C142.65 56.1001 142.81 56.3301 142.97 56.5601C143.13 56.7801 143.29 57.0101 143.45 57.2201C143.84 57.7601 144.22 58.2801 144.57 58.7501C144.78 59.0401 144.98 59.3101 145.17 59.5601C145.86 60.4901 146.41 61.1801 146.7 61.5101C147.14 61.9801 147.12 62.1001 146.84 62.0601C146.01 61.9201 145.23 61.5101 144.38 61.3801C144.2 61.3501 144.02 61.3301 143.84 61.3801C143.58 61.4601 143.4 61.6801 143.27 61.9201C143.14 62.1601 143.04 62.4401 143.1 62.7201C143.15 62.9601 143.32 63.1501 143.48 63.3301C145.37 65.3701 147.81 66.9101 150.11 68.4401C152.13 69.7701 154.18 71.0401 156.27 72.2601C160.25 74.5701 164.39 76.8301 168.76 78.3001C169.35 78.5001 169.94 78.6801 170.54 78.8201C179.21 80.8901 194.96 79.5901 194.96 79.5901C191.6 76.1901 187.92 73.0601 184.34 69.9701C184.29 69.9301 184.24 69.8801 184.19 69.8401L184.21 69.8301Z" fill="var(--sapContent_Illustrative_Color11)"/>
<path d="M166.54 141.17C166.56 140.88 166.51 140.59 166.47 140.31C166.14 138.39 165.68 136.41 164.93 134.61C164.44 133.37 163.84 132.23 163.14 131.5C162.79 131.14 162.25 130.59 161.6 129.91C160.47 128.75 158.98 127.24 157.47 125.71C156.67 124.9 155.87 124.09 155.11 123.32C153.86 122.93 152.72 122.53 151.7 122.13C151.11 121.9 150.56 121.67 150.05 121.45L149.9 121.98C149.9 121.98 150.86 122.79 152.18 123.95C152.44 124.18 152.72 124.43 153.01 124.69C153.3 124.95 153.6 125.22 153.9 125.49C154.05 125.63 154.2 125.77 154.36 125.91C156.02 127.44 157.71 129 159.11 130.78C159.38 131.12 159.64 131.48 159.76 131.9C159.86 132.25 159.86 132.62 159.86 132.98C159.86 133.9 159.97 134.82 159.96 135.74C159.96 136.67 159.92 137.64 160.36 138.49C160.53 138.82 160.75 139.11 160.98 139.41C161.33 139.86 161.55 140.44 161.51 141.02C161.46 141.6 161.14 142.14 160.73 142.56C160.45 142.85 160.14 143.11 159.88 143.42C159.84 143.46 159.81 143.51 159.8 143.56C159.79 143.62 159.8 143.68 159.85 143.7C159.88 143.72 159.92 143.72 159.96 143.71C160.15 143.68 160.34 143.61 160.51 143.52C160.79 143.37 161.06 143.2 161.31 143C161.87 142.56 162.39 142.02 162.73 141.38C163.17 140.54 163.18 139.69 163.15 138.77C163.11 137.48 163.01 136.18 162.93 134.89C162.91 134.56 162.89 134.23 162.91 133.9C162.91 133.81 162.93 133.71 162.96 133.62C162.96 133.59 162.99 133.55 163.02 133.54C163.06 133.52 163.11 133.57 163.14 133.6C163.63 134.24 163.94 134.99 164.21 135.75C164.49 136.55 164.75 137.35 164.98 138.16C165.25 139.09 165.54 140.1 165.43 141.08C165.41 141.26 165.38 141.43 165.32 141.6C165.25 141.82 164.86 142.44 164.54 142.96C164.41 143.17 164.66 143.4 164.86 143.26C165.54 142.77 166.44 141.96 166.56 141.36C166.57 141.29 166.58 141.22 166.59 141.15L166.54 141.17Z" fill="var(--sapContent_Illustrative_Color27)"/>
<path d="M182.19 135.91C182.12 135.28 182 134.66 181.82 134.07C181.6 133.34 181.27 132.63 180.78 132.03C180.23 131.37 179.53 130.97 178.78 130.58C178.33 130.3 177.78 129.97 177.16 129.6C175.31 128.49 172.87 127.03 170.61 125.68C169.78 125.66 168.97 125.63 168.18 125.59C166.91 125.52 165.7 125.41 164.55 125.27C165.23 125.6 167.81 126.85 170.4 128.25C172.75 129.52 175.1 130.92 176.07 131.87C176.14 131.94 176.2 132.01 176.26 132.08C177.15 133.03 177.95 134.17 178.47 135.4C178.53 135.53 178.58 135.66 178.62 135.8C178.62 135.81 178.63 135.83 178.63 135.84C179.02 136.97 179.16 138.16 178.88 139.34C178.83 139.54 178.78 139.73 178.71 139.92C178.59 140.27 178.43 140.64 178.18 140.92C178.1 141.02 178.2 141.15 178.31 141.11C179.08 140.82 179.71 140.28 179.95 139.48C180.1 138.99 180.11 138.47 180.08 137.96C180.02 137.03 179.81 136.11 179.6 135.21C179.57 135.08 179.16 133.38 179.14 133.39C179.37 133.34 180.39 135.89 180.56 136.53C181.1 138.59 181.57 141.69 179.76 143.3C179.71 143.34 179.51 143.43 179.49 143.49C179.44 143.64 179.53 143.58 179.68 143.56C181.25 143.3 181.82 140.94 182.06 139.67C182.28 138.47 182.33 137.16 182.18 135.9L182.19 135.91Z" fill="var(--sapContent_Illustrative_Color27)"/>
<path d="M170.69 128.42C172.99 128.94 175.3 129.38 177.61 129.88C177.46 129.79 177.32 129.7 177.17 129.61C175.32 128.5 172.88 127.04 170.62 125.69C169.79 125.67 168.98 125.64 168.19 125.6C166.92 125.53 165.71 125.42 164.56 125.28C165.24 125.61 167.82 126.86 170.41 128.26C170.5 128.31 170.6 128.36 170.69 128.41V128.42Z" fill="var(--sapContent_Illustrative_Color26)"/>
<path d="M153 124.7C153.29 124.96 153.59 125.23 153.89 125.5C154.04 125.64 154.19 125.78 154.35 125.92C154.71 126.25 155.08 126.59 155.44 126.93C155.71 127.12 155.99 127.31 156.26 127.49C158.38 128.86 160.59 130.09 162.77 131.37C162.93 131.47 163.09 131.56 163.25 131.66C163.21 131.61 163.17 131.57 163.13 131.52C162.78 131.16 162.24 130.61 161.59 129.93C160.46 128.77 158.97 127.26 157.46 125.73C156.66 124.92 155.86 124.11 155.1 123.34C153.85 122.95 152.71 122.55 151.69 122.15C151.1 121.92 150.55 121.69 150.04 121.47L149.89 122C149.89 122 150.85 122.81 152.17 123.97C152.43 124.2 152.71 124.45 153 124.71V124.7Z" fill="var(--sapContent_Illustrative_Color26)"/>
<path d="M216.31 101.84C216.31 101.66 216.31 101.47 216.31 101.28C216.31 101.24 216.31 101.19 216.31 101.14C216.31 100.9 216.29 100.66 216.28 100.41C215.96 94.4898 213.65 85.7198 205.1 82.2498C202.24 81.0898 199.29 80.3298 196.28 79.6998C193.07 79.0198 189.64 79.9298 186.52 78.7198C185.55 78.3498 184.68 77.7798 183.79 77.2398C177.34 73.3198 170.36 70.7798 162.84 70.0598C157.54 69.5598 152.23 69.1198 146.92 68.7198C141.03 68.2698 135.14 67.9698 129.26 67.4698C126.1 67.1998 122.9 66.5998 120.16 65.0198C118.54 64.0798 117.13 62.8198 115.82 61.4898C114.51 60.1598 113.21 59.0498 111.86 57.8298C109.48 55.6998 107.1 53.5698 104.71 51.4498C102.17 49.1898 99.6301 46.9398 97.0701 44.6998C95.7501 43.5398 94.4201 42.4098 93.1101 41.2398C91.8001 40.0798 90.5101 38.9998 89.0701 38.0698C88.9001 37.9598 88.7201 37.8498 88.5501 37.7498C88.1001 37.4798 87.6401 37.2298 87.2001 36.9498C86.7601 36.6698 86.4001 36.2898 85.9501 36.0698C85.8801 36.0398 85.8201 36.0198 85.7701 36.0098H85.7601C85.6301 35.9898 85.5401 36.0698 85.5401 36.2998C85.5401 36.4498 85.6001 36.6898 85.7101 36.9898C86.2701 38.5698 87.0801 40.0298 87.8601 41.4998C88.0901 41.9398 88.6701 42.9998 89.0601 43.6998C89.1601 43.8798 88.9501 44.0698 88.7901 43.9598C87.7201 43.2698 85.7101 42.0498 85.4001 42.4498C85.3201 42.5498 85.3601 42.7498 85.5401 43.0998C86.0601 44.0598 86.8201 45.2498 87.5001 46.2898C87.5401 46.3498 87.8201 46.7698 88.1401 47.2398C88.4001 47.6298 87.9701 48.0998 87.5601 47.8798C84.8701 46.4498 79.7101 43.7198 79.9401 44.6998C80.1601 45.6198 87.2001 54.0398 96.2201 62.6098C96.4401 62.8198 96.6601 63.0298 96.8801 63.2398C96.9001 63.2598 96.9201 63.2798 96.9401 63.2998C97.1601 63.4998 97.3701 63.6998 97.5901 63.9098C97.6101 63.9298 97.6301 63.9498 97.6501 63.9698C97.8701 64.1798 98.0901 64.3798 98.3201 64.5898C98.3201 64.5898 98.3401 64.6098 98.3501 64.6198C99.5201 65.6998 100.72 66.7698 101.94 67.8198C101.96 67.8298 101.97 67.8498 101.99 67.8598C102.2 68.0398 102.41 68.2198 102.62 68.3998C102.67 68.4398 102.72 68.4898 102.77 68.5298C102.97 68.6998 103.17 68.8698 103.37 69.0298C103.43 69.0798 103.49 69.1298 103.55 69.1798C103.75 69.3398 103.94 69.5098 104.14 69.6698C104.2 69.7198 104.27 69.7798 104.34 69.8298C104.54 69.9898 104.73 70.1498 104.93 70.3098C104.99 70.3598 105.05 70.4098 105.11 70.4498C105.32 70.6198 105.52 70.7798 105.72 70.9398C105.76 70.9698 105.79 70.9898 105.82 71.0198C106.75 71.7598 107.69 72.4898 108.62 73.1898C108.68 73.2298 108.74 73.2798 108.79 73.3198C108.98 73.4598 109.17 73.5998 109.35 73.7298C109.43 73.7798 109.5 73.8398 109.58 73.8998C109.76 74.0298 109.94 74.1598 110.12 74.2898C110.21 74.3498 110.29 74.4098 110.38 74.4698C110.56 74.5998 110.73 74.7198 110.91 74.8398C111 74.8998 111.08 74.9598 111.17 75.0198C111.35 75.1398 111.52 75.2598 111.7 75.3798C111.78 75.4298 111.86 75.4898 111.94 75.5398C112.12 75.6598 112.31 75.7798 112.49 75.9098C112.55 75.9498 112.62 75.9898 112.68 76.0298C113.38 76.4898 114.07 76.9198 114.76 77.3298C114.95 77.4398 115.13 77.5498 115.32 77.6598C115.39 77.6998 115.47 77.7498 115.54 77.7898C115.71 77.8898 115.88 77.9798 116.05 78.0798C116.14 78.1298 116.22 78.1798 116.31 78.2298C116.47 78.3198 116.64 78.4098 116.8 78.4998C116.89 78.5498 116.98 78.5998 117.08 78.6498C117.24 78.7298 117.4 78.8198 117.56 78.8998C117.65 78.9498 117.74 78.9898 117.84 79.0398C118 79.1198 118.16 79.1998 118.31 79.2698C118.4 79.3098 118.49 79.3498 118.57 79.3998C118.58 79.3998 118.6 79.4098 118.61 79.4198C118.61 79.4198 118.63 79.4198 118.64 79.4298C118.78 79.4998 118.92 79.5598 119.06 79.6298C119.14 79.6698 119.21 79.6998 119.29 79.7298C119.34 79.7498 119.39 79.7698 119.44 79.7998C119.51 79.8298 119.58 79.8598 119.65 79.8898C119.7 79.9098 119.75 79.9298 119.8 79.9598H119.81C120.04 80.0598 120.26 80.1598 120.49 80.2498C120.49 80.2498 120.79 87.1698 125.3 90.1798C125.62 90.3998 125.91 90.5898 126.17 90.7798C126.93 91.3298 127.78 91.9198 128.27 92.7298C128.33 92.8398 128.39 92.9498 128.41 93.0698C128.43 93.1898 128.39 93.3298 128.29 93.3998C128.15 93.5098 127.94 93.4498 127.77 93.3798C127.2 93.1598 126.62 92.9298 126.07 92.6498C125.8 92.5098 125.53 92.3498 125.28 92.1798C125.19 92.1198 124.76 91.6898 124.64 91.7798C124.62 91.7998 124.6 91.8298 124.6 91.8798C124.6 91.8998 124.6 91.9298 124.6 91.9598C124.6 92.0498 124.63 92.1698 124.66 92.3198C124.67 92.3698 124.69 92.4198 124.7 92.4698C124.93 93.2298 125.31 94.0098 125.73 94.6698C126.04 95.1498 126.42 95.5898 126.89 95.9198C127.23 96.1498 128.02 96.4098 127.86 96.9698C127.86 96.9898 127.84 97.0098 127.83 97.0298C127.81 97.0698 127.78 97.1198 127.74 97.1598C127.7 97.1998 127.66 97.2298 127.61 97.2598C127.57 97.2898 127.52 97.3098 127.47 97.3398C127.41 97.3698 127.34 97.3898 127.27 97.4098C127.27 97.4098 127.27 97.4098 127.26 97.4098C127.19 97.4298 127.12 97.4398 127.04 97.4498C127.03 97.4498 127.02 97.4498 127 97.4498C126.93 97.4498 126.85 97.4698 126.77 97.4698C126.75 97.4698 126.73 97.4698 126.71 97.4698C126.39 97.4698 125.97 97.3898 125.87 97.8098C125.81 98.0398 125.91 98.2898 126 98.5098C126.87 100.39 128.59 101.85 130.59 102.4C130.79 102.45 131.05 102.61 130.96 102.79C130.92 102.87 130.83 102.91 130.75 102.94C129.98 103.23 129.16 103.42 128.35 103.53C127.94 103.59 127.4 103.53 126.99 103.55C126.77 103.55 126.12 103.64 126.66 104.01C128.1 104.97 129.6 105.84 131.15 106.63C132.49 107.31 133.8 108.06 135.28 108.41C135.54 108.47 135.81 108.53 136.06 108.62C136.12 108.65 136.19 108.68 136.21 108.74C136.25 108.86 136.1 108.95 135.99 108.98C135.23 109.21 134.44 109.31 133.65 109.28C133.37 109.27 132.72 109.1 132.62 109.48C132.59 109.57 132.6 109.69 132.64 109.83C132.67 109.95 132.73 110.09 132.8 110.23C133.73 112.05 135.83 113.35 137.78 113.75C138.33 113.86 138.89 113.91 139.43 114.07C139.79 114.18 140.19 114.43 140.16 114.8C140.14 114.96 140.05 115.09 139.95 115.21C139.74 115.47 139.06 115.67 138.48 115.79C138.12 115.87 138.01 116.33 138.3 116.56C138.43 116.66 138.53 116.75 138.58 116.79C139.58 117.66 140.73 118.39 141.95 118.92C143.07 119.41 144.29 119.57 145.44 120C147.06 120.61 148.59 121.44 150.17 122.16C151.75 122.88 153.44 123.49 155.13 124C155.37 124.07 155.61 124.15 155.86 124.22C157.31 124.64 158.92 125.03 160.69 125.36C160.74 125.36 160.79 125.38 160.84 125.39C161.69 125.55 162.58 125.69 163.51 125.82C163.7 125.85 163.86 125.88 164.05 125.91C164.22 125.93 164.42 125.94 164.59 125.96C165.75 126.09 166.95 126.2 168.22 126.28C169 126.32 169.82 126.35 170.65 126.37C170.95 126.37 171.25 126.39 171.55 126.39C172.74 126.4 173.97 126.39 175.25 126.34C175.66 126.32 176.06 126.3 176.45 126.28C176.55 126.28 176.65 126.27 176.75 126.26C177.09 126.24 177.42 126.22 177.75 126.19C177.8 126.19 177.85 126.19 177.9 126.18C178.28 126.15 178.65 126.11 179 126.07C179.06 126.07 179.12 126.06 179.18 126.05C179.5 126.01 179.82 125.97 180.13 125.93C180.17 125.93 180.21 125.93 180.25 125.91C180.96 125.81 181.64 125.7 182.27 125.57C182.29 125.57 182.31 125.57 182.33 125.57C182.98 125.44 183.59 125.3 184.17 125.14C184.17 125.12 184.17 125.11 184.18 125.09C184.18 125.11 184.18 125.12 184.18 125.13C187.07 124.35 189.06 123.28 190.45 122.11C191.57 121.16 192.51 119.94 193.13 118.6C193.75 117.26 193.74 115.59 194.66 114.37C195.04 113.86 195.56 113.47 196.09 113.11C199.07 111.03 203.69 107.78 207.55 108.45C207.84 108.5 208.12 108.54 208.41 108.58C208.43 108.58 208.45 108.58 208.46 108.58C209.04 108.65 209.63 108.7 210.21 108.7H210.45C210.45 108.7 215.21 108.54 215.2 108.29C215.66 107.84 215.82 105.71 215.9 105.54C215.9 105.51 215.92 105.49 215.93 105.46C215.93 105.45 215.93 105.43 215.94 105.42C215.94 105.42 215.94 105.4 215.94 105.39C215.97 105.32 215.99 105.24 216.01 105.16C216.02 105.12 216.04 105.07 216.05 105.03C216.06 104.99 216.07 104.94 216.09 104.9C216.1 104.86 216.11 104.81 216.12 104.77C216.14 104.7 216.15 104.64 216.17 104.56C216.17 104.51 216.19 104.45 216.2 104.4C216.2 104.36 216.2 104.33 216.22 104.29C216.22 104.25 216.23 104.22 216.24 104.18C216.24 104.13 216.26 104.08 216.26 104.03C216.26 103.98 216.28 103.92 216.28 103.87C216.3 103.69 216.32 103.51 216.33 103.31C216.33 103.12 216.35 102.92 216.36 102.71C216.36 102.66 216.36 102.6 216.36 102.55C216.36 102.39 216.36 102.22 216.36 102.05V101.88L216.31 101.84Z" fill="var(--sapContent_Illustrative_Color24)"/>
<path d="M159.37 73.83C160.87 74.82 162.46 75.66 164.16 76.24C165.96 76.85 167.84 77.08 169.74 77.15C171.67 77.22 173.61 77.15 175.54 77.26C177.35 77.36 179.13 77.62 180.9 78.02C184.15 78.76 187.35 79.9 190.69 80.22C192.31 80.37 193.95 80.31 195.54 79.89C195.78 79.83 196.01 79.76 196.24 79.68C193.04 79.02 189.63 79.91 186.53 78.71C185.56 78.34 184.69 77.77 183.8 77.23C177.35 73.31 170.37 70.77 162.85 70.05C159.64 69.75 156.43 69.47 153.22 69.21C155.3 70.72 157.25 72.4 159.38 73.83H159.37Z" fill="var(--sapContent_Illustrative_Color1)"/>
<path d="M175.78 107.41C179.65 106.53 182.92 104.51 183.41 99.8702C183.42 99.7802 183.42 99.7102 183.42 99.6802C183.18 96.4402 175.93 88.0302 172.97 85.0602C172.83 85.1302 172.68 85.2002 172.54 85.2702C171.75 85.6302 170.97 86.0202 170.05 85.9602C169.06 85.8902 168.09 85.5202 167.15 85.2902C164.35 84.6002 161.51 84.0302 158.66 83.5002C152.95 82.4302 147.2 81.5102 141.6 80.0302C139.27 79.4102 137.16 78.4902 135.01 77.5202C133.98 77.0502 132.94 76.5802 131.86 76.2002C131.39 76.0302 130.9 75.8802 130.41 75.7702C129.97 75.6702 129.31 75.6802 128.96 75.4202C128.42 75.0102 127.98 74.4502 127.36 74.1802C127.08 74.7002 127.39 75.4002 127.56 75.9902C130.66 86.4802 138.96 95.4502 147.5 102.07C150.29 104.23 153.37 106.09 156.73 107.21C160.18 108.36 163.45 108.1 167 108.1C169.67 108.1 172.9 108.07 175.79 107.41H175.78Z" fill="var(--sapContent_Illustrative_Color1)"/>
<path d="M189.591 111.87C190.761 111.01 191.781 109.96 192.761 108.9C193.741 107.83 194.761 106.77 195.961 105.95C196.561 105.55 197.201 105.21 197.891 104.97C198.541 104.75 199.211 104.65 199.891 104.59C202.161 104.39 204.531 104.42 206.721 105.13C207.151 105.27 207.571 105.44 207.971 105.64L207.741 104.99C207.331 103.84 206.701 102.78 205.881 101.87C203.161 98.8498 196.881 91.8698 196.381 91.2698C196.071 90.8998 194.511 89.4198 193.481 88.7598C193.451 88.9398 195.631 92.4098 196.381 93.7598C197.021 94.9098 197.621 96.2098 197.311 97.5498C197.141 98.2898 196.711 98.9398 196.201 99.4898C195.521 100.22 194.701 100.86 193.841 101.38C192.091 102.45 190.101 103.14 188.551 104.53C187.761 105.24 187.061 106.06 186.411 106.9C185.911 107.55 185.441 108.22 184.881 108.82C184.271 109.46 183.561 109.98 182.781 110.38C182.561 110.5 182.321 110.58 182.081 110.64C180.711 110.98 179.311 111.19 177.921 111.47C176.661 111.72 175.391 112 174.191 112.47C173.421 112.78 172.321 113.27 172.151 114.19C172.061 114.66 172.271 115.19 172.601 115.52C173.161 116.08 174.011 116.22 174.771 116.28C176.521 116.41 178.131 116.16 179.811 116.86C180.651 117.21 181.431 117.69 182.191 118.2C182.471 118.39 184.181 119.76 184.391 119.64C182.231 120.86 178.741 121.39 176.281 121.8C172.511 122.43 165.521 122.34 161.741 121.86C157.971 121.38 148.271 117.34 145.481 115.31C144.281 114.44 143.051 113.44 142.141 112.26C141.401 111.32 140.971 110.19 140.571 109.07C139.911 107.2 139.401 105.31 137.261 104.65C137.051 104.59 136.821 104.53 136.681 104.36C136.461 104.11 136.541 103.72 136.661 103.41C136.791 103.1 136.951 102.77 136.871 102.45C136.741 101.89 136.051 101.74 135.511 101.56C134.221 101.14 133.321 100.1 133.031 98.7798C132.791 97.6598 132.991 96.4798 133.391 95.4098C133.421 95.3498 133.441 95.2798 133.471 95.2098C134.201 93.4898 133.651 91.4898 132.091 90.4498C131.071 89.7698 130.141 89.1398 129.981 89.0298C128.311 87.7898 126.761 86.2998 125.911 84.3598C125.351 83.0998 125.131 81.6998 125.241 80.3198C125.391 78.4998 125.841 78.4098 124.091 77.4998C115.481 73.0398 107.661 67.3098 99.7308 61.7698C95.8708 59.0698 91.8208 56.2598 89.5808 52.1098C88.7408 50.5598 94.3208 54.3998 96.8608 55.6398C97.0808 55.7498 97.2808 55.4598 97.1008 55.2898C94.7708 53.1298 89.0608 47.7098 89.1908 46.0098C89.2108 45.7398 89.3708 45.4498 89.6608 45.3898C90.1808 45.2898 91.4508 45.9998 92.4008 46.4198C92.6708 46.5398 92.9108 46.2098 92.7308 45.9898C91.5408 44.5198 89.5908 42.3298 88.8008 41.1398C87.8508 39.7098 87.0908 38.1698 86.6408 36.5298C86.4208 36.3598 86.2008 36.1898 85.9608 36.0698C85.8908 36.0398 85.8308 36.0198 85.7808 36.0098H85.7708C85.6408 35.9898 85.5508 36.0698 85.5508 36.2998C85.5508 36.4498 85.6108 36.6898 85.7208 36.9898C86.2808 38.5698 87.0908 40.0298 87.8708 41.4998C88.1008 41.9398 88.6808 42.9998 89.0708 43.7098C89.1708 43.8898 88.9708 44.0698 88.8008 43.9698C87.7408 43.2798 85.7108 42.0498 85.4108 42.4498C85.3308 42.5498 85.3708 42.7498 85.5508 43.0998C86.0708 44.0598 86.8308 45.2498 87.5108 46.2898C87.5508 46.3498 87.8308 46.7698 88.1508 47.2398C88.4108 47.6298 87.9808 48.0998 87.5708 47.8898C84.8808 46.4598 79.7208 43.7398 79.9508 44.7098C80.1708 45.6298 87.2108 54.0498 96.2308 62.6198C96.4508 62.8298 96.6708 63.0398 96.8908 63.2498C96.9108 63.2698 96.9308 63.2898 96.9508 63.3098C97.1708 63.5098 97.3808 63.7098 97.6008 63.9198C97.6208 63.9398 97.6408 63.9598 97.6608 63.9798C97.8808 64.1898 98.1008 64.3898 98.3308 64.5998C98.3308 64.5998 98.3508 64.6198 98.3608 64.6298C99.5308 65.7098 100.731 66.7798 101.951 67.8298C101.971 67.8398 101.981 67.8598 102.001 67.8698C102.211 68.0498 102.421 68.2298 102.631 68.4098C102.681 68.4498 102.731 68.4998 102.781 68.5398C102.981 68.7098 103.181 68.8798 103.381 69.0398C103.441 69.0898 103.501 69.1398 103.561 69.1898C103.761 69.3498 103.951 69.5198 104.151 69.6798C104.211 69.7298 104.281 69.7898 104.351 69.8398C104.551 69.9998 104.741 70.1598 104.941 70.3198C105.001 70.3698 105.061 70.4198 105.121 70.4598C105.331 70.6298 105.531 70.7898 105.731 70.9498C105.771 70.9798 105.801 70.9998 105.831 71.0298C106.761 71.7698 107.701 72.4998 108.631 73.1998C108.691 73.2398 108.751 73.2898 108.801 73.3298C108.991 73.4698 109.181 73.6098 109.361 73.7398C109.441 73.7898 109.511 73.8498 109.591 73.9098C109.771 74.0398 109.951 74.1698 110.131 74.2998C110.221 74.3598 110.301 74.4198 110.391 74.4798C110.571 74.6098 110.741 74.7298 110.921 74.8498C111.011 74.9098 111.091 74.9698 111.181 75.0298C111.361 75.1498 111.531 75.2698 111.711 75.3898C111.791 75.4398 111.871 75.4998 111.951 75.5498C112.131 75.6698 112.321 75.7898 112.501 75.9198C112.561 75.9598 112.631 75.9998 112.691 76.0398C113.391 76.4998 114.081 76.9298 114.771 77.3398C114.961 77.4498 115.141 77.5598 115.331 77.6698C115.401 77.7098 115.481 77.7598 115.551 77.7998C115.721 77.8998 115.891 77.9898 116.061 78.0898C116.151 78.1398 116.231 78.1898 116.321 78.2398C116.481 78.3298 116.651 78.4198 116.811 78.5098C116.901 78.5598 116.991 78.6098 117.091 78.6598C117.251 78.7398 117.411 78.8298 117.571 78.9098C117.661 78.9598 117.751 78.9998 117.851 79.0498C118.011 79.1298 118.171 79.2098 118.321 79.2798C118.411 79.3198 118.501 79.3598 118.581 79.4098C118.591 79.4098 118.611 79.4198 118.621 79.4298C118.621 79.4298 118.641 79.4298 118.651 79.4398C118.791 79.5098 118.931 79.5698 119.071 79.6398C119.151 79.6798 119.221 79.7098 119.301 79.7398C119.351 79.7598 119.401 79.7798 119.451 79.8098C119.521 79.8398 119.591 79.8698 119.661 79.8998C119.711 79.9198 119.761 79.9398 119.811 79.9698H119.821C120.051 80.0698 120.271 80.1698 120.501 80.2598C120.501 80.2598 120.801 87.1798 125.311 90.1898C125.631 90.4098 125.921 90.5998 126.181 90.7898C126.941 91.3398 127.791 91.9298 128.281 92.7398C128.341 92.8498 128.401 92.9598 128.421 93.0798C128.441 93.1998 128.401 93.3398 128.301 93.4098C128.161 93.5198 127.951 93.4598 127.781 93.3898C127.211 93.1698 126.631 92.9398 126.081 92.6598C125.811 92.5198 125.541 92.3598 125.291 92.1898C125.201 92.1298 124.771 91.6998 124.651 91.7898C124.631 91.8098 124.611 91.8398 124.611 91.8898C124.611 91.9098 124.611 91.9398 124.611 91.9698C124.611 92.0598 124.641 92.1798 124.671 92.3298C124.681 92.3798 124.701 92.4298 124.711 92.4798C124.941 93.2398 125.321 94.0198 125.741 94.6798C126.051 95.1598 126.431 95.5998 126.901 95.9298C127.241 96.1598 128.031 96.4198 127.871 96.9798C127.871 96.9998 127.851 97.0198 127.841 97.0398C127.821 97.0798 127.791 97.1298 127.751 97.1698C127.711 97.2098 127.671 97.2398 127.621 97.2698C127.581 97.2998 127.531 97.3198 127.481 97.3498C127.421 97.3798 127.351 97.3998 127.281 97.4198C127.281 97.4198 127.281 97.4198 127.271 97.4198C127.201 97.4398 127.131 97.4498 127.051 97.4598C127.041 97.4598 127.031 97.4598 127.011 97.4598C126.941 97.4598 126.861 97.4798 126.781 97.4798C126.761 97.4798 126.741 97.4798 126.721 97.4798C126.401 97.4798 125.981 97.3998 125.881 97.8198C125.821 98.0498 125.921 98.2998 126.011 98.5198C126.881 100.4 128.601 101.86 130.601 102.41C130.801 102.46 131.061 102.62 130.971 102.8C130.931 102.88 130.841 102.92 130.761 102.95C129.991 103.24 129.171 103.43 128.361 103.54C127.951 103.6 127.411 103.54 127.001 103.56C126.781 103.56 126.131 103.65 126.671 104.02C128.111 104.98 129.611 105.85 131.161 106.64C132.501 107.32 133.811 108.07 135.291 108.42C135.551 108.48 135.821 108.54 136.071 108.63C136.131 108.66 136.201 108.69 136.221 108.75C136.261 108.87 136.111 108.96 136.001 108.99C135.241 109.22 134.451 109.32 133.661 109.29C133.381 109.28 132.731 109.11 132.631 109.49C132.601 109.58 132.611 109.7 132.651 109.84C132.681 109.96 132.741 110.1 132.811 110.24C133.741 112.06 135.841 113.36 137.791 113.76C138.341 113.87 138.901 113.92 139.441 114.08C139.801 114.19 140.201 114.44 140.171 114.81C140.151 114.97 140.061 115.1 139.961 115.22C139.751 115.48 139.071 115.68 138.491 115.8C138.131 115.88 138.021 116.34 138.311 116.57C138.441 116.67 138.541 116.76 138.591 116.8C139.591 117.67 140.741 118.4 141.961 118.93C143.081 119.42 144.301 119.58 145.451 120.01C147.071 120.62 148.601 121.45 150.181 122.17C151.781 122.9 153.451 123.5 155.141 124.01C155.381 124.08 155.621 124.16 155.871 124.23C157.321 124.65 158.931 125.04 160.701 125.37C160.751 125.37 160.801 125.39 160.851 125.4C161.701 125.56 162.591 125.7 163.521 125.83C163.711 125.86 163.901 125.87 164.091 125.9C164.261 125.92 164.421 125.94 164.591 125.96C165.751 126.09 166.951 126.2 168.221 126.28C169.001 126.32 169.821 126.35 170.651 126.37C170.951 126.37 171.251 126.39 171.551 126.39C172.741 126.4 173.971 126.39 175.251 126.34C175.661 126.32 176.061 126.3 176.451 126.28C176.551 126.28 176.651 126.27 176.751 126.26C177.091 126.24 177.421 126.21 177.751 126.19C177.801 126.19 177.851 126.19 177.901 126.18C178.281 126.15 178.641 126.11 179.001 126.07C179.061 126.07 179.121 126.06 179.181 126.05C179.501 126.01 179.821 125.97 180.131 125.93C180.171 125.93 180.211 125.93 180.251 125.91C180.961 125.81 181.641 125.7 182.271 125.57C182.291 125.57 182.311 125.57 182.331 125.57C182.981 125.44 183.591 125.3 184.171 125.14C184.171 125.12 184.171 125.11 184.181 125.09C184.181 125.11 184.181 125.12 184.171 125.13C187.061 124.35 189.051 123.28 190.441 122.11C191.561 121.16 192.501 119.94 193.121 118.6C193.741 117.24 193.651 115.61 194.631 114.44C195.021 113.98 195.581 113.52 196.101 113.15C198.771 111.29 202.851 108.14 207.071 108.39C205.341 107.76 202.691 107.57 200.861 107.94C197.871 108.56 195.481 110.37 193.321 112.44C191.731 113.96 187.571 117.04 187.541 117.03C187.521 117.03 187.521 116.81 187.531 116.53C187.551 115.66 188.341 112.79 189.591 111.87Z" fill="var(--sapContent_Illustrative_Color11)"/>
<path d="M161.63 118.81C163.32 117.67 170.66 115.44 169.86 113.79C164.21 115.85 152.6 114.02 146.66 112.6C145.24 112.26 144.4 111.07 145.5 110.07C146.12 109.51 147.17 109.24 148.45 109.11C149.73 108.98 149.82 107.04 148.49 106.83C134.46 104.58 141.28 100.12 136.9 98.9899C135.55 98.6399 134.21 98.2699 132.87 97.8899C132.85 97.0399 133.03 96.1899 133.33 95.3899C133.35 95.3299 133.38 95.2699 133.4 95.1999C134.13 93.4599 133.57 91.4499 132 90.4099C130.99 89.7399 130.07 89.1199 129.91 88.9999C128.24 87.7599 126.69 86.2699 125.84 84.3299C125.28 83.0699 125.06 81.6699 125.17 80.2899C125.32 78.4699 125.77 78.3799 124.02 77.4699C119.37 75.0599 110.07 68.8599 104.89 65.3499C103.29 64.2699 101.1 65.8499 101.8 67.6499C101.82 67.6899 101.83 67.7199 101.85 67.7399C101.88 67.7399 101.91 67.7799 101.94 67.7999C102.15 67.9799 102.36 68.1599 102.57 68.3399C102.62 68.3799 102.67 68.4299 102.72 68.4699C102.92 68.6399 103.12 68.8099 103.32 68.9699C103.38 69.0199 103.44 69.0699 103.5 69.1199C103.7 69.2799 103.89 69.4499 104.09 69.6099C104.15 69.6599 104.22 69.7199 104.29 69.7699C104.49 69.9299 104.68 70.0899 104.88 70.2499C104.94 70.2999 105 70.3499 105.06 70.3899C105.27 70.5599 105.47 70.7199 105.67 70.8799C105.71 70.9099 105.74 70.9299 105.77 70.9599C106.7 71.6999 107.64 72.4299 108.57 73.1299C108.63 73.1699 108.69 73.2199 108.74 73.2599C108.93 73.3999 109.12 73.5399 109.3 73.6699C109.38 73.7199 109.45 73.7799 109.53 73.8399C109.71 73.9699 109.89 74.0999 110.07 74.2299C110.16 74.2899 110.24 74.3499 110.33 74.4099C110.51 74.5399 110.68 74.6599 110.86 74.7799C110.95 74.8399 111.03 74.8999 111.12 74.9599C111.3 75.0799 111.47 75.1999 111.65 75.3199C111.73 75.3699 111.81 75.4299 111.89 75.4799C112.07 75.5999 112.26 75.7199 112.44 75.8499C112.5 75.8899 112.57 75.9299 112.63 75.9699C113.33 76.4299 114.02 76.8599 114.71 77.2699C114.9 77.3799 115.08 77.4899 115.27 77.5999C115.34 77.6399 115.42 77.6899 115.49 77.7299C115.66 77.8299 115.83 77.9199 116 78.0199C116.09 78.0699 116.17 78.1199 116.26 78.1699C116.42 78.2599 116.59 78.3499 116.75 78.4399C116.84 78.4899 116.93 78.5399 117.03 78.5899C117.19 78.6699 117.35 78.7599 117.51 78.8399C117.6 78.8899 117.69 78.9299 117.79 78.9799C117.95 79.0599 118.11 79.1399 118.27 79.2099C118.36 79.2499 118.45 79.2899 118.53 79.3399C118.54 79.3399 118.56 79.3499 118.57 79.3599C118.57 79.3599 118.59 79.3599 118.6 79.3699C118.74 79.4399 118.88 79.4999 119.02 79.5699C119.1 79.6099 119.17 79.6399 119.25 79.6699C119.3 79.6899 119.35 79.7099 119.4 79.7399C119.47 79.7699 119.54 79.7999 119.61 79.8299C119.66 79.8499 119.71 79.8699 119.76 79.8999H119.77C120 79.9999 120.22 80.0999 120.45 80.1899C120.45 80.1899 120.75 87.1099 125.26 90.1199C125.58 90.3399 125.87 90.5299 126.13 90.7199C126.89 91.2699 127.74 91.8599 128.23 92.6699C128.29 92.7799 128.35 92.8899 128.37 93.0099C128.39 93.1299 128.35 93.2699 128.25 93.3399C128.11 93.4499 127.9 93.3899 127.73 93.3199C127.16 93.0999 126.58 92.8699 126.03 92.5899C125.76 92.4499 125.49 92.2899 125.24 92.1199C125.15 92.0599 124.72 91.6299 124.6 91.7199C124.58 91.7399 124.56 91.7699 124.56 91.8199C124.56 91.8399 124.56 91.8699 124.56 91.8999C124.56 91.9899 124.59 92.1099 124.62 92.2599C124.63 92.3099 124.65 92.3599 124.66 92.4099C124.89 93.1699 125.27 93.9499 125.69 94.6099C126 95.0899 126.38 95.5299 126.85 95.8599C127.05 95.9999 127.39 96.1399 127.62 96.3499C127.64 96.3699 127.66 96.3799 127.68 96.3999C127.72 96.4399 127.75 96.4799 127.77 96.5299C127.77 96.5299 127.78 96.5399 127.78 96.5499C127.84 96.6599 127.85 96.7799 127.81 96.9199C127.81 96.9399 127.79 96.9599 127.78 96.9799C127.76 97.0199 127.73 97.0699 127.69 97.1099C127.65 97.1499 127.61 97.1799 127.57 97.2099C127.53 97.2399 127.48 97.2599 127.43 97.2899C127.37 97.3199 127.3 97.3399 127.23 97.3599C127.23 97.3599 127.23 97.3599 127.22 97.3599C127.15 97.3799 127.08 97.3899 127 97.4099C126.99 97.4099 126.98 97.4099 126.96 97.4099C126.89 97.4099 126.81 97.4299 126.73 97.4299C126.71 97.4299 126.69 97.4299 126.67 97.4299C126.59 97.4299 126.5 97.4299 126.42 97.4299C126.16 97.4299 125.91 97.4599 125.83 97.7699C125.77 97.9999 125.87 98.2499 125.96 98.4699C126.83 100.35 128.55 101.81 130.55 102.36C130.75 102.41 131.01 102.57 130.92 102.75C130.88 102.83 130.79 102.87 130.71 102.9C129.94 103.19 129.12 103.38 128.31 103.49C128.11 103.52 127.87 103.52 127.63 103.52C127.39 103.52 127.16 103.51 126.95 103.52C126.73 103.52 126.08 103.61 126.62 103.98C128.06 104.94 129.56 105.81 131.11 106.6C132.45 107.29 133.76 108.04 135.24 108.38C135.5 108.44 135.77 108.5 136.02 108.59C136.08 108.61 136.14 108.65 136.16 108.71C136.2 108.83 136.05 108.92 135.94 108.95C135.18 109.18 134.39 109.28 133.6 109.25C133.32 109.24 132.67 109.07 132.57 109.45C132.54 109.54 132.55 109.66 132.59 109.8C132.62 109.92 132.68 110.06 132.75 110.2C133.68 112.02 135.78 113.32 137.73 113.72C138.28 113.83 138.84 113.88 139.38 114.04C139.65 114.12 139.94 114.28 140.05 114.51C140.09 114.59 140.11 114.67 140.1 114.76C140.08 114.92 139.99 115.05 139.89 115.17C139.68 115.43 139 115.63 138.42 115.75C138.15 115.81 138.02 116.09 138.1 116.32C138.12 116.4 138.17 116.47 138.24 116.53C138.37 116.63 138.47 116.72 138.52 116.76C139.52 117.63 140.67 118.36 141.89 118.89C143.01 119.38 144.23 119.54 145.38 119.97C147 120.58 148.53 121.41 150.11 122.13C151.71 122.86 153.38 123.46 155.07 123.97C155.31 124.04 155.55 124.12 155.8 124.19C157.25 124.61 158.86 125 160.63 125.33C160.68 125.33 160.73 125.35 160.78 125.36C161.63 125.52 162.5 125.67 163.43 125.8C163.62 125.83 163.82 125.85 164.01 125.87C164.18 125.89 164.6 125.96 164.77 125.97C165.93 126.1 166.89 126.16 168.16 126.23C168.42 126.25 168.69 126.26 168.96 126.27C168.97 126.27 168.99 126.27 169 126.26C169.53 126.28 170.04 126.31 170.59 126.32C170.89 126.32 171.19 126.34 171.49 126.34C172.68 126.35 173.91 126.34 175.19 126.29C175.6 126.27 176 126.25 176.39 126.23C176.49 126.23 176.59 126.22 176.69 126.21C177.03 126.19 177.36 126.17 177.68 126.14C177.73 126.14 177.78 126.14 177.83 126.13C178.21 126.1 178.57 126.06 178.93 126.02C178.99 126.02 179.05 126.01 179.11 126C179.43 125.96 179.75 125.92 180.06 125.88C180.1 125.88 180.14 125.88 180.18 125.86C180.27 125.85 180.38 125.75 180.51 125.6C182.01 123.82 187.17 120.57 180.17 121.46C164.17 123.5 158.18 121.11 161.59 118.81H161.63Z" fill="var(--sapContent_Illustrative_Color1)"/>
<path d="M205.85 101.83C205.85 101.83 205.82 101.79 205.8 101.78C204.81 102.68 203.82 103.58 202.81 104.47C204.13 104.51 205.43 104.69 206.68 105.1C207.11 105.24 207.53 105.41 207.93 105.61L207.7 104.96C207.29 103.81 206.66 102.75 205.84 101.84L205.85 101.83Z" fill="var(--sapContent_Illustrative_Color1)"/>
<path d="M214.15 104.97C212.23 105.45 210.24 105.41 208.3 105.05C208.1 105.01 207.9 104.97 207.7 104.92C207.29 103.78 206.66 102.73 205.85 101.83C204.6 100.45 202.61 98.2302 200.76 96.1802C200.35 96.9802 199.92 97.7702 199.49 98.5502C199.49 98.5702 199.47 98.5802 199.46 98.6002C197.73 101.75 195.28 104.44 192.33 106.5C192.2 106.59 190.95 107.43 189.36 108.51C185.36 111.21 185.3 117.12 189.28 119.84C189.33 119.87 189.37 119.9 189.41 119.93C190.04 120.34 190.7 120.76 191.38 121.12C192.06 120.36 192.64 119.5 193.06 118.58C193.68 117.22 193.67 115.57 194.59 114.35C194.97 113.84 195.49 113.45 196.02 113.09C199 111.01 203.62 107.76 207.48 108.43C207.77 108.48 208.05 108.52 208.34 108.56C208.36 108.56 208.38 108.56 208.39 108.56C208.97 108.63 209.56 108.68 210.14 108.68H210.38C210.38 108.68 215.14 108.52 215.13 108.27C215.59 107.82 215.75 105.69 215.83 105.52C215.83 105.49 215.85 105.47 215.86 105.44C215.86 105.43 215.86 105.41 215.87 105.4C215.87 105.4 215.87 105.38 215.87 105.37C215.9 105.3 215.92 105.22 215.94 105.14C215.95 105.1 215.97 105.05 215.98 105.01C215.99 104.97 216 104.92 216.02 104.88C216.03 104.84 216.04 104.79 216.05 104.75C216.07 104.68 216.08 104.62 216.1 104.54C216.1 104.49 216.12 104.43 216.13 104.38C216.13 104.34 216.13 104.31 216.15 104.27C215.5 104.57 214.83 104.81 214.14 104.98L214.15 104.97Z" fill="var(--sapContent_Illustrative_Color1)"/>
<path d="M200.63 98.2399C200.53 98.5399 200.47 98.8499 200.47 99.1799C200.47 99.9399 200.76 100.62 201.24 101.14C201.77 101.71 202.52 102.08 203.37 102.08C203.61 102.08 203.83 102.05 204.05 101.99C204.23 101.95 204.4 101.89 204.56 101.82C204.53 101.84 204.63 101.95 204.81 102.11C205.28 102.54 206.27 103.31 206.39 103.38C207.16 103.81 206.97 104.73 207.68 105.25C208.81 106.08 210.63 106.78 211.97 107.3C212.99 107.7 214.07 108 215.14 108.27C215.14 108.27 214.96 107.8 214.63 107.14C214.53 106.94 214.42 106.73 214.29 106.51C213.71 105.49 212.86 104.3 211.81 103.7C210.24 102.81 207.39 100.91 206.13 100.06C206.22 99.7799 206.27 99.4899 206.27 99.1899C206.27 97.5899 204.97 96.2999 203.37 96.2999C203.05 96.2999 202.75 96.3499 202.46 96.4499C201.21 94.9599 196.17 89.3099 193.54 88.6099C193.54 88.6099 193.76 88.8099 194.15 89.2199C194.85 89.9499 196.09 91.3499 197.58 93.4599C198.52 94.7799 199.56 96.3699 200.63 98.2499V98.2399ZM203.41 96.8699C203.85 96.8699 204.2 97.2199 204.2 97.6599C204.2 98.0999 203.85 98.4499 203.41 98.4499C202.97 98.4499 202.62 98.0999 202.62 97.6599C202.62 97.2199 202.97 96.8699 203.41 96.8699Z" fill="var(--sapContent_Illustrative_Color22)"/>
<path d="M203.41 98.7498C204.01 98.7498 204.49 98.2698 204.49 97.6698C204.49 97.0698 204.01 96.5898 203.41 96.5898C202.81 96.5898 202.32 97.0698 202.32 97.6698C202.32 98.2698 202.81 98.7498 203.41 98.7498Z" fill="var(--sapContent_Illustrative_Color27)"/>
<path d="M219.96 109.71C219.23 108.78 218.35 107.8 217.3 106.79C217.27 106.76 217.23 106.73 217.2 106.7C216.78 106.3 216.33 105.89 215.85 105.48C215.85 105.48 215.85 105.5 215.83 105.52C215.75 105.69 215.36 106.47 214.91 106.92C214.82 107.01 214.72 107.09 214.63 107.14C214.96 107.8 215.14 108.27 215.14 108.27C214.07 108 212.99 107.71 211.97 107.3C210.62 106.77 208.81 106.08 207.68 105.25L207.95 105.61L210.26 108.69L211.87 110.84L211.9 110.88L212.16 111.23L213.56 110.19C213.56 110.19 218.31 113.37 221.15 115.67C222.17 116.5 222.92 117.2 223.08 117.58C223.55 118.71 224.12 114.99 219.99 109.73L219.96 109.71Z" fill="var(--sapContent_Illustrative_Color27)"/>
<path d="M219.69 113.69C218.2 112.44 216.73 111.14 215.54 109.58C215.19 109.12 214.87 108.64 214.62 108.13C213.72 107.9 212.82 107.64 211.97 107.3C210.62 106.77 208.81 106.08 207.68 105.25L207.95 105.61L210.25 108.69L211.86 110.84L211.89 110.88L212.15 111.23L213.4 110.09C213.4 110.09 218.3 113.37 221.13 115.67C222.15 116.5 222.9 117.2 223.06 117.58C223.22 117.96 223.38 117.79 223.38 117.21C222.29 115.88 221 114.81 219.69 113.71V113.69Z" fill="var(--sapContent_Illustrative_Color26)"/>
<path d="M212.64 107.57C212.64 107.57 212.64 107.55 212.64 107.54C212.42 107.46 212.19 107.38 211.97 107.3C210.62 106.77 208.81 106.08 207.68 105.25L207.95 105.61L210.25 108.69L212.196 111.337L213.55 110.19L213.68 110.28C213.18 109.46 212.86 108.48 212.65 107.58L212.64 107.57Z" fill="var(--sapContent_Illustrative_Color26)"/>
<path d="M183.61 97.85C183.61 97.69 183.58 97.52 183.56 97.35C183.53 97.11 183.48 96.86 183.42 96.6C183.4 96.52 183.38 96.43 183.36 96.35C182.92 94.73 181.9 92.68 179.85 90.13C179.73 89.98 179.61 89.83 179.48 89.67C179.44 89.62 179.4 89.57 179.36 89.53C179.36 89.53 179.34 89.51 179.34 89.5C179.29 89.44 179.24 89.38 179.19 89.32C179.16 89.28 179.12 89.24 179.08 89.19C179.04 89.14 178.99 89.08 178.94 89.03C178.87 88.95 178.8 88.88 178.74 88.8C178.7 88.75 178.65 88.7 178.6 88.65C178.57 88.61 178.54 88.58 178.51 88.54C178.37 88.38 178.22 88.22 178.07 88.06C178.07 88.06 178.07 88.06 178.07 88.05C178.05 88.03 178.03 88.01 178.01 87.99C177.95 87.93 177.9 87.87 177.84 87.81C177.75 87.72 177.67 87.62 177.58 87.53C177.58 87.53 177.58 87.53 177.57 87.51C177.54 87.48 177.5 87.44 177.48 87.41C177.44 87.37 177.4 87.32 177.36 87.28C177.29 87.21 177.22 87.13 177.15 87.06C177.13 87.04 177.11 87.02 177.09 87C177.05 86.96 177 86.91 176.96 86.86C176.27 86.14 175.57 85.4 174.84 84.72C174.81 84.69 174.78 84.66 174.75 84.63C174.49 84.38 174.23 84.12 173.96 83.87C173.95 83.86 173.93 83.84 173.92 83.83C173.65 83.57 173.38 83.31 173.1 83.04C173.06 83 173.02 82.96 172.98 82.92C172.71 82.66 172.44 82.41 172.16 82.15C172.12 82.11 172.07 82.07 172.03 82.02C171.75 81.76 171.46 81.49 171.18 81.23C171.07 81.13 170.26 80.38 170.19 80.33C169.89 80.06 169.59 79.78 169.29 79.51C169.26 79.48 169.22 79.45 169.19 79.42C168.89 79.15 168.6 78.89 168.3 78.62C168.27 78.59 168.23 78.56 168.2 78.53C167.57 77.97 166.94 77.41 166.3 76.85C164.55 75.32 162.78 73.8 161 72.3C159.3 70.87 157.61 69.4 155.79 68.12C152.8 66.02 149.5 64.37 146.02 63.27C145.55 63.12 145.09 62.98 144.65 62.86C144.54 62.83 144.44 62.8 144.34 62.78C143.67 62.6 142.98 62.44 142.28 62.41C141.13 62.37 140.05 61.69 139.12 61.07C138.19 60.44 137.35 59.76 136.42 59.16C135.71 58.7 134.96 58.31 134.15 58.08C133.5 57.89 132.81 57.82 132.14 57.71C126.98 56.87 123.1 53.78 118.79 51.13C118.4 50.89 118.04 50.68 117.7 50.5C117.7 50.5 117.7 50.5 117.68 50.5C117.58 50.45 117.48 50.39 117.38 50.35C117.36 50.35 117.34 50.33 117.32 50.32C117.24 50.28 117.16 50.24 117.08 50.21C117.05 50.2 117.03 50.19 117 50.18C116.93 50.15 116.86 50.12 116.79 50.1C116.76 50.1 116.74 50.08 116.71 50.07C116.65 50.05 116.58 50.03 116.52 50.01C116.5 50.01 116.47 49.99 116.45 49.99C116.39 49.97 116.32 49.96 116.27 49.94C116.25 49.94 116.24 49.94 116.22 49.94C116.08 49.91 115.95 49.91 115.84 49.92C115.82 49.92 115.81 49.92 115.8 49.92C115.76 49.92 115.73 49.94 115.7 49.95C115.68 49.95 115.67 49.97 115.66 49.98C115.63 50 115.61 50.01 115.59 50.03C115.58 50.04 115.56 50.06 115.55 50.07C115.53 50.09 115.52 50.12 115.51 50.15C115.42 50.35 115.42 50.6 115.49 50.8C115.53 50.94 115.63 51.07 115.72 51.19C115.81 51.31 115.9 51.44 115.98 51.56C116.05 51.66 116.11 51.75 116.18 51.85C116.26 51.96 116.33 52.07 116.41 52.18C116.5 52.3 116.58 52.43 116.67 52.55C116.76 52.68 116.86 52.82 116.95 52.95C117.05 53.1 117.16 53.24 117.25 53.39C117.36 53.55 117.47 53.7 117.58 53.86C117.7 54.03 117.81 54.19 117.93 54.36C118.05 54.53 118.17 54.71 118.3 54.88C118.42 55.05 118.55 55.24 118.68 55.42C118.81 55.6 118.94 55.8 119.07 55.98C119.2 56.17 119.34 56.37 119.47 56.56C119.6 56.75 119.75 56.95 119.88 57.15C120.02 57.35 120.16 57.55 120.3 57.75C120.44 57.95 120.59 58.15 120.73 58.36C120.87 58.56 121.02 58.77 121.16 58.97C121.3 59.17 121.45 59.38 121.59 59.58C121.73 59.78 121.88 59.98 122.02 60.19C122.16 60.4 122.31 60.59 122.45 60.79C122.59 60.99 122.73 61.19 122.87 61.38C123.01 61.58 123.15 61.77 123.29 61.96C123.43 62.16 123.56 62.34 123.7 62.53C123.84 62.72 123.97 62.9 124.1 63.08C124.23 63.26 124.36 63.44 124.49 63.61C124.62 63.78 124.74 63.95 124.86 64.12C124.99 64.29 125.1 64.44 125.22 64.6C125.33 64.75 125.44 64.9 125.56 65.06C125.67 65.2 125.77 65.34 125.88 65.48C125.98 65.61 126.08 65.74 126.17 65.87C126.26 65.99 126.35 66.1 126.44 66.22C126.5 66.29 126.56 66.37 126.61 66.44C126.86 66.76 127.07 67 127.21 67.17C128.34 68.41 126.4 67.23 124.94 67.04C124.58 66.99 124.24 67 123.99 67.13C123.99 67.13 123.99 67.13 123.97 67.13C123.93 67.15 123.9 67.17 123.87 67.2C123.86 67.2 123.85 67.22 123.83 67.23C123.8 67.25 123.78 67.28 123.76 67.3C123.76 67.31 123.74 67.32 123.73 67.34C123.7 67.38 123.68 67.42 123.65 67.47C123.63 67.51 123.61 67.57 123.6 67.62C123.6 67.64 123.6 67.66 123.59 67.67C123.59 67.71 123.57 67.76 123.57 67.81C123.57 67.83 123.57 67.85 123.57 67.87C123.48 69.29 124.37 71.16 124.95 72.42C125.69 74.02 126.64 75.53 127.74 76.91C129.92 79.66 132.69 81.84 135.27 84.17C135.31 84.21 135.34 84.24 135.38 84.27C135.46 84.35 135.55 84.42 135.63 84.5C135.69 84.55 135.74 84.6 135.8 84.65C135.88 84.72 135.96 84.79 136.04 84.86C136.08 84.9 136.13 84.94 136.18 84.98C136.27 85.06 136.37 85.15 136.46 85.23C136.5 85.26 136.53 85.29 136.57 85.33C136.69 85.44 136.81 85.54 136.93 85.65C136.98 85.7 137.04 85.75 137.09 85.79C137.14 85.83 137.19 85.88 137.24 85.92C137.26 85.94 137.29 85.96 137.31 85.98C137.36 86.03 137.42 86.08 137.47 86.12C137.54 86.18 137.61 86.25 137.68 86.31C137.73 86.36 137.79 86.41 137.85 86.46C137.93 86.53 138.01 86.6 138.09 86.68C138.13 86.72 138.17 86.75 138.21 86.78C138.33 86.88 138.44 86.99 138.56 87.09C138.6 87.13 138.64 87.16 138.68 87.19C138.76 87.26 138.84 87.33 138.92 87.4C138.96 87.44 139.01 87.47 139.05 87.51C139.13 87.58 139.2 87.64 139.28 87.71C139.32 87.75 139.37 87.79 139.41 87.83C139.42 87.84 139.44 87.86 139.45 87.87C139.52 87.93 139.6 88 139.67 88.06C139.69 88.08 139.72 88.1 139.74 88.12C139.85 88.22 139.96 88.31 140.06 88.4C140.1 88.43 140.13 88.46 140.16 88.49C140.23 88.55 140.3 88.62 140.37 88.68C140.41 88.72 140.45 88.75 140.5 88.79C140.57 88.85 140.63 88.91 140.7 88.96C140.74 88.99 140.77 89.02 140.8 89.05C140.89 89.13 140.98 89.2 141.06 89.27C141.07 89.27 141.08 89.29 141.1 89.3C141.19 89.38 141.29 89.46 141.38 89.53C141.41 89.56 141.44 89.58 141.47 89.6C141.53 89.65 141.59 89.7 141.65 89.75C141.68 89.78 141.71 89.8 141.75 89.83C141.81 89.88 141.87 89.93 141.92 89.97C141.95 89.99 141.97 90.01 142 90.04C142.16 90.17 142.31 90.3 142.46 90.41C142.48 90.43 142.5 90.45 142.52 90.46C142.57 90.5 142.61 90.53 142.66 90.57C142.68 90.59 142.71 90.61 142.73 90.62C142.77 90.65 142.81 90.68 142.86 90.72C142.88 90.73 142.9 90.75 142.92 90.76C142.98 90.8 143.03 90.84 143.08 90.88C143.29 91.03 143.49 91.18 143.7 91.36C143.9 91.53 144.1 91.7 144.3 91.88C144.42 91.98 144.53 92.09 144.64 92.2C144.67 92.23 144.7 92.26 144.73 92.29C144.85 92.41 144.97 92.52 145.09 92.64C145.11 92.66 145.14 92.69 145.16 92.71C145.29 92.84 145.41 92.97 145.54 93.1C145.55 93.12 145.57 93.13 145.58 93.15C145.71 93.29 145.84 93.43 145.97 93.57C145.97 93.57 145.97 93.57 145.98 93.59C147.02 94.74 147.85 96.08 148.93 97.18C149.57 97.82 150.33 98.32 151.1 98.8C153.93 100.55 156.93 102.04 160.05 103.19C161.29 103.65 162.63 104.08 164.04 104.45C165.42 104.82 166.86 105.12 168.31 105.32C168.87 105.4 169.42 105.46 169.98 105.5C170.03 105.5 170.08 105.5 170.12 105.51C170.72 105.55 171.32 105.58 171.91 105.58H171.93C172.24 105.58 172.55 105.58 172.85 105.56C173.46 105.53 174.07 105.48 174.66 105.4C175.25 105.32 175.84 105.2 176.41 105.06C177.42 104.8 178.37 104.43 179.27 103.95C179.92 103.6 180.54 103.19 181.12 102.7C182.1 101.87 183.13 100.93 183.5 99.66C183.59 99.35 183.66 99 183.69 98.6C183.71 98.36 183.71 98.1 183.69 97.82H183.68L183.61 97.85Z" fill="var(--sapContent_Illustrative_Color24)"/>
<path d="M183.61 97.8498C183.61 97.6898 183.58 97.5198 183.56 97.3498C183.53 97.1098 183.48 96.8598 183.42 96.5998C183.4 96.5198 183.38 96.4298 183.36 96.3498C182.92 94.7298 181.9 92.6798 179.85 90.1298C179.73 89.9798 179.61 89.8298 179.48 89.6698C179.44 89.6198 179.4 89.5698 179.36 89.5298C179.36 89.5298 179.34 89.5098 179.34 89.4998C179.29 89.4398 179.24 89.3798 179.19 89.3198C179.16 89.2798 179.12 89.2398 179.08 89.1898C179.04 89.1398 178.99 89.0798 178.94 89.0298C178.87 88.9498 178.8 88.8798 178.74 88.7998C178.7 88.7498 178.65 88.6998 178.6 88.6498C178.57 88.6098 178.54 88.5798 178.51 88.5398C178.4 88.4198 178.29 88.2998 178.18 88.1698C178.2 88.6498 178.21 89.1198 178.22 89.5998C178.24 92.1898 178.12 95.3798 176.26 97.4098C174.51 99.3098 171.55 99.5998 169.14 99.2898C166.11 98.9098 163.22 97.7898 160.48 96.4898C157.84 95.2398 155.31 93.7798 152.85 92.2298C149.93 90.3898 147.09 88.3998 144.29 86.3798C140.8 83.8498 137.39 81.1998 134.22 78.2798C134.22 78.2798 134.2 78.2598 134.19 78.2498C132.33 76.5298 131.72 73.8298 132.67 71.4798C132.73 71.3198 132.8 71.1798 132.86 71.0498C133.4 69.9898 134.19 69.0398 135.24 68.5798C133.82 67.0098 132.35 65.4898 130.88 63.9698C128.48 61.4998 126.18 58.9298 123.97 56.2798C123.01 55.1198 122 53.9098 121.14 52.6198C120.36 52.1098 119.57 51.6098 118.77 51.1098C118.38 50.8698 118.02 50.6598 117.68 50.4798C117.68 50.4798 117.68 50.4798 117.66 50.4798C117.56 50.4298 117.46 50.3698 117.36 50.3298C117.34 50.3298 117.32 50.3098 117.3 50.2998C117.22 50.2598 117.14 50.2198 117.06 50.1898C117.03 50.1798 117.01 50.1698 116.98 50.1598C116.91 50.1298 116.84 50.0998 116.77 50.0798C116.74 50.0798 116.72 50.0598 116.69 50.0498C116.63 50.0298 116.56 49.9998 116.5 49.9898C116.48 49.9898 116.45 49.9698 116.43 49.9698C116.37 49.9498 116.3 49.9398 116.25 49.9298C116.23 49.9298 116.22 49.9298 116.2 49.9298C116.06 49.8998 115.93 49.8998 115.82 49.9098C115.8 49.9098 115.79 49.9098 115.78 49.9098C115.74 49.9098 115.71 49.9298 115.68 49.9398C115.66 49.9398 115.65 49.9598 115.64 49.9698C115.61 49.9898 115.59 49.9998 115.57 50.0198C115.56 50.0298 115.54 50.0498 115.53 50.0598C115.51 50.0798 115.5 50.1098 115.49 50.1398C115.4 50.3398 115.4 50.5898 115.47 50.7898C115.51 50.9298 115.61 51.0598 115.7 51.1798C115.79 51.2998 115.88 51.4298 115.96 51.5498C116.03 51.6498 116.09 51.7398 116.16 51.8398C116.24 51.9498 116.31 52.0598 116.39 52.1698C116.48 52.2898 116.56 52.4198 116.65 52.5398C116.74 52.6698 116.84 52.8098 116.93 52.9398C117.03 53.0898 117.14 53.2298 117.23 53.3798C117.34 53.5398 117.45 53.6898 117.56 53.8498C117.68 54.0198 117.79 54.1798 117.91 54.3498C118.03 54.5198 118.15 54.6998 118.28 54.8698C118.41 55.0498 118.53 55.2298 118.66 55.4098C118.79 55.5998 118.92 55.7898 119.05 55.9698C119.18 56.1598 119.32 56.3598 119.45 56.5498C119.59 56.7498 119.73 56.9398 119.86 57.1398C120 57.3398 120.14 57.5398 120.28 57.7398C120.42 57.9398 120.57 58.1398 120.71 58.3498C120.85 58.5498 121 58.7598 121.14 58.9598C121.28 59.1598 121.43 59.3698 121.57 59.5698C121.71 59.7698 121.86 59.9698 122 60.1798C122.14 60.3798 122.29 60.5798 122.43 60.7798C122.57 60.9798 122.71 61.1798 122.85 61.3698C122.99 61.5698 123.13 61.7598 123.27 61.9498C123.41 62.1398 123.54 62.3298 123.68 62.5198C123.81 62.6998 123.95 62.8898 124.08 63.0698C124.21 63.2498 124.34 63.4298 124.47 63.5998C124.6 63.7698 124.72 63.9398 124.84 64.1098C124.96 64.2698 125.08 64.4298 125.2 64.5898C125.31 64.7398 125.42 64.8898 125.54 65.0498C125.65 65.1898 125.75 65.3298 125.86 65.4698C125.96 65.5998 126.06 65.7298 126.15 65.8598C126.24 65.9798 126.33 66.0898 126.42 66.2098C126.48 66.2798 126.54 66.3598 126.59 66.4298C126.84 66.7498 127.05 66.9898 127.19 67.1598C128.32 68.3998 126.38 67.2198 124.92 67.0298C124.56 66.9798 124.22 66.9898 123.97 67.1198C123.97 67.1198 123.97 67.1198 123.95 67.1198C123.91 67.1398 123.88 67.1598 123.85 67.1898C123.84 67.1898 123.83 67.2098 123.81 67.2198C123.78 67.2398 123.76 67.2698 123.74 67.2898C123.74 67.2998 123.72 67.3098 123.71 67.3298C123.68 67.3698 123.66 67.4098 123.63 67.4598C123.61 67.4998 123.59 67.5598 123.58 67.6098C123.58 67.6298 123.58 67.6498 123.57 67.6598C123.57 67.7098 123.55 67.7498 123.55 67.7998C123.55 67.8198 123.55 67.8398 123.55 67.8598C123.46 69.2798 124.35 71.1498 124.93 72.4098C125.67 74.0098 126.62 75.5198 127.72 76.8998C127.96 77.2098 128.22 77.5098 128.48 77.8098C128.53 77.8698 128.58 77.9198 128.63 77.9798C128.87 78.2498 129.12 78.5198 129.37 78.7898C129.44 78.8598 129.51 78.9398 129.58 79.0098C129.81 79.2498 130.05 79.4798 130.28 79.7098C130.38 79.8098 130.49 79.9098 130.59 80.0098C130.76 80.1698 130.92 80.3198 131.09 80.4798C131.4 80.7698 131.71 81.0498 132.02 81.3298C133.09 82.2798 134.17 83.2098 135.22 84.1598C135.26 84.1998 135.29 84.2298 135.33 84.2598C135.41 84.3398 135.5 84.4098 135.58 84.4898C135.64 84.5398 135.69 84.5898 135.75 84.6398C135.83 84.7098 135.91 84.7798 135.99 84.8498C136.03 84.8898 136.08 84.9298 136.13 84.9698C136.22 85.0498 136.32 85.1398 136.41 85.2198C136.45 85.2498 136.48 85.2798 136.52 85.3198C136.64 85.4298 136.76 85.5298 136.88 85.6398C136.93 85.6898 136.99 85.7398 137.04 85.7798C137.09 85.8198 137.14 85.8698 137.19 85.9098C137.21 85.9298 137.24 85.9498 137.26 85.9698C137.31 86.0198 137.37 86.0698 137.42 86.1098C137.49 86.1698 137.56 86.2398 137.63 86.2998C137.68 86.3498 137.74 86.3998 137.8 86.4498C137.88 86.5198 137.96 86.5898 138.04 86.6698C138.08 86.7098 138.12 86.7398 138.16 86.7698C138.28 86.8698 138.39 86.9798 138.51 87.0798C138.55 87.1198 138.59 87.1498 138.63 87.1798C138.71 87.2498 138.79 87.3198 138.87 87.3898C138.91 87.4298 138.96 87.4598 139 87.4998C139.08 87.5698 139.15 87.6298 139.23 87.6998C139.27 87.7398 139.32 87.7798 139.36 87.8198C139.37 87.8298 139.39 87.8498 139.4 87.8598C139.47 87.9198 139.55 87.9898 139.62 88.0498C139.64 88.0698 139.67 88.0898 139.69 88.1098C139.8 88.2098 139.91 88.2998 140.01 88.3898C140.05 88.4198 140.08 88.4498 140.11 88.4798C140.18 88.5398 140.25 88.6098 140.33 88.6698C140.37 88.7098 140.41 88.7398 140.46 88.7798C140.53 88.8398 140.59 88.8998 140.66 88.9498C140.7 88.9798 140.73 89.0098 140.76 89.0398C140.85 89.1198 140.94 89.1898 141.02 89.2598C141.03 89.2598 141.04 89.2798 141.06 89.2898C141.15 89.3698 141.25 89.4498 141.34 89.5198C141.37 89.5498 141.4 89.5698 141.43 89.5898C141.49 89.6398 141.55 89.6898 141.61 89.7398C141.64 89.7698 141.67 89.7898 141.71 89.8198C141.77 89.8698 141.83 89.9198 141.88 89.9598C141.91 89.9798 141.93 90.0098 141.96 90.0298C142.12 90.1598 142.27 90.2898 142.42 90.3998C142.44 90.4198 142.46 90.4398 142.48 90.4498C142.53 90.4898 142.57 90.5198 142.62 90.5598C142.64 90.5798 142.67 90.5998 142.69 90.6098C142.73 90.6398 142.77 90.6698 142.82 90.7098C142.84 90.7198 142.86 90.7398 142.88 90.7498C142.94 90.7898 142.99 90.8298 143.04 90.8698C143.25 91.0198 143.45 91.1698 143.66 91.3498C143.86 91.5198 144.06 91.6898 144.26 91.8698C144.38 91.9698 144.49 92.0798 144.6 92.1898C144.63 92.2198 144.66 92.2498 144.69 92.2798C144.81 92.3998 144.93 92.5098 145.05 92.6298C145.07 92.6498 145.1 92.6698 145.12 92.6998C145.25 92.8298 145.37 92.9598 145.5 93.0898C145.51 93.1098 145.53 93.1198 145.54 93.1298C145.67 93.2698 145.8 93.4098 145.93 93.5498C145.93 93.5498 145.93 93.5498 145.94 93.5698C146.98 94.7198 147.81 96.0598 148.89 97.1598C149.53 97.7998 150.29 98.2998 151.06 98.7798C153.89 100.53 156.89 102.02 160.01 103.17C161.25 103.63 162.59 104.06 164 104.43C165.38 104.8 166.82 105.1 168.27 105.3C168.83 105.38 169.38 105.44 169.94 105.48C169.99 105.48 170.04 105.48 170.08 105.49C170.68 105.53 171.28 105.56 171.87 105.56H171.89C172.2 105.56 172.51 105.56 172.81 105.54C173.42 105.51 174.03 105.46 174.62 105.38C175.21 105.3 175.8 105.18 176.37 105.04C177.38 104.78 178.33 104.41 179.23 103.93C179.88 103.58 180.5 103.17 181.08 102.68C182.06 101.85 183.09 100.91 183.46 99.6398C183.55 99.3298 183.62 98.9798 183.65 98.5798C183.67 98.3398 183.67 98.0798 183.65 97.7998L183.61 97.8498Z" fill="var(--sapContent_Illustrative_Color11)"/>
</g>
<defs>
<clipPath id="clip0_6865_476400">
<rect width="182.58" height="169.92" fill="var(--sapContent_Illustrative_Color8)" transform="translate(69 35)"/>
</clipPath>
</defs>
</svg>