<svg width="320" height="240" viewBox="0 0 320 240" fill="none" xmlns="http://www.w3.org/2000/svg" id="sapIllus-Scene-Achievement">
<rect y="59" width="320" height="138" rx="24" fill="var(--sapContent_Illustrative_Color20)"/>
<path d="M179.494 59.2514C179.315 60.0213 179.205 60.8011 179.175 61.5709C179.025 60.7711 178.886 60.0013 178.736 59.2514H97.7911C98.0006 60.2712 98.6891 63.6905 98.8787 64.5603C99.0883 65.5801 100.056 66.4 101.633 67.0198C101.713 67.5497 101.802 68.1196 101.902 68.7695C102.212 70.6591 102.641 73.0386 103.229 75.7781C103.249 75.8681 103.269 75.958 103.289 76.048C102.7 75.0982 101.972 74.2084 101.044 73.4585C99.218 71.9888 96.8032 70.1992 92.2431 70.0592C86.8048 69.8893 83.013 73.6285 82.2846 77.9076C81.0174 83.9164 83.8412 91.5049 93.6001 98.1435C105.205 105.152 113.657 110.251 115.363 114.26C116.381 116.63 116.251 118.09 115.802 118.669C115.353 119.249 114.325 119.179 113.747 119.079C112.689 118.899 111.701 119.619 111.521 120.669C111.342 121.709 112.06 122.719 113.108 122.899C113.906 123.029 114.665 123.059 115.363 122.959C116.8 122.769 117.997 122.109 118.826 121.049C119.544 120.129 119.913 118.979 119.963 117.66C120.033 117.75 120.103 117.84 120.173 117.93C120.262 118.04 120.352 118.159 120.442 118.279C120.562 118.429 120.682 118.589 120.811 118.739C120.911 118.859 121.011 118.979 121.111 119.099C121.24 119.249 121.37 119.399 121.5 119.559C121.61 119.679 121.719 119.809 121.829 119.929C121.959 120.079 122.098 120.229 122.238 120.379C122.358 120.509 122.468 120.629 122.587 120.759C122.727 120.909 122.867 121.049 123.007 121.199C123.126 121.329 123.256 121.449 123.386 121.579C123.535 121.729 123.675 121.869 123.825 122.019C123.954 122.149 124.084 122.279 124.224 122.399C124.374 122.539 124.523 122.679 124.683 122.829C124.823 122.959 124.962 123.088 125.102 123.208C125.262 123.348 125.411 123.488 125.571 123.628C125.721 123.758 125.86 123.878 126.01 124.008C126.17 124.148 126.339 124.278 126.499 124.418C126.649 124.538 126.798 124.668 126.958 124.788C127.128 124.928 127.297 125.058 127.467 125.188C127.627 125.308 127.776 125.438 127.936 125.558C128.115 125.688 128.295 125.818 128.475 125.958C128.634 126.078 128.794 126.198 128.954 126.308C129.143 126.448 129.343 126.578 129.542 126.718C129.692 126.828 129.852 126.928 130.001 127.038C130.351 127.268 130.7 127.498 131.049 127.718C131.219 127.828 131.398 127.928 131.578 128.037C131.768 128.157 131.967 128.277 132.157 128.387C132.346 128.497 132.536 128.607 132.725 128.707C132.915 128.817 133.105 128.927 133.294 129.027C133.494 129.137 133.693 129.237 133.883 129.337C134.073 129.437 134.262 129.537 134.452 129.637C134.651 129.737 134.861 129.837 135.06 129.937C135.25 130.027 135.45 130.127 135.639 130.217C135.849 130.317 136.058 130.407 136.268 130.497C136.457 130.587 136.657 130.667 136.857 130.747C137.066 130.837 137.286 130.927 137.505 131.007C137.705 131.087 137.904 131.157 138.094 131.237C138.254 131.297 138.403 131.357 138.563 131.407C139.092 133.736 140.429 136.446 143.023 137.466C139.621 140.885 136.817 140.575 134.312 142.515C131.807 144.454 128.874 152.173 127.237 156.052C125.601 159.931 124.922 171.149 120.692 175.958C118.197 178.797 107.049 188.952 98.2677 197H143C143.21 196.87 143.193 196.984 143.382 196.884C145.039 196.054 147.414 195.834 149.729 195.694C149.27 196.064 148.629 196.37 148 197H193.635C192.547 191.101 184.264 187.585 173.856 187.835C173.607 187.036 173.358 186.136 173.108 185.126C175.283 183.446 175.064 179.377 176.022 176.168C177 172.868 179.315 172.409 179.734 169.139C179.963 167.35 178.467 164.5 178.467 164.5C179.993 163.36 181.749 161.421 181.34 157.312C181.131 155.172 179.085 152.443 179.085 152.443C182.019 151.453 183.047 149.313 182.647 145.354C182.538 144.224 181.69 143.274 180.821 142.575H180.841C180.841 142.575 180.173 141.985 179.704 141.735C179.325 141.535 178.786 141.295 178.786 141.295H178.776C178.776 141.295 179.774 140.055 179.195 137.486C178.606 134.916 176.74 132.637 175.363 131.957C173.986 131.277 171.721 131.237 168.917 133.096C168.398 133.436 167.899 133.756 167.39 134.076C167.68 133.496 168.089 132.926 168.658 132.377C170.953 130.187 170.085 125.558 169.755 124.168C175.473 118.479 178.945 111.301 180.273 106.202C180.682 106.712 181.171 107.132 181.719 107.452C182.887 108.122 184.234 108.281 185.641 107.912C186.32 107.752 187.008 107.452 187.707 107.022C188.605 106.462 188.904 105.262 188.345 104.362C187.786 103.462 186.609 103.163 185.691 103.722C185.192 104.032 184.264 104.482 183.635 104.112C183.007 103.742 182.338 102.443 182.398 99.8632C182.468 96.8038 185.411 91.9948 189.982 85.6461C189.313 83.4165 188.864 81.107 188.575 78.7475C186.3 82.0168 184.094 85.4861 182.328 88.7954C182.238 85.2562 181.889 81.7069 181.49 77.6377C181.35 76.228 181.191 74.8183 181.011 73.4085C182.578 73.2486 184.274 72.8087 185.382 71.7789C186.26 70.959 186.699 69.8893 186.649 68.6795C186.619 67.6097 186.25 66.45 185.851 65.1102C185.242 63.1306 184.563 60.9211 185.022 59.2114H179.474L179.494 59.2514ZM96.3741 93.6045C90.2174 89.8852 87.2638 83.5165 88.0621 79.7373C88.5012 76.028 93.1511 73.5785 97.1924 76.9378C100.785 79.8315 100.906 82.7919 104.536 90.5754C107.649 97.2494 109.823 100.37 113.068 105.482C108.398 101.233 101.942 96.9538 96.3841 93.5945L96.3741 93.6045Z" fill="var(--sapContent_Illustrative_Color21)"/>
<path d="M164.167 193.895L167.261 204.502C167.43 205.212 167.75 205.872 168.209 206.442C170.304 209.042 176.67 214.91 191.937 212.381C208.352 209.651 213.331 201.093 214.988 197.334C215.377 196.444 215.457 195.454 215.207 194.515L213.072 182.817L164.167 193.895Z" fill="var(--sapContent_Illustrative_Color3)"/>
<path d="M168.229 192.975L164.167 193.894L167.261 204.502C167.43 205.212 167.75 205.872 168.209 206.442C169.486 208.022 172.34 210.811 177.818 212.191L176.401 202.073L168.229 192.975Z" fill="var(--sapContent_Illustrative_Color29)"/>
<path d="M191.552 201.327C205.054 198.268 214.69 189.981 213.074 182.818C211.457 175.655 199.201 172.328 185.698 175.387C172.196 178.446 162.56 186.732 164.176 193.895C165.793 201.058 178.049 204.385 191.552 201.327Z" fill="var(--sapContent_Illustrative_Color26)"/>
<path d="M165.644 187.186C164.237 189.405 163.678 191.705 164.177 193.894C165.135 198.164 169.885 201.063 176.411 202.073L197.914 184.946L165.644 187.186Z" fill="var(--sapContent_Illustrative_Color16)"/>
<path d="M167.89 126.008C166.662 122.019 167.64 120.649 167.64 120.649L155.387 119.189C155.985 121.539 157.442 124.278 160.126 125.218C163.449 126.388 166.163 131.417 166.163 131.417C166.163 131.417 166.273 131.777 166.463 132.417L175.304 130.047C175.304 130.047 169.117 129.997 167.89 126.008Z" fill="var(--sapContent_Illustrative_Color16)"/>
<path d="M164.687 195.504C164.687 195.504 167.541 194.864 171.033 195.484C174.525 196.104 180.423 193.145 183.276 190.445C186.13 187.746 185.961 177.658 185.961 177.658L169.985 182.427C169.985 182.427 163.26 187.476 164.018 193.055C164.248 194.734 164.677 195.504 164.677 195.504H164.687Z" fill="var(--sapContent_Illustrative_Color29)"/>
<path d="M200.03 181.817C199.711 180.417 198.593 179.307 196.937 178.557C195.919 177.938 194.811 177.638 194.811 177.638C190.141 174.578 184.553 126.618 184.553 126.618C184.553 126.618 182.368 122.439 185.571 119.129C188.186 116.43 186.22 110.471 186.22 110.471C171.262 121.799 155.257 118.6 155.257 118.6C155.297 118.79 155.337 118.989 155.397 119.179L167.65 120.639C167.65 120.639 166.662 122.009 167.899 125.998C169.127 129.987 175.313 130.037 175.313 130.037L166.473 132.407C168.239 138.256 178.437 177.118 178.427 181.487C176.072 183.286 174.815 185.446 175.264 187.426C176.082 191.055 182.288 192.735 189.134 191.185C195.979 189.635 200.858 185.436 200.04 181.807L200.03 181.817Z" fill="var(--sapContent_Illustrative_Color26)"/>
<path d="M200.18 181.727C199.861 180.327 198.743 179.217 197.087 178.468C195.51 177.878 194.961 177.548 194.961 177.548C194.003 176.988 193.684 176.278 193.125 174.968C192.127 175.978 192.287 177.308 194.512 179.087C201.467 184.656 189.114 191.185 189.114 191.185C195.959 189.635 200.988 185.346 200.17 181.717L200.18 181.727Z" fill="var(--sapContent_Illustrative_Color27)"/>
<path d="M115.453 53.4229C115.453 53.4229 119.415 81.7172 134.761 104.293C140.349 112.511 155.137 123.649 170.724 120.159C186.31 116.67 194.392 101.023 196.208 92.1951C198.563 80.7474 197.585 73.8988 196.208 63.9408C194.233 49.6237 189.822 34.4268 189.822 34.4268L115.453 53.4229Z" fill="var(--sapContent_Illustrative_Color26)"/>
<path d="M201.567 94.0148C200.18 94.4447 198.823 94.3347 197.635 93.7148C195.46 92.5751 194.233 89.8956 194.163 86.1663C194.043 79.4777 200.998 67.95 206.855 59.4717C210.946 53.5429 211.026 46.5344 208.751 43.405C206.835 40.1956 201.587 39.8857 199.282 44.6048C198.364 46.4044 199.272 48.9939 200.07 51.2634C200.529 52.5831 200.938 53.7329 201.008 54.8027C201.098 56.0124 200.708 57.0922 199.86 57.9421C197.635 60.1816 192.756 59.9417 191.798 59.8717C190.74 59.7917 189.942 58.8719 190.022 57.8021C190.101 56.7423 191.019 55.9425 192.087 56.0224C194.442 56.2024 193.564 56.5623 193.833 56.0424C193.833 56.0424 192.666 54.1728 192.676 54.1228C192.636 53.5629 194.422 53.7029 194.083 52.7231C193.135 50.0137 192.696 46.2744 194.352 43.0151C195.41 40.9255 196.877 38.296 200.978 36.2964C205.867 33.9069 210.857 35.7565 213.271 39.3558C216.883 44.3048 217.422 52.3932 211.246 62.4611C203.532 73.6289 197.925 81.7572 198.004 86.1164C198.044 88.6958 198.763 89.9756 199.411 90.3155C200.06 90.6554 200.968 90.1655 201.457 89.8456C202.345 89.2457 203.542 89.4957 204.131 90.3755C204.72 91.2553 204.48 92.4651 203.602 93.055C202.924 93.5049 202.245 93.8348 201.577 94.0348L201.567 94.0148Z" fill="var(--sapContent_Illustrative_Color26)"/>
<path d="M131.897 111.801C131.209 111.931 130.451 111.931 129.642 111.831C128.595 111.691 127.836 110.722 127.976 109.672C128.116 108.622 129.074 107.862 130.131 108.002C130.71 108.072 131.748 108.112 132.167 107.512C132.586 106.912 132.666 105.453 131.548 103.123C129.682 99.1938 121.041 94.4248 109.167 87.8861C99.1483 81.6374 96.035 74.1589 97.0628 68.1101C97.6316 63.811 101.274 59.9218 106.702 59.8718C111.262 59.8318 113.747 61.5215 115.623 62.9212C118.556 65.1007 119.824 68.65 120.183 71.4894C120.313 72.5192 121.839 71.5894 122.059 72.1093C122.079 72.1493 121.879 74.3489 121.879 74.3489C122.358 74.6888 121.41 74.7688 123.436 73.549C124.344 72.9991 125.521 73.2991 126.07 74.2189C126.619 75.1287 126.32 76.3085 125.401 76.8584C124.573 77.3483 120.313 79.7478 117.329 78.738C116.191 78.3481 115.363 77.5582 114.904 76.4384C114.495 75.4486 114.355 74.2389 114.176 72.8492C113.876 70.4596 113.537 67.7502 111.911 66.5404C107.74 63.3511 103.18 65.9706 102.9 69.6998C102.262 73.509 105.455 79.7478 111.761 83.2271C120.781 88.1961 132.137 95.3946 135.011 101.433C136.617 104.803 136.707 107.752 135.27 109.742C134.482 110.831 133.314 111.531 131.887 111.771L131.897 111.801Z" fill="var(--sapContent_Illustrative_Color16)"/>
<path d="M182.378 39.9756C182.378 39.9756 190.251 65.3504 189.892 82.0171C189.733 89.3656 188.565 93.9747 184.923 98.8337C184.264 99.7135 182.997 100.883 182.129 101.653C181.959 101.803 181.71 101.613 181.8 101.413C182.758 99.3136 184.424 93.6647 182.837 81.3472C181.081 67.8 173.059 44.1048 173.059 44.1048L182.388 39.9856L182.378 39.9756Z" fill="var(--sapContent_Illustrative_Color27)"/>
<path d="M144.65 59.7415C162.521 53.2428 173.478 47.1641 173.478 47.1641L129.004 49.9535L115.453 53.4128C115.453 53.4128 119.415 81.7071 134.761 104.283C139.98 111.971 153.261 122.199 167.71 120.649C146.286 110.211 138.154 88.4057 135.081 74.1086C133.564 67.06 134.941 63.2708 144.65 59.7415Z" fill="var(--sapContent_Illustrative_Color15)"/>
<path d="M190.62 28.6179C189.802 25.3586 171.482 27.1782 149.709 32.6871C127.936 38.196 110.943 45.2946 111.761 48.5539L112.349 50.9734L118.706 53.093L149.15 35.5365C149.549 35.4366 149.938 35.3266 150.337 35.2266C156.115 33.7669 162.431 32.5472 168.308 31.5773L186.12 35.1766L190.69 31.4674L190.999 30.1176L190.61 28.6079L190.62 28.6179Z" fill="var(--sapContent_Illustrative_Color26)"/>
<path d="M192.038 34.167C191.798 33.2372 190.621 28.6182 190.621 28.6182C191.439 31.8775 183.217 39.6459 153.331 47.0344C123.446 54.4229 112.579 51.8235 111.761 48.5641C111.761 48.5641 112.869 53.1132 113.128 54.123C114.366 59.042 133.035 58.5621 154.828 53.0532C176.621 47.5443 193.275 39.086 192.038 34.167Z" fill="var(--sapContent_Illustrative_Color27)"/>
<path d="M107.299 197C107.299 197 135.29 169.539 139.331 164.56C143.373 159.581 143.612 148.344 145.089 144.404C146.566 140.465 149.2 132.637 151.625 130.597C154.049 128.558 156.853 128.768 160.126 125.208C160.126 125.208 161.463 125.488 163.329 127.378C164.906 128.968 165.974 130.977 165.974 130.977C165.974 130.977 174.685 127.898 185.861 119.839C188.595 117.87 190.85 117.82 192.257 118.45C193.664 119.08 195.619 121.279 196.298 123.819C196.977 126.358 196.029 127.638 196.029 127.638C196.029 127.638 199.721 129.108 200.06 131.537C200.609 135.476 199.671 137.666 196.777 138.766C196.777 138.766 198.922 141.405 199.222 143.535C199.79 147.624 198.114 149.633 196.627 150.833C196.627 150.833 198.244 153.613 198.084 155.412C197.795 158.692 195.5 159.241 194.652 162.581C193.803 165.92 194.233 170.099 191.927 171.789C184.813 176.998 182.368 179.487 175.134 182.067C172.3 183.077 166.173 182.587 162.97 184.356C159.767 186.126 148.771 197 148.771 197H107.299Z" fill="var(--sapContent_Illustrative_Color15)"/>
<path d="M188.036 31.9771C187.298 29.0277 173.408 29.9375 155.956 33.8867L155.936 33.9267C155.936 33.9267 131.778 41.8951 134.861 50.8433C140.349 50.0035 146.666 48.7137 153.321 47.0341C173.308 41.9751 188.844 35.2365 188.026 31.9871L188.036 31.9771Z" fill="var(--sapContent_Illustrative_Color29)"/>
<path d="M155.935 33.9267L155.955 33.8867C154.129 34.2966 152.253 34.7465 150.357 35.2264C130.371 40.2854 114.834 47.0241 115.652 50.2734C116.201 52.443 123.885 52.5229 134.871 50.8333C131.788 41.8851 155.945 33.9167 155.945 33.9167L155.935 33.9267Z" fill="var(--sapContent_Illustrative_Color16)"/>
<path d="M162.631 126.748C162.631 126.748 162.102 128.128 160.425 129.408C159.837 129.857 158.789 130.757 158.599 131.467L158.081 138.336C158.081 138.336 159.717 132.307 165.973 130.977C165.973 130.977 164.836 128.568 162.631 126.748Z" fill="var(--sapContent_Illustrative_Color29)"/>
<path d="M196.049 127.638C196.049 127.638 194.003 129.947 186.09 134.366C178.177 138.785 178.547 139.425 179.544 139.695C180.542 139.965 182.538 141.415 187.467 137.276C190.052 135.116 192.317 132.367 193.794 130.977C195.829 129.057 198.144 128.817 198.144 128.817C198.144 128.817 197.456 128.258 196.977 128.018C196.597 127.828 196.039 127.618 196.039 127.618L196.049 127.638Z" fill="var(--sapContent_Illustrative_Color29)"/>
<path d="M196.787 138.786C196.787 138.786 188.285 145.454 186.799 146.624C185.312 147.794 185.402 150.923 187.178 149.843C188.954 148.764 191.488 144.754 193.644 142.605C195.799 140.455 197.645 139.975 197.645 139.975L196.787 138.786Z" fill="var(--sapContent_Illustrative_Color29)"/>
<path d="M196.617 150.763C196.617 150.763 191.069 156.782 190.111 158.372C189.353 159.631 188.146 160.881 186.759 162.391C185.591 163.661 187.746 166.71 189.413 163.531C190.471 161.521 193.185 156.202 194.133 155.242C195.081 154.282 196.807 152.173 196.607 150.763H196.617Z" fill="var(--sapContent_Illustrative_Color29)"/>
<path d="M159.268 188.156C159.268 188.156 159.338 188.066 159.368 188.026C159.338 188.066 159.298 188.116 159.268 188.156Z" fill="var(--sapContent_Illustrative_Color16)"/>
<path d="M162.841 184.576C166.054 182.807 172.17 183.296 175.004 182.287C181.281 180.047 183.955 177.878 189.194 173.938C187.138 174.368 185.641 173.139 185.033 171.999C184.125 170.279 179.145 166.32 179.505 162.951C180.113 157.112 180.073 154.442 178.646 155.332C174.346 158.012 172.031 157.202 171.891 154.352C171.502 146.314 168.858 147.254 165.275 145.124C160.585 142.335 160.456 135.126 160.695 133.966C160.795 133.477 159.478 135.186 159.039 135.816C155.576 140.785 151.106 164.08 152.104 171.979C152.752 177.118 151.824 183.856 150.587 186.606C148.462 191.335 143.294 195.11 140.5 197H149C155.296 190.971 160.226 186.006 162.831 184.566L162.841 184.576Z" fill="var(--sapContent_Illustrative_Color16)"/>
</svg>
