<svg width="160" height="143" viewBox="0 0 160 143" fill="none" xmlns="http://www.w3.org/2000/svg" id="sapIllus-Dialog-NoMail_v1">
<path d="M1.04419 83.1589C1.08652 83.4059 1.13238 83.6563 1.17471 83.9032V83.166L1.04419 83.1589Z" fill="var(--sapContent_Illustrative_Color7)"/>
<path d="M32.496 130.689C43.9194 138.086 57.2352 142.028 70.8442 142.041V130.689H32.496Z" fill="var(--sapContent_Illustrative_Color7)"/>
<path d="M14.4842 80.0512C12.8666 79.882 11.369 79.1196 10.2805 77.9112C9.19189 76.7028 8.58953 75.1339 8.58964 73.5075V63.3657C8.58964 61.6209 9.28277 59.9475 10.5166 58.7137C11.7503 57.48 13.4237 56.7868 15.1686 56.7868C16.9134 56.7868 18.5868 57.48 19.8206 58.7137C21.0543 59.9475 21.7475 61.6209 21.7475 63.3657V73.5075C21.7464 75.1478 21.1326 76.7285 20.0265 77.9397C18.9204 79.1509 17.4017 79.9052 15.7682 80.0547V85.4554C32.9263 83.1096 51.8341 81.8679 73.9732 84.7887C99.2623 88.1399 105.104 93.7593 136.436 98.6944C140.139 89.9401 142.042 80.5296 142.031 71.0241C142.031 31.7975 110.233 0 71.01 0C32.175 0 0.627908 31.1696 0 69.8459C0.486521 69.7142 0.988149 69.6466 1.49217 69.6448C3.02744 69.6448 4.49982 70.2547 5.58542 71.3403C6.67102 72.4259 7.28091 73.8983 7.28091 75.4336V77.3878C7.28242 78.8475 6.73211 80.2538 5.74032 81.3247C4.74853 82.3957 3.38858 83.0521 1.93311 83.1625V87.4873C1.93311 87.519 1.95075 87.5472 1.95781 87.579C6.04273 86.8982 10.2088 86.2315 14.4877 85.6318L14.4842 80.0512Z" fill="var(--sapContent_Illustrative_Color7)"/>
<path d="M84.1255 140.835C93.1828 139.144 101.822 135.697 109.556 130.689H84.1255V140.835Z" fill="var(--sapContent_Illustrative_Color7)"/>
<path d="M15.1297 66.8052C15.2997 66.8061 15.4625 66.874 15.5827 66.9942C15.7029 67.1144 15.7708 67.2772 15.7717 67.4472V80.0547C17.4052 79.9052 18.9239 79.1509 20.03 77.9397C21.1361 76.7285 21.7499 75.1478 21.751 73.5075V63.3658C21.751 61.6209 21.0578 59.9476 19.824 58.7138C18.5903 57.48 16.9169 56.7869 15.1721 56.7869C13.4272 56.7869 11.7538 57.48 10.5201 58.7138C9.28628 59.9476 8.59314 61.6209 8.59314 63.3658V73.5075C8.59304 75.134 9.19539 76.7028 10.2839 77.9112C11.3725 79.1196 12.8701 79.882 14.4877 80.0512V67.4472C14.4886 67.2772 14.5566 67.1144 14.6768 66.9942C14.797 66.874 14.9597 66.8061 15.1297 66.8052Z" fill="var(--sapContent_Illustrative_Color18)"/>
<path d="M15.7718 67.4472C15.7709 67.2772 15.703 67.1144 15.5828 66.9942C15.4626 66.874 15.2998 66.8061 15.1298 66.8052C14.9592 66.8052 14.7955 66.8727 14.6746 66.993C14.5536 67.1133 14.4852 67.2766 14.4843 67.4472V85.6318L15.7718 85.4554V67.4472Z" fill="var(--sapContent_Illustrative_Color19)"/>
<path d="M1.17464 77.5466C1.17464 77.4972 1.18443 77.4482 1.20344 77.4026C1.22245 77.357 1.25031 77.3157 1.2854 77.2809C1.3205 77.2461 1.36214 77.2187 1.40791 77.2001C1.45369 77.1815 1.50269 77.1722 1.55209 77.1726C1.60149 77.1722 1.65049 77.1815 1.69626 77.2001C1.74204 77.2187 1.78367 77.2461 1.81877 77.2809C1.85387 77.3157 1.88173 77.357 1.90074 77.4026C1.91975 77.4482 1.92954 77.4972 1.92954 77.5466V83.1624C3.3882 83.0581 4.75323 82.4052 5.75 81.3352C6.74676 80.2651 7.3013 78.8573 7.30203 77.3949V75.4406C7.30203 74.6804 7.1523 73.9277 6.86138 73.2253C6.57047 72.523 6.14408 71.8849 5.60655 71.3473C5.06901 70.8098 4.43087 70.3834 3.72854 70.0925C3.02622 69.8016 2.27347 69.6519 1.51328 69.6519C1.00927 69.6537 0.507639 69.7213 0.0211182 69.8529C0.0211182 70.241 0.0211182 70.6325 0.0211182 71.0241C0.0217485 75.0911 0.368705 79.1507 1.05822 83.1589H1.18875L1.17464 77.5466Z" fill="var(--sapContent_Illustrative_Color18)"/>
<path d="M1.93313 77.5465C1.93313 77.4971 1.92334 77.4482 1.90433 77.4026C1.88532 77.357 1.85746 77.3157 1.82236 77.2809C1.78727 77.2461 1.74563 77.2187 1.69985 77.2001C1.65408 77.1815 1.60508 77.1722 1.55568 77.1726C1.50628 77.1722 1.45727 77.1815 1.4115 77.2001C1.36572 77.2187 1.32408 77.2461 1.28899 77.2809C1.25389 77.3157 1.22603 77.357 1.20702 77.4026C1.18801 77.4482 1.17822 77.4971 1.17822 77.5465V83.8962C1.39928 85.1003 1.65092 86.2949 1.93313 87.4802V77.5465Z" fill="var(--sapContent_Illustrative_Color19)"/>
<path d="M136.457 98.6945C105.125 93.7559 99.2835 88.14 73.9943 84.7888C51.8377 81.868 32.9299 83.1097 15.7894 85.4555L14.5019 85.6319C10.2229 86.2316 6.05685 86.8983 1.97192 87.5791C6.23885 105.338 17.1749 120.775 32.5136 130.69H70.8618V91.65H84.1255V130.69H109.556C121.519 122.953 130.889 111.808 136.457 98.6945Z" fill="var(--sapContent_Illustrative_Color18)"/>
<path d="M81.8855 91.6497H70.8442V142.041H71.0312C74.665 142.042 78.2936 141.766 81.8855 141.216V91.6497Z" fill="var(--sapContent_Illustrative_Color19)"/>
<path d="M84.1255 91.6497H81.8784V141.219C82.6333 141.103 83.3812 140.972 84.1255 140.835V91.6497Z" fill="var(--sapContent_Illustrative_Color20)"/>
<path d="M53.8625 35.491H102.067C109.053 35.491 115.752 38.2661 120.692 43.2059C125.632 48.1457 128.407 54.8454 128.407 61.8313V87.8754C128.407 89.043 127.943 90.1627 127.118 90.9884C126.292 91.814 125.172 92.2778 124.005 92.2778H31.9704C30.8028 92.2778 29.683 91.814 28.8574 90.9884C28.0318 90.1627 27.568 89.043 27.568 87.8754V61.789C27.568 54.8143 30.3387 48.1253 35.2705 43.1935C40.2024 38.2616 46.8914 35.491 53.866 35.491H53.8625Z" fill="var(--sapContent_Illustrative_Color13)"/>
<path d="M102.776 35.491H103.037C109.904 35.491 116.49 38.2189 121.346 43.0747C126.201 47.9304 128.929 54.5163 128.929 61.3833V86.9229C128.929 88.0961 128.463 89.2213 127.634 90.0509C126.804 90.8805 125.679 91.3465 124.506 91.3465H81.307C80.1338 91.3465 79.0086 90.8805 78.1791 90.0509C77.3495 89.2213 76.8834 88.0961 76.8834 86.9229V61.3833C76.8834 54.5163 79.6114 47.9304 84.4671 43.0747C89.3229 38.2189 95.9087 35.491 102.776 35.491Z" fill="var(--sapContent_Illustrative_Color2)"/>
<path d="M102.494 38.3623H103.227C109.234 38.3623 114.994 40.7483 119.241 44.9955C123.488 49.2426 125.874 55.0029 125.874 61.0093V88.6902H79.8466V61.0093C79.8466 58.0353 80.4323 55.0903 81.5705 52.3427C82.7086 49.595 84.3768 47.0984 86.4797 44.9955C88.5827 42.8925 91.0793 41.2243 93.8269 40.0862C96.5746 38.9481 99.5195 38.3623 102.494 38.3623Z" fill="var(--sapContent_Illustrative_Color14)"/>
<path d="M158.208 88.6902H78.1569C77.1672 88.6902 76.3649 89.4925 76.3649 90.4822V90.4857C76.3649 91.4754 77.1672 92.2777 78.1569 92.2777H158.208C159.198 92.2777 160 91.4754 160 90.4857V90.4822C160 89.4925 159.198 88.6902 158.208 88.6902Z" fill="var(--sapContent_Illustrative_Color13)"/>
<path d="M63.2847 62.1453L12.3042 61.6797V61.6973C12.3056 61.4901 12.3479 61.2852 12.4287 61.0944C12.5095 60.9036 12.6271 60.7306 12.775 60.5854C12.9228 60.4402 13.0979 60.3256 13.2901 60.2483C13.4823 60.1709 13.6879 60.1323 13.8951 60.1346L63.5034 60.5826C64.8943 60.5966 66.223 61.1614 67.1983 62.1532C68.1736 63.145 68.7159 64.483 68.7065 65.874C68.7014 66.1365 68.6767 66.3983 68.6324 66.6571C68.4201 65.3934 67.766 64.2461 66.7865 63.4198C65.8071 62.5935 64.5661 62.1418 63.2847 62.1453Z" fill="var(--sapContent_Illustrative_Color15)"/>
<path d="M12.2901 61.6971L12.209 70.6219V72.0823L12.1455 79.0528C12.1431 79.3043 12.1904 79.5539 12.2845 79.7872C12.3786 80.0204 12.5178 80.2329 12.694 80.4124C12.8702 80.5919 13.0801 80.735 13.3116 80.8334C13.5431 80.9318 13.7917 80.9836 14.0433 80.9859L21.3806 81.0529C21.6323 81.0557 21.8821 81.0088 22.1156 80.9148C22.3491 80.8209 22.5617 80.6818 22.7413 80.5054C22.9209 80.3291 23.0639 80.1191 23.1622 79.8873C23.2604 79.6556 23.3119 79.4068 23.3137 79.1551L23.3773 72.294H24.3226L63.3764 72.6467C64.0725 72.6514 64.7627 72.5177 65.4068 72.2535C66.0509 71.9892 66.6361 71.5997 67.1284 71.1074C67.6207 70.6151 68.0102 70.0299 68.2745 69.3858C68.5387 68.7417 68.6724 68.0515 68.6677 67.3554C68.6645 67.1191 68.6444 66.8833 68.6078 66.6498C68.3981 65.3866 67.7469 64.2387 66.7702 63.4106C65.7935 62.5824 64.5546 62.1278 63.2741 62.1275L12.2936 61.6619L12.2901 61.6971Z" fill="var(--sapContent_Illustrative_Color3)"/>
<path d="M142.787 35.5667C142.524 35.3761 142.214 35.2594 141.889 35.2289C141.563 35.1983 141.235 35.2551 140.939 35.3931L133.806 38.495C132.626 39.0074 132.414 40.2447 132.815 41.1568C132.965 41.5361 133.236 41.8562 133.587 42.0689C133.938 42.2816 134.35 42.3755 134.761 42.3365C134.959 42.3118 135.153 42.2576 135.335 42.1758L142.468 39.0739C142.784 38.9442 143.059 38.7327 143.264 38.4618C143.469 38.1908 143.596 37.8706 143.633 37.535C143.673 37.1618 143.617 36.7852 143.469 36.4407C143.321 36.0963 143.086 35.7954 142.787 35.5667Z" fill="var(--sapContent_Illustrative_Color5)"/>
<path d="M107.266 13.1582C107.033 13.1387 106.799 13.1676 106.577 13.2428C106.355 13.3181 106.152 13.4381 105.979 13.5952C105.807 13.7523 105.669 13.9431 105.575 14.1553C105.481 14.3676 105.432 14.5966 105.433 14.8279L105.096 22.3118C105.085 22.5809 105.128 22.8492 105.223 23.101C105.318 23.3528 105.463 23.5831 105.649 23.7784C105.836 23.9737 106.06 24.1302 106.308 24.2386C106.557 24.347 106.825 24.4052 107.098 24.4098C107.21 24.4148 107.322 24.4107 107.434 24.3976C107.847 24.3547 108.23 24.1605 108.507 23.8532C108.784 23.5459 108.935 23.1479 108.931 22.7375L109.265 15.2569C109.277 14.9879 109.234 14.7195 109.139 14.4677C109.045 14.2158 108.9 13.9854 108.714 13.7899C108.528 13.5945 108.304 13.438 108.055 13.3295C107.807 13.221 107.539 13.1628 107.266 13.1582Z" fill="var(--sapContent_Illustrative_Color5)"/>
<path d="M127.886 18.1121C127.634 18.1571 127.394 18.2524 127.18 18.392C126.967 18.5317 126.784 18.7129 126.643 18.9244L120.223 28.3513C119.937 28.7756 119.828 29.2917 119.918 29.7917C120.008 30.2916 120.29 30.7367 120.705 31.0338C121.092 31.3078 121.569 31.4276 122.042 31.3695C122.315 31.3356 122.578 31.2439 122.812 31.1008C123.047 30.9576 123.248 30.7664 123.401 30.5401L129.821 21.1132C130.109 20.6867 130.219 20.1676 130.127 19.665C130.036 19.1624 129.751 18.7154 129.333 18.418C129.126 18.2732 128.89 18.1715 128.642 18.1189C128.393 18.0663 128.136 18.064 127.886 18.1121Z" fill="var(--sapContent_Illustrative_Color5)"/>
</svg>
