<svg width="45" height="45" viewBox="0 0 45 45" fill="none" xmlns="http://www.w3.org/2000/svg" id="sapIllus-Dot-ResizingColumns">
<path d="M30.736 44.927L4.28417 36.4628C4.28417 36.4628 4.01306 36.3777 4.00045 36.239C3.98784 36.1003 4.24319 36.0246 4.24319 36.0246L11.4969 34.004C11.4969 34.004 11.7774 33.9062 11.9666 33.9062C12.1557 33.9062 12.4615 34.004 12.4615 34.004L36.1896 41.8345L30.7391 44.927H30.736Z" fill="var(--sapContent_Illustrative_Color21)"/>
<path d="M24.332 3.03328C24.0323 1.75647 22.6122 0.7956 21.1497 0.89983C19.6677 1.00732 18.7426 2.16361 19.0879 3.45997C19.1856 3.82152 19.3713 4.15375 19.6221 4.44038C19.5472 4.30684 20.609 4.37198 20.5602 4.22866C20.1758 3.02677 20.5732 2.50562 21.2149 2.24179C22.2213 1.82812 23.5112 2.4079 23.6838 3.60654C23.7913 4.36546 23.3646 5.14719 22.6643 5.46639C23.8727 5.20256 24.6024 4.18306 24.332 3.03654V3.03328Z" fill="var(--sapContent_Illustrative_Color1)"/>
<path d="M30.7763 44.9598L31.3532 44.9976C31.4636 45.0039 31.5707 44.9976 31.6779 44.9787L31.9585 44.9251L16.4361 0.419922L15.8592 0.451446C15.7047 0.460903 15.5376 0.514493 15.3043 0.735159C15.2098 0.823426 15.0238 1.0567 15.0238 1.0567C14.9387 1.22062 14.9765 1.41607 15.0364 1.58945L30.5494 44.7864C30.584 44.8842 30.6723 44.9504 30.7763 44.9598Z" fill="var(--sapContent_Illustrative_Color1)"/>
<path d="M24.2289 0L15.8593 0.45079C15.6354 0.463399 15.4873 0.687218 15.5629 0.898427L31.3974 44.7196C31.4573 44.8835 31.6276 44.9844 31.801 44.9529L40.0224 43.4933C40.1517 43.4712 40.2305 43.3357 40.1832 43.2096L24.563 0.220666C24.5126 0.0819617 24.377 -0.00945705 24.2289 0.00315245V0ZM22.5343 4.62772C21.4556 4.72279 20.4405 3.95825 20.3337 3.05581C20.2106 2.01698 20.9914 1.43118 21.9655 1.36183C22.9269 1.29247 23.8569 1.9261 24.0523 2.76148C24.2446 3.58425 23.613 4.53265 22.5343 4.62772Z" fill="var(--sapContent_Illustrative_Color24)"/>
<path d="M25.8645 7.97904L22.1278 8.30369C22.0596 8.31019 21.9882 8.26149 21.9655 8.19331L21.709 7.43363C21.6863 7.3687 21.722 7.31027 21.7901 7.30377L25.5074 6.98886C25.5723 6.98237 25.647 7.03107 25.6697 7.096L25.9425 7.84919C25.9652 7.91412 25.9327 7.97255 25.8645 7.97904Z" fill="var(--sapContent_Illustrative_Color1)"/>
<path d="M31.3222 23.0839L27.3095 23.5936C27.2381 23.6034 27.157 23.5482 27.131 23.467L26.8258 22.5645C26.7998 22.4866 26.8355 22.4151 26.9102 22.4086L30.9002 21.9152C30.9716 21.9054 31.0495 21.9606 31.0788 22.0385L31.4002 22.9281C31.4294 23.006 31.3937 23.0742 31.3222 23.0839Z" fill="var(--sapContent_Illustrative_Color1)"/>
<path d="M26.6338 10.1086L24.5366 10.3034C24.4684 10.3099 24.3937 10.2612 24.371 10.193L24.2769 9.92679C24.2541 9.85862 24.2898 9.80018 24.358 9.79369L26.4488 9.60214C26.517 9.59565 26.5884 9.64435 26.6144 9.71252L26.7117 9.97874C26.7345 10.0469 26.702 10.1054 26.6338 10.1118V10.1086Z" fill="var(--sapContent_Illustrative_Color1)"/>
<path d="M28.3806 14.9452L26.2346 15.1725C26.1665 15.179 26.0885 15.127 26.0658 15.0556L25.9684 14.7732C25.9425 14.7017 25.9782 14.6401 26.0496 14.6303L28.189 14.4063C28.2572 14.3998 28.3319 14.4518 28.3579 14.5199L28.4585 14.7991C28.4845 14.8706 28.4488 14.9322 28.3806 14.942V14.9452Z" fill="var(--sapContent_Illustrative_Color1)"/>
<path d="M27.4943 12.494L25.3743 12.705C25.3061 12.7115 25.2314 12.6595 25.2055 12.5914L25.1113 12.3154C25.0886 12.2472 25.1243 12.1856 25.1925 12.1791L27.3092 11.9713C27.3774 11.9648 27.4521 12.0135 27.4748 12.0849L27.5722 12.3576C27.5982 12.4258 27.5625 12.4875 27.4943 12.494Z" fill="var(--sapContent_Illustrative_Color1)"/>
<path d="M29.2895 17.4651L27.1176 17.7085C27.0462 17.715 26.9715 17.6631 26.9455 17.5884L26.8449 17.2995C26.8189 17.2248 26.8546 17.1599 26.9261 17.1534L29.0915 16.9131C29.1597 16.9067 29.2376 16.9586 29.2635 17.03L29.3674 17.319C29.3934 17.3904 29.3577 17.4586 29.2895 17.4651Z" fill="var(--sapContent_Illustrative_Color1)"/>
<path d="M30.2282 20.0595L28.0303 20.3192C27.9589 20.3289 27.881 20.2738 27.855 20.1991L27.7511 19.9004C27.7252 19.8257 27.7609 19.7576 27.8323 19.7478L30.0237 19.4914C30.0919 19.4816 30.173 19.5368 30.199 19.6115L30.3062 19.9069C30.3321 19.9816 30.2997 20.0497 30.2282 20.0562V20.0595Z" fill="var(--sapContent_Illustrative_Color1)"/>
<path d="M32.1854 25.485L29.9323 25.7837C29.8609 25.7934 29.7797 25.735 29.7505 25.6571L29.6401 25.3422C29.6109 25.261 29.6499 25.1896 29.7213 25.1798L31.9679 24.8844C32.0393 24.8747 32.1205 24.9299 32.1497 25.011L32.2633 25.3259C32.2926 25.4039 32.2568 25.4785 32.1854 25.4883V25.485Z" fill="var(--sapContent_Illustrative_Color1)"/>
<path d="M34.296 31.3257L31.9877 31.6698C31.913 31.6795 31.8286 31.6211 31.7994 31.5367L31.6825 31.1991C31.6533 31.1147 31.689 31.0367 31.7637 31.027L34.0655 30.6861C34.1402 30.6764 34.2213 30.7348 34.2538 30.8192L34.3739 31.1536C34.4031 31.238 34.3707 31.3159 34.296 31.3257Z" fill="var(--sapContent_Illustrative_Color1)"/>
<path d="M33.2242 28.3609L30.9451 28.6823C30.8704 28.692 30.7893 28.6336 30.76 28.5524L30.6464 28.2278C30.6172 28.1466 30.6529 28.072 30.7276 28.059L33.0001 27.7408C33.0716 27.7311 33.156 27.7895 33.1852 27.8707L33.3021 28.1953C33.3313 28.2765 33.2956 28.3511 33.2242 28.3609Z" fill="var(--sapContent_Illustrative_Color1)"/>
<path d="M35.3996 34.3839L33.0621 34.7508C32.9874 34.7638 32.8998 34.7021 32.8705 34.6144L32.7504 34.267C32.7212 34.1794 32.7569 34.0982 32.8316 34.0885L35.1626 33.7249C35.2373 33.7119 35.3217 33.7736 35.3541 33.8612L35.4775 34.2054C35.51 34.293 35.4775 34.3709 35.3996 34.3839Z" fill="var(--sapContent_Illustrative_Color1)"/>
<path d="M36.5395 37.5386L34.1695 37.9315C34.0916 37.9445 34.0072 37.8795 33.9747 37.7886L33.8514 37.4315C33.8189 37.3406 33.8579 37.2594 33.9325 37.2465L36.296 36.8601C36.3707 36.8471 36.4583 36.9088 36.4908 36.9997L36.6207 37.3536C36.6531 37.4445 36.6207 37.5257 36.5427 37.5386H36.5395Z" fill="var(--sapContent_Illustrative_Color1)"/>
<path d="M37.8604 41.1971L33.5295 41.96C33.4516 41.973 33.3607 41.9081 33.3315 41.8139L32.9646 40.7296C32.9321 40.6355 32.9711 40.5511 33.049 40.5348L37.3572 39.7946C37.4318 39.7816 37.5227 39.8466 37.5552 39.9375L37.9415 41.0056C37.974 41.0997 37.9415 41.1841 37.8636 41.1971H37.8604Z" fill="var(--sapContent_Illustrative_Color1)"/>
</svg>