<svg width="320" height="240" viewBox="0 0 320 240" fill="none" xmlns="http://www.w3.org/2000/svg" id="sapIllus-Scene-SuccessHighFive">
<path d="M305.547 34H14.4533C12.5559 33.9983 10.6768 34.3705 8.92329 35.0954C7.16981 35.8203 5.57638 36.8836 4.23409 38.2247C2.8918 39.5657 1.82697 41.1582 1.10045 42.911C0.373942 44.6638 -8.08861e-07 46.5426 0 48.44V219.547C0 223.38 1.52275 227.056 4.23328 229.767C6.9438 232.477 10.6201 234 14.4533 234H305.547C309.38 234 313.056 232.477 315.767 229.767C318.477 227.056 320 223.38 320 219.547V48.44C320 46.5426 319.626 44.6638 318.9 42.911C318.173 41.1582 317.108 39.5657 315.766 38.2247C314.424 36.8836 312.83 35.8203 311.077 35.0954C309.323 34.3705 307.444 33.9983 305.547 34Z" style="fill:var(--sapContent_Illustrative_Color7)"/>
<path d="M46.4995 73.8454C46.4995 72.3172 42.0639 71.0941 36.1373 70.8163C35.7985 64.897 34.4939 60.4956 32.9656 60.499C31.4374 60.5024 30.1667 64.9376 29.8414 70.8874C23.8979 71.294 19.4793 72.6222 19.4996 74.1537C19.5199 75.6852 23.9352 76.9083 29.8618 77.1828C30.2176 83.102 31.5052 87.5034 33.03 87.5C34.5549 87.4966 35.8323 83.0614 36.1576 77.1116C42.1011 76.705 46.5164 75.3768 46.4995 73.8454Z" style="fill:var(--sapContent_Illustrative_Color18)"/>
<path d="M301.499 120.845C301.499 119.317 297.064 118.094 291.137 117.816C290.798 111.897 289.494 107.496 287.966 107.499C286.437 107.502 285.167 111.938 284.841 117.887C278.898 118.294 274.479 119.622 274.5 121.154C274.52 122.685 278.935 123.908 284.862 124.183C285.218 130.102 286.505 134.503 288.03 134.5C289.555 134.497 290.832 130.061 291.158 124.112C297.101 123.705 301.516 122.377 301.499 120.845Z" style="fill:var(--sapContent_Illustrative_Color18)"/>
<path d="M175.499 201.869C175.499 200.567 171.721 199.525 166.672 199.288C166.384 194.246 165.273 190.497 163.971 190.5C162.669 190.503 161.587 194.281 161.309 199.349C156.247 199.695 152.483 200.827 152.5 202.131C152.517 203.436 156.278 204.478 161.327 204.712C161.63 209.754 162.727 213.503 164.026 213.5C165.324 213.497 166.413 209.719 166.69 204.651C171.753 204.305 175.514 203.173 175.499 201.869Z" style="fill:var(--sapContent_Illustrative_Color18)"/>
<path fill-rule="evenodd" clip-rule="evenodd" d="M192.196 19.4716C193.258 19.14 194.408 19.2446 195.392 19.7625C196.377 20.2804 197.116 21.1691 197.447 22.2331L214.52 77.1351L216.834 77.4064L220.555 62.4057C221.394 59.0278 223.491 56.1002 226.417 54.2245C229.343 52.3488 232.874 51.6675 236.286 52.3206C236.472 52.3563 236.65 52.4284 236.809 52.5329C236.967 52.6374 237.104 52.7722 237.211 52.9296C237.318 53.0871 237.392 53.264 237.431 53.4504C237.469 53.6368 237.471 53.829 237.435 54.016L226.4 112.075C226.324 112.713 226.191 113.343 226.003 113.957L250.657 142.629L199.453 147.266L190.939 133.044C189.129 132.745 187.355 132.239 185.653 131.532C182.742 130.324 180.097 128.552 177.87 126.319C175.643 124.086 173.876 121.436 172.671 118.518C171.466 115.601 170.846 112.474 170.847 109.317V102.068C170.269 101.464 169.818 100.72 169.553 99.8662L156.746 58.6832C155.83 55.7379 157.469 52.6066 160.405 51.6893C160.928 51.5261 161.456 51.444 161.977 51.4358L159.109 42.2123C158.193 39.2671 159.832 36.1358 162.768 35.2185C163.86 34.8774 164.978 34.8904 165.998 35.1926C165.916 32.7423 167.461 30.4405 169.909 29.6761C172.846 28.7588 175.969 30.4028 176.885 33.3481L177.184 34.3086C177.861 33.3996 178.821 32.6888 179.984 32.3254C181.742 31.7765 183.566 32.1448 184.944 33.1603C184.541 31.8154 184.398 30.4052 184.523 29.0058C184.652 27.5638 185.064 26.1615 185.734 24.8789C186.404 23.5963 187.319 22.4586 188.428 21.5308C189.537 20.603 190.818 19.9032 192.196 19.4716Z" style="fill:var(--sapContent_Illustrative_Color19)"/>
<path fill-rule="evenodd" clip-rule="evenodd" d="M212.077 80.105C212.368 80.8502 212.001 81.6907 211.257 81.9824C204.986 84.4416 202.452 88.6376 201.99 90.1214C201.752 90.8853 200.941 91.311 200.178 91.0723C199.416 90.8336 198.992 90.0209 199.23 89.257C199.972 86.8769 203.173 82.0408 210.204 79.2836C210.947 78.992 211.786 79.3597 212.077 80.105Z" style="fill:var(--sapContent_Illustrative_Color14)"/>
<path fill-rule="evenodd" clip-rule="evenodd" d="M200.053 68.901C198.581 69.3696 196.465 70.163 193.612 71.4496C192.884 71.778 192.028 71.4526 191.701 70.7228C191.373 69.993 191.698 69.1352 192.426 68.8068C195.356 67.4852 197.578 66.6484 199.178 66.139C200.717 65.6492 201.81 65.4189 202.417 65.4189C203.216 65.4189 203.863 66.0677 203.863 66.8679C203.863 67.6682 203.216 68.3169 202.417 68.3169C202.418 68.3169 202.417 68.317 202.416 68.317C202.409 68.3173 202.358 68.3196 202.248 68.3354C202.131 68.3522 201.972 68.3807 201.767 68.4259C201.356 68.5162 200.79 68.6665 200.053 68.901Z" style="fill:var(--sapContent_Illustrative_Color14)"/>
<path fill-rule="evenodd" clip-rule="evenodd" d="M186.166 32.1346C186.941 31.9423 187.725 32.4163 187.916 33.1931L196.591 68.3314C196.783 69.1082 196.31 69.8938 195.535 70.086C194.76 70.2782 193.976 69.8042 193.784 69.0274L185.109 33.8892C184.918 33.1123 185.39 32.3268 186.166 32.1346Z" style="fill:var(--sapContent_Illustrative_Color14)"/>
<path fill-rule="evenodd" clip-rule="evenodd" d="M191.629 132.734C191.894 131.979 192.72 131.583 193.473 131.848C195.252 132.475 199.79 133.181 203.461 131.12C204.157 130.729 205.039 130.977 205.429 131.676C205.819 132.374 205.571 133.257 204.874 133.648C200.194 136.276 194.704 135.355 192.513 134.582C191.76 134.316 191.364 133.489 191.629 132.734Z" style="fill:var(--sapContent_Illustrative_Color14)"/>
<path fill-rule="evenodd" clip-rule="evenodd" d="M166.915 6.05311C171.051 6.54364 174.006 10.301 173.517 14.4454L168.094 60.3617H168.974L173.57 21.4506C173.972 18.0492 177.049 15.6182 180.442 16.0208C183.836 16.4234 186.262 19.5071 185.86 22.9085L181.437 60.3617H181.872L184.307 43.6109C184.769 40.4354 187.712 38.2362 190.88 38.6989C194.049 39.1616 196.243 42.1109 195.781 45.2864L190.735 79.9991V80.9667C190.78 96.1581 185.573 110.896 175.999 122.674C166.425 134.452 153.076 142.543 138.222 145.57L134.607 146.295C133.961 146.43 133.293 146.415 132.654 146.253C132.014 146.09 131.42 145.783 130.917 145.355C130.414 144.928 130.014 144.391 129.749 143.785C129.484 143.18 129.361 142.522 129.388 141.861L130.51 112.398C130.339 112.221 130.176 112.036 130.024 111.841C129.349 110.984 128.88 109.984 128.651 108.917L119.542 52.5369C119.443 51.9256 119.472 51.3005 119.626 50.7009C119.781 50.1014 120.058 49.5405 120.439 49.0537C120.821 48.5668 121.3 48.1647 121.844 47.8726C122.389 47.5805 122.989 47.4048 123.605 47.3567C126.331 47.1432 129.036 47.9894 131.157 49.72C133.278 51.4506 134.653 53.9327 134.998 56.652L137.512 76.5281L138.395 76.5296C138.216 75.902 138.121 75.2394 138.121 74.5545V19.2969C138.121 15.3236 141.335 12.1026 145.299 12.1026C149.264 12.1026 152.478 15.3236 152.478 19.2969V60.3617H152.909L158.541 12.6691C159.031 8.52466 162.78 5.56259 166.915 6.05311Z" style="fill:var(--sapContent_Illustrative_Color3)"/>
<path fill-rule="evenodd" clip-rule="evenodd" d="M184.939 41.7278C185.727 41.8857 186.238 42.6537 186.08 43.4432L181.8 64.8903C181.642 65.6797 180.876 66.1917 180.088 66.0338C179.301 65.8759 178.79 65.1079 178.947 64.3185L183.227 42.8714C183.385 42.0819 184.151 41.5699 184.939 41.7278Z" style="fill:var(--sapContent_Illustrative_Color15)"/>
<path fill-rule="evenodd" clip-rule="evenodd" d="M172.57 25.1616C173.369 25.2418 173.952 25.9561 173.872 26.7572L170.204 63.5237C170.124 64.3248 169.411 64.9093 168.612 64.8292C167.812 64.749 167.229 64.0347 167.309 63.2336L170.978 26.4671C171.057 25.666 171.77 25.0815 172.57 25.1616Z" style="fill:var(--sapContent_Illustrative_Color15)"/>
<path fill-rule="evenodd" clip-rule="evenodd" d="M158.501 14.1318C159.3 14.2086 159.886 14.9206 159.81 15.722L155.53 60.4545C155.453 61.256 154.743 61.8433 153.943 61.7665C153.143 61.6896 152.557 60.9777 152.634 60.1762L156.914 15.4437C156.991 14.6423 157.701 14.0549 158.501 14.1318Z" style="fill:var(--sapContent_Illustrative_Color15)"/>
<mask id="mask0_9780_15343" style="mask-type:alpha" maskUnits="userSpaceOnUse" x="0" y="34" width="320" height="200">
<path d="M305.547 34H14.4533C12.5559 33.9983 10.6768 34.3705 8.92329 35.0954C7.16981 35.8203 5.57638 36.8836 4.23409 38.2247C2.8918 39.5657 1.82697 41.1582 1.10045 42.911C0.373942 44.6638 -8.08861e-07 46.5426 0 48.44V219.547C0 223.38 1.52275 227.056 4.23328 229.767C6.9438 232.477 10.6201 234 14.4533 234H305.547C309.38 234 313.056 232.477 315.767 229.767C318.477 227.056 320 223.38 320 219.547V48.44C320 46.5426 319.626 44.6638 318.9 42.911C318.173 41.1582 317.108 39.5657 315.766 38.2247C314.424 36.8836 312.83 35.8203 311.077 35.0954C309.323 34.3705 307.444 33.9983 305.547 34Z" style="fill:var(--sapContent_Illustrative_Color7)"/>
</mask>
<g mask="url(#mask0_9780_15343)">
<path d="M232.874 119.102C232.669 118.875 232.405 118.71 232.111 118.628C231.816 118.545 231.505 118.549 231.213 118.638C230.92 118.727 230.659 118.898 230.461 119.13C230.262 119.363 230.133 119.647 230.09 119.95L229.678 122.761C227.206 139.896 208.15 148.01 194.624 139.2L191.935 134.708C191.547 135.016 191.276 135.448 191.167 135.932C191.058 136.415 191.117 136.922 191.335 137.367L269.489 293.837L332 230.371L232.874 119.102Z" style="fill:var(--sapContent_Illustrative_Color2)"/>
<path d="M70.0725 284.181L28.6493 239.928C25.0795 236.119 23.139 231.061 23.243 225.835C23.3471 220.61 25.4873 215.634 29.2059 211.97L125.802 116.734C129.158 113.436 133.406 111.197 138.019 110.295C142.633 109.394 147.409 109.869 151.755 111.663C154.48 112.789 156.948 114.461 159.007 116.575C161.066 118.689 162.673 121.202 163.73 123.959C164.788 126.717 165.273 129.662 165.157 132.614C165.041 135.566 164.325 138.463 163.054 141.128L96.5747 280.073C95.433 282.46 93.728 284.532 91.6073 286.11C89.4867 287.688 87.0142 288.724 84.4041 289.128C81.7939 289.533 79.1247 289.294 76.6275 288.432C74.1303 287.57 71.8803 286.111 70.0725 284.181Z" style="fill:var(--sapContent_Illustrative_Color17)"/>
<path d="M159.317 157.472C156.902 134.288 133.494 111.64 111.937 124.681L0 232.784L87.9213 321.999L158.825 167.434C159.642 165.652 159.967 163.683 159.765 161.732L159.317 157.472Z" style="fill:var(--sapContent_Illustrative_Color9)"/>
<path d="M155.305 167.773C155.305 170.819 152.841 173.288 149.802 173.288C146.763 173.288 144.299 170.819 144.299 167.773C144.299 164.727 146.763 162.258 149.802 162.258C152.841 162.258 155.305 164.727 155.305 167.773Z" style="fill:var(--sapContent_Illustrative_Color17)"/>
<path d="M147.05 182.478C147.05 185.524 144.587 187.993 141.547 187.993C138.508 187.993 136.044 185.524 136.044 182.478C136.044 179.432 138.508 176.963 141.547 176.963C144.587 176.963 147.05 179.432 147.05 182.478Z" style="fill:var(--sapContent_Illustrative_Color17)"/>
</g>
</svg>
