<svg width="128" height="128" viewBox="0 0 128 128" fill="none" xmlns="http://www.w3.org/2000/svg" id="sapIllus-Spot-UnableToUpload">
<rect y="40" width="128" height="55" rx="8" fill="var(--sapContent_Illustrative_Color20)"/>
<g clip-path="url(#clip0_6880_7422)">
<path fill-rule="evenodd" clip-rule="evenodd" d="M75.5202 79.5434C75.9585 79.5434 76.3607 79.3745 76.681 79.0915C77.4842 78.8469 78.0751 78.0164 78.0751 77.0294V42.6314C78.0751 41.452 77.231 40.4961 76.1894 40.4961H53.5193C53.0823 40.4961 52.6788 40.6649 52.3598 40.948C51.5566 41.1925 50.9656 42.0231 50.9656 43.01V55.9211C50.736 55.9782 50.5535 56.0154 50.4331 56.0279C50.253 56.0452 50.073 56.0266 49.8943 56.008C49.1668 55.931 48.4542 55.8553 47.8186 58.25C47.2363 60.4412 46.5486 61.3512 46.0979 61.9458C45.9576 62.1321 45.8397 62.286 45.7565 62.4399C45.7429 62.4635 45.7304 62.4896 45.718 62.5132C45.5281 62.9154 45.7218 65.2779 45.8993 67.4479C46.0185 68.9042 46.1302 70.2747 46.1153 70.9054C46.0892 71.9246 45.3791 73.5683 44.8838 74.5962C44.3835 74.2672 44.0532 74.0661 44.0532 74.0661L43.2811 76.3789L42.7311 75.9941H42.7286L34 95.6611H49.5529L50.1003 85.2267H50.1028L50.299 81.2789L49.9563 81.0393C50.0035 80.4273 49.9675 79.6886 49.7056 78.9562L50.9681 76.3044V79.5421H75.524L75.5202 79.5434Z" fill="var(--sapContent_Illustrative_Color21)"/>
<path d="M91.4956 33H64.653C63.3647 33 62.3203 34.0444 62.3203 35.3327V74.5252C62.3203 75.8135 63.3647 76.8579 64.653 76.8579H91.4956C92.7839 76.8579 93.8283 75.8135 93.8283 74.5252V35.3327C93.8283 34.0444 92.7839 33 91.4956 33Z" fill="var(--sapContent_Illustrative_Color17)"/>
<path d="M91.5402 33H65.4611C64.1968 33 63.1719 34.0249 63.1719 35.2892V74.1428C63.1719 75.4072 64.1968 76.4321 65.4611 76.4321H91.5402C92.8045 76.4321 93.8294 75.4072 93.8294 74.1428V35.2892C93.8294 34.0249 92.8045 33 91.5402 33Z" fill="var(--sapContent_Illustrative_Color9)"/>
<path d="M90.3915 35.2842H66.5631C65.606 35.2842 64.8301 36.0601 64.8301 37.0172V72.7275C64.8301 73.6847 65.606 74.4606 66.5631 74.4606H90.3915C91.3486 74.4606 92.1246 73.6847 92.1246 72.7275V37.0172C92.1246 36.0601 91.3486 35.2842 90.3915 35.2842Z" fill="var(--sapContent_Illustrative_Color8)"/>
<path d="M63.0862 47.303C63.0862 47.0445 62.8769 46.835 62.6188 46.835C62.3606 46.835 62.1514 47.0445 62.1514 47.303V48.7046C62.1514 48.9631 62.3606 49.1726 62.6188 49.1726C62.8769 49.1726 63.0862 48.9631 63.0862 48.7046V47.303Z" fill="var(--sapContent_Illustrative_Color17)"/>
<path d="M62.8851 47.2024C62.8851 46.9995 62.7208 46.835 62.5182 46.835C62.3156 46.835 62.1514 46.9995 62.1514 47.2024V48.8051C62.1514 49.0081 62.3156 49.1726 62.5182 49.1726C62.7208 49.1726 62.8851 49.0081 62.8851 48.8051V47.2024Z" fill="var(--sapContent_Illustrative_Color17)"/>
<path d="M85.2955 54.8284C85.2955 58.5813 82.2527 61.6241 78.4998 61.6241C74.7469 61.6241 71.7041 58.5813 71.7041 54.8284C71.7041 51.0755 74.7469 48.0327 78.4998 48.0327C82.2527 48.0327 85.2955 51.0755 85.2955 54.8284Z" fill="var(--sapContent_Illustrative_Color23)"/>
<path fill-rule="evenodd" clip-rule="evenodd" d="M81.0885 53.269C81.353 53.0034 81.353 52.5738 81.0885 52.3081C80.8229 52.0425 80.3933 52.0425 80.1277 52.3081L78.5349 53.9009L76.9421 52.3081C76.6777 52.0425 76.2469 52.0425 75.9825 52.3081C75.7168 52.5738 75.7168 53.0034 75.9825 53.269L77.5752 54.8618L75.9825 56.4546C75.7168 56.7202 75.7168 57.1498 75.9825 57.4155C76.2469 57.6811 76.6777 57.6811 76.9421 57.4155L78.5349 55.8227L80.1277 57.4155C80.3933 57.6811 80.8229 57.6811 81.0885 57.4155C81.353 57.1498 81.353 56.7202 81.0885 56.4546L79.4958 54.8618L81.0885 53.269Z" fill="var(--sapContent_Illustrative_Color8)"/>
<path d="M78.5 34.5396C78.7352 34.5396 78.9259 34.349 78.9259 34.1138C78.9259 33.8786 78.7352 33.688 78.5 33.688C78.2649 33.688 78.0742 33.8786 78.0742 34.1138C78.0742 34.349 78.2649 34.5396 78.5 34.5396Z" fill="var(--sapContent_Illustrative_Color17)"/>
<path d="M68.6489 52.7739C66.9841 51.967 65.2722 54.5877 64.7172 55.9495C64.1623 57.3102 63.1046 61.0407 63.1046 60.4361C63.1046 59.8315 62.1983 57.5125 62.0469 56.8074C61.9687 56.4461 62.104 55.885 62.3212 55.4182V52.5269C62.3212 52.2016 62.4888 51.2978 62.3212 51.016C62.1772 50.7739 60.171 50.8621 59.7676 51.057C59.4585 51.206 59.2251 51.4766 59.0388 51.7634C58.366 52.8012 58.1413 54.106 57.7279 55.2568C57.2499 56.5839 56.7931 57.9408 56.5212 59.3275C56.2828 60.5417 56.2568 61.7868 56.2319 63.0246C56.1885 65.1723 56.4653 67.5198 55.6708 69.5446C55.2189 70.6967 54.628 71.8053 53.9824 72.863L60.3337 77.4241L63.1058 72.2833C63.1058 72.2833 64.7681 71.274 65.5751 70.1654C66.3808 69.0567 66.9878 64.7204 67.0375 63.4615C67.0884 62.2002 67.0884 60.4858 67.4906 59.7819C67.8941 59.0767 70.3137 53.5821 68.6501 52.7764L68.6489 52.7739Z" fill="var(--sapContent_Illustrative_Color16)"/>
<path d="M68.6488 52.7738C68.4166 52.6608 68.1832 52.6174 67.9523 52.6261C68.218 53.0531 68.2465 53.6192 68.1894 54.1071C68.105 54.8296 67.8753 55.5236 67.5873 56.189C67.483 56.4286 67.3738 56.6707 67.2385 56.8942C66.8114 57.6006 66.1572 58.1344 65.863 58.9115C65.5687 59.6887 65.5191 60.508 65.4694 61.3162C65.4694 62.4025 65.3341 63.5074 65.2683 64.5924C65.2062 65.598 65.2162 66.6234 64.9579 67.6017C64.5272 69.2416 63.5228 70.6966 61.9971 71.4874C61.8953 71.5395 61.7885 71.5929 61.7202 71.6848C61.6035 71.8412 61.6333 72.056 61.652 72.2497C61.7873 73.6277 61.0499 74.8505 60.2019 75.871C59.9574 76.1652 59.683 76.4669 59.3813 76.7412L60.3323 77.424L63.1045 72.2832C63.1045 72.2832 64.7668 71.2739 65.5737 70.1653C66.3794 69.0566 66.9865 64.7203 67.0361 63.4614C67.087 62.2001 67.087 60.4857 67.4892 59.7818C67.8927 59.0766 70.3123 53.582 68.6488 52.7763V52.7738Z" fill="var(--sapContent_Illustrative_Color29)"/>
<path d="M62.3198 51.016C62.1758 50.7739 60.1696 50.8621 59.7661 51.057C59.457 51.206 59.2236 51.4766 59.0374 51.7634C58.3645 52.8012 58.1398 54.106 57.7264 55.2568C57.2485 56.5839 56.7916 57.9408 56.5197 59.3275C56.2814 60.5417 56.2553 61.7868 56.2305 63.0246C56.187 65.1723 56.4639 67.5198 55.6693 69.5446C55.2174 70.6967 54.6265 71.8053 53.981 72.863L54.6911 73.3733C55.0064 72.6867 55.4037 72.0375 55.8555 71.4329C56.084 71.1275 56.3198 70.7848 56.6389 70.5676C56.7941 70.4621 56.9828 70.3925 57.1702 70.3801C57.3043 70.3714 57.4967 70.4348 57.6134 70.3541C57.6134 70.3541 57.6544 70.2994 57.6569 70.2957C57.6743 70.256 57.6879 70.1865 57.6916 70.1604C57.7065 70.0363 57.6954 69.9059 57.6792 69.7818C57.642 69.5099 57.5613 69.2467 57.5129 68.9773C57.056 66.4497 56.6277 63.69 57.0151 61.1313C57.2323 59.695 57.7848 58.2797 58.146 56.8732C58.3409 56.1122 58.6277 55.3934 58.943 54.6771C59.2211 54.0452 59.524 53.4145 59.9213 52.8459C60.2763 52.3357 60.7332 51.8168 61.3514 51.6367C61.6469 51.5511 61.9448 51.5325 62.244 51.5486C62.2949 51.53 62.3446 51.5089 62.3955 51.4927C62.398 51.2916 62.3806 51.1141 62.321 51.0148L62.3198 51.016Z" fill="var(--sapContent_Illustrative_Color29)"/>
<path d="M61.3576 56.2289C61.4594 56.538 61.6456 56.8 61.8592 57.0433C61.9721 57.1711 62.0913 57.2953 62.2179 57.4108C62.1385 57.1612 62.0764 56.9514 62.0454 56.8074C61.9672 56.4461 62.1025 55.885 62.3197 55.4182V53.0508C62.1348 53.2407 61.9647 53.4431 61.8095 53.6578C61.303 54.3605 61.0882 55.2469 61.3129 56.0836C61.3266 56.1321 61.3402 56.1805 61.3564 56.2289H61.3576Z" fill="var(--sapContent_Illustrative_Color29)"/>
<path d="M59.2484 77.2551C59.6385 77.2551 59.9548 76.9388 59.9548 76.5487C59.9548 76.1585 59.6385 75.8423 59.2484 75.8423C58.8583 75.8423 58.542 76.1585 58.542 76.5487C58.542 76.9388 58.8583 77.2551 59.2484 77.2551Z" fill="var(--sapContent_Illustrative_Color29)"/>
<path d="M61.4684 79.3225C60.7186 80.7886 58.8328 78.6719 56.7397 77.6018C54.6466 76.5329 51.2091 74.9066 51.8397 73.3846C52.0421 72.898 55.3866 74.1332 57.4796 75.2021C59.5727 76.271 61.4684 79.3212 61.4684 79.3212V79.3225Z" fill="var(--sapContent_Illustrative_Color14)"/>
<path d="M52.1609 74.8294L53.524 71.2192C53.524 71.2192 59.7822 74.5885 60.6636 76.5947C61.5463 78.5997 60.6636 80.6865 60.6636 80.6865L52.1597 74.8294H52.1609Z" fill="var(--sapContent_Illustrative_Color8)"/>
<path d="M40.7334 95.6608L51.8406 73.3843L61.4693 79.3209L60.5457 95.6596H40.7334V95.6608Z" fill="var(--sapContent_Illustrative_Color21)"/>
<path d="M53.7525 93.1782C52.8115 91.8796 52.0107 90.4681 51.4744 88.9535C50.9629 87.5085 50.7109 85.9554 50.8562 84.4247C50.8611 84.3788 50.8661 84.3328 50.8736 84.2881C51.1107 82.7487 52.8127 81.9083 54.2193 82.5787L55.8244 83.3446C56.2863 83.5644 56.7357 83.0231 56.434 82.6109C55.4272 81.2354 54.1274 79.4428 54.1088 79.3385C54.0752 79.1585 54.2193 78.9785 54.4142 79.0331C55.1417 79.2379 55.8518 79.4962 56.5507 79.7817C58.1534 80.4359 59.7127 81.2081 61.3278 81.8239L61.4693 79.3224L51.8406 73.3857L40.7334 95.6623H55.8207C55.0808 94.8789 54.3856 94.0521 53.7525 93.1794V93.1782Z" fill="var(--sapContent_Illustrative_Color14)"/>
</g>
<defs>
<clipPath id="clip0_6880_7422">
<rect width="60" height="62" fill="var(--sapContent_Illustrative_Color8)" transform="translate(34 33)"/>
</clipPath>
</defs>
</svg>