<svg width="321" height="201" viewBox="0 0 321 201" fill="none" xmlns="http://www.w3.org/2000/svg" id="sapIllus-Scene-NoMail_v1">
<path d="M306.447 0.0048146H15.3532C13.4562 0.00292198 11.5775 0.374835 9.82438 1.0993C8.07124 1.82377 6.47804 2.88659 5.13582 4.22703C3.7936 5.56747 2.72866 7.15925 2.00186 8.91142C1.27506 10.6636 0.900654 12.5418 0.900024 14.4387V185.552C0.900024 189.386 2.42276 193.062 5.13325 195.772C7.84373 198.483 11.5199 200.005 15.3532 200.005H306.447C310.28 200.004 313.955 198.481 316.665 195.771C319.376 193.061 320.899 189.385 320.9 185.552V14.4387C320.901 12.5412 320.527 10.6622 319.801 8.9092C319.075 7.15619 318.01 5.56359 316.667 4.22251C315.325 2.88144 313.731 1.81821 311.978 1.09367C310.224 0.369128 308.344 -0.00251229 306.447 1.27812e-05V0.0048146Z" fill="var(--sapContent_Illustrative_Color7)"/>
<mask id="mask0_396_6272" class="sapIllus_MaskTypeAlpha" maskUnits="userSpaceOnUse" x="0" y="0" width="321" height="201">
<path d="M306.447 0.0048146H15.3532C13.4562 0.00292198 11.5775 0.374835 9.82438 1.0993C8.07124 1.82377 6.47804 2.88659 5.13582 4.22703C3.7936 5.56747 2.72866 7.15925 2.00186 8.91142C1.27506 10.6636 0.900654 12.5418 0.900024 14.4387V185.552C0.900024 189.385 2.42276 193.062 5.13325 195.772C7.84373 198.483 11.5199 200.005 15.3532 200.005H306.447C310.28 200.004 313.955 198.481 316.665 195.771C319.376 193.061 320.899 189.385 320.9 185.552V14.4387C320.901 12.5412 320.527 10.6622 319.801 8.9092C319.075 7.15619 318.01 5.56359 316.667 4.22251C315.325 2.88144 313.731 1.81821 311.978 1.09367C310.224 0.369128 308.344 -0.00251229 306.447 1.27812e-05V0.0048146Z" fill="var(--sapContent_Illustrative_Color7)"/>
</mask>
<g mask="url(#mask0_396_6272)">
<path d="M137.053 62.6719C135.244 62.6719 133.51 63.3902 132.231 64.6689C130.953 65.9476 130.234 67.6819 130.234 69.4903V80.0012C130.234 81.8096 130.953 83.5439 132.231 84.8226C133.51 86.1013 135.244 86.8196 137.053 86.8196C138.861 86.8196 140.595 86.1013 141.874 84.8226C143.153 83.5439 143.871 81.8096 143.871 80.0012V69.4903C143.871 67.6819 143.153 65.9476 141.874 64.6689C140.595 63.3902 138.861 62.6719 137.053 62.6719V62.6719Z" fill="var(--sapContent_Illustrative_Color18)"/>
<path d="M137.677 73.7204C137.677 73.5434 137.606 73.3736 137.481 73.2485C137.356 73.1233 137.186 73.053 137.009 73.053C136.832 73.053 136.662 73.1233 136.537 73.2485C136.412 73.3736 136.342 73.5434 136.342 73.7204V99.3375C136.342 99.5145 136.412 99.6843 136.537 99.8095C136.662 99.9346 136.832 100.005 137.009 100.005C137.186 100.005 137.356 99.9346 137.481 99.8095C137.606 99.6843 137.677 99.5145 137.677 99.3375V73.7204Z" fill="var(--sapContent_Illustrative_Color19)"/>
<path d="M122.897 76.0061C122.109 76.0061 121.33 76.1612 120.602 76.4626C119.874 76.764 119.213 77.2058 118.656 77.7627C118.099 78.3196 117.658 78.9807 117.356 79.7084C117.055 80.436 116.9 81.2159 116.9 82.0034V84.025C116.9 85.616 117.531 87.1419 118.656 88.2674C119.781 89.3929 121.306 90.0258 122.897 90.0271C124.489 90.0271 126.016 89.3947 127.141 88.2691C128.267 87.1435 128.899 85.6168 128.899 84.025V82.0034C128.899 81.2155 128.744 80.4352 128.442 79.7073C128.14 78.9793 127.698 78.3179 127.141 77.761C126.583 77.204 125.922 76.7624 125.194 76.4612C124.465 76.1601 123.685 76.0055 122.897 76.0061V76.0061Z" fill="var(--sapContent_Illustrative_Color18)"/>
<path d="M123.329 84.1883C123.329 84.0851 123.288 83.9862 123.215 83.9132C123.142 83.8403 123.043 83.7993 122.94 83.7993C122.837 83.7993 122.738 83.8403 122.665 83.9132C122.592 83.9862 122.551 84.0851 122.551 84.1883V99.1792C122.551 99.2823 122.592 99.3813 122.665 99.4542C122.738 99.5271 122.837 99.5681 122.94 99.5681C123.043 99.5681 123.142 99.5271 123.215 99.4542C123.288 99.3813 123.329 99.2823 123.329 99.1792V84.1883Z" fill="var(--sapContent_Illustrative_Color19)"/>
<path d="M298.899 88.0056C297.308 88.0056 295.783 88.6375 294.658 89.7622C293.533 90.8869 292.901 92.4124 292.901 94.0029V96.0245C292.901 96.8124 293.055 97.5928 293.357 98.321C293.658 99.0492 294.099 99.7109 294.656 100.268C295.213 100.826 295.875 101.268 296.603 101.57C297.33 101.871 298.111 102.027 298.899 102.027C300.491 102.027 302.017 101.394 303.143 100.269C304.268 99.143 304.901 97.6163 304.901 96.0245V94.0029C304.9 92.4119 304.267 90.8865 303.141 89.7619C302.016 88.6373 300.49 88.0056 298.899 88.0056V88.0056Z" fill="var(--sapContent_Illustrative_Color18)"/>
<path d="M299.331 96.1877C299.331 96.0841 299.29 95.9847 299.217 95.911C299.144 95.8373 299.045 95.7952 298.942 95.7939C298.89 95.7939 298.839 95.8041 298.791 95.8239C298.743 95.8437 298.7 95.8727 298.663 95.9093C298.627 95.9458 298.598 95.9892 298.578 96.037C298.558 96.0848 298.548 96.136 298.548 96.1877V111.179C298.548 111.23 298.558 111.282 298.578 111.329C298.598 111.377 298.627 111.42 298.663 111.457C298.7 111.494 298.743 111.523 298.791 111.542C298.839 111.562 298.89 111.572 298.942 111.572C299.045 111.571 299.144 111.529 299.217 111.455C299.29 111.382 299.331 111.282 299.331 111.179V96.1877Z" fill="var(--sapContent_Illustrative_Color18)"/>
<path d="M74.419 68.4626H57.7762V112.264H74.419V68.4626Z" fill="var(--sapContent_Illustrative_Color20)"/>
<path d="M77.6889 66.9885C78.6493 68.1025 78.2843 69.01 76.7766 69.01H55.8268C54.3574 69.01 53.9349 68.1313 54.9721 67.0557L64.7627 56.8329C65.0026 56.5717 65.2935 56.3625 65.6174 56.2183C65.9203 56.0841 66.2466 56.0107 66.5778 56.0022C66.9222 56.0069 67.2618 56.0831 67.5751 56.2261C67.8884 56.3691 68.1685 56.5758 68.3976 56.8329L77.6889 66.9885Z" fill="var(--sapContent_Illustrative_Color19)"/>
<path d="M66.5345 80.1021C67.3078 80.1049 68.0646 79.8783 68.709 79.451C69.3535 79.0236 69.8567 78.4147 70.155 77.7012C70.4498 76.9867 70.5264 76.2009 70.3751 75.443C70.2238 74.685 69.8515 73.9888 69.3051 73.4421C68.8519 72.9849 68.2929 72.6467 67.6775 72.4575C67.0622 72.2683 66.4097 72.2341 65.7779 72.3577C65.1462 72.4814 64.5548 72.7592 64.0562 73.1665C63.5577 73.5738 63.1674 74.0979 62.9202 74.6922C62.6729 75.2866 62.5763 75.9328 62.6389 76.5735C62.7015 77.2142 62.9213 77.8296 63.279 78.3648C63.6366 78.9001 64.1209 79.3388 64.6888 79.6418C65.2568 79.9449 65.8908 80.103 66.5345 80.1021V80.1021Z" fill="var(--sapContent_Illustrative_Color19)"/>
<path d="M107.349 95.4099H72.2966V112.293H107.349V95.4099Z" fill="var(--sapContent_Illustrative_Color20)"/>
<path d="M89.5827 101.09C90.3559 101.091 91.0978 101.396 91.6474 101.94C92.2009 102.487 92.5151 103.232 92.5213 104.01V112.36H86.7593V104.01C86.7599 103.252 87.0542 102.524 87.5804 101.979C88.1036 101.432 88.8212 101.113 89.5779 101.09H89.5827Z" fill="var(--sapContent_Illustrative_Color19)"/>
<path d="M80.9109 101.758H76.9927C76.738 101.758 76.4937 101.859 76.3136 102.039C76.1335 102.219 76.0323 102.463 76.0323 102.718V106.631C76.0323 106.886 76.1335 107.13 76.3136 107.31C76.4937 107.49 76.738 107.592 76.9927 107.592H80.9109C81.1656 107.592 81.4098 107.49 81.5899 107.31C81.77 107.13 81.8712 106.886 81.8712 106.631V102.728C81.8712 102.473 81.77 102.229 81.5899 102.048C81.4098 101.868 81.1656 101.767 80.9109 101.767V101.758Z" fill="var(--sapContent_Illustrative_Color19)"/>
<path d="M102.821 101.599H96.9485C96.7991 101.6 96.6511 101.627 96.5115 101.681C96.2361 101.796 96.0171 102.015 95.9017 102.291C95.8483 102.428 95.8207 102.575 95.8201 102.723V106.305C95.8207 106.453 95.8483 106.599 95.9017 106.737C96.0171 107.012 96.2361 107.231 96.5115 107.347C96.6511 107.4 96.7991 107.428 96.9485 107.428H102.821C103.119 107.427 103.405 107.31 103.618 107.102C103.828 106.89 103.945 106.603 103.945 106.305V102.723C103.945 102.576 103.917 102.43 103.861 102.294C103.805 102.158 103.722 102.034 103.618 101.93C103.406 101.719 103.12 101.6 102.821 101.599V101.599Z" fill="var(--sapContent_Illustrative_Color19)"/>
<path d="M106.024 86.3778H73.2569C72.5975 86.3829 71.9664 86.6467 71.4995 87.1124C71.2682 87.343 71.0847 87.6169 70.9595 87.9184C70.8343 88.22 70.7697 88.5433 70.7697 88.8698V96.7783C70.7709 97.4375 71.0334 98.0695 71.4996 98.5356C71.9657 99.0018 72.5977 99.2643 73.2569 99.2656H106.019C106.348 99.2673 106.675 99.2037 106.979 99.0783C107.282 98.9512 107.558 98.7669 107.791 98.5357C108.021 98.3049 108.204 98.0309 108.329 97.7293C108.453 97.4277 108.517 97.1045 108.516 96.7783V88.8651C108.517 88.5358 108.453 88.2094 108.329 87.9047C108.204 87.603 108.022 87.3288 107.791 87.098C107.557 86.8682 107.282 86.6856 106.979 86.5602C106.675 86.4333 106.349 86.368 106.019 86.3682L106.024 86.3778Z" fill="var(--sapContent_Illustrative_Color19)"/>
<path d="M36.6871 112.35H11.6895V129.228H36.6871V112.35Z" fill="var(--sapContent_Illustrative_Color19)"/>
<path d="M39.525 113.44C40.5526 114.271 40.2981 114.905 38.9873 114.905H8.73651C7.41604 114.905 7.18076 114.232 8.20832 113.44L22.3589 102.243C22.8948 101.838 23.5481 101.619 24.2196 101.619C24.8911 101.619 25.5444 101.838 26.0803 102.243L39.525 113.44Z" fill="var(--sapContent_Illustrative_Color20)"/>
<path d="M18.3975 118.059C19.1748 118.061 19.9201 118.369 20.4707 118.918C21.0212 119.467 21.3323 120.211 21.3361 120.988V129.339H15.5741V120.988C15.574 120.604 15.6499 120.223 15.7974 119.868C15.9449 119.513 16.1611 119.19 16.4336 118.919C16.987 118.368 17.7365 118.058 18.5175 118.059H18.3975Z" fill="var(--sapContent_Illustrative_Color20)"/>
<path d="M72.8728 117.387L25.1919 127.826L25.0238 98.6606H72.8728V117.387Z" fill="var(--sapContent_Illustrative_Color19)"/>
<path d="M72.4407 89.0715H24.9038C24.5744 89.074 24.2485 89.1392 23.9435 89.2636C23.6319 89.3892 23.3492 89.5771 23.1128 89.8158C22.8774 90.0513 22.6899 90.3301 22.5606 90.6369C22.4359 90.9417 22.3723 91.268 22.3733 91.5972V102.521C22.3733 102.855 22.4392 103.186 22.5671 103.494C22.6951 103.803 22.8826 104.083 23.119 104.319C23.3554 104.555 23.6359 104.742 23.9447 104.869C24.2534 104.997 24.5842 105.062 24.9182 105.061H72.4551C73.1314 105.06 73.7801 104.793 74.2605 104.317C74.4973 104.082 74.6853 103.802 74.8138 103.494C74.9424 103.185 75.0089 102.855 75.0096 102.521V91.6116C75.0111 91.2767 74.9456 90.9449 74.817 90.6356C74.6883 90.3264 74.4991 90.046 74.2605 89.811C74.0244 89.5754 73.7436 89.3893 73.4346 89.2636C73.1293 89.1402 72.8036 89.075 72.4743 89.0715H72.4407Z" fill="var(--sapContent_Illustrative_Color20)"/>
<path d="M35.5299 109.81C35.8154 109.808 36.0984 109.863 36.3622 109.972C36.6261 110.081 36.8655 110.241 37.0665 110.444C37.2726 110.644 37.436 110.884 37.5467 111.15C37.6617 111.412 37.7206 111.695 37.7195 111.98V117.123H33.3212V112.009C33.3241 111.72 33.3845 111.435 33.4988 111.169C33.6051 110.901 33.769 110.66 33.979 110.463C34.1858 110.258 34.4304 110.095 34.6993 109.983C34.9682 109.877 35.2553 109.825 35.5444 109.829L35.5299 109.81Z" fill="var(--sapContent_Illustrative_Color20)"/>
<path d="M45.0182 109.733C45.3029 109.735 45.5848 109.79 45.8488 109.897C46.1143 110.007 46.3545 110.17 46.5547 110.377C46.7606 110.579 46.9239 110.821 47.0349 111.087C47.143 111.351 47.2 111.633 47.2029 111.918V117.056H42.8046V111.913C42.8158 111.333 43.0475 110.778 43.4528 110.362C43.6574 110.155 43.9026 109.991 44.173 109.882C44.4423 109.778 44.7294 109.727 45.0182 109.733V109.733Z" fill="var(--sapContent_Illustrative_Color20)"/>
<path d="M54.4774 109.791C55.0531 109.796 55.6043 110.025 56.0139 110.429C56.2175 110.63 56.3792 110.869 56.4897 111.133C56.6001 111.397 56.6571 111.68 56.6574 111.966V117.104H52.2638V112.009C52.2604 111.72 52.3193 111.433 52.4367 111.169C52.5488 110.901 52.7119 110.658 52.9168 110.453C53.1273 110.251 53.373 110.088 53.6419 109.973C53.9079 109.853 54.1951 109.786 54.487 109.776L54.4774 109.791Z" fill="var(--sapContent_Illustrative_Color20)"/>
<path d="M64.0521 109.791C64.3386 109.79 64.6226 109.845 64.8876 109.954C65.1529 110.067 65.3941 110.23 65.5982 110.434C65.8031 110.638 65.9662 110.879 66.0784 111.145C66.1895 111.408 66.2451 111.69 66.2417 111.976V117.113H61.8577V112.009C61.8559 111.72 61.9165 111.433 62.0354 111.169C62.1376 110.902 62.2928 110.659 62.4915 110.453C62.702 110.251 62.9477 110.088 63.2166 109.973C63.4828 109.853 63.7699 109.786 64.0617 109.776L64.0521 109.791Z" fill="var(--sapContent_Illustrative_Color20)"/>
<path d="M132.683 32.4498H127.214C127.222 29.5146 126.077 26.6936 124.025 24.5942C123.026 23.5676 121.832 22.7508 120.512 22.1918C119.193 21.6328 117.775 21.3427 116.343 21.3386H81.1174C79.6847 21.3432 78.2672 21.6335 76.9481 22.1925C75.6289 22.7515 74.4345 23.568 73.4346 24.5942C71.3896 26.6978 70.2455 29.5159 70.2455 32.4498C70.2455 35.3836 71.3896 38.2018 73.4346 40.3054C74.4345 41.3315 75.6289 42.148 76.9481 42.707C78.2672 43.266 79.6847 43.5563 81.1174 43.5609H86.5817C86.5792 46.4937 87.7234 49.3112 89.77 51.4117C90.7699 52.4379 91.9643 53.2543 93.2835 53.8133C94.6026 54.3723 96.0201 54.6626 97.4528 54.6673H132.668C134.101 54.6632 135.519 54.3731 136.838 53.8141C138.157 53.255 139.352 52.4383 140.351 51.4117C142.395 49.3067 143.539 46.488 143.539 43.5537C143.539 40.6195 142.395 37.8007 140.351 35.6957C139.351 34.6706 138.156 33.8552 136.837 33.297C135.518 32.7389 134.101 32.4492 132.668 32.445L132.683 32.4498Z" fill="var(--sapContent_Illustrative_Color18)"/>
<path d="M214.773 89.7726C182.121 85.4511 156.254 89.8879 132.745 93.9165C122.206 95.7171 118.743 96.7975 55.918 115.611C14.7962 127.917 -0.66532 132.517 -5.76953 136.114V137.362H320.9V112.221C307.748 108.917 300.848 107.222 285.848 105.124C247.703 99.7938 242.603 93.4603 214.773 89.7726Z" fill="var(--sapContent_Illustrative_Color18)"/>
<path d="M211.508 96.8792V195.381C211.508 197.931 212.828 200.005 214.456 200.005H222.955V96.8792H211.508Z" fill="var(--sapContent_Illustrative_Color19)"/>
<path d="M222.955 96.8792V200.005C223.572 200.002 224.162 199.754 224.597 199.317C225.033 198.88 225.278 198.289 225.279 197.672V96.8792H222.955Z" fill="var(--sapContent_Illustrative_Color20)"/>
<path d="M195.1 38.1976H245.571C249.199 38.202 252.791 38.9213 256.14 40.3143C259.49 41.7074 262.533 43.7469 265.094 46.3163C267.656 48.8857 269.686 51.9346 271.068 55.2889C272.451 58.6432 273.159 62.237 273.152 65.865V93.2347C273.153 93.8411 273.035 94.4418 272.804 95.0024C272.573 95.5631 272.234 96.0727 271.805 96.5021C271.377 96.9316 270.869 97.2724 270.309 97.5052C269.749 97.738 269.149 97.8581 268.542 97.8588H172.172C171.566 97.8575 170.966 97.7369 170.407 97.5038C169.848 97.2708 169.34 96.9298 168.912 96.5004C168.484 96.0711 168.146 95.5617 167.915 95.0013C167.684 94.441 167.566 93.8407 167.567 93.2347V65.817C167.557 62.1939 168.262 58.6045 169.641 55.2541C171.02 51.9037 173.046 48.8581 175.603 46.2918C178.161 43.7254 181.199 41.6887 184.545 40.2981C187.89 38.9076 191.477 38.1905 195.1 38.188V38.1976Z" fill="var(--sapContent_Illustrative_Color13)"/>
<path d="M246.31 38.1975H246.599C250.164 38.2019 253.693 38.9087 256.985 40.2776C260.277 41.6464 263.267 43.6505 265.784 46.1753C268.301 48.7 270.296 51.696 271.655 54.992C273.014 58.2881 273.71 61.8196 273.704 65.3848V92.2263C273.705 92.8361 273.587 93.4401 273.354 94.0039C273.122 94.5677 272.781 95.0803 272.351 95.5124C271.921 95.9444 271.41 96.2875 270.847 96.522C270.284 96.7565 269.68 96.8779 269.07 96.8791H223.838C223.229 96.8797 222.625 96.7589 222.062 96.5238C221.5 96.2888 220.989 95.9462 220.559 95.5155C219.69 94.641 219.202 93.4589 219.2 92.2263V65.3848C219.19 58.1853 222.04 51.2765 227.123 46.1781C232.206 41.0796 239.106 38.209 246.306 38.1975H246.31Z" fill="var(--sapContent_Illustrative_Color2)"/>
<path d="M246.022 41.2178H246.791C253.088 41.233 259.121 43.7466 263.567 48.2065C268.013 52.6665 270.507 58.7083 270.501 65.0054V94.0797H222.321V65.0102C222.314 61.8909 222.921 58.8008 224.109 55.9166C225.297 53.0324 227.042 50.4108 229.245 48.2018C231.447 45.9928 234.063 44.2397 236.944 43.043C239.824 41.8462 242.913 41.2293 246.032 41.2274L246.022 41.2178Z" fill="var(--sapContent_Illustrative_Color14)"/>
<path d="M304.353 94.0845H220.535C220.288 94.0845 220.043 94.1332 219.815 94.2278C219.587 94.3225 219.38 94.4612 219.205 94.6361C219.031 94.8109 218.893 95.0185 218.799 95.2468C218.705 95.4751 218.657 95.7198 218.657 95.9667V95.9667C218.657 96.4651 218.855 96.9432 219.207 97.296C219.559 97.6489 220.036 97.8478 220.535 97.849H304.353C304.851 97.8465 305.327 97.647 305.678 97.2943C306.029 96.9416 306.226 96.4643 306.226 95.9667V95.9667C306.227 95.7202 306.179 95.4759 306.085 95.2479C305.991 95.0199 305.853 94.8126 305.679 94.6378C305.506 94.463 305.299 94.3242 305.071 94.2292C304.844 94.1343 304.6 94.0851 304.353 94.0845V94.0845Z" fill="var(--sapContent_Illustrative_Color13)"/>
<path d="M204.679 66.6188L151.131 66.4939C151.133 66.0604 151.306 65.645 151.611 65.3371C151.916 65.0292 152.33 64.8532 152.763 64.8469L204.876 64.967C205.972 64.9678 207.042 65.2948 207.951 65.9062C208.86 66.5176 209.567 67.3858 209.981 68.4002C210.255 69.0739 210.394 69.7951 210.389 70.5225C210.383 70.7958 210.361 71.0684 210.321 71.3388C210.09 70.0124 209.397 68.8107 208.364 67.9468C207.331 67.0828 206.026 66.6123 204.679 66.6188V66.6188Z" fill="var(--sapContent_Illustrative_Color15)"/>
<path d="M151.112 66.5132L151.073 84.6828C151.07 84.95 151.119 85.2151 151.22 85.4626C151.321 85.7101 151.47 85.9348 151.659 86.1234C151.849 86.3117 152.073 86.4608 152.321 86.5622C152.568 86.6635 152.833 86.7151 153.1 86.714H160.783C161.317 86.7152 161.829 86.5047 162.208 86.1284C162.587 85.7521 162.801 85.2409 162.804 84.7069V77.5283H163.793L204.819 77.6243C205.551 77.6308 206.276 77.4911 206.953 77.2135C207.63 76.9358 208.245 76.5258 208.762 76.0075C209.278 75.4892 209.686 74.873 209.961 74.195C210.237 73.517 210.374 72.7909 210.365 72.0592C210.359 71.8164 210.338 71.5743 210.302 71.3341C210.072 70.0104 209.378 68.8116 208.346 67.9516C207.313 67.0915 206.009 66.626 204.665 66.638L151.131 66.5132H151.112Z" fill="var(--sapContent_Illustrative_Color3)"/>
<path d="M256.6 181.591C254.637 180.059 249.912 182.258 245.273 185.802C245.35 183.622 245.369 181.13 245.384 178.21C245.446 166.033 245.489 158.086 242.541 157.251C239.257 156.314 234.205 164.804 226.537 177.701C225.749 179.031 225.01 180.265 224.314 181.451C212.79 164.501 211.695 163.627 210.504 163.925C206.903 164.842 206.696 175.699 207.887 186.013C202.937 182.013 197.645 179.353 195.537 180.99C192.613 183.271 196.781 192.86 202.831 199.991H249.806C255.539 192.923 259.419 183.804 256.6 181.591ZM224.146 198.733C224.006 198.861 223.843 198.961 223.666 199.026C223.49 199.094 223.302 199.126 223.113 199.122C222.926 199.118 222.742 199.078 222.571 199.002C222.391 198.929 222.228 198.822 222.091 198.685C221.221 197.796 220.4 196.859 219.632 195.881C215.738 190.906 213.332 184.928 212.478 178.114C212.456 177.931 212.471 177.745 212.522 177.568C212.574 177.391 212.659 177.225 212.775 177.082C213.013 176.786 213.358 176.596 213.736 176.554C214.113 176.506 214.495 176.609 214.797 176.842C214.944 176.954 215.068 177.095 215.16 177.256C215.252 177.416 215.312 177.594 215.335 177.778C215.583 179.76 215.994 181.717 216.564 183.631L220.698 192.495C221.087 193.072 221.49 193.633 221.918 194.176C222.619 195.075 223.373 195.933 224.174 196.745C224.302 196.879 224.401 197.037 224.466 197.21C224.531 197.383 224.561 197.568 224.553 197.753C224.546 197.937 224.502 198.119 224.424 198.286C224.346 198.454 224.235 198.604 224.098 198.728L224.146 198.733ZM232.193 191.842C231.43 192.826 230.609 193.764 229.735 194.651C229.598 194.788 229.434 194.896 229.255 194.968C229.083 195.042 228.899 195.081 228.712 195.083C228.523 195.091 228.335 195.058 228.16 194.987C227.981 194.924 227.818 194.825 227.68 194.695C227.544 194.569 227.436 194.417 227.363 194.248C227.289 194.078 227.25 193.895 227.25 193.71C227.25 193.525 227.289 193.342 227.363 193.172C227.428 192.992 227.531 192.829 227.665 192.692C228.462 191.877 229.213 191.019 229.917 190.123C230.345 189.576 230.748 189.014 231.137 188.438L235.295 179.617C235.86 177.694 236.268 175.729 236.515 173.74C236.535 173.556 236.592 173.378 236.683 173.216C236.776 173.052 236.9 172.907 237.048 172.789C237.191 172.676 237.354 172.592 237.528 172.539C237.71 172.487 237.902 172.472 238.09 172.496C238.469 172.541 238.814 172.735 239.05 173.034C239.166 173.18 239.251 173.348 239.3 173.528C239.349 173.708 239.36 173.896 239.333 174.081C238.641 180.548 236.17 186.696 232.193 191.842V191.842Z" fill="var(--sapContent_Illustrative_Color20)"/>
<path d="M238.119 172.515C237.742 172.47 237.362 172.575 237.062 172.808C236.766 173.037 236.573 173.374 236.525 173.745C236.278 175.732 235.869 177.697 235.3 179.617L231.161 188.481C230.772 189.057 230.369 189.619 229.941 190.167C229.238 191.063 228.486 191.92 227.689 192.735C227.557 192.873 227.454 193.037 227.387 193.216C227.32 193.387 227.286 193.569 227.286 193.753C227.291 193.939 227.333 194.122 227.411 194.291C227.486 194.459 227.594 194.611 227.728 194.738C227.867 194.868 228.03 194.969 228.208 195.035C228.56 195.173 228.951 195.173 229.303 195.035C229.483 194.963 229.646 194.855 229.783 194.719C230.657 193.831 231.478 192.893 232.241 191.91C236.14 186.935 238.546 180.957 239.396 174.143C239.42 173.96 239.405 173.773 239.353 173.596C239.303 173.421 239.218 173.257 239.103 173.116C238.985 172.971 238.84 172.85 238.676 172.76C238.509 172.641 238.319 172.558 238.119 172.515V172.515Z" fill="var(--sapContent_Illustrative_Color18)"/>
<path d="M221.908 194.171C221.486 193.624 221.081 193.064 220.693 192.491L216.554 183.627C215.989 181.712 215.579 179.754 215.33 177.773C215.306 177.589 215.246 177.411 215.152 177.25C215.06 177.089 214.936 176.949 214.787 176.837C214.644 176.725 214.481 176.64 214.307 176.587C214.126 176.538 213.936 176.525 213.75 176.549C213.563 176.568 213.382 176.626 213.217 176.717C213.053 176.808 212.907 176.93 212.79 177.077C212.675 177.219 212.591 177.382 212.54 177.557C212.487 177.735 212.473 177.921 212.497 178.105C213.352 184.914 215.757 190.897 219.651 195.871C220.416 196.854 221.237 197.792 222.11 198.68C222.375 198.95 222.735 199.106 223.113 199.112C223.492 199.123 223.859 198.985 224.136 198.728C224.273 198.603 224.383 198.452 224.46 198.283C224.537 198.115 224.579 197.932 224.584 197.747C224.588 197.562 224.555 197.377 224.486 197.205C224.418 197.033 224.315 196.876 224.184 196.745C223.388 195.927 222.634 195.068 221.927 194.171H221.908Z" fill="var(--sapContent_Illustrative_Color18)"/>
<ellipse cx="303.205" cy="13.6112" rx="2.72226" ry="2.72225" fill="var(--sapContent_Illustrative_Color10)"/>
<ellipse cx="166.413" cy="29.2641" rx="2.04169" ry="2.04168" fill="var(--sapContent_Illustrative_Color10)"/>
<circle cx="99.0369" cy="72.1394" r="1.36112" fill="var(--sapContent_Illustrative_Color10)"/>
<ellipse cx="226.982" cy="23.1392" rx="1.36113" ry="1.36112" fill="var(--sapContent_Illustrative_Color10)"/>
<ellipse cx="304.566" cy="61.2505" rx="1.36115" ry="1.36112" fill="var(--sapContent_Illustrative_Color10)"/>
<ellipse cx="39.1475" cy="42.1949" rx="1.36112" ry="1.36112" fill="var(--sapContent_Illustrative_Color10)"/>
<ellipse cx="99.7175" cy="10.2084" rx="2.04169" ry="2.04169" fill="var(--sapContent_Illustrative_Color10)"/>
<ellipse cx="23.4946" cy="75.5424" rx="2.04168" ry="2.04168" fill="var(--sapContent_Illustrative_Color10)"/>
</g>
<path d="M297.836 44.0348C297.569 43.8022 297.244 43.6455 296.895 43.581C296.545 43.5165 296.185 43.5468 295.851 43.6685L287.833 46.359C286.506 46.8034 286.161 48.1293 286.509 49.1603C286.636 49.5874 286.9 49.9616 287.26 50.2268C287.62 50.492 288.058 50.6337 288.507 50.6307C288.724 50.6228 288.938 50.5824 289.143 50.5109L297.161 47.8204C297.516 47.7095 297.833 47.5058 298.081 47.2307C298.328 46.9555 298.496 46.6193 298.567 46.2576C298.646 45.8555 298.621 45.4402 298.493 45.0512C298.365 44.6622 298.138 44.3124 297.836 44.0348V44.0348Z" fill="var(--sapContent_Illustrative_Color5)"/>
<path d="M261.466 16.2433C261.216 16.1998 260.959 16.2086 260.712 16.2692C260.464 16.3298 260.233 16.4409 260.031 16.5953C259.829 16.7497 259.662 16.9441 259.54 17.166C259.418 17.3879 259.344 17.6325 259.323 17.8841L258.256 25.995C258.219 26.2867 258.24 26.5828 258.319 26.8659C258.399 27.1491 258.534 27.4135 258.717 27.644C258.901 27.8744 259.129 28.0661 259.388 28.2079C259.647 28.3497 259.932 28.4388 260.227 28.47C260.348 28.4862 260.47 28.4925 260.592 28.4889C261.044 28.482 261.477 28.3074 261.806 27.9996C262.135 27.6918 262.336 27.2732 262.369 26.8262L263.434 18.7187C263.472 18.4271 263.451 18.1311 263.372 17.8479C263.293 17.5647 263.158 17.3002 262.975 17.0697C262.792 16.8391 262.564 16.6473 262.305 16.5054C262.046 16.3635 261.761 16.2744 261.466 16.2433V16.2433Z" fill="var(--sapContent_Illustrative_Color5)"/>
<path d="M283.335 23.6127C283.058 23.6375 282.789 23.7181 282.545 23.8496C282.3 23.9811 282.085 24.1606 281.912 24.3772L274.073 34.0184C273.724 34.4527 273.557 35.0038 273.607 35.5564C273.658 36.109 273.922 36.6204 274.344 36.9836C274.736 37.3188 275.242 37.495 275.76 37.4772C276.059 37.4664 276.352 37.3919 276.62 37.2587C276.887 37.1254 277.123 36.9366 277.31 36.705L285.149 27.0639C285.501 26.6274 285.668 26.0731 285.617 25.5175C285.565 24.9619 285.299 24.4482 284.873 24.0845C284.662 23.907 284.417 23.7737 284.153 23.6926C283.889 23.6116 283.61 23.5844 283.335 23.6127V23.6127Z" fill="var(--sapContent_Illustrative_Color5)"/>
</svg>
