<svg width="128" height="128" viewBox="0 0 128 128" fill="none" xmlns="http://www.w3.org/2000/svg" id="sapIllus-Spot-NoFilterResults">
<path d="M0 48C0 43.5817 3.58172 40 8 40H120C124.418 40 128 43.5817 128 48V87C128 91.4183 124.418 95 120 95H8C3.58172 95 0 91.4183 0 87V48Z" fill="var(--sapContent_Illustrative_Color20)"/>
<path d="M100.776 76.3499L98.496 75.297L59.4641 71.7161C59.4641 71.7161 43.5306 69.6271 37.4684 69.2985C29.9477 68.8894 22.4807 68.6782 22.028 70.2641C21.5754 71.8501 26.5679 74.2273 39.269 79.0992C48.8082 82.7606 52.1614 83.3844 55.407 82.07L74.6631 76.3934L100.779 76.3499H100.776Z" fill="var(--sapContent_Illustrative_Color21)"/>
<path d="M81.9424 69.7323L100.776 76.3544C100.776 76.3544 101.567 76.7835 101.846 74.9964C102.057 73.6519 102.211 71.8849 101.182 69.3433L84.0514 63.4019L81.9424 64.7464V69.7323Z" fill="var(--sapContent_Illustrative_Color3)"/>
<path d="M100.776 76.3517C100.776 76.3517 101.567 76.7809 101.846 74.9937C101.906 74.6014 81.9424 68.0464 81.9424 68.0464V69.7296L100.776 76.3517Z" fill="var(--sapContent_Illustrative_Color16)"/>
<path d="M101.577 70.4698C101.47 70.1111 101.343 69.7355 101.182 69.3399L84.0515 63.3984L83.8604 63.5225L84.2895 64.914L101.577 70.4698Z" fill="var(--sapContent_Illustrative_Color31)"/>
<path d="M68.8995 35.9399L69.3589 36.406C69.721 36.7748 70.0295 37.194 70.2742 37.65L84.0516 63.4007C84.0516 63.4007 85.3425 66.2139 81.9426 69.7311L55.4575 82.0097C54.7399 82.3417 53.952 82.5026 53.1573 82.4724H53.1372L68.8995 35.9399Z" fill="var(--sapContent_Illustrative_Color3)"/>
<path d="M47.8328 81.1161C48.7649 81.4346 49.8278 81.2435 50.9644 80.6232C47.7188 77.7664 48.0004 67.3957 51.8563 56.0526C55.615 44.9912 61.5028 36.7362 65.7946 36.0656C65.2883 35.0932 64.6244 34.4293 63.7962 34.1477C63.5816 34.0739 63.357 34.0337 63.1256 34.0136C63.0452 34.0102 62.968 34.0002 62.8876 34.0002C58.5421 33.9566 52.1145 42.8788 48.0038 54.9763C44.7212 64.6396 43.8427 73.5953 45.3918 78.142C45.6902 78.8595 46.0322 79.51 46.4111 80.0867C46.8168 80.5796 47.2896 80.9283 47.8328 81.1127V81.1161Z" fill="var(--sapContent_Illustrative_Color3)"/>
<path d="M51.8531 56.0525C47.9971 67.3956 47.7155 77.7663 50.9612 80.6231C55.0786 78.3766 60.1651 70.4502 63.622 60.2873C67.1828 49.8093 67.9171 40.1628 65.7913 36.0688C61.4995 36.7394 55.6117 44.9944 51.8531 56.0559V56.0525Z" fill="var(--sapContent_Illustrative_Color28)"/>
<path d="M62.9545 62.165C63.1825 61.548 63.4038 60.921 63.6217 60.2873C67.1826 49.8093 67.9169 40.1628 65.7911 36.0688C63.8464 36.374 60.7013 38.6473 57.697 43.5493C57.697 43.5493 65.0601 44.8234 62.9545 62.1683V62.165Z" fill="var(--sapContent_Illustrative_Color29)"/>
<path d="M68.9164 55.0015L59.4643 73.2731L53.1372 82.4669H53.1573C53.9486 82.4971 54.7366 82.3395 55.4575 82.0075L81.9529 69.7306L67.3106 70.0117C70.5231 61.8127 71.7213 50.2715 71.7213 50.2715L68.9164 55.0015Z" fill="var(--sapContent_Illustrative_Color16)"/>
<path d="M84.0513 63.3988L80.3631 56.5051L71.2732 43.5459C71.2732 43.5459 71.4094 48.2745 70.7803 51.9518L84.286 64.9144C84.3095 63.9688 84.048 63.3988 84.048 63.3988H84.0513Z" fill="var(--sapContent_Illustrative_Color31)"/>
<path d="M65.791 36.0656C65.2847 35.0932 64.6208 34.4293 63.7926 34.1477C63.578 34.0739 63.3534 34.0337 63.122 34.0136C63.0416 34.0102 62.9644 34.0001 62.884 34.0001C60.101 33.9733 56.4697 37.6214 53.1335 43.422C53.1369 43.422 55.8662 42.5737 57.6936 43.546C60.4564 39.2207 63.3735 36.4445 65.7876 36.0656H65.791Z" fill="var(--sapContent_Illustrative_Color15)"/>
<path d="M69.4124 36.5174C68.5675 35.1326 65.9086 34.7436 64.5774 34.291C64.1013 34.13 63.6151 34.0429 63.1223 34.0127C63.3503 34.0328 63.5749 34.073 63.7928 34.1468C64.621 34.4285 65.2883 35.0924 65.7912 36.0647C67.9136 40.1587 67.1827 49.8052 63.6218 60.2832C60.1683 70.446 55.0785 78.3724 50.961 80.6189C49.8244 81.2392 48.7615 81.4304 47.8294 81.1118C47.2862 80.9274 46.8101 80.5787 46.4077 80.0858C46.4211 80.1059 46.4345 80.1294 46.448 80.1495C47.4471 81.6516 51.3936 82.7615 53.1371 82.4698C58.7533 81.5309 64.6546 72.555 68.2858 61.8691C71.8534 51.371 72.3764 41.3758 69.4124 36.5174Z" fill="var(--sapContent_Illustrative_Color31)"/>
<path d="M66.806 34.9323C66.2585 34.7389 65.8718 34.6393 64.5775 34.291C64.1014 34.13 63.6152 34.0429 63.1223 34.0127C63.3503 34.0328 63.575 34.073 63.7929 34.1468C64.6211 34.4285 65.2883 35.0924 65.7913 36.0647C67.9155 40.1716 65.9076 52.8532 64.6759 56.9144C67.3288 51.2213 69.192 40.4178 66.806 34.9323Z" fill="var(--sapContent_Illustrative_Color31)"/>
</svg>