<svg width="45" height="45" viewBox="0 0 45 45" fill="none" xmlns="http://www.w3.org/2000/svg" id="sapIllus-Dot-GroupingColumns">
<path d="M40.722 35.6867L30.8353 31.9509C30.8033 31.9388 30.7713 31.9328 30.7393 31.9419L0.911303 34.5372C-0.13775 34.591 -0.117776 34.993 0.167806 35.1621L7.07293 39.7768C7.65148 40.0183 8.26695 40.0756 8.86766 39.9428L39.8849 36.227C40.754 36.0851 41.1222 35.8877 40.722 35.6867Z" fill="var(--sapContent_Illustrative_Color21)"/>
<path d="M2.79734 9.11979L10.6735 34.8518C10.8268 35.411 11.3718 35.7715 11.9453 35.6977L42.2991 31.5807C43.6986 31.1322 44.2493 29.6901 44.008 28.9918L25.3033 6.33304C25.1301 5.8391 24.6504 5.52116 24.1309 5.55523L3.92591 5.83146C3.18782 5.87688 2.18194 6.97039 2.79734 9.11979Z" fill="var(--sapContent_Illustrative_Color22)"/>
<path d="M3.12233 7.29082L11.413 33.7492C11.5663 34.3085 12.1114 34.669 12.6848 34.5952L43.0743 30.5191C43.8067 30.4254 44.2694 29.6788 44.0253 28.9805L35.0916 4.7803C34.9185 4.28637 34.4387 3.96843 33.9192 4.00249L4.17268 5.81752C3.43459 5.86294 2.92645 6.5783 3.12233 7.29082Z" fill="var(--sapContent_Illustrative_Color2)"/>
<path d="M35.0919 4.7803C34.9187 4.28637 34.4389 3.96843 33.9194 4.00249L4.12287 5.77699C3.38479 5.82241 2.87665 6.53493 3.07252 7.24745L4.56098 11.8926L36.6807 8.98217L35.089 4.77747L35.0919 4.7803Z" fill="var(--sapContent_Illustrative_Color14)"/>
<path d="M18.8948 16.2412L10.873 16.9557C10.7484 16.9684 10.6207 16.8922 10.5888 16.7906L10.1481 15.3902C10.1161 15.2886 10.1896 15.1965 10.3173 15.187L18.3264 14.5043C18.4477 14.4947 18.5722 14.5678 18.6042 14.6662L19.0576 16.038C19.0896 16.1396 19.0193 16.2285 18.898 16.2412H18.8948Z" fill="var(--sapContent_Illustrative_Color8)"/>
<path d="M21.6599 20.2745L12.2107 21.2049C12.0861 21.2176 11.9552 21.1414 11.9233 21.0366L11.4762 19.6172C11.4443 19.5124 11.5177 19.4203 11.6454 19.4076L21.0787 18.5185C21.2001 18.5058 21.3246 18.5789 21.3566 18.6805L21.8164 20.0681C21.8515 20.1697 21.7813 20.2618 21.6599 20.2745Z" fill="var(--sapContent_Illustrative_Color8)"/>
<path d="M23.0584 24.483L13.5708 25.5055C13.4431 25.5182 13.3154 25.4452 13.2802 25.3372L12.8268 23.8956C12.7948 23.7908 12.8683 23.6955 12.996 23.6797L22.4676 22.6953C22.589 22.6826 22.7135 22.7556 22.7487 22.8604L23.2149 24.2671C23.25 24.3719 23.1798 24.464 23.0584 24.4767V24.483Z" fill="var(--sapContent_Illustrative_Color8)"/>
<path d="M22.1294 29.0355L14.9475 29.8802C14.8197 29.8961 14.6888 29.8199 14.6569 29.7119L14.197 28.2512C14.1619 28.1433 14.2385 28.0448 14.3663 28.0321L21.5354 27.2192C21.6568 27.2065 21.7845 27.2795 21.8196 27.3843L22.2923 28.8196C22.3274 28.9244 22.2539 29.0228 22.1326 29.0355H22.1294Z" fill="var(--sapContent_Illustrative_Color8)"/>
<path d="M34.8586 14.8259L26.0417 15.6103C25.9235 15.6198 25.8022 15.5499 25.767 15.4483L25.304 14.0956C25.2689 13.9971 25.3391 13.9082 25.4541 13.8987L34.2583 13.1493C34.3701 13.1398 34.4914 13.2096 34.5233 13.3081L34.996 14.629C35.0311 14.7275 34.9672 14.8132 34.8554 14.8227L34.8586 14.8259Z" fill="var(--sapContent_Illustrative_Color8)"/>
<path d="M33.6712 19.0923L27.4409 19.7052C27.3227 19.7179 27.1982 19.6448 27.1663 19.5432L26.6968 18.1714C26.6617 18.0698 26.7288 17.9809 26.8469 17.9682L33.0677 17.3808C33.1826 17.3712 33.304 17.4411 33.3391 17.5395L33.8149 18.8891C33.85 18.9875 33.7862 19.0764 33.6712 19.0891V19.0923Z" fill="var(--sapContent_Illustrative_Color8)"/>
<path d="M35.1143 23.1859L28.8616 23.8591C28.7435 23.8718 28.6189 23.7988 28.5838 23.6971L28.108 22.3063C28.0728 22.2047 28.1399 22.1126 28.2581 22.0999L34.5011 21.4521C34.6161 21.4394 34.7375 21.5125 34.7726 21.6109L35.2548 22.9795C35.2899 23.0811 35.226 23.1732 35.1111 23.1827L35.1143 23.1859Z" fill="var(--sapContent_Illustrative_Color8)"/>
<path d="M39.2175 27.0256L30.3016 28.0734C30.1834 28.0861 30.0589 28.0131 30.0238 27.9115L29.5416 26.5016C29.5064 26.4 29.5735 26.3047 29.6917 26.292L38.5916 25.2823C38.7066 25.2695 38.828 25.3394 38.8631 25.441L39.3549 26.8192C39.39 26.9208 39.3293 27.0129 39.2143 27.0256H39.2175Z" fill="var(--sapContent_Illustrative_Color8)"/>
<path d="M43.0887 22.421L14.4596 25.8616C13.8436 25.924 13.2048 25.5039 13.0345 24.9219L8.48961 10.5097C8.32497 9.94765 8.60033 8.82067 9.82384 8.62764L38.2571 7.49215C38.7595 7.45241 39.3273 7.82712 39.526 8.33241L44.9679 20.7689C44.6046 21.6602 44.1163 22.2876 43.0887 22.4239V22.421Z" fill="var(--sapContent_Illustrative_Color11)"/>
<path d="M44.3749 21.2349L14.9964 24.6754C14.3804 24.7379 13.7417 24.3178 13.5713 23.7358L9.1258 9.72101C8.96115 9.15895 9.32167 8.66501 9.92917 8.61391L38.7967 6.30318C39.2992 6.26344 39.8669 6.63815 40.0657 7.14345L44.9285 20.1988C45.1329 20.7183 44.8887 21.1838 44.3806 21.2349H44.3749Z" fill="var(--sapContent_Illustrative_Color25)"/>
<path fill-rule="evenodd" clip-rule="evenodd" d="M44.8987 20.9326C44.8784 20.9651 44.8552 20.9955 44.8293 21.0236C44.773 21.0847 44.7038 21.1349 44.623 21.1715C44.5519 21.2038 44.4718 21.2254 44.3837 21.2346C44.3827 21.2347 44.3817 21.2348 44.3806 21.2349H44.3749L42.3134 21.4763C42.2492 20.9278 42.6418 20.431 43.1903 20.3668L43.8933 20.2845L43.6967 19.7566C43.5039 19.239 43.7672 18.6632 44.2847 18.4704L44.9285 20.1988C44.9316 20.2066 44.9345 20.2144 44.9374 20.2222C44.9649 20.2969 44.9832 20.3703 44.9928 20.4414C44.9931 20.4438 44.9934 20.4461 44.9937 20.4484C45.0098 20.5762 44.9978 20.6964 44.9607 20.8026C44.9447 20.8488 44.9239 20.8923 44.8987 20.9326ZM42.6638 14.1187C42.1462 14.3114 41.8829 14.8873 42.0757 15.4048L42.6652 16.9873C42.8579 17.5048 43.4338 17.7681 43.9513 17.5753L42.6638 14.1187ZM41.0428 9.76688C40.5253 9.95966 40.262 10.5355 40.4548 11.053L41.0442 12.6355C41.237 13.153 41.8128 13.4163 42.3304 13.2236L41.0428 9.76688ZM30.9767 6.92915C31.0207 7.47967 31.5028 7.89023 32.0533 7.84617L34.1527 7.67811C34.7033 7.63405 35.1138 7.15204 35.0698 6.60151L30.9767 6.92915ZM25.2032 7.39129C25.2472 7.94181 25.7292 8.35238 26.2798 8.30831L28.3792 8.14026C28.9297 8.09619 29.3403 7.61418 29.2962 7.06366L25.2032 7.39129ZM19.4297 7.85344C19.4737 8.40396 19.9557 8.81452 20.5063 8.77046L22.6057 8.6024C23.1562 8.55834 23.5668 8.07633 23.5227 7.5258L19.4297 7.85344ZM13.6561 8.31558C13.7002 8.8661 14.1822 9.27667 14.7327 9.2326L16.8322 9.06455C17.3827 9.02048 17.7933 8.53847 17.7492 7.98795L13.6561 8.31558ZM11.1794 16.1952C11.7059 16.0282 11.9972 15.4661 11.8303 14.9396L11.2914 13.2409C11.1244 12.7144 10.5623 12.4231 10.0359 12.59L11.1794 16.1952ZM12.6613 20.8668C13.1877 20.6998 13.4791 20.1377 13.3121 19.6112L12.7733 17.9125C12.6063 17.386 12.0441 17.0947 11.5177 17.2616L12.6613 20.8668ZM22.9336 23.7459C22.8694 23.1974 22.3726 22.8048 21.8241 22.869L19.6875 23.1192C19.1389 23.1835 18.7463 23.6802 18.8106 24.2288L22.9336 23.7459ZM28.8093 23.0578C28.7451 22.5093 28.2483 22.1167 27.6998 22.1809L25.5632 22.4311C25.0146 22.4954 24.622 22.9921 24.6863 23.5407L28.8093 23.0578ZM34.685 22.3697C34.6208 21.8212 34.124 21.4286 33.5755 21.4928L31.4389 21.743C30.8904 21.8073 30.4977 22.304 30.562 22.8525L34.685 22.3697ZM40.5607 21.6816C40.4965 21.133 39.9997 20.7404 39.4512 20.8047L37.3146 21.0549C36.7661 21.1191 36.3735 21.6159 36.4377 22.1644L40.5607 21.6816ZM17.0579 24.434C16.9937 23.8855 16.4969 23.4929 15.9484 23.5571L14.8908 23.681C14.738 23.6933 14.5609 23.5569 14.5311 23.4549L14.5279 23.4442L14.2551 22.5841C14.0881 22.0576 13.526 21.7663 12.9995 21.9332L13.5713 23.7358C13.7417 24.3178 14.3804 24.7379 14.9964 24.6754L17.0579 24.434ZM9.69758 11.5236C10.224 11.3566 10.5154 10.7945 10.3484 10.268L10.1367 9.6005L11.0587 9.52669C11.6092 9.48263 12.0198 9.00062 11.9757 8.45009L9.92917 8.61391C9.32167 8.66501 8.96115 9.15895 9.1258 9.72101L9.69758 11.5236ZM9.9891 9.6144C9.98892 9.61446 9.9891 9.6144 9.9891 9.6144V9.6144ZM36.7502 6.467C36.7943 7.01752 37.2763 7.42809 37.8268 7.38402L38.8734 7.30025C38.8727 7.30031 38.8724 7.30035 38.8724 7.30042C38.8723 7.30115 38.9191 7.30384 38.9934 7.35296C39.0725 7.40533 39.1173 7.46826 39.1333 7.50514L39.4233 8.28373C39.616 8.80128 40.1919 9.06456 40.7094 8.87178L40.0657 7.14345C39.8669 6.63815 39.2992 6.26344 38.7967 6.30318L36.7502 6.467Z" fill="var(--sapContent_Illustrative_Color1)"/>
<path d="M21.5969 12.5487L14.1707 13.2348C14.0605 13.2455 13.9467 13.1744 13.9183 13.0784L13.5024 11.7738C13.4704 11.6778 13.5344 11.5925 13.6446 11.5818L21.0565 10.9171C21.1632 10.9064 21.2734 10.9775 21.3054 11.0699L21.7319 12.3568C21.7639 12.4528 21.7035 12.5345 21.5969 12.5452V12.5487Z" fill="var(--sapContent_Illustrative_Color14)"/>
<path d="M24.1137 16.3242L15.4327 17.1916C15.3225 17.2023 15.2087 17.1312 15.1767 17.0352L14.7573 15.7128C14.7253 15.6168 14.7893 15.528 14.8995 15.5173L23.5663 14.6784C23.6729 14.6677 23.7831 14.7352 23.8151 14.8312L24.2488 16.1323C24.2808 16.2283 24.2204 16.3136 24.1137 16.3242Z" fill="var(--sapContent_Illustrative_Color14)"/>
<path d="M25.4256 20.2674L16.7054 21.2024C16.5952 21.213 16.4815 21.1455 16.4495 21.0459L16.0229 19.7058C15.9909 19.6062 16.0549 19.5174 16.1651 19.5067L24.871 18.6002C24.9777 18.5896 25.0914 18.6571 25.1234 18.7531L25.5642 20.0719C25.5962 20.1679 25.5358 20.2568 25.4291 20.2674H25.4256Z" fill="var(--sapContent_Illustrative_Color14)"/>
<path d="M37.8806 10.9498L29.7399 11.7034C29.6368 11.7141 29.5266 11.6465 29.4946 11.5541L29.0538 10.2921C29.0218 10.1997 29.0787 10.118 29.1818 10.1073L37.3083 9.37855C37.4078 9.36789 37.5145 9.43543 37.5465 9.52785L37.9979 10.7685C38.0299 10.8609 37.9766 10.9427 37.8771 10.9498H37.8806Z" fill="var(--sapContent_Illustrative_Color14)"/>
<path d="M36.9356 14.9437L31.0736 15.5267C30.9705 15.5373 30.8603 15.4698 30.8283 15.3738L30.3839 14.0941C30.3519 14.0017 30.4088 13.9163 30.5119 13.9057L36.3632 13.3405C36.4628 13.3298 36.573 13.3973 36.605 13.4898L37.06 14.7517C37.092 14.8442 37.0387 14.9295 36.9391 14.9366L36.9356 14.9437Z" fill="var(--sapContent_Illustrative_Color14)"/>
<path d="M38.308 18.778L32.4211 19.4072C32.318 19.4179 32.2078 19.3503 32.1723 19.2544L31.7208 17.9568C31.6888 17.8609 31.7457 17.7755 31.8488 17.7649L37.725 17.1535C37.8246 17.1428 37.9348 17.2103 37.9703 17.3028L38.4289 18.5825C38.4644 18.6749 38.4076 18.7602 38.308 18.7745V18.778Z" fill="var(--sapContent_Illustrative_Color14)"/>
</svg>