<svg width="160" height="121" viewBox="0 0 160 121" fill="none" xmlns="http://www.w3.org/2000/svg" id="sapIllus-Dialog-UnableToLoadImage">
<mask id="mask0_650_7911" class="sapIllus_MaskTypeAlpha" maskUnits="userSpaceOnUse" x="21" y="0" width="122" height="121">
<circle cx="82.1373" cy="60.1526" r="60.1526" fill="var(--sapContent_Illustrative_Color7)"/>
</mask>
<g mask="url(#mask0_650_7911)">
<circle cx="82.1373" cy="60.1526" r="60.1526" fill="var(--sapContent_Illustrative_Color7)"/>
<path d="M168.883 3.7595e-06H-8.88339C-10.0421 -0.00106616 -11.1897 0.226241 -12.2605 0.668923C-13.3313 1.11161 -14.3044 1.76099 -15.1241 2.57995C-15.9439 3.39891 -16.5941 4.37139 -17.0378 5.44181C-17.4815 6.51223 -17.7098 7.65959 -17.7098 8.81831V113.311C-17.7098 115.652 -16.7799 117.897 -15.1246 119.552C-13.4694 121.207 -11.2243 122.137 -8.88339 122.137H168.883C171.224 122.137 173.469 121.207 175.125 119.552C176.78 117.897 177.71 115.652 177.71 113.311V8.81831C177.71 7.65959 177.481 6.51223 177.038 5.44181C176.594 4.37139 175.944 3.39891 175.124 2.57995C174.304 1.76099 173.331 1.11161 172.26 0.668923C171.19 0.226241 170.042 -0.00106616 168.883 3.7595e-06V3.7595e-06Z" fill="var(--sapContent_Illustrative_Color7)"/>
<path fill-rule="evenodd" clip-rule="evenodd" d="M57.7098 17.0994C59.5648 17.0994 61.0686 15.5956 61.0686 13.7406C61.0686 11.8856 59.5648 10.3818 57.7098 10.3818C55.8548 10.3818 54.3511 11.8856 54.3511 13.7406C54.3511 15.5956 55.8548 17.0994 57.7098 17.0994ZM57.7099 16.2037C59.0702 16.2037 60.173 15.1009 60.173 13.7406C60.173 12.3802 59.0702 11.2775 57.7099 11.2775C56.3495 11.2775 55.2467 12.3802 55.2467 13.7406C55.2467 15.1009 56.3495 16.2037 57.7099 16.2037Z" fill="var(--sapContent_Illustrative_Color18)"/>
<path fill-rule="evenodd" clip-rule="evenodd" d="M141.985 113.588C142.828 113.588 143.511 112.904 143.511 112.061C143.511 111.218 142.828 110.534 141.985 110.534C141.141 110.534 140.458 111.218 140.458 112.061C140.458 112.904 141.141 113.588 141.985 113.588ZM141.985 113.18C142.603 113.18 143.104 112.679 143.104 112.061C143.104 111.443 142.603 110.941 141.985 110.941C141.366 110.941 140.865 111.443 140.865 112.061C140.865 112.679 141.366 113.18 141.985 113.18Z" fill="var(--sapContent_Illustrative_Color18)"/>
</g>
<path d="M67.7175 69.3154C67.6851 69.2463 67.6756 69.1665 67.641 69.0929L44.9379 20.6899C44.9055 20.6208 44.8731 20.5517 44.8157 20.4888L67.7175 69.3154Z" fill="var(--sapContent_Illustrative_Color7)"/>
<path d="M41.9733 19.3107L42.0783 19.2615C41.8923 19.3013 41.7113 19.3616 41.5388 19.4415L6.60909 35.825C6.00818 36.1142 5.54557 36.6295 5.3206 37.2603C5.09563 37.8911 5.12624 38.5871 5.40588 39.1987L28.1155 87.6154C28.408 88.2206 28.9236 88.6882 29.5521 88.9184C30.1806 89.1485 30.8721 89.123 31.4788 88.8472L66.4085 72.4636C66.6531 72.3455 66.8764 72.1876 67.0695 71.9962C66.9752 72.0652 66.8748 72.1255 66.7696 72.1763L41.9733 19.3107Z" fill="var(--sapContent_Illustrative_Color7)"/>
<path d="M40.1584 16.4984L5.22872 32.882C3.84386 33.5345 2.77628 34.714 2.25982 36.1621C1.74337 37.6102 1.82016 39.2088 2.47337 40.6077L25.17 88.9968C25.828 90.3935 27.0082 91.4746 28.4518 92.0033C29.8955 92.532 31.4849 92.4651 32.8721 91.8175L67.8018 75.4339C69.1866 74.7814 70.2542 73.6019 70.7707 72.1538C71.2871 70.7058 71.2103 69.1072 70.5571 67.7082L47.854 19.3053C47.1935 17.9127 46.0134 16.8359 44.5716 16.31C43.1297 15.7841 41.5432 15.8518 40.1584 16.4984V16.4984ZM67.6345 69.0791C67.6691 69.1527 67.7015 69.2218 67.711 69.3016L67.7694 69.426C67.9725 69.8712 68.014 70.3731 67.8865 70.8438C67.7589 71.3145 67.4705 71.724 67.0717 72.0007C66.8785 72.192 66.6552 72.3499 66.4106 72.468L31.481 88.8516C30.8742 89.1274 30.1827 89.153 29.5542 88.9228C28.9257 88.6927 28.4101 88.225 28.1176 87.6199L5.41448 39.2169C5.13485 38.6053 5.10423 37.9093 5.3292 37.2785C5.55417 36.6477 6.01678 36.1324 6.61769 35.8433L41.5474 19.4597C41.7199 19.3798 41.9009 19.3195 42.0869 19.2797C42.5773 19.0826 43.1254 19.0818 43.6189 19.2774C44.1125 19.473 44.5143 19.8504 44.7422 20.3322L44.82 20.498C44.8546 20.5717 44.9098 20.6301 44.9422 20.6992L67.6345 69.0791Z" fill="var(--sapContent_Illustrative_Color18)"/>
<path d="M42.0783 19.2613L41.9733 19.3105L66.7868 72.213C66.8921 72.1622 66.9925 72.102 67.0868 72.0329C67.4452 71.6934 67.6959 71.2549 67.808 70.7719C67.9201 70.2889 67.8887 69.7825 67.7176 69.3154L44.82 20.498C44.5524 20.0254 44.1418 19.6504 43.6484 19.4278C43.1551 19.2053 42.6048 19.1469 42.0783 19.2613V19.2613Z" fill="var(--sapContent_Illustrative_Color7)"/>
<path d="M44.8156 20.4889L44.7378 20.3231C44.5099 19.8412 44.1081 19.4639 43.6145 19.2683C43.121 19.0726 42.573 19.0734 42.0825 19.2705C42.6058 19.1565 43.1528 19.213 43.6441 19.4321C44.1355 19.6511 44.5458 20.0212 44.8156 20.4889V20.4889Z" fill="var(--sapContent_Illustrative_Color8)"/>
<path opacity="0.2" d="M44.8156 20.4889L44.7378 20.3231C44.5099 19.8412 44.1081 19.4639 43.6145 19.2683C43.121 19.0726 42.573 19.0734 42.0825 19.2705C42.6058 19.1565 43.1528 19.213 43.6441 19.4321C44.1355 19.6511 44.5458 20.0212 44.8156 20.4889V20.4889Z" fill="var(--sapContent_Illustrative_Color20)"/>
<path d="M67.0868 72.0329C67.4856 71.7563 67.774 71.3467 67.9016 70.876C68.0291 70.4053 67.9877 69.9035 67.7845 69.4582L67.7262 69.3339C67.8924 69.7993 67.9204 70.3024 67.8068 70.7817C67.6933 71.261 67.4431 71.6959 67.0868 72.0329V72.0329Z" fill="var(--sapContent_Illustrative_Color8)"/>
<path opacity="0.2" d="M67.0868 72.0329C67.4856 71.7563 67.774 71.3467 67.9016 70.876C68.0291 70.4053 67.9877 69.9035 67.7845 69.4582L67.7262 69.3339C67.8924 69.7993 67.9204 70.3024 67.8068 70.7817C67.6933 71.261 67.4431 71.6959 67.0868 72.0329V72.0329Z" fill="var(--sapContent_Illustrative_Color20)"/>
<path d="M47.8678 55.1345C50.811 53.754 52.108 50.3131 50.7646 47.4492C49.4213 44.5852 45.9464 43.3826 43.0031 44.7631C40.0599 46.1436 38.7629 49.5844 40.1063 52.4484C41.4496 55.3124 44.9246 56.515 47.8678 55.1345Z" fill="var(--sapContent_Illustrative_Color18)"/>
<path d="M43.2245 76.5448C44.0278 75.0343 44.9121 73.5691 45.8736 72.1558L44.2972 71.4793C33.561 66.8342 29.9495 64.5389 23.3709 64.6242C21.4157 64.5996 19.4628 64.7339 17.5312 65.0259L28.0209 87.3898C28.1832 87.7358 28.4114 88.0466 28.6926 88.3047C28.9738 88.5627 29.3024 88.7629 29.6597 88.8937C30.017 89.0246 30.3959 89.0835 30.7749 89.0673C31.154 89.051 31.5256 88.9598 31.8686 88.7989L40.1387 84.9199C40.729 81.9816 41.77 79.1563 43.2245 76.5448V76.5448Z" fill="var(--sapContent_Illustrative_Color19)"/>
<path d="M50.3887 68.7403C48.539 69.0966 47.1576 70.3681 45.8666 72.1648C44.9051 73.5781 44.0208 75.0433 43.2175 76.5538C41.763 79.1653 40.722 81.9907 40.1317 84.9289L62.9234 74.2386C56.3457 72.0929 54.3081 67.9863 50.3887 68.7403Z" fill="var(--sapContent_Illustrative_Color20)"/>
<path d="M137.937 88.9933C137.975 88.922 138.009 88.8485 138.037 88.773L155.039 37.7028C155.061 37.6268 155.078 37.5494 155.089 37.4712L137.937 88.9933Z" fill="var(--sapContent_Illustrative_Color7)"/>
<path d="M153.815 34.6339C153.853 34.6436 153.89 34.656 153.927 34.6711C153.764 34.5668 153.589 34.4831 153.405 34.4218L116.232 22.0468C115.588 21.8322 114.885 21.8825 114.277 22.1864C113.67 22.4903 113.208 23.0231 112.994 23.6674L95.9807 74.7716C95.8705 75.0917 95.825 75.4304 95.8466 75.7681C95.8682 76.1059 95.9566 76.436 96.1065 76.7394C96.2565 77.0428 96.4652 77.3135 96.7204 77.5358C96.9757 77.7581 97.2725 77.9276 97.5936 78.0345L134.766 90.4096C135.029 90.4942 135.304 90.5346 135.579 90.5291C135.462 90.5138 135.346 90.4878 135.233 90.4515L153.815 34.6339Z" fill="var(--sapContent_Illustrative_Color7)"/>
<path d="M154.435 31.3267L117.263 18.9516C115.788 18.462 114.179 18.5772 112.789 19.272C111.399 19.9669 110.341 21.1845 109.848 22.6581L92.8461 73.7283C92.3561 75.2044 92.4715 76.8146 93.1671 78.2057C93.8627 79.5969 95.0817 80.6555 96.5567 81.1494L133.729 93.5245C135.206 94.0132 136.816 93.8965 138.207 93.1998C139.598 92.5032 140.655 91.2835 141.148 89.8083L158.149 38.738C158.638 37.2628 158.521 35.6542 157.825 34.2648C157.128 32.8755 155.91 31.8188 154.435 31.3267V31.3267ZM138.037 88.7728C138.009 88.8483 137.975 88.9219 137.937 88.9931L137.895 89.1195C137.734 89.5853 137.415 89.9799 136.993 90.234C136.571 90.4882 136.073 90.5858 135.586 90.5098C135.31 90.5153 135.035 90.4749 134.773 90.3903L97.6001 78.0152C97.2789 77.9083 96.9821 77.7388 96.7269 77.5166C96.4716 77.2943 96.263 77.0236 96.113 76.7202C95.963 76.4167 95.8746 76.0866 95.853 75.7488C95.8314 75.4111 95.877 75.0724 95.9871 74.7524L112.982 23.7016C113.197 23.0572 113.659 22.5245 114.266 22.2205C114.873 21.9166 115.577 21.8664 116.221 22.0809L153.394 34.456C153.577 34.5172 153.752 34.601 153.915 34.7052C154.415 34.9006 154.821 35.2803 155.049 35.7659C155.277 36.2516 155.31 36.8063 155.141 37.3155L155.081 37.4953C155.07 37.5736 155.053 37.6509 155.031 37.7269L138.037 88.7728Z" fill="var(--sapContent_Illustrative_Color18)"/>
<path d="M153.922 34.6857C153.885 34.6706 153.848 34.6582 153.81 34.6485L135.228 90.4662C135.341 90.5024 135.457 90.5284 135.574 90.5438C136.075 90.5459 136.564 90.4015 136.983 90.1286C137.402 89.8556 137.732 89.4659 137.932 89.0076L155.079 37.5001C155.213 36.9689 155.172 36.4089 154.964 35.9023C154.756 35.3958 154.39 34.9694 153.922 34.6857V34.6857Z" fill="var(--sapContent_Illustrative_Color7)"/>
<path d="M155.088 37.4761L155.147 37.2964C155.316 36.7871 155.283 36.2325 155.055 35.7468C154.827 35.2611 154.422 34.8814 153.922 34.686C154.387 34.9672 154.751 35.3891 154.961 35.8907C155.17 36.3923 155.215 36.9476 155.088 37.4761V37.4761Z" fill="var(--sapContent_Illustrative_Color8)"/>
<path opacity="0.2" d="M155.088 37.4761L155.147 37.2964C155.316 36.7871 155.283 36.2325 155.055 35.7468C154.827 35.2611 154.422 34.8814 153.922 34.686C154.387 34.9672 154.751 35.3891 154.961 35.8907C155.17 36.3923 155.215 36.9476 155.088 37.4761V37.4761Z" fill="var(--sapContent_Illustrative_Color20)"/>
<path d="M135.579 90.5295C136.066 90.6055 136.564 90.5078 136.987 90.2536C137.409 89.9995 137.728 89.605 137.889 89.1391L137.931 89.0128C137.728 89.4664 137.398 89.8513 136.981 90.1206C136.563 90.3899 136.076 90.532 135.579 90.5295Z" fill="var(--sapContent_Illustrative_Color8)"/>
<path opacity="0.2" d="M135.579 90.5295C136.066 90.6055 136.564 90.5078 136.987 90.2536C137.409 89.9995 137.728 89.605 137.889 89.1391L137.931 89.0128C137.728 89.4664 137.398 89.8513 136.981 90.1206C136.563 90.3899 136.076 90.532 135.579 90.5295Z" fill="var(--sapContent_Illustrative_Color20)"/>
<path opacity="0.5" d="M132.689 65.2393L114.076 59.0429C113.872 58.975 113.652 59.0852 113.584 59.2892L109.988 70.0912C109.92 70.2951 110.03 70.5155 110.234 70.5835L128.847 76.7799C129.051 76.8478 129.271 76.7375 129.339 76.5335L132.935 65.7316C133.003 65.5276 132.893 65.3072 132.689 65.2393Z" fill="var(--sapContent_Illustrative_Color19)"/>
<path opacity="0.5" d="M132.867 65.207L113.953 58.9102C113.84 58.8727 113.718 58.9337 113.681 59.0464L113.362 60.0036C113.324 60.1164 113.385 60.2382 113.498 60.2757L132.412 66.5724C132.525 66.61 132.647 66.549 132.685 66.4363L133.003 65.479C133.041 65.3663 132.98 65.2445 132.867 65.207Z" fill="var(--sapContent_Illustrative_Color19)"/>
<path opacity="0.5" d="M135.678 59.8597L115.053 52.9935C114.833 52.9202 114.595 53.0392 114.522 53.2593L112.882 58.1865C112.809 58.4066 112.928 58.6444 113.148 58.7176L133.773 65.5839C133.993 65.6571 134.231 65.5381 134.304 65.3181L135.944 60.3908C136.017 60.1708 135.898 59.933 135.678 59.8597Z" fill="var(--sapContent_Illustrative_Color19)"/>
<path opacity="0.5" d="M128.776 49.5898C128.94 48.8188 129.076 48.0705 129.167 47.3611C130.318 47.4111 131.456 47.0968 132.419 46.4628C134.321 45.3042 135.339 43.4948 134.686 42.4245C134.033 41.3542 131.957 41.4294 130.054 42.588C129.7 42.8074 129.365 43.0573 129.055 43.335C128.93 42.7719 128.644 42.2572 128.233 41.8529C127.821 41.4487 127.301 41.1723 126.736 41.0571C123.619 40.3812 122.242 43.7714 121.315 48.0667C120.773 50.5853 120.129 53.0052 120.514 54.8173L126.122 56.6843C127.413 55.1761 128.19 52.2881 128.776 49.5898Z" fill="var(--sapContent_Illustrative_Color19)"/>
<path opacity="0.5" d="M132.646 50.7591C131.256 50.3287 129.685 51.9326 128.713 54.2214C128.231 55.3617 127.671 56.3466 127.613 57.1856L131.986 58.6416C132.783 57.8825 133.373 56.9323 133.699 55.8813C134.497 53.5343 135.194 51.5534 132.646 50.7591Z" fill="var(--sapContent_Illustrative_Color19)"/>
<path d="M82.1373 87.3281C97.146 87.3281 109.313 75.1612 109.313 60.1526C109.313 45.1439 97.146 32.9771 82.1373 32.9771C67.1287 32.9771 54.9618 45.1439 54.9618 60.1526C54.9618 75.1612 67.1287 87.3281 82.1373 87.3281Z" fill="var(--sapContent_Illustrative_Color14)"/>
<path d="M84.5932 56.3022C84.5814 56.5594 84.6238 56.8163 84.7177 57.0564C84.8116 57.2965 84.955 57.5146 85.1387 57.6967C85.3223 57.8788 85.5422 58.021 85.7844 58.1141C86.0266 58.2072 86.2857 58.2492 86.5452 58.2375H95.4051C95.664 58.2494 95.9224 58.2074 96.1639 58.1141C96.4053 58.0209 96.6244 57.8785 96.807 57.6961C96.9896 57.5138 97.1318 57.2955 97.2241 57.0554C97.3164 56.8153 97.3569 56.5588 97.3431 56.3022V47.3803C97.3569 47.1237 97.3164 46.867 97.2241 46.6269C97.1318 46.3868 96.9896 46.1685 96.807 45.9862C96.6244 45.8039 96.4053 45.6615 96.1639 45.5682C95.9224 45.475 95.664 45.433 95.4051 45.4448C95.1456 45.4331 94.8865 45.4752 94.6443 45.5683C94.4021 45.6614 94.1823 45.8036 93.9986 45.9857C93.8149 46.1678 93.6716 46.3858 93.5777 46.6259C93.4837 46.866 93.4413 47.123 93.4531 47.3803V50.6058C92.0007 48.988 90.2205 47.6922 88.2286 46.8029C86.2368 45.9136 84.0782 45.4508 81.8938 45.4448C77.7938 45.4485 73.8627 47.065 70.9635 49.9395C68.0644 52.814 66.4341 56.7116 66.4304 60.7768C66.4341 64.842 68.0644 68.7397 70.9635 71.6142C73.8627 74.4887 77.7938 76.1052 81.8938 76.1088C85.4077 76.0923 88.8134 74.9021 91.5613 72.7304C94.3091 70.5588 96.2387 67.5324 97.0385 64.1397C97.0906 63.8775 97.0893 63.6077 97.0347 63.3461C96.98 63.0844 96.873 62.8362 96.7202 62.6161C96.5796 62.4092 96.3977 62.2329 96.1858 62.0984C95.9739 61.9638 95.7365 61.8737 95.4881 61.8337C95.2236 61.7821 94.9515 61.7835 94.6876 61.8377C94.4237 61.8919 94.1734 61.9979 93.9515 62.1494C93.7442 62.2872 93.5675 62.4654 93.4318 62.673C93.2962 62.8806 93.2044 63.1135 93.1623 63.3573C92.5922 65.8925 91.1625 68.1572 89.1118 69.7734C87.061 71.3896 84.5133 72.2595 81.8938 72.2381C78.8279 72.2345 75.8883 71.0262 73.7191 68.878C71.5499 66.7297 70.3277 63.8167 70.3204 60.7768C70.324 57.7346 71.5446 54.818 73.7142 52.6668C75.8838 50.5157 78.8255 49.3055 81.8938 49.3018C83.7854 49.299 85.648 49.7614 87.3151 50.6477C88.9822 51.5341 90.4014 52.8166 91.4457 54.3805H86.3929C86.1457 54.3838 85.9015 54.4368 85.6756 54.5362C85.4496 54.6357 85.2463 54.7797 85.078 54.9593C84.9098 55.139 84.7801 55.3506 84.6968 55.5814C84.6134 55.8123 84.5782 56.0575 84.5932 56.3022V56.3022Z" fill="var(--sapContent_Illustrative_Color8)"/>
<path fill-rule="evenodd" clip-rule="evenodd" d="M82.1373 91.0459C99.1991 91.0459 113.03 77.2146 113.03 60.1528C113.03 43.0911 99.1991 29.2598 82.1373 29.2598C65.0756 29.2598 51.2443 43.0911 51.2443 60.1528C51.2443 77.2146 65.0756 91.0459 82.1373 91.0459ZM82.1373 94.0459C100.856 94.0459 116.03 78.8715 116.03 60.1528C116.03 41.4342 100.856 26.2598 82.1373 26.2598C63.4187 26.2598 48.2443 41.4342 48.2443 60.1528C48.2443 78.8715 63.4187 94.0459 82.1373 94.0459Z" fill="var(--sapContent_Illustrative_Color3)"/>
</svg>
