<svg width="160" height="160" viewBox="0 0 160 160" fill="none" xmlns="http://www.w3.org/2000/svg" id="sapIllus-Dialog-Achievement">
<rect y="50" width="160" height="69" rx="11.9743" fill="var(--sapContent_Illustrative_Color20)"/>
<path d="M90.8984 50.02C90.8083 50.4049 90.7532 50.7948 90.7382 51.1797C90.6631 50.7798 90.5931 50.3949 90.518 50.02H49.92C50.0251 50.5298 50.3704 52.2394 50.4655 52.6742C50.5706 53.1841 51.0561 53.594 51.8468 53.9039C51.8869 54.1688 51.9319 54.4537 51.982 54.7786C52.1371 55.7233 52.3523 56.913 52.6476 58.2826C52.6576 58.3276 52.6676 58.3726 52.6776 58.4176C52.3823 57.9427 52.017 57.4978 51.5515 57.1229C50.6357 56.3881 49.4246 55.4934 47.1374 55.4234C44.4099 55.3385 42.5081 57.2079 42.1427 59.3473C41.5072 62.3514 42.9235 66.1453 47.8181 69.4644C53.6385 72.9683 57.8775 75.5176 58.7333 77.522C59.2437 78.7067 59.1787 79.4365 58.9535 79.7264C58.7283 80.0163 58.2128 79.9813 57.9225 79.9313C57.392 79.8413 56.8965 80.2012 56.8065 80.7261C56.7164 81.2459 57.0767 81.7508 57.6022 81.8408C58.0026 81.9058 58.3829 81.9207 58.7333 81.8708C59.4539 81.7758 60.0545 81.4459 60.4699 80.916C60.8302 80.4562 61.0154 79.8813 61.0404 79.2215C61.0755 79.2665 61.1105 79.3115 61.1455 79.3565C61.1906 79.4115 61.2356 79.4715 61.2806 79.5314C61.3407 79.6064 61.4008 79.6864 61.4658 79.7614C61.5159 79.8214 61.5659 79.8813 61.616 79.9413C61.681 80.0163 61.7461 80.0913 61.8111 80.1713C61.8662 80.2312 61.9212 80.2962 61.9763 80.3562C62.0414 80.4312 62.1114 80.5062 62.1815 80.5811C62.2415 80.6461 62.2966 80.7061 62.3567 80.7711C62.4267 80.8461 62.4968 80.916 62.5669 80.991C62.6269 81.056 62.692 81.116 62.757 81.181C62.8321 81.2559 62.9022 81.3259 62.9772 81.4009C63.0423 81.4659 63.1074 81.5309 63.1774 81.5908C63.2525 81.6608 63.3276 81.7308 63.4076 81.8058C63.4777 81.8708 63.5478 81.9357 63.6178 81.9957C63.6979 82.0657 63.773 82.1357 63.8531 82.2057C63.9281 82.2706 63.9982 82.3306 64.0733 82.3956C64.1533 82.4656 64.2384 82.5306 64.3185 82.6006C64.3936 82.6605 64.4686 82.7255 64.5487 82.7855C64.6338 82.8555 64.7189 82.9205 64.8039 82.9854C64.884 83.0454 64.9591 83.1104 65.0392 83.1704C65.1292 83.2354 65.2193 83.3004 65.3094 83.3703C65.3895 83.4303 65.4696 83.4903 65.5496 83.5453C65.6447 83.6153 65.7448 83.6802 65.8449 83.7502C65.92 83.8052 66.0001 83.8552 66.0751 83.9102C66.2503 84.0251 66.4255 84.1401 66.6006 84.2501C66.6857 84.3051 66.7758 84.355 66.8659 84.41C66.961 84.47 67.0611 84.53 67.1561 84.585C67.2512 84.64 67.3463 84.6949 67.4414 84.7449C67.5365 84.7999 67.6316 84.8549 67.7267 84.9049C67.8268 84.9599 67.9269 85.0099 68.022 85.0598C68.117 85.1098 68.2121 85.1598 68.3072 85.2098C68.4073 85.2598 68.5124 85.3098 68.6125 85.3597C68.7076 85.4047 68.8077 85.4547 68.9028 85.4997C69.0079 85.5497 69.113 85.5947 69.2181 85.6397C69.3132 85.6847 69.4133 85.7246 69.5133 85.7646C69.6184 85.8096 69.7286 85.8546 69.8387 85.8946C69.9387 85.9346 70.0388 85.9696 70.1339 86.0096C70.214 86.0396 70.2891 86.0695 70.3692 86.0945C70.6344 87.2592 71.305 88.6138 72.6062 89.1237C70.8996 90.8332 69.4933 90.6782 68.2372 91.6479C66.981 92.6176 65.5096 96.4765 64.6888 98.416C63.8681 100.355 63.5278 105.964 61.4058 108.368C60.1546 109.788 54.5393 114.976 50.1352 119H72.4811C72.5862 118.935 72.6913 118.88 72.7864 118.83C73.6172 118.415 74.8083 118.305 75.9694 118.235C75.7392 118.42 75.4439 118.68 75.1286 118.995H98L97.99 118.94C97.4445 115.991 93.2906 114.181 88.0707 114.306C87.9456 113.906 87.8205 113.457 87.6954 112.952C88.7864 112.112 88.6763 110.078 89.1567 108.473C89.6472 106.824 90.8083 106.594 91.0185 104.959C91.1336 104.064 90.3829 102.64 90.3829 102.64C91.1486 102.07 92.0294 101.1 91.8242 99.0458C91.7191 97.9761 90.6932 96.6115 90.6932 96.6115C92.1645 96.1166 92.68 95.0469 92.4798 93.0675C92.4248 92.5027 91.9994 92.0278 91.564 91.6779H91.574C91.574 91.6779 91.2387 91.383 91.0034 91.258C90.8133 91.1581 90.543 91.0381 90.543 91.0381H90.538C90.538 91.0381 91.0385 90.4183 90.7482 89.1337C90.4529 87.849 89.5171 86.7094 88.8264 86.3695C88.1358 86.0296 86.9997 86.0096 85.5934 86.9393C85.3331 87.1092 85.0829 87.2692 84.8277 87.4291C84.9728 87.1392 85.178 86.8543 85.4633 86.5794C86.6143 85.4847 86.1789 83.1704 86.0138 82.4756C88.8815 79.6314 90.6231 76.0425 91.2887 73.4932C91.4939 73.7481 91.7391 73.9581 92.0144 74.118C92.5999 74.4529 93.2756 74.5329 93.9812 74.3479C94.3216 74.268 94.6669 74.118 95.0172 73.9031C95.4676 73.6232 95.6178 73.0233 95.3375 72.5735C95.0572 72.1236 94.4667 71.9736 94.0063 72.2535C93.756 72.4085 93.2906 72.6334 92.9753 72.4485C92.66 72.2635 92.3247 71.6137 92.3547 70.3241C92.3897 68.7946 93.8661 66.3902 96.1583 63.2162C95.823 62.1015 95.5977 60.9468 95.4526 59.7672C94.3115 61.4017 93.2055 63.1362 92.3197 64.7907C92.2746 63.0212 92.0995 61.2467 91.8993 59.2123C91.8292 58.5075 91.7491 57.8027 91.6591 57.0979C92.4448 57.018 93.2956 56.798 93.8511 56.2832C94.2915 55.8733 94.5117 55.3385 94.4867 54.7336C94.4717 54.1988 94.2865 53.6189 94.0863 52.9491C93.7811 51.9594 93.4407 50.8548 93.6709 50H90.8883L90.8984 50.02ZM49.2144 66.6066C46.1265 64.7472 45.4859 62.6363 45.8862 60.7469C46.1065 58.8924 48.4386 57.6678 50.4655 59.3473C52.71 61.1492 52.3349 59.9092 54.4142 64.9957C55.2225 67.5905 56.4237 69.6601 57.7335 72.4276C55.3914 70.3032 52.002 68.2861 49.2144 66.6066Z" fill="var(--sapContent_Illustrative_Color21)"/>
<path d="M83.0835 117.447L84.6301 122.751C84.715 123.106 84.8746 123.436 85.1041 123.721C86.1519 125.021 89.335 127.955 96.9685 126.69C105.176 125.326 107.665 121.047 108.494 119.167C108.688 118.722 108.728 118.227 108.603 117.757L107.536 111.909L83.0835 117.447Z" fill="var(--sapContent_Illustrative_Color3)"/>
<path d="M85.1141 116.986L83.0835 117.446L84.6302 122.75C84.715 123.105 84.8746 123.434 85.1041 123.719C85.7427 124.509 87.1697 125.904 89.9087 126.594L89.2003 121.535L85.1141 116.986Z" fill="var(--sapContent_Illustrative_Color29)"/>
<path d="M96.7755 121.161C103.527 119.632 108.345 115.488 107.537 111.907C106.728 108.325 100.6 106.662 93.8489 108.191C87.0975 109.721 82.2797 113.864 83.0879 117.445C83.896 121.027 90.0242 122.69 96.7755 121.161Z" fill="var(--sapContent_Illustrative_Color26)"/>
<path d="M83.8221 114.093C83.1186 115.203 82.8392 116.352 83.0887 117.447C83.5677 119.582 85.9425 121.031 89.2055 121.536L99.9572 112.973L83.8221 114.093Z" fill="var(--sapContent_Illustrative_Color16)"/>
<path d="M84.9443 83.502C84.3307 81.5075 84.8196 80.8226 84.8196 80.8226L78.6929 80.0928C78.9922 81.2675 79.7206 82.6372 81.0627 83.1071C82.7242 83.692 84.0812 86.2064 84.0812 86.2064C84.0812 86.2064 84.1361 86.3864 84.2309 86.7063L88.6513 85.5216C88.6513 85.5216 85.558 85.4966 84.9443 83.502Z" fill="var(--sapContent_Illustrative_Color16)"/>
<path d="M83.3431 118.25C83.3431 118.25 84.77 117.93 86.5162 118.24C88.2625 118.55 91.2111 117.07 92.638 115.721C94.0649 114.371 93.9801 109.327 93.9801 109.327L85.9924 111.712C85.9924 111.712 82.6296 114.236 83.0088 117.025C83.1236 117.865 83.3381 118.25 83.3381 118.25H83.3431Z" fill="var(--sapContent_Illustrative_Color29)"/>
<path d="M101.015 111.408C100.855 110.708 100.297 110.153 99.4683 109.778C98.9594 109.469 98.4056 109.319 98.4056 109.319C96.0707 107.789 93.2767 83.8091 93.2767 83.8091C93.2767 83.8091 92.1841 81.7195 93.7856 80.0649C95.0928 78.7152 94.1099 75.7358 94.1099 75.7358C86.6311 81.3996 78.6284 79.8 78.6284 79.8C78.6484 79.8949 78.6683 79.9949 78.6983 80.0899L84.825 80.8197C84.825 80.8197 84.3311 81.5046 84.9497 83.4992C85.5634 85.4937 88.6567 85.5187 88.6567 85.5187L84.2363 86.7035C85.1194 89.6278 90.2183 109.059 90.2134 111.243C89.0359 112.143 88.4073 113.223 88.6318 114.212C89.0409 116.027 92.1442 116.867 95.5668 116.092C98.9894 115.317 101.429 113.218 101.02 111.403L101.015 111.408Z" fill="var(--sapContent_Illustrative_Color26)"/>
<path d="M101.09 111.363C100.93 110.663 100.371 110.108 99.543 109.733C98.7547 109.438 98.4803 109.273 98.4803 109.273C98.0014 108.993 97.8417 108.638 97.5623 107.983C97.0634 108.488 97.1432 109.153 98.2558 110.043C101.733 112.827 95.5566 116.092 95.5566 116.092C98.9792 115.317 101.494 113.172 101.085 111.358L101.09 111.363Z" fill="var(--sapContent_Illustrative_Color27)"/>
<path d="M58.7261 47.2113C58.7261 47.2113 60.7068 61.3582 68.3802 72.6458C71.1742 76.7549 78.5682 82.3237 86.3613 80.579C94.1544 78.8344 98.1957 71.0111 99.1037 66.5971C100.281 60.8733 99.7923 57.4491 99.1037 52.4702C98.1159 45.3117 95.9106 37.7134 95.9106 37.7134L58.7261 47.2113Z" fill="var(--sapContent_Illustrative_Color26)"/>
<path d="M101.783 67.5081C101.09 67.7231 100.411 67.6681 99.8173 67.3582C98.7297 66.7883 98.116 65.4486 98.0811 63.584C98.0212 60.2397 101.499 54.476 104.427 50.2369C106.473 47.2726 106.513 43.7683 105.375 42.2037C104.417 40.599 101.793 40.444 100.641 42.8035C100.182 43.7033 100.636 44.9981 101.035 46.1328C101.264 46.7927 101.469 47.3675 101.504 47.9024C101.549 48.5073 101.354 49.0472 100.93 49.4721C99.8173 50.5918 97.3776 50.4719 96.8986 50.4369C96.3698 50.3969 95.9706 49.937 96.0106 49.4021C96.0505 48.8722 96.5095 48.4723 97.0433 48.5123C98.2208 48.6023 97.7817 48.7822 97.9164 48.5223C97.9164 48.5223 97.3327 47.5875 97.3377 47.5625C97.3177 47.2826 98.2108 47.3525 98.0412 46.8626C97.5672 45.5079 97.3477 43.6383 98.1759 42.0087C98.7047 40.9639 99.4381 39.6492 101.489 38.6494C103.933 37.4547 106.428 38.3795 107.635 40.1791C109.442 42.6536 109.711 46.6977 106.623 51.7316C102.766 57.3154 99.962 61.3795 100.002 63.559C100.022 64.8487 100.381 65.4886 100.705 65.6586C101.03 65.8285 101.484 65.5836 101.728 65.4236C102.172 65.1237 102.771 65.2486 103.065 65.6885C103.36 66.1285 103.24 66.7333 102.801 67.0283C102.462 67.2532 102.122 67.4182 101.788 67.5181L101.783 67.5081Z" fill="var(--sapContent_Illustrative_Color26)"/>
<path d="M66.948 76.4007C66.6037 76.4657 66.2246 76.4657 65.8204 76.4157C65.2966 76.3457 64.9174 75.8609 64.9872 75.336C65.0571 74.8111 65.536 74.4312 66.0649 74.5011C66.3543 74.5361 66.8732 74.5561 67.0827 74.2562C67.2922 73.9563 67.3322 73.2264 66.7734 72.0617C65.8404 70.0971 61.5197 67.7126 55.5826 64.4433C50.5734 61.319 49.0168 57.5798 49.5307 54.5555C49.8151 52.406 51.6361 50.4614 54.3502 50.4364C56.6303 50.4164 57.8726 51.2612 58.8106 51.9611C60.2774 53.0508 60.9111 54.8254 61.0907 56.2451C61.1555 56.76 61.9189 56.2951 62.0286 56.5551C62.0386 56.575 61.9388 57.6748 61.9388 57.6748C62.1783 57.8448 61.7043 57.8848 62.7171 57.2749C63.1712 57 63.7599 57.1499 64.0343 57.6098C64.3087 58.0647 64.159 58.6546 63.7 58.9295C63.2859 59.1745 61.1555 60.3742 59.6637 59.8693C59.095 59.6744 58.6809 59.2795 58.4514 58.7196C58.2468 58.2247 58.177 57.6198 58.0872 56.925C57.9375 55.7302 57.7678 54.3755 56.9546 53.7707C54.8691 52.176 52.5891 53.4857 52.4494 55.3503C52.13 57.2549 53.7266 60.3742 56.8798 62.1138C61.39 64.5983 67.0677 68.1975 68.5046 71.2169C69.3079 72.9015 69.3528 74.3762 68.6343 75.371C68.2402 75.9158 67.6565 76.2658 66.943 76.3857L66.948 76.4007Z" fill="var(--sapContent_Illustrative_Color16)"/>
<path d="M92.1887 40.4873C92.1887 40.4873 96.1252 53.1745 95.9456 61.5077C95.8658 65.1819 95.282 67.4864 93.461 69.9159C93.1317 70.3558 92.4981 70.9407 92.064 71.3256C91.9792 71.4006 91.8544 71.3056 91.8994 71.2056C92.3783 70.1559 93.2115 67.3315 92.4182 61.1728C91.5401 54.3993 87.5288 42.5519 87.5288 42.5519L92.1937 40.4923L92.1887 40.4873Z" fill="var(--sapContent_Illustrative_Color27)"/>
<path d="M73.3245 50.3702C82.2602 47.1209 87.7383 44.0815 87.7383 44.0815L65.5014 45.4762L58.7261 47.2059C58.7261 47.2059 60.7068 61.3528 68.3802 72.6403C70.9895 76.4845 77.6302 81.5984 84.8546 80.8236C74.1427 75.6047 70.0765 64.7021 68.5398 57.5536C67.7815 54.0294 68.47 52.1348 73.3245 50.3702Z" fill="var(--sapContent_Illustrative_Color15)"/>
<path d="M96.3101 34.809C95.901 33.1793 86.7408 34.0891 75.8543 36.8435C64.9679 39.5979 56.4713 43.1471 56.8804 44.7768L57.1747 45.9865L60.3529 47.0463L75.575 38.2682C75.7745 38.2182 75.9691 38.1632 76.1687 38.1132C79.0574 37.3834 82.2156 36.7735 85.1542 36.2886L94.06 38.0882L96.345 36.2337L96.4997 35.5588L96.3051 34.804L96.3101 34.809Z" fill="var(--sapContent_Illustrative_Color26)"/>
<path d="M97.0186 37.5825C96.8988 37.1176 96.3101 34.8081 96.3101 34.8081C96.7192 36.4378 92.6081 40.3219 77.6654 44.0161C62.7227 47.7103 57.2895 46.4106 56.8804 44.7809C56.8804 44.7809 57.4342 47.0554 57.5639 47.5603C58.1826 50.0198 67.5174 49.7798 78.4138 47.0254C89.3102 44.271 97.6372 40.042 97.0186 37.5825Z" fill="var(--sapContent_Illustrative_Color27)"/>
<path d="M54.5 119C54.5 119 68.6446 105.268 70.6653 102.778C72.6859 100.289 72.8056 94.6699 73.544 92.7003C74.2824 90.7307 75.5996 86.8166 76.812 85.7968C78.0243 84.777 79.4263 84.882 81.0628 83.1024C81.0628 83.1024 81.7313 83.2424 82.6643 84.1872C83.4526 84.982 83.9865 85.9868 83.9865 85.9868C83.9865 85.9868 88.342 84.4471 93.9299 80.418C95.297 79.4332 96.4245 79.4082 97.128 79.7231C97.8315 80.0381 98.8094 81.1378 99.1487 82.4075C99.4879 83.6773 99.0139 84.3171 99.0139 84.3171C99.0139 84.3171 100.86 85.052 101.03 86.2667C101.304 88.2363 100.835 89.331 99.3881 89.8809C99.3881 89.8809 100.461 91.2006 100.61 92.2654C100.895 94.3099 100.057 95.3147 99.3133 95.9146C99.3133 95.9146 100.122 97.3043 100.042 98.2041C99.897 99.8437 98.7495 100.119 98.3254 101.788C97.9014 103.458 98.1159 105.548 96.9634 106.392C93.4061 108.997 92.1837 110.241 88.5665 111.531C87.1496 112.036 84.0862 111.791 82.4847 112.676C80.8832 113.561 75.5 119 75.5 119H54.5Z" fill="var(--sapContent_Illustrative_Color15)"/>
<path d="M95.0174 36.4878C94.6482 35.0131 87.7032 35.468 78.9771 37.4426L78.9671 37.4626C78.9671 37.4626 66.8882 41.4467 68.4299 45.9208C71.174 45.5009 74.3321 44.856 77.6599 44.0162C87.6533 41.4867 95.4215 38.1175 95.0124 36.4928L95.0174 36.4878Z" fill="var(--sapContent_Illustrative_Color29)"/>
<path d="M78.9679 37.4634L78.9779 37.4434C78.0649 37.6483 77.1269 37.8733 76.1789 38.1132C66.1856 40.6427 58.4174 44.0119 58.8265 45.6366C59.1009 46.7213 62.9426 46.7613 68.4357 45.9165C66.894 41.4425 78.9729 37.4584 78.9729 37.4584L78.9679 37.4634Z" fill="var(--sapContent_Illustrative_Color16)"/>
<path d="M82.3156 83.874C82.3156 83.874 82.0512 84.5639 81.213 85.2037C80.9186 85.4287 80.3948 85.8786 80.3 86.2335L80.0405 89.6678C80.0405 89.6678 80.8588 86.6534 83.987 85.9886C83.987 85.9886 83.4182 84.7838 82.3156 83.874Z" fill="var(--sapContent_Illustrative_Color29)"/>
<path d="M99.0243 84.3181C99.0243 84.3181 98.0015 85.4729 94.0451 87.6824C90.0887 89.8919 90.2733 90.2118 90.7722 90.3468C91.2711 90.4818 92.2689 91.2066 94.7336 89.1371C96.0258 88.0573 97.1584 86.6826 97.8968 85.9877C98.9146 85.0279 100.072 84.908 100.072 84.908C100.072 84.908 99.7278 84.628 99.4883 84.5081C99.2987 84.4131 99.0193 84.3081 99.0193 84.3081L99.0243 84.3181Z" fill="var(--sapContent_Illustrative_Color29)"/>
<path d="M99.3933 89.8916C99.3933 89.8916 95.1425 93.2259 94.3991 93.8108C93.6557 94.3956 93.7006 95.9603 94.5887 95.4204C95.4767 94.8805 96.744 92.876 97.8217 91.8012C98.8993 90.7264 99.8223 90.4865 99.8223 90.4865L99.3933 89.8916Z" fill="var(--sapContent_Illustrative_Color29)"/>
<path d="M99.3084 95.8799C99.3084 95.8799 96.5344 98.8892 96.0554 99.6841C95.6762 100.314 95.0725 100.939 94.379 101.694C93.7953 102.328 94.873 103.853 95.7062 102.263C96.235 101.259 97.5921 98.5993 98.066 98.1194C98.54 97.6395 99.4032 96.5847 99.3034 95.8799H99.3084Z" fill="var(--sapContent_Illustrative_Color29)"/>
<path d="M80.6338 114.579C80.6338 114.579 80.6699 114.532 80.6853 114.512C80.6699 114.532 80.6493 114.558 80.6338 114.579Z" fill="var(--sapContent_Illustrative_Color16)"/>
<path d="M82.4201 112.788C84.0266 111.903 87.085 112.148 88.5019 111.643C91.6401 110.523 92.9772 109.439 95.5966 107.469C94.5688 107.684 93.8204 107.069 93.5161 106.499C93.062 105.64 90.5724 103.66 90.752 101.975C91.0564 99.0559 91.0364 97.7212 90.323 98.1661C88.1726 99.5058 87.0151 99.1009 86.9453 97.6762C86.7507 93.6571 85.4285 94.127 83.6374 93.0623C81.2925 91.6676 81.2276 88.0633 81.3474 87.4835C81.3973 87.2385 80.7387 88.0933 80.5192 88.4083C78.7879 90.8927 76.5527 102.54 77.0517 106.489C77.376 109.059 76.912 112.428 76.2933 113.803C75.2306 116.167 72.397 118.055 71 119H75.5C78.6482 115.986 81.1129 113.503 82.4151 112.783L82.4201 112.788Z" fill="var(--sapContent_Illustrative_Color16)"/>
</svg>
