<svg width="128" height="128" viewBox="0 0 128 128" fill="none" xmlns="http://www.w3.org/2000/svg" id="sapIllus-Spot-UnableToLoad">
<rect y="40" width="128" height="55" rx="8" fill="var(--sapContent_Illustrative_Color20)"/>
<g clip-path="url(#clip0_6879_7412)">
<path d="M65.4722 88.8183L67.9613 88.9941L101.315 74.6393L69.3498 60.8999L24.3196 68.7429C23.2126 68.9627 22.1307 69.352 24.0507 70.2625L63.6522 88.3473C64.3839 88.6801 64.6779 88.7555 65.4722 88.8183Z" fill="var(--sapContent_Illustrative_Color21)"/>
<path d="M40.4992 75.3737L40.5367 76.6735C40.5367 76.73 40.5742 76.7865 40.6305 76.8117L65.985 88.573C65.985 88.573 68.0051 89.5212 69.9877 88.573C72.7833 87.2355 106.512 72.8117 106.512 72.8117C106.512 72.8117 106.975 72.6672 106.987 72.1586C107 71.65 106.987 71.1162 106.987 71.1162L40.4929 75.3737H40.4992Z" fill="var(--sapContent_Illustrative_Color29)"/>
<path d="M45.8278 73.4902L45.7089 73.5279L45.3837 73.6221L44.8959 73.7665L44.2955 73.9423L43.62 74.1433L42.9258 74.3442L42.2504 74.5452C42.0502 74.6017 40.6305 75.0726 40.6305 75.0726C40.4867 75.1417 40.4867 75.4871 40.5305 75.6127C40.5618 75.6943 40.618 75.7634 40.6993 75.8011C41.0371 75.9769 67.117 87.3489 67.117 87.3489C67.117 87.3489 68.5305 88.0145 70.6006 86.9784C72.2705 86.1433 87.7746 79.6189 87.7746 79.6189L106.475 71.7445C106.475 71.7445 108.145 70.9156 105.368 70.52L81.2515 64.3474C81.2515 64.3474 80.1382 63.958 78.5059 64.3097C76.8798 64.6613 45.834 73.4902 45.834 73.4902H45.8215H45.8278Z" fill="var(--sapContent_Illustrative_Color9)"/>
<path d="M55.5282 72.9433C55.7971 72.3028 56.2412 71.3295 56.8103 70.375C50.7687 72.0893 45.8217 73.4896 45.8217 73.4896C45.7841 73.5022 45.7404 73.5147 45.7028 73.5273C45.5965 73.5587 45.4839 73.5901 45.3776 73.6215C45.215 73.6717 45.0524 73.7157 44.8898 73.7659C44.6897 73.8224 44.4833 73.8852 44.2894 73.9417L43.6139 74.1427C43.3825 74.2117 43.1511 74.2745 42.9197 74.3436C42.6946 74.4064 42.4694 74.4755 42.2443 74.5445C42.0441 74.6011 40.6244 75.072 40.6244 75.072C40.4806 75.1411 40.4806 75.4865 40.5244 75.612C40.5556 75.6937 40.6119 75.7628 40.6932 75.8004C40.8684 75.8946 48.2733 79.1348 55.203 82.1552C54.4525 79.0971 54.3149 75.8569 55.5407 72.9433H55.5282Z" fill="var(--sapContent_Illustrative_Color17)"/>
<path d="M40.5557 75.5244L79.094 64.347C79.094 64.347 79.4818 64.3784 79.3754 63.0472C79.2691 61.7159 75.9231 34.3501 75.9231 34.3501C75.9231 34.3501 75.7793 33.0189 74.247 33.0001C72.7147 32.9875 36.1215 34.9592 36.1215 34.9592C36.1215 34.9592 34.1264 35.1351 34.3578 37.3643C34.5829 39.5935 39.3486 73.6468 39.3486 73.6468C39.3486 73.6468 39.7552 75.4993 40.5557 75.5181V75.5244Z" fill="var(--sapContent_Illustrative_Color9)"/>
<path d="M61.9262 67.0971C56.8227 66.7831 51.6068 65.7721 47.11 63.2101C42.632 60.667 41.1935 56.3404 39.5424 51.455C38.154 47.3734 36.9657 42.0108 37.2159 39.2478C37.5598 37.7407 38.0227 36.2714 38.5355 34.8208C37.0095 34.9024 36.1151 34.9527 36.1151 34.9527C36.1151 34.9527 34.12 35.1285 34.3514 37.3577C34.5766 39.5869 39.3423 73.6403 39.3423 73.6403C39.3423 73.6403 39.5111 75.5053 40.5493 75.5115L69.7752 67.0343C67.1609 67.2101 64.5342 67.2415 61.9137 67.0845V67.0971H61.9262Z" fill="var(--sapContent_Illustrative_Color17)"/>
<path d="M36.1028 37.4394L40.9248 71.1223L78.0309 61.6278L74.9538 34.8711L36.1028 37.4394Z" fill="var(--sapContent_Illustrative_Color8)"/>
<path d="M82.765 79.5434L93.6786 75.0159C93.9913 74.8841 93.9225 74.3189 93.5785 74.2436L86.7552 72.7742C86.4863 72.7177 86.2236 72.7365 85.9797 72.8181L72.7646 77.4524C72.6645 77.49 72.6896 77.6721 72.8084 77.6973L78.7311 79.6313C80.1195 80.0834 81.5267 80.0521 82.765 79.5371V79.5497V79.5434Z" fill="var(--sapContent_Illustrative_Color27)"/>
<path d="M72.7647 77.6093C72.6459 77.5716 72.6146 77.3833 72.7147 77.3393L85.8297 72.8244C86.1612 72.7114 86.5114 72.6925 86.8679 72.7679L93.5536 74.231C93.6412 74.2498 93.7412 74.3001 93.81 74.4068C93.8601 74.4822 93.8851 74.5701 93.8851 74.658V74.6831L86.7866 73.0253C86.4864 72.9688 86.1799 72.9939 85.8985 73.0881L72.7647 77.603V77.5905V77.6093Z" fill="var(--sapContent_Illustrative_Color17)"/>
<path d="M82.7463 71.4487L84.6538 71.9385C84.7414 71.9636 84.7664 72.1144 84.6851 72.1395L82.9089 72.6921H82.8714L80.8888 72.1834C80.8012 72.1583 80.7699 72.0076 80.8575 71.9825L82.7087 71.455H82.7463V71.4487Z" fill="var(--sapContent_Illustrative_Color17)"/>
<path d="M86.0549 70.5068L87.8811 70.9401C87.9749 70.9652 87.9937 71.1159 87.9124 71.1411L85.6984 71.8318H85.6608L83.8034 71.3608C83.7158 71.3357 83.6908 71.185 83.7721 71.1599L86.0298 70.5131H86.0674L86.0549 70.5068Z" fill="var(--sapContent_Illustrative_Color17)"/>
<path d="M64.9155 76.5605L67.4672 77.3455C67.536 77.3643 67.5548 77.4711 67.4985 77.4836L65.2658 78.1744H65.2282L62.6828 77.3392C62.6203 77.3204 62.5952 77.2073 62.6453 77.201L64.878 76.5605H64.9155Z" fill="var(--sapContent_Illustrative_Color17)"/>
<path d="M81.8833 72.8054L79.8507 72.2842H79.8131L77.8931 72.8368L65.7475 76.3156C65.6724 76.3344 65.7037 76.4663 65.785 76.4914L68.2366 77.2449H68.2742L80.4386 73.4647L81.9083 73.0063C81.9896 72.9812 81.9646 72.8305 81.877 72.8054H81.8833Z" fill="var(--sapContent_Illustrative_Color17)"/>
<path d="M53.1641 76.4725L51.6568 76.9058H51.6068L50.2434 76.4662C50.1308 76.4285 50.087 76.2653 50.1746 76.2339L51.7194 75.7817H51.7694L53.0953 76.2339C53.2016 76.2715 53.2517 76.4348 53.1578 76.4662L53.1641 76.4725Z" fill="var(--sapContent_Illustrative_Color17)"/>
<path d="M58.0923 78.1428L56.7289 78.5384H56.6789L55.0841 78.0297C54.9715 77.9921 54.934 77.8288 55.0215 77.8037L56.435 77.3955H56.4913L58.0423 77.923C58.1486 77.9607 58.1924 78.1239 58.0986 78.149H58.0861V78.1365L58.0923 78.1428Z" fill="var(--sapContent_Illustrative_Color17)"/>
<path d="M55.5468 77.2761L54.1084 77.6905H54.0583L52.6261 77.2321C52.5135 77.1944 52.4698 77.0312 52.5636 76.9998L54.0458 76.5728H54.0958L55.4843 77.05C55.5906 77.0877 55.6344 77.2509 55.5468 77.2823V77.2761Z" fill="var(--sapContent_Illustrative_Color17)"/>
<path d="M61.92 77.4208L64.3904 78.2309C64.4905 78.2686 64.5155 78.4067 64.4342 78.4318L62.4203 79.0535H62.3703L59.8686 78.1995C59.7685 78.1618 59.7373 78.0237 59.8186 77.9985L61.8637 77.4146H61.9137L61.92 77.4208Z" fill="var(--sapContent_Illustrative_Color17)"/>
<path d="M89.3945 69.54L91.5772 69.9984L88.9379 70.821L86.7427 70.2999L89.3945 69.54Z" fill="var(--sapContent_Illustrative_Color17)"/>
<path d="M59.9624 73.0003L58.7553 72.6612C58.6615 72.6298 58.624 72.4854 58.7053 72.4666L60.5565 71.9517H60.5941L61.7823 72.2719C61.8762 72.297 61.9137 72.4477 61.8261 72.4666L59.9937 72.994H59.9561H59.9686L59.9624 73.0003Z" fill="var(--sapContent_Illustrative_Color17)"/>
<path d="M57.1354 73.8163L55.9784 73.4584C55.872 73.4207 55.8283 73.2512 55.9221 73.2323L57.7295 72.73H57.7733L58.9303 73.0628C59.0367 73.0942 59.0867 73.27 58.9866 73.2889L57.1729 73.8163H57.1229H57.1354Z" fill="var(--sapContent_Illustrative_Color17)"/>
<path d="M56.804 75.3985L55.4281 74.9401C55.3217 74.9024 55.278 74.7391 55.3718 74.714L57.1855 74.1865H57.2355L58.674 74.6261C58.7803 74.6638 58.8241 74.827 58.7303 74.8521L56.8603 75.3922H56.804V75.3985Z" fill="var(--sapContent_Illustrative_Color17)"/>
<path d="M62.7705 72.1774L61.6135 71.8634C61.5197 71.8383 61.4822 71.6876 61.5697 71.6624L63.4022 71.1538H63.4397L64.553 71.4552C64.6468 71.4803 64.678 71.631 64.5967 71.6562L62.808 72.1711H62.7705V72.1774Z" fill="var(--sapContent_Illustrative_Color17)"/>
<path d="M49.1989 76.1334L47.8793 75.7064C47.773 75.6688 47.7229 75.5055 47.8105 75.4867L49.4741 75.022H49.5304L50.7812 75.449C50.8876 75.4867 50.9313 75.6499 50.8438 75.675L49.2552 76.1397H49.2052L49.1989 76.1334Z" fill="var(--sapContent_Illustrative_Color17)"/>
<path d="M65.5474 71.3738L64.3466 71.0473C64.2841 71.0284 64.2528 70.9217 64.3153 70.9028L66.2666 70.3628H66.2917L67.4675 70.6705C67.53 70.6893 67.5613 70.7961 67.4987 70.8149L65.5724 71.3738H65.5474Z" fill="var(--sapContent_Illustrative_Color17)"/>
<path d="M51.663 75.4113L50.4372 74.9968C50.3308 74.9592 50.2871 74.7959 50.3746 74.7708L52.2321 74.2559H52.2884L53.4955 74.6515C53.6018 74.6891 53.6456 74.8524 53.558 74.8775L51.7255 75.4113H51.6692H51.663Z" fill="var(--sapContent_Illustrative_Color17)"/>
<path d="M54.4085 74.614L53.2265 74.2246C53.1201 74.187 53.0764 74.0237 53.1639 73.9986L54.9401 73.5088H54.9901L56.1722 73.873C56.2785 73.9107 56.3223 74.0739 56.2285 74.0991L54.4585 74.6202H54.4023V74.6077L54.4085 74.614Z" fill="var(--sapContent_Illustrative_Color17)"/>
<path d="M88.2125 69.2953L86.0298 68.8369H85.9923L82.859 68.9248C82.7777 68.9499 82.859 69.3142 82.9465 69.333L86.0111 70.1179H86.0486L88.2313 69.49C88.3189 69.4649 88.2939 69.3016 88.2 69.2828V69.2953H88.2125Z" fill="var(--sapContent_Illustrative_Color17)"/>
<path d="M78.1872 68.077L79.9446 67.5684H79.9821L81.8396 67.9577C81.9397 67.9765 81.9647 68.1398 81.8771 68.1649L80.0259 68.7049H79.9884L78.2309 68.2905C78.1309 68.2654 78.1059 68.1084 78.1934 68.0833H78.1809L78.1872 68.077Z" fill="var(--sapContent_Illustrative_Color17)"/>
<path d="M76.1982 67.6057L77.8931 67.1348H77.9243L78.7436 67.3106C78.8437 67.3294 78.8687 67.499 78.7812 67.5241L77.0988 68.0139H77.0613L76.2295 67.8192C76.1294 67.7941 76.0981 67.6371 76.1919 67.612L76.1982 67.6057Z" fill="var(--sapContent_Illustrative_Color17)"/>
<path d="M71.2262 69.7098L70.2756 69.4649C70.1755 69.4398 70.1443 69.2828 70.2381 69.2577L72.0768 68.749H72.1143L73.0212 68.9814C73.1213 69.0065 73.1463 69.1635 73.0587 69.1886L71.2638 69.7098H71.2262Z" fill="var(--sapContent_Illustrative_Color17)"/>
<path d="M68.393 70.545L67.2485 70.2435C67.1859 70.2247 67.1547 70.118 67.2172 70.0991L69.1685 69.5591H69.1935L70.3005 69.8479C70.3631 69.8668 70.3881 69.9735 70.3318 69.9924L68.418 70.545H68.3867H68.393Z" fill="var(--sapContent_Illustrative_Color17)"/>
<path d="M74.0843 68.8803L73.2087 68.6605C73.1087 68.6354 73.0836 68.4784 73.1712 68.4533L75.06 67.9321H75.0975L75.9543 68.1331C76.0544 68.1582 76.0857 68.3152 75.9918 68.3403L74.1218 68.8866H74.0843V68.8803Z" fill="var(--sapContent_Illustrative_Color17)"/>
<path d="M61.576 79.3237L60.3502 79.7005H60.3002L57.6734 78.859C57.5671 78.8214 57.5233 78.6644 57.6171 78.633L58.968 78.2437H59.0181L61.5197 79.0977C61.6261 79.1353 61.6573 79.2923 61.576 79.3174V79.3237Z" fill="var(--sapContent_Illustrative_Color17)"/>
<path d="M76.7985 71.4994L78.8811 72.0269C78.9436 72.0458 78.9624 72.1525 78.8999 72.1713L76.8923 72.7491H76.8673L74.8159 72.2153C74.7533 72.1965 74.7346 72.0897 74.7909 72.0709L76.7734 71.4932H76.7985V71.4994Z" fill="var(--sapContent_Illustrative_Color17)"/>
<path d="M73.9028 72.3408L75.9605 72.8746C76.023 72.8934 76.0418 73.0002 75.9855 73.019L73.8966 73.6155H73.8716L71.864 73.0755C71.8014 73.0567 71.7764 72.9499 71.839 72.9311L73.8903 72.3408H73.9154H73.9028Z" fill="var(--sapContent_Illustrative_Color17)"/>
<path d="M79.6755 70.6768L81.6518 71.1791C81.7393 71.2042 81.7644 71.3549 81.6831 71.3801L79.8381 71.9075H79.8005L77.8367 71.4052C77.7429 71.3801 77.7179 71.2293 77.8055 71.2042L79.6379 70.6768H79.6755Z" fill="var(--sapContent_Illustrative_Color17)"/>
<path d="M84.829 68.5859L83.0591 68.2217H83.0216L81.5643 68.6424L77.9682 69.6785C77.8869 69.7036 77.9119 69.8606 78.0057 69.8857L79.638 70.3002H79.6756L83.4969 69.195L84.8665 68.7994C84.9541 68.7743 84.9291 68.611 84.829 68.5922V68.5859Z" fill="var(--sapContent_Illustrative_Color17)"/>
<path d="M70.9633 73.1948L72.8646 73.7034C72.9522 73.7285 72.9834 73.8729 72.9021 73.8981L71.0947 74.413H71.0571L69.1746 73.9043C69.0808 73.8792 69.0558 73.7348 69.1371 73.7097L70.9383 73.1885H70.9758L70.9633 73.1948Z" fill="var(--sapContent_Illustrative_Color17)"/>
<path d="M82.8589 69.7538L84.9228 70.2374C85.0166 70.2625 85.0416 70.4132 84.9541 70.4383L82.7463 71.0725H82.7088L80.7325 70.5702C80.6387 70.545 80.6137 70.3943 80.7012 70.3692L82.8276 69.7476H82.8652L82.8589 69.7538Z" fill="var(--sapContent_Illustrative_Color17)"/>
<path d="M58.3738 76.4665L56.4413 77.0254H56.3913L54.9903 76.5418C54.884 76.5042 54.8402 76.3472 54.934 76.3158L56.8478 75.7632H56.8978L58.3175 76.2341C58.4239 76.2718 58.4614 76.4288 58.3738 76.4539V76.4665Z" fill="var(--sapContent_Illustrative_Color17)"/>
<path d="M65.2534 74.8461L67.017 75.3422C67.1234 75.3736 67.1609 75.5431 67.0671 75.562L64.8969 76.1836H64.8468L63.1707 75.6687C63.0644 75.6311 63.0269 75.4678 63.1207 75.4427L65.2096 74.8398H65.2596L65.2534 74.8461Z" fill="var(--sapContent_Illustrative_Color17)"/>
<path d="M72.0831 71.3675L74.0344 70.8086H74.0594L75.8106 71.2607C75.8794 71.2796 75.8982 71.3926 75.8356 71.4114L73.8781 71.9828H73.853L72.1144 71.5307C72.0456 71.5119 72.0268 71.4051 72.0894 71.38V71.3675H72.0831Z" fill="var(--sapContent_Illustrative_Color17)"/>
<path d="M75.1662 68.9559L77.08 68.4033H77.1175L78.875 68.8178C78.975 68.8429 79 68.9999 78.9125 69.025L76.9299 69.5964H76.8924L75.1975 69.1631C75.0974 69.138 75.0724 68.981 75.16 68.9559H75.1725H75.1662Z" fill="var(--sapContent_Illustrative_Color17)"/>
<path d="M55.9472 75.6685L54.0584 76.2148H54.0084L52.6637 75.7564C52.5574 75.7187 52.5136 75.5555 52.6012 75.5366L54.4587 74.9966H54.515L55.8909 75.455C55.9972 75.4927 56.041 75.6559 55.9472 75.6748V75.6685Z" fill="var(--sapContent_Illustrative_Color17)"/>
<path d="M62.2139 75.7251L63.89 76.24C63.9963 76.2777 64.0338 76.4347 63.94 76.4661L61.8824 77.0626H61.8324L60.2188 76.5351C60.1125 76.4975 60.0749 76.3405 60.1625 76.3154L62.1576 75.7377H62.2076L62.2139 75.7251Z" fill="var(--sapContent_Illustrative_Color17)"/>
<path d="M60.9757 77.3137L58.9806 77.8914H58.9306L57.3545 77.3576C57.2482 77.3199 57.2107 77.163 57.2982 77.1378L59.2558 76.5664H59.3058L60.9194 77.0939C61.0257 77.1316 61.0633 77.2885 60.9757 77.3137Z" fill="var(--sapContent_Illustrative_Color17)"/>
<path d="M68.193 73.9985L70.0817 74.5072C70.1693 74.5323 70.2006 74.6767 70.1193 74.6956L68.0554 75.2858H68.0178L66.1854 74.7646C66.0916 74.7332 66.0603 74.5951 66.1478 74.5762L68.1554 73.9985H68.193Z" fill="var(--sapContent_Illustrative_Color17)"/>
<path d="M63.5399 73.8352L65.485 73.2764H65.5225L67.1486 73.7159C67.2424 73.741 67.2737 73.8855 67.1861 73.9106L65.2098 74.482H65.1722L63.5837 74.0299C63.4899 73.9985 63.4586 73.8604 63.5399 73.8352Z" fill="var(--sapContent_Illustrative_Color17)"/>
<path d="M60.619 74.6827L62.5953 74.105H62.6454L64.1651 74.5383C64.2714 74.5697 64.3152 74.7392 64.2152 74.7643L62.1763 75.3546H62.1263L60.669 74.9025C60.5627 74.8648 60.5189 74.7015 60.6127 74.6764L60.619 74.6827Z" fill="var(--sapContent_Illustrative_Color17)"/>
<path d="M66.4604 72.9938L68.2616 72.4727H68.2991L69.9252 72.9122C70.019 72.9373 70.044 73.0818 69.9627 73.1069L68.174 73.6281H68.1365L66.5167 73.1885C66.4229 73.1634 66.3916 73.019 66.4791 72.9938H66.4666H66.4604Z" fill="var(--sapContent_Illustrative_Color17)"/>
<path d="M69.1561 72.2149L71.1637 71.6372H71.1887L72.9399 72.0956C73.0024 72.1144 73.0275 72.2212 72.9649 72.24L70.9386 72.824H70.9135L69.1874 72.3593C69.1248 72.3405 69.0998 72.2338 69.1561 72.2149Z" fill="var(--sapContent_Illustrative_Color17)"/>
<path d="M74.0154 70.4254L72.3455 69.9984C72.2517 69.9732 72.2204 69.8163 72.308 69.7911L74.1155 69.2637H74.153L75.8479 69.697C75.9479 69.7221 75.973 69.8791 75.8854 69.9042L74.0717 70.4316H74.0279L74.0154 70.4254Z" fill="var(--sapContent_Illustrative_Color17)"/>
<path d="M57.7483 75.5052L59.6558 74.9526H59.7058L61.1756 75.411C61.2819 75.4487 61.3257 75.612 61.2319 75.6308L59.2806 76.196H59.2305L57.8108 75.725C57.7045 75.6873 57.667 75.5241 57.7545 75.4989L57.7483 75.5052Z" fill="var(--sapContent_Illustrative_Color17)"/>
<path d="M78.6124 70.6012L76.7924 71.1286H76.7549L75.1163 70.7079C75.0225 70.6828 74.9912 70.5321 75.0788 70.507L76.8987 69.9795H76.9362L78.5748 70.3939C78.6687 70.4191 78.6937 70.5698 78.6061 70.5949H78.6186L78.6124 70.6012Z" fill="var(--sapContent_Illustrative_Color17)"/>
<path d="M68.2366 72.1019L66.498 71.631C66.4354 71.6121 66.4042 71.5054 66.4667 71.4865L68.418 70.9214H68.443L70.2192 71.3861C70.2818 71.4049 70.3068 71.5117 70.2505 71.5305L68.2679 72.1019H68.2429H68.2366Z" fill="var(--sapContent_Illustrative_Color17)"/>
<path d="M65.4535 72.906L63.8337 72.4727C63.7399 72.4476 63.7086 72.2969 63.7899 72.278L65.5786 71.7568H65.6161L67.2422 72.1964C67.336 72.2215 67.3673 72.3722 67.2797 72.3911L65.491 72.9123H65.4473L65.4535 72.906Z" fill="var(--sapContent_Illustrative_Color17)"/>
<path d="M71.1448 71.2608L69.2561 70.7647C69.2123 70.7522 69.1998 70.6894 69.2436 70.6831L71.2574 70.0991H71.3012L73.2024 70.5889C73.24 70.6015 73.2587 70.6643 73.215 70.6705L71.1698 71.2608H71.1511H71.1448Z" fill="var(--sapContent_Illustrative_Color17)"/>
<path d="M62.5641 73.7347L60.988 73.2889C60.8942 73.2575 60.8567 73.1193 60.9442 73.0942L62.808 72.5542H62.8455L64.4653 72.9875C64.5591 73.0126 64.5904 73.157 64.5091 73.1821L62.6016 73.7347H62.5641Z" fill="var(--sapContent_Illustrative_Color17)"/>
<path d="M59.6247 74.5885L58.1925 74.1489C58.0861 74.1112 58.0424 73.948 58.1362 73.9228L60.0062 73.3828H60.0562L61.5572 73.8098C61.6635 73.8412 61.7073 74.0108 61.6135 74.0359L59.6872 74.5947H59.6372L59.6247 74.5885Z" fill="var(--sapContent_Illustrative_Color17)"/>
<path d="M82.7213 71.2734L84.6288 71.7632C84.7164 71.7884 84.7414 71.9391 84.6601 71.9642L82.8776 72.5168H82.8401L80.8575 72.0081C80.77 71.983 80.7387 71.8323 80.8263 71.8072L82.6837 71.2797H82.7213V71.2734Z" fill="var(--sapContent_Illustrative_Color27)"/>
<path d="M86.0299 70.3188L87.8561 70.7521C87.9499 70.7772 87.9687 70.928 87.8874 70.9531L85.6671 71.6438H85.6296L83.7721 71.1666C83.6845 71.1415 83.6595 70.9907 83.7408 70.9656L85.9923 70.3188H86.0299Z" fill="var(--sapContent_Illustrative_Color27)"/>
<path d="M64.8781 76.3784L67.4298 77.1633C67.4986 77.1821 67.5174 77.2889 67.4611 77.3014L65.2283 77.9922H65.1908L62.6391 77.1507C62.5766 77.1319 62.5515 77.0189 62.6016 77.0126L64.8343 76.3721H64.8781V76.3784Z" fill="var(--sapContent_Illustrative_Color27)"/>
<path d="M81.8584 72.6232L79.8258 72.1021H79.7882L78.9314 72.3469L78.4686 72.4788L77.8682 72.6546L75.4416 73.3517L72.2207 74.2747L69.9254 74.9341C69.9254 74.9341 69.4563 75.0157 68.0241 75.4804L65.7226 76.1397C65.6475 76.1586 65.6788 76.2904 65.7601 76.3156L68.2117 77.0691H68.2493L72.4646 75.7567L74.4347 75.1476L77.1052 74.3124L80.7451 73.1758L81.8959 72.8242C81.9772 72.7991 81.9522 72.6484 81.8646 72.6232H81.8584Z" fill="var(--sapContent_Illustrative_Color27)"/>
<path d="M53.1141 76.2967L51.6068 76.73H51.5568L50.1933 76.2904C50.0808 76.2527 50.037 76.0895 50.1246 76.0581L51.6693 75.606H51.7256L53.0515 76.0581C53.1578 76.0958 53.2079 76.259 53.1141 76.2904V76.2967Z" fill="var(--sapContent_Illustrative_Color27)"/>
<path d="M58.0486 77.9669L56.6852 78.3625H56.6352L55.0404 77.8476C54.9278 77.8099 54.8903 77.6467 54.9778 77.6215L56.3913 77.2134H56.4476L58.0048 77.7408C58.1112 77.7785 58.1549 77.9418 58.0611 77.9669H58.0486Z" fill="var(--sapContent_Illustrative_Color27)"/>
<path d="M55.5031 77.1066L54.0647 77.5211H54.0146L52.5824 77.0627C52.4698 77.025 52.4261 76.8617 52.5199 76.8303L54.0021 76.4033H54.0521L55.4406 76.8806C55.5469 76.9182 55.5907 77.0815 55.5031 77.1129V77.1066Z" fill="var(--sapContent_Illustrative_Color27)"/>
<path d="M61.8762 77.245L64.3466 78.055C64.4467 78.0927 64.4717 78.2309 64.3904 78.256L62.3765 78.8776H62.3265L59.8186 78.0236C59.7185 77.986 59.6872 77.8478 59.7685 77.8227L61.8136 77.2324H61.8699V77.245H61.8762Z" fill="var(--sapContent_Illustrative_Color27)"/>
<path d="M89.3758 69.3516L91.5648 69.81L88.9193 70.6326L86.7178 70.1114L89.3696 69.3516H89.3758Z" fill="var(--sapContent_Illustrative_Color27)"/>
<path d="M59.9187 72.8114L58.7116 72.4723C58.6178 72.4409 58.5803 72.2964 58.6616 72.2776L60.5128 71.7627H60.5504L61.7449 72.0829C61.8387 72.1081 61.8762 72.2588 61.7887 72.2776L59.9562 72.8114H59.9187Z" fill="var(--sapContent_Illustrative_Color27)"/>
<path d="M57.0917 73.6342L55.9347 73.2763C55.8283 73.2386 55.7846 73.069 55.8784 73.0502L57.6921 72.5479H57.7359L58.8929 72.8807C58.9992 72.9121 59.0492 73.0879 58.9492 73.1067L57.1292 73.6342H57.0792H57.0917Z" fill="var(--sapContent_Illustrative_Color27)"/>
<path d="M56.7539 75.2295L55.378 74.7711C55.2717 74.7334 55.2279 74.5702 55.3217 74.5451L57.1354 74.0176H57.1855L58.6239 74.4571C58.7303 74.4948 58.774 74.6581 58.6802 74.6832L56.8102 75.2295H56.7539Z" fill="var(--sapContent_Illustrative_Color27)"/>
<path d="M62.7267 71.9952L61.5634 71.6813C61.4696 71.6561 61.4321 71.5054 61.5197 71.4803L63.3521 70.9717H63.3897L64.5029 71.2731C64.5967 71.2982 64.628 71.4489 64.5467 71.474L62.758 71.9952H62.7205H62.7267Z" fill="var(--sapContent_Illustrative_Color27)"/>
<path d="M49.1489 75.9513L47.8292 75.5243C47.7229 75.4866 47.6729 75.3234 47.7604 75.3045L49.4303 74.8398H49.4866L50.7374 75.2668C50.8438 75.3045 50.8875 75.4678 50.8 75.4866L49.2114 75.9513H49.1551H49.1489Z" fill="var(--sapContent_Illustrative_Color27)"/>
<path d="M65.5035 71.1916L64.3027 70.8651C64.2401 70.8462 64.2089 70.7395 64.2714 70.7206L66.229 70.1743H66.254L67.4298 70.482C67.4923 70.5008 67.5236 70.6076 67.461 70.6264L65.5347 71.1853H65.5035V71.1916Z" fill="var(--sapContent_Illustrative_Color27)"/>
<path d="M51.6129 75.2291L50.3871 74.8147C50.2808 74.777 50.237 74.6138 50.3246 74.5886L52.1821 74.0737H52.2383L53.4454 74.4756C53.5517 74.5133 53.5955 74.6766 53.5079 74.7017L51.6755 75.2417H51.6192V75.2291H51.6129Z" fill="var(--sapContent_Illustrative_Color27)"/>
<path d="M54.3585 74.4318L53.1764 74.0425C53.0701 74.0048 53.0263 73.8416 53.1139 73.8165L54.8901 73.3267H54.9401L56.1221 73.6909C56.2285 73.7285 56.2722 73.8918 56.1784 73.9169L54.4022 74.4381H54.3459L54.3585 74.4256V74.4318Z" fill="var(--sapContent_Illustrative_Color27)"/>
<path d="M78.1559 67.8885L79.9133 67.3799H79.9509L81.8084 67.7692C81.9084 67.788 81.9334 67.9513 81.8459 67.9764L79.9946 68.5165H79.9571L78.1997 68.102C78.0996 68.0769 78.0746 67.9199 78.1622 67.8948H78.1497L78.1559 67.8885Z" fill="var(--sapContent_Illustrative_Color27)"/>
<path d="M76.1732 67.4177L77.8681 66.9468H77.8993L78.7186 67.1226C78.8187 67.1414 78.8437 67.311 78.7562 67.3361L77.0675 67.8259H77.03L76.1982 67.6312C76.0981 67.6061 76.0669 67.4491 76.1607 67.4177H76.1732Z" fill="var(--sapContent_Illustrative_Color27)"/>
<path d="M71.1949 69.5276L70.238 69.2827C70.138 69.2576 70.1129 69.1006 70.2005 69.0755L72.0455 68.5605H72.083L72.9899 68.7929C73.0899 68.818 73.115 68.975 73.0274 69.0001L71.2324 69.5276H71.1949Z" fill="var(--sapContent_Illustrative_Color27)"/>
<path d="M68.3492 70.3564L67.1984 70.055C67.1359 70.0362 67.1046 69.9294 67.1671 69.9106L69.1185 69.3643H69.1435L70.2505 69.6531C70.313 69.6719 70.338 69.785 70.2817 69.8038L68.368 70.3564H68.3429H68.3492Z" fill="var(--sapContent_Illustrative_Color27)"/>
<path d="M74.0467 68.686L73.1711 68.4662C73.0711 68.4411 73.0461 68.2841 73.1336 68.259L75.0224 67.7378H75.0599L75.9167 67.9387C76.0168 67.9639 76.0481 68.1208 75.9542 68.146L74.0842 68.6985H74.0467V68.686Z" fill="var(--sapContent_Illustrative_Color27)"/>
<path d="M61.5321 79.1539L60.3063 79.537H60.2562L57.6295 78.6955C57.5232 78.6579 57.4794 78.5009 57.5732 78.4757L58.9241 78.0864H58.9741L61.4758 78.9404C61.5821 78.9781 61.6134 79.1351 61.5321 79.1602V79.1539Z" fill="var(--sapContent_Illustrative_Color27)"/>
<path d="M76.7674 71.3237L78.85 71.8575C78.9125 71.8763 78.9313 71.9831 78.8688 72.0019L76.8612 72.5796H76.8362L74.7785 72.0459C74.716 72.027 74.691 71.9203 74.7535 71.9014L76.7361 71.3237H76.7674Z" fill="var(--sapContent_Illustrative_Color27)"/>
<path d="M73.8654 72.1586L75.923 72.6924C75.9856 72.7112 76.0043 72.818 75.948 72.8368L73.8529 73.4396H73.8279L71.8203 72.8996C71.7577 72.8808 71.7327 72.774 71.7953 72.7552L73.8466 72.1649H73.8717V72.1523L73.8654 72.1586Z" fill="var(--sapContent_Illustrative_Color27)"/>
<path d="M79.6506 70.4883L81.6269 70.9906C81.7207 71.0158 81.7457 71.1665 81.6582 71.1916L79.8132 71.719H79.7756L77.8118 71.2167C77.718 71.1916 77.693 71.0409 77.7806 71.0158L79.613 70.4883H79.6506Z" fill="var(--sapContent_Illustrative_Color27)"/>
<path d="M88.1999 69.1068L86.0172 68.6484C86.0172 68.6484 84.4287 68.3093 84.4162 68.3093L83.0277 68.0142H82.9902L81.5142 68.4412L77.9306 69.4835C77.8493 69.5087 77.8743 69.6657 77.9681 69.6908L79.6004 70.1052H79.638L82.9026 69.157L85.9922 69.9419H86.0297L88.2187 69.314C88.3063 69.2889 88.2812 69.1256 88.1874 69.1068H88.1999Z" fill="var(--sapContent_Illustrative_Color27)"/>
<path d="M70.9322 73.0126L72.8335 73.5212C72.9211 73.5463 72.9523 73.6907 72.871 73.7159L71.0636 74.2308H71.026L69.1373 73.7159C69.0435 73.6907 69.0185 73.5463 69.0998 73.5212L70.901 73H70.9385V73.0126H70.9322Z" fill="var(--sapContent_Illustrative_Color27)"/>
<path d="M82.834 69.5654L84.8979 70.0489C84.9917 70.074 85.0167 70.231 84.9292 70.2498L82.7214 70.884H82.6839L80.7076 70.3817C80.6138 70.3566 80.5888 70.2059 80.6701 70.1807L82.8027 69.5591H82.8403L82.834 69.5654Z" fill="var(--sapContent_Illustrative_Color27)"/>
<path d="M58.3299 76.2844L56.3973 76.8432H56.3473L54.9464 76.3597C54.84 76.322 54.7963 76.165 54.8901 76.1336L56.8039 75.5811H56.8602L58.2861 76.052C58.3924 76.0897 58.43 76.2467 58.3424 76.2781H58.3299V76.2844Z" fill="var(--sapContent_Illustrative_Color27)"/>
<path d="M65.2158 74.6699L66.9794 75.1723C67.0858 75.2037 67.1233 75.3732 67.0295 75.3983L64.8593 76.02H64.8092L63.1331 75.4988C63.0268 75.4611 62.9893 75.2979 63.0831 75.279L65.172 74.6762H65.222L65.2158 74.6699Z" fill="var(--sapContent_Illustrative_Color27)"/>
<path d="M72.0516 71.1853L74.0029 70.6201H74.0279L75.7854 71.0722C75.8542 71.0911 75.8729 71.2041 75.8104 71.2229L73.8466 71.7944H73.8216L72.0829 71.3423C72.0141 71.3234 71.9953 71.2104 72.0579 71.1915L72.0516 71.1853Z" fill="var(--sapContent_Illustrative_Color27)"/>
<path d="M75.135 68.7743L77.0488 68.2217H77.0863L78.8437 68.6361C78.9438 68.6612 78.9688 68.8182 78.8812 68.8433L76.8987 69.4211H76.8611L75.1663 68.9878C75.0662 68.9627 75.0412 68.8057 75.1287 68.7805H75.1412L75.135 68.7743Z" fill="var(--sapContent_Illustrative_Color27)"/>
<path d="M55.8971 75.4864L54.0084 76.0327H53.9583L52.6137 75.5743C52.5073 75.5366 52.4636 75.3733 52.5511 75.3545L54.4086 74.8145H54.4649L55.8471 75.2729C55.9534 75.3105 55.9972 75.4738 55.9034 75.4926L55.8971 75.4864Z" fill="var(--sapContent_Illustrative_Color27)"/>
<path d="M62.1763 75.5493L63.8586 76.0642C63.965 76.1019 64.0025 76.2589 63.9087 76.284L61.8448 76.8806H61.7948L60.1812 76.3531C60.0749 76.3154 60.0373 76.1584 60.1249 76.1333L62.12 75.5556H62.17L62.1763 75.5493Z" fill="var(--sapContent_Illustrative_Color27)"/>
<path d="M60.9381 77.1446L58.943 77.7224H58.893L57.3169 77.1886C57.2106 77.1509 57.1731 76.9939 57.2606 76.9625L59.2182 76.3911H59.2682L60.8881 76.9186C60.9944 76.9563 61.0319 77.1132 60.9444 77.1384L60.9381 77.1446Z" fill="var(--sapContent_Illustrative_Color27)"/>
<path d="M68.1554 73.8164L70.0441 74.325C70.1317 74.3502 70.163 74.4946 70.0817 74.5197L68.0178 75.11H67.9802L66.1478 74.5888C66.054 74.5574 66.0227 74.4192 66.1102 74.3941L68.1178 73.8164H68.1616H68.1554Z" fill="var(--sapContent_Illustrative_Color27)"/>
<path d="M63.5023 73.6531L65.4474 73.0942H65.4849L67.111 73.5338C67.2048 73.5589 67.236 73.7033 67.1485 73.7285L65.1722 74.3062H65.1346L63.5461 73.854C63.4523 73.8227 63.421 73.6845 63.5023 73.6594V73.6531Z" fill="var(--sapContent_Illustrative_Color27)"/>
<path d="M60.5691 74.5006L62.5517 73.9229H62.6017L64.1215 74.3561C64.2278 74.3875 64.2716 74.5571 64.1715 74.5822L62.1264 75.1725H62.0764L60.6129 74.7203C60.5066 74.6827 60.4628 74.5194 60.5566 74.4943H60.5691V74.5006Z" fill="var(--sapContent_Illustrative_Color27)"/>
<path d="M66.4228 72.8117L68.224 72.2905H68.2616L69.8877 72.7301C69.9815 72.7552 70.0065 72.8996 69.9252 72.9248L68.1302 73.4459H68.0927L66.4666 73.0064C66.3728 72.9813 66.3415 72.8368 66.4291 72.8117H66.4228Z" fill="var(--sapContent_Illustrative_Color27)"/>
<path d="M69.1185 72.0333L71.1261 71.4556H71.1511L72.9086 71.914C72.9711 71.9328 72.9961 72.0396 72.9336 72.0584L70.901 72.6487H70.8759L69.1498 72.1777C69.0872 72.1589 69.0622 72.0521 69.1185 72.0333Z" fill="var(--sapContent_Illustrative_Color27)"/>
<path d="M73.9782 70.2368L72.3021 69.8035C72.2083 69.7784 72.177 69.6214 72.2645 69.5963L74.072 69.0688H74.1095L75.8044 69.5021C75.9045 69.5272 75.9295 69.6842 75.8419 69.7094L74.022 70.2368H73.9844H73.9782Z" fill="var(--sapContent_Illustrative_Color27)"/>
<path d="M57.7046 75.3299L59.6184 74.7773H59.6684L61.1381 75.2357C61.2444 75.2734 61.2882 75.4367 61.1944 75.4555L59.2369 76.0207H59.1868L57.7671 75.5497C57.6608 75.512 57.6233 75.3488 57.7108 75.3237L57.7046 75.3299Z" fill="var(--sapContent_Illustrative_Color27)"/>
<path d="M78.5811 70.4132L76.7611 70.9406H76.7236L75.085 70.5199C74.9912 70.4948 74.9599 70.3441 75.0475 70.319L76.8737 69.7915H76.9112L78.5498 70.2122C78.6437 70.2373 78.6687 70.3881 78.5811 70.4132Z" fill="var(--sapContent_Illustrative_Color27)"/>
<path d="M68.199 71.9139L66.4604 71.443C66.3978 71.4241 66.3666 71.3174 66.4291 71.2985L68.3804 70.7334H68.4054L70.1816 71.1981C70.2442 71.2169 70.2692 71.3237 70.2129 71.3425L68.2303 71.9202H68.2053V71.9077L68.199 71.9139Z" fill="var(--sapContent_Illustrative_Color27)"/>
<path d="M65.4159 72.7174L63.7961 72.2841C63.7023 72.259 63.671 72.1083 63.7523 72.0895L65.541 71.562H65.5785L67.2046 72.0016C67.2984 72.0267 67.3297 72.1774 67.2421 72.1962L65.4472 72.7174H65.4097H65.4159Z" fill="var(--sapContent_Illustrative_Color27)"/>
<path d="M71.1072 71.0723L69.2185 70.5763C69.1747 70.5637 69.1622 70.5009 69.206 70.4946L71.2261 69.9106H71.2698L73.1711 70.4004C73.2086 70.413 73.2274 70.4758 73.1836 70.4821L71.1385 71.0786H71.1135L71.1072 71.0723Z" fill="var(--sapContent_Illustrative_Color27)"/>
<path d="M62.5204 73.5589L60.9443 73.1068C60.8505 73.0754 60.813 72.9372 60.9005 72.9121L62.7643 72.3721H62.8018L64.4216 72.8116C64.5154 72.8367 64.5467 72.9812 64.4654 73.0063L62.5579 73.5589H62.5204Z" fill="var(--sapContent_Illustrative_Color27)"/>
<path d="M59.581 74.4063L58.1488 73.9668C58.0424 73.9291 57.9987 73.7658 58.0925 73.7407L59.9625 73.2007H60.0125L61.5135 73.6277C61.6198 73.6591 61.6636 73.8286 61.5698 73.8537L59.6373 74.4063H59.5872H59.581Z" fill="var(--sapContent_Illustrative_Color27)"/>
<path d="M64.7778 51.3332C64.4026 51.3144 64.0774 51.597 64.0336 51.9675C63.9648 52.6959 63.7334 53.3929 63.3894 54.0334C62.5513 55.5844 60.994 56.7838 59.1366 57.1543C59.1366 57.1543 59.1303 57.1543 59.124 57.1543C56.1658 57.7383 53.3514 56.1119 52.5759 53.4243C52.5071 53.1794 52.4446 52.9345 52.4133 52.677C51.988 49.531 54.4084 46.6048 57.6981 46.1778C59.0678 46.002 60.3874 46.2908 61.4631 46.9251C62.0385 47.2642 62.5513 47.6974 62.9579 48.2249L60.2123 48.6268C59.8245 48.6833 59.5431 49.0412 59.5931 49.4117C59.6431 49.7885 59.9996 50.0459 60.3936 49.9832L64.1587 49.3992L64.2087 49.3929L64.5214 49.3426C64.8904 49.2861 65.1531 48.9408 65.103 48.5828L64.6027 44.6331V44.6205C64.5527 44.2563 64.215 43.9926 63.846 44.0365C63.477 44.0805 63.208 44.4196 63.2518 44.7901L63.3456 45.5499L63.502 46.7555C63.2393 46.4981 62.9516 46.272 62.6514 46.0585C61.2442 45.0601 59.4242 44.5703 57.5167 44.7963C53.3764 45.2861 50.2931 48.9596 50.8372 52.9345C50.906 53.4557 51.0436 53.9518 51.225 54.4164C52.1569 56.8152 54.4459 58.4227 57.0852 58.6488C57.8107 58.7116 58.5612 58.6676 59.3179 58.5106C62.3637 57.8764 64.7466 55.4651 65.2907 52.6394C65.3282 52.4384 65.3595 52.2375 65.3782 52.0302C65.4158 51.666 65.1468 51.3458 64.7778 51.327V51.3332Z" fill="var(--sapContent_Illustrative_Color23)"/>
</g>
<defs>
<clipPath id="clip0_6879_7412">
<rect width="84" height="56" fill="var(--sapContent_Illustrative_Color8)" transform="translate(23 33)"/>
</clipPath>
</defs>
</svg>