<svg width="129" height="129" viewBox="0 0 129 129" fill="none" xmlns="http://www.w3.org/2000/svg" id="sapIllus-Spot-SleepingBell">
			<mask id="mask0_396_4409" class="sapIllus_MaskTypeAlpha" maskUnits="userSpaceOnUse" x="0" y="0" width="128" height="128">
			<circle cx="64" cy="64" r="64" fill="var(--sapContent_Illustrative_Color7)"/>
			</mask>
			<g mask="url(#mask0_396_4409)">
			<circle cx="64" cy="64" r="64" fill="var(--sapContent_Illustrative_Color7)"/>
			<path d="M40.6396 23.3003C40.808 23.0976 41.0188 22.934 41.2572 22.8211C41.4954 22.7181 41.7528 22.6664 42.0124 22.6696H70.7256C70.8243 22.4957 70.9427 22.3338 71.0785 22.1869C71.2937 21.9775 71.5463 21.8102 71.8231 21.6936C72.1022 21.5803 72.4006 21.5217 72.7019 21.521C73.0019 21.5235 73.2987 21.582 73.5771 21.6936C73.8513 21.8129 74.1013 21.9813 74.3147 22.1904C74.4513 22.3354 74.5698 22.4963 74.6676 22.6696H112.991C106.925 15.7866 99.445 10.2886 91.0604 6.54983C82.6759 2.81103 73.5831 0.919073 64.4006 1.00265C55.2182 1.08623 46.1614 3.14339 37.8465 7.03419C29.5316 10.925 22.1536 16.5582 16.2144 23.5505H40.4278L40.6396 23.3003Z" fill="var(--sapContent_Illustrative_Color7)"/>
			<path d="M121.644 35.1533H75.3135C76.0969 35.6248 76.7451 36.2904 77.1952 37.0855C77.6453 37.8806 77.8821 38.7783 77.8827 39.6916V41.4005C79.7149 41.7714 81.5059 42.3225 83.2293 43.0459C88.405 45.228 92.802 48.9165 95.847 53.6304C98.892 58.3442 100.444 63.8648 100.3 69.4722V93.4672C102.313 94.5528 104.41 95.4753 106.571 96.226C108.336 96.5784 109.804 97.6707 109.793 99.4571C109.792 100.311 109.455 101.13 108.854 101.737C108.243 102.34 107.42 102.68 106.561 102.685H79.3861C79.4417 103.696 79.2667 104.707 78.8744 105.641C78.1802 107.314 76.8491 108.644 75.1735 109.337C73.4979 110.031 71.615 110.032 69.9386 109.34C68.6887 108.824 67.6208 107.949 66.8705 106.825C66.1202 105.701 65.7214 104.38 65.7248 103.03V102.678H44.0205C55.0505 106.373 65.7189 111.069 75.8922 116.705C80.5437 119.213 85.3504 121.535 90.2488 123.688C98.3628 120.202 105.667 115.078 111.704 108.639C117.74 102.2 122.378 94.5845 125.326 86.2708C128.274 77.9571 129.469 69.1246 128.835 60.328C128.201 51.5313 125.753 42.9604 121.644 35.1533V35.1533Z" fill="var(--sapContent_Illustrative_Color7)"/>
			<path d="M44.0202 102.685H38.1689C37.3136 102.686 36.4927 102.349 35.8855 101.747C35.5813 101.446 35.3412 101.087 35.1797 100.69C35.0821 100.455 35.0122 100.209 34.9715 99.9575C26.3256 97.591 17.491 95.9748 8.56641 95.1268C16.1339 109.223 28.7192 119.976 43.8384 125.261C58.9576 130.547 75.5121 129.982 90.2344 123.678C85.3324 121.525 80.5257 119.203 75.8743 116.694C65.7063 111.065 55.0438 106.375 44.0202 102.685V102.685Z" fill="var(--sapContent_Illustrative_Color19)"/>
			<path d="M42.4538 102.558H36.6025C35.7472 102.559 34.9263 102.222 34.3191 101.621C34.0148 101.319 33.7748 100.96 33.6133 100.564C33.5157 100.328 33.4458 100.082 33.4051 99.8307C24.7592 97.4642 15.9246 95.848 7 95C14.5675 109.097 27.1528 119.849 42.272 125.134C57.3912 130.42 73.9456 129.855 88.668 123.551C83.766 121.398 78.9593 119.076 74.3079 116.567C64.1398 110.938 53.4774 106.248 42.4538 102.558V102.558Z" fill="var(--sapContent_Illustrative_Color19)"/>
			<path d="M74.9957 35.1886H70.4325V35.1533H69.7655C69.4155 35.3684 69.0911 35.6226 68.7985 35.9109C68.3072 36.4003 67.9164 36.9808 67.648 37.6198C67.3801 38.263 67.2422 38.9527 67.2422 39.6493V41.3159C68.9311 41.0027 70.6451 40.8435 72.363 40.8402C74.2169 40.8444 76.0658 41.032 77.8826 41.4005V39.6916C77.8826 38.995 77.7446 38.3052 77.4767 37.662C77.0433 36.6161 76.2849 35.7367 75.3133 35.1533H74.9957V35.1886Z" fill="var(--sapContent_Illustrative_Color15)"/>
			<path d="M67.2526 41.3301C60.7221 42.5533 54.841 46.0576 50.6624 51.2153C46.4837 56.3731 44.2805 62.8475 44.4473 69.4793C44.4505 62.5597 47.0277 55.888 51.6791 50.7584C56.3306 45.6287 62.7245 42.4068 69.6207 41.7177C76.8416 41.9964 83.6739 45.0561 88.6844 50.2549C93.6948 55.4538 96.4942 62.3878 96.4952 69.6026V93.4848H100.3V69.4793C100.448 63.871 98.898 58.3486 95.8524 53.6339C92.8068 48.9191 88.4074 45.2315 83.2291 43.0531C79.7937 41.6051 76.1024 40.8598 72.3734 40.8615C70.6557 40.8607 68.9416 41.0175 67.2526 41.3301Z" fill="var(--sapContent_Illustrative_Color3)"/>
			<path d="M65.7317 103.03C65.7289 104.61 66.2757 106.143 67.2788 107.365C68.2819 108.588 69.679 109.424 71.2314 109.733C72.7839 110.041 74.3954 109.801 75.7906 109.055C77.1859 108.309 78.2783 107.102 78.8813 105.641C79.2737 104.707 79.4486 103.696 79.393 102.685H65.7458C65.7388 102.804 65.7317 102.914 65.7317 103.03Z" fill="var(--sapContent_Illustrative_Color3)"/>
			<path d="M44.4401 93.4672C42.4267 94.5522 40.3296 95.4748 38.1688 96.2261C36.4043 96.5996 34.9326 97.6708 34.9326 99.4572C34.9361 99.6258 34.9502 99.7941 34.975 99.961C35.0164 100.211 35.0851 100.455 35.1797 100.69C35.3411 101.087 35.5812 101.446 35.8855 101.747C36.4918 102.354 37.3144 102.694 38.1724 102.695H106.567C107.427 102.691 108.25 102.35 108.861 101.747C109.462 101.14 109.799 100.321 109.8 99.4677C109.8 97.6813 108.332 96.5996 106.578 96.2367C104.416 95.4853 102.318 94.5628 100.303 93.4778H44.4401V93.4672Z" fill="var(--sapContent_Illustrative_Color15)"/>
			<path d="M96.4988 69.585C96.4978 62.3703 93.6985 55.4362 88.688 50.2373C83.6775 45.0385 76.8453 41.9788 69.6243 41.7001C62.7282 42.3892 56.3342 45.6111 51.6828 50.7408C47.0314 55.8704 44.4541 62.5422 44.4509 69.4617V93.4672H96.4988V69.585Z" fill="var(--sapContent_Illustrative_Color3)"/>
			<path opacity="0.3" d="M96.4988 69.585C96.4978 62.3703 93.6985 55.4362 88.688 50.2373C83.6775 45.0385 76.8453 41.9788 69.6243 41.7001C62.7282 42.3892 56.3342 45.6111 51.6828 50.7408C47.0314 55.8704 44.4541 62.5422 44.4509 69.4617V93.4672H96.4988V69.585Z" fill="var(--sapContent_Illustrative_Color15)"/>
			<path d="M74.8263 22.9233C74.9387 23.2009 74.9962 23.4976 74.9957 23.7971V35.1533H121.644C119.269 30.6631 116.369 26.4702 113.005 22.6625H74.7063C74.7511 22.7471 74.7912 22.8342 74.8263 22.9233V22.9233Z" fill="var(--sapContent_Illustrative_Color6)"/>
			<path d="M81.6198 4.81415L74.2958 6.83814L82.324 7.11731L81.6198 4.81415Z" fill="var(--sapContent_Illustrative_Color3)"/>
			<path d="M78.8733 8.1642L74.2958 6.83813L79.5071 6.97772L78.8733 8.1642Z" fill="var(--sapContent_Illustrative_Color15)"/>
			<path d="M85.7494 24.3469H96.5341C99.0534 24.3469 100.318 21.3303 98.5442 19.5611L90.8656 11.9226L84.4964 5.58763C82.2413 3.3441 78.3751 4.92358 78.3751 8.09393V17.0339C78.3749 18.9727 79.1516 20.8322 80.5344 22.2036C81.9173 23.575 83.7931 24.3459 85.7494 24.3469V24.3469Z" fill="var(--sapContent_Illustrative_Color20)"/>
			<path opacity="0.5" d="M83.1401 7.72988C82.6493 7.24346 82.6491 6.45496 83.1397 5.96873C83.6303 5.48249 84.426 5.48264 84.9168 5.96906L104.111 24.9919C104.602 25.4784 104.602 26.2669 104.112 26.7531C103.621 27.2393 102.825 27.2392 102.335 26.7528L83.1401 7.72988Z" fill="var(--sapContent_Illustrative_Color8)"/>
			<path d="M85.7538 8.9754L82.9727 11.7317C82.2187 12.4789 81.7952 13.4923 81.7952 14.549C81.7952 15.6057 82.2187 16.6191 82.9727 17.3663L85.5095 19.8804C87.0011 21.3591 89.0243 22.1901 91.1341 22.1906C93.2439 22.1911 95.2675 21.3611 96.7599 19.8831V19.8831L85.7538 8.9754Z" fill="var(--sapContent_Illustrative_Color4)"/>
			<path d="M98.5394 19.5611L90.8607 11.9227L84.4916 5.58767C83.2826 4.3848 84.4188 7.06565 83.1276 7.71736C82.8972 7.48295 82.7693 7.16807 82.7714 6.84086C82.7736 6.51364 82.9056 6.20043 83.1391 5.96902C83.3747 5.73568 83.6942 5.60461 84.0273 5.60461C84.3604 5.60461 84.6799 5.73568 84.9156 5.96902L104.111 24.993C104.347 25.2266 104.479 25.5432 104.479 25.8733C104.479 26.2035 104.347 26.5201 104.111 26.7537V26.7537C103.994 26.8694 103.856 26.9611 103.703 27.0237C103.551 27.0863 103.387 27.1186 103.222 27.1186C103.057 27.1186 102.894 27.0863 102.741 27.0237C102.589 26.9611 102.45 26.8694 102.334 26.7537L98.792 23.2437C99.575 22.2002 99.6306 20.6463 98.5394 19.5611Z" fill="var(--sapContent_Illustrative_Color4)"/>
			<path d="M84.4916 5.58762L90.8608 11.9226L98.5394 19.5611C99.6306 20.6463 99.5751 22.2002 98.7892 23.2399L80.3297 4.94634C80.3262 4.942 80.3223 4.93788 80.3182 4.93401C81.6076 4.2823 83.2827 4.38475 84.4916 5.58762Z" fill="var(--sapContent_Illustrative_Color4)"/>
			<path d="M81.1252 7.56786C81.0407 7.70953 80.6877 7.65473 80.3367 7.44547C79.9856 7.23621 79.7696 6.95172 79.854 6.81005C79.9385 6.66837 80.2915 6.72317 80.6425 6.93243C80.9935 7.1417 81.2096 7.42619 81.1252 7.56786Z" fill="var(--sapContent_Illustrative_Color4)"/>
			<path d="M72.3621 7.34117C72.5687 7.61424 72.3845 8.00701 72.0425 8.02288L68.658 8.17984C66.9964 8.25691 65.8484 6.53997 66.5546 5.03391V5.03391C67.2607 3.52784 69.3148 3.31228 70.3182 4.63894L72.3621 7.34117Z" fill="var(--sapContent_Illustrative_Color18)"/>
			<path d="M70.4324 23.7971C70.4319 23.4965 70.4894 23.1986 70.6018 22.9198C70.6406 22.8317 70.683 22.7471 70.7289 22.6626H42.0157C41.7561 22.6594 41.4987 22.711 41.2605 22.8141C41.0214 22.929 40.8106 23.095 40.6429 23.3003L40.4276 23.5434L36.5914 27.9619C36.2847 28.2996 36.1147 28.7392 36.1147 29.1951C36.1147 29.651 36.2847 30.0906 36.5914 30.4283L40.597 34.6072C40.9415 34.9458 41.4019 35.141 41.8852 35.1533H70.4183L70.4324 23.7971Z" fill="var(--sapContent_Illustrative_Color6)"/>
			<path d="M70.4326 23.7972V35.1887H74.9958V23.7972C74.9963 23.4977 74.9388 23.201 74.8264 22.9234C74.7879 22.8341 74.7443 22.747 74.6958 22.6626C74.598 22.4893 74.4795 22.3284 74.3429 22.1834C74.1295 21.9743 73.8795 21.8059 73.6053 21.6866C73.3269 21.575 73.0301 21.5165 72.7301 21.514C72.4288 21.5147 72.1304 21.5733 71.8513 21.6866C71.5745 21.8032 71.3219 21.9705 71.1067 22.1799C70.9709 22.3268 70.8525 22.4887 70.7538 22.6626C70.7079 22.7472 70.6655 22.8318 70.6267 22.9198C70.5065 23.1973 70.4406 23.4951 70.4326 23.7972Z" fill="var(--sapContent_Illustrative_Color4)"/>
			<path d="M34.1987 86.008C34.99 86.008 35.6315 85.3676 35.6315 84.5775C35.6315 83.7874 34.99 83.147 34.1987 83.147C33.4074 83.147 32.7659 83.7874 32.7659 84.5775C32.7659 85.3676 33.4074 86.008 34.1987 86.008Z" fill="var(--sapContent_Illustrative_Color10)"/>
			<path d="M17.4328 53.8611C18.2242 53.8611 18.8657 53.2206 18.8657 52.4305C18.8657 51.6405 18.2242 51 17.4328 51C16.6415 51 16 51.6405 16 52.4305C16 53.2206 16.6415 53.8611 17.4328 53.8611Z" fill="var(--sapContent_Illustrative_Color10)"/>
			<path d="M9.23703 74.377C10.0284 74.377 10.6699 73.7365 10.6699 72.9465C10.6699 72.1564 10.0284 71.5159 9.23703 71.5159C8.4457 71.5159 7.8042 72.1564 7.8042 72.9465C7.8042 73.7365 8.4457 74.377 9.23703 74.377Z" fill="var(--sapContent_Illustrative_Color10)"/>
			<path d="M119.395 57.4921C120.186 57.4921 120.827 56.8516 120.827 56.0616C120.827 55.2715 120.186 54.631 119.395 54.631C118.603 54.631 117.962 55.2715 117.962 56.0616C117.962 56.8516 118.603 57.4921 119.395 57.4921Z" fill="var(--sapContent_Illustrative_Color10)"/>
			<path d="M108.433 69.8611C109.224 69.8611 109.866 69.2206 109.866 68.4305C109.866 67.6405 109.224 67 108.433 67C107.642 67 107 67.6405 107 68.4305C107 69.2206 107.642 69.8611 108.433 69.8611Z" fill="var(--sapContent_Illustrative_Color10)"/>
			<path d="M33 49C34.1046 49 35 48.1046 35 47C35 45.8954 34.1046 45 33 45C31.8954 45 31 45.8954 31 47C31 48.1046 31.8954 49 33 49Z" fill="var(--sapContent_Illustrative_Color10)"/>
			<path d="M49.6705 15.9574C51.1635 15.9574 52.3738 14.7491 52.3738 13.2584C52.3738 11.7678 51.1635 10.5594 49.6705 10.5594C48.1775 10.5594 46.9672 11.7678 46.9672 13.2584C46.9672 14.7491 48.1775 15.9574 49.6705 15.9574Z" fill="var(--sapContent_Illustrative_Color10)"/>
			<path d="M15.506 69H-5.50599C-6.3588 69 -7.20324 68.8319 -7.99113 68.5052C-8.77902 68.1786 -9.49491 67.6998 -10.0979 67.0962C-10.701 66.4926 -11.1793 65.7761 -11.5057 64.9874C-11.832 64.1988 -12 63.3536 -12 62.5C-12 61.6464 -11.832 60.8012 -11.5057 60.0126C-11.1793 59.2239 -10.701 58.5074 -10.0979 57.9038C-9.49491 57.3002 -8.77902 56.8214 -7.99113 56.4948C-7.20324 56.1681 -6.3588 56 -5.50599 56H15.506C17.2283 56 18.8801 56.6848 20.0979 57.9038C21.3158 59.1228 22 60.7761 22 62.5C22 64.2239 21.3158 65.8772 20.0979 67.0962C18.8801 68.3152 17.2283 69 15.506 69V69Z" fill="var(--sapContent_Illustrative_Color18)"/>
			</g>
			</svg>
