<svg width="160" height="160" viewBox="0 0 160 160" fill="none" xmlns="http://www.w3.org/2000/svg" id="sapIllus-Dialog-NoNotifications">
<rect y="50" width="160" height="69" rx="12" fill="var(--sapContent_Illustrative_Color20)"/>
<path d="M91.6457 88.7661C91.6079 88.724 91.5701 88.6818 91.5276 88.6397C91.4615 88.5741 91.3906 88.5085 91.3198 88.4429C91.282 88.4055 91.2442 88.3727 91.2017 88.3352C91.1025 88.2509 90.9986 88.1666 90.8899 88.087C90.871 88.0729 90.8569 88.0589 90.838 88.0495C90.7104 87.9605 90.5782 87.8715 90.4412 87.7872C90.394 87.7591 90.342 87.731 90.2948 87.7029C90.2003 87.6467 90.1012 87.5905 89.9972 87.539C89.9406 87.5062 89.8792 87.4781 89.8178 87.45C89.7186 87.4032 89.6194 87.3563 89.5202 87.3095C89.4541 87.2814 89.3879 87.2533 89.3218 87.2252C89.2132 87.1783 89.1045 87.1362 88.9912 87.094C88.9251 87.0706 88.8636 87.0425 88.7928 87.0191C88.6605 86.9723 88.5236 86.9254 88.3866 86.8833C88.3346 86.8692 88.2874 86.8505 88.2354 86.8364C88.0465 86.7802 87.8481 86.724 87.6498 86.6725C87.6025 86.6585 87.5506 86.6491 87.4986 86.6397C87.3427 86.6023 87.1869 86.5648 87.0216 86.532C86.946 86.5179 86.8657 86.5039 86.7854 86.4852C86.6437 86.4571 86.502 86.4336 86.3556 86.4102C86.2706 86.3962 86.1808 86.3821 86.0958 86.3681C85.9494 86.3447 85.8029 86.3259 85.6518 86.3072C85.5621 86.2978 85.477 86.2838 85.3873 86.2744C85.2267 86.2557 85.0567 86.2416 84.8913 86.2276C84.8111 86.2229 84.7355 86.2135 84.6552 86.2041C84.4048 86.1854 84.1545 86.1667 83.8947 86.1573C83.0115 86.1198 82.1046 86.1245 81.1741 86.1714C81.1174 86.1714 81.056 86.1807 80.9994 86.1807C80.7726 86.1948 80.5412 86.2088 80.3097 86.2229C80.0783 86.2416 79.8469 86.2603 79.6107 86.2838C79.5871 86.2838 79.5635 86.2838 79.5398 86.2884C78.0237 86.429 76.413 86.6725 74.7599 87.0191C67.9583 86.9629 61.4449 88.6724 59.1446 89.286C58.1386 89.553 55.7675 89.6045 53.0988 89.5858C52.1589 89.5811 51.1859 89.567 50.2176 89.553C49.6414 89.5436 49.0699 89.5342 48.5078 89.5249C47.3931 89.5108 46.3303 89.4968 45.3857 89.5015C44.7575 89.5015 44.186 89.5108 43.6806 89.5342C43.5625 89.5342 43.4444 89.5436 43.3216 89.5483C43.2838 89.5483 43.2413 89.5483 43.2035 89.553C43.1232 89.553 43.0382 89.5623 42.9532 89.567C42.906 89.567 42.854 89.5717 42.8068 89.5764C42.7312 89.5764 42.6556 89.5858 42.5753 89.5904C42.5234 89.5904 42.4714 89.5998 42.4195 89.5998C42.3439 89.6045 42.2683 89.6092 42.1927 89.6185C42.1361 89.6185 42.0841 89.6279 42.0274 89.6326C41.9518 89.6373 41.8763 89.6466 41.8007 89.6513C41.744 89.656 41.6873 89.6607 41.6354 89.6654C41.5551 89.6747 41.4748 89.6794 41.3992 89.6888C41.3473 89.6935 41.2953 89.6982 41.2386 89.7028C41.1442 89.7122 41.045 89.7216 40.9458 89.7356C40.8986 89.7403 40.856 89.745 40.8088 89.7497C40.686 89.7637 40.5679 89.7778 40.4451 89.7918C40.3884 89.7965 40.3318 89.8059 40.2751 89.8153C40.1995 89.8246 40.1192 89.834 40.0436 89.8434C39.9775 89.8527 39.9161 89.8621 39.85 89.8715C39.7791 89.8808 39.7083 89.8902 39.6374 89.8996C39.5713 89.9089 39.5052 89.9183 39.4343 89.9277C39.3635 89.937 39.2974 89.9464 39.2265 89.9605C39.1557 89.9698 39.0895 89.9839 39.0187 89.9932C38.9525 90.0026 38.8864 90.0167 38.8156 90.026C38.7447 90.0401 38.6739 90.0494 38.603 90.0635C38.5369 90.0729 38.4708 90.0869 38.4046 90.101C38.3338 90.115 38.2629 90.1244 38.1921 90.1384C38.126 90.1525 38.0646 90.1618 37.9984 90.1759C37.8567 90.204 37.715 90.2321 37.5733 90.2602C37.5167 90.2743 37.46 90.2836 37.3986 90.2977C37.323 90.3117 37.2474 90.3305 37.1719 90.3492C37.1105 90.3632 37.0538 90.3773 36.9924 90.3913C36.9168 90.4101 36.8412 90.4288 36.7657 90.4429C36.709 90.4569 36.6476 90.471 36.5909 90.485C36.5153 90.5038 36.4398 90.5225 36.3689 90.5412C36.3122 90.5553 36.2508 90.5693 36.1941 90.5881C36.1186 90.6068 36.0477 90.6255 35.9721 90.649C35.9155 90.663 35.8588 90.6817 35.8021 90.6958C35.7265 90.7192 35.651 90.7379 35.5801 90.7614C35.5234 90.7754 35.4715 90.7941 35.4195 90.8082C35.344 90.8316 35.2684 90.855 35.1928 90.8785C35.1834 90.8785 35.1739 90.8831 35.1645 90.8878C35.0228 90.8738 34.8669 90.8644 34.6874 90.8597C34.2529 90.8597 33.8136 90.9159 33.4452 90.9862C32.7509 91.1173 31.9007 91.4171 31.1686 91.4499H29.4162C27.8622 91.4405 26.2847 91.8152 25.6187 92.3444L25.3211 92.5833C24.6599 93.1079 25.0424 93.6559 26.261 93.9088L27.7205 94.2132C28.2921 94.335 28.3299 94.6113 28.6133 94.8127C28.788 94.9345 28.9439 95.0938 29.6524 95.164C29.7374 95.1734 29.8271 95.1781 29.9122 95.1781C29.9216 95.1968 29.9311 95.2155 29.9405 95.2343C29.9499 95.2577 29.9594 95.2811 29.9688 95.2998C29.9925 95.342 30.0161 95.3842 30.0397 95.4263C30.0491 95.4404 30.0586 95.4591 30.068 95.4731C30.1058 95.5293 30.1483 95.5855 30.1956 95.6418C30.205 95.6511 30.2144 95.6652 30.2239 95.6745C30.2617 95.7214 30.2995 95.7635 30.342 95.8104C30.3609 95.8291 30.3798 95.8478 30.4034 95.8666C30.4412 95.8994 30.4742 95.9368 30.512 95.9696C30.5356 95.993 30.564 96.0118 30.5876 96.0305C30.6254 96.0633 30.6632 96.0914 30.7009 96.1242C30.7293 96.1476 30.7576 96.1663 30.786 96.1897C30.8285 96.2178 30.8663 96.2506 30.9088 96.2787C30.9418 96.3022 30.9702 96.3209 31.0032 96.3443C31.0457 96.3724 31.093 96.4005 31.1355 96.4286C31.1686 96.4473 31.2016 96.4708 31.2347 96.4895C31.2819 96.5176 31.3291 96.5457 31.3764 96.5738C31.4094 96.5925 31.4472 96.6113 31.4803 96.63C31.5322 96.6581 31.5842 96.6862 31.6409 96.7096C31.6739 96.7284 31.7117 96.7471 31.7448 96.7612C31.8015 96.7893 31.8629 96.8174 31.9243 96.8455C31.9573 96.8595 31.9904 96.8782 32.0235 96.8923C32.099 96.9251 32.1746 96.9579 32.2549 96.9907C32.2738 97 32.2927 97.0094 32.3116 97.0141C32.4108 97.0562 32.51 97.0937 32.6092 97.1312C32.6375 97.1405 32.6658 97.1499 32.6942 97.1639C32.7698 97.192 32.8406 97.2202 32.9162 97.2436C32.954 97.2576 32.9965 97.2717 33.0343 97.2857C33.1004 97.3091 33.1665 97.3279 33.2326 97.3513C33.2751 97.3653 33.3224 97.3794 33.3649 97.3934C33.4263 97.4122 33.4924 97.4309 33.5585 97.4497C33.6058 97.4637 33.653 97.4778 33.6955 97.4918C33.7569 97.5105 33.823 97.5293 33.8845 97.5433C33.9317 97.5574 33.9789 97.5667 34.0262 97.5808C34.0876 97.5995 34.1537 97.6136 34.2198 97.6323C34.267 97.6464 34.3143 97.6557 34.3615 97.6651C34.4276 97.6792 34.4938 97.6979 34.5552 97.7119C34.6024 97.7213 34.6496 97.7354 34.6921 97.7447C34.7583 97.7588 34.8291 97.7728 34.8952 97.7869C34.9377 97.7962 34.9803 97.8056 35.0275 97.815C35.1031 97.829 35.1786 97.8431 35.2495 97.8571C35.2873 97.8618 35.3203 97.8712 35.3581 97.8759C35.4668 97.8946 35.5801 97.9133 35.6888 97.9321C35.7974 97.9508 35.9107 97.9695 36.0336 97.9883C36.2744 98.0257 36.5295 98.0726 36.8034 98.1194C36.9404 98.1428 37.0821 98.1663 37.2238 98.1944C37.9465 98.3208 38.7494 98.466 39.5619 98.6159C40.7143 98.8267 41.8999 99.0515 42.9154 99.2435C43.3216 99.3184 43.6995 99.4121 44.0537 99.5105C45.1165 99.8149 45.91 100.227 46.3351 100.7C46.4201 100.794 46.5098 100.887 46.5996 100.981C46.6279 101.009 46.661 101.037 46.6893 101.07C46.7507 101.131 46.8168 101.192 46.883 101.253C46.9208 101.286 46.9585 101.318 47.0011 101.351C47.0625 101.403 47.1239 101.459 47.19 101.51C47.2325 101.543 47.275 101.576 47.3175 101.609C47.3789 101.66 47.445 101.707 47.5112 101.759C47.5537 101.791 47.6009 101.824 47.6481 101.857C47.7143 101.904 47.7804 101.951 47.8465 101.998C47.8938 102.03 47.9363 102.058 47.9835 102.091C48.0543 102.138 48.1205 102.18 48.1913 102.227C48.2386 102.255 48.2858 102.283 48.333 102.316C48.4086 102.363 48.4794 102.405 48.555 102.447C48.6022 102.475 48.6448 102.499 48.692 102.527C48.7723 102.574 48.8526 102.616 48.9282 102.658C48.9707 102.681 49.0132 102.705 49.0557 102.728C49.1407 102.775 49.2304 102.817 49.3155 102.864C49.3533 102.883 49.391 102.901 49.4288 102.92C49.528 102.967 49.6272 103.019 49.7264 103.065C49.7547 103.079 49.7831 103.093 49.8067 103.103C50.1987 103.286 50.6002 103.449 50.9922 103.599C50.9922 103.599 50.997 103.599 51.0017 103.599C51.1292 103.646 51.2567 103.693 51.3843 103.74C51.4032 103.745 51.4221 103.754 51.441 103.759C51.5496 103.796 51.6629 103.838 51.7716 103.876C51.7952 103.885 51.8235 103.894 51.8472 103.899C51.9511 103.932 52.0503 103.969 52.1542 103.997C52.1825 104.007 52.2108 104.016 52.2392 104.026C52.3384 104.058 52.4328 104.086 52.532 104.115C52.5604 104.124 52.5887 104.133 52.6171 104.138C52.7115 104.166 52.806 104.194 52.9004 104.222C52.9288 104.232 52.9571 104.236 52.9807 104.246C53.0752 104.274 53.1697 104.297 53.2641 104.325C53.2878 104.33 53.3114 104.339 53.335 104.344C53.4295 104.372 53.5239 104.396 53.6184 104.419C53.6184 104.419 53.6231 104.419 53.6278 104.419C54.6386 105.693 56.5327 106.55 58.9274 106.986C58.9557 106.99 58.9841 106.995 59.0124 107C59.2486 107.042 59.4847 107.079 59.7303 107.112C59.9901 107.15 60.2546 107.178 60.5239 107.206C60.7317 107.224 60.9442 107.243 61.1568 107.257C61.2182 107.257 61.2749 107.267 61.3363 107.271C64.0994 107.445 67.2357 107.15 70.457 106.475C70.4995 106.466 70.5467 106.456 70.5892 106.447C70.8206 106.4 71.0474 106.349 71.2788 106.292C71.4063 106.264 71.5386 106.236 71.6661 106.203C71.8078 106.171 71.9495 106.133 72.0912 106.1C72.3227 106.044 72.5494 105.988 72.7808 105.927C72.8186 105.918 72.8564 105.908 72.8942 105.899C77.1829 104.761 81.4339 103.014 84.9575 100.864C87.0263 100.738 89.0337 100.447 90.7766 99.9929C92.0802 99.6557 93.1004 99.2388 93.8184 98.7845C93.8845 98.747 93.9459 98.7049 94.0073 98.6627C94.7158 98.1944 95.0606 97.6932 95.0464 97.1967C95.0464 97.1639 95.0464 97.1265 95.0464 97.0937C95.0417 97.0515 95.0323 97.0094 95.0228 96.9626C94.9992 96.8689 94.9709 96.7799 94.9236 96.6862C94.5599 96.0071 93.4972 95.3607 91.7449 94.8455C91.6929 94.8315 91.6409 94.8174 91.589 94.8034C93.0721 92.4662 93.0579 90.3914 91.7212 88.8551C91.7307 88.8551 91.7354 88.8598 91.7354 88.8598C91.7071 88.827 91.6693 88.7942 91.6409 88.7567L91.6457 88.7661Z" fill="var(--sapContent_Illustrative_Color21)"/>
<path d="M55.6493 49.8365L55.0022 47.6961C54.4543 45.8788 55.2336 43.9257 56.8915 42.9796L57.6425 42.5487C59.324 41.5839 61.4589 41.9164 62.7626 43.3496L64.2126 44.9374C64.8833 45.4994 66.2011 45.3823 67.0466 45.6165C67.4811 45.743 67.9676 45.9584 68.3077 46.3472C69.1721 47.3401 68.7564 48.4876 68.7564 48.4876C68.7564 48.4876 66.7443 49.9958 62.994 52.1456C59.2437 54.2954 57.0426 55.1946 57.0426 55.1946C57.0426 55.1946 55.9185 55.026 55.4084 54.1502C54.9455 53.3586 55.125 52.7826 55.2242 52.2955C55.38 51.4899 55.8996 50.6796 55.6587 49.8412L55.6493 49.8365Z" fill="var(--sapContent_Illustrative_Color16)"/>
<path d="M55.6495 49.8366L55.0024 47.6962C54.4545 45.8789 55.2339 43.9258 56.8917 42.9797L57.6427 42.5488C57.6427 49.1927 58.6835 51.1865 62.9942 52.1457C59.2439 54.2955 57.0429 55.1948 57.0429 55.1948C57.0429 55.1948 55.9187 55.0261 55.4086 54.1503C54.9457 53.3588 55.1252 52.7827 55.2244 52.2956C55.3803 51.49 55.8998 50.6797 55.659 49.8413L55.6495 49.8366Z" fill="var(--sapContent_Illustrative_Color29)"/>
<path d="M57.9357 95.7946C57.9357 95.7946 54.6767 89.8088 58.2569 80.5726C58.9749 78.7226 58.989 76.6758 58.3136 74.8117C57.3359 72.1279 55.9378 68.3763 55.0451 66.3483C53.1794 62.1189 53.1841 53.4307 60.8264 49.1264C68.4687 44.8221 74.7223 47.4028 78.0192 50.3301C81.3161 53.2574 86.5306 61.6974 89.3079 61.8707C92.0852 62.044 99.8125 62.5592 103.681 67.641C107.545 72.7228 57.9405 95.7993 57.9405 95.7993L57.9357 95.7946Z" fill="var(--sapContent_Illustrative_Color26)"/>
<path d="M62.5639 88.9262C62.2805 84.6969 62.8945 79.5635 66.6354 74.8799C70.3762 70.1962 71.7271 69.3063 67.6792 69.1892C62.6111 69.044 60.3298 65.6202 58.8655 62.6789C55.9701 56.8664 58.8655 50.4404 58.8655 50.4404C53.1928 55.0164 53.344 62.5103 55.0397 66.3415C55.9371 68.3696 57.3352 72.1212 58.3082 74.8049C58.9883 76.669 58.9694 78.7158 58.2515 80.5658C54.9546 89.0808 57.4627 94.8323 57.8784 95.6754C58.9647 94.1954 62.6678 90.4578 62.5639 88.9215V88.9262Z" fill="var(--sapContent_Illustrative_Color15)"/>
<path d="M76.6208 57.2322C78.6849 64.9087 77.5229 64.7823 79.9743 65.6769C82.4257 66.5714 89.1045 63.9205 93.5208 65.6769C97.937 67.4332 99.6233 70.2809 99.6233 70.2809L103.454 69.48C103.931 68.7353 104.035 68.1077 103.676 67.6393C99.8122 62.5575 92.0849 62.0423 89.3028 61.869C86.5255 61.6957 81.3157 53.2558 78.0142 50.3285C75.1188 47.7618 69.9515 45.4574 63.5703 47.8367C66.4988 48.4925 74.9251 50.9092 76.6208 57.2322Z" fill="var(--sapContent_Illustrative_Color27)"/>
<path d="M90.8164 99.2945C105.605 90.8281 114.388 78.4604 110.435 71.6704C106.481 64.8804 91.2884 66.2395 76.5002 74.7059C61.712 83.1723 52.9287 95.54 56.882 102.33C60.8353 109.12 76.0283 107.761 90.8164 99.2945Z" fill="var(--sapContent_Illustrative_Color3)"/>
<path d="M105.569 74.8851C103.052 70.5574 90.45 73.2364 79.3502 79.5922C68.2505 85.9479 59.7343 95.704 62.2802 100.013C64.8261 104.322 77.3711 101.61 88.4709 95.2544C99.5707 88.8986 108.091 79.2081 105.569 74.8851Z" fill="var(--sapContent_Illustrative_Color29)"/>
<path d="M105.569 74.8851C103.052 70.5574 90.4498 73.2364 79.3501 79.5922C78.8872 79.8591 78.429 80.1261 77.9756 80.4025C79.7846 79.7655 102.239 72.0936 102.154 84.2759C105.338 80.5289 106.826 77.0396 105.574 74.8804L105.569 74.8851Z" fill="var(--sapContent_Illustrative_Color30)"/>
<path d="M110.439 71.6671C108.427 68.2058 102.697 65.9858 94.0066 67.9623C94.0066 67.9623 102.451 66.759 106.278 72.7456C108.725 76.5721 111.225 77.1225 111.225 77.1225C111.429 76.0832 111.649 73.7649 110.444 71.6671H110.439Z" fill="var(--sapContent_Illustrative_Color28)"/>
<path d="M60.0425 100.147C56.944 93.7115 64.95 83.1592 64.95 83.1592C56.2496 91.2292 54.4595 98.161 56.8826 102.32C60.7368 108.938 75.4404 107.823 89.8654 99.9268L97.8383 94.8169C87.7352 102.156 64.3643 109.121 60.0425 100.142V100.147Z" fill="var(--sapContent_Illustrative_Color16)"/>
<path d="M81.1596 78.5492L77.8545 80.4414L82.6486 88.6755L85.9537 86.7833L81.1596 78.5492Z" fill="var(--sapContent_Illustrative_Color16)"/>
<path d="M96.7778 92.3259L97.3893 95.0447C104.751 89.9184 110.222 83.0447 111.228 77.142C111.239 77.0765 110.602 76.9367 109.998 76.5747C107.142 85.4207 100.05 90.052 96.7778 92.3259Z" fill="var(--sapContent_Illustrative_Color26)"/>
<path d="M88.4288 104.15C93.6252 104.15 97.8376 99.9734 97.8376 94.8206C97.8376 89.6679 93.6252 85.4907 88.4288 85.4907C83.2325 85.4907 79.02 89.6679 79.02 94.8206C79.02 99.9734 83.2325 104.15 88.4288 104.15Z" fill="var(--sapContent_Illustrative_Color3)"/>
<path d="M88.1983 104.247C91.4384 104.247 94.5322 102.528 96.2232 100.055C83.9237 102.168 80.5229 93.9479 81.7226 88.29C80.0553 89.9715 78.8083 92.2805 78.8083 94.8285C78.8083 100.44 83.0026 104.252 88.1983 104.252V104.247Z" fill="var(--sapContent_Illustrative_Color16)"/>
<path d="M95.1669 90.9251C95.6054 89.2956 94.0852 87.4783 91.7714 86.8661C89.4577 86.2539 87.2266 87.0786 86.7881 88.7082C86.3496 90.3377 87.8698 92.155 90.1836 92.7672C92.4973 93.3794 94.7284 92.5547 95.1669 90.9251Z" fill="var(--sapContent_Illustrative_Color26)"/>
<path d="M94.1774 67.9805C88.2316 68.7123 76.7581 73.5199 71.1127 77.9866C83.6377 71.1194 96.301 68.4951 104.424 70.6254C103.865 70.0975 102.81 69.3526 100.466 68.4951C98.5911 67.809 95.4924 67.8662 94.1774 67.9805Z" fill="var(--sapContent_Illustrative_Color27)"/>
<path d="M102.289 67.1107C102.289 67.1107 99.8601 67.6122 98.8573 67.583C97.8593 67.5489 94.0669 67.583 94.0669 67.583C94.0669 67.583 94.2616 66.5606 95.9363 66.6775C97.6159 66.7943 98.4045 65.9326 98.4045 65.9326L102.289 67.1107Z" fill="var(--sapContent_Illustrative_Color26)"/>
<path d="M118.265 70.9449C118.265 70.9449 124.01 80.3942 123.65 81.1683C123.289 81.9423 122.452 79.9171 122.452 79.9171C122.452 79.9171 121.581 81.5821 120.962 80.5695C120.344 79.5617 119.234 79.479 118.26 77.5463C117.292 75.6136 115.714 72.0257 114.512 71.1153C113.314 70.2001 111.469 68.4621 110.369 68.4718C109.274 68.4816 98.1204 69.6792 95.2335 63.5159C95.2335 63.5159 94.9608 62.9415 94.8878 63.2044C94.7759 63.623 94.3328 61.6855 94.3328 61.6855L94.3669 62.5666C94.3669 62.6494 94.2647 62.6737 94.2306 62.6056C94.0359 62.2307 93.7243 61.5881 93.7194 61.2911C93.7194 60.9698 93.5637 61.2473 93.3981 61.1159C93.33 61.0575 93.3008 60.965 93.291 60.8773C93.2424 60.5658 93.3251 60.2347 93.257 59.928C93.1985 59.67 93.0379 59.4412 92.8237 59.2903C92.7799 59.2611 92.7409 59.2319 92.7117 59.1929C92.6922 59.1637 92.6874 59.1248 92.6776 59.0907C92.6192 58.7742 92.6095 58.4481 92.6582 58.1268C92.6776 57.9758 92.7166 57.8201 92.6971 57.6691C92.6776 57.5036 92.5997 57.3478 92.5511 57.1921C92.4537 56.8756 92.4683 56.53 92.5511 56.2087C92.663 55.7462 92.887 55.3372 92.9843 54.8699C93.0428 54.5729 93.0622 54.2662 93.0914 53.9644C93.1499 53.4191 93.3787 53.1271 93.919 53.0053C94.0018 52.9859 94.0797 52.9761 94.1673 52.9615C95.7446 52.7327 93.5734 50.43 93.5734 50.43C93.5734 50.43 91.8306 47.9424 94.6785 44.6904C97.2976 41.7012 104.386 41.156 107.385 47.3874C107.896 48.4535 108.743 49.3249 109.799 49.8312C111.08 50.4446 112.725 51.5205 113.494 53.2098C114.215 54.8017 114.668 55.6293 114.93 56.048C115.013 56.1795 114.882 56.3401 114.741 56.2817L114.38 56.1454L115.481 58.6525C115.539 58.784 115.408 58.9203 115.271 58.8619L114.682 58.6038C114.682 58.6038 117.408 62.5374 117.209 63.55C117.077 64.2121 116.634 63.5062 116.634 63.5062C116.634 63.5062 117.993 66.1497 118.762 66.8653C119.531 67.5809 121.649 69.5428 121.415 70.1708C121.181 70.7989 117.438 68.467 117.438 68.467L119.18 71.4415L118.26 70.9498L118.265 70.9449Z" fill="var(--sapContent_Illustrative_Color14)"/>
<path d="M94.2492 51.7429C95.1841 52.5795 98.8623 53.1577 100.585 53.3422L109.688 49.7129C109.175 49.5899 108.066 48.7828 107.104 46.8221C105.602 43.7605 102.43 42.0861 98.9238 42.5782C95.4179 43.0702 93.879 45.0224 93.264 46.641C92.6519 48.252 93.0806 50.6972 94.2492 51.7429Z" fill="var(--sapContent_Illustrative_Color13)"/>
<path d="M117.438 68.4573C115.267 68.4622 113.262 67.8536 111.475 66.7631C109.098 65.6196 107.493 64.4344 105.526 63.1638C104.334 62.3946 103.008 61.3427 102.053 60.2863C100.817 58.9183 100.076 56.7053 99.672 54.9235C99.375 53.6091 99.6499 51.7445 101.042 51.063C101.101 51.0338 101.368 50.878 101.422 50.9121C103.087 51.9003 102.089 54.3734 102.722 54.9235C103.004 55.1621 104.182 58.4822 107.283 59.2027C109.075 59.6214 119.064 68.4476 117.443 68.4524L117.438 68.4573Z" fill="var(--sapContent_Illustrative_Color22)"/>
<path d="M105.837 49.6199C106.572 48.8605 107.687 48.6414 108.519 48.9285C109.128 49.4298 109.6 49.6636 110.067 49.8973C110.627 50.1748 111.178 50.4473 111.927 51.1678C112.324 51.4903 112.706 51.8525 112.983 52.1932C113.628 52.9858 115.152 56.1924 115.098 56.4197C115.053 56.599 114.641 56.3455 114.44 56.1961C114.827 57.0173 115.599 58.7212 115.587 58.9676C115.576 59.2136 115.033 58.8653 114.762 58.66C115.038 58.9963 115.753 59.9924 116.414 61.2908C117.239 62.9143 117.31 63.3065 117.156 63.7264C117.087 63.9145 116.944 63.8932 116.802 63.8035C117.122 64.2832 117.461 64.8059 117.72 65.2127C118.64 66.381 119.39 67.2136 119.964 67.8514C120.938 68.9321 121.42 69.4628 121.42 70.1639C121.104 70.9223 117.453 68.4663 117.443 68.4598C108.096 64.2732 102.814 59.4538 100.545 54.576C98.8903 51.0221 102.186 50.443 104.094 50.3846C104.751 50.365 105.379 50.0968 105.837 49.6248V49.6199Z" fill="var(--sapContent_Illustrative_Color13)"/>
<path d="M92.5574 57.1837C92.46 56.8672 92.4746 56.5216 92.5574 56.2003C92.6694 55.7378 92.8933 55.3288 92.9907 54.8615C93.0491 54.5645 93.0686 54.2578 93.0978 53.956C93.1562 53.4107 93.385 53.1187 93.9254 52.9969C93.9692 52.9872 94.013 52.9775 94.0568 52.9726C94.0666 52.9872 94.1152 52.9921 94.1785 52.9872L94.4658 51.5998L97.1579 49.7498C97.2796 49.779 97.4013 49.7985 97.5279 49.7985C98.2922 49.7985 98.9251 49.2192 99.0176 48.4743L102.002 46.4199C102.002 46.4199 97.9612 53.0554 95.8289 53.2355C95.3859 53.2744 95.0548 53.2939 94.8065 53.2939C94.5242 53.2939 94.3295 53.5714 94.4073 53.844C95.8289 54.5645 95.5124 56.1613 95.751 57.7776C95.824 58.279 96.0382 58.7756 96.2232 59.2429C96.4812 59.8953 96.7879 60.5281 97.1579 61.1269C99.1442 64.34 100.386 62.6312 102.435 64.1501C103.272 64.7684 103.594 66.1851 104.567 66.5551C105.439 66.891 106.539 67.2463 107.469 67.2756C109.183 67.3291 111.013 66.112 112.435 67.2756C115 68.7799 116.207 71.1604 117.551 73.7309C118.306 75.1719 119.119 77.2506 120.277 78.4434C120.579 78.7501 121.012 77.9663 120.74 77.051C121.246 77.5525 122.103 78.9594 122.804 78.9253C123.388 80.084 123.758 80.9602 123.656 81.1744C123.296 81.9485 122.458 79.9233 122.458 79.9233C122.458 79.9233 122.03 82.6933 120.949 83.0195C119.863 83.3408 118.52 80.0207 117.551 78.088C116.582 76.1553 115.414 73.9986 114.031 71.5596C113.077 70.2306 111.485 68.4732 110.385 68.4829C109.29 68.4926 98.1364 69.6902 95.2496 63.527C95.2496 63.527 94.9769 62.9525 94.9039 63.2154C94.7919 63.6341 94.3489 61.7014 94.3489 61.7014L94.383 62.5826C94.383 62.6653 94.2808 62.6897 94.2467 62.6215C94.052 62.2466 93.7404 61.604 93.7355 61.3071C93.7355 60.9858 93.5749 61.2633 93.4093 61.1318C93.3412 61.0734 93.312 60.9809 93.2974 60.8933C93.2487 60.5817 93.3315 60.2507 93.2633 59.944C93.2097 59.6859 93.0442 59.4571 92.83 59.3062C92.7862 59.277 92.7473 59.2478 92.7181 59.2088C92.6986 59.1796 92.6888 59.1407 92.684 59.1066C92.6256 58.7902 92.6158 58.464 92.6645 58.1427C92.684 57.9918 92.7229 57.836 92.7035 57.6851C92.684 57.5196 92.6061 57.3638 92.5574 57.208H92.572L92.5574 57.1837Z" fill="var(--sapContent_Illustrative_Color22)"/>
<path d="M95.0642 50.6645L96.7876 49.5935C97.0066 49.7152 97.2549 49.7882 97.5227 49.7882C98.3551 49.7882 99.0221 49.1115 99.0221 48.2742V48.2206L101.997 46.4048C101.997 46.4048 99.2265 48.43 99.1243 48.7805C99.0221 49.131 98.5791 50.0901 97.4934 49.9537C96.4127 49.8223 96.5733 50.9128 96.5733 50.9128L95.0544 50.6596L95.0642 50.6645Z" fill="var(--sapContent_Illustrative_Color22)"/>
<path d="M94.8448 50.6953C94.8448 50.6953 96.6363 50.4129 96.5779 50.9192C96.5195 51.4255 95.8574 53.8061 92.1234 53.4215L93.3454 52.443L91.6999 53.0515C91.6999 53.0515 91.3786 52.4187 92.7514 51.2016C94.1389 49.7995 94.1779 49.7703 94.3531 50.2085C94.5284 50.6466 94.8399 50.6953 94.8399 50.6953H94.8448Z" fill="var(--sapContent_Illustrative_Color26)"/>
</svg>