<svg width="45" height="45" viewBox="0 0 45 45" fill="none" xmlns="http://www.w3.org/2000/svg" id="sapIllus-Dot-AddingColumns">
<path d="M35.9579 38.0599L25.0386 34.9187C25.0123 34.9088 24.986 34.9039 24.9597 34.9113L0.728496 37.6866C-0.0438478 37.7957 -0.116633 38.0608 0.1179 38.1996L11.0595 41.4547C11.5346 41.653 12.0401 41.7 12.5334 41.591L35.2705 38.5034C35.9842 38.387 36.1278 38.1268 35.9579 38.0599Z" fill="var(--sapContent_Illustrative_Color21)"/>
<path d="M30.551 13.1919L38.1123 34.9098C38.2735 35.739 37.3963 36.3725 36.8799 36.4166L13.2267 39.772C12.8235 39.8066 12.455 39.5398 12.3628 39.1443L6.74994 15.6259C6.55031 14.6585 7.35462 13.499 7.86331 13.476L29.7333 12.6122C30.1057 12.5949 30.4435 12.833 30.551 13.1919Z" fill="var(--sapContent_Illustrative_Color14)"/>
<path d="M31.1726 12.5283L38.0774 34.7222C38.2271 35.2194 37.8835 35.7281 37.3652 35.7722L13.8483 39.1084C13.4451 39.143 13.0766 38.8762 12.9844 38.4807L7.25636 14.4767C7.13927 13.9795 7.50399 13.4996 8.0146 13.4747L30.3548 11.9467C30.7272 11.9294 31.0651 12.1674 31.1726 12.5264V12.5283Z" fill="var(--sapContent_Illustrative_Color2)"/>
<path d="M29.5939 17.4166L13.3539 18.6966C13.1439 18.7166 12.9439 18.6066 12.9139 18.4666L12.6339 17.2666C12.6039 17.1266 12.7439 16.9966 12.9539 16.9766L29.1239 15.7966C29.3139 15.7866 29.4939 15.8866 29.5339 16.0166L29.8639 17.1466C29.9039 17.2866 29.7839 17.4066 29.5939 17.4266V17.4166Z" fill="var(--sapContent_Illustrative_Color8)"/>
<path d="M28.7702 25.3627L15.2535 26.7565C15.0435 26.7765 14.8335 26.6765 14.8035 26.5165L14.5035 25.2565C14.4635 25.1065 14.6135 24.9665 14.8235 24.9465L28.2702 23.6627C28.4602 23.6427 28.6502 23.7427 28.6902 23.8927L29.0402 25.0827C29.0802 25.2227 28.9602 25.3427 28.7702 25.3627Z" fill="var(--sapContent_Illustrative_Color8)"/>
<path d="M31.0598 33.4383L17.2542 35.2566C17.0342 35.2866 16.8242 35.1766 16.7842 35.0166L16.4742 33.6766C16.4342 33.5166 16.5842 33.3666 16.8042 33.3366L30.5298 31.6383C30.7198 31.6183 30.9198 31.7183 30.9598 31.8683L31.3298 33.1183C31.3698 33.2683 31.2498 33.4183 31.0598 33.4383Z" fill="var(--sapContent_Illustrative_Color8)"/>
<path d="M23.3777 21.8112L14.2938 22.6668C14.0838 22.6868 13.8838 22.5768 13.8438 22.4268L13.5538 21.1968C13.5238 21.0468 13.6638 20.9168 13.8738 20.8968L22.9077 20.1212C23.0977 20.1012 23.2877 20.2012 23.3277 20.3512L23.6577 21.5212C23.6977 21.6612 23.5777 21.7912 23.3777 21.8112Z" fill="var(--sapContent_Illustrative_Color8)"/>
<path d="M25.5423 29.8114L16.244 30.9472C16.024 30.9772 15.824 30.8672 15.784 30.7072L15.484 29.4072C15.444 29.2472 15.594 29.1072 15.804 29.0772L25.0423 28.0314C25.2423 28.0114 25.4323 28.1114 25.4723 28.2614L25.8223 29.4914C25.8623 29.6414 25.7423 29.7914 25.5423 29.8114Z" fill="var(--sapContent_Illustrative_Color8)"/>
<path d="M43.7615 19.1485C43.7615 19.1485 41.3862 22.3757 36.7729 22.9751C32.1597 23.5744 25.8315 20.1597 24.1782 14.9063C22.3815 9.19703 25.6686 5.28454 31.2855 4.06708C36.4278 3.65707 43.7615 19.1485 43.7615 19.1485Z" fill=" var(--sapContent_Illustrative_Color16)"/>
<path d="M44.3852 11.9419C46.295 16.9413 43.6181 21.6392 38.2297 22.2926C32.7091 22.9618 26.752 19.121 25.0987 13.865C23.501 8.78886 26.6012 4.45339 31.8599 4.0328C37.0023 3.6228 42.5388 7.10123 44.3878 11.9393L44.3852 11.9419Z" fill="var(--sapContent_Illustrative_Color15)"/>
<path d="M40.1566 11.5896C40.1089 11.4628 39.9817 11.3839 39.8469 11.3978L35.9359 11.7988C35.7998 11.8127 35.6717 11.7324 35.6251 11.6038L34.3665 8.13406C34.3203 8.00672 34.1941 7.92649 34.0592 7.93873L31.9953 8.12586C31.8014 8.14344 31.676 8.33916 31.7412 8.52268L32.8834 11.7397C32.9481 11.9219 32.8251 12.1165 32.6328 12.1362L28.8344 12.5259C28.6435 12.5454 28.5205 12.7376 28.5826 12.9191L29.2226 14.7895C29.2678 14.9216 29.3985 15.0046 29.5373 14.9894L33.6353 14.5398C33.7728 14.5248 33.9026 14.6062 33.9489 14.7365L35.2363 18.36C35.283 18.4915 35.4147 18.5731 35.5533 18.5562L37.6655 18.2998C37.856 18.2767 37.9754 18.0824 37.91 17.902L36.7026 14.5753C36.6367 14.3936 36.7584 14.1981 36.9505 14.1771L40.5812 13.7796C40.7747 13.7584 40.8964 13.5606 40.828 13.3783L40.1566 11.5896Z" fill="var(--sapContent_Illustrative_Color8)"/>
</svg>
