<svg width="104" height="128" viewBox="0 0 104 128" fill="none" xmlns="http://www.w3.org/2000/svg" id="sapIllus-Spot-SimpleReload">
<path d="M18.1441 7.89161L1.84199 106.152C1.1189 110.51 4.06589 114.629 8.42429 115.352L76.7654 126.691C81.1238 127.414 85.2431 124.467 85.9662 120.108L102.268 21.8485C102.991 17.4901 100.044 13.3707 95.686 12.6476L27.3449 1.3093C22.9865 0.586209 18.8672 3.53321 18.1441 7.89161Z" fill="var(--sapContent_Illustrative_Color3)"/>
<path d="M75.3351 5.97641H8.98968C4.57171 5.97641 0.990234 9.55789 0.990234 13.9759V109.599C0.990234 114.017 4.57171 117.599 8.98968 117.599H75.3351C79.7531 117.599 83.3346 114.017 83.3346 109.599V13.9759C83.3346 9.55789 79.7531 5.97641 75.3351 5.97641Z" fill="var(--sapContent_Illustrative_Color8)"/>
<path d="M75.3448 118.599H8.99938C6.6126 118.599 4.32352 117.65 2.63581 115.963C0.948094 114.275 0 111.986 0 109.599V13.9758C0 11.589 0.948094 9.29996 2.63581 7.61225C4.32352 5.92453 6.6126 4.97641 8.99938 4.97641H75.3448C77.7316 4.97641 80.0207 5.92453 81.7084 7.61225C83.3961 9.29996 84.3442 11.589 84.3442 13.9758V109.599C84.3442 111.986 83.3961 114.275 81.7084 115.963C80.0207 117.65 77.7316 118.599 75.3448 118.599V118.599ZM8.99938 6.97627C7.14299 6.97627 5.36256 7.7137 4.04989 9.02636C2.73723 10.339 1.99986 12.1194 1.99986 13.9758V109.599C1.99986 111.456 2.73723 113.236 4.04989 114.549C5.36256 115.861 7.14299 116.599 8.99938 116.599H75.3448C77.2012 116.599 78.9815 115.861 80.2942 114.549C81.6068 113.236 82.3443 111.456 82.3443 109.599V13.9758C82.3443 12.1194 81.6068 10.339 80.2942 9.02636C78.9815 7.7137 77.2012 6.97627 75.3448 6.97627H8.99938Z" fill="var(--sapContent_Illustrative_Color4)"/>
<path d="M42.4169 81.4208C53.2852 81.4208 62.0956 72.6104 62.0956 61.7422C62.0956 50.8739 53.2852 42.0635 42.4169 42.0635C31.5487 42.0635 22.7383 50.8739 22.7383 61.7422C22.7383 72.6104 31.5487 81.4208 42.4169 81.4208Z" fill="var(--sapContent_Illustrative_Color14)"/>
<path d="M44.0971 59.0125C44.0886 59.1999 44.1192 59.3871 44.1871 59.562C44.2549 59.7369 44.3585 59.8958 44.4911 60.0284C44.6238 60.1611 44.7826 60.2647 44.9575 60.3325C45.1325 60.4003 45.3196 60.4309 45.5071 60.4224H51.9066C52.0936 60.431 52.2803 60.4004 52.4547 60.3325C52.6291 60.2646 52.7874 60.1608 52.9193 60.028C53.0512 59.8952 53.1538 59.7362 53.2205 59.5612C53.2872 59.3863 53.3164 59.1994 53.3064 59.0125V52.513C53.3164 52.326 53.2872 52.1391 53.2205 51.9642C53.1538 51.7893 53.0512 51.6302 52.9193 51.4974C52.7874 51.3646 52.6291 51.2609 52.4547 51.1929C52.2803 51.125 52.0936 51.0944 51.9066 51.103C51.7192 51.0945 51.532 51.1251 51.3571 51.193C51.1822 51.2608 51.0234 51.3644 50.8907 51.497C50.7581 51.6297 50.6545 51.7885 50.5867 51.9634C50.5188 52.1384 50.4882 52.3255 50.4967 52.513V54.8628C49.4476 53.6842 48.1618 52.7402 46.723 52.0923C45.2843 51.4445 43.7251 51.1074 42.1473 51.103C39.1859 51.1057 36.3464 52.2833 34.2523 54.3773C32.1583 56.4714 30.9807 59.3108 30.978 62.2722C30.9807 65.2337 32.1583 68.0731 34.2523 70.1672C36.3464 72.2613 39.1859 73.4389 42.1473 73.4415C44.6854 73.4295 47.1454 72.5624 49.1302 70.9804C51.115 69.3983 52.5087 67.1936 53.0865 64.7221C53.1241 64.5311 53.1232 64.3345 53.0837 64.1439C53.0442 63.9533 52.9669 63.7725 52.8565 63.6122C52.755 63.4614 52.6236 63.333 52.4706 63.235C52.3175 63.137 52.146 63.0713 51.9666 63.0422C51.7756 63.0046 51.579 63.0056 51.3884 63.0451C51.1978 63.0846 51.017 63.1618 50.8567 63.2722C50.707 63.3726 50.5793 63.5023 50.4813 63.6536C50.3833 63.8049 50.3171 63.9745 50.2866 64.1521C49.8749 65.999 48.8422 67.6488 47.3609 68.8262C45.8797 70.0036 44.0394 70.6373 42.1473 70.6217C39.9328 70.6191 37.8095 69.7388 36.2427 68.1739C34.6758 66.6089 33.7931 64.4868 33.7878 62.2722C33.7904 60.056 34.672 57.9313 36.2391 56.3642C37.8063 54.7971 39.9311 53.9155 42.1473 53.9128C43.5136 53.9107 44.859 54.2476 46.0632 54.8933C47.2673 55.539 48.2924 56.4733 49.0467 57.6126H45.3971C45.2185 57.615 45.0422 57.6536 44.8789 57.726C44.7157 57.7985 44.5688 57.9034 44.4473 58.0342C44.3258 58.1651 44.2321 58.3193 44.1719 58.4875C44.1117 58.6556 44.0863 58.8342 44.0971 59.0125Z" fill="var(--sapContent_Illustrative_Color8)"/>
</svg>
