<svg width="161" height="161" viewBox="0 0 161 161" fill="none" xmlns="http://www.w3.org/2000/svg" id="sapIllus-Dialog-EmptyCalendar">
<path d="M147.624 79.9556C147.635 68.7385 145.095 57.6701 140.198 47.592C135.301 37.514 128.178 28.6918 119.373 21.8045H98.4984C97.1508 21.8045 95.856 21.2632 94.9035 20.3046C93.951 19.346 93.4148 18.0478 93.4112 16.6929V8.78333C87.1669 7.08892 80.725 6.23288 74.2584 6.23641C58.0866 6.21165 42.3665 11.5849 29.5603 21.5073V47.7477C29.5603 49.1025 29.0205 50.4043 28.068 51.3629C27.1155 52.3215 25.8207 52.8592 24.4731 52.8627H6.02233C2.62851 61.4975 0.889278 70.7018 0.899862 79.9874C0.875167 96.6238 6.47037 112.776 16.7753 125.797L16.1932 102.011C16.1932 101.902 16.2108 101.792 16.2496 101.693C16.2884 101.59 16.3484 101.498 16.426 101.42C16.5036 101.343 16.5918 101.283 16.6941 101.24C16.7964 101.198 16.9023 101.176 17.0116 101.18L18.4545 101.198L18.4369 100.448C18.4369 100.338 18.4545 100.232 18.4934 100.129C18.5357 100.027 18.5957 99.9383 18.6697 99.8605C18.7474 99.7827 18.8391 99.7225 18.9379 99.6836C19.0402 99.6447 19.146 99.6235 19.2554 99.627L54.0472 100.041C54.2554 100.041 54.4529 100.126 54.6011 100.271C54.7493 100.416 54.8375 100.614 54.8445 100.823L56.0193 148.829C56.0193 148.935 56.0017 149.041 55.9629 149.14C55.9241 149.239 55.8641 149.331 55.79 149.405C55.7159 149.483 55.6277 149.543 55.5289 149.582C55.4302 149.624 55.3243 149.646 55.2185 149.646L53.7544 149.67L53.7826 150.81C60.4327 152.748 67.3226 153.728 74.2443 153.724C114.772 153.696 147.62 120.685 147.62 79.9591L147.624 79.9556Z" fill="var(--sapContent_Illustrative_Color7)"/>
<path d="M98.1245 18.9073C97.5954 18.7552 97.1297 18.4333 96.798 17.9947C96.4664 17.5525 96.2865 17.0148 96.283 16.463V9.60047H96.2548V16.6929C96.2548 17.2235 96.4452 17.74 96.7875 18.1433C97.1297 18.5501 97.6024 18.8189 98.1245 18.9073Z" fill="var(--sapContent_Illustrative_Color7)"/>
<path d="M98.4984 21.8045H119.373C118.138 20.8388 116.872 19.9084 115.577 19.017H98.8265C98.5866 19.017 98.3503 18.9781 98.1209 18.9073C97.5988 18.8189 97.1261 18.5465 96.7839 18.1433C96.4417 17.7365 96.2512 17.2235 96.2512 16.6929V9.60047C95.3128 9.30333 94.3638 9.03095 93.4077 8.76919V16.6965C93.4112 18.0513 93.951 19.3495 94.9035 20.3082C95.8561 21.2668 97.1508 21.8045 98.4984 21.8045Z" fill="var(--sapContent_Illustrative_Color18)"/>
<path d="M98.1244 18.9073C98.2479 18.9321 98.3713 18.9427 98.4983 18.9463H106.93C107.844 17.7223 108.867 16.5833 109.982 15.5433C105.628 13.0954 101.038 11.1039 96.2828 9.60047V16.463C96.2828 17.0148 96.4663 17.5561 96.7979 17.9947C97.1295 18.4369 97.5952 18.7552 98.1244 18.9073Z" fill="var(--sapContent_Illustrative_Color7)"/>
<path d="M98.1244 18.9073C98.2479 18.9321 98.3713 18.9427 98.4983 18.9463H106.93C107.844 17.7223 108.867 16.5833 109.982 15.5433C105.628 13.0954 101.038 11.1039 96.2828 9.60047V16.463C96.2828 17.0148 96.4663 17.5561 96.7979 17.9947C97.1295 18.4369 97.5952 18.7552 98.1244 18.9073Z" fill="var(--sapContent_Illustrative_Color19)"/>
<path d="M98.4985 18.9463C98.3715 18.9463 98.248 18.9321 98.1245 18.9073C98.3538 18.9781 98.5902 19.0135 98.8301 19.017H106.877L106.934 18.9463H98.4985Z" fill="var(--sapContent_Illustrative_Color8)"/>
<path opacity="0.5" d="M98.4985 18.9463C98.3715 18.9463 98.248 18.9321 98.1245 18.9073C98.3538 18.9781 98.5902 19.0135 98.8301 19.017H106.877L106.934 18.9463H98.4985Z" fill="var(--sapContent_Illustrative_Color18)"/>
<path d="M106.93 18.9463H115.471C113.696 17.7329 111.869 16.5974 109.982 15.5433C108.867 16.5833 107.844 17.7223 106.93 18.9463Z" fill="var(--sapContent_Illustrative_Color7)"/>
<path d="M106.93 18.9463H115.471C113.696 17.7329 111.869 16.5974 109.982 15.5433C108.867 16.5833 107.844 17.7223 106.93 18.9463Z" fill="var(--sapContent_Illustrative_Color20)"/>
<path d="M106.874 19.017H115.577L115.471 18.9463H106.93L106.874 19.017Z" fill="var(--sapContent_Illustrative_Color8)"/>
<path opacity="0.5" d="M106.874 19.017H115.577L115.471 18.9463H106.93L106.874 19.017Z" fill="var(--sapContent_Illustrative_Color20)"/>
<path d="M26.7027 47.7158V23.8031L26.6815 23.8208V47.9316C26.6921 47.8609 26.6992 47.7866 26.7027 47.7158Z" fill="var(--sapContent_Illustrative_Color7)"/>
<path d="M25.1716 49.8489C25.0693 49.8666 24.967 49.8772 24.8647 49.8772V25.4444C21.7108 28.338 18.8109 31.4969 16.1967 34.8893V40.3368H12.3795C10.4251 43.4215 8.69643 46.644 7.21472 49.9868H24.466C24.7059 49.9798 24.9458 49.9338 25.1716 49.8489Z" fill="var(--sapContent_Illustrative_Color7)"/>
<path d="M29.5568 47.7158V21.4755C28.5866 22.2219 27.6376 22.993 26.7098 23.7925V47.7052C26.7098 47.7724 26.6992 47.8432 26.6886 47.9104V48.0307C26.6886 48.4622 26.5369 48.8796 26.2582 49.2122C25.9795 49.5411 25.595 49.764 25.1716 49.8347C24.9458 49.9126 24.7059 49.955 24.466 49.9585H7.21473C6.79844 50.903 6.39627 51.8546 6.01526 52.8168H24.466C25.8137 52.8168 27.1049 52.2755 28.0574 51.3204C29.0099 50.3653 29.5497 49.0671 29.5568 47.7123V47.7158Z" fill="var(--sapContent_Illustrative_Color18)"/>
<path d="M25.1717 49.8489C25.5844 49.7109 25.9443 49.4562 26.2159 49.1131C26.4876 48.77 26.6499 48.3597 26.6887 47.9246V23.8102C26.0713 24.3372 25.461 24.8749 24.8647 25.4232V49.8666C24.9671 49.8666 25.0694 49.8666 25.1717 49.8489Z" fill="var(--sapContent_Illustrative_Color7)"/>
<path d="M25.1717 49.8489C25.5844 49.7109 25.9443 49.4562 26.2159 49.1131C26.4876 48.77 26.6499 48.3597 26.6887 47.9246V23.8102C26.0713 24.3372 25.461 24.8749 24.8647 25.4232V49.8666C24.9671 49.8666 25.0694 49.8666 25.1717 49.8489Z" fill="var(--sapContent_Illustrative_Color19)"/>
<path d="M25.1716 49.8489C25.595 49.7746 25.9795 49.5553 26.2582 49.2263C26.5369 48.8973 26.6886 48.4764 26.6886 48.0448V47.9245C26.6498 48.3596 26.484 48.7735 26.2159 49.1131C25.9478 49.4562 25.5844 49.7109 25.1716 49.8489Z" fill="var(--sapContent_Illustrative_Color8)"/>
<path opacity="0.2" d="M25.1716 49.8489C25.595 49.7746 25.9795 49.5553 26.2582 49.2263C26.5369 48.8973 26.6886 48.4764 26.6886 48.0448V47.9245C26.6498 48.3596 26.484 48.7735 26.2159 49.1131C25.9478 49.4562 25.5844 49.7109 25.1716 49.8489Z" fill="var(--sapContent_Illustrative_Color20)"/>
<path d="M16.2002 35.2218C16.2002 35.0378 16.1085 35.006 15.9992 35.1581L12.5737 40.0432C12.4678 40.1989 12.5349 40.3227 12.7218 40.3227H15.8616C15.9533 40.3227 16.045 40.2838 16.1121 40.2201C16.1791 40.1529 16.2144 40.0645 16.2144 39.969L16.2002 35.2218Z" fill="var(--sapContent_Illustrative_Color18)"/>
<path d="M17.0045 101.145C16.8952 101.145 16.7893 101.162 16.687 101.205C16.5847 101.247 16.4965 101.307 16.4189 101.385C16.3413 101.463 16.2813 101.555 16.2425 101.658C16.2037 101.76 16.1825 101.87 16.186 101.976L16.7682 125.761C17.5267 126.723 18.3134 127.664 19.1178 128.598L18.4474 101.169L17.0045 101.141V101.145Z" fill="var(--sapContent_Illustrative_Color7)"/>
<path d="M17.0045 101.145C16.8952 101.145 16.7893 101.162 16.687 101.205C16.5847 101.247 16.4965 101.307 16.4189 101.385C16.3413 101.463 16.2813 101.555 16.2425 101.658C16.2037 101.76 16.1825 101.87 16.186 101.976L16.7682 125.761C17.5267 126.723 18.3134 127.664 19.1178 128.598L18.4474 101.169L17.0045 101.141V101.145Z" fill="var(--sapContent_Illustrative_Color19)"/>
<path d="M50.3712 149.692C51.4966 150.081 52.6361 150.445 53.7862 150.778L53.758 149.639L50.3712 149.692Z" fill="var(--sapContent_Illustrative_Color7)"/>
<path opacity="0.5" d="M50.3712 149.692C51.4966 150.081 52.6361 150.445 53.7862 150.778L53.758 149.639L50.3712 149.692Z" fill="var(--sapContent_Illustrative_Color20)"/>
<path d="M55.2185 149.614C55.3243 149.614 55.4301 149.593 55.5289 149.55C55.6277 149.508 55.7159 149.448 55.79 149.373C55.8641 149.296 55.924 149.207 55.9628 149.108C56.0016 149.009 56.0228 148.903 56.0193 148.797L54.8445 100.791C54.8374 100.582 54.7492 100.384 54.6011 100.239C54.4529 100.094 54.2553 100.013 54.0472 100.009L19.2554 99.5987C19.146 99.5987 19.0402 99.6164 18.9379 99.6553C18.8391 99.6943 18.7474 99.7544 18.6697 99.8322C18.5921 99.91 18.5322 99.9985 18.4934 100.101C18.4545 100.2 18.4334 100.31 18.4369 100.419L18.4545 101.166L19.1248 128.595C20.6489 130.339 22.2505 132.008 23.9298 133.597L23.2242 104.403H23.1678V103.483H23.6934C23.7428 103.479 23.7887 103.479 23.8381 103.483L25.475 103.508L51.0697 103.589L52.128 144.304L51.3519 144.4V144.35L38.8033 144.541C42.504 146.596 46.3706 148.326 50.3676 149.713L53.7544 149.66L55.2255 149.617L55.2185 149.614Z" fill="var(--sapContent_Illustrative_Color18)"/>
<path d="M23.8265 103.454C23.7774 103.447 23.7318 103.447 23.6827 103.454H23.8265Z" fill="var(--sapContent_Illustrative_Color7)"/>
<path d="M50.1912 104.731L23.2065 104.403L23.9121 133.597C28.396 137.852 33.395 141.524 38.7927 144.524L51.3413 144.333L50.1912 104.731ZM44.4725 130.066C44.5819 130.339 44.8641 130.799 45.1781 131.382C45.291 131.584 45.4145 131.778 45.5556 131.962C45.9542 132.518 44.8782 134.495 43.1143 135.599C41.7878 136.426 37.8225 137.76 37.759 135.995C37.759 135.684 37.7202 135.234 37.6743 134.576C37.1981 134.806 36.676 134.927 36.1468 134.93C32.8517 134.93 30.1847 131.12 30.1847 126.419C30.1847 124.488 30.1353 122.705 30.5092 121.283C29.345 121.605 28.2267 121.258 27.9656 120.462C27.7681 119.868 28.1032 119.185 28.7524 118.69H27.9727C27.8633 118.69 27.7575 118.669 27.6552 118.626C27.5564 118.584 27.4647 118.524 27.3871 118.446C27.3095 118.368 27.2495 118.276 27.2071 118.177C27.1648 118.075 27.1436 117.968 27.1436 117.859C27.1436 117.509 27.2142 117.162 27.3447 116.84C27.4788 116.518 27.6728 116.224 27.9198 115.977C28.1667 115.729 28.4595 115.535 28.7771 115.4C29.0981 115.266 29.4438 115.199 29.7895 115.199H31.2854C31.6699 114.611 32.1779 114.12 32.7777 113.762C33.3774 113.405 34.0512 113.186 34.7462 113.129L37.3039 112.917C38.5175 112.814 39.7346 112.998 40.86 113.458C41.9854 113.918 42.9908 114.633 43.7917 115.552C44.5925 116.472 45.1675 117.565 45.4709 118.75C45.7743 119.932 45.7955 121.17 45.5344 122.365L44.3244 128.648C44.3103 128.729 44.2785 128.803 44.2291 128.867C44.1797 128.931 44.1197 128.984 44.0492 129.023C44.1586 129.345 44.2997 129.67 44.462 130.073L44.4725 130.066Z" fill="var(--sapContent_Illustrative_Color7)"/>
<path d="M23.6828 103.483H23.1748V104.403H23.2312V104.137C23.2242 103.992 23.263 103.851 23.3441 103.73C23.4253 103.614 23.5452 103.525 23.6828 103.483Z" fill="var(--sapContent_Illustrative_Color8)"/>
<path opacity="0.5" d="M23.6828 103.483H23.1748V104.403H23.2312V104.137C23.2242 103.992 23.263 103.851 23.3441 103.73C23.4253 103.614 23.5452 103.525 23.6828 103.483Z" fill="var(--sapContent_Illustrative_Color20)"/>
<path d="M51.045 104.487L52.0046 143.664C52.0046 143.749 51.994 143.834 51.9658 143.912C51.9376 143.989 51.8917 144.064 51.8353 144.124C51.7788 144.188 51.7083 144.237 51.6342 144.272C51.5566 144.308 51.4754 144.329 51.3908 144.329H51.3626V144.379L52.1387 144.283L51.0803 103.568L25.4856 103.486L50.4418 103.84C50.604 103.851 50.7593 103.921 50.8686 104.038C50.9815 104.158 51.0415 104.318 51.0415 104.48L51.045 104.487Z" fill="var(--sapContent_Illustrative_Color8)"/>
<path opacity="0.5" d="M51.045 104.487L52.0046 143.664C52.0046 143.749 51.994 143.834 51.9658 143.912C51.9376 143.989 51.8917 144.064 51.8353 144.124C51.7788 144.188 51.7083 144.237 51.6342 144.272C51.5566 144.308 51.4754 144.329 51.3908 144.329H51.3626V144.379L52.1387 144.283L51.0803 103.568L25.4856 103.486L50.4418 103.84C50.604 103.851 50.7593 103.921 50.8686 104.038C50.9815 104.158 51.0415 104.318 51.0415 104.48L51.045 104.487Z" fill="var(--sapContent_Illustrative_Color20)"/>
<path d="M51.3556 144.329H51.3838C51.4685 144.329 51.5496 144.304 51.6273 144.272C51.7049 144.241 51.7719 144.188 51.8283 144.124C51.8848 144.06 51.9271 143.989 51.9589 143.912C51.9871 143.834 52.0012 143.749 51.9977 143.664L51.0522 104.487C51.0522 104.321 50.9887 104.162 50.8758 104.045C50.7629 103.925 50.6077 103.858 50.4419 103.851L25.4857 103.497H23.7041C23.5595 103.532 23.436 103.617 23.3478 103.737C23.2596 103.854 23.2137 104.003 23.2208 104.151V104.417L50.2055 104.746L51.3591 144.336L51.3556 144.329Z" fill="var(--sapContent_Illustrative_Color7)"/>
<path d="M51.3556 144.329H51.3838C51.4685 144.329 51.5496 144.304 51.6273 144.272C51.7049 144.241 51.7719 144.188 51.8283 144.124C51.8848 144.06 51.9271 143.989 51.9589 143.912C51.9871 143.834 52.0012 143.749 51.9977 143.664L51.0522 104.487C51.0522 104.321 50.9887 104.162 50.8758 104.045C50.7629 103.925 50.6077 103.858 50.4419 103.851L25.4857 103.497H23.7041C23.5595 103.532 23.436 103.617 23.3478 103.737C23.2596 103.854 23.2137 104.003 23.2208 104.151V104.417L50.2055 104.746L51.3591 144.336L51.3556 144.329Z" fill="var(--sapContent_Illustrative_Color19)"/>
<path d="M44.3209 128.648L45.531 122.365C45.792 121.17 45.7673 119.932 45.4639 118.75C45.1605 117.565 44.5855 116.472 43.7811 115.552C42.9803 114.633 41.9713 113.918 40.8424 113.462C39.7135 113.005 38.4964 112.821 37.2828 112.928L34.7251 113.14C34.0301 113.196 33.3562 113.416 32.7565 113.773C32.1568 114.13 31.6452 114.622 31.2642 115.209H29.786C29.4368 115.209 29.0946 115.276 28.7735 115.411C28.4525 115.545 28.1597 115.74 27.9127 115.987C27.6658 116.235 27.4717 116.529 27.3377 116.851C27.2036 117.172 27.1366 117.519 27.1366 117.869C27.1366 118.089 27.2248 118.301 27.38 118.46C27.5352 118.616 27.7469 118.704 27.9657 118.704H28.7453C28.0962 119.196 27.761 119.879 27.9586 120.476C28.2197 121.272 29.338 121.619 30.5022 121.297C30.1282 122.716 30.1776 124.488 30.1776 126.433C30.1776 131.128 32.8447 134.944 36.1397 134.944C36.6689 134.944 37.1911 134.821 37.6673 134.591C37.7132 135.259 37.7379 135.705 37.752 136.009C37.8225 137.781 41.7808 136.441 43.1073 135.613C44.8712 134.509 45.9472 132.535 45.5486 131.976C45.411 131.793 45.284 131.598 45.1711 131.396C44.8536 130.816 44.5714 130.353 44.4655 130.08C44.3032 129.677 44.1621 129.345 44.0387 129.037C44.1128 128.998 44.1762 128.945 44.2221 128.878C44.2715 128.811 44.3033 128.736 44.3209 128.655V128.648Z" fill="var(--sapContent_Illustrative_Color7)"/>
<path d="M44.3209 128.648L45.531 122.365C45.792 121.17 45.7673 119.932 45.4639 118.75C45.1605 117.565 44.5855 116.472 43.7811 115.552C42.9803 114.633 41.9713 113.918 40.8424 113.462C39.7135 113.005 38.4964 112.821 37.2828 112.928L34.7251 113.14C34.0301 113.196 33.3562 113.416 32.7565 113.773C32.1568 114.13 31.6452 114.622 31.2642 115.209H29.786C29.4368 115.209 29.0946 115.276 28.7735 115.411C28.4525 115.545 28.1597 115.74 27.9127 115.987C27.6658 116.235 27.4717 116.529 27.3377 116.851C27.2036 117.172 27.1366 117.519 27.1366 117.869C27.1366 118.089 27.2248 118.301 27.38 118.46C27.5352 118.616 27.7469 118.704 27.9657 118.704H28.7453C28.0962 119.196 27.761 119.879 27.9586 120.476C28.2197 121.272 29.338 121.619 30.5022 121.297C30.1282 122.716 30.1776 124.488 30.1776 126.433C30.1776 131.128 32.8447 134.944 36.1397 134.944C36.6689 134.944 37.1911 134.821 37.6673 134.591C37.7132 135.259 37.7379 135.705 37.752 136.009C37.8225 137.781 41.7808 136.441 43.1073 135.613C44.8712 134.509 45.9472 132.535 45.5486 131.976C45.411 131.793 45.284 131.598 45.1711 131.396C44.8536 130.816 44.5714 130.353 44.4655 130.08C44.3032 129.677 44.1621 129.345 44.0387 129.037C44.1128 128.998 44.1762 128.945 44.2221 128.878C44.2715 128.811 44.3033 128.736 44.3209 128.655V128.648Z" fill="var(--sapContent_Illustrative_Color18)"/>
<path d="M77.7369 64.9783H77.6276L77.3806 57.8363H74.6853C74.5583 57.8363 74.4313 57.8646 74.3149 57.9141C74.1985 57.9637 74.0927 58.038 74.0045 58.1299C73.9163 58.2219 73.8457 58.3316 73.7998 58.4518C73.754 58.5721 73.7328 58.6994 73.7363 58.8268L75.8883 120.756C75.8954 121.003 75.9977 121.24 76.1776 121.41C76.354 121.584 76.5904 121.679 76.8373 121.679H156.31C156.437 121.679 156.564 121.651 156.68 121.601C156.797 121.552 156.902 121.477 156.991 121.386C157.079 121.294 157.149 121.184 157.195 121.064C157.241 120.943 157.262 120.816 157.259 120.689L157.149 117.498H80.4887C80.2417 117.498 80.0054 117.402 79.829 117.229C79.6526 117.059 79.5503 116.822 79.5397 116.575L77.7369 64.9748V64.9783Z" fill="var(--sapContent_Illustrative_Color20)"/>
<path d="M159.111 64.9783H77.7368L79.529 116.582C79.536 116.829 79.6419 117.063 79.8183 117.236C79.9947 117.406 80.231 117.505 80.478 117.505H159.95C160.077 117.505 160.204 117.48 160.321 117.427C160.437 117.378 160.543 117.303 160.631 117.211C160.719 117.119 160.79 117.01 160.836 116.889C160.882 116.769 160.903 116.642 160.899 116.515L159.111 64.9783ZM87.6325 70.9423C87.6325 70.5957 87.7701 70.2667 88.01 70.0226C88.2534 69.7785 88.5815 69.6406 88.9272 69.6406H112.857C113.199 69.6406 113.527 69.7785 113.771 70.0226C114.014 70.2667 114.152 70.5992 114.152 70.9423C114.152 71.2855 114.014 71.618 113.771 71.8621C113.527 72.1061 113.199 72.2441 112.857 72.2441H88.9272C88.5815 72.2441 88.2534 72.1061 88.01 71.8621C87.7666 71.618 87.6325 71.2855 87.6325 70.9423ZM92.7373 106.281L89.4458 77.8084L139.972 79.5417L140.163 103.932L92.7373 106.281Z" fill="var(--sapContent_Illustrative_Color2)"/>
<path d="M77.7368 64.9783H159.291L158.938 54.4263C158.931 54.1787 158.825 53.9416 158.648 53.7683C158.472 53.595 158.232 53.4995 157.985 53.4995H141.253L141.362 57.3588C141.623 57.5604 141.835 57.8151 141.986 58.1087C142.138 58.4023 142.223 58.7242 142.233 59.0532C142.251 59.3291 142.209 59.605 142.117 59.8632C142.025 60.1215 141.877 60.3585 141.69 60.5601C141.503 60.7617 141.277 60.9209 141.023 61.0306C140.773 61.1402 140.501 61.1968 140.226 61.2004C139.661 61.1862 139.122 60.9563 138.723 60.5566C138.321 60.1568 138.088 59.6192 138.07 59.0496C138.06 58.7348 138.116 58.4235 138.243 58.1335C138.37 57.8434 138.557 57.5887 138.794 57.3835L138.66 53.4818H96.057L96.2052 57.3552C96.4627 57.5569 96.6709 57.8116 96.819 58.1016C96.9672 58.3917 97.0483 58.7101 97.0624 59.0355C97.0801 59.3114 97.0377 59.5873 96.946 59.8456C96.8543 60.1038 96.7061 60.3408 96.5192 60.5424C96.3322 60.7441 96.1029 60.9032 95.8524 61.0129C95.6019 61.1226 95.3303 61.1792 95.0551 61.1827C94.4906 61.1721 93.9509 60.9421 93.5487 60.5424C93.1465 60.1427 92.9137 59.6015 92.8996 59.0355C92.889 58.7171 92.949 58.4023 93.076 58.1122C93.203 57.8222 93.397 57.5639 93.6404 57.3623L93.5028 53.4818H78.2166C78.0896 53.4818 77.9626 53.5065 77.8462 53.5561C77.7297 53.6056 77.6239 53.6799 77.5322 53.7719C77.444 53.8638 77.3734 53.9735 77.3275 54.0938C77.2817 54.214 77.2605 54.3414 77.264 54.4687L77.3805 57.8151L77.6274 64.9571L77.7368 64.9712V64.9783Z" fill="var(--sapContent_Illustrative_Color3)"/>
<path d="M95.0304 59.9623H94.9563C94.6212 59.9623 94.3001 59.8279 94.0602 59.5944C93.8203 59.3609 93.6792 59.0426 93.6651 58.7065L93.6192 57.38C93.3758 57.5852 93.1853 57.8399 93.0583 58.1299C92.9313 58.42 92.8713 58.7348 92.8819 59.0532C92.8996 59.6227 93.1324 60.1604 93.531 60.5601C93.9332 60.9598 94.4695 61.1898 95.0374 61.2004C95.3126 61.2004 95.5843 61.1402 95.8347 61.0306C96.0852 60.9209 96.311 60.7582 96.5015 60.5601C96.6885 60.3585 96.8331 60.1215 96.9284 59.8632C97.0201 59.605 97.0624 59.3291 97.0448 59.0532C97.0342 58.7277 96.9531 58.4058 96.8084 58.1122C96.6638 57.8186 96.4556 57.5639 96.2016 57.3588L96.2475 58.6924C96.2581 58.8586 96.2334 59.0213 96.1769 59.177C96.1205 59.3326 96.0323 59.4741 95.9159 59.5944C95.7995 59.7147 95.6654 59.8066 95.5102 59.8703C95.3585 59.934 95.1927 59.9658 95.0304 59.9623Z" fill="var(--sapContent_Illustrative_Color4)"/>
<path d="M140.212 59.8915H140.138C139.803 59.8915 139.482 59.7571 139.242 59.5236C139.002 59.2902 138.861 58.9718 138.847 58.6358L138.804 57.3835C138.568 57.5887 138.378 57.8434 138.254 58.1335C138.127 58.42 138.071 58.7348 138.081 59.0496C138.099 59.6156 138.332 60.1568 138.734 60.5566C139.136 60.9563 139.672 61.1862 140.237 61.2004C140.512 61.2004 140.783 61.1402 141.034 61.0306C141.284 60.9209 141.51 60.7582 141.701 60.5601C141.888 60.3585 142.032 60.1215 142.128 59.8632C142.223 59.605 142.262 59.3291 142.244 59.0532C142.23 58.7242 142.145 58.4023 141.99 58.1087C141.838 57.8151 141.623 57.5604 141.362 57.3623L141.404 58.6428C141.411 58.8056 141.387 58.9683 141.33 59.1204C141.274 59.2725 141.186 59.4105 141.076 59.5272C140.967 59.6439 140.829 59.7394 140.681 59.8031C140.533 59.8668 140.374 59.8986 140.212 59.8986V59.8915Z" fill="var(--sapContent_Illustrative_Color4)"/>
<path d="M93.6652 58.7065C93.6793 59.0426 93.8204 59.3609 94.0603 59.5944C94.3002 59.8279 94.6212 59.9587 94.9564 59.9623H95.0305C95.1927 59.9623 95.3515 59.9305 95.5032 59.8668C95.6514 59.8031 95.789 59.7111 95.9019 59.5944C96.0148 59.4777 96.1029 59.3362 96.1594 59.1841C96.2158 59.032 96.2441 58.8692 96.2335 58.7065L96.2017 57.3588L96.0677 53.4853L95.9301 49.5588C95.916 49.2228 95.7748 48.9044 95.5349 48.6709C95.2951 48.4375 94.974 48.3066 94.6389 48.3031H94.5648C94.4025 48.3031 94.2402 48.3349 94.0921 48.3986C93.9404 48.4622 93.8063 48.5542 93.6934 48.6709C93.5805 48.7877 93.4923 48.9292 93.4358 49.0813C93.3794 49.2334 93.3512 49.3961 93.3582 49.5588L93.4923 53.4853L93.6299 57.3658L93.6616 58.7065H93.6652Z" fill="var(--sapContent_Illustrative_Color6)"/>
<path d="M138.847 58.6393C138.861 58.9754 139.002 59.2937 139.242 59.5272C139.482 59.7607 139.803 59.8915 140.138 59.8951H140.212C140.374 59.8951 140.537 59.8632 140.685 59.8031C140.836 59.7394 140.97 59.6475 141.083 59.5307C141.196 59.414 141.284 59.2725 141.341 59.1204C141.397 58.9683 141.426 58.8056 141.415 58.6428L141.362 57.3623L141.228 53.503L141.087 49.5093C141.076 49.1732 140.932 48.8549 140.695 48.6214C140.455 48.3879 140.134 48.2571 139.799 48.2535H139.725C139.563 48.2535 139.401 48.2854 139.252 48.349C139.101 48.4127 138.967 48.5047 138.854 48.6214C138.741 48.7381 138.653 48.8796 138.596 49.0317C138.54 49.1839 138.512 49.3466 138.519 49.5093L138.66 53.503L138.794 57.4047L138.847 58.6428V58.6393Z" fill="var(--sapContent_Illustrative_Color6)"/>
<path d="M87.2162 76.8604L88.4015 110.979C88.4121 111.226 88.5144 111.46 88.6944 111.633C88.8708 111.803 89.1071 111.902 89.3541 111.902H150.242C150.369 111.902 150.496 111.877 150.612 111.824C150.728 111.774 150.834 111.7 150.922 111.608C151.011 111.516 151.081 111.407 151.127 111.286C151.173 111.166 151.194 111.039 151.187 110.911L150.002 76.7932C149.995 76.5456 149.889 76.3121 149.712 76.1388C149.536 75.9654 149.3 75.8699 149.053 75.8699H88.1652C88.0382 75.8699 87.9112 75.8947 87.7947 75.9442C87.6783 75.9937 87.5725 76.068 87.4808 76.16C87.3926 76.252 87.322 76.3616 87.2762 76.4819C87.2303 76.6022 87.2091 76.7295 87.2127 76.8568L87.2162 76.8604ZM92.7726 82.4707C92.7655 82.3327 92.7832 82.1948 92.8326 82.0674C92.8819 81.9365 92.9525 81.8198 93.0477 81.7208C93.143 81.6217 93.2559 81.5403 93.3794 81.4873C93.5064 81.4342 93.6404 81.4059 93.778 81.4059H95.8207C96.1029 81.4059 96.371 81.5227 96.5721 81.7208C96.7732 81.9188 96.8896 82.1877 96.8967 82.4707L96.9496 84.0094C96.9566 84.1474 96.9355 84.2854 96.8896 84.4127C96.8437 84.5436 96.7697 84.6603 96.6744 84.7594C96.5792 84.8584 96.4663 84.9398 96.3428 84.9928C96.2158 85.0459 96.0817 85.0742 95.9441 85.0742H93.9015C93.6193 85.0742 93.3511 84.9575 93.1501 84.7594C92.949 84.5613 92.8325 84.2924 92.8255 84.0094L92.7726 82.4707ZM93.0936 89.6657C93.0866 89.5278 93.1042 89.3898 93.1536 89.2625C93.1994 89.1316 93.2735 89.0149 93.3688 88.9158C93.4641 88.8168 93.5769 88.7389 93.7004 88.6823C93.8239 88.6257 93.9615 88.601 94.099 88.601H96.1417C96.4239 88.601 96.692 88.7177 96.8931 88.9158C97.0942 89.1139 97.2106 89.3827 97.2177 89.6657L97.2706 91.2045C97.2777 91.3425 97.26 91.4804 97.2106 91.6078C97.1648 91.7386 97.0907 91.8554 96.9954 91.9544C96.9002 92.0535 96.7873 92.1348 96.6638 92.1879C96.5368 92.241 96.4028 92.2693 96.2652 92.2693H94.2225C93.9403 92.2693 93.6722 92.1525 93.4711 91.9544C93.27 91.7563 93.1536 91.4875 93.1465 91.2045L93.0936 89.6657ZM93.4252 96.599C93.4217 96.4611 93.4429 96.3266 93.4923 96.1993C93.5417 96.072 93.6157 95.9552 93.7075 95.8597C93.8027 95.7607 93.9156 95.6828 94.0391 95.6298C94.1626 95.5767 94.2966 95.552 94.4342 95.552H96.4769C96.7556 95.5555 97.0201 95.6651 97.2212 95.8597C97.4223 96.0543 97.5423 96.3196 97.5528 96.599L97.6058 98.1413C97.6128 98.2793 97.5952 98.4172 97.5458 98.5446C97.4999 98.6755 97.4258 98.7922 97.3306 98.8913C97.2353 98.9903 97.1224 99.0717 96.9954 99.1247C96.8684 99.1778 96.7344 99.2061 96.5968 99.2061H94.5577C94.2755 99.2061 94.0073 99.0893 93.8063 98.8913C93.6052 98.6932 93.4887 98.4243 93.4817 98.1413L93.4252 96.599ZM94.8752 106.139C94.593 106.139 94.3248 106.023 94.1202 105.825C93.9191 105.626 93.7992 105.358 93.7921 105.075L93.7392 103.536C93.7322 103.398 93.7533 103.26 93.7992 103.133C93.8486 103.002 93.9191 102.885 94.0144 102.786C94.1096 102.687 94.2225 102.606 94.3495 102.552C94.4765 102.499 94.6106 102.471 94.7482 102.471H96.7908C97.073 102.475 97.3412 102.588 97.5423 102.786C97.7433 102.984 97.8598 103.253 97.8703 103.536L97.9233 105.075C97.9303 105.213 97.9092 105.351 97.8633 105.478C97.8174 105.605 97.7433 105.725 97.6481 105.825C97.5528 105.924 97.44 106.001 97.313 106.058C97.186 106.115 97.0519 106.139 96.9143 106.139H94.8752ZM100.827 82.4848C100.82 82.3469 100.837 82.2089 100.887 82.0816C100.936 81.9507 101.007 81.834 101.102 81.7349C101.197 81.6359 101.31 81.558 101.434 81.5014C101.557 81.4448 101.695 81.4201 101.832 81.4201H103.875C104.157 81.4201 104.425 81.5333 104.626 81.7314C104.827 81.9295 104.944 82.1983 104.951 82.4813L105.007 84.0201C105.014 84.158 104.993 84.296 104.947 84.4233C104.898 84.5542 104.827 84.6709 104.732 84.77C104.637 84.869 104.524 84.9469 104.397 85.0035C104.27 85.0565 104.136 85.0848 103.998 85.0848H101.956C101.673 85.0813 101.405 84.9681 101.204 84.77C101.003 84.5719 100.887 84.303 100.876 84.0201L100.823 82.4813L100.827 82.4848ZM101.148 89.6799C101.141 89.5419 101.162 89.404 101.208 89.2766C101.254 89.1457 101.328 89.029 101.423 88.93C101.518 88.8309 101.631 88.7531 101.758 88.6965C101.885 88.6399 102.019 88.6151 102.157 88.6151H104.196C104.478 88.6151 104.746 88.7319 104.951 88.93C105.152 89.1281 105.272 89.3969 105.279 89.6799L105.332 91.2186C105.339 91.3566 105.318 91.4946 105.272 91.6219C105.222 91.7528 105.152 91.8695 105.057 91.9686C104.961 92.0676 104.848 92.1454 104.721 92.202C104.594 92.2551 104.46 92.2834 104.323 92.2834H102.28C101.998 92.2799 101.73 92.1667 101.529 91.9686C101.328 91.7705 101.211 91.5016 101.201 91.2186L101.148 89.6799ZM101.483 96.6132C101.476 96.4752 101.493 96.3373 101.543 96.2099C101.589 96.079 101.663 95.9623 101.758 95.8632C101.853 95.7642 101.966 95.6864 102.09 95.6298C102.217 95.5767 102.351 95.5484 102.488 95.5484H104.531C104.813 95.5484 105.081 95.6616 105.282 95.8597C105.483 96.0578 105.6 96.3266 105.607 96.6096L105.66 98.1484C105.667 98.2864 105.649 98.4243 105.6 98.5517C105.551 98.6825 105.48 98.7993 105.385 98.8983C105.289 98.9974 105.177 99.0752 105.053 99.1318C104.926 99.1849 104.792 99.2132 104.654 99.2132H102.612C102.33 99.2132 102.061 99.1 101.86 98.9019C101.659 98.7038 101.543 98.4349 101.536 98.1519L101.483 96.6132ZM102.929 106.154C102.647 106.154 102.379 106.037 102.178 105.839C101.977 105.641 101.86 105.372 101.853 105.089L101.8 103.55C101.793 103.412 101.811 103.274 101.86 103.147C101.906 103.016 101.98 102.899 102.076 102.8C102.171 102.701 102.284 102.62 102.407 102.567C102.534 102.514 102.668 102.485 102.806 102.485H104.848C105.131 102.485 105.399 102.602 105.6 102.8C105.801 102.998 105.917 103.267 105.924 103.55L105.977 105.089C105.984 105.227 105.967 105.365 105.917 105.492C105.872 105.623 105.797 105.74 105.702 105.839C105.607 105.938 105.494 106.016 105.371 106.072C105.247 106.129 105.11 106.154 104.972 106.154H102.929ZM108.98 82.5167C108.976 82.3822 108.997 82.2443 109.047 82.117C109.096 81.9896 109.17 81.8729 109.262 81.7774C109.357 81.6818 109.47 81.604 109.593 81.551C109.717 81.4979 109.851 81.4696 109.989 81.4731H112.031C112.31 81.4731 112.578 81.5863 112.776 81.7809C112.977 81.9755 113.097 82.2408 113.107 82.5202L113.16 84.0625C113.167 84.2005 113.143 84.3349 113.097 84.4622C113.047 84.5896 112.977 84.7063 112.881 84.8018C112.786 84.9009 112.673 84.9787 112.55 85.0318C112.426 85.0848 112.292 85.1096 112.155 85.1096H110.112C109.833 85.1096 109.565 84.9964 109.364 84.8018C109.163 84.6073 109.043 84.342 109.033 84.0625L108.976 82.5202L108.98 82.5167ZM109.304 89.7117C109.297 89.5738 109.315 89.4358 109.364 89.3085C109.41 89.1776 109.484 89.0608 109.579 88.9618C109.675 88.8627 109.787 88.7849 109.911 88.7283C110.038 88.6753 110.172 88.647 110.31 88.647H112.352C112.635 88.647 112.903 88.7637 113.104 88.9618C113.305 89.1599 113.421 89.4287 113.428 89.7117L113.481 91.2505C113.488 91.3884 113.471 91.5264 113.421 91.6538C113.375 91.7846 113.301 91.9014 113.206 92.0004C113.111 92.0995 112.998 92.1808 112.874 92.2339C112.747 92.2869 112.613 92.3152 112.476 92.3152H110.433C110.151 92.3152 109.883 92.1985 109.682 92.0004C109.481 91.8023 109.364 91.5335 109.357 91.2505L109.304 89.7117ZM109.636 96.645C109.632 96.507 109.653 96.3726 109.703 96.2453C109.752 96.1179 109.826 96.0012 109.918 95.9057C110.013 95.8066 110.126 95.7288 110.25 95.6758C110.373 95.6227 110.507 95.5979 110.645 95.5979H112.684C112.963 95.5979 113.231 95.7111 113.432 95.9057C113.633 96.1002 113.753 96.3656 113.767 96.645L113.82 98.1873C113.827 98.3253 113.806 98.4632 113.76 98.5906C113.714 98.7179 113.64 98.8382 113.545 98.9372C113.449 99.0363 113.337 99.1176 113.21 99.1707C113.083 99.2238 112.948 99.2521 112.811 99.2521H110.772C110.49 99.2521 110.221 99.1353 110.017 98.9372C109.816 98.7391 109.699 98.4703 109.689 98.1873L109.636 96.645ZM111.082 106.185C110.804 106.185 110.535 106.072 110.338 105.878C110.137 105.683 110.017 105.418 110.003 105.138L109.95 103.596C109.943 103.458 109.96 103.32 110.01 103.193C110.056 103.062 110.13 102.945 110.225 102.846C110.32 102.747 110.433 102.669 110.56 102.616C110.687 102.563 110.821 102.535 110.959 102.535H112.998C113.28 102.535 113.548 102.651 113.753 102.85C113.954 103.048 114.07 103.317 114.077 103.6L114.134 105.142C114.137 105.28 114.116 105.414 114.067 105.542C114.017 105.669 113.943 105.786 113.848 105.881C113.753 105.98 113.64 106.058 113.516 106.111C113.393 106.164 113.259 106.189 113.121 106.189H111.079L111.082 106.185ZM117.037 82.5308C117.034 82.3964 117.055 82.2584 117.101 82.1311C117.15 82.0037 117.224 81.887 117.316 81.7915C117.411 81.6925 117.524 81.6146 117.648 81.5616C117.771 81.5085 117.905 81.4838 118.039 81.4838H120.082C120.361 81.4838 120.629 81.5969 120.83 81.7915C121.031 81.9861 121.151 82.2514 121.161 82.5308L121.214 84.0696C121.221 84.2075 121.204 84.3455 121.154 84.4728C121.105 84.6002 121.034 84.7205 120.939 84.8195C120.844 84.9186 120.731 84.9999 120.607 85.053C120.48 85.106 120.346 85.1343 120.209 85.1343H118.166C117.884 85.1343 117.616 85.0176 117.415 84.8195C117.214 84.6214 117.097 84.3526 117.09 84.0696L117.037 82.5308ZM117.358 89.7259C117.351 89.5879 117.369 89.45 117.418 89.3226C117.464 89.1917 117.538 89.075 117.633 88.9759C117.729 88.8769 117.842 88.7991 117.965 88.7425C118.092 88.6894 118.226 88.6611 118.364 88.6611H120.406C120.689 88.6611 120.957 88.7779 121.158 88.9759C121.359 89.174 121.475 89.4429 121.482 89.7259L121.539 91.2646C121.546 91.4026 121.525 91.5406 121.479 91.6679C121.429 91.7988 121.359 91.9155 121.264 92.0146C121.168 92.1136 121.056 92.1914 120.929 92.2445C120.802 92.2976 120.667 92.3259 120.53 92.3259H118.487C118.205 92.3223 117.937 92.2091 117.736 92.011C117.535 91.8129 117.418 91.5441 117.408 91.2611L117.355 89.7223L117.358 89.7259ZM117.693 96.6592C117.686 96.5212 117.711 96.3868 117.757 96.2594C117.803 96.1321 117.877 96.0154 117.972 95.9198C118.067 95.8208 118.18 95.743 118.304 95.6899C118.427 95.6369 118.561 95.6121 118.699 95.6121H120.742C121.02 95.6156 121.288 95.7253 121.486 95.9198C121.687 96.1144 121.807 96.3797 121.821 96.6592L121.874 98.2015C121.881 98.3394 121.863 98.4774 121.814 98.6047C121.768 98.7356 121.694 98.8523 121.599 98.9514C121.504 99.0504 121.391 99.1318 121.264 99.1849C121.137 99.2379 121.003 99.2662 120.865 99.2662H118.822C118.54 99.2662 118.272 99.1495 118.071 98.9514C117.87 98.7533 117.753 98.4844 117.746 98.2015L117.693 96.6592ZM119.14 106.2C118.858 106.2 118.59 106.083 118.388 105.885C118.187 105.687 118.071 105.418 118.064 105.135L118.007 103.596C118 103.458 118.022 103.32 118.071 103.193C118.117 103.065 118.191 102.945 118.286 102.846C118.381 102.747 118.494 102.666 118.621 102.613C118.748 102.56 118.882 102.531 119.02 102.531H121.063C121.345 102.535 121.613 102.648 121.814 102.846C122.015 103.044 122.132 103.313 122.142 103.596L122.195 105.135C122.202 105.273 122.181 105.411 122.135 105.538C122.089 105.665 122.015 105.786 121.92 105.885C121.825 105.984 121.712 106.065 121.585 106.118C121.458 106.171 121.324 106.2 121.186 106.2H119.147H119.14ZM125.268 82.6193C125.261 82.4813 125.282 82.3433 125.328 82.216C125.374 82.0887 125.448 81.9684 125.543 81.8693C125.638 81.7703 125.751 81.6925 125.878 81.6359C126.002 81.5828 126.139 81.5545 126.277 81.5545H128.309C128.591 81.5545 128.859 81.6712 129.06 81.8693C129.261 82.0674 129.378 82.3363 129.388 82.6193L129.441 84.158C129.448 84.296 129.427 84.4339 129.381 84.5613C129.335 84.6922 129.261 84.8089 129.166 84.9079C129.071 85.007 128.958 85.0848 128.834 85.1414C128.707 85.1945 128.573 85.2228 128.436 85.2228H126.393C126.111 85.2228 125.843 85.1096 125.642 84.9115C125.441 84.7134 125.324 84.4446 125.314 84.1616L125.271 82.6228L125.268 82.6193ZM125.589 89.8108C125.585 89.6764 125.606 89.5384 125.652 89.411C125.702 89.2837 125.776 89.167 125.868 89.0715C125.963 88.9724 126.072 88.8946 126.199 88.8415C126.326 88.7885 126.457 88.7602 126.594 88.7637H128.637C128.916 88.7637 129.184 88.8769 129.385 89.0715C129.586 89.266 129.706 89.5313 129.716 89.8108L129.769 91.3531C129.776 91.491 129.755 91.629 129.709 91.7563C129.664 91.8837 129.589 92.004 129.494 92.103C129.399 92.202 129.286 92.2799 129.159 92.3365C129.032 92.3895 128.898 92.4178 128.76 92.4178H126.718C126.436 92.4178 126.167 92.3046 125.966 92.1065C125.765 91.9084 125.649 91.6396 125.638 91.3566L125.585 89.8143L125.589 89.8108ZM125.92 96.7476C125.913 96.6096 125.935 96.4717 125.98 96.3443C126.026 96.217 126.1 96.0967 126.196 95.9977C126.291 95.8986 126.404 95.8173 126.531 95.7642C126.658 95.7111 126.792 95.6828 126.929 95.6828H128.972C129.254 95.6864 129.522 95.7996 129.724 95.9977C129.925 96.1958 130.041 96.4646 130.052 96.7476L130.104 98.2864C130.112 98.4243 130.09 98.5623 130.045 98.6896C129.995 98.817 129.925 98.9372 129.829 99.0363C129.734 99.1353 129.621 99.2167 129.494 99.2698C129.367 99.3228 129.233 99.3511 129.096 99.3511H127.056C126.774 99.3511 126.503 99.2344 126.301 99.0398C126.1 98.8417 125.984 98.5729 125.973 98.2899L125.92 96.7511V96.7476ZM127.367 106.288C127.085 106.288 126.817 106.171 126.615 105.973C126.414 105.775 126.298 105.506 126.287 105.223L126.234 103.684C126.227 103.546 126.249 103.409 126.294 103.281C126.34 103.15 126.414 103.034 126.51 102.934C126.605 102.835 126.718 102.758 126.845 102.701C126.972 102.644 127.106 102.62 127.243 102.62H129.283C129.565 102.62 129.833 102.733 130.034 102.931C130.235 103.129 130.351 103.398 130.359 103.681L130.415 105.22C130.422 105.358 130.401 105.496 130.355 105.623C130.306 105.754 130.235 105.871 130.14 105.97C130.045 106.069 129.932 106.146 129.805 106.203C129.678 106.256 129.544 106.284 129.406 106.284H127.363L127.367 106.288ZM133.322 82.6299C133.318 82.4954 133.34 82.3575 133.385 82.2301C133.435 82.1028 133.509 81.9861 133.601 81.8906C133.696 81.7915 133.805 81.7137 133.932 81.6606C134.056 81.6076 134.19 81.5828 134.324 81.5828H136.366C136.645 81.5828 136.913 81.696 137.114 81.8906C137.315 82.0851 137.435 82.3504 137.446 82.6299L137.499 84.1722C137.506 84.3101 137.488 84.4481 137.439 84.5754C137.393 84.7063 137.319 84.8231 137.224 84.9221C137.129 85.0211 137.016 85.099 136.889 85.1556C136.762 85.2122 136.628 85.2369 136.49 85.2334H134.447C134.165 85.2334 133.897 85.1202 133.696 84.9221C133.495 84.724 133.378 84.4552 133.368 84.1722L133.315 82.6299H133.322ZM133.643 89.8249C133.639 89.6905 133.661 89.5525 133.706 89.4252C133.756 89.2978 133.83 89.1811 133.922 89.0856C134.017 88.9866 134.126 88.9087 134.253 88.8557C134.38 88.8026 134.511 88.7779 134.648 88.7779H136.691C136.97 88.7779 137.238 88.891 137.439 89.0856C137.64 89.2802 137.76 89.5455 137.771 89.8249L137.827 91.3637C137.834 91.5016 137.813 91.6396 137.767 91.767C137.721 91.8978 137.647 92.0146 137.552 92.1136C137.457 92.2127 137.344 92.2905 137.217 92.3471C137.09 92.4001 136.956 92.4284 136.818 92.4284H134.775C134.493 92.4249 134.225 92.3117 134.024 92.1136C133.823 91.9155 133.706 91.6467 133.696 91.3637L133.643 89.8249ZM135.111 99.3511C134.828 99.3511 134.56 99.2344 134.359 99.0363C134.158 98.8382 134.042 98.5694 134.031 98.2864L133.978 96.7476C133.971 96.6096 133.992 96.4717 134.038 96.3443C134.084 96.2134 134.158 96.0967 134.253 95.9977C134.349 95.8986 134.461 95.8173 134.588 95.7642C134.715 95.7111 134.849 95.6828 134.987 95.6828H137.03C137.312 95.6828 137.58 95.7996 137.781 95.9977C137.982 96.1958 138.099 96.4646 138.109 96.7476L138.162 98.2864C138.169 98.4243 138.148 98.5623 138.102 98.6896C138.056 98.8205 137.982 98.9372 137.887 99.0363C137.792 99.1353 137.679 99.2132 137.552 99.2698C137.425 99.3264 137.291 99.3511 137.153 99.3511H135.111ZM140.755 82.6228C140.748 82.4848 140.769 82.3469 140.815 82.2195C140.861 82.0922 140.935 81.9719 141.03 81.8729C141.126 81.7738 141.238 81.696 141.365 81.6394C141.489 81.5863 141.627 81.558 141.764 81.558H143.831C144.114 81.558 144.382 81.6712 144.583 81.8693C144.784 82.0674 144.9 82.3363 144.907 82.6193L144.964 84.158C144.971 84.296 144.95 84.4339 144.904 84.5613C144.855 84.6922 144.784 84.8089 144.689 84.9079C144.593 85.007 144.481 85.0848 144.354 85.1414C144.227 85.198 144.093 85.2228 143.955 85.2228H141.912C141.63 85.2228 141.362 85.106 141.161 84.9079C140.96 84.7099 140.843 84.441 140.833 84.158L140.755 82.6193V82.6228ZM141.076 89.8178C141.069 89.6799 141.09 89.5419 141.136 89.4146C141.186 89.2837 141.256 89.167 141.351 89.0679C141.447 88.9689 141.56 88.8911 141.687 88.8345C141.814 88.7814 141.948 88.7531 142.085 88.7531H144.124C144.407 88.7531 144.678 88.8663 144.879 89.0644C145.08 89.2625 145.2 89.5313 145.207 89.8143L145.26 91.3531C145.267 91.491 145.246 91.629 145.197 91.7563C145.147 91.8837 145.077 92.004 144.982 92.103C144.886 92.202 144.773 92.2799 144.646 92.3365C144.519 92.3895 144.385 92.4178 144.248 92.4178H142.205C141.923 92.4143 141.655 92.3011 141.454 92.103C141.253 91.9049 141.136 91.6361 141.126 91.3531L141.073 89.8143L141.076 89.8178ZM142.544 99.337C142.262 99.337 141.993 99.2238 141.792 99.0257C141.591 98.8276 141.475 98.5587 141.464 98.2757L141.411 96.737C141.404 96.599 141.425 96.4611 141.471 96.3337C141.517 96.2064 141.591 96.0861 141.687 95.9871C141.782 95.888 141.895 95.8066 142.022 95.7536C142.145 95.7005 142.283 95.6722 142.42 95.6722H144.463C144.745 95.6722 145.013 95.789 145.214 95.9835C145.415 96.1816 145.532 96.4504 145.542 96.7334L145.595 98.2722C145.602 98.4102 145.581 98.5446 145.535 98.6755C145.49 98.8064 145.415 98.9231 145.32 99.0221C145.225 99.1212 145.112 99.199 144.985 99.2556C144.862 99.3087 144.724 99.337 144.586 99.337H142.544Z" fill="var(--sapContent_Illustrative_Color8)"/>
<path d="M88.9731 72.2512H112.903C113.072 72.2512 113.238 72.2193 113.393 72.1521C113.548 72.0849 113.689 71.9894 113.806 71.8691C113.922 71.7489 114.014 71.6038 114.074 71.4447C114.134 71.2855 114.162 71.1192 114.152 70.9494C114.137 70.5992 113.989 70.2702 113.742 70.0297C113.495 69.7892 113.16 69.6512 112.815 69.6477H88.8885C88.7191 69.6477 88.5533 69.6795 88.3981 69.7432C88.2429 69.8068 88.1017 69.9059 87.9853 70.0262C87.8689 70.1464 87.7772 70.2915 87.7172 70.4506C87.6572 70.6098 87.629 70.7796 87.6361 70.9459C87.6502 71.2961 87.7983 71.6251 88.0453 71.8656C88.2958 72.1062 88.6274 72.2441 88.9767 72.2476L88.9731 72.2512Z" fill="var(--sapContent_Illustrative_Color8)"/>
<path d="M96.8862 81.9047C96.8792 81.7738 96.8227 81.65 96.7274 81.558C96.6322 81.4661 96.5087 81.413 96.3782 81.413H93.2278C93.1643 81.413 93.1007 81.4272 93.0443 81.4519C92.9879 81.4767 92.9349 81.5156 92.8891 81.558C92.8467 81.604 92.8115 81.6571 92.7868 81.7172C92.7656 81.7774 92.755 81.841 92.755 81.9047L92.8467 84.5613C92.8538 84.6922 92.9102 84.816 93.002 84.908C93.0972 84.9999 93.2207 85.0495 93.3512 85.053H96.5052C96.5687 85.053 96.6287 85.0388 96.6886 85.0141C96.7451 84.9893 96.798 84.9539 96.8439 84.908C96.8862 84.862 96.9215 84.8089 96.9462 84.7488C96.9709 84.6886 96.9815 84.625 96.9779 84.5648L96.8862 81.9082V81.9047Z" fill="var(--sapContent_Illustrative_Color6)"/>
<path d="M104.94 81.9189C104.933 81.788 104.877 81.6642 104.785 81.5722C104.693 81.4802 104.566 81.4272 104.436 81.4272H101.282C101.218 81.4272 101.155 81.4413 101.098 81.4661C101.042 81.4908 100.989 81.5297 100.943 81.5757C100.901 81.6217 100.866 81.6748 100.841 81.7349C100.82 81.795 100.809 81.8587 100.809 81.9224L100.904 84.579C100.908 84.7099 100.964 84.8337 101.06 84.9256C101.155 85.0176 101.278 85.0671 101.409 85.0707H104.563C104.626 85.0707 104.69 85.0601 104.746 85.0353C104.803 85.0105 104.856 84.9752 104.901 84.9292C104.944 84.8832 104.979 84.8301 105 84.77C105.021 84.7099 105.032 84.6462 105.028 84.5825L104.937 81.9259L104.94 81.9189Z" fill="var(--sapContent_Illustrative_Color6)"/>
<path d="M113.093 81.9507C113.09 81.8198 113.033 81.696 112.938 81.604C112.843 81.5121 112.719 81.4625 112.589 81.459H109.435C109.371 81.459 109.308 81.4696 109.251 81.4944C109.195 81.5191 109.142 81.5545 109.096 81.6005C109.054 81.6465 109.019 81.6995 108.997 81.7597C108.976 81.8198 108.966 81.8835 108.969 81.9472L109.061 84.6037C109.068 84.7346 109.124 84.8584 109.216 84.9504C109.311 85.0424 109.435 85.0919 109.565 85.0954H112.719C112.783 85.0954 112.846 85.0813 112.903 85.0565C112.959 85.0318 113.012 84.9964 113.058 84.9504C113.1 84.9044 113.136 84.8514 113.16 84.7912C113.185 84.7311 113.196 84.6674 113.192 84.6073L113.097 81.9507H113.093Z" fill="var(--sapContent_Illustrative_Color6)"/>
<path d="M121.151 81.9648C121.144 81.834 121.087 81.7102 120.996 81.6182C120.9 81.5262 120.777 81.4767 120.646 81.4732H117.492C117.429 81.4732 117.369 81.4873 117.309 81.5121C117.253 81.5368 117.2 81.5722 117.154 81.6182C117.111 81.6642 117.076 81.7172 117.051 81.7774C117.027 81.8375 117.016 81.9012 117.02 81.9613L117.111 84.6179C117.118 84.7488 117.175 84.8726 117.27 84.9645C117.365 85.0565 117.489 85.106 117.619 85.1096H120.77C120.833 85.1096 120.897 85.0954 120.953 85.0707C121.01 85.0459 121.063 85.0105 121.109 84.9645C121.151 84.9186 121.186 84.8655 121.211 84.8054C121.236 84.7452 121.243 84.6816 121.243 84.6214L121.151 81.9648Z" fill="var(--sapContent_Illustrative_Color6)"/>
<path d="M129.367 82.0497C129.36 81.9189 129.307 81.7951 129.212 81.7031C129.117 81.6111 128.993 81.5616 128.863 81.558H125.712C125.649 81.558 125.585 81.5687 125.529 81.5934C125.469 81.6182 125.416 81.6536 125.374 81.6995C125.331 81.7455 125.296 81.8021 125.272 81.8587C125.25 81.9189 125.24 81.9825 125.24 82.0462L125.331 84.7028C125.339 84.8337 125.395 84.9575 125.487 85.0494C125.578 85.1414 125.705 85.1945 125.836 85.1945H129.015C129.078 85.1945 129.142 85.1803 129.198 85.1556C129.254 85.1308 129.307 85.0954 129.353 85.0494C129.396 85.0035 129.431 84.9504 129.456 84.8903C129.48 84.8301 129.491 84.7665 129.487 84.7028L129.367 82.0462V82.0497Z" fill="var(--sapContent_Illustrative_Color6)"/>
<path d="M137.435 82.0639C137.428 81.933 137.372 81.8092 137.28 81.7172C137.188 81.6253 137.061 81.5757 136.931 81.5722H133.777C133.714 81.5722 133.65 81.5863 133.594 81.6076C133.534 81.6323 133.481 81.6677 133.438 81.7137C133.396 81.7597 133.361 81.8127 133.336 81.8729C133.311 81.933 133.301 81.9967 133.304 82.0604L133.396 84.7169C133.403 84.8478 133.46 84.9716 133.555 85.0636C133.65 85.1556 133.774 85.2051 133.904 85.2086H137.054C137.118 85.2086 137.181 85.198 137.238 85.1733C137.294 85.1485 137.347 85.1131 137.393 85.0671C137.439 85.0212 137.471 84.9681 137.495 84.908C137.52 84.8478 137.527 84.7841 137.527 84.7205L137.435 82.0639Z" fill="var(--sapContent_Illustrative_Color6)"/>
<path d="M144.89 82.0568C144.886 81.9259 144.83 81.8021 144.735 81.7102C144.639 81.6182 144.516 81.5651 144.385 81.5651H141.231C141.168 81.5651 141.104 81.5793 141.048 81.604C140.988 81.6288 140.935 81.6642 140.893 81.7102C140.85 81.7561 140.815 81.8092 140.79 81.8693C140.766 81.9295 140.759 81.9931 140.759 82.0568L140.854 84.7134C140.861 84.8443 140.914 84.9681 141.009 85.0601C141.104 85.152 141.228 85.2016 141.358 85.2051H144.512C144.576 85.2051 144.639 85.1945 144.696 85.1697C144.752 85.145 144.805 85.1096 144.851 85.0636C144.893 85.0176 144.929 84.9645 144.95 84.9044C144.974 84.8443 144.982 84.7806 144.982 84.7169L144.89 82.0604V82.0568Z" fill="var(--sapContent_Illustrative_Color6)"/>
<path d="M97.2072 89.0962C97.2001 88.9653 97.1437 88.8415 97.0519 88.7496C96.9567 88.6576 96.8332 88.6081 96.7027 88.6045H93.5488C93.4853 88.6045 93.4218 88.6151 93.3653 88.6399C93.3089 88.6647 93.256 88.7 93.2101 88.746C93.1678 88.792 93.1325 88.8451 93.1078 88.9052C93.0866 88.9653 93.076 89.029 93.076 89.0927L93.1713 91.7493C93.1748 91.8802 93.2313 92.004 93.3265 92.0959C93.4218 92.1879 93.5453 92.241 93.6758 92.241H96.8262C96.8897 92.241 96.9532 92.2304 97.0096 92.2056C97.0696 92.1808 97.1225 92.1455 97.1648 92.0995C97.2107 92.0535 97.2425 91.9969 97.2672 91.9403C97.2883 91.8802 97.2989 91.8165 97.2954 91.7528L97.2037 89.0962H97.2072Z" fill="var(--sapContent_Illustrative_Color6)"/>
<path d="M105.258 89.1104C105.251 88.9795 105.194 88.8557 105.102 88.7637C105.007 88.6717 104.884 88.6222 104.753 88.6187H101.599C101.536 88.6187 101.472 88.6293 101.416 88.654C101.356 88.6788 101.307 88.7142 101.261 88.7602C101.218 88.8062 101.183 88.8592 101.162 88.9193C101.137 88.9795 101.13 89.0432 101.13 89.1068L101.222 91.7634C101.229 91.8943 101.285 92.0181 101.377 92.1101C101.472 92.2021 101.596 92.2551 101.726 92.2551H104.88C104.944 92.2551 105.007 92.241 105.064 92.2162C105.12 92.1914 105.173 92.1561 105.219 92.1101C105.261 92.0641 105.297 92.0075 105.318 91.9509C105.339 91.8908 105.349 91.8271 105.346 91.7634L105.254 89.1068L105.258 89.1104Z" fill="var(--sapContent_Illustrative_Color6)"/>
<path d="M113.418 89.1458C113.411 89.0149 113.354 88.8911 113.259 88.7991C113.164 88.7071 113.04 88.6541 112.91 88.6541H109.759C109.696 88.6541 109.632 88.6682 109.576 88.693C109.519 88.7177 109.467 88.7566 109.421 88.8026C109.378 88.8486 109.343 88.9017 109.318 88.9618C109.294 89.0219 109.283 89.0856 109.287 89.1493L109.378 91.8059C109.385 91.9368 109.442 92.0606 109.534 92.1525C109.629 92.2445 109.752 92.294 109.883 92.2976H113.037C113.1 92.2976 113.164 92.2834 113.22 92.2587C113.28 92.2339 113.33 92.1985 113.375 92.1525C113.418 92.1066 113.453 92.0535 113.478 91.9934C113.502 91.9332 113.509 91.8695 113.509 91.8094L113.418 89.1528V89.1458Z" fill="var(--sapContent_Illustrative_Color6)"/>
<path d="M121.472 89.1564C121.465 89.0255 121.408 88.9017 121.317 88.8097C121.221 88.7177 121.098 88.6682 120.967 88.6646H117.813C117.75 88.6646 117.69 88.6753 117.63 88.7C117.574 88.7248 117.521 88.7602 117.475 88.8061C117.432 88.8521 117.397 88.9052 117.373 88.9653C117.348 89.0255 117.337 89.0891 117.341 89.1528L117.436 91.8129C117.443 91.9438 117.496 92.0676 117.591 92.1596C117.686 92.2516 117.81 92.3011 117.94 92.3046H121.094C121.158 92.3046 121.221 92.294 121.278 92.2693C121.334 92.2445 121.387 92.2091 121.433 92.1631C121.475 92.1172 121.511 92.0641 121.532 92.004C121.553 91.9438 121.564 91.8801 121.56 91.8165L121.468 89.1564H121.472Z" fill="var(--sapContent_Illustrative_Color6)"/>
<path d="M129.72 89.2448C129.713 89.1139 129.657 88.9901 129.565 88.8981C129.47 88.8062 129.346 88.7566 129.216 88.7531H126.065C126.002 88.7531 125.942 88.7672 125.882 88.7885C125.825 88.8132 125.772 88.8486 125.727 88.8946C125.684 88.9406 125.649 88.9936 125.624 89.0538C125.6 89.1139 125.589 89.1776 125.592 89.2413L125.684 91.8978C125.691 92.0287 125.748 92.1525 125.843 92.2445C125.938 92.3365 126.062 92.386 126.192 92.3895H129.343C129.406 92.3895 129.47 92.3754 129.526 92.3506C129.583 92.3259 129.635 92.2905 129.681 92.2445C129.724 92.1985 129.759 92.1455 129.784 92.0853C129.808 92.0252 129.815 91.9615 129.815 91.9014L129.724 89.2448H129.72Z" fill="var(--sapContent_Illustrative_Color6)"/>
<path d="M137.757 89.2695C137.749 89.1387 137.693 89.0149 137.601 88.9229C137.51 88.8309 137.383 88.7779 137.252 88.7779H134.098C134.035 88.7779 133.971 88.7885 133.915 88.8132C133.858 88.838 133.805 88.8734 133.759 88.9193C133.717 88.9653 133.682 89.0184 133.661 89.0785C133.639 89.1387 133.629 89.2023 133.632 89.266L133.724 91.9226C133.731 92.0535 133.784 92.1773 133.879 92.2693C133.975 92.3612 134.098 92.4108 134.229 92.4108H137.383C137.446 92.4108 137.51 92.4001 137.566 92.3754C137.622 92.3506 137.675 92.3152 137.721 92.2693C137.764 92.2233 137.799 92.1702 137.82 92.1101C137.845 92.0499 137.852 91.9863 137.852 91.9226L137.76 89.266L137.757 89.2695Z" fill="var(--sapContent_Illustrative_Color6)"/>
<path d="M145.2 89.2448C145.193 89.1139 145.137 88.9901 145.045 88.8981C144.95 88.8062 144.826 88.7566 144.696 88.7531H141.542C141.478 88.7531 141.415 88.7637 141.359 88.7885C141.302 88.8132 141.249 88.8486 141.203 88.8946C141.161 88.9406 141.126 88.9936 141.105 89.0538C141.08 89.1139 141.073 89.1776 141.073 89.2413L141.164 91.8978C141.172 92.0287 141.228 92.1525 141.32 92.2445C141.415 92.3365 141.538 92.3895 141.669 92.3895H144.823C144.886 92.3895 144.95 92.3754 145.006 92.3506C145.063 92.3259 145.116 92.2905 145.161 92.2445C145.204 92.1985 145.239 92.1455 145.26 92.0853C145.281 92.0252 145.292 91.9615 145.288 91.8978L145.197 89.2413L145.2 89.2448Z" fill="var(--sapContent_Illustrative_Color6)"/>
<path d="M97.5354 96.0331C97.5319 95.9022 97.4754 95.7784 97.3802 95.6864C97.2849 95.5944 97.1614 95.5449 97.0309 95.5414H93.877C93.8135 95.5414 93.75 95.552 93.6935 95.5767C93.6336 95.6015 93.5806 95.6369 93.5383 95.6828C93.496 95.7288 93.4607 95.7819 93.436 95.842C93.4148 95.9022 93.4042 95.9658 93.4078 96.0295L93.4995 98.6861C93.5066 98.817 93.563 98.9408 93.6547 99.0327C93.75 99.1247 93.8735 99.1742 94.004 99.1778H97.1579C97.2214 99.1778 97.2849 99.1672 97.3413 99.1424C97.3978 99.1176 97.4507 99.0823 97.4966 99.0363C97.5389 98.9903 97.5742 98.9372 97.5954 98.8771C97.62 98.817 97.6271 98.7533 97.6271 98.6896L97.5354 96.0331Z" fill="var(--sapContent_Illustrative_Color6)"/>
<path d="M105.596 96.0472C105.589 95.9163 105.533 95.7925 105.438 95.7005C105.342 95.6086 105.219 95.5555 105.088 95.5555H101.938C101.875 95.5555 101.811 95.5696 101.755 95.5944C101.698 95.6192 101.645 95.6546 101.599 95.7005C101.557 95.7465 101.522 95.7996 101.497 95.8597C101.476 95.9198 101.465 95.9835 101.465 96.0472L101.557 98.7038C101.564 98.8347 101.621 98.9585 101.716 99.0504C101.811 99.1424 101.935 99.1919 102.065 99.1919H105.215C105.279 99.1919 105.342 99.1778 105.399 99.1566C105.455 99.1318 105.508 99.0964 105.554 99.0504C105.596 99.0045 105.632 98.9514 105.656 98.8913C105.678 98.8311 105.688 98.7675 105.688 98.7038L105.596 96.0472Z" fill="var(--sapContent_Illustrative_Color6)"/>
<path d="M113.746 96.079C113.739 95.9481 113.682 95.8243 113.591 95.7324C113.495 95.6404 113.372 95.5909 113.241 95.5873H110.087C110.024 95.5873 109.96 95.5979 109.904 95.6227C109.844 95.6475 109.795 95.6828 109.749 95.7288C109.706 95.7748 109.671 95.8279 109.646 95.888C109.625 95.9481 109.615 96.0118 109.618 96.0755L109.71 98.7321C109.717 98.863 109.773 98.9868 109.865 99.0787C109.96 99.1707 110.084 99.2202 110.214 99.2238H113.368C113.432 99.2238 113.495 99.2132 113.552 99.1884C113.612 99.1636 113.661 99.1283 113.707 99.0823C113.749 99.0363 113.785 98.9832 113.809 98.9231C113.83 98.863 113.841 98.7993 113.838 98.7356L113.746 96.079Z" fill="var(--sapContent_Illustrative_Color6)"/>
<path d="M121.8 96.0932C121.796 95.9623 121.74 95.8385 121.645 95.7465C121.549 95.6546 121.426 95.605 121.295 95.605H118.145C118.082 95.605 118.018 95.6156 117.962 95.6404C117.902 95.6652 117.849 95.7005 117.806 95.7465C117.761 95.7925 117.729 95.8456 117.704 95.9057C117.683 95.9658 117.672 96.0295 117.676 96.0932L117.768 98.7498C117.775 98.8806 117.831 99.0044 117.923 99.0964C118.018 99.1884 118.142 99.2414 118.272 99.2414H121.426C121.489 99.2414 121.553 99.2273 121.609 99.2061C121.666 99.1813 121.719 99.1459 121.765 99.1C121.807 99.054 121.842 99.0009 121.867 98.9408C121.892 98.8806 121.899 98.817 121.899 98.7533L121.803 96.0967L121.8 96.0932Z" fill="var(--sapContent_Illustrative_Color6)"/>
<path d="M130.034 96.1781C130.027 96.0472 129.974 95.9234 129.879 95.8314C129.784 95.7394 129.66 95.6899 129.53 95.6864H126.376C126.312 95.6864 126.249 95.697 126.192 95.7217C126.136 95.7465 126.083 95.7819 126.037 95.8279C125.995 95.8739 125.959 95.9269 125.938 95.9871C125.914 96.0472 125.906 96.1109 125.906 96.1745L125.998 98.8311C126.005 98.962 126.062 99.0858 126.153 99.1778C126.249 99.2698 126.372 99.3228 126.503 99.3228H129.657C129.72 99.3228 129.784 99.3122 129.84 99.2874C129.896 99.2627 129.949 99.2238 129.995 99.1778C130.038 99.1318 130.073 99.0787 130.094 99.0186C130.115 98.9585 130.126 98.8948 130.122 98.8311L130.03 96.1745L130.034 96.1781Z" fill="var(--sapContent_Illustrative_Color6)"/>
<path d="M134.433 95.7041C134.37 95.7041 134.306 95.7147 134.25 95.7394C134.19 95.7642 134.137 95.7996 134.091 95.8456C134.049 95.8916 134.013 95.9446 133.989 96.0048C133.964 96.0649 133.957 96.1286 133.957 96.1922L134.049 98.8488C134.056 98.9797 134.112 99.1035 134.204 99.1955C134.299 99.2875 134.423 99.3405 134.553 99.3405H137.707C137.771 99.3405 137.834 99.3264 137.894 99.3016C137.954 99.2768 138.007 99.2379 138.049 99.1919C138.095 99.146 138.131 99.0894 138.152 99.0292C138.173 98.9691 138.183 98.9054 138.183 98.8417L138.088 96.1852C138.085 96.0543 138.028 95.9305 137.933 95.8385C137.838 95.7465 137.714 95.697 137.584 95.6935H134.43L134.433 95.7041Z" fill="var(--sapContent_Illustrative_Color6)"/>
<path d="M141.873 95.6899C141.81 95.6899 141.746 95.7041 141.69 95.7288C141.634 95.7536 141.581 95.789 141.535 95.835C141.489 95.8809 141.457 95.934 141.433 95.9941C141.411 96.0543 141.401 96.1179 141.401 96.1816L141.492 98.8382C141.5 98.9691 141.556 99.0929 141.651 99.1849C141.746 99.2768 141.87 99.3264 142 99.3264H145.151C145.214 99.3264 145.278 99.3157 145.334 99.291C145.391 99.2662 145.444 99.2309 145.489 99.1849C145.532 99.1389 145.567 99.0858 145.592 99.0257C145.613 98.9655 145.624 98.9019 145.624 98.8382L145.532 96.1816C145.525 96.0507 145.468 95.9234 145.377 95.835C145.281 95.743 145.158 95.6899 145.027 95.6899H141.877H141.873Z" fill="var(--sapContent_Illustrative_Color6)"/>
<path d="M94.1944 102.492C94.1309 102.492 94.0674 102.506 94.0109 102.531C93.9545 102.556 93.9016 102.591 93.8557 102.637C93.8134 102.683 93.7781 102.74 93.7569 102.797C93.7358 102.857 93.7252 102.92 93.7287 102.984L93.8204 105.641C93.8275 105.771 93.8839 105.895 93.9757 105.987C94.0709 106.079 94.1944 106.129 94.3249 106.132H97.4788C97.5423 106.132 97.6058 106.122 97.6623 106.097C97.7187 106.072 97.7716 106.037 97.8175 105.991C97.8598 105.945 97.8951 105.892 97.9163 105.832C97.941 105.771 97.948 105.708 97.948 105.644L97.8563 102.988C97.8493 102.857 97.7963 102.733 97.7011 102.641C97.6058 102.549 97.4824 102.496 97.3518 102.496H94.1979L94.1944 102.492Z" fill="var(--sapContent_Illustrative_Color6)"/>
<path d="M102.248 102.506C102.185 102.506 102.121 102.517 102.065 102.542C102.005 102.567 101.952 102.602 101.906 102.648C101.864 102.694 101.829 102.751 101.804 102.811C101.783 102.871 101.772 102.934 101.772 102.998L101.864 105.655C101.871 105.786 101.927 105.909 102.019 106.001C102.114 106.093 102.238 106.143 102.368 106.146H105.522C105.586 106.146 105.646 106.132 105.706 106.108C105.762 106.083 105.815 106.047 105.861 106.001C105.903 105.955 105.939 105.902 105.963 105.842C105.988 105.782 105.999 105.718 105.995 105.658L105.9 103.002C105.896 102.871 105.84 102.747 105.745 102.655C105.649 102.563 105.526 102.51 105.395 102.51H102.245L102.248 102.506Z" fill="var(--sapContent_Illustrative_Color6)"/>
<path d="M110.405 102.542C110.341 102.542 110.278 102.552 110.221 102.577C110.162 102.602 110.112 102.637 110.066 102.683C110.024 102.729 109.989 102.782 109.964 102.843C109.943 102.903 109.932 102.966 109.936 103.03L110.027 105.687C110.031 105.817 110.087 105.941 110.183 106.033C110.278 106.125 110.401 106.175 110.532 106.175H113.686C113.749 106.175 113.813 106.164 113.869 106.139C113.929 106.115 113.979 106.079 114.025 106.033C114.067 105.987 114.102 105.934 114.127 105.874C114.148 105.814 114.159 105.75 114.155 105.687L114.063 103.03C114.056 102.899 114 102.775 113.908 102.683C113.813 102.591 113.689 102.538 113.559 102.538H110.405V102.542Z" fill="var(--sapContent_Illustrative_Color6)"/>
<path d="M118.459 102.556C118.396 102.556 118.332 102.567 118.276 102.591C118.216 102.616 118.166 102.651 118.12 102.697C118.078 102.743 118.043 102.797 118.018 102.857C117.997 102.917 117.986 102.98 117.99 103.044L118.082 105.701C118.089 105.832 118.145 105.955 118.237 106.047C118.332 106.139 118.455 106.189 118.586 106.192H121.74C121.803 106.192 121.867 106.182 121.923 106.157C121.98 106.132 122.033 106.097 122.079 106.051C122.121 106.005 122.156 105.952 122.181 105.892C122.202 105.832 122.213 105.768 122.209 105.704L122.117 103.048C122.114 102.917 122.057 102.793 121.962 102.701C121.867 102.609 121.743 102.56 121.613 102.556H118.459Z" fill="var(--sapContent_Illustrative_Color6)"/>
<path d="M126.686 102.641C126.623 102.641 126.559 102.651 126.503 102.676C126.446 102.701 126.393 102.736 126.347 102.782C126.305 102.828 126.27 102.881 126.249 102.942C126.224 103.002 126.217 103.065 126.217 103.129L126.309 105.786C126.312 105.917 126.369 106.04 126.464 106.132C126.556 106.224 126.683 106.277 126.813 106.277H129.967C130.03 106.277 130.094 106.263 130.15 106.238C130.207 106.214 130.26 106.178 130.306 106.132C130.348 106.086 130.383 106.033 130.404 105.973C130.426 105.913 130.436 105.849 130.433 105.786L130.341 103.129C130.334 102.998 130.277 102.874 130.186 102.782C130.09 102.69 129.967 102.641 129.836 102.637H126.683L126.686 102.641Z" fill="var(--sapContent_Illustrative_Color6)"/>
<path d="M50.3838 53.2623C50.5503 53.064 50.7675 52.9141 51.0124 52.8283C51.2574 52.7425 51.5211 52.7239 51.7758 52.7745L57.8649 53.8222C58.872 53.9949 59.2701 54.9157 59.1337 55.7008C59.0897 56.0242 58.9414 56.3246 58.711 56.5569C58.4806 56.7892 58.1806 56.9408 57.8561 56.989C57.6986 57.0077 57.5392 57.0025 57.3833 56.9737L51.2942 55.9261C51.0261 55.8856 50.774 55.7738 50.5646 55.6025C50.3552 55.4311 50.1962 55.2067 50.1045 54.9529C50.0025 54.6707 49.9746 54.3674 50.0234 54.0715C50.0723 53.7756 50.1964 53.4971 50.3838 53.2623V53.2623Z" fill="var(--sapContent_Illustrative_Color5)"/>
<path d="M73.5285 29.071C73.7044 29.0114 73.8909 28.9889 74.0761 29.0051C74.2613 29.0212 74.441 29.0756 74.6039 29.1647C74.7667 29.2538 74.9091 29.3757 75.0219 29.5226C75.1347 29.6695 75.2155 29.8382 75.2591 30.018L76.937 35.7678C76.9966 35.9747 77.0141 36.1914 76.9886 36.4052C76.9631 36.619 76.8951 36.8255 76.7884 37.0128C76.6818 37.2002 76.5387 37.3645 76.3674 37.4962C76.1962 37.6279 76.0004 37.7243 75.7913 37.7799C75.7057 37.8052 75.6182 37.8235 75.5296 37.8346C75.2029 37.8802 74.8708 37.8024 74.5989 37.6166C74.327 37.4308 74.135 37.1504 74.0606 36.8307L72.385 31.0831C72.325 30.8763 72.3071 30.6597 72.3323 30.4459C72.3576 30.2321 72.4254 30.0255 72.5319 29.8382C72.6384 29.6508 72.7813 29.4865 72.9525 29.3547C73.1236 29.223 73.3194 29.1265 73.5285 29.071V29.071Z" fill="var(--sapContent_Illustrative_Color5)"/>
<path d="M58.5663 36.857C58.7689 36.8439 58.9721 36.872 59.1635 36.9397C59.3548 37.0074 59.5302 37.1132 59.679 37.2506L66.4168 43.3482C66.7174 43.6234 66.8995 44.0035 66.9249 44.409C66.9503 44.8146 66.8171 45.2142 66.5531 45.5244C66.3071 45.811 65.9618 45.9952 65.5856 46.0405C65.3687 46.0663 65.1488 46.0452 64.9408 45.9788C64.7329 45.9123 64.5418 45.8021 64.3805 45.6556L57.6427 39.558C57.3402 39.2816 57.1572 38.8992 57.1322 38.4914C57.1072 38.0835 57.2421 37.6819 57.5086 37.3709C57.641 37.2188 57.8029 37.0949 57.9847 37.0066C58.1665 36.9183 58.3643 36.8674 58.5663 36.857V36.857Z" fill="var(--sapContent_Illustrative_Color5)"/>
</svg>
