<svg width="45" height="45" viewBox="0 0 45 45" fill="none" xmlns="http://www.w3.org/2000/svg" id="sapIllus-Dot-UnableToLoadImage">
<path d="M10.5703 7.57205L5.46769 38.3278C5.25362 39.618 6.12602 40.8376 7.41627 41.0517L28.8786 44.6124C30.1688 44.8265 31.3883 43.954 31.6024 42.6637L36.705 11.908C36.919 10.6177 36.0466 9.39827 34.7564 9.18421L13.2941 5.62345C12.0038 5.40939 10.7844 6.2818 10.5703 7.57205Z" style="fill:var(--sapContent_Illustrative_Color3)"/>
<path d="M28.5253 7.08789H7.59369C6.30975 7.08789 5.26892 8.12873 5.26892 9.41267V39.4351C5.26892 40.7191 6.30975 41.7599 7.59369 41.7599H28.5253C29.8092 41.7599 30.85 40.7191 30.85 39.4351V9.41267C30.85 8.12873 29.8092 7.08789 28.5253 7.08789Z" style="fill:var(--sapContent_Illustrative_Color8)"/>
<path d="M28.4038 42.0638H7.80185C7.06025 42.0638 6.34892 41.7698 5.82372 41.2462C5.29851 40.7227 5.0023 40.0122 5 39.2706V9.5691C5.0023 8.8275 5.29851 8.11709 5.82372 7.59351C6.34892 7.06993 7.06025 6.77588 7.80185 6.77588H28.4038C29.1454 6.77588 29.8567 7.06993 30.3819 7.59351C30.9071 8.11709 31.2034 8.8275 31.2056 9.5691V39.2706C31.2034 40.0122 30.9071 40.7227 30.3819 41.2462C29.8567 41.7698 29.1454 42.0638 28.4038 42.0638ZM7.80185 7.36579C7.22439 7.36579 6.67064 7.59514 6.26231 8.00346C5.85399 8.41178 5.62454 8.96559 5.62454 9.54305V39.2446C5.62454 39.8221 5.85399 40.3759 6.26231 40.7842C6.67064 41.1925 7.22439 41.4219 7.80185 41.4219H28.4038C28.9813 41.4219 29.535 41.1925 29.9433 40.7842C30.3517 40.3759 30.5811 39.8221 30.5811 39.2446V9.5691C30.5811 8.99164 30.3517 8.43783 29.9433 8.02951C29.535 7.62119 28.9813 7.39179 28.4038 7.39179L7.80185 7.36579Z" style="fill:var(--sapContent_Illustrative_Color4)"/>
<path d="M30.7198 17.1242C35.2998 17.1242 39.0127 13.4114 39.0127 8.8314C39.0127 4.2514 35.2998 0.538574 30.7198 0.538574C26.1398 0.538574 22.427 4.2514 22.427 8.8314C22.427 13.4114 26.1398 17.1242 30.7198 17.1242Z" style="fill:var(--sapContent_Illustrative_Color14)"/>
<path fill-rule="evenodd" clip-rule="evenodd" d="M30.7197 1.07695C26.4371 1.07695 22.9654 4.54869 22.9654 8.8313C22.9654 13.1139 26.4371 16.5857 30.7197 16.5857C35.0023 16.5857 38.4741 13.1139 38.4741 8.8313C38.4741 4.54869 35.0023 1.07695 30.7197 1.07695ZM21.8884 8.8313C21.8884 3.95391 25.8423 0 30.7197 0C35.5971 0 39.551 3.95391 39.551 8.8313C39.551 13.7087 35.5971 17.6626 30.7197 17.6626C25.8423 17.6626 21.8884 13.7087 21.8884 8.8313Z" style="fill:var(--sapContent_Illustrative_Color8)"/>
<path d="M31.4311 7.66906C31.4273 7.74864 31.4403 7.82814 31.4691 7.90244C31.4978 7.97674 31.5418 8.04417 31.5981 8.10051C31.6545 8.15684 31.722 8.20082 31.7963 8.22959C31.8706 8.25835 31.9501 8.27131 32.0296 8.2676H34.7274C34.8066 8.27142 34.8857 8.25849 34.9596 8.22964C35.0335 8.20079 35.1005 8.15668 35.1562 8.10019C35.2118 8.0437 35.2549 7.97609 35.2827 7.9018C35.3105 7.82751 35.3222 7.74821 35.3172 7.66906V4.92794C35.3209 4.84949 35.3083 4.77108 35.2799 4.69784C35.2516 4.62459 35.2083 4.55811 35.1528 4.50258C35.0972 4.44704 35.0306 4.40373 34.9574 4.3754C34.8842 4.34707 34.8059 4.33431 34.7274 4.33802C34.6483 4.33305 34.5689 4.34483 34.4947 4.3726C34.4204 4.40036 34.3527 4.44352 34.2962 4.49919C34.2397 4.55486 34.1957 4.62179 34.1668 4.69567C34.138 4.76954 34.125 4.84872 34.1288 4.92794V5.93416C33.6858 5.43809 33.1432 5.04104 32.5363 4.769C31.9295 4.49695 31.2721 4.35602 30.607 4.35539C29.3601 4.35539 28.1642 4.85072 27.2825 5.73244C26.4008 6.61415 25.9054 7.81002 25.9054 9.05696C25.9054 10.3047 26.4005 11.5015 27.282 12.3845C28.1634 13.2676 29.3593 13.765 30.607 13.7673C31.6777 13.7622 32.7155 13.3965 33.5528 12.7292C34.3901 12.0618 34.978 11.1318 35.2218 10.0892C35.2384 10.0088 35.2385 9.92577 35.2221 9.84525C35.2057 9.76474 35.1732 9.68838 35.1264 9.62082C35.0835 9.5584 35.0282 9.50544 34.9641 9.46516C34.8999 9.42488 34.8282 9.39812 34.7533 9.38659C34.6729 9.36893 34.5897 9.36831 34.5091 9.38474C34.4284 9.40117 34.3521 9.43434 34.285 9.48205C34.2217 9.52486 34.1676 9.57989 34.1258 9.64396C34.0841 9.70802 34.0556 9.77981 34.0421 9.85505C33.8693 10.641 33.4287 11.3424 32.7958 11.8393C32.1628 12.3362 31.3768 12.5976 30.5723 12.5788C29.6473 12.5651 28.7648 12.1881 28.1155 11.5291C27.4663 10.8701 27.1024 9.98206 27.1025 9.05696C27.1047 8.13335 27.4696 7.24759 28.1186 6.59046C28.7676 5.93333 29.6488 5.55744 30.5723 5.54379C31.1489 5.54006 31.7173 5.6801 32.2262 5.9512C32.7351 6.22231 33.1683 6.61596 33.4869 7.09656H31.9515C31.8081 7.1076 31.6744 7.17301 31.5776 7.27944C31.4808 7.38586 31.4284 7.52525 31.4311 7.66906Z" style="fill:var(--sapContent_Illustrative_Color8)"/>
</svg>
