<svg width="45" height="45" viewBox="0 0 45 45" fill="none" xmlns="http://www.w3.org/2000/svg" id="sapIllus-Dot-UserHasSignedUp">
<path d="M15.4362 5.42155C14.3425 5.95356 0.568116 17.0137 0.568116 17.0137C-0.0863286 17.6395 -0.24139 18.6176 0.454722 19.2144L24.8066 39.1871C24.8759 39.2462 24.9483 39.3053 25.0208 39.3581C25.5557 39.7509 26.0938 39.9581 26.7107 39.9941C27.0499 40.0139 27.3856 39.9386 27.7117 39.8432L29.9524 39.1871L17.9017 5.28337C17.9017 5.28337 16.5298 4.88953 15.4362 5.42155Z" fill="var(--sapContent_Illustrative_Color21)"/>
<path d="M29.5585 35.8642L26.8276 34.6178L2.25261 14.6499L2.24316 16.2414C2.24316 16.8382 2.5046 17.407 2.96447 17.7955L26.8244 37.9064L27.4796 38.4597C28.182 39.0534 29.0828 39.2927 29.949 39.1839V36.8962L29.5553 35.8642H29.5585Z" fill="var(--sapContent_Illustrative_Color1)"/>
<path d="M31.8711 35.3735L29.9561 36.8997V39.1874C30.5577 39.1128 31.1435 38.8704 31.6318 38.4539L31.8743 38.2487L44.2752 27.696C44.735 27.3043 44.9996 26.7355 44.9965 26.1387V24.9233L31.8711 35.3766V35.3735Z" fill="var(--sapContent_Illustrative_Color24)"/>
<path d="M32.7023 36.4703C31.2281 37.7168 28.7933 37.7168 27.3003 36.4703L3.06555 16.2289C1.82767 15.1939 2.02611 13.5309 3.48763 12.5207L14.8239 4.69704C16.1688 3.76765 18.2603 3.76765 19.5108 4.69704L43.7896 22.7751C45.2795 23.8847 45.4181 25.7093 44.0731 26.847L32.7054 36.4703H32.7023Z" fill="var(--sapContent_Illustrative_Color11)"/>
<path d="M15.6428 5.65993L13.1393 7.3968L14.4351 8.397C14.7446 8.63657 14.7203 9.02287 14.3774 9.26544L9.86498 12.4337C9.50993 12.6823 8.97281 12.6823 8.66328 12.4337L7.37054 11.3946L4.72135 13.2303C3.638 13.9819 3.49537 15.2097 4.41485 15.9734L27.766 35.3934C28.8706 36.3127 30.6641 36.3127 31.7565 35.3934L42.7114 26.161C43.7098 25.3195 43.6127 23.972 42.5111 23.1484L19.1174 5.65993C18.1919 4.96817 16.6412 4.96817 15.6428 5.65993Z" fill="var(--sapContent_Illustrative_Color8)"/>
<path d="M23.1441 12.9533C23.0919 12.4232 23.4823 11.9347 24.0315 11.8898C24.5663 11.8386 25.0589 12.2252 25.1044 12.7685L26.2425 24.17C26.2688 24.4419 26.1767 24.7169 25.9884 24.9205L25.9741 24.9354C25.7677 25.1537 25.4725 25.248 25.1817 25.2238L25.1803 25.224L20.0868 24.7603C19.5475 24.7092 19.1472 24.2403 19.1988 23.7031C19.2502 23.169 19.7241 22.7727 20.2667 22.8236L24.1646 23.1791L23.1441 12.9533Z" fill="var(--sapContent_Illustrative_Color9)"/>
</svg>