<svg width="45" height="45" viewBox="0 0 45 45" fill="none" xmlns="http://www.w3.org/2000/svg" id="sapIllus-Dot-NoFilterResults">
<path d="M2.82227 13.1354L16.9665 27.4977C17.0222 27.5553 17.0531 27.6309 17.0528 27.7093V41.7109C17.0523 41.8527 17.0914 41.9922 17.166 42.1148C17.2405 42.2375 17.3479 42.3389 17.4771 42.4088C17.6062 42.4786 17.7525 42.5142 17.9009 42.5121C18.0492 42.5099 18.1943 42.47 18.3212 42.3965L27.9015 36.8968C28.0251 36.8261 28.1274 36.7261 28.1987 36.6064C28.2699 36.4868 28.3076 36.3515 28.308 36.2138L28.3526 27.7093C28.3528 27.6324 28.3831 27.5584 28.4375 27.5017L42.8769 12.5522L2.82227 13.1354Z" style="fill:var(--sapContent_Illustrative_Color2)"/>
<path d="M26.5898 27.6149V37.1125C26.5897 37.1661 26.6045 37.2187 26.6326 37.265C26.6608 37.3113 26.7013 37.3497 26.75 37.3761C26.7987 37.4025 26.8539 37.4161 26.9099 37.4154C26.9659 37.4147 27.0208 37.3998 27.0688 37.3722L27.7482 36.9821C27.9176 36.8843 28.0578 36.7464 28.1553 36.5818C28.2528 36.4172 28.3044 36.2314 28.3051 36.0422L28.3483 27.8239C28.3497 27.6714 28.4102 27.5248 28.5181 27.4125L42.3755 13.0662C42.4174 13.0225 42.4449 12.9681 42.4548 12.9096C42.4647 12.8512 42.4565 12.7912 42.4312 12.7371C42.4059 12.6831 42.3646 12.6373 42.3124 12.6054C42.2602 12.5735 42.1994 12.5569 42.1374 12.5576C42.1027 12.5584 42.0684 12.5647 42.0358 12.5763L34.0998 15.3188C34.03 15.3434 33.9714 15.3904 33.9341 15.4519L26.6316 27.4565C26.6029 27.5047 26.5885 27.5594 26.5898 27.6149Z" style="fill:var(--sapContent_Illustrative_Color13)"/>
<path d="M22.4993 15.3612C34.2878 15.3612 43.8444 12.8411 43.8444 9.73234C43.8444 6.62363 34.2878 4.10352 22.4993 4.10352C10.7107 4.10352 1.15417 6.62363 1.15417 9.73234C1.15417 12.8411 10.7107 15.3612 22.4993 15.3612Z" style="fill:var(--sapContent_Illustrative_Color13)"/>
<path d="M43.8444 9.73815C43.8444 8.33227 41.8882 7.04754 38.6553 6.06104L34.2627 14.4364C40.0351 13.4232 43.8444 11.6952 43.8444 9.73815Z" style="fill:var(--sapContent_Illustrative_Color14)"/>
<path d="M22.4993 16.4663C16.6977 16.4663 11.2288 15.8659 7.10065 14.7782C2.38916 13.5347 0 11.8386 0 9.7325C0 7.62634 2.38777 5.93157 7.10065 4.68812C11.2288 3.60043 16.6977 3 22.4993 3C28.301 3 33.7768 3.60043 37.8994 4.68812C42.6108 5.93157 45 7.62768 45 9.7325C45 11.8373 42.6122 13.5347 37.8994 14.7782C33.7712 15.8619 28.3023 16.4663 22.4993 16.4663ZM22.4993 5.20866C16.8995 5.20866 11.6478 5.7798 7.71464 6.8169C3.43894 7.94453 2.3098 9.21328 2.3098 9.7325C2.3098 10.2517 3.43894 11.5218 7.71464 12.6494C11.6478 13.6865 16.9037 14.2577 22.4993 14.2577C28.0949 14.2577 33.3508 13.6865 37.2854 12.6494C41.5597 11.5218 42.6902 10.253 42.6902 9.7325C42.6902 9.21195 41.5597 7.94453 37.2854 6.8169C33.3508 5.7798 28.1005 5.21133 22.4993 5.21133V5.20866Z" style="fill:var(--sapContent_Illustrative_Color2)"/>
</svg>
