<svg width="161" height="153" viewBox="0 0 161 153" fill="none" xmlns="http://www.w3.org/2000/svg" id="sapIllus-Dialog-AddPeople">
<circle cx="84.186" cy="76.1691" r="76.1691" fill="var(--sapContent_Illustrative_Color7)"/>
<mask id="mask0_1663_6845" class="sapIllus_MaskTypeAlpha" maskUnits="userSpaceOnUse" x="8" y="0" width="153" height="153">
<circle cx="84.186" cy="76.1691" r="76.1691" fill="var(--sapContent_Illustrative_Color7)"/>
</mask>
<g mask="url(#mask0_1663_6845)">
<path d="M156.346 113.678C156.346 112.941 154.206 112.35 151.346 112.216C151.182 109.36 150.553 107.236 149.815 107.238C149.078 107.239 148.465 109.38 148.308 112.251C145.44 112.447 143.307 113.088 143.317 113.827C143.327 114.566 145.458 115.156 148.318 115.288C148.489 118.145 149.111 120.268 149.846 120.267C150.582 120.265 151.199 118.125 151.356 115.254C154.224 115.058 156.354 114.417 156.346 113.678Z" fill="var(--sapContent_Illustrative_Color18)"/>
<path d="M84.186 141.74C84.186 141.003 82.0456 140.413 79.1857 140.279C79.0222 137.422 78.3927 135.299 77.6552 135.3C76.9178 135.302 76.3046 137.442 76.1476 140.313C73.2796 140.509 71.1473 141.15 71.1571 141.889C71.1669 142.628 73.2976 143.218 76.1574 143.351C76.3291 146.207 76.9505 148.331 77.6863 148.329C78.4221 148.328 79.0386 146.187 79.1955 143.316C82.0636 143.12 84.1942 142.479 84.186 141.74Z" fill="var(--sapContent_Illustrative_Color18)"/>
</g>
<path d="M122.841 27.4842C122.036 36.848 120.305 47.4637 113.154 46.1127C104.191 44.416 105.733 35.6675 106.544 26.275C107.355 16.8825 109.371 9.28706 116.188 9.88195C122.586 10.4298 123.649 18.0791 122.841 27.4842Z" fill="var(--sapContent_Illustrative_Color19)"/>
<path d="M129.749 19.8227C133.493 16.831 135.167 12.7025 133.488 10.6014C131.808 8.50026 127.412 9.22222 123.668 12.2139C119.924 15.2056 118.25 19.3341 119.93 21.4352C121.609 23.5363 126.005 22.8144 129.749 19.8227Z" fill="var(--sapContent_Illustrative_Color19)"/>
<path d="M135.066 39.5613C134.028 44.8261 130.704 48.5806 127.633 48.0046C120.131 46.5961 122.488 42.6093 123.962 37.3709C125.436 32.1325 128.317 28.3918 131.396 28.9277C137.042 29.9047 136.11 34.2679 135.066 39.5613Z" fill="var(--sapContent_Illustrative_Color19)"/>
<path d="M136.112 55.867L94.9279 47.7429C94.4406 47.6468 93.9676 47.9638 93.8715 48.4511L88.3872 76.2529C88.2911 76.7402 88.6082 77.2131 89.0955 77.3092L130.279 85.4333C130.767 85.5294 131.239 85.2124 131.336 84.7251L136.82 56.9233C136.916 56.436 136.599 55.9631 136.112 55.867Z" fill="var(--sapContent_Illustrative_Color18)"/>
<path d="M137.059 50.9117L95.9386 42.8C95.4513 42.7039 94.9784 43.021 94.8822 43.5082L92.9136 53.4878C92.8175 53.975 93.1347 54.4479 93.622 54.5441L134.743 62.6557C135.23 62.7518 135.703 62.4348 135.799 61.9475L137.768 51.968C137.864 51.4807 137.547 51.0078 137.059 50.9117Z" fill="var(--sapContent_Illustrative_Color19)"/>
<path d="M140.308 47.5706L94.5347 38.5412C94.0474 38.4451 93.5744 38.7622 93.4783 39.2494L91.321 50.1857C91.2249 50.6729 91.542 51.1459 92.0293 51.242L137.802 60.2714C138.29 60.3675 138.763 60.0504 138.859 59.5632L141.016 48.6269C141.112 48.1397 140.795 47.6668 140.308 47.5706Z" fill="var(--sapContent_Illustrative_Color18)"/>
<path d="M20.9709 103.683L8.07805 50.7971L7.96602 50.8203L6.18434 43.4949L3.38398 44.0755C3.25274 44.1036 3.12847 44.158 3.0185 44.2353C2.90852 44.3126 2.81507 44.4113 2.74357 44.5257C2.67206 44.64 2.62394 44.7677 2.60209 44.9013C2.58024 45.0349 2.58507 45.1716 2.61629 45.3034L18.0841 108.777C18.1479 109.031 18.3058 109.25 18.5251 109.39C18.7444 109.529 19.0083 109.579 19.2621 109.528L100.955 92.59C101.087 92.5629 101.212 92.5092 101.322 92.4321C101.432 92.3551 101.525 92.2563 101.596 92.1417C101.667 92.027 101.715 91.899 101.735 91.7653C101.756 91.6316 101.749 91.4949 101.716 91.3636L100.921 88.0937L22.1403 104.428C21.8881 104.482 21.6244 104.435 21.4058 104.295C21.1871 104.156 21.031 103.936 20.9709 103.683Z" fill="var(--sapContent_Illustrative_Color20)"/>
<path d="M91.7248 33.4539L8.07812 50.7969L20.9709 103.683C21.0311 103.936 21.1872 104.156 21.4058 104.295C21.6244 104.434 21.8881 104.482 22.1404 104.428L103.855 87.4853C103.986 87.4583 104.11 87.4049 104.219 87.3284C104.329 87.2519 104.422 87.1538 104.493 87.0399C104.565 86.9261 104.612 86.7989 104.633 86.6659C104.655 86.5329 104.649 86.3969 104.617 86.2659L91.7248 33.4539ZM19.5395 54.8697C19.4958 54.6971 19.4873 54.5174 19.5145 54.3417C19.5418 54.1659 19.6042 53.9977 19.698 53.8473C19.7917 53.6969 19.9149 53.5674 20.0601 53.4666C20.2052 53.3659 20.3693 53.2961 20.5422 53.2614L45.1854 48.152C45.5381 48.0789 45.9058 48.1502 46.2075 48.3502C46.5091 48.5503 46.7201 48.8628 46.7939 49.2189C46.8376 49.3915 46.8462 49.5711 46.8189 49.7469C46.7917 49.9226 46.7293 50.0909 46.6355 50.2413C46.5417 50.3917 46.4184 50.5212 46.2733 50.6219C46.1281 50.7227 45.9642 50.7925 45.7912 50.8272L21.148 55.9366C20.7952 56.0097 20.4276 55.9384 20.126 55.7383C19.8243 55.5383 19.6133 55.2258 19.5395 54.8697ZM92.6634 83.7988L30.0754 96.7755C29.8213 96.8303 29.5557 96.7823 29.3355 96.6419C29.1153 96.5016 28.9581 96.28 28.8975 96.0247L20.3769 61.0568C20.3447 60.9253 20.3392 60.7886 20.3607 60.655C20.3823 60.5215 20.4305 60.3938 20.5024 60.2798C20.5742 60.1657 20.6683 60.0675 20.7789 59.9913C20.8896 59.915 21.0144 59.8622 21.146 59.836L83.748 46.8563C84.0003 46.802 84.264 46.8496 84.4826 46.9889C84.7012 47.1282 84.8573 47.3481 84.9175 47.6015L93.4396 82.5765C93.4676 82.7071 93.4696 82.8419 93.4453 82.9731C93.421 83.1042 93.3709 83.2291 93.2981 83.3403C93.2253 83.4515 93.1311 83.5469 93.0211 83.6207C92.9111 83.6946 92.7875 83.7455 92.6576 83.7705L92.6634 83.7988Z" fill="var(--sapContent_Illustrative_Color19)"/>
<path d="M8.07806 50.7969L91.9138 33.4147L89.2764 22.5962C89.2142 22.3419 89.0567 22.1215 88.837 21.9814C88.6173 21.8414 88.3525 21.7926 88.0986 21.8454L70.8973 25.4119L71.8622 29.3614C72.1715 29.5137 72.4444 29.7322 72.6617 30.0016C72.879 30.271 73.0354 30.5848 73.1202 30.9211C73.1929 31.2049 73.2078 31.5005 73.1639 31.7899C73.12 32.0793 73.0183 32.3565 72.865 32.6047C72.7116 32.8529 72.5099 33.0668 72.2718 33.2337C72.0338 33.4006 71.7644 33.5169 71.48 33.5755C70.897 33.6834 70.2944 33.5608 69.7969 33.2331C69.2994 32.9054 68.9453 32.3977 68.8077 31.8152C68.7269 31.4948 68.7197 31.1602 68.7869 30.8371C68.854 30.514 68.9938 30.211 69.1952 29.9512L68.223 25.9664L24.4183 35.0487L25.3877 39.0194C25.6935 39.1713 25.9629 39.3885 26.1772 39.656C26.3916 39.9234 26.5457 40.2346 26.6288 40.5678C26.7008 40.8488 26.7161 41.1412 26.6738 41.4278C26.6316 41.7144 26.5328 41.9893 26.383 42.2362C26.2333 42.4831 26.0359 42.697 25.8023 42.8651C25.5688 43.0333 25.3039 43.1522 25.0235 43.215C24.4407 43.321 23.8389 43.1977 23.3419 42.8703C22.8448 42.5429 22.4902 42.0363 22.3512 41.4547C22.2678 41.1299 22.2603 40.7903 22.3292 40.4627C22.3981 40.135 22.5416 39.8283 22.7484 39.5666L21.779 35.5959L6.14601 38.8372C6.0152 38.8642 5.89126 38.9176 5.78154 38.9941C5.67182 39.0706 5.57859 39.1687 5.50745 39.2825C5.43631 39.3964 5.38865 39.5236 5.36742 39.6566C5.34619 39.7895 5.3518 39.9256 5.38386 40.0565L6.21938 43.4875L8.00106 50.8129L8.07806 50.7969Z" fill="var(--sapContent_Illustrative_Color18)"/>
<path d="M24.7849 41.9232L24.7079 41.9392C24.3644 42.0088 24.0069 41.9416 23.7103 41.7517C23.4138 41.5618 23.2011 41.2639 23.1166 40.9203L22.7833 39.5595C22.5766 39.8212 22.4331 40.1279 22.3642 40.4556C22.2952 40.7833 22.3028 41.1229 22.3862 41.4476C22.5253 42.0292 22.8798 42.5358 23.3768 42.8632C23.8739 43.1906 24.4758 43.314 25.0586 43.2079C25.339 43.1452 25.6038 43.0262 25.8373 42.8581C26.0708 42.6899 26.2683 42.4761 26.418 42.2292C26.5677 41.9823 26.6667 41.7073 26.7089 41.4207C26.7511 41.1341 26.7357 40.8417 26.6638 40.5608C26.5807 40.2275 26.4267 39.9163 26.2123 39.6489C25.9979 39.3815 25.7285 39.1642 25.4227 39.0123L25.756 40.3731C25.7974 40.5397 25.805 40.713 25.7782 40.8825C25.7514 41.0519 25.6908 41.214 25.6 41.3589C25.5092 41.5038 25.3901 41.6285 25.25 41.7255C25.11 41.8225 24.9518 41.8898 24.7849 41.9232Z" fill="var(--sapContent_Illustrative_Color20)"/>
<path d="M71.2226 32.2285L71.1456 32.2445C70.8035 32.3103 70.4489 32.2424 70.1537 32.0545C69.8585 31.8666 69.6448 31.5729 69.5558 31.2327L69.2471 29.9553C69.0456 30.215 68.906 30.518 68.8388 30.8411C68.7716 31.1642 68.7787 31.4988 68.8596 31.8193C68.9971 32.4018 69.3512 32.9095 69.8487 33.2371C70.3462 33.5648 70.9489 33.6874 71.532 33.5795C71.8163 33.5209 72.0856 33.4047 72.3237 33.2378C72.5617 33.0709 72.7636 32.8569 72.9169 32.6087C73.0703 32.3605 73.172 32.0833 73.2159 31.794C73.2597 31.5046 73.2449 31.209 73.1722 30.9251C73.0874 30.5889 72.9308 30.2751 72.7135 30.0057C72.4962 29.7363 72.2234 29.5178 71.9141 29.3655L72.2301 30.6782C72.2724 30.8476 72.2795 31.0238 72.2509 31.1957C72.2224 31.3677 72.1587 31.5317 72.064 31.6774C71.9694 31.823 71.8458 31.9472 71.7009 32.0421C71.5561 32.137 71.3932 32.2004 71.2226 32.2285Z" fill="var(--sapContent_Illustrative_Color20)"/>
<path d="M23.1167 40.9203C23.2012 41.2639 23.4139 41.5618 23.7105 41.7517C24.007 41.9416 24.3645 42.0087 24.7081 41.9392L24.7851 41.9232C24.9519 41.8897 25.1101 41.8225 25.2502 41.7255C25.3903 41.6285 25.5094 41.5038 25.6001 41.3589C25.6909 41.214 25.7515 41.0519 25.7783 40.8825C25.8051 40.713 25.7976 40.5397 25.7561 40.373L25.4228 39.0123L24.4535 35.0415L23.4724 31.0143C23.388 30.6707 23.1753 30.3728 22.8787 30.1829C22.5822 29.993 22.2248 29.9258 21.8812 29.9954L21.8392 30.0041C21.6723 30.0376 21.514 30.1048 21.374 30.2018C21.2339 30.2988 21.1149 30.4235 21.0241 30.5684C20.9333 30.7133 20.8727 30.8754 20.8459 31.0449C20.8191 31.2143 20.8266 31.3876 20.8681 31.5543L21.8492 35.5815L22.8185 39.5523L23.1167 40.9203Z" fill="var(--sapContent_Illustrative_Color18)"/>
<path d="M69.5559 31.2328C69.6423 31.5773 69.8564 31.8758 70.1542 32.0664C70.4519 32.2571 70.8104 32.3254 71.1557 32.2573L71.2327 32.2413C71.3998 32.2079 71.5583 32.1403 71.6984 32.0428C71.8385 31.9453 71.9574 31.8198 72.0475 31.6741C72.1376 31.5284 72.1972 31.3656 72.2226 31.1956C72.248 31.0256 72.2387 30.852 72.1952 30.6855L71.8792 29.3728L70.9143 25.4233L69.9187 21.3253C69.8323 20.9814 69.6181 20.6838 69.3204 20.4944C69.0227 20.3049 68.6646 20.2381 68.3203 20.3079L68.2433 20.3239C68.0768 20.3572 67.9188 20.4245 67.7791 20.5215C67.6394 20.6185 67.5209 20.7432 67.4307 20.8881C67.3405 21.033 67.2805 21.195 67.2545 21.3642C67.2285 21.5335 67.2369 21.7064 67.2793 21.8726L68.275 25.9705L69.2472 29.9554L69.5559 31.2328Z" fill="var(--sapContent_Illustrative_Color19)"/>
<path d="M84.2467 46.9372C83.7113 46.8953 83.173 46.9348 82.6499 47.0545L22.2112 59.5856C21.6753 59.6856 21.1592 59.8722 20.6829 60.1384C20.4362 60.3222 20.486 61.5133 20.6301 62.1025L28.6324 94.9225C28.7521 95.4511 28.9485 95.9593 29.2152 96.4306C29.3954 96.6659 30.5525 96.6471 31.1406 96.5252L91.5794 83.994C92.1155 83.8927 92.6313 83.7037 93.1063 83.4342C93.3529 83.2504 93.3046 82.0664 93.159 81.4701L85.1538 48.636C85.0197 48.0594 84.5096 47.008 84.2467 46.9372ZM62.3982 61.2994C62.111 61.3573 61.8122 61.301 61.5644 61.1423C61.3165 60.9836 61.1386 60.7347 61.0678 60.4476L60.6822 58.8692C60.6473 58.7298 60.6409 58.5849 60.6633 58.4431C60.6856 58.3014 60.7363 58.1658 60.8122 58.0446C60.8881 57.9235 60.9877 57.8192 61.1049 57.7381C61.2221 57.6571 61.3545 57.601 61.4941 57.5731L63.5944 57.1377C63.8823 57.0796 64.1817 57.1355 64.4306 57.2938C64.6796 57.4521 64.859 57.7007 64.9317 57.9881L65.3174 59.5665C65.3512 59.7058 65.3568 59.8504 65.334 59.9918C65.3112 60.1332 65.2604 60.2683 65.1847 60.3893C65.1089 60.5102 65.0097 60.6144 64.893 60.6957C64.7763 60.777 64.6445 60.8338 64.5054 60.8625L62.3982 61.2994ZM65.5013 64.5034C65.7883 64.4474 66.0862 64.5045 66.3336 64.6629C66.581 64.8213 66.7592 65.0691 66.8316 65.3553L67.2173 66.9337C67.2511 67.073 67.2567 67.2177 67.2339 67.359C67.2111 67.5004 67.1603 67.6355 67.0846 67.7565C67.0088 67.8774 66.9096 67.9816 66.7929 68.063C66.6762 68.1443 66.5444 68.201 66.4053 68.2297L64.3051 68.6652C64.018 68.7212 63.7202 68.6642 63.4727 68.5057C63.2253 68.3473 63.0471 68.0995 62.9747 67.8133L62.5891 66.2349C62.5553 66.0956 62.5496 65.951 62.5724 65.8096C62.5952 65.6683 62.646 65.5331 62.7218 65.4121C62.7976 65.2912 62.8967 65.187 63.0134 65.1057C63.1301 65.0244 63.2619 64.9677 63.401 64.9389L65.5013 64.5034ZM64.4093 73.3238C64.3745 73.1845 64.3681 73.0395 64.3904 72.8978C64.4128 72.7561 64.4635 72.6205 64.5394 72.4993C64.6153 72.3781 64.7149 72.2739 64.8321 72.1928C64.9493 72.1118 65.0817 72.0556 65.2213 72.0278L67.3215 71.5923C67.6086 71.5363 67.9064 71.5934 68.1539 71.7518C68.4013 71.9102 68.5795 72.158 68.6519 72.4442L69.0375 74.0226C69.0713 74.1619 69.077 74.3066 69.0542 74.4479C69.0314 74.5893 68.9806 74.7244 68.9048 74.8454C68.8291 74.9663 68.7299 75.0706 68.6132 75.1519C68.4965 75.2332 68.3647 75.2899 68.2256 75.3186L66.1253 75.7541C65.8383 75.8101 65.5404 75.7531 65.293 75.5946C65.0456 75.4362 64.8673 75.1884 64.795 74.9022L64.4093 73.3238ZM53.9515 62.9623C53.6636 63.0204 53.3642 62.9645 53.1152 62.8062C52.8663 62.6479 52.6869 62.3993 52.6142 62.1119L52.2285 60.5335C52.1936 60.3938 52.1871 60.2485 52.2093 60.1064C52.2315 59.9643 52.282 59.8283 52.3577 59.7066C52.4334 59.5849 52.5327 59.48 52.6498 59.3981C52.7669 59.3163 52.8993 59.2592 53.039 59.2304L55.1393 58.7949C55.4282 58.7385 55.7279 58.7959 55.9769 58.9554C56.2259 59.1149 56.4053 59.3643 56.4781 59.6524L56.8567 61.2322C56.8914 61.371 56.8979 61.5153 56.8759 61.6565C56.8539 61.7976 56.8038 61.9328 56.7286 62.0537C56.6534 62.1746 56.5547 62.2789 56.4384 62.3602C56.322 62.4415 56.1905 62.4982 56.0517 62.5268L53.9515 62.9623ZM57.0082 66.1538C57.2961 66.0957 57.5955 66.1516 57.8445 66.3099C58.0934 66.4682 58.2728 66.7168 58.3455 67.0042L58.7312 68.5826C58.766 68.7223 58.7726 68.8676 58.7504 69.0097C58.7282 69.1517 58.6777 69.2877 58.602 69.4095C58.5263 69.5312 58.4269 69.6361 58.3098 69.718C58.1927 69.7998 58.0604 69.8569 57.9207 69.8857L55.8204 70.3212C55.5315 70.3776 55.2318 70.3201 54.9828 70.1607C54.7338 70.0012 54.5544 69.7518 54.4817 69.4637L54.103 67.8838C54.0683 67.7451 54.0618 67.6008 54.0838 67.4596C54.1058 67.3184 54.1559 67.1833 54.2311 67.0624C54.3063 66.9415 54.405 66.8372 54.5214 66.7559C54.6377 66.6746 54.7692 66.6179 54.908 66.5893L57.0082 66.1538ZM55.9163 74.9742C55.8816 74.8354 55.875 74.6911 55.897 74.55C55.9191 74.4088 55.9692 74.2737 56.0444 74.1528C56.1196 74.0318 56.2183 73.9276 56.3346 73.8463C56.4509 73.765 56.5824 73.7083 56.7212 73.6796L58.8215 73.2442C59.1092 73.1879 59.4078 73.2445 59.6564 73.4026C59.9049 73.5606 60.0845 73.8081 60.1588 74.0946L60.5445 75.673C60.5793 75.8123 60.5857 75.9572 60.5634 76.099C60.541 76.2407 60.4904 76.3763 60.4144 76.4975C60.3385 76.6186 60.2389 76.7229 60.1217 76.804C60.0045 76.885 59.8721 76.9412 59.7326 76.969L57.6323 77.4045C57.3444 77.4625 57.045 77.4066 56.796 77.2483C56.5471 77.09 56.3676 76.8415 56.2949 76.5541L55.9163 74.9742ZM45.6525 64.6682C45.3648 64.7245 45.0661 64.6678 44.8176 64.5098C44.5691 64.3518 44.3895 64.1043 44.3152 63.8178L43.9365 62.238C43.9007 62.0988 43.8933 61.9539 43.9148 61.812C43.9362 61.6701 43.9859 61.5341 44.0611 61.4124C44.1362 61.2907 44.2352 61.1858 44.3519 61.1039C44.4686 61.0221 44.6006 60.9651 44.74 60.9363L46.8402 60.5009C47.1293 60.4426 47.43 60.4993 47.6794 60.659C47.9289 60.8188 48.1079 61.0693 48.1791 61.3583L48.5647 62.9367C48.5985 63.076 48.6041 63.2207 48.5813 63.3621C48.5585 63.5034 48.5078 63.6386 48.432 63.7595C48.3562 63.8805 48.257 63.9847 48.1403 64.066C48.0236 64.1473 47.8919 64.204 47.7528 64.2328L45.6525 64.6682ZM48.7092 67.8597C48.9971 67.8016 49.2965 67.8576 49.5454 68.0159C49.7944 68.1742 49.9738 68.4227 50.0465 68.7101L50.4322 70.2885C50.4671 70.4282 50.4736 70.5735 50.4514 70.7156C50.4292 70.8577 50.3788 70.9937 50.3031 71.1154C50.2274 71.2371 50.1279 71.3421 50.0108 71.4239C49.8938 71.5058 49.7614 71.5628 49.6217 71.5916L47.5214 72.0271C47.2332 72.0833 46.9342 72.0255 46.6863 71.8656C46.4384 71.7057 46.2606 71.456 46.1897 71.1682L45.804 69.5898C45.7691 69.4504 45.7627 69.3055 45.7851 69.1638C45.8074 69.022 45.8581 68.8865 45.934 68.7653C46.0099 68.6441 46.1095 68.5398 46.2267 68.4588C46.3439 68.3777 46.4764 68.3215 46.616 68.2937L48.7092 67.8597ZM47.6173 76.6801C47.5825 76.5408 47.576 76.3959 47.5983 76.2541C47.6207 76.1124 47.6713 75.9768 47.7473 75.8556C47.8232 75.7345 47.9228 75.6302 48.0401 75.5491C48.1573 75.4681 48.2897 75.4119 48.4292 75.3841L50.5295 74.9486C50.8174 74.8905 51.1168 74.9465 51.3658 75.1048C51.6147 75.2631 51.7941 75.5117 51.8668 75.799L52.2524 77.3775C52.2873 77.5168 52.2938 77.6617 52.2714 77.8035C52.2491 77.9452 52.1984 78.0808 52.1225 78.202C52.0466 78.3231 51.9469 78.4274 51.8297 78.5085C51.7125 78.5895 51.5801 78.6457 51.4405 78.6735L49.3402 79.1089C49.053 79.1668 48.7544 79.1105 48.5065 78.9518C48.2587 78.7931 48.0808 78.5442 48.0099 78.2571L47.6173 76.6801ZM37.2511 66.3733C36.9632 66.4314 36.6638 66.3755 36.4148 66.2172C36.1659 66.0589 35.9864 65.8103 35.9137 65.5229L35.5281 63.9445C35.4943 63.8052 35.4887 63.6605 35.5115 63.5192C35.5343 63.3778 35.5851 63.2426 35.6608 63.1217C35.7366 63.0008 35.8358 62.8965 35.9525 62.8152C36.0692 62.7339 36.201 62.6772 36.34 62.6484L38.4403 62.213C38.7275 62.1551 39.0263 62.2114 39.2741 62.3701C39.522 62.5288 39.6999 62.7777 39.7707 63.0648L40.1563 64.6432C40.1911 64.7826 40.1976 64.9275 40.1752 65.0693C40.1529 65.211 40.1022 65.3466 40.0263 65.4678C39.9503 65.5889 39.8508 65.6932 39.7335 65.7743C39.6163 65.8553 39.4839 65.9115 39.3444 65.9393L37.2511 66.3733ZM40.3079 69.5648C40.5968 69.5084 40.8965 69.5658 41.1455 69.7253C41.3945 69.8848 41.5738 70.1342 41.6466 70.4223L42.0323 72.0007C42.066 72.14 42.0718 72.2846 42.049 72.426C42.0261 72.5673 41.9753 72.7025 41.8995 72.8235C41.8238 72.9444 41.7246 73.0486 41.6079 73.1299C41.4912 73.2112 41.3594 73.268 41.2203 73.2967L39.12 73.7322C38.8323 73.7885 38.5338 73.7318 38.2853 73.5737C38.0367 73.4157 37.857 73.1682 37.7827 72.8818L37.397 71.3034C37.3622 71.1637 37.3556 71.0184 37.3778 70.8763C37.4 70.7342 37.4505 70.5982 37.5262 70.4765C37.6019 70.3548 37.7013 70.2498 37.8184 70.168C37.9354 70.0862 38.0679 70.0291 38.2076 70.0003L40.3079 69.5648ZM39.2159 78.3852C39.1821 78.2459 39.1764 78.1013 39.1992 77.9599C39.222 77.8185 39.2728 77.6834 39.3485 77.5624C39.4243 77.4415 39.5235 77.3373 39.6402 77.256C39.7569 77.1747 39.8888 77.1179 40.0278 77.0892L42.1281 76.6537C42.4158 76.5974 42.7144 76.6541 42.9629 76.8121C43.2114 76.9702 43.3912 77.2177 43.4654 77.5041L43.8511 79.0825C43.8859 79.2222 43.8924 79.3675 43.8702 79.5096C43.8481 79.6517 43.7976 79.7876 43.7219 79.9094C43.6462 80.0311 43.5468 80.136 43.4297 80.2179C43.3126 80.2997 43.1803 80.3568 43.0406 80.3856L40.9403 80.8211C40.6514 80.8775 40.3517 80.82 40.1027 80.6606C39.8537 80.5011 39.6743 80.2517 39.6015 79.9636L39.2159 78.3852ZM29.0011 68.0691C28.7134 68.1253 28.4148 68.0687 28.1663 67.9106C27.9178 67.7526 27.7381 67.5051 27.6638 67.2187L27.2851 65.6388C27.2504 65.5 27.2439 65.3557 27.2659 65.2146C27.288 65.0734 27.3381 64.9383 27.4133 64.8174C27.4885 64.6964 27.5872 64.5922 27.7035 64.5109C27.8198 64.4296 27.9513 64.3729 28.0901 64.3442L30.1904 63.9088C30.4781 63.8525 30.7767 63.9091 31.0252 64.0672C31.2737 64.2252 31.4534 64.4727 31.5277 64.7592L31.9133 66.3376C31.9471 66.4769 31.9528 66.6215 31.93 66.7629C31.9072 66.9042 31.8564 67.0394 31.7806 67.1604C31.7048 67.2813 31.6056 67.3855 31.4889 67.4668C31.3722 67.5481 31.2405 67.6049 31.1014 67.6336L29.0011 68.0691ZM32.0578 71.2606C32.3469 71.2023 32.6475 71.259 32.897 71.4188C33.1464 71.5786 33.3254 71.8291 33.3966 72.1181L33.7822 73.6965C33.816 73.8358 33.8217 73.9804 33.7989 74.1218C33.7761 74.2631 33.7253 74.3983 33.6495 74.5193C33.5738 74.6402 33.4746 74.7444 33.3579 74.8257C33.2413 74.907 33.1094 74.9637 32.9703 74.9925L30.87 75.4279C30.583 75.484 30.2852 75.4269 30.0378 75.2685C29.7904 75.11 29.6121 74.8623 29.5397 74.5761L29.1541 72.9977C29.1182 72.8579 29.1108 72.7124 29.1325 72.5699C29.1543 72.4275 29.2046 72.2911 29.2805 72.1691C29.3563 72.0471 29.4561 71.9422 29.5737 71.8606C29.6914 71.779 29.8244 71.7225 29.9646 71.6946L32.0578 71.2606ZM30.9659 80.081C30.9311 79.9416 30.9246 79.7967 30.947 79.655C30.9694 79.5132 31.02 79.3777 31.0959 79.2565C31.1719 79.1353 31.2714 79.031 31.3887 78.95C31.5059 78.8689 31.6383 78.8128 31.7778 78.785L33.8781 78.3495C34.166 78.2914 34.4654 78.3473 34.7144 78.5056C34.9633 78.6639 35.1427 78.9125 35.2154 79.1999L35.6011 80.7783C35.636 80.918 35.6425 81.0633 35.6203 81.2053C35.5981 81.3474 35.5476 81.4834 35.4719 81.6052C35.3962 81.7269 35.2969 81.8318 35.1798 81.9136C35.0627 81.9955 34.9303 82.0526 34.7906 82.0814L32.6903 82.5169C32.4021 82.573 32.103 82.5152 31.8551 82.3553C31.6072 82.1954 31.4294 81.9457 31.3585 81.6579L30.9659 80.081ZM75.5826 69.8795C75.8705 69.8214 76.1699 69.8773 76.4189 70.0356C76.6678 70.1939 76.8472 70.4425 76.9199 70.7299L77.3056 72.3083C77.3393 72.4477 77.3451 72.5923 77.3223 72.7336C77.2995 72.875 77.2486 73.0102 77.1728 73.1311C77.0971 73.2521 76.998 73.3563 76.8813 73.4376C76.7646 73.5189 76.6327 73.5756 76.4936 73.6044L74.3933 74.0398C74.1056 74.0961 73.8071 74.0395 73.5586 73.8814C73.31 73.7234 73.1303 73.4759 73.0561 73.1894L72.6774 71.6096C72.6427 71.4708 72.6362 71.3265 72.6582 71.1853C72.6802 71.0442 72.7303 70.9091 72.8055 70.7881C72.8807 70.6672 72.9794 70.5629 73.0958 70.4816C73.2121 70.4003 73.3436 70.3436 73.4824 70.315L75.5826 69.8795ZM72.5661 66.9524C72.2789 67.0102 71.9802 66.9539 71.7324 66.7952C71.4845 66.6365 71.3066 66.3876 71.2358 66.1005L70.8501 64.5221C70.8152 64.3828 70.8088 64.2378 70.8312 64.0961C70.8535 63.9544 70.9042 63.8188 70.9801 63.6976C71.056 63.5764 71.1556 63.4721 71.2728 63.3911C71.3901 63.31 71.5225 63.2539 71.6621 63.2261L73.7624 62.7906C74.0503 62.7325 74.3496 62.7884 74.5985 62.9467C74.8475 63.1051 75.027 63.3536 75.0997 63.641L75.4853 65.2194C75.5191 65.3588 75.5248 65.5034 75.502 65.6447C75.4792 65.7861 75.4283 65.9213 75.3526 66.0422C75.2768 66.1632 75.1776 66.2674 75.0609 66.3487C74.9442 66.43 74.8124 66.4867 74.6734 66.5155L72.5661 66.9524ZM71.8863 55.4332C72.1741 55.3769 72.4727 55.4336 72.7212 55.5916C72.9697 55.7496 73.1495 55.9971 73.2237 56.2836L73.6094 57.862C73.6431 58.0013 73.6488 58.146 73.626 58.2873C73.6032 58.4287 73.5524 58.5639 73.4766 58.6848C73.4009 58.8057 73.3017 58.91 73.185 58.9913C73.0683 59.0726 72.9365 59.1293 72.7974 59.158L70.6971 59.5935C70.4094 59.6498 70.1108 59.5931 69.8623 59.4351C69.6138 59.277 69.4341 59.0295 69.3599 58.7431L68.9741 57.1647C68.9403 57.0254 68.9347 56.8807 68.9575 56.7394C68.9803 56.598 69.0311 56.4628 69.1069 56.3419C69.1826 56.221 69.2818 56.1167 69.3985 56.0354C69.5152 55.9541 69.647 55.8974 69.7861 55.8686L71.8863 55.4332ZM34.4855 89.6257C34.1985 89.6817 33.9006 89.6247 33.6532 89.4662C33.4058 89.3078 33.2276 89.06 33.1553 88.7738L32.7695 87.1954C32.7347 87.0561 32.7283 86.9111 32.7506 86.7694C32.773 86.6277 32.8237 86.4921 32.8996 86.3709C32.9755 86.2497 33.0751 86.1455 33.1923 86.0644C33.3095 85.9834 33.4419 85.9272 33.5815 85.8994L35.6817 85.4639C35.9696 85.4059 36.2691 85.4618 36.518 85.6201C36.767 85.7784 36.9464 86.0269 37.0191 86.3143L37.4048 87.8927C37.4385 88.0321 37.4442 88.1767 37.4214 88.3181C37.3986 88.4594 37.3478 88.5946 37.272 88.7155C37.1963 88.8365 37.0971 88.9407 36.9804 89.022C36.8637 89.1033 36.7319 89.16 36.5928 89.1888L34.4855 89.6257ZM42.7676 87.9085C42.4798 87.9648 42.1813 87.9081 41.9328 87.7501C41.6843 87.5921 41.5045 87.3446 41.4303 87.0581L41.0446 85.4797C41.0108 85.3404 41.0051 85.1958 41.0279 85.0544C41.0507 84.913 41.1016 84.7779 41.1774 84.6569C41.2531 84.536 41.3522 84.4318 41.4689 84.3505C41.5856 84.2692 41.7175 84.2124 41.8566 84.1837L43.9568 83.7482C44.2446 83.6919 44.5431 83.7486 44.7916 83.9067C45.0402 84.0647 45.2199 84.3122 45.2941 84.5986L45.6798 86.177C45.7136 86.3163 45.7193 86.461 45.6965 86.6024C45.6737 86.7437 45.6228 86.8789 45.5471 86.9998C45.4713 87.1208 45.3722 87.225 45.2555 87.3063C45.1388 87.3876 45.0069 87.4443 44.8678 87.4731L42.7676 87.9085ZM51.176 86.202C50.8889 86.2581 50.5911 86.201 50.3437 86.0425C50.0963 85.8841 49.9181 85.6364 49.8457 85.3502L49.46 83.7718C49.4252 83.6324 49.4187 83.4875 49.4411 83.3457C49.4634 83.204 49.5141 83.0684 49.59 82.9472C49.6659 82.8261 49.7655 82.7218 49.8827 82.6407C49.9999 82.5597 50.1324 82.5035 50.272 82.4757L52.3723 82.0403C52.6602 81.9822 52.9596 82.0381 53.2085 82.1964C53.4575 82.3547 53.6368 82.6033 53.7096 82.8907L54.0952 84.4691C54.129 84.6084 54.1347 84.753 54.1119 84.8944C54.0891 85.0357 54.0382 85.1709 53.9625 85.2919C53.8867 85.4128 53.7875 85.517 53.6708 85.5983C53.5541 85.6796 53.4223 85.7364 53.2833 85.7651L51.176 86.202ZM59.4581 84.4848C59.1704 84.5411 58.8717 84.4845 58.6232 84.3264C58.3747 84.1684 58.195 83.9209 58.1207 83.6344L57.7421 82.0546C57.7074 81.9158 57.7009 81.7715 57.7229 81.6303C57.745 81.4892 57.795 81.3541 57.8702 81.2331C57.9454 81.1122 58.0441 81.008 58.1604 80.9267C58.2767 80.8453 58.4082 80.7887 58.547 80.76L60.6473 80.3245C60.935 80.2683 61.2336 80.3249 61.4822 80.4829C61.7307 80.641 61.9103 80.8885 61.9846 81.175L62.3703 82.7533C62.4041 82.8927 62.4097 83.0373 62.3869 83.1787C62.3641 83.32 62.3133 83.4552 62.2376 83.5761C62.1618 83.6971 62.0626 83.8013 61.9459 83.8826C61.8292 83.9639 61.6974 84.0206 61.5584 84.0494L59.4581 84.4848ZM67.9342 82.8233C67.6471 82.8793 67.3493 82.8222 67.1019 82.6638C66.8544 82.5054 66.6763 82.2576 66.6039 81.9714L66.2182 80.393C66.1844 80.2537 66.1788 80.109 66.2016 79.9677C66.2244 79.8263 66.2751 79.6911 66.3509 79.5702C66.4267 79.4493 66.5259 79.345 66.6426 79.2637C66.7593 79.1824 66.891 79.1257 67.0301 79.097L69.1304 78.6615C69.4174 78.6055 69.7153 78.6625 69.9627 78.821C70.2101 78.9794 70.3884 79.2272 70.4608 79.5134L70.8464 81.0918C70.8802 81.2311 70.8858 81.3757 70.863 81.5171C70.8402 81.6584 70.7894 81.7936 70.7137 81.9145C70.6379 82.0355 70.5387 82.1397 70.422 82.221C70.3053 82.3023 70.1735 82.359 70.0345 82.3878L67.9342 82.8233ZM76.6442 55.5597C76.6105 55.4203 76.6047 55.2757 76.6275 55.1344C76.6503 54.993 76.7012 54.8578 76.777 54.7369C76.8527 54.6159 76.9518 54.5117 77.0685 54.4304C77.1852 54.3491 77.3171 54.2924 77.4562 54.2636L79.5565 53.8282C79.8442 53.7719 80.1427 53.8285 80.3912 53.9866C80.6398 54.1446 80.8195 54.3921 80.8937 54.6786L81.2794 56.257C81.3143 56.3967 81.3208 56.5419 81.2986 56.684C81.2764 56.8261 81.226 56.9621 81.1503 57.0838C81.0746 57.2055 80.9751 57.3105 80.858 57.3923C80.741 57.4742 80.6086 57.5312 80.4689 57.5601L78.3686 57.9955C78.0797 58.052 77.78 57.9945 77.531 57.835C77.282 57.6755 77.1027 57.4261 77.0299 57.1381L76.6442 55.5597ZM78.5202 62.9171C78.4853 62.7777 78.4789 62.6328 78.5013 62.4911C78.5236 62.3493 78.5743 62.2138 78.6502 62.0926C78.7262 61.9714 78.8257 61.8671 78.9429 61.7861C79.0602 61.705 79.1926 61.6489 79.3321 61.6211L81.4324 61.1856C81.7203 61.1275 82.0197 61.1834 82.2687 61.3417C82.5176 61.5 82.697 61.7486 82.7697 62.036L83.1554 63.6144C83.1892 63.7537 83.1948 63.8984 83.172 64.0397C83.1492 64.1811 83.0984 64.3163 83.0227 64.4372C82.9469 64.5581 82.8477 64.6624 82.731 64.7437C82.6143 64.825 82.4825 64.8817 82.3434 64.9105L80.2431 65.3459C79.9561 65.402 79.6583 65.3449 79.4109 65.1864C79.1635 65.028 78.9852 64.7802 78.9128 64.4941L78.5202 62.9171ZM82.0635 72.4348C81.7763 72.4927 81.4775 72.4364 81.2297 72.2777C80.9818 72.119 80.8039 71.8701 80.7331 71.583L80.3474 70.0046C80.3126 69.8652 80.3062 69.7203 80.3286 69.5785C80.3509 69.4368 80.4016 69.3012 80.4775 69.18C80.5534 69.0589 80.653 68.9546 80.7702 68.8735C80.8874 68.7925 81.0198 68.7363 81.1594 68.7085L83.2597 68.273C83.5475 68.215 83.847 68.2709 84.0959 68.4292C84.3449 68.5875 84.5243 68.8361 84.597 69.1235L84.9827 70.7019C85.0165 70.8412 85.0221 70.9858 84.9993 71.1272C84.9765 71.2685 84.9257 71.4037 84.85 71.5246C84.7742 71.6456 84.675 71.7498 84.5583 71.8311C84.4416 71.9124 84.3097 71.9692 84.1707 71.9979L82.0635 72.4348Z" fill="var(--sapContent_Illustrative_Color7)"/>
<path d="M21.1841 55.8997L45.7853 50.799C45.9582 50.7643 46.1222 50.6945 46.2674 50.5938C46.4125 50.493 46.5358 50.3635 46.6296 50.2131C46.7233 50.0627 46.7857 49.8945 46.813 49.7187C46.8402 49.5429 46.8317 49.3633 46.788 49.1907C46.6949 48.8319 46.4686 48.5226 46.1562 48.3267C45.8437 48.1307 45.4689 48.0633 45.1094 48.1383L20.5153 53.2376C20.3423 53.2723 20.1783 53.3421 20.0332 53.4428C19.8881 53.5435 19.7648 53.673 19.671 53.8234C19.5772 53.9739 19.5148 54.1421 19.4876 54.3178C19.4603 54.4936 19.4688 54.6732 19.5125 54.8459C19.6053 55.2034 19.8304 55.5119 20.1413 55.708C20.4523 55.904 20.8255 55.9726 21.1841 55.8997Z" fill="var(--sapContent_Illustrative_Color7)"/>
<circle cx="92.6939" cy="88.0395" r="40.476" fill="var(--sapContent_Illustrative_Color9)"/>
<path d="M92.6939 84.2262C98.4499 84.2262 103.116 79.56 103.116 73.804C103.116 68.048 98.4499 63.3818 92.6939 63.3818C86.9379 63.3818 82.2717 68.048 82.2717 73.804C82.2717 79.56 86.9379 84.2262 92.6939 84.2262Z" fill="var(--sapContent_Illustrative_Color17)"/>
<path d="M92.6938 88.0479C97.506 88.0479 102.121 89.9595 105.524 93.3622C108.927 96.765 110.838 101.38 110.838 106.192V112.632H74.5494V106.192C74.5494 101.38 76.4611 96.765 79.8638 93.3622C83.2665 89.9595 87.8816 88.0479 92.6938 88.0479Z" fill="var(--sapContent_Illustrative_Color17)"/>
<path d="M56.4517 133.296C69.3118 133.296 79.737 122.871 79.737 110.01C79.737 97.1503 69.3118 86.7251 56.4517 86.7251C43.5916 86.7251 33.1664 97.1503 33.1664 110.01C33.1664 122.871 43.5916 133.296 56.4517 133.296Z" fill="var(--sapContent_Illustrative_Color3)"/>
<path d="M56.4606 97.3306H56.452C54.7142 97.3306 53.3055 98.7393 53.3055 100.477V119.544C53.3055 121.282 54.7142 122.691 56.452 122.691H56.4606C58.1983 122.691 59.607 121.282 59.607 119.544V100.477C59.607 98.7393 58.1983 97.3306 56.4606 97.3306Z" fill="var(--sapContent_Illustrative_Color8)"/>
<path d="M44.3116 109.651V110.363C44.3116 111.906 45.563 113.158 47.1066 113.158H65.8223C67.3659 113.158 68.6172 111.906 68.6172 110.363V109.651C68.6172 108.108 67.3659 106.856 65.8223 106.856H47.1066C45.563 106.856 44.3116 108.108 44.3116 109.651Z" fill="var(--sapContent_Illustrative_Color8)"/>
</svg>
