<svg width="160" height="160" viewBox="0 0 160 160" fill="none" xmlns="http://www.w3.org/2000/svg" id="sapIllus-Dialog-BalloonSky">
<mask id="mask0_11_124" style="mask-type:alpha" maskUnits="userSpaceOnUse" x="3" y="6" width="154" height="154">
<circle cx="79.9442" cy="83.0558" r="76.9442" style="fill:var(--sapContent_Illustrative_Color7)"/>
</mask>
<g mask="url(#mask0_11_124)">
<mask id="mask1_11_124" style="mask-type:alpha" maskUnits="userSpaceOnUse" x="0" y="6" width="247" height="154">
<path d="M235.792 6.11158H11.8126C10.3527 6.11023 8.90681 6.39663 7.5576 6.95439C6.2084 7.51215 4.98235 8.33035 3.94954 9.36221C2.91672 10.3941 2.09739 11.6194 1.53839 12.9681C0.979377 14.3167 0.69165 15.7624 0.69165 17.2223V148.879C0.69165 151.828 1.86332 154.657 3.94891 156.743C6.0345 158.828 8.86318 160 11.8126 160H235.792C238.742 160 241.57 158.828 243.656 156.743C245.741 154.657 246.913 151.828 246.913 148.879V17.2223C246.913 15.7624 246.625 14.3167 246.066 12.9681C245.507 11.6194 244.688 10.3941 243.655 9.36221C242.622 8.33035 241.396 7.51215 240.047 6.95439C238.698 6.39663 237.252 6.11023 235.792 6.11158V6.11158Z" style="fill:var(--sapContent_Illustrative_Color7)"/>
</mask>
<g mask="url(#mask1_11_124)">
<path d="M235.792 6.11158H11.8126C10.3527 6.11023 8.90681 6.39663 7.5576 6.95439C6.2084 7.51215 4.98235 8.33035 3.94954 9.36221C2.91672 10.3941 2.09739 11.6194 1.53839 12.9681C0.979377 14.3167 0.69165 15.7624 0.69165 17.2223V148.879C0.69165 151.828 1.86332 154.657 3.94891 156.743C6.0345 158.828 8.86318 160 11.8126 160H235.792C238.742 160 241.57 158.828 243.656 156.743C245.741 154.657 246.913 151.828 246.913 148.879V17.2223C246.913 15.7624 246.625 14.3167 246.066 12.9681C245.507 11.6194 244.688 10.3941 243.655 9.36221C242.622 8.33035 241.396 7.51215 240.047 6.95439C238.698 6.39663 237.252 6.11023 235.792 6.11158V6.11158Z" style="fill:var(--sapContent_Illustrative_Color7)"/>
<path d="M242.471 95.1853C218.285 92.9986 194.181 96.3947 170.221 99.4129C153.948 101.462 137.642 103.214 121.376 105.323C104.941 107.452 88.5062 109.633 72.0123 111.275C63.797 112.092 55.5711 112.799 47.3284 113.282C39.286 113.753 31.1002 112.961 23.081 112.362C15.6314 111.803 8.16269 111.214 0.698242 110.982V160.302H246.913V95.5736C245.437 95.4449 243.958 95.3203 242.473 95.1853H242.471Z" style="fill:var(--sapContent_Illustrative_Color18)"/>
<path d="M47.9989 114.417C48.5452 114.521 31.2941 119.086 28.0902 119.766C32.1209 120.963 78.827 125 97.9363 123.154C107.885 122.191 117.453 120.196 127.151 117.866C134.98 115.984 143.01 114.567 150.519 111.591C144.166 111.686 130.876 112.923 131.331 112.708C142.373 107.456 154.8 106.017 166.327 102.129C170.05 100.875 173.764 99.5794 177.535 98.4861C175.097 98.7943 172.659 99.1045 170.221 99.4127C153.948 101.462 137.642 103.214 121.376 105.323C104.941 107.452 88.5061 109.633 72.0121 111.275C63.7968 112.092 55.5709 112.799 47.3282 113.282C44.3753 113.455 41.4014 113.455 38.4253 113.36C41.6334 113.537 44.8309 113.818 48.001 114.417H47.9989Z" style="fill:var(--sapContent_Illustrative_Color18)"/>
<g style="mix-blend-mode:multiply" opacity="0.4">
<path d="M242.471 95.185C223.893 93.507 205.366 95.1217 186.917 97.3273C187.524 97.3337 188.128 97.3231 188.737 97.3358C195.295 97.4814 202.761 97.3864 208.99 99.7251C210.373 100.244 212.71 101.238 212.58 103.094C212.369 106.099 208.102 108.191 205.813 109.187C200.119 111.669 193.778 113.174 187.727 114.493C180.263 116.119 172.621 117.393 165.017 118.174C151.046 119.61 136.743 119.363 123.046 122.742C133.242 123.624 154.372 124.69 153.706 124.715C146.887 124.988 140.194 126.26 133.512 127.571C146.307 128.806 159.147 129.397 171.887 131.189C178.991 132.187 186.014 133.443 193.057 134.796C196.398 135.436 199.785 135.79 203.107 136.525C206.161 137.2 210.101 137.951 212.282 140.419C213.415 141.702 213.24 143.433 211.831 144.4C209.631 145.913 206.634 146.255 204.052 146.552C200.728 146.934 197.379 147.076 194.036 147.108C181.113 147.23 168.234 147.61 155.359 146.118C139.736 144.309 124.019 142.57 108.828 138.363C100.927 136.176 93.0999 133.669 85.1124 131.807C77.224 129.971 69.247 128.54 61.2257 127.438C52.9282 126.298 44.5251 125.203 36.1558 124.766C28.0797 124.344 11.2399 123.652 11.7798 123.476C16.612 121.9 21.5623 120.809 26.5716 120.023C23.2032 119.95 19.8116 120.399 16.4369 120.439C15.8822 120.446 24.7957 117.636 29.0858 116.965C21.421 115.201 9.48924 120.27 5.1928 111.889C5.04727 111.604 5.16749 111.311 5.44169 111.18C3.85979 111.102 2.27578 111.03 0.691772 110.979V160.299H246.907V95.5734C245.43 95.4446 243.952 95.3201 242.467 95.185H242.471Z" style="fill:var(--sapContent_Illustrative_Color18)"/>
</g>
</g>
<circle cx="131.497" cy="26.63" r="1.53888" style="fill:var(--sapContent_Illustrative_Color10)"/>
<ellipse cx="80.7137" cy="58.9466" rx="1.02592" ry="1.02592" style="fill:var(--sapContent_Illustrative_Color10)"/>
<ellipse cx="35.573" cy="36.3763" rx="1.02592" ry="1.02592" style="fill:var(--sapContent_Illustrative_Color10)"/>
<ellipse cx="81.2266" cy="12.2671" rx="1.53889" ry="1.53888" style="fill:var(--sapContent_Illustrative_Color10)"/>
<circle cx="23.775" cy="61.5114" r="1.53888" style="fill:var(--sapContent_Illustrative_Color10)"/>
<path d="M63.3966 110.072V153.943H68.1962C68.3547 153.946 68.506 154.01 68.6174 154.123C68.7287 154.237 68.7911 154.389 68.791 154.548V128.126C68.8079 128.014 68.8477 127.907 68.908 127.811C68.9683 127.715 69.0479 127.633 69.1415 127.57L77.1924 123.557V110.072C77.1924 109.912 77.1288 109.758 77.0157 109.644C76.9026 109.531 76.7492 109.467 76.5893 109.467H63.9996C63.9204 109.467 63.842 109.483 63.7688 109.513C63.6957 109.544 63.6293 109.588 63.5733 109.644C63.5173 109.701 63.4728 109.767 63.4425 109.841C63.4122 109.914 63.3966 109.993 63.3966 110.072V110.072Z" style="fill:var(--sapContent_Illustrative_Color20)"/>
<path d="M55.0033 159.714V88.3741C55.0034 88.2436 54.9614 88.1167 54.8836 88.0121C54.8057 87.9075 54.6963 87.8309 54.5715 87.7939L45.2412 85.0724L25.7821 79.4086C25.6933 79.3819 25.5994 79.3763 25.508 79.3925C25.4166 79.4086 25.3302 79.4459 25.2557 79.5015C25.1813 79.5571 25.1209 79.6294 25.0793 79.7126C25.0377 79.7958 25.0161 79.8877 25.0162 79.9808C25.0162 81.5336 25.0162 84.8108 25.0162 84.9334V88.6602H28.3572C29.5098 88.6624 30.6145 89.1231 31.4288 89.9413C32.2431 90.7595 32.7004 91.8684 32.7004 93.0245C32.6939 93.2325 32.6749 93.4399 32.6434 93.6456H34.4117C35.5657 93.6456 36.6725 94.1053 37.4885 94.9238C38.3046 95.7422 38.7631 96.8523 38.7631 98.0098C38.7631 99.1673 38.3046 100.277 37.4885 101.096C36.6725 101.914 35.5657 102.374 34.4117 102.374H25.0244V136.904C25.031 136.947 25.031 136.991 25.0244 137.035C24.9971 137.177 24.9189 137.305 24.8043 137.394L12.5813 146.156C12.5524 146.178 12.5288 146.206 12.5119 146.239C12.495 146.271 12.4853 146.307 12.4835 146.343V159.73C12.486 159.771 12.4995 159.81 12.5225 159.843C12.5455 159.876 12.5771 159.902 12.6139 159.918C12.6488 159.926 12.685 159.926 12.7199 159.918H54.8078C54.858 159.91 54.9041 159.886 54.9394 159.849C54.9746 159.812 54.997 159.765 55.0033 159.714V159.714Z" style="fill:var(--sapContent_Illustrative_Color20)"/>
<path d="M68.1881 153.944H60.3979C60.238 153.944 60.0847 154.007 59.9716 154.121C59.8585 154.234 59.7949 154.388 59.7949 154.548V159.959H68.7585V154.548C68.7587 154.394 68.6997 154.244 68.5936 154.132C68.4874 154.019 68.3423 153.952 68.1881 153.944V153.944Z" style="fill:var(--sapContent_Illustrative_Color20)"/>
<path d="M88.4782 117.927L77.1841 123.558L69.1332 127.571C69.0396 127.634 68.9601 127.716 68.8998 127.812C68.8395 127.907 68.7996 128.014 68.7828 128.126V160H59.8192V154.59C59.8192 154.429 59.8828 154.275 59.9959 154.162C60.109 154.049 60.2623 153.985 60.4222 153.985H63.3965V110.114C63.3965 109.953 63.4601 109.799 63.5732 109.686C63.6863 109.573 63.8396 109.509 63.9995 109.509H73.4194V76.7361V67.7788V56.1735C73.4048 55.9474 73.3031 55.7357 73.1359 55.5832C72.9686 55.4308 72.7489 55.3494 72.523 55.3563H45.9828C45.4124 55.3563 45.2494 55.6832 45.2494 56.1735V85.0314L54.5797 87.7529C54.7045 87.79 54.8139 87.8665 54.8917 87.9711C54.9696 88.0757 55.0116 88.2028 55.0115 88.3333V159.673C55.0094 159.734 54.9836 159.793 54.9395 159.835C54.8954 159.878 54.8365 159.902 54.7753 159.902H89.1708V118.45C89.1855 118.361 89.1757 118.271 89.1425 118.187C89.1093 118.104 89.054 118.032 88.9826 117.978C88.9112 117.924 88.8265 117.891 88.7375 117.882C88.6486 117.873 88.5589 117.888 88.4782 117.927V117.927ZM79.5716 140.426C79.5717 140.466 79.5638 140.505 79.5486 140.541C79.5333 140.577 79.511 140.61 79.4829 140.637C79.4548 140.665 79.4215 140.686 79.3849 140.7C79.3484 140.715 79.3094 140.722 79.2701 140.721H73.2809C73.2023 140.721 73.1268 140.69 73.0705 140.635C73.0142 140.58 72.9815 140.505 72.9794 140.426V134.411C72.9794 133.534 73.3266 132.694 73.9448 132.074C74.5629 131.454 75.4014 131.105 76.2756 131.105C77.1498 131.105 77.9881 131.454 78.6063 132.074C79.2244 132.694 79.5716 133.534 79.5716 134.411V140.426Z" style="fill:var(--sapContent_Illustrative_Color19)"/>
<path d="M76.2799 131.1C75.4187 131.111 74.5957 131.459 73.9867 132.07C73.3778 132.68 73.031 133.506 73.0204 134.37V140.385C73.0225 140.463 73.0552 140.538 73.1115 140.593C73.1678 140.648 73.2433 140.679 73.3219 140.679H79.3111C79.3503 140.68 79.3894 140.673 79.4259 140.659C79.4625 140.645 79.4957 140.623 79.5238 140.596C79.5519 140.568 79.5743 140.535 79.5896 140.499C79.6048 140.463 79.6127 140.424 79.6126 140.385V134.37C79.6019 133.493 79.2449 132.657 78.6201 132.044C77.9953 131.431 77.1537 131.092 76.2799 131.1V131.1Z" style="fill:var(--sapContent_Illustrative_Color18)"/>
<path d="M38.7713 98.0187C38.7713 96.8612 38.3128 95.7511 37.4968 94.9327C36.6807 94.1142 35.5739 93.6545 34.4198 93.6545H32.6516C32.6831 93.4488 32.7021 93.2413 32.7086 93.0333C32.7086 91.8773 32.2514 90.7684 31.4371 89.9502C30.6228 89.132 29.5181 88.6713 28.3654 88.6691H14.2763C13.1222 88.6691 12.0155 89.1289 11.1995 89.9473C10.3834 90.7658 9.92493 91.8759 9.92493 93.0333C9.92493 94.1908 10.3834 95.3008 11.1995 96.1193C12.0155 96.9377 13.1222 97.3976 14.2763 97.3976H16.0446C16.0064 97.6025 15.9846 97.8102 15.9794 98.0187C15.9794 99.1762 16.4378 100.286 17.2539 101.105C18.0699 101.923 19.1768 102.383 20.3308 102.383H34.4198C35.5739 102.383 36.6807 101.923 37.4968 101.105C38.3128 100.286 38.7713 99.1762 38.7713 98.0187Z" style="fill:var(--sapContent_Illustrative_Color19)"/>
<path d="M32.4167 55.2017C31.9061 57.7133 27.6903 60.27 26.972 60.6384C26.9136 60.653 26.8528 60.6553 26.7935 60.6452C26.7341 60.6352 26.6775 60.6129 26.6272 60.5798C25.1739 58.6308 23.2284 56.1879 23.6838 53.4453C24.1392 50.7027 26.5552 49.0116 29.0414 49.5173C31.5277 50.0229 32.9709 52.4792 32.4167 55.2017Z" style="fill:var(--sapContent_Illustrative_Color3)"/>
<path d="M24.4657 52.4876C24.4364 52.4878 24.4075 52.4803 24.382 52.4658C24.3437 52.4438 24.3157 52.4074 24.3041 52.3648C24.2925 52.3221 24.2982 52.2766 24.3201 52.2381C24.3939 52.1072 24.4773 51.9818 24.5695 51.8631C24.5833 51.8459 24.6004 51.8316 24.6198 51.821C24.6391 51.8104 24.6604 51.8038 24.6823 51.8014C24.7043 51.7991 24.7265 51.8011 24.7476 51.8074C24.7688 51.8137 24.7885 51.824 24.8056 51.838C24.8227 51.8519 24.8368 51.8691 24.8472 51.8885C24.8577 51.9079 24.8642 51.9292 24.8663 51.9511C24.8685 51.9731 24.8663 51.9952 24.8599 52.0163C24.8535 52.0374 24.843 52.057 24.829 52.074C24.749 52.1806 24.6762 52.2925 24.6114 52.4089C24.596 52.4335 24.5745 52.4537 24.5489 52.4675C24.5234 52.4813 24.4947 52.4882 24.4657 52.4876V52.4876Z" style="fill:var(--sapContent_Illustrative_Color15)"/>
<path d="M23.9165 70.9725C23.8979 70.9723 23.8795 70.9677 23.863 70.9591C23.85 70.9521 23.8385 70.9426 23.8292 70.9311C23.8199 70.9197 23.8129 70.9065 23.8087 70.8923C23.8045 70.8782 23.8032 70.8633 23.8047 70.8486C23.8063 70.8339 23.8107 70.8197 23.8178 70.8068C23.8898 70.6711 23.9115 70.564 23.8797 70.502C23.8479 70.4401 23.8211 70.4501 23.7541 70.425C23.6528 70.3984 23.5662 70.3328 23.513 70.2425C23.4907 70.1925 23.4799 70.1381 23.4813 70.0833C23.4828 70.0286 23.4965 69.9748 23.5214 69.926C23.5534 69.8362 23.5747 69.7429 23.585 69.6481C23.5936 69.5712 23.5879 69.4935 23.5683 69.4187C23.5486 69.3451 23.5413 69.2687 23.5465 69.1927C23.5599 69.0035 23.5616 68.826 23.5633 68.6385C23.565 68.4509 23.5633 68.2868 23.575 68.0692C23.6234 67.5567 23.7039 67.0478 23.8161 66.5455C23.8634 66.3701 23.8947 66.1908 23.9098 66.0097C23.8713 65.494 24.4657 64.774 24.8993 64.2466C25.0192 64.1139 25.131 63.9741 25.2342 63.828C25.707 63.0309 26.1384 62.2099 26.5267 61.3684C26.5394 61.3416 26.5622 61.3208 26.5901 61.3108C26.6181 61.3008 26.6488 61.3022 26.6757 61.3148C26.6889 61.3209 26.7008 61.3296 26.7107 61.3403C26.7205 61.351 26.7282 61.3636 26.7331 61.3773C26.7381 61.391 26.7403 61.4056 26.7397 61.4201C26.739 61.4347 26.7355 61.449 26.7293 61.4621C26.3383 62.3113 25.9035 63.1395 25.4267 63.9435C25.3206 64.0991 25.2054 64.2484 25.0818 64.3906C24.6951 64.8594 24.1108 65.5626 24.1426 65.9946C24.13 66.2008 24.0958 66.4051 24.0404 66.6041C23.934 67.0908 23.8563 67.5834 23.8077 68.0792C23.7977 68.2919 23.796 68.4693 23.796 68.6401C23.796 68.8109 23.796 69.0118 23.7793 69.2094C23.7745 69.2658 23.7802 69.3225 23.796 69.3768C23.8202 69.4748 23.827 69.5762 23.8161 69.6766C23.8056 69.7908 23.7808 69.9033 23.7424 70.0114C23.7123 70.1018 23.7056 70.127 23.7207 70.1554C23.7357 70.1839 23.7759 70.2057 23.8412 70.2291C23.937 70.2546 24.0207 70.3134 24.0773 70.3949C24.1106 70.4792 24.1224 70.5705 24.1116 70.6606C24.1007 70.7506 24.0677 70.8365 24.0153 70.9106C24.0061 70.9289 23.992 70.9444 23.9746 70.9554C23.9572 70.9663 23.9371 70.9722 23.9165 70.9725V70.9725Z" style="fill:var(--sapContent_Illustrative_Color6)"/>
<path d="M26.6272 60.5748L26.1249 61.2445C26.1152 61.2577 26.1091 61.2732 26.1071 61.2894C26.1052 61.3056 26.1074 61.3221 26.1136 61.3372C26.1198 61.3524 26.1298 61.3656 26.1427 61.3758C26.1555 61.3859 26.1707 61.3926 26.1869 61.3952L27.0943 61.5626C27.1103 61.565 27.1265 61.5634 27.1417 61.5578C27.1568 61.5522 27.1702 61.5428 27.1808 61.5306C27.1913 61.5184 27.1986 61.5037 27.2019 61.488C27.2052 61.4722 27.2045 61.4558 27.1998 61.4404L26.9671 60.625" style="fill:var(--sapContent_Illustrative_Color3)"/>
<path d="M81.6303 24.1637C79.7938 27.6299 72.4982 29.5593 71.2844 29.7893C71.1923 29.7854 71.102 29.7626 71.0192 29.7221C70.9364 29.6816 70.8629 29.6243 70.8034 29.554C69.5132 26.0638 67.7141 21.6355 69.5695 17.8061C71.4249 13.9767 75.7035 12.5394 79.1349 14.3576C82.5662 16.1759 83.622 20.4065 81.6303 24.1637Z" style="fill:var(--sapContent_Illustrative_Color1)"/>
<path d="M71.1318 16.7384C71.0886 16.726 71.0495 16.7025 71.0183 16.6702C70.9716 16.6212 70.9463 16.5558 70.9477 16.4881C70.9491 16.4205 70.9772 16.3561 71.0259 16.3091C71.191 16.1488 71.3676 16.0008 71.5544 15.8664C71.5822 15.8472 71.6134 15.8336 71.6464 15.8264C71.6794 15.8193 71.7135 15.8187 71.7467 15.8248C71.78 15.8308 71.8117 15.8434 71.84 15.8618C71.8683 15.8801 71.8928 15.9039 71.9119 15.9317C71.9309 15.9596 71.9443 15.9909 71.9512 16.0239C71.9581 16.057 71.9584 16.091 71.9521 16.1242C71.9458 16.1573 71.933 16.1889 71.9145 16.2171C71.896 16.2453 71.8721 16.2695 71.8441 16.2885C71.6805 16.4103 71.5253 16.5431 71.3797 16.6859C71.3465 16.7154 71.3061 16.7358 71.2627 16.745C71.2192 16.7542 71.1741 16.7519 71.1318 16.7384V16.7384Z" style="fill:var(--sapContent_Illustrative_Color16)"/>
<path d="M62.3267 43.6388C62.2994 43.6304 62.2745 43.6157 62.2539 43.596C62.2378 43.5801 62.2251 43.5611 62.2164 43.5403C62.2077 43.5194 62.2032 43.497 62.2031 43.4744C62.2031 43.4518 62.2075 43.4295 62.2162 43.4086C62.2248 43.3877 62.2375 43.3687 62.2534 43.3527C62.4178 43.1848 62.4961 43.0369 62.4762 42.9322C62.4563 42.8274 62.4127 42.8306 62.3252 42.7647C62.188 42.6818 62.0892 42.548 62.0502 42.3925C62.0391 42.3094 62.0467 42.2248 62.0726 42.1451C62.0984 42.0653 62.1418 41.9923 62.1995 41.9315C62.2852 41.8134 62.357 41.6857 62.4132 41.551C62.459 41.4419 62.4843 41.3252 62.4878 41.207C62.4908 41.0904 62.5131 40.975 62.5537 40.8657C62.6552 40.5937 62.7345 40.3339 62.8181 40.0593C62.9017 39.7847 62.9703 39.5431 63.0816 39.2286C63.3744 38.4972 63.7128 37.7849 64.0949 37.096C64.2402 36.8589 64.3639 36.6092 64.4644 36.3499C64.6311 35.5762 65.8152 34.7764 66.68 34.1897C66.9135 34.0467 67.1381 33.8899 67.3528 33.72C68.3919 32.7544 69.3805 31.7358 70.3147 30.6683C70.345 30.6344 70.3874 30.6139 70.4328 30.6112C70.4781 30.6086 70.5227 30.624 70.5567 30.6541C70.5734 30.6688 70.5871 30.6867 70.5969 30.7067C70.6068 30.7267 70.6125 30.7485 70.6139 30.7708C70.6153 30.793 70.6123 30.8154 70.605 30.8364C70.5977 30.8575 70.5864 30.877 70.5716 30.8936C69.6301 31.971 68.6334 32.9989 67.5855 33.973C67.3623 34.1555 67.1286 34.3248 66.8857 34.48C66.115 35.001 64.9528 35.7805 64.8126 36.4285C64.705 36.7258 64.5663 37.0109 64.3989 37.2791C64.0321 37.9476 63.7048 38.6371 63.419 39.344C63.3122 39.6519 63.2329 39.9117 63.159 40.1625C63.0851 40.4132 62.9982 40.7082 62.8881 40.991C62.8567 41.0717 62.8405 41.1575 62.8402 41.244C62.8335 41.3983 62.7995 41.5502 62.74 41.6927C62.6751 41.8559 62.5901 42.0104 62.487 42.1525C62.4036 42.2722 62.3829 42.3062 62.3927 42.3545C62.4025 42.4028 62.4521 42.4521 62.5378 42.5148C62.6675 42.5938 62.7649 42.7162 62.8127 42.8603C62.8251 42.9986 62.8029 43.1377 62.748 43.2652C62.6932 43.3927 62.6074 43.5046 62.4986 43.5906C62.4771 43.6136 62.4497 43.6303 62.4194 43.6388C62.3891 43.6473 62.357 43.6473 62.3267 43.6388V43.6388Z" style="fill:var(--sapContent_Illustrative_Color6)"/>
<path d="M70.8055 29.5466L69.7783 30.3126C69.7584 30.3277 69.7427 30.3478 69.7328 30.3708C69.7229 30.3938 69.719 30.4189 69.7216 30.4438C69.7242 30.4687 69.7331 30.4925 69.7476 30.513C69.762 30.5334 69.7815 30.5498 69.8041 30.5606L71.0638 31.1991C71.0862 31.2095 71.1108 31.2141 71.1355 31.2124C71.1601 31.2107 71.1839 31.2029 71.2046 31.1895C71.2254 31.1761 71.2424 31.1577 71.2541 31.136C71.2658 31.1143 71.2718 31.09 71.2716 31.0653L71.2828 29.7675" style="fill:var(--sapContent_Illustrative_Color1)"/>
<path d="M93.2483 99.2739C92.3562 102.782 86.2347 106.1 85.1964 106.57C85.113 106.587 85.0271 106.586 84.944 106.568C84.861 106.55 84.7826 106.514 84.7139 106.464C82.7973 103.616 80.2201 100.037 81.05 96.1992C81.8799 92.3616 85.4034 90.1414 88.8759 91.0247C92.3484 91.908 94.2161 95.4715 93.2483 99.2739Z" style="fill:var(--sapContent_Illustrative_Color1)"/>
<path d="M82.2183 94.9017C82.1769 94.9 82.1367 94.8874 82.1017 94.8653C82.0492 94.8315 82.0122 94.7783 81.9988 94.7174C81.9853 94.6564 81.9965 94.5926 82.0299 94.5398C82.143 94.3601 82.2692 94.189 82.4075 94.0278C82.4281 94.0045 82.4532 93.9855 82.4812 93.9719C82.5093 93.9583 82.5397 93.9504 82.5708 93.9486C82.6019 93.9468 82.6331 93.9512 82.6625 93.9615C82.6919 93.9718 82.719 93.9878 82.7422 94.0086C82.7653 94.0294 82.7841 94.0546 82.7975 94.0827C82.8109 94.1108 82.8185 94.1413 82.8201 94.1724C82.8217 94.2034 82.8171 94.2345 82.8066 94.2639C82.7962 94.2932 82.78 94.3201 82.7591 94.3432C82.6389 94.488 82.5286 94.6409 82.4292 94.8007C82.4058 94.8343 82.3741 94.8614 82.3371 94.8791C82.3002 94.8968 82.2592 94.9046 82.2183 94.9017V94.9017Z" style="fill:var(--sapContent_Illustrative_Color16)"/>
<path d="M84.7143 106.457L83.96 107.367C83.9455 107.385 83.9358 107.407 83.9319 107.43C83.928 107.452 83.93 107.476 83.9377 107.497C83.9454 107.519 83.9587 107.539 83.9761 107.554C83.9935 107.569 84.0145 107.579 84.0371 107.584L85.3056 107.882C85.328 107.887 85.3511 107.886 85.3728 107.879C85.3945 107.872 85.4141 107.86 85.4298 107.843C85.4455 107.827 85.4567 107.806 85.4625 107.784C85.4683 107.762 85.4684 107.739 85.4628 107.717L85.1903 106.551" style="fill:var(--sapContent_Illustrative_Color1)"/>
</g>
<path d="M116.482 106.527C116.357 106.49 116.251 106.405 116.189 106.291C116.127 106.176 116.113 106.042 116.149 105.917C116.342 105.263 116.327 104.78 116.131 104.549C115.935 104.318 115.829 104.369 115.508 104.365C115.046 104.342 114.611 104.14 114.295 103.801C114.153 103.605 114.056 103.379 114.013 103.14C113.969 102.901 113.978 102.656 114.041 102.421C114.099 102.004 114.105 101.581 114.057 101.163C114.026 100.822 113.93 100.491 113.775 100.187C113.622 99.9009 113.518 99.5911 113.467 99.2707C113.361 98.4619 113.473 97.6396 113.789 96.8879C113.164 96.162 112.739 95.2851 112.557 94.3443C112.309 92.8339 112.893 91.2718 113.498 89.6662C113.548 89.499 113.595 89.3395 113.639 89.1875C113.925 88.5538 114.097 87.8749 114.148 87.1818C114.181 86.5223 114.096 85.8623 113.897 85.2328C113.131 82.6452 114.543 77.9406 115.67 74.6221L115.705 74.5005C117.014 70.6187 118.117 66.6706 119.01 62.6729C119.018 62.6032 119.041 62.536 119.076 62.4757C119.112 62.4153 119.16 62.3632 119.217 62.3226C119.274 62.282 119.339 62.254 119.408 62.2402C119.477 62.2265 119.548 62.2274 119.616 62.2429C119.684 62.2583 119.749 62.2881 119.805 62.3301C119.861 62.3721 119.908 62.4255 119.942 62.4867C119.976 62.548 119.997 62.6157 120.003 62.6856C120.009 62.7554 120.001 62.8258 119.978 62.8921C119.075 66.9228 117.962 70.9037 116.644 74.8185L116.635 74.8489C114.961 79.7733 114.369 83.1256 114.862 84.8154C115.108 85.5631 115.212 86.35 115.169 87.1359C115.117 87.9335 114.923 88.7154 114.596 89.4447C114.551 89.5966 114.506 89.7486 114.459 89.9082C113.861 91.4909 113.343 92.8828 113.559 94.111C113.673 94.7448 113.932 95.3439 114.315 95.8618C114.736 95.2194 115.373 94.7482 116.111 94.5327C117.07 94.3035 118.335 94.5773 118.711 95.4315C118.803 95.6708 118.838 95.9278 118.816 96.183C118.794 96.4382 118.714 96.685 118.583 96.9049C118.436 97.2454 118.212 97.5468 117.928 97.7851C117.644 98.0235 117.309 98.1922 116.948 98.2777C116.587 98.3632 116.212 98.3632 115.851 98.2776C115.491 98.192 115.155 98.0233 114.871 97.7849L114.606 97.5912C114.462 98.0544 114.419 98.5432 114.481 99.0244C114.509 99.2609 114.581 99.4898 114.695 99.6988C114.896 100.099 115.02 100.533 115.061 100.979C115.115 101.472 115.11 101.97 115.045 102.461C114.997 102.877 114.996 102.992 115.088 103.102C115.18 103.211 115.369 103.267 115.677 103.317C116.142 103.338 116.58 103.538 116.9 103.875C117.125 104.207 117.262 104.591 117.299 104.99C117.336 105.389 117.271 105.791 117.11 106.159C117.073 106.285 116.988 106.391 116.874 106.454C116.759 106.518 116.624 106.534 116.498 106.499L116.482 106.527ZM115.002 96.6673C115.133 96.7866 115.272 96.8965 115.417 96.9961C115.777 97.284 116.236 97.4191 116.694 97.3724C116.91 97.3012 117.108 97.1873 117.279 97.0374C117.449 96.8876 117.588 96.7049 117.686 96.5003C117.803 96.3104 117.843 96.0832 117.799 95.8646C117.608 95.6851 117.372 95.5598 117.116 95.5018C116.86 95.4438 116.594 95.4552 116.344 95.5348C115.766 95.7221 115.284 96.1287 115.002 96.6673V96.6673Z" style="fill:var(--sapContent_Illustrative_Color6)"/>
<path d="M150.685 35.5946C146.906 47.3813 125.258 57.4198 121.642 58.8153C121.354 58.853 121.061 58.8301 120.782 58.7479C120.503 58.6658 120.245 58.5262 120.023 58.3382C114.075 48.202 106.029 35.4322 109.674 22.5072C113.318 9.58212 125.824 2.7378 137.473 6.47697C149.122 10.2161 154.802 22.7758 150.685 35.5946Z" style="fill:var(--sapContent_Illustrative_Color3)"/>
<path d="M120.026 58.3307L117.275 61.3026C117.22 61.3609 117.182 61.4325 117.164 61.5101C117.145 61.5878 117.147 61.669 117.17 61.7456C117.192 61.8223 117.234 61.8917 117.291 61.9472C117.349 62.0026 117.42 62.0422 117.497 62.0619L121.775 63.3228C121.851 63.3432 121.93 63.344 122.006 63.325C122.082 63.3061 122.152 63.2681 122.209 63.2146C122.266 63.1611 122.309 63.094 122.332 63.0195C122.356 62.945 122.361 62.8656 122.345 62.7888L121.67 58.7492" style="fill:var(--sapContent_Illustrative_Color3)"/>
<path d="M117.191 14.2338C117.122 14.2116 117.056 14.1784 116.998 14.1354C116.949 14.0917 116.909 14.0388 116.88 13.9797C116.852 13.9206 116.835 13.8564 116.831 13.7909C116.828 13.7254 116.837 13.6597 116.859 13.5978C116.88 13.5358 116.914 13.4788 116.958 13.4299C118.825 11.4508 121.07 9.86582 123.559 8.76838C123.618 8.73066 123.685 8.70584 123.754 8.69549C123.824 8.68514 123.894 8.68952 123.962 8.70834C124.029 8.72716 124.092 8.76 124.146 8.80472C124.2 8.84944 124.244 8.90502 124.275 8.96787C124.306 9.03072 124.324 9.0994 124.327 9.16946C124.329 9.23952 124.317 9.30938 124.291 9.37448C124.265 9.43958 124.226 9.49845 124.175 9.54727C124.125 9.5961 124.065 9.63378 123.999 9.65786C121.623 10.705 119.479 12.2155 117.693 14.1009C117.631 14.1685 117.551 14.2169 117.462 14.2404C117.373 14.264 117.279 14.2617 117.191 14.2338Z" style="fill:var(--sapContent_Illustrative_Color15)"/>
<path d="M113.892 18.0021L113.733 17.955C113.679 17.9172 113.634 17.869 113.6 17.8135C113.566 17.758 113.543 17.6961 113.532 17.6316C113.522 17.567 113.525 17.5011 113.54 17.4376C113.556 17.3742 113.584 17.3145 113.623 17.262C114.04 16.6884 114.496 16.1439 114.987 15.6323C115.081 15.5406 115.207 15.4899 115.339 15.4914C115.47 15.4929 115.595 15.5465 115.687 15.6403C115.779 15.7342 115.829 15.8606 115.828 15.9918C115.826 16.123 115.773 16.2483 115.679 16.34C115.22 16.8084 114.796 17.3101 114.411 17.841C114.348 17.9134 114.266 17.9669 114.174 17.9954C114.083 18.0238 113.985 18.0261 113.892 18.0021V18.0021Z" style="fill:var(--sapContent_Illustrative_Color15)"/>
</svg>
