<svg width="160" height="142" viewBox="0 0 160 142" fill="none" xmlns="http://www.w3.org/2000/svg" id="sapIllus-Dialog-EmptyPlanningCalendar">
<circle cx="70.7182" cy="70.7182" r="70.7182" fill="var(--sapContent_Illustrative_Color7)"/>
<mask id="mask0_1663_6728" class="sapIllus_MaskTypeAlpha" maskUnits="userSpaceOnUse" x="0" y="0" width="142" height="142">
<circle cx="70.7182" cy="70.7182" r="70.7182" fill="var(--sapContent_Illustrative_Color7)"/>
</mask>
<g mask="url(#mask0_1663_6728)">
<path d="M32.3776 49.2526C32.3842 49.2137 32.3884 49.1745 32.3901 49.1351V22.8601C32.3886 22.8216 32.3844 22.7831 32.3776 22.7451V49.2526Z" fill="var(--sapContent_Illustrative_Color7)"/>
<path d="M31.3438 21.6273C31.3631 21.6259 31.3824 21.6259 31.4016 21.6273C31.3096 21.6041 31.2149 21.5924 31.1199 21.5923H11.88C11.5465 21.5923 11.2266 21.724 10.9907 21.9584C10.7549 22.1928 10.6224 22.5108 10.6224 22.8423V49.1347C10.6207 49.2999 10.652 49.4638 10.7145 49.617C10.7769 49.7701 10.8693 49.9093 10.9863 50.0267C11.1032 50.1441 11.2424 50.2373 11.3958 50.3009C11.5493 50.3645 11.7138 50.3973 11.88 50.3973H31.1199C31.2554 50.396 31.3897 50.3723 31.5174 50.3272C31.4601 50.3383 31.4021 50.3441 31.3438 50.3447V21.6273Z" fill="var(--sapContent_Illustrative_Color7)"/>
<path d="M31.1199 20H11.8801C11.1169 20.0007 10.3851 20.3021 9.84517 20.8383C9.30527 21.3744 9.00133 22.1015 9 22.86V49.135C9.00066 49.8942 9.30423 50.6222 9.84413 51.1592C10.384 51.6963 11.1162 51.9987 11.8801 52H31.1199C31.8838 51.9987 32.616 51.6963 33.1559 51.1592C33.6958 50.6222 33.9993 49.8942 34 49.135V22.86C33.9987 22.1015 33.6947 21.3744 33.1548 20.8383C32.6149 20.3021 31.8831 20.0007 31.1199 20V20ZM32.3902 49.135C32.3885 49.1744 32.3843 49.2136 32.3776 49.2525V49.3175C32.375 49.558 32.2875 49.79 32.1302 49.9728C31.9729 50.1556 31.756 50.2776 31.5174 50.3175C31.3897 50.3625 31.2554 50.3862 31.1199 50.3875H11.8801C11.7138 50.3875 11.5493 50.3548 11.3959 50.2912C11.2424 50.2276 11.1032 50.1344 10.9863 50.017C10.8693 49.8996 10.777 49.7603 10.7145 49.6072C10.652 49.4541 10.6207 49.2902 10.6224 49.125V22.86C10.6224 22.5285 10.7549 22.2105 10.9908 21.9761C11.2266 21.7417 11.5465 21.61 11.8801 21.61H31.1199C31.2149 21.6101 31.3096 21.6218 31.4017 21.645C31.6648 21.6585 31.9127 21.7717 32.0943 21.9615C32.2759 22.1513 32.3773 22.4031 32.3776 22.665V22.7575C32.3844 22.7955 32.3886 22.8339 32.3902 22.8725V49.135Z" fill="var(--sapContent_Illustrative_Color18)"/>
<path d="M31.4016 21.6348C31.3823 21.6334 31.363 21.6334 31.3438 21.6348V50.3523C31.402 50.3517 31.4601 50.3458 31.5173 50.3348C31.7506 50.2587 31.9564 50.1163 32.1093 49.9253C32.2622 49.7342 32.3554 49.5029 32.3776 49.2598V22.7598C32.3573 22.4932 32.2516 22.2401 32.0759 22.0376C31.9003 21.8351 31.6639 21.694 31.4016 21.6348V21.6348Z" fill="var(--sapContent_Illustrative_Color7)"/>
<path d="M31.4016 21.6348C31.3823 21.6334 31.363 21.6334 31.3438 21.6348V50.3523C31.402 50.3517 31.4601 50.3458 31.5173 50.3348C31.7506 50.2587 31.9564 50.1163 32.1093 49.9253C32.2622 49.7342 32.3554 49.5029 32.3776 49.2598V22.7598C32.3573 22.4932 32.2516 22.2401 32.0759 22.0376C31.9003 21.8351 31.6639 21.694 31.4016 21.6348V21.6348Z" fill="var(--sapContent_Illustrative_Color19)"/>
<path d="M32.3776 22.7478V22.6553C32.3773 22.3934 32.2759 22.1416 32.0943 21.9518C31.9127 21.762 31.6648 21.6487 31.4016 21.6353C31.662 21.6937 31.897 21.833 32.0724 22.0331C32.2479 22.2331 32.3548 22.4834 32.3776 22.7478V22.7478Z" fill="var(--sapContent_Illustrative_Color8)"/>
<path opacity="0.2" d="M32.3776 22.7478V22.6553C32.3773 22.3934 32.2759 22.1416 32.0943 21.9518C31.9127 21.762 31.6648 21.6487 31.4016 21.6353C31.662 21.6937 31.897 21.833 32.0724 22.0331C32.2479 22.2331 32.3548 22.4834 32.3776 22.7478V22.7478Z" fill="var(--sapContent_Illustrative_Color20)"/>
<path d="M31.5173 50.3277C31.756 50.2878 31.9729 50.1658 32.1302 49.983C32.2875 49.8002 32.375 49.5682 32.3776 49.3277V49.2627C32.3536 49.504 32.2595 49.7332 32.1067 49.9223C31.954 50.1114 31.7492 50.2522 31.5173 50.3277Z" fill="var(--sapContent_Illustrative_Color8)"/>
<path opacity="0.2" d="M31.5173 50.3277C31.756 50.2878 31.9729 50.1658 32.1302 49.983C32.2875 49.8002 32.375 49.5682 32.3776 49.3277V49.2627C32.3536 49.504 32.2595 49.7332 32.1067 49.9223C31.954 50.1114 31.7492 50.2522 31.5173 50.3277Z" fill="var(--sapContent_Illustrative_Color20)"/>
<path opacity="0.5" d="M26.2477 39.0601H16.6139C16.5083 39.0601 16.4227 39.1451 16.4227 39.25V44.8075C16.4227 44.9125 16.5083 44.9975 16.6139 44.9975H26.2477C26.3532 44.9975 26.4388 44.9125 26.4388 44.8075V39.25C26.4388 39.1451 26.3532 39.0601 26.2477 39.0601Z" fill="var(--sapContent_Illustrative_Color19)"/>
<path opacity="0.5" d="M26.3257 39.0176H16.5359C16.4776 39.0176 16.4303 39.0646 16.4303 39.1226V39.6151C16.4303 39.6731 16.4776 39.7201 16.5359 39.7201H26.3257C26.384 39.7201 26.4313 39.6731 26.4313 39.6151V39.1226C26.4313 39.0646 26.384 39.0176 26.3257 39.0176Z" fill="var(--sapContent_Illustrative_Color19)"/>
<path opacity="0.5" d="M26.8061 36.1074H16.1309C16.017 36.1074 15.9247 36.1992 15.9247 36.3124V38.8474C15.9247 38.9606 16.017 39.0524 16.1309 39.0524H26.8061C26.92 39.0524 27.0123 38.9606 27.0123 38.8474V36.3124C27.0123 36.1992 26.92 36.1074 26.8061 36.1074Z" fill="var(--sapContent_Illustrative_Color19)"/>
<path opacity="0.5" d="M21.9967 32.4149C21.954 32.0324 21.9012 31.6649 21.8332 31.3224C22.3775 31.168 22.859 30.8469 23.2091 30.4049C23.916 29.5749 24.1096 28.5799 23.6393 28.1849C23.1689 27.7899 22.2131 28.1449 21.5063 28.9749C21.3753 29.1311 21.2583 29.2984 21.1566 29.4749C21.011 29.2334 20.798 29.039 20.5436 28.9153C20.2892 28.7915 20.0041 28.7436 19.7229 28.7774C18.1659 28.9449 18.0502 30.7274 18.2841 32.8599C18.4224 34.1099 18.4979 35.3299 18.9582 36.1099H21.8609C22.2282 35.2124 22.1426 33.7549 21.9967 32.4149Z" fill="var(--sapContent_Illustrative_Color19)"/>
<path opacity="0.5" d="M23.9813 32.3598C23.2669 32.3748 22.784 33.3598 22.6859 34.5698C22.6381 35.1723 22.5299 35.7148 22.6331 36.1123H24.8969C25.1504 35.6379 25.2776 35.1069 25.2666 34.5698C25.2742 33.3598 25.2918 32.3348 23.9813 32.3598Z" fill="var(--sapContent_Illustrative_Color19)"/>
<path d="M129.757 114.917C127.227 114.917 124.722 114.433 122.385 113.493C120.048 112.553 117.925 111.175 116.136 109.438C114.347 107.701 112.929 105.638 111.961 103.369C110.994 101.099 110.496 98.6669 110.497 96.2106L118.84 62.686H141.863L149.05 96.2106C149.051 98.6696 148.552 101.105 147.582 103.376C146.613 105.648 145.191 107.712 143.399 109.449C141.607 111.187 139.48 112.564 137.139 113.502C134.798 114.441 132.29 114.921 129.757 114.917V114.917Z" fill="var(--sapContent_Illustrative_Color19)"/>
<rect x="-60.9945" y="114.917" width="76.3107" height="10.6077" rx="4" fill="var(--sapContent_Illustrative_Color18)"/>
<rect x="8.82166" y="114.917" width="168.858" height="10.6077" rx="4" fill="var(--sapContent_Illustrative_Color20)"/>
</g>
<path d="M21.2947 89.8092L27.727 88.708L29.5204 102.668C29.5493 102.891 29.4908 103.116 29.3572 103.297C29.2236 103.477 29.0252 103.599 28.8037 103.637L25.2077 104.25C24.9853 104.289 24.7563 104.241 24.5691 104.114C24.3819 103.988 24.2512 103.794 24.2045 103.573L21.2947 89.8092Z" fill="var(--sapContent_Illustrative_Color3)"/>
<path d="M19.0939 94.2031H38.3526V111.831C38.3526 112.785 37.9734 113.701 37.2985 114.376C36.6235 115.051 35.7081 115.43 34.7535 115.43H22.6929C21.7384 115.43 20.823 115.051 20.148 114.376C19.4731 113.701 19.0939 112.785 19.0939 111.831V94.2031Z" fill="var(--sapContent_Illustrative_Color19)"/>
<path d="M28.7225 95.2552C34.0402 95.2552 38.3511 94.7841 38.3511 94.203C38.3511 93.6219 34.0402 93.1509 28.7225 93.1509C23.4047 93.1509 19.0939 93.6219 19.0939 94.203C19.0939 94.7841 23.4047 95.2552 28.7225 95.2552Z" fill="var(--sapContent_Illustrative_Color20)"/>
<path d="M27.7209 88.7083L25.9612 86.2227L22.1492 86.8751L21.287 89.8079L27.7209 88.7083Z" fill="var(--sapContent_Illustrative_Color4)"/>
<path d="M25.5675 83.9203L21.7573 84.5723L22.151 86.8728L25.9611 86.2209L25.5675 83.9203Z" fill="var(--sapContent_Illustrative_Color4)"/>
<path d="M25.1235 83.9987L24.7023 81.5376C24.694 81.4866 24.6733 81.4385 24.6421 81.3974C24.6108 81.3564 24.57 81.3236 24.5231 81.302C24.4763 81.2803 24.4248 81.2706 24.3733 81.2734C24.3218 81.2763 24.2717 81.2918 24.2276 81.3186L21.938 82.6862C21.8825 82.7188 21.8382 82.7673 21.8108 82.8256C21.7835 82.8838 21.7744 82.9489 21.7848 83.0124L22.0452 84.5255L25.1235 83.9987Z" fill="var(--sapContent_Illustrative_Color3)"/>
<path d="M22.3851 94.9826C24.0422 95.148 26.197 95.2507 28.5617 95.2552L28.2738 93.0146C26.1921 93.0291 24.1127 93.1508 22.0436 93.3791L22.3851 94.9826Z" fill="var(--sapContent_Illustrative_Color3)"/>
<path d="M101.949 23.2926C101.622 23.2975 101.301 23.3906 101.021 23.5621C100.741 23.7337 100.512 23.9773 100.358 24.2674L96.5136 31.0725C95.8772 32.1976 96.4601 33.3233 97.3378 33.8168C97.6895 34.032 98.1022 34.1265 98.5139 34.0862C98.9256 34.046 99.314 33.8731 99.6207 33.5935C99.7649 33.4541 99.8873 33.2937 99.9838 33.1179L103.828 26.3128C104.003 26.0177 104.095 25.6813 104.095 25.3392C104.095 24.997 104.002 24.662 103.827 24.3693C103.633 24.044 103.358 23.7743 103.029 23.5858C102.701 23.3974 102.329 23.2965 101.949 23.2926V23.2926Z" fill="var(--sapContent_Illustrative_Color5)"/>
<path d="M59.7566 26.6541C59.5575 26.7789 59.3864 26.9438 59.2541 27.1382C59.1218 27.3326 59.0312 27.5522 58.9882 27.783C58.9452 28.0138 58.9507 28.2507 59.0042 28.4787C59.0578 28.7066 59.1583 28.9205 59.2994 29.1068L63.5859 35.3443C63.7408 35.5681 63.9389 35.7584 64.1685 35.9041C64.3982 36.0499 64.6548 36.1482 64.9235 36.1933C65.1922 36.2384 65.4675 36.2293 65.7333 36.1667C65.9992 36.1041 66.2503 35.9892 66.4719 35.8286C66.5652 35.765 66.6531 35.6938 66.7348 35.6158C67.0407 35.332 67.2302 34.9445 67.2658 34.5295C67.3013 34.1146 67.1805 33.7024 66.927 33.3742L62.6408 27.1405C62.4863 26.9166 62.2886 26.726 62.0592 26.58C61.8298 26.4339 61.5733 26.3354 61.3047 26.2901C61.0361 26.2448 60.7609 26.2537 60.4951 26.3162C60.2292 26.3786 59.9782 26.4935 59.7566 26.6541V26.6541Z" fill="var(--sapContent_Illustrative_Color5)"/>
<path d="M79.3453 18.2082C79.1704 18.3963 79.0355 18.618 78.9487 18.8596C78.8619 19.1012 78.8252 19.3576 78.8407 19.6132L79.4206 31.088C79.4495 31.6025 79.676 32.0846 80.0526 32.4334C80.4293 32.7823 80.9271 32.971 81.4418 32.96C81.9192 32.9478 82.3757 32.7565 82.7209 32.4239C82.9196 32.2319 83.0749 31.9995 83.1762 31.7426C83.2775 31.4857 83.3224 31.2104 83.3079 30.9353L82.728 19.4605C82.6994 18.9431 82.4715 18.4584 82.0923 18.1081C81.713 17.7578 81.212 17.5692 80.6944 17.582C80.4396 17.5903 80.1888 17.65 79.9569 17.7576C79.7251 17.8652 79.5171 18.0185 79.3453 18.2082V18.2082Z" fill="var(--sapContent_Illustrative_Color5)"/>
<path d="M126.412 83.0038H126.262C125.918 82.9655 125.604 82.7965 125.388 82.5337C125.173 82.2708 125.073 81.9358 125.112 81.6019C126.378 70.6958 130.488 60.2836 137.055 51.3504C142.432 44.0637 149.334 37.9615 157.308 33.4431C157.604 33.305 157.944 33.2806 158.258 33.3747C158.572 33.4688 158.838 33.6745 159.003 33.9508C159.168 34.227 159.22 34.5535 159.148 34.8651C159.076 35.1767 158.885 35.4504 158.614 35.6316C150.956 39.9716 144.326 45.8314 139.158 52.8284C132.851 61.4096 128.902 71.4113 127.686 81.8873C127.648 82.1914 127.499 82.4719 127.264 82.6771C127.03 82.8823 126.728 82.9983 126.412 83.0038Z" fill="var(--sapContent_Illustrative_Color19)"/>
<path d="M143.382 45.5516C144.364 45.1091 144.186 42.7128 142.984 40.1992C141.783 37.6857 140.013 36.0067 139.031 36.4493C138.049 36.8918 138.227 39.2881 139.429 41.8017C140.63 44.3152 142.4 45.9941 143.382 45.5516Z" fill="var(--sapContent_Illustrative_Color19)"/>
<path d="M143.378 53.8989C146.189 53.4196 148.316 52.1919 148.129 51.1567C147.942 50.1215 145.511 49.6709 142.7 50.1502C139.889 50.6295 137.762 51.8572 137.949 52.8924C138.136 53.9276 140.567 54.3782 143.378 53.8989Z" fill="var(--sapContent_Illustrative_Color19)"/>
<path d="M131.904 62.1181C132.779 61.4987 132.124 59.1817 130.442 56.9429C128.76 54.7042 126.688 53.3914 125.813 54.0108C124.939 54.6302 125.593 56.9472 127.275 59.1859C128.957 61.4247 131.03 62.7375 131.904 62.1181Z" fill="var(--sapContent_Illustrative_Color19)"/>
<path d="M159.493 42.5757C159.773 41.5605 157.765 40.1564 155.008 39.4397C152.251 38.7229 149.789 38.9649 149.509 39.9801C149.229 40.9953 151.237 42.3994 153.994 43.1162C156.751 43.8329 159.213 43.591 159.493 42.5757Z" fill="var(--sapContent_Illustrative_Color19)"/>
<path d="M151.137 36.1313C151.272 33.3633 150.505 31.0791 149.424 31.0294C148.343 30.9797 147.357 33.1833 147.222 35.9514C147.087 38.7194 147.854 41.0037 148.935 41.0534C150.016 41.103 151.002 38.8994 151.137 36.1313Z" fill="var(--sapContent_Illustrative_Color19)"/>
<path d="M104.723 61.3436C104.544 61.3433 104.37 61.2928 104.219 61.198C104.068 61.1031 103.947 60.9677 103.87 60.8072C103.792 60.6467 103.761 60.4676 103.781 60.2904C103.8 60.1133 103.869 59.9452 103.98 59.8055C104.652 58.9666 105.117 57.982 105.339 56.9307C105.571 55.813 105.906 53.0414 104.02 51.4404C102.991 50.5694 101.236 49.9829 99.6327 50.6424C97.7271 51.4228 96.6245 53.7413 97.0701 56.0345C97.0914 56.2692 97.0248 56.5033 96.883 56.6915C96.7413 56.8797 96.5347 57.0085 96.3033 57.0527C96.0719 57.097 95.8323 57.0536 95.6311 56.931C95.4299 56.8084 95.2815 56.6154 95.2148 56.3895C94.5905 53.1749 96.1487 50.0156 98.9203 48.8803C101.423 47.8558 103.897 48.8375 105.254 49.9879C107.129 51.5789 107.839 54.2472 107.205 57.3108C106.923 58.6505 106.332 59.9057 105.478 60.976C105.388 61.0909 105.274 61.1837 105.143 61.2474C105.012 61.3111 104.868 61.344 104.723 61.3436V61.3436Z" fill="var(--sapContent_Illustrative_Color6)"/>
<path d="M62.4294 61.394C62.2495 61.3947 62.0732 61.3446 61.9205 61.2496C61.7678 61.1546 61.645 61.0185 61.5661 60.8568C61.4873 60.6952 61.4556 60.5146 61.4747 60.3358C61.4938 60.157 61.5629 59.9872 61.6742 59.8459C62.3522 59 62.8222 58.0067 63.0461 56.9459C63.2802 55.8207 63.615 53.0264 61.7144 51.4078C60.6798 50.5293 58.9101 49.9402 57.294 50.6023C55.3733 51.3902 54.2732 53.7263 54.7112 56.0372C54.7568 56.285 54.7028 56.5409 54.5608 56.7491C54.4188 56.9573 54.2004 57.1011 53.953 57.1492C53.7056 57.1973 53.4492 57.1458 53.2395 57.0059C53.0299 56.866 52.8839 56.6491 52.8333 56.4022C52.204 53.1624 53.7748 49.978 56.569 48.8326C59.0864 47.8005 61.5835 48.7898 62.953 49.9503C64.8409 51.5513 65.5584 54.2423 64.919 57.3285C64.6352 58.6796 64.0385 59.9453 63.177 61.024C63.0884 61.1381 62.9751 61.2307 62.8456 61.2948C62.7162 61.3589 62.5738 61.3928 62.4294 61.394V61.394Z" fill="var(--sapContent_Illustrative_Color6)"/>
<path d="M46.2229 55.7827H120.182C120.304 55.7784 120.425 55.8023 120.536 55.8524C120.648 55.9025 120.746 55.9775 120.824 56.0717C120.901 56.1659 120.956 56.2767 120.984 56.3955C121.012 56.5143 121.012 56.638 120.985 56.7569L110.88 114.064C110.826 114.331 110.684 114.572 110.476 114.749C110.269 114.926 110.007 115.028 109.735 115.038H35.7735C35.6517 115.042 35.5306 115.018 35.4197 114.967C35.3087 114.917 35.2107 114.842 35.1334 114.748C35.056 114.654 35.0013 114.543 34.9735 114.425C34.9457 114.306 34.9455 114.182 34.9729 114.064L45.0775 56.7569C45.1307 56.4892 45.2727 56.2473 45.4806 56.0705C45.6885 55.8936 45.9501 55.7922 46.2229 55.7827V55.7827Z" fill="var(--sapContent_Illustrative_Color14)"/>
<path d="M120.053 55.7827H46.092C45.9701 55.7783 45.8488 55.8021 45.7375 55.8522C45.6263 55.9024 45.5281 55.9775 45.4507 56.0718C45.3732 56.166 45.3186 56.2769 45.291 56.3957C45.2633 56.5146 45.2635 56.6382 45.2915 56.757L55.396 114.064C55.4492 114.332 55.5913 114.573 55.7992 114.75C56.0071 114.927 56.2686 115.028 56.5414 115.038H130.5C130.622 115.042 130.744 115.018 130.855 114.968C130.966 114.918 131.065 114.843 131.142 114.749C131.22 114.655 131.275 114.544 131.303 114.425C131.331 114.306 131.331 114.183 131.303 114.064L121.196 56.757C121.144 56.4894 121.002 56.2476 120.795 56.0707C120.587 55.8939 120.326 55.7924 120.053 55.7827V55.7827Z" fill="var(--sapContent_Illustrative_Color2)"/>
<path d="M120.026 55.6342H46.0643C45.9426 55.6303 45.8215 55.6544 45.7105 55.7047C45.5996 55.755 45.5016 55.8301 45.4243 55.9242C45.3469 56.0184 45.2922 56.129 45.2644 56.2476C45.2366 56.3663 45.2364 56.4897 45.2638 56.6084L46.7994 65.3158C46.8526 65.5835 46.9946 65.8254 47.2026 66.0023C47.4105 66.1791 47.672 66.2805 47.9448 66.29H121.899C122.021 66.2944 122.142 66.2707 122.253 66.2205C122.364 66.1704 122.463 66.0953 122.54 66.001C122.617 65.9067 122.672 65.7959 122.7 65.677C122.727 65.5582 122.727 65.4346 122.699 65.3158L121.164 56.6084C121.111 56.3419 120.97 56.1009 120.763 55.9242C120.557 55.7475 120.297 55.6454 120.026 55.6342V55.6342Z" fill="var(--sapContent_Illustrative_Color13)"/>
<path d="M62.6159 62.7758C63.6857 62.7758 64.3981 61.8847 64.2043 60.7846C64.1018 60.2437 63.82 59.7533 63.4043 59.3924C62.9886 59.0315 62.4634 58.8214 61.9135 58.7959C60.8411 58.7959 60.1313 59.687 60.3251 60.7846C60.4271 61.3259 60.7087 61.8169 61.1244 62.1783C61.5401 62.5397 62.0656 62.7502 62.6159 62.7758V62.7758Z" fill="var(--sapContent_Illustrative_Color14)"/>
<path d="M104.781 62.7758C105.853 62.7758 106.563 61.8847 106.369 60.7846C106.267 60.2437 105.985 59.7533 105.569 59.3924C105.154 59.0315 104.629 58.8214 104.079 58.7959C103.009 58.7959 102.296 59.687 102.49 60.7846C102.592 61.3259 102.874 61.8169 103.29 62.1783C103.705 62.5397 104.231 62.7502 104.781 62.7758V62.7758Z" fill="var(--sapContent_Illustrative_Color14)"/>
<path d="M114.817 76.3868H58.1928C58.071 76.3821 57.9497 76.4056 57.8383 76.4554C57.727 76.5052 57.6287 76.58 57.551 76.674C57.4733 76.7681 57.4183 76.8787 57.3904 76.9974C57.3624 77.1161 57.3622 77.2397 57.3898 77.3585L62.943 108.85C62.9962 109.118 63.1383 109.36 63.3462 109.537C63.5541 109.713 63.8156 109.815 64.0884 109.824H120.713C120.835 109.829 120.956 109.805 121.068 109.755C121.179 109.705 121.277 109.63 121.354 109.535C121.432 109.441 121.487 109.33 121.514 109.211C121.542 109.093 121.542 108.969 121.514 108.85L115.96 77.3585C115.907 77.0915 115.765 76.8502 115.558 76.6738C115.351 76.4975 115.09 76.3963 114.817 76.3868V76.3868Z" fill="var(--sapContent_Illustrative_Color8)"/>
<path d="M80.3051 70.6147H57.9865C57.8345 70.6082 57.683 70.6368 57.5438 70.6984C57.4046 70.76 57.2816 70.8528 57.1841 70.9697C57.0867 71.0866 57.0176 71.2245 56.9821 71.3724C56.9466 71.5204 56.9458 71.6746 56.9796 71.823C57.0465 72.1551 57.2232 72.455 57.4811 72.6746C57.7391 72.8942 58.0634 73.0207 58.4019 73.0338H80.7205C80.8728 73.0404 81.0246 73.0118 81.164 72.9501C81.3034 72.8883 81.4266 72.7952 81.5241 72.678C81.6215 72.5608 81.6906 72.4226 81.7259 72.2743C81.7612 72.126 81.7617 71.9715 81.7274 71.823C81.6599 71.4914 81.4831 71.192 81.2252 70.9729C80.9673 70.7538 80.6433 70.6276 80.3051 70.6147V70.6147Z" fill="var(--sapContent_Illustrative_Color8)"/>
<path d="M66.5176 81.5427H63.5724C63.5157 81.5408 63.4594 81.552 63.4077 81.5754C63.3561 81.5988 63.3105 81.6337 63.2745 81.6775C63.2385 81.7213 63.2131 81.7728 63.2001 81.828C63.1871 81.8831 63.187 81.9406 63.1998 81.9958L63.6378 84.4678C63.6626 84.592 63.7285 84.7043 63.8248 84.7865C63.9212 84.8687 64.0424 84.916 64.169 84.9209H67.1142C67.1709 84.9228 67.2272 84.9116 67.2789 84.8882C67.3305 84.8648 67.3761 84.8299 67.4121 84.7861C67.4481 84.7423 67.4735 84.6908 67.4865 84.6356C67.4994 84.5805 67.4996 84.523 67.4868 84.4678L67.0488 81.9958C67.024 81.8716 66.9581 81.7593 66.8618 81.6771C66.7654 81.5949 66.6442 81.5476 66.5176 81.5427Z" fill="var(--sapContent_Illustrative_Color6)"/>
<path d="M74.0345 81.5627H71.0892C71.0325 81.5609 70.9762 81.5721 70.9246 81.5954C70.8729 81.6188 70.8274 81.6537 70.7914 81.6975C70.7554 81.7413 70.7299 81.7928 70.7169 81.848C70.704 81.9032 70.7039 81.9606 70.7166 82.0158L71.1521 84.4878C71.1778 84.612 71.2443 84.7241 71.341 84.8062C71.4377 84.8883 71.5591 84.9357 71.6858 84.9409H74.6286C74.6854 84.9433 74.7419 84.9324 74.7938 84.9092C74.8457 84.886 74.8916 84.8511 74.9277 84.8072C74.9638 84.7632 74.9892 84.7115 75.0019 84.6561C75.0147 84.6007 75.0144 84.5431 75.0011 84.4878L74.5732 82.0083C74.547 81.884 74.4795 81.7723 74.3816 81.6914C74.2838 81.6105 74.1614 81.5651 74.0345 81.5627Z" fill="var(--sapContent_Illustrative_Color6)"/>
<path d="M81.6442 81.5853H78.7015C78.6447 81.5829 78.5881 81.5938 78.5362 81.617C78.4843 81.6402 78.4385 81.6752 78.4024 81.7191C78.3662 81.763 78.3408 81.8147 78.3281 81.8701C78.3153 81.9255 78.3156 81.9831 78.3289 82.0384L78.7644 84.5129C78.7893 84.6369 78.8552 84.7488 78.9516 84.8306C79.048 84.9123 79.1692 84.9592 79.2956 84.9635H82.2408C82.2972 84.9653 82.3533 84.9541 82.4047 84.9309C82.4561 84.9076 82.5015 84.8729 82.5374 84.8295C82.5734 84.786 82.5989 84.7349 82.6121 84.68C82.6252 84.6251 82.6257 84.568 82.6134 84.5129L82.1779 82.0384C82.1522 81.9142 82.0857 81.8021 81.989 81.72C81.8923 81.6379 81.771 81.5905 81.6442 81.5853V81.5853Z" fill="var(--sapContent_Illustrative_Color6)"/>
<path d="M89.1735 81.5979H86.2282C86.1716 81.596 86.1153 81.6072 86.0636 81.6306C86.012 81.654 85.9664 81.6889 85.9304 81.7327C85.8944 81.7765 85.8689 81.8279 85.856 81.8831C85.843 81.9383 85.8429 81.9957 85.8557 82.051L86.2912 84.523C86.3161 84.6476 86.3823 84.7601 86.4792 84.8424C86.576 84.9246 86.6978 84.9718 86.8248 84.9761H89.7676C89.8244 84.9785 89.881 84.9676 89.9329 84.9444C89.9848 84.9212 90.0306 84.8862 90.0667 84.8423C90.1028 84.7984 90.1282 84.7467 90.141 84.6913C90.1537 84.6359 90.1535 84.5783 90.1402 84.523L89.7047 82.051C89.6799 81.9268 89.614 81.8145 89.5176 81.7323C89.4213 81.6501 89.3001 81.6028 89.1735 81.5979V81.5979Z" fill="var(--sapContent_Illustrative_Color6)"/>
<path d="M96.8514 81.6784H93.9087C93.852 81.6766 93.7957 81.6878 93.744 81.7112C93.6924 81.7345 93.6468 81.7695 93.6108 81.8132C93.5748 81.857 93.5494 81.9085 93.5364 81.9637C93.5235 82.0189 93.5233 82.0763 93.5361 82.1315L93.9716 84.6035C93.996 84.7279 94.0617 84.8404 94.1582 84.9227C94.2546 85.005 94.3761 85.0522 94.5027 85.0567H97.448C97.5047 85.0585 97.561 85.0473 97.6126 85.0239C97.6643 85.0005 97.7099 84.9656 97.7459 84.9218C97.7819 84.878 97.8073 84.8266 97.8203 84.7714C97.8332 84.7162 97.8333 84.6588 97.8206 84.6035L97.3851 82.1315C97.3598 82.0071 97.2934 81.8948 97.1966 81.8126C97.0999 81.7305 96.9783 81.6832 96.8514 81.6784V81.6784Z" fill="var(--sapContent_Illustrative_Color6)"/>
<path d="M104.366 81.6912H101.423C101.366 81.6889 101.31 81.6997 101.258 81.723C101.206 81.7462 101.16 81.7811 101.124 81.825C101.088 81.8689 101.062 81.9206 101.05 81.9761C101.037 82.0315 101.037 82.0891 101.05 82.1444L101.486 84.6164C101.511 84.7406 101.576 84.8528 101.673 84.935C101.769 85.0172 101.89 85.0646 102.017 85.0695H104.962C105.019 85.0713 105.075 85.0601 105.127 85.0367C105.179 85.0134 105.224 84.9784 105.26 84.9346C105.296 84.8909 105.322 84.8394 105.335 84.7842C105.347 84.729 105.348 84.6716 105.335 84.6164L104.899 82.1444C104.874 82.0201 104.807 81.9081 104.71 81.826C104.614 81.7439 104.492 81.6965 104.366 81.6912Z" fill="var(--sapContent_Illustrative_Color6)"/>
<path d="M111.311 81.6784H108.368C108.311 81.6766 108.255 81.6878 108.204 81.7112C108.152 81.7345 108.106 81.7695 108.07 81.8132C108.034 81.857 108.009 81.9085 107.996 81.9637C107.983 82.0189 107.983 82.0763 107.996 82.1315L108.431 84.6035C108.456 84.7282 108.522 84.8407 108.619 84.923C108.716 85.0052 108.838 85.0523 108.965 85.0567H111.907C111.964 85.059 112.021 85.0482 112.073 85.0249C112.125 85.0017 112.17 84.9668 112.207 84.9229C112.243 84.879 112.268 84.8273 112.281 84.7718C112.294 84.7164 112.293 84.6588 112.28 84.6035L111.845 82.1315C111.819 82.0071 111.753 81.8948 111.656 81.8126C111.559 81.7305 111.438 81.6832 111.311 81.6784V81.6784Z" fill="var(--sapContent_Illustrative_Color6)"/>
<path d="M67.7763 88.2186H64.821C64.7642 88.2162 64.7076 88.2271 64.6557 88.2503C64.6038 88.2735 64.558 88.3085 64.5219 88.3524C64.4858 88.3963 64.4603 88.448 64.4476 88.5034C64.4348 88.5588 64.4351 88.6164 64.4484 88.6717L64.8839 91.1437C64.9087 91.2679 64.9746 91.3802 65.0709 91.4624C65.1673 91.5446 65.2885 91.5919 65.4151 91.5968H68.3603C68.417 91.5987 68.4733 91.5875 68.5249 91.5641C68.5766 91.5407 68.6222 91.5058 68.6582 91.462C68.6942 91.4182 68.7196 91.3667 68.7326 91.3115C68.7455 91.2564 68.7456 91.1989 68.7329 91.1437L68.2974 88.6717C68.273 88.5491 68.2087 88.4381 68.1143 88.356C68.02 88.274 67.9011 88.2257 67.7763 88.2186V88.2186Z" fill="var(--sapContent_Illustrative_Color6)"/>
<path d="M75.2804 88.2308H72.3351C72.2786 88.2285 72.2223 88.2393 72.1706 88.2624C72.119 88.2855 72.0733 88.3202 72.0373 88.3638C72.0012 88.4074 71.9757 88.4588 71.9628 88.5138C71.9498 88.5689 71.9497 88.6263 71.9626 88.6814L72.3981 91.1559C72.4234 91.2803 72.4897 91.3926 72.5865 91.4748C72.6833 91.5569 72.8049 91.6042 72.9317 91.609H75.8745C75.9312 91.6108 75.9875 91.5996 76.0391 91.5763C76.0908 91.5529 76.1363 91.518 76.1723 91.4742C76.2083 91.4304 76.2338 91.3789 76.2468 91.3237C76.2597 91.2686 76.2598 91.2111 76.2471 91.1559L75.8116 88.6814C75.7867 88.5574 75.7207 88.4455 75.6243 88.3637C75.5279 88.2819 75.4068 88.2351 75.2804 88.2308V88.2308Z" fill="var(--sapContent_Illustrative_Color6)"/>
<path d="M82.8802 88.2609H79.9349C79.8782 88.2591 79.8219 88.2703 79.7703 88.2937C79.7186 88.3171 79.6731 88.352 79.6371 88.3958C79.6011 88.4396 79.5756 88.491 79.5627 88.5462C79.5497 88.6014 79.5496 88.6588 79.5623 88.7141L79.9978 91.1861C80.0227 91.3107 80.089 91.4232 80.1858 91.5055C80.2827 91.5877 80.4045 91.6348 80.5315 91.6392H83.4843C83.5411 91.6415 83.5977 91.6307 83.6496 91.6075C83.7015 91.5843 83.7473 91.5493 83.7834 91.5054C83.8195 91.4615 83.845 91.4098 83.8577 91.3544C83.8705 91.299 83.8702 91.2414 83.8569 91.1861L83.4214 88.7141C83.3962 88.5882 83.3289 88.4747 83.2305 88.3923C83.132 88.31 83.0085 88.2636 82.8802 88.2609V88.2609Z" fill="var(--sapContent_Illustrative_Color6)"/>
<path d="M90.4096 88.2738H87.4668C87.41 88.2714 87.3535 88.2823 87.3016 88.3055C87.2497 88.3287 87.2039 88.3636 87.1677 88.4075C87.1316 88.4515 87.1062 88.5032 87.0935 88.5586C87.0807 88.614 87.081 88.6716 87.0943 88.7269L87.5298 91.1989C87.5546 91.3231 87.6204 91.4353 87.7168 91.5175C87.8132 91.5997 87.9344 91.6471 88.0609 91.652H91.0062C91.0629 91.6538 91.1192 91.6426 91.1708 91.6193C91.2225 91.5959 91.268 91.5609 91.304 91.5172C91.34 91.4734 91.3655 91.4219 91.3785 91.3667C91.3914 91.3115 91.3915 91.2541 91.3788 91.1989L90.9357 88.7269C90.9103 88.6039 90.845 88.4927 90.7498 88.4107C90.6546 88.3288 90.535 88.2806 90.4096 88.2738V88.2738Z" fill="var(--sapContent_Illustrative_Color6)"/>
<path d="M98.0974 88.3592H95.1546C95.0977 88.3569 95.0411 88.3678 94.9892 88.391C94.9372 88.4143 94.8913 88.4491 94.855 88.493C94.8187 88.5368 94.793 88.5884 94.7799 88.6438C94.7669 88.6992 94.7667 88.7568 94.7795 88.8123L95.215 91.2793C95.2407 91.4035 95.3072 91.5155 95.4039 91.5976C95.5006 91.6797 95.622 91.7272 95.7487 91.7324H98.6914C98.7483 91.7347 98.8048 91.7239 98.8567 91.7007C98.9086 91.6774 98.9544 91.6425 98.9905 91.5986C99.0267 91.5547 99.0521 91.503 99.0648 91.4476C99.0776 91.3922 99.0773 91.3346 99.064 91.2793L98.6285 88.8073C98.6027 88.684 98.5364 88.5729 98.4402 88.4917C98.3439 88.4105 98.2232 88.3638 98.0974 88.3592V88.3592Z" fill="var(--sapContent_Illustrative_Color6)"/>
<path d="M105.611 88.3591H102.666C102.61 88.3572 102.553 88.3684 102.502 88.3918C102.45 88.4152 102.404 88.4501 102.368 88.4939C102.332 88.5377 102.307 88.5892 102.294 88.6444C102.281 88.6995 102.281 88.757 102.294 88.8122L102.732 91.2842C102.756 91.4084 102.822 91.5207 102.919 91.6029C103.015 91.6851 103.136 91.7324 103.263 91.7373H106.208C106.265 91.7392 106.321 91.728 106.373 91.7046C106.424 91.6812 106.47 91.6463 106.506 91.6025C106.542 91.5587 106.567 91.5072 106.58 91.4521C106.593 91.3969 106.593 91.3394 106.581 91.2842L106.143 88.8122C106.118 88.6878 106.053 88.5753 105.956 88.493C105.86 88.4107 105.738 88.3635 105.611 88.3591Z" fill="var(--sapContent_Illustrative_Color6)"/>
<path d="M112.552 88.3591H109.607C109.55 88.3572 109.494 88.3684 109.442 88.3918C109.39 88.4152 109.345 88.4501 109.309 88.4939C109.273 88.5377 109.247 88.5892 109.234 88.6444C109.221 88.6995 109.221 88.757 109.234 88.8122L109.67 91.2842C109.695 91.4084 109.762 91.5205 109.858 91.6026C109.955 91.6847 110.077 91.7321 110.203 91.7373H113.146C113.203 91.7397 113.259 91.7288 113.311 91.7056C113.363 91.6824 113.409 91.6475 113.445 91.6035C113.481 91.5596 113.507 91.5079 113.519 91.4525C113.532 91.3971 113.532 91.3395 113.519 91.2842L113.088 88.8072C113.062 88.6831 112.995 88.5714 112.898 88.4901C112.801 88.4088 112.679 88.3626 112.552 88.3591V88.3591Z" fill="var(--sapContent_Illustrative_Color6)"/>
<path d="M68.9871 94.6525H66.0419C65.9855 94.6508 65.9294 94.6619 65.878 94.6852C65.8266 94.7084 65.7812 94.7431 65.7453 94.7866C65.7093 94.8301 65.6838 94.8812 65.6706 94.9361C65.6574 94.9909 65.657 95.0481 65.6693 95.1031L66.1048 97.5776C66.1301 97.7021 66.1965 97.8144 66.2933 97.8965C66.39 97.9787 66.5116 98.026 66.6385 98.0308H69.5812C69.6379 98.0326 69.6942 98.0214 69.7459 97.998C69.7975 97.9747 69.8431 97.9397 69.8791 97.8959C69.9151 97.8521 69.9405 97.8007 69.9535 97.7455C69.9665 97.6903 69.9665 97.6329 69.9538 97.5776L69.5183 95.1031C69.4934 94.9792 69.4275 94.8673 69.3311 94.7855C69.2347 94.7037 69.1135 94.6569 68.9871 94.6525V94.6525Z" fill="var(--sapContent_Illustrative_Color6)"/>
<path d="M76.5013 94.6525H73.5661C73.5095 94.6507 73.4532 94.6619 73.4015 94.6853C73.3499 94.7087 73.3043 94.7436 73.2683 94.7874C73.2323 94.8312 73.2068 94.8826 73.1939 94.9378C73.1809 94.993 73.1808 95.0504 73.1936 95.1057L73.6291 97.5802C73.6544 97.7043 73.7209 97.8163 73.8177 97.8981C73.9146 97.9798 74.0361 98.0266 74.1627 98.0308H77.0904C77.1469 98.033 77.2032 98.0222 77.2549 97.9991C77.3066 97.976 77.3522 97.9413 77.3882 97.8977C77.4243 97.8541 77.4498 97.8028 77.4628 97.7477C77.4757 97.6926 77.4758 97.6353 77.4629 97.5802L77.0274 95.1057C77.0029 94.9823 76.9377 94.8706 76.8424 94.7885C76.7471 94.7064 76.627 94.6585 76.5013 94.6525V94.6525Z" fill="var(--sapContent_Illustrative_Color6)"/>
<path d="M84.1113 94.6955H81.166C81.1093 94.6937 81.053 94.7049 81.0014 94.7282C80.9497 94.7516 80.9042 94.7866 80.8681 94.8303C80.8321 94.8741 80.8067 94.9256 80.7937 94.9808C80.7808 95.036 80.7807 95.0934 80.7934 95.1486L81.2289 97.6206C81.2546 97.7448 81.3211 97.8569 81.4178 97.939C81.5145 98.0211 81.6359 98.0685 81.7626 98.0737H84.7053C84.7622 98.0761 84.8187 98.0652 84.8706 98.042C84.9225 98.0188 84.9683 97.9839 85.0044 97.94C85.0406 97.896 85.066 97.8443 85.0787 97.7889C85.0915 97.7335 85.0912 97.6759 85.0779 97.6206L84.6424 95.1562C84.6196 95.0304 84.5545 94.9162 84.4579 94.8324C84.3613 94.7486 84.239 94.7003 84.1113 94.6955V94.6955Z" fill="var(--sapContent_Illustrative_Color6)"/>
<path d="M91.6303 94.7083H88.6876C88.631 94.706 88.5747 94.7169 88.5231 94.74C88.4714 94.763 88.4257 94.7977 88.3897 94.8413C88.3536 94.8849 88.3281 94.9363 88.3152 94.9914C88.3022 95.0465 88.3022 95.1038 88.315 95.1589L88.7505 97.6334C88.7753 97.7576 88.8412 97.8699 88.9375 97.9521C89.0339 98.0343 89.1551 98.0816 89.2816 98.0865H92.2269C92.2836 98.0884 92.3399 98.0772 92.3915 98.0538C92.4432 98.0304 92.4888 97.9955 92.5248 97.9517C92.5608 97.9079 92.5862 97.8565 92.5992 97.8013C92.6121 97.7461 92.6122 97.6887 92.5995 97.6334L92.164 95.1564C92.1381 95.0327 92.0714 94.9213 91.9746 94.84C91.8779 94.7588 91.7566 94.7124 91.6303 94.7083Z" fill="var(--sapContent_Illustrative_Color6)"/>
<path d="M99.3182 94.7888H96.3755C96.3189 94.7867 96.2625 94.7976 96.2108 94.8207C96.1591 94.8437 96.1133 94.8783 96.0771 94.9219C96.0409 94.9654 96.0151 95.0167 96.0018 95.0717C95.9885 95.1268 95.988 95.1842 96.0004 95.2394L96.4384 97.714C96.4614 97.8412 96.5275 97.9567 96.6256 98.0411C96.7237 98.1254 96.8478 98.1734 96.9771 98.1772H99.9224C99.979 98.179 100.035 98.1678 100.087 98.1444C100.139 98.121 100.184 98.0861 100.22 98.0423C100.256 97.9985 100.282 97.9471 100.295 97.8919C100.308 97.8367 100.308 97.7793 100.295 97.724L99.8569 95.2495C99.8338 95.1225 99.7676 95.0073 99.6695 94.9234C99.5714 94.8395 99.4473 94.792 99.3182 94.7888V94.7888Z" fill="var(--sapContent_Illustrative_Color6)"/>
<path d="M106.832 94.8014H103.887C103.831 94.7997 103.775 94.8109 103.723 94.8341C103.672 94.8574 103.627 94.892 103.591 94.9355C103.555 94.979 103.529 95.0301 103.516 95.085C103.503 95.1398 103.502 95.197 103.515 95.252L103.953 97.7266C103.978 97.8505 104.044 97.9624 104.14 98.0442C104.236 98.126 104.357 98.1728 104.484 98.1772H107.429C107.485 98.1789 107.542 98.1677 107.593 98.1445C107.644 98.1213 107.69 98.0866 107.726 98.0431C107.762 97.9996 107.787 97.9485 107.8 97.8936C107.814 97.8388 107.814 97.7816 107.802 97.7266L107.364 95.252C107.339 95.1281 107.273 95.0162 107.176 94.9344C107.08 94.8526 106.959 94.8058 106.832 94.8014V94.8014Z" fill="var(--sapContent_Illustrative_Color6)"/>
<path d="M113.773 94.7888H110.823C110.766 94.787 110.71 94.7982 110.659 94.8214C110.607 94.8447 110.562 94.8793 110.526 94.9228C110.49 94.9663 110.464 95.0174 110.451 95.0723C110.438 95.1271 110.438 95.1843 110.45 95.2393L110.888 97.7139C110.913 97.8381 110.979 97.9503 111.075 98.0325C111.171 98.1147 111.293 98.1621 111.419 98.167H114.362C114.419 98.1692 114.475 98.1583 114.527 98.1351C114.579 98.1119 114.625 98.077 114.661 98.0332C114.698 97.9894 114.723 97.9377 114.737 97.8824C114.75 97.827 114.75 97.7693 114.737 97.7139L114.299 95.2393C114.274 95.1162 114.209 95.0049 114.114 94.9232C114.018 94.8415 113.898 94.7942 113.773 94.7888V94.7888Z" fill="var(--sapContent_Illustrative_Color6)"/>
<path d="M70.1929 101.104H67.2476C67.1911 101.102 67.1348 101.113 67.0831 101.136C67.0315 101.159 66.9858 101.194 66.9498 101.237C66.9137 101.281 66.8882 101.332 66.8752 101.387C66.8623 101.442 66.8622 101.5 66.8751 101.555L67.3106 104.029C67.3359 104.154 67.4022 104.266 67.499 104.348C67.5958 104.43 67.7174 104.478 67.8442 104.483H70.797C70.8539 104.485 70.9104 104.474 70.9623 104.451C71.0142 104.428 71.06 104.393 71.0961 104.349C71.1323 104.305 71.1577 104.253 71.1704 104.198C71.1832 104.142 71.1829 104.085 71.1696 104.029L70.7341 101.555C70.7084 101.43 70.6409 101.317 70.5425 101.235C70.4441 101.153 70.3208 101.107 70.1929 101.104V101.104Z" fill="var(--sapContent_Illustrative_Color6)"/>
<path d="M77.7071 101.117H74.7618C74.7055 101.116 74.6494 101.127 74.598 101.15C74.5466 101.173 74.5012 101.208 74.4652 101.251C74.4293 101.295 74.4037 101.346 74.3906 101.401C74.3774 101.456 74.377 101.513 74.3893 101.568L74.8248 104.042C74.8506 104.166 74.9172 104.278 75.0139 104.36C75.1106 104.442 75.2319 104.488 75.3585 104.493H78.3012C78.3577 104.495 78.414 104.485 78.4657 104.461C78.5174 104.438 78.563 104.404 78.5991 104.36C78.6351 104.316 78.6606 104.265 78.6736 104.21C78.6865 104.155 78.6866 104.098 78.6738 104.042L78.2383 101.568C78.2134 101.444 78.1474 101.332 78.051 101.25C77.9546 101.169 77.8335 101.122 77.7071 101.117V101.117Z" fill="var(--sapContent_Illustrative_Color6)"/>
<path d="M85.317 101.147H82.3768C82.3201 101.145 82.2638 101.157 82.2122 101.18C82.1605 101.203 82.115 101.238 82.079 101.282C82.043 101.326 82.0175 101.377 82.0045 101.432C81.9916 101.488 81.9915 101.545 82.0042 101.6L82.4397 104.072C82.4654 104.197 82.5319 104.309 82.6286 104.391C82.7253 104.473 82.8467 104.52 82.9734 104.525H85.901C85.9579 104.528 86.0144 104.517 86.0663 104.494C86.1182 104.47 86.164 104.436 86.2002 104.392C86.2363 104.348 86.2617 104.296 86.2744 104.241C86.2872 104.185 86.2869 104.128 86.2736 104.072L85.8381 101.6C85.8142 101.477 85.7499 101.366 85.6555 101.284C85.5611 101.202 85.442 101.154 85.317 101.147Z" fill="var(--sapContent_Illustrative_Color6)"/>
<path d="M92.8311 101.16H89.8858C89.8292 101.158 89.7729 101.169 89.7212 101.193C89.6696 101.216 89.624 101.251 89.588 101.295C89.552 101.338 89.5265 101.39 89.5136 101.445C89.5006 101.5 89.5005 101.558 89.5133 101.613L89.9513 104.085C89.9761 104.209 90.042 104.321 90.1383 104.404C90.2347 104.486 90.3559 104.533 90.4825 104.538H93.4277C93.4844 104.54 93.5407 104.529 93.5923 104.505C93.644 104.482 93.6896 104.447 93.7256 104.403C93.7616 104.359 93.787 104.308 93.8 104.253C93.8129 104.198 93.813 104.14 93.8003 104.085L93.3623 101.613C93.3379 101.489 93.2721 101.376 93.1757 101.294C93.0793 101.212 92.9578 101.164 92.8311 101.16V101.16Z" fill="var(--sapContent_Illustrative_Color6)"/>
<path d="M100.519 101.24H97.5738C97.5172 101.239 97.4608 101.25 97.4092 101.273C97.3576 101.297 97.312 101.331 97.276 101.375C97.24 101.419 97.2145 101.471 97.2016 101.526C97.1886 101.581 97.1885 101.638 97.2013 101.694L97.6368 104.166C97.6625 104.29 97.729 104.402 97.8256 104.484C97.9223 104.566 98.0437 104.613 98.1704 104.619H101.113C101.17 104.621 101.227 104.61 101.278 104.587C101.33 104.564 101.376 104.529 101.412 104.485C101.448 104.441 101.474 104.389 101.487 104.334C101.499 104.278 101.499 104.221 101.486 104.166L101.05 101.701C101.027 101.575 100.962 101.461 100.866 101.377C100.769 101.294 100.647 101.245 100.519 101.24V101.24Z" fill="var(--sapContent_Illustrative_Color6)"/>
<path d="M63.2249 55.5738C63.2009 56.0348 63.1429 56.4934 63.0512 56.9457C62.8272 58.0065 62.3573 58.9998 61.6792 59.8457C61.5223 60.046 61.4514 60.3004 61.4821 60.553C61.5128 60.8055 61.6425 61.0356 61.8428 61.1925C62.0431 61.3494 62.2975 61.4203 62.5501 61.3896C62.8027 61.3589 63.0327 61.2291 63.1896 61.0288C64.0511 59.9501 64.6478 58.6845 64.9316 57.3334C65.0521 56.7529 65.1253 56.1636 65.1506 55.5713L63.2249 55.5738Z" fill="var(--sapContent_Illustrative_Color6)"/>
<path d="M105.511 55.5688C105.49 56.0266 105.433 56.482 105.34 56.9307C105.117 57.982 104.652 58.9666 103.98 59.8055C103.824 60.0031 103.753 60.2546 103.783 60.5045C103.812 60.7545 103.94 60.9825 104.138 61.1384C104.335 61.2943 104.587 61.3653 104.837 61.3358C105.087 61.3063 105.315 61.1787 105.471 60.9811C106.324 59.9108 106.916 58.6556 107.197 57.3159C107.319 56.7406 107.392 56.1563 107.416 55.5688H105.511Z" fill="var(--sapContent_Illustrative_Color6)"/>
</svg>
