<svg width="160" height="160" viewBox="0 0 160 160" fill="none" xmlns="http://www.w3.org/2000/svg" id="sapIllus-Dialog-NoMail">
<rect y="50" width="160" height="69" rx="12" fill="var(--sapContent_Illustrative_Color20)"/>
<path d="M112.845 110.819L82.6967 100.776C82.6314 100.756 82.5661 100.746 82.5009 100.761L39.8093 107.292C37.8911 107.513 37.7103 108.051 38.2928 108.333L68.4963 118.607C69.6763 119.01 70.9316 119.105 72.1569 118.884L111.138 111.719C112.91 111.483 113.267 110.955 112.845 110.819Z" fill="var(--sapContent_Illustrative_Color21)"/>
<path d="M112.845 110.819L82.6967 100.776C82.6314 100.756 82.5661 100.746 82.5009 100.761L39.8093 107.292C37.8911 107.513 37.7103 108.051 38.2928 108.333L68.4963 118.607C69.6763 119.01 70.9316 119.105 72.1569 118.884L111.138 111.719C112.91 111.483 113.267 110.955 112.845 110.819Z" fill="var(--sapContent_Illustrative_Color21)"/>
<path d="M120.532 101.49C120.869 101.43 121.075 101.088 120.974 100.761L113.729 76.3991C113.729 76.3991 113.718 76.3589 113.708 76.3387L111.208 68.0472C111.208 68.0472 111.198 68.017 111.193 68.0019L110.158 64.5656L108.391 59.4991C108.356 59.4035 108.31 59.3079 108.265 59.2174C108.265 59.2174 108.265 59.2073 108.265 59.2023C108.215 59.0966 108.16 58.996 108.1 58.9004C108.085 58.8752 108.069 58.8551 108.054 58.83C107.999 58.7444 107.944 58.6639 107.879 58.5834C107.843 58.5331 107.798 58.4878 107.758 58.4425C107.708 58.3872 107.663 58.3268 107.607 58.2715C107.507 58.1658 107.397 58.0652 107.281 57.9746L83.8113 39.1929C83.8113 39.1929 83.5401 39.0017 83.1283 38.8106C82.9928 38.7451 82.8371 38.6848 82.6714 38.6294C82.1793 38.4584 81.5868 38.3527 81.0194 38.5036C80.8336 38.554 80.6478 38.6294 80.472 38.7451L69.0033 48.9838L63.0781 54.2716L59.2016 57.7331C58.6743 58.2061 58.3279 58.8501 58.2324 59.5545L57.8257 65.7932C57.8006 66.1454 57.8358 66.4926 57.9312 66.8347L67.5722 102.506L69.9071 110.063C70.0477 110.521 70.5097 110.803 70.9817 110.712L120.532 101.5V101.49Z" fill="var(--sapContent_Illustrative_Color22)"/>
<path d="M58.1826 66.2917L70.8415 110.325L120.99 100.872L109.993 63.917L58.1826 66.2917Z" fill="var(--sapContent_Illustrative_Color8)"/>
<path d="M80.9444 38.3079L59.5886 57.6229C59.1317 58.0354 58.8354 58.5838 58.735 59.2077C58.6446 59.7813 58.5442 60.4756 58.519 60.8781C58.4688 61.7334 58.1826 66.2867 58.1826 66.2867L109.993 63.912L108.266 58.8857C108.07 58.3122 107.688 57.7788 107.176 57.3663L84.2083 38.7556C84.2083 38.7556 82.3203 37.4123 80.9394 38.3079H80.9444Z" fill="var(--sapContent_Illustrative_Color8)"/>
<path d="M109.993 63.917C109.993 63.917 106.257 63.917 105.745 64.1132C104.318 64.6465 99.1113 85.803 79.5682 76.8624C77.4341 75.8864 87.1404 88.3186 85.7193 89.6771C85.0113 90.3563 84.223 90.9651 83.3744 91.4984C82.9676 91.75 82.4303 91.911 82.0487 92.1575C81.6219 92.4342 81.6922 92.5751 81.5566 93.1386C81.3658 93.9235 80.8084 94.5171 80.1908 95.0052C78.9857 95.9561 77.5094 96.58 76.1787 97.3749C74.2154 98.5522 72.247 99.6943 70.1531 100.696C69.5455 100.982 68.9379 101.269 68.3203 101.536L70.8461 110.325L120.989 100.877C120.989 100.877 110.008 63.9673 109.993 63.922V63.917Z" fill="var(--sapContent_Illustrative_Color22)"/>
<path d="M108.261 58.896C108.225 58.8004 108.18 58.7098 108.14 58.6142C108.02 58.9966 107.799 59.3236 107.387 59.545C107.045 59.7312 109.383 62.1463 108.991 62.2469C108.266 62.8706 107.387 63.1441 106.613 63.2499C103.987 63.609 69.3178 64.2238 61.2555 64.3625C59.8561 64.3866 60.1365 64.0344 60.1365 64.0344C60.1365 64.0344 59.9355 63.8023 61.4068 62.4399C64.325 59.7376 71.8144 52.9435 81.1403 42.972C80.7637 41.9457 67.206 55.2483 66.1365 54.7452C65.4134 54.4031 64.6752 53.9955 63.922 53.6987L59.5886 57.618C59.448 57.7438 59.3325 57.8746 59.222 58.0256C58.8655 58.5237 58.7048 59.0167 58.6295 59.8972C58.5793 60.2695 58.5341 60.6267 58.519 60.8783C58.4688 61.7336 58.1826 66.2869 58.1826 66.2869L109.993 63.9122L108.266 58.8859L108.261 58.896Z" fill="var(--sapContent_Illustrative_Color1)"/>
<path d="M70.8416 110.325L81.492 108.318L92.3632 84.7716C92.3632 84.7716 70.0784 70.8199 65.8956 68.9231C63.5506 67.8615 60.5629 67.2929 58.3887 66.9961L70.8315 110.325H70.8416Z" fill="var(--sapContent_Illustrative_Color11)"/>
<path d="M70.8415 110.325L81.4918 108.318L92.363 84.7712C92.363 84.7712 88.3796 81.6561 84.1968 79.7593C86.2053 85.2937 75.6604 90.8281 66.873 96.614L70.8333 110.325H70.8415Z" fill="var(--sapContent_Illustrative_Color1)"/>
<path d="M110.219 64.6872C109.425 65.1199 107.141 66.4934 106.94 68.1235C106.694 70.1058 106.854 70.7649 105.554 72.7825C104.253 74.795 96.4702 86.5229 96.4702 86.5229L114.848 102.029L120.984 100.872L110.219 64.6821V64.6872Z" fill="var(--sapContent_Illustrative_Color11)"/>
<path d="M107.171 57.3517L84.2084 38.7556C84.2084 38.7556 82.3204 37.4123 80.9395 38.3079L59.5638 57.3361C58.8971 57.938 58.5869 59.1942 58.5212 60.2292L58.3837 62.4661L80.6382 43.3743C80.6382 43.3743 82.3706 41.3115 85.3081 43.9076C88.2456 46.5038 109.565 62.6679 109.565 62.6679L108.875 60.5828L108.175 58.6045C107.958 58.0966 107.588 57.6888 107.171 57.3517Z" fill="var(--sapContent_Illustrative_Color11)"/>
<path d="M120.643 100.726C120.456 99.5115 119.537 96.7904 119.203 96.0647C119.123 95.944 119.012 95.8383 118.887 95.7679L97.6931 83.9149C91.6875 83.1703 87.6769 86.8282 87.6769 86.8282C87.6769 86.8282 73.7716 100.899 71.7654 103.014C70.3243 104.342 70.9416 105.974 71.1274 106.457C71.1877 106.608 71.2228 106.764 71.2329 106.925C71.2982 108.293 71.0672 109.189 70.6855 109.772L70.8462 110.326L120.638 100.902V100.726H120.643Z" fill="var(--sapContent_Illustrative_Color22)"/>
<path d="M120.618 100.937C120.588 100.001 118.891 97.4051 118.419 96.7008C118.338 96.58 118.238 96.4844 118.117 96.414C116.295 95.3322 101.321 86.4319 97.4445 84.2132C93.317 81.8535 91.8457 84.5301 91.8457 84.5301C91.8457 84.5301 74.3212 102.597 72.5135 104.268C71.0924 105.581 71.228 106.26 71.3485 106.492C71.4037 106.592 71.4238 106.708 71.4288 106.824C71.4791 108.222 71.0673 109.188 70.6807 109.777L70.8363 110.325L120.613 100.947H120.618V100.937Z" fill="var(--sapContent_Illustrative_Color11)"/>
</svg>