<svg width="160" height="160" viewBox="0 0 160 160" fill="none" xmlns="http://www.w3.org/2000/svg" id="sapIllus-Dialog-GroupingColumns">
<rect y="46.7466" width="160" height="69" rx="12" fill="var(--sapContent_Illustrative_Color20)"/>
<path d="M107.983 97.5488L90.0016 91.889C89.9434 91.8707 89.8852 91.8615 89.827 91.8753L35.5764 95.8073C33.6684 95.8888 33.7047 96.4979 34.2241 96.754L46.783 103.745C47.8353 104.111 48.9547 104.198 50.0473 103.997L106.461 98.3674C108.041 98.1525 108.711 97.8534 107.983 97.5488Z" fill="var(--sapContent_Illustrative_Color21)"/>
<path d="M39.3853 54.3183L50.2363 93.739C50.4685 94.5863 51.2943 95.1325 52.163 95.0206L112.547 86.7847C114.667 86.1052 115.501 83.9204 115.136 82.8624L86.7977 48.5337C86.5353 47.7854 85.8085 47.3037 85.0214 47.3553L41.5271 48.6327C40.4089 48.7015 38.1681 50.31 39.3853 54.3183Z" fill="var(--sapContent_Illustrative_Color22)"/>
<path d="M39.9527 50.8528L51.337 92.2089C51.5692 93.0561 52.395 93.6023 53.2638 93.4905L113.721 85.1771C114.83 85.0352 115.531 83.9041 115.161 82.8461L101.627 46.1822C101.364 45.4339 100.637 44.9522 99.8504 45.0038L41.544 48.6207C40.4258 48.6895 39.6559 49.769 39.9527 50.8485V50.8528Z" fill="var(--sapContent_Illustrative_Color8)"/>
<path d="M101.627 46.1822C101.364 45.4339 100.637 44.9522 99.8504 45.0038L41.544 48.6207C40.4258 48.6895 39.6559 49.769 39.9527 50.8485L41.9898 58.2871L104.283 52.8454L101.622 46.1779L101.627 46.1822Z" fill="var(--sapContent_Illustrative_Color13)"/>
<path d="M51.0317 52.6197C51.3821 54.1113 50.3109 55.4227 48.6291 55.5729C46.9272 55.7281 45.2103 54.6419 44.8049 53.1253C44.3944 51.5836 45.4906 50.2121 47.2526 50.087C48.9895 49.9618 50.6763 51.1081 51.0317 52.6197Z" fill="var(--sapContent_Illustrative_Color2)"/>
<path d="M62.3765 64.6428L49.655 65.7749C49.4854 65.791 49.3158 65.6946 49.2795 65.5582L48.7506 63.7235C48.7102 63.591 48.8192 63.4706 48.9888 63.4545L61.6862 62.3746C61.8477 62.3625 62.0132 62.4549 62.0536 62.5874L62.6026 64.3819C62.643 64.5144 62.5421 64.6308 62.3806 64.6468L62.3765 64.6428Z" fill="var(--sapContent_Illustrative_Color2)"/>
<path d="M62.1545 70.2722L51.2578 71.344C51.0882 71.3601 50.9186 71.2638 50.8783 71.1273L50.3453 69.2645C50.305 69.128 50.414 69.0035 50.5835 68.9875L61.4601 67.9598C61.6256 67.9437 61.7911 68.04 61.8315 68.1725L62.3846 69.9992C62.425 70.1316 62.324 70.2561 62.1626 70.2722H62.1545Z" fill="var(--sapContent_Illustrative_Color2)"/>
<path d="M65.719 75.6086L52.8763 76.9937C52.7068 77.0137 52.5332 76.9134 52.4928 76.7769L51.9518 74.886C51.9114 74.7495 52.0204 74.621 52.19 74.605L65.0085 73.2762C65.174 73.2601 65.3395 73.3565 65.3799 73.4889L65.9451 75.3356C65.9855 75.4721 65.8886 75.5966 65.7231 75.6126L65.719 75.6086Z" fill="var(--sapContent_Illustrative_Color2)"/>
<path d="M67.4314 81.2117L54.5282 82.7292C54.3546 82.7493 54.185 82.6529 54.1446 82.5084L53.5955 80.5894C53.5552 80.4489 53.6601 80.3205 53.8337 80.3004L66.7087 78.8391C66.8743 78.819 67.0398 78.9153 67.0802 79.0518L67.6535 80.9226C67.6938 81.0591 67.597 81.1876 67.4314 81.2077V81.2117Z" fill="var(--sapContent_Illustrative_Color2)"/>
<path d="M65.9738 87.3062L56.2035 88.5508C56.0299 88.5708 55.8563 88.4745 55.8159 88.33L55.2547 86.3829C55.2143 86.2384 55.3193 86.1059 55.4929 86.0858L65.2471 84.8855C65.4126 84.8654 65.5822 84.9617 65.6266 85.1022L66.2039 87.0132C66.2443 87.1537 66.1434 87.2862 65.9778 87.3062H65.9738Z" fill="var(--sapContent_Illustrative_Color2)"/>
<path d="M80.2981 63.0496L70.1564 63.9529C69.9989 63.9689 69.8374 63.8726 69.797 63.7441L69.2399 61.9737C69.1995 61.8452 69.2924 61.7288 69.4539 61.7167L79.5794 60.8536C79.7329 60.8416 79.8903 60.9339 79.9307 61.0583L80.504 62.7926C80.5444 62.9211 80.4555 63.0335 80.3021 63.0496H80.2981Z" fill="var(--sapContent_Illustrative_Color2)"/>
<path d="M83.7946 68.1447L71.8482 69.321C71.6907 69.3371 71.5252 69.2407 71.4848 69.1082L70.9196 67.3137C70.8792 67.1812 70.9721 67.0648 71.1335 67.0487L83.0598 65.9247C83.2132 65.9086 83.3706 66.0009 83.411 66.1294L83.9924 67.8838C84.0368 68.0122 83.948 68.1287 83.7946 68.1447Z" fill="var(--sapContent_Illustrative_Color2)"/>
<path d="M85.5631 73.4695L73.5683 74.7622C73.4068 74.7783 73.2453 74.686 73.2009 74.5495L72.6276 72.7268C72.5872 72.5944 72.6801 72.4739 72.8416 72.4539L84.8162 71.2093C84.9696 71.1933 85.1271 71.2856 85.1715 71.4181L85.761 73.1966C85.8054 73.329 85.7165 73.4455 85.5631 73.4615V73.4695Z" fill="var(--sapContent_Illustrative_Color2)"/>
<path d="M84.3881 79.221L75.3082 80.2889C75.1467 80.309 74.9812 80.2126 74.9408 80.0761L74.3594 78.2294C74.315 78.0929 74.4119 77.9685 74.5734 77.9524L83.6372 76.9247C83.7906 76.9086 83.9521 77.0009 83.9965 77.1334L84.594 78.948C84.6384 79.0805 84.5456 79.2049 84.3921 79.221H84.3881Z" fill="var(--sapContent_Illustrative_Color2)"/>
<path d="M89.172 84.351L77.0762 85.8926C76.9147 85.9127 76.7491 85.8163 76.7047 85.6798L76.1153 83.805C76.0709 83.6685 76.1678 83.5401 76.3293 83.52L88.4049 82.0306C88.5583 82.0105 88.7198 82.1028 88.7642 82.2393L89.3738 84.07C89.4182 84.2065 89.3294 84.3309 89.176 84.351H89.172Z" fill="var(--sapContent_Illustrative_Color2)"/>
<path d="M100.481 61.257L89.3338 62.2486C89.1844 62.2607 89.031 62.1724 88.9865 62.0439L88.4011 60.3337C88.3567 60.2092 88.4455 60.0968 88.5909 60.0848L99.7218 59.1373C99.8631 59.1253 100.016 59.2136 100.057 59.3381L100.654 61.0081C100.699 61.1326 100.618 61.241 100.477 61.253L100.481 61.257Z" fill="var(--sapContent_Illustrative_Color2)"/>
<path d="M98.9787 66.6518L91.1019 67.4266C90.9525 67.4426 90.7951 67.3503 90.7547 67.2218L90.1612 65.4875C90.1168 65.3591 90.2016 65.2467 90.351 65.2306L98.2157 64.4879C98.361 64.4759 98.5144 64.5642 98.5588 64.6886L99.1604 66.3948C99.2048 66.5193 99.1241 66.6317 98.9787 66.6478V66.6518Z" fill="var(--sapContent_Illustrative_Color2)"/>
<path d="M100.804 71.8266L92.8992 72.6777C92.7498 72.6937 92.5923 72.6014 92.5479 72.4729L91.9464 70.7146C91.902 70.5861 91.9867 70.4697 92.1361 70.4536L100.029 69.6346C100.174 69.6186 100.328 69.7109 100.372 69.8354L100.982 71.5656C101.026 71.6941 100.946 71.8105 100.8 71.8226L100.804 71.8266Z" fill="var(--sapContent_Illustrative_Color2)"/>
<path d="M105.992 76.68L94.7198 78.0048C94.5704 78.0209 94.4129 77.9285 94.3685 77.8001L93.7589 76.0176C93.7145 75.8891 93.7992 75.7687 93.9486 75.7526L105.201 74.476C105.346 74.4599 105.499 74.5483 105.544 74.6767L106.166 76.4191C106.21 76.5475 106.133 76.664 105.988 76.68H105.992Z" fill="var(--sapContent_Illustrative_Color2)"/>
<path d="M106.214 82.1801L96.5727 83.4086C96.4233 83.4286 96.2618 83.3363 96.2174 83.2038L95.5997 81.3973C95.5553 81.2648 95.6401 81.1444 95.7894 81.1243L105.418 79.936C105.564 79.9199 105.717 80.0082 105.766 80.1367L106.395 81.9071C106.44 82.0356 106.363 82.16 106.218 82.1761L106.214 82.1801Z" fill="var(--sapContent_Illustrative_Color2)"/>
<path d="M113.742 72.9087L70.3681 78.1212C69.4348 78.2158 68.4671 77.5793 68.2091 76.6976L61.3235 54.8627C61.074 54.0112 61.4912 52.3038 63.3448 52.0113L106.422 50.291C107.183 50.2308 108.043 50.7985 108.344 51.564L116.589 70.4056C116.039 71.7561 115.299 72.7065 113.742 72.913V72.9087Z" fill="var(--sapContent_Illustrative_Color24)"/>
<path d="M115.69 71.1117L71.1811 76.3242C70.2478 76.4188 69.2801 75.7823 69.0221 74.9007L62.287 53.6678C62.0375 52.8163 62.5837 52.068 63.5041 51.9905L107.239 48.4897C108.001 48.4295 108.861 48.9972 109.162 49.7628L116.529 69.5419C116.839 70.329 116.469 71.0343 115.699 71.1117H115.69Z" fill="var(--sapContent_Illustrative_Color25)"/>
<path fill-rule="evenodd" clip-rule="evenodd" d="M116.335 70.8363C116.285 70.8835 116.23 70.9255 116.169 70.9619C116.127 70.9868 116.083 71.0091 116.037 71.0284C115.935 71.0708 115.822 71.0993 115.699 71.1117H115.69L113.637 71.3521C113.573 70.8036 113.966 70.3069 114.514 70.2426L115.63 70.1119C115.639 70.1101 115.644 70.1083 115.648 70.1069C115.643 70.0828 115.638 70.0582 115.634 70.0334C115.629 70.0003 115.618 69.9583 115.598 69.9081L115.595 69.8996L115.285 69.0669C115.092 68.5493 115.355 67.9735 115.873 67.7807L116.529 69.5419C116.574 69.6563 116.605 69.769 116.622 69.8782C116.641 69.9982 116.643 70.114 116.631 70.2235C116.625 70.2765 116.615 70.3281 116.602 70.3779C116.584 70.4447 116.561 70.5083 116.531 70.5683C116.504 70.6239 116.472 70.6762 116.435 70.725C116.404 70.7646 116.371 70.8018 116.335 70.8363ZM111.385 71.6159C111.321 71.0674 110.824 70.6748 110.275 70.739L108.156 70.9873C107.607 71.0515 107.215 71.5482 107.279 72.0968L111.385 71.6159ZM105.026 72.3606C104.962 71.812 104.465 71.4194 103.917 71.4837L101.797 71.7319C101.249 71.7961 100.856 72.2929 100.92 72.8414L105.026 72.3606ZM98.6679 73.1052C98.6037 72.5567 98.1069 72.1641 97.5584 72.2283L95.4389 72.4765C94.8904 72.5408 94.4978 73.0375 94.562 73.5861L98.6679 73.1052ZM92.3095 73.8499C92.2452 73.3013 91.7485 72.9087 91.1999 72.973L89.0804 73.2212C88.5319 73.2854 88.1393 73.7822 88.2035 74.3307L92.3095 73.8499ZM85.951 74.5945C85.8867 74.046 85.39 73.6534 84.8415 73.7176L82.722 73.9658C82.1734 74.0301 81.7808 74.5268 81.8451 75.0754L85.951 74.5945ZM79.5925 75.3392C79.5283 74.7906 79.0315 74.398 78.483 74.4623L76.3635 74.7105C75.815 74.7747 75.4224 75.2715 75.4866 75.82L79.5925 75.3392ZM73.234 76.0838C73.1698 75.5353 72.7151 75.2069 72.1245 75.2069C71.5143 75.2069 70.7489 75.284 70.2014 75.4565C70.2698 74.9461 69.9233 74.2037 69.6946 73.7136C69.4522 73.1941 68.9655 72.8958 68.4391 73.0628L69.0221 74.9007C69.0657 75.0497 69.1296 75.1918 69.2102 75.3245C69.2964 75.4665 69.4018 75.5978 69.5219 75.7155C69.6047 75.7967 69.6945 75.8714 69.7899 75.9387C69.8333 75.9693 69.8778 75.9984 69.9233 76.0258C70.0228 76.0858 70.1272 76.1381 70.2349 76.1817C70.3901 76.2444 70.5523 76.2892 70.7174 76.3132C70.8706 76.3355 71.0263 76.3399 71.1811 76.3242L73.234 76.0838ZM67.9213 71.4304C68.4477 71.2634 68.7391 70.7013 68.5721 70.1748L68.0108 68.4054C67.8439 67.879 67.2817 67.5876 66.7553 67.7546L67.9213 71.4304ZM66.2375 66.1222C66.7639 65.9552 67.0553 65.393 66.8883 64.8666L66.3271 63.0972C66.1601 62.5708 65.598 62.2794 65.0715 62.4464L66.2375 66.1222ZM64.5537 60.8139C65.0801 60.647 65.3715 60.0848 65.2046 59.5584L64.6433 57.789C64.4763 57.2626 63.9142 56.9712 63.3877 57.1382L64.5537 60.8139ZM62.8699 55.5057C63.3964 55.3388 63.6878 54.7766 63.5208 54.2502L63.2443 53.3786C63.2313 53.3316 63.2269 53.2932 63.2266 53.2633C63.2259 53.1957 63.2186 53.1298 63.2051 53.0661C63.2805 53.059 63.3562 53.0432 63.4311 53.018C63.4724 53.0041 63.5238 52.9925 63.5863 52.9872L64.6252 52.904C65.1757 52.8599 65.5863 52.3779 65.5422 51.8274L63.5041 51.9905C63.3644 52.0023 63.2334 52.0295 63.1125 52.0701C62.9457 52.1262 62.7981 52.2078 62.6736 52.3099C62.656 52.3243 62.6388 52.3391 62.6221 52.3544C62.5081 52.4585 62.4161 52.581 62.3496 52.7171C62.3392 52.7384 62.3295 52.76 62.3204 52.7819C62.2576 52.9327 62.2249 53.0983 62.2266 53.2731C62.2279 53.4006 62.2474 53.5329 62.287 53.6678L62.8699 55.5057ZM67.7138 51.6536C67.7579 52.2041 68.2399 52.6147 68.7904 52.5706L70.8731 52.4039C71.4236 52.3598 71.8342 51.8778 71.7901 51.3273L67.7138 51.6536ZM73.9617 51.1535C74.0058 51.704 74.4878 52.1145 75.0383 52.0705L77.121 51.9038C77.6715 51.8597 78.082 51.3777 78.038 50.8272L73.9617 51.1535ZM80.2096 50.6533C80.2537 51.2039 80.7357 51.6144 81.2862 51.5704L83.3688 51.4037C83.9194 51.3596 84.3299 50.8776 84.2859 50.3271L80.2096 50.6533ZM86.4575 50.1532C86.5016 50.7037 86.9836 51.1143 87.5341 51.0702L89.6167 50.9035C90.1672 50.8595 90.5778 50.3775 90.5337 49.8269L86.4575 50.1532ZM92.7054 49.6531C92.7494 50.2036 93.2314 50.6142 93.782 50.5701L95.8646 50.4034C96.4151 50.3594 96.8257 49.8773 96.7816 49.3268L92.7054 49.6531ZM98.9533 49.153C98.9973 49.7035 99.4793 50.1141 100.03 50.07L102.112 49.9033C102.663 49.8592 103.074 49.3772 103.03 48.8267L98.9533 49.153ZM105.201 48.6529C105.245 49.2034 105.687 49.54 106.278 49.5699C106.792 49.5699 107.487 49.627 107.972 49.4594C107.998 49.9237 108.273 50.4814 108.532 50.9359C108.792 51.4502 109.3 51.7168 109.818 51.524L109.162 49.7628C109.112 49.6367 109.047 49.516 108.97 49.4026C108.877 49.2651 108.766 49.1383 108.642 49.0256C108.611 48.998 108.58 48.9712 108.548 48.9453C108.448 48.8641 108.342 48.7917 108.23 48.7298C108.194 48.7096 108.157 48.6905 108.12 48.6726C107.967 48.5985 107.807 48.5443 107.646 48.5138C107.51 48.488 107.373 48.4792 107.239 48.4897L105.201 48.6529ZM110.348 52.9463C109.83 53.1391 109.567 53.7149 109.759 54.2325L110.373 55.8807C110.566 56.3983 111.142 56.6616 111.66 56.4688L110.348 52.9463ZM112.189 57.8911C111.672 58.0839 111.409 58.6597 111.601 59.1773L112.215 60.8255C112.408 61.3431 112.984 61.6064 113.501 61.4136L112.189 57.8911ZM115.343 66.3584L114.031 62.8359C113.514 63.0287 113.25 63.6045 113.443 64.1221L114.057 65.7703C114.25 66.2879 114.826 66.5512 115.343 66.3584Z" fill="var(--sapContent_Illustrative_Color11)"/>
<path d="M81.206 57.9757L70.3477 58.9789C70.1865 58.9945 70.0202 58.8905 69.9786 58.7502L69.3705 56.8426C69.3237 56.7023 69.4172 56.5775 69.5784 56.5619L80.4159 55.5899C80.5719 55.5743 80.733 55.6783 80.7798 55.8134L81.4035 57.695C81.4503 57.8354 81.362 57.9549 81.206 57.9705V57.9757Z" fill="var(--sapContent_Illustrative_Color14)"/>
<path d="M84.8862 63.4932L72.193 64.7614C72.0319 64.777 71.8655 64.6731 71.8188 64.5327L71.2054 62.5991C71.1586 62.4588 71.2522 62.3289 71.4133 62.3133L84.0858 61.0866C84.2417 61.071 84.4028 61.1697 84.4496 61.3101L85.0838 63.2125C85.1305 63.3528 85.0422 63.4776 84.8862 63.4932Z" fill="var(--sapContent_Illustrative_Color14)"/>
<path d="M86.8044 69.2616L74.054 70.6287C73.8929 70.6443 73.7265 70.5455 73.6797 70.4L73.056 68.4404C73.0092 68.2949 73.1028 68.1649 73.2639 68.1493L85.9935 66.8239C86.1495 66.8083 86.3158 66.907 86.3626 67.0474L87.0071 68.9758C87.0539 69.1161 86.9655 69.2461 86.8096 69.2616H86.8044Z" fill="var(--sapContent_Illustrative_Color14)"/>
<path d="M105.016 55.6384L93.1129 56.7403C92.9622 56.7559 92.801 56.6572 92.7542 56.522L92.1097 54.6768C92.0629 54.5417 92.1461 54.4221 92.2968 54.4065L104.179 53.341C104.325 53.3254 104.481 53.4241 104.527 53.5593L105.188 55.3733C105.234 55.5085 105.156 55.628 105.011 55.6384H105.016Z" fill="var(--sapContent_Illustrative_Color14)"/>
<path d="M103.634 61.4811L95.0624 62.3335C94.9117 62.3491 94.7505 62.2503 94.7038 62.11L94.054 60.2388C94.0073 60.1037 94.0904 59.9789 94.2412 59.9633L102.797 59.1369C102.942 59.1213 103.104 59.22 103.15 59.3552L103.816 61.2004C103.862 61.3355 103.784 61.4603 103.639 61.4707L103.634 61.4811Z" fill="var(--sapContent_Illustrative_Color14)"/>
<path d="M105.64 67.0816L97.0321 68.0016C96.8814 68.0172 96.7202 67.9184 96.6683 67.7781L96.0081 65.8809C95.9614 65.7406 96.0445 65.6158 96.1953 65.6002L104.787 64.7062C104.933 64.6906 105.094 64.7894 105.146 64.9245L105.817 66.7957C105.869 66.9309 105.785 67.0556 105.64 67.0764V67.0816Z" fill="var(--sapContent_Illustrative_Color14)"/>
<path d="M126.191 61.8537L112.25 61.6421C110.995 61.9632 110.072 63.0248 110.513 64.3383L114.767 75.8746C115.362 77.3303 116.511 77.9396 117.77 77.79L131.726 75.8563C133.371 75.6374 134.181 73.9482 133.707 72.58L128.719 63.189C128.373 62.3572 127.242 61.7625 126.191 61.8537Z" fill="var(--sapContent_Illustrative_Color22)"/>
<path d="M126.72 60.3603L112.677 61.5935C111.524 61.6956 110.849 62.4873 111.178 63.3703L115.501 74.9321C116.147 76.2346 117.092 76.4973 118.267 76.3404L132.543 74.4322C133.612 74.29 134.174 73.4581 133.806 72.5825L129.249 61.6956C128.902 60.8638 127.771 60.2691 126.72 60.3603Z" fill="var(--sapContent_Illustrative_Color13)"/>
<path d="M126.147 73.1611C126.063 73.1721 125.976 73.1757 125.892 73.1611C125.684 73.1319 125.48 73.0444 125.334 72.9057L122.813 70.578L120.875 72.114C120.682 72.2673 120.383 72.311 120.091 72.2344C119.795 72.1578 119.562 71.9681 119.474 71.7455L116.453 63.8978C116.366 63.6679 116.461 63.4454 116.683 63.325C116.906 63.2046 117.238 63.1973 117.522 63.3177L127.311 67.4295C127.585 67.5462 127.778 67.7542 127.811 67.9804C127.847 68.2066 127.716 68.3999 127.468 68.4875L125.038 69.3704L127.453 71.5923C127.753 71.8696 127.749 72.2527 127.439 72.4424L126.45 73.0553C126.362 73.1064 126.26 73.1429 126.147 73.1575V73.1611ZM118.467 64.9777L120.594 70.443L122.616 68.8669C122.67 68.8304 122.732 68.7903 122.794 68.7684L125.345 67.8636L118.467 64.9777Z" fill="var(--sapContent_Illustrative_Color8)"/>
</svg>