<svg width="320" height="240" viewBox="0 0 320 240" fill="none" xmlns="http://www.w3.org/2000/svg" id="sapIllus-Scene-BeforeSearch">
<rect y="48" width="320" height="138" rx="24" fill="var(--sapContent_Illustrative_Color20)"/>
<path d="M152.517 191.034C194.224 191.034 228.034 157.224 228.034 115.517C228.034 73.8102 194.224 40 152.517 40C110.81 40 77 73.8102 77 115.517C77 157.224 110.81 191.034 152.517 191.034Z" fill="var(--sapContent_Illustrative_Color2)"/>
<path d="M147.803 104.964C146.061 104.964 144.216 105.17 142.475 105.375C141.655 105.477 140.835 105.579 140.016 105.682C138.992 105.579 137.864 105.272 136.941 104.964C135.609 104.452 134.277 104.145 132.945 104.043C131.511 104.043 129.667 104.657 129.052 107.628C128.847 108.243 128.847 108.858 129.052 109.473C129.155 110.088 129.359 110.601 129.769 111.112C130.589 112.137 132.023 112.547 133.97 112.547C135.098 112.547 136.224 112.444 137.351 112.24C137.864 112.24 138.377 112.137 138.888 112.035C139.503 112.035 139.811 112.342 140.528 112.957C141.552 113.982 142.782 114.801 144.114 115.212H144.524C146.778 116.236 149.135 116.748 151.594 116.953C152.311 116.953 153.028 116.953 153.745 116.646C154.464 116.44 155.078 116.031 155.59 115.519C156.103 114.904 156.41 114.084 156.615 113.367C156.82 112.547 156.718 111.727 156.615 111.01C156 107.014 153.132 105.067 147.906 105.067L147.803 104.964Z" fill="var(--sapContent_Illustrative_Color17)"/>
<path d="M192.862 138.366C190.085 138.366 187.307 138.878 184.735 139.698C183.808 140.006 182.883 140.21 181.956 140.313C181.339 140.313 180.722 140.108 180.208 139.698C179.179 138.878 178.459 137.752 178.047 136.522C177.121 134.473 175.887 131.809 171.873 131.809H171.051C169.405 131.809 167.656 131.501 166.112 130.886C164.569 130.271 163.129 129.349 161.997 128.119C161.379 127.505 160.762 126.993 159.939 126.685C159.116 126.378 158.293 126.173 157.47 126.173C156.133 126.173 154.898 126.48 153.663 126.89C152.737 127.198 151.811 127.402 150.782 127.402C149.444 127.402 148.107 126.89 146.872 126.275C145.74 125.558 144.712 124.636 143.992 123.406C143.683 122.791 142.963 121.357 141.523 121.357C140.081 121.357 139.361 122.279 137.818 124.431C137.613 124.84 137.407 125.148 137.201 125.455C136.892 125.968 136.584 126.48 136.172 126.89C135.349 126.173 134.526 125.353 133.909 124.431C133.394 123.816 132.982 123.099 132.469 122.484C129.793 118.897 127.838 116.233 125.781 115.209C125.061 114.901 124.443 114.594 123.723 114.39C122.283 113.979 121.254 113.569 120.739 112.443C120.534 111.93 120.431 111.417 120.431 110.803C120.225 108.446 119.607 106.295 114.258 106.295C108.907 106.295 111.273 105.885 110.965 105.27C110.553 104.348 111.171 102.606 112.92 100.044C114.258 97.8921 115.8 96.9697 117.344 96.9697C118.887 96.9697 120.019 97.6878 121.459 99.1219C123.723 101.376 125.883 102.401 128.045 102.401C128.97 102.401 129.896 102.196 130.719 101.786C131.542 101.376 132.262 100.864 132.88 100.146C135.246 97.8921 136.378 95.4334 137.613 90.8226C138.848 86.0064 140.905 80.473 146.77 79.4484C148.107 79.2434 149.444 79.0385 150.576 78.936C155.721 78.2187 159.837 77.7065 161.791 74.6325C164.672 70.3289 166.112 63.3612 160.557 57.9305C157.675 54.8565 153.56 53.0121 149.342 52.8072C147.387 52.8072 145.432 53.3196 143.58 54.2418C141.831 55.1639 140.288 56.3935 139.053 57.9305C136.069 61.4144 133.806 63.7711 132.057 63.7711C131.028 63.6686 130.102 63.0538 129.382 62.2341C128.867 61.6193 128.558 61.0045 128.353 60.2872C128.147 59.5699 128.147 58.7502 128.353 58.0329C128.456 57.1108 128.867 56.291 129.382 55.5738C129.896 54.8565 130.617 54.2418 131.44 53.9343C132.982 53.3195 134.526 53.1146 136.172 53.217C139.259 53.217 142.86 53.1146 145.227 49.1184C146.461 47.0692 146.77 45.3272 146.152 43.7902C145.74 43.0729 145.227 42.3557 144.609 41.8434C143.992 41.331 143.168 40.9212 142.345 40.7162H141.933C129.382 42.4582 117.447 47.3765 107.261 54.9589C97.0754 62.5415 88.9158 73.106 83.803 84.1618C83.7001 84.4692 80.0991 91.7439 81.2309 96.458C81.951 98.8145 83.2886 100.967 85.3462 102.503C87.3011 104.04 89.7704 104.859 92.2397 104.963C96.458 104.963 99.236 105.987 101.294 110.906C103.557 116.439 108.907 119.922 112.92 121.255C113.435 121.459 114.052 121.561 114.566 121.767C117.242 122.484 119.504 123.099 121.151 127.3C121.666 128.837 122.694 130.271 124.031 131.194C125.369 132.116 127.118 132.526 128.765 132.424H131.234C132.16 132.424 133.497 132.526 133.909 133.243C134.114 133.652 134.424 134.984 132.262 138.674C127.633 146.768 128.765 150.458 131.13 155.068C132.469 157.835 134.424 160.191 136.892 161.934C139.361 163.777 142.243 165.007 145.227 165.52C145.844 165.52 146.461 165.827 147.078 166.135C147.592 166.442 148.107 166.954 148.416 167.569C149.651 170.029 148.416 174.229 146.77 177.406C146.049 178.943 145.123 180.275 144.095 181.607C143.065 183.041 142.243 184.066 142.243 185.603C142.345 187.448 142.626 188.169 143.243 189.911L143.431 190.575C146.209 190.986 151.814 191.317 156.376 190.975L159.911 190.731L156.824 188.989C156.824 188.989 155.178 188.067 155.309 185.603C155.309 182.017 157.573 183.246 164.054 183.246H166.626C167.758 183.246 168.788 182.632 169.61 181.812L170.125 181.197C172.491 178.328 178.047 171.463 180.516 169.926C181.546 169.209 182.78 168.696 184.015 168.491C186.072 167.979 188.027 166.954 189.57 165.417C190.29 164.7 190.907 163.881 191.319 162.958C191.731 162.036 191.937 161.011 191.937 159.987C191.937 158.757 192.245 157.527 192.966 156.503C193.789 155.376 194.921 154.453 196.258 153.736C197.904 152.712 199.962 151.482 200.888 148.715C202.225 145.026 202.431 142.67 201.197 140.928C199.962 139.186 197.493 138.366 193.171 138.366H192.862Z" fill="var(--sapContent_Illustrative_Color17)"/>
<path d="M155.488 49.5682C156.922 49.978 158.46 50.183 159.997 50.183C160.918 50.183 161.533 50.183 161.841 50.3879C162.148 50.9002 162.456 51.4125 162.558 51.9249C163.07 53.3593 163.685 55.1012 165.427 55.921C166.862 56.5358 168.398 56.7408 169.936 56.7408C171.268 56.7408 174.752 56.5358 176.699 54.6914C180.695 50.9002 174.771 43.8184 174.566 43.511L174.338 43.2259C167.267 41.0019 159.17 39.8045 150.16 40.039L150.365 41.1661C150.468 41.8832 151.697 48.3386 155.488 49.5682Z" fill="var(--sapContent_Illustrative_Color17)"/>
<path d="M219.938 98.6132C222.193 94.2066 221.988 89.4936 219.119 84.9849C213.893 76.3779 201.187 70.6398 192.683 70.6398C184.178 70.6398 183.768 72.7915 182.642 76.5828C181.617 79.6567 181.31 83.0381 181.925 86.2147C182.436 89.4936 183.768 92.465 185.817 95.129C190.634 101.585 199.036 105.888 206.823 105.888C214.61 105.888 217.48 103.326 219.938 98.6132Z" fill="var(--sapContent_Illustrative_Color17)"/>
<path d="M155.871 132.184C164.846 118.989 179.554 116.691 185.787 117.19L197.752 126.186C207.325 148.978 197.45 172.121 191.218 180.368C167.096 194.453 143.945 192.286 129.403 187.439C129.403 179.192 144.653 148.678 155.871 132.184Z" fill="var(--sapContent_Illustrative_Color14)"/>
<path d="M173.01 130.786C166.862 131.606 161.904 128.588 160.368 126.88C150.73 136.46 140.633 157.17 138.413 162.976C139.233 163.386 141.074 163.746 141.758 164.088C147.086 164.497 148.419 166.991 148.419 168.186C156.616 170.646 172.526 170.046 179.527 169.363C180.04 168.851 181.821 167.571 184.281 167.161C187.355 166.649 191.454 163.063 191.454 158.451C191.454 154.763 195.894 152.134 198.114 151.28C199.651 149.059 202.315 143.696 200.676 140.008C199.036 136.319 191.112 137.105 187.355 137.959C185.306 140.862 180.797 145.132 179.158 138.983C177.518 132.835 174.376 130.957 173.01 130.786Z" fill="var(--sapContent_Illustrative_Color17)"/>
<path d="M173.01 130.786C166.862 131.606 161.904 128.588 160.368 126.88C150.73 136.46 140.633 157.17 138.413 162.976C139.233 163.386 141.074 163.746 141.758 164.088C147.086 164.497 148.419 166.991 148.419 168.186C156.616 170.646 172.526 170.046 179.527 169.363C180.04 168.851 181.821 167.571 184.281 167.161C187.355 166.649 191.454 163.063 191.454 158.451C191.454 154.763 195.894 152.134 198.114 151.28C199.651 149.059 202.315 143.696 200.676 140.008C199.036 136.319 191.112 137.105 187.355 137.959C185.306 140.862 180.797 145.132 179.158 138.983C177.518 132.835 174.376 130.957 173.01 130.786Z" fill="var(--sapContent_Illustrative_Color22)"/>
<path d="M210.083 80.601C210.19 80.601 210.401 80.707 210.508 80.813C210.401 80.813 210.19 80.707 210.083 80.601Z" fill="var(--sapContent_Illustrative_Color25)"/>
<path d="M211.355 81.1332C211.355 81.1332 211.568 81.1332 211.674 81.2395C211.674 81.2395 211.461 81.2395 211.355 81.1332Z" fill="var(--sapContent_Illustrative_Color25)"/>
<path d="M208.707 80.073C208.918 80.073 209.024 80.1789 209.236 80.2849C209.024 80.2849 208.918 80.1789 208.707 80.073Z" fill="var(--sapContent_Illustrative_Color25)"/>
<path d="M124.379 158.085C90.7124 143.32 80.077 111.454 79.9062 94.718C70.7824 124.37 82.4154 170.959 127.921 186.925C167.438 200.792 199.027 178.845 212.203 161.778C165.581 174.074 153.581 170.894 124.379 158.085Z" fill="var(--sapContent_Illustrative_Color13)"/>
<path d="M203.252 81.6405C203.457 81.6405 203.764 81.6405 203.97 81.743C203.764 81.743 203.457 81.743 203.252 81.6405Z" fill="var(--sapContent_Illustrative_Color25)"/>
<path fill-rule="evenodd" clip-rule="evenodd" d="M138.01 163.774C133.01 174.148 129.397 183.434 129.392 187.455C133.164 188.693 136.891 189.593 140.554 190.195C144.238 190.792 148.206 191.149 152.396 191.152C167.28 191.124 180.669 186.509 191.213 180.383C193.607 177.213 196.537 171.846 198.696 165.147C169.672 171.781 156.055 170.577 138.01 163.774Z" fill="var(--sapContent_Illustrative_Color14)"/>
<path d="M169.519 180.227L180.134 167.895C163.184 169.46 155.143 168.027 148.373 166.46C148.462 166.529 148.979 167.817 148.58 170.32C148.081 173.449 143.595 181.27 142.598 182.834C141.8 184.086 143.046 188.321 143.711 190.407C147.762 190.987 155.142 191.219 159.413 190.639C159.413 190.639 156.556 189.091 155.559 187.528C151.798 181.626 157.055 181.792 162.539 182.313C166.926 182.73 169.02 181.096 169.519 180.227Z" fill="var(--sapContent_Illustrative_Color13)"/>
<path d="M169.515 180.227L180.13 167.895C163.18 169.46 155.139 168.027 148.37 166.46C148.458 166.529 148.975 167.817 148.576 170.32C148.077 173.449 143.591 181.27 142.594 182.834C141.796 184.086 143.042 188.321 143.707 190.407C147.758 190.987 155.138 191.219 159.41 190.639C159.41 190.639 156.552 189.091 155.556 187.527C151.795 181.625 157.051 181.792 162.535 182.313C166.922 182.73 169.016 181.096 169.515 180.227Z" fill="var(--sapContent_Illustrative_Color22)"/>
<path d="M220.344 128.238C220.027 127.708 218.862 125.589 216.849 125.377C215.259 125.271 213.989 126.225 212.187 128.449C207.526 134.276 207.314 135.759 208.585 139.573C208.797 140.209 209.221 140.738 209.75 141.163C210.281 141.481 210.916 141.692 211.551 141.692C213.882 141.692 216.425 140.103 217.061 139.679C217.484 139.361 217.802 139.043 218.12 138.725C221.405 135.335 220.557 129.826 220.239 128.238H220.344Z" fill="var(--sapContent_Illustrative_Color17)"/>
<path d="M242.271 108.823C244.644 118.747 240.735 128.966 235.853 136.262C231.461 142.818 224.052 147.437 214.35 148.597C192.952 151.15 170.049 135.911 164.275 115.262C158.501 94.6133 171.183 74.9577 191.503 74.0202C211.023 73.1198 235.723 90.5366 242.271 108.823Z" fill="var(--sapContent_Illustrative_Color16)"/>
<path d="M240.84 103.729C247.649 122.737 237.377 140.61 216.884 143.059C195.486 145.612 172.583 130.372 166.809 109.724C161.035 89.0749 174.045 73.6687 194.371 72.7312C213.892 71.8308 234.298 85.4485 240.847 103.729H240.84Z" fill="var(--sapContent_Illustrative_Color15)"/>
<path d="M236.274 104.099C242.116 120.634 233.059 136.052 215.292 138.081C196.843 140.185 177.13 127.066 172.069 109.304C167.187 92.171 178.121 77.9735 195.765 77.0793C212.801 76.222 230.631 88.119 236.281 104.099H236.274Z" fill="var(--sapContent_Illustrative_Color25)"/>
<path d="M240.592 196.444L228.921 199.54L210.379 140.548L221.313 139.278L240.592 196.444Z" fill="var(--sapContent_Illustrative_Color15)"/>
<path d="M171.455 95.9886L195.585 77.0916C182.91 77.8008 173.735 85.3868 171.455 95.9886Z" fill="var(--sapContent_Illustrative_Color25)"/>
<path d="M215.292 138.081C230.965 136.293 239.855 124.087 237.724 109.884L199.116 136.256C204.351 137.995 209.877 138.698 215.292 138.081Z" fill="var(--sapContent_Illustrative_Color8)"/>
<path d="M217.256 82.4202L217.243 82.4141L217.256 82.4202Z" fill="var(--sapContent_Illustrative_Color25)"/>
<path d="M195.759 77.079C196.26 77.0545 196.756 77.0422 197.258 77.0361C196.756 77.0361 196.26 77.0545 195.759 77.079Z" fill="var(--sapContent_Illustrative_Color25)"/>
<path d="M211.971 79.9101C212.126 79.9718 212.281 80.0334 212.43 80.0951C212.275 80.0334 212.126 79.9718 211.971 79.9101Z" fill="var(--sapContent_Illustrative_Color25)"/>
<path d="M213.377 80.4899C213.483 80.5392 213.588 80.5885 213.693 80.6317C213.588 80.5824 213.483 80.533 213.377 80.4899Z" fill="var(--sapContent_Illustrative_Color25)"/>
<path d="M210.546 79.3735C210.72 79.4352 210.899 79.4969 211.073 79.5647C210.899 79.4969 210.726 79.4352 210.546 79.3735Z" fill="var(--sapContent_Illustrative_Color25)"/>
<path d="M200.907 77.2026C201.192 77.2271 201.477 77.2578 201.768 77.2945C201.483 77.2639 201.198 77.2332 200.907 77.2026Z" fill="var(--sapContent_Illustrative_Color25)"/>
<path d="M199.364 77.0916C199.662 77.1099 199.965 77.1222 200.262 77.1467C199.965 77.1222 199.662 77.1038 199.364 77.0916Z" fill="var(--sapContent_Illustrative_Color25)"/>
<path d="M202.425 77.3752C202.703 77.412 202.988 77.4549 203.267 77.4979C202.988 77.4549 202.71 77.412 202.425 77.3752Z" fill="var(--sapContent_Illustrative_Color25)"/>
<path d="M197.76 77.0422C198.094 77.0422 198.423 77.0484 198.757 77.0606C198.423 77.0484 198.088 77.0422 197.76 77.0422Z" fill="var(--sapContent_Illustrative_Color25)"/>
<path d="M237.997 112.45C237.08 94.0829 219.356 79.3921 201.762 77.2026C195.641 76.6414 184.88 76.6414 177.068 85.0969C176.188 86.0467 175.364 87.1569 174.596 88.3287C174.466 88.526 174.392 88.6617 174.274 88.8529C174.255 88.8776 174.249 88.9084 174.231 88.9393C183.492 77.8317 198.299 77.1224 211.383 82.3031C224.925 87.6626 236.621 99.3376 237.997 112.462V112.45Z" fill="var(--sapContent_Illustrative_Color16)"/>
<path d="M192.686 79.3613L171.455 95.9887C170.582 100.059 170.718 104.568 172.069 109.304C172.18 109.699 172.304 110.087 172.434 110.476L213.514 83.2097C206.786 80.2062 199.5 78.7137 192.686 79.3613Z" fill="var(--sapContent_Illustrative_Color8)"/>
<path d="M205.931 142.88L212.293 146.636C212.293 146.636 210.968 143.361 215.329 142.911V142.843C213.582 143.108 210.063 143.46 205.931 142.874V142.88Z" fill="var(--sapContent_Illustrative_Color16)"/>
<path d="M219.95 142.257C220.836 142.294 222.385 142.948 223.122 144.829L224.175 141.412C224.175 141.412 223.203 141.881 219.95 142.251V142.257Z" fill="var(--sapContent_Illustrative_Color16)"/>
<path d="M228.921 199.54L211.538 144.298L212.708 143.126C212.708 143.126 214.932 142.997 217.46 142.491C217.46 142.491 216.587 143.472 216.841 144.829C217.857 150.157 234.385 198.504 234.385 198.504L228.915 199.54H228.921Z" fill="var(--sapContent_Illustrative_Color16)"/>
<path d="M240.592 196.444C240.592 197.085 237.582 198.152 232.657 199.417C230.222 199.904 229.026 199.842 228.921 199.54C228.847 199.324 230.179 198.492 232.595 197.714C236.213 196.586 240.184 195.951 240.592 196.444Z" fill="var(--sapContent_Illustrative_Color16)"/>
</svg>
