<svg width="320" height="240" viewBox="0 0 320 240" fill="none" xmlns="http://www.w3.org/2000/svg" id="sapIllus-Scene-BalloonSky">
<mask id="mask0_11_137" style="mask-type:alpha" maskUnits="userSpaceOnUse" x="0" y="20" width="320" height="200">
<path d="M305.547 20H14.4533C12.5559 19.9983 10.6768 20.3705 8.92329 21.0954C7.16981 21.8203 5.57638 22.8836 4.23409 24.2247C2.8918 25.5657 1.82697 27.1582 1.10045 28.911C0.373942 30.6638 -8.08861e-07 32.5426 0 34.44V205.547C0 209.38 1.52275 213.056 4.23328 215.767C6.9438 218.477 10.6201 220 14.4533 220H305.547C309.38 220 313.056 218.477 315.767 215.767C318.477 213.056 320 209.38 320 205.547V34.44C320 32.5426 319.626 30.6638 318.9 28.911C318.173 27.1582 317.108 25.5657 315.766 24.2247C314.424 22.8836 312.83 21.8203 311.077 21.0954C309.323 20.3705 307.444 19.9983 305.547 20V20Z" style="fill:var(--sapContent_Illustrative_Color7)"/>
</mask>
<g mask="url(#mask0_11_137)">
<mask id="mask1_11_137" style="mask-type:alpha" maskUnits="userSpaceOnUse" x="0" y="20" width="320" height="200">
<path d="M305.547 20H14.4533C12.5559 19.9983 10.6768 20.3705 8.92329 21.0954C7.16981 21.8203 5.57638 22.8836 4.23409 24.2247C2.8918 25.5657 1.82697 27.1582 1.10045 28.911C0.373942 30.6638 -8.08861e-07 32.5426 0 34.44V205.547C0 209.38 1.52275 213.056 4.23328 215.767C6.9438 218.477 10.6201 220 14.4533 220H305.547C309.38 220 313.056 218.477 315.767 215.767C318.477 213.056 320 209.38 320 205.547V34.44C320 32.5426 319.626 30.6638 318.9 28.911C318.173 27.1582 317.108 25.5657 315.766 24.2247C314.424 22.8836 312.83 21.8203 311.077 21.0954C309.323 20.3705 307.444 19.9983 305.547 20V20Z" style="fill:var(--sapContent_Illustrative_Color7)"/>
</mask>
<g mask="url(#mask1_11_137)">
<path d="M305.547 20H14.4533C12.5559 19.9983 10.6768 20.3705 8.92329 21.0954C7.16981 21.8203 5.57638 22.8836 4.23409 24.2247C2.8918 25.5657 1.82697 27.1582 1.10045 28.911C0.373942 30.6638 -8.08861e-07 32.5426 0 34.44V205.547C0 209.38 1.52275 213.056 4.23328 215.767C6.9438 218.477 10.6201 220 14.4533 220H305.547C309.38 220 313.056 218.477 315.767 215.767C318.477 213.056 320 209.38 320 205.547V34.44C320 32.5426 319.626 30.6638 318.9 28.911C318.173 27.1582 317.108 25.5657 315.766 24.2247C314.424 22.8836 312.83 21.8203 311.077 21.0954C309.323 20.3705 307.444 19.9983 305.547 20V20Z" style="fill:var(--sapContent_Illustrative_Color7)"/>
<path d="M314.227 135.764C282.794 132.922 251.467 137.336 220.327 141.258C199.179 143.922 177.987 146.199 156.846 148.939C135.487 151.707 114.128 154.541 92.6914 156.675C82.0144 157.736 71.3237 158.655 60.6111 159.283C50.1589 159.895 39.5203 158.867 29.0982 158.087C19.4163 157.361 9.70966 156.595 0.00854492 156.293V220.392H320V136.269C318.081 136.101 316.16 135.94 314.23 135.764H314.227Z" style="fill:var(--sapContent_Illustrative_Color18)"/>
<path d="M61.4825 160.759C62.1925 160.893 39.7722 166.827 35.6083 167.71C40.8467 169.265 101.548 174.513 126.383 172.113C139.314 170.862 151.748 168.27 164.352 165.241C174.527 162.794 184.963 160.954 194.721 157.086C186.465 157.209 169.193 158.817 169.785 158.537C184.135 151.712 200.286 149.841 215.267 144.789C220.105 143.159 224.932 141.475 229.834 140.054C226.665 140.454 223.496 140.858 220.327 141.258C199.179 143.922 177.986 146.199 156.846 148.939C135.487 151.707 114.127 154.54 92.6911 156.674C82.0141 157.736 71.3234 158.655 60.6108 159.283C56.7731 159.508 52.908 159.508 49.0402 159.385C53.2095 159.615 57.3652 159.98 61.4852 160.759H61.4825Z" style="fill:var(--sapContent_Illustrative_Color18)"/>
<g style="mix-blend-mode:multiply" opacity="0.4">
<path d="M314.227 135.764C290.083 133.583 266.004 135.681 242.026 138.548C242.816 138.556 243.6 138.542 244.392 138.559C252.915 138.748 262.618 138.625 270.713 141.664C272.511 142.339 275.549 143.631 275.379 146.042C275.105 149.948 269.559 152.667 266.585 153.962C259.184 157.187 250.944 159.143 243.079 160.858C233.378 162.97 223.447 164.627 213.565 165.642C195.407 167.507 176.819 167.186 159.017 171.578C172.268 172.724 199.73 174.11 198.863 174.143C190.001 174.497 181.303 176.151 172.619 177.854C189.247 179.459 205.936 180.227 222.493 182.556C231.725 183.853 240.853 185.485 250.006 187.244C254.348 188.075 258.751 188.536 263.068 189.49C267.037 190.368 272.158 191.345 274.992 194.551C276.464 196.219 276.237 198.469 274.406 199.725C271.547 201.692 267.651 202.136 264.296 202.523C259.976 203.019 255.623 203.203 251.278 203.244C234.483 203.404 217.745 203.897 201.013 201.958C180.709 199.607 160.281 197.347 140.539 191.88C130.27 189.038 120.098 185.779 109.717 183.36C99.4647 180.973 89.0975 179.113 78.6727 177.681C67.8888 176.2 56.9678 174.776 46.0907 174.208C35.5947 173.66 13.7089 172.76 14.4106 172.532C20.6907 170.483 27.1243 169.065 33.6347 168.045C29.257 167.949 24.8491 168.533 20.4632 168.585C19.7423 168.593 31.3266 164.942 36.9022 164.07C26.9407 161.777 11.4337 168.366 5.84985 157.473C5.66071 157.102 5.81696 156.721 6.17331 156.551C4.11741 156.45 2.05877 156.356 0.00012207 156.29V220.389H319.992V136.268C318.073 136.101 316.151 135.939 314.222 135.764H314.227Z" style="fill:var(--sapContent_Illustrative_Color18)"/>
</g>
</g>
<ellipse cx="294.667" cy="40.6667" rx="2.66666" ry="2.66667" style="fill:var(--sapContent_Illustrative_Color10)"/>
<circle cx="170" cy="46.6667" r="2" style="fill:var(--sapContent_Illustrative_Color10)"/>
<ellipse cx="104" cy="88.6667" rx="1.33334" ry="1.33333" style="fill:var(--sapContent_Illustrative_Color10)"/>
<ellipse cx="257.333" cy="44.6667" rx="1.33334" ry="1.33333" style="fill:var(--sapContent_Illustrative_Color10)"/>
<ellipse cx="305.333" cy="78" rx="1.33333" ry="1.33334" style="fill:var(--sapContent_Illustrative_Color10)"/>
<ellipse cx="45.3333" cy="59.3333" rx="1.33333" ry="1.33333" style="fill:var(--sapContent_Illustrative_Color10)"/>
<ellipse cx="104.667" cy="28" rx="2" ry="2" style="fill:var(--sapContent_Illustrative_Color10)"/>
<circle cx="30" cy="92" r="2" style="fill:var(--sapContent_Illustrative_Color10)"/>
<path d="M88.0122 144.846V214.478H95.6429C95.8949 214.482 96.1355 214.584 96.3124 214.764C96.4894 214.943 96.5886 215.186 96.5886 215.438V173.5C96.6154 173.323 96.6787 173.153 96.7745 173.001C96.8704 172.849 96.9969 172.719 97.1457 172.618L109.946 166.249V144.846C109.946 144.591 109.844 144.347 109.665 144.167C109.485 143.987 109.241 143.886 108.987 143.886H88.9709C88.845 143.886 88.7203 143.911 88.604 143.959C88.4877 144.007 88.3821 144.078 88.2931 144.167C88.2041 144.256 88.1333 144.362 88.0851 144.478C88.0369 144.595 88.0122 144.72 88.0122 144.846V144.846Z" style="fill:var(--sapContent_Illustrative_Color20)"/>
<path d="M74.6682 223.637V110.407C74.6683 110.199 74.6016 109.998 74.4778 109.832C74.354 109.666 74.1801 109.544 73.9817 109.486L59.1479 105.166L28.2107 96.1765C28.0694 96.134 27.9202 96.1253 27.7749 96.1509C27.6296 96.1765 27.4922 96.2357 27.3738 96.3239C27.2555 96.4122 27.1594 96.5269 27.0933 96.659C27.0272 96.7911 26.9929 96.9369 26.993 97.0846C26.993 99.5493 26.993 104.751 26.993 104.945V110.861H32.3046C34.1372 110.864 35.8936 111.595 37.1882 112.894C38.4828 114.193 39.2097 115.953 39.2097 117.788C39.1994 118.118 39.1692 118.447 39.1191 118.773H41.9305C43.7652 118.773 45.5248 119.503 46.8222 120.802C48.1196 122.101 48.8485 123.863 48.8485 125.7C48.8485 127.537 48.1196 129.299 46.8222 130.598C45.5248 131.897 43.7652 132.627 41.9305 132.627H27.006V187.433C27.0165 187.502 27.0165 187.572 27.006 187.641C26.9627 187.867 26.8383 188.07 26.6562 188.211L7.22333 202.117C7.17743 202.153 7.13978 202.198 7.11294 202.249C7.0861 202.301 7.07072 202.357 7.06787 202.415V223.663C7.07186 223.727 7.09331 223.789 7.12986 223.841C7.16641 223.894 7.21669 223.936 7.2752 223.961C7.33062 223.974 7.38821 223.974 7.44362 223.961H74.3573C74.4371 223.948 74.5105 223.909 74.5665 223.851C74.6225 223.793 74.6582 223.718 74.6682 223.637V223.637Z" style="fill:var(--sapContent_Illustrative_Color20)"/>
<path d="M95.6301 214.478H83.2448C82.9905 214.478 82.7468 214.579 82.567 214.76C82.3872 214.94 82.2861 215.184 82.2861 215.438V224.026H96.5369V215.438C96.5372 215.192 96.4434 214.956 96.2747 214.777C96.106 214.599 95.8753 214.492 95.6301 214.478V214.478Z" style="fill:var(--sapContent_Illustrative_Color20)"/>
<path d="M127.888 157.312L109.932 166.25L97.1327 172.619C96.9839 172.72 96.8575 172.85 96.7616 173.002C96.6657 173.153 96.6024 173.323 96.5756 173.501V224.091H82.3248V215.504C82.3248 215.249 82.4259 215.005 82.6057 214.825C82.7855 214.645 83.0292 214.544 83.2835 214.544H88.0122V144.911C88.0122 144.657 88.1133 144.413 88.2931 144.233C88.4729 144.053 88.7166 143.952 88.9709 143.952H103.947V91.9347V77.7177V59.2978C103.924 58.9388 103.762 58.6029 103.496 58.3609C103.23 58.1189 102.881 57.9898 102.522 58.0006H60.3269C59.42 58.0006 59.1609 58.5195 59.1609 59.2978V105.101L73.9947 109.421C74.1931 109.479 74.3671 109.601 74.4908 109.767C74.6146 109.933 74.6813 110.135 74.6812 110.342V223.572C74.6779 223.67 74.6368 223.762 74.5667 223.83C74.4966 223.898 74.4031 223.935 74.3056 223.935H128.99V158.143C129.013 158.002 128.997 157.858 128.945 157.726C128.892 157.594 128.804 157.479 128.69 157.393C128.577 157.308 128.442 157.255 128.301 157.241C128.159 157.226 128.017 157.251 127.888 157.312V157.312ZM113.728 193.024C113.728 193.086 113.716 193.148 113.692 193.205C113.667 193.263 113.632 193.315 113.587 193.359C113.543 193.402 113.49 193.436 113.431 193.459C113.373 193.482 113.311 193.492 113.249 193.491H103.727C103.602 193.491 103.482 193.442 103.392 193.355C103.303 193.267 103.251 193.149 103.248 193.024V183.477C103.248 182.085 103.8 180.75 104.782 179.766C105.765 178.782 107.098 178.229 108.488 178.229C109.878 178.229 111.211 178.782 112.193 179.766C113.176 180.75 113.728 182.085 113.728 183.477V193.024Z" style="fill:var(--sapContent_Illustrative_Color19)"/>
<path d="M108.495 178.222C107.125 178.239 105.817 178.791 104.849 179.76C103.881 180.73 103.329 182.04 103.312 183.41V192.958C103.316 193.083 103.368 193.202 103.457 193.289C103.547 193.376 103.667 193.425 103.792 193.425H113.314C113.376 193.426 113.438 193.416 113.496 193.393C113.554 193.37 113.607 193.336 113.652 193.293C113.697 193.249 113.732 193.197 113.757 193.139C113.781 193.082 113.793 193.02 113.793 192.958V183.41C113.776 182.019 113.209 180.692 112.215 179.719C111.222 178.746 109.884 178.208 108.495 178.222V178.222Z" style="fill:var(--sapContent_Illustrative_Color18)"/>
<path d="M48.8616 125.714C48.8616 123.877 48.1326 122.115 46.8352 120.816C45.5379 119.517 43.7781 118.788 41.9434 118.788H39.1322C39.1822 118.461 39.2124 118.132 39.2228 117.802C39.2228 115.967 38.4958 114.207 37.2012 112.908C35.9066 111.609 34.1502 110.878 32.3177 110.875H9.91805C8.08326 110.875 6.32371 111.604 5.02631 112.903C3.72892 114.203 3 115.964 3 117.802C3 119.639 3.72892 121.401 5.02631 122.7C6.32371 123.999 8.08326 124.729 9.91805 124.729H12.7294C12.6686 125.054 12.634 125.384 12.6258 125.714C12.6258 127.552 13.3546 129.313 14.652 130.613C15.9494 131.912 17.7091 132.641 19.5439 132.641H41.9434C43.7781 132.641 45.5379 131.912 46.8352 130.613C48.1326 129.313 48.8616 127.552 48.8616 125.714Z" style="fill:var(--sapContent_Illustrative_Color19)"/>
<path d="M16.733 58.5036C16.0693 61.7677 10.5904 65.0905 9.65688 65.5693C9.58096 65.5883 9.50193 65.5913 9.42478 65.5782C9.34762 65.5651 9.27403 65.5361 9.20864 65.4931C7.31994 62.9602 4.79152 59.7853 5.38337 56.2209C5.97522 52.6565 9.11508 50.4587 12.3463 51.1158C15.5776 51.773 17.4532 54.9653 16.733 58.5036Z" style="fill:var(--sapContent_Illustrative_Color3)"/>
<path d="M6.39944 54.9762C6.36133 54.9765 6.32381 54.9667 6.29065 54.9479C6.24088 54.9192 6.20448 54.872 6.18939 54.8166C6.17431 54.7611 6.18177 54.7019 6.21014 54.652C6.30611 54.4818 6.41447 54.3189 6.53435 54.1645C6.55231 54.1422 6.5745 54.1236 6.59967 54.1099C6.62483 54.0961 6.65246 54.0875 6.68097 54.0844C6.70948 54.0814 6.73831 54.084 6.7658 54.0922C6.79329 54.1003 6.8189 54.1138 6.84116 54.1319C6.86335 54.15 6.88175 54.1723 6.8953 54.1976C6.90884 54.2228 6.91728 54.2505 6.92011 54.279C6.92294 54.3075 6.92011 54.3363 6.91179 54.3637C6.90347 54.3911 6.88982 54.4166 6.87162 54.4387C6.76757 54.5772 6.67306 54.7226 6.58875 54.8739C6.56877 54.9059 6.54081 54.9322 6.50762 54.9501C6.47444 54.968 6.43716 54.977 6.39944 54.9762V54.9762Z" style="fill:var(--sapContent_Illustrative_Color15)"/>
<path d="M5.68578 79C5.66154 78.9997 5.6377 78.9937 5.61615 78.9826C5.59927 78.9735 5.58436 78.9611 5.57226 78.9462C5.56016 78.9313 5.55112 78.9142 5.54566 78.8958C5.54021 78.8774 5.53844 78.8581 5.54045 78.839C5.54247 78.8199 5.54823 78.8014 5.55741 78.7846C5.65097 78.6083 5.67926 78.469 5.63791 78.3885C5.59657 78.308 5.56176 78.3211 5.47472 78.2884C5.34306 78.2538 5.23043 78.1686 5.16139 78.0512C5.13236 77.9862 5.11828 77.9155 5.12016 77.8444C5.12204 77.7732 5.13985 77.7033 5.17227 77.6399C5.21377 77.5232 5.24151 77.4019 5.25495 77.2787C5.26606 77.1788 5.25869 77.0778 5.23319 76.9806C5.20764 76.8849 5.19808 76.7856 5.20491 76.6868C5.22231 76.4409 5.22449 76.2103 5.22667 75.9665C5.22884 75.7228 5.22666 75.5096 5.24189 75.2267C5.30475 74.5607 5.4094 73.8993 5.55523 73.2465C5.61666 73.0185 5.65744 72.7854 5.67708 72.5501C5.62703 71.8799 6.39949 70.9442 6.96305 70.2587C7.11887 70.0863 7.2642 69.9046 7.39823 69.7147C8.01275 68.6787 8.57343 67.6118 9.07805 66.5181C9.09455 66.4832 9.1242 66.4563 9.16049 66.4432C9.19679 66.4302 9.23678 66.432 9.27171 66.4484C9.28889 66.4564 9.30434 66.4676 9.31715 66.4816C9.32996 66.4955 9.33989 66.5119 9.34636 66.5297C9.35283 66.5475 9.35572 66.5664 9.35486 66.5853C9.354 66.6042 9.3494 66.6228 9.34134 66.6399C8.83322 67.7435 8.26817 68.8199 7.64846 69.8648C7.51049 70.0671 7.36083 70.2611 7.20022 70.4459C6.69759 71.0552 5.93819 71.9691 5.97953 72.5305C5.96325 72.7985 5.91876 73.064 5.8468 73.3226C5.70847 73.9552 5.60748 74.5953 5.54435 75.2397C5.53129 75.5161 5.52912 75.7468 5.52912 75.9687C5.52912 76.1907 5.52912 76.4518 5.50736 76.7086C5.50118 76.7818 5.50856 76.8556 5.52912 76.9262C5.56063 77.0535 5.56947 77.1854 5.55523 77.3157C5.54153 77.4642 5.50937 77.6104 5.45949 77.7509C5.42032 77.8684 5.41162 77.9011 5.4312 77.9381C5.45079 77.9751 5.50301 78.0034 5.58787 78.0338C5.71243 78.067 5.82116 78.1433 5.89467 78.2492C5.93798 78.3589 5.9533 78.4775 5.93924 78.5946C5.92518 78.7116 5.8822 78.8232 5.81416 78.9195C5.8022 78.9434 5.7839 78.9635 5.76126 78.9777C5.73862 78.9919 5.71251 78.9996 5.68578 79V79Z" style="fill:var(--sapContent_Illustrative_Color6)"/>
<path d="M9.20865 65.4866L8.55587 66.357C8.5433 66.3742 8.53535 66.3943 8.53277 66.4154C8.5302 66.4365 8.5331 66.4579 8.54118 66.4776C8.54926 66.4972 8.56226 66.5145 8.57894 66.5277C8.59561 66.5409 8.61539 66.5496 8.63638 66.5529L9.81574 66.7705C9.83645 66.7736 9.85762 66.7714 9.87727 66.7642C9.89691 66.7569 9.9144 66.7448 9.92809 66.7289C9.94177 66.713 9.95122 66.694 9.95554 66.6735C9.95987 66.653 9.95893 66.6317 9.95282 66.6117L9.65036 65.5519" style="fill:var(--sapContent_Illustrative_Color3)"/>
<path d="M289.191 61.6667H263.923C262.898 61.6667 261.882 61.865 260.935 62.2503C259.988 62.6355 259.127 63.2003 258.402 63.9122C257.676 64.6241 257.101 65.4693 256.709 66.3994C256.316 67.3296 256.114 68.3265 256.114 69.3333C256.114 70.3401 256.316 71.3371 256.709 72.2672C257.101 73.1974 257.676 74.0426 258.402 74.7545C259.127 75.4664 259.988 76.0311 260.935 76.4164C261.882 76.8017 262.898 77 263.923 77H289.191C291.262 77 293.248 76.1923 294.713 74.7545C296.177 73.3167 297 71.3667 297 69.3333C297 67.3 296.177 65.35 294.713 63.9122C293.248 62.4744 291.262 61.6667 289.191 61.6667V61.6667Z" style="fill:var(--sapContent_Illustrative_Color18)"/>
<path d="M276.076 54H250.809C249.784 54 248.768 54.1983 247.821 54.5836C246.873 54.9689 246.012 55.5336 245.287 56.2455C244.562 56.9574 243.987 57.8026 243.594 58.7328C243.202 59.6629 243 60.6599 243 61.6667C243 62.6735 243.202 63.6704 243.594 64.6006C243.987 65.5307 244.562 66.3759 245.287 67.0878C246.012 67.7997 246.873 68.3645 247.821 68.7497C248.768 69.135 249.784 69.3333 250.809 69.3333H276.076C278.148 69.3333 280.134 68.5256 281.598 67.0878C283.063 65.65 283.886 63.7 283.886 61.6667C283.886 59.6333 283.063 57.6833 281.598 56.2455C280.134 54.8077 278.148 54 276.076 54V54Z" style="fill:var(--sapContent_Illustrative_Color18)"/>
<path d="M137.511 146.787C137.404 146.756 137.313 146.683 137.26 146.584C137.206 146.486 137.194 146.37 137.226 146.263C137.391 145.7 137.379 145.285 137.21 145.086C137.041 144.887 136.95 144.931 136.674 144.928C136.276 144.907 135.902 144.733 135.631 144.442C135.508 144.273 135.425 144.079 135.387 143.874C135.349 143.668 135.358 143.457 135.412 143.255C135.462 142.896 135.467 142.532 135.426 142.172C135.399 141.88 135.316 141.595 135.183 141.333C135.052 141.087 134.962 140.82 134.918 140.544C134.827 139.849 134.923 139.141 135.195 138.495C134.657 137.87 134.292 137.116 134.135 136.306C133.921 135.007 134.424 133.663 134.945 132.281C134.987 132.138 135.028 132 135.066 131.87C135.312 131.324 135.46 130.74 135.504 130.144C135.532 129.577 135.459 129.009 135.287 128.467C134.629 126.241 135.844 122.193 136.813 119.338L136.844 119.234C137.969 115.894 138.918 112.498 139.687 109.058C139.694 108.998 139.713 108.94 139.744 108.888C139.774 108.837 139.816 108.792 139.865 108.757C139.914 108.722 139.97 108.698 140.029 108.686C140.088 108.674 140.149 108.675 140.208 108.688C140.267 108.701 140.322 108.727 140.371 108.763C140.419 108.799 140.459 108.845 140.488 108.898C140.518 108.951 140.536 109.009 140.541 109.069C140.546 109.129 140.539 109.19 140.519 109.247C139.742 112.715 138.785 116.139 137.651 119.507L137.644 119.534C136.203 123.77 135.694 126.654 136.118 128.108C136.329 128.751 136.419 129.428 136.382 130.104C136.338 130.791 136.171 131.463 135.889 132.091C135.851 132.222 135.812 132.352 135.772 132.49C135.257 133.851 134.811 135.049 134.997 136.105C135.095 136.651 135.318 137.166 135.647 137.612C136.01 137.059 136.558 136.654 137.192 136.468C138.018 136.271 139.106 136.507 139.43 137.241C139.508 137.447 139.539 137.669 139.52 137.888C139.501 138.108 139.432 138.32 139.319 138.509C139.193 138.802 139 139.061 138.756 139.266C138.512 139.472 138.223 139.617 137.913 139.69C137.602 139.764 137.279 139.764 136.969 139.69C136.659 139.617 136.37 139.471 136.126 139.266L135.898 139.1C135.774 139.498 135.737 139.919 135.79 140.333C135.814 140.536 135.877 140.733 135.975 140.913C136.147 141.257 136.254 141.631 136.289 142.015C136.336 142.439 136.331 142.867 136.276 143.29C136.235 143.647 136.234 143.746 136.312 143.84C136.391 143.935 136.555 143.983 136.819 144.025C137.219 144.043 137.596 144.216 137.871 144.506C138.065 144.792 138.183 145.121 138.215 145.465C138.246 145.809 138.19 146.155 138.052 146.471C138.021 146.579 137.947 146.67 137.849 146.725C137.75 146.78 137.634 146.793 137.526 146.763L137.511 146.787ZM136.239 138.305C136.351 138.407 136.47 138.502 136.596 138.588C136.906 138.835 137.3 138.952 137.694 138.911C137.88 138.85 138.051 138.752 138.197 138.623C138.344 138.494 138.463 138.337 138.548 138.161C138.648 137.998 138.683 137.802 138.645 137.614C138.48 137.46 138.278 137.352 138.058 137.302C137.837 137.252 137.608 137.262 137.393 137.33C136.895 137.492 136.481 137.841 136.239 138.305V138.305Z" style="fill:var(--sapContent_Illustrative_Color6)"/>
<path d="M166.938 85.7617C163.686 95.9023 145.062 104.539 141.951 105.739C141.703 105.772 141.451 105.752 141.211 105.681C140.972 105.611 140.749 105.491 140.559 105.329C135.441 96.6083 128.519 85.622 131.654 74.5021C134.79 63.3822 145.549 57.4938 155.571 60.7107C165.593 63.9277 170.48 74.7332 166.938 85.7617Z" style="fill:var(--sapContent_Illustrative_Color3)"/>
<path d="M140.561 105.322L138.194 107.879C138.147 107.929 138.114 107.991 138.098 108.058C138.082 108.125 138.084 108.194 138.103 108.26C138.123 108.326 138.159 108.386 138.208 108.434C138.258 108.481 138.319 108.516 138.385 108.532L142.066 109.617C142.131 109.635 142.199 109.635 142.264 109.619C142.33 109.603 142.39 109.57 142.439 109.524C142.488 109.478 142.525 109.42 142.545 109.356C142.566 109.292 142.57 109.224 142.556 109.158L141.975 105.682" style="fill:var(--sapContent_Illustrative_Color3)"/>
<path d="M138.122 67.3843C138.062 67.3651 138.006 67.3365 137.955 67.2995C137.913 67.262 137.879 67.2165 137.854 67.1656C137.83 67.1148 137.815 67.0596 137.812 67.0032C137.809 66.9468 137.817 66.8903 137.836 66.837C137.854 66.7837 137.883 66.7347 137.921 66.6926C139.528 64.9899 141.459 63.6263 143.601 62.6821C143.652 62.6497 143.709 62.6283 143.768 62.6194C143.828 62.6105 143.889 62.6143 143.947 62.6305C144.005 62.6467 144.059 62.6749 144.106 62.7134C144.152 62.7519 144.19 62.7997 144.217 62.8538C144.243 62.9078 144.258 62.9669 144.261 63.0272C144.263 63.0875 144.253 63.1476 144.23 63.2036C144.208 63.2596 144.174 63.3102 144.131 63.3522C144.087 63.3942 144.036 63.4267 143.979 63.4474C141.935 64.3483 140.09 65.6478 138.554 67.2699C138.5 67.328 138.431 67.3697 138.355 67.3899C138.278 67.4102 138.198 67.4082 138.122 67.3843Z" style="fill:var(--sapContent_Illustrative_Color15)"/>
<path d="M135.284 70.6262L135.146 70.5857C135.101 70.5532 135.062 70.5118 135.032 70.464C135.003 70.4162 134.983 70.363 134.974 70.3074C134.965 70.2519 134.968 70.1952 134.981 70.1406C134.994 70.086 135.019 70.0347 135.052 69.9895C135.411 69.496 135.803 69.0276 136.226 68.5874C136.306 68.5085 136.415 68.4649 136.528 68.4662C136.641 68.4675 136.749 68.5136 136.828 68.5943C136.906 68.675 136.95 68.7838 136.949 68.8967C136.947 69.0096 136.901 69.1173 136.821 69.1963C136.426 69.5992 136.061 70.0308 135.73 70.4876C135.675 70.5499 135.605 70.5959 135.526 70.6204C135.448 70.6449 135.364 70.6469 135.284 70.6262V70.6262Z" style="fill:var(--sapContent_Illustrative_Color15)"/>
<path d="M212.485 151.086C209.86 156.041 199.43 158.799 197.695 159.128C197.563 159.123 197.434 159.09 197.315 159.032C197.197 158.974 197.092 158.892 197.007 158.792C195.162 153.802 192.59 147.471 195.243 141.997C197.895 136.522 204.012 134.468 208.918 137.067C213.823 139.666 215.333 145.714 212.485 151.086Z" style="fill:var(--sapContent_Illustrative_Color3)"/>
<path d="M197.476 140.47C197.415 140.453 197.359 140.419 197.314 140.373C197.247 140.303 197.211 140.209 197.213 140.113C197.215 140.016 197.255 139.924 197.325 139.857C197.561 139.628 197.814 139.416 198.081 139.224C198.12 139.196 198.165 139.177 198.212 139.167C198.259 139.156 198.308 139.156 198.356 139.164C198.403 139.173 198.448 139.191 198.489 139.217C198.529 139.243 198.564 139.277 198.592 139.317C198.619 139.357 198.638 139.402 198.648 139.449C198.658 139.496 198.658 139.545 198.649 139.592C198.64 139.64 198.622 139.685 198.595 139.725C198.569 139.765 198.535 139.8 198.495 139.827C198.261 140.001 198.039 140.191 197.831 140.395C197.783 140.438 197.726 140.467 197.664 140.48C197.601 140.493 197.537 140.49 197.476 140.47V140.47Z" style="fill:var(--sapContent_Illustrative_Color15)"/>
<path d="M197.01 158.781L195.542 159.876C195.513 159.898 195.491 159.927 195.476 159.959C195.462 159.992 195.457 160.028 195.46 160.064C195.464 160.099 195.477 160.133 195.498 160.163C195.518 160.192 195.546 160.215 195.578 160.231L197.379 161.144C197.411 161.158 197.447 161.165 197.482 161.163C197.517 161.16 197.551 161.149 197.581 161.13C197.61 161.111 197.635 161.084 197.651 161.053C197.668 161.022 197.677 160.988 197.676 160.952L197.692 159.097" style="fill:var(--sapContent_Illustrative_Color3)"/>
<path d="M105.04 43.631C102.653 48.136 93.1714 50.6434 91.5938 50.9423C91.4741 50.9373 91.3567 50.9076 91.2491 50.855C91.1415 50.8024 91.046 50.728 90.9686 50.6365C89.2919 46.1006 86.9537 40.3453 89.365 35.3685C91.7764 30.3916 97.3371 28.5236 101.797 30.8867C106.256 33.2498 107.628 38.7481 105.04 43.631Z" style="fill:var(--sapContent_Illustrative_Color1)"/>
<path d="M91.3956 33.9809C91.3395 33.9648 91.2886 33.9342 91.2481 33.8923C91.1874 33.8286 91.1544 33.7435 91.1563 33.6556C91.1581 33.5676 91.1947 33.484 91.2579 33.4229C91.4725 33.2146 91.7021 33.0223 91.9448 32.8476C91.9809 32.8226 92.0215 32.8049 92.0644 32.7956C92.1073 32.7863 92.1516 32.7856 92.1948 32.7934C92.2379 32.8013 92.2791 32.8177 92.316 32.8415C92.3528 32.8654 92.3845 32.8963 92.4094 32.9325C92.4341 32.9687 92.4515 33.0094 92.4605 33.0523C92.4694 33.0952 92.4698 33.1395 92.4617 33.1826C92.4535 33.2256 92.4369 33.2667 92.4128 33.3033C92.3887 33.34 92.3577 33.3715 92.3214 33.3961C92.1087 33.5544 91.907 33.727 91.7177 33.9126C91.6746 33.951 91.6222 33.9774 91.5657 33.9894C91.5092 34.0013 91.4506 33.9984 91.3956 33.9809V33.9809Z" style="fill:var(--sapContent_Illustrative_Color16)"/>
<path d="M79.952 68.9418C79.9165 68.9308 79.8841 68.9117 79.8573 68.8861C79.8364 68.8654 79.8199 68.8408 79.8086 68.8137C79.7973 68.7866 79.7914 68.7575 79.7914 68.7282C79.7913 68.6988 79.7971 68.6697 79.8083 68.6425C79.8195 68.6154 79.836 68.5907 79.8567 68.57C80.0704 68.3517 80.1722 68.1595 80.1463 68.0234C80.1204 67.8873 80.0637 67.8914 79.95 67.8058C79.7717 67.698 79.6433 67.5241 79.5927 67.322C79.5782 67.214 79.5881 67.1041 79.6217 67.0004C79.6552 66.8967 79.7116 66.8019 79.7866 66.7229C79.8981 66.5694 79.9913 66.4034 80.0643 66.2283C80.1238 66.0865 80.1567 65.935 80.1614 65.7812C80.1653 65.6297 80.1942 65.4798 80.247 65.3377C80.3789 64.9842 80.4819 64.6465 80.5906 64.2897C80.6993 63.9328 80.7883 63.6188 80.9331 63.21C81.3136 62.2595 81.7534 61.3338 82.25 60.4384C82.4389 60.1303 82.5996 59.8058 82.7302 59.4688C82.9468 58.4632 84.4858 57.4237 85.6097 56.6613C85.9131 56.4755 86.2051 56.2717 86.4841 56.0509C87.8345 54.7959 89.1194 53.4721 90.3335 52.0847C90.3728 52.0407 90.428 52.014 90.4869 52.0106C90.5459 52.0071 90.6038 52.0272 90.648 52.0663C90.6697 52.0854 90.6875 52.1086 90.7003 52.1347C90.7131 52.1607 90.7206 52.189 90.7224 52.2179C90.7242 52.2468 90.7203 52.2759 90.7108 52.3033C90.7013 52.3307 90.6866 52.3559 90.6673 52.3776C89.4438 53.7778 88.1484 55.1136 86.7865 56.3796C86.4964 56.6168 86.1927 56.8369 85.877 57.0386C84.8754 57.7157 83.365 58.7288 83.1828 59.571C83.0429 59.9573 82.8627 60.3278 82.6451 60.6764C82.1683 61.5452 81.743 62.4413 81.3715 63.3601C81.2327 63.7602 81.1297 64.0979 81.0337 64.4237C80.9376 64.7496 80.8246 65.133 80.6816 65.5005C80.6408 65.6054 80.6197 65.7169 80.6194 65.8294C80.6105 66.0299 80.5665 66.2274 80.4891 66.4126C80.4048 66.6247 80.2943 66.8254 80.1603 67.0101C80.0519 67.1657 80.025 67.2098 80.0378 67.2726C80.0505 67.3354 80.1149 67.3995 80.2263 67.481C80.3948 67.5836 80.5214 67.7427 80.5835 67.93C80.5997 68.1097 80.5708 68.2905 80.4995 68.4562C80.4283 68.622 80.3168 68.7673 80.1753 68.8791C80.1474 68.9091 80.1118 68.9307 80.0724 68.9418C80.033 68.9528 79.9914 68.9528 79.952 68.9418V68.9418Z" style="fill:var(--sapContent_Illustrative_Color6)"/>
<path d="M90.9715 50.627L89.6365 51.6224C89.6106 51.6421 89.5902 51.6682 89.5773 51.6981C89.5644 51.7279 89.5594 51.7606 89.5628 51.793C89.5661 51.8253 89.5778 51.8563 89.5965 51.8829C89.6153 51.9095 89.6406 51.9308 89.6699 51.9448L91.3072 52.7746C91.3363 52.7881 91.3683 52.7941 91.4003 52.7919C91.4323 52.7897 91.4632 52.7795 91.4902 52.7621C91.5171 52.7447 91.5392 52.7208 91.5545 52.6926C91.5697 52.6644 91.5775 52.6328 91.5772 52.6007L91.5917 50.914" style="fill:var(--sapContent_Illustrative_Color1)"/>
<path d="M248.04 89.631C245.653 94.136 236.171 96.6434 234.594 96.9423C234.474 96.9373 234.357 96.9076 234.249 96.855C234.142 96.8024 234.046 96.728 233.969 96.6365C232.292 92.1006 229.954 86.3453 232.365 81.3685C234.776 76.3916 240.337 74.5236 244.797 76.8867C249.256 79.2498 250.628 84.7481 248.04 89.631Z" style="fill:var(--sapContent_Illustrative_Color1)"/>
<path d="M234.396 79.9809C234.339 79.9648 234.289 79.9342 234.248 79.8923C234.187 79.8286 234.154 79.7435 234.156 79.6556C234.158 79.5676 234.195 79.484 234.258 79.4229C234.472 79.2146 234.702 79.0223 234.945 78.8476C234.981 78.8226 235.022 78.8049 235.064 78.7956C235.107 78.7863 235.152 78.7856 235.195 78.7934C235.238 78.8013 235.279 78.8177 235.316 78.8415C235.353 78.8654 235.385 78.8963 235.409 78.9325C235.434 78.9686 235.452 79.0094 235.46 79.0523C235.469 79.0952 235.47 79.1395 235.462 79.1826C235.453 79.2256 235.437 79.2667 235.413 79.3033C235.389 79.34 235.358 79.3715 235.321 79.3961C235.109 79.5544 234.907 79.727 234.718 79.9126C234.675 79.951 234.622 79.9774 234.566 79.9894C234.509 80.0013 234.451 79.9984 234.396 79.9809V79.9809Z" style="fill:var(--sapContent_Illustrative_Color16)"/>
<path d="M233.972 96.627L232.637 97.6224C232.611 97.6421 232.59 97.6682 232.577 97.6981C232.564 97.7279 232.559 97.7606 232.563 97.793C232.566 97.8253 232.578 97.8563 232.597 97.8829C232.615 97.9095 232.641 97.9308 232.67 97.9448L234.307 98.7746C234.336 98.7881 234.368 98.7941 234.4 98.7919C234.432 98.7897 234.463 98.7795 234.49 98.7621C234.517 98.7447 234.539 98.7208 234.554 98.6926C234.57 98.6644 234.578 98.6328 234.577 98.6007L234.592 96.914" style="fill:var(--sapContent_Illustrative_Color1)"/>
</g>
</svg>
