<svg width="45" height="45" viewBox="0 0 45 45" fill="none" xmlns="http://www.w3.org/2000/svg" id="sapIllus-Dot-FilteringColumns">
<path d="M44.399 34.9575L43.2777 34.4397L24.0814 32.6785C24.0814 32.6785 13.089 31.5291 10.1076 31.3675C6.4088 31.1664 2.73642 31.0625 2.5138 31.8425C2.29118 32.6224 4.74658 33.7916 10.9931 36.1876C15.6846 37.9884 20.4898 38.4171 22.0861 37.7707L31.5564 34.9789L44.4007 34.9575H44.399Z" fill="var(--sapContent_Illustrative_Color21)"/>
<path d="M23.5955 8.23351L31.0817 29.7356C31.2413 30.5567 30.3728 31.1838 29.8615 31.2275L6.44326 34.5496C6.04415 34.5838 5.67925 34.3196 5.58802 33.9281L0.0308834 10.6433C-0.166771 9.68549 0.629549 8.53759 1.13319 8.51479L22.7859 7.65956C23.1546 7.64246 23.4891 7.87812 23.5955 8.23351Z" fill="var(--sapContent_Illustrative_Color14)"/>
<path d="M24.2112 7.57672L31.0474 29.5502C31.1956 30.0424 30.8554 30.546 30.3423 30.5897L7.05892 33.8928C6.65981 33.927 6.29491 33.6628 6.20368 33.2713L0.532511 9.50572C0.416579 9.01349 0.777679 8.53837 1.28322 8.51366L23.4015 7.00087C23.7702 6.98377 24.1047 7.21943 24.2112 7.57482V7.57672Z" fill="var(--sapContent_Illustrative_Color2)"/>
<path d="M21.6088 12.3379L5.96597 13.5709C5.76369 13.5901 5.57105 13.4842 5.54215 13.3493L5.27245 12.1935C5.24355 12.0586 5.3784 11.9334 5.58068 11.9141L21.1561 10.7775C21.3391 10.7679 21.5125 10.8642 21.551 10.9894L21.8689 12.0779C21.9074 12.2127 21.7918 12.3283 21.6088 12.3476V12.3379Z" fill="var(--sapContent_Illustrative_Color8)"/>
<path d="M20.8147 19.9915L7.79506 21.334C7.59279 21.3533 7.39051 21.257 7.36161 21.1029L7.07264 19.8892C7.03412 19.7447 7.1786 19.6099 7.38088 19.5906L20.3331 18.354C20.5161 18.3347 20.6991 18.431 20.7376 18.5755L21.0747 19.7218C21.1133 19.8566 20.9977 19.9722 20.8147 19.9915Z" fill="var(--sapContent_Illustrative_Color8)"/>
<path d="M23.0203 27.7704L9.72239 29.5219C9.51048 29.5508 9.3082 29.4448 9.26967 29.2907L8.97107 28C8.93254 27.8459 9.07702 27.7014 9.28893 27.6725L22.5098 26.0366C22.6928 26.0174 22.8855 26.1137 22.924 26.2582L23.2804 27.4622C23.3189 27.6067 23.2033 27.7512 23.0203 27.7704Z" fill="var(--sapContent_Illustrative_Color8)"/>
<path d="M15.6208 16.5707L6.87098 17.3949C6.6687 17.4141 6.47606 17.3082 6.43753 17.1637L6.15819 15.9789C6.12929 15.8344 6.26415 15.7092 6.46642 15.69L15.1681 14.9429C15.3511 14.9236 15.5341 15.0199 15.5726 15.1644L15.8905 16.2914C15.929 16.4262 15.8134 16.5515 15.6208 16.5707Z" fill="var(--sapContent_Illustrative_Color8)"/>
<path d="M17.7064 24.2766L8.75001 25.3707C8.5381 25.3996 8.34545 25.2936 8.30693 25.1395L8.01796 23.8873C7.97943 23.7332 8.12391 23.5983 8.32619 23.5694L17.2248 22.562C17.4174 22.5428 17.6004 22.6391 17.6389 22.7836L17.9761 23.9683C18.0146 24.1128 17.899 24.2573 17.7064 24.2766Z" fill="var(--sapContent_Illustrative_Color8)"/>
<path d="M35.1367 31.7027L44.3993 34.9595C44.3993 34.9595 44.7885 35.1706 44.9253 34.2917C45.0292 33.6304 45.1051 32.7614 44.5988 31.5114L36.174 28.5894L35.1367 29.2506V31.7027Z" fill="var(--sapContent_Illustrative_Color3)"/>
<path d="M44.3993 34.9577C44.3993 34.9577 44.7885 35.1688 44.9253 34.2898C44.955 34.0969 35.1367 30.873 35.1367 30.873V31.7009L44.3993 34.9577Z" fill="var(--sapContent_Illustrative_Color16)"/>
<path d="M44.7926 32.0652C44.7398 31.8888 44.6771 31.7041 44.598 31.5095L36.1731 28.5874L36.0791 28.6484L36.2902 29.3328L44.7926 32.0652Z" fill="var(--sapContent_Illustrative_Color31)"/>
<path d="M28.7208 15.084L28.9467 15.3132C29.1248 15.4946 29.2765 15.7007 29.3969 15.925L36.1728 28.5895C36.1728 28.5895 36.8076 29.973 35.1355 31.7029L22.1099 37.7416C21.757 37.9048 21.3695 37.984 20.9786 37.9692H20.9688L28.7208 15.084Z" fill="var(--sapContent_Illustrative_Color3)"/>
<path d="M18.3604 37.3011C18.8188 37.4577 19.3416 37.3638 19.9006 37.0587C18.3043 35.6537 18.4429 30.5533 20.3392 24.9746C22.1878 19.5345 25.0835 15.4746 27.1942 15.1448C26.9452 14.6666 26.6187 14.3401 26.2114 14.2015C26.1059 14.1653 25.9954 14.1455 25.8816 14.1356C25.842 14.1339 25.8041 14.129 25.7645 14.129C23.6274 14.1075 20.4662 18.4956 18.4445 24.4453C16.8301 29.1978 16.3981 33.6023 17.1599 35.8384C17.3067 36.1913 17.4749 36.5112 17.6612 36.7948C17.8607 37.0372 18.0933 37.2087 18.3604 37.2994V37.3011Z" fill="var(--sapContent_Illustrative_Color3)"/>
<path d="M20.3378 24.9747C18.4414 30.5533 18.3029 35.6538 19.8992 37.0587C21.9242 35.9539 24.4257 32.0556 26.1259 27.0574C27.8772 21.9042 28.2383 17.1599 27.1928 15.1465C25.0821 15.4763 22.1864 19.5362 20.3378 24.9763V24.9747Z" fill="var(--sapContent_Illustrative_Color28)"/>
<path d="M25.7976 27.9808C25.9097 27.6774 26.0186 27.3691 26.1257 27.0574C27.877 21.9042 28.2381 17.1599 27.1927 15.1465C26.2362 15.2965 24.6894 16.4146 23.2119 18.8255C23.2119 18.8255 26.8332 19.4521 25.7976 27.9825V27.9808Z" fill="var(--sapContent_Illustrative_Color29)"/>
<path d="M28.7291 24.4576L24.0805 33.4438L20.9688 37.9654H20.9786C21.3678 37.9802 21.7553 37.9027 22.1099 37.7395L35.1406 31.7016L27.9394 31.8398C29.5193 27.8074 30.1086 22.1313 30.1086 22.1313L28.7291 24.4576Z" fill="var(--sapContent_Illustrative_Color16)"/>
<path d="M36.1733 28.5876L34.3594 25.1972L29.8889 18.8237C29.8889 18.8237 29.9559 21.1493 29.6465 22.9578L36.2888 29.333C36.3003 28.8679 36.1717 28.5876 36.1717 28.5876H36.1733Z" fill="var(--sapContent_Illustrative_Color31)"/>
<path d="M27.1928 15.1448C26.9438 14.6666 26.6173 14.3401 26.21 14.2015C26.1045 14.1653 25.994 14.1455 25.8802 14.1356C25.8406 14.1339 25.8027 14.129 25.7631 14.129C24.3944 14.1158 22.6086 15.9099 20.9678 18.7627C20.9694 18.7627 22.3117 18.3455 23.2104 18.8238C24.5692 16.6965 26.0039 15.3311 27.1912 15.1448H27.1928Z" fill="var(--sapContent_Illustrative_Color15)"/>
<path d="M28.9741 15.3676C28.5586 14.6865 27.2509 14.4952 26.5962 14.2726C26.3621 14.1935 26.123 14.1506 25.8805 14.1357C25.9927 14.1456 26.1032 14.1654 26.2104 14.2017C26.6177 14.3402 26.9458 14.6667 27.1932 15.1449C28.237 17.1584 27.8775 21.9027 26.1263 27.0559C24.4278 32.0541 21.9245 35.9523 19.8995 37.0572C19.3405 37.3623 18.8178 37.4563 18.3593 37.2996C18.0922 37.2089 17.858 37.0374 17.6602 36.795C17.6668 36.8049 17.6733 36.8164 17.6799 36.8263C18.1714 37.5651 20.1123 38.1109 20.9698 37.9675C23.7319 37.5057 26.6342 33.0913 28.42 27.8358C30.1746 22.6727 30.4319 17.757 28.9741 15.3676Z" fill="var(--sapContent_Illustrative_Color31)"/>
<path d="M28.2129 14.7789C27.8868 14.6146 27.232 14.4439 26.5955 14.2726C26.3613 14.1935 26.1222 14.1506 25.8798 14.1357C25.9919 14.1456 26.1024 14.1654 26.2096 14.2017C26.6169 14.3402 26.9451 14.6667 27.1924 15.1449C28.2372 17.1648 27.8098 23.2765 25.2656 29.3426C28.9877 23.6513 29.1619 16.9895 28.2129 14.7789Z" fill="var(--sapContent_Illustrative_Color31)"/>
</svg>