<svg width="160" height="160" viewBox="0 0 160 160" fill="none" xmlns="http://www.w3.org/2000/svg" id="sapIllus-Dialog-EmptyList">
<mask id="mask0_20012_10743" class="sapIllus_MaskTypeAlpha" maskUnits="userSpaceOnUse" x="0" y="10" width="141" height="141">
<circle cx="70.4545" cy="80.4545" r="70.4545" fill="var(--sapContent_Illustrative_Color7)"/>
</mask>
<g mask="url(#mask0_20012_10743)">
<circle cx="70.4545" cy="80.4545" r="70.4545" fill="var(--sapContent_Illustrative_Color7)"/>
<path d="M244.133 -30.9089H-20.497C-22.2219 -30.9105 -23.9302 -30.5721 -25.5243 -29.9132C-27.1184 -29.2542 -28.5669 -28.2875 -29.7872 -27.0683C-31.0074 -25.8492 -31.9755 -24.4015 -32.6359 -22.8081C-33.2964 -21.2146 -33.6364 -19.5066 -33.6364 -17.7817V137.77C-33.6364 141.254 -32.252 144.596 -29.7879 147.061C-27.3238 149.525 -23.9818 150.909 -20.497 150.909H244.133C247.618 150.909 250.96 149.525 253.424 147.061C255.888 144.596 257.272 141.254 257.272 137.77V-17.7817C257.272 -19.5066 256.932 -21.2146 256.272 -22.8081C255.612 -24.4015 254.643 -25.8492 253.423 -27.0683C252.203 -28.2875 250.754 -29.2542 249.16 -29.9132C247.566 -30.5721 245.858 -30.9105 244.133 -30.9089V-30.9089Z" fill="var(--sapContent_Illustrative_Color7)"/>
<rect x="-21.8182" y="138.182" width="85.4544" height="12.7273" rx="4" fill="var(--sapContent_Illustrative_Color18)"/>
<rect x="56.3635" y="138.182" width="189.091" height="12.7273" rx="4" fill="var(--sapContent_Illustrative_Color19)"/>
<path d="M187.896 16.8337C190.167 9.21937 186.449 1.09687 179.203 -2.16307L133.505 -22.7273C136.346 -18.8498 137.241 -13.6589 135.424 -8.82368L116.404 41.8071C116.157 42.4677 115.935 43.1361 115.786 43.824C114.266 50.8481 118.081 58.1146 125.011 60.7179C128.138 61.8905 131.41 61.9335 134.384 61.0501L180.829 62.6957L179.464 59.2325C176.791 52.439 176.799 44.8872 179.484 38.0976L187.9 16.8337H187.896Z" fill="var(--sapContent_Illustrative_Color18)"/>
<path d="M146.732 46.9748L204.36 57.4387C193.61 63.255 181.407 65.827 169.227 64.838L129.85 61.6484C129.615 61.6289 129.608 61.2927 129.838 61.2576L133.618 60.7338C138.965 59.7918 143.3 55.5233 144.762 50.2934L145.47 47.7644C145.622 47.2132 146.173 46.8693 146.736 46.9709L146.732 46.9748Z" fill="var(--sapContent_Illustrative_Color19)"/>
<path d="M174.558 27.0438L139.255 17.4523C138.07 17.1302 136.848 17.8301 136.526 19.0154C136.204 20.2008 136.904 21.4228 138.089 21.7449L173.392 31.3364C174.577 31.6585 175.799 30.9586 176.121 29.7733C176.443 28.5879 175.743 27.3659 174.558 27.0438Z" fill="var(--sapContent_Illustrative_Color19)"/>
<path d="M170.359 37.7338L134.683 29.6414C133.485 29.3697 132.294 30.1205 132.022 31.3184C131.75 32.5163 132.501 33.7077 133.699 33.9794L169.375 42.0718C170.573 42.3435 171.765 41.5927 172.036 40.3948C172.308 39.1968 171.557 38.0055 170.359 37.7338Z" fill="var(--sapContent_Illustrative_Color19)"/>
<path d="M71.9809 17.8768L80.5393 9.27573C80.6601 9.15499 80.8234 9.09106 80.9939 9.09106H87.9401C88.1815 9.09106 88.2739 9.40357 88.0679 9.53852L70.0135 20.9592L71.9809 17.8839V17.8768Z" fill="var(--sapContent_Illustrative_Color19)"/>
<path d="M80.7027 9.16947L34.9702 31.9327C25.8223 36.4854 19.075 44.7455 16.4471 54.6179L12.0009 71.3014C10.8006 75.7902 8.6628 79.9735 5.7224 83.5744L-0.67688 91.4084L47.4917 81.0176C63.7705 77.509 74.2537 61.6208 71.086 45.2711C70.3828 41.6346 70.2692 37.913 70.7664 34.2481L70.9723 32.714C71.576 28.204 72.6272 23.7649 74.1116 19.4609C74.8148 17.4154 75.8517 15.4977 77.1728 13.7789L80.7098 9.17657C80.7098 9.17657 80.7098 9.16237 80.7027 9.16947Z" fill="var(--sapContent_Illustrative_Color18)"/>
<path d="M53.0175 79.2704C53.3513 79.1496 50.2901 80.9465 39.5584 84.7463C21.781 91.9553 2.77493 95.6627 -16.4087 95.6627C-18.2908 95.6627 -20.1588 95.4426 -21.9912 95.0093L-26.1745 94.015C-26.4302 93.9511 -26.4231 93.5888 -26.1745 93.5391L0.310391 87.985C2.93118 87.4381 5.50936 86.6995 8.03072 85.7904L32.8466 76.8058C33.4006 76.6069 34.0114 76.6567 34.5228 76.9479C35.162 77.3882 36.064 77.9422 37.1933 78.4536C44.871 81.9267 52.293 79.5402 53.0104 79.2775L53.0175 79.2704Z" fill="var(--sapContent_Illustrative_Color19)"/>
<path d="M58.5361 29.5603L26.7456 46.2936C25.8933 46.741 25.5595 47.7851 25.9928 48.6445C26.426 49.5181 27.4843 49.8661 28.3579 49.4328L60.4821 33.3742C61.3557 32.941 61.7037 31.8827 61.2705 31.0091L60.9367 30.3344C60.4963 29.4537 59.4097 29.0986 58.5361 29.5603V29.5603Z" fill="var(--sapContent_Illustrative_Color19)"/>
<path d="M56.4976 40.2497L24.7072 56.983C23.8549 57.4305 23.5211 58.4745 23.9543 59.3339C24.3876 60.2075 25.4458 60.5555 26.3194 60.1223L58.4437 44.0637C59.3173 43.6305 59.6653 42.5722 59.232 41.6986L58.8982 41.0239C58.4579 40.1432 57.3712 39.788 56.4976 40.2497V40.2497Z" fill="var(--sapContent_Illustrative_Color19)"/>
</g>
<path d="M68.4604 85.913L81.8049 83.6944L85.3795 112.672C85.4371 113.135 85.3136 113.602 85.0348 113.976C84.756 114.349 84.3435 114.6 83.8839 114.676L76.4237 115.91C75.9623 115.99 75.4882 115.887 75.1014 115.623C74.7146 115.359 74.4456 114.955 74.3512 114.496L68.4604 85.913Z" fill="var(--sapContent_Illustrative_Color3)"/>
<path d="M63.8536 95.0051L103.774 95.2021L103.594 131.771C103.584 133.751 102.789 135.646 101.383 137.04C99.9765 138.433 98.0751 139.21 96.0965 139.2L71.0967 139.077C69.1181 139.067 67.2244 138.271 65.8322 136.864C64.4401 135.457 63.6634 133.554 63.6732 131.574L63.8536 95.0051Z" fill="var(--sapContent_Illustrative_Color19)"/>
<path d="M83.8015 97.2869C94.8243 97.3412 103.765 96.4081 103.771 95.2026C103.777 93.9972 94.8458 92.9759 83.823 92.9215C72.8002 92.8671 63.8596 93.8002 63.8536 95.0057C63.8477 96.2112 72.7786 97.2325 83.8015 97.2869Z" fill="var(--sapContent_Illustrative_Color20)"/>
<path d="M81.7923 83.6942L78.1702 78.5197L70.2619 79.8342L68.4446 85.9096L81.7923 83.6942Z" fill="var(--sapContent_Illustrative_Color4)"/>
<path d="M77.3777 73.7392L69.4731 75.0527L70.2656 79.8293L78.1701 78.5158L77.3777 73.7392Z" fill="var(--sapContent_Illustrative_Color4)"/>
<path d="M76.4564 73.898L75.6086 68.7881C75.5919 68.6823 75.5495 68.5823 75.4851 68.4968C75.4208 68.4112 75.3365 68.3428 75.2395 68.2975C75.1426 68.2521 75.0361 68.2313 74.9292 68.2368C74.8224 68.2423 74.7185 68.2739 74.6267 68.3289L69.8667 71.1427C69.7514 71.2096 69.659 71.31 69.6018 71.4305C69.5445 71.551 69.525 71.686 69.5459 71.8178L70.0701 74.9595L76.4564 73.898Z" fill="var(--sapContent_Illustrative_Color3)"/>
<path d="M70.6679 96.6564C74.1011 97.0165 78.5667 97.2514 83.4682 97.2851L82.8943 92.634C78.5793 92.6428 74.2676 92.8739 69.9764 93.3265L70.6679 96.6564Z" fill="var(--sapContent_Illustrative_Color3)"/>
<path d="M126.556 99.3525L141.294 103.425L125.139 103.987L126.556 99.3525Z" fill="var(--sapContent_Illustrative_Color3)"/>
<path d="M132.083 106.094L141.294 103.426L130.807 103.706L132.083 106.094Z" fill="var(--sapContent_Illustrative_Color15)"/>
<path d="M118.246 138.658H96.5439C91.4743 138.658 88.9298 132.588 92.499 129.028L107.951 113.657L120.767 100.909C125.305 96.3944 133.085 99.5728 133.085 105.952V123.942C133.086 127.844 131.523 131.586 128.74 134.345C125.957 137.105 122.183 138.656 118.246 138.658V138.658Z" fill="var(--sapContent_Illustrative_Color2)"/>
<path opacity="0.5" d="M123.497 105.22C124.484 104.241 124.485 102.654 123.497 101.676C122.51 100.697 120.909 100.698 119.921 101.677L81.2963 139.956C80.3087 140.935 80.3084 142.522 81.2956 143.5C82.2829 144.479 83.8839 144.479 84.8716 143.5L123.497 105.22Z" fill="var(--sapContent_Illustrative_Color8)"/>
<path d="M118.237 107.726L123.834 113.273C125.351 114.776 126.203 116.816 126.203 118.942C126.203 121.068 125.351 123.108 123.834 124.611L118.729 129.67C115.727 132.646 111.656 134.318 107.41 134.319C103.165 134.32 99.0928 132.65 96.0896 129.676V129.676L118.237 107.726Z" fill="var(--sapContent_Illustrative_Color14)"/>
<path d="M92.5086 129.028L107.96 113.657L120.777 100.909C123.21 98.4885 120.923 103.883 123.522 105.195C123.985 104.723 124.243 104.089 124.238 103.431C124.234 102.772 123.968 102.142 123.499 101.676C123.024 101.207 122.382 100.943 121.711 100.943C121.041 100.943 120.398 101.207 119.924 101.676L81.2964 139.958C80.8226 140.428 80.5565 141.066 80.5565 141.73C80.5565 142.394 80.8226 143.031 81.2964 143.501V143.501C81.5313 143.734 81.8101 143.919 82.117 144.045C82.4239 144.171 82.7527 144.236 83.0849 144.236C83.417 144.236 83.7459 144.171 84.0528 144.045C84.3596 143.919 84.6385 143.734 84.8734 143.501L92.0002 136.438C90.4246 134.339 90.3128 131.212 92.5086 129.028Z" fill="var(--sapContent_Illustrative_Color14)"/>
<path d="M120.777 100.909L107.96 113.657L92.5086 129.028C90.3128 131.212 90.4246 134.338 92.0059 136.431L129.152 99.6186C129.159 99.6098 129.167 99.6015 129.175 99.5937C126.581 98.2823 123.21 98.4885 120.777 100.909Z" fill="var(--sapContent_Illustrative_Color14)"/>
<path d="M127.551 104.894C127.721 105.179 128.432 105.069 129.138 104.648C129.844 104.227 130.279 103.654 130.109 103.369C129.939 103.084 129.229 103.194 128.523 103.615C127.816 104.036 127.381 104.609 127.551 104.894Z" fill="var(--sapContent_Illustrative_Color14)"/>
<path d="M145.185 104.437C144.769 104.987 145.14 105.777 145.828 105.809L152.639 106.125C155.983 106.28 158.293 102.825 156.872 99.7946V99.7946C155.451 96.7639 151.317 96.3302 149.298 98.9998L145.185 104.437Z" fill="var(--sapContent_Illustrative_Color18)"/>
</svg>
