<svg width="320" height="240" viewBox="0 0 320 240" fill="none" xmlns="http://www.w3.org/2000/svg" id="sapIllus-Scene-Connection">
<mask id="mask0_396_6119" class="sapIllus_MaskTypeAlpha" maskUnits="userSpaceOnUse" x="0" y="20" width="320" height="200">
<path d="M305.547 20H14.4533C12.5559 19.9983 10.6768 20.3705 8.92329 21.0954C7.16981 21.8203 5.57638 22.8836 4.23409 24.2247C2.8918 25.5657 1.82697 27.1582 1.10045 28.911C0.373942 30.6638 -8.08861e-07 32.5426 0 34.44V205.547C0 209.38 1.52275 213.056 4.23328 215.767C6.9438 218.477 10.6201 220 14.4533 220H305.547C309.38 220 313.056 218.477 315.767 215.767C318.477 213.056 320 209.38 320 205.547V34.44C320 32.5426 319.626 30.6638 318.9 28.911C318.173 27.1582 317.108 25.5657 315.766 24.2247C314.424 22.8836 312.83 21.8203 311.077 21.0954C309.323 20.3705 307.444 19.9983 305.547 20Z" fill="var(--sapContent_Illustrative_Color7)"/>
</mask>
<g mask="url(#mask0_396_6119)">
<path d="M305.547 20H14.4533C12.5559 19.9983 10.6768 20.3705 8.92329 21.0954C7.16981 21.8203 5.57638 22.8836 4.23409 24.2247C2.8918 25.5657 1.82697 27.1582 1.10045 28.911C0.373942 30.6638 -8.08861e-07 32.5426 0 34.44V205.547C0 209.38 1.52275 213.056 4.23328 215.767C6.9438 218.477 10.6201 220 14.4533 220H305.547C309.38 220 313.056 218.477 315.767 215.767C318.477 213.056 320 209.38 320 205.547V34.44C320 32.5426 319.626 30.6638 318.9 28.911C318.173 27.1582 317.108 25.5657 315.766 24.2247C314.424 22.8836 312.83 21.8203 311.077 21.0954C309.323 20.3705 307.444 19.9983 305.547 20Z" fill="var(--sapContent_Illustrative_Color7)"/>
<path d="M-13.5509 36.5324C-13.5509 36.5324 -13.236 7.68759 -3.3136 -8.1013C6.60876 -23.8902 36.0084 -48 69.3629 -48C102.717 -48 121.862 -31.4103 121.862 -31.4103C121.862 -31.4103 159.977 1.21188 154.429 40.2054L154.972 156.611H-9.17597L-13.5509 36.5324Z" fill="var(--sapContent_Illustrative_Color19)"/>
<path d="M171.701 172V90.9318C171.701 90.9318 197.654 62.3482 169.706 44.07C165.143 42.0213 160.247 40.801 155.252 40.4665C150.247 40.0309 145.242 41.3017 141.059 44.07C129.405 52.3039 127.06 62.2263 127.06 65.5512V172H171.701Z" fill="var(--sapContent_Illustrative_Color18)"/>
<path d="M128.337 84.3342H10.4938C0.00740719 84.3342 -8.49353 92.7905 -8.49353 103.222V109.158C-8.49353 119.589 0.00740719 128.045 10.4938 128.045H128.337C138.823 128.045 147.324 119.589 147.324 109.158V103.222C147.324 92.7905 138.823 84.3342 128.337 84.3342Z" fill="var(--sapContent_Illustrative_Color18)"/>
<path d="M-30.3682 171.739V90.723C-30.3682 90.723 -56.3204 62.122 -28.3732 43.8612C-23.8051 41.8046 -18.9037 40.5782 -13.901 40.2403C-8.89389 39.8056 -3.88738 41.0829 0.291358 43.8612C11.9462 52.0777 14.2912 62.0175 14.2912 65.3249V171.739H-30.3682Z" fill="var(--sapContent_Illustrative_Color18)"/>
<path d="M134.427 61.9826L134.235 61.7563C125.905 47.83 108.965 38.2209 89.4002 38.2209C70.6229 38.2209 54.2606 47.0292 45.6508 60.1025V43.0777C45.6508 42.8007 45.5402 42.535 45.3432 42.3392C45.1463 42.1433 44.8792 42.0333 44.6007 42.0333L33.2084 50.1453H32.5609C30.5904 49.2766 28.4506 48.8544 26.296 48.9093C24.3181 48.8743 22.3517 49.2171 20.5036 49.919H20.1361L7.50128 42.0506C7.36193 42.0483 7.22343 42.0736 7.09402 42.1251C6.9646 42.1765 6.84678 42.2531 6.74742 42.3503C6.64806 42.4475 6.56918 42.5635 6.51532 42.6914C6.46146 42.8192 6.4337 42.9565 6.43372 43.0951V64.5241C6.43372 70.2675 8.72735 75.7756 12.81 79.8367C16.8926 83.8979 22.4297 86.1795 28.2034 86.1795H45.6157H131.05C131.198 87.5615 131.273 88.9502 131.277 90.34C131.33 96.5236 129.838 102.623 126.937 108.092C124.035 113.561 119.814 118.228 114.652 121.674L114.25 121.97C113.008 122.87 112.177 124.224 111.939 125.734C111.701 127.244 112.076 128.786 112.981 130.021C113.886 131.256 115.247 132.083 116.765 132.32C118.283 132.556 119.833 132.183 121.075 131.283L121.39 131.057C128.028 126.536 133.455 120.469 137.198 113.385C140.94 106.3 142.885 98.4127 142.862 90.4096C142.833 80.3277 139.906 70.4643 134.427 61.9826ZM39.1233 68.9457L45.4583 53.2787L45.5807 60.2418L39.1233 68.9457Z" fill="var(--sapContent_Illustrative_Color20)"/>
<path d="M39.1233 68.911L45.5982 60.2245L45.4757 53.1917L39.1233 68.911Z" fill="var(--sapContent_Illustrative_Color20)"/>
<path d="M225.114 -28.5415H218.841V166.497H225.114V-28.5415Z" fill="var(--sapContent_Illustrative_Color19)"/>
<path d="M245.215 165.398H198.854C196.337 165.398 194.298 167.437 194.298 169.953C194.298 172.469 196.337 174.509 198.854 174.509H245.215C247.731 174.509 249.772 172.469 249.772 169.953C249.772 167.437 247.731 165.398 245.215 165.398Z" fill="var(--sapContent_Illustrative_Color19)"/>
<path d="M278.43 134.089L287.146 135.918C287.832 136.062 288.433 136.472 288.816 137.059C289.199 137.646 289.334 138.361 289.19 139.046L285.535 156.463C285.391 157.149 284.981 157.75 284.394 158.133C283.808 158.516 283.093 158.651 282.407 158.507L273.691 156.678C272.876 156.507 272.162 156.019 271.707 155.322C271.252 154.625 271.092 153.775 271.263 152.96L274.71 136.532C274.793 136.127 274.955 135.742 275.187 135.4C275.419 135.058 275.717 134.765 276.062 134.538C276.408 134.31 276.795 134.154 277.202 134.077C277.608 134 278.026 134.004 278.43 134.089Z" fill="var(--sapContent_Illustrative_Color9)"/>
<path d="M280.357 134.492L277.993 133.996L273.254 156.585L275.618 157.081L280.357 134.492Z" fill="var(--sapContent_Illustrative_Color17)"/>
<path d="M268.304 126.378L277.631 128.335C277.935 128.399 278.224 128.522 278.48 128.698C278.737 128.873 278.956 129.097 279.126 129.357C279.296 129.617 279.413 129.908 279.47 130.213C279.528 130.519 279.524 130.832 279.461 131.136L273.588 159.125C273.444 159.811 273.034 160.411 272.447 160.795C271.86 161.178 271.145 161.312 270.459 161.168L261.403 159.268C260.789 159.139 260.251 158.772 259.908 158.247C259.565 157.721 259.444 157.081 259.573 156.467L265.503 128.208C265.567 127.904 265.69 127.615 265.865 127.359C266.04 127.102 266.264 126.883 266.524 126.713C266.784 126.543 267.075 126.426 267.381 126.369C267.686 126.311 268 126.315 268.304 126.378Z" fill="var(--sapContent_Illustrative_Color9)"/>
<path d="M267.615 126.232L262.045 125.063C260.617 124.764 259.216 125.679 258.916 127.107L253.101 154.822C252.802 156.25 253.716 157.65 255.145 157.95L260.715 159.119C262.143 159.418 263.544 158.504 263.843 157.075L269.659 129.361C269.958 127.932 269.043 126.532 267.615 126.232Z" fill="var(--sapContent_Illustrative_Color17)"/>
<path d="M264.073 134.412L261.998 133.977C261.694 133.913 261.396 134.108 261.332 134.412L260.557 138.105C260.493 138.41 260.688 138.708 260.992 138.772L263.067 139.207C263.371 139.271 263.67 139.076 263.733 138.772L264.508 135.079C264.572 134.774 264.377 134.476 264.073 134.412Z" fill="var(--sapContent_Illustrative_Color4)"/>
<path d="M261.755 145.458L259.68 145.022C259.376 144.958 259.078 145.153 259.014 145.457L258.239 149.151C258.175 149.455 258.37 149.753 258.674 149.817L260.749 150.252C261.053 150.316 261.351 150.121 261.415 149.817L262.19 146.124C262.254 145.82 262.059 145.521 261.755 145.458Z" fill="var(--sapContent_Illustrative_Color4)"/>
<path d="M209.568 120.621L228.755 124.647C229.643 124.834 230.42 125.365 230.916 126.124C231.412 126.883 231.586 127.808 231.399 128.696C231.213 129.583 230.682 130.361 229.923 130.857C229.163 131.352 228.238 131.526 227.351 131.34L208.163 127.314L209.568 120.621Z" fill="var(--sapContent_Illustrative_Color3)"/>
<path d="M206.579 135.547L225.773 139.574C226.66 139.76 227.437 140.291 227.933 141.051C228.429 141.81 228.603 142.735 228.417 143.623C228.231 144.51 227.7 145.287 226.94 145.783C226.181 146.279 225.256 146.453 224.368 146.267L205.175 142.24L206.579 135.547Z" fill="var(--sapContent_Illustrative_Color3)"/>
<path d="M198.62 106.982L214.054 110.22C214.5 110.314 214.924 110.494 215.301 110.752C215.678 111.009 216 111.339 216.25 111.721C216.499 112.103 216.671 112.53 216.755 112.979C216.84 113.427 216.835 113.888 216.741 114.335L209.094 150.781C208.905 151.683 208.365 152.473 207.593 152.977C206.822 153.481 205.881 153.658 204.979 153.469L189.546 150.23L198.62 106.982Z" fill="var(--sapContent_Illustrative_Color9)"/>
<path d="M201.736 107.632L194.952 106.208C193.073 105.814 191.231 107.017 190.837 108.896L183.189 145.345C182.795 147.223 183.998 149.066 185.876 149.46L192.661 150.883C194.539 151.278 196.381 150.074 196.775 148.196L204.423 111.747C204.817 109.868 203.614 108.026 201.736 107.632Z" fill="var(--sapContent_Illustrative_Color17)"/>
<path d="M195.328 114.044L184.537 111.78C182.659 111.386 180.816 112.589 180.422 114.468L175.699 136.977C175.305 138.856 176.508 140.698 178.387 141.092L189.178 143.357C191.056 143.751 192.899 142.547 193.293 140.669L198.016 118.159C198.41 116.281 197.207 114.439 195.328 114.044Z" fill="var(--sapContent_Illustrative_Color9)"/>
<path d="M181.962 111.241L179.032 110.626C177.153 110.232 175.311 111.435 174.917 113.314L170.194 135.823C169.8 137.702 171.003 139.544 172.882 139.938L175.811 140.553C177.69 140.947 179.532 139.744 179.926 137.865L184.649 115.356C185.043 113.477 183.84 111.635 181.962 111.241Z" fill="var(--sapContent_Illustrative_Color17)"/>
<path d="M267.262 202.907C259.727 202.907 254.104 200.482 251.424 196.068C249.397 192.73 249.018 188.048 250.389 183.221C251.713 178.558 254.43 174.458 257.815 171.953C267.019 165.157 282.503 164.181 298.692 181.384C302.071 174.421 302.944 166.649 300.343 160.451C299.41 158.204 295.733 150.706 288.039 148.692C287.76 148.619 287.521 148.438 287.375 148.189C287.229 147.939 287.187 147.642 287.26 147.363C287.333 147.083 287.514 146.844 287.764 146.698C288.013 146.552 288.31 146.511 288.589 146.584C297.25 148.853 301.312 157.131 302.351 159.612C305.335 166.761 304.116 175.776 299.932 183.644C299.899 183.726 299.858 183.804 299.808 183.877C296.845 189.345 292.447 194.234 287.029 197.501C281.434 200.877 274.054 202.898 267.302 202.907H267.262ZM271.744 169.543C267.191 169.524 262.755 170.986 259.105 173.709C252.702 178.434 249.78 189.152 253.286 194.943C255.555 198.673 260.516 200.731 267.274 200.731H267.321C273.693 200.731 280.65 198.819 285.925 195.636C290.834 192.68 294.856 188.319 297.632 183.429C290.793 176 283.414 171.356 276.286 169.985C274.79 169.693 273.269 169.546 271.744 169.543Z" fill="var(--sapContent_Illustrative_Color4)"/>
<path d="M234.753 219.442C234.494 219.438 234.244 219.342 234.049 219.171C233.853 219 233.725 218.765 233.688 218.508C233.651 218.251 233.706 217.99 233.844 217.77C233.982 217.55 234.195 217.387 234.442 217.309C252.496 211.854 262.453 197.856 260.429 188.205C259.634 184.409 256.876 180.962 252.459 178.233C244.43 173.259 232.301 171.524 222.966 173.98C217.339 175.46 214.455 178.037 211.663 180.53C208.872 183.023 205.931 185.656 200.473 186.84C192.254 188.621 182.443 186.389 173.538 180.716C164.492 174.95 157.762 166.417 155.07 157.272C152.31 147.897 151.719 130.903 161.909 125.211C167.271 122.214 173.41 123.321 176.596 124.25C176.873 124.333 177.106 124.522 177.244 124.776C177.381 125.03 177.412 125.329 177.33 125.606C177.248 125.883 177.058 126.116 176.804 126.253C176.55 126.391 176.252 126.422 175.975 126.339C173.106 125.506 167.61 124.499 162.947 127.11C158.011 129.871 156.31 135.755 155.754 140.203C155.138 145.726 155.61 151.316 157.143 156.656C159.686 165.292 166.083 173.393 174.691 178.882C183.112 184.247 192.335 186.377 199.994 184.714C204.899 183.651 207.476 181.347 210.205 178.907C213.05 176.367 216.27 173.489 222.403 171.876C232.27 169.28 245.095 171.133 253.594 176.38C258.53 179.429 261.626 183.365 262.549 187.76C263.696 193.231 261.564 199.737 256.699 205.618C251.552 211.835 243.867 216.731 235.064 219.395C234.963 219.425 234.858 219.441 234.753 219.442Z" fill="var(--sapContent_Illustrative_Color4)"/>
<path d="M261.503 78.7399L240.342 96.5474C240.302 96.5825 240.273 96.6275 240.256 96.6777C240.24 96.7279 240.238 96.7815 240.25 96.8328C240.262 96.8842 240.288 96.9314 240.324 96.9696C240.361 97.0078 240.407 97.0355 240.459 97.0498L251.047 99.8653C251.089 99.8764 251.128 99.8967 251.162 99.9247C251.195 99.9527 251.222 99.9877 251.24 100.027C251.258 100.067 251.266 100.109 251.266 100.153C251.265 100.196 251.254 100.239 251.235 100.277L243.812 115.083C243.781 115.143 243.771 115.213 243.786 115.279C243.8 115.345 243.838 115.404 243.891 115.446C243.945 115.488 244.012 115.51 244.08 115.509C244.149 115.507 244.214 115.482 244.266 115.437L265.646 97.6802C265.686 97.6457 265.717 97.601 265.733 97.5508C265.75 97.5005 265.753 97.4467 265.741 97.395C265.73 97.3434 265.704 97.2959 265.667 97.2576C265.63 97.2193 265.583 97.1918 265.531 97.1779L254.773 94.3874C254.731 94.3759 254.692 94.3553 254.658 94.3272C254.625 94.299 254.598 94.2639 254.58 94.2243C254.562 94.1848 254.553 94.1418 254.553 94.0984C254.554 94.0549 254.564 94.0121 254.583 93.973L261.96 79.0916C261.991 79.0312 262 78.9618 261.986 78.8954C261.971 78.829 261.933 78.7698 261.879 78.7281C261.825 78.6864 261.757 78.6647 261.689 78.6669C261.62 78.6691 261.555 78.6949 261.503 78.7399Z" fill="var(--sapContent_Illustrative_Color3)"/>
</g>
</svg>
