<svg width="105" height="129" viewBox="0 0 105 129" fill="none" xmlns="http://www.w3.org/2000/svg" id="sapIllus-Spot-SimpleEmptyDoc">
<path d="M18.599 6.82839L1.98428 106.973C1.24733 111.415 4.25084 115.613 8.69283 116.35L78.3446 127.906C82.7865 128.643 86.9849 125.639 87.7219 121.197L104.337 21.0529C105.074 16.6109 102.07 12.4126 97.628 11.6756L27.9763 0.119846C23.5343 -0.617113 19.336 2.3864 18.599 6.82839Z" fill="var(--sapContent_Illustrative_Color3)"/>
<path d="M76.7897 4.87134H9.17191C4.6692 4.87134 1.01904 8.5215 1.01904 13.0242V110.482C1.01904 114.984 4.6692 118.634 9.17191 118.634H76.7897C81.2924 118.634 84.9426 114.984 84.9426 110.482V13.0242C84.9426 8.5215 81.2924 4.87134 76.7897 4.87134Z" fill="var(--sapContent_Illustrative_Color8)"/>
<path d="M76.7898 119.654H9.17197C6.73942 119.654 4.40648 118.687 2.6864 116.967C0.966323 115.247 0 112.914 0 110.482V13.0242C0 10.5916 0.966323 8.25872 2.6864 6.53864C4.40648 4.81857 6.73942 3.85223 9.17197 3.85223H76.7898C79.2224 3.85223 81.5553 4.81857 83.2754 6.53864C84.9954 8.25872 85.9618 10.5916 85.9618 13.0242V110.482C85.9618 112.914 84.9954 115.247 83.2754 116.967C81.5553 118.687 79.2224 119.654 76.7898 119.654ZM9.17197 5.89045C7.27998 5.89045 5.46548 6.64204 4.12764 7.97987C2.7898 9.31771 2.03822 11.1322 2.03822 13.0242V110.482C2.03822 112.374 2.7898 114.188 4.12764 115.526C5.46548 116.864 7.27998 117.615 9.17197 117.615H76.7898C78.6818 117.615 80.4963 116.864 81.8341 115.526C83.172 114.188 83.9236 112.374 83.9236 110.482V13.0242C83.9236 11.1322 83.172 9.31771 81.8341 7.97987C80.4963 6.64204 78.6818 5.89045 76.7898 5.89045H9.17197Z" fill="var(--sapContent_Illustrative_Color4)"/>
<path d="M42.9759 41.6917C38.9956 41.6837 35.1025 42.8571 31.7897 45.0634C28.4769 47.2697 25.8934 50.4095 24.3665 54.0853C22.8396 57.761 22.438 61.8072 23.2125 65.7114C23.987 69.6156 25.9029 73.202 28.7173 76.0165C31.5318 78.831 35.1183 80.7468 39.0224 81.5213C42.9266 82.2959 46.9728 81.8942 50.6486 80.3673C54.3243 78.8404 57.4642 76.257 59.6705 72.9441C61.8767 69.6313 63.0502 65.7382 63.0421 61.758C63.0153 56.4443 60.8926 51.3559 57.1352 47.5986C53.3779 43.8412 48.2895 41.7185 42.9759 41.6917ZM42.9759 73.8548C42.3712 73.8548 41.7801 73.6755 41.2773 73.3395C40.7745 73.0036 40.3827 72.5261 40.1513 71.9674C39.9199 71.4088 39.8593 70.7941 39.9773 70.201C40.0953 69.6079 40.3864 69.0632 40.814 68.6356C41.2416 68.208 41.7863 67.9168 42.3794 67.7989C42.9725 67.6809 43.5872 67.7415 44.1459 67.9729C44.7045 68.2043 45.182 68.5961 45.5179 69.0989C45.8539 69.6017 46.0332 70.1928 46.0332 70.7975C46.0225 71.6012 45.6956 72.3684 45.1234 72.933C44.5512 73.4976 43.7797 73.8141 42.9759 73.814V73.8548ZM47.0013 63.0013C46.6854 63.1745 46.237 63.4497 45.8396 63.6535C45.6094 63.7474 45.3906 63.8671 45.1873 64.0102L44.9937 64.2038C44.9077 64.6741 44.6533 65.0969 44.2782 65.3932C43.9031 65.6896 43.4329 65.8392 42.9555 65.814C42.6823 65.8355 42.4078 65.7975 42.1508 65.7026C41.8938 65.6078 41.6604 65.4584 41.4666 65.2647C41.2729 65.0709 41.1235 64.8375 41.0286 64.5805C40.9338 64.3235 40.8958 64.0489 40.9173 63.7758C40.9173 62.3694 41.6103 61.7376 43.2103 60.4025C43.2103 60.4025 43.6587 60.0764 43.9542 59.893C44.2498 59.7096 44.7083 59.4955 44.9733 59.3529C46.3797 58.5478 47.0115 57.9465 47.0115 56.5401C47.0115 54.9299 45.1975 53.4828 42.9861 53.4828C40.7746 53.4828 38.9708 54.8892 38.9708 56.5401C38.9708 57.0807 38.756 57.5991 38.3738 57.9814C37.9916 58.3636 37.4731 58.5783 36.9326 58.5783C36.392 58.5783 35.8736 58.3636 35.4913 57.9814C35.1091 57.5991 34.8943 57.0807 34.8943 56.5401C34.8943 52.4637 38.5122 49.5083 42.9351 49.5083C47.358 49.5083 50.9759 52.5656 50.9759 56.5401C51.0166 59.5465 49.6103 61.3503 47.0013 62.9605V63.0013Z" fill="var(--sapContent_Illustrative_Color14)"/>
</svg>
