<svg width="160" height="160" viewBox="0 0 160 160" fill="none" xmlns="http://www.w3.org/2000/svg" id="sapIllus-Dialog-AddPeopleToCalendar">
<rect y="50" width="160" height="69" rx="12" fill="var(--sapContent_Illustrative_Color20)"/>
<g clip-path="url(#clip0_6879_7323)">
<path d="M105.191 104.923C103.976 98.8436 102.684 92.7795 101.457 86.7034C101.332 86.0849 101.204 85.459 100.93 84.8927C100.086 83.1492 98.1737 82.4232 96.7246 81.346C96.0506 80.844 91.5239 78.367 91.5239 77.8904V86.5974C91.589 86.6736 91.6497 86.7423 91.7047 86.8035C91.7163 86.8155 91.7264 86.8274 91.7365 86.8379C91.8754 86.9873 91.8971 87.2174 91.7814 87.3862C91.7163 87.4818 91.6281 87.5685 91.5167 87.6073V64.8225V57.9068C91.5167 57.0493 90.7039 56.3561 89.7002 56.3561H77.7183V55.8929C77.7183 55.6763 77.5476 55.5 77.3379 55.5C77.1282 55.5 76.9575 55.6763 76.9575 55.8929V56.3561H57.3424V55.8929C57.3424 55.6763 57.1717 55.5 56.962 55.5C56.7523 55.5 56.5816 55.6763 56.5816 55.8929V56.3561H45.1521C45.0784 56.3561 45.0046 56.359 44.9337 56.3665C44.8715 56.3725 44.8108 56.38 44.7515 56.3904C44.7443 56.3904 44.737 56.3919 44.7298 56.3934C44.1484 56.495 43.6553 56.8028 43.3573 57.2241C43.165 57.4945 43.0536 57.8112 43.0536 58.1503V64.8255V79.3321C42.8266 79.477 42.6053 79.6294 42.3884 79.7923L41.7173 80.2987L41.6132 76.51C41.6132 76.51 42.5764 73.8596 42.964 71.1301C42.9813 71.0106 42.9972 70.8926 43.0117 70.773C43.045 70.5056 43.0565 70.2472 43.0522 69.9962C43.0363 69.1625 42.828 68.4275 42.5388 67.8374C42.5099 67.7776 42.4795 67.7208 42.4491 67.6641C41.9024 66.6526 41.1273 66.1148 40.7744 66.2985C40.1453 66.6227 39.9471 69.4778 39.8083 70.3443C39.6969 71.036 38.485 74.6529 37.8299 75.9736C37.785 76.0633 37.746 76.1544 37.7098 76.2485C37.6028 76.5294 37.5377 76.8237 37.516 77.1255L37.0287 83.7603L36.9332 85.066C36.9332 85.066 36.2115 85.7114 35.6128 86.3987C35.4103 86.6317 35.2223 86.8678 35.0806 87.0874C34.9244 87.3294 34.8781 87.6611 34.9114 88.1048C34.9273 88.3155 34.962 88.553 35.0126 88.8174C35.0314 88.916 35.0517 89.0176 35.0748 89.1237C35.1066 89.2716 35.1413 89.427 35.1804 89.5913C35.2498 89.8871 35.3322 90.2098 35.4219 90.5594C35.6692 91.5231 35.9801 92.6973 36.3055 94.1241C36.8956 96.7176 37.0807 98.9078 37.1357 100.187C37.1386 100.251 37.1415 100.312 37.1429 100.372C37.1473 100.49 37.1501 100.599 37.153 100.699C37.1559 100.798 37.1574 100.887 37.1574 100.967C37.1574 101.046 37.1574 101.114 37.1574 101.171C37.1574 101.316 37.1545 101.391 37.1545 101.391C37.0012 102.024 36.7958 102.646 36.5369 103.249L35.6851 105.233L33.5881 110.144H33.5837L30 119H43C44.4766 114.788 45.7465 110.329 46.5275 108.221L46.5246 108.208C46.5795 108.06 46.6331 107.917 46.6866 107.776C47.5586 107.155 48.1183 106.358 48.451 105.46C50.7114 100.751 50.4656 92.0878 50.4656 92.0878L47.0308 92.0923V92.0878H61.3238C61.2313 92.2237 61.1286 92.3657 61.0129 92.518C60.9869 92.5524 60.9608 92.5853 60.9333 92.6211C60.8813 92.6884 60.8263 92.7556 60.7685 92.8273C60.7656 92.8303 60.7641 92.8333 60.7612 92.8363C60.5834 93.0544 60.4127 93.3756 60.2565 93.7655C60.2218 93.8537 60.1871 93.9448 60.1538 94.0389C60.1365 94.0867 60.1191 94.136 60.1032 94.1868C59.9803 94.5514 59.8704 94.9562 59.7793 95.382C59.772 95.4164 59.7648 95.4493 59.7576 95.4836C59.7026 95.7495 59.6534 96.0229 59.6115 96.2978C59.597 96.3949 59.584 96.4935 59.571 96.5907C59.558 96.6967 59.545 96.8028 59.5348 96.9104C59.516 97.0911 59.5016 97.2704 59.4915 97.4482C59.4915 97.4587 59.4915 97.4691 59.49 97.4811C59.4683 97.862 59.4654 98.2326 59.4842 98.5821C59.4886 98.6703 59.4958 98.7569 59.503 98.8421C59.5189 99.0124 59.5406 99.1753 59.5681 99.3306C59.5956 99.486 59.6303 99.6324 59.6708 99.7699C59.7518 100.043 59.8602 100.276 59.9976 100.456C60.0352 100.503 60.0714 100.554 60.1075 100.605C60.4474 101.091 60.7424 101.709 60.9869 102.323C61.0172 102.401 61.0476 102.478 61.078 102.556C61.0968 102.605 61.1156 102.656 61.1329 102.706C61.2183 102.939 61.2963 103.166 61.3658 103.381C61.6333 104.207 61.7693 105.072 61.7693 105.943V119H75.5C73.8961 110.566 72.0577 100.517 72.6391 99.7445C72.6738 99.6996 72.71 99.6548 72.7461 99.6115C72.7794 99.5727 72.8155 99.5323 72.8517 99.4935C72.856 99.489 72.8589 99.4845 72.8633 99.48C72.8879 99.4546 72.9139 99.4292 72.9385 99.4023C73.5401 98.7988 74.376 98.3521 75.0355 97.8098C75.7413 97.2301 76.8028 96.4024 77.1354 95.4776V95.4761C77.3524 95.1086 77.5216 94.7142 77.6185 94.2869C77.7443 93.7342 77.8195 92.9707 77.8556 92.0908H85.2473C85.3196 94.9084 85.6407 97.7231 86.627 97.9427C87.5714 98.1534 88.2815 97.3152 88.7689 96.3651C89.4385 98.1608 90.3424 99.8819 92.516 102.825C93.1133 103.633 93.6022 104.307 94.0057 104.872C94.1734 105.105 94.3253 105.32 94.4641 105.517C94.5624 105.658 94.6565 105.791 94.7418 105.915C94.791 105.986 94.8387 106.055 94.8835 106.121C95.3825 106.845 95.6312 107.244 95.7541 107.461C95.7874 107.519 95.812 107.565 95.8308 107.6C95.8424 107.622 95.851 107.642 95.8583 107.655C95.8742 107.691 95.8771 107.701 95.8771 107.701L95.5 119H107C106.102 112.258 105.191 104.926 105.191 104.926V104.923Z" fill="var(--sapContent_Illustrative_Color21)"/>
<g clip-path="url(#clip1_6879_7323)">
<path d="M51.1996 87.2771L58.1145 87.27C58.1145 87.27 58.5547 102.229 53.4768 105.82C48.7254 109.182 51.1996 87.2771 51.1996 87.2771Z" fill="var(--sapContent_Illustrative_Color30)"/>
<path d="M100.953 80.3091C100.953 80.3091 100.021 93.6583 102.496 94.1883C104.97 94.7201 106.131 89.6055 106.131 89.6055C106.131 89.6055 105.792 82.6906 100.953 80.3091Z" fill="var(--sapContent_Illustrative_Color3)"/>
<path d="M106.052 87.2684H51.5937C50.172 87.2684 49.0183 86.3143 49.0183 85.1377V47.7049C49.0183 46.5282 50.1702 45.5742 51.5937 45.5742H106.267C107.499 45.5742 108.496 46.401 108.496 47.4187V85.2455C108.496 86.3638 107.401 87.2684 106.051 87.2684" fill="var(--sapContent_Illustrative_Color14)"/>
<path d="M105.903 86.4892H51.5866C50.1684 86.4892 49.0183 85.5405 49.0183 84.3709V47.1324C49.0183 45.9629 50.1684 45.0142 51.5866 45.0142H106.118C107.346 45.0142 108.342 45.8357 108.342 46.8498V84.4787C108.342 85.59 107.25 86.4928 105.902 86.4928" fill="var(--sapContent_Illustrative_Color8)"/>
<path d="M108.496 55.0243H49.0183V47.1324C49.0183 45.9629 50.1702 45.0142 51.5937 45.0142H106.267C107.499 45.0142 108.496 45.8357 108.496 46.848V55.0243Z" fill="var(--sapContent_Illustrative_Color11)"/>
<path d="M85.9589 54.1107C83.9479 53.6514 81.9033 53.2768 79.8355 52.9995C77.6329 52.7044 75.4036 52.5578 73.1744 52.4253C68.959 52.1744 64.5307 52.0101 60.5514 50.8282C58.1092 50.1021 56.1231 48.8795 55.2889 46.9503C55.0173 46.3231 54.8541 45.6712 54.7582 45.0122H51.5954C50.1737 45.0122 49.02 45.9609 49.02 47.1305V55.0241H89.5122C88.3425 54.6884 87.1569 54.3846 85.9589 54.1107Z" fill="var(--sapContent_Illustrative_Color1)"/>
<path d="M69.5957 55V86.397H68.5957V55H69.5957Z" fill="var(--sapContent_Illustrative_Color11)"/>
<path d="M88.4609 55.0261V86.397H87.4609V55.0261H88.4609Z" fill="var(--sapContent_Illustrative_Color11)"/>
<path d="M108.344 64.0557V65.0557H49.052V64.0557H108.344Z" fill="var(--sapContent_Illustrative_Color11)"/>
<path d="M108.436 74.75V75.75H49.144V74.75H108.436Z" fill="var(--sapContent_Illustrative_Color11)"/>
<path d="M66.3535 48.7102C66.9339 48.7102 67.406 48.3144 67.406 47.8251C67.406 47.3357 66.9356 46.9399 66.3535 46.9399C65.7713 46.9399 65.3027 47.3357 65.3027 47.8251C65.3027 48.3144 65.7731 48.7102 66.3535 48.7102Z" fill="var(--sapContent_Illustrative_Color1)"/>
<path d="M66.121 46.9609C65.6525 47.0493 65.301 47.4026 65.301 47.8249C65.301 48.2471 65.6507 48.5987 66.121 48.6888C66.5896 48.6004 66.941 48.2471 66.941 47.8249C66.941 47.4026 66.5914 47.051 66.121 46.9609Z" fill="var(--sapContent_Illustrative_Color14)"/>
<path d="M91.3278 48.7102C91.9082 48.7102 92.3786 48.3144 92.3786 47.8251C92.3786 47.3357 91.9082 46.9399 91.3278 46.9399C90.7474 46.9399 90.2771 47.3357 90.2771 47.8251C90.2771 48.3144 90.7474 48.7102 91.3278 48.7102Z" fill="var(--sapContent_Illustrative_Color1)"/>
<path d="M91.0954 46.9609C90.6268 47.0493 90.2754 47.4026 90.2754 47.8249C90.2754 48.2471 90.625 48.5987 91.0954 48.6888C91.564 48.6004 91.9154 48.2471 91.9154 47.8249C91.9154 47.4026 91.5657 47.051 91.0954 46.9609Z" fill="var(--sapContent_Illustrative_Color14)"/>
<path d="M66.0892 44H66.0874C65.8296 44 65.6206 44.208 65.6206 44.4646V47.5829C65.6206 47.8395 65.8296 48.0475 66.0874 48.0475H66.0892C66.347 48.0475 66.556 47.8395 66.556 47.5829V44.4646C66.556 44.208 66.347 44 66.0892 44Z" fill="var(--sapContent_Illustrative_Color14)"/>
<path d="M91.0972 44H91.0955C90.8377 44 90.6287 44.208 90.6287 44.4646V47.5829C90.6287 47.8395 90.8377 48.0475 91.0955 48.0475H91.0972C91.355 48.0475 91.564 47.8395 91.564 47.5829V44.4646C91.564 44.208 91.355 44 91.0972 44Z" fill="var(--sapContent_Illustrative_Color14)"/>
<path d="M49 119C50.8122 114.02 52.3249 108.838 53.2833 106.345L53.2798 106.329C53.3472 106.154 53.4129 105.985 53.4786 105.819C59.1618 101.92 54.0341 92.1551 53.7661 90.0262C53.4981 87.8973 54.1229 85.9469 54.7459 85.9469C55.3688 85.9469 56.8846 84.3498 57.7756 84.0848C58.6666 83.818 63.7463 84.7049 65.617 84.9716C67.4877 85.2384 68.4692 84.2614 67.9332 81.7792C67.3972 79.297 56.038 74.8608 57.0674 75.0322C58.0968 75.2036 61.1408 74.776 63.9699 74.6912C66.7991 74.6064 69.4579 72.686 67.7859 71.49C66.721 70.7285 60.4805 70.4176 56.0841 70.2921C53.2567 70.2109 50.4844 71.0659 48.2001 72.7266L47.3765 73.3256L47.2488 68.8452C47.2488 68.8452 48.5355 65.4319 48.9651 62.0593C49.3946 58.6884 46.9914 56.3829 46.2193 56.768C45.4472 57.1514 45.7224 60.8597 45.5502 61.8826C45.4135 62.7006 43.4097 66.6457 42.6039 68.2074C42.3856 68.6314 42.2542 69.0943 42.2187 69.5695L41.5017 78.9596C41.5017 78.9596 39.9149 80.3252 39.2298 81.3499C38.5447 82.3746 39.5724 84.7632 40.7296 89.6711C41.8868 94.579 41.775 98.2643 41.775 98.2643C41.5869 99.0134 41.3348 99.7483 41.0171 100.462L39.9717 102.808L37.3982 108.615H37.3928L33 119H49Z" fill="var(--sapContent_Illustrative_Color15)"/>
<path d="M40 119C42.2417 111.285 44.2634 102.821 44.5243 101.581C45.0692 98.9835 44.5634 96.5984 43.967 94.0632C43.4292 91.7842 42.8914 89.498 42.0537 87.3109C41.6525 86.2615 41.1822 85.2403 40.6817 84.2333C40.4687 83.8075 40.2486 83.3782 40.1528 82.9118C39.9629 81.9843 40.4953 81.2776 41.0668 80.5956C41.6259 79.9296 42.2258 79.2971 42.8683 78.7088C43.6404 78.0021 44.4285 77.3025 45.1029 76.5004C45.1917 76.3944 45.2982 76.2407 45.4064 76.0747C45.5484 75.8556 45.2822 75.6012 45.0674 75.7496C44.3876 76.2142 43.5144 76.8061 43.1683 77.0057C43.0174 77.094 42.7601 77.0216 42.7299 76.8273C42.5098 75.4492 42.7335 74.0871 42.8062 72.6967C42.9109 70.7304 43.1754 68.7199 43.9208 66.8807C44.4924 65.4692 45.355 64.1865 45.8146 62.729C46.2619 61.3103 46.3081 59.7963 46.3702 58.3228C46.3773 58.1603 46.5086 58.0313 46.6719 58.026C47.9782 57.9783 48.2445 59.6496 48.445 60.609C48.5497 61.1089 48.6509 61.8686 48.91 62.4799C48.9313 62.3386 48.9509 62.1972 48.9686 62.0559C49.3981 58.685 46.9949 56.3795 46.2229 56.7646C45.4508 57.148 45.2076 60.5242 45.0373 61.5488C44.9006 62.3668 43.4132 66.644 42.6092 68.2058C42.3909 68.6298 42.2596 69.0927 42.2241 69.5679L41.507 78.9579C41.507 78.9579 39.9203 80.3236 39.2352 81.3483C38.5501 82.3729 39.5777 84.7615 40.7349 89.6694C41.8922 94.5773 41.7803 98.2627 41.7803 98.2627C41.5922 99.0117 41.3402 99.7467 41.0225 100.46L39.9771 102.807L37.4035 108.614H37.3982L33 119H40Z" fill="var(--sapContent_Illustrative_Color16)"/>
<path d="M56.0716 78.6413C52.9869 78.7562 50.2181 80.6006 47.2238 81.2614C46.9913 81.3126 47.0535 81.6553 47.2913 81.6288C48.3189 81.5175 49.359 81.0564 50.3405 80.6677C53.6578 79.3586 57.456 78.8675 60.7875 80.1448C62.3636 80.749 64.3799 82.1853 66.0536 81.961L66.6002 81.8956C63.4338 80.8108 59.4191 78.5159 56.0716 78.6396V78.6413Z" fill="var(--sapContent_Illustrative_Color16)"/>
<path d="M56.5029 74.7371C55.5001 74.2848 54.3588 74.2512 53.3312 74.6452C52.1154 75.1134 50.4257 75.942 49.5205 76.4296C47.9692 77.2652 46.4091 78.1062 44.9644 79.1061C44.723 79.2722 44.9431 79.6379 45.204 79.5072C46.6913 78.7652 48.145 77.8112 49.6217 77.0214C51.8687 75.8201 54.3517 74.3749 56.7034 75.3554C57.0371 75.495 61.6483 77.8553 61.8027 77.35L56.5029 74.7353V74.7371Z" fill="var(--sapContent_Illustrative_Color16)"/>
<path d="M63.1802 70.6507C63.2192 70.6472 63.8688 71.4687 63.9842 71.5464C64.3782 71.8114 64.8095 71.9209 65.2674 71.9351C66.0164 71.958 66.9429 71.9351 67.7771 71.9404C68.0895 71.9421 68.1995 71.4846 67.9315 71.3061C67.2713 70.8645 65.9153 70.3998 63.1802 70.6507Z" fill="var(--sapContent_Illustrative_Color16)"/>
<path d="M64.9461 81.2474C64.9159 81.2439 64.8893 81.2686 64.8964 81.2986C64.9266 81.4506 64.9053 81.8287 64.9284 81.8976C65.0171 82.1573 65.2159 82.371 65.4466 82.5159C65.7288 82.6926 66.0554 82.7809 66.382 82.8551C66.95 82.9823 67.5197 83.1236 68.0717 83.3091C68.0717 83.3091 68.2261 81.7279 64.9461 81.2474Z" fill="var(--sapContent_Illustrative_Color16)"/>
<path d="M100.43 81.8288C101.498 82.9983 102.843 84.977 104.123 88.8744C105.403 92.77 105.719 94.7398 109.723 99.964C113.727 105.188 113.848 105.729 113.848 105.729L113 119H127.5C126.398 111.027 125.278 102.446 125.278 102.446C123.787 95.2575 122.202 88.0864 120.695 80.9013C120.543 80.1698 120.385 79.4296 120.049 78.76C119.013 76.6983 116.666 75.8397 114.888 74.5659C114.061 73.9723 108.505 71.0431 108.505 70.4795V80.7758C108.585 80.8659 108.66 80.9472 108.727 81.0196C108.741 81.0338 108.754 81.0479 108.766 81.0603C108.937 81.2369 108.963 81.509 108.821 81.7086C108.679 81.9083 108.466 82.0726 108.152 81.9648C107.224 81.6468 106.477 79.6116 106.049 78.8042C105.069 76.9509 97.7655 68.5114 95.767 72.8575C93.8483 77.0322 99.3593 80.6592 100.426 81.8305L100.43 81.8288Z" fill="var(--sapContent_Illustrative_Color31)"/>
<path d="M100.43 81.8286C101.498 82.9999 102.666 84.9769 103.946 88.8742C105.225 92.7698 105.719 94.7397 109.723 99.9638C113.727 105.188 113.848 105.729 113.848 105.729L113 119H121C120.018 113.285 118.608 106.771 115.216 102.492C114.409 101.473 113.516 100.524 112.586 99.6157C111.67 98.72 110.877 97.8102 110.261 96.6813C109.015 94.3969 108.475 91.8175 107.581 89.3919C106.67 86.9238 105.362 84.6783 103.614 82.7067C102.755 81.7385 101.83 80.8322 100.903 79.9276C100.025 79.069 99.0966 78.2404 98.4293 77.1999C97.9039 76.3783 97.572 75.4597 97.5773 74.4791C97.5827 73.5534 97.8702 72.663 98.2713 71.8344C97.2046 71.5305 96.2852 71.7319 95.767 72.8591C93.8483 77.0338 99.3593 80.6608 100.426 81.8321L100.43 81.8286Z" fill="var(--sapContent_Illustrative_Color3)"/>
<path d="M98.818 76.7335C99.5457 76.3572 100.144 75.7742 100.541 75.0605L100.547 75.0516C100.687 74.8008 100.685 74.4951 100.543 74.246C99.9397 73.1913 98.1808 70.5889 96.2444 72.1648C94.0844 73.9209 96.8852 75.9933 97.9927 76.6982C98.2412 76.8572 98.5571 76.8696 98.8198 76.7335H98.818Z" fill="var(--sapContent_Illustrative_Color28)"/>
<path d="M71.4903 100.621C71.8186 101.598 71.9855 102.621 71.9855 103.651V119H88.5C86.5317 109.027 84.612 97.2344 85.3255 96.3211C86.6229 94.6621 90.698 93.0014 91.4399 89.8673C92.1818 86.7332 91.4985 77.9173 90.9696 75.2267C90.4407 72.536 89.4414 66.803 87.5618 67.0963C85.8313 67.3648 85.6929 68.5256 85.6822 68.7093C85.6946 68.4037 85.7692 65.1494 83.6287 64.6848C83.1725 64.5858 82.6986 64.6777 82.2975 64.918C81.8964 65.1582 81.4243 65.5434 81.3906 66.0433C81.3906 66.0433 80.9202 64.9321 79.5695 65.4586C78.2171 65.985 77.9828 70.3718 77.9828 70.3718C77.9828 70.3718 76.2789 69.6704 75.6914 71.483C75.1039 73.2957 73.929 81.896 73.0468 83.9436C72.1647 85.9912 72.0476 86.6342 70.7555 88.1554C69.4633 89.6765 68.4641 95.4677 69.8148 97.1638C70.5443 98.0789 71.1193 99.5029 71.4938 100.623L71.4903 100.621Z" fill="var(--sapContent_Illustrative_Color28)"/>
<path d="M90.8451 91.2756C90.8593 91.2385 90.8132 91.2031 90.783 91.2296C90.2275 91.6713 81.2306 98.0155 76.536 91.7791C76.1243 91.2332 75.2546 91.1819 74.557 91.1996C74.4789 91.2014 74.1062 91.2579 73.7157 91.3144C73.1886 91.3904 72.8602 91.9239 73.0324 92.4257C73.2844 93.1642 73.5968 94.0069 73.8613 94.5174C74.1062 94.9945 74.3529 95.4785 74.6245 95.9414C74.912 96.429 75.3149 96.8318 75.7622 97.1763C75.7711 97.1834 75.7817 97.1905 75.7924 97.1993C77.8885 98.8176 80.7212 99.1356 83.1226 98.0102C83.4652 97.8494 84.933 96.8265 85.327 96.3212C86.0565 95.3867 87.3131 94.7895 88.2698 94.0351C89.1359 93.3497 90.4387 92.3709 90.8469 91.2773L90.8451 91.2756Z" fill="var(--sapContent_Illustrative_Color30)"/>
<path d="M77.0109 84.6237C77.0889 84.1166 77.1556 83.5758 77.1876 83.0635C77.2302 82.3585 77.2178 81.6272 77.2817 80.9223C77.397 79.6238 77.3633 78.3024 77.594 77.0163C77.7058 76.3891 77.7502 76.1735 77.8549 75.5446C78.0076 74.6259 78.1939 72.8928 78.107 72.3893C78.0431 72.0165 78.178 70.6844 77.9827 70.3682C77.9543 71.4494 77.523 75.216 77.4432 75.7248C77.3668 76.2212 77.3242 76.7212 77.2817 77.2212C77.1982 78.2052 77.0605 79.2145 77.0109 80.2021C76.9612 81.1985 76.9228 82.0723 76.7967 83.0635C76.7346 83.5528 76.6569 84.1396 76.5575 84.6237C76.5291 84.7579 76.467 84.884 76.435 85.0165C76.4066 85.1331 76.3904 85.207 76.3318 85.3359C76.2998 85.3801 76.2664 85.4715 76.2327 85.5156C76.1706 85.6004 76.1539 85.7239 76.1521 85.8281C76.1521 85.9883 76.2398 86.0105 76.2842 86.0671C76.3676 86.1713 76.5185 85.9681 76.5575 85.901C76.7829 85.4929 76.9399 85.0724 77.0109 84.6237Z" fill="var(--sapContent_Illustrative_Color30)"/>
<path d="M81.3886 66.0415C81.3673 67.7958 81.5891 70.9653 81.7489 72.9705C81.8429 74.1648 81.7808 75.3662 81.5607 76.5445C81.3673 77.5816 81.3655 82.4718 81.3726 84.3304C81.3726 84.4329 81.5199 84.4488 81.543 84.3498C81.7435 83.4806 82.0612 82.0036 82.1109 81.138C82.1482 80.4754 82.1571 79.8129 82.1589 79.1487C82.1606 78.3925 82.1819 77.6364 82.2121 76.882C82.2707 75.3591 82.3559 73.8362 82.3576 72.3115C82.3576 70.8946 82.2387 69.4724 82.0098 68.075C81.9334 67.6103 81.5678 66.0185 81.3868 66.0433L81.3886 66.0415Z" fill="var(--sapContent_Illustrative_Color30)"/>
<path d="M86.6477 72.5854C86.314 71.4423 86.1205 70.2816 85.975 69.0926C85.9412 68.817 85.9377 68.4637 85.8135 68.2075C85.3893 68.9919 85.7709 72.2303 86.0957 73.2903C86.4329 74.3874 86.9121 75.4528 87.0257 76.6064C87.0825 77.1859 86.9955 77.7636 86.9458 78.3395C86.8926 78.9597 86.8464 79.5798 86.8092 80.2016C86.7843 80.5974 86.8234 82.6538 86.8553 84.0584C86.8589 84.1838 87.0434 84.1944 87.0594 84.069C87.2192 82.8217 87.4322 81.0991 87.441 80.7458C87.457 80.1946 87.7995 77.1647 86.8606 73.2568C86.8056 73.0271 86.7133 72.8098 86.6477 72.5854Z" fill="var(--sapContent_Illustrative_Color30)"/>
<path d="M71.4902 100.621C71.8185 101.598 71.9853 102.621 71.9853 103.651V119H76C76.1757 114.737 76.1794 110.126 75.7818 108.183C75.3771 106.207 74.9725 104.193 74.085 102.367C73.2792 100.709 72.2303 99.1812 71.4387 97.5152C71.0553 96.7096 70.7323 95.8704 70.5406 94.9959C70.3276 94.0189 70.2921 93.0154 70.3862 92.0225C70.5246 90.5615 70.908 89.1287 71.1387 87.6782C71.0216 87.8266 70.8956 87.9839 70.7518 88.1517C69.4597 89.6728 68.4604 95.4641 69.8111 97.1601C70.5406 98.0753 71.1157 99.4992 71.4902 100.619V100.621Z" fill="var(--sapContent_Illustrative_Color30)"/>
<path d="M77.1786 70.2288C77.1786 70.2288 76.6585 70.4249 76.5946 71.4567C76.5627 71.9602 76.5307 72.3877 76.5041 72.6951C76.481 72.9707 76.7011 73.2057 76.978 73.2057H77.9347C77.9347 73.2057 78.3163 70.5751 77.9347 70.3225C77.5531 70.0698 77.1768 70.2271 77.1768 70.2271L77.1786 70.2288Z" fill="var(--sapContent_Illustrative_Color30)"/>
<path d="M79.6439 68.6847H80.4071C80.6184 68.6847 80.7958 68.5292 80.8225 68.3225C80.929 67.5028 81.0851 65.5718 80.1888 65.5099C79.0707 65.4322 79.1558 67.1123 79.2251 68.2925C79.2375 68.5133 79.4221 68.6847 79.6439 68.6847Z" fill="var(--sapContent_Illustrative_Color30)"/>
<path d="M82.9896 68.5837H84.3386C84.5391 68.5837 84.7113 68.4406 84.745 68.2428C84.8906 67.3895 85.1373 65.2182 83.8895 65.1493C82.3471 65.0645 82.4838 66.9248 82.5779 68.2021C82.5938 68.4159 82.7731 68.582 82.9896 68.582V68.5837Z" fill="var(--sapContent_Illustrative_Color30)"/>
<path d="M87.379 70.4689L88.428 70.1916C88.6267 70.1386 88.7581 69.9513 88.7386 69.7464C88.6605 68.9531 88.3623 67.1193 87.3062 67.3383C85.9946 67.6104 86.5004 69.1298 86.8732 70.2022C86.9459 70.4089 87.166 70.5255 87.3772 70.4689H87.379Z" fill="var(--sapContent_Illustrative_Color30)"/>
</g>
</g>
<defs>
<clipPath id="clip0_6879_7323">
<rect width="98" height="75" fill="var(--sapContent_Illustrative_Color8)" transform="translate(30 44)"/>
</clipPath>
<clipPath id="clip1_6879_7323">
<rect width="95" height="75" fill="var(--sapContent_Illustrative_Color8)" transform="translate(33 44)"/>
</clipPath>
</defs>
</svg>
