<svg xmlns="http://www.w3.org/2000/svg" xmlns:xlink="http://www.w3.org/1999/xlink" width="320" height="240" viewBox="0 0 320 240" id="sapIllus-Scene-NoTasks">
    <path class="sapIllus_BackgroundColor" d="M273,150.1508c0,43.6679-34.8964,67.9163-74.5988,76.5419-35.0026,7.6045-79.6245,13.51-113.03-4.9122-30.4074-16.7685-36.6325-54.6546-37.3487-86.272C46.6383,74.3625,108.5184,44,161.7275,44,224.5239,44,272.9985,94.2192,273,150.1508Z"/>
      <path class="sapIllus_AccentColor" d="M78.3638,23.7484c3.6059-1.4194,5.3551-4.8671,6.7083-8.38A.5682.5682,0,0,1,85.5934,15H85.6a.5676.5676,0,0,1,.5235.3549c1.8046,4.3676,4.4877,6.6005,7.5945,9.1859l.0721.06a.5887.5887,0,0,1,.1941.5867.5756.5756,0,0,1-.4348.4313c-2.7408.5941-6.9823,5.94-6.9823,8.8005A.5665.5665,0,0,1,85.9993,35a.57.57,0,0,1-.5445-.4166c-.91-3.1665-3.5483-8.3755-7.0888-9.7506a.5853.5853,0,0,1-.0022-1.0844Z"/>
      <path class="sapIllus_AccentColor" d="M94.3384,41.6283c1.8466-.7174,2.7523-2.4863,3.4569-4.2907A.5281.5281,0,0,1,98.28,37h.0061a.529.529,0,0,1,.487.3257,11.7361,11.7361,0,0,0,3.9923,4.7558l.0392.0322a.5338.5338,0,0,1-.2239.9344c-1.3617.2908-3.5528,3.017-3.5528,4.4191a.5316.5316,0,0,1-.4529.5275.5275.5275,0,0,1-.5818-.3772c-.4735-1.6263-1.8373-4.2983-3.653-4.9939a.5345.5345,0,0,1-.002-.9953Z"/>
        <path class="sapIllus_BrandColorSecondary" d="M168.8762,148H152v40h45l-14.4535-31.26A15.0608,15.0608,0,0,0,168.8762,148Z"/>
          <path class="sapIllus_ObjectFillColor" d="M215.2058,63.7264,228.5,42H129.9578c-17.4122.322-19.9922,10.9708-19.9922,22.0331v83.8H79.2883a17.9121,17.9121,0,0,0-17.8951,17.9291V200.813a13.5042,13.5042,0,0,1-6.447,11.3573.9988.9988,0,0,0,.5562,1.83h87.22a1.9933,1.9933,0,0,0,1.45-.6139,30.8056,30.8056,0,0,0,8.4-21.1467V163.201a15.3532,15.3532,0,0,1,15.3386-15.3677h0A15.3338,15.3338,0,0,1,183.25,163.201s0,7.1426,0,8.3209a16.0117,16.0117,0,0,0,16.0562,16.0114h.4013a15.5138,15.5138,0,0,0,15.4991-15.5375l-.001-105.2694"/>
          <path class="sapIllus_BrandColorSecondary" d="M237.0546,43.376a16.1116,16.1116,0,0,0-10.3713-.05c-9.8016,3.0864-11.4826,11.94-11.4826,20.853V80.8467H243.5a3,3,0,0,0,3-3V69.1785C246.5,60.31,245.5,46.5,237.0546,43.376Z"/>
          <path class="sapIllus_Layering2" d="M148.0028,111h27.0185a1.9155,1.9155,0,0,0,1.7341-1,2.02,2.02,0,0,0-1.7582-3H147.9787a1.9155,1.9155,0,0,0-1.7341,1A2.02,2.02,0,0,0,148.0028,111Z"/>
          <path class="sapIllus_Layering2" d="M182.95,111h15.1338a1.8459,1.8459,0,0,0,1.6744-.9922A2.02,2.02,0,0,0,198.05,107H182.9162a1.8459,1.8459,0,0,0-1.6744.9922A2.02,2.02,0,0,0,182.95,111Z"/>
        <path class="sapIllus_Layering2" d="M148.0335,133h41.984a1.9221,1.9221,0,0,0,1.7284-.9882A2.0218,2.0218,0,0,0,189.9665,129h-41.984a1.9221,1.9221,0,0,0-1.7284.9882A2.0218,2.0218,0,0,0,148.0335,133Z"/>
        <path class="sapIllus_Layering2" d="M148.004,90h47.0172a1.9157,1.9157,0,0,0,1.7338-.9992A2.02,2.02,0,0,0,194.996,86H147.9788a1.9157,1.9157,0,0,0-1.7338.9992A2.02,2.02,0,0,0,148.004,90Z"/>
        <path class="sapIllus_Layering2" d="M148.0041,68h51.0171a1.9157,1.9157,0,0,0,1.7338-.9992A2.02,2.02,0,0,0,198.9959,64H147.9788a1.9157,1.9157,0,0,0-1.7338.9992A2.02,2.02,0,0,0,148.0041,68Z"/>
        <path class="sapIllus_StrokeDetailColor" d="M128.4615,71a.772.772,0,0,1-.5488-.2287l-4.6832-4.707a.7913.7913,0,0,1-.003-1.1115.7724.7724,0,0,1,1.1-.0031l4.08,4.1006,7.2155-8.7677a.7765.7765,0,0,1,1.096-.1028.79.79,0,0,1,.1018,1.1069l-7.76,9.4293a.7694.7694,0,0,1-.5624.2825A.2979.2979,0,0,1,128.4615,71Z"/>
        <path class="sapIllus_StrokeDetailColor" d="M128.4615,93a.772.772,0,0,1-.5488-.2287l-4.6832-4.707a.7913.7913,0,0,1-.003-1.1115.7724.7724,0,0,1,1.1-.0031l4.08,4.1006,7.2155-8.7677a.7765.7765,0,0,1,1.096-.1028.79.79,0,0,1,.1018,1.1069l-7.76,9.4293a.7694.7694,0,0,1-.5624.2825A.2979.2979,0,0,1,128.4615,93Z"/>
        <path class="sapIllus_StrokeDetailColor" d="M128.4833,113.9346a.7785.7785,0,0,1-.551-.2274l-4.7019-4.679a.7813.7813,0,1,1,1.1019-1.1079l4.096,4.0762,7.2444-8.7156a.7814.7814,0,0,1,1.2026.9981l-7.7908,9.3733a.775.775,0,0,1-.5646.2808A.2987.2987,0,0,1,128.4833,113.9346Z"/>
        <path class="sapIllus_StrokeDetailColor" d="M128.4833,135.9346a.7785.7785,0,0,1-.551-.2274l-4.7019-4.679a.7813.7813,0,1,1,1.1019-1.1079l4.096,4.0762,7.2444-8.7156a.7814.7814,0,0,1,1.2026.9981l-7.7908,9.3733a.775.775,0,0,1-.5646.2808A.2987.2987,0,0,1,128.4833,135.9346Z"/>
    <path class="sapIllus_PatternShadow" d="M236.9021,43.826a15.3133,15.3133,0,0,0-10.1164-.0492c-9.5607,3.0105-11.2,11.6463-11.2,20.3405V80.3758h27.6038a2.9262,2.9262,0,0,0,2.9263-2.9262V67.1173C246,61,245,47,236.9021,43.826Z"/>
    <path class="sapIllus_Layering1" d="M236.0154,11.01a1.05,1.05,0,0,0-1.1808.8966L233.0127,25.18a.9689.9689,0,0,0-.0117.2009,1.0489,1.0489,0,0,0,.9075.9931,1.0309,1.0309,0,0,0,.1851.0085,1.0533,1.0533,0,0,0,.9946-.9056l1.8236-13.2783a1.0359,1.0359,0,0,0-.1981-.7757A1.0471,1.0471,0,0,0,236.0154,11.01Z"/>
    <path class="sapIllus_Layering1" d="M261.7946,19.1273a1.05,1.05,0,0,0-1.4813.0878l-8.9012,10.0323a1.0495,1.0495,0,0,0,1.5717,1.3912l8.9012-10.0324A1.0516,1.0516,0,0,0,261.7946,19.1273Z"/>
    <path class="sapIllus_Layering1" d="M274.6562,40.6955a1.0487,1.0487,0,0,0-1.3414-.633l-12.62,4.5326a1.0432,1.0432,0,0,0-.6939,1.0327,1.0874,1.0874,0,0,0,.0605.31,1.05,1.05,0,0,0,1.3423.6315l12.62-4.5326A1.0423,1.0423,0,0,0,274.6562,40.6955Z"/>
    <path class="sapIllus_StrokeDetailColor" d="M237.2285,42.9072c-.14-.0518-.295-.1066-.4582-.1625a20.3924,20.3924,0,0,0-4.65-.9949c-.551-.0535-1.07-.1011-1.3682-.122-.8072-.0565-1.7706-.1183-2.2458-.1278H129.952c-18.05.334-20.4832,11.5783-20.4832,22.5336v83.2987H79.29a18.4331,18.4331,0,0,0-18.3952,18.43v35.05a12.9981,12.9981,0,0,1-6.2257,10.9421,1.482,1.482,0,0,0-.5394,1.8525,1.5345,1.5345,0,0,0,1.4233.8928h87.1735a2.4983,2.4983,0,0,0,1.8129-.77,31.1876,31.1876,0,0,0,8.5374-21.4911L153,188h46a17.5142,17.5142,0,0,0,10.5713-3.365,15.98,15.98,0,0,0,6.1412-12.6389l-.001-90.6494H243.5a3.5,3.5,0,0,0,3.5-3.5v-8.668C247,53.9331,243.8037,45.3394,237.2285,42.9072ZM154.8768,154.2135a15.791,15.791,0,0,0-2.7995,8.9872v29.0385a30.1842,30.1842,0,0,1-8.2641,20.8025,1.4937,1.4937,0,0,1-1.0865.4568H55.5039a.4976.4976,0,0,1-.2783-.9125,13.9569,13.9569,0,0,0,6.6691-11.7734v-35.05A17.4317,17.4317,0,0,1,79.29,148.3338h29.7109L109,148.335l52.5867-.02A14.098,14.098,0,0,0,154.8768,154.2135ZM158.4963,187c-.0057-1.3287-.01-6.8921-.0041-23.8848a13.7754,13.7754,0,0,1,15.1135-13.623c.3179.1327.6394.2538.95.41a15.27,15.27,0,0,1,8.2,13.7246v7.5222a16.9865,16.9865,0,0,0,4.1225,11.291,16.5033,16.5033,0,0,0,6.69,4.56Zm56.2165-15.0039a15.0122,15.0122,0,0,1-14.9994,15.0361h-.4012a15.5112,15.5112,0,0,1-15.5569-15.51v-8.321a15.8971,15.8971,0,0,0-9.39-14.4982c-.1362-.0608-.2777-.1031-.4151-.16l-.0038-.0026c-.0264-.0112-.1871-.0778-.4511-.1728a15.64,15.64,0,0,0-4.1071-.9588,19.5852,19.5852,0,0,0-2.4526-.1584c-.2418,0-.4757.0254-.714.0371H110.4684V64.0336c0-10.9959,2.3624-21.2148,19.4929-21.5321h96.99a14.696,14.696,0,0,0-10.085,8.7945c-1.7939,3.982-2.1654,8.6476-2.1654,12.8827v17.168h.0108ZM246,77.8467a2.5,2.5,0,0,1-2.5,2.5h-22V64.048c.4207-8.4542,3.3219-17.5783,11.3792-19.6645a7.8875,7.8875,0,0,1,8.07,2.44C244.303,50.8723,246,58.3529,246,69.1787Z"/>
</svg>
