<svg width="128" height="128" viewBox="0 0 128 128" fill="none" xmlns="http://www.w3.org/2000/svg" id="sapIllus-Spot-SearchFolder">
<mask id="mask0_396_4341" style="mask-type:alpha" maskUnits="userSpaceOnUse" x="0" y="0" width="128" height="128">
<circle cx="64" cy="64" r="64" style="fill:var(--sapContent_Illustrative_Color7)"/>
</mask>
<g mask="url(#mask0_396_4341)">
<path d="M133.773 -9.5H-11.7733C-12.722 -9.50125 -13.6616 -9.23511 -14.5384 -8.71682C-15.4151 -8.19852 -16.2118 -7.43821 -16.883 -6.47936C-17.5541 -5.5205 -18.0865 -4.38191 -18.4498 -3.12865C-18.813 -1.87539 -19 -0.532041 -19 0.824608V123.166C-19 125.907 -18.2386 128.535 -16.8834 130.473C-15.5281 132.411 -13.69 133.5 -11.7733 133.5H133.773C135.69 133.5 137.528 132.411 138.883 130.473C140.239 128.535 141 125.907 141 123.166V0.824608C141 -0.532041 140.813 -1.87539 140.45 -3.12865C140.087 -4.38191 139.554 -5.5205 138.883 -6.47936C138.212 -7.43821 137.415 -8.19852 136.538 -8.71682C135.662 -9.23511 134.722 -9.50125 133.773 -9.5Z" style="fill:var(--sapContent_Illustrative_Color7)"/>
<path d="M-20.3386 106.918L19.1729 93.6098C20.8583 93.0374 21.7487 91.2248 21.1922 89.5553L1.82599 32.0609C1.25359 30.3755 -0.55901 29.4851 -2.22851 30.0416L-41.74 43.3658C-43.4254 43.9382 -44.3158 45.7508 -43.7593 47.4203L-24.3931 104.915C-23.8207 106.6 -22.0081 107.49 -20.3386 106.934V106.918Z" style="fill:var(--sapContent_Illustrative_Color19)"/>
<path d="M-22.04 105.901L17.3125 92.4174C18.982 91.845 19.8724 90.0324 19.3 88.3629L-0.32061 31.107C-0.893009 29.4375 -2.70561 28.5471 -4.37511 29.1195L-43.7276 42.6027C-45.3971 43.1751 -46.2875 44.9877 -45.7151 46.6572L-26.1104 103.913C-25.538 105.583 -23.7254 106.473 -22.0559 105.901H-22.04Z" style="fill:var(--sapContent_Illustrative_Color18)"/>
<path d="M162.883 37.3364L124.445 24.1694C122.812 23.615 121.041 24.4774 120.487 26.1098L101.329 82.0272C100.775 83.6596 101.637 85.4306 103.27 85.985L141.708 99.152C143.341 99.7064 145.112 98.844 145.666 97.2116L164.824 41.2942C165.378 39.6618 164.516 37.8908 162.883 37.3364Z" style="fill:var(--sapContent_Illustrative_Color18)"/>
<path d="M147.206 60.2825L120.425 51.1041C119.532 50.7961 118.577 51.2735 118.269 52.1667C117.961 53.0599 118.439 54.0147 119.332 54.3227L146.113 63.5011C147.006 63.8091 147.961 63.3317 148.269 62.4385C148.577 61.5453 148.099 60.5905 147.206 60.2825Z" style="fill:var(--sapContent_Illustrative_Color7)"/>
<path d="M144.896 65.7341L118.115 56.5557C117.222 56.2477 116.267 56.7251 115.959 57.6183C115.651 58.5115 116.129 59.4663 117.022 59.7743L143.803 68.9527C144.696 69.2607 145.666 68.7833 145.959 67.8901C146.267 66.9969 145.789 66.0421 144.896 65.7341Z" style="fill:var(--sapContent_Illustrative_Color7)"/>
<path d="M130.174 66.7813L115.913 61.8995C115.02 61.5915 114.05 62.0689 113.757 62.9621C113.449 63.8553 113.927 64.8101 114.82 65.1181L129.096 69.9999C129.989 70.3079 130.944 69.8305 131.252 68.9373C131.56 68.0441 131.082 67.0893 130.189 66.7813H130.174Z" style="fill:var(--sapContent_Illustrative_Color7)"/>
<path d="M75.8954 99.929L71.3734 100.999L94.8756 95.5309L87.2941 97.2811L75.8954 99.929Z" style="fill:var(--sapContent_Illustrative_Color20)"/>
<path d="M36.5399 103.362L36.3524 99.0238L27.1585 63.3159C27.1216 63.1759 27.1132 63.0299 27.1337 62.8866C27.1543 62.7433 27.2034 62.6056 27.2782 62.4815C27.353 62.3574 27.452 62.2495 27.5692 62.1642C27.6865 62.0789 27.8196 62.0178 27.9609 61.9846L29.6632 61.5807L28.5009 57.0929C28.4651 56.9519 28.4576 56.8052 28.4791 56.6614C28.5005 56.5175 28.5503 56.3793 28.6256 56.2548C28.7009 56.1303 28.8003 56.0219 28.9179 55.936C29.0355 55.85 29.169 55.7881 29.3108 55.754L31.7555 55.178L30.6531 50.1368C30.6321 49.9819 30.6421 49.8245 30.6824 49.6736C30.7228 49.5226 30.7928 49.3811 30.8883 49.2573C30.9838 49.1335 31.1031 49.0298 31.239 48.9523C31.375 48.8747 31.5251 48.8248 31.6805 48.8055L66.5439 41.9839L68.5836 38.9921L23.139 49.7553C22.8595 49.8221 22.5963 49.9446 22.3653 50.1152C22.1343 50.2859 21.9402 50.5012 21.7946 50.7484C21.6489 50.9956 21.5548 51.2696 21.5178 51.5539C21.4808 51.8382 21.5017 52.127 21.5792 52.4031L35.9475 103.684C36.3176 105 37.1509 106.139 38.2947 106.892C37.7682 106.462 37.3394 105.924 37.0369 105.315C36.7344 104.707 36.565 104.041 36.5399 103.362Z" style="fill:var(--sapContent_Illustrative_Color20)"/>
<path d="M27.9609 61.9772C27.8196 62.0104 27.6865 62.0714 27.5692 62.1568C27.452 62.2421 27.353 62.35 27.2782 62.474C27.2034 62.5981 27.1543 62.7358 27.1338 62.8792C27.1132 63.0225 27.1216 63.1685 27.1585 63.3085L36.36 99.0163L35.76 85.2164L29.6708 61.5732L27.9609 61.9772Z" style="fill:var(--sapContent_Illustrative_Color7)"/>
<path d="M31.7555 55.1482L29.3108 55.7241C29.169 55.7583 29.0355 55.8201 28.9179 55.906C28.8003 55.992 28.7009 56.1003 28.6256 56.2249C28.5503 56.3494 28.5005 56.4876 28.479 56.6314C28.4576 56.7753 28.4651 56.922 28.5009 57.0629L29.6632 61.5507L35.7525 85.1939L35.1151 70.4815L31.7555 55.1482Z" style="fill:var(--sapContent_Illustrative_Color18)"/>
<path d="M30.6531 50.1068L31.7555 55.1481L35.1151 70.5037L34.5677 57.7061C34.5156 56.5598 34.8661 55.4313 35.5587 54.5151C36.2514 53.5989 37.2429 52.9525 38.3622 52.6873L62.3144 47.0102C62.9084 46.8749 63.4285 46.5192 63.7692 46.0154L66.5439 41.954L31.6805 48.7604C31.5236 48.7797 31.3722 48.83 31.2351 48.9085C31.098 48.9871 30.9781 49.0921 30.8823 49.2176C30.7866 49.3431 30.717 49.4864 30.6776 49.6391C30.6383 49.7918 30.63 49.9509 30.6531 50.1068Z" style="fill:var(--sapContent_Illustrative_Color7)"/>
<path d="M108.572 24.3875L72.6734 32.86C72.0739 33.0045 71.5495 33.3643 71.2013 33.8701L68.1661 38.3927L66.1021 41.4079L63.2945 45.5009C62.9498 46.0086 62.4235 46.367 61.8225 46.5034L37.5863 52.2247C36.4537 52.492 35.4504 53.1434 34.7495 54.0667C34.0486 54.99 33.694 56.1273 33.7467 57.2825L34.3006 70.1797L34.9456 85.0066L35.5527 98.9138L35.7424 103.286C35.7757 104.001 35.9672 104.7 36.3032 105.334C36.6393 105.967 37.1116 106.519 37.6867 106.951C38.2618 107.383 38.9255 107.683 39.6308 107.832C40.336 107.98 41.0655 107.972 41.7673 107.808L70.9812 100.919L75.5341 99.8334L87.0678 97.165L94.7318 95.4011L115.978 90.4941C116.466 90.3849 116.897 90.1042 117.193 89.7038C117.489 89.3035 117.629 88.8105 117.587 88.3157L112.852 27.5082C112.817 27.0073 112.673 26.5199 112.43 26.08C112.186 25.6401 111.849 25.2583 111.441 24.9612C111.034 24.664 110.566 24.4588 110.071 24.3597C109.575 24.2607 109.064 24.2702 108.572 24.3875Z" style="fill:var(--sapContent_Illustrative_Color20)"/>
<path d="M26.744 27.8795C26.5634 28.0229 26.4248 28.2124 26.3427 28.4279C26.2607 28.6435 26.2383 28.8772 26.2779 29.1044L27.0785 34.5337C27.2105 35.4317 28.0235 35.8055 28.7273 35.7019C29.0169 35.67 29.2883 35.5449 29.5008 35.3455C29.7132 35.1462 29.8552 34.8832 29.9054 34.5962C29.9255 34.4568 29.9244 34.3152 29.9022 34.1761L29.1016 28.7469C29.0714 28.508 28.9771 28.2817 28.8288 28.0919C28.6805 27.9022 28.4837 27.7561 28.2592 27.6691C28.0096 27.5722 27.7394 27.5407 27.4742 27.5775C27.2091 27.6143 26.9577 27.7183 26.744 27.8795Z" style="fill:var(--sapContent_Illustrative_Color5)"/>
<path d="M4.64001 47.8904C4.58295 48.0452 4.5588 48.2103 4.56912 48.3751C4.57944 48.5398 4.62399 48.7006 4.69993 48.8472C4.77587 48.9937 4.88154 49.1228 5.01018 49.2263C5.13883 49.3297 5.28762 49.4052 5.44706 49.4479L10.5422 51.0652C10.7256 51.1227 10.9186 51.1431 11.11 51.1252C11.3013 51.1073 11.4872 51.0515 11.6568 50.9609C11.8263 50.8704 11.9762 50.747 12.0975 50.5979C12.2188 50.4488 12.3092 50.2771 12.3635 50.0927C12.388 50.0173 12.4062 49.94 12.4181 49.8616C12.466 49.5725 12.4039 49.276 12.2441 49.0305C12.0842 48.7849 11.8382 48.6082 11.5545 48.5351L6.46124 46.9198C6.27799 46.862 6.08504 46.8413 5.89369 46.8589C5.70234 46.8766 5.51643 46.9322 5.34684 47.0226C5.17725 47.113 5.02738 47.2363 4.90602 47.3853C4.78465 47.5343 4.69422 47.706 4.64001 47.8904Z" style="fill:var(--sapContent_Illustrative_Color5)"/>
<path d="M11.9201 34.7797C11.904 34.9594 11.9246 35.1404 11.9808 35.3117C12.037 35.4831 12.1276 35.6412 12.247 35.7764L17.5407 41.8936C17.7797 42.1667 18.1149 42.3367 18.4763 42.3683C18.8378 42.3999 19.1974 42.2905 19.4801 42.063C19.7414 41.851 19.9134 41.5484 19.9622 41.2155C19.9899 41.0235 19.976 40.8278 19.9213 40.6417C19.8666 40.4556 19.7724 40.2835 19.6452 40.137L14.3515 34.0198C14.1114 33.745 13.7742 33.5741 13.4107 33.5428C13.0472 33.5115 12.6857 33.6224 12.4023 33.8521C12.2636 33.9663 12.1494 34.1073 12.0665 34.2667C11.9837 34.4261 11.9339 34.6006 11.9201 34.7797Z" style="fill:var(--sapContent_Illustrative_Color5)"/>
<g clip-path="url(#clip0_396_4341)">
<path opacity="0.5" d="M93.8192 91.8765C106.786 89.3881 115.245 76.67 112.708 63.448C110.171 50.2259 97.6032 41.536 84.6361 44.0245C71.6691 46.5129 63.2099 59.231 65.7486 72.4597C68.2873 85.6884 80.8522 94.365 93.8192 91.8765Z" style="fill:var(--sapContent_Illustrative_Color7)"/>
<path d="M94.4468 45.0333L85.1377 43.9282L78.8151 90.4705L88.131 91.5744L94.4468 45.0333Z" style="fill:var(--sapContent_Illustrative_Color8)"/>
<path d="M91.8128 92.2615L98.4008 45.585L95.5055 45.2392L88.9108 91.917L91.8128 92.2615Z" style="fill:var(--sapContent_Illustrative_Color8)"/>
<path d="M105.011 87.0384L99.0823 90.8666L105.139 100.244L111.061 96.4174L105.011 87.0384Z" style="fill:var(--sapContent_Illustrative_Color6)"/>
<path d="M105.218 99.3899C104.917 99.5874 104.707 99.8958 104.633 100.248C104.559 100.6 104.627 100.967 104.823 101.269L118.944 123.043C119.527 123.923 120.435 124.536 121.468 124.748C122.501 124.961 123.577 124.755 124.459 124.176L125.161 123.716C125.606 123.431 125.99 123.06 126.29 122.625C126.59 122.19 126.8 121.7 126.908 121.182C127.118 120.147 126.912 119.07 126.333 118.186L112.216 96.4381C112.119 96.2869 111.992 96.1565 111.844 96.0545C111.696 95.9525 111.529 95.8808 111.353 95.8437C111.177 95.8066 110.995 95.8047 110.818 95.8381C110.642 95.8716 110.473 95.9398 110.323 96.0387L105.218 99.3899Z" style="fill:var(--sapContent_Illustrative_Color3)"/>
<path d="M98.7521 90.375L99.7276 91.845C99.7276 91.845 103.358 92.6948 106.29 88.9006L104.729 86.5444L102.054 88.5416L98.7521 90.375Z" style="fill:var(--sapContent_Illustrative_Color4)"/>
<path d="M94.1388 92.675C88.4316 93.7848 82.5161 92.8803 77.4011 90.1159C72.286 87.3514 68.2882 82.8982 66.0893 77.5155C63.8904 72.1328 63.6265 66.154 65.3428 60.5986C67.0591 55.0433 70.6491 50.2554 75.5008 47.0513C80.3525 43.8473 86.1654 42.4255 91.9482 43.0285C97.731 43.6315 103.126 46.2219 107.212 50.3579C111.299 54.494 113.824 59.9196 114.358 65.7096C114.892 71.4995 113.401 77.2953 110.139 82.1086C106.416 87.6116 100.661 91.412 94.1388 92.675ZM85.0636 45.3847C79.8202 46.3814 75.0848 49.1659 71.6647 53.2635C68.2445 57.3611 66.3513 62.5182 66.3078 67.8556C66.2643 73.193 68.0731 78.3804 71.426 82.5334C74.7788 86.6864 79.4682 89.548 84.6946 90.6304C89.921 91.7127 95.361 90.9488 100.087 88.4689C104.813 85.989 108.533 81.9465 110.612 77.0307C112.692 72.1149 113.002 66.6299 111.49 61.5109C109.978 56.3919 106.738 51.9557 102.321 48.9586C99.821 47.257 97.0097 46.0654 94.0483 45.4521C91.087 44.8389 88.0338 44.816 85.0636 45.3847Z" style="fill:var(--sapContent_Illustrative_Color4)"/>
</g>
</g>
<defs>
<clipPath id="clip0_396_4341">
<rect width="52.2923" height="87.196" style="fill:var(--sapContent_Illustrative_Color8)" transform="translate(59.9389 48.0773) rotate(-10.8633)"/>
</clipPath>
</defs>
</svg>
