<svg width="160" height="161" viewBox="0 0 160 161" fill="none" xmlns="http://www.w3.org/2000/svg" id="sapIllus-Dialog-BalloonSky">
<path d="M80.3297 106.589H66.1512C66.0616 106.59 65.9728 106.608 65.8902 106.642C65.808 106.675 65.7335 106.724 65.6714 106.787C65.6076 106.849 65.5571 106.923 65.5233 107.005C65.4885 107.088 65.4705 107.177 65.4703 107.266V156.517H70.875C70.9632 156.517 71.0506 156.534 71.1326 156.566C71.2151 156.6 71.2897 156.65 71.3513 156.714C71.4156 156.776 71.466 156.85 71.4995 156.933C71.5346 157.014 71.5526 157.102 71.5524 157.19V127.537C71.5696 127.412 71.6128 127.292 71.6794 127.184C71.7481 127.079 71.8382 126.989 71.944 126.92L81.0106 122.415V107.259C81.0079 107.081 80.9357 106.912 80.8095 106.787C80.6805 106.662 80.5089 106.592 80.3297 106.589Z" fill="var(--sapContent_Illustrative_Color20)"/>
<path d="M56.0226 88.412V82.9135C56.0219 82.767 55.9736 82.6248 55.8851 82.5081C55.7975 82.3912 55.6733 82.3069 55.5323 82.2685L45.0192 79.216L23.0934 72.8504C22.9928 72.82 22.8864 72.814 22.783 72.8328C22.6793 72.8508 22.5814 72.8931 22.4972 72.9561C22.413 73.019 22.3452 73.1012 22.2997 73.1958C22.2515 73.2895 22.2272 73.3936 22.2291 73.4989V83.2378H25.9792C26.6228 83.2373 27.2601 83.3638 27.8545 83.61C28.449 83.8562 28.9891 84.2172 29.4436 84.6723C29.8991 85.1265 30.2605 85.666 30.5069 86.26C30.7533 86.8539 30.8799 87.4906 30.8795 88.1336C30.8752 88.3701 30.8516 88.6059 30.8089 88.8385H32.8057C33.4497 88.8382 34.0875 88.9648 34.6826 89.2109C35.2776 89.4571 35.8183 89.818 36.2736 90.2731C37.192 91.1914 37.7083 92.4362 37.7094 93.7344C37.7085 95.0336 37.1922 96.2795 36.2736 97.1992C35.3531 98.1169 34.1061 98.6328 32.8057 98.6337H22.222V135.89C31.5324 145.606 43.1478 152.816 55.9909 156.852V88.412H56.0226Z" fill="var(--sapContent_Illustrative_Color19)"/>
<path d="M70.8752 156.517H62.0944C62.0062 156.517 61.9188 156.534 61.8368 156.566C61.7552 156.602 61.681 156.652 61.6181 156.714C61.5538 156.775 61.5043 156.85 61.4735 156.933C61.4383 157.014 61.4203 157.102 61.4205 157.19V158.329C64.757 159.122 68.1415 159.699 71.5526 160.056V157.19C71.5528 157.102 71.5348 157.014 71.4997 156.933C71.4662 156.851 71.4158 156.776 71.3515 156.714C71.2899 156.65 71.2153 156.6 71.1328 156.566C71.0508 156.534 70.9634 156.517 70.8752 156.517Z" fill="var(--sapContent_Illustrative_Color19)"/>
<path d="M62.0944 156.517H65.4706V107.266C65.4708 107.176 65.4888 107.088 65.5235 107.005C65.5574 106.923 65.6078 106.848 65.6717 106.786C65.7338 106.724 65.8083 106.675 65.8904 106.642C65.9731 106.607 66.0618 106.589 66.1515 106.589H76.7669V46.7781C76.7638 46.6817 76.741 46.5869 76.6998 46.4997C76.6705 46.4284 76.6326 46.3609 76.5869 46.2988C76.4974 46.1646 76.3763 46.0544 76.2341 45.978C76.0889 45.9051 75.9273 45.8711 75.7649 45.8793H45.8592C45.6912 45.876 45.525 45.9148 45.3758 45.9921L45.3123 46.0274C45.242 46.0838 45.1863 46.1563 45.1501 46.2388L45.1218 46.2776C45.0566 46.4559 45.0255 46.6448 45.0301 46.8345V79.2478L55.5467 82.3003C55.6875 82.3392 55.8115 82.4234 55.8995 82.5399C55.985 82.658 56.0319 82.7996 56.0335 82.9453V156.862C57.8092 157.419 59.6096 157.914 61.4347 158.346V157.208C61.431 157.118 61.4454 157.028 61.4771 156.943C61.5096 156.86 61.5588 156.785 61.6217 156.721C61.6835 156.656 61.758 156.605 61.8404 156.57C61.9209 156.536 62.0071 156.518 62.0944 156.517Z" fill="var(--sapContent_Illustrative_Color18)"/>
<path d="M93.972 116.043H93.9473C93.8766 116.039 93.8062 116.054 93.7427 116.085L81.0106 122.408L71.944 126.913C71.8382 126.982 71.748 127.072 71.6794 127.177C71.6122 127.284 71.5689 127.404 71.5524 127.53V160.056C74.3555 160.352 77.1723 160.5 79.991 160.5C84.8612 160.5 89.7214 160.059 94.5117 159.182V116.645C94.5149 116.522 94.4844 116.4 94.4235 116.293C94.3762 116.216 94.3093 116.152 94.2295 116.11C94.1506 116.066 94.0621 116.043 93.972 116.043ZM83.7024 141.336C83.702 141.427 83.6666 141.514 83.6036 141.579C83.5736 141.612 83.5372 141.639 83.4966 141.658C83.4559 141.677 83.4119 141.687 83.3672 141.689H76.5972C76.5047 141.688 76.416 141.651 76.3503 141.586C76.3169 141.554 76.2904 141.515 76.2723 141.472C76.2541 141.429 76.2446 141.383 76.2444 141.336V134.586C76.2473 133.602 76.639 132.658 77.3345 131.96C78.0314 131.266 78.9751 130.876 79.9593 130.875C80.9445 130.875 81.8894 131.266 82.5875 131.96C82.935 132.304 83.211 132.713 83.3999 133.164C83.5888 133.614 83.6868 134.098 83.6882 134.586L83.7024 141.336Z" fill="var(--sapContent_Illustrative_Color19)"/>
<path d="M79.991 130.878C79.0067 130.878 78.0627 131.269 77.3663 131.964C76.6713 132.66 76.2806 133.603 76.2797 134.586V141.332C76.2794 141.379 76.2883 141.425 76.3059 141.468C76.3234 141.511 76.3493 141.55 76.382 141.583C76.4149 141.615 76.454 141.641 76.497 141.659C76.54 141.676 76.586 141.685 76.6325 141.685H83.3848C83.4759 141.681 83.5619 141.642 83.6247 141.576C83.6865 141.51 83.7206 141.423 83.72 141.332V134.586C83.7186 134.102 83.6227 133.623 83.4377 133.176C83.2482 132.725 82.9727 132.314 82.6263 131.967C82.2808 131.624 81.8708 131.352 81.4198 131.167C80.9676 130.977 80.4818 130.878 79.991 130.878Z" fill="var(--sapContent_Illustrative_Color20)"/>
<path d="M22.2681 98.634H32.8517C34.1522 98.6331 35.3992 98.1172 36.3196 97.1994C36.7751 96.7445 37.1364 96.2044 37.3828 95.6098C37.6291 95.0153 37.7558 94.3781 37.7555 93.7346C37.7559 93.0917 37.6293 92.455 37.3829 91.861C37.1365 91.267 36.7752 90.7275 36.3196 90.2734C35.8646 89.8176 35.3241 89.4561 34.729 89.2093C34.134 88.9625 33.496 88.8354 32.8517 88.8353H30.855C30.8978 88.6026 30.9214 88.3668 30.9255 88.1303C30.9262 87.4868 30.7997 86.8495 30.5533 86.2549C30.3069 85.6603 29.9455 85.1202 29.4897 84.6655C29.0346 84.2101 28.494 83.849 27.8989 83.6028C27.3038 83.3566 26.6659 83.2303 26.0218 83.231H10.1463C9.50217 83.2306 8.86431 83.3576 8.26949 83.6046C7.67411 83.848 7.13323 84.2075 6.67841 84.662C6.22347 85.1164 5.86368 85.6568 5.62005 86.2516C5.37281 86.8459 5.24572 87.4832 5.24609 88.1268C5.24568 88.7698 5.3723 89.4065 5.61869 90.0004C5.86509 90.5944 6.22641 91.1339 6.68194 91.5881C7.13727 92.0432 7.67792 92.4041 8.27298 92.6502C8.86803 92.8964 9.5058 93.0229 10.1498 93.0226H12.1431C12.1037 93.2558 12.0801 93.4913 12.0725 93.7276C12.0766 94.7384 12.3933 95.7233 12.9792 96.5474C13.1316 96.7588 13.299 96.9591 13.4802 97.1466L13.5084 97.1783C13.9641 97.6317 14.5047 97.991 15.0995 98.2357C15.6925 98.4914 16.3305 98.6267 16.9763 98.634H22.2681Z" fill="var(--sapContent_Illustrative_Color18)"/>
<path d="M12.965 46.944C12.837 47.1094 12.7192 47.2824 12.6122 47.4621C12.5985 47.5009 12.5985 47.5432 12.6122 47.582C12.6176 47.602 12.6269 47.6207 12.6396 47.637C12.6524 47.6534 12.6682 47.667 12.6863 47.6771C12.71 47.6906 12.7367 47.6978 12.7639 47.6983C12.7924 47.6985 12.8203 47.6912 12.8451 47.6771C12.8689 47.6626 12.8884 47.6419 12.9015 47.6172C12.9955 47.4529 13.1004 47.2951 13.2155 47.1449C13.2301 47.13 13.2409 47.1119 13.2472 47.092C13.2505 47.0722 13.2505 47.0519 13.2472 47.0321C13.2451 47.0112 13.2392 46.9909 13.2296 46.9722C13.2185 46.9534 13.2042 46.9367 13.1873 46.9228C13.1562 46.8988 13.1171 46.8875 13.0779 46.8911C13.0352 46.8947 12.9951 46.9135 12.965 46.944Z" fill="var(--sapContent_Illustrative_Color15)"/>
<path d="M11.8006 70.4821C11.8006 70.246 11.8007 69.9922 11.8218 69.6926C11.8887 68.9945 11.9983 68.3012 12.1499 67.6165C12.2269 67.3368 12.2742 67.0497 12.291 66.76C12.2452 66.1608 13.0672 65.1633 13.6105 64.5042C13.7866 64.3049 13.9492 64.0941 14.0973 63.8733C14.7614 62.7589 15.3667 61.6107 15.9106 60.4331L15.5896 60.3732C15.0599 61.5157 14.4712 62.6298 13.8257 63.7111C13.6858 63.9182 13.5326 64.116 13.367 64.3033C12.7567 65.0435 11.9206 66.0656 11.9735 66.7706C11.9552 67.026 11.9103 67.2788 11.8395 67.5249C11.6863 68.232 11.5756 68.9476 11.5078 69.6679C11.5078 69.9746 11.4867 70.2283 11.4867 70.468C11.4867 70.7077 11.4867 70.9826 11.462 71.2505C11.4579 71.3393 11.4663 71.4283 11.4867 71.5149V71.5677C11.4785 71.5941 11.4785 71.6224 11.4867 71.6488C11.4973 71.7283 11.4973 71.8089 11.4867 71.8885C11.4767 72.0225 11.447 72.1544 11.3985 72.2797C11.3411 72.4073 11.3323 72.5515 11.3738 72.6851V72.7274C11.4139 72.7903 11.4653 72.8453 11.5255 72.8895C11.5864 72.932 11.6545 72.9631 11.7266 72.9811C11.8218 73.0164 11.8747 73.0375 11.903 73.0904C11.9312 73.1433 11.903 73.3301 11.8148 73.5204C11.8111 73.5402 11.8111 73.5605 11.8148 73.5804C11.8117 73.6002 11.8117 73.6204 11.8148 73.6403C11.8228 73.6574 11.8323 73.674 11.843 73.6896L11.8888 73.7284C11.9131 73.7403 11.9395 73.7475 11.9665 73.7495C11.9949 73.7467 12.0224 73.7383 12.0476 73.7249C12.0724 73.7115 12.0922 73.6905 12.1041 73.6649C12.1787 73.5608 12.226 73.4396 12.2416 73.3125C12.2567 73.1861 12.241 73.0579 12.1958 72.9388C12.1748 72.9004 12.1473 72.8658 12.1146 72.8366C12.0401 72.7635 11.9476 72.7113 11.8465 72.6851C11.7548 72.6498 11.7019 72.6287 11.6807 72.5793C11.6595 72.53 11.6807 72.5018 11.7089 72.3749C11.7633 72.2272 11.7988 72.0732 11.8148 71.9167C11.829 71.786 11.8218 71.6538 11.7936 71.5254V71.4937L11.7689 71.3844C11.7654 71.3458 11.7654 71.3068 11.7689 71.2681C11.7971 71.0143 11.8006 70.7606 11.8006 70.4821Z" fill="var(--sapContent_Illustrative_Color6)"/>
<path d="M13.0531 45.9042C12.3184 46.8407 11.8329 47.9477 11.6419 49.1222C10.9999 52.9783 13.7339 56.4113 15.7801 59.1536L15.4485 59.5942L15.0957 60.0947C15.086 60.1116 15.0778 60.1293 15.071 60.1476C15.0675 60.1662 15.0675 60.1853 15.071 60.204C15.0776 60.2229 15.0871 60.2408 15.0992 60.2568C15.1101 60.2712 15.1247 60.2822 15.1416 60.2885L15.1804 60.3062L15.5861 60.3837L15.9071 60.4436L16.1153 60.4824L16.4681 60.5458C16.4845 60.5497 16.5016 60.5497 16.5181 60.5461C16.5346 60.5424 16.55 60.5351 16.5633 60.5247C16.5778 60.5158 16.5903 60.504 16.6 60.4901C16.6097 60.4761 16.6164 60.4603 16.6197 60.4436C16.6251 60.4326 16.6278 60.4206 16.6278 60.4084C16.6278 60.3962 16.6251 60.3841 16.6197 60.3731L16.2952 59.2347C18.1799 58.1881 19.9247 56.9079 21.4882 55.4244C21.6364 55.2764 21.781 55.1284 21.9221 54.9803C22.1197 54.7724 22.3067 54.5609 22.4866 54.3459C22.5607 54.2507 22.6383 54.159 22.7089 54.0639C22.9161 53.8009 23.1069 53.5254 23.2804 53.2391C23.4104 53.0275 23.5282 52.8086 23.6332 52.5835C23.7804 52.2668 23.8916 51.9345 23.9648 51.5931C24.4552 49.1892 23.8378 46.9439 22.4548 45.4248C21.5981 44.4827 20.4597 43.8423 19.2092 43.599C18.0696 43.364 16.8866 43.4569 15.7978 43.8669C14.7089 44.2739 13.7575 44.9802 13.0531 45.9042ZM13.2083 47.1449C13.0931 47.2943 12.9893 47.4522 12.8978 47.6172C12.8825 47.6413 12.862 47.6618 12.8379 47.6771C12.8131 47.6911 12.7852 47.6984 12.7567 47.6982C12.7295 47.6978 12.7028 47.6905 12.6791 47.6771C12.661 47.667 12.6452 47.6533 12.6324 47.637C12.6197 47.6207 12.6104 47.6019 12.605 47.5819C12.5913 47.5432 12.5913 47.5009 12.605 47.4621C12.712 47.2824 12.8298 47.1094 12.9578 46.944C12.9867 46.9131 13.0253 46.8932 13.0672 46.8876C13.1079 46.885 13.1481 46.8976 13.1801 46.9228C13.1969 46.9357 13.2103 46.9527 13.2189 46.9721C13.2284 46.9909 13.2344 47.0112 13.2365 47.0321C13.2402 47.0519 13.2402 47.0722 13.2365 47.092C13.2312 47.1115 13.2216 47.1296 13.2083 47.1449Z" fill="var(--sapContent_Illustrative_Color3)"/>
<path d="M115.422 130.423L115.813 130.497L115.972 130.529H116.039C116.06 130.522 116.078 130.508 116.092 130.49C116.108 130.474 116.119 130.453 116.124 130.43C116.131 130.409 116.131 130.385 116.124 130.363L115.799 129.225C117.681 128.18 119.423 126.902 120.985 125.422C121.186 125.228 121.38 125.027 121.567 124.823C121.662 124.72 121.754 124.618 121.842 124.512C121.98 124.35 122.114 124.185 122.241 124.019C122.368 123.853 122.47 123.716 122.573 123.561C122.675 123.406 122.816 123.18 122.925 122.99L122.971 122.909C123.197 122.494 123.364 122.049 123.465 121.587C124.125 118.351 122.76 115.397 120.226 114.125C119.746 113.881 119.235 113.703 118.706 113.596C115.21 112.891 111.813 115.257 111.167 119.12C110.557 122.813 113.04 126.12 115.048 128.802L115.309 129.154L114.603 130.096C114.6 130.111 114.6 130.126 114.603 130.141V130.163C114.6 130.197 114.61 130.231 114.631 130.258C114.652 130.285 114.682 130.304 114.716 130.311L115.002 130.363L115.118 130.385L115.422 130.423ZM112.797 117.192C112.686 117.337 112.584 117.49 112.493 117.65C112.47 117.689 112.437 117.722 112.398 117.745C112.357 117.769 112.311 117.782 112.264 117.784C112.219 117.783 112.175 117.769 112.137 117.745C112.108 117.728 112.082 117.706 112.062 117.679C112.041 117.653 112.026 117.622 112.017 117.59C111.999 117.525 112.007 117.456 112.038 117.396C112.144 117.211 112.261 117.033 112.391 116.864C112.435 116.815 112.495 116.784 112.56 116.776C112.593 116.772 112.626 116.775 112.657 116.784C112.689 116.793 112.718 116.808 112.744 116.829C112.773 116.848 112.797 116.873 112.814 116.903C112.832 116.932 112.844 116.964 112.85 116.998C112.855 117.032 112.855 117.066 112.85 117.1C112.839 117.134 112.821 117.165 112.797 117.192Z" fill="var(--sapContent_Illustrative_Color1)"/>
<path d="M112.391 116.86C112.262 117.03 112.145 117.208 112.039 117.392C112.007 117.452 111.999 117.521 112.017 117.586C112.036 117.652 112.079 117.709 112.137 117.745C112.176 117.767 112.22 117.779 112.264 117.78C112.312 117.78 112.358 117.767 112.398 117.741C112.438 117.719 112.471 117.686 112.494 117.646C112.584 117.487 112.686 117.334 112.797 117.188C112.839 117.135 112.858 117.068 112.85 117.001C112.846 116.969 112.836 116.938 112.821 116.909C112.805 116.881 112.784 116.856 112.758 116.835C112.733 116.812 112.704 116.795 112.671 116.784C112.639 116.773 112.605 116.769 112.571 116.772C112.537 116.774 112.503 116.782 112.472 116.798C112.441 116.813 112.414 116.834 112.391 116.86Z" fill="var(--sapContent_Illustrative_Color16)"/>
<path d="M111.004 141.569C111.014 141.604 111.02 141.641 111.022 141.678C111.026 141.687 111.026 141.697 111.022 141.706C111.029 141.767 111.029 141.828 111.022 141.889C111.007 142.023 110.977 142.154 110.93 142.281C110.899 142.35 110.883 142.426 110.884 142.503C110.884 142.579 110.899 142.655 110.93 142.725C110.97 142.789 111.022 142.845 111.082 142.89C111.143 142.933 111.211 142.964 111.283 142.982C111.378 143.017 111.428 143.038 111.46 143.091V143.123C111.475 143.262 111.44 143.402 111.361 143.518C111.35 143.553 111.35 143.591 111.361 143.627C111.366 143.649 111.376 143.669 111.389 143.687C111.403 143.705 111.419 143.72 111.438 143.733C111.462 143.744 111.487 143.75 111.512 143.75C111.541 143.751 111.569 143.743 111.594 143.729C111.618 143.716 111.638 143.695 111.65 143.669C111.724 143.545 111.772 143.407 111.791 143.264C111.811 143.154 111.792 143.041 111.738 142.943C111.7 142.879 111.649 142.823 111.588 142.779C111.527 142.734 111.459 142.703 111.385 142.686C111.294 142.654 111.241 142.633 111.216 142.584C111.216 142.518 111.228 142.452 111.251 142.39C111.303 142.24 111.338 142.085 111.354 141.928V141.787C111.353 141.696 111.341 141.605 111.318 141.516C111.298 141.445 111.289 141.371 111.294 141.297C111.318 141.019 111.318 140.765 111.318 140.497C111.318 140.229 111.318 140.007 111.318 139.708C111.389 139.01 111.498 138.317 111.646 137.631C111.725 137.352 111.773 137.065 111.791 136.775C111.745 136.172 112.571 135.178 113.114 134.516C113.29 134.318 113.453 134.108 113.601 133.888C113.76 133.627 113.915 133.352 114.07 133.078C114.423 132.433 114.776 131.745 115.129 131.037C115.224 130.843 115.319 130.649 115.414 130.448L115.09 130.388C114.56 131.531 113.971 132.645 113.326 133.726C113.186 133.932 113.033 134.129 112.867 134.315C112.292 135.02 111.523 135.943 111.474 136.655C111.47 136.702 111.47 136.749 111.474 136.796C111.452 137.051 111.407 137.304 111.34 137.55C111.176 138.257 111.058 138.972 110.987 139.693C110.987 139.997 110.987 140.254 110.966 140.494C110.944 140.733 110.966 141.008 110.948 141.273C110.949 141.374 110.968 141.474 111.004 141.569Z" fill="var(--sapContent_Illustrative_Color6)"/>
<path d="M70.7165 31.1111C70.7266 31.1254 70.7417 31.1355 70.7588 31.1393C70.766 31.1427 70.7738 31.1445 70.7817 31.1445C70.7897 31.1445 70.7975 31.1427 70.8047 31.1393C70.8286 31.1393 70.8521 31.1319 70.8717 31.1181C70.8924 31.1045 70.9085 31.0848 70.9175 31.0617C72.2687 27.7908 73.6411 25.3799 74.9958 23.8995L75.0381 23.8502C75.8297 23.0031 76.5156 22.0634 77.0808 21.0515C77.2466 20.7519 77.4089 20.4453 77.55 20.1316C77.6911 19.8179 77.8357 19.4901 77.9627 19.1623L77.737 19.0601C77.617 19.3843 77.4759 19.7051 77.3348 20.0188C77.1937 20.3325 77.0279 20.6427 76.8585 20.9423C76.3034 21.9368 75.6306 22.861 74.8547 23.6951L74.8088 23.7444C73.4365 25.2459 72.0465 27.6815 70.6847 30.9807C70.6811 30.9957 70.6811 31.0114 70.6847 31.0265C70.6838 31.0577 70.6952 31.0881 70.7165 31.1111Z" fill="var(--sapContent_Illustrative_Color6)"/>
<path d="M77.9662 19.162L78.058 19.2078L78.3861 19.3594C78.4022 19.3641 78.4193 19.3641 78.4354 19.3594C78.4515 19.3645 78.4688 19.3645 78.4848 19.3594C78.504 19.3502 78.52 19.3355 78.5307 19.3171C78.5361 19.2975 78.5361 19.2768 78.5307 19.2572L78.5095 18.2562C79.1567 18.0974 79.794 17.9008 80.4181 17.6675L80.5945 17.6006C81.0037 17.449 81.4447 17.2728 81.8963 17.0754L82.1362 16.9696C83.8754 16.1766 85.7064 15.0522 86.3979 13.6388C86.6349 13.1515 86.8137 12.6381 86.9306 12.109C86.9659 11.9504 86.9941 11.7953 87.0152 11.6367C87.0364 11.4781 87.047 11.4147 87.0541 11.2843C87.1515 10.4152 87.0303 9.53565 86.7013 8.72531C86.3656 7.91748 85.8333 7.20626 85.1525 6.6563C84.9558 6.50509 84.7483 6.36844 84.5316 6.24743C84.4293 6.18751 84.3305 6.12759 84.2212 6.07472C81.5153 4.75295 78.2238 5.96898 76.8867 8.99319C75.5496 12.0174 77.0455 15.3976 78.1356 18.0693L77.8463 18.302L77.363 18.6897C77.342 18.7093 77.3284 18.7354 77.3242 18.7637C77.3217 18.7782 77.3227 18.7931 77.327 18.8071C77.3313 18.8212 77.3388 18.8341 77.3489 18.8448C77.3582 18.8621 77.3731 18.8757 77.3912 18.8836L77.5358 18.9505L77.744 19.0492L77.9662 19.162ZM78.9787 7.04755C79.5011 6.6322 80.1006 6.32432 80.7427 6.14169C80.7736 6.13122 80.807 6.13122 80.8379 6.14169C80.8659 6.15708 80.8872 6.18216 80.8979 6.21219C80.9048 6.22649 80.9084 6.24214 80.9084 6.25801C80.9084 6.27387 80.9048 6.28953 80.8979 6.30383C80.8907 6.31799 80.8808 6.33058 80.8686 6.34087C80.8565 6.35115 80.8425 6.35893 80.8273 6.36375C80.2129 6.53664 79.6387 6.82889 79.1375 7.22378C79.1167 7.22901 79.0948 7.22901 79.074 7.22378C79.052 7.22903 79.029 7.22903 79.007 7.22378L78.9646 7.19206C78.9558 7.16576 78.9558 7.13729 78.9646 7.11099C78.9684 7.08427 78.9807 7.05951 78.9999 7.0405L78.9787 7.04755ZM78.0685 8.05209L78.0368 8.02742C78.0152 8.00441 78.0026 7.97436 78.0015 7.94282C78.0018 7.91007 78.0144 7.87861 78.0368 7.85471C78.1596 7.72897 78.2904 7.61123 78.4284 7.50223C78.4556 7.4849 78.488 7.47744 78.5201 7.48109C78.5355 7.48299 78.5503 7.48804 78.5637 7.49592C78.5771 7.5038 78.5886 7.51435 78.5977 7.52691C78.6083 7.54032 78.6155 7.55602 78.6189 7.57273C78.6206 7.58795 78.6206 7.60333 78.6189 7.61855C78.6152 7.63457 78.6092 7.65 78.6013 7.66437C78.5913 7.67783 78.5794 7.68972 78.566 7.69962C78.4409 7.79807 78.323 7.90526 78.2132 8.02037C78.195 8.04361 78.1684 8.05879 78.1391 8.06267C78.1118 8.07295 78.0817 8.07295 78.0544 8.06267L78.0685 8.05209Z" fill="var(--sapContent_Illustrative_Color1)"/>
<path d="M79.007 7.25187C79.0276 7.26308 79.0506 7.26913 79.0741 7.26949C79.0964 7.26914 79.1183 7.26307 79.1376 7.25187C79.6398 6.85657 80.2153 6.5643 80.831 6.39184C80.8461 6.38702 80.8602 6.37924 80.8723 6.36896C80.8844 6.35867 80.8943 6.34608 80.9015 6.33192C80.9084 6.31762 80.912 6.30196 80.912 6.2861C80.912 6.27023 80.9084 6.25457 80.9015 6.24028C80.8908 6.21025 80.8695 6.18517 80.8416 6.16978C80.8107 6.15931 80.7772 6.15931 80.7463 6.16978C80.1042 6.35241 79.5047 6.66028 78.9823 7.07563C78.9612 7.10007 78.9499 7.13146 78.9506 7.16375C78.9504 7.19489 78.9617 7.225 78.9823 7.24835L79.007 7.25187Z" fill="var(--sapContent_Illustrative_Color16)"/>
<path d="M78.2094 8.02731C78.3185 7.91145 78.4365 7.80421 78.5622 7.70656L78.5939 7.67131C78.6019 7.65693 78.6079 7.64151 78.6116 7.62549C78.6133 7.61026 78.6133 7.59489 78.6116 7.57967C78.6082 7.56295 78.6009 7.54726 78.5904 7.53385C78.5813 7.52129 78.5697 7.51074 78.5564 7.50286C78.543 7.49497 78.5282 7.48993 78.5128 7.48803C78.4807 7.48438 78.4483 7.49184 78.4211 7.50917C78.2831 7.61817 78.1523 7.7359 78.0295 7.86164C78.0083 7.88608 77.997 7.91747 77.9977 7.94976C77.9969 7.98102 78.0083 8.01137 78.0295 8.03435L78.0612 8.05903C78.0876 8.06764 78.116 8.06764 78.1424 8.05903C78.1677 8.05658 78.1914 8.04536 78.2094 8.02731Z" fill="var(--sapContent_Illustrative_Color16)"/>
<path d="M22.268 98.6339H16.9762C16.3332 98.634 15.6966 98.507 15.1029 98.2603C14.5082 98.0157 13.9675 97.6563 13.5118 97.2029L13.4836 97.1712C13.3026 96.9846 13.1363 96.7842 12.9862 96.572C12.3975 95.749 12.0795 94.7637 12.076 93.7522C12.083 93.5157 12.1078 93.2801 12.1501 93.0472H10.1498C9.50624 93.0477 8.86895 92.9212 8.27446 92.675C7.67996 92.4288 7.13996 92.0678 6.6854 91.6127C6.22961 91.158 5.86814 90.6179 5.62174 90.0233C5.37535 89.4287 5.24887 88.7914 5.24956 88.1479C5.24439 87.507 5.36422 86.8713 5.60234 86.2763C5.84746 85.6822 6.20707 85.1421 6.66071 84.6866C7.11552 84.2321 7.65641 83.8726 8.25178 83.6292C8.84545 83.3825 9.48209 83.2555 10.1251 83.2556H22.268V73.5062C22.2661 73.4009 22.2904 73.2968 22.3386 73.2031C22.3842 73.1085 22.4519 73.0262 22.5362 72.9634C22.62 72.8997 22.7181 72.8574 22.8219 72.84C22.9253 72.8212 23.0317 72.8273 23.1324 72.8577L45.0546 79.2233V46.8206C45.0495 46.6305 45.0818 46.4412 45.1498 46.2636L45.171 46.2249C45.2098 46.1429 45.2664 46.0706 45.3368 46.0134L45.4038 45.9781C45.551 45.8988 45.7165 45.8599 45.8836 45.8654H75.7895C75.9518 45.8571 76.1135 45.8911 76.2587 45.964C76.4008 46.0404 76.522 46.1506 76.6115 46.2848C76.657 46.3477 76.696 46.415 76.7279 46.4857C76.7664 46.5737 76.7879 46.6682 76.7914 46.7642V106.575H80.3545C80.5359 106.575 80.7098 106.648 80.8379 106.776C80.9007 106.839 80.9505 106.914 80.9844 106.996C81.0183 107.078 81.0356 107.166 81.0354 107.255V122.412L93.7711 116.088C93.8333 116.057 93.9026 116.043 93.9722 116.046H93.9968C94.0885 116.046 94.1785 116.071 94.2579 116.117C94.3362 116.162 94.4017 116.226 94.4484 116.303C94.5094 116.411 94.541 116.532 94.5401 116.656V159.175C131.777 152.351 160 119.758 160 80.5909C160.021 67.7264 156.915 55.0493 150.951 43.6483C144.036 55.9848 118.738 63.5559 114.388 64.5323L114.494 69.2272C114.499 69.3173 114.481 69.4072 114.441 69.488C114.4 69.5678 114.341 69.6367 114.268 69.6889C114.193 69.7384 114.107 69.7698 114.018 69.7806C113.927 69.7908 113.836 69.7775 113.753 69.7418L111.873 68.8571C110.176 73.3019 108.249 77.655 106.097 81.8986L106.027 82.036C103.296 87.3795 102.062 91.1016 102.351 93.1072C102.502 94.002 102.489 94.9169 102.312 95.8071C102.113 96.7103 101.755 97.5709 101.254 98.3484L100.979 98.8313C100.075 100.474 99.2146 102.025 99.2534 103.48C99.2853 104.219 99.4817 104.942 99.8284 105.595C100.415 104.928 101.223 104.495 102.104 104.376C103.236 104.263 104.633 104.788 104.926 105.824C104.986 106.116 104.98 106.417 104.909 106.706C104.835 106.992 104.7 107.259 104.513 107.488C104.273 107.843 103.96 108.145 103.596 108.373C103.231 108.599 102.822 108.746 102.397 108.806C101.977 108.814 101.56 108.735 101.173 108.574C100.783 108.412 100.432 108.172 100.139 107.869C100.044 107.784 99.9519 107.696 99.8637 107.601C99.6277 108.107 99.4969 108.657 99.4792 109.215C99.4789 109.488 99.5255 109.758 99.6168 110.015C99.7773 110.507 99.8478 111.024 99.8249 111.541C99.8041 112.113 99.7152 112.679 99.5603 113.23C99.4368 113.695 99.4157 113.829 99.5003 113.97C99.585 114.111 99.8002 114.206 100.135 114.322C100.664 114.422 101.133 114.724 101.441 115.165C101.85 115.813 101.793 116.702 101.303 117.805C101.261 117.909 101.189 117.997 101.095 118.059C101.002 118.122 100.893 118.158 100.781 118.161C100.699 118.16 100.618 118.141 100.545 118.104C100.475 118.076 100.413 118.032 100.361 117.978C100.31 117.923 100.27 117.858 100.245 117.787C100.217 117.718 100.205 117.643 100.209 117.569C100.21 117.493 100.227 117.419 100.259 117.35C100.583 116.645 100.657 116.085 100.47 115.789C100.354 115.605 100.153 115.538 99.8108 115.436C99.5506 115.387 99.3025 115.288 99.0805 115.144C98.8587 115 98.668 114.813 98.5196 114.594C98.1668 114.023 98.3114 113.515 98.4526 112.976C98.5867 112.51 98.6637 112.03 98.6819 111.545C98.7024 111.15 98.6473 110.756 98.5196 110.382C98.395 110.016 98.333 109.633 98.3361 109.247C98.3579 108.324 98.614 107.421 99.0805 106.624C98.4875 105.693 98.1483 104.622 98.0962 103.519C98.0645 101.757 98.9888 100.079 99.966 98.2991C100.061 98.1264 100.157 97.9466 100.248 97.7986C100.682 97.1265 100.992 96.3831 101.165 95.6027C101.313 94.8554 101.325 94.0877 101.201 93.3363C100.756 90.2557 103.145 85.1307 104.983 81.5355L105.053 81.398C107.189 77.1885 109.102 72.8695 110.782 68.4588C110.782 68.4377 110.811 68.42 110.825 68.3989L109.061 67.5706C108.977 67.5342 108.905 67.4772 108.849 67.4049C108.793 67.3331 108.757 67.2481 108.743 67.1582C108.733 67.0676 108.743 66.9758 108.775 66.8903C108.809 66.8053 108.863 66.7302 108.934 66.6718L112.553 63.7568C107.445 51.2194 100.382 35.33 106.683 21.1958C108.754 16.451 112.109 12.3776 116.371 9.43386C105.108 3.6774 92.6347 0.685678 79.9841 0.706652C35.8116 0.706652 7.15107e-05 36.4826 7.15107e-05 80.6156C-0.0275493 101.23 7.94712 121.051 22.2469 135.911L22.268 98.6339ZM110.973 141.248C110.991 140.983 110.998 140.733 110.998 140.469C110.998 140.204 110.998 139.972 110.998 139.669C111.073 138.948 111.191 138.232 111.35 137.526C111.418 137.279 111.463 137.026 111.485 136.771V136.63C111.534 135.925 112.303 134.984 112.878 134.29C113.044 134.104 113.197 133.907 113.337 133.701C113.982 132.62 114.571 131.506 115.101 130.363L114.984 130.342L114.698 130.289C114.665 130.282 114.635 130.264 114.614 130.237C114.593 130.209 114.583 130.176 114.586 130.141V130.12C114.588 130.104 114.594 130.088 114.603 130.074L115.309 129.133L115.048 128.781C113.037 126.099 110.55 122.789 111.167 119.102C111.809 115.225 115.206 112.863 118.703 113.575C119.232 113.68 119.743 113.858 120.223 114.104C122.763 115.376 124.104 118.334 123.462 121.566C123.36 122.027 123.194 122.472 122.968 122.888L122.922 122.969C122.816 123.159 122.696 123.349 122.569 123.54C122.442 123.73 122.354 123.846 122.238 123.998C122.121 124.149 121.976 124.329 121.839 124.491C121.751 124.597 121.659 124.699 121.564 124.801C121.377 125.006 121.183 125.207 120.982 125.401C119.419 126.884 117.675 128.165 115.792 129.214L116.117 130.353C116.124 130.375 116.124 130.398 116.117 130.42C116.112 130.443 116.101 130.464 116.085 130.48C116.07 130.496 116.052 130.51 116.032 130.519C116.01 130.522 115.987 130.522 115.965 130.519L115.806 130.487L115.415 130.413C115.319 130.614 115.224 130.808 115.129 131.001C114.776 131.706 114.423 132.411 114.07 133.046C113.915 133.321 113.76 133.589 113.601 133.853C113.454 134.073 113.291 134.283 113.114 134.48C112.571 135.143 111.746 136.137 111.791 136.74C111.773 137.029 111.725 137.317 111.647 137.596C111.499 138.282 111.389 138.975 111.319 139.672V140.462C111.319 140.698 111.319 140.983 111.298 141.262C111.291 141.335 111.297 141.409 111.315 141.48C111.34 141.569 111.354 141.66 111.358 141.752V141.893C111.34 142.051 111.304 142.206 111.248 142.355C111.209 142.471 111.202 142.51 111.216 142.548C111.231 142.587 111.298 142.619 111.386 142.651C111.459 142.668 111.528 142.699 111.588 142.743C111.649 142.788 111.7 142.844 111.739 142.908C111.792 143.006 111.811 143.119 111.791 143.229C111.773 143.372 111.725 143.51 111.65 143.634C111.638 143.66 111.619 143.681 111.594 143.694C111.569 143.708 111.541 143.716 111.513 143.715C111.488 143.72 111.463 143.72 111.439 143.715C111.42 143.703 111.403 143.687 111.389 143.669C111.376 143.652 111.367 143.631 111.365 143.609C111.351 143.574 111.351 143.535 111.365 143.5C111.442 143.384 111.474 143.244 111.456 143.105C111.46 143.095 111.46 143.084 111.456 143.074C111.432 143.021 111.375 143 111.283 142.964C111.211 142.946 111.143 142.915 111.082 142.873C111.022 142.827 110.971 142.771 110.931 142.707C110.899 142.637 110.882 142.562 110.881 142.485C110.882 142.408 110.898 142.333 110.931 142.263C110.977 142.137 111.008 142.005 111.022 141.872C111.029 141.811 111.029 141.749 111.022 141.688C111.026 141.679 111.026 141.669 111.022 141.66C111.023 141.623 111.015 141.586 111.001 141.551C110.975 141.448 110.967 141.342 110.977 141.237L110.973 141.248ZM70.6811 31.0122C70.6775 30.9971 70.6775 30.9814 70.6811 30.9664C72.0429 27.6672 73.4328 25.2317 74.8052 23.7301L74.851 23.6808C75.627 22.8459 76.3009 21.9218 76.8584 20.928C77.0277 20.6284 77.1865 20.3182 77.3276 20.0045C77.4687 19.6908 77.6099 19.37 77.7369 19.0458L77.5217 18.9471L77.3805 18.8801C77.3621 18.8714 77.3463 18.858 77.3347 18.8413C77.3186 18.8175 77.3112 18.7889 77.3135 18.7603C77.3177 18.7311 77.3329 18.7047 77.3558 18.6862L77.8356 18.2985L78.1249 18.0659C77.0348 15.3906 75.5284 12.0034 76.8725 8.98974C78.2166 5.97611 81.5046 4.76008 84.2105 6.07128C84.3199 6.12415 84.4186 6.18407 84.521 6.24399C84.7381 6.36415 84.9457 6.50085 85.1419 6.65285C85.8226 7.20281 86.355 7.91403 86.6906 8.72187C87.0196 9.5322 87.1409 10.4118 87.0434 11.2808C87.0365 11.3989 87.0235 11.5165 87.0046 11.6333C87.0046 11.7637 86.9552 11.947 86.9199 12.1056C86.803 12.6346 86.6242 13.1481 86.3872 13.6353C85.6816 15.0452 83.8648 16.1731 82.1255 16.9662L81.8856 17.0719C81.4341 17.2693 80.9931 17.4455 80.5838 17.5971L80.4074 17.6641C79.7833 17.8974 79.146 18.0939 78.4989 18.2527L78.52 19.2537C78.5271 19.2731 78.5271 19.2943 78.52 19.3136C78.5122 19.3317 78.4985 19.3466 78.4812 19.3559C78.4639 19.3608 78.4456 19.3608 78.4283 19.3559C78.4134 19.3606 78.3974 19.3606 78.3825 19.3559L78.0544 19.2044L77.9591 19.1586C77.8321 19.4864 77.698 19.8106 77.5534 20.1279C77.4088 20.4451 77.25 20.7482 77.0842 21.0478C76.5165 22.059 75.8296 22.9986 75.038 23.8464L74.9957 23.8958C73.641 25.3762 72.2686 27.773 70.9175 31.058C70.9084 31.0811 70.8924 31.1008 70.8716 31.1144C70.8522 31.1286 70.8286 31.1361 70.8046 31.1356H70.7587C70.7416 31.1317 70.7265 31.1217 70.7164 31.1074C70.6983 31.0894 70.6871 31.0657 70.6846 31.0404L70.6811 31.0122ZM19.1741 43.5849C20.4246 43.8282 21.563 44.4686 22.4197 45.4107C23.8027 46.9298 24.42 49.1786 23.9297 51.5789C23.8565 51.9204 23.7453 52.2526 23.598 52.5694C23.4945 52.7951 23.3766 53.0141 23.2453 53.225C23.0706 53.5105 22.8798 53.7859 22.6737 54.0498C22.6032 54.1449 22.5256 54.2366 22.4515 54.3317C22.2741 54.5525 22.0857 54.7643 21.887 54.9662C21.7459 55.1166 21.6013 55.2646 21.4531 55.4103C19.892 56.8931 18.151 58.1743 16.2706 59.224L16.5952 60.359C16.6005 60.37 16.6033 60.382 16.6033 60.3942C16.6033 60.4065 16.6005 60.4185 16.5952 60.4295C16.5919 60.4462 16.5852 60.462 16.5755 60.4759C16.5657 60.4899 16.5533 60.5017 16.5388 60.5106C16.5255 60.521 16.51 60.5283 16.4935 60.5319C16.477 60.5356 16.46 60.5355 16.4435 60.5317L16.0907 60.4683L15.8826 60.4295C15.3386 61.607 14.7333 62.7553 14.0692 63.8696C13.9212 64.0905 13.7585 64.3013 13.5824 64.5005C13.0391 65.1597 12.2171 66.1572 12.263 66.7564C12.2461 67.046 12.1988 67.3331 12.1219 67.6129C11.9702 68.2976 11.8606 68.9909 11.7938 69.6889C11.7938 69.9885 11.7938 70.2423 11.7726 70.4785C11.7514 70.7146 11.7726 71.0001 11.755 71.2786C11.7479 71.317 11.7479 71.3564 11.755 71.3949L11.7726 71.5042V71.5359C11.804 71.6638 11.8112 71.7965 11.7938 71.9271C11.7802 72.0834 11.747 72.2374 11.695 72.3853C11.6491 72.5122 11.6421 72.5475 11.6597 72.5898C11.6773 72.6321 11.7408 72.6603 11.829 72.6955C11.9302 72.7217 12.0226 72.774 12.0972 72.8471C12.1298 72.8754 12.1562 72.9102 12.1748 72.9493C12.2229 73.0676 12.2399 73.1962 12.2242 73.3229C12.2084 73.4494 12.1624 73.5703 12.0901 73.6754C12.0758 73.7003 12.0551 73.721 12.0301 73.7353C12.0052 73.7493 11.9775 73.7577 11.949 73.76C11.9231 73.7584 11.8978 73.7511 11.8749 73.7388C11.8567 73.7298 11.841 73.7165 11.829 73.7001C11.8158 73.6861 11.8061 73.6692 11.8008 73.6507C11.7963 73.631 11.7963 73.6105 11.8008 73.5908C11.7956 73.5712 11.7956 73.5505 11.8008 73.5309C11.8996 73.3405 11.9349 73.1784 11.889 73.1009C11.8432 73.0233 11.8008 73.0268 11.7091 72.9916C11.637 72.9735 11.5689 72.9425 11.508 72.8999C11.4489 72.8557 11.3986 72.8007 11.3598 72.7378C11.3562 72.7239 11.3562 72.7094 11.3598 72.6955C11.3156 72.5626 11.3232 72.4178 11.381 72.2902C11.4289 72.1644 11.4598 72.0329 11.4727 71.8989C11.4798 71.8192 11.4798 71.739 11.4727 71.6592C11.4813 71.6329 11.4813 71.6045 11.4727 71.5782V71.5253C11.4517 71.4389 11.4445 71.3496 11.4516 71.261C11.4727 70.9931 11.4727 70.7428 11.4727 70.4785C11.4727 70.2141 11.4727 69.985 11.4727 69.6784C11.5492 68.9579 11.667 68.2423 11.8255 67.5353C11.8963 67.2892 11.9413 67.0364 11.9596 66.781C11.9067 66.0549 12.7428 65.0434 13.3531 64.3137C13.5154 64.1327 13.6651 63.9407 13.8011 63.7392C14.4466 62.6579 15.0354 61.5437 15.5651 60.4013L15.1594 60.3237L15.1205 60.3061C15.1037 60.2998 15.089 60.2888 15.0782 60.2744C15.0661 60.2584 15.0566 60.2405 15.05 60.2215C15.0465 60.2029 15.0465 60.1838 15.05 60.1651C15.0568 60.1469 15.065 60.1292 15.0747 60.1123L15.4275 59.6118L15.7591 59.1712C13.7129 56.4289 10.9788 52.9959 11.6209 49.1398C11.8119 47.9653 12.2974 46.8583 13.0321 45.9217C13.7397 44.9949 14.6947 44.2864 15.7873 43.8774C16.8797 43.4713 18.0644 43.3809 19.2058 43.6166L19.1741 43.5849Z" fill="var(--sapContent_Illustrative_Color7)"/>
<path d="M102.305 107.664C102.556 107.618 102.796 107.522 103.01 107.382C103.231 107.239 103.419 107.052 103.564 106.832C103.646 106.736 103.709 106.625 103.748 106.505C103.788 106.383 103.803 106.255 103.794 106.127C103.702 105.796 102.919 105.423 102.188 105.511C101.495 105.63 100.877 106.018 100.467 106.589C100.597 106.744 100.737 106.89 100.887 107.026C101.066 107.22 101.282 107.375 101.522 107.484C101.768 107.597 102.034 107.658 102.305 107.664Z" fill="var(--sapContent_Illustrative_Color7)"/>
<path d="M110.782 68.4307C109.101 72.8389 107.189 77.1557 105.053 81.3629L104.983 81.5004C103.145 85.0956 100.749 90.224 101.201 93.3011C101.325 94.0526 101.313 94.8203 101.165 95.5675C100.992 96.3479 100.681 97.0914 100.248 97.7634C100.156 97.9255 100.061 98.0912 99.9659 98.2639C98.9887 100.026 98.0644 101.725 98.0961 103.488C98.1488 104.589 98.488 105.658 99.0804 106.589C98.6139 107.386 98.3578 108.289 98.336 109.212C98.3332 109.598 98.3952 109.981 98.5195 110.347C98.6472 110.721 98.7023 111.115 98.6818 111.51C98.664 111.994 98.587 112.475 98.4525 112.941C98.3113 113.48 98.1773 113.998 98.5195 114.559C98.6679 114.778 98.8586 114.964 99.0804 115.109C99.3024 115.253 99.5505 115.352 99.8107 115.401C100.163 115.507 100.354 115.574 100.47 115.754C100.657 116.05 100.583 116.607 100.259 117.319C100.227 117.386 100.21 117.459 100.209 117.534C100.205 117.608 100.217 117.683 100.245 117.752C100.27 117.823 100.31 117.888 100.361 117.942C100.413 117.998 100.475 118.042 100.544 118.073C100.619 118.106 100.699 118.124 100.781 118.126C100.893 118.122 101.001 118.088 101.095 118.027C101.187 117.964 101.259 117.876 101.303 117.773C101.804 116.666 101.85 115.778 101.441 115.13C101.132 114.689 100.664 114.387 100.135 114.287C99.7825 114.185 99.6025 114.122 99.5002 113.935C99.3979 113.748 99.4367 113.66 99.5602 113.195C99.7151 112.644 99.8039 112.078 99.8248 111.506C99.8459 110.989 99.7755 110.473 99.6166 109.98C99.5254 109.723 99.4788 109.453 99.4791 109.18C99.4968 108.621 99.6276 108.072 99.8636 107.566C99.9518 107.661 100.044 107.749 100.139 107.834C100.43 108.138 100.782 108.378 101.172 108.538C101.56 108.7 101.977 108.779 102.397 108.771C102.821 108.712 103.229 108.564 103.593 108.338C103.958 108.111 104.272 107.809 104.513 107.453C104.697 107.222 104.827 106.954 104.894 106.667C104.96 106.378 104.96 106.078 104.894 105.789C104.605 104.756 103.208 104.228 102.072 104.341C101.191 104.46 100.383 104.893 99.7966 105.56C99.4514 104.906 99.2551 104.184 99.2215 103.445C99.1933 101.986 100.044 100.435 100.947 98.7926L101.222 98.3097C101.723 97.5325 102.082 96.6718 102.28 95.7684C102.455 94.8781 102.468 93.9635 102.319 93.0685C102.03 91.0629 103.264 87.3408 105.995 81.9973L106.066 81.8599C108.217 77.6163 110.145 73.2632 111.841 68.8184L110.814 68.3391C110.808 68.3709 110.797 68.4018 110.782 68.4307ZM102.206 105.514C102.936 105.44 103.72 105.8 103.811 106.131C103.821 106.259 103.805 106.387 103.765 106.508C103.726 106.628 103.664 106.74 103.582 106.836C103.437 107.055 103.249 107.243 103.028 107.386C102.814 107.526 102.574 107.622 102.323 107.668C102.057 107.661 101.796 107.601 101.553 107.492C101.311 107.383 101.093 107.227 100.911 107.033C100.762 106.897 100.621 106.751 100.492 106.596C100.695 106.313 100.953 106.073 101.25 105.891C101.541 105.705 101.866 105.577 102.206 105.514Z" fill="var(--sapContent_Illustrative_Color6)"/>
<path d="M93.4182 67.6201C93.8897 67.6201 94.2719 67.2271 94.2719 66.7424C94.2719 66.2577 93.8897 65.8647 93.4182 65.8647C92.9467 65.8647 92.5645 66.2577 92.5645 66.7424C92.5645 67.2271 92.9467 67.6201 93.4182 67.6201Z" fill="var(--sapContent_Illustrative_Color10)"/>
<path d="M99.0173 62.7981C99.8707 62.7981 100.562 62.088 100.562 61.212C100.562 60.336 99.8707 59.6259 99.0173 59.6259C98.1639 59.6259 97.472 60.336 97.472 61.212C97.472 62.088 98.1639 62.7981 99.0173 62.7981Z" fill="var(--sapContent_Illustrative_Color10)"/>
<path d="M30.9499 60.4825C31.7176 60.4825 32.3399 59.8433 32.3399 59.055C32.3399 58.2666 31.7176 57.6274 30.9499 57.6274C30.1822 57.6274 29.5599 58.2666 29.5599 59.055C29.5599 59.8433 30.1822 60.4825 30.9499 60.4825Z" fill="var(--sapContent_Illustrative_Color10)"/>
<path d="M84.0695 39.8065C85.4567 39.8065 86.5813 38.6514 86.5813 37.2265C86.5813 35.8015 85.4567 34.6464 84.0695 34.6464C82.6822 34.6464 81.5576 35.8015 81.5576 37.2265C81.5576 38.6514 82.6822 39.8065 84.0695 39.8065Z" fill="var(--sapContent_Illustrative_Color10)"/>
<path d="M114.106 33.8251C114.959 33.8251 115.651 33.1149 115.651 32.239C115.651 31.363 114.959 30.6528 114.106 30.6528C113.252 30.6528 112.561 31.363 112.561 32.239C112.561 33.1149 113.252 33.8251 114.106 33.8251Z" fill="var(--sapContent_Illustrative_Color10)"/>
<path d="M55.5607 30.6492C56.112 30.6492 56.559 30.2026 56.559 29.6517C56.559 29.1008 56.112 28.6542 55.5607 28.6542C55.0093 28.6542 54.5623 29.1008 54.5623 29.6517C54.5623 30.2026 55.0093 30.6492 55.5607 30.6492Z" fill="var(--sapContent_Illustrative_Color10)"/>
<path d="M133.09 81.3112C133.436 80.532 133.068 79.612 132.267 79.2562C131.465 78.9005 130.535 79.2437 130.188 80.0229C129.842 80.8021 130.21 81.7221 131.012 82.0778C131.813 82.4336 132.743 82.0903 133.09 81.3112Z" fill="var(--sapContent_Illustrative_Color10)"/>
<path d="M113.88 101.909C114.431 101.909 114.878 101.462 114.878 100.911C114.878 100.36 114.431 99.9136 113.88 99.9136C113.329 99.9136 112.882 100.36 112.882 100.911C112.882 101.462 113.329 101.909 113.88 101.909Z" fill="var(--sapContent_Illustrative_Color10)"/>
<path d="M106.69 21.1677C100.389 35.3018 107.452 51.1913 112.56 63.7287L108.944 66.6436C108.872 66.701 108.816 66.7763 108.782 66.8622C108.75 66.9477 108.739 67.0395 108.75 67.1301C108.764 67.22 108.8 67.3049 108.856 67.3768C108.912 67.45 108.986 67.5072 109.071 67.5424L110.835 68.3708L111.862 68.8501L113.742 69.7348C113.825 69.7705 113.917 69.7838 114.007 69.7736C114.095 69.7635 114.18 69.732 114.254 69.6819C114.329 69.6309 114.389 69.5618 114.43 69.481C114.47 69.4002 114.488 69.3103 114.483 69.2202L114.377 64.5253C118.727 63.5489 144.011 55.9814 150.94 43.6413C151.085 43.384 151.222 43.1302 151.349 42.8694C158.172 28.9327 153.773 13.6883 141.094 7.49532C132.934 3.50887 123.659 4.45349 116.399 9.40572C112.128 12.3457 108.766 16.4196 106.69 21.1677ZM116.512 12.0034C118.544 10.2728 121.186 8.92284 124.834 7.77378C124.973 7.73204 125.123 7.74464 125.254 7.80902C125.385 7.87505 125.488 7.98833 125.539 8.12625C125.582 8.26694 125.568 8.41856 125.501 8.54921C125.437 8.68047 125.324 8.78164 125.187 8.83119C121.687 9.94853 119.168 11.228 117.256 12.8529C117.174 12.9235 117.074 12.9688 116.967 12.9833C116.859 13.0001 116.748 12.9841 116.649 12.9375C116.573 12.9037 116.505 12.8531 116.452 12.7895C116.36 12.6764 116.314 12.5328 116.325 12.3876C116.335 12.2437 116.399 12.109 116.504 12.0105L116.512 12.0034ZM114.698 14.2875C114.742 14.3477 114.774 14.4161 114.792 14.4887C114.809 14.5613 114.812 14.6367 114.801 14.7104C114.778 14.8609 114.697 14.9965 114.575 15.0876C113.98 15.5481 113.418 16.0486 112.892 16.5856C112.811 16.6713 112.705 16.7293 112.589 16.7512C112.469 16.7729 112.346 16.7569 112.236 16.7054C112.175 16.6803 112.12 16.6432 112.073 16.5961C112.021 16.5433 111.979 16.4807 111.951 16.4117C111.922 16.3428 111.908 16.2689 111.908 16.1943C111.908 16.0428 111.967 15.8974 112.073 15.789C112.645 15.207 113.256 14.6641 113.901 14.1641C113.962 14.1211 114.03 14.0906 114.103 14.0742C114.176 14.0579 114.251 14.0561 114.324 14.0689C114.467 14.0954 114.593 14.1764 114.677 14.2945L114.698 14.2875Z" fill="var(--sapContent_Illustrative_Color3)"/>
<path d="M116.646 12.9834C116.745 13.03 116.855 13.046 116.963 13.0292C117.07 13.0147 117.171 12.9693 117.253 12.8988C119.165 11.2739 121.684 9.99441 125.18 8.87708C125.319 8.82864 125.433 8.72728 125.497 8.5951C125.563 8.46394 125.577 8.313 125.536 8.17213C125.483 8.03493 125.381 7.92202 125.25 7.8549C125.12 7.79086 124.97 7.77828 124.831 7.81966C121.183 8.98282 118.54 10.3328 116.508 12.0493C116.394 12.1475 116.323 12.2868 116.311 12.437C116.299 12.5879 116.347 12.7374 116.445 12.853C116.502 12.9099 116.571 12.9543 116.646 12.9834Z" fill="var(--sapContent_Illustrative_Color15)"/>
<path d="M112.08 15.8033C111.974 15.9116 111.915 16.0571 111.915 16.2086C111.915 16.2832 111.929 16.3571 111.958 16.426C111.986 16.4949 112.028 16.5576 112.08 16.6104C112.126 16.6582 112.181 16.6955 112.243 16.7197C112.353 16.7711 112.476 16.7872 112.596 16.7655C112.712 16.7436 112.818 16.6856 112.899 16.5998C113.424 16.062 113.987 15.5614 114.582 15.1018C114.643 15.0573 114.694 15.0009 114.733 14.9361C114.772 14.8714 114.797 14.7995 114.808 14.7247C114.819 14.6509 114.816 14.5756 114.799 14.503C114.781 14.4303 114.749 14.362 114.705 14.3017C114.616 14.179 114.481 14.0966 114.331 14.0726C114.181 14.05 114.027 14.088 113.904 14.1784C113.26 14.6782 112.651 15.2211 112.08 15.8033Z" fill="var(--sapContent_Illustrative_Color15)"/>
</svg>
