<svg width="161" height="156" viewBox="0 0 161 156" fill="none" xmlns="http://www.w3.org/2000/svg" id="sapIllus-Dialog-SuccessScreen">
<rect x="77" y="67" width="46" height="39" fill="var(--sapContent_Illustrative_Color2)"/>
<rect x="38.5391" y="68.7134" width="82.456" height="49.4736" fill="var(--sapContent_Illustrative_Color8)"/>
<path d="M78.4973 155.772C98.6595 155.801 118.04 147.962 132.528 133.916H24.4631C38.9523 147.962 58.334 155.802 78.4973 155.772Z" fill="var(--sapContent_Illustrative_Color7)"/>
<path d="M47.1782 120.992H47.0089C46.5426 120.991 46.0907 120.83 45.7283 120.536C45.3667 120.242 45.1176 119.831 45.0228 119.374L38.4154 88.1531L16.2895 88.5065C16.1887 88.5084 16.0884 88.4904 15.9946 88.4534C15.9008 88.4164 15.8151 88.3612 15.7427 88.2909C15.595 88.1492 15.5089 87.955 15.5028 87.7503L14.3386 40.2707C14.3349 40.1668 14.353 40.0633 14.3916 39.9668C14.4294 39.8689 14.487 39.7798 14.5609 39.7053C14.6338 39.6303 14.7215 39.5713 14.8184 39.5322C14.915 39.494 15.018 39.4748 15.1218 39.4756H16.5011V38.7689C16.5004 38.666 16.5196 38.564 16.5576 38.4685C16.5989 38.3726 16.6575 38.2851 16.7304 38.2105C16.8038 38.1386 16.8899 38.0811 16.9844 38.0409C17.0811 38.0031 17.184 37.9839 17.2878 37.9844L50.5754 38.3801C50.7743 38.3796 50.9654 38.457 51.1081 38.5957C51.2517 38.7341 51.3364 38.9228 51.3445 39.1222L51.916 62.4804H121.952C122.424 62.4812 122.882 62.646 123.247 62.9468C123.611 63.2482 123.86 63.6664 123.952 64.1306L134.475 118.551C134.531 118.847 134.522 119.152 134.447 119.445C134.373 119.735 134.236 120.005 134.045 120.236C133.854 120.469 133.613 120.657 133.339 120.784C133.068 120.911 132.772 120.978 132.472 120.978H143.281C151.775 108.219 156.298 93.2206 156.277 77.884C156.277 34.8711 121.454 0 78.5009 0C35.5473 0 0.711033 34.8605 0.711033 77.8734C0.685938 93.908 5.6259 109.556 14.8502 122.66H45.1886C45.2745 122.188 45.5244 121.761 45.8941 121.455C46.2587 121.148 46.7195 120.979 47.1959 120.978L47.1782 120.992Z" fill="var(--sapContent_Illustrative_Color7)"/>
<path d="M112.173 114.886H52.6958C52.2671 114.884 51.8499 114.747 51.5034 114.494C51.1573 114.24 50.9004 113.882 50.7697 113.473C50.9004 113.882 51.1573 114.24 51.5034 114.494C51.8499 114.747 52.2671 114.884 52.6958 114.886H112.173C112.631 114.887 113.075 114.731 113.433 114.444C113.788 114.159 114.036 113.762 114.138 113.317C114.036 113.762 113.788 114.159 113.433 114.444C113.075 114.731 112.631 114.887 112.173 114.886Z" fill="var(--sapContent_Illustrative_Color7)"/>
<path d="M46.0742 88.0371L47.9898 98.4582L46.0742 88.0371Z" fill="var(--sapContent_Illustrative_Color7)"/>
<path d="M89.2288 74.7778L105.283 74.8344L89.2288 74.7778L52.1877 74.6506L89.2288 74.7778Z" fill="var(--sapContent_Illustrative_Color7)"/>
<path d="M75.5907 125.982H47.1784C46.9124 125.982 46.6489 125.93 46.4023 125.83C46.1544 125.727 45.9292 125.575 45.7391 125.385C45.5504 125.196 45.4006 124.971 45.2981 124.724C45.1956 124.477 45.1429 124.211 45.1429 123.943V123.032C45.144 122.913 45.1558 122.795 45.1782 122.678H14.8397C17.6788 126.721 20.8953 130.483 24.4457 133.916H132.528C135.092 131.442 137.483 128.794 139.686 125.993L75.5907 125.982Z" fill="var(--sapContent_Illustrative_Color19)"/>
<path d="M18.4167 86.2099C18.2141 86.2153 18.0176 86.1403 17.8699 86.0014C17.7224 85.861 17.6362 85.668 17.63 85.4643L16.5011 39.5254H15.1218C15.018 39.5246 14.915 39.5438 14.8184 39.5819C14.7214 39.6211 14.6337 39.6801 14.5609 39.7551C14.487 39.8296 14.4293 39.9186 14.3915 40.0166C14.3529 40.1131 14.3349 40.2166 14.3386 40.3205L15.5028 87.793C15.5094 87.9969 15.594 88.1905 15.7391 88.3337C15.8872 88.4751 16.0849 88.5525 16.2895 88.5492L38.4153 88.1959L37.9356 85.9307L18.4167 86.2099Z" fill="var(--sapContent_Illustrative_Color7)"/>
<path d="M18.4167 86.2099C18.2141 86.2153 18.0176 86.1403 17.8699 86.0014C17.7224 85.861 17.6362 85.668 17.63 85.4643L16.5011 39.5254H15.1218C15.018 39.5246 14.915 39.5438 14.8184 39.5819C14.7214 39.6211 14.6337 39.6801 14.5609 39.7551C14.487 39.8296 14.4293 39.9186 14.3915 40.0166C14.3529 40.1131 14.3349 40.2166 14.3386 40.3205L15.5028 87.793C15.5094 87.9969 15.594 88.1905 15.7391 88.3337C15.8872 88.4751 16.0849 88.5525 16.2895 88.5492L38.4153 88.1959L37.9356 85.9307L18.4167 86.2099Z" fill="var(--sapContent_Illustrative_Color19)"/>
<path d="M18.4168 86.2097L37.9357 85.9023L36.8774 80.8207L22.6042 81.0363C22.4438 81.0348 22.2905 80.97 22.1774 80.8561C22.0652 80.742 22.002 80.5886 22.001 80.4285L21.0732 42.5926H21.0167V41.7162H21.6553L23.2251 41.7374L47.711 41.8151L48.2614 62.5194H51.9126L51.334 39.1613C51.3265 38.9627 51.2417 38.7749 51.0977 38.6383C51.0284 38.5686 50.9459 38.5136 50.855 38.4765C50.7641 38.4395 50.6666 38.4212 50.5685 38.4227L17.2915 38.0093C17.1889 38.0055 17.0867 38.0236 16.9916 38.0623C16.8951 38.1007 16.8075 38.1584 16.7341 38.2319C16.66 38.3055 16.6012 38.3932 16.5612 38.4899C16.5232 38.5854 16.504 38.6874 16.5048 38.7902V39.497L17.6337 85.4606C17.6365 85.5618 17.6593 85.6615 17.7007 85.7539C17.7409 85.8473 17.7997 85.9315 17.8735 86.0012C17.9473 86.07 18.0335 86.1239 18.1275 86.1602C18.2222 86.1957 18.3228 86.2125 18.4239 86.2097H18.4168Z" fill="var(--sapContent_Illustrative_Color18)"/>
<path d="M44.0491 77.022C44.0103 76.8011 44.0103 76.5751 44.0491 76.3541C44.0103 76.5751 44.0103 76.8011 44.0491 77.022L44.7229 80.6795L44.0491 77.022Z" fill="var(--sapContent_Illustrative_Color18)"/>
<path d="M21.0557 42.5781L21.9834 80.4141C21.9852 80.574 22.0483 80.7272 22.1598 80.8417C22.2729 80.9556 22.4263 81.0203 22.5867 81.0219L36.8599 80.8063L35.2759 73.2794C35.1854 73.2106 35.1127 73.1209 35.0642 73.0179C35.0135 72.916 34.9881 72.8032 34.9902 72.6893C34.9902 72.4455 34.9584 72.1097 34.9302 71.6292L34.8667 71.3359C34.4251 71.5442 33.9437 71.6539 33.4556 71.6574C30.3018 71.6574 27.7477 68.0318 27.7477 63.5545C27.7477 61.717 27.7019 60.0208 28.0617 58.6567C26.947 58.9677 25.878 58.6355 25.624 57.8758C25.4371 57.3068 25.7581 56.6566 26.379 56.1866H25.6311C25.5277 56.1869 25.4252 56.1668 25.3296 56.1274C25.2339 56.088 25.147 56.03 25.0737 55.9569C24.9248 55.808 24.8411 55.6059 24.8409 55.3951C24.8403 55.0629 24.9051 54.7339 25.0314 54.4268C25.1598 54.1192 25.3467 53.8396 25.5817 53.6035C25.8168 53.3673 26.0961 53.18 26.4037 53.0522C26.7109 52.9237 27.0409 52.8588 27.3738 52.8614H28.7849C29.1464 52.3039 29.6287 51.8352 30.196 51.4903C30.7713 51.1483 31.4166 50.9416 32.0833 50.886L34.5316 50.6846C35.6899 50.5856 36.8552 50.7624 37.9323 51.2005C39.0166 51.6329 39.9836 52.3158 40.7545 53.1935C41.5206 54.0688 42.0704 55.1122 42.3596 56.2396C42.6515 57.3669 42.6745 58.5472 42.4266 59.6851L41.8904 62.4732H47.4642L46.8856 42.875L21.0557 42.5781Z" fill="var(--sapContent_Illustrative_Color7)"/>
<path d="M21.6482 41.6842C21.6026 41.6772 21.5562 41.6772 21.5106 41.6842H21.6482Z" fill="var(--sapContent_Illustrative_Color18)"/>
<path d="M23.2181 41.7058L47.0938 42.0592C47.2514 42.0661 47.4003 42.1331 47.5101 42.2465C47.6189 42.3596 47.6807 42.5099 47.6829 42.667L48.1662 62.4984H48.2509L47.7041 41.7942L23.2181 41.7058Z" fill="var(--sapContent_Illustrative_Color8)"/>
<path opacity="0.5" d="M23.2181 41.7058L47.0938 42.0592C47.2514 42.0661 47.4003 42.1331 47.5101 42.2465C47.6189 42.3596 47.6807 42.5099 47.6829 42.667L48.1662 62.4984H48.2509L47.7041 41.7942L23.2181 41.7058Z" fill="var(--sapContent_Illustrative_Color19)"/>
<path d="M21.5177 41.7021H21.0167V42.5785H21.0732V42.3206C21.0666 42.1826 21.1077 42.0465 21.1896 41.9354C21.2695 41.8227 21.3851 41.7405 21.5177 41.7021Z" fill="var(--sapContent_Illustrative_Color8)"/>
<path opacity="0.5" d="M21.5177 41.7021H21.0167V42.5785H21.0732V42.3206C21.0666 42.1826 21.1077 42.0465 21.1896 41.9354C21.2695 41.8227 21.3851 41.7405 21.5177 41.7021Z" fill="var(--sapContent_Illustrative_Color19)"/>
<path d="M47.0938 42.0377L23.2181 41.6843H21.5178C21.3777 41.7168 21.2531 41.7967 21.165 41.9105C21.0809 42.0236 21.0374 42.1618 21.0415 42.3027V42.5607L46.861 42.8717L47.436 62.4699H48.1415L47.6794 42.649C47.6754 42.4944 47.6137 42.3469 47.5065 42.2356C47.4 42.1238 47.2549 42.0568 47.1008 42.0483L47.0938 42.0377Z" fill="var(--sapContent_Illustrative_Color18)"/>
<path d="M47.0938 42.0377L23.2181 41.6843H21.5178C21.3777 41.7168 21.2531 41.7967 21.165 41.9105C21.0809 42.0236 21.0374 42.1618 21.0415 42.3027V42.5607L46.861 42.8717L47.436 62.4699H48.1415L47.6794 42.649C47.6754 42.4944 47.6137 42.3469 47.5065 42.2356C47.4 42.1238 47.2549 42.0568 47.1008 42.0483L47.0938 42.0377Z" fill="var(--sapContent_Illustrative_Color19)"/>
<path d="M34.5383 50.6991L32.09 50.9005C31.4233 50.9561 30.778 51.1628 30.2027 51.5048C29.6282 51.8466 29.1395 52.3156 28.7739 52.8759H27.3629C27.0301 52.8753 26.7005 52.9401 26.3927 53.0667C26.0852 53.1945 25.8059 53.3818 25.5708 53.618C25.3338 53.8524 25.1466 54.1325 25.0205 54.4413C24.8941 54.7484 24.8294 55.0774 24.83 55.4096C24.8303 55.6197 24.9126 55.8213 25.0593 55.9714C25.209 56.1187 25.4104 56.2011 25.6202 56.2011H26.3681C25.7472 56.6711 25.4262 57.3213 25.6131 57.8903C25.8671 58.65 26.936 58.9822 28.0508 58.6712C27.698 60.0317 27.7368 61.7315 27.7368 63.569C27.7368 68.0463 30.2909 71.6719 33.4447 71.6719C33.9327 71.6681 34.4141 71.5584 34.8558 71.3504L33.5117 64.9331C33.4429 64.6367 33.4429 64.3284 33.5117 64.032C33.5815 63.735 33.7165 63.4573 33.9068 63.2192C34.0981 62.9833 34.339 62.7927 34.6123 62.6609C34.8872 62.5274 35.1888 62.4585 35.4943 62.4594H41.8759L42.4121 59.6713C42.6529 58.5347 42.6263 57.3575 42.3345 56.233C42.0418 55.1086 41.4896 54.0689 40.7224 53.1974C39.9567 52.325 38.9973 51.6447 37.9214 51.2115C36.8455 50.7781 35.6833 50.6026 34.5277 50.6991H34.5383Z" fill="var(--sapContent_Illustrative_Color18)"/>
<path d="M34.5383 50.6991L32.09 50.9005C31.4233 50.9561 30.778 51.1628 30.2027 51.5048C29.6282 51.8466 29.1395 52.3156 28.7739 52.8759H27.3629C27.0301 52.8753 26.7005 52.9401 26.3927 53.0667C26.0852 53.1945 25.8059 53.3818 25.5708 53.618C25.3338 53.8524 25.1466 54.1325 25.0205 54.4413C24.8941 54.7484 24.8294 55.0774 24.83 55.4096C24.8303 55.6197 24.9126 55.8213 25.0593 55.9714C25.209 56.1187 25.4104 56.2011 25.6202 56.2011H26.3681C25.7472 56.6711 25.4262 57.3213 25.6131 57.8903C25.8671 58.65 26.936 58.9822 28.0508 58.6712C27.698 60.0317 27.7368 61.7315 27.7368 63.569C27.7368 68.0463 30.2909 71.6719 33.4447 71.6719C33.9327 71.6681 34.4141 71.5584 34.8558 71.3504L33.5117 64.9331C33.4429 64.6367 33.4429 64.3284 33.5117 64.032C33.5815 63.735 33.7165 63.4573 33.9068 63.2192C34.0981 62.9833 34.339 62.7927 34.6123 62.6609C34.8872 62.5274 35.1888 62.4585 35.4943 62.4594H41.8759L42.4121 59.6713C42.6529 58.5347 42.6263 57.3575 42.3345 56.233C42.0418 55.1086 41.4896 54.0689 40.7224 53.1974C39.9567 52.325 38.9973 51.6447 37.9214 51.2115C36.8455 50.7781 35.6833 50.6026 34.5277 50.6991H34.5383Z" fill="var(--sapContent_Illustrative_Color18)"/>
<path d="M35.2723 73.2796L34.9196 71.6434C34.9478 72.1099 34.9689 72.4456 34.9795 72.7036C34.9796 72.8154 35.0062 72.9256 35.0571 73.0251C35.1077 73.1248 35.1801 73.2117 35.2688 73.2796H35.2723Z" fill="var(--sapContent_Illustrative_Color18)"/>
<path opacity="0.5" d="M35.2723 73.2796L34.9196 71.6434C34.9478 72.1099 34.9689 72.4456 34.9795 72.7036C34.9796 72.8154 35.0062 72.9256 35.0571 73.0251C35.1077 73.1248 35.1801 73.2117 35.2688 73.2796H35.2723Z" fill="var(--sapContent_Illustrative_Color19)"/>
<path d="M134.461 118.565L123.938 64.1454C123.846 63.6811 123.597 63.2629 123.232 62.9616C122.868 62.6608 122.41 62.4959 121.938 62.4951H35.4979C35.1929 62.4946 34.8917 62.5622 34.616 62.693C34.3424 62.8259 34.1014 63.0178 33.9105 63.2549C33.7178 63.4907 33.5814 63.7675 33.5118 64.0641C33.443 64.3617 33.443 64.6711 33.5118 64.9688L34.8665 71.3719L34.93 71.6652L35.2827 73.3013L36.8737 80.8282L37.9321 85.9098L38.4118 88.1749L45.0157 119.396C45.114 119.852 45.3625 120.261 45.7213 120.558C46.0837 120.852 46.5356 121.013 47.0018 121.014H132.475C132.776 121.014 133.074 120.947 133.346 120.82C133.619 120.69 133.86 120.502 134.052 120.269C134.246 120.034 134.386 119.758 134.461 119.463C134.533 119.169 134.541 118.862 134.482 118.565H134.461ZM121.102 99.9035H111.778L114.166 112.455C114.226 112.735 114.226 113.024 114.166 113.303C114.064 113.748 113.816 114.145 113.461 114.431C113.102 114.715 112.659 114.871 112.201 114.872H52.6956C52.2669 114.87 51.8497 114.733 51.5032 114.48C51.1571 114.226 50.9002 113.868 50.7695 113.459C50.7406 113.376 50.717 113.291 50.6989 113.205L47.9755 98.4546L46.0564 88.0371L45.6401 85.7684L44.7088 80.6904L44.0315 77.0224C43.9962 76.8024 43.9962 76.5781 44.0315 76.358C44.0757 76.0592 44.1867 75.7741 44.3561 75.5241C44.515 75.2806 44.7258 75.0754 44.9734 74.9233C45.1632 74.8072 45.3705 74.7225 45.5872 74.6724C45.7386 74.6366 45.8939 74.62 46.0494 74.623H52.1911L89.2322 74.7502L88.5267 71.0468C88.4707 70.7503 88.4803 70.4451 88.5549 70.1528C88.628 69.8603 88.7668 69.5884 88.9606 69.3577C89.152 69.1246 89.3931 68.9375 89.6661 68.8099C89.938 68.6794 90.236 68.6129 90.5375 68.6156H115.99C116.468 68.6138 116.931 68.7802 117.299 69.0856C117.666 69.3903 117.916 69.814 118.004 70.2835L123.123 97.4546C123.179 97.7511 123.169 98.0563 123.095 98.3486C123.018 98.6407 122.88 98.913 122.689 99.1472C122.497 99.3801 122.256 99.5682 121.984 99.6985C121.711 99.8272 121.414 99.8947 121.112 99.8964L121.102 99.9035Z" fill="var(--sapContent_Illustrative_Color2)"/>
<path d="M47.1783 120.993C46.7008 120.993 46.2388 121.162 45.873 121.47C45.5033 121.775 45.2534 122.202 45.1675 122.675C45.148 122.791 45.1374 122.91 45.1357 123.028V123.94C45.1357 124.208 45.1885 124.473 45.291 124.721C45.3922 124.968 45.5421 125.193 45.7319 125.381C45.9214 125.571 46.1453 125.722 46.3916 125.827C46.6396 125.926 46.9041 125.978 47.1712 125.979H75.5836C75.0552 125.978 74.5348 125.849 74.0666 125.604C73.5976 125.358 73.1955 125.002 72.8954 124.565L70.3767 120.975H47.1712L47.1783 120.993Z" fill="var(--sapContent_Illustrative_Color14)"/>
<path d="M160.704 120.993H70.3942L72.913 124.583C73.214 125.019 73.6158 125.375 74.0842 125.622C74.5525 125.867 75.0728 125.995 75.6011 125.996H158.947C159.414 125.996 159.862 125.811 160.192 125.481C160.523 125.15 160.71 124.701 160.711 124.233V120.993H160.704Z" fill="var(--sapContent_Illustrative_Color13)"/>
<path d="M118.011 70.3078C117.921 69.839 117.672 69.4158 117.306 69.1099C116.937 68.8061 116.474 68.6399 115.997 68.6399H90.548C90.2455 68.6386 89.9466 68.705 89.6731 68.8343C89.4006 68.9627 89.1597 69.1497 88.9675 69.382C88.7763 69.6144 88.6379 69.8857 88.5619 70.1771C88.4861 70.4692 88.4753 70.7744 88.5301 71.0711L89.2356 74.7745L105.29 74.8311H105.347C105.819 74.831 106.276 74.9974 106.638 75.301C107.005 75.6004 107.254 76.0195 107.343 76.4849L111.795 99.8995H121.119C121.42 99.8991 121.718 99.8328 121.991 99.7052C122.263 99.5752 122.504 99.3871 122.696 99.1539C122.89 98.9226 123.03 98.651 123.105 98.3588C123.179 98.0665 123.19 97.7617 123.137 97.4648L118.011 70.3078Z" fill="var(--sapContent_Illustrative_Color13)"/>
<path d="M78.956 79.3544C76.9295 79.3273 74.92 79.727 73.0576 80.5277C71.1928 81.3295 69.5173 82.5154 68.14 84.0084C66.7708 85.523 65.7337 87.3082 65.0955 89.249C64.4606 91.1909 64.2383 93.2444 64.4429 95.2776C65.2049 104.017 72.9094 111.126 81.6547 111.126C83.681 111.156 85.6908 110.757 87.5531 109.957C89.4217 109.16 91.1011 107.976 92.4813 106.483C93.8505 104.967 94.8876 103.181 95.5257 101.239C96.1607 99.2971 96.383 97.2436 96.1783 95.2104C95.4058 86.4785 87.6836 79.3544 78.956 79.3544ZM91.8851 105.935C90.5805 107.342 88.9968 108.46 87.2355 109.218C85.4728 109.973 83.5713 110.347 81.6547 110.317C73.3328 110.317 65.9669 103.536 65.2402 95.2034C65.0428 93.2804 65.2507 91.3373 65.8505 89.4999C66.4543 87.6674 67.4349 85.9821 68.7291 84.5526C70.0297 83.1394 71.6143 82.0182 73.3786 81.2627C75.141 80.5066 77.0425 80.131 78.9595 80.1601C87.2849 80.1601 94.6438 86.9414 95.374 95.274C95.5731 97.197 95.3652 99.1405 94.7637 100.978C94.1587 102.809 93.1782 104.495 91.8851 105.925V105.935Z" fill="var(--sapContent_Illustrative_Color3)"/>
<path d="M79.1462 82.0292C71.8932 82.0292 66.4782 87.9729 67.1096 95.2419C67.7411 102.511 74.2004 108.451 81.4534 108.451C88.7064 108.451 94.125 102.507 93.49 95.2419C92.855 87.9765 86.3993 82.0292 79.1462 82.0292ZM86.2334 92.217L79.0122 100.143C78.893 100.268 78.7498 100.367 78.5913 100.435C78.4327 100.503 78.2621 100.538 78.0897 100.538C77.9173 100.538 77.7467 100.503 77.5881 100.435C77.4296 100.367 77.2864 100.268 77.1672 100.143L74.2956 97.5C74.1611 97.3911 74.0499 97.2561 73.9688 97.1031C73.8876 96.9502 73.8381 96.7823 73.8233 96.6098C73.8085 96.4372 73.8286 96.2633 73.8825 96.0987C73.9364 95.9341 74.0229 95.7821 74.1369 95.6518C74.2556 95.5262 74.3986 95.4261 74.5572 95.3577C74.7158 95.2893 74.8867 95.254 75.0594 95.254C75.2321 95.254 75.4029 95.2893 75.5616 95.3577C75.7202 95.4261 75.8632 95.5262 75.9819 95.6518L77.848 97.3692L84.2262 90.3653C84.3454 90.2406 84.4886 90.1413 84.6471 90.0735C84.8057 90.0056 84.9763 89.9707 85.1487 89.9707C85.3211 89.9707 85.4917 90.0056 85.6502 90.0735C85.8088 90.1413 85.952 90.2406 86.0712 90.3653C86.2061 90.4742 86.3176 90.6093 86.3991 90.7625C86.4806 90.9156 86.5305 91.0837 86.5456 91.2566C86.5608 91.4295 86.5409 91.6036 86.4873 91.7687C86.4336 91.9337 86.3473 92.0862 86.2334 92.217Z" fill="var(--sapContent_Illustrative_Color12)"/>
</svg>
