<svg width="320" height="224" viewBox="0 0 320 224" fill="none" xmlns="http://www.w3.org/2000/svg" id="sapIllus-Scene-SearchFolder">
<path d="M64.4533 64.2114C64.7825 64.2816 65.0946 64.4159 65.3719 64.6066C65.6491 64.7972 65.886 65.0404 66.069 65.3224C66.252 65.6044 66.3775 65.9196 66.4384 66.25C66.4993 66.5804 66.4944 66.9196 66.4239 67.2481C66.3469 67.6797 66.1679 68.0867 65.9019 68.4355L87.0242 129.967C87.5126 131.394 87.5753 132.931 87.2046 134.393C86.8338 135.854 86.0457 137.177 84.9359 138.199C85.4173 140.093 85.1675 142.098 84.2361 143.816C83.3046 145.534 81.7598 146.84 79.9082 147.474L17.3549 168.857L22.9047 175.353C24.2357 176.911 24.2404 179.047 22.9047 180.108L22.6508 180.314C23.3092 181.699 23.1211 183.248 22.0346 184.106L6.09058 196.877C8.53493 198.627 11.4684 199.566 14.4765 199.562H305.552C309.383 199.561 313.057 198.041 315.767 195.338C318.476 192.634 319.999 188.967 320 185.144V184.562L254.267 162.094C252.916 161.633 251.72 160.808 250.81 159.71L243.755 161.348L194.653 172.79L134.315 187.096C132.793 187.458 131.207 187.461 129.684 187.104C128.16 186.747 126.741 186.041 125.539 185.04C123.152 183.467 121.413 181.088 120.643 178.338L90.6081 71.1295C90.4465 70.5499 90.404 69.9438 90.4834 69.3474C90.5627 68.751 90.7622 68.1767 91.0698 67.6593C91.3774 67.1418 91.7867 66.6919 92.2732 66.3365C92.7596 65.9811 93.3132 65.7276 93.9004 65.5913L188.85 43.0626L195.199 33.746C195.918 32.6961 197.003 31.9513 198.242 31.6574L272.431 14.071C273.439 13.8311 274.488 13.8123 275.504 14.0157C276.52 14.2192 277.48 14.6402 278.317 15.2496C279.155 15.8591 279.85 16.6425 280.354 17.5458C280.859 18.4492 281.161 19.451 281.24 20.4822L283.714 52.3369L297.307 12.7333C297.638 11.7661 298.157 10.8735 298.835 10.1066C299.512 9.33971 300.334 8.71352 301.254 8.26371C302.174 7.81391 303.173 7.5494 304.195 7.48521C305.218 7.42102 306.243 7.55838 307.212 7.88959L319.864 12.2124C319.465 9.64682 318.381 7.23577 316.726 5.23289C315.071 3.23001 312.905 1.70932 310.457 0.830688H42.7055L64.4533 64.2114ZM89.7521 23.9461C90.0383 23.8473 90.342 23.8093 90.6438 23.8346C90.9455 23.8599 91.2387 23.9478 91.5044 24.0928C91.7701 24.2377 92.0025 24.4365 92.1867 24.6763C92.3709 24.9162 92.5028 25.1917 92.574 25.4854L95.2878 34.8349C95.3869 35.1721 95.4174 35.5255 95.3774 35.8746C95.3375 36.2236 95.228 36.5613 95.0553 36.8675C94.8826 37.1736 94.6502 37.4421 94.3719 37.6573C94.0936 37.8725 93.775 38.03 93.4348 38.1204C93.2946 38.1608 93.1515 38.1906 93.0067 38.2095C92.4778 38.2798 91.9415 38.1516 91.5018 37.8498C91.0622 37.5481 90.7504 37.0943 90.6269 36.5762L87.9131 27.2315C87.8141 26.8941 87.7839 26.5402 87.8241 26.1908C87.8643 25.8415 87.9743 25.5038 88.1474 25.1976C88.3206 24.8914 88.5534 24.6228 88.8323 24.4079C89.1111 24.1929 89.4303 24.036 89.7709 23.9461H89.7521ZM65.5021 36.6185C65.831 36.5987 66.1605 36.6455 66.4709 36.756C66.7813 36.8665 67.066 37.0384 67.3082 37.2614L78.2291 47.1741C78.7167 47.6226 79.0114 48.2419 79.0518 48.9024C79.0921 49.5629 78.8749 50.2133 78.4455 50.7176C78.0471 51.1824 77.4879 51.4807 76.8793 51.5531C76.5281 51.5949 76.1721 51.5607 75.8353 51.453C75.4985 51.3453 75.1888 51.1666 74.9274 50.9289L64.0065 41.0115C63.5189 40.563 63.2241 39.9437 63.1838 39.2832C63.1435 38.6227 63.3607 37.9722 63.7901 37.4679C64.0023 37.2161 64.2633 37.0097 64.5576 36.8613C64.8518 36.7129 65.1731 36.6255 65.5021 36.6044V36.6185Z" fill="var(--sapContent_Illustrative_Color7)"/>
<path d="M22.6415 180.319L22.4439 180.474C23.0224 181.746 22.8296 183.14 21.8607 183.919L5.86975 196.732L6.08608 196.882L22.0301 184.111C23.0977 183.252 23.3 181.703 22.6415 180.319Z" fill="var(--sapContent_Illustrative_Color20)"/>
<path d="M22.4441 180.474L5.3619 194.16C5.27966 194.417 5.16256 194.662 5.01386 194.887C4.85115 195.124 4.65468 195.336 4.43066 195.516C4.87604 195.949 5.34722 196.355 5.84164 196.732L21.8327 183.919C22.8298 183.139 23.0226 181.746 22.4441 180.474Z" fill="var(--sapContent_Illustrative_Color20)"/>
<path d="M5.01389 194.887C5.16258 194.662 5.27967 194.417 5.36191 194.16L4.09204 195.174L4.43071 195.516C4.65472 195.336 4.85117 195.124 5.01389 194.887V194.887Z" fill="var(--sapContent_Illustrative_Color18)"/>
<path d="M287.044 95.7844L287.571 102.599L319.991 113.681V107.438L288.587 96.709C288.012 96.5147 287.486 96.1994 287.044 95.7844V95.7844Z" fill="var(--sapContent_Illustrative_Color18)"/>
<path d="M297.269 12.7521L283.677 52.3557L286.607 90.1195C287.149 89.4193 287.898 88.9067 288.748 88.654C289.597 88.4014 290.505 88.4216 291.343 88.7114L319.991 98.502V91.9311L294.363 83.1449C293.833 82.9664 293.344 82.6849 292.924 82.3168C292.504 81.9487 292.162 81.5014 291.916 81.0004C291.67 80.4995 291.526 79.955 291.493 79.3983C291.459 78.8416 291.536 78.2837 291.719 77.7568C291.898 77.2284 292.18 76.7407 292.549 76.3216C292.918 75.9026 293.366 75.5606 293.868 75.3153C294.37 75.0701 294.916 74.9265 295.474 74.8928C296.032 74.8592 296.591 74.936 297.119 75.119L319.986 82.9384V14.4136C319.986 13.6815 319.931 12.9503 319.821 12.2264L307.169 7.90373C306.2 7.57334 305.176 7.43667 304.154 7.50153C303.132 7.56638 302.132 7.83153 301.213 8.28175C300.294 8.73196 299.472 9.35842 298.796 10.1255C298.119 10.8925 297.6 11.7851 297.269 12.7521V12.7521Z" fill="var(--sapContent_Illustrative_Color18)"/>
<path d="M288.286 111.808L290.99 146.652C291.071 147.679 290.78 148.7 290.169 149.531C289.559 150.361 288.671 150.945 287.665 151.177L250.801 159.714C251.71 160.813 252.907 161.638 254.258 162.099L319.991 184.566V122.458C319.568 122.447 319.149 122.371 318.749 122.232L288.286 111.808Z" fill="var(--sapContent_Illustrative_Color18)"/>
<path d="M291.724 77.757C291.541 78.2838 291.464 78.8417 291.497 79.3984C291.531 79.9551 291.675 80.4996 291.921 81.0006C292.167 81.5015 292.509 81.9489 292.929 82.3169C293.349 82.685 293.838 82.9665 294.367 83.1451L319.991 91.8984V82.9386L297.124 75.1192C296.596 74.9361 296.037 74.8593 295.479 74.893C294.921 74.9267 294.375 75.0702 293.873 75.3155C293.371 75.5607 292.923 75.9027 292.554 76.3218C292.185 76.7408 291.903 77.2286 291.724 77.757V77.757Z" fill="var(--sapContent_Illustrative_Color7)"/>
<path d="M286.607 90.1195L287.044 95.7845C287.485 96.2045 288.011 96.5247 288.587 96.7232L319.991 107.453V98.4879L291.343 88.6974C290.504 88.409 289.595 88.3911 288.745 88.6463C287.895 88.9015 287.147 89.4169 286.607 90.1195V90.1195Z" fill="var(--sapContent_Illustrative_Color7)"/>
<path d="M288.286 111.808L318.749 122.218C319.149 122.357 319.567 122.433 319.991 122.443V113.681L287.571 102.599L288.286 111.808Z" fill="var(--sapContent_Illustrative_Color7)"/>
<path d="M204.093 170.547L194.635 172.79L243.742 161.352L227.91 165.018L204.093 170.547Z" fill="var(--sapContent_Illustrative_Color2)"/>
<path d="M121.862 177.714L121.466 168.636L102.249 94.0101C102.173 93.7164 102.157 93.4105 102.201 93.1104C102.246 92.8103 102.349 92.522 102.507 92.2623C102.664 92.0027 102.871 91.777 103.117 91.5984C103.363 91.4198 103.642 91.292 103.937 91.2222L107.493 90.3774L105.062 80.9436C104.986 80.6498 104.97 80.3438 105.014 80.0437C105.058 79.7436 105.162 79.4554 105.319 79.1958C105.476 78.9362 105.684 78.7104 105.93 78.5319C106.175 78.3533 106.454 78.2254 106.75 78.1557L111.877 76.9306L109.572 66.3938C109.299 65.15 110.268 63.8922 111.717 63.6059L184.561 49.3423L188.822 43.0906L93.8725 65.6193C93.2853 65.7556 92.7318 66.0092 92.2453 66.3646C91.7589 66.72 91.3495 67.1699 91.0419 67.6873C90.7343 68.2048 90.5348 68.7789 90.4555 69.3753C90.3761 69.9717 90.4186 70.578 90.5802 71.1576L120.615 178.366C121.385 181.116 123.124 183.495 125.511 185.068C124.416 184.17 123.524 183.05 122.895 181.782C122.266 180.514 121.914 179.128 121.862 177.714V177.714Z" fill="var(--sapContent_Illustrative_Color20)"/>
<path d="M103.937 91.2035C103.641 91.2732 103.362 91.4012 103.117 91.5798C102.871 91.7584 102.664 91.984 102.506 92.2436C102.349 92.5032 102.245 92.7915 102.201 93.0917C102.157 93.3918 102.173 93.6977 102.249 93.9915L121.466 168.618L120.22 139.776L107.493 90.34L103.937 91.2035Z" fill="var(--sapContent_Illustrative_Color8)"/>
<path d="M106.75 78.1369C106.454 78.2066 106.175 78.3345 105.929 78.5131C105.684 78.6917 105.476 78.9174 105.319 79.177C105.162 79.4366 105.058 79.7249 105.014 80.025C104.969 80.3251 104.986 80.631 105.061 80.9248L107.493 90.3588L120.22 139.795L118.889 109.025L111.876 76.9307L106.75 78.1369Z" fill="var(--sapContent_Illustrative_Color18)"/>
<path d="M109.562 66.3845L111.877 76.9307L118.898 109.034L117.737 82.2812C117.636 79.887 118.374 77.5326 119.822 75.6213C121.271 73.7101 123.34 72.3611 125.676 71.8055L175.728 59.9356C176.969 59.6447 178.055 58.8993 178.771 57.8471L184.561 49.3518L111.717 63.6152C110.259 63.8828 109.29 65.1407 109.562 66.3845Z" fill="var(--sapContent_Illustrative_Color8)"/>
<path d="M290.991 146.652L288.286 111.808L287.571 102.599L287.045 95.7844L286.607 90.1195L283.677 52.3557L281.203 20.5011C281.124 19.4698 280.822 18.468 280.317 17.5647C279.812 16.6613 279.117 15.8779 278.28 15.2685C277.443 14.659 276.483 14.2381 275.467 14.0346C274.45 13.8311 273.402 13.8499 272.394 14.0898L198.205 31.6763C196.965 31.9702 195.88 32.7149 195.162 33.7648L188.812 43.0813L184.551 49.3331L178.762 57.8283C178.045 58.8806 176.959 59.626 175.719 59.9169L125.667 71.7679C123.331 72.3235 121.261 73.6725 119.813 75.5838C118.364 77.4951 117.627 79.8496 117.727 82.2438L118.889 108.997L120.22 139.767L121.467 168.609L121.862 177.686C121.919 179.095 122.275 180.477 122.905 181.74C123.536 183.003 124.427 184.118 125.521 185.012C126.723 186.012 128.142 186.719 129.665 187.076C131.189 187.433 132.775 187.43 134.297 187.068L194.654 172.79L204.112 170.552L227.929 165.018L243.761 161.352L250.815 159.714L287.68 151.177C288.682 150.942 289.568 150.357 290.175 149.527C290.782 148.697 291.072 147.677 290.991 146.652V146.652Z" fill="var(--sapContent_Illustrative_Color20)"/>
<path d="M22.4441 180.474L22.6416 180.319L22.8956 180.112C24.222 179.051 24.2173 176.916 22.8956 175.358L17.3457 168.862L17.1012 168.946L22.7075 175.517C23.9539 176.977 23.9679 178.948 22.7404 179.929L3.92725 195L4.10127 195.183L5.37119 194.169L22.4441 180.474Z" fill="var(--sapContent_Illustrative_Color18)"/>
<path d="M4.83018 190.982C5.05858 190.801 5.24762 190.575 5.38587 190.319C5.52413 190.062 5.60869 189.78 5.63441 189.49C5.66349 189.168 5.62678 188.843 5.52653 188.536C5.42629 188.229 5.2646 187.945 5.05122 187.702C4.64667 187.209 4.06699 186.891 3.43329 186.815C2.79959 186.739 2.16093 186.91 1.65081 187.293C1.47911 187.425 1.32979 187.583 1.20868 187.763C1.00358 188.066 0.879028 188.417 0.846583 188.781C0.817509 189.103 0.854159 189.427 0.954403 189.735C1.05465 190.042 1.2164 190.326 1.42978 190.569C1.83366 191.063 2.413 191.381 3.04673 191.458C3.68046 191.535 4.3195 191.365 4.83018 190.982V190.982Z" fill="var(--sapContent_Illustrative_Color18)"/>
<path d="M22.7307 179.92C23.9583 178.939 23.9442 176.968 22.6978 175.508L17.0915 168.937L14.8905 169.688L16.847 171.974L0.0281982 185.444C0.0459286 186.277 0.134062 187.108 0.291607 187.927C0.475389 187.441 0.785484 187.014 1.18994 186.688C1.84955 186.188 2.67723 185.961 3.50016 186.056C4.32309 186.15 5.07766 186.558 5.60628 187.195C5.88627 187.514 6.09789 187.886 6.22812 188.29C6.35835 188.693 6.40441 189.119 6.3635 189.541C6.32465 190.027 6.16283 190.496 5.89318 190.903C5.72907 191.142 5.53105 191.357 5.30527 191.541C4.77453 191.948 4.12855 192.177 3.45957 192.195C2.7906 192.214 2.13284 192.021 1.58029 191.644C2.19907 192.869 2.99103 193.999 3.93191 195L22.7307 179.92Z" fill="var(--sapContent_Illustrative_Color18)"/>
<path d="M5.29112 191.531C5.5169 191.348 5.71491 191.133 5.87902 190.893C6.14867 190.486 6.3105 190.018 6.34934 189.532C6.39026 189.11 6.34419 188.684 6.21397 188.28C6.08374 187.877 5.87212 187.504 5.59213 187.185C5.06351 186.549 4.30894 186.141 3.48602 186.046C2.66309 185.952 1.83541 186.178 1.1758 186.678C0.771342 187.004 0.461247 187.432 0.277466 187.917C0.53134 189.203 0.960212 190.447 1.55208 191.616C2.10404 191.999 2.76344 192.197 3.43538 192.181C4.10731 192.166 4.75709 191.939 5.29112 191.531V191.531ZM1.42979 190.551C1.21641 190.307 1.05466 190.024 0.954416 189.716C0.854171 189.409 0.81752 189.084 0.846595 188.762C0.87904 188.398 1.00359 188.047 1.2087 187.744C1.3298 187.565 1.47912 187.406 1.65083 187.275C2.16095 186.892 2.79961 186.72 3.43331 186.796C4.06701 186.873 4.6467 187.19 5.05125 187.683C5.26463 187.926 5.42632 188.21 5.52657 188.517C5.62681 188.825 5.66352 189.149 5.63445 189.471C5.60873 189.761 5.52416 190.043 5.38591 190.3C5.24765 190.556 5.05862 190.782 4.83021 190.964C4.31952 191.346 3.68049 191.516 3.04675 191.439C2.41302 191.362 1.83367 191.044 1.42979 190.551V190.551Z" fill="var(--sapContent_Illustrative_Color20)"/>
<path d="M16.8709 171.983L14.9143 169.697L0.0426025 174.78V185.148C0.0426025 185.252 0.0426025 185.355 0.0426025 185.453L16.8709 171.983Z" fill="var(--sapContent_Illustrative_Color8)"/>
<path d="M14.8905 169.697L17.0916 168.946L17.3362 168.862L79.8896 147.478C81.7411 146.844 83.2861 145.539 84.2175 143.821C85.149 142.102 85.3988 140.098 84.9174 138.204C84.1232 138.944 83.1805 139.507 82.1519 139.856L0 167.937V174.78L14.8905 169.697Z" fill="var(--sapContent_Illustrative_Color20)"/>
<path d="M82.1712 139.856C83.1998 139.507 84.1425 138.944 84.9367 138.204C86.0464 137.181 86.8346 135.859 87.2053 134.397C87.576 132.936 87.5134 131.398 87.0249 129.972L65.9026 68.4356C65.7208 68.6845 65.4896 68.8934 65.2234 69.0492C64.9572 69.2051 64.6617 69.3046 64.3552 69.3415C64.1012 69.3809 63.8426 69.3809 63.5886 69.3415L53.7118 67.6377C53.2771 67.5726 52.8683 67.3912 52.5287 67.1127C52.1892 66.8342 51.9316 66.4691 51.7835 66.0561C51.6203 65.5957 51.5779 65.1013 51.6602 64.6199C51.7425 64.1385 51.9468 63.686 52.2538 63.3057C52.5241 62.9847 52.8756 62.7418 53.2718 62.6023C53.668 62.4628 54.0944 62.4318 54.5067 62.5125L64.3835 64.2162H64.4681L42.7203 0.854194L42.4287 0.00476074H14.482C10.65 0.00476074 6.975 1.52378 4.2654 4.22775C1.55581 6.93172 0.0335693 10.5991 0.0335693 14.4231V28.5036L21.8379 21.0503L28.7328 41.1431L0.042985 50.9524V167.928L82.1712 139.856Z" fill="var(--sapContent_Illustrative_Color18)"/>
<path d="M21.8232 21.0596L0.0189209 28.5081V50.9617L28.7182 41.1524L21.8232 21.0596Z" fill="var(--sapContent_Illustrative_Color7)"/>
<path d="M54.4966 62.4889C54.0843 62.4083 53.6579 62.4393 53.2617 62.5788C52.8655 62.7182 52.514 62.9611 52.2437 63.2821C51.9368 63.6624 51.7325 64.1149 51.6501 64.5963C51.5678 65.0777 51.6102 65.5721 51.7734 66.0325C51.9216 66.4455 52.1791 66.8106 52.5187 67.0891C52.8582 67.3676 53.2671 67.5491 53.7018 67.6142L63.5786 69.318C63.8327 69.3573 64.0912 69.3573 64.3452 69.318C64.6516 69.281 64.9472 69.1816 65.2134 69.0258C65.4796 68.8699 65.7108 68.661 65.8926 68.4121C66.1587 68.0633 66.3376 67.6563 66.4147 67.2247C66.4851 66.8962 66.4901 66.5569 66.4291 66.2265C66.3682 65.8961 66.2427 65.5809 66.0597 65.2989C65.8767 65.0169 65.6398 64.7737 65.3626 64.5831C65.0854 64.3925 64.7732 64.2582 64.444 64.188H64.3593L54.4966 62.4889Z" fill="var(--sapContent_Illustrative_Color5)"/>
<path d="M90.6128 36.5668C90.7363 37.0849 91.048 37.5387 91.4877 37.8404C91.9274 38.1422 92.4637 38.2704 92.9926 38.2001C93.1373 38.1812 93.2804 38.1514 93.4206 38.111C93.7609 38.0206 94.0795 37.8631 94.3578 37.6479C94.6361 37.4328 94.8685 37.1643 95.0412 36.8581C95.2139 36.5519 95.3234 36.2143 95.3633 35.8652C95.4033 35.5161 95.3728 35.1627 95.2737 34.8256L92.56 25.4762C92.4887 25.1825 92.3568 24.9068 92.1726 24.667C91.9884 24.4271 91.7559 24.2283 91.4902 24.0834C91.2245 23.9384 90.9314 23.8505 90.6296 23.8252C90.3278 23.7999 90.0242 23.838 89.738 23.9367C89.3978 24.0271 89.0791 24.1845 88.8008 24.3996C88.5225 24.6148 88.2901 24.8834 88.1174 25.1896C87.9447 25.4958 87.8352 25.8333 87.7952 26.1824C87.7553 26.5314 87.7858 26.885 87.8849 27.2221L90.6128 36.5668Z" fill="var(--sapContent_Illustrative_Color5)"/>
<path d="M64.0066 40.9974L74.9276 50.9148C75.189 51.1525 75.4986 51.3312 75.8354 51.4389C76.1722 51.5466 76.5283 51.5808 76.8794 51.539C77.4881 51.4666 78.0472 51.1685 78.4456 50.7036C78.875 50.1994 79.0923 49.5488 79.0519 48.8883C79.0116 48.2278 78.7168 47.6085 78.2293 47.16L67.3083 37.2473C67.0662 37.0243 66.7814 36.8524 66.4711 36.7419C66.1607 36.6314 65.8312 36.5846 65.5023 36.6044C65.1743 36.6237 64.8536 36.7089 64.5595 36.8549C64.2653 37.0008 64.0037 37.2045 63.7903 37.4538C63.3609 37.9581 63.1436 38.6086 63.184 39.2691C63.2243 39.9296 63.5191 40.5489 64.0066 40.9974V40.9974Z" fill="var(--sapContent_Illustrative_Color5)"/>
<path opacity="0.5" d="M233.295 155.26C260.471 149.773 277.953 122.95 272.332 95.2962C266.712 67.6422 240.172 49.7085 212.996 55.1998C185.821 60.6912 168.315 87.5144 173.959 115.173C179.603 142.832 206.12 160.751 233.295 155.26Z" fill="var(--sapContent_Illustrative_Color7)"/>
<path opacity="0.7" d="M233.62 57.1007L214.054 54.9886L201.76 152.655L221.335 154.753L233.62 57.1007Z" fill="var(--sapContent_Illustrative_Color8)"/>
<path opacity="0.7" d="M229.091 156.11L241.903 58.1803L235.817 57.5092L223.005 155.443L229.091 156.11Z" fill="var(--sapContent_Illustrative_Color8)"/>
<path d="M256.736 144.869L244.39 153.022L257.296 172.542L269.652 164.399L256.736 144.869Z" fill="var(--sapContent_Illustrative_Color6)"/>
<path d="M256.812 171.157C256.341 171.472 256.014 171.961 255.903 172.516C255.792 173.071 255.905 173.647 256.219 174.119L286.729 220.025C287.972 221.858 289.894 223.123 292.072 223.541C294.248 223.962 296.503 223.505 298.341 222.269L299.799 221.298C301.631 220.053 302.895 218.136 303.317 215.966C303.74 213.795 303.283 211.545 302.047 209.709L271.547 163.882C271.391 163.647 271.19 163.444 270.956 163.286C270.721 163.129 270.458 163.019 270.181 162.964C269.903 162.908 269.618 162.908 269.34 162.963C269.063 163.019 268.8 163.128 268.565 163.286L256.812 171.157Z" fill="var(--sapContent_Illustrative_Color3)"/>
<path d="M243.615 151.998L245.712 155.073C245.712 155.073 253.393 156.758 259.422 148.75L256.092 143.841L250.528 148.103L243.615 151.998Z" fill="var(--sapContent_Illustrative_Color4)"/>
<path d="M233.982 156.926C222.024 159.347 209.594 157.556 198.811 151.857C188.029 146.156 179.56 136.901 174.848 125.668C170.134 114.437 169.469 101.921 172.967 90.2555C176.466 78.589 183.911 68.4944 194.033 61.6911C204.155 54.89 216.327 51.8015 228.475 52.9517C240.623 54.1013 251.995 59.4192 260.654 67.9991C269.312 76.5797 274.723 87.8899 275.963 100.004C277.201 112.118 274.193 124.286 267.45 134.435C263.628 140.197 258.704 145.15 252.96 149.009C247.219 152.87 240.769 155.561 233.982 156.926V156.926ZM213.937 58.0442C202.948 60.2431 193.063 66.1763 185.967 74.8328C178.873 83.4908 175.007 94.3352 175.027 105.519C175.05 116.702 178.957 127.532 186.084 136.162C193.213 144.793 203.119 150.689 214.116 152.848C225.113 155.003 236.518 153.286 246.389 147.99C256.259 142.692 263.983 134.143 268.245 123.8C272.504 113.456 273.038 101.958 269.755 91.2647C266.469 80.5712 259.57 71.3454 250.232 65.1595C239.556 58.0832 226.502 55.5241 213.937 58.0442V58.0442Z" fill="var(--sapContent_Illustrative_Color4)"/>
</svg>
