<svg width="320" height="240" viewBox="0 0 320 240" fill="none" xmlns="http://www.w3.org/2000/svg" id="sapIllus-Scene-NoColumnsSet">
<path d="M305.547 23H14.4533C12.5559 22.9983 10.6768 23.3705 8.92329 24.0954C7.16981 24.8203 5.57638 25.8836 4.23409 27.2247C2.8918 28.5657 1.82697 30.1582 1.10045 31.911C0.373942 33.6638 -8.08861e-07 35.5426 0 37.44V208.547C0 212.38 1.52275 216.056 4.23328 218.767C6.9438 221.477 10.6201 223 14.4533 223H305.547C309.38 223 313.056 221.477 315.767 218.767C318.477 216.056 320 212.38 320 208.547V37.44C320 35.5426 319.626 33.6638 318.9 31.911C318.173 30.1582 317.108 28.5657 315.766 27.2247C314.424 25.8836 312.83 24.8203 311.077 24.0954C309.323 23.3705 307.444 22.9983 305.547 23Z" style="fill:var(--sapContent_Illustrative_Color7)"/>
<path d="M307.617 118.777L250.515 99.172C248.094 98.3408 245.459 99.634 244.629 102.06L216.168 185.325C215.339 187.752 216.629 190.393 219.05 191.224L276.152 210.829C278.573 211.66 281.208 210.367 282.037 207.94L310.498 124.675C311.328 122.249 310.038 119.608 307.617 118.777Z" style="fill:var(--sapContent_Illustrative_Color18)"/>
<path d="M273.369 120.205C271.484 119.451 269.418 119.274 267.432 119.697C265.447 120.119 263.631 121.122 262.214 122.579C260.797 124.036 259.843 125.881 259.473 127.881C259.102 129.881 259.332 131.947 260.133 133.816C260.933 135.686 262.269 137.275 263.971 138.384C265.673 139.492 267.664 140.071 269.694 140.045C271.724 140.019 273.7 139.391 275.374 138.239C277.047 137.088 278.342 135.465 279.095 133.576L269.557 129.764L273.369 120.205Z" style="fill:var(--sapContent_Illustrative_Color7)"/>
<path d="M276.42 118.794L272.617 128.345L282.147 132.157C282.647 130.902 282.895 129.562 282.878 128.211C282.861 126.861 282.579 125.527 282.047 124.286C281.515 123.045 280.744 121.921 279.779 120.979C278.813 120.037 277.672 119.294 276.42 118.794Z" style="fill:var(--sapContent_Illustrative_Color19)"/>
<path d="M284.329 152.956L244.538 139.295C243.218 138.842 241.781 139.547 241.329 140.87C240.876 142.193 241.58 143.633 242.9 144.086L282.691 157.747C284.011 158.201 285.448 157.496 285.9 156.173C286.352 154.849 285.649 153.41 284.329 152.956Z" style="fill:var(--sapContent_Illustrative_Color7)"/>
<path d="M280.888 161.059L241.097 147.397C239.777 146.944 238.34 147.649 237.888 148.972C237.436 150.295 238.139 151.735 239.459 152.189L279.25 165.85C280.57 166.303 282.007 165.598 282.459 164.275C282.912 162.952 282.208 161.512 280.888 161.059Z" style="fill:var(--sapContent_Illustrative_Color7)"/>
<path d="M259.033 162.634L237.835 155.356C236.515 154.903 235.078 155.608 234.626 156.931C234.174 158.254 234.877 159.694 236.197 160.147L257.396 167.425C258.716 167.878 260.152 167.173 260.605 165.85C261.057 164.527 260.353 163.087 259.033 162.634Z" style="fill:var(--sapContent_Illustrative_Color7)"/>
<path d="M36.2032 139H152.846C154.644 139 156.101 140.452 156.101 142.244V217.526C156.101 219.318 154.644 220.77 152.846 220.77H36.2032C34.4055 220.77 32.9482 219.318 32.9482 217.526V142.244C32.9482 140.452 34.4055 139 36.2032 139Z" style="fill:var(--sapContent_Illustrative_Color18)"/>
<path d="M38.9036 143.406H150.307C151.976 143.406 153.328 144.754 153.328 146.417V214.225C153.328 215.888 151.976 217.235 150.307 217.235H38.9036C37.2351 217.235 35.8826 215.888 35.8826 214.225V146.417C35.8826 144.754 37.2351 143.406 38.9036 143.406Z" style="fill:var(--sapContent_Illustrative_Color7)"/>
<path d="M15.9999 222.267H169.333L165.484 223.824C165.241 223.921 164.982 223.972 164.721 223.975L19.939 224.334C19.5573 224.335 19.1828 224.23 18.8588 224.029L16.0035 222.256L15.9999 222.267Z" style="fill:var(--sapContent_Illustrative_Color19)"/>
<path d="M15.9999 221.707C16.0009 221.437 16.109 221.179 16.3007 220.989C16.4924 220.798 16.7519 220.691 17.0225 220.691H168.311C168.581 220.691 168.841 220.798 169.032 220.989C169.224 221.179 169.332 221.437 169.333 221.707V222.267H15.9999V221.707Z" style="fill:var(--sapContent_Illustrative_Color18)"/>
<path d="M101.587 220.659H83.9044V221.018C83.9044 221.398 84.0561 221.763 84.3262 222.032C84.5963 222.302 84.9627 222.453 85.3447 222.453H100.158C100.54 222.453 100.906 222.302 101.176 222.032C101.446 221.763 101.598 221.398 101.598 221.018V220.659H101.587Z" style="fill:var(--sapContent_Illustrative_Color20)"/>
<path d="M94.2995 141.881C93.864 141.881 93.511 141.529 93.511 141.095C93.511 140.661 93.864 140.31 94.2995 140.31C94.735 140.31 95.0881 140.661 95.0881 141.095C95.0881 141.529 94.735 141.881 94.2995 141.881Z" style="fill:var(--sapContent_Illustrative_Color19)"/>
<path d="M40.0001 104.05C40.0001 102.861 43.4511 101.91 48.062 101.694C48.3257 97.0886 49.3407 93.6644 50.5297 93.667C51.7187 93.6696 52.7073 97.1202 52.9604 101.749C57.5845 102.065 61.0224 103.099 61.0065 104.29C60.9907 105.482 57.5555 106.433 52.9446 106.647C52.6677 111.252 51.6659 114.676 50.4796 114.674C49.2932 114.671 48.2993 111.22 48.0462 106.591C43.4221 106.275 39.9869 105.242 40.0001 104.05Z" style="fill:var(--sapContent_Illustrative_Color18)"/>
<path d="M18.6667 45.6915C18.6667 44.9253 20.8907 44.3121 23.8622 44.1728C24.0321 41.205 24.6862 38.9983 25.4524 39C26.2187 39.0017 26.8558 41.2254 27.0189 44.2085C29.9989 44.4123 32.2144 45.0782 32.2042 45.8461C32.194 46.6139 29.9802 47.2272 27.0087 47.3648C26.8303 50.3325 26.1847 52.5393 25.4201 52.5376C24.6556 52.5359 24.0151 50.3122 23.852 47.3291C20.872 47.1253 18.6582 46.4593 18.6667 45.6915Z" style="fill:var(--sapContent_Illustrative_Color18)"/>
<path d="M213.314 52.731H113.907C107.883 52.731 103 57.614 103 63.6375V186.584C103 192.608 107.883 197.491 113.907 197.491H213.314C219.338 197.491 224.221 192.608 224.221 186.584V63.6375C224.221 57.614 219.338 52.731 213.314 52.731Z" style="fill:var(--sapContent_Illustrative_Color8)"/>
<path fill-rule="evenodd" clip-rule="evenodd" d="M114.175 64.4507C114.175 63.955 114.311 63.5576 114.478 63.5576H212.115C212.281 63.5576 212.417 63.936 212.417 64.4507V185.774C212.417 186.269 212.281 186.667 212.115 186.667H114.478C114.311 186.667 114.175 186.288 114.175 185.774V64.4507Z" style="fill:var(--sapContent_Illustrative_Color8)"/>
<path d="M140.427 67.1304H121.203C119.907 67.1304 118.856 68.1809 118.856 69.4767C118.856 70.7725 119.907 71.823 121.203 71.823H140.427C141.723 71.823 142.774 70.7725 142.774 69.4767C142.774 68.1809 141.723 67.1304 140.427 67.1304Z" style="fill:var(--sapContent_Illustrative_Color14)"/>
<path d="M119.523 91.3945C119.523 90.29 120.419 89.3945 121.523 89.3945H140.931C142.036 89.3945 142.931 90.29 142.931 91.3945V171.387C142.931 172.492 142.036 173.387 140.931 173.387H121.523C120.419 173.387 119.523 172.492 119.523 171.387V91.3945Z" style="fill:var(--sapContent_Illustrative_Color7)"/>
<path fill-rule="evenodd" clip-rule="evenodd" d="M121.084 173.339C121.031 173.327 120.979 173.313 120.928 173.297C120.629 173.204 120.361 173.043 120.141 172.833C120.119 172.812 120.098 172.791 120.078 172.77C119.867 172.55 119.706 172.281 119.613 171.983C119.597 171.932 119.583 171.88 119.572 171.827C119.54 171.686 119.523 171.538 119.523 171.387V166.824C120.628 166.824 121.523 167.719 121.523 168.824L121.523 171.387H125.255C126.36 171.387 127.255 172.283 127.255 173.387H121.523C121.372 173.387 121.225 173.371 121.084 173.339ZM142.931 153.491C141.826 153.491 140.931 154.387 140.931 155.491V160.619C140.931 161.724 141.826 162.619 142.931 162.619V153.491ZM142.931 140.159C141.826 140.159 140.931 141.055 140.931 142.159V147.287C140.931 148.392 141.826 149.287 142.931 149.287V140.159ZM142.931 126.827C141.826 126.827 140.931 127.723 140.931 128.827V133.955C140.931 135.059 141.826 135.955 142.931 135.955V126.827ZM142.931 113.495C141.826 113.495 140.931 114.39 140.931 115.495V120.623C140.931 121.727 141.826 122.623 142.931 122.623V113.495ZM142.931 100.163C141.826 100.163 140.931 101.058 140.931 102.163V107.291C140.931 108.395 141.826 109.291 142.931 109.291V100.163ZM119.523 95.9584C120.628 95.9584 121.523 95.063 121.523 93.9584V91.3945L125.255 91.3945C126.36 91.3945 127.255 90.4991 127.255 89.3945H121.523C121.372 89.3945 121.225 89.4113 121.084 89.443C121.031 89.4548 120.979 89.4687 120.928 89.4846C120.629 89.5775 120.361 89.7385 120.141 89.9494C120.119 89.9698 120.098 89.9906 120.078 90.0119C119.867 90.2323 119.706 90.5008 119.613 90.7994C119.597 90.8503 119.583 90.9022 119.572 90.9548C119.54 91.0963 119.523 91.2435 119.523 91.3945V95.9584ZM119.523 100.163C120.628 100.163 121.523 101.058 121.523 102.163V107.291C121.523 108.395 120.628 109.291 119.523 109.291V100.163ZM119.523 113.495C120.628 113.495 121.523 114.39 121.523 115.495V120.623C121.523 121.727 120.628 122.623 119.523 122.623V113.495ZM119.523 126.827C120.628 126.827 121.523 127.723 121.523 128.827V133.955C121.523 135.059 120.628 135.955 119.523 135.955V126.827ZM119.523 140.159C120.628 140.159 121.523 141.055 121.523 142.159V147.287C121.523 148.392 120.628 149.287 119.523 149.287V140.159ZM119.523 153.491C120.628 153.491 121.523 154.387 121.523 155.491V160.619C121.523 161.724 120.628 162.619 119.523 162.619V153.491ZM135.199 89.3945C135.199 90.4991 136.094 91.3945 137.199 91.3945H140.931V93.9584C140.931 95.063 141.826 95.9584 142.931 95.9584V91.3945C142.931 91.2435 142.914 91.0963 142.883 90.9548C142.871 90.9022 142.857 90.8503 142.841 90.7994C142.748 90.5008 142.587 90.2323 142.376 90.0119C142.356 89.9906 142.335 89.9698 142.314 89.9494C142.093 89.7385 141.825 89.5775 141.526 89.4846C141.475 89.4687 141.423 89.4548 141.371 89.443C141.229 89.4113 141.082 89.3945 140.931 89.3945H135.199ZM142.931 166.824C141.826 166.824 140.931 167.719 140.931 168.824V171.387H137.199C136.094 171.387 135.199 172.283 135.199 173.387H140.931C141.082 173.387 141.229 173.371 141.371 173.339C141.423 173.327 141.475 173.313 141.526 173.297C141.825 173.204 142.093 173.043 142.314 172.833C142.335 172.812 142.356 172.791 142.376 172.77C142.587 172.55 142.748 172.281 142.841 171.983C142.857 171.932 142.871 171.88 142.883 171.827C142.914 171.686 142.931 171.538 142.931 171.387V166.824Z" style="fill:var(--sapContent_Illustrative_Color6)"/>
<path d="M153.946 91.3945C153.946 90.29 154.842 89.3945 155.946 89.3945H175.354C176.459 89.3945 177.354 90.29 177.354 91.3945V171.387C177.354 172.492 176.459 173.387 175.354 173.387H155.946C154.842 173.387 153.946 172.492 153.946 171.387V91.3945Z" style="fill:var(--sapContent_Illustrative_Color7)"/>
<path fill-rule="evenodd" clip-rule="evenodd" d="M155.507 173.339C155.454 173.327 155.402 173.313 155.351 173.297C155.053 173.204 154.784 173.043 154.564 172.833C154.543 172.812 154.522 172.791 154.501 172.77C154.29 172.55 154.129 172.281 154.037 171.983C154.021 171.932 154.007 171.88 153.995 171.827C153.963 171.686 153.946 171.538 153.946 171.387V166.824C155.051 166.824 155.946 167.719 155.946 168.824L155.946 171.387H159.679C160.783 171.387 161.679 172.283 161.679 173.387H155.946C155.795 173.387 155.648 173.371 155.507 173.339ZM177.354 153.491C176.25 153.491 175.354 154.387 175.354 155.491V160.619C175.354 161.724 176.25 162.619 177.354 162.619V153.491ZM177.354 140.159C176.25 140.159 175.354 141.055 175.354 142.159V147.287C175.354 148.392 176.25 149.287 177.354 149.287V140.159ZM177.354 126.827C176.25 126.827 175.354 127.723 175.354 128.827V133.955C175.354 135.059 176.25 135.955 177.354 135.955V126.827ZM177.354 113.495C176.25 113.495 175.354 114.39 175.354 115.495V120.623C175.354 121.727 176.25 122.623 177.354 122.623V113.495ZM177.354 100.163C176.25 100.163 175.354 101.058 175.354 102.163V107.291C175.354 108.395 176.25 109.291 177.354 109.291V100.163ZM153.946 95.9584C155.051 95.9584 155.946 95.063 155.946 93.9584V91.3945L159.679 91.3945C160.783 91.3945 161.679 90.4991 161.679 89.3945H155.946C155.795 89.3945 155.648 89.4113 155.507 89.443C155.454 89.4548 155.402 89.4687 155.351 89.4846C155.053 89.5775 154.784 89.7385 154.564 89.9494C154.543 89.9698 154.522 89.9906 154.501 90.0119C154.29 90.2323 154.129 90.5008 154.037 90.7994C154.021 90.8503 154.007 90.9022 153.995 90.9548C153.963 91.0963 153.946 91.2435 153.946 91.3945V95.9584ZM153.946 100.163C155.051 100.163 155.946 101.058 155.946 102.163V107.291C155.946 108.395 155.051 109.291 153.946 109.291V100.163ZM153.946 113.495C155.051 113.495 155.946 114.39 155.946 115.495V120.623C155.946 121.727 155.051 122.623 153.946 122.623V113.495ZM153.946 126.827C155.051 126.827 155.946 127.723 155.946 128.827V133.955C155.946 135.059 155.051 135.955 153.946 135.955V126.827ZM153.946 140.159C155.051 140.159 155.946 141.055 155.946 142.159V147.287C155.946 148.392 155.051 149.287 153.946 149.287V140.159ZM153.946 153.491C155.051 153.491 155.946 154.387 155.946 155.491V160.619C155.946 161.724 155.051 162.619 153.946 162.619V153.491ZM169.622 89.3945C169.622 90.4991 170.517 91.3945 171.622 91.3945H175.354V93.9584C175.354 95.063 176.25 95.9584 177.354 95.9584V91.3945C177.354 91.2435 177.338 91.0963 177.306 90.9548C177.294 90.9022 177.28 90.8503 177.264 90.7994C177.171 90.5008 177.01 90.2323 176.799 90.0119C176.779 89.9906 176.758 89.9698 176.737 89.9494C176.517 89.7385 176.248 89.5775 175.949 89.4846C175.899 89.4687 175.847 89.4548 175.794 89.443C175.653 89.4113 175.505 89.3945 175.354 89.3945H169.622ZM177.354 166.824C176.25 166.824 175.354 167.719 175.354 168.824V171.387H171.622C170.517 171.387 169.622 172.283 169.622 173.387H175.354C175.505 173.387 175.653 173.371 175.794 173.339C175.847 173.327 175.899 173.313 175.949 173.297C176.248 173.204 176.517 173.043 176.737 172.833C176.758 172.812 176.779 172.791 176.799 172.77C177.01 172.55 177.171 172.281 177.264 171.983C177.28 171.932 177.294 171.88 177.306 171.827C177.338 171.686 177.354 171.538 177.354 171.387V166.824Z" style="fill:var(--sapContent_Illustrative_Color6)"/>
<path d="M188.37 91.3945C188.37 90.29 189.265 89.3945 190.37 89.3945H209.778C210.882 89.3945 211.778 90.29 211.778 91.3945V171.387C211.778 172.492 210.882 173.387 209.778 173.387H190.37C189.265 173.387 188.37 172.492 188.37 171.387V91.3945Z" style="fill:var(--sapContent_Illustrative_Color7)"/>
<path fill-rule="evenodd" clip-rule="evenodd" d="M189.93 173.339C189.877 173.327 189.826 173.313 189.775 173.297C189.476 173.204 189.208 173.043 188.987 172.833C188.966 172.812 188.945 172.791 188.925 172.77C188.714 172.55 188.553 172.281 188.46 171.983C188.444 171.932 188.43 171.88 188.418 171.827C188.387 171.686 188.37 171.538 188.37 171.387V166.824C189.474 166.824 190.37 167.719 190.37 168.824L190.37 171.387H194.102C195.207 171.387 196.102 172.283 196.102 173.387H190.37C190.219 173.387 190.072 173.371 189.93 173.339ZM211.778 153.491C210.673 153.491 209.778 154.387 209.778 155.491V160.619C209.778 161.724 210.673 162.619 211.778 162.619V153.491ZM211.778 140.159C210.673 140.159 209.778 141.055 209.778 142.159V147.287C209.778 148.392 210.673 149.287 211.778 149.287V140.159ZM211.778 126.827C210.673 126.827 209.778 127.723 209.778 128.827V133.955C209.778 135.059 210.673 135.955 211.778 135.955V126.827ZM211.778 113.495C210.673 113.495 209.778 114.39 209.778 115.495V120.623C209.778 121.727 210.673 122.623 211.778 122.623V113.495ZM211.778 100.163C210.673 100.163 209.778 101.058 209.778 102.163V107.291C209.778 108.395 210.673 109.291 211.778 109.291V100.163ZM188.37 95.9584C189.474 95.9584 190.37 95.063 190.37 93.9584V91.3945L194.102 91.3945C195.207 91.3945 196.102 90.4991 196.102 89.3945H190.37C190.219 89.3945 190.072 89.4113 189.93 89.443C189.877 89.4548 189.826 89.4687 189.775 89.4846C189.476 89.5775 189.208 89.7385 188.987 89.9494C188.966 89.9698 188.945 89.9906 188.925 90.0119C188.714 90.2323 188.553 90.5008 188.46 90.7994C188.444 90.8503 188.43 90.9022 188.418 90.9548C188.387 91.0963 188.37 91.2435 188.37 91.3945V95.9584ZM188.37 100.163C189.474 100.163 190.37 101.058 190.37 102.163V107.291C190.37 108.395 189.474 109.291 188.37 109.291V100.163ZM188.37 113.495C189.474 113.495 190.37 114.39 190.37 115.495V120.623C190.37 121.727 189.474 122.623 188.37 122.623V113.495ZM188.37 126.827C189.474 126.827 190.37 127.723 190.37 128.827V133.955C190.37 135.059 189.474 135.955 188.37 135.955V126.827ZM188.37 140.159C189.474 140.159 190.37 141.055 190.37 142.159V147.287C190.37 148.392 189.474 149.287 188.37 149.287V140.159ZM188.37 153.491C189.474 153.491 190.37 154.387 190.37 155.491V160.619C190.37 161.724 189.474 162.619 188.37 162.619V153.491ZM204.045 89.3945C204.045 90.4991 204.941 91.3945 206.045 91.3945H209.778V93.9584C209.778 95.063 210.673 95.9584 211.778 95.9584V91.3945C211.778 91.2435 211.761 91.0963 211.729 90.9548C211.717 90.9022 211.703 90.8503 211.688 90.7994C211.595 90.5008 211.434 90.2323 211.223 90.0119C211.202 89.9906 211.182 89.9698 211.16 89.9494C210.94 89.7385 210.671 89.5775 210.373 89.4846C210.322 89.4687 210.27 89.4548 210.217 89.443C210.076 89.4113 209.929 89.3945 209.778 89.3945H204.045ZM211.778 166.824C210.673 166.824 209.778 167.719 209.778 168.824V171.387H206.045C204.941 171.387 204.045 172.283 204.045 173.387H209.778C209.929 173.387 210.076 173.371 210.217 173.339C210.27 173.327 210.322 173.313 210.373 173.297C210.671 173.204 210.94 173.043 211.16 172.833C211.182 172.812 211.202 172.791 211.223 172.77C211.434 172.55 211.595 172.281 211.688 171.983C211.703 171.932 211.717 171.88 211.729 171.827C211.761 171.686 211.778 171.538 211.778 171.387V166.824Z" style="fill:var(--sapContent_Illustrative_Color6)"/>
<path opacity="0.5" d="M229.271 138.714C251.491 138.714 269.505 120.47 269.505 97.9271C269.505 75.3843 251.491 57.1289 229.271 57.1289C207.051 57.1289 189.037 75.3729 189.037 97.9271C189.037 120.481 207.051 138.714 229.271 138.714Z" style="fill:var(--sapContent_Illustrative_Color7)"/>
<path d="M245.165 61.8838L230.13 57.1289L204.92 131.667L219.966 136.422L245.165 61.8838Z" style="fill:var(--sapContent_Illustrative_Color8)"/>
<path d="M225.833 138.714L251.525 64.0385L246.85 62.5562L221.146 137.231L225.833 138.714Z" style="fill:var(--sapContent_Illustrative_Color8)"/>
<path d="M249.302 134.29L238.29 138.714L245.326 156.046L256.327 151.621L249.302 134.29Z" style="fill:var(--sapContent_Illustrative_Color6)"/>
<path d="M245.727 154.666C245.167 154.896 244.722 155.337 244.488 155.892C244.254 156.447 244.25 157.072 244.478 157.631L260.91 197.893C261.595 199.523 262.9 200.817 264.54 201.493C266.181 202.168 268.024 202.169 269.665 201.496L270.972 200.96C271.797 200.632 272.549 200.144 273.183 199.523C273.816 198.902 274.319 198.162 274.662 197.346C275.338 195.709 275.338 193.874 274.662 192.237L258.229 152.021C258.116 151.741 257.948 151.487 257.735 151.272C257.523 151.058 257.27 150.887 256.99 150.771C256.711 150.654 256.412 150.594 256.109 150.593C255.806 150.592 255.506 150.651 255.226 150.766L245.727 154.666Z" style="fill:var(--sapContent_Illustrative_Color3)"/>
<path d="M237.9 137.801L239.046 140.527C239.046 140.527 244.775 143.069 250.826 137.756L248.993 133.389L243.939 135.829L237.9 137.801Z" style="fill:var(--sapContent_Illustrative_Color4)"/>
<path d="M229.546 140.128C219.762 140.152 210.272 136.798 202.695 130.638C195.118 124.478 189.924 115.893 187.997 106.348C186.07 96.803 187.53 86.8884 192.128 78.2948C196.727 69.7013 204.179 62.961 213.213 59.2233C222.248 55.4857 232.305 54.9821 241.671 57.7985C251.037 60.6149 259.132 66.5769 264.574 74.6677C270.016 82.7586 272.469 92.4773 271.514 102.167C270.56 111.856 266.258 120.916 259.34 127.802C251.442 135.676 240.726 140.109 229.546 140.128ZM229.546 59.5005C220.564 59.4848 211.855 62.5692 204.903 68.228C197.951 73.8867 193.186 81.7695 191.422 90.5325C189.657 99.2956 191.001 108.396 195.225 116.284C199.449 124.171 206.292 130.356 214.586 133.785C222.88 137.214 232.113 137.675 240.711 135.088C249.308 132.502 256.738 127.028 261.734 119.601C266.729 112.174 268.981 103.252 268.106 94.3574C267.231 85.4627 263.282 77.1453 256.934 70.8232C253.342 67.2361 249.073 64.3896 244.374 62.4466C239.674 60.5037 234.635 59.5025 229.546 59.5005Z" style="fill:var(--sapContent_Illustrative_Color4)"/>
<path d="M279.787 52.8728C279.418 52.6732 279.001 52.5768 278.581 52.594C278.161 52.6111 277.753 52.741 277.401 52.97L268.876 58.1998C267.465 59.064 267.421 60.6931 268.098 61.7972C268.359 62.2592 268.763 62.624 269.249 62.8368C269.735 63.0496 270.278 63.099 270.795 62.9774C271.043 62.9112 271.279 62.8079 271.496 62.671L280.021 57.4413C280.4 57.2195 280.712 56.8996 280.924 56.5154C281.135 56.1312 281.239 55.697 281.224 55.2588C281.208 54.7716 281.067 54.2967 280.816 53.8791C280.564 53.4615 280.21 53.1152 279.787 52.8728Z" style="fill:var(--sapContent_Illustrative_Color5)"/>
<path d="M230.432 30.2014C230.131 30.2169 229.837 30.2947 229.569 30.43C229.3 30.5653 229.062 30.7551 228.871 30.9872C228.68 31.2194 228.539 31.4888 228.458 31.7782C228.377 32.0677 228.357 32.3709 228.399 32.6684L229.336 42.3573C229.371 42.7055 229.475 43.0433 229.642 43.3509C229.809 43.6585 230.036 43.9297 230.309 44.1487C230.582 44.3677 230.896 44.5301 231.233 44.6265C231.569 44.7228 231.922 44.7511 232.27 44.7098C232.414 44.6968 232.556 44.672 232.696 44.6357C233.215 44.5089 233.667 44.1925 233.964 43.749C234.261 43.3054 234.381 42.7669 234.301 42.2396L233.362 32.5553C233.328 32.2071 233.224 31.8692 233.058 31.5615C232.891 31.2538 232.665 30.9824 232.392 30.7632C232.119 30.544 231.805 30.3814 231.469 30.285C231.132 30.1885 230.78 30.1601 230.432 30.2014Z" style="fill:var(--sapContent_Illustrative_Color5)"/>
<path d="M257.613 32.9978C257.301 33.0994 257.012 33.2637 256.765 33.4805C256.518 33.6973 256.318 33.9622 256.177 34.2589L249.715 47.504C249.429 48.0997 249.384 48.7828 249.59 49.4105C249.795 50.0382 250.236 50.562 250.82 50.8723C251.362 51.1578 251.992 51.2292 252.585 51.0722C252.927 50.9812 253.245 50.8176 253.517 50.5927C253.79 50.3679 254.011 50.0869 254.165 49.769L260.627 36.5239C260.916 35.9251 260.961 35.2381 260.753 34.6071C260.545 33.9762 260.101 33.4504 259.513 33.1404C259.222 32.99 258.904 32.8998 258.578 32.8753C258.251 32.8508 257.923 32.8925 257.613 32.9978Z" style="fill:var(--sapContent_Illustrative_Color5)"/>
</svg>
