<svg width="320" height="200" viewBox="0 0 320 200" fill="none" xmlns="http://www.w3.org/2000/svg" id="sapIllus-Scene-BalloonSky">
<path d="M139.858 124.035C140.059 124.001 140.252 123.925 140.423 123.814C140.595 123.702 140.742 123.557 140.855 123.387C140.983 123.235 141.047 123.04 141.034 122.842C140.958 122.583 140.352 122.306 139.782 122.372C139.244 122.464 138.764 122.765 138.447 123.208C138.546 123.331 138.655 123.445 138.771 123.551C139.056 123.848 139.446 124.022 139.858 124.035Z" fill="var(--sapContent_Illustrative_Color7)"/>
<path d="M305.549 0H14.4317C10.6028 0.00622409 6.93283 1.52992 4.22718 4.23668C1.52152 6.94345 0.0012409 10.6121 0 14.4376V185.395C0.0012409 189.221 1.52152 192.889 4.22718 195.596C6.93283 198.303 10.6028 199.826 14.4317 199.833H29.7712V184.042C29.7714 183.988 29.7843 183.934 29.8089 183.886C29.8329 183.839 29.8685 183.799 29.9124 183.769L47.5098 171.202C47.673 171.075 47.7836 170.893 47.8203 170.69C47.844 170.631 47.8614 170.569 47.872 170.506V121.037H41.1172C39.4578 121.036 37.8668 120.377 36.693 119.205C35.5193 118.033 34.8587 116.444 34.8562 114.786C34.8689 114.489 34.9004 114.192 34.9503 113.898H32.4007C31.5792 113.898 30.7656 113.736 30.0066 113.422C29.2475 113.108 28.5579 112.648 27.9769 112.067C27.396 111.487 26.9351 110.798 26.6207 110.039C26.3063 109.281 26.1445 108.468 26.1445 107.647C26.1447 106.827 26.3045 106.015 26.6149 105.255C27.088 104.113 27.8899 103.136 28.9191 102.449C29.9483 101.762 31.1584 101.396 32.396 101.397H47.8767V96.0484C47.8767 95.8792 47.8767 91.1842 47.8438 88.9565C47.8448 88.8225 47.877 88.6906 47.9379 88.5712C47.9969 88.4518 48.0841 88.3486 48.1919 88.2704C48.2982 88.1891 48.4224 88.1343 48.5541 88.1106C48.6859 88.088 48.8211 88.096 48.9492 88.1341L76.933 96.2552V54.8976C76.933 54.155 77.1635 53.6803 77.9914 53.6803H116.187C116.509 53.6768 116.821 53.7923 117.062 54.0046C117.301 54.2214 117.449 54.5202 117.476 54.8412V131.179H122.03C122.259 131.181 122.479 131.274 122.641 131.437C122.803 131.599 122.894 131.819 122.895 132.048V151.374L139.147 143.3C139.262 143.252 139.386 143.234 139.509 143.248C139.633 143.262 139.75 143.309 139.848 143.384C139.947 143.458 140.025 143.557 140.074 143.671C140.125 143.784 140.145 143.909 140.13 144.033V199.819H174.987C184.395 179.812 228.442 161.149 270.321 129.76C280.741 121.953 289.763 114.434 297.835 107.436H261.144C259.317 109.062 257.315 110.48 255.175 111.666L255.589 113.123C255.596 113.15 255.596 113.179 255.589 113.207C255.579 113.236 255.565 113.263 255.546 113.287C255.527 113.308 255.503 113.324 255.476 113.334C255.448 113.341 255.419 113.341 255.391 113.334L254.69 113.202C253.995 114.706 253.222 116.173 252.376 117.597C252.185 117.876 251.977 118.145 251.755 118.4C251.059 119.242 250.01 120.511 250.071 121.277C250.043 121.646 249.982 122.013 249.887 122.372C249.692 123.245 249.552 124.131 249.469 125.022C249.469 125.408 249.445 125.727 249.445 126.033C249.445 126.338 249.445 126.695 249.417 127.048C249.408 127.144 249.417 127.242 249.445 127.335C249.488 127.511 249.501 127.694 249.483 127.875C249.464 128.076 249.418 128.274 249.347 128.462C249.295 128.622 249.285 128.669 249.309 128.721C249.332 128.773 249.408 128.81 249.525 128.857C249.617 128.878 249.703 128.918 249.778 128.974C249.853 129.03 249.916 129.1 249.963 129.182C250.03 129.334 250.055 129.501 250.036 129.666C250.017 129.831 249.954 129.988 249.855 130.122C249.837 130.154 249.811 130.182 249.779 130.201C249.748 130.22 249.712 130.23 249.676 130.23C249.645 130.239 249.612 130.239 249.582 130.23C249.534 130.203 249.499 130.159 249.483 130.107C249.472 130.083 249.467 130.057 249.467 130.03C249.467 130.003 249.472 129.977 249.483 129.952C249.615 129.713 249.657 129.52 249.596 129.407C249.535 129.294 249.492 129.313 249.37 129.271C249.279 129.248 249.195 129.206 249.121 129.149C249.046 129.093 248.984 129.022 248.937 128.942C248.894 128.853 248.872 128.756 248.872 128.658C248.872 128.559 248.894 128.462 248.937 128.373C248.997 128.213 249.037 128.045 249.055 127.875C249.07 127.738 249.059 127.599 249.022 127.466C248.986 127.333 248.973 127.195 248.984 127.057C248.984 126.719 249.013 126.404 249.013 126.066C249.013 125.727 249.013 125.431 249.036 125.041C249.121 124.121 249.266 123.207 249.469 122.306C249.554 121.998 249.61 121.684 249.638 121.366C249.568 120.426 250.635 119.148 251.416 118.203C251.626 117.965 251.821 117.714 252 117.451C252.823 116.069 253.575 114.647 254.253 113.188L253.735 113.09C253.706 113.084 253.678 113.071 253.655 113.052C253.631 113.037 253.613 113.014 253.604 112.986C253.597 112.957 253.597 112.926 253.604 112.897C253.607 112.868 253.619 112.84 253.637 112.817L254.53 111.614C253.589 110.345 252.522 108.959 251.59 107.473H236.509C235.486 107.499 234.468 107.319 233.516 106.946C232.563 106.572 231.695 106.011 230.962 105.297C230.229 104.583 229.647 103.73 229.25 102.788C228.852 101.845 228.647 100.833 228.647 99.8106C228.647 98.788 228.852 97.7757 229.25 96.8334C229.647 95.8911 230.229 95.0378 230.962 94.3237C231.695 93.6097 232.563 93.0493 233.516 92.6755C234.468 92.3018 235.486 92.1223 236.509 92.1477H249.173C248.942 91.405 248.824 90.6318 248.824 89.8542C248.827 87.8224 249.636 85.8747 251.075 84.4384C252.513 83.0022 254.463 82.1949 256.497 82.1936H293.7C294.906 82.1929 296.094 82.4761 297.17 83.0204C298.245 83.5647 299.177 84.3546 299.889 85.3262C300.602 86.2977 301.075 87.4234 301.271 88.6119C301.466 89.8004 301.379 91.0182 301.015 92.1665C302.744 92.2634 304.39 92.9429 305.683 94.0943C306.977 95.2457 307.841 96.8009 308.136 98.5064C312.266 94.8923 316.185 91.485 319.986 88.308V14.4376C319.984 10.6113 318.463 6.94192 315.757 4.23502C313.05 1.52812 309.379 0.00498029 305.549 0V0ZM50.0405 60.9978C49.0997 65.5002 41.5734 70.0918 40.261 70.7545L40.675 72.2067C40.682 72.2361 40.682 72.2666 40.675 72.296C40.6692 72.3239 40.6562 72.3498 40.6374 72.3712C40.619 72.3935 40.5945 72.4098 40.5668 72.4182C40.5393 72.4272 40.5096 72.4272 40.4821 72.4182L39.7765 72.2866C39.0822 73.7898 38.3113 75.2564 37.4669 76.6808C37.2758 76.9606 37.0684 77.2289 36.846 77.4845C36.1498 78.3257 35.0961 79.5947 35.1526 80.3607C35.1332 80.7312 35.0733 81.0984 34.9738 81.4558C34.7805 82.33 34.6407 83.2152 34.5552 84.1064V85.1122C34.5552 85.4129 34.5552 85.7795 34.5269 86.132C34.5174 86.2285 34.527 86.3259 34.5552 86.4187C34.5989 86.5954 34.61 86.7785 34.5881 86.9592C34.5705 87.16 34.5262 87.3575 34.4564 87.5466C34.3999 87.7064 34.3952 87.7534 34.4187 87.8051C34.4423 87.8568 34.5175 87.8944 34.6351 87.9367C34.7253 87.961 34.81 88.0025 34.8844 88.0589C34.959 88.1161 35.0227 88.1861 35.0726 88.2657C35.136 88.4137 35.1603 88.5755 35.1432 88.7357C35.1274 88.9056 35.0656 89.0681 34.9644 89.2056C34.9453 89.2389 34.9177 89.2665 34.8844 89.2855C34.8549 89.3041 34.8206 89.3139 34.7856 89.3137C34.7506 89.3145 34.7162 89.3046 34.6869 89.2855C34.6401 89.2605 34.6047 89.2184 34.5881 89.168C34.5776 89.1435 34.5722 89.1171 34.5722 89.0905C34.5722 89.0638 34.5776 89.0375 34.5881 89.0129C34.6441 88.9354 34.6841 88.8476 34.7057 88.7545C34.7244 88.6598 34.7244 88.5624 34.7057 88.4678C34.668 88.402 34.6069 88.3738 34.4799 88.3315C34.3897 88.3072 34.305 88.2657 34.2306 88.2093C34.1587 88.1506 34.0968 88.0808 34.0471 88.0025C34.008 87.9136 33.9872 87.8177 33.986 87.7205C33.9872 87.6219 34.008 87.5244 34.0471 87.4338C34.108 87.2739 34.146 87.1062 34.16 86.9357C34.178 86.7975 34.17 86.6573 34.1365 86.5221C34.0982 86.391 34.0854 86.2538 34.0989 86.1179C34.0989 85.7748 34.1271 85.4599 34.1271 85.1216C34.1271 84.7832 34.1271 84.4871 34.1271 84.1017C34.217 83.1822 34.3615 82.2689 34.5599 81.3665C34.6447 81.0589 34.7014 80.7443 34.7292 80.4265C34.6586 79.4866 35.7264 78.2083 36.5073 77.2636C36.7175 77.0256 36.9123 76.7744 37.0906 76.5117C37.8761 75.2004 38.6335 73.767 39.3485 72.249L38.831 72.1503C38.8015 72.1483 38.7735 72.1367 38.7511 72.1174C38.7273 72.0983 38.708 72.0743 38.6946 72.0469C38.6877 72.0191 38.6877 71.9901 38.6946 71.9623C38.6961 71.9321 38.7058 71.9028 38.7229 71.8777L39.6166 70.6746C37.0059 67.178 33.5015 62.7931 34.3294 57.8725C35.1573 52.9519 39.5037 49.9159 43.9489 50.8229C48.3941 51.73 51.0378 56.096 50.0405 60.9978ZM129.768 12.5436C128.06 16.0261 120.905 18.1833 119.692 18.4418L119.729 19.7201C119.735 19.7433 119.735 19.7674 119.729 19.7906C119.719 19.8133 119.703 19.8328 119.682 19.847L119.617 19.8705C119.593 19.8753 119.569 19.8753 119.546 19.8705L119.01 19.6214C118.157 21.8398 116.878 23.8705 115.247 25.5994L115.185 25.6605C113.464 27.5404 111.709 30.6282 109.988 34.8062C109.975 34.8356 109.954 34.8603 109.926 34.8767C109.901 34.8957 109.869 34.9056 109.837 34.9049C109.82 34.9097 109.802 34.9097 109.785 34.9049C109.766 34.899 109.748 34.8887 109.734 34.8748C109.719 34.861 109.708 34.8439 109.701 34.825C109.691 34.806 109.687 34.7851 109.687 34.7639C109.687 34.7428 109.691 34.7219 109.701 34.7028C111.436 30.4731 113.21 27.3853 114.964 25.4679L115.016 25.4068C116.621 23.6926 117.874 21.6808 118.704 19.4851L118.234 19.2736C118.21 19.2639 118.19 19.2495 118.172 19.2313C118.158 19.2107 118.15 19.1861 118.149 19.1608C118.144 19.1375 118.144 19.1136 118.149 19.0903C118.16 19.067 118.176 19.0462 118.196 19.0292L119.174 18.235C117.763 14.823 115.882 10.4945 117.58 6.65012C119.278 2.80574 123.493 1.24543 126.945 2.92323C130.398 4.60104 131.621 8.7415 129.768 12.5436ZM177.056 150.321C176.139 154.823 168.589 159.415 167.277 160.078L167.691 161.53C167.698 161.558 167.698 161.587 167.691 161.614C167.685 161.644 167.672 161.671 167.653 161.694C167.634 161.715 167.609 161.731 167.583 161.741C167.555 161.748 167.526 161.748 167.498 161.741L166.797 161.61C166.1 163.112 165.327 164.579 164.483 166.004C164.29 166.281 164.083 166.548 163.862 166.803C163.166 167.644 162.117 168.918 162.173 169.684C162.149 170.054 162.089 170.421 161.994 170.779C161.797 171.651 161.656 172.535 161.571 173.425V174.435C161.571 174.736 161.571 175.103 161.543 175.455C161.533 175.552 161.543 175.649 161.571 175.742C161.614 175.919 161.627 176.101 161.609 176.282C161.584 176.482 161.538 176.679 161.472 176.87C161.42 177.03 161.411 177.077 161.435 177.128C161.458 177.18 161.533 177.218 161.651 177.26C161.74 177.284 161.824 177.324 161.9 177.377C161.974 177.437 162.037 177.509 162.088 177.589C162.152 177.737 162.176 177.899 162.159 178.059C162.143 178.229 162.081 178.391 161.98 178.529C161.96 178.558 161.935 178.584 161.905 178.604C161.873 178.622 161.838 178.632 161.801 178.632C161.768 178.634 161.736 178.626 161.707 178.609C161.661 178.583 161.626 178.541 161.609 178.491C161.597 178.467 161.591 178.44 161.591 178.414C161.591 178.387 161.597 178.36 161.609 178.336C161.74 178.096 161.783 177.904 161.722 177.791C161.66 177.678 161.618 177.697 161.496 177.655C161.405 177.631 161.32 177.59 161.246 177.532C161.172 177.476 161.11 177.406 161.063 177.326C161.02 177.237 160.997 177.14 160.997 177.041C160.997 176.943 161.02 176.846 161.063 176.757C161.119 176.596 161.157 176.429 161.176 176.259C161.195 176.12 161.185 175.98 161.148 175.845C161.109 175.714 161.097 175.577 161.11 175.441C161.11 175.103 161.138 174.783 161.138 174.445C161.138 174.106 161.138 173.81 161.162 173.425C161.247 172.505 161.392 171.591 161.595 170.69C161.677 170.381 161.733 170.067 161.764 169.75C161.693 168.81 162.761 167.531 163.542 166.587C163.749 166.347 163.946 166.093 164.13 165.835C164.911 164.524 165.663 163.09 166.378 161.572L165.861 161.473C165.831 161.47 165.803 161.457 165.781 161.436C165.759 161.419 165.741 161.396 165.729 161.37C165.72 161.341 165.72 161.31 165.729 161.281C165.733 161.252 165.744 161.224 165.762 161.201L166.656 159.998C164.045 156.501 160.541 152.116 161.369 147.196C162.197 142.275 166.543 139.239 170.988 140.146C175.434 141.053 178.054 145.419 177.056 150.321ZM177.997 73.6119C173.124 83.5613 152.695 89.6803 149.237 90.4558L149.322 94.1075C149.323 94.1771 149.309 94.2462 149.28 94.3095C149.247 94.3724 149.2 94.427 149.143 94.4693C149.085 94.509 149.018 94.5333 148.948 94.5398C148.878 94.5464 148.808 94.5351 148.743 94.5069L147.285 93.8208C145.965 97.2784 144.462 100.664 142.783 103.963L142.736 104.071C140.615 108.221 139.646 111.12 139.876 112.681C139.99 113.376 139.979 114.086 139.843 114.777C139.694 115.479 139.42 116.149 139.034 116.755C138.964 116.878 138.893 117 138.823 117.131C138.122 118.41 137.454 119.613 137.477 120.75C137.51 121.328 137.671 121.892 137.948 122.4C138.401 121.882 139.029 121.548 139.712 121.46C140.591 121.371 141.683 121.779 141.909 122.583C141.958 122.808 141.958 123.04 141.909 123.265C141.852 123.493 141.742 123.706 141.589 123.885C141.404 124.163 141.162 124.399 140.878 124.576C140.592 124.753 140.271 124.867 139.938 124.91C139.615 124.912 139.296 124.851 138.997 124.731C138.695 124.609 138.423 124.425 138.197 124.19C138.122 124.125 138.051 124.054 137.981 123.979C137.794 124.373 137.693 124.802 137.684 125.238C137.678 125.45 137.714 125.661 137.788 125.859C137.911 126.241 137.967 126.642 137.952 127.043C137.933 127.488 137.864 127.93 137.746 128.359C137.651 128.721 137.633 128.829 137.698 128.932C137.825 129.066 137.989 129.158 138.169 129.196C138.578 129.277 138.941 129.51 139.185 129.849C139.5 130.356 139.467 131.047 139.077 131.907C139.04 131.984 138.983 132.049 138.912 132.095C138.841 132.142 138.757 132.166 138.672 132.166C138.609 132.166 138.547 132.153 138.489 132.128C138.435 132.107 138.387 132.073 138.348 132.03C138.306 131.987 138.274 131.935 138.254 131.879C138.235 131.825 138.225 131.768 138.225 131.71C138.228 131.651 138.242 131.594 138.268 131.541C138.517 130.986 138.573 130.554 138.428 130.324C138.338 130.178 138.183 130.126 137.915 130.046C137.508 129.967 137.149 129.733 136.913 129.393C136.81 129.2 136.753 128.986 136.744 128.768C136.743 128.543 136.791 128.32 136.885 128.115C136.986 127.751 137.046 127.378 137.063 127.001C137.075 126.695 137.032 126.389 136.936 126.099C136.838 125.814 136.79 125.515 136.795 125.215C136.809 124.497 137.008 123.794 137.374 123.175C136.911 122.451 136.646 121.618 136.607 120.76C136.579 119.387 137.299 118.081 138.061 116.699L138.282 116.309C138.616 115.786 138.856 115.209 138.992 114.603C139.105 114.022 139.114 113.425 139.02 112.841C138.672 110.444 140.535 106.454 141.96 103.662L142.017 103.554C143.676 100.278 145.165 96.9175 146.476 93.4871C146.477 93.4776 146.48 93.4684 146.485 93.4603C146.489 93.4521 146.496 93.4452 146.504 93.4401L145.14 92.8009C145.074 92.7707 145.016 92.7256 144.971 92.6693C144.928 92.613 144.901 92.5467 144.891 92.4767C144.882 92.4068 144.89 92.3359 144.914 92.2699C144.941 92.202 144.985 92.1422 145.041 92.096L147.864 89.8307C143.889 80.0835 138.399 67.742 143.291 56.7305C148.184 45.719 160.183 41.2731 170.047 46.0903C179.912 50.9075 183.303 62.7884 177.997 73.5978V73.6119ZM270.133 54.907C268.844 57.5435 263.44 59.1367 262.527 59.3623V60.3305C262.531 60.349 262.531 60.3683 262.527 60.3869C262.519 60.4031 262.508 60.4175 262.494 60.4292H262.438C262.421 60.434 262.403 60.434 262.386 60.4292L261.972 60.2365C261.737 60.8676 261.456 61.4803 261.13 62.0694C260.584 63.0446 259.922 63.9503 259.159 64.767L259.117 64.8187C257.809 66.2286 256.487 68.5785 255.184 71.7273C255.177 71.7492 255.162 71.7676 255.142 71.779C255.12 71.7859 255.097 71.7859 255.076 71.779H255.029C255 71.7682 254.976 71.7462 254.963 71.7179C254.951 71.6877 254.951 71.6542 254.963 71.6239C256.28 68.4422 257.616 66.0924 258.943 64.6448L258.985 64.5978C259.735 63.7932 260.385 62.9017 260.923 61.9425C261.245 61.3567 261.524 60.7489 261.76 60.1237L261.431 59.9686C261.413 59.9621 261.396 59.9507 261.384 59.9357C261.379 59.9188 261.379 59.9009 261.384 59.884C261.379 59.8655 261.379 59.8461 261.384 59.8276C261.39 59.8093 261.402 59.793 261.417 59.7806L262.16 59.1837C261.111 56.6036 259.658 53.3326 260.951 50.4234C262.245 47.5143 265.42 46.3394 268.007 47.6036C270.594 48.8678 271.54 52.0166 270.129 54.8835L270.133 54.907Z" fill="var(--sapContent_Illustrative_Color7)"/>
<path d="M308.278 99.7893C308.273 101.819 307.462 103.764 306.024 105.197C304.586 106.631 302.637 107.436 300.606 107.436H297.835C289.74 114.429 280.741 121.949 270.322 129.755C228.457 161.163 184.395 179.812 174.987 199.832H305.55C309.382 199.831 313.056 198.31 315.766 195.602C318.476 192.895 319.999 189.224 320 185.395V88.2609C316.199 91.4379 312.281 94.8405 308.151 98.4593C308.233 98.8979 308.276 99.343 308.278 99.7893V99.7893Z" fill="var(--sapContent_Illustrative_Color18)"/>
<path d="M103.016 132.062V194.921H109.922C110.035 194.92 110.147 194.942 110.251 194.987C110.355 195.031 110.45 195.095 110.529 195.175C110.61 195.255 110.674 195.351 110.717 195.457C110.761 195.561 110.781 195.673 110.778 195.786V157.925C110.798 157.758 110.856 157.597 110.947 157.455C111.034 157.319 111.15 157.204 111.286 157.117L122.858 151.369V132.062C122.857 131.833 122.765 131.613 122.603 131.451C122.441 131.288 122.222 131.195 121.992 131.193H103.91C103.794 131.191 103.679 131.211 103.571 131.254C103.463 131.296 103.364 131.36 103.281 131.441C103.198 131.522 103.132 131.618 103.086 131.725C103.041 131.832 103.017 131.946 103.016 132.062V132.062Z" fill="var(--sapContent_Illustrative_Color20)"/>
<path d="M90.9742 108V100.978C90.976 100.791 90.9162 100.609 90.8039 100.46C90.6917 100.31 90.5333 100.202 90.3533 100.151L76.9376 96.2551L48.9539 88.134C48.8257 88.0959 48.6905 88.0879 48.5588 88.1105C48.427 88.1342 48.3029 88.189 48.1966 88.2703C48.0888 88.3485 48.0016 88.4517 47.9425 88.5711C47.8817 88.6905 47.8495 88.8224 47.8485 88.9564C47.8485 91.1841 47.8814 95.8791 47.8814 96.0483V101.397H52.6841C53.5064 101.394 54.3211 101.554 55.0812 101.867C55.8414 102.181 56.532 102.641 57.1135 103.222C57.6949 103.803 58.1557 104.493 58.4692 105.252C58.7827 106.012 58.9428 106.826 58.9404 107.647C58.9341 107.945 58.9042 108.242 58.851 108.536H61.4005C63.0598 108.536 64.6511 109.194 65.8243 110.366C66.9976 111.539 67.6568 113.128 67.6568 114.786C67.6568 116.444 66.9976 118.034 65.8243 119.206C64.6511 120.378 63.0598 121.037 61.4005 121.037H47.8814V170.506C47.8707 170.569 47.8534 170.63 47.8297 170.689C47.793 170.893 47.6824 171.075 47.5192 171.202L29.9124 183.764C29.8685 183.794 29.8329 183.834 29.8089 183.882C29.7843 183.93 29.7714 183.983 29.7712 184.037V199.833H90.9742V108Z" fill="var(--sapContent_Illustrative_Color19)"/>
<path d="M109.941 194.921H98.7357C98.5061 194.923 98.2862 195.014 98.1234 195.176C97.9606 195.338 97.8679 195.557 97.8655 195.786V199.833H110.797V195.791C110.8 195.678 110.779 195.566 110.736 195.462C110.693 195.356 110.629 195.26 110.547 195.18C110.468 195.1 110.374 195.036 110.27 194.992C110.166 194.945 110.054 194.921 109.941 194.921Z" fill="var(--sapContent_Illustrative_Color19)"/>
<path d="M139.128 143.304L122.89 151.388L111.314 157.136C111.18 157.224 111.066 157.339 110.98 157.474C110.888 157.615 110.832 157.776 110.815 157.944V199.833H140.126V144.047C140.141 143.921 140.124 143.792 140.074 143.675C140.025 143.558 139.946 143.456 139.844 143.38C139.742 143.304 139.622 143.256 139.495 143.243C139.37 143.23 139.243 143.251 139.128 143.304V143.304ZM126.32 175.54C126.317 175.653 126.27 175.761 126.188 175.84C126.108 175.921 126 175.966 125.887 175.967H117.246C117.132 175.967 117.022 175.922 116.941 175.842C116.86 175.762 116.814 175.654 116.813 175.54V166.925C116.852 165.694 117.368 164.526 118.254 163.669C119.139 162.812 120.324 162.332 121.557 162.332C122.79 162.332 123.974 162.812 124.86 163.669C125.745 164.526 126.262 165.694 126.301 166.925L126.32 175.54Z" fill="var(--sapContent_Illustrative_Color19)"/>
<path d="M98.7358 194.922H103.016V132.063C103.018 131.832 103.11 131.61 103.274 131.448C103.438 131.285 103.66 131.193 103.891 131.193H117.439V54.8554C117.411 54.5344 117.263 54.2357 117.025 54.0189C116.783 53.8066 116.472 53.6911 116.15 53.6946H77.9914C77.1682 53.6946 76.9377 54.1646 76.9377 54.9118V96.2695L90.3534 100.166C90.5411 100.212 90.7071 100.322 90.8238 100.476C90.9347 100.625 90.9942 100.807 90.9931 100.993V199.847H97.8844V195.791C97.8844 195.677 97.9068 195.563 97.9503 195.457C97.991 195.35 98.0535 195.253 98.1337 195.171C98.2141 195.086 98.3121 195.02 98.4207 194.978C98.5214 194.94 98.6282 194.921 98.7358 194.922Z" fill="var(--sapContent_Illustrative_Color18)"/>
<path d="M121.578 162.197C120.955 162.196 120.339 162.319 119.763 162.556C119.187 162.794 118.664 163.143 118.224 163.583C117.784 164.023 117.434 164.546 117.196 165.121C116.958 165.696 116.836 166.312 116.837 166.934V175.549C116.836 175.605 116.847 175.66 116.868 175.712C116.889 175.763 116.92 175.81 116.959 175.85C117.04 175.93 117.15 175.976 117.265 175.977H125.887C126 175.976 126.108 175.93 126.188 175.85C126.27 175.771 126.317 175.663 126.32 175.549V166.934C126.316 165.679 125.815 164.476 124.927 163.589C124.038 162.701 122.835 162.201 121.578 162.197V162.197Z" fill="var(--sapContent_Illustrative_Color20)"/>
<path d="M67.6333 114.786C67.6346 113.965 67.4736 113.152 67.1596 112.393C66.8457 111.634 66.3849 110.944 65.8037 110.364C65.2225 109.783 64.5323 109.323 63.7727 109.009C63.0131 108.695 62.199 108.534 61.3771 108.536H58.8275C58.881 108.242 58.9109 107.945 58.9169 107.647C58.9182 106.826 58.7572 106.013 58.4432 105.254C58.1292 104.495 57.6685 103.805 57.0873 103.225C56.5061 102.644 55.8159 102.184 55.0563 101.87C54.2967 101.556 53.4826 101.395 52.6607 101.397H32.4007C31.1633 101.397 29.9538 101.764 28.9248 102.451C27.8959 103.137 27.0937 104.113 26.6196 105.255C26.3091 106.015 26.1494 106.827 26.1492 107.647C26.1492 109.305 26.8083 110.895 27.9816 112.067C29.1549 113.239 30.7462 113.898 32.4054 113.898H34.955C34.9043 114.192 34.8744 114.488 34.8656 114.786C34.8656 116.444 35.5247 118.034 36.698 119.206C37.8713 120.378 39.4626 121.037 41.1219 121.037H61.3818C63.041 121.037 64.6323 120.378 65.8056 119.206C66.9789 118.034 67.638 116.444 67.638 114.786H67.6333Z" fill="var(--sapContent_Illustrative_Color18)"/>
<path d="M308.278 99.7894C308.276 99.3432 308.233 98.898 308.151 98.4594C307.851 96.7628 306.987 95.2169 305.699 94.0715C304.411 92.9261 302.774 92.2483 301.053 92.1476C301.415 90.9994 301.502 89.7819 301.306 88.5938C301.11 87.4057 300.637 86.2805 299.925 85.3093C299.212 84.338 298.281 83.5481 297.206 83.0035C296.131 82.459 294.943 82.1751 293.738 82.1748H256.511C255.308 82.1755 254.121 82.4589 253.047 83.0021C251.974 83.5453 251.043 84.333 250.33 85.3018C249.617 86.2706 249.142 87.3932 248.944 88.5792C248.745 89.7651 248.829 90.981 249.187 92.1288H236.524C234.523 92.1784 232.62 93.0074 231.222 94.4391C229.824 95.8708 229.042 97.7917 229.042 99.7918C229.042 101.792 229.824 103.713 231.222 105.144C232.62 106.576 234.523 107.405 236.524 107.455H251.609C249.973 104.846 248.745 101.928 249.258 98.7931C250.081 93.8583 254.432 90.8364 258.877 91.7435C263.322 92.6505 265.933 97.0448 264.95 101.947C264.559 103.873 262.951 105.81 261.14 107.455H300.582C301.59 107.455 302.588 107.257 303.52 106.873C304.451 106.488 305.297 105.923 306.01 105.211C306.723 104.499 307.289 103.654 307.675 102.724C308.06 101.794 308.259 100.796 308.259 99.7894H308.278Z" fill="var(--sapContent_Illustrative_Color19)"/>
<path d="M146.457 93.4871C145.146 96.9175 143.658 100.278 141.998 103.554L141.942 103.662C140.53 106.454 138.649 110.444 139.002 112.841C139.097 113.425 139.085 114.022 138.969 114.603C138.837 115.209 138.598 115.787 138.263 116.309L138.042 116.699C137.28 118.081 136.56 119.387 136.588 120.76C136.628 121.618 136.892 122.451 137.355 123.175C136.989 123.794 136.79 124.497 136.777 125.215C136.772 125.515 136.819 125.814 136.918 126.098C137.014 126.389 137.057 126.695 137.045 127.001C137.034 127.377 136.98 127.751 136.885 128.115C136.801 128.315 136.762 128.532 136.772 128.749C136.779 128.967 136.836 129.181 136.937 129.374C137.173 129.714 137.532 129.948 137.938 130.027C138.207 130.107 138.362 130.159 138.451 130.305C138.597 130.535 138.541 130.967 138.291 131.522C138.266 131.575 138.251 131.632 138.249 131.691C138.249 131.749 138.258 131.806 138.277 131.86C138.298 131.917 138.33 131.968 138.371 132.011C138.41 132.054 138.458 132.088 138.512 132.109C138.57 132.136 138.633 132.149 138.696 132.147C138.781 132.148 138.864 132.123 138.936 132.077C139.007 132.03 139.063 131.965 139.1 131.889C139.491 131.029 139.524 130.338 139.209 129.83C138.965 129.492 138.602 129.258 138.193 129.177C137.929 129.097 137.779 129.05 137.699 128.914C137.619 128.777 137.652 128.702 137.746 128.34C137.864 127.911 137.933 127.469 137.953 127.024C137.966 126.623 137.911 126.222 137.788 125.84C137.714 125.642 137.679 125.431 137.684 125.22C137.693 124.784 137.794 124.354 137.981 123.96C138.051 124.035 138.122 124.106 138.197 124.172C138.423 124.406 138.695 124.59 138.997 124.712C139.295 124.835 139.615 124.896 139.938 124.891C140.272 124.848 140.592 124.734 140.878 124.557C141.158 124.383 141.4 124.155 141.589 123.885C141.731 123.705 141.832 123.496 141.885 123.273C141.938 123.049 141.941 122.817 141.895 122.593C141.669 121.789 140.582 121.38 139.698 121.469C139.015 121.557 138.387 121.891 137.934 122.409C137.657 121.901 137.496 121.338 137.463 120.76C137.44 119.622 138.108 118.41 138.809 117.141C138.879 117.009 138.95 116.887 139.02 116.765C139.406 116.159 139.68 115.489 139.83 114.786C139.965 114.095 139.976 113.385 139.862 112.69C139.637 111.13 140.601 108.23 142.722 104.08L142.774 103.972C144.448 100.664 145.948 97.2712 147.267 93.8066L146.467 93.4307C146.467 93.4307 146.462 93.4871 146.457 93.4871ZM139.782 122.334C140.352 122.278 140.958 122.555 141.034 122.804C141.047 123.002 140.983 123.197 140.855 123.349C140.74 123.517 140.592 123.661 140.421 123.773C140.25 123.884 140.058 123.96 139.858 123.998C139.448 123.988 139.058 123.82 138.771 123.528C138.655 123.422 138.546 123.307 138.447 123.185C138.762 122.737 139.243 122.433 139.782 122.339V122.334Z" fill="var(--sapContent_Illustrative_Color6)"/>
<path d="M170.019 46.095C160.141 41.2778 148.188 45.7096 143.268 56.7352C138.348 67.7608 143.865 80.0881 147.835 89.8354L145.013 92.1007C144.958 92.1449 144.915 92.2034 144.891 92.2699C144.863 92.3358 144.853 92.4079 144.862 92.4789C144.871 92.55 144.899 92.6173 144.942 92.674C144.987 92.7317 145.045 92.777 145.112 92.8056L146.476 93.4448L147.276 93.8208L148.734 94.5069C148.798 94.5351 148.869 94.5464 148.939 94.5398C149.009 94.5333 149.076 94.509 149.134 94.4693C149.191 94.427 149.237 94.3724 149.27 94.3096C149.299 94.2462 149.313 94.1771 149.312 94.1075L149.228 90.4558C152.685 89.6803 173.114 83.5613 177.987 73.6119C183.303 62.7884 179.878 50.9122 170.019 46.095ZM149.411 52.0072C148.951 52.3681 148.515 52.7574 148.103 53.1728C148.04 53.2414 147.956 53.2876 147.864 53.3044C147.774 53.3205 147.682 53.3073 147.6 53.2668C147.552 53.2488 147.508 53.2198 147.473 53.1822C147.431 53.1424 147.397 53.0945 147.374 53.0412C147.354 52.9869 147.343 52.9298 147.341 52.872C147.342 52.8141 147.353 52.7567 147.374 52.7028C147.398 52.6485 147.431 52.599 147.473 52.5571C147.915 52.1036 148.386 51.6797 148.884 51.2882C148.982 51.222 149.101 51.1949 149.218 51.2123C149.335 51.2297 149.441 51.2903 149.515 51.3822C149.579 51.4807 149.604 51.5997 149.585 51.7159C149.566 51.8313 149.503 51.9352 149.411 52.0072ZM157.652 47.1571C154.934 48.0266 152.977 49.037 151.49 50.2871C151.426 50.3412 151.348 50.3769 151.264 50.3905C151.181 50.4021 151.096 50.389 151.02 50.3529C150.96 50.3264 150.907 50.2861 150.865 50.2354C150.825 50.1928 150.796 50.1412 150.78 50.0851C150.76 50.03 150.752 49.9712 150.757 49.9128C150.762 49.8543 150.779 49.7977 150.808 49.7467C150.833 49.6934 150.87 49.6467 150.916 49.6104C152.497 48.2663 154.548 47.2182 157.389 46.3206C157.5 46.2887 157.619 46.2987 157.723 46.3488C157.826 46.4043 157.905 46.4965 157.944 46.6073C157.976 46.7202 157.964 46.8409 157.911 46.9456C157.854 47.0454 157.762 47.1207 157.652 47.1571V47.1571Z" fill="var(--sapContent_Illustrative_Color3)"/>
<path d="M202.942 60.5607C203.8 60.5607 204.495 59.8453 204.495 58.9628C204.495 58.0803 203.8 57.3649 202.942 57.3649C202.085 57.3649 201.39 58.0803 201.39 58.9628C201.39 59.8453 202.085 60.5607 202.942 60.5607Z" fill="var(--sapContent_Illustrative_Color10)"/>
<path d="M213.117 51.8053C214.668 51.8053 215.925 50.5133 215.925 48.9196C215.925 47.3259 214.668 46.034 213.117 46.034C211.566 46.034 210.309 47.3259 210.309 48.9196C210.309 50.5133 211.566 51.8053 213.117 51.8053Z" fill="var(--sapContent_Illustrative_Color10)"/>
<path d="M275.181 30.3133C275.181 29.5567 272.974 28.9457 270.03 28.8094C269.86 25.8721 269.211 23.6867 268.454 23.6867C267.696 23.6867 267.043 25.8909 266.902 28.8564C263.947 29.0585 261.751 29.7165 261.76 30.4778C261.769 31.2392 263.966 31.8454 266.934 31.9817C267.108 34.9191 267.753 37.1044 268.51 37.1044C269.268 37.1044 269.921 34.9003 270.063 31.9347C273.007 31.7327 275.204 31.0747 275.181 30.3133Z" fill="var(--sapContent_Illustrative_Color10)"/>
<path d="M18.4253 30.2334C19.2826 30.2334 19.9776 29.518 19.9776 28.6355C19.9776 27.753 19.2826 27.0376 18.4253 27.0376C17.568 27.0376 16.873 27.753 16.873 28.6355C16.873 29.518 17.568 30.2334 18.4253 30.2334Z" fill="var(--sapContent_Illustrative_Color10)"/>
<path d="M61.0571 80.8541C62.6081 80.8541 63.8654 79.5622 63.8654 77.9685C63.8654 76.3748 62.6081 75.0828 61.0571 75.0828C59.5062 75.0828 58.2489 76.3748 58.2489 77.9685C58.2489 79.5622 59.5062 80.8541 61.0571 80.8541Z" fill="var(--sapContent_Illustrative_Color10)"/>
<path d="M130.426 38.4109C131.38 38.4109 132.153 37.6155 132.153 36.6344C132.153 35.6533 131.38 34.8579 130.426 34.8579C129.473 34.8579 128.7 35.6533 128.7 36.6344C128.7 37.6155 129.473 38.4109 130.426 38.4109Z" fill="var(--sapContent_Illustrative_Color10)"/>
<path d="M87.324 20.3357C87.9423 20.3357 88.4436 19.8349 88.4436 19.2172C88.4436 18.5994 87.9423 18.0986 87.324 18.0986C86.7057 18.0986 86.2045 18.5994 86.2045 19.2172C86.2045 19.8349 86.7057 20.3357 87.324 20.3357Z" fill="var(--sapContent_Illustrative_Color10)"/>
<path d="M128.293 97.3815C128.68 96.511 128.266 95.4824 127.369 95.0839C126.471 94.6855 125.43 95.0682 125.043 95.9387C124.656 96.8092 125.069 97.8378 125.967 98.2363C126.864 98.6347 127.905 98.252 128.293 97.3815Z" fill="var(--sapContent_Illustrative_Color10)"/>
<path d="M157.385 46.3111C154.562 47.2182 152.492 48.2662 150.912 49.601C150.866 49.6373 150.829 49.684 150.804 49.7372C150.777 49.7902 150.759 49.8474 150.752 49.9064C150.741 49.9623 150.741 50.0198 150.752 50.0756C150.768 50.1318 150.797 50.1833 150.837 50.226C150.879 50.2767 150.932 50.3169 150.992 50.3435C151.068 50.3796 151.153 50.3926 151.236 50.3811C151.32 50.3675 151.398 50.3318 151.462 50.2777C152.949 49.0088 154.906 48.0171 157.624 47.1477C157.68 47.1336 157.732 47.1062 157.775 47.0678C157.819 47.0291 157.855 46.983 157.883 46.9315C157.91 46.8789 157.926 46.8213 157.93 46.7623C157.938 46.6896 157.928 46.6161 157.9 46.5484C157.873 46.4806 157.829 46.4208 157.772 46.3742C157.716 46.3276 157.649 46.2957 157.577 46.2815C157.505 46.2672 157.431 46.2709 157.361 46.2923L157.385 46.3111Z" fill="var(--sapContent_Illustrative_Color15)"/>
<path d="M148.88 51.2883C148.383 51.6812 147.912 52.105 147.469 52.5572C147.427 52.5991 147.393 52.6486 147.37 52.7029C147.349 52.7568 147.337 52.8142 147.337 52.8721C147.339 52.9299 147.35 52.987 147.37 53.0413C147.393 53.0946 147.426 53.1426 147.469 53.1823C147.504 53.2199 147.547 53.2489 147.596 53.2669C147.677 53.3074 147.769 53.3206 147.859 53.3045C147.951 53.2877 148.035 53.2415 148.099 53.1729C148.51 52.7575 148.947 52.3683 149.407 52.0073C149.497 51.9345 149.557 51.8307 149.576 51.716C149.595 51.5998 149.57 51.4808 149.505 51.3823C149.43 51.2926 149.325 51.2339 149.209 51.2178C149.094 51.1999 148.977 51.225 148.88 51.2883V51.2883Z" fill="var(--sapContent_Illustrative_Color15)"/>
<path d="M36.018 55.0667C35.8592 55.2761 35.7146 55.4959 35.5852 55.7247C35.5717 55.748 35.5622 55.7734 35.557 55.7999C35.5521 55.8263 35.5521 55.8534 35.557 55.8798C35.5637 55.9059 35.5766 55.9301 35.5946 55.9503C35.6085 55.9722 35.628 55.9901 35.6511 56.002C35.6833 56.0115 35.7176 56.0115 35.7499 56.002C35.7856 56.0015 35.8209 55.9935 35.8533 55.9785C35.8836 55.9607 35.9081 55.9346 35.9239 55.9033C36.0461 55.6931 36.1812 55.4906 36.3284 55.297C36.3626 55.2565 36.3795 55.2042 36.3755 55.1513C36.3734 55.1247 36.3656 55.0989 36.3527 55.0755C36.3399 55.0522 36.3222 55.0318 36.3008 55.0158C36.2795 54.9998 36.2549 54.9885 36.2289 54.9827C36.2028 54.9769 36.1758 54.9767 36.1497 54.9821C36.0969 54.9933 36.0501 55.0234 36.018 55.0667V55.0667Z" fill="var(--sapContent_Illustrative_Color15)"/>
<path d="M37.1187 76.4834C36.9404 76.7462 36.7456 76.9974 36.5354 77.2354C35.7545 78.1753 34.6867 79.4725 34.7573 80.3983C34.7295 80.7161 34.6728 81.0307 34.5879 81.3383C34.39 82.2407 34.2455 83.1541 34.1552 84.0735C34.1552 84.4589 34.1552 84.7879 34.1552 85.0933C34.1552 85.3988 34.1552 85.7466 34.127 86.0897C34.1182 86.2256 34.1309 86.362 34.1646 86.4939C34.202 86.6284 34.2116 86.7691 34.1928 86.9075C34.1781 87.0774 34.1417 87.2448 34.0846 87.4056C34.0396 87.4944 34.017 87.5928 34.0188 87.6923C34.017 87.7903 34.0397 87.8872 34.0846 87.9743C34.1297 88.0545 34.1905 88.1248 34.2634 88.1811C34.3378 88.2375 34.4225 88.279 34.5127 88.3033C34.635 88.3456 34.7008 88.3738 34.7432 88.4396C34.7643 88.534 34.7643 88.6318 34.7432 88.7262C34.7257 88.8207 34.6853 88.9095 34.6256 88.9847C34.6068 89.0347 34.6068 89.0898 34.6256 89.1398C34.6422 89.1902 34.6776 89.2323 34.7244 89.2573C34.7523 89.2758 34.785 89.2856 34.8184 89.2855C34.8564 89.2858 34.8937 89.276 34.9266 89.2573C34.9572 89.2378 34.9817 89.2101 34.9972 89.1774C35.0968 89.0443 35.1593 88.8872 35.1783 88.722C35.1973 88.5569 35.1721 88.3897 35.1054 88.2375C35.0579 88.1564 34.9948 88.0856 34.9197 88.0292C34.8446 87.9727 34.759 87.9317 34.6679 87.9085C34.5503 87.8662 34.4892 87.838 34.4515 87.7769C34.4139 87.7158 34.4515 87.6782 34.4892 87.5184C34.5605 87.3295 34.6064 87.1319 34.6256 86.9309C34.6481 86.7501 34.6353 86.5665 34.5879 86.3905C34.5621 86.2972 34.5526 86.2003 34.5597 86.1038C34.588 85.7513 34.5879 85.427 34.5879 85.084C34.5879 84.7409 34.5879 84.4589 34.5879 84.0782C34.6781 83.1876 34.8179 82.3027 35.0066 81.4276C35.1092 81.0705 35.1723 80.7033 35.1948 80.3325C35.1336 79.5665 36.1826 78.2975 36.8788 77.4563C37.1027 77.2019 37.3101 76.9335 37.4997 76.6526C38.3041 75.3038 39.0802 73.8328 39.8188 72.2584L39.4095 72.1832C38.7238 73.6567 37.9591 75.0922 37.1187 76.4834V76.4834Z" fill="var(--sapContent_Illustrative_Color6)"/>
<path d="M43.9726 50.7899C39.5086 49.8875 35.1715 52.9094 34.3483 57.8395C33.5251 62.7695 37.0296 67.1449 39.6403 70.6415L38.7465 71.8447C38.728 71.8693 38.7167 71.8986 38.7136 71.9293C38.7066 71.957 38.7066 71.9861 38.7136 72.0139C38.7269 72.04 38.7444 72.0638 38.7653 72.0843C38.7892 72.1012 38.8165 72.1125 38.8453 72.1172L39.3627 72.2159L39.772 72.2911L40.4776 72.4227C40.5051 72.4317 40.5347 72.4317 40.5622 72.4227C40.5899 72.4144 40.6145 72.398 40.6328 72.3757C40.6517 72.3543 40.6646 72.3284 40.6704 72.3005C40.6774 72.2712 40.6774 72.2406 40.6704 72.2112L40.2565 70.759C41.5501 70.0964 49.1187 65.5047 50.036 61.0024C51.038 56.0959 48.4508 51.6969 43.9726 50.7899ZM36.3334 55.3204C36.1862 55.514 36.0511 55.7165 35.9289 55.9267C35.913 55.958 35.8885 55.9841 35.8583 56.0019C35.8258 56.0169 35.7906 56.0249 35.7548 56.0254C35.7226 56.0349 35.6883 56.0349 35.656 56.0254C35.6329 56.0135 35.6134 55.9956 35.5996 55.9737C35.5816 55.9535 35.5687 55.9293 35.5619 55.9032C35.5571 55.8768 35.5571 55.8497 35.5619 55.8233C35.5671 55.7968 35.5767 55.7714 35.5902 55.7481C35.7195 55.5193 35.8641 55.2995 36.0229 55.0901C36.06 55.0504 36.1101 55.0254 36.164 55.0196C36.2163 55.0148 36.2684 55.0299 36.3099 55.0619C36.3456 55.095 36.3674 55.1403 36.371 55.1888C36.3746 55.2122 36.373 55.236 36.3666 55.2587C36.3601 55.2814 36.3488 55.3025 36.3334 55.3204V55.3204Z" fill="var(--sapContent_Illustrative_Color3)"/>
<path d="M170.984 140.113C166.524 139.211 162.187 142.233 161.364 147.163C160.541 152.093 164.041 156.468 166.651 159.965L165.758 161.168C165.74 161.191 165.729 161.219 165.725 161.248C165.715 161.275 165.715 161.305 165.725 161.332C165.733 161.361 165.752 161.386 165.777 161.403C165.8 161.422 165.827 161.435 165.856 161.441L166.374 161.539L166.783 161.614L167.484 161.746C167.512 161.753 167.541 161.753 167.569 161.746C167.596 161.736 167.62 161.72 167.639 161.699C167.658 161.676 167.671 161.649 167.677 161.619C167.684 161.591 167.684 161.562 167.677 161.535L167.263 160.082C168.552 159.42 176.125 154.828 177.042 150.326C178.054 145.419 175.457 141.02 170.984 140.113ZM163.457 144.728C163.312 144.912 163.181 145.107 163.067 145.311C163.036 145.361 162.994 145.402 162.945 145.433C162.894 145.464 162.835 145.481 162.775 145.48C162.718 145.481 162.661 145.466 162.611 145.438C162.57 145.416 162.535 145.386 162.507 145.349C162.478 145.315 162.457 145.275 162.446 145.231C162.437 145.186 162.437 145.14 162.446 145.095C162.454 145.05 162.47 145.007 162.493 144.968C162.636 144.733 162.793 144.507 162.964 144.291C162.992 144.258 163.025 144.23 163.062 144.207C163.102 144.186 163.145 144.174 163.189 144.169C163.231 144.16 163.275 144.16 163.316 144.169C163.359 144.182 163.399 144.203 163.434 144.23C163.467 144.259 163.493 144.295 163.512 144.334C163.53 144.374 163.541 144.417 163.542 144.46C163.547 144.548 163.518 144.633 163.462 144.7L163.457 144.728Z" fill="var(--sapContent_Illustrative_Color1)"/>
<path d="M162.931 144.305C162.76 144.521 162.603 144.747 162.46 144.982C162.438 145.021 162.422 145.064 162.413 145.109C162.407 145.154 162.407 145.2 162.413 145.245C162.424 145.289 162.445 145.329 162.474 145.363C162.506 145.404 162.546 145.437 162.593 145.46C162.639 145.483 162.691 145.495 162.742 145.494C162.802 145.494 162.861 145.478 162.912 145.447C162.961 145.416 163.003 145.375 163.034 145.325C163.148 145.121 163.279 144.926 163.425 144.742C163.453 144.708 163.472 144.668 163.481 144.625C163.49 144.583 163.49 144.54 163.481 144.498C163.477 144.453 163.462 144.409 163.439 144.371C163.419 144.333 163.392 144.299 163.359 144.272C163.293 144.219 163.208 144.194 163.124 144.202C163.049 144.212 162.98 144.249 162.931 144.305V144.305Z" fill="var(--sapContent_Illustrative_Color16)"/>
<path d="M164.139 165.807C163.956 166.065 163.758 166.319 163.551 166.558C162.77 167.498 161.703 168.796 161.773 169.721C161.745 170.039 161.688 170.354 161.604 170.661C161.401 171.563 161.256 172.477 161.171 173.397C161.171 173.782 161.171 174.111 161.147 174.416C161.124 174.722 161.147 175.074 161.119 175.413C161.108 175.549 161.121 175.685 161.157 175.817C161.192 175.952 161.202 176.092 161.185 176.231C161.167 176.4 161.129 176.567 161.072 176.729C161.029 176.817 161.007 176.913 161.006 177.011C161.007 177.11 161.029 177.208 161.072 177.297C161.119 177.378 161.181 177.448 161.256 177.504C161.33 177.561 161.414 177.603 161.505 177.626C161.627 177.669 161.693 177.697 161.731 177.763C161.753 177.952 161.714 178.143 161.618 178.308C161.606 178.332 161.6 178.359 161.6 178.385C161.6 178.412 161.606 178.439 161.618 178.463C161.634 178.514 161.67 178.556 161.717 178.58C161.745 178.598 161.778 178.606 161.811 178.604C161.847 178.603 161.883 178.594 161.914 178.576C161.944 178.556 161.969 178.53 161.989 178.501C162.089 178.367 162.152 178.21 162.171 178.045C162.19 177.88 162.164 177.713 162.098 177.561C162.052 177.478 161.987 177.407 161.91 177.354C161.835 177.297 161.75 177.256 161.66 177.232C161.543 177.189 161.477 177.161 161.444 177.1C161.411 177.039 161.444 177.001 161.481 176.842C161.548 176.651 161.594 176.454 161.618 176.254C161.636 176.073 161.623 175.89 161.58 175.714C161.552 175.621 161.543 175.523 161.552 175.427C161.552 175.074 161.552 174.75 161.58 174.407C161.608 174.064 161.58 173.782 161.58 173.397C161.67 172.507 161.811 171.624 162.004 170.751C162.098 170.392 162.158 170.026 162.182 169.656C162.126 168.89 163.175 167.616 163.871 166.775C164.092 166.52 164.3 166.253 164.492 165.976C165.332 164.55 166.104 163.085 166.806 161.581L166.397 161.506C165.729 162.982 164.975 164.418 164.139 165.807V165.807Z" fill="var(--sapContent_Illustrative_Color6)"/>
<path d="M117.599 21.9009C116.884 23.1697 116.022 24.3497 115.03 25.4163L114.978 25.4774C113.224 27.3949 111.45 30.5014 109.715 34.7124C109.706 34.7314 109.701 34.7523 109.701 34.7734C109.701 34.7946 109.706 34.8155 109.715 34.8345C109.722 34.8535 109.733 34.8705 109.748 34.8844C109.762 34.8982 109.78 34.9085 109.799 34.9144C109.816 34.9193 109.834 34.9193 109.851 34.9144C109.883 34.9151 109.915 34.9052 109.941 34.8862C109.968 34.8698 109.989 34.8451 110.002 34.8157C111.723 30.6377 113.478 27.5641 115.204 25.6701L115.261 25.609C116.892 23.8677 118.165 21.824 119.01 19.5933L118.727 19.457C118.411 20.2979 118.034 21.1147 117.599 21.9009Z" fill="var(--sapContent_Illustrative_Color6)"/>
<path d="M126.973 2.91372C123.521 1.23121 119.325 2.78212 117.608 6.64061C115.891 10.4991 117.81 14.8087 119.202 18.2208L118.224 19.015C118.204 19.032 118.188 19.0528 118.177 19.0761C118.172 19.0994 118.172 19.1233 118.177 19.1466C118.17 19.1695 118.17 19.1942 118.177 19.2171C118.194 19.2353 118.215 19.2497 118.238 19.2594L118.709 19.4709L118.986 19.6072L119.527 19.8563C119.55 19.8611 119.574 19.8611 119.598 19.8563L119.663 19.8328C119.684 19.8186 119.7 19.7991 119.711 19.7764C119.716 19.7532 119.716 19.7291 119.711 19.7059L119.673 18.4275C120.887 18.155 128.041 16.0119 129.749 12.5294C131.616 8.74139 130.417 4.60092 126.973 2.91372ZM119.753 4.9816C119.586 5.10616 119.429 5.24282 119.282 5.39047C119.259 5.41005 119.232 5.42447 119.202 5.43278C119.17 5.43976 119.136 5.43976 119.104 5.43278L119.066 5.39988C119.052 5.3838 119.039 5.3665 119.028 5.34818C119.016 5.30842 119.016 5.26574 119.028 5.22599C119.038 5.20836 119.051 5.19247 119.066 5.17899C119.22 5.02071 119.386 4.87311 119.56 4.73721C119.575 4.72351 119.593 4.71377 119.613 4.70884C119.633 4.70392 119.653 4.70398 119.673 4.70901C119.693 4.71061 119.713 4.71699 119.73 4.72762C119.747 4.73824 119.761 4.75281 119.772 4.77011C119.786 4.78504 119.796 4.80287 119.803 4.82235C119.809 4.84183 119.812 4.8625 119.809 4.8829C119.803 4.92146 119.783 4.95645 119.753 4.9816ZM122.641 3.28029C121.855 3.49511 121.122 3.86947 120.487 4.38003C120.461 4.39427 120.432 4.40232 120.402 4.40353C120.374 4.4029 120.346 4.39479 120.322 4.38003C120.3 4.3703 120.279 4.35765 120.261 4.34244L120.228 4.29074C120.215 4.25098 120.215 4.2083 120.228 4.16855C120.236 4.15112 120.247 4.13523 120.261 4.12155C120.931 3.58756 121.702 3.19431 122.528 2.96541C122.548 2.96044 122.569 2.96044 122.589 2.96541C122.608 2.96134 122.627 2.96134 122.646 2.96541L122.698 3.00301C122.709 3.02007 122.717 3.03924 122.721 3.05941C122.728 3.07921 122.728 3.10071 122.721 3.1205C122.726 3.14063 122.726 3.16148 122.721 3.1816C122.715 3.20135 122.703 3.21914 122.688 3.2333C122.676 3.25361 122.66 3.27122 122.641 3.28499V3.28029Z" fill="var(--sapContent_Illustrative_Color1)"/>
<path d="M122.547 2.98428C121.723 3.21867 120.953 3.61138 120.28 4.14042L120.247 4.19211C120.234 4.23187 120.234 4.27455 120.247 4.31431C120.255 4.33173 120.266 4.34762 120.28 4.3613C120.296 4.37966 120.317 4.39276 120.341 4.3989C120.364 4.41717 120.392 4.42713 120.421 4.4271C120.451 4.42647 120.481 4.41663 120.506 4.3989C121.144 3.89089 121.878 3.51684 122.665 3.29916C122.684 3.2945 122.702 3.28477 122.717 3.27096C122.733 3.25854 122.746 3.24242 122.754 3.22397C122.759 3.20547 122.759 3.18606 122.754 3.16757C122.759 3.14745 122.759 3.12659 122.754 3.10647C122.749 3.083 122.739 3.06071 122.726 3.04068C122.713 3.02048 122.696 3.0042 122.674 2.99368C122.653 2.98684 122.63 2.98684 122.608 2.99368C122.589 2.98491 122.568 2.98166 122.547 2.98428V2.98428Z" fill="var(--sapContent_Illustrative_Color16)"/>
<path d="M119.593 4.72813C119.429 4.86724 119.272 5.01469 119.123 5.1699C119.107 5.18473 119.094 5.20224 119.085 5.2216C119.073 5.26135 119.073 5.30404 119.085 5.34379C119.093 5.36246 119.106 5.37865 119.123 5.39079L119.165 5.42369C119.194 5.43273 119.225 5.43273 119.255 5.42369C119.288 5.41564 119.318 5.39949 119.344 5.37669C119.492 5.23042 119.649 5.09385 119.814 4.96782C119.832 4.95595 119.847 4.94067 119.858 4.9229C119.869 4.90512 119.877 4.88522 119.88 4.86442C119.884 4.8232 119.874 4.78178 119.852 4.74693C119.839 4.73045 119.823 4.71618 119.805 4.70463C119.786 4.69279 119.766 4.68479 119.744 4.68113C119.722 4.67628 119.7 4.67628 119.678 4.68113C119.645 4.6867 119.615 4.70329 119.593 4.72813V4.72813Z" fill="var(--sapContent_Illustrative_Color16)"/>
<path d="M260.933 61.9613C260.393 62.9194 259.743 63.8107 258.995 64.6166L258.952 64.6636C257.626 66.1111 256.29 68.461 254.973 71.6427C254.963 71.6733 254.963 71.7061 254.973 71.7367C254.986 71.765 255.009 71.787 255.039 71.7978H255.086C255.107 71.8046 255.13 71.8046 255.151 71.7978C255.171 71.7863 255.186 71.7679 255.194 71.7461C256.497 68.5879 257.819 66.2662 259.126 64.8375L259.169 64.7858C259.932 63.9691 260.594 63.0633 261.14 62.0881C261.466 61.4991 261.747 60.8864 261.982 60.2553L261.77 60.1566C261.533 60.7769 261.254 61.38 260.933 61.9613V61.9613Z" fill="var(--sapContent_Illustrative_Color6)"/>
<path d="M268.026 47.6317C265.415 46.3581 262.25 47.5283 260.97 50.4516C259.691 53.3748 261.13 56.6317 262.179 59.2119L261.436 59.8088C261.422 59.8224 261.411 59.8383 261.403 59.8558C261.398 59.8743 261.398 59.8936 261.403 59.9122C261.406 59.9312 261.414 59.9491 261.426 59.9639C261.436 59.9796 261.451 59.9913 261.469 59.9967L261.798 60.1518L262.01 60.2505L262.424 60.4432C262.441 60.4474 262.458 60.4474 262.475 60.4432H262.527C262.543 60.4329 262.556 60.4182 262.565 60.4009C262.569 60.3824 262.569 60.3631 262.565 60.3445V59.3764C263.477 59.1743 268.882 57.5576 270.171 54.921C271.535 52.0401 270.632 48.9054 268.026 47.6317ZM262.574 49.1921C262.419 49.3096 262.231 49.5022 262.226 49.5022C262.208 49.5175 262.184 49.5259 262.16 49.5259C262.136 49.5259 262.113 49.5175 262.094 49.5022H262.061C262.05 49.4912 262.042 49.478 262.036 49.4634C262.03 49.4488 262.028 49.4333 262.028 49.4176C262.028 49.3863 262.04 49.356 262.061 49.333C262.18 49.2145 262.306 49.103 262.438 48.9994C262.452 48.9968 262.466 48.9968 262.48 48.9994H262.522C262.538 48.9947 262.554 48.9947 262.569 48.9994C262.569 48.9994 262.569 48.9994 262.602 49.0276C262.604 49.0416 262.604 49.0558 262.602 49.0699C262.607 49.0851 262.607 49.1016 262.602 49.1169C262.605 49.1309 262.605 49.1451 262.602 49.1592L262.574 49.1968V49.1921ZM264.752 47.9137C264.158 48.0741 263.604 48.3557 263.124 48.7409C263.103 48.7477 263.08 48.7477 263.059 48.7409C263.039 48.7477 263.017 48.7477 262.997 48.7409C262.981 48.736 262.966 48.7262 262.955 48.7127C262.944 48.7025 262.936 48.6901 262.93 48.6763C262.924 48.6625 262.922 48.6477 262.922 48.6328C262.922 48.6172 262.924 48.6016 262.93 48.587C262.935 48.5725 262.944 48.5592 262.955 48.5482C263.462 48.1464 264.044 47.8493 264.667 47.674C264.696 47.6623 264.728 47.6623 264.757 47.674C264.782 47.689 264.802 47.7122 264.813 47.7398C264.823 47.7689 264.823 47.8001 264.813 47.8291C264.808 47.8428 264.799 47.8553 264.789 47.8658C264.778 47.8762 264.766 47.8846 264.752 47.8902V47.9137Z" fill="var(--sapContent_Illustrative_Color1)"/>
<path d="M264.681 47.6882C264.058 47.8625 263.476 48.1597 262.969 48.5624C262.958 48.5734 262.95 48.5867 262.944 48.6012C262.938 48.6158 262.936 48.6314 262.936 48.647C262.936 48.6619 262.938 48.6767 262.944 48.6905C262.95 48.7043 262.958 48.7167 262.969 48.7269C262.979 48.7412 262.995 48.7513 263.012 48.7551C263.032 48.7612 263.053 48.7612 263.073 48.7551C263.094 48.7619 263.117 48.7619 263.139 48.7551C263.618 48.3699 264.172 48.0883 264.766 47.9279C264.778 47.9316 264.791 47.9316 264.804 47.9279L264.837 47.895C264.839 47.8794 264.839 47.8636 264.837 47.848C264.839 47.8324 264.839 47.8166 264.837 47.801C264.827 47.769 264.807 47.741 264.78 47.7211H264.728C264.717 47.7055 264.7 47.694 264.681 47.6882V47.6882Z" fill="var(--sapContent_Illustrative_Color16)"/>
<path d="M262.433 49.0042C262.301 49.1079 262.175 49.2193 262.057 49.3379C262.034 49.3604 262.02 49.3906 262.019 49.4225C262.019 49.4384 262.023 49.4541 262.029 49.4687C262.036 49.4832 262.045 49.4963 262.057 49.5071H262.09C262.108 49.5224 262.131 49.5308 262.155 49.5308C262.18 49.5308 262.203 49.5224 262.221 49.5071C262.332 49.3974 262.448 49.2938 262.57 49.1969C262.594 49.1783 262.61 49.1516 262.617 49.1217C262.626 49.0926 262.626 49.0615 262.617 49.0324C262.596 49.01 262.57 48.9937 262.541 48.9854C262.523 48.9806 262.504 48.9798 262.485 48.983C262.466 48.9863 262.449 48.9935 262.433 49.0042V49.0042Z" fill="var(--sapContent_Illustrative_Color16)"/>
<path d="M264.95 101.947C265.947 97.0449 263.341 92.6459 258.877 91.7436C254.413 90.8412 250.08 93.8585 249.257 98.7932C248.74 101.928 249.968 104.846 251.609 107.455C252.55 108.94 253.604 110.326 254.549 111.595L253.655 112.798C253.638 112.822 253.626 112.849 253.623 112.878C253.613 112.907 253.613 112.939 253.623 112.968C253.632 112.995 253.65 113.018 253.674 113.033C253.697 113.052 253.725 113.065 253.754 113.071L254.272 113.17L254.681 113.245L255.382 113.376C255.41 113.383 255.439 113.383 255.467 113.376C255.493 113.366 255.517 113.35 255.537 113.329C255.556 113.305 255.57 113.278 255.579 113.25C255.586 113.222 255.586 113.193 255.579 113.165L255.165 111.708C257.305 110.523 259.307 109.104 261.135 107.478C262.951 105.81 264.564 103.874 264.95 101.947ZM251.242 96.2694C251.094 96.4619 250.958 96.6645 250.838 96.8757C250.82 96.9073 250.794 96.9334 250.763 96.9509C250.732 96.9658 250.698 96.9738 250.664 96.9744C250.629 96.9763 250.595 96.9681 250.565 96.9509C250.541 96.9377 250.521 96.9202 250.504 96.8992C250.486 96.8792 250.475 96.8548 250.471 96.8287C250.466 96.8023 250.466 96.7752 250.471 96.7488C250.476 96.7224 250.486 96.697 250.499 96.6736C250.629 96.4441 250.775 96.2242 250.937 96.0157C250.953 95.9952 250.974 95.9784 250.997 95.9662C251.021 95.9541 251.047 95.9469 251.073 95.9452C251.127 95.9395 251.181 95.9547 251.224 95.9875C251.263 96.0235 251.289 96.0713 251.299 96.1237C251.304 96.1759 251.289 96.228 251.256 96.2694H251.242Z" fill="var(--sapContent_Illustrative_Color3)"/>
<path d="M250.932 96.0155C250.77 96.2241 250.624 96.444 250.494 96.6735C250.48 96.6965 250.47 96.722 250.466 96.7487C250.464 96.7753 250.464 96.802 250.466 96.8286C250.476 96.8535 250.488 96.8772 250.504 96.8991C250.519 96.9211 250.54 96.9388 250.565 96.9508C250.595 96.9685 250.629 96.9767 250.664 96.9743C250.698 96.9737 250.732 96.9657 250.762 96.9508C250.794 96.9333 250.82 96.9072 250.838 96.8756C250.958 96.6643 251.093 96.4617 251.242 96.2693C251.274 96.2279 251.289 96.1758 251.285 96.1236C251.283 96.0973 251.276 96.0716 251.263 96.0482C251.251 96.0247 251.235 96.004 251.214 95.9873C251.171 95.955 251.117 95.9399 251.063 95.945C251.038 95.9474 251.013 95.9549 250.991 95.967C250.968 95.9791 250.948 95.9956 250.932 96.0155Z" fill="var(--sapContent_Illustrative_Color15)"/>
<path d="M252.033 117.456C251.853 117.717 251.658 117.969 251.449 118.208C250.669 119.148 249.601 120.445 249.671 121.371C249.643 121.688 249.586 122.003 249.502 122.311C249.299 123.212 249.154 124.126 249.069 125.046C249.069 125.436 249.069 125.765 249.069 126.07C249.069 126.376 249.069 126.724 249.041 127.062C249.03 127.199 249.043 127.338 249.079 127.471C249.118 127.603 249.129 127.743 249.112 127.88C249.094 128.05 249.054 128.218 248.994 128.378C248.951 128.466 248.928 128.564 248.928 128.662C248.928 128.761 248.951 128.858 248.994 128.947C249.041 129.027 249.103 129.097 249.177 129.153C249.252 129.21 249.336 129.251 249.427 129.276C249.549 129.318 249.615 129.346 249.652 129.412C249.675 129.601 249.635 129.792 249.54 129.957C249.528 129.981 249.522 130.008 249.522 130.035C249.522 130.061 249.528 130.088 249.54 130.112C249.547 130.138 249.559 130.162 249.576 130.183C249.593 130.204 249.614 130.222 249.638 130.234H249.732C249.769 130.234 249.805 130.225 249.836 130.206C249.868 130.187 249.894 130.159 249.911 130.126C250.011 129.993 250.073 129.836 250.092 129.671C250.111 129.506 250.086 129.339 250.019 129.186C249.971 129.106 249.907 129.035 249.831 128.98C249.757 128.924 249.672 128.884 249.582 128.862C249.464 128.815 249.398 128.792 249.366 128.726C249.333 128.66 249.366 128.627 249.403 128.467C249.475 128.278 249.52 128.081 249.54 127.88C249.558 127.699 249.545 127.516 249.502 127.339C249.474 127.246 249.464 127.149 249.474 127.053C249.497 126.7 249.497 126.381 249.502 126.037C249.507 125.694 249.502 125.412 249.502 125.027C249.585 124.135 249.725 123.25 249.921 122.376C250.015 122.018 250.076 121.651 250.104 121.281C250.043 120.515 251.092 119.246 251.788 118.405C252.011 118.15 252.218 117.881 252.409 117.601C253.255 116.177 254.028 114.711 254.723 113.207L254.314 113.132C253.628 114.611 252.866 116.054 252.033 117.456V117.456Z" fill="var(--sapContent_Illustrative_Color6)"/>
</svg>
