<svg width="320" height="240" viewBox="0 0 320 240" fill="none" xmlns="http://www.w3.org/2000/svg" id="sapIllus-Scene-UnableToLoadImage">
<rect y="66.5371" width="320" height="138" rx="24" fill="var(--sapContent_Illustrative_Color20)"/>
<path d="M248.367 171.228L155.423 151.206L100.529 165.07L93 171.228L182.735 194.074L217.046 180.834L216.548 176.379L222.509 179.245H226.039L248.367 171.228Z" fill="var(--sapContent_Illustrative_Color21)"/>
<path d="M161.436 56.5903C158.061 56.5903 155.309 53.8384 155.309 50.4633C155.309 47.0883 158.061 44.3467 161.436 44.3467C164.811 44.3467 167.563 47.0986 167.563 50.4737C167.563 53.8488 164.811 56.6007 161.436 56.6007V56.5903ZM161.436 46.4236C159.203 46.4236 157.386 48.241 157.386 50.4737C157.386 52.7064 159.203 54.5238 161.436 54.5238C163.668 54.5238 165.486 52.7064 165.486 50.4737C165.486 48.241 163.668 46.4236 161.436 46.4236Z" fill="var(--sapContent_Illustrative_Color15)"/>
<path d="M174.624 110.527V110.506L174.375 111.212L173.648 110.506L154.208 110.693L159.421 138.95L169.972 146.001L162.391 144.018V143.997L161.591 143.789L159.847 143.343L158.964 148.089L158.476 144.288L155.485 132.813L153.761 130.164L153.657 129.604L153.252 127.496L151.487 118.108L148.891 126.831L139.856 109.914L132.275 112.978L130.998 113.455L136.575 106.425C136.575 106.425 110.228 111.243 109.803 111.628L109.055 131.234L107.996 159.138L168.705 172.96L168.736 172.68L171.384 146.053L174.915 110.527H174.624Z" fill="var(--sapContent_Illustrative_Color8)"/>
<path d="M151.954 129.519L147.749 132.624C147.146 133.154 146.674 133.588 145.796 132.167L137.115 116.528C136.523 115.426 135.878 114.985 134.996 116.185L116.314 140.174C115.066 141.662 115.659 142.113 117.28 142.417L133.085 145.481L155.62 149.853L163.409 151.359C164.883 151.695 165.621 151.011 164.686 149.375L161.592 143.778L159.847 143.331L158.964 148.077L158.476 144.276L155.485 132.801L153.761 130.153L153.658 129.592C153.18 129.135 152.75 128.929 151.954 129.509V129.519Z" fill="var(--sapContent_Illustrative_Color17)"/>
<path d="M182.195 116.79L175.289 182.806L100.747 165.079L102.19 119.573L102.481 108.752L99.5943 111.525L95.7623 112.906L94.6927 114.952L93.218 171.227L182.953 194.073L184.812 191.415L193.67 114.1L188.831 111.732L182.195 116.79Z" fill="var(--sapContent_Illustrative_Color16)"/>
<path d="M97.7145 109.084L95.7622 112.906L99.5942 111.525L102.481 108.752L104.704 106.769L100.228 108.254L97.7145 109.084Z" fill="var(--sapContent_Illustrative_Color3)"/>
<path opacity="0.5" d="M97.2577 112.364L96.1569 168.972L93.218 171.225L94.6927 114.95L95.7623 112.904L97.2577 112.364Z" fill="var(--sapContent_Illustrative_Color3)"/>
<path d="M181.894 119.72L182.195 116.792L177.979 116.158L174.115 118.827L168.726 172.942L108.016 159.12L110.353 107.695C108.276 107.349 106.372 107.002 104.641 106.656L102.481 108.754L100.757 165.06L175.299 182.797L181.894 119.72Z" fill="var(--sapContent_Illustrative_Color15)"/>
<path d="M182.195 116.791L183.285 109.812L183.098 108.545L183.254 107.05L182.278 107.569C181.104 108.701 179.91 109.739 178.519 110.207C177.491 110.414 176.847 110.56 176.421 110.674L174.842 111.515L174.115 118.826L177.688 119.501L182.195 116.78V116.791Z" fill="var(--sapContent_Illustrative_Color16)"/>
<path d="M194.168 109.229L191.095 107.567L188 105.896L183.285 109.811L182.195 116.789L188.208 113.643L193.483 115.668L194.21 109.364L194.22 109.26L194.168 109.229Z" fill="var(--sapContent_Illustrative_Color29)"/>
<path d="M97.2576 112.366L99.5942 111.525L102.481 108.752L100.747 165.079L96.1569 168.973L97.2576 112.366Z" fill="var(--sapContent_Illustrative_Color16)"/>
<path d="M96.1569 168.974L100.747 165.08L175.289 182.807L181.322 190.409L96.1569 168.974Z" fill="var(--sapContent_Illustrative_Color3)"/>
<path d="M103.634 95.211L117.207 46.3713L196.734 72.2814L183.285 109.791L187.709 107.496L191.801 108.711L196.09 107.34L211.563 65.4066L112.066 35L95.2223 96.9245L99.6774 95.159L101.287 96.291L103.634 95.211Z" fill="var(--sapContent_Illustrative_Color3)"/>
<path d="M208.074 66.2361L191.801 108.71L196.09 107.339L211.563 65.4053L208.074 66.2361Z" fill="var(--sapContent_Illustrative_Color29)"/>
<path d="M112.066 35L114.019 38.2608L208.074 66.2374L211.563 65.4066L112.066 35Z" fill="var(--sapContent_Illustrative_Color15)"/>
<path d="M112.066 35L114.289 37.295L97.8496 95.886L95.2223 96.9245L112.066 35Z" fill="var(--sapContent_Illustrative_Color28)"/>
<path d="M97.8495 95.8878L99.6772 95.1609L101.287 96.2928L103.634 95.2128L105.451 88.6496L117.207 46.3732L114.289 37.2969" fill="var(--sapContent_Illustrative_Color3)"/>
<path d="M110.029 108.501L110.571 107.733L110.699 111.372L110.194 111.503L110.029 108.501Z" fill="var(--sapContent_Illustrative_Color3)"/>
<path d="M102.481 108.754L106.199 108.712L110.055 108.544L110.561 107.736L104.631 106.656L102.471 108.754H102.481Z" fill="var(--sapContent_Illustrative_Color3)"/>
<path d="M117.207 46.3732L114.289 37.2969L208.074 66.2393L196.733 72.2832L117.207 46.3732Z" fill="var(--sapContent_Illustrative_Color16)"/>
<path d="M182.953 194.074L181.322 190.408L190.793 108.41L191.801 108.711L194.22 109.262L184.812 191.416L182.953 194.074Z" fill="var(--sapContent_Illustrative_Color29)"/>
<path d="M122.264 56.6514L111.516 94.4312L122.15 96.2797L130.261 96.6639L133.677 100.278L141.133 100.891L142.286 89.9034L145.588 100.911L147.987 99.1874L150.282 97.5363L152.058 96.6847L153.896 96.8301L162.173 95.262L165.662 94.6181L166.877 94.3897L170.522 93.7147L166.95 95.1062L165.932 95.4905L155.381 99.5717V101.742L155.392 101.752V101.763L158.102 103.913H164.125H166.846L174.396 111.223L177.657 101.981L186.079 78.0752L122.264 56.6514Z" fill="var(--sapContent_Illustrative_Color8)"/>
<path d="M150.282 97.5375L152.058 96.686L153.896 96.8313L162.183 95.2632L165.662 94.6194C164.748 92.1167 162.838 89.9774 160.2 88.9078C155.402 86.945 150.147 89.292 148.382 94.0378C147.759 95.7202 147.655 97.5064 147.998 99.1887L150.293 97.5375H150.282Z" fill="var(--sapContent_Illustrative_Color17)"/>
<path d="M165.932 95.4912L155.381 99.5724V101.743H155.392V101.764L158.102 103.913H164.125C164.717 103.207 165.216 102.387 165.59 101.462C166.379 99.4997 166.441 97.4228 165.932 95.4912Z" fill="var(--sapContent_Illustrative_Color17)"/>
<path d="M196.733 72.2821L117.207 46.3721L103.634 95.2117C104.568 95.0767 105.513 94.9625 106.448 94.8586C106.791 94.8171 107.133 94.7859 107.487 94.7548C108.182 94.6925 108.868 94.6302 109.563 94.5782C110.207 94.5367 110.862 94.4951 111.505 94.464C111.744 94.4536 111.983 94.4328 112.222 94.4225C111.983 94.4225 111.755 94.4225 111.516 94.4432L122.274 56.6634L186.068 78.0664L173.98 112.378C174.583 112.305 175.195 112.253 175.808 112.222H175.901C176.514 112.191 177.137 112.18 177.781 112.212C178.01 112.191 178.238 112.16 178.467 112.108C178.55 112.087 178.622 112.066 178.705 112.045C178.851 112.014 178.996 111.973 179.142 111.931C179.235 111.9 179.339 111.859 179.432 111.827C179.557 111.786 179.682 111.734 179.817 111.692C179.92 111.651 180.035 111.599 180.138 111.557C180.253 111.505 180.377 111.453 180.492 111.402C180.606 111.35 180.72 111.287 180.834 111.235C180.938 111.184 181.052 111.121 181.156 111.069C181.281 111.007 181.405 110.934 181.52 110.862C181.613 110.81 181.717 110.758 181.81 110.695C181.956 110.612 182.091 110.529 182.236 110.446C182.309 110.405 182.382 110.363 182.454 110.311C182.724 110.145 183.005 109.979 183.275 109.813L196.713 72.3029V72.2821H196.733Z" fill="var(--sapContent_Illustrative_Color15)"/>
</svg>