<svg width="128" height="128" viewBox="0 0 128 128" fill="none" xmlns="http://www.w3.org/2000/svg" id="sapIllus-Spot-PageNotFound">
<rect y="43.5" width="128" height="55" rx="8" fill="var(--sapContent_Illustrative_Color20)"/>
<path d="M91.0033 88.2158L66.8329 80.1805C66.7815 80.1644 66.727 80.158 66.6756 80.1676L32.4506 85.394C30.9128 85.5706 30.7684 86.0007 31.2339 86.2287L55.4492 94.4503C56.393 94.7713 57.401 94.8483 58.3834 94.6718L89.6357 88.9382C91.0579 88.7488 91.3404 88.325 91.0065 88.2158H91.0033Z" fill="var(--sapContent_Illustrative_Color21)"/>
<path d="M31.2403 37.7988L41.4683 78.0849C41.6288 78.666 42.1906 79.0416 42.7877 78.9645L74.9935 73.8377C76.8555 73.3657 77.3884 71.8633 77.2311 71.3882L61.4396 33.6896C61.1635 32.9288 60.6659 32.5981 60.1234 32.6334L32.7074 33.9047C31.9433 33.9528 30.4088 35.054 31.2403 37.7988Z" fill="var(--sapContent_Illustrative_Color22)"/>
<path d="M31.6319 35.4223L42.2259 77.0342C42.3865 77.6153 42.9483 77.9909 43.5454 77.9139L76.1492 72.7356C76.9101 72.6361 77.3884 71.8624 77.1348 71.1369L64.8554 32.4527C64.6756 31.9423 64.178 31.6116 63.6387 31.6437L32.7202 33.8942C31.9562 33.9423 31.4265 34.6807 31.6319 35.4223Z" fill="var(--sapContent_Illustrative_Color2)"/>
<path d="M43.4747 42.2162L55.9949 87.6484C56.1747 88.3033 56.8103 88.727 57.4877 88.6404L94.0755 81.9758C96.1783 81.4429 96.7786 79.7478 96.4929 78.9292L77.7062 37.2787C77.504 36.7009 76.9422 36.3285 76.3322 36.367L45.128 37.8213C44.2645 37.8758 42.5309 39.1182 43.4715 42.2194L43.4747 42.2162Z" fill="var(--sapContent_Illustrative_Color22)"/>
<path d="M43.9146 39.5316L56.8489 86.4631C57.0287 87.118 57.6643 87.5417 58.3417 87.4551L95.379 80.7327C96.2393 80.6203 96.7787 79.7471 96.4929 78.9285L81.565 35.8783C81.3628 35.3005 80.801 34.9281 80.191 34.9666L45.1441 37.8077C44.2806 37.8623 43.6834 38.697 43.9146 39.5316Z" fill="var(--sapContent_Illustrative_Color8)"/>
<path d="M60.3882 84.8629C60.2382 84.8629 60.1041 84.7544 60.0754 84.6012C60.0435 84.4288 60.1584 84.2597 60.3307 84.2278L62.2137 83.8767C62.3892 83.8448 62.5552 83.9597 62.5871 84.132C62.619 84.3044 62.5041 84.4735 62.3318 84.5054L60.4488 84.8565C60.4297 84.8597 60.4105 84.8629 60.3914 84.8629H60.3882ZM58.6712 84.4161C58.5691 84.4161 58.4669 84.365 58.4063 84.2725C58.3137 84.1352 58.2467 83.9852 58.202 83.8257L57.7967 82.3576C57.7489 82.1884 57.851 82.0129 58.0201 81.965C58.1893 81.9172 58.3648 82.0193 58.4127 82.1884L58.818 83.6565C58.8435 83.7523 58.885 83.8416 58.9393 83.9214C59.0382 84.0682 58.9967 84.2661 58.8499 84.365C58.7956 84.4001 58.735 84.4193 58.6744 84.4193L58.6712 84.4161ZM64.1509 84.1576C64.0009 84.1576 63.8668 84.0491 63.8381 83.8959C63.8062 83.7235 63.9211 83.5544 64.0934 83.5225L65.9764 83.1714C66.1519 83.1395 66.3179 83.2544 66.3498 83.4267C66.3817 83.5991 66.2668 83.7682 66.0945 83.8001L64.2115 84.1512C64.1924 84.1544 64.1732 84.1576 64.1541 84.1576H64.1509ZM67.9168 83.4554C67.7668 83.4554 67.6327 83.3469 67.604 83.1937C67.5721 83.0214 67.687 82.8523 67.8593 82.8203L69.7423 82.4693C69.9178 82.4374 70.0838 82.5523 70.1157 82.7246C70.1476 82.8969 70.0327 83.0661 69.8604 83.098L67.9774 83.4491C67.9583 83.4523 67.9391 83.4554 67.92 83.4554H67.9168ZM71.6827 82.7533C71.5327 82.7533 71.3986 82.6448 71.3699 82.4916C71.338 82.3193 71.4529 82.1501 71.6252 82.1182L73.5082 81.7672C73.6837 81.7385 73.8497 81.8501 73.8816 82.0225C73.9135 82.1948 73.7986 82.364 73.6263 82.3959L71.7433 82.7469C71.7242 82.7501 71.705 82.7533 71.6859 82.7533H71.6827ZM75.4454 82.0512C75.2954 82.0512 75.1614 81.9427 75.1326 81.7895C75.1007 81.6172 75.2156 81.448 75.388 81.4161L77.2709 81.0651C77.4432 81.0363 77.6124 81.148 77.6443 81.3204C77.6762 81.4927 77.5613 81.6619 77.389 81.6938L75.506 82.0448C75.4869 82.048 75.4677 82.0512 75.4486 82.0512H75.4454ZM79.2113 81.3491C79.0613 81.3491 78.9273 81.2406 78.8985 81.0874C78.8666 80.9151 78.9815 80.7459 79.1539 80.714L81.0368 80.3629C81.2123 80.3342 81.3783 80.4459 81.4102 80.6183C81.4421 80.7906 81.3272 80.9597 81.1549 80.9917L79.2719 81.3427C79.2528 81.3459 79.2336 81.3491 79.2145 81.3491H79.2113ZM57.5957 80.7459C57.4552 80.7459 57.3276 80.6534 57.2893 80.5129L56.7818 78.6651C56.734 78.4959 56.8361 78.3204 57.0052 78.2725C57.1744 78.2247 57.3499 78.3268 57.3978 78.4959L57.9052 80.3438C57.9531 80.5129 57.851 80.6885 57.6818 80.7363C57.6531 80.7427 57.6244 80.7491 57.5957 80.7491V80.7459ZM82.974 80.6438C82.824 80.6438 82.69 80.5353 82.6612 80.3821C82.6293 80.2097 82.7442 80.0406 82.9166 80.0087L84.7995 79.6576C84.975 79.6289 85.141 79.7406 85.1729 79.9129C85.2048 80.0853 85.0899 80.2544 84.9176 80.2863L83.0346 80.6374C83.0155 80.6406 82.9963 80.6438 82.9772 80.6438H82.974ZM86.7399 79.9417C86.5899 79.9417 86.4559 79.8332 86.4271 79.68C86.3952 79.5076 86.5101 79.3385 86.6825 79.3066L88.5654 78.9555C88.7409 78.9268 88.9069 79.0385 88.9388 79.2108C88.9707 79.3832 88.8558 79.5523 88.6835 79.5842L86.8005 79.9353C86.7814 79.9385 86.7622 79.9417 86.7431 79.9417H86.7399ZM90.5058 79.2396C90.3558 79.2396 90.2218 79.131 90.193 78.9779C90.1611 78.8055 90.276 78.6364 90.4484 78.6045L92.3313 78.2534C92.5068 78.2247 92.6728 78.3364 92.7047 78.5087C92.7366 78.681 92.6217 78.8502 92.4494 78.8821L90.5664 79.2332C90.5473 79.2364 90.5281 79.2396 90.509 79.2396H90.5058ZM93.5664 77.6119C93.3941 77.6119 93.2504 77.4747 93.2473 77.2992C93.2473 77.2034 93.2281 77.1077 93.1962 77.0151L92.6951 75.5726C92.6377 75.4066 92.7239 75.2247 92.893 75.1673C93.059 75.1066 93.2409 75.196 93.2983 75.3651L93.7994 76.8077C93.8536 76.9641 93.8824 77.1236 93.8855 77.2864C93.8887 77.4619 93.7515 77.6087 93.5728 77.6119H93.5664ZM56.5808 77.0534C56.4404 77.0534 56.3127 76.9609 56.2744 76.8204L55.767 74.9726C55.7191 74.8034 55.8212 74.6279 55.9904 74.58C56.1595 74.5322 56.335 74.6343 56.3829 74.8034L56.8904 76.6513C56.9382 76.8204 56.8361 76.996 56.667 77.0438C56.6382 77.0502 56.6095 77.0566 56.5808 77.0566V77.0534ZM92.3664 73.9801C92.2356 73.9801 92.1111 73.8971 92.0664 73.7662L91.4377 71.9567C91.3803 71.7907 91.4664 71.6088 91.6356 71.5514C91.8015 71.4939 91.9834 71.5801 92.0409 71.7492L92.6696 73.5588C92.727 73.7247 92.6409 73.9067 92.4717 73.9641C92.4366 73.9769 92.4015 73.9832 92.3664 73.9832V73.9801ZM55.5627 73.3609C55.4223 73.3609 55.2946 73.2684 55.2563 73.1279L54.7489 71.2833C54.701 71.1141 54.8032 70.9386 54.9723 70.8907C55.1414 70.8429 55.317 70.945 55.3648 71.1141L55.8723 72.9588C55.9202 73.1279 55.818 73.3035 55.6489 73.3513C55.6202 73.3577 55.5914 73.3641 55.5627 73.3641V73.3609ZM91.109 70.3642C90.9781 70.3642 90.8537 70.2812 90.809 70.1503L90.1803 68.3408C90.1228 68.1748 90.209 67.9929 90.3782 67.9355C90.5441 67.8748 90.726 67.9642 90.7835 68.1333L91.4122 69.9429C91.4696 70.1088 91.3835 70.2907 91.2143 70.3482C91.1792 70.361 91.1441 70.3673 91.109 70.3673V70.3642ZM54.5478 69.6684C54.4074 69.6684 54.2798 69.5759 54.2415 69.4354L53.734 67.5908C53.6861 67.4216 53.7883 67.2461 53.9574 67.1982C54.1266 67.1504 54.3021 67.2525 54.35 67.4216L54.8574 69.2663C54.9053 69.4354 54.8032 69.611 54.634 69.6588C54.6053 69.6652 54.5766 69.6716 54.5478 69.6716V69.6684ZM89.8516 66.7451C89.7207 66.7451 89.5962 66.6621 89.5516 66.5312L88.9229 64.7217C88.8654 64.5557 88.9516 64.3738 89.1207 64.3164C89.2867 64.2589 89.4686 64.3451 89.526 64.5142L90.1548 66.3238C90.2122 66.4897 90.126 66.6717 89.9569 66.7291C89.9218 66.7419 89.8867 66.7483 89.8516 66.7483V66.7451ZM53.5298 65.9759C53.3893 65.9759 53.2617 65.8834 53.2234 65.7429L52.716 63.8951C52.6681 63.726 52.7702 63.5504 52.9394 63.5026C53.1085 63.4547 53.284 63.5568 53.3319 63.726L53.8393 65.5738C53.8872 65.7429 53.7851 65.9185 53.6159 65.9663C53.5872 65.9727 53.5585 65.9791 53.5298 65.9791V65.9759ZM88.5973 63.1292C88.4665 63.1292 88.342 63.0462 88.2973 62.9153L87.6686 61.1058C87.6112 60.9398 87.6973 60.7579 87.8665 60.7005C88.0324 60.643 88.2144 60.7292 88.2718 60.8983L88.9005 62.7079C88.958 62.8738 88.8718 63.0558 88.7026 63.1132C88.6675 63.126 88.6324 63.1323 88.5973 63.1323V63.1292ZM52.5149 62.2834C52.3745 62.2834 52.2468 62.1909 52.2085 62.0504L51.7011 60.2026C51.6532 60.0335 51.7553 59.8579 51.9245 59.8101C52.0936 59.7622 52.2691 59.8643 52.317 60.0335L52.8245 61.8813C52.8723 62.0504 52.7702 62.226 52.6011 62.2739C52.5723 62.2802 52.5436 62.2866 52.5149 62.2866V62.2834ZM87.3399 59.5101C87.209 59.5101 87.0846 59.4271 87.0399 59.2962L86.4112 57.4867C86.3537 57.3207 86.4399 57.1388 86.6091 57.0814C86.775 57.0239 86.9569 57.1101 87.0144 57.2792L87.6431 59.0888C87.7005 59.2547 87.6144 59.4367 87.4452 59.4941C87.4101 59.5069 87.375 59.5133 87.3399 59.5133V59.5101ZM51.4968 58.5909C51.3564 58.5909 51.2287 58.4984 51.1904 58.358L50.683 56.5101C50.6351 56.341 50.7373 56.1654 50.9064 56.1176C51.0755 56.0697 51.2511 56.1718 51.299 56.341L51.8064 58.1888C51.8543 58.358 51.7521 58.5335 51.583 58.5814C51.5543 58.5877 51.5255 58.5941 51.4968 58.5941V58.5909ZM86.0825 55.8942C85.9516 55.8942 85.8272 55.8112 85.7825 55.6803L85.1538 53.8708C85.0963 53.7048 85.1825 53.5229 85.3516 53.4655C85.5176 53.408 85.6995 53.4942 85.7569 53.6633L86.3857 55.4729C86.4431 55.6388 86.3569 55.8208 86.1878 55.8782C86.1527 55.891 86.1176 55.8973 86.0825 55.8973V55.8942ZM50.4819 54.8984C50.3415 54.8984 50.2139 54.8059 50.1756 54.6655L49.6681 52.8208C49.6203 52.6517 49.7224 52.4761 49.8915 52.4283C50.0607 52.3804 50.2362 52.4825 50.2841 52.6517L50.7915 54.4963C50.8394 54.6655 50.7373 54.841 50.5681 54.8889C50.5394 54.8952 50.5107 54.9016 50.4819 54.9016V54.8984ZM84.825 52.2751C84.6942 52.2751 84.5697 52.1921 84.525 52.0612L83.8963 50.2517C83.8389 50.0857 83.9251 49.9038 84.0942 49.8464C84.2602 49.7889 84.4421 49.8751 84.4995 50.0442L85.1282 51.8538C85.1857 52.0197 85.0995 52.2017 84.9304 52.2591C84.8953 52.2719 84.8601 52.2783 84.825 52.2783V52.2751ZM49.4639 51.2059C49.3234 51.2059 49.1958 51.1134 49.1575 50.973L48.6501 49.1251C48.6022 48.956 48.7043 48.7804 48.8735 48.7326C49.0426 48.6847 49.2181 48.7868 49.266 48.956L49.7734 50.8038C49.8213 50.973 49.7192 51.1485 49.55 51.1964C49.5213 51.2027 49.4926 51.2091 49.4639 51.2091V51.2059ZM83.5676 48.656C83.4368 48.656 83.3123 48.573 83.2676 48.4421L82.6389 46.6326C82.5815 46.4666 82.6676 46.2847 82.8368 46.2273C83.0027 46.1698 83.1846 46.256 83.2421 46.4252L83.8708 48.2347C83.9282 48.4007 83.8421 48.5826 83.6729 48.64C83.6378 48.6528 83.6027 48.6592 83.5676 48.6592V48.656ZM48.449 47.5134C48.3086 47.5134 48.1809 47.4209 48.1426 47.2805L47.6352 45.4326C47.5873 45.2635 47.6894 45.0879 47.8586 45.0401C48.0277 44.9922 48.2033 45.0943 48.2511 45.2635L48.7586 47.1113C48.8064 47.2805 48.7043 47.456 48.5352 47.5039C48.5064 47.5102 48.4777 47.5166 48.449 47.5166V47.5134ZM82.3102 45.0401C82.1793 45.0401 82.0549 44.9571 82.0102 44.8262L81.3815 43.0167C81.324 42.8507 81.4102 42.6688 81.5793 42.6114C81.7453 42.5539 81.9272 42.6401 81.9847 42.8092L82.6134 44.6188C82.6708 44.7848 82.5846 44.9667 82.4155 45.0241C82.3804 45.0369 82.3453 45.0433 82.3102 45.0433V45.0401ZM47.4309 43.8209C47.2905 43.8209 47.1628 43.7284 47.1245 43.588L46.6171 41.7401C46.5692 41.571 46.6714 41.3954 46.8405 41.3476C47.0097 41.2997 47.1852 41.4018 47.2331 41.571L47.7405 43.4188C47.7884 43.588 47.6862 43.7635 47.5171 43.8114C47.4884 43.8177 47.4596 43.8241 47.4309 43.8241V43.8209ZM81.0559 41.421C80.9251 41.421 80.8006 41.338 80.756 41.2071L80.1272 39.3976C80.0698 39.2316 80.156 39.0497 80.3251 38.9923C80.4911 38.9348 80.673 39.021 80.7304 39.1902L81.3591 40.9997C81.4166 41.1657 81.3304 41.3476 81.1613 41.405C81.1262 41.4178 81.0911 41.4242 81.0559 41.4242V41.421ZM47.2075 40.805C47.1309 40.805 47.0511 40.7763 46.9905 40.722C46.8597 40.604 46.8533 40.3997 46.9714 40.2721C47.2458 39.9752 47.616 39.7997 48.0213 39.7742L48.9788 39.6944C49.1607 39.6784 49.3075 39.8093 49.3234 39.9848C49.3394 40.1604 49.2086 40.3135 49.033 40.3295L48.0692 40.4093C47.8235 40.4252 47.6033 40.5306 47.4437 40.7061C47.3799 40.7731 47.2937 40.8082 47.2075 40.8082V40.805ZM50.9128 40.1699C50.75 40.1699 50.6096 40.0455 50.5936 39.8763C50.5777 39.7008 50.7085 39.5476 50.8841 39.5316L52.7925 39.3721C52.9681 39.3497 53.1213 39.487 53.1372 39.6625C53.1532 39.838 53.0223 39.9912 52.8468 40.0072L50.9383 40.1667C50.9383 40.1667 50.9192 40.1667 50.9128 40.1667V40.1699ZM54.7297 39.8508C54.567 39.8508 54.4266 39.7263 54.4106 39.5572C54.3946 39.3816 54.5255 39.2285 54.701 39.2125L56.6095 39.0529C56.7882 39.0338 56.9382 39.1678 56.9542 39.3433C56.9701 39.5189 56.8393 39.6721 56.6638 39.688L54.7553 39.8476C54.7553 39.8476 54.7361 39.8476 54.7297 39.8476V39.8508ZM58.5467 39.5348C58.3839 39.5348 58.2435 39.4104 58.2276 39.2412C58.2116 39.0657 58.3425 38.9125 58.518 38.8965L60.4265 38.737C60.6052 38.721 60.7552 38.8519 60.7711 39.0274C60.7871 39.2029 60.6563 39.3561 60.4807 39.3721L58.5722 39.5316C58.5722 39.5316 58.5531 39.5316 58.5467 39.5316V39.5348ZM62.3637 39.2157C62.2009 39.2157 62.0605 39.0912 62.0445 38.9221C62.0286 38.7465 62.1594 38.5934 62.335 38.5774L64.2434 38.4178C64.4222 38.3987 64.5722 38.5327 64.5881 38.7082C64.6041 38.8838 64.4732 39.037 64.2977 39.0529L62.3892 39.2125C62.3892 39.2125 62.3701 39.2125 62.3637 39.2125V39.2157ZM66.1806 38.8997C66.0179 38.8997 65.8775 38.7753 65.8615 38.6061C65.8455 38.4306 65.9764 38.2774 66.1519 38.2614L68.0604 38.1019C68.2423 38.0859 68.3891 38.2168 68.4051 38.3923C68.421 38.5678 68.2902 38.721 68.1147 38.737L66.2062 38.8965C66.2062 38.8965 66.187 38.8965 66.1806 38.8965V38.8997ZM69.9976 38.5838C69.8348 38.5838 69.6944 38.4593 69.6785 38.2902C69.6625 38.1146 69.7934 37.9614 69.9689 37.9455L71.8774 37.7859C72.0529 37.7636 72.2061 37.9008 72.222 38.0763C72.238 38.2519 72.1071 38.4051 71.9316 38.421L70.0231 38.5806C70.0231 38.5806 70.004 38.5806 69.9976 38.5806V38.5838ZM73.8114 38.2646C73.6486 38.2646 73.5082 38.1402 73.4922 37.971C73.4763 37.7955 73.6071 37.6423 73.7827 37.6263L75.6911 37.4668C75.8699 37.4476 76.0199 37.5817 76.0358 37.7572C76.0518 37.9327 75.9209 38.0859 75.7454 38.1019L73.8369 38.2614C73.8369 38.2614 73.8178 38.2614 73.8114 38.2614V38.2646ZM79.5145 37.9902C79.4634 37.9902 79.4124 37.9774 79.3645 37.9519C79.2304 37.8817 79.0804 37.8434 78.9305 37.8434H78.8666L77.6571 37.9455C77.4783 37.9614 77.3283 37.8306 77.3124 37.6551C77.2964 37.4795 77.4273 37.3264 77.6028 37.3104L78.8251 37.2083C78.8666 37.2083 78.8985 37.2051 78.9305 37.2051C79.1858 37.2051 79.4411 37.2689 79.6677 37.3902C79.8241 37.4732 79.8815 37.6678 79.7985 37.821C79.7411 37.9295 79.6294 37.9902 79.5177 37.9902H79.5145Z" fill="var(--sapContent_Illustrative_Color21)"/>
<path d="M68.1973 50.3729C63.8152 50.8513 61.1956 54.6619 62.454 58.9412C63.7349 63.2944 68.4862 66.3346 72.9581 65.67C77.3338 65.0215 79.6837 61.0729 78.3194 56.9027C76.9742 52.8031 72.4894 49.9042 68.1973 50.3729ZM72.3963 62.4918C72.284 62.6748 72.1042 62.784 71.8506 62.8193C71.597 62.8546 71.3562 62.8064 71.1443 62.6684C70.9324 62.5303 70.7848 62.3377 70.7077 62.0873C70.6307 61.8369 70.6531 61.6347 70.7687 61.4517C70.8843 61.2719 71.0705 61.1628 71.3273 61.1274C71.5841 61.0921 71.8089 61.1435 72.0207 61.2815C72.2294 61.4196 72.3739 61.6058 72.4477 61.8465C72.5215 62.0873 72.5087 62.312 72.3996 62.495L72.3963 62.4918ZM73.2278 56.4918C73.1732 56.8288 73.0673 57.1178 72.9068 57.3585C72.7463 57.5993 72.528 57.869 72.2551 58.1675C72.04 58.4179 71.8827 58.6234 71.7768 58.7807C71.6708 58.938 71.597 59.1274 71.5552 59.3457C71.5135 59.564 71.5328 59.8112 71.613 60.0873L70.3963 60.251C70.2775 59.8369 70.2454 59.4741 70.2968 59.1595C70.3482 58.8449 70.4445 58.5817 70.5825 58.3634C70.7206 58.1451 70.9196 57.8979 71.1732 57.6154C71.2727 57.4998 71.3177 57.4484 71.3113 57.4581C71.5007 57.2494 71.6483 57.06 71.7543 56.8898C71.8602 56.7197 71.9308 56.5239 71.9597 56.3024C71.9918 56.0808 71.9597 55.8304 71.8731 55.5479C71.7671 55.2141 71.5906 54.9316 71.3434 54.7068C71.0962 54.4821 70.8072 54.3216 70.4798 54.2285C70.1523 54.1354 69.812 54.1097 69.4653 54.1515C68.9164 54.2157 68.499 54.3922 68.2133 54.6812C67.9276 54.9701 67.7125 55.3682 67.568 55.8754L66.3546 55.4131C66.4798 54.7839 66.7719 54.2638 67.2342 53.8529C67.6932 53.442 68.3225 53.1916 69.1218 53.0985C69.7478 53.0246 70.3321 53.0664 70.8747 53.2237C71.4172 53.381 71.8827 53.641 72.2679 54.0038C72.6564 54.3698 72.9325 54.8128 73.0994 55.3425C73.2342 55.7694 73.276 56.1515 73.2214 56.4886L73.2278 56.4918Z" fill="var(--sapContent_Illustrative_Color22)"/>
</svg>