<svg width="320" height="240" viewBox="0 0 320 240" fill="none" xmlns="http://www.w3.org/2000/svg" id="sapIllus-Scene-NoActivities">
<rect y="57.3999" width="320" height="138" rx="24" fill="var(--sapContent_Illustrative_Color20)"/>
<path d="M196.954 72.1923C198.809 72.0528 200.435 73.4398 200.574 75.2948L200.873 78.3104C202.087 78.3656 203.045 78.7105 203.15 79.9237C203.15 79.9237 206.341 111.13 209.504 134.49C212.59 157.235 214.558 173.502 214.564 173.559C214.716 175.414 213.21 177.04 211.196 177.18L122.276 183.565C120.263 183.705 118.498 182.318 118.347 180.463C118.347 180.463 115.754 168.523 113.813 154.046C113.371 154.432 112.961 154.787 112.594 155.099C108.539 158.546 104.731 162.215 102.203 166.893C99.7162 171.49 97.8939 176.505 94.7422 180.724C93.1827 182.808 91.3357 184.401 89.251 185.928C86.1546 188.208 80.3746 191.677 78.6543 195.117L60 195.308L65.7188 182.184C66.7866 179.375 76.6024 151.946 78.6543 142.048C79.0155 140.283 79.9676 138.691 81.3955 137.6C85.836 134.193 91.2701 133.561 96.6709 131.197C103.997 128.702 108.396 127.121 111.356 126.322C110.248 107.257 109.518 84.6694 109.637 82.5565C109.597 80.7736 111.016 79.228 112.813 79.0849L196.954 72.1923Z" fill="var(--sapContent_Illustrative_Color21)"/>
<path d="M137.435 129.342C137.435 129.342 135.24 158.708 129.708 159.092C124.175 159.475 123.274 147.964 123.274 147.964C123.274 147.964 126.192 133.009 137.435 129.342Z" fill="var(--sapContent_Illustrative_Color29)"/>
<path d="M121.606 132.938C121.588 134.411 119.304 136.472 117.938 137.578C116.636 136.427 115.493 135.107 114.467 133.706C111.844 130.145 109.622 126.067 108.551 121.767C108.444 121.338 107.356 119.902 107.463 119.429C115.36 115.967 125.621 110.407 128.914 109.087C136.775 105.946 137.988 115.565 137.988 115.565C137.988 115.565 133.946 118.759 132.929 121.686C131.921 124.613 121.624 130.815 121.606 132.92V132.938Z" fill="var(--sapContent_Illustrative_Color15)"/>
<path d="M116.181 142.128C114.458 141.182 110.898 132.83 110.256 131.278C110.256 131.26 112.808 127.548 115.154 127.28C115.743 127.182 114.958 133.044 116.618 132.964C118.973 132.857 120.401 129.315 122.052 126.441C123.453 123.987 124.524 123.291 125.041 122.328C125.693 121.114 125.461 120.954 125.336 119.695C125.264 118.946 125.264 118.179 125.38 117.438C125.434 117.117 125.532 116.76 125.817 116.617C126.076 116.483 126.415 116.599 126.603 116.822C126.995 117.313 126.719 118.107 126.986 118.669C127.201 119.107 127.691 119.356 128.164 119.374C128.61 119.392 129.003 119.178 129.333 118.901C130.101 118.259 130.975 117.795 131.475 116.947C132.019 115.894 131.876 114.404 132.992 114.565L137.355 115.484C137.355 115.484 137.935 117.59 137.284 119.927C136.98 120.561 134.303 121.819 133.705 122.337C129.637 125.852 125.202 134.419 125.175 136.275C125.157 137.747 119.58 144.287 118.063 142.833L116.181 142.119V142.128Z" fill="var(--sapContent_Illustrative_Color16)"/>
<path d="M129.797 60.3931L210.979 60.179C212.996 60.0273 215.155 59.8399 215.316 61.8565C215.316 61.8565 218.51 95.782 221.678 121.177C224.774 145.948 226.746 163.651 226.746 163.651C226.898 165.667 225.39 167.434 223.373 167.586L134.321 174.528C132.305 174.68 130.538 173.172 130.386 171.155C130.386 171.155 126.032 149.392 124.381 128.057C122.73 106.722 121.579 66.1931 121.749 63.6857C121.936 60.7946 124.015 60.7768 129.797 60.3931Z" fill="var(--sapContent_Illustrative_Color9)"/>
<path d="M130.207 60.3933L212.291 59.2869C214.307 59.1352 216.467 58.9478 216.627 60.9644C216.627 60.9644 219.822 94.8899 222.99 120.285C226.086 145.055 228.058 162.759 228.058 162.759C228.21 164.775 226.702 166.542 224.685 166.694L135.633 173.636C133.616 173.788 131.849 172.28 131.698 170.263C131.698 170.263 127.343 148.5 125.692 127.165C124.042 105.83 122.989 64.4712 122.989 64.4712C122.989 62.5616 124.434 60.777 130.216 60.3933H130.207Z" fill="var(--sapContent_Illustrative_Color17)"/>
<path d="M140.942 129.511C140.942 129.511 142.12 141.888 141.201 147.188C140.282 152.488 138.122 152.916 136.962 152.372C135.802 151.828 133.366 150.498 133.295 147.027C133.223 143.556 132.135 139.996 132.135 139.996L134.267 133.848L140.951 129.511H140.942Z" fill="var(--sapContent_Illustrative_Color29)"/>
<path d="M130.359 61.8381L216.181 55.1458C218.198 54.9941 220.357 54.8067 220.518 56.8233C220.518 56.8233 223.712 90.7488 226.88 116.144C229.976 140.914 231.948 158.618 231.948 158.618C232.1 160.634 230.592 162.401 228.575 162.553L139.523 169.495C137.507 169.647 135.74 168.139 135.588 166.122C135.588 166.122 131.234 144.359 129.583 123.024C127.932 101.688 126.879 65.7553 126.879 65.7553C126.728 63.7387 128.343 61.9987 130.359 61.8381Z" fill="var(--sapContent_Illustrative_Color8)"/>
<path d="M130.208 60.3928L216.583 53.4507C218.6 53.299 220.366 54.807 220.518 56.8236L222.508 76.9005L127.54 84.387L126.763 64.3547C126.612 62.3381 128.2 60.5624 130.217 60.4018L130.208 60.3928Z" fill="var(--sapContent_Illustrative_Color9)"/>
<path d="M142.022 133.464C141.968 133.544 141.915 133.615 141.87 133.696C141.924 133.615 141.977 133.544 142.022 133.464Z" fill="var(--sapContent_Illustrative_Color15)"/>
<path d="M146.269 120.249C146.224 120.178 146.18 120.124 146.135 120.053C146.198 120.187 146.26 120.33 146.314 120.463C146.296 120.392 146.287 120.321 146.278 120.249H146.269Z" fill="var(--sapContent_Illustrative_Color15)"/>
<path d="M136.257 141.085C137.783 139.193 139.729 136.81 141.513 134.205C139.72 136.784 137.783 139.175 136.257 141.085Z" fill="var(--sapContent_Illustrative_Color15)"/>
<path d="M153.113 75.6341C155.937 75.6341 158.227 73.3449 158.227 70.5209C158.227 67.697 155.937 65.4077 153.113 65.4077C150.289 65.4077 148 67.697 148 70.5209C148 73.3449 150.289 75.6341 153.113 75.6341Z" fill="var(--sapContent_Illustrative_Color22)"/>
<path d="M196.881 72.0199C199.705 72.0199 201.994 69.7306 201.994 66.9067C201.994 64.0827 199.705 61.7935 196.881 61.7935C194.057 61.7935 191.768 64.0827 191.768 66.9067C191.768 69.7306 194.057 72.0199 196.881 72.0199Z" fill="var(--sapContent_Illustrative_Color22)"/>
<path d="M149.535 74.1883C149.535 74.1883 148.785 73.644 148.295 72.3412C147.804 71.0385 148.045 69.8071 148.045 69.8071C151.418 69.8428 153.086 67.8886 152.622 60.5717C152.319 55.7979 151.034 52.8711 149.892 52.0859C149.624 51.8985 149.285 51.7557 148.625 51.9609C147.144 52.416 146.448 55.3606 146.688 59.144L142.209 59.5009C141.674 51.1846 145.172 48.356 147.304 47.6957C149.151 47.1246 150.918 47.3745 152.417 48.4096C155.96 50.8456 156.852 56.8954 157.066 60.2862C157.334 64.4265 157.744 73.0819 149.535 74.1883Z" fill="var(--sapContent_Illustrative_Color17)"/>
<path d="M193.472 70.7163C193.472 70.7163 192.669 70.056 192.187 68.9407C191.634 67.6736 191.777 66.585 191.777 66.585C195.489 66.585 197.711 64.3453 197.238 57.0284C196.934 52.2545 195.649 49.3277 194.507 48.5425C194.24 48.3551 193.9 48.2124 193.24 48.4176C191.759 48.8727 190.983 51.7727 191.224 55.556L186.824 55.913C186.289 47.5967 189.787 44.8216 191.92 44.1613C193.758 43.5902 195.533 43.8401 197.041 44.8751C200.584 47.3111 201.476 53.361 201.69 56.7517C201.958 60.892 201.69 69.6188 193.472 70.7253V70.7163Z" fill="var(--sapContent_Illustrative_Color17)"/>
<path d="M201.75 164.641C194.959 127.316 191.634 79.818 191.607 79.3361L193.383 79.1934C193.419 79.6841 196.798 127.267 203.571 164.503L201.75 164.641Z" fill="var(--sapContent_Illustrative_Color9)"/>
<path d="M167.308 167.332C160.116 129.328 158.03 82.4511 158.003 81.9782L159.779 81.8354C159.796 82.3084 161.923 129.311 169.097 167.19L167.308 167.332Z" fill="var(--sapContent_Illustrative_Color9)"/>
<path d="M128.872 112.245L128.748 110.476C129.06 110.449 159.6 107.658 225.301 102.768L225.524 104.544C159.841 109.434 129.184 112.218 128.872 112.245Z" fill="var(--sapContent_Illustrative_Color9)"/>
<path d="M123.007 65.4075C122.98 64.4705 122.855 62.9446 124.381 63.2837C125.791 63.596 126.755 63.7834 126.915 66.9959C126.987 68.4058 130.012 63.7388 130.012 63.7388L131.279 60.3032L128.352 60.4995L126.183 60.8922L123.703 61.7756L122.552 63.1588V65.7109L123.007 65.4164V65.4075Z" fill="var(--sapContent_Illustrative_Color9)"/>
<path d="M136.4 140.905C147.465 139.959 177.901 137.416 229.031 133.606C228.959 133.026 228.888 132.428 228.816 131.831C180.123 135.462 150.213 137.934 137.935 138.978C137.391 139.665 136.882 140.299 136.4 140.896V140.905Z" fill="var(--sapContent_Illustrative_Color9)"/>
<path d="M126.897 150.301L128.209 158.877L129.476 157.779C129.003 154.879 128.503 151.595 128.013 148.07L126.897 150.292V150.301Z" fill="var(--sapContent_Illustrative_Color17)"/>
<path d="M133.197 152.551C132.724 149.615 132.233 146.322 131.751 142.824L128.013 148.08C128.503 151.605 129.012 154.88 129.476 157.789L133.197 152.56V152.551Z" fill="var(--sapContent_Illustrative_Color22)"/>
<path d="M96.7907 182.54C98.8609 180.577 101.101 178.792 103.403 177.097C105.669 175.437 107.677 173.706 109.372 171.44C112.799 166.853 114.78 161.401 117.483 156.404C120.232 151.318 124.372 147.329 128.78 143.582C130.948 141.744 131.091 135.658 133.518 135.89C135.936 135.596 138.399 134.784 140.175 132.722C141.576 131.098 143.574 129.207 143.878 127.065C144.163 125.049 142.691 119.293 142.084 117.366C142.664 117.348 143.244 117.482 143.771 117.732C136.936 114.198 126.665 130.608 126.665 130.608C126.665 130.608 119.982 139.789 118.581 140.048C117.18 140.316 112.361 139.067 115.502 126.164C115.833 124.79 111.835 129.296 111.175 128.047C110.434 126.655 109.765 125.218 109.256 123.728C108.89 122.657 111.585 118.731 111.469 117.598C105.598 120.168 99.6907 120.855 94.8633 124.558C93.3107 125.745 92.2756 127.476 91.883 129.394C89.6522 140.155 78.9803 169.976 77.8203 173.028L67.7372 195.309H87.4304C89.8129 190.544 92.927 186.216 96.7996 182.54H96.7907Z" fill="var(--sapContent_Illustrative_Color15)"/>
<path d="M141.861 133.697C141.915 133.616 141.968 133.545 142.013 133.465C144.502 129.771 146.528 125.782 146.474 122.418C146.474 122.329 146.474 122.239 146.474 122.15C146.474 122.097 146.474 122.034 146.474 121.981C146.564 121.499 146.492 120.972 146.305 120.455C146.251 120.321 146.198 120.178 146.126 120.044C145.653 119.081 144.788 118.197 143.762 117.724C143.226 117.475 142.655 117.341 142.075 117.359C142.682 119.286 144.145 125.041 143.869 127.058C143.565 129.199 141.567 131.091 140.166 132.715C138.39 134.776 135.927 135.588 133.509 135.883C131.082 135.66 130.93 141.736 128.771 143.574C124.363 147.322 120.223 151.311 117.474 156.397C114.771 161.394 112.79 166.846 109.363 171.432C107.668 173.699 105.66 175.43 103.394 177.09C101.092 178.776 98.8519 180.561 96.7817 182.533C92.9091 186.209 89.7949 190.537 87.4125 195.302H97.3171L98.718 190.019C98.718 190.019 99.1552 188.877 109.479 178.758C119.812 168.639 121.115 164.446 125.121 156.361C129.128 148.277 132.947 145.43 135.356 142.174C135.624 141.834 135.927 141.46 136.231 141.067C137.756 139.167 139.702 136.766 141.486 134.187C141.602 134.018 141.718 133.848 141.834 133.679L141.861 133.697Z" fill="var(--sapContent_Illustrative_Color16)"/>
<path d="M140.514 129.11L139.042 128.565C137.694 128.066 136.525 127.173 135.677 126.013L134.758 124.755C134.758 124.755 138.167 114.475 143.914 118.08C150.259 122.069 140.505 129.11 140.505 129.11H140.514Z" fill="var(--sapContent_Illustrative_Color29)"/>
<path d="M136.4 140.906C136.882 140.308 137.391 139.665 137.935 138.987C139.238 138.88 140.755 138.746 142.459 138.603C146.064 132.357 147.322 128.012 146.474 122.158L131.751 142.824C132.233 146.331 132.724 149.614 133.197 152.55C133.197 152.55 135.231 150.177 140.407 141.985C140.728 141.477 141.04 140.977 141.335 140.495C139.398 140.656 137.748 140.798 136.391 140.914L136.4 140.906Z" fill="var(--sapContent_Illustrative_Color2)"/>
<path d="M136.4 140.906C137.757 140.79 139.407 140.647 141.344 140.486C141.745 139.835 142.111 139.21 142.459 138.603C140.755 138.746 139.238 138.871 137.935 138.987C137.391 139.674 136.882 140.308 136.4 140.906Z" fill="var(--sapContent_Illustrative_Color22)"/>
<path d="M96.7907 182.54C98.8609 180.577 101.101 178.792 103.403 177.097C105.669 175.437 107.677 173.706 109.372 171.44C112.799 166.853 114.78 161.401 117.483 156.404C120.232 151.318 124.372 147.329 128.78 143.582C130.948 141.744 131.091 135.658 133.518 135.89C135.936 135.596 138.399 134.784 140.175 132.722C141.576 131.098 143.574 129.207 143.878 127.065C144.163 125.049 142.691 119.293 142.084 117.366C142.664 117.348 143.244 117.482 143.771 117.732C136.936 114.198 126.665 130.608 126.665 130.608C126.665 130.608 119.982 139.789 118.581 140.048C117.18 140.316 112.361 139.067 115.502 126.164C115.833 124.79 111.835 129.296 111.175 128.047C110.434 126.655 109.765 125.218 109.256 123.728C108.89 122.657 111.585 118.731 111.469 117.598C105.598 120.168 99.6907 120.855 94.8633 124.558C93.3107 125.745 92.2756 127.476 91.883 129.394C89.6522 140.155 78.9803 169.976 77.8203 173.028L67.7372 195.309H87.4304C89.8129 190.544 92.927 186.216 96.7996 182.54H96.7907Z" fill="var(--sapContent_Illustrative_Color15)"/>
<path d="M141.861 133.697C141.915 133.616 141.968 133.545 142.013 133.465C144.502 129.771 146.528 125.782 146.474 122.418C146.474 122.329 146.474 122.239 146.474 122.15C146.474 122.097 146.474 122.034 146.474 121.981C146.564 121.499 146.492 120.972 146.305 120.455C146.251 120.321 146.198 120.178 146.126 120.044C145.653 119.081 144.788 118.197 143.762 117.724C143.226 117.475 142.655 117.341 142.075 117.359C142.682 119.286 144.145 125.041 143.869 127.058C143.565 129.199 141.567 131.091 140.166 132.715C138.39 134.776 135.927 135.588 133.509 135.883C131.082 135.66 130.93 141.736 128.771 143.574C124.363 147.322 120.223 151.311 117.474 156.397C114.771 161.394 112.79 166.846 109.363 171.432C107.668 173.699 105.66 175.43 103.394 177.09C101.092 178.776 98.8519 180.561 96.7817 182.533C92.9091 186.209 89.7949 190.537 87.4125 195.302H97.3171L98.718 190.019C98.718 190.019 99.1552 188.877 109.479 178.758C119.812 168.639 121.115 164.446 125.121 156.361C129.128 148.277 132.947 145.43 135.356 142.174C135.624 141.834 135.927 141.46 136.231 141.067C137.756 139.167 139.702 136.766 141.486 134.187C141.602 134.018 141.718 133.848 141.834 133.679L141.861 133.697Z" fill="var(--sapContent_Illustrative_Color16)"/>
<path d="M140.514 129.11L139.042 128.565C137.694 128.066 136.525 127.173 135.677 126.013L134.758 124.755C134.758 124.755 138.167 114.475 143.914 118.08C150.259 122.069 140.505 129.11 140.505 129.11H140.514Z" fill="var(--sapContent_Illustrative_Color24)"/>
</svg>