<svg width="320" height="201" viewBox="0 0 320 201" fill="none" xmlns="http://www.w3.org/2000/svg" id="sapIllus-Scene-EmptyCalendar">
<path d="M305.551 0.019043H181.097V16.3839C181.095 18.1583 180.39 19.8592 179.138 21.1134C177.886 22.3677 176.189 23.0728 174.419 23.074H129.83C128.06 23.0715 126.364 22.3658 125.113 21.1117C123.862 19.8576 123.158 18.1575 123.156 16.3839V0.019043H39.3729V57.0058C39.3705 58.7794 38.6664 60.4796 37.4153 61.7337C36.1642 62.9878 34.4681 63.6934 32.6988 63.6959H0.019165V186.024C0.019165 189.865 1.54141 193.549 4.25113 196.265C6.96084 198.981 10.6359 200.507 14.4681 200.507H305.551C307.448 200.507 309.327 200.133 311.08 199.405C312.833 198.677 314.426 197.61 315.768 196.265C317.11 194.92 318.174 193.324 318.9 191.566C319.626 189.809 320 187.926 320 186.024V14.5215C320.002 12.6179 319.63 10.7325 318.905 8.97307C318.18 7.21367 317.116 5.61484 315.774 4.26792C314.432 2.921 312.839 1.85241 311.085 1.12336C309.33 0.394315 307.45 0.0190414 305.551 0.019043V0.019043ZM212.724 59.8958L207.55 64.1014H211.209C211.579 64.1014 211.935 64.2471 212.199 64.5073C212.462 64.7675 212.614 65.1212 212.62 65.4922C212.614 65.8633 212.462 66.217 212.199 66.4772C211.935 66.7374 211.579 66.8831 211.209 66.8831H203.632C203.344 66.8784 203.064 66.7856 202.83 66.6171C202.597 66.4485 202.42 66.2122 202.324 65.9401C202.232 65.6683 202.224 65.3748 202.302 65.0986C202.381 64.8224 202.541 64.5765 202.762 64.3937L207.935 60.1929H203.618C203.252 60.1869 202.902 60.0384 202.643 59.7789C202.384 59.5194 202.236 59.1691 202.23 58.8021C202.23 58.431 202.375 58.0747 202.635 57.8101C202.895 57.5455 203.248 57.3939 203.618 57.3877H211.853C212.141 57.3924 212.421 57.4851 212.655 57.6537C212.888 57.8223 213.065 58.0585 213.161 58.3306C213.259 58.6062 213.27 58.9057 213.192 59.1877C213.114 59.4698 212.95 59.7205 212.724 59.9053V59.8958ZM231.335 43.7245L222.483 52.2392H229.468C229.837 52.2466 230.189 52.3989 230.447 52.6633C230.706 52.9278 230.851 53.2833 230.851 53.6536C230.845 54.0197 230.697 54.3693 230.439 54.6287C230.181 54.8881 229.833 55.0372 229.468 55.0445H219.04C218.764 55.042 218.495 54.9585 218.266 54.8043C218.037 54.6501 217.858 54.432 217.751 54.1769C217.647 53.9197 217.622 53.6371 217.68 53.3656C217.738 53.0941 217.876 52.8462 218.076 52.6541L226.928 44.1346H219.04C218.67 44.1284 218.317 43.9767 218.058 43.7122C217.798 43.4476 217.653 43.0913 217.653 42.7202C217.659 42.3532 217.807 42.0029 218.066 41.7434C218.325 41.4839 218.674 41.3354 219.04 41.3294H230.371C230.649 41.3282 230.921 41.4114 231.151 41.5679C231.381 41.7244 231.558 41.9469 231.66 42.2064C231.766 42.4641 231.791 42.7479 231.733 43.0205C231.676 43.2931 231.537 43.5418 231.335 43.7339V43.7245ZM298.289 81.5647C298.288 81.6987 298.26 81.831 298.207 81.9541C298.155 82.0773 298.078 82.1887 297.983 82.2821C297.887 82.3754 297.774 82.4489 297.649 82.4981C297.525 82.5474 297.392 82.5714 297.259 82.5689H295.42V84.5302C295.42 84.6651 295.393 84.7988 295.341 84.9233C295.289 85.0478 295.213 85.1606 295.117 85.2553C295.021 85.3501 294.908 85.4249 294.783 85.4752C294.658 85.5255 294.524 85.5505 294.39 85.5486L250.647 85.1526C250.378 85.1501 250.121 85.0412 249.932 84.8496C249.742 84.658 249.636 84.3992 249.636 84.1295V21.6455C249.637 21.5083 249.665 21.3726 249.719 21.2465C249.773 21.1204 249.851 21.0064 249.95 20.9114C250.049 20.8164 250.166 20.7423 250.294 20.6934C250.421 20.6446 250.558 20.6221 250.695 20.6271L252.505 20.6931V19.7501C252.507 19.6142 252.536 19.48 252.591 19.3554C252.645 19.2309 252.724 19.1187 252.823 19.0254C252.922 18.9322 253.038 18.8598 253.165 18.8126C253.293 18.7654 253.428 18.7443 253.564 18.7507L297.306 20.3442C297.568 20.3503 297.817 20.4587 298.001 20.6462C298.184 20.8338 298.288 21.0858 298.289 21.3485V81.5647Z" fill="var(--sapContent_Illustrative_Color7)"/>
<path d="M108.386 90.9513H108.245L107.925 81.7435H104.431C104.265 81.7434 104.101 81.7767 103.949 81.8414C103.797 81.9061 103.659 82.001 103.544 82.1202C103.429 82.2394 103.339 82.3806 103.28 82.5354C103.221 82.6902 103.193 82.8554 103.199 83.0211L105.983 162.869C105.994 163.189 106.128 163.492 106.357 163.714C106.586 163.936 106.892 164.061 107.211 164.062H209.958C210.123 164.062 210.286 164.028 210.438 163.963C210.589 163.898 210.727 163.803 210.841 163.684C210.956 163.565 211.045 163.424 211.104 163.269C211.163 163.115 211.191 162.95 211.185 162.785L211.044 158.678H111.933C111.613 158.678 111.306 158.554 111.076 158.331C110.846 158.109 110.711 157.806 110.7 157.485L108.386 90.9513Z" fill="var(--sapContent_Illustrative_Color20)"/>
<path d="M213.593 90.9514H108.386L110.7 157.485C110.711 157.806 110.846 158.109 111.076 158.332C111.306 158.554 111.613 158.678 111.933 158.678H214.675C214.84 158.678 215.004 158.645 215.157 158.58C215.309 158.516 215.447 158.421 215.562 158.302C215.677 158.182 215.766 158.041 215.826 157.886C215.885 157.731 215.913 157.566 215.907 157.4L213.593 90.9514ZM121.18 98.6411C121.181 98.1963 121.358 97.7701 121.672 97.4556C121.985 97.1411 122.41 96.9639 122.854 96.9626H153.789C154.233 96.9626 154.66 97.1393 154.974 97.4539C155.289 97.7685 155.467 98.1955 155.468 98.6411V98.6411C155.468 98.8619 155.425 99.0805 155.34 99.2844C155.256 99.4884 155.132 99.6736 154.976 99.8296C154.82 99.9855 154.635 100.109 154.431 100.193C154.227 100.277 154.009 100.32 153.789 100.32H122.849C122.405 100.32 121.98 100.143 121.666 99.8279C121.352 99.5132 121.175 99.0862 121.175 98.6411H121.18ZM127.765 144.204L123.508 107.495L188.829 109.73L189.079 141.182L127.765 144.204Z" fill="var(--sapContent_Illustrative_Color2)"/>
<path d="M108.386 90.9514H213.824L213.353 77.3447C213.342 77.0253 213.208 76.7227 212.979 76.5003C212.75 76.2778 212.444 76.153 212.126 76.1519H190.49L190.664 81.1259C191 81.3844 191.276 81.714 191.471 82.0913C191.666 82.4685 191.776 82.8842 191.793 83.3088C191.812 83.6634 191.759 84.0183 191.637 84.3518C191.516 84.6853 191.328 84.9907 191.085 85.2494C190.842 85.5081 190.55 85.7148 190.225 85.8569C189.901 85.9991 189.551 86.0736 189.196 86.0763C188.465 86.0667 187.766 85.7728 187.246 85.2565C186.727 84.7402 186.428 84.0419 186.412 83.3088C186.396 82.9031 186.472 82.4989 186.635 82.1272C186.798 81.7554 187.043 81.4259 187.353 81.1636L187.179 76.1519H132.068L132.242 81.1447C132.574 81.4032 132.845 81.7312 133.037 82.1059C133.229 82.4805 133.336 82.8928 133.352 83.3136C133.373 83.6681 133.321 84.023 133.2 84.3569C133.079 84.6907 132.892 84.9963 132.65 85.2553C132.407 85.5142 132.114 85.7209 131.79 85.8629C131.465 86.0049 131.115 86.0791 130.761 86.081C130.03 86.0668 129.333 85.7716 128.814 85.2564C128.295 84.7412 127.993 84.0456 127.972 83.3136C127.954 82.9056 128.029 82.4989 128.192 82.1246C128.355 81.7504 128.602 81.4184 128.912 81.1542L128.738 76.1519H108.984C108.818 76.1518 108.655 76.1851 108.503 76.2499C108.351 76.3147 108.213 76.4095 108.099 76.5288C107.984 76.6481 107.894 76.7894 107.836 76.9442C107.777 77.099 107.75 77.2641 107.756 77.4296L107.907 81.7435L108.269 90.9514H108.386Z" fill="var(--sapContent_Illustrative_Color3)"/>
<path d="M130.747 84.4781H130.652C130.22 84.4748 129.806 84.3051 129.495 84.0041C129.184 83.703 129.001 83.2938 128.983 82.861L128.922 81.1495C128.611 81.4137 128.365 81.7456 128.202 82.1199C128.039 82.4942 127.963 82.9008 127.981 83.3088C128.003 84.0408 128.304 84.7365 128.823 85.2517C129.343 85.7669 130.04 86.0621 130.77 86.0763C131.124 86.0743 131.474 86.0001 131.799 85.8582C132.124 85.7162 132.416 85.5095 132.659 85.2505C132.901 84.9916 133.089 84.686 133.209 84.3521C133.33 84.0183 133.382 83.6633 133.362 83.3088C133.346 82.888 133.238 82.4758 133.046 82.1011C132.855 81.7265 132.583 81.3984 132.252 81.14L132.313 82.861C132.322 83.0717 132.288 83.2821 132.213 83.4793C132.138 83.6764 132.024 83.8561 131.877 84.0075C131.73 84.1589 131.555 84.2787 131.36 84.3596C131.166 84.4405 130.957 84.4808 130.747 84.4781V84.4781Z" fill="var(--sapContent_Illustrative_Color4)"/>
<path d="M189.168 84.3885H189.074C188.642 84.3864 188.226 84.217 187.915 83.9158C187.604 83.6145 187.421 83.2045 187.404 82.7713L187.348 81.1589C187.039 81.4211 186.793 81.7507 186.63 82.1224C186.467 82.4942 186.391 82.8983 186.407 83.3041C186.423 84.0372 186.722 84.7355 187.242 85.2518C187.761 85.7681 188.46 86.062 189.192 86.0716C189.546 86.0689 189.896 85.9943 190.221 85.8522C190.545 85.71 190.838 85.5033 191.081 85.2446C191.323 84.9859 191.511 84.6806 191.633 84.3471C191.754 84.0135 191.807 83.6587 191.788 83.3041C191.771 82.8795 191.662 82.4638 191.466 82.0865C191.271 81.7092 190.996 81.3796 190.659 81.1211L190.716 82.7713C190.725 82.9806 190.692 83.1897 190.619 83.3859C190.545 83.5821 190.433 83.7613 190.288 83.9125C190.143 84.0638 189.969 84.184 189.777 84.2658C189.584 84.3476 189.377 84.3894 189.168 84.3885V84.3885Z" fill="var(--sapContent_Illustrative_Color4)"/>
<path d="M128.964 82.861C128.982 83.2938 129.165 83.7031 129.476 84.0041C129.787 84.3051 130.201 84.4749 130.634 84.4781H130.728C130.937 84.4796 131.145 84.4383 131.338 84.3568C131.532 84.2753 131.706 84.1553 131.852 84.0041C131.998 83.8529 132.111 83.6735 132.185 83.477C132.26 83.2805 132.293 83.071 132.285 82.861L132.223 81.1401L132.049 76.1473L131.875 71.0837C131.856 70.6512 131.672 70.2425 131.362 69.9417C131.051 69.6409 130.637 69.4708 130.206 69.4664H130.111C129.902 69.465 129.694 69.5063 129.501 69.5878C129.308 69.6692 129.133 69.7892 128.987 69.9404C128.842 70.0917 128.728 70.271 128.654 70.4675C128.579 70.664 128.546 70.8737 128.555 71.0837L128.729 76.1473L128.903 81.1495L128.964 82.861Z" fill="var(--sapContent_Illustrative_Color6)"/>
<path d="M187.395 82.7713C187.412 83.2045 187.595 83.6145 187.906 83.9158C188.217 84.2171 188.632 84.3864 189.065 84.3885H189.159C189.369 84.3907 189.577 84.3498 189.77 84.2686C189.964 84.1873 190.139 84.0674 190.285 83.916C190.43 83.7646 190.544 83.5851 190.618 83.3883C190.692 83.1915 190.725 82.9814 190.716 82.7713L190.659 81.1212L190.485 76.1472L190.306 70.9987C190.287 70.5662 190.103 70.1576 189.793 69.8568C189.482 69.5561 189.069 69.386 188.637 69.3816H188.543C188.333 69.3801 188.125 69.4214 187.932 69.5029C187.739 69.5844 187.564 69.7043 187.418 69.8556C187.273 70.0068 187.159 70.1861 187.085 70.3826C187.011 70.5792 186.977 70.7887 186.986 70.9987L187.165 76.1472L187.339 81.1589L187.395 82.7713Z" fill="var(--sapContent_Illustrative_Color6)"/>
<path d="M120.648 106.26L122.182 150.248C122.193 150.568 122.327 150.87 122.556 151.093C122.785 151.315 123.09 151.44 123.409 151.441H202.131C202.296 151.441 202.459 151.407 202.611 151.342C202.763 151.277 202.9 151.182 203.015 151.063C203.129 150.944 203.219 150.802 203.278 150.648C203.337 150.493 203.364 150.329 203.359 150.163L201.825 106.17C201.814 105.851 201.68 105.549 201.451 105.328C201.222 105.106 200.916 104.982 200.598 104.982H121.876C121.711 104.983 121.548 105.017 121.396 105.082C121.244 105.147 121.107 105.241 120.992 105.361C120.878 105.48 120.788 105.621 120.729 105.775C120.67 105.93 120.643 106.095 120.648 106.26V106.26ZM127.83 113.492C127.823 113.317 127.851 113.142 127.913 112.978C127.975 112.814 128.069 112.664 128.19 112.537C128.312 112.41 128.458 112.31 128.619 112.242C128.78 112.173 128.954 112.138 129.129 112.139H131.786C132.15 112.139 132.5 112.279 132.763 112.532C133.026 112.784 133.181 113.128 133.197 113.492L133.263 115.477C133.27 115.653 133.241 115.828 133.179 115.992C133.117 116.156 133.022 116.306 132.9 116.433C132.778 116.559 132.632 116.66 132.471 116.728C132.309 116.796 132.136 116.831 131.96 116.83H129.321C128.958 116.831 128.608 116.69 128.345 116.438C128.082 116.186 127.926 115.842 127.91 115.477L127.83 113.492ZM128.245 122.766C128.238 122.591 128.266 122.415 128.328 122.251C128.391 122.087 128.486 121.937 128.607 121.811C128.729 121.684 128.875 121.584 129.037 121.515C129.198 121.447 129.372 121.412 129.547 121.413H132.186C132.55 121.413 132.9 121.553 133.163 121.805C133.426 122.058 133.581 122.402 133.597 122.766L133.668 124.751C133.675 124.927 133.646 125.102 133.584 125.266C133.521 125.43 133.426 125.58 133.304 125.707C133.183 125.833 133.037 125.933 132.875 126.002C132.714 126.07 132.54 126.105 132.365 126.104H129.726C129.362 126.105 129.012 125.964 128.749 125.712C128.486 125.46 128.331 125.115 128.315 124.751L128.245 122.766ZM128.677 131.724C128.67 131.549 128.699 131.375 128.761 131.211C128.823 131.047 128.918 130.898 129.039 130.772C129.16 130.646 129.306 130.546 129.467 130.478C129.628 130.41 129.801 130.375 129.975 130.376H132.619C132.982 130.375 133.331 130.515 133.594 130.766C133.857 131.018 134.013 131.361 134.03 131.724L134.096 133.714C134.103 133.889 134.074 134.063 134.012 134.227C133.95 134.391 133.855 134.54 133.734 134.666C133.613 134.792 133.467 134.892 133.306 134.96C133.145 135.028 132.972 135.063 132.797 135.062H130.154C129.791 135.063 129.442 134.923 129.179 134.671C128.916 134.42 128.76 134.077 128.743 133.714L128.677 131.724ZM130.559 144.03C130.195 144.03 129.845 143.889 129.582 143.637C129.319 143.385 129.163 143.041 129.148 142.676L129.077 140.691C129.07 140.516 129.099 140.341 129.161 140.177C129.223 140.012 129.318 139.862 129.44 139.736C129.562 139.609 129.708 139.509 129.869 139.441C130.031 139.372 130.204 139.338 130.38 139.338H133.019C133.382 139.338 133.732 139.479 133.995 139.731C134.258 139.983 134.414 140.327 134.43 140.691L134.5 142.676C134.506 142.852 134.477 143.027 134.415 143.191C134.352 143.355 134.257 143.504 134.136 143.63C134.014 143.757 133.868 143.857 133.707 143.926C133.546 143.994 133.372 144.03 133.197 144.03H130.559ZM138.258 113.53C138.251 113.354 138.28 113.179 138.342 113.015C138.404 112.851 138.499 112.701 138.621 112.575C138.743 112.448 138.889 112.348 139.051 112.279C139.212 112.211 139.386 112.176 139.561 112.177H142.2C142.564 112.177 142.914 112.317 143.176 112.569C143.439 112.821 143.595 113.166 143.611 113.53L143.676 115.515C143.683 115.69 143.655 115.864 143.593 116.028C143.531 116.192 143.436 116.341 143.315 116.467C143.194 116.593 143.048 116.693 142.887 116.761C142.726 116.829 142.553 116.864 142.378 116.863H139.735C139.372 116.864 139.023 116.724 138.76 116.473C138.497 116.222 138.341 115.879 138.324 115.515L138.258 113.53ZM138.672 122.804C138.665 122.628 138.694 122.453 138.756 122.289C138.818 122.125 138.913 121.975 139.035 121.848C139.157 121.722 139.303 121.622 139.464 121.553C139.626 121.485 139.8 121.45 139.975 121.451H142.604C142.968 121.45 143.318 121.591 143.581 121.843C143.844 122.095 143.999 122.44 144.015 122.804L144.086 124.789C144.093 124.964 144.064 125.14 144.002 125.304C143.939 125.468 143.844 125.618 143.723 125.744C143.601 125.871 143.455 125.971 143.293 126.04C143.132 126.108 142.958 126.143 142.783 126.142H140.144C139.78 126.142 139.43 126.002 139.167 125.75C138.905 125.497 138.749 125.153 138.733 124.789L138.672 122.804ZM139.105 131.762C139.098 131.586 139.126 131.411 139.189 131.247C139.251 131.083 139.346 130.933 139.468 130.806C139.59 130.68 139.736 130.579 139.897 130.511C140.059 130.443 140.232 130.408 140.408 130.409H143.046C143.41 130.408 143.76 130.549 144.023 130.801C144.286 131.053 144.441 131.397 144.457 131.762L144.528 133.747C144.535 133.922 144.506 134.097 144.444 134.262C144.382 134.426 144.286 134.576 144.165 134.702C144.043 134.829 143.897 134.929 143.735 134.997C143.574 135.066 143.4 135.101 143.225 135.1H140.582C140.218 135.1 139.868 134.96 139.605 134.708C139.342 134.455 139.186 134.111 139.171 133.747L139.105 131.762ZM140.986 144.067C140.622 144.068 140.272 143.927 140.009 143.675C139.746 143.423 139.591 143.079 139.575 142.714L139.505 140.729C139.498 140.554 139.526 140.378 139.588 140.214C139.651 140.05 139.746 139.9 139.868 139.774C139.989 139.647 140.135 139.547 140.297 139.479C140.458 139.41 140.632 139.375 140.807 139.376H143.446C143.81 139.376 144.16 139.516 144.423 139.768C144.686 140.021 144.841 140.365 144.857 140.729L144.928 142.714C144.935 142.89 144.906 143.065 144.844 143.229C144.781 143.393 144.686 143.543 144.565 143.67C144.443 143.796 144.297 143.897 144.135 143.965C143.974 144.033 143.8 144.068 143.625 144.067H140.986ZM148.808 113.591C148.801 113.416 148.83 113.241 148.892 113.076C148.954 112.912 149.049 112.762 149.171 112.636C149.293 112.509 149.439 112.409 149.6 112.341C149.762 112.272 149.936 112.237 150.111 112.238H152.749C153.113 112.238 153.463 112.378 153.726 112.631C153.989 112.883 154.145 113.227 154.16 113.591L154.231 115.576C154.238 115.752 154.21 115.927 154.147 116.091C154.085 116.255 153.99 116.405 153.868 116.532C153.746 116.658 153.6 116.759 153.439 116.827C153.277 116.895 153.104 116.93 152.928 116.929H150.29C149.926 116.93 149.576 116.789 149.313 116.537C149.05 116.285 148.894 115.941 148.878 115.576L148.808 113.591ZM149.227 122.865C149.22 122.69 149.248 122.514 149.31 122.35C149.373 122.186 149.468 122.036 149.59 121.91C149.711 121.783 149.857 121.683 150.019 121.614C150.18 121.546 150.354 121.511 150.53 121.512H153.168C153.532 121.512 153.882 121.652 154.145 121.904C154.408 122.157 154.563 122.501 154.579 122.865L154.645 124.85C154.653 125.025 154.625 125.201 154.563 125.365C154.501 125.529 154.407 125.679 154.285 125.805C154.164 125.932 154.018 126.032 153.857 126.101C153.695 126.169 153.522 126.204 153.347 126.203H150.704C150.34 126.204 149.99 126.063 149.727 125.811C149.464 125.559 149.308 125.214 149.293 124.85L149.227 122.865ZM149.655 131.823C149.649 131.648 149.678 131.474 149.741 131.31C149.804 131.147 149.899 130.998 150.021 130.872C150.142 130.746 150.288 130.646 150.449 130.578C150.61 130.51 150.783 130.475 150.957 130.475H153.601C153.964 130.474 154.313 130.614 154.576 130.865C154.839 131.117 154.995 131.46 155.012 131.823L155.082 133.808C155.089 133.984 155.061 134.159 154.998 134.323C154.936 134.487 154.841 134.637 154.719 134.764C154.598 134.89 154.451 134.99 154.29 135.059C154.128 135.127 153.955 135.162 153.779 135.161H151.141C150.777 135.161 150.427 135.021 150.164 134.769C149.901 134.517 149.746 134.172 149.73 133.808L149.655 131.823ZM151.536 144.129C151.172 144.129 150.822 143.988 150.559 143.736C150.296 143.484 150.141 143.14 150.125 142.775L150.059 140.79C150.052 140.615 150.08 140.44 150.141 140.276C150.203 140.112 150.298 139.962 150.419 139.835C150.54 139.709 150.686 139.608 150.847 139.54C151.009 139.471 151.182 139.437 151.357 139.437H154.001C154.364 139.437 154.714 139.578 154.977 139.83C155.24 140.082 155.396 140.426 155.412 140.79L155.478 142.775C155.485 142.951 155.456 143.126 155.393 143.29C155.331 143.455 155.236 143.605 155.114 143.731C154.993 143.857 154.847 143.958 154.685 144.026C154.524 144.094 154.35 144.129 154.175 144.129H151.536ZM159.235 113.624C159.229 113.449 159.257 113.275 159.319 113.111C159.381 112.947 159.476 112.798 159.597 112.672C159.719 112.546 159.864 112.446 160.025 112.378C160.186 112.31 160.359 112.275 160.534 112.276H163.177C163.54 112.276 163.889 112.415 164.152 112.667C164.415 112.918 164.571 113.261 164.588 113.624L164.654 115.614C164.661 115.789 164.632 115.964 164.57 116.128C164.507 116.292 164.412 116.442 164.291 116.568C164.169 116.694 164.023 116.794 163.861 116.862C163.7 116.93 163.526 116.964 163.351 116.962H160.712C160.349 116.963 160 116.823 159.737 116.572C159.474 116.321 159.318 115.978 159.301 115.614L159.235 113.624ZM159.65 122.903C159.643 122.727 159.671 122.552 159.733 122.388C159.796 122.224 159.891 122.074 160.012 121.947C160.134 121.821 160.28 121.721 160.442 121.652C160.603 121.584 160.777 121.549 160.952 121.55H163.591C163.955 121.549 164.305 121.69 164.568 121.942C164.831 122.194 164.986 122.539 165.002 122.903L165.073 124.888C165.08 125.063 165.051 125.239 164.989 125.403C164.926 125.567 164.831 125.717 164.709 125.843C164.588 125.97 164.442 126.07 164.28 126.139C164.119 126.207 163.945 126.242 163.77 126.241H161.131C160.767 126.241 160.417 126.101 160.154 125.849C159.891 125.596 159.736 125.252 159.72 124.888L159.65 122.903ZM160.082 131.861C160.075 131.685 160.104 131.51 160.166 131.346C160.228 131.182 160.324 131.032 160.445 130.905C160.567 130.779 160.713 130.678 160.875 130.61C161.036 130.542 161.21 130.507 161.385 130.508H164.024C164.388 130.507 164.738 130.648 165 130.9C165.263 131.152 165.419 131.496 165.435 131.861L165.501 133.846C165.508 134.021 165.48 134.196 165.418 134.36C165.357 134.525 165.262 134.674 165.141 134.801C165.019 134.928 164.873 135.028 164.712 135.096C164.551 135.165 164.377 135.2 164.202 135.199H161.559C161.195 135.199 160.845 135.059 160.582 134.807C160.319 134.554 160.164 134.21 160.148 133.846L160.082 131.861ZM161.964 144.162C161.601 144.162 161.251 144.022 160.988 143.771C160.726 143.52 160.57 143.177 160.553 142.813L160.482 140.828C160.475 140.653 160.504 140.477 160.566 140.313C160.628 140.149 160.723 139.999 160.845 139.873C160.967 139.746 161.113 139.646 161.274 139.578C161.436 139.509 161.609 139.474 161.785 139.475H164.424C164.787 139.475 165.137 139.615 165.4 139.867C165.663 140.12 165.819 140.464 165.835 140.828L165.9 142.813C165.907 142.988 165.879 143.163 165.817 143.326C165.754 143.49 165.66 143.639 165.539 143.765C165.417 143.891 165.272 143.991 165.111 144.059C164.95 144.128 164.777 144.162 164.602 144.162H161.964ZM169.889 113.756C169.882 113.581 169.91 113.406 169.973 113.241C170.035 113.077 170.13 112.927 170.252 112.801C170.374 112.674 170.52 112.574 170.681 112.506C170.843 112.437 171.016 112.402 171.192 112.403H173.83C174.194 112.403 174.544 112.543 174.807 112.796C175.07 113.048 175.226 113.392 175.241 113.756L175.307 115.741C175.315 115.917 175.287 116.092 175.225 116.256C175.163 116.42 175.069 116.57 174.947 116.697C174.826 116.823 174.68 116.924 174.519 116.992C174.358 117.06 174.184 117.095 174.009 117.094H171.295C170.931 117.095 170.581 116.954 170.318 116.702C170.056 116.45 169.9 116.106 169.884 115.741L169.889 113.756ZM170.303 123.03C170.297 122.855 170.326 122.68 170.388 122.517C170.451 122.353 170.546 122.204 170.668 122.078C170.789 121.952 170.935 121.852 171.096 121.784C171.258 121.716 171.431 121.681 171.606 121.682H174.244C174.607 121.681 174.957 121.821 175.219 122.072C175.482 122.324 175.638 122.667 175.655 123.03L175.726 125.02C175.732 125.195 175.703 125.37 175.64 125.533C175.578 125.697 175.483 125.846 175.361 125.972C175.239 126.098 175.094 126.198 174.932 126.266C174.771 126.334 174.598 126.369 174.423 126.368H171.784C171.421 126.369 171.072 126.229 170.809 125.978C170.546 125.726 170.39 125.383 170.373 125.02L170.303 123.03ZM170.736 131.988C170.729 131.813 170.757 131.637 170.82 131.473C170.882 131.309 170.977 131.159 171.099 131.033C171.22 130.906 171.366 130.806 171.528 130.737C171.689 130.669 171.863 130.634 172.038 130.635H174.677C175.041 130.635 175.391 130.775 175.654 131.027C175.917 131.28 176.072 131.624 176.088 131.988L176.154 133.973C176.162 134.148 176.134 134.323 176.072 134.488C176.01 134.652 175.915 134.802 175.794 134.928C175.673 135.055 175.527 135.155 175.366 135.224C175.204 135.292 175.031 135.327 174.856 135.326H172.212C171.849 135.327 171.499 135.186 171.236 134.934C170.973 134.682 170.817 134.337 170.801 133.973L170.736 131.988ZM172.617 144.289C172.253 144.289 171.903 144.149 171.64 143.896C171.377 143.644 171.222 143.3 171.206 142.936L171.135 140.951C171.128 140.775 171.157 140.601 171.219 140.437C171.282 140.273 171.377 140.123 171.499 139.997C171.621 139.871 171.766 139.771 171.928 139.703C172.089 139.635 172.263 139.601 172.438 139.602H175.058C175.421 139.602 175.77 139.742 176.033 139.993C176.296 140.244 176.452 140.587 176.469 140.951L176.54 142.936C176.547 143.111 176.518 143.286 176.456 143.451C176.393 143.615 176.298 143.765 176.176 143.891C176.055 144.018 175.909 144.118 175.747 144.186C175.586 144.255 175.412 144.29 175.237 144.289H172.617ZM180.312 113.789C180.305 113.614 180.333 113.439 180.396 113.274C180.458 113.11 180.553 112.96 180.675 112.834C180.797 112.707 180.943 112.607 181.104 112.539C181.266 112.47 181.439 112.435 181.615 112.436H184.253C184.617 112.436 184.967 112.577 185.23 112.829C185.493 113.081 185.648 113.425 185.664 113.789L185.735 115.774C185.742 115.95 185.713 116.125 185.651 116.289C185.588 116.454 185.494 116.603 185.372 116.73C185.25 116.856 185.104 116.957 184.942 117.025C184.781 117.093 184.607 117.128 184.432 117.127H181.789C181.425 117.128 181.075 116.987 180.812 116.735C180.549 116.483 180.393 116.139 180.378 115.774L180.312 113.789ZM180.726 123.063C180.719 122.888 180.747 122.713 180.81 122.549C180.872 122.385 180.967 122.235 181.089 122.109C181.211 121.983 181.357 121.883 181.518 121.815C181.68 121.748 181.853 121.713 182.028 121.715H184.667C185.03 121.714 185.38 121.854 185.642 122.105C185.905 122.357 186.061 122.7 186.078 123.063L186.149 125.048C186.156 125.224 186.127 125.399 186.065 125.563C186.002 125.727 185.907 125.877 185.786 126.004C185.664 126.13 185.518 126.231 185.356 126.299C185.195 126.367 185.021 126.402 184.846 126.401H182.207C181.843 126.402 181.494 126.261 181.231 126.009C180.968 125.757 180.812 125.413 180.796 125.048L180.726 123.063ZM182.607 135.321C182.244 135.322 181.895 135.182 181.632 134.931C181.369 134.68 181.213 134.337 181.196 133.973L181.125 131.983C181.119 131.808 181.148 131.634 181.211 131.47C181.274 131.306 181.369 131.157 181.49 131.031C181.612 130.905 181.758 130.805 181.919 130.737C182.08 130.669 182.253 130.634 182.428 130.635H185.067C185.43 130.635 185.779 130.775 186.042 131.026C186.305 131.277 186.461 131.62 186.478 131.983L186.549 133.973C186.555 134.148 186.526 134.323 186.463 134.487C186.4 134.65 186.305 134.8 186.184 134.926C186.062 135.051 185.916 135.151 185.755 135.22C185.594 135.288 185.421 135.322 185.246 135.321H182.607ZM189.916 113.752C189.91 113.576 189.939 113.402 190.002 113.238C190.064 113.074 190.159 112.925 190.281 112.799C190.403 112.673 190.548 112.573 190.71 112.505C190.871 112.437 191.044 112.402 191.219 112.403H193.858C194.221 112.403 194.57 112.543 194.833 112.794C195.096 113.045 195.252 113.388 195.269 113.752L195.339 115.741C195.346 115.916 195.317 116.091 195.254 116.255C195.191 116.418 195.096 116.568 194.974 116.694C194.853 116.82 194.707 116.92 194.546 116.988C194.385 117.056 194.211 117.09 194.036 117.09H191.398C191.035 117.09 190.685 116.95 190.423 116.699C190.16 116.448 190.004 116.105 189.987 115.741L189.916 113.752ZM190.335 123.03C190.328 122.855 190.356 122.679 190.419 122.515C190.481 122.351 190.576 122.201 190.698 122.075C190.82 121.948 190.966 121.848 191.127 121.779C191.289 121.711 191.462 121.676 191.638 121.677H194.276C194.64 121.677 194.99 121.817 195.253 122.069C195.516 122.322 195.672 122.666 195.687 123.03L195.753 125.015C195.761 125.19 195.733 125.366 195.671 125.53C195.609 125.694 195.515 125.844 195.393 125.97C195.272 126.097 195.126 126.197 194.965 126.266C194.803 126.334 194.63 126.369 194.455 126.368H191.812C191.448 126.369 191.098 126.228 190.835 125.976C190.572 125.724 190.416 125.379 190.401 125.015L190.335 123.03ZM192.216 135.288C191.852 135.289 191.502 135.148 191.239 134.896C190.977 134.644 190.821 134.3 190.805 133.935L190.735 131.95C190.728 131.775 190.756 131.6 190.818 131.435C190.881 131.271 190.976 131.121 191.098 130.995C191.219 130.868 191.365 130.768 191.527 130.7C191.689 130.631 191.862 130.597 192.038 130.597H194.676C195.04 130.597 195.39 130.737 195.653 130.99C195.916 131.242 196.071 131.586 196.087 131.95L196.158 133.935C196.165 134.111 196.136 134.286 196.074 134.45C196.011 134.615 195.916 134.764 195.795 134.891C195.673 135.017 195.527 135.118 195.365 135.186C195.204 135.254 195.03 135.289 194.855 135.288H192.216Z" fill="var(--sapContent_Illustrative_Color8)"/>
<path d="M122.915 100.315H153.85C154.068 100.316 154.284 100.273 154.484 100.189C154.685 100.104 154.866 99.9798 155.018 99.8229C155.169 99.666 155.287 99.4799 155.364 99.2759C155.442 99.072 155.477 98.8544 155.468 98.6364V98.6364C155.449 98.1869 155.258 97.762 154.935 97.4496C154.612 97.1372 154.181 96.9612 153.733 96.9579H122.798C122.58 96.9565 122.364 96.9993 122.164 97.0839C121.963 97.1684 121.782 97.293 121.63 97.4499C121.479 97.6068 121.361 97.7929 121.284 97.9969C121.206 98.2008 121.171 98.4184 121.18 98.6364V98.6364C121.199 99.0859 121.39 99.5108 121.713 99.8232C122.036 100.136 122.467 100.312 122.915 100.315V100.315Z" fill="var(--sapContent_Illustrative_Color8)"/>
<path d="M133.141 112.771C133.133 112.602 133.062 112.442 132.94 112.324C132.818 112.206 132.656 112.14 132.487 112.139H128.414C128.332 112.139 128.251 112.156 128.175 112.188C128.1 112.22 128.032 112.266 127.975 112.325C127.918 112.384 127.873 112.454 127.843 112.531C127.814 112.607 127.8 112.689 127.802 112.771L127.925 116.199C127.932 116.367 128.003 116.526 128.124 116.644C128.245 116.761 128.405 116.828 128.574 116.83H132.652C132.733 116.83 132.814 116.814 132.89 116.782C132.965 116.75 133.034 116.703 133.091 116.644C133.148 116.585 133.192 116.516 133.222 116.439C133.252 116.362 133.266 116.281 133.263 116.199L133.141 112.771Z" fill="var(--sapContent_Illustrative_Color6)"/>
<path d="M143.545 112.79C143.539 112.621 143.468 112.461 143.347 112.343C143.226 112.226 143.064 112.159 142.896 112.158H138.841C138.759 112.157 138.678 112.173 138.602 112.205C138.526 112.237 138.458 112.284 138.401 112.343C138.343 112.402 138.299 112.472 138.269 112.549C138.24 112.626 138.227 112.708 138.23 112.79L138.352 116.213C138.359 116.382 138.431 116.542 138.553 116.66C138.675 116.777 138.837 116.843 139.006 116.845H143.074C143.156 116.845 143.238 116.829 143.314 116.798C143.389 116.766 143.458 116.719 143.515 116.66C143.572 116.601 143.617 116.531 143.646 116.454C143.676 116.377 143.689 116.295 143.686 116.213L143.545 112.79Z" fill="var(--sapContent_Illustrative_Color6)"/>
<path d="M154.099 112.832C154.092 112.663 154.02 112.503 153.898 112.385C153.777 112.268 153.614 112.202 153.445 112.201H149.367C149.286 112.2 149.205 112.217 149.13 112.249C149.055 112.281 148.987 112.328 148.93 112.387C148.873 112.446 148.829 112.516 148.8 112.592C148.771 112.669 148.758 112.75 148.761 112.832L148.878 116.26C148.887 116.429 148.959 116.588 149.08 116.705C149.202 116.823 149.363 116.889 149.532 116.892H153.61C153.692 116.892 153.772 116.875 153.848 116.843C153.923 116.811 153.991 116.764 154.047 116.705C154.104 116.646 154.148 116.576 154.177 116.5C154.207 116.423 154.22 116.342 154.217 116.26L154.099 112.832Z" fill="var(--sapContent_Illustrative_Color6)"/>
<path d="M164.513 112.851C164.505 112.682 164.433 112.522 164.312 112.404C164.19 112.287 164.028 112.22 163.859 112.219H159.786C159.704 112.219 159.622 112.235 159.547 112.266C159.471 112.298 159.402 112.345 159.345 112.404C159.288 112.463 159.243 112.533 159.214 112.61C159.185 112.687 159.171 112.769 159.174 112.851L159.297 116.274C159.303 116.443 159.373 116.603 159.494 116.721C159.615 116.838 159.777 116.905 159.946 116.906H164.024C164.106 116.907 164.187 116.89 164.263 116.859C164.339 116.827 164.407 116.78 164.464 116.721C164.521 116.662 164.566 116.592 164.595 116.515C164.625 116.438 164.638 116.356 164.635 116.274L164.513 112.851Z" fill="var(--sapContent_Illustrative_Color6)"/>
<path d="M175.152 112.964C175.146 112.795 175.075 112.634 174.954 112.516C174.833 112.397 174.672 112.33 174.503 112.328H170.425C170.342 112.328 170.261 112.344 170.185 112.377C170.11 112.409 170.041 112.456 169.984 112.516C169.927 112.575 169.882 112.645 169.853 112.723C169.824 112.8 169.81 112.882 169.813 112.964L169.936 116.387C169.943 116.556 170.015 116.716 170.137 116.834C170.258 116.952 170.42 117.018 170.589 117.019H174.663C174.745 117.02 174.826 117.004 174.902 116.972C174.977 116.94 175.046 116.893 175.103 116.834C175.16 116.775 175.205 116.705 175.234 116.628C175.264 116.551 175.277 116.469 175.274 116.387L175.152 112.964Z" fill="var(--sapContent_Illustrative_Color6)"/>
<path d="M185.57 112.978C185.562 112.809 185.489 112.65 185.368 112.533C185.247 112.415 185.085 112.349 184.916 112.347H180.838C180.757 112.346 180.676 112.363 180.601 112.395C180.526 112.427 180.458 112.474 180.401 112.533C180.344 112.592 180.3 112.662 180.271 112.738C180.242 112.815 180.228 112.897 180.232 112.978L180.349 116.406C180.358 116.575 180.43 116.734 180.551 116.852C180.673 116.969 180.834 117.036 181.003 117.038H185.076C185.158 117.038 185.24 117.022 185.315 116.991C185.391 116.959 185.46 116.912 185.517 116.853C185.574 116.794 185.619 116.724 185.648 116.647C185.677 116.57 185.691 116.488 185.688 116.406L185.57 112.978Z" fill="var(--sapContent_Illustrative_Color6)"/>
<path d="M195.193 112.964C195.186 112.795 195.114 112.635 194.992 112.517C194.871 112.4 194.709 112.334 194.54 112.333H190.462C190.38 112.333 190.299 112.349 190.224 112.381C190.149 112.413 190.081 112.46 190.024 112.519C189.968 112.578 189.923 112.648 189.894 112.724C189.865 112.801 189.852 112.882 189.855 112.964L189.973 116.387C189.98 116.556 190.052 116.717 190.173 116.834C190.295 116.952 190.457 117.018 190.626 117.019H194.704C194.786 117.02 194.867 117.004 194.943 116.972C195.018 116.94 195.087 116.893 195.143 116.834C195.2 116.775 195.244 116.705 195.273 116.628C195.302 116.551 195.315 116.469 195.311 116.387L195.193 112.964Z" fill="var(--sapContent_Illustrative_Color6)"/>
<path d="M133.559 122.068C133.551 121.9 133.478 121.74 133.357 121.623C133.236 121.505 133.074 121.439 132.905 121.437H128.827C128.746 121.437 128.665 121.453 128.59 121.485C128.514 121.517 128.446 121.564 128.39 121.623C128.333 121.682 128.289 121.752 128.26 121.828C128.231 121.905 128.217 121.987 128.221 122.068L128.338 125.496C128.345 125.665 128.417 125.825 128.539 125.943C128.661 126.061 128.823 126.127 128.992 126.128H133.07C133.152 126.128 133.232 126.111 133.308 126.079C133.383 126.047 133.451 126 133.507 125.941C133.564 125.882 133.608 125.813 133.637 125.736C133.666 125.659 133.68 125.578 133.677 125.496L133.559 122.068Z" fill="var(--sapContent_Illustrative_Color6)"/>
<path d="M143.973 122.068C143.964 121.9 143.892 121.74 143.771 121.623C143.649 121.505 143.487 121.439 143.319 121.437H139.241C139.159 121.437 139.078 121.453 139.003 121.485C138.928 121.517 138.86 121.564 138.804 121.623C138.747 121.682 138.703 121.752 138.674 121.828C138.644 121.905 138.631 121.987 138.634 122.068L138.752 125.496C138.76 125.665 138.832 125.824 138.954 125.942C139.075 126.059 139.237 126.126 139.406 126.128H143.483C143.565 126.128 143.646 126.111 143.721 126.079C143.796 126.047 143.864 126 143.921 125.941C143.978 125.882 144.022 125.813 144.051 125.736C144.08 125.659 144.093 125.578 144.09 125.496L143.973 122.068Z" fill="var(--sapContent_Illustrative_Color6)"/>
<path d="M154.513 122.106C154.506 121.938 154.435 121.778 154.314 121.661C154.194 121.543 154.033 121.477 153.864 121.474H149.786C149.705 121.474 149.624 121.491 149.548 121.523C149.473 121.555 149.404 121.602 149.347 121.661C149.29 121.719 149.246 121.789 149.216 121.866C149.186 121.942 149.173 122.024 149.175 122.106L149.297 125.534C149.305 125.703 149.377 125.863 149.498 125.981C149.62 126.098 149.782 126.164 149.951 126.166H154.024C154.106 126.166 154.187 126.149 154.263 126.117C154.338 126.085 154.407 126.038 154.464 125.979C154.521 125.92 154.565 125.851 154.595 125.774C154.624 125.698 154.638 125.616 154.636 125.534L154.513 122.106Z" fill="var(--sapContent_Illustrative_Color6)"/>
<path d="M164.931 122.125C164.924 121.956 164.852 121.796 164.73 121.678C164.608 121.56 164.446 121.494 164.277 121.493H160.199C160.118 121.492 160.036 121.508 159.961 121.54C159.885 121.572 159.817 121.619 159.76 121.678C159.704 121.737 159.659 121.807 159.631 121.884C159.602 121.961 159.589 122.043 159.593 122.125L159.71 125.552C159.719 125.721 159.791 125.881 159.912 125.998C160.034 126.116 160.195 126.182 160.364 126.184H164.442C164.524 126.184 164.604 126.168 164.68 126.136C164.755 126.104 164.823 126.057 164.879 125.998C164.936 125.939 164.98 125.869 165.009 125.792C165.038 125.716 165.052 125.634 165.049 125.552L164.931 122.125Z" fill="var(--sapContent_Illustrative_Color6)"/>
<path d="M175.57 122.238C175.563 122.069 175.491 121.909 175.37 121.791C175.248 121.674 175.086 121.607 174.917 121.606H170.825C170.743 121.606 170.662 121.623 170.587 121.655C170.512 121.687 170.444 121.734 170.387 121.793C170.331 121.852 170.286 121.922 170.257 121.998C170.228 122.075 170.215 122.156 170.218 122.238L170.336 125.661C170.343 125.83 170.415 125.99 170.537 126.108C170.658 126.225 170.82 126.292 170.989 126.293H175.067C175.149 126.293 175.23 126.276 175.305 126.244C175.38 126.212 175.448 126.165 175.505 126.106C175.561 126.047 175.606 125.978 175.635 125.901C175.664 125.824 175.677 125.743 175.674 125.661L175.57 122.238Z" fill="var(--sapContent_Illustrative_Color6)"/>
<path d="M185.984 122.257C185.977 122.088 185.905 121.928 185.783 121.81C185.661 121.692 185.499 121.626 185.33 121.625H181.252C181.171 121.625 181.09 121.642 181.015 121.674C180.939 121.706 180.871 121.753 180.815 121.812C180.758 121.871 180.714 121.94 180.685 122.017C180.656 122.093 180.642 122.175 180.645 122.257L180.763 125.68C180.77 125.849 180.842 126.009 180.964 126.127C181.086 126.244 181.248 126.311 181.417 126.312H185.495C185.577 126.312 185.658 126.296 185.733 126.265C185.809 126.233 185.877 126.186 185.934 126.127C185.991 126.068 186.035 125.997 186.064 125.921C186.092 125.844 186.105 125.762 186.102 125.68L185.984 122.257Z" fill="var(--sapContent_Illustrative_Color6)"/>
<path d="M195.607 122.238C195.601 122.069 195.53 121.909 195.409 121.792C195.288 121.674 195.127 121.607 194.958 121.606H190.88C190.798 121.606 190.717 121.622 190.641 121.653C190.565 121.685 190.497 121.732 190.439 121.791C190.382 121.85 190.338 121.92 190.308 121.997C190.279 122.074 190.265 122.156 190.269 122.238L190.391 125.666C190.395 125.838 190.466 126.003 190.589 126.123C190.712 126.244 190.877 126.312 191.049 126.312H195.123C195.205 126.312 195.286 126.295 195.361 126.263C195.436 126.231 195.505 126.184 195.562 126.126C195.619 126.067 195.663 125.997 195.693 125.92C195.722 125.844 195.737 125.762 195.734 125.68L195.607 122.238Z" fill="var(--sapContent_Illustrative_Color6)"/>
<path d="M133.987 130.989C133.981 130.82 133.91 130.66 133.789 130.542C133.668 130.424 133.507 130.358 133.338 130.357H129.26C129.178 130.356 129.097 130.372 129.021 130.404C128.945 130.436 128.877 130.482 128.82 130.541C128.762 130.601 128.718 130.671 128.689 130.748C128.659 130.824 128.646 130.906 128.649 130.989L128.771 134.411C128.778 134.581 128.85 134.741 128.972 134.858C129.094 134.976 129.256 135.042 129.425 135.043H133.498C133.58 135.044 133.661 135.028 133.737 134.996C133.813 134.964 133.881 134.918 133.939 134.858C133.996 134.799 134.04 134.729 134.07 134.653C134.099 134.576 134.113 134.494 134.109 134.411L133.987 130.989Z" fill="var(--sapContent_Illustrative_Color6)"/>
<path d="M144.406 131.026C144.398 130.857 144.327 130.696 144.205 130.578C144.083 130.459 143.921 130.392 143.752 130.39H139.674C139.592 130.39 139.51 130.406 139.435 130.439C139.359 130.471 139.291 130.518 139.234 130.578C139.178 130.637 139.134 130.708 139.105 130.785C139.076 130.862 139.063 130.944 139.067 131.026L139.185 134.449C139.192 134.619 139.264 134.779 139.386 134.896C139.507 135.014 139.669 135.08 139.838 135.081H143.912C143.994 135.082 144.075 135.066 144.151 135.034C144.227 135.002 144.295 134.955 144.352 134.896C144.409 134.837 144.454 134.767 144.483 134.69C144.513 134.614 144.526 134.531 144.523 134.449L144.406 131.026Z" fill="var(--sapContent_Illustrative_Color6)"/>
<path d="M154.946 131.05C154.939 130.881 154.867 130.721 154.745 130.603C154.623 130.485 154.461 130.419 154.292 130.418H150.219C150.137 130.417 150.055 130.434 149.98 130.465C149.904 130.497 149.835 130.544 149.778 130.603C149.721 130.662 149.676 130.732 149.647 130.809C149.618 130.886 149.604 130.968 149.607 131.05L149.73 134.473C149.736 134.642 149.807 134.802 149.928 134.919C150.048 135.037 150.21 135.103 150.379 135.105H154.457C154.539 135.105 154.62 135.089 154.695 135.057C154.771 135.026 154.839 134.979 154.896 134.92C154.953 134.861 154.997 134.79 155.025 134.714C155.054 134.637 155.067 134.555 155.063 134.473L154.946 131.05Z" fill="var(--sapContent_Illustrative_Color6)"/>
<path d="M165.359 131.064C165.352 130.895 165.28 130.735 165.159 130.617C165.037 130.499 164.875 130.433 164.706 130.432H160.632C160.55 130.432 160.469 130.449 160.394 130.481C160.319 130.513 160.25 130.559 160.193 130.618C160.136 130.677 160.092 130.747 160.062 130.824C160.032 130.9 160.018 130.982 160.021 131.064L160.143 134.492C160.149 134.661 160.22 134.821 160.341 134.938C160.462 135.056 160.624 135.122 160.792 135.123H164.87C164.952 135.124 165.034 135.108 165.109 135.076C165.185 135.045 165.254 134.998 165.311 134.939C165.368 134.88 165.413 134.81 165.442 134.733C165.471 134.656 165.485 134.574 165.482 134.492L165.359 131.064Z" fill="var(--sapContent_Illustrative_Color6)"/>
<path d="M175.999 131.177C175.992 131.008 175.921 130.848 175.801 130.731C175.68 130.613 175.518 130.547 175.349 130.545H171.295C171.213 130.545 171.132 130.561 171.057 130.593C170.981 130.624 170.913 130.671 170.856 130.73C170.799 130.79 170.755 130.86 170.726 130.936C170.697 131.013 170.685 131.095 170.688 131.177L170.806 134.605C170.813 134.774 170.885 134.934 171.007 135.052C171.129 135.169 171.291 135.236 171.46 135.237H175.528C175.61 135.237 175.691 135.22 175.767 135.188C175.842 135.156 175.91 135.109 175.967 135.05C176.024 134.992 176.069 134.922 176.099 134.845C176.128 134.769 176.142 134.687 176.14 134.605L175.999 131.177Z" fill="var(--sapContent_Illustrative_Color6)"/>
<path d="M181.685 130.555C181.603 130.554 181.522 130.57 181.447 130.602C181.371 130.634 181.303 130.681 181.246 130.74C181.189 130.799 181.145 130.869 181.116 130.946C181.087 131.023 181.074 131.105 181.078 131.187L181.196 134.61C181.203 134.779 181.275 134.939 181.397 135.056C181.519 135.174 181.681 135.24 181.85 135.241H185.928C186.009 135.241 186.09 135.225 186.166 135.193C186.241 135.161 186.309 135.114 186.365 135.055C186.422 134.996 186.466 134.926 186.495 134.85C186.524 134.773 186.538 134.691 186.534 134.61L186.417 131.187C186.41 131.017 186.338 130.857 186.216 130.74C186.094 130.622 185.932 130.556 185.763 130.555H181.685Z" fill="var(--sapContent_Illustrative_Color6)"/>
<path d="M191.308 130.555C191.226 130.555 191.145 130.571 191.07 130.603C190.995 130.635 190.927 130.682 190.87 130.741C190.814 130.8 190.769 130.87 190.74 130.947C190.711 131.023 190.698 131.105 190.701 131.187L190.819 134.614C190.826 134.784 190.898 134.944 191.02 135.061C191.141 135.179 191.304 135.245 191.473 135.246H195.55C195.632 135.247 195.713 135.231 195.789 135.199C195.864 135.167 195.933 135.12 195.989 135.061C196.046 135.002 196.09 134.932 196.119 134.855C196.148 134.778 196.161 134.696 196.157 134.614L196.04 131.187C196.031 131.018 195.959 130.858 195.837 130.741C195.716 130.624 195.555 130.557 195.386 130.555H191.308Z" fill="var(--sapContent_Illustrative_Color6)"/>
<path d="M129.665 139.32C129.583 139.32 129.502 139.336 129.426 139.368C129.351 139.4 129.283 139.447 129.226 139.506C129.168 139.565 129.124 139.634 129.094 139.711C129.065 139.788 129.051 139.869 129.053 139.951L129.176 143.379C129.183 143.548 129.255 143.708 129.376 143.826C129.498 143.943 129.66 144.01 129.829 144.011H133.903C133.985 144.011 134.066 143.995 134.142 143.964C134.218 143.932 134.286 143.885 134.343 143.826C134.4 143.767 134.445 143.697 134.474 143.62C134.504 143.543 134.517 143.461 134.514 143.379L134.392 139.951C134.384 139.783 134.313 139.624 134.193 139.506C134.072 139.389 133.911 139.322 133.743 139.32H129.665Z" fill="var(--sapContent_Illustrative_Color6)"/>
<path d="M140.078 139.338C139.996 139.338 139.915 139.354 139.84 139.386C139.764 139.417 139.696 139.464 139.639 139.523C139.582 139.582 139.538 139.653 139.509 139.73C139.48 139.806 139.468 139.888 139.471 139.97L139.589 143.398C139.597 143.567 139.67 143.726 139.791 143.843C139.913 143.961 140.074 144.027 140.243 144.03H144.321C144.402 144.03 144.483 144.013 144.558 143.981C144.633 143.949 144.701 143.902 144.758 143.843C144.815 143.784 144.859 143.714 144.888 143.638C144.917 143.561 144.931 143.48 144.927 143.398L144.81 139.97C144.803 139.801 144.731 139.641 144.609 139.523C144.487 139.406 144.325 139.339 144.156 139.338H140.078Z" fill="var(--sapContent_Illustrative_Color6)"/>
<path d="M150.623 139.381C150.541 139.38 150.46 139.396 150.384 139.428C150.308 139.46 150.24 139.506 150.183 139.566C150.126 139.625 150.081 139.695 150.052 139.771C150.022 139.848 150.009 139.93 150.012 140.013L150.134 143.44C150.141 143.609 150.213 143.768 150.333 143.885C150.454 144.003 150.615 144.07 150.783 144.072H154.861C154.943 144.072 155.024 144.056 155.1 144.024C155.175 143.992 155.243 143.945 155.3 143.886C155.357 143.827 155.402 143.757 155.432 143.681C155.461 143.604 155.475 143.522 155.473 143.44L155.35 140.013C155.343 139.843 155.271 139.683 155.149 139.566C155.028 139.448 154.866 139.382 154.697 139.381H150.623Z" fill="var(--sapContent_Illustrative_Color6)"/>
<path d="M161.037 139.4C160.955 139.399 160.874 139.415 160.798 139.447C160.722 139.479 160.653 139.525 160.596 139.584C160.539 139.643 160.494 139.714 160.465 139.79C160.436 139.867 160.422 139.949 160.426 140.032L160.548 143.454C160.555 143.624 160.627 143.784 160.749 143.901C160.87 144.019 161.032 144.085 161.202 144.086H165.275C165.357 144.087 165.438 144.071 165.514 144.039C165.59 144.007 165.658 143.961 165.715 143.901C165.772 143.842 165.817 143.772 165.846 143.695C165.876 143.619 165.889 143.537 165.886 143.454L165.764 140.032C165.758 139.863 165.687 139.703 165.566 139.585C165.445 139.467 165.283 139.401 165.115 139.4H161.037Z" fill="var(--sapContent_Illustrative_Color6)"/>
<path d="M171.676 139.513C171.594 139.512 171.513 139.528 171.437 139.56C171.362 139.592 171.293 139.639 171.237 139.698C171.18 139.757 171.136 139.827 171.107 139.904C171.078 139.981 171.065 140.063 171.069 140.145L171.187 143.568C171.194 143.737 171.266 143.897 171.388 144.014C171.509 144.132 171.671 144.198 171.84 144.199H175.918C176 144.199 176.081 144.183 176.156 144.151C176.231 144.119 176.299 144.072 176.356 144.013C176.413 143.954 176.457 143.884 176.486 143.808C176.515 143.731 176.528 143.649 176.525 143.568L176.408 140.145C176.4 139.975 176.328 139.815 176.207 139.698C176.085 139.58 175.923 139.514 175.754 139.513H171.676Z" fill="var(--sapContent_Illustrative_Color6)"/>
<path d="M211.848 57.4345H203.612C203.242 57.4406 202.89 57.5924 202.63 57.857C202.37 58.1216 202.225 58.4778 202.225 58.8489C202.231 59.2159 202.379 59.5661 202.638 59.8257C202.897 60.0852 203.246 60.2337 203.612 60.2398H207.93L202.757 64.4406C202.536 64.6234 202.375 64.8692 202.297 65.1455C202.219 65.4217 202.227 65.7152 202.319 65.987C202.415 66.2591 202.592 66.4953 202.825 66.6638C203.059 66.8324 203.339 66.9253 203.627 66.9299H211.204C211.574 66.93 211.929 66.7841 212.193 66.524C212.457 66.2638 212.609 65.9102 212.615 65.5391C212.609 65.1681 212.457 64.8144 212.193 64.5542C211.929 64.294 211.574 64.1481 211.204 64.1482H207.512L212.685 59.9427C212.905 59.7593 213.065 59.5132 213.142 59.237C213.219 58.9608 213.211 58.6676 213.118 58.3963C213.028 58.1265 212.858 57.8904 212.631 57.7188C212.405 57.5472 212.132 57.4481 211.848 57.4345Z" fill="var(--sapContent_Illustrative_Color5)"/>
<path d="M230.37 41.3385H219.04C218.673 41.3445 218.324 41.493 218.065 41.7525C217.806 42.012 217.658 42.3623 217.652 42.7293C217.652 43.1004 217.797 43.4566 218.057 43.7211C218.317 43.9857 218.669 44.1375 219.04 44.1437H226.927L218.075 52.6632C217.875 52.8553 217.738 53.103 217.68 53.3745C217.622 53.6461 217.647 53.9288 217.751 54.186C217.858 54.4411 218.037 54.6592 218.266 54.8134C218.495 54.9675 218.764 55.0511 219.04 55.0536H229.467C229.833 55.0463 230.181 54.8972 230.439 54.6378C230.696 54.3784 230.844 54.0288 230.85 53.6627C230.85 53.2924 230.705 52.9369 230.447 52.6724C230.188 52.408 229.837 52.2556 229.467 52.2482H222.483L231.334 43.7336C231.534 43.5423 231.672 43.2952 231.73 43.0245C231.788 42.7538 231.763 42.4718 231.659 42.2153C231.557 41.9559 231.38 41.7335 231.15 41.577C230.92 41.4205 230.648 41.3373 230.37 41.3385Z" fill="var(--sapContent_Illustrative_Color5)"/>
<path d="M252.528 81.1731V20.7023L250.717 20.6363C250.58 20.6312 250.444 20.6537 250.316 20.7026C250.188 20.7514 250.072 20.8256 249.973 20.9206C249.874 21.0156 249.796 21.1296 249.742 21.2557C249.688 21.3818 249.659 21.5174 249.659 21.6546V84.134C249.659 84.4037 249.765 84.6625 249.955 84.8541C250.144 85.0457 250.401 85.1545 250.67 85.157L294.412 85.5531C294.547 85.555 294.681 85.53 294.806 85.4796C294.93 85.4293 295.044 85.3546 295.14 85.2598C295.236 85.165 295.312 85.0522 295.364 84.9277C295.416 84.8032 295.443 84.6696 295.443 84.5346V82.5734L253.554 82.2009C253.418 82.2028 253.284 82.1775 253.159 82.1265C253.033 82.0755 252.92 82 252.824 81.9041C252.729 81.8083 252.653 81.6943 252.602 81.5687C252.551 81.4432 252.526 81.3086 252.528 81.1731V81.1731Z" fill="var(--sapContent_Illustrative_Color7)"/>
<path d="M252.528 81.1731V20.7023L250.717 20.6363C250.58 20.6312 250.444 20.6537 250.316 20.7026C250.188 20.7514 250.072 20.8256 249.973 20.9206C249.874 21.0156 249.796 21.1296 249.742 21.2557C249.688 21.3818 249.659 21.5174 249.659 21.6546V84.134C249.659 84.4037 249.765 84.6625 249.955 84.8541C250.144 85.0457 250.401 85.1545 250.67 85.157L294.412 85.5531C294.547 85.555 294.681 85.53 294.806 85.4796C294.93 85.4293 295.044 85.3546 295.14 85.2598C295.236 85.165 295.312 85.0522 295.364 84.9277C295.416 84.8032 295.443 84.6696 295.443 84.5346V82.5734L253.554 82.2009C253.418 82.2028 253.284 82.1775 253.159 82.1265C253.033 82.0755 252.92 82 252.824 81.9041C252.729 81.8083 252.653 81.6943 252.602 81.5687C252.551 81.4432 252.526 81.3086 252.528 81.1731V81.1731Z" fill="var(--sapContent_Illustrative_Color19)"/>
<path d="M297.315 20.3344L253.572 18.7408C253.437 18.7345 253.301 18.7556 253.174 18.8028C253.047 18.85 252.931 18.9223 252.832 19.0156C252.733 19.1089 252.654 19.2211 252.599 19.3456C252.545 19.4701 252.516 19.6043 252.514 19.7403V81.173C252.517 81.4402 252.624 81.6956 252.814 81.8836C253.003 82.0717 253.259 82.1772 253.525 82.1772L295.414 82.5496H297.253C297.387 82.5521 297.52 82.5281 297.644 82.4788C297.768 82.4296 297.881 82.3562 297.977 82.2628C298.073 82.1694 298.15 82.058 298.202 81.9349C298.255 81.8117 298.282 81.6794 298.284 81.5455V21.3198C298.278 21.0627 298.174 20.8175 297.994 20.6343C297.814 20.4512 297.571 20.3439 297.315 20.3344V20.3344ZM292.574 75.8642V75.803L259.179 75.487C258.969 75.4784 258.771 75.3878 258.626 75.2345C258.482 75.0811 258.404 74.8773 258.407 74.6667V24.87H258.337L258.375 23.7195H259.033C259.094 23.7102 259.156 23.7102 259.217 23.7195L261.277 23.7997L293.448 24.6955L293.547 75.7747L292.574 75.8642Z" fill="var(--sapContent_Illustrative_Color18)"/>
<path d="M259.221 23.7337C259.161 23.7244 259.099 23.7244 259.038 23.7337L261.281 23.795L259.221 23.7337Z" fill="var(--sapContent_Illustrative_Color7)"/>
<path d="M258.412 24.8888V74.6856C258.408 74.8962 258.487 75.1001 258.631 75.2534C258.775 75.4067 258.973 75.4973 259.183 75.5059L292.578 75.8218L292.333 26.1335L258.412 24.8888ZM285.17 62.0265L285.109 62.069C284.911 62.2134 284.672 62.291 284.427 62.2906C284.244 62.2925 284.063 62.2507 283.9 62.1687C283.736 62.0867 283.594 61.9669 283.486 61.8191C283.306 61.572 283.232 61.2635 283.278 60.9612C283.325 60.6589 283.49 60.3876 283.736 60.2067L283.82 60.1454C284.843 59.4516 285.678 58.5153 286.253 57.4197C286.827 56.324 287.123 55.1031 287.113 53.8655C287.112 53.5851 287.096 53.305 287.066 53.0262H270.067H266.601C266.032 53.0268 265.468 52.915 264.942 52.697C264.416 52.4791 263.937 52.1593 263.535 51.756C263.132 51.3528 262.812 50.8738 262.594 50.3467C262.376 49.8196 262.264 49.2546 262.264 48.684V44.3794C262.266 44.324 262.288 44.2712 262.328 44.2324C262.368 44.1936 262.421 44.172 262.476 44.172L264.992 45.7513H265.063C265.432 45.6081 265.824 45.5376 266.22 45.5439C266.649 45.5348 267.074 45.6201 267.466 45.7938H267.598L269.856 44.1673C269.911 44.1673 269.964 44.1889 270.004 44.2277C270.043 44.2665 270.066 44.3192 270.067 44.3747V47.7929C271.789 45.1715 275.048 43.3987 278.788 43.3987C282.682 43.3987 286.059 45.3176 287.724 48.1134C287.739 48.1269 287.752 48.1429 287.762 48.1606C288.853 49.8561 289.437 51.8291 289.446 53.8466C289.453 55.4563 289.068 57.0435 288.322 58.4694C287.577 59.8954 286.495 61.1166 285.17 62.0265V62.0265Z" fill="var(--sapContent_Illustrative_Color7)"/>
<path d="M261.281 23.8139L292.644 25.035C292.851 25.0472 293.044 25.1397 293.184 25.2929C293.324 25.4461 293.398 25.6479 293.392 25.8553V75.0062C293.394 75.1116 293.376 75.2165 293.338 75.3148C293.3 75.413 293.242 75.5026 293.169 75.5785C293.096 75.6543 293.009 75.715 292.912 75.7568C292.815 75.7985 292.711 75.8206 292.606 75.8218H292.573V75.8831L293.552 75.7889L293.453 24.7097L261.281 23.8139Z" fill="var(--sapContent_Illustrative_Color8)"/>
<path opacity="0.5" d="M261.281 23.8139L292.644 25.035C292.851 25.0472 293.044 25.1397 293.184 25.2929C293.324 25.4461 293.398 25.6479 293.392 25.8553V75.0062C293.394 75.1116 293.376 75.2165 293.338 75.3148C293.3 75.413 293.242 75.5026 293.169 75.5785C293.096 75.6543 293.009 75.715 292.912 75.7568C292.815 75.7985 292.711 75.8206 292.606 75.8218H292.573V75.8831L293.552 75.7889L293.453 24.7097L261.281 23.8139Z" fill="var(--sapContent_Illustrative_Color20)"/>
<path d="M259.038 23.7526H258.379L258.342 24.903H258.413V24.5683C258.407 24.3808 258.466 24.1971 258.58 24.0483C258.694 23.8996 258.855 23.7951 259.038 23.7526Z" fill="var(--sapContent_Illustrative_Color8)"/>
<path opacity="0.5" d="M259.038 23.7526H258.379L258.342 24.903H258.413V24.5683C258.407 24.3808 258.466 24.1971 258.58 24.0483C258.694 23.8996 258.855 23.7951 259.038 23.7526Z" fill="var(--sapContent_Illustrative_Color20)"/>
<path d="M293.392 75.0062V25.8554C293.399 25.6479 293.324 25.4462 293.184 25.293C293.045 25.1398 292.851 25.0472 292.644 25.035L261.282 23.814L259.038 23.7526C258.858 23.7946 258.698 23.897 258.584 24.0428C258.47 24.1886 258.41 24.369 258.413 24.5541V24.8888L292.329 26.1336L292.574 75.8218H292.607C292.712 75.8206 292.816 75.7986 292.912 75.7568C293.009 75.715 293.096 75.6544 293.169 75.5785C293.242 75.5026 293.3 75.413 293.338 75.3148C293.376 75.2166 293.395 75.1116 293.392 75.0062V75.0062Z" fill="var(--sapContent_Illustrative_Color7)"/>
<path d="M293.392 75.0062V25.8554C293.399 25.6479 293.324 25.4462 293.184 25.293C293.045 25.1398 292.851 25.0472 292.644 25.035L261.282 23.814L259.038 23.7526C258.858 23.7946 258.698 23.897 258.584 24.0428C258.47 24.1886 258.41 24.369 258.413 24.5541V24.8888L292.329 26.1336L292.574 75.8218H292.607C292.712 75.8206 292.816 75.7986 292.912 75.7568C293.009 75.715 293.096 75.6544 293.169 75.5785C293.242 75.5026 293.3 75.413 293.338 75.3148C293.376 75.2166 293.395 75.1116 293.392 75.0062V75.0062Z" fill="var(--sapContent_Illustrative_Color19)"/>
<path d="M287.724 48.1323C286.069 45.3271 282.692 43.4176 278.788 43.4176C275.025 43.4176 271.789 45.1904 270.068 47.8118V44.3936C270.066 44.3382 270.044 44.2854 270.004 44.2466C269.964 44.2078 269.911 44.1862 269.856 44.1862L267.598 45.8127H267.467C267.074 45.639 266.649 45.5537 266.22 45.5629C265.825 45.5566 265.432 45.627 265.063 45.7703H264.993L262.476 44.1909C262.421 44.1909 262.368 44.2126 262.328 44.2513C262.289 44.2901 262.266 44.3429 262.265 44.3983V48.7028C262.265 49.2734 262.377 49.8385 262.595 50.3656C262.813 50.8927 263.132 51.3717 263.535 51.775C263.938 52.1782 264.416 52.498 264.942 52.7159C265.468 52.9339 266.032 53.0458 266.601 53.0451H270.068H287.085C287.115 53.3239 287.13 53.6039 287.132 53.8843C287.142 55.1219 286.846 56.343 286.272 57.4386C285.697 58.5342 284.862 59.4705 283.839 60.1643L283.755 60.2256C283.509 60.4065 283.344 60.6779 283.297 60.9801C283.251 61.2824 283.325 61.5909 283.505 61.838C283.613 61.9858 283.755 62.1056 283.919 62.1876C284.082 62.2696 284.263 62.3114 284.446 62.3095C284.691 62.3099 284.93 62.2323 285.128 62.0879L285.189 62.0454C286.511 61.1373 287.592 59.919 288.337 58.4966C289.082 57.0743 289.469 55.4908 289.465 53.8843C289.456 51.8667 288.872 49.8939 287.781 48.1984C287.768 48.1722 287.748 48.1495 287.724 48.1323ZM268.784 49.5468L270.044 46.3974L270.072 47.8118L268.784 49.5468Z" fill="var(--sapContent_Illustrative_Color18)"/>
<path opacity="0.7" d="M268.783 49.5703L270.067 47.8306L270.044 46.4162L268.783 49.5703Z" fill="var(--sapContent_Illustrative_Color19)"/>
<path d="M177.362 16.3836V0.018734H177.334V16.6522C177.349 16.5632 177.358 16.4736 177.362 16.3836V16.3836Z" fill="var(--sapContent_Illustrative_Color7)"/>
<path d="M153.083 8.94848C155.303 7.70851 157.373 7.06254 159.485 7.5953C163.93 8.72212 164.085 13.9319 169.799 19.335H174.418C174.739 19.3328 175.057 19.277 175.359 19.1699C175.226 19.196 175.09 19.2102 174.954 19.2124V0.018734H145.257C147.068 2.07906 149.151 4.5166 151.78 7.47743C152.222 7.97248 152.655 8.47701 153.083 8.94848Z" fill="var(--sapContent_Illustrative_Color7)"/>
<path d="M129.34 19.2877C128.646 19.0902 128.034 18.6714 127.598 18.0948C127.162 17.5181 126.925 16.8148 126.923 16.0911V0.0233765H126.89V16.3882C126.891 17.0837 127.138 17.7561 127.586 18.2868C128.035 18.8174 128.656 19.172 129.34 19.2877Z" fill="var(--sapContent_Illustrative_Color7)"/>
<path d="M129.829 23.0596H174.418C176.188 23.0583 177.886 22.3533 179.138 21.099C180.39 19.8448 181.094 18.1438 181.097 16.3695V0.00471931H177.362V16.3695C177.358 16.4595 177.349 16.5491 177.334 16.6381V16.7937C177.333 17.3588 177.133 17.9053 176.769 18.3367C176.405 18.7681 175.9 19.0565 175.345 19.1511C175.042 19.2581 174.724 19.3139 174.404 19.3161H169.785L169.884 19.4104H130.248C129.929 19.4076 129.612 19.3584 129.307 19.2642C128.623 19.1485 128.002 18.794 127.553 18.2634C127.105 17.7328 126.858 17.0602 126.857 16.3647V0H123.122V16.3647C123.123 17.2461 123.297 18.1187 123.635 18.9325C123.972 19.7463 124.467 20.4854 125.09 21.1073C125.713 21.7292 126.452 22.2218 127.266 22.5568C128.079 22.8918 128.95 23.0627 129.829 23.0596V23.0596Z" fill="var(--sapContent_Illustrative_Color18)"/>
<path d="M175.345 19.1699C175.885 18.9903 176.361 18.6563 176.715 18.209C177.068 17.7618 177.283 17.2206 177.334 16.6522V0.018734H174.94V19.2124C175.076 19.2102 175.211 19.196 175.345 19.1699V19.1699Z" fill="var(--sapContent_Illustrative_Color7)"/>
<path d="M175.345 19.1699C175.885 18.9903 176.361 18.6563 176.715 18.209C177.068 17.7618 177.283 17.2206 177.334 16.6522V0.018734H174.94V19.2124C175.076 19.2102 175.211 19.196 175.345 19.1699V19.1699Z" fill="var(--sapContent_Illustrative_Color19)"/>
<path d="M175.345 19.1698C175.9 19.0753 176.405 18.7869 176.769 18.3555C177.133 17.9241 177.333 17.3775 177.334 16.8125V16.6569C177.283 17.2244 177.067 17.7644 176.713 18.2108C176.36 18.6572 175.884 18.9905 175.345 19.1698Z" fill="var(--sapContent_Illustrative_Color8)"/>
<path opacity="0.2" d="M175.345 19.1698C175.9 19.0753 176.405 18.7869 176.769 18.3555C177.133 17.9241 177.333 17.3775 177.334 16.8125V16.6569C177.283 17.2244 177.067 17.7644 176.713 18.2108C176.36 18.6572 175.884 18.9905 175.345 19.1698Z" fill="var(--sapContent_Illustrative_Color20)"/>
<path d="M129.34 19.2877C129.495 19.3182 129.653 19.3356 129.811 19.3396H140.873C142.919 16.6098 145.369 14.2104 148.14 12.2251C149.723 11.0485 151.367 9.9563 153.065 8.95312C152.637 8.48165 152.204 8.01012 151.748 7.48208C149.118 4.52124 147.044 2.0837 145.224 0.0233765H126.904V16.0911C126.907 16.8172 127.147 17.5224 127.587 18.0994C128.027 18.6764 128.642 19.0936 129.34 19.2877V19.2877Z" fill="var(--sapContent_Illustrative_Color7)"/>
<path d="M129.34 19.2877C129.495 19.3182 129.653 19.3356 129.811 19.3396H140.873C142.919 16.6098 145.369 14.2104 148.14 12.2251C149.723 11.0485 151.367 9.9563 153.065 8.95312C152.637 8.48165 152.204 8.01012 151.748 7.48208C149.118 4.52124 147.044 2.0837 145.224 0.0233765H126.904V16.0911C126.907 16.8172 127.147 17.5224 127.587 18.0994C128.027 18.6764 128.642 19.0936 129.34 19.2877V19.2877Z" fill="var(--sapContent_Illustrative_Color19)"/>
<path d="M129.829 19.3349C129.671 19.3308 129.514 19.3134 129.359 19.283C129.664 19.3771 129.981 19.4264 130.3 19.4292H140.859L140.929 19.3349H129.829Z" fill="var(--sapContent_Illustrative_Color8)"/>
<path opacity="0.5" d="M129.829 19.3349C129.671 19.3308 129.514 19.3134 129.359 19.283C129.664 19.3771 129.981 19.4264 130.3 19.4292H140.859L140.929 19.3349H129.829Z" fill="var(--sapContent_Illustrative_Color18)"/>
<path d="M159.485 7.59531C157.373 7.06255 155.303 7.70852 153.083 8.94849C151.385 9.95167 149.742 11.0438 148.159 12.2205C145.388 14.2058 142.937 16.6052 140.892 19.335H169.799C164.085 13.932 163.93 8.72213 159.485 7.59531Z" fill="var(--sapContent_Illustrative_Color7)"/>
<path d="M159.485 7.59531C157.373 7.06255 155.303 7.70852 153.083 8.94849C151.385 9.95167 149.742 11.0438 148.159 12.2205C145.388 14.2058 142.937 16.6052 140.892 19.335H169.799C164.085 13.932 163.93 8.72213 159.485 7.59531Z" fill="var(--sapContent_Illustrative_Color20)"/>
<path d="M140.822 19.4291H169.884L169.785 19.3349H140.878L140.822 19.4291Z" fill="var(--sapContent_Illustrative_Color8)"/>
<path opacity="0.5" d="M140.822 19.4291H169.884L169.785 19.3349H140.878L140.822 19.4291Z" fill="var(--sapContent_Illustrative_Color20)"/>
<path d="M35.638 57.0055V0.0376244H35.6143V57.2743C35.619 57.1658 35.638 57.0762 35.638 57.0055Z" fill="var(--sapContent_Illustrative_Color7)"/>
<path d="M33.6206 59.7734C33.4872 59.7978 33.3519 59.8104 33.2162 59.811V0.019043H14.4681C10.6359 0.019043 6.96084 1.54505 4.25113 4.26124C1.54141 6.97744 0.019165 10.6614 0.019165 14.5027V26.5347H4.50146C3.43848 24.6959 3.26924 21.8718 2.94941 18.9487C2.40381 13.9652 2.67653 9.79742 6.28409 9.4061C6.93645 9.32573 7.59807 9.43717 8.18843 9.72678C8.7788 10.0164 9.27263 10.4717 9.60958 11.0374C9.84761 10.6191 10.1247 10.2244 10.4373 9.85869C12.0741 7.91152 14.2894 7.08648 15.3759 8.00585C16.4624 8.92521 16.0202 11.2543 14.3787 13.192C13.5675 14.2247 12.4514 14.9739 11.1899 15.3325C11.3498 16.1387 11.4721 16.9968 11.5709 17.8879C11.9095 21.009 12.1069 24.4036 11.265 26.5205H13.0476C12.8171 25.5776 13.0477 24.3328 13.17 22.9373C13.3958 20.1085 14.5151 17.8077 16.1708 17.7511C19.2092 17.6804 19.1669 20.0613 19.1669 22.9373C19.1899 24.1841 18.8986 25.4165 18.3202 26.5205H23.1931V33.4322H21.8477V33.4558V47.3312H0.0237583V59.9572H32.7034C33.0171 59.9469 33.3271 59.8848 33.6206 59.7734V59.7734Z" fill="var(--sapContent_Illustrative_Color7)"/>
<path d="M39.3727 57.0061V0.03825H35.6381V57.0061C35.6381 57.0957 35.638 57.1853 35.6145 57.2749V57.4304C35.6124 57.9959 35.4114 58.5425 35.0465 58.9738C34.6817 59.4051 34.1765 59.6933 33.6203 59.7877C33.3182 59.8953 33.0002 59.9511 32.6796 59.9528H0V63.6915H32.6796C34.4514 63.694 36.1517 62.9912 37.4068 61.7376C38.6618 60.484 39.3689 58.7821 39.3727 57.0061Z" fill="var(--sapContent_Illustrative_Color18)"/>
<path d="M33.6202 59.7731C34.1602 59.5921 34.6359 59.2577 34.9899 58.8108C35.3439 58.3638 35.5608 57.8235 35.6143 57.2554V0.018734H33.2158V59.8343C33.3522 59.8259 33.4875 59.8054 33.6202 59.7731V59.7731Z" fill="var(--sapContent_Illustrative_Color7)"/>
<path d="M33.6202 59.7731C34.1602 59.5921 34.6359 59.2577 34.9899 58.8108C35.3439 58.3638 35.5608 57.8235 35.6143 57.2554V0.018734H33.2158V59.8343C33.3522 59.8259 33.4875 59.8054 33.6202 59.7731V59.7731Z" fill="var(--sapContent_Illustrative_Color19)"/>
<path d="M33.6202 59.7731C34.1764 59.6787 34.6815 59.3903 35.0464 58.9591C35.4112 58.5278 35.6123 57.9812 35.6143 57.4157V57.2601C35.56 57.8274 35.3427 58.3667 34.9887 58.8128C34.6348 59.2588 34.1595 59.5924 33.6202 59.7731V59.7731Z" fill="var(--sapContent_Illustrative_Color8)"/>
<path opacity="0.2" d="M33.6202 59.7731C34.1764 59.6787 34.6815 59.3903 35.0464 58.9591C35.4112 58.5278 35.6123 57.9812 35.6143 57.4157V57.2601C35.56 57.8274 35.3427 58.3667 34.9887 58.8128C34.6348 59.2588 34.1595 59.5924 33.6202 59.7731V59.7731Z" fill="var(--sapContent_Illustrative_Color20)"/>
<path d="M21.843 33.4365H21.8289V34.9783H0.0189209V47.3166H21.843V33.4365Z" fill="var(--sapContent_Illustrative_Color18)"/>
<path d="M18.6789 28.1143C18.6821 28.1052 18.6821 28.0953 18.6789 28.0862C19.4118 26.7691 19.7804 25.2984 19.7505 23.8106C19.7505 20.4071 19.8043 17.5605 15.9581 17.6224C13.8624 17.6674 12.4452 20.3958 12.1594 23.8106C12.0165 25.4983 11.713 26.9779 12.0047 28.0862V28.1143H18.6789Z" fill="var(--sapContent_Illustrative_Color18)"/>
<path d="M21.8289 33.4367V33.4178H0.0189209V34.9784H21.8289V33.4367Z" fill="var(--sapContent_Illustrative_Color19)"/>
<path d="M23.1739 33.4319V26.5531H18.3012H13.0379H11.2555H4.5294H0.0471191V33.4319H23.2022H23.1739Z" fill="var(--sapContent_Illustrative_Color18)"/>
<path d="M11.2367 26.5531C12.0786 24.4362 11.881 21.0417 11.5423 17.9205C11.4436 17.0294 11.3213 16.1713 11.1613 15.3651C12.4229 15.0065 13.5389 14.2573 14.3502 13.2246C15.9916 11.2774 16.4385 8.95304 15.3473 8.03839C14.2561 7.12374 12.0549 7.94418 10.4088 9.89135C10.1029 10.2564 9.83222 10.6494 9.5999 11.0653C9.26296 10.4996 8.76914 10.0442 8.17877 9.75461C7.58841 9.465 6.92681 9.35367 6.27445 9.43404C2.66694 9.82536 2.39422 13.9932 2.93981 18.9766C3.25964 21.8997 3.41006 24.7238 4.49184 26.5625L11.2367 26.5531Z" fill="var(--sapContent_Illustrative_Color18)"/>
<path d="M70.1425 179.399L24.519 180.106C24.2391 180.111 23.9688 180.005 23.7669 179.811C23.565 179.616 23.4481 179.35 23.4419 179.069L21.8428 113.898C21.8396 113.755 21.8652 113.612 21.9181 113.479C21.971 113.346 22.05 113.226 22.1505 113.124C22.2511 113.022 22.3711 112.942 22.5033 112.888C22.6355 112.834 22.7771 112.807 22.9199 112.809L68.5716 113.374C68.847 113.378 69.1104 113.489 69.306 113.683C69.5017 113.877 69.6144 114.14 69.6204 114.416L71.1867 178.31C71.1905 178.451 71.1664 178.59 71.1158 178.721C71.0651 178.853 70.989 178.972 70.8918 179.073C70.7947 179.175 70.6783 179.256 70.5496 179.312C70.421 179.368 70.2827 179.397 70.1425 179.399V179.399Z" fill="var(--sapContent_Illustrative_Color19)"/>
<path d="M73.0588 176.236L27.4353 176.948C27.1579 176.955 26.8887 176.852 26.6868 176.661C26.485 176.471 26.3668 176.207 26.3582 175.929L24.7871 111.852C24.7852 111.71 24.8118 111.569 24.8654 111.438C24.919 111.306 24.9984 111.187 25.099 111.087C25.1995 110.987 25.3191 110.909 25.4506 110.856C25.5821 110.804 25.7227 110.778 25.8642 110.781L71.5159 111.319C71.7893 111.319 72.0519 111.426 72.2478 111.617C72.4437 111.808 72.5574 112.068 72.5648 112.342L74.1076 175.161C74.1095 175.3 74.0838 175.439 74.0321 175.569C73.9803 175.699 73.9033 175.817 73.8058 175.917C73.7084 176.017 73.5923 176.096 73.4641 176.151C73.3359 176.206 73.1981 176.234 73.0588 176.236V176.236Z" fill="var(--sapContent_Illustrative_Color18)"/>
<path d="M68.026 169.319L33.1545 169.847C32.9353 169.845 32.7262 169.756 32.5721 169.599C32.418 169.443 32.3314 169.232 32.3314 169.013L31.0474 116.717C31.0423 116.605 31.0598 116.493 31.0988 116.388C31.1378 116.283 31.1975 116.187 31.2743 116.106C31.3511 116.024 31.4435 115.959 31.546 115.915C31.6484 115.87 31.7587 115.846 31.8705 115.845L66.7654 116.345C66.9808 116.352 67.1849 116.443 67.3342 116.599C67.4835 116.755 67.5664 116.963 67.565 117.179L68.8256 168.447C68.8307 168.557 68.814 168.667 68.7765 168.77C68.739 168.874 68.6813 168.969 68.607 169.05C68.5327 169.131 68.4431 169.197 68.3433 169.243C68.2436 169.289 68.1357 169.315 68.026 169.319V169.319Z" fill="var(--sapContent_Illustrative_Color7)"/>
<path d="M30.9769 117.071L66.4598 117.5L67.9884 169.385L69.0091 169.258L67.5981 115.982L30.991 115.864L30.9769 117.071Z" fill="var(--sapContent_Illustrative_Color19)"/>
<path d="M59.889 152.375C59.4751 151.611 59.1035 151.007 58.9483 150.654C58.7319 150.121 58.5484 149.687 58.3838 149.286C58.4747 149.239 58.5541 149.172 58.6166 149.091C58.6792 149.009 58.7234 148.915 58.7459 148.815L60.3357 140.593C60.6756 139.03 60.6449 137.409 60.2459 135.861C59.8468 134.312 59.0907 132.879 58.0384 131.677C56.986 130.475 55.6666 129.537 54.1867 128.939C52.7068 128.341 51.1076 128.1 49.5177 128.235L46.1596 128.518C45.2463 128.593 44.3619 128.876 43.5739 129.345C42.7858 129.814 42.1145 130.457 41.6112 131.224H39.6735C39.2173 131.224 38.7653 131.313 38.3436 131.488C37.9219 131.662 37.5388 131.919 37.2159 132.242C36.8931 132.565 36.6369 132.949 36.4622 133.371C36.2875 133.794 36.1976 134.247 36.1976 134.704C36.1976 134.993 36.3122 135.27 36.5159 135.474C36.7197 135.678 36.996 135.793 37.2842 135.793H38.3094C37.4533 136.439 37.0161 137.33 37.2747 138.108C37.6228 139.15 39.0856 139.607 40.6142 139.183C40.1204 141.069 40.1861 143.379 40.1861 145.906C40.1861 152.035 43.6902 157.033 48.0079 157.033C48.7043 157.029 49.3909 156.868 50.0163 156.561C50.0728 157.438 50.1104 158.023 50.1245 158.447C50.2186 160.757 55.4111 159.013 57.1514 157.928C59.4655 156.486 60.8767 153.902 60.3593 153.171C60.1835 152.917 60.0263 152.651 59.889 152.375V152.375Z" fill="var(--sapContent_Illustrative_Color18)"/>
</svg>
