<svg width="160" height="143" viewBox="0 0 160 143" fill="none" xmlns="http://www.w3.org/2000/svg" id="sapIllus-Dialog-NewMail">
<path d="M1.04419 83.1591C1.08652 83.406 1.13238 83.6564 1.17471 83.9034V83.1661L1.04419 83.1591Z" fill="var(--sapContent_Illustrative_Color7)"/>
<path d="M32.496 130.689C43.9194 138.086 57.2352 142.028 70.8442 142.041V130.689H32.496Z" fill="var(--sapContent_Illustrative_Color7)"/>
<path d="M14.4842 80.0511C12.8666 79.882 11.369 79.1196 10.2805 77.9112C9.19189 76.7027 8.58953 75.1339 8.58963 73.5075V63.3657C8.58963 61.6209 9.28277 59.9475 10.5166 58.7137C11.7503 57.48 13.4237 56.7868 15.1686 56.7868C16.9134 56.7868 18.5868 57.48 19.8206 58.7137C21.0543 59.9475 21.7475 61.6209 21.7475 63.3657V73.5075C21.7464 75.1478 21.1326 76.7285 20.0265 77.9397C18.9204 79.1508 17.4017 79.9052 15.7682 80.0547V85.4554C32.9263 83.1096 51.8341 81.8679 73.9732 84.7887C99.2623 88.1399 105.104 93.7593 136.436 98.6944C140.139 89.9401 142.042 80.5296 142.031 71.0241C142.031 31.7975 110.233 0 71.01 0C32.175 0 0.627907 31.1696 0 69.8459C0.486521 69.7142 0.988149 69.6466 1.49217 69.6448C3.02744 69.6448 4.49982 70.2547 5.58542 71.3403C6.67102 72.4259 7.28091 73.8983 7.28091 75.4336V77.3878C7.28242 78.8475 6.73211 80.2538 5.74032 81.3247C4.74853 82.3956 3.38858 83.0521 1.93311 83.1625V87.4873C1.93311 87.519 1.95075 87.5472 1.95781 87.579C6.04273 86.8982 10.2088 86.2315 14.4877 85.6318L14.4842 80.0511Z" fill="var(--sapContent_Illustrative_Color7)"/>
<path d="M84.1255 140.835C93.1828 139.144 101.822 135.697 109.556 130.689H84.1255V140.835Z" fill="var(--sapContent_Illustrative_Color7)"/>
<path d="M15.1297 66.8052C15.2997 66.8061 15.4625 66.874 15.5827 66.9942C15.7029 67.1144 15.7708 67.2772 15.7717 67.4472V80.0547C17.4052 79.9052 18.9239 79.1509 20.03 77.9397C21.1361 76.7285 21.7499 75.1478 21.751 73.5075V63.3658C21.751 61.6209 21.0578 59.9476 19.824 58.7138C18.5903 57.48 16.9169 56.7869 15.1721 56.7869C13.4272 56.7869 11.7538 57.48 10.5201 58.7138C9.28628 59.9476 8.59314 61.6209 8.59314 63.3658V73.5075C8.59304 75.134 9.19539 76.7028 10.2839 77.9112C11.3725 79.1196 12.8701 79.882 14.4877 80.0512V67.4472C14.4886 67.2772 14.5566 67.1144 14.6768 66.9942C14.797 66.874 14.9597 66.8061 15.1297 66.8052Z" fill="var(--sapContent_Illustrative_Color18)"/>
<path d="M15.7718 67.4471C15.7709 67.2771 15.703 67.1143 15.5828 66.9941C15.4626 66.8739 15.2998 66.806 15.1298 66.8051C14.9592 66.8051 14.7955 66.8726 14.6746 66.9929C14.5536 67.1132 14.4852 67.2765 14.4843 67.4471V85.6317L15.7718 85.4553V67.4471Z" fill="var(--sapContent_Illustrative_Color19)"/>
<path d="M1.17464 77.5467C1.17464 77.4973 1.18443 77.4484 1.20344 77.4028C1.22245 77.3572 1.25031 77.3158 1.2854 77.281C1.3205 77.2463 1.36214 77.2188 1.40791 77.2002C1.45369 77.1816 1.50269 77.1723 1.55209 77.1728C1.60149 77.1723 1.65049 77.1816 1.69626 77.2002C1.74204 77.2188 1.78367 77.2463 1.81877 77.281C1.85387 77.3158 1.88173 77.3572 1.90074 77.4028C1.91975 77.4484 1.92954 77.4973 1.92953 77.5467V83.1626C3.3882 83.0582 4.75323 82.4054 5.75 81.3353C6.74676 80.2652 7.3013 78.8574 7.30203 77.395V75.4407C7.30203 74.6805 7.15229 73.9278 6.86138 73.2255C6.57047 72.5231 6.14408 71.885 5.60655 71.3475C5.06901 70.8099 4.43087 70.3835 3.72854 70.0926C3.02622 69.8017 2.27347 69.652 1.51328 69.652C1.00927 69.6538 0.507639 69.7214 0.0211182 69.853C0.0211182 70.2411 0.0211182 70.6326 0.0211182 71.0242C0.0217485 75.0913 0.368705 79.1509 1.05822 83.159H1.18875L1.17464 77.5467Z" fill="var(--sapContent_Illustrative_Color18)"/>
<path d="M1.93313 77.5465C1.93313 77.4971 1.92334 77.4482 1.90433 77.4026C1.88532 77.357 1.85746 77.3157 1.82236 77.2809C1.78727 77.2461 1.74563 77.2187 1.69985 77.2001C1.65408 77.1815 1.60508 77.1722 1.55568 77.1726C1.50627 77.1722 1.45727 77.1815 1.4115 77.2001C1.36572 77.2187 1.32408 77.2461 1.28899 77.2809C1.25389 77.3157 1.22603 77.357 1.20702 77.4026C1.18801 77.4482 1.17822 77.4971 1.17822 77.5465V83.8962C1.39928 85.1003 1.65092 86.2949 1.93313 87.4802V77.5465Z" fill="var(--sapContent_Illustrative_Color19)"/>
<path d="M136.457 98.6943C105.125 93.7557 99.2835 88.1398 73.9943 84.7886C51.8377 81.8678 32.9299 83.1095 15.7894 85.4553L14.5019 85.6317C10.2229 86.2314 6.05685 86.8981 1.97192 87.5789C6.23885 105.338 17.1749 120.774 32.5136 130.689H70.8618V91.6497H84.1255V130.689H109.556C121.519 122.952 130.889 111.808 136.457 98.6943Z" fill="var(--sapContent_Illustrative_Color18)"/>
<path d="M81.8855 91.6498H70.8442V142.041H71.0312C74.665 142.042 78.2936 141.766 81.8855 141.216V91.6498Z" fill="var(--sapContent_Illustrative_Color19)"/>
<path d="M84.1255 91.6498H81.8784V141.219C82.6333 141.103 83.3812 140.972 84.1255 140.835V91.6498Z" fill="var(--sapContent_Illustrative_Color20)"/>
<path d="M53.866 35.491H102.07C109.056 35.491 115.756 38.2661 120.696 43.2059C125.635 48.1457 128.411 54.8454 128.411 61.8313V87.8754C128.411 89.043 127.947 90.1627 127.121 90.9884C126.296 91.814 125.176 92.2778 124.008 92.2778H31.9704C30.8028 92.2778 29.683 91.814 28.8574 90.9884C28.0318 90.1627 27.568 89.043 27.568 87.8754V61.789C27.568 54.8143 30.3387 48.1253 35.2705 43.1935C40.2024 38.2616 46.8914 35.491 53.866 35.491Z" fill="var(--sapContent_Illustrative_Color13)"/>
<path d="M102.776 35.491H103.037C109.904 35.491 116.49 38.2189 121.345 43.0747C126.201 47.9304 128.929 54.5162 128.929 61.3833V86.9229C128.932 87.5056 128.819 88.083 128.597 88.622C128.376 89.1609 128.05 89.6508 127.639 90.0635C127.227 90.4762 126.738 90.8036 126.2 91.0267C125.662 91.25 125.085 91.3646 124.502 91.3641H81.307C80.1338 91.3641 79.0086 90.8981 78.1791 90.0685C77.3495 89.2389 76.8834 88.1138 76.8834 86.9406V61.3798C76.8834 54.5127 79.6114 47.9269 84.4671 43.0711C89.3229 38.2154 95.9087 35.4874 102.776 35.4874V35.491Z" fill="var(--sapContent_Illustrative_Color2)"/>
<path d="M102.497 38.3623H103.231C109.237 38.3623 114.998 40.7483 119.245 44.9955C123.492 49.2426 125.878 55.0029 125.878 61.0093V88.6901H79.8466V61.0269C79.8466 55.0206 82.2326 49.2602 86.4797 45.0131C90.7268 40.766 96.4872 38.3799 102.494 38.3799L102.497 38.3623Z" fill="var(--sapContent_Illustrative_Color14)"/>
<path d="M158.208 88.6902H78.1569C77.1672 88.6902 76.3649 89.4925 76.3649 90.4822V90.4857C76.3649 91.4754 77.1672 92.2777 78.1569 92.2777H158.208C159.198 92.2777 160 91.4754 160 90.4857V90.4822C160 89.4925 159.198 88.6902 158.208 88.6902Z" fill="var(--sapContent_Illustrative_Color13)"/>
<path d="M65.4294 70.4315V19.4475H65.4117C65.8299 19.4475 66.231 19.6136 66.5267 19.9094C66.8224 20.2051 66.9886 20.6061 66.9886 21.0243V70.6184C66.9876 72.0097 66.4348 73.3437 65.4514 74.3278C64.468 75.3119 63.1343 75.8656 61.7431 75.8675C61.4795 75.8649 61.2166 75.8425 60.9564 75.8004C62.2163 75.5786 63.3569 74.9177 64.1757 73.9348C64.9946 72.9519 65.4387 71.7107 65.4294 70.4315Z" fill="var(--sapContent_Illustrative_Color15)"/>
<path d="M65.4294 19.4264H48.0738C47.5658 19.4264 47.0786 19.6282 46.7194 19.9874C46.3601 20.3466 46.1583 20.8338 46.1583 21.3419V28.6792C46.1583 29.1872 46.3601 29.6744 46.7194 30.0336C47.0786 30.3929 47.5658 30.5947 48.0738 30.5947H54.9349V31.5401V70.6185C54.9358 71.3144 55.0748 72.0032 55.344 72.645C55.6132 73.2867 56.0072 73.8687 56.503 74.357C56.9989 74.8453 57.5867 75.2302 58.2325 75.4895C58.8784 75.7488 59.5692 75.8773 60.2651 75.8675C60.5015 75.8621 60.7373 75.8397 60.9706 75.8005C62.2279 75.5757 63.3652 74.9135 64.1812 73.9309C64.9972 72.9483 65.4394 71.7087 65.4294 70.4315V19.4476V19.4264Z" fill="var(--sapContent_Illustrative_Color3)"/>
<path d="M112.223 86.69L113.986 66.4664L92.7186 77.0668C92.2609 77.3023 91.7536 77.4251 91.2388 77.4251C90.7241 77.4251 90.2167 77.3023 89.759 77.0668L79.8395 71.7754V88.4644H110.282C110.767 88.4574 111.232 88.273 111.59 87.9459C111.947 87.6189 112.173 87.172 112.223 86.69Z" fill="var(--sapContent_Illustrative_Color8)"/>
<path d="M92.7257 77.0668L113.993 66.4665C114.015 66.2411 113.989 66.0136 113.917 65.7989C113.845 65.5842 113.729 65.3872 113.575 65.2207C113.422 65.0542 113.235 64.922 113.026 64.8327C112.818 64.7435 112.594 64.6992 112.367 64.7027H79.8466V71.8002L89.7661 77.0915C90.2258 77.3232 90.7341 77.4418 91.2489 77.4375C91.7637 77.4332 92.27 77.3062 92.7257 77.0668Z" fill="var(--sapContent_Illustrative_Color6)"/>
</svg>
