<svg width="320" height="209" viewBox="0 0 320 209" fill="none" xmlns="http://www.w3.org/2000/svg" id="sapIllus-Scene-SimpleCheckMark">
<path d="M173.081 0H33.2126C14.8698 0 0 14.8979 0 33.2753V33.28C0 51.6574 14.8698 66.5553 33.2126 66.5553H173.081C191.424 66.5553 206.294 51.6574 206.294 33.28V33.2753C206.294 14.8979 191.424 0 173.081 0Z" fill="var(--sapContent_Illustrative_Color7)"/>
<path d="M286.787 27.4795H146.919C128.576 27.4795 113.706 42.3773 113.706 60.7548V60.7595C113.706 79.1369 128.576 94.0348 146.919 94.0348H286.787C305.13 94.0348 320 79.1369 320 60.7595V60.7548C320 42.3773 305.13 27.4795 286.787 27.4795Z" fill="var(--sapContent_Illustrative_Color7)"/>
<path d="M171.106 115.17H50.1883C34.29 115.17 21.4019 128.083 21.4019 144.011V144.115C21.4019 160.043 34.29 172.956 50.1883 172.956H171.106C187.004 172.956 199.892 160.043 199.892 144.115V144.011C199.892 128.083 187.004 115.17 171.106 115.17Z" fill="var(--sapContent_Illustrative_Color7)"/>
<path d="M224.586 150.929H103.669C87.7707 150.929 74.8826 163.842 74.8826 179.77V179.874C74.8826 195.802 87.7707 208.714 103.669 208.714H224.586C240.485 208.714 253.373 195.802 253.373 179.874V179.77C253.373 163.842 240.485 150.929 224.586 150.929Z" fill="var(--sapContent_Illustrative_Color7)"/>
<path d="M174.76 160.17C203.588 160.17 226.957 136.757 226.957 107.875C226.957 78.9929 203.588 55.5796 174.76 55.5796C145.933 55.5796 122.563 78.9929 122.563 107.875C122.563 136.757 145.933 160.17 174.76 160.17Z" fill="var(--sapContent_Illustrative_Color8)"/>
<path d="M174.76 32.9929C133.65 32.9929 100.014 66.6923 100.014 107.88C100.014 149.068 133.65 182.762 174.76 182.762C215.871 182.762 249.506 149.068 249.506 107.88C249.506 66.6923 215.875 32.9929 174.76 32.9929ZM209.892 90.6556L165.043 135.566C164.368 136.276 163.556 136.842 162.657 137.228C161.757 137.614 160.789 137.814 159.81 137.814C158.831 137.814 157.863 137.614 156.963 137.228C156.064 136.842 155.252 136.276 154.577 135.566L139.629 120.609C138.24 119.218 137.46 117.332 137.46 115.365C137.459 113.398 138.239 111.512 139.626 110.121C141.014 108.73 142.897 107.948 144.86 107.948C146.823 107.947 148.706 108.728 150.094 110.118L159.812 119.855L199.412 80.1702C200.8 78.7798 202.683 77.9986 204.645 77.9986C206.608 77.9986 208.49 78.7798 209.878 80.1702C211.266 81.5607 212.046 83.4465 212.046 85.4129C212.046 87.3793 211.266 89.2652 209.878 90.6556H209.892Z" fill="var(--sapContent_Illustrative_Color12)"/>
<path d="M175.028 195.618C126.741 195.618 87.4648 156.258 87.4648 107.879C87.4648 59.5004 126.741 20.1365 175.028 20.1365C223.316 20.1365 262.606 59.4957 262.606 107.879C262.606 156.263 223.316 195.618 175.028 195.618ZM175.028 24.8349C129.328 24.8207 92.1403 62.0876 92.1403 107.879C92.1403 153.671 129.328 190.924 175.028 190.924C220.729 190.924 257.917 153.666 257.917 107.879C257.917 62.0923 220.734 24.8207 175.028 24.8207V24.8349Z" fill="var(--sapContent_Illustrative_Color12)"/>
</svg>
