<svg width="160" height="160" viewBox="0 0 160 160" fill="none" xmlns="http://www.w3.org/2000/svg" id="sapIllus-Dialog-UploadToCloud">
<rect y="51" width="160" height="69" rx="12" fill="var(--sapContent_Illustrative_Color20)"/>
<path d="M106.953 109.381C105.715 109.381 104.532 109.432 103.43 109.519C102.253 107.398 90.8149 105.739 76.8701 105.739C66.3117 105.739 57.1886 106.692 52.8672 108.075C51.6188 108.015 50.2946 107.984 48.9249 107.984C41.2474 107.984 35.0205 108.989 35.0205 110.23C35.0205 111.471 41.2474 112.475 48.9249 112.475C51.1033 112.475 53.1604 112.393 54.9951 112.251C59.8169 113.324 67.8128 114.026 76.8701 114.026C85.0631 114.026 92.3918 113.453 97.2844 112.548C98.7956 113.414 102.551 114.026 106.953 114.026C112.69 114.026 117.345 112.988 117.345 111.704C117.345 110.419 112.695 109.381 106.953 109.381Z" fill="var(--sapContent_Illustrative_Color21)"/>
<path d="M48.9099 99.1695C41.1582 99.4249 39.1286 97.177 34.6188 95.2495C30.1091 93.3221 28.9804 88.7055 30.8893 86.2764C32.7982 83.8474 34.9857 83.5966 37.5309 85.4451C40.0761 87.2936 40.5777 87.1821 40.5777 85.7655C40.5777 84.349 40.4755 79.9089 44.3118 79.3051C44.3118 79.3051 40.2526 70.5131 46.504 67.0808C52.7555 63.6486 54.4461 66.073 56.5175 66.2681C58.5889 66.4631 57.0841 62.0695 61.6403 58.3446C66.1966 54.6197 70.1583 57.137 70.1583 57.137C70.1583 57.137 71.8535 49.404 79.777 49.6502C87.7004 49.8963 88.3321 56.7283 88.3321 56.7283C88.3321 56.7283 96.2834 56.0967 99.0655 60.574C101.847 65.0512 101.453 68.9015 101.453 68.9015C101.453 68.9015 102.99 68.6553 102.516 70.5735C102.516 70.5735 105.6 66.6396 110.728 68.5531C115.855 70.4667 113.974 77.7074 113.974 77.7074C113.974 77.7074 115.758 76.8575 117.063 77.9628C118.368 79.0682 117.193 82.663 117.193 82.663C117.193 82.663 120.133 80.991 122.631 82.4401C125.135 83.8938 125.149 87.6001 123.923 89.0678C122.692 90.5354 120.249 91.8498 120.249 91.8498C120.249 91.8498 125.994 91.2367 128.655 94.2324C131.317 97.2281 127.536 98.2684 123.291 98.5239C119.046 98.7793 114.796 100.707 110.542 100.999C106.288 101.292 86.8226 100.632 82.206 100.089C77.5894 99.5457 71.5005 101.041 67.1533 101.069C62.8061 101.097 54.7108 98.9744 48.9006 99.1648L48.9099 99.1695Z" fill="var(--sapContent_Illustrative_Color8)"/>
<path d="M114.102 81.9845C114.288 82.1377 114.228 82.4303 114 82.5C112.621 82.8994 110.5 82.5 108.577 85.1474C106.612 88.8583 100.379 89.1927 103.51 87.6322C105.697 86.5408 107.671 84.1396 107.286 81.3947C107.072 79.8852 105.939 79.2025 105.293 78.8077C104.773 78.4872 105.038 78.1157 105.572 78.2132C106.547 78.3897 107.82 79.1932 108.999 80.6934C109.719 81.6037 112.367 79.2629 113.481 78.2039C113.588 78.1018 113.765 78.2039 113.718 78.3479C113.486 79.0771 113.085 81.1438 114.102 81.9845Z" fill="var(--sapContent_Illustrative_Color2)"/>
<path d="M63.0428 68.7956C64.2688 69.968 66.837 65.685 69.0089 66.3346C70.478 66.5406 71.7516 68.1038 73.395 68.5052C74.3198 68.7639 75.419 68.7006 76.1905 68.1144C77.11 67.3908 77.1893 66.2184 76.7137 65.1094C75.7202 62.9811 72.9511 61.7241 70.6471 62.0516C68.9191 62.2998 67.8939 63.8472 66.4512 64.9562C65.3045 65.9913 62.7733 66.9631 63.0163 68.7587L63.0375 68.8009L63.0428 68.7956Z" fill="var(--sapContent_Illustrative_Color2)"/>
<path d="M53.0913 78.3808C50.221 81.1071 48.7199 78.883 45.5616 79.1338C41.6046 79.4449 46.9194 78.8828 46.9194 82.3307C46.9194 83.5893 42.3632 86.0416 39.5022 88.0109C36.6412 89.9801 39.9156 93.8536 41.0952 90.0684C42.2749 86.2831 44.8062 85.1499 48.5403 84.7737C52.1015 84.4136 54.8482 78.3814 61.3739 80.8913C62.0515 79.7853 57.1512 78.6324 57.1512 76.8827C57.1512 74.114 58.3621 74.1146 59.868 72.8597C60.8759 71.4524 57.755 66.256 57.1512 69.8474C56.5474 72.8663 55.2053 76.3729 53.0913 78.3808Z" fill="var(--sapContent_Illustrative_Color2)"/>
<path d="M79.8086 54.0112C79.5949 52.237 82.911 52.1908 83.4404 56.7749C83.4404 56.7749 84.2163 56.6216 85.5771 56.7749C87.8158 57.0304 92.3381 58.4602 92.9326 59.8628C93.6032 61.4451 93.5367 63.0562 93.1533 64.3608C93.1398 64.4514 93.127 64.5435 93.1162 64.6362C92.9139 66.3703 93.2918 68.0879 94.6758 69.1655C96.3332 70.4509 98.854 71.8404 98.3076 72.9946C96.8907 75.987 92.1367 73.6187 92.1367 73.6187L88.0615 70.4458C88.0665 70.432 88.8789 68.1621 89.9414 66.23C88.7464 64.9351 87.371 62.5202 86.6729 61.6089C85.6234 60.2396 84.7224 62.0321 85.3213 63.2349C85.9204 64.4378 83.2129 63.1184 81.8613 61.0005C80.51 58.8833 79.0887 60.3458 76.9248 59.4917C73.5623 58.1634 80.3001 58.1632 79.8037 54.0161L79.8086 54.0112Z" fill="var(--sapContent_Illustrative_Color2)"/>
<path d="M77.1552 90.7939C75.99 91.0128 74.956 90.3071 73.9658 89.6834C73.0905 89.1309 72.9757 88.0477 72.8553 87.1615L67.3683 51.4603C67.0236 49.1298 67.0072 48.5226 68.0248 47.4011C68.3147 47.0838 69.0915 46.5696 69.5456 46.4C70.0544 46.214 70.3826 46.1976 70.8695 46.1538L84.9946 45.0104C87.2211 44.8408 88.3645 46.7118 88.5614 48.4131L92.544 83.1132C92.5933 84.7489 91.8547 86.04 90.5801 86.6746L77.1552 90.7939Z" fill="var(--sapContent_Illustrative_Color17)"/>
<path d="M68.1727 50.345L74.0754 88.4806C74.349 90.2367 75.9464 91.2159 77.6259 90.6853L90.159 86.7191C91.6033 86.265 92.5989 84.602 92.4129 82.9936L88.3373 48.31C88.1185 46.4664 86.6633 45.0659 85.0604 45.1972L71.0447 46.3515C69.1574 46.5047 67.8554 48.3045 68.1727 50.3505V50.345Z" fill="var(--sapContent_Illustrative_Color9)"/>
<path d="M85.1694 45.9849L82.0511 46.2529L82.3137 48.3153C82.3739 48.8022 82.0785 49.2289 81.6572 49.2782L75.9295 49.8635C75.4755 49.9073 75.0433 49.5353 74.9722 49.032L74.6713 46.893L71.181 47.1939C69.7368 47.3197 68.7466 48.6928 68.9818 50.2574L74.808 88.2617C75.0105 89.6075 76.2359 90.3624 77.5269 89.9576L90.0874 86.0297C91.198 85.685 91.9693 84.4049 91.8216 83.1631L87.6913 48.3591C87.5217 46.9367 86.4003 45.87 85.1694 45.9739V45.9849Z" fill="var(--sapContent_Illustrative_Color8)"/>
<path d="M79.6002 48.0961L76.8923 48.3533C76.6953 48.3751 76.5093 48.2165 76.482 48.0141C76.4546 47.8062 76.5914 47.6257 76.7938 47.6038L79.5072 47.3576C79.6987 47.3357 79.8792 47.4944 79.9066 47.6968C79.9339 47.8992 79.7972 48.0797 79.6057 48.1016L79.6002 48.0961Z" fill="var(--sapContent_Illustrative_Color22)"/>
<path d="M80.766 47.9756C80.9356 47.9428 81.0396 47.7623 81.0013 47.5653C80.963 47.3684 80.7934 47.2371 80.6238 47.2699C80.4542 47.3027 80.3448 47.4833 80.3886 47.6802C80.4323 47.8772 80.5965 48.0085 80.7715 47.9756H80.766Z" fill="var(--sapContent_Illustrative_Color22)"/>
<path d="M68.3151 58.4632L68.9004 62.2543C68.9497 62.6044 68.7363 62.681 68.8238 62.7138L69.0044 62.7576C69.3545 62.6919 69.6444 62.6482 69.5897 62.2051L68.9989 58.1513C68.9168 57.752 68.5831 57.6371 68.2275 57.7137L68.1947 57.845C67.954 57.9216 68.2604 58.113 68.3096 58.4686L68.3151 58.4632Z" fill="var(--sapContent_Illustrative_Color9)"/>
<path d="M67.9973 58.3751L68.5607 62.2866C68.6045 62.5601 68.6483 62.7406 68.8999 62.7625C69.1625 62.7187 69.3868 62.7133 69.343 62.4397L68.6975 58.1508C68.6537 57.8718 68.4951 57.6749 68.227 57.7077C67.9699 57.7624 67.9535 58.0906 67.9973 58.3696V58.3751Z" fill="var(--sapContent_Illustrative_Color17)"/>
<path d="M83.9271 66.9526C83.9764 67.3355 84.2937 67.5981 84.6383 67.5325V67.5434C84.9829 67.4777 85.2237 67.1112 85.1744 66.7283L84.6985 62.8059L85.6066 63.5772C85.8801 63.807 86.2685 63.7359 86.4764 63.424C86.6788 63.1122 86.6296 62.6691 86.3615 62.4339L84.2444 60.6176C84.1186 60.4973 83.949 60.448 83.7794 60.4754C83.6044 60.5027 83.4731 60.5957 83.3746 60.7325L81.7061 63.2216C81.4927 63.5444 81.5474 63.9984 81.8319 64.2337C82.1163 64.4634 82.5212 64.3923 82.74 64.075L83.4457 63.0192L83.9326 66.9635V66.9526H83.9271Z" fill="var(--sapContent_Illustrative_Color17)"/>
<path d="M77.5326 72.6096L84.3872 71.138C86.1433 70.7605 87.314 68.9114 87.0733 66.9147C87.0295 66.5372 86.7177 66.2801 86.384 66.3403C86.0503 66.4059 85.8096 66.767 85.8534 67.1499C86.0011 68.3917 85.2899 69.5296 84.2122 69.7484L77.3302 71.1763C76.4877 71.3513 75.6835 70.7277 75.5522 69.7813C75.4154 68.8294 76.0117 67.9267 76.8651 67.7626L77.4122 67.6587C77.7787 67.5876 78.0359 67.2046 77.9866 66.8107C77.7897 65.3501 78.4954 63.9551 79.6497 63.512C79.9998 63.3752 80.1858 62.9594 80.0655 62.5819C79.9451 62.1935 79.5676 61.9966 79.223 62.1224C77.642 62.7242 76.6026 64.431 76.5916 66.3293C75.0161 66.6521 73.922 68.2823 74.1791 70.0603C74.4307 71.8218 75.9516 72.9542 77.5326 72.615V72.6096Z" fill="var(--sapContent_Illustrative_Color17)"/>
<path d="M82.4691 77.7949C80.6599 77.2866 78.7809 78.6149 78.5 82.5C78.2191 86.3851 73.5 81 73.5 81L76.8866 86.7213L83.9957 86.4008L95.3004 80.6493C95.697 78.4677 94.6138 71.8885 93.6619 71.7298C92.4719 71.5315 90.0391 71.7299 87.6788 76.2075C86.278 78.865 84.3087 78.3117 82.4907 77.8009L82.4691 77.7949Z" fill="var(--sapContent_Illustrative_Color2)"/>
<path d="M103.322 81.824C103.715 78.1587 99.5796 71.2001 94.3388 72.0754C89.0979 72.9507 87.5771 79.4881 87.2653 81.0199C86.9535 82.5516 87.1176 84.2803 85.832 81.9663C84.0978 78.848 79.6502 79.4826 79.2837 82.8963C79.0703 84.8712 78.8132 86.66 77.2924 85.6097C75.9576 84.6906 75.8919 82.8306 73.8404 81.173C71.0832 78.952 67.3523 80.3689 66.2801 82.4094C65.2078 84.4499 67.5602 94.204 67.5602 94.204L84.0322 97.5739L99.2734 91.218L103.322 81.8186V81.824Z" fill="var(--sapContent_Illustrative_Color8)"/>
<path d="M48.9104 99.1697C54.7206 98.9793 62.8159 101.097 67.1632 101.074C71.5104 101.051 77.5993 99.5552 82.2159 100.094C86.8325 100.637 106.297 101.292 110.552 101.004C114.801 100.716 119.056 98.7795 123.301 98.5287C126.728 98.3244 129.854 97.6045 129.529 95.756C127.797 97.3305 125.865 97.3862 123.682 96.1322C121.229 94.7249 119.79 92.6117 118.508 92.9786C114.611 94.1072 114.569 96.4945 111.183 96.2855C107.793 96.0718 105.359 96.7499 102.819 98.2315C100.278 99.7131 94.5562 96.5363 89.4705 96.1183C84.3848 95.7003 81.4845 95.7129 78.303 94.2313C75.1262 92.7497 74.8058 91.4461 72.2652 91.6597C69.7247 91.8734 68.6193 94.0177 65.2985 94.2313C61.8152 93.5348 60.1571 94.9142 57.4029 97.0181C54.6488 99.1221 50.9075 95.2637 50.0576 92.9461C49.2123 90.6285 46.8808 88.6964 44.7629 91.6596C42.645 94.6274 39.6772 94.8364 34.624 95.2451C39.1292 97.1726 41.1634 99.4158 48.915 99.165L48.9104 99.1697Z" fill="var(--sapContent_Illustrative_Color2)"/>
</svg>