<svg width="320" height="196" viewBox="0 0 320 196" fill="none" xmlns="http://www.w3.org/2000/svg" id="sapIllus-Scene-SimpleCalendar">
<path d="M130.573 102.733H33.96C18.1941 102.733 5.41333 115.514 5.41333 131.28C5.41333 147.046 18.1941 159.827 33.96 159.827H130.573C146.339 159.827 159.12 147.046 159.12 131.28C159.12 115.514 146.339 102.733 130.573 102.733Z" fill="var(--sapContent_Illustrative_Color7)"/>
<path d="M165.747 131.067H69.1333C53.3674 131.067 40.5867 143.848 40.5867 159.613C40.5867 175.379 53.3674 188.16 69.1333 188.16H165.747C181.513 188.16 194.293 175.379 194.293 159.613C194.293 143.848 181.513 131.067 165.747 131.067Z" fill="var(--sapContent_Illustrative_Color7)"/>
<path d="M291.453 52.1201H194.84C179.074 52.1201 166.293 64.9009 166.293 80.6668C166.293 96.4327 179.074 109.213 194.84 109.213H291.453C307.219 109.213 320 96.4327 320 80.6668C320 64.9009 307.219 52.1201 291.453 52.1201Z" fill="var(--sapContent_Illustrative_Color7)"/>
<path d="M219.453 0H37.8267C16.9356 0 0 16.9356 0 37.8267V37.84C0 58.7311 16.9356 75.6667 37.8267 75.6667H219.453C240.344 75.6667 257.28 58.7311 257.28 37.84V37.8267C257.28 16.9356 240.344 0 219.453 0Z" fill="var(--sapContent_Illustrative_Color7)"/>
<path d="M125.514 80.7052H125.292L124.788 66.2204H119.277C119.017 66.2203 118.759 66.2724 118.52 66.3738C118.28 66.4751 118.063 66.6236 117.882 66.8104C117.701 66.9971 117.559 67.2184 117.465 67.461C117.371 67.7037 117.326 67.9628 117.334 68.2229L121.702 193.84C121.72 194.341 121.931 194.817 122.292 195.165C122.654 195.514 123.136 195.709 123.638 195.709H285.648C285.908 195.709 286.165 195.657 286.404 195.555C286.643 195.454 286.86 195.305 287.041 195.118C287.221 194.931 287.362 194.71 287.456 194.467C287.549 194.225 287.592 193.966 287.583 193.706L287.361 187.239H131.106C130.604 187.239 130.12 187.045 129.758 186.696C129.396 186.348 129.182 185.872 129.163 185.37L125.514 80.7052Z" fill="var(--sapContent_Illustrative_Color6)"/>
<path d="M291.402 80.7053H125.514L129.163 185.37C129.182 185.872 129.395 186.348 129.758 186.696C130.12 187.045 130.603 187.239 131.106 187.239H293.108C293.369 187.239 293.627 187.187 293.867 187.085C294.108 186.983 294.325 186.834 294.506 186.646C294.687 186.459 294.829 186.237 294.923 185.993C295.016 185.75 295.06 185.49 295.051 185.229L291.402 80.7053ZM145.686 92.8168C145.686 92.1165 145.965 91.4449 146.46 90.9498C146.955 90.4546 147.627 90.1764 148.327 90.1764H197.104C197.451 90.1755 197.795 90.243 198.116 90.3753C198.438 90.5075 198.73 90.7019 198.976 90.9472C199.221 91.1924 199.417 91.4838 199.55 91.8047C199.683 92.1255 199.751 92.4694 199.751 92.8168V92.8168C199.749 93.5177 199.47 94.1893 198.973 94.6842C198.477 95.1792 197.805 95.4571 197.104 95.4571H148.327C147.627 95.4552 146.957 95.1764 146.462 94.6816C145.967 94.1869 145.688 93.5164 145.686 92.8168ZM156.069 164.492L149.358 106.738L252.355 110.253L252.748 159.73L156.069 164.492Z" fill="var(--sapContent_Illustrative_Color2)"/>
<path d="M125.515 80.7053H291.766L291.025 59.2933C291.007 58.7915 290.796 58.3161 290.435 57.9674C290.074 57.6187 289.591 57.424 289.089 57.4243H254.974L255.248 65.2415C255.778 65.6488 256.212 66.1674 256.52 66.7608C256.827 67.3541 257.001 68.0077 257.028 68.6754C257.058 69.2332 256.975 69.7913 256.783 70.316C256.592 70.8407 256.295 71.3211 255.913 71.728C255.53 72.135 255.069 72.4601 254.557 72.6837C254.045 72.9073 253.493 73.0248 252.934 73.029C251.781 73.0139 250.679 72.5515 249.86 71.7393C249.041 70.9271 248.569 69.8286 248.544 68.6754C248.519 68.0372 248.639 67.4016 248.896 66.8169C249.153 66.2322 249.54 65.7137 250.027 65.3008L249.753 57.4243H162.856L163.13 65.2785C163.653 65.6832 164.081 66.1978 164.384 66.7861C164.686 67.3743 164.856 68.0218 164.88 68.6828C164.913 69.2405 164.831 69.7989 164.641 70.3241C164.45 70.8492 164.155 71.3301 163.772 71.7374C163.39 72.1447 162.929 72.4699 162.417 72.6932C161.905 72.9166 161.353 73.0333 160.794 73.0364C159.643 73.0123 158.545 72.5472 157.727 71.7371C156.908 70.927 156.432 69.8337 156.396 68.6828C156.37 68.0412 156.49 67.402 156.747 66.8135C157.003 66.225 157.391 65.7026 157.88 65.286L157.605 57.4243H126.457C126.197 57.4241 125.939 57.4763 125.7 57.5777C125.461 57.6792 125.244 57.8277 125.064 58.0146C124.883 58.2015 124.742 58.4229 124.649 58.6655C124.555 58.9081 124.512 59.167 124.521 59.4268L124.758 66.2205L125.263 80.7053H125.515Z" fill="var(--sapContent_Illustrative_Color3)"/>
<path d="M160.772 70.5221H160.623C159.941 70.5188 159.287 70.2525 158.797 69.7785C158.306 69.3046 158.017 68.6597 157.991 67.9782L157.894 65.2859C157.406 65.7026 157.018 66.225 156.761 66.8134C156.504 67.4019 156.385 68.0412 156.411 68.6828C156.447 69.8337 156.923 70.927 157.741 71.7371C158.56 72.5471 159.658 73.0122 160.809 73.0364C161.367 73.0333 161.92 72.9165 162.432 72.6932C162.944 72.4699 163.405 72.1446 163.787 71.7373C164.169 71.33 164.465 70.8492 164.655 70.324C164.846 69.7989 164.927 69.2405 164.895 68.6828C164.87 68.0218 164.701 67.3743 164.398 66.786C164.096 66.1978 163.668 65.6832 163.145 65.2785L163.241 67.9782C163.257 68.31 163.204 68.6415 163.086 68.9521C162.968 69.2627 162.788 69.5459 162.557 69.7843C162.325 70.0226 162.047 70.2111 161.741 70.338C161.434 70.4649 161.104 70.5275 160.772 70.5221V70.5221Z" fill="var(--sapContent_Illustrative_Color5)"/>
<path d="M252.875 70.3886H252.726C252.045 70.3835 251.392 70.1165 250.901 69.643C250.411 69.1694 250.122 68.5256 250.094 67.8446L250.005 65.3007C249.517 65.7136 249.131 66.2321 248.874 66.8168C248.617 67.4015 248.496 68.0371 248.521 68.6753C248.546 69.8286 249.018 70.9271 249.837 71.7393C250.656 72.5514 251.758 73.0138 252.912 73.0289C253.47 73.0247 254.022 72.9073 254.534 72.6837C255.046 72.46 255.507 72.1349 255.89 71.728C256.273 71.321 256.569 70.8407 256.761 70.316C256.952 69.7913 257.036 69.2332 257.006 68.6753C256.978 68.0076 256.804 67.354 256.497 66.7607C256.189 66.1674 255.755 65.6488 255.226 65.2414L255.315 67.8446C255.329 68.1737 255.276 68.5022 255.16 68.8103C255.043 69.1185 254.866 69.3999 254.638 69.6376C254.41 69.8753 254.136 70.0644 253.833 70.1934C253.53 70.3225 253.204 70.3889 252.875 70.3886V70.3886Z" fill="var(--sapContent_Illustrative_Color5)"/>
<path d="M157.991 67.9783C158.017 68.6598 158.306 69.3047 158.796 69.7787C159.287 70.2526 159.941 70.5189 160.623 70.5222H160.772C161.103 70.5256 161.431 70.4614 161.736 70.3336C162.041 70.2058 162.317 70.0171 162.547 69.779C162.777 69.5408 162.956 69.2583 163.072 68.9487C163.189 68.6391 163.242 68.3089 163.227 67.9783L163.13 65.2786L162.856 57.4243L162.581 49.4588C162.553 48.7779 162.263 48.134 161.773 47.6605C161.283 47.1869 160.63 46.92 159.948 46.9149H159.8C159.469 46.9115 159.141 46.9757 158.836 47.1035C158.531 47.2313 158.255 47.42 158.025 47.6581C157.795 47.8963 157.616 48.1788 157.499 48.4884C157.383 48.798 157.33 49.1282 157.345 49.4588L157.62 57.4243L157.894 65.286L157.991 67.9783Z" fill="var(--sapContent_Illustrative_Color6)"/>
<path d="M250.094 67.8446C250.123 68.5255 250.412 69.1694 250.902 69.643C251.392 70.1165 252.045 70.3835 252.727 70.3886H252.875C253.206 70.3909 253.533 70.326 253.838 70.1978C254.143 70.0696 254.418 69.8809 254.648 69.643C254.878 69.405 255.056 69.123 255.174 68.8138C255.291 68.5047 255.344 68.175 255.33 67.8446L255.241 65.2414L254.967 57.4242L254.685 49.3177C254.655 48.6374 254.365 47.9946 253.875 47.5214C253.385 47.0483 252.733 46.7807 252.052 46.7738H251.904C251.573 46.7715 251.245 46.8364 250.941 46.9646C250.636 47.0927 250.36 47.2815 250.131 47.5194C249.901 47.7573 249.722 48.0394 249.605 48.3485C249.488 48.6577 249.435 48.9874 249.449 49.3177L249.731 57.4242L250.005 65.3007L250.094 67.8446Z" fill="var(--sapContent_Illustrative_Color6)"/>
<path d="M144.849 104.787L147.266 173.993C147.284 174.494 147.495 174.97 147.856 175.318C148.218 175.667 148.7 175.862 149.202 175.862H273.329C273.589 175.862 273.846 175.81 274.086 175.708C274.325 175.607 274.541 175.458 274.722 175.271C274.903 175.084 275.044 174.863 275.137 174.62C275.23 174.378 275.274 174.119 275.265 173.859L272.847 104.684C272.83 104.181 272.618 103.705 272.258 103.355C271.897 103.005 271.414 102.809 270.911 102.807H146.784C146.527 102.808 146.272 102.86 146.034 102.961C145.797 103.061 145.582 103.208 145.402 103.392C145.222 103.576 145.08 103.795 144.985 104.034C144.89 104.274 144.844 104.53 144.849 104.787V104.787ZM156.173 116.165C156.162 115.889 156.207 115.615 156.305 115.357C156.403 115.1 156.553 114.865 156.744 114.667C156.935 114.468 157.165 114.311 157.418 114.204C157.672 114.097 157.945 114.042 158.22 114.043H162.388C162.961 114.043 163.512 114.263 163.926 114.658C164.34 115.053 164.587 115.593 164.613 116.165L164.717 119.287C164.728 119.563 164.683 119.839 164.585 120.097C164.486 120.356 164.337 120.591 164.145 120.79C163.953 120.989 163.722 121.147 163.468 121.255C163.213 121.362 162.939 121.417 162.663 121.416H158.502C157.928 121.416 157.377 121.195 156.962 120.798C156.548 120.402 156.302 119.86 156.277 119.287L156.173 116.165ZM156.826 130.761C156.815 130.484 156.86 130.209 156.959 129.95C157.057 129.692 157.207 129.456 157.399 129.258C157.591 129.059 157.821 128.901 158.076 128.793C158.33 128.686 158.604 128.631 158.88 128.632H163.041C163.615 128.632 164.167 128.853 164.581 129.249C164.996 129.646 165.241 130.187 165.266 130.761L165.377 133.883C165.387 134.159 165.341 134.434 165.242 134.691C165.144 134.948 164.994 135.183 164.802 135.381C164.61 135.58 164.38 135.737 164.126 135.844C163.872 135.951 163.599 136.005 163.323 136.004H159.162C158.59 136.005 158.039 135.785 157.625 135.39C157.21 134.995 156.964 134.455 156.937 133.883L156.826 130.761ZM157.508 144.852C157.497 144.576 157.542 144.301 157.641 144.042C157.739 143.784 157.889 143.548 158.081 143.349C158.273 143.15 158.503 142.992 158.758 142.885C159.012 142.777 159.286 142.723 159.563 142.724H163.723C164.297 142.723 164.849 142.944 165.263 143.341C165.678 143.738 165.923 144.279 165.948 144.852L166.052 147.975C166.064 148.251 166.02 148.526 165.922 148.784C165.825 149.043 165.676 149.279 165.485 149.478C165.293 149.677 165.063 149.835 164.809 149.942C164.555 150.05 164.281 150.105 164.005 150.103H159.837C159.263 150.104 158.712 149.883 158.297 149.486C157.882 149.09 157.637 148.548 157.612 147.975L157.508 144.852ZM160.475 164.203C159.902 164.203 159.352 163.983 158.937 163.588C158.523 163.193 158.277 162.653 158.25 162.081L158.139 158.952C158.128 158.676 158.173 158.4 158.271 158.142C158.37 157.885 158.52 157.649 158.712 157.451C158.904 157.253 159.134 157.095 159.389 156.989C159.643 156.882 159.917 156.828 160.193 156.83H164.354C164.926 156.83 165.477 157.05 165.891 157.445C166.306 157.84 166.552 158.38 166.579 158.952L166.69 162.081C166.699 162.357 166.652 162.631 166.553 162.888C166.454 163.145 166.304 163.38 166.112 163.577C165.921 163.775 165.691 163.933 165.437 164.04C165.184 164.147 164.911 164.203 164.636 164.203H160.475ZM172.615 116.224C172.604 115.948 172.649 115.672 172.748 115.414C172.846 115.155 172.996 114.92 173.188 114.721C173.38 114.522 173.61 114.364 173.865 114.256C174.12 114.149 174.393 114.094 174.67 114.095H178.808C179.382 114.095 179.934 114.316 180.348 114.713C180.763 115.109 181.008 115.651 181.033 116.224L181.137 119.346C181.149 119.622 181.105 119.898 181.007 120.156C180.91 120.414 180.761 120.65 180.569 120.849C180.378 121.048 180.148 121.206 179.894 121.314C179.64 121.421 179.366 121.476 179.09 121.475H174.922C174.348 121.476 173.796 121.254 173.382 120.858C172.967 120.461 172.722 119.92 172.697 119.346L172.615 116.224ZM173.268 130.813C173.258 130.537 173.304 130.262 173.403 130.005C173.502 129.747 173.652 129.512 173.843 129.314C174.035 129.116 174.265 128.959 174.519 128.852C174.773 128.745 175.047 128.69 175.322 128.691H179.483C180.056 128.691 180.606 128.911 181.021 129.306C181.435 129.701 181.681 130.241 181.708 130.813L181.819 133.942C181.829 134.218 181.783 134.493 181.684 134.75C181.586 135.008 181.436 135.243 181.244 135.441C181.052 135.639 180.822 135.796 180.568 135.903C180.314 136.01 180.041 136.065 179.765 136.064H175.604C175.032 136.064 174.481 135.844 174.067 135.449C173.652 135.054 173.406 134.514 173.379 133.942L173.268 130.813ZM173.95 144.904C173.939 144.628 173.984 144.352 174.083 144.094C174.181 143.836 174.331 143.6 174.523 143.401C174.715 143.202 174.945 143.044 175.2 142.937C175.454 142.829 175.728 142.774 176.005 142.776H180.165C180.739 142.775 181.291 142.996 181.705 143.393C182.12 143.79 182.365 144.331 182.39 144.904L182.501 148.027C182.511 148.302 182.466 148.577 182.367 148.835C182.268 149.092 182.118 149.327 181.926 149.525C181.734 149.723 181.504 149.88 181.25 149.988C180.996 150.095 180.723 150.149 180.447 150.148H176.287C175.714 150.149 175.163 149.928 174.749 149.533C174.335 149.138 174.088 148.599 174.062 148.027L173.95 144.904ZM176.917 164.254C176.343 164.255 175.791 164.034 175.377 163.637C174.962 163.241 174.717 162.699 174.692 162.126L174.581 159.003C174.57 158.727 174.615 158.452 174.713 158.193C174.812 157.935 174.961 157.699 175.153 157.5C175.345 157.301 175.575 157.143 175.83 157.036C176.085 156.928 176.359 156.874 176.635 156.875H180.796C181.369 156.874 181.921 157.095 182.336 157.492C182.75 157.889 182.996 158.43 183.021 159.003L183.132 162.126C183.143 162.402 183.098 162.678 182.999 162.936C182.901 163.194 182.751 163.43 182.559 163.629C182.367 163.828 182.137 163.986 181.882 164.093C181.628 164.201 181.354 164.256 181.078 164.254H176.917ZM189.191 116.261C189.18 115.985 189.225 115.709 189.323 115.451C189.422 115.193 189.571 114.957 189.763 114.758C189.955 114.559 190.186 114.401 190.44 114.293C190.695 114.186 190.969 114.131 191.245 114.132H195.406C195.98 114.132 196.531 114.353 196.946 114.75C197.361 115.146 197.606 115.688 197.631 116.261L197.742 119.383C197.753 119.66 197.708 119.935 197.61 120.194C197.511 120.452 197.361 120.688 197.169 120.887C196.978 121.086 196.747 121.243 196.493 121.351C196.238 121.458 195.964 121.513 195.688 121.512H191.527C190.953 121.513 190.402 121.291 189.987 120.895C189.572 120.498 189.327 119.957 189.302 119.383L189.191 116.261ZM189.851 130.85C189.84 130.574 189.885 130.299 189.983 130.041C190.082 129.783 190.232 129.547 190.424 129.349C190.616 129.151 190.846 128.993 191.101 128.887C191.356 128.78 191.629 128.726 191.905 128.729H196.066C196.638 128.728 197.189 128.948 197.603 129.343C198.018 129.738 198.264 130.278 198.291 130.85L198.395 133.98C198.406 134.255 198.361 134.529 198.263 134.787C198.165 135.044 198.016 135.279 197.824 135.477C197.633 135.676 197.404 135.833 197.15 135.94C196.896 136.047 196.623 136.102 196.348 136.101H192.157C191.585 136.101 191.034 135.881 190.62 135.486C190.205 135.091 189.959 134.551 189.933 133.98L189.851 130.85ZM190.526 144.941C190.516 144.665 190.562 144.39 190.66 144.132C190.759 143.875 190.909 143.639 191.101 143.441C191.292 143.242 191.522 143.084 191.777 142.976C192.031 142.868 192.304 142.813 192.58 142.813H196.748C197.322 142.812 197.874 143.033 198.288 143.43C198.703 143.827 198.948 144.368 198.973 144.941L199.084 148.064C199.095 148.34 199.05 148.615 198.952 148.873C198.853 149.131 198.704 149.366 198.512 149.564C198.319 149.763 198.089 149.92 197.834 150.027C197.58 150.133 197.306 150.187 197.03 150.185H192.899C192.327 150.186 191.776 149.966 191.361 149.57C190.947 149.175 190.701 148.636 190.674 148.064L190.526 144.941ZM193.492 164.292C192.919 164.292 192.367 164.071 191.952 163.674C191.538 163.278 191.292 162.736 191.268 162.163L191.164 159.041C191.153 158.765 191.198 158.491 191.296 158.233C191.394 157.976 191.543 157.741 191.734 157.543C191.925 157.344 192.155 157.187 192.409 157.08C192.662 156.973 192.935 156.918 193.211 156.919H197.379C197.951 156.919 198.502 157.139 198.916 157.534C199.331 157.929 199.577 158.469 199.604 159.041L199.707 162.163C199.718 162.439 199.673 162.715 199.575 162.973C199.477 163.232 199.327 163.467 199.135 163.666C198.943 163.865 198.713 164.023 198.458 164.131C198.203 164.238 197.929 164.293 197.653 164.292H193.492ZM205.633 116.313C205.621 116.037 205.665 115.762 205.763 115.503C205.86 115.245 206.009 115.009 206.2 114.81C206.392 114.611 206.622 114.453 206.876 114.345C207.13 114.238 207.404 114.183 207.68 114.184H211.848C212.422 114.184 212.973 114.405 213.388 114.802C213.803 115.198 214.048 115.74 214.073 116.313L214.176 119.435C214.188 119.712 214.143 119.987 214.044 120.246C213.946 120.504 213.796 120.74 213.604 120.939C213.412 121.137 213.182 121.295 212.927 121.403C212.672 121.51 212.399 121.565 212.122 121.564H207.962C207.388 121.565 206.836 121.343 206.422 120.947C206.007 120.55 205.762 120.009 205.737 119.435L205.633 116.313ZM206.286 130.902C206.275 130.625 206.32 130.35 206.418 130.091C206.516 129.833 206.666 129.597 206.858 129.398C207.05 129.2 207.28 129.042 207.535 128.934C207.79 128.827 208.063 128.772 208.34 128.773H212.5C213.074 128.772 213.626 128.994 214.041 129.39C214.455 129.787 214.701 130.328 214.725 130.902L214.837 134.024C214.848 134.3 214.803 134.576 214.704 134.834C214.606 135.093 214.456 135.328 214.264 135.527C214.072 135.726 213.842 135.884 213.587 135.992C213.333 136.099 213.059 136.154 212.782 136.153H208.622C208.048 136.153 207.496 135.932 207.082 135.535C206.667 135.139 206.422 134.597 206.397 134.024L206.286 130.902ZM206.968 144.993C206.957 144.717 207.002 144.442 207.1 144.184C207.199 143.926 207.349 143.691 207.541 143.493C207.733 143.294 207.963 143.137 208.218 143.03C208.472 142.924 208.746 142.87 209.022 142.872H213.183C213.755 142.872 214.306 143.092 214.72 143.487C215.135 143.882 215.381 144.421 215.408 144.993L215.511 148.123C215.522 148.398 215.478 148.673 215.38 148.931C215.282 149.188 215.133 149.423 214.941 149.621C214.75 149.819 214.52 149.977 214.267 150.084C214.013 150.191 213.74 150.246 213.465 150.244H209.297C208.724 150.245 208.173 150.025 207.759 149.63C207.345 149.235 207.098 148.695 207.072 148.123L206.968 144.993ZM209.934 164.351C209.361 164.351 208.809 164.13 208.394 163.734C207.98 163.337 207.734 162.796 207.709 162.222L207.598 159.1C207.587 158.824 207.632 158.548 207.731 158.29C207.829 158.031 207.979 157.796 208.171 157.597C208.363 157.398 208.593 157.24 208.848 157.132C209.102 157.025 209.376 156.97 209.653 156.971H213.813C214.387 156.971 214.939 157.192 215.353 157.589C215.768 157.985 216.013 158.527 216.038 159.1L216.149 162.222C216.159 162.498 216.114 162.773 216.015 163.031C215.916 163.289 215.766 163.525 215.574 163.723C215.383 163.922 215.153 164.08 214.899 164.188C214.644 164.296 214.371 164.351 214.095 164.351H209.934ZM222.431 116.521C222.42 116.244 222.465 115.969 222.563 115.71C222.662 115.452 222.811 115.216 223.003 115.017C223.195 114.819 223.426 114.661 223.68 114.553C223.935 114.446 224.209 114.391 224.485 114.392H228.646C229.219 114.391 229.771 114.613 230.186 115.009C230.6 115.406 230.846 115.947 230.871 116.521L230.974 119.643C230.986 119.918 230.941 120.193 230.843 120.45C230.745 120.708 230.596 120.943 230.404 121.141C230.213 121.339 229.983 121.497 229.73 121.604C229.476 121.711 229.203 121.765 228.928 121.764H224.76C224.187 121.765 223.636 121.545 223.222 121.15C222.808 120.755 222.561 120.215 222.535 119.643L222.431 116.521ZM223.084 131.109C223.072 130.833 223.118 130.557 223.216 130.299C223.314 130.041 223.464 129.805 223.656 129.606C223.848 129.407 224.078 129.249 224.333 129.142C224.588 129.034 224.861 128.979 225.138 128.981H229.298C229.872 128.98 230.424 129.201 230.839 129.598C231.253 129.995 231.498 130.536 231.523 131.109L231.635 134.232C231.646 134.508 231.601 134.784 231.502 135.042C231.404 135.3 231.254 135.536 231.062 135.735C230.87 135.934 230.64 136.092 230.385 136.199C230.13 136.307 229.857 136.361 229.58 136.36H225.42C224.846 136.361 224.294 136.14 223.88 135.743C223.465 135.346 223.22 134.805 223.195 134.232L223.084 131.109ZM223.766 145.201C223.755 144.925 223.8 144.649 223.898 144.391C223.997 144.132 224.146 143.897 224.338 143.698C224.53 143.499 224.761 143.341 225.015 143.233C225.27 143.126 225.544 143.071 225.82 143.072H229.981C230.554 143.072 231.106 143.293 231.521 143.69C231.935 144.086 232.181 144.628 232.206 145.201L232.317 148.323C232.327 148.599 232.281 148.875 232.182 149.132C232.083 149.39 231.934 149.626 231.742 149.824C231.55 150.023 231.32 150.181 231.066 150.289C230.812 150.397 230.539 150.452 230.263 150.452H226.095C225.521 150.453 224.969 150.231 224.554 149.835C224.14 149.438 223.895 148.897 223.87 148.323L223.766 145.201ZM226.732 164.559C226.159 164.559 225.607 164.338 225.192 163.941C224.778 163.545 224.532 163.003 224.507 162.43L224.396 159.308C224.385 159.031 224.43 158.756 224.529 158.497C224.627 158.239 224.777 158.003 224.969 157.804C225.161 157.605 225.391 157.448 225.646 157.34C225.9 157.233 226.174 157.178 226.451 157.179H230.611C231.185 157.178 231.737 157.4 232.151 157.796C232.566 158.193 232.811 158.734 232.836 159.308L232.947 162.43C232.958 162.706 232.913 162.982 232.815 163.24C232.716 163.498 232.567 163.734 232.375 163.933C232.183 164.132 231.953 164.29 231.698 164.398C231.443 164.505 231.169 164.56 230.893 164.559H226.732ZM238.865 116.573C238.854 116.297 238.9 116.021 238.998 115.763C239.096 115.506 239.246 115.27 239.438 115.072C239.63 114.874 239.861 114.716 240.115 114.61C240.37 114.503 240.644 114.449 240.92 114.451H245.08C245.653 114.451 246.204 114.671 246.618 115.066C247.032 115.461 247.279 116.001 247.305 116.573L247.416 119.702C247.426 119.978 247.381 120.253 247.282 120.51C247.183 120.768 247.033 121.003 246.841 121.201C246.649 121.399 246.419 121.556 246.165 121.663C245.911 121.77 245.638 121.825 245.362 121.824H241.202C240.629 121.824 240.078 121.604 239.664 121.209C239.25 120.814 239.003 120.274 238.977 119.702L238.865 116.573ZM239.518 131.169C239.507 130.892 239.552 130.617 239.651 130.358C239.749 130.1 239.899 129.864 240.091 129.665C240.283 129.467 240.513 129.309 240.768 129.201C241.022 129.094 241.296 129.039 241.572 129.04H245.74C246.314 129.039 246.866 129.261 247.281 129.657C247.695 130.054 247.94 130.595 247.965 131.169L248.077 134.291C248.088 134.567 248.042 134.842 247.944 135.1C247.846 135.358 247.696 135.593 247.504 135.792C247.312 135.99 247.081 136.147 246.827 136.254C246.572 136.361 246.298 136.414 246.022 136.412H241.862C241.289 136.413 240.738 136.193 240.324 135.798C239.91 135.403 239.664 134.863 239.637 134.291L239.518 131.169ZM242.485 150.452C241.911 150.453 241.359 150.231 240.945 149.835C240.53 149.438 240.285 148.897 240.26 148.323L240.148 145.201C240.137 144.925 240.183 144.649 240.281 144.391C240.379 144.132 240.529 143.897 240.721 143.698C240.913 143.499 241.143 143.341 241.398 143.233C241.653 143.126 241.926 143.071 242.203 143.072H246.363C246.937 143.072 247.489 143.293 247.903 143.69C248.318 144.086 248.563 144.628 248.588 145.201L248.7 148.323C248.711 148.6 248.665 148.875 248.567 149.134C248.469 149.392 248.319 149.628 248.127 149.827C247.935 150.025 247.705 150.183 247.45 150.291C247.195 150.398 246.922 150.453 246.645 150.452H242.485ZM254.01 116.521C253.999 116.244 254.044 115.969 254.142 115.71C254.24 115.452 254.39 115.216 254.582 115.017C254.774 114.819 255.004 114.661 255.259 114.553C255.514 114.446 255.788 114.391 256.064 114.392H260.224C260.798 114.391 261.35 114.613 261.765 115.009C262.179 115.406 262.425 115.947 262.449 116.521L262.561 119.643C262.572 119.919 262.527 120.195 262.428 120.453C262.33 120.712 262.18 120.947 261.988 121.146C261.796 121.345 261.566 121.503 261.311 121.611C261.057 121.718 260.783 121.773 260.506 121.772H256.346C255.772 121.772 255.22 121.551 254.806 121.154C254.391 120.758 254.146 120.216 254.121 119.643L254.01 116.521ZM254.67 131.109C254.659 130.833 254.704 130.557 254.802 130.299C254.9 130.041 255.05 129.805 255.242 129.606C255.434 129.407 255.664 129.249 255.919 129.142C256.174 129.034 256.448 128.979 256.724 128.981H260.885C261.458 128.98 262.01 129.201 262.425 129.598C262.839 129.995 263.085 130.536 263.109 131.109L263.213 134.232C263.225 134.508 263.181 134.783 263.084 135.041C262.986 135.3 262.837 135.535 262.646 135.734C262.454 135.933 262.225 136.092 261.97 136.199C261.716 136.307 261.442 136.362 261.166 136.36H256.998C256.425 136.361 255.873 136.14 255.458 135.743C255.044 135.346 254.798 134.805 254.774 134.232L254.67 131.109ZM257.636 150.393C257.064 150.393 256.513 150.173 256.099 149.778C255.684 149.383 255.438 148.843 255.411 148.271L255.3 145.142C255.29 144.866 255.336 144.591 255.435 144.334C255.534 144.076 255.683 143.841 255.875 143.643C256.067 143.445 256.297 143.288 256.551 143.181C256.805 143.074 257.079 143.019 257.354 143.02H261.522C262.095 143.02 262.646 143.24 263.06 143.635C263.474 144.03 263.721 144.57 263.747 145.142L263.859 148.271C263.87 148.547 263.824 148.823 263.726 149.081C263.628 149.339 263.478 149.574 263.286 149.772C263.094 149.97 262.863 150.128 262.609 150.234C262.354 150.341 262.08 150.395 261.804 150.393H257.636Z" fill="var(--sapContent_Illustrative_Color8)"/>
<path d="M148.401 95.4423H197.178C197.521 95.4446 197.862 95.3772 198.178 95.2442C198.494 95.1112 198.781 94.9153 199.019 94.6684C199.258 94.4216 199.444 94.1289 199.566 93.8081C199.688 93.4872 199.743 93.145 199.729 92.802V92.802C199.699 92.0948 199.398 91.4264 198.889 90.935C198.379 90.4435 197.701 90.1667 196.993 90.1616H148.216C147.872 90.1583 147.532 90.2249 147.215 90.3576C146.898 90.4902 146.611 90.6861 146.372 90.9332C146.134 91.1802 145.948 91.4734 145.826 91.7947C145.704 92.116 145.649 92.4587 145.665 92.802V92.802C145.695 93.5091 145.996 94.1775 146.505 94.6689C147.015 95.1604 147.693 95.4373 148.401 95.4423Z" fill="var(--sapContent_Illustrative_Color8)"/>
<path d="M164.547 115.067C164.535 114.8 164.422 114.549 164.23 114.364C164.038 114.179 163.782 114.075 163.516 114.073H157.093C156.964 114.072 156.835 114.097 156.716 114.147C156.597 114.197 156.489 114.271 156.398 114.363C156.308 114.456 156.238 114.567 156.192 114.687C156.145 114.808 156.124 114.937 156.129 115.067L156.322 120.451C156.332 120.717 156.443 120.969 156.634 121.154C156.825 121.339 157.08 121.443 157.345 121.445H163.775C163.905 121.446 164.033 121.421 164.153 121.371C164.272 121.321 164.38 121.247 164.47 121.155C164.56 121.062 164.631 120.951 164.677 120.831C164.723 120.71 164.745 120.581 164.739 120.451L164.547 115.067Z" fill="var(--sapContent_Illustrative_Color6)"/>
<path d="M180.966 115.067C180.955 114.802 180.843 114.551 180.652 114.366C180.462 114.182 180.208 114.077 179.943 114.073H173.513C173.384 114.073 173.256 114.099 173.137 114.149C173.018 114.2 172.91 114.273 172.82 114.366C172.73 114.459 172.66 114.568 172.613 114.689C172.567 114.809 172.545 114.938 172.549 115.067L172.742 120.459C172.753 120.725 172.866 120.977 173.058 121.162C173.25 121.347 173.506 121.451 173.772 121.453H180.195C180.324 121.454 180.453 121.429 180.572 121.379C180.692 121.329 180.8 121.255 180.89 121.162C180.98 121.069 181.05 120.959 181.097 120.838C181.143 120.717 181.164 120.588 181.159 120.459L180.966 115.067Z" fill="var(--sapContent_Illustrative_Color6)"/>
<path d="M197.594 115.126C197.58 114.861 197.466 114.61 197.275 114.425C197.083 114.241 196.829 114.136 196.563 114.132H190.133C190.004 114.132 189.877 114.158 189.758 114.209C189.64 114.259 189.532 114.333 189.443 114.426C189.354 114.518 189.284 114.628 189.238 114.749C189.192 114.869 189.171 114.997 189.176 115.126L189.362 120.518C189.373 120.785 189.487 121.036 189.678 121.221C189.87 121.406 190.126 121.51 190.393 121.512H196.822C196.952 121.513 197.08 121.488 197.199 121.438C197.318 121.388 197.425 121.314 197.515 121.221C197.604 121.128 197.674 121.018 197.719 120.897C197.765 120.776 197.785 120.647 197.779 120.518L197.594 115.126Z" fill="var(--sapContent_Illustrative_Color6)"/>
<path d="M214.014 115.156C214.002 114.89 213.889 114.638 213.697 114.453C213.505 114.268 213.249 114.164 212.983 114.162H206.56C206.431 114.161 206.303 114.186 206.183 114.236C206.064 114.286 205.956 114.36 205.866 114.453C205.775 114.545 205.705 114.656 205.659 114.777C205.612 114.897 205.591 115.027 205.596 115.156L205.789 120.548C205.8 120.813 205.913 121.064 206.103 121.248C206.293 121.433 206.547 121.538 206.812 121.542H213.242C213.371 121.542 213.499 121.516 213.618 121.466C213.737 121.415 213.845 121.342 213.935 121.249C214.025 121.156 214.095 121.046 214.142 120.926C214.188 120.805 214.21 120.677 214.206 120.548L214.014 115.156Z" fill="var(--sapContent_Illustrative_Color6)"/>
<path d="M230.789 115.334C230.78 115.068 230.668 114.816 230.477 114.631C230.286 114.446 230.032 114.342 229.766 114.34H223.306C223.177 114.339 223.048 114.364 222.929 114.414C222.809 114.464 222.701 114.538 222.611 114.631C222.521 114.723 222.451 114.834 222.404 114.955C222.358 115.075 222.337 115.204 222.342 115.334L222.535 120.718C222.546 120.985 222.659 121.236 222.851 121.421C223.043 121.606 223.299 121.711 223.566 121.712H229.988C230.118 121.713 230.246 121.688 230.365 121.638C230.485 121.588 230.593 121.515 230.683 121.422C230.773 121.329 230.844 121.219 230.89 121.098C230.936 120.977 230.957 120.848 230.952 120.718L230.789 115.334Z" fill="var(--sapContent_Illustrative_Color6)"/>
<path d="M247.216 115.363C247.205 115.097 247.092 114.845 246.9 114.66C246.708 114.475 246.452 114.371 246.186 114.37H239.756C239.627 114.368 239.499 114.394 239.379 114.444C239.26 114.494 239.153 114.567 239.063 114.66C238.974 114.754 238.904 114.864 238.859 114.985C238.813 115.106 238.793 115.234 238.799 115.363L238.984 120.748C238.996 121.014 239.109 121.266 239.301 121.451C239.493 121.636 239.749 121.74 240.015 121.742H246.445C246.574 121.742 246.701 121.716 246.82 121.666C246.939 121.615 247.046 121.541 247.135 121.449C247.224 121.356 247.294 121.246 247.34 121.126C247.386 121.005 247.407 120.877 247.402 120.748L247.216 115.363Z" fill="var(--sapContent_Illustrative_Color6)"/>
<path d="M262.39 115.334C262.379 115.068 262.265 114.816 262.073 114.631C261.882 114.446 261.626 114.342 261.359 114.34H254.929C254.801 114.34 254.673 114.366 254.554 114.416C254.436 114.467 254.329 114.541 254.239 114.633C254.15 114.726 254.08 114.836 254.035 114.956C253.989 115.077 253.968 115.205 253.973 115.334L254.158 120.726C254.166 120.997 254.278 121.254 254.472 121.444C254.666 121.633 254.925 121.74 255.196 121.742H261.626C261.755 121.742 261.883 121.716 262.001 121.666C262.12 121.615 262.227 121.542 262.316 121.449C262.406 121.356 262.475 121.246 262.521 121.126C262.567 121.005 262.588 120.877 262.583 120.748L262.39 115.334Z" fill="var(--sapContent_Illustrative_Color6)"/>
<path d="M165.206 129.626C165.195 129.36 165.081 129.108 164.889 128.923C164.698 128.738 164.442 128.634 164.175 128.632H157.746C157.616 128.631 157.488 128.656 157.369 128.706C157.25 128.756 157.143 128.83 157.053 128.923C156.964 129.016 156.894 129.126 156.849 129.247C156.803 129.368 156.783 129.497 156.789 129.626L156.974 135.01C156.986 135.277 157.099 135.528 157.291 135.713C157.483 135.898 157.739 136.003 158.005 136.004H164.435C164.564 136.004 164.691 135.978 164.81 135.928C164.928 135.878 165.036 135.804 165.125 135.711C165.214 135.618 165.284 135.508 165.33 135.388C165.376 135.267 165.397 135.139 165.392 135.01L165.206 129.626Z" fill="var(--sapContent_Illustrative_Color6)"/>
<path d="M181.626 129.656C181.615 129.389 181.502 129.137 181.31 128.952C181.118 128.767 180.862 128.663 180.596 128.662H174.166C174.037 128.662 173.909 128.688 173.791 128.738C173.672 128.788 173.565 128.862 173.476 128.955C173.386 129.048 173.317 129.158 173.271 129.278C173.225 129.398 173.204 129.527 173.209 129.656L173.394 135.04C173.406 135.306 173.519 135.558 173.711 135.743C173.903 135.928 174.159 136.032 174.425 136.034H180.855C180.984 136.035 181.112 136.01 181.231 135.96C181.35 135.91 181.458 135.836 181.548 135.743C181.637 135.65 181.707 135.54 181.752 135.419C181.798 135.298 181.818 135.169 181.812 135.04L181.626 129.656Z" fill="var(--sapContent_Illustrative_Color6)"/>
<path d="M198.246 129.722C198.237 129.457 198.125 129.205 197.934 129.02C197.744 128.834 197.489 128.73 197.223 128.728H190.793C190.664 128.727 190.535 128.752 190.416 128.802C190.296 128.852 190.188 128.926 190.098 129.019C190.008 129.112 189.938 129.222 189.891 129.343C189.845 129.464 189.824 129.593 189.829 129.722L190.022 135.107C190.033 135.373 190.147 135.625 190.338 135.81C190.53 135.995 190.786 136.099 191.053 136.101H197.475C197.605 136.102 197.733 136.076 197.852 136.027C197.972 135.977 198.08 135.903 198.17 135.81C198.26 135.717 198.33 135.607 198.377 135.486C198.423 135.365 198.444 135.236 198.439 135.107L198.246 129.722Z" fill="var(--sapContent_Illustrative_Color6)"/>
<path d="M214.674 129.745C214.66 129.479 214.546 129.228 214.355 129.043C214.163 128.859 213.909 128.754 213.643 128.751H207.213C207.084 128.751 206.956 128.776 206.838 128.827C206.719 128.877 206.612 128.951 206.523 129.044C206.433 129.137 206.364 129.247 206.318 129.367C206.272 129.487 206.251 129.616 206.256 129.745L206.441 135.136C206.453 135.403 206.566 135.654 206.758 135.839C206.95 136.024 207.206 136.129 207.472 136.13H213.902C214.031 136.13 214.159 136.104 214.277 136.054C214.396 136.004 214.503 135.93 214.592 135.837C214.682 135.744 214.751 135.634 214.797 135.514C214.843 135.394 214.864 135.265 214.859 135.136L214.674 129.745Z" fill="var(--sapContent_Illustrative_Color6)"/>
<path d="M231.464 129.9C231.452 129.634 231.339 129.382 231.147 129.197C230.955 129.012 230.699 128.908 230.433 128.906H224.003C223.874 128.906 223.747 128.932 223.628 128.983C223.509 129.033 223.402 129.107 223.313 129.2C223.223 129.292 223.154 129.402 223.108 129.523C223.062 129.643 223.041 129.772 223.046 129.9L223.232 135.292C223.245 135.558 223.359 135.809 223.55 135.993C223.742 136.178 223.996 136.283 224.262 136.286H230.692C230.821 136.286 230.949 136.26 231.067 136.21C231.186 136.159 231.293 136.086 231.382 135.993C231.472 135.9 231.541 135.79 231.587 135.67C231.633 135.549 231.654 135.421 231.649 135.292L231.464 129.9Z" fill="var(--sapContent_Illustrative_Color6)"/>
<path d="M247.869 129.952C247.857 129.686 247.744 129.434 247.552 129.249C247.36 129.064 247.104 128.96 246.838 128.958H240.415C240.286 128.957 240.158 128.983 240.038 129.032C239.919 129.082 239.811 129.156 239.72 129.249C239.63 129.342 239.56 129.452 239.514 129.573C239.467 129.694 239.446 129.823 239.451 129.952L239.637 135.337C239.648 135.603 239.761 135.855 239.953 136.04C240.145 136.225 240.401 136.329 240.667 136.331H247.097C247.226 136.332 247.354 136.307 247.473 136.257C247.593 136.207 247.7 136.133 247.79 136.04C247.879 135.947 247.949 135.836 247.994 135.716C248.04 135.595 248.06 135.466 248.054 135.337L247.869 129.952Z" fill="var(--sapContent_Illustrative_Color6)"/>
<path d="M263.043 129.9C263.031 129.635 262.919 129.385 262.729 129.2C262.538 129.015 262.284 128.91 262.019 128.906H255.59C255.46 128.906 255.333 128.932 255.214 128.983C255.095 129.033 254.987 129.107 254.897 129.199C254.807 129.292 254.737 129.402 254.69 129.522C254.644 129.643 254.621 129.771 254.625 129.9L254.818 135.292C254.83 135.558 254.943 135.81 255.135 135.995C255.327 136.18 255.583 136.284 255.849 136.286H262.271C262.401 136.287 262.529 136.262 262.648 136.212C262.768 136.162 262.876 136.088 262.966 135.996C263.056 135.903 263.127 135.792 263.173 135.671C263.219 135.551 263.24 135.422 263.235 135.292L263.043 129.9Z" fill="var(--sapContent_Illustrative_Color6)"/>
<path d="M165.881 143.688C165.872 143.422 165.76 143.171 165.569 142.985C165.379 142.8 165.124 142.696 164.858 142.694H158.428C158.299 142.693 158.17 142.718 158.051 142.768C157.931 142.818 157.823 142.892 157.733 142.985C157.643 143.078 157.573 143.188 157.526 143.309C157.48 143.43 157.459 143.559 157.464 143.688L157.657 149.08C157.668 149.346 157.782 149.598 157.973 149.783C158.165 149.968 158.421 150.072 158.688 150.074H165.11C165.239 150.074 165.367 150.048 165.486 149.998C165.605 149.947 165.713 149.874 165.802 149.781C165.892 149.688 165.963 149.578 166.01 149.458C166.056 149.338 166.078 149.209 166.074 149.08L165.881 143.688Z" fill="var(--sapContent_Illustrative_Color6)"/>
<path d="M182.309 143.718C182.298 143.451 182.184 143.199 181.992 143.014C181.8 142.829 181.545 142.725 181.278 142.724H174.848C174.719 142.723 174.591 142.748 174.472 142.798C174.353 142.848 174.245 142.922 174.156 143.015C174.066 143.108 173.997 143.218 173.951 143.339C173.906 143.46 173.885 143.589 173.891 143.718L174.077 149.102C174.088 149.368 174.202 149.62 174.394 149.805C174.586 149.99 174.841 150.094 175.108 150.096H181.538C181.667 150.096 181.794 150.07 181.913 150.02C182.031 149.969 182.138 149.895 182.228 149.803C182.317 149.71 182.387 149.6 182.433 149.48C182.478 149.359 182.499 149.231 182.494 149.102L182.309 143.718Z" fill="var(--sapContent_Illustrative_Color6)"/>
<path d="M198.928 143.784C198.917 143.518 198.803 143.266 198.612 143.081C198.42 142.896 198.164 142.792 197.897 142.79H191.475C191.345 142.789 191.217 142.815 191.098 142.864C190.978 142.914 190.87 142.988 190.78 143.081C190.69 143.174 190.62 143.284 190.573 143.405C190.527 143.526 190.506 143.655 190.511 143.784L190.674 149.184C190.683 149.449 190.795 149.701 190.986 149.886C191.177 150.071 191.432 150.176 191.697 150.177H198.127C198.257 150.179 198.385 150.153 198.505 150.103C198.624 150.053 198.732 149.98 198.822 149.887C198.912 149.794 198.983 149.684 199.029 149.563C199.075 149.442 199.096 149.313 199.091 149.184L198.928 143.784Z" fill="var(--sapContent_Illustrative_Color6)"/>
<path d="M215.349 143.814C215.339 143.548 215.227 143.297 215.037 143.111C214.846 142.926 214.591 142.822 214.325 142.82H207.895C207.766 142.819 207.637 142.844 207.518 142.894C207.399 142.944 207.291 143.018 207.2 143.111C207.11 143.204 207.04 143.314 206.994 143.435C206.947 143.556 206.926 143.685 206.931 143.814L207.124 149.198C207.135 149.465 207.249 149.716 207.441 149.901C207.633 150.086 207.888 150.191 208.155 150.192H214.577C214.707 150.193 214.835 150.168 214.955 150.118C215.074 150.068 215.182 149.995 215.272 149.902C215.362 149.809 215.433 149.699 215.479 149.578C215.525 149.457 215.547 149.328 215.542 149.198L215.349 143.814Z" fill="var(--sapContent_Illustrative_Color6)"/>
<path d="M232.131 143.992C232.117 143.727 232.002 143.477 231.811 143.293C231.62 143.109 231.366 143.003 231.101 142.998H224.671C224.542 142.998 224.415 143.024 224.296 143.074C224.178 143.125 224.07 143.199 223.981 143.291C223.892 143.384 223.822 143.494 223.776 143.614C223.73 143.735 223.709 143.863 223.714 143.992L223.9 149.384C223.911 149.65 224.025 149.902 224.216 150.087C224.408 150.272 224.664 150.376 224.93 150.378H231.353C231.482 150.379 231.611 150.354 231.73 150.304C231.849 150.254 231.957 150.18 232.048 150.087C232.138 149.994 232.208 149.884 232.254 149.763C232.301 149.642 232.322 149.513 232.317 149.384L232.131 143.992Z" fill="var(--sapContent_Illustrative_Color6)"/>
<path d="M241.105 143.02C240.976 143.019 240.848 143.044 240.729 143.094C240.61 143.144 240.502 143.218 240.413 143.311C240.323 143.404 240.254 143.515 240.208 143.636C240.163 143.756 240.142 143.885 240.149 144.014L240.334 149.406C240.347 149.672 240.461 149.923 240.653 150.107C240.844 150.292 241.099 150.397 241.365 150.4H247.78C247.908 150.4 248.036 150.374 248.154 150.324C248.273 150.273 248.38 150.2 248.47 150.107C248.559 150.014 248.629 149.904 248.674 149.784C248.72 149.663 248.741 149.535 248.736 149.406L248.521 143.992C248.51 143.726 248.396 143.474 248.205 143.289C248.013 143.104 247.757 143 247.49 142.998L241.105 143.02Z" fill="var(--sapContent_Illustrative_Color6)"/>
<path d="M256.271 142.998C256.142 142.997 256.014 143.022 255.894 143.072C255.775 143.122 255.667 143.196 255.577 143.289C255.487 143.382 255.416 143.492 255.37 143.613C255.324 143.734 255.302 143.863 255.307 143.992L255.493 149.376C255.504 149.643 255.618 149.895 255.809 150.08C256.001 150.265 256.257 150.369 256.524 150.37H262.954C263.083 150.371 263.211 150.346 263.33 150.296C263.449 150.246 263.556 150.172 263.646 150.079C263.735 149.986 263.805 149.876 263.85 149.755C263.896 149.634 263.916 149.505 263.91 149.376L263.725 143.992C263.713 143.726 263.6 143.474 263.408 143.289C263.216 143.104 262.961 143 262.694 142.998H256.271Z" fill="var(--sapContent_Illustrative_Color6)"/>
<path d="M159.066 156.801C158.937 156.799 158.809 156.825 158.69 156.875C158.57 156.925 158.463 156.999 158.373 157.092C158.284 157.185 158.214 157.295 158.169 157.416C158.123 157.537 158.103 157.665 158.109 157.794L158.294 163.179C158.306 163.445 158.419 163.697 158.611 163.882C158.803 164.067 159.059 164.171 159.325 164.173H165.748C165.877 164.174 166.006 164.149 166.125 164.099C166.244 164.049 166.352 163.975 166.443 163.882C166.533 163.789 166.603 163.679 166.649 163.558C166.696 163.437 166.717 163.308 166.712 163.179L166.519 157.794C166.51 157.529 166.398 157.277 166.207 157.092C166.016 156.907 165.761 156.802 165.496 156.801H159.066Z" fill="var(--sapContent_Illustrative_Color6)"/>
<path d="M175.486 156.823C175.357 156.823 175.229 156.849 175.111 156.899C174.992 156.95 174.885 157.023 174.796 157.116C174.706 157.209 174.637 157.319 174.591 157.439C174.545 157.56 174.524 157.688 174.529 157.817L174.714 163.209C174.726 163.475 174.839 163.727 175.031 163.912C175.223 164.097 175.479 164.201 175.745 164.203H182.175C182.304 164.203 182.431 164.177 182.55 164.126C182.668 164.076 182.776 164.002 182.865 163.909C182.954 163.817 183.024 163.707 183.07 163.586C183.116 163.466 183.137 163.337 183.132 163.209L182.946 157.817C182.933 157.551 182.819 157.3 182.628 157.116C182.436 156.931 182.181 156.826 181.915 156.823H175.486Z" fill="var(--sapContent_Illustrative_Color6)"/>
<path d="M192.113 156.897C191.983 156.896 191.855 156.921 191.736 156.971C191.616 157.021 191.508 157.095 191.418 157.188C191.328 157.28 191.258 157.391 191.211 157.512C191.165 157.632 191.144 157.761 191.149 157.891L191.342 163.275C191.351 163.541 191.463 163.793 191.654 163.978C191.844 164.163 192.099 164.267 192.365 164.269H198.832C198.961 164.27 199.09 164.245 199.209 164.195C199.329 164.145 199.437 164.072 199.527 163.979C199.617 163.886 199.687 163.776 199.734 163.655C199.78 163.534 199.801 163.405 199.796 163.275L199.603 157.891C199.592 157.625 199.478 157.373 199.287 157.188C199.095 157.003 198.839 156.899 198.572 156.897H192.113Z" fill="var(--sapContent_Illustrative_Color6)"/>
<path d="M208.533 156.919C208.404 156.919 208.276 156.945 208.157 156.995C208.038 157.046 207.93 157.119 207.841 157.212C207.751 157.305 207.68 157.415 207.633 157.535C207.587 157.655 207.565 157.784 207.569 157.913L207.732 163.275C207.743 163.542 207.857 163.793 208.049 163.978C208.241 164.163 208.496 164.268 208.763 164.269H215.186C215.315 164.269 215.442 164.243 215.561 164.193C215.68 164.143 215.788 164.069 215.878 163.976C215.968 163.884 216.038 163.774 216.085 163.653C216.132 163.533 216.154 163.404 216.15 163.275L215.957 157.883C215.945 157.618 215.833 157.368 215.643 157.183C215.453 156.998 215.199 156.893 214.933 156.89L208.533 156.919Z" fill="var(--sapContent_Illustrative_Color6)"/>
<path d="M225.308 157.097C225.179 157.096 225.051 157.121 224.932 157.171C224.813 157.221 224.706 157.295 224.616 157.388C224.526 157.481 224.457 157.591 224.411 157.712C224.366 157.833 224.346 157.962 224.352 158.091L224.537 163.483C224.55 163.749 224.664 163.999 224.856 164.184C225.047 164.369 225.302 164.473 225.568 164.477H231.998C232.127 164.477 232.254 164.451 232.373 164.401C232.491 164.35 232.599 164.276 232.688 164.184C232.777 164.091 232.847 163.981 232.893 163.861C232.939 163.74 232.96 163.612 232.955 163.483L232.769 158.091C232.758 157.825 232.644 157.573 232.453 157.388C232.261 157.203 232.005 157.099 231.738 157.097H225.308Z" fill="var(--sapContent_Illustrative_Color6)"/>
<path d="M288.652 27.98H275.666C275.345 27.9206 275.014 27.9326 274.699 28.0151C274.383 28.0977 274.089 28.2487 273.838 28.4575C273.587 28.6663 273.385 28.9278 273.247 29.2234C273.108 29.519 273.036 29.8414 273.036 30.1679C273.036 30.4943 273.108 30.8168 273.247 31.1124C273.385 31.408 273.587 31.6694 273.838 31.8782C274.089 32.0871 274.383 32.2381 274.699 32.3206C275.014 32.4031 275.345 32.4152 275.666 32.3558H282.474L274.316 38.9715C273.961 39.2539 273.703 39.64 273.578 40.0758C273.453 40.5117 273.467 40.9757 273.618 41.4033C273.769 41.8309 274.049 42.2008 274.42 42.4615C274.791 42.7222 275.234 42.8607 275.688 42.8578H287.636C288.216 42.8578 288.772 42.6273 289.183 42.217C289.593 41.8067 289.823 41.2502 289.823 40.6699C289.823 40.0897 289.593 39.5331 289.183 39.1228C288.772 38.7125 288.216 38.482 287.636 38.482H281.866L290.024 31.8663C290.374 31.5814 290.629 31.1947 290.751 30.7595C290.873 30.3243 290.857 29.862 290.706 29.436C290.555 29.01 290.275 28.6413 289.906 28.3806C289.537 28.1199 289.096 27.9799 288.644 27.98H288.652Z" fill="var(--sapContent_Illustrative_Color5)"/>
<path d="M317.856 2.66669H299.99C299.479 2.76122 299.017 3.03181 298.685 3.43149C298.352 3.83117 298.17 4.33468 298.17 4.85461C298.17 5.37455 298.352 5.87807 298.685 6.27775C299.017 6.67742 299.479 6.94802 299.99 7.04255H312.428L298.47 20.4371C298.157 20.7401 297.942 21.1297 297.851 21.5559C297.761 21.9822 297.8 22.4257 297.963 22.8296C298.127 23.2335 298.407 23.5795 298.768 23.8232C299.129 24.0669 299.555 24.1972 299.99 24.1974H316.433C316.99 24.1649 317.514 23.9206 317.897 23.5146C318.28 23.1085 318.493 22.5714 318.493 22.0132C318.493 21.4549 318.28 20.9178 317.897 20.5118C317.514 20.1057 316.99 19.8614 316.433 19.8289H305.419L319.377 6.43437C319.675 6.12504 319.877 5.73599 319.959 5.31422C320.041 4.89244 319.999 4.45599 319.838 4.05756C319.677 3.65913 319.405 3.31578 319.053 3.06896C318.701 2.82215 318.286 2.68243 317.856 2.66669V2.66669Z" fill="var(--sapContent_Illustrative_Color5)"/>
</svg>
