<svg width="45" height="45" viewBox="0 0 45 45" fill="none" xmlns="http://www.w3.org/2000/svg" id="sapIllus-Dot-NoNotifications">
<g clip-path="url(#clip0_6812_11807)">
<path d="M33.7896 27.2236C33.7713 27.2031 33.7529 27.1826 33.7322 27.1621C33.7001 27.1303 33.6657 27.0984 33.6312 27.0665C33.6129 27.0483 33.5945 27.0324 33.5738 27.0142C33.5256 26.9732 33.4751 26.9323 33.4223 26.8936C33.4132 26.8868 33.4063 26.8799 33.3971 26.8754C33.3351 26.8321 33.2708 26.7889 33.2043 26.7479C33.1813 26.7343 33.1561 26.7206 33.1331 26.707C33.0872 26.6797 33.039 26.6524 32.9885 26.6273C32.9609 26.6114 32.9311 26.5977 32.9013 26.5841C32.853 26.5613 32.8048 26.5386 32.7566 26.5158C32.7245 26.5022 32.6924 26.4885 32.6602 26.4749C32.6074 26.4521 32.5546 26.4316 32.4995 26.4111C32.4674 26.3998 32.4376 26.3861 32.4031 26.3747C32.3389 26.352 32.2723 26.3292 32.2057 26.3087C32.1805 26.3019 32.1575 26.2928 32.1323 26.286C32.0404 26.2587 31.944 26.2313 31.8476 26.2063C31.8247 26.1995 31.7994 26.1949 31.7742 26.1904C31.6984 26.1722 31.6226 26.154 31.5423 26.138C31.5056 26.1312 31.4666 26.1244 31.4275 26.1153C31.3587 26.1016 31.2898 26.0903 31.2186 26.0789C31.1773 26.072 31.1337 26.0652 31.0924 26.0584C31.0212 26.047 30.9501 26.0379 30.8766 26.0288C30.833 26.0243 30.7917 26.0174 30.7481 26.0129C30.67 26.0038 30.5874 25.9969 30.507 25.9901C30.468 25.9878 30.4313 25.9833 30.3923 25.9787C30.2706 25.9696 30.1489 25.9605 30.0227 25.956C29.5934 25.9378 29.1527 25.9401 28.7005 25.9628C28.6729 25.9628 28.6431 25.9674 28.6155 25.9674C28.5053 25.9742 28.3929 25.981 28.2804 25.9878C28.1679 25.9969 28.0554 26.0061 27.9406 26.0174C27.9292 26.0174 27.9177 26.0174 27.9062 26.0197C27.1693 26.088 26.3866 26.2063 25.5831 26.3747C22.2776 26.3474 19.1121 27.1781 17.9942 27.4762C17.5052 27.6059 16.3529 27.6309 15.0559 27.6218C14.5991 27.6195 14.1262 27.6127 13.6556 27.6059C13.3756 27.6013 13.0978 27.5968 12.8247 27.5922C12.2829 27.5854 11.7664 27.5786 11.3073 27.5809C11.002 27.5809 10.7243 27.5854 10.4786 27.5968C10.4213 27.5968 10.3639 27.6013 10.3042 27.6036C10.2858 27.6036 10.2652 27.6036 10.2468 27.6059C10.2078 27.6059 10.1664 27.6104 10.1251 27.6127C10.1022 27.6127 10.0769 27.615 10.054 27.6173C10.0172 27.6173 9.98051 27.6218 9.94149 27.6241C9.91624 27.6241 9.89099 27.6286 9.86574 27.6286C9.82901 27.6309 9.79228 27.6332 9.75555 27.6377C9.728 27.6377 9.70275 27.6423 9.67521 27.6446C9.63848 27.6468 9.60175 27.6514 9.56502 27.6537C9.53748 27.656 9.50993 27.6582 9.48468 27.6605C9.44566 27.6651 9.40663 27.6673 9.3699 27.6719C9.34465 27.6742 9.3194 27.6764 9.29186 27.6787C9.24595 27.6833 9.19774 27.6878 9.14953 27.6946C9.12658 27.6969 9.10592 27.6992 9.08296 27.7015C9.02328 27.7083 8.96589 27.7151 8.90621 27.7219C8.87866 27.7242 8.85112 27.7288 8.82357 27.7333C8.78684 27.7379 8.74782 27.7424 8.71109 27.747C8.67895 27.7515 8.64911 27.7561 8.61697 27.7606C8.58254 27.7652 8.54811 27.7697 8.51368 27.7743C8.48154 27.7788 8.4494 27.7834 8.41497 27.7879C8.38054 27.7925 8.3484 27.797 8.31397 27.8039C8.27953 27.8084 8.2474 27.8153 8.21296 27.8198C8.18083 27.8244 8.14869 27.8312 8.11425 27.8357C8.07982 27.8426 8.04539 27.8471 8.01096 27.8539C7.97882 27.8585 7.94668 27.8653 7.91455 27.8721C7.88011 27.879 7.84568 27.8835 7.81125 27.8904C7.77911 27.8972 7.74927 27.9017 7.71713 27.9086C7.64827 27.9222 7.5794 27.9359 7.51053 27.9495C7.48299 27.9563 7.45544 27.9609 7.4256 27.9677C7.38887 27.9746 7.35214 27.9837 7.31541 27.9928C7.28557 27.9996 7.25803 28.0064 7.22819 28.0132C7.19146 28.0223 7.15473 28.0314 7.118 28.0383C7.09045 28.0451 7.06061 28.0519 7.03307 28.0588C6.99634 28.0679 6.95961 28.077 6.92518 28.0861C6.89763 28.0929 6.86779 28.0997 6.84024 28.1088C6.80351 28.1179 6.76908 28.127 6.73235 28.1384C6.70481 28.1452 6.67726 28.1543 6.64972 28.1612C6.61299 28.1725 6.57626 28.1816 6.54183 28.193C6.51428 28.1999 6.48903 28.209 6.46378 28.2158C6.42705 28.2272 6.39032 28.2385 6.35359 28.2499C6.349 28.2499 6.34441 28.2522 6.33982 28.2545C6.27095 28.2476 6.1952 28.2431 6.10797 28.2408C5.89679 28.2408 5.6833 28.2681 5.50425 28.3023C5.16681 28.366 4.75362 28.5116 4.39781 28.5276H3.54618C2.79095 28.523 2.02425 28.7051 1.70058 28.9622L1.55596 29.0783C1.23459 29.3332 1.42053 29.5994 2.01277 29.7223L2.72208 29.8702C2.99984 29.9294 3.01821 30.0637 3.15594 30.1615C3.24087 30.2207 3.31662 30.2981 3.66095 30.3322C3.70227 30.3368 3.74589 30.339 3.78721 30.339C3.7918 30.3481 3.79639 30.3572 3.80098 30.3663C3.80557 30.3777 3.81016 30.3891 3.81475 30.3982C3.82623 30.4187 3.83771 30.4392 3.84918 30.4596C3.85378 30.4665 3.85837 30.4756 3.86296 30.4824C3.88132 30.5097 3.90198 30.537 3.92494 30.5643C3.92953 30.5689 3.93412 30.5757 3.93871 30.5803C3.95707 30.603 3.97544 30.6235 3.9961 30.6463C4.00528 30.6554 4.01446 30.6645 4.02594 30.6736C4.0443 30.6895 4.06037 30.7077 4.07874 30.7236C4.09021 30.735 4.10399 30.7441 4.11546 30.7532C4.13383 30.7691 4.15219 30.7828 4.17056 30.7987C4.18433 30.8101 4.1981 30.8192 4.21188 30.8306C4.23254 30.8442 4.2509 30.8602 4.27156 30.8738C4.28763 30.8852 4.3014 30.8943 4.31747 30.9057C4.33813 30.9193 4.36108 30.933 4.38174 30.9467C4.39781 30.9558 4.41388 30.9671 4.42995 30.9762C4.45291 30.9899 4.47586 31.0035 4.49882 31.0172C4.51488 31.0263 4.53325 31.0354 4.54932 31.0445C4.57457 31.0582 4.59982 31.0718 4.62736 31.0832C4.64343 31.0923 4.6618 31.1014 4.67787 31.1082C4.70541 31.1219 4.73525 31.1355 4.7651 31.1492C4.78116 31.156 4.79723 31.1651 4.8133 31.1719C4.85003 31.1879 4.88676 31.2038 4.92578 31.2197C4.93496 31.2243 4.94415 31.2288 4.95333 31.2311C5.00153 31.2516 5.04974 31.2698 5.09795 31.288C5.11172 31.2926 5.12549 31.2971 5.13926 31.3039C5.17599 31.3176 5.21043 31.3313 5.24715 31.3426C5.26552 31.3495 5.28618 31.3563 5.30454 31.3631C5.33668 31.3745 5.36882 31.3836 5.40095 31.395C5.42161 31.4018 5.44457 31.4086 5.46523 31.4155C5.49507 31.4246 5.52721 31.4337 5.55934 31.4428C5.5823 31.4496 5.60525 31.4564 5.62591 31.4632C5.65576 31.4723 5.68789 31.4814 5.71774 31.4883C5.74069 31.4951 5.76365 31.4997 5.7866 31.5065C5.81644 31.5156 5.84858 31.5224 5.88072 31.5315C5.90367 31.5383 5.92663 31.5429 5.94958 31.5474C5.98172 31.5543 6.01386 31.5634 6.0437 31.5702C6.06665 31.5748 6.08961 31.5816 6.11027 31.5861C6.14241 31.593 6.17684 31.5998 6.20898 31.6066C6.22964 31.6112 6.25029 31.6157 6.27325 31.6203C6.30998 31.6271 6.34671 31.6339 6.38114 31.6407C6.3995 31.643 6.41557 31.6476 6.43394 31.6499C6.48673 31.659 6.54183 31.6681 6.59462 31.6772C6.64742 31.6863 6.70251 31.6954 6.7622 31.7045C6.87927 31.7227 7.00322 31.7454 7.13636 31.7682C7.20293 31.7796 7.2718 31.7909 7.34067 31.8046C7.69188 31.866 8.08212 31.9366 8.47695 32.0094C9.03705 32.1118 9.61323 32.2211 10.1068 32.3144C10.3042 32.3508 10.4878 32.3963 10.66 32.4441C11.1765 32.592 11.5621 32.7923 11.7687 33.0221C11.81 33.0676 11.8537 33.1131 11.8973 33.1587C11.911 33.1723 11.9271 33.186 11.9409 33.2019C11.9707 33.2315 12.0029 33.2611 12.035 33.2907C12.0534 33.3066 12.0717 33.3225 12.0924 33.3384C12.1222 33.3635 12.1521 33.3908 12.1842 33.4158C12.2049 33.4317 12.2255 33.4477 12.2462 33.4636C12.276 33.4886 12.3082 33.5114 12.3403 33.5364C12.361 33.5524 12.3839 33.5683 12.4069 33.5842C12.439 33.607 12.4711 33.6297 12.5033 33.6525C12.5262 33.6684 12.5469 33.6821 12.5699 33.698C12.6043 33.7208 12.6364 33.7412 12.6709 33.764C12.6938 33.7777 12.7168 33.7913 12.7397 33.8072C12.7765 33.83 12.8109 33.8505 12.8476 33.871C12.8706 33.8846 12.8912 33.896 12.9142 33.9096C12.9532 33.9324 12.9922 33.9529 13.029 33.9734C13.0496 33.9847 13.0703 33.9961 13.0909 34.0075C13.1323 34.0303 13.1759 34.0507 13.2172 34.0735C13.2356 34.0826 13.2539 34.0917 13.2723 34.1008C13.3205 34.1236 13.3687 34.1486 13.4169 34.1714C13.4307 34.1782 13.4444 34.185 13.4559 34.1896C13.6465 34.2783 13.8416 34.358 14.0321 34.4308C14.0321 34.4308 14.0344 34.4308 14.0367 34.4308C14.0987 34.4535 14.1606 34.4763 14.2226 34.4991C14.2318 34.5013 14.241 34.5059 14.2502 34.5082C14.303 34.5264 14.3581 34.5469 14.4109 34.5651C14.4223 34.5696 14.4361 34.5742 14.4476 34.5764C14.4981 34.5924 14.5463 34.6106 14.5968 34.6242C14.6106 34.6288 14.6243 34.6333 14.6381 34.6379C14.6863 34.6538 14.7322 34.6675 14.7804 34.6811C14.7942 34.6857 14.808 34.6902 14.8218 34.6925C14.8677 34.7062 14.9136 34.7198 14.9595 34.7335C14.9733 34.738 14.987 34.7403 14.9985 34.7448C15.0444 34.7585 15.0903 34.7699 15.1362 34.7835C15.1477 34.7858 15.1592 34.7904 15.1707 34.7926C15.2166 34.8063 15.2625 34.8177 15.3084 34.829C15.3084 34.829 15.3107 34.829 15.313 34.829C15.8042 35.448 16.7247 35.8645 17.8886 36.0761C17.9023 36.0784 17.9161 36.0807 17.9299 36.083C18.0447 36.1034 18.1594 36.1217 18.2788 36.1376C18.4051 36.1558 18.5336 36.1694 18.6645 36.1831C18.7655 36.1922 18.8688 36.2013 18.9721 36.2081C19.0019 36.2081 19.0294 36.2127 19.0593 36.215C20.4022 36.2992 21.9264 36.1558 23.4919 35.8281C23.5126 35.8235 23.5355 35.819 23.5562 35.8144C23.6687 35.7917 23.7789 35.7666 23.8913 35.7393C23.9533 35.7257 24.0176 35.712 24.0796 35.6961C24.1484 35.6802 24.2173 35.662 24.2862 35.646C24.3987 35.6187 24.5088 35.5914 24.6213 35.5618C24.6397 35.5573 24.658 35.5527 24.6764 35.5482C26.7607 34.9952 28.8267 34.1463 30.5392 33.1018C31.5446 33.0403 32.5202 32.8992 33.3672 32.6785C34.0008 32.5146 34.4966 32.3121 34.8456 32.0913C34.8777 32.0731 34.9075 32.0527 34.9374 32.0322C35.2817 31.8046 35.4493 31.5611 35.4424 31.3199C35.4424 31.3039 35.4424 31.2857 35.4424 31.2698C35.4401 31.2493 35.4355 31.2288 35.4309 31.2061C35.4194 31.1606 35.4057 31.1173 35.3827 31.0718C35.206 30.7418 34.6895 30.4278 33.8378 30.1775C33.8126 30.1706 33.7873 30.1638 33.7621 30.157C34.4829 29.0214 34.476 28.0132 33.8263 27.2668C33.8309 27.2668 33.8332 27.2691 33.8332 27.2691C33.8195 27.2531 33.8011 27.2372 33.7873 27.219L33.7896 27.2236Z" fill="var(--sapContent_Illustrative_Color21)"/>
<path d="M16.2954 8.30764L15.981 7.26764C15.7147 6.38465 16.0934 5.43568 16.8992 4.97598L17.2641 4.76661C18.0814 4.29781 19.1189 4.45939 19.7525 5.15576L20.4572 5.92723C20.7832 6.20032 21.4236 6.14343 21.8345 6.25721C22.0457 6.31866 22.2821 6.42334 22.4474 6.61223C22.8675 7.09468 22.6655 7.65223 22.6655 7.65223C22.6655 7.65223 21.6876 8.38502 19.865 9.42958C18.0423 10.4741 16.9726 10.9111 16.9726 10.9111C16.9726 10.9111 16.4263 10.8291 16.1784 10.4036C15.9534 10.019 16.0406 9.73907 16.0888 9.5024C16.1646 9.11097 16.4171 8.71727 16.3 8.30992L16.2954 8.30764Z" fill="var(--sapContent_Illustrative_Color16)"/>
<path d="M17.4065 30.6367C17.4065 30.6367 15.8226 27.7284 17.5626 23.2406C17.9115 22.3417 17.9184 21.3472 17.5902 20.4415C17.115 19.1375 16.4355 17.3146 16.0017 16.3292C15.0949 14.2743 15.0972 10.0528 18.8114 7.96139C22.5255 5.87 25.5648 7.12392 27.1671 8.54625C28.7693 9.96858 31.3036 14.0694 32.6534 14.1536C34.0031 14.2378 37.7586 14.4882 39.6386 16.9573C41.5163 19.4265 17.4088 30.639 17.4088 30.639L17.4065 30.6367Z" fill="var(--sapContent_Illustrative_Color26)"/>
<path d="M19.656 27.3007C19.5183 25.2457 19.8167 22.7515 21.6348 20.4758C23.4528 18.2001 24.1093 17.7677 22.1421 17.7108C19.679 17.6403 18.5703 15.9767 17.8587 14.5475C16.4515 11.7234 17.8587 8.60107 17.8587 8.60107C15.1017 10.8245 15.1752 14.4656 15.9993 16.3272C16.4354 17.3126 17.1149 19.1354 17.5878 20.4394C17.9183 21.3451 17.9092 22.3396 17.5602 23.2385C15.958 27.3758 17.1769 30.1704 17.3789 30.58C17.9069 29.8609 19.7065 28.0449 19.656 27.2984V27.3007Z" fill="var(--sapContent_Illustrative_Color15)"/>
<path d="M26.4875 11.9003C27.4907 15.6302 26.926 15.5688 28.1174 16.0035C29.3087 16.4381 32.5546 15.1501 34.7009 16.0035C36.8472 16.8568 37.6667 18.2405 37.6667 18.2405L39.5284 17.8513C39.7602 17.4895 39.8107 17.1846 39.6363 16.957C37.7585 14.4878 34.0031 14.2375 32.651 14.1533C31.3012 14.0691 28.7693 9.96823 27.1647 8.5459C25.7576 7.2988 23.2463 6.17914 20.145 7.33521C21.5682 7.65381 25.6634 8.82809 26.4875 11.9003Z" fill="var(--sapContent_Illustrative_Color27)"/>
<path d="M33.3865 32.3371C40.5736 28.2235 44.8423 22.2142 42.921 18.9151C40.9996 15.6159 33.6159 16.2763 26.4288 20.3899C19.2418 24.5036 14.9731 30.5129 16.8944 33.812C18.8157 37.1111 26.1995 36.4508 33.3865 32.3371Z" fill="var(--sapContent_Illustrative_Color3)"/>
<path d="M40.5568 20.4781C39.3333 18.3753 33.2089 19.6771 27.8144 22.7652C22.4199 25.8534 18.2811 30.5937 19.5184 32.6874C20.7557 34.781 26.8526 33.4634 32.247 30.3752C37.6415 27.2871 41.7826 22.5786 40.5568 20.4781Z" fill="var(--sapContent_Illustrative_Color29)"/>
<path d="M40.5569 20.4781C39.3334 18.3753 33.2089 19.6771 27.8145 22.7652C27.5895 22.8949 27.3669 23.0246 27.1465 23.1589C28.0257 22.8494 38.9386 19.1218 38.8972 25.0409C40.4444 23.2204 41.1675 21.5249 40.5592 20.4758L40.5569 20.4781Z" fill="var(--sapContent_Illustrative_Color30)"/>
<path d="M42.9234 18.9143C41.9455 17.2326 39.161 16.1539 34.9373 17.1142C34.9373 17.1142 40.4098 17.162 41.8743 19.4514C43.0634 21.3107 42.2921 24.2008 42.2921 24.2008C43.4421 22.1868 43.736 20.3093 42.9257 18.9143H42.9234Z" fill="var(--sapContent_Illustrative_Color26)"/>
<path d="M18.4304 32.7531C16.9246 29.6262 20.8155 24.499 20.8155 24.499C16.5871 28.4201 15.7171 31.7882 16.8947 33.809C18.7679 37.0246 25.9138 36.483 32.9243 32.6461L36.7992 30.1633C31.889 33.7294 20.5308 37.1134 18.4304 32.7508V32.7531Z" fill="var(--sapContent_Illustrative_Color16)"/>
<path d="M28.6937 22.2583L27.0874 23.1777L29.4174 27.1785L31.0236 26.2591L28.6937 22.2583Z" fill="var(--sapContent_Illustrative_Color16)"/>
<path d="M32.2265 34.6988C34.7519 34.6988 36.7992 32.6692 36.7992 30.1656C36.7992 27.6619 34.7519 25.6323 32.2265 25.6323C29.7011 25.6323 27.6538 27.6619 27.6538 30.1656C27.6538 32.6692 29.7011 34.6988 32.2265 34.6988Z" fill="var(--sapContent_Illustrative_Color3)"/>
<path d="M32.1138 34.7446C33.6885 34.7446 35.1921 33.9094 36.0139 32.7078C30.0363 33.7342 28.3836 29.7403 28.9666 26.9912C28.1563 27.8082 27.5503 28.9301 27.5503 30.1681C27.5503 32.8944 29.5887 34.7469 32.1138 34.7469V34.7446Z" fill="var(--sapContent_Illustrative_Color16)"/>
<path d="M35.5007 28.272C35.7138 27.4802 34.975 26.5972 33.8505 26.2998C32.726 26.0023 31.6417 26.403 31.4286 27.1948C31.2155 27.9866 31.9543 28.8696 33.0788 29.167C34.2033 29.4645 35.2876 29.0637 35.5007 28.272Z" fill="var(--sapContent_Illustrative_Color26)"/>
</g>
<defs>
<clipPath id="clip0_6812_11807">
<rect width="45" height="45" fill="var(--sapContent_Illustrative_Color8)"/>
</clipPath>
</defs>
</svg>