<svg width="45" height="45" viewBox="0 0 45 45" fill="none" xmlns="http://www.w3.org/2000/svg" id="sapIllus-Dot-SimpleConnection">
<path d="M15.531 18.1392H22.4388C22.9157 18.1392 23.3022 17.7491 23.3022 17.2678C23.3022 16.7866 22.9157 16.3966 22.4388 16.3966H15.531C15.0542 16.3966 14.6676 16.7866 14.6676 17.2678C14.6676 17.7491 15.0542 18.1392 15.531 18.1392Z" style="fill:var(--sapContent_Illustrative_Color3)"/>
<path d="M3.73396 44.5653C3.53737 44.5664 3.34654 44.4983 3.19429 44.3728C0.888115 42.4995 -0.205601 40.3249 0.0318523 38.0777C0.39163 34.5852 3.36337 32.4432 8.8284 31.7171C12.8183 31.1871 16.837 31.2887 20.7226 31.3867C22.0754 31.4194 23.4785 31.4557 24.8529 31.463C25.9322 31.463 27.0116 31.5211 28.0477 31.5719C31.5879 31.7389 35.2433 31.9168 38.4453 30.3194C39.5413 29.7632 40.5067 28.9769 41.2768 28.0132C42.0469 27.0495 42.6038 25.9308 42.9101 24.7321C43.2749 23.4488 43.3673 22.1022 43.1813 20.7804C42.9953 19.4586 42.5351 18.1912 41.8308 17.061L41.7373 16.9158C40.6579 15.2458 39.1469 14.5269 36.7004 14.5124C36.4714 14.5124 36.2517 14.4206 36.0898 14.2572C35.9279 14.0938 35.8369 13.8722 35.8369 13.6411C35.8369 13.41 35.9279 13.1884 36.0898 13.025C36.2517 12.8616 36.4714 12.7698 36.7004 12.7698C39.7657 12.7879 41.766 13.7718 43.1764 15.961L43.2735 16.1134C44.1104 17.449 44.6592 18.9474 44.8843 20.5112C45.1093 22.0749 45.0054 23.669 44.5795 25.1896C44.2085 26.6253 43.5381 27.9645 42.613 29.1178C41.6879 30.271 40.5295 31.2117 39.2152 31.8768C35.6174 33.6703 31.7282 33.4851 27.9686 33.3036C26.9396 33.2564 25.8711 33.2056 24.8457 33.1983C23.4534 33.1983 22.0466 33.1548 20.6831 33.1221C16.8622 33.0241 12.9119 32.926 9.05866 33.4379C4.42113 34.0551 2.0322 35.6162 1.75158 38.2555C1.57529 39.9074 2.42796 41.523 4.27002 43.0078C4.40941 43.121 4.51052 43.275 4.5594 43.4487C4.60827 43.6223 4.60251 43.807 4.54286 43.9772C4.48322 44.1474 4.37265 44.2947 4.22645 44.3987C4.08026 44.5028 3.90565 44.5584 3.72675 44.558L3.73396 44.5653Z" style="fill:var(--sapContent_Illustrative_Color4)"/>
<path d="M14.8943 25.9811H7.12305V1H14.8943C15.0076 1 15.1199 1.02253 15.2247 1.06632C15.3294 1.11011 15.4246 1.17429 15.5048 1.2552C15.585 1.33611 15.6486 1.43216 15.692 1.53788C15.7354 1.64359 15.7577 1.7569 15.7577 1.87132C15.7577 1.98574 15.7354 2.09902 15.692 2.20474C15.6486 2.31045 15.585 2.4065 15.5048 2.48741C15.4246 2.56832 15.3294 2.6325 15.2247 2.67629C15.1199 2.72008 15.0076 2.74261 14.8943 2.74261H8.83559V24.2349H14.8798C15.1089 24.2349 15.3285 24.3267 15.4904 24.4901C15.6524 24.6535 15.7433 24.8751 15.7433 25.1062C15.7433 25.3373 15.6524 25.5589 15.4904 25.7223C15.3285 25.8857 15.1089 25.9775 14.8798 25.9775L14.8943 25.9811Z" style="fill:var(--sapContent_Illustrative_Color5)"/>
<path d="M15.531 10.8782L22.4388 10.8782C22.9157 10.8782 23.3022 10.4881 23.3022 10.0069C23.3022 9.52565 22.9157 9.13556 22.4388 9.13556H15.531C15.0542 9.13556 14.6676 9.52565 14.6676 10.0069C14.6676 10.4881 15.0542 10.8782 15.531 10.8782Z" style="fill:var(--sapContent_Illustrative_Color3)"/>
<path d="M22.2554 22.7862V4.20188C22.2554 3.72067 21.8688 3.33057 21.3919 3.33057C20.915 3.33057 20.5284 3.72067 20.5284 4.20188V22.7862C20.5284 23.2674 20.915 23.6575 21.3919 23.6575C21.8688 23.6575 22.2554 23.2674 22.2554 22.7862Z" style="fill:var(--sapContent_Illustrative_Color9)"/>
<path d="M30.0626 21.6249H22.1475V5.65088H30.0626C32.1618 5.65088 34.175 6.49237 35.6594 7.99022C37.1438 9.48807 37.9777 11.5196 37.9777 13.6379C37.9777 15.7562 37.1438 17.7877 35.6594 19.2855C34.175 20.7834 32.1618 21.6249 30.0626 21.6249Z" style="fill:var(--sapContent_Illustrative_Color9)"/>
<path d="M37.9992 13.6012C38.0025 13.9548 37.9784 14.308 37.9272 14.6577C37.6737 12.7405 36.7393 10.9812 35.2975 9.70658C33.8557 8.43197 32.0045 7.72865 30.0877 7.72718H22.1726V5.61426H30.0877C32.1863 5.61522 34.1986 6.45711 35.6822 7.95486C37.1658 9.45261 37.9992 11.4836 37.9992 13.6012Z" style="fill:var(--sapContent_Illustrative_Color17)"/>
</svg>
