<svg width="45" height="45" viewBox="0 0 45 45" fill="none" xmlns="http://www.w3.org/2000/svg" id="sapIllus-Dot-AddPeople">
<circle cx="26.7865" cy="22.2135" r="18.2135" style="fill:var(--sapContent_Illustrative_Color9)"/>
<path d="M26.7866 20.4978C29.3767 20.4978 31.4764 18.3981 31.4764 15.808C31.4764 13.2179 29.3767 11.1182 26.7866 11.1182C24.1965 11.1182 22.0968 13.2179 22.0968 15.808C22.0968 18.3981 24.1965 20.4978 26.7866 20.4978Z" style="fill:var(--sapContent_Illustrative_Color17)"/>
<path d="M26.7865 22.2173C28.9519 22.2173 31.0286 23.0775 32.5598 24.6087C34.091 26.1398 34.9512 28.2166 34.9512 30.382V33.2798H18.6218V30.382C18.6218 28.2166 19.482 26.1398 21.0132 24.6087C22.5444 23.0775 24.6211 22.2173 26.7865 22.2173Z" style="fill:var(--sapContent_Illustrative_Color17)"/>
<path d="M10.478 42.5781C16.2649 42.5781 20.956 37.8869 20.956 32.1001C20.956 26.3132 16.2649 21.6221 10.478 21.6221C4.69116 21.6221 0 26.3132 0 32.1001C0 37.8869 4.69116 42.5781 10.478 42.5781Z" style="fill:var(--sapContent_Illustrative_Color3)"/>
<path d="M10.482 26.3945H10.4781C9.69615 26.3945 9.06226 27.0284 9.06226 27.8104V36.3903C9.06226 37.1723 9.69615 37.8062 10.4781 37.8062H10.482C11.2639 37.8062 11.8978 37.1723 11.8978 36.3903V27.8104C11.8978 27.0284 11.2639 26.3945 10.482 26.3945Z" style="fill:var(--sapContent_Illustrative_Color8)"/>
<path d="M5.01514 31.9382V32.2585C5.01514 32.953 5.57822 33.5161 6.27281 33.5161H14.6946C15.3892 33.5161 15.9523 32.953 15.9523 32.2585V31.9382C15.9523 31.2436 15.3892 30.6806 14.6946 30.6806H6.27281C5.57822 30.6806 5.01514 31.2436 5.01514 31.9382Z" style="fill:var(--sapContent_Illustrative_Color8)"/>
</svg>
