<svg width="45" height="45" viewBox="0 0 45 45" fill="none" xmlns="http://www.w3.org/2000/svg" id="sapIllus-Dot-NoSavedItems">
<g clip-path="url(#clip0_6880_7463)">
<path d="M42.9249 31.8641C41.608 31.439 39.929 31.1457 38.318 31.0139C38.3115 31.0139 38.3049 31.0139 38.2983 31.0126C38.1951 31.0044 38.092 30.9963 37.9888 30.9895C37.9822 30.9895 37.9757 30.9895 37.9669 30.9881C37.6443 30.9664 37.3216 30.9515 37.0078 30.942C36.9924 30.942 36.9748 30.942 36.9595 30.942C36.8739 30.9392 36.7905 30.9379 36.7071 30.9365C36.6829 30.9365 36.661 30.9365 36.6369 30.9365C36.5578 30.9365 36.4788 30.9365 36.402 30.9365C36.3801 30.9365 36.3581 30.9365 36.334 30.9365C36.2418 30.9365 36.1496 30.9379 36.0574 30.9392C36.053 30.9392 36.0465 30.9392 36.0421 30.9392C35.9455 30.9406 35.8511 30.9433 35.7568 30.9474C34.903 30.9732 34.4838 30.9963 33.788 31.0601C33.6103 31.0737 33.4325 31.09 33.2635 31.1104C31.4221 31.3317 30.6605 31.8899 31.2114 32.535C30.1491 32.6572 28.7335 32.8324 27.252 33.0225C26.4904 32.9084 25.7025 32.8256 24.9124 32.7767C24.897 32.7767 24.8883 32.774 24.8707 32.7726C23.5692 32.668 22.0504 32.6708 20.6194 32.7305C20.6085 32.7305 20.5975 32.7305 20.5865 32.7305C19.6252 32.7658 19.1665 32.7889 17.9726 32.8962C17.6236 32.9274 17.2658 32.975 16.9257 33.0211C15.5034 33.214 14.338 33.5195 13.4799 33.9025C13.3196 33.9731 13.1704 34.0478 13.0321 34.1239C12.8939 34.1999 12.7644 34.28 12.6459 34.3629C12.5866 34.4036 12.5317 34.4457 12.4769 34.4878C12.3693 34.5734 12.2749 34.6603 12.1915 34.7499C11.6494 35.338 11.0653 35.5661 11.7633 36.256C8.26609 36.9679 4.60408 37.6244 1.27696 38.9626C1.18917 38.9979 1.12333 39.0305 1.07505 39.059C0.976281 39.1161 0.947749 39.1568 0.943359 39.1853C0.943359 39.1989 0.945554 39.2098 0.952138 39.2179V39.2193C0.954333 39.2234 0.958723 39.2261 0.965307 39.2301C1.06627 39.3008 1.60837 39.4515 3.38613 39.1799C5.01465 38.93 11.2061 37.8531 13.3723 37.481C13.9715 37.83 14.9262 38.2265 16.6667 38.6177C16.6996 38.6258 16.7347 38.6326 16.7698 38.6408C16.8488 38.6584 16.9257 38.6761 17.0091 38.6937C17.2044 38.7358 17.4041 38.7766 17.606 38.8146C17.6104 38.8146 17.617 38.8173 17.6214 38.8173C17.7772 38.8458 17.9352 38.8743 18.0933 38.9015C18.1064 38.9042 18.1218 38.9056 18.1372 38.9083C18.2798 38.9327 18.4247 38.9545 18.5717 38.9762C18.5959 38.9803 18.6222 38.983 18.6463 38.9871C18.7824 39.0074 18.9207 39.0264 19.059 39.0441C19.0919 39.0482 19.1248 39.0522 19.1577 39.0563C19.2894 39.0726 19.4211 39.0889 19.555 39.1038C19.5945 39.1079 19.634 39.112 19.6735 39.1161C19.8008 39.1297 19.9281 39.1432 20.0554 39.1541C20.1015 39.1582 20.1476 39.1622 20.1915 39.1663C20.3144 39.1772 20.4373 39.188 20.5602 39.1976C20.6107 39.2016 20.6611 39.2057 20.7116 39.2084C20.8301 39.2166 20.9509 39.2247 21.0694 39.2315C21.1242 39.2342 21.1791 39.2383 21.234 39.241C21.3503 39.2478 21.4666 39.2532 21.5829 39.2573C21.6422 39.26 21.6993 39.2627 21.7585 39.2641C21.8705 39.2682 21.9846 39.2709 22.0965 39.2736C22.158 39.275 22.2194 39.2763 22.2809 39.2777C22.3906 39.279 22.5004 39.2804 22.6101 39.2818C22.6737 39.2818 22.7374 39.2818 22.8032 39.2818C22.9108 39.2818 23.0183 39.2818 23.1259 39.279C23.1917 39.279 23.2576 39.279 23.3234 39.2763C23.4287 39.275 23.5341 39.2709 23.6394 39.2682C23.7053 39.2668 23.7733 39.2641 23.8392 39.2627C23.9445 39.2587 24.0477 39.2532 24.1508 39.2492C24.2167 39.2464 24.2825 39.2437 24.3484 39.2397C24.4537 39.2342 24.559 39.2261 24.6644 39.2193C24.7259 39.2152 24.7895 39.2111 24.851 39.2071C24.9651 39.1989 25.0748 39.188 25.1868 39.1785C25.2394 39.1745 25.2921 39.1704 25.3448 39.165C25.5072 39.1487 25.6696 39.1324 25.8298 39.1134V39.1188H25.8276C26.6221 39.0455 27.6866 38.9042 28.7796 38.6706C28.8783 38.6503 28.9771 38.6285 29.0737 38.6054C29.4644 38.5158 29.8572 38.4153 30.2347 38.3026C30.3291 38.2741 30.4213 38.2456 30.5135 38.2157C31.1521 38.0093 31.7403 37.7675 32.221 37.4851C32.7543 37.1713 33.1494 36.8101 33.3271 36.3986C33.3579 36.3375 33.3798 36.2764 33.3952 36.2139C33.3996 36.1963 33.404 36.1786 33.4062 36.1623C33.4171 36.1148 33.4215 36.0659 33.4237 36.0184C33.4237 36.0034 33.4237 35.9871 33.4237 35.9722C33.4237 35.8459 33.393 35.7182 33.3359 35.5892C33.3315 35.577 33.325 35.5648 33.3184 35.5525C33.2898 35.4955 33.2569 35.4385 33.2196 35.3801C33.2152 35.3733 33.2108 35.3665 33.2064 35.3611C33.134 35.2565 33.0418 35.1506 32.9343 35.0473C34.3345 34.7173 35.5482 34.4254 36.2352 34.261C37.9669 34.5177 39.7995 34.6005 41.2766 34.4552C41.2766 34.4552 41.2963 34.4539 41.3051 34.4525C41.3183 34.4525 41.3315 34.4498 41.3424 34.4484C42.5013 34.3398 43.7128 34.1347 44.3493 33.8753C44.3493 33.8753 44.3515 33.8753 44.3537 33.874C44.3954 33.8563 44.4349 33.8387 44.4722 33.821C44.4897 33.8129 44.5073 33.8034 44.5248 33.7939C44.5336 33.7898 44.5424 33.7857 44.549 33.7816C44.549 33.7816 44.5512 33.7789 44.5534 33.7776C44.6126 33.7463 44.6675 33.7137 44.7158 33.6798C44.8124 33.6119 44.8848 33.5386 44.9309 33.4639C45.0099 33.3403 45.0209 33.2085 44.966 33.0727C44.955 33.0456 44.9419 33.0184 44.9265 32.9913C44.7136 32.6178 44.0288 32.2212 42.9183 31.8614L42.9249 31.8641Z" fill="var(--sapContent_Illustrative_Color21)"/>
<path d="M26.5337 22.8692C24.7662 19.6914 22.1114 17.4929 19.4403 16.6596C19.4216 16.6525 19.41 16.6407 19.3913 16.6337C16.8322 15.6403 13.6334 16.0546 11.4503 16.8691C11.0674 16.9985 10.6938 17.1515 10.3342 17.354C6.03334 19.7856 5.26282 26.6354 8.61106 32.6567C11.6604 38.1389 17.0751 41.0271 21.2662 39.6619V39.6783C23.2159 39.2005 27.1478 37.2632 28.1752 31.8775C28.7426 29.2035 28.2289 25.9175 26.5337 22.8692Z" fill="var(--sapContent_Illustrative_Color28)"/>
<path d="M8.83749 31.4966C8.83749 31.4966 3.45555 35.1145 1.59464 36.5881C-0.266276 38.0616 -0.0327867 38.7631 0.065279 38.9302C0.163345 39.0973 0.761079 39.6317 2.12232 38.9302C3.48123 38.2287 9.38386 34.6179 10.2478 34.1165C11.1093 33.6151 8.83749 31.4966 8.83749 31.4966Z" fill="var(--sapContent_Illustrative_Color22)"/>
<path d="M21.2665 39.6625V39.6789C23.2161 39.2011 27.1481 37.2638 28.1755 31.8781C28.5584 30.0727 28.4463 27.9871 27.8136 25.8851L17.42 22.8794C17.42 22.8794 15.4689 25.2401 20.9023 31.0213C23.9166 34.2273 19.8399 39.7142 14.1567 38.5255C16.5173 39.9214 19.06 40.3827 21.2665 39.6648V39.6625Z" fill="var(--sapContent_Illustrative_Color16)"/>
<path d="M28.1399 15.3059C26.4097 15.9155 22.403 17.8575 19.1365 19.4981C17.1635 20.4844 16.0358 23.8717 17.6025 26.6587C19.5264 30.0789 23.5612 30.5403 24.9224 29.4904C28.4131 26.8023 32.5202 23.4668 32.5202 23.4668L33.2767 21.9415C33.2767 21.9415 29.8724 14.6938 28.1422 15.3035L28.1399 15.3059Z" fill="var(--sapContent_Illustrative_Color29)"/>
<path d="M2.0336 37.2548C4.16536 35.9861 9.58933 32.9896 9.58933 32.9896L8.67405 31.6055C7.76811 32.2175 3.26409 35.2634 1.59464 36.5863C-0.266276 38.0599 -0.0327867 38.7613 0.065279 38.9284C0.116647 39.0132 0.296434 39.1921 0.637329 39.258C0.637329 39.258 -0.0981639 38.5236 2.0336 37.2548Z" fill="var(--sapContent_Illustrative_Color17)"/>
<path d="M14.3923 16.1509C13.2925 16.2686 12.7695 16.3486 11.455 16.8076C11.0744 16.9394 10.6938 17.1513 10.3342 17.3537C6.03334 19.7853 5.26282 26.6351 8.61106 32.6564C9.49132 34.2406 10.7312 36.4556 14.1541 38.5247C14.1541 38.5247 9.65299 34.0185 9.32321 27.339C8.99343 20.6594 11.0172 17.669 14.3899 16.1509H14.3923Z" fill="var(--sapContent_Illustrative_Color3)"/>
<path d="M35.192 25.3127C35.1662 25.3127 35.1404 25.308 35.1123 25.3057C35.1381 25.308 35.1662 25.3104 35.192 25.3127Z" fill="var(--sapContent_Illustrative_Color29)"/>
<path d="M31.7549 24.0151C31.715 23.9894 31.6752 23.9589 31.6377 23.9331C31.6775 23.9612 31.7174 23.9894 31.7549 24.0151Z" fill="var(--sapContent_Illustrative_Color29)"/>
<path d="M31.199 23.6069C31.1546 23.5719 31.1103 23.5369 31.0659 23.4995C31.1103 23.5345 31.1546 23.5719 31.199 23.6069Z" fill="var(--sapContent_Illustrative_Color29)"/>
<path d="M32.1331 24.26C32.0956 24.2365 32.0581 24.2154 32.0229 24.1943C32.0605 24.2178 32.0956 24.2389 32.1331 24.26Z" fill="var(--sapContent_Illustrative_Color29)"/>
<path d="M30.6548 23.1432C30.6128 23.1059 30.5684 23.0662 30.5264 23.0288C30.5684 23.0685 30.6104 23.1059 30.6548 23.1432Z" fill="var(--sapContent_Illustrative_Color29)"/>
<path d="M34.0014 25.0939C33.9662 25.0846 33.9311 25.0752 33.8936 25.0635C33.9287 25.0752 33.9639 25.0846 34.0014 25.0939Z" fill="var(--sapContent_Illustrative_Color29)"/>
<path d="M33.6297 24.976C33.6039 24.9666 33.5805 24.9572 33.5547 24.9502C33.5805 24.9596 33.6039 24.9689 33.6297 24.976Z" fill="var(--sapContent_Illustrative_Color29)"/>
<path d="M34.6059 25.2354C34.566 25.2283 34.5262 25.2213 34.4863 25.2119C34.5262 25.2189 34.566 25.2283 34.6059 25.2354Z" fill="var(--sapContent_Illustrative_Color29)"/>
<path d="M33.0196 24.7302C32.9776 24.7116 32.9356 24.6906 32.8936 24.6719C32.9356 24.6929 32.9776 24.7116 33.0196 24.7302Z" fill="var(--sapContent_Illustrative_Color29)"/>
<path d="M32.7284 24.5913C32.684 24.5702 32.642 24.5469 32.5977 24.5259C32.6397 24.5492 32.684 24.5702 32.7284 24.5913Z" fill="var(--sapContent_Illustrative_Color29)"/>
<path d="M36.4526 25.2524C36.4175 25.2595 36.3823 25.2642 36.3472 25.2688C36.3823 25.2642 36.4175 25.2571 36.4526 25.2524Z" fill="var(--sapContent_Illustrative_Color29)"/>
<path d="M38.6772 12.2471C38.801 12.4377 38.9201 12.6355 39.0345 12.8379C38.9201 12.6355 38.801 12.4401 38.6772 12.2471Z" fill="var(--sapContent_Illustrative_Color29)"/>
<path d="M30.2717 20.1745L34.5773 17.0367L37.6664 10.8931C38.0096 11.2909 38.3341 11.724 38.6377 12.183C37.169 9.93737 35.1587 8.40734 33.167 7.9036C33.3888 7.57406 33.4028 7.34573 32.9732 7.38104C31.8548 7.47519 31.3061 7.58112 30.3815 7.92008C30.148 7.9907 29.9168 8.07544 29.6927 8.18372C26.4845 9.74435 25.672 14.744 27.8785 19.3506C28.224 20.0733 28.6256 20.7418 29.0669 21.3514C29.0296 21.2996 28.9922 21.2502 28.9572 21.1984L30.2764 20.1745H30.2717Z" fill="var(--sapContent_Illustrative_Color3)"/>
<path d="M30.1738 22.6787C30.2392 22.7446 30.3022 22.8105 30.3676 22.8741C30.3022 22.8105 30.2369 22.7446 30.1738 22.6787Z" fill="var(--sapContent_Illustrative_Color29)"/>
<path d="M29.5363 21.9675C29.4943 21.9181 29.4546 21.8663 29.4126 21.8169C29.4523 21.8687 29.4943 21.9181 29.5363 21.9675Z" fill="var(--sapContent_Illustrative_Color29)"/>
<path d="M29.7794 22.2553C29.7374 22.2082 29.6953 22.1588 29.6533 22.1094C29.6953 22.1588 29.7374 22.2059 29.7794 22.2553Z" fill="var(--sapContent_Illustrative_Color29)"/>
<path d="M36.1678 25.2944C36.1303 25.2991 36.0951 25.3015 36.0576 25.3062C36.0951 25.3038 36.1303 25.2991 36.1678 25.2944Z" fill="var(--sapContent_Illustrative_Color29)"/>
<path d="M35.8736 25.3193C35.8385 25.3193 35.8033 25.324 35.7705 25.324C35.8057 25.324 35.8408 25.3217 35.8736 25.3193Z" fill="var(--sapContent_Illustrative_Color29)"/>
<path d="M37.006 25.1226C36.9149 25.1506 36.8239 25.1739 36.7305 25.1949C36.8215 25.1739 36.9149 25.1482 37.006 25.1226Z" fill="var(--sapContent_Illustrative_Color29)"/>
<path d="M36.058 25.3057C35.9973 25.3103 35.9342 25.315 35.8735 25.3197C35.9342 25.3173 35.9973 25.3127 36.058 25.3057Z" fill="var(--sapContent_Illustrative_Color29)"/>
<path d="M35.4809 25.326C35.3852 25.326 35.2895 25.319 35.1914 25.312C35.2871 25.319 35.3852 25.3237 35.4809 25.326Z" fill="var(--sapContent_Illustrative_Color29)"/>
<path d="M35.1124 25.3056C35.0423 25.2986 34.9699 25.2916 34.8999 25.2822C34.9723 25.2916 35.0423 25.2986 35.1124 25.3056Z" fill="var(--sapContent_Illustrative_Color29)"/>
<path d="M34.4859 25.2111C34.4252 25.1994 34.3669 25.1854 34.3062 25.1714C34.3669 25.1854 34.4252 25.1971 34.4859 25.2111Z" fill="var(--sapContent_Illustrative_Color29)"/>
<path d="M35.7679 25.3232C35.6955 25.3256 35.6232 25.3256 35.5508 25.3232C35.6232 25.3232 35.6955 25.3232 35.7679 25.3232Z" fill="var(--sapContent_Illustrative_Color29)"/>
<path d="M30.1736 22.6786C30.1245 22.6291 30.0778 22.5797 30.0288 22.5303C30.0755 22.5821 30.1245 22.6291 30.1736 22.6786Z" fill="var(--sapContent_Illustrative_Color29)"/>
<path d="M29.905 22.3918C29.863 22.3471 29.8209 22.3 29.7812 22.2529C29.8233 22.3 29.863 22.3447 29.905 22.3918Z" fill="var(--sapContent_Illustrative_Color29)"/>
<path d="M29.4127 21.8158C29.3731 21.7663 29.3357 21.7169 29.2983 21.6675C29.3357 21.7169 29.3754 21.7663 29.4127 21.8158Z" fill="var(--sapContent_Illustrative_Color29)"/>
<path d="M29.1792 21.5111C29.1396 21.4594 29.0999 21.4052 29.0625 21.3511C29.1022 21.4052 29.1396 21.4594 29.1792 21.5111Z" fill="var(--sapContent_Illustrative_Color29)"/>
<path d="M30.795 23.2688C30.7483 23.2288 30.7016 23.1864 30.6572 23.144C30.7039 23.1864 30.7483 23.2288 30.795 23.2688Z" fill="var(--sapContent_Illustrative_Color29)"/>
<path d="M32.8938 24.6717C32.8378 24.646 32.7841 24.618 32.728 24.5923C32.7841 24.6203 32.8378 24.646 32.8938 24.6717Z" fill="var(--sapContent_Illustrative_Color29)"/>
<path d="M33.8932 25.062C33.8045 25.0363 33.7181 25.0059 33.6294 24.9756C33.7181 25.0059 33.8045 25.034 33.8932 25.062Z" fill="var(--sapContent_Illustrative_Color29)"/>
<path d="M32.5995 24.5233C32.5458 24.4953 32.4897 24.4649 32.436 24.4346C32.4897 24.4649 32.5434 24.4929 32.5995 24.5233Z" fill="var(--sapContent_Illustrative_Color29)"/>
<path d="M33.197 24.808C33.1386 24.7823 33.0779 24.759 33.0195 24.731C33.0779 24.7566 33.1386 24.7823 33.197 24.808Z" fill="var(--sapContent_Illustrative_Color29)"/>
<path d="M31.3435 23.7185C31.2945 23.6812 31.2454 23.6438 31.1987 23.6064C31.2478 23.6438 31.2945 23.6812 31.3435 23.7185Z" fill="var(--sapContent_Illustrative_Color29)"/>
<path d="M31.0654 23.4982C31.0187 23.4608 30.972 23.4211 30.9253 23.3838C30.972 23.4235 31.0187 23.4608 31.0654 23.4982Z" fill="var(--sapContent_Illustrative_Color29)"/>
<path d="M32.0229 24.1927C31.9318 24.1362 31.8431 24.0773 31.7544 24.0161C31.8431 24.0773 31.9342 24.1362 32.0229 24.1927Z" fill="var(--sapContent_Illustrative_Color29)"/>
<path d="M32.3104 24.3648C32.252 24.3321 32.1936 24.2948 32.1353 24.2598C32.1936 24.2948 32.252 24.3298 32.3104 24.3648Z" fill="var(--sapContent_Illustrative_Color29)"/>
<path d="M40.1176 22.1446C41.0749 19.8684 40.9302 16.7024 39.4895 13.6965C39.3751 13.4564 39.2514 13.2233 39.1253 12.995C39.0949 12.9409 39.0646 12.8891 39.0342 12.8349C38.9198 12.6325 38.8007 12.4371 38.677 12.2441C38.663 12.2229 38.6513 12.2017 38.6373 12.1806C38.3338 11.7192 38.0092 11.2884 37.666 10.8906L34.5769 17.0343L30.2714 20.172L28.9521 21.196C28.9872 21.2478 29.0245 21.2972 29.0619 21.349C29.1016 21.4031 29.1389 21.4573 29.1786 21.5091C29.2183 21.5608 29.258 21.6126 29.2977 21.6644C29.3351 21.7138 29.3748 21.7633 29.4121 21.8127C29.4518 21.8645 29.4938 21.9139 29.5359 21.9634C29.5756 22.0104 29.6153 22.0575 29.655 22.1046C29.697 22.154 29.739 22.2011 29.781 22.2505C29.8231 22.2976 29.8628 22.3423 29.9048 22.3894C29.9468 22.4365 29.9888 22.4812 30.0309 22.5259C30.0776 22.5777 30.1266 22.6248 30.1756 22.6742C30.241 22.7401 30.3041 22.8061 30.3694 22.8696C30.4231 22.9214 30.4768 22.9732 30.5305 23.025C30.5726 23.065 30.6146 23.1026 30.659 23.1403C30.7057 23.1827 30.75 23.225 30.7967 23.2651C30.8411 23.3027 30.8854 23.3404 30.9298 23.3781C30.9765 23.4181 31.0232 23.4557 31.0699 23.4934C31.1143 23.5287 31.1586 23.5664 31.203 23.6017C31.252 23.6393 31.2987 23.677 31.3478 23.7147C31.3921 23.7476 31.4341 23.7806 31.4785 23.8135C31.5322 23.8535 31.5859 23.8912 31.6396 23.9289C31.6793 23.9571 31.719 23.9854 31.7564 24.0113C31.8451 24.0725 31.9361 24.1313 32.0249 24.1878C32.0622 24.2113 32.0973 24.2325 32.1346 24.2537C32.193 24.289 32.2514 24.3243 32.3097 24.3596C32.3518 24.3832 32.3938 24.4067 32.4358 24.4302C32.4895 24.4608 32.5432 24.4891 32.5993 24.5197C32.6413 24.5432 32.6856 24.5644 32.73 24.5856C32.786 24.6139 32.8398 24.6397 32.8958 24.6656C32.9378 24.6868 32.9798 24.7057 33.0219 24.7245C33.0802 24.7504 33.141 24.7763 33.1993 24.8022C33.2367 24.8186 33.2764 24.8351 33.3137 24.8516C33.3955 24.8845 33.4748 24.9151 33.5566 24.9434C33.5823 24.9528 33.6056 24.9622 33.6313 24.9693C33.72 24.9999 33.8064 25.0281 33.8951 25.0564C33.9302 25.0682 33.9652 25.0776 34.0025 25.087C34.0656 25.1058 34.1286 25.1223 34.1917 25.1388C34.2314 25.1482 34.271 25.1576 34.3107 25.167C34.3714 25.1811 34.4298 25.1929 34.4905 25.207C34.5302 25.2141 34.5699 25.2235 34.6096 25.2306C34.6703 25.2423 34.7334 25.2518 34.7941 25.2612C34.8314 25.2659 34.8664 25.2729 34.9038 25.2776C34.9762 25.2871 35.0462 25.2941 35.1163 25.3012C35.142 25.3035 35.17 25.3059 35.1957 25.3083C35.2914 25.3153 35.3895 25.32 35.4852 25.3224C35.5085 25.3224 35.5342 25.3224 35.5576 25.3224C35.63 25.3224 35.7023 25.3224 35.7747 25.3224C35.8097 25.3224 35.8448 25.32 35.8775 25.3177C35.9382 25.3153 36.0012 25.3106 36.0619 25.3035C36.0993 25.3012 36.1343 25.2965 36.1717 25.2918C36.2324 25.2847 36.2907 25.2776 36.3514 25.2682C36.3865 25.2635 36.4215 25.2565 36.4565 25.2518C36.5196 25.24 36.5826 25.2282 36.6456 25.2141C36.676 25.207 36.7063 25.2023 36.7367 25.1953C36.8278 25.1741 36.9212 25.1482 37.0122 25.1223C37.0122 25.1223 37.0332 25.1176 37.0449 25.1152C37.0589 25.1105 37.0729 25.1058 37.0869 25.1011C38.5392 24.6774 40.1877 23.7547 41.0539 22.493C41.3668 22.0387 40.8765 22.0057 40.1246 22.147L40.1176 22.1446Z" fill="var(--sapContent_Illustrative_Color16)"/>
<path d="M39.1922 24.0856C42.3997 22.5245 43.2569 17.6193 41.1068 13.1296C38.9568 8.63983 34.6137 6.26567 31.4062 7.82675C28.1988 9.38782 27.3416 14.293 29.4916 18.7827C31.6417 23.2725 35.9848 25.6466 39.1922 24.0856Z" fill="var(--sapContent_Illustrative_Color15)"/>
</g>
<defs>
<clipPath id="clip0_6880_7463">
<rect width="45" height="45" fill="var(--sapContent_Illustrative_Color8)"/>
</clipPath>
</defs>
</svg>