<svg width="45" height="45" viewBox="0 0 45 45" fill="none" xmlns="http://www.w3.org/2000/svg" id="sapIllus-Dot-BeforeSearch">
<path d="M20.4915 41.6777C31.8088 41.6777 40.9832 32.5032 40.9832 21.1862C40.9832 9.86892 31.8088 0.694519 20.4915 0.694519C9.17448 0.694519 0 9.86892 0 21.1862C0 32.5032 9.17448 41.6777 20.4915 41.6777Z" fill="var(--sapContent_Illustrative_Color2)"/>
<path d="M19.2123 18.3226C18.7397 18.3226 18.2391 18.3783 17.7666 18.434C17.5443 18.4617 17.3217 18.4894 17.0994 18.5174C16.8214 18.4894 16.5154 18.406 16.2651 18.3226C15.9037 18.1837 15.5422 18.1003 15.1808 18.0726C14.7917 18.0726 14.2911 18.2392 14.1242 19.0455C14.0688 19.2123 14.0688 19.3792 14.1242 19.546C14.1522 19.7129 14.2076 19.852 14.3188 19.9909C14.5414 20.2689 14.9305 20.38 15.4588 20.38C15.7648 20.38 16.0705 20.3523 16.3763 20.2969C16.5154 20.2969 16.6545 20.2689 16.7934 20.2412C16.9603 20.2412 17.0437 20.3246 17.2383 20.4915C17.5163 20.7695 17.85 20.9918 18.2114 21.1032H18.3226C18.9343 21.3812 19.5737 21.5201 20.2412 21.5758C20.4357 21.5758 20.6303 21.5758 20.8249 21.4923C21.0197 21.4366 21.1866 21.3255 21.3255 21.1866C21.4646 21.0198 21.548 20.7972 21.6035 20.6026C21.6592 20.38 21.6315 20.1578 21.6035 19.9632C21.4366 18.8789 20.6583 18.3506 19.2403 18.3506L19.2123 18.3226Z" fill="var(--sapContent_Illustrative_Color17)"/>
<path d="M31.4393 27.3863C30.6857 27.3863 29.9317 27.5252 29.2338 27.7477C28.9824 27.8312 28.7313 27.8866 28.4799 27.9146C28.3125 27.9146 28.1451 27.8589 28.0054 27.7477C27.7263 27.5252 27.5309 27.2194 27.4192 26.8857C27.1678 26.3297 26.8329 25.6068 25.7439 25.6068H25.5208C25.074 25.6068 24.5995 25.5234 24.1807 25.3565C23.7618 25.1897 23.371 24.9394 23.0639 24.6057C22.8962 24.4391 22.7288 24.3 22.5054 24.2165C22.2823 24.1331 22.0589 24.0777 21.8355 24.0777C21.4727 24.0777 21.1376 24.1608 20.8025 24.2722C20.5513 24.3557 20.2999 24.4111 20.0208 24.4111C19.6577 24.4111 19.2949 24.2722 18.9598 24.1054C18.6527 23.9108 18.3736 23.6605 18.1782 23.3268C18.0945 23.1599 17.8991 22.7708 17.5083 22.7708C17.1172 22.7708 16.9218 23.0211 16.5029 23.6048C16.4472 23.716 16.3915 23.7994 16.3355 23.8828C16.2518 24.022 16.1681 24.1608 16.0564 24.2722C15.833 24.0777 15.6096 23.8551 15.4422 23.6048C15.3025 23.438 15.1908 23.2434 15.0514 23.0765C14.3255 22.1034 13.795 21.3805 13.2367 21.1025C13.0413 21.0191 12.8736 20.9356 12.6782 20.8802C12.2874 20.7688 12.0083 20.6576 11.8686 20.3519C11.8129 20.2128 11.7849 20.0736 11.7849 19.907C11.7292 19.2673 11.5615 18.6836 10.1099 18.6836C8.65809 18.6836 9.30003 18.5724 9.21632 18.4056C9.10462 18.1553 9.27231 17.6827 9.74683 16.9876C10.1099 16.4036 10.5285 16.1533 10.9473 16.1533C11.3661 16.1533 11.6732 16.3481 12.064 16.7373C12.6782 17.349 13.2644 17.627 13.8509 17.627C14.1021 17.627 14.3535 17.5713 14.5766 17.4601C14.8 17.349 14.9954 17.2099 15.1631 17.0153C15.805 16.4036 16.1121 15.7364 16.4472 14.4852C16.7823 13.1784 17.3406 11.6769 18.9321 11.3988C19.2949 11.3432 19.6577 11.2876 19.9648 11.2598C21.361 11.0652 22.4777 10.9262 23.0079 10.0921C23.7898 8.92426 24.1807 7.03358 22.6731 5.55996C21.8912 4.72583 20.7745 4.22536 19.63 4.16976C19.0995 4.16976 18.569 4.30879 18.0665 4.55903C17.592 4.80926 17.1731 5.14289 16.838 5.55996C16.0284 6.50531 15.4142 7.14481 14.9397 7.14481C14.6606 7.11701 14.4092 6.95018 14.2138 6.72775C14.0741 6.56092 13.9904 6.39408 13.9347 6.19945C13.8787 6.00482 13.8787 5.78239 13.9347 5.58776C13.9626 5.33752 14.0741 5.11509 14.2138 4.92046C14.3535 4.72583 14.5489 4.55903 14.7723 4.4756C15.1908 4.30877 15.6096 4.25316 16.0564 4.28096C16.894 4.28096 17.8711 4.25316 18.5133 3.1688C18.8481 2.61274 18.9321 2.14005 18.7644 1.72298C18.6527 1.52835 18.5133 1.33375 18.3456 1.19472C18.1782 1.05569 17.9548 0.944484 17.7314 0.888855H17.6197C14.2138 1.36155 10.9753 2.69614 8.21129 4.75363C5.44745 6.81115 3.23336 9.67785 1.84599 12.6778C1.81805 12.7612 0.84093 14.7352 1.14804 16.0144C1.34345 16.6538 1.70641 17.2378 2.26474 17.6547C2.7952 18.0719 3.46524 18.2942 4.13528 18.3222C5.27992 18.3222 6.03373 18.6002 6.59209 19.9347C7.20625 21.4362 8.65809 22.3814 9.74683 22.7431C9.88653 22.7985 10.0539 22.8262 10.1936 22.8819C10.9196 23.0765 11.5335 23.2434 11.9803 24.3834C12.12 24.8005 12.3991 25.1897 12.7619 25.44C13.125 25.6903 13.5995 25.8014 14.0464 25.7737H14.7163C14.9677 25.7737 15.3305 25.8014 15.4422 25.996C15.4979 26.1071 15.5819 26.4686 14.9954 27.4697C13.7392 29.666 14.0464 30.6672 14.6883 31.9184C15.0514 32.669 15.5819 33.3084 16.2518 33.7812C16.9218 34.2815 17.7037 34.6153 18.5133 34.7544C18.6807 34.7544 18.8481 34.8378 19.0158 34.9213C19.1552 35.0047 19.2949 35.1436 19.3786 35.3104C19.7137 35.9779 19.3786 37.1176 18.9321 37.9796C18.7364 38.3967 18.4853 38.7582 18.2062 39.1196C17.9268 39.5088 17.7037 39.7868 17.7037 40.2039C17.7314 40.7045 17.8076 40.9002 17.975 41.373L18.026 41.5532C18.7799 41.6646 20.3008 41.7544 21.5386 41.6616L22.4979 41.5953L21.6603 41.1228C21.6603 41.1228 21.2135 40.8725 21.2493 40.2039C21.2493 39.2308 21.8635 39.5645 23.6222 39.5645H24.3201C24.6272 39.5645 24.9066 39.3976 25.1297 39.1753L25.2694 39.0085C25.9116 38.2299 27.4192 36.367 28.0891 35.9499C28.3685 35.7553 28.7033 35.6161 29.0384 35.5607C29.5966 35.4216 30.1271 35.1436 30.546 34.7264C30.7414 34.5318 30.9088 34.3095 31.0205 34.0593C31.1322 33.809 31.1882 33.531 31.1882 33.253C31.1882 32.9192 31.2719 32.5855 31.4673 32.3075C31.6907 32.0018 31.9978 31.7515 32.3606 31.5569C32.8074 31.2789 33.3656 30.9452 33.617 30.1943C33.9799 29.1935 34.0359 28.554 33.7007 28.0814C33.3656 27.6086 32.6957 27.3863 31.523 27.3863H31.4393Z" fill="var(--sapContent_Illustrative_Color17)"/>
<path d="M21.2978 3.29084C21.6869 3.40204 22.1041 3.45767 22.5212 3.45767C22.7712 3.45767 22.9381 3.45767 23.0215 3.51327C23.105 3.65227 23.1884 3.7913 23.2161 3.93033C23.3552 4.31957 23.5221 4.79223 23.9947 5.01467C24.3841 5.1815 24.801 5.23713 25.2181 5.23713C25.5796 5.23713 26.525 5.1815 27.0533 4.68103C28.1376 3.65227 26.5303 1.73063 26.4746 1.64723L26.4128 1.56987C24.4939 0.966375 22.2967 0.641444 19.8521 0.705083L19.9075 1.01092C19.9355 1.20552 20.2689 2.95718 21.2978 3.29084Z" fill="var(--sapContent_Illustrative_Color17)"/>
<path d="M38.7864 16.5992C39.3981 15.4035 39.3427 14.1246 38.5641 12.9012C37.1461 10.5657 33.6983 9.00867 31.3906 9.00867C29.0828 9.00867 28.9717 9.59253 28.6659 10.6213C28.3879 11.4554 28.3045 12.3729 28.4714 13.2349C28.6102 14.1246 28.9717 14.9309 29.5277 15.6538C30.8345 17.4055 33.1146 18.5733 35.2275 18.5733C37.3406 18.5733 38.1192 17.8781 38.7864 16.5992Z" fill="var(--sapContent_Illustrative_Color17)"/>
<path d="M21.4017 25.7088C23.837 22.1282 27.828 21.5046 29.5193 21.6401L32.7661 24.0812C35.3638 30.2658 32.6841 36.5457 30.9931 38.7833C24.4476 42.6053 18.1655 42.0174 14.2196 40.7022C14.2196 38.4643 18.3578 30.1843 21.4017 25.7088Z" fill="var(--sapContent_Illustrative_Color14)"/>
<path d="M26.0524 25.3294C24.3841 25.552 23.0387 24.7329 22.6218 24.2695C20.0067 26.8691 17.2668 32.4888 16.6646 34.0642C16.8868 34.1754 17.3866 34.273 17.572 34.3658C19.0178 34.477 19.3795 35.1535 19.3795 35.4778C21.6038 36.1453 25.9211 35.9826 27.8208 35.7971C27.9599 35.6583 28.4433 35.311 29.1108 35.1998C29.9448 35.0607 31.0571 34.0878 31.0571 32.8364C31.0571 31.8355 32.262 31.122 32.8643 30.8903C33.2814 30.2877 34.0043 28.8326 33.5594 27.8317C33.1145 26.8308 30.9642 27.044 29.9448 27.2757C29.3888 28.0634 28.1653 29.222 27.7205 27.5537C27.2756 25.8854 26.423 25.3757 26.0524 25.3294Z" fill="var(--sapContent_Illustrative_Color17)"/>
<path d="M26.0524 25.3294C24.3841 25.552 23.0387 24.7329 22.6218 24.2695C20.0067 26.8691 17.2668 32.4888 16.6646 34.0642C16.8868 34.1754 17.3866 34.273 17.572 34.3658C19.0178 34.477 19.3795 35.1535 19.3795 35.4778C21.6038 36.1453 25.9211 35.9826 27.8208 35.7971C27.9599 35.6583 28.4433 35.311 29.1108 35.1998C29.9448 35.0607 31.0571 34.0878 31.0571 32.8364C31.0571 31.8355 32.262 31.122 32.8643 30.8903C33.2814 30.2877 34.0043 28.8326 33.5594 27.8317C33.1145 26.8308 30.9642 27.044 29.9448 27.2757C29.3888 28.0634 28.1653 29.222 27.7205 27.5537C27.2756 25.8854 26.423 25.3757 26.0524 25.3294Z" fill="var(--sapContent_Illustrative_Color22)"/>
<path d="M36.1121 11.7116C36.1411 11.7116 36.1984 11.7404 36.2273 11.7691C36.1984 11.7691 36.1411 11.7404 36.1121 11.7116Z" fill="var(--sapContent_Illustrative_Color25)"/>
<path d="M36.4572 11.856C36.4572 11.856 36.5151 11.856 36.5438 11.8849C36.5438 11.8849 36.4862 11.8849 36.4572 11.856Z" fill="var(--sapContent_Illustrative_Color25)"/>
<path d="M35.7388 11.5683C35.7961 11.5683 35.8247 11.597 35.8823 11.6258C35.8247 11.6258 35.7961 11.597 35.7388 11.5683Z" fill="var(--sapContent_Illustrative_Color25)"/>
<path d="M12.8561 32.7371C3.72082 28.7305 0.834916 20.0835 0.788572 15.5423C-1.68717 23.5884 1.46942 36.2303 13.8174 40.5628C24.5404 44.3254 33.112 38.3701 36.6873 33.739C24.0365 37.0757 20.7803 36.2125 12.8561 32.7371Z" fill="var(--sapContent_Illustrative_Color13)"/>
<path d="M34.2584 11.9937C34.3141 11.9937 34.3976 11.9937 34.4533 12.0215C34.3976 12.0215 34.3141 12.0215 34.2584 11.9937Z" fill="var(--sapContent_Illustrative_Color25)"/>
<path fill-rule="evenodd" clip-rule="evenodd" d="M16.5551 34.2808C15.1983 37.0957 14.2179 39.6155 14.2166 40.7065C15.2402 41.0424 16.2516 41.2866 17.2455 41.4499C18.245 41.612 19.3218 41.7087 20.4588 41.7096C24.4975 41.7021 28.1307 40.4498 30.9917 38.7876C31.6414 37.9273 32.4363 36.471 33.0222 34.6533C25.1466 36.4532 21.4516 36.1267 16.5551 34.2808Z" fill="var(--sapContent_Illustrative_Color14)"/>
<path d="M25.105 38.7452L27.9854 35.3989C23.386 35.8235 21.2041 35.4346 19.3672 35.0095C19.3913 35.0283 19.5316 35.3778 19.4232 36.0569C19.288 36.9059 18.0706 39.0282 17.8001 39.4526C17.5836 39.7924 17.9215 40.9415 18.1019 41.5075C19.2012 41.665 21.2038 41.7279 22.3629 41.5704C22.3629 41.5704 21.5877 41.1505 21.3172 40.7262C20.2966 39.1247 21.7229 39.1698 23.2111 39.3112C24.4015 39.4243 24.9698 38.9811 25.105 38.7452Z" fill="var(--sapContent_Illustrative_Color13)"/>
<path d="M25.1039 38.7451L27.9843 35.3988C23.3849 35.8235 21.203 35.4346 19.3661 35.0094C19.3902 35.0282 19.5305 35.3778 19.4221 36.0568C19.2869 36.9058 18.0695 39.0281 17.799 39.4525C17.5825 39.7923 17.9204 40.9415 18.1008 41.5075C19.2001 41.6649 21.2027 41.7278 22.3618 41.5704C22.3618 41.5704 21.5866 41.1505 21.3161 40.7261C20.2955 39.1246 21.7218 39.1698 23.21 39.3111C24.4004 39.4242 24.9687 38.981 25.1039 38.7451Z" fill="var(--sapContent_Illustrative_Color22)"/>
<path d="M38.8965 24.6379C38.8103 24.494 38.4942 23.9191 37.948 23.8615C37.5167 23.8329 37.1719 24.0916 36.683 24.6952C35.4183 26.2762 35.3607 26.6789 35.7058 27.7137C35.7631 27.8862 35.8783 28.0298 36.0219 28.145C36.1657 28.2313 36.3382 28.2886 36.5105 28.2886C37.143 28.2886 37.833 27.8576 38.0056 27.7424C38.1205 27.6561 38.2067 27.5699 38.293 27.4836C39.1843 26.5637 38.9541 25.0689 38.8679 24.6379H38.8965Z" fill="var(--sapContent_Illustrative_Color17)"/>
<path d="M44.8464 19.3697C45.4903 22.0624 44.4295 24.8354 43.1049 26.8152C41.913 28.5942 39.9025 29.8477 37.27 30.1623C31.4637 30.8552 25.2489 26.7198 23.6821 21.1168C22.1154 15.5138 25.5565 10.1803 31.0703 9.92589C36.3673 9.68155 43.0696 14.4076 44.8464 19.3697Z" fill="var(--sapContent_Illustrative_Color16)"/>
<path d="M44.4581 17.9873C46.3056 23.1452 43.5184 27.9951 37.9575 28.6595C32.1512 29.3523 25.9364 25.217 24.3697 19.614C22.803 14.011 26.3332 9.83052 31.8487 9.57614C37.1456 9.33181 42.6829 13.027 44.4598 17.9873H44.4581Z" fill="var(--sapContent_Illustrative_Color15)"/>
<path d="M43.2192 18.0877C44.8044 22.5745 42.3467 26.7583 37.5255 27.3089C32.5193 27.8796 27.1703 24.32 25.7969 19.5002C24.4722 14.8511 27.4392 10.9986 32.2268 10.756C36.8497 10.5233 41.6877 13.7516 43.2208 18.0877H43.2192Z" fill="var(--sapContent_Illustrative_Color25)"/>
<path d="M44.3909 43.1456L41.2238 43.9857L36.1924 27.9784L39.1595 27.6336L44.3909 43.1456Z" fill="var(--sapContent_Illustrative_Color15)"/>
<path d="M25.6305 15.8871L32.1781 10.7593C28.7387 10.9518 26.2491 13.0102 25.6305 15.8871Z" fill="var(--sapContent_Illustrative_Color25)"/>
<path d="M37.5255 27.3089C41.7785 26.8236 44.1908 23.5117 43.6125 19.6575L33.1363 26.8136C34.5568 27.2855 36.0563 27.4763 37.5255 27.3089Z" fill="var(--sapContent_Illustrative_Color8)"/>
<path d="M38.0584 12.2053L38.0551 12.2036L38.0584 12.2053Z" fill="var(--sapContent_Illustrative_Color25)"/>
<path d="M32.2252 10.7559C32.3613 10.7493 32.4958 10.7459 32.632 10.7443C32.4958 10.7443 32.3613 10.7493 32.2252 10.7559Z" fill="var(--sapContent_Illustrative_Color25)"/>
<path d="M36.6245 11.5241C36.6665 11.5408 36.7085 11.5576 36.7488 11.5743C36.7068 11.5576 36.6665 11.5408 36.6245 11.5241Z" fill="var(--sapContent_Illustrative_Color25)"/>
<path d="M37.006 11.6815C37.0346 11.6948 37.0632 11.7082 37.0918 11.7199C37.0632 11.7066 37.0346 11.6932 37.006 11.6815Z" fill="var(--sapContent_Illustrative_Color25)"/>
<path d="M36.2378 11.3785C36.2849 11.3953 36.3336 11.412 36.3807 11.4304C36.3336 11.412 36.2865 11.3953 36.2378 11.3785Z" fill="var(--sapContent_Illustrative_Color25)"/>
<path d="M33.6221 10.7894C33.6995 10.7961 33.7768 10.8044 33.8558 10.8144C33.7785 10.8061 33.7011 10.7977 33.6221 10.7894Z" fill="var(--sapContent_Illustrative_Color25)"/>
<path d="M33.2036 10.7593C33.2842 10.7643 33.3666 10.7677 33.4473 10.7743C33.3666 10.7677 33.2842 10.7627 33.2036 10.7593Z" fill="var(--sapContent_Illustrative_Color25)"/>
<path d="M34.034 10.8363C34.1096 10.8463 34.187 10.8579 34.2626 10.8696C34.187 10.8579 34.1113 10.8463 34.034 10.8363Z" fill="var(--sapContent_Illustrative_Color25)"/>
<path d="M32.7682 10.746C32.859 10.746 32.9481 10.7476 33.0388 10.751C32.9481 10.7476 32.8573 10.746 32.7682 10.746Z" fill="var(--sapContent_Illustrative_Color25)"/>
<path d="M43.6865 20.3537C43.4377 15.3699 38.6283 11.3836 33.8541 10.7895C32.1933 10.6372 29.2733 10.6372 27.1535 12.9316C26.9148 13.1893 26.6912 13.4906 26.4828 13.8085C26.4475 13.8621 26.4273 13.8989 26.3954 13.9508C26.3903 13.9575 26.3886 13.9658 26.3836 13.9742C28.8968 10.9602 32.9144 10.7677 36.4648 12.1735C40.1395 13.6278 43.3134 16.7958 43.6865 20.3571V20.3537Z" fill="var(--sapContent_Illustrative_Color16)"/>
<path d="M31.3914 11.3752L25.6305 15.8871C25.3934 16.9916 25.4304 18.215 25.7969 19.5002C25.8271 19.6073 25.8608 19.7128 25.8961 19.8182L37.043 12.4195C35.2174 11.6045 33.2405 11.1995 31.3914 11.3752Z" fill="var(--sapContent_Illustrative_Color8)"/>
<path d="M34.9854 28.6109L36.7118 29.6301C36.7118 29.6301 36.3521 28.7415 37.5355 28.6193V28.6009C37.0615 28.6729 36.1067 28.7682 34.9854 28.6093V28.6109Z" fill="var(--sapContent_Illustrative_Color16)"/>
<path d="M38.7897 28.4419C39.0301 28.452 39.4503 28.6294 39.6504 29.1398L39.9361 28.2126C39.9361 28.2126 39.6722 28.3398 38.7897 28.4402V28.4419Z" fill="var(--sapContent_Illustrative_Color16)"/>
<path d="M41.2238 43.9858L36.5068 28.9959L36.8245 28.6779C36.8245 28.6779 37.428 28.6428 38.1139 28.5056C38.1139 28.5056 37.8768 28.7716 37.9457 29.1398C38.2214 30.5858 42.7064 43.7046 42.7064 43.7046L41.2221 43.9858H41.2238Z" fill="var(--sapContent_Illustrative_Color16)"/>
<path d="M44.3908 43.1456C44.3908 43.3197 43.5739 43.6092 42.2374 43.9523C41.5768 44.0845 41.2523 44.0677 41.2238 43.9857C41.2036 43.9272 41.565 43.7012 42.2206 43.4904C43.2023 43.1841 44.2799 43.0117 44.3908 43.1456Z" fill="var(--sapContent_Illustrative_Color16)"/>
</svg>
