<svg width="320" height="200" viewBox="0 0 320 200" fill="none" xmlns="http://www.w3.org/2000/svg" id="sapIllus-Scene-ErrorScreen">
<path d="M176.854 126.17L157.244 126.104L111.675 125.945L157.244 126.104L176.854 126.17Z" fill="var(--sapContent_Illustrative_Color7)"/>
<path d="M305.502 0.00473106H180.443V9.22696C180.44 10.9804 179.741 12.6612 178.498 13.9011C177.255 15.1409 175.57 15.8386 173.812 15.841H129.512C127.755 15.8386 126.069 15.1409 124.826 13.9011C123.583 12.6612 122.884 10.9804 122.882 9.22696V0.00473106H39.6438V49.3666C39.6425 51.1204 38.9435 52.8019 37.7003 54.042C36.457 55.2822 34.7712 55.9794 33.0129 55.9807H0V185.049C0 186.942 0.373655 188.816 1.09967 190.564C1.82568 192.312 2.88984 193.901 4.23134 195.239C5.57284 196.577 7.16544 197.639 8.9182 198.363C10.671 199.087 12.5495 199.46 14.4467 199.46H30.4359C30.1323 198.848 29.9716 198.176 29.9656 197.494V191.208C29.9656 190.022 30.4383 188.883 31.2796 188.044C32.121 187.205 33.2621 186.733 34.452 186.733H103.817C103.666 186.412 103.587 186.061 103.586 185.706V184.599C103.586 183.943 103.848 183.315 104.312 182.851C104.777 182.387 105.407 182.127 106.065 182.127H105.858C105.29 182.127 104.739 181.932 104.298 181.575C103.857 181.218 103.553 180.721 103.436 180.166L94.8723 139.853L62.5976 140.35C62.3194 140.354 62.0509 140.248 61.8502 140.056C61.6495 139.864 61.5328 139.6 61.5254 139.323L59.9406 74.8942C59.9368 74.7526 59.9617 74.6118 60.0138 74.4801C60.0659 74.3484 60.1442 74.2286 60.2439 74.1278C60.3436 74.0271 60.4627 73.9475 60.594 73.8938C60.7253 73.84 60.8662 73.8134 61.0081 73.8153H62.8892V72.849C62.8866 72.7086 62.9125 72.5692 62.9653 72.4391C63.0181 72.3091 63.0967 72.191 63.1965 72.092C63.2962 71.9929 63.4149 71.915 63.5455 71.8629C63.6762 71.8108 63.8161 71.7856 63.9567 71.7888L109.31 72.3236C109.581 72.3235 109.842 72.4286 110.036 72.6169C110.231 72.8051 110.345 73.0617 110.354 73.3321L111.294 111.178H197.09C197.666 111.177 198.225 111.377 198.669 111.742C199.114 112.108 199.417 112.617 199.526 113.181L212.327 179.162C212.396 179.52 212.385 179.888 212.295 180.241C212.205 180.594 212.038 180.923 211.806 181.204C211.573 181.485 211.282 181.712 210.952 181.867C210.621 182.022 210.261 182.103 209.896 182.104H244.254V186.011C244.25 186.249 244.207 186.485 244.127 186.71H309.306C311.055 186.71 312.476 188.713 312.476 191.185V197.471C312.476 197.536 312.476 197.602 312.476 197.663C314.752 196.425 316.652 194.598 317.976 192.374C319.3 190.15 319.999 187.612 320 185.026V14.4151C320 12.5183 319.625 10.6403 318.895 8.88854C318.166 7.13683 317.097 5.54594 315.75 4.20714C314.403 2.86835 312.805 1.80794 311.046 1.0868C309.287 0.365655 307.403 -0.00206063 305.502 0.00473106V0.00473106ZM296.877 73.6511C296.876 73.7831 296.848 73.9136 296.796 74.035C296.744 74.1563 296.668 74.2662 296.574 74.3583C296.479 74.4503 296.366 74.5226 296.243 74.5712C296.12 74.6197 295.989 74.6433 295.856 74.6408H294.027V76.5782C294.027 76.7114 294.001 76.8434 293.949 76.9663C293.898 77.0893 293.822 77.2009 293.728 77.2947C293.633 77.3884 293.52 77.4625 293.396 77.5127C293.273 77.5628 293.14 77.5879 293.007 77.5867L249.563 77.1927C249.296 77.1902 249.042 77.0829 248.854 76.894C248.666 76.7051 248.561 76.45 248.561 76.1841V14.4151C248.561 14.2794 248.589 14.1451 248.642 14.0202C248.695 13.8954 248.773 13.7825 248.871 13.6883C248.969 13.5941 249.084 13.5207 249.211 13.4723C249.339 13.4238 249.474 13.4015 249.61 13.4065L251.411 13.4722V12.534C251.412 12.3994 251.441 12.2663 251.494 12.1428C251.548 12.0192 251.626 11.9077 251.724 11.8149C251.822 11.7222 251.937 11.65 252.064 11.6027C252.19 11.5554 252.325 11.5339 252.46 11.5396L295.903 13.1157C296.163 13.1242 296.409 13.2324 296.591 13.4177C296.772 13.603 296.875 13.8511 296.877 14.1101V73.6511Z" fill="var(--sapContent_Illustrative_Color7)"/>
<path d="M104.268 139.708L110.358 172.703L104.268 139.708Z" fill="var(--sapContent_Illustrative_Color7)"/>
<path d="M186.909 174.026C186.447 174.474 185.827 174.725 185.183 174.725C185.827 174.725 186.447 174.474 186.909 174.026V174.026Z" fill="var(--sapContent_Illustrative_Color7)"/>
<path d="M112.789 174.725C112.516 174.725 112.244 174.679 111.985 174.589C112.244 174.679 112.516 174.725 112.789 174.725Z" fill="var(--sapContent_Illustrative_Color7)"/>
<path d="M251.411 73.2758V13.4721L249.61 13.4065C249.474 13.4014 249.339 13.4238 249.211 13.4722C249.084 13.5206 248.968 13.5941 248.871 13.6882C248.773 13.7824 248.695 13.8953 248.642 14.0202C248.589 14.1451 248.561 14.2793 248.561 14.415V76.1841C248.561 76.4499 248.666 76.7051 248.854 76.894C249.042 77.0828 249.296 77.1902 249.563 77.1926L293.007 77.5866C293.14 77.5879 293.273 77.5627 293.396 77.5126C293.52 77.4625 293.633 77.3884 293.728 77.2946C293.822 77.2008 293.898 77.0892 293.949 76.9663C294.001 76.8433 294.027 76.7113 294.027 76.5781V74.6408L252.413 74.2702C252.148 74.269 251.895 74.164 251.707 73.9779C251.52 73.7918 251.414 73.5396 251.411 73.2758V73.2758Z" fill="var(--sapContent_Illustrative_Color7)"/>
<path d="M251.411 73.2758V13.4721L249.61 13.4065C249.474 13.4014 249.339 13.4238 249.211 13.4722C249.084 13.5206 248.968 13.5941 248.871 13.6882C248.773 13.7824 248.695 13.8953 248.642 14.0202C248.589 14.1451 248.561 14.2793 248.561 14.415V76.1841C248.561 76.4499 248.666 76.7051 248.854 76.894C249.042 77.0828 249.296 77.1902 249.563 77.1926L293.007 77.5866C293.14 77.5879 293.273 77.5627 293.396 77.5126C293.52 77.4625 293.633 77.3884 293.728 77.2946C293.822 77.2008 293.898 77.0892 293.949 76.9663C294.001 76.8433 294.027 76.7113 294.027 76.5781V74.6408L252.413 74.2702C252.148 74.269 251.895 74.164 251.707 73.9779C251.52 73.7918 251.414 73.5396 251.411 73.2758V73.2758Z" fill="var(--sapContent_Illustrative_Color19)"/>
<path d="M295.903 13.1297L252.46 11.5535C252.325 11.5478 252.19 11.5693 252.064 11.6167C251.937 11.664 251.822 11.7361 251.724 11.8289C251.626 11.9217 251.548 12.0332 251.494 12.1567C251.44 12.2803 251.412 12.4133 251.411 12.548V73.2757C251.413 73.5395 251.52 73.7917 251.707 73.9778C251.895 74.1639 252.148 74.269 252.413 74.2702L294.027 74.6407H295.856C295.988 74.6432 296.12 74.6196 296.243 74.5711C296.366 74.5225 296.478 74.4502 296.573 74.3582C296.668 74.2661 296.744 74.1562 296.796 74.0349C296.848 73.9135 296.875 73.783 296.877 73.651V14.11C296.871 13.8535 296.767 13.6089 296.586 13.4266C296.404 13.2442 296.16 13.138 295.903 13.1297V13.1297ZM291.2 68.0501V67.9891L258.032 67.6748C257.823 67.6675 257.625 67.5781 257.482 67.4262C257.338 67.2743 257.261 67.072 257.266 66.8633V17.6329H257.191L257.233 16.493H257.887C257.947 16.4833 258.009 16.4833 258.07 16.493L260.116 16.5727L292.094 17.4593L292.193 67.9516L291.2 68.0501Z" fill="var(--sapContent_Illustrative_Color18)"/>
<path d="M258.06 16.4931C258 16.4833 257.938 16.4833 257.877 16.4931L260.106 16.5541L258.06 16.4931Z" fill="var(--sapContent_Illustrative_Color18)"/>
<path d="M257.238 17.6329V66.8634C257.232 67.0721 257.31 67.2743 257.454 67.4263C257.597 67.5782 257.795 67.6675 258.004 67.6749L291.172 67.9892L290.928 18.8666L257.238 17.6329ZM283.817 54.3482L283.756 54.3904C283.561 54.534 283.326 54.6112 283.084 54.6109C282.901 54.6139 282.719 54.5729 282.556 54.4912C282.392 54.4095 282.25 54.2897 282.143 54.1418C282.054 54.0207 281.989 53.8831 281.953 53.7369C281.917 53.5907 281.91 53.4389 281.934 53.2902C281.957 53.1415 282.009 52.9989 282.088 52.8705C282.167 52.7421 282.27 52.6305 282.392 52.5422L282.472 52.4859C283.493 51.8034 284.329 50.8786 284.903 49.7946C285.478 48.7107 285.774 47.5014 285.764 46.2752C285.765 45.9995 285.75 45.7239 285.722 45.4496H268.792H265.345C264.779 45.4496 264.219 45.3385 263.697 45.1226C263.174 44.9066 262.699 44.5901 262.299 44.1912C261.899 43.7922 261.582 43.3185 261.365 42.7972C261.149 42.2759 261.037 41.7171 261.037 41.1529V36.8982C261.039 36.8431 261.061 36.7906 261.101 36.752C261.141 36.7134 261.194 36.6918 261.249 36.6919L263.751 38.2539H263.821C264.187 38.113 264.577 38.0444 264.969 38.0522C265.394 38.0421 265.816 38.1253 266.206 38.2961H266.337L268.58 36.6872C268.636 36.6872 268.689 36.7087 268.728 36.7473C268.768 36.7859 268.791 36.8384 268.792 36.8935V40.271C270.499 37.6816 273.739 35.9319 277.454 35.9319C281.325 35.9319 284.678 37.8083 286.324 40.6228L286.361 40.6697C287.445 42.3489 288.026 44.3017 288.036 46.2987C288.042 47.8795 287.664 49.4383 286.932 50.8406C286.201 52.2429 285.138 53.4468 283.836 54.3482H283.817Z" fill="var(--sapContent_Illustrative_Color7)"/>
<path d="M257.877 16.5118H257.223L257.181 17.6517H257.256V17.3233C257.249 17.1372 257.307 16.9545 257.42 16.8064C257.534 16.6583 257.695 16.5542 257.877 16.5118V16.5118Z" fill="var(--sapContent_Illustrative_Color18)"/>
<path opacity="0.5" d="M257.877 16.5118H257.223L257.181 17.6517H257.256V17.3233C257.249 17.1372 257.307 16.9545 257.42 16.8064C257.534 16.6583 257.695 16.5542 257.877 16.5118V16.5118Z" fill="var(--sapContent_Illustrative_Color18)"/>
<path d="M260.106 16.5729L291.262 17.7784C291.466 17.7928 291.658 17.8851 291.796 18.0361C291.934 18.1872 292.009 18.3854 292.005 18.5899V67.1778C292.008 67.2824 291.99 67.3866 291.953 67.4843C291.915 67.5821 291.858 67.6713 291.785 67.7469C291.713 67.8224 291.626 67.8828 291.529 67.9244C291.433 67.966 291.329 67.9881 291.224 67.9893H291.191V68.0503L292.165 67.9518L292.066 17.4595L260.106 16.5729Z" fill="var(--sapContent_Illustrative_Color18)"/>
<path opacity="0.5" d="M260.106 16.5729L291.262 17.7784C291.466 17.7928 291.658 17.8851 291.796 18.0361C291.934 18.1872 292.009 18.3854 292.005 18.5899V67.1778C292.008 67.2824 291.99 67.3866 291.953 67.4843C291.915 67.5821 291.858 67.6713 291.785 67.7469C291.713 67.8224 291.626 67.8828 291.529 67.9244C291.433 67.966 291.329 67.9881 291.224 67.9893H291.191V68.0503L292.165 67.9518L292.066 17.4595L260.106 16.5729Z" fill="var(--sapContent_Illustrative_Color18)"/>
<path d="M292.005 67.1777V18.5899C292.009 18.3853 291.934 18.1871 291.796 18.0361C291.658 17.885 291.466 17.7927 291.262 17.7783L260.106 16.5728L257.877 16.5118C257.692 16.5504 257.526 16.6529 257.409 16.8014C257.292 16.9498 257.232 17.1346 257.238 17.3233V17.6517L290.928 18.8854L291.172 68.008H291.205C291.314 68.0094 291.421 67.9887 291.521 67.947C291.621 67.9054 291.711 67.8438 291.786 67.7659C291.861 67.6881 291.919 67.5957 291.957 67.4945C291.994 67.3933 292.011 67.2855 292.005 67.1777V67.1777Z" fill="var(--sapContent_Illustrative_Color18)"/>
<path opacity="0.5" d="M292.005 67.1777V18.5899C292.009 18.3853 291.934 18.1871 291.796 18.0361C291.658 17.885 291.466 17.7927 291.262 17.7783L260.106 16.5728L257.877 16.5118C257.692 16.5504 257.526 16.6529 257.409 16.8014C257.292 16.9498 257.232 17.1346 257.238 17.3233V17.6517L290.928 18.8854L291.172 68.008H291.205C291.314 68.0094 291.421 67.9887 291.521 67.947C291.621 67.9054 291.711 67.8438 291.786 67.7659C291.861 67.6881 291.919 67.5957 291.957 67.4945C291.994 67.3933 292.011 67.2855 292.005 67.1777V67.1777Z" fill="var(--sapContent_Illustrative_Color18)"/>
<path d="M286.395 40.6134C284.749 37.8411 281.396 35.9225 277.525 35.9225C273.81 35.9225 270.57 37.6722 268.863 40.2616V36.8841C268.862 36.829 268.839 36.7765 268.799 36.7379C268.76 36.6994 268.707 36.6778 268.651 36.6778L266.408 38.2867H266.276C265.887 38.1159 265.465 38.0327 265.04 38.0428C264.648 38.0351 264.258 38.1036 263.892 38.2445H263.822L261.32 36.6825C261.264 36.6824 261.211 36.704 261.172 36.7426C261.132 36.7812 261.109 36.8337 261.108 36.8888V41.1435C261.108 41.7077 261.22 42.2665 261.436 42.7878C261.653 43.3091 261.97 43.7828 262.37 44.1817C262.77 44.5807 263.245 44.8972 263.767 45.1132C264.29 45.3291 264.85 45.4402 265.416 45.4402H268.863H285.793C285.821 45.7145 285.835 45.9901 285.835 46.2658C285.845 47.492 285.549 48.7013 284.974 49.7853C284.4 50.8693 283.564 51.794 282.543 52.4765L282.463 52.5329C282.341 52.6212 282.237 52.7327 282.159 52.8611C282.08 52.9895 282.028 53.1321 282.004 53.2808C281.981 53.4295 281.988 53.5813 282.024 53.7275C282.06 53.8737 282.124 54.0113 282.214 54.1324C282.321 54.2803 282.463 54.4001 282.627 54.4818C282.79 54.5635 282.971 54.6045 283.154 54.6015C283.396 54.6018 283.632 54.5245 283.827 54.381L283.888 54.3388C285.198 53.4397 286.268 52.2352 287.006 50.83C287.743 49.4248 288.126 47.8613 288.12 46.2752C288.111 44.2782 287.53 42.3254 286.446 40.6462L286.395 40.6134ZM267.584 42.0206L268.839 38.9012L268.863 40.3085L267.584 42.0206Z" fill="var(--sapContent_Illustrative_Color18)"/>
<path d="M267.556 42.0347L268.835 40.3132L268.811 38.9153L267.556 42.0347Z" fill="var(--sapContent_Illustrative_Color18)"/>
<path d="M176.737 9.22687V0.00463867H176.708V9.49428C176.723 9.40573 176.732 9.31644 176.737 9.22687V9.22687Z" fill="var(--sapContent_Illustrative_Color18)"/>
<path d="M152.617 1.87628C154.817 0.651971 156.877 -4.52957e-05 158.97 0.539402C163.39 1.65113 163.541 6.80168 169.222 12.1446H173.812C174.132 12.143 174.45 12.0875 174.752 11.9804C174.619 12.0065 174.484 12.0206 174.348 12.0226V0.00463867H150.957C151.084 0.145364 151.201 0.281406 151.333 0.422131C151.756 0.928743 152.189 1.4072 152.617 1.87628Z" fill="var(--sapContent_Illustrative_Color7)"/>
<path d="M129.023 12.093C128.332 11.8988 127.724 11.4848 127.291 10.914C126.859 10.3433 126.624 9.64712 126.625 8.93141V0.0187988H126.587V9.24102C126.593 9.92603 126.84 10.5872 127.285 11.1086C127.731 11.63 128.346 11.9785 129.023 12.093V12.093Z" fill="var(--sapContent_Illustrative_Color18)"/>
<path d="M129.512 15.8409H173.812C175.569 15.8385 177.255 15.1408 178.498 13.901C179.741 12.6611 180.44 10.9803 180.442 9.22686V0.00463867H176.737V9.22686C176.732 9.31644 176.723 9.40573 176.709 9.49427V9.64905C176.716 10.2119 176.52 10.7586 176.156 11.1892C175.793 11.6197 175.286 11.9056 174.729 11.9945C174.427 12.1016 174.109 12.1571 173.788 12.1586H169.198L169.292 12.2524H129.917C129.598 12.2497 129.281 12.2007 128.976 12.1071C128.297 11.9921 127.68 11.6416 127.234 11.1172C126.788 10.5929 126.543 9.92838 126.54 9.24095V0.018725H122.834V9.24095C122.837 10.1119 123.013 10.9738 123.35 11.7771C123.688 12.5805 124.181 13.3095 124.801 13.9226C125.421 14.5356 126.157 15.0206 126.965 15.3498C127.773 15.679 128.639 15.8459 129.512 15.8409Z" fill="var(--sapContent_Illustrative_Color18)"/>
<path d="M174.729 11.9804C175.265 11.803 175.738 11.4733 176.09 11.0317C176.442 10.5902 176.657 10.0559 176.709 9.49428V0.00463867H174.324V12.0226C174.46 12.0206 174.595 12.0065 174.729 11.9804V11.9804Z" fill="var(--sapContent_Illustrative_Color18)"/>
<path d="M174.729 11.9804C175.265 11.803 175.738 11.4733 176.09 11.0317C176.442 10.5902 176.657 10.0559 176.709 9.49428V0.00463867H174.324V12.0226C174.46 12.0206 174.595 12.0065 174.729 11.9804V11.9804Z" fill="var(--sapContent_Illustrative_Color19)"/>
<path d="M174.729 11.9804C175.286 11.8915 175.793 11.6057 176.156 11.1751C176.52 10.7445 176.716 10.1979 176.709 9.635V9.48022C176.659 10.0443 176.446 10.5816 176.094 11.0259C175.742 11.4703 175.267 11.8021 174.729 11.9804V11.9804Z" fill="var(--sapContent_Illustrative_Color18)"/>
<path d="M174.729 11.9804C175.286 11.8915 175.793 11.6057 176.156 11.1751C176.52 10.7445 176.716 10.1979 176.709 9.635V9.48022C176.659 10.0443 176.446 10.5816 176.094 11.0259C175.742 11.4703 175.267 11.8021 174.729 11.9804V11.9804Z" fill="var(--sapContent_Illustrative_Color19)"/>
<path d="M129.023 12.093C129.178 12.1233 129.335 12.1406 129.493 12.1446H140.483C142.512 9.44266 144.947 7.06929 147.702 5.10834C149.275 3.94284 150.909 2.86243 152.598 1.8717C152.17 1.40262 151.737 0.933486 151.29 0.417493C151.159 0.276767 151.041 0.140725 150.914 0H126.606V8.91261C126.602 9.63397 126.837 10.3364 127.274 10.9112C127.711 11.486 128.326 11.9014 129.023 12.093V12.093Z" fill="var(--sapContent_Illustrative_Color18)"/>
<path d="M129.023 12.093C129.178 12.1233 129.335 12.1406 129.493 12.1446H140.483C142.512 9.44266 144.947 7.06929 147.702 5.10834C149.275 3.94284 150.909 2.86243 152.598 1.8717C152.17 1.40262 151.737 0.933486 151.29 0.417493C151.159 0.276767 151.041 0.140725 150.914 0H126.606V8.91261C126.602 9.63397 126.837 10.3364 127.274 10.9112C127.711 11.486 128.326 11.9014 129.023 12.093V12.093Z" fill="var(--sapContent_Illustrative_Color19)"/>
<path d="M129.512 12.1634C129.354 12.1594 129.197 12.1421 129.042 12.1118C129.347 12.2055 129.664 12.2544 129.983 12.2572H140.474L140.545 12.1634H129.512Z" fill="var(--sapContent_Illustrative_Color18)"/>
<path opacity="0.5" d="M129.512 12.1634C129.354 12.1594 129.197 12.1421 129.042 12.1118C129.347 12.2055 129.664 12.2544 129.983 12.2572H140.474L140.545 12.1634H129.512Z" fill="var(--sapContent_Illustrative_Color18)"/>
<path d="M158.951 0.539411C156.859 0.0140361 154.799 0.65198 152.598 1.87629C150.909 2.86702 149.275 3.94749 147.702 5.11299C144.948 7.07394 142.513 9.44731 140.484 12.1493H169.203C163.541 6.8017 163.391 1.65114 158.951 0.539411Z" fill="var(--sapContent_Illustrative_Color18)"/>
<path d="M158.951 0.539411C156.859 0.0140361 154.799 0.65198 152.598 1.87629C150.909 2.86702 149.275 3.94749 147.702 5.11299C144.948 7.07394 142.513 9.44731 140.484 12.1493H169.203C163.541 6.8017 163.391 1.65114 158.951 0.539411Z" fill="var(--sapContent_Illustrative_Color20"/>
<path d="M140.432 12.2385H169.297L169.203 12.1447H140.484L140.432 12.2385Z" fill="var(--sapContent_Illustrative_Color18)"/>
<path opacity="0.5" d="M140.432 12.2385H169.297L169.203 12.1447H140.484L140.432 12.2385Z" fill="var(--sapContent_Illustrative_Color18)"/>
<path d="M35.9378 49.3665V0.00463867H35.9095V49.6338C35.9236 49.5453 35.933 49.456 35.9378 49.3665V49.3665Z" fill="var(--sapContent_Illustrative_Color18)"/>
<path d="M33.93 52.1202C33.7983 52.146 33.6645 52.1602 33.5303 52.1624V0.00477113H14.4655C11.6454 0.00138595 8.88648 0.825197 6.53206 2.37367C6.612 2.37367 6.68725 2.34085 6.7719 2.33147C7.41784 2.25318 8.07268 2.36351 8.657 2.6491C9.24132 2.93469 9.73 3.38325 10.0638 3.9404C10.2951 3.53003 10.5643 3.14214 10.8679 2.78178C12.4998 0.858526 14.696 0.0376162 15.7776 0.952332C16.8592 1.86705 16.4171 4.1609 14.7853 6.08415C13.9787 7.10385 12.8718 7.84544 11.6204 8.20443C11.7755 8.99718 11.8978 9.84617 11.9966 10.728C12.3352 13.8146 12.5327 17.1686 11.6909 19.2607H13.4638C13.2334 18.3226 13.4638 17.0982 13.5861 15.7191C13.8118 12.9046 14.9217 10.6483 16.5676 10.6108C19.582 10.5404 19.5445 12.8952 19.5445 15.7191C19.5686 16.9517 19.279 18.1702 18.7027 19.2607H23.5464V26.0625H22.2061V39.7785H0V52.2609H32.9942C33.3118 52.2668 33.6282 52.2193 33.93 52.1202Z" fill="var(--sapContent_Illustrative_Color7)"/>
<path d="M3.46118 11.76C3.15551 8.99243 3.10849 6.47813 3.76216 4.72375C1.34108 7.36799 -0.000901296 10.8199 4.54157e-07 14.401V19.2466H4.98015C3.95025 17.4453 3.76215 14.6543 3.46118 11.76Z" fill="var(--sapContent_Illustrative_Color7)"/>
<path d="M39.6438 49.3666V0.00476074H35.9381V49.3666C35.9333 49.4562 35.9239 49.5454 35.9098 49.634V49.7841C35.9121 50.3456 35.7143 50.8898 35.3517 51.3194C34.989 51.749 34.4852 52.0361 33.93 52.1295C33.6281 52.2371 33.31 52.2927 32.9895 52.2937H0V55.9901H32.9942C33.8671 55.992 34.7319 55.822 35.5389 55.4899C36.3459 55.1578 37.0792 54.6701 37.6969 54.0548C38.3146 53.4395 38.8046 52.7087 39.1387 51.9042C39.4727 51.0997 39.6444 50.2374 39.6438 49.3666V49.3666Z" fill="var(--sapContent_Illustrative_Color18)"/>
<path d="M33.93 52.12C34.467 51.9432 34.9404 51.6136 35.2922 51.1719C35.6439 50.7302 35.8586 50.1956 35.9098 49.6339V0.00463867H33.5303V52.1622C33.6645 52.16 33.7983 52.1459 33.93 52.12V52.12Z" fill="var(--sapContent_Illustrative_Color18)"/>
<path d="M33.93 52.12C34.467 51.9432 34.9404 51.6136 35.2922 51.1719C35.6439 50.7302 35.8586 50.1956 35.9098 49.6339V0.00463867H33.5303V52.1622C33.6645 52.16 33.7983 52.1459 33.93 52.12V52.12Z" fill="var(--sapContent_Illustrative_Color19)"/>
<path d="M33.9297 52.1201C34.4849 52.0267 34.9887 51.7396 35.3514 51.31C35.714 50.8804 35.9118 50.3363 35.9095 49.7747V49.6246C35.8601 50.188 35.6462 50.7246 35.2943 51.1681C34.9425 51.6116 34.468 51.9426 33.9297 52.1201Z" fill="var(--sapContent_Illustrative_Color18)"/>
<path opacity="0.2" d="M33.9297 52.1201C34.4849 52.0267 34.9887 51.7396 35.3514 51.31C35.714 50.8804 35.9118 50.3363 35.9095 49.7747V49.6246C35.8601 50.188 35.6462 50.7246 35.2943 51.1681C34.9425 51.6116 34.468 51.9426 33.9297 52.1201Z" fill="var(--sapContent_Illustrative_Color18)"/>
<path d="M22.2295 26.0859H22.2154V27.6057H0.0186768V39.8019H22.2295V26.0859Z" fill="var(--sapContent_Illustrative_Color18)"/>
<path d="M22.2154 26.325V26.0764C22.1358 26.0662 22.0552 26.0662 21.9756 26.0764H0.258565C0.22667 26.0764 0.195092 26.0827 0.165682 26.0951C0.136273 26.1074 0.109599 26.1254 0.0872657 26.1481C0.0649322 26.1708 0.047373 26.1978 0.0356003 26.2274C0.0238277 26.257 0.0180975 26.2886 0.018723 26.3204V27.3805C0.018723 27.4439 0.0439522 27.5048 0.0889305 27.5497C0.133909 27.5945 0.194956 27.6197 0.258565 27.6197H21.9756C22.0392 27.6197 22.1002 27.5945 22.1452 27.5497C22.1902 27.5048 22.2154 27.4439 22.2154 27.3805V26.325Z" fill="var(--sapContent_Illustrative_Color19)"/>
<path d="M23.5558 26.0624V19.2607H18.7121H13.4827H11.7097H5.02716H0V26.0624H23.5135H23.5558Z" fill="var(--sapContent_Illustrative_Color18)"/>
<path d="M3.4611 11.76C3.77618 14.6543 3.93138 17.4453 4.99889 19.2654H11.6814C12.5232 17.1733 12.3257 13.8193 11.9871 10.7327C11.8883 9.85083 11.766 9.00178 11.6109 8.20903C12.8623 7.85005 13.9693 7.10851 14.7758 6.08881C16.4077 4.16557 16.8497 1.86702 15.7681 0.956994C14.6865 0.0469692 12.4762 0.863188 10.8584 2.78644C10.5548 3.14681 10.2856 3.53469 10.0543 3.94506C9.7205 3.38792 9.23182 2.93936 8.6475 2.65376C8.06319 2.36817 7.40834 2.25785 6.7624 2.33613C6.67775 2.33613 6.60251 2.36426 6.52256 2.37834C5.50438 3.04128 4.57378 3.82926 3.75266 4.72376C3.10839 6.47814 3.15542 8.99243 3.4611 11.76Z" fill="var(--sapContent_Illustrative_Color18)"/>
<path d="M18.7023 19.2841C19.2786 18.1936 19.5683 16.975 19.5441 15.7425C19.5441 12.928 19.5817 10.5825 16.5673 10.6341C14.9213 10.6717 13.8115 12.928 13.5858 15.7425C13.4729 17.1216 13.2331 18.3647 13.4635 19.2841H18.7023Z" fill="var(--sapContent_Illustrative_Color18)"/>
<path d="M112.79 191.208C112.773 190.139 113.065 189.087 113.631 188.178H106.074C105.6 188.178 105.136 188.041 104.738 187.785C104.339 187.529 104.023 187.164 103.826 186.733H34.4614C33.2715 186.733 32.1304 187.205 31.289 188.044C30.4476 188.883 29.975 190.022 29.975 191.208V197.494C29.9809 198.176 30.1417 198.848 30.4452 199.46H113.128C112.911 198.827 112.801 198.163 112.804 197.494L112.79 191.208Z" fill="var(--sapContent_Illustrative_Color19)"/>
<path d="M65.5039 137.226C65.2281 137.232 64.9609 137.13 64.7602 136.941C64.5595 136.753 64.4415 136.493 64.4317 136.218L62.8986 73.8293H61.0175C60.8756 73.8273 60.7347 73.854 60.6034 73.9077C60.472 73.9614 60.3529 74.0411 60.2532 74.1419C60.1535 74.2426 60.0753 74.3624 60.0232 74.4941C59.971 74.6258 59.9462 74.7667 59.95 74.9082L61.5348 139.337C61.5422 139.614 61.6588 139.878 61.8595 140.07C62.0602 140.262 62.3288 140.368 62.607 140.364L94.8816 139.867L94.228 136.795L65.5039 137.226Z" fill="var(--sapContent_Illustrative_Color7)"/>
<path d="M65.5039 137.226C65.2281 137.232 64.9609 137.13 64.7602 136.941C64.5595 136.753 64.4415 136.493 64.4317 136.218L62.8986 73.8293H61.0175C60.8756 73.8273 60.7347 73.854 60.6034 73.9077C60.472 73.9614 60.3529 74.0411 60.2532 74.1419C60.1535 74.2426 60.0753 74.3624 60.0232 74.4941C59.971 74.6258 59.9462 74.7667 59.95 74.9082L61.5348 139.337C61.5422 139.614 61.6588 139.878 61.8595 140.07C62.0602 140.262 62.3288 140.368 62.607 140.364L94.8816 139.867L94.228 136.795L65.5039 137.226Z" fill="var(--sapContent_Illustrative_Color19)"/>
<path d="M103.699 136.63L104.268 139.708L103.699 136.63Z" fill="var(--sapContent_Illustrative_Color7)"/>
<path opacity="0.5" d="M103.699 136.63L104.268 139.708L103.699 136.63Z" fill="var(--sapContent_Illustrative_Color18)"/>
<path d="M65.5038 137.226L94.2279 136.78L92.7654 129.88L71.1847 130.204C71.0766 130.203 70.9697 130.181 70.8701 130.14C70.7705 130.098 70.6801 130.037 70.6041 129.96C70.5281 129.883 70.468 129.793 70.4272 129.693C70.3865 129.593 70.3658 129.486 70.3664 129.378L69.1013 78.0276H69.0214V76.8408H69.7033C69.7649 76.8261 69.828 76.8182 69.8914 76.8173L72.0312 76.8502L105.392 76.9534L106.3 111.197H111.256L110.316 73.3508C110.307 73.0803 110.194 72.8238 109.999 72.6356C109.804 72.4473 109.543 72.3421 109.272 72.3423L63.919 71.8075C63.7784 71.8043 63.6385 71.8295 63.5078 71.8816C63.3772 71.9337 63.2584 72.0116 63.1587 72.1106C63.059 72.2096 62.9804 72.3277 62.9276 72.4578C62.8748 72.5879 62.8489 72.7273 62.8515 72.8677V73.8339L64.3846 136.222C64.3899 136.362 64.4233 136.5 64.4829 136.626C64.5425 136.753 64.6269 136.867 64.7313 136.96C64.8357 137.054 64.9579 137.126 65.0906 137.171C65.2232 137.217 65.3638 137.236 65.5038 137.226Z" fill="var(--sapContent_Illustrative_Color18)"/>
<path d="M69.9054 76.8173C69.842 76.8182 69.7789 76.8261 69.7173 76.8408H72.0686L69.9054 76.8173Z" fill="var(--sapContent_Illustrative_Color18)"/>
<path d="M103.172 126.437C103.386 126.274 103.624 126.146 103.878 126.057C103.624 126.146 103.386 126.274 103.172 126.437Z" fill="var(--sapContent_Illustrative_Color18)"/>
<path d="M103.878 126.057C104.143 125.966 104.421 125.92 104.701 125.921C104.421 125.917 104.142 125.963 103.878 126.057V126.057Z" fill="var(--sapContent_Illustrative_Color18)"/>
<path d="M102.26 128.834C102.227 128.649 102.214 128.46 102.222 128.271C102.214 128.46 102.227 128.649 102.26 128.834L102.429 129.735L102.26 128.834Z" fill="var(--sapContent_Illustrative_Color18)"/>
<path d="M69.1016 78.0276L70.3666 129.378C70.366 129.486 70.3867 129.593 70.4275 129.693C70.4683 129.793 70.5284 129.883 70.6043 129.96C70.6803 130.037 70.7707 130.098 70.8703 130.14C70.9699 130.181 71.0768 130.203 71.1849 130.204L92.7656 129.88L90.6541 119.95C89.2433 120.161 88.1146 119.95 88.0723 118.899C88.0723 118.496 88.0206 117.919 87.9641 117.055C87.3429 117.358 86.6616 117.519 85.9702 117.525C81.6813 117.525 78.2013 112.599 78.2013 106.524C78.2013 104.024 78.1355 101.721 78.6245 99.8775C77.1056 100.295 75.6478 99.8447 75.3045 98.8174C75.0505 98.0481 75.4831 97.1662 76.3343 96.5283H75.3186C75.0317 96.5283 74.7566 96.4146 74.5538 96.2123C74.3509 96.01 74.2369 95.7355 74.2369 95.4494C74.2369 94.5362 74.6006 93.6605 75.248 93.0148C75.8953 92.3691 76.7732 92.0063 77.6887 92.0063H79.6169C80.117 91.2484 80.7833 90.6139 81.5654 90.1507C82.3475 89.6875 83.225 89.4077 84.1314 89.3325L87.4656 89.0558C89.0422 88.9249 90.6276 89.1644 92.0946 89.755C93.5616 90.3456 94.8694 91.2709 95.9132 92.4566C96.957 93.6424 97.7078 95.0557 98.1053 96.5831C98.5027 98.1105 98.5358 99.7095 98.2019 101.252L96.6265 109.377C96.6039 109.476 96.5599 109.57 96.4973 109.651C96.4348 109.732 96.3553 109.798 96.2644 109.846C96.4243 110.235 96.603 110.652 96.8099 111.164H105.242L104.273 78.4169L69.1016 78.0276Z" fill="var(--sapContent_Illustrative_Color7)"/>
<path d="M69.7174 76.8408H69.0355V78.0276H69.1154V77.6852C69.1058 77.4974 69.16 77.3119 69.2692 77.1586C69.3785 77.0054 69.5364 76.8934 69.7174 76.8408V76.8408Z" fill="var(--sapContent_Illustrative_Color18)"/>
<path opacity="0.5" d="M69.7174 76.8408H69.0355V78.0276H69.1154V77.6852C69.1058 77.4974 69.16 77.3119 69.2692 77.1586C69.3785 77.0054 69.5364 76.8934 69.7174 76.8408V76.8408Z" fill="var(--sapContent_Illustrative_Color18)"/>
<path d="M72.0452 76.8503L104.574 77.3194C104.788 77.3289 104.99 77.4198 105.138 77.5734C105.287 77.7269 105.371 77.9315 105.373 78.145L106.187 111.211H106.314L105.406 76.9676L72.0452 76.8503Z" fill="var(--sapContent_Illustrative_Color18)"/>
<path opacity="0.5" d="M72.0452 76.8503L104.574 77.3194C104.788 77.3289 104.99 77.4198 105.138 77.5734C105.287 77.7269 105.371 77.9315 105.373 78.145L106.187 111.211H106.314L105.406 76.9676L72.0452 76.8503Z" fill="var(--sapContent_Illustrative_Color18)"/>
<path d="M104.574 77.3099L72.0452 76.8408H69.6939C69.5085 76.8889 69.3453 76.999 69.2315 77.1527C69.1176 77.3063 69.0601 77.4943 69.0684 77.6852V78.0276L104.24 78.4544L105.209 111.201H106.149L105.336 78.1355C105.334 77.9281 105.255 77.7286 105.114 77.576C104.974 77.4234 104.781 77.3285 104.574 77.3099V77.3099Z" fill="var(--sapContent_Illustrative_Color18)"/>
<path opacity="0.5" d="M104.574 77.3099L72.0452 76.8408H69.6939C69.5085 76.8889 69.3453 76.999 69.2315 77.1527C69.1176 77.3063 69.0601 77.4943 69.0684 77.6852V78.0276L104.24 78.4544L105.209 111.201H106.149L105.336 78.1355C105.334 77.9281 105.255 77.7286 105.114 77.576C104.974 77.4234 104.781 77.3285 104.574 77.3099V77.3099Z" fill="var(--sapContent_Illustrative_Color18)"/>
<path d="M96.626 109.395L98.2014 101.271C98.5353 99.7283 98.5022 98.1293 98.1048 96.6019C97.7073 95.0745 96.9565 93.6612 95.9127 92.4755C94.8689 91.2897 93.5611 90.3644 92.0941 89.7738C90.6271 89.1832 89.0417 88.9437 87.4651 89.0746L84.1309 89.3514C83.2245 89.4266 82.347 89.7064 81.5649 90.1696C80.7828 90.6328 80.1165 91.2673 79.6164 92.0251H77.6882C76.7727 92.0251 75.8948 92.3879 75.2475 93.0336C74.6001 93.6793 74.2365 94.555 74.2365 95.4682C74.2365 95.7543 74.3504 96.0288 74.5533 96.2311C74.7561 96.4334 75.0312 96.5471 75.3181 96.5471H76.3338C75.4826 97.1851 75.05 98.0669 75.304 98.8362C75.6473 99.8635 77.1051 100.314 78.624 99.8964C78.1538 101.74 78.2008 104.043 78.2008 106.543C78.2008 112.618 81.6809 117.543 85.9697 117.543C86.6611 117.537 87.3424 117.377 87.9637 117.074C88.0201 117.937 88.0577 118.514 88.0718 118.918C88.1141 119.987 89.2663 120.18 90.6536 119.968L89.4309 114.203C89.3537 113.844 89.3582 113.471 89.4442 113.113C89.5301 112.755 89.6952 112.421 89.9274 112.135C90.1596 111.849 90.453 111.618 90.7862 111.46C91.1193 111.302 91.4837 111.22 91.8527 111.22H96.8094C96.6025 110.709 96.4238 110.282 96.2639 109.902C96.3591 109.851 96.4413 109.779 96.5041 109.691C96.5669 109.603 96.6086 109.502 96.626 109.395V109.395Z" fill="var(--sapContent_Illustrative_Color18)"/>
<path d="M96.626 109.395L98.2014 101.271C98.5353 99.7283 98.5022 98.1293 98.1048 96.6019C97.7073 95.0745 96.9565 93.6612 95.9127 92.4755C94.8689 91.2897 93.5611 90.3644 92.0941 89.7738C90.6271 89.1832 89.0417 88.9437 87.4651 89.0746L84.1309 89.3514C83.2245 89.4266 82.347 89.7064 81.5649 90.1696C80.7828 90.6328 80.1165 91.2673 79.6164 92.0251H77.6882C76.7727 92.0251 75.8948 92.3879 75.2475 93.0336C74.6001 93.6793 74.2365 94.555 74.2365 95.4682C74.2365 95.7543 74.3504 96.0288 74.5533 96.2311C74.7561 96.4334 75.0312 96.5471 75.3181 96.5471H76.3338C75.4826 97.1851 75.05 98.0669 75.304 98.8362C75.6473 99.8635 77.1051 100.314 78.624 99.8964C78.1538 101.74 78.2008 104.043 78.2008 106.543C78.2008 112.618 81.6809 117.543 85.9697 117.543C86.6611 117.537 87.3424 117.377 87.9637 117.074C88.0201 117.937 88.0577 118.514 88.0718 118.918C88.1141 119.987 89.2663 120.18 90.6536 119.968L89.4309 114.203C89.3537 113.844 89.3582 113.471 89.4442 113.113C89.5301 112.755 89.6952 112.421 89.9274 112.135C90.1596 111.849 90.453 111.618 90.7862 111.46C91.1193 111.302 91.4837 111.22 91.8527 111.22H96.8094C96.6025 110.709 96.4238 110.282 96.2639 109.902C96.3591 109.851 96.4413 109.779 96.5041 109.691C96.5669 109.603 96.6086 109.502 96.626 109.395V109.395Z" fill="var(--sapContent_Illustrative_Color18)"/>
<path d="M144.744 132.624C142.413 132.591 140.102 133.046 137.959 133.961C135.816 134.875 133.89 136.229 132.305 137.934C130.732 139.674 129.542 141.723 128.813 143.95C128.084 146.177 127.832 148.532 128.073 150.862C128.962 160.967 137.92 169.19 148.05 169.19C150.382 169.223 152.694 168.767 154.838 167.851C156.982 166.936 158.908 165.581 160.493 163.875C162.068 162.136 163.258 160.087 163.987 157.86C164.716 155.632 164.968 153.277 164.726 150.947C163.837 140.843 154.874 132.624 144.744 132.624ZM147.758 166.769C139.082 166.769 131.355 159.686 130.598 151.027C129.841 142.367 136.317 135.284 144.998 135.284C153.679 135.284 161.401 142.367 162.163 151.027C162.925 159.686 156.44 166.769 147.758 166.769Z" fill="var(--sapContent_Illustrative_Color8)"/>
<path d="M148.605 151.013L151.897 147.391C152.033 147.235 152.136 147.054 152.2 146.857C152.264 146.661 152.288 146.454 152.27 146.248C152.252 146.042 152.192 145.842 152.095 145.66C151.998 145.478 151.865 145.317 151.704 145.187C151.562 145.038 151.39 144.919 151.2 144.838C151.01 144.757 150.806 144.715 150.599 144.715C150.393 144.715 150.188 144.757 149.998 144.838C149.808 144.919 149.637 145.038 149.494 145.187L146.202 148.808L142.252 145.187C142.109 145.038 141.938 144.919 141.748 144.838C141.558 144.757 141.353 144.715 141.147 144.715C140.94 144.715 140.736 144.757 140.546 144.838C140.356 144.919 140.184 145.038 140.042 145.187C139.906 145.342 139.802 145.524 139.738 145.721C139.674 145.917 139.651 146.125 139.669 146.331C139.688 146.537 139.748 146.737 139.846 146.919C139.944 147.101 140.077 147.262 140.239 147.391L144.185 151.013L140.893 154.634C140.756 154.789 140.653 154.971 140.588 155.167C140.524 155.364 140.5 155.571 140.518 155.777C140.536 155.983 140.596 156.183 140.693 156.366C140.791 156.548 140.924 156.709 141.086 156.839C141.228 156.988 141.399 157.106 141.589 157.187C141.778 157.268 141.982 157.31 142.188 157.31C142.395 157.31 142.599 157.268 142.788 157.187C142.978 157.106 143.149 156.988 143.291 156.839L146.583 153.217L150.529 156.839C150.671 156.988 150.843 157.106 151.033 157.187C151.223 157.268 151.427 157.31 151.634 157.31C151.84 157.31 152.045 157.268 152.235 157.187C152.425 157.106 152.596 156.988 152.739 156.839C152.875 156.683 152.979 156.502 153.043 156.305C153.108 156.109 153.132 155.901 153.114 155.695C153.096 155.489 153.036 155.289 152.939 155.107C152.841 154.924 152.708 154.764 152.546 154.634L148.605 151.013Z" fill="var(--sapContent_Illustrative_Color8)"/>
<path d="M312.452 191.208C312.452 188.736 311.041 186.733 309.282 186.733H244.103C243.959 187.154 243.687 187.52 243.324 187.779C242.961 188.038 242.527 188.178 242.081 188.178H113.631C113.065 189.087 112.773 190.139 112.789 191.208V197.494C112.787 198.163 112.897 198.827 113.114 199.46H307.556C309.343 199.437 311.069 198.814 312.457 197.691V197.691C312.457 197.63 312.457 197.565 312.457 197.499L312.452 191.208Z" fill="var(--sapContent_Illustrative_Color18)"/>
<path d="M212.303 179.186L199.503 113.204C199.393 112.64 199.09 112.131 198.646 111.766C198.201 111.4 197.643 111.201 197.067 111.201H91.853C91.484 111.201 91.1196 111.283 90.7865 111.441C90.4533 111.599 90.1599 111.83 89.9277 112.116C89.6955 112.402 89.5303 112.736 89.4444 113.094C89.3585 113.452 89.354 113.825 89.4312 114.185L90.6539 119.95L92.7654 129.88L94.2279 136.781L94.8816 139.853L103.445 180.166C103.562 180.721 103.866 181.218 104.307 181.575C104.748 181.932 105.299 182.127 105.867 182.127H209.872C210.237 182.127 210.598 182.046 210.928 181.89C211.258 181.735 211.55 181.509 211.782 181.228C212.014 180.947 212.182 180.618 212.272 180.265C212.362 179.912 212.373 179.543 212.303 179.186ZM196.051 156.576H184.703L187.609 171.798C187.726 172.401 187.61 173.026 187.285 173.547C187.24 173.619 187.191 173.688 187.139 173.754C187.07 173.851 186.993 173.942 186.909 174.026C186.447 174.474 185.827 174.725 185.183 174.725H112.789C112.516 174.725 112.244 174.679 111.985 174.589C111.902 174.561 111.82 174.528 111.741 174.49C111.421 174.341 111.137 174.125 110.908 173.857C110.721 173.641 110.574 173.393 110.476 173.125C110.422 172.989 110.382 172.848 110.358 172.703L104.245 139.708L103.676 136.63L102.406 129.735L102.237 128.834C102.203 128.649 102.191 128.46 102.199 128.271C102.208 128.091 102.236 127.911 102.284 127.737C102.322 127.592 102.376 127.452 102.444 127.319L102.528 127.155C102.645 126.956 102.787 126.773 102.951 126.611C103.013 126.55 103.083 126.493 103.149 126.437C103.363 126.274 103.601 126.146 103.854 126.057C104.118 125.963 104.397 125.917 104.677 125.921H106.685H111.609H111.651L157.221 126.081L156.369 121.587C156.302 121.227 156.314 120.857 156.406 120.502C156.498 120.148 156.668 119.818 156.902 119.536C157.136 119.255 157.43 119.028 157.762 118.872C158.095 118.717 158.457 118.636 158.824 118.636H189.796C190.378 118.636 190.942 118.84 191.389 119.21C191.837 119.581 192.14 120.097 192.246 120.667L198.477 153.602C198.549 153.961 198.541 154.332 198.453 154.688C198.364 155.043 198.198 155.375 197.967 155.659C197.735 155.943 197.443 156.173 197.111 156.331C196.78 156.49 196.418 156.573 196.051 156.576V156.576Z" fill="var(--sapContent_Illustrative_Color2"/>
<path d="M106.074 188.178H140.648C140.003 188.181 139.366 188.028 138.793 187.733C138.22 187.437 137.727 187.007 137.356 186.48L134.29 182.127H106.074C105.417 182.127 104.786 182.387 104.321 182.851C103.857 183.315 103.596 183.943 103.596 184.599V185.706C103.597 186.061 103.675 186.412 103.826 186.733C104.022 187.164 104.339 187.529 104.737 187.785C105.136 188.041 105.6 188.178 106.074 188.178V188.178Z" fill="var(--sapContent_Illustrative_Color13)"/>
<path d="M137.375 186.48C137.746 187.007 138.239 187.437 138.812 187.733C139.385 188.028 140.022 188.181 140.667 188.178H242.1C242.546 188.178 242.98 188.038 243.343 187.779C243.705 187.52 243.978 187.154 244.122 186.733C244.202 186.509 244.245 186.273 244.249 186.035V182.127H134.309L137.375 186.48Z" fill="var(--sapContent_Illustrative_Color14)"/>
<path d="M192.27 120.691C192.163 120.12 191.86 119.605 191.412 119.234C190.965 118.863 190.401 118.66 189.82 118.66H158.848C158.481 118.66 158.118 118.74 157.786 118.896C157.454 119.051 157.16 119.278 156.925 119.56C156.691 119.842 156.522 120.171 156.43 120.526C156.338 120.88 156.325 121.251 156.393 121.61L157.244 126.104L176.854 126.17C176.987 126.171 177.119 126.183 177.249 126.207C177.748 126.289 178.21 126.521 178.573 126.872C178.935 127.224 179.181 127.678 179.276 128.173L184.703 156.576H196.051C196.418 156.576 196.78 156.496 197.112 156.34C197.444 156.184 197.738 155.958 197.972 155.676C198.206 155.394 198.374 155.064 198.466 154.709C198.557 154.355 198.569 153.985 198.501 153.625L192.27 120.691Z" fill="var(--sapContent_Illustrative_Color14)"/>
<path d="M177.249 126.207C177.119 126.183 176.987 126.17 176.854 126.17L157.244 126.104L111.675 125.945H111.633H106.709H104.701C104.421 125.943 104.142 125.989 103.878 126.081C103.624 126.169 103.386 126.298 103.172 126.461C103.107 126.517 103.036 126.573 102.975 126.634C102.811 126.796 102.668 126.979 102.552 127.178L102.467 127.343C102.399 127.476 102.346 127.616 102.307 127.76C102.26 127.935 102.231 128.114 102.222 128.295C102.214 128.483 102.227 128.672 102.26 128.858L102.429 129.758L103.699 136.654L104.268 139.731L110.382 172.727C110.406 172.871 110.445 173.012 110.499 173.149C110.598 173.417 110.744 173.665 110.932 173.88C111.16 174.149 111.444 174.365 111.764 174.514C111.844 174.551 111.925 174.584 112.009 174.612C112.267 174.703 112.539 174.749 112.813 174.748H185.206C185.851 174.748 186.47 174.498 186.932 174.049C187.016 173.965 187.094 173.874 187.163 173.777C187.215 173.711 187.264 173.642 187.308 173.571C187.634 173.049 187.749 172.424 187.633 171.821L184.727 156.599L179.3 128.196C179.207 127.693 178.96 127.232 178.593 126.875C178.225 126.519 177.756 126.286 177.249 126.207ZM161.194 164.532C159.518 166.338 157.479 167.773 155.211 168.743C152.942 169.712 150.495 170.196 148.027 170.161C137.408 170.161 128.012 161.539 127.081 150.928C126.828 148.463 127.097 145.973 127.872 143.619C128.646 141.265 129.909 139.099 131.577 137.264C133.253 135.456 135.291 134.021 137.56 133.051C139.828 132.081 142.276 131.598 144.744 131.635C155.368 131.635 164.764 140.252 165.69 150.867C165.944 153.332 165.674 155.822 164.9 158.176C164.125 160.531 162.863 162.696 161.194 164.532Z" fill="var(--sapContent_Illustrative_Color8)"/>
<path d="M144.998 135.284C136.317 135.284 129.837 142.367 130.598 151.027C131.36 159.686 139.063 166.769 147.759 166.769C156.454 166.769 162.92 159.686 162.163 151.027C161.406 142.367 153.679 135.284 144.998 135.284ZM152.729 156.862C152.587 157.011 152.415 157.13 152.225 157.211C152.035 157.292 151.831 157.334 151.624 157.334C151.418 157.334 151.213 157.292 151.023 157.211C150.833 157.13 150.662 157.011 150.519 156.862L146.574 153.241L143.282 156.862C143.139 157.011 142.968 157.129 142.779 157.21C142.589 157.291 142.385 157.333 142.179 157.333C141.973 157.333 141.769 157.291 141.579 157.21C141.389 157.129 141.218 157.011 141.076 156.862C140.915 156.732 140.781 156.572 140.684 156.389C140.586 156.207 140.527 156.007 140.509 155.801C140.491 155.595 140.515 155.387 140.579 155.191C140.643 154.994 140.747 154.813 140.883 154.657L144.175 151.036L140.23 147.415C140.068 147.285 139.934 147.125 139.836 146.943C139.738 146.76 139.678 146.56 139.66 146.354C139.641 146.148 139.665 145.941 139.729 145.744C139.793 145.548 139.896 145.366 140.032 145.21C140.175 145.061 140.346 144.942 140.536 144.861C140.726 144.78 140.931 144.739 141.137 144.739C141.344 144.739 141.548 144.78 141.738 144.861C141.928 144.942 142.1 145.061 142.242 145.21L146.193 148.831L149.485 145.21C149.627 145.061 149.799 144.942 149.989 144.861C150.179 144.78 150.383 144.739 150.59 144.739C150.796 144.739 151.001 144.78 151.191 144.861C151.381 144.942 151.552 145.061 151.695 145.21C151.856 145.34 151.989 145.501 152.086 145.683C152.183 145.866 152.242 146.066 152.26 146.272C152.278 146.477 152.254 146.685 152.19 146.881C152.126 147.077 152.023 147.259 151.888 147.415L148.596 151.036L152.541 154.657C152.701 154.787 152.833 154.948 152.929 155.13C153.025 155.311 153.084 155.511 153.101 155.715C153.119 155.92 153.095 156.126 153.031 156.322C152.967 156.517 152.865 156.698 152.729 156.853V156.862Z" fill="var(--sapContent_Illustrative_Color11)"/>
<path d="M144.744 131.653C142.276 131.617 139.828 132.1 137.559 133.07C135.291 134.039 133.252 135.475 131.576 137.282C129.908 139.118 128.646 141.283 127.871 143.638C127.097 145.992 126.827 148.482 127.081 150.947C128.021 161.539 137.427 170.179 148.027 170.179C150.494 170.214 152.942 169.731 155.21 168.761C157.479 167.792 159.518 166.357 161.194 164.55C162.863 162.714 164.126 160.548 164.9 158.193C165.675 155.838 165.944 153.347 165.69 150.881C164.763 140.27 155.367 131.653 144.744 131.653ZM160.479 163.875C158.894 165.581 156.967 166.936 154.824 167.851C152.68 168.767 150.368 169.223 148.036 169.19C137.906 169.19 128.948 160.967 128.059 150.862C127.817 148.532 128.069 146.177 128.798 143.95C129.528 141.723 130.718 139.674 132.291 137.934C133.876 136.229 135.802 134.875 137.945 133.96C140.088 133.046 142.399 132.591 144.73 132.624C154.86 132.624 163.823 140.843 164.707 150.947C164.95 153.277 164.699 155.632 163.97 157.859C163.242 160.086 162.053 162.136 160.479 163.875V163.875Z" fill="var(--sapContent_Illustrative_Color3"/>
</svg>
