<svg width="45" height="45" viewBox="0 0 45 45" fill="none" xmlns="http://www.w3.org/2000/svg" id="sapIllus-Dot-KeyTask">
<g clip-path="url(#clip0_31411_12412)">
<path d="M22.753 37.3427L24.0865 37.4365L41.9545 29.7773L24.8303 22.4465L0.706981 26.6313C0.11395 26.7485 -0.465679 26.9562 0.562912 27.4421L21.778 37.0914C22.17 37.269 22.3275 37.3092 22.753 37.3427Z" fill="var(--sapContent_Illustrative_Color21)"/>
<path d="M9.37457 30.1693L9.39467 30.8629C9.39467 30.893 9.41477 30.9232 9.44493 30.9366L23.0277 37.212C23.0277 37.212 24.1099 37.7179 25.172 37.212C26.6696 36.4983 44.7386 28.8023 44.7386 28.8023C44.7386 28.8023 44.9866 28.7253 44.9933 28.4539C45 28.1825 44.9933 27.8977 44.9933 27.8977L9.37122 30.1693H9.37457Z" fill="var(--sapContent_Illustrative_Color29)"/>
<path d="M12.2292 29.1641L12.1656 29.1842L11.9914 29.2345L11.73 29.3115L11.4084 29.4053L11.0465 29.5125L10.6746 29.6198L10.3128 29.727C10.2056 29.7571 9.44501 30.0084 9.44501 30.0084C9.36794 30.0453 9.36794 30.2295 9.3914 30.2966C9.40815 30.3401 9.4383 30.377 9.48186 30.3971C9.66278 30.4909 23.6342 36.5586 23.6342 36.5586C23.6342 36.5586 24.3914 36.9137 25.5004 36.3609C26.395 35.9153 34.7008 32.4341 34.7008 32.4341L44.7186 28.2327C44.7186 28.2327 45.6132 27.7904 44.1256 27.5793L31.2062 24.2858C31.2062 24.2858 30.6098 24.0781 29.7354 24.2657C28.8643 24.4534 12.2326 29.1641 12.2326 29.1641H12.2259H12.2292Z" fill="var(--sapContent_Illustrative_Color1)"/>
<path d="M17.4257 28.8725C17.5698 28.5308 17.8077 28.0115 18.1126 27.5022C14.876 28.4169 12.2258 29.164 12.2258 29.164C12.2057 29.1707 12.1823 29.1774 12.1622 29.1841C12.1052 29.2009 12.0449 29.2176 11.9879 29.2344C11.9008 29.2612 11.8137 29.2846 11.7266 29.3114C11.6194 29.3416 11.5088 29.3751 11.405 29.4053L11.0431 29.5125C10.9191 29.5493 10.7952 29.5828 10.6712 29.6197C10.5506 29.6532 10.43 29.69 10.3094 29.7269C10.2021 29.7571 9.44159 30.0083 9.44159 30.0083C9.36453 30.0452 9.36453 30.2295 9.38798 30.2965C9.40473 30.34 9.43489 30.3769 9.47844 30.397C9.57226 30.4473 13.5392 32.1761 17.2515 33.7877C16.8494 32.156 16.7757 30.4271 17.4324 28.8725H17.4257Z" fill="var(--sapContent_Illustrative_Color1)"/>
<path d="M9.40477 30.2496L30.0503 24.2858C30.0503 24.2858 30.258 24.3026 30.2011 23.5923C30.1441 22.882 28.3516 8.28068 28.3516 8.28068C28.3516 8.28068 28.2746 7.57039 27.4537 7.56033C26.6328 7.55363 7.0293 8.60568 7.0293 8.60568C7.0293 8.60568 5.9605 8.69949 6.08447 9.8889C6.20509 11.0783 8.75813 29.2478 8.75813 29.2478C8.75813 29.2478 8.97591 30.2362 9.40477 30.2463V30.2496Z" fill="var(--sapContent_Illustrative_Color1)"/>
<path d="M20.8532 25.7533C18.1192 25.5858 15.325 25.0464 12.916 23.6794C10.5171 22.3225 9.74645 20.014 8.86193 17.4073C8.11813 15.2295 7.48154 12.3683 7.61556 10.8941C7.79984 10.0899 8.04777 9.30594 8.32251 8.53198C7.505 8.57554 7.02588 8.60234 7.02588 8.60234C7.02588 8.60234 5.95708 8.69615 6.08105 9.88557C6.20167 11.075 8.75472 29.2445 8.75472 29.2445C8.75472 29.2445 8.84518 30.2396 9.40135 30.2429L25.058 25.7198C23.6576 25.8136 22.2504 25.8304 20.8465 25.7466V25.7533H20.8532Z" fill="var(--sapContent_Illustrative_Color1)"/>
<path d="M7.01923 9.92918L9.60243 27.901L29.4807 22.8351L27.8323 8.55884L7.01923 9.92918Z" fill="var(--sapContent_Illustrative_Color8)"/>
<path d="M32.0169 32.394L37.8635 29.9783C38.031 29.908 37.9941 29.6064 37.8099 29.5662L34.1545 28.7822C34.0105 28.7521 33.8697 28.7621 33.7391 28.8057L26.6595 31.2783C26.6059 31.2984 26.6193 31.3956 26.683 31.409L29.8559 32.4409C30.5997 32.6822 31.3535 32.6654 32.0169 32.3907V32.3974V32.394Z" fill="var(--sapContent_Illustrative_Color27)"/>
<path d="M26.6596 31.362C26.5959 31.3419 26.5792 31.2413 26.6328 31.2179L33.6587 28.8089C33.8363 28.7486 34.0239 28.7386 34.2149 28.7788L37.7965 29.5594C37.8434 29.5695 37.897 29.5963 37.9339 29.6532C37.9607 29.6934 37.9741 29.7403 37.9741 29.7872V29.8007L34.1713 28.9161C34.0105 28.886 33.8463 28.8994 33.6955 28.9496L26.6596 31.3586V31.3519V31.362Z" fill="var(--sapContent_Illustrative_Color1)"/>
<path d="M32.007 28.0752L33.0289 28.3365C33.0758 28.3499 33.0892 28.4303 33.0456 28.4437L32.0941 28.7386H32.074L31.0119 28.4672C30.965 28.4538 30.9482 28.3734 30.9951 28.36L31.9869 28.0785H32.007V28.0752Z" fill="var(--sapContent_Illustrative_Color1)"/>
<path d="M33.7794 27.5725L34.7577 27.8037C34.808 27.8171 34.818 27.8975 34.7744 27.9109L33.5884 28.2795H33.5683L32.5732 28.0282C32.5263 28.0148 32.5129 27.9344 32.5564 27.921L33.766 27.5759H33.7861L33.7794 27.5725Z" fill="var(--sapContent_Illustrative_Color1)"/>
<path d="M22.4548 30.8025L23.8218 31.2213C23.8586 31.2313 23.8687 31.2883 23.8385 31.295L22.6424 31.6636H22.6223L21.2587 31.2179C21.2252 31.2079 21.2118 31.1476 21.2386 31.1442L22.4347 30.8025H22.4548Z" fill="var(--sapContent_Illustrative_Color1)"/>
<path d="M31.5445 28.7988L30.4556 28.5208H30.4355L29.4069 28.8156L22.9003 30.6717C22.8601 30.6818 22.8769 30.7522 22.9204 30.7656L24.2338 31.1676H24.2539L30.7706 29.1506L31.5579 28.9061C31.6015 28.8927 31.5881 28.8122 31.5412 28.7988H31.5445Z" fill="var(--sapContent_Illustrative_Color1)"/>
<path d="M16.1592 30.7555L15.3518 30.9867H15.325L14.5946 30.7522C14.5343 30.7321 14.5108 30.6449 14.5577 30.6282L15.3853 30.387H15.4121L16.1224 30.6282C16.1793 30.6483 16.2061 30.7354 16.1559 30.7522L16.1592 30.7555Z" fill="var(--sapContent_Illustrative_Color1)"/>
<path d="M18.7994 31.6468L18.069 31.8578H18.0422L17.1878 31.5864C17.1275 31.5663 17.1074 31.4792 17.1543 31.4658L17.9115 31.248H17.9417L18.7726 31.5295C18.8296 31.5496 18.853 31.6367 18.8028 31.6501H18.7961V31.6434L18.7994 31.6468Z" fill="var(--sapContent_Illustrative_Color1)"/>
<path d="M17.4358 31.1843L16.6652 31.4055H16.6384L15.8711 31.1609C15.8108 31.1408 15.7874 31.0537 15.8376 31.0369L16.6317 30.8091H16.6585L17.4023 31.0637C17.4592 31.0838 17.4827 31.1709 17.4358 31.1877V31.1843Z" fill="var(--sapContent_Illustrative_Color1)"/>
<path d="M20.8499 31.2614L22.1734 31.6936C22.227 31.7137 22.2404 31.7874 22.1968 31.8008L21.118 32.1325H21.0912L19.751 31.6769C19.6974 31.6568 19.6806 31.5831 19.7242 31.5696L20.8198 31.2581H20.8466L20.8499 31.2614Z" fill="var(--sapContent_Illustrative_Color1)"/>
<path d="M35.5684 27.0566L36.7377 27.3012L35.3238 27.7401L34.1478 27.462L35.5684 27.0566Z" fill="var(--sapContent_Illustrative_Color1)"/>
<path d="M19.8012 28.9028L19.1545 28.7219C19.1043 28.7051 19.0842 28.6281 19.1277 28.618L20.1195 28.3433H20.1396L20.7762 28.5141C20.8264 28.5275 20.8465 28.6079 20.7996 28.618L19.8179 28.8994H19.7978H19.8045L19.8012 28.9028Z" fill="var(--sapContent_Illustrative_Color1)"/>
<path d="M18.2867 29.3384L17.6669 29.1474C17.61 29.1273 17.5865 29.0369 17.6368 29.0268L18.605 28.7588H18.6285L19.2483 28.9364C19.3053 28.9531 19.3321 29.0469 19.2785 29.057L18.3069 29.3384H18.28H18.2867Z" fill="var(--sapContent_Illustrative_Color1)"/>
<path d="M18.1092 30.1825L17.3721 29.9379C17.3152 29.9178 17.2917 29.8307 17.342 29.8173L18.3136 29.5359H18.3404L19.111 29.7704C19.168 29.7905 19.1914 29.8776 19.1412 29.891L18.1394 30.1792H18.1092V30.1825Z" fill="var(--sapContent_Illustrative_Color1)"/>
<path d="M21.3056 28.4638L20.6858 28.2963C20.6356 28.2829 20.6154 28.2025 20.6624 28.1891L21.644 27.9177H21.6641L22.2605 28.0785C22.3108 28.0919 22.3275 28.1724 22.284 28.1858L21.3257 28.4605H21.3056V28.4638Z" fill="var(--sapContent_Illustrative_Color1)"/>
<path d="M14.0351 30.5745L13.3282 30.3466C13.2712 30.3265 13.2444 30.2394 13.2913 30.2294L14.1825 29.9814H14.2127L14.8828 30.2093C14.9397 30.2294 14.9632 30.3165 14.9163 30.3299L14.0653 30.5778H14.0385L14.0351 30.5745Z" fill="var(--sapContent_Illustrative_Color1)"/>
<path d="M22.7932 28.035L22.1499 27.8608C22.1164 27.8508 22.0997 27.7938 22.1332 27.7837L23.1785 27.4956H23.1919L23.8218 27.6598C23.8553 27.6698 23.8721 27.7268 23.8386 27.7368L22.8066 28.035H22.7932Z" fill="var(--sapContent_Illustrative_Color1)"/>
<path d="M15.3552 30.1895L14.6985 29.9684C14.6415 29.9482 14.6181 29.8611 14.665 29.8477L15.6601 29.573H15.6902L16.3369 29.7841C16.3938 29.8042 16.4173 29.8913 16.3704 29.9047L15.3887 30.1895H15.3585H15.3552Z" fill="var(--sapContent_Illustrative_Color1)"/>
<path d="M16.826 29.7638L16.1928 29.556C16.1358 29.5359 16.1123 29.4488 16.1593 29.4354L17.1108 29.1741H17.1376L17.7708 29.3684C17.8278 29.3885 17.8512 29.4756 17.801 29.489L16.8528 29.7671H16.8226V29.7604L16.826 29.7638Z" fill="var(--sapContent_Illustrative_Color1)"/>
<path d="M34.9353 26.926L33.766 26.6814H33.7459L32.0673 26.7283C32.0237 26.7417 32.0673 26.936 32.1142 26.9461L33.7559 27.3649H33.776L34.9453 27.0298C34.9922 27.0164 34.9788 26.9293 34.9286 26.9193V26.926H34.9353Z" fill="var(--sapContent_Illustrative_Color1)"/>
<path d="M29.5645 26.276L30.506 26.0046H30.5261L31.5212 26.2124C31.5748 26.2224 31.5882 26.3095 31.5413 26.3229L30.5495 26.6111H30.5294L29.588 26.3899C29.5344 26.3765 29.521 26.2928 29.5679 26.2794H29.5612L29.5645 26.276Z" fill="var(--sapContent_Illustrative_Color1)"/>
<path d="M28.499 26.0247L29.407 25.7734H29.4238L29.8627 25.8672C29.9163 25.8773 29.9297 25.9678 29.8828 25.9812L28.9815 26.2425H28.9614L28.5158 26.1386C28.4622 26.1252 28.4454 26.0415 28.4957 26.0281L28.499 26.0247Z" fill="var(--sapContent_Illustrative_Color1)"/>
<path d="M25.8354 27.1471L25.3261 27.0165C25.2725 27.0031 25.2558 26.9193 25.306 26.9059L26.2911 26.6345H26.3112L26.797 26.7585C26.8506 26.7719 26.864 26.8557 26.8171 26.8691L25.8555 27.1471H25.8354Z" fill="var(--sapContent_Illustrative_Color1)"/>
<path d="M24.3176 27.5927L23.7045 27.4319C23.671 27.4218 23.6543 27.3648 23.6878 27.3548L24.7331 27.0667H24.7465L25.3395 27.2208C25.373 27.2308 25.3864 27.2878 25.3563 27.2978L24.331 27.5927H24.3143H24.3176Z" fill="var(--sapContent_Illustrative_Color1)"/>
<path d="M27.3666 26.7049L26.8975 26.5876C26.8439 26.5742 26.8305 26.4905 26.8774 26.4771L27.8893 26.199H27.9094L28.3684 26.3062C28.422 26.3196 28.4387 26.4034 28.3885 26.4168L27.3867 26.7082H27.3666V26.7049Z" fill="var(--sapContent_Illustrative_Color1)"/>
<path d="M20.6657 32.2767L20.009 32.4777H19.9822L18.575 32.0288C18.518 32.0087 18.4946 31.9249 18.5448 31.9082L19.2685 31.7004H19.2953L20.6355 32.1561C20.6925 32.1762 20.7092 32.26 20.6657 32.2734V32.2767Z" fill="var(--sapContent_Illustrative_Color1)"/>
<path d="M28.8206 28.102L29.9363 28.3834C29.9698 28.3935 29.9799 28.4504 29.9464 28.4605L28.8709 28.7687H28.8575L27.7585 28.4839C27.725 28.4739 27.715 28.4169 27.7451 28.4069L28.8072 28.0986H28.8206V28.102Z" fill="var(--sapContent_Illustrative_Color1)"/>
<path d="M27.2693 28.5508L28.3716 28.8356C28.4052 28.8456 28.4152 28.9026 28.385 28.9126L27.266 29.2309H27.2526L26.1771 28.9428C26.1436 28.9327 26.1302 28.8758 26.1637 28.8657L27.2626 28.5508H27.276H27.2693Z" fill="var(--sapContent_Illustrative_Color1)"/>
<path d="M30.3618 27.6631L31.4206 27.9311C31.4675 27.9445 31.4809 28.0249 31.4373 28.0383L30.4489 28.3198H30.4288L29.3768 28.0517C29.3265 28.0383 29.3131 27.9579 29.36 27.9445L30.3417 27.6631H30.3618Z" fill="var(--sapContent_Illustrative_Color1)"/>
<path d="M33.1226 26.5476L32.1745 26.3533H32.1544L31.3737 26.5778L29.4472 27.1306C29.4036 27.144 29.417 27.2277 29.4673 27.2411L30.3418 27.4623H30.3619L32.409 26.8726L33.1428 26.6615C33.1897 26.6481 33.1763 26.561 33.1226 26.5509V26.5476Z" fill="var(--sapContent_Illustrative_Color1)"/>
<path d="M25.6946 29.0065L26.7132 29.2779C26.7601 29.2913 26.7768 29.3684 26.7333 29.3818L25.765 29.6565H25.7449L24.7364 29.3851C24.6861 29.3717 24.6727 29.2947 24.7163 29.2813L25.6812 29.0032H25.7013L25.6946 29.0065Z" fill="var(--sapContent_Illustrative_Color1)"/>
<path d="M32.0672 27.1706L33.1729 27.4286C33.2231 27.442 33.2365 27.5224 33.1896 27.5358L32.0069 27.8742H31.9868L30.9281 27.6061C30.8778 27.5927 30.8644 27.5123 30.9113 27.4989L32.0505 27.1672H32.0706L32.0672 27.1706Z" fill="var(--sapContent_Illustrative_Color1)"/>
<path d="M18.9502 30.7522L17.9149 31.0504H17.8881L17.1376 30.7924C17.0807 30.7723 17.0572 30.6885 17.1075 30.6718L18.1327 30.377H18.1595L18.9201 30.6282C18.977 30.6483 18.9971 30.7321 18.9502 30.7455V30.7522Z" fill="var(--sapContent_Illustrative_Color1)"/>
<path d="M22.6357 29.8876L23.5806 30.1523C23.6375 30.1691 23.6576 30.2595 23.6074 30.2696L22.4448 30.6013H22.418L21.52 30.3265C21.4631 30.3064 21.443 30.2193 21.4932 30.2059L22.6123 29.8843H22.6391L22.6357 29.8876Z" fill="var(--sapContent_Illustrative_Color1)"/>
<path d="M26.2945 28.0316L27.3398 27.7334H27.3532L28.2913 27.9746C28.3282 27.9847 28.3382 28.045 28.3047 28.055L27.256 28.3599H27.2426L26.3112 28.1187C26.2744 28.1087 26.2643 28.0517 26.2978 28.0383V28.0316H26.2945Z" fill="var(--sapContent_Illustrative_Color1)"/>
<path d="M27.9462 26.745L28.9714 26.4502H28.9915L29.933 26.6713C29.9866 26.6847 30 26.7685 29.9531 26.7819L28.891 27.0868H28.8709L27.9629 26.8556C27.9093 26.8422 27.8959 26.7584 27.9428 26.745H27.9495H27.9462Z" fill="var(--sapContent_Illustrative_Color1)"/>
<path d="M17.6502 30.3265L16.6384 30.618H16.6116L15.8912 30.3734C15.8343 30.3533 15.8108 30.2662 15.8577 30.2562L16.8528 29.968H16.883L17.6201 30.2126C17.677 30.2327 17.7005 30.3198 17.6502 30.3299V30.3265Z" fill="var(--sapContent_Illustrative_Color1)"/>
<path d="M21.0074 30.3569L21.9053 30.6317C21.9623 30.6518 21.9824 30.7355 21.9321 30.7523L20.8298 31.0706H20.803L19.9386 30.7891C19.8816 30.769 19.8615 30.6853 19.9084 30.6719L20.9772 30.3636H21.004L21.0074 30.3569Z" fill="var(--sapContent_Illustrative_Color1)"/>
<path d="M20.344 31.2044L19.2752 31.5126H19.2484L18.4041 31.2278C18.3471 31.2077 18.327 31.124 18.3739 31.1106L19.4226 30.8057H19.4494L20.3139 31.0871C20.3708 31.1072 20.3909 31.191 20.344 31.2044Z" fill="var(--sapContent_Illustrative_Color1)"/>
<path d="M24.2104 29.4355L25.2223 29.7069C25.2692 29.7203 25.2859 29.7974 25.2424 29.8074L24.1367 30.1224H24.1166L23.1349 29.8443C23.0847 29.8276 23.0679 29.7538 23.1148 29.7438L24.1903 29.4355H24.2104Z" fill="var(--sapContent_Illustrative_Color1)"/>
<path d="M21.7177 29.3485L22.7597 29.0503H22.7798L23.6509 29.2848C23.7012 29.2982 23.7179 29.3753 23.671 29.3887L22.6123 29.6936H22.5922L21.7412 29.4523C21.6909 29.4356 21.6742 29.3619 21.7177 29.3485Z" fill="var(--sapContent_Illustrative_Color1)"/>
<path d="M20.153 29.8007L21.2117 29.4924H21.2385L22.0527 29.7236C22.1097 29.7404 22.1331 29.8308 22.0795 29.8442L20.9873 30.1592H20.9604L20.1798 29.9179C20.1228 29.8978 20.0994 29.8107 20.1496 29.7973L20.153 29.8007Z" fill="var(--sapContent_Illustrative_Color1)"/>
<path d="M23.2824 28.8992L24.2473 28.6211H24.2674L25.1385 28.8556C25.1888 28.869 25.2022 28.9461 25.1586 28.9595L24.2004 29.2376H24.1803L23.3125 29.003C23.2623 28.9896 23.2455 28.9126 23.2924 28.8992H23.2857H23.2824Z" fill="var(--sapContent_Illustrative_Color1)"/>
<path d="M24.7265 28.484L25.802 28.1758H25.8154L26.7535 28.4204C26.787 28.4304 26.8004 28.4874 26.7669 28.4974L25.6813 28.809H25.6679L24.7432 28.5611C24.7097 28.551 24.6963 28.4941 24.7265 28.484Z" fill="var(--sapContent_Illustrative_Color1)"/>
<path d="M27.3297 27.529L26.4351 27.3012C26.3848 27.2878 26.3681 27.204 26.415 27.1906L27.3833 26.9092H27.4034L28.3114 27.1404C28.365 27.1538 28.3784 27.2375 28.3315 27.2509L27.3598 27.5324H27.3364L27.3297 27.529Z" fill="var(--sapContent_Illustrative_Color1)"/>
<path d="M18.6152 30.2397L19.637 29.9448H19.6639L20.4512 30.1894C20.5082 30.2095 20.5316 30.2966 20.4814 30.3067L19.436 30.6082H19.4092L18.6487 30.3569C18.5917 30.3368 18.5716 30.2497 18.6185 30.2363L18.6152 30.2397Z" fill="var(--sapContent_Illustrative_Color1)"/>
<path d="M29.7923 27.623L28.8173 27.9044H28.7972L27.9194 27.6799C27.8692 27.6665 27.8524 27.5861 27.8993 27.5727L28.8743 27.2913H28.8944L29.7722 27.5124C29.8225 27.5258 29.8359 27.6062 29.789 27.6196H29.7957L29.7923 27.623Z" fill="var(--sapContent_Illustrative_Color1)"/>
<path d="M24.2339 28.4236L23.3025 28.1723C23.269 28.1623 23.2522 28.1053 23.2857 28.0952L24.3311 27.7937H24.3445L25.296 28.0416C25.3295 28.0517 25.3429 28.1086 25.3127 28.1187L24.2506 28.4236H24.2372H24.2339Z" fill="var(--sapContent_Illustrative_Color1)"/>
<path d="M22.7429 28.8526L21.8752 28.6215C21.8249 28.6081 21.8081 28.5276 21.8517 28.5176L22.8099 28.2395H22.83L23.7011 28.474C23.7514 28.4874 23.7682 28.5678 23.7213 28.5779L22.763 28.856H22.7396L22.7429 28.8526Z" fill="var(--sapContent_Illustrative_Color1)"/>
<path d="M25.7919 27.9746L24.78 27.7099C24.7566 27.7032 24.7499 27.6697 24.7733 27.6663L25.8522 27.3547H25.8756L26.8942 27.6161C26.9143 27.6228 26.9243 27.6563 26.9009 27.6596L25.8053 27.9746H25.7952H25.7919Z" fill="var(--sapContent_Illustrative_Color1)"/>
<path d="M21.195 29.2949L20.3507 29.057C20.3005 29.0403 20.2804 28.9666 20.3273 28.9532L21.3257 28.665H21.3458L22.2136 28.8962C22.2638 28.9096 22.2806 28.9867 22.237 29.0001L21.2151 29.2949H21.195Z" fill="var(--sapContent_Illustrative_Color1)"/>
<path d="M19.6203 29.7505L18.853 29.5159C18.7961 29.4958 18.7726 29.4087 18.8229 29.3953L19.8246 29.1072H19.8514L20.6556 29.335C20.7125 29.3518 20.736 29.4422 20.6857 29.4556L19.6538 29.7538H19.627L19.6203 29.7505Z" fill="var(--sapContent_Illustrative_Color1)"/>
<path d="M31.9935 27.9814L33.0154 28.2428C33.0623 28.2562 33.0757 28.3366 33.0322 28.35L32.0773 28.6448H32.0572L30.9951 28.3734C30.9482 28.36 30.9314 28.2796 30.9783 28.2662L31.9734 27.9848H31.9935V27.9814Z" fill="var(--sapContent_Illustrative_Color27)"/>
<path d="M33.7659 27.4722L34.7443 27.7033C34.7945 27.7168 34.8046 27.7972 34.761 27.8106L33.5716 28.1791H33.5515L32.5564 27.9245C32.5095 27.9111 32.4961 27.8307 32.5397 27.8173L33.7458 27.4722H33.7659Z" fill="var(--sapContent_Illustrative_Color27)"/>
<path d="M22.4346 30.7053L23.8016 31.1241C23.8385 31.1341 23.8485 31.1911 23.8184 31.1978L22.6223 31.5663H22.6022L21.2352 31.1174C21.2017 31.1073 21.1883 31.047 21.2151 31.0436L22.4112 30.7019H22.4346V30.7053Z" fill="var(--sapContent_Illustrative_Color27)"/>
<path d="M31.5312 28.7017L30.4423 28.4236H30.4222L29.9632 28.5543L29.7153 28.6246L29.3936 28.7184L28.0936 29.0903L26.3682 29.5828L25.1385 29.9346C25.1385 29.9346 24.8873 29.9782 24.12 30.2261L22.887 30.5779C22.8468 30.588 22.8636 30.6583 22.9071 30.6717L24.2205 31.0738H24.2406L26.4988 30.3735L27.5542 30.0486L28.9849 29.6029L30.9348 28.9965L31.5513 28.8089C31.5949 28.7955 31.5815 28.7151 31.5346 28.7017H31.5312Z" fill="var(--sapContent_Illustrative_Color27)"/>
<path d="M16.1325 30.6618L15.325 30.8929H15.2982L14.5678 30.6584C14.5075 30.6383 14.4841 30.5512 14.531 30.5344L15.3585 30.2932H15.3887L16.099 30.5344C16.1559 30.5545 16.1828 30.6417 16.1325 30.6584V30.6618Z" fill="var(--sapContent_Illustrative_Color27)"/>
<path d="M18.776 31.5529L18.0456 31.764H18.0188L17.1644 31.4893C17.1041 31.4692 17.084 31.3821 17.1309 31.3687L17.8881 31.1509H17.9183L18.7525 31.4323C18.8095 31.4524 18.8329 31.5395 18.7827 31.5529H18.776Z" fill="var(--sapContent_Illustrative_Color27)"/>
<path d="M17.4123 31.094L16.6417 31.3151H16.6149L15.8476 31.0705C15.7873 31.0504 15.7639 30.9633 15.8141 30.9466L16.6082 30.7188H16.635L17.3788 30.9734C17.4358 30.9935 17.4592 31.0806 17.4123 31.0974V31.094Z" fill="var(--sapContent_Illustrative_Color27)"/>
<path d="M20.8264 31.1676L22.1499 31.5998C22.2035 31.6199 22.2169 31.6936 22.1733 31.707L21.0945 32.0387H21.0677L19.7241 31.583C19.6705 31.5629 19.6538 31.4892 19.6973 31.4758L20.7929 31.1609H20.8231V31.1676H20.8264Z" fill="var(--sapContent_Illustrative_Color27)"/>
<path d="M35.5585 26.9561L36.7311 27.2006L35.3139 27.6395L34.1345 27.3615L35.5551 26.9561H35.5585Z" fill="var(--sapContent_Illustrative_Color27)"/>
<path d="M19.7778 28.8022L19.1312 28.6213C19.0809 28.6045 19.0608 28.5275 19.1044 28.5174L20.0961 28.2427H20.1162L20.7561 28.4135C20.8064 28.427 20.8265 28.5074 20.7796 28.5174L19.7979 28.8022H19.7778Z" fill="var(--sapContent_Illustrative_Color27)"/>
<path d="M18.2634 29.241L17.6435 29.05C17.5866 29.0299 17.5631 28.9395 17.6134 28.9294L18.585 28.6614H18.6085L19.2283 28.839C19.2853 28.8557 19.3121 28.9495 19.2585 28.9596L18.2835 29.241H18.2567H18.2634Z" fill="var(--sapContent_Illustrative_Color27)"/>
<path d="M18.0824 30.0922L17.3453 29.8476C17.2884 29.8275 17.2649 29.7404 17.3152 29.727L18.2868 29.4456H18.3136L19.0842 29.6801C19.1412 29.7002 19.1646 29.7873 19.1144 29.8007L18.1126 30.0922H18.0824Z" fill="var(--sapContent_Illustrative_Color27)"/>
<path d="M21.2821 28.3667L20.659 28.1992C20.6087 28.1858 20.5886 28.1053 20.6355 28.0919L21.6172 27.8206H21.6373L22.2337 27.9814C22.2839 27.9948 22.3007 28.0752 22.2571 28.0886L21.2989 28.3667H21.2788H21.2821Z" fill="var(--sapContent_Illustrative_Color27)"/>
<path d="M14.0083 30.4773L13.3014 30.2495C13.2444 30.2294 13.2176 30.1423 13.2645 30.1322L14.1591 29.8843H14.1892L14.8593 30.1121C14.9163 30.1322 14.9397 30.2193 14.8928 30.2294L14.0418 30.4773H14.0117H14.0083Z" fill="var(--sapContent_Illustrative_Color27)"/>
<path d="M22.7697 27.9378L22.1264 27.7636C22.0929 27.7535 22.0762 27.6966 22.1097 27.6865L23.1584 27.395H23.1718L23.8017 27.5592C23.8352 27.5692 23.8519 27.6262 23.8184 27.6363L22.7865 27.9344H22.7697V27.9378Z" fill="var(--sapContent_Illustrative_Color27)"/>
<path d="M15.3283 30.0921L14.6716 29.8709C14.6147 29.8508 14.5912 29.7637 14.6381 29.7503L15.6332 29.4756H15.6634L16.31 29.69C16.367 29.7101 16.3904 29.7972 16.3435 29.8106L15.3618 30.0988H15.3317V30.0921H15.3283Z" fill="var(--sapContent_Illustrative_Color27)"/>
<path d="M16.7992 29.6666L16.166 29.4589C16.109 29.4388 16.0856 29.3516 16.1325 29.3382L17.084 29.0769H17.1108L17.744 29.2712C17.801 29.2913 17.8244 29.3784 17.7742 29.3918L16.8227 29.6699H16.7925L16.7992 29.6632V29.6666Z" fill="var(--sapContent_Illustrative_Color27)"/>
<path d="M29.5477 26.1754L30.4892 25.9041H30.5093L31.5044 26.1118C31.558 26.1218 31.5714 26.2089 31.5245 26.2223L30.5328 26.5105H30.5127L29.5712 26.2894C29.5176 26.276 29.5042 26.1922 29.5511 26.1788H29.5444L29.5477 26.1754Z" fill="var(--sapContent_Illustrative_Color27)"/>
<path d="M28.4856 25.9241L29.3936 25.6729H29.4103L29.8492 25.7667C29.9028 25.7767 29.9162 25.8672 29.8693 25.8806L28.9647 26.1419H28.9446L28.499 26.0381C28.4454 26.0246 28.4286 25.9409 28.4789 25.9241H28.4856Z" fill="var(--sapContent_Illustrative_Color27)"/>
<path d="M25.8187 27.0499L25.306 26.9192C25.2524 26.9058 25.239 26.8221 25.2859 26.8087L26.2743 26.5339H26.2944L26.7802 26.6579C26.8339 26.6713 26.8473 26.7551 26.8003 26.7685L25.8388 27.0499H25.8187Z" fill="var(--sapContent_Illustrative_Color27)"/>
<path d="M24.2941 27.4923L23.6777 27.3314C23.6441 27.3214 23.6274 27.2644 23.6609 27.2544L24.7062 26.9629H24.7196L25.3127 27.117C25.3462 27.1271 25.3596 27.1874 25.3294 27.1974L24.3042 27.4923H24.2908H24.2941Z" fill="var(--sapContent_Illustrative_Color27)"/>
<path d="M27.3465 26.6011L26.8774 26.4839C26.8238 26.4705 26.8104 26.3867 26.8573 26.3733L27.8691 26.0952H27.8892L28.3482 26.2024C28.4019 26.2158 28.4186 26.2996 28.3683 26.313L27.3666 26.6078H27.3465V26.6011Z" fill="var(--sapContent_Illustrative_Color27)"/>
<path d="M20.6422 32.1863L19.9855 32.3907H19.9587L18.5515 31.9417C18.4945 31.9216 18.4711 31.8378 18.5213 31.8244L19.245 31.6167H19.2718L20.612 32.0724C20.669 32.0925 20.6857 32.1762 20.6422 32.1896V32.1863Z" fill="var(--sapContent_Illustrative_Color27)"/>
<path d="M28.8039 28.0083L29.9196 28.2931C29.9532 28.3031 29.9632 28.3601 29.9297 28.3702L28.8542 28.6784H28.8408L27.7385 28.3936C27.705 28.3836 27.6916 28.3266 27.7251 28.3165L28.7872 28.0083H28.8039Z" fill="var(--sapContent_Illustrative_Color27)"/>
<path d="M27.2493 28.4538L28.3516 28.7386C28.3851 28.7486 28.3952 28.8056 28.365 28.8156L27.2426 29.1373H27.2292L26.1537 28.8491C26.1202 28.8391 26.1068 28.7821 26.1403 28.7721L27.2393 28.4571H27.2527V28.4504L27.2493 28.4538Z" fill="var(--sapContent_Illustrative_Color27)"/>
<path d="M30.3485 27.5625L31.4072 27.8305C31.4575 27.8439 31.4709 27.9243 31.424 27.9378L30.4356 28.2192H30.4155L29.3634 27.9512C29.3132 27.9378 29.2998 27.8573 29.3467 27.8439L30.3284 27.5625H30.3485Z" fill="var(--sapContent_Illustrative_Color27)"/>
<path d="M34.9286 26.8254L33.7593 26.5808C33.7593 26.5808 32.9082 26.3999 32.9015 26.3999L32.1577 26.2424H32.1376L31.3469 26.4703L29.4271 27.0264C29.3836 27.0398 29.397 27.1236 29.4472 27.137L30.3217 27.3581H30.3418L32.0907 26.8522L33.7459 27.271H33.766L34.9386 26.936C34.9855 26.9226 34.9721 26.8355 34.9219 26.8254H34.9286Z" fill="var(--sapContent_Illustrative_Color27)"/>
<path d="M25.678 28.9095L26.6965 29.1809C26.7434 29.1943 26.7602 29.2714 26.7166 29.2848L25.7483 29.5595H25.7282L24.7164 29.2848C24.6661 29.2714 24.6527 29.1943 24.6963 29.1809L25.6612 28.9028H25.6813V28.9095H25.678Z" fill="var(--sapContent_Illustrative_Color27)"/>
<path d="M32.0539 27.07L33.1596 27.328C33.2098 27.3414 33.2232 27.4251 33.1763 27.4352L31.9936 27.7736H31.9735L30.9147 27.5056C30.8645 27.4922 30.8511 27.4117 30.8946 27.3983L32.0372 27.0667H32.0573L32.0539 27.07Z" fill="var(--sapContent_Illustrative_Color27)"/>
<path d="M18.9267 30.655L17.8914 30.9532H17.8646L17.1141 30.6952C17.0572 30.6751 17.0337 30.5914 17.084 30.5746L18.1092 30.2798H18.1394L18.9033 30.5311C18.9602 30.5512 18.9803 30.6349 18.9334 30.6517H18.9267V30.655Z" fill="var(--sapContent_Illustrative_Color27)"/>
<path d="M22.6156 29.7939L23.5604 30.062C23.6174 30.0787 23.6375 30.1692 23.5872 30.1826L22.4246 30.5143H22.3978L21.4999 30.2362C21.4429 30.2161 21.4228 30.129 21.4731 30.1189L22.5921 29.7973H22.6189L22.6156 29.7939Z" fill="var(--sapContent_Illustrative_Color27)"/>
<path d="M26.2777 27.9344L27.323 27.6328H27.3364L28.2779 27.874C28.3148 27.8841 28.3248 27.9444 28.2913 27.9545L27.2393 28.2593H27.2259L26.2944 28.0181C26.2576 28.0081 26.2475 27.9478 26.281 27.9377L26.2777 27.9344Z" fill="var(--sapContent_Illustrative_Color27)"/>
<path d="M27.9294 26.6481L28.9547 26.3533H28.9748L29.9162 26.5744C29.9699 26.5878 29.9833 26.6716 29.9364 26.685L28.8743 26.9932H28.8542L27.9462 26.762C27.8926 26.7486 27.8792 26.6649 27.9261 26.6515H27.9328L27.9294 26.6481Z" fill="var(--sapContent_Illustrative_Color27)"/>
<path d="M17.6234 30.2294L16.6116 30.5208H16.5848L15.8644 30.2763C15.8075 30.2562 15.784 30.169 15.8309 30.159L16.826 29.8708H16.8562L17.5966 30.1154C17.6536 30.1355 17.677 30.2226 17.6268 30.2327L17.6234 30.2294Z" fill="var(--sapContent_Illustrative_Color27)"/>
<path d="M20.9873 30.2632L21.8886 30.5379C21.9455 30.558 21.9656 30.6418 21.9154 30.6552L20.8097 30.9735H20.7829L19.9185 30.692C19.8615 30.6719 19.8414 30.5882 19.8883 30.5748L20.9571 30.2665H20.9839L20.9873 30.2632Z" fill="var(--sapContent_Illustrative_Color27)"/>
<path d="M20.3239 31.114L19.2551 31.4222H19.2283L18.384 31.1374C18.3271 31.1173 18.307 31.0336 18.3539 31.0168L19.4026 30.7119H19.4294L20.2971 30.9934C20.3541 31.0135 20.3742 31.0972 20.3273 31.1106L20.3239 31.114Z" fill="var(--sapContent_Illustrative_Color27)"/>
<path d="M24.1903 29.3384L25.2022 29.6098C25.2491 29.6232 25.2658 29.7002 25.2223 29.7136L24.1166 30.0286H24.0965L23.1149 29.7505C23.0646 29.7337 23.0478 29.66 23.0947 29.6466L24.1702 29.3384H24.1937H24.1903Z" fill="var(--sapContent_Illustrative_Color27)"/>
<path d="M21.6976 29.2511L22.7396 28.9529H22.7597L23.6308 29.1874C23.6811 29.2008 23.6978 29.2779 23.6509 29.2913L22.5922 29.5995H22.5721L21.721 29.3583C21.6708 29.3415 21.654 29.2678 21.6976 29.2544V29.2511Z" fill="var(--sapContent_Illustrative_Color27)"/>
<path d="M20.1262 29.7035L21.1883 29.3953H21.2151L22.0293 29.6264C22.0863 29.6432 22.1097 29.7337 22.0561 29.7471L20.9605 30.062H20.9337L20.1497 29.8208C20.0927 29.8007 20.0693 29.7136 20.1195 29.7002H20.1262V29.7035Z" fill="var(--sapContent_Illustrative_Color27)"/>
<path d="M23.2622 28.8023L24.2272 28.5242H24.2473L25.1184 28.7587C25.1686 28.7721 25.182 28.8492 25.1385 28.8626L24.1769 29.1407H24.1568L23.2857 28.9061C23.2354 28.8927 23.2187 28.8157 23.2656 28.8023H23.2622Z" fill="var(--sapContent_Illustrative_Color27)"/>
<path d="M24.7063 28.3869L25.7818 28.0786H25.7952L26.7367 28.3232C26.7702 28.3332 26.7836 28.3902 26.7501 28.4003L25.6612 28.7152H25.6478L24.7231 28.4639C24.6896 28.4539 24.6762 28.3969 24.7063 28.3869Z" fill="var(--sapContent_Illustrative_Color27)"/>
<path d="M27.3096 27.4286L26.4117 27.1974C26.3614 27.184 26.3447 27.1003 26.3916 27.0869L27.3598 26.8054H27.3799L28.2879 27.0366C28.3415 27.05 28.3549 27.1338 28.308 27.1472L27.333 27.4286H27.3129H27.3096Z" fill="var(--sapContent_Illustrative_Color27)"/>
<path d="M18.5917 30.1459L19.617 29.8511H19.6438L20.4311 30.0957C20.4881 30.1158 20.5115 30.2029 20.4613 30.2129L19.4126 30.5145H19.3858L18.6252 30.2632C18.5683 30.2431 18.5482 30.156 18.5951 30.1426L18.5917 30.1459Z" fill="var(--sapContent_Illustrative_Color27)"/>
<path d="M29.7755 27.5224L28.8006 27.8038H28.7805L27.9026 27.5793C27.8524 27.5659 27.8356 27.4855 27.8825 27.4721L28.8609 27.1907H28.881L29.7588 27.4152C29.809 27.4286 29.8224 27.509 29.7755 27.5224Z" fill="var(--sapContent_Illustrative_Color27)"/>
<path d="M24.2138 28.3232L23.2823 28.072C23.2488 28.0619 23.2321 28.005 23.2656 27.9949L24.3109 27.6934H24.3243L25.2759 27.9413C25.3094 27.9513 25.3228 28.0083 25.2926 28.0184L24.2305 28.3266H24.2171V28.3199L24.2138 28.3232Z" fill="var(--sapContent_Illustrative_Color27)"/>
<path d="M22.7228 28.752L21.855 28.5208C21.8048 28.5074 21.788 28.427 21.8316 28.4169L22.7898 28.1355H22.8099L23.681 28.37C23.7313 28.3834 23.748 28.4638 23.7011 28.4739L22.7395 28.752H22.7194H22.7228Z" fill="var(--sapContent_Illustrative_Color27)"/>
<path d="M25.7717 27.8742L24.7599 27.6095C24.7364 27.6028 24.7297 27.5693 24.7532 27.566L25.8354 27.2544H25.8588L26.8774 27.5157C26.8975 27.5224 26.9075 27.5559 26.8841 27.5593L25.7885 27.8776H25.7751L25.7717 27.8742Z" fill="var(--sapContent_Illustrative_Color27)"/>
<path d="M21.1716 29.2009L20.3273 28.9596C20.277 28.9429 20.2569 28.8692 20.3038 28.8558L21.3023 28.5676H21.3224L22.1901 28.8022C22.2404 28.8156 22.2572 28.8926 22.2136 28.906L21.1917 29.2009H21.1716Z" fill="var(--sapContent_Illustrative_Color27)"/>
<path d="M19.5969 29.6533L18.8296 29.4188C18.7727 29.3987 18.7492 29.3116 18.7995 29.2981L19.8013 29.01H19.8281L20.6322 29.2378C20.6891 29.2546 20.7126 29.3451 20.6623 29.3585L19.627 29.6533H19.6002H19.5969Z" fill="var(--sapContent_Illustrative_Color27)"/>
<path d="M18.6726 20.8788H18.6606C18.5168 20.9117 18.3791 20.8548 18.2743 20.747L16.1241 18.4291C15.9295 18.2165 15.9265 17.8661 16.1241 17.6445C16.3218 17.4259 16.6362 17.4169 16.8279 17.6296L18.5318 19.4893L21.7481 13.9132C21.8799 13.6856 22.1494 13.6287 22.347 13.7964C22.5417 13.9551 22.6016 14.2725 22.4698 14.5001L19.002 20.6272C18.9271 20.759 18.8043 20.8518 18.6696 20.8818H18.6756L18.6726 20.8788Z" fill="var(--sapContent_Illustrative_Color9)"/>
</g>
<defs>
<clipPath id="clip0_31411_12412">
<rect width="45" height="29.8794" fill="var(--sapContent_Illustrative_Color8)" transform="translate(0 7.5603)"/>
</clipPath>
</defs>
</svg>
