<svg width="128" height="128" viewBox="0 0 128 128" fill="none" xmlns="http://www.w3.org/2000/svg" id="sapIllus-Spot-NoSavedItems">
<rect y="40" width="128" height="55" rx="8" fill="var(--sapContent_Illustrative_Color20)"/>
<path d="M101.762 63.771C99.4658 62.573 96.5376 61.7462 93.7281 61.3749C93.7166 61.3749 93.7051 61.3749 93.6936 61.3711C93.5137 61.3481 93.3338 61.3252 93.1539 61.306C93.1424 61.306 93.1309 61.306 93.1156 61.3022C92.553 61.2409 91.9903 61.1988 91.4429 61.172C91.4161 61.172 91.3855 61.172 91.3587 61.172C91.2094 61.1644 91.064 61.1606 90.9185 61.1567C90.8764 61.1567 90.8382 61.1567 90.7961 61.1567C90.6583 61.1567 90.5205 61.1567 90.3865 61.1567C90.3482 61.1567 90.3099 61.1567 90.2678 61.1567C90.1071 61.1567 89.9463 61.1606 89.7855 61.1644C89.7779 61.1644 89.7664 61.1644 89.7588 61.1644C89.5903 61.1682 89.4257 61.1759 89.2612 61.1874C87.7722 61.2601 87.0411 61.3252 85.8277 61.5051C85.5177 61.5433 85.2076 61.5893 84.9129 61.6467C81.7015 62.2706 80.3733 63.8438 81.334 65.6619C79.4814 66.0064 77.0126 66.5002 74.4289 67.0361C73.1007 66.7145 71.7265 66.481 70.3486 66.3433C70.3218 66.3433 70.3064 66.3356 70.2758 66.3318C68.006 66.037 65.3573 66.0447 62.8616 66.2131C62.8425 66.2131 62.8233 66.2131 62.8042 66.2131C61.1277 66.3126 60.3277 66.3777 58.2454 66.6801C57.6368 66.7681 57.0129 66.9021 56.4196 67.0322C53.9393 67.5758 51.9068 68.437 50.4101 69.5164C50.1307 69.7154 49.8704 69.926 49.6293 70.1403C49.3881 70.3547 49.1623 70.5805 48.9556 70.814C48.8523 70.9288 48.7566 71.0475 48.6609 71.1661C48.4733 71.4073 48.3087 71.6523 48.1633 71.9049C47.2178 73.5623 47.2102 75.4838 48.4274 77.4282C48.259 77.478 48.0829 77.5316 47.8877 77.5852C47.8877 77.5852 47.88 77.5852 47.8762 77.5852C47.7461 77.6234 47.6044 77.6656 47.4628 77.7077C47.4437 77.7153 47.4207 77.7191 47.4016 77.7268C47.2714 77.7651 47.1375 77.8033 46.9958 77.8455C46.969 77.8531 46.9422 77.8608 46.9155 77.8684C46.77 77.9105 46.6207 77.9565 46.4638 78.0024C46.4446 78.0062 46.4293 78.0139 46.414 78.0177C46.2418 78.0675 46.0657 78.121 45.8858 78.1746C45.1279 78.3966 44.2973 78.6454 43.4284 78.9057C43.4208 78.9057 43.4131 78.9095 43.4055 78.9134C43.2026 78.9746 42.9959 79.0359 42.7892 79.0971C42.7586 79.1048 42.728 79.1162 42.6935 79.1239C42.5098 79.1775 42.3261 79.2349 42.1423 79.2885C42.0926 79.3038 42.0428 79.3191 41.993 79.3344C41.8285 79.3842 41.6639 79.4339 41.4993 79.4837C41.4266 79.5067 41.3577 79.5258 41.2849 79.5488C41.1318 79.5947 40.9749 79.6406 40.8218 79.6866C40.7567 79.7057 40.6916 79.7248 40.6304 79.744C40.4658 79.7937 40.2974 79.8435 40.1328 79.8933C40.0716 79.9124 40.0103 79.9315 39.9491 79.9469C39.773 80.0004 39.5969 80.054 39.4247 80.1076C39.3787 80.1229 39.329 80.1344 39.283 80.1497C38.8314 80.2875 38.3835 80.4253 37.9434 80.5593C37.9242 80.5631 37.9051 80.5708 37.8898 80.5746C37.6946 80.6358 37.4993 80.6933 37.308 80.7545C37.2505 80.7736 37.1931 80.7889 37.1357 80.8081C36.9864 80.854 36.841 80.8999 36.6955 80.9421C36.619 80.965 36.5463 80.988 36.4735 81.011C36.3434 81.0492 36.2171 81.0913 36.0908 81.1296C36.018 81.1526 35.9415 81.1755 35.8688 81.1985C35.7463 81.2368 35.6276 81.2751 35.5051 81.3133C35.4286 81.3363 35.3558 81.3593 35.2831 81.3822C35.1721 81.4167 35.0611 81.4511 34.9501 81.4856C34.8774 81.5086 34.8047 81.5315 34.7358 81.5545C34.6248 81.5889 34.5176 81.6234 34.4104 81.6578C34.3492 81.677 34.2841 81.6999 34.2228 81.7191C34.1042 81.7573 33.9932 81.7918 33.8822 81.8301C33.8362 81.8454 33.7865 81.8607 33.7444 81.876C33.5913 81.9258 33.442 81.9755 33.3042 82.0215C32.7186 82.2167 32.2057 82.3966 31.754 82.565C30.6133 82.9899 29.8708 83.342 29.3885 83.6176C29.2928 83.675 29.2047 83.7286 29.1282 83.7784C28.9751 83.8779 28.8603 83.9698 28.776 84.0501C28.6038 84.2109 28.554 84.3257 28.5464 84.4061C28.5464 84.4444 28.5502 84.475 28.5617 84.498C28.5617 84.498 28.5617 84.498 28.5617 84.5018C28.5655 84.5133 28.5732 84.5209 28.5847 84.5324C28.7607 84.7315 29.7062 85.1563 32.8066 84.3908C35.6467 83.6865 46.4446 80.6511 50.2226 79.6024C51.2675 80.5861 52.9326 81.7038 55.9679 82.8061C56.0253 82.8291 56.0866 82.8482 56.1478 82.8712C56.2856 82.921 56.4196 82.9707 56.5651 83.0205C56.9057 83.1391 57.254 83.254 57.6062 83.3612C57.6138 83.3612 57.6253 83.3688 57.633 83.3688C57.9047 83.4492 58.1803 83.5296 58.4559 83.6061C58.4789 83.6138 58.5057 83.6176 58.5325 83.6253C58.7813 83.6942 59.0339 83.7554 59.2904 83.8166C59.3325 83.8281 59.3784 83.8358 59.4205 83.8473C59.6578 83.9047 59.899 83.9583 60.1401 84.008C60.1975 84.0195 60.2549 84.031 60.3124 84.0425C60.542 84.0884 60.7717 84.1343 61.0052 84.1764C61.0741 84.1879 61.143 84.1994 61.2119 84.2109C61.4339 84.2492 61.6559 84.2875 61.8779 84.3181C61.9583 84.3296 62.0386 84.341 62.1152 84.3525C62.3295 84.3831 62.5439 84.4138 62.7582 84.4406C62.8463 84.452 62.9343 84.4635 63.0224 84.4712C63.2291 84.4941 63.4396 84.5171 63.6463 84.5362C63.742 84.5439 63.8377 84.5554 63.9333 84.563C64.1362 84.5822 64.3391 84.5975 64.542 84.609C64.6453 84.6166 64.7448 84.6243 64.8482 84.6281C65.0434 84.6396 65.2424 84.6472 65.4376 84.6549C65.5448 84.6587 65.652 84.6626 65.7592 84.6664C65.9505 84.6702 66.1419 84.674 66.3333 84.6779C66.4443 84.6779 66.5553 84.6779 66.6701 84.6779C66.8577 84.6779 67.0453 84.6779 67.2328 84.6702C67.3476 84.6702 67.4625 84.6702 67.5773 84.6626C67.761 84.6587 67.9448 84.6473 68.1285 84.6396C68.2433 84.6358 68.362 84.6281 68.4768 84.6243C68.6605 84.6128 68.8404 84.5975 69.0203 84.586C69.1352 84.5784 69.25 84.5707 69.3648 84.5592C69.5486 84.5439 69.7323 84.5209 69.916 84.5018C70.0232 84.4903 70.1342 84.4788 70.2414 84.4674C70.4404 84.4444 70.6318 84.4138 70.827 84.387C70.9189 84.3755 71.0107 84.364 71.1026 84.3487C71.3859 84.3028 71.6691 84.2568 71.9485 84.2032V84.2185H71.9447C73.3303 84.0119 75.1867 83.6138 77.0929 82.9554C77.2652 82.898 77.4374 82.8368 77.6059 82.7717C78.2872 82.5191 78.9723 82.2358 79.6307 81.9181C79.7953 81.8377 79.9561 81.7573 80.1168 81.6731C81.2307 81.0913 82.2565 80.41 83.0948 79.6138C84.0249 78.7296 84.7139 77.7115 85.0239 76.5517C85.0775 76.3794 85.1158 76.2072 85.1426 76.0311C85.1502 75.9814 85.1579 75.9316 85.1617 75.8857C85.1808 75.7517 85.1885 75.6139 85.1923 75.4799C85.1923 75.4378 85.1923 75.3919 85.1923 75.3498C85.1923 74.9938 85.1387 74.634 85.0392 74.2704C85.0316 74.2359 85.0201 74.2015 85.0086 74.167C84.9588 74.0063 84.9014 73.8455 84.8363 73.6809C84.8287 73.6618 84.821 73.6427 84.8134 73.6273C84.6871 73.3326 84.5263 73.034 84.3387 72.7431C86.7808 71.813 88.8975 70.9901 90.0956 70.5269C93.1156 71.2503 96.3118 71.4838 98.8878 71.0743C98.8878 71.0743 98.9222 71.0704 98.9375 71.0666C98.9605 71.0666 98.9835 71.059 99.0026 71.0551C101.024 70.7489 103.137 70.1709 104.247 69.4399C104.247 69.4399 104.25 69.4399 104.254 69.436C104.327 69.3863 104.396 69.3365 104.461 69.2867C104.492 69.2638 104.522 69.237 104.553 69.2102C104.568 69.1987 104.583 69.1872 104.595 69.1757C104.595 69.1757 104.599 69.1681 104.603 69.1643C104.706 69.0762 104.802 68.9844 104.886 68.8887C105.054 68.6973 105.181 68.4906 105.261 68.2801C105.399 67.9317 105.418 67.5605 105.322 67.1777C105.303 67.1011 105.28 67.0246 105.253 66.948C104.882 65.8954 103.688 64.7777 101.751 63.7634L101.762 63.771Z" fill="var(--sapContent_Illustrative_Color21)"/>
<path d="M70.4978 58.0572C67.6002 52.8898 63.2482 49.3147 58.8693 47.9597C58.8387 47.9483 58.8195 47.9291 58.7889 47.9176C54.5938 46.3024 49.3498 46.976 45.7709 48.3004C45.1432 48.5109 44.5308 48.7597 43.9413 49.0889C36.8907 53.0429 35.6276 64.1815 41.1165 73.9727C46.1154 82.8874 54.9918 87.584 61.8625 85.3639V85.3907C65.0587 84.6137 71.5045 81.4635 73.1887 72.7057C74.1188 68.3575 73.2767 63.014 70.4978 58.0572Z" fill="var(--sapContent_Illustrative_Color28)"/>
<path d="M41.4876 72.0854C41.4876 72.0854 32.6648 77.9686 29.6141 80.3647C26.5635 82.7609 26.9463 83.9015 27.107 84.1733C27.2678 84.4451 28.2477 85.3139 30.4792 84.1733C32.7069 83.0326 42.3833 77.161 43.7996 76.3457C45.212 75.5304 41.4876 72.0854 41.4876 72.0854Z" fill="var(--sapContent_Illustrative_Color22)"/>
<path d="M61.8623 85.3621V85.3889C65.0585 84.6119 71.5043 81.4617 73.1885 72.704C73.8162 69.7681 73.6325 66.3768 72.5952 62.9587L55.5104 56.043C55.5104 56.043 50.3213 62.6374 59.2283 72.0382C64.1698 77.2515 59.5236 85.4464 50.207 83.5134C54.0768 85.7832 58.2452 86.5334 61.8623 85.366V85.3621Z" fill="var(--sapContent_Illustrative_Color16)"/>
<path d="M73.1309 45.7569C70.2946 46.7483 63.7263 49.9061 58.3714 52.574C55.137 54.1778 53.2882 59.6858 55.8566 64.2178C59.0106 69.7794 65.6248 70.5297 67.8564 68.8225C73.5788 64.4513 80.3117 59.0275 80.3117 59.0275L81.5518 56.5471C81.5518 56.5471 75.9711 44.7617 73.1347 45.7531L73.1309 45.7569Z" fill="var(--sapContent_Illustrative_Color29)"/>
<path d="M30.3338 81.4477C33.8284 79.3846 42.7201 74.5119 42.7201 74.5119L41.2197 72.2612C39.7346 73.2564 32.3509 78.2095 29.6141 80.3606C26.5635 82.7567 26.9463 83.8974 27.107 84.1692C27.1912 84.307 27.486 84.5979 28.0448 84.705C28.0448 84.705 26.8391 83.5108 30.3338 81.4477Z" fill="var(--sapContent_Illustrative_Color17)"/>
<path d="M92.7669 56.8778C94.3362 53.1764 94.0989 48.0282 91.7372 43.1402C91.5497 42.7498 91.3468 42.3709 91.1401 41.9996C91.0904 41.9116 91.0406 41.8273 90.9908 41.7393C90.8033 41.4101 90.6081 41.0924 90.4052 40.7786C90.3822 40.7441 90.3631 40.7097 90.3401 40.6752C89.8425 39.925 89.3105 39.2245 88.7478 38.5776L83.6838 48.5679L76.6255 53.6702L74.4629 55.3352C74.5203 55.4195 74.5815 55.4998 74.6428 55.584C74.7079 55.6721 74.7691 55.7601 74.8342 55.8443C74.8992 55.9285 74.9643 56.0127 75.0294 56.097C75.0906 56.1773 75.1557 56.2577 75.2169 56.3381C75.282 56.4223 75.3509 56.5027 75.4198 56.5831C75.4849 56.6596 75.55 56.7362 75.615 56.8127C75.6839 56.8931 75.7528 56.9697 75.8217 57.0501C75.8906 57.1266 75.9557 57.1993 76.0246 57.2759C76.0935 57.3524 76.1624 57.4252 76.2313 57.4979C76.3078 57.5821 76.3882 57.6587 76.4686 57.739C76.5758 57.8462 76.6791 57.9534 76.7863 58.0567C76.8743 58.1409 76.9624 58.2252 77.0504 58.3094C77.1193 58.3744 77.1882 58.4357 77.2609 58.4969C77.3375 58.5658 77.4102 58.6347 77.4868 58.6998C77.5595 58.761 77.6322 58.8223 77.7049 58.8835C77.7815 58.9486 77.8581 59.0098 77.9346 59.0711C78.0073 59.1285 78.0801 59.1897 78.1528 59.2471C78.2332 59.3084 78.3097 59.3696 78.3901 59.4309C78.4628 59.4845 78.5317 59.538 78.6045 59.5916C78.6925 59.6567 78.7805 59.7179 78.8686 59.7792C78.9336 59.8251 78.9987 59.8711 79.0599 59.9132C79.2054 60.0127 79.3547 60.1084 79.5001 60.2002C79.5614 60.2385 79.6188 60.273 79.68 60.3074C79.7757 60.3648 79.8714 60.4222 79.9671 60.4797C80.036 60.5179 80.1049 60.5562 80.1738 60.5945C80.2618 60.6442 80.3499 60.6902 80.4417 60.7399C80.5106 60.7782 80.5834 60.8127 80.6561 60.8471C80.7479 60.893 80.836 60.9352 80.9279 60.9773C80.9968 61.0117 81.0656 61.0423 81.1345 61.073C81.2302 61.1151 81.3298 61.1572 81.4255 61.1993C81.4867 61.2261 81.5518 61.2529 81.613 61.2796C81.747 61.3332 81.8771 61.383 82.0111 61.4289C82.0532 61.4442 82.0915 61.4595 82.1336 61.471C82.279 61.5208 82.4207 61.5667 82.5661 61.6127C82.6235 61.6318 82.6809 61.6471 82.7422 61.6624C82.8455 61.693 82.9489 61.7198 83.0522 61.7466C83.1173 61.7619 83.1824 61.7772 83.2474 61.7926C83.347 61.8155 83.4426 61.8347 83.5422 61.8576C83.6072 61.8691 83.6723 61.8844 83.7374 61.8959C83.8369 61.915 83.9402 61.9304 84.0398 61.9457C84.101 61.9533 84.1584 61.9648 84.2197 61.9725C84.3383 61.9878 84.4532 61.9993 84.568 62.0107C84.6101 62.0146 84.656 62.0184 84.6981 62.0222C84.8551 62.0337 85.0158 62.0414 85.1728 62.0452C85.211 62.0452 85.2531 62.0452 85.2914 62.0452C85.4101 62.0452 85.5287 62.0452 85.6474 62.0452C85.7048 62.0452 85.7622 62.0414 85.8158 62.0375C85.9153 62.0337 86.0187 62.026 86.1182 62.0146C86.1794 62.0107 86.2369 62.0031 86.2981 61.9954C86.3976 61.9839 86.4933 61.9725 86.5928 61.9571C86.6502 61.9495 86.7077 61.938 86.7651 61.9304C86.8684 61.9112 86.9718 61.8921 87.0751 61.8691C87.1249 61.8576 87.1746 61.85 87.2244 61.8385C87.3737 61.804 87.5268 61.7619 87.6761 61.7198C87.6761 61.7198 87.7105 61.7122 87.7297 61.7083C87.7526 61.7007 87.7756 61.693 87.7985 61.6854C90.1794 60.9964 92.8817 59.4959 94.3018 57.4443C94.8147 56.7056 94.0109 56.652 92.7784 56.8816L92.7669 56.8778Z" fill="var(--sapContent_Illustrative_Color16)"/>
<path d="M50.5938 47.1313C48.791 47.3227 47.9336 47.4529 45.7786 48.1993C45.1547 48.4136 44.5308 48.7581 43.9413 49.0873C36.8907 53.0413 35.6276 64.1799 41.1165 73.9711C42.5595 76.5471 44.592 80.149 50.2034 83.5135C50.2034 83.5135 42.8245 76.1859 42.2839 65.3243C41.7433 54.4627 45.0609 49.6 50.59 47.1313H50.5938Z" fill="var(--sapContent_Illustrative_Color3)"/>
<path d="M84.6898 62.029C84.648 62.029 84.6062 62.0214 84.5605 62.0176C84.6024 62.0214 84.648 62.0252 84.6898 62.029Z" fill="var(--sapContent_Illustrative_Color29)"/>
<path d="M79.0561 59.9201C78.9911 59.878 78.926 59.8282 78.8647 59.7861C78.9298 59.8321 78.9949 59.878 79.0561 59.9201Z" fill="var(--sapContent_Illustrative_Color29)"/>
<path d="M78.1454 59.2571C78.0727 59.1997 78 59.1423 77.9272 59.0811C78 59.1385 78.0727 59.1997 78.1454 59.2571Z" fill="var(--sapContent_Illustrative_Color29)"/>
<path d="M79.6765 60.3171C79.6152 60.2789 79.554 60.2444 79.4966 60.21C79.5578 60.2482 79.6152 60.2827 79.6765 60.3171Z" fill="var(--sapContent_Illustrative_Color29)"/>
<path d="M77.2535 58.5035C77.1846 58.4422 77.1119 58.3772 77.043 58.3159C77.1119 58.381 77.1808 58.4422 77.2535 58.5035Z" fill="var(--sapContent_Illustrative_Color29)"/>
<path d="M82.7386 61.6748C82.6812 61.6594 82.6237 61.6441 82.5625 61.625C82.6199 61.6441 82.6773 61.6594 82.7386 61.6748Z" fill="var(--sapContent_Illustrative_Color29)"/>
<path d="M82.129 61.4803C82.0872 61.4651 82.0492 61.4499 82.0073 61.4385C82.0492 61.4537 82.0872 61.4689 82.129 61.4803Z" fill="var(--sapContent_Illustrative_Color29)"/>
<path d="M83.7304 61.903C83.6653 61.8915 83.6002 61.8801 83.5352 61.8647C83.6002 61.8762 83.6653 61.8915 83.7304 61.903Z" fill="var(--sapContent_Illustrative_Color29)"/>
<path d="M81.131 61.0835C81.0621 61.0529 80.9932 61.0184 80.9243 60.9878C80.9932 61.0222 81.0621 61.0529 81.131 61.0835Z" fill="var(--sapContent_Illustrative_Color29)"/>
<path d="M80.6523 60.8591C80.5796 60.8247 80.5107 60.7864 80.438 60.752C80.5069 60.7902 80.5796 60.8247 80.6523 60.8591Z" fill="var(--sapContent_Illustrative_Color29)"/>
<path d="M86.7582 61.9331C86.7008 61.9446 86.6434 61.9522 86.5859 61.9599C86.6434 61.9522 86.7008 61.9408 86.7582 61.9331Z" fill="var(--sapContent_Illustrative_Color29)"/>
<path d="M90.4058 40.7822C90.6086 41.0923 90.8038 41.4138 90.9914 41.743C90.8038 41.4138 90.6086 41.0961 90.4058 40.7822Z" fill="var(--sapContent_Illustrative_Color29)"/>
<path d="M76.626 53.6746L83.6843 48.5723L88.7483 38.582C89.311 39.2289 89.843 39.9332 90.3406 40.6796C87.933 37.028 84.6374 34.54 81.3724 33.7208C81.736 33.185 81.759 32.8137 81.0547 32.8711C79.2212 33.0242 78.3217 33.1964 76.8059 33.7476C76.4232 33.8625 76.0442 34.0003 75.6768 34.1763C70.4175 36.7141 69.0855 44.8441 72.7026 52.3349C73.2691 53.51 73.9275 54.597 74.6509 55.5884C74.5897 55.5042 74.5285 55.4238 74.471 55.3396L76.6337 53.6746H76.626Z" fill="var(--sapContent_Illustrative_Color15)"/>
<path d="M76.4648 57.7471C76.572 57.8542 76.6754 57.9614 76.7825 58.0648C76.6754 57.9614 76.5682 57.8542 76.4648 57.7471Z" fill="var(--sapContent_Illustrative_Color29)"/>
<path d="M75.4202 56.5897C75.3513 56.5093 75.2862 56.4251 75.2173 56.3447C75.2824 56.4289 75.3513 56.5093 75.4202 56.5897Z" fill="var(--sapContent_Illustrative_Color29)"/>
<path d="M75.818 57.0576C75.7491 56.9811 75.6802 56.9007 75.6113 56.8203C75.6802 56.9007 75.7491 56.9772 75.818 57.0576Z" fill="var(--sapContent_Illustrative_Color29)"/>
<path d="M86.2907 61.999C86.2295 62.0067 86.1721 62.0105 86.1108 62.0182C86.1721 62.0143 86.2295 62.0067 86.2907 61.999Z" fill="var(--sapContent_Illustrative_Color29)"/>
<path d="M85.8086 62.0405C85.7511 62.0405 85.6937 62.0482 85.6401 62.0482C85.6976 62.0482 85.755 62.0444 85.8086 62.0405Z" fill="var(--sapContent_Illustrative_Color29)"/>
<path d="M87.6646 61.7197C87.5153 61.7657 87.366 61.8039 87.2129 61.8384C87.3622 61.8039 87.5153 61.7618 87.6646 61.7197Z" fill="var(--sapContent_Illustrative_Color29)"/>
<path d="M86.1105 62.0176C86.011 62.0252 85.9076 62.0329 85.8081 62.0405C85.9076 62.0367 86.011 62.0291 86.1105 62.0176Z" fill="var(--sapContent_Illustrative_Color29)"/>
<path d="M85.1656 62.0532C85.0086 62.0532 84.8517 62.0418 84.6909 62.0303C84.8479 62.0418 85.0086 62.0494 85.1656 62.0532Z" fill="var(--sapContent_Illustrative_Color29)"/>
<path d="M84.5607 62.0168C84.4459 62.0053 84.3272 61.9938 84.2124 61.9785C84.3311 61.9938 84.4459 62.0053 84.5607 62.0168Z" fill="var(--sapContent_Illustrative_Color29)"/>
<path d="M83.5345 61.8659C83.435 61.8467 83.3393 61.8237 83.2397 61.8008C83.3393 61.8237 83.435 61.8429 83.5345 61.8659Z" fill="var(--sapContent_Illustrative_Color29)"/>
<path d="M85.6363 62.0488C85.5176 62.0527 85.3989 62.0527 85.2803 62.0488C85.3989 62.0488 85.5176 62.0488 85.6363 62.0488Z" fill="var(--sapContent_Illustrative_Color29)"/>
<path d="M76.4649 57.7485C76.3845 57.6681 76.3079 57.5877 76.2275 57.5073C76.3041 57.5915 76.3845 57.6681 76.4649 57.7485Z" fill="var(--sapContent_Illustrative_Color29)"/>
<path d="M76.0251 57.2781C75.9562 57.2054 75.8873 57.1288 75.8223 57.0522C75.8912 57.1288 75.9562 57.2015 76.0251 57.2781Z" fill="var(--sapContent_Illustrative_Color29)"/>
<path d="M75.2173 56.3398C75.1523 56.2594 75.091 56.179 75.0298 56.0986C75.091 56.179 75.1561 56.2594 75.2173 56.3398Z" fill="var(--sapContent_Illustrative_Color29)"/>
<path d="M74.8345 55.8482C74.7694 55.764 74.7043 55.6759 74.6431 55.5879C74.7081 55.6759 74.7694 55.764 74.8345 55.8482Z" fill="var(--sapContent_Illustrative_Color29)"/>
<path d="M77.4832 58.7068C77.4066 58.6417 77.3301 58.5728 77.2573 58.5039C77.3339 58.5728 77.4066 58.6417 77.4832 58.7068Z" fill="var(--sapContent_Illustrative_Color29)"/>
<path d="M80.9241 60.9895C80.8322 60.9474 80.7442 60.9015 80.6523 60.8594C80.7442 60.9053 80.8322 60.9474 80.9241 60.9895Z" fill="var(--sapContent_Illustrative_Color29)"/>
<path d="M82.5624 61.6236C82.417 61.5815 82.2753 61.5317 82.1299 61.4819C82.2753 61.5317 82.417 61.5776 82.5624 61.6236Z" fill="var(--sapContent_Illustrative_Color29)"/>
<path d="M80.4418 60.7465C80.3537 60.7006 80.2619 60.6508 80.1738 60.6011C80.2619 60.6508 80.3499 60.6968 80.4418 60.7465Z" fill="var(--sapContent_Illustrative_Color29)"/>
<path d="M81.4218 61.2113C81.3261 61.1692 81.2266 61.1309 81.1309 61.085C81.2266 61.1271 81.3261 61.1692 81.4218 61.2113Z" fill="var(--sapContent_Illustrative_Color29)"/>
<path d="M78.3828 59.4362C78.3024 59.3749 78.2221 59.3137 78.1455 59.2524C78.2259 59.3137 78.3024 59.3749 78.3828 59.4362Z" fill="var(--sapContent_Illustrative_Color29)"/>
<path d="M77.9269 59.0826C77.8504 59.0213 77.7738 58.9563 77.6973 58.895C77.7738 58.9601 77.8504 59.0213 77.9269 59.0826Z" fill="var(--sapContent_Illustrative_Color29)"/>
<path d="M79.4963 60.2075C79.3471 60.1156 79.2016 60.0199 79.0562 59.9204C79.2016 60.0199 79.3509 60.1156 79.4963 60.2075Z" fill="var(--sapContent_Illustrative_Color29)"/>
<path d="M79.9677 60.4901C79.872 60.4365 79.7764 60.3753 79.6807 60.3179C79.7764 60.3753 79.872 60.4327 79.9677 60.4901Z" fill="var(--sapContent_Illustrative_Color29)"/>
<path d="M91.2498 60.0351C96.5079 57.4967 97.9132 49.5203 94.3885 42.2195C90.8639 34.9187 83.7441 31.0581 78.486 33.5966C73.2279 36.135 71.8226 44.1113 75.3472 51.4122C78.8719 58.713 85.9917 62.5736 91.2498 60.0351Z" fill="var(--sapContent_Illustrative_Color15)"/>
<path d="M78.4898 33.6017C73.2306 36.1394 71.8258 44.1163 75.3511 51.4157C75.483 51.6888 75.6215 51.9691 75.7917 52.2874C75.7917 52.2874 70.134 31.1902 88.9011 35.3892C85.5595 32.8783 81.6821 32.0591 78.4936 33.5979L78.4898 33.6017Z" fill="var(--sapContent_Illustrative_Color3)"/>
<path d="M91.2513 60.0377C96.5105 57.4999 97.9153 49.523 94.39 42.2236C94.2905 57.4425 80.1319 57.6607 80.1089 57.6683C83.6074 60.631 87.8217 61.6951 91.2475 60.0415L91.2513 60.0377Z" fill="var(--sapContent_Illustrative_Color28)"/>
</svg>