<svg width="160" height="160" viewBox="0 0 160 160" fill="none" xmlns="http://www.w3.org/2000/svg" id="sapIllus-Dialog-DragFilesToUpload">
<rect y="43" width="160" height="69" rx="12" fill="var(--sapContent_Illustrative_Color20)"/>
<path d="M72.325 48.1848C71.705 48.6398 71.03 49.0148 70.36 49.3848C67.015 51.2398 63.67 53.0948 60.325 54.9498C59.53 55.3898 58.595 55.8598 58.015 56.5848C57.315 57.4648 57.115 58.7048 56.61 59.6998C56.105 60.7048 53.41 66.4048 53.24 67.2498C53.175 67.5848 52.815 70.0848 52.48 70.2998L41.48 71.3648L41.56 76.1198C41.56 76.1198 39.815 76.2448 38.38 76.2798C36.625 76.3248 35.655 77.3348 35.5 78.8198L37.25 101.905C37.32 102.815 37.5 103.415 38.18 103.99L39.895 105.59C40.3 105.95 40.83 106.185 41.41 106.22L73.765 107.985C75.065 108.055 75.945 107.27 76.34 105.825L80.915 84.2248C81.055 82.8248 80.055 81.6198 78.675 81.5448L75.865 81.3898C75.99 80.0248 75.09 78.8898 73.755 78.8098L72.685 78.7448L70.965 67.5998L64.37 68.3848C64.905 67.4248 65.505 65.7498 65.65 65.4298C66.12 64.4148 70.71 62.8348 73.285 60.6298C75.86 58.4298 76.815 57.7448 76.815 57.7448L78.315 56.9398C78.535 57.3298 78.725 57.5798 78.865 57.6448C79.55 57.9598 80.89 56.9898 81.735 56.2898C81.88 56.4748 82.03 56.6498 82.18 56.7948C82.18 56.7948 83.295 58.1048 84.04 58.1048C84.04 58.1048 84.04 58.1048 84.045 58.1048H84.05H84.06C84.06 58.1048 84.075 58.0898 84.085 58.0848L101.06 43.0098H80.32C77.105 45.0948 72.34 48.1748 72.32 48.1898L72.33 48.1798L72.325 48.1848Z" fill="var(--sapContent_Illustrative_Color21)"/>
<path d="M73.0795 82.1746L73.1145 79.5946C73.2895 78.3596 72.4795 77.2946 71.3045 77.2196L57.3695 76.3596C56.1845 76.2846 55.1045 77.2396 54.9645 78.4796L55.0095 80.6246L51.2345 80.3946C49.5345 80.2896 48.0045 81.6446 47.8145 83.4096L49.8895 110.785C49.9745 111.865 50.1845 112.58 50.9945 113.26L53.0245 115.155L92.8945 117.885C94.4795 117.97 96.3545 114.89 96.6545 113.295L95.6495 86.7396C95.9595 84.9996 94.8595 83.4946 93.1845 83.3946L73.0795 82.1696V82.1746Z" fill="var(--sapContent_Illustrative_Color22)"/>
<path d="M91.2003 85.3397L52.9203 83.2847C52.5703 83.2847 52.4053 83.4397 52.4053 83.8297L52.6153 110.225C52.6153 110.82 53.1003 111.325 53.6853 111.36L91.4253 113.415C92.0103 113.445 92.4803 112.99 92.4753 112.4L92.2653 86.4747C92.2653 85.8797 91.7803 85.3747 91.1953 85.3397H91.2003Z" fill="var(--sapContent_Illustrative_Color2)"/>
<path d="M62.4048 91.3047L93.0148 87.8597L89.7798 66.9097L59.8848 71.2747L62.4048 91.3047Z" fill="var(--sapContent_Illustrative_Color27)"/>
<path d="M73.7753 62.4647L72.3603 68.4347C72.2803 68.7797 72.2453 69.1447 72.2653 69.4997L75.0253 69.1047L75.4803 67.5547C75.4803 67.5547 76.7903 64.3597 76.6703 62.3547C76.6103 61.3197 75.9003 61.1347 75.2303 61.1947C74.5253 61.2597 73.9403 61.7747 73.7753 62.4647Z" fill="var(--sapContent_Illustrative_Color29)"/>
<path d="M76.83 60.7095L75.35 66.9395C75.285 67.2095 75.25 67.4845 75.245 67.7595L75.21 69.0695L77.855 68.6895L78.5 65.9345C78.5 65.9345 79.81 62.7395 79.69 60.7345C79.62 59.5545 78.705 59.4795 77.965 59.6145C77.405 59.7195 76.96 60.1445 76.825 60.6995V60.7095H76.83Z" fill="var(--sapContent_Illustrative_Color29)"/>
<path d="M91.4402 43.1045C90.6802 43.6595 89.8552 44.1195 89.0302 44.5745C84.9302 46.8495 80.8302 49.1245 76.7302 51.3995C75.7552 51.9395 74.6102 52.5145 73.9002 53.4045C73.0402 54.4845 72.7952 56.0045 72.1802 57.2245C71.5602 58.4545 68.2552 65.4445 68.0502 66.4795C67.9652 66.9045 67.4952 70.1795 67.0752 70.2445L72.0552 69.5295L73.0652 65.7545L81.2352 62.3745C80.5352 63.4245 80.0902 63.8895 78.2152 66.3545C76.3402 68.8195 76.0152 71.5145 78.3152 72.8395C80.6152 74.1695 84.7652 66.0145 85.3452 64.7745C85.9202 63.5295 89.4852 62.0545 92.6402 59.3545C95.8002 56.6545 97.0452 54.4395 97.0452 54.4395L109.485 47.7445L108.95 43.0195H91.5552C91.5152 43.0495 91.4702 43.0845 91.4302 43.1145L91.4402 43.1045Z" fill="var(--sapContent_Illustrative_Color31)"/>
<path d="M101.735 49.4797C100.565 49.4497 99.3803 49.5997 98.2853 50.0147C97.7353 50.2197 97.2153 50.4947 96.7353 50.8297C96.4903 50.9997 96.2353 51.1797 96.0453 51.4147C95.7053 51.8347 95.4603 52.3347 95.2153 52.8147C94.8753 53.4847 94.5603 54.1697 94.2303 54.8447C93.5653 56.2247 92.8953 57.6697 91.9303 58.8697C91.3253 59.6197 88.2903 61.3747 87.6003 62.0197C86.9753 62.6047 86.3153 63.1547 85.6903 63.7397C85.0453 64.3497 84.4253 65.0047 84.0303 65.8097C83.6753 66.5347 83.4203 67.4747 82.7303 67.9547C82.4953 68.1197 82.2453 68.2097 81.9853 68.2697C81.5803 68.3647 81.4653 68.8847 81.7953 69.1247C81.9053 69.2047 81.9903 69.2797 82.0153 69.3447C82.1103 69.5747 79.9453 72.3797 79.5303 72.8147C81.8803 72.2497 84.7453 66.2647 85.2553 65.1647C85.8303 63.9197 89.3953 62.4447 92.5503 59.7447C95.7053 57.0447 96.9503 54.8297 96.9503 54.8297L105.68 50.1297C104.395 49.7447 103.07 49.4997 101.735 49.4697V49.4797Z" fill="var(--sapContent_Illustrative_Color15)"/>
<path d="M78.6601 65.7896C78.7701 65.6796 79.1301 65.4946 79.2501 65.3996C79.8501 64.9296 80.1951 64.4346 80.6201 63.9096C81.0551 63.3696 81.4901 62.7796 81.7501 62.1296C82.0201 61.4496 82.1301 60.6396 81.8551 59.9446C81.7201 59.6046 81.4901 59.3146 81.1901 59.1046C80.9901 58.9696 80.7151 58.6796 80.4951 58.5846C79.9401 58.3396 79.3951 58.0496 78.8001 57.9196C78.3801 57.8246 77.9651 57.7496 77.5301 57.7396C77.1301 57.7296 76.8901 57.9596 76.9351 58.3346C76.9801 58.7046 77.1601 59.1396 77.2451 59.5546C77.3451 60.0496 77.3301 60.4546 76.9351 60.7646C76.7151 60.9396 76.3401 61.0146 76.0801 61.1296C74.7551 61.6846 74.1751 63.0596 73.1701 64.0946C72.6501 64.6296 72.1401 65.2496 71.6051 65.7746C71.4251 65.9496 71.2501 66.1446 71.1501 66.3746C71.0301 66.6596 71.0301 66.9846 70.9951 67.2896C70.8551 68.4996 70.1001 68.9996 69.4551 69.9046L72.0601 69.5296L73.1651 66.1996L81.2501 62.3796C80.6601 63.2596 79.8751 64.2246 78.6601 65.7996V65.7896Z" fill="var(--sapContent_Illustrative_Color3)"/>
<path d="M77.9499 69.025C78.1149 68.865 78.3699 68.85 78.5599 68.98C78.9749 69.265 79.9049 69.755 80.4799 70.05C80.7649 70.195 80.8899 70.53 80.7699 70.82C80.3799 71.78 79.4849 73.345 78.2649 72.9C76.8699 72.39 76.0649 70.82 77.9449 69.025H77.9499Z" fill="var(--sapContent_Illustrative_Color3)"/>
<path d="M103.519 53.6598C103.519 53.6598 104.899 55.2798 105.809 55.2648C106.369 55.2648 103.769 48.3248 101.694 43.0098H98.5645C99.7595 46.9148 101.539 51.7148 103.519 53.6598Z" fill="var(--sapContent_Illustrative_Color22)"/>
<path d="M99.4545 54.7098C100.729 55.2948 103.894 52.2248 103.894 52.2248L109.479 48.9798L108.809 43.0098H94.4395C95.7995 46.8698 98.5145 54.2748 99.4595 54.7048H99.4545V54.7098Z" fill="var(--sapContent_Illustrative_Color8)"/>
<path d="M99.6105 43.0098C101.92 48.0398 105.055 54.6598 105.815 55.2648L124.695 43.0098H99.6055H99.6105Z" fill="var(--sapContent_Illustrative_Color13)"/>
<path d="M122.161 43.0098C121.136 43.7298 120.091 44.4148 119.011 45.0498C117.836 45.7398 116.631 46.3848 115.361 46.8848C114.041 47.4048 112.666 47.8048 111.256 47.9798C109.846 48.1598 108.406 48.1098 107.006 47.8498C105.696 47.6048 104.411 47.1998 103.221 46.5948C102.161 46.0548 101.181 45.3648 100.311 44.5498C102.511 49.2998 105.121 54.7248 105.806 55.2698L124.696 43.0098H122.161Z" fill="var(--sapContent_Illustrative_Color22)"/>
<path d="M78.9647 80.6797C78.9647 80.6797 81.0097 81.5797 80.5397 83.9197L92.5047 84.5447L93.0147 87.2947H77.5947L78.9647 80.6797Z" fill="var(--sapContent_Illustrative_Color26)"/>
<path d="M79.6547 85.5796L80.0947 82.7046C80.1647 81.5246 79.2997 80.5146 78.1547 80.4546L64.6697 79.7196C63.5247 79.6596 62.5697 80.5696 62.5347 81.7496L61.9747 84.6196L58.3397 84.4196C56.7047 84.3296 55.3547 85.6196 55.3247 87.2896L52.0647 113.025C52.0447 114.535 53.2797 115.82 54.8247 115.905L93.1947 117.995C94.7347 118.08 95.7797 117.145 96.2497 115.435L101.675 89.8196C101.845 88.1596 100.655 86.7296 99.0197 86.6396L79.6597 85.5846L79.6547 85.5796Z" fill="var(--sapContent_Illustrative_Color17)"/>
<path d="M82.7823 109.534L69.8573 108.829C69.3973 108.804 69.0823 108.414 69.1523 107.964C69.2223 107.514 69.6573 107.164 70.1173 107.189L83.0423 107.894C83.5023 107.919 83.8173 108.309 83.7473 108.759C83.6773 109.209 83.2423 109.559 82.7823 109.534ZM76.9773 105.084C76.5173 105.059 76.2023 104.669 76.2723 104.219L77.6573 95.5385L74.9673 97.6985C74.5923 97.9985 74.0623 97.9686 73.7873 97.6336C73.5173 97.2986 73.5973 96.7736 73.9723 96.4736L78.3023 92.9986C78.4823 92.8536 78.7273 92.7736 78.9373 92.7836C79.1773 92.7986 79.3623 92.8986 79.4923 93.0636L82.6573 96.9586C82.9273 97.2936 82.8473 97.8186 82.4723 98.1186C82.0973 98.4186 81.5673 98.3886 81.2923 98.0536L79.3323 95.6436L77.9473 104.324C77.8773 104.774 77.4423 105.124 76.9823 105.099L76.9723 105.089L76.9773 105.084Z" fill="var(--sapContent_Illustrative_Color27)"/>
</svg>