<svg width="45" height="45" viewBox="0 0 45 45" fill="none" xmlns="http://www.w3.org/2000/svg" id="sapIllus-Dot-NoTasks">
<path d="M8.22207 21.0659C5.98241 19.4061 3.74275 17.7463 1.50309 16.0883C1.40162 16.014 1.30377 16.1826 1.40343 16.2568C3.64309 17.9167 5.88275 19.5765 8.1224 21.2345C8.22388 21.3088 8.32173 21.1402 8.22207 21.0659Z" fill="var(--sapContent_Illustrative_Color30)"/>
<path d="M7.90313 20.7051C7.07942 18.8981 6.25569 17.0911 5.43198 15.2841C4.11849 12.4011 2.805 9.52184 1.49151 6.63884C1.18725 5.97468 0.886706 5.31051 0.582451 4.64264C0.541636 4.55359 0.385799 4.5944 0.39693 4.69458C0.716026 8.05994 1.03513 11.429 1.35051 14.7944C1.39504 15.273 1.43956 15.7554 1.4878 16.234C1.49893 16.3602 1.69929 16.3639 1.68816 16.234C1.36906 12.8686 1.04997 9.49958 0.73458 6.13423C0.690055 5.65558 0.645531 5.17323 0.597296 4.69458L0.411775 4.74653C1.23549 6.5535 2.0592 8.36048 2.88292 10.1675C4.19641 13.0505 5.5099 15.9297 6.82339 18.8127C7.12764 19.4769 7.42819 20.1411 7.73245 20.809C7.78439 20.9277 7.95877 20.8238 7.90682 20.7088L7.90313 20.7051Z" fill="var(--sapContent_Illustrative_Color30)"/>
<path d="M8.14895 20.4258C5.91225 18.7726 3.67553 17.1193 1.44963 15.4553C1.2011 15.2716 0.801316 15.4121 0.650041 15.6606C0.477155 15.9524 0.606822 16.2657 0.855345 16.4602C3.09205 18.1134 5.32871 19.7666 7.55461 21.4307C7.80313 21.6144 8.20298 21.4739 8.35426 21.2254C8.52714 20.9336 8.39748 20.6203 8.14895 20.4258Z" fill="var(--sapContent_Illustrative_Color30)"/>
<path d="M7.87879 20.5121C5.73933 15.8118 3.59987 11.1223 1.46041 6.42197C1.15786 5.75204 0.84447 5.08211 0.54192 4.40138C0.423061 4.14205 -0.0307635 4.26091 0.00165258 4.55265C0.369034 8.41016 0.736427 12.2677 1.093 16.1252C1.12542 16.4926 1.70888 16.5034 1.67647 16.1252C1.30909 12.2677 0.94176 8.41016 0.585184 4.55265L0.0449162 4.70392C2.18438 9.40425 4.32384 14.0938 6.4633 18.7941C6.76585 19.464 7.07917 20.134 7.38172 20.8147C7.533 21.1605 8.04082 20.8579 7.88954 20.523L7.87879 20.5121Z" fill="var(--sapContent_Illustrative_Color30)"/>
<path d="M33.051 38.8663C39.6503 37.8305 44.8431 35.9914 44.6496 34.7586C44.4561 33.5258 38.6584 31.7741 32.0592 32.8099C25.4599 33.8456 20.5582 37.2766 20.7517 38.5095C20.9452 39.7423 26.4518 39.9021 33.051 38.8663Z" fill="var(--sapContent_Illustrative_Color21)"/>
<path d="M37.2357 17.4399C39.1591 19.4497 41.0717 21.4595 42.995 23.4693C43.5137 24.0096 44.3349 23.1884 43.8162 22.6481C41.8929 20.6383 39.9803 18.6285 38.057 16.6187C37.5383 16.0785 36.7171 16.8997 37.2357 17.4399Z" fill="var(--sapContent_Illustrative_Color30)"/>
<path d="M38.0896 17.375C39.8616 13.5931 41.6337 9.81124 43.4058 6.02937L42.8655 5.87809C42.8871 10.7945 42.9087 15.711 42.9195 20.6274C42.9195 21.3297 42.9195 22.0429 42.9195 22.7452C42.9195 23.1234 43.503 23.1234 43.503 22.7452C43.4814 17.8288 43.4598 12.9124 43.449 7.99594C43.449 7.29359 43.449 6.58044 43.449 5.87809C43.449 5.60796 43.0276 5.45668 42.9087 5.72682C41.1366 9.50869 39.3646 13.2906 37.5925 17.0724C37.4304 17.4074 37.9383 17.7099 38.1004 17.3642L38.0896 17.375Z" fill="var(--sapContent_Illustrative_Color30)"/>
<path d="M42.5381 23.1553L29.7905 28.5968L25.6011 29.0063L20.3553 28.7236C20.3553 28.7236 34.828 22.9541 36.8864 17.2263L42.5381 23.1553Z" fill="var(--sapContent_Illustrative_Color15)"/>
<path d="M3.55601 17.587L3.29508 17.9277C3.58863 18.1506 3.89305 18.3807 4.19928 18.6144L4.46021 18.2738C4.15398 18.0418 3.84775 17.8099 3.55601 17.587ZM1.92701 16.353L1.66608 16.6937C1.92338 16.8894 2.23143 17.1231 2.57028 17.3804L2.83121 17.0398C2.49236 16.7825 2.18431 16.5487 1.92701 16.353ZM7.71823 20.7436C7.4736 20.5587 7.16375 20.3232 6.81403 20.0568L6.5531 20.3975C6.90463 20.6638 7.21448 20.8976 7.4573 21.0842L7.71823 20.7436ZM5.18321 18.8228L4.92228 19.1635C5.23213 19.399 5.53655 19.6292 5.82648 19.8502L6.08741 19.5096C5.79748 19.2885 5.49306 19.0584 5.18321 18.8228Z" fill="var(--sapContent_Illustrative_Color16)"/>
<path d="M42.0833 21.6351L41.5197 22.1298L42.3007 22.9561L42.8642 22.4614L42.0833 21.6351Z" fill="var(--sapContent_Illustrative_Color16)"/>
<path d="M41.9383 21.4829L41.4037 22.0066L42.1847 22.8329L42.7193 22.3092L41.9383 21.4829Z" fill="var(--sapContent_Illustrative_Color15)"/>
<path d="M40.6917 20.1527L40.1281 20.6474L40.9091 21.4737L41.4726 20.979L40.6917 20.1527Z" fill="var(--sapContent_Illustrative_Color16)"/>
<path d="M40.5466 19.9988L40.0121 20.5225L40.7931 21.3487L41.3276 20.8251L40.5466 19.9988Z" fill="var(--sapContent_Illustrative_Color15)"/>
<path d="M39.2565 18.6487L38.693 19.1434L39.474 19.9696L40.0375 19.475L39.2565 18.6487Z" fill="var(--sapContent_Illustrative_Color16)"/>
<path d="M39.1097 18.4949L38.5751 19.0204L39.3579 19.8466L39.8925 19.3212L39.1097 18.4949Z" fill="var(--sapContent_Illustrative_Color15)"/>
<path d="M37.8757 17.1847L37.3122 17.6794L38.0932 18.5057L38.6567 18.011L37.8757 17.1847Z" fill="var(--sapContent_Illustrative_Color16)"/>
<path d="M37.7308 17.0308L37.1945 17.5544L37.9773 18.3807L38.5118 17.857L37.7308 17.0308Z" fill="var(--sapContent_Illustrative_Color15)"/>
<path d="M29.9825 28.6476C29.9825 28.6476 28.2321 29.0136 27.6686 29.077C27.1051 29.1423 26.9492 29.1713 26.9492 29.1713" fill="var(--sapContent_Illustrative_Color24)"/>
<path d="M1.67883 16.4001L8.11332 21.1422C8.11332 21.1422 18.8423 27.3031 20.8355 28.1312C22.8306 28.9593 28.4605 28.2852 29.6637 27.9101C30.8687 27.5332 42.5363 23.159 42.5363 23.159C42.5363 23.159 42.5888 23.1246 39.7784 25.4639C36.0764 28.5425 30.9031 30.5955 27.6415 31.5215C25.7262 32.0651 22.0641 32.7301 19.7682 32.7301C17.4724 32.7301 13.5748 30.8854 11.9892 29.4992C8.85081 26.7522 1.67883 16.4001 1.67883 16.4001Z" fill="var(--sapContent_Illustrative_Color16)"/>
<path d="M5.03833 21.0842C5.03833 21.0842 14.1111 27.1509 16.0609 28.0351C17.3709 28.6295 19.1884 30.012 22.1076 30.4415C22.6675 30.523 30.7165 30.494 30.7165 30.494C30.0823 30.5031 27.473 32.2444 20.1325 32.7482C18.7553 32.8424 18.3748 32.6032 17.7261 32.4673C15.7927 32.0669 13.7433 30.7985 13.0601 30.2929C12.3335 29.7565 11.7229 29.2909 10.5451 28.0333C9.91629 27.3629 9.31651 26.7087 8.98491 26.3481C8.69318 26.031 5.53664 21.7112 5.04014 21.0824L5.03833 21.0842Z" fill="var(--sapContent_Illustrative_Color16)"/>
</svg>