<svg width="128" height="129" viewBox="0 0 128 129" fill="none" xmlns="http://www.w3.org/2000/svg" id="sapIllus-Spot-SleepingBell">
<path d="M39.6395 22.7165C39.8079 22.5137 40.0187 22.3502 40.2571 22.2373C40.4953 22.1342 40.7527 22.0826 41.0123 22.0858H69.7255C69.8241 21.9119 69.9426 21.7499 70.0784 21.6031C70.2936 21.3937 70.5461 21.2263 70.823 21.1098C71.1021 20.9964 71.4005 20.9378 71.7018 20.9371C72.0018 20.9396 72.2986 20.9982 72.577 21.1098C72.8512 21.229 73.1012 21.3974 73.3146 21.6066C73.4512 21.7515 73.5697 21.9124 73.6675 22.0858H111.991C105.925 15.2027 98.4449 9.70477 90.0603 5.96597C81.6758 2.22717 72.583 0.335211 63.4005 0.418791C54.218 0.502371 45.1613 2.55953 36.8464 6.45033C28.5315 10.3411 21.1535 15.9743 15.2142 22.9666H39.4277L39.6395 22.7165Z" fill="var(--sapContent_Illustrative_Color7)"/>
<path d="M33.9258 98.8732C33.9258 97.0868 35.3904 96.0156 37.162 95.6422C39.325 94.8908 41.4245 93.9683 43.4404 92.8833V68.8777C43.2703 62.2474 45.4744 55.774 49.6565 50.6208C53.8386 45.4676 59.7245 41.9725 66.2563 40.7637V39.0971C66.2529 38.4006 66.3897 37.7104 66.6586 37.0676C66.9265 36.4233 67.3186 35.8379 67.8127 35.3446C68.1052 35.0563 68.4296 34.8022 68.7796 34.5871H40.8994C40.4036 34.58 39.9302 34.3803 39.5795 34.0304L35.5915 29.8621C35.2848 29.5243 35.1149 29.0847 35.1149 28.6288C35.1149 28.1729 35.2848 27.7333 35.5915 27.3956L39.4348 22.9595H15.2143C10.4601 28.5375 6.70209 34.8901 4.10449 41.7398H8.41711C9.82707 41.7919 11.185 42.2849 12.2992 43.1492L17.9458 38.1458L9.82877 37.8146C9.69219 37.8055 9.5612 37.7569 9.45177 37.6748C9.34234 37.5927 9.25918 37.4806 9.21243 37.3521C9.16568 37.2237 9.15735 37.0844 9.18846 36.9513C9.21956 36.8182 9.28876 36.697 9.38763 36.6025C9.45381 36.538 9.5333 36.4887 9.62055 36.458C9.7057 36.4292 9.79539 36.4161 9.88524 36.4193L19.7669 36.8174V36.7822C19.8959 36.8005 20.0177 36.8528 20.1198 36.9337C20.2221 37.0218 20.3019 37.1329 20.3527 37.2579C20.3949 37.3852 20.4022 37.5214 20.3739 37.6525C20.3455 37.785 20.2807 37.907 20.1868 38.0049L13.2944 44.0829C13.801 44.6705 14.201 45.3418 14.4767 46.0666L18.5528 46.2357C18.7354 46.2476 18.9062 46.3297 19.0293 46.4648C19.1532 46.5996 19.2235 46.7751 19.2269 46.958C19.2141 47.1408 19.1306 47.3114 18.994 47.4337C18.8617 47.5592 18.6859 47.6286 18.5034 47.6275L14.8437 47.4795C14.8925 47.8038 14.9184 48.1311 14.9213 48.4591C14.9234 50.2051 14.2464 51.8837 13.0331 53.1411C11.8197 54.3985 10.1648 55.1365 8.41711 55.1995H0.652989C0.216802 58.2337 -0.00138628 61.2953 9.62233e-05 64.3606C-0.0182485 74.8977 2.5867 85.2741 7.58071 94.5569C16.5048 95.408 25.3383 97.0289 33.9823 99.4017C33.9522 99.2269 33.9333 99.0504 33.9258 98.8732ZM31.3142 53.6809C31.2686 53.8202 31.1827 53.9428 31.0672 54.0332L25.2864 58.3636L29.9132 58.5503C30.0964 58.5617 30.2688 58.6408 30.3966 58.7723C30.5185 58.9102 30.5816 59.0902 30.5723 59.2739C30.5631 59.4576 30.4823 59.6304 30.3472 59.7554C30.2141 59.8817 30.0368 59.9512 29.8532 59.9492L23.2572 59.6814C23.1124 59.6704 22.9739 59.6178 22.8584 59.5299C22.7475 59.4366 22.6645 59.3147 22.6184 59.1775C22.5796 59.0404 22.5796 58.8953 22.6184 58.7582C22.6619 58.6197 22.7454 58.4972 22.8584 58.4059L28.6462 54.0826L23.4583 53.8747C23.3516 53.8999 23.2404 53.8999 23.1337 53.8747C23.0251 53.8477 22.9239 53.7972 22.8372 53.7267C22.7518 53.6564 22.6841 53.5671 22.6396 53.4659C22.5955 53.3636 22.5739 53.2531 22.5761 53.1418C22.5842 53.0324 22.6142 52.9258 22.6643 52.8282C22.7189 52.7304 22.7949 52.6461 22.8866 52.5815C22.9772 52.5182 23.081 52.4761 23.1901 52.4582C23.2989 52.4433 23.4096 52.4517 23.5148 52.4829L30.686 52.7718C30.8287 52.7827 30.965 52.8354 31.0778 52.9233C31.1936 53.0127 31.2787 53.1359 31.3213 53.2757C31.3543 53.409 31.3519 53.5487 31.3142 53.6809Z" fill="var(--sapContent_Illustrative_Color7)"/>
<path d="M120.644 34.5695H74.3132C75.0966 35.041 75.7448 35.7065 76.1949 36.5016C76.6451 37.2967 76.8819 38.1944 76.8824 39.1077V40.8166C78.7147 41.1875 80.5057 41.7387 82.2291 42.4621C87.4048 44.6442 91.8018 48.3326 94.8468 53.0465C97.8918 57.7604 99.4435 63.2809 99.2996 68.8883V92.8833C101.313 93.9689 103.41 94.8915 105.571 95.6422C107.335 95.9945 108.804 97.0868 108.793 98.8732C108.792 99.7267 108.455 100.546 107.854 101.153C107.243 101.756 106.42 102.096 105.56 102.101H78.3858C78.4415 103.112 78.2665 104.123 77.8741 105.057C77.18 106.73 75.8488 108.06 74.1733 108.753C72.4977 109.447 70.6148 109.448 68.9383 108.757C67.6885 108.24 66.6205 107.365 65.8702 106.241C65.1199 105.117 64.7211 103.797 64.7245 102.446V102.094H43.0203C54.0503 105.789 64.7186 110.485 74.892 116.121C79.5434 118.629 84.3501 120.951 89.2486 123.104C97.3625 119.618 104.667 114.494 110.703 108.055C116.74 101.616 121.377 94.0007 124.325 85.6869C127.274 77.3732 128.468 68.5408 127.835 59.7441C127.201 50.9474 124.753 42.3765 120.644 34.5695Z" fill="var(--sapContent_Illustrative_Color7)"/>
<path d="M43.0203 102.101H37.169C36.3138 102.102 35.4928 101.765 34.8857 101.164C34.5814 100.862 34.3413 100.503 34.1798 100.107C34.0822 99.8712 34.0123 99.6252 33.9716 99.3737C25.3257 97.0072 16.4911 95.3909 7.56653 94.543C15.134 108.64 27.7193 119.392 42.8385 124.677C57.9577 129.963 74.5122 129.398 89.2345 123.094C84.3325 120.941 79.5258 118.619 74.8744 116.11C64.7064 110.481 54.0439 105.791 43.0203 102.101Z" fill="var(--sapContent_Illustrative_Color19)"/>
<path d="M14.4626 46.0773C14.1881 45.3488 13.7879 44.6738 13.2803 44.083L11.1981 45.9328L14.4626 46.0773Z" fill="var(--sapContent_Illustrative_Color18)"/>
<path d="M13.005 53.1488C14.224 51.8957 14.9041 50.2165 14.9001 48.4696C14.8972 48.1417 14.8713 47.8144 14.8225 47.4901L9.40524 47.2716C9.30159 47.2723 9.19923 47.2487 9.10645 47.2025C9.01367 47.1564 8.93308 47.089 8.87122 47.006C8.80936 46.923 8.76795 46.8265 8.75037 46.7246C8.73278 46.6226 8.73951 46.5179 8.77 46.419C8.80112 46.2913 8.86998 46.1759 8.96763 46.0878L12.2991 43.1527C11.185 42.2884 9.82704 41.7954 8.41708 41.7433H4.10446C2.4656 46.0907 1.3082 50.6042 0.652954 55.203H8.41708C10.1554 55.1383 11.8004 54.4018 13.005 53.1488Z" fill="var(--sapContent_Illustrative_Color18)"/>
<path d="M31.0778 52.9198C30.965 52.8319 30.8287 52.7792 30.6861 52.7683L23.5148 52.4794C23.4093 52.4499 23.2989 52.4415 23.1901 52.4547C23.081 52.4726 22.9773 52.5147 22.8866 52.5781C22.7949 52.6426 22.719 52.7269 22.6643 52.8247C22.6142 52.9223 22.5842 53.0289 22.5761 53.1383C22.5739 53.2496 22.5956 53.3601 22.6396 53.4624C22.6841 53.5636 22.7518 53.6529 22.8372 53.7232C22.9239 53.7937 23.0251 53.8443 23.1337 53.8712C23.2404 53.8964 23.3516 53.8964 23.4584 53.8712L28.6462 54.0791L22.8655 58.4094C22.7524 58.5007 22.669 58.6233 22.6255 58.7618C22.5814 58.8994 22.5808 59.0473 22.6237 59.1854C22.6666 59.3234 22.751 59.4449 22.8655 59.5334C22.9809 59.6213 23.1195 59.6739 23.2643 59.6849L29.8602 59.9527C30.0439 59.9548 30.2212 59.8853 30.3543 59.7589C30.4896 59.636 30.5719 59.4655 30.5837 59.2833C30.5907 59.0974 30.5263 58.9159 30.4037 58.7759C30.2749 58.6458 30.103 58.5669 29.9202 58.5539L25.2935 58.3671L31.0672 54.0262C31.1827 53.9358 31.2687 53.8131 31.3142 53.6739C31.353 53.5368 31.353 53.3916 31.3142 53.2546C31.2704 53.1221 31.1881 53.0056 31.0778 52.9198Z" fill="var(--sapContent_Illustrative_Color5)"/>
<path d="M8.76993 46.419C8.74469 46.5172 8.74161 46.6197 8.76092 46.7191C8.78022 46.8186 8.82142 46.9125 8.88154 46.9941C8.94166 47.0757 9.01919 47.1429 9.10853 47.191C9.19787 47.239 9.29679 47.2666 9.39812 47.2717L14.8154 47.4902L18.4751 47.6382C18.6575 47.6393 18.8334 47.5699 18.9656 47.4444C19.1023 47.3221 19.1858 47.1515 19.1986 46.9687C19.1951 46.7857 19.1248 46.6103 19.0009 46.4754C18.8778 46.3403 18.707 46.2582 18.5245 46.2464L14.4483 46.0773L11.1803 45.9434L13.2802 44.083L20.1514 37.9944C20.2454 37.8966 20.3101 37.7745 20.3385 37.642C20.3669 37.511 20.3595 37.3747 20.3173 37.2474C20.2665 37.1224 20.1867 37.0113 20.0844 36.9232C19.9823 36.8423 19.8605 36.7901 19.7315 36.7717V36.807L9.84985 36.4088C9.76 36.4056 9.67031 36.4187 9.58516 36.4476C9.49791 36.4782 9.41842 36.5275 9.35224 36.592C9.21415 36.7191 9.13068 36.8946 9.11932 37.0818C9.12054 37.2646 9.1905 37.4403 9.31534 37.5741C9.44018 37.7079 9.61079 37.79 9.79338 37.8041L17.9104 38.1353L12.2638 43.1387L8.9605 46.0737C8.86317 46.1667 8.79667 46.2872 8.76993 46.419Z" fill="var(--sapContent_Illustrative_Color5)"/>
<path d="M73.9957 34.6047H69.4325V34.5695H68.7655C68.4155 34.7846 68.0911 35.0387 67.7985 35.327C67.3072 35.8164 66.9164 36.3969 66.648 37.0359C66.3801 37.6791 66.2422 38.3688 66.2422 39.0654V40.7321C67.9311 40.4188 69.6451 40.2596 71.363 40.2564C73.2169 40.2605 75.0658 40.4482 76.8826 40.8166V39.1077C76.8826 38.4111 76.7446 37.7214 76.4767 37.0782C76.0433 36.0322 75.2849 35.1528 74.3133 34.5695H73.9957V34.6047Z" fill="var(--sapContent_Illustrative_Color15)"/>
<path d="M66.2529 40.7462C59.7224 41.9695 53.8412 45.4737 49.6626 50.6315C45.484 55.7892 43.2808 62.2637 43.4475 68.8954C43.4507 61.9759 46.028 55.3042 50.6794 50.1745C55.3308 45.0449 61.7248 41.823 68.6209 41.1338C75.8419 41.4125 82.6742 44.4722 87.6846 49.6711C92.6951 54.8699 95.4944 61.804 95.4954 69.0187V92.901H99.2998V68.8954C99.4481 63.2872 97.8982 57.7647 94.8527 53.05C91.8071 48.3353 87.4076 44.6477 82.2293 42.4692C78.794 41.0212 75.1026 40.276 71.3737 40.2776C69.656 40.2768 67.9418 40.4337 66.2529 40.7462Z" fill="var(--sapContent_Illustrative_Color3)"/>
<path d="M64.7317 102.446C64.7289 104.026 65.2757 105.559 66.2788 106.781C67.2819 108.004 68.679 108.84 70.2314 109.149C71.7839 109.457 73.3954 109.218 74.7906 108.471C76.1859 107.725 77.2783 106.518 77.8813 105.057C78.2737 104.123 78.4486 103.112 78.393 102.101H64.7458C64.7388 102.221 64.7317 102.33 64.7317 102.446Z" fill="var(--sapContent_Illustrative_Color3)"/>
<path d="M43.4403 92.8834C41.4268 93.9683 39.3297 94.8909 37.169 95.6423C35.4044 96.0157 33.9327 97.0869 33.9327 98.8733C33.9362 99.042 33.9503 99.2103 33.9751 99.3772C34.0166 99.627 34.0852 99.8716 34.1798 100.107C34.3412 100.503 34.5813 100.862 34.8856 101.164C35.4919 101.77 36.3145 102.111 37.1725 102.111H105.567C106.427 102.107 107.25 101.767 107.861 101.164C108.462 100.556 108.799 99.7374 108.8 98.8839C108.8 97.0975 107.332 96.0157 105.578 95.6528C103.416 94.9015 101.318 93.9789 99.3031 92.8939H43.4403V92.8834Z" fill="var(--sapContent_Illustrative_Color15)"/>
<path d="M95.4988 69.0011C95.4978 61.7864 92.6985 54.8523 87.688 49.6535C82.6775 44.4546 75.8453 41.3949 68.6243 41.1162C61.7282 41.8054 55.3342 45.0273 50.6828 50.1569C46.0314 55.2866 43.4541 61.9583 43.4509 68.8778V92.8834H95.4988V69.0011Z" fill="var(--sapContent_Illustrative_Color3)"/>
<path opacity="0.3" d="M95.4988 69.0011C95.4978 61.7864 92.6985 54.8523 87.688 49.6535C82.6775 44.4546 75.8453 41.3949 68.6243 41.1162C61.7282 41.8054 55.3342 45.0273 50.6828 50.1569C46.0314 55.2866 43.4541 61.9583 43.4509 68.8778V92.8834H95.4988V69.0011Z" fill="var(--sapContent_Illustrative_Color15)"/>
<path d="M73.8263 22.3394C73.9387 22.6171 73.9962 22.9138 73.9957 23.2132V34.5695H120.644C118.269 30.0793 115.369 25.8863 112.005 22.0787H73.7063C73.7511 22.1633 73.7912 22.2503 73.8263 22.3394Z" fill="var(--sapContent_Illustrative_Color6)"/>
<path d="M69.4325 23.2133C69.432 22.9127 69.4896 22.6148 69.6019 22.3359C69.6408 22.2478 69.6831 22.1633 69.729 22.0787H41.0159C40.7562 22.0755 40.4989 22.1271 40.2606 22.2302C40.0215 22.3451 39.8107 22.5111 39.643 22.7164L39.4277 22.9596L35.5916 27.378C35.2848 27.7157 35.1149 28.1553 35.1149 28.6112C35.1149 29.0672 35.2848 29.5068 35.5916 29.8445L39.5971 34.0233C39.9416 34.3619 40.4021 34.5571 40.8853 34.5695H69.4184L69.4325 23.2133Z" fill="var(--sapContent_Illustrative_Color6)"/>
<path d="M69.4326 23.2133V34.6048H73.9958V23.2133C73.9963 22.9139 73.9388 22.6172 73.8264 22.3395C73.7879 22.2502 73.7443 22.1631 73.6958 22.0788C73.598 21.9054 73.4795 21.7445 73.3429 21.5996C73.1295 21.3904 72.8795 21.222 72.6053 21.1028C72.3269 20.9912 72.0301 20.9326 71.7301 20.9301C71.4288 20.9308 71.1304 20.9894 70.8513 21.1028C70.5745 21.2193 70.3219 21.3867 70.1067 21.5961C69.9709 21.7429 69.8525 21.9049 69.7538 22.0788C69.7079 22.1633 69.6655 22.2479 69.6267 22.336C69.5065 22.6134 69.4406 22.9112 69.4326 23.2133Z" fill="var(--sapContent_Illustrative_Color4)"/>
<path d="M33.1987 85.4242C33.99 85.4242 34.6315 84.7837 34.6315 83.9936C34.6315 83.2036 33.99 82.5631 33.1987 82.5631C32.4073 82.5631 31.7658 83.2036 31.7658 83.9936C31.7658 84.7837 32.4073 85.4242 33.1987 85.4242Z" fill="var(--sapContent_Illustrative_Color10)"/>
<path d="M8.23703 73.7931C9.02837 73.7931 9.66987 73.1527 9.66987 72.3626C9.66987 71.5725 9.02837 70.9321 8.23703 70.9321C7.4457 70.9321 6.8042 71.5725 6.8042 72.3626C6.8042 73.1527 7.4457 73.7931 8.23703 73.7931Z" fill="var(--sapContent_Illustrative_Color10)"/>
<path d="M48.6705 15.3736C50.1635 15.3736 51.3738 14.1652 51.3738 12.6746C51.3738 11.184 50.1635 9.97559 48.6705 9.97559C47.1775 9.97559 45.9672 11.184 45.9672 12.6746C45.9672 14.1652 47.1775 15.3736 48.6705 15.3736Z" fill="var(--sapContent_Illustrative_Color10)"/>
</svg>
