<svg width="320" height="240" viewBox="0 0 320 240" fill="none" xmlns="http://www.w3.org/2000/svg" id="sapIllus-Scene-NoData">
<rect y="58" width="320" height="138" rx="24" fill="var(--sapContent_Illustrative_Color20)"/>
<path d="M240 155.316L231.665 152.999L199.555 145.566L174.176 118.712L154.275 98L53 129.971L80.0616 137.378L75.0126 146.724L137.658 184L141.304 169.255L179.96 183.153L240 155.316Z" fill="var(--sapContent_Illustrative_Color21)"/>
<path d="M171 75L243 96.6186L240.76 154L171 123.579V75Z" fill="var(--sapContent_Illustrative_Color16)"/>
<path d="M113.044 147L171 124.024V75L110 91.0239L113.044 147Z" fill="var(--sapContent_Illustrative_Color28)"/>
<path d="M180 118.264L243 97L240.755 155.003L180 183V118.264Z" fill="var(--sapContent_Illustrative_Color28)"/>
<path d="M193.256 47L267 62.9387L242.426 97L171 75.1471L193.256 47Z" fill="var(--sapContent_Illustrative_Color15)"/>
<path d="M242.834 97L268 126.362L206.775 153L180 118.133L242.834 97Z" fill="var(--sapContent_Illustrative_Color3)"/>
<path d="M171 75.7639L158.255 44L97 56.5585L110.826 92L171 75.7639Z" fill="var(--sapContent_Illustrative_Color3)"/>
<path d="M112.956 147.676L180 183V118.923L110 92L112.956 147.676Z" fill="var(--sapContent_Illustrative_Color29)"/>
<path d="M156.796 161L180 118.526L110.308 92L89 127.184L156.796 161Z" fill="var(--sapContent_Illustrative_Color15)"/>
</svg>