<svg width="128" height="128" viewBox="0 0 128 128" fill="none" xmlns="http://www.w3.org/2000/svg" id="sapIllus-Spot-AddPeople">
<circle cx="64" cy="64" r="64" fill="var(--sapContent_Illustrative_Color7)"/>
<mask id="mask0_1663_6862" class="sapIllus_MaskTypeAlpha" maskUnits="userSpaceOnUse" x="0" y="0" width="128" height="128">
<circle cx="64" cy="64" r="64" fill="var(--sapContent_Illustrative_Color7)"/>
</mask>
<g mask="url(#mask0_1663_6862)">
<path d="M120 96.9315C120 96.2524 118.029 95.7087 115.395 95.5853C115.244 92.9546 114.664 90.9985 113.985 91C113.306 91.0015 112.741 92.9726 112.596 95.6169C109.955 95.7976 107.991 96.3879 108 97.0685C108.009 97.7492 109.971 98.2928 112.605 98.4147C112.764 101.045 113.336 103.002 114.014 103C114.691 102.998 115.259 101.027 115.404 98.3831C118.045 98.2024 120.008 97.6121 120 96.9315Z" fill="var(--sapContent_Illustrative_Color18)"/>
<path d="M63 119.449C63 118.939 61.5215 118.532 59.5459 118.439C59.433 116.466 58.9981 114.999 58.4887 115C57.9793 115.001 57.5557 116.479 57.4473 118.463C55.4661 118.598 53.9932 119.041 54 119.551C54.0068 120.062 55.4786 120.47 57.4541 120.561C57.5727 122.534 58.0019 124.001 58.5102 124C59.0185 123.999 59.4443 122.521 59.5527 120.537C61.5339 120.402 63.0056 119.959 63 119.449Z" fill="var(--sapContent_Illustrative_Color18)"/>
<path d="M95.6119 21.0579C94.9108 29.2082 93.4042 38.4481 87.1806 37.2722C79.3791 35.7955 80.7207 28.1807 81.4267 20.0055C82.1327 11.8302 83.8876 5.21912 89.8213 5.73691C95.3901 6.21379 96.3149 12.8717 95.6119 21.0579Z" fill="var(--sapContent_Illustrative_Color19)"/>
<path d="M101.625 14.3892C104.884 11.7852 106.34 8.19175 104.879 6.36295C103.417 4.53415 99.5903 5.16255 96.3315 7.76653C93.0728 10.3705 91.616 13.964 93.0777 15.7928C94.5394 17.6216 98.3661 16.9932 101.625 14.3892Z" fill="var(--sapContent_Illustrative_Color19)"/>
<path d="M106.253 31.5699C105.349 36.1524 102.455 39.4203 99.7824 38.9189C93.2527 37.693 95.305 34.2229 96.5878 29.6634C97.8706 25.1039 100.378 21.8479 103.058 22.3144C107.973 23.1647 107.161 26.9625 106.253 31.5699Z" fill="var(--sapContent_Illustrative_Color19)"/>
<path d="M107.163 45.7623L71.3162 38.6911C70.8921 38.6074 70.4804 38.8834 70.3967 39.3074L65.6232 63.5062C65.5395 63.9303 65.8156 64.342 66.2397 64.4256L102.086 71.4968C102.51 71.5805 102.922 71.3045 103.006 70.8804L107.779 46.6817C107.863 46.2576 107.587 45.8459 107.163 45.7623Z" fill="var(--sapContent_Illustrative_Color18)"/>
<path d="M107.987 41.4492L72.196 34.3888C71.7718 34.3051 71.3602 34.5811 71.2765 35.0052L69.563 43.6914C69.4794 44.1155 69.7554 44.5272 70.1795 44.6108L105.971 51.6712C106.395 51.7549 106.807 51.4789 106.891 51.0548L108.604 42.3686C108.688 41.9445 108.412 41.5329 107.987 41.4492Z" fill="var(--sapContent_Illustrative_Color19)"/>
<path d="M110.815 38.541L70.9739 30.6818C70.5498 30.5981 70.1381 30.8741 70.0545 31.2982L68.1767 40.8171C68.093 41.2412 68.3691 41.6529 68.7932 41.7365L108.634 49.5957C109.058 49.6794 109.47 49.4034 109.554 48.9793L111.431 39.4604C111.515 39.0363 111.239 38.6246 110.815 38.541Z" fill="var(--sapContent_Illustrative_Color18)"/>
<path d="M6.94396 87.3816L-4.27797 41.3498L-4.37549 41.37L-5.92626 34.9939L-8.3637 35.4993C-8.47794 35.5238 -8.58609 35.5711 -8.68182 35.6384C-8.77754 35.7056 -8.85888 35.7916 -8.92112 35.8911C-8.98336 35.9907 -9.02524 36.1018 -9.04426 36.2181C-9.06328 36.3343 -9.05908 36.4533 -9.0319 36.5681L4.43134 91.8158C4.48685 92.0364 4.62432 92.2273 4.81518 92.3489C5.00605 92.4706 5.23571 92.5137 5.45662 92.4693L76.5627 77.7265C76.6771 77.7028 76.7856 77.6561 76.8814 77.589C76.9772 77.5219 77.0585 77.4359 77.1204 77.3362C77.1823 77.2364 77.2234 77.125 77.2414 77.0086C77.2593 76.8922 77.2537 76.7733 77.2248 76.659L76.5331 73.8129L7.96187 88.0302C7.7423 88.0774 7.51277 88.036 7.32249 87.9148C7.13221 87.7936 6.99633 87.6021 6.94396 87.3816Z" fill="var(--sapContent_Illustrative_Color20)"/>
<path d="M68.5283 26.2542L-4.27795 41.3496L6.94397 87.3814C6.99635 87.602 7.13223 87.7934 7.3225 87.9146C7.51278 88.0359 7.74231 88.0773 7.96188 88.03L79.0863 73.2833C79.2002 73.2598 79.308 73.2133 79.4035 73.1467C79.499 73.0801 79.5802 72.9947 79.6421 72.8957C79.704 72.7966 79.7455 72.6859 79.764 72.5701C79.7825 72.4544 79.7776 72.336 79.7497 72.222L68.5283 26.2542ZM5.69804 44.8946C5.66 44.7444 5.65259 44.588 5.6763 44.435C5.70002 44.282 5.75433 44.1356 5.83597 44.0047C5.9176 43.8738 6.02482 43.761 6.15115 43.6734C6.27748 43.5857 6.42029 43.5249 6.57084 43.4947L28.0203 39.0475C28.3273 38.9838 28.6473 39.0459 28.9099 39.22C29.1725 39.3942 29.3561 39.6662 29.4204 39.9761C29.4584 40.1264 29.4658 40.2827 29.4421 40.4357C29.4184 40.5887 29.3641 40.7351 29.2824 40.866C29.2008 40.997 29.0935 41.1097 28.9672 41.1973C28.8409 41.285 28.6981 41.3458 28.5476 41.376L7.09807 45.8232C6.79101 45.8869 6.47107 45.8248 6.2085 45.6507C5.94593 45.4765 5.76231 45.2046 5.69804 44.8946ZM69.3453 70.0745L14.8685 81.3695C14.6473 81.4172 14.4162 81.3754 14.2245 81.2533C14.0329 81.1311 13.896 80.9382 13.8433 80.716L6.42693 50.2799C6.39889 50.1654 6.39407 50.0464 6.41284 49.9302C6.43161 49.8139 6.47357 49.7028 6.53612 49.6035C6.59868 49.5042 6.68057 49.4188 6.77686 49.3524C6.87315 49.2861 6.98179 49.2401 7.09633 49.2173L61.5853 37.9198C61.8048 37.8725 62.0344 37.9139 62.2247 38.0351C62.4149 38.1564 62.5508 38.3478 62.6032 38.5684L70.0208 69.0107C70.0453 69.1243 70.047 69.2417 70.0258 69.3558C70.0047 69.47 69.9611 69.5787 69.8977 69.6755C69.8343 69.7723 69.7523 69.8553 69.6566 69.9196C69.5608 69.9839 69.4533 70.0282 69.3402 70.0499L69.3453 70.0745Z" fill="var(--sapContent_Illustrative_Color19)"/>
<path d="M-4.2779 41.3498L68.6929 26.2203L66.3973 16.8039C66.3432 16.5825 66.2061 16.3906 66.0148 16.2687C65.8236 16.1468 65.5932 16.1044 65.3721 16.1504L50.4001 19.2546L51.2399 22.6923C51.5092 22.8249 51.7467 23.015 51.9358 23.2495C52.1249 23.484 52.2611 23.7571 52.3349 24.0498C52.3982 24.2969 52.4111 24.5542 52.373 24.8061C52.3348 25.0579 52.2462 25.2992 52.1128 25.5152C51.9793 25.7312 51.8037 25.9175 51.5965 26.0627C51.3893 26.208 51.1548 26.3092 50.9073 26.3602C50.3998 26.4541 49.8753 26.3474 49.4423 26.0622C49.0093 25.777 48.701 25.3351 48.5813 24.8281C48.511 24.5492 48.5047 24.2579 48.5632 23.9767C48.6216 23.6955 48.7432 23.4317 48.9186 23.2057L48.0724 19.7372L9.94471 27.6425L10.7885 31.0986C11.0546 31.2308 11.2891 31.4199 11.4757 31.6527C11.6622 31.8855 11.7964 32.1563 11.8687 32.4464C11.9313 32.6909 11.9447 32.9454 11.9079 33.1949C11.8712 33.4444 11.7851 33.6836 11.6548 33.8986C11.5245 34.1135 11.3526 34.2996 11.1493 34.4459C10.9461 34.5923 10.7155 34.6958 10.4715 34.7505C9.96417 34.8428 9.44038 34.7354 9.00775 34.4504C8.57512 34.1654 8.2665 33.7245 8.14544 33.2183C8.07285 32.9356 8.06632 32.64 8.12631 32.3548C8.18629 32.0696 8.31119 31.8027 8.49115 31.5749L7.64741 28.1188L-5.95956 30.94C-6.07342 30.9635 -6.1813 31.01 -6.27679 31.0766C-6.37229 31.1432 -6.45344 31.2286 -6.51536 31.3276C-6.57728 31.4267 -6.61876 31.5374 -6.63724 31.6532C-6.65572 31.7689 -6.65084 31.8873 -6.62294 32.0013L-5.8957 34.9876L-4.34492 41.3637L-4.2779 41.3498Z" fill="var(--sapContent_Illustrative_Color18)"/>
<path d="M10.2638 33.6255L10.1968 33.6394C9.89772 33.7 9.58658 33.6415 9.32845 33.4763C9.07032 33.311 8.88517 33.0517 8.81169 32.7526L8.52158 31.5682C8.34162 31.796 8.21672 32.0629 8.15674 32.3481C8.09675 32.6333 8.10335 32.9289 8.17595 33.2116C8.297 33.7178 8.60555 34.1587 9.03818 34.4437C9.47081 34.7287 9.99468 34.8361 10.502 34.7437C10.746 34.6891 10.9765 34.5856 11.1798 34.4392C11.383 34.2929 11.5549 34.1068 11.6852 33.8919C11.8155 33.6769 11.9017 33.4376 11.9384 33.1882C11.9752 32.9387 11.9618 32.6842 11.8991 32.4397C11.8268 32.1496 11.6927 31.8788 11.5062 31.646C11.3196 31.4132 11.085 31.2241 10.8189 31.0919L11.109 32.2763C11.1451 32.4214 11.1516 32.5722 11.1283 32.7197C11.105 32.8672 11.0522 33.0082 10.9732 33.1344C10.8942 33.2605 10.7906 33.369 10.6686 33.4535C10.5467 33.5379 10.409 33.5964 10.2638 33.6255Z" fill="var(--sapContent_Illustrative_Color20)"/>
<path d="M50.6833 25.1876L50.6163 25.2015C50.3185 25.2588 50.0099 25.1997 49.7529 25.0362C49.496 24.8726 49.31 24.6169 49.2325 24.3209L48.9638 23.209C48.7884 23.435 48.6669 23.6988 48.6084 23.98C48.5499 24.2613 48.5561 24.5525 48.6265 24.8314C48.7462 25.3384 49.0544 25.7803 49.4875 26.0655C49.9205 26.3507 50.4451 26.4574 50.9526 26.3635C51.2 26.3125 51.4344 26.2113 51.6417 26.0661C51.8489 25.9208 52.0245 25.7345 52.158 25.5185C52.2915 25.3025 52.38 25.0612 52.4182 24.8094C52.4564 24.5575 52.4435 24.3002 52.3802 24.0531C52.3064 23.7605 52.1701 23.4874 51.981 23.2529C51.7919 23.0184 51.5544 22.8282 51.2852 22.6956L51.5602 23.8382C51.597 23.9856 51.6032 24.139 51.5783 24.2887C51.5535 24.4384 51.4981 24.5811 51.4157 24.7079C51.3333 24.8347 51.2257 24.9428 51.0996 25.0253C50.9736 25.1079 50.8318 25.1632 50.6833 25.1876Z" fill="var(--sapContent_Illustrative_Color20)"/>
<path d="M8.81168 32.7528C8.88517 33.0518 9.07032 33.3111 9.32845 33.4764C9.58658 33.6417 9.89772 33.7002 10.1968 33.6396L10.2638 33.6257C10.409 33.5966 10.5467 33.538 10.6686 33.4536C10.7906 33.3692 10.8942 33.2606 10.9732 33.1345C11.0522 33.0084 11.105 32.8673 11.1283 32.7198C11.1516 32.5724 11.1451 32.4215 11.109 32.2764L10.8189 31.092L9.97522 27.6359L9.12128 24.1306C9.04779 23.8315 8.86264 23.5722 8.60451 23.4069C8.34638 23.2416 8.03532 23.1832 7.73627 23.2437L7.69968 23.2513C7.55447 23.2804 7.4167 23.339 7.29476 23.4234C7.17283 23.5078 7.06924 23.6164 6.99023 23.7425C6.91123 23.8686 6.85849 24.0097 6.83516 24.1572C6.81182 24.3046 6.81838 24.4555 6.85447 24.6006L7.70841 28.1059L8.55208 31.562L8.81168 32.7528Z" fill="var(--sapContent_Illustrative_Color18)"/>
<path d="M49.2325 24.3209C49.3077 24.6208 49.4941 24.8806 49.7533 25.0465C50.0124 25.2124 50.3244 25.2719 50.625 25.2126L50.692 25.1987C50.8375 25.1696 50.9754 25.1108 51.0974 25.0259C51.2193 24.941 51.3228 24.8318 51.4012 24.705C51.4797 24.5782 51.5316 24.4365 51.5537 24.2885C51.5758 24.1406 51.5677 23.9895 51.5298 23.8446L51.2547 22.702L50.4149 19.2643L49.5483 15.6974C49.4731 15.3981 49.2866 15.1391 49.0276 14.9742C48.7685 14.8092 48.4567 14.7511 48.1571 14.8119L48.0901 14.8258C47.9451 14.8548 47.8076 14.9133 47.686 14.9977C47.5644 15.0822 47.4612 15.1907 47.3827 15.3169C47.3042 15.443 47.252 15.584 47.2294 15.7313C47.2067 15.8786 47.2141 16.0292 47.251 16.1737L48.1176 19.7406L48.9638 23.209L49.2325 24.3209Z" fill="var(--sapContent_Illustrative_Color19)"/>
<path d="M62.0194 37.9899C61.5535 37.9534 61.0849 37.9878 60.6296 38.092L8.02363 48.9991C7.55716 49.0861 7.10795 49.2485 6.69338 49.4802C6.47869 49.6402 6.52203 50.6769 6.64744 51.1898L13.6126 79.7564C13.7169 80.2165 13.8878 80.6588 14.1199 81.069C14.2768 81.2738 15.284 81.2575 15.7958 81.1513L68.4019 70.2442C68.8685 70.156 69.3174 69.9915 69.7308 69.757C69.9455 69.597 69.9035 68.5664 69.7768 68.0474L62.809 39.4685C62.6923 38.9666 62.2483 38.0515 62.0194 37.9899ZM43.0025 50.4908C42.7525 50.5411 42.4924 50.4921 42.2767 50.354C42.061 50.2159 41.9061 49.9992 41.8445 49.7493L41.5088 48.3755C41.4785 48.2542 41.4729 48.128 41.4924 48.0047C41.5118 47.8813 41.556 47.7633 41.622 47.6578C41.6881 47.5523 41.7748 47.4616 41.8768 47.391C41.9788 47.3205 42.0941 47.2716 42.2156 47.2474L44.0436 46.8684C44.2942 46.8178 44.5548 46.8665 44.7715 47.0043C44.9882 47.1421 45.1443 47.3584 45.2076 47.6086L45.5434 48.9824C45.5728 49.1037 45.5777 49.2296 45.5578 49.3526C45.538 49.4757 45.4938 49.5933 45.4278 49.6986C45.3619 49.8038 45.2755 49.8946 45.174 49.9653C45.0724 50.0361 44.9577 50.0855 44.8366 50.1105L43.0025 50.4908ZM45.7034 53.2796C45.9533 53.2308 46.2125 53.2804 46.4279 53.4183C46.6432 53.5562 46.7983 53.7719 46.8613 54.021L47.197 55.3949C47.2264 55.5161 47.2313 55.642 47.2115 55.7651C47.1916 55.8881 47.1474 56.0057 47.0815 56.111C47.0155 56.2163 46.9292 56.307 46.8276 56.3778C46.7261 56.4485 46.6114 56.4979 46.4903 56.5229L44.6622 56.902C44.4124 56.9507 44.1531 56.9011 43.9378 56.7632C43.7224 56.6253 43.5673 56.4096 43.5043 56.1605L43.1686 54.7867C43.1392 54.6654 43.1342 54.5395 43.1541 54.4165C43.1739 54.2934 43.2182 54.1758 43.2841 54.0705C43.3501 53.9652 43.4364 53.8745 43.538 53.8037C43.6396 53.733 43.7543 53.6836 43.8753 53.6586L45.7034 53.2796ZM44.753 60.9569C44.7226 60.8356 44.7171 60.7094 44.7365 60.586C44.756 60.4627 44.8001 60.3447 44.8662 60.2392C44.9322 60.1337 45.0189 60.0429 45.1209 59.9724C45.223 59.9019 45.3382 59.853 45.4597 59.8288L47.2878 59.4498C47.5376 59.401 47.7969 59.4506 48.0122 59.5885C48.2276 59.7264 48.3827 59.9421 48.4457 60.1912L48.7814 61.5651C48.8108 61.6863 48.8157 61.8122 48.7958 61.9353C48.776 62.0583 48.7318 62.1759 48.6659 62.2812C48.5999 62.3865 48.5136 62.4772 48.412 62.548C48.3104 62.6187 48.1957 62.6681 48.0747 62.6931L46.2466 63.0722C45.9967 63.1209 45.7375 63.0713 45.5221 62.9334C45.3068 62.7955 45.1516 62.5798 45.0886 62.3307L44.753 60.9569ZM35.6504 51.9381C35.3999 51.9887 35.1392 51.94 34.9226 51.8023C34.7059 51.6645 34.5497 51.4481 34.4865 51.1979L34.1507 49.8241C34.1204 49.7025 34.1147 49.5761 34.134 49.4524C34.1533 49.3287 34.1973 49.2103 34.2632 49.1044C34.3291 48.9984 34.4155 48.9071 34.5175 48.8359C34.6194 48.7646 34.7346 48.715 34.8562 48.6899L36.6843 48.3108C36.9358 48.2617 37.1967 48.3117 37.4134 48.4506C37.6301 48.5894 37.7862 48.8065 37.8496 49.0572L38.1791 50.4323C38.2093 50.5531 38.2151 50.6787 38.1959 50.8016C38.1767 50.9244 38.1331 51.042 38.0676 51.1473C38.0022 51.2525 37.9163 51.3433 37.815 51.4141C37.7138 51.4848 37.5993 51.5342 37.4785 51.5591L35.6504 51.9381ZM38.311 54.716C38.5616 54.6655 38.8222 54.7141 39.0389 54.8519C39.2556 54.9897 39.4117 55.2061 39.475 55.4562L39.8107 56.8301C39.841 56.9517 39.8468 57.0781 39.8275 57.2018C39.8081 57.3255 39.7642 57.4438 39.6983 57.5498C39.6324 57.6557 39.5459 57.7471 39.444 57.8183C39.342 57.8895 39.2268 57.9392 39.1052 57.9643L37.2772 58.3433C37.0257 58.3924 36.7648 58.3424 36.5481 58.2036C36.3314 58.0648 36.1753 57.8477 36.1119 57.597L35.7823 56.2219C35.7522 56.1011 35.7464 55.9755 35.7656 55.8526C35.7848 55.7297 35.8284 55.6121 35.8938 55.5069C35.9593 55.4016 36.0452 55.3109 36.1465 55.2401C36.2477 55.1693 36.3622 55.12 36.483 55.0951L38.311 54.716ZM37.3606 62.3933C37.3304 62.2725 37.3247 62.147 37.3439 62.0241C37.363 61.9012 37.4067 61.7836 37.4721 61.6783C37.5376 61.5731 37.6235 61.4823 37.7247 61.4116C37.826 61.3408 37.9404 61.2915 38.0612 61.2665L39.8893 60.8875C40.1397 60.8385 40.3997 60.8878 40.616 61.0254C40.8323 61.1629 40.9887 61.3784 41.0533 61.6277L41.389 63.0015C41.4193 63.1228 41.4249 63.249 41.4055 63.3723C41.386 63.4957 41.3419 63.6137 41.2758 63.7192C41.2097 63.8247 41.1231 63.9154 41.021 63.986C40.919 64.0565 40.8038 64.1054 40.6823 64.1296L38.8542 64.5086C38.6036 64.5592 38.343 64.5105 38.1263 64.3727C37.9096 64.2349 37.7535 64.0186 37.6902 63.7684L37.3606 62.3933ZM28.427 53.423C28.1766 53.472 27.9166 53.4227 27.7003 53.2851C27.484 53.1475 27.3276 52.9321 27.263 52.6828L26.9334 51.3077C26.9022 51.1866 26.8958 51.0604 26.9145 50.9369C26.9331 50.8134 26.9764 50.6951 27.0418 50.5891C27.1072 50.4832 27.1933 50.3918 27.2949 50.3206C27.3965 50.2494 27.5114 50.1997 27.6327 50.1747L29.4608 49.7957C29.7124 49.745 29.9741 49.7943 30.1912 49.9334C30.4083 50.0724 30.5641 50.2905 30.6261 50.542L30.9618 51.9159C30.9912 52.0371 30.9961 52.1631 30.9763 52.2861C30.9564 52.4091 30.9122 52.5268 30.8463 52.632C30.7803 52.7373 30.694 52.828 30.5924 52.8988C30.4908 52.9696 30.3761 53.0189 30.2551 53.044L28.427 53.423ZM31.0876 56.2009C31.3382 56.1503 31.5987 56.199 31.8154 56.3368C32.0321 56.4746 32.1883 56.6909 32.2516 56.9411L32.5872 58.3149C32.6176 58.4365 32.6233 58.563 32.604 58.6867C32.5846 58.8103 32.5407 58.9287 32.4749 59.0346C32.409 59.1406 32.3224 59.2319 32.2205 59.3032C32.1186 59.3744 32.0034 59.424 31.8818 59.4492L30.0537 59.8282C29.8028 59.8771 29.5426 59.8267 29.3268 59.6876C29.111 59.5484 28.9563 59.3311 28.8946 59.0806L28.5588 57.7067C28.5285 57.5854 28.5229 57.4593 28.5424 57.3359C28.5618 57.2126 28.6059 57.0946 28.672 56.9891C28.7381 56.8836 28.8248 56.7928 28.9268 56.7223C29.0288 56.6517 29.1441 56.6028 29.2656 56.5786L31.0876 56.2009ZM30.1372 63.8782C30.1068 63.7569 30.1012 63.6307 30.1206 63.5074C30.1401 63.384 30.1842 63.266 30.2503 63.1605C30.3164 63.0551 30.4031 62.9643 30.5051 62.8937C30.6072 62.8232 30.7224 62.7743 30.8439 62.7501L32.672 62.3711C32.9225 62.3205 33.1832 62.3692 33.3998 62.507C33.6165 62.6448 33.7727 62.8611 33.8359 63.1113L34.1716 64.4851C34.2019 64.6064 34.2076 64.7326 34.1881 64.8559C34.1687 64.9793 34.1246 65.0973 34.0585 65.2028C33.9924 65.3083 33.9056 65.399 33.8036 65.4696C33.7016 65.5401 33.5864 65.589 33.4649 65.6132L31.6368 65.9922C31.3868 66.0426 31.1269 65.9936 30.9111 65.8555C30.6954 65.7173 30.5406 65.5007 30.4789 65.2508L30.1372 63.8782ZM21.1144 54.9071C20.8638 54.9576 20.6032 54.909 20.3865 54.7712C20.1698 54.6334 20.0136 54.417 19.9503 54.1669L19.6147 52.793C19.5853 52.6718 19.5804 52.5459 19.6002 52.4228C19.6201 52.2998 19.6643 52.1821 19.7302 52.0769C19.7962 51.9716 19.8825 51.8809 19.9841 51.8101C20.0856 51.7394 20.2003 51.69 20.3214 51.665L22.1495 51.2859C22.3995 51.2356 22.6595 51.2846 22.8752 51.4227C23.091 51.5609 23.2458 51.7775 23.3074 52.0274L23.6431 53.4012C23.6734 53.5225 23.679 53.6487 23.6596 53.7721C23.6401 53.8954 23.596 54.0134 23.5299 54.1189C23.4638 54.2244 23.3772 54.3151 23.2751 54.3857C23.1731 54.4562 23.0579 54.5051 22.9364 54.5293L21.1144 54.9071ZM23.775 57.685C24.0265 57.6359 24.2873 57.6859 24.5041 57.8247C24.7208 57.9635 24.8769 58.1806 24.9403 58.4313L25.2759 59.8052C25.3053 59.9264 25.3103 60.0523 25.2905 60.1754C25.2706 60.2984 25.2263 60.4161 25.1604 60.5213C25.0944 60.6266 25.0081 60.7173 24.9065 60.7881C24.805 60.8589 24.6903 60.9082 24.5692 60.9332L22.7411 61.3123C22.4907 61.3613 22.2308 61.3119 22.0145 61.1744C21.7982 61.0368 21.6418 60.8214 21.5771 60.5721L21.2414 59.1982C21.2111 59.0766 21.2054 58.9502 21.2247 58.8265C21.244 58.7029 21.288 58.5845 21.3539 58.4785C21.4198 58.3726 21.5062 58.2812 21.6081 58.21C21.71 58.1388 21.8253 58.0891 21.9469 58.064L23.775 57.685ZM22.8246 65.3623C22.7952 65.241 22.7902 65.1151 22.81 64.9921C22.8299 64.869 22.8741 64.7514 22.94 64.6461C23.006 64.5409 23.0923 64.4501 23.1939 64.3794C23.2954 64.3086 23.4102 64.2592 23.5313 64.2342L25.3594 63.8552C25.6098 63.8062 25.8697 63.8555 26.086 63.9931C26.3023 64.1306 26.4587 64.346 26.5233 64.5954L26.859 65.9692C26.8894 66.0908 26.895 66.2173 26.8757 66.3409C26.8564 66.4646 26.8125 66.583 26.7466 66.6889C26.6807 66.7949 26.5942 66.8862 26.4923 66.9574C26.3904 67.0287 26.2752 67.0783 26.1536 67.1034L24.3255 67.4825C24.074 67.5316 23.8131 67.4816 23.5964 67.3427C23.3797 67.2039 23.2236 66.9869 23.1602 66.7361L22.8246 65.3623ZM13.9336 56.3831C13.6831 56.4321 13.4233 56.3827 13.207 56.2452C12.9907 56.1076 12.8342 55.8922 12.7696 55.6429L12.44 54.2678C12.4098 54.147 12.4041 54.0214 12.4233 53.8985C12.4425 53.7757 12.4861 53.6581 12.5515 53.5528C12.617 53.4475 12.7029 53.3568 12.8042 53.286C12.9054 53.2152 13.0199 53.1659 13.1407 53.141L14.9687 52.7619C15.2192 52.713 15.479 52.7623 15.6953 52.8998C15.9116 53.0374 16.0681 53.2528 16.1327 53.5021L16.4684 54.876C16.4978 54.9973 16.5028 55.1231 16.4829 55.2462C16.4631 55.3692 16.4188 55.4869 16.3529 55.5921C16.2869 55.6974 16.2006 55.7881 16.099 55.8589C15.9974 55.9297 15.8827 55.979 15.7617 56.0041L13.9336 56.3831ZM16.5942 59.161C16.8458 59.1103 17.1074 59.1596 17.3245 59.2987C17.5417 59.4378 17.6975 59.6558 17.7594 59.9073L18.0951 61.2812C18.1245 61.4024 18.1295 61.5283 18.1096 61.6514C18.0898 61.7744 18.0455 61.8921 17.9796 61.9973C17.9136 62.1026 17.8274 62.1933 17.7258 62.2641C17.6242 62.3349 17.5094 62.3842 17.3884 62.4092L15.5603 62.7883C15.3105 62.837 15.0513 62.7874 14.8359 62.6495C14.6206 62.5116 14.4654 62.2959 14.4024 62.0468L14.0668 60.673C14.0355 60.5513 14.0291 60.4247 14.048 60.3007C14.0669 60.1767 14.1107 60.0579 14.1767 59.9518C14.2428 59.8456 14.3296 59.7542 14.432 59.6832C14.5344 59.6122 14.6502 59.563 14.7722 59.5388L16.5942 59.161ZM15.6437 66.8383C15.6134 66.717 15.6078 66.5908 15.6273 66.4675C15.6467 66.3441 15.6909 66.2261 15.7569 66.1206C15.823 66.0151 15.9097 65.9244 16.0117 65.8538C16.1137 65.7833 16.229 65.7344 16.3505 65.7102L18.1785 65.3312C18.4291 65.2806 18.6897 65.3293 18.9064 65.4671C19.1231 65.6049 19.2792 65.8213 19.3425 66.0714L19.6783 67.4452C19.7086 67.5668 19.7143 67.6933 19.695 67.8169C19.6756 67.9406 19.6317 68.059 19.5658 68.1649C19.4999 68.2709 19.4134 68.3622 19.3115 68.4334C19.2096 68.5047 19.0943 68.5543 18.9727 68.5794L17.1447 68.9585C16.8938 69.0074 16.6335 68.957 16.4177 68.8179C16.2019 68.6787 16.0472 68.4614 15.9855 68.2109L15.6437 66.8383ZM54.4782 57.9589C54.7288 57.9084 54.9894 57.957 55.2061 58.0948C55.4228 58.2326 55.5789 58.449 55.6422 58.6991L55.9779 60.073C56.0073 60.1942 56.0123 60.3201 55.9924 60.4431C55.9726 60.5662 55.9283 60.6839 55.8624 60.7891C55.7964 60.8944 55.7101 60.9851 55.6086 61.0559C55.507 61.1266 55.3922 61.176 55.2712 61.201L53.4431 61.5801C53.1926 61.629 52.9328 61.5797 52.7165 61.4422C52.5002 61.3046 52.3437 61.0892 52.2791 60.8399L51.9495 59.4647C51.9194 59.344 51.9136 59.2184 51.9328 59.0955C51.952 58.9726 51.9956 58.855 52.061 58.7498C52.1265 58.6445 52.2124 58.5538 52.3137 58.483C52.4149 58.4122 52.5294 58.3629 52.6502 58.3379L54.4782 57.9589ZM51.8526 55.4111C51.6026 55.4615 51.3427 55.4125 51.127 55.2743C50.9112 55.1362 50.7564 54.9196 50.6947 54.6697L50.359 53.2958C50.3287 53.1745 50.3231 53.0484 50.3426 52.925C50.362 52.8016 50.4061 52.6836 50.4722 52.5782C50.5383 52.4727 50.625 52.3819 50.727 52.3114C50.829 52.2408 50.9443 52.192 51.0658 52.1677L52.8939 51.7887C53.1445 51.7382 53.405 51.7868 53.6217 51.9246C53.8384 52.0624 53.9946 52.2788 54.0579 52.5289L54.3935 53.9028C54.4229 54.024 54.4279 54.1499 54.4081 54.2729C54.3882 54.396 54.3439 54.5136 54.278 54.6189C54.212 54.7242 54.1257 54.8149 54.0241 54.8857C53.9226 54.9564 53.8079 55.0058 53.6868 55.0308L51.8526 55.4111ZM51.261 45.3848C51.5114 45.3358 51.7713 45.3851 51.9877 45.5227C52.204 45.6602 52.3604 45.8756 52.425 46.125L52.7607 47.4988C52.7901 47.6201 52.795 47.746 52.7752 47.869C52.7553 47.9921 52.7111 48.1097 52.6452 48.215C52.5792 48.3203 52.4929 48.411 52.3913 48.4818C52.2897 48.5525 52.175 48.6019 52.054 48.6269L50.2259 49.0059C49.9755 49.0549 49.7155 49.0056 49.4992 48.868C49.2829 48.7305 49.1266 48.5151 49.0619 48.2657L48.7262 46.8919C48.6968 46.7706 48.6919 46.6447 48.7117 46.5217C48.7316 46.3986 48.7758 46.281 48.8417 46.1757C48.9077 46.0705 48.994 45.9797 49.0956 45.909C49.1971 45.8382 49.3118 45.7888 49.4329 45.7638L51.261 45.3848ZM18.7072 75.146C18.4574 75.1948 18.1981 75.1451 17.9828 75.0072C17.7674 74.8693 17.6124 74.6537 17.5494 74.4045L17.2136 73.0307C17.1833 72.9094 17.1777 72.7833 17.1972 72.6599C17.2166 72.5366 17.2607 72.4186 17.3268 72.3131C17.3929 72.2076 17.4796 72.1168 17.5816 72.0463C17.6836 71.9757 17.7989 71.9269 17.9203 71.9026L19.7484 71.5236C19.999 71.4731 20.2596 71.5217 20.4763 71.6595C20.693 71.7973 20.8492 72.0137 20.9125 72.2638L21.2481 73.6377C21.2775 73.7589 21.2824 73.8848 21.2626 74.0079C21.2428 74.1309 21.1986 74.2486 21.1326 74.3538C21.0667 74.4591 20.9803 74.5498 20.8788 74.6206C20.7772 74.6914 20.6625 74.7407 20.5414 74.7657L18.7072 75.146ZM25.9159 73.6514C25.6655 73.7004 25.4057 73.6511 25.1893 73.5135C24.973 73.376 24.8166 73.1605 24.752 72.9112L24.4163 71.5373C24.3869 71.4161 24.3819 71.2902 24.4018 71.1672C24.4216 71.0441 24.4659 70.9265 24.5318 70.8212C24.5978 70.7159 24.684 70.6252 24.7856 70.5545C24.8872 70.4837 25.002 70.4343 25.123 70.4093L26.9511 70.0302C27.2015 69.9813 27.4614 70.0306 27.6777 70.1682C27.894 70.3057 28.0504 70.5211 28.1151 70.7705L28.4507 72.1443C28.4801 72.2656 28.4851 72.3915 28.4653 72.5145C28.4454 72.6375 28.4012 72.7552 28.3352 72.8605C28.2693 72.9657 28.183 73.0564 28.0814 73.1272C27.9799 73.198 27.8651 73.2473 27.744 73.2724L25.9159 73.6514ZM33.2346 72.1661C32.9848 72.2148 32.7256 72.1651 32.5102 72.0272C32.2949 71.8893 32.1398 71.6737 32.0768 71.4246L31.7411 70.0507C31.7108 69.9294 31.7051 69.8033 31.7246 69.6799C31.744 69.5566 31.7881 69.4386 31.8542 69.3331C31.9203 69.2276 32.007 69.1368 32.109 69.0663C32.211 68.9957 32.3263 68.9469 32.4478 68.9227L34.2759 68.5436C34.5265 68.4931 34.7871 68.5417 35.0038 68.6795C35.2205 68.8173 35.3766 69.0337 35.4399 69.2838L35.7755 70.6577C35.8049 70.779 35.8099 70.9048 35.7901 71.0279C35.7702 71.1509 35.726 71.2686 35.66 71.3738C35.5941 71.4791 35.5077 71.5698 35.4061 71.6406C35.3046 71.7114 35.1899 71.7607 35.0688 71.7858L33.2346 72.1661ZM40.4434 70.6714C40.193 70.7204 39.933 70.6711 39.7167 70.5335C39.5004 70.396 39.344 70.1806 39.2793 69.9312L38.9498 68.5561C38.9196 68.4353 38.9139 68.3097 38.9331 68.1868C38.9523 68.064 38.9958 67.9464 39.0613 67.8411C39.1267 67.7359 39.2127 67.6451 39.3139 67.5744C39.4151 67.5036 39.5296 67.4542 39.6504 67.4293L41.4785 67.0503C41.7289 67.0013 41.9888 67.0506 42.2052 67.1882C42.4215 67.3257 42.5778 67.5412 42.6425 67.7905L42.9782 69.1643C43.0076 69.2856 43.0125 69.4115 42.9927 69.5345C42.9728 69.6576 42.9286 69.7752 42.8627 69.8805C42.7967 69.9857 42.7104 70.0765 42.6088 70.1472C42.5072 70.218 42.3925 70.2674 42.2715 70.2924L40.4434 70.6714ZM47.821 69.2252C47.5712 69.2739 47.3119 69.2243 47.0966 69.0864C46.8812 68.9485 46.7261 68.7328 46.6631 68.4837L46.3274 67.1099C46.298 66.9886 46.2931 66.8627 46.3129 66.7397C46.3328 66.6166 46.377 66.499 46.4429 66.3937C46.5089 66.2884 46.5952 66.1977 46.6968 66.1269C46.7984 66.0562 46.9131 66.0068 47.0341 65.9818L48.8622 65.6028C49.112 65.554 49.3713 65.6037 49.5867 65.7416C49.802 65.8795 49.9572 66.0951 50.0202 66.3442L50.3558 67.7181C50.3852 67.8393 50.3901 67.9652 50.3703 68.0883C50.3504 68.2113 50.3062 68.329 50.2403 68.4342C50.1743 68.5395 50.088 68.6302 49.9864 68.701C49.8849 68.7718 49.7702 68.8211 49.6491 68.8461L47.821 69.2252ZM55.4023 45.4949C55.3729 45.3736 55.3679 45.2477 55.3877 45.1247C55.4076 45.0016 55.4518 44.884 55.5178 44.7787C55.5837 44.6735 55.67 44.5827 55.7716 44.512C55.8731 44.4412 55.9879 44.3918 56.109 44.3668L57.9371 43.9878C58.1875 43.9388 58.4474 43.9881 58.6637 44.1257C58.88 44.2632 59.0364 44.4786 59.101 44.728L59.4367 46.1018C59.4671 46.2234 59.4727 46.3499 59.4534 46.4735C59.4341 46.5972 59.3902 46.7156 59.3243 46.8215C59.2584 46.9275 59.1719 47.0188 59.07 47.09C58.9681 47.1613 58.8529 47.2109 58.7313 47.236L56.9032 47.6151C56.6517 47.6642 56.3908 47.6142 56.1741 47.4753C55.9574 47.3365 55.8013 47.1195 55.7379 46.8687L55.4023 45.4949ZM57.0351 51.8988C57.0048 51.7775 56.9992 51.6513 57.0186 51.528C57.0381 51.4046 57.0822 51.2866 57.1483 51.1811C57.2144 51.0757 57.301 50.9849 57.4031 50.9143C57.5051 50.8438 57.6203 50.7949 57.7418 50.7707L59.5699 50.3917C59.8205 50.3412 60.0811 50.3898 60.2978 50.5276C60.5145 50.6654 60.6706 50.8818 60.7339 51.1319L61.0696 52.5057C61.099 52.627 61.1039 52.7529 61.0841 52.8759C61.0642 52.999 61.02 53.1166 60.9541 53.2219C60.8881 53.3272 60.8018 53.4179 60.7002 53.4887C60.5986 53.5594 60.4839 53.6088 60.3628 53.6338L58.5347 54.0129C58.2849 54.0616 58.0257 54.0119 57.8103 53.874C57.595 53.7361 57.4399 53.5205 57.3769 53.2714L57.0351 51.8988ZM60.1192 60.183C59.8692 60.2334 59.6092 60.1844 59.3934 60.0463C59.1777 59.9081 59.0228 59.6915 58.9612 59.4416L58.6255 58.0677C58.5952 57.9464 58.5896 57.8203 58.6091 57.6969C58.6286 57.5736 58.6727 57.4556 58.7387 57.3501C58.8048 57.2446 58.8915 57.1538 58.9935 57.0833C59.0956 57.0127 59.2108 56.9639 59.3323 56.9397L61.1603 56.5606C61.4109 56.5101 61.6715 56.5587 61.8882 56.6965C62.1049 56.8343 62.261 57.0507 62.3243 57.3009L62.6601 58.6747C62.6895 58.7959 62.6944 58.9218 62.6745 59.0449C62.6547 59.1679 62.6105 59.2856 62.5445 59.3908C62.4786 59.4961 62.3922 59.5868 62.2907 59.6576C62.1891 59.7284 62.0743 59.7777 61.9533 59.8028L60.1192 60.183Z" fill="var(--sapContent_Illustrative_Color7)"/>
<path d="M7.12958 45.7908L28.5425 41.3511C28.693 41.3209 28.8358 41.2602 28.9621 41.1725C29.0884 41.0848 29.1957 40.9721 29.2774 40.8412C29.359 40.7102 29.4133 40.5638 29.437 40.4109C29.4607 40.2579 29.4533 40.1015 29.4153 39.9512C29.3342 39.639 29.1373 39.3697 28.8653 39.1992C28.5933 39.0287 28.2671 38.97 27.9543 39.0353L6.54745 43.4737C6.3969 43.5039 6.25417 43.5646 6.12784 43.6523C6.00151 43.74 5.89422 43.8527 5.81258 43.9836C5.73094 44.1146 5.67663 44.261 5.65292 44.414C5.6292 44.5669 5.63661 44.7233 5.67466 44.8735C5.75544 45.1847 5.9513 45.4533 6.22195 45.6239C6.49261 45.7946 6.81745 45.8543 7.12958 45.7908Z" fill="var(--sapContent_Illustrative_Color7)"/>
<circle cx="69.3719" cy="73.7655" r="35.2304" fill="var(--sapContent_Illustrative_Color9)"/>
<path d="M69.3719 70.4462C74.382 70.4462 78.4434 66.3848 78.4434 61.3747C78.4434 56.3647 74.382 52.3032 69.3719 52.3032C64.3619 52.3032 60.3004 56.3647 60.3004 61.3747C60.3004 66.3848 64.3619 70.4462 69.3719 70.4462Z" fill="var(--sapContent_Illustrative_Color17)"/>
<path d="M69.3718 73.7725C73.5603 73.7725 77.5773 75.4364 80.5391 78.3981C83.5008 81.3599 85.1647 85.3768 85.1647 89.5654V95.1707H53.5789V89.5654C53.5789 85.3768 55.2428 81.3599 58.2045 78.3981C61.1662 75.4364 65.1832 73.7725 69.3718 73.7725Z" fill="var(--sapContent_Illustrative_Color17)"/>
<path d="M37.8264 113.157C49.0199 113.157 58.094 104.083 58.094 92.8892C58.094 81.6957 49.0199 72.6216 37.8264 72.6216C26.6329 72.6216 17.5588 81.6957 17.5588 92.8892C17.5588 104.083 26.6329 113.157 37.8264 113.157Z" fill="var(--sapContent_Illustrative_Color3)"/>
<path d="M37.8341 81.8525H37.8267C36.3142 81.8525 35.088 83.0787 35.088 84.5912V101.187C35.088 102.7 36.3142 103.926 37.8267 103.926H37.8341C39.3467 103.926 40.5728 102.7 40.5728 101.187V84.5912C40.5728 83.0787 39.3467 81.8525 37.8341 81.8525Z" fill="var(--sapContent_Illustrative_Color8)"/>
<path d="M27.2596 92.5763V93.1957C27.2596 94.5393 28.3488 95.6284 29.6924 95.6284H45.9826C47.3261 95.6284 48.4153 94.5393 48.4153 93.1957V92.5763C48.4153 91.2328 47.3261 90.1437 45.9826 90.1437H29.6924C28.3488 90.1437 27.2596 91.2328 27.2596 92.5763Z" fill="var(--sapContent_Illustrative_Color8)"/>
</g>
</svg>
