<svg width="128" height="128" viewBox="0 0 128 128" fill="none" xmlns="http://www.w3.org/2000/svg" id="sapIllus-Spot-Achievement">
<rect y="42" width="128" height="55" rx="8" fill="var(--sapContent_Illustrative_Color20)"/>
<path d="M73.3746 42.0159C73.3032 42.3227 73.2596 42.6335 73.2477 42.9403C73.1882 42.6216 73.1327 42.3148 73.0733 42.0159H40.9144C40.9976 42.4223 41.2712 43.785 41.3465 44.1316C41.4297 44.538 41.8143 44.8647 42.4407 45.1118C42.4724 45.3229 42.5081 45.5501 42.5477 45.809C42.6706 46.5621 42.8411 47.5104 43.075 48.6021C43.0829 48.6379 43.0908 48.6738 43.0987 48.7097C42.8648 48.3311 42.9164 48.6431 42.5477 48.3443C41.8222 47.7586 40.3554 46.6733 38.2824 47.0278C36.2094 47.3822 34 48.7097 34 51.8381C34 53.6149 34.5279 55.4681 39.0382 58.2004C42.5256 60.313 47.3048 62.1675 49.8064 65.4001C49.8421 65.4439 49.8778 65.4917 49.9135 65.5396C49.9611 65.5993 50.0086 65.6631 50.0602 65.7228C50.0998 65.7706 50.1394 65.8185 50.1791 65.8663C50.2306 65.926 50.2822 65.9858 50.3337 66.0496C50.3773 66.0974 50.4209 66.1492 50.4645 66.197C50.5161 66.2567 50.5716 66.3165 50.6271 66.3763C50.6746 66.4281 50.7182 66.4759 50.7658 66.5277C50.8213 66.5874 50.8768 66.6432 50.9323 66.703C50.9799 66.7548 51.0314 66.8026 51.083 66.8544C51.1424 66.9142 51.1979 66.9699 51.2574 67.0297C51.3089 67.0815 51.3605 67.1333 51.416 67.1811C51.4754 67.2369 51.5349 67.2927 51.5983 67.3524C51.6538 67.4042 51.7093 67.456 51.7648 67.5038C51.8283 67.5596 51.8877 67.6154 51.9511 67.6712C52.0106 67.723 52.0661 67.7708 52.1256 67.8226C52.189 67.8784 52.2564 67.9302 52.3198 67.9859C52.3793 68.0338 52.4388 68.0856 52.5022 68.1334C52.5696 68.1891 52.637 68.2409 52.7044 68.2927C52.7678 68.3406 52.8273 68.3924 52.8907 68.4402C52.9621 68.492 53.0334 68.5438 53.1048 68.5995C53.1682 68.6474 53.2316 68.6952 53.2951 68.739C53.3704 68.7948 53.4497 68.8466 53.529 68.9023C53.5884 68.9462 53.6519 68.986 53.7113 69.0298C53.8501 69.1215 53.9888 69.2131 54.1276 69.3008C54.195 69.3446 54.2663 69.3845 54.3377 69.4283C54.413 69.4761 54.4923 69.5239 54.5676 69.5677C54.643 69.6116 54.7183 69.6554 54.7936 69.6952C54.8689 69.7391 54.9442 69.7829 55.0196 69.8227C55.0989 69.8666 55.1781 69.9064 55.2535 69.9463C55.3288 69.9861 55.4041 70.0259 55.4794 70.0658C55.5587 70.1056 55.642 70.1455 55.7213 70.1853C55.7966 70.2212 55.8759 70.261 55.9512 70.2969C56.0344 70.3367 56.1177 70.3726 56.2009 70.4084C56.2763 70.4443 56.3556 70.4762 56.4348 70.508C56.5181 70.5439 56.6053 70.5798 56.6925 70.6116C56.7718 70.6435 56.8511 70.6714 56.9264 70.7033C56.9899 70.7272 57.0493 70.7511 57.1127 70.771C57.3229 71.6994 57.8541 72.7791 58.8848 73.1855C57.533 74.5482 56.419 74.4247 55.4239 75.1976C54.4289 75.9706 53.2634 79.0465 52.6132 80.5924C51.963 82.1384 51.6935 86.6088 50.0126 88.5253C49.0215 89.6568 44.5735 93.7926 41.0848 97H58.7857C58.869 96.9482 58.9522 96.9044 59.0275 96.8645C59.6856 96.5338 60.6291 96.4462 61.5489 96.3904C61.3665 96.5378 61.1326 96.745 60.8829 96.996H79L78.9921 96.9522C78.56 94.6014 75.2695 93.1591 71.1347 93.2587C71.0356 92.9399 70.9365 92.5814 70.8374 92.1789C71.7016 91.5096 71.6144 89.8879 71.995 88.609C72.3835 87.2941 73.3032 87.1108 73.4697 85.808C73.5609 85.0948 72.9662 83.9592 72.9662 83.9592C73.5728 83.505 74.2705 82.732 74.108 81.0945C74.0247 80.2418 73.212 79.1541 73.212 79.1541C74.3776 78.7596 74.7859 77.907 74.6273 76.3292C74.5837 75.879 74.2467 75.5004 73.9018 75.2215H73.9098C73.9098 75.2215 73.6441 74.9865 73.4578 74.8868C73.3072 74.8072 73.0931 74.7115 73.0931 74.7115H73.0891C73.0891 74.7115 73.4856 74.2175 73.2556 73.1935C73.0217 72.1695 72.2804 71.2611 71.7333 70.9902C71.1862 70.7192 70.2863 70.7033 69.1723 71.4444C68.9662 71.5798 68.768 71.7073 68.5658 71.8348C68.6808 71.6037 68.8433 71.3766 69.0693 71.1575C69.9811 70.2849 69.6362 68.4402 69.5054 67.8863C71.7769 65.6192 73.1565 62.7585 73.6838 60.7265C73.8463 60.9297 74.0406 61.097 74.2586 61.2245C74.7225 61.4915 75.2576 61.5552 75.8166 61.4078C76.0862 61.344 76.3597 61.2245 76.6372 61.0532C76.994 60.8301 77.113 60.3519 76.891 59.9933C76.669 59.6347 76.2012 59.5152 75.8364 59.7383C75.6382 59.8619 75.2695 60.0411 75.0198 59.8937C74.77 59.7463 74.5044 59.2283 74.5282 58.2004C74.556 56.9812 75.7254 55.0647 77.5411 52.5346C77.2755 51.6461 77.0971 50.7257 76.9821 49.7854C76.0783 51.0883 75.2021 52.4709 74.5005 53.7897C74.4648 52.3792 74.326 50.9648 74.1674 49.3432C74.1119 48.7814 74.0485 48.2196 73.9772 47.6578C74.5996 47.594 75.2735 47.4187 75.7135 47.0083C76.0624 46.6816 76.2368 46.2553 76.217 45.7732C76.2051 45.3469 76.0584 44.8847 75.8999 44.3508C75.658 43.5619 75.3885 42.6813 75.5708 42H73.3666L73.3746 42.0159ZM40.3554 55.2372C38.2363 53.9531 37.5119 52.5441 37.829 51.0381C38.0035 49.5599 39.8509 48.5837 41.4564 49.9224C43.2344 51.3588 43.1345 49.6573 44.7816 53.7116C45.4219 55.78 46.4481 56.9481 47.4856 59.154C45.6303 57.4607 43.0987 56.8995 40.3554 55.2372Z" fill="var(--sapContent_Illustrative_Color21)"/>
<path d="M67.437 95.3989L68.6716 99.6191C68.7393 99.9016 68.8667 100.164 69.0499 100.391C69.8862 101.425 72.427 103.76 78.5202 102.754C85.0714 101.668 87.0586 98.2628 87.7197 96.7672C87.875 96.4132 87.9069 96.0194 87.8073 95.6455L86.9551 90.9917L67.437 95.3989Z" fill="var(--sapContent_Illustrative_Color3)"/>
<path d="M69.0579 95.0312L67.437 95.3972L68.6716 99.6174C68.7393 99.8999 68.8667 100.162 69.0499 100.389C69.5597 101.018 70.6986 102.127 72.885 102.676L72.3195 98.6509L69.0579 95.0312Z" fill="var(--sapContent_Illustrative_Color29)"/>
<path d="M78.3667 98.3533C83.7557 97.1364 87.6014 93.8397 86.9563 90.9899C86.3112 88.1401 81.4196 86.8164 76.0306 88.0334C70.6416 89.2503 66.7959 92.547 67.441 95.3968C68.0861 98.2466 72.9777 99.5703 78.3667 98.3533Z" fill="var(--sapContent_Illustrative_Color26)"/>
<path d="M68.0266 92.7289C67.4651 93.6119 67.2421 94.5268 67.4412 95.3979C67.8235 97.0963 69.7192 98.2498 72.3237 98.6515L80.9059 91.8379L68.0266 92.7289Z" fill="var(--sapContent_Illustrative_Color16)"/>
<path d="M68.9226 68.388C68.4328 66.801 68.8231 66.256 68.8231 66.256L63.9326 65.6753C64.1716 66.61 64.753 67.6999 65.8243 68.0738C67.1504 68.5392 68.2337 70.5399 68.2337 70.5399C68.2337 70.5399 68.2775 70.6831 68.3531 70.9377L71.8816 69.995C71.8816 69.995 69.4125 69.9751 68.9226 68.388Z" fill="var(--sapContent_Illustrative_Color16)"/>
<path d="M67.6446 96.0375C67.6446 96.0375 68.7836 95.783 70.1775 96.0296C71.5713 96.2762 73.925 95.0988 75.064 94.0249C76.2029 92.9509 76.1352 88.9375 76.1352 88.9375L69.7593 90.8348C69.7593 90.8348 67.0751 92.8435 67.3778 95.063C67.4694 95.7313 67.6406 96.0375 67.6406 96.0375H67.6446Z" fill="var(--sapContent_Illustrative_Color29)"/>
<path d="M81.7502 90.5928C81.6227 90.0359 81.1767 89.5944 80.5156 89.2961C80.1094 89.0495 79.6673 88.9301 79.6673 88.9301C77.8035 87.713 75.5734 68.6323 75.5734 68.6323C75.5734 68.6323 74.7012 66.9697 75.9796 65.6531C77.023 64.5792 76.2384 62.2085 76.2384 62.2085C70.2687 66.7151 63.8809 65.4423 63.8809 65.4423C63.8968 65.5179 63.9127 65.5974 63.9366 65.673L68.8271 66.2537C68.8271 66.2537 68.4328 66.7987 68.9266 68.3857C69.4165 69.9728 71.8856 69.9927 71.8856 69.9927L68.3571 70.9354C69.062 73.2623 73.1321 88.7233 73.1281 90.4615C72.1883 91.1775 71.6865 92.0366 71.8657 92.8242C72.1923 94.2681 74.6693 94.9363 77.4013 94.3198C80.1333 93.7033 82.0807 92.0327 81.7541 90.5888L81.7502 90.5928Z" fill="var(--sapContent_Illustrative_Color26)"/>
<path d="M47.9946 39.5121C47.9946 39.5121 49.5757 50.7687 55.7007 59.7502C57.9309 63.0198 63.8329 67.4508 70.0535 66.0627C76.2741 64.6745 79.4999 58.4495 80.2247 54.9373C81.1646 50.3829 80.7743 47.6582 80.2247 43.6965C79.4362 38.0006 77.6759 31.9546 77.6759 31.9546L47.9946 39.5121Z" fill="var(--sapContent_Illustrative_Color26)"/>
<path d="M56.6851 60.1536C52.2771 57.7382 51.0931 57.4243 45.9794 55.4389C41.6323 53.4772 39.6298 50.8395 39.7611 48.3881C39.784 46.6513 41.4224 44.9021 43.5055 44.1384C46.3005 43.1166 49.0501 43.848 50.0734 44.4159C51.0966 44.9838 55.0605 49.4498 54.7152 49.7151C54.4026 49.9516 53.3249 51.0971 52.0665 50.8526C51.5902 50.7577 51.4773 50.3694 51.2409 49.9454C51.0288 49.5764 50.4274 48.9291 50.2914 48.3881C50.0573 47.4579 48.6864 46.7342 47.1566 46.4819C44.7232 46.0805 43.209 47.4821 43.2672 48.9772C43.3242 50.2306 44.4429 52.0656 47.1566 53.1203C51.0392 54.6262 55.8601 54.7896 57.3094 57.0374C58.1197 58.2896 57.7978 60.8077 56.6838 60.1498L56.6851 60.1536Z" fill="var(--sapContent_Illustrative_Color16)"/>
<path d="M74.7055 34.1626C74.7055 34.1626 77.8476 44.2578 77.7042 50.8885C77.6405 53.812 77.1746 55.6457 75.721 57.5788C75.4581 57.9289 74.9524 58.3942 74.6059 58.7005C74.5382 58.7602 74.4386 58.6846 74.4745 58.6051C74.8568 57.7698 75.5219 55.5224 74.8886 50.622C74.1877 45.2323 70.9858 35.8054 70.9858 35.8054L74.7094 34.1666L74.7055 34.1626Z" fill="var(--sapContent_Illustrative_Color27)"/>
<path d="M59.6473 42.0253C66.7799 39.4399 71.1526 37.0215 71.1526 37.0215L53.4028 38.1312L47.9946 39.5075C47.9946 39.5075 49.5757 50.7642 55.7007 59.7456C57.7835 62.8044 63.0842 66.8735 68.8508 66.257C60.3004 62.1043 57.0547 53.4292 55.8281 47.7412C55.2228 44.9369 55.7724 43.4294 59.6473 42.0253Z" fill="var(--sapContent_Illustrative_Color15)"/>
<path d="M77.995 29.6437C77.6684 28.347 70.3566 29.0709 61.6669 31.2626C52.9771 33.4542 46.195 36.2784 46.5216 37.5751L46.7565 38.5376L49.2934 39.3809L61.4439 32.3962C61.6032 32.3564 61.7585 32.3127 61.9178 32.2729C64.2236 31.6922 66.7445 31.2069 69.0902 30.8211L76.1989 32.253L78.0228 30.7773L78.1463 30.2403L77.991 29.6397L77.995 29.6437Z" fill="var(--sapContent_Illustrative_Color26)"/>
<path d="M78.5604 31.8506C78.4648 31.4807 77.9949 29.6431 77.9949 29.6431C78.3214 30.9398 75.0399 34.0304 63.1124 36.9698C51.1849 39.9093 46.848 38.8751 46.5215 37.5784C46.5215 37.5784 46.9635 39.3882 47.0671 39.79C47.5609 41.747 55.0121 41.556 63.7098 39.3644C72.4075 37.1727 79.0542 33.8076 78.5604 31.8506Z" fill="var(--sapContent_Illustrative_Color27)"/>
<path d="M44.5 97C44.5 97 55.9123 85.7074 57.5252 83.7266C59.1381 81.7457 59.2337 77.2749 59.8231 75.7077C60.4125 74.1405 61.4639 71.0261 62.4316 70.2146C63.3993 69.4032 64.5184 69.4867 65.8247 68.0707C65.8247 68.0707 66.3583 68.1821 67.103 68.9338C67.7323 69.5663 68.1584 70.3658 68.1584 70.3658C68.1584 70.3658 71.6351 69.1407 76.0954 65.9347C77.1866 65.1511 78.0867 65.1312 78.6482 65.3818C79.2097 65.6324 79.9903 66.5075 80.2611 67.5178C80.5319 68.5281 80.1535 69.0373 80.1535 69.0373C80.1535 69.0373 81.6271 69.622 81.7625 70.5885C81.9815 72.1557 81.6071 73.0268 80.4522 73.4643C80.4522 73.4643 81.3085 74.5144 81.4279 75.3617C81.6549 76.9885 80.9859 77.788 80.3925 78.2653C80.3925 78.2653 81.0377 79.3711 80.9739 80.0871C80.8584 81.3917 79.9425 81.6105 79.604 82.939C79.2655 84.2676 79.4367 85.9302 78.5168 86.6024C75.6773 88.6748 74.7016 89.6652 71.8143 90.6914C70.6833 91.0931 68.238 90.8982 66.9597 91.6023C65.6813 92.3063 61 97 61 97H44.5Z" fill="var(--sapContent_Illustrative_Color15)"/>
<path d="M76.9634 30.9786C76.6687 29.8052 71.1251 30.1672 64.1598 31.7383L64.1518 31.7542C64.1518 31.7542 54.5103 34.9244 55.7408 38.4844C57.9312 38.1502 60.4521 37.6371 63.1084 36.9689C71.0853 34.9562 77.286 32.2753 76.9594 30.9826L76.9634 30.9786Z" fill="var(--sapContent_Illustrative_Color29)"/>
<path d="M64.152 31.7566L64.16 31.7407C63.4312 31.9038 62.6825 32.0828 61.9258 32.2737C53.949 34.2864 47.7483 36.9673 48.0748 38.26C48.2939 39.1232 51.3604 39.155 55.7451 38.4828C54.5145 34.9228 64.156 31.7527 64.156 31.7527L64.152 31.7566Z" fill="var(--sapContent_Illustrative_Color29)"/>
<path d="M66.8238 68.6841C66.8238 68.6841 66.6127 69.233 65.9437 69.7421C65.7087 69.9211 65.2906 70.2791 65.2149 70.5615L65.0078 73.2941C65.0078 73.2941 65.6609 70.8956 68.1579 70.3666C68.1579 70.3666 67.7039 69.408 66.8238 68.6841Z" fill="var(--sapContent_Illustrative_Color29)"/>
<path d="M80.1614 69.0373C80.1614 69.0373 79.345 69.9561 76.1869 71.7142C73.0288 73.4723 73.1762 73.7269 73.5744 73.8343C73.9727 73.9417 74.7691 74.5184 76.7365 72.8717C77.7679 72.0125 78.672 70.9187 79.2614 70.3658C80.0738 69.6021 80.9977 69.5066 80.9977 69.5066C80.9977 69.5066 80.7229 69.2839 80.5318 69.1884C80.3804 69.1128 80.1574 69.0293 80.1574 69.0293L80.1614 69.0373Z" fill="var(--sapContent_Illustrative_Color29)"/>
<path d="M80.4558 73.4736C80.4558 73.4736 77.0628 76.1267 76.4694 76.5921C75.876 77.0575 75.9119 78.3025 76.6207 77.8729C77.3296 77.4433 78.3412 75.8483 79.2014 74.9931C80.0616 74.1379 80.7983 73.947 80.7983 73.947L80.4558 73.4736Z" fill="var(--sapContent_Illustrative_Color29)"/>
<path d="M80.3881 78.2368C80.3881 78.2368 78.1738 80.6313 77.7915 81.2638C77.4889 81.765 77.007 82.2622 76.4534 82.8628C75.9875 83.3679 76.8477 84.5811 77.5127 83.3162C77.9349 82.5167 79.0181 80.4006 79.3964 80.0188C79.7748 79.6369 80.4638 78.7977 80.3841 78.2368H80.3881Z" fill="var(--sapContent_Illustrative_Color29)"/>
<path d="M65.4819 93.1167C65.4819 93.1167 65.5108 93.0795 65.5232 93.063C65.5108 93.0795 65.4943 93.1002 65.4819 93.1167Z" fill="var(--sapContent_Illustrative_Color16)"/>
<path d="M66.9078 91.6908C68.1902 90.9868 70.6314 91.1817 71.7624 90.7799C74.2674 89.889 75.3347 89.0258 77.4255 87.4586C76.6051 87.6297 76.0077 87.1404 75.7648 86.687C75.4024 86.0028 73.4151 84.4277 73.5585 83.0872C73.8014 80.7643 73.7855 79.7023 73.216 80.0563C71.4996 81.1223 70.5756 80.8001 70.5199 79.6665C70.3646 76.4685 69.3092 76.8424 67.8795 75.9951C66.0078 74.8854 65.956 72.0175 66.0516 71.5561C66.0914 71.3612 65.5657 72.0414 65.3905 72.292C64.0086 74.2688 62.2244 83.5367 62.6227 86.679C62.8815 88.7235 62.5112 91.4044 62.0173 92.4983C61.1691 94.3797 58.6151 96.2482 57.5 97H61C63.5129 94.6015 65.8644 92.2596 66.9038 91.6868L66.9078 91.6908Z" fill="var(--sapContent_Illustrative_Color16)"/>
<path d="M80.696 53.2834C82.9197 48.9188 83.6912 48.0299 86.6956 43.6581C89.1072 39.7097 89.3163 36.4225 87.9377 34.4156C87.0164 32.9569 84.8133 32.3377 82.7716 32.787C80.0338 33.3923 78.2435 35.4583 77.7311 36.4776C77.2186 37.4969 77.3204 42.2711 77.7311 42.3141C78.3081 40.6812 78.6388 43.8462 79.505 42.977C79.8317 42.6461 79.719 42.2578 79.6851 41.7744C79.6606 41.3503 79.7691 40.8433 79.6247 39.9561C79.6247 38.4689 80.0316 37.7111 81.1081 36.6925C82.8204 35.0723 84.7447 35.4625 85.4762 36.7592C86.0831 37.8506 86.1542 39.9932 84.5604 42.3141C82.2785 45.6321 78.5577 48.3069 78.5826 50.973C78.5942 52.4597 80.1578 54.4227 80.6951 53.2795L80.696 53.2834Z" fill="var(--sapContent_Illustrative_Color26)"/>
</svg>
