<svg width="160" height="160" viewBox="0 0 160 160" fill="none" xmlns="http://www.w3.org/2000/svg" id="sapIllus-Dialog-KeyTask">
<rect y="52.5" width="160" height="69" rx="12" fill="var(--sapContent_Illustrative_Color20)"/>
<g clip-path="url(#clip0_396_5792)">
<path d="M80.1898 112.549L83.4829 112.781L127.609 93.866L85.3197 75.7622L25.7459 86.0966C24.2814 86.3862 22.85 86.8992 25.3901 88.099L77.782 111.928C78.7501 112.367 79.139 112.466 80.1898 112.549Z" fill="var(--sapContent_Illustrative_Color21)"/>
<path d="M47.151 94.834L47.2007 96.5467C47.2007 96.6212 47.2503 96.6957 47.3248 96.7288L80.8682 112.226C80.8682 112.226 83.5407 113.476 86.1636 112.226C89.8622 110.464 134.485 91.4581 134.485 91.4581C134.485 91.4581 135.097 91.2678 135.113 90.5976C135.13 89.9274 135.113 89.2241 135.113 89.2241L47.1428 94.834H47.151Z" fill="var(--sapContent_Illustrative_Color29)"/>
<path d="M54.2007 92.3519L54.0435 92.4015L53.6132 92.5256L52.9678 92.7159L52.1735 92.9476L51.2799 93.2124L50.3615 93.4772L49.4679 93.7419C49.2031 93.8164 47.3249 94.437 47.3249 94.437C47.1346 94.528 47.1346 94.9831 47.1925 95.1485C47.2339 95.2561 47.3083 95.3471 47.4159 95.3968C47.8627 95.6284 82.3659 110.613 82.3659 110.613C82.3659 110.613 84.2358 111.49 86.9746 110.125C89.1838 109.024 109.695 100.427 109.695 100.427L134.435 90.0517C134.435 90.0517 136.644 88.9595 132.971 88.4382L101.065 80.3047C101.065 80.3047 99.5926 79.7917 97.4331 80.2551C95.2818 80.7184 54.209 92.3519 54.209 92.3519H54.1924H54.2007Z" fill="var(--sapContent_Illustrative_Color11)"/>
<path d="M67.0339 91.6319C67.3896 90.788 67.9771 89.5055 68.7301 88.2478C60.7372 90.5066 54.1924 92.3518 54.1924 92.3518C54.1427 92.3683 54.0848 92.3849 54.0352 92.4014C53.8945 92.4428 53.7456 92.4842 53.6049 92.5255C53.3898 92.5917 53.1747 92.6496 52.9595 92.7158C52.6948 92.7903 52.4217 92.873 52.1652 92.9475L51.2716 93.2123C50.9655 93.3033 50.6593 93.386 50.3532 93.4771C50.0553 93.5598 49.7575 93.6508 49.4596 93.7418C49.1948 93.8163 47.3166 94.4369 47.3166 94.4369C47.1263 94.5279 47.1263 94.983 47.1842 95.1484C47.2256 95.256 47.3 95.347 47.4076 95.3967C47.6393 95.5208 57.4359 99.7902 66.6036 103.77C65.6107 99.7406 65.4287 95.4711 67.0504 91.6319H67.0339Z" fill="var(--sapContent_Illustrative_Color1)"/>
<path d="M47.2255 95.0326L98.2108 80.3046C98.2108 80.3046 98.7238 80.346 98.5831 78.5918C98.4425 76.8377 94.0158 40.779 94.0158 40.779C94.0158 40.779 93.8255 39.0249 91.7983 39.0001C89.7712 38.9835 41.3592 41.5816 41.3592 41.5816C41.3592 41.5816 38.7197 41.8133 39.0259 44.7506C39.3237 47.6879 45.6286 92.5586 45.6286 92.5586C45.6286 92.5586 46.1665 94.9995 47.2255 95.0243V95.0326Z" fill="var(--sapContent_Illustrative_Color11)"/>
<path d="M75.4983 83.9285C68.7466 83.5148 61.8459 82.1827 55.8968 78.8068C49.9725 75.4558 48.0695 69.7549 45.8851 63.3176C44.0482 57.9394 42.4762 50.8733 42.8071 47.2327C43.2622 45.2469 43.8745 43.3107 44.553 41.3994C42.5341 41.507 41.3509 41.5732 41.3509 41.5732C41.3509 41.5732 38.7114 41.8048 39.0176 44.7422C39.3154 47.6795 45.6203 92.5502 45.6203 92.5502C45.6203 92.5502 45.8437 95.0076 47.2172 95.0159L85.8823 83.8458C82.4237 84.0774 78.9486 84.1188 75.4817 83.912V83.9285H75.4983Z" fill="var(--sapContent_Illustrative_Color1)"/>
<path d="M41.3344 44.8497L47.7138 89.2322L96.8043 76.7217L92.7334 41.4656L41.3344 44.8497Z" fill="var(--sapContent_Illustrative_Color8)"/>
<path d="M103.068 100.328L117.506 94.3624C117.92 94.1886 117.829 93.444 117.374 93.3447L108.347 91.4085C107.991 91.3341 107.643 91.3589 107.321 91.4664L89.8373 97.5728C89.7049 97.6224 89.738 97.8624 89.8952 97.8955L97.7308 100.444C99.5677 101.04 101.429 100.998 103.068 100.32V100.336V100.328Z" fill="var(--sapContent_Illustrative_Color27)"/>
<path d="M89.8374 97.7798C89.6801 97.7301 89.6388 97.4819 89.7712 97.424L107.122 91.4749C107.561 91.3259 108.024 91.3011 108.496 91.4004L117.341 93.3283C117.456 93.3531 117.589 93.4193 117.68 93.5599C117.746 93.6592 117.779 93.7751 117.779 93.8909V93.924L108.388 91.7396C107.991 91.6652 107.585 91.6983 107.213 91.8224L89.8374 97.7715V97.7549V97.7798Z" fill="var(--sapContent_Illustrative_Color1)"/>
<path d="M103.043 89.6626L105.567 90.308C105.682 90.3411 105.715 90.5397 105.608 90.5728L103.258 91.3009H103.208L100.585 90.6307C100.47 90.5976 100.428 90.399 100.544 90.3659L102.993 89.6709H103.043V89.6626Z" fill="var(--sapContent_Illustrative_Color1)"/>
<path d="M107.42 88.4214L109.836 88.9923C109.96 89.0254 109.985 89.224 109.877 89.2571L106.948 90.1672H106.899L104.441 89.5467C104.325 89.5136 104.292 89.315 104.4 89.2819L107.387 88.4297H107.437L107.42 88.4214Z" fill="var(--sapContent_Illustrative_Color1)"/>
<path d="M79.4533 96.3979L82.8291 97.4322C82.9201 97.457 82.945 97.5977 82.8705 97.6142L79.9166 98.5244H79.867L76.4994 97.4239C76.4167 97.3991 76.3836 97.2502 76.4498 97.2419L79.4036 96.3979H79.4533Z" fill="var(--sapContent_Illustrative_Color1)"/>
<path d="M101.901 91.4499L99.2119 90.7632H99.1623L96.6221 91.4913L80.5537 96.0752C80.4544 96.1 80.4958 96.2738 80.6034 96.3069L83.8468 97.2998H83.8965L99.9897 92.3187L101.934 91.7147C102.042 91.6816 102.009 91.483 101.893 91.4499H101.901Z" fill="var(--sapContent_Illustrative_Color1)"/>
<path d="M63.9062 96.282L61.9121 96.8529H61.8459L60.0421 96.2737C59.8932 96.2241 59.8353 96.0089 59.9511 95.9676L61.9948 95.3718H62.061L63.8152 95.9676C63.9558 96.0172 64.022 96.2323 63.8979 96.2737L63.9062 96.282Z" fill="var(--sapContent_Illustrative_Color1)"/>
<path d="M70.4262 98.4829L68.6224 99.0042H68.5562L66.4463 98.334C66.2974 98.2843 66.2477 98.0692 66.3636 98.0361L68.2335 97.4983H68.308L70.36 98.1933C70.5006 98.243 70.5586 98.4581 70.4344 98.4912H70.4179V98.4746L70.4262 98.4829Z" fill="var(--sapContent_Illustrative_Color1)"/>
<path d="M67.0586 97.341L65.1556 97.8871H65.0894L63.1946 97.2831C63.0457 97.2334 62.9878 97.0183 63.1119 96.9769L65.0729 96.4143H65.139L66.9759 97.0431C67.1166 97.0928 67.1745 97.3079 67.0586 97.3493V97.341Z" fill="var(--sapContent_Illustrative_Color1)"/>
<path d="M75.49 97.5312L78.7583 98.5986C78.8907 98.6482 78.9238 98.8303 78.8162 98.8634L76.1519 99.6825H76.0857L72.7761 98.5572C72.6437 98.5076 72.6023 98.3255 72.7099 98.2924L75.4155 97.5229H75.4817L75.49 97.5312Z" fill="var(--sapContent_Illustrative_Color1)"/>
<path d="M111.838 87.1472L114.726 87.7512L111.234 88.8351L108.33 88.1484L111.838 87.1472Z" fill="var(--sapContent_Illustrative_Color1)"/>
<path d="M72.9001 91.7065L71.3032 91.2597C71.1791 91.2183 71.1295 91.028 71.237 91.0032L73.6862 90.3247H73.7358L75.3079 90.7467C75.432 90.7798 75.4817 90.9784 75.3658 91.0032L72.9415 91.6982H72.8919H72.9084L72.9001 91.7065Z" fill="var(--sapContent_Illustrative_Color1)"/>
<path d="M69.1602 92.7818L67.6295 92.3101C67.4888 92.2605 67.4309 92.0371 67.555 92.0123L69.9462 91.3503H70.0042L71.5349 91.7889C71.6755 91.8302 71.7417 92.0619 71.6093 92.0867L69.2098 92.7818H69.1437H69.1602Z" fill="var(--sapContent_Illustrative_Color1)"/>
<path d="M68.7218 94.8669L66.9015 94.2629C66.7608 94.2133 66.7029 93.9981 66.827 93.9651L69.2265 93.27H69.2927L71.1957 93.8492C71.3364 93.8989 71.3943 94.114 71.2702 94.1471L68.7962 94.8587H68.7218V94.8669Z" fill="var(--sapContent_Illustrative_Color1)"/>
<path d="M76.6154 90.6226L75.0847 90.2089C74.9606 90.1758 74.9109 89.9772 75.0268 89.9441L77.4511 89.2739H77.5008L78.9736 89.6711C79.0977 89.7042 79.139 89.9028 79.0315 89.9359L76.6651 90.6143H76.6154V90.6226Z" fill="var(--sapContent_Illustrative_Color1)"/>
<path d="M58.6605 95.8349L56.9147 95.2722C56.774 95.2226 56.7078 95.0075 56.8236 94.9827L59.0246 94.3704H59.099L60.7539 94.933C60.8945 94.9826 60.9524 95.1978 60.8366 95.2309L58.735 95.8432H58.6688L58.6605 95.8349Z" fill="var(--sapContent_Illustrative_Color1)"/>
<path d="M80.2891 89.5633L78.7005 89.1331C78.6177 89.1083 78.5764 88.9676 78.6591 88.9428L81.2406 88.2312H81.2737L82.8293 88.6366C82.912 88.6615 82.9534 88.8021 82.8707 88.8269L80.3222 89.5633H80.2891Z" fill="var(--sapContent_Illustrative_Color1)"/>
<path d="M61.9204 94.8838L60.2987 94.3377C60.158 94.288 60.1001 94.0729 60.2159 94.0398L62.6734 93.3613H62.7478L64.3447 93.8826C64.4854 93.9322 64.5433 94.1474 64.4275 94.1805L62.0032 94.8838H61.9287H61.9204Z" fill="var(--sapContent_Illustrative_Color1)"/>
<path d="M65.5527 93.833L63.9889 93.32C63.8483 93.2703 63.7904 93.0552 63.9062 93.0221L66.256 92.3767H66.3222L67.8861 92.8566C68.0267 92.9062 68.0846 93.1214 67.9605 93.1545L65.6189 93.8412H65.5445V93.8247L65.5527 93.833Z" fill="var(--sapContent_Illustrative_Color1)"/>
<path d="M110.275 86.8247L107.387 86.2207H107.337L103.192 86.3365C103.084 86.3696 103.192 86.8495 103.308 86.8744L107.362 87.9086H107.412L110.299 87.0812C110.415 87.0481 110.382 86.833 110.258 86.8082V86.8247H110.275Z" fill="var(--sapContent_Illustrative_Color1)"/>
<path d="M97.0112 85.2195L99.3362 84.5493H99.3858L101.843 85.0623C101.976 85.0871 102.009 85.3023 101.893 85.3354L99.4438 86.0469H99.3941L97.0691 85.5008C96.9367 85.4677 96.9036 85.2609 97.0194 85.2278H97.0029L97.0112 85.2195Z" fill="var(--sapContent_Illustrative_Color1)"/>
<path d="M94.3799 84.5986L96.6222 83.978H96.6636L97.7475 84.2097C97.8799 84.2345 97.913 84.4579 97.7971 84.491L95.5714 85.1364H95.5218L94.4213 84.8799C94.2889 84.8468 94.2475 84.64 94.3716 84.6069L94.3799 84.5986Z" fill="var(--sapContent_Illustrative_Color1)"/>
<path d="M87.8019 87.3709L86.5443 87.0482C86.4119 87.0151 86.3705 86.8083 86.4946 86.7752L88.9272 86.105H88.9769L90.1766 86.4111C90.309 86.4442 90.3421 86.6511 90.2263 86.6842L87.8516 87.3709H87.8019Z" fill="var(--sapContent_Illustrative_Color1)"/>
<path d="M84.0538 88.4712L82.5396 88.074C82.4569 88.0492 82.4155 87.9085 82.4982 87.8837L85.0798 87.1721H85.1129L86.5774 87.5527C86.6601 87.5776 86.6932 87.7182 86.6188 87.743L84.0869 88.4712H84.0455H84.0538Z" fill="var(--sapContent_Illustrative_Color1)"/>
<path d="M91.5833 86.2782L90.4249 85.9886C90.2925 85.9555 90.2594 85.7487 90.3753 85.7156L92.8741 85.0288H92.9237L94.0573 85.2936C94.1896 85.3267 94.231 85.5335 94.1069 85.5666L91.6329 86.2865H91.5833V86.2782Z" fill="var(--sapContent_Illustrative_Color1)"/>
<path d="M75.035 100.039L73.4133 100.535H73.3471L69.8719 99.4263C69.7313 99.3767 69.6733 99.1698 69.7975 99.1285L71.5847 98.6155H71.6509L74.9605 99.7408C75.1012 99.7904 75.1425 99.9973 75.035 100.03V100.039Z" fill="var(--sapContent_Illustrative_Color1)"/>
<path d="M95.1741 89.729L97.9294 90.424C98.0122 90.4488 98.037 90.5895 97.9542 90.6143L95.2982 91.3755H95.2651L92.5512 90.6722C92.4685 90.6474 92.4437 90.5067 92.5181 90.4819L95.141 89.7207H95.1741V89.729Z" fill="var(--sapContent_Illustrative_Color1)"/>
<path d="M91.3432 90.8374L94.0653 91.5407C94.1481 91.5655 94.1729 91.7062 94.0984 91.731L91.3349 92.5171H91.3018L88.6458 91.8055C88.563 91.7807 88.5299 91.64 88.6127 91.6152L91.3266 90.8374H91.3597H91.3432Z" fill="var(--sapContent_Illustrative_Color1)"/>
<path d="M98.9803 88.6448L101.595 89.3067C101.711 89.3398 101.744 89.5384 101.636 89.5715L99.1955 90.2665H99.1458L96.5477 89.6046C96.4236 89.5715 96.3905 89.3729 96.5064 89.3398L98.9307 88.6448H98.9803Z" fill="var(--sapContent_Illustrative_Color1)"/>
<path d="M105.798 85.8898L103.457 85.4099H103.407L101.479 85.9643L96.7215 87.3295C96.614 87.3626 96.6471 87.5695 96.7712 87.6026L98.9307 88.1487H98.9804L104.036 86.6924L105.848 86.1711C105.964 86.138 105.931 85.9229 105.798 85.8981V85.8898Z" fill="var(--sapContent_Illustrative_Color1)"/>
<path d="M87.4544 91.9629L89.9697 92.6331C90.0855 92.6662 90.1269 92.8565 90.0193 92.8896L87.6281 93.568H87.5785L85.088 92.8978C84.9638 92.8647 84.9307 92.6744 85.0383 92.6413L87.4213 91.9546H87.4709L87.4544 91.9629Z" fill="var(--sapContent_Illustrative_Color1)"/>
<path d="M103.192 87.4287L105.922 88.0658C106.046 88.0989 106.079 88.2975 105.964 88.3306L103.043 89.1663H102.993L100.379 88.5043C100.254 88.4712 100.221 88.2726 100.337 88.2395L103.15 87.4204H103.2L103.192 87.4287Z" fill="var(--sapContent_Illustrative_Color1)"/>
<path d="M70.7986 96.2736L68.2419 97.01H68.1757L66.3223 96.3729C66.1816 96.3233 66.1237 96.1164 66.2478 96.0751L68.7797 95.3469H68.8459L70.7241 95.9675C70.8648 96.0171 70.9144 96.224 70.7986 96.2571V96.2736Z" fill="var(--sapContent_Illustrative_Color1)"/>
<path d="M79.9002 94.1389L82.2335 94.7925C82.3742 94.8339 82.4238 95.0573 82.2997 95.0821L79.4286 95.9013H79.3624L77.1449 95.2228C77.0042 95.1732 76.9546 94.958 77.0787 94.9249L79.8423 94.1306H79.9085L79.9002 94.1389Z" fill="var(--sapContent_Illustrative_Color1)"/>
<path d="M88.9356 89.555L91.5171 88.8186H91.5502L93.8669 89.4143C93.958 89.4392 93.9828 89.5881 93.9 89.6129L91.3102 90.3659H91.2771L88.9769 89.7701C88.8859 89.7453 88.8611 89.6046 88.9438 89.5716V89.555H88.9356Z" fill="var(--sapContent_Illustrative_Color1)"/>
<path d="M93.0146 86.3775L95.5465 85.6494H95.5962L97.9212 86.1955C98.0536 86.2286 98.0867 86.4355 97.9709 86.4686L95.348 87.2215H95.2983L93.056 86.6506C92.9236 86.6175 92.8905 86.4106 93.0064 86.3775H93.0229H93.0146Z" fill="var(--sapContent_Illustrative_Color1)"/>
<path d="M67.5883 95.2227L65.0895 95.9426H65.0233L63.2444 95.3386C63.1037 95.2889 63.0458 95.0738 63.1616 95.049L65.619 94.3374H65.6935L67.5138 94.9414C67.6545 94.9911 67.7124 95.2062 67.5883 95.231V95.2227Z" fill="var(--sapContent_Illustrative_Color1)"/>
<path d="M75.8788 95.2974L78.0963 95.9758C78.237 96.0255 78.2866 96.2323 78.1625 96.2737L75.4403 97.0598H75.3741L73.2394 96.3647C73.0987 96.3151 73.0491 96.1082 73.1649 96.0751L75.8044 95.3139H75.8706L75.8788 95.2974Z" fill="var(--sapContent_Illustrative_Color1)"/>
<path d="M74.2407 97.3906L71.6012 98.1519H71.535L69.45 97.4485C69.3093 97.3989 69.2597 97.1921 69.3755 97.159L71.9653 96.406H72.0315L74.1662 97.101C74.3069 97.1507 74.3565 97.3575 74.2407 97.3906Z" fill="var(--sapContent_Illustrative_Color1)"/>
<path d="M83.789 93.022L86.2878 93.6922C86.4036 93.7253 86.445 93.9156 86.3374 93.9404L83.607 94.7182H83.5573L81.133 94.0314C81.0089 93.99 80.9675 93.808 81.0833 93.7832L83.7393 93.022H83.789Z" fill="var(--sapContent_Illustrative_Color1)"/>
<path d="M77.6331 92.807L80.2064 92.0706H80.256L82.4073 92.6497C82.5314 92.6828 82.5728 92.8732 82.4569 92.9062L79.8423 93.6592H79.7927L77.691 93.0635C77.5669 93.0221 77.5256 92.8401 77.6331 92.807Z" fill="var(--sapContent_Illustrative_Color1)"/>
<path d="M73.7689 93.9238L76.3836 93.1626H76.4497L78.4604 93.7335C78.601 93.7749 78.6589 93.9983 78.5266 94.0314L75.8292 94.8092H75.763L73.8351 94.2134C73.6945 94.1638 73.6365 93.9486 73.7606 93.9155L73.7689 93.9238Z" fill="var(--sapContent_Illustrative_Color1)"/>
<path d="M81.4971 91.6977L83.8801 91.011H83.9297L86.081 91.5902C86.2051 91.6233 86.2382 91.8136 86.1306 91.8467L83.7642 92.5334H83.7146L81.5716 91.9542C81.4475 91.9211 81.4061 91.7308 81.5219 91.6977H81.5054H81.4971Z" fill="var(--sapContent_Illustrative_Color1)"/>
<path d="M85.0633 90.6721L87.7193 89.9109H87.7524L90.0691 90.5149C90.1519 90.5397 90.185 90.6804 90.1022 90.7052L87.4214 91.4747H87.3883L85.1046 90.8624C85.0219 90.8376 84.9888 90.6969 85.0633 90.6721Z" fill="var(--sapContent_Illustrative_Color1)"/>
<path d="M91.4922 88.3139L89.283 87.7513C89.1588 87.7182 89.1175 87.5113 89.2333 87.4782L91.6245 86.7832H91.6742L93.9165 87.3541C94.0489 87.3872 94.082 87.5941 93.9661 87.6272L91.5666 88.3222H91.5087L91.4922 88.3139Z" fill="var(--sapContent_Illustrative_Color1)"/>
<path d="M69.9712 95.0079L72.4948 94.2798H72.561L74.5055 94.8838C74.6461 94.9334 74.704 95.1486 74.5799 95.1734L71.9984 95.9181H71.9322L70.054 95.2975C69.9133 95.2479 69.8637 95.0327 69.9795 94.9996L69.9712 95.0079Z" fill="var(--sapContent_Illustrative_Color1)"/>
<path d="M97.5738 88.5457L95.166 89.2407H95.1164L92.9485 88.6864C92.8244 88.6533 92.7831 88.4547 92.8989 88.4216L95.3067 87.7266H95.3563L97.5241 88.2727C97.6483 88.3058 97.6814 88.5043 97.5655 88.5374H97.5821L97.5738 88.5457Z" fill="var(--sapContent_Illustrative_Color1)"/>
<path d="M83.8469 90.5231L81.5467 89.9025C81.464 89.8777 81.4226 89.737 81.5054 89.7122L84.0869 88.9675H84.12L86.4699 89.5798C86.5526 89.6046 86.5857 89.7453 86.5112 89.7701L83.8883 90.5231H83.8552H83.8469Z" fill="var(--sapContent_Illustrative_Color1)"/>
<path d="M80.1648 91.5823L78.0218 91.0114C77.8977 90.9783 77.8564 90.7797 77.9639 90.7549L80.3303 90.0681H80.38L82.5313 90.6473C82.6554 90.6804 82.6967 90.879 82.5809 90.9038L80.2145 91.5906H80.1566L80.1648 91.5823Z" fill="var(--sapContent_Illustrative_Color1)"/>
<path d="M87.6944 89.4145L85.1956 88.7608C85.1377 88.7443 85.1211 88.6616 85.179 88.6533L87.8433 87.8838H87.9012L90.4166 88.5292C90.4662 88.5457 90.491 88.6285 90.4331 88.6367L87.7275 89.4145H87.7027H87.6944Z" fill="var(--sapContent_Illustrative_Color1)"/>
<path d="M76.3423 92.6747L74.2573 92.0872C74.1331 92.0458 74.0835 91.8638 74.1993 91.8307L76.665 91.1191H76.7147L78.8577 91.6901C78.9818 91.7232 79.0232 91.9135 78.9156 91.9466L76.392 92.6747H76.3423Z" fill="var(--sapContent_Illustrative_Color1)"/>
<path d="M72.4533 93.7998L70.5586 93.2206C70.4179 93.171 70.36 92.9559 70.4841 92.9228L72.9581 92.2112H73.0243L75.0101 92.7738C75.1507 92.8152 75.2086 93.0386 75.0845 93.0717L72.5361 93.8081H72.4699L72.4533 93.7998Z" fill="var(--sapContent_Illustrative_Color1)"/>
<path d="M103.01 89.4312L105.533 90.0765C105.649 90.1096 105.682 90.3082 105.575 90.3413L103.217 91.0694H103.167L100.544 90.3992C100.428 90.3661 100.387 90.1675 100.503 90.1345L102.96 89.4394H103.01V89.4312Z" fill="var(--sapContent_Illustrative_Color27)"/>
<path d="M107.387 88.1733L109.803 88.7443C109.927 88.7774 109.952 88.9759 109.844 89.009L106.907 89.9192H106.857L104.4 89.2903C104.284 89.2573 104.251 89.0587 104.359 89.0256L107.337 88.1733H107.387Z" fill="var(--sapContent_Illustrative_Color27)"/>
<path d="M79.4036 96.1582L82.7795 97.1924C82.8705 97.2173 82.8953 97.3579 82.8208 97.3745L79.867 98.2846H79.8173L76.4415 97.1759C76.3587 97.1511 76.3256 97.0021 76.3918 96.9939L79.3457 96.1499H79.4036V96.1582Z" fill="var(--sapContent_Illustrative_Color27)"/>
<path d="M101.868 91.2099L99.179 90.5232H99.1293L97.9958 90.8459L97.3835 91.0196L96.5892 91.2513L93.3788 92.1697L89.1176 93.386L86.081 94.2548C86.081 94.2548 85.4604 94.3624 83.5656 94.9747L80.5208 95.8435C80.4215 95.8683 80.4628 96.042 80.5704 96.0751L83.8139 97.068H83.8635L89.4403 95.3387L92.0466 94.5362L95.5797 93.4357L100.395 91.9381L101.918 91.4747C102.025 91.4416 101.992 91.243 101.876 91.2099H101.868Z" fill="var(--sapContent_Illustrative_Color27)"/>
<path d="M63.8401 96.0503L61.8461 96.6212H61.7799L59.9761 96.042C59.8272 95.9924 59.7693 95.7772 59.8851 95.7359L61.9288 95.1401H62.0033L63.7574 95.7359C63.898 95.7855 63.9642 96.0007 63.8401 96.042V96.0503Z" fill="var(--sapContent_Illustrative_Color27)"/>
<path d="M70.3684 98.2512L68.5646 98.7725H68.4984L66.3885 98.094C66.2396 98.0443 66.1899 97.8292 66.3058 97.7961L68.1757 97.2583H68.2502L70.3104 97.9533C70.4511 98.003 70.509 98.2181 70.3849 98.2512H70.3684Z" fill="var(--sapContent_Illustrative_Color27)"/>
<path d="M67.0007 97.1176L65.0976 97.6637H65.0314L63.1366 97.0597C62.9877 97.0101 62.9298 96.7949 63.0539 96.7536L65.0149 96.1909H65.0811L66.9179 96.8197C67.0586 96.8694 67.1165 97.0845 67.0007 97.1259V97.1176Z" fill="var(--sapContent_Illustrative_Color27)"/>
<path d="M75.432 97.2995L78.7003 98.3669C78.8327 98.4165 78.8658 98.5985 78.7583 98.6316L76.094 99.4508H76.0278L72.7099 98.3255C72.5775 98.2759 72.5361 98.0938 72.6437 98.0607L75.3493 97.283H75.4238V97.2995H75.432Z" fill="var(--sapContent_Illustrative_Color27)"/>
<path d="M111.814 86.8989L114.71 87.5029L111.21 88.5869L108.297 87.9001L111.805 86.8989H111.814Z" fill="var(--sapContent_Illustrative_Color27)"/>
<path d="M72.8424 91.4582L71.2455 91.0114C71.1214 90.97 71.0717 90.7797 71.1793 90.7549L73.6284 90.0764H73.6781L75.2585 90.4984C75.3826 90.5315 75.4322 90.7301 75.3164 90.7549L72.892 91.4582H72.8424Z" fill="var(--sapContent_Illustrative_Color27)"/>
<path d="M69.1025 92.542L67.5717 92.0704C67.4311 92.0208 67.3732 91.7973 67.4973 91.7725L69.8968 91.1106H69.9547L71.4854 91.5491C71.6261 91.5905 71.6923 91.8222 71.5599 91.847L69.1521 92.542H69.0859H69.1025Z" fill="var(--sapContent_Illustrative_Color27)"/>
<path d="M68.6555 94.644L66.8352 94.04C66.6945 93.9904 66.6366 93.7752 66.7607 93.7422L69.1602 93.0471H69.2264L71.1295 93.6263C71.2701 93.676 71.328 93.8911 71.2039 93.9242L68.73 94.644H68.6555Z" fill="var(--sapContent_Illustrative_Color27)"/>
<path d="M76.5574 90.3826L75.0184 89.9689C74.8943 89.9358 74.8447 89.7372 74.9605 89.7041L77.3848 89.0339H77.4345L78.9073 89.4311C79.0314 89.4642 79.0728 89.6628 78.9652 89.6959L76.5988 90.3826H76.5491H76.5574Z" fill="var(--sapContent_Illustrative_Color27)"/>
<path d="M58.5943 95.5951L56.8484 95.0325C56.7078 94.9829 56.6416 94.7677 56.7574 94.7429L58.9666 94.1306H59.0411L60.6959 94.6933C60.8366 94.7429 60.8945 94.958 60.7787 94.9829L58.677 95.5951H58.6026H58.5943Z" fill="var(--sapContent_Illustrative_Color27)"/>
<path d="M80.2311 89.3236L78.6425 88.8933C78.5598 88.8685 78.5184 88.7278 78.6011 88.703L81.1909 87.9832H81.224L82.7796 88.3886C82.8623 88.4134 82.9037 88.5541 82.8209 88.5789L80.2725 89.3153H80.2311V89.3236Z" fill="var(--sapContent_Illustrative_Color27)"/>
<path d="M61.8542 94.6438L60.2325 94.0977C60.0918 94.048 60.0339 93.8329 60.1497 93.7998L62.6071 93.1213H62.6816L64.2785 93.6509C64.4192 93.7005 64.4771 93.9157 64.3613 93.9488L61.9369 94.6603H61.8625V94.6438H61.8542Z" fill="var(--sapContent_Illustrative_Color27)"/>
<path d="M65.4865 93.593L63.9227 93.08C63.782 93.0303 63.7241 92.8152 63.84 92.7821L66.1898 92.1367H66.256L67.8198 92.6166C67.9605 92.6663 68.0184 92.8814 67.8943 92.9145L65.5444 93.6012H65.47L65.4865 93.5847V93.593Z" fill="var(--sapContent_Illustrative_Color27)"/>
<path d="M96.9698 84.9712L99.2948 84.301H99.3444L101.802 84.814C101.934 84.8388 101.967 85.054 101.852 85.0871L99.4024 85.7986H99.3527L97.0277 85.2526C96.8953 85.2195 96.8622 85.0126 96.978 84.9795H96.9615L96.9698 84.9712Z" fill="var(--sapContent_Illustrative_Color27)"/>
<path d="M94.3468 84.3505L96.5891 83.73H96.6305L97.7144 83.9617C97.8468 83.9865 97.8799 84.2099 97.764 84.243L95.53 84.8884H95.4804L94.3799 84.6319C94.2475 84.5988 94.2062 84.3919 94.3303 84.3505H94.3468Z" fill="var(--sapContent_Illustrative_Color27)"/>
<path d="M87.7606 87.1307L86.4947 86.808C86.3623 86.7749 86.3292 86.568 86.445 86.5349L88.8859 85.8564H88.9355L90.1353 86.1626C90.2677 86.1957 90.3008 86.4025 90.1849 86.4356L87.8103 87.1307H87.7606Z" fill="var(--sapContent_Illustrative_Color27)"/>
<path d="M83.9958 88.2231L82.4734 87.8259C82.3906 87.8011 82.3493 87.6604 82.432 87.6356L85.0135 86.9158H85.0466L86.5112 87.2964C86.5939 87.3212 86.627 87.4701 86.5525 87.495L84.0206 88.2231H83.9875H83.9958Z" fill="var(--sapContent_Illustrative_Color27)"/>
<path d="M91.5336 86.0221L90.3752 85.7325C90.2428 85.6994 90.2097 85.4926 90.3256 85.4595L92.8244 84.7727H92.874L94.0076 85.0375C94.14 85.0706 94.1813 85.2774 94.0572 85.3105L91.5832 86.0386H91.5336V86.0221Z" fill="var(--sapContent_Illustrative_Color27)"/>
<path d="M74.9771 99.8153L73.3553 100.32H73.2891L69.814 99.2113C69.6733 99.1616 69.6154 98.9548 69.7395 98.9217L71.5267 98.4087H71.5929L74.9026 99.534C75.0433 99.5836 75.0846 99.7905 74.9771 99.8236V99.8153Z" fill="var(--sapContent_Illustrative_Color27)"/>
<path d="M95.1329 89.4973L97.8881 90.2006C97.9709 90.2254 97.9957 90.3661 97.913 90.3909L95.257 91.1521H95.2239L92.5017 90.4488C92.4189 90.424 92.3858 90.2834 92.4686 90.2585L95.0915 89.4973H95.1329Z" fill="var(--sapContent_Illustrative_Color27)"/>
<path d="M91.2937 90.5976L94.0159 91.3009C94.0986 91.3258 94.1234 91.4664 94.049 91.4912L91.2771 92.2856H91.244L88.588 91.574C88.5053 91.5492 88.4722 91.4085 88.5549 91.3837L91.2689 90.6059H91.302V90.5894L91.2937 90.5976Z" fill="var(--sapContent_Illustrative_Color27)"/>
<path d="M98.9472 88.3967L101.562 89.0587C101.686 89.0918 101.719 89.2903 101.603 89.3234L99.1623 90.0185H99.1127L96.5146 89.3565C96.3905 89.3234 96.3574 89.1249 96.4732 89.0918L98.8976 88.3967H98.9472Z" fill="var(--sapContent_Illustrative_Color27)"/>
<path d="M110.258 86.5764L107.37 85.9724C107.37 85.9724 105.269 85.5256 105.252 85.5256L103.415 85.1367H103.366L101.413 85.6994L96.6718 87.0729C96.5643 87.106 96.5974 87.3128 96.7215 87.3459L98.881 87.892H98.9307L103.25 86.6426L107.337 87.6769H107.387L110.283 86.8495C110.399 86.8164 110.366 86.6012 110.241 86.5764H110.258Z" fill="var(--sapContent_Illustrative_Color27)"/>
<path d="M87.4131 91.7228L89.9285 92.3931C90.0443 92.4261 90.0857 92.6165 89.9781 92.6495L87.5869 93.328H87.5372L85.0384 92.6495C84.9143 92.6165 84.8812 92.4261 84.9888 92.3931L87.3718 91.7063H87.4214V91.7228H87.4131Z" fill="var(--sapContent_Illustrative_Color27)"/>
<path d="M103.159 87.1804L105.889 87.8175C106.013 87.8506 106.047 88.0575 105.931 88.0823L103.01 88.918H102.96L100.346 88.256C100.222 88.2229 100.188 88.0244 100.296 87.9913L103.117 87.1721H103.167L103.159 87.1804Z" fill="var(--sapContent_Illustrative_Color27)"/>
<path d="M70.7406 96.0336L68.1839 96.77H68.1177L66.2643 96.1329C66.1237 96.0833 66.0657 95.8764 66.1898 95.8351L68.7217 95.1069H68.7962L70.6827 95.7275C70.8234 95.7771 70.873 95.984 70.7572 96.0254H70.7406V96.0336Z" fill="var(--sapContent_Illustrative_Color27)"/>
<path d="M79.8505 93.907L82.1838 94.5689C82.3245 94.6103 82.3741 94.8337 82.25 94.8668L79.3789 95.6859H79.3127L77.0952 94.9992C76.9546 94.9495 76.9049 94.7344 77.029 94.7096L79.7926 93.9153H79.8588L79.8505 93.907Z" fill="var(--sapContent_Illustrative_Color27)"/>
<path d="M88.8942 89.3152L91.4757 88.5706H91.5088L93.8338 89.1663C93.9249 89.1911 93.9497 89.3401 93.8669 89.3649L91.2689 90.1178H91.2358L88.9355 89.5221C88.8445 89.4973 88.8197 89.3483 88.9024 89.3235L88.8942 89.3152Z" fill="var(--sapContent_Illustrative_Color27)"/>
<path d="M92.9733 86.138L95.5051 85.4099H95.5548L97.8798 85.956C98.0122 85.9891 98.0453 86.196 97.9295 86.2291L95.3066 86.9903H95.2569L93.0146 86.4194C92.8822 86.3863 92.8491 86.1794 92.965 86.1463H92.9815L92.9733 86.138Z" fill="var(--sapContent_Illustrative_Color27)"/>
<path d="M67.522 94.9828L65.0232 95.7026H64.957L63.1781 95.0986C63.0374 95.0489 62.9795 94.8338 63.0953 94.809L65.5528 94.0974H65.6272L67.4558 94.7014C67.5965 94.7511 67.6544 94.9662 67.5303 94.991L67.522 94.9828Z" fill="var(--sapContent_Illustrative_Color27)"/>
<path d="M75.8293 95.0657L78.0551 95.7442C78.1957 95.7938 78.2454 96.0007 78.1213 96.0337L75.3908 96.8198H75.3246L73.1899 96.1248C73.0492 96.0751 72.9996 95.8683 73.1154 95.8352L75.7549 95.0739H75.8211L75.8293 95.0657Z" fill="var(--sapContent_Illustrative_Color27)"/>
<path d="M74.191 97.1672L71.5516 97.9284H71.4854L69.4003 97.2251C69.2596 97.1755 69.21 96.9686 69.3258 96.9273L71.9156 96.1743H71.9818L74.1248 96.8693C74.2655 96.919 74.3151 97.1258 74.1993 97.1589L74.191 97.1672Z" fill="var(--sapContent_Illustrative_Color27)"/>
<path d="M83.7393 92.782L86.2381 93.4522C86.3539 93.4853 86.3953 93.6756 86.2877 93.7087L83.5573 94.4865H83.5076L81.0833 93.7997C80.9592 93.7583 80.9178 93.5763 81.0337 93.5432L83.6897 92.782H83.7476H83.7393Z" fill="var(--sapContent_Illustrative_Color27)"/>
<path d="M77.5834 92.567L80.1567 91.8306H80.2063L82.3576 92.4098C82.4817 92.4429 82.5231 92.6332 82.4073 92.6663L79.7926 93.4275H79.743L77.6414 92.8317C77.5172 92.7904 77.4759 92.6083 77.5834 92.5752V92.567Z" fill="var(--sapContent_Illustrative_Color27)"/>
<path d="M73.7029 93.6838L76.3258 92.9226H76.392L78.4026 93.4935C78.5432 93.5349 78.6011 93.7583 78.4688 93.7914L75.7631 94.5692H75.6969L73.7608 93.9734C73.6201 93.9238 73.5622 93.7087 73.6863 93.6756H73.7029V93.6838Z" fill="var(--sapContent_Illustrative_Color27)"/>
<path d="M81.4474 91.4582L83.8303 90.7715H83.88L86.0313 91.3507C86.1554 91.3838 86.1885 91.5741 86.0809 91.6072L83.7062 92.2939H83.6566L81.5053 91.7147C81.3812 91.6816 81.3398 91.4913 81.4557 91.4582H81.4474Z" fill="var(--sapContent_Illustrative_Color27)"/>
<path d="M85.0136 90.4324L87.6696 89.6711H87.7027L90.0277 90.2752C90.1105 90.3 90.1436 90.4406 90.0608 90.4655L87.3717 91.2432H87.3386L85.055 90.6227C84.9722 90.5978 84.9391 90.4572 85.0136 90.4324Z" fill="var(--sapContent_Illustrative_Color27)"/>
<path d="M91.4426 88.0656L89.2252 87.4947C89.101 87.4616 89.0597 87.2547 89.1755 87.2216L91.5667 86.5266H91.6164L93.8587 87.0975C93.9911 87.1306 94.0242 87.3375 93.9083 87.3706L91.5005 88.0656H91.4509H91.4426Z" fill="var(--sapContent_Illustrative_Color27)"/>
<path d="M69.9132 94.7762L72.4451 94.0481H72.5113L74.4557 94.6521C74.5964 94.7018 74.6543 94.9169 74.5302 94.9417L71.9404 95.6864H71.8742L69.996 95.0658C69.8553 95.0162 69.8057 94.801 69.9215 94.7679L69.9132 94.7762Z" fill="var(--sapContent_Illustrative_Color27)"/>
<path d="M97.5324 88.2977L95.1246 88.9927H95.0749L92.9071 88.4383C92.783 88.4052 92.7416 88.2066 92.8575 88.1735L95.2735 87.4785H95.3231L97.491 88.0329C97.6151 88.066 97.6482 88.2646 97.5324 88.2977Z" fill="var(--sapContent_Illustrative_Color27)"/>
<path d="M83.7973 90.2753L81.4971 89.6547C81.4143 89.6299 81.3729 89.4892 81.4557 89.4644L84.0372 88.7197H84.0703L86.4202 89.332C86.5029 89.3568 86.536 89.4975 86.4615 89.5223L83.8386 90.2835H83.8055V90.267L83.7973 90.2753Z" fill="var(--sapContent_Illustrative_Color27)"/>
<path d="M80.1152 91.3342L77.9722 90.7633C77.8481 90.7302 77.8067 90.5316 77.9142 90.5068L80.2806 89.8118H80.3303L82.4816 90.391C82.6057 90.4241 82.6471 90.6226 82.5312 90.6475L80.1565 91.3342H80.1069H80.1152Z" fill="var(--sapContent_Illustrative_Color27)"/>
<path d="M87.6447 89.1665L85.1459 88.5128C85.088 88.4963 85.0714 88.4135 85.1294 88.4052L87.8019 87.6357H87.8598L90.3752 88.2811C90.4248 88.2977 90.4496 88.3804 90.3917 88.3887L87.6861 89.1747H87.653L87.6447 89.1665Z" fill="var(--sapContent_Illustrative_Color27)"/>
<path d="M76.2844 92.4427L74.1993 91.847C74.0752 91.8056 74.0255 91.6236 74.1413 91.5905L76.607 90.8789H76.6567L78.7997 91.4581C78.9238 91.4912 78.9652 91.6815 78.8576 91.7146L76.334 92.4427H76.2844Z" fill="var(--sapContent_Illustrative_Color27)"/>
<path d="M72.3956 93.5596L70.5008 92.9804C70.3602 92.9307 70.3022 92.7156 70.4264 92.6825L72.9003 91.9709H72.9665L74.9523 92.5336C75.093 92.575 75.1509 92.7984 75.0268 92.8315L72.4701 93.5596H72.4039H72.3956Z" fill="var(--sapContent_Illustrative_Color27)"/>
<path d="M70.113 71.8911H70.0834C69.7284 71.9725 69.3882 71.8319 69.1294 71.5657L63.8194 65.8416C63.3387 65.3165 63.3313 64.4512 63.8194 63.904C64.3075 63.3641 65.0841 63.3419 65.5574 63.867L69.7654 68.4596L77.7082 54.6892C78.0336 54.1271 78.6992 53.9866 79.1873 54.4007C79.668 54.7927 79.8159 55.5766 79.4905 56.1387L70.9265 71.2699C70.7416 71.5953 70.4384 71.8245 70.1056 71.8985H70.1204L70.113 71.8911Z" fill="var(--sapContent_Illustrative_Color9)"/>
</g>
<defs>
<clipPath id="clip0_396_5792">
<rect width="111.13" height="73.7888" fill="var(--sapContent_Illustrative_Color8)" transform="translate(24 39)"/>
</clipPath>
</defs>
</svg>
