<svg width="128" height="128" viewBox="0 0 128 128" fill="none" xmlns="http://www.w3.org/2000/svg" id="sapIllus-Spot-SimpleCheckMark">
<circle cx="62.791" cy="63.2668" r="44.8015" fill="var(--sapContent_Illustrative_Color8)"/>
<path d="M63.6823 9.37622C33.6968 9.37622 9.16187 33.9574 9.16187 63.9995C9.16187 94.0416 33.6968 118.623 63.6823 118.623C93.6679 118.623 118.203 94.0416 118.203 63.9995C118.203 33.9574 93.6679 9.37622 63.6823 9.37622ZM89.3088 51.4373L56.5944 84.2099C56.1014 84.7258 55.5091 85.1364 54.8535 85.4169C54.1978 85.6975 53.4922 85.8421 52.7793 85.8421C52.0663 85.8421 51.3608 85.6975 50.7051 85.4169C50.0494 85.1364 49.4572 84.7258 48.9642 84.2099L38.0488 73.2739C37.5338 72.7799 37.124 72.1866 36.844 71.5297C36.564 70.8728 36.4197 70.1659 36.4197 69.4516C36.4197 68.7373 36.564 68.0304 36.844 67.3735C37.124 66.7166 37.5338 66.1233 38.0488 65.6293C38.5419 65.1128 39.1343 64.7017 39.7903 64.4209C40.4463 64.1401 41.1523 63.9953 41.8657 63.9953C42.5791 63.9953 43.2851 64.1401 43.9411 64.4209C44.5971 64.7017 45.1895 65.1128 45.6825 65.6293L52.7705 72.7306L81.6645 43.7786C82.1576 43.2621 82.75 42.851 83.406 42.5702C84.062 42.2893 84.768 42.1445 85.4814 42.1445C86.1947 42.1445 86.9007 42.2893 87.5567 42.5702C88.2127 42.851 88.8051 43.2621 89.2982 43.7786C89.8161 44.272 90.2286 44.8656 90.5108 45.5235C90.793 46.1813 90.939 46.8897 90.94 47.6057C90.941 48.3217 90.7969 49.0305 90.5165 49.6891C90.2362 50.3477 89.8253 50.9424 89.3088 51.4373Z" fill="var(--sapContent_Illustrative_Color12)"/>
<path d="M63.8795 128C28.6687 128 0 99.2878 0 64C0 28.7122 28.6546 0 63.8795 0C99.1045 0 127.756 28.7122 127.756 64C127.756 99.2878 99.1009 128 63.8795 128ZM63.8795 3.42542C30.5419 3.42542 3.41898 30.5889 3.41898 64C3.41898 97.4111 30.5313 124.575 63.8795 124.575C97.2277 124.575 124.337 97.4111 124.337 64C124.337 30.5889 97.2101 3.42542 63.8795 3.42542Z" fill="var(--sapContent_Illustrative_Color12)"/>
</svg>
