<svg width="139" height="160" viewBox="0 0 139 160" fill="none" xmlns="http://www.w3.org/2000/svg" id="sapIllus-Dialog-SuccessHighFive">
<circle cx="69.2255" cy="90.7748" r="69.2255" fill="var(--sapContent_Illustrative_Color7)"/>
<path d="M33.5638 65.5206C33.5638 64.7133 31.2204 64.0671 28.0893 63.9203C27.9103 60.7932 27.221 58.4679 26.4136 58.4697C25.6062 58.4715 24.9349 60.8146 24.763 63.9579C21.623 64.1727 19.2885 64.8744 19.2992 65.6835C19.31 66.4926 21.6427 67.1388 24.7738 67.2838C24.9617 70.4109 25.642 72.7362 26.4476 72.7344C27.2532 72.7326 27.9282 70.3894 28.1 67.2462C31.2401 67.0314 33.5728 66.3297 33.5638 65.5206Z" fill="var(--sapContent_Illustrative_Color18)"/>
<path d="M106.565 135.185C106.565 134.567 104.773 134.073 102.379 133.961C102.242 131.57 101.715 129.792 101.097 129.793C100.48 129.794 99.9666 131.586 99.8352 133.99C97.434 134.154 95.6488 134.691 95.657 135.309C95.6652 135.928 97.449 136.422 99.8434 136.533C99.9872 138.924 100.507 140.703 101.123 140.701C101.739 140.7 102.256 138.908 102.387 136.504C104.788 136.34 106.572 135.804 106.565 135.185Z" fill="var(--sapContent_Illustrative_Color18)"/>
<path d="M19.2992 90.7126C19.2992 90.0953 17.5072 89.6012 15.1128 89.4889C14.9759 87.0976 14.4489 85.3194 13.8314 85.3208C13.214 85.3222 12.7006 87.114 12.5692 89.5177C10.168 89.6819 8.38281 90.2185 8.39102 90.8372C8.39923 91.4559 10.1831 91.9501 12.5774 92.0609C12.7212 94.4523 13.2414 96.2304 13.8574 96.2291C14.4735 96.2277 14.9896 94.4359 15.121 92.0322C17.5223 91.8679 19.3061 91.3314 19.2992 90.7126Z" fill="var(--sapContent_Illustrative_Color18)"/>
<path d="M83.9096 126.379C83.9096 125.809 82.2554 125.353 80.0452 125.249C79.9188 123.042 79.4323 121.401 78.8624 121.402C78.2925 121.403 77.8186 123.057 77.6973 125.276C75.4808 125.427 73.8329 125.923 73.8405 126.494C73.8481 127.065 75.4947 127.521 77.7049 127.624C77.8376 129.831 78.3178 131.472 78.8864 131.471C79.4551 131.47 79.9315 129.816 80.0528 127.597C82.2693 127.445 83.9159 126.95 83.9096 126.379Z" fill="var(--sapContent_Illustrative_Color18)"/>
<path d="M96.6371 9.79466C97.3656 9.56762 98.1544 9.63927 98.8301 9.99385C99.5057 10.3484 100.013 10.9569 100.24 11.6854L116.732 64.6029L106.787 67.7024L91.6866 19.2507C91.3904 18.3047 91.2835 17.3097 91.3721 16.3224C91.4606 15.3352 91.7428 14.3751 92.2025 13.4969C92.6623 12.6187 93.2905 11.8398 94.0514 11.2045C94.8123 10.5693 95.691 10.0902 96.6371 9.79466V9.79466Z" fill="var(--sapContent_Illustrative_Color19)"/>
<path d="M93.0444 21.1098C92.4159 19.0932 90.2728 17.9676 88.2575 18.5957C86.2423 19.2238 85.1181 21.3676 85.7466 23.3842L94.5343 51.581C95.1628 53.5975 97.3059 54.7231 99.3212 54.0951C101.336 53.467 102.461 51.3231 101.832 49.3066L93.0444 21.1098Z" fill="var(--sapContent_Illustrative_Color19)"/>
<path d="M119.97 73.9132L108.025 71.6512L116.096 39.1901C116.671 36.8774 118.111 34.873 120.118 33.5887C122.126 32.3045 124.549 31.838 126.89 32.2852V32.2852C127.018 32.3096 127.14 32.359 127.249 32.4305C127.358 32.5021 127.451 32.5944 127.525 32.7022C127.598 32.81 127.649 32.9311 127.676 33.0588C127.702 33.1864 127.703 33.318 127.679 33.446L119.97 73.9132Z" fill="var(--sapContent_Illustrative_Color19)"/>
<path d="M114.518 87.773H98.4466C96.2848 87.773 94.1442 87.3472 92.147 86.5197C90.1498 85.6923 88.3352 84.4795 86.8068 82.9506C85.2784 81.4218 84.0662 79.6068 83.2393 77.6094C82.4125 75.6119 81.9873 73.4712 81.9879 71.3094V45.7681L115.893 49.7364L114.518 87.773Z" fill="var(--sapContent_Illustrative_Color19)"/>
<path d="M86.1308 19.2958C85.5024 17.2793 83.3592 16.1537 81.344 16.7817C79.3287 17.4098 78.2045 19.5537 78.833 21.5702L87.6207 49.767C88.2492 51.7836 90.3923 52.9092 92.4076 52.2811C94.4228 51.653 95.547 49.5091 94.9186 47.4926L86.1308 19.2958Z" fill="var(--sapContent_Illustrative_Color19)"/>
<path d="M81.2314 23.0907C80.6029 21.0742 78.4598 19.9486 76.4446 20.5767C74.4293 21.2047 73.3051 23.3486 73.9336 25.3652L82.7213 53.5619C83.3498 55.5785 85.4929 56.7041 87.5082 56.076C89.5234 55.448 90.6476 53.3041 90.0191 51.2875L81.2314 23.0907Z" fill="var(--sapContent_Illustrative_Color19)"/>
<path d="M79.61 34.3676C78.9815 32.351 76.8384 31.2254 74.8231 31.8535C72.8079 32.4816 71.6837 34.6255 72.3121 36.642L81.0999 64.8388C81.7283 66.8553 83.8715 67.9809 85.8867 67.3529C87.902 66.7248 89.0262 64.5809 88.3977 62.5644L79.61 34.3676Z" fill="var(--sapContent_Illustrative_Color19)"/>
<path d="M109.474 69.0327H120.158V72.3215C120.158 73.2927 119.967 74.2545 119.595 75.1518C119.224 76.0491 118.679 76.8645 117.992 77.5513C117.305 78.238 116.49 78.7828 115.593 79.1545C114.695 79.5262 113.734 79.7175 112.762 79.7175H109.474V69.0327Z" fill="var(--sapContent_Illustrative_Color19)"/>
<path d="M136.751 94.1174L101.616 97.2921L93.4268 83.641L117.862 72.1973L136.751 94.1174Z" fill="var(--sapContent_Illustrative_Color19)"/>
<path fill-rule="evenodd" clip-rule="evenodd" d="M110.279 51.3095C110.478 51.8198 110.226 52.3953 109.716 52.5949C105.413 54.2787 103.674 57.1516 103.357 58.1675C103.194 58.6905 102.637 58.982 102.114 58.8185C101.591 58.6551 101.3 58.0987 101.463 57.5757C101.972 55.9461 104.169 52.6349 108.993 50.7472C109.503 50.5475 110.079 50.7993 110.279 51.3095Z" fill="var(--sapContent_Illustrative_Color14)"/>
<path fill-rule="evenodd" clip-rule="evenodd" d="M102.028 43.638C101.018 43.9588 99.5662 44.502 97.6087 45.3829C97.109 45.6077 96.5217 45.385 96.2969 44.8853C96.072 44.3857 96.2948 43.7983 96.7944 43.5735C98.8053 42.6686 100.33 42.0957 101.428 41.7469C102.483 41.4115 103.234 41.2539 103.65 41.2539C104.198 41.2539 104.642 41.6981 104.642 42.246C104.642 42.7939 104.198 43.2381 103.65 43.2381C103.65 43.2381 103.65 43.2381 103.65 43.2381C103.645 43.2383 103.609 43.2399 103.534 43.2507C103.454 43.2622 103.345 43.2818 103.204 43.3127C102.922 43.3745 102.534 43.4774 102.028 43.638Z" fill="var(--sapContent_Illustrative_Color14)"/>
<path fill-rule="evenodd" clip-rule="evenodd" d="M92.4989 18.4648C93.0308 18.3332 93.5686 18.6577 93.7002 19.1896L99.6528 43.2477C99.7844 43.7796 99.4599 44.3174 98.928 44.449C98.3961 44.5806 97.8583 44.2561 97.7267 43.7243L91.7741 19.6661C91.6425 19.1343 91.967 18.5964 92.4989 18.4648Z" fill="var(--sapContent_Illustrative_Color14)"/>
<path fill-rule="evenodd" clip-rule="evenodd" d="M96.2478 87.3423C96.4297 86.8254 96.9961 86.5538 97.513 86.7357C98.7334 87.1651 101.847 87.6483 104.366 86.2369C104.844 85.9691 105.449 86.1395 105.717 86.6175C105.985 87.0955 105.814 87.7001 105.336 87.9679C102.125 89.7673 98.3579 89.1364 96.8544 88.6074C96.3375 88.4255 96.066 87.8591 96.2478 87.3423Z" fill="var(--sapContent_Illustrative_Color14)"/>
<path d="M62.2107 73.2883L60.0132 74.3895C59.3447 74.7231 58.6087 74.8995 57.8616 74.9051C57.1145 74.9107 56.376 74.7454 55.7025 74.4218C55.0291 74.0982 54.4385 73.625 53.976 73.0382C53.5135 72.4514 53.1912 71.7667 53.0339 71.0363L46.7837 32.4342C46.7159 32.0157 46.7356 31.5876 46.8417 31.1772C46.9477 30.7667 47.1377 30.3826 47.3997 30.0493C47.6617 29.716 47.9899 29.4406 48.3638 29.2406C48.7376 29.0407 49.1488 28.9204 49.5715 28.8874V28.8874C51.4426 28.7413 53.2981 29.3207 54.7536 30.5055C56.2091 31.6904 57.1528 33.3899 57.3892 35.2517L62.2107 73.2883Z" fill="var(--sapContent_Illustrative_Color3)"/>
<path d="M69.3835 9.67571C69.3835 6.95532 67.1782 4.75 64.4578 4.75C61.7374 4.75 59.5321 6.95532 59.5321 9.67571V47.509C59.5321 50.2294 61.7374 52.4347 64.4578 52.4347C67.1782 52.4347 69.3835 50.2294 69.3835 47.509V9.67571Z" fill="var(--sapContent_Illustrative_Color3)"/>
<path d="M83.8196 6.35409C84.1555 3.51652 82.1274 0.943955 79.2898 0.608107C76.4523 0.272259 73.8797 2.3003 73.5439 5.13787L69.5845 38.5907C69.2486 41.4283 71.2767 44.0008 74.1142 44.3367C76.9518 44.6725 79.5244 42.6445 79.8602 39.8069L83.8196 6.35409Z" fill="var(--sapContent_Illustrative_Color3)"/>
<path d="M92.2895 12.1485C92.5652 9.81963 90.9007 7.70831 88.5719 7.43267C86.2431 7.15704 84.1318 8.82147 83.8561 11.1503L79.7976 45.4406C79.522 47.7694 81.1864 49.8807 83.5152 50.1563C85.8441 50.432 87.9554 48.7675 88.231 46.4387L92.2895 12.1485Z" fill="var(--sapContent_Illustrative_Color3)"/>
<path d="M99.097 27.4701C99.4138 25.2959 97.9081 23.2766 95.7339 22.9598C93.5598 22.643 91.5404 24.1487 91.2236 26.3229L87.7355 50.2622C87.4188 52.4364 88.9245 54.4557 91.0986 54.7725C93.2728 55.0893 95.2921 53.5836 95.6089 51.4094L99.097 27.4701Z" fill="var(--sapContent_Illustrative_Color3)"/>
<path d="M59.6015 96.1314L57.1213 96.6274C56.6781 96.7198 56.2197 96.71 55.7809 96.5985C55.3421 96.487 54.9345 96.2769 54.5891 95.9842C54.2438 95.6915 53.9698 95.3238 53.7879 94.9092C53.6061 94.4946 53.5213 94.044 53.5399 93.5916L55.1371 51.7355C55.1629 50.9634 55.4878 50.2317 56.0432 49.6948C56.5986 49.1579 57.3409 48.858 58.1134 48.8584L95.6341 48.9229V51.8991C95.6651 62.3002 92.0921 72.3909 85.5229 80.4549C78.9537 88.519 69.794 94.0585 59.6015 96.1314V96.1314Z" fill="var(--sapContent_Illustrative_Color3)"/>
<path d="M90.7977 37.7915H66.5312V56.1154H90.7977V37.7915Z" fill="var(--sapContent_Illustrative_Color3)"/>
<path fill-rule="evenodd" clip-rule="evenodd" d="M91.7557 24.5411C92.5681 24.7036 93.0949 25.4938 92.9324 26.3062L89.9956 40.9904C89.8331 41.8027 89.0429 42.3295 88.2305 42.1671C87.4182 42.0046 86.8914 41.2144 87.0538 40.402L89.9907 25.7178C90.1531 24.9055 90.9434 24.3787 91.7557 24.5411Z" fill="var(--sapContent_Illustrative_Color15)"/>
<path fill-rule="evenodd" clip-rule="evenodd" d="M83.2198 13.1916C84.0441 13.2741 84.6455 14.0091 84.5631 14.8334L82.0458 40.0063C81.9633 40.8307 81.2283 41.4321 80.404 41.3496C79.5796 41.2672 78.9782 40.5321 79.0607 39.7078L81.5779 14.5349C81.6604 13.7106 82.3954 13.1092 83.2198 13.1916Z" fill="var(--sapContent_Illustrative_Color15)"/>
<path fill-rule="evenodd" clip-rule="evenodd" d="M73.5641 5.18811C74.3888 5.26718 74.9932 5.99979 74.9141 6.82444L71.9773 37.4515C71.8982 38.2761 71.1656 38.8805 70.3409 38.8014C69.5163 38.7224 68.9119 37.9897 68.991 37.1651L71.9278 6.53808C72.0069 5.71343 72.7395 5.10903 73.5641 5.18811Z" fill="var(--sapContent_Illustrative_Color15)"/>
<mask id="mask0_671_9659" class="sapIllus_MaskTypeAlpha" maskUnits="userSpaceOnUse" x="0" y="21" width="139" height="139">
<circle cx="69.2255" cy="90.7748" r="69.2255" fill="var(--sapContent_Illustrative_Color7)"/>
</mask>
<g mask="url(#mask0_671_9659)">
<mask id="mask1_671_9659" class="sapIllus_MaskTypeAlpha" maskUnits="userSpaceOnUse" x="-27" y="34" width="202" height="127">
<path d="M165.436 34.4028H-17.7553C-18.9494 34.4017 -20.1319 34.636 -21.2354 35.0922C-22.339 35.5484 -23.3417 36.2176 -24.1865 37.0615C-25.0312 37.9055 -25.7013 38.9076 -26.1585 40.0107C-26.6157 41.1138 -26.8511 42.2962 -26.8511 43.4903V151.171C-26.8511 153.584 -25.8928 155.897 -24.187 157.603C-22.4812 159.309 -20.1676 160.267 -17.7553 160.267H165.436C167.849 160.267 170.162 159.309 171.868 157.603C173.574 155.897 174.532 153.584 174.532 151.171V43.4903C174.532 42.2962 174.297 41.1138 173.84 40.0107C173.382 38.9076 172.712 37.9055 171.867 37.0615C171.023 36.2176 170.02 35.5484 168.916 35.0922C167.813 34.636 166.63 34.4017 165.436 34.4028V34.4028Z" fill="var(--sapContent_Illustrative_Color7)"/>
</mask>
<g mask="url(#mask1_671_9659)">
<path d="M12.8395 191.035L-15.5838 160.736C-18.0333 158.128 -19.3648 154.665 -19.2934 151.087C-19.222 147.51 -17.7535 144.102 -15.2019 141.594L51.0795 76.3889C53.382 74.1305 56.2968 72.5975 59.4624 71.9803C62.628 71.363 65.9052 71.6886 68.8875 72.9166V72.9166C70.7574 73.6878 72.4505 74.8321 73.8633 76.2796C75.2762 77.7271 76.3791 79.4474 77.1047 81.3355C77.8303 83.2236 78.1634 85.2398 78.0836 87.2609C78.0038 89.2821 77.5128 91.2657 76.6406 93.0907L31.0245 188.222C30.2411 189.856 29.0712 191.275 27.616 192.355C26.1609 193.436 24.4644 194.145 22.6734 194.422C20.8824 194.699 19.0508 194.535 17.3373 193.945C15.6238 193.355 14.08 192.356 12.8395 191.035V191.035Z" fill="var(--sapContent_Illustrative_Color17)"/>
<path d="M74.076 104.281C72.4192 88.4076 56.3574 72.9013 41.5653 81.83L-35.2421 155.845L25.0868 216.928L73.7387 111.102C74.2995 109.882 74.5222 108.533 74.3836 107.198L74.076 104.281Z" fill="var(--sapContent_Illustrative_Color9)"/>
<path d="M72 109.182C72 111.115 70.433 112.682 68.5 112.682C66.567 112.682 65 111.115 65 109.182C65 107.249 66.567 105.682 68.5 105.682C70.433 105.682 72 107.249 72 109.182Z" fill="var(--sapContent_Illustrative_Color17)"/>
<path d="M67 118.182C67 120.115 65.433 121.682 63.5 121.682C61.567 121.682 60 120.115 60 118.182C60 116.249 61.567 114.682 63.5 114.682C65.433 114.682 67 116.249 67 118.182Z" fill="var(--sapContent_Illustrative_Color17)"/>
<path d="M124.549 78.0102C124.409 77.8542 124.227 77.7414 124.025 77.6851C123.823 77.6287 123.609 77.6312 123.409 77.6921C123.208 77.7531 123.029 77.87 122.893 78.0291C122.756 78.1883 122.668 78.3831 122.639 78.5906L122.356 80.5152C120.66 92.2466 107.584 97.8023 98.3028 91.7704L96.4576 88.695C96.1916 88.9059 96.0057 89.2015 95.9308 89.5327C95.8559 89.8638 95.8965 90.2106 96.0458 90.5155L149.673 197.646L192.566 154.193L124.549 78.0102Z" fill="var(--sapContent_Illustrative_Color2)"/>
</g>
</g>
</svg>
