<svg width="320" height="240" viewBox="0 0 320 240" fill="none" xmlns="http://www.w3.org/2000/svg" id="sapIllus-Scene-NoNotifications">
<rect y="59" width="320" height="138" rx="24" fill="var(--sapContent_Illustrative_Color20)"/>
<path d="M180.623 132.188C180.544 132.1 180.466 132.013 180.377 131.925C180.24 131.788 180.093 131.652 179.945 131.515C179.867 131.437 179.788 131.369 179.7 131.291C179.493 131.116 179.277 130.94 179.051 130.774C179.012 130.745 178.982 130.716 178.943 130.696C178.678 130.511 178.403 130.326 178.118 130.15C178.02 130.092 177.911 130.033 177.813 129.975C177.617 129.858 177.41 129.741 177.194 129.634C177.076 129.565 176.949 129.507 176.821 129.448C176.615 129.351 176.408 129.253 176.202 129.156C176.064 129.097 175.927 129.039 175.789 128.98C175.563 128.883 175.337 128.795 175.102 128.707C174.964 128.659 174.836 128.6 174.689 128.551C174.414 128.454 174.129 128.356 173.844 128.269C173.736 128.239 173.638 128.2 173.53 128.171C173.137 128.054 172.724 127.937 172.312 127.83C172.213 127.801 172.105 127.781 171.997 127.762C171.673 127.684 171.349 127.606 171.005 127.538C170.848 127.508 170.681 127.479 170.514 127.44C170.219 127.382 169.924 127.333 169.62 127.284C169.443 127.255 169.256 127.226 169.079 127.196C168.775 127.148 168.47 127.109 168.156 127.07C167.969 127.05 167.792 127.021 167.606 127.001C167.272 126.962 166.918 126.933 166.574 126.904C166.407 126.894 166.25 126.875 166.083 126.855C165.562 126.816 165.041 126.777 164.501 126.758C162.664 126.68 160.778 126.689 158.842 126.787C158.724 126.787 158.597 126.806 158.479 126.806C158.007 126.836 157.526 126.865 157.044 126.894C156.563 126.933 156.082 126.972 155.59 127.021C155.541 127.021 155.492 127.021 155.443 127.031C152.289 127.323 148.939 127.83 145.501 128.551C131.353 128.434 117.805 131.993 113.021 133.27C110.928 133.826 105.996 133.933 100.446 133.894C98.4905 133.884 96.4667 133.855 94.4527 133.826C93.2541 133.806 92.0653 133.787 90.8962 133.767C88.5776 133.738 86.3671 133.709 84.4022 133.719C83.0956 133.719 81.9068 133.738 80.8556 133.787C80.61 133.787 80.3644 133.806 80.109 133.816C80.0304 133.816 79.9419 133.816 79.8633 133.826C79.6963 133.826 79.5195 133.845 79.3426 133.855C79.2444 133.855 79.1363 133.865 79.0381 133.875C78.8809 133.875 78.7237 133.894 78.5567 133.904C78.4486 133.904 78.3405 133.923 78.2325 133.923C78.0753 133.933 77.9181 133.943 77.7609 133.962C77.643 133.962 77.5349 133.982 77.417 133.992C77.2599 134.001 77.1027 134.021 76.9455 134.031C76.8276 134.04 76.7097 134.05 76.6016 134.06C76.4346 134.079 76.2676 134.089 76.1104 134.109C76.0023 134.118 75.8943 134.128 75.7764 134.138C75.5799 134.157 75.3736 134.177 75.1672 134.206C75.069 134.216 74.9806 134.226 74.8823 134.235C74.6269 134.265 74.3813 134.294 74.1259 134.323C74.008 134.333 73.8901 134.352 73.7722 134.372C73.615 134.391 73.448 134.411 73.2908 134.43C73.1532 134.45 73.0255 134.469 72.888 134.489C72.7406 134.508 72.5932 134.528 72.4459 134.547C72.3083 134.567 72.1708 134.586 72.0234 134.606C71.876 134.625 71.7385 134.645 71.5911 134.674C71.4438 134.694 71.3062 134.723 71.1589 134.742C71.0213 134.762 70.8838 134.791 70.7364 134.811C70.589 134.84 70.4417 134.859 70.2943 134.889C70.1568 134.908 70.0192 134.937 69.8817 134.967C69.7343 134.996 69.5869 135.015 69.4396 135.045C69.302 135.074 69.1743 135.093 69.0368 135.123C68.742 135.181 68.4473 135.24 68.1526 135.298C68.0347 135.327 67.9168 135.347 67.7891 135.376C67.6319 135.405 67.4747 135.444 67.3175 135.483C67.1898 135.513 67.0719 135.542 66.9442 135.571C66.787 135.61 66.6298 135.649 66.4726 135.678C66.3547 135.708 66.227 135.737 66.1091 135.766C65.9519 135.805 65.7947 135.844 65.6473 135.883C65.5294 135.912 65.4017 135.942 65.2838 135.981C65.1266 136.02 64.9793 136.059 64.8221 136.107C64.7042 136.137 64.5863 136.176 64.4684 136.205C64.3112 136.254 64.154 136.293 64.0066 136.341C63.8888 136.371 63.7807 136.41 63.6726 136.439C63.5154 136.488 63.3582 136.536 63.201 136.585C63.1814 136.585 63.1617 136.595 63.1421 136.605C62.8474 136.575 62.5232 136.556 62.1498 136.546C61.246 136.546 60.3323 136.663 59.566 136.809C58.1218 137.082 56.3534 137.706 54.8306 137.775H51.1857C47.9535 137.755 44.6721 138.535 43.2869 139.637L42.6679 140.134C41.2925 141.226 42.0883 142.367 44.623 142.893L47.6587 143.527C48.8475 143.78 48.9261 144.355 49.5156 144.775C49.8791 145.028 50.2033 145.36 51.6769 145.506C51.8538 145.525 52.0405 145.535 52.2173 145.535C52.2369 145.574 52.2566 145.613 52.2762 145.652C52.2959 145.701 52.3155 145.75 52.3352 145.789C52.3843 145.876 52.4334 145.964 52.4826 146.052C52.5022 146.081 52.5219 146.12 52.5415 146.149C52.6201 146.266 52.7085 146.383 52.8068 146.5C52.8264 146.52 52.8461 146.549 52.8657 146.569C52.9443 146.666 53.0229 146.754 53.1113 146.851C53.1506 146.89 53.1899 146.929 53.239 146.968C53.3176 147.037 53.3864 147.115 53.465 147.183C53.5141 147.232 53.5731 147.271 53.6222 147.31C53.7008 147.378 53.7794 147.436 53.858 147.505C53.9169 147.553 53.9759 147.592 54.0348 147.641C54.1232 147.7 54.2018 147.768 54.2903 147.826C54.359 147.875 54.418 147.914 54.4867 147.963C54.5752 148.021 54.6734 148.08 54.7618 148.138C54.8306 148.177 54.8994 148.226 54.9681 148.265C55.0664 148.323 55.1646 148.382 55.2629 148.44C55.3316 148.479 55.4102 148.518 55.479 148.557C55.5871 148.616 55.6952 148.674 55.813 148.723C55.8818 148.762 55.9604 148.801 56.0292 148.83C56.1471 148.889 56.2748 148.947 56.4025 149.006C56.4713 149.035 56.5401 149.074 56.6088 149.103C56.766 149.172 56.9232 149.24 57.0902 149.308C57.1295 149.328 57.1688 149.347 57.2081 149.357C57.4144 149.445 57.6207 149.523 57.8271 149.601C57.886 149.62 57.945 149.64 58.0039 149.669C58.1611 149.727 58.3085 149.786 58.4657 149.835C58.5442 149.864 58.6327 149.893 58.7113 149.922C58.8488 149.971 58.9863 150.01 59.1239 150.059C59.2123 150.088 59.3106 150.117 59.399 150.147C59.5267 150.186 59.6642 150.225 59.8018 150.264C59.9 150.293 59.9983 150.322 60.0867 150.351C60.2144 150.39 60.3519 150.429 60.4797 150.459C60.5779 150.488 60.6762 150.507 60.7744 150.537C60.9021 150.576 61.0397 150.605 61.1772 150.644C61.2754 150.673 61.3737 150.693 61.4719 150.712C61.6095 150.741 61.747 150.78 61.8747 150.81C61.973 150.829 62.0712 150.858 62.1597 150.878C62.2972 150.907 62.4446 150.936 62.5821 150.966C62.6705 150.985 62.7589 151.005 62.8572 151.024C63.0144 151.053 63.1716 151.083 63.3189 151.112C63.3975 151.122 63.4663 151.141 63.5449 151.151C63.7709 151.19 64.0067 151.229 64.2326 151.268C64.4586 151.307 64.6944 151.346 64.9498 151.385C65.4508 151.463 65.9814 151.56 66.5512 151.658C66.8361 151.707 67.1308 151.755 67.4256 151.814C68.9287 152.077 70.5989 152.379 72.2887 152.691C74.6858 153.13 77.1518 153.598 79.264 153.998C80.109 154.154 80.8949 154.349 81.6317 154.553C83.8422 155.187 85.4928 156.045 86.377 157.03C86.5538 157.225 86.7405 157.42 86.9271 157.615C86.9861 157.673 87.0548 157.732 87.1138 157.8C87.2415 157.927 87.3791 158.054 87.5166 158.18C87.5952 158.249 87.6738 158.317 87.7622 158.385C87.8899 158.492 88.0176 158.609 88.1552 158.716C88.2436 158.785 88.332 158.853 88.4204 158.921C88.5482 159.028 88.6857 159.126 88.8232 159.233C88.9117 159.301 89.0099 159.37 89.1082 159.438C89.2457 159.535 89.3832 159.633 89.5208 159.73C89.619 159.799 89.7075 159.857 89.8057 159.925C89.9531 160.023 90.0906 160.111 90.238 160.208C90.3362 160.267 90.4345 160.325 90.5327 160.393C90.6899 160.491 90.8373 160.579 90.9945 160.666C91.0927 160.725 91.1811 160.774 91.2794 160.832C91.4464 160.93 91.6134 161.017 91.7706 161.105C91.859 161.154 91.9474 161.203 92.0359 161.251C92.2127 161.349 92.3994 161.437 92.5762 161.534C92.6548 161.573 92.7334 161.612 92.812 161.651C93.0183 161.749 93.2246 161.856 93.4309 161.953C93.4899 161.983 93.5488 162.012 93.5979 162.031C94.4134 162.412 95.2484 162.753 96.0639 163.065C96.0639 163.065 96.0737 163.065 96.0835 163.065C96.3488 163.162 96.6141 163.26 96.8793 163.357C96.9186 163.367 96.9579 163.386 96.9972 163.396C97.2232 163.474 97.459 163.562 97.6849 163.64C97.734 163.659 97.793 163.679 97.8421 163.689C98.0582 163.757 98.2646 163.835 98.4807 163.893C98.5396 163.913 98.5986 163.932 98.6575 163.952C98.8639 164.02 99.0603 164.079 99.2667 164.137C99.3256 164.157 99.3846 164.176 99.4435 164.186C99.64 164.244 99.8365 164.303 100.033 164.361C100.092 164.381 100.151 164.391 100.2 164.41C100.396 164.469 100.593 164.517 100.789 164.576C100.839 164.586 100.888 164.605 100.937 164.615C101.133 164.673 101.33 164.722 101.526 164.771C101.526 164.771 101.536 164.771 101.546 164.771C103.648 167.423 107.588 169.207 112.569 170.114C112.628 170.123 112.687 170.133 112.746 170.143C113.237 170.231 113.728 170.309 114.239 170.377C114.779 170.455 115.33 170.513 115.89 170.572C116.322 170.611 116.764 170.65 117.206 170.679C117.334 170.679 117.452 170.699 117.579 170.708C123.327 171.069 129.85 170.455 136.55 169.051C136.639 169.031 136.737 169.012 136.826 168.992C137.307 168.895 137.779 168.788 138.26 168.671C138.525 168.612 138.8 168.554 139.066 168.485C139.36 168.417 139.655 168.339 139.95 168.271C140.431 168.154 140.903 168.037 141.384 167.91C141.463 167.891 141.541 167.871 141.62 167.852C150.541 165.483 159.383 161.846 166.712 157.371C171.015 157.108 175.19 156.503 178.815 155.558C181.527 154.856 183.649 153.988 185.142 153.042C185.28 152.964 185.408 152.877 185.535 152.789C187.009 151.814 187.726 150.771 187.697 149.737C187.697 149.669 187.697 149.591 187.697 149.523C187.687 149.435 187.667 149.347 187.648 149.25C187.598 149.055 187.539 148.869 187.441 148.674C186.685 147.261 184.474 145.915 180.829 144.843C180.721 144.814 180.613 144.784 180.505 144.755C183.59 139.89 183.561 135.571 180.78 132.373C180.8 132.373 180.81 132.383 180.81 132.383C180.751 132.315 180.672 132.247 180.613 132.169L180.623 132.188Z" fill="var(--sapContent_Illustrative_Color21)"/>
<path d="M105.751 51.1523L104.405 46.6968C103.265 42.914 104.886 38.8484 108.335 36.879L109.897 35.982C113.394 33.9736 117.835 34.6659 120.546 37.6492L123.563 40.9543C124.958 42.1242 127.699 41.8805 129.457 42.368C130.361 42.6312 131.373 43.0797 132.08 43.8889C133.878 45.9558 133.014 48.3444 133.014 48.3444C133.014 48.3444 128.828 51.4838 121.028 55.9588C113.227 60.4338 108.649 62.3057 108.649 62.3057C108.649 62.3057 106.311 61.9548 105.25 60.1316C104.287 58.4839 104.66 57.2847 104.866 56.2708C105.191 54.5939 106.271 52.9072 105.77 51.162L105.751 51.1523Z" fill="var(--sapContent_Illustrative_Color16)"/>
<path d="M105.751 51.1527L104.405 46.6971C103.265 42.9143 104.886 38.8488 108.335 36.8794L109.897 35.9824C109.897 49.8123 112.061 53.9626 121.028 55.9592C113.227 60.4342 108.649 62.3061 108.649 62.3061C108.649 62.3061 106.311 61.9551 105.25 60.132C104.287 58.4843 104.66 57.2851 104.866 56.2712C105.191 54.5942 106.271 52.9076 105.77 51.1624L105.751 51.1527Z" fill="var(--sapContent_Illustrative_Color29)"/>
<path d="M110.506 146.817C110.506 146.817 103.727 134.357 111.174 115.131C112.667 111.28 112.697 107.02 111.292 103.139C109.258 97.5528 106.35 89.7435 104.493 85.5219C100.613 76.7181 100.622 58.6328 116.518 49.673C132.414 40.7132 145.422 46.0852 152.279 52.1786C159.137 58.272 169.983 75.8407 175.76 76.2014C181.536 76.5621 197.609 77.6346 205.655 88.2128C213.692 98.791 110.516 146.827 110.516 146.827L110.506 146.817Z" fill="var(--sapContent_Illustrative_Color26)"/>
<path d="M120.132 132.521C119.543 123.717 120.82 113.032 128.601 103.282C136.382 93.5326 139.192 91.6802 130.772 91.4365C120.23 91.1343 115.485 84.0074 112.44 77.8847C106.417 65.7855 112.44 52.4092 112.44 52.4092C100.64 61.9345 100.955 77.5337 104.482 85.5088C106.348 89.7303 109.256 97.5397 111.28 103.126C112.695 107.006 112.656 111.267 111.162 115.118C104.305 132.843 109.522 144.815 110.386 146.57C112.646 143.489 120.348 135.709 120.132 132.511V132.521Z" fill="var(--sapContent_Illustrative_Color15)"/>
<path d="M149.371 66.5467C153.664 82.5261 151.247 82.2629 156.346 84.125C161.445 85.9872 175.337 80.469 184.523 84.125C193.709 87.7811 197.216 93.7088 197.216 93.7088L205.184 92.0416C206.176 90.4915 206.392 89.185 205.646 88.2101C197.609 77.6319 181.536 76.5594 175.749 76.1987C169.973 75.838 159.136 58.2693 152.269 52.1759C146.246 46.8332 135.498 42.0364 122.225 46.9891C128.317 48.3541 145.844 53.3848 149.371 66.5467Z" fill="var(--sapContent_Illustrative_Color27)"/>
<path d="M178.897 154.105C209.657 136.482 227.926 110.737 219.703 96.6032C211.48 82.4693 179.879 85.2982 149.12 102.922C118.36 120.545 100.091 146.29 108.314 160.424C116.537 174.558 148.138 171.729 178.897 154.105Z" fill="var(--sapContent_Illustrative_Color3)"/>
<path d="M209.583 103.292C204.347 94.2838 178.135 99.8606 155.048 113.091C131.961 126.321 114.247 146.629 119.542 155.599C124.838 164.568 150.932 158.923 174.019 145.693C197.106 132.463 214.83 112.291 209.583 103.292Z" fill="var(--sapContent_Illustrative_Color29)"/>
<path d="M209.584 103.292C204.347 94.2838 178.135 99.8606 155.048 113.091C154.085 113.646 153.132 114.202 152.189 114.777C155.952 113.451 202.657 97.4817 202.48 122.84C209.102 115.041 212.197 107.777 209.593 103.283L209.584 103.292Z" fill="var(--sapContent_Illustrative_Color30)"/>
<path d="M219.712 96.594C215.527 89.3891 203.61 84.7679 185.533 88.8821C185.533 88.8821 203.097 86.3774 211.058 98.839C216.147 106.804 221.346 107.95 221.346 107.95C221.771 105.787 222.23 100.961 219.722 96.594H219.712Z" fill="var(--sapContent_Illustrative_Color28)"/>
<path d="M114.888 155.878C108.443 142.482 125.095 120.517 125.095 120.517C106.999 137.315 103.275 151.744 108.315 160.402C116.332 174.178 146.915 171.858 176.919 155.42L193.503 144.783C172.488 160.061 123.877 174.558 114.888 155.868V155.878Z" fill="var(--sapContent_Illustrative_Color16)"/>
<path d="M158.811 110.921L151.937 114.86L161.908 132L168.783 128.061L158.811 110.921Z" fill="var(--sapContent_Illustrative_Color16)"/>
<path d="M191.297 139.598L192.569 145.257C207.883 134.586 219.261 120.278 221.354 107.991C221.377 107.855 220.052 107.564 218.795 106.81C212.855 125.224 198.104 134.864 191.297 139.598Z" fill="var(--sapContent_Illustrative_Color26)"/>
<path d="M173.933 164.213C184.741 164.213 193.503 155.518 193.503 144.792C193.503 134.066 184.741 125.371 173.933 125.371C163.124 125.371 154.362 134.066 154.362 144.792C154.362 155.518 163.124 164.213 173.933 164.213Z" fill="var(--sapContent_Illustrative_Color3)"/>
<path d="M173.452 164.413C180.191 164.413 186.626 160.835 190.143 155.687C164.56 160.084 157.487 142.974 159.982 131.196C156.514 134.696 153.92 139.503 153.92 144.807C153.92 156.487 162.645 164.423 173.452 164.423V164.413Z" fill="var(--sapContent_Illustrative_Color16)"/>
<path d="M187.947 136.684C188.859 133.291 185.697 129.509 180.884 128.234C176.072 126.96 171.431 128.677 170.519 132.069C169.607 135.461 172.769 139.244 177.581 140.518C182.394 141.792 187.035 140.076 187.947 136.684Z" fill="var(--sapContent_Illustrative_Color26)"/>
<path d="M185.912 88.7773C173.535 90.3006 146.838 101.493 132.441 114.176C163.409 95.8622 190.42 89.9915 207.329 94.426C206.165 93.3272 203.97 91.7766 199.091 89.9915C195.187 88.5634 188.649 88.5393 185.912 88.7773Z" fill="var(--sapContent_Illustrative_Color27)"/>
<path d="M207.171 86.8746C207.171 86.8746 201.855 87.972 199.66 87.9081C197.476 87.8335 189.177 87.9081 189.177 87.9081C189.177 87.9081 189.603 85.6707 193.268 85.9264C196.943 86.1821 198.669 84.2964 198.669 84.2964L207.171 86.8746Z" fill="var(--sapContent_Illustrative_Color26)"/>
<path d="M242.135 95.267C242.135 95.267 254.706 115.946 253.918 117.64C253.13 119.334 251.297 114.902 251.297 114.902C251.297 114.902 249.39 118.546 248.037 116.33C246.684 114.124 244.255 113.943 242.124 109.714C240.004 105.484 236.552 97.6322 233.921 95.6399C231.3 93.637 227.262 89.8335 224.854 89.8548C222.457 89.8761 198.049 92.497 191.731 79.0092C191.731 79.0092 191.135 77.752 190.975 78.3273C190.73 79.2436 189.76 75.0033 189.76 75.0033L189.835 76.9317C189.835 77.1128 189.611 77.1661 189.537 77.0169C189.11 76.1966 188.429 74.7902 188.418 74.1404C188.418 73.4372 188.077 74.0445 187.715 73.7568C187.566 73.629 187.502 73.4265 187.48 73.2348C187.374 72.5529 187.555 71.8285 187.406 71.1573C187.278 70.5926 186.926 70.0919 186.458 69.7616C186.362 69.6977 186.276 69.6338 186.213 69.5485C186.17 69.4846 186.159 69.3994 186.138 69.3248C186.01 68.6323 185.989 67.9185 186.095 67.2153C186.138 66.8851 186.223 66.5441 186.181 66.2139C186.138 65.8516 185.967 65.5107 185.861 65.1698C185.648 64.4773 185.68 63.7209 185.861 63.0177C186.106 62.0056 186.596 61.1107 186.809 60.0879C186.937 59.438 186.98 58.7668 187.044 58.1063C187.171 56.913 187.672 56.2738 188.855 56.0075C189.036 55.9648 189.206 55.9435 189.398 55.9116C192.85 55.4108 188.098 50.3716 188.098 50.3716C188.098 50.3716 184.284 44.9274 190.517 37.8106C196.248 31.2691 211.761 30.0759 218.323 43.7129C219.442 46.0461 221.296 47.9531 223.608 49.0611C226.41 50.4035 230.011 52.758 231.694 56.4549C233.271 59.9387 234.262 61.7499 234.837 62.6661C235.018 62.9538 234.73 63.3054 234.421 63.1775L233.633 62.8792L236.041 68.366C236.169 68.6536 235.881 68.9519 235.583 68.8241L234.293 68.2594C234.293 68.2594 240.26 76.8678 239.823 79.0838C239.535 80.5327 238.566 78.9879 238.566 78.9879C238.566 78.9879 241.538 84.7729 243.221 86.3391C244.905 87.9052 249.539 92.1987 249.028 93.573C248.516 94.9474 240.324 89.8442 240.324 89.8442L244.138 96.3537L242.124 95.2777L242.135 95.267Z" fill="var(--sapContent_Illustrative_Color14)"/>
<path d="M189.576 53.2425C191.622 55.0732 199.671 56.3386 203.44 56.7424L223.362 48.7999C222.24 48.5307 219.814 46.7644 217.708 42.4736C214.421 35.7736 207.478 32.1092 199.806 33.186C192.133 34.2628 188.766 38.535 187.42 42.0774C186.08 45.6028 187.018 50.9541 189.576 53.2425Z" fill="var(--sapContent_Illustrative_Color13)"/>
<path d="M240.324 89.8208C235.573 89.8314 231.183 88.4997 227.273 86.1132C222.072 83.6107 218.559 81.017 214.255 78.2363C211.645 76.553 208.743 74.251 206.655 71.9391C203.949 68.9453 202.328 64.1023 201.443 60.203C200.794 57.3264 201.395 53.246 204.442 51.7545C204.57 51.6905 205.156 51.3496 205.273 51.4242C208.917 53.5869 206.733 58.9991 208.118 60.203C208.736 60.725 211.314 67.991 218.1 69.5677C222.021 70.484 243.883 89.7994 240.335 89.8101L240.324 89.8208Z" fill="var(--sapContent_Illustrative_Color22)"/>
<path d="M214.934 48.5958C216.543 46.934 218.982 46.4546 220.804 47.0831C222.136 48.1804 223.169 48.6919 224.192 49.2032C225.396 49.8003 226.58 50.3874 228.179 51.9054C229.079 52.6286 229.945 53.4558 230.573 54.2267C231.985 55.962 235.324 62.9864 235.201 63.4767C235.103 63.8683 234.201 63.3133 233.762 62.9864C234.609 64.7832 236.297 68.5104 236.274 69.0509C236.249 69.59 235.059 68.8264 234.467 68.3771C235.069 69.1122 236.635 71.2933 238.081 74.1359C239.889 77.6892 240.041 78.547 239.704 79.4659C239.554 79.8748 239.244 79.8347 238.936 79.6417C239.634 80.6899 240.373 81.8322 240.94 82.7208C242.953 85.2777 244.594 87.0996 245.851 88.4952C247.982 90.8604 249.036 92.0216 249.036 93.5558C248.343 95.2166 240.332 89.8263 240.332 89.8263C219.877 80.664 208.317 70.1167 203.353 59.4415C199.731 51.6645 206.943 50.3965 211.119 50.2687C212.558 50.2261 213.932 49.64 214.934 48.6066V48.5958Z" fill="var(--sapContent_Illustrative_Color13)"/>
<path d="M185.873 65.149C185.66 64.4565 185.692 63.7001 185.873 62.9969C186.118 61.9848 186.608 61.0899 186.821 60.0671C186.949 59.4172 186.992 58.746 187.055 58.0855C187.183 56.8922 187.684 56.253 188.867 55.9866C188.963 55.9653 189.058 55.944 189.154 55.9334C189.176 55.9653 189.282 55.976 189.421 55.9653L190.049 52.929L195.941 48.8805C196.207 48.9444 196.474 48.9871 196.751 48.9871C198.423 48.9871 199.808 47.7192 200.011 46.0892L206.541 41.5933C206.541 41.5933 197.699 56.1145 193.032 56.5087C192.063 56.5939 191.338 56.6365 190.795 56.6365C190.177 56.6365 189.751 57.2438 189.921 57.8404C193.032 59.4172 192.34 62.9117 192.862 66.4488C193.022 67.5461 193.49 68.6328 193.895 69.6556C194.46 71.0832 195.131 72.4682 195.941 73.7786C200.288 80.8102 203.004 77.0707 207.49 80.3947C209.322 81.7477 210.025 84.848 212.156 85.6577C214.063 86.3928 216.471 87.1705 218.506 87.2345C222.256 87.3517 226.262 84.6882 229.373 87.2345C234.987 90.5265 237.629 95.7363 240.57 101.362C242.221 104.515 244 109.064 246.536 111.674C247.197 112.346 248.145 110.63 247.548 108.627C248.656 109.725 250.531 112.804 252.065 112.729C253.344 115.265 254.154 117.183 253.93 117.651C253.141 119.345 251.309 114.913 251.309 114.913C251.309 114.913 250.371 120.975 248.006 121.689C245.631 122.392 242.69 115.126 240.57 110.897C238.45 106.667 235.893 101.947 232.867 96.6099C230.779 93.7014 227.295 89.8553 224.887 89.8766C222.49 89.8979 198.082 92.5188 191.765 79.031C191.765 79.031 191.168 77.7738 191.008 78.3491C190.763 79.2654 189.794 75.0358 189.794 75.0358L189.868 76.9641C189.868 77.1452 189.644 77.1985 189.57 77.0494C189.144 76.229 188.462 74.8227 188.451 74.1728C188.451 73.4697 188.1 74.0769 187.737 73.7893C187.588 73.6614 187.524 73.459 187.492 73.2672C187.386 72.5854 187.567 71.8609 187.418 71.1897C187.301 70.6251 186.938 70.1243 186.47 69.7941C186.374 69.7302 186.288 69.6662 186.224 69.581C186.182 69.5171 186.161 69.4318 186.15 69.3573C186.022 68.6648 186.001 67.951 186.107 67.2478C186.15 66.9175 186.235 66.5766 186.193 66.2463C186.15 65.8841 185.979 65.5432 185.873 65.2023H185.905L185.873 65.149Z" fill="var(--sapContent_Illustrative_Color22)"/>
<path d="M191.36 50.8807L195.131 48.5369C195.611 48.8032 196.154 48.963 196.74 48.963C198.562 48.963 200.021 47.4821 200.021 45.6497V45.5325L206.531 41.5586C206.531 41.5586 200.469 45.9906 200.245 46.7577C200.021 47.5248 199.052 49.6236 196.676 49.3253C194.311 49.0376 194.663 51.4241 194.663 51.4241L191.339 50.8701L191.36 50.8807Z" fill="var(--sapContent_Illustrative_Color22)"/>
<path d="M190.88 50.9492C190.88 50.9492 194.8 50.3313 194.672 51.4393C194.545 52.5473 193.096 57.7571 184.924 56.9154L187.598 54.774L183.997 56.1057C183.997 56.1057 183.294 54.7207 186.299 52.0572C189.335 48.9889 189.42 48.925 189.804 49.8839C190.187 50.8427 190.869 50.9492 190.869 50.9492H190.88Z" fill="var(--sapContent_Illustrative_Color26)"/>
</svg>