<svg width="128" height="128" viewBox="0 0 128 128" fill="none" xmlns="http://www.w3.org/2000/svg" id="sapIllus-Spot-EmptyCalendar">
<mask id="mask0_396_5311" style="mask-type:alpha" maskUnits="userSpaceOnUse" x="0" y="0" width="128" height="128">
<circle cx="64" cy="64" r="64" style="fill:var(--sapContent_Illustrative_Color7)"/>
</mask>
<g mask="url(#mask0_396_5311)">
<path d="M161.455 -4.58984H-29.4139C-30.6581 -4.59099 -31.8902 -4.34693 -33.04 -3.87162C-34.1897 -3.39631 -35.2345 -2.69906 -36.1147 -1.81974C-36.9948 -0.940419 -37.693 0.103735 -38.1694 1.25305C-38.6457 2.40236 -38.8909 3.63429 -38.8909 4.87841V117.072C-38.8909 119.586 -37.8925 121.996 -36.1152 123.774C-34.3379 125.551 -31.9274 126.549 -29.4139 126.549H161.455C163.968 126.549 166.379 125.551 168.156 123.774C169.933 121.996 170.932 119.586 170.932 117.072V4.87841C170.932 3.63429 170.687 2.40236 170.21 1.25305C169.734 0.103735 169.036 -0.940419 168.155 -1.81974C167.275 -2.69906 166.23 -3.39631 165.081 -3.87162C163.931 -4.34693 162.699 -4.59099 161.455 -4.58984Z" style="fill:var(--sapContent_Illustrative_Color7)"/>
<path d="M6.79899 48.0793C6.99293 47.8472 7.24584 47.6717 7.53113 47.5712C7.81642 47.4707 8.12352 47.4489 8.42013 47.5082L15.5117 48.7349C16.6846 48.9372 17.1482 50.0153 16.9894 50.9346C16.9381 51.3132 16.7653 51.665 16.497 51.937C16.2287 52.2089 15.8793 52.3865 15.5014 52.4429C15.318 52.4648 15.1324 52.4587 14.9508 52.425L7.85927 51.1984C7.54704 51.151 7.25344 51.02 7.00954 50.8194C6.76564 50.6188 6.58051 50.356 6.47374 50.0588C6.3549 49.7285 6.32239 49.3733 6.37931 49.0268C6.43623 48.6804 6.58069 48.3543 6.79899 48.0793Z" style="fill:var(--sapContent_Illustrative_Color5)"/>
<path d="M33.7539 19.754C33.9588 19.6842 34.176 19.6579 34.3917 19.6768C34.6073 19.6957 34.8167 19.7594 35.0063 19.8637C35.196 19.9681 35.3618 20.1108 35.4932 20.2828C35.6246 20.4549 35.7187 20.6524 35.7694 20.8628L37.7235 27.5952C37.793 27.8375 37.8134 28.0912 37.7837 28.3415C37.754 28.5918 37.6747 28.8337 37.5505 29.053C37.4263 29.2723 37.2596 29.4647 37.0603 29.6189C36.8609 29.7731 36.6327 29.8861 36.3892 29.9512C36.2895 29.9808 36.1876 30.0022 36.0845 30.0152C35.704 30.0686 35.3172 29.9775 35.0006 29.76C34.6839 29.5424 34.4602 29.2141 34.3737 28.8398L32.4222 22.1099C32.3523 21.8678 32.3315 21.6142 32.3609 21.3639C32.3902 21.1136 32.4692 20.8717 32.5932 20.6523C32.7173 20.4329 32.8838 20.2405 33.0831 20.0862C33.2824 19.932 33.5104 19.819 33.7539 19.754Z" style="fill:var(--sapContent_Illustrative_Color5)"/>
<path d="M16.3286 28.8704C16.5646 28.855 16.8013 28.888 17.0241 28.9673C17.2469 29.0465 17.4512 29.1704 17.6245 29.3313L25.4715 36.4709C25.8216 36.793 26.0337 37.2381 26.0633 37.713C26.0929 38.1878 25.9377 38.6557 25.6303 39.0189C25.3438 39.3545 24.9416 39.5702 24.5034 39.6232C24.2509 39.6534 23.9947 39.6287 23.7525 39.5509C23.5104 39.4732 23.2878 39.3441 23.1 39.1725L15.253 32.033C14.9006 31.7093 14.6875 31.2616 14.6584 30.7841C14.6292 30.3065 14.7864 29.8363 15.0967 29.4721C15.251 29.2941 15.4396 29.1489 15.6513 29.0455C15.8629 28.9421 16.0933 28.8825 16.3286 28.8704Z" style="fill:var(--sapContent_Illustrative_Color5)"/>
</g>
<path fill-rule="evenodd" clip-rule="evenodd" d="M34.5653 50.865C33.4493 50.865 32.5569 51.7923 32.5997 52.9075L32.8952 60.6087H32.8951L34.5289 104.783C34.535 104.994 34.6234 105.194 34.7751 105.341C34.9268 105.487 35.1298 105.569 35.3406 105.567H103.497C103.606 105.567 103.714 105.545 103.814 105.502C103.914 105.46 104.005 105.397 104.081 105.318C104.157 105.24 104.216 105.147 104.255 105.045C104.294 104.942 104.312 104.833 104.308 104.724L102.813 60.6087L102.663 52.7943C102.643 51.7229 101.768 50.865 100.697 50.865H34.5653Z" style="fill:var(--sapContent_Illustrative_Color20)"/>
<path d="M35.9156 56.8611H105.834L107.329 100.977C107.333 101.086 107.314 101.195 107.275 101.297C107.236 101.399 107.177 101.492 107.101 101.571C107.026 101.65 106.935 101.712 106.834 101.755C106.734 101.798 106.626 101.819 106.517 101.819H38.361C38.1503 101.821 37.9473 101.74 37.7956 101.593C37.6438 101.447 37.5555 101.246 37.5494 101.035L35.9156 56.8611Z" style="fill:var(--sapContent_Illustrative_Color2)"/>
<path d="M44.2157 68.2691C44.1751 67.1553 45.067 66.2302 46.1815 66.2302H96.0853C97.1438 66.2302 98.0125 67.0678 98.0511 68.1256L99.0292 94.9216C99.0698 96.0354 98.1779 96.9605 97.0634 96.9605H47.1596C46.1011 96.9605 45.2324 96.1229 45.1938 95.0651L44.2157 68.2691Z" style="fill:var(--sapContent_Illustrative_Color8)"/>
<path d="M45.6427 63.1239H66.1619C66.306 63.1248 66.4487 63.0964 66.5815 63.0403C66.7143 62.9842 66.8343 62.9017 66.9342 62.7976C67.0342 62.6936 67.112 62.5703 67.1629 62.4352C67.2138 62.3001 67.2368 62.1561 67.2305 62.0118C67.2155 61.7116 67.0859 61.4286 66.8685 61.2216C66.651 61.0146 66.3625 60.8993 66.0626 60.8997H45.5493C45.4052 60.8987 45.2625 60.9272 45.1297 60.9833C44.9969 61.0394 44.8769 61.1219 44.7769 61.2259C44.677 61.33 44.5992 61.4533 44.5483 61.5884C44.4973 61.7234 44.4744 61.8675 44.4807 62.0118C44.4956 62.311 44.6244 62.5931 44.8406 62.7999C45.0568 63.0068 45.3438 63.1228 45.6427 63.1239Z" style="fill:var(--sapContent_Illustrative_Color8)"/>
<path d="M49.2922 70.9671C49.2381 70.9662 49.1843 70.9765 49.1343 70.9972C49.0842 71.018 49.039 71.0487 49.0013 71.0877C48.9635 71.1266 48.9341 71.1728 48.9149 71.2236C48.8956 71.2743 48.887 71.3284 48.8894 71.3827L48.9652 73.6537C48.9697 73.7661 49.017 73.8724 49.0974 73.9508C49.1778 74.0292 49.2852 74.0737 49.3974 74.0751H52.101C52.1556 74.076 52.2098 74.0656 52.2603 74.0445C52.3107 74.0234 52.3563 73.9921 52.3941 73.9526C52.432 73.913 52.4612 73.866 52.4801 73.8146C52.499 73.7632 52.5071 73.7084 52.5038 73.6537L52.4279 71.3827C52.422 71.2713 52.374 71.1664 52.2938 71.0893C52.2135 71.0121 52.107 70.9684 51.9958 70.9671H49.2922Z" style="fill:var(--sapContent_Illustrative_Color6)"/>
<path d="M56.2001 70.9788C56.1457 70.978 56.0917 70.9882 56.0413 71.0089C55.991 71.0296 55.9454 71.0603 55.9072 71.0991C55.869 71.1379 55.8391 71.1841 55.8192 71.2348C55.7993 71.2856 55.7898 71.3399 55.7914 71.3944L55.8731 73.6654C55.8776 73.7778 55.9249 73.8841 56.0053 73.9625C56.0857 74.0409 56.1931 74.0854 56.3052 74.0868H59.0088C59.0632 74.0869 59.117 74.0759 59.1671 74.0545C59.2172 74.0331 59.2624 74.0018 59.3 73.9624C59.3377 73.923 59.367 73.8764 59.3862 73.8254C59.4054 73.7743 59.414 73.7199 59.4117 73.6654L59.3357 71.3944C59.3284 71.2825 59.2792 71.1776 59.198 71.1006C59.1168 71.0235 59.0096 70.98 58.8978 70.9788H56.2001Z" style="fill:var(--sapContent_Illustrative_Color6)"/>
<path d="M63.1897 71.0022C63.1353 71.0021 63.0814 71.0131 63.0313 71.0345C62.9813 71.0559 62.936 71.0872 62.8984 71.1266C62.8607 71.166 62.8315 71.2126 62.8123 71.2637C62.7931 71.3147 62.7844 71.3691 62.7868 71.4236L62.8627 73.6947C62.8685 73.8066 62.9163 73.9121 62.9964 73.9902C63.0765 74.0684 63.183 74.1133 63.2948 74.1161H65.9983C66.053 74.1161 66.1071 74.1052 66.1575 74.0838C66.2079 74.0625 66.2535 74.0313 66.2916 73.992C66.3297 73.9527 66.3596 73.9061 66.3794 73.8551C66.3992 73.804 66.4087 73.7495 66.4071 73.6947L66.3254 71.4236C66.3209 71.3113 66.2735 71.2049 66.1931 71.1265C66.1128 71.0481 66.0054 71.0036 65.8933 71.0022H63.1897Z" style="fill:var(--sapContent_Illustrative_Color6)"/>
<path d="M70.0975 71.0139C70.0429 71.0139 69.9887 71.0249 69.9384 71.0462C69.888 71.0675 69.8424 71.0987 69.8043 71.138C69.7662 71.1773 69.7363 71.2239 69.7165 71.275C69.6966 71.326 69.6873 71.3806 69.6888 71.4353L69.7705 73.7064C69.775 73.8187 69.8223 73.9251 69.9027 74.0035C69.9831 74.0819 70.0905 74.1264 70.2027 74.1278H72.9062C72.9606 74.1279 73.0145 74.1169 73.0646 74.0955C73.1147 74.0741 73.1599 74.0428 73.1975 74.0034C73.2352 73.964 73.2645 73.9174 73.2836 73.8663C73.3028 73.8153 73.3115 73.7609 73.3092 73.7064L73.2332 71.4353C73.2274 71.3235 73.1796 71.2179 73.0995 71.1398C73.0194 71.0617 72.9129 71.0167 72.8011 71.0139H70.0975Z" style="fill:var(--sapContent_Illustrative_Color6)"/>
<path d="M77.1514 71.0898C77.0969 71.0898 77.0431 71.1008 76.9931 71.1222C76.943 71.1436 76.8978 71.1749 76.8601 71.2143C76.8225 71.2537 76.7931 71.3003 76.7739 71.3513C76.7548 71.4024 76.7461 71.4568 76.7485 71.5113L76.8244 73.7823C76.8318 73.8941 76.8809 73.9991 76.9621 74.0761C77.0433 74.1532 77.1505 74.1967 77.2624 74.1979H79.9659C80.0198 74.1979 80.0732 74.1871 80.1228 74.1661C80.1725 74.145 80.2175 74.1142 80.2551 74.0755C80.2926 74.0367 80.322 73.9908 80.3416 73.9405C80.3611 73.8901 80.3704 73.8363 80.3688 73.7823L80.2871 71.5113C80.2826 71.3989 80.2353 71.2926 80.1549 71.2142C80.0745 71.1358 79.9671 71.0913 79.855 71.0898H77.1514Z" style="fill:var(--sapContent_Illustrative_Color6)"/>
<path d="M86.8679 74.2097C86.9221 74.2105 86.9758 74.2003 87.0259 74.1795C87.0759 74.1588 87.1212 74.128 87.1589 74.0891C87.1966 74.0502 87.226 74.0039 87.2453 73.9532C87.2645 73.9025 87.2733 73.8483 87.2709 73.7941L87.195 71.523C87.1905 71.4107 87.1431 71.3044 87.0627 71.2259C86.9823 71.1475 86.875 71.103 86.7629 71.1016H84.0593C84.0046 71.1007 83.9503 71.1111 83.8999 71.1322C83.8494 71.1533 83.8039 71.1846 83.766 71.2242C83.7282 71.2638 83.6989 71.3107 83.6801 71.3621C83.6612 71.4136 83.6531 71.4683 83.6563 71.523L83.7322 73.7941C83.7382 73.9054 83.7861 74.0103 83.8664 74.0875C83.9466 74.1647 84.0531 74.2083 84.1643 74.2097H86.8679Z" style="fill:var(--sapContent_Illustrative_Color6)"/>
<path d="M93.5772 71.5113C93.5727 71.399 93.5254 71.2926 93.445 71.2142C93.3646 71.1358 93.2572 71.0913 93.1451 71.0899H90.4415C90.3869 71.089 90.3326 71.0994 90.2821 71.1205C90.2317 71.1416 90.1862 71.1729 90.1484 71.2125C90.1105 71.252 90.0813 71.299 90.0624 71.3504C90.0435 71.4018 90.0354 71.4566 90.0387 71.5113L90.1146 73.7824C90.1204 73.8942 90.1681 73.9998 90.2482 74.0779C90.3283 74.156 90.4349 74.201 90.5467 74.2038H93.2502C93.3046 74.2038 93.3585 74.1929 93.4085 74.1715C93.4586 74.1501 93.5038 74.1188 93.5415 74.0794C93.5791 74.04 93.6085 73.9934 93.6276 73.9423C93.6468 73.8913 93.6555 73.8369 93.6531 73.7824L93.5772 71.5113Z" style="fill:var(--sapContent_Illustrative_Color6)"/>
<path d="M52.3813 80.2269C52.4354 80.2262 52.4889 80.2146 52.5386 80.193C52.5883 80.1713 52.6332 80.14 52.6707 80.1007C52.7082 80.0615 52.7375 80.0152 52.757 79.9645C52.7765 79.9139 52.7857 79.8598 52.7841 79.8055L52.7024 77.5345C52.6979 77.4221 52.6506 77.3158 52.5702 77.2373C52.4898 77.1589 52.3824 77.1144 52.2703 77.113H49.5667C49.5125 77.1138 49.4591 77.1253 49.4094 77.147C49.3597 77.1687 49.3148 77.2 49.2773 77.2392C49.2398 77.2784 49.2104 77.3247 49.191 77.3754C49.1715 77.4261 49.1622 77.4802 49.1638 77.5345L49.2397 79.8055C49.2456 79.9184 49.2942 80.0247 49.3755 80.103C49.4568 80.1813 49.5649 80.2256 49.6777 80.2269H52.3813Z" style="fill:var(--sapContent_Illustrative_Color6)"/>
<path d="M59.2833 80.2387C59.3377 80.2387 59.3916 80.2277 59.4417 80.2063C59.4917 80.1849 59.5369 80.1536 59.5746 80.1142C59.6122 80.0748 59.6415 80.0282 59.6607 79.9772C59.6799 79.9261 59.6886 79.8717 59.6862 79.8172L59.6103 77.5462C59.6059 77.4338 59.5585 77.3275 59.4781 77.2491C59.3977 77.1707 59.2904 77.1262 59.1782 77.1248H56.4746C56.4202 77.1247 56.3663 77.1357 56.3162 77.1571C56.2662 77.1785 56.2209 77.2098 56.1833 77.2492C56.1456 77.2886 56.1164 77.3352 56.0972 77.3862C56.078 77.4373 56.0693 77.4917 56.0717 77.5462L56.1476 79.8172C56.1534 79.9291 56.2012 80.0346 56.2813 80.1128C56.3614 80.1909 56.468 80.2359 56.5797 80.2387H59.2833Z" style="fill:var(--sapContent_Illustrative_Color6)"/>
<path d="M66.2787 80.2679C66.3329 80.2672 66.3864 80.2556 66.4361 80.234C66.4858 80.2123 66.5307 80.181 66.5682 80.1417C66.6057 80.1025 66.635 80.0562 66.6545 80.0056C66.674 79.9549 66.6832 79.9008 66.6816 79.8465L66.5999 77.5755C66.5954 77.4631 66.5481 77.3568 66.4677 77.2784C66.3873 77.2 66.28 77.1555 66.1678 77.1541H63.4642C63.4098 77.154 63.3559 77.165 63.3058 77.1864C63.2557 77.2078 63.2105 77.2391 63.1729 77.2785C63.1352 77.3179 63.1059 77.3645 63.0868 77.4155C63.0676 77.4666 63.0589 77.521 63.0612 77.5755L63.143 79.8465C63.1475 79.9589 63.1948 80.0652 63.2752 80.1436C63.3556 80.222 63.4629 80.2665 63.5751 80.2679H66.2787Z" style="fill:var(--sapContent_Illustrative_Color6)"/>
<path d="M73.1806 80.2795C73.2353 80.2795 73.2894 80.2685 73.3398 80.2472C73.3901 80.2259 73.4357 80.1947 73.4739 80.1554C73.512 80.1161 73.5418 80.0695 73.5617 80.0184C73.5815 79.9674 73.5909 79.9128 73.5893 79.8581L73.5076 77.587C73.5031 77.4747 73.4558 77.3683 73.3754 77.2899C73.295 77.2115 73.1876 77.167 73.0755 77.1656H70.3719C70.3172 77.1647 70.263 77.1751 70.2125 77.1962C70.1621 77.2173 70.1165 77.2486 70.0787 77.2882C70.0409 77.3277 70.0116 77.3747 69.9927 77.4261C69.9739 77.4775 69.9658 77.5323 69.969 77.587L70.0449 79.8581C70.0508 79.9699 70.0985 80.0755 70.1786 80.1536C70.2587 80.2317 70.3653 80.2767 70.477 80.2795H73.1806Z" style="fill:var(--sapContent_Illustrative_Color6)"/>
<path d="M80.2404 80.3497C80.2943 80.3498 80.3477 80.3389 80.3973 80.3179C80.447 80.2969 80.4919 80.2661 80.5295 80.2273C80.567 80.1886 80.5965 80.1427 80.616 80.0923C80.6356 80.0419 80.6448 79.9882 80.6432 79.9342L80.5615 77.6631C80.5585 77.5503 80.5116 77.4431 80.4309 77.3644C80.3502 77.2857 80.2421 77.2417 80.1294 77.2417H77.4259C77.3714 77.2416 77.3175 77.2526 77.2675 77.274C77.2174 77.2954 77.1722 77.3267 77.1345 77.3661C77.0969 77.4055 77.0676 77.4521 77.0484 77.5032C77.0292 77.5542 77.0205 77.6086 77.0229 77.6631L77.1047 79.9342C77.1092 80.046 77.1567 80.1517 77.2372 80.2292C77.3178 80.3066 77.4251 80.3498 77.5368 80.3497H80.2404Z" style="fill:var(--sapContent_Illustrative_Color6)"/>
<path d="M84.3278 77.2534C84.2734 77.2534 84.2196 77.2644 84.1695 77.2857C84.1194 77.3071 84.0742 77.3385 84.0366 77.3778C83.9989 77.4172 83.9696 77.4638 83.9504 77.5149C83.9312 77.5659 83.9226 77.6204 83.9249 77.6748L84.0008 79.9459C84.0081 80.0577 84.0574 80.1626 84.1386 80.2397C84.2198 80.3167 84.3269 80.3602 84.4387 80.3615H87.1366C87.191 80.3623 87.2449 80.352 87.2952 80.3314C87.3456 80.3107 87.3912 80.28 87.4294 80.2412C87.4676 80.2024 87.4976 80.1562 87.5175 80.1054C87.5374 80.0547 87.5469 80.0004 87.5453 79.9459L87.4635 77.6748C87.459 77.5625 87.4117 77.4562 87.3313 77.3777C87.2509 77.2993 87.1436 77.2548 87.0314 77.2534H84.3278Z" style="fill:var(--sapContent_Illustrative_Color6)"/>
<path d="M93.8518 77.6631C93.8473 77.5508 93.7999 77.4444 93.7195 77.366C93.6391 77.2876 93.5318 77.2431 93.4196 77.2417H90.716C90.6616 77.2416 90.6077 77.2526 90.5577 77.274C90.5076 77.2954 90.4624 77.3267 90.4247 77.3661C90.3871 77.4055 90.3578 77.4521 90.3386 77.5032C90.3195 77.5542 90.3108 77.6086 90.3131 77.6631L90.389 79.9342C90.3964 80.046 90.4456 80.1509 90.5268 80.228C90.6079 80.305 90.7152 80.3485 90.827 80.3497H93.5306C93.5845 80.3498 93.6379 80.3389 93.6875 80.3179C93.7372 80.2969 93.7821 80.2661 93.8197 80.2273C93.8573 80.1886 93.8867 80.1427 93.9062 80.0923C93.9258 80.0419 93.935 79.9882 93.9335 79.9342L93.8518 77.6631Z" style="fill:var(--sapContent_Illustrative_Color6)"/>
<path d="M52.9885 83.4639C52.9841 83.3515 52.9368 83.2452 52.8564 83.1668C52.776 83.0884 52.6686 83.0439 52.5564 83.0425H49.8762C49.8218 83.0424 49.768 83.0534 49.7179 83.0748C49.6678 83.0962 49.6226 83.1275 49.585 83.1669C49.5473 83.2063 49.518 83.2529 49.4988 83.304C49.4796 83.355 49.471 83.4094 49.4733 83.4639L49.5492 85.7349C49.5551 85.8478 49.6037 85.9542 49.685 86.0325C49.7664 86.1107 49.8744 86.155 49.9871 86.1564H52.6907C52.7449 86.1556 52.7984 86.1441 52.8481 86.1224C52.8978 86.1007 52.9427 86.0694 52.9802 86.0302C53.0177 85.991 53.047 85.9447 53.0665 85.894C53.086 85.8433 53.0952 85.7892 53.0937 85.7349L52.9885 83.4639Z" style="fill:var(--sapContent_Illustrative_Color6)"/>
<path d="M59.8963 83.4756C59.8905 83.3637 59.8427 83.2582 59.7626 83.1801C59.6825 83.1019 59.5759 83.057 59.4642 83.0542H56.7606C56.7062 83.0541 56.6523 83.0651 56.6022 83.0865C56.5522 83.1079 56.507 83.1392 56.4693 83.1786C56.4317 83.218 56.4024 83.2646 56.3832 83.3157C56.364 83.3667 56.3553 83.4211 56.3577 83.4756L56.4336 85.7467C56.4394 85.8585 56.4872 85.9641 56.5673 86.0422C56.6474 86.1203 56.754 86.1653 56.8657 86.1681H59.5693C59.6237 86.1681 59.6776 86.1571 59.7277 86.1358C59.7777 86.1144 59.8229 86.083 59.8606 86.0437C59.8982 86.0043 59.9275 85.9576 59.9467 85.9066C59.9659 85.8556 59.9746 85.8012 59.9722 85.7467L59.8963 83.4756Z" style="fill:var(--sapContent_Illustrative_Color6)"/>
<path d="M66.886 83.5049C66.8815 83.3926 66.8341 83.2862 66.7537 83.2078C66.6733 83.1294 66.566 83.0849 66.4539 83.0835H63.7503C63.6958 83.0834 63.6419 83.0944 63.5919 83.1158C63.5418 83.1372 63.4967 83.1685 63.459 83.2079C63.4213 83.2473 63.392 83.2939 63.3728 83.345C63.3536 83.396 63.3449 83.4504 63.3473 83.5049L63.4291 85.776C63.4336 85.8878 63.4811 85.9935 63.5616 86.0709C63.6422 86.1484 63.7495 86.1916 63.8612 86.1915H66.5648C66.6187 86.1916 66.6721 86.1807 66.7217 86.1597C66.7714 86.1387 66.8163 86.1079 66.8539 86.0691C66.8915 86.0304 66.9209 85.9845 66.9405 85.9341C66.96 85.8838 66.9693 85.83 66.9677 85.776L66.886 83.5049Z" style="fill:var(--sapContent_Illustrative_Color6)"/>
<path d="M73.8172 83.5165C73.8127 83.4041 73.7653 83.2977 73.6849 83.2193C73.6045 83.1409 73.4972 83.0964 73.3851 83.095H70.6815C70.6268 83.0941 70.5725 83.1045 70.5221 83.1256C70.4716 83.1467 70.426 83.178 70.3882 83.2176C70.3504 83.2572 70.3211 83.3041 70.3023 83.3555C70.2834 83.407 70.2753 83.4618 70.2785 83.5165L70.3544 85.7875C70.3604 85.8988 70.4083 86.0037 70.4886 86.0809C70.5688 86.158 70.6754 86.2017 70.7866 86.2031H73.4901C73.5443 86.2039 73.598 86.1936 73.6481 86.1729C73.6981 86.1522 73.7434 86.1214 73.7812 86.0825C73.8189 86.0435 73.8483 85.9973 73.8676 85.9466C73.8868 85.8958 73.8955 85.8417 73.8931 85.7875L73.8172 83.5165Z" style="fill:var(--sapContent_Illustrative_Color6)"/>
<path d="M80.8243 83.5865C80.8197 83.4747 80.7722 83.369 80.6917 83.2915C80.6111 83.214 80.5038 83.1708 80.3922 83.1709H77.6886C77.6347 83.1709 77.5813 83.1817 77.5317 83.2027C77.482 83.2238 77.4371 83.2546 77.3995 83.2933C77.362 83.3321 77.3325 83.378 77.313 83.4283C77.2934 83.4787 77.2841 83.5325 77.2857 83.5865L77.3674 85.8634C77.372 85.9752 77.4195 86.0809 77.5001 86.1583C77.5806 86.2358 77.6879 86.279 77.7995 86.279H80.5031C80.557 86.279 80.6104 86.2681 80.66 86.2471C80.7097 86.2261 80.7546 86.1953 80.7922 86.1565C80.8298 86.1178 80.8593 86.0719 80.8788 86.0215C80.8983 85.9712 80.9076 85.9174 80.906 85.8634L80.8243 83.5865Z" style="fill:var(--sapContent_Illustrative_Color6)"/>
<path d="M87.4285 86.2907C87.4829 86.2915 87.5369 86.2813 87.5872 86.2606C87.6376 86.2399 87.6832 86.2093 87.7214 86.1704C87.7596 86.1316 87.7896 86.0854 87.8095 86.0347C87.8294 85.9839 87.8388 85.9296 87.8373 85.8751L87.7555 83.5982C87.7496 83.4869 87.7016 83.382 87.6214 83.3048C87.5411 83.2277 87.4346 83.184 87.3234 83.1827H84.6198C84.5657 83.1818 84.5119 83.1921 84.4619 83.2128C84.4118 83.2335 84.3666 83.2643 84.3289 83.3032C84.2911 83.3422 84.2617 83.3884 84.2425 83.4391C84.2232 83.4899 84.2145 83.544 84.2169 83.5982L84.2928 85.8751C84.2987 85.9865 84.3467 86.0913 84.4269 86.1685C84.5072 86.2457 84.6138 86.2894 84.725 86.2907H87.4285Z" style="fill:var(--sapContent_Illustrative_Color6)"/>
<path d="M91.0021 83.1709C90.9477 83.1708 90.8938 83.1819 90.8438 83.2032C90.7937 83.2246 90.7485 83.2559 90.7108 83.2953C90.6732 83.3347 90.6439 83.3813 90.6247 83.4324C90.6055 83.4834 90.5968 83.5378 90.5992 83.5923L90.6751 85.8634C90.6825 85.9752 90.7316 86.0801 90.8128 86.1572C90.894 86.2342 91.0013 86.2777 91.1131 86.279H93.8167C93.8706 86.279 93.924 86.2681 93.9736 86.2471C94.0233 86.2261 94.0682 86.1953 94.1058 86.1565C94.1433 86.1178 94.1728 86.0719 94.1923 86.0215C94.2118 85.9712 94.2211 85.9174 94.2195 85.8634L94.1378 83.5923C94.1334 83.48 94.086 83.3736 94.0056 83.2952C93.9252 83.2168 93.8179 83.1723 93.7057 83.1709H91.0021Z" style="fill:var(--sapContent_Illustrative_Color6)"/>
<path d="M53.2571 89.4107C53.2527 89.2983 53.2053 89.192 53.1249 89.1136C53.0445 89.0352 52.9372 88.9907 52.825 88.9893H50.1215C50.067 88.9892 50.0131 89.0002 49.9631 89.0216C49.913 89.043 49.8678 89.0743 49.8301 89.1137C49.7925 89.1531 49.7632 89.1997 49.744 89.2507C49.7249 89.3018 49.7162 89.3562 49.7185 89.4107L49.7944 91.6817C49.8018 91.7936 49.851 91.8985 49.9321 91.9755C50.0133 92.0526 50.1206 92.0961 50.2324 92.0973H52.9359C52.9899 92.0973 53.0432 92.0865 53.0929 92.0655C53.1426 92.0445 53.1875 92.0137 53.2251 91.9749C53.2626 91.9362 53.292 91.8902 53.3116 91.8399C53.3311 91.7895 53.3405 91.7357 53.3389 91.6817L53.2571 89.4107Z" style="fill:var(--sapContent_Illustrative_Color6)"/>
<path d="M60.1649 89.4222C60.1604 89.3099 60.1131 89.2035 60.0327 89.1251C59.9523 89.0467 59.845 89.0022 59.7328 89.0008H57.0292C56.9746 88.9999 56.9203 89.0103 56.8699 89.0314C56.8194 89.0525 56.7739 89.0838 56.7361 89.1234C56.6982 89.1629 56.6689 89.2099 56.65 89.2613C56.6312 89.3127 56.6231 89.3675 56.6264 89.4222L56.7022 91.6932C56.7081 91.8046 56.7561 91.9094 56.8364 91.9866C56.9166 92.0638 57.0232 92.1075 57.1344 92.1088H59.838C59.8921 92.1097 59.9458 92.0994 59.9958 92.0787C60.0459 92.0579 60.0912 92.0272 60.1289 91.9882C60.1667 91.9493 60.1961 91.9031 60.2153 91.8523C60.2346 91.8016 60.2432 91.7475 60.2408 91.6932L60.1649 89.4222Z" style="fill:var(--sapContent_Illustrative_Color6)"/>
<path d="M67.1545 89.4515C67.15 89.3391 67.1027 89.2328 67.0223 89.1544C66.9419 89.0759 66.8345 89.0314 66.7224 89.03H64.0188C63.9644 89.03 63.9105 89.041 63.8605 89.0624C63.8104 89.0837 63.7652 89.1151 63.7275 89.1545C63.6899 89.1938 63.6606 89.2405 63.6414 89.2915C63.6222 89.3425 63.6136 89.397 63.6159 89.4515L63.6918 91.7225C63.6992 91.8343 63.7484 91.9393 63.8295 92.0163C63.9107 92.0933 64.018 92.1368 64.1298 92.1381H66.81C66.8639 92.1381 66.9173 92.1273 66.9669 92.1063C67.0166 92.0852 67.0615 92.0544 67.0991 92.0157C67.1367 91.9769 67.1661 91.931 67.1856 91.8807C67.2052 91.8303 67.2144 91.7765 67.2129 91.7225L67.1545 89.4515Z" style="fill:var(--sapContent_Illustrative_Color6)"/>
<path d="M74.0625 89.4632C74.058 89.3509 74.0106 89.2445 73.9302 89.1661C73.8498 89.0877 73.7425 89.0432 73.6304 89.0418H70.9268C70.8721 89.0409 70.8178 89.0513 70.7674 89.0724C70.7169 89.0935 70.6713 89.1248 70.6335 89.1644C70.5957 89.2039 70.5664 89.2509 70.5476 89.3023C70.5287 89.3538 70.5206 89.4085 70.5238 89.4632L70.5997 91.7342C70.6057 91.8456 70.6536 91.9505 70.7339 92.0276C70.8141 92.1048 70.9206 92.1485 71.0318 92.1498H73.7354C73.7896 92.1507 73.8433 92.1404 73.8934 92.1197C73.9434 92.0989 73.9887 92.0682 74.0264 92.0292C74.0641 91.9903 74.0935 91.9441 74.1128 91.8933C74.132 91.8426 74.1408 91.7885 74.1384 91.7342L74.0625 89.4632Z" style="fill:var(--sapContent_Illustrative_Color6)"/>
<path d="M81.1163 89.5452C81.1118 89.4334 81.0643 89.3277 80.9837 89.2502C80.9032 89.1728 80.7958 89.1295 80.6842 89.1296H77.9806C77.9267 89.1296 77.8733 89.1404 77.8236 89.1615C77.774 89.1825 77.729 89.2133 77.6915 89.252C77.6539 89.2908 77.6245 89.3367 77.6049 89.3871C77.5854 89.4374 77.5761 89.4912 77.5776 89.5452L77.6594 91.8163C77.6624 91.9291 77.7093 92.0363 77.79 92.115C77.8707 92.1937 77.9789 92.2377 78.0915 92.2377H80.8243C80.8788 92.2378 80.9326 92.2268 80.9826 92.2054C81.0327 92.184 81.0779 92.1527 81.1156 92.1133C81.1532 92.0739 81.1826 92.0273 81.2018 91.9762C81.221 91.9252 81.2296 91.8708 81.2272 91.8163L81.1163 89.5452Z" style="fill:var(--sapContent_Illustrative_Color6)"/>
<path d="M35.6201 49.1599C35.5773 48.0448 36.4698 47.1174 37.5858 47.1174H103.717C104.789 47.1174 105.663 47.9753 105.684 49.0468L105.834 56.8612H35.9156L35.6201 49.1599Z" style="fill:var(--sapContent_Illustrative_Color3)"/>
<path d="M50.8395 52.6175H50.7753C50.489 52.6162 50.2143 52.504 50.0086 52.3044C49.8029 52.1048 49.6822 51.8332 49.6717 51.5464L49.6308 50.4109C49.422 50.5846 49.2564 50.8046 49.147 51.0535C49.0375 51.3023 48.9873 51.5733 49.0001 51.8449C49.0149 52.3297 49.2144 52.7903 49.5576 53.1322C49.9008 53.474 50.3617 53.6711 50.8454 53.6828C51.08 53.6792 51.3115 53.6283 51.5261 53.5332C51.7407 53.4381 51.9341 53.3008 52.0948 53.1294C52.2554 52.958 52.3801 52.7559 52.4614 52.5353C52.5427 52.3146 52.5789 52.0799 52.5679 51.8449C52.5568 51.5666 52.4851 51.2941 52.3581 51.0464C52.231 50.7988 52.0515 50.5819 51.8322 50.4109L51.8731 51.5464C51.8786 51.6856 51.8559 51.8244 51.8064 51.9546C51.7568 52.0847 51.6815 52.2035 51.5849 52.3036C51.4883 52.4037 51.3724 52.4832 51.2442 52.5371C51.1161 52.5911 50.9785 52.6184 50.8395 52.6175Z" style="fill:var(--sapContent_Illustrative_Color4)"/>
<path d="M89.5831 52.5646H89.5189C89.2344 52.5605 88.9621 52.4482 88.7572 52.2504C88.5523 52.0526 88.4301 51.7841 88.4153 51.4993L88.3802 50.434C88.176 50.6071 88.0141 50.8248 87.9068 51.0703C87.7995 51.3158 87.7497 51.5827 87.7613 51.8505C87.7747 52.3357 87.9737 52.7972 88.3172 53.1394C88.6607 53.4815 89.1224 53.6781 89.6065 53.6884C89.8436 53.6887 90.0782 53.6407 90.2963 53.5474C90.5143 53.454 90.7112 53.3173 90.875 53.1455C91.0388 52.9736 91.1661 52.7703 91.2492 52.5477C91.3322 52.3251 91.3694 52.0879 91.3583 51.8505C91.3462 51.5695 91.2731 51.2946 91.144 51.0449C91.0149 50.7951 90.8329 50.5767 90.6109 50.4048L90.6459 51.4993C90.6516 51.6408 90.6281 51.7819 90.5767 51.9137C90.5253 52.0456 90.4473 52.1654 90.3474 52.2654C90.2475 52.3655 90.1281 52.4438 89.9966 52.4953C89.865 52.5468 89.7242 52.5704 89.5831 52.5646Z" style="fill:var(--sapContent_Illustrative_Color4)"/>
<path d="M49.6717 51.5463C49.6823 51.8331 49.803 52.1047 50.0087 52.3043C50.2144 52.5039 50.4891 52.6161 50.7754 52.6174H50.8396C50.9786 52.6183 51.1162 52.591 51.2443 52.537C51.3725 52.4831 51.4884 52.4036 51.585 52.3035C51.6816 52.2034 51.7569 52.0846 51.8065 51.9545C51.856 51.8243 51.8787 51.6855 51.8732 51.5463L51.8323 50.4108L51.7155 47.0979L51.5987 43.7381C51.5881 43.4514 51.4674 43.1798 51.2617 42.9802C51.0561 42.7805 50.7814 42.6683 50.4951 42.667H50.46C50.3211 42.6661 50.1834 42.6935 50.0552 42.7474C49.9271 42.8014 49.8113 42.8808 49.7147 42.981C49.618 43.0811 49.5427 43.1998 49.4932 43.33C49.4437 43.4601 49.4209 43.599 49.4265 43.7381L49.5433 47.0979L49.6601 50.4108L49.6717 51.5463Z" style="fill:var(--sapContent_Illustrative_Color6)"/>
<path d="M88.4153 51.4997C88.4272 51.7875 88.549 52.0598 88.7555 52.2602C88.962 52.4606 89.2374 52.5739 89.5248 52.5767H89.589C89.7282 52.5776 89.8661 52.5501 89.9944 52.4957C90.1226 52.4413 90.2384 52.3612 90.3346 52.2604C90.4309 52.1595 90.5055 52.0401 90.554 51.9092C90.6025 51.7784 90.6239 51.639 90.6167 51.4997L90.5816 50.4051L90.4649 47.1098L90.3481 43.6915C90.3361 43.4042 90.2141 43.1326 90.0075 42.9331C89.8008 42.7336 89.5255 42.6216 89.2386 42.6204H89.1744C89.0357 42.6194 88.8982 42.6468 88.7704 42.7008C88.6426 42.7549 88.5271 42.8344 88.431 42.9346C88.3348 43.0348 88.26 43.1536 88.2111 43.2838C88.1623 43.4139 88.1404 43.5526 88.1467 43.6915L88.2635 47.1098L88.3802 50.4344L88.4153 51.4997Z" style="fill:var(--sapContent_Illustrative_Color6)"/>
</svg>
