<svg width="84" height="160" viewBox="0 0 84 160" fill="none" xmlns="http://www.w3.org/2000/svg" id="sapIllus-Dialog-SimpleNotFoundMagnifier">
<g clip-path="url(#clip0_101_5290)">
<circle cx="36.502" cy="51.5" r="34.5" fill="var(--sapContent_Illustrative_Color8)"/>
<path d="M35.9638 36.2615C32.7904 36.2615 29.6884 37.2025 27.0498 38.9655C24.4112 40.7286 22.3547 43.2344 21.1403 46.1662C19.9259 49.0981 19.6082 52.3242 20.2272 55.4366C20.8463 58.549 22.3745 61.4079 24.6184 63.6518C26.8624 65.8958 29.7212 67.4239 32.8336 68.043C35.946 68.6621 39.1722 68.3443 42.104 67.1299C45.0358 65.9155 47.5417 63.859 49.3047 61.2204C51.0677 58.5819 52.0087 55.4798 52.0087 52.3064C51.9974 48.0545 50.3034 43.98 47.2968 40.9734C44.2903 37.9668 40.2157 36.2728 35.9638 36.2615V36.2615ZM35.9638 61.9333C35.4868 61.9347 35.0201 61.7946 34.6228 61.5306C34.2255 61.2666 33.9155 60.8906 33.732 60.4503C33.5484 60.01 33.4997 59.5252 33.5919 59.0572C33.6841 58.5891 33.913 58.159 34.2498 57.8212C34.5866 57.4834 35.0161 57.2531 35.4838 57.1595C35.9516 57.066 36.4366 57.1133 36.8775 57.2955C37.3183 57.4777 37.6951 57.7867 37.9603 58.1832C38.2254 58.5797 38.367 59.046 38.367 59.523C38.3508 60.1559 38.0927 60.7586 37.6457 61.207C37.1987 61.6553 36.5967 61.9153 35.9638 61.9333V61.9333ZM39.1728 53.269C38.9161 53.4045 38.5667 53.6256 38.2458 53.7896C38.0622 53.862 37.8875 53.9553 37.7252 54.0677L37.5683 54.2318C37.5 54.6029 37.3001 54.937 37.0054 55.1728C36.7107 55.4085 36.3409 55.5302 35.9638 55.5154C35.7499 55.5278 35.5357 55.4948 35.3354 55.4186C35.1351 55.3423 34.9532 55.2246 34.8017 55.073C34.6502 54.9215 34.5324 54.7396 34.4561 54.5393C34.3799 54.339 34.3469 54.1248 34.3593 53.9109C34.3593 52.7842 34.9085 52.3064 36.1849 51.2224C36.1849 51.2224 36.5414 50.9586 36.7839 50.8089L37.5683 50.381C38.6879 49.7392 39.1728 49.2543 39.1728 48.1347C39.1728 46.8511 37.7466 45.7244 35.9638 45.7244C34.181 45.7244 32.7548 46.8511 32.7548 48.1347C32.7548 48.5603 32.5858 48.9683 32.2849 49.2692C31.984 49.5701 31.5759 49.7392 31.1503 49.7392C30.7248 49.7392 30.3167 49.5701 30.0158 49.2692C29.7149 48.9683 29.5459 48.5603 29.5459 48.1347C29.5459 44.9257 32.3983 42.5154 35.9638 42.5154C39.5293 42.5154 42.3818 44.9257 42.3818 48.1347C42.3818 50.5379 41.2622 51.9855 39.1728 53.269Z" fill="var(--sapContent_Illustrative_Color14)"/>
<path opacity="0.2" d="M49.6268 20.3022L36.7267 16.209L15.084 80.3885L27.9912 84.4746L49.6268 20.3022Z" fill="var(--sapContent_Illustrative_Color6)"/>
<path opacity="0.2" d="M33.0332 86.4142L55.0824 22.149L51.0748 20.8726L29.0112 85.1377L33.0332 86.4142Z" fill="var(--sapContent_Illustrative_Color6)"/>
<path d="M53.1781 82.5991L43.7295 86.4143L49.7624 101.332L59.2039 97.5173L53.1781 82.5991Z" fill="var(--sapContent_Illustrative_Color6)"/>
<path d="M48.3008 100.89L63.1548 137.337C63.7426 138.743 64.864 139.858 66.273 140.438C67.682 141.019 69.2636 141.016 70.6709 140.432L71.7906 139.976C73.1929 139.388 74.3055 138.269 74.8854 136.863C75.4653 135.457 75.4653 133.879 74.8854 132.474L60.0313 96.0269L48.3008 100.89Z" fill="var(--sapContent_Illustrative_Color3)"/>
<path d="M43.4019 85.6227L44.3931 87.976C44.3931 87.976 49.3848 90.1652 54.5049 85.5799L52.9289 81.829L48.5933 83.9683L43.4019 85.6227Z" fill="var(--sapContent_Illustrative_Color6)"/>
<path d="M36.2208 87.6335C27.8353 87.6385 19.7076 84.7355 13.2228 79.4191C6.73808 74.1027 2.29766 66.702 0.65833 58.4783C-0.981 50.2547 0.282159 41.717 4.23265 34.3204C8.18315 26.9238 14.5764 21.126 22.3229 17.9153C30.0693 14.7045 38.6895 14.2794 46.7142 16.7125C54.7389 19.1455 61.6716 24.2861 66.3306 31.2582C70.9897 38.2302 73.0868 46.6022 72.2645 54.9472C71.4422 63.2923 67.7514 71.0939 61.8212 77.0225C55.0265 83.8055 45.8216 87.6208 36.2208 87.6335ZM36.2208 18.2555C28.5266 18.2606 21.072 20.9332 15.1274 25.8181C9.18271 30.703 5.11565 37.4978 3.61896 45.0451C2.12226 52.5923 3.28858 60.425 6.91925 67.2087C10.5499 73.9925 16.4202 79.3076 23.5302 82.2486C30.6402 85.1895 38.55 85.5743 45.9119 83.3375C53.2738 81.1007 59.6324 76.3806 63.9045 69.9813C68.1766 63.5821 70.0978 55.8996 69.3409 48.2427C68.5839 40.5858 65.1956 33.4283 59.7533 27.9894C53.508 21.7559 45.0446 18.2551 36.2208 18.2555Z" fill="var(--sapContent_Illustrative_Color4)"/>
<path d="M78.9572 15.2533C78.8221 15.1269 78.6556 15.039 78.475 14.9989C78.2944 14.9587 78.1063 14.9678 77.9304 15.0251L73.7088 16.2873C73.4261 16.3833 73.1926 16.5869 73.0591 16.8539C72.9256 17.1209 72.9028 17.4298 72.9957 17.7135C73.0554 17.9389 73.1861 18.139 73.3685 18.2841C73.5509 18.4293 73.7753 18.5118 74.0083 18.5193C74.1219 18.5197 74.2349 18.5028 74.3435 18.4694L78.5579 17.2072C78.745 17.1547 78.9146 17.0529 79.0488 16.9124C79.183 16.7718 79.277 16.5978 79.3209 16.4085C79.3614 16.2009 79.3493 15.9865 79.2858 15.7847C79.2222 15.583 79.1093 15.4003 78.9572 15.2533Z" fill="var(--sapContent_Illustrative_Color5)"/>
<path d="M60.5163 0.0142803C60.3864 -0.0123003 60.2524 -0.011565 60.1229 0.016413C59.9933 0.0443911 59.871 0.0990054 59.7637 0.176801C59.6564 0.254597 59.5665 0.353876 59.4996 0.468307C59.4327 0.582737 59.3904 0.709812 59.3753 0.841486L58.6622 5.07022C58.6369 5.22215 58.6422 5.37759 58.6779 5.52743C58.7135 5.67726 58.7788 5.81847 58.8698 5.94272C58.9608 6.06696 59.0758 6.17174 59.2079 6.25091C59.34 6.33008 59.4867 6.38205 59.6391 6.40373C59.7031 6.41079 59.7677 6.41079 59.8317 6.40373C60.0663 6.4088 60.2943 6.32604 60.4711 6.1717C60.6478 6.01735 60.7606 5.80254 60.7872 5.56938L61.5003 1.34067C61.5453 1.03435 61.4669 0.72271 61.2825 0.474074C61.098 0.225437 60.8224 0.0600839 60.5163 0.0142803Z" fill="var(--sapContent_Illustrative_Color5)"/>
<path d="M71.7619 4.25722C71.6171 4.26678 71.4757 4.30514 71.3459 4.37003C71.2161 4.43493 71.1005 4.52506 71.006 4.63516L66.7274 9.54848C66.5397 9.7697 66.4447 10.0548 66.462 10.3443C66.4792 10.6339 66.6075 10.9057 66.8201 11.103C67.0139 11.2837 67.2682 11.3854 67.5332 11.3883C67.6891 11.3884 67.8432 11.3547 67.9848 11.2894C68.1264 11.2242 68.2521 11.1289 68.3533 11.0103L72.6319 6.10416C72.82 5.88177 72.9153 5.59553 72.898 5.30477C72.8808 5.01401 72.7523 4.74103 72.5392 4.54246C72.4349 4.44597 72.3125 4.37109 72.1791 4.32213C72.0457 4.27318 71.9039 4.25112 71.7619 4.25722Z" fill="var(--sapContent_Illustrative_Color5)"/>
</g>
<path d="M59.7726 160C72.846 160 83.4441 158.281 83.4441 156.16C83.4441 154.039 72.846 152.32 59.7726 152.32C46.6992 152.32 36.1011 154.039 36.1011 156.16C36.1011 158.281 46.6992 160 59.7726 160Z" fill="var(--sapContent_Illustrative_Color6)"/>
<defs>
<clipPath id="clip0_101_5290">
<rect width="79.3259" height="140.874" fill="var(--sapContent_Illustrative_Color8)" transform="translate(0.00195312)"/>
</clipPath>
</defs>
</svg>
