<svg width="128" height="128" viewBox="0 0 128 128" fill="none" xmlns="http://www.w3.org/2000/svg" id="sapIllus-Spot-EmptyList">
<circle cx="64" cy="64" r="64" fill="var(--sapContent_Illustrative_Color7)"/>
<mask id="mask0_396_6655" class="sapIllus_MaskTypeAlpha" maskUnits="userSpaceOnUse" x="0" y="0" width="128" height="128">
<circle cx="64" cy="64" r="64" fill="var(--sapContent_Illustrative_Color7)"/>
</mask>
<g mask="url(#mask0_396_6655)">
<path d="M100.398 30.0002H17.2893C12.7112 30.0002 9 33.7115 9 38.2895V197.711C9 202.289 12.7112 206 17.2893 206H100.398C104.976 206 108.688 202.289 108.688 197.711V38.2895C108.688 33.7115 104.976 30.0002 100.398 30.0002Z" fill="var(--sapContent_Illustrative_Color19)"/>
<path d="M110.728 30H27.6192C23.0412 30 19.33 33.7112 19.33 38.2893V197.71C19.33 202.289 23.0412 206 27.6192 206H110.728C115.306 206 119.018 202.289 119.018 197.71V38.2893C119.018 33.7112 115.306 30 110.728 30Z" fill="var(--sapContent_Illustrative_Color18)"/>
<path d="M32.5812 67.1389H31.3631C29.5808 67.1389 28.136 68.5838 28.136 70.366V189.67C28.136 191.452 29.5808 192.897 31.3631 192.897H32.5812C34.3635 192.897 35.8083 191.452 35.8083 189.67V70.366C35.8083 68.5838 34.3635 67.1389 32.5812 67.1389Z" fill="var(--sapContent_Illustrative_Color7)"/>
<path d="M119.018 85.7842H19.33V88.4207H119.018V85.7842Z" fill="var(--sapContent_Illustrative_Color19)"/>
<path d="M111.256 67.1389H93.4644C92.1597 67.1389 91.1021 68.1966 91.1021 69.5013V69.5065C91.1021 70.8112 92.1597 71.8689 93.4644 71.8689H111.256C112.56 71.8689 113.618 70.8112 113.618 69.5065V69.5013C113.618 68.1966 112.56 67.1389 111.256 67.1389Z" fill="var(--sapContent_Illustrative_Color19)"/>
<path d="M35.8083 45.6564C35.8083 43.5363 34.0908 41.8176 31.9722 41.8176C29.8535 41.8176 28.136 43.5363 28.136 45.6564V54.2937C28.136 56.4139 29.8535 58.1326 31.9722 58.1326C34.0908 58.1326 35.8083 56.4139 35.8083 54.2937V45.6564Z" fill="var(--sapContent_Illustrative_Color7)"/>
<path d="M80.1656 89.1163V56.5286C80.1742 55.9246 79.9452 55.3413 79.528 54.9044C79.1109 54.4675 78.5388 54.2119 77.935 54.1926H57.2751C56.6235 54.1926 55.9782 54.321 55.3762 54.5703C54.7742 54.8197 54.2272 55.1852 53.7664 55.646C53.3057 56.1067 52.9402 56.6537 52.6908 57.2557C52.4415 57.8577 52.3131 58.503 52.3131 59.1546V89.6752C52.3145 90.9908 52.8377 92.2521 53.768 93.1823C54.6982 94.1126 55.9595 94.6358 57.2751 94.6372H85.0379V94.6003C83.6951 94.4414 82.4573 93.7953 81.5592 92.7845C80.6611 91.7737 80.1652 90.4684 80.1656 89.1163Z" fill="var(--sapContent_Illustrative_Color6)"/>
<path d="M80.1656 87.5347V54.9471C80.1742 54.343 79.9452 53.7598 79.528 53.3229C79.1109 52.886 78.5388 52.6304 77.935 52.6111H57.2751C56.6235 52.6111 55.9782 52.7394 55.3762 52.9888C54.7742 53.2382 54.2272 53.6037 53.7664 54.0644C53.3057 54.5252 52.9402 55.0722 52.6908 55.6742C52.4415 56.2762 52.3131 56.9214 52.3131 57.5731V88.0937C52.3145 89.4092 52.8377 90.6705 53.768 91.6008C54.6982 92.531 55.9595 93.0542 57.2751 93.0556H85.0379V93.0187C83.6951 92.8599 82.4573 92.2138 81.5592 91.203C80.6611 90.1921 80.1652 88.8869 80.1656 87.5347Z" fill="var(--sapContent_Illustrative_Color8)"/>
<path d="M66.2394 61.4016H57.4913C56.8885 61.4016 56.3998 61.8903 56.3998 62.4931V62.4984C56.3998 63.1012 56.8885 63.5899 57.4913 63.5899H66.2394C66.8422 63.5899 67.3309 63.1012 67.3309 62.4984V62.4931C67.3309 61.8903 66.8422 61.4016 66.2394 61.4016Z" fill="var(--sapContent_Illustrative_Color3)"/>
<path d="M67.4153 49.9741H66.2499C65.9063 49.9741 65.6277 50.2527 65.6277 50.5963V53.3489C65.6277 53.6925 65.9063 53.9711 66.2499 53.9711H67.4153C67.7589 53.9711 68.0375 53.6925 68.0375 53.3489V50.5963C68.0375 50.2527 67.7589 49.9741 67.4153 49.9741Z" fill="var(--sapContent_Illustrative_Color6)"/>
<path d="M50.6738 42.0659C50.5856 42.1462 50.5207 42.2487 50.4859 42.3627C50.4511 42.4767 50.4477 42.598 50.4761 42.7137L51.0788 45.4848C51.1782 45.9431 51.6108 46.1074 51.9704 46.0294C52.1187 46.0029 52.2543 45.9289 52.357 45.8187C52.4596 45.7085 52.5237 45.5679 52.5396 45.4182C52.5451 45.3457 52.5396 45.2727 52.5232 45.2018L51.9205 42.4307C51.8966 42.3086 51.84 42.1952 51.7569 42.1026C51.6738 42.01 51.5671 41.9415 51.4482 41.9045C51.3161 41.8633 51.1756 41.8565 51.04 41.8847C50.9045 41.913 50.7784 41.9753 50.6738 42.0659Z" fill="var(--sapContent_Illustrative_Color5)"/>
<path d="M39.9677 53.1546C39.9437 53.2364 39.937 53.3223 39.948 53.4069C39.9591 53.4915 39.9877 53.5728 40.032 53.6457C40.0763 53.7186 40.1354 53.7815 40.2054 53.8303C40.2753 53.8792 40.3548 53.9129 40.4385 53.9293L43.124 54.5851C43.2206 54.6083 43.3209 54.6121 43.419 54.5962C43.5171 54.5803 43.6111 54.545 43.6954 54.4924C43.7797 54.4398 43.8527 54.371 43.9101 54.2899C43.9675 54.2088 44.0082 54.1171 44.0297 54.0201C44.0397 53.9804 44.0464 53.9399 44.0498 53.8991C44.0645 53.7484 44.0221 53.5977 43.931 53.4767C43.8399 53.3557 43.7068 53.2732 43.5579 53.2454L40.8735 52.5906C40.7769 52.5672 40.6766 52.5632 40.5785 52.579C40.4804 52.5948 40.3864 52.63 40.3021 52.6825C40.2177 52.735 40.1447 52.8038 40.0873 52.8849C40.0299 52.9659 39.9892 53.0576 39.9677 53.1546Z" fill="var(--sapContent_Illustrative_Color5)"/>
<path d="M43.2662 46.1412C43.2641 46.2343 43.2811 46.3269 43.316 46.4133C43.351 46.4997 43.4033 46.578 43.4696 46.6435L46.4147 49.6123C46.5475 49.7447 46.7264 49.8207 46.914 49.8243C47.1016 49.828 47.2834 49.759 47.4213 49.6319C47.5487 49.5134 47.6269 49.3515 47.6404 49.1781C47.648 49.0782 47.634 48.9777 47.5993 48.8837C47.5646 48.7897 47.5099 48.7042 47.4392 48.6332L44.4941 45.6644C44.3606 45.5312 44.1807 45.4548 43.992 45.4514C43.8034 45.448 43.6207 45.5178 43.4825 45.6461C43.4149 45.7098 43.3609 45.7865 43.3238 45.8716C43.2866 45.9566 43.267 46.0483 43.2662 46.1412Z" fill="var(--sapContent_Illustrative_Color5)"/>
</g>
</svg>
