<svg width="160" height="160" viewBox="0 0 160 160" fill="none" xmlns="http://www.w3.org/2000/svg" id="sapIllus-Dialog-NoTasks_v1">
<mask id="mask0_396_4982" style="mask-type:alpha" maskUnits="userSpaceOnUse" x="0" y="6" width="148" height="148">
<circle cx="73.9925" cy="79.9925" r="73.9925" style="fill:var(--sapContent_Illustrative_Color7)"/>
</mask>
<g mask="url(#mask0_396_4982)">
<path d="M238.206 -30.9962H-31.0275C-32.7824 -30.9978 -34.5205 -30.6536 -36.1423 -29.9831C-37.7641 -29.3126 -39.2379 -28.3291 -40.4793 -27.0888C-41.7208 -25.8484 -42.7057 -24.3756 -43.3777 -22.7544C-44.0496 -21.1332 -44.3955 -19.3955 -44.3955 -17.6406V140.617C-44.3955 144.162 -42.9871 147.563 -40.4801 150.07C-37.9731 152.577 -34.5729 153.985 -31.0275 153.985H238.206C241.752 153.985 245.152 152.577 247.659 150.07C250.166 147.563 251.574 144.162 251.574 140.617V-17.6406C251.574 -19.3955 251.229 -21.1332 250.557 -22.7544C249.885 -24.3756 248.9 -25.8484 247.658 -27.0888C246.417 -28.3291 244.943 -29.3126 243.321 -29.9831C241.699 -30.6536 239.961 -30.9978 238.206 -30.9962Z" style="fill:var(--sapContent_Illustrative_Color7)"/>
<rect x="-14.7985" y="141.961" width="80.1396" height="12.0238" rx="4" style="fill:var(--sapContent_Illustrative_Color19)"/>
<rect x="58.5208" y="141.961" width="177.33" height="12.0238" rx="4" style="fill:var(--sapContent_Illustrative_Color18)"/>
<rect x="22.9725" y="43.1465" width="45" height="57" rx="5" style="fill:var(--sapContent_Illustrative_Color19)"/>
<rect x="22.9725" y="39.582" width="45" height="57" rx="5" style="fill:var(--sapContent_Illustrative_Color18)"/>
<rect x="25.9725" y="42.582" width="39" height="51" rx="3" style="fill:var(--sapContent_Illustrative_Color7)"/>
<path fill-rule="evenodd" clip-rule="evenodd" d="M62.9725 93.4113V42.7527C64.1377 43.1645 64.9725 44.2758 64.9725 45.582V90.582C64.9725 91.8882 64.1377 92.9994 62.9725 93.4113Z" style="fill:var(--sapContent_Illustrative_Color19)"/>
<mask id="mask1_396_4982" style="mask-type:alpha" maskUnits="userSpaceOnUse" x="25" y="42" width="40" height="52">
<rect x="25.9725" y="42.582" width="39" height="51" rx="3" style="fill:var(--sapContent_Illustrative_Color7)"/>
</mask>
<g mask="url(#mask1_396_4982)">
<path d="M50.0459 80.4045L35.9112 83.1709L34.1175 80.2501C33.0111 78.4451 32.312 76.4213 32.0688 74.3194C31.8256 72.2176 32.0442 70.0881 32.7092 68.079C33.3743 66.07 34.47 64.2295 35.92 62.6857C37.37 61.1419 39.1397 59.9317 41.1059 59.1393L45.4196 57.4032C50.8954 55.1976 56.4722 60.3587 54.6722 65.9704L50.0459 80.4045Z" style="fill:var(--sapContent_Illustrative_Color19)"/>
<path d="M47.5259 101.887L42.7322 100.075C42.2287 99.8846 41.7768 99.579 41.4128 99.1829C41.0487 98.7868 40.7825 98.3113 40.6354 97.7942L36.5996 83.6752C36.5124 83.3716 36.5135 83.0494 36.6028 82.7464C36.692 82.4433 36.8657 82.1718 37.1037 81.9635C37.3416 81.7551 37.634 81.6185 37.9467 81.5696C38.2595 81.5206 38.5797 81.5614 38.8701 81.687L50.068 86.5236L51.1354 99.1712C51.1733 99.6201 51.0965 100.071 50.9123 100.483C50.728 100.894 50.4423 101.252 50.0819 101.523C49.7214 101.794 49.2979 101.97 48.8509 102.034C48.4039 102.097 47.9481 102.047 47.5259 101.887Z" style="fill:var(--sapContent_Illustrative_Color18)"/>
<path d="M50.548 92.2232L50.308 89.3528C49.3534 88.7026 48.3305 88.1585 47.2575 87.7301C44.267 86.5138 41.5322 86.2964 41.147 87.2417C40.7617 88.187 42.8712 89.9357 45.8585 91.1519C47.6743 91.8892 49.3891 92.2579 50.548 92.2232Z" style="fill:var(--sapContent_Illustrative_Color19)"/>
<path d="M44.6313 67.6393L49.645 67.9111C50.4875 67.9551 51.3131 68.1645 52.0745 68.5273C52.8359 68.89 53.5181 69.3991 54.0821 70.0252C54.6461 70.6514 55.0808 71.3823 55.3613 72.1763C55.6418 72.9703 55.7626 73.8116 55.7168 74.6523L55.2231 83.7197C55.1307 85.4152 54.3671 87.0048 53.1002 88.1386C51.8333 89.2724 50.1669 89.8576 48.4675 89.7654L46.3265 89.6494C43.8653 89.5159 41.558 88.4124 39.9122 86.5816C38.2664 84.7508 37.417 82.3427 37.5507 79.8869L37.8884 73.6857C37.9806 71.9924 38.7424 70.4047 40.0065 69.2711C41.2707 68.1375 42.9339 67.5506 44.6313 67.6393Z" style="fill:var(--sapContent_Illustrative_Color18)"/>
<path d="M52.0165 76.3305L50.5259 80.2281C50.5171 80.2509 50.514 80.2754 50.517 80.2996C50.5199 80.3238 50.5288 80.347 50.5429 80.3669C50.5569 80.3869 50.5757 80.403 50.5976 80.414C50.6194 80.425 50.6436 80.4304 50.668 80.4298H53.1407C53.1635 80.43 53.1862 80.425 53.2068 80.4151C53.2274 80.4052 53.2454 80.3907 53.2595 80.3727C53.2736 80.3547 53.2833 80.3338 53.2878 80.3114C53.2924 80.289 53.2918 80.2659 53.2859 80.2439L52.3038 76.3494C52.2959 76.3186 52.2784 76.291 52.2538 76.2707C52.2292 76.2503 52.1989 76.2383 52.167 76.2362C52.1352 76.2341 52.1035 76.2421 52.0764 76.259C52.0494 76.2759 52.0284 76.301 52.0165 76.3305Z" style="fill:var(--sapContent_Illustrative_Color19)"/>
<path d="M32.966 72.0503L35.3942 71.3547C35.4387 71.3388 35.486 71.3322 35.5332 71.3355C35.5803 71.3388 35.6262 71.3518 35.6681 71.3737C35.7099 71.3956 35.7467 71.426 35.7761 71.4628C35.8056 71.4997 35.8271 71.5423 35.8392 71.5878L38.3159 80.1949C38.527 80.9282 38.4374 81.7151 38.0669 82.3825C37.6964 83.05 37.0754 83.5432 36.3404 83.7538C36.2535 83.7787 36.1602 83.7681 36.0811 83.7244C36.0019 83.6807 35.9435 83.6074 35.9185 83.5206L32.7402 72.4757C32.727 72.4329 32.7224 72.388 32.7266 72.3435C32.7308 72.299 32.7438 72.2558 32.7648 72.2163C32.7858 72.1768 32.8143 72.1418 32.8489 72.1134C32.8834 72.0849 32.9232 72.0635 32.966 72.0503Z" style="fill:var(--sapContent_Illustrative_Color19)"/>
<path d="M37.1521 79.1727L34.9921 78.2967L40.8658 70.7599L40.1521 74.6165C39.8753 76.123 39.2765 77.5523 38.3963 78.8072C38.2612 78.9999 38.0645 79.141 37.8384 79.2075C37.6123 79.2739 37.3703 79.2616 37.1521 79.1727Z" style="fill:var(--sapContent_Illustrative_Color19)"/>
<path d="M38.4539 81.2757C39.241 81.0807 39.588 79.7533 39.2289 78.3111C38.8698 76.8688 37.9407 75.8577 37.1536 76.0528C36.3666 76.2479 36.0196 77.5752 36.3787 79.0175C36.7377 80.4598 37.6669 81.4708 38.4539 81.2757Z" style="fill:var(--sapContent_Illustrative_Color18)"/>
<path d="M49.1535 72.2838C55.6638 71.3905 60.6156 68.3017 60.2136 65.3848C59.8115 62.4679 54.208 60.8274 47.6976 61.7207C41.1873 62.614 36.2355 65.7028 36.6375 68.6197C37.0395 71.5366 42.6431 73.1771 49.1535 72.2838Z" style="fill:var(--sapContent_Illustrative_Color19)"/>
<path d="M40.7622 70.7247L36.7528 69.0946L34.8891 73.6582L38.8985 75.2883L40.7622 70.7247Z" style="fill:var(--sapContent_Illustrative_Color19)"/>
<path d="M40.5329 62.9888C43.3121 60.1511 44.9442 57.2454 44.1783 56.4986C43.4124 55.7518 40.5386 57.4468 37.7594 60.2845C34.9802 63.1221 33.348 66.0279 34.1139 66.7746C34.8798 67.5214 37.7537 65.8264 40.5329 62.9888Z" style="fill:var(--sapContent_Illustrative_Color19)"/>
</g>
<g clip-path="url(#clip0_396_4982)">
<rect width="44.25" height="6.75" rx="3" transform="matrix(-1 0 0 1 52.4108 138.843)" style="fill:var(--sapContent_Illustrative_Color14)"/>
<path d="M41.138 143.707L38.1608 138.843H144.661V143.209C144.661 143.523 144.607 143.834 144.502 144.124C144.397 144.414 144.243 144.678 144.049 144.9C143.855 145.121 143.625 145.297 143.372 145.416C143.119 145.535 142.848 145.595 142.574 145.593H44.3027C43.6821 145.595 43.0703 145.424 42.5194 145.096C41.9684 144.767 41.4945 144.291 41.138 143.707Z" style="fill:var(--sapContent_Illustrative_Color13)"/>
<path d="M99.1002 70.5942H-2.92783C-3.28823 70.5841 -3.64616 70.6565 -3.97372 70.8057C-4.30129 70.9548 -4.58974 71.1768 -4.81663 71.4543C-5.04351 71.7317 -5.20274 72.0573 -5.28195 72.4056C-5.36117 72.7539 -5.35816 73.1156 -5.27329 73.4625L8.30693 136.961C8.42211 137.493 8.71768 137.97 9.14439 138.312C9.57111 138.654 10.1033 138.841 10.6524 138.843H111.508C111.864 138.851 112.218 138.779 112.543 138.632C112.867 138.485 113.153 138.266 113.379 137.993C113.605 137.72 113.766 137.399 113.848 137.055C113.93 136.711 113.932 136.354 113.853 136.009L101.446 72.5219C101.351 71.9766 101.062 71.4827 100.632 71.1293C100.202 70.7759 99.6589 70.5861 99.1002 70.5942Z" style="fill:var(--sapContent_Illustrative_Color2)"/>
<path d="M94.4539 80.6081C94.1 78.7153 92.4477 77.3433 90.5221 77.3433H63.6777C61.2767 77.3433 59.4167 79.4437 59.7071 81.827L63.3013 111.327C63.5458 113.334 65.2499 114.843 67.2719 114.843H96.0375C98.5412 114.843 100.43 112.569 99.9694 110.108L94.4539 80.6081Z" style="fill:var(--sapContent_Illustrative_Color13)"/>
<path d="M9.51492 84.8794L60.407 85.0552L79.4022 85.1255C79.9605 85.1174 80.5035 85.3089 80.9331 85.6655C81.3628 86.0222 81.651 86.5205 81.7458 87.0708L87.0074 114.657L89.8197 129.435C89.8962 129.782 89.8928 130.142 89.8098 130.487C89.7267 130.833 89.5663 131.155 89.3406 131.429C89.1148 131.703 88.8296 131.923 88.5066 132.071C88.1836 132.218 87.8312 132.291 87.4761 132.283H17.3544C16.7964 132.276 16.2579 132.076 15.8306 131.717C15.4033 131.358 15.1136 130.862 15.0107 130.314L7.17127 87.7154C7.10799 87.3706 7.1209 87.016 7.20918 86.6767C7.29747 86.3374 7.45896 86.0215 7.6823 85.7513C7.90564 85.481 8.18543 85.2629 8.50201 85.1123C8.8186 84.9617 9.16434 84.8822 9.51492 84.8794Z" style="fill:var(--sapContent_Illustrative_Color8)"/>
<path d="M31.1518 96.9037C31.2545 97.0035 31.3364 97.1226 31.393 97.2542C31.4495 97.3858 31.4794 97.5272 31.4811 97.6704C31.4801 97.8144 31.4504 97.9568 31.3939 98.0892C31.3373 98.2216 31.255 98.3415 31.1518 98.4419L23.8795 105.719C24.2136 105.864 24.5737 105.939 24.9379 105.94H30.7143C31.0433 105.949 31.3705 105.888 31.6738 105.76C31.9771 105.632 32.2494 105.441 32.4724 105.199C32.6953 104.957 32.8637 104.67 32.9662 104.357C33.0686 104.044 33.1028 103.713 33.0663 103.386L32.5206 97.1483C32.4546 96.4552 32.1346 95.811 31.6223 95.3395C31.11 94.868 30.4415 94.6025 29.7453 94.5941H23.9688C23.6401 94.5854 23.3132 94.6472 23.0103 94.7753C22.7074 94.9035 22.4354 95.0949 22.2126 95.3369C21.9898 95.5788 21.8214 95.8656 21.7187 96.1781C21.6159 96.4905 21.5812 96.8213 21.6169 97.1483L22.1625 103.386C22.1883 103.653 22.2533 103.914 22.3554 104.162L29.6324 96.9037C29.7314 96.8026 29.8496 96.7222 29.98 96.6674C30.1105 96.6125 30.2506 96.5843 30.3921 96.5843C30.5336 96.5843 30.6737 96.6125 30.8042 96.6674C30.9346 96.7222 31.0528 96.8026 31.1518 96.9037Z" style="fill:var(--sapContent_Illustrative_Color6)"/>
<path d="M31.0437 109.694H25.272C24.9432 109.685 24.6163 109.747 24.3134 109.875C24.0105 110.003 23.7385 110.195 23.5157 110.436C23.2929 110.678 23.1245 110.965 23.0217 111.278C22.919 111.59 22.8843 111.921 22.92 112.248L23.4657 118.485C23.4852 118.679 23.5246 118.869 23.5833 119.055L30.6392 111.999C30.7392 111.895 30.859 111.813 30.9916 111.756C31.1241 111.7 31.2666 111.671 31.4106 111.671C31.5546 111.671 31.6971 111.7 31.8296 111.756C31.9622 111.813 32.0821 111.895 32.1821 111.999C32.2847 112.099 32.3663 112.219 32.422 112.352C32.4777 112.484 32.5065 112.626 32.5066 112.77C32.5065 112.914 32.4777 113.056 32.422 113.188C32.3663 113.321 32.2847 113.441 32.1821 113.541L25.0179 120.706C25.4042 120.908 25.8333 121.014 26.2692 121.016H32.0456C32.3747 121.026 32.7019 120.964 33.0052 120.836C33.3084 120.708 33.5808 120.517 33.8037 120.275C34.0267 120.033 34.195 119.746 34.2975 119.433C34.3999 119.12 34.4341 118.789 34.3976 118.462L33.8519 112.224C33.7798 111.53 33.4528 110.887 32.9341 110.419C32.4155 109.952 31.7419 109.693 31.0437 109.694Z" style="fill:var(--sapContent_Illustrative_Color6)"/>
<path d="M40.9502 103.489H74.7574C75.1726 103.497 75.5848 103.416 75.9663 103.252C76.3478 103.088 76.69 102.845 76.97 102.538C77.25 102.232 77.4614 101.869 77.59 101.474C77.7187 101.079 77.7617 100.661 77.7161 100.248C77.6266 99.3696 77.2182 98.554 76.5681 97.956C75.9181 97.3579 75.0714 97.0188 74.1882 97.0026H40.3857C39.97 96.9955 39.5576 97.0769 39.1759 97.2414C38.7942 97.4059 38.4518 97.6498 38.1715 97.9568C37.8912 98.2637 37.6794 98.6268 37.5503 99.0219C37.4211 99.417 37.3774 99.8351 37.4222 100.248C37.5128 101.126 37.9217 101.941 38.5717 102.538C39.2216 103.135 40.0677 103.473 40.9502 103.489Z" style="fill:var(--sapContent_Illustrative_Color6)"/>
<path d="M42.0273 112.427C41.6121 112.42 41.2002 112.502 40.819 112.667C40.4379 112.832 40.0961 113.076 39.8163 113.383C39.5365 113.69 39.3252 114.053 39.1963 114.447C39.0673 114.842 39.0238 115.26 39.0686 115.673C39.1582 116.551 39.5668 117.366 40.217 117.963C40.8672 118.56 41.7138 118.899 42.5965 118.914H76.4038C76.819 118.921 77.2311 118.841 77.6127 118.677C77.9942 118.513 78.3364 118.269 78.6164 117.962C78.8964 117.656 79.1077 117.293 79.2364 116.898C79.3651 116.503 79.4081 116.085 79.3625 115.673C79.2729 114.794 78.8646 113.978 78.2145 113.38C77.5644 112.782 76.7177 112.443 75.8346 112.427H42.0273Z" style="fill:var(--sapContent_Illustrative_Color6)"/>
<path d="M21.3063 106.721C21.4066 106.825 21.5263 106.907 21.6587 106.965C21.7911 107.022 21.9335 107.053 22.0777 107.055C22.2221 107.054 22.3649 107.024 22.4974 106.966C22.6299 106.909 22.7495 106.825 22.8492 106.721L23.8794 105.695L31.1516 98.4184C31.2549 98.318 31.3372 98.1982 31.3937 98.0657C31.4503 97.9333 31.4799 97.791 31.481 97.647C31.4793 97.5038 31.4493 97.3623 31.3928 97.2307C31.3363 97.0991 31.2543 96.98 31.1516 96.8802C31.0523 96.7755 30.9327 96.692 30.8001 96.635C30.6674 96.578 30.5246 96.5486 30.3802 96.5486C30.2358 96.5486 30.093 96.578 29.9603 96.635C29.8277 96.692 29.7081 96.7755 29.6087 96.8802L22.3506 104.138L22.0777 104.411L19.5282 101.862C19.323 101.658 19.0457 101.544 18.7568 101.544C18.4678 101.544 18.1906 101.658 17.9853 101.862C17.8827 101.962 17.8011 102.082 17.7454 102.215C17.6897 102.347 17.6609 102.489 17.6608 102.633C17.661 102.776 17.6898 102.918 17.7456 103.049C17.8013 103.181 17.8828 103.3 17.9853 103.4L21.3063 106.721Z" style="fill:var(--sapContent_Illustrative_Color3)"/>
<path d="M32.5015 112.794C32.5014 112.65 32.4726 112.508 32.4169 112.375C32.3612 112.243 32.2796 112.123 32.177 112.022C32.0769 111.919 31.9571 111.836 31.8245 111.78C31.692 111.724 31.5495 111.695 31.4055 111.695C31.2615 111.695 31.119 111.724 30.9865 111.78C30.8539 111.836 30.7341 111.919 30.6341 112.022L23.5781 119.078L23.0795 119.577L20.53 117.027C20.3248 116.824 20.0475 116.71 19.7585 116.71C19.4696 116.71 19.1923 116.824 18.9871 117.027C18.8838 117.128 18.8015 117.247 18.745 117.38C18.6885 117.512 18.6589 117.655 18.6578 117.799C18.6589 117.943 18.6885 118.085 18.745 118.217C18.8015 118.35 18.8838 118.47 18.9871 118.57L22.3081 121.891C22.4083 121.995 22.5281 122.077 22.6606 122.134C22.7931 122.19 22.9355 122.22 23.0795 122.22C23.2235 122.219 23.3658 122.189 23.4982 122.133C23.6306 122.076 23.7504 121.994 23.851 121.891L24.9893 120.753L32.1534 113.589C32.2632 113.487 32.3508 113.364 32.4107 113.228C32.4706 113.091 32.5015 112.943 32.5015 112.794Z" style="fill:var(--sapContent_Illustrative_Color3)"/>
</g>
</g>
<path d="M103.398 67.6231C103.398 69.3371 104.787 70.7266 106.501 70.7266H127.032C127.211 70.7266 127.39 70.7111 127.567 70.6802L130.757 70.1217C131.399 70.0094 131.988 69.6983 132.443 69.2324L138.484 63.0437C139.049 62.4646 139.366 61.6877 139.366 60.8786L139.385 38.8953C139.387 37.1802 137.997 35.7891 136.282 35.7891H106.501C104.787 35.7891 103.398 37.1786 103.398 38.8926V67.6231Z" style="fill:var(--sapContent_Illustrative_Color1)"/>
<rect x="107.099" y="42.5514" width="28.5868" height="18.0981" rx="3.10358" style="fill:var(--sapContent_Illustrative_Color8)"/>
<path d="M127.268 48.2273C127.267 48.1083 127.243 47.9906 127.197 47.8811C127.15 47.7715 127.082 47.6722 126.997 47.5889C126.914 47.5025 126.815 47.4337 126.705 47.3867C126.595 47.3397 126.476 47.3154 126.357 47.3154C126.237 47.3154 126.118 47.3397 126.008 47.3867C125.898 47.4337 125.799 47.5025 125.716 47.5889L123.968 49.3373L121.791 51.5015L119.458 53.835L117.567 51.944L117.342 51.7191C117.23 51.6067 117.09 51.5259 116.937 51.4847C116.783 51.4436 116.621 51.4436 116.468 51.4848C116.315 51.526 116.175 51.6069 116.062 51.7193C115.95 51.8318 115.869 51.9718 115.829 52.1254C115.805 52.2039 115.793 52.2853 115.792 52.3672C115.793 52.4862 115.817 52.6039 115.864 52.7135C115.91 52.823 115.978 52.9223 116.063 53.0056L117.531 54.4734L118.82 55.7623C118.903 55.8479 119.002 55.9161 119.111 55.963C119.221 56.0099 119.339 56.0346 119.458 56.0355C119.578 56.0344 119.696 56.0096 119.806 55.9627C119.916 55.9158 120.015 55.8477 120.099 55.7623L121.835 54.0236L124.35 51.5088L126.814 49.0471L126.985 48.8754C127.073 48.7917 127.143 48.6912 127.192 48.5799C127.241 48.4686 127.266 48.3488 127.268 48.2273Z" style="fill:var(--sapContent_Illustrative_Color3)"/>
<path d="M139.388 61.4637C139.388 61.4637 138.732 71.0557 126.074 70.7267C126.074 70.7267 134.17 70.7843 133.704 64.415C133.704 64.415 136.97 63.761 139.388 61.4637Z" style="fill:var(--sapContent_Illustrative_Color16)"/>
<path d="M103.397 35.5775C103.397 33.8634 104.787 32.4739 106.501 32.4739H136.284C137.999 32.4739 139.388 33.8634 139.388 35.5775V39.055H103.397V35.5775Z" style="fill:var(--sapContent_Illustrative_Color16)"/>
<path d="M121.628 38.0145C122.068 37.9877 122.491 37.8328 122.844 37.5689C123.197 37.3049 123.465 36.9434 123.615 36.529C123.765 36.1145 123.79 35.6652 123.688 35.2365C123.586 34.8077 123.36 34.4183 123.039 34.1162C122.718 33.8141 122.316 33.6125 121.882 33.5362C121.448 33.46 121.001 33.5125 120.596 33.6872C120.192 33.8619 119.847 34.1512 119.605 34.5195C119.363 34.8878 119.233 35.3188 119.233 35.7596C119.255 36.3751 119.519 36.9572 119.967 37.3794C120.416 37.8016 121.013 38.0298 121.628 38.0145ZM122.126 34.0893C122.206 33.9691 122.55 34.0659 122.898 34.2998C123.245 34.5336 123.456 34.8242 123.375 34.9412C123.295 35.0581 122.948 34.9645 122.604 34.7307C122.26 34.4969 122.046 34.2062 122.126 34.0893Z" style="fill:var(--sapContent_Illustrative_Color3)"/>
<path d="M122.604 34.7308C122.938 34.9646 123.295 35.0648 123.375 34.9412C123.456 34.8176 123.242 34.537 122.898 34.2999C122.554 34.0627 122.206 33.9658 122.126 34.0894C122.046 34.213 122.26 34.4936 122.604 34.7308Z" style="fill:var(--sapContent_Illustrative_Color8)"/>
<path d="M123.745 87.046C123.745 88.7601 125.135 90.1496 126.849 90.1496H147.38C147.559 90.1496 147.738 90.1341 147.915 90.1031L151.105 89.5446C151.747 89.4324 152.336 89.1213 152.791 88.6554L158.832 82.4667C159.397 81.8876 159.714 81.1107 159.714 80.3015L159.733 58.3183C159.735 56.6032 158.345 55.212 156.63 55.212H126.849C125.135 55.212 123.745 56.6016 123.745 58.3156V87.046Z" style="fill:var(--sapContent_Illustrative_Color2)"/>
<rect x="127.447" y="61.9744" width="28.5868" height="18.0981" rx="3.10358" style="fill:var(--sapContent_Illustrative_Color8)"/>
<path d="M147.616 67.6503C147.615 67.5313 147.591 67.4136 147.544 67.304C147.498 67.1945 147.43 67.0952 147.345 67.0119C147.262 66.9254 147.163 66.8566 147.053 66.8096C146.943 66.7626 146.824 66.7384 146.704 66.7384C146.585 66.7384 146.466 66.7626 146.356 66.8096C146.246 66.8566 146.147 66.9254 146.064 67.0119L144.316 68.7602L142.139 70.9245L139.806 73.258L137.915 71.367L137.69 71.1421C137.578 71.0297 137.438 70.9488 137.285 70.9077C137.131 70.8666 136.969 70.8666 136.816 70.9078C136.663 70.9489 136.523 71.0299 136.41 71.1423C136.298 71.2548 136.217 71.3948 136.177 71.5484C136.153 71.6268 136.141 71.7083 136.14 71.7902C136.141 71.9092 136.165 72.0269 136.212 72.1364C136.258 72.246 136.326 72.3453 136.411 72.4286L137.879 73.8964L139.168 75.1853C139.251 75.2708 139.35 75.3391 139.459 75.386C139.569 75.4329 139.687 75.4575 139.806 75.4585C139.925 75.4573 140.044 75.4326 140.154 75.3857C140.263 75.3388 140.363 75.2707 140.447 75.1853L142.183 73.4466L144.698 70.9317L147.161 68.4701L147.333 68.2984C147.421 68.2146 147.491 68.1142 147.54 68.0029C147.589 67.8916 147.614 67.7717 147.616 67.6503Z" style="fill:var(--sapContent_Illustrative_Color3)"/>
<path d="M159.736 80.8867C159.736 80.8867 159.08 90.4787 146.422 90.1497C146.422 90.1497 154.518 90.2073 154.052 83.8379C154.052 83.8379 157.317 83.1839 159.736 80.8867Z" style="fill:var(--sapContent_Illustrative_Color14)"/>
<path d="M123.745 55.0004C123.745 53.2864 125.135 51.8969 126.849 51.8969H156.632C158.346 51.8969 159.736 53.2864 159.736 55.0004V58.478H123.745V55.0004Z" style="fill:var(--sapContent_Illustrative_Color14)"/>
<path d="M141.976 57.4375C142.416 57.4107 142.839 57.2558 143.192 56.9918C143.545 56.7279 143.813 56.3664 143.963 55.9519C144.113 55.5375 144.138 55.0882 144.036 54.6595C143.934 54.2307 143.708 53.8413 143.387 53.5392C143.066 53.237 142.664 53.0354 142.23 52.9592C141.796 52.883 141.349 52.9355 140.944 53.1102C140.54 53.2849 140.195 53.5742 139.953 53.9425C139.711 54.3107 139.581 54.7418 139.581 55.1826C139.603 55.7981 139.867 56.3802 140.315 56.8024C140.764 57.2246 141.361 57.4528 141.976 57.4375ZM142.474 53.5123C142.554 53.392 142.898 53.4889 143.246 53.7228C143.593 53.9566 143.803 54.2472 143.723 54.3641C143.643 54.4811 143.296 54.3875 142.952 54.1537C142.608 53.9198 142.394 53.6292 142.474 53.5123Z" style="fill:var(--sapContent_Illustrative_Color3)"/>
<path d="M142.952 54.1538C143.286 54.3876 143.643 54.4878 143.723 54.3642C143.803 54.2406 143.59 53.96 143.246 53.7228C142.902 53.4857 142.554 53.3888 142.474 53.5124C142.394 53.636 142.608 53.9166 142.952 54.1538Z" style="fill:var(--sapContent_Illustrative_Color8)"/>
<defs>
<clipPath id="clip0_396_4982">
<rect width="138.736" height="69.1317" style="fill:var(--sapContent_Illustrative_Color8)" transform="matrix(-1 0 0 1 138.661 72.5933)"/>
</clipPath>
</defs>
</svg>
