<svg width="320" height="240" viewBox="0 0 320 240" fill="none" xmlns="http://www.w3.org/2000/svg" id="sapIllus-Scene-UnableToUpload">
<rect y="59" width="320" height="138" rx="24" fill="var(--sapContent_Illustrative_Color20)"/>
<path fill-rule="evenodd" clip-rule="evenodd" d="M188.801 156.358C189.896 156.358 190.902 155.936 191.702 155.228C193.711 154.617 195.188 152.54 195.188 150.073V64.078C195.188 61.1295 193.077 58.7397 190.473 58.7397L134 59C132.908 59 131.5 59 130.5 59.5C128.5 60.5 127.414 62.5572 127.414 65.0246V97.3022C126.84 97.445 126.384 97.5381 126.083 97.5692C125.633 97.6126 125.183 97.5661 124.736 97.5195C122.917 97.3271 121.135 97.1378 119.546 103.125C118.091 108.603 116.371 110.877 115.245 112.364C114.894 112.83 114.599 113.215 114.391 113.599C114.357 113.658 114.326 113.724 114.295 113.782C113.82 114.788 114.304 120.694 114.748 126.119C115.046 129.76 115.325 133.186 115.288 134.763C115.223 137.311 113.448 141.42 112.209 143.99C110.959 143.168 110.133 142.665 110.133 142.665L108.203 148.447L106.828 147.485H106.822L85 196.652H123.882L125.251 170.566H125.257L125.747 160.697L124.891 160.098C125.009 158.568 124.919 156.721 124.264 154.89L127.42 148.261V156.355H188.81L188.801 156.358Z" fill="var(--sapContent_Illustrative_Color21)"/>
<path d="M228.738 40H161.632C158.411 40 155.8 42.6109 155.8 45.8317V143.813C155.8 147.034 158.411 149.645 161.632 149.645H228.738C231.959 149.645 234.57 147.034 234.57 143.813V45.8317C234.57 42.6109 231.959 40 228.738 40Z" fill="var(--sapContent_Illustrative_Color17)"/>
<path d="M228.85 40H163.652C160.491 40 157.929 42.5623 157.929 45.7231V142.857C157.929 146.018 160.491 148.58 163.652 148.58H228.85C232.01 148.58 234.573 146.018 234.573 142.857V45.7231C234.573 42.5623 232.01 40 228.85 40Z" fill="var(--sapContent_Illustrative_Color9)"/>
<path d="M225.979 45.7109H166.408C164.015 45.7109 162.075 47.6507 162.075 50.0436V139.319C162.075 141.712 164.015 143.652 166.408 143.652H225.979C228.372 143.652 230.311 141.712 230.311 139.319V50.0436C230.311 47.6507 228.372 45.7109 225.979 45.7109Z" fill="var(--sapContent_Illustrative_Color8)"/>
<path d="M157.714 75.757C157.714 75.1108 157.191 74.5869 156.546 74.5869C155.901 74.5869 155.377 75.1108 155.377 75.757V79.261C155.377 79.9072 155.901 80.431 156.546 80.431C157.191 80.431 157.714 79.9072 157.714 79.261V75.757Z" fill="var(--sapContent_Illustrative_Color9)"/>
<path d="M157.212 75.5056C157.212 74.9982 156.801 74.5869 156.295 74.5869C155.788 74.5869 155.377 74.9982 155.377 75.5056V79.5124C155.377 80.0197 155.788 80.431 156.295 80.431C156.801 80.431 157.212 80.0197 157.212 79.5124V75.5056Z" fill="var(--sapContent_Illustrative_Color17)"/>
<path d="M230.312 105.111L174.309 143.651H166.408C164.015 143.651 162.075 141.712 162.075 139.319V133.948L230.312 86.9902V105.111Z" fill="var(--sapContent_Illustrative_Color8)"/>
<path d="M225.979 45.7109C228.371 45.7109 230.312 47.6511 230.312 50.0439V54.7598L162.075 101.718V83.5967L217.129 45.7109H225.979Z" fill="var(--sapContent_Illustrative_Color8)"/>
<path d="M213.238 94.5713C213.238 103.954 205.631 111.56 196.249 111.56C186.867 111.56 179.26 103.954 179.26 94.5713C179.26 85.189 186.867 77.582 196.249 77.582C205.631 77.582 213.238 85.189 213.238 94.5713Z" fill="var(--sapContent_Illustrative_Color23)"/>
<path fill-rule="evenodd" clip-rule="evenodd" d="M202.72 90.6733C203.381 90.0091 203.381 88.9353 202.72 88.2711C202.056 87.6069 200.982 87.6069 200.318 88.2711L196.336 92.253L192.354 88.2711C191.693 87.6069 190.616 87.6069 189.955 88.2711C189.291 88.9353 189.291 90.0091 189.955 90.6733L193.937 94.6552L189.955 98.6372C189.291 99.3013 189.291 100.375 189.955 101.039C190.616 101.704 191.693 101.704 192.354 101.039L196.336 97.0574L200.318 101.039C200.982 101.704 202.056 101.704 202.72 101.039C203.381 100.375 203.381 99.3013 202.72 98.6372L198.738 94.6552L202.72 90.6733Z" fill="var(--sapContent_Illustrative_Color8)"/>
<path d="M196.249 43.8488C196.837 43.8488 197.314 43.3722 197.314 42.7843C197.314 42.1963 196.837 41.7197 196.249 41.7197C195.661 41.7197 195.185 42.1963 195.185 42.7843C195.185 43.3722 195.661 43.8488 196.249 43.8488Z" fill="var(--sapContent_Illustrative_Color17)"/>
<path d="M171.622 89.4348C167.46 87.4174 163.18 93.9692 161.793 97.3738C160.406 100.775 157.761 110.102 157.761 108.59C157.761 107.079 155.496 101.281 155.117 99.5184C154.922 98.6153 155.26 97.2125 155.803 96.0455V88.8172C155.803 88.004 156.222 85.7446 155.803 85.04C155.443 84.4348 150.428 84.6552 149.419 85.1425C148.646 85.5149 148.063 86.1915 147.597 86.9084C145.915 89.5031 145.353 92.765 144.32 95.642C143.125 98.9598 141.983 102.352 141.303 105.819C140.707 108.854 140.642 111.967 140.58 115.061C140.471 120.431 141.163 126.3 139.177 131.362C138.047 134.242 136.57 137.013 134.956 139.658L150.834 151.06L157.765 138.208C157.765 138.208 161.92 135.685 163.938 132.913C165.952 130.142 167.47 119.301 167.594 116.154C167.721 113.001 167.721 108.714 168.727 106.955C169.735 105.192 175.784 91.4552 171.625 89.441L171.622 89.4348Z" fill="var(--sapContent_Illustrative_Color16)"/>
<path d="M171.622 89.435C171.042 89.1526 170.458 89.044 169.881 89.0657C170.545 90.1333 170.617 91.5486 170.474 92.7683C170.263 94.5746 169.689 96.3095 168.969 97.9731C168.708 98.5721 168.435 99.1773 168.096 99.7359C167.029 101.502 165.393 102.836 164.658 104.779C163.922 106.722 163.798 108.771 163.674 110.791C163.674 113.507 163.335 116.269 163.171 118.981C163.016 121.495 163.041 124.059 162.395 126.505C161.318 130.605 158.807 134.242 154.993 136.219C154.738 136.349 154.472 136.483 154.301 136.712C154.009 137.104 154.084 137.64 154.13 138.125C154.468 141.57 152.625 144.627 150.505 147.178C149.894 147.913 149.208 148.668 148.454 149.354L150.831 151.061L157.761 138.208C157.761 138.208 161.917 135.685 163.934 132.914C165.949 130.142 167.466 119.301 167.591 116.154C167.718 113.001 167.718 108.715 168.723 106.955C169.732 105.192 175.781 91.4555 171.622 89.4412V89.435Z" fill="var(--sapContent_Illustrative_Color29)"/>
<path d="M155.8 85.04C155.44 84.4348 150.424 84.6552 149.416 85.1425C148.643 85.5149 148.059 86.1915 147.594 86.9084C145.912 89.5031 145.35 92.765 144.316 95.642C143.121 98.9598 141.979 102.352 141.3 105.819C140.704 108.854 140.638 111.967 140.576 115.061C140.468 120.431 141.16 126.3 139.174 131.362C138.044 134.242 136.567 137.013 134.953 139.658L136.728 140.933C137.516 139.217 138.509 137.594 139.639 136.082C140.21 135.319 140.8 134.462 141.597 133.919C141.985 133.655 142.457 133.481 142.926 133.45C143.261 133.429 143.742 133.587 144.034 133.385C144.034 133.385 144.136 133.249 144.142 133.239C144.186 133.14 144.22 132.966 144.229 132.901C144.267 132.591 144.239 132.265 144.198 131.954C144.105 131.275 143.903 130.617 143.782 129.943C142.64 123.624 141.57 116.725 142.538 110.328C143.081 106.737 144.462 103.199 145.365 99.6829C145.853 97.7804 146.569 95.9834 147.358 94.1926C148.053 92.6129 148.81 91.0362 149.803 89.6148C150.691 88.3392 151.833 87.0419 153.379 86.5919C154.118 86.3777 154.862 86.3312 155.61 86.3715C155.738 86.3249 155.862 86.2722 155.989 86.2318C155.995 85.7291 155.952 85.2852 155.803 85.0369L155.8 85.04Z" fill="var(--sapContent_Illustrative_Color29)"/>
<path d="M153.394 98.0722C153.649 98.845 154.114 99.4999 154.648 100.108C154.931 100.428 155.229 100.738 155.545 101.027C155.346 100.403 155.191 99.8785 155.114 99.5185C154.918 98.6154 155.256 97.2125 155.8 96.0456V90.127C155.337 90.6018 154.912 91.1077 154.524 91.6446C153.258 93.4013 152.721 95.6173 153.283 97.7091C153.317 97.8301 153.351 97.9512 153.391 98.0722H153.394Z" fill="var(--sapContent_Illustrative_Color29)"/>
<path d="M165.511 94.0901C165.455 94.4563 165.691 94.807 166.051 94.8877C168.559 95.4402 170.359 97.0789 170.992 96.7468C171.479 96.4954 174.105 90.0647 170.356 89.3136C166.607 88.5625 165.79 92.2838 165.514 94.0901H165.511Z" fill="var(--sapContent_Illustrative_Color29)"/>
<path d="M148.121 150.638C149.097 150.638 149.887 149.848 149.887 148.872C149.887 147.897 149.097 147.106 148.121 147.106C147.146 147.106 146.355 147.897 146.355 148.872C146.355 149.848 147.146 150.638 148.121 150.638Z" fill="var(--sapContent_Illustrative_Color29)"/>
<path d="M153.671 155.806C151.796 159.471 147.082 154.179 141.849 151.504C136.616 148.832 128.022 144.766 129.599 140.961C130.105 139.744 138.466 142.833 143.699 145.505C148.931 148.177 153.671 155.803 153.671 155.803V155.806Z" fill="var(--sapContent_Illustrative_Color14)"/>
<path d="M130.403 144.574L133.811 135.548C133.811 135.548 149.456 143.972 151.66 148.987C153.866 153.999 151.66 159.217 151.66 159.217L130.4 144.574H130.403Z" fill="var(--sapContent_Illustrative_Color8)"/>
<path d="M101.834 196.652L129.602 140.961L153.674 155.802L151.365 196.649H101.834V196.652Z" fill="var(--sapContent_Illustrative_Color21)"/>
<path d="M134.382 190.445C132.029 187.199 130.027 183.67 128.687 179.883C127.408 176.271 126.778 172.388 127.141 168.561C127.153 168.446 127.166 168.332 127.184 168.22C127.777 164.371 132.032 162.27 135.549 163.946L139.562 165.861C140.716 166.41 141.84 165.057 141.085 164.027C138.568 160.588 135.319 156.106 135.272 155.846C135.189 155.396 135.549 154.946 136.036 155.082C137.855 155.594 139.63 156.24 141.377 156.954C145.384 158.589 149.282 160.52 153.32 162.059L153.674 155.805L129.602 140.964L101.834 196.655H139.552C137.703 194.697 135.965 192.63 134.382 190.448V190.445Z" fill="var(--sapContent_Illustrative_Color14)"/>
<path d="M165.511 94.0901C165.455 94.4563 165.691 94.807 166.051 94.8877C168.559 95.4402 170.359 97.0789 170.992 96.7468C171.479 96.4954 174.105 90.0647 170.356 89.3136C166.607 88.5625 165.79 92.2838 165.514 94.0901H165.511Z" fill="var(--sapContent_Illustrative_Color15)"/>
<path d="M148.121 150.638C149.097 150.638 149.887 149.848 149.887 148.872C149.887 147.897 149.097 147.106 148.121 147.106C147.146 147.106 146.355 147.897 146.355 148.872C146.355 149.848 147.146 150.638 148.121 150.638Z" fill="var(--sapContent_Illustrative_Color14)"/>
</svg>