<svg width="128" height="128" viewBox="0 0 128 128" fill="none" xmlns="http://www.w3.org/2000/svg" id="sapIllus-Spot-SortingColumns">
<rect y="40" width="128" height="55" rx="8" fill="var(--sapContent_Illustrative_Color20)"/>
<g clip-path="url(#clip0_6736_8211)">
<path d="M30.0887 41.6629L38.3806 71.1564C38.5583 71.79 39.1863 72.2 39.8557 72.1161L96.5382 65.3981C98.616 64.8825 99.2091 63.2426 98.9268 62.4506L66.3175 37.3364C66.1176 36.7773 65.5625 36.417 64.9598 36.4543L31.7224 37.4109C30.8691 37.4637 29.1561 38.6657 30.0855 41.666L30.0887 41.6629Z" fill="var(--sapContent_Illustrative_Color22)"/>
<path d="M30.5236 39.0693L39.2247 70.0133C39.4023 70.6469 40.0304 71.0569 40.6997 70.973L97.8263 64.1991C98.6765 64.0904 99.2094 63.2456 98.9271 62.4536L87.9389 34.8173C87.739 34.2583 87.1839 33.898 86.5812 33.9353L31.7385 37.4014C30.8852 37.4542 30.2952 38.2618 30.5236 39.0693Z" fill="var(--sapContent_Illustrative_Color8)"/>
<path d="M87.9389 34.8173C87.739 34.2583 87.1839 33.898 86.5812 33.9353L31.7385 37.4014C30.8852 37.4542 30.2952 38.2618 30.5236 39.0693L31.7416 43.4051L89.4678 38.6686L87.9357 34.8173H87.9389Z" fill="var(--sapContent_Illustrative_Color14)"/>
<path d="M74.9489 90.6706L55.783 84.2166C58.9805 81.9741 57.0169 79.3869 51.0153 77.8091C44.1477 76.0015 33.2768 75.8959 25.6542 77.6818C16.9785 79.7162 15.1006 83.5364 23.0182 86.0739C31.2403 88.7077 45.0168 88.4313 52.6394 85.7354L71.4215 91.9969L73.2455 91.7111C73.3724 91.7453 73.7816 91.6055 74.4223 91.2266C75.6087 90.4315 76.2305 89.9097 76.0338 89.8134L74.9489 90.6737V90.6706Z" fill="var(--sapContent_Illustrative_Color21)"/>
<g clip-path="url(#clip1_6736_8211)">
<path d="M89.0315 46.443L81.174 47.1589C81.0248 47.1713 80.8635 47.0725 80.8148 46.9337L80.4616 45.9647C80.4129 45.8258 80.4921 45.7055 80.6382 45.6931L88.4896 45.0049C88.6327 44.9926 88.788 45.0914 88.8397 45.2271L89.199 46.1745C89.2507 46.3103 89.1746 46.4306 89.0315 46.443Z" fill="var(--sapContent_Illustrative_Color13)"/>
<path d="M90.4992 50.3217L82.6173 51.1179C82.4681 51.1333 82.3068 51.0315 82.255 50.8926L81.8988 49.9113C81.8471 49.7724 81.9293 49.6459 82.0754 49.6336L89.9482 48.8682C90.0912 48.8528 90.2495 48.9547 90.3013 49.0904L90.6636 50.0502C90.7153 50.1859 90.6423 50.3094 90.4992 50.3248V50.3217Z" fill="var(--sapContent_Illustrative_Color13)"/>
<path d="M91.9818 54.2501L84.0726 55.1265C83.9234 55.1419 83.759 55.0401 83.7072 54.8981L83.345 53.9045C83.2932 53.7625 83.3724 53.636 83.5215 53.6206L91.4217 52.775C91.5647 52.7596 91.7231 52.8583 91.7778 52.9972L92.1462 53.9693C92.198 54.1081 92.1249 54.2347 91.9818 54.2501Z" fill="var(--sapContent_Illustrative_Color13)"/>
<path d="M93.4887 58.2375L85.5551 59.1972C85.4059 59.2158 85.2415 59.1139 85.1898 58.9689L84.8244 57.9598C84.7727 57.8178 84.8518 57.6851 85.001 57.6697L92.9255 56.7408C93.0686 56.7254 93.2299 56.8242 93.2817 56.963L93.6562 57.9505C93.7079 58.0925 93.6348 58.219 93.4918 58.2375H93.4887Z" fill="var(--sapContent_Illustrative_Color13)"/>
<path d="M75.9078 47.6403L67.5389 48.4025C67.3806 48.4179 67.2131 48.313 67.1644 48.1711L66.8235 47.1681C66.7747 47.0262 66.863 46.8997 67.0213 46.8842L75.3781 46.1529C75.5303 46.1405 75.6917 46.2424 75.7434 46.3812L76.0905 47.3595C76.1392 47.4983 76.057 47.6249 75.9048 47.6372L75.9078 47.6403Z" fill="var(--sapContent_Illustrative_Color13)"/>
<path d="M77.3291 51.652L68.9297 52.5006C68.7714 52.5161 68.6009 52.4112 68.5522 52.2661L68.2082 51.2508C68.1595 51.1058 68.2478 50.9762 68.4061 50.9608L76.7964 50.1461C76.9486 50.1306 77.113 50.2325 77.1617 50.3744L77.5148 51.3681C77.5666 51.5101 77.4814 51.6366 77.3291 51.652Z" fill="var(--sapContent_Illustrative_Color13)"/>
<path d="M78.7721 55.7161L70.3393 56.6511C70.1809 56.6696 70.0105 56.5647 69.9587 56.4166L69.6086 55.3859C69.5599 55.2409 69.6482 55.1082 69.8065 55.0896L78.2272 54.1886C78.3794 54.1731 78.5438 54.275 78.5956 54.4169L78.9518 55.4229C79.0035 55.568 78.9213 55.6976 78.7661 55.713L78.7721 55.7161Z" fill="var(--sapContent_Illustrative_Color13)"/>
<path d="M80.2335 59.8423L71.7702 60.8668C71.6088 60.8853 71.4384 60.7804 71.3896 60.6323L71.0365 59.5861C70.9847 59.438 71.0761 59.3022 71.2344 59.2837L79.6855 58.2931C79.8378 58.2746 80.0052 58.3795 80.057 58.5246L80.4192 59.546C80.471 59.6911 80.3888 59.8238 80.2335 59.8423Z" fill="var(--sapContent_Illustrative_Color13)"/>
<path d="M61.9214 48.9147L52.9862 49.7294C52.8157 49.7448 52.6422 49.6368 52.5965 49.4887L52.2708 48.4518C52.2251 48.3037 52.3256 48.1741 52.493 48.1587L61.413 47.3779C61.5744 47.3625 61.7449 47.4705 61.7936 47.6125L62.1284 48.6277C62.1772 48.7728 62.0828 48.9024 61.9214 48.9178V48.9147Z" fill="var(--sapContent_Illustrative_Color13)"/>
<path d="M63.2919 53.0682L54.3202 53.9724C54.1497 53.9909 53.9731 53.8829 53.9274 53.7317L53.5986 52.6794C53.553 52.5313 53.6504 52.3955 53.8209 52.38L62.7774 51.5098C62.9388 51.4944 63.1123 51.5993 63.1579 51.7443L63.4989 52.772C63.5476 52.9201 63.4532 53.0497 63.2919 53.0682Z" fill="var(--sapContent_Illustrative_Color13)"/>
<path d="M64.6799 57.2808L55.6717 58.2806C55.5012 58.2992 55.3246 58.1911 55.2759 58.0399L54.941 56.9722C54.8923 56.821 54.9928 56.6821 55.1632 56.6636L64.1594 55.7008C64.3237 55.6823 64.4942 55.7903 64.5429 55.9384L64.887 56.9815C64.9357 57.1296 64.8443 57.2654 64.6799 57.2839V57.2808Z" fill="var(--sapContent_Illustrative_Color13)"/>
<path d="M66.0866 61.5546L57.0387 62.6501C56.8682 62.6717 56.6886 62.5637 56.6399 62.4063L56.2989 61.3231C56.2502 61.1688 56.3507 61.0269 56.5212 61.0083L65.5538 59.9499C65.7182 59.9314 65.8917 60.0363 65.9404 60.1875L66.2905 61.246C66.3392 61.3972 66.2479 61.536 66.0835 61.5546H66.0866Z" fill="var(--sapContent_Illustrative_Color13)"/>
<path d="M46.986 50.2785L37.4266 51.1488C37.247 51.1642 37.0644 51.0531 37.0187 50.9019L36.7143 49.8249C36.6716 49.6706 36.7812 49.5348 36.9639 49.5194L46.5049 48.6831C46.6785 48.6677 46.855 48.7757 46.9007 48.9269L47.2204 49.9792C47.266 50.1304 47.1625 50.2631 46.989 50.2785H46.986Z" fill="var(--sapContent_Illustrative_Color13)"/>
<path d="M48.2921 54.5804L38.6902 55.5494C38.5075 55.5679 38.3248 55.4568 38.2792 55.2994L37.9687 54.207C37.923 54.0527 38.0356 53.9108 38.2183 53.8953L47.805 52.9634C47.9785 52.948 48.1582 53.056 48.2038 53.2072L48.5265 54.2749C48.5722 54.4261 48.4687 54.565 48.2951 54.5835L48.2921 54.5804Z" fill="var(--sapContent_Illustrative_Color13)"/>
<path d="M49.6164 58.9503L39.9688 60.0211C39.7862 60.0427 39.6005 59.9285 39.5548 59.7711L39.2382 58.6633C39.1925 58.5059 39.3052 58.3609 39.4878 58.3423L49.1172 57.3116C49.2907 57.2931 49.4703 57.4011 49.519 57.5554L49.8478 58.6386C49.8935 58.7929 49.79 58.9348 49.6164 58.9534V58.9503Z" fill="var(--sapContent_Illustrative_Color13)"/>
<path d="M50.9588 63.3849L41.2656 64.5576C41.0829 64.5792 40.8972 64.4681 40.8485 64.3076L40.5258 63.1812C40.4801 63.0208 40.5928 62.8757 40.7754 62.8541L50.4504 61.7185C50.627 61.6969 50.8066 61.808 50.8553 61.9623L51.1902 63.0609C51.2389 63.2183 51.1354 63.3633 50.9588 63.3818V63.3849Z" fill="var(--sapContent_Illustrative_Color13)"/>
</g>
<path d="M77.9056 46.1972C79.1206 51.1946 77.119 56.341 74.6193 60.0153C72.3703 63.3169 68.5764 65.6432 63.6089 66.2271C52.6524 67.5129 40.9251 59.8383 37.9687 49.4398C35.1328 39.4667 41.5056 29.1428 51.9101 28.6707C61.9055 28.2172 74.5527 36.9882 77.9056 46.1972Z" fill="var(--sapContent_Illustrative_Color16)"/>
<path d="M77.1755 43.6319C80.6616 53.2043 75.4023 62.2052 64.9089 63.4382C53.9524 64.724 42.2251 57.0494 39.2687 46.6509C36.4328 36.6779 42.9737 28.4938 53.3783 28.0217C63.3736 27.5683 73.8226 34.4261 77.1755 43.6319Z" fill="var(--sapContent_Illustrative_Color15)"/>
<path d="M74.8376 43.8183C77.8289 52.1452 73.1913 59.9099 64.0936 60.9318C54.6471 61.9909 44.5534 55.3846 41.9618 46.4397C39.4622 37.8115 45.0609 30.6617 54.0951 30.2114C62.8185 29.7797 71.9478 35.7709 74.8408 43.8183H74.8376Z" fill="var(--sapContent_Illustrative_Color25)"/>
<path d="M77.0456 90.3227L71.0693 91.8818L61.5752 62.174L67.174 61.5342L77.0456 90.3227Z" fill="var(--sapContent_Illustrative_Color15)"/>
<path d="M41.645 39.7342L54.0004 30.2178C47.5103 30.575 42.8124 34.3952 41.645 39.7342Z" fill="var(--sapContent_Illustrative_Color25)"/>
<path d="M64.091 60.9316C72.1164 60.0309 76.6684 53.8843 75.5772 46.7314L55.8086 60.0122C58.489 60.8881 61.3186 61.2422 64.091 60.9316Z" fill="var(--sapContent_Illustrative_Color8)"/>
<path d="M75.7199 48.0235C75.2505 38.7742 66.175 31.376 57.1662 30.2734C54.0322 29.9907 48.5222 29.9907 44.5222 34.2489C44.0717 34.7272 43.6498 35.2863 43.2565 35.8764C43.1899 35.9758 43.1518 36.0441 43.0915 36.1404C43.082 36.1528 43.0789 36.1684 43.0693 36.1839C47.8116 30.5902 55.393 30.233 62.0925 32.8419C69.0268 35.541 75.0157 41.4204 75.7199 48.0298V48.0235Z" fill="var(--sapContent_Illustrative_Color16)"/>
<path d="M52.5159 31.3608L41.645 39.7343C41.1977 41.7842 41.2675 44.0546 41.9591 46.4399C42.0161 46.6387 42.0796 46.8343 42.1462 47.03L63.1805 33.2989C59.7356 31.7863 56.0052 31.0347 52.5159 31.3608Z" fill="var(--sapContent_Illustrative_Color8)"/>
<path d="M59.2979 63.3482L62.5556 65.2397C62.5556 65.2397 61.8768 63.5905 64.11 63.3638V63.3296C63.2154 63.4631 61.4137 63.6402 59.2979 63.3451V63.3482Z" fill="var(--sapContent_Illustrative_Color16)"/>
<path d="M66.4766 63.0344C66.9302 63.053 67.7232 63.3823 68.1007 64.3296L68.6399 62.6089C68.6399 62.6089 68.1419 62.8449 66.4766 63.0313V63.0344Z" fill="var(--sapContent_Illustrative_Color16)"/>
<path d="M71.0694 91.8818L62.1685 64.0624L62.768 63.4723C62.768 63.4723 63.9068 63.407 65.201 63.1523C65.201 63.1523 64.7537 63.6462 64.8838 64.3295C65.404 67.013 73.8672 91.3601 73.8672 91.3601L71.0662 91.8818H71.0694Z" fill="var(--sapContent_Illustrative_Color16)"/>
<path d="M77.0456 90.323C77.0456 90.646 75.504 91.1833 72.9822 91.82C71.7355 92.0654 71.1233 92.0343 71.0694 91.8821C71.0313 91.7734 71.7133 91.3541 72.9504 90.9628C74.803 90.3944 76.8363 90.0745 77.0456 90.323Z" fill="var(--sapContent_Illustrative_Color16)"/>
<path d="M66.3328 42.4735L62.8656 39.8925C62.6658 39.7434 62.4088 39.6657 62.1709 39.6844C61.933 39.703 61.7395 39.8148 61.6444 39.9856L59.9663 42.9984C59.7887 43.3183 59.9822 43.75 60.4009 43.9612C60.8196 44.1724 61.3018 44.0823 61.4794 43.7624L62.2439 42.3741L65.048 50.9308C65.1749 51.3221 65.6349 51.6048 66.0758 51.5613C66.5167 51.5178 66.7642 51.17 66.6373 50.7817L63.8204 42.256L65.397 43.4301C65.6095 43.5885 65.8664 43.6568 66.0948 43.6382C66.2661 43.6226 66.4216 43.5605 66.5326 43.4456C66.7895 43.1816 66.7007 42.7468 66.3328 42.4735Z" fill="var(--sapContent_Illustrative_Color22)"/>
<path d="M58.4157 48.3838C57.9906 48.1726 57.5021 48.2658 57.3181 48.595L56.5187 50.0331L53.8066 41.4173C53.686 41.0353 53.2293 40.7558 52.7852 40.7899C52.3411 40.8241 52.0778 41.1626 52.1951 41.5478L54.8883 50.1728L53.2737 48.9646C52.8962 48.682 52.3696 48.6789 52.0905 48.9553C51.8113 49.2317 51.8938 49.6852 52.2713 49.9678L55.8431 52.642C56.0524 52.7973 56.3157 52.875 56.5631 52.8501C56.8106 52.8253 57.0136 52.7041 57.1151 52.5209L58.8534 49.3653C59.0342 49.0361 58.8376 48.595 58.4125 48.3838H58.4157Z" fill="var(--sapContent_Illustrative_Color22)"/>
</g>
<defs>
<clipPath id="clip0_6736_8211">
<rect width="81" height="64" fill="var(--sapContent_Illustrative_Color8)" transform="translate(18 28)"/>
</clipPath>
<clipPath id="clip1_6736_8211">
<rect width="56.9662" height="19.5556" fill="var(--sapContent_Illustrative_Color8)" transform="translate(36.7051 45.0049)"/>
</clipPath>
</defs>
</svg>