<svg width="160" height="160" viewBox="0 0 160 160" fill="none" xmlns="http://www.w3.org/2000/svg" id="sapIllus-Dialog-FilteringColumns">
<rect y="45" width="160" height="69" rx="12" fill="var(--sapContent_Illustrative_Color20)"/>
<path d="M116.412 103.103L114.094 102.033L74.4018 98.3911C74.4018 98.3911 51.673 96.0145 45.5083 95.6804C37.8605 95.2644 30.2672 95.0496 29.8069 96.6624C29.3466 98.2751 34.4235 100.693 47.3393 105.647C57.0398 109.37 66.9756 110.257 70.2761 108.92L89.8578 103.148L116.416 103.103H116.412Z" fill="var(--sapContent_Illustrative_Color21)"/>
<path d="M36.7331 59.5487L47.3892 98.1179C47.6174 98.9464 48.4246 99.4826 49.2847 99.3729L122.128 90.5876C124.798 89.9134 125.561 87.7688 125.198 86.7331L83.2912 53.8908C83.0343 53.1597 82.3209 52.6886 81.5464 52.7373L38.8325 53.9883C37.7359 54.0574 35.5346 55.6292 36.729 59.5527L36.7331 59.5487Z" fill="var(--sapContent_Illustrative_Color14)"/>
<path d="M37.292 56.1573L48.474 96.6232C48.7022 97.4518 49.5094 97.9879 50.3695 97.8783L123.784 89.0199C124.876 88.8777 125.561 87.7729 125.198 86.7372L111.077 50.5969C110.82 49.8658 110.107 49.3947 109.332 49.4434L38.8534 53.9762C37.7568 54.0452 36.9985 55.1012 37.292 56.1573Z" fill="var(--sapContent_Illustrative_Color8)"/>
<path d="M111.077 50.5969C110.82 49.8658 110.107 49.3947 109.332 49.4434L38.8534 53.9762C37.7568 54.0452 36.9985 55.1012 37.292 56.1573L38.8574 61.8273L113.042 55.6333L111.073 50.5969H111.077Z" fill="var(--sapContent_Illustrative_Color13)"/>
<path d="M40.582 56.6937L41.2016 58.8463C41.2709 59.0819 41.5359 59.2565 41.8009 59.2362L63.8223 57.7253C64.0669 57.7091 64.2096 57.51 64.1362 57.2867L63.4677 55.2152C63.3943 54.9918 63.1375 54.8213 62.8929 54.8375L40.9367 56.2428C40.6758 56.2591 40.5168 56.4621 40.582 56.6937Z" fill="var(--sapContent_Illustrative_Color2)"/>
<path d="M59.0587 73.813L47.8238 74.9097C47.5506 74.9381 47.3876 75.1615 47.4609 75.4133L47.7504 76.4125C47.8238 76.6643 48.105 76.8471 48.3782 76.8186L59.6335 75.6854C59.8984 75.657 60.0493 75.4377 59.9718 75.1899L59.6702 74.2111C59.5927 73.9633 59.3196 73.7846 59.0587 73.813Z" fill="var(--sapContent_Illustrative_Color2)"/>
<path d="M60.5394 78.6343L49.2515 79.8244C48.9784 79.8528 48.8153 80.0843 48.8887 80.3402L49.1822 81.3515C49.2556 81.6074 49.5368 81.7902 49.8141 81.7618L61.1264 80.5352C61.3914 80.5067 61.5422 80.2793 61.4648 80.0275L61.159 79.0364C61.0816 78.7846 60.8044 78.6059 60.5435 78.6343H60.5394Z" fill="var(--sapContent_Illustrative_Color2)"/>
<path d="M51.2608 86.7824L65.7325 85.0968C65.9975 85.0643 66.1443 84.8369 66.0668 84.581L65.7529 83.5818C65.6755 83.33 65.3983 83.1513 65.1333 83.1797L50.6861 84.8166C50.4129 84.8491 50.2499 85.0846 50.3232 85.3405L50.6208 86.3681C50.6942 86.628 50.9796 86.8149 51.2568 86.7824H51.2608Z" fill="var(--sapContent_Illustrative_Color2)"/>
<path d="M46.1166 70.7547L46.402 71.7376C46.4754 71.9854 46.7526 72.1682 47.0257 72.1438L61.2935 70.8157C61.5544 70.7913 61.7012 70.576 61.6278 70.3323L61.3302 69.3738C61.2528 69.1301 60.9837 68.9554 60.7228 68.9798L46.4835 70.2633C46.2104 70.2876 46.0514 70.507 46.1207 70.7588L46.1166 70.7547Z" fill="var(--sapContent_Illustrative_Color2)"/>
<path d="M52.703 91.7613L64.1254 90.3397C64.3945 90.3072 64.5453 90.0716 64.4638 89.8117L64.1499 88.7922C64.0724 88.5363 63.7911 88.3536 63.5262 88.3861L52.1282 89.767C51.851 89.7995 51.6879 90.0391 51.7654 90.3032L52.067 91.347C52.1445 91.611 52.4298 91.7978 52.707 91.7613H52.703Z" fill="var(--sapContent_Illustrative_Color2)"/>
<path d="M68.442 74.7316L81.9394 73.3751C82.1758 73.3507 82.3063 73.1436 82.2288 72.912L81.8986 71.9454C81.8212 71.7139 81.5644 71.5473 81.3279 71.5717L67.855 72.8877C67.6063 72.912 67.4677 73.1232 67.5411 73.3588L67.8591 74.3499C67.9365 74.5854 68.1974 74.7601 68.4461 74.7316H68.442Z" fill="var(--sapContent_Illustrative_Color2)"/>
<path d="M66.1025 68.8546L66.4163 69.8334C66.4897 70.069 66.7506 70.2396 66.9993 70.2152L80.4396 68.9643C80.676 68.944 80.8065 68.7409 80.729 68.5134L80.4029 67.5589C80.3255 67.3315 80.0727 67.165 79.8363 67.1853L66.4204 68.3956C66.1718 68.4159 66.0332 68.6231 66.1065 68.8587L66.1025 68.8546Z" fill="var(--sapContent_Illustrative_Color2)"/>
<path d="M80.2881 76.4863L69.3711 77.6357C69.1225 77.6601 68.9798 77.8753 69.0572 78.115L69.3793 79.1182C69.4567 79.3578 69.7217 79.5325 69.9704 79.504L80.9036 78.318C81.1442 78.2937 81.2746 78.0784 81.1971 77.8469L80.867 76.864C80.7895 76.6284 80.5286 76.4619 80.2881 76.4863Z" fill="var(--sapContent_Illustrative_Color2)"/>
<path d="M81.878 81.2098L70.9121 82.4527C70.6635 82.4811 70.5208 82.7005 70.5983 82.9441L70.9244 83.9636C71.0018 84.2073 71.2668 84.382 71.5195 84.3535L82.5017 83.0741C82.7422 83.0457 82.8727 82.8304 82.7952 82.5908L82.4569 81.5916C82.3754 81.3561 82.1145 81.1855 81.8739 81.2098H81.878Z" fill="var(--sapContent_Illustrative_Color2)"/>
<path d="M86.2453 71.5753L86.5755 72.5257C86.657 72.7572 86.9139 72.9278 87.1503 72.9034L99.8446 71.6281C100.073 71.6037 100.187 71.4047 100.106 71.1772L99.7631 70.2512C99.6815 70.0278 99.4288 69.8613 99.2046 69.8816L86.5307 71.1163C86.2942 71.1407 86.1679 71.3437 86.2494 71.5753H86.2453Z" fill="var(--sapContent_Illustrative_Color2)"/>
<path d="M95.4836 65.8281L85.015 66.7745C84.7786 66.7948 84.6522 66.9979 84.7338 67.2253L85.0599 68.1636C85.1414 68.391 85.3942 68.5616 85.6306 68.5372L96.1154 67.5584C96.3437 67.5381 96.4619 67.339 96.3804 67.1157L96.0461 66.1977C95.9646 65.9743 95.7159 65.8119 95.4876 65.8322L95.4836 65.8281Z" fill="var(--sapContent_Illustrative_Color2)"/>
<path d="M98.6834 74.6015L88.1293 75.7144C87.8929 75.7387 87.7665 75.9499 87.848 76.1815L88.1823 77.1441C88.2638 77.3796 88.5247 77.5502 88.7612 77.5218L99.3316 76.3764C99.5599 76.352 99.6781 76.1449 99.5925 75.9134L99.2501 74.9711C99.1645 74.7436 98.9117 74.5771 98.6834 74.6015Z" fill="var(--sapContent_Illustrative_Color2)"/>
<path d="M90.3924 82.2046L103.189 80.714C103.417 80.6855 103.531 80.4784 103.445 80.2469L103.095 79.2964C103.009 79.0649 102.756 78.8984 102.528 78.9228L89.7523 80.3687C89.5159 80.3971 89.3895 80.6084 89.4711 80.848L89.8094 81.8228C89.8909 82.0624 90.1518 82.233 90.3924 82.2046Z" fill="var(--sapContent_Illustrative_Color2)"/>
<path d="M92.0111 86.851L102.663 85.5269C102.895 85.4984 103.01 85.2832 102.924 85.0476L102.569 84.0809C102.484 83.8454 102.227 83.6788 101.995 83.7073L91.3589 84.9989C91.1183 85.0273 90.992 85.2466 91.0776 85.4863L91.42 86.4732C91.5056 86.7129 91.7665 86.8875 92.007 86.855L92.0111 86.851Z" fill="var(--sapContent_Illustrative_Color2)"/>
<path d="M112.701 68.5659L103.105 69.5042C102.876 69.5245 102.762 69.7275 102.848 69.9591L103.186 70.8607C103.272 71.0882 103.524 71.2547 103.753 71.2344L113.361 70.2677C113.581 70.2474 113.687 70.0444 113.602 69.821L113.255 68.9355C113.17 68.7121 112.921 68.5497 112.701 68.57V68.5659Z" fill="var(--sapContent_Illustrative_Color2)"/>
<path d="M105.433 75.7027L117.43 74.4029C117.65 74.3786 117.752 74.1755 117.666 73.948L117.316 73.0545C117.226 72.827 116.978 72.6646 116.757 72.6889L104.776 73.9521C104.548 73.9765 104.434 74.1836 104.52 74.4151L104.862 75.329C104.948 75.5605 105.204 75.727 105.433 75.7027Z" fill="var(--sapContent_Illustrative_Color2)"/>
<path d="M101.266 65.7394L101.6 66.6289C101.685 66.8563 101.938 67.0228 102.162 66.9985L114.078 65.8896C114.294 65.8693 114.4 65.6744 114.315 65.455L113.972 64.5859C113.886 64.3665 113.638 64.2041 113.422 64.2244L101.526 65.2966C101.298 65.3169 101.184 65.516 101.27 65.7394H101.266Z" fill="var(--sapContent_Illustrative_Color2)"/>
<path d="M107.135 80.2348L116.813 79.1057C117.033 79.0813 117.139 78.8742 117.05 78.6427L116.695 77.7329C116.605 77.5014 116.352 77.3389 116.132 77.3633L106.467 78.4599C106.239 78.4843 106.124 78.6955 106.21 78.931L106.557 79.8571C106.646 80.0927 106.903 80.2592 107.131 80.2348H107.135Z" fill="var(--sapContent_Illustrative_Color2)"/>
<path d="M108.823 84.7276L118.537 83.5172C118.762 83.4888 118.868 83.2776 118.774 83.0461L118.415 82.1241C118.325 81.8926 118.073 81.726 117.849 81.7504L108.15 82.9283C107.922 82.9567 107.808 83.172 107.894 83.4076L108.244 84.3458C108.334 84.5854 108.591 84.752 108.823 84.7235V84.7276Z" fill="var(--sapContent_Illustrative_Color2)"/>
<path d="M97.2607 96.373L116.413 103.107C116.413 103.107 117.217 103.543 117.5 101.726C117.715 100.359 117.872 98.562 116.825 95.9775L99.4054 89.9355L97.2607 91.3028V96.373Z" fill="var(--sapContent_Illustrative_Color3)"/>
<path d="M116.413 103.103C116.413 103.103 117.217 103.539 117.5 101.722C117.562 101.323 97.2607 94.6572 97.2607 94.6572V96.3689L116.413 103.103Z" fill="var(--sapContent_Illustrative_Color16)"/>
<path d="M117.229 97.1226C117.119 96.7578 116.99 96.3759 116.826 95.9736L99.4063 89.9316L99.2119 90.0578L99.6484 91.4728L117.229 97.1226Z" fill="var(--sapContent_Illustrative_Color31)"/>
<path d="M83.9976 62.0103L84.4647 62.4842C84.8329 62.8593 85.1466 63.2855 85.3955 63.7492L99.4058 89.9354C99.4058 89.9354 100.719 92.7961 97.2611 96.3728L70.3282 108.859C69.5986 109.197 68.7973 109.36 67.9892 109.33H67.9688L83.9976 62.0103Z" fill="var(--sapContent_Illustrative_Color3)"/>
<path d="M62.5748 107.949C63.5227 108.273 64.6036 108.078 65.7594 107.448C62.4589 104.543 62.7453 93.9965 66.6664 82.4616C70.4886 71.2132 76.476 62.8186 80.8404 62.1366C80.3255 61.1478 79.6504 60.4727 78.8082 60.1863C78.59 60.1113 78.3615 60.0704 78.1263 60.0499C78.0444 60.0465 77.966 60.0363 77.8842 60.0363C73.4653 59.992 66.9289 69.0651 62.7487 81.3671C59.4106 91.1938 58.5173 100.301 60.0926 104.924C60.396 105.654 60.7438 106.316 61.1291 106.902C61.5417 107.403 62.0224 107.758 62.5748 107.945V107.949Z" fill="var(--sapContent_Illustrative_Color3)"/>
<path d="M66.6625 82.4617C62.7414 93.9966 62.455 104.543 65.7556 107.448C69.9426 105.163 75.1151 97.1028 78.6304 86.7681C82.2515 76.1129 82.9982 66.3033 80.8365 62.1401C76.4721 62.8221 70.4847 71.2167 66.6625 82.4651V82.4617Z" fill="var(--sapContent_Illustrative_Color28)"/>
<path d="M77.9518 88.6775C78.1837 88.0501 78.4087 87.4125 78.6303 86.7681C82.2514 76.1129 82.9981 66.3033 80.8364 62.1401C78.8588 62.4504 75.6605 64.7622 72.6055 69.7471C72.6055 69.7471 80.0931 71.0428 77.9518 88.6809V88.6775Z" fill="var(--sapContent_Illustrative_Color29)"/>
<path d="M84.0148 81.3926L74.4028 99.973L67.9688 109.322H67.9892C68.7939 109.353 69.5952 109.193 70.3282 108.855L97.2716 96.3707L82.3818 96.6565C85.6486 88.3189 86.867 76.5825 86.867 76.5825L84.0148 81.3926Z" fill="var(--sapContent_Illustrative_Color16)"/>
<path d="M99.4056 89.9318L95.655 82.9215L86.4114 69.7432C86.4114 69.7432 86.55 74.5517 85.9102 78.2912L99.6443 91.4729C99.6681 90.5114 99.4022 89.9318 99.4022 89.9318H99.4056Z" fill="var(--sapContent_Illustrative_Color31)"/>
<path d="M80.8363 62.1366C80.3215 61.1478 79.6463 60.4727 78.8042 60.1863C78.5859 60.1113 78.3575 60.0704 78.1222 60.0499C78.0404 60.0465 77.962 60.0363 77.8801 60.0363C75.0501 60.009 71.3575 63.7187 67.9648 69.6174C67.9683 69.6174 70.7437 68.7548 72.602 69.7436C75.4115 65.3451 78.3779 62.5219 80.8329 62.1366H80.8363Z" fill="var(--sapContent_Illustrative_Color15)"/>
<path d="M84.5197 62.5968C83.6604 61.1886 80.9566 60.7931 79.6029 60.3328C79.1187 60.1691 78.6243 60.0805 78.1231 60.0498C78.355 60.0703 78.5834 60.1112 78.8051 60.1862C79.6472 60.4726 80.3258 61.1477 80.8372 62.1365C82.9955 66.2997 82.2522 76.1093 78.6312 86.7645C75.1192 97.0992 69.9434 105.16 65.7563 107.444C64.6004 108.075 63.5196 108.269 62.5717 107.945C62.0193 107.758 61.5351 107.403 61.126 106.902C61.1396 106.922 61.1533 106.946 61.1669 106.967C62.183 108.494 66.1961 109.623 67.9692 109.326C73.6803 108.372 79.6813 99.2438 83.374 88.3773C87.0019 77.7016 87.5338 67.5374 84.5197 62.5968Z" fill="var(--sapContent_Illustrative_Color31)"/>
<path d="M82.9466 61.3797C82.2723 61.0398 80.9185 60.687 79.6022 60.3328C79.1181 60.1691 78.6237 60.0805 78.1225 60.0498C78.3543 60.0703 78.5828 60.1112 78.8044 60.1862C79.6466 60.4726 80.3251 61.1477 80.8366 62.1365C82.9967 66.3128 82.113 78.95 76.8525 91.4928C84.5487 79.725 84.9088 65.9504 82.9466 61.3797Z" fill="var(--sapContent_Illustrative_Color31)"/>
</svg>