<svg width="160" height="156" viewBox="0 0 160 156" fill="none" xmlns="http://www.w3.org/2000/svg" id="sapIllus-Dialog-ResizeColumn">
<mask id="mask0_1663_6341" class="sapIllus_MaskTypeAlpha" maskUnits="userSpaceOnUse" x="0" y="0" width="156" height="156">
<path d="M77.9331 155.866C120.974 155.866 155.866 120.974 155.866 77.9331C155.866 34.8918 120.974 0 77.9331 0C34.8918 0 0 34.8918 0 77.9331C0 120.974 34.8918 155.866 77.9331 155.866Z" fill="var(--sapContent_Illustrative_Color7)"/>
</mask>
<g mask="url(#mask0_1663_6341)">
<path d="M77.9331 155.866C120.974 155.866 155.866 120.974 155.866 77.9331C155.866 34.8918 120.974 0 77.9331 0C34.8918 0 0 34.8918 0 77.9331C0 120.974 34.8918 155.866 77.9331 155.866Z" fill="var(--sapContent_Illustrative_Color7)"/>
<path d="M123.07 39.9204H32.796C27.326 39.9204 22.8916 44.3548 22.8916 49.8249V161.475C22.8916 166.945 27.326 171.379 32.796 171.379H123.07C128.54 171.379 132.975 166.945 132.975 161.475V49.8249C132.975 44.3548 128.54 39.9204 123.07 39.9204Z" fill="var(--sapContent_Illustrative_Color8)"/>
<path fill-rule="evenodd" clip-rule="evenodd" d="M33.04 50.5601C33.04 50.1099 33.1466 49.7456 33.2737 49.7456H108.238C108.368 49.7456 108.471 50.1099 108.471 50.5601V160.736C108.471 161.186 108.368 161.547 108.238 161.547H33.2737C33.1466 161.547 33.04 161.203 33.04 160.736V50.5601Z" fill="var(--sapContent_Illustrative_Color8)"/>
<path d="M108.471 60.2996H33.04V69.4308H108.471V60.2996Z" fill="var(--sapContent_Illustrative_Color18)"/>
<path d="M64.1865 52.9932H39.4322C38.2555 52.9932 37.3015 53.9471 37.3015 55.1239C37.3015 56.3007 38.2555 57.2546 39.4322 57.2546H64.1865C65.3633 57.2546 66.3172 56.3007 66.3172 55.1239C66.3172 53.9471 65.3633 52.9932 64.1865 52.9932Z" fill="var(--sapContent_Illustrative_Color14)"/>
<path d="M59.0143 63.75H38.5181C37.8462 63.75 37.3015 64.2947 37.3015 64.9666C37.3015 65.6385 37.8462 66.1832 38.5181 66.1832H59.0143C59.6862 66.1832 60.2309 65.6385 60.2309 64.9666C60.2309 64.2947 59.6862 63.75 59.0143 63.75Z" fill="var(--sapContent_Illustrative_Color14)"/>
<path d="M55.1584 72.675H38.5181C37.8462 72.675 37.3015 73.2197 37.3015 73.8916C37.3015 74.5635 37.8462 75.1082 38.5181 75.1082H55.1584C55.8303 75.1082 56.375 74.5635 56.375 73.8916C56.375 73.2197 55.8303 72.675 55.1584 72.675Z" fill="var(--sapContent_Illustrative_Color14)"/>
<path d="M57.7943 82.0088H38.5181C37.8462 82.0088 37.3015 82.5535 37.3015 83.2254C37.3015 83.8973 37.8462 84.4419 38.5181 84.4419H57.7943C58.4662 84.4419 59.0109 83.8973 59.0109 83.2254C59.0109 82.5535 58.4662 82.0088 57.7943 82.0088Z" fill="var(--sapContent_Illustrative_Color14)"/>
<path d="M47.2438 90.9375H38.5181C37.8462 90.9375 37.3015 91.4822 37.3015 92.1541C37.3015 92.826 37.8462 93.3707 38.5181 93.3707H47.2438C47.9157 93.3707 48.4603 92.826 48.4603 92.1541C48.4603 91.4822 47.9157 90.9375 47.2438 90.9375Z" fill="var(--sapContent_Illustrative_Color14)"/>
<path d="M47.2438 100.069H38.5181C37.8462 100.069 37.3015 100.613 37.3015 101.285C37.3015 101.957 37.8462 102.502 38.5181 102.502H47.2438C47.9157 102.502 48.4603 101.957 48.4603 101.285C48.4603 100.613 47.9157 100.069 47.2438 100.069Z" fill="var(--sapContent_Illustrative_Color14)"/>
<path d="M47.2438 118.331H38.5181C37.8462 118.331 37.3015 118.876 37.3015 119.548C37.3015 120.22 37.8462 120.764 38.5181 120.764H47.2438C47.9157 120.764 48.4603 120.22 48.4603 119.548C48.4603 118.876 47.9157 118.331 47.2438 118.331Z" fill="var(--sapContent_Illustrative_Color14)"/>
<path d="M47.2438 109.199H38.5181C37.8462 109.199 37.3015 109.744 37.3015 110.416C37.3015 111.088 37.8462 111.633 38.5181 111.633H47.2438C47.9157 111.633 48.4603 111.088 48.4603 110.416C48.4603 109.744 47.9157 109.199 47.2438 109.199Z" fill="var(--sapContent_Illustrative_Color14)"/>
<path d="M47.2438 127.462H38.5181C37.8462 127.462 37.3015 128.007 37.3015 128.679C37.3015 129.351 37.8462 129.895 38.5181 129.895H47.2438C47.9157 129.895 48.4603 129.351 48.4603 128.679C48.4603 128.007 47.9157 127.462 47.2438 127.462Z" fill="var(--sapContent_Illustrative_Color14)"/>
<path d="M101.643 63.5161H81.1464C80.4745 63.5161 79.9298 64.0608 79.9298 64.7327C79.9298 65.4046 80.4745 65.9493 81.1464 65.9493H101.643C102.315 65.9493 102.859 65.4046 102.859 64.7327C102.859 64.0608 102.315 63.5161 101.643 63.5161Z" fill="var(--sapContent_Illustrative_Color14)"/>
<path d="M97.7867 72.4448H81.1464C80.4745 72.4448 79.9298 72.9895 79.9298 73.6614C79.9298 74.3333 80.4745 74.878 81.1464 74.878H97.7867C98.4586 74.878 99.0032 74.3333 99.0032 73.6614C99.0032 72.9895 98.4586 72.4448 97.7867 72.4448Z" fill="var(--sapContent_Illustrative_Color14)"/>
<path d="M100.423 81.7786H81.1464C80.4745 81.7786 79.9298 82.3232 79.9298 82.9951C79.9298 83.667 80.4745 84.2117 81.1464 84.2117H100.423C101.094 84.2117 101.639 83.667 101.639 82.9951C101.639 82.3232 101.094 81.7786 100.423 81.7786Z" fill="var(--sapContent_Illustrative_Color14)"/>
<path d="M89.8721 90.707H81.1464C80.4745 90.707 79.9298 91.2517 79.9298 91.9236C79.9298 92.5955 80.4745 93.1402 81.1464 93.1402H89.8721C90.544 93.1402 91.0886 92.5955 91.0886 91.9236C91.0886 91.2517 90.544 90.707 89.8721 90.707Z" fill="var(--sapContent_Illustrative_Color14)"/>
<path d="M89.8721 99.8379H81.1464C80.4745 99.8379 79.9298 100.383 79.9298 101.054C79.9298 101.726 80.4745 102.271 81.1464 102.271H89.8721C90.544 102.271 91.0886 101.726 91.0886 101.054C91.0886 100.383 90.544 99.8379 89.8721 99.8379Z" fill="var(--sapContent_Illustrative_Color14)"/>
<path d="M89.8721 118.101H81.1464C80.4745 118.101 79.9298 118.645 79.9298 119.317C79.9298 119.989 80.4745 120.534 81.1464 120.534H89.8721C90.544 120.534 91.0886 119.989 91.0886 119.317C91.0886 118.645 90.544 118.101 89.8721 118.101Z" fill="var(--sapContent_Illustrative_Color14)"/>
<path d="M89.8721 108.969H81.1464C80.4745 108.969 79.9298 109.514 79.9298 110.186C79.9298 110.858 80.4745 111.403 81.1464 111.403H89.8721C90.544 111.403 91.0886 110.858 91.0886 110.186C91.0886 109.514 90.544 108.969 89.8721 108.969Z" fill="var(--sapContent_Illustrative_Color14)"/>
<path d="M89.8721 127.228H81.1464C80.4745 127.228 79.9298 127.773 79.9298 128.445C79.9298 129.117 80.4745 129.661 81.1464 129.661H89.8721C90.544 129.661 91.0886 129.117 91.0886 128.445C91.0886 127.773 90.544 127.228 89.8721 127.228Z" fill="var(--sapContent_Illustrative_Color14)"/>
</g>
<path d="M113 61H155.892C155.921 61 155.948 61.0084 155.968 61.0233C155.989 61.0382 156 61.0584 156 61.0795V140.921C156 140.942 155.989 140.962 155.968 140.977C155.948 140.992 155.921 141 155.892 141H113.108C113.079 141 113.052 140.992 113.032 140.977C113.011 140.962 113 140.942 113 140.921V61Z" fill="var(--sapContent_Illustrative_Color6)"/>
<path d="M160 58.896H115.828V138.405H160V58.896Z" fill="var(--sapContent_Illustrative_Color8)"/>
<path d="M115.828 58.896H159.904C159.929 58.896 159.954 58.9034 159.972 58.9167C159.99 58.93 160 58.948 160 58.9667V68.7119H115.828V58.896Z" fill="var(--sapContent_Illustrative_Color18)"/>
<path d="M139.59 62.2036H119.094C118.422 62.2036 117.877 62.7483 117.877 63.4202C117.877 64.0921 118.422 64.6368 119.094 64.6368H139.59C140.262 64.6368 140.807 64.0921 140.807 63.4202C140.807 62.7483 140.262 62.2036 139.59 62.2036Z" fill="var(--sapContent_Illustrative_Color14)"/>
<path d="M135.648 72.6384H119.008C118.336 72.6384 117.791 73.1831 117.791 73.855C117.791 74.5269 118.336 75.0716 119.008 75.0716H135.648C136.32 75.0716 136.865 74.5269 136.865 73.855C136.865 73.1831 136.32 72.6384 135.648 72.6384Z" fill="var(--sapContent_Illustrative_Color14)"/>
<path d="M138.284 81.9722H119.008C118.336 81.9722 117.791 82.5168 117.791 83.1887C117.791 83.8606 118.336 84.4053 119.008 84.4053H138.284C138.956 84.4053 139.501 83.8606 139.501 83.1887C139.501 82.5168 138.956 81.9722 138.284 81.9722Z" fill="var(--sapContent_Illustrative_Color14)"/>
<path d="M127.734 90.9004H119.008C118.336 90.9004 117.791 91.4451 117.791 92.117C117.791 92.7889 118.336 93.3335 119.008 93.3335H127.734C128.406 93.3335 128.95 92.7889 128.95 92.117C128.95 91.4451 128.406 90.9004 127.734 90.9004Z" fill="var(--sapContent_Illustrative_Color14)"/>
<path d="M127.734 100.031H119.008C118.336 100.031 117.791 100.576 117.791 101.248C117.791 101.92 118.336 102.465 119.008 102.465H127.734C128.406 102.465 128.95 101.92 128.95 101.248C128.95 100.576 128.406 100.031 127.734 100.031Z" fill="var(--sapContent_Illustrative_Color14)"/>
<path d="M127.734 118.294H119.008C118.336 118.294 117.791 118.839 117.791 119.511C117.791 120.182 118.336 120.727 119.008 120.727H127.734C128.406 120.727 128.95 120.182 128.95 119.511C128.95 118.839 128.406 118.294 127.734 118.294Z" fill="var(--sapContent_Illustrative_Color14)"/>
<path d="M127.734 109.163H119.008C118.336 109.163 117.791 109.708 117.791 110.38C117.791 111.052 118.336 111.596 119.008 111.596H127.734C128.406 111.596 128.95 111.052 128.95 110.38C128.95 109.708 128.406 109.163 127.734 109.163Z" fill="var(--sapContent_Illustrative_Color14)"/>
<path d="M127.734 127.422H119.008C118.336 127.422 117.791 127.966 117.791 128.638C117.791 129.31 118.336 129.855 119.008 129.855H127.734C128.406 129.855 128.95 129.31 128.95 128.638C128.95 127.966 128.406 127.422 127.734 127.422Z" fill="var(--sapContent_Illustrative_Color14)"/>
<path d="M146.745 43.0414C146.745 42.1662 144.205 41.4656 140.81 41.3065C140.616 37.9162 139.869 35.3953 138.993 35.3972C138.118 35.3992 137.39 37.9395 137.204 41.3472C133.8 41.5801 131.269 42.3408 131.28 43.218C131.292 44.0952 133.821 44.7957 137.216 44.9529C137.419 48.3432 138.157 50.8641 139.03 50.8622C139.904 50.8602 140.635 48.3199 140.822 44.9122C144.226 44.6793 146.755 43.9186 146.745 43.0414Z" fill="var(--sapContent_Illustrative_Color3)"/>
<path d="M157.055 53.7265C157.055 53.1625 155.418 52.711 153.23 52.6085C153.105 50.4236 152.624 48.799 152.06 48.8003C151.495 48.8015 151.026 50.4386 150.906 52.6347C148.712 52.7848 147.081 53.2751 147.089 53.8403C147.096 54.4056 148.726 54.8571 150.914 54.9584C151.045 57.1433 151.52 58.7678 152.083 58.7666C152.646 58.7653 153.118 57.1283 153.238 54.9322C155.432 54.7821 157.061 54.2918 157.055 53.7265Z" fill="var(--sapContent_Illustrative_Color3)"/>
</svg>
