<svg width="45" height="45" viewBox="0 0 45 45" fill="none" xmlns="http://www.w3.org/2000/svg" id="sapIllus-Dot-NoFilterResults">
<path d="M44.3172 31.6284L43.0451 31.041L21.2683 29.0431C21.2683 29.0431 12.0125 27.7392 8.63023 27.5559C4.43425 27.3277 0.2682 27.2098 0.0156556 28.0947C-0.236889 28.9795 2.54858 30.3058 9.6348 33.024C14.9569 35.0668 17.1939 35.5532 19.0047 34.8199L29.7481 31.6528L44.319 31.6284H44.3172Z" fill="var(--sapContent_Illustrative_Color21)"/>
<path d="M33.8093 27.9357L44.3171 31.6304C44.3171 31.6304 44.7585 31.8698 44.9138 30.8728C45.0317 30.1226 45.1177 29.1367 44.5434 27.7187L34.986 24.4038L33.8093 25.154V27.9357Z" fill="var(--sapContent_Illustrative_Color3)"/>
<path d="M44.317 31.6294C44.317 31.6294 44.7585 31.8688 44.9138 30.8717C44.9475 30.6529 33.8093 26.9956 33.8093 26.9956V27.9347L44.317 31.6294Z" fill="var(--sapContent_Illustrative_Color16)"/>
<path d="M44.7642 28.3477C44.7043 28.1475 44.6332 27.938 44.5434 27.7173L34.986 24.4023L34.8794 24.4716L35.1188 25.2479L44.7642 28.3477Z" fill="var(--sapContent_Illustrative_Color31)"/>
<path d="M26.5324 9.08203L26.7887 9.34206C26.9908 9.54784 27.1629 9.78168 27.2994 10.0361L34.9861 24.4032C34.9861 24.4032 35.7064 25.9728 33.8095 27.9351L19.0328 34.7857C18.6325 34.9709 18.1929 35.0607 17.7495 35.0439H17.7383L26.5324 9.08203Z" fill="var(--sapContent_Illustrative_Color3)"/>
<path d="M14.7789 34.2874C15.2989 34.4652 15.8919 34.3585 16.5261 34.0124C14.7153 32.4186 14.8724 26.6325 17.0237 20.3038C19.1208 14.1323 22.4057 9.5266 24.8002 9.15245C24.5177 8.60994 24.1473 8.23954 23.6853 8.0824C23.5655 8.04124 23.4402 8.0188 23.3111 8.00757C23.2662 8.0057 23.2232 8.00009 23.1783 8.00009C20.7539 7.97577 17.1677 12.9538 14.8743 19.7033C13.0428 25.0947 12.5527 30.0914 13.417 32.6281C13.5835 33.0284 13.7743 33.3914 13.9857 33.7131C14.212 33.9881 14.4758 34.1827 14.7789 34.2856V34.2874Z" fill="var(--sapContent_Illustrative_Color3)"/>
<path d="M17.0219 20.3038C14.8705 26.6324 14.7134 32.4186 16.5242 34.0124C18.8215 32.759 21.6593 28.3367 23.588 22.6665C25.5747 16.8205 25.9844 11.4384 24.7984 9.1543C22.4039 9.52844 19.1189 14.1342 17.0219 20.3057V20.3038Z" fill="var(--sapContent_Illustrative_Color28)"/>
<path d="M23.2155 23.7141C23.3427 23.3699 23.4662 23.0201 23.5878 22.6665C25.5744 16.8205 25.9841 11.4384 24.7981 9.1543C23.7131 9.32453 21.9584 10.5929 20.2822 13.3279C20.2822 13.3279 24.3903 14.0387 23.2155 23.716V23.7141Z" fill="var(--sapContent_Illustrative_Color29)"/>
<path d="M26.4789 18.9261L21.2683 29.9114L17.7383 35.0409H17.7495C18.191 35.0577 18.6306 34.9698 19.0328 34.7846L33.8152 27.9349L26.9793 27.6611C28.435 22.5662 28.5715 16.4242 28.5715 16.4242L26.4789 18.9261Z" fill="var(--sapContent_Illustrative_Color16)"/>
<path d="M34.9863 24.4022L32.9285 20.556L27.857 13.3257C27.857 13.3257 27.9331 15.9639 27.582 18.0156L35.1172 25.2478C35.1303 24.7202 34.9844 24.4022 34.9844 24.4022H34.9863Z" fill="var(--sapContent_Illustrative_Color31)"/>
<path d="M24.7982 9.15245C24.5157 8.60994 24.1453 8.23953 23.6833 8.08239C23.5636 8.04124 23.4382 8.01879 23.3091 8.00756C23.2642 8.00569 23.2212 8.00008 23.1763 8.00008C21.6236 7.98512 19.5977 10.0205 17.7363 13.2568C17.7382 13.2568 19.2609 12.7835 20.2805 13.326C21.8219 10.9128 23.4494 9.36384 24.7964 9.15245H24.7982Z" fill="var(--sapContent_Illustrative_Color15)"/>
<path d="M26.8188 9.40475C26.3473 8.63214 24.8639 8.41514 24.1212 8.16259C23.8556 8.0728 23.5843 8.02416 23.3093 8.00732C23.4365 8.01855 23.5619 8.041 23.6835 8.08215C24.1455 8.23929 24.5178 8.6097 24.7984 9.1522C25.9826 11.4364 25.5747 16.8184 23.5881 22.6644C21.6612 28.3346 18.8215 32.7569 16.5243 34.0103C15.8901 34.3564 15.2971 34.463 14.7771 34.2853C14.474 34.1824 14.2084 33.9879 13.9839 33.7129C13.9914 33.7241 13.9989 33.7372 14.0063 33.7484C14.5638 34.5865 16.7656 35.2057 17.7384 35.043C20.8718 34.5192 24.1642 29.5112 26.1902 23.5493C28.1806 17.692 28.4725 12.1154 26.8188 9.40475Z" fill="var(--sapContent_Illustrative_Color31)"/>
</svg>