<svg width="129" height="129" viewBox="0 0 129 129" fill="none" xmlns="http://www.w3.org/2000/svg" id="tnt-Spot-Radar-alternate">
<path fill-rule="evenodd" clip-rule="evenodd" d="M99.1209 119.819C99.4619 120.758 98.7662 121.751 97.7668 121.751H58.7272C57.6999 121.751 57.0028 120.706 57.3969 119.758L78.7212 68.4248C78.9635 67.8417 79.6987 67.6558 80.1889 68.0538C80.3219 68.1618 80.423 68.3039 80.4815 68.4649L99.1209 119.819Z" style="fill:var(--sapContent_Illustrative_Color8)"/>
<path fill-rule="evenodd" clip-rule="evenodd" d="M79.5901 68.9398L58.3204 120.141C58.1998 120.431 58.413 120.751 58.7272 120.751H97.7668C98.0724 120.751 98.2852 120.447 98.1809 120.16L79.5901 68.9398ZM77.7977 68.041C78.2964 66.8405 79.8099 66.458 80.8192 67.2773C81.093 67.4995 81.3012 67.7921 81.4215 68.1236L100.061 119.478C100.639 121.069 99.4599 122.751 97.7668 122.751H58.7272C56.9868 122.751 55.8057 120.981 56.4734 119.374L77.7977 68.041Z" style="fill:var(--sapContent_Illustrative_Color4)"/>
<path fill-rule="evenodd" clip-rule="evenodd" d="M89.2031 77.519C89.2031 83.1877 84.6081 87.7827 78.9394 87.7827C73.2717 87.7827 68.6768 83.1877 68.6768 77.519C68.6768 71.8513 73.2717 67.2563 78.9394 67.2563C84.6081 67.2563 89.2031 71.8513 89.2031 77.519Z" style="fill:var(--sapContent_Illustrative_Color2)"/>
<path fill-rule="evenodd" clip-rule="evenodd" d="M17.6746 25.1604C17.3736 25.6234 17.505 26.2428 17.968 26.5438L62.7037 55.6245C63.1667 55.9255 63.7861 55.7941 64.0871 55.3311C64.3881 54.868 64.2568 54.2487 63.7937 53.9476L19.058 24.867C18.595 24.5659 17.9756 24.6973 17.6746 25.1604Z" style="fill:var(--sapContent_Illustrative_Color4)"/>
<circle cx="5.43636" cy="5.43636" r="5.43636" transform="matrix(-0.930304 -0.366789 -0.366789 0.930304 25.5646 22.6416)" style="fill:var(--sapContent_Illustrative_Color9)"/>
<path fill-rule="evenodd" clip-rule="evenodd" d="M43.2706 63.4497C43.763 63.1996 43.9595 62.5977 43.7094 62.1053L27.9758 31.1204C27.7258 30.628 27.1239 30.4315 26.6315 30.6816C26.139 30.9316 25.9425 31.5335 26.1926 32.026L41.9262 63.0108C42.1762 63.5032 42.7781 63.6997 43.2706 63.4497Z" style="fill:var(--sapContent_Illustrative_Color4)"/>
<path fill-rule="evenodd" clip-rule="evenodd" d="M62.8917 33.1621C62.8596 33.7134 62.3866 34.1344 61.8353 34.1023L27.3369 32.0964C26.7856 32.0643 26.3646 31.5914 26.3967 31.04C26.4287 30.4887 26.9017 30.0677 27.453 30.0998L61.9514 32.1057C62.5027 32.1377 62.9237 32.6107 62.8917 33.1621Z" style="fill:var(--sapContent_Illustrative_Color4)"/>
<path fill-rule="evenodd" clip-rule="evenodd" d="M72.4887 8.7678C72.9417 8.08031 73.8812 7.91132 74.5284 8.42027C92.328 22.418 96.5563 48.2286 83.6603 67.7999C70.7643 87.3712 45.3791 93.6687 25.4944 82.8353C24.7714 82.4414 24.5561 81.5115 25.0091 80.824L72.4887 8.7678Z" style="fill:var(--sapContent_Illustrative_Color8)"/>
<path fill-rule="evenodd" clip-rule="evenodd" d="M24.1741 80.2738C23.4108 81.4322 23.7605 83.0294 25.016 83.7134C45.3657 94.8001 71.3187 88.3474 84.4954 68.3501C97.6721 48.3529 93.3624 21.9592 75.1466 7.63418C74.0227 6.75037 72.417 7.05915 71.6537 8.21755L24.1741 80.2738ZM25.9728 81.9572C25.7824 81.8534 25.7014 81.5908 25.8441 81.3742L73.3238 9.31798C73.4665 9.1014 73.7397 9.07222 73.9102 9.20629C91.2937 22.8768 95.4406 48.1044 82.8253 67.2497C70.21 86.3949 45.3926 92.5373 25.9728 81.9572Z" style="fill:var(--sapContent_Illustrative_Color4)"/>
</svg>
