<svg width="320" height="240" viewBox="0 0 320 240" fill="none" xmlns="http://www.w3.org/2000/svg" id="tnt-Scene-ChartArea-alternate">
<path d="M130.352 144.456H33.9433C26.384 144.456 19.1343 147.459 13.789 152.804C8.4438 158.149 5.44092 165.399 5.44092 172.958C5.44092 180.518 8.4438 187.767 13.789 193.113C19.1343 198.458 26.384 201.461 33.9433 201.461H130.392C137.952 201.461 145.201 198.458 150.547 193.113C155.892 187.767 158.895 180.518 158.895 172.958C158.895 165.399 155.892 158.149 150.547 152.804C145.201 147.459 137.952 144.456 130.392 144.456H130.352Z" style="fill:var(--sapContent_Illustrative_Color7)"/>
<path d="M165.474 172.749H69.0149C61.5493 172.889 54.4366 175.953 49.2063 181.282C43.9761 186.611 41.0459 193.78 41.0459 201.246C41.0459 208.713 43.9761 215.882 49.2063 221.211C54.4366 226.54 61.5493 229.604 69.0149 229.744H165.474C172.939 229.604 180.052 226.54 185.282 221.211C190.513 215.882 193.443 208.713 193.443 201.246C193.443 193.78 190.513 186.611 185.282 181.282C180.052 175.953 172.939 172.889 165.474 172.749Z" style="fill:var(--sapContent_Illustrative_Color7)"/>
<path d="M290.964 93.9308H194.515C190.728 93.8599 186.965 94.5446 183.445 95.9449C179.926 97.3452 176.721 99.433 174.017 102.086C171.314 104.739 169.166 107.905 167.7 111.398C166.235 114.89 165.479 118.64 165.479 122.428C165.479 126.216 166.235 129.966 167.7 133.459C169.166 136.951 171.314 140.117 174.017 142.77C176.721 145.423 179.926 147.511 183.445 148.911C186.965 150.312 190.728 150.997 194.515 150.926H290.964C294.752 150.997 298.515 150.312 302.034 148.911C305.554 147.511 308.759 145.423 311.463 142.77C314.166 140.117 316.313 136.951 317.779 133.459C319.245 129.966 320 126.216 320 122.428C320 118.64 319.245 114.89 317.779 111.398C316.313 107.905 314.166 104.739 311.463 102.086C308.759 99.433 305.554 97.3452 302.034 95.9449C298.515 94.5446 294.752 93.8599 290.964 93.9308Z" style="fill:var(--sapContent_Illustrative_Color7)"/>
<path d="M219.084 41.8975H37.767C27.7505 41.8975 18.1444 45.8765 11.0617 52.9591C3.979 60.0418 0 69.648 0 79.6644C0 89.6808 3.979 99.287 11.0617 106.37C18.1444 113.452 27.7505 117.431 37.767 117.431H219.084C229.101 117.431 238.707 113.452 245.789 106.37C252.872 99.287 256.851 89.6808 256.851 79.6644C256.851 69.648 252.872 60.0418 245.789 52.9591C238.707 45.8765 229.101 41.8975 219.084 41.8975Z" style="fill:var(--sapContent_Illustrative_Color7)"/>
<rect x="36.1851" y="76.2544" width="202.073" height="134.959" rx="12" transform="rotate(-8.29 36.1851 76.2544)" style="fill:var(--sapContent_Illustrative_Color6)"/>
<path d="M46.4057 82.3311C45.6094 76.8659 49.3942 71.79 54.8594 70.9937L225.887 46.0739C231.352 45.2776 236.428 49.0625 237.224 54.5276L252.963 162.544C253.759 168.009 249.975 173.085 244.509 173.881L73.4817 198.801C68.0165 199.597 62.9406 195.812 62.1443 190.347L46.4057 82.3311Z" style="fill:var(--sapContent_Illustrative_Color8)"/>
<path fill-rule="evenodd" clip-rule="evenodd" d="M54.4267 68.025L225.454 43.1053C232.559 42.0701 239.158 46.9904 240.193 54.095L255.932 162.111C256.967 169.216 252.046 175.815 244.942 176.85L73.914 201.769C66.8094 202.805 60.2107 197.884 59.1755 190.78L43.4369 82.7636C42.4017 75.6589 47.322 69.0602 54.4267 68.025ZM54.8592 70.9937C49.3941 71.79 45.6092 76.8659 46.4055 82.331L62.1441 190.347C62.9404 195.812 68.0163 199.597 73.4815 198.801L244.509 173.881C249.974 173.085 253.759 168.009 252.963 162.544L237.224 54.5276C236.428 49.0624 231.352 45.2776 225.887 46.0739L54.8592 70.9937Z" style="fill:var(--sapContent_Illustrative_Color4)"/>
<path d="M46.4057 82.3311C45.6094 76.8659 49.3942 71.79 54.8594 70.9937L225.887 46.0739C231.352 45.2776 236.428 49.0625 237.224 54.5276L239.289 68.6976L48.4704 96.5011L46.4057 82.3311Z" style="fill:var(--sapContent_Illustrative_Color5)"/>
<circle cx="63.0647" cy="82.4326" r="4.5" transform="rotate(-8.29 63.0647 82.4326)" style="fill:var(--sapContent_Illustrative_Color8)"/>
<circle cx="79.887" cy="79.9814" r="4.5" transform="rotate(-8.29 79.887 79.9814)" style="fill:var(--sapContent_Illustrative_Color8)"/>
<circle cx="96.7092" cy="77.5302" r="4.5" transform="rotate(-8.29 96.7092 77.5302)" style="fill:var(--sapContent_Illustrative_Color8)"/>
<path d="M258.613 26.3833C258.613 25.1945 255.162 24.2429 250.551 24.0267C250.287 19.4216 249.272 15.9974 248.083 16C246.894 16.0026 245.906 19.4532 245.653 24.0821C241.029 24.3984 237.591 25.4317 237.606 26.6232C237.622 27.8147 241.058 28.7663 245.668 28.9798C245.945 33.585 246.947 37.0092 248.133 37.0066C249.32 37.0039 250.314 33.5534 250.567 28.9245C255.191 28.6082 258.626 27.5748 258.613 26.3833Z" style="fill:var(--sapContent_Illustrative_Color3)"/>
<path d="M275.617 47.8971C275.617 47.1309 273.393 46.5176 270.422 46.3783C270.252 43.4106 269.598 41.2039 268.831 41.2056C268.065 41.2073 267.428 43.431 267.265 46.414C264.285 46.6179 262.069 47.2838 262.08 48.0516C262.09 48.8195 264.304 49.4327 267.275 49.5703C267.454 52.5381 268.099 54.7448 268.864 54.7431C269.628 54.7414 270.269 52.5177 270.432 49.5347C273.412 49.3308 275.626 48.6649 275.617 47.8971Z" style="fill:var(--sapContent_Illustrative_Color3)"/>
<rect x="77.104" y="107.33" width="140.112" height="72.8223" rx="4.63274" transform="rotate(-8.29 77.104 107.33)" style="fill:var(--sapContent_Illustrative_Color7)"/>
<rect x="80.7207" y="132.15" width="140.112" height="47.7394" rx="4.63274" transform="rotate(-8.29 80.7207 132.15)" style="fill:var(--sapContent_Illustrative_Color18)"/>
<rect x="84.2422" y="156.32" width="140.112" height="23.3146" rx="4.63274" transform="rotate(-8.29 84.2422 156.32)" style="fill:var(--sapContent_Illustrative_Color19)"/>
<path fill-rule="evenodd" clip-rule="evenodd" d="M223.208 88.543C224.106 89.9353 223.706 91.792 222.313 92.6903L192.1 112.182C191.468 112.59 190.781 112.907 190.06 113.123L127.857 131.76C127.699 131.807 127.547 131.874 127.405 131.959L79.3159 160.708C77.8938 161.559 76.0517 161.095 75.2015 159.673C74.3514 158.251 74.815 156.409 76.2371 155.559L124.326 126.809C124.894 126.47 125.502 126.202 126.135 126.012L188.338 107.375C188.518 107.321 188.69 107.242 188.848 107.14L219.061 87.6484C220.453 86.7502 222.31 87.1507 223.208 88.543Z" style="fill:var(--sapContent_Illustrative_Color3)"/>
<path fill-rule="evenodd" clip-rule="evenodd" d="M226.941 101.521C228.155 102.648 228.226 104.546 227.099 105.761L193.579 141.892C192.337 143.231 190.675 144.104 188.868 144.367L128.104 153.221C127.844 153.259 127.595 153.347 127.369 153.482L84.7723 178.845C83.3487 179.693 81.5074 179.226 80.6598 177.802C79.8121 176.379 80.279 174.538 81.7026 173.69L124.299 148.326C125.201 147.789 126.2 147.435 127.239 147.284L188.003 138.43C188.454 138.364 188.87 138.146 189.181 137.811L222.701 101.68C223.828 100.466 225.726 100.395 226.941 101.521Z" style="fill:var(--sapContent_Illustrative_Color14)"/>
</svg>
