<svg width="45" height="46" viewBox="0 0 45 46" fill="none" xmlns="http://www.w3.org/2000/svg" id="tnt-Dot-Tools-alternate">
<path fill-rule="evenodd" clip-rule="evenodd" d="M37.9473 4.17496C37.9473 3.69333 37.347 3.47293 37.0353 3.84014L3.89764 42.8837C3.61235 43.2198 3.85125 43.7359 4.29213 43.7359L37.4298 43.7359C37.7156 43.7359 37.9473 43.5043 37.9473 43.2185L37.9473 4.17496ZM30.2596 22.2946C30.5712 21.9274 31.1715 22.1478 31.1715 22.6294L31.1715 36.4427C31.1715 36.7285 30.9398 36.9602 30.6541 36.9602L18.9302 36.9602C18.4893 36.9602 18.2504 36.444 18.5357 36.1079L30.2596 22.2946Z" style="fill:var(--sapContent_Illustrative_Color8)"/>
<path fill-rule="evenodd" clip-rule="evenodd" d="M30.1715 35.9602L19.9727 35.9602L30.1715 23.9438L30.1715 35.9602ZM36.2729 3.19309L3.13522 42.2366C2.29857 43.2224 2.99918 44.736 4.29213 44.736L37.4298 44.736C38.2679 44.736 38.9473 44.0566 38.9473 43.2185L38.9473 4.17501C38.9473 2.76257 37.1869 2.11621 36.2729 3.19309ZM37.0353 3.84018C37.347 3.47298 37.9473 3.69338 37.9473 4.17501L37.9473 43.2185C37.9473 43.5043 37.7156 43.736 37.4298 43.736L4.29213 43.736C3.85125 43.736 3.61235 43.2198 3.89764 42.8837L37.0353 3.84018ZM31.1715 22.6295C31.1715 22.1478 30.5712 21.9274 30.2596 22.2946L18.5357 36.108C18.2504 36.4441 18.4893 36.9602 18.9302 36.9602L30.6541 36.9602C30.9398 36.9602 31.1715 36.7285 31.1715 36.4428L31.1715 22.6295Z" style="fill:var(--sapContent_Illustrative_Color4)"/>
<path fill-rule="evenodd" clip-rule="evenodd" d="M38.5273 11.8489C38.5273 12.125 38.3035 12.3489 38.0273 12.3489L34.9622 12.3489C34.686 12.3489 34.4622 12.125 34.4622 11.8489C34.4622 11.5727 34.686 11.3489 34.9622 11.3489L38.0273 11.3489C38.3035 11.3489 38.5273 11.5727 38.5273 11.8489Z" style="fill:var(--sapContent_Illustrative_Color4)"/>
<path fill-rule="evenodd" clip-rule="evenodd" d="M38.5273 15.8489C38.5273 16.125 38.3035 16.3489 38.0273 16.3489L34.9622 16.3489C34.686 16.3489 34.4622 16.125 34.4622 15.8489C34.4622 15.5727 34.686 15.3489 34.9622 15.3489L38.0273 15.3489C38.3035 15.3489 38.5273 15.5727 38.5273 15.8489Z" style="fill:var(--sapContent_Illustrative_Color4)"/>
<path fill-rule="evenodd" clip-rule="evenodd" d="M38.5273 19.8489C38.5273 20.125 38.3035 20.3489 38.0273 20.3489L32.1304 20.3489C31.8543 20.3489 31.6304 20.125 31.6304 19.8489C31.6304 19.5727 31.8543 19.3489 32.1304 19.3489L38.0273 19.3489C38.3035 19.3489 38.5273 19.5727 38.5273 19.8489Z" style="fill:var(--sapContent_Illustrative_Color4)"/>
<path fill-rule="evenodd" clip-rule="evenodd" d="M38.5273 23.8489C38.5273 24.125 38.3035 24.3489 38.0273 24.3489L34.9622 24.3489C34.686 24.3489 34.4622 24.125 34.4622 23.8489C34.4622 23.5727 34.686 23.3489 34.9622 23.3489L38.0273 23.3489C38.3035 23.3489 38.5273 23.5727 38.5273 23.8489Z" style="fill:var(--sapContent_Illustrative_Color4)"/>
<path fill-rule="evenodd" clip-rule="evenodd" d="M38.5273 27.8489C38.5273 28.125 38.3035 28.3489 38.0273 28.3489L34.9622 28.3489C34.686 28.3489 34.4622 28.125 34.4622 27.8489C34.4622 27.5727 34.686 27.3489 34.9622 27.3489L38.0273 27.3489C38.3035 27.3489 38.5273 27.5727 38.5273 27.8489Z" style="fill:var(--sapContent_Illustrative_Color4)"/>
<path fill-rule="evenodd" clip-rule="evenodd" d="M38.5273 31.8489C38.5273 32.125 38.3035 32.3489 38.0273 32.3489L34.9622 32.3489C34.686 32.3489 34.4622 32.125 34.4622 31.8489C34.4622 31.5727 34.686 31.3489 34.9622 31.3489L38.0273 31.3489C38.3035 31.3489 38.5273 31.5727 38.5273 31.8489Z" style="fill:var(--sapContent_Illustrative_Color4)"/>
<path fill-rule="evenodd" clip-rule="evenodd" d="M38.5273 35.8489C38.5273 36.125 38.3035 36.3489 38.0273 36.3489L34.9622 36.3489C34.686 36.3489 34.4622 36.125 34.4622 35.8489C34.4622 35.5727 34.686 35.3489 34.9622 35.3489L38.0273 35.3489C38.3035 35.3489 38.5273 35.5727 38.5273 35.8489Z" style="fill:var(--sapContent_Illustrative_Color4)"/>
<path fill-rule="evenodd" clip-rule="evenodd" d="M38.5273 39.8489C38.5273 40.125 38.3035 40.3489 38.0273 40.3489L32.1304 40.3489C31.8543 40.3489 31.6304 40.125 31.6304 39.8489C31.6304 39.5727 31.8543 39.3489 32.1304 39.3489L38.0273 39.3489C38.3035 39.3489 38.5273 39.5727 38.5273 39.8489Z" style="fill:var(--sapContent_Illustrative_Color4)"/>
<path d="M42.9134 43.4137C43.1164 43.8613 42.6395 44.3132 42.2034 44.0864L32.8962 39.2462C32.8452 39.2197 32.7989 39.1848 32.7594 39.1431L29.734 35.9499C29.5374 35.7425 29.5463 35.415 29.7537 35.2184L34.7286 30.5045C34.936 30.308 35.2635 30.3168 35.4601 30.5242L38.4856 33.7172C38.5251 33.759 38.5575 33.8071 38.5812 33.8595L42.9134 43.4137Z" style="fill:var(--sapContent_Illustrative_Color8)"/>
<path fill-rule="evenodd" clip-rule="evenodd" d="M41.426 42.555L37.7039 34.3462L35.0661 31.5623L30.7918 35.6124L33.4295 38.3964L41.426 42.555ZM42.2034 44.0864C42.6395 44.3132 43.1164 43.8613 42.9134 43.4137L38.5812 33.8595C38.5575 33.8071 38.5251 33.759 38.4856 33.7172L35.4601 30.5242C35.2635 30.3168 34.936 30.308 34.7286 30.5045L29.7537 35.2184C29.5463 35.415 29.5374 35.7425 29.734 35.9499L32.7594 39.1431C32.7989 39.1848 32.8452 39.2197 32.8962 39.2462L42.2034 44.0864Z" style="fill:var(--sapContent_Illustrative_Color4)"/>
<rect x="2.87305" y="7.58081" width="7.86132" height="8.6922" rx="2" transform="rotate(-43.4571 2.87305 7.58081)" style="fill:var(--sapContent_Illustrative_Color4)"/>
<path d="M12.8363 6.66906L7.12988 12.0762L32.8136 39.1818L38.52 33.7746L12.8363 6.66906Z" style="fill:var(--sapContent_Illustrative_Color3)"/>
<path fill-rule="evenodd" clip-rule="evenodd" d="M37.666 41.7268L41.5392 43.741C42.1933 44.0812 42.9086 43.4034 42.6042 42.7319L40.8013 38.7559L37.666 41.7268Z" style="fill:var(--sapContent_Illustrative_Color4)"/>
</svg>
