<svg width="160" height="160" viewBox="0 0 160 160" fill="none" xmlns="http://www.w3.org/2000/svg" id="tnt-Dialog-UnsuccessfulAuth-alternate">
<rect x="-1.94922" y="57.1826" width="137.79" height="92.0261" rx="8.18258" transform="rotate(-16.24 -1.94922 57.1826)" style="fill:var(--sapContent_Illustrative_Color6)"/>
<path d="M5.52806 60.3229C4.47487 56.7072 6.55217 52.9223 10.1678 51.8692L123.318 18.9105C126.933 17.8573 130.718 19.9346 131.771 23.5502L152.587 95.0123C153.64 98.6279 151.563 102.413 147.947 103.466L34.7975 136.425C31.1819 137.478 27.397 135.401 26.3438 131.785L5.52806 60.3229Z" style="fill:var(--sapContent_Illustrative_Color8)"/>
<path fill-rule="evenodd" clip-rule="evenodd" d="M9.46847 49.4688L122.618 16.5101C127.559 15.0708 132.732 17.9097 134.171 22.851L154.987 94.313C156.426 99.2543 153.587 104.427 148.646 105.866L35.4965 138.825C30.5552 140.264 25.3827 137.425 23.9434 132.484L3.1276 61.0219C1.68828 56.0807 4.52718 50.9082 9.46847 49.4688ZM10.1676 51.8691C6.55196 52.9223 4.47466 56.7071 5.52785 60.3228L26.3436 131.785C27.3968 135.401 31.1816 137.478 34.7973 136.425L147.947 103.466C151.563 102.413 153.64 98.6279 152.587 95.0122L131.771 23.5502C130.718 19.9345 126.933 17.8572 123.317 18.9104L10.1676 51.8691Z" style="fill:var(--sapContent_Illustrative_Color4)"/>
<path d="M84.1952 65.7973C85.8639 71.526 82.5724 77.5228 76.8436 79.1916C71.1147 80.8603 65.1178 77.569 63.4492 71.8403C61.7805 66.1116 65.0719 60.1148 70.8007 58.446C76.5296 56.7773 82.5265 60.0686 84.1952 65.7973Z" style="fill:var(--sapContent_Illustrative_Color2)"/>
<path fill-rule="evenodd" clip-rule="evenodd" d="M68.0342 77.9415C67.7666 75.0464 69.5884 72.3549 72.3942 71.5376L76.5195 70.336C79.3152 69.5216 82.286 70.8015 83.6219 73.3688C82.3538 76.0968 79.9593 78.2841 76.844 79.1915C73.743 80.0948 70.5634 79.5447 68.0342 77.9415ZM76.2618 64.07C76.826 66.0069 75.7132 68.0345 73.7762 68.5987C71.8392 69.1629 69.8117 68.0501 69.2475 66.1132C68.6833 64.1763 69.7961 62.1487 71.7331 61.5845C73.67 61.0203 75.6976 62.1331 76.2618 64.07Z" style="fill:var(--sapContent_Illustrative_Color8)"/>
<path fill-rule="evenodd" clip-rule="evenodd" d="M76.342 77.4696C81.1198 76.0779 83.8648 71.0766 82.4731 66.2989C81.0815 61.5212 76.0801 58.7763 71.3023 60.168C66.5245 61.5597 63.7795 66.561 65.1712 71.3387C66.5629 76.1164 71.5642 78.8613 76.342 77.4696ZM76.8436 79.1916C82.5724 77.5228 85.8639 71.526 84.1952 65.7973C82.5265 60.0686 76.5296 56.7773 70.8007 58.446C65.0719 60.1148 61.7805 66.1116 63.4492 71.8403C65.1178 77.569 71.1147 80.8603 76.8436 79.1916Z" style="fill:var(--sapContent_Illustrative_Color2)"/>
<rect x="37.6738" y="97.2041" width="84.0872" height="10.1804" rx="2.04565" transform="rotate(-16.24 37.6738 97.2041)" style="fill:var(--sapContent_Illustrative_Color18)"/>
<rect x="41.7539" y="111.209" width="84.0872" height="10.1804" rx="2.04565" transform="rotate(-16.24 41.7539 111.209)" style="fill:var(--sapContent_Illustrative_Color18)"/>
<circle cx="45.335" cy="100.274" r="1.65343" transform="rotate(-16.24 45.335 100.274)" style="fill:var(--sapContent_Illustrative_Color14)"/>
<circle cx="52.4385" cy="98.2054" r="1.65343" transform="rotate(-16.24 52.4385 98.2054)" style="fill:var(--sapContent_Illustrative_Color14)"/>
<circle cx="59.5401" cy="96.1365" r="1.65343" transform="rotate(-16.24 59.5401 96.1365)" style="fill:var(--sapContent_Illustrative_Color14)"/>
<circle cx="66.6436" cy="94.0674" r="1.65343" transform="rotate(-16.24 66.6436 94.0674)" style="fill:var(--sapContent_Illustrative_Color14)"/>
<circle cx="49.4151" cy="114.28" r="1.65343" transform="rotate(-16.24 49.4151 114.28)" style="fill:var(--sapContent_Illustrative_Color14)"/>
<circle cx="56.5186" cy="112.211" r="1.65343" transform="rotate(-16.24 56.5186 112.211)" style="fill:var(--sapContent_Illustrative_Color14)"/>
<circle cx="63.6202" cy="110.142" r="1.65343" transform="rotate(-16.24 63.6202 110.142)" style="fill:var(--sapContent_Illustrative_Color14)"/>
<circle cx="70.7237" cy="108.073" r="1.65343" transform="rotate(-16.24 70.7237 108.073)" style="fill:var(--sapContent_Illustrative_Color14)"/>
<circle cx="77.8272" cy="106.004" r="1.65343" transform="rotate(-16.24 77.8272 106.004)" style="fill:var(--sapContent_Illustrative_Color14)"/>
<circle cx="84.9307" cy="103.935" r="1.65343" transform="rotate(-16.24 84.9307 103.935)" style="fill:var(--sapContent_Illustrative_Color14)"/>
<path d="M5.52805 60.3229C4.47487 56.7072 6.55217 52.9223 10.1678 51.8692L123.318 18.9105C126.933 17.8573 130.718 19.9346 131.771 23.5502L134.502 32.9249L8.25875 69.6975L5.52805 60.3229Z" style="fill:var(--sapContent_Illustrative_Color5)"/>
<circle cx="16.7866" cy="58.8203" r="3.06847" transform="rotate(-16.24 16.7866 58.8203)" style="fill:var(--sapContent_Illustrative_Color8)"/>
<circle cx="27.9155" cy="55.5784" r="3.06847" transform="rotate(-16.24 27.9155 55.5784)" style="fill:var(--sapContent_Illustrative_Color8)"/>
<circle cx="39.0464" cy="52.3367" r="3.06847" transform="rotate(-16.24 39.0464 52.3367)" style="fill:var(--sapContent_Illustrative_Color8)"/>
<rect x="118.482" y="98.1311" width="28.7451" height="29.5217" style="fill:var(--sapContent_Illustrative_Color8)"/>
<path d="M132.2 84.8479C126.88 84.8479 121.679 86.4255 117.255 89.3812C112.831 92.3369 109.383 96.538 107.347 101.453C105.31 106.368 104.778 111.777 105.816 116.995C106.854 122.213 109.416 127.005 113.178 130.767C116.94 134.529 121.734 137.091 126.952 138.129C132.171 139.167 137.58 138.634 142.495 136.598C147.411 134.562 151.612 131.115 154.568 126.691C157.524 122.268 159.102 117.067 159.102 111.747C159.081 104.619 156.24 97.7897 151.199 92.7497C146.159 87.7097 139.329 84.869 132.2 84.8479ZM142.154 117.934C142.402 118.182 142.599 118.477 142.734 118.801C142.868 119.126 142.937 119.474 142.937 119.825C142.937 120.176 142.868 120.524 142.734 120.849C142.599 121.173 142.402 121.468 142.154 121.716C141.906 121.965 141.611 122.162 141.286 122.296C140.962 122.431 140.614 122.5 140.262 122.5C139.911 122.5 139.563 122.431 139.239 122.296C138.914 122.162 138.619 121.965 138.371 121.716L132.184 115.53L126.013 121.7C125.765 121.948 125.47 122.145 125.145 122.279C124.821 122.414 124.473 122.483 124.122 122.483C123.77 122.483 123.422 122.414 123.098 122.279C122.773 122.145 122.478 121.948 122.23 121.7C121.982 121.451 121.785 121.156 121.65 120.832C121.516 120.507 121.447 120.159 121.447 119.808C121.447 119.457 121.516 119.109 121.65 118.785C121.785 118.46 121.982 118.165 122.23 117.917L128.417 111.73L122.247 105.56C121.745 105.059 121.463 104.378 121.463 103.669C121.463 102.959 121.745 102.279 122.247 101.777C122.748 101.276 123.429 100.994 124.138 100.994C124.848 100.994 125.528 101.276 126.03 101.777L132.217 107.964L138.405 101.777C138.906 101.276 139.587 100.994 140.296 100.994C141.006 100.994 141.686 101.276 142.188 101.777C142.689 102.279 142.971 102.959 142.971 103.669C142.971 104.378 142.689 105.059 142.188 105.56L135.958 111.747L142.154 117.934Z" style="fill:var(--sapContent_Illustrative_Color11)"/>
</svg>
