<svg width="320" height="241" viewBox="0 0 320 241" fill="none" xmlns="http://www.w3.org/2000/svg" id="tnt-Scene-Calculator-alternate">
<path d="M130.352 145.328H33.9433C26.384 145.328 19.1343 148.331 13.789 153.676C8.4438 159.022 5.44092 166.271 5.44092 173.831C5.44092 181.39 8.4438 188.64 13.789 193.985C19.1343 199.33 26.384 202.333 33.9433 202.333H130.392C137.952 202.333 145.201 199.33 150.547 193.985C155.892 188.64 158.895 181.39 158.895 173.831C158.895 166.271 155.892 159.022 150.547 153.676C145.201 148.331 137.952 145.328 130.392 145.328H130.352Z" style="fill:var(--sapContent_Illustrative_Color7)"/>
<path d="M165.474 173.621H69.0146C61.549 173.761 54.4364 176.825 49.2061 182.154C43.9758 187.483 41.0457 194.652 41.0457 202.118C41.0457 209.585 43.9758 216.754 49.2061 222.083C54.4364 227.412 61.549 230.476 69.0146 230.616H165.474C172.939 230.476 180.052 227.412 185.282 222.083C190.512 216.754 193.443 209.585 193.443 202.118C193.443 194.652 190.512 187.483 185.282 182.154C180.052 176.825 172.939 173.761 165.474 173.621Z" style="fill:var(--sapContent_Illustrative_Color7)"/>
<path d="M290.964 94.8026H194.515C190.728 94.7317 186.965 95.4165 183.445 96.8167C179.925 98.217 176.72 100.305 174.017 102.958C171.314 105.611 169.166 108.777 167.7 112.27C166.234 115.762 165.479 119.512 165.479 123.3C165.479 127.088 166.234 130.838 167.7 134.331C169.166 137.823 171.314 140.989 174.017 143.642C176.72 146.295 179.925 148.383 183.445 149.783C186.965 151.184 190.728 151.868 194.515 151.797H290.964C294.751 151.868 298.515 151.184 302.034 149.783C305.554 148.383 308.759 146.295 311.462 143.642C314.166 140.989 316.313 137.823 317.779 134.331C319.245 130.838 320 127.088 320 123.3C320 119.512 319.245 115.762 317.779 112.27C316.313 108.777 314.166 105.611 311.462 102.958C308.759 100.305 305.554 98.217 302.034 96.8167C298.515 95.4165 294.751 94.7317 290.964 94.8026Z" style="fill:var(--sapContent_Illustrative_Color7)"/>
<path d="M219.084 42.7695H37.767C27.7505 42.7695 18.1444 46.7485 11.0617 53.8312C3.979 60.9139 0 70.52 0 80.5364C0 90.5529 3.979 100.159 11.0617 107.242C18.1444 114.324 27.7505 118.303 37.767 118.303H219.084C229.101 118.303 238.707 114.324 245.789 107.242C252.872 100.159 256.851 90.5529 256.851 80.5364C256.851 70.52 252.872 60.9139 245.789 53.8312C238.707 46.7485 229.101 42.7695 219.084 42.7695Z" style="fill:var(--sapContent_Illustrative_Color7)"/>
<path d="M52.3651 73.0853C50.5495 63.8737 56.5451 54.9344 65.7567 53.1188L157.946 34.9485C167.157 33.1329 176.097 39.1286 177.912 48.3402L205.7 189.323C207.515 198.535 201.52 207.474 192.308 209.289L100.119 227.46C90.9075 229.275 81.9682 223.28 80.1526 214.068L52.3651 73.0853Z" style="fill:var(--sapContent_Illustrative_Color6)"/>
<path d="M59.5298 57.3252C58.1414 50.281 62.7263 43.4451 69.7705 42.0567L169.808 22.3394C176.852 20.951 183.688 25.5359 185.077 32.5801L214.411 181.412C215.8 188.456 211.215 195.292 204.171 196.68L104.133 216.398C97.0887 217.786 90.2527 213.201 88.8643 206.157L59.5298 57.3252Z" style="fill:var(--sapContent_Illustrative_Color8)"/>
<path fill-rule="evenodd" clip-rule="evenodd" d="M69.1904 39.1133L169.228 19.396C177.898 17.6872 186.311 23.3302 188.02 31.9999L217.355 180.832C219.064 189.501 213.421 197.915 204.751 199.624L104.713 219.341C96.0433 221.05 87.6298 215.407 85.921 206.737L56.5865 57.9053C54.8777 49.2356 60.5207 40.8221 69.1904 39.1133ZM69.7706 42.0567C62.7264 43.4451 58.1415 50.281 59.5299 57.3252L88.8644 206.157C90.2528 213.201 97.0888 217.786 104.133 216.398L204.171 196.68C211.215 195.292 215.8 188.456 214.411 181.412L185.077 32.5801C183.689 25.5359 176.853 20.951 169.808 22.3394L69.7706 42.0567Z" style="fill:var(--sapContent_Illustrative_Color4)"/>
<path d="M59.5298 57.3252C58.1414 50.281 62.7263 43.4451 69.7705 42.0567L169.808 22.3394C176.852 20.951 183.688 25.5359 185.077 32.5801L194.547 80.6298L69.0003 105.375L59.5298 57.3252Z" style="fill:var(--sapContent_Illustrative_Color6)"/>
<path d="M71.88 59.3044C71.2392 56.0532 73.3553 52.8982 76.6065 52.2574L167.353 34.3713C170.604 33.7305 173.76 35.8466 174.4 39.0978L179.104 62.96C179.744 66.2111 177.628 69.3662 174.377 70.007L83.6302 87.8931C80.3791 88.5339 77.224 86.4177 76.5832 83.1666L71.88 59.3044Z" style="fill:var(--sapContent_Illustrative_Color8)"/>
<path fill-rule="evenodd" clip-rule="evenodd" d="M76.0264 49.314L166.773 31.4279C171.65 30.4667 176.383 33.6409 177.344 38.5176L182.047 62.3798C183.008 67.2566 179.834 71.9891 174.957 72.9503L84.2104 90.8364C79.3337 91.7976 74.6011 88.6234 73.6399 83.7467L68.9367 59.8845C67.9755 55.0078 71.1497 50.2752 76.0264 49.314ZM76.6065 52.2574C73.3554 52.8982 71.2393 56.0532 71.8801 59.3044L76.5833 83.1666C77.2241 86.4177 80.3791 88.5338 83.6303 87.893L174.377 70.007C177.628 69.3662 179.744 66.2111 179.104 62.9599L174.4 39.0977C173.76 35.8466 170.605 33.7305 167.353 34.3713L76.6065 52.2574Z" style="fill:var(--sapContent_Illustrative_Color4)"/>
<path d="M83.536 118.443C82.8952 115.192 85.0113 112.037 88.2625 111.396L105.26 108.046C108.511 107.405 111.666 109.521 112.307 112.772L113.59 119.281C114.231 122.532 112.114 125.687 108.863 126.328L91.8658 129.678C88.6147 130.319 85.4596 128.203 84.8188 124.952L83.536 118.443Z" style="fill:var(--sapContent_Illustrative_Color5)"/>
<path d="M88.463 143.44C87.8222 140.189 89.9383 137.034 93.1895 136.393L110.187 133.043C113.438 132.402 116.593 134.518 117.234 137.77L118.517 144.278C119.158 147.529 117.041 150.684 113.79 151.325L96.7928 154.675C93.5417 155.316 90.3866 153.2 89.7458 149.949L88.463 143.44Z" style="fill:var(--sapContent_Illustrative_Color5)"/>
<path d="M93.39 168.438C92.7492 165.187 94.8653 162.032 98.1165 161.391L115.114 158.041C118.365 157.4 121.52 159.517 122.161 162.768L123.444 169.276C124.085 172.527 121.968 175.682 118.717 176.323L101.72 179.673C98.4687 180.314 95.3136 178.198 94.6728 174.947L93.39 168.438Z" style="fill:var(--sapContent_Illustrative_Color5)"/>
<path d="M120.41 111.175C119.769 107.924 121.885 104.769 125.136 104.128L142.134 100.778C145.385 100.137 148.54 102.253 149.181 105.505L150.463 112.013C151.104 115.264 148.988 118.419 145.737 119.06L128.739 122.41C125.488 123.051 122.333 120.935 121.692 117.684L120.41 111.175Z" style="fill:var(--sapContent_Illustrative_Color5)"/>
<path d="M125.337 136.173C124.696 132.921 126.812 129.766 130.063 129.126L147.061 125.775C150.312 125.135 153.467 127.251 154.108 130.502L155.39 137.01C156.031 140.262 153.915 143.417 150.664 144.057L133.666 147.408C130.415 148.048 127.26 145.932 126.619 142.681L125.337 136.173Z" style="fill:var(--sapContent_Illustrative_Color5)"/>
<path d="M130.264 161.171C129.623 157.92 131.739 154.765 134.99 154.124L151.988 150.774C155.239 150.133 158.394 152.249 159.035 155.5L160.317 162.009C160.958 165.26 158.842 168.415 155.591 169.056L138.593 172.406C135.342 173.047 132.187 170.93 131.546 167.679L130.264 161.171Z" style="fill:var(--sapContent_Illustrative_Color5)"/>
<path d="M135.191 186.169C134.55 182.918 136.666 179.762 139.917 179.122L156.915 175.772C160.166 175.131 163.321 177.247 163.962 180.498L165.245 187.006C165.885 190.258 163.769 193.413 160.518 194.054L143.521 197.404C140.269 198.044 137.114 195.928 136.474 192.677L135.191 186.169Z" style="fill:var(--sapContent_Illustrative_Color5)"/>
<path d="M157.286 103.907C156.645 100.656 158.761 97.5008 162.012 96.86L179.01 93.5098C182.261 92.869 185.416 94.9851 186.057 98.2363L187.34 104.745C187.981 107.996 185.864 111.151 182.613 111.792L165.616 115.142C162.365 115.783 159.21 113.667 158.569 110.415L157.286 103.907Z" style="fill:var(--sapContent_Illustrative_Color5)"/>
<path d="M162.213 128.904C161.572 125.653 163.688 122.498 166.939 121.857L183.937 118.507C187.188 117.866 190.343 119.982 190.984 123.234L192.267 129.742C192.908 132.993 190.791 136.148 187.54 136.789L170.543 140.139C167.292 140.78 164.137 138.664 163.496 135.413L162.213 128.904Z" style="fill:var(--sapContent_Illustrative_Color5)"/>
<path d="M167.14 153.902C166.499 150.651 168.615 147.496 171.866 146.855L188.864 143.505C192.115 142.864 195.27 144.981 195.911 148.232L197.194 154.74C197.835 157.991 195.718 161.146 192.467 161.787L175.47 165.137C172.219 165.778 169.064 163.662 168.423 160.411L167.14 153.902Z" style="fill:var(--sapContent_Illustrative_Color5)"/>
<path d="M98.316 193.437C97.6752 190.186 99.7913 187.03 103.043 186.39L120.04 183.04C123.291 182.399 126.446 184.515 127.087 187.766L128.37 194.274C129.011 197.526 126.894 200.681 123.643 201.321L106.646 204.672C103.395 205.312 100.24 203.196 99.5988 199.945L98.316 193.437Z" style="fill:var(--sapContent_Illustrative_Color9)"/>
<path d="M172.066 178.901C171.425 175.65 173.542 172.494 176.793 171.854L193.79 168.503C197.041 167.863 200.196 169.979 200.837 173.23L202.12 179.738C202.761 182.99 200.645 186.145 197.394 186.785L180.396 190.136C177.145 190.776 173.99 188.66 173.349 185.409L172.066 178.901Z" style="fill:var(--sapContent_Illustrative_Color9)"/>
<path fill-rule="evenodd" clip-rule="evenodd" d="M114.973 50.85C115.785 50.6898 116.574 51.2188 116.734 52.0316L118.633 61.6658L126.711 60.0736L124.813 50.4394C124.652 49.6266 125.181 48.8378 125.994 48.6776C126.807 48.5174 127.596 49.0465 127.756 49.8592L131.85 70.6297C132.01 71.4425 131.481 72.2313 130.668 72.3915C129.855 72.5517 129.067 72.0227 128.906 71.2099L127.292 63.017L117.742 64.8993C116.929 65.0595 116.14 64.5304 115.98 63.7176L113.791 52.6117C113.631 51.7989 114.16 51.0102 114.973 50.85Z" style="fill:var(--sapContent_Illustrative_Color4)"/>
<path fill-rule="evenodd" clip-rule="evenodd" d="M132.661 48.8924C132.501 48.0796 133.03 47.2908 133.843 47.1306L144.418 45.0463C145.231 44.8861 146.02 45.4151 146.18 46.2279L150.274 66.9984C150.434 67.8112 149.905 68.5999 149.092 68.7601C148.28 68.9203 147.491 68.3913 147.331 67.5785L143.527 48.2797L134.423 50.074C133.61 50.2342 132.822 49.7052 132.661 48.8924Z" style="fill:var(--sapContent_Illustrative_Color4)"/>
<path fill-rule="evenodd" clip-rule="evenodd" d="M151.085 45.261C150.925 44.4482 151.454 43.6595 152.267 43.4993L162.842 41.4149C163.655 41.2547 164.444 41.7837 164.604 42.5965L166.651 52.9818C166.811 53.7946 166.282 54.5833 165.469 54.7435L156.366 56.5379L157.847 64.0529L166.951 62.2585C167.763 62.0983 168.552 62.6273 168.712 63.4401C168.873 64.2529 168.344 65.0417 167.531 65.2019L156.955 67.2863C156.565 67.3632 156.16 67.282 155.83 67.0604C155.499 66.8388 155.27 66.495 155.193 66.1047L153.132 55.6463C152.972 54.8335 153.501 54.0448 154.314 53.8846L163.418 52.0902L161.951 44.6483L152.847 46.4427C152.034 46.6029 151.246 46.0738 151.085 45.261Z" style="fill:var(--sapContent_Illustrative_Color4)"/>
<path d="M289.862 64.2548C289.862 82.2068 275.309 96.7597 257.357 96.7597C239.405 96.7597 224.853 82.2068 224.853 64.2548C224.853 46.3028 239.405 31.7499 257.357 31.7499C275.309 31.7499 289.862 46.3028 289.862 64.2548Z" style="fill:var(--sapContent_Illustrative_Color15)"/>
<path d="M294.239 61.4091C294.239 79.2852 279.748 93.7765 261.872 93.7765C243.996 93.7765 229.505 79.2852 229.505 61.4091C229.505 43.5331 243.996 29.0417 261.872 29.0417C279.748 29.0417 294.239 43.5331 294.239 61.4091Z" style="fill:var(--sapContent_Illustrative_Color3)"/>
<path d="M283.194 61.4092C283.194 73.1852 273.648 82.7316 261.872 82.7316C250.096 82.7316 240.55 73.1852 240.55 61.4092C240.55 49.6332 250.096 40.0869 261.872 40.0869C273.648 40.0869 283.194 49.6332 283.194 61.4092Z" style="fill:var(--sapContent_Illustrative_Color15)"/>
<path d="M254.158 43.0867C254.158 41.8979 250.707 40.9463 246.096 40.7301C245.832 36.1249 244.817 32.7007 243.628 32.7034C242.439 32.706 241.451 36.1566 241.198 40.7855C236.573 41.1018 233.136 42.1351 233.151 43.3266C233.167 44.5181 236.602 45.4697 241.213 45.6832C241.49 50.2884 242.492 53.7126 243.678 53.7099C244.865 53.7073 245.859 50.2567 246.112 45.6279C250.736 45.3115 254.171 44.2782 254.158 43.0867Z" style="fill:var(--sapContent_Illustrative_Color8)"/>
</svg>
