<svg width="129" height="129" viewBox="0 0 129 129" fill="none" xmlns="http://www.w3.org/2000/svg" id="tnt-Spot-Success-alternate">
<path d="M105.377 85.7742C105.377 108.347 87.0777 126.647 64.5044 126.647C41.9311 126.647 23.6318 108.347 23.6318 85.7742C23.6318 63.2009 41.9311 44.9016 64.5044 44.9016C87.0777 44.9016 105.377 63.2009 105.377 85.7742Z" style="fill:var(--sapContent_Illustrative_Color8)"/>
<path fill-rule="evenodd" clip-rule="evenodd" d="M107.377 85.7742C107.377 109.452 88.1823 128.647 64.5044 128.647C40.8265 128.647 21.6318 109.452 21.6318 85.7742C21.6318 62.0963 40.8265 42.9016 64.5044 42.9016C88.1823 42.9016 107.377 62.0963 107.377 85.7742ZM64.5044 126.647C87.0777 126.647 105.377 108.347 105.377 85.7742C105.377 63.2009 87.0777 44.9016 64.5044 44.9016C41.9311 44.9016 23.6318 63.2009 23.6318 85.7742C23.6318 108.347 41.9311 126.647 64.5044 126.647Z" style="fill:var(--sapContent_Illustrative_Color4)"/>
<path fill-rule="evenodd" clip-rule="evenodd" d="M103.632 97.6265C104.767 93.8752 105.377 89.8959 105.377 85.7742C105.377 85.5592 105.375 85.3446 105.372 85.1304H41.4248C37.9741 85.1304 35.1768 87.9277 35.1768 91.3785C35.1768 94.8292 37.9741 97.6265 41.4248 97.6265H103.632ZM100.423 105.294H28.5853C29.458 106.896 30.4349 108.434 31.5068 109.898H97.502C98.5739 108.434 99.5508 106.896 100.423 105.294ZM93.0211 115.055H35.9877C43.3518 122.228 53.4121 126.647 64.5044 126.647C75.5967 126.647 85.657 122.228 93.0211 115.055ZM102.709 71.2173C103.592 73.5351 104.271 75.954 104.723 78.4519H24.2859C24.7377 75.954 25.4165 73.5351 26.3001 71.2173H102.709ZM86.3748 51.239C91.6346 54.5769 96.0797 59.0832 99.3451 64.3929L29.6637 64.3929C32.9291 59.0832 37.3742 54.5769 42.634 51.239L86.3748 51.239Z" style="fill:var(--sapContent_Illustrative_Color6)"/>
<circle cx="54.1402" cy="77.5999" r="3.61065" style="fill:var(--sapContent_Illustrative_Color8)"/>
<circle cx="80.3165" cy="110.369" r="3.61065" style="fill:var(--sapContent_Illustrative_Color8)"/>
<ellipse cx="76.7055" cy="64.7218" rx="9.45305" ry="5.16536" style="fill:var(--sapContent_Illustrative_Color8)"/>
<path fill-rule="evenodd" clip-rule="evenodd" d="M55.9441 120.799C78.5174 120.799 96.8167 102.5 96.8167 79.9265C96.8167 67.7617 91.5023 56.8381 83.0685 49.3508C96.3103 56.1134 105.377 69.8849 105.377 85.774C105.377 108.347 87.0776 126.647 64.5043 126.647C54.0958 126.647 44.596 122.756 37.3799 116.35C42.9504 119.195 49.2599 120.799 55.9441 120.799Z" style="fill:var(--sapContent_Illustrative_Color5)"/>
<ellipse cx="64.5045" cy="56.9453" rx="5.00567" ry="3.21853" style="fill:var(--sapContent_Illustrative_Color5)"/>
<path fill-rule="evenodd" clip-rule="evenodd" d="M64.9082 2.27783C66.0128 2.27783 66.9082 3.17326 66.9082 4.27783L66.9082 54.9455C66.9082 56.0501 66.0128 56.9455 64.9082 56.9455C63.8036 56.9455 62.9082 56.0501 62.9082 54.9455L62.9082 4.27783C62.9082 3.17326 63.8036 2.27783 64.9082 2.27783Z" style="fill:var(--sapContent_Illustrative_Color4)"/>
<path fill-rule="evenodd" clip-rule="evenodd" d="M66.7254 4.68161L99.852 21.6721C99.9887 21.7432 99.9822 21.9401 99.841 22.0014L66.7134 36.2525C66.5941 36.3039 66.4607 36.2164 66.4607 36.0862V4.84351C66.4607 4.70677 66.6051 4.61925 66.7254 4.68161Z" style="fill:var(--sapContent_Illustrative_Color3)"/>
</svg>
