<svg width="320" height="240" viewBox="0 0 320 240" fill="none" xmlns="http://www.w3.org/2000/svg" id="tnt-Scene-EmptyContentPane-alternate">
<path d="M130.352 144.456H33.9433C26.384 144.456 19.1343 147.459 13.789 152.804C8.4438 158.15 5.44092 165.399 5.44092 172.959C5.44092 180.518 8.4438 187.768 13.789 193.113C19.1343 198.458 26.384 201.461 33.9433 201.461H130.392C137.952 201.461 145.201 198.458 150.547 193.113C155.892 187.768 158.895 180.518 158.895 172.959C158.895 165.399 155.892 158.15 150.547 152.804C145.201 147.459 137.952 144.456 130.392 144.456H130.352Z" style="fill:var(--sapContent_Illustrative_Color7)"/>
<path d="M165.474 172.749H69.0146C61.549 172.889 54.4364 175.953 49.2061 181.282C43.9758 186.611 41.0457 193.779 41.0457 201.246C41.0457 208.713 43.9758 215.882 49.2061 221.211C54.4364 226.54 61.549 229.604 69.0146 229.744H165.474C172.939 229.604 180.052 226.54 185.282 221.211C190.512 215.882 193.443 208.713 193.443 201.246C193.443 193.779 190.512 186.611 185.282 181.282C180.052 175.953 172.939 172.889 165.474 172.749V172.749Z" style="fill:var(--sapContent_Illustrative_Color7)"/>
<path d="M290.964 93.9306H194.515C190.728 93.8597 186.965 94.5444 183.445 95.9447C179.925 97.345 176.72 99.4328 174.017 102.086C171.314 104.739 169.166 107.905 167.7 111.397C166.234 114.89 165.479 118.64 165.479 122.428C165.479 126.216 166.234 129.966 167.7 133.458C169.166 136.951 171.314 140.117 174.017 142.77C176.72 145.423 179.925 147.511 183.445 148.911C186.965 150.312 190.728 150.996 194.515 150.925H290.964C294.751 150.996 298.515 150.312 302.034 148.911C305.554 147.511 308.759 145.423 311.462 142.77C314.166 140.117 316.313 136.951 317.779 133.458C319.245 129.966 320 126.216 320 122.428C320 118.64 319.245 114.89 317.779 111.397C316.313 107.905 314.166 104.739 311.462 102.086C308.759 99.4328 305.554 97.345 302.034 95.9447C298.515 94.5444 294.751 93.8597 290.964 93.9306V93.9306Z" style="fill:var(--sapContent_Illustrative_Color7)"/>
<path d="M219.084 41.8974H37.767C27.7505 41.8974 18.1443 45.8764 11.0617 52.9591C3.979 60.0418 0 69.648 0 79.6644V79.6644C0 89.6808 3.979 99.287 11.0617 106.37C18.1443 113.452 27.7505 117.431 37.767 117.431H219.084C229.101 117.431 238.707 113.452 245.789 106.37C252.872 99.287 256.851 89.6808 256.851 79.6644V79.6644C256.851 69.648 252.872 60.0418 245.789 52.9591C238.707 45.8764 229.101 41.8974 219.084 41.8974V41.8974Z" style="fill:var(--sapContent_Illustrative_Color7)"/>
<path d="M72 84.4386C72 77.0872 77.9595 71.1277 85.3109 71.1277H140.659C143.737 71.1277 146.72 72.1946 149.1 74.1468L200.178 116.042C203.261 118.57 205.048 122.347 205.048 126.334V187.538C205.048 194.89 199.088 200.849 191.737 200.849H85.3109C77.9595 200.849 72 194.89 72 187.538V84.4386Z" style="fill:var(--sapContent_Illustrative_Color6)"/>
<path d="M82.4161 76.5654C82.4161 70.932 86.9829 66.3652 92.6164 66.3652H155.456C158.054 66.3652 160.554 67.3563 162.446 69.1363L205.785 109.911C207.834 111.839 208.996 114.527 208.996 117.34V179.677C208.996 185.31 204.429 189.877 198.796 189.877H92.6164C86.9829 189.877 82.4161 185.31 82.4161 179.677V76.5654Z" style="fill:var(--sapContent_Illustrative_Color8)"/>
<path fill-rule="evenodd" clip-rule="evenodd" d="M198.796 192.877H92.6164C85.3261 192.877 79.4161 186.967 79.4161 179.677V76.5654C79.4161 69.2752 85.3261 63.3652 92.6164 63.3652H155.456C158.818 63.3652 162.053 64.6478 164.501 66.9513L207.841 107.726C210.493 110.221 211.996 113.7 211.996 117.34V179.677C211.996 186.967 206.086 192.877 198.796 192.877ZM92.6164 66.3652C86.9829 66.3652 82.4161 70.932 82.4161 76.5654V179.677C82.4161 185.31 86.9829 189.877 92.6164 189.877H198.796C204.429 189.877 208.996 185.31 208.996 179.677V117.34C208.996 114.527 207.834 111.839 205.785 109.911L162.446 69.1363C160.554 67.3563 158.054 66.3652 155.456 66.3652H92.6164Z" style="fill:var(--sapContent_Illustrative_Color4)"/>
<path d="M159 108.928C159 111.379 160.987 113.365 163.437 113.365H206.76C207.564 113.365 207.954 112.382 207.368 111.831L160.495 67.7707C159.929 67.2382 159 67.6399 159 68.4173V108.928Z" style="fill:var(--sapContent_Illustrative_Color8)"/>
<path fill-rule="evenodd" clip-rule="evenodd" d="M206.76 116.365H163.437C159.33 116.365 156 113.036 156 108.928V68.4173C156 65.0116 160.068 63.2523 162.55 65.5848L209.423 109.645C211.989 112.057 210.282 116.365 206.76 116.365ZM160.495 67.7707C159.929 67.2382 159 67.6399 159 68.4173V108.928C159 111.379 160.987 113.365 163.437 113.365H206.76C207.564 113.365 207.954 112.382 207.368 111.831L160.495 67.7707Z" style="fill:var(--sapContent_Illustrative_Color4)"/>
<path d="M219.155 20.8638C219.449 21.237 219.637 21.6825 219.698 22.1533C219.76 22.6241 219.694 23.1029 219.507 23.5393L215.322 34.0345C214.631 35.7707 212.824 36.133 211.463 35.5908C210.898 35.3892 210.414 35.0097 210.083 34.5093C209.753 34.0089 209.593 33.4146 209.629 32.8158C209.655 32.527 209.725 32.2438 209.835 31.9758L214.02 21.4806C214.194 21.0163 214.491 20.6078 214.878 20.2982C215.265 19.9887 215.729 19.7896 216.22 19.722C216.766 19.6466 217.322 19.7119 217.836 19.9117C218.35 20.1116 218.804 20.4393 219.155 20.8638V20.8638Z" style="fill:var(--sapContent_Illustrative_Color5)"/>
<path d="M253.921 71.4586C253.961 71.796 253.931 72.1382 253.832 72.4633C253.733 72.7884 253.568 73.0894 253.346 73.3468C253.124 73.6043 252.851 73.8127 252.544 73.9587C252.237 74.1048 251.903 74.1852 251.564 74.1949L240.588 75.0123C240.193 75.0404 239.797 74.9895 239.422 74.8627C239.047 74.7359 238.701 74.5356 238.405 74.2737C238.108 74.0117 237.867 73.6933 237.695 73.3369C237.522 72.9806 237.423 72.5936 237.402 72.1984C237.389 72.0357 237.389 71.8722 237.403 71.7095C237.444 71.1077 237.709 70.5432 238.146 70.1274C238.583 69.7115 239.16 69.4745 239.763 69.4629L250.734 68.6486C251.128 68.6199 251.525 68.6701 251.9 68.7964C252.275 68.9228 252.621 69.1226 252.917 69.3843C253.214 69.6459 253.456 69.9642 253.628 70.3203C253.8 70.6765 253.9 71.0635 253.921 71.4586V71.4586Z" style="fill:var(--sapContent_Illustrative_Color5)"/>
<path d="M245.57 41.7343C245.517 42.1018 245.39 42.4546 245.196 42.7711C245.002 43.0877 244.745 43.3613 244.442 43.5753L230.929 53.3127C230.32 53.746 229.568 53.9273 228.829 53.8187C228.09 53.7101 227.421 53.32 226.963 52.73C226.541 52.181 226.34 51.4932 226.401 50.803C226.436 50.4052 226.557 50.0198 226.755 49.673C226.953 49.3262 227.224 49.0262 227.548 48.7934L241.061 39.056C241.673 38.6198 242.429 38.4376 243.172 38.5478C243.915 38.658 244.587 39.0519 245.045 39.6468C245.269 39.9415 245.431 40.2783 245.521 40.637C245.611 40.9957 245.628 41.3689 245.57 41.7343V41.7343Z" style="fill:var(--sapContent_Illustrative_Color5)"/>
<rect x="46" y="98.3652" width="51.1724" height="53" rx="9.50345" style="fill:var(--sapContent_Illustrative_Color2)"/>
<path fill-rule="evenodd" clip-rule="evenodd" d="M78.1115 122.904C79.1583 123.915 79.1583 125.555 78.1115 126.566L70.0701 134.333C69.3035 135.073 68.1506 135.295 67.149 134.894C66.1474 134.493 65.4943 133.549 65.4943 132.502L65.4943 116.968C65.4943 115.921 66.1474 114.977 67.149 114.576C68.1506 114.175 69.3035 114.397 70.0701 115.137L78.1115 122.904Z" style="fill:var(--sapContent_Illustrative_Color8)"/>
<rect x="146" y="168.365" width="159.444" height="41" rx="9.94242" style="fill:var(--sapContent_Illustrative_Color3)"/>
<g clip-path="url(#clip0_620_3361)">
<path fill-rule="evenodd" clip-rule="evenodd" d="M171.754 180.394L171.753 180.396L169.517 185.509H172.426C172.458 185.509 172.489 185.511 172.52 185.513C172.972 185.477 173.426 185.697 173.668 186.116L175.259 188.865L178.329 185.856C178.808 185.387 179.578 185.395 180.047 185.874C180.517 186.353 180.509 187.122 180.03 187.592L176.516 191.035L178.815 195.007C179.151 195.587 178.953 196.33 178.372 196.667C177.791 197.003 177.048 196.804 176.712 196.224L174.725 192.79L171.887 195.571C171.098 196.342 170.101 196.85 169.034 197.042V197.042L167.904 197.246C167.244 197.366 166.612 196.927 166.492 196.267C166.373 195.607 166.812 194.975 167.472 194.855L168.602 194.651C169.196 194.544 169.751 194.261 170.188 193.835V193.835L173.468 190.62L171.916 187.939H168.454L163.545 199.166C162.882 200.682 161.401 201.691 159.728 201.731L158.412 201.772C157.742 201.793 157.181 201.266 157.161 200.595C157.14 199.925 157.667 199.364 158.337 199.344L159.668 199.302C160.389 199.286 161.03 198.852 161.319 198.192L165.803 187.939H162.228C161.557 187.939 161.013 187.395 161.013 186.724C161.013 186.053 161.557 185.509 162.228 185.509H166.865L169.532 179.41C170.051 178.243 171.202 177.476 172.494 177.476H174.468C175.139 177.476 175.683 178.02 175.683 178.691C175.683 179.362 175.139 179.906 174.468 179.906H172.494C172.18 179.906 171.889 180.091 171.754 180.394Z" style="fill:var(--sapContent_Illustrative_Color8)"/>
</g>
<rect x="196.111" y="185.069" width="86.5556" height="9.11111" rx="4.55556" style="fill:var(--sapContent_Illustrative_Color15)"/>
<defs>
<clipPath id="clip0_620_3361">
<rect width="24.2963" height="24.2963" style="fill:var(--sapContent_Illustrative_Color8)" transform="translate(156.629 177.476)"/>
</clipPath>
</defs>
</svg>
