<svg width="128" height="128" viewBox="0 0 128 128" fill="none" xmlns="http://www.w3.org/2000/svg" id="tnt-Spot-ChartBar-alternate">
<rect x="-1.26025" y="46.4551" width="113.183" height="75.5919" rx="6.72132" transform="rotate(-16.24 -1.26025 46.4551)" style="fill:var(--sapContent_Illustrative_Color6)"/>
<path d="M4.87989 49.0339C4.01478 46.0639 5.72112 42.9549 8.69109 42.0898L101.634 15.017C104.604 14.1518 107.713 15.8582 108.578 18.8281L125.677 77.5284C126.542 80.4984 124.836 83.6073 121.866 84.4724L28.9224 111.545C25.9524 112.41 22.8434 110.704 21.9783 107.734L4.87989 49.0339Z" style="fill:var(--sapContent_Illustrative_Color8)"/>
<path fill-rule="evenodd" clip-rule="evenodd" d="M8.13179 40.1697L101.075 13.0968C105.106 11.9228 109.325 14.2384 110.499 18.2689L127.597 76.9691C128.771 80.9996 126.455 85.2186 122.425 86.3926L29.4817 113.466C25.4512 114.64 21.2322 112.324 20.0582 108.293L2.95972 49.5932C1.78571 45.5627 4.10133 41.3437 8.13179 40.1697ZM8.69112 42.0899C5.72114 42.955 4.01481 46.0639 4.87992 49.0339L21.9784 107.734C22.8435 110.704 25.9524 112.41 28.9224 111.545L121.866 84.4724C124.836 83.6073 126.542 80.4984 125.677 77.5284L108.578 18.8282C107.713 15.8582 104.604 14.1519 101.634 15.017L8.69112 42.0899Z" style="fill:var(--sapContent_Illustrative_Color4)"/>
<path d="M4.87989 49.0339C4.01478 46.0639 5.72111 42.9549 8.69109 42.0898L101.634 15.0169C104.604 14.1518 107.713 15.8582 108.578 18.8281L110.821 26.5287L7.12293 56.7344L4.87989 49.0339Z" style="fill:var(--sapContent_Illustrative_Color5)"/>
<circle cx="14.1292" cy="47.8" r="2.5205" transform="rotate(-16.24 14.1292 47.8)" style="fill:var(--sapContent_Illustrative_Color8)"/>
<circle cx="23.2713" cy="45.1369" r="2.5205" transform="rotate(-16.24 23.2713 45.1369)" style="fill:var(--sapContent_Illustrative_Color8)"/>
<circle cx="32.4129" cy="42.4743" r="2.5205" transform="rotate(-16.24 32.4129 42.4743)" style="fill:var(--sapContent_Illustrative_Color8)"/>
<rect x="16.9194" y="61.1567" width="93.1985" height="44.2274" rx="2.81362" transform="rotate(-16.24 16.9194 61.1567)" style="fill:var(--sapContent_Illustrative_Color7)"/>
<rect x="29.5386" y="66.084" width="71.7236" height="6.84718" rx="1.12555" transform="rotate(-16.24 29.5386 66.084)" style="fill:var(--sapContent_Illustrative_Color3)"/>
<rect x="32.4556" y="76.0981" width="51.8714" height="6.84718" rx="1.12545" transform="rotate(-16.24 32.4556 76.0981)" style="fill:var(--sapContent_Illustrative_Color14)"/>
<rect x="35.3721" y="86.1123" width="40.8257" height="6.84718" rx="1.12555" transform="rotate(-16.24 35.3721 86.1123)" style="fill:var(--sapContent_Illustrative_Color2)"/>
</svg>
