<svg width="45" height="46" viewBox="0 0 45 46" fill="none" xmlns="http://www.w3.org/2000/svg" id="tnt-Dot-ChartBullet-alternate">
<rect x="4.36475" y="43.4814" width="18.6907" height="8.09727" rx="1.33104" transform="rotate(-90 4.36475 43.4814)" style="fill:var(--sapContent_Illustrative_Color2)"/>
<path d="M19.4512 43.4814C18.8989 43.4814 18.4512 43.0337 18.4512 42.4814L18.4512 3.26221C18.4512 2.70992 18.8989 2.26221 19.4512 2.26221L25.5484 2.26221C26.1007 2.26221 26.5484 2.70992 26.5484 3.26221L26.5484 42.4814C26.5484 43.0337 26.1007 43.4814 25.5484 43.4814L19.4512 43.4814Z" style="fill:var(--sapContent_Illustrative_Color8)"/>
<path fill-rule="evenodd" clip-rule="evenodd" d="M19.4512 43.9814C18.6227 43.9814 17.9512 43.3099 17.9512 42.4814L17.9512 3.26221C17.9512 2.43378 18.6227 1.76221 19.4512 1.76221L25.5484 1.76221C26.3769 1.76221 27.0484 2.43378 27.0484 3.26221L27.0484 42.4814C27.0484 43.3099 26.3769 43.9814 25.5484 43.9814L19.4512 43.9814ZM18.9512 42.4814C18.9512 42.7576 19.175 42.9814 19.4512 42.9814L25.5484 42.9814C25.8246 42.9814 26.0484 42.7576 26.0484 42.4814L26.0484 3.26221C26.0484 2.98606 25.8246 2.76221 25.5484 2.76221L19.4512 2.76221C19.175 2.76221 18.9512 2.98606 18.9512 3.26221L18.9512 42.4814Z" style="fill:var(--sapContent_Illustrative_Color4)"/>
<rect x="32.5376" y="43.4814" width="32.4419" height="8.09727" rx="1.33104" transform="rotate(-90 32.5376 43.4814)" style="fill:var(--sapContent_Illustrative_Color3)"/>
<path fill-rule="evenodd" clip-rule="evenodd" d="M1.85487 14.5084C1.8552 13.9572 2.30237 13.5105 2.85366 13.5108L13.9755 13.5175C14.5268 13.5178 14.9734 13.965 14.9731 14.5163C14.9727 15.0675 14.5256 15.5142 13.9743 15.5139L2.85247 15.5072C2.30118 15.5069 1.85455 15.0597 1.85487 14.5084Z" style="fill:var(--sapContent_Illustrative_Color4)"/>
<path fill-rule="evenodd" clip-rule="evenodd" d="M15.9408 28.8229C15.9411 28.2716 16.3883 27.825 16.9396 27.8253L28.0614 27.8319C28.6127 27.8323 29.0593 28.2794 29.059 28.8307C29.0587 29.382 28.6115 29.8286 28.0602 29.8283L16.9384 29.8217C16.3871 29.8214 15.9405 29.3742 15.9408 28.8229Z" style="fill:var(--sapContent_Illustrative_Color4)"/>
<path fill-rule="evenodd" clip-rule="evenodd" d="M30.0272 21.1466C30.0276 20.5953 30.4747 20.1487 31.026 20.149L42.1478 20.1557C42.6991 20.156 43.1458 20.6032 43.1454 21.1544C43.1451 21.7057 42.6979 22.1524 42.1467 22.152L31.0248 22.1454C30.4735 22.1451 30.0269 21.6979 30.0272 21.1466Z" style="fill:var(--sapContent_Illustrative_Color4)"/>
</svg>
