<svg width="320" height="241" viewBox="0 0 320 241" fill="none" xmlns="http://www.w3.org/2000/svg" id="tnt-Scene-Handshake-alternate">
<path d="M130.352 145.328H33.9433C26.384 145.328 19.1343 148.331 13.789 153.676C8.4438 159.022 5.44092 166.271 5.44092 173.831C5.44092 181.39 8.4438 188.64 13.789 193.985C19.1343 199.33 26.384 202.333 33.9433 202.333H130.392C137.952 202.333 145.201 199.33 150.547 193.985C155.892 188.64 158.895 181.39 158.895 173.831C158.895 166.271 155.892 159.022 150.547 153.676C145.201 148.331 137.952 145.328 130.392 145.328H130.352Z" style="fill:var(--sapContent_Illustrative_Color7)"/>
<path d="M165.474 173.621H69.0146C61.549 173.761 54.4364 176.825 49.2061 182.154C43.9758 187.483 41.0457 194.652 41.0457 202.118C41.0457 209.585 43.9758 216.754 49.2061 222.083C54.4364 227.412 61.549 230.476 69.0146 230.616H165.474C172.939 230.476 180.052 227.412 185.282 222.083C190.512 216.754 193.443 209.585 193.443 202.118C193.443 194.652 190.512 187.483 185.282 182.154C180.052 176.825 172.939 173.761 165.474 173.621Z" style="fill:var(--sapContent_Illustrative_Color7)"/>
<path d="M290.964 94.8026H194.515C190.728 94.7317 186.965 95.4165 183.445 96.8167C179.925 98.217 176.72 100.305 174.017 102.958C171.314 105.611 169.166 108.777 167.7 112.27C166.234 115.762 165.479 119.512 165.479 123.3C165.479 127.088 166.234 130.838 167.7 134.331C169.166 137.823 171.314 140.989 174.017 143.642C176.72 146.295 179.925 148.383 183.445 149.783C186.965 151.184 190.728 151.868 194.515 151.797H290.964C294.751 151.868 298.515 151.184 302.034 149.783C305.554 148.383 308.759 146.295 311.462 143.642C314.166 140.989 316.313 137.823 317.779 134.331C319.245 130.838 320 127.088 320 123.3C320 119.512 319.245 115.762 317.779 112.27C316.313 108.777 314.166 105.611 311.462 102.958C308.759 100.305 305.554 98.217 302.034 96.8167C298.515 95.4165 294.751 94.7317 290.964 94.8026Z" style="fill:var(--sapContent_Illustrative_Color7)"/>
<path d="M219.084 42.7695H37.767C27.7505 42.7695 18.1444 46.7485 11.0617 53.8312C3.979 60.9139 0 70.52 0 80.5364C0 90.5529 3.979 100.159 11.0617 107.242C18.1444 114.324 27.7505 118.303 37.767 118.303H219.084C229.101 118.303 238.707 114.324 245.789 107.242C252.872 100.159 256.851 90.5529 256.851 80.5364C256.851 70.52 252.872 60.9139 245.789 53.8312C238.707 46.7485 229.101 42.7695 219.084 42.7695Z" style="fill:var(--sapContent_Illustrative_Color7)"/>
<path fill-rule="evenodd" clip-rule="evenodd" d="M106.525 101.167L80.408 89.856L61.5708 127.829L148.879 174.772L149.381 174.05L162.134 186.008C165.23 188.911 170.092 188.754 172.995 185.659C174.274 184.294 174.959 182.587 175.06 180.855C178.161 183.625 182.923 183.428 185.782 180.378C187.553 178.489 188.185 175.941 187.705 173.583C190.583 174.795 194.034 174.167 196.295 171.756C198.173 169.752 198.77 167.009 198.119 164.535C201.214 166.892 205.653 166.571 208.372 163.671C211.274 160.575 211.118 155.713 208.022 152.81L181.434 127.881L181.47 127.829C181.402 127.578 181.332 127.309 181.257 127.023L181.257 127.022L181.257 127.02C179.908 121.861 177.16 111.353 161.978 105.915C152.046 102.357 140.13 102.438 130.985 103.584C122.761 104.615 114.131 104.46 106.525 101.167Z" style="fill:var(--sapContent_Illustrative_Color8)"/>
<path fill-rule="evenodd" clip-rule="evenodd" d="M79.6972 87.9135L107.121 99.7901C114.373 102.931 122.693 103.112 130.799 102.096C140.046 100.937 152.232 100.83 162.484 104.502C170.36 107.324 175.099 111.5 178.036 115.715C180.942 119.886 182.021 124.015 182.699 126.609L182.706 126.634L182.706 126.635L182.707 126.639L182.708 126.641L182.709 126.644C182.754 126.818 182.798 126.984 182.839 127.142L209.048 151.716C212.748 155.185 212.935 160.997 209.466 164.697C206.932 167.4 203.15 168.228 199.852 167.127C199.714 169.166 198.897 171.173 197.389 172.782C195.25 175.063 192.222 176.008 189.349 175.586C189.244 177.681 188.424 179.753 186.876 181.404C184.036 184.433 179.626 185.108 176.09 183.35C175.682 184.556 175.016 185.696 174.089 186.685C170.62 190.385 164.808 190.572 161.108 187.102L149.622 176.333L149.348 176.728L59.582 128.463L79.6972 87.9135ZM148.411 172.817L149.139 171.768L163.16 184.914C165.651 187.25 169.565 187.124 171.901 184.633C172.931 183.534 173.481 182.162 173.563 180.768L173.744 177.668L176.06 179.737C178.554 181.965 182.387 181.807 184.688 179.352C186.113 177.833 186.623 175.785 186.235 173.882L185.669 171.098L188.288 172.201C190.606 173.177 193.382 172.669 195.2 170.73C196.711 169.119 197.194 166.912 196.668 164.917L195.557 160.699L199.027 163.342C201.517 165.237 205.09 164.978 207.277 162.645C209.613 160.154 209.487 156.24 206.996 153.904L179.464 128.089L179.843 127.543C179.831 127.498 179.819 127.452 179.807 127.405L179.806 127.404L179.806 127.403L179.805 127.4C179.134 124.832 178.162 121.145 175.574 117.43C173.004 113.741 168.778 109.944 161.472 107.327C151.859 103.883 140.213 103.94 131.172 105.073C122.83 106.118 113.889 105.99 105.929 102.543L81.1188 91.7984L63.5596 127.195L148.411 172.817Z" style="fill:var(--sapContent_Illustrative_Color4)"/>
<path d="M206.359 104.833L250.118 89.3211C250.667 89.1262 251.267 89.4414 251.418 90.0049L262.457 131.22C262.598 131.747 262.29 132.29 261.765 132.44L231.177 141.153C231.116 141.17 231.057 141.193 231.001 141.222L208.128 152.751C207.756 152.938 207.307 152.876 207 152.593L176.406 124.39C172.738 121.008 167.477 120.15 162.664 121.462C146.078 125.98 137.36 121.021 133.875 116.172C132.892 114.805 133.749 113.043 135.347 112.514L167.166 101.996C168.125 101.679 169.119 101.507 170.129 101.537C172.68 101.615 178.093 101.964 183.583 103.479C190.981 105.522 199.125 107.398 206.359 104.833Z" style="fill:var(--sapContent_Illustrative_Color8)"/>
<path fill-rule="evenodd" clip-rule="evenodd" d="M249.616 87.9073C250.991 87.42 252.489 88.208 252.867 89.6168L263.906 130.831C264.259 132.15 263.489 133.509 262.176 133.883L231.633 142.583L208.804 154.09C207.873 154.559 206.75 154.402 205.984 153.696L175.389 125.493C172.17 122.525 167.471 121.707 163.058 122.909C146.051 127.542 136.607 122.543 132.657 117.047L133.865 116.178L133.868 116.176M133.865 116.178L132.657 117.047C131.833 115.902 131.783 114.556 132.265 113.436C132.733 112.346 133.689 111.483 134.876 111.09L166.695 100.572C167.794 100.208 168.963 100.001 170.175 100.038C172.78 100.117 178.327 100.472 183.982 102.033C191.428 104.089 199.127 105.805 205.858 103.419L249.616 87.9073M250.109 90.9157L206.86 106.247C199.122 108.99 190.535 106.954 183.184 104.925C177.858 103.455 172.581 103.112 170.083 103.037C169.275 103.012 168.457 103.149 167.637 103.42L135.818 113.939C135.407 114.074 135.135 114.356 135.021 114.621C134.92 114.856 134.933 115.075 135.093 115.296C138.113 119.498 146.105 124.418 162.269 120.014C167.483 118.594 173.306 119.492 177.422 123.287L207.762 151.256L230.326 139.882L230.326 139.882C230.467 139.811 230.614 139.754 230.766 139.71L260.881 131.132L250.109 90.9157ZM249.969 90.395L249.969 90.393L250.452 90.2636L250.619 90.7349L250.618 90.7353C250.618 90.7352 250.618 90.735 250.619 90.7349L250.452 90.2636L249.969 90.393C249.969 90.3936 249.969 90.3943 249.969 90.395Z" style="fill:var(--sapContent_Illustrative_Color4)"/>
<path d="M137.618 179.379C133.39 179.74 129.67 176.604 129.309 172.376L128.173 159.058C127.812 154.83 130.947 151.11 135.176 150.749C139.404 150.388 143.124 153.523 143.485 157.752L144.621 171.07C144.982 175.298 141.846 179.018 137.618 179.379Z" style="fill:var(--sapContent_Illustrative_Color8)"/>
<path fill-rule="evenodd" clip-rule="evenodd" d="M137.745 180.874C132.692 181.305 128.245 177.557 127.814 172.504L126.678 159.186C126.247 154.132 129.994 149.685 135.048 149.254C140.102 148.823 144.548 152.571 144.979 157.624L146.115 170.942C146.547 175.996 142.799 180.443 137.745 180.874ZM130.803 172.249C131.094 175.652 134.088 178.175 137.49 177.885C140.893 177.594 143.417 174.6 143.126 171.197L141.99 157.879C141.7 154.476 138.706 151.953 135.303 152.243C131.9 152.534 129.377 155.528 129.667 158.931L130.803 172.249Z" style="fill:var(--sapContent_Illustrative_Color4)"/>
<path d="M123.129 173.013C118.901 173.373 115.181 170.238 114.82 166.01L114.149 158.142C113.712 153.017 117.512 148.507 122.637 148.07C125.969 147.786 128.9 150.256 129.184 153.588L130.132 164.704C130.493 168.932 127.358 172.652 123.129 173.013Z" style="fill:var(--sapContent_Illustrative_Color8)"/>
<path fill-rule="evenodd" clip-rule="evenodd" d="M123.257 174.507C118.203 174.938 113.757 171.191 113.326 166.137L112.654 158.269C112.147 152.319 116.559 147.083 122.51 146.576C126.667 146.221 130.324 149.303 130.679 153.46L131.627 164.576C132.058 169.63 128.311 174.076 123.257 174.507ZM116.315 165.882C116.605 169.285 119.599 171.809 123.002 171.518C126.405 171.228 128.928 168.234 128.638 164.831L127.689 153.715C127.476 151.209 125.271 149.351 122.765 149.565C118.465 149.932 115.277 153.715 115.644 158.014L116.315 165.882Z" style="fill:var(--sapContent_Illustrative_Color4)"/>
<path d="M107.665 167.465C103.437 167.826 99.7167 164.69 99.356 160.462L99.2753 159.516C98.8701 154.766 102.393 150.586 107.143 150.181L112.462 149.727C113.23 149.662 113.907 150.232 113.972 151.001L114.668 159.156C115.029 163.384 111.893 167.104 107.665 167.465Z" style="fill:var(--sapContent_Illustrative_Color8)"/>
<path fill-rule="evenodd" clip-rule="evenodd" d="M107.793 168.959C102.739 169.39 98.2925 165.643 97.8614 160.589L97.7807 159.644C97.3051 154.068 101.44 149.162 107.016 148.687L112.334 148.233C113.928 148.097 115.331 149.279 115.467 150.873L116.163 159.028C116.594 164.082 112.846 168.528 107.793 168.959ZM100.851 160.334C101.141 163.737 104.135 166.261 107.538 165.97C110.94 165.68 113.464 162.686 113.173 159.283L112.487 151.231L107.271 151.676C103.345 152.01 100.435 155.464 100.77 159.389L100.851 160.334Z" style="fill:var(--sapContent_Illustrative_Color4)"/>
<path d="M153.203 183.666C148.974 184.027 145.254 180.891 144.894 176.663L143.943 165.515C143.582 161.287 146.717 157.567 150.946 157.206C155.174 156.845 158.894 159.981 159.255 164.209L160.206 175.357C160.566 179.585 157.431 183.305 153.203 183.666Z" style="fill:var(--sapContent_Illustrative_Color8)"/>
<path fill-rule="evenodd" clip-rule="evenodd" d="M153.33 185.161C148.276 185.592 143.83 181.844 143.399 176.791L142.448 165.643C142.017 160.589 145.764 156.143 150.818 155.711C155.872 155.28 160.318 159.028 160.749 164.081L161.7 175.229C162.131 180.283 158.384 184.73 153.33 185.161ZM146.388 176.536C146.678 179.939 149.672 182.462 153.075 182.172C156.478 181.881 159.001 178.887 158.711 175.484L157.76 164.336C157.47 160.934 154.476 158.41 151.073 158.701C147.67 158.991 145.147 161.985 145.437 165.388L146.388 176.536Z" style="fill:var(--sapContent_Illustrative_Color4)"/>
<path fill-rule="evenodd" clip-rule="evenodd" d="M169.087 153.56C169.692 152.994 170.641 153.025 171.207 153.63L189.003 172.641C189.569 173.245 189.538 174.195 188.933 174.761C188.328 175.327 187.379 175.296 186.813 174.691L169.017 155.68C168.451 155.075 168.482 154.126 169.087 153.56Z" style="fill:var(--sapContent_Illustrative_Color4)"/>
<path fill-rule="evenodd" clip-rule="evenodd" d="M180.285 145.609C180.876 145.029 181.826 145.039 182.406 145.63L200.423 164.014C201.003 164.605 200.993 165.555 200.401 166.135C199.81 166.715 198.86 166.705 198.28 166.114L180.263 147.73C179.683 147.138 179.693 146.189 180.285 145.609Z" style="fill:var(--sapContent_Illustrative_Color4)"/>
<path fill-rule="evenodd" clip-rule="evenodd" d="M165.743 169.304C166.369 168.76 167.316 168.827 167.86 169.452L177.407 180.445C177.95 181.071 177.883 182.018 177.258 182.561C176.632 183.105 175.685 183.038 175.142 182.413L165.595 171.42C165.051 170.794 165.118 169.847 165.743 169.304Z" style="fill:var(--sapContent_Illustrative_Color4)"/>
<rect x="226.239" y="89.1238" width="26.6621" height="58.4348" rx="4" transform="rotate(-18.7886 226.239 89.1238)" style="fill:var(--sapContent_Illustrative_Color6)"/>
<path d="M242.783 83.004C241.894 80.3897 243.292 77.5494 245.907 76.66L274.122 67.061L296.402 132.552L268.187 142.151C265.573 143.04 262.732 141.642 261.843 139.028L242.783 83.004Z" style="fill:var(--sapContent_Illustrative_Color2)"/>
<rect width="26.2929" height="58.4348" rx="4" transform="matrix(-0.892669 -0.450713 -0.450713 0.892669 97.0564 90.6314)" style="fill:var(--sapContent_Illustrative_Color6)"/>
<path d="M81.8539 82.434C83.0985 79.9689 82.1091 76.9617 79.6441 75.717L54.7904 63.1683L23.6114 124.921L48.465 137.469C50.9301 138.714 53.9373 137.725 55.182 135.26L81.8539 82.434Z" style="fill:var(--sapContent_Illustrative_Color3)"/>
</svg>
