<svg width="45" height="46" viewBox="0 0 45 46" fill="none" xmlns="http://www.w3.org/2000/svg" id="tnt-Dot-Unlock-alternate">
<path d="M18.1416 43.1594H23.9096V44.5747C23.9096 45.0341 23.5372 45.4065 23.0778 45.4065H18.9734C18.514 45.4065 18.1416 45.0341 18.1416 44.5747V43.1594Z" style="fill:var(--sapContent_Illustrative_Color4)"/>
<path d="M34.2656 43.1594H40.0336V44.5747C40.0336 45.0341 39.6612 45.4065 39.2018 45.4065H35.0974C34.638 45.4065 34.2656 45.0341 34.2656 44.5747V43.1594Z" style="fill:var(--sapContent_Illustrative_Color4)"/>
<path d="M14.6094 20.9124C14.6094 18.8321 16.2957 17.1458 18.376 17.1458H39.799C41.8793 17.1458 43.5656 18.8321 43.5656 20.9124V38.8453C43.5656 40.9255 41.8793 42.6119 39.799 42.6119H18.376C16.2957 42.6119 14.6094 40.9255 14.6094 38.8453V20.9124Z" style="fill:var(--sapContent_Illustrative_Color8)"/>
<path fill-rule="evenodd" clip-rule="evenodd" d="M18.376 16.1458H39.799C42.4316 16.1458 44.5656 18.2798 44.5656 20.9124V38.8453C44.5656 41.4778 42.4316 43.6119 39.799 43.6119H18.376C15.7435 43.6119 13.6094 41.4778 13.6094 38.8453V20.9124C13.6094 18.2798 15.7435 16.1458 18.376 16.1458ZM18.376 17.1458C16.2957 17.1458 14.6094 18.8321 14.6094 20.9124V38.8453C14.6094 40.9255 16.2957 42.6119 18.376 42.6119H39.799C41.8793 42.6119 43.5656 40.9255 43.5656 38.8453V20.9124C43.5656 18.8321 41.8793 17.1458 39.799 17.1458H18.376Z" style="fill:var(--sapContent_Illustrative_Color4)"/>
<rect x="17.1123" y="19.793" width="23.95" height="20.1721" rx="2.02817" style="fill:var(--sapContent_Illustrative_Color6)"/>
<rect x="17.1123" y="19.7927" width="23.95" height="20.1721" rx="2.02817" style="fill:var(--sapContent_Illustrative_Color4)"/>
<rect x="0.53125" y="19.7927" width="14.5389" height="20.1721" rx="2.02817" style="fill:var(--sapContent_Illustrative_Color5)"/>
<rect x="2.53125" y="19.7927" width="14.5389" height="20.1721" rx="2.02817" style="fill:var(--sapContent_Illustrative_Color6)"/>
<ellipse cx="5.48254" cy="26.3718" rx="0.542115" ry="0.893026" style="fill:var(--sapContent_Illustrative_Color3)"/>
<ellipse cx="5.48254" cy="33.4438" rx="0.542115" ry="0.893026" style="fill:var(--sapContent_Illustrative_Color3)"/>
<path d="M13.8617 29.9078C13.8617 32.3539 12.658 34.3369 11.173 34.3369C9.68814 34.3369 8.48438 32.3539 8.48438 29.9078C8.48438 27.4617 9.68814 25.4788 11.173 25.4788C12.658 25.4788 13.8617 27.4617 13.8617 29.9078Z" style="fill:var(--sapContent_Illustrative_Color8)"/>
<path fill-rule="evenodd" clip-rule="evenodd" d="M12.2194 32.5207C12.5962 31.9001 12.8617 30.9787 12.8617 29.9078C12.8617 28.8369 12.5962 27.9156 12.2194 27.2949C11.8316 26.6561 11.432 26.4788 11.173 26.4788C10.9141 26.4788 10.5145 26.6561 10.1267 27.2949C9.74993 27.9156 9.48438 28.8369 9.48438 29.9078C9.48438 30.9787 9.74993 31.9001 10.1267 32.5207C10.5145 33.1595 10.9141 33.3369 11.173 33.3369C11.432 33.3369 11.8316 33.1595 12.2194 32.5207ZM11.173 34.3369C12.658 34.3369 13.8617 32.3539 13.8617 29.9078C13.8617 27.4617 12.658 25.4788 11.173 25.4788C9.68814 25.4788 8.48438 27.4617 8.48438 29.9078C8.48438 32.3539 9.68814 34.3369 11.173 34.3369Z" style="fill:var(--sapContent_Illustrative_Color4)"/>
<rect x="16.2715" y="22.6179" width="1.5883" height="5.60852" rx="0.794148" style="fill:var(--sapContent_Illustrative_Color5)"/>
<rect x="16.2715" y="31.5325" width="1.5883" height="5.60852" rx="0.794148" style="fill:var(--sapContent_Illustrative_Color5)"/>
<path d="M14.0138 5.2169C13.9459 5.29661 13.9008 5.39313 13.8832 5.49632C13.8655 5.59951 13.876 5.70554 13.9136 5.80326L14.7459 8.15087C14.8834 8.5392 15.2782 8.63442 15.5825 8.5266C15.7087 8.48702 15.8186 8.40755 15.8957 8.30014C15.9729 8.19273 16.0131 8.06319 16.0103 7.93098C16.007 7.86714 15.9941 7.80416 15.972 7.74418L15.1397 5.39658C15.1053 5.29283 15.0435 5.20032 14.9608 5.12882C14.8782 5.05732 14.7777 5.00951 14.6701 4.99043C14.5505 4.96916 14.4274 4.9788 14.3125 5.01844C14.1977 5.05807 14.0948 5.12639 14.0138 5.2169Z" style="fill:var(--sapContent_Illustrative_Color5)"/>
<path d="M5.92326 16.0654C5.91142 16.1394 5.91513 16.215 5.93416 16.2875C5.9532 16.3599 5.98713 16.4276 6.03379 16.4862C6.08045 16.5448 6.13882 16.5931 6.20517 16.6279C6.27153 16.6626 6.3444 16.6832 6.41914 16.6883L8.82986 16.962C8.91657 16.9715 9.00431 16.9637 9.08796 16.9389C9.17162 16.9142 9.2495 16.8731 9.31707 16.8179C9.38464 16.7627 9.44055 16.6946 9.48152 16.6176C9.52249 16.5406 9.54771 16.4562 9.5557 16.3693C9.55999 16.3336 9.56134 16.2975 9.55975 16.2616C9.55577 16.1287 9.50214 16.0021 9.40943 15.9067C9.31673 15.8114 9.19168 15.7543 9.05893 15.7466L6.64924 15.4736C6.56257 15.4639 6.47483 15.4716 6.39116 15.4962C6.30749 15.5208 6.22958 15.5619 6.16198 15.617C6.09437 15.6721 6.03844 15.7402 5.99745 15.8171C5.95646 15.8941 5.93124 15.9785 5.92326 16.0654Z" style="fill:var(--sapContent_Illustrative_Color5)"/>
<path d="M8.01888 9.58884C8.02742 9.67024 8.05248 9.74905 8.09252 9.82043C8.13256 9.89182 8.18674 9.95429 8.25175 10.004L11.1453 12.2643C11.2756 12.3649 11.4398 12.4113 11.6035 12.3937C11.7672 12.376 11.9178 12.2958 12.0238 12.1697C12.1215 12.0524 12.1716 11.9026 12.1642 11.7501C12.1597 11.6621 12.1363 11.5762 12.0957 11.4981C12.055 11.42 11.998 11.3516 11.9285 11.2976L9.03499 9.03734C8.904 8.93603 8.73885 8.88945 8.57424 8.90738C8.40963 8.92531 8.25838 9.00636 8.15228 9.13349C8.10053 9.19649 8.06203 9.2693 8.03911 9.34755C8.01618 9.4258 8.0093 9.50787 8.01888 9.58884Z" style="fill:var(--sapContent_Illustrative_Color5)"/>
</svg>
