<svg width="45" height="46" viewBox="0 0 45 46" fill="none" xmlns="http://www.w3.org/2000/svg" id="tnt-Dot-EmptyContentPane-alternate">
<path d="M1 18.1147C1 16.4579 2.34315 15.1147 4 15.1147H16.4742C17.168 15.1147 17.8403 15.3552 18.3767 15.7952L29.8887 25.2374C30.5834 25.8073 30.9861 26.6585 30.9861 27.557V41.3512C30.9861 43.0081 29.643 44.3512 27.9861 44.3512H4C2.34315 44.3512 1 43.0081 1 41.3512V18.1147Z" style="fill:var(--sapContent_Illustrative_Color6)"/>
<path d="M4.24951 15.6641C4.24951 14.3945 5.27877 13.3652 6.54842 13.3652H19.1695C19.7015 13.3652 20.217 13.5497 20.6281 13.8872L31.9376 23.1706C32.4696 23.6073 32.7779 24.2593 32.7779 24.9475V38.9032C32.7779 40.1729 31.7486 41.2021 30.479 41.2021H6.54842C5.27877 41.2021 4.24951 40.1729 4.24951 38.9032V15.6641Z" style="fill:var(--sapContent_Illustrative_Color8)"/>
<path fill-rule="evenodd" clip-rule="evenodd" d="M30.479 42.2021H6.54842C4.72649 42.2021 3.24951 40.7251 3.24951 38.9032V15.6641C3.24951 13.8422 4.72648 12.3652 6.54842 12.3652H19.1695C19.9329 12.3652 20.6726 12.63 21.2626 13.1143L32.5721 22.3977C33.3354 23.0243 33.7779 23.9599 33.7779 24.9475V38.9032C33.7779 40.7251 32.3009 42.2021 30.479 42.2021ZM6.54842 13.3652C5.27877 13.3652 4.24951 14.3945 4.24951 15.6641V38.9032C4.24951 40.1729 5.27877 41.2021 6.54842 41.2021H30.479C31.7486 41.2021 32.7779 40.1729 32.7779 38.9032V24.9475C32.7779 24.2593 32.4696 23.6073 31.9376 23.1706L20.6281 13.8872C20.217 13.5497 19.7015 13.3652 19.1695 13.3652H6.54842Z" style="fill:var(--sapContent_Illustrative_Color4)"/>
<path d="M20.0641 22.8604C20.0641 23.4127 20.5118 23.8604 21.0641 23.8604H32.2216C32.4091 23.8604 32.4935 23.6255 32.3489 23.5062L20.3914 13.6354C20.261 13.5278 20.0641 13.6205 20.0641 13.7897V22.8604Z" style="fill:var(--sapContent_Illustrative_Color8)"/>
<path fill-rule="evenodd" clip-rule="evenodd" d="M32.2216 24.8604H21.0641C19.9595 24.8604 19.0641 23.9649 19.0641 22.8604V13.7897C19.0641 12.7749 20.2454 12.2182 21.028 12.8642L32.9855 22.7349C33.8532 23.4512 33.3467 24.8604 32.2216 24.8604ZM20.3914 13.6354C20.261 13.5277 20.0641 13.6205 20.0641 13.7897V22.8604C20.0641 23.4127 20.5118 23.8604 21.0641 23.8604H32.2216C32.4091 23.8604 32.4935 23.6255 32.3489 23.5061L20.3914 13.6354Z" style="fill:var(--sapContent_Illustrative_Color4)"/>
<path d="M31.1973 1.30627C31.3067 1.39963 31.3888 1.52073 31.4351 1.65685C31.4815 1.79296 31.4902 1.93904 31.4606 2.07972L30.8416 5.44423C30.7395 6.00073 30.2247 6.2156 29.7885 6.13547C29.6088 6.10919 29.4425 6.02528 29.3146 5.89636C29.1867 5.76744 29.104 5.60048 29.0791 5.42057C29.0697 5.33329 29.0735 5.24508 29.0904 5.15894L29.7094 1.79443C29.7335 1.64626 29.7973 1.50737 29.8938 1.39246C29.9904 1.27755 30.1163 1.19088 30.2581 1.14164C30.4157 1.08683 30.5847 1.07318 30.7491 1.10199C30.9135 1.1308 31.0677 1.20112 31.1973 1.30627V1.30627Z" style="fill:var(--sapContent_Illustrative_Color5)"/>
<path d="M44.5221 14.2642C44.5543 14.362 44.5656 14.4654 44.5556 14.5678C44.5455 14.6702 44.5142 14.7694 44.4636 14.859C44.4131 14.9486 44.3444 15.0267 44.2619 15.0883C44.1795 15.1499 44.0852 15.1936 43.9849 15.2166L40.7749 16.1113C40.6594 16.1431 40.5387 16.1515 40.4199 16.1361C40.3011 16.1208 40.1865 16.0819 40.0829 16.0217C39.9793 15.9615 39.8887 15.8814 39.8164 15.7858C39.7441 15.6902 39.6916 15.5812 39.6619 15.4652C39.6483 15.4176 39.6386 15.3691 39.633 15.32C39.6095 15.1388 39.6548 14.9555 39.7598 14.8061C39.8648 14.6567 40.022 14.552 40.2004 14.5128L43.4091 13.6193C43.5245 13.5873 43.6452 13.5787 43.764 13.5939C43.8828 13.6092 43.9974 13.6479 44.101 13.708C44.2047 13.768 44.2953 13.8482 44.3676 13.9437C44.4399 14.0392 44.4925 14.1482 44.5221 14.2642V14.2642Z" style="fill:var(--sapContent_Illustrative_Color5)"/>
<path d="M40.2767 5.93538C40.2828 6.04763 40.266 6.15995 40.2272 6.26546C40.1884 6.37096 40.1284 6.46744 40.0511 6.549L36.6177 10.2426C36.4628 10.4074 36.2502 10.506 36.0244 10.5176C35.7985 10.5293 35.5769 10.4532 35.4058 10.3052C35.2477 10.1673 35.1473 9.97504 35.1243 9.76653C35.1112 9.64632 35.1242 9.5247 35.1624 9.40998C35.2006 9.29526 35.2631 9.19012 35.3456 9.10173L38.7789 5.40809C38.9346 5.24226 39.1485 5.14322 39.3756 5.1318C39.6027 5.12037 39.8254 5.19744 39.9969 5.34681C40.0808 5.42101 40.1488 5.5114 40.1969 5.61254C40.245 5.71368 40.2721 5.82349 40.2767 5.93538V5.93538Z" style="fill:var(--sapContent_Illustrative_Color5)"/>
</svg>
