<svg width="128" height="129" viewBox="0 0 128 129" fill="none" xmlns="http://www.w3.org/2000/svg" id="tnt-Spot-SessionExpiring-alternate">
<path fill-rule="evenodd" clip-rule="evenodd" d="M87.6371 76.3745C83.7419 73.5355 78.5945 70.6789 71.6665 67.5359C71.5905 67.5014 71.5164 67.4626 71.4426 67.4238C71.0844 67.2354 69.9182 66.6345 68.4343 65.4992C67.3769 64.6894 66.9715 63.1121 67.5046 61.8915C68.2702 60.1392 69.0198 59.0266 69.2431 58.6888C69.2876 58.6215 69.3323 58.5542 69.3806 58.4896C73.9528 52.3723 77.0904 47.3891 79.1255 43.0503C81.0182 39.0018 81.9679 35.5152 82.2803 32.1923C82.782 27.01 81.7013 22.1937 80.1955 16.2763C80.0159 15.5703 79.2967 15.1448 78.5911 15.3258L27.5567 28.4202C26.8567 28.5998 26.4311 29.3097 26.6056 30.011C28.0718 35.9051 29.4755 40.6426 32.4211 44.985C34.3316 47.7377 36.8607 50.3316 40.4695 52.9685C44.3645 55.8074 49.5121 58.6636 56.4395 61.8065C56.5163 61.8413 56.5913 61.8806 56.6658 61.9198C57.0161 62.1041 58.1306 62.6788 59.5575 63.7569C60.6839 64.6076 61.1172 66.2935 60.5435 67.5844C59.8014 69.2538 59.0862 70.3173 58.8662 70.6506C58.8203 70.7201 58.7741 70.7899 58.7242 70.8566C54.1526 76.9726 51.0156 81.9541 48.9811 86.2928C47.0883 90.3407 46.1381 93.828 45.8263 97.1508C45.3246 102.333 46.4051 107.149 47.911 113.067C48.0907 113.773 48.8099 114.198 49.5155 114.017L100.551 100.923C101.251 100.743 101.676 100.033 101.502 99.3319C100.035 93.4378 98.6316 88.7004 95.6855 84.358C93.775 81.6054 91.2457 79.0109 87.6371 76.3745Z" style="fill:var(--sapContent_Illustrative_Color8)"/>
<path fill-rule="evenodd" clip-rule="evenodd" d="M79.1253 43.0502C77.0903 47.389 73.9527 52.3722 69.3804 58.4895C69.3322 58.5541 69.2875 58.6215 69.243 58.6887C69.2361 58.6992 69.2287 58.7103 69.2208 58.7222C68.9733 59.0959 68.2464 60.1933 67.5045 61.8914C66.9714 63.112 67.3768 64.6893 68.4342 65.4991C69.8727 66.5997 71.0126 67.1981 71.4074 67.4053C71.4199 67.4118 71.4316 67.418 71.4425 67.4237C71.5163 67.4625 71.5904 67.5013 71.6663 67.5358C78.5944 70.6789 83.7418 73.5355 87.637 76.3745C91.2456 79.0108 93.7749 81.6053 95.6854 84.358C98.6315 88.7003 100.035 93.4378 101.502 99.3318C101.676 100.033 101.25 100.743 100.55 100.923L49.5154 114.017C48.8098 114.198 48.0906 113.773 47.911 113.067C46.4051 107.149 45.3245 102.333 45.8262 97.1507C46.138 93.8279 47.0882 90.3406 48.981 86.2927C51.0155 81.9541 54.1525 76.9725 58.7241 70.8565C58.774 70.7898 58.8202 70.72 58.8661 70.6505C58.873 70.64 58.8805 70.6288 58.8884 70.6168C59.1312 70.2497 59.8247 69.2012 60.5434 67.5843C61.1171 66.2934 60.6838 64.6075 59.5574 63.7568C58.1748 62.7122 57.0855 62.1402 56.7005 61.938C56.6882 61.9316 56.6766 61.9255 56.6657 61.9197C56.5912 61.8805 56.5162 61.8412 56.4395 61.8064C49.512 58.6636 44.3644 55.8073 40.4694 52.9685C36.8607 50.3315 34.3315 47.7376 32.421 44.985C29.4754 40.6425 28.0717 35.905 26.6055 30.0109C26.431 29.3096 26.8566 28.5997 27.5566 28.4201L78.591 15.3258C79.2965 15.1448 80.0158 15.5703 80.1954 16.2762C81.7012 22.1937 82.7818 27.01 82.2802 32.1922C81.9678 35.5152 81.018 39.0017 79.1253 43.0502ZM84.2792 32.3829C83.9417 35.9689 82.9185 39.678 80.9444 43.9006L80.9434 43.9029C78.8276 48.4139 75.6023 53.5193 70.9889 59.6917C70.9803 59.7033 70.9657 59.7242 70.918 59.7962C70.9112 59.8066 70.9038 59.8177 70.8959 59.8296C70.6703 60.1701 70.0175 61.1553 69.3447 62.6951M84.2792 32.3829C84.818 26.8115 83.643 21.6819 82.1415 15.781C81.6874 13.9965 79.871 12.9243 78.0919 13.3807L27.0575 26.475C25.2935 26.9276 24.2148 28.7191 24.6568 30.4957C26.1262 36.4024 27.5962 41.4493 30.7592 46.1122L30.7652 46.1211L30.7713 46.1299C32.8274 49.0923 35.5231 51.8412 39.2846 54.5898L39.2866 54.5912C43.335 57.5418 48.6181 60.4631 55.6098 63.6351C55.6252 63.6421 55.6504 63.6546 55.7308 63.6969C55.7416 63.7026 55.7532 63.7087 55.7656 63.7152C56.1177 63.9 57.0945 64.4127 58.3468 65.359L58.3472 65.3592C58.726 65.6453 58.9042 66.3282 58.7084 66.7688C58.057 68.2341 57.4347 69.1748 57.2125 69.5105C57.2046 69.5225 57.1972 69.5337 57.1903 69.5441C57.1409 69.619 57.1253 69.6414 57.1157 69.6543C52.503 75.8253 49.2782 80.9292 47.1629 85.4402L47.162 85.4421C45.1878 89.664 44.1641 93.374 43.8272 96.96C43.2884 102.532 44.4632 107.661 45.9649 113.562C46.419 115.346 48.2354 116.419 50.0145 115.962L101.049 102.868C102.813 102.415 103.892 100.624 103.45 98.8471C101.981 92.9403 100.511 87.8934 97.3471 83.2305L97.3411 83.2217L97.335 83.213C95.2791 80.2507 92.5832 77.5011 88.8216 74.753L87.637 76.3745L88.8198 74.7517C84.7713 71.801 79.4884 68.8794 72.496 65.7071C72.4811 65.7004 72.4566 65.6882 72.3772 65.6464C72.3663 65.6407 72.3546 65.6346 72.3421 65.628C71.9816 65.4389 70.9584 64.902 69.6544 63.9043C69.3329 63.6573 69.1806 63.0712 69.3447 62.6953" style="fill:var(--sapContent_Illustrative_Color4)"/>
<path fill-rule="evenodd" clip-rule="evenodd" d="M44.0805 47.0765C43.5021 48.0175 42.2703 48.3114 41.3293 47.7329C37.6296 45.4585 33.1066 40.2084 31.4595 33.7891C31.185 32.7192 31.8298 31.6293 32.8997 31.3548C33.9696 31.0803 35.0595 31.7251 35.334 32.795C36.7119 38.1654 40.5686 42.5698 43.4242 44.3253C44.3651 44.9038 44.659 46.1355 44.0805 47.0765Z" style="fill:var(--sapContent_Illustrative_Color6)"/>
<path fill-rule="evenodd" clip-rule="evenodd" d="M18.7283 22.4033C19.7982 22.1288 20.8881 22.7736 21.1626 23.8435L45.2672 117.79C45.5417 118.86 44.8969 119.95 43.827 120.224C42.7571 120.499 41.6672 119.854 41.3927 118.784L17.2881 24.8376C17.0136 23.7677 17.6584 22.6778 18.7283 22.4033Z" style="fill:var(--sapContent_Illustrative_Color4)"/>
<path fill-rule="evenodd" clip-rule="evenodd" d="M83.8455 5.6953C84.9154 5.42078 86.0053 6.06558 86.2798 7.13549L110.384 101.082C110.659 102.152 110.014 103.242 108.944 103.516C107.874 103.791 106.784 103.146 106.51 102.076L82.4053 8.1296C82.1308 7.05969 82.7756 5.96981 83.8455 5.6953Z" style="fill:var(--sapContent_Illustrative_Color4)"/>
<path fill-rule="evenodd" clip-rule="evenodd" d="M94.4417 99.9678C95.7005 99.6449 95.8023 97.8137 94.6138 97.2882C89.6002 95.0711 84.6738 92.1034 80.3677 89.1638C73.4364 84.432 63.1093 87.1864 59.6308 94.824C57.5989 99.2854 55.1715 104.034 52.4579 108.249C51.7909 109.285 52.7438 110.667 53.9375 110.36L94.4417 99.9678ZM101.337 99.7404C101.319 99.7352 101.3 99.7463 101.295 99.7647C101.156 100.269 100.757 100.686 100.215 100.825L49.7636 113.77C49.3609 113.873 48.9541 113.804 48.6221 113.608C48.6044 113.598 48.5817 113.601 48.5686 113.617C48.5529 113.636 48.5573 113.665 48.5785 113.677C48.8677 113.848 49.2221 113.909 49.5732 113.819L100.403 100.777C100.902 100.649 101.26 100.251 101.361 99.7793C101.365 99.762 101.354 99.7451 101.337 99.7404Z" style="fill:var(--sapContent_Illustrative_Color3)"/>
<path fill-rule="evenodd" clip-rule="evenodd" d="M63.0373 65.7036C63.0739 66.0211 63.1348 66.3369 63.2572 66.6322L64.76 70.2573C65.048 70.952 66.0881 70.6961 66.0209 69.9472L65.6809 66.1535C65.6495 65.8039 65.5408 65.4673 65.4071 65.1428C64.8678 63.8342 64.8368 62.3181 65.4144 60.9955L65.4145 60.9953C66.2318 59.1247 67.0393 57.9053 67.3123 57.4931L67.3229 57.4771C67.3733 57.401 67.4568 57.2748 67.555 57.1435C70.0993 53.7386 72.1713 50.7181 73.8413 47.9905C75.0137 46.0757 73.2559 43.8599 71.0811 44.418L48.1773 50.2948C46.0027 50.8528 45.5283 53.6416 47.4773 54.756C50.2585 56.3462 53.527 57.9944 57.3886 59.7469C57.5425 59.8167 57.6813 59.8896 57.7651 59.9336L57.7652 59.9337L57.7658 59.934L57.781 59.942C58.2045 60.1644 59.416 60.8007 60.9404 61.9524C62.1349 62.8544 62.869 64.2464 63.0373 65.7036ZM67.4235 62.0709C67.4233 62.0712 67.4237 62.0716 67.4241 62.0714C67.4241 62.0713 67.4242 62.0712 67.4242 62.0711C67.4446 62.0142 67.4669 61.9579 67.4912 61.9024C68.2301 60.2111 68.9541 59.1181 69.2006 58.746L69.2227 58.7126C69.2669 58.6456 69.3115 58.5785 69.3596 58.5142C73.9134 52.4214 77.0385 47.4583 79.0653 43.1369C79.202 42.8445 79.3337 42.5551 79.4606 42.2685C79.4608 42.2682 79.4605 42.2679 79.4601 42.268C79.46 42.268 79.4599 42.2681 79.4599 42.2682C79.333 42.5549 79.2012 42.8443 79.0645 43.1367C77.0393 47.4547 73.9176 52.4133 69.3696 58.4995C69.3144 58.5734 69.2627 58.6507 69.2118 58.7276L69.1997 58.7458C68.9532 59.118 68.2293 60.2109 67.4904 61.9022C67.4661 61.9577 67.4438 62.014 67.4235 62.0709Z" style="fill:var(--sapContent_Illustrative_Color3)"/>
<rect x="11.1562" y="23.3279" width="81.9252" height="9.35552" rx="3.28407" transform="rotate(-14.3904 11.1562 23.3279)" style="fill:var(--sapContent_Illustrative_Color5)"/>
<rect x="35.1631" y="116.896" width="81.9252" height="9.35552" rx="3.28407" transform="rotate(-14.3904 35.1631 116.896)" style="fill:var(--sapContent_Illustrative_Color5)"/>
</svg>
