<svg width="128" height="128" viewBox="0 0 128 128" fill="none" xmlns="http://www.w3.org/2000/svg" id="tnt-Spot-ChartArea2-alternate">
<rect x="-1.26025" y="46.4551" width="113.183" height="75.5919" rx="6.72132" transform="rotate(-16.24 -1.26025 46.4551)" style="fill:var(--sapContent_Illustrative_Color6)"/>
<path d="M4.87989 49.0339C4.01478 46.0639 5.72112 42.9549 8.69109 42.0898L101.634 15.017C104.604 14.1518 107.713 15.8582 108.578 18.8281L125.677 77.5284C126.542 80.4984 124.836 83.6073 121.866 84.4724L28.9224 111.545C25.9524 112.41 22.8434 110.704 21.9783 107.734L4.87989 49.0339Z" style="fill:var(--sapContent_Illustrative_Color8)"/>
<path fill-rule="evenodd" clip-rule="evenodd" d="M8.13179 40.1697L101.075 13.0968C105.106 11.9228 109.325 14.2384 110.499 18.2689L127.597 76.9691C128.771 80.9996 126.455 85.2186 122.425 86.3926L29.4817 113.466C25.4512 114.64 21.2322 112.324 20.0582 108.293L2.95972 49.5932C1.78571 45.5627 4.10133 41.3437 8.13179 40.1697ZM8.69112 42.0899C5.72114 42.955 4.01481 46.0639 4.87992 49.0339L21.9784 107.734C22.8435 110.704 25.9524 112.41 28.9224 111.545L121.866 84.4724C124.836 83.6073 126.542 80.4984 125.677 77.5284L108.578 18.8282C107.713 15.8582 104.604 14.1519 101.634 15.017L8.69112 42.0899Z" style="fill:var(--sapContent_Illustrative_Color4)"/>
<path d="M4.87989 49.0339C4.01478 46.0639 5.72111 42.9549 8.69109 42.0898L101.634 15.0169C104.604 14.1518 107.713 15.8582 108.578 18.8281L110.821 26.5287L7.12293 56.7344L4.87989 49.0339Z" style="fill:var(--sapContent_Illustrative_Color5)"/>
<circle cx="14.1292" cy="47.8" r="2.5205" transform="rotate(-16.24 14.1292 47.8)" style="fill:var(--sapContent_Illustrative_Color8)"/>
<circle cx="23.2713" cy="45.1369" r="2.5205" transform="rotate(-16.24 23.2713 45.1369)" style="fill:var(--sapContent_Illustrative_Color8)"/>
<circle cx="32.4129" cy="42.4743" r="2.5205" transform="rotate(-16.24 32.4129 42.4743)" style="fill:var(--sapContent_Illustrative_Color8)"/>
<path fill-rule="evenodd" clip-rule="evenodd" d="M102.993 43.312C103.954 43.5823 104.636 44.3998 104.915 45.3577L113.441 74.6285C113.788 75.8221 113.103 77.0715 111.909 77.4191L35.0008 99.8213C33.8072 100.169 32.5579 99.4832 32.2102 98.2897L27.5184 82.1822C27.1949 81.0719 27.4532 79.8649 28.2625 79.0388C32.2494 74.9693 37.9925 71.125 45.9313 70.117C59.9063 68.3426 70.2611 62.897 78.2625 56.8742C80.5599 55.1449 82.6868 53.3778 84.6963 51.7082C91.4477 46.099 96.8746 41.5902 102.993 43.312Z" style="fill:var(--sapContent_Illustrative_Color13)"/>
<path fill-rule="evenodd" clip-rule="evenodd" d="M106.233 49.8867L113.44 74.628C113.788 75.8215 113.102 77.0709 111.909 77.4185L35.0003 99.8207C33.8068 100.168 32.5574 99.4826 32.2098 98.2891L28.5926 85.871C35.832 84.7833 46.7528 82.0499 57.5253 76.2514C62.6991 73.4666 67.5924 69.9649 72.5498 66.4175C82.5684 59.2483 92.8485 51.892 106.233 49.8867Z" style="fill:var(--sapContent_Illustrative_Color3)"/>
<path fill-rule="evenodd" clip-rule="evenodd" d="M107.845 47.3697L115.602 73.9989C116.297 76.3859 114.925 78.8847 112.538 79.58L35.6301 101.982C33.243 102.677 30.7443 101.306 30.0489 98.919L25.7115 84.0281L28.2584 83.6454C35.3082 82.5863 45.9671 79.917 56.4587 74.2698C61.4842 71.5648 66.2607 68.1507 71.2401 64.5874L71.4077 64.4675C81.3196 57.3744 91.9786 49.7467 105.9 47.661L107.845 47.3697ZM30.8296 85.5018C37.9768 84.217 47.8114 81.4806 57.5255 76.2518C62.6993 73.467 67.5927 69.9653 72.55 66.4179C82.5687 59.2487 92.8488 51.8924 106.234 49.8871L113.44 74.6284C113.788 75.8219 113.102 77.0713 111.909 77.4189L35.0006 99.8211C33.8071 100.169 32.5577 99.483 32.21 98.2895L28.5928 85.8713C29.3041 85.7645 30.0509 85.6417 30.8296 85.5018Z" style="fill:var(--sapContent_Illustrative_Color8)"/>
<path fill-rule="evenodd" clip-rule="evenodd" d="M109.853 62.3096L113.441 74.6283C113.788 75.8218 113.103 77.0712 111.909 77.4189L35.0009 99.821C33.8074 100.169 32.558 99.483 32.2103 98.2894L31.5059 95.871C37.9874 89.4539 50.034 81.5128 68.0142 79.0836C85.6678 76.6985 100.598 68.822 109.853 62.3096Z" style="fill:var(--sapContent_Illustrative_Color2)"/>
</svg>
