<svg width="45" height="46" viewBox="0 0 45 46" fill="none" xmlns="http://www.w3.org/2000/svg" id="tnt-Dot-Avatar-alternate">
<path fill-rule="evenodd" clip-rule="evenodd" d="M2.11758 41.9913V39.7357C2.11758 33.7302 6.98599 28.8618 12.9915 28.8618H32.0089C38.0144 28.8618 42.8828 33.7302 42.8828 39.7357V41.9913H2.11758Z" style="fill:var(--sapContent_Illustrative_Color8)"/>
<path fill-rule="evenodd" clip-rule="evenodd" d="M1.11757 42.9913H43.8828V39.7357C43.8828 33.1779 38.5667 27.8618 32.0089 27.8618H12.9915C6.4337 27.8618 1.11757 33.1779 1.11757 39.7357V42.9913ZM2.11757 39.7357C2.11757 33.7302 6.98599 28.8618 12.9915 28.8618H32.0089C38.0144 28.8618 42.8828 33.7302 42.8828 39.7357V41.9913H2.11757V39.7357Z" style="fill:var(--sapContent_Illustrative_Color4)"/>
<path d="M30.3506 37.8453C30.3506 37.1387 29.7778 36.566 29.0713 36.566H15.9287C15.2222 36.566 14.6494 37.1387 14.6494 37.8453V41.9913H30.3506V37.8453Z" style="fill:var(--sapContent_Illustrative_Color3)"/>
<path fill-rule="evenodd" clip-rule="evenodd" d="M9.26367 13.2355V17.8046V22.3737C9.26367 22.3737 6.05313 21.9024 6.17787 18.4688V17.8046V17.1409C6.05313 13.7068 9.26367 13.2355 9.26367 13.2355Z" style="fill:var(--sapContent_Illustrative_Color4)"/>
<path fill-rule="evenodd" clip-rule="evenodd" d="M35.9536 13.2355V17.8046V22.3737C35.9536 22.3737 39.1642 21.9024 39.0394 18.4688V17.8046V17.1409C39.1642 13.7068 35.9536 13.2355 35.9536 13.2355Z" style="fill:var(--sapContent_Illustrative_Color4)"/>
<path d="M9.21809 17.2721C9.26146 21.1449 10.3544 23.0883 13.2448 25.5985C18.4483 29.3295 27.6065 28.6331 31.918 25.5866C34.5281 23.809 36.0443 20.9855 36 16.969C35.912 9.40485 30.4725 2.54058 22.6014 2.62349C14.7338 2.70554 9.13094 9.7063 9.21809 17.2721Z" style="fill:var(--sapContent_Illustrative_Color8)"/>
<path fill-rule="evenodd" clip-rule="evenodd" d="M12.6255 26.383L12.6633 26.4101C15.4992 28.4435 19.3286 29.2244 22.9417 29.1325C26.5462 29.0407 30.1222 28.0755 32.4876 26.4072C35.4012 24.4197 37.0464 21.2652 36.999 16.958L36.999 16.9574C36.9062 8.9789 31.1408 1.53487 22.5913 1.62492C14.072 1.71378 8.12761 9.27126 8.21992 17.2836C8.24267 19.3133 8.54162 20.9298 9.27049 22.3918C9.99487 23.8449 11.1019 25.0598 12.5904 26.3525L12.6255 26.383ZM9.21849 17.2721C9.26186 21.1449 10.3548 23.0883 13.2452 25.5985C18.4487 29.3295 27.6069 28.6331 31.9184 25.5866C34.5285 23.809 36.0446 20.9855 36.0004 16.969C35.9124 9.40487 30.4729 2.5406 22.6018 2.6235C14.7341 2.70556 9.13133 9.70632 9.21849 17.2721Z" style="fill:var(--sapContent_Illustrative_Color4)"/>
<path fill-rule="evenodd" clip-rule="evenodd" d="M11.8523 17.524C11.9173 23.288 16.3021 25.7864 22.7942 25.7178C29.2859 25.6468 33.5208 23.0326 33.4573 17.2722C33.3903 11.511 29.0444 7.77299 22.5523 7.8416C16.0626 7.9098 11.7857 11.7616 11.8523 17.524Z" style="fill:var(--sapContent_Illustrative_Color4)"/>
<circle cx="3.3467" cy="3.3467" r="3.3467" transform="matrix(-0.983212 -0.182469 -0.182469 0.983212 31.3242 11.4203)" style="fill:var(--sapContent_Illustrative_Color5)"/>
<path fill-rule="evenodd" clip-rule="evenodd" d="M22.5077 28.3888H22.8019C22.8019 28.3888 29.1229 28.6038 32.9444 25.2541C32.9555 25.2443 32.9725 25.2485 32.9716 25.2634C32.9414 25.7628 32.3854 31.4423 22.8019 31.4423H22.5077C12.9237 31.4423 12.3681 25.7628 12.3379 25.2634C12.3371 25.2485 12.3541 25.2443 12.3652 25.2541C16.1866 28.6038 22.5077 28.3888 22.5077 28.3888Z" style="fill:var(--sapContent_Illustrative_Color4)"/>
</svg>
