<svg width="45" height="46" viewBox="0 0 45 46" fill="none" xmlns="http://www.w3.org/2000/svg" id="tnt-Dot-FaceID-alternate">
<path fill-rule="evenodd" clip-rule="evenodd" d="M11.4277 8.40796C11.98 8.40796 12.4277 8.85567 12.4277 9.40796L12.4277 18.8026C12.4277 19.3549 11.98 19.8026 11.4277 19.8026C10.8754 19.8026 10.4277 19.3549 10.4277 18.8026L10.4277 9.40796C10.4277 8.85567 10.8754 8.40796 11.4277 8.40796Z" style="fill:var(--sapContent_Illustrative_Color5)"/>
<ellipse cx="11.3751" cy="7.42761" rx="2.71593" ry="2.71716" style="fill:var(--sapContent_Illustrative_Color5)"/>
<path fill-rule="evenodd" clip-rule="evenodd" d="M0.771021 38.2532C0.704656 39.3558 1.60646 40.2541 2.71103 40.2541H41.9444C43.049 40.2541 43.9508 39.3558 43.8844 38.2532C43.0547 24.4674 33.7204 13.6006 22.3277 13.6006C10.935 13.6006 1.6008 24.4674 0.771021 38.2532Z" style="fill:var(--sapContent_Illustrative_Color8)"/>
<path fill-rule="evenodd" clip-rule="evenodd" d="M42.8862 38.3133C42.0767 24.864 33.0189 14.6006 22.3277 14.6006C11.6365 14.6006 2.57874 24.864 1.76921 38.3133C1.73978 38.8024 2.14296 39.2541 2.71103 39.2541H41.9444C42.5125 39.2541 42.9157 38.8024 42.8862 38.3133ZM2.71103 40.2541C1.60646 40.2541 0.704656 39.3558 0.771021 38.2532C1.6008 24.4674 10.935 13.6006 22.3277 13.6006C33.7204 13.6006 43.0547 24.4674 43.8844 38.2532C43.9508 39.3558 43.049 40.2541 41.9444 40.2541H2.71103Z" style="fill:var(--sapContent_Illustrative_Color5)"/>
<path fill-rule="evenodd" clip-rule="evenodd" d="M8.6656 34.0624C8.59768 34.6607 9.07788 35.1694 9.68 35.1694H34.975C35.5771 35.1694 36.0573 34.6607 35.9894 34.0624C35.0517 25.8023 29.2924 19.4453 22.3275 19.4453C15.3626 19.4453 9.60328 25.8023 8.6656 34.0624Z" style="fill:var(--sapContent_Illustrative_Color5)"/>
<ellipse cx="17.2181" cy="27.3783" rx="2.34991" ry="2.34899" style="fill:var(--sapContent_Illustrative_Color9)"/>
<ellipse cx="27.4251" cy="27.3783" rx="2.34991" ry="2.34899" style="fill:var(--sapContent_Illustrative_Color9)"/>
<rect x="14.9863" y="44.8901" width="36.8393" height="1.66221" rx="0.831106" transform="rotate(-90 14.9863 44.8901)" style="fill:var(--sapContent_Illustrative_Color3)"/>
<path fill-rule="evenodd" clip-rule="evenodd" d="M33.2773 8.40796C33.8296 8.40796 34.2773 8.85567 34.2773 9.40796L34.2773 18.8026C34.2773 19.3549 33.8296 19.8026 33.2773 19.8026C32.7251 19.8026 32.2773 19.3549 32.2773 18.8026L32.2773 9.40796C32.2773 8.85567 32.7251 8.40796 33.2773 8.40796Z" style="fill:var(--sapContent_Illustrative_Color5)"/>
<ellipse cx="33.2804" cy="7.42761" rx="2.71593" ry="2.71716" style="fill:var(--sapContent_Illustrative_Color4)"/>
<path fill-rule="evenodd" clip-rule="evenodd" d="M15.3887 40.2541V15.0035C17.5667 14.0938 19.9005 13.6006 22.3277 13.6006C33.7204 13.6006 43.0547 24.4674 43.8844 38.2532C43.9508 39.3558 43.049 40.2541 41.9444 40.2541H15.3887Z" style="fill:var(--sapContent_Illustrative_Color8)"/>
<path fill-rule="evenodd" clip-rule="evenodd" d="M16.3887 15.6829V39.2541H41.9444C42.5125 39.2541 42.9157 38.8024 42.8862 38.3133C42.0767 24.864 33.0189 14.6006 22.3277 14.6006C20.2641 14.6006 18.2709 14.9782 16.3887 15.6829ZM15.3887 15.0035V40.2541H41.9444C43.049 40.2541 43.9508 39.3558 43.8844 38.2532C43.0547 24.4674 33.7204 13.6006 22.3277 13.6006C19.9005 13.6006 17.5667 14.0938 15.3887 15.0035Z" style="fill:var(--sapContent_Illustrative_Color4)"/>
<path fill-rule="evenodd" clip-rule="evenodd" d="M15.3887 35.1694V21.7478C17.4271 20.284 19.7978 19.4453 22.3275 19.4453C29.2924 19.4453 35.0517 25.8023 35.9894 34.0624C36.0573 34.6607 35.5771 35.1694 34.975 35.1694H15.3887Z" style="fill:var(--sapContent_Illustrative_Color4)"/>
<path fill-rule="evenodd" clip-rule="evenodd" d="M15.3887 28.8528V25.9038C15.8194 25.3704 16.4789 25.0293 17.2181 25.0293C18.5159 25.0293 19.568 26.081 19.568 27.3783C19.568 28.6756 18.5159 29.7273 17.2181 29.7273C16.4789 29.7273 15.8194 29.3861 15.3887 28.8528ZM29.775 27.3783C29.775 28.6756 28.7229 29.7273 27.4251 29.7273C26.1273 29.7273 25.0752 28.6756 25.0752 27.3783C25.0752 26.081 26.1273 25.0293 27.4251 25.0293C28.7229 25.0293 29.775 26.081 29.775 27.3783Z" style="fill:var(--sapContent_Illustrative_Color9)"/>
<path fill-rule="evenodd" clip-rule="evenodd" d="M19.6885 31.9518C19.7785 31.6907 20.063 31.552 20.3241 31.6419C21.497 32.0459 22.7714 32.0459 23.9443 31.6419C24.2054 31.552 24.4899 31.6907 24.5799 31.9518C24.6698 32.2129 24.5311 32.4974 24.27 32.5874C22.886 33.0641 21.3824 33.0641 19.9984 32.5874C19.7373 32.4974 19.5986 32.2129 19.6885 31.9518Z" style="fill:var(--sapContent_Illustrative_Color6)"/>
<rect x="14.9863" y="44.8901" width="36.8393" height="1.66221" rx="0.831106" transform="rotate(-90 14.9863 44.8901)" style="fill:var(--sapContent_Illustrative_Color3)"/>
</svg>
