<svg width="320" height="241" viewBox="0 0 320 241" fill="none" xmlns="http://www.w3.org/2000/svg" id="tnt-Scene-Compass-alternate">
<path d="M130.352 145.328H33.9433C26.384 145.328 19.1343 148.331 13.789 153.676C8.4438 159.022 5.44092 166.271 5.44092 173.831C5.44092 181.39 8.4438 188.64 13.789 193.985C19.1343 199.33 26.384 202.333 33.9433 202.333H130.392C137.952 202.333 145.201 199.33 150.547 193.985C155.892 188.64 158.895 181.39 158.895 173.831C158.895 166.271 155.892 159.022 150.547 153.676C145.201 148.331 137.952 145.328 130.392 145.328H130.352Z" style="fill:var(--sapContent_Illustrative_Color7)"/>
<path d="M165.474 173.621H69.0146C61.549 173.761 54.4364 176.825 49.2061 182.154C43.9758 187.483 41.0457 194.652 41.0457 202.118C41.0457 209.585 43.9758 216.754 49.2061 222.083C54.4364 227.412 61.549 230.476 69.0146 230.616H165.474C172.939 230.476 180.052 227.412 185.282 222.083C190.512 216.754 193.443 209.585 193.443 202.118C193.443 194.652 190.512 187.483 185.282 182.154C180.052 176.825 172.939 173.761 165.474 173.621Z" style="fill:var(--sapContent_Illustrative_Color7)"/>
<path d="M290.964 94.8026H194.515C190.728 94.7317 186.965 95.4165 183.445 96.8167C179.925 98.217 176.72 100.305 174.017 102.958C171.314 105.611 169.166 108.777 167.7 112.27C166.234 115.762 165.479 119.512 165.479 123.3C165.479 127.088 166.234 130.838 167.7 134.331C169.166 137.823 171.314 140.989 174.017 143.642C176.72 146.295 179.925 148.383 183.445 149.783C186.965 151.184 190.728 151.868 194.515 151.797H290.964C294.751 151.868 298.515 151.184 302.034 149.783C305.554 148.383 308.759 146.295 311.462 143.642C314.166 140.989 316.313 137.823 317.779 134.331C319.245 130.838 320 127.088 320 123.3C320 119.512 319.245 115.762 317.779 112.27C316.313 108.777 314.166 105.611 311.462 102.958C308.759 100.305 305.554 98.217 302.034 96.8167C298.515 95.4165 294.751 94.7317 290.964 94.8026Z" style="fill:var(--sapContent_Illustrative_Color7)"/>
<path d="M219.084 42.7695H37.767C27.7505 42.7695 18.1444 46.7485 11.0617 53.8312C3.979 60.9139 0 70.52 0 80.5364C0 90.5529 3.979 100.159 11.0617 107.242C18.1444 114.324 27.7505 118.303 37.767 118.303H219.084C229.101 118.303 238.707 114.324 245.789 107.242C252.872 100.159 256.851 90.5529 256.851 80.5364C256.851 70.52 252.872 60.9139 245.789 53.8312C238.707 46.7485 229.101 42.7695 219.084 42.7695Z" style="fill:var(--sapContent_Illustrative_Color7)"/>
<path fill-rule="evenodd" clip-rule="evenodd" d="M230.893 59.3159L205.725 48.1884C198.222 44.8712 194.829 36.0997 198.146 28.5969C201.463 21.094 210.235 17.7008 217.738 21.018L242.906 32.1455C250.409 35.4627 253.802 44.2341 250.485 51.737C247.167 59.2399 238.396 62.6331 230.893 59.3159ZM203.299 53.676C192.765 49.0188 188.001 36.7043 192.659 26.1707C197.316 15.6371 209.63 10.8733 220.164 15.5304L245.332 26.6579C255.866 31.3151 260.629 43.6296 255.972 54.1632C251.315 64.6968 239.001 69.4606 228.467 64.8034L203.299 53.676Z" style="fill:var(--sapContent_Illustrative_Color4)"/>
<path d="M202.174 47.1333C203.961 43.0923 208.685 41.2648 212.726 43.0514L229.979 50.6796C234.02 52.4662 235.848 57.1904 234.061 61.2313L227.33 76.4561C225.543 80.4971 220.819 82.3246 216.778 80.538L199.525 72.9098C195.484 71.1232 193.656 66.399 195.443 62.3581L202.174 47.1333Z" style="fill:var(--sapContent_Illustrative_Color5)"/>
<path d="M246.746 175.928C227.855 218.656 177.903 237.98 135.175 219.089C92.4467 200.198 73.1231 150.245 92.0143 107.517C110.905 64.7892 160.858 45.4656 203.586 64.3568C246.314 83.2479 265.637 133.2 246.746 175.928Z" style="fill:var(--sapContent_Illustrative_Color6)"/>
<path d="M254.858 173.522C236.576 214.871 188.237 233.571 146.888 215.289C105.54 197.008 86.8401 148.669 105.121 107.32C123.403 65.9715 171.742 47.2718 213.091 65.553C254.439 83.8342 273.139 132.174 254.858 173.522Z" style="fill:var(--sapContent_Illustrative_Color8)"/>
<path fill-rule="evenodd" clip-rule="evenodd" d="M257.602 174.735C238.65 217.599 188.539 236.984 145.675 218.033C102.812 199.082 83.4265 148.971 102.378 106.107C121.329 63.2431 171.44 43.858 214.304 62.8092C257.168 81.7604 276.553 131.872 257.602 174.735ZM146.889 215.289C188.237 233.571 236.577 214.871 254.858 173.522C273.139 132.174 254.439 83.8343 213.091 65.553C171.742 47.2718 123.403 65.9715 105.121 107.32C86.8402 148.669 105.54 197.008 146.889 215.289Z" style="fill:var(--sapContent_Illustrative_Color4)"/>
<path d="M239.427 166.7C224.914 199.527 186.537 214.373 153.71 199.859C120.883 185.346 106.037 146.969 120.551 114.142C135.064 81.3149 173.441 66.469 206.268 80.9826C239.095 95.4962 253.941 133.873 239.427 166.7Z" style="fill:var(--sapContent_Illustrative_Color6)"/>
<path fill-rule="evenodd" clip-rule="evenodd" d="M163.698 177.269C165.213 177.939 165.898 179.711 165.228 181.226L160.323 192.322C159.653 193.837 157.881 194.522 156.366 193.852C154.85 193.182 154.165 191.411 154.835 189.895L159.741 178.8C160.411 177.284 162.182 176.599 163.698 177.269Z" style="fill:var(--sapContent_Illustrative_Color4)"/>
<path fill-rule="evenodd" clip-rule="evenodd" d="M203.564 87.0997C205.079 87.7696 205.764 89.5412 205.095 91.0566L200.189 102.152C199.519 103.668 197.747 104.353 196.232 103.683C194.717 103.013 194.031 101.241 194.701 99.7261L199.607 88.6304C200.277 87.115 202.048 86.4297 203.564 87.0997Z" style="fill:var(--sapContent_Illustrative_Color4)"/>
<path fill-rule="evenodd" clip-rule="evenodd" d="M143.171 124.209C142.501 125.724 140.73 126.409 139.214 125.739L128.118 120.834C126.603 120.164 125.918 118.392 126.588 116.877C127.258 115.361 129.029 114.676 130.545 115.346L141.64 120.252C143.156 120.922 143.841 122.693 143.171 124.209Z" style="fill:var(--sapContent_Illustrative_Color4)"/>
<path fill-rule="evenodd" clip-rule="evenodd" d="M233.341 164.075C232.671 165.59 230.899 166.275 229.384 165.605L218.288 160.7C216.773 160.03 216.087 158.258 216.757 156.743C217.427 155.228 219.199 154.542 220.714 155.212L231.81 160.118C233.325 160.788 234.011 162.559 233.341 164.075Z" style="fill:var(--sapContent_Illustrative_Color4)"/>
<path d="M235.401 121.522L184.8 154.526L175.179 126.317L235.401 121.522Z" style="fill:var(--sapContent_Illustrative_Color17)"/>
<path d="M124.578 159.321L184.801 154.526L175.179 126.316L124.578 159.321Z" style="fill:var(--sapContent_Illustrative_Color3)"/>
<path d="M183.776 151.525C177.644 153.617 170.976 150.341 168.884 144.208C166.793 138.076 170.069 131.408 176.201 129.316C182.334 127.225 189.002 130.501 191.093 136.633C193.185 142.766 189.909 149.434 183.776 151.525Z" style="fill:var(--sapContent_Illustrative_Color8)"/>
<path fill-rule="evenodd" clip-rule="evenodd" d="M184.745 154.365C177.044 156.992 168.672 152.878 166.045 145.177C163.418 137.476 167.532 129.104 175.233 126.477C182.934 123.85 191.306 127.964 193.933 135.665C196.559 143.366 192.446 151.738 184.745 154.365ZM168.884 144.208C170.976 150.341 177.643 153.617 183.776 151.525C189.909 149.434 193.185 142.766 191.093 136.633C189.002 130.501 182.334 127.225 176.201 129.316C170.068 131.408 166.793 138.076 168.884 144.208Z" style="fill:var(--sapContent_Illustrative_Color4)"/>
<path d="M83.2879 87.9416L87.6242 65.905L23.7574 21.7005L83.2879 87.9416Z" style="fill:var(--sapContent_Illustrative_Color14)"/>
<path d="M87.2287 66.4453L112.348 57.9447L23.7569 21.7005L87.2287 66.4453Z" style="fill:var(--sapContent_Illustrative_Color2)"/>
<path d="M24.0518 21.7501L71.8583 75.1153L41.4027 89.6579L24.0518 21.7501Z" style="fill:var(--sapContent_Illustrative_Color2)"/>
</svg>
