<svg width="45" height="45" id="tnt-Dot-Secrets-alternate" xmlns="http://www.w3.org/2000/svg" viewBox="0 0 45 45">
    <path d="m28.9,22.13v-11.67c0-3.53-2.86-6.39-6.39-6.39s-6.39,2.86-6.39,6.39v11.67c0,3.53,2.86,6.39,6.39,6.39s6.39-2.86,6.39-6.39ZM22.5.7c-5.39,0-9.76,4.37-9.76,9.76v11.67c0,5.39,4.37,9.76,9.76,9.76s9.76-4.37,9.76-9.76v-11.67c0-5.39-4.37-9.76-9.76-9.76Z" style="fill:var(--sapContent_Illustrative_Color5)" fill-rule="evenodd" />
    <path d="m36.3,29.98c0,7.62-6.18,13.8-13.8,13.8s-13.8-6.18-13.8-13.8,6.18-13.8,13.8-13.8,13.8,6.18,13.8,13.8Z" style="fill:var(--sapContent_Illustrative_Color8)" />
    <path d="m22.5,16.68c-7.34,0-13.3,5.95-13.3,13.3s5.95,13.3,13.3,13.3,13.3-5.95,13.3-13.3-5.95-13.3-13.3-13.3Zm-14.3,13.3c0-7.9,6.4-14.3,14.3-14.3s14.3,6.4,14.3,14.3-6.4,14.3-14.3,14.3-14.3-6.4-14.3-14.3Z" style="fill:var(--sapContent_Illustrative_Color4)" fill-rule="evenodd" />
    <path d="m24.28,30.68c1.36-.66,2.3-2.06,2.3-3.67,0-2.25-1.83-4.08-4.08-4.08s-4.08,1.83-4.08,4.08c0,1.61.94,3.01,2.3,3.67v4.58c0,.98.8,1.78,1.78,1.78s1.78-.8,1.78-1.78v-4.58Z" style="fill:var(--sapContent_Illustrative_Color3)" fill-rule="evenodd" />
</svg>