<svg width="160" height="161" viewBox="0 0 160 161" fill="none" xmlns="http://www.w3.org/2000/svg" id="tnt-Dialog-Compass-alternate">
<path fill-rule="evenodd" clip-rule="evenodd" d="M114.69 35.6859L96.209 27.515C90.9998 25.2119 88.644 19.122 90.9471 13.9128C93.2502 8.70359 99.3401 6.34775 104.549 8.65087L123.03 16.8217C128.239 19.1248 130.595 25.2148 128.292 30.424C125.989 35.6332 119.899 37.989 114.69 35.6859ZM94.1872 32.088C86.4524 28.6683 82.9544 19.6257 86.3741 11.891C89.7939 4.15617 98.8364 0.658135 106.571 4.07788L125.052 12.2487C132.787 15.6685 136.285 24.711 132.865 32.4458C129.445 40.1806 120.403 43.6786 112.668 40.2589L94.1872 32.088Z" style="fill:var(--sapContent_Illustrative_Color4)"/>
<path d="M93.3619 27.2838C94.6738 24.3165 98.1427 22.9746 101.11 24.2865L113.779 29.8878C116.746 31.1997 118.088 34.6687 116.776 37.6359L111.834 48.8154C110.522 51.7827 107.053 53.1246 104.086 51.8127L91.4164 46.2114C88.4492 44.8995 87.1073 41.4305 88.4192 38.4633L93.3619 27.2838Z" style="fill:var(--sapContent_Illustrative_Color5)"/>
<path d="M124.019 122.328C110.234 153.507 73.7833 167.608 42.604 153.823C11.4247 140.038 -2.67608 103.587 11.1091 72.4077C24.8943 41.2284 61.3452 27.1276 92.5245 40.9128C123.704 54.6979 137.805 91.1488 124.019 122.328Z" style="fill:var(--sapContent_Illustrative_Color6)"/>
<path d="M132.048 120.091C118.624 150.453 83.1283 164.184 52.7662 150.76C22.4041 137.336 8.67295 101.841 22.0968 71.4788C35.5206 41.1167 71.0162 27.3855 101.378 40.8094C131.74 54.2332 145.472 89.7288 132.048 120.091Z" style="fill:var(--sapContent_Illustrative_Color8)"/>
<path fill-rule="evenodd" clip-rule="evenodd" d="M134.334 121.102C120.352 152.727 83.3799 167.029 51.755 153.047C20.1301 139.065 5.82784 102.093 19.81 70.4679C33.7922 38.843 70.764 24.5407 102.389 38.5229C134.014 52.5051 148.316 89.4769 134.334 121.102ZM52.7659 150.76C83.128 164.184 118.624 150.453 132.047 120.091C145.471 89.7288 131.74 54.2332 101.378 40.8094C71.0159 27.3855 35.5203 41.1167 22.0965 71.4788C8.67264 101.841 22.4038 137.336 52.7659 150.76Z" style="fill:var(--sapContent_Illustrative_Color4)"/>
<path d="M120.717 115.081C110.06 139.186 81.8797 150.087 57.7751 139.43C33.6704 128.773 22.7692 100.593 33.4264 76.4879C44.0837 52.3832 72.2638 41.482 96.3685 52.1392C120.473 62.7965 131.374 90.9766 120.717 115.081Z" style="fill:var(--sapContent_Illustrative_Color6)"/>
<path fill-rule="evenodd" clip-rule="evenodd" d="M65.2291 122.57C66.4919 123.129 67.063 124.605 66.5047 125.868L62.9025 134.015C62.3442 135.278 60.8679 135.849 59.6051 135.291C58.3423 134.733 57.7712 133.256 58.3295 131.993L61.9317 123.846C62.49 122.583 63.9663 122.012 65.2291 122.57Z" style="fill:var(--sapContent_Illustrative_Color4)"/>
<path fill-rule="evenodd" clip-rule="evenodd" d="M94.5026 56.3594C95.7654 56.9177 96.3365 58.394 95.7781 59.6568L92.1759 67.8043C91.6176 69.0671 90.1413 69.6382 88.8785 69.0799C87.6157 68.5216 87.0446 67.0453 87.6029 65.7825L91.2052 57.6349C91.7635 56.3721 93.2398 55.801 94.5026 56.3594Z" style="fill:var(--sapContent_Illustrative_Color4)"/>
<path fill-rule="evenodd" clip-rule="evenodd" d="M50.3073 83.9999C49.749 85.2627 48.2727 85.8338 47.0099 85.2755L38.8623 81.6732C37.5996 81.1149 37.0285 79.6386 37.5868 78.3758C38.1451 77.113 39.6214 76.5419 40.8842 77.1002L49.0317 80.7025C50.2945 81.2608 50.8656 82.7371 50.3073 83.9999Z" style="fill:var(--sapContent_Illustrative_Color4)"/>
<path fill-rule="evenodd" clip-rule="evenodd" d="M116.519 113.274C115.961 114.537 114.485 115.108 113.222 114.549L105.074 110.947C103.811 110.389 103.24 108.913 103.799 107.65C104.357 106.387 105.833 105.816 107.096 106.374L115.244 109.976C116.506 110.535 117.078 112.011 116.519 113.274Z" style="fill:var(--sapContent_Illustrative_Color4)"/>
<path d="M117.761 81.9072L80.6048 106.142L73.5397 85.428L117.761 81.9072Z" style="fill:var(--sapContent_Illustrative_Color17)"/>
<path d="M36.3846 109.663L80.6055 106.142L73.5404 85.4276L36.3846 109.663Z" style="fill:var(--sapContent_Illustrative_Color3)"/>
<path d="M79.8526 103.939C75.3493 105.475 70.4535 103.069 68.9175 98.5659C67.3815 94.0626 69.787 89.1667 74.2903 87.6307C78.7937 86.0947 83.6895 88.5003 85.2255 93.0036C86.7615 97.5069 84.356 102.403 79.8526 103.939Z" style="fill:var(--sapContent_Illustrative_Color8)"/>
<path fill-rule="evenodd" clip-rule="evenodd" d="M80.6596 106.305C74.8495 108.287 68.533 105.183 66.5513 99.3729C64.5696 93.5628 67.6731 87.2463 73.4833 85.2646C79.2934 83.2828 85.6099 86.3864 87.5916 92.1965C89.5733 98.0066 86.4698 104.323 80.6596 106.305ZM68.9174 98.5659C70.4534 103.069 75.3493 105.475 79.8526 103.939C84.3559 102.403 86.7614 97.5069 85.2255 93.0036C83.6895 88.5002 78.7936 86.0947 74.2903 87.6307C69.787 89.1667 67.3815 94.0625 68.9174 98.5659Z" style="fill:var(--sapContent_Illustrative_Color4)"/>
</svg>
