<svg width="161" height="160" viewBox="0 0 161 160" fill="none" xmlns="http://www.w3.org/2000/svg" id="tnt-Dialog-ChartBullet-alternate">
<rect x="-1.47461" y="59.9194" width="141.756" height="94.6754" rx="8.41815" transform="rotate(-16.24 -1.47461 59.9194)" style="fill:var(--sapContent_Illustrative_Color6)"/>
<path d="M6.21577 63.1493C5.13226 59.4295 7.26937 55.5357 10.9891 54.4522L127.396 20.5446C131.116 19.4611 135.01 21.5982 136.093 25.318L157.508 98.8374C158.592 102.557 156.455 106.451 152.735 107.534L36.3279 141.442C32.6081 142.526 28.7143 140.388 27.6308 136.669L6.21577 63.1493Z" style="fill:var(--sapContent_Illustrative_Color8)"/>
<path fill-rule="evenodd" clip-rule="evenodd" d="M10.2898 52.0519L126.697 18.1443C131.742 16.6747 137.024 19.5734 138.493 24.6187L159.909 98.1381C161.378 103.184 158.479 108.465 153.434 109.935L37.0268 143.842C31.9814 145.312 26.7 142.413 25.2303 137.368L3.81531 63.8484C2.34568 58.803 5.24438 53.5215 10.2898 52.0519ZM10.9889 54.4521C7.26916 55.5356 5.13206 59.4295 6.21556 63.1492L27.6306 136.669C28.7141 140.388 32.6079 142.525 36.3277 141.442L152.735 107.534C156.455 106.451 158.592 102.557 157.508 98.8373L136.093 25.3179C135.01 21.5981 131.116 19.461 127.396 20.5445L10.9889 54.4521Z" style="fill:var(--sapContent_Illustrative_Color4)"/>
<path d="M6.21577 63.1493C5.13226 59.4295 7.26937 55.5357 10.9891 54.4522L127.396 20.5446C131.116 19.4611 135.01 21.5982 136.093 25.318L138.903 34.9626L9.02508 72.7939L6.21577 63.1493Z" style="fill:var(--sapContent_Illustrative_Color5)"/>
<circle cx="17.8004" cy="61.6041" r="3.15681" transform="rotate(-16.24 17.8004 61.6041)" style="fill:var(--sapContent_Illustrative_Color8)"/>
<circle cx="29.2501" cy="58.2691" r="3.15681" transform="rotate(-16.24 29.2501 58.2691)" style="fill:var(--sapContent_Illustrative_Color8)"/>
<circle cx="40.7003" cy="54.9341" r="3.15681" transform="rotate(-16.24 40.7003 54.9341)" style="fill:var(--sapContent_Illustrative_Color8)"/>
<rect x="21.7139" y="78" width="114.258" height="54.2213" rx="3.4494" transform="rotate(-16.24 21.7139 78)" style="fill:var(--sapContent_Illustrative_Color7)"/>
<rect x="55.4121" y="118.675" width="19.3766" height="11.6259" rx="1.37989" transform="rotate(-106.24 55.4121 118.675)" style="fill:var(--sapContent_Illustrative_Color14)"/>
<rect x="74.8301" y="113.019" width="42.7318" height="11.6259" rx="1.37976" transform="rotate(-106.24 74.8301 113.019)" style="fill:var(--sapContent_Illustrative_Color3)"/>
<rect x="94.248" y="107.363" width="33.6323" height="11.6259" rx="1.37989" transform="rotate(-106.24 94.248 107.363)" style="fill:var(--sapContent_Illustrative_Color2)"/>
<rect x="113.666" y="101.707" width="24.3351" height="11.6259" rx="1.37976" transform="rotate(-106.24 113.666 101.707)" style="fill:var(--sapContent_Illustrative_Color13)"/>
<path fill-rule="evenodd" clip-rule="evenodd" d="M44.5335 90.5634C44.3737 90.0146 44.689 89.4403 45.2377 89.2804L59.3724 85.1632C59.9211 85.0034 60.4955 85.3186 60.6553 85.8673C60.8151 86.4161 60.4999 86.9904 59.9512 87.1503L45.8165 91.2675C45.2678 91.4273 44.6934 91.1121 44.5335 90.5634Z" style="fill:var(--sapContent_Illustrative_Color4)"/>
<path fill-rule="evenodd" clip-rule="evenodd" d="M67.8421 98.264C67.6823 97.7153 67.9976 97.1409 68.5463 96.9811L82.681 92.8639C83.2297 92.7041 83.8041 93.0193 83.9639 93.568C84.1237 94.1167 83.8085 94.6911 83.2598 94.851L69.1251 98.9682C68.5764 99.128 68.002 98.8127 67.8421 98.264Z" style="fill:var(--sapContent_Illustrative_Color4)"/>
<path fill-rule="evenodd" clip-rule="evenodd" d="M84.6732 83.7274C84.5134 83.1787 84.8286 82.6043 85.3773 82.4445L99.512 78.3273C100.061 78.1674 100.635 78.4827 100.795 79.0314C100.955 79.5801 100.64 80.1545 100.091 80.3143L85.9561 84.4315C85.4074 84.5914 84.833 84.2761 84.6732 83.7274Z" style="fill:var(--sapContent_Illustrative_Color4)"/>
<path fill-rule="evenodd" clip-rule="evenodd" d="M101.952 70.725C101.792 70.1763 102.107 69.6019 102.656 69.442L116.79 65.3248C117.339 65.165 117.913 65.4802 118.073 66.029C118.233 66.5777 117.918 67.1521 117.369 67.3119L103.234 71.4291C102.686 71.5889 102.111 71.2737 101.952 70.725Z" style="fill:var(--sapContent_Illustrative_Color4)"/>
</svg>
