<svg width="320" height="240" viewBox="0 0 320 240" fill="none" xmlns="http://www.w3.org/2000/svg" id="tnt-Scene-SessionExpired-alternate">
<path d="M130.352 144.918H33.9433C26.384 144.918 19.1343 147.921 13.789 153.267C8.4438 158.612 5.44092 165.862 5.44092 173.421C5.44092 180.98 8.4438 188.23 13.789 193.575C19.1343 198.92 26.384 201.923 33.9433 201.923H130.392C137.952 201.923 145.201 198.92 150.547 193.575C155.892 188.23 158.895 180.98 158.895 173.421C158.895 165.862 155.892 158.612 150.547 153.267C145.201 147.921 137.952 144.918 130.392 144.918H130.352Z" style="fill:var(--sapContent_Illustrative_Color7)"/>
<path d="M165.474 173.211H69.0149C61.5493 173.351 54.4366 176.415 49.2063 181.744C43.9761 187.073 41.0459 194.242 41.0459 201.709C41.0459 209.176 43.9761 216.344 49.2063 221.673C54.4366 227.002 61.5493 230.066 69.0149 230.206H165.474C172.939 230.066 180.052 227.002 185.282 221.673C190.513 216.344 193.443 209.176 193.443 201.709C193.443 194.242 190.513 187.073 185.282 181.744C180.052 176.415 172.939 173.351 165.474 173.211Z" style="fill:var(--sapContent_Illustrative_Color7)"/>
<path d="M290.964 94.3927H194.515C190.728 94.3218 186.965 95.0065 183.445 96.4068C179.926 97.8071 176.721 99.8949 174.017 102.548C171.314 105.201 169.166 108.367 167.7 111.86C166.235 115.352 165.479 119.102 165.479 122.89C165.479 126.678 166.235 130.428 167.7 133.921C169.166 137.413 171.314 140.579 174.017 143.232C176.721 145.885 179.926 147.973 183.445 149.373C186.965 150.774 190.728 151.458 194.515 151.388H290.964C294.752 151.458 298.515 150.774 302.034 149.373C305.554 147.973 308.759 145.885 311.463 143.232C314.166 140.579 316.313 137.413 317.779 133.921C319.245 130.428 320 126.678 320 122.89C320 119.102 319.245 115.352 317.779 111.86C316.313 108.367 314.166 105.201 311.463 102.548C308.759 99.8949 305.554 97.8071 302.034 96.4068C298.515 95.0065 294.752 94.3218 290.964 94.3927Z" style="fill:var(--sapContent_Illustrative_Color7)"/>
<path d="M219.084 42.3596H37.767C27.7505 42.3596 18.1444 46.3386 11.0617 53.4213C3.979 60.504 0 70.1102 0 80.1266C0 90.143 3.979 99.7492 11.0617 106.832C18.1444 113.915 27.7505 117.894 37.767 117.894H219.084C229.101 117.894 238.707 113.915 245.789 106.832C252.872 99.7492 256.851 90.143 256.851 80.1266C256.851 70.1102 252.872 60.504 245.789 53.4213C238.707 46.3386 229.101 42.3596 219.084 42.3596Z" style="fill:var(--sapContent_Illustrative_Color7)"/>
<path fill-rule="evenodd" clip-rule="evenodd" d="M198.259 144.744C191.952 140.148 183.617 135.523 172.398 130.433C172.283 130.381 172.17 130.322 172.059 130.263C171.492 129.965 169.596 128.992 167.178 127.142C165.467 125.831 164.811 123.278 165.673 121.303C166.92 118.449 168.141 116.644 168.494 116.109C168.561 116.007 168.629 115.904 168.702 115.807C176.107 105.901 181.187 97.8322 184.482 90.8072C187.546 84.2545 189.083 78.6113 189.589 73.2329C190.404 64.8069 188.636 56.9786 186.181 47.3408C185.908 46.2704 184.818 45.6257 183.748 45.9002L100.886 67.1607C99.8249 67.433 99.1795 68.5091 99.4437 69.5726C101.829 79.1728 104.1 86.8783 108.889 93.9387C111.981 98.394 116.075 102.592 121.915 106.86C128.222 111.457 136.557 116.082 147.776 121.171C147.892 121.223 148.006 121.283 148.119 121.343C148.672 121.634 150.485 122.565 152.811 124.322C154.634 125.699 155.335 128.428 154.406 130.517C153.197 133.237 152.032 134.963 151.685 135.49C151.615 135.596 151.545 135.702 151.469 135.803C144.066 145.707 138.986 153.773 135.692 160.798C132.628 167.349 131.09 172.994 130.586 178.372C129.77 186.798 131.539 194.625 133.994 204.264C134.266 205.334 135.357 205.979 136.426 205.705L219.289 184.444C220.351 184.172 220.996 183.095 220.732 182.032C218.347 172.432 216.076 164.726 211.286 157.666C208.193 153.211 204.1 149.011 198.259 144.744Z" style="fill:var(--sapContent_Illustrative_Color8)"/>
<path fill-rule="evenodd" clip-rule="evenodd" d="M184.483 90.8072C181.188 97.8323 176.107 105.901 168.703 115.807C168.629 115.905 168.561 116.007 168.494 116.109C168.481 116.129 168.467 116.15 168.452 116.173C168.051 116.778 166.875 118.554 165.674 121.303C164.811 123.278 165.467 125.831 167.178 127.142C169.507 128.924 171.352 129.892 171.991 130.227C172.015 130.24 172.038 130.252 172.059 130.263C172.171 130.322 172.283 130.381 172.398 130.433C183.617 135.523 191.952 140.148 198.259 144.744C204.1 149.011 208.194 153.211 211.286 157.666C216.076 164.726 218.347 172.432 220.732 182.032C220.996 183.095 220.351 184.172 219.289 184.444L136.427 205.705C135.357 205.979 134.266 205.334 133.994 204.264C131.539 194.625 129.77 186.798 130.586 178.372C131.091 172.994 132.629 167.349 135.692 160.798C138.986 153.773 144.066 145.707 151.47 135.803C151.545 135.702 151.615 135.596 151.685 135.491C151.698 135.471 151.712 135.449 151.728 135.425C152.121 134.831 153.243 133.134 154.407 130.517C155.335 128.428 154.634 125.699 152.811 124.322C150.573 122.631 148.81 121.705 148.187 121.378C148.162 121.365 148.14 121.354 148.119 121.343C148.006 121.283 147.892 121.223 147.776 121.171C136.558 116.082 128.222 111.457 121.916 106.861C116.075 102.592 111.981 98.3941 108.889 93.9388C104.1 86.8784 101.829 79.1728 99.444 69.5727C99.1798 68.5092 99.8252 67.4331 100.887 67.1607L183.748 45.9003C184.818 45.6258 185.909 46.2705 186.181 47.3409C188.636 56.9787 190.405 64.807 189.589 73.233C189.083 78.6114 187.546 84.2545 184.483 90.8072ZM192.575 73.5172C192.032 79.2887 190.385 85.2647 187.2 92.0778L187.199 92.0812C183.783 99.3635 178.571 107.615 171.105 117.603C171.093 117.62 171.071 117.651 170.997 117.763C170.984 117.782 170.97 117.803 170.955 117.826C170.586 118.383 169.521 119.991 168.423 122.504C168.111 123.217 168.389 124.29 169.001 124.76C171.129 126.387 172.799 127.264 173.389 127.573C173.413 127.586 173.436 127.598 173.456 127.608C173.579 127.673 173.615 127.691 173.637 127.701C184.953 132.834 193.49 137.556 200.026 142.32L198.261 144.742L200.029 142.322C206.098 146.756 210.441 151.187 213.751 155.956L213.76 155.969L213.769 155.982C218.885 163.523 221.255 171.693 223.643 181.309C224.307 183.979 222.686 186.67 220.035 187.35L137.172 208.611C134.499 209.296 131.77 207.686 131.087 205.004C128.639 195.395 126.728 187.097 127.6 178.087C128.142 172.316 129.79 166.339 132.975 159.527L132.976 159.524C136.391 152.242 141.602 143.993 149.067 134.007C149.081 133.988 149.104 133.955 149.181 133.839C149.194 133.819 149.208 133.798 149.223 133.775C149.586 133.225 150.602 131.69 151.665 129.299C152.029 128.48 151.709 127.249 151.003 126.716L151.002 126.716C148.959 125.172 147.364 124.335 146.788 124.032C146.764 124.02 146.742 124.008 146.721 123.997C146.596 123.931 146.56 123.913 146.537 123.903C135.222 118.77 126.684 114.048 120.149 109.285L120.146 109.283C114.077 104.848 109.734 100.418 106.424 95.6493L106.415 95.6361L106.406 95.6228C101.291 88.082 98.9214 79.9118 96.5325 70.296C95.8693 67.6262 97.4905 64.9349 100.141 64.2549L183.003 42.9944C185.676 42.3086 188.405 43.9186 189.088 46.6005C191.536 56.2095 193.447 64.5081 192.575 73.5172Z" style="fill:var(--sapContent_Illustrative_Color4)"/>
<path fill-rule="evenodd" clip-rule="evenodd" d="M127.416 97.0781C126.548 98.4896 124.701 98.9304 123.289 98.0627C117.33 94.399 110.021 85.9201 107.361 75.5538C106.95 73.9489 107.917 72.3141 109.522 71.9024C111.126 71.4906 112.761 72.4578 113.173 74.0626C115.429 82.8555 121.738 90.0661 126.432 92.9513C127.843 93.819 128.284 95.6667 127.416 97.0781Z" style="fill:var(--sapContent_Illustrative_Color6)"/>
<path fill-rule="evenodd" clip-rule="evenodd" d="M86.1874 57.1743C87.7923 56.7625 89.4271 57.7297 89.8388 59.3346L129.135 212.491C129.547 214.096 128.58 215.73 126.975 216.142C125.37 216.554 123.735 215.587 123.324 213.982L84.0271 60.8258C83.6153 59.2209 84.5825 57.5861 86.1874 57.1743Z" style="fill:var(--sapContent_Illustrative_Color4)"/>
<path fill-rule="evenodd" clip-rule="evenodd" d="M192.009 30.0232C193.614 29.6114 195.249 30.5786 195.661 32.1835L234.957 185.34C235.369 186.945 234.402 188.579 232.797 188.991C231.192 189.403 229.557 188.436 229.145 186.831L189.849 33.6746C189.437 32.0698 190.404 30.4349 192.009 30.0232Z" style="fill:var(--sapContent_Illustrative_Color4)"/>
<path fill-rule="evenodd" clip-rule="evenodd" d="M209.901 183.052C211.817 182.56 211.97 179.779 210.157 178.986C201.271 175.104 192.536 169.747 185.075 164.555C174.588 157.256 158.87 161.446 153.661 173.114C150.162 180.953 145.877 189.474 141.039 196.936C140.019 198.51 141.467 200.61 143.284 200.144L209.901 183.052ZM220.7 182.799C220.658 182.788 220.614 182.813 220.602 182.855C220.37 183.664 219.727 184.331 218.854 184.555L136.866 205.591C136.22 205.757 135.568 205.649 135.032 205.341C134.991 205.317 134.938 205.325 134.908 205.362C134.871 205.406 134.881 205.472 134.931 205.5C135.367 205.752 135.899 205.84 136.426 205.704L219.289 184.444C220.061 184.245 220.613 183.622 220.755 182.887C220.762 182.848 220.738 182.81 220.7 182.799Z" style="fill:var(--sapContent_Illustrative_Color6)"/>
<rect x="74.1245" y="58.6152" width="133.136" height="15.2035" rx="5" transform="rotate(-14.3904 74.1245 58.6152)" style="fill:var(--sapContent_Illustrative_Color5)"/>
<rect x="113.139" y="210.67" width="133.136" height="15.2035" rx="5" transform="rotate(-14.3904 113.139 210.67)" style="fill:var(--sapContent_Illustrative_Color5)"/>
<path d="M68.3076 16.2644C67.9991 16.6254 67.7937 17.063 67.713 17.5309C67.6322 17.9989 67.6791 18.4799 67.8486 18.9235L71.6067 29.5791C72.2274 31.3417 74.0177 31.7766 75.3992 31.2897C75.9718 31.1111 76.4709 30.7515 76.8216 30.2648C77.1723 29.7781 77.3555 29.1908 77.3438 28.591C77.3295 28.3014 77.2715 28.0156 77.1717 27.7434L73.4137 17.0878C73.2584 16.617 72.9787 16.1968 72.6043 15.8719C72.2298 15.5469 71.7745 15.3293 71.2864 15.2419C70.7439 15.1446 70.1855 15.1874 69.6642 15.3663C69.1429 15.5453 68.6759 15.8544 68.3076 16.2644Z" style="fill:var(--sapContent_Illustrative_Color5)"/>
<path d="M31.529 65.415C31.4748 65.7505 31.4911 66.0936 31.5769 66.4224C31.6626 66.7513 31.8161 67.0586 32.0273 67.3249C32.2385 67.5911 32.503 67.8103 32.8037 67.9686C33.1044 68.1269 33.4348 68.2208 33.7739 68.2442L44.7075 69.5038C45.1007 69.5478 45.4988 69.5129 45.8785 69.4013C46.2581 69.2897 46.6117 69.1036 46.9187 68.8538C47.2256 68.604 47.4797 68.2956 47.6661 67.9465C47.8526 67.5974 47.9676 67.2147 48.0045 66.8207C48.0242 66.6586 48.0306 66.4953 48.0237 66.3322C48.0066 65.7292 47.7643 65.1544 47.3444 64.7213C46.9246 64.2882 46.3578 64.028 45.7557 63.9922L34.8267 62.7359C34.4336 62.6912 34.0355 62.7254 33.6558 62.8365C33.2761 62.9476 32.9223 63.1333 32.6153 63.3828C32.3082 63.6323 32.054 63.9405 31.8674 64.2894C31.6809 64.6384 31.5659 65.021 31.529 65.415Z" style="fill:var(--sapContent_Illustrative_Color5)"/>
<path d="M41.0726 36.0519C41.1107 36.4213 41.2238 36.7789 41.4049 37.103C41.586 37.4272 41.8313 37.7109 42.1258 37.937L55.2347 48.2117C55.8252 48.6692 56.5697 48.8808 57.3125 48.8021C58.0554 48.7234 58.739 48.3606 59.2205 47.7895C59.6649 47.258 59.8934 46.5788 59.8606 45.8867C59.841 45.4878 59.7357 45.0979 59.5518 44.7434C59.3679 44.3889 59.1097 44.0782 58.7949 43.8325L45.686 33.5578C45.0926 33.0972 44.3438 32.8847 43.5969 32.9648C42.8501 33.0449 42.1634 33.4114 41.6811 33.9873C41.4459 34.2727 41.2707 34.6027 41.1661 34.9575C41.0616 35.3123 41.0297 35.6845 41.0726 36.0519Z" style="fill:var(--sapContent_Illustrative_Color5)"/>
</svg>
