<svg width="320" height="241" viewBox="0 0 320 241" fill="none" xmlns="http://www.w3.org/2000/svg" id="tnt-Scene-NoUsers-alternate">
<path d="M130.353 145.031H33.9438C26.3845 145.031 19.1348 148.034 13.7895 153.379C8.44429 158.725 5.44141 165.974 5.44141 173.534C5.44141 181.093 8.44429 188.343 13.7895 193.688C19.1348 199.033 26.3845 202.036 33.9438 202.036H130.393C137.952 202.036 145.202 199.033 150.547 193.688C155.892 188.343 158.895 181.093 158.895 173.534C158.895 165.974 155.892 158.725 150.547 153.379C145.202 148.034 137.952 145.031 130.393 145.031H130.353Z" style="fill:var(--sapContent_Illustrative_Color7)"/>
<path d="M165.474 173.324H69.0149C61.5493 173.464 54.4366 176.528 49.2063 181.857C43.9761 187.186 41.0459 194.354 41.0459 201.821C41.0459 209.288 43.9761 216.457 49.2063 221.786C54.4366 227.115 61.5493 230.179 69.0149 230.319H165.474C172.939 230.179 180.052 227.115 185.282 221.786C190.513 216.457 193.443 209.288 193.443 201.821C193.443 194.354 190.513 187.186 185.282 181.857C180.052 176.528 172.939 173.464 165.474 173.324Z" style="fill:var(--sapContent_Illustrative_Color7)"/>
<path d="M290.964 94.5055H194.515C190.728 94.4346 186.965 95.1193 183.445 96.5196C179.926 97.9199 176.721 100.008 174.017 102.661C171.314 105.314 169.166 108.48 167.7 111.972C166.235 115.465 165.479 119.215 165.479 123.003C165.479 126.791 166.235 130.541 167.7 134.033C169.166 137.526 171.314 140.692 174.017 143.345C176.721 145.998 179.926 148.086 183.445 149.486C186.965 150.886 190.728 151.571 194.515 151.5H290.964C294.752 151.571 298.515 150.886 302.034 149.486C305.554 148.086 308.759 145.998 311.463 143.345C314.166 140.692 316.313 137.526 317.779 134.033C319.245 130.541 320 126.791 320 123.003C320 119.215 319.245 115.465 317.779 111.972C316.313 108.48 314.166 105.314 311.463 102.661C308.759 100.008 305.554 97.9199 302.034 96.5196C298.515 95.1193 294.752 94.4346 290.964 94.5055Z" style="fill:var(--sapContent_Illustrative_Color7)"/>
<path d="M219.084 42.4724H37.767C27.7505 42.4724 18.1444 46.4514 11.0617 53.5341C3.979 60.6168 0 70.2229 0 80.2394C0 90.2558 3.979 99.8619 11.0617 106.945C18.1444 114.027 27.7505 118.006 37.767 118.006H219.084C229.101 118.006 238.707 114.027 245.789 106.945C252.872 99.8619 256.851 90.2558 256.851 80.2394C256.851 70.2229 252.872 60.6168 245.789 53.5341C238.707 46.4514 229.101 42.4724 219.084 42.4724Z" style="fill:var(--sapContent_Illustrative_Color7)"/>
<path d="M78.3555 137.586C78.3555 114.304 88.234 93.3292 104.028 78.6248L99.3757 67.8554C97.6643 63.8943 100.569 59.4758 104.884 59.4758H212.908C217.223 59.4758 220.128 63.8942 218.416 67.8554L213.764 78.6248C229.558 93.3292 239.437 114.304 239.437 137.586C239.437 167.925 222.66 194.347 197.878 208.08C196.767 208.505 195.65 208.912 194.528 209.299H123.264C122.142 208.912 121.025 208.505 119.914 208.08C95.1316 194.347 78.3555 167.925 78.3555 137.586Z" style="fill:var(--sapContent_Illustrative_Color8)"/>
<path fill-rule="evenodd" clip-rule="evenodd" d="M199.147 210.807L198.949 210.883C197.807 211.319 196.66 211.737 195.507 212.135L195.031 212.299H122.761L122.285 212.135C121.132 211.737 119.985 211.319 118.843 210.883L118.645 210.807L118.46 210.704C92.7621 196.464 75.3555 169.06 75.3555 137.586C75.3555 114.202 84.9666 93.0582 100.446 77.8977L96.6217 69.0452C94.0547 63.1035 98.4111 56.4758 104.884 56.4758H212.908C219.381 56.4758 223.737 63.1035 221.17 69.0452L217.346 77.8977C232.825 93.0582 242.437 114.202 242.437 137.586C242.437 169.06 225.03 196.464 199.332 210.704L199.147 210.807ZM213.764 78.6248L218.416 67.8554C220.128 63.8942 217.223 59.4758 212.908 59.4758H104.884C100.569 59.4758 97.6643 63.8943 99.3757 67.8554L104.028 78.6248C88.234 93.3292 78.3555 114.304 78.3555 137.586C78.3555 167.925 95.1316 194.347 119.914 208.08C121.025 208.505 122.142 208.912 123.264 209.299H194.528C195.65 208.912 196.767 208.505 197.878 208.08C222.66 194.347 239.437 167.925 239.437 137.586C239.437 114.304 229.558 93.3292 213.764 78.6248Z" style="fill:var(--sapContent_Illustrative_Color4)"/>
<path fill-rule="evenodd" clip-rule="evenodd" d="M126.376 78.0982C127.321 79.4591 126.984 81.3284 125.623 82.2735C110.236 92.9587 104.233 106.949 103.174 112.163C102.844 113.787 101.261 114.836 99.637 114.506C98.0133 114.177 96.9643 112.593 97.294 110.969C98.6486 104.298 105.496 88.9455 122.201 77.3452C123.561 76.4002 125.431 76.7373 126.376 78.0982Z" style="fill:var(--sapContent_Illustrative_Color6)"/>
<path fill-rule="evenodd" clip-rule="evenodd" d="M88.4617 123.345C109.425 131.022 134.096 128.957 165.472 116.815C187.79 108.178 208.738 108.743 226.232 112.767C229.235 120.692 230.878 129.285 230.878 138.263C230.878 165.379 215.885 188.993 193.736 201.267C192.826 201.614 191.912 201.948 190.995 202.268C190.827 202.326 190.651 202.355 190.474 202.355H127.318C127.141 202.355 126.965 202.326 126.797 202.268C125.88 201.948 124.966 201.614 124.056 201.267C101.907 188.993 86.9141 165.379 86.9141 138.263C86.9141 133.148 87.4475 128.158 88.4617 123.345Z" style="fill:var(--sapContent_Illustrative_Color19)"/>
<path fill-rule="evenodd" clip-rule="evenodd" d="M192.003 201.91C191.667 202.031 191.331 202.15 190.995 202.268C190.842 202.321 190.683 202.35 190.522 202.355H158.022V164.868H192.003V201.91Z" style="fill:var(--sapContent_Illustrative_Color2)"/>
<path fill-rule="evenodd" clip-rule="evenodd" d="M198.37 145.886V164.864H151.654V145.886H158.768V150.611H165.179V145.886H171.8V150.611H178.223V145.886H184.847V150.611H191.256V145.886H198.37Z" style="fill:var(--sapContent_Illustrative_Color2)"/>
<path fill-rule="evenodd" clip-rule="evenodd" d="M175.051 180.84C170.444 180.84 166.707 184.574 166.707 189.183V202.355H183.394V189.183C183.394 184.574 179.659 180.84 175.051 180.84Z" style="fill:var(--sapContent_Illustrative_Color4)"/>
<path fill-rule="evenodd" clip-rule="evenodd" d="M158.022 164.864H192.003V167.187H160.956L158.022 164.864Z" style="fill:var(--sapContent_Illustrative_Color4)"/>
<path fill-rule="evenodd" clip-rule="evenodd" d="M126.937 202.309C126.89 202.298 126.843 202.284 126.797 202.268C125.88 201.948 124.966 201.614 124.056 201.267C123.182 200.782 122.32 200.28 121.469 199.761C122.026 197.451 122.244 190.168 116.558 180.505C109.978 169.326 108.159 158.613 108.103 154.336C108.081 152.679 109.406 151.319 111.063 151.297C112.72 151.275 114.08 152.6 114.102 154.257C114.145 157.499 115.682 167.188 121.728 177.462C128.366 188.74 128.345 198.063 127.084 201.942C127.043 202.069 126.993 202.192 126.937 202.309ZM140.658 202.355H134.943C134.793 201.887 134.756 201.374 134.858 200.857C136.065 194.775 134.586 189.669 132.401 184.53C131.853 183.241 131.27 181.972 130.674 180.673L130.674 180.673L130.668 180.661C130.077 179.371 129.469 178.047 128.908 176.719C127.788 174.068 126.785 171.247 126.355 168.246C126.12 166.606 127.26 165.086 128.9 164.852C130.54 164.617 132.06 165.756 132.295 167.396C132.617 169.649 133.394 171.92 134.435 174.384C134.955 175.614 135.523 176.855 136.122 178.158L136.143 178.205C136.514 179.012 136.895 179.842 137.272 180.69C141.539 176.818 142.409 172.568 142.398 171.337C142.383 169.68 143.713 168.325 145.37 168.309C147.027 168.294 148.382 169.625 148.398 171.282C148.426 174.414 146.627 180.887 140.176 186.098C139.984 186.254 139.778 186.381 139.564 186.482C141.064 191.023 141.912 196.134 140.744 202.024C140.721 202.137 140.693 202.248 140.658 202.355Z" style="fill:var(--sapContent_Illustrative_Color4)"/>
<circle cx="122.682" cy="140.813" r="3.15681" style="fill:var(--sapContent_Illustrative_Color8)"/>
<circle cx="218.167" cy="140.303" r="3.66634" style="fill:var(--sapContent_Illustrative_Color8)"/>
<circle cx="190.619" cy="126.948" r="2.30555" style="fill:var(--sapContent_Illustrative_Color8)"/>
<circle cx="97.8749" cy="151.317" r="2.30555" style="fill:var(--sapContent_Illustrative_Color8)"/>
<path d="M77.0038 18.7138C76.6954 19.0749 76.49 19.5124 76.4093 19.9804C76.3285 20.4483 76.3754 20.9294 76.5449 21.373L80.303 32.0285C80.9236 33.7911 82.714 34.226 84.0954 33.7392C84.6681 33.5606 85.1672 33.2009 85.5179 32.7143C85.8686 32.2276 86.0518 31.6402 86.0401 31.0405C86.0258 30.7509 85.9678 30.4651 85.868 30.1929L82.11 19.5373C81.9547 19.0664 81.675 18.6463 81.3005 18.3213C80.9261 17.9964 80.4707 17.7787 79.9827 17.6914C79.4402 17.594 78.8818 17.6368 78.3605 17.8158C77.8392 17.9947 77.3722 18.3038 77.0038 18.7138Z" style="fill:var(--sapContent_Illustrative_Color5)"/>
<path d="M40.2248 67.8644C40.1706 68.1999 40.1869 68.543 40.2727 68.8719C40.3584 69.2007 40.5119 69.5081 40.7231 69.7743C40.9343 70.0406 41.1988 70.2598 41.4995 70.4181C41.8002 70.5764 42.1306 70.6702 42.4697 70.6936L53.4033 71.9533C53.7965 71.9972 54.1946 71.9624 54.5743 71.8508C54.9539 71.7392 55.3075 71.553 55.6145 71.3033C55.9214 71.0535 56.1755 70.7451 56.3619 70.396C56.5484 70.0469 56.6634 69.6642 56.7003 69.2702C56.72 69.1081 56.7264 68.9447 56.7195 68.7816C56.7024 68.1786 56.4601 67.6039 56.0402 67.1708C55.6204 66.7376 55.0536 66.4775 54.4515 66.4416L43.5225 65.1853C43.1294 65.1407 42.7313 65.1749 42.3516 65.286C41.9719 65.3971 41.6182 65.5828 41.3111 65.8323C41.004 66.0818 40.7498 66.39 40.5632 66.7389C40.3767 67.0878 40.2617 67.4705 40.2248 67.8644Z" style="fill:var(--sapContent_Illustrative_Color5)"/>
<path d="M49.7679 38.5014C49.806 38.8707 49.9191 39.2284 50.1002 39.5525C50.2813 39.8766 50.5266 40.1604 50.8211 40.3865L63.93 50.6612C64.5205 51.1187 65.265 51.3302 66.0079 51.2515C66.7507 51.1728 67.4343 50.81 67.9158 50.2389C68.3602 49.7074 68.5887 49.0283 68.5559 48.3362C68.5363 47.9373 68.431 47.5473 68.2471 47.1928C68.0632 46.8383 67.8051 46.5276 67.4902 46.2819L54.3814 36.0072C53.7879 35.5467 53.0391 35.3342 52.2922 35.4143C51.5454 35.4944 50.8587 35.8609 50.3764 36.4368C50.1412 36.7222 49.966 37.0522 49.8614 37.407C49.7569 37.7618 49.725 38.134 49.7679 38.5014Z" style="fill:var(--sapContent_Illustrative_Color5)"/>
</svg>
