<svg width="320" height="241" viewBox="0 0 320 241" fill="none" xmlns="http://www.w3.org/2000/svg" id="tnt-Scene-Dialog-alternate">
<path d="M130.352 145.328H33.9433C26.384 145.328 19.1343 148.331 13.789 153.676C8.4438 159.022 5.44092 166.271 5.44092 173.831C5.44092 181.39 8.4438 188.64 13.789 193.985C19.1343 199.33 26.384 202.333 33.9433 202.333H130.392C137.952 202.333 145.201 199.33 150.547 193.985C155.892 188.64 158.895 181.39 158.895 173.831C158.895 166.271 155.892 159.022 150.547 153.676C145.201 148.331 137.952 145.328 130.392 145.328H130.352Z" style="fill:var(--sapContent_Illustrative_Color7)"/>
<path d="M165.474 173.621H69.0149C61.5493 173.761 54.4366 176.825 49.2063 182.154C43.9761 187.483 41.0459 194.652 41.0459 202.118C41.0459 209.585 43.9761 216.754 49.2063 222.083C54.4366 227.412 61.5493 230.476 69.0149 230.616H165.474C172.939 230.476 180.052 227.412 185.282 222.083C190.513 216.754 193.443 209.585 193.443 202.118C193.443 194.652 190.513 187.483 185.282 182.154C180.052 176.825 172.939 173.761 165.474 173.621Z" style="fill:var(--sapContent_Illustrative_Color7)"/>
<path d="M290.964 94.8027H194.515C190.728 94.7318 186.965 95.4165 183.445 96.8168C179.926 98.2171 176.721 100.305 174.017 102.958C171.314 105.611 169.166 108.777 167.7 112.27C166.235 115.762 165.479 119.512 165.479 123.3C165.479 127.088 166.235 130.838 167.7 134.331C169.166 137.823 171.314 140.989 174.017 143.642C176.721 146.295 179.926 148.383 183.445 149.783C186.965 151.184 190.728 151.868 194.515 151.798H290.964C294.752 151.868 298.515 151.184 302.034 149.783C305.554 148.383 308.759 146.295 311.463 143.642C314.166 140.989 316.313 137.823 317.779 134.331C319.245 130.838 320 127.088 320 123.3C320 119.512 319.245 115.762 317.779 112.27C316.313 108.777 314.166 105.611 311.463 102.958C308.759 100.305 305.554 98.2171 302.034 96.8168C298.515 95.4165 294.752 94.7318 290.964 94.8027Z" style="fill:var(--sapContent_Illustrative_Color7)"/>
<path d="M219.084 42.7695H37.767C27.7505 42.7695 18.1444 46.7485 11.0617 53.8312C3.979 60.9139 0 70.5201 0 80.5365C0 90.5529 3.979 100.159 11.0617 107.242C18.1444 114.324 27.7505 118.303 37.767 118.303H219.084C229.101 118.303 238.707 114.324 245.789 107.242C252.872 100.159 256.851 90.5529 256.851 80.5365C256.851 70.5201 252.872 60.9139 245.789 53.8312C238.707 46.7485 229.101 42.7695 219.084 42.7695Z" style="fill:var(--sapContent_Illustrative_Color7)"/>
<path fill-rule="evenodd" clip-rule="evenodd" d="M215.784 139.077C186.223 139.077 162.26 115.113 162.26 85.5525C162.26 55.9918 186.223 32.0281 215.784 32.0281C245.345 32.0281 269.308 55.9918 269.308 85.5525C269.308 95.0964 266.811 104.057 262.433 111.816L271.055 131.895C272.278 134.743 269.708 137.915 266.795 137.151L243.853 131.136C235.692 136.171 226.077 139.077 215.784 139.077Z" style="fill:var(--sapContent_Illustrative_Color2)"/>
<path d="M200.736 85.5525C200.736 89.393 197.622 92.5063 193.782 92.5063C189.941 92.5063 186.828 89.393 186.828 85.5525C186.828 81.712 189.941 78.5986 193.782 78.5986C197.622 78.5986 200.736 81.712 200.736 85.5525Z" style="fill:var(--sapContent_Illustrative_Color8)"/>
<path d="M223.767 85.5525C223.767 89.393 220.653 92.5063 216.813 92.5063C212.972 92.5063 209.859 89.393 209.859 85.5525C209.859 81.712 212.972 78.5986 216.813 78.5986C220.653 78.5986 223.767 81.712 223.767 85.5525Z" style="fill:var(--sapContent_Illustrative_Color8)"/>
<path d="M246.799 85.5525C246.799 89.393 243.685 92.5063 239.845 92.5063C236.004 92.5063 232.891 89.393 232.891 85.5525C232.891 81.712 236.004 78.5986 239.845 78.5986C243.685 78.5986 246.799 81.712 246.799 85.5525Z" style="fill:var(--sapContent_Illustrative_Color8)"/>
<path fill-rule="evenodd" clip-rule="evenodd" d="M117.462 209.716C157.641 209.716 190.212 177.145 190.212 136.966C190.212 96.7877 157.641 64.2165 117.462 64.2165C77.2833 64.2165 44.712 96.7877 44.712 136.966C44.712 149.938 48.107 162.117 54.057 172.663L41.3714 202.204C40.092 205.183 42.7807 208.501 45.8271 207.702L79.3112 198.923C90.4031 205.767 103.471 209.716 117.462 209.716Z" style="fill:var(--sapContent_Illustrative_Color6)"/>
<path fill-rule="evenodd" clip-rule="evenodd" d="M129.181 202.258C167.594 202.258 198.734 171.118 198.734 132.705C198.734 94.2912 167.594 63.1509 129.181 63.1509C90.767 63.1509 59.6267 94.2912 59.6267 132.705C59.6267 145.107 62.8729 156.751 68.5619 166.834L56.4342 195.076C55.211 197.925 57.7816 201.097 60.6942 200.333L92.7063 191.939C103.311 198.483 115.805 202.258 129.181 202.258Z" style="fill:var(--sapContent_Illustrative_Color8)"/>
<path fill-rule="evenodd" clip-rule="evenodd" d="M201.734 132.705C201.734 172.775 169.251 205.258 129.18 205.258C115.696 205.258 103.062 201.577 92.2397 195.163L61.455 203.235C55.8658 204.7 51.5766 198.785 53.6775 193.893L65.227 166.997C59.739 156.783 56.6267 145.103 56.6267 132.705C56.6267 92.6343 89.1101 60.1509 129.18 60.1509C169.251 60.1509 201.734 92.6343 201.734 132.705ZM68.5618 166.834C62.8728 156.751 59.6267 145.107 59.6267 132.705C59.6267 94.2912 90.767 63.1509 129.18 63.1509C167.594 63.1509 198.734 94.2912 198.734 132.705C198.734 171.118 167.594 202.258 129.18 202.258C115.805 202.258 103.311 198.483 92.7062 191.939L60.6941 200.333C57.7815 201.097 55.2109 197.925 56.4341 195.076L68.5618 166.834Z" style="fill:var(--sapContent_Illustrative_Color4)"/>
<path d="M104.989 132.705C104.989 138.087 100.626 142.449 95.2446 142.449C89.8628 142.449 85.5 138.087 85.5 132.705C85.5 127.323 89.8628 122.96 95.2446 122.96C100.626 122.96 104.989 127.323 104.989 132.705Z" style="fill:var(--sapContent_Illustrative_Color3)"/>
<path d="M137.263 132.705C137.263 138.087 132.9 142.449 127.518 142.449C122.136 142.449 117.773 138.087 117.773 132.705C117.773 127.323 122.136 122.96 127.518 122.96C132.9 122.96 137.263 127.323 137.263 132.705Z" style="fill:var(--sapContent_Illustrative_Color3)"/>
<path d="M169.538 132.705C169.538 138.087 165.175 142.449 159.793 142.449C154.412 142.449 150.049 138.087 150.049 132.705C150.049 127.323 154.412 122.96 159.793 122.96C165.175 122.96 169.538 127.323 169.538 132.705Z" style="fill:var(--sapContent_Illustrative_Color3)"/>
</svg>
