<svg width="320" height="241" viewBox="0 0 320 241" fill="none" xmlns="http://www.w3.org/2000/svg" id="tnt-Scene-MissionFailed-alternate">
<path d="M130.353 145.328H33.9438C26.3845 145.328 19.1348 148.331 13.7895 153.676C8.44429 159.022 5.44141 166.271 5.44141 173.831C5.44141 181.39 8.44429 188.64 13.7895 193.985C19.1348 199.33 26.3845 202.333 33.9438 202.333H130.393C137.952 202.333 145.202 199.33 150.547 193.985C155.892 188.64 158.895 181.39 158.895 173.831C158.895 166.271 155.892 159.022 150.547 153.676C145.202 148.331 137.952 145.328 130.393 145.328H130.353Z" style="fill:var(--sapContent_Illustrative_Color7)"/>
<path d="M165.474 173.621H69.0149C61.5493 173.761 54.4366 176.825 49.2063 182.154C43.9761 187.483 41.0459 194.652 41.0459 202.118C41.0459 209.585 43.9761 216.754 49.2063 222.083C54.4366 227.412 61.5493 230.476 69.0149 230.616H165.474C172.939 230.476 180.052 227.412 185.282 222.083C190.513 216.754 193.443 209.585 193.443 202.118C193.443 194.652 190.513 187.483 185.282 182.154C180.052 176.825 172.939 173.761 165.474 173.621Z" style="fill:var(--sapContent_Illustrative_Color7)"/>
<path d="M290.964 94.8026H194.515C190.728 94.7317 186.965 95.4165 183.445 96.8167C179.926 98.217 176.721 100.305 174.017 102.958C171.314 105.611 169.166 108.777 167.7 112.27C166.235 115.762 165.479 119.512 165.479 123.3C165.479 127.088 166.235 130.838 167.7 134.331C169.166 137.823 171.314 140.989 174.017 143.642C176.721 146.295 179.926 148.383 183.445 149.783C186.965 151.184 190.728 151.868 194.515 151.797H290.964C294.752 151.868 298.515 151.184 302.034 149.783C305.554 148.383 308.759 146.295 311.463 143.642C314.166 140.989 316.313 137.823 317.779 134.331C319.245 130.838 320 127.088 320 123.3C320 119.512 319.245 115.762 317.779 112.27C316.313 108.777 314.166 105.611 311.463 102.958C308.759 100.305 305.554 98.217 302.034 96.8167C298.515 95.4165 294.752 94.7317 290.964 94.8026Z" style="fill:var(--sapContent_Illustrative_Color7)"/>
<path d="M219.084 42.7695H37.767C27.7505 42.7695 18.1444 46.7485 11.0617 53.8312C3.979 60.9139 0 70.52 0 80.5364C0 90.5529 3.979 100.159 11.0617 107.242C18.1444 114.324 27.7505 118.303 37.767 118.303H219.084C229.101 118.303 238.707 114.324 245.789 107.242C252.872 100.159 256.851 90.5529 256.851 80.5364C256.851 70.52 252.872 60.9139 245.789 53.8312C238.707 46.7485 229.101 42.7695 219.084 42.7695Z" style="fill:var(--sapContent_Illustrative_Color7)"/>
<path fill-rule="evenodd" clip-rule="evenodd" d="M232.281 152.695C238.057 152.695 242.739 148.013 242.739 142.237C242.739 136.46 238.057 131.778 232.281 131.778C226.504 131.778 221.822 136.46 221.822 142.237C221.822 148.013 226.504 152.695 232.281 152.695ZM244.692 193.257H174.415C167.735 188.14 163.427 180.08 163.427 171.015C163.427 155.55 175.963 143.014 191.428 143.014C204.993 143.014 216.305 152.66 218.879 165.468C218.956 165.467 219.033 165.467 219.11 165.467C233.286 165.467 244.778 176.959 244.778 191.135C244.778 191.849 244.749 192.557 244.692 193.257ZM128.014 193.257H34.7994C34.4171 191.297 34.2168 189.273 34.2168 187.201C34.2168 169.834 48.2958 155.755 65.663 155.755C76.1096 155.755 85.3665 160.849 91.0851 168.688C95.0426 165.623 100.01 163.799 105.403 163.799C118.328 163.799 128.805 174.276 128.805 187.201C128.805 189.296 128.53 191.326 128.014 193.257Z" style="fill:var(--sapContent_Illustrative_Color20)"/>
<path fill-rule="evenodd" clip-rule="evenodd" d="M19.3623 193.306C19.3623 192.478 20.0339 191.806 20.8623 191.806L249.146 191.806C249.975 191.806 250.646 192.478 250.646 193.306C250.646 194.135 249.975 194.806 249.146 194.806L20.8623 194.806C20.0339 194.806 19.3623 194.135 19.3623 193.306Z" style="fill:var(--sapContent_Illustrative_Color4)"/>
<path fill-rule="evenodd" clip-rule="evenodd" d="M281.486 193.368C281.486 194.197 280.815 194.868 279.986 194.868H263.583C262.755 194.868 262.083 194.197 262.083 193.368C262.083 192.54 262.755 191.868 263.583 191.868H279.986C280.815 191.868 281.486 192.54 281.486 193.368Z" style="fill:var(--sapContent_Illustrative_Color4)"/>
<path d="M103.795 66.5075L142.823 121.728L146.57 93.0449C147.737 84.1156 145.087 75.1079 139.271 68.2327L119.489 44.847C118.596 43.792 116.928 43.9384 116.233 45.1327L103.795 66.5075Z" style="fill:var(--sapContent_Illustrative_Color2)"/>
<path d="M67.2251 91.7263L104.97 147.832L76.8276 141.141C68.0666 139.058 60.5887 133.38 56.2293 125.5L41.401 98.6979C40.732 97.4887 41.4617 95.9816 42.8251 95.7564L67.2251 91.7263Z" style="fill:var(--sapContent_Illustrative_Color2)"/>
<path fill-rule="evenodd" clip-rule="evenodd" d="M184.217 191.868H122.485C122.08 191.61 121.727 191.367 121.429 191.142C119.01 189.314 119.684 187.556 120.389 185.717C121.078 183.92 121.796 182.047 119.681 179.96C108.508 168.933 99.1684 155.926 92.2394 141.438L68.6885 92.1923C76.5049 79.5685 89.1319 70.8606 103.71 68.041L141.37 107.556C160.138 127.249 172.473 150.634 177.114 176.38C177.498 178.51 179.053 180.428 180.612 182.35C182.324 184.461 184.04 186.577 184.216 188.987C184.291 190.023 184.286 190.976 184.217 191.868Z" style="fill:var(--sapContent_Illustrative_Color8)"/>
<path fill-rule="evenodd" clip-rule="evenodd" d="M121.609 194.868L120.87 194.397C120.419 194.108 119.997 193.821 119.62 193.536L121.429 191.142C121.727 191.367 122.08 191.61 122.485 191.868H184.217C184.285 190.982 184.291 190.036 184.217 189.008C184.217 189.001 184.216 188.994 184.216 188.987C184.213 188.947 184.209 188.908 184.206 188.868C183.983 186.507 182.295 184.426 180.612 182.35C179.053 180.428 177.498 178.51 177.114 176.38C172.473 150.634 160.138 127.249 141.37 107.556L103.709 68.041C89.1318 70.8606 76.5048 79.5685 68.6883 92.1923L92.2392 141.438C99.1682 155.926 108.508 168.933 119.681 179.96C121.796 182.047 121.078 183.92 120.389 185.717C119.684 187.556 119.01 189.314 121.429 191.142L119.62 193.536C117.872 192.215 116.842 190.562 116.741 188.586C116.662 187.034 117.218 185.599 117.531 184.789C117.551 184.738 117.57 184.69 117.588 184.644C117.768 184.172 117.892 183.843 117.981 183.532C118.065 183.237 118.086 183.056 118.086 182.943C118.086 182.852 118.073 182.783 118.036 182.698C117.993 182.602 117.88 182.398 117.573 182.095C106.156 170.827 96.613 157.537 89.5328 142.732L65.2744 92.0073L66.1377 90.613C74.3949 77.2774 87.7401 68.0742 103.14 65.0956L104.75 64.7842L143.542 105.486C162.683 125.571 175.313 149.48 180.066 175.848C180.286 177.068 181.24 178.362 182.942 180.46L182.999 180.531C183.816 181.538 184.782 182.729 185.553 183.998C186.355 185.317 187.073 186.915 187.208 188.769C187.294 189.949 187.289 191.052 187.208 192.099L186.994 194.868H121.609Z" style="fill:var(--sapContent_Illustrative_Color4)"/>
<path fill-rule="evenodd" clip-rule="evenodd" d="M156.886 191.868C118.265 168.806 89.767 125.804 74.985 83.9389C72.6435 86.4549 70.5322 89.2147 68.6885 92.1923L92.2394 141.438C99.1684 155.926 108.508 168.933 119.681 179.96C121.796 182.047 121.078 183.92 120.389 185.717C119.684 187.556 119.01 189.314 121.429 191.142C121.727 191.367 122.08 191.61 122.485 191.868H156.886Z" style="fill:var(--sapContent_Illustrative_Color6)"/>
<path d="M133.934 167.878C130.76 163.276 131.918 156.972 136.52 153.798C141.122 150.625 147.425 151.783 150.599 156.385C153.773 160.987 152.615 167.29 148.013 170.464C143.411 173.638 137.107 172.48 133.934 167.878Z" style="fill:var(--sapContent_Illustrative_Color14)"/>
<path d="M108.174 124.557C109.008 125.908 110.803 126.285 112.11 125.384L118.636 120.883C119.943 119.982 120.228 118.17 119.262 116.911L83.7178 70.6103C82.4974 69.0205 80.2453 68.6659 78.5954 69.8037C76.9455 70.9415 76.4766 73.1726 77.5288 74.8783L108.174 124.557Z" style="fill:var(--sapContent_Illustrative_Color2)"/>
<path fill-rule="evenodd" clip-rule="evenodd" d="M16.2734 29.7517C16.2734 28.0949 17.6166 26.7517 19.2734 26.7517H25.7132C27.3701 26.7517 28.7132 28.0949 28.7132 29.7517C28.7132 31.4086 27.3701 32.7517 25.7132 32.7517H19.2734C17.6166 32.7517 16.2734 31.4086 16.2734 29.7517ZM34.4219 29.7517C34.4219 28.0949 35.765 26.7517 37.4219 26.7517H67.5129C74.0427 26.7517 79.3362 32.0452 79.3362 38.575C79.3362 45.1048 74.0427 50.3982 67.5129 50.3982H51.2279C48.2107 50.3982 45.7648 52.8442 45.7648 55.8614C45.7648 58.8786 48.2107 61.3245 51.2279 61.3245H67.7788C69.4356 61.3245 70.7788 62.6677 70.7788 64.3245C70.7788 65.9814 69.4356 67.3245 67.7788 67.3245H51.2279C44.897 67.3245 39.7648 62.1923 39.7648 55.8614C39.7648 49.5305 44.897 44.3982 51.2279 44.3982H67.5129C70.729 44.3982 73.3362 41.7911 73.3362 38.575C73.3362 35.3589 70.729 32.7517 67.5129 32.7517H37.4219C35.765 32.7517 34.4219 31.4086 34.4219 29.7517Z" style="fill:var(--sapContent_Illustrative_Color5)"/>
</svg>
