<svg width="320" height="241" viewBox="0 0 320 241" fill="none" xmlns="http://www.w3.org/2000/svg" id="tnt-Scene-Company-alternate">
<path d="M130.353 145.031H33.9438C26.3845 145.031 19.1348 148.034 13.7895 153.379C8.44429 158.725 5.44141 165.974 5.44141 173.534C5.44141 181.093 8.44429 188.343 13.7895 193.688C19.1348 199.033 26.3845 202.036 33.9438 202.036H130.393C137.952 202.036 145.202 199.033 150.547 193.688C155.892 188.343 158.895 181.093 158.895 173.534C158.895 165.974 155.892 158.725 150.547 153.379C145.202 148.034 137.952 145.031 130.393 145.031H130.353Z" style="fill:var(--sapContent_Illustrative_Color7)"/>
<path d="M165.474 173.324H69.0149C61.5493 173.464 54.4366 176.528 49.2063 181.857C43.9761 187.186 41.0459 194.354 41.0459 201.821C41.0459 209.288 43.9761 216.457 49.2063 221.786C54.4366 227.115 61.5493 230.179 69.0149 230.319H165.474C172.939 230.179 180.052 227.115 185.282 221.786C190.513 216.457 193.443 209.288 193.443 201.821C193.443 194.354 190.513 187.186 185.282 181.857C180.052 176.528 172.939 173.464 165.474 173.324Z" style="fill:var(--sapContent_Illustrative_Color7)"/>
<path d="M290.964 94.5055H194.515C190.728 94.4346 186.965 95.1193 183.445 96.5196C179.926 97.9199 176.721 100.008 174.017 102.661C171.314 105.314 169.166 108.48 167.7 111.972C166.235 115.465 165.479 119.215 165.479 123.003C165.479 126.791 166.235 130.541 167.7 134.033C169.166 137.526 171.314 140.692 174.017 143.345C176.721 145.998 179.926 148.086 183.445 149.486C186.965 150.886 190.728 151.571 194.515 151.5H290.964C294.752 151.571 298.515 150.886 302.034 149.486C305.554 148.086 308.759 145.998 311.463 143.345C314.166 140.692 316.313 137.526 317.779 134.033C319.245 130.541 320 126.791 320 123.003C320 119.215 319.245 115.465 317.779 111.972C316.313 108.48 314.166 105.314 311.463 102.661C308.759 100.008 305.554 97.9199 302.034 96.5196C298.515 95.1193 294.752 94.4346 290.964 94.5055Z" style="fill:var(--sapContent_Illustrative_Color7)"/>
<path d="M219.084 42.4724H37.767C27.7505 42.4724 18.1444 46.4514 11.0617 53.5341C3.979 60.6168 0 70.2229 0 80.2394C0 90.2558 3.979 99.8619 11.0617 106.945C18.1444 114.027 27.7505 118.006 37.767 118.006H219.084C229.101 118.006 238.707 114.027 245.789 106.945C252.872 99.8619 256.851 90.2558 256.851 80.2394C256.851 70.2229 252.872 60.6168 245.789 53.5341C238.707 46.4514 229.101 42.4724 219.084 42.4724Z" style="fill:var(--sapContent_Illustrative_Color7)"/>
<rect x="206.938" y="110.087" width="46.959" height="98.3552" style="fill:var(--sapContent_Illustrative_Color5)"/>
<path fill-rule="evenodd" clip-rule="evenodd" d="M216.547 129.265H242.289V135.265H216.547V129.265Z" style="fill:var(--sapContent_Illustrative_Color8)"/>
<path fill-rule="evenodd" clip-rule="evenodd" d="M216.547 148.265H242.289V154.265H216.547V148.265Z" style="fill:var(--sapContent_Illustrative_Color8)"/>
<path fill-rule="evenodd" clip-rule="evenodd" d="M216.547 167.265H242.289V173.265H216.547V167.265Z" style="fill:var(--sapContent_Illustrative_Color8)"/>
<path d="M94.9385 51.4902H206.938V209.043H94.9385V51.4902Z" style="fill:var(--sapContent_Illustrative_Color8)"/>
<path fill-rule="evenodd" clip-rule="evenodd" d="M203.938 54.4902H97.9385V206.043H203.938V54.4902ZM94.9385 51.4902V209.043H206.938V51.4902H94.9385Z" style="fill:var(--sapContent_Illustrative_Color4)"/>
<rect width="150.879" height="15.9164" transform="matrix(-3.58932e-08 1 1 5.32325e-08 142.979 55.2249)" style="fill:var(--sapContent_Illustrative_Color2)"/>
<rect width="9.07959" height="15.9164" transform="matrix(-3.58932e-08 1 1 5.32325e-08 142.979 55.2249)" style="fill:var(--sapContent_Illustrative_Color14)"/>
<rect width="130.672" height="14.7651" transform="matrix(1 0 0 -1 85.6025 55.2249)" style="fill:var(--sapContent_Illustrative_Color2)"/>
<rect x="105.004" y="65.022" width="30.2746" height="39.6687" style="fill:var(--sapContent_Illustrative_Color6)"/>
<rect x="105.004" y="111.432" width="30.2746" height="39.6687" style="fill:var(--sapContent_Illustrative_Color6)"/>
<rect x="105.004" y="157.842" width="30.2746" height="39.6687" style="fill:var(--sapContent_Illustrative_Color6)"/>
<rect x="166.599" y="65.022" width="30.2746" height="39.6687" style="fill:var(--sapContent_Illustrative_Color6)"/>
<rect x="166.599" y="111.432" width="30.2746" height="39.6687" style="fill:var(--sapContent_Illustrative_Color6)"/>
<rect x="166.599" y="157.842" width="30.2746" height="39.6687" style="fill:var(--sapContent_Illustrative_Color6)"/>
<path d="M94.9385 83.4424L51.9385 120.942V208.442H94.9385V83.4424Z" style="fill:var(--sapContent_Illustrative_Color6)"/>
<path fill-rule="evenodd" clip-rule="evenodd" d="M62.9385 130.442V143.442H68.9385V130.442H62.9385Z" style="fill:var(--sapContent_Illustrative_Color8)"/>
<path fill-rule="evenodd" clip-rule="evenodd" d="M77.9385 130.442V143.442H83.9385V130.442H77.9385Z" style="fill:var(--sapContent_Illustrative_Color8)"/>
<path fill-rule="evenodd" clip-rule="evenodd" d="M62.9385 151.442V164.442H68.9385V151.442H62.9385Z" style="fill:var(--sapContent_Illustrative_Color8)"/>
<path fill-rule="evenodd" clip-rule="evenodd" d="M77.9385 151.442V164.442H83.9385V151.442H77.9385Z" style="fill:var(--sapContent_Illustrative_Color8)"/>
<path fill-rule="evenodd" clip-rule="evenodd" d="M37.8008 207.543C37.8008 206.714 38.4724 206.043 39.3008 206.043L267.585 206.043C268.413 206.043 269.085 206.714 269.085 207.543C269.085 208.371 268.413 209.043 267.585 209.043L39.3008 209.043C38.4724 209.043 37.8008 208.371 37.8008 207.543Z" style="fill:var(--sapContent_Illustrative_Color4)"/>
<path fill-rule="evenodd" clip-rule="evenodd" d="M299.925 207.604C299.925 208.433 299.253 209.104 298.425 209.104H282.021C281.193 209.104 280.521 208.433 280.521 207.604C280.521 206.776 281.193 206.104 282.021 206.104H298.425C299.253 206.104 299.925 206.776 299.925 207.604Z" style="fill:var(--sapContent_Illustrative_Color4)"/>
<path d="M247.417 46.9527H252.883C252.883 44.0058 254.029 41.1797 256.071 39.0959C258.112 37.0122 260.88 35.8416 263.767 35.8416H298.982C301.868 35.8416 304.637 37.0122 306.678 39.0959C308.719 41.1797 309.866 44.0058 309.866 46.9527C309.866 49.8995 308.719 52.7257 306.678 54.8094C304.637 56.8932 301.868 58.0638 298.982 58.0638H293.516C293.516 61.0106 292.37 63.8368 290.328 65.9205C288.287 68.0043 285.519 69.1749 282.632 69.1749H247.417C244.531 69.1749 241.762 68.0043 239.721 65.9205C237.68 63.8368 236.533 61.0106 236.533 58.0638C236.533 55.1169 237.68 52.2908 239.721 50.207C241.762 48.1233 244.531 46.9527 247.417 46.9527Z" style="fill:var(--sapContent_Illustrative_Color19)"/>
</svg>
