<svg width="128" height="128" viewBox="0 0 128 128" fill="none" xmlns="http://www.w3.org/2000/svg" id="tnt-Spot-ChartFlow-alternate">
<rect x="-1.26074" y="46.4549" width="113.183" height="75.5919" rx="6.72132" transform="rotate(-16.24 -1.26074 46.4549)" style="fill:var(--sapContent_Illustrative_Color6)"/>
<path d="M4.87891 49.0339C4.01381 46.0639 5.72014 42.955 8.69011 42.0899L101.633 15.017C104.603 14.1519 107.712 15.8582 108.577 18.8282L125.676 77.5284C126.541 80.4984 124.835 83.6073 121.865 84.4724L28.9214 111.545C25.9514 112.41 22.8425 110.704 21.9774 107.734L4.87891 49.0339Z" style="fill:var(--sapContent_Illustrative_Color8)"/>
<path fill-rule="evenodd" clip-rule="evenodd" d="M8.13082 40.1697L101.074 13.0968C105.105 11.9228 109.324 14.2384 110.498 18.2689L127.596 76.9691C128.77 80.9996 126.454 85.2186 122.424 86.3926L29.4807 113.466C25.4503 114.64 21.2312 112.324 20.0572 108.293L2.95874 49.5932C1.78473 45.5627 4.10035 41.3437 8.13082 40.1697ZM8.69014 42.0899C5.72017 42.955 4.01383 46.0639 4.87894 49.0339L21.9774 107.734C22.8425 110.704 25.9514 112.41 28.9214 111.545L121.865 84.4724C124.835 83.6073 126.541 80.4984 125.676 77.5284L108.577 18.8282C107.712 15.8582 104.603 14.1519 101.633 15.017L8.69014 42.0899Z" style="fill:var(--sapContent_Illustrative_Color4)"/>
<path d="M4.87891 49.0339C4.01381 46.0639 5.72014 42.955 8.69011 42.0899L101.633 15.017C104.603 14.1519 107.712 15.8582 108.577 18.8282L110.82 26.5287L7.12196 56.7344L4.87891 49.0339Z" style="fill:var(--sapContent_Illustrative_Color5)"/>
<circle cx="14.1287" cy="47.7998" r="2.5205" transform="rotate(-16.24 14.1287 47.7998)" style="fill:var(--sapContent_Illustrative_Color8)"/>
<circle cx="23.2703" cy="45.1369" r="2.5205" transform="rotate(-16.24 23.2703 45.1369)" style="fill:var(--sapContent_Illustrative_Color8)"/>
<circle cx="32.4129" cy="42.4739" r="2.5205" transform="rotate(-16.24 32.4129 42.4739)" style="fill:var(--sapContent_Illustrative_Color8)"/>
<rect x="16.9199" y="61.1566" width="93.1985" height="44.2274" rx="2.81362" transform="rotate(-16.24 16.9199 61.1566)" style="fill:var(--sapContent_Illustrative_Color7)"/>
<path fill-rule="evenodd" clip-rule="evenodd" d="M42.46 76.4044L39.2923 65.5295L40.9131 65.0573L44.0808 75.9323L42.46 76.4044Z" style="fill:var(--sapContent_Illustrative_Color4)"/>
<path fill-rule="evenodd" clip-rule="evenodd" d="M42.368 76.0907L81.7867 64.6086L82.2588 66.2294L42.8401 77.7115L42.368 76.0907Z" style="fill:var(--sapContent_Illustrative_Color4)"/>
<path fill-rule="evenodd" clip-rule="evenodd" d="M68.7146 81.4279L65.4053 70.0667L67.0261 69.5946L70.3354 80.9558C70.3789 81.105 70.5351 81.1907 70.6843 81.1473L81.5138 77.9928L81.9859 79.6136L71.1564 82.7681C70.112 83.0723 69.0188 82.4723 68.7146 81.4279Z" style="fill:var(--sapContent_Illustrative_Color4)"/>
<rect x="26.1191" y="63.5219" width="26.8657" height="7.74563" rx="0.893432" transform="rotate(-16.24 26.1191 63.5219)" style="fill:var(--sapContent_Illustrative_Color3)"/>
<rect x="34.748" y="74.842" width="15.6831" height="7.51618" rx="0.893432" transform="rotate(-16.24 34.748 74.842)" style="fill:var(--sapContent_Illustrative_Color2)"/>
<rect x="79.3633" y="61.8463" width="20.3234" height="7.51618" rx="0.893432" transform="rotate(-16.24 79.3633 61.8463)" style="fill:var(--sapContent_Illustrative_Color2)"/>
<rect x="78.6982" y="75.5381" width="29.2581" height="7.51618" rx="0.893432" transform="rotate(-16.24 78.6982 75.5381)" style="fill:var(--sapContent_Illustrative_Color13)"/>
<rect x="64.3076" y="63.284" width="9.64329" height="9.64329" rx="0.893432" transform="rotate(28.76 64.3076 63.284)" style="fill:var(--sapContent_Illustrative_Color14)"/>
</svg>
