<svg width="45" height="46" viewBox="0 0 45 46" fill="none" xmlns="http://www.w3.org/2000/svg" id="tnt-Dot-ChartDoughnut-alternate">
<path d="M21.5257 5.98242C21.558 5.58939 21.2655 5.2432 20.8715 5.22574C17.3757 5.07091 13.9001 5.88736 10.8331 7.59126C7.55775 9.41091 4.89555 12.1609 3.18314 15.4936C1.47074 18.8263 0.785036 22.5919 1.21275 26.3143C1.64047 30.0367 3.1624 33.5486 5.58607 36.406C8.00975 39.2634 11.2263 41.338 14.829 42.3673C18.4317 43.3966 22.2588 43.3345 25.8262 42.1888C29.3936 41.0431 32.5411 38.8653 34.8708 35.9307C37.0523 33.1829 38.4249 29.887 38.8425 26.4128C38.8896 26.0213 38.5957 25.6762 38.2027 25.644L29.8479 24.9578C29.4549 24.9255 29.1129 25.2187 29.0501 25.608C28.8014 27.1479 28.1616 28.6027 27.1868 29.8306C26.0636 31.2454 24.5461 32.2954 22.8262 32.8477C21.1063 33.4001 19.2612 33.43 17.5243 32.9338C15.7874 32.4375 14.2366 31.4373 13.0681 30.0597C11.8996 28.6821 11.1658 26.9889 10.9596 25.1943C10.7534 23.3997 11.084 21.5842 11.9096 19.9775C12.7352 18.3707 14.0187 17.0449 15.5978 16.1676C16.9683 15.4062 18.508 15.0124 20.0678 15.0183C20.4622 15.0198 20.8072 14.7302 20.8395 14.3372L21.5257 5.98242Z" style="fill:var(--sapContent_Illustrative_Color8)"/>
<path fill-rule="evenodd" clip-rule="evenodd" d="M10.3474 6.71687C13.5763 4.92302 17.2354 4.06347 20.9158 4.22648C21.901 4.27012 22.599 5.1309 22.5223 6.06404L21.8361 14.4188C21.7572 15.3803 20.9305 16.0213 20.064 16.018C18.675 16.0128 17.3038 16.3635 16.0834 17.0415C14.6772 17.8228 13.5342 19.0034 12.799 20.4343C12.0638 21.8651 11.7695 23.4818 11.9531 25.0799C12.1367 26.6781 12.7901 28.1859 13.8307 29.4126C14.8713 30.6394 16.2522 31.5301 17.799 31.972C19.3458 32.4139 20.9888 32.3873 22.5204 31.8954C24.052 31.4035 25.4034 30.4685 26.4036 29.2086C27.2716 28.1151 27.8414 26.8196 28.0629 25.4483C28.201 24.5929 28.9683 23.8819 29.9298 23.9609L38.2845 24.6471C39.2177 24.7237 39.9531 25.5527 39.8354 26.5319C39.3957 30.1895 37.9506 33.6593 35.654 36.5523C33.2014 39.6417 29.8877 41.9345 26.1319 43.1407C22.3762 44.3469 18.3472 44.4123 14.5543 43.3286C10.7614 42.2449 7.37506 40.0609 4.82345 37.0526C2.27184 34.0444 0.669579 30.3471 0.219284 26.4282C-0.231011 22.5093 0.490885 18.5449 2.29368 15.0364C4.09648 11.5278 6.89921 8.63257 10.3474 6.71687ZM20.8715 5.2255C21.2655 5.24296 21.5579 5.58915 21.5257 5.98218L20.8395 14.337C20.8072 14.73 20.4622 15.0195 20.0678 15.018C18.508 15.0121 16.9682 15.406 15.5978 16.1674C14.0187 17.0447 12.7352 18.3705 11.9096 19.9772C11.084 21.584 10.7534 23.3995 10.9596 25.1941C11.1658 26.9887 11.8996 28.6819 13.0681 30.0595C14.2366 31.4371 15.7873 32.4373 17.5243 32.9335C19.2612 33.4298 21.1063 33.3999 22.8262 32.8475C24.5461 32.2951 26.0636 31.2452 27.1868 29.8304C28.1616 28.6025 28.8014 27.1476 29.0501 25.6077C29.1129 25.2184 29.4549 24.9253 29.8479 24.9575L38.2027 25.6437C38.5957 25.676 38.8896 26.021 38.8425 26.4126C38.4249 29.8868 37.0523 33.1826 34.8708 35.9305C32.5411 38.8651 29.3936 41.0429 25.8262 42.1886C22.2588 43.3343 18.4317 43.3964 14.829 42.3671C11.2263 41.3377 8.00974 39.2632 5.58607 36.4058C3.16239 33.5484 1.64046 30.0364 1.21275 26.314C0.78503 22.5917 1.47073 18.826 3.18314 15.4934C4.89554 12.1607 7.55775 9.41067 10.8331 7.59102C13.9001 5.88712 17.3757 5.07067 20.8715 5.2255Z" style="fill:var(--sapContent_Illustrative_Color4)"/>
<path d="M21.8264 6.00201C21.8647 5.6135 21.5809 5.26605 21.1912 5.24219C18.3033 5.06535 15.4099 5.55224 12.7342 6.66944C10.0585 7.78664 7.67788 9.50184 5.77316 11.6798C5.51616 11.9736 5.56366 12.4198 5.86691 12.6656L12.4285 17.9855C12.7318 18.2314 13.175 18.1827 13.4437 17.8995C14.3123 16.9839 15.3642 16.2574 16.5336 15.7691C17.703 15.2808 18.9591 15.0436 20.221 15.0697C20.6113 15.0778 20.9575 14.7968 20.9959 14.4083L21.8264 6.00201Z" style="fill:var(--sapContent_Illustrative_Color20)"/>
<path d="M43.7528 22.2196C44.1413 22.258 44.4888 21.9742 44.5126 21.5845C44.65 19.3405 44.387 17.0879 43.7339 14.9327C43.0124 12.5518 41.8291 10.3363 40.2514 8.41271C38.6737 6.48913 36.7325 4.89513 34.5388 3.72174C32.5531 2.65957 30.3955 1.96087 28.168 1.65654C27.7812 1.60369 27.4348 1.88889 27.3965 2.2774L26.5005 11.3466C26.4622 11.7352 26.7468 12.0782 27.1308 12.149C27.9829 12.3063 28.8071 12.5944 29.5736 13.0044C30.5483 13.5258 31.4108 14.234 32.1118 15.0887C32.8128 15.9434 33.3386 16.9277 33.6592 17.9856C33.9113 18.8176 34.0326 19.6822 34.02 20.5486C34.0143 20.939 34.2951 21.2853 34.6836 21.3237L43.7528 22.2196Z" style="fill:var(--sapContent_Illustrative_Color3)"/>
<path d="M38.2387 25.2378C38.6284 25.2611 38.9268 25.5961 38.889 25.9846C38.6299 28.6496 37.8085 31.2322 36.4759 33.5608C35.0262 36.094 33.0108 38.2581 30.5869 39.884C28.1629 41.51 25.3961 42.5539 22.5022 42.9342C19.8422 43.2839 17.141 43.0642 14.577 42.293C14.2031 42.1805 14.0064 41.7773 14.1327 41.4079L16.8659 33.4147C16.9922 33.0453 17.3936 32.8511 17.7717 32.9483C18.8942 33.2369 20.0637 33.3086 21.2171 33.157C22.6046 32.9746 23.9312 32.4741 25.0934 31.6945C26.2556 30.9149 27.2219 29.8774 27.917 28.6628C28.4948 27.6531 28.8721 26.5438 29.0309 25.3957C29.0844 25.009 29.4164 24.7113 29.8061 24.7345L38.2387 25.2378Z" style="fill:var(--sapContent_Illustrative_Color2)"/>
</svg>
