<svg width="161" height="161" viewBox="0 0 161 161" fill="none" xmlns="http://www.w3.org/2000/svg" id="tnt-Dialog-Radar-alternate">
<path fill-rule="evenodd" clip-rule="evenodd" d="M148.566 153.977C148.98 155.118 148.135 156.325 146.92 156.325H99.4766C98.2282 156.325 97.381 155.055 97.8599 153.902L123.775 91.519C124.069 90.8103 124.963 90.5845 125.558 91.0681C125.72 91.1993 125.843 91.372 125.914 91.5677L148.566 153.977Z" style="fill:var(--sapContent_Illustrative_Color8)"/>
<path fill-rule="evenodd" clip-rule="evenodd" d="M124.828 92.241L99.0142 154.382C98.8772 154.712 99.1195 155.075 99.4765 155.075H146.92C147.268 155.075 147.509 154.73 147.391 154.403L124.828 92.241ZM122.62 91.0396C123.235 89.5593 125.102 89.0875 126.346 90.0978C126.684 90.3719 126.941 90.7326 127.089 91.1414L149.741 153.55C150.451 155.507 149.002 157.575 146.92 157.575H99.4765C97.3367 157.575 95.8846 155.399 96.7055 153.423L122.62 91.0396Z" style="fill:var(--sapContent_Illustrative_Color4)"/>
<path fill-rule="evenodd" clip-rule="evenodd" d="M136.513 102.571C136.513 109.46 130.929 115.044 124.04 115.044C117.152 115.044 111.568 109.46 111.568 102.571C111.568 95.6833 117.152 90.0991 124.04 90.0991C130.929 90.0991 136.513 95.6833 136.513 102.571Z" style="fill:var(--sapContent_Illustrative_Color2)"/>
<path fill-rule="evenodd" clip-rule="evenodd" d="M49.5574 38.9222C49.1812 39.501 49.3454 40.2752 49.9242 40.6515L104.29 75.9924C104.869 76.3687 105.643 76.2045 106.019 75.6257C106.396 75.0469 106.232 74.2726 105.653 73.8964L51.2867 38.5554C50.7079 38.1792 49.9337 38.3434 49.5574 38.9222Z" style="fill:var(--sapContent_Illustrative_Color4)"/>
<circle cx="6.60665" cy="6.60665" r="6.60665" transform="matrix(-0.930304 -0.366789 -0.366789 0.930304 59.175 35.8801)" style="fill:var(--sapContent_Illustrative_Color9)"/>
<path fill-rule="evenodd" clip-rule="evenodd" d="M80.7083 85.5039C81.3238 85.1914 81.5694 84.439 81.2569 83.8235L62.1363 46.1685C61.8237 45.5529 61.0714 45.3073 60.4558 45.6199C59.8403 45.9325 59.5947 46.6848 59.9072 47.3004L79.0278 84.9553C79.3404 85.5709 80.0927 85.8165 80.7083 85.5039Z" style="fill:var(--sapContent_Illustrative_Color4)"/>
<path fill-rule="evenodd" clip-rule="evenodd" d="M104.572 48.6673C104.532 49.3565 103.941 49.8827 103.252 49.8426L61.3269 47.4049C60.6377 47.3648 60.1115 46.7736 60.1516 46.0844C60.1916 45.3952 60.7828 44.869 61.472 44.9091L103.397 47.3468C104.086 47.3869 104.612 47.9781 104.572 48.6673Z" style="fill:var(--sapContent_Illustrative_Color4)"/>
<path fill-rule="evenodd" clip-rule="evenodd" d="M116.201 19.0197C116.751 18.1842 117.893 17.9789 118.679 18.5974C140.311 35.6084 145.449 66.9753 129.777 90.7597C114.105 114.544 83.2551 122.197 59.0898 109.032C58.2112 108.553 57.9494 107.423 58.5 106.588L116.201 19.0197Z" style="fill:var(--sapContent_Illustrative_Color8)"/>
<path fill-rule="evenodd" clip-rule="evenodd" d="M57.4561 105.9C56.5178 107.324 56.9474 109.288 58.4917 110.13C83.2382 123.612 114.798 115.764 130.821 91.4476C146.844 67.1307 141.604 35.035 119.452 17.6148C118.07 16.5277 116.095 16.9078 115.157 18.3319L57.4561 105.9ZM59.6878 107.934C59.4748 107.818 59.381 107.522 59.5437 107.275L117.244 19.7075C117.407 19.4606 117.716 19.43 117.907 19.5799C139.018 36.1819 144.055 66.8201 128.733 90.072C113.412 113.324 83.2719 120.783 59.6878 107.934Z" style="fill:var(--sapContent_Illustrative_Color4)"/>
<path d="M56.4301 4.88481L60.9319 24.8167C60.9414 24.8546 60.9609 24.8893 60.9884 24.9169C61.0158 24.9446 61.0503 24.9643 61.088 24.9739C61.1258 24.9835 61.1655 24.9827 61.203 24.9715C61.2405 24.9604 61.2744 24.9394 61.3012 24.9106L66.7433 18.9182C66.765 18.8942 66.7916 18.8754 66.8213 18.863C66.8509 18.8506 66.8829 18.845 66.9149 18.8466C66.9469 18.8482 66.9781 18.857 67.0062 18.8722C67.0343 18.8875 67.0586 18.9089 67.0774 18.9348L74.2737 28.832C74.3025 28.8731 74.3447 28.9027 74.3931 28.9157C74.4415 28.9287 74.493 28.9243 74.5387 28.9032C74.5845 28.8822 74.6217 28.8458 74.6439 28.8004C74.666 28.7549 74.6718 28.7033 74.6602 28.6543L70.2654 8.59629C70.2566 8.55796 70.2375 8.52285 70.2103 8.49474C70.183 8.46663 70.1486 8.44658 70.1107 8.43675C70.0729 8.42692 70.0329 8.42767 69.9953 8.43893C69.9576 8.45019 69.9237 8.47154 69.897 8.50067L64.4137 14.6132C64.3918 14.637 64.3649 14.6558 64.3351 14.6681C64.3053 14.6804 64.2732 14.686 64.2411 14.6845C64.209 14.683 64.1776 14.6744 64.1493 14.6593C64.121 14.6443 64.0963 14.6231 64.0771 14.5973L56.8159 4.70454C56.7869 4.6634 56.7444 4.63384 56.6959 4.62101C56.6473 4.60817 56.5957 4.61285 56.5499 4.63425C56.5041 4.65564 56.4671 4.69239 56.4452 4.73815C56.4233 4.7839 56.418 4.83578 56.4301 4.88481Z" style="fill:var(--sapContent_Illustrative_Color3)"/>
<path d="M2.40997 17.8078L13.0724 35.2393C13.0936 35.2722 13.1232 35.2987 13.1581 35.3161C13.1929 35.3335 13.2318 35.3411 13.2707 35.3381C13.3095 35.335 13.3469 35.3215 13.3788 35.2989C13.4108 35.2764 13.4361 35.2455 13.4523 35.2097L16.6825 27.7873C16.6953 27.7577 16.7145 27.7313 16.7386 27.7101C16.7628 27.6888 16.7913 27.6732 16.8221 27.6645C16.8529 27.6557 16.8852 27.654 16.9167 27.6594C16.9482 27.6649 16.9781 27.6773 17.0042 27.6959L26.997 34.7588C27.0375 34.7885 27.087 34.803 27.1369 34.7998C27.1869 34.7966 27.2343 34.7759 27.2709 34.7412C27.3075 34.7066 27.331 34.6602 27.3374 34.6101C27.3438 34.5599 27.3327 34.5091 27.306 34.4664L16.7045 16.8811C16.6838 16.8476 16.6545 16.8205 16.6196 16.8026C16.5848 16.7848 16.5458 16.7768 16.5067 16.7797C16.4677 16.7825 16.4302 16.796 16.3981 16.8188C16.3661 16.8415 16.3408 16.8727 16.3249 16.9088L13.0941 24.4581C13.081 24.4877 13.0616 24.5141 13.0374 24.5354C13.0131 24.5566 12.9845 24.5722 12.9536 24.5811C12.9227 24.59 12.8903 24.5919 12.8586 24.5867C12.8269 24.5815 12.7968 24.5694 12.7703 24.5512L2.71743 17.5132C2.67679 17.4835 2.6271 17.4692 2.57698 17.4726C2.52686 17.476 2.47946 17.4971 2.44297 17.532C2.40649 17.567 2.38322 17.6137 2.37719 17.664C2.37116 17.7144 2.38275 17.7652 2.40997 17.8078Z" style="fill:var(--sapContent_Illustrative_Color3)"/>
</svg>
