<svg width="320" height="241" viewBox="0 0 320 241" fill="none" xmlns="http://www.w3.org/2000/svg" id="tnt-Scene-Systems-alternate">
<path d="M130.353 145.031H33.9438C26.3845 145.031 19.1348 148.034 13.7895 153.379C8.44429 158.725 5.44141 165.974 5.44141 173.534C5.44141 181.093 8.44429 188.343 13.7895 193.688C19.1348 199.033 26.3845 202.036 33.9438 202.036H130.393C137.952 202.036 145.202 199.033 150.547 193.688C155.892 188.343 158.895 181.093 158.895 173.534C158.895 165.974 155.892 158.725 150.547 153.379C145.202 148.034 137.952 145.031 130.393 145.031H130.353Z" style="fill:var(--sapContent_Illustrative_Color7)"/>
<path d="M165.474 173.324H69.0149C61.5493 173.464 54.4366 176.528 49.2063 181.857C43.9761 187.186 41.0459 194.354 41.0459 201.821C41.0459 209.288 43.9761 216.457 49.2063 221.786C54.4366 227.115 61.5493 230.179 69.0149 230.319H165.474C172.939 230.179 180.052 227.115 185.282 221.786C190.513 216.457 193.443 209.288 193.443 201.821C193.443 194.354 190.513 187.186 185.282 181.857C180.052 176.528 172.939 173.464 165.474 173.324Z" style="fill:var(--sapContent_Illustrative_Color7)"/>
<path d="M290.964 94.5055H194.515C190.728 94.4346 186.965 95.1193 183.445 96.5196C179.926 97.9199 176.721 100.008 174.017 102.661C171.314 105.314 169.166 108.48 167.7 111.972C166.235 115.465 165.479 119.215 165.479 123.003C165.479 126.791 166.235 130.541 167.7 134.033C169.166 137.526 171.314 140.692 174.017 143.345C176.721 145.998 179.926 148.086 183.445 149.486C186.965 150.886 190.728 151.571 194.515 151.5H290.964C294.752 151.571 298.515 150.886 302.034 149.486C305.554 148.086 308.759 145.998 311.463 143.345C314.166 140.692 316.313 137.526 317.779 134.033C319.245 130.541 320 126.791 320 123.003C320 119.215 319.245 115.465 317.779 111.972C316.313 108.48 314.166 105.314 311.463 102.661C308.759 100.008 305.554 97.9199 302.034 96.5196C298.515 95.1193 294.752 94.4346 290.964 94.5055Z" style="fill:var(--sapContent_Illustrative_Color7)"/>
<path d="M219.084 42.4724H37.767C27.7505 42.4724 18.1444 46.4514 11.0617 53.5341C3.979 60.6168 0 70.2229 0 80.2394C0 90.2558 3.979 99.8619 11.0617 106.945C18.1444 114.027 27.7505 118.006 37.767 118.006H219.084C229.101 118.006 238.707 114.027 245.789 106.945C252.872 99.8619 256.851 90.2558 256.851 80.2394C256.851 70.2229 252.872 60.6168 245.789 53.5341C238.707 46.4514 229.101 42.4724 219.084 42.4724Z" style="fill:var(--sapContent_Illustrative_Color7)"/>
<path d="M243.189 44.9565L177.756 28.475C174.982 27.7762 172.253 29.14 171.66 31.521L151.308 113.232C150.715 115.613 152.483 118.109 155.257 118.808L220.689 135.29C223.464 135.988 226.193 134.625 226.786 132.244L247.138 50.533C247.731 48.152 245.963 45.6552 243.189 44.9565Z" style="fill:var(--sapContent_Illustrative_Color8)"/>
<path fill-rule="evenodd" clip-rule="evenodd" d="M242.464 47.8675L177.031 31.386C176.312 31.2048 175.673 31.3105 175.234 31.5297C174.802 31.7453 174.626 32.0255 174.569 32.2538L154.217 113.964C154.16 114.193 154.184 114.524 154.464 114.918C154.748 115.32 155.263 115.716 155.982 115.897L221.414 132.379C222.134 132.56 222.773 132.454 223.212 132.235C223.643 132.019 223.82 131.739 223.877 131.511L244.229 49.8002C244.286 49.572 244.261 49.241 243.982 48.8464C243.698 48.445 243.183 48.0487 242.464 47.8675ZM177.756 28.475L243.189 44.9565C245.963 45.6552 247.731 48.152 247.138 50.533L226.786 132.244C226.193 134.625 223.464 135.988 220.689 135.29L155.257 118.808C152.483 118.109 150.715 115.613 151.308 113.232L171.66 31.521C172.253 29.14 174.982 27.7762 177.756 28.475Z" style="fill:var(--sapContent_Illustrative_Color4)"/>
<path d="M205.185 49.7833C203.015 49.12 200.698 49.1176 198.527 49.7766C196.357 50.4356 194.43 51.7263 192.99 53.4856C191.551 55.2448 190.663 57.3936 190.44 59.6603C190.217 61.9269 190.668 64.2097 191.736 66.2198C192.804 68.23 194.442 69.8773 196.442 70.9536C198.442 72.0298 200.714 72.4867 202.971 72.2663C205.229 72.0459 207.37 71.1582 209.124 69.7155C210.878 68.2728 212.167 66.3399 212.827 64.161L201.846 60.809L205.185 49.7833Z" style="fill:var(--sapContent_Illustrative_Color2)"/>
<path d="M208.449 47.9202L205.119 58.9353L216.09 62.288C216.528 60.8415 216.678 59.3223 216.531 57.8172C216.384 56.312 215.943 54.8505 215.233 53.5161C214.524 52.1817 213.559 51.0006 212.395 50.0405C211.231 49.0803 209.89 48.3598 208.449 47.9202Z" style="fill:var(--sapContent_Illustrative_Color3)"/>
<path d="M220.488 85.2899L174.892 73.8049C173.38 73.4239 171.847 74.3463 171.468 75.8652C171.09 77.384 172.01 78.9242 173.522 79.3052L219.118 90.7902C220.631 91.1713 222.164 90.2488 222.542 88.73C222.921 87.2111 222.001 85.6709 220.488 85.2899Z" style="fill:var(--sapContent_Illustrative_Color5)"/>
<path d="M217.423 94.6552L171.827 83.1701C170.314 82.7891 168.781 83.7115 168.403 85.2304C168.025 86.7493 168.944 88.2895 170.457 88.6705L216.053 100.156C217.566 100.537 219.099 99.6141 219.477 98.0953C219.855 96.5764 218.936 95.0362 217.423 94.6552Z" style="fill:var(--sapContent_Illustrative_Color5)"/>
<path d="M193.241 98.4754L168.95 92.3569C167.437 91.9759 165.904 92.8983 165.526 94.4172C165.148 95.936 166.067 97.4761 167.58 97.8571L191.871 103.976C193.383 104.357 194.916 103.434 195.295 101.915C195.673 100.397 194.753 98.8564 193.241 98.4754Z" style="fill:var(--sapContent_Illustrative_Color5)"/>
<path d="M73.9235 117.41C73.5965 115.022 73.4117 112.577 73.4117 110.104C73.4117 81.035 96.9796 57.4529 126.063 57.4529C147.1 57.4529 165.252 69.7912 173.682 87.6448C178.785 85.2709 184.471 83.949 190.469 83.949C210.284 83.949 226.731 98.4052 229.83 117.353C244.883 118.178 256.852 130.658 256.852 145.925C256.852 161.731 244.044 174.539 228.238 174.539H76.5105C60.7039 174.539 47.8965 161.731 47.8965 145.925C47.8965 130.999 59.3251 118.746 73.9093 117.439L73.9235 117.41Z" style="fill:var(--sapContent_Illustrative_Color8)"/>
<path fill-rule="evenodd" clip-rule="evenodd" d="M70.6211 114.869C70.4852 113.301 70.4117 111.71 70.4117 110.104C70.4117 79.3786 95.3222 54.4529 126.063 54.4529C147.277 54.4529 165.71 66.3229 175.095 83.7881C179.871 81.9521 185.055 80.949 190.469 80.949C210.971 80.949 228.113 95.3386 232.35 114.575C247.86 116.592 259.852 129.861 259.852 145.925C259.852 163.388 245.701 177.539 228.238 177.539H76.5105C59.047 177.539 44.8965 163.388 44.8965 145.925C44.8965 130.478 55.9741 117.624 70.6211 114.869ZM73.5967 114.455C73.6691 115.319 73.7616 116.177 73.8725 117.028C73.8891 117.156 73.9061 117.283 73.9235 117.41L73.9093 117.439C73.6416 117.463 73.3749 117.49 73.1094 117.522C72.7556 117.563 72.4038 117.612 72.0541 117.666C58.3674 119.8 47.8965 131.638 47.8965 145.925C47.8965 161.731 60.7039 174.539 76.5105 174.539H228.238C244.044 174.539 256.852 161.731 256.852 145.925C256.852 130.658 244.883 118.178 229.83 117.353C226.731 98.4052 210.284 83.949 190.469 83.949C184.471 83.949 178.785 85.2709 173.682 87.6446C173.682 87.6447 173.682 87.6447 173.682 87.6448C165.252 69.7912 147.1 57.4529 126.063 57.4529C96.9796 57.4529 73.4117 81.035 73.4117 110.104C73.4117 111.566 73.4763 113.018 73.5967 114.455Z" style="fill:var(--sapContent_Illustrative_Color4)"/>
<path fill-rule="evenodd" clip-rule="evenodd" d="M238.437 119.182C249.2 123.291 256.852 133.717 256.852 145.925C256.852 161.731 244.045 174.539 228.238 174.539H76.5112C69.4943 174.539 63.0685 172.015 58.0918 167.825C137.162 170.209 225.524 156.412 233.839 140.496C238.22 132.108 239.102 124.842 238.437 119.182Z" style="fill:var(--sapContent_Illustrative_Color6)"/>
<path d="M179.094 134.796C179.483 132.959 181.288 131.785 183.125 132.175L240.938 144.422C242.775 144.811 243.948 146.615 243.559 148.452L231.312 206.265C230.923 208.102 229.119 209.276 227.282 208.887L169.468 196.639C167.632 196.25 166.458 194.446 166.847 192.609L179.094 134.796Z" style="fill:var(--sapContent_Illustrative_Color5)"/>
<path d="M176.094 131.796C176.483 129.959 178.288 128.785 180.125 129.175L237.938 141.422C239.775 141.811 240.948 143.615 240.559 145.452L228.312 203.265C227.923 205.102 226.119 206.276 224.282 205.887L166.468 193.639C164.632 193.25 163.458 191.446 163.847 189.609L176.094 131.796Z" style="fill:var(--sapContent_Illustrative_Color8)"/>
<path fill-rule="evenodd" clip-rule="evenodd" d="M179.503 132.109C179.287 132.064 179.075 132.202 179.029 132.418L166.782 190.231C166.736 190.447 166.874 190.659 167.09 190.705L224.903 202.952C225.119 202.997 225.332 202.859 225.377 202.644L237.624 144.83C237.67 144.614 237.532 144.402 237.316 144.356L179.503 132.109ZM180.125 129.175C178.288 128.785 176.483 129.959 176.094 131.796L163.847 189.609C163.458 191.446 164.632 193.25 166.468 193.639L224.282 205.887C226.119 206.276 227.923 205.102 228.312 203.265L240.559 145.452C240.948 143.615 239.775 141.811 237.938 141.422L180.125 129.175Z" style="fill:var(--sapContent_Illustrative_Color4)"/>
<path d="M181.342 143.712C181.925 140.957 184.632 139.196 187.387 139.78L225.758 147.908C228.514 148.492 230.274 151.199 229.69 153.954L222.612 187.366C222.029 190.122 219.322 191.882 216.567 191.298L178.196 183.17C175.44 182.586 173.68 179.879 174.264 177.124L181.342 143.712Z" style="fill:var(--sapContent_Illustrative_Color18)"/>
<path d="M213.448 165.804C217.556 166.674 221.592 164.049 222.462 159.941C223.332 155.833 220.707 151.797 216.599 150.927C212.491 150.057 208.456 152.682 207.585 156.79C206.715 160.898 209.34 164.933 213.448 165.804Z" style="fill:var(--sapContent_Illustrative_Color3)"/>
<path d="M197.902 179.693C199.88 178.86 201.908 178.13 203.976 177.505L202.857 175.705C195.263 163.406 193.265 158.577 186.388 153.807C184.381 152.342 182.257 151.029 180.035 149.88L173.927 178.716C173.832 179.162 173.833 179.623 173.928 180.074C174.023 180.525 174.212 180.956 174.482 181.343C174.753 181.73 175.101 182.065 175.506 182.329C175.911 182.593 176.365 182.781 176.842 182.882L188.35 185.32C191.191 182.983 194.414 181.085 197.902 179.693Z" style="fill:var(--sapContent_Illustrative_Color9)"/>
<path d="M209.768 177.107C207.726 176.101 205.468 176.322 202.915 177.116C200.958 177.78 199.038 178.551 197.162 179.424C193.857 180.886 190.794 182.857 188.083 185.265L217.836 191.568C213.063 184.694 214.094 179.239 209.768 177.107Z" style="fill:var(--sapContent_Illustrative_Color17)"/>
<path d="M39.716 50.0071L97.9096 37.3337C100.377 36.7964 102.811 38.3651 103.345 40.8374L121.701 125.68C122.236 128.152 120.67 130.592 118.203 131.129L60.009 143.803C57.5418 144.34 55.1081 142.771 54.5732 140.299L36.2172 55.4565C35.6823 52.9842 37.2487 50.5444 39.716 50.0071Z" style="fill:var(--sapContent_Illustrative_Color5)"/>
<path d="M35.717 48.0068L93.9106 35.3335C96.3778 34.7962 98.8116 36.3648 99.3464 38.8372L117.702 123.68C118.237 126.152 116.671 128.592 114.204 129.129L56.01 141.803C53.5428 142.34 51.109 140.771 50.5741 138.299L32.2181 53.4563C31.6832 50.9839 33.2497 48.5441 35.717 48.0068Z" style="fill:var(--sapContent_Illustrative_Color8)"/>
<path fill-rule="evenodd" clip-rule="evenodd" d="M36.3513 50.939L94.545 38.2656C95.3884 38.082 96.2296 38.6177 96.4152 39.4755L114.771 124.318C114.957 125.176 114.413 126.013 113.569 126.197L55.3756 138.87C54.5322 139.054 53.691 138.518 53.5054 137.66L35.1494 52.8179C34.9638 51.9601 35.5079 51.1227 36.3513 50.939ZM93.9106 35.3335L35.717 48.0068C33.2497 48.5441 31.6832 50.9839 32.2181 53.4563L50.5741 138.299C51.109 140.771 53.5428 142.34 56.01 141.803L114.204 129.129C116.671 128.592 118.237 126.152 117.702 123.68L99.3464 38.8372C98.8116 36.3648 96.3778 34.7962 93.9106 35.3335Z" style="fill:var(--sapContent_Illustrative_Color4)"/>
<path fill-rule="evenodd" clip-rule="evenodd" d="M85.2812 64.6373C86.3347 64.8934 86.9811 65.9551 86.725 67.0086L80.0334 94.5329C79.8755 95.1824 79.398 95.7069 78.7661 95.9249C78.1342 96.1429 77.4348 96.0244 76.91 95.6103L67.4104 88.116L61.3012 110.282C61.0131 111.327 59.9322 111.941 58.887 111.653C57.8418 111.365 57.228 110.284 57.5161 109.238L64.4114 84.2209C64.5862 83.5867 65.067 83.0823 65.6921 82.8772C66.3171 82.6722 67.0034 82.7939 67.5198 83.2013L76.9408 90.6337L82.9099 66.0811C83.166 65.0276 84.2277 64.3812 85.2812 64.6373Z" style="fill:var(--sapContent_Illustrative_Color1)"/>
<path d="M45.5311 65.491C45.4163 64.9612 45.7527 64.4387 46.2825 64.3239L49.1845 63.695C49.7143 63.5802 50.2368 63.9166 50.3517 64.4464L60.3078 110.39C60.4226 110.919 60.0862 111.442 59.5564 111.557L56.6545 112.186C56.1247 112.3 55.6021 111.964 55.4873 111.434L45.5311 65.491Z" style="fill:var(--sapContent_Illustrative_Color6)"/>
<path d="M57.0482 113.642C56.5189 113.759 55.9948 113.425 55.8775 112.896L55.2353 109.997C55.118 109.467 55.452 108.943 55.9813 108.826L101.878 98.6578C102.407 98.5406 102.931 98.8746 103.049 99.4038L103.691 102.303C103.808 102.832 103.474 103.356 102.945 103.473L57.0482 113.642Z" style="fill:var(--sapContent_Illustrative_Color6)"/>
<path d="M59.0176 123.073C58.7745 122.016 59.4317 120.953 60.4883 120.71L82.619 115.618C83.6756 115.375 84.7314 116.044 84.9745 117.101C85.2176 118.157 84.5603 119.221 83.5037 119.464L61.3731 124.555C60.3165 124.799 59.2607 124.129 59.0176 123.073Z" style="fill:var(--sapContent_Illustrative_Color5)"/>
</svg>
