<svg width="128" height="128" viewBox="0 0 128 128" fill="none" xmlns="http://www.w3.org/2000/svg" id="tnt-Spot-ChartPie-alternate">
<rect x="-1.2605" y="46.4551" width="113.183" height="75.5919" rx="6.72132" transform="rotate(-16.24 -1.2605 46.4551)" style="fill:var(--sapContent_Illustrative_Color6)"/>
<path d="M4.87977 49.0339C4.01466 46.0639 5.72099 42.9549 8.69097 42.0898L101.634 15.017C104.604 14.1518 107.713 15.8582 108.578 18.8281L125.677 77.5284C126.542 80.4984 124.835 83.6073 121.865 84.4724L28.9222 111.545C25.9523 112.41 22.8433 110.704 21.9782 107.734L4.87977 49.0339Z" style="fill:var(--sapContent_Illustrative_Color8)"/>
<path fill-rule="evenodd" clip-rule="evenodd" d="M8.13155 40.1697L101.075 13.0968C105.105 11.9228 109.324 14.2384 110.498 18.2689L127.597 76.9691C128.771 80.9996 126.455 85.2186 122.425 86.3926L29.4815 113.466C25.451 114.64 21.2319 112.324 20.0579 108.293L2.95948 49.5932C1.78546 45.5627 4.10108 41.3437 8.13155 40.1697ZM8.69087 42.0899C5.7209 42.955 4.01457 46.0639 4.87967 49.0339L21.9781 107.734C22.8432 110.704 25.9522 112.41 28.9221 111.545L121.865 84.4724C124.835 83.6073 126.542 80.4984 125.677 77.5284L108.578 18.8282C107.713 15.8582 104.604 14.1519 101.634 15.017L8.69087 42.0899Z" style="fill:var(--sapContent_Illustrative_Color4)"/>
<path d="M4.87977 49.0339C4.01466 46.0639 5.72099 42.9549 8.69097 42.0898L101.634 15.0169C104.604 14.1518 107.713 15.8582 108.578 18.8281L110.821 26.5287L7.12281 56.7344L4.87977 49.0339Z" style="fill:var(--sapContent_Illustrative_Color5)"/>
<circle cx="14.1293" cy="47.8" r="2.5205" transform="rotate(-16.24 14.1293 47.8)" style="fill:var(--sapContent_Illustrative_Color8)"/>
<circle cx="23.2713" cy="45.1369" r="2.5205" transform="rotate(-16.24 23.2713 45.1369)" style="fill:var(--sapContent_Illustrative_Color8)"/>
<circle cx="32.4133" cy="42.4743" r="2.5205" transform="rotate(-16.24 32.4133 42.4743)" style="fill:var(--sapContent_Illustrative_Color8)"/>
<rect x="16.9197" y="61.1567" width="93.1985" height="44.2274" rx="2.81362" transform="rotate(-16.24 16.9197 61.1567)" style="fill:var(--sapContent_Illustrative_Color7)"/>
<path d="M45.1405 59.5272C45.0758 59.1815 44.7428 58.9525 44.3998 59.0301C41.3231 59.7254 38.4948 61.2612 36.2332 63.472C33.8196 65.8312 32.1598 68.8533 31.4637 72.1559C30.7677 75.4585 31.0666 78.8933 32.3226 82.026C33.5787 85.1588 35.7355 87.8487 38.5203 89.7556C41.3051 91.6626 44.5929 92.7009 47.9678 92.7393C51.3428 92.7777 54.6533 91.8144 57.4808 89.9713C60.3083 88.1282 62.5257 85.4881 63.8528 82.3847C65.0962 79.4768 65.5055 76.2846 65.0414 73.1646C64.9896 72.8168 64.6557 72.5891 64.3101 72.6538L48.7879 75.5582C48.4422 75.6229 48.1095 75.3951 48.0449 75.0494L45.1405 59.5272Z" style="fill:var(--sapContent_Illustrative_Color2)"/>
<path d="M45.1404 59.5271C45.0757 59.1814 44.7427 58.9524 44.3997 59.03C41.9603 59.5813 39.6717 60.6622 37.6963 62.196C37.4185 62.4117 37.3838 62.8143 37.6097 63.0839L47.3815 74.7439C47.5919 74.995 47.9987 74.8029 47.9385 74.4809L45.1404 59.5271Z" style="fill:var(--sapContent_Illustrative_Color13)"/>
<path d="M64.3101 72.6538C64.6557 72.5891 64.9896 72.8168 65.0414 73.1646C65.3962 75.5503 65.2417 77.9866 64.585 80.3124C63.8705 82.8427 62.5811 85.1737 60.8173 87.1234C59.0535 89.0732 56.863 90.5891 54.4168 91.5528C52.1683 92.4386 49.7596 92.8358 47.3504 92.7211C46.9991 92.7043 46.7392 92.3949 46.769 92.0445L48.1209 76.1581C48.1452 75.8728 48.3568 75.6388 48.6382 75.5862L64.3101 72.6538Z" style="fill:var(--sapContent_Illustrative_Color14)"/>
<path d="M64.3101 72.6537C64.6557 72.5891 64.9896 72.8167 65.0414 73.1646C65.3023 74.9191 65.2882 76.7036 64.9994 78.4537C64.9421 78.8007 64.6046 79.023 64.26 78.9529L49.759 76.0004C49.4165 75.9307 49.4204 75.4398 49.764 75.3755L64.3101 72.6537Z" style="fill:var(--sapContent_Illustrative_Color4)"/>
<path d="M54.2477 56.2573C54.3529 55.9217 54.7106 55.734 55.0428 55.8493C58.4658 57.0373 61.5266 59.0927 63.9235 61.8194C66.3205 64.5461 67.9667 67.8451 68.7062 71.392C68.778 71.7363 68.546 72.067 68.1997 72.1283L49.1939 75.4926C48.7236 75.5758 48.3325 75.1309 48.4753 74.6751L54.2477 56.2573Z" style="fill:var(--sapContent_Illustrative_Color3)"/>
<path fill-rule="evenodd" clip-rule="evenodd" d="M63.6225 67.8576C63.8571 67.4547 64.3738 67.3183 64.7767 67.5529L76.4657 74.3599L89.3238 70.6146C89.7714 70.4842 90.2399 70.7413 90.3703 71.1889C90.5007 71.6365 90.2435 72.105 89.796 72.2354L76.59 76.082C76.368 76.1467 76.1291 76.1175 75.9292 76.0011L63.9271 69.0118C63.5243 68.7772 63.3879 68.2604 63.6225 67.8576Z" style="fill:var(--sapContent_Illustrative_Color5)"/>
<path fill-rule="evenodd" clip-rule="evenodd" d="M76.191 57.0642C75.9302 56.169 76.4445 55.232 77.3397 54.9712L101.942 47.8049C102.837 47.5442 103.774 48.0585 104.035 48.9536C104.296 49.8488 103.782 50.7858 102.886 51.0465L78.2839 58.2129C77.3888 58.4736 76.4517 57.9593 76.191 57.0642Z" style="fill:var(--sapContent_Illustrative_Color4)"/>
<path fill-rule="evenodd" clip-rule="evenodd" d="M78.6812 65.6135C78.4205 64.7183 78.9348 63.7813 79.8299 63.5206L96.9768 58.5259C97.872 58.2652 98.809 58.7795 99.0698 59.6746C99.3305 60.5698 98.8162 61.5068 97.9211 61.7676L80.7741 66.7622C79.879 67.0229 78.942 66.5086 78.6812 65.6135Z" style="fill:var(--sapContent_Illustrative_Color4)"/>
</svg>
