<svg width="320" height="241" viewBox="0 0 320 241" fill="none" xmlns="http://www.w3.org/2000/svg" id="tnt-Scene-Components-alternate">
<path d="M130.352 144.918H33.9433C26.384 144.918 19.1343 147.921 13.789 153.267C8.4438 158.612 5.44092 165.862 5.44092 173.421C5.44092 180.98 8.4438 188.23 13.789 193.575C19.1343 198.92 26.384 201.923 33.9433 201.923H130.392C137.952 201.923 145.201 198.92 150.547 193.575C155.892 188.23 158.895 180.98 158.895 173.421C158.895 165.862 155.892 158.612 150.547 153.267C145.201 147.921 137.952 144.918 130.392 144.918H130.352Z" style="fill:var(--sapContent_Illustrative_Color7)"/>
<path d="M165.474 173.211H69.0149C61.5493 173.351 54.4366 176.415 49.2063 181.744C43.9761 187.073 41.0459 194.242 41.0459 201.709C41.0459 209.176 43.9761 216.344 49.2063 221.673C54.4366 227.002 61.5493 230.066 69.0149 230.206H165.474C172.939 230.066 180.052 227.002 185.282 221.673C190.513 216.344 193.443 209.176 193.443 201.709C193.443 194.242 190.513 187.073 185.282 181.744C180.052 176.415 172.939 173.351 165.474 173.211Z" style="fill:var(--sapContent_Illustrative_Color7)"/>
<path d="M290.964 94.3927H194.515C190.728 94.3218 186.965 95.0065 183.445 96.4068C179.926 97.8071 176.721 99.8949 174.017 102.548C171.314 105.201 169.166 108.367 167.7 111.86C166.235 115.352 165.479 119.102 165.479 122.89C165.479 126.678 166.235 130.428 167.7 133.921C169.166 137.413 171.314 140.579 174.017 143.232C176.721 145.885 179.926 147.973 183.445 149.373C186.965 150.774 190.728 151.458 194.515 151.388H290.964C294.752 151.458 298.515 150.774 302.034 149.373C305.554 147.973 308.759 145.885 311.463 143.232C314.166 140.579 316.313 137.413 317.779 133.921C319.245 130.428 320 126.678 320 122.89C320 119.102 319.245 115.352 317.779 111.86C316.313 108.367 314.166 105.201 311.463 102.548C308.759 99.8949 305.554 97.8071 302.034 96.4068C298.515 95.0065 294.752 94.3218 290.964 94.3927Z" style="fill:var(--sapContent_Illustrative_Color7)"/>
<path d="M219.084 42.3596H37.767C27.7505 42.3596 18.1444 46.3386 11.0617 53.4213C3.979 60.504 0 70.1102 0 80.1266C0 90.143 3.979 99.7492 11.0617 106.832C18.1444 113.915 27.7505 117.894 37.767 117.894H219.084C229.101 117.894 238.707 113.915 245.789 106.832C252.872 99.7492 256.851 90.143 256.851 80.1266C256.851 70.1102 252.872 60.504 245.789 53.4213C238.707 46.3386 229.101 42.3596 219.084 42.3596Z" style="fill:var(--sapContent_Illustrative_Color7)"/>
<path d="M108.646 142.687C108.646 141.583 109.541 140.687 110.646 140.687H129.421C130.525 140.687 131.421 141.583 131.421 142.687V157.802C131.421 158.907 130.525 159.802 129.421 159.802H110.646C109.541 159.802 108.646 158.907 108.646 157.802V142.687Z" style="fill:var(--sapContent_Illustrative_Color8)"/>
<path fill-rule="evenodd" clip-rule="evenodd" d="M110.646 137.687H129.421C132.182 137.687 134.421 139.926 134.421 142.687V157.802C134.421 160.564 132.182 162.802 129.421 162.802H110.646C107.885 162.802 105.646 160.564 105.646 157.802V142.687C105.646 139.926 107.885 137.687 110.646 137.687ZM110.646 140.687C109.541 140.687 108.646 141.583 108.646 142.687V157.802C108.646 158.907 109.541 159.802 110.646 159.802H129.421C130.525 159.802 131.421 158.907 131.421 157.802V142.687C131.421 141.583 130.525 140.687 129.421 140.687H110.646Z" style="fill:var(--sapContent_Illustrative_Color4)"/>
<path d="M150.301 142.687C150.301 141.583 151.197 140.687 152.301 140.687H171.076C172.181 140.687 173.076 141.583 173.076 142.687V157.802C173.076 158.907 172.181 159.802 171.076 159.802H152.301C151.197 159.802 150.301 158.907 150.301 157.802V142.687Z" style="fill:var(--sapContent_Illustrative_Color8)"/>
<path fill-rule="evenodd" clip-rule="evenodd" d="M152.301 137.687H171.076C173.838 137.687 176.076 139.926 176.076 142.687V157.802C176.076 160.564 173.838 162.802 171.076 162.802H152.301C149.54 162.802 147.301 160.564 147.301 157.802V142.687C147.301 139.926 149.54 137.687 152.301 137.687ZM152.301 140.687C151.197 140.687 150.301 141.583 150.301 142.687V157.802C150.301 158.907 151.197 159.802 152.301 159.802H171.076C172.181 159.802 173.076 158.907 173.076 157.802V142.687C173.076 141.583 172.181 140.687 171.076 140.687H152.301Z" style="fill:var(--sapContent_Illustrative_Color4)"/>
<path d="M191.957 142.687C191.957 141.583 192.852 140.687 193.957 140.687H212.731C213.836 140.687 214.731 141.583 214.731 142.687V157.802C214.731 158.907 213.836 159.802 212.731 159.802H193.957C192.852 159.802 191.957 158.907 191.957 157.802V142.687Z" style="fill:var(--sapContent_Illustrative_Color8)"/>
<path fill-rule="evenodd" clip-rule="evenodd" d="M193.957 137.687H212.731C215.493 137.687 217.731 139.926 217.731 142.687V157.802C217.731 160.564 215.493 162.802 212.731 162.802H193.957C191.195 162.802 188.957 160.564 188.957 157.802V142.687C188.957 139.926 191.195 137.687 193.957 137.687ZM193.957 140.687C192.852 140.687 191.957 141.583 191.957 142.687V157.802C191.957 158.907 192.852 159.802 193.957 159.802H212.731C213.836 159.802 214.731 158.907 214.731 157.802V142.687C214.731 141.583 213.836 140.687 212.731 140.687H193.957Z" style="fill:var(--sapContent_Illustrative_Color4)"/>
<path d="M94.3511 154.515H229.026V195.998H94.3511V154.515Z" style="fill:var(--sapContent_Illustrative_Color8)"/>
<path fill-rule="evenodd" clip-rule="evenodd" d="M91.3511 151.515H232.026V198.998H91.3511V151.515ZM94.3511 154.515V195.998H229.026V154.515H94.3511Z" style="fill:var(--sapContent_Illustrative_Color4)"/>
<rect x="200.296" y="96.0442" width="22.7749" height="19.115" rx="3" style="fill:var(--sapContent_Illustrative_Color14)"/>
<rect x="241.951" y="96.0442" width="22.7749" height="19.115" rx="3" style="fill:var(--sapContent_Illustrative_Color14)"/>
<rect x="186.001" y="109.872" width="92.835" height="41.4831" style="fill:var(--sapContent_Illustrative_Color2)"/>
<path d="M153.878 56.561C153.878 55.4565 154.773 54.561 155.878 54.561H174.653C175.757 54.561 176.653 55.4565 176.653 56.561V71.676C176.653 72.7806 175.757 73.676 174.653 73.676H155.878C154.773 73.676 153.878 72.7806 153.878 71.676V56.561Z" style="fill:var(--sapContent_Illustrative_Color8)"/>
<path fill-rule="evenodd" clip-rule="evenodd" d="M155.878 51.561H174.653C177.414 51.561 179.653 53.7996 179.653 56.561V71.676C179.653 74.4374 177.414 76.676 174.653 76.676H155.878C153.117 76.676 150.878 74.4375 150.878 71.676V56.561C150.878 53.7996 153.117 51.561 155.878 51.561ZM155.878 54.561C154.773 54.561 153.878 55.4565 153.878 56.561V71.676C153.878 72.7806 154.773 73.676 155.878 73.676H174.653C175.757 73.676 176.653 72.7806 176.653 71.676V56.561C176.653 55.4565 175.757 54.561 174.653 54.561H155.878Z" style="fill:var(--sapContent_Illustrative_Color4)"/>
<path d="M195.533 56.561C195.533 55.4565 196.429 54.561 197.533 54.561H216.308C217.413 54.561 218.308 55.4565 218.308 56.561V71.676C218.308 72.7806 217.413 73.676 216.308 73.676H197.533C196.429 73.676 195.533 72.7806 195.533 71.676V56.561Z" style="fill:var(--sapContent_Illustrative_Color8)"/>
<path fill-rule="evenodd" clip-rule="evenodd" d="M197.533 51.561H216.308C219.069 51.561 221.308 53.7996 221.308 56.561V71.676C221.308 74.4374 219.069 76.676 216.308 76.676H197.533C194.772 76.676 192.533 74.4375 192.533 71.676V56.561C192.533 53.7996 194.772 51.561 197.533 51.561ZM197.533 54.561C196.429 54.561 195.533 55.4565 195.533 56.561V71.676C195.533 72.7806 196.429 73.676 197.533 73.676H216.308C217.413 73.676 218.308 72.7806 218.308 71.676V56.561C218.308 55.4565 217.413 54.561 216.308 54.561H197.533Z" style="fill:var(--sapContent_Illustrative_Color4)"/>
<path d="M139.583 68.3887H232.418V109.872H139.583V68.3887Z" style="fill:var(--sapContent_Illustrative_Color8)"/>
<path fill-rule="evenodd" clip-rule="evenodd" d="M136.583 65.3887H235.418V112.872H136.583V65.3887ZM139.583 68.3887V109.872H232.418V68.3887H139.583Z" style="fill:var(--sapContent_Illustrative_Color4)"/>
<rect x="20.5869" y="85.4827" width="22.7749" height="19.115" rx="3" transform="rotate(-40.3434 20.5869 85.4827)" style="fill:var(--sapContent_Illustrative_Color15)"/>
<rect x="18.6431" y="105.276" width="51.2085" height="41.4831" transform="rotate(-40.3434 18.6431 105.276)" style="fill:var(--sapContent_Illustrative_Color3)"/>
</svg>
