<svg width="320" height="240" viewBox="0 0 320 240" fill="none" xmlns="http://www.w3.org/2000/svg" id="tnt-Scene-ChartBullet-alternate">
<path d="M130.352 144.456H33.9433C26.384 144.456 19.1343 147.459 13.789 152.804C8.4438 158.149 5.44092 165.399 5.44092 172.958C5.44092 180.518 8.4438 187.767 13.789 193.113C19.1343 198.458 26.384 201.461 33.9433 201.461H130.392C137.952 201.461 145.201 198.458 150.547 193.113C155.892 187.767 158.895 180.518 158.895 172.958C158.895 165.399 155.892 158.149 150.547 152.804C145.201 147.459 137.952 144.456 130.392 144.456H130.352Z" style="fill:var(--sapContent_Illustrative_Color7)"/>
<path d="M165.474 172.749H69.0146C61.549 172.889 54.4364 175.953 49.2061 181.282C43.9758 186.611 41.0457 193.78 41.0457 201.246C41.0457 208.713 43.9758 215.882 49.2061 221.211C54.4364 226.54 61.549 229.604 69.0146 229.744H165.474C172.939 229.604 180.052 226.54 185.282 221.211C190.512 215.882 193.443 208.713 193.443 201.246C193.443 193.78 190.512 186.611 185.282 181.282C180.052 175.953 172.939 172.889 165.474 172.749Z" style="fill:var(--sapContent_Illustrative_Color7)"/>
<path d="M290.964 93.9308H194.515C190.728 93.8599 186.965 94.5446 183.445 95.9449C179.925 97.3452 176.72 99.433 174.017 102.086C171.314 104.739 169.166 107.905 167.7 111.398C166.234 114.89 165.479 118.64 165.479 122.428C165.479 126.216 166.234 129.966 167.7 133.459C169.166 136.951 171.314 140.117 174.017 142.77C176.72 145.423 179.925 147.511 183.445 148.911C186.965 150.312 190.728 150.997 194.515 150.926H290.964C294.751 150.997 298.515 150.312 302.034 148.911C305.554 147.511 308.759 145.423 311.462 142.77C314.166 140.117 316.313 136.951 317.779 133.459C319.245 129.966 320 126.216 320 122.428C320 118.64 319.245 114.89 317.779 111.398C316.313 107.905 314.166 104.739 311.462 102.086C308.759 99.433 305.554 97.3452 302.034 95.9449C298.515 94.5446 294.751 93.8599 290.964 93.9308Z" style="fill:var(--sapContent_Illustrative_Color7)"/>
<path d="M219.084 41.8975H37.767C27.7505 41.8975 18.1444 45.8765 11.0617 52.9591C3.979 60.0418 0 69.648 0 79.6644C0 89.6808 3.979 99.287 11.0617 106.37C18.1444 113.452 27.7505 117.431 37.767 117.431H219.084C229.101 117.431 238.707 113.452 245.789 106.37C252.872 99.287 256.851 89.6808 256.851 79.6644C256.851 69.648 252.872 60.0418 245.789 52.9591C238.707 45.8765 229.101 41.8975 219.084 41.8975Z" style="fill:var(--sapContent_Illustrative_Color7)"/>
<rect x="36.1853" y="76.2544" width="202.073" height="134.959" rx="12" transform="rotate(-8.29 36.1853 76.2544)" style="fill:var(--sapContent_Illustrative_Color6)"/>
<path d="M46.4059 82.3311C45.6096 76.8659 49.3945 71.79 54.8596 70.9937L225.887 46.0739C231.353 45.2776 236.428 49.0625 237.225 54.5276L252.963 162.544C253.76 168.009 249.975 173.085 244.51 173.881L73.4819 198.801C68.0168 199.597 62.9408 195.812 62.1445 190.347L46.4059 82.3311Z" style="fill:var(--sapContent_Illustrative_Color8)"/>
<path fill-rule="evenodd" clip-rule="evenodd" d="M54.4269 68.025L225.455 43.1053C232.559 42.0701 239.158 46.9904 240.193 54.095L255.932 162.111C256.967 169.216 252.047 175.815 244.942 176.85L73.9143 201.769C66.8096 202.805 60.2109 197.884 59.1757 190.78L43.4371 82.7636C42.4019 75.6589 47.3222 69.0602 54.4269 68.025ZM54.8595 70.9937C49.3943 71.79 45.6095 76.8659 46.4058 82.331L62.1444 190.347C62.9407 195.812 68.0166 199.597 73.4817 198.801L244.51 173.881C249.975 173.085 253.759 168.009 252.963 162.544L237.225 54.5276C236.428 49.0624 231.352 45.2776 225.887 46.0739L54.8595 70.9937Z" style="fill:var(--sapContent_Illustrative_Color4)"/>
<path d="M46.4059 82.3311C45.6096 76.8659 49.3945 71.79 54.8596 70.9937L225.887 46.0739C231.353 45.2776 236.428 49.0625 237.225 54.5276L239.289 68.6976L48.4706 96.5011L46.4059 82.3311Z" style="fill:var(--sapContent_Illustrative_Color5)"/>
<circle cx="63.0649" cy="82.4326" r="4.5" transform="rotate(-8.29 63.0649 82.4326)" style="fill:var(--sapContent_Illustrative_Color8)"/>
<circle cx="79.8872" cy="79.9814" r="4.5" transform="rotate(-8.29 79.8872 79.9814)" style="fill:var(--sapContent_Illustrative_Color8)"/>
<circle cx="96.7097" cy="77.5302" r="4.5" transform="rotate(-8.29 96.7097 77.5302)" style="fill:var(--sapContent_Illustrative_Color8)"/>
<path d="M258.613 26.3833C258.613 25.1945 255.162 24.2429 250.551 24.0267C250.287 19.4216 249.272 15.9974 248.083 16C246.894 16.0026 245.906 19.4532 245.652 24.0821C241.028 24.3984 237.59 25.4317 237.606 26.6232C237.622 27.8147 241.057 28.7663 245.668 28.9798C245.945 33.585 246.947 37.0092 248.133 37.0066C249.32 37.0039 250.313 33.5534 250.567 28.9245C255.191 28.6082 258.626 27.5748 258.613 26.3833Z" style="fill:var(--sapContent_Illustrative_Color3)"/>
<path d="M275.617 47.8971C275.617 47.1309 273.393 46.5176 270.422 46.3783C270.252 43.4106 269.598 41.2039 268.831 41.2056C268.065 41.2073 267.428 43.431 267.265 46.414C264.285 46.6179 262.069 47.2838 262.08 48.0516C262.09 48.8195 264.304 49.4327 267.275 49.5703C267.454 52.5381 268.099 54.7448 268.864 54.7431C269.628 54.7414 270.269 52.5177 270.432 49.5347C273.412 49.3308 275.626 48.6649 275.617 47.8971Z" style="fill:var(--sapContent_Illustrative_Color3)"/>
<rect x="64.0671" y="106.312" width="165.62" height="78.5952" rx="5" transform="rotate(-8.29 64.0671 106.312)" style="fill:var(--sapContent_Illustrative_Color7)"/>
<rect x="104.29" y="171.462" width="28.0869" height="16.852" rx="2.00019" transform="rotate(-98.29 104.29 171.462)" style="fill:var(--sapContent_Illustrative_Color14)"/>
<rect x="133.3" y="167.235" width="61.9409" height="16.852" rx="2" transform="rotate(-98.29 133.3 167.235)" style="fill:var(--sapContent_Illustrative_Color3)"/>
<rect x="162.31" y="163.008" width="48.751" height="16.852" rx="2.00019" transform="rotate(-98.29 162.31 163.008)" style="fill:var(--sapContent_Illustrative_Color2)"/>
<rect x="191.321" y="158.781" width="35.2744" height="16.852" rx="2" transform="rotate(-98.29 191.321 158.781)" style="fill:var(--sapContent_Illustrative_Color13)"/>
<path fill-rule="evenodd" clip-rule="evenodd" d="M94.3086 128.924C94.1891 128.104 94.7568 127.343 95.5766 127.223L116.694 124.146C117.514 124.027 118.275 124.595 118.394 125.414C118.514 126.234 117.946 126.995 117.126 127.115L96.0092 130.192C95.1894 130.311 94.428 129.744 94.3086 128.924Z" style="fill:var(--sapContent_Illustrative_Color4)"/>
<path fill-rule="evenodd" clip-rule="evenodd" d="M126.226 144.652C126.107 143.832 126.675 143.071 127.494 142.951L148.611 139.874C149.431 139.755 150.193 140.323 150.312 141.142C150.432 141.962 149.864 142.724 149.044 142.843L127.927 145.92C127.107 146.039 126.346 145.472 126.226 144.652Z" style="fill:var(--sapContent_Illustrative_Color4)"/>
<path fill-rule="evenodd" clip-rule="evenodd" d="M153.303 127.158C153.184 126.338 153.752 125.577 154.571 125.457L175.689 122.38C176.508 122.261 177.27 122.828 177.389 123.648C177.509 124.468 176.941 125.229 176.121 125.349L155.004 128.426C154.184 128.545 153.423 127.977 153.303 127.158Z" style="fill:var(--sapContent_Illustrative_Color4)"/>
<path fill-rule="evenodd" clip-rule="evenodd" d="M180.715 111.956C180.595 111.136 181.163 110.374 181.983 110.255L203.1 107.178C203.92 107.059 204.681 107.626 204.801 108.446C204.92 109.266 204.352 110.027 203.533 110.147L182.415 113.224C181.596 113.343 180.834 112.775 180.715 111.956Z" style="fill:var(--sapContent_Illustrative_Color4)"/>
</svg>
