<svg width="320" height="240" viewBox="0 0 320 240" fill="none" xmlns="http://www.w3.org/2000/svg" id="tnt-Scene-ChartPie-alternate">
<path d="M130.352 144.456H33.9433C26.384 144.456 19.1343 147.459 13.789 152.804C8.4438 158.149 5.44092 165.399 5.44092 172.958C5.44092 180.518 8.4438 187.767 13.789 193.113C19.1343 198.458 26.384 201.461 33.9433 201.461H130.392C137.952 201.461 145.201 198.458 150.547 193.113C155.892 187.767 158.895 180.518 158.895 172.958C158.895 165.399 155.892 158.149 150.547 152.804C145.201 147.459 137.952 144.456 130.392 144.456H130.352Z" style="fill:var(--sapContent_Illustrative_Color7)"/>
<path d="M165.474 172.749H69.0146C61.549 172.889 54.4364 175.953 49.2061 181.282C43.9758 186.611 41.0457 193.78 41.0457 201.246C41.0457 208.713 43.9758 215.882 49.2061 221.211C54.4364 226.54 61.549 229.604 69.0146 229.744H165.474C172.939 229.604 180.052 226.54 185.282 221.211C190.512 215.882 193.443 208.713 193.443 201.246C193.443 193.78 190.512 186.611 185.282 181.282C180.052 175.953 172.939 172.889 165.474 172.749Z" style="fill:var(--sapContent_Illustrative_Color7)"/>
<path d="M290.964 93.9308H194.515C190.728 93.8599 186.965 94.5446 183.445 95.9449C179.925 97.3452 176.72 99.433 174.017 102.086C171.314 104.739 169.166 107.905 167.7 111.398C166.234 114.89 165.479 118.64 165.479 122.428C165.479 126.216 166.234 129.966 167.7 133.459C169.166 136.951 171.314 140.117 174.017 142.77C176.72 145.423 179.925 147.511 183.445 148.911C186.965 150.312 190.728 150.997 194.515 150.926H290.964C294.751 150.997 298.515 150.312 302.034 148.911C305.554 147.511 308.759 145.423 311.462 142.77C314.166 140.117 316.313 136.951 317.779 133.459C319.245 129.966 320 126.216 320 122.428C320 118.64 319.245 114.89 317.779 111.398C316.313 107.905 314.166 104.739 311.462 102.086C308.759 99.433 305.554 97.3452 302.034 95.9449C298.515 94.5446 294.751 93.8599 290.964 93.9308Z" style="fill:var(--sapContent_Illustrative_Color7)"/>
<path d="M219.084 41.8975H37.767C27.7505 41.8975 18.1444 45.8765 11.0617 52.9591C3.979 60.0418 0 69.648 0 79.6644C0 89.6808 3.979 99.287 11.0617 106.37C18.1444 113.452 27.7505 117.431 37.767 117.431H219.084C229.101 117.431 238.707 113.452 245.789 106.37C252.872 99.287 256.851 89.6808 256.851 79.6644C256.851 69.648 252.872 60.0418 245.789 52.9591C238.707 45.8765 229.101 41.8975 219.084 41.8975Z" style="fill:var(--sapContent_Illustrative_Color7)"/>
<rect x="36.1853" y="76.2544" width="202.073" height="134.959" rx="12" transform="rotate(-8.29 36.1853 76.2544)" style="fill:var(--sapContent_Illustrative_Color6)"/>
<path d="M46.4059 82.3311C45.6096 76.8659 49.3945 71.79 54.8596 70.9937L225.887 46.0739C231.353 45.2776 236.428 49.0625 237.225 54.5276L252.963 162.544C253.76 168.009 249.975 173.085 244.51 173.881L73.4819 198.801C68.0168 199.597 62.9408 195.812 62.1445 190.347L46.4059 82.3311Z" style="fill:var(--sapContent_Illustrative_Color8)"/>
<path fill-rule="evenodd" clip-rule="evenodd" d="M54.4269 68.025L225.455 43.1053C232.559 42.0701 239.158 46.9904 240.193 54.095L255.932 162.111C256.967 169.216 252.047 175.815 244.942 176.85L73.9143 201.769C66.8096 202.805 60.2109 197.884 59.1757 190.78L43.4371 82.7636C42.4019 75.6589 47.3222 69.0602 54.4269 68.025ZM54.8595 70.9937C49.3943 71.79 45.6095 76.8659 46.4058 82.331L62.1444 190.347C62.9407 195.812 68.0166 199.597 73.4817 198.801L244.51 173.881C249.975 173.085 253.759 168.009 252.963 162.544L237.225 54.5276C236.428 49.0624 231.352 45.2776 225.887 46.0739L54.8595 70.9937Z" style="fill:var(--sapContent_Illustrative_Color4)"/>
<path d="M46.4059 82.3311C45.6096 76.8659 49.3945 71.79 54.8596 70.9937L225.887 46.0739C231.353 45.2776 236.428 49.0625 237.225 54.5276L239.289 68.6976L48.4706 96.5011L46.4059 82.3311Z" style="fill:var(--sapContent_Illustrative_Color5)"/>
<circle cx="63.0649" cy="82.4326" r="4.5" transform="rotate(-8.29 63.0649 82.4326)" style="fill:var(--sapContent_Illustrative_Color8)"/>
<circle cx="79.8872" cy="79.9814" r="4.5" transform="rotate(-8.29 79.8872 79.9814)" style="fill:var(--sapContent_Illustrative_Color8)"/>
<circle cx="96.7097" cy="77.5302" r="4.5" transform="rotate(-8.29 96.7097 77.5302)" style="fill:var(--sapContent_Illustrative_Color8)"/>
<path d="M258.613 26.3833C258.613 25.1945 255.162 24.2429 250.551 24.0267C250.287 19.4216 249.272 15.9974 248.083 16C246.894 16.0026 245.906 19.4532 245.652 24.0821C241.028 24.3984 237.59 25.4317 237.606 26.6232C237.622 27.8147 241.057 28.7663 245.668 28.9798C245.945 33.585 246.947 37.0092 248.133 37.0066C249.32 37.0039 250.313 33.5534 250.567 28.9245C255.191 28.6082 258.626 27.5748 258.613 26.3833Z" style="fill:var(--sapContent_Illustrative_Color3)"/>
<path d="M275.617 47.8971C275.617 47.1309 273.393 46.5176 270.422 46.3783C270.252 43.4106 269.598 41.2039 268.831 41.2056C268.065 41.2073 267.428 43.431 267.265 46.414C264.285 46.6179 262.069 47.2838 262.08 48.0516C262.09 48.8195 264.304 49.4327 267.275 49.5703C267.454 52.5381 268.099 54.7448 268.864 54.7431C269.628 54.7414 270.269 52.5177 270.432 49.5347C273.412 49.3308 275.626 48.6649 275.617 47.8971Z" style="fill:var(--sapContent_Illustrative_Color3)"/>
<rect x="64.0671" y="106.312" width="165.62" height="78.5952" rx="5" transform="rotate(-8.29 64.0671 106.312)" style="fill:var(--sapContent_Illustrative_Color7)"/>
<path d="M114.136 110.38C114.107 109.756 113.577 109.271 112.955 109.323C107.369 109.791 102.013 111.799 97.4897 115.134C92.6619 118.693 88.9979 123.604 86.9611 129.245C84.9243 134.887 84.6061 141.006 86.0468 146.828C87.4875 152.65 90.6223 157.914 95.0549 161.955C99.4875 165.996 105.019 168.631 110.949 169.528C116.88 170.425 122.943 169.544 128.372 166.995C133.802 164.446 138.353 160.344 141.451 155.209C144.355 150.396 145.86 144.879 145.81 139.274C145.804 138.649 145.272 138.166 144.648 138.195L116.615 139.491C115.991 139.52 115.461 139.038 115.433 138.413L114.136 110.38Z" style="fill:var(--sapContent_Illustrative_Color2)"/>
<path d="M114.136 110.38C114.107 109.756 113.577 109.271 112.954 109.323C108.526 109.694 104.232 111.034 100.378 113.248C99.8364 113.559 99.6764 114.259 100.008 114.789L114.34 137.713C114.649 138.206 115.412 137.968 115.385 137.386L114.136 110.38Z" style="fill:var(--sapContent_Illustrative_Color13)"/>
<path d="M144.648 138.195C145.272 138.166 145.804 138.649 145.81 139.274C145.848 143.56 144.977 147.809 143.249 151.741C141.37 156.019 138.528 159.805 134.944 162.803C131.361 165.801 127.133 167.93 122.591 169.025C118.416 170.032 114.079 170.139 109.867 169.345C109.253 169.229 108.871 168.62 109.01 168.011L115.294 140.383C115.407 139.887 115.837 139.527 116.345 139.504L144.648 138.195Z" style="fill:var(--sapContent_Illustrative_Color14)"/>
<path d="M144.648 138.195C145.272 138.166 145.804 138.649 145.81 139.274C145.838 142.426 145.374 145.563 144.436 148.572C144.25 149.169 143.601 149.477 143.012 149.269L118.216 140.509C117.63 140.302 117.758 139.439 118.378 139.41L144.648 138.195Z" style="fill:var(--sapContent_Illustrative_Color4)"/>
<path d="M130.968 106.864C131.236 106.3 131.912 106.057 132.468 106.342C138.2 109.274 143.082 113.644 146.631 119.032C150.179 124.42 152.266 130.631 152.695 137.055C152.737 137.679 152.247 138.204 151.623 138.226L117.346 139.476C116.498 139.507 115.919 138.628 116.282 137.861L130.968 106.864Z" style="fill:var(--sapContent_Illustrative_Color3)"/>
<path fill-rule="evenodd" clip-rule="evenodd" d="M144.617 129.585C145.129 128.933 146.072 128.82 146.723 129.332L165.623 144.186L189.173 140.754C189.993 140.635 190.754 141.202 190.874 142.022C190.993 142.842 190.426 143.603 189.606 143.723L165.418 147.247C165.011 147.306 164.598 147.196 164.275 146.942L144.869 131.691C144.218 131.179 144.105 130.236 144.617 129.585Z" style="fill:var(--sapContent_Illustrative_Color5)"/>
<path fill-rule="evenodd" clip-rule="evenodd" d="M169.39 113.678C169.151 112.038 170.287 110.515 171.926 110.276L216.988 103.711C218.627 103.472 220.15 104.607 220.389 106.247C220.628 107.886 219.492 109.409 217.853 109.648L172.791 116.214C171.152 116.453 169.629 115.317 169.39 113.678Z" style="fill:var(--sapContent_Illustrative_Color4)"/>
<path fill-rule="evenodd" clip-rule="evenodd" d="M171.672 129.337C171.433 127.697 172.568 126.175 174.208 125.936L205.614 121.36C207.253 121.121 208.776 122.256 209.015 123.896C209.254 125.535 208.118 127.058 206.479 127.297L175.073 131.873C173.433 132.112 171.91 130.976 171.672 129.337Z" style="fill:var(--sapContent_Illustrative_Color4)"/>
</svg>
