<svg width="128" height="128" viewBox="0 0 128 128" fill="none" xmlns="http://www.w3.org/2000/svg" id="tnt-Spot-SuccessfulAuth-alternate">
<rect x="-1.41797" y="45.2314" width="110.653" height="73.9022" rx="6.57108" transform="rotate(-16.24 -1.41797 45.2314)" style="fill:var(--sapContent_Illustrative_Color6)"/>
<path d="M4.58609 47.753C3.74032 44.8494 5.40851 41.81 8.31209 40.9642L99.1778 14.4965C102.081 13.6507 105.121 15.3189 105.967 18.2225L122.683 75.6106C123.529 78.5142 121.86 81.5536 118.957 82.3994L28.0911 108.867C25.1875 109.713 22.1481 108.045 21.3023 105.141L4.58609 47.753Z" style="fill:var(--sapContent_Illustrative_Color8)"/>
<path fill-rule="evenodd" clip-rule="evenodd" d="M7.75377 39.044L98.6194 12.5763C102.584 11.4217 106.733 13.6991 107.888 17.6632L124.604 75.0513C125.759 79.0154 123.481 83.165 119.517 84.3196L28.6515 110.787C24.6874 111.942 20.5378 109.665 19.3831 105.7L2.66689 48.3124C1.51222 44.3483 3.78969 40.1987 7.75377 39.044ZM8.3131 40.9642C5.40951 41.81 3.74132 44.8495 4.58709 47.753L21.3033 105.141C22.1491 108.045 25.1886 109.713 28.0921 108.867L118.958 82.3994C121.861 81.5537 123.53 78.5142 122.684 75.6106L105.968 18.2225C105.122 15.3189 102.082 13.6508 99.1788 14.4965L8.3131 40.9642Z" style="fill:var(--sapContent_Illustrative_Color4)"/>
<path d="M67.3087 52.3984C68.6484 56.9978 66.0059 61.8124 61.4063 63.1522C56.8068 64.492 51.9921 61.8495 50.6524 57.2501C49.3126 52.6507 51.9552 47.836 56.5547 46.4963C61.1542 45.1565 65.969 47.799 67.3087 52.3984Z" style="fill:var(--sapContent_Illustrative_Color2)"/>
<path fill-rule="evenodd" clip-rule="evenodd" d="M54.3327 62.1481C54.1182 59.8241 55.5808 57.6635 57.8333 57.0074L61.1453 56.0427C63.3901 55.3888 65.7756 56.4167 66.848 58.4783C65.8297 60.6681 63.9074 62.4238 61.4066 63.1523C58.9165 63.8776 56.3634 63.4358 54.3327 62.1481ZM60.9385 51.0119C61.3914 52.567 60.498 54.1949 58.9428 54.6479C57.3877 55.1009 55.7598 54.2074 55.3068 52.6523C54.8539 51.0972 55.7473 49.4694 57.3025 49.0164C58.8576 48.5634 60.4855 49.4568 60.9385 51.0119Z" style="fill:var(--sapContent_Illustrative_Color8)"/>
<path fill-rule="evenodd" clip-rule="evenodd" d="M61.0036 61.7697C64.8396 60.6523 67.0435 56.6369 65.9261 52.8011C64.8088 48.9652 60.7934 46.7614 56.9574 47.8788C53.1215 48.9961 50.9176 53.0115 52.0349 56.8474C53.1523 60.6832 57.1677 62.887 61.0036 61.7697ZM61.4063 63.1522C66.0059 61.8124 68.6484 56.9978 67.3087 52.3984C65.969 47.799 61.1542 45.1565 56.5547 46.4963C51.9552 47.836 49.3126 52.6507 50.6524 57.2501C51.9921 61.8495 56.8068 64.492 61.4063 63.1522Z" style="fill:var(--sapContent_Illustrative_Color2)"/>
<rect x="30.4023" y="77.3706" width="67.5268" height="8.17545" rx="1.64277" transform="rotate(-16.24 30.4023 77.3706)" style="fill:var(--sapContent_Illustrative_Color18)"/>
<rect x="33.6797" y="88.6177" width="67.5268" height="8.17545" rx="1.64277" transform="rotate(-16.24 33.6797 88.6177)" style="fill:var(--sapContent_Illustrative_Color18)"/>
<circle cx="36.5544" cy="79.8361" r="1.3278" transform="rotate(-16.24 36.5544 79.8361)" style="fill:var(--sapContent_Illustrative_Color14)"/>
<circle cx="42.2575" cy="78.1745" r="1.3278" transform="rotate(-16.24 42.2575 78.1745)" style="fill:var(--sapContent_Illustrative_Color14)"/>
<circle cx="47.9626" cy="76.5131" r="1.3278" transform="rotate(-16.24 47.9626 76.5131)" style="fill:var(--sapContent_Illustrative_Color14)"/>
<circle cx="53.6657" cy="74.8515" r="1.3278" transform="rotate(-16.24 53.6657 74.8515)" style="fill:var(--sapContent_Illustrative_Color14)"/>
<circle cx="39.8297" cy="91.0834" r="1.3278" transform="rotate(-16.24 39.8297 91.0834)" style="fill:var(--sapContent_Illustrative_Color14)"/>
<circle cx="45.5348" cy="89.4218" r="1.3278" transform="rotate(-16.24 45.5348 89.4218)" style="fill:var(--sapContent_Illustrative_Color14)"/>
<circle cx="51.2379" cy="87.7604" r="1.3278" transform="rotate(-16.24 51.2379 87.7604)" style="fill:var(--sapContent_Illustrative_Color14)"/>
<circle cx="56.9411" cy="86.0988" r="1.3278" transform="rotate(-16.24 56.9411 86.0988)" style="fill:var(--sapContent_Illustrative_Color14)"/>
<circle cx="62.6462" cy="84.4374" r="1.3278" transform="rotate(-16.24 62.6462 84.4374)" style="fill:var(--sapContent_Illustrative_Color14)"/>
<circle cx="68.3493" cy="82.7758" r="1.3278" transform="rotate(-16.24 68.3493 82.7758)" style="fill:var(--sapContent_Illustrative_Color14)"/>
<path d="M4.58609 47.753C3.74032 44.8494 5.40851 41.81 8.31209 40.9642L99.1778 14.4965C102.081 13.6507 105.121 15.3189 105.967 18.2225L108.159 25.7509L6.77899 55.2814L4.58609 47.753Z" style="fill:var(--sapContent_Illustrative_Color5)"/>
<circle cx="13.6292" cy="46.5463" r="2.46415" transform="rotate(-16.24 13.6292 46.5463)" style="fill:var(--sapContent_Illustrative_Color8)"/>
<circle cx="22.5667" cy="43.9431" r="2.46415" transform="rotate(-16.24 22.5667 43.9431)" style="fill:var(--sapContent_Illustrative_Color8)"/>
<circle cx="31.5042" cy="41.3395" r="2.46415" transform="rotate(-16.24 31.5042 41.3395)" style="fill:var(--sapContent_Illustrative_Color8)"/>
<rect x="94.2598" y="77.082" width="24.1113" height="23.3432" style="fill:var(--sapContent_Illustrative_Color8)"/>
<path d="M106.269 67.4841C102.062 67.4841 97.9497 68.7316 94.4516 71.0687C90.9536 73.4058 88.2272 76.7276 86.6172 80.6141C85.0073 84.5006 84.586 88.7772 85.4068 92.903C86.2275 97.0289 88.2534 100.819 91.2283 103.793C94.2031 106.768 97.9933 108.794 102.119 109.614C106.246 110.435 110.523 110.014 114.409 108.404C118.296 106.794 121.618 104.068 123.956 100.57C126.293 97.0725 127.541 92.9603 127.541 88.7536C127.524 83.1177 125.277 77.7174 121.292 73.7322C117.306 69.747 111.906 67.5008 106.269 67.4841ZM116.26 83.8616L103.497 96.6233C103.305 96.8268 103.073 96.989 102.816 97.0999C102.559 97.2107 102.282 97.2679 102.002 97.2679C101.722 97.2679 101.445 97.2107 101.187 97.0999C100.93 96.989 100.698 96.8268 100.506 96.6233L96.2519 92.3694C95.8552 91.9728 95.6324 91.4348 95.6324 90.8739C95.6324 90.313 95.8552 89.775 96.2519 89.3784C96.6485 88.9817 97.1865 88.7589 97.7475 88.7589C98.3085 88.7589 98.8465 88.9817 99.2431 89.3784L102.008 92.1434L113.282 80.8706C113.679 80.474 114.217 80.2511 114.778 80.2511C115.056 80.2511 115.331 80.3058 115.587 80.4121C115.844 80.5184 116.077 80.6742 116.273 80.8706C116.47 81.067 116.626 81.3001 116.732 81.5567C116.838 81.8133 116.893 82.0884 116.893 82.3661C116.893 82.6438 116.838 82.9189 116.732 83.1755C116.626 83.4321 116.47 83.6652 116.273 83.8616H116.26Z" style="fill:var(--sapContent_Illustrative_Color12)"/>
</svg>
