<svg width="320" height="240" viewBox="0 0 320 240" fill="none" xmlns="http://www.w3.org/2000/svg" id="tnt-Scene-ChartDoughnut-alternate">
<path d="M130.352 144.456H33.9433C26.384 144.456 19.1343 147.459 13.789 152.804C8.4438 158.149 5.44092 165.399 5.44092 172.958C5.44092 180.518 8.4438 187.767 13.789 193.113C19.1343 198.458 26.384 201.461 33.9433 201.461H130.392C137.952 201.461 145.201 198.458 150.547 193.113C155.892 187.767 158.895 180.518 158.895 172.958C158.895 165.399 155.892 158.149 150.547 152.804C145.201 147.459 137.952 144.456 130.392 144.456H130.352Z" style="fill:var(--sapContent_Illustrative_Color7)"/>
<path d="M165.474 172.749H69.0146C61.549 172.889 54.4364 175.953 49.2061 181.282C43.9758 186.611 41.0457 193.78 41.0457 201.246C41.0457 208.713 43.9758 215.882 49.2061 221.211C54.4364 226.54 61.549 229.604 69.0146 229.744H165.474C172.939 229.604 180.052 226.54 185.282 221.211C190.512 215.882 193.443 208.713 193.443 201.246C193.443 193.78 190.512 186.611 185.282 181.282C180.052 175.953 172.939 172.889 165.474 172.749Z" style="fill:var(--sapContent_Illustrative_Color7)"/>
<path d="M290.964 93.9308H194.515C190.728 93.8599 186.965 94.5446 183.445 95.9449C179.925 97.3452 176.72 99.433 174.017 102.086C171.314 104.739 169.166 107.905 167.7 111.398C166.234 114.89 165.479 118.64 165.479 122.428C165.479 126.216 166.234 129.966 167.7 133.459C169.166 136.951 171.314 140.117 174.017 142.77C176.72 145.423 179.925 147.511 183.445 148.911C186.965 150.312 190.728 150.997 194.515 150.926H290.964C294.751 150.997 298.515 150.312 302.034 148.911C305.554 147.511 308.759 145.423 311.462 142.77C314.166 140.117 316.313 136.951 317.779 133.459C319.245 129.966 320 126.216 320 122.428C320 118.64 319.245 114.89 317.779 111.398C316.313 107.905 314.166 104.739 311.462 102.086C308.759 99.433 305.554 97.3452 302.034 95.9449C298.515 94.5446 294.751 93.8599 290.964 93.9308Z" style="fill:var(--sapContent_Illustrative_Color7)"/>
<path d="M219.084 41.8975H37.767C27.7505 41.8975 18.1444 45.8765 11.0617 52.9591C3.979 60.0418 0 69.648 0 79.6644C0 89.6808 3.979 99.287 11.0617 106.37C18.1444 113.452 27.7505 117.431 37.767 117.431H219.084C229.101 117.431 238.707 113.452 245.789 106.37C252.872 99.287 256.851 89.6808 256.851 79.6644C256.851 69.648 252.872 60.0418 245.789 52.9591C238.707 45.8765 229.101 41.8975 219.084 41.8975Z" style="fill:var(--sapContent_Illustrative_Color7)"/>
<rect x="36.1852" y="76.2544" width="202.073" height="134.959" rx="12" transform="rotate(-8.29 36.1852 76.2544)" style="fill:var(--sapContent_Illustrative_Color6)"/>
<path d="M46.4058 82.3311C45.6095 76.8659 49.3944 71.79 54.8595 70.9937L225.887 46.0739C231.352 45.2776 236.428 49.0625 237.225 54.5276L252.963 162.544C253.76 168.009 249.975 173.085 244.51 173.881L73.4818 198.801C68.0166 199.597 62.9407 195.812 62.1444 190.347L46.4058 82.3311Z" style="fill:var(--sapContent_Illustrative_Color8)"/>
<path fill-rule="evenodd" clip-rule="evenodd" d="M54.427 68.025L225.455 43.1053C232.559 42.0701 239.158 46.9904 240.193 54.095L255.932 162.111C256.967 169.216 252.047 175.815 244.942 176.85L73.9143 201.769C66.8097 202.805 60.211 197.884 59.1758 190.78L43.4372 82.7636C42.402 75.6589 47.3223 69.0602 54.427 68.025ZM54.8595 70.9937C49.3944 71.79 45.6095 76.8659 46.4058 82.331L62.1444 190.347C62.9407 195.812 68.0167 199.597 73.4818 198.801L244.51 173.881C249.975 173.085 253.76 168.009 252.963 162.544L237.225 54.5276C236.428 49.0624 231.352 45.2776 225.887 46.0739L54.8595 70.9937Z" style="fill:var(--sapContent_Illustrative_Color4)"/>
<path d="M46.4058 82.3311C45.6095 76.8659 49.3944 71.79 54.8595 70.9937L225.887 46.0739C231.352 45.2776 236.428 49.0625 237.225 54.5276L239.289 68.6976L48.4705 96.5011L46.4058 82.3311Z" style="fill:var(--sapContent_Illustrative_Color5)"/>
<circle cx="63.065" cy="82.4326" r="4.5" transform="rotate(-8.29 63.065 82.4326)" style="fill:var(--sapContent_Illustrative_Color8)"/>
<circle cx="79.8874" cy="79.9814" r="4.5" transform="rotate(-8.29 79.8874 79.9814)" style="fill:var(--sapContent_Illustrative_Color8)"/>
<circle cx="96.7097" cy="77.5302" r="4.5" transform="rotate(-8.29 96.7097 77.5302)" style="fill:var(--sapContent_Illustrative_Color8)"/>
<path d="M258.613 26.3833C258.613 25.1945 255.162 24.2429 250.551 24.0267C250.287 19.4216 249.272 15.9974 248.083 16C246.894 16.0026 245.906 19.4532 245.652 24.0821C241.028 24.3984 237.59 25.4317 237.606 26.6232C237.622 27.8147 241.057 28.7663 245.668 28.9798C245.945 33.585 246.947 37.0092 248.133 37.0066C249.32 37.0039 250.313 33.5534 250.567 28.9245C255.191 28.6082 258.626 27.5748 258.613 26.3833Z" style="fill:var(--sapContent_Illustrative_Color3)"/>
<path d="M275.617 47.8971C275.617 47.1309 273.393 46.5176 270.422 46.3783C270.252 43.4106 269.598 41.2039 268.831 41.2056C268.065 41.2073 267.428 43.431 267.265 46.414C264.285 46.6179 262.069 47.2838 262.08 48.0516C262.09 48.8195 264.304 49.4327 267.275 49.5703C267.454 52.5381 268.099 54.7448 268.864 54.7431C269.628 54.7414 270.269 52.5177 270.432 49.5347C273.412 49.3308 275.626 48.6649 275.617 47.8971Z" style="fill:var(--sapContent_Illustrative_Color3)"/>
<rect x="64.0671" y="106.312" width="165.62" height="78.5952" rx="5" transform="rotate(-8.29 64.0671 106.312)" style="fill:var(--sapContent_Illustrative_Color7)"/>
<path d="M113.169 113.809C113.131 113.216 112.621 112.764 112.03 112.824C106.762 113.353 101.734 115.325 97.5039 118.533C92.9884 121.957 89.5837 126.638 87.7164 131.989C85.849 137.34 85.6019 143.123 87.006 148.614C88.4102 154.104 91.4031 159.059 95.6101 162.856C99.817 166.654 105.051 169.125 110.656 169.962C116.261 170.798 121.989 169.963 127.121 167.559C132.254 165.155 136.563 161.291 139.509 156.449C142.268 151.914 143.717 146.711 143.706 141.416C143.704 140.823 143.203 140.361 142.61 140.384L132.464 140.785C131.87 140.808 131.412 141.309 131.397 141.902C131.323 144.776 130.499 147.587 128.999 150.054C127.311 152.827 124.843 155.04 121.903 156.417C118.963 157.794 115.683 158.273 112.472 157.793C109.261 157.314 106.264 155.898 103.854 153.723C101.444 151.548 99.7299 148.71 98.9256 145.565C98.1213 142.42 98.2629 139.108 99.3325 136.043C100.402 132.978 102.352 130.297 104.939 128.335C107.239 126.591 109.952 125.484 112.803 125.118C113.392 125.042 113.843 124.535 113.805 123.943L113.169 113.809Z" style="fill:var(--sapContent_Illustrative_Color2)"/>
<path d="M113.626 113.784C113.599 113.191 113.096 112.731 112.504 112.78C108.121 113.147 103.875 114.514 100.095 116.781C96.315 119.048 93.1098 122.15 90.722 125.843C90.3998 126.342 90.569 127.002 91.0791 127.306L99.8061 132.497C100.316 132.8 100.973 132.63 101.309 132.141C102.646 130.193 104.389 128.551 106.423 127.332C108.457 126.112 110.725 125.348 113.074 125.085C113.664 125.019 114.123 124.52 114.095 123.927L113.626 113.784Z" style="fill:var(--sapContent_Illustrative_Color14)"/>
<path d="M150.164 133.373C150.757 133.346 151.218 132.843 151.168 132.251C150.883 128.846 149.993 125.515 148.539 122.416C146.931 118.992 144.666 115.919 141.871 113.371C139.076 110.823 135.807 108.851 132.249 107.567C129.029 106.404 125.631 105.826 122.213 105.857C121.62 105.862 121.161 106.367 121.189 106.96L121.752 119.133C121.779 119.726 122.282 120.18 122.876 120.196C124.411 120.239 125.932 120.527 127.381 121.05C129.168 121.695 130.81 122.686 132.213 123.965C133.617 125.245 134.755 126.788 135.562 128.508C136.217 129.902 136.644 131.39 136.828 132.915C136.9 133.505 137.398 133.964 137.991 133.936L150.164 133.373Z" style="fill:var(--sapContent_Illustrative_Color3)"/>
<path d="M142.602 140.198C143.195 140.17 143.699 140.629 143.705 141.222C143.741 145.292 142.914 149.328 141.274 153.062C139.489 157.124 136.79 160.719 133.387 163.566C129.984 166.414 125.969 168.436 121.655 169.476C117.69 170.431 113.572 170.533 109.572 169.779C108.989 169.669 108.627 169.091 108.758 168.512L111.005 158.633C111.137 158.054 111.712 157.696 112.298 157.789C114.45 158.134 116.652 158.049 118.778 157.537C121.252 156.941 123.555 155.781 125.506 154.148C127.458 152.514 129.007 150.453 130.03 148.123C130.91 146.121 131.381 143.968 131.422 141.79C131.434 141.196 131.888 140.693 132.481 140.666L142.602 140.198Z" style="fill:var(--sapContent_Illustrative_Color4)"/>
<path fill-rule="evenodd" clip-rule="evenodd" d="M144.992 129.53C145.504 128.879 146.447 128.766 147.099 129.278L165.998 144.131L189.549 140.699C190.369 140.58 191.13 141.148 191.25 141.967C191.369 142.787 190.801 143.549 189.981 143.668L165.794 147.192C165.387 147.252 164.974 147.141 164.651 146.887L145.245 131.636C144.593 131.124 144.48 130.181 144.992 129.53Z" style="fill:var(--sapContent_Illustrative_Color5)"/>
<path fill-rule="evenodd" clip-rule="evenodd" d="M169.766 113.623C169.527 111.983 170.662 110.461 172.302 110.222L217.363 103.656C219.003 103.417 220.526 104.553 220.765 106.192C221.004 107.832 219.868 109.354 218.229 109.593L173.167 116.159C171.527 116.398 170.005 115.262 169.766 113.623Z" style="fill:var(--sapContent_Illustrative_Color4)"/>
<path fill-rule="evenodd" clip-rule="evenodd" d="M172.047 129.282C171.808 127.643 172.944 126.12 174.583 125.881L205.989 121.305C207.629 121.066 209.152 122.201 209.391 123.841C209.63 125.481 208.494 127.003 206.855 127.242L175.448 131.818C173.809 132.057 172.286 130.922 172.047 129.282Z" style="fill:var(--sapContent_Illustrative_Color4)"/>
</svg>
