<svg width="128" height="129" viewBox="0 0 128 129" fill="none" xmlns="http://www.w3.org/2000/svg" id="tnt-Spot-Tutorials-alternate">
<rect x="-1.00098" y="49.1857" width="112.518" height="75.1476" rx="6.70751" transform="rotate(-16.24 -1.00098 49.1857)" style="fill:var(--sapContent_Illustrative_Color6)"/>
<path d="M5.10738 51.77C4.24406 48.8061 5.94688 45.7035 8.91075 44.8402L101.267 17.9384C104.23 17.0751 107.333 18.7779 108.196 21.7418L125.182 80.0559C126.046 83.0198 124.343 86.1223 121.379 86.9857L29.0231 113.887C26.0592 114.751 22.9567 113.048 22.0934 110.084L5.10738 51.77Z" style="fill:var(--sapContent_Illustrative_Color8)"/>
<path fill-rule="evenodd" clip-rule="evenodd" d="M8.35145 42.92L100.707 16.0182C104.732 14.846 108.944 17.1581 110.117 21.1825L127.103 79.4966C128.275 83.5209 125.963 87.7336 121.938 88.9059L29.5825 115.808C25.5581 116.98 21.3454 114.668 20.1732 110.643L3.18721 52.3293C2.01498 48.3049 4.32709 44.0923 8.35145 42.92ZM8.91078 44.8402C5.94691 45.7036 4.24408 48.8061 5.10741 51.77L22.0934 110.084C22.9567 113.048 26.0593 114.751 29.0231 113.887L121.379 86.9857C124.343 86.1223 126.046 83.0198 125.182 80.0559L108.196 21.7418C107.333 18.7779 104.23 17.0751 101.267 17.9384L8.91078 44.8402Z" style="fill:var(--sapContent_Illustrative_Color4)"/>
<rect x="16.0317" y="63.2565" width="92.8219" height="32.571" rx="2.7948" transform="rotate(-16.24 16.0317 63.2565)" style="fill:var(--sapContent_Illustrative_Color18)"/>
<path d="M5.10738 51.77C4.24406 48.8061 5.94688 45.7035 8.91075 44.8402L101.267 17.9384C104.23 17.0751 107.333 18.7779 108.196 21.7418L110.42 29.3765L7.33125 59.4047L5.10738 51.77Z" style="fill:var(--sapContent_Illustrative_Color5)"/>
<circle cx="14.3083" cy="50.5289" r="2.51532" transform="rotate(-16.24 14.3083 50.5289)" style="fill:var(--sapContent_Illustrative_Color8)"/>
<circle cx="23.4316" cy="47.8716" r="2.51532" transform="rotate(-16.24 23.4316 47.8716)" style="fill:var(--sapContent_Illustrative_Color8)"/>
<circle cx="32.5547" cy="45.214" r="2.51532" transform="rotate(-16.24 32.5547 45.214)" style="fill:var(--sapContent_Illustrative_Color8)"/>
<path fill-rule="evenodd" clip-rule="evenodd" d="M39.2426 100.934C38.9337 99.8732 39.5431 98.7631 40.6036 98.4542L115.171 76.7361C116.231 76.4272 117.342 77.0365 117.65 78.097C117.959 79.1575 117.35 80.2676 116.29 80.5765L41.7221 102.295C40.6616 102.603 39.5515 101.994 39.2426 100.934Z" style="fill:var(--sapContent_Illustrative_Color6)"/>
<path fill-rule="evenodd" clip-rule="evenodd" d="M39.2407 100.934C38.9318 99.8737 39.5411 98.7636 40.6016 98.4547L65.1919 91.2927C66.2524 90.9838 67.3625 91.5931 67.6713 92.6536C67.9802 93.7141 67.3709 94.8242 66.3104 95.1331L41.7201 102.295C40.6596 102.604 39.5495 101.995 39.2407 100.934Z" style="fill:var(--sapContent_Illustrative_Color3)"/>
<path d="M73.7544 90.881C74.7866 94.4249 72.7505 98.1345 69.2066 99.1667C65.6627 100.199 61.9531 98.1627 60.9209 94.6188C59.8887 91.0749 61.9249 87.3653 65.4688 86.3331C69.0126 85.301 72.7223 87.3371 73.7544 90.881Z" style="fill:var(--sapContent_Illustrative_Color15)"/>
<path fill-rule="evenodd" clip-rule="evenodd" d="M68.6473 97.2465C71.1307 96.5232 72.5575 93.9236 71.8342 91.4403C71.1109 88.9569 68.5114 87.5301 66.028 88.2534C63.5447 88.9767 62.1178 91.5762 62.8411 94.0595C63.5644 96.5429 66.1639 97.9697 68.6473 97.2465ZM69.2066 99.1667C72.7505 98.1345 74.7866 94.4249 73.7544 90.881C72.7223 87.3371 69.0126 85.301 65.4688 86.3331C61.9249 87.3653 59.8887 91.0749 60.9209 94.6188C61.9531 98.1627 65.6627 100.199 69.2066 99.1667Z" style="fill:var(--sapContent_Illustrative_Color8)"/>
<path fill-rule="evenodd" clip-rule="evenodd" d="M28.1012 99.6443C28.6314 99.4899 29.1865 99.7945 29.3409 100.325L30.9061 105.699C31.0605 106.229 30.7559 106.784 30.2256 106.939C29.6954 107.093 29.1403 106.788 28.9859 106.258L27.4207 100.884C27.2663 100.354 27.5709 99.7988 28.1012 99.6443Z" style="fill:var(--sapContent_Illustrative_Color4)"/>
<path fill-rule="evenodd" clip-rule="evenodd" d="M31.4173 98.6779C31.9476 98.5234 32.5026 98.8281 32.6571 99.3583L34.2223 104.732C34.3767 105.263 34.0721 105.818 33.5418 105.972C33.0115 106.126 32.4565 105.822 32.3021 105.292L30.7369 99.9176C30.5824 99.3873 30.8871 98.8323 31.4173 98.6779Z" style="fill:var(--sapContent_Illustrative_Color4)"/>
<path d="M60.7604 75.9852C59.6914 76.9752 57.9542 76.4941 57.5468 75.0952L55.6758 68.6715L53.8046 62.2467C53.3971 60.8478 54.6044 59.5091 56.0378 59.7703L70.7575 62.4528C72.3465 62.7424 72.9229 64.7217 71.7379 65.8192L60.7604 75.9852Z" style="fill:var(--sapContent_Illustrative_Color4)"/>
</svg>
