<svg width="128" height="128" viewBox="0 0 128 128" fill="none" xmlns="http://www.w3.org/2000/svg" id="tnt-Spot-EmptyContentPane-alternate">
<path d="M105.744 4.08727C105.925 4.31694 106.04 4.59108 106.078 4.88084C106.116 5.17059 106.076 5.46525 105.96 5.7338L103.385 12.1927C102.959 13.2612 101.848 13.4841 101.01 13.1505C100.663 13.0264 100.365 12.7929 100.161 12.4849C99.9575 12.1769 99.8594 11.8112 99.8815 11.4427C99.8975 11.265 99.9403 11.0907 100.008 10.9258L102.584 4.46683C102.691 4.18114 102.873 3.92973 103.112 3.73922C103.35 3.5487 103.635 3.42616 103.938 3.38457C104.274 3.33818 104.616 3.37837 104.932 3.50135C105.248 3.62432 105.528 3.826 105.744 4.08727V4.08727Z" style="fill:var(--sapContent_Illustrative_Color5)"/>
<path d="M127.139 35.2242C127.164 35.4318 127.145 35.6424 127.084 35.8425C127.023 36.0426 126.921 36.2277 126.785 36.3862C126.648 36.5447 126.48 36.6729 126.291 36.7628C126.103 36.8526 125.897 36.9022 125.688 36.9081L118.933 37.4112C118.691 37.4284 118.447 37.3971 118.216 37.3191C117.985 37.241 117.772 37.1178 117.59 36.9566C117.407 36.7954 117.259 36.5994 117.153 36.3801C117.047 36.1608 116.986 35.9226 116.973 35.6794C116.965 35.5793 116.965 35.4787 116.973 35.3785C116.999 35.0082 117.162 34.6608 117.431 34.4049C117.7 34.149 118.055 34.0031 118.426 33.996L125.177 33.4948C125.42 33.4772 125.664 33.5081 125.895 33.5858C126.126 33.6636 126.338 33.7866 126.521 33.9476C126.704 34.1086 126.852 34.3045 126.958 34.5237C127.064 34.7428 127.126 34.981 127.139 35.2242V35.2242Z" style="fill:var(--sapContent_Illustrative_Color5)"/>
<path d="M122 16.9313C121.967 17.1574 121.889 17.3745 121.769 17.5693C121.65 17.7642 121.492 17.9326 121.305 18.0643L112.989 24.0568C112.615 24.3235 112.152 24.4351 111.697 24.3682C111.242 24.3014 110.831 24.0613 110.549 23.6982C110.289 23.3603 110.165 22.937 110.203 22.5123C110.225 22.2675 110.299 22.0303 110.421 21.8169C110.543 21.6034 110.709 21.4188 110.909 21.2755L119.225 15.283C119.601 15.0145 120.067 14.9024 120.524 14.9702C120.982 15.0381 121.395 15.2805 121.677 15.6466C121.815 15.8279 121.914 16.0352 121.97 16.256C122.025 16.4767 122.035 16.7064 122 16.9313V16.9313Z" style="fill:var(--sapContent_Illustrative_Color5)"/>
<path d="M17.0547 37.423C17.0547 32.7604 20.8344 28.9807 25.4969 28.9807H60.6004C62.5527 28.9807 64.4447 29.6574 65.9543 30.8955L98.3498 57.4668C100.305 59.0703 101.438 61.4657 101.438 63.9942V102.812C101.438 107.475 97.6584 111.255 92.9959 111.255H25.4969C20.8344 111.255 17.0547 107.475 17.0547 102.812V37.423Z" style="fill:var(--sapContent_Illustrative_Color6)"/>
<path d="M23.6609 32.4295C23.6609 28.8566 26.5573 25.9602 30.1302 25.9602H69.9853C71.6328 25.9602 73.2183 26.5888 74.4182 27.7177L101.906 53.5786C103.205 54.8012 103.942 56.5062 103.942 58.2904V97.8262C103.942 101.399 101.046 104.296 97.4728 104.296H30.1302C26.5573 104.296 23.6609 101.399 23.6609 97.8262V32.4295Z" style="fill:var(--sapContent_Illustrative_Color8)"/>
<path fill-rule="evenodd" clip-rule="evenodd" d="M97.4728 106.296H30.1302C25.4527 106.296 21.6609 102.504 21.6609 97.8262V32.4295C21.6609 27.752 25.4527 23.9602 30.1302 23.9602H69.9853C72.1421 23.9602 74.2178 24.7831 75.7887 26.2611L103.276 52.1219C104.977 53.7225 105.942 55.9546 105.942 58.2904V97.8262C105.942 102.504 102.15 106.296 97.4728 106.296ZM30.1302 25.9602C26.5573 25.9602 23.6609 28.8566 23.6609 32.4295V97.8262C23.6609 101.399 26.5573 104.296 30.1302 104.296H97.4728C101.046 104.296 103.942 101.399 103.942 97.8262V58.2904C103.942 56.5062 103.205 54.8012 101.906 53.5786L74.4182 27.7177C73.2183 26.5888 71.6328 25.9602 69.9853 25.9602H30.1302Z" style="fill:var(--sapContent_Illustrative_Color4)"/>
<path d="M72.233 52.9551C72.233 54.5093 73.4929 55.7692 75.0471 55.7692H102.524C103.034 55.7692 103.281 55.1455 102.91 54.7963L73.1813 26.8516C72.8221 26.5139 72.233 26.7686 72.233 27.2617V52.9551Z" style="fill:var(--sapContent_Illustrative_Color8)"/>
<path fill-rule="evenodd" clip-rule="evenodd" d="M102.524 57.7692H75.0471C72.3884 57.7692 70.233 55.6139 70.233 52.9551V27.2617C70.233 25.0165 72.9152 23.8566 74.5512 25.3943L104.28 53.3391C105.971 54.9292 104.846 57.7692 102.524 57.7692ZM73.1813 26.8516C72.8221 26.5139 72.233 26.7686 72.233 27.2617V52.9551C72.233 54.5093 73.4929 55.7692 75.0471 55.7692H102.524C103.034 55.7692 103.281 55.1455 102.91 54.7963L73.1813 26.8516Z" style="fill:var(--sapContent_Illustrative_Color4)"/>
<rect x="31.6018" y="98.3176" width="95.2413" height="24.4906" rx="5.93893" style="fill:var(--sapContent_Illustrative_Color3)"/>
<g clip-path="url(#clip0_620_3326)">
<path fill-rule="evenodd" clip-rule="evenodd" d="M46.985 105.503L46.9843 105.504L45.6488 108.558L47.3867 108.558C47.4054 108.558 47.424 108.559 47.4425 108.56C47.7125 108.539 47.9838 108.67 48.1285 108.92L49.0791 110.563L50.9127 108.766C51.199 108.485 51.6584 108.49 51.9389 108.776C52.2194 109.062 52.2148 109.522 51.9285 109.802L49.8296 111.859L51.2028 114.231C51.4036 114.578 51.2852 115.022 50.9383 115.223C50.5915 115.424 50.1476 115.305 49.9468 114.958L48.7596 112.908L47.0644 114.569C46.5934 115.029 45.9975 115.332 45.3604 115.447V115.447L44.6854 115.569C44.291 115.64 43.9135 115.379 43.8423 114.984C43.771 114.59 44.0329 114.212 44.4273 114.141L45.1023 114.019C45.4573 113.955 45.7888 113.786 46.0496 113.531V113.531L48.0091 111.611L47.0821 110.01L45.0142 110.01L42.0819 116.716C41.6856 117.621 40.8013 118.224 39.8018 118.248L39.0158 118.273C38.6152 118.285 38.2804 117.97 38.2681 117.57C38.2557 117.169 38.5704 116.834 38.9709 116.822L39.7658 116.797C40.1965 116.788 40.5796 116.529 40.7522 116.134L43.4302 110.01L41.295 110.01C40.8942 110.01 40.5694 109.685 40.5694 109.284C40.5694 108.883 40.8942 108.558 41.295 108.558L44.0648 108.558L45.6581 104.915C45.9677 104.218 46.6557 103.76 47.4273 103.76L48.6066 103.76C49.0074 103.76 49.3322 104.085 49.3322 104.486C49.3322 104.886 49.0074 105.211 48.6066 105.211L47.4273 105.211C47.2398 105.211 47.0661 105.322 46.985 105.503Z" style="fill:var(--sapContent_Illustrative_Color8)"/>
</g>
<rect x="61.5352" y="108.295" width="51.7024" height="5.44236" rx="2.72118" style="fill:var(--sapContent_Illustrative_Color15)"/>
<rect x="1" y="52.8285" width="30.5669" height="31.6586" rx="5.67672" style="fill:var(--sapContent_Illustrative_Color2)"/>
<path fill-rule="evenodd" clip-rule="evenodd" d="M20.1812 67.4868C20.8065 68.0908 20.8065 69.07 20.1812 69.6739L15.3778 74.3135C14.9199 74.7558 14.2312 74.8881 13.6329 74.6488C13.0346 74.4094 12.6445 73.8455 12.6445 73.22L12.6445 63.9408C12.6445 63.3153 13.0346 62.7513 13.6329 62.512C14.2312 62.2726 14.9199 62.4049 15.3778 62.8472L20.1812 67.4868Z" style="fill:var(--sapContent_Illustrative_Color8)"/>
<defs>
<clipPath id="clip0_620_3326">
<rect width="14.513" height="14.513" style="fill:var(--sapContent_Illustrative_Color8)" transform="translate(37.9504 103.76)"/>
</clipPath>
</defs>
</svg>
