<svg width="128" height="129" viewBox="0 0 128 129" fill="none" xmlns="http://www.w3.org/2000/svg" id="tnt-Spot-Components-alternate">
<path d="M14.8833 75.4309C14.8833 74.7349 15.4475 74.1707 16.1436 74.1707H27.9742C28.6703 74.1707 29.2345 74.7349 29.2345 75.4309V84.9554C29.2345 85.6514 28.6703 86.2156 27.9742 86.2156H16.1436C15.4475 86.2156 14.8833 85.6514 14.8833 84.9554V75.4309Z" style="fill:var(--sapContent_Illustrative_Color8)"/>
<path fill-rule="evenodd" clip-rule="evenodd" d="M16.1436 72.1707H27.9742C29.7748 72.1707 31.2345 73.6303 31.2345 75.4309V84.9554C31.2345 86.756 29.7748 88.2156 27.9742 88.2156H16.1436C14.343 88.2156 12.8833 86.756 12.8833 84.9554V75.4309C12.8833 73.6303 14.343 72.1707 16.1436 72.1707ZM16.1436 74.1707C15.4475 74.1707 14.8833 74.7349 14.8833 75.4309V84.9554C14.8833 85.6514 15.4475 86.2156 16.1436 86.2156H27.9742C28.6703 86.2156 29.2345 85.6514 29.2345 84.9554V75.4309C29.2345 74.7349 28.6703 74.1707 27.9742 74.1707H16.1436Z" style="fill:var(--sapContent_Illustrative_Color4)"/>
<path d="M41.1318 75.4309C41.1318 74.7349 41.6961 74.1707 42.3921 74.1707H54.2228C54.9188 74.1707 55.483 74.7349 55.483 75.4309V84.9554C55.483 85.6514 54.9188 86.2156 54.2228 86.2156H42.3921C41.6961 86.2156 41.1318 85.6514 41.1318 84.9554V75.4309Z" style="fill:var(--sapContent_Illustrative_Color8)"/>
<path fill-rule="evenodd" clip-rule="evenodd" d="M42.3921 72.1707H54.2228C56.0234 72.1707 57.483 73.6303 57.483 75.4309V84.9554C57.483 86.756 56.0234 88.2156 54.2228 88.2156H42.3921C40.5915 88.2156 39.1318 86.756 39.1318 84.9554V75.4309C39.1318 73.6303 40.5915 72.1707 42.3921 72.1707ZM42.3921 74.1707C41.6961 74.1707 41.1318 74.7349 41.1318 75.4309V84.9554C41.1318 85.6514 41.6961 86.2156 42.3921 86.2156H54.2228C54.9188 86.2156 55.483 85.6514 55.483 84.9554V75.4309C55.483 74.7349 54.9188 74.1707 54.2228 74.1707H42.3921Z" style="fill:var(--sapContent_Illustrative_Color4)"/>
<path d="M67.3799 75.4309C67.3799 74.7349 67.9441 74.1707 68.6401 74.1707H80.4708C81.1668 74.1707 81.7311 74.7349 81.7311 75.4309V84.9554C81.7311 85.6514 81.1668 86.2156 80.4708 86.2156H68.6401C67.9441 86.2156 67.3799 85.6514 67.3799 84.9554V75.4309Z" style="fill:var(--sapContent_Illustrative_Color8)"/>
<path fill-rule="evenodd" clip-rule="evenodd" d="M68.6401 72.1707H80.4708C82.2714 72.1707 83.7311 73.6303 83.7311 75.4309V84.9554C83.7311 86.756 82.2714 88.2156 80.4708 88.2156H68.6401C66.8396 88.2156 65.3799 86.756 65.3799 84.9554V75.4309C65.3799 73.6303 66.8396 72.1707 68.6401 72.1707ZM68.6401 74.1707C67.9441 74.1707 67.3799 74.7349 67.3799 75.4309V84.9554C67.3799 85.6514 67.9441 86.2156 68.6401 86.2156H80.4708C81.1668 86.2156 81.7311 85.6514 81.7311 84.9554V75.4309C81.7311 74.7349 81.1668 74.1707 80.4708 74.1707H68.6401Z" style="fill:var(--sapContent_Illustrative_Color4)"/>
<path d="M5.875 82.8843H90.738V109.024H5.875V82.8843Z" style="fill:var(--sapContent_Illustrative_Color8)"/>
<path fill-rule="evenodd" clip-rule="evenodd" d="M3.875 80.8843H92.738V111.024H3.875V80.8843ZM5.875 82.8843V109.024H90.738V82.8843H5.875Z" style="fill:var(--sapContent_Illustrative_Color4)"/>
<rect x="72.6348" y="46.0398" width="14.3512" height="12.045" rx="1.8904" style="fill:var(--sapContent_Illustrative_Color14)"/>
<rect x="98.8828" y="46.0398" width="14.3512" height="12.045" rx="1.8904" style="fill:var(--sapContent_Illustrative_Color14)"/>
<rect x="63.627" y="54.7532" width="58.4984" height="26.1399" style="fill:var(--sapContent_Illustrative_Color2)"/>
<path d="M43.3862 21.1602C43.3862 20.4641 43.9505 19.8999 44.6465 19.8999H56.4772C57.1732 19.8999 57.7374 20.4641 57.7374 21.1602V30.6846C57.7374 31.3806 57.1732 31.9449 56.4772 31.9449H44.6465C43.9505 31.9449 43.3862 31.3806 43.3862 30.6846V21.1602Z" style="fill:var(--sapContent_Illustrative_Color8)"/>
<path fill-rule="evenodd" clip-rule="evenodd" d="M44.6465 17.8999H56.4772C58.2778 17.8999 59.7374 19.3596 59.7374 21.1602V30.6846C59.7374 32.4852 58.2778 33.9449 56.4772 33.9449H44.6465C42.8459 33.9449 41.3862 32.4852 41.3862 30.6846V21.1602C41.3862 19.3596 42.8459 17.8999 44.6465 17.8999ZM44.6465 19.8999C43.9505 19.8999 43.3862 20.4641 43.3862 21.1602V30.6846C43.3862 31.3806 43.9505 31.9449 44.6465 31.9449H56.4772C57.1732 31.9449 57.7374 31.3806 57.7374 30.6846V21.1602C57.7374 20.4641 57.1732 19.8999 56.4772 19.8999H44.6465Z" style="fill:var(--sapContent_Illustrative_Color4)"/>
<path d="M69.6338 21.1602C69.6338 20.4641 70.198 19.8999 70.8941 19.8999H82.7247C83.4207 19.8999 83.985 20.4641 83.985 21.1602V30.6846C83.985 31.3806 83.4207 31.9449 82.7247 31.9449H70.8941C70.198 31.9449 69.6338 31.3806 69.6338 30.6846V21.1602Z" style="fill:var(--sapContent_Illustrative_Color8)"/>
<path fill-rule="evenodd" clip-rule="evenodd" d="M70.8941 17.8999H82.7247C84.5253 17.8999 85.985 19.3596 85.985 21.1602V30.6846C85.985 32.4852 84.5253 33.9449 82.7247 33.9449H70.8941C69.0935 33.9449 67.6338 32.4852 67.6338 30.6846V21.1602C67.6338 19.3596 69.0935 17.8999 70.8941 17.8999ZM70.8941 19.8999C70.198 19.8999 69.6338 20.4641 69.6338 21.1602V30.6846C69.6338 31.3806 70.198 31.9449 70.8941 31.9449H82.7247C83.4207 31.9449 83.985 31.3806 83.985 30.6846V21.1602C83.985 20.4641 83.4207 19.8999 82.7247 19.8999H70.8941Z" style="fill:var(--sapContent_Illustrative_Color4)"/>
<path d="M34.3784 28.613H92.8768V54.7529H34.3784V28.613Z" style="fill:var(--sapContent_Illustrative_Color8)"/>
<path fill-rule="evenodd" clip-rule="evenodd" d="M32.3784 26.613H94.8768V56.7529H32.3784V26.613ZM34.3784 28.613V54.7529H92.8768V28.613H34.3784Z" style="fill:var(--sapContent_Illustrative_Color4)"/>
</svg>
