<svg width="45" height="45" id="tnt-Dot-ExternalLink-alternate" xmlns="http://www.w3.org/2000/svg" viewBox="0 0 45 45">
    <rect x=".06" y="17.91" width="31.68" height="21.16" rx="2.76" ry="2.76" style="fill:var(--sapContent_Illustrative_Color6)" />
    <path d="m1.98,19.34c0-1.27,1.03-2.3,2.3-2.3h25.63c1.27,0,2.3,1.03,2.3,2.3v15.65c0,1.27-1.03,2.3-2.3,2.3H4.28c-1.27,0-2.3-1.03-2.3-2.3v-15.65Z" style="fill:var(--sapContent_Illustrative_Color8)" />
    <path d="m4.28,16.04h25.63c1.82,0,3.3,1.48,3.3,3.3v15.65c0,1.82-1.48,3.3-3.3,3.3H4.28c-1.82,0-3.3-1.48-3.3-3.3v-15.65c0-1.82,1.48-3.3,3.3-3.3Zm0,1c-1.27,0-2.3,1.03-2.3,2.3v15.65c0,1.27,1.03,2.3,2.3,2.3h25.63c1.27,0,2.3-1.03,2.3-2.3v-15.65c0-1.27-1.03-2.3-2.3-2.3H4.28Z" style="fill:var(--sapContent_Illustrative_Color4)" fill-rule="evenodd" />
    <path d="m1.98,19.34c0-1.27,1.03-2.3,2.3-2.3h25.63c1.27,0,2.3,1.03,2.3,2.3v1.63H1.98v-1.63Z" style="fill:var(--sapContent_Illustrative_Color5)" />
    <path d="m22.95,26.55c.23-3.37,2.93-4.24,7.07-5.52.22-.07.44.1.43.32l.81,2.46c-.01.33.58.34.77.08l5.16-7.57c.14-.2.03-.47-.21-.51l-8.77-2.17c-.33-.05-.78.34-.53.56l.92,2.49c.17.15.13.42-.06.53-3.85,2.11-8.43,2.36-8.12,7.58.14,2.28.41,4.01,2.32,5.81.28.27.59-.17.5-.55-.19-.85-.32-2.74-.27-3.51h0Z" style="fill:var(--sapContent_Illustrative_Color3)" />
    <path d="m40.39,8.57c.04.1.05.21.04.32-.02.11-.06.21-.13.29l-1.6,2.05c-.26.34-.69.3-.95.1-.11-.08-.19-.2-.24-.33-.04-.13-.04-.27,0-.4.02-.06.06-.12.1-.17l1.6-2.05c.07-.09.16-.16.27-.21.11-.04.22-.06.33-.04.13.02.24.07.34.15.1.08.18.18.23.29Z" style="fill:var(--sapContent_Illustrative_Color5)" />
    <path d="m44.82,21.97c-.01.08-.04.15-.08.22-.04.07-.1.12-.16.16-.07.04-.14.07-.22.08-.08.01-.16,0-.23-.01l-2.48-.52c-.09-.02-.17-.06-.25-.11-.07-.05-.14-.12-.19-.2-.05-.08-.08-.16-.1-.25-.02-.09-.01-.18,0-.27,0-.04.02-.07.03-.11.05-.13.14-.24.27-.3.12-.06.27-.08.4-.04l2.47.52c.09.02.17.06.25.11.07.05.14.12.19.19.05.08.08.16.1.25.02.09.01.18,0,.27Z" style="fill:var(--sapContent_Illustrative_Color5)" />
    <path d="m44.88,14.87c-.04.08-.09.15-.15.2-.06.06-.14.1-.22.13l-3.61,1.28c-.16.06-.34.05-.5-.02s-.28-.2-.34-.36c-.06-.15-.06-.31,0-.46.03-.09.08-.16.15-.23.07-.06.14-.11.23-.14l3.61-1.28c.16-.06.34-.05.5.02.16.07.28.2.34.36.03.08.04.16.04.25,0,.09-.02.17-.06.25Z" style="fill:var(--sapContent_Illustrative_Color5)" />
</svg>