<svg width="45" height="46" viewBox="0 0 45 46" fill="none" xmlns="http://www.w3.org/2000/svg" id="tnt-Dot-Settings-alternate">
<path fill-rule="evenodd" clip-rule="evenodd" d="M6.37189 14.6859C5.39593 12.9519 5.77841 10.7702 7.28604 9.47153L9.44046 7.61575C10.9493 6.31605 13.1658 6.26203 14.7362 7.48669L16.8664 9.148L20.9638 8.48387L22.1546 6.12532C23.1423 4.16895 25.4739 3.30836 27.4958 4.15388L30.5579 5.43441C32.4199 6.21309 33.4591 8.21161 33.027 10.1831L32.5062 12.5593L35.2335 15.7256L37.6606 15.5625C39.6744 15.4272 41.497 16.7508 41.9913 18.7077L42.8096 21.9477C43.3418 24.0543 42.1703 26.2171 40.1151 26.9224L37.5932 27.7878L36.2968 31.7086L37.6216 34.0553C38.6008 35.7899 38.2192 37.9744 36.7101 39.2744L34.5563 41.1296C33.0484 42.4285 30.8336 42.4833 29.2632 41.2607L27.1331 39.6022L23.0667 40.3009L21.8375 42.6663C20.8357 44.5944 18.5232 45.4326 16.5186 44.5943L13.4364 43.3053C11.5736 42.5264 10.5345 40.5267 10.9677 38.5547L11.49 36.177L8.76345 33.0117L6.33459 33.176C4.32015 33.3123 2.49649 31.9885 2.00202 30.0309L1.18938 26.8137C0.652663 24.6889 1.84911 22.5105 3.9302 21.8235L6.43852 20.9954L7.69925 17.0443L6.37189 14.6859ZM26.8119 29.9598C29.8978 27.3016 30.2446 22.6451 27.5864 19.5591C24.9282 16.4732 20.2717 16.1264 17.1857 18.7846C14.0997 21.4428 13.753 26.0993 16.4112 29.1853C19.0693 32.2712 23.7259 32.618 26.8119 29.9598Z" style="fill:var(--sapContent_Illustrative_Color6)"/>
<path fill-rule="evenodd" clip-rule="evenodd" d="M7.37189 12.6859C6.39593 10.9519 6.77841 8.77017 8.28604 7.47153L10.4405 5.61575C11.9493 4.31605 14.1658 4.26203 15.7362 5.48669L17.8664 7.148L21.9638 6.48387L23.1546 4.12532C24.1423 2.16895 26.4739 1.30836 28.4958 2.15388L31.5579 3.43441C33.4199 4.21309 34.4591 6.21161 34.027 8.18312L33.5062 10.5593L36.2335 13.7256L38.6606 13.5625C40.6744 13.4272 42.497 14.7508 42.9913 16.7077L43.8096 19.9477C44.3418 22.0543 43.1703 24.2171 41.1151 24.9224L38.5932 25.7878L37.2968 29.7086L38.6216 32.0553C39.6008 33.7899 39.2192 35.9744 37.7101 37.2744L35.5563 39.1296C34.0484 40.4285 31.8336 40.4833 30.2632 39.2607L28.1331 37.6022L24.0667 38.3009L22.8375 40.6663C21.8357 42.5944 19.5232 43.4326 17.5186 42.5943L14.4364 41.3053C12.5736 40.5264 11.5345 38.5267 11.9677 36.5547L12.49 34.177L9.76345 31.0117L7.33459 31.176C5.32015 31.3123 3.49649 29.9885 3.00202 28.0309L2.18938 24.8137C1.65266 22.6889 2.84911 20.5105 4.9302 19.8235L7.43852 18.9954L8.69925 15.0443L7.37189 12.6859ZM27.8119 27.9598C30.8978 25.3016 31.2446 20.6451 28.5864 17.5591C25.9282 14.4732 21.2717 14.1264 18.1857 16.7846C15.0997 19.4428 14.753 24.0993 17.4112 27.1853C20.0693 30.2712 24.7259 30.618 27.8119 27.9598Z" style="fill:var(--sapContent_Illustrative_Color8)"/>
<path fill-rule="evenodd" clip-rule="evenodd" d="M17.5956 8.20494L15.1212 6.27525C13.9267 5.34373 12.2408 5.38482 11.0931 6.37342L8.93868 8.22919C7.79192 9.21699 7.50099 10.8765 8.24335 12.1955L9.78432 14.9334L8.23619 19.7851L5.2437 20.7731C3.66074 21.2956 2.75068 22.9526 3.15893 24.5688L3.97157 27.786C4.34768 29.275 5.73482 30.282 7.26707 30.1783L10.1948 29.9802L13.574 33.9032L12.9444 36.7693C12.6149 38.2693 13.4053 39.7903 14.8222 40.3828L17.9044 41.6717C19.4292 42.3093 21.1881 41.6718 21.9502 40.2052L23.4082 37.3994L28.399 36.5418L30.8775 38.4716C32.072 39.4016 33.7567 39.3599 34.9037 38.3719L37.0574 36.5167C38.2053 35.5279 38.4956 33.8663 37.7508 32.5469L36.2085 29.8148L37.7994 25.0029L40.7905 23.9765C42.3538 23.4401 43.2448 21.7949 42.8401 20.1926L42.0217 16.9526C41.6457 15.4641 40.2594 14.4573 38.7277 14.5602L35.802 14.7568L32.4224 10.8333L33.0501 7.96903C33.3788 6.46943 32.5884 4.94928 31.1721 4.35699L28.11 3.07646C26.572 2.43332 24.7985 3.08792 24.0473 4.576L22.6268 7.38945L17.5956 8.20494ZM8.69925 15.0443L7.43852 18.9954L4.9302 19.8235C2.84911 20.5105 1.65266 22.6889 2.18938 24.8137L3.00202 28.0309C3.49649 29.9885 5.32015 31.3123 7.33459 31.176L9.76345 31.0117L12.49 34.177L11.9677 36.5547C11.5345 38.5267 12.5736 40.5264 14.4364 41.3053L17.5186 42.5943C19.5232 43.4326 21.8357 42.5944 22.8375 40.6663L24.0667 38.3009L28.1331 37.6022L30.2632 39.2607C31.8336 40.4833 34.0484 40.4285 35.5563 39.1296L37.7101 37.2744C39.2192 35.9744 39.6008 33.7899 38.6216 32.0553L37.2968 29.7086L38.5932 25.7878L41.1151 24.9224C43.1703 24.2171 44.3418 22.0543 43.8096 19.9477L42.9913 16.7077C42.497 14.7508 40.6744 13.4272 38.6606 13.5625L36.2335 13.7256L33.5062 10.5593L34.027 8.18312C34.4591 6.21161 33.4199 4.21309 31.5579 3.43441L28.4958 2.15388C26.4739 1.30836 24.1423 2.16895 23.1546 4.12532L21.9638 6.48387L17.8664 7.148L15.7362 5.48669C14.1658 4.26203 11.9493 4.31605 10.4405 5.61575L8.28604 7.47153C6.77841 8.77017 6.39593 10.9519 7.37189 12.6859L8.69925 15.0443ZM29.3441 16.9065C32.3627 20.4109 31.9689 25.6989 28.4645 28.7175C24.9601 31.7361 19.6721 31.3423 16.6535 27.8379C13.6349 24.3335 14.0287 19.0455 17.5331 16.0269C21.0375 13.0083 26.3254 13.4021 29.3441 16.9065ZM28.5864 17.5591C31.2446 20.6451 30.8978 25.3016 27.8119 27.9598C24.7259 30.618 20.0693 30.2712 17.4112 27.1853C14.753 24.0993 15.0997 19.4428 18.1857 16.7846C21.2717 14.1264 25.9282 14.4732 28.5864 17.5591Z" style="fill:var(--sapContent_Illustrative_Color4)"/>
<path d="M31.4848 15.0631C35.5216 19.7495 34.9949 26.821 30.3085 30.8578C25.6221 34.8946 18.5506 34.368 14.5138 29.6816C10.477 24.9952 11.0037 17.9236 15.6901 13.8868C20.3765 9.85006 27.448 10.3767 31.4848 15.0631ZM16.6928 27.8047C19.693 31.2877 24.9486 31.6791 28.4317 28.6789C31.9147 25.6787 32.3061 20.423 29.3059 16.94C26.3057 13.4569 21.05 13.0656 17.567 16.0658C14.0839 19.066 13.6925 24.3217 16.6928 27.8047Z" style="fill:var(--sapContent_Illustrative_Color2)"/>
</svg>
