
<svg width="160" height="161" viewBox="0 0 160 161" fill="none" xmlns="http://www.w3.org/2000/svg" id="tnt-Dialog-Mission-alternate">
<path d="M35.2531 96.1955L77.4151 53.0502L51.6433 54.3853C43.6203 54.8009 36.1438 58.5778 31.0486 64.789L13.7178 85.916C12.9359 86.8691 13.3332 88.3091 14.4932 88.7265L35.2531 96.1955Z" style="fill:var(--sapContent_Illustrative_Color2)"/>
<path d="M63.2752 124.218L106.42 82.056L105.085 107.828C104.67 115.851 100.893 123.327 94.6817 128.422L73.5547 145.753C72.6016 146.535 71.1616 146.138 70.7442 144.978L63.2752 124.218Z" style="fill:var(--sapContent_Illustrative_Color2)"/>
<path d="M149.962 7.06465C151.391 6.90883 152.562 8.08038 152.406 9.50907C148.737 43.1527 130.65 74.0914 102.862 94.2568L63.4484 122.859C51.112 118.035 41.4361 108.359 36.6125 96.0226L65.2143 56.609C85.3797 28.8208 116.318 10.7338 149.962 7.06465Z" style="fill:var(--sapContent_Illustrative_Color8)"/>
<path fill-rule="evenodd" clip-rule="evenodd" d="M63.8362 125.884L62.4737 125.351C49.4417 120.255 39.2155 110.029 34.1198 96.9972L33.5871 95.6348L63.0481 55.0371C83.6499 26.6477 115.265 8.15644 149.672 4.40406C152.801 4.06279 155.408 6.66997 155.067 9.79921C151.315 44.2061 132.823 75.8211 104.434 96.4229L63.8362 125.884ZM152.406 9.50905C152.562 8.08037 151.391 6.90882 149.962 7.06463C116.318 10.7338 85.3796 28.8208 65.2142 56.609L36.6124 96.0226C41.4361 108.359 51.1119 118.035 63.4484 122.859L102.862 94.2568C130.65 74.0914 148.737 43.1527 152.406 9.50905Z" style="fill:var(--sapContent_Illustrative_Color4)"/>
<path fill-rule="evenodd" clip-rule="evenodd" d="M36.8469 95.6995L36.6122 96.0229C41.4359 108.359 51.1117 118.035 63.4482 122.859L102.862 94.257C116.31 84.4976 127.487 72.2147 135.856 58.3231C130.843 62.8794 125.336 67.6699 119.298 72.6791C81.9013 103.704 51.6274 102.066 36.8469 95.6995Z" style="fill:var(--sapContent_Illustrative_Color6)"/>
<circle cx="112.956" cy="47.0262" r="9.03014" transform="rotate(45 112.956 47.0262)" style="fill:var(--sapContent_Illustrative_Color14)"/>
<path d="M85.4818 82.9962C86.5331 82.0471 86.5748 80.411 85.5733 79.4095L80.5723 74.4085C79.5708 73.407 77.9347 73.4487 76.9856 74.5L42.0891 113.15C40.8909 114.477 40.9428 116.51 42.2071 117.775C43.4713 119.039 45.5045 119.091 46.8316 117.893L85.4818 82.9962Z" style="fill:var(--sapContent_Illustrative_Color2)"/>
<path fill-rule="evenodd" clip-rule="evenodd" d="M118.179 15.0953C128.298 10.9931 138.986 8.26156 149.962 7.06456C151.391 6.90875 152.562 8.0803 152.406 9.50898C151.207 20.51 148.465 31.2219 144.347 41.3624C140.319 36.4694 135.781 31.2173 131.772 27.2078C127.915 23.3513 122.909 19.0055 118.179 15.0953Z" style="fill:var(--sapContent_Illustrative_Color9)"/>
<path fill-rule="evenodd" clip-rule="evenodd" d="M7.04255 134.238C6.06624 133.262 6.06624 131.679 7.04255 130.703L21.6408 116.104C22.6172 115.128 24.2001 115.128 25.1764 116.104C26.1527 117.081 26.1527 118.664 25.1764 119.64L10.5781 134.238C9.60177 135.215 8.01886 135.215 7.04255 134.238Z" style="fill:var(--sapContent_Illustrative_Color5)"/>
<path fill-rule="evenodd" clip-rule="evenodd" d="M34.9495 145.219C33.9732 144.243 33.9732 142.66 34.9495 141.683L45.8554 130.777C46.8318 129.801 48.4147 129.801 49.391 130.777C50.3673 131.754 50.3673 133.337 49.391 134.313L38.4851 145.219C37.5088 146.195 35.9258 146.195 34.9495 145.219Z" style="fill:var(--sapContent_Illustrative_Color5)"/>
<path fill-rule="evenodd" clip-rule="evenodd" d="M5.23224 156.034C4.25593 155.058 4.25593 153.475 5.23224 152.498L26.9534 130.777C27.9297 129.801 29.5126 129.801 30.489 130.777C31.4653 131.753 31.4653 133.336 30.489 134.313L8.76778 156.034C7.79147 157.01 6.20856 157.01 5.23224 156.034Z" style="fill:var(--sapContent_Illustrative_Color5)"/>
</svg>
