<svg width="45" height="46" viewBox="0 0 45 46" fill="none" xmlns="http://www.w3.org/2000/svg" id="tnt-Dot-Compass-alternate">
<path d="M42.8369 22.8721C42.8369 34.1038 33.7318 43.209 22.5 43.209C11.2682 43.209 2.16309 34.1038 2.16309 22.8721C2.16309 11.6403 11.2682 2.53516 22.5 2.53516C33.7318 2.53516 42.8369 11.6403 42.8369 22.8721Z" style="fill:var(--sapContent_Illustrative_Color8)"/>
<path fill-rule="evenodd" clip-rule="evenodd" d="M43.8369 22.8721C43.8369 34.6561 34.2841 44.209 22.5 44.209C10.7159 44.209 1.16309 34.6561 1.16309 22.8721C1.16309 11.088 10.7159 1.53516 22.5 1.53516C34.2841 1.53516 43.8369 11.088 43.8369 22.8721ZM22.5 43.209C33.7318 43.209 42.8369 34.1038 42.8369 22.8721C42.8369 11.6403 33.7318 2.53516 22.5 2.53516C11.2682 2.53516 2.16309 11.6403 2.16309 22.8721C2.16309 34.1038 11.2682 43.209 22.5 43.209Z" style="fill:var(--sapContent_Illustrative_Color4)"/>
<path d="M38.6452 22.8719C38.6452 31.7889 31.4166 39.0175 22.4996 39.0175C13.5826 39.0175 6.354 31.7889 6.354 22.8719C6.354 13.9549 13.5826 6.72632 22.4996 6.72632C31.4166 6.72632 38.6452 13.9549 38.6452 22.8719Z" style="fill:var(--sapContent_Illustrative_Color6)"/>
<path d="M33.1918 13.0113L25.744 26.3898L19.2558 19.3549L33.1918 13.0113Z" style="fill:var(--sapContent_Illustrative_Color17)"/>
<path d="M11.808 32.7333L25.7441 26.3897L19.2559 19.3548L11.808 32.7333Z" style="fill:var(--sapContent_Illustrative_Color3)"/>
<path d="M25.2082 25.8086C23.587 27.3038 21.0606 27.2017 19.5653 25.5804C18.0701 23.9592 18.1723 21.4328 19.7935 19.9375C21.4147 18.4423 23.9411 18.5444 25.4364 20.1657C26.9316 21.7869 26.8295 24.3133 25.2082 25.8086Z" style="fill:var(--sapContent_Illustrative_Color8)"/>
<path fill-rule="evenodd" clip-rule="evenodd" d="M25.8862 26.5436C23.859 28.4133 20.6999 28.2856 18.8303 26.2584C16.9606 24.2311 17.0883 21.0721 19.1155 19.2024C21.1427 17.3327 24.3018 17.4605 26.1715 19.4877C28.0411 21.5149 27.9134 24.674 25.8862 26.5436ZM19.5653 25.5804C21.0606 27.2016 23.587 27.3038 25.2082 25.8085C26.8295 24.3133 26.9316 21.7869 25.4364 20.1657C23.9411 18.5444 21.4147 18.4423 19.7935 19.9375C18.1722 21.4328 18.0701 23.9592 19.5653 25.5804Z" style="fill:var(--sapContent_Illustrative_Color4)"/>
</svg>
