<svg width="161" height="160" viewBox="0 0 161 160" fill="none" xmlns="http://www.w3.org/2000/svg" id="tnt-Dialog-ChartArea2-alternate">
<rect x="-1.47461" y="59.9194" width="141.756" height="94.6754" rx="8.41815" transform="rotate(-16.24 -1.47461 59.9194)" style="fill:var(--sapContent_Illustrative_Color6)"/>
<path d="M6.21577 63.1493C5.13226 59.4295 7.26937 55.5357 10.9891 54.4522L127.396 20.5446C131.116 19.4611 135.01 21.5982 136.093 25.318L157.508 98.8374C158.592 102.557 156.455 106.451 152.735 107.534L36.3279 141.442C32.6081 142.526 28.7143 140.388 27.6308 136.669L6.21577 63.1493Z" style="fill:var(--sapContent_Illustrative_Color8)"/>
<path fill-rule="evenodd" clip-rule="evenodd" d="M10.2898 52.0519L126.697 18.1443C131.742 16.6747 137.024 19.5734 138.493 24.6187L159.909 98.1381C161.378 103.184 158.479 108.465 153.434 109.935L37.0268 143.842C31.9814 145.312 26.7 142.413 25.2303 137.368L3.81531 63.8484C2.34568 58.803 5.24438 53.5215 10.2898 52.0519ZM10.9889 54.4521C7.26916 55.5356 5.13206 59.4295 6.21556 63.1492L27.6306 136.669C28.7141 140.388 32.6079 142.525 36.3277 141.442L152.735 107.534C156.455 106.451 158.592 102.557 157.508 98.8373L136.093 25.3179C135.01 21.5981 131.116 19.461 127.396 20.5445L10.9889 54.4521Z" style="fill:var(--sapContent_Illustrative_Color4)"/>
<path d="M6.21577 63.1493C5.13226 59.4295 7.26937 55.5357 10.9891 54.4522L127.396 20.5446C131.116 19.4611 135.01 21.5982 136.093 25.318L138.903 34.9626L9.02508 72.7939L6.21577 63.1493Z" style="fill:var(--sapContent_Illustrative_Color5)"/>
<circle cx="17.8004" cy="61.6041" r="3.15681" transform="rotate(-16.24 17.8004 61.6041)" style="fill:var(--sapContent_Illustrative_Color8)"/>
<circle cx="29.2501" cy="58.2691" r="3.15681" transform="rotate(-16.24 29.2501 58.2691)" style="fill:var(--sapContent_Illustrative_Color8)"/>
<circle cx="40.7003" cy="54.9341" r="3.15681" transform="rotate(-16.24 40.7003 54.9341)" style="fill:var(--sapContent_Illustrative_Color8)"/>
<path fill-rule="evenodd" clip-rule="evenodd" d="M127.238 56.123C128.415 56.4543 129.251 57.4566 129.593 58.6309L140.046 94.516C140.472 95.9792 139.631 97.5109 138.168 97.9372L43.881 125.401C42.4177 125.828 40.886 124.987 40.4598 123.524L34.7078 103.777C34.3113 102.415 34.6278 100.936 35.6201 99.9228C40.5079 94.9337 47.5487 90.2208 57.2814 88.985C74.4144 86.8096 87.109 80.1336 96.9185 72.7497C99.735 70.6297 102.342 68.4633 104.806 66.4165C113.083 59.5397 119.736 54.012 127.238 56.123Z" style="fill:var(--sapContent_Illustrative_Color13)"/>
<path fill-rule="evenodd" clip-rule="evenodd" d="M131.21 64.1832L140.045 94.5152C140.472 95.9784 139.631 97.5101 138.168 97.9363L43.8808 125.401C42.4175 125.827 40.8858 124.986 40.4596 123.523L36.025 108.299C44.9004 106.965 58.2888 103.614 71.4956 96.5055C77.8385 93.0913 83.8376 88.7984 89.9151 84.4494C102.198 75.6602 114.801 66.6416 131.21 64.1832Z" style="fill:var(--sapContent_Illustrative_Color3)"/>
<path fill-rule="evenodd" clip-rule="evenodd" d="M133.186 61.0975L142.695 93.744C143.548 96.6705 141.866 99.7339 138.94 100.586L44.6529 128.051C41.7264 128.903 38.663 127.222 37.8106 124.295L32.493 106.039L35.6154 105.57C44.2583 104.272 57.3257 100.999 70.1881 94.0762C76.3492 90.7599 82.205 86.5743 88.3097 82.2059L88.5151 82.0589C100.667 73.363 113.734 64.0117 130.802 61.4547L133.186 61.0975ZM38.7677 107.846C47.5298 106.271 59.5868 102.916 71.496 96.506C77.8389 93.0919 83.838 88.799 89.9155 84.45C102.198 75.6607 114.801 66.6421 131.211 64.1837L140.046 94.5157C140.472 95.979 139.631 97.5107 138.168 97.9369L43.8812 125.401C42.4179 125.827 40.8862 124.987 40.46 123.524L36.0254 108.299C36.8974 108.168 37.813 108.018 38.7677 107.846Z" style="fill:var(--sapContent_Illustrative_Color8)"/>
<path fill-rule="evenodd" clip-rule="evenodd" d="M135.646 79.4126L140.045 94.515C140.472 95.9782 139.631 97.5099 138.168 97.9361L43.8808 125.4C42.4175 125.827 40.8858 124.986 40.4596 123.523L39.596 120.558C47.5421 112.691 62.3109 102.955 84.354 99.977C105.997 97.053 124.301 87.3967 135.646 79.4126Z" style="fill:var(--sapContent_Illustrative_Color2)"/>
</svg>
