<svg width="128" height="129" viewBox="0 0 128 129" fill="none" xmlns="http://www.w3.org/2000/svg" id="tnt-Spot-Compass-alternate">
<path fill-rule="evenodd" clip-rule="evenodd" d="M92.1557 28.7237L77.2473 22.1323C73.0282 20.2669 71.1201 15.3345 72.9855 11.1153C74.8509 6.89618 79.7833 4.98809 84.0025 6.85348L98.9109 13.4449C103.13 15.3103 105.038 20.2427 103.173 24.4619C101.307 28.681 96.3749 30.5891 92.1557 28.7237ZM75.6298 25.7907C69.3902 23.032 66.5684 15.7375 69.3271 9.49785C72.0858 3.25824 79.3803 0.436397 85.6199 3.19509L100.528 9.78647C106.768 12.5452 109.59 19.8397 106.831 26.0793C104.072 32.319 96.7779 35.1408 90.5383 32.3821L75.6298 25.7907Z" style="fill:var(--sapContent_Illustrative_Color4)"/>
<path d="M74.9646 21.915C76.0229 19.5213 78.8213 18.4388 81.215 19.4971L91.4351 24.0157C93.8288 25.074 94.9113 27.8724 93.853 30.266L89.8657 39.2845C88.8074 41.6782 86.0091 42.7607 83.6154 41.7024L73.3952 37.1838C71.0016 36.1255 69.919 33.3272 70.9773 30.9335L74.9646 21.915Z" style="fill:var(--sapContent_Illustrative_Color5)"/>
<path d="M101.908 98.6046C90.7057 123.943 61.0839 135.402 35.746 124.199C10.408 112.996 -1.05095 83.3746 10.1516 58.0367C21.3541 32.6988 50.976 21.2398 76.3139 32.4423C101.652 43.6448 113.111 73.2667 101.908 98.6046Z" style="fill:var(--sapContent_Illustrative_Color6)"/>
<path d="M106.171 96.782C95.3424 121.275 66.7083 132.352 42.2153 121.523C17.7224 110.694 6.64553 82.0599 17.4745 57.5669C28.3034 33.074 56.9375 21.9971 81.4305 32.8261C105.923 43.655 117 72.2891 106.171 96.782Z" style="fill:var(--sapContent_Illustrative_Color8)"/>
<path fill-rule="evenodd" clip-rule="evenodd" d="M108 97.5908C96.7249 123.094 66.9098 134.628 41.4066 123.352C15.9034 112.076 4.36964 82.2614 15.6452 56.7582C26.9208 31.255 56.7359 19.7213 82.2391 30.9969C107.742 42.2725 119.276 72.0876 108 97.5908ZM42.2153 121.523C66.7083 132.352 95.3423 121.275 106.171 96.782C117 72.2891 105.923 43.655 81.4304 32.8261C56.9374 21.9971 28.3034 33.074 17.4744 57.5669C6.64548 82.0599 17.7223 110.694 42.2153 121.523Z" style="fill:var(--sapContent_Illustrative_Color4)"/>
<path d="M97.0311 92.7407C88.4339 112.186 65.7011 120.98 46.256 112.383C26.8109 103.785 18.0169 81.0527 26.6141 61.6076C35.2113 42.1625 57.944 33.3685 77.3891 41.9656C96.8342 50.5628 105.628 73.2956 97.0311 92.7407Z" style="fill:var(--sapContent_Illustrative_Color6)"/>
<path fill-rule="evenodd" clip-rule="evenodd" d="M52.2621 98.7974C53.2724 99.2441 53.7292 100.425 53.2826 101.435L50.3767 108.008C49.93 109.018 48.749 109.475 47.7387 109.028C46.7285 108.582 46.2716 107.401 46.7183 106.39L49.6242 99.8179C50.0708 98.8076 51.2519 98.3508 52.2621 98.7974Z" style="fill:var(--sapContent_Illustrative_Color4)"/>
<path fill-rule="evenodd" clip-rule="evenodd" d="M75.8769 45.3852C76.8871 45.8319 77.344 47.0129 76.8973 48.0231L73.9914 54.5957C73.5448 55.606 72.3637 56.0628 71.3535 55.6162C70.3433 55.1695 69.8864 53.9885 70.333 52.9783L73.2389 46.4057C73.6856 45.3954 74.8666 44.9386 75.8769 45.3852Z" style="fill:var(--sapContent_Illustrative_Color4)"/>
<path fill-rule="evenodd" clip-rule="evenodd" d="M40.2164 67.6607C39.7698 68.671 38.5888 69.1278 37.5785 68.6812L31.0059 65.7753C29.9957 65.3286 29.5388 64.1476 29.9855 63.1374C30.4321 62.1271 31.6132 61.6703 32.6234 62.1169L39.196 65.0228C40.2062 65.4695 40.6631 66.6505 40.2164 67.6607Z" style="fill:var(--sapContent_Illustrative_Color4)"/>
<path fill-rule="evenodd" clip-rule="evenodd" d="M93.63 91.276C93.1834 92.2862 92.0023 92.7431 90.9921 92.2965L84.4195 89.3906C83.4093 88.9439 82.9524 87.7629 83.399 86.7526C83.8457 85.7424 85.0267 85.2855 86.037 85.7322L92.6096 88.6381C93.6198 89.0847 94.0767 90.2658 93.63 91.276Z" style="fill:var(--sapContent_Illustrative_Color4)"/>
<path d="M94.6471 65.9792L64.6737 85.5294L58.9743 68.8194L94.6471 65.9792Z" style="fill:var(--sapContent_Illustrative_Color17)"/>
<path d="M29.0016 88.3693L64.6743 85.5291L58.9749 68.8191L29.0016 88.3693Z" style="fill:var(--sapContent_Illustrative_Color3)"/>
<path d="M64.0665 83.7519C60.4337 84.991 56.4843 83.0505 55.2452 79.4177C54.0061 75.7849 55.9466 71.8354 59.5794 70.5964C63.2122 69.3573 67.1617 71.2978 68.4008 74.9306C69.6398 78.5634 67.6993 82.5129 64.0665 83.7519Z" style="fill:var(--sapContent_Illustrative_Color8)"/>
<path fill-rule="evenodd" clip-rule="evenodd" d="M64.7119 85.6449C60.0337 87.2405 54.9477 84.7416 53.352 80.0633C51.7564 75.3851 54.2553 70.2991 58.9336 68.7034C63.6118 67.1078 68.6978 69.6067 70.2935 74.285C71.8891 78.9632 69.3902 84.0492 64.7119 85.6449ZM55.245 79.4177C56.484 83.0505 60.4335 84.991 64.0663 83.752C67.6991 82.5129 69.6396 78.5634 68.4005 74.9306C67.1615 71.2978 63.212 69.3573 59.5792 70.5964C55.9464 71.8354 54.0059 75.7849 55.245 79.4177Z" style="fill:var(--sapContent_Illustrative_Color4)"/>
</svg>
