<svg width="160" height="161" viewBox="0 0 160 161" fill="none" xmlns="http://www.w3.org/2000/svg" id="tnt-Dialog-Avatar-alternate">
<path fill-rule="evenodd" clip-rule="evenodd" d="M25.8163 146.76C40.2884 153.52 59.2466 157.617 79.9997 157.617C102.625 157.617 123.117 152.747 137.988 144.867V70.1506C137.988 64.0241 133.022 59.0576 126.895 59.0576H36.9093C30.7828 59.0576 25.8163 64.0241 25.8163 70.1506V146.76Z" style="fill:var(--sapContent_Illustrative_Color2)"/>
<path fill-rule="evenodd" clip-rule="evenodd" d="M16.1678 141.426C31.2503 151.306 54.2425 157.617 79.9997 157.617C105.757 157.617 128.75 151.306 143.832 141.426V94.2431C143.832 79.3645 131.77 67.3029 116.892 67.3029H43.108C28.2293 67.3029 16.1678 79.3645 16.1678 94.2431V141.426Z" style="fill:var(--sapContent_Illustrative_Color8)"/>
<path fill-rule="evenodd" clip-rule="evenodd" d="M13.6678 142.777L14.7979 143.517C30.3869 153.729 53.89 160.117 79.9997 160.117C106.11 160.117 129.613 153.729 145.202 143.517L146.332 142.777V94.2432C146.332 77.9838 133.151 64.8029 116.892 64.8029H43.108C26.8486 64.8029 13.6678 77.9838 13.6678 94.2431V142.777ZM79.9997 157.617C54.2425 157.617 31.2503 151.306 16.1678 141.426V94.2431C16.1678 79.3645 28.2293 67.3029 43.108 67.3029H116.892C131.77 67.3029 143.832 79.3645 143.832 94.2432V141.426C128.75 151.306 105.757 157.617 79.9997 157.617Z" style="fill:var(--sapContent_Illustrative_Color4)"/>
<path fill-rule="evenodd" clip-rule="evenodd" d="M117.911 106.174C118.601 106.174 119.161 106.734 119.161 107.424V153.516C119.161 154.206 118.601 154.766 117.911 154.766C117.221 154.766 116.661 154.206 116.661 153.516V107.424C116.661 106.734 117.221 106.174 117.911 106.174Z" style="fill:var(--sapContent_Illustrative_Color4)"/>
<path fill-rule="evenodd" clip-rule="evenodd" d="M42.0889 106.174C42.7792 106.174 43.3389 106.734 43.3389 107.424V153.516C43.3389 154.206 42.7792 154.766 42.0889 154.766C41.3985 154.766 40.8389 154.206 40.8389 153.516V107.424C40.8389 106.734 41.3985 106.174 42.0889 106.174Z" style="fill:var(--sapContent_Illustrative_Color4)"/>
<path d="M98.2578 113.056C98.2578 111.306 96.8388 109.887 95.0884 109.887H64.9114C63.1609 109.887 61.7419 111.306 61.7419 113.056V135.946C61.7419 137.696 63.1609 139.115 64.9114 139.115H95.0884C96.8388 139.115 98.2578 137.696 98.2578 135.946V113.056Z" style="fill:var(--sapContent_Illustrative_Color3)"/>
<path fill-rule="evenodd" clip-rule="evenodd" d="M45.3379 30.3506V42.0682V53.7857C45.3379 53.7857 37.1044 52.577 37.4243 43.7714V42.0682V40.366C37.1044 31.5593 45.3379 30.3506 45.3379 30.3506Z" style="fill:var(--sapContent_Illustrative_Color4)"/>
<path fill-rule="evenodd" clip-rule="evenodd" d="M113.783 30.3506V42.0682V53.7857C113.783 53.7857 122.017 52.577 121.697 43.7714V42.0682V40.366C122.017 31.5593 113.783 30.3506 113.783 30.3506Z" style="fill:var(--sapContent_Illustrative_Color4)"/>
<path d="M45.3224 41.7473C45.4338 51.6928 48.2406 56.6834 55.6632 63.1297C69.0259 72.711 92.5443 70.9227 103.616 63.0991C110.319 58.5342 114.213 51.2833 114.099 40.9688C113.873 21.544 99.9042 3.91637 79.6912 4.12927C59.4868 4.34 45.0986 22.3181 45.3224 41.7473Z" style="fill:var(--sapContent_Illustrative_Color8)"/>
<path fill-rule="evenodd" clip-rule="evenodd" d="M54.1118 65.0936L54.2064 65.1614C61.4739 70.3724 71.2926 72.3763 80.5624 72.1404C89.8108 71.9051 98.9806 69.4282 105.042 65.1533C112.504 60.0628 116.721 51.9836 116.599 40.9413L116.599 40.9397C116.361 20.4776 101.576 1.39861 79.6651 1.62941C57.8292 1.85715 42.5859 21.229 42.8226 41.7761C42.881 46.9823 43.6477 51.123 45.5137 54.8661C47.3685 58.5866 50.2043 61.7 54.0239 65.0172L54.1118 65.0936ZM45.3224 41.7473C45.4338 51.6928 48.2406 56.6834 55.6632 63.1297C69.0259 72.711 92.5443 70.9227 103.616 63.0991C110.319 58.5342 114.213 51.2833 114.099 40.9688C113.873 21.544 99.9043 3.91636 79.6912 4.12927C59.4868 4.34 45.0986 22.3181 45.3224 41.7473Z" style="fill:var(--sapContent_Illustrative_Color4)"/>
<path fill-rule="evenodd" clip-rule="evenodd" d="M51.9755 41.3484C52.1423 56.1303 63.3871 62.5373 80.0362 62.3614C96.6843 62.1793 107.545 55.4754 107.382 40.7026C107.21 25.9278 96.0649 16.3417 79.4158 16.5176C62.7728 16.6925 51.8046 26.5705 51.9755 41.3484Z" style="fill:var(--sapContent_Illustrative_Color4)"/>
<path d="M83.4679 31.0017C82.6029 35.6622 85.6799 40.1415 90.3404 41.0064C95.0009 41.8713 99.4801 38.7944 100.345 34.1339C101.21 29.4733 98.133 24.9941 93.4725 24.1292C88.812 23.2643 84.3328 26.3412 83.4679 31.0017Z" style="fill:var(--sapContent_Illustrative_Color5)"/>
<path fill-rule="evenodd" clip-rule="evenodd" d="M79.3016 69.2114H80.056C80.056 69.2114 96.2665 69.7628 106.067 61.1722C106.095 61.1471 106.139 61.1581 106.137 61.1963C106.059 62.477 104.633 77.042 80.056 77.042H79.3016C54.7234 77.042 53.2985 62.477 53.221 61.1963C53.2188 61.1581 53.2625 61.1471 53.2909 61.1722C63.0912 69.7628 79.3016 69.2114 79.3016 69.2114Z" style="fill:var(--sapContent_Illustrative_Color4)"/>
</svg>
