<svg width="160" height="160" version="1.1" id="tnt-Dialog-Dialog-alternate" xmlns="http://www.w3.org/2000/svg" xmlns:xlink="http://www.w3.org/1999/xlink" x="0px" y="0px"
	 viewBox="0 0 160 160" enable-background="new 0 0 160 160" xml:space="preserve">
<g>
	<path fill-rule="evenodd" clip-rule="evenodd" style="fill:var(--sapContent_Illustrative_Color2)" d="M116.6,82.1c-22.7,0-41.1-18.4-41.1-41.1c0-22.6,18.4-41,41.1-41
		s41.1,18.4,41.1,41.1c0,7.3-1.9,14.2-5.3,20.2l6.6,15.4c0.9,2.2-1,4.6-3.3,4L138.1,76C131.9,79.9,124.5,82.1,116.6,82.1z"/>
	<path style="fill:var(--sapContent_Illustrative_Color8)" d="M105,41.1c0,2.9-2.4,5.3-5.3,5.3s-5.3-2.4-5.3-5.3c0-2.9,2.4-5.3,5.3-5.3C102.6,35.7,105,38.1,105,41.1z"/>
	<path style="fill:var(--sapContent_Illustrative_Color8)" d="M122.7,41.1c0,2.9-2.4,5.3-5.3,5.3S112,44,112,41.1s2.4-5.3,5.3-5.3S122.7,38.1,122.7,41.1z"/>
	<path style="fill:var(--sapContent_Illustrative_Color8)" d="M140.4,41.1c0,2.9-2.4,5.3-5.3,5.3c-2.9,0-5.3-2.4-5.3-5.3c0-2.9,2.4-5.3,5.3-5.3
		C138,35.7,140.4,38.1,140.4,41.1z"/>
	<path fill-rule="evenodd" clip-rule="evenodd" style="fill:var(--sapContent_Illustrative_Color6)" d="M59.4,160c30.8,0,55.8-25,55.8-55.8s-25-55.8-55.8-55.8
		s-55.8,25-55.8,55.8c0,10,2.6,19.3,7.2,27.4L1,154.2c-1,2.3,1.1,4.8,3.4,4.2l25.7-6.7C38.6,157,48.7,160,59.4,160z"/>
	<path fill-rule="evenodd" clip-rule="evenodd" style="fill:var(--sapContent_Illustrative_Color8)" d="M68.4,154.3c29.5,0,53.4-23.9,53.4-53.4S97.9,47.5,68.4,47.5
		S15,71.4,15,100.9c0,9.5,2.5,18.5,6.9,26.2l-9.3,21.7c-0.9,2.2,1,4.6,3.3,4l24.6-6.4C48.5,151.4,58.1,154.3,68.4,154.3z"/>
	<path fill-rule="evenodd" clip-rule="evenodd" style="fill:var(--sapContent_Illustrative_Color4)" d="M124.3,100.9c0,30.9-25,55.9-55.9,55.9C58,156.8,48.3,154,40,149
		l-23.5,6.2c-4.5,1.2-7.9-3.6-6.2-7.4l8.8-20.5c-4.2-7.8-6.6-16.8-6.6-26.3c0-30.9,25-55.9,55.9-55.9
		C99.3,45,124.3,70.1,124.3,100.9z M21.9,127.1c-4.4-7.7-6.9-16.7-6.9-26.2c0-29.5,23.9-53.4,53.4-53.4s53.4,23.9,53.4,53.4
		s-23.9,53.4-53.4,53.4c-10.3,0-19.9-2.9-28-7.9l-24.6,6.4c-2.2,0.6-4.2-1.8-3.3-4L21.9,127.1z"/>
	<path style="fill:var(--sapContent_Illustrative_Color3)" d="M49.8,100.9c0,4.1-3.3,7.5-7.5,7.5s-7.5-3.3-7.5-7.5c0-4.1,3.3-7.5,7.5-7.5S49.8,96.8,49.8,100.9z"/>
	<path style="fill:var(--sapContent_Illustrative_Color3)" d="M74.6,100.9c0,4.1-3.3,7.5-7.5,7.5s-7.5-3.3-7.5-7.5c0-4.1,3.3-7.5,7.5-7.5S74.6,96.8,74.6,100.9z"/>
	<path style="fill:var(--sapContent_Illustrative_Color3)" d="M99.4,100.9c0,4.1-3.3,7.5-7.5,7.5s-7.5-3.3-7.5-7.5c0-4.1,3.3-7.5,7.5-7.5S99.4,96.8,99.4,100.9z"/>
</g>
</svg>
