<svg width="321" height="241" viewBox="0 0 321 241" fill="none" xmlns="http://www.w3.org/2000/svg" id="tnt-Scene-Teams-alternate">
<path d="M130.689 144.918H34.2796C26.7203 144.918 19.4706 147.921 14.1253 153.267C8.78011 158.612 5.77722 165.862 5.77722 173.421C5.77722 180.98 8.78011 188.23 14.1253 193.575C19.4706 198.92 26.7203 201.923 34.2796 201.923H130.729C138.288 201.923 145.538 198.92 150.883 193.575C156.228 188.23 159.231 180.98 159.231 173.421C159.231 165.862 156.228 158.612 150.883 153.267C145.538 147.921 138.288 144.918 130.729 144.918H130.689Z" style="fill:var(--sapContent_Illustrative_Color7)"/>
<path d="M165.81 173.211H69.351C61.8853 173.351 54.7727 176.415 49.5424 181.744C44.3121 187.073 41.382 194.242 41.382 201.709C41.382 209.176 44.3121 216.344 49.5424 221.673C54.7727 227.002 61.8853 230.066 69.351 230.206H165.81C173.276 230.066 180.388 227.002 185.618 221.673C190.849 216.344 193.779 209.176 193.779 201.709C193.779 194.242 190.849 187.073 185.618 181.744C180.388 176.415 173.276 173.351 165.81 173.211Z" style="fill:var(--sapContent_Illustrative_Color7)"/>
<path d="M291.3 94.3927H194.851C191.064 94.3218 187.301 95.0065 183.781 96.4068C180.262 97.8071 177.057 99.8949 174.353 102.548C171.65 105.201 169.502 108.367 168.037 111.86C166.571 115.352 165.816 119.102 165.816 122.89C165.816 126.678 166.571 130.428 168.037 133.921C169.502 137.413 171.65 140.579 174.353 143.232C177.057 145.885 180.262 147.973 183.781 149.373C187.301 150.774 191.064 151.458 194.851 151.388H291.3C295.088 151.458 298.851 150.774 302.37 149.373C305.89 147.973 309.095 145.885 311.799 143.232C314.502 140.579 316.649 137.413 318.115 133.921C319.581 130.428 320.336 126.678 320.336 122.89C320.336 119.102 319.581 115.352 318.115 111.86C316.649 108.367 314.502 105.201 311.799 102.548C309.095 99.8949 305.89 97.8071 302.37 96.4068C298.851 95.0065 295.088 94.3218 291.3 94.3927Z" style="fill:var(--sapContent_Illustrative_Color7)"/>
<path d="M219.421 42.3596H38.1033C28.0869 42.3596 18.4807 46.3386 11.398 53.4213C4.3153 60.504 0.336304 70.1102 0.336304 80.1266C0.336304 90.143 4.3153 99.7492 11.398 106.832C18.4807 113.915 28.0869 117.894 38.1033 117.894H219.421C229.437 117.894 239.043 113.915 246.126 106.832C253.208 99.7492 257.188 90.143 257.188 80.1266C257.188 70.1102 253.208 60.504 246.126 53.4213C239.043 46.3386 229.437 42.3596 219.421 42.3596Z" style="fill:var(--sapContent_Illustrative_Color7)"/>
<rect width="106.284" height="61.8701" rx="14" transform="matrix(-1 0 0 1 268.306 100.896)" style="fill:var(--sapContent_Illustrative_Color2)"/>
<path fill-rule="evenodd" clip-rule="evenodd" d="M152.881 211.881V142.709C152.881 123.931 168.103 108.709 186.881 108.709H239.843C258.621 108.709 273.843 123.931 273.843 142.709V158.362C255.342 176.763 230.226 192.334 200.729 202.133C184.568 207.501 168.424 210.695 152.881 211.881Z" style="fill:var(--sapContent_Illustrative_Color8)"/>
<path fill-rule="evenodd" clip-rule="evenodd" d="M149.881 212.086V142.709C149.881 122.274 166.446 105.709 186.881 105.709H239.843C260.278 105.709 276.843 122.274 276.843 142.709V155.292C275.864 156.324 274.864 157.347 273.843 158.362V142.709C273.843 123.931 258.621 108.709 239.843 108.709H186.881C168.103 108.709 152.881 123.931 152.881 142.709V211.881C151.878 211.958 150.878 212.026 149.881 212.086Z" style="fill:var(--sapContent_Illustrative_Color4)"/>
<rect width="34.5991" height="27.694" rx="4" transform="matrix(-1 0 0 1 230.661 149.058)" style="fill:var(--sapContent_Illustrative_Color9)"/>
<path fill-rule="evenodd" clip-rule="evenodd" d="M179.769 73.6963V84.7988V95.9012C179.769 95.9012 171.967 94.756 172.27 86.4126V84.7988V83.1859C171.967 74.8415 179.769 73.6963 179.769 73.6963Z" style="fill:var(--sapContent_Illustrative_Color4)"/>
<path fill-rule="evenodd" clip-rule="evenodd" d="M245.372 73.6963V84.7988V95.9012C245.372 95.9012 253.173 94.756 252.87 86.4126V84.7988V83.1859C253.173 74.8415 245.372 73.6963 245.372 73.6963Z" style="fill:var(--sapContent_Illustrative_Color4)"/>
<path d="M180.401 84.5095C180.507 93.9629 183.175 98.7066 190.23 104.834C202.932 113.941 225.286 112.241 235.811 104.805C242.182 100.466 245.882 93.5737 245.775 83.7696C245.56 65.306 232.282 48.5507 213.069 48.753C193.865 48.9533 180.188 66.0418 180.401 84.5095Z" style="fill:var(--sapContent_Illustrative_Color8)"/>
<path fill-rule="evenodd" clip-rule="evenodd" d="M188.363 107.198L188.477 107.28C195.533 112.339 205.017 114.258 213.913 114.032C222.784 113.806 231.632 111.433 237.526 107.278C244.811 102.306 248.901 94.4169 248.784 83.7365L248.784 83.7346C248.555 64.0223 234.295 45.5198 213.038 45.7437C191.869 45.9645 177.164 64.7308 177.392 84.5442C177.448 89.552 178.186 93.5908 180.016 97.2617C181.833 100.906 184.599 103.929 188.257 107.106L188.363 107.198ZM180.401 84.5096C180.507 93.9629 183.175 98.7066 190.23 104.834C202.932 113.941 225.286 112.241 235.811 104.805C242.182 100.466 245.883 93.5737 245.775 83.7696C245.56 65.306 232.282 48.5507 213.069 48.7531C193.865 48.9534 180.188 66.0418 180.401 84.5096Z" style="fill:var(--sapContent_Illustrative_Color4)"/>
<path fill-rule="evenodd" clip-rule="evenodd" d="M186.808 84.1165C186.966 98.1225 197.621 104.193 213.396 104.027C229.17 103.854 239.461 97.502 239.306 83.5046C239.144 69.5054 228.583 60.4225 212.808 60.5892C197.039 60.7549 186.646 70.1144 186.808 84.1165Z" style="fill:var(--sapContent_Illustrative_Color4)"/>
<circle cx="8.13217" cy="8.13217" r="8.13217" transform="matrix(-0.983212 -0.182469 -0.182469 0.983212 234.123 69.2854)" style="fill:var(--sapContent_Illustrative_Color5)"/>
<path fill-rule="evenodd" clip-rule="evenodd" d="M212.7 110.892H213.415C213.415 110.892 228.774 111.414 238.06 103.275C238.087 103.251 238.128 103.261 238.126 103.298C238.053 104.511 236.702 118.312 213.415 118.312H212.7C189.412 118.312 188.062 104.511 187.988 103.298C187.986 103.261 188.028 103.251 188.054 103.275C197.34 111.414 212.7 110.892 212.7 110.892Z" style="fill:var(--sapContent_Illustrative_Color4)"/>
<rect width="117.623" height="76.3647" rx="14" transform="matrix(-1 0 0 1 174.57 106.449)" style="fill:var(--sapContent_Illustrative_Color2)"/>
<path fill-rule="evenodd" clip-rule="evenodd" d="M46.8294 175.372V149.095C46.8294 130.318 62.0517 115.095 80.8294 115.095H146.698C165.475 115.095 180.698 130.318 180.698 149.095V207.696C124.594 220.268 71.6524 207.101 46.8294 175.372Z" style="fill:var(--sapContent_Illustrative_Color8)"/>
<path fill-rule="evenodd" clip-rule="evenodd" d="M43.8294 171.242V149.095C43.8294 128.661 60.3949 112.095 80.8294 112.095H146.698C167.132 112.095 183.698 128.661 183.698 149.095V207C182.697 207.24 181.697 207.472 180.698 207.696V149.095C180.698 130.318 165.475 115.095 146.698 115.095H80.8294C62.0517 115.095 46.8294 130.318 46.8294 149.095V175.372C45.7784 174.028 44.7778 172.652 43.8294 171.242Z" style="fill:var(--sapContent_Illustrative_Color4)"/>
<path fill-rule="evenodd" clip-rule="evenodd" d="M72.5101 196.825V157.166C72.5101 156.338 73.1817 155.666 74.0101 155.666C74.8386 155.666 75.5101 156.338 75.5101 157.166V198.428C74.4961 197.907 73.496 197.373 72.5101 196.825ZM152.017 211.945V157.166C152.017 156.338 152.689 155.666 153.517 155.666C154.346 155.666 155.017 156.338 155.017 157.166V211.706C154.015 211.794 153.015 211.874 152.017 211.945ZM247.783 179.446V146.724C247.783 145.895 248.454 145.224 249.283 145.224C250.111 145.224 250.783 145.895 250.783 146.724V177.421C249.793 178.103 248.793 178.778 247.783 179.446Z" style="fill:var(--sapContent_Illustrative_Color4)"/>
<rect width="38.2905" height="30.6486" rx="4" transform="matrix(-1 0 0 1 132.909 159.749)" style="fill:var(--sapContent_Illustrative_Color3)"/>
<path fill-rule="evenodd" clip-rule="evenodd" d="M76.5862 76.3474V88.6344V100.921C76.5862 100.921 67.9525 99.654 68.288 90.4204V88.6344V86.8495C67.9525 77.6148 76.5862 76.3474 76.5862 76.3474Z" style="fill:var(--sapContent_Illustrative_Color4)"/>
<path fill-rule="evenodd" clip-rule="evenodd" d="M149.189 76.3474V88.6344V100.921C149.189 100.921 157.823 99.654 157.487 90.4204V88.6344V86.8495C157.823 77.6148 149.189 76.3474 149.189 76.3474Z" style="fill:var(--sapContent_Illustrative_Color4)"/>
<path d="M77.3479 88.3053C77.4649 98.7494 80.4124 103.99 88.2072 110.76C102.24 120.822 126.938 118.944 138.565 110.728C145.604 105.934 149.692 98.3195 149.573 87.4878C149.336 67.089 134.667 48.5775 113.44 48.8011C92.2225 49.0224 77.1129 67.9019 77.3479 88.3053Z" style="fill:var(--sapContent_Illustrative_Color8)"/>
<path fill-rule="evenodd" clip-rule="evenodd" d="M86.3428 113.12L86.4565 113.202C94.1773 118.737 104.579 120.85 114.364 120.601C124.124 120.353 133.833 117.741 140.278 113.196C148.229 107.771 152.706 99.161 152.577 87.4547L152.577 87.4529C152.326 65.8075 136.676 45.5518 113.409 45.7969C90.2305 46.0386 74.0932 66.5931 74.3437 88.3399C74.4054 93.8426 75.2162 98.2526 77.2095 102.251C79.1894 106.222 82.2095 109.53 86.2371 113.028L86.3428 113.12ZM77.3479 88.3053C77.4649 98.7495 80.4124 103.99 88.2072 110.76C102.24 120.822 126.938 118.944 138.565 110.728C145.604 105.934 149.692 98.3195 149.573 87.4878C149.336 67.089 134.666 48.5775 113.44 48.8011C92.2225 49.0224 77.1129 67.902 77.3479 88.3053Z" style="fill:var(--sapContent_Illustrative_Color4)"/>
<path fill-rule="evenodd" clip-rule="evenodd" d="M84.377 87.8796C84.5519 103.38 96.3432 110.098 113.801 109.914C131.259 109.723 142.647 102.693 142.476 87.2024C142.296 71.7096 130.609 61.6576 113.151 61.8421C95.6991 62.0255 84.1979 72.3836 84.377 87.8796Z" style="fill:var(--sapContent_Illustrative_Color4)"/>
<circle cx="8.99978" cy="8.99978" r="8.99978" transform="matrix(-0.983212 -0.182469 -0.182469 0.983212 136.74 71.4658)" style="fill:var(--sapContent_Illustrative_Color5)"/>
<path fill-rule="evenodd" clip-rule="evenodd" d="M113.031 117.412H113.822C113.822 117.412 130.82 117.99 141.097 108.982C141.127 108.956 141.172 108.968 141.17 109.008C141.089 110.351 139.594 125.623 113.822 125.623H113.031C87.2584 125.623 85.7643 110.351 85.683 109.008C85.6807 108.968 85.7265 108.956 85.7563 108.982C96.0328 117.99 113.031 117.412 113.031 117.412Z" style="fill:var(--sapContent_Illustrative_Color4)"/>
<path fill-rule="evenodd" clip-rule="evenodd" d="M277.36 155.307C277.904 155.932 277.839 156.879 277.214 157.424C247.472 183.331 198.845 214.454 145.589 215.012C117.76 215.304 96.9686 210.285 80.782 202.36C64.5946 194.435 53.1039 183.647 43.8225 172.541C43.2913 171.905 43.3759 170.959 44.0116 170.428C44.6473 169.896 45.5933 169.981 46.1245 170.617C55.2279 181.51 66.4023 191.979 82.1012 199.666C97.8008 207.352 118.116 212.3 145.557 212.013C197.751 211.465 245.7 180.896 275.244 155.161C275.868 154.617 276.816 154.683 277.36 155.307Z" style="fill:var(--sapContent_Illustrative_Color4)"/>
</svg>
