<svg width="128" height="129" viewBox="0 0 128 129" fill="none" xmlns="http://www.w3.org/2000/svg" id="tnt-Spot-Calculator-alternate">
<path d="M15.0534 34.7675C13.9513 29.176 17.5907 23.7498 23.1822 22.6477L79.1413 11.6182C84.7328 10.5162 90.159 14.1556 91.2611 19.7471L108.128 105.324C109.23 110.916 105.591 116.342 99.9994 117.444L44.0403 128.474C38.4488 129.576 33.0226 125.936 31.9205 120.345L15.0534 34.7675Z" style="fill:var(--sapContent_Illustrative_Color6)"/>
<path d="M19.4024 25.2009C18.5597 20.925 21.3427 16.7756 25.6186 15.9328L86.3421 3.9643C90.6179 3.12153 94.7674 5.9046 95.6101 10.1805L113.416 100.522C114.259 104.798 111.476 108.947 107.2 109.79L46.4767 121.759C42.2009 122.601 38.0514 119.818 37.2086 115.543L19.4024 25.2009Z" style="fill:var(--sapContent_Illustrative_Color8)"/>
<path fill-rule="evenodd" clip-rule="evenodd" d="M25.2314 13.9677L85.9549 1.99917C91.3161 0.942485 96.5188 4.43196 97.5755 9.79314L115.382 100.135C116.438 105.496 112.949 110.699 107.588 111.755L46.8642 123.724C41.5031 124.781 36.3004 121.291 35.2437 115.93L17.4375 25.5882C16.3808 20.2271 19.8703 15.0244 25.2314 13.9677ZM25.6188 15.9328C21.3429 16.7756 18.5598 20.925 19.4026 25.2009L37.2088 115.543C38.0516 119.818 42.201 122.601 46.4769 121.759L107.2 109.79C111.476 108.947 114.259 104.798 113.417 100.522L95.6103 10.1805C94.7676 5.90461 90.6181 3.12154 86.3422 3.96431L25.6188 15.9328Z" style="fill:var(--sapContent_Illustrative_Color4)"/>
<path d="M19.4024 25.2009C18.5597 20.925 21.3427 16.7756 25.6186 15.9328L86.3421 3.9643C90.6179 3.12153 94.7674 5.9046 95.6101 10.1805L101.359 39.3469L25.1511 54.3673L19.4024 25.2009Z" style="fill:var(--sapContent_Illustrative_Color6)"/>
<path d="M26.8986 26.4023C26.5097 24.4288 27.7942 22.5137 29.7676 22.1247L84.8514 11.2678C86.8249 10.8788 88.74 12.1633 89.129 14.1368L91.9839 28.6212C92.3728 30.5947 91.0884 32.5098 89.1149 32.8988L34.0311 43.7558C32.0576 44.1447 30.1425 42.8602 29.7535 40.8868L26.8986 26.4023Z" style="fill:var(--sapContent_Illustrative_Color8)"/>
<path fill-rule="evenodd" clip-rule="evenodd" d="M29.3802 20.1596L84.464 9.30262C87.5228 8.69973 90.4912 10.6906 91.0941 13.7494L93.949 28.2339C94.5518 31.2927 92.5609 34.2611 89.5021 34.864L34.4183 45.7209C31.3595 46.3238 28.3912 44.3329 27.7883 41.2741L24.9334 26.7896C24.3305 23.7308 26.3214 20.7624 29.3802 20.1596ZM29.7676 22.1247C27.7941 22.5137 26.5096 24.4288 26.8986 26.4023L29.7534 40.8868C30.1424 42.8602 32.0575 44.1447 34.031 43.7558L89.1148 32.8988C91.0883 32.5098 92.3728 30.5947 91.9838 28.6212L89.1289 14.1368C88.74 12.1633 86.8248 10.8788 84.8514 11.2678L29.7676 22.1247Z" style="fill:var(--sapContent_Illustrative_Color4)"/>
<path d="M33.975 62.2994C33.5861 60.3259 34.8706 58.4108 36.844 58.0218L47.1616 55.9882C49.1351 55.5993 51.0502 56.8838 51.4392 58.8572L52.2179 62.8079C52.6068 64.7814 51.3223 66.6965 49.3489 67.0855L39.0313 69.1191C37.0578 69.5081 35.1427 68.2236 34.7537 66.2501L33.975 62.2994Z" style="fill:var(--sapContent_Illustrative_Color5)"/>
<path d="M36.9653 77.4731C36.5763 75.4996 37.8608 73.5845 39.8343 73.1955L50.1518 71.1619C52.1253 70.773 54.0404 72.0575 54.4294 74.0309L55.2081 77.9816C55.5971 79.9551 54.3126 81.8703 52.3391 82.2592L42.0215 84.2928C40.0481 84.6818 38.1329 83.3973 37.744 81.4238L36.9653 77.4731Z" style="fill:var(--sapContent_Illustrative_Color5)"/>
<path d="M39.9565 92.647C39.5675 90.6735 40.852 88.7584 42.8255 88.3694L53.143 86.3359C55.1165 85.9469 57.0317 87.2314 57.4206 89.2049L58.1993 93.1556C58.5883 95.129 57.3038 97.0442 55.3303 97.4331L45.0127 99.4667C43.0393 99.8557 41.1241 98.5712 40.7352 96.5977L39.9565 92.647Z" style="fill:var(--sapContent_Illustrative_Color5)"/>
<path d="M56.3579 57.888C55.9689 55.9145 57.2534 53.9994 59.2268 53.6104L69.5444 51.5769C71.5179 51.1879 73.433 52.4724 73.822 54.4459L74.6007 58.3966C74.9896 60.37 73.7051 62.2852 71.7317 62.6741L61.4141 64.7077C59.4406 65.0967 57.5255 63.8122 57.1365 61.8387L56.3579 57.888Z" style="fill:var(--sapContent_Illustrative_Color5)"/>
<path d="M59.3476 73.0615C58.9586 71.0881 60.2431 69.1729 62.2166 68.784L72.5342 66.7504C74.5076 66.3614 76.4228 67.6459 76.8117 69.6194L77.5904 73.5701C77.9794 75.5436 76.6949 77.4587 74.7214 77.8477L64.4039 79.8812C62.4304 80.2702 60.5152 78.9857 60.1263 77.0122L59.3476 73.0615Z" style="fill:var(--sapContent_Illustrative_Color5)"/>
<path d="M62.3386 88.2355C61.9496 86.262 63.2341 84.3468 65.2076 83.9579L75.5251 81.9243C77.4986 81.5353 79.4137 82.8198 79.8027 84.7933L80.5814 88.744C80.9703 90.7175 79.6859 92.6326 77.7124 93.0216L67.3948 95.0552C65.4214 95.4441 63.5062 94.1596 63.1172 92.1862L62.3386 88.2355Z" style="fill:var(--sapContent_Illustrative_Color5)"/>
<path d="M65.329 103.409C64.9401 101.436 66.2246 99.5208 68.198 99.1318L78.5156 97.0982C80.4891 96.7093 82.4042 97.9937 82.7932 99.9672L83.5719 103.918C83.9608 105.891 82.6763 107.807 80.7029 108.195L70.3853 110.229C68.4118 110.618 66.4967 109.334 66.1077 107.36L65.329 103.409Z" style="fill:var(--sapContent_Illustrative_Color5)"/>
<path d="M78.7416 53.4762C78.3527 51.5028 79.6372 49.5876 81.6106 49.1987L91.9282 47.1651C93.9017 46.7761 95.8168 48.0606 96.2058 50.0341L96.9845 53.9848C97.3734 55.9583 96.0889 57.8734 94.1155 58.2624L83.7979 60.2959C81.8244 60.6849 79.9093 59.4004 79.5203 57.4269L78.7416 53.4762Z" style="fill:var(--sapContent_Illustrative_Color5)"/>
<path d="M81.7321 68.6496C81.3432 66.6761 82.6276 64.761 84.6011 64.372L94.9187 62.3384C96.8921 61.9495 98.8073 63.234 99.1963 65.2074L99.9749 69.1581C100.364 71.1316 99.0794 73.0467 97.1059 73.4357L86.7884 75.4693C84.8149 75.8582 82.8998 74.5738 82.5108 72.6003L81.7321 68.6496Z" style="fill:var(--sapContent_Illustrative_Color5)"/>
<path d="M84.7231 83.8237C84.3341 81.8502 85.6186 79.9351 87.5921 79.5461L97.9096 77.5125C99.8831 77.1236 101.798 78.4081 102.187 80.3815L102.966 84.3322C103.355 86.3057 102.07 88.2208 100.097 88.6098L89.7793 90.6434C87.8059 91.0324 85.8907 89.7479 85.5018 87.7744L84.7231 83.8237Z" style="fill:var(--sapContent_Illustrative_Color5)"/>
<path d="M42.9467 107.821C42.5578 105.848 43.8422 103.933 45.8157 103.544L56.1333 101.51C58.1067 101.121 60.0219 102.405 60.4109 104.379L61.1895 108.33C61.5785 110.303 60.294 112.218 58.3205 112.607L48.003 114.641C46.0295 115.03 44.1144 113.745 43.7254 111.772L42.9467 107.821Z" style="fill:var(--sapContent_Illustrative_Color9)"/>
<path d="M87.7128 98.9976C87.3239 97.0241 88.6084 95.109 90.5818 94.72L100.899 92.6864C102.873 92.2975 104.788 93.582 105.177 95.5554L105.956 99.5061C106.345 101.48 105.06 103.395 103.087 103.784L92.7691 105.817C90.7956 106.206 88.8805 104.922 88.4915 102.948L87.7128 98.9976Z" style="fill:var(--sapContent_Illustrative_Color9)"/>
<path fill-rule="evenodd" clip-rule="evenodd" d="M53.0392 21.1813C53.5819 21.0744 54.1085 21.4276 54.2154 21.9702L55.3505 27.729L60.0755 26.7977L58.9404 21.039C58.8335 20.4963 59.1867 19.9697 59.7293 19.8627C60.272 19.7558 60.7986 20.109 60.9056 20.6516L63.3906 33.2594C63.4975 33.8021 63.1443 34.3287 62.6017 34.4357C62.059 34.5426 61.5324 34.1894 61.4254 33.6467L60.4628 28.7629L54.7552 29.8878C54.2126 29.9948 53.686 29.6416 53.579 29.0989L52.2503 22.3576C52.1433 21.8149 52.4966 21.2883 53.0392 21.1813Z" style="fill:var(--sapContent_Illustrative_Color4)"/>
<path fill-rule="evenodd" clip-rule="evenodd" d="M63.7046 20.0999C63.5977 19.5573 63.9509 19.0307 64.4936 18.9237L70.9128 17.6585C71.4555 17.5515 71.9821 17.9047 72.0891 18.4474L74.574 31.0552C74.681 31.5978 74.3278 32.1245 73.7851 32.2314C73.2425 32.3384 72.7159 31.9852 72.6089 31.4425L70.3176 19.8173L64.8809 20.8889C64.3382 20.9958 63.8116 20.6426 63.7046 20.0999Z" style="fill:var(--sapContent_Illustrative_Color4)"/>
<path fill-rule="evenodd" clip-rule="evenodd" d="M74.8884 17.8959C74.7814 17.3532 75.1346 16.8266 75.6773 16.7197L82.0966 15.4544C82.6392 15.3475 83.1659 15.7007 83.2728 16.2433L84.5153 22.5472C84.6223 23.0899 84.2691 23.6165 83.7264 23.7235L78.2895 24.7951L79.1534 29.1782L84.5903 28.1066C85.133 27.9996 85.6596 28.3528 85.7665 28.8955C85.8735 29.4382 85.5203 29.9648 84.9776 30.0717L78.5582 31.337C78.2976 31.3884 78.0273 31.3341 77.8067 31.1861C77.5861 31.0382 77.4333 30.8087 77.382 30.5481L76.1307 24.1998C76.0238 23.6572 76.377 23.1305 76.9196 23.0236L82.3565 21.952L81.5013 17.6132L76.0646 18.6848C75.522 18.7918 74.9954 18.4385 74.8884 17.8959Z" style="fill:var(--sapContent_Illustrative_Color4)"/>
</svg>
