<svg width="160" height="161" viewBox="0 0 160 161" fill="none" xmlns="http://www.w3.org/2000/svg" id="tnt-Dialog-Calculator-alternate">
<path d="M18.9069 42.9955C17.5314 36.0164 22.0739 29.2436 29.053 27.868L98.8988 14.1015C105.878 12.726 112.651 17.2685 114.026 24.2476L135.079 131.062C136.455 138.041 131.912 144.813 124.933 146.189L55.0873 159.956C48.1082 161.331 41.3354 156.789 39.9598 149.81L18.9069 42.9955Z" style="fill:var(--sapContent_Illustrative_Color6)"/>
<path d="M24.3353 31.0549C23.2834 25.718 26.7571 20.5388 32.0941 19.4869L107.887 4.5483C113.224 3.49639 118.403 6.9701 119.455 12.307L141.68 125.068C142.732 130.405 139.258 135.584 133.921 136.636L58.1283 151.574C52.7914 152.626 47.6122 149.153 46.5603 143.816L24.3353 31.0549Z" style="fill:var(--sapContent_Illustrative_Color8)"/>
<path fill-rule="evenodd" clip-rule="evenodd" d="M31.6106 17.0341L107.403 2.09549C114.095 0.776586 120.589 5.13201 121.907 11.8236L144.132 124.584C145.451 131.276 141.096 137.77 134.404 139.089L58.6118 154.027C51.9202 155.346 45.4264 150.991 44.1075 144.299L21.8825 31.5384C20.5636 24.8468 24.919 18.353 31.6106 17.0341ZM32.094 19.4869C26.7571 20.5388 23.2834 25.718 24.3353 31.0549L46.5603 143.816C47.6122 149.153 52.7914 152.626 58.1283 151.574L133.921 136.636C139.258 135.584 142.732 130.405 141.68 125.068L119.455 12.3071C118.403 6.97011 113.224 3.4964 107.887 4.5483L32.094 19.4869Z" style="fill:var(--sapContent_Illustrative_Color4)"/>
<path d="M24.3353 31.0549C23.2834 25.718 26.7571 20.5388 32.0941 19.4869L107.887 4.54829C113.224 3.49639 118.403 6.9701 119.455 12.307L126.63 48.7114L31.5105 67.4593L24.3353 31.0549Z" style="fill:var(--sapContent_Illustrative_Color6)"/>
<path d="M33.6921 32.5544C33.2066 30.0912 34.8098 27.7009 37.273 27.2154L106.026 13.6642C108.49 13.1787 110.88 14.7819 111.365 17.2451L114.929 35.3241C115.414 37.7873 113.811 40.1777 111.348 40.6632L42.5945 54.2143C40.1313 54.6998 37.7409 53.0966 37.2554 50.6334L33.6921 32.5544Z" style="fill:var(--sapContent_Illustrative_Color8)"/>
<path fill-rule="evenodd" clip-rule="evenodd" d="M36.7898 24.7625L105.543 11.2113C109.361 10.4589 113.066 12.9438 113.818 16.7617L117.382 34.8406C118.134 38.6585 115.649 42.3635 111.831 43.116L43.0781 56.6671C39.2603 57.4196 35.5553 54.9347 34.8028 51.1168L31.2395 33.0379C30.487 29.22 32.9719 25.515 36.7898 24.7625ZM37.2732 27.2153C34.81 27.7008 33.2068 30.0912 33.6923 32.5544L37.2556 50.6334C37.7411 53.0966 40.1315 54.6998 42.5947 54.2143L111.348 40.6631C113.811 40.1776 115.415 37.7873 114.929 35.3241L111.366 17.2451C110.88 14.7819 108.49 13.1787 106.027 13.6642L37.2732 27.2153Z" style="fill:var(--sapContent_Illustrative_Color4)"/>
<path d="M42.5241 77.3599C42.0386 74.8967 43.6418 72.5063 46.105 72.0208L58.983 69.4826C61.4462 68.9971 63.8366 70.6003 64.3221 73.0635L65.294 77.9946C65.7795 80.4579 64.1763 82.8482 61.713 83.3337L48.8351 85.872C46.3719 86.3575 43.9815 84.7542 43.496 82.291L42.5241 77.3599Z" style="fill:var(--sapContent_Illustrative_Color5)"/>
<path d="M46.2565 96.299C45.771 93.8358 47.3743 91.4454 49.8375 90.9599L62.7154 88.4217C65.1786 87.9362 67.569 89.5394 68.0545 92.0026L69.0264 96.9337C69.5119 99.3969 67.9087 101.787 65.4455 102.273L52.5675 104.811C50.1043 105.297 47.7139 103.693 47.2284 101.23L46.2565 96.299Z" style="fill:var(--sapContent_Illustrative_Color5)"/>
<path d="M49.9897 115.239C49.5042 112.775 51.1074 110.385 53.5706 109.899L66.4486 107.361C68.9118 106.876 71.3022 108.479 71.7877 110.942L72.7596 115.873C73.2451 118.337 71.6418 120.727 69.1786 121.212L56.3007 123.751C53.8375 124.236 51.4471 122.633 50.9616 120.17L49.9897 115.239Z" style="fill:var(--sapContent_Illustrative_Color5)"/>
<path d="M70.4611 71.8537C69.9756 69.3905 71.5789 67.0001 74.0421 66.5146L86.92 63.9764C89.3832 63.4909 91.7736 65.0942 92.2591 67.5574L93.231 72.4885C93.7165 74.9517 92.1133 77.3421 89.6501 77.8276L76.7721 80.3658C74.3089 80.8513 71.9185 79.248 71.433 76.7848L70.4611 71.8537Z" style="fill:var(--sapContent_Illustrative_Color5)"/>
<path d="M74.1935 90.7929C73.708 88.3296 75.3113 85.9393 77.7745 85.4538L90.6524 82.9155C93.1156 82.43 95.506 84.0333 95.9915 86.4965L96.9634 91.4276C97.4489 93.8908 95.8457 96.2812 93.3825 96.7667L80.5045 99.3049C78.0413 99.7904 75.6509 98.1872 75.1654 95.724L74.1935 90.7929Z" style="fill:var(--sapContent_Illustrative_Color5)"/>
<path d="M77.9267 109.732C77.4412 107.269 79.0444 104.879 81.5076 104.393L94.3856 101.855C96.8488 101.369 99.2392 102.973 99.7247 105.436L100.697 110.367C101.182 112.83 99.5788 115.221 97.1156 115.706L84.2377 118.244C81.7745 118.73 79.3841 117.126 78.8986 114.663L77.9267 109.732Z" style="fill:var(--sapContent_Illustrative_Color5)"/>
<path d="M81.6589 128.672C81.1734 126.209 82.7766 123.818 85.2398 123.333L98.1178 120.794C100.581 120.309 102.971 121.912 103.457 124.375L104.429 129.306C104.914 131.77 103.311 134.16 100.848 134.646L87.9699 137.184C85.5066 137.669 83.1163 136.066 82.6308 133.603L81.6589 128.672Z" style="fill:var(--sapContent_Illustrative_Color5)"/>
<path d="M98.4001 66.3471C97.9146 63.8839 99.5178 61.4935 101.981 61.008L114.859 58.4698C117.322 57.9843 119.713 59.5875 120.198 62.0508L121.17 66.9819C121.655 69.4451 120.052 71.8355 117.589 72.321L104.711 74.8592C102.248 75.3447 99.8575 73.7414 99.372 71.2782L98.4001 66.3471Z" style="fill:var(--sapContent_Illustrative_Color5)"/>
<path d="M102.132 85.286C101.647 82.8228 103.25 80.4324 105.713 79.9469L118.591 77.4087C121.054 76.9232 123.445 78.5264 123.93 80.9896L124.902 85.9207C125.388 88.3839 123.784 90.7743 121.321 91.2598L108.443 93.7981C105.98 94.2836 103.59 92.6803 103.104 90.2171L102.132 85.286Z" style="fill:var(--sapContent_Illustrative_Color5)"/>
<path d="M105.866 104.226C105.38 101.762 106.983 99.3719 109.447 98.8864L122.325 96.3482C124.788 95.8627 127.178 97.466 127.664 99.9292L128.636 104.86C129.121 107.323 127.518 109.714 125.055 110.199L112.177 112.738C109.713 113.223 107.323 111.62 106.838 109.157L105.866 104.226Z" style="fill:var(--sapContent_Illustrative_Color5)"/>
<path d="M53.7218 134.178C53.2363 131.715 54.8396 129.325 57.3028 128.839L70.1808 126.301C72.644 125.815 75.0344 127.419 75.5199 129.882L76.4918 134.813C76.9773 137.276 75.374 139.666 72.9108 140.152L60.0328 142.69C57.5696 143.176 55.1792 141.572 54.6937 139.109L53.7218 134.178Z" style="fill:var(--sapContent_Illustrative_Color9)"/>
<path d="M109.598 123.165C109.112 120.702 110.716 118.312 113.179 117.826L126.057 115.288C128.52 114.802 130.91 116.406 131.396 118.869L132.368 123.8C132.853 126.263 131.25 128.653 128.787 129.139L115.909 131.677C113.446 132.163 111.055 130.559 110.57 128.096L109.598 123.165Z" style="fill:var(--sapContent_Illustrative_Color9)"/>
<path fill-rule="evenodd" clip-rule="evenodd" d="M66.3197 26.0378C66.997 25.9043 67.6543 26.3452 67.7878 27.0225L69.2045 34.2104L75.1021 33.048L73.6853 25.8601C73.5518 25.1828 73.9927 24.5255 74.67 24.392C75.3473 24.2585 76.0046 24.6993 76.1381 25.3766L79.2398 41.1132C79.3733 41.7905 78.9324 42.4478 78.2551 42.5813C77.5778 42.7148 76.9205 42.2739 76.787 41.5966L75.5855 35.5008L68.4616 36.9049C67.7842 37.0384 67.1269 36.5975 66.9934 35.9202L65.335 27.5059C65.2015 26.8286 65.6423 26.1713 66.3197 26.0378Z" style="fill:var(--sapContent_Illustrative_Color4)"/>
<path fill-rule="evenodd" clip-rule="evenodd" d="M79.6321 24.6882C79.4986 24.0108 79.9395 23.3535 80.6168 23.22L88.6291 21.6408C89.3064 21.5073 89.9637 21.9482 90.0972 22.6255L93.1988 38.362C93.3323 39.0394 92.8915 39.6967 92.2141 39.8302C91.5368 39.9637 90.8795 39.5228 90.746 38.8455L87.8861 24.3354L81.1002 25.6728C80.4229 25.8063 79.7656 25.3655 79.6321 24.6882Z" style="fill:var(--sapContent_Illustrative_Color4)"/>
<path fill-rule="evenodd" clip-rule="evenodd" d="M93.5908 21.9369C93.4573 21.2596 93.8982 20.6023 94.5755 20.4688L102.588 18.8896C103.265 18.7561 103.922 19.197 104.056 19.8743L105.607 27.7425C105.74 28.4199 105.299 29.0772 104.622 29.2107L97.836 30.5482L98.9143 36.019L105.7 34.6815C106.378 34.548 107.035 34.9889 107.168 35.6662C107.302 36.3435 106.861 37.0008 106.184 37.1343L98.1713 38.7136C97.846 38.7777 97.5086 38.71 97.2333 38.5253C96.958 38.3406 96.7673 38.0542 96.7032 37.7289L95.1414 29.8052C95.0079 29.1279 95.4488 28.4706 96.1261 28.3371L102.912 26.9996L101.845 21.5841L95.0589 22.9216C94.3816 23.0551 93.7243 22.6143 93.5908 21.9369Z" style="fill:var(--sapContent_Illustrative_Color4)"/>
</svg>
