<svg width="160" height="161" viewBox="0 0 160 161" fill="none" xmlns="http://www.w3.org/2000/svg" id="tnt-Dialog-Tools-alternate">
<path fill-rule="evenodd" clip-rule="evenodd" d="M114.649 6.27606C114.33 4.77744 112.316 4.4892 111.59 5.83816L34.3372 149.268C33.6721 150.503 34.7572 151.951 36.129 151.659L139.238 129.714C140.127 129.524 140.694 128.65 140.505 127.761L114.649 6.27606ZM102.728 67.7468C103.455 66.3979 105.468 66.6861 105.787 68.1847L114.935 111.165C115.124 112.054 114.557 112.929 113.668 113.118L77.1886 120.882C75.8168 121.174 74.7316 119.726 75.3967 118.491L102.728 67.7468Z" style="fill:var(--sapContent_Illustrative_Color8)"/>
<path fill-rule="evenodd" clip-rule="evenodd" d="M112.312 110.851L78.4726 118.053L103.826 70.9801L112.312 110.851ZM109.389 4.65275L32.1362 148.083C30.461 151.193 33.1942 154.839 36.6495 154.104L139.758 132.159C141.998 131.682 143.427 129.48 142.95 127.241L117.094 5.75572C116.291 1.98103 111.219 1.25503 109.389 4.65275ZM111.59 5.83825C112.316 4.48929 114.33 4.77753 114.649 6.27615L140.505 127.761C140.694 128.65 140.127 129.524 139.238 129.714L36.1291 151.659C34.7573 151.951 33.6721 150.503 34.3372 149.268L111.59 5.83825ZM105.787 68.1848C105.468 66.6862 103.455 66.398 102.728 67.7469L75.3968 118.491C74.7317 119.726 75.8168 121.174 77.1887 120.882L113.668 113.118C114.557 112.929 115.124 112.054 114.935 111.165L105.787 68.1848Z" style="fill:var(--sapContent_Illustrative_Color4)"/>
<path fill-rule="evenodd" clip-rule="evenodd" d="M121.291 28.6084C121.434 29.2837 121.003 29.9476 120.328 30.0913L106.634 33.0058C105.959 33.1495 105.295 32.7186 105.152 32.0434C105.008 31.3681 105.439 30.7043 106.114 30.5605L119.808 27.646C120.483 27.5023 121.147 27.9332 121.291 28.6084Z" style="fill:var(--sapContent_Illustrative_Color4)"/>
<path fill-rule="evenodd" clip-rule="evenodd" d="M123.214 37.6465C123.358 38.3218 122.927 38.9856 122.252 39.1294L115.185 40.6335C114.509 40.7772 113.845 40.3464 113.702 39.6711C113.558 38.9959 113.989 38.332 114.664 38.1883L121.732 36.6841C122.407 36.5404 123.071 36.9713 123.214 37.6465Z" style="fill:var(--sapContent_Illustrative_Color4)"/>
<path fill-rule="evenodd" clip-rule="evenodd" d="M125.137 46.6846C125.281 47.3598 124.85 48.0237 124.175 48.1674L117.107 49.6716C116.432 49.8153 115.768 49.3845 115.625 48.7092C115.481 48.034 115.912 47.3701 116.587 47.2264L123.654 45.7222C124.33 45.5785 124.994 46.0094 125.137 46.6846Z" style="fill:var(--sapContent_Illustrative_Color4)"/>
<path fill-rule="evenodd" clip-rule="evenodd" d="M127.061 55.7229C127.205 56.3982 126.774 57.0621 126.099 57.2058L119.031 58.71C118.356 58.8537 117.692 58.4228 117.548 57.7476C117.405 57.0723 117.836 56.4084 118.511 56.2647L125.578 54.7605C126.253 54.6168 126.917 55.0477 127.061 55.7229Z" style="fill:var(--sapContent_Illustrative_Color4)"/>
<path fill-rule="evenodd" clip-rule="evenodd" d="M128.985 64.7613C129.129 65.4365 128.698 66.1004 128.023 66.2441L120.955 67.7483C120.28 67.892 119.616 67.4611 119.472 66.7859C119.329 66.1107 119.759 65.4468 120.435 65.3031L127.502 63.7989C128.177 63.6552 128.841 64.086 128.985 64.7613Z" style="fill:var(--sapContent_Illustrative_Color4)"/>
<path fill-rule="evenodd" clip-rule="evenodd" d="M130.909 73.7994C131.052 74.4746 130.622 75.1385 129.946 75.2822L116.253 78.1967C115.577 78.3404 114.913 77.9095 114.77 77.2343C114.626 76.5591 115.057 75.8952 115.732 75.7515L129.426 72.837C130.101 72.6932 130.765 73.1241 130.909 73.7994Z" style="fill:var(--sapContent_Illustrative_Color4)"/>
<path fill-rule="evenodd" clip-rule="evenodd" d="M132.832 82.8377C132.975 83.5129 132.544 84.1768 131.869 84.3205L124.802 85.8247C124.127 85.9684 123.463 85.5375 123.319 84.8623C123.175 84.1871 123.606 83.5232 124.281 83.3795L131.349 81.8753C132.024 81.7316 132.688 82.1625 132.832 82.8377Z" style="fill:var(--sapContent_Illustrative_Color4)"/>
<path fill-rule="evenodd" clip-rule="evenodd" d="M134.755 91.8758C134.899 92.551 134.468 93.2149 133.793 93.3586L126.726 94.8628C126.05 95.0065 125.387 94.5756 125.243 93.9004C125.099 93.2252 125.53 92.5613 126.205 92.4176L133.273 90.9134C133.948 90.7697 134.612 91.2005 134.755 91.8758Z" style="fill:var(--sapContent_Illustrative_Color4)"/>
<path fill-rule="evenodd" clip-rule="evenodd" d="M136.679 100.914C136.823 101.589 136.392 102.253 135.717 102.397L128.649 103.901C127.974 104.045 127.31 103.614 127.167 102.939C127.023 102.263 127.454 101.6 128.129 101.456L135.196 99.9517C135.872 99.808 136.536 100.239 136.679 100.914Z" style="fill:var(--sapContent_Illustrative_Color4)"/>
<path fill-rule="evenodd" clip-rule="evenodd" d="M138.602 109.952C138.746 110.627 138.315 111.291 137.64 111.435L130.572 112.939C129.897 113.083 129.233 112.652 129.089 111.977C128.946 111.302 129.377 110.638 130.052 110.494L137.119 108.99C137.794 108.846 138.458 109.277 138.602 109.952Z" style="fill:var(--sapContent_Illustrative_Color4)"/>
<path fill-rule="evenodd" clip-rule="evenodd" d="M140.527 118.99C140.671 119.666 140.24 120.329 139.564 120.473L125.871 123.388C125.195 123.531 124.532 123.1 124.388 122.425C124.244 121.75 124.675 121.086 125.35 120.942L139.044 118.028C139.719 117.884 140.383 118.315 140.527 118.99Z" style="fill:var(--sapContent_Illustrative_Color4)"/>
<path d="M135.169 155.9C135.815 157.324 134.298 158.761 132.91 158.04L103.302 142.642C103.14 142.558 102.993 142.447 102.867 142.314L93.2424 132.156C92.6171 131.496 92.6452 130.454 93.3051 129.829L109.131 114.833C109.791 114.207 110.833 114.235 111.458 114.895L121.083 125.053C121.209 125.186 121.312 125.339 121.387 125.505L135.169 155.9Z" style="fill:var(--sapContent_Illustrative_Color8)"/>
<path fill-rule="evenodd" clip-rule="evenodd" d="M131.872 154.682L119.17 126.668L110.231 117.235L95.6445 131.056L104.583 140.49L131.872 154.682ZM132.91 158.04C134.298 158.761 135.815 157.324 135.169 155.9L121.387 125.505C121.312 125.339 121.209 125.186 121.083 125.053L111.458 114.895C110.833 114.235 109.791 114.207 109.131 114.833L93.3051 129.829C92.6452 130.454 92.6171 131.496 93.2424 132.156L102.867 142.314C102.993 142.447 103.14 142.558 103.302 142.642L132.91 158.04Z" style="fill:var(--sapContent_Illustrative_Color4)"/>
<rect x="5.43848" y="39.4272" width="25.0086" height="24.4276" rx="2.46909" transform="rotate(-43.4571 5.43848 39.4272)" style="fill:var(--sapContent_Illustrative_Color5)"/>
<path d="M21.335 56.2075L39.4884 39.0063L121.194 125.235L114.544 124.602C113.054 124.461 111.782 125.666 111.843 127.162L112.001 131.009C112.063 132.504 110.79 133.709 109.3 133.568L105.468 133.203C103.978 133.061 102.705 134.267 102.767 135.762L103.04 142.436L21.335 56.2075Z" style="fill:var(--sapContent_Illustrative_Color3)"/>
<rect x="16.1396" y="50.7205" width="25.0086" height="7.55724" transform="rotate(-43.4571 16.1396 50.7205)" style="fill:var(--sapContent_Illustrative_Color4)"/>
<path fill-rule="evenodd" clip-rule="evenodd" d="M118.477 150.533L130.798 156.941C132.879 158.023 135.154 155.867 134.186 153.731L128.451 141.082L118.477 150.533Z" style="fill:var(--sapContent_Illustrative_Color4)"/>
</svg>
