<svg width="129" height="129" viewBox="0 0 129 129" fill="none" xmlns="http://www.w3.org/2000/svg" id="tnt-Spot-Secrets-alternate">
<path fill-rule="evenodd" clip-rule="evenodd" d="M59.8687 63.4397V30.3927C59.8687 20.3895 51.7596 12.2804 41.7564 12.2804C31.7533 12.2804 23.6441 20.3895 23.6441 30.3927V63.4397C23.6441 73.4428 31.7533 81.552 41.7564 81.552C51.7596 81.552 59.8687 73.4428 59.8687 63.4397ZM41.7564 2.74756C26.4885 2.74756 14.1113 15.1247 14.1113 30.3927V63.4397C14.1113 78.7076 26.4885 91.0848 41.7564 91.0848C57.0244 91.0848 69.4015 78.7076 69.4015 63.4397V30.3927C69.4015 15.1247 57.0244 2.74756 41.7564 2.74756Z" style="fill:var(--sapContent_Illustrative_Color5)"/>
<path d="M80.8408 85.6828C80.8408 107.269 63.3421 124.767 41.7563 124.767C20.1706 124.767 2.67187 107.269 2.67187 85.6828C2.67187 64.0971 20.1706 46.5984 41.7563 46.5984C63.3421 46.5984 80.8408 64.0971 80.8408 85.6828Z" style="fill:var(--sapContent_Illustrative_Color8)"/>
<path fill-rule="evenodd" clip-rule="evenodd" d="M82.8408 85.6828C82.8408 108.373 64.4466 126.767 41.7563 126.767C19.066 126.767 0.671875 108.373 0.671875 85.6828C0.671875 62.9925 19.066 44.5984 41.7563 44.5984C64.4466 44.5984 82.8408 62.9925 82.8408 85.6828ZM41.7563 124.767C63.3421 124.767 80.8408 107.269 80.8408 85.6828C80.8408 64.0971 63.3421 46.5984 41.7563 46.5984C20.1706 46.5984 2.67187 64.0971 2.67187 85.6828C2.67187 107.269 20.1706 124.767 41.7563 124.767Z" style="fill:var(--sapContent_Illustrative_Color4)"/>
<circle cx="41.7564" cy="85.6827" r="27.6451" style="fill:var(--sapContent_Illustrative_Color6)"/>
<path d="M29.6768 86.7163C29.6768 79.1693 35.7948 73.0513 43.3418 73.0513H113.256C120.803 73.0513 126.921 79.1693 126.921 86.7163C126.921 94.2633 120.803 100.381 113.256 100.381H43.3418C35.7948 100.381 29.6768 94.2633 29.6768 86.7163Z" style="fill:var(--sapContent_Illustrative_Color8)"/>
<path fill-rule="evenodd" clip-rule="evenodd" d="M43.3417 71.0464H113.256C121.91 71.0464 128.926 78.062 128.926 86.7162C128.926 95.3704 121.91 102.386 113.256 102.386H43.3417C34.6875 102.386 27.6719 95.3704 27.6719 86.7162C27.6719 78.062 34.6875 71.0464 43.3417 71.0464ZM43.3417 73.0512C35.7947 73.0512 29.6766 79.1692 29.6766 86.7162C29.6766 94.2632 35.7947 100.381 43.3417 100.381H113.256C120.803 100.381 126.921 94.2632 126.921 86.7162C126.921 79.1692 120.803 73.0512 113.256 73.0512H43.3417Z" style="fill:var(--sapContent_Illustrative_Color4)"/>
<path d="M57.3977 85.3799L56.8733 83.8378C56.7256 83.4044 56.2474 83.1831 55.8219 83.3477L55.8216 83.3478L55.8212 83.348L51.9613 84.8517C51.8565 84.8926 51.7446 84.8127 51.7493 84.7004L51.9294 80.3346C51.9482 79.8781 51.5831 79.4993 51.1278 79.4989L49.5621 79.4979L49.5619 79.4979C49.1083 79.4976 48.7433 79.8723 48.7588 80.327L48.7589 80.3275L48.904 84.7297C48.9077 84.8422 48.7941 84.9216 48.6901 84.8795L44.799 83.3114C44.799 83.3114 44.7988 83.3112 44.7986 83.3113C44.3696 83.1379 43.8846 83.3623 43.737 83.7993L43.7368 83.7994L43.2071 85.3741C43.0591 85.8152 43.3153 86.2895 43.7658 86.4071L47.8849 87.4832L47.8851 87.4832C47.9929 87.5117 48.0368 87.6403 47.9698 87.7282L47.9696 87.7283L45.1556 91.4352L45.1555 91.4353C44.8667 91.8154 44.9715 92.3612 45.3789 92.6077L45.379 92.6077L46.7708 93.4519L46.771 93.4519L46.7712 93.452C47.1498 93.6811 47.6436 93.5609 47.8734 93.1816L47.8734 93.1812L50.151 89.4269C50.2121 89.3259 50.3595 89.3273 50.4191 89.4291L52.6109 93.205L52.6111 93.205L52.6112 93.2053C52.8365 93.5927 53.3354 93.7208 53.7196 93.4892L53.7198 93.4892L55.1108 92.6498C55.1108 92.6498 55.1109 92.6496 55.1111 92.6496C55.5165 92.4053 55.6225 91.8651 55.3416 91.4854L55.3415 91.4851L52.5699 87.7339C52.5046 87.6452 52.5495 87.5179 52.6568 87.4902L52.6569 87.4901L56.8368 86.4158L56.8372 86.4158C57.2902 86.2997 57.5482 85.8228 57.3979 85.3798L57.3977 85.3799Z" style="fill:var(--sapContent_Illustrative_Color3)"/>
<path d="M75.926 85.3799L75.4016 83.8378C75.2539 83.4044 74.7757 83.1831 74.3503 83.3477L74.3499 83.3478L74.3496 83.348L70.4896 84.8517C70.3848 84.8926 70.2729 84.8127 70.2776 84.7004L70.4577 80.3346C70.4765 79.8781 70.1114 79.4993 69.6561 79.4989L68.0904 79.4979L68.0902 79.4979C67.6366 79.4976 67.2717 79.8723 67.2871 80.327L67.2872 80.3275L67.4323 84.7297C67.436 84.8422 67.3224 84.9216 67.2185 84.8795L63.3273 83.3114C63.3273 83.3114 63.3271 83.3112 63.3269 83.3113C62.8979 83.1379 62.4129 83.3623 62.2653 83.7993L62.2652 83.7994L61.7354 85.3741C61.5874 85.8152 61.8436 86.2895 62.2941 86.4071L66.4132 87.4832L66.4134 87.4832C66.5212 87.5117 66.5651 87.6403 66.4981 87.7282L66.4979 87.7283L63.684 91.4352L63.6838 91.4353C63.395 91.8154 63.4998 92.3612 63.9072 92.6077L63.9074 92.6077L65.2991 93.4519L65.2993 93.4519L65.2995 93.452C65.6781 93.6811 66.1719 93.5609 66.4018 93.1816L66.4017 93.1812L68.6793 89.4269C68.7404 89.3259 68.8878 89.3273 68.9474 89.4291L71.1392 93.205L71.1394 93.205L71.1395 93.2053C71.3648 93.5927 71.8637 93.7208 72.2479 93.4892L72.2481 93.4892L73.6391 92.6498C73.6391 92.6498 73.6393 92.6496 73.6394 92.6496C74.0448 92.4053 74.1508 91.8651 73.8699 91.4854L73.8699 91.4851L71.0982 87.7339C71.0329 87.6452 71.0778 87.5179 71.1851 87.4902L71.1853 87.4901L75.3651 86.4158L75.3655 86.4158C75.8185 86.2997 76.0766 85.8228 75.9262 85.3798L75.926 85.3799Z" style="fill:var(--sapContent_Illustrative_Color3)"/>
<path d="M94.467 85.3799L93.9426 83.8378C93.7949 83.4044 93.3167 83.1831 92.8913 83.3477L92.8909 83.3478L92.8906 83.348L89.0306 84.8517C88.9258 84.8926 88.8139 84.8127 88.8186 84.7004L88.9987 80.3346C89.0176 79.8781 88.6525 79.4993 88.1971 79.4989L86.6314 79.4979L86.6313 79.4979C86.1776 79.4976 85.8127 79.8723 85.8282 80.327L85.8283 80.3275L85.9733 84.7297C85.9771 84.8422 85.8634 84.9216 85.7595 84.8795L81.8684 83.3114C81.8684 83.3114 81.8681 83.3112 81.868 83.3113C81.439 83.1379 80.9539 83.3623 80.8064 83.7993L80.8062 83.7994L80.2765 85.3741C80.1285 85.8152 80.3847 86.2895 80.8351 86.4071L84.9542 87.4832L84.9544 87.4832C85.0622 87.5117 85.1061 87.6403 85.0391 87.7282L85.0389 87.7283L82.225 91.4352L82.2248 91.4353C81.936 91.8154 82.0408 92.3612 82.4482 92.6077L82.4484 92.6077L83.8401 93.4519L83.8403 93.4519L83.8405 93.452C84.2191 93.6811 84.7129 93.5609 84.9428 93.1816L84.9427 93.1812L87.2203 89.4269C87.2814 89.3259 87.4289 89.3273 87.4885 89.4291L89.6802 93.205L89.6804 93.205L89.6805 93.2053C89.9058 93.5927 90.4047 93.7208 90.7889 93.4892L90.7891 93.4892L92.1801 92.6498C92.1801 92.6498 92.1803 92.6496 92.1805 92.6496C92.5858 92.4053 92.6919 91.8651 92.4109 91.4854L92.4109 91.4851L89.6392 87.7339C89.5739 87.6452 89.6188 87.5179 89.7261 87.4902L89.7263 87.4901L93.9061 86.4158L93.9065 86.4158C94.3595 86.2997 94.6176 85.8228 94.4672 85.3798L94.467 85.3799Z" style="fill:var(--sapContent_Illustrative_Color3)"/>
<path d="M113.009 85.3799L112.485 83.8378C112.337 83.4044 111.859 83.1831 111.433 83.3477L111.433 83.3478L111.433 83.348L107.573 84.8517C107.468 84.8926 107.356 84.8127 107.361 84.7004L107.541 80.3346C107.56 79.8781 107.194 79.4993 106.739 79.4989L105.173 79.4979L105.173 79.4979C104.72 79.4976 104.355 79.8723 104.37 80.327L104.37 80.3275L104.515 84.7297C104.519 84.8422 104.405 84.9216 104.301 84.8795L100.41 83.3114C100.41 83.3114 100.41 83.3112 100.41 83.3113C99.9809 83.1379 99.4959 83.3623 99.3484 83.7993L99.3482 83.7994L98.8184 85.3741C98.6704 85.8152 98.9266 86.2895 99.3771 86.4071L103.496 87.4832L103.496 87.4832C103.604 87.5117 103.648 87.6403 103.581 87.7282L103.581 87.7283L100.767 91.4352L100.767 91.4353C100.478 91.8154 100.583 92.3612 100.99 92.6077L100.99 92.6077L102.382 93.4519L102.382 93.4519L102.382 93.452C102.761 93.6811 103.255 93.5609 103.485 93.1816L103.485 93.1812L105.762 89.4269C105.823 89.3259 105.971 89.3273 106.03 89.4291L108.222 93.205L108.222 93.205L108.222 93.2053C108.448 93.5927 108.947 93.7208 109.331 93.4892L109.331 93.4892L110.722 92.6498C110.722 92.6498 110.722 92.6496 110.722 92.6496C111.128 92.4053 111.234 91.8651 110.953 91.4854L110.953 91.4851L108.181 87.7339C108.116 87.6452 108.161 87.5179 108.268 87.4902L108.268 87.4901L112.448 86.4158L112.448 86.4158C112.901 86.2997 113.16 85.8228 113.009 85.3798L113.009 85.3799Z" style="fill:var(--sapContent_Illustrative_Color3)"/>
</svg>
