<svg width="160" height="161" viewBox="0 0 160 161" fill="none" xmlns="http://www.w3.org/2000/svg" id="tnt-Dialog-Fingerprint-alternate">
<path fill-rule="evenodd" clip-rule="evenodd" d="M2.14673 33.04C2.14673 26.9564 7.07846 22.0247 13.1621 22.0247H21.9341C23.3148 22.0247 24.4341 23.1439 24.4341 24.5247C24.4341 25.9054 23.3148 27.0247 21.9341 27.0247H13.1621C9.83988 27.0247 7.14673 29.7178 7.14673 33.04V41.812C7.14673 43.1928 6.02744 44.312 4.64673 44.312C3.26602 44.312 2.14673 43.1928 2.14673 41.812V33.04Z" style="fill:var(--sapContent_Illustrative_Color13)"/>
<path fill-rule="evenodd" clip-rule="evenodd" d="M2.14673 123.662C2.14673 129.746 7.07846 134.677 13.1621 134.677H21.9341C23.3148 134.677 24.4341 133.558 24.4341 132.177C24.4341 130.797 23.3148 129.677 21.9341 129.677H13.1621C9.83988 129.677 7.14673 126.984 7.14673 123.662V114.89C7.14673 113.509 6.02744 112.39 4.64673 112.39C3.26602 112.39 2.14673 113.509 2.14673 114.89V123.662Z" style="fill:var(--sapContent_Illustrative_Color13)"/>
<path fill-rule="evenodd" clip-rule="evenodd" d="M157.853 33.04C157.853 26.9564 152.921 22.0247 146.838 22.0247H138.066C136.685 22.0247 135.566 23.1439 135.566 24.5247C135.566 25.9054 136.685 27.0247 138.066 27.0247H146.838C150.16 27.0247 152.853 29.7178 152.853 33.04V41.812C152.853 43.1928 153.972 44.312 155.353 44.312C156.734 44.312 157.853 43.1928 157.853 41.812V33.04Z" style="fill:var(--sapContent_Illustrative_Color13)"/>
<path fill-rule="evenodd" clip-rule="evenodd" d="M157.853 123.662C157.853 129.746 152.921 134.677 146.838 134.677H138.066C136.685 134.677 135.566 133.558 135.566 132.177C135.566 130.797 136.685 129.677 138.066 129.677H146.838C150.16 129.677 152.853 126.984 152.853 123.662V114.89C152.853 113.509 153.972 112.39 155.353 112.39C156.734 112.39 157.853 113.509 157.853 114.89V123.662Z" style="fill:var(--sapContent_Illustrative_Color13)"/>
<circle cx="74.2915" cy="81.9187" r="56.4583" style="fill:var(--sapContent_Illustrative_Color6)"/>
<path d="M136.458 78.3511C136.458 109.532 111.181 134.809 79.9998 134.809C48.8187 134.809 23.5415 109.532 23.5415 78.3511C23.5415 47.17 48.8187 21.8928 79.9998 21.8928C111.181 21.8928 136.458 47.17 136.458 78.3511Z" style="fill:var(--sapContent_Illustrative_Color8)"/>
<path fill-rule="evenodd" clip-rule="evenodd" d="M79.9998 132.309C109.8 132.309 133.958 108.151 133.958 78.3511C133.958 48.5508 109.8 24.3928 79.9998 24.3928C50.1994 24.3928 26.0415 48.5508 26.0415 78.3511C26.0415 108.151 50.1994 132.309 79.9998 132.309ZM79.9998 134.809C111.181 134.809 136.458 109.532 136.458 78.3511C136.458 47.17 111.181 21.8928 79.9998 21.8928C48.8187 21.8928 23.5415 47.17 23.5415 78.3511C23.5415 109.532 48.8187 134.809 79.9998 134.809Z" style="fill:var(--sapContent_Illustrative_Color4)"/>
<path fill-rule="evenodd" clip-rule="evenodd" d="M79.9465 44.2039C89.1363 44.2039 97.7377 47.8273 104.156 54.4008H104.155C104.751 55.0135 104.742 55.9888 104.132 56.5834C103.83 56.8776 103.454 57.0232 103.052 57.0232C102.65 57.0232 102.25 56.8655 101.95 56.5591C96.1133 50.5817 88.2991 47.2904 79.945 47.2904C75.451 47.2904 71.1222 48.2383 67.0802 50.1039C66.3066 50.4573 65.392 50.1267 65.0326 49.3486C64.6792 48.5766 65.0144 47.659 65.7864 47.301C70.238 45.2474 75.0035 44.2039 79.9465 44.2039ZM102.626 68.8358C98.8618 59.561 89.9586 53.5684 79.9482 53.5684C75.304 53.5684 71.2589 54.6665 67.8584 56.8688C64.4579 59.0696 61.7324 62.3533 59.6924 66.6714C59.3253 67.4449 59.6605 68.3641 60.4265 68.7266H60.428C61.1939 69.0875 62.1176 68.766 62.4831 67.9909C64.2714 64.2007 66.6329 61.3735 69.5344 59.4912C72.4344 57.6105 75.9062 56.6534 79.9482 56.6534C88.6967 56.6534 96.4744 61.8877 99.7673 69.9945C100.01 70.5997 100.592 70.9577 101.196 70.9577C101.387 70.9577 101.587 70.9213 101.777 70.8439C102.566 70.5224 102.945 69.6229 102.625 68.8342L102.626 68.8358ZM112.967 70.6658C112.972 70.6992 112.975 70.7159 112.978 70.728V70.7341L112.981 70.731C113.504 73.1123 113.785 75.5663 113.785 78.0356C113.785 80.6914 113.648 83.3638 113.389 85.9726C113.387 85.9923 113.386 86.0135 113.384 86.0408V86.0621L113.381 86.0879L113.336 86.5247V86.5277V86.5307C113.246 87.3164 112.582 87.9034 111.804 87.9034C111.746 87.9034 111.69 87.9003 111.632 87.8943H111.631C110.78 87.8018 110.175 87.0358 110.266 86.191L110.301 85.8603L110.314 85.7254C110.568 83.1955 110.698 80.6079 110.698 78.0341C110.698 75.7741 110.451 73.5264 109.967 71.3468H109.958L109.864 70.9494C108.957 67.0939 107.34 63.4947 105.035 60.2474C104.542 59.5528 104.704 58.5912 105.397 58.0982H105.399C106.087 57.6083 107.056 57.763 107.549 58.4638C107.55 58.4644 107.55 58.465 107.55 58.4655C107.551 58.4663 107.551 58.4668 107.551 58.4668C110.14 62.1115 111.954 66.1596 112.94 70.499C112.955 70.5657 112.962 70.6294 112.967 70.6658ZM85.1148 86.1458C84.9389 87.3789 84.7205 88.6013 84.4672 89.8071L84.4687 89.8041C84.317 90.5321 83.6724 91.0281 82.9611 91.0281C82.861 91.0281 82.7548 91.019 82.6456 90.9978H82.6426H82.6395C81.8053 90.8218 81.2714 90.0013 81.4474 89.1686C81.6764 88.0765 81.8705 86.9709 82.0328 85.8515C82.0374 85.8136 82.0435 85.7802 82.048 85.759L82.0509 85.7456L82.0528 85.7357C82.0549 85.7239 82.0556 85.718 82.0556 85.718V85.7135V85.7089C82.4181 83.1851 82.6016 80.6067 82.6016 78.0373C82.6016 76.5752 81.3746 75.3846 79.9458 75.3846C78.5171 75.3846 77.3477 76.5191 77.2946 77.9342L77.295 77.9384L77.295 77.9384C77.2979 77.9718 77.3007 78.0039 77.3007 78.0373V78.0404V78.0434L77.2931 78.8928V78.8958V78.8988C77.2764 79.6815 76.609 80.4914 75.7172 80.408C74.8648 80.3928 74.1914 79.686 74.2065 78.8397L74.2126 78.1572C74.2096 78.1193 74.2065 78.0813 74.2065 78.0404C74.2065 74.875 76.7819 72.2981 79.9473 72.2981C83.1127 72.2981 85.6897 74.875 85.6897 78.0404C85.6897 80.7022 85.497 83.3747 85.13 85.9895V85.9941V85.9986C85.1285 86.0062 85.127 86.0168 85.1239 86.0532C85.1233 86.0572 85.1228 86.0616 85.1222 86.0665L85.1202 86.0873C85.1188 86.1025 85.1173 86.1196 85.1148 86.1367V86.1412V86.1458ZM75.8113 86.4402C76.6333 86.6525 77.1354 87.4882 76.9246 88.3163V88.3148C75.7081 93.091 74.6434 96.2473 73.1191 99.1549C71.5978 102.058 69.6276 104.689 66.6336 108.422C66.3272 108.801 65.8798 108.998 65.4293 108.998C65.0926 108.998 64.7498 108.888 64.4662 108.659H64.4647C63.8019 108.125 63.6972 107.154 64.2281 106.493C67.1553 102.844 68.9906 100.391 70.392 97.7185C71.7904 95.0491 72.7657 92.137 73.9351 87.5565C74.1414 86.7359 74.9695 86.2218 75.8113 86.4402ZM81.6547 94.5746H81.6532H81.6501C80.8402 94.2849 79.9651 94.7248 79.6845 95.521C77.5034 101.738 76.243 104.169 72.5164 109.335C72.0189 110.027 72.1691 110.989 72.8607 111.489H72.8622C73.1383 111.689 73.4538 111.782 73.7662 111.782C74.2394 111.782 74.7157 111.56 75.0175 111.142C78.9049 105.753 80.3306 103.006 82.5981 96.5403C82.8787 95.7395 82.4585 94.8582 81.6547 94.5746ZM63.0991 52.3153C63.8135 51.8481 64.0091 50.8881 63.5435 50.1782C63.0733 49.4608 62.1162 49.2652 61.4049 49.7338C54.0351 54.5722 48.9041 61.948 46.9581 70.5008C46.9414 70.5706 46.9323 70.6373 46.9278 70.6737C46.9246 70.6937 46.9229 70.7072 46.9217 70.7171L46.9202 70.7283V70.7344C46.3939 73.1172 46.1163 75.5697 46.1163 78.0359C46.1163 79.0931 46.0314 80.1563 45.8661 81.1877C45.728 82.031 46.2983 82.8181 47.134 82.9577H47.1386H47.1431C47.2296 82.9728 47.3115 82.9789 47.3919 82.9789C48.1366 82.9789 48.7903 82.439 48.9147 81.6821C49.1058 80.4824 49.2059 79.2584 49.2059 78.0359C49.2059 75.7775 49.4531 73.5267 49.9354 71.3472H49.9415L50.0355 70.9513C51.845 63.2812 56.4695 56.6683 63.1006 52.3138L63.0991 52.3153ZM102.915 76.5519C103.274 76.5534 103.655 76.6672 103.95 76.9235L103.947 76.9205C104.251 77.1844 104.43 77.5712 104.416 78.0368C104.415 80.6562 104.267 83.2877 103.987 85.8646L103.978 85.9617L103.976 85.9818C103.975 85.9913 103.974 86.0018 103.973 86.0148L103.972 86.0276C103.971 86.0461 103.97 86.0674 103.967 86.0906V86.0936V86.0967C103.171 93.204 101.323 100.125 98.4736 106.668C98.2203 107.25 97.6515 107.595 97.06 107.595C96.8522 107.595 96.6444 107.555 96.4412 107.466C95.66 107.125 95.3066 106.216 95.6479 105.435C98.3537 99.2239 100.112 92.655 100.881 85.904L100.884 85.8722L100.886 85.8501L100.888 85.8312L100.937 85.4005H100.938C101.198 82.9707 101.33 80.4939 101.33 78.0368V78.0277V78.0186C101.346 77.5439 101.556 77.1617 101.87 76.9068C102.174 76.6611 102.555 76.5519 102.915 76.5519ZM57.4976 86.1981L57.4976 86.1981L57.5052 86.1639C57.5128 86.1305 57.5219 86.0941 57.5325 86.0532C58.2181 83.4535 58.573 80.7628 58.573 78.0388C58.573 78.0023 58.5702 77.9686 58.5673 77.9337L58.5673 77.9336L58.5669 77.9296C58.5745 76.1899 58.7945 74.4593 59.2146 72.7879C59.4254 71.9628 58.9249 71.1286 58.1043 70.9193H58.0998H58.0952C57.2489 70.6978 56.4268 71.2272 56.2251 72.0371V72.0386C55.7307 73.9922 55.4819 76.0109 55.4819 78.0403C55.4819 78.0797 55.4834 78.1222 55.488 78.1647C55.4774 80.6233 55.1498 83.0561 54.5203 85.404H54.5127L54.4066 85.7786C53.5769 88.6968 52.2998 91.4527 50.5859 93.9629C50.1082 94.6666 50.2887 95.6282 50.9909 96.109C51.2578 96.291 51.5612 96.3775 51.86 96.3775C52.3514 96.3775 52.8368 96.1439 53.1371 95.7041C55.0936 92.8329 56.5497 89.6812 57.4658 86.3368V86.3322C57.4786 86.2843 57.4888 86.2383 57.4976 86.1981ZM93.0497 70.4752L93.1028 70.5586L93.1043 70.5602L93.573 71.3504C94.5239 73.0794 95.0548 74.992 95.0548 78.0406C95.0548 80.6873 94.8834 83.3628 94.5619 85.9913C94.5603 86.0034 94.5588 86.0186 94.5573 86.0474C94.5563 86.0572 94.5554 86.0695 94.5544 86.0822L94.5528 86.1035L94.5512 86.1126V86.1217C93.8763 91.4818 92.5234 96.7449 90.5319 101.758C90.2908 102.363 89.7099 102.73 89.0986 102.73C88.903 102.73 88.7149 102.692 88.5359 102.625L88.5314 102.621H88.5268C87.7351 102.304 87.3483 101.409 87.6638 100.616C89.543 95.8834 90.8231 90.9146 91.4677 85.8533C91.4708 85.826 91.4753 85.8032 91.4784 85.7896C91.4829 85.7737 91.4832 85.7714 91.4837 85.7674L91.4844 85.7623C91.4853 85.7574 91.4862 85.7534 91.487 85.7499L91.4888 85.7423C91.4898 85.738 91.4905 85.7348 91.4905 85.7319C91.809 83.1869 91.9698 80.6009 91.9698 78.0391C91.9698 76.4481 91.809 75.2954 91.5117 74.3368C91.216 73.3813 90.7776 72.5926 90.1876 71.7341C90.1012 71.6097 90.0435 71.4793 90.0041 71.3519C89.835 70.8056 90.0238 70.3342 90.0238 70.3342C90.1209 70.049 90.3029 69.7821 90.5865 69.5879C91.2903 69.1056 92.2504 69.2861 92.7297 69.9868C92.81 70.1036 92.8859 70.2189 92.9587 70.3326L92.9723 70.3539C92.9981 70.3948 93.0239 70.4358 93.0497 70.4752ZM85.8713 105.544C86.1534 104.743 87.0286 104.314 87.8355 104.598L87.837 104.602C88.6409 104.883 89.0671 105.761 88.7834 106.568C88.2116 108.2 87.5716 109.647 86.8253 110.991C86.5432 111.497 86.0154 111.784 85.4755 111.784C85.2176 111.784 84.9643 111.719 84.7338 111.596L84.7292 111.593L84.7247 111.59C83.983 111.174 83.713 110.234 84.1271 109.489C84.7838 108.308 85.3541 107.017 85.8713 105.544ZM88.192 65.3757C85.7395 63.7771 82.888 62.9308 79.9501 62.9308C74.7099 62.9308 69.917 65.5896 67.1338 70.0381C67.0629 70.1545 67.0039 70.2708 66.9556 70.3661L66.9458 70.3855C66.9109 70.4567 66.8805 70.5159 66.8487 70.5735L66.8396 70.5887C66.8335 70.5993 66.8275 70.6099 66.8229 70.6205L66.4164 71.3471H66.4377C65.4078 73.4174 64.8466 75.697 64.8466 78.0358C64.8466 78.0813 64.8496 78.1298 64.8542 78.1814C64.8451 80.6779 64.5827 83.176 64.0776 85.6027C64.0723 85.6247 64.0674 85.6463 64.0625 85.6679C64.0575 85.6896 64.0526 85.7112 64.0473 85.7332C64.0428 85.7499 64.0397 85.765 64.0382 85.7772C64.0364 85.7844 64.0351 85.79 64.0341 85.795C64.0334 85.7983 64.0328 85.8014 64.0321 85.8044L64.0321 85.8045V85.8121L64.0291 85.8196C63.9715 86.1002 63.9093 86.3763 63.8425 86.6523C63.6454 87.4804 64.1535 88.3146 64.9816 88.5149L64.9922 88.5179H65.0028C65.1075 88.5406 65.2228 88.5573 65.3471 88.5573C66.0463 88.5573 66.6743 88.0826 66.8472 87.3773C66.9367 86.9996 67.0201 86.6205 67.1005 86.2367V86.2337C67.1104 86.1864 67.1163 86.1411 67.1206 86.1079L67.1232 86.0881C67.1278 86.0517 67.1308 86.0335 67.1338 86.0183C67.6647 83.4065 67.9438 80.7219 67.9438 78.0373C67.9438 77.9964 67.9407 77.9494 67.9362 77.8993C67.962 75.6894 68.5884 73.5418 69.7547 71.6747C69.8139 71.5791 69.8837 71.4866 69.9686 71.3744C69.9716 71.3706 69.9747 71.3664 69.9777 71.3622C69.9807 71.3581 69.9838 71.3539 69.9868 71.3501H69.9929L70.146 71.1317C72.406 67.9253 76.0112 66.0188 79.9532 66.0188C82.2905 66.0188 84.558 66.6922 86.5069 67.9632V67.9648C87.2213 68.4243 88.1753 68.2287 88.641 67.5128C89.1066 66.7984 88.9034 65.8414 88.192 65.3772V65.3757ZM64.0452 91.9788C64.7717 92.4232 65.0037 93.3696 64.5654 94.0992L64.5639 94.0961C63.5584 95.7543 62.9596 96.9059 62.4264 97.9315L62.4238 97.9365C61.5608 99.5973 60.8676 100.927 59.0339 103.19C58.729 103.57 58.2831 103.764 57.8342 103.764C57.4975 103.764 57.1501 103.655 56.865 103.421H56.8635L56.862 103.419C56.2022 102.883 56.099 101.912 56.6345 101.252C58.2739 99.2295 58.8286 98.1635 59.6827 96.5217L59.6876 96.5123L59.7211 96.448C60.2637 95.406 60.886 94.211 61.9248 92.4975C62.3692 91.768 63.3156 91.542 64.0421 91.9758L64.0436 91.9788H64.0452Z" style="fill:var(--sapContent_Illustrative_Color4)"/>
<path fill-rule="evenodd" clip-rule="evenodd" d="M101.298 80.1121H104.385C104.328 82.0414 104.193 83.9678 103.987 85.8646L103.978 85.9616L103.976 85.9817C103.975 85.9912 103.974 86.0017 103.973 86.0147L103.972 86.0275C103.971 86.046 103.97 86.0673 103.967 86.0906V86.0936V86.0966C103.171 93.204 101.323 100.125 98.4736 106.668C98.2203 107.25 97.6515 107.595 97.06 107.595C96.8522 107.595 96.6444 107.555 96.4412 107.466C95.66 107.124 95.3066 106.216 95.6479 105.435C98.3537 99.2239 100.112 92.6549 100.881 85.904L100.884 85.8721L100.886 85.8501L100.888 85.8312L100.937 85.4004H100.938C101.125 83.6537 101.245 81.8826 101.298 80.1121ZM55.4131 80.1121H58.5044C58.3708 82.1271 58.0435 84.1154 57.5325 86.0531C57.5219 86.094 57.5128 86.1304 57.5052 86.1638L57.4976 86.198L57.4976 86.1981C57.4888 86.2382 57.4786 86.2843 57.4658 86.3322V86.3367C56.5497 89.6811 55.0936 92.8328 53.1371 95.704C52.8368 96.1439 52.3514 96.3774 51.86 96.3774C51.5612 96.3774 51.2578 96.291 50.9909 96.109C50.2887 95.6282 50.1082 94.6666 50.5859 93.9628C52.2998 91.4526 53.5769 88.6967 54.4066 85.7786L54.5127 85.4039H54.5203C54.983 83.678 55.2826 81.9063 55.4131 80.1121ZM113.757 80.1121C113.705 82.0787 113.58 84.043 113.389 85.9725C113.387 85.9923 113.386 86.0135 113.384 86.0408V86.062L113.381 86.0878L113.336 86.5246V86.5277V86.5307C113.246 87.3164 112.582 87.9033 111.804 87.9033C111.746 87.9033 111.69 87.9003 111.632 87.8942H111.631C110.78 87.8017 110.175 87.0358 110.266 86.1909L110.301 85.8603L110.314 85.7253C110.499 83.8757 110.619 81.9954 110.67 80.1121H113.757ZM46.0081 80.1121H49.111C49.0631 80.6385 48.9974 81.1626 48.9147 81.6821C48.7903 82.4389 48.1366 82.9789 47.3919 82.9789C47.3115 82.9789 47.2296 82.9728 47.1431 82.9576H47.1386H47.134C46.2983 82.8181 45.728 82.0309 45.8661 81.1876C45.923 80.8323 45.9704 80.4733 46.0081 80.1121ZM64.7968 80.1121H67.8886C67.7832 82.1011 67.5278 84.0797 67.1338 86.0183C67.1308 86.0334 67.1278 86.0516 67.1232 86.088L67.1206 86.1079C67.1163 86.1411 67.1104 86.1863 67.1005 86.2336V86.2367C67.0201 86.6204 66.9367 86.9996 66.8472 87.3773C66.6743 88.0825 66.0463 88.5573 65.3471 88.5573C65.2228 88.5573 65.1075 88.5406 65.0028 88.5178H64.9922L64.9816 88.5148C64.1535 88.3146 63.6454 87.4804 63.8425 86.6523C63.9093 86.3762 63.9715 86.1002 64.0291 85.8196L64.0321 85.812V85.8044L64.0321 85.8043L64.0341 85.7949C64.0344 85.7932 64.0349 85.7913 64.0353 85.7893C64.0361 85.7857 64.037 85.7817 64.0382 85.7771C64.0397 85.765 64.0428 85.7498 64.0473 85.7331C64.0526 85.7111 64.0575 85.6895 64.0625 85.6679C64.0674 85.6463 64.0723 85.6247 64.0776 85.6027C64.4524 83.8018 64.6936 81.9617 64.7968 80.1121ZM74.8382 80.1121H76.6861C76.423 80.3218 76.0897 80.4428 75.7172 80.4079C75.3876 80.4021 75.0848 80.2928 74.8382 80.1121ZM82.5618 80.1121H85.6511C85.578 82.0843 85.4019 84.0527 85.13 85.9895V85.994V85.9986C85.1285 86.0062 85.127 86.0168 85.1239 86.0532C85.1233 86.0571 85.1228 86.0616 85.1222 86.0664L85.1202 86.0873C85.1188 86.1025 85.1173 86.1195 85.1148 86.1366V86.1412V86.1457C84.9389 87.3788 84.7205 88.6013 84.4672 89.8071L84.4687 89.804C84.317 90.5321 83.6724 91.028 82.9611 91.028C82.861 91.028 82.7548 91.0189 82.6456 90.9977H82.6426H82.6395C81.8053 90.8218 81.2714 90.0012 81.4474 89.1685C81.6764 88.0765 81.8705 86.9708 82.0328 85.8515C82.0374 85.8135 82.0435 85.7802 82.048 85.7589L82.0509 85.7455L82.0528 85.7357C82.0549 85.7239 82.0556 85.718 82.0556 85.718V85.7134V85.7089C82.3205 83.8642 82.4899 81.9903 82.5618 80.1121ZM91.9349 80.1121H95.0203C94.9554 82.0771 94.7997 84.047 94.5619 85.9913C94.5603 86.0034 94.5588 86.0186 94.5573 86.0474C94.5563 86.0571 94.5554 86.0694 94.5544 86.0822L94.5528 86.1035L94.5512 86.1126V86.1217C93.8763 91.4818 92.5234 96.7448 90.5319 101.758C90.2908 102.363 89.7099 102.73 89.0986 102.73C88.903 102.73 88.7149 102.692 88.5359 102.625L88.5314 102.621H88.5268C87.7351 102.304 87.3483 101.409 87.6638 100.616C89.543 95.8833 90.8231 90.9145 91.4677 85.8532C91.4708 85.8259 91.4753 85.8032 91.4784 85.7895C91.4829 85.7736 91.4832 85.7713 91.4837 85.7674L91.4844 85.7622C91.4848 85.7601 91.4852 85.7581 91.4856 85.7562C91.4861 85.7539 91.4865 85.7518 91.487 85.7498L91.4888 85.7423C91.4898 85.738 91.4905 85.7348 91.4905 85.7319C91.7233 83.872 91.8718 81.9902 91.9349 80.1121ZM76.9246 88.3163C77.1354 87.4882 76.6333 86.6525 75.8113 86.4401C74.9695 86.2217 74.1414 86.7359 73.9351 87.5564C72.7657 92.1369 71.7904 95.049 70.392 97.7185C68.9906 100.391 67.1553 102.843 64.2281 106.493C63.6972 107.154 63.8019 108.125 64.4647 108.659H64.4662C64.7498 108.888 65.0926 108.998 65.4293 108.998C65.8798 108.998 66.3272 108.801 66.6336 108.422C69.6276 104.689 71.5978 102.058 73.1191 99.1548C74.6434 96.2472 75.7081 93.0909 76.9246 88.3148V88.3163ZM81.6532 94.5746H81.6547C82.4585 94.8582 82.8787 95.7394 82.5981 96.5402C80.3306 103.006 78.9049 105.753 75.0175 111.142C74.7157 111.56 74.2394 111.782 73.7662 111.782C73.4538 111.782 73.1383 111.689 72.8622 111.489H72.8607C72.1691 110.989 72.0189 110.027 72.5164 109.335C76.243 104.169 77.5034 101.738 79.6845 95.521C79.9651 94.7247 80.8402 94.2849 81.6501 94.5746H81.6532ZM87.8355 104.598C87.0286 104.314 86.1534 104.743 85.8713 105.544C85.3541 107.017 84.7838 108.308 84.1271 109.489C83.713 110.234 83.983 111.174 84.7247 111.59L84.7292 111.593L84.7338 111.596C84.9643 111.719 85.2176 111.784 85.4755 111.784C86.0154 111.784 86.5432 111.497 86.8253 110.991C87.5716 109.647 88.2116 108.2 88.7834 106.568C89.0671 105.761 88.6409 104.883 87.837 104.602L87.8355 104.598ZM64.5654 94.0991C65.0037 93.3696 64.7717 92.4231 64.0452 91.9787H64.0436L64.0421 91.9757C63.3156 91.5419 62.3692 91.7679 61.9248 92.4975C60.886 94.2109 60.2637 95.406 59.7211 96.4479L59.7211 96.448L59.6876 96.5122L59.6827 96.5216C58.8286 98.1634 58.2739 99.2295 56.6345 101.252C56.099 101.912 56.2022 102.882 56.862 103.419L56.8635 103.421H56.865C57.1501 103.654 57.4975 103.764 57.8342 103.764C58.2831 103.764 58.729 103.57 59.0339 103.19C60.8676 100.927 61.5608 99.5972 62.4238 97.9364L62.4264 97.9314L62.4264 97.9314C62.9596 96.9058 63.5584 95.7542 64.5639 94.0961L64.5654 94.0991Z" style="fill:var(--sapContent_Illustrative_Color15)"/>
<rect x="37.0601" y="77.8408" width="85.8794" height="4.98591" rx="2.49295" style="fill:var(--sapContent_Illustrative_Color3)"/>
</svg>
