<svg width="128" height="129" viewBox="0 0 128 129" fill="none" xmlns="http://www.w3.org/2000/svg" id="tnt-Spot-NoUsers-alternate">
<path d="M23.2432 79.9772C23.2432 65.3239 29.4606 52.1228 39.4013 42.8681L36.473 36.0899C35.3959 33.5968 37.2238 30.8159 39.9397 30.8159H107.929C110.645 30.8159 112.473 33.5968 111.396 36.0899L108.467 42.8681C118.408 52.1228 124.626 65.3239 124.626 79.9772C124.626 99.0728 114.067 115.702 98.4694 124.346C97.7697 124.613 97.0667 124.869 96.3607 125.113H51.508C50.8021 124.869 50.0991 124.613 49.3994 124.346C33.8018 115.702 23.2432 99.0728 23.2432 79.9772Z" style="fill:var(--sapContent_Illustrative_Color8)"/>
<path fill-rule="evenodd" clip-rule="evenodd" d="M99.3153 126.164L99.1835 126.214C98.4634 126.489 97.74 126.752 97.0135 127.003L96.6963 127.113H51.1725L50.8553 127.003C50.1288 126.752 49.4054 126.489 48.6853 126.214L48.5535 126.164L48.43 126.095C32.2222 117.113 21.2432 99.8289 21.2432 79.9772C21.2432 65.256 27.2826 51.9425 37.0137 42.3843L34.637 36.8831C32.9895 33.0696 35.7855 28.8159 39.9397 28.8159H107.929C112.083 28.8159 114.879 33.0696 113.232 36.8831L110.855 42.3843C120.586 51.9425 126.626 65.256 126.626 79.9772C126.626 99.8289 115.647 117.113 99.4388 126.095L99.3153 126.164ZM108.467 42.8681L111.396 36.0899C112.473 33.5968 110.645 30.8159 107.929 30.8159H39.9397C37.2238 30.8159 35.3959 33.5968 36.473 36.0899L39.4013 42.8681C29.4606 52.1228 23.2432 65.3239 23.2432 79.9772C23.2432 99.0728 33.8018 115.702 49.3994 124.346C50.0991 124.613 50.8021 124.869 51.508 125.113H96.3608C97.0667 124.869 97.7697 124.613 98.4694 124.346C114.067 115.702 124.626 99.0728 124.626 79.9772C124.626 65.3239 118.408 52.1228 108.467 42.8681Z" style="fill:var(--sapContent_Illustrative_Color4)"/>
<path fill-rule="evenodd" clip-rule="evenodd" d="M53.5573 42.4727C54.1874 43.38 53.9626 44.6262 53.0554 45.2562C43.3955 51.9643 39.633 60.7441 38.9721 63.999C38.7523 65.0815 37.6966 65.7808 36.6141 65.561C35.5316 65.3412 34.8323 64.2855 35.0521 63.203C35.9102 58.9771 40.2354 49.2888 50.7738 41.9707C51.6811 41.3407 52.9273 41.5654 53.5573 42.4727Z" style="fill:var(--sapContent_Illustrative_Color6)"/>
<path fill-rule="evenodd" clip-rule="evenodd" d="M29.6039 71.0145C42.7978 75.8458 58.3254 74.5465 78.0734 66.9044C92.1202 61.4686 105.304 61.8239 116.315 64.3564C118.205 69.3444 119.239 74.753 119.239 80.4032C119.239 97.4696 109.802 112.332 95.8622 120.057C95.2895 120.276 94.7143 120.486 94.1369 120.687C94.0315 120.724 93.9207 120.742 93.8092 120.742H54.0597C53.9481 120.742 53.8373 120.724 53.732 120.687C53.1546 120.486 52.5794 120.276 52.0066 120.057C38.0665 112.332 28.6299 97.4696 28.6299 80.4032C28.6299 77.1842 28.9656 74.0436 29.6039 71.0145Z" style="fill:var(--sapContent_Illustrative_Color19)"/>
<path fill-rule="evenodd" clip-rule="evenodd" d="M94.7687 120.463C94.558 120.539 94.3471 120.614 94.1359 120.687C94.0416 120.72 93.9429 120.738 93.8432 120.742H73.3818V97.1482H94.7687V120.463Z" style="fill:var(--sapContent_Illustrative_Color2)"/>
<path fill-rule="evenodd" clip-rule="evenodd" d="M98.7764 85.2014V97.146H69.374V85.2014H73.8515V88.1753H77.886V85.2014H82.0537V88.1753H86.096V85.2014H90.2651V88.1753H94.2988V85.2014H98.7764Z" style="fill:var(--sapContent_Illustrative_Color2)"/>
<path fill-rule="evenodd" clip-rule="evenodd" d="M84.0994 107.201C81.1997 107.201 78.8477 109.552 78.8477 112.452V120.742H89.3505V112.452C89.3505 109.552 86.9992 107.201 84.0994 107.201Z" style="fill:var(--sapContent_Illustrative_Color4)"/>
<path fill-rule="evenodd" clip-rule="evenodd" d="M73.3818 97.1455H94.7687V98.6076H75.2281L73.3818 97.1455Z" style="fill:var(--sapContent_Illustrative_Color4)"/>
<path fill-rule="evenodd" clip-rule="evenodd" d="M53.9316 120.734C53.8634 120.726 53.7962 120.71 53.731 120.687C53.1536 120.486 52.5784 120.276 52.0057 120.057C51.4209 119.733 50.8441 119.396 50.2756 119.048C50.6109 117.592 50.7287 113.062 47.1885 107.047C43.0375 99.994 41.8876 93.2328 41.8517 90.5213C41.8371 89.4169 42.7206 88.5097 43.8251 88.4951C44.9296 88.4804 45.8368 89.3639 45.8514 90.4684C45.8781 92.4895 46.8402 98.5689 50.6358 105.018C54.8256 112.137 54.8222 118.038 54.0164 120.517C53.992 120.592 53.9636 120.664 53.9316 120.734ZM62.571 120.742H58.7396C58.6483 120.439 58.6278 120.11 58.6937 119.778C59.4464 115.982 58.5254 112.794 57.1536 109.567C56.8093 108.758 56.4433 107.96 56.0678 107.142L56.0647 107.135C55.6922 106.323 55.3094 105.489 54.9554 104.651C54.2489 102.979 53.6132 101.193 53.3408 99.2906C53.1843 98.1972 53.9438 97.1839 55.0372 97.0274C56.1307 96.8708 57.1439 97.6303 57.3005 98.7238C57.5015 100.128 57.9863 101.547 58.6401 103.094C58.9663 103.867 59.3235 104.646 59.7002 105.467L59.7139 105.497L59.714 105.497L59.7141 105.497C59.9263 105.959 60.1444 106.435 60.3612 106.919C62.9253 104.533 63.444 101.953 63.4373 101.221C63.4271 100.116 64.3143 99.2127 65.4188 99.2026C66.5233 99.1924 67.427 100.08 67.4371 101.184C67.4556 103.19 66.3079 107.296 62.2212 110.597C62.1196 110.68 62.0125 110.75 61.9013 110.809C62.8305 113.656 63.3495 116.864 62.6172 120.556C62.6046 120.619 62.5892 120.682 62.571 120.742Z" style="fill:var(--sapContent_Illustrative_Color4)"/>
<circle cx="51.1421" cy="82.0083" r="1.98686" style="fill:var(--sapContent_Illustrative_Color8)"/>
<circle cx="111.239" cy="81.6874" r="2.30755" style="fill:var(--sapContent_Illustrative_Color8)"/>
<circle cx="93.9003" cy="73.2819" r="1.45108" style="fill:var(--sapContent_Illustrative_Color8)"/>
<circle cx="35.5282" cy="88.6193" r="1.45108" style="fill:var(--sapContent_Illustrative_Color8)"/>
<path d="M25.178 2.7301C24.9839 2.95734 24.8546 3.23271 24.8038 3.52724C24.7529 3.82176 24.7824 4.12454 24.8891 4.40372L27.2544 11.1102C27.645 12.2196 28.7719 12.4933 29.6413 12.1869C30.0017 12.0745 30.3159 11.8481 30.5366 11.5418C30.7573 11.2355 30.8727 10.8658 30.8653 10.4883C30.8563 10.3061 30.8198 10.1262 30.7569 9.95485L28.3917 3.24837C28.294 2.95201 28.1179 2.68758 27.8823 2.48306C27.6466 2.27855 27.36 2.14155 27.0528 2.08658C26.7114 2.02531 26.36 2.05225 26.0318 2.16487C25.7037 2.27749 25.4098 2.47205 25.178 2.7301Z" style="fill:var(--sapContent_Illustrative_Color5)"/>
<path d="M2.02901 33.6648C1.99486 33.876 2.00511 34.0919 2.05911 34.2989C2.11311 34.5059 2.20966 34.6993 2.34261 34.8669C2.47557 35.0344 2.64199 35.1724 2.83127 35.2721C3.02054 35.3717 3.22851 35.4307 3.44188 35.4455L10.3233 36.2383C10.5709 36.2659 10.8214 36.244 11.0604 36.1738C11.2993 36.1035 11.5219 35.9864 11.7151 35.8292C11.9082 35.672 12.0682 35.4778 12.1855 35.2581C12.3028 35.0384 12.3752 34.7976 12.3985 34.5496C12.4109 34.4476 12.4149 34.3447 12.4105 34.2421C12.3998 33.8626 12.2473 33.5008 11.983 33.2282C11.7188 32.9556 11.362 32.7919 10.9831 32.7693L4.10453 31.9786C3.85711 31.9505 3.60657 31.9721 3.36758 32.042C3.12859 32.1119 2.90595 32.2288 2.71268 32.3858C2.51941 32.5428 2.3594 32.7368 2.24201 32.9564C2.12462 33.176 2.0522 33.4169 2.02901 33.6648Z" style="fill:var(--sapContent_Illustrative_Color5)"/>
<path d="M8.03625 15.1841C8.06027 15.4165 8.13144 15.6416 8.24543 15.8456C8.35941 16.0496 8.5138 16.2282 8.69916 16.3705L16.9497 22.8373C17.3214 23.1253 17.79 23.2584 18.2575 23.2089C18.725 23.1593 19.1553 22.931 19.4583 22.5715C19.7381 22.237 19.8818 21.8096 19.8612 21.374C19.8489 21.1229 19.7826 20.8775 19.6668 20.6544C19.5511 20.4312 19.3886 20.2357 19.1905 20.0811L10.9399 13.6143C10.5664 13.3244 10.0951 13.1907 9.62505 13.2411C9.155 13.2915 8.72279 13.5222 8.41927 13.8846C8.27121 14.0643 8.16096 14.272 8.09514 14.4953C8.02932 14.7186 8.00929 14.9529 8.03625 15.1841Z" style="fill:var(--sapContent_Illustrative_Color5)"/>
</svg>
