<svg width="320" height="240" viewBox="0 0 320 240" fill="none" xmlns="http://www.w3.org/2000/svg" id="tnt-Scene-ChartBPMNFlow-alternate">
<path d="M130.353 144.456H33.9438C26.3845 144.456 19.1348 147.459 13.7895 152.804C8.44429 158.15 5.44141 165.399 5.44141 172.959C5.44141 180.518 8.44429 187.768 13.7895 193.113C19.1348 198.458 26.3845 201.461 33.9438 201.461H130.393C137.952 201.461 145.202 198.458 150.547 193.113C155.892 187.768 158.895 180.518 158.895 172.959C158.895 165.399 155.892 158.15 150.547 152.804C145.202 147.459 137.952 144.456 130.393 144.456H130.353Z" style="fill:var(--sapContent_Illustrative_Color7)"/>
<path d="M165.474 172.749H69.0149C61.5493 172.889 54.4366 175.953 49.2063 181.282C43.9761 186.611 41.0459 193.779 41.0459 201.246C41.0459 208.713 43.9761 215.882 49.2063 221.211C54.4366 226.54 61.5493 229.604 69.0149 229.744H165.474C172.939 229.604 180.052 226.54 185.282 221.211C190.513 215.882 193.443 208.713 193.443 201.246C193.443 193.779 190.513 186.611 185.282 181.282C180.052 175.953 172.939 172.889 165.474 172.749V172.749Z" style="fill:var(--sapContent_Illustrative_Color7)"/>
<path d="M290.964 93.9306H194.515C190.728 93.8597 186.965 94.5444 183.445 95.9447C179.926 97.345 176.721 99.4328 174.017 102.086C171.314 104.739 169.166 107.905 167.7 111.397C166.235 114.89 165.479 118.64 165.479 122.428C165.479 126.216 166.235 129.966 167.7 133.458C169.166 136.951 171.314 140.117 174.017 142.77C176.721 145.423 179.926 147.511 183.445 148.911C186.965 150.312 190.728 150.996 194.515 150.925H290.964C294.752 150.996 298.515 150.312 302.034 148.911C305.554 147.511 308.759 145.423 311.463 142.77C314.166 140.117 316.313 136.951 317.779 133.458C319.245 129.966 320 126.216 320 122.428C320 118.64 319.245 114.89 317.779 111.397C316.313 107.905 314.166 104.739 311.463 102.086C308.759 99.4328 305.554 97.345 302.034 95.9447C298.515 94.5444 294.752 93.8597 290.964 93.9306V93.9306Z" style="fill:var(--sapContent_Illustrative_Color7)"/>
<path d="M219.084 41.8974H37.767C27.7505 41.8974 18.1443 45.8764 11.0617 52.9591C3.979 60.0418 0 69.648 0 79.6644V79.6644C0 89.6808 3.979 99.287 11.0617 106.37C18.1443 113.452 27.7505 117.431 37.767 117.431H219.084C229.101 117.431 238.707 113.452 245.789 106.37C252.872 99.287 256.851 89.6808 256.851 79.6644V79.6644C256.851 69.648 252.872 60.0418 245.789 52.9591C238.707 45.8764 229.101 41.8974 219.084 41.8974V41.8974Z" style="fill:var(--sapContent_Illustrative_Color7)"/>
<rect x="36.1851" y="76.2542" width="202.073" height="134.959" rx="12" transform="rotate(-8.29 36.1851 76.2542)" style="fill:var(--sapContent_Illustrative_Color6)"/>
<path d="M46.4057 82.331C45.6094 76.8659 49.3942 71.79 54.8594 70.9937L225.887 46.0739C231.352 45.2776 236.428 49.0624 237.224 54.5276L252.963 162.544C253.759 168.009 249.975 173.085 244.509 173.881L73.4817 198.801C68.0165 199.597 62.9406 195.812 62.1443 190.347L46.4057 82.331Z" style="fill:var(--sapContent_Illustrative_Color8)"/>
<path fill-rule="evenodd" clip-rule="evenodd" d="M54.4267 68.025L225.454 43.1053C232.559 42.0701 239.158 46.9904 240.193 54.095L255.932 162.111C256.967 169.216 252.046 175.815 244.942 176.85L73.914 201.769C66.8094 202.805 60.2107 197.884 59.1755 190.78L43.4369 82.7636C42.4017 75.6589 47.322 69.0602 54.4267 68.025ZM54.8592 70.9937C49.3941 71.79 45.6092 76.8659 46.4055 82.331L62.1441 190.347C62.9404 195.812 68.0163 199.597 73.4815 198.801L244.509 173.881C249.974 173.085 253.759 168.009 252.963 162.544L237.224 54.5276C236.428 49.0624 231.352 45.2776 225.887 46.0739L54.8592 70.9937Z" style="fill:var(--sapContent_Illustrative_Color4)"/>
<path d="M46.4057 82.331C45.6094 76.8659 49.3942 71.79 54.8594 70.9937L225.887 46.0739C231.352 45.2776 236.428 49.0624 237.224 54.5276L239.289 68.6976L48.4704 96.501L46.4057 82.331Z" style="fill:var(--sapContent_Illustrative_Color5)"/>
<circle cx="63.0647" cy="82.4327" r="4.5" transform="rotate(-8.29 63.0647 82.4327)" style="fill:var(--sapContent_Illustrative_Color8)"/>
<circle cx="79.887" cy="79.9816" r="4.5" transform="rotate(-8.29 79.887 79.9816)" style="fill:var(--sapContent_Illustrative_Color8)"/>
<circle cx="96.7092" cy="77.5305" r="4.5" transform="rotate(-8.29 96.7092 77.5305)" style="fill:var(--sapContent_Illustrative_Color8)"/>
<path d="M258.613 26.3833C258.613 25.1945 255.162 24.2429 250.551 24.0267C250.287 19.4216 249.272 15.9974 248.083 16C246.894 16.0026 245.906 19.4532 245.653 24.0821C241.029 24.3984 237.591 25.4317 237.606 26.6232C237.622 27.8147 241.058 28.7663 245.668 28.9798C245.945 33.585 246.947 37.0092 248.133 37.0066C249.32 37.0039 250.314 33.5534 250.567 28.9245C255.191 28.6082 258.626 27.5748 258.613 26.3833Z" style="fill:var(--sapContent_Illustrative_Color3)"/>
<path d="M275.617 47.8971C275.617 47.1309 273.393 46.5176 270.422 46.3783C270.252 43.4106 269.598 41.2039 268.831 41.2056C268.065 41.2073 267.428 43.431 267.265 46.414C264.285 46.6179 262.069 47.2838 262.08 48.0516C262.09 48.8195 264.304 49.4327 267.275 49.5703C267.454 52.5381 268.099 54.7448 268.864 54.7431C269.628 54.7414 270.269 52.5177 270.432 49.5347C273.412 49.3308 275.626 48.6649 275.617 47.8971Z" style="fill:var(--sapContent_Illustrative_Color3)"/>
<rect x="64.0674" y="106.313" width="165.62" height="78.5952" rx="5" transform="rotate(-8.29 64.0674 106.313)" style="fill:var(--sapContent_Illustrative_Color7)"/>
<rect x="72.8774" y="112.704" width="150" height="32" rx="4.63274" transform="rotate(-8.29 72.8774 112.704)" style="fill:var(--sapContent_Illustrative_Color18)"/>
<path fill-rule="evenodd" clip-rule="evenodd" d="M89.2013 161.864L195.363 146.396L195.795 149.365L89.6338 164.833L89.2013 161.864Z" style="fill:var(--sapContent_Illustrative_Color4)"/>
<path fill-rule="evenodd" clip-rule="evenodd" d="M204.547 114.741L208.872 144.428L205.904 144.86L201.578 115.174L204.547 114.741Z" style="fill:var(--sapContent_Illustrative_Color4)"/>
<path fill-rule="evenodd" clip-rule="evenodd" d="M145.972 126.307L149.865 153.025L146.896 153.458L143.004 126.74L145.972 126.307Z" style="fill:var(--sapContent_Illustrative_Color4)"/>
<path fill-rule="evenodd" clip-rule="evenodd" d="M91.7904 124.602L199.651 108.886L200.084 111.854L92.2229 127.57L91.7904 124.602Z" style="fill:var(--sapContent_Illustrative_Color4)"/>
<circle cx="95.3623" cy="162.988" r="9" transform="rotate(-8.29 95.3623 162.988)" style="fill:var(--sapContent_Illustrative_Color2)"/>
<circle cx="90.0273" cy="126.374" r="9" transform="rotate(-8.29 90.0273 126.374)" style="fill:var(--sapContent_Illustrative_Color13)"/>
<circle cx="201.847" cy="110.082" r="9" transform="rotate(-8.29 201.847 110.082)" style="fill:var(--sapContent_Illustrative_Color3)"/>
<rect x="119.111" y="112.031" width="45.9783" height="20" rx="2.00019" transform="rotate(-8.29 119.111 112.031)" style="fill:var(--sapContent_Illustrative_Color2)"/>
<rect x="180.56" y="140.468" width="44.4457" height="20" rx="2.00019" transform="rotate(-8.29 180.56 140.468)" style="fill:var(--sapContent_Illustrative_Color13)"/>
<rect x="147.418" y="142.266" width="17.6776" height="17.6776" rx="2.00019" transform="rotate(36.71 147.418 142.266)" style="fill:var(--sapContent_Illustrative_Color14)"/>
</svg>
