<svg width="160" height="161" viewBox="0 0 160 161" fill="none" xmlns="http://www.w3.org/2000/svg" id="tnt-Dialog-Tutorials-alternate">
<rect x="-1.24561" y="56.2503" width="140.85" height="94.0698" rx="8.43877" transform="rotate(-16.24 -1.24561 56.2503)" style="fill:var(--sapContent_Illustrative_Color6)"/>
<path d="M6.41259 59.5194C5.32643 55.7905 7.46877 51.8872 11.1976 50.801L126.741 17.145C130.47 16.0589 134.373 18.2012 135.459 21.9301L156.703 94.86C157.789 98.5889 155.647 102.492 151.918 103.578L36.3743 137.234C32.6454 138.321 28.7421 136.178 27.6559 132.449L6.41259 59.5194Z" style="fill:var(--sapContent_Illustrative_Color8)"/>
<path fill-rule="evenodd" clip-rule="evenodd" d="M10.4985 48.4008L126.042 14.7448C131.096 13.2725 136.387 16.1765 137.86 21.2309L159.103 94.1609C160.575 99.2153 157.671 104.506 152.617 105.979L37.0735 139.635C32.019 141.107 26.728 138.203 25.2557 133.148L4.01238 60.2185C2.54009 55.1641 5.44403 49.873 10.4985 48.4008ZM11.1977 50.801C7.4688 51.8872 5.32647 55.7905 6.41263 59.5194L27.6559 132.449C28.7421 136.178 32.6454 138.321 36.3743 137.234L151.918 103.578C155.647 102.492 157.789 98.5889 156.703 94.86L135.459 21.9301C134.373 18.2012 130.47 16.0589 126.741 17.145L11.1977 50.801Z" style="fill:var(--sapContent_Illustrative_Color4)"/>
<rect x="20.0773" y="73.8645" width="116.195" height="40.7724" rx="3.51616" transform="rotate(-16.24 20.0773 73.8645)" style="fill:var(--sapContent_Illustrative_Color18)"/>
<path d="M6.41259 59.5194C5.32643 55.7905 7.46877 51.8872 11.1976 50.801L126.741 17.145C130.47 16.0589 134.373 18.2012 135.459 21.9301L138.233 31.4534L9.18657 69.0427L6.41259 59.5194Z" style="fill:var(--sapContent_Illustrative_Color5)"/>
<circle cx="17.9402" cy="57.9429" r="3.16454" transform="rotate(-16.24 17.9402 57.9429)" style="fill:var(--sapContent_Illustrative_Color8)"/>
<circle cx="29.4181" cy="54.5995" r="3.16454" transform="rotate(-16.24 29.4181 54.5995)" style="fill:var(--sapContent_Illustrative_Color8)"/>
<circle cx="40.896" cy="51.2562" r="3.16454" transform="rotate(-16.24 40.896 51.2562)" style="fill:var(--sapContent_Illustrative_Color8)"/>
<path fill-rule="evenodd" clip-rule="evenodd" d="M49.134 121.028C48.7479 119.702 49.5096 118.314 50.8352 117.928L144.179 90.7417C145.504 90.3556 146.892 91.1172 147.278 92.4428C147.664 93.7685 146.903 95.1561 145.577 95.5422L52.2334 122.729C50.9077 123.115 49.5201 122.353 49.134 121.028Z" style="fill:var(--sapContent_Illustrative_Color6)"/>
<path fill-rule="evenodd" clip-rule="evenodd" d="M49.1321 121.028C48.746 119.703 49.5076 118.315 50.8332 117.929L81.6153 108.963C82.941 108.577 84.3286 109.339 84.7147 110.665C85.1008 111.99 84.3391 113.378 83.0135 113.764L52.2314 122.729C50.9058 123.115 49.5182 122.354 49.1321 121.028Z" style="fill:var(--sapContent_Illustrative_Color3)"/>
<path d="M92.3338 108.445C93.6259 112.881 91.0771 117.525 86.6408 118.817C82.2046 120.109 77.5609 117.56 76.2688 113.124C74.9768 108.688 77.5256 104.044 81.9618 102.752C86.398 101.46 91.0418 104.009 92.3338 108.445Z" style="fill:var(--sapContent_Illustrative_Color15)"/>
<path fill-rule="evenodd" clip-rule="evenodd" d="M85.9417 116.417C89.0523 115.511 90.8395 112.255 89.9336 109.144C89.0276 106.034 85.7715 104.246 82.6609 105.152C79.5503 106.058 77.7631 109.314 78.6691 112.425C79.5751 115.536 82.8311 117.323 85.9417 116.417ZM86.6408 118.817C91.0771 117.525 93.6259 112.881 92.3338 108.445C91.0418 104.009 86.398 101.46 81.9618 102.752C77.5256 104.044 74.9768 108.688 76.2688 113.124C77.5609 117.56 82.2046 120.109 86.6408 118.817Z" style="fill:var(--sapContent_Illustrative_Color8)"/>
<path fill-rule="evenodd" clip-rule="evenodd" d="M35.1876 119.416C35.8504 119.223 36.5442 119.604 36.7372 120.267L38.6966 126.994C38.8896 127.657 38.5088 128.351 37.846 128.544C37.1831 128.737 36.4893 128.356 36.2963 127.693L34.337 120.966C34.1439 120.303 34.5247 119.609 35.1876 119.416Z" style="fill:var(--sapContent_Illustrative_Color4)"/>
<path fill-rule="evenodd" clip-rule="evenodd" d="M39.3402 118.207C40.003 118.014 40.6968 118.395 40.8898 119.058L42.8491 125.785C43.0422 126.448 42.6614 127.141 41.9985 127.334C41.3357 127.527 40.6419 127.147 40.4489 126.484L38.4896 119.757C38.2965 119.094 38.6773 118.4 39.3402 118.207Z" style="fill:var(--sapContent_Illustrative_Color4)"/>
<path d="M76.0832 89.7848C74.7383 91.0303 72.5527 90.425 72.0401 88.6651L69.7037 80.6431L67.3669 72.6198C66.8543 70.8597 68.3731 69.1756 70.1765 69.5042L88.5586 72.8541C90.5578 73.2185 91.283 75.7087 89.7921 77.0894L76.0832 89.7848Z" style="fill:var(--sapContent_Illustrative_Color4)"/>
</svg>
