<svg width="45" height="45" id="tnt-Dot-CodePlaceholder-alternate" xmlns="http://www.w3.org/2000/svg" viewBox="0 0 45 46">
    <rect x="-.02" y="2.35" width="43.44" height="43.44" rx="3.12" ry="3.12" style="fill:var(--sapContent_Illustrative_Color6)" />
    <path d="m1.54,5.01C1.54,2.81,3.33,1.01,5.54,1.01h35.44c2.21,0,4,1.79,4,4v35.44c0,2.21-1.79,4-4,4H5.54c-2.21,0-4-1.79-4-4V5.01Z" style="fill:var(--sapContent_Illustrative_Color8)" />
    <path d="m40.98,2.01H5.54c-1.66,0-3,1.34-3,3v35.44c0,1.66,1.34,3,3,3h35.44c1.66,0,3-1.34,3-3V5.01c0-1.66-1.34-3-3-3ZM5.54,1.01C3.33,1.01,1.54,2.81,1.54,5.01v35.44c0,2.21,1.79,4,4,4h35.44c2.21,0,4-1.79,4-4V5.01c0-2.21-1.79-4-4-4H5.54Z" style="fill:var(--sapContent_Illustrative_Color4)" fill-rule="evenodd" />
    <path d="m6.74,41.71c-1.35,0-2.45-1.1-2.45-2.45v-4.75c1.1,0,2,.9,2,2v2.75c0,.25.2.45.45.45h2.75c1.1,0,2,.9,2,2h-4.75Zm15.77,0c0-1.1-.9-2-2-2h-5.51c-1.1,0-2,.9-2,2h9.51Zm11.01,0c0-1.1-.9-2-2-2h-5.51c-1.1,0-2,.9-2,2h9.51Zm8.71-7.2c-1.1,0-2,.9-2,2v2.75c0,.25-.2.45-.45.45h-2.75c-1.1,0-2,.9-2,2h4.75c1.35,0,2.45-1.1,2.45-2.45v-4.75Zm0-11.01c-1.1,0-2,.9-2,2v5.51c0,1.1.9,2,2,2v-9.51Zm0-11.01c-1.1,0-2,.9-2,2v5.51c0,1.1.9,2,2,2v-9.51Zm-7.2-8.71c0,1.1.9,2,2,2h2.75c.25,0,.45.2.45.45v2.75c0,1.1.9,2,2,2v-4.75c0-1.35-1.1-2.45-2.45-2.45h-4.75Zm-11.01,0c0,1.1.9,2,2,2h5.51c1.1,0,2-.9,2-2h-9.51Zm-11.01,0c0,1.1.9,2,2,2h5.51c1.1,0,2-.9,2-2h-9.51Zm-8.71,7.2c1.1,0,2-.9,2-2v-2.75c0-.25.2-.45.45-.45h2.75c1.1,0,2-.9,2-2h-4.75c-1.35,0-2.45,1.1-2.45,2.45v4.75Zm0,11.01c1.1,0,2-.9,2-2v-5.51c0-1.1-.9-2-2-2v9.51Zm0,11.01c1.1,0,2-.9,2-2v-5.51c0-1.1-.9-2-2-2v9.51Z" style="fill:var(--sapContent_Illustrative_Color20)" fill-rule="evenodd" />
</svg>