<svg width="321" height="240" viewBox="0 0 321 240" fill="none" xmlns="http://www.w3.org/2000/svg" id="tnt-Scene-ChartOrg-alternate">
<path d="M130.521 144.456H34.1116C26.5523 144.456 19.3026 147.459 13.9574 152.804C8.61212 158.149 5.60924 165.399 5.60924 172.958C5.60924 180.518 8.61212 187.767 13.9574 193.113C19.3026 198.458 26.5523 201.461 34.1116 201.461H130.561C138.12 201.461 145.37 198.458 150.715 193.113C156.06 187.767 159.063 180.518 159.063 172.958C159.063 165.399 156.06 158.149 150.715 152.804C145.37 147.459 138.12 144.456 130.561 144.456H130.521Z" style="fill:var(--sapContent_Illustrative_Color7)"/>
<path d="M165.642 172.749H69.183C61.7173 172.889 54.6047 175.953 49.3744 181.282C44.1441 186.611 41.214 193.78 41.214 201.246C41.214 208.713 44.1441 215.882 49.3744 221.211C54.6047 226.54 61.7173 229.604 69.183 229.744H165.642C173.108 229.604 180.22 226.54 185.45 221.211C190.681 215.882 193.611 208.713 193.611 201.246C193.611 193.78 190.681 186.611 185.45 181.282C180.22 175.953 173.108 172.889 165.642 172.749Z" style="fill:var(--sapContent_Illustrative_Color7)"/>
<path d="M291.132 93.9308H194.683C190.896 93.8599 187.133 94.5446 183.613 95.9449C180.094 97.3452 176.889 99.433 174.185 102.086C171.482 104.739 169.334 107.905 167.869 111.398C166.403 114.89 165.648 118.64 165.648 122.428C165.648 126.216 166.403 129.966 167.869 133.459C169.334 136.951 171.482 140.117 174.185 142.77C176.889 145.423 180.094 147.511 183.613 148.911C187.133 150.312 190.896 150.997 194.683 150.926H291.132C294.92 150.997 298.683 150.312 302.203 148.911C305.722 147.511 308.927 145.423 311.631 142.77C314.334 140.117 316.481 136.951 317.947 133.459C319.413 129.966 320.168 126.216 320.168 122.428C320.168 118.64 319.413 114.89 317.947 111.398C316.481 107.905 314.334 104.739 311.631 102.086C308.927 99.433 305.722 97.3452 302.203 95.9449C298.683 94.5446 294.92 93.8599 291.132 93.9308Z" style="fill:var(--sapContent_Illustrative_Color7)"/>
<path d="M219.253 41.8975H37.9353C27.9189 41.8975 18.3127 45.8765 11.23 52.9591C4.14732 60.0418 0.16832 69.648 0.16832 79.6644C0.16832 89.6808 4.14732 99.287 11.23 106.37C18.3127 113.452 27.9189 117.431 37.9353 117.431H219.253C229.269 117.431 238.875 113.452 245.958 106.37C253.04 99.287 257.02 89.6808 257.02 79.6644C257.02 69.648 253.04 60.0418 245.958 52.9591C238.875 45.8765 229.269 41.8975 219.253 41.8975Z" style="fill:var(--sapContent_Illustrative_Color7)"/>
<rect x="36.3535" y="76.2544" width="202.073" height="134.959" rx="12" transform="rotate(-8.29 36.3535 76.2544)" style="fill:var(--sapContent_Illustrative_Color6)"/>
<path d="M46.5741 82.3311C45.7778 76.8659 49.5627 71.79 55.0278 70.9937L226.056 46.0739C231.521 45.2776 236.597 49.0625 237.393 54.5276L253.132 162.544C253.928 168.009 250.143 173.085 244.678 173.881L73.6501 198.801C68.1849 199.597 63.109 195.812 62.3127 190.347L46.5741 82.3311Z" style="fill:var(--sapContent_Illustrative_Color8)"/>
<path fill-rule="evenodd" clip-rule="evenodd" d="M54.5953 68.025L225.623 43.1053C232.728 42.0701 239.326 46.9904 240.362 54.095L256.1 162.111C257.135 169.216 252.215 175.815 245.11 176.85L74.0826 201.769C66.978 202.805 60.3793 197.884 59.3441 190.78L43.6055 82.7636C42.5703 75.6589 47.4906 69.0602 54.5953 68.025ZM55.0278 70.9937C49.5627 71.79 45.7778 76.8659 46.5741 82.331L62.3127 190.347C63.109 195.812 68.1849 199.597 73.6501 198.801L244.678 173.881C250.143 173.085 253.928 168.009 253.132 162.544L237.393 54.5276C236.597 49.0624 231.521 45.2776 226.056 46.0739L55.0278 70.9937Z" style="fill:var(--sapContent_Illustrative_Color4)"/>
<path d="M46.5741 82.3311C45.7778 76.8659 49.5627 71.79 55.0278 70.9937L226.056 46.0739C231.521 45.2776 236.597 49.0625 237.393 54.5276L239.458 68.6976L48.6388 96.5011L46.5741 82.3311Z" style="fill:var(--sapContent_Illustrative_Color5)"/>
<circle cx="63.2333" cy="82.4326" r="4.5" transform="rotate(-8.29 63.2333 82.4326)" style="fill:var(--sapContent_Illustrative_Color8)"/>
<circle cx="80.0557" cy="79.9814" r="4.5" transform="rotate(-8.29 80.0557 79.9814)" style="fill:var(--sapContent_Illustrative_Color8)"/>
<circle cx="96.878" cy="77.5302" r="4.5" transform="rotate(-8.29 96.878 77.5302)" style="fill:var(--sapContent_Illustrative_Color8)"/>
<path d="M258.781 26.3833C258.781 25.1945 255.33 24.2429 250.719 24.0267C250.455 19.4216 249.44 15.9974 248.251 16C247.062 16.0026 246.074 19.4532 245.821 24.0821C241.197 24.3984 237.759 25.4317 237.775 26.6232C237.79 27.8147 241.226 28.7663 245.837 28.9798C246.113 33.585 247.115 37.0092 248.302 37.0066C249.488 37.0039 250.482 33.5534 250.735 28.9245C255.359 28.6082 258.794 27.5748 258.781 26.3833Z" style="fill:var(--sapContent_Illustrative_Color3)"/>
<path d="M275.785 47.8971C275.785 47.1309 273.561 46.5176 270.59 46.3783C270.42 43.4106 269.766 41.2039 269 41.2056C268.233 41.2073 267.596 43.431 267.433 46.414C264.453 46.6179 262.238 47.2838 262.248 48.0516C262.258 48.8195 264.472 49.4327 267.443 49.5703C267.622 52.5381 268.267 54.7448 269.032 54.7431C269.797 54.7414 270.437 52.5177 270.6 49.5347C273.58 49.3308 275.794 48.6649 275.785 47.8971Z" style="fill:var(--sapContent_Illustrative_Color3)"/>
<rect x="64.2355" y="106.312" width="165.62" height="78.5952" rx="5" transform="rotate(-8.29 64.2355 106.312)" style="fill:var(--sapContent_Illustrative_Color7)"/>
<path fill-rule="evenodd" clip-rule="evenodd" d="M102.699 149.493L149.157 117.137L150.871 119.599L104.413 151.955L102.699 149.493Z" style="fill:var(--sapContent_Illustrative_Color4)"/>
<path fill-rule="evenodd" clip-rule="evenodd" d="M203.613 134.789L149.853 117.036L148.912 119.884L202.672 137.638L203.613 134.789Z" style="fill:var(--sapContent_Illustrative_Color4)"/>
<path fill-rule="evenodd" clip-rule="evenodd" d="M151.891 145.709L147.86 118.045L150.829 117.612L154.859 145.277L151.891 145.709Z" style="fill:var(--sapContent_Illustrative_Color4)"/>
<rect x="136.716" y="106.49" width="22.2281" height="22.2281" rx="11.1141" transform="rotate(-8.29 136.716 106.49)" style="fill:var(--sapContent_Illustrative_Color3)"/>
<path d="M161.285 114.104C162.25 120.727 157.663 126.878 151.04 127.843C144.417 128.808 138.265 124.222 137.3 117.598C136.335 110.975 140.922 104.824 147.545 103.859C154.168 102.894 160.32 107.48 161.285 114.104Z" style="fill:var(--sapContent_Illustrative_Color3)"/>
<path fill-rule="evenodd" clip-rule="evenodd" d="M141.446 125.087C141.598 121.83 144.04 119.122 147.283 118.65L152.053 117.955C155.285 117.484 158.387 119.367 159.473 122.427C157.641 125.261 154.641 127.319 151.04 127.843C147.455 128.366 144.007 127.261 141.446 125.087ZM152.738 110.954C153.064 113.193 151.513 115.273 149.274 115.599C147.035 115.925 144.955 114.374 144.629 112.135C144.302 109.896 145.853 107.816 148.092 107.49C150.332 107.163 152.412 108.714 152.738 110.954Z" style="fill:var(--sapContent_Illustrative_Color8)"/>
<path fill-rule="evenodd" clip-rule="evenodd" d="M150.617 124.938C155.635 124.207 159.111 119.546 158.38 114.527C157.649 109.508 152.987 106.032 147.968 106.764C142.95 107.495 139.474 112.156 140.205 117.175C140.936 122.194 145.598 125.67 150.617 124.938ZM151.04 127.843C157.663 126.878 162.25 120.727 161.285 114.104C160.32 107.48 154.168 102.894 147.545 103.859C140.922 104.824 136.335 110.975 137.3 117.598C138.265 124.222 144.417 128.808 151.04 127.843Z" style="fill:var(--sapContent_Illustrative_Color3)"/>
<rect x="92.4293" y="149.323" width="22.2281" height="22.2281" rx="11.1141" transform="rotate(-8.29 92.4293 149.323)" style="fill:var(--sapContent_Illustrative_Color2)"/>
<path d="M116.998 156.937C117.963 163.56 113.376 169.711 106.753 170.676C100.13 171.641 93.9783 167.055 93.0133 160.431C92.0482 153.808 96.6351 147.657 103.258 146.692C109.881 145.727 116.033 150.313 116.998 156.937Z" style="fill:var(--sapContent_Illustrative_Color2)"/>
<path fill-rule="evenodd" clip-rule="evenodd" d="M97.1593 167.92C97.3113 164.663 99.7527 161.955 102.996 161.483L107.766 160.788C110.998 160.317 114.1 162.2 115.186 165.26C113.354 168.094 110.354 170.152 106.753 170.676C103.168 171.199 99.7204 170.094 97.1593 167.92ZM108.451 153.787C108.777 156.026 107.226 158.106 104.987 158.432C102.748 158.758 100.668 157.207 100.342 154.968C100.015 152.729 101.566 150.649 103.806 150.323C106.045 149.996 108.125 151.547 108.451 153.787Z" style="fill:var(--sapContent_Illustrative_Color8)"/>
<path fill-rule="evenodd" clip-rule="evenodd" d="M106.33 167.771C111.349 167.04 114.824 162.379 114.093 157.36C113.362 152.341 108.7 148.865 103.682 149.597C98.6627 150.328 95.187 154.989 95.9182 160.008C96.6495 165.027 101.311 168.503 106.33 167.771ZM106.753 170.676C113.376 169.711 117.963 163.56 116.998 156.937C116.033 150.313 109.881 145.727 103.258 146.692C96.6351 147.657 92.0482 153.808 93.0133 160.431C93.9783 167.055 100.13 171.641 106.753 170.676Z" style="fill:var(--sapContent_Illustrative_Color2)"/>
<rect x="141.907" y="142.113" width="22.2281" height="22.2281" rx="11.1141" transform="rotate(-8.29 141.907 142.113)" style="fill:var(--sapContent_Illustrative_Color13)"/>
<path d="M166.476 149.727C167.441 156.35 162.854 162.502 156.231 163.467C149.607 164.432 143.456 159.845 142.491 153.222C141.526 146.599 146.113 140.447 152.736 139.482C159.359 138.517 165.511 143.104 166.476 149.727Z" style="fill:var(--sapContent_Illustrative_Color13)"/>
<path fill-rule="evenodd" clip-rule="evenodd" d="M146.637 160.711C146.789 157.453 149.23 154.746 152.474 154.273L157.243 153.578C160.476 153.107 163.578 154.991 164.663 158.051C162.831 160.884 159.832 162.942 156.231 163.467C152.645 163.989 149.198 162.885 146.637 160.711ZM157.929 146.577C158.255 148.816 156.704 150.896 154.465 151.223C152.225 151.549 150.145 149.998 149.819 147.759C149.493 145.519 151.044 143.439 153.283 143.113C155.522 142.787 157.602 144.338 157.929 146.577Z" style="fill:var(--sapContent_Illustrative_Color8)"/>
<path fill-rule="evenodd" clip-rule="evenodd" d="M155.807 160.562C160.826 159.831 164.302 155.169 163.571 150.15C162.839 145.132 158.178 141.656 153.159 142.387C148.14 143.118 144.665 147.78 145.396 152.799C146.127 157.817 150.788 161.293 155.807 160.562ZM156.231 163.467C162.854 162.502 167.441 156.35 166.476 149.727C165.511 143.104 159.359 138.517 152.736 139.482C146.113 140.447 141.526 146.599 142.491 153.222C143.456 159.845 149.607 164.432 156.231 163.467Z" style="fill:var(--sapContent_Illustrative_Color13)"/>
<rect x="191.384" y="134.904" width="22.2281" height="22.2281" rx="11.1141" transform="rotate(-8.29 191.384 134.904)" style="fill:var(--sapContent_Illustrative_Color2)"/>
<path d="M215.953 142.518C216.918 149.141 212.331 155.293 205.708 156.258C199.085 157.223 192.933 152.636 191.968 146.013C191.003 139.39 195.59 133.238 202.213 132.273C208.837 131.308 214.988 135.895 215.953 142.518Z" style="fill:var(--sapContent_Illustrative_Color2)"/>
<path fill-rule="evenodd" clip-rule="evenodd" d="M196.114 153.502C196.266 150.244 198.708 147.537 201.951 147.064L206.721 146.369C209.953 145.898 213.055 147.782 214.141 150.842C212.309 153.675 209.31 155.733 205.708 156.258C202.123 156.78 198.675 155.676 196.114 153.502ZM207.406 139.368C207.732 141.607 206.182 143.687 203.942 144.014C201.703 144.34 199.623 142.789 199.297 140.55C198.97 138.31 200.521 136.23 202.761 135.904C205 135.578 207.08 137.129 207.406 139.368Z" style="fill:var(--sapContent_Illustrative_Color8)"/>
<path fill-rule="evenodd" clip-rule="evenodd" d="M205.285 153.353C210.304 152.622 213.779 147.96 213.048 142.941C212.317 137.923 207.655 134.447 202.637 135.178C197.618 135.909 194.142 140.571 194.873 145.59C195.605 150.608 200.266 154.084 205.285 153.353ZM205.708 156.258C212.331 155.293 216.918 149.141 215.953 142.518C214.988 135.895 208.837 131.308 202.213 132.273C195.59 133.238 191.003 139.39 191.968 146.013C192.933 152.636 199.085 157.223 205.708 156.258Z" style="fill:var(--sapContent_Illustrative_Color2)"/>
</svg>
