<svg width="129" height="128" viewBox="0 0 129 128" fill="none" xmlns="http://www.w3.org/2000/svg" id="tnt-Spot-ChartGantt-alternate">
<rect x="-0.924194" y="46.4551" width="113.183" height="75.5919" rx="6.72132" transform="rotate(-16.24 -0.924194 46.4551)" style="fill:var(--sapContent_Illustrative_Color6)"/>
<path d="M5.21607 49.0339C4.35096 46.0639 6.0573 42.9549 9.02727 42.0898L101.971 15.017C104.94 14.1518 108.049 15.8582 108.915 18.8281L126.013 77.5284C126.878 80.4984 125.172 83.6073 122.202 84.4724L29.2585 111.545C26.2886 112.41 23.1796 110.704 22.3145 107.734L5.21607 49.0339Z" style="fill:var(--sapContent_Illustrative_Color8)"/>
<path fill-rule="evenodd" clip-rule="evenodd" d="M8.46785 40.1697L101.411 13.0968C105.442 11.9228 109.661 14.2384 110.835 18.2689L127.933 76.9691C129.107 80.9996 126.791 85.2186 122.761 86.3926L29.8178 113.466C25.7873 114.64 21.5682 112.324 20.3942 108.293L3.29578 49.5932C2.12177 45.5627 4.43738 41.3437 8.46785 40.1697ZM9.02718 42.0899C6.0572 42.955 4.35087 46.0639 5.21598 49.0339L22.3144 107.734C23.1795 110.704 26.2885 112.41 29.2584 111.545L122.202 84.4724C125.172 83.6073 126.878 80.4984 126.013 77.5284L108.914 18.8282C108.049 15.8582 104.94 14.1519 101.97 15.017L9.02718 42.0899Z" style="fill:var(--sapContent_Illustrative_Color4)"/>
<path d="M5.21607 49.0339C4.35096 46.0639 6.0573 42.9549 9.02727 42.0898L101.971 15.0169C104.94 14.1518 108.049 15.8582 108.915 18.8281L111.158 26.5287L7.45911 56.7344L5.21607 49.0339Z" style="fill:var(--sapContent_Illustrative_Color5)"/>
<circle cx="14.4656" cy="47.8" r="2.5205" transform="rotate(-16.24 14.4656 47.8)" style="fill:var(--sapContent_Illustrative_Color8)"/>
<circle cx="23.6076" cy="45.1369" r="2.5205" transform="rotate(-16.24 23.6076 45.1369)" style="fill:var(--sapContent_Illustrative_Color8)"/>
<circle cx="32.7496" cy="42.4743" r="2.5205" transform="rotate(-16.24 32.7496 42.4743)" style="fill:var(--sapContent_Illustrative_Color8)"/>
<rect x="17.256" y="61.1567" width="93.1985" height="44.2274" rx="2.81362" transform="rotate(-16.24 17.256 61.1567)" style="fill:var(--sapContent_Illustrative_Color7)"/>
<path fill-rule="evenodd" clip-rule="evenodd" d="M24.6896 62.9133C25.1372 62.7829 25.6057 63.0401 25.7361 63.4877L35.5568 97.2031C35.6872 97.6507 35.4301 98.1192 34.9825 98.2496C34.5349 98.3799 34.0664 98.1228 33.936 97.6752L24.1152 63.9598C23.9849 63.5122 24.242 63.0437 24.6896 62.9133Z" style="fill:var(--sapContent_Illustrative_Color6)"/>
<path fill-rule="evenodd" clip-rule="evenodd" d="M49.542 55.6736C49.9896 55.5432 50.4581 55.8003 50.5885 56.2479L60.4092 89.9633C60.5396 90.4109 60.2825 90.8794 59.8349 91.0098C59.3873 91.1402 58.9188 90.883 58.7884 90.4355L48.9677 56.72C48.8373 56.2724 49.0944 55.8039 49.542 55.6736Z" style="fill:var(--sapContent_Illustrative_Color6)"/>
<path fill-rule="evenodd" clip-rule="evenodd" d="M74.3946 48.4348C74.8421 48.3044 75.3106 48.5616 75.441 49.0091L85.2618 82.7246C85.3922 83.1721 85.135 83.6407 84.6874 83.771C84.2399 83.9014 83.7713 83.6443 83.641 83.1967L73.8202 49.4813C73.6898 49.0337 73.947 48.5652 74.3946 48.4348Z" style="fill:var(--sapContent_Illustrative_Color6)"/>
<path fill-rule="evenodd" clip-rule="evenodd" d="M99.247 41.1955C99.6945 41.0652 100.163 41.3223 100.293 41.7699L110.114 75.4853C110.245 75.9329 109.987 76.4014 109.54 76.5318C109.092 76.6622 108.624 76.405 108.493 75.9574L98.6726 42.242C98.5422 41.7944 98.7994 41.3259 99.247 41.1955Z" style="fill:var(--sapContent_Illustrative_Color6)"/>
<rect x="26.1182" y="66.5117" width="33.6146" height="6.84718" rx="1.12545" transform="rotate(-16.24 26.1182 66.5117)" style="fill:var(--sapContent_Illustrative_Color3)"/>
<rect x="76.1285" y="75.0054" width="35.0019" height="6.84718" rx="1.12545" transform="rotate(-16.24 76.1285 75.0054)" style="fill:var(--sapContent_Illustrative_Color14)"/>
<rect x="73.0093" y="64.2964" width="18.0617" height="6.84718" rx="1.12545" transform="rotate(-16.24 73.0093 64.2964)" style="fill:var(--sapContent_Illustrative_Color2)"/>
<rect x="43.4968" y="72.8931" width="27.9222" height="6.84718" rx="1.12545" transform="rotate(-16.24 43.4968 72.8931)" style="fill:var(--sapContent_Illustrative_Color2)"/>
</svg>
