<svg width="45" height="46" viewBox="0 0 45 46" fill="none" xmlns="http://www.w3.org/2000/svg" id="tnt-Dot-Mission-alternate">
<path d="M7.83213 29.5194L20.4898 16.5666L12.7527 16.9674C10.3441 17.0922 8.09954 18.2261 6.56989 20.0908L1.36691 26.4334C1.13218 26.7195 1.25146 27.1518 1.59971 27.2771L7.83213 29.5194Z" style="fill:var(--sapContent_Illustrative_Color2)"/>
<path d="M16.2448 37.9322L29.1977 25.2745L28.7969 33.0116C28.6721 35.4202 27.5382 37.6647 25.6735 39.1944L19.3309 44.3974C19.0447 44.6321 18.6124 44.5128 18.4871 44.1646L16.2448 37.9322Z" style="fill:var(--sapContent_Illustrative_Color2)"/>
<path d="M42.2694 2.76084C42.6983 2.71407 43.0501 3.06578 43.0033 3.4947C41.9018 13.595 36.4718 22.8833 28.1293 28.9372L16.2968 37.5239C12.5932 36.0758 9.68833 33.171 8.24019 29.4674L16.8269 17.6348C22.8809 9.29237 32.1691 3.86238 42.2694 2.76084Z" style="fill:var(--sapContent_Illustrative_Color8)"/>
<path fill-rule="evenodd" clip-rule="evenodd" d="M16.4417 38.6545L15.9326 38.4554C11.9691 36.9056 8.85862 33.7952 7.30885 29.8317L7.10979 29.3226L16.0175 17.0476C22.2345 8.48053 31.7755 2.89951 42.161 1.76688C43.2253 1.65081 44.1135 2.53894 43.9974 3.60325C42.8647 13.9888 37.2837 23.5297 28.7166 29.7467L16.4417 38.6545ZM43.0033 3.49484C43.0501 3.06592 42.6983 2.71421 42.2694 2.76098C32.1691 3.86252 22.8808 9.29251 16.8269 17.6349L8.24018 29.4675C9.68832 33.1711 12.5932 36.0759 16.2967 37.5241L28.1293 28.9374C36.4717 22.8834 41.9017 13.5952 43.0033 3.49484Z" style="fill:var(--sapContent_Illustrative_Color4)"/>
<circle cx="31.1597" cy="14.7577" r="2.71098" transform="rotate(45 31.1597 14.7577)" style="fill:var(--sapContent_Illustrative_Color14)"/>
<path d="M22.9115 25.5567C23.2271 25.2717 23.2396 24.7805 22.939 24.4799L21.4376 22.9785C21.1369 22.6778 20.6458 22.6904 20.3608 23.006L9.88437 34.6093C9.52466 35.0077 9.54022 35.6181 9.91978 35.9977C10.2993 36.3773 10.9097 36.3928 11.3081 36.0331L22.9115 25.5567Z" style="fill:var(--sapContent_Illustrative_Color2)"/>
<path fill-rule="evenodd" clip-rule="evenodd" d="M32.7276 5.17189C35.7658 3.94034 38.9744 3.1203 42.2695 2.76094C42.6984 2.71417 43.0502 3.06588 43.0034 3.4948C42.6432 6.79749 41.8202 10.0133 40.5839 13.0577C39.3747 11.5887 38.0122 10.0119 36.8084 8.8082C35.6507 7.65044 34.1478 6.34579 32.7276 5.17189Z" style="fill:var(--sapContent_Illustrative_Color9)"/>
</svg>
