<svg width="128" height="128" version="1.1" id="tnt-Spot-Dialog-alternate" xmlns="http://www.w3.org/2000/svg" xmlns:xlink="http://www.w3.org/1999/xlink" x="0px" y="0px"
	 viewBox="0 0 128 128" enable-background="new 0 0 128 128" xml:space="preserve">
<path fill-rule="evenodd" clip-rule="evenodd" style="fill:var(--sapContent_Illustrative_Color2)" d="M93.6,65.5c-18,0-32.6-14.6-32.6-32.6S75.6,0.3,93.6,0.3
	s32.6,14.6,32.6,32.6c0,5.8-1.5,11.3-4.2,16l5.2,12.2c0.7,1.7-0.8,3.7-2.6,3.2l-14-3.7C105.7,63.7,99.9,65.5,93.6,65.5z"/>
<path style="fill:var(--sapContent_Illustrative_Color8)" d="M84.5,32.9c0,2.3-1.9,4.2-4.2,4.2c-2.3,0-4.2-1.9-4.2-4.2s1.9-4.2,4.2-4.2S84.5,30.6,84.5,32.9z"/>
<path style="fill:var(--sapContent_Illustrative_Color8)" d="M98.5,32.9c0,2.3-1.9,4.2-4.2,4.2c-2.3,0-4.2-1.9-4.2-4.2s1.9-4.2,4.2-4.2S98.5,30.6,98.5,32.9z"/>
<path style="fill:var(--sapContent_Illustrative_Color8)" d="M112.5,32.9c0,2.3-1.9,4.2-4.2,4.2c-2.3,0-4.2-1.9-4.2-4.2s1.9-4.2,4.2-4.2S112.5,30.6,112.5,32.9z"/>
<path fill-rule="evenodd" clip-rule="evenodd" style="fill:var(--sapContent_Illustrative_Color6)" d="M47.1,127.2c24.4,0,44.2-19.8,44.2-44.2S71.5,38.8,47.1,38.8
	S2.9,58.6,2.9,83c0,7.9,2.1,15.3,5.7,21.7l-7.7,18c-0.8,1.8,0.9,3.8,2.7,3.3l20.4-5.3C30.6,124.8,38.6,127.2,47.1,127.2z"/>
<path fill-rule="evenodd" clip-rule="evenodd" style="fill:var(--sapContent_Illustrative_Color8)" d="M54.2,122.7c23.4,0,42.3-18.9,42.3-42.3S77.6,38,54.2,38
	S11.9,57,11.9,80.4c0,7.5,2,14.6,5.4,20.8L10,118.3c-0.7,1.7,0.8,3.7,2.6,3.2l19.5-5.1C38.5,120.4,46.1,122.7,54.2,122.7z"/>
<path fill-rule="evenodd" clip-rule="evenodd" style="fill:var(--sapContent_Illustrative_Color4)" d="M98.5,80.4c0,24.5-19.8,44.3-44.3,44.3c-8.2,0-15.9-2.2-22.5-6.1
	L13,123.4c-3.5,0.9-6.2-2.8-4.9-5.9l7-16.3C11.8,95,9.9,87.9,9.9,80.4c0-24.5,19.8-44.3,44.3-44.3C78.7,36.1,98.5,55.9,98.5,80.4z
	 M17.3,101.1c-3.5-6.1-5.4-13.2-5.4-20.8C11.9,57,30.8,38,54.2,38s42.3,19,42.3,42.4s-18.9,42.3-42.3,42.3c-8.1,0-15.7-2.3-22.2-6.3
	l-19.5,5.1c-1.8,0.5-3.3-1.5-2.6-3.2L17.3,101.1z"/>
<path style="fill:var(--sapContent_Illustrative_Color3)" d="M39.5,80.4c0,3.3-2.7,5.9-5.9,5.9c-3.3,0-5.9-2.7-5.9-5.9c0-3.3,2.7-5.9,5.9-5.9
	C36.8,74.4,39.5,77.1,39.5,80.4z"/>
<path style="fill:var(--sapContent_Illustrative_Color3)" d="M59.1,80.4c0,3.3-2.7,5.9-5.9,5.9c-3.3,0-5.9-2.7-5.9-5.9c0-3.3,2.7-5.9,5.9-5.9
	C56.5,74.4,59.1,77.1,59.1,80.4z"/>
<path style="fill:var(--sapContent_Illustrative_Color3)" d="M78.7,80.4c0,3.3-2.7,5.9-5.9,5.9c-3.3,0-5.9-2.7-5.9-5.9c0-3.3,2.7-5.9,5.9-5.9
	C76.1,74.4,78.7,77.1,78.7,80.4z"/>
</svg>
