<svg width="45" height="46" viewBox="0 0 45 46" fill="none" xmlns="http://www.w3.org/2000/svg" id="tnt-Dot-Calculator-alternate">
<path d="M5.2168 6.99573C5.2168 4.78659 7.00766 2.99573 9.2168 2.99573L34.4346 2.99573C36.6437 2.99573 38.4346 4.78659 38.4346 6.99573V39.8243C38.4346 42.0335 36.6437 43.8243 34.4346 43.8243H9.2168C7.00766 43.8243 5.2168 42.0335 5.2168 39.8243L5.2168 6.99573Z" style="fill:var(--sapContent_Illustrative_Color6)"/>
<path d="M8.2168 4.95901C8.2168 3.2805 9.5775 1.9198 11.256 1.9198L36.744 1.9198C38.4225 1.9198 39.7832 3.2805 39.7832 4.95901V38.0893C39.7832 39.7678 38.4225 41.1285 36.744 41.1285H11.256C9.5775 41.1285 8.2168 39.7678 8.2168 38.0893L8.2168 4.95901Z" style="fill:var(--sapContent_Illustrative_Color8)"/>
<path fill-rule="evenodd" clip-rule="evenodd" d="M11.256 0.9198L36.744 0.9198C38.9748 0.9198 40.7832 2.72822 40.7832 4.95901V38.0893C40.7832 40.3201 38.9748 42.1285 36.744 42.1285H11.256C9.02521 42.1285 7.2168 40.3201 7.2168 38.0893L7.2168 4.95901C7.2168 2.72822 9.02521 0.9198 11.256 0.9198ZM11.256 1.9198C9.5775 1.9198 8.2168 3.2805 8.2168 4.95901L8.2168 38.0893C8.2168 39.7678 9.5775 41.1285 11.256 41.1285H36.744C38.4225 41.1285 39.7832 39.7678 39.7832 38.0893V4.95901C39.7832 3.2805 38.4225 1.9198 36.744 1.9198L11.256 1.9198Z" style="fill:var(--sapContent_Illustrative_Color4)"/>
<path d="M11.6846 7.09851C11.6846 5.99394 12.58 5.09851 13.6846 5.09851L34.3154 5.09851C35.42 5.09851 36.3154 5.99394 36.3154 7.09851V13.7919C36.3154 14.8964 35.42 15.7919 34.3154 15.7919L13.6846 15.7919C12.58 15.7919 11.6846 14.8964 11.6846 13.7919V7.09851Z" style="fill:var(--sapContent_Illustrative_Color8)"/>
<path fill-rule="evenodd" clip-rule="evenodd" d="M13.6846 4.09851L34.3154 4.09851C35.9723 4.09851 37.3154 5.44166 37.3154 7.09851V13.7919C37.3154 15.4487 35.9723 16.7919 34.3154 16.7919H13.6846C12.0277 16.7919 10.6846 15.4487 10.6846 13.7919V7.09851C10.6846 5.44166 12.0277 4.09851 13.6846 4.09851ZM13.6846 5.09851C12.58 5.09851 11.6846 5.99394 11.6846 7.09851V13.7919C11.6846 14.8964 12.58 15.7919 13.6846 15.7919L34.3154 15.7919C35.42 15.7919 36.3154 14.8964 36.3154 13.7919V7.09851C36.3154 5.99394 35.42 5.09851 34.3154 5.09851L13.6846 5.09851Z" style="fill:var(--sapContent_Illustrative_Color4)"/>
<path d="M11.6846 22.2841C11.6846 21.1795 12.58 20.2841 13.6846 20.2841H16.0518C17.1564 20.2841 18.0518 21.1795 18.0518 22.2841V25.8054C18.0518 26.91 17.1564 27.8054 16.0518 27.8054H13.6846C12.58 27.8054 11.6846 26.91 11.6846 25.8054V22.2841Z" style="fill:var(--sapContent_Illustrative_Color5)"/>
<path d="M11.6846 32.0949C11.6846 30.9904 12.58 30.0949 13.6846 30.0949H16.0518C17.1564 30.0949 18.0518 30.9904 18.0518 32.0949V35.6163C18.0518 36.7209 17.1564 37.6163 16.0518 37.6163H13.6846C12.58 37.6163 11.6846 36.7209 11.6846 35.6163V32.0949Z" style="fill:var(--sapContent_Illustrative_Color5)"/>
<path d="M20.8164 22.2841C20.8164 21.1795 21.7118 20.2841 22.8164 20.2841H25.1836C26.2882 20.2841 27.1836 21.1795 27.1836 22.2841V25.8054C27.1836 26.91 26.2882 27.8054 25.1836 27.8054H22.8164C21.7118 27.8054 20.8164 26.91 20.8164 25.8054V22.2841Z" style="fill:var(--sapContent_Illustrative_Color5)"/>
<path d="M20.8164 32.0949C20.8164 30.9904 21.7118 30.0949 22.8164 30.0949H25.1836C26.2882 30.0949 27.1836 30.9904 27.1836 32.0949V35.6163C27.1836 36.7209 26.2882 37.6163 25.1836 37.6163H22.8164C21.7118 37.6163 20.8164 36.7209 20.8164 35.6163V32.0949Z" style="fill:var(--sapContent_Illustrative_Color5)"/>
<path d="M29.9482 22.2841C29.9482 21.1795 30.8437 20.2841 31.9482 20.2841H34.3154C35.42 20.2841 36.3154 21.1795 36.3154 22.2841V35.6163C36.3154 36.7209 35.42 37.6163 34.3154 37.6163H31.9482C30.8437 37.6163 29.9482 36.7209 29.9482 35.6163V22.2841Z" style="fill:var(--sapContent_Illustrative_Color3)"/>
</svg>
