<svg width="160" height="160" viewBox="0 0 160 160" fill="none" xmlns="http://www.w3.org/2000/svg" id="tnt-Dialog-NoFlows-alternate">
<rect width="128.815" height="86.0324" rx="7.64964" transform="matrix(0.968886 -0.247508 0.247506 0.968886 -0.630859 65.7642)" style="fill:var(--sapContent_Illustrative_Color6)"/>
<path d="M6.25551 68.931C5.38413 65.5199 7.44298 62.0482 10.8541 61.1769L117.602 33.9074C121.013 33.036 124.485 35.0948 125.356 38.506L142.579 105.925C143.45 109.336 141.391 112.808 137.98 113.679L31.2321 140.949C27.821 141.82 24.3494 139.761 23.478 136.35L6.25551 68.931Z" style="fill:var(--sapContent_Illustrative_Color8)"/>
<path fill-rule="evenodd" clip-rule="evenodd" d="M10.2353 58.7546L116.983 31.4851C121.732 30.272 126.565 33.1383 127.779 37.8872L145.001 105.306C146.214 110.055 143.348 114.888 138.599 116.102L31.8509 143.371C27.102 144.584 22.2689 141.718 21.0558 136.969L3.83326 69.5497C2.62014 64.8009 5.48643 59.9677 10.2353 58.7546ZM10.8541 61.1768C7.44295 62.0482 5.38409 65.5199 6.25547 68.931L23.478 136.35C24.3494 139.761 27.821 141.82 31.2321 140.949L137.98 113.679C141.391 112.808 143.45 109.336 142.579 105.925L125.356 38.5059C124.485 35.0948 121.013 33.036 117.602 33.9074L10.8541 61.1768Z" style="fill:var(--sapContent_Illustrative_Color4)"/>
<path d="M6.25551 68.931C5.38413 65.5199 7.44298 62.0482 10.8541 61.1769L117.602 33.9074C121.013 33.036 124.485 35.0948 125.356 38.506L127.616 47.3503L8.51483 77.7753L6.25551 68.931Z" style="fill:var(--sapContent_Illustrative_Color5)"/>
<ellipse cx="2.86861" cy="2.86862" rx="2.86861" ry="2.86862" transform="matrix(0.968886 -0.247508 0.247506 0.968886 13.334 65.8088)" style="fill:var(--sapContent_Illustrative_Color8)"/>
<ellipse cx="2.86861" cy="2.86862" rx="2.86861" ry="2.86862" transform="matrix(0.968886 -0.247508 0.247506 0.968886 23.834 63.1267)" style="fill:var(--sapContent_Illustrative_Color8)"/>
<ellipse cx="2.86861" cy="2.86862" rx="2.86861" ry="2.86862" transform="matrix(0.968886 -0.247508 0.247506 0.968886 34.334 60.4443)" style="fill:var(--sapContent_Illustrative_Color8)"/>
<path fill-rule="evenodd" clip-rule="evenodd" d="M106.28 75.6712L45.3128 91.2457L44.6816 88.7751L105.649 73.2007L106.28 75.6712Z" style="fill:var(--sapContent_Illustrative_Color20)"/>
<path fill-rule="evenodd" clip-rule="evenodd" d="M44.2507 119.032L37.6525 93.2029L40.123 92.5718L46.7213 118.401L44.2507 119.032Z" style="fill:var(--sapContent_Illustrative_Color20)"/>
<rect width="31.3966" height="15.1751" rx="1.91241" transform="matrix(0.968886 -0.247508 0.247506 0.968886 21.9629 87.9995)" style="fill:var(--sapContent_Illustrative_Color18)"/>
<rect width="31.3966" height="15.1751" rx="1.91241" transform="matrix(0.968886 -0.247508 0.247506 0.968886 27.8457 111.018)" style="fill:var(--sapContent_Illustrative_Color18)"/>
<rect width="17.9774" height="17.9774" rx="1.91241" transform="matrix(0.860118 0.510093 -0.510092 0.860121 73.9336 69.4351)" style="fill:var(--sapContent_Illustrative_Color18)"/>
<ellipse cx="11.6606" cy="11.6606" rx="11.6606" ry="11.6606" transform="matrix(0.968886 -0.247508 0.247506 0.968886 97.0078 64.6255)" style="fill:var(--sapContent_Illustrative_Color18)"/>
<path d="M134.058 6.5429C134.27 6.76072 134.419 7.03166 134.49 7.32723C134.561 7.62279 134.551 7.93205 134.462 8.22245L132.504 15.1854C132.181 16.3372 131.055 16.6894 130.153 16.4358C129.779 16.3456 129.446 16.1365 129.201 15.8403C128.957 15.544 128.816 15.1764 128.798 14.7928C128.795 14.6072 128.82 14.4222 128.873 14.2442L130.83 7.28121C130.91 6.97396 131.071 6.69395 131.297 6.47081C131.523 6.24767 131.804 6.0897 132.112 6.01361C132.455 5.92887 132.813 5.933 133.154 6.02563C133.494 6.11826 133.806 6.29631 134.058 6.5429Z" style="fill:var(--sapContent_Illustrative_Color5)"/>
<path d="M159.596 36.411C159.644 36.6231 159.648 36.8429 159.607 37.0566C159.566 37.2702 159.481 37.4729 159.357 37.6518C159.233 37.8306 159.073 37.9817 158.888 38.0953C158.702 38.2089 158.495 38.2826 158.279 38.3116L151.347 39.5708C151.098 39.6153 150.842 39.6096 150.595 39.5541C150.348 39.4986 150.114 39.3944 149.908 39.2476C149.701 39.1008 149.526 38.9143 149.393 38.6991C149.259 38.4838 149.17 38.2441 149.13 37.994C149.11 37.8913 149.099 37.7872 149.097 37.6827C149.083 37.2968 149.214 36.9196 149.464 36.6255C149.714 36.3313 150.065 36.1416 150.449 36.0936L157.378 34.8367C157.627 34.7919 157.883 34.7972 158.13 34.8524C158.377 34.9075 158.611 35.0115 158.817 35.1581C159.024 35.3047 159.199 35.491 159.333 35.7061C159.466 35.9213 159.556 36.1609 159.596 36.411Z" style="fill:var(--sapContent_Illustrative_Color5)"/>
<path d="M152.278 18.0509C152.269 18.2884 152.212 18.5216 152.109 18.7361C152.007 18.9507 151.862 19.1422 151.683 19.2989L143.737 26.4073C143.379 26.7241 142.912 26.8902 142.434 26.8708C141.956 26.8514 141.504 26.6481 141.173 26.3033C140.867 25.9822 140.693 25.5579 140.685 25.1144C140.681 24.8588 140.732 24.6053 140.835 24.3712C140.938 24.1371 141.09 23.9279 141.28 23.7579L149.227 16.6494C149.587 16.3306 150.057 16.1637 150.537 16.1838C151.017 16.2039 151.471 16.4095 151.803 16.7573C151.965 16.9299 152.091 17.1334 152.173 17.3557C152.254 17.578 152.29 17.8144 152.278 18.0509Z" style="fill:var(--sapContent_Illustrative_Color5)"/>
<path d="M128.929 147.457C141.276 147.457 151.284 137.449 151.284 125.102C151.284 112.756 141.276 102.747 128.929 102.747C116.583 102.747 106.574 112.756 106.574 125.102C106.574 137.449 116.583 147.457 128.929 147.457Z" style="fill:var(--sapContent_Illustrative_Color3)"/>
<path d="M128.937 112.929H128.929C127.261 112.929 125.908 114.282 125.908 115.95V134.256C125.908 135.924 127.261 137.276 128.929 137.276H128.937C130.605 137.276 131.958 135.924 131.958 134.256V115.95C131.958 114.282 130.605 112.929 128.937 112.929Z" style="fill:var(--sapContent_Illustrative_Color8)"/>
<path d="M117.273 124.757V125.441C117.273 126.922 118.475 128.124 119.957 128.124H137.925C139.407 128.124 140.608 126.922 140.608 125.441V124.757C140.608 123.275 139.407 122.074 137.925 122.074H119.957C118.475 122.074 117.273 123.275 117.273 124.757Z" style="fill:var(--sapContent_Illustrative_Color8)"/>
</svg>
