<svg width="160" height="161" viewBox="0 0 160 161" fill="none" xmlns="http://www.w3.org/2000/svg" id="tnt-Dialog-Help-alternate">
<path d="M105.675 155.393C136.259 148.301 155.303 117.758 148.21 87.1733C141.118 56.5889 110.575 37.5449 79.9903 44.6374C49.4059 51.73 30.3619 82.2731 37.4544 112.858C44.5469 143.442 75.0901 162.486 105.675 155.393Z" style="fill:var(--sapContent_Illustrative_Color6)"/>
<path d="M112.619 146.594C143.204 139.501 162.248 108.958 155.155 78.3738C148.063 47.7894 117.52 28.7455 86.9351 35.838C56.3507 42.9305 37.3067 73.4736 44.3992 104.058C51.4917 134.642 82.0349 153.686 112.619 146.594Z" style="fill:var(--sapContent_Illustrative_Color8)"/>
<path fill-rule="evenodd" clip-rule="evenodd" d="M157.59 77.809C164.995 109.738 145.113 141.625 113.184 149.029C81.2543 156.434 49.3679 136.552 41.9635 104.623C34.5591 72.6934 54.4406 40.807 86.37 33.4026C118.299 25.9982 150.186 45.8796 157.59 77.809ZM155.155 78.3738C162.247 108.958 143.203 139.501 112.619 146.594C82.0346 153.686 51.4914 134.642 44.3989 104.058C37.3064 73.4736 56.3504 42.9305 86.9348 35.838C117.519 28.7455 148.062 47.7894 155.155 78.3738Z" style="fill:var(--sapContent_Illustrative_Color4)"/>
<path d="M109.941 135.041C134.145 129.428 149.216 105.257 143.603 81.053C137.99 56.8491 113.819 41.778 89.6147 47.3909C65.4107 53.0038 50.3397 77.1751 55.9526 101.379C61.5654 125.583 85.7368 140.654 109.941 135.041Z" style="fill:var(--sapContent_Illustrative_Color18)"/>
<path fill-rule="evenodd" clip-rule="evenodd" d="M94.9629 70.4566C88.2603 72.0109 83.0577 78.0769 84.5959 84.7101C84.9283 86.1432 86.3595 87.0356 87.7926 86.7033C89.2257 86.3709 90.1181 84.9397 89.7858 83.5066C89.1084 80.5855 91.4039 76.7509 96.1664 75.6465C100.929 74.542 104.678 76.9749 105.355 79.896C105.724 81.4844 105.513 82.6594 105.075 83.6264C104.606 84.6606 103.811 85.5996 102.789 86.5637C102.327 86.9995 101.856 87.4063 101.363 87.8334L101.208 87.9673C100.684 88.4211 100.105 88.9254 99.6024 89.4392C98.7413 90.319 97.2393 92.0645 97.7838 94.4127L98.3856 97.0076C98.7179 98.4408 100.149 99.3331 101.582 99.0008C103.015 98.6684 103.908 97.2372 103.575 95.8041L103.056 93.5636C103.126 93.4726 103.238 93.3416 103.41 93.1657C103.736 92.8325 104.152 92.4654 104.695 91.995L104.853 91.8587C105.336 91.4411 105.893 90.9587 106.444 90.4392C107.666 89.287 109.039 87.7848 109.927 85.8257C110.845 83.7994 111.18 81.429 110.545 78.6925C109.007 72.0593 101.666 68.9023 94.9629 70.4566Z" style="fill:var(--sapContent_Illustrative_Color4)"/>
<path d="M107.581 107.18C108.079 109.33 106.741 111.477 104.591 111.975C102.441 112.474 100.295 111.135 99.7961 108.986C99.2975 106.836 100.636 104.689 102.786 104.191C104.936 103.692 107.082 105.031 107.581 107.18Z" style="fill:var(--sapContent_Illustrative_Color4)"/>
<path d="M51.601 3.23763C51.1905 3.55129 50.8722 3.96979 50.6795 4.44911C50.4869 4.92842 50.4269 5.45082 50.5061 5.96132L52.0719 18.1528C52.3299 20.1692 54.135 21.0404 55.7154 20.8378C56.3653 20.7784 56.9783 20.5098 57.4623 20.0722C57.9464 19.6345 58.2753 19.0516 58.3997 18.411C58.4506 18.0997 58.4541 17.7825 58.41 17.4701L56.8443 5.27866C56.7866 4.74238 56.5849 4.23168 56.2608 3.80059C55.9366 3.36951 55.502 3.03409 55.0028 2.82982C54.448 2.60248 53.8443 2.5206 53.249 2.59197C52.6536 2.66334 52.0864 2.88559 51.601 3.23763Z" style="fill:var(--sapContent_Illustrative_Color5)"/>
<path d="M1.26459 47.1247C1.13032 47.4692 1.06935 47.8378 1.08557 48.2072C1.10178 48.5766 1.19483 48.9385 1.35877 49.2699C1.5227 49.6013 1.75393 49.8948 2.03769 50.1318C2.32144 50.3688 2.65149 50.544 3.00676 50.6462L14.349 54.481C14.7572 54.6175 15.1886 54.6712 15.6179 54.6392C16.0472 54.6071 16.4658 54.4898 16.8493 54.2942C17.2328 54.0985 17.5734 53.8285 17.8514 53.4997C18.1293 53.1709 18.339 52.7901 18.4681 52.3794C18.5261 52.2115 18.5702 52.0392 18.6 51.8642C18.7195 51.2189 18.5929 50.5523 18.2451 49.9958C17.8974 49.4392 17.3539 49.0332 16.7216 48.8577L5.38356 45.0275C4.97561 44.8903 4.54439 44.8359 4.11515 44.8674C3.6859 44.8989 3.26726 45.0158 2.88371 45.211C2.50015 45.4063 2.1594 45.6762 1.88139 46.0047C1.60338 46.3333 1.39368 46.7141 1.26459 47.1247Z" style="fill:var(--sapContent_Illustrative_Color5)"/>
<path d="M18.1164 18.0702C18.0728 18.4717 18.1114 18.878 18.2301 19.264C18.3488 19.6501 18.5449 20.0079 18.8066 20.3156L30.4055 34.2357C30.9292 34.8571 31.6728 35.252 32.4809 35.3378C33.2889 35.4236 34.0989 35.1937 34.7414 34.6961C35.3354 34.2322 35.7333 33.5619 35.8563 32.8183C35.9266 32.3895 35.9035 31.9507 35.7888 31.5317C35.6741 31.1126 35.4704 30.7233 35.1916 30.3901L23.5928 16.4699C23.0666 15.8447 22.3186 15.4477 21.506 15.3625C20.6933 15.2773 19.8792 15.5105 19.2349 16.013C18.9195 16.2629 18.6579 16.5739 18.4657 16.9274C18.2735 17.2809 18.1547 17.6696 18.1164 18.0702Z" style="fill:var(--sapContent_Illustrative_Color5)"/>
</svg>
