<svg width="320" height="241" viewBox="0 0 320 241" fill="none" xmlns="http://www.w3.org/2000/svg" id="tnt-Scene-Tutorials-alternate">
<path d="M130.352 145.328H33.9433C26.384 145.328 19.1343 148.331 13.789 153.676C8.4438 159.022 5.44092 166.271 5.44092 173.831C5.44092 181.39 8.4438 188.64 13.789 193.985C19.1343 199.33 26.384 202.333 33.9433 202.333H130.392C137.952 202.333 145.201 199.33 150.547 193.985C155.892 188.64 158.895 181.39 158.895 173.831C158.895 166.271 155.892 159.022 150.547 153.676C145.201 148.331 137.952 145.328 130.392 145.328H130.352Z" style="fill:var(--sapContent_Illustrative_Color7)"/>
<path d="M165.474 173.621H69.0146C61.549 173.761 54.4364 176.825 49.2061 182.154C43.9758 187.483 41.0457 194.652 41.0457 202.118C41.0457 209.585 43.9758 216.754 49.2061 222.083C54.4364 227.412 61.549 230.476 69.0146 230.616H165.474C172.939 230.476 180.052 227.412 185.282 222.083C190.512 216.754 193.443 209.585 193.443 202.118C193.443 194.652 190.512 187.483 185.282 182.154C180.052 176.825 172.939 173.761 165.474 173.621Z" style="fill:var(--sapContent_Illustrative_Color7)"/>
<path d="M290.964 94.8026H194.515C190.728 94.7317 186.965 95.4165 183.445 96.8167C179.925 98.217 176.72 100.305 174.017 102.958C171.314 105.611 169.166 108.777 167.7 112.27C166.234 115.762 165.479 119.512 165.479 123.3C165.479 127.088 166.234 130.838 167.7 134.331C169.166 137.823 171.314 140.989 174.017 143.642C176.72 146.295 179.925 148.383 183.445 149.783C186.965 151.184 190.728 151.868 194.515 151.797H290.964C294.751 151.868 298.515 151.184 302.034 149.783C305.554 148.383 308.759 146.295 311.462 143.642C314.166 140.989 316.313 137.823 317.779 134.331C319.245 130.838 320 127.088 320 123.3C320 119.512 319.245 115.762 317.779 112.27C316.313 108.777 314.166 105.611 311.462 102.958C308.759 100.305 305.554 98.217 302.034 96.8167C298.515 95.4165 294.751 94.7317 290.964 94.8026Z" style="fill:var(--sapContent_Illustrative_Color7)"/>
<path d="M219.084 42.7695H37.767C27.7505 42.7695 18.1444 46.7485 11.0617 53.8312C3.979 60.9139 0 70.52 0 80.5364C0 90.5529 3.979 100.159 11.0617 107.242C18.1444 114.324 27.7505 118.303 37.767 118.303H219.084C229.101 118.303 238.707 114.324 245.789 107.242C252.872 100.159 256.851 90.5529 256.851 80.5364C256.851 70.52 252.872 60.9139 245.789 53.8312C238.707 46.7485 229.101 42.7695 219.084 42.7695Z" style="fill:var(--sapContent_Illustrative_Color7)"/>
<rect x="13.9711" y="86.4692" width="202.073" height="134.959" rx="12" transform="rotate(-8.29 13.9711 86.4692)" style="fill:var(--sapContent_Illustrative_Color6)"/>
<path d="M24.1917 92.546C23.3954 87.0809 27.1802 82.005 32.6454 81.2087L203.673 56.2889C209.138 55.4926 214.214 59.2774 215.011 64.7426L230.749 172.759C231.545 178.224 227.761 183.3 222.295 184.096L51.2677 209.016C45.8025 209.812 40.7266 206.027 39.9303 200.562L24.1917 92.546Z" style="fill:var(--sapContent_Illustrative_Color8)"/>
<path fill-rule="evenodd" clip-rule="evenodd" d="M32.2128 78.24L203.241 53.3202C210.345 52.285 216.944 57.2053 217.979 64.31L233.718 172.326C234.753 179.431 229.833 186.03 222.728 187.065L51.7002 211.984C44.5955 213.02 37.9968 208.099 36.9616 200.995L21.223 92.9786C20.1878 85.8739 25.1081 79.2752 32.2128 78.24ZM32.6453 81.2087C27.1802 82.005 23.3954 87.0809 24.1917 92.546L39.9303 200.562C40.7266 206.027 45.8025 209.812 51.2676 209.016L222.295 184.096C227.761 183.3 231.545 178.224 230.749 172.759L215.01 64.7426C214.214 59.2774 209.138 55.4926 203.673 56.2889L32.6453 81.2087Z" style="fill:var(--sapContent_Illustrative_Color4)"/>
<rect x="40.7738" y="115.728" width="166.701" height="58.4949" rx="5" transform="rotate(-8.29 40.7738 115.728)" style="fill:var(--sapContent_Illustrative_Color18)"/>
<path d="M24.1917 92.546C23.3954 87.0809 27.1802 82.005 32.6454 81.2087L203.673 56.2889C209.138 55.4926 214.214 59.2774 215.011 64.7426L217.075 78.9126L26.2564 106.716L24.1917 92.546Z" style="fill:var(--sapContent_Illustrative_Color5)"/>
<circle cx="40.8508" cy="92.6477" r="4.5" transform="rotate(-8.29 40.8508 92.6477)" style="fill:var(--sapContent_Illustrative_Color8)"/>
<circle cx="57.6732" cy="90.1966" r="4.5" transform="rotate(-8.29 57.6732 90.1966)" style="fill:var(--sapContent_Illustrative_Color8)"/>
<circle cx="74.4956" cy="87.7455" r="4.5" transform="rotate(-8.29 74.4956 87.7455)" style="fill:var(--sapContent_Illustrative_Color8)"/>
<path fill-rule="evenodd" clip-rule="evenodd" d="M73.2802 188.422C73.0414 186.783 74.1769 185.26 75.8164 185.021L213.841 164.914C215.481 164.675 217.003 165.811 217.242 167.45C217.481 169.09 216.345 170.612 214.706 170.851L76.6814 190.958C75.0418 191.197 73.5191 190.062 73.2802 188.422Z" style="fill:var(--sapContent_Illustrative_Color6)"/>
<path fill-rule="evenodd" clip-rule="evenodd" d="M73.2783 188.423C73.0394 186.783 74.1749 185.26 75.8145 185.022L121.331 178.391C122.971 178.152 124.493 179.288 124.732 180.927C124.971 182.567 123.836 184.089 122.196 184.328L76.6794 190.959C75.0399 191.198 73.5171 190.062 73.2783 188.423Z" style="fill:var(--sapContent_Illustrative_Color3)"/>
<path d="M134.769 179.465C135.579 185.025 131.728 190.189 126.168 190.999C120.607 191.809 115.443 187.958 114.633 182.398C113.823 176.838 117.674 171.673 123.234 170.863C128.795 170.053 133.959 173.904 134.769 179.465Z" style="fill:var(--sapContent_Illustrative_Color15)"/>
<path fill-rule="evenodd" clip-rule="evenodd" d="M125.735 188.031C129.656 187.459 132.371 183.818 131.8 179.897C131.229 175.976 127.587 173.261 123.667 173.832C119.746 174.403 117.03 178.045 117.601 181.965C118.173 185.886 121.814 188.602 125.735 188.031ZM126.168 190.999C131.728 190.189 135.579 185.025 134.769 179.465C133.959 173.904 128.795 170.053 123.234 170.863C117.674 171.673 113.823 176.838 114.633 182.398C115.443 187.958 120.607 191.809 126.168 190.999Z" style="fill:var(--sapContent_Illustrative_Color8)"/>
<path fill-rule="evenodd" clip-rule="evenodd" d="M53.2441 183.74C54.0638 183.621 54.8252 184.189 54.9446 185.008L56.3937 194.956C56.5131 195.775 55.9454 196.537 55.1256 196.656C54.3059 196.776 53.5445 196.208 53.4251 195.388L51.976 185.441C51.8565 184.621 52.4243 183.86 53.2441 183.74Z" style="fill:var(--sapContent_Illustrative_Color4)"/>
<path fill-rule="evenodd" clip-rule="evenodd" d="M59.3852 182.846C60.2049 182.726 60.9663 183.294 61.0857 184.114L62.5348 194.061C62.6543 194.881 62.0865 195.642 61.2667 195.762C60.447 195.881 59.6856 195.313 59.5662 194.493L58.1171 184.546C57.9977 183.726 58.5654 182.965 59.3852 182.846Z" style="fill:var(--sapContent_Illustrative_Color4)"/>
<path d="M117.152 149.491C115.013 150.981 112.054 149.698 111.678 147.119L109.943 135.207L108.207 123.293C107.832 120.714 110.302 118.64 112.777 119.458L138.338 127.901C141.082 128.807 141.614 132.457 139.242 134.108L117.152 149.491Z" style="fill:var(--sapContent_Illustrative_Color4)"/>
<path d="M238.443 91.2555C237.797 94.7174 240.08 98.0474 243.542 98.6932L295.948 108.47L298.287 95.9334L245.881 86.1566C242.419 85.5108 239.089 87.7936 238.443 91.2555Z" style="fill:var(--sapContent_Illustrative_Color8)"/>
<path fill-rule="evenodd" clip-rule="evenodd" d="M248.113 27.8006C249.2 21.9735 254.805 18.1309 260.632 19.218L313.957 29.1662L301.726 94.7266L248.401 84.7784C242.574 83.6913 236.969 87.5339 235.882 93.361L248.113 27.8006Z" style="fill:var(--sapContent_Illustrative_Color3)"/>
<path fill-rule="evenodd" clip-rule="evenodd" d="M235.658 90.8648C236.544 86.1144 241.113 82.9819 245.864 83.8682L301.811 94.3057L300.895 99.2209L244.947 88.7834C242.911 88.4036 240.953 89.746 240.573 91.7818C240.193 93.8175 241.536 95.7757 243.571 96.1555L299.519 106.593L298.602 111.508L242.654 101.071C237.904 100.184 234.771 95.6151 235.658 90.8648Z" style="fill:var(--sapContent_Illustrative_Color15)"/>
<rect x="270.601" y="35.3674" width="26.6198" height="16.298" transform="rotate(10.5675 270.601 35.3674)" style="fill:var(--sapContent_Illustrative_Color7)"/>
<path d="M250.895 109.981L253.852 94.1302L264.424 96.1024L261.467 111.954L250.895 109.981Z" style="fill:var(--sapContent_Illustrative_Color2)"/>
</svg>
