<svg width="160" height="161" viewBox="0 0 160 161" fill="none" xmlns="http://www.w3.org/2000/svg" id="tnt-Dialog-CodePlaceholder-alternate">
<path d="M136.813 2.18595C137.007 2.43257 137.131 2.72692 137.172 3.03806C137.212 3.34919 137.169 3.66558 137.045 3.95393L134.279 10.8893C133.823 12.0366 132.629 12.276 131.73 11.9177C131.356 11.7845 131.036 11.5337 130.818 11.203C130.599 10.8724 130.494 10.4797 130.518 10.084C130.535 9.89313 130.581 9.70598 130.654 9.52888L133.419 2.59351C133.534 2.28674 133.73 2.01679 133.986 1.81222C134.242 1.60765 134.549 1.47608 134.873 1.43142C135.234 1.38161 135.601 1.42476 135.941 1.55681C136.28 1.68886 136.58 1.90541 136.813 2.18595Z" style="fill:var(--sapContent_Illustrative_Color5)"/>
<path d="M159.786 35.6195C159.813 35.8424 159.793 36.0685 159.728 36.2834C159.662 36.4982 159.553 36.6971 159.406 36.8672C159.26 37.0374 159.079 37.1751 158.877 37.2716C158.674 37.3681 158.453 37.4212 158.229 37.4277L150.976 37.9678C150.715 37.9864 150.453 37.9527 150.206 37.8689C149.958 37.7851 149.729 37.6528 149.533 37.4797C149.337 37.3066 149.178 37.0962 149.064 36.8607C148.95 36.6252 148.884 36.3695 148.871 36.1083C148.862 36.0008 148.862 35.8928 148.871 35.7852C148.898 35.3876 149.074 35.0146 149.362 34.7398C149.651 34.465 150.032 34.3083 150.431 34.3007L157.68 33.7626C157.941 33.7436 158.203 33.7768 158.451 33.8603C158.699 33.9438 158.927 34.0758 159.123 34.2487C159.319 34.4216 159.479 34.6319 159.593 34.8673C159.707 35.1027 159.773 35.3584 159.786 35.6195Z" style="fill:var(--sapContent_Illustrative_Color5)"/>
<path d="M154.27 15.9773C154.235 16.2202 154.15 16.4533 154.022 16.6625C153.894 16.8717 153.724 17.0525 153.524 17.1939L144.594 23.6285C144.192 23.9148 143.695 24.0347 143.207 23.9629C142.718 23.8911 142.277 23.6333 141.974 23.2434C141.695 22.8806 141.562 22.4261 141.602 21.97C141.626 21.7072 141.706 21.4525 141.836 21.2233C141.967 20.9942 142.146 20.7959 142.361 20.6421L151.29 14.2075C151.694 13.9192 152.194 13.7989 152.685 13.8717C153.176 13.9445 153.62 14.2048 153.923 14.5979C154.071 14.7926 154.177 15.0152 154.237 15.2522C154.297 15.4893 154.308 15.7359 154.27 15.9773Z" style="fill:var(--sapContent_Illustrative_Color5)"/>
<rect x="0.824219" y="29.3467" width="128.915" height="128.915" rx="9.25136" style="fill:var(--sapContent_Illustrative_Color6)"/>
<path d="M5.45117 33.9726C5.45117 29.2282 9.29729 25.3821 14.0417 25.3821H125.776C130.52 25.3821 134.366 29.2282 134.366 33.9726V145.707C134.366 150.451 130.52 154.297 125.776 154.297H14.0417C9.2973 154.297 5.45117 150.451 5.45117 145.707V33.9726Z" style="fill:var(--sapContent_Illustrative_Color8)"/>
<path fill-rule="evenodd" clip-rule="evenodd" d="M125.776 27.8821H14.0417C10.678 27.8821 7.95117 30.6089 7.95117 33.9726V145.707C7.95117 149.07 10.678 151.797 14.0417 151.797H125.776C129.139 151.797 131.866 149.07 131.866 145.707V33.9726C131.866 30.6089 129.139 27.8821 125.776 27.8821ZM14.0417 25.3821C9.29729 25.3821 5.45117 29.2282 5.45117 33.9726V145.707C5.45117 150.451 9.2973 154.297 14.0417 154.297H125.776C130.52 154.297 134.366 150.451 134.366 145.707V33.9726C134.366 29.2282 130.52 25.3821 125.776 25.3821H14.0417Z" style="fill:var(--sapContent_Illustrative_Color4)"/>
<path fill-rule="evenodd" clip-rule="evenodd" d="M20.6908 144.342C17.7711 144.342 15.4043 141.975 15.4043 139.055V125.853C18.1657 125.853 20.4043 128.091 20.4043 130.853V139.055C20.4043 139.214 20.5326 139.342 20.6908 139.342H28.8935C31.6549 139.342 33.8935 141.581 33.8935 144.342H20.6908ZM66.7043 144.342C66.7043 141.581 64.4658 139.342 61.7043 139.342H45.2989C42.5375 139.342 40.2989 141.581 40.2989 144.342H66.7043ZM99.5152 144.342C99.5152 141.581 97.2766 139.342 94.5152 139.342H78.1098C75.3483 139.342 73.1098 141.581 73.1098 144.342H99.5152ZM124.41 125.853C121.648 125.853 119.41 128.091 119.41 130.853V139.055C119.41 139.214 119.282 139.342 119.123 139.342H110.921C108.159 139.342 105.921 141.581 105.921 144.342H119.123C122.043 144.342 124.41 141.975 124.41 139.055V125.853ZM124.41 93.0419C121.648 93.0419 119.41 95.2805 119.41 98.0419V114.447C119.41 117.209 121.648 119.447 124.41 119.447V93.0419ZM124.41 60.2311C121.648 60.2311 119.41 62.4696 119.41 65.2311V81.6365C119.41 84.3979 121.648 86.6365 124.41 86.6365V60.2311ZM105.921 35.3364C105.921 38.0978 108.159 40.3364 110.921 40.3364H119.123C119.282 40.3364 119.41 40.4647 119.41 40.6229V48.8256C119.41 51.5871 121.648 53.8256 124.41 53.8256V40.6229C124.41 37.7033 122.043 35.3364 119.123 35.3364H105.921ZM73.1098 35.3364C73.1098 38.0978 75.3483 40.3364 78.1098 40.3364H94.5152C97.2766 40.3364 99.5152 38.0978 99.5152 35.3364H73.1098ZM40.2989 35.3364C40.2989 38.0978 42.5375 40.3364 45.2989 40.3364H61.7043C64.4658 40.3364 66.7043 38.0978 66.7043 35.3364H40.2989ZM15.4043 53.8256C18.1657 53.8256 20.4043 51.5871 20.4043 48.8256V40.6229C20.4043 40.4647 20.5326 40.3364 20.6908 40.3364H28.8935C31.6549 40.3364 33.8935 38.0978 33.8935 35.3364H20.6908C17.7711 35.3364 15.4043 37.7033 15.4043 40.6229V53.8256ZM15.4043 86.6365C18.1657 86.6365 20.4043 84.3979 20.4043 81.6365V65.231C20.4043 62.4696 18.1657 60.231 15.4043 60.231V86.6365ZM15.4043 119.447C18.1657 119.447 20.4043 117.209 20.4043 114.447V98.0419C20.4043 95.2805 18.1657 93.0419 15.4043 93.0419V119.447Z" style="fill:var(--sapContent_Illustrative_Color19)"/>
</svg>
