<svg width="320" height="241" viewBox="0 0 320 241" fill="none" xmlns="http://www.w3.org/2000/svg" id="tnt-Scene-SessionExpiring-alternate">
<path d="M130.352 144.918H33.9433C26.384 144.918 19.1343 147.921 13.789 153.267C8.4438 158.612 5.44092 165.862 5.44092 173.421C5.44092 180.98 8.4438 188.23 13.789 193.575C19.1343 198.92 26.384 201.923 33.9433 201.923H130.392C137.952 201.923 145.201 198.92 150.547 193.575C155.892 188.23 158.895 180.98 158.895 173.421C158.895 165.862 155.892 158.612 150.547 153.267C145.201 147.921 137.952 144.918 130.392 144.918H130.352Z" style="fill:var(--sapContent_Illustrative_Color7)"/>
<path d="M165.474 173.211H69.0146C61.549 173.351 54.4364 176.415 49.2061 181.744C43.9758 187.073 41.0457 194.242 41.0457 201.709C41.0457 209.176 43.9758 216.344 49.2061 221.673C54.4364 227.002 61.549 230.066 69.0146 230.206H165.474C172.939 230.066 180.052 227.002 185.282 221.673C190.512 216.344 193.443 209.176 193.443 201.709C193.443 194.242 190.512 187.073 185.282 181.744C180.052 176.415 172.939 173.351 165.474 173.211Z" style="fill:var(--sapContent_Illustrative_Color7)"/>
<path d="M290.964 94.3927H194.515C190.728 94.3218 186.965 95.0065 183.445 96.4068C179.925 97.8071 176.72 99.8949 174.017 102.548C171.314 105.201 169.166 108.367 167.7 111.86C166.234 115.352 165.479 119.102 165.479 122.89C165.479 126.678 166.234 130.428 167.7 133.921C169.166 137.413 171.314 140.579 174.017 143.232C176.72 145.885 179.925 147.973 183.445 149.373C186.965 150.774 190.728 151.458 194.515 151.388H290.964C294.751 151.458 298.515 150.774 302.034 149.373C305.554 147.973 308.759 145.885 311.462 143.232C314.166 140.579 316.313 137.413 317.779 133.921C319.245 130.428 320 126.678 320 122.89C320 119.102 319.245 115.352 317.779 111.86C316.313 108.367 314.166 105.201 311.462 102.548C308.759 99.8949 305.554 97.8071 302.034 96.4068C298.515 95.0065 294.751 94.3218 290.964 94.3927Z" style="fill:var(--sapContent_Illustrative_Color7)"/>
<path d="M219.084 42.3596H37.767C27.7505 42.3596 18.1444 46.3386 11.0617 53.4213C3.979 60.504 0 70.1102 0 80.1266C0 90.143 3.979 99.7492 11.0617 106.832C18.1444 113.915 27.7505 117.894 37.767 117.894H219.084C229.101 117.894 238.707 113.915 245.789 106.832C252.872 99.7492 256.851 90.143 256.851 80.1266C256.851 70.1102 252.872 60.504 245.789 53.4213C238.707 46.3386 229.101 42.3596 219.084 42.3596Z" style="fill:var(--sapContent_Illustrative_Color7)"/>
<path fill-rule="evenodd" clip-rule="evenodd" d="M198.259 139.744C191.953 135.148 183.618 130.523 172.398 125.433C172.283 125.381 172.171 125.322 172.059 125.263C171.493 124.965 169.596 123.992 167.179 122.142C165.467 120.831 164.811 118.278 165.674 116.303C166.921 113.449 168.141 111.644 168.494 111.109C168.562 111.007 168.63 110.904 168.703 110.807C176.107 100.901 181.188 92.8322 184.483 85.8072C187.546 79.2545 189.084 73.6113 189.589 68.2329C190.405 59.8069 188.636 51.9786 186.181 42.3408C185.909 41.2704 184.818 40.6257 183.748 40.9002L100.887 62.1607C99.8253 62.433 99.18 63.5091 99.4442 64.5726C101.829 74.1728 104.1 81.8783 108.889 88.9387C111.982 93.394 116.075 97.5924 121.916 101.86C128.222 106.457 136.558 111.082 147.776 116.171C147.893 116.223 148.006 116.283 148.119 116.343C148.673 116.634 150.486 117.565 152.811 119.322C154.634 120.699 155.335 123.428 154.407 125.517C153.198 128.237 152.033 129.963 151.685 130.49C151.616 130.596 151.546 130.702 151.47 130.803C144.066 140.707 138.987 148.773 135.693 155.798C132.629 162.349 131.091 167.994 130.586 173.372C129.771 181.798 131.539 189.625 133.994 199.264C134.267 200.334 135.357 200.979 136.427 200.705L219.29 179.444C220.351 179.172 220.996 178.095 220.732 177.032C218.347 167.432 216.076 159.726 211.286 152.666C208.194 148.211 204.1 144.011 198.259 139.744Z" style="fill:var(--sapContent_Illustrative_Color8)"/>
<path fill-rule="evenodd" clip-rule="evenodd" d="M184.483 85.8072C181.188 92.8323 176.107 100.901 168.703 110.807C168.63 110.905 168.562 111.007 168.494 111.109C168.481 111.129 168.467 111.15 168.452 111.173C168.051 111.778 166.875 113.554 165.674 116.303C164.811 118.278 165.467 120.831 167.179 122.142C169.507 123.924 171.352 124.892 171.991 125.227C172.015 125.24 172.038 125.252 172.059 125.263C172.171 125.322 172.283 125.381 172.398 125.433C183.618 130.523 191.953 135.148 198.259 139.744C204.1 144.011 208.194 148.211 211.286 152.666C216.076 159.726 218.347 167.432 220.732 177.032C220.996 178.095 220.351 179.172 219.29 179.444L136.427 200.705C135.357 200.979 134.267 200.334 133.994 199.264C131.539 189.625 129.771 181.798 130.586 173.372C131.091 167.994 132.629 162.349 135.693 155.798C138.987 148.773 144.067 140.707 151.47 130.803C151.546 130.702 151.616 130.596 151.685 130.491C151.698 130.471 151.713 130.449 151.728 130.425C152.121 129.831 153.244 128.134 154.407 125.517C155.335 123.428 154.634 120.699 152.811 119.322C150.573 117.631 148.81 116.705 148.187 116.378C148.163 116.365 148.14 116.354 148.119 116.343C148.006 116.283 147.893 116.223 147.776 116.171C136.558 111.082 128.223 106.457 121.916 101.861C116.075 97.5925 111.982 93.3941 108.889 88.9388C104.1 81.8784 101.829 74.1728 99.4443 64.5727C99.1801 63.5092 99.8254 62.4331 100.887 62.1607L183.748 40.9003C184.818 40.6258 185.909 41.2705 186.181 42.3409C188.636 51.9787 190.405 59.807 189.589 68.233C189.084 73.6114 187.546 79.2545 184.483 85.8072ZM192.576 68.5172C192.033 74.2887 190.386 80.2647 187.201 87.0778L187.199 87.0812C183.783 94.3635 178.572 102.615 171.106 112.603C171.093 112.62 171.071 112.651 170.997 112.763C170.985 112.782 170.971 112.803 170.956 112.826C170.586 113.383 169.521 114.991 168.423 117.504C168.111 118.217 168.389 119.29 169.002 119.76C171.129 121.387 172.8 122.264 173.389 122.573C173.414 122.586 173.436 122.598 173.456 122.608C173.58 122.673 173.616 122.691 173.638 122.701C184.953 127.834 193.491 132.556 200.026 137.32L198.261 139.742L200.029 137.322C206.098 141.756 210.441 146.187 213.751 150.956L213.76 150.969L213.769 150.982C218.885 158.523 221.255 166.693 223.644 176.309C224.307 178.979 222.686 181.67 220.035 182.35L137.173 203.611C134.5 204.296 131.77 202.686 131.087 200.004C128.639 190.395 126.729 182.097 127.6 173.087C128.142 167.316 129.79 161.339 132.975 154.527L132.976 154.524C136.391 147.242 141.602 138.993 149.067 129.007C149.082 128.988 149.104 128.955 149.181 128.839C149.194 128.819 149.208 128.798 149.223 128.775C149.587 128.225 150.603 126.69 151.665 124.299C152.029 123.48 151.709 122.249 151.003 121.716L151.002 121.716C148.959 120.172 147.364 119.335 146.788 119.032C146.764 119.02 146.742 119.008 146.721 118.997C146.597 118.931 146.56 118.913 146.537 118.903C135.223 113.77 126.685 109.048 120.149 104.285L120.146 104.283C114.077 99.8479 109.734 95.4179 106.425 90.6493L106.416 90.6361L106.407 90.6228C101.292 83.082 98.9216 74.9118 96.5328 65.296C95.8695 62.6262 97.4907 59.9349 100.141 59.2549L183.003 37.9944C185.676 37.3086 188.406 38.9186 189.089 41.6005C191.536 51.2095 193.447 59.5081 192.576 68.5172Z" style="fill:var(--sapContent_Illustrative_Color4)"/>
<path fill-rule="evenodd" clip-rule="evenodd" d="M127.416 92.0781C126.549 93.4896 124.701 93.9304 123.29 93.0627C117.33 89.399 110.021 80.9201 107.362 70.5538C106.95 68.9489 107.917 67.3141 109.522 66.9024C111.127 66.4906 112.762 67.4578 113.173 69.0626C115.429 77.8555 121.738 85.0661 126.432 87.9513C127.843 88.819 128.284 90.6667 127.416 92.0781Z" style="fill:var(--sapContent_Illustrative_Color6)"/>
<path fill-rule="evenodd" clip-rule="evenodd" d="M86.1879 52.1743C87.7927 51.7625 89.4276 52.7297 89.8393 54.3346L129.136 207.491C129.548 209.096 128.58 210.73 126.976 211.142C125.371 211.554 123.736 210.587 123.324 208.982L84.0276 55.8258C83.6158 54.2209 84.583 52.5861 86.1879 52.1743Z" style="fill:var(--sapContent_Illustrative_Color4)"/>
<path fill-rule="evenodd" clip-rule="evenodd" d="M192.009 25.0232C193.614 24.6114 195.249 25.5786 195.661 27.1835L234.957 180.34C235.369 181.945 234.402 183.579 232.797 183.991C231.192 184.403 229.557 183.436 229.146 181.831L189.849 28.6746C189.437 27.0698 190.405 25.4349 192.009 25.0232Z" style="fill:var(--sapContent_Illustrative_Color4)"/>
<path fill-rule="evenodd" clip-rule="evenodd" d="M209.901 178.052C211.818 177.56 211.97 174.779 210.157 173.987C201.271 170.104 192.537 164.747 185.076 159.555C174.588 152.256 158.871 156.446 153.662 168.114C150.162 175.953 145.877 184.474 141.04 191.936C140.019 193.51 141.467 195.611 143.284 195.144L209.901 178.052ZM220.7 177.8C220.658 177.788 220.614 177.813 220.602 177.856C220.371 178.664 219.727 179.331 218.854 179.555L136.867 200.592C136.221 200.757 135.568 200.65 135.032 200.341C134.991 200.317 134.939 200.326 134.908 200.362C134.872 200.406 134.882 200.472 134.931 200.5C135.368 200.752 135.9 200.84 136.427 200.705L219.289 179.444C220.062 179.246 220.614 178.622 220.755 177.887C220.763 177.848 220.739 177.81 220.7 177.8Z" style="fill:var(--sapContent_Illustrative_Color3)"/>
<path fill-rule="evenodd" clip-rule="evenodd" d="M158.443 122.531C158.496 123.015 158.589 123.496 158.776 123.946L161.404 130.287C161.843 131.345 163.426 130.955 163.324 129.815L162.727 123.154C162.679 122.622 162.515 122.11 162.308 121.618C161.413 119.48 161.354 116.995 162.3 114.829L162.3 114.829C163.628 111.789 164.941 109.807 165.384 109.137L165.402 109.111C165.483 108.988 165.619 108.783 165.779 108.569C170.07 102.827 173.534 97.7573 176.3 93.1944C178.071 90.271 175.388 86.8933 172.077 87.7429L133.72 97.585C130.409 98.4346 129.683 102.687 132.642 104.397C137.271 107.072 142.745 109.845 149.258 112.8C149.508 112.914 149.733 113.032 149.869 113.104L149.869 113.104L149.87 113.104L149.895 113.117C150.583 113.479 152.552 114.513 155.029 116.384C156.985 117.861 158.181 120.145 158.443 122.531ZM165.565 116.577C165.565 116.577 165.565 116.577 165.565 116.577C165.565 116.577 165.565 116.577 165.566 116.577C165.599 116.484 165.635 116.393 165.674 116.303C166.875 113.554 168.052 111.778 168.452 111.173L168.452 111.173L168.495 111.109C168.516 111.077 168.538 111.044 168.559 111.012C168.53 111.056 168.5 111.1 168.471 111.144L168.452 111.173C168.051 111.778 166.875 113.554 165.674 116.303C165.634 116.393 165.598 116.484 165.565 116.577ZM168.687 110.829C168.692 110.821 168.698 110.814 168.703 110.806C176.108 100.901 181.188 92.8321 184.483 85.8071C184.705 85.3317 184.92 84.8612 185.126 84.3952C185.126 84.395 185.126 84.3948 185.126 84.3949C185.126 84.3949 185.126 84.3949 185.126 84.395C184.919 84.8611 184.705 85.3317 184.483 85.8071C181.192 92.8242 176.119 100.882 168.728 110.773C168.714 110.791 168.7 110.81 168.687 110.829Z" style="fill:var(--sapContent_Illustrative_Color3)"/>
<rect x="74.1245" y="53.6152" width="133.136" height="15.2035" rx="5" transform="rotate(-14.3904 74.1245 53.6152)" style="fill:var(--sapContent_Illustrative_Color5)"/>
<rect x="113.138" y="205.67" width="133.136" height="15.2035" rx="5" transform="rotate(-14.3904 113.138 205.67)" style="fill:var(--sapContent_Illustrative_Color5)"/>
</svg>
