<svg width="320" height="241" viewBox="0 0 320 241" fill="none" xmlns="http://www.w3.org/2000/svg" id="tnt-Scene-NoApplications-alternate">
<path d="M130.353 145.031H33.9438C26.3845 145.031 19.1348 148.034 13.7895 153.379C8.44429 158.725 5.44141 165.974 5.44141 173.534C5.44141 181.093 8.44429 188.343 13.7895 193.688C19.1348 199.033 26.3845 202.036 33.9438 202.036H130.393C137.952 202.036 145.202 199.033 150.547 193.688C155.892 188.343 158.895 181.093 158.895 173.534C158.895 165.974 155.892 158.725 150.547 153.379C145.202 148.034 137.952 145.031 130.393 145.031H130.353Z" style="fill:var(--sapContent_Illustrative_Color7)"/>
<path d="M165.473 173.324H69.0139C61.5483 173.464 54.4356 176.528 49.2054 181.857C43.9751 187.186 41.0449 194.354 41.0449 201.821C41.0449 209.288 43.9751 216.457 49.2054 221.786C54.4356 227.115 61.5483 230.179 69.0139 230.319H165.473C172.938 230.179 180.051 227.115 185.281 221.786C190.512 216.457 193.442 209.288 193.442 201.821C193.442 194.354 190.512 187.186 185.281 181.857C180.051 176.528 172.938 173.464 165.473 173.324Z" style="fill:var(--sapContent_Illustrative_Color7)"/>
<path d="M290.963 94.5055H194.514C190.727 94.4346 186.964 95.1193 183.444 96.5196C179.925 97.9199 176.72 100.008 174.016 102.661C171.313 105.314 169.165 108.48 167.699 111.972C166.234 115.465 165.479 119.215 165.479 123.003C165.479 126.791 166.234 130.541 167.699 134.033C169.165 137.526 171.313 140.692 174.016 143.345C176.72 145.998 179.925 148.086 183.444 149.486C186.964 150.886 190.727 151.571 194.514 151.5H290.963C294.751 151.571 298.514 150.886 302.033 149.486C305.553 148.086 308.758 145.998 311.462 143.345C314.165 140.692 316.312 137.526 317.778 134.033C319.244 130.541 319.999 126.791 319.999 123.003C319.999 119.215 319.244 115.465 317.778 111.972C316.312 108.48 314.165 105.314 311.462 102.661C308.758 100.008 305.553 97.9199 302.033 96.5196C298.514 95.1193 294.751 94.4346 290.963 94.5055Z" style="fill:var(--sapContent_Illustrative_Color7)"/>
<path d="M219.084 42.4724H37.767C27.7505 42.4724 18.1444 46.4514 11.0617 53.5341C3.979 60.6168 0 70.2229 0 80.2394C0 90.2558 3.979 99.8619 11.0617 106.945C18.1444 114.027 27.7505 118.006 37.767 118.006H219.084C229.101 118.006 238.707 114.027 245.789 106.945C252.872 99.8619 256.851 90.2558 256.851 80.2394C256.851 70.2229 252.872 60.6168 245.789 53.5341C238.707 46.4514 229.101 42.4724 219.084 42.4724Z" style="fill:var(--sapContent_Illustrative_Color7)"/>
<rect x="36.1855" y="77.0867" width="202.073" height="134.959" rx="12" transform="rotate(-8.29 36.1855 77.0867)" style="fill:var(--sapContent_Illustrative_Color6)"/>
<path d="M46.4067 83.1636C45.6104 77.6984 49.3952 72.6225 54.8604 71.8262L225.888 46.9065C231.353 46.1102 236.429 49.895 237.225 55.3601L252.964 163.376C253.76 168.841 249.976 173.917 244.51 174.714L73.4826 199.633C68.0175 200.43 62.9416 196.645 62.1453 191.18L46.4067 83.1636Z" style="fill:var(--sapContent_Illustrative_Color8)"/>
<path fill-rule="evenodd" clip-rule="evenodd" d="M54.4267 68.8575L225.454 43.9378C232.559 42.9026 239.158 47.8229 240.193 54.9276L255.932 162.944C256.967 170.048 252.046 176.647 244.942 177.682L73.914 202.602C66.8094 203.637 60.2107 198.717 59.1755 191.612L43.4369 83.5961C42.4017 76.4914 47.322 69.8927 54.4267 68.8575ZM54.8592 71.8262C49.3941 72.6225 45.6092 77.6984 46.4055 83.1636L62.1441 191.18C62.9404 196.645 68.0163 200.43 73.4815 199.633L244.509 174.714C249.974 173.917 253.759 168.841 252.963 163.376L237.224 55.3601C236.428 49.895 231.352 46.1101 225.887 46.9064L54.8592 71.8262Z" style="fill:var(--sapContent_Illustrative_Color4)"/>
<path d="M46.4067 83.1636C45.6104 77.6984 49.3952 72.6225 54.8604 71.8262L225.888 46.9065C231.353 46.1102 236.429 49.895 237.225 55.3601L239.29 69.5301L48.4713 97.3336L46.4067 83.1636Z" style="fill:var(--sapContent_Illustrative_Color5)"/>
<circle cx="63.0647" cy="83.2653" r="4.5" transform="rotate(-8.29 63.0647 83.2653)" style="fill:var(--sapContent_Illustrative_Color8)"/>
<circle cx="79.887" cy="80.8142" r="4.5" transform="rotate(-8.29 79.887 80.8142)" style="fill:var(--sapContent_Illustrative_Color8)"/>
<circle cx="96.7092" cy="78.363" r="4.5" transform="rotate(-8.29 96.7092 78.363)" style="fill:var(--sapContent_Illustrative_Color8)"/>
<rect x="68.2461" y="111.885" width="60" height="29" rx="3" transform="rotate(-8.29 68.2461 111.885)" style="fill:var(--sapContent_Illustrative_Color18)"/>
<rect x="137.516" y="101.793" width="60" height="29" rx="3" transform="rotate(-8.29 137.516 101.793)" style="fill:var(--sapContent_Illustrative_Color18)"/>
<rect x="73.8691" y="150.478" width="60" height="29" rx="3" transform="rotate(-8.29 73.8691 150.478)" style="fill:var(--sapContent_Illustrative_Color18)"/>
<path d="M255.789 7.0734C256.083 7.4466 256.27 7.89205 256.332 8.36288C256.394 8.83371 256.327 9.3125 256.14 9.74887L251.955 20.2441C251.264 21.9803 249.457 22.3425 248.097 21.8004C247.532 21.5988 247.048 21.2193 246.717 20.7189C246.386 20.2185 246.227 19.6242 246.263 19.0254C246.289 18.7366 246.358 18.4534 246.469 18.1854L250.654 7.69015C250.828 7.22592 251.124 6.81741 251.512 6.50784C251.899 6.19827 252.363 5.99916 252.854 5.93157C253.4 5.85619 253.956 5.9215 254.47 6.12133C254.983 6.32115 255.437 6.64886 255.789 7.0734Z" style="fill:var(--sapContent_Illustrative_Color5)"/>
<path d="M290.555 57.6684C290.596 58.0058 290.566 58.348 290.467 58.6731C290.368 58.9982 290.202 59.2991 289.98 59.5566C289.758 59.8141 289.485 60.0225 289.178 60.1685C288.872 60.3145 288.538 60.395 288.198 60.4047L277.222 61.2221C276.828 61.2502 276.431 61.1993 276.057 61.0724C275.682 60.9456 275.336 60.7454 275.039 60.4834C274.743 60.2215 274.501 59.903 274.329 59.5467C274.157 59.1904 274.057 58.8033 274.036 58.4082C274.023 58.2454 274.023 58.0819 274.037 57.9192C274.078 57.3174 274.344 56.753 274.781 56.3371C275.218 55.9213 275.794 55.6842 276.398 55.6727L287.368 54.8584C287.763 54.8296 288.159 54.8799 288.534 55.0062C288.909 55.1325 289.255 55.3324 289.552 55.594C289.849 55.8557 290.09 56.1739 290.262 56.5301C290.435 56.8863 290.534 57.2733 290.555 57.6684Z" style="fill:var(--sapContent_Illustrative_Color5)"/>
<path d="M282.205 27.9441C282.152 28.3116 282.024 28.6644 281.83 28.981C281.636 29.2975 281.379 29.5711 281.076 29.7852L267.563 39.5226C266.955 39.9559 266.202 40.1372 265.463 40.0286C264.724 39.92 264.056 39.5299 263.598 38.9398C263.175 38.3908 262.974 37.703 263.035 37.0128C263.071 36.615 263.192 36.2296 263.39 35.8828C263.588 35.536 263.858 35.236 264.183 35.0032L277.695 25.2658C278.307 24.8296 279.064 24.6474 279.807 24.7576C280.55 24.8678 281.221 25.2617 281.68 25.8566C281.903 26.1513 282.065 26.4881 282.155 26.8468C282.245 27.2055 282.262 27.5787 282.205 27.9441Z" style="fill:var(--sapContent_Illustrative_Color5)"/>
<path d="M235.918 210.575C255.203 210.575 270.836 194.942 270.836 175.657C270.836 156.372 255.203 140.739 235.918 140.739C216.633 140.739 201 156.372 201 175.657C201 194.942 216.633 210.575 235.918 210.575Z" style="fill:var(--sapContent_Illustrative_Color3)"/>
<path d="M235.93 156.643H235.918C233.312 156.643 231.199 158.756 231.199 161.361V189.954C231.199 192.56 233.312 194.672 235.918 194.672H235.93C238.536 194.672 240.649 192.56 240.649 189.954V161.361C240.649 158.756 238.536 156.643 235.93 156.643Z" style="fill:var(--sapContent_Illustrative_Color8)"/>
<path d="M217.711 175.118V176.185C217.711 178.5 219.587 180.376 221.902 180.376H249.968C252.282 180.376 254.159 178.5 254.159 176.185V175.118C254.159 172.803 252.282 170.927 249.968 170.927H221.902C219.587 170.927 217.711 172.803 217.711 175.118Z" style="fill:var(--sapContent_Illustrative_Color8)"/>
</svg>
