<svg width="128" height="128" viewBox="0 0 128 128" fill="none" xmlns="http://www.w3.org/2000/svg" id="tnt-Spot-ChartBPMNFlow-alternate">
<rect x="-1.26025" y="46.4549" width="113.183" height="75.5919" rx="6.72132" transform="rotate(-16.24 -1.26025 46.4549)" style="fill:var(--sapContent_Illustrative_Color6)"/>
<path d="M4.87989 49.0339C4.01478 46.0639 5.72112 42.955 8.69109 42.0899L101.634 15.017C104.604 14.1519 107.713 15.8582 108.578 18.8282L125.677 77.5284C126.542 80.4984 124.836 83.6073 121.866 84.4724L28.9224 111.545C25.9524 112.41 22.8434 110.704 21.9783 107.734L4.87989 49.0339Z" style="fill:var(--sapContent_Illustrative_Color8)"/>
<path fill-rule="evenodd" clip-rule="evenodd" d="M8.13179 40.1697L101.075 13.0968C105.106 11.9228 109.325 14.2384 110.499 18.2689L127.597 76.9691C128.771 80.9996 126.455 85.2186 122.425 86.3926L29.4817 113.466C25.4512 114.64 21.2322 112.324 20.0582 108.293L2.95972 49.5932C1.78571 45.5627 4.10133 41.3437 8.13179 40.1697ZM8.69112 42.0899C5.72114 42.955 4.01481 46.0639 4.87992 49.0339L21.9784 107.734C22.8435 110.704 25.9524 112.41 28.9224 111.545L121.866 84.4724C124.836 83.6073 126.542 80.4984 125.677 77.5284L108.578 18.8282C107.713 15.8582 104.604 14.1519 101.634 15.017L8.69112 42.0899Z" style="fill:var(--sapContent_Illustrative_Color4)"/>
<path d="M4.87989 49.0339C4.01478 46.0639 5.72111 42.955 8.69109 42.0899L101.634 15.017C104.604 14.1519 107.713 15.8582 108.578 18.8282L110.821 26.5287L7.12293 56.7344L4.87989 49.0339Z" style="fill:var(--sapContent_Illustrative_Color5)"/>
<circle cx="14.1292" cy="47.7998" r="2.5205" transform="rotate(-16.24 14.1292 47.7998)" style="fill:var(--sapContent_Illustrative_Color8)"/>
<circle cx="23.2713" cy="45.1369" r="2.5205" transform="rotate(-16.24 23.2713 45.1369)" style="fill:var(--sapContent_Illustrative_Color8)"/>
<circle cx="32.4129" cy="42.4739" r="2.5205" transform="rotate(-16.24 32.4129 42.4739)" style="fill:var(--sapContent_Illustrative_Color8)"/>
<rect x="16.9194" y="61.1566" width="93.1985" height="44.2274" rx="2.81362" transform="rotate(-16.24 16.9194 61.1566)" style="fill:var(--sapContent_Illustrative_Color7)"/>
<path fill-rule="evenodd" clip-rule="evenodd" d="M34.7377 89.0194L92.6993 72.1361L93.1714 73.7569L35.2098 90.6402L34.7377 89.0194Z" style="fill:var(--sapContent_Illustrative_Color4)"/>
<path fill-rule="evenodd" clip-rule="evenodd" d="M95.3542 53.7794L100.075 69.9875L98.4546 70.4597L93.7334 54.2516L95.3542 53.7794Z" style="fill:var(--sapContent_Illustrative_Color4)"/>
<path fill-rule="evenodd" clip-rule="evenodd" d="M63.6096 64.7844L67.8586 79.3717L66.2378 79.8438L61.9887 65.2565L63.6096 64.7844Z" style="fill:var(--sapContent_Illustrative_Color4)"/>
<path fill-rule="evenodd" clip-rule="evenodd" d="M33.2805 68.0507L92.17 50.8971L92.6421 52.5179L33.7527 69.6715L33.2805 68.0507Z" style="fill:var(--sapContent_Illustrative_Color4)"/>
<circle cx="38.2739" cy="89.2175" r="5.06451" transform="rotate(-16.24 38.2739 89.2175)" style="fill:var(--sapContent_Illustrative_Color2)"/>
<circle cx="32.4511" cy="69.2275" r="5.06451" transform="rotate(-16.24 32.4511 69.2275)" style="fill:var(--sapContent_Illustrative_Color13)"/>
<circle cx="93.1059" cy="51.5598" r="5.06451" transform="rotate(-16.24 93.1059 51.5598)" style="fill:var(--sapContent_Illustrative_Color3)"/>
<rect x="47.5283" y="58.9187" width="25.873" height="11.2545" rx="1.12555" transform="rotate(-16.24 47.5283 58.9187)" style="fill:var(--sapContent_Illustrative_Color2)"/>
<rect x="83.9883" y="69.9846" width="25.0106" height="11.2545" rx="1.12555" transform="rotate(-16.24 83.9883 69.9846)" style="fill:var(--sapContent_Illustrative_Color13)"/>
<rect x="65.6577" y="73.5656" width="9.94761" height="9.94761" rx="1.12555" transform="rotate(28.76 65.6577 73.5656)" style="fill:var(--sapContent_Illustrative_Color14)"/>
</svg>
