<svg width="320" height="241" viewBox="0 0 320 241" fill="none" xmlns="http://www.w3.org/2000/svg" id="tnt-Scene-FaceID-alternate">
<path d="M130.352 145.031H33.9433C26.384 145.031 19.1343 148.034 13.789 153.379C8.4438 158.725 5.44092 165.974 5.44092 173.534C5.44092 181.093 8.4438 188.343 13.789 193.688C19.1343 199.033 26.384 202.036 33.9433 202.036H130.392C137.952 202.036 145.201 199.033 150.547 193.688C155.892 188.343 158.895 181.093 158.895 173.534C158.895 165.974 155.892 158.725 150.547 153.379C145.201 148.034 137.952 145.031 130.392 145.031H130.352Z" style="fill:var(--sapContent_Illustrative_Color7)"/>
<path d="M165.474 173.324H69.0149C61.5493 173.464 54.4366 176.528 49.2063 181.857C43.9761 187.186 41.0459 194.354 41.0459 201.821C41.0459 209.288 43.9761 216.457 49.2063 221.786C54.4366 227.115 61.5493 230.179 69.0149 230.319H165.474C172.939 230.179 180.052 227.115 185.282 221.786C190.513 216.457 193.443 209.288 193.443 201.821C193.443 194.354 190.513 187.186 185.282 181.857C180.052 176.528 172.939 173.464 165.474 173.324Z" style="fill:var(--sapContent_Illustrative_Color7)"/>
<path d="M290.964 94.5055H194.515C190.728 94.4346 186.965 95.1193 183.445 96.5196C179.926 97.9199 176.721 100.008 174.017 102.661C171.314 105.314 169.166 108.48 167.7 111.972C166.235 115.465 165.479 119.215 165.479 123.003C165.479 126.791 166.235 130.541 167.7 134.033C169.166 137.526 171.314 140.692 174.017 143.345C176.721 145.998 179.926 148.086 183.445 149.486C186.965 150.886 190.728 151.571 194.515 151.5H290.964C294.752 151.571 298.515 150.886 302.034 149.486C305.554 148.086 308.759 145.998 311.463 143.345C314.166 140.692 316.313 137.526 317.779 134.033C319.245 130.541 320 126.791 320 123.003C320 119.215 319.245 115.465 317.779 111.972C316.313 108.48 314.166 105.314 311.463 102.661C308.759 100.008 305.554 97.9199 302.034 96.5196C298.515 95.1193 294.752 94.4346 290.964 94.5055Z" style="fill:var(--sapContent_Illustrative_Color7)"/>
<path d="M219.084 42.4724H37.767C27.7505 42.4724 18.1444 46.4514 11.0617 53.5341C3.979 60.6168 0 70.2229 0 80.2394C0 90.2558 3.979 99.8619 11.0617 106.945C18.1444 114.027 27.7505 118.006 37.767 118.006H219.084C229.101 118.006 238.707 114.027 245.789 106.945C252.872 99.8619 256.851 90.2558 256.851 80.2394C256.851 70.2229 252.872 60.6168 245.789 53.5341C238.707 46.4514 229.101 42.4724 219.084 42.4724Z" style="fill:var(--sapContent_Illustrative_Color7)"/>
<ellipse cx="14.2596" cy="17.6255" rx="14.2596" ry="17.6255" transform="matrix(-0.877901 -0.478843 -0.478843 0.877901 102.917 124.611)" style="fill:var(--sapContent_Illustrative_Color5)"/>
<path fill-rule="evenodd" clip-rule="evenodd" d="M117.302 61.9868C118.959 61.9868 120.302 63.33 120.302 64.9868L120.302 102.571C120.302 104.228 118.959 105.571 117.302 105.571C115.645 105.571 114.302 104.228 114.302 102.571L114.302 64.9868C114.302 63.33 115.645 61.9868 117.302 61.9868Z" style="fill:var(--sapContent_Illustrative_Color6)"/>
<circle cx="116.951" cy="58.2363" r="10.3931" style="fill:var(--sapContent_Illustrative_Color5)"/>
<mask id="path-8-inside-1_460_9072" style="fill:var(--sapContent_Illustrative_Color8)">
<path fill-rule="evenodd" clip-rule="evenodd" d="M64.0097 179.163C63.8277 182.471 66.5314 185.164 69.8451 185.164H251.041C254.354 185.164 257.058 182.471 256.876 179.163C253.933 125.651 211.884 83.2151 160.443 83.2151C109.002 83.2151 66.9529 125.651 64.0097 179.163Z"/>
</mask>
<path fill-rule="evenodd" clip-rule="evenodd" d="M64.0097 179.163C63.8277 182.471 66.5314 185.164 69.8451 185.164H251.041C254.354 185.164 257.058 182.471 256.876 179.163C253.933 125.651 211.884 83.2151 160.443 83.2151C109.002 83.2151 66.9529 125.651 64.0097 179.163Z" style="fill:var(--sapContent_Illustrative_Color8)"/>
<path d="M256.876 179.163L259.872 178.998L256.876 179.163ZM69.8451 188.164H251.041V182.164H69.8451V188.164ZM160.443 86.2151C210.143 86.2151 251.017 127.255 253.881 179.327L259.872 178.998C256.849 124.047 213.624 80.2151 160.443 80.2151V86.2151ZM67.0051 179.327C69.8693 127.255 110.742 86.2151 160.443 86.2151V80.2151C107.262 80.2151 64.0366 124.047 61.0142 178.998L67.0051 179.327ZM251.041 188.164C255.967 188.164 260.154 184.132 259.872 178.998L253.881 179.327C253.962 180.81 252.742 182.164 251.041 182.164V188.164ZM69.8451 182.164C68.1442 182.164 66.9236 180.81 67.0051 179.327L61.0142 178.998C60.7318 184.132 64.9185 188.164 69.8451 188.164V182.164Z" style="fill:var(--sapContent_Illustrative_Color5)" mask="url(#path-8-inside-1_460_9072)"/>
<path fill-rule="evenodd" clip-rule="evenodd" d="M99.3966 161.445C99.0905 163.744 100.934 165.715 103.253 165.715H217.632C219.951 165.715 221.794 163.744 221.488 161.445C217.283 129.868 191.554 105.571 160.442 105.571C129.331 105.571 103.602 129.868 99.3966 161.445Z" style="fill:var(--sapContent_Illustrative_Color5)"/>
<ellipse cx="238.927" cy="133.257" rx="14.2596" ry="17.6255" transform="rotate(-28.6099 238.927 133.257)" style="fill:var(--sapContent_Illustrative_Color5)"/>
<path fill-rule="evenodd" clip-rule="evenodd" d="M204.617 61.9868C206.274 61.9868 207.617 63.33 207.617 64.9868L207.617 102.571C207.617 104.228 206.274 105.571 204.617 105.571C202.96 105.571 201.617 104.228 201.617 102.571L201.617 64.9868C201.617 63.33 202.96 61.9868 204.617 61.9868Z" style="fill:var(--sapContent_Illustrative_Color6)"/>
<circle cx="204.266" cy="58.2363" r="10.3931" style="fill:var(--sapContent_Illustrative_Color5)"/>
<mask id="path-14-inside-2_460_9072" style="fill:var(--sapContent_Illustrative_Color8)">
<path fill-rule="evenodd" clip-rule="evenodd" d="M131.633 185.164V87.8264C140.732 84.8298 150.409 83.2151 160.443 83.2151C211.884 83.2151 253.933 125.651 256.876 179.163C257.058 182.471 254.354 185.164 251.041 185.164H131.633Z"/>
</mask>
<path fill-rule="evenodd" clip-rule="evenodd" d="M131.633 185.164V87.8264C140.732 84.8298 150.409 83.2151 160.443 83.2151C211.884 83.2151 253.933 125.651 256.876 179.163C257.058 182.471 254.354 185.164 251.041 185.164H131.633Z" style="fill:var(--sapContent_Illustrative_Color8)"/>
<path d="M131.633 185.164H128.633V188.164H131.633V185.164ZM131.633 87.8264L130.694 84.977L128.633 85.6559V87.8264H131.633ZM256.876 179.163L253.881 179.327L253.881 179.327L256.876 179.163ZM134.633 185.164V87.8264H128.633V185.164H134.633ZM160.443 80.2151C150.085 80.2151 140.091 81.8823 130.694 84.977L132.571 90.6759C141.372 87.7773 150.733 86.2151 160.443 86.2151V80.2151ZM259.872 178.998C256.849 124.047 213.624 80.2151 160.443 80.2151V86.2151C210.144 86.2151 251.017 127.255 253.881 179.327L259.872 178.998ZM251.041 188.164C255.967 188.164 260.154 184.132 259.872 178.998L253.881 179.327C253.962 180.81 252.742 182.164 251.041 182.164V188.164ZM131.633 188.164H251.041V182.164H131.633V188.164Z" style="fill:var(--sapContent_Illustrative_Color4)" mask="url(#path-14-inside-2_460_9072)"/>
<path fill-rule="evenodd" clip-rule="evenodd" d="M131.633 165.715V113.09C140.231 108.29 150.036 105.571 160.442 105.571C191.554 105.571 217.283 129.868 221.488 161.445C221.794 163.744 219.951 165.715 217.632 165.715H131.633Z" style="fill:var(--sapContent_Illustrative_Color4)"/>
<path fill-rule="evenodd" clip-rule="evenodd" d="M131.633 142.593V129.234C133.225 127.801 135.332 126.929 137.642 126.929C142.604 126.929 146.627 130.951 146.627 135.914C146.627 140.876 142.604 144.898 137.642 144.898C135.332 144.898 133.225 144.026 131.633 142.593ZM192.228 135.914C192.228 140.876 188.206 144.898 183.244 144.898C178.281 144.898 174.259 140.876 174.259 135.914C174.259 130.951 178.281 126.929 183.244 126.929C188.206 126.929 192.228 130.951 192.228 135.914Z" style="fill:var(--sapContent_Illustrative_Color9)"/>
<path fill-rule="evenodd" clip-rule="evenodd" d="M148.633 153.592C148.93 152.819 149.798 152.433 150.571 152.731C156.372 154.964 162.795 154.964 168.595 152.731C169.368 152.433 170.236 152.819 170.534 153.592C170.831 154.365 170.446 155.233 169.673 155.531C163.179 158.03 155.988 158.03 149.494 155.531C148.721 155.233 148.335 154.365 148.633 153.592Z" style="fill:var(--sapContent_Illustrative_Color6)"/>
<rect x="127.657" y="202.896" width="140.909" height="7.42788" rx="3.71394" transform="rotate(-90 127.657 202.896)" style="fill:var(--sapContent_Illustrative_Color3)"/>
</svg>
