<svg width="45" height="46" viewBox="0 0 45 46" fill="none" xmlns="http://www.w3.org/2000/svg" id="tnt-Dot-Handshake-alternate">
<path fill-rule="evenodd" clip-rule="evenodd" d="M11.4468 15.5043L5.62265 12.982L1.422 21.45L20.8916 31.9182L21.0032 31.7574L23.8468 34.4236C24.5371 35.0709 25.6215 35.036 26.2688 34.3457C26.5541 34.0414 26.7069 33.6606 26.7294 33.2744C27.4208 33.8924 28.4829 33.8485 29.1207 33.1683C29.5157 32.747 29.6567 32.179 29.5496 31.6531C30.1913 31.9232 30.9605 31.7831 31.4647 31.2454C31.8838 30.7984 32.0169 30.1863 31.8712 29.6345C32.5615 30.1609 33.552 30.0895 34.1586 29.4426C34.8058 28.7522 34.7709 27.6679 34.0806 27.0206L28.1515 21.4613L28.1594 21.45C28.1441 21.3938 28.1284 21.3335 28.1117 21.2696C27.8109 20.1191 27.1982 17.7759 23.8126 16.5631C21.5977 15.7697 18.9405 15.7879 16.9013 16.0434C15.0673 16.2733 13.1428 16.2388 11.4468 15.5043Z" style="fill:var(--sapContent_Illustrative_Color5)"/>
<path d="M33.7591 16.229L39.7316 13.943C39.8552 13.8957 39.9925 13.9657 40.0267 14.0935L42.4867 23.2779C42.5183 23.3957 42.4493 23.5171 42.3319 23.5502L39.2435 24.4214C39.2298 24.4252 39.2165 24.4304 39.2037 24.4369L34.1035 27.0077C34.0205 27.0495 33.9203 27.0355 33.852 26.9725L27.0294 20.6832C26.2114 19.9292 25.0383 19.7378 23.9649 20.0303C20.2664 21.0379 18.3223 19.9319 17.545 18.8506C17.3259 18.5458 17.517 18.1529 17.8734 18.035L24.969 15.6894C25.1828 15.6187 25.4046 15.5804 25.6297 15.5872C26.1867 15.6041 27.3554 15.679 28.5531 15.9994C30.247 16.4524 32.1215 16.8558 33.7591 16.229Z" style="fill:var(--sapContent_Illustrative_Color8)"/>
<path fill-rule="evenodd" clip-rule="evenodd" d="M39.6233 14.5198L33.9379 16.6959C32.1298 17.388 30.1035 16.9316 28.4239 16.4824C27.2791 16.1762 26.1536 16.1033 25.6146 16.087C25.4566 16.0822 25.2934 16.1088 25.1259 16.1642L18.0304 18.5098C17.9872 18.5241 17.9642 18.5498 17.9555 18.5649C18.5814 19.4297 20.2837 20.515 23.8336 19.5479C25.0404 19.2191 26.4008 19.4237 27.3683 20.3156L34.0498 26.4749L38.9787 23.9904L39.2037 24.4369L38.9787 23.9904C39.02 23.9696 39.0633 23.9527 39.1078 23.9402L41.9331 23.1432L39.6233 14.5198ZM42.1962 23.069L42.1957 23.0691L42.1962 23.069ZM34.1909 26.6049L34.1905 26.6045L34.1909 26.6049ZM39.5529 13.476C39.9535 13.3227 40.3987 13.5498 40.5097 13.9642L42.9697 23.1485C43.0721 23.5306 42.8484 23.924 42.4676 24.0314L39.405 24.8954L34.3286 27.4542C34.0595 27.5898 33.7346 27.5444 33.5131 27.3402L26.6905 21.0509C26.0221 20.4347 25.0363 20.2566 24.0964 20.5127C20.2575 21.5586 18.0713 20.4394 17.1391 19.1425C16.9188 18.836 16.9057 18.4739 17.0341 18.1753C17.1581 17.8867 17.4089 17.662 17.7165 17.5603L24.8121 15.2147C25.0723 15.1287 25.3526 15.0786 25.6449 15.0874C26.2199 15.1049 27.4317 15.1819 28.6823 15.5164C30.3906 15.9732 32.1132 16.3236 33.5804 15.762L39.5529 13.476Z" style="fill:var(--sapContent_Illustrative_Color4)"/>
<path d="M18.38 32.9455C17.4371 33.0259 16.6075 32.3268 16.5271 31.3839L16.2737 28.414C16.1933 27.471 16.8925 26.6415 17.8354 26.561C18.7783 26.4806 19.6079 27.1798 19.6883 28.1227L19.9416 31.0926C20.0221 32.0355 19.3229 32.8651 18.38 32.9455Z" style="fill:var(--sapContent_Illustrative_Color8)"/>
<path fill-rule="evenodd" clip-rule="evenodd" d="M18.4225 33.4437C17.2045 33.5476 16.1328 32.6444 16.0289 31.4264L15.7755 28.4564C15.6716 27.2384 16.5748 26.1667 17.7929 26.0628C19.0109 25.9589 20.0826 26.8621 20.1865 28.0802L20.4398 31.0501C20.5437 32.2681 19.6406 33.3398 18.4225 33.4437ZM17.0253 31.3414C17.0822 32.0091 17.6698 32.5043 18.3375 32.4473C19.0053 32.3903 19.5004 31.8028 19.4435 31.1351L19.1901 28.1652C19.1331 27.4974 18.5456 27.0022 17.8779 27.0592C17.2101 27.1162 16.715 27.7037 16.7719 28.3714L17.0253 31.3414Z" style="fill:var(--sapContent_Illustrative_Color4)"/>
<path d="M15.1483 31.5259C14.2054 31.6064 13.3758 30.9072 13.2954 29.9643L13.1457 28.2097C13.0482 27.0668 13.8957 26.0613 15.0386 25.9638C15.7815 25.9004 16.4351 26.4513 16.4985 27.1942L16.71 29.673C16.7904 30.6159 16.0912 31.4455 15.1483 31.5259Z" style="fill:var(--sapContent_Illustrative_Color8)"/>
<path fill-rule="evenodd" clip-rule="evenodd" d="M15.1908 32.0241C13.9728 32.128 12.9011 31.2248 12.7972 30.0068L12.6475 28.2522C12.5266 26.8342 13.5781 25.5866 14.9961 25.4656C16.0142 25.3787 16.9098 26.1336 16.9967 27.1517L17.2082 29.6305C17.3121 30.8485 16.4089 31.9202 15.1908 32.0241ZM13.7936 29.9218C13.8506 30.5895 14.4381 31.0847 15.1058 31.0277C15.7736 30.9708 16.2687 30.3833 16.2118 29.7155L16.0003 27.2367C15.9604 26.7689 15.5489 26.4221 15.0811 26.462C14.2133 26.536 13.5699 27.2995 13.6439 28.1672L13.7936 29.9218Z" style="fill:var(--sapContent_Illustrative_Color4)"/>
<path d="M11.7004 30.2886C10.7575 30.3691 9.92796 29.6699 9.84752 28.727L9.82954 28.5161C9.73917 27.4568 10.5247 26.5248 11.584 26.4344L12.7701 26.3332C12.9415 26.3186 13.0923 26.4457 13.1069 26.6171L13.2621 28.4357C13.3425 29.3786 12.6433 30.2082 11.7004 30.2886Z" style="fill:var(--sapContent_Illustrative_Color8)"/>
<path fill-rule="evenodd" clip-rule="evenodd" d="M11.7429 30.7868C10.5249 30.8907 9.45324 29.9875 9.34933 28.7695L9.33135 28.5586C9.21751 27.2241 10.207 26.05 11.5415 25.9362L12.7276 25.835C13.1741 25.7969 13.567 26.1281 13.6051 26.5746L13.7603 28.3932C13.8642 29.6112 12.961 30.6829 11.7429 30.7868ZM10.3457 28.6845C10.4027 29.3522 10.9902 29.8474 11.6579 29.7904C12.3257 29.7335 12.8209 29.146 12.7639 28.4782L12.6248 26.8474L11.6265 26.9326C10.8423 26.9995 10.2608 27.6894 10.3277 28.4736L10.3457 28.6845Z" style="fill:var(--sapContent_Illustrative_Color4)"/>
<path d="M21.8554 33.9012C20.9124 33.9816 20.0829 33.2825 20.0024 32.3396L19.7904 29.8536C19.7099 28.9107 20.4091 28.0811 21.352 28.0007C22.2949 27.9202 23.1245 28.6194 23.2049 29.5623L23.417 32.0483C23.4974 32.9912 22.7983 33.8208 21.8554 33.9012Z" style="fill:var(--sapContent_Illustrative_Color8)"/>
<path fill-rule="evenodd" clip-rule="evenodd" d="M21.8979 34.3994C20.6798 34.5033 19.6081 33.6001 19.5042 32.3821L19.2922 29.8961C19.1883 28.678 20.0915 27.6064 21.3095 27.5025C22.5275 27.3985 23.5992 28.3017 23.7031 29.5198L23.9152 32.0058C24.0191 33.2238 23.1159 34.2955 21.8979 34.3994ZM20.5006 32.2971C20.5576 32.9648 21.1451 33.46 21.8129 33.403C22.4806 33.346 22.9758 32.7585 22.9188 32.0908L22.7067 29.6048C22.6498 28.937 22.0623 28.4419 21.3945 28.4988C20.7267 28.5558 20.2316 29.1433 20.2886 29.8111L20.5006 32.2971Z" style="fill:var(--sapContent_Illustrative_Color4)"/>
<path fill-rule="evenodd" clip-rule="evenodd" d="M25.285 27.0671C25.4866 26.8784 25.803 26.8888 25.9917 27.0904L29.9602 31.3298C30.149 31.5314 30.1385 31.8478 29.9369 32.0366C29.7353 32.2253 29.4189 32.2148 29.2302 32.0132L25.2617 27.7738C25.073 27.5722 25.0834 27.2558 25.285 27.0671Z" style="fill:var(--sapContent_Illustrative_Color4)"/>
<path fill-rule="evenodd" clip-rule="evenodd" d="M27.7793 25.2965C27.9765 25.1032 28.293 25.1064 28.4863 25.3036L32.5041 29.4031C32.6974 29.6003 32.6942 29.9169 32.4969 30.1102C32.2997 30.3035 31.9832 30.3003 31.7899 30.1031L27.7721 26.0036C27.5788 25.8064 27.582 25.4898 27.7793 25.2965Z" style="fill:var(--sapContent_Illustrative_Color4)"/>
<path fill-rule="evenodd" clip-rule="evenodd" d="M24.5444 30.5737C24.7529 30.3927 25.0687 30.4149 25.2497 30.6234L27.3787 33.0748C27.5598 33.2833 27.5376 33.5991 27.3291 33.7801C27.1206 33.9612 26.8048 33.939 26.6237 33.7305L24.4947 31.2791C24.3137 31.0706 24.3359 30.7548 24.5444 30.5737Z" style="fill:var(--sapContent_Illustrative_Color4)"/>
<rect x="35.2565" y="13.9539" width="5.94559" height="13.0308" rx="0.891992" transform="rotate(-18.7886 35.2565 13.9539)" style="fill:var(--sapContent_Illustrative_Color2)"/>
<rect width="5.86326" height="13.0308" rx="0.891992" transform="matrix(-0.892669 -0.450713 -0.450713 0.892669 11.0203 13.5222)" style="fill:var(--sapContent_Illustrative_Color3)"/>
</svg>
