<svg width="321" height="240" viewBox="0 0 321 240" fill="none" xmlns="http://www.w3.org/2000/svg" id="tnt-Scene-ChartGantt-alternate">
<path d="M130.689 144.456H34.2796C26.7203 144.456 19.4706 147.459 14.1253 152.804C8.78011 158.149 5.77722 165.399 5.77722 172.958C5.77722 180.518 8.78011 187.767 14.1253 193.113C19.4706 198.458 26.7203 201.461 34.2796 201.461H130.729C138.288 201.461 145.538 198.458 150.883 193.113C156.228 187.767 159.231 180.518 159.231 172.958C159.231 165.399 156.228 158.149 150.883 152.804C145.538 147.459 138.288 144.456 130.729 144.456H130.689Z" style="fill:var(--sapContent_Illustrative_Color7)"/>
<path d="M165.81 172.749H69.351C61.8853 172.889 54.7727 175.953 49.5424 181.282C44.3121 186.611 41.382 193.78 41.382 201.246C41.382 208.713 44.3121 215.882 49.5424 221.211C54.7727 226.54 61.8853 229.604 69.351 229.744H165.81C173.276 229.604 180.388 226.54 185.618 221.211C190.849 215.882 193.779 208.713 193.779 201.246C193.779 193.78 190.849 186.611 185.618 181.282C180.388 175.953 173.276 172.889 165.81 172.749Z" style="fill:var(--sapContent_Illustrative_Color7)"/>
<path d="M291.3 93.9308H194.851C191.064 93.8599 187.301 94.5446 183.781 95.9449C180.262 97.3452 177.057 99.433 174.353 102.086C171.65 104.739 169.502 107.905 168.037 111.398C166.571 114.89 165.816 118.64 165.816 122.428C165.816 126.216 166.571 129.966 168.037 133.459C169.502 136.951 171.65 140.117 174.353 142.77C177.057 145.423 180.262 147.511 183.781 148.911C187.301 150.312 191.064 150.997 194.851 150.926H291.3C295.088 150.997 298.851 150.312 302.37 148.911C305.89 147.511 309.095 145.423 311.799 142.77C314.502 140.117 316.649 136.951 318.115 133.459C319.581 129.966 320.336 126.216 320.336 122.428C320.336 118.64 319.581 114.89 318.115 111.398C316.649 107.905 314.502 104.739 311.799 102.086C309.095 99.433 305.89 97.3452 302.37 95.9449C298.851 94.5446 295.088 93.8599 291.3 93.9308Z" style="fill:var(--sapContent_Illustrative_Color7)"/>
<path d="M219.421 41.8975H38.1033C28.0869 41.8975 18.4807 45.8765 11.398 52.9591C4.3153 60.0418 0.336304 69.648 0.336304 79.6644C0.336304 89.6808 4.3153 99.287 11.398 106.37C18.4807 113.452 28.0869 117.431 38.1033 117.431H219.421C229.437 117.431 239.043 113.452 246.126 106.37C253.208 99.287 257.188 89.6808 257.188 79.6644C257.188 69.648 253.208 60.0418 246.126 52.9591C239.043 45.8765 229.437 41.8975 219.421 41.8975Z" style="fill:var(--sapContent_Illustrative_Color7)"/>
<rect x="36.5215" y="76.2544" width="202.073" height="134.959" rx="12" transform="rotate(-8.29 36.5215 76.2544)" style="fill:var(--sapContent_Illustrative_Color6)"/>
<path d="M46.742 82.3311C45.9457 76.8659 49.7305 71.79 55.1957 70.9937L226.223 46.0739C231.689 45.2776 236.764 49.0625 237.561 54.5276L253.299 162.544C254.096 168.009 250.311 173.085 244.846 173.881L73.818 198.801C68.3528 199.597 63.2769 195.812 62.4806 190.347L46.742 82.3311Z" style="fill:var(--sapContent_Illustrative_Color8)"/>
<path fill-rule="evenodd" clip-rule="evenodd" d="M54.7632 68.025L225.791 43.1053C232.896 42.0701 239.494 46.9904 240.53 54.095L256.268 162.111C257.303 169.216 252.383 175.815 245.278 176.85L74.2506 201.769C67.1459 202.805 60.5472 197.884 59.512 190.78L43.7734 82.7636C42.7382 75.6589 47.6585 69.0602 54.7632 68.025ZM55.1958 70.9937C49.7306 71.79 45.9458 76.8659 46.7421 82.331L62.4807 190.347C63.277 195.812 68.3529 199.597 73.818 198.801L244.846 173.881C250.311 173.085 254.096 168.009 253.299 162.544L237.561 54.5276C236.765 49.0624 231.689 45.2776 226.224 46.0739L55.1958 70.9937Z" style="fill:var(--sapContent_Illustrative_Color4)"/>
<path d="M46.742 82.3311C45.9457 76.8659 49.7305 71.79 55.1957 70.9937L226.223 46.0739C231.689 45.2776 236.764 49.0625 237.561 54.5276L239.625 68.6976L48.8067 96.5011L46.742 82.3311Z" style="fill:var(--sapContent_Illustrative_Color5)"/>
<circle cx="63.4012" cy="82.4326" r="4.5" transform="rotate(-8.29 63.4012 82.4326)" style="fill:var(--sapContent_Illustrative_Color8)"/>
<circle cx="80.2236" cy="79.9814" r="4.5" transform="rotate(-8.29 80.2236 79.9814)" style="fill:var(--sapContent_Illustrative_Color8)"/>
<circle cx="97.046" cy="77.5302" r="4.5" transform="rotate(-8.29 97.046 77.5302)" style="fill:var(--sapContent_Illustrative_Color8)"/>
<path d="M258.949 26.3833C258.949 25.1945 255.498 24.2429 250.887 24.0267C250.623 19.4216 249.608 15.9974 248.419 16C247.23 16.0026 246.242 19.4532 245.989 24.0821C241.365 24.3984 237.927 25.4317 237.943 26.6232C237.958 27.8147 241.394 28.7663 246.005 28.9798C246.281 33.585 247.283 37.0092 248.47 37.0066C249.656 37.0039 250.65 33.5534 250.903 28.9245C255.527 28.6082 258.962 27.5748 258.949 26.3833Z" style="fill:var(--sapContent_Illustrative_Color3)"/>
<path d="M275.953 47.8971C275.953 47.1309 273.729 46.5176 270.758 46.3783C270.588 43.4106 269.934 41.2039 269.168 41.2056C268.401 41.2073 267.764 43.431 267.601 46.414C264.621 46.6179 262.406 47.2838 262.416 48.0516C262.426 48.8195 264.64 49.4327 267.611 49.5703C267.79 52.5381 268.435 54.7448 269.2 54.7431C269.965 54.7414 270.605 52.5177 270.768 49.5347C273.748 49.3308 275.962 48.6649 275.953 47.8971Z" style="fill:var(--sapContent_Illustrative_Color3)"/>
<rect x="64.4034" y="106.312" width="165.62" height="78.5952" rx="5" transform="rotate(-8.29 64.4034 106.312)" style="fill:var(--sapContent_Illustrative_Color7)"/>
<path fill-rule="evenodd" clip-rule="evenodd" d="M77.0411 111.136C77.8608 111.016 78.6222 111.584 78.7417 112.404L87.7394 174.156C87.8588 174.976 87.2911 175.738 86.4714 175.857C85.6516 175.977 84.8902 175.409 84.7707 174.589L75.773 112.836C75.6536 112.017 76.2213 111.255 77.0411 111.136Z" style="fill:var(--sapContent_Illustrative_Color6)"/>
<path fill-rule="evenodd" clip-rule="evenodd" d="M122.56 104.503C123.38 104.384 124.142 104.952 124.261 105.771L133.259 167.524C133.378 168.344 132.811 169.105 131.991 169.225C131.171 169.344 130.41 168.776 130.29 167.957L121.292 106.204C121.173 105.384 121.741 104.623 122.56 104.503Z" style="fill:var(--sapContent_Illustrative_Color6)"/>
<path fill-rule="evenodd" clip-rule="evenodd" d="M168.08 97.8711C168.9 97.7516 169.661 98.3193 169.78 99.1391L178.778 160.892C178.898 161.712 178.33 162.473 177.51 162.592C176.69 162.712 175.929 162.144 175.809 161.324L166.812 99.5717C166.692 98.7519 167.26 97.9905 168.08 97.8711Z" style="fill:var(--sapContent_Illustrative_Color6)"/>
<path fill-rule="evenodd" clip-rule="evenodd" d="M213.599 91.2382C214.419 91.1188 215.18 91.6865 215.3 92.5063L224.298 154.259C224.417 155.079 223.849 155.84 223.029 155.96C222.21 156.079 221.448 155.511 221.329 154.692L212.331 92.9388C212.212 92.1191 212.779 91.3577 213.599 91.2382Z" style="fill:var(--sapContent_Illustrative_Color6)"/>
<rect x="78.6844" y="117.916" width="59.7356" height="12.1679" rx="2" transform="rotate(-8.29 78.6844 117.916)" style="fill:var(--sapContent_Illustrative_Color3)"/>
<rect x="164.615" y="145.156" width="62.2009" height="12.1679" rx="2" transform="rotate(-8.29 164.615 145.156)" style="fill:var(--sapContent_Illustrative_Color14)"/>
<rect x="161.757" y="125.542" width="32.0969" height="12.1679" rx="2" transform="rotate(-8.29 161.757 125.542)" style="fill:var(--sapContent_Illustrative_Color2)"/>
<rect x="107.703" y="133.417" width="49.6197" height="12.1679" rx="2" transform="rotate(-8.29 107.703 133.417)" style="fill:var(--sapContent_Illustrative_Color2)"/>
</svg>
