<svg width="129" height="129" viewBox="0 0 129 129" fill="none" xmlns="http://www.w3.org/2000/svg" id="tnt-Spot-Unlock-alternate">
<path d="M58.0547 110.014H71.8519V112.949C71.8519 114.52 70.5785 115.793 69.0077 115.793H60.8989C59.3281 115.793 58.0547 114.52 58.0547 112.949V110.014Z" style="fill:var(--sapContent_Illustrative_Color4)"/>
<path d="M102.664 110.014H116.461V112.949C116.461 114.52 115.188 115.793 113.617 115.793H105.508C103.937 115.793 102.664 114.52 102.664 112.949V110.014Z" style="fill:var(--sapContent_Illustrative_Color4)"/>
<path d="M48.1084 44.8419C48.1084 41.4385 50.8674 38.6794 54.2709 38.6794H120.246C123.65 38.6794 126.409 41.4385 126.409 44.8419V103.868C126.409 107.272 123.65 110.031 120.246 110.031H54.2709C50.8674 110.031 48.1084 107.272 48.1084 103.868V44.8419Z" style="fill:var(--sapContent_Illustrative_Color8)"/>
<path fill-rule="evenodd" clip-rule="evenodd" d="M54.2709 36.6794H120.246C124.754 36.6794 128.409 40.3339 128.409 44.8419V103.868C128.409 108.376 124.754 112.031 120.246 112.031H54.2709C49.7629 112.031 46.1084 108.376 46.1084 103.868V44.8419C46.1084 40.3339 49.7629 36.6794 54.2709 36.6794ZM54.2709 38.6794C50.8674 38.6794 48.1084 41.4385 48.1084 44.8419V103.868C48.1084 107.272 50.8674 110.031 54.2709 110.031H120.246C123.65 110.031 126.409 107.272 126.409 103.868V44.8419C126.409 41.4385 123.65 38.6794 120.246 38.6794H54.2709Z" style="fill:var(--sapContent_Illustrative_Color4)"/>
<rect x="58.6133" y="50.2285" width="57.2895" height="48.2526" rx="3.31825" style="fill:var(--sapContent_Illustrative_Color4)"/>
<rect x="0.429688" y="50.2285" width="57.2895" height="48.2526" rx="3.31825" style="fill:var(--sapContent_Illustrative_Color6)"/>
<circle cx="12.6179" cy="66.4409" r="1.99875" style="fill:var(--sapContent_Illustrative_Color3)"/>
<circle cx="12.6179" cy="82.2693" r="1.99875" style="fill:var(--sapContent_Illustrative_Color3)"/>
<path d="M42.2983 74.355C42.2983 79.1587 38.4041 83.053 33.6003 83.053C28.7966 83.053 24.9023 79.1587 24.9023 74.355C24.9023 69.5512 28.7966 65.657 33.6003 65.657C38.4041 65.657 42.2983 69.5512 42.2983 74.355Z" style="fill:var(--sapContent_Illustrative_Color8)"/>
<path fill-rule="evenodd" clip-rule="evenodd" d="M33.6003 81.053C37.2995 81.053 40.2983 78.0542 40.2983 74.355C40.2983 70.6558 37.2995 67.657 33.6003 67.657C29.9011 67.657 26.9023 70.6558 26.9023 74.355C26.9023 78.0542 29.9011 81.053 33.6003 81.053ZM33.6003 83.053C38.4041 83.053 42.2983 79.1587 42.2983 74.355C42.2983 69.5512 38.4041 65.657 33.6003 65.657C28.7966 65.657 24.9023 69.5512 24.9023 74.355C24.9023 79.1587 28.7966 83.053 33.6003 83.053Z" style="fill:var(--sapContent_Illustrative_Color4)"/>
<rect x="56.1543" y="56.9854" width="3.79927" height="13.4158" rx="1.89964" style="fill:var(--sapContent_Illustrative_Color5)"/>
<rect x="56.1543" y="78.3091" width="3.79927" height="13.4158" rx="1.89964" style="fill:var(--sapContent_Illustrative_Color5)"/>
<path d="M37.9549 19.6141C37.8087 19.7852 37.7114 19.9926 37.6731 20.2145C37.6348 20.4363 37.657 20.6643 37.7374 20.8746L39.5188 25.9257C39.8131 26.7613 40.6618 26.9674 41.3166 26.7366C41.5881 26.652 41.8247 26.4815 41.9909 26.2508C42.1571 26.0201 42.244 25.7417 42.2385 25.4574C42.2317 25.3201 42.2042 25.1846 42.1569 25.0555L40.3754 20.0044C40.3018 19.7812 40.1693 19.5821 39.9917 19.428C39.8142 19.274 39.5984 19.1708 39.367 19.1294C39.1099 19.0833 38.8452 19.1035 38.5981 19.1884C38.3509 19.2732 38.1296 19.4197 37.9549 19.6141Z" style="fill:var(--sapContent_Illustrative_Color5)"/>
<path d="M20.5204 42.9134C20.4947 43.0724 20.5024 43.2351 20.5431 43.391C20.5837 43.5468 20.6564 43.6926 20.7566 43.8188C20.8567 43.945 20.9821 44.0489 21.1246 44.1239C21.2672 44.1989 21.4238 44.2434 21.5845 44.2545L26.7674 44.8516C26.9539 44.8725 27.1426 44.856 27.3225 44.8031C27.5025 44.7502 27.6701 44.6619 27.8156 44.5435C27.9611 44.4251 28.0816 44.2789 28.17 44.1134C28.2583 43.948 28.3129 43.7665 28.3303 43.5797C28.3397 43.5029 28.3427 43.4255 28.3394 43.3482C28.3313 43.0623 28.2165 42.7899 28.0175 42.5846C27.8185 42.3792 27.5498 42.2559 27.2643 42.2389L22.0836 41.6434C21.8973 41.6222 21.7086 41.6385 21.5286 41.6911C21.3486 41.7438 21.1809 41.8318 21.0353 41.9501C20.8897 42.0683 20.7692 42.2144 20.6808 42.3798C20.5924 42.5453 20.5379 42.7266 20.5204 42.9134Z" style="fill:var(--sapContent_Illustrative_Color5)"/>
<path d="M25.0443 28.994C25.0624 29.1691 25.116 29.3387 25.2019 29.4923C25.2877 29.6459 25.404 29.7805 25.5436 29.8876L31.7577 34.7582C32.0376 34.9751 32.3905 35.0754 32.7427 35.0381C33.0948 35.0008 33.4188 34.8288 33.6471 34.558C33.8578 34.3061 33.9661 33.9842 33.9505 33.6561C33.9412 33.467 33.8913 33.2821 33.8041 33.1141C33.717 32.946 33.5946 32.7988 33.4454 32.6823L27.2313 27.8117C26.95 27.5934 26.595 27.4926 26.241 27.5306C25.8869 27.5686 25.5614 27.7423 25.3328 28.0153C25.2213 28.1506 25.1382 28.3071 25.0887 28.4752C25.0391 28.6434 25.024 28.8199 25.0443 28.994Z" style="fill:var(--sapContent_Illustrative_Color5)"/>
</svg>
