<svg width="45" height="45" id="tnt-Dot-Fingerprint-alternate" xmlns="http://www.w3.org/2000/svg" viewBox="0 0 45 45">
    <circle cx="21.5" cy="23.21" r="21.5" style="fill:var(--sapContent_Illustrative_Color6)" />
    <path d="m45,21.71c0,11.87-9.63,21.5-21.5,21.5S2,33.58,2,21.71,11.63.21,23.5.21s21.5,9.63,21.5,21.5Z" style="fill:var(--sapContent_Illustrative_Color8)" />
    <path d="m23.5,42.21c11.32,0,20.5-9.18,20.5-20.5S34.82,1.21,23.5,1.21,3,10.38,3,21.71s9.18,20.5,20.5,20.5Zm0,1c11.87,0,21.5-9.63,21.5-21.5S35.37.21,23.5.21,2,9.83,2,21.71s9.63,21.5,21.5,21.5Z" style="fill:var(--sapContent_Illustrative_Color4)" fill-rule="evenodd" />
    <path d="m23.48,8.64c3.55,0,6.88,1.4,9.36,3.94h0c.23.24.23.61,0,.84-.12.11-.26.17-.42.17s-.31-.06-.43-.18c-2.26-2.31-5.28-3.58-8.51-3.58-1.74,0-3.41.37-4.97,1.09-.3.14-.65,0-.79-.29-.14-.3,0-.65.29-.79,1.72-.79,3.56-1.2,5.47-1.2Zm8.77,9.52c-1.46-3.59-4.9-5.9-8.77-5.9-1.8,0-3.36.42-4.67,1.28-1.31.85-2.37,2.12-3.16,3.79-.14.3-.01.65.28.79h0c.3.14.65.02.79-.28.69-1.47,1.6-2.56,2.73-3.29,1.12-.73,2.46-1.1,4.03-1.1,3.38,0,6.39,2.02,7.66,5.16.09.23.32.37.55.37.07,0,.15-.01.22-.04.3-.12.45-.47.33-.78h0Zm4,.71s0,.02,0,.02h0s0,0,0,0c.2.92.31,1.87.31,2.82,0,1.03-.05,2.06-.15,3.07,0,0,0,.02,0,.03h0s0,.02,0,.02l-.02.17h0c-.03.31-.29.53-.59.53-.02,0-.04,0-.07,0h0c-.33-.04-.56-.33-.53-.66v-.13s.02-.05.02-.05c.1-.98.15-1.98.15-2.97,0-.87-.1-1.74-.28-2.59h0l-.04-.15c-.35-1.49-.98-2.88-1.87-4.14-.19-.27-.13-.64.14-.83h0c.27-.19.64-.13.83.14,0,0,0,0,0,0,1,1.41,1.7,2.97,2.08,4.65,0,.02,0,.05.01.06h0Zm-10.77,5.98c-.07.48-.15.95-.25,1.42h0c-.06.28-.31.47-.58.47-.04,0-.08,0-.12-.01h0c-.32-.07-.53-.39-.46-.71.09-.42.16-.85.23-1.28,0-.01,0-.03,0-.04,0-.01,0-.02,0-.02h0c.14-.98.21-1.98.21-2.97,0-.57-.47-1.03-1.03-1.03s-1,.44-1.03.99h0s0,.03,0,.04h0s0,.33,0,.33h0c0,.3-.26.62-.61.59-.33,0-.59-.28-.58-.61v-.26s0-.03,0-.05c0-1.22,1-2.22,2.22-2.22s2.22,1,2.22,2.22c0,1.03-.07,2.06-.22,3.07h0s0,.01,0,.02c0,0,0,0,0,.01h0s0,.01,0,.02h0Zm-3.6.11c.32.08.51.41.43.73h0c-.47,1.85-.88,3.07-1.47,4.19-.59,1.12-1.35,2.14-2.51,3.58-.12.15-.29.22-.47.22-.13,0-.26-.04-.37-.13h0c-.26-.21-.3-.58-.09-.84,1.13-1.41,1.84-2.36,2.38-3.39.54-1.03.92-2.16,1.37-3.93.08-.32.4-.52.73-.43Zm2.26,3.14h0c-.31-.11-.65.06-.76.37-.84,2.4-1.33,3.34-2.77,5.34-.19.27-.13.64.13.83h0c.11.08.23.11.35.11.18,0,.37-.09.48-.25,1.5-2.08,2.05-3.15,2.93-5.64.11-.31-.05-.65-.36-.76Zm-7.17-16.34c.28-.18.35-.55.17-.83-.18-.28-.55-.35-.83-.17-2.85,1.87-4.83,4.72-5.58,8.03,0,.03-.01.05-.01.07,0,0,0,.01,0,.02h0c-.2.93-.31,1.88-.31,2.83,0,.41-.03.82-.1,1.22-.05.33.17.63.49.68h0s.07,0,.1,0c.29,0,.54-.21.59-.5.07-.46.11-.94.11-1.41,0-.87.1-1.74.28-2.59h0l.04-.15c.7-2.97,2.49-5.52,5.05-7.21h0Zm15.39,9.37c.14,0,.29.04.4.14h0c.12.1.19.25.18.43,0,1.01-.06,2.03-.17,3.03v.04s0,0,0,0h0s0,.02,0,.02h0s0,.02,0,.03h0c-.31,2.75-1.02,5.43-2.12,7.96-.1.23-.32.36-.55.36-.08,0-.16-.02-.24-.05-.3-.13-.44-.48-.31-.79,1.05-2.4,1.73-4.94,2.02-7.55h0s0-.03,0-.03l.02-.17h0c.1-.94.15-1.9.15-2.85h0c0-.19.09-.34.21-.44.12-.1.26-.14.4-.14Zm-17.57,3.78s0-.04.01-.05h0s0-.04.01-.06c.27-1.01.4-2.05.4-3.1,0-.01,0-.03,0-.04h0c0-.67.09-1.34.25-1.99.08-.32-.11-.64-.43-.72h0c-.33-.09-.64.12-.72.43h0c-.19.76-.29,1.54-.29,2.32,0,.02,0,.03,0,.05,0,.95-.13,1.89-.37,2.8h0l-.04.14c-.32,1.13-.81,2.19-1.48,3.16-.18.27-.11.64.16.83.1.07.22.1.34.1.19,0,.38-.09.49-.26.76-1.11,1.32-2.33,1.67-3.62h0Zm13.76-6.13l.02.03h0s.18.31.18.31c.37.67.57,1.41.57,2.59,0,1.02-.07,2.06-.19,3.07,0,0,0,.01,0,.02h0s0,.02,0,.02h0s0,0,0,0h0c-.26,2.08-.78,4.11-1.55,6.05-.09.23-.32.38-.55.38-.08,0-.15-.01-.22-.04h0s0,0,0,0c-.31-.12-.46-.47-.33-.78.73-1.83,1.22-3.75,1.47-5.71,0-.01,0-.02,0-.02,0,0,0,0,0-.01,0,0,0,0,0-.01.12-.98.19-1.98.19-2.97,0-.62-.06-1.06-.18-1.43-.11-.37-.28-.67-.51-1.01-.03-.05-.06-.1-.07-.15-.07-.21,0-.39,0-.39.04-.11.11-.21.22-.29.27-.19.64-.12.83.15.03.05.06.09.09.13h0s.01.03.01.03l.02.03Zm-2.78,13.56c.11-.31.45-.48.76-.37h0c.31.11.48.45.37.76-.22.63-.47,1.19-.76,1.71-.11.2-.31.31-.52.31-.1,0-.2-.03-.29-.07h0s0,0,0,0c-.29-.16-.39-.52-.23-.81.25-.46.47-.96.67-1.53Zm.9-15.53c-.95-.62-2.05-.95-3.19-.95-2.03,0-3.88,1.03-4.95,2.75-.03.04-.05.09-.07.13h0s0,0,0,0c-.01.03-.03.05-.04.07h0s0,.01,0,.02l-.16.28h0c-.4.8-.62,1.68-.62,2.59,0,.02,0,.04,0,.06,0,.97-.1,1.93-.3,2.87v.03s-.01.03-.01.03c0,0,0,.01,0,.02h0s0,.01,0,.01h0s0,0,0,0c-.02.11-.05.22-.07.32-.08.32.12.64.44.72h0s0,0,0,0c.04,0,.09.02.13.02.27,0,.51-.18.58-.46.03-.15.07-.29.1-.44h0s0-.04,0-.05h0s0-.03,0-.03c.21-1.01.31-2.05.31-3.09,0-.02,0-.03,0-.05.01-.85.25-1.68.7-2.41.02-.04.05-.07.08-.12h0s0,0,0,0h0l.06-.08c.87-1.24,2.27-1.98,3.79-1.98.9,0,1.78.26,2.53.75h0c.28.18.65.1.83-.17.18-.28.1-.65-.17-.83h0Zm-9.34,10.28c.28.17.37.54.2.82h0c-.39.64-.62,1.08-.83,1.48h0c-.33.64-.6,1.16-1.31,2.03-.12.15-.29.22-.46.22-.13,0-.26-.04-.37-.13h0c-.26-.21-.29-.58-.09-.84.63-.78.85-1.19,1.18-1.83h0s.01-.03.01-.03c.21-.4.45-.86.85-1.53.17-.28.54-.37.82-.2h0s0,0,0,0Z" style="fill:var(--sapContent_Illustrative_Color4)" fill-rule="evenodd" />
    <path d="m31.73,22.52h1.19c-.02.75-.07,1.49-.15,2.22v.04s0,.01,0,.02h0s0,.02,0,.03h0c-.31,2.75-1.02,5.43-2.12,7.96-.1.23-.32.36-.55.36-.08,0-.16-.02-.24-.05-.3-.13-.44-.48-.31-.79,1.05-2.4,1.73-4.94,2.02-7.55h0s0-.03,0-.03l.02-.17h0c.07-.68.12-1.36.14-2.04Zm-17.74,0h1.19c-.05.78-.18,1.55-.38,2.3,0,.02,0,.03-.01.04h0s0,.05-.01.07h0c-.35,1.29-.92,2.51-1.67,3.62-.12.17-.3.26-.49.26-.12,0-.23-.03-.34-.1-.27-.19-.34-.56-.16-.83.66-.97,1.16-2.04,1.48-3.16l.04-.14h0c.18-.67.29-1.35.35-2.05Zm22.56,0c-.02.76-.07,1.52-.14,2.27h0s0,.03,0,.03h0s0,.02,0,.02l-.02.17h0c-.03.31-.29.53-.59.53-.02,0-.04,0-.07,0h0c-.33-.04-.56-.33-.53-.66v-.13s.02-.05.02-.05c.07-.72.12-1.44.14-2.17h1.19Zm-26.19,0h1.2c-.02.2-.04.41-.08.61-.05.29-.3.5-.59.5-.03,0-.06,0-.1,0h0c-.32-.05-.54-.36-.49-.68.02-.14.04-.28.05-.42Zm7.26,0h1.2c-.04.77-.14,1.53-.29,2.28,0,0,0,.01,0,.03h0s0,.04,0,.06h0c-.03.15-.06.3-.1.44-.07.27-.31.46-.58.46-.05,0-.09,0-.13-.02h0c-.32-.08-.52-.4-.44-.72.03-.11.05-.21.07-.32h0s0-.01,0-.01h0s0-.02,0-.02v-.03s.01-.03.01-.03c.14-.7.24-1.41.28-2.12Zm3.88,0h.71c-.1.08-.23.13-.37.11-.13,0-.24-.04-.34-.11Zm2.99,0h1.19c-.03.76-.1,1.52-.2,2.27h0s0,.01,0,.02h0s0,.01,0,.01c0,0,0,.01,0,.02h0c-.07.48-.15.95-.25,1.42h0c-.06.28-.31.47-.58.47-.04,0-.08,0-.12-.01h0c-.32-.07-.53-.39-.46-.71.09-.42.16-.85.23-1.28,0-.01,0-.03,0-.04,0-.01,0-.02,0-.02h0c.1-.72.17-1.44.2-2.17Zm3.62,0h1.19c-.03.76-.09,1.52-.18,2.27,0,0,0,.01,0,.02h0s0,.02,0,.02h0s0,0,0,0h0c-.26,2.08-.78,4.11-1.55,6.05-.09.23-.32.38-.55.38-.08,0-.15-.01-.22-.04h0s0,0,0,0c-.31-.12-.46-.47-.33-.78.73-1.83,1.22-3.75,1.47-5.71,0-.01,0-.02,0-.02,0,0,0,0,0-.01,0,0,0,0,0,0,0,0,0,0,0,0,.09-.72.15-1.45.17-2.17Zm-5.8,3.17c.08-.32-.11-.64-.43-.73-.33-.08-.65.11-.73.43-.45,1.77-.83,2.9-1.37,3.93-.54,1.03-1.25,1.98-2.38,3.39-.21.26-.16.63.09.84h0c.11.09.24.13.37.13.17,0,.35-.08.47-.22,1.16-1.44,1.92-2.46,2.51-3.58.59-1.12,1-2.34,1.47-4.19h0Zm1.83,2.42h0c.31.11.47.45.36.76-.88,2.5-1.43,3.56-2.93,5.64-.12.16-.3.25-.48.25-.12,0-.24-.04-.35-.11h0c-.27-.19-.33-.57-.13-.83,1.44-2,1.93-2.94,2.77-5.34.11-.31.45-.48.76-.37h0Zm2.39,3.88c-.31-.11-.65.06-.76.37-.2.57-.42,1.07-.67,1.53-.16.29-.06.65.23.81h0s0,0,0,0c.09.05.19.07.29.07.21,0,.41-.11.52-.31.29-.52.54-1.08.76-1.71.11-.31-.06-.65-.37-.76h0Zm-9-4.06c.17-.28.08-.65-.2-.82h0c-.28-.17-.65-.08-.82.2-.4.66-.64,1.12-.85,1.53h0v.02s-.01,0-.01,0c-.33.63-.54,1.05-1.18,1.83-.21.26-.17.63.09.84h0s0,0,0,0c.11.09.24.13.37.13.17,0,.35-.07.46-.22.71-.87.98-1.39,1.31-2.03h0c.21-.4.44-.84.83-1.48h0Z" style="fill:var(--sapContent_Illustrative_Color15)" fill-rule="evenodd" />
    <path d="m7.9,21.65h31.2c.55,0,1,.45,1,1h0c0,.55-.45,1-1,1H7.9c-.55,0-1-.45-1-1h0c0-.55.45-1,1-1Z" style="fill:var(--sapContent_Illustrative_Color3)" />
</svg>