<svg width="45" height="46" viewBox="0 0 45 46" fill="none" xmlns="http://www.w3.org/2000/svg" id="tnt-Dot-MissionFailed-alternate">
<path d="M21.9781 12.2852L33.0945 27.1294L33.9146 19.1471C34.1611 16.7479 33.3853 14.3559 31.7776 12.5581L26.105 6.21491C25.8583 5.93902 25.4128 5.99051 25.2355 6.3154L21.9781 12.2852Z" style="fill:var(--sapContent_Illustrative_Color2)"/>
<path d="M12.1429 19.4749L22.9143 34.5714L15.0595 32.9309C12.6986 32.4378 10.6548 30.9727 9.42953 28.8953L5.10661 21.5654C4.91859 21.2466 5.10283 20.8378 5.46619 20.7674L12.1429 19.4749Z" style="fill:var(--sapContent_Illustrative_Color2)"/>
<path fill-rule="evenodd" clip-rule="evenodd" d="M28.0788 44.0724H43.241C42.0275 36.2839 38.3199 28.9456 32.5895 23.2552L21.9666 12.7063C17.9914 13.5894 14.5954 16.072 12.5479 19.5918L19.3761 32.9147C21.5716 37.1984 24.5429 40.975 28.0788 44.0724Z" style="fill:var(--sapContent_Illustrative_Color8)"/>
<path fill-rule="evenodd" clip-rule="evenodd" d="M27.7033 45.0724L27.4205 44.8246C23.7906 41.6448 20.7404 37.7681 18.4867 33.3708L11.4092 19.5615L11.684 19.089C13.872 15.3279 17.5027 12.6737 21.7503 11.7301L22.2839 11.6116L33.2947 22.5456C39.1765 28.3864 42.9833 35.9194 44.2296 43.9184L44.4094 45.0724H27.7033ZM43.2416 44.0724C43.1895 43.7382 43.1328 43.4048 43.0716 43.0724C41.7062 35.6572 38.0746 28.7015 32.5901 23.2552L21.9672 12.7063C17.992 13.5894 14.596 16.072 12.5484 19.5918L19.3766 32.9147C21.5721 37.1984 24.5435 40.975 28.0794 44.0724H43.2416Z" style="fill:var(--sapContent_Illustrative_Color4)"/>
<path d="M31.0065 39.8484C30.1017 38.6107 30.3716 36.8738 31.6093 35.969C32.847 35.0642 34.5838 35.3341 35.4886 36.5718C36.3935 37.8095 36.1236 39.5463 34.8859 40.4511C33.6482 41.356 31.9113 41.0861 31.0065 39.8484Z" style="fill:var(--sapContent_Illustrative_Color14)"/>
<path d="M23.6168 28.1664C23.8555 28.5305 24.3506 28.6204 24.7021 28.3634L26.4573 27.0803C26.8088 26.8234 26.8733 26.3244 26.5988 25.9864L16.5049 13.5615C16.1583 13.1349 15.5382 13.0546 15.0945 13.379C14.6508 13.7034 14.5391 14.3186 14.8404 14.7783L23.6168 28.1664Z" style="fill:var(--sapContent_Illustrative_Color2)"/>
<path fill-rule="evenodd" clip-rule="evenodd" d="M2.68652 1.66028C2.68652 1.10799 3.13424 0.660278 3.68652 0.660278H15.6486C17.6168 0.660278 19.2124 2.25585 19.2124 4.22408C19.2124 6.19231 17.6168 7.78788 15.6486 7.78788H8.98831C8.18244 7.78788 7.52915 8.44117 7.52915 9.24704C7.52915 10.0529 8.18244 10.7062 8.98831 10.7062H12.8532C13.4055 10.7062 13.8532 11.1539 13.8532 11.7062C13.8532 12.2585 13.4055 12.7062 12.8532 12.7062H8.98831C7.07787 12.7062 5.52915 11.1575 5.52915 9.24704C5.52915 7.3366 7.07786 5.78788 8.98831 5.78788H15.6486C16.5122 5.78788 17.2124 5.08774 17.2124 4.22408C17.2124 3.36041 16.5123 2.66028 15.6486 2.66028H3.68652C3.13424 2.66028 2.68652 2.21256 2.68652 1.66028Z" style="fill:var(--sapContent_Illustrative_Color5)"/>
</svg>
