<svg width="128" height="129" viewBox="0 0 128 129" fill="none" xmlns="http://www.w3.org/2000/svg" id="tnt-Spot-SessionExpired-alternate">
<path fill-rule="evenodd" clip-rule="evenodd" d="M98.9413 78.9525C95.0217 76.0958 89.8421 73.2213 82.8708 70.0586C82.7945 70.024 82.7199 69.9849 82.6456 69.9459C82.2852 69.7563 81.1117 69.1517 79.6185 68.0093C78.5545 67.1944 78.1466 65.6072 78.683 64.379C79.4534 62.6158 80.2076 61.4962 80.4324 61.1563C80.4771 61.0886 80.5221 61.0209 80.5707 60.9559C85.1715 54.8003 88.3287 49.786 90.3764 45.4201C92.281 41.3463 93.2366 37.838 93.551 34.4943C94.0558 29.2797 92.9684 24.4333 91.4532 18.4789C91.2724 17.7685 90.5487 17.3404 89.8387 17.5225L38.4856 30.6986C37.7812 30.8793 37.353 31.5937 37.5285 32.2994C39.0039 38.2303 40.4164 42.9974 43.3804 47.367C45.3028 50.1368 47.8477 52.7469 51.479 55.4003C55.3983 58.2569 60.5782 61.131 67.5488 64.2935C67.626 64.3285 67.7015 64.368 67.7765 64.4075C68.129 64.5929 69.2505 65.1712 70.6862 66.256C71.8197 67.112 72.2557 68.8085 71.6784 70.1074C70.9317 71.7873 70.212 72.8575 69.9906 73.1928C69.9444 73.2628 69.8979 73.333 69.8477 73.4001C65.2476 79.5543 62.091 84.567 60.0438 88.9327C58.1392 93.0059 57.183 96.515 56.8693 99.8585C56.3645 105.073 57.4518 109.919 58.9671 115.874C59.1478 116.584 59.8716 117.012 60.5815 116.83L111.935 103.654C112.64 103.473 113.068 102.759 112.892 102.053C111.417 96.1224 110.004 91.3553 107.04 86.9859C105.117 84.216 102.572 81.6053 98.9413 78.9525Z" style="fill:var(--sapContent_Illustrative_Color8)"/>
<path fill-rule="evenodd" clip-rule="evenodd" d="M90.3764 45.42C88.3287 49.786 85.1715 54.8002 80.5707 60.9558C80.5221 61.0208 80.4771 61.0886 80.4324 61.1562C80.4254 61.1667 80.418 61.178 80.4101 61.1899C80.1611 61.5659 79.4296 62.6701 78.6831 64.3789C78.1466 65.6071 78.5545 67.1943 79.6185 68.0092C81.066 69.1166 82.213 69.7187 82.6103 69.9272C82.6228 69.9338 82.6346 69.94 82.6457 69.9458C82.7199 69.9849 82.7945 70.0239 82.8709 70.0586C89.8422 73.2213 95.0217 76.0957 98.9413 78.9524C102.572 81.6052 105.117 84.216 107.04 86.9858C110.004 91.3552 111.417 96.1223 112.892 102.053C113.068 102.759 112.64 103.473 111.935 103.654L60.5816 116.83C59.8716 117.012 59.1479 116.584 58.9671 115.874C57.4518 109.919 56.3645 105.073 56.8693 99.8585C57.1831 96.5149 58.1392 93.0058 60.0439 88.9327C62.0911 84.5669 65.2477 79.5542 69.8478 73.4001C69.898 73.3329 69.9445 73.2627 69.9907 73.1927C69.9977 73.1821 70.0051 73.1708 70.0131 73.1588C70.2575 72.7893 70.9553 71.7343 71.6785 70.1074C72.2557 68.8084 71.8198 67.112 70.6863 66.256C69.2951 65.2048 68.199 64.6293 67.8116 64.4258C67.7992 64.4193 67.7875 64.4132 67.7765 64.4074C67.7015 64.368 67.6261 64.3284 67.5489 64.2934C60.5782 61.1309 55.3984 58.2568 51.479 55.4002C47.8478 52.7468 45.3029 50.1367 43.3804 47.3669C40.4165 42.9973 39.004 38.2302 37.5286 32.2993C37.353 31.5937 37.7812 30.8793 38.4856 30.6986L89.8387 17.5225C90.5487 17.3403 91.2725 17.7685 91.4532 18.4788C92.9684 24.4333 94.0558 29.2796 93.551 34.4942C93.2366 37.838 92.281 41.3463 90.3764 45.42ZM69.8321 69.2866C69.1766 70.7612 68.5503 71.7078 68.3268 72.0456C68.3188 72.0576 68.3114 72.0689 68.3044 72.0794C68.2547 72.1548 68.239 72.1773 68.2293 72.1903C63.5878 78.3999 60.3429 83.5356 58.2144 88.0748L58.2135 88.0767C56.2269 92.3251 55.1967 96.0585 54.8578 99.667C54.3158 105.273 55.4979 110.434 57.0089 116.372C57.4658 118.168 59.2936 119.247 61.0838 118.787L112.438 105.611C114.213 105.156 115.298 103.353 114.853 101.565C113.375 95.6218 111.895 90.5433 108.712 85.8513L108.706 85.8425L108.7 85.8337C106.631 82.8529 103.918 80.0861 100.133 77.3209L98.9427 78.9505L100.131 77.3195C96.0576 74.3504 90.7417 71.4106 83.7057 68.2185C83.6907 68.2117 83.666 68.1994 83.5862 68.1574C83.5752 68.1517 83.5634 68.1455 83.5509 68.1389C83.1882 67.9486 82.1587 67.4084 80.8467 66.4046C80.523 66.1562 80.3696 65.5662 80.5347 65.1878C81.2117 63.6383 81.8686 62.6469 82.0956 62.3043C82.1036 62.2923 82.111 62.2811 82.1179 62.2707C82.1658 62.1982 82.1805 62.1771 82.1892 62.1655C86.8314 55.9545 90.0768 50.8172 92.2058 46.2781L92.2069 46.2758C94.1934 42.0267 95.2229 38.2943 95.5625 34.6859C96.1046 29.0797 94.9223 23.9182 93.4114 17.9805C92.9545 16.1849 91.1267 15.1059 89.3366 15.5653L37.9834 28.7413C36.2084 29.1968 35.123 30.9994 35.5677 32.7871C37.0463 38.7308 38.5255 43.8091 41.7082 48.5012L41.7143 48.5101L41.7204 48.519C43.7893 51.4998 46.5019 54.266 50.2869 57.0317L50.2889 57.0332C54.3625 60.0022 59.6787 62.9417 66.714 66.1335C66.7296 66.1406 66.7549 66.1531 66.8358 66.1957C66.8467 66.2014 66.8583 66.2075 66.8708 66.2141C67.225 66.4 68.2079 66.9159 69.4682 67.8681L69.4685 67.8684C69.8496 68.1562 70.0289 68.8432 69.8321 69.2866Z" style="fill:var(--sapContent_Illustrative_Color4)"/>
<path fill-rule="evenodd" clip-rule="evenodd" d="M55.2373 49.5812C54.6588 50.5221 53.427 50.816 52.4861 50.2375C48.7863 47.9631 44.2633 42.7131 42.6162 36.2938C42.3417 35.2238 42.9865 34.134 44.0564 33.8595C45.1263 33.5849 46.2162 34.2297 46.4907 35.2996C47.8687 40.67 51.7253 45.0745 54.5809 46.8299C55.5219 47.4084 55.8157 48.6402 55.2373 49.5812Z" style="fill:var(--sapContent_Illustrative_Color6)"/>
<path fill-rule="evenodd" clip-rule="evenodd" d="M29.885 24.9079C30.9549 24.6334 32.0448 25.2782 32.3193 26.3481L56.424 120.295C56.6985 121.365 56.0537 122.455 54.9838 122.729C53.9139 123.004 52.824 122.359 52.5495 121.289L28.4448 27.3422C28.1703 26.2723 28.8151 25.1825 29.885 24.9079Z" style="fill:var(--sapContent_Illustrative_Color4)"/>
<path fill-rule="evenodd" clip-rule="evenodd" d="M95.0022 8.19994C96.0721 7.92542 97.162 8.57022 97.4365 9.64013L121.541 103.587C121.816 104.657 121.171 105.747 120.101 106.021C119.031 106.296 117.941 105.651 117.667 104.581L93.562 10.6342C93.2875 9.56433 93.9323 8.47445 95.0022 8.19994Z" style="fill:var(--sapContent_Illustrative_Color4)"/>
<path fill-rule="evenodd" clip-rule="evenodd" d="M105.598 102.472C106.857 102.15 106.959 100.318 105.771 99.7928C100.757 97.5758 95.8305 94.6081 91.5245 91.6685C84.5932 86.9366 74.266 89.691 70.7876 97.3286C68.7557 101.79 66.3282 106.538 63.6146 110.754C62.9476 111.79 63.9005 113.171 65.0942 112.865L105.598 102.472ZM112.494 102.245C112.475 102.24 112.456 102.251 112.451 102.269C112.312 102.773 111.914 103.191 111.372 103.33L60.9204 116.275C60.5176 116.378 60.1109 116.309 59.7788 116.113C59.7611 116.102 59.7384 116.106 59.7253 116.122C59.7096 116.141 59.714 116.169 59.7352 116.182C60.0244 116.353 60.3789 116.414 60.7299 116.323L111.56 103.282C112.058 103.154 112.417 102.756 112.518 102.284C112.521 102.267 112.511 102.25 112.494 102.245Z" style="fill:var(--sapContent_Illustrative_Color6)"/>
<rect x="22.313" y="25.8325" width="81.9252" height="9.35552" rx="3.28407" transform="rotate(-14.3904 22.313 25.8325)" style="fill:var(--sapContent_Illustrative_Color5)"/>
<rect x="46.3198" y="119.4" width="81.9252" height="9.35552" rx="3.28407" transform="rotate(-14.3904 46.3198 119.4)" style="fill:var(--sapContent_Illustrative_Color5)"/>
<path d="M20.5237 1.79346C20.3617 1.98302 20.2539 2.21273 20.2115 2.45842C20.1691 2.70411 20.1937 2.95668 20.2827 3.18957L22.2558 8.78402C22.5817 9.70943 23.5217 9.93776 24.2469 9.68216C24.5476 9.58838 24.8097 9.39955 24.9938 9.14404C25.1779 8.88853 25.2741 8.58015 25.2679 8.26527C25.2604 8.11322 25.23 7.96317 25.1776 7.82024L23.2045 2.2258C23.123 1.97858 22.9762 1.75799 22.7796 1.58739C22.583 1.41678 22.3439 1.3025 22.0877 1.25664C21.8028 1.20553 21.5097 1.22801 21.236 1.32196C20.9623 1.4159 20.7171 1.5782 20.5237 1.79346Z" style="fill:var(--sapContent_Illustrative_Color5)"/>
<path d="M1.21557 27.5954C1.18708 27.7715 1.19563 27.9517 1.24068 28.1243C1.28572 28.297 1.36627 28.4583 1.47717 28.5981C1.58808 28.7379 1.72691 28.853 1.8848 28.9361C2.04269 29.0192 2.21617 29.0685 2.39417 29.0808L8.13458 29.7421C8.34106 29.7652 8.55006 29.7469 8.74939 29.6883C8.94872 29.6297 9.13438 29.532 9.29553 29.4008C9.45668 29.2697 9.59009 29.1078 9.68797 28.9245C9.78584 28.7412 9.84623 28.5403 9.8656 28.3334C9.87596 28.2483 9.87933 28.1625 9.87568 28.0769C9.86672 27.7603 9.73948 27.4586 9.51907 27.2312C9.29865 27.0038 9.00105 26.8672 8.68492 26.8484L2.94694 26.1888C2.74054 26.1653 2.53155 26.1833 2.33219 26.2416C2.13282 26.2999 1.9471 26.3975 1.78588 26.5284C1.62465 26.6594 1.49117 26.8212 1.39325 27.0044C1.29532 27.1876 1.23492 27.3885 1.21557 27.5954Z" style="fill:var(--sapContent_Illustrative_Color5)"/>
<path d="M6.22448 12.1824C6.24451 12.3763 6.30389 12.5641 6.39897 12.7343C6.49406 12.9044 6.62285 13.0534 6.77747 13.1721L13.66 18.5666C13.97 18.8068 14.3609 18.9179 14.7509 18.8765C15.1409 18.8352 15.4998 18.6447 15.7526 18.3449C15.9859 18.0658 16.1059 17.7093 16.0887 17.3459C16.0784 17.1365 16.0231 16.9317 15.9265 16.7456C15.83 16.5595 15.6945 16.3964 15.5292 16.2674L8.64668 10.8729C8.3351 10.6311 7.94195 10.5195 7.54984 10.5616C7.15772 10.6036 6.79718 10.7961 6.54399 11.0984C6.42048 11.2483 6.32851 11.4215 6.27361 11.6078C6.2187 11.7941 6.202 11.9895 6.22448 12.1824Z" style="fill:var(--sapContent_Illustrative_Color5)"/>
</svg>
