<svg width="45" height="46" viewBox="0 0 45 46" fill="none" xmlns="http://www.w3.org/2000/svg" id="tnt-Dot-Help-alternate">
<path d="M20.1731 44.763C31.3144 44.763 40.3461 35.7312 40.3461 24.5899C40.3461 13.4486 31.3144 4.41684 20.1731 4.41684C9.0318 4.41684 0 13.4486 0 24.5899C0 35.7312 9.0318 44.763 20.1731 44.763Z" style="fill:var(--sapContent_Illustrative_Color6)"/>
<path d="M23.2795 42.2779C34.4208 42.2779 43.4526 33.2461 43.4526 22.1049C43.4526 10.9636 34.4208 1.93179 23.2795 1.93179C12.1382 1.93179 3.10645 10.9636 3.10645 22.1049C3.10645 33.2461 12.1382 42.2779 23.2795 42.2779Z" style="fill:var(--sapContent_Illustrative_Color8)"/>
<path fill-rule="evenodd" clip-rule="evenodd" d="M44.4526 22.1049C44.4526 33.7984 34.9731 43.2779 23.2795 43.2779C11.586 43.2779 2.10645 33.7984 2.10645 22.1049C2.10645 10.4113 11.586 0.931793 23.2795 0.931793C34.9731 0.931793 44.4526 10.4113 44.4526 22.1049ZM43.4526 22.1049C43.4526 33.2461 34.4208 42.2779 23.2795 42.2779C12.1382 42.2779 3.10645 33.2461 3.10645 22.1049C3.10645 10.9636 12.1382 1.93179 23.2795 1.93179C34.4208 1.93179 43.4526 10.9636 43.4526 22.1049Z" style="fill:var(--sapContent_Illustrative_Color4)"/>
<path d="M23.2793 36.4994C31.2292 36.4994 37.6738 30.0548 37.6738 22.1049C37.6738 14.155 31.2292 7.71036 23.2793 7.71036C15.3294 7.71036 8.88477 14.155 8.88477 22.1049C8.88477 30.0548 15.3294 36.4994 23.2793 36.4994Z" style="fill:var(--sapContent_Illustrative_Color2)"/>
<path fill-rule="evenodd" clip-rule="evenodd" d="M23.2796 12.3646C20.1347 12.3646 17.1919 14.5284 17.1919 17.6406C17.1919 18.3131 17.737 18.8582 18.4094 18.8582C19.0819 18.8582 19.627 18.3131 19.627 17.6406C19.627 16.2701 21.045 14.7997 23.2796 14.7997C25.5142 14.7997 26.9322 16.2701 26.9322 17.6406C26.9322 18.3859 26.7171 18.8873 26.4221 19.2726C26.1066 19.6847 25.6556 20.0207 25.1009 20.3445C24.8502 20.4908 24.5988 20.6234 24.3349 20.7626L24.2522 20.8062C23.9719 20.9541 23.6623 21.119 23.3853 21.2958C22.9111 21.5986 22.0621 22.2208 22.0621 23.3225V24.5401C22.0621 25.2125 22.6072 25.7576 23.2796 25.7576C23.952 25.7576 24.4972 25.2125 24.4972 24.5401V23.4888C24.5379 23.4556 24.601 23.4088 24.6958 23.3482C24.8754 23.2335 25.0985 23.113 25.389 22.9597L25.4732 22.9152C25.7314 22.7791 26.0296 22.622 26.3285 22.4475C26.9914 22.0606 27.7579 21.5336 28.3556 20.753C28.9737 19.9456 29.3673 18.9246 29.3673 17.6406C29.3673 14.5284 26.4245 12.3646 23.2796 12.3646Z" style="fill:var(--sapContent_Illustrative_Color8)"/>
<path d="M25.1059 30.019C25.1059 31.0277 24.2883 31.8453 23.2796 31.8453C22.271 31.8453 21.4533 31.0277 21.4533 30.019C21.4533 29.0104 22.271 28.1927 23.2796 28.1927C24.2883 28.1927 25.1059 29.0104 25.1059 30.019Z" style="fill:var(--sapContent_Illustrative_Color8)"/>
</svg>
