<svg width="128" height="129" viewBox="0 0 128 129" fill="none" xmlns="http://www.w3.org/2000/svg" id="tnt-Spot-Settings-alternate">
<path fill-rule="evenodd" clip-rule="evenodd" d="M12.2242 57.7386C10.1034 53.9705 10.9346 49.2297 14.2106 46.4077L18.8921 42.3752C22.1708 39.551 26.9872 39.4336 30.3996 42.0947L35.0286 45.7047L43.9321 44.2616L46.5197 39.1365C48.6659 34.8853 53.7324 33.0153 58.126 34.8526L64.7799 37.6352C68.8261 39.3272 71.0841 43.67 70.1451 47.954L69.0134 53.1174L74.9399 59.9977L80.214 59.6433C84.5899 59.3492 88.5503 62.2256 89.6244 66.4777L91.4027 73.5182C92.559 78.0958 90.0134 82.7956 85.5475 84.3281L80.0674 86.2086L77.2505 94.7284L80.1292 99.8279C82.2569 103.597 81.4278 108.344 78.1485 111.169L73.4684 115.2C70.1917 118.023 65.3789 118.142 61.9666 115.485L57.3378 111.881L48.5016 113.4L45.8308 118.539C43.6537 122.729 38.6287 124.55 34.2728 122.729L27.5751 119.928C23.5274 118.235 21.2695 113.89 22.2108 109.605L23.3457 104.438L17.421 97.56L12.1431 97.9172C7.76577 98.2134 3.80298 95.3367 2.72852 91.083L0.962661 84.0921C-0.203614 79.4748 2.39625 74.7412 6.91842 73.2483L12.3689 71.4489L15.1085 62.8633L12.2242 57.7386ZM56.6392 90.9279C63.3449 85.1517 64.0984 75.0331 58.3223 68.3274C52.5461 61.6217 42.4275 60.8682 35.7217 66.6444C29.016 72.4206 28.2625 82.5392 34.0387 89.2449C39.8148 95.9506 49.9334 96.7041 56.6392 90.9279Z" style="fill:var(--sapContent_Illustrative_Color8)"/>
<path fill-rule="evenodd" clip-rule="evenodd" d="M34.487 47.8186L29.1697 43.6719C26.509 41.597 22.7538 41.6885 20.1974 43.8905L15.5159 47.9231C12.9616 50.1233 12.3135 53.8197 13.9671 56.7576L17.2786 62.6415L13.9643 73.0284L7.54541 75.1475C4.01951 76.3115 1.99242 80.0023 2.90176 83.6023L4.66761 90.5932C5.50536 93.9098 8.59511 96.1527 12.0081 95.9217L18.2837 95.4971L25.5137 103.891L24.1642 110.034C23.4303 113.375 25.1908 116.763 28.3467 118.083L35.0444 120.884C38.4407 122.304 42.3587 120.884 44.0561 117.617L47.1846 111.596L57.8696 109.76L63.1952 113.907C65.8558 115.978 69.6083 115.885 72.1631 113.685L76.8432 109.653C79.4001 107.451 80.0465 103.75 78.3876 100.811L75.0738 94.9409L78.48 84.6389L84.8984 82.4364C88.3804 81.2415 90.3652 77.5771 89.4636 74.008L87.6853 66.9675C86.8479 63.6522 83.76 61.4095 80.3481 61.6388L74.0769 62.0602L66.8459 53.6655L68.1915 47.5258C68.9236 44.1856 67.1631 40.7996 64.0083 39.4803L57.3544 36.6978C53.9288 35.2652 49.9785 36.7233 48.305 40.0379L45.2582 46.0728L34.487 47.8186ZM15.1085 62.8633L12.3689 71.4489L6.91842 73.2483C2.39625 74.7412 -0.203614 79.4748 0.962661 84.0921L2.72852 91.083C3.80298 95.3367 7.76577 98.2134 12.1431 97.9172L17.421 97.56L23.3457 104.438L22.2108 109.605C21.2695 113.89 23.5274 118.235 27.5751 119.928L34.2728 122.729C38.6287 124.55 43.6537 122.729 45.8308 118.539L48.5016 113.4L57.3378 111.881L61.9666 115.485C65.3789 118.142 70.1917 118.023 73.4684 115.2L78.1485 111.169C81.4278 108.344 82.2569 103.597 80.1292 99.8279L77.2505 94.7284L80.0674 86.2086L85.5475 84.3281C90.0134 82.7956 92.559 78.0958 91.4027 73.5182L89.6244 66.4777C88.5503 62.2256 84.5899 59.3492 80.214 59.6433L74.9399 59.9977L69.0134 53.1174L70.1451 47.954C71.0841 43.67 68.8261 39.3272 64.7799 37.6352L58.126 34.8526C53.7324 33.0153 48.6659 34.8853 46.5197 39.1365L43.9321 44.2616L35.0286 45.7047L30.3996 42.0947C26.9872 39.4336 22.1708 39.551 18.8921 42.3752L14.2106 46.4077C10.9346 49.2297 10.1034 53.9705 12.2242 57.7386L15.1085 62.8633ZM59.8376 67.0221C66.3347 74.5648 65.4871 85.9462 57.9445 92.4433C50.4018 98.9404 39.0204 98.0928 32.5233 90.5502C26.0262 83.0075 26.8738 71.6261 34.4164 65.129C41.9591 58.6319 53.3405 59.4795 59.8376 67.0221ZM58.3223 68.3274C64.0984 75.0331 63.3449 85.1517 56.6392 90.9279C49.9334 96.7041 39.8148 95.9506 34.0387 89.2449C28.2625 82.5392 29.016 72.4206 35.7217 66.6444C42.4275 60.8682 52.5461 61.6217 58.3223 68.3274Z" style="fill:var(--sapContent_Illustrative_Color4)"/>
<path d="M64.6237 62.9035C73.3956 73.087 72.2512 88.4533 62.0678 97.2251C51.8843 105.997 36.518 104.853 27.7461 94.6692C18.9743 84.4857 20.1186 69.1194 30.3021 60.3476C40.4855 51.5757 55.8519 52.72 64.6237 62.9035ZM32.5156 90.5608C39.0185 98.1102 50.4101 98.9585 57.9594 92.4556C65.5087 85.9528 66.3571 74.5612 59.8542 67.0119C53.3513 59.4625 41.9598 58.6142 34.4104 65.1171C26.8611 71.6199 26.0128 83.0115 32.5156 90.5608Z" style="fill:var(--sapContent_Illustrative_Color6)"/>
<path fill-rule="evenodd" clip-rule="evenodd" d="M102.947 73.4527C104.043 73.3114 105.045 74.0848 105.187 75.1803C107.183 90.65 101.576 101.979 95.9946 109.428C95.3322 110.312 94.0787 110.491 93.1947 109.829C92.3108 109.167 92.1313 107.913 92.7937 107.029C97.9593 100.136 103.044 89.8293 101.219 75.6923C101.078 74.5968 101.852 73.5941 102.947 73.4527Z" style="fill:var(--sapContent_Illustrative_Color5)"/>
<path fill-rule="evenodd" clip-rule="evenodd" d="M114.255 68.9189C115.32 68.6273 116.42 69.2546 116.712 70.3199C119.246 79.5781 118.054 88.886 115.417 95.0807C114.984 96.097 113.809 96.5702 112.793 96.1375C111.777 95.7049 111.304 94.5303 111.736 93.514C114.032 88.1211 115.142 79.7364 112.854 71.376C112.562 70.3106 113.189 69.2106 114.255 68.9189Z" style="fill:var(--sapContent_Illustrative_Color5)"/>
<path fill-rule="evenodd" clip-rule="evenodd" d="M87.4139 10.7015C87.475 7.95898 89.462 5.64017 92.1628 5.1595L96.0223 4.47261C98.7253 3.99155 101.392 5.48524 102.394 8.04141L103.753 11.509L109.079 13.6009L112.149 11.6405C114.696 10.0143 118.066 10.6323 119.87 13.0561L122.601 16.7269C124.263 18.9591 124.091 22.0598 122.192 24.0944L119.905 26.5466L120.914 32.2187L123.908 33.7311C126.391 34.9859 127.622 37.8367 126.833 40.505L125.527 44.9229C124.677 47.7955 121.768 49.5373 118.835 48.9294L115.235 48.1834L110.942 51.9225L110.864 55.6369C110.807 58.3823 108.819 60.7051 106.115 61.1863L102.257 61.873C99.5556 62.3537 96.8902 60.8622 95.8869 58.3084L94.5261 54.8443L89.2121 52.8152L86.0919 54.7568C83.5487 56.3394 80.2168 55.7083 78.4285 53.3052L75.6787 49.6103C74.0169 47.3772 74.1898 44.2753 76.0895 42.2408L78.3801 39.7878L77.3709 34.1174L74.3746 32.6053C71.8896 31.3512 70.6571 28.4994 71.4464 25.8302L72.7437 21.4433C73.6005 18.5459 76.5505 16.8032 79.5016 17.4509L83.0586 18.2316L87.3307 14.4316L87.4139 10.7015ZM100.858 42.8261C106.189 41.8772 109.742 36.7859 108.793 31.4542C107.844 26.1226 102.753 22.5697 97.4213 23.5186C92.0897 24.4675 88.5368 29.5589 89.4856 34.8905C90.4345 40.2221 95.5259 43.775 100.858 42.8261Z" style="fill:var(--sapContent_Illustrative_Color2)"/>
</svg>
