<svg width="160" height="160" version="1.1" id="tnt-Dialog-RoadMap-alternate" xmlns="http://www.w3.org/2000/svg" xmlns:xlink="http://www.w3.org/1999/xlink" x="0px" y="0px"
	 viewBox="0 0 160 160" enable-background="new 0 0 160 160" xml:space="preserve">
<g>
	<path fill-rule="evenodd" clip-rule="evenodd" style="fill:var(--sapContent_Illustrative_Color20)" d="M115.6,18.4c0,7.9,6.4,14.3,14.3,14.3s14.3-6.4,14.3-14.3
		s-6.4-14.3-14.3-14.3C122,4.1,115.6,10.5,115.6,18.4z"/>
	<path fill-rule="evenodd" clip-rule="evenodd" style="fill:var(--sapContent_Illustrative_Color2)" d="M135.2,26.7c5.7-3,10.7-6.4,14.1-9.7c3.8-3.7,5.1-6.6,3.9-8.9
		c-1.9-3.5-8.9-2.2-14.1-0.6l1.7,1.7c8.3-2.5,10.7-1.1,11-0.4c0,0,0.9,1.8-3.8,6.4c-3.3,3.2-8.2,6.6-13.8,9.6
		c-5.6,2.9-11.2,5-15.7,6c-6.4,1.3-7.4-0.5-7.4-0.5c-0.4-0.7-1.7-2.4,5.2-7.8l-0.5-2.3c-4.3,3.4-7.9,7.3-6,10.8
		c1.2,2.3,4.3,2.9,9.5,1.8C123.8,31.8,129.5,29.7,135.2,26.7z"/>
	<path fill-rule="evenodd" clip-rule="evenodd" style="fill:var(--sapContent_Illustrative_Color4)" d="M147.5,27.3c0-0.7,0.6-1.2,1.2-1.2c1.5,0,3,0.3,4.4,0.9
		c0.6,0.3,0.9,1,0.7,1.6c-0.3,0.6-1,0.9-1.6,0.7c-1.1-0.4-2.2-0.7-3.4-0.7C148,28.5,147.5,28,147.5,27.3z M157.6,32.4
		c0.6-0.3,1.4,0,1.6,0.7c0.6,1.3,0.9,2.8,0.9,4.4v0.2c0,0.1,0,0.1,0,0.2c0,0.1,0,0.1,0,0.2v0.2c0,1.7-0.3,3.2-0.9,4.7
		c-0.3,0.6-1,0.9-1.6,0.7c-0.6-0.3-0.9-1-0.7-1.6c0.5-1.1,0.7-2.4,0.7-3.7v-0.2c0-0.1,0-0.1,0-0.2c0-0.1,0-0.1,0-0.2v-0.2
		c0-1.2-0.2-2.4-0.7-3.4C156.7,33.4,157,32.7,157.6,32.4z M153.3,47.9c0.3,0.6,0,1.4-0.7,1.6c-1.4,0.6-3,0.9-4.7,0.9h-3.6
		c-0.7,0-1.2-0.6-1.2-1.2c0-0.7,0.6-1.2,1.2-1.2h3.6c1.3,0,2.6-0.3,3.7-0.7C152.3,47,153,47.3,153.3,47.9z M45.9,49.2
		c0-0.7,0.6-1.2,1.2-1.2h3.6c0.7,0,1.2,0.6,1.2,1.2c0,0.7-0.6,1.2-1.2,1.2h-3.6C46.5,50.5,45.9,49.9,45.9,49.2z M56.7,49.2
		c0-0.7,0.6-1.2,1.2-1.2h7.2c0.7,0,1.2,0.6,1.2,1.2c0,0.7-0.6,1.2-1.2,1.2H58C57.3,50.5,56.7,49.9,56.7,49.2z M71.1,49.2
		c0-0.7,0.6-1.2,1.2-1.2h7.2c0.7,0,1.2,0.6,1.2,1.2c0,0.7-0.6,1.2-1.2,1.2h-7.2C71.7,50.5,71.1,49.9,71.1,49.2z M85.5,49.2
		c0-0.7,0.6-1.2,1.2-1.2h7.2c0.7,0,1.2,0.6,1.2,1.2c0,0.7-0.6,1.2-1.2,1.2h-7.2C86.1,50.5,85.5,49.9,85.5,49.2z M99.9,49.2
		c0-0.7,0.6-1.2,1.2-1.2h7.2c0.7,0,1.2,0.6,1.2,1.2c0,0.7-0.6,1.2-1.2,1.2h-7.2C100.4,50.5,99.9,49.9,99.9,49.2z M114.3,49.2
		c0-0.7,0.6-1.2,1.2-1.2h7.2c0.7,0,1.2,0.6,1.2,1.2c0,0.7-0.6,1.2-1.2,1.2h-7.2C114.8,50.5,114.3,49.9,114.3,49.2z M128.7,49.2
		c0-0.7,0.6-1.2,1.2-1.2h7.2c0.7,0,1.2,0.6,1.2,1.2c0,0.7-0.6,1.2-1.2,1.2h-7.2C129.2,50.5,128.7,49.9,128.7,49.2z"/>
	<path fill-rule="evenodd" clip-rule="evenodd" style="fill:var(--sapContent_Illustrative_Color2)" d="M62,48.7c0,12-9.7,21.6-21.6,21.6s-21.6-9.7-21.6-21.6
		c0-12,9.7-21.6,21.6-21.6S62,36.8,62,48.7z"/>
	<circle style="fill:var(--sapContent_Illustrative_Color20)" cx="36.4" cy="38.7" r="2.2"/>
	<circle style="fill:var(--sapContent_Illustrative_Color20)" cx="37.9" cy="61.4" r="1.5"/>
	<circle style="fill:var(--sapContent_Illustrative_Color20)" cx="47.1" cy="47.1" r="2.9"/>
	<circle style="fill:var(--sapContent_Illustrative_Color20)" cx="30.5" cy="50.9" r="3.7"/>
	<path style="fill:var(--sapContent_Illustrative_Color8)" d="M143.9,111.6c0,23.1-18.7,41.8-41.8,41.8s-41.8-18.7-41.8-41.8S79,69.8,102.1,69.8
		C125.2,69.8,143.9,88.5,143.9,111.6z"/>
	<path fill-rule="evenodd" clip-rule="evenodd" style="fill:var(--sapContent_Illustrative_Color4)" d="M146.4,111.6c0,24.4-19.8,44.3-44.3,44.3
		c-24.4,0-44.3-19.8-44.3-44.3s19.8-44.3,44.3-44.3C126.5,67.3,146.4,87.2,146.4,111.6z M102.1,153.4c23.1,0,41.8-18.7,41.8-41.8
		s-18.7-41.8-41.8-41.8s-41.8,18.7-41.8,41.8C60.3,134.7,79,153.4,102.1,153.4z"/>
	<path style="fill:var(--sapContent_Illustrative_Color6)" d="M141.9,119.7c-0.1-0.3-0.8-1.4-1.9-1.5c-0.8-0.1-1.5,0.5-2.4,1.6c-2.5,3.1-2.6,3.9-1.9,5.9
		c0.1,0.3,0.3,0.6,0.6,0.8c0.3,0.2,0.6,0.3,1,0.3c1.3,0,2.6-0.9,2.9-1.1c0.2-0.1,0.4-0.3,0.6-0.5
		C142.5,123.5,142.1,120.5,141.9,119.7z"/>
	<path style="fill:var(--sapContent_Illustrative_Color6)" d="M99.1,106.1c-1,0-1.9,0.1-2.9,0.2c-0.5,0.1-0.9,0.1-1.4,0.1c-0.6-0.1-1.2-0.2-1.7-0.4
		c-0.7-0.3-1.4-0.4-2.2-0.5c-0.8,0-1.8,0.3-2.1,1.9c-0.1,0.3-0.1,0.7-0.1,1c0.1,0.3,0.2,0.6,0.4,0.9c0.4,0.5,1.2,0.8,2.3,0.8
		c0.6,0,1.2-0.1,1.9-0.2c0.3,0,0.6-0.1,0.9-0.1c0.4,0,0.5,0.2,0.9,0.5c0.5,0.6,1.2,1,2,1.3l0.2,0.1c1.2,0.5,2.5,0.8,3.9,0.8l0,0
		c0.4,0,0.8,0,1.2-0.2c0.4-0.1,0.7-0.4,1-0.6c0.3-0.4,0.4-0.8,0.5-1.2c0.1-0.4,0.1-0.9,0-1.3C103.6,107.1,102,106.1,99.1,106.1z"/>
	<path style="fill:var(--sapContent_Illustrative_Color6)" d="M123.5,123.8c-1.5,0-3,0.3-4.4,0.7c-0.5,0.2-1,0.3-1.5,0.3c-0.3,0-0.7-0.1-1-0.3c-0.6-0.5-1-1.1-1.2-1.7
		c-0.5-1.1-1.2-2.6-3.3-2.6h-0.5c-0.9,0-1.8-0.2-2.7-0.5c-0.8-0.4-1.6-0.9-2.3-1.5c-0.3-0.3-0.7-0.6-1.1-0.8
		c-0.4-0.2-0.9-0.3-1.3-0.3c-0.7,0-1.4,0.2-2.1,0.4c-0.5,0.2-1,0.3-1.6,0.3c-0.7,0-1.5-0.3-2.1-0.6c-0.6-0.4-1.2-0.9-1.6-1.6
		c-0.2-0.3-0.6-1.1-1.4-1.1c-0.6,0-1.2,0.5-2,1.7c-0.1,0.2-0.2,0.4-0.3,0.5c-0.2,0.3-0.4,0.6-0.6,0.8c-0.5-0.4-0.9-0.8-1.2-1.4
		c-0.3-0.4-0.5-0.7-0.8-1c-1.5-2-2.5-3.4-3.7-4c-0.4-0.2-0.7-0.3-1.1-0.5c-0.8-0.2-1.3-0.4-1.6-1.1c-0.1-0.3-0.2-0.6-0.2-0.9
		c-0.1-1.3-0.4-2.4-3.3-2.4c-1,0-1.6-0.2-1.8-0.5c-0.2-0.5,0.1-1.4,1-2.8c0.7-1.2,1.6-1.7,2.4-1.7c0.7,0,1.4,0.4,2.2,1.2
		c1.2,1.2,2.4,1.8,3.6,1.8c0.5,0,1-0.1,1.5-0.3c0.5-0.2,0.9-0.5,1.2-0.9c1.3-1.3,1.9-2.6,2.6-5.1c0.7-2.6,1.8-5.7,5-6.2
		c0.7-0.1,1.4-0.2,2.1-0.3c2.8-0.4,5-0.7,6.1-2.3c1.6-2.3,2.3-6.1-0.7-9.1c-1.6-1.7-3.8-2.7-6.1-2.8c-1.1,0-2.1,0.3-3.1,0.8
		s-1.8,1.2-2.5,2c-1.6,1.9-2.9,3.2-3.8,3.2c-0.6-0.1-1.1-0.4-1.4-0.8c-0.3-0.3-0.5-0.7-0.6-1.1s-0.1-0.8,0-1.2
		c0.1-0.5,0.3-0.9,0.5-1.3c0.3-0.4,0.7-0.7,1.1-0.9c0.8-0.3,1.7-0.5,2.6-0.4c1.7,0,3.6-0.1,4.9-2.2c0.7-1.1,0.8-2.1,0.5-2.9
		c-0.2-0.4-0.5-0.8-0.8-1.1c-0.4-0.3-0.8-0.7-1.3-0.8h-0.2c-6.9,1-13.3,3.8-18.8,8c-5.5,4.1-9.9,9.6-12.8,16c-0.1,0.2-2,4.1-1.4,6.7
		c0.4,1.3,1.1,2.5,2.2,3.3c1.1,0.8,2.4,1.3,3.7,1.3c2.3,0,3.8,0.5,4.9,3.3c1.2,3,4.2,4.9,6.3,5.7c0.3,0.1,0.6,0.2,0.9,0.3
		c1.4,0.4,2.7,0.7,3.6,3c0.3,0.9,0.8,1.6,1.6,2.1c0.8,0.5,1.7,0.7,2.6,0.7h1.3c0.5,0,1.3,0.1,1.5,0.4c0.1,0.2,0.3,1-0.9,3
		c-2.5,4.4-1.9,6.4-0.6,9c0.7,1.5,1.8,2.8,3.1,3.8c1.3,1,2.9,1.7,4.5,1.9c0.4,0,0.7,0.1,1,0.3s0.5,0.5,0.7,0.8
		c0.7,1.3,0,3.6-0.9,5.4c-0.4,0.8-0.9,1.6-1.5,2.3c-0.6,0.8-1,1.3-1,2.2c0.1,1,0.3,2,0.6,3l0.1,0.3h0.3c1.5,0.2,3.2,0.4,4.7,0.4
		c0.7,0,1.4,0,2.1,0l1.9-0.1l-1.8-1c0,0-0.9-0.5-0.9-2.5c0-0.6,1.2-1.3,4.7-1.3h1.4c0.6,0,1.2-0.3,1.6-0.8l0.3-0.4
		c1.3-1.6,4.3-5.3,5.6-6.2c0.6-0.4,1.2-0.6,1.9-0.8c1.1-0.3,2.2-0.8,3-1.7c0.4-0.4,0.7-0.9,1-1.4c0.2-0.5,0.3-1.1,0.3-1.6
		c0-0.7,0.2-1.3,0.5-1.9c0.5-0.6,1.1-1.1,1.8-1.5c0.9-0.5,2-1.2,2.5-2.7c0.8-2,0.8-3.3,0.2-4.2C127.2,124.3,125.8,123.8,123.5,123.8
		z"/>
	<path style="fill:var(--sapContent_Illustrative_Color6)" d="M103.7,75c0.8,0.2,1.6,0.4,2.5,0.3c0.5,0,0.8,0,1,0.1c0.2,0.3,0.3,0.6,0.4,0.9c0.3,0.8,0.6,1.7,1.6,2.2
		c0.8,0.3,1.6,0.5,2.4,0.4c0.8,0,2.6-0.1,3.7-1.1c2.2-2.1-0.9-6-1.1-6.2l-0.1-0.1h-0.2c-3.9-1.2-8.2-1.7-12.3-1.7h-0.9l0.1,0.6
		C101,70.8,101.6,74.4,103.7,75z"/>
	<path style="fill:var(--sapContent_Illustrative_Color6)" d="M138.6,102.6c1.3-2.4,1.1-5-0.4-7.5c-2.9-4.7-9.8-7.8-14.4-7.8c-2.9,0-4.9,1.2-5.5,3.3
		c-0.6,1.7-0.7,3.5-0.4,5.3c0.3,1.8,1,3.4,2.1,4.9c2.6,3.5,7.2,5.9,11.5,5.9C134.7,106.6,137.2,105.1,138.6,102.6z"/>
	<path style="fill:var(--sapContent_Illustrative_Color6)" d="M99.1,106.1c-1,0-1.9,0.1-2.9,0.2c-0.5,0.1-0.9,0.1-1.4,0.1c-0.6-0.1-1.2-0.2-1.7-0.4
		c-0.7-0.3-1.4-0.4-2.2-0.5c-0.8,0-1.8,0.3-2.1,1.9c-0.1,0.3-0.1,0.7-0.1,1c0.1,0.3,0.2,0.6,0.4,0.9c0.4,0.5,1.2,0.8,2.3,0.8
		c0.6,0,1.2-0.1,1.9-0.2c0.3,0,0.6-0.1,0.9-0.1c0.4,0,0.5,0.2,0.9,0.5c0.5,0.6,1.2,1,2,1.3l0.2,0.1c1.2,0.5,2.5,0.8,3.9,0.8l0,0
		c0.4,0,0.8,0,1.2-0.2c0.4-0.1,0.7-0.4,1-0.6c0.3-0.4,0.4-0.8,0.5-1.2c0.1-0.4,0.1-0.9,0-1.3C103.6,107.1,102,106.1,99.1,106.1z"/>
	<path style="fill:var(--sapContent_Illustrative_Color6)" d="M103.7,75c0.8,0.2,1.6,0.4,2.5,0.3c0.5,0,0.8,0,1,0.1c0.2,0.3,0.3,0.6,0.4,0.9c0.3,0.8,0.6,1.7,1.6,2.2
		c0.8,0.3,1.6,0.5,2.4,0.4c0.8,0,2.6-0.1,3.7-1.1c2.2-2.1-0.9-6-1.1-6.2l-0.1-0.1h-0.2c-3.9-1.2-8.2-1.7-12.3-1.7h-0.9l0.1,0.6
		C101,70.8,101.6,74.4,103.7,75z"/>
	<path fill-rule="evenodd" clip-rule="evenodd" style="fill:var(--sapContent_Illustrative_Color5)" d="M93.4,147.4c23.1,0,41.8-18.7,41.8-41.7c0-12.4-5.4-23.6-14-31.2
		c13.5,6.9,22.8,21,22.8,37.2c0,23.1-18.7,41.8-41.7,41.8c-10.6,0-20.3-4-27.7-10.5C80.1,145.7,86.5,147.4,93.4,147.4z"/>
	<path style="fill:var(--sapContent_Illustrative_Color1)" d="M91.8,42.9c-9.6,0-17.4,7.8-17.4,17.4c0,13,17.4,32.2,17.4,32.2s17.4-19.2,17.4-32.2
		C109.1,50.6,101.4,42.9,91.8,42.9z M91.8,66.4c-3.4,0-6.2-2.8-6.2-6.2s2.8-6.2,6.2-6.2c3.4,0,6.2,2.8,6.2,6.2
		C98,63.7,95.2,66.4,91.8,66.4z"/>
	<path fill-rule="evenodd" clip-rule="evenodd" style="fill:var(--sapContent_Illustrative_Color4)" d="M17.9,52.8c1.4-0.3,2.9-0.4,4.4-0.4h0.2c0.1,0,0.1,0,0.2,0
		s0.1,0,0.2,0h0.2c0.7,0,1.2,0.6,1.2,1.2c0,0.7-0.6,1.2-1.2,1.2h-0.2c-0.1,0-0.1,0-0.2,0s-0.1,0-0.2,0h-0.2c-1.3,0-2.6,0.1-3.9,0.4
		c-0.7,0.1-1.3-0.3-1.5-1C16.8,53.6,17.2,53,17.9,52.8z M11.6,56.5c0.4,0.6,0.2,1.4-0.3,1.7c-2.2,1.5-4,3.3-5.5,5.5
		c-0.4,0.6-1.2,0.7-1.7,0.3c-0.6-0.4-0.7-1.2-0.3-1.7c1.6-2.4,3.7-4.5,6.2-6.2C10.4,55.8,11.2,56,11.6,56.5z M1.8,69.5
		c0.7,0.1,1.1,0.8,1,1.5c-0.2,1.3-0.4,2.6-0.4,3.9s0.1,2.6,0.4,3.9c0.1,0.7-0.3,1.3-1,1.5c-0.7,0.1-1.3-0.3-1.5-1
		c-0.3-1.4-0.4-2.9-0.4-4.4s0.1-3,0.4-4.4C0.4,69.8,1.1,69.3,1.8,69.5z M4,85.6c0.6-0.4,1.4-0.2,1.7,0.3c1.5,2.2,3.3,4,5.5,5.5
		c0.6,0.4,0.7,1.2,0.3,1.7c-0.4,0.6-1.2,0.7-1.7,0.3c-2.4-1.6-4.5-3.7-6.2-6.2C3.3,86.7,3.4,85.9,4,85.6z M16.9,95.4
		c0.1-0.7,0.8-1.1,1.5-1c1.3,0.2,2.6,0.4,3.9,0.4h3.1c0.7,0,1.2,0.6,1.2,1.2s-0.6,1.3-1.2,1.3h-3.1c-1.5,0-3-0.1-4.4-0.4
		C17.2,96.7,16.8,96,16.9,95.4z M30.5,96c0-0.7,0.6-1.2,1.2-1.2H38c0.7,0,1.2,0.6,1.2,1.2s-0.6,1.3-1.2,1.3h-6.3
		C31,97.3,30.5,96.7,30.5,96z M43.1,96c0-0.7,0.6-1.2,1.2-1.2h6.3c0.7,0,1.2,0.6,1.2,1.2s-0.6,1.3-1.2,1.3h-6.3
		C43.6,97.3,43.1,96.7,43.1,96z M55.7,96c0-0.7,0.6-1.2,1.2-1.2h6.3c0.7,0,1.2,0.6,1.2,1.2s-0.6,1.3-1.2,1.3h-6.3
		C56.2,97.3,55.7,96.7,55.7,96z M68.3,96c0-0.7,0.6-1.2,1.2-1.2h3.1c0.7,0,1.2,0.6,1.2,1.2s-0.6,1.3-1.2,1.3h-3.1
		C68.8,97.3,68.3,96.7,68.3,96z"/>
</g>
</svg>
