<svg width="45" height="46" viewBox="0 0 45 46" fill="none" xmlns="http://www.w3.org/2000/svg" id="tnt-Dot-SessionExpiring-alternate">
<path fill-rule="evenodd" clip-rule="evenodd" d="M30.735 30.5277C29.4682 28.9923 27.7025 27.3214 25.2542 25.3532C25.2261 25.3306 25.1991 25.3064 25.1723 25.2822C25.0462 25.1681 24.6429 24.8086 24.1681 24.205C23.8282 23.7724 23.8279 23.0997 24.1665 22.666C24.6504 22.0464 25.063 21.6787 25.1891 21.5646C25.215 21.5412 25.241 21.5178 25.2682 21.496C27.7247 19.5184 29.4911 17.8471 30.7504 16.3204C31.9233 14.8948 32.6613 13.5973 33.1274 12.2998C33.8576 10.2849 33.9217 8.254 33.9271 5.74385C33.9278 5.42852 33.672 5.17261 33.3566 5.17261L11.6448 5.17261C11.332 5.17261 11.0771 5.42462 11.0749 5.73746C11.0572 8.23439 11.1345 10.267 11.8647 12.2998C12.3466 13.5973 13.0922 14.8948 14.2654 16.3204C15.5321 17.8557 17.2979 19.5265 19.746 21.4945C19.7744 21.5173 19.8017 21.5419 19.8288 21.5664C19.9521 21.678 20.3374 22.0217 20.7952 22.5965C21.1586 23.0526 21.1589 23.7716 20.7968 24.2292C20.3309 24.818 19.9372 25.1695 19.8128 25.2821C19.7861 25.3063 19.7591 25.3306 19.731 25.3533C17.275 27.3304 15.5091 29.001 14.2499 30.5277C13.077 31.953 12.3388 33.2508 11.873 34.5483C11.1428 36.5632 11.0786 38.5939 11.0732 41.1042C11.0725 41.4196 11.3284 41.6755 11.6437 41.6755H33.3558C33.6687 41.6755 33.9235 41.4235 33.9257 41.1106C33.9434 38.6137 33.8661 36.5811 33.1356 34.5483C32.6538 33.2508 31.9082 31.953 30.735 30.5277Z" style="fill:var(--sapContent_Illustrative_Color8)"/>
<path fill-rule="evenodd" clip-rule="evenodd" d="M30.7505 16.3204C29.4911 17.8471 27.7247 19.5184 25.2683 21.496C25.2411 21.5178 25.2151 21.5412 25.1892 21.5646L25.1786 21.5742C25.0412 21.6983 24.6377 22.0627 24.1666 22.666C23.8279 23.0997 23.8282 23.7724 24.1682 24.205C24.6308 24.793 25.0254 25.1495 25.1621 25.2729L25.1724 25.2822C25.1992 25.3064 25.2261 25.3306 25.2543 25.3532C27.7026 27.3214 29.4683 28.9923 30.735 30.5277C31.9082 31.953 32.6538 33.2508 33.1357 34.5483C33.8662 36.5811 33.9435 38.6137 33.9258 41.1106C33.9235 41.4235 33.6687 41.6755 33.3559 41.6755H11.6438C11.3284 41.6755 11.0726 41.4196 11.0733 41.1042C11.0787 38.5939 11.1428 36.5632 11.873 34.5483C12.3389 33.2508 13.0771 31.953 14.25 30.5277C15.5091 29.001 17.2751 27.3304 19.7311 25.3533C19.7592 25.3306 19.7861 25.3063 19.8129 25.2821L19.8234 25.2726C19.9582 25.1507 20.3433 24.8023 20.7969 24.2292C21.1589 23.7716 21.1587 23.0525 20.7953 22.5965C20.3494 22.0366 19.9722 21.696 19.8389 21.5755C19.8354 21.5723 19.832 21.5693 19.8288 21.5664C19.8018 21.5419 19.7744 21.5173 19.746 21.4945C17.2979 19.5265 15.5321 17.8557 14.2654 16.3204C13.0923 14.8948 12.3466 13.5973 11.8648 12.2998C11.1345 10.267 11.0573 8.23439 11.075 5.73746C11.0772 5.42462 11.332 5.17261 11.6449 5.17261L33.3567 5.17261C33.672 5.17261 33.9279 5.42852 33.9272 5.74385C33.9218 8.254 33.8576 10.2849 33.1274 12.2998C32.6613 13.5973 31.9234 14.8948 30.7505 16.3204ZM34.0681 12.6393C34.8642 10.4416 34.9218 8.24861 34.9272 5.746C34.929 4.87648 34.2241 4.17261 33.3567 4.17261L11.6449 4.17261C10.7849 4.17261 10.0811 4.86566 10.075 5.73037C10.0572 8.23466 10.1284 10.4241 10.9236 12.6379L10.9236 12.6379L10.9273 12.648C11.4534 14.0646 12.2602 15.4575 13.4933 16.9558L13.4941 16.9568C14.8209 18.565 16.644 20.2839 19.1195 22.2739C19.1194 22.2739 19.1221 22.276 19.1289 22.282C19.1362 22.2883 19.1445 22.2958 19.1581 22.3081L19.1684 22.3174C19.2875 22.425 19.6178 22.7232 20.0131 23.2195L20.0132 23.2197C20.0858 23.3108 20.0872 23.5145 20.0126 23.6087C19.6104 24.1171 19.2728 24.4222 19.1523 24.5312C19.1486 24.5346 19.145 24.5378 19.1417 24.5409C19.1282 24.553 19.1201 24.5604 19.113 24.5665C19.1064 24.5724 19.1038 24.5744 19.104 24.5743C16.6213 26.5729 14.7979 28.2916 13.4785 29.8914L13.4779 29.8923C12.2441 31.3914 11.4429 32.7876 10.9323 34.209C10.1363 36.4066 10.0787 38.5993 10.0733 41.1021C10.0714 41.9716 10.7764 42.6755 11.6438 42.6755H33.3559C34.2159 42.6755 34.9196 41.9824 34.9257 41.1177C34.9435 38.6134 34.8723 36.424 34.0768 34.2101L34.0768 34.2101L34.0731 34.2001C33.5471 32.7835 32.7402 31.3903 31.5071 29.8922L30.735 30.5277L31.5064 29.8913C30.1795 28.2831 28.3565 26.564 25.8808 24.5738C25.8808 24.5739 25.8804 24.5735 25.8794 24.5727C25.878 24.5715 25.8755 24.5694 25.8717 24.566C25.8646 24.5599 25.8564 24.5525 25.843 24.5404C25.8397 24.5374 25.8362 24.5342 25.8325 24.5309C25.7106 24.4208 25.3647 24.1086 24.9544 23.5871M34.0681 12.6393C33.5573 14.0605 32.7564 15.4563 31.5227 16.9557L31.5219 16.9567C30.2023 18.5565 28.3785 20.2758 25.8954 22.2749L25.8954 22.2749C25.8954 22.2749 25.893 22.2768 25.8872 22.2819L25.8599 22.3063C25.8566 22.3094 25.853 22.3126 25.8492 22.316C25.7269 22.4265 25.3729 22.746 24.9547 23.2815C24.8986 23.3534 24.8995 23.517 24.9544 23.587" style="fill:var(--sapContent_Illustrative_Color4)"/>
<path fill-rule="evenodd" clip-rule="evenodd" d="M30.9839 40.7359C31.5488 40.7359 31.7903 39.9747 31.3479 39.6236C29.6859 38.3046 28.123 36.7354 26.7679 35.214C24.3417 32.4901 19.6964 32.5332 17.3903 35.3595C16.1836 36.8384 14.8204 38.3656 13.404 39.6856C13.0121 40.0507 13.2645 40.7359 13.8002 40.7359H30.9839ZM33.8597 41.3529C33.8551 41.3502 33.8492 41.3519 33.8465 41.3566C33.7394 41.547 33.535 41.6754 33.3012 41.6754H11.6992C11.5251 41.6754 11.3674 41.6042 11.2539 41.4893C11.2499 41.4852 11.2434 41.4846 11.2387 41.488C11.233 41.4921 11.2322 41.5003 11.2371 41.5053C11.3406 41.6103 11.4846 41.6755 11.6437 41.6755H33.3558C33.5769 41.6755 33.769 41.5496 33.8635 41.3653C33.8657 41.3609 33.8641 41.3554 33.8597 41.3529Z" style="fill:var(--sapContent_Illustrative_Color3)"/>
<path fill-rule="evenodd" clip-rule="evenodd" d="M21.6204 22.132C21.7987 22.3922 22.0185 22.6473 22.3278 22.7095C22.7759 22.7996 23.1454 22.4478 23.4267 22.0875L23.4268 22.0874C23.9479 21.4202 24.398 21.0136 24.5501 20.8761L24.5561 20.8708C24.5841 20.8454 24.6307 20.8033 24.6837 20.7607C26.0176 19.6867 27.135 18.7124 28.0705 17.8109C28.7733 17.1337 28.2739 16.012 27.298 16.012L17.7189 16.0121C16.743 16.0121 16.2434 17.134 16.9459 17.8113C17.8827 18.7146 18.9995 19.688 20.3312 20.7587C20.3858 20.8026 20.4341 20.8462 20.4632 20.8725L20.4632 20.8725L20.4634 20.8727L20.4687 20.8775C20.6159 21.0105 21.0371 21.391 21.5307 22.0108C21.5621 22.0502 21.592 22.0906 21.6204 22.132ZM30.9995 16.012C30.9995 16.012 30.9995 16.012 30.9994 16.012C30.9189 16.1141 30.8361 16.2168 30.7511 16.3201C29.4924 17.846 27.7273 19.5163 25.2729 21.4925C25.2431 21.5165 25.2144 21.5422 25.186 21.5679L25.1792 21.5739C25.0684 21.674 24.7845 21.9305 24.4316 22.3425C24.4315 22.3426 24.4316 22.3428 24.4318 22.3427C24.4318 22.3427 24.4318 22.3427 24.4318 22.3427C24.7848 21.9307 25.0687 21.6742 25.1795 21.5741L25.1795 21.5741L25.19 21.5646C25.2159 21.5412 25.2419 21.5178 25.2691 21.4959C27.7256 19.5183 29.492 17.8471 30.7513 16.3203C30.8364 16.217 30.9191 16.1143 30.9997 16.0122C30.9997 16.0121 30.9997 16.012 30.9995 16.012ZM16.2461 18.4416C17.0603 19.2297 18.0013 20.063 19.0876 20.958C19.0876 20.958 19.0876 20.958 19.0876 20.958C19.0876 20.958 19.0876 20.958 19.0876 20.958C18.0012 20.063 17.0603 19.2297 16.2461 18.4416Z" style="fill:var(--sapContent_Illustrative_Color3)"/>
<rect x="6.81152" y="1.36255" width="31.3769" height="3.88012" rx="1.42741" style="fill:var(--sapContent_Illustrative_Color5)"/>
<rect x="6.81201" y="41.4258" width="31.3769" height="3.88012" rx="1.42741" style="fill:var(--sapContent_Illustrative_Color5)"/>
</svg>
