<svg width="160" height="161" viewBox="0 0 160 161" fill="none" xmlns="http://www.w3.org/2000/svg" id="tnt-Dialog-Handshake-alternate">
<path fill-rule="evenodd" clip-rule="evenodd" d="M44.6223 61.1307L26.5119 53.2876L13.4497 79.6192L73.9916 112.171L74.3392 111.67L83.1828 119.962C85.3295 121.975 88.7013 121.866 90.7141 119.72C91.601 118.774 92.076 117.59 92.1462 116.39C94.2963 118.31 97.5978 118.173 99.5805 116.058C100.809 114.748 101.247 112.981 100.914 111.346C102.91 112.187 105.303 111.751 106.871 110.079C108.173 108.69 108.587 106.788 108.136 105.073C110.282 106.706 113.36 106.484 115.245 104.473C117.257 102.326 117.149 98.9545 115.002 96.9417L96.566 79.6554L96.5911 79.6192C96.5438 79.4445 96.4948 79.2571 96.4428 79.0583C95.5075 75.4809 93.6024 68.1943 83.0745 64.4231C76.1873 61.956 67.9244 62.0126 61.5834 62.8073C55.8807 63.5219 49.8962 63.4147 44.6223 61.1307Z" style="fill:var(--sapContent_Illustrative_Color8)"/>
<path fill-rule="evenodd" clip-rule="evenodd" d="M25.9195 51.6689L45.119 59.9837C50.0978 62.1398 55.8237 62.2693 61.4279 61.567C67.8545 60.7616 76.3428 60.6839 83.496 63.2463C88.9974 65.217 92.3196 68.1394 94.3815 71.0988C96.4182 74.022 97.1745 76.915 97.6453 78.7158L97.6521 78.7421C97.6785 78.843 97.7037 78.9392 97.728 79.0314L115.857 96.0299C118.508 98.5148 118.642 102.678 116.157 105.328C114.406 107.195 111.824 107.813 109.523 107.147C109.375 108.516 108.798 109.851 107.783 110.934C106.306 112.509 104.238 113.194 102.248 112.972C102.128 114.394 101.546 115.79 100.492 116.913C98.5146 119.022 95.4745 119.538 92.9794 118.408C92.6833 119.19 92.2325 119.928 91.6259 120.575C89.141 123.225 84.9781 123.359 82.3278 120.874L74.5403 113.572L74.3822 113.8L11.7924 80.1474L25.9195 51.6689ZM73.601 110.542L74.138 109.768L84.0378 119.05C85.6808 120.591 88.2616 120.508 89.8022 118.865C90.4817 118.14 90.8445 117.236 90.8984 116.316L91.0495 113.734L92.9789 115.457C94.6241 116.927 97.1512 116.822 98.6686 115.203C99.6081 114.201 99.9449 112.851 99.6892 111.595L99.2166 109.275L101.399 110.194C102.929 110.838 104.76 110.503 105.959 109.224C106.955 108.162 107.274 106.707 106.927 105.391L106.001 101.877L108.893 104.078C110.534 105.328 112.89 105.156 114.333 103.618C115.873 101.975 115.79 99.3942 114.147 97.8536L94.9237 79.8291L95.2351 79.3806C95.2345 79.3786 95.234 79.3765 95.2334 79.3745C94.7685 77.596 94.102 75.0709 92.3303 72.528C90.5738 70.0069 87.6795 67.4005 82.6529 65.5999C76.0317 63.228 67.9942 63.2637 61.7388 64.0476C55.9377 64.7746 49.6946 64.6896 44.1255 62.2778L27.1042 54.9063L15.107 79.0911L73.601 110.542Z" style="fill:var(--sapContent_Illustrative_Color4)"/>
<path d="M113.849 63.6731L144.193 52.9167C144.574 52.7815 144.99 53.0001 145.094 53.3908L152.749 81.9701C152.847 82.336 152.634 82.7127 152.269 82.8165L131.059 88.8582C131.017 88.8702 130.976 88.8862 130.937 88.9059L115.076 96.9005C114.818 97.0306 114.507 96.987 114.294 96.7912L93.0792 77.2342C90.5357 74.8894 86.8879 74.2944 83.5501 75.2038C72.0492 78.337 66.004 74.898 63.587 71.5355C62.9056 70.5876 63.4998 69.3659 64.6082 68.9995L86.6721 61.7056C87.3371 61.4858 88.0267 61.3665 88.7267 61.3877C90.4958 61.4415 94.249 61.6834 98.0559 62.7343C103.186 64.1506 108.833 65.4514 113.849 63.6731Z" style="fill:var(--sapContent_Illustrative_Color8)"/>
<path fill-rule="evenodd" clip-rule="evenodd" d="M144.043 54.2961L114.267 64.8513C108.831 66.7784 102.814 65.3445 97.7233 63.9392C94.0537 62.9263 90.4128 62.6895 88.6888 62.6372C88.1568 62.621 87.6134 62.711 87.0645 62.8925L65.0005 70.1863C64.77 70.2625 64.629 70.4171 64.5749 70.5431C64.5494 70.6024 64.5455 70.648 64.5482 70.679C64.5507 70.706 64.56 70.7475 64.602 70.8059C66.6316 73.6294 72.0715 77.0354 83.2216 73.9977C86.893 72.9975 91.0091 73.6257 93.9265 76.3151L114.858 95.6108L130.374 87.7897L130.374 87.7897C130.484 87.7344 130.598 87.6897 130.717 87.6561L151.4 81.7644L144.043 54.2961ZM151.542 82.2936C151.542 82.2929 151.542 82.2923 151.541 82.2916L151.542 82.2936ZM151.926 81.6147C151.926 81.6145 151.927 81.6144 151.927 81.6143L151.926 81.6147ZM143.775 51.7385C144.844 51.3597 146.008 51.9723 146.302 53.0674L153.957 81.6467C154.231 82.672 153.633 83.7279 152.612 84.0186L131.452 90.0459L115.639 98.0167C114.916 98.3813 114.043 98.2591 113.447 97.7102L92.232 78.1532C90.0624 76.1532 86.8828 75.5914 83.8787 76.4098C72.0269 79.6387 65.3765 76.1665 62.572 72.2651C61.9545 71.4061 61.9175 70.3945 62.2781 69.5558C62.6277 68.7424 63.338 68.1028 64.2159 67.8126L86.2798 60.5188C87.0609 60.2606 87.8966 60.1119 88.7647 60.1383C90.5788 60.1934 94.4442 60.4405 98.3886 61.5294C103.559 62.9566 108.835 64.1244 113.432 62.4949L143.775 51.7385L144.193 52.9167L144.193 52.9182M143.775 51.7385L144.193 52.9167L143.775 51.7385Z" style="fill:var(--sapContent_Illustrative_Color4)"/>
<path d="M66.1836 115.365C63.2516 115.615 60.672 113.441 60.4219 110.509L59.634 101.274C59.3839 98.342 61.558 95.7623 64.4901 95.5122C67.4221 95.2621 70.0017 97.4362 70.2518 100.368L71.0397 109.603C71.2898 112.535 69.1157 115.115 66.1836 115.365Z" style="fill:var(--sapContent_Illustrative_Color8)"/>
<path fill-rule="evenodd" clip-rule="evenodd" d="M66.2899 116.611C62.67 116.919 59.4852 114.235 59.1764 110.615L58.3886 101.38C58.0798 97.7603 60.7639 94.5755 64.3838 94.2667C68.0037 93.9579 71.1885 96.6421 71.4973 100.262L72.2851 109.497C72.5939 113.117 69.9098 116.302 66.2899 116.611ZM61.6674 110.403C61.8588 112.647 63.8332 114.311 66.0774 114.12C68.3216 113.928 69.9856 111.954 69.7942 109.71L69.0064 100.474C68.8149 98.2303 66.8405 96.5662 64.5963 96.7577C62.3521 96.9491 60.6881 98.9236 60.8795 101.168L61.6674 110.403Z" style="fill:var(--sapContent_Illustrative_Color4)"/>
<path d="M56.1365 110.951C53.2045 111.201 50.6249 109.027 50.3748 106.095L49.9093 100.639C49.6062 97.0849 52.2414 93.9581 55.7954 93.6549C58.1055 93.4578 60.1379 95.1708 60.335 97.4809L60.9925 105.189C61.2427 108.121 59.0685 110.701 56.1365 110.951Z" style="fill:var(--sapContent_Illustrative_Color8)"/>
<path fill-rule="evenodd" clip-rule="evenodd" d="M56.2428 112.196C52.6229 112.505 49.4381 109.821 49.1293 106.201L48.6639 100.745C48.302 96.5033 51.4473 92.7713 55.6892 92.4094C58.6871 92.1537 61.3247 94.3767 61.5805 97.3746L62.238 105.083C62.5468 108.703 59.8627 111.887 56.2428 112.196ZM51.6202 105.988C51.8117 108.233 53.7861 109.897 56.0303 109.705C58.2744 109.514 59.9385 107.539 59.7471 105.295L59.0895 97.5871C58.9511 95.9649 57.5239 94.762 55.9017 94.9004C53.0356 95.1449 50.9103 97.6665 51.1548 100.533L51.6202 105.988Z" style="fill:var(--sapContent_Illustrative_Color4)"/>
<path d="M45.4131 107.103C42.4811 107.354 39.9015 105.179 39.6514 102.247L39.5954 101.592C39.3144 98.2977 41.757 95.3995 45.0511 95.1185L48.7392 94.8039C49.2722 94.7584 49.7413 95.1537 49.7867 95.6868L50.2691 101.342C50.5193 104.274 48.3452 106.853 45.4131 107.103Z" style="fill:var(--sapContent_Illustrative_Color8)"/>
<path fill-rule="evenodd" clip-rule="evenodd" d="M45.5194 108.349C41.8995 108.658 38.7147 105.974 38.4059 102.354L38.35 101.698C38.0103 97.7161 40.9629 94.2127 44.9449 93.873L48.6329 93.5584C49.8539 93.4543 50.9281 94.3596 51.0322 95.5806L51.5146 101.235C51.8234 104.855 49.1393 108.04 45.5194 108.349ZM40.8968 102.141C41.0883 104.385 43.0627 106.049 45.3069 105.858C47.5511 105.667 49.2151 103.692 49.0237 101.448L48.5652 96.0733L45.1574 96.364C42.5511 96.5863 40.6186 98.8793 40.8409 101.486L40.8968 102.141Z" style="fill:var(--sapContent_Illustrative_Color4)"/>
<path d="M76.9902 118.338C74.0582 118.588 71.4786 116.414 71.2285 113.482L70.569 105.751C70.3189 102.819 72.493 100.24 75.425 99.9897C78.357 99.7396 80.9367 101.914 81.1868 104.846L81.8462 112.576C82.0964 115.508 79.9222 118.088 76.9902 118.338Z" style="fill:var(--sapContent_Illustrative_Color8)"/>
<path fill-rule="evenodd" clip-rule="evenodd" d="M77.0965 119.583C73.4766 119.892 70.2918 117.208 69.983 113.588L69.3235 105.858C69.0147 102.238 71.6989 99.053 75.3188 98.7442C78.9386 98.4354 82.1235 101.12 82.4323 104.739L83.0917 112.47C83.4005 116.09 80.7164 119.274 77.0965 119.583ZM72.4739 113.376C72.6654 115.62 74.6398 117.284 76.884 117.092C79.1281 116.901 80.7922 114.926 80.6008 112.682L79.9413 104.952C79.7499 102.708 77.7754 101.044 75.5313 101.235C73.2871 101.427 71.623 103.401 71.8145 105.645L72.4739 113.376Z" style="fill:var(--sapContent_Illustrative_Color4)"/>
<path fill-rule="evenodd" clip-rule="evenodd" d="M87.8612 97.3083C88.3652 96.8365 89.1562 96.8626 89.628 97.3666L101.968 110.549C102.44 111.053 102.414 111.844 101.91 112.316C101.406 112.788 100.615 112.762 100.143 112.258L87.8029 99.0751C87.3311 98.5711 87.3572 97.78 87.8612 97.3083Z" style="fill:var(--sapContent_Illustrative_Color4)"/>
<path fill-rule="evenodd" clip-rule="evenodd" d="M95.6228 91.7982C96.1158 91.315 96.9072 91.323 97.3904 91.816L109.884 104.564C110.367 105.057 110.359 105.848 109.866 106.331C109.373 106.815 108.582 106.807 108.098 106.314L95.605 93.5659C95.1217 93.0728 95.1297 92.2814 95.6228 91.7982Z" style="fill:var(--sapContent_Illustrative_Color4)"/>
<path fill-rule="evenodd" clip-rule="evenodd" d="M86.0052 109.304C86.51 108.833 87.3009 108.86 87.7719 109.365L93.9021 115.934C94.3731 116.439 94.3457 117.23 93.841 117.701C93.3363 118.172 92.5453 118.144 92.0743 117.64L85.9441 111.07C85.4731 110.566 85.5005 109.775 86.0052 109.304Z" style="fill:var(--sapContent_Illustrative_Color4)"/>
<rect x="113.841" y="59.304" width="18.4882" height="40.5202" rx="2.7737" transform="rotate(-18.7886 113.841 59.304)" style="fill:var(--sapContent_Illustrative_Color6)"/>
<path d="M125.313 55.0604C124.697 53.2476 125.666 51.278 127.479 50.6613L144.032 45.03L159.481 90.443L142.929 96.0743C141.116 96.6911 139.146 95.7215 138.53 93.9087L125.313 55.0604Z" style="fill:var(--sapContent_Illustrative_Color2)"/>
<rect width="18.2321" height="40.5202" rx="2.7737" transform="matrix(-0.892669 -0.450713 -0.450713 0.892669 46.7098 57.1264)" style="fill:var(--sapContent_Illustrative_Color6)"/>
<path d="M36.1686 51.442C37.0316 49.7327 36.3456 47.6474 34.6363 46.7844L22.0406 40.4248L0.420312 83.2453L13.0159 89.6049C14.7253 90.468 16.8106 89.7819 17.6736 88.0726L36.1686 51.442Z" style="fill:var(--sapContent_Illustrative_Color3)"/>
</svg>
