<svg width="160" height="160" viewBox="0 0 160 160" fill="none" xmlns="http://www.w3.org/2000/svg" id="tnt-Dialog-ChartPie">
<path d="M79.3943 161.789C123.243 161.789 158.789 126.243 158.789 82.3943C158.789 38.546 123.243 3 79.3943 3C35.546 3 0 38.546 0 82.3943C0 126.243 35.546 161.789 79.3943 161.789Z" style="fill:var(--sapContent_Illustrative_Color7)"/>
<path d="M105.777 19.0182L56.1169 9.07575C54.0115 8.65422 51.9647 10.0228 51.5453 12.1325L37.1527 84.5321C36.7333 86.6419 38.1001 88.6939 40.2055 89.1154L89.8657 99.0578C91.9711 99.4793 94.0179 98.1108 94.4373 96.001L108.83 23.6014C109.249 21.4917 107.883 19.4397 105.777 19.0182Z" style="fill:var(--sapContent_Illustrative_Color18)"/>
<path d="M77.4613 24.0189C75.8098 23.6019 74.0724 23.6847 72.4685 24.2572C70.8647 24.8296 69.4665 25.8659 68.4508 27.2349C67.4351 28.604 66.8474 30.2443 66.7621 31.9486C66.6767 33.6529 67.0976 35.3446 67.9714 36.8098C68.8452 38.2749 70.1328 39.4478 71.6713 40.1801C73.2098 40.9124 74.9302 41.1712 76.6148 40.9239C78.2995 40.6765 79.8729 39.934 81.1361 38.7903C82.3992 37.6466 83.2954 36.1531 83.7113 34.4986L75.3563 32.3915L77.4613 24.0189Z" style="fill:var(--sapContent_Illustrative_Color7)"/>
<path d="M79.841 22.5057L77.7424 30.8701L86.0901 32.9781C86.3663 31.8796 86.4237 30.7373 86.2591 29.6164C86.0944 28.4954 85.711 27.4179 85.1306 26.4453C84.5503 25.4727 83.7844 24.6242 82.8767 23.9482C81.9691 23.2722 80.9375 22.782 79.841 22.5057V22.5057Z" style="fill:var(--sapContent_Illustrative_Color19)"/>
<path d="M90.2204 50.0298L55.6151 43.1015C54.4671 42.8716 53.351 43.6179 53.1223 44.7683C52.8936 45.9187 53.6389 47.0376 54.787 47.2675L89.3923 54.1957C90.5403 54.4256 91.6564 53.6793 91.8851 52.5289C92.1138 51.3785 91.3685 50.2596 90.2204 50.0298Z" style="fill:var(--sapContent_Illustrative_Color7)"/>
<path d="M88.2617 57.1497L53.6564 50.2214C52.5083 49.9915 51.3922 50.7378 51.1636 51.8882C50.9349 53.0386 51.6802 54.1575 52.8282 54.3873L87.4335 61.3156C88.5816 61.5455 89.6977 60.7992 89.9264 59.6488C90.1551 58.4984 89.4097 57.3795 88.2617 57.1497Z" style="fill:var(--sapContent_Illustrative_Color7)"/>
<path d="M70.2659 60.8923L51.8303 57.2013C50.6823 56.9715 49.5662 57.7177 49.3375 58.8681C49.1088 60.0185 49.8541 61.1374 51.0022 61.3672L69.4377 65.0582C70.5858 65.288 71.7019 64.5419 71.9306 63.3915C72.1593 62.2411 71.414 61.1221 70.2659 60.8923Z" style="fill:var(--sapContent_Illustrative_Color7)"/>
<path fill-rule="evenodd" clip-rule="evenodd" d="M108.268 156.375C135.132 145.883 154.88 121.181 158.271 91.5091L126.578 71.1208C124.773 69.9591 122.363 70.4826 121.197 72.29L81.176 134.316C80.0098 136.123 80.5283 138.53 82.3341 139.692L108.268 156.375Z" style="fill:var(--sapContent_Illustrative_Color18)"/>
<path fill-rule="evenodd" clip-rule="evenodd" d="M146.353 110.937C146.832 111.724 146.582 112.751 145.794 113.23L125.211 125.743C124.726 126.038 124.123 126.066 123.612 125.817C123.101 125.567 122.752 125.075 122.686 124.511L121.488 114.291L104.479 123.934C103.677 124.389 102.658 124.108 102.204 123.306C101.749 122.504 102.031 121.485 102.833 121.03L122.029 110.146C122.516 109.871 123.108 109.857 123.607 110.11C124.106 110.363 124.445 110.849 124.511 111.404L125.699 121.539L144.06 110.377C144.847 109.898 145.874 110.149 146.353 110.937Z" style="fill:var(--sapContent_Illustrative_Color19)"/>
<path d="M121.956 87.5316C122.206 87.1442 122.722 87.0326 123.11 87.2824L125.232 88.6506C125.619 88.9004 125.731 89.417 125.481 89.8045L103.819 123.402C103.569 123.789 103.053 123.901 102.665 123.651L100.543 122.283C100.156 122.033 100.044 121.516 100.294 121.129L121.956 87.5316Z" style="fill:var(--sapContent_Illustrative_Color7)"/>
<path fill-rule="evenodd" clip-rule="evenodd" d="M133.904 140.119L102.159 119.859C101.771 119.611 101.255 119.725 101.007 120.113L99.6482 122.242C99.4002 122.63 99.5141 123.146 99.9027 123.394L130.657 143.023C131.766 142.084 132.848 141.116 133.904 140.119Z" style="fill:var(--sapContent_Illustrative_Color7)"/>
<path d="M95.4102 130.246C95.8998 129.465 96.9345 129.221 97.7157 129.711L114.077 139.968C114.859 140.458 115.09 141.495 114.601 142.276V142.276C114.111 143.057 113.076 143.301 112.295 142.811L95.9334 132.554C95.1523 132.064 94.9205 131.027 95.4102 130.246V130.246Z" style="fill:var(--sapContent_Illustrative_Color7)"/>
<path d="M126.007 35.1744C126.007 33.9855 122.556 33.0339 117.945 32.8177C117.681 28.2126 116.666 24.7884 115.477 24.791C114.288 24.7937 113.299 28.2442 113.046 32.8731C108.422 33.1894 104.984 34.2227 105 35.4142C105.016 36.6057 108.451 37.5573 113.062 37.7709C113.339 42.376 114.341 45.8002 115.527 45.7976C116.713 45.7949 117.707 42.3444 117.96 37.7155C122.585 37.3992 126.02 36.3659 126.007 35.1744Z" style="fill:var(--sapContent_Illustrative_Color3)"/>
<path d="M143.011 56.6881C143.011 55.9219 140.787 55.3087 137.815 55.1694C137.646 52.2016 136.991 49.9949 136.225 49.9966C135.459 49.9983 134.822 52.222 134.659 55.205C131.679 55.4089 129.463 56.0748 129.473 56.8427C129.484 57.6105 131.697 58.2238 134.669 58.3614C134.847 61.3291 135.493 63.5358 136.257 63.5341C137.022 63.5324 137.663 61.3087 137.826 58.3257C140.806 58.1218 143.019 57.4559 143.011 56.6881Z" style="fill:var(--sapContent_Illustrative_Color3)"/>
<path d="M7.45984 56.7103C7.45984 52.8137 10.6187 49.6548 14.5154 49.6548H88.3225L107.744 65.7568V140.453C107.744 144.349 104.585 147.508 100.689 147.508H14.5154C10.6187 147.508 7.45984 144.349 7.45984 140.453V56.7103Z" style="fill:var(--sapContent_Illustrative_Color6)"/>
<path d="M3.93213 51.7714C3.93213 48.6541 6.45923 46.127 9.57656 46.127H84.0185L104.217 63.0434V138.336C104.217 141.453 101.689 143.981 98.5721 143.981H9.57656C6.45923 143.981 3.93213 141.453 3.93213 138.336V51.7714Z" style="fill:var(--sapContent_Illustrative_Color8)"/>
<path d="M83.9097 62.8896L104.217 66.9848V62.8896H83.9097Z" style="fill:var(--sapContent_Illustrative_Color5)"/>
<path d="M83.9097 62.89H104.217L83.9097 46.127V62.89Z" style="fill:var(--sapContent_Illustrative_Color6)"/>
<rect x="15.9902" y="74.269" width="76.1684" height="58.7705" rx="4.09664" style="fill:var(--sapContent_Illustrative_Color7)"/>
<path d="M54.1039 85.6237C54.1437 85.2205 53.8491 84.8599 53.4447 84.8351C49.8169 84.6129 46.1932 85.4005 42.9789 87.1174C39.5486 88.9497 36.7386 91.758 34.9044 95.1872C33.0701 98.6165 32.2939 102.513 32.674 106.383C33.054 110.253 34.5733 113.924 37.0395 116.931C39.5058 119.938 42.8083 122.146 46.5295 123.276C50.2507 124.406 54.2235 124.407 57.9453 123.279C61.6672 122.152 64.971 119.946 67.4391 116.94C69.7517 114.124 71.2331 110.724 71.725 107.123C71.7799 106.722 71.4839 106.362 71.0806 106.322L52.9731 104.534C52.5698 104.494 52.2752 104.135 52.3151 103.731L54.1039 85.6237Z" style="fill:var(--sapContent_Illustrative_Color2)"/>
<path d="M54.1039 85.6238C54.1437 85.2205 53.8491 84.8599 53.4447 84.8351C49.8261 84.6135 46.2161 85.3969 43.0148 87.0984C42.657 87.2885 42.5384 87.7388 42.7417 88.0893L51.6724 103.478C51.8511 103.786 52.3197 103.685 52.3547 103.33L54.1039 85.6238Z" style="fill:var(--sapContent_Illustrative_Color20)"/>
<path d="M71.0806 106.322C71.4839 106.362 71.7799 106.722 71.725 107.123C71.3489 109.877 70.3928 112.522 68.9168 114.883C67.3112 117.452 65.1336 119.615 62.5541 121.204C59.9745 122.793 57.0628 123.764 54.0461 124.042C51.2732 124.297 48.4805 123.96 45.8523 123.057C45.4691 122.925 45.2813 122.499 45.4272 122.121L52.0419 104.982C52.1607 104.675 52.4703 104.484 52.7985 104.516L71.0806 106.322Z" style="fill:var(--sapContent_Illustrative_Color14)"/>
<path d="M67.7471 83.3372C67.9716 82.9998 68.4278 82.9074 68.7578 83.1426C71.9264 85.4022 74.4648 88.441 76.124 91.9705C77.7833 95.4999 78.5038 99.3933 78.2221 103.275C78.1928 103.679 77.8306 103.971 77.4276 103.929L56.7789 101.758C56.2305 101.701 55.9393 101.081 56.2448 100.622L67.7471 83.3372Z" style="fill:var(--sapContent_Illustrative_Color3)"/>
<path d="M30.9111 57.0674H17.7851C16.9003 57.0674 16.1831 57.7846 16.1831 58.6694C16.1831 59.5541 16.9003 60.2714 17.7851 60.2714H30.9111C31.7959 60.2714 32.5131 59.5541 32.5131 58.6694C32.5131 57.7846 31.7959 57.0674 30.9111 57.0674Z" style="fill:var(--sapContent_Illustrative_Color14)"/>
<path d="M43.9434 63.291H17.5408C16.791 63.291 16.1831 63.8989 16.1831 64.6487C16.1831 65.3985 16.791 66.0064 17.5408 66.0064H43.9434C44.6932 66.0064 45.301 65.3985 45.301 64.6487C45.301 63.8989 44.6932 63.291 43.9434 63.291Z" style="fill:var(--sapContent_Illustrative_Color13)"/>
</svg>
