<svg width="45" height="46" viewBox="0 0 45 46" fill="none" xmlns="http://www.w3.org/2000/svg" id="tnt-Dot-Tools">
<path fill-rule="evenodd" clip-rule="evenodd" d="M37.9473 3.60001C37.9473 3.11838 37.347 2.89798 37.0353 3.26518L3.89764 42.3087C3.61235 42.6448 3.85125 43.161 4.29213 43.161L37.4298 43.161C37.7156 43.161 37.9473 42.9293 37.9473 42.6435L37.9473 3.60001ZM30.2596 21.7196C30.5712 21.3524 31.1715 21.5728 31.1715 22.0545L31.1715 35.8678C31.1715 36.1536 30.9398 36.3852 30.6541 36.3852L18.9302 36.3852C18.4893 36.3852 18.2504 35.8691 18.5357 35.533L30.2596 21.7196Z" style="fill:var(--sapContent_Illustrative_Color8)"/>
<path fill-rule="evenodd" clip-rule="evenodd" d="M30.1715 35.3853L19.9727 35.3853L30.1715 23.3688L30.1715 35.3853ZM36.2729 2.61814L3.13522 41.6617C2.29857 42.6474 2.99918 44.161 4.29213 44.161L37.4298 44.161C38.2679 44.161 38.9473 43.4816 38.9473 42.6436L38.9473 3.60006C38.9473 2.18762 37.1869 1.54126 36.2729 2.61814ZM37.0353 3.26523C37.347 2.89803 37.9473 3.11842 37.9473 3.60006L37.9473 42.6436C37.9473 42.9294 37.7156 43.161 37.4298 43.161L4.29213 43.161C3.85125 43.161 3.61235 42.6449 3.89764 42.3088L37.0353 3.26523ZM31.1715 22.0545C31.1715 21.5729 30.5712 21.3525 30.2596 21.7197L18.5357 35.533C18.2504 35.8691 18.4893 36.3853 18.9302 36.3853L30.6541 36.3853C30.9398 36.3853 31.1715 36.1536 31.1715 35.8678L31.1715 22.0545Z" style="fill:var(--sapContent_Illustrative_Color4)"/>
<path fill-rule="evenodd" clip-rule="evenodd" d="M38.5273 11.2739C38.5273 11.5501 38.3035 11.7739 38.0273 11.7739L34.9622 11.7739C34.686 11.7739 34.4622 11.5501 34.4622 11.2739C34.4622 10.9978 34.686 10.7739 34.9622 10.7739L38.0273 10.7739C38.3035 10.7739 38.5273 10.9978 38.5273 11.2739Z" style="fill:var(--sapContent_Illustrative_Color4)"/>
<path fill-rule="evenodd" clip-rule="evenodd" d="M38.5273 15.2739C38.5273 15.5501 38.3035 15.7739 38.0273 15.7739L34.9622 15.7739C34.686 15.7739 34.4622 15.5501 34.4622 15.2739C34.4622 14.9978 34.686 14.7739 34.9622 14.7739L38.0273 14.7739C38.3035 14.7739 38.5273 14.9978 38.5273 15.2739Z" style="fill:var(--sapContent_Illustrative_Color4)"/>
<path fill-rule="evenodd" clip-rule="evenodd" d="M38.5273 19.2739C38.5273 19.5501 38.3035 19.7739 38.0273 19.7739L32.1304 19.7739C31.8543 19.7739 31.6304 19.5501 31.6304 19.2739C31.6304 18.9978 31.8543 18.7739 32.1304 18.7739L38.0273 18.7739C38.3035 18.7739 38.5273 18.9978 38.5273 19.2739Z" style="fill:var(--sapContent_Illustrative_Color4)"/>
<path fill-rule="evenodd" clip-rule="evenodd" d="M38.5273 23.2739C38.5273 23.5501 38.3035 23.7739 38.0273 23.7739L34.9622 23.7739C34.686 23.7739 34.4622 23.5501 34.4622 23.2739C34.4622 22.9978 34.686 22.7739 34.9622 22.7739L38.0273 22.7739C38.3035 22.7739 38.5273 22.9978 38.5273 23.2739Z" style="fill:var(--sapContent_Illustrative_Color4)"/>
<path fill-rule="evenodd" clip-rule="evenodd" d="M38.5273 27.2739C38.5273 27.5501 38.3035 27.7739 38.0273 27.7739L34.9622 27.7739C34.686 27.7739 34.4622 27.5501 34.4622 27.2739C34.4622 26.9978 34.686 26.7739 34.9622 26.7739L38.0273 26.7739C38.3035 26.7739 38.5273 26.9978 38.5273 27.2739Z" style="fill:var(--sapContent_Illustrative_Color4)"/>
<path fill-rule="evenodd" clip-rule="evenodd" d="M38.5273 31.2739C38.5273 31.5501 38.3035 31.7739 38.0273 31.7739L34.9622 31.7739C34.686 31.7739 34.4622 31.5501 34.4622 31.2739C34.4622 30.9978 34.686 30.7739 34.9622 30.7739L38.0273 30.7739C38.3035 30.7739 38.5273 30.9978 38.5273 31.2739Z" style="fill:var(--sapContent_Illustrative_Color4)"/>
<path fill-rule="evenodd" clip-rule="evenodd" d="M38.5273 35.2739C38.5273 35.5501 38.3035 35.7739 38.0273 35.7739L34.9622 35.7739C34.686 35.7739 34.4622 35.5501 34.4622 35.2739C34.4622 34.9978 34.686 34.7739 34.9622 34.7739L38.0273 34.7739C38.3035 34.7739 38.5273 34.9978 38.5273 35.2739Z" style="fill:var(--sapContent_Illustrative_Color4)"/>
<path fill-rule="evenodd" clip-rule="evenodd" d="M38.5273 39.2739C38.5273 39.5501 38.3035 39.7739 38.0273 39.7739L32.1304 39.7739C31.8543 39.7739 31.6304 39.5501 31.6304 39.2739C31.6304 38.9978 31.8543 38.7739 32.1304 38.7739L38.0273 38.7739C38.3035 38.7739 38.5273 38.9978 38.5273 39.2739Z" style="fill:var(--sapContent_Illustrative_Color4)"/>
<path d="M42.9134 42.8387C43.1164 43.2864 42.6395 43.7382 42.2034 43.5115L32.8962 38.6713C32.8452 38.6447 32.7989 38.6099 32.7594 38.5681L29.734 35.375C29.5374 35.1675 29.5463 34.84 29.7537 34.6435L34.7286 29.9296C34.936 29.733 35.2635 29.7418 35.4601 29.9493L38.4856 33.1423C38.5251 33.184 38.5575 33.2321 38.5812 33.2845L42.9134 42.8387Z" style="fill:var(--sapContent_Illustrative_Color8)"/>
<path fill-rule="evenodd" clip-rule="evenodd" d="M41.426 41.9801L37.7039 33.7713L35.0661 30.9874L30.7918 35.0375L33.4295 37.8215L41.426 41.9801ZM42.2034 43.5115C42.6395 43.7382 43.1164 43.2864 42.9134 42.8387L38.5812 33.2845C38.5575 33.2321 38.5251 33.184 38.4856 33.1423L35.4601 29.9493C35.2635 29.7418 34.936 29.733 34.7286 29.9296L29.7537 34.6435C29.5463 34.84 29.5374 35.1675 29.734 35.375L32.7594 38.5681C32.7989 38.6099 32.8452 38.6447 32.8962 38.6713L42.2034 43.5115Z" style="fill:var(--sapContent_Illustrative_Color4)"/>
<rect x="2.87305" y="7.00586" width="7.86132" height="8.6922" rx="2" transform="rotate(-43.4571 2.87305 7.00586)" style="fill:var(--sapContent_Illustrative_Color4)"/>
<path d="M12.8363 6.09411L7.12988 11.5012L32.8136 38.6068L38.52 33.1997L12.8363 6.09411Z" style="fill:var(--sapContent_Illustrative_Color3)"/>
<path fill-rule="evenodd" clip-rule="evenodd" d="M37.666 41.1519L41.5392 43.1661C42.1933 43.5063 42.9086 42.8284 42.6042 42.157L40.8013 38.181L37.666 41.1519Z" style="fill:var(--sapContent_Illustrative_Color4)"/>
</svg>
