<svg width="46" height="46" viewBox="0 0 46 46" fill="none" xmlns="http://www.w3.org/2000/svg" id="tnt-Dot-Success">
<path fill-rule="evenodd" clip-rule="evenodd" d="M39.8137 43.9006C39.8139 43.9006 39.814 43.9005 39.814 43.9004C39.814 34.1577 31.916 26.2598 22.1733 26.2598C12.4307 26.2598 4.53271 34.1577 4.53271 43.9004C4.53271 43.9005 4.53281 43.9006 4.53294 43.9006H39.8137Z" style="fill:var(--sapContent_Illustrative_Color2)"/>
<ellipse cx="22.1734" cy="30.4339" rx="3.33231" ry="1.73905" style="fill:var(--sapContent_Illustrative_Color14)"/>
<path fill-rule="evenodd" clip-rule="evenodd" d="M22.384 0.892578C22.9363 0.892578 23.384 1.34029 23.384 1.89258L23.384 29.434C23.384 29.9863 22.9363 30.434 22.384 30.434C21.8317 30.434 21.384 29.9863 21.384 29.434L21.384 1.89258C21.384 1.34029 21.8317 0.892578 22.384 0.892578Z" style="fill:var(--sapContent_Illustrative_Color4)"/>
<path fill-rule="evenodd" clip-rule="evenodd" d="M23.5217 2.19173L41.4227 11.3731C41.4966 11.4115 41.4931 11.5179 41.4168 11.551L23.5152 19.2521C23.4508 19.2799 23.3787 19.2326 23.3787 19.1622V2.27922C23.3787 2.20532 23.4567 2.15803 23.5217 2.19173Z" style="fill:var(--sapContent_Illustrative_Color3)"/>
</svg>
