<svg width="160" height="160" id="tnt-Dialog-Success" xmlns="http://www.w3.org/2000/svg" viewBox="0 0 160 160">
    <circle cx="80" cy="80" r="80" style="fill:var(--sapContent_Illustrative_Color7)" />
    <path d="m1.18,66.26c3.33-19.22,13.51-36.09,27.95-48,7.25,5.03,12,13.41,12,22.91,0,15.38-12.47,27.85-27.85,27.85-4.33,0-8.44-.99-12.1-2.76Z" style="fill:var(--sapContent_Illustrative_Color19)" fill-rule="evenodd" />
    <path d="m28.5,43.25c-.1.27-2.22-.94-4.24,0-2.41,1.12-2.65,4.35-3.18,4.24-.61-.13-1.47-4.66.94-6.24,2.6-1.71,6.6,1.61,6.48,2Z" style="fill:var(--sapContent_Illustrative_Color20)" />
    <path d="m1.18,66.26c.37-2.15.83-4.27,1.37-6.36,6.09,1.61,12.56,1.1,18.34-1.45,6.05-2.67,10.95-7.4,13.83-13.35,2.88-5.95,3.55-12.73,1.89-19.13,2.2,3.38,3.64,7.2,4.22,11.2.58,4,.28,8.07-.87,11.94s-3.13,7.44-5.8,10.47c-2.67,3.03-5.96,5.44-9.66,7.07-3.69,1.63-7.7,2.44-11.73,2.37-4.02-.07-7.98-1.01-11.6-2.75Z" style="fill:var(--sapContent_Illustrative_Color20)" fill-rule="evenodd" />
    <path d="m16.64,103.35c1.02-1.02,1.02-2.66,0-3.68-1.02-1.02-2.66-1.02-3.68,0-1.02,1.02-1.02,2.66,0,3.68,1.02,1.02,2.66,1.02,3.68,0Z" style="fill:var(--sapContent_Illustrative_Color18)" />
    <path d="m144.69,119.52c.55-.55.55-1.44,0-1.99-.55-.55-1.44-.55-1.99,0-.55.55-.55,1.44,0,1.99.55.55,1.44.55,1.99,0Z" style="fill:var(--sapContent_Illustrative_Color19)" />
    <path d="m12.17,81.05c.58-.58.58-1.52,0-2.11-.58-.58-1.52-.58-2.11,0-.58.58-.58,1.52,0,2.11.58.58,1.52.58,2.11,0Z" style="fill:var(--sapContent_Illustrative_Color18)" />
    <path d="m146.29,88.86c-.2-3.33-.93-5.8-1.78-5.8-.86,0-1.57,2.49-1.76,5.83-3.34.23-5.82.98-5.81,1.84,0,.86,2.49,1.55,5.82,1.71.2,3.33.92,5.8,1.78,5.8.86,0,1.57-2.49,1.76-5.83,3.34-.23,5.82-.98,5.81-1.84,0-.86-2.5-1.55-5.82-1.71Z" style="fill:var(--sapContent_Illustrative_Color3)" />
    <path d="m50.15,25.03c-.13-2.23-.62-3.9-1.19-3.9s-1.06,1.68-1.18,3.92c-2.25.15-3.91.66-3.91,1.23,0,.58,1.68,1.04,3.91,1.14.14,2.24.62,3.9,1.2,3.9.58,0,1.06-1.68,1.18-3.92,2.24-.15,3.91-.65,3.91-1.23,0-.58-1.68-1.04-3.91-1.14Z" style="fill:var(--sapContent_Illustrative_Color3)" />
    <path d="m157.36,20.4c-.92-2.18-4.94-2.63-10.51-1.56.32.35.63.72.92,1.09,3.77-.46,6.41.04,7.09,1.64.68,1.6-.74,4-3.59,6.64.07.47.12.94.15,1.41,4.48-3.62,6.85-7.06,5.93-9.23Z" style="fill:var(--sapContent_Illustrative_Color18)" />
    <path d="m114.98,40.23c-.68-1.6.74-4,3.59-6.64-.07-.49-.12-.99-.16-1.5-4.55,3.66-6.99,7.15-6.06,9.34.93,2.19,5,2.63,10.64,1.53-.32-.35-.63-.72-.92-1.09-3.77.46-6.41-.05-7.09-1.65Z" style="fill:var(--sapContent_Illustrative_Color18)" />
    <path d="m134.92,48.32c9.14,0,16.55-7.8,16.55-17.41s-7.41-17.41-16.55-17.41-16.55,7.8-16.55,17.41,7.41,17.41,16.55,17.41Z" style="fill:var(--sapContent_Illustrative_Color18)" />
    <path d="m145.2,23.07c0,.07.01.15.04.22.03.07.07.13.12.18.05.05.11.09.18.12.07.03.13.04.21.04h4.23c-.17-.38-.35-.76-.54-1.13h-3.68c-.07,0-.14.01-.21.04-.07.03-.13.07-.18.12-.05.05-.09.12-.12.18-.03.07-.04.14-.04.22Zm-12.94,7.8h-1.04c-.14,0-.28.06-.38.17-.1.11-.16.25-.16.4s.06.29.16.4c.1.11.24.17.38.17h1.04c.14,0,.28-.06.38-.17.1-.11.16-.25.16-.4s-.06-.29-.16-.4c-.1-.11-.24-.17-.38-.17Zm10.93-7.23h-1.04c-.14,0-.28-.06-.38-.17-.1-.11-.16-.25-.16-.4s.06-.29.16-.4c.1-.11.24-.17.38-.17h1.04c.14,0,.28.06.38.17.1.11.16.25.16.4s-.06.29-.16.4c-.1.11-.24.17-.38.17Zm2.43,13.6c-.12.24-.3.44-.51.59-.21.15-.46.24-.72.26l-1.04.1c-.13,0-.25.04-.35.12-.1.08-.17.2-.2.33-.02.08-.01.17,0,.25.02.08.05.16.1.22.05.07.11.12.19.15.07.04.15.06.23.06h6.1c.46-.87.84-1.78,1.15-2.72h-3.95c-.2.01-.4.08-.58.19-.18.11-.32.26-.43.45Zm-8.13-.24c-4.7,2.2-9.23,3.72-12.98,4.48-.71.14-1.42.26-2.13.36-.1.01-.21.03-.31.04h0s0,0,0,0c.14.19.29.37.44.55l.02.02c.15.18.3.35.46.52.27-.05.55-.11.82-.17.31-.07.63-.14.95-.22,1.43-.34,2.84-.73,4.23-1.19h0c2.79-.9,5.78-2.07,8.82-3.49,5.43-2.54,10.15-5.46,13.62-8.27-.03-.48-.08-.95-.15-1.41,0,0,0,0,0,0-.06-.44-.14-.87-.24-1.3h-9.14c-.18,0-.35.08-.48.21-.13.13-.2.32-.2.5,0,.09-.02.19-.05.27-.03.09-.08.17-.15.23-.06.07-.14.12-.22.16-.08.04-.17.05-.26.05h-5.61c-.62,0-1.22-.26-1.66-.73-.44-.46-.69-1.09-.69-1.75v-.67c0-.09-.02-.19-.05-.27-.03-.09-.08-.17-.15-.23-.06-.07-.14-.12-.22-.15-.08-.04-.17-.05-.26-.05h-10.6,0s-1.77,0-1.77,0l-.04.09c-.05.12-.09.25-.13.37v.03s-.04.07-.05.11c-.03.09-.06.18-.09.27-.02.07-.05.15-.07.22,0,.02-.01.04-.02.06,0,.01,0,.02-.01.03-.04.14-.08.28-.12.43l-.03.13c-.04.17-.09.35-.13.52v.03c-.05.17-.08.34-.12.51l-.02.11c-.07.36-.13.73-.18,1.11v.09c-.03.19-.06.37-.07.56h0s13.29,0,13.29,0l14.86.04h3.54c-3.12,2.61-7.54,5.38-12.65,7.77Zm-19.12-6.12h0v.04c0,.37.01.73.03,1.09h10.27c.14,0,.28-.06.38-.17.1-.11.15-.25.15-.4s-.06-.29-.16-.4c-.1-.11-.24-.17-.38-.17h-7s-3.3,0-3.3,0h0Z" style="fill:var(--sapContent_Illustrative_Color7)" fill-rule="evenodd" />
    <path d="m151.47,30.91c0,9.62-7.41,17.41-16.55,17.41-2,0-3.92-.37-5.69-1.06-.25-.1-.5-.2-.75-.31-5.35-2.38-9.26-7.63-9.99-13.92,2.32,5.32,7.42,9.02,13.35,9.02,8.1,0,14.68-6.91,14.68-15.44,0-4.7-1.99-8.9-5.14-11.74,5.93,2.65,10.09,8.83,10.09,16.04Z" style="fill:var(--sapContent_Illustrative_Color19)" fill-rule="evenodd" />
    <path d="m146.25,23.64h3.71c-.17-.38-.35-.76-.54-1.13h-3.42c.1.37.18.75.25,1.13Zm4.25,13.17c.02-.07.05-.14.07-.21h-3.95c-.2.01-.4.08-.58.19-.18.11-.32.26-.43.45-.12.24-.3.44-.51.59-.21.15-.46.24-.72.26l-1.04.1c-.13,0-.25.04-.35.12-.1.08-.17.2-.2.33-.02.08-.01.17,0,.25.02.08.05.16.1.22.05.07.11.12.19.15.07.04.15.06.23.06h6.09c.42-.8.78-1.64,1.08-2.51Zm-27.51,6.17c.27-.05.54-.11.82-.17.31-.07.63-.14.95-.22,1.21-.28,2.4-.61,3.59-.98-.62-.16-1.22-.36-1.81-.6-.7.18-1.38.33-2.03.47-.71.14-1.42.26-2.13.36-.1.01-.21.03-.31.04h0s0,0,0,0c.29.38.6.74.92,1.09Zm22.34-10.27c-.23.57-.5,1.13-.8,1.66,2.63-1.55,4.96-3.16,6.89-4.73-.03-.48-.08-.95-.15-1.41h0c-.06-.43-.14-.86-.24-1.29h-4.51c-.01.78-.09,1.54-.21,2.29h.29s3.54,0,3.54,0c-1.37,1.15-2.99,2.32-4.81,3.49Z" style="fill:var(--sapContent_Illustrative_Color18)" fill-rule="evenodd" />
    <path d="m80,143.65c-28.45,0-51.52-22.86-51.52-51.07s23.07-51.07,51.52-51.07,51.52,22.86,51.52,51.07-23.06,51.07-51.52,51.07Z" style="fill:var(--sapContent_Illustrative_Color18)" />
    <path d="m80,136.7c-24.58,0-44.51-19.75-44.51-44.12s19.93-44.12,44.51-44.12,44.51,19.75,44.51,44.12-19.93,44.12-44.51,44.12Z" style="fill:var(--sapContent_Illustrative_Color2)" />
    <path d="m106.44,128.08h-38.51c-.86,0-1.56-.7-1.56-1.56s.7-1.56,1.56-1.56h42.31c-1.21,1.11-2.48,2.15-3.8,3.12Zm8.79-8.52H44.78c-2.38-3.05-4.37-6.42-5.89-10.03h33.29c1.78,0,3.53-.51,5.03-1.47l3-1.91c1.5-.96,3.25-1.46,5.03-1.46h35.32c.75,0,1.47.11,2.16.32-1.58,5.34-4.15,10.26-7.5,14.56Zm9.02-31.85h-34.07c-1.08,0-1.95-.87-1.95-1.95s.87-1.95,1.95-1.95h33.46c.26,1.28.47,2.58.61,3.9Zm-1.45-7.31c-.59.66-1.45,1.09-2.45,1.09h-63.51c-1.1,0-1.99-.89-1.99-1.99s-.89-1.99-1.99-1.99h-14.71c1.13-3.08,2.6-6.01,4.36-8.73.44-.06.88-.09,1.32-.09h45.96c0,3.44,2.79,6.23,6.23,6.23h24.34c.16,0,.32.01.47.03.77,1.76,1.43,3.58,1.97,5.45Zm-69.19-23.36h14.2c1.08,0,1.95-.87,1.95-1.95s-.87-1.95-1.95-1.95h-7.79c-2.25,1.12-4.4,2.43-6.41,3.9Zm-17.99,38.97h28.98c2.16,0,3.9,1.75,3.9,3.9s-1.75,3.91-3.9,3.91h-27.66c-.67-2.52-1.12-5.13-1.33-7.81Zm38.47-12.21c-1.08,0-1.95.87-1.95,1.95s.87,1.95,1.95,1.95h4.92c1.08,0,1.95-.87,1.95-1.95s-.87-1.95-1.95-1.95h-4.92Z" style="fill:var(--sapContent_Illustrative_Color20)" fill-rule="evenodd" />
    <path d="m43.09,117.25c8,11.74,21.55,19.45,36.91,19.45,10.85,0,20.8-3.85,28.52-10.25.77-.64,1.52-1.3,2.24-1.98.12-.11.24-.23.36-.35,8.26-8.01,13.39-19.18,13.39-31.55,0-10.66-3.81-20.44-10.16-28.07-2.89-3.47-6.3-6.49-10.12-8.95-.26-.17-.53-.34-.79-.5,3.59,6.36,5.64,13.7,5.64,21.51,0,24.37-19.93,44.12-44.51,44.12-8.6,0-16.63-2.42-23.44-6.6.61,1.08,1.27,2.14,1.96,3.16Z" style="fill:var(--sapContent_Illustrative_Color14)" fill-rule="evenodd" />
    <path d="m67.93,128.08h38.51c1.33-.97,2.6-2.01,3.8-3.12h-42.31c-.86,0-1.56.7-1.56,1.56s.7,1.56,1.56,1.56Zm40.87-46.58c.18-1.62.27-3.26.27-4.93,0-.55-.01-1.1-.03-1.64h11.31c.16,0,.32.01.47.03.77,1.76,1.43,3.58,1.97,5.45-.59.66-1.45,1.09-2.45,1.09h-11.55Zm-9.94,23.19c-6.12,7.33-14.59,12.66-24.26,14.87h40.62c3.35-4.29,5.92-9.21,7.5-14.56-.68-.21-1.41-.32-2.16-.32h-21.7Zm9.62-20.88c-.22,1.32-.5,2.62-.84,3.9h16.6c-.15-1.32-.35-2.62-.61-3.9h-15.16Zm-53.96,35.75h-9.74c-1.35-1.73-2.57-3.56-3.65-5.48,4.07,2.51,8.58,4.38,13.39,5.48Z" style="fill:var(--sapContent_Illustrative_Color2)" fill-rule="evenodd" />
    <path d="m79.19,6.4c1.08,0,1.96.88,1.96,1.96v48.75c0,1.08-.88,1.96-1.96,1.96s-1.96-.88-1.96-1.96V8.37c0-1.08.88-1.96,1.96-1.96Z" style="fill:var(--sapContent_Illustrative_Color4)" fill-rule="evenodd" />
    <path d="m97.24,9.6c-5.78-4.09-13.24-2.71-16.25-1.5v28.73c17-10.38,16.25-7.22,31.74-6.92,12.4.24,16.4-4.71,16.85-7.22-12.94,2.26-25.12-7.97-32.34-13.09Z" style="fill:var(--sapContent_Illustrative_Color3)" />
    <path d="m101.71,29.28V12.84c4.12,2.96,9.14,6.32,14.63,8.34v8.64c-1.12.08-2.32.11-3.61.09-3.35-.07-5.93-.26-8.11-.43-1.06-.08-2.02-.15-2.92-.2Z" style="fill:var(--sapContent_Illustrative_Color15)" fill-rule="evenodd" />
    <path d="m87.16,6.88v26.35c-1.77.97-3.8,2.15-6.17,3.6V8.09c1.35-.54,3.59-1.11,6.17-1.22Z" style="fill:var(--sapContent_Illustrative_Color15)" fill-rule="evenodd" />
</svg>