<svg width="321" height="240" viewBox="0 0 321 240" fill="none" xmlns="http://www.w3.org/2000/svg" id="tnt-Scene-Unlock">
<path d="M305.711 20.0059H14.6174C12.72 20.0041 10.8408 20.3763 9.08735 21.1012C7.33387 21.8261 5.74044 22.8895 4.39815 24.2305C3.05586 25.5716 1.99103 27.164 1.26452 28.9168C0.538005 30.6696 0.164062 32.5485 0.164063 34.4459V205.553C0.164063 209.386 1.68681 213.062 4.39734 215.773C7.10786 218.483 10.7841 220.006 14.6174 220.006H305.711C309.544 220.006 313.22 218.483 315.931 215.773C318.641 213.062 320.164 209.386 320.164 205.553V34.4459C320.164 32.5485 319.79 30.6696 319.064 28.9168C318.337 27.164 317.272 25.5716 315.93 24.2305C314.588 22.8895 312.994 21.8261 311.241 21.1012C309.487 20.3763 307.608 20.0041 305.711 20.0059Z" style="fill:var(--sapContent_Illustrative_Color7)"/>
<path d="M81.5771 28.051C81.2687 28.4121 81.0633 28.8496 80.9825 29.3175C80.9017 29.7855 80.9486 30.2666 81.1182 30.7101L84.8762 41.3657C85.4969 43.1283 87.2873 43.5632 88.6687 43.0764C89.2413 42.8977 89.7404 42.5381 90.0911 42.0514C90.4418 41.5648 90.6251 40.9774 90.6133 40.3776C90.599 40.088 90.541 39.8023 90.4412 39.53L86.6832 28.8745C86.5279 28.4036 86.2483 27.9834 85.8738 27.6585C85.4993 27.3336 85.044 27.1159 84.556 27.0285C84.0135 26.9312 83.4551 26.974 82.9338 27.1529C82.4125 27.3319 81.9455 27.641 81.5771 28.051Z" style="fill:var(--sapContent_Illustrative_Color5)"/>
<path d="M44.7981 77.2016C44.7438 77.5371 44.7601 77.8802 44.8459 78.2091C44.9317 78.5379 45.0851 78.8453 45.2963 79.1115C45.5076 79.3777 45.772 79.597 46.0727 79.7553C46.3735 79.9135 46.7039 80.0074 47.0429 80.0308L57.9765 81.2904C58.3698 81.3344 58.7679 81.2995 59.1475 81.1879C59.5272 81.0763 59.8808 80.8902 60.1877 80.6404C60.4946 80.3906 60.7488 80.0822 60.9352 79.7331C61.1216 79.3841 61.2366 79.0013 61.2735 78.6073C61.2932 78.4453 61.2997 78.2819 61.2927 78.1188C61.2756 77.5158 61.0333 76.9411 60.6135 76.5079C60.1937 76.0748 59.6268 75.8147 59.0247 75.7788L48.0958 74.5225C47.7026 74.4778 47.3046 74.5121 46.9249 74.6232C46.5451 74.7342 46.1914 74.92 45.8843 75.1694C45.5772 75.4189 45.323 75.7271 45.1365 76.0761C44.95 76.425 44.8349 76.8077 44.7981 77.2016Z" style="fill:var(--sapContent_Illustrative_Color5)"/>
<path d="M54.3411 47.8386C54.3793 48.2079 54.4924 48.5655 54.6735 48.8897C54.8546 49.2138 55.0999 49.4976 55.3944 49.7236L68.5033 59.9984C69.0938 60.4559 69.8383 60.6674 70.5811 60.5887C71.3239 60.51 72.0075 60.1472 72.4891 59.5761C72.9335 59.0446 73.1619 58.3654 73.1291 57.6734C73.1096 57.2745 73.0042 56.8845 72.8203 56.53C72.6364 56.1755 72.3783 55.8648 72.0635 55.6191L58.9546 45.3444C58.3612 44.8839 57.6123 44.6713 56.8655 44.7514C56.1186 44.8315 55.4319 45.1981 54.9497 45.774C54.7144 46.0594 54.5393 46.3894 54.4347 46.7441C54.3301 47.0989 54.2983 47.4712 54.3411 47.8386Z" style="fill:var(--sapContent_Illustrative_Color5)"/>
<rect x="27.8623" y="202.574" width="231.534" height="17.4263" rx="4" style="fill:var(--sapContent_Illustrative_Color18)"/>
<path d="M199.019 206.574C199.019 204.365 200.809 202.574 203.019 202.574H297.906C300.115 202.574 301.906 204.365 301.906 206.574V216C301.906 218.209 300.115 220 297.906 220H203.019C200.809 220 199.019 218.209 199.019 216V206.574Z" style="fill:var(--sapContent_Illustrative_Color20)"/>
<rect x="96.8662" y="76.0085" width="178.1" height="113.946" rx="12.3835" style="fill:var(--sapContent_Illustrative_Color13)"/>
<rect x="96.8662" y="76.0085" width="138.824" height="113.946" rx="12.3835" style="fill:var(--sapContent_Illustrative_Color2)"/>
<rect x="115.492" y="94.4524" width="101.572" height="77.0582" rx="9.00618" style="fill:var(--sapContent_Illustrative_Color4)"/>
<path d="M112.652 189.997H137.806L129.102 201.395C128.535 202.138 127.653 202.574 126.718 202.574H115.652C113.995 202.574 112.652 201.231 112.652 199.574V189.997Z" style="fill:var(--sapContent_Illustrative_Color13)"/>
<path fill-rule="evenodd" clip-rule="evenodd" d="M134.333 194.545H112.652V189.997H137.806L134.333 194.545Z" style="fill:var(--sapContent_Illustrative_Color14)"/>
<path d="M153.407 189.997H178.561L169.857 201.395C169.289 202.138 168.408 202.574 167.473 202.574H156.407C154.75 202.574 153.407 201.231 153.407 199.574V189.997Z" style="fill:var(--sapContent_Illustrative_Color14)"/>
<path fill-rule="evenodd" clip-rule="evenodd" d="M173.759 196.285H153.407V189.997H178.561L173.759 196.285Z" style="fill:var(--sapContent_Illustrative_Color14)"/>
<path d="M219.315 189.997H194.162L202.866 201.395C203.433 202.138 204.315 202.574 205.25 202.574H216.315C217.972 202.574 219.315 201.231 219.315 199.574V189.997Z" style="fill:var(--sapContent_Illustrative_Color13)"/>
<path fill-rule="evenodd" clip-rule="evenodd" d="M197.635 194.545H219.315V189.997H194.162L197.635 194.545Z" style="fill:var(--sapContent_Illustrative_Color14)"/>
<path d="M260.07 189.997H234.917L243.621 201.395C244.188 202.138 245.07 202.574 246.005 202.574H257.07C258.727 202.574 260.07 201.231 260.07 199.574V189.997Z" style="fill:var(--sapContent_Illustrative_Color14)"/>
<path fill-rule="evenodd" clip-rule="evenodd" d="M239.719 196.285H260.07V189.997H234.917L239.719 196.285Z" style="fill:var(--sapContent_Illustrative_Color14)"/>
<rect x="16.293" y="94.4524" width="100.504" height="77.0582" rx="9.00618" style="fill:var(--sapContent_Illustrative_Color13)"/>
<rect x="12.293" y="94.4524" width="101.572" height="77.0582" rx="9.00618" style="fill:var(--sapContent_Illustrative_Color20)"/>
<circle cx="31.8726" cy="118.189" r="3.73584" style="fill:var(--sapContent_Illustrative_Color3)"/>
<circle cx="31.8726" cy="147.774" r="3.73584" style="fill:var(--sapContent_Illustrative_Color3)"/>
<circle cx="71.0933" cy="132.981" r="16.2573" style="fill:var(--sapContent_Illustrative_Color18)"/>
<rect x="111.628" y="102.827" width="8.75772" height="24.4715" rx="4.37886" style="fill:var(--sapContent_Illustrative_Color14)"/>
<rect x="111.628" y="136.147" width="8.75772" height="24.4715" rx="4.37886" style="fill:var(--sapContent_Illustrative_Color14)"/>
<path d="M308.188 92.9266C308.188 91.8452 305.049 90.9796 300.855 90.7829C300.615 86.594 299.692 83.4793 298.61 83.4817C297.529 83.4841 296.629 86.6228 296.399 90.8333C292.193 91.121 289.066 92.0609 289.08 93.1447C289.095 94.2285 292.219 95.0941 296.413 95.2884C296.665 99.4773 297.576 102.592 298.656 102.59C299.735 102.587 300.639 99.4485 300.869 95.238C305.075 94.9503 308.2 94.0103 308.188 92.9266Z" style="fill:var(--sapContent_Illustrative_Color18)"/>
<path d="M259.494 46.9838C259.494 45.6256 255.551 44.5383 250.283 44.2914C249.982 39.03 248.822 35.1178 247.464 35.1209C246.106 35.1239 244.976 39.0661 244.687 44.3546C239.404 44.716 235.476 45.8966 235.494 47.2579C235.512 48.6192 239.437 49.7064 244.705 49.9503C245.021 55.2117 246.166 59.1239 247.521 59.1208C248.877 59.1178 250.012 55.1756 250.301 49.8871C255.584 49.5257 259.509 48.3451 259.494 46.9838Z" style="fill:var(--sapContent_Illustrative_Color18)"/>
</svg>
