<svg width="128" height="129" viewBox="0 0 128 129" fill="none" xmlns="http://www.w3.org/2000/svg" id="tnt-Spot-Fingerprint">
<circle cx="64" cy="64.2703" r="64" style="fill:var(--sapContent_Illustrative_Color7)"/>
<path d="M6.18408 94.5166C6.18408 93.5682 6.95295 92.7993 7.90139 92.7993H120.103C121.051 92.7993 121.82 93.5682 121.82 94.5166V95.2234H6.18408V94.5166Z" style="fill:var(--sapContent_Illustrative_Color2)"/>
<path d="M8.5576 97.2893C8.87231 97.5703 9.27946 97.7256 9.70136 97.7256H118.303C118.725 97.7256 119.132 97.5703 119.447 97.2893L121.82 95.17H6.18408L8.5576 97.2893Z" style="fill:var(--sapContent_Illustrative_Color13)"/>
<rect x="17.5642" y="30.9421" width="92.8754" height="61.9656" rx="3.43462" style="fill:var(--sapContent_Illustrative_Color2)"/>
<path d="M64.0021 33.0153C64.3306 33.0153 64.5968 32.7486 64.5968 32.4196C64.5968 32.0907 64.3306 31.824 64.0021 31.824C63.6737 31.824 63.4075 32.0907 63.4075 32.4196C63.4075 32.7486 63.6737 33.0153 64.0021 33.0153Z" style="fill:var(--sapContent_Illustrative_Color14)"/>
<rect x="20.6348" y="33.8301" width="86.7345" height="56.19" rx="2.28974" style="fill:var(--sapContent_Illustrative_Color7)"/>
<path d="M57.2749 92.4543H70.7291V92.8663C70.7291 93.4986 70.2165 94.0112 69.5842 94.0112H58.4198C57.7875 94.0112 57.2749 93.4986 57.2749 92.8663V92.4543Z" style="fill:var(--sapContent_Illustrative_Color14)"/>
<path fill-rule="evenodd" clip-rule="evenodd" d="M32.8491 43.3995C32.8491 41.1733 34.6538 39.3687 36.8799 39.3687H40.4393C40.7572 39.3687 41.0149 39.6264 41.0149 39.9443C41.0149 40.2622 40.7572 40.52 40.4393 40.52H36.8799C35.2896 40.52 34.0004 41.8092 34.0004 43.3995V46.9588C34.0004 47.2767 33.7427 47.5345 33.4248 47.5345C33.1068 47.5345 32.8491 47.2767 32.8491 46.9588V43.3995Z" style="fill:var(--sapContent_Illustrative_Color13)"/>
<path fill-rule="evenodd" clip-rule="evenodd" d="M32.8491 80.1704C32.8491 82.3965 34.6538 84.2012 36.8799 84.2012H40.4393C40.7572 84.2012 41.0149 83.9434 41.0149 83.6255C41.0149 83.3076 40.7572 83.0499 40.4393 83.0499H36.8799C35.2896 83.0499 34.0004 81.7607 34.0004 80.1704V76.611C34.0004 76.2931 33.7427 76.0354 33.4248 76.0354C33.1068 76.0354 32.8491 76.2931 32.8491 76.611V80.1704Z" style="fill:var(--sapContent_Illustrative_Color13)"/>
<path fill-rule="evenodd" clip-rule="evenodd" d="M95.1509 43.3995C95.1509 41.1733 93.3462 39.3687 91.1201 39.3687H87.5607C87.2428 39.3687 86.9851 39.6264 86.9851 39.9443C86.9851 40.2622 87.2428 40.52 87.5607 40.52H91.1201C92.7104 40.52 93.9996 41.8092 93.9996 43.3995V46.9588C93.9996 47.2767 94.2573 47.5345 94.5752 47.5345C94.8932 47.5345 95.1509 47.2767 95.1509 46.9588V43.3995Z" style="fill:var(--sapContent_Illustrative_Color13)"/>
<path fill-rule="evenodd" clip-rule="evenodd" d="M95.1509 80.1704C95.1509 82.3965 93.3462 84.2012 91.1201 84.2012H87.5607C87.2428 84.2012 86.9851 83.9434 86.9851 83.6255C86.9851 83.3076 87.2428 83.0499 87.5607 83.0499H91.1201C92.7104 83.0499 93.9996 81.7607 93.9996 80.1704V76.611C93.9996 76.2931 94.2573 76.0354 94.5752 76.0354C94.8932 76.0354 95.1509 76.2931 95.1509 76.611V80.1704Z" style="fill:var(--sapContent_Illustrative_Color13)"/>
<circle cx="64" cy="61.7849" r="22.9084" style="fill:var(--sapContent_Illustrative_Color8)"/>
<path fill-rule="evenodd" clip-rule="evenodd" d="M64.0603 47.9653C67.8187 47.9653 71.3365 49.4473 73.9617 52.1357H73.961C74.2048 52.3863 74.2011 52.7851 73.9517 53.0283C73.8283 53.1486 73.6744 53.2082 73.5101 53.2082C73.3457 53.2082 73.1819 53.1437 73.0591 53.0184C70.6722 50.5737 67.4763 49.2277 64.0597 49.2277C62.2217 49.2277 60.4513 49.6154 58.7982 50.3783C58.4818 50.5229 58.1078 50.3876 57.9608 50.0694C57.8163 49.7537 57.9533 49.3784 58.2691 49.232C60.0897 48.3921 62.0387 47.9653 64.0603 47.9653ZM73.3356 58.0392C71.796 54.246 68.1548 51.7951 64.0607 51.7951C62.1613 51.7951 60.507 52.2442 59.1162 53.1449C57.7255 54.045 56.6108 55.388 55.7765 57.154C55.6264 57.4704 55.7635 57.8463 56.0767 57.9945H56.0773C56.3906 58.1421 56.7684 58.0106 56.9179 57.6937C57.6492 56.1435 58.615 54.9873 59.8017 54.2175C60.9877 53.4483 62.4076 53.0569 64.0607 53.0569C67.6387 53.0569 70.8196 55.1975 72.1663 58.5131C72.2655 58.7606 72.5037 58.907 72.7506 58.907C72.8288 58.907 72.9107 58.8921 72.9882 58.8605C73.3108 58.729 73.4658 58.3611 73.335 58.0386L73.3356 58.0392ZM77.5651 58.7879C77.567 58.8016 77.5682 58.8084 77.5695 58.8134V58.8159L77.5707 58.8146C77.7847 59.7885 77.8995 60.7922 77.8995 61.802C77.8995 62.8882 77.8436 63.9812 77.7376 65.0481C77.7369 65.0562 77.7363 65.0648 77.7357 65.076V65.0847L77.7345 65.0952L77.7158 65.2739V65.2751V65.2764C77.6792 65.5977 77.4075 65.8377 77.0893 65.8377C77.0658 65.8377 77.0428 65.8365 77.0192 65.834H77.0186C76.6706 65.7962 76.4231 65.4829 76.4603 65.1374L76.4746 65.0022L76.4802 64.947C76.5838 63.9123 76.6371 62.8541 76.6371 61.8014C76.6371 60.8771 76.536 59.9578 76.3381 59.0665H76.3344L76.296 58.9039C75.925 57.3271 75.2638 55.8551 74.3209 54.527C74.1193 54.2429 74.1857 53.8497 74.4691 53.6481H74.4698C74.7514 53.4477 75.1478 53.511 75.3494 53.7976C75.35 53.7982 75.35 53.7988 75.35 53.7988C76.4089 55.2894 77.1507 56.945 77.5539 58.7197C77.5598 58.7457 77.5629 58.7705 77.5648 58.7857L77.5651 58.7879ZM66.174 65.1186C66.1021 65.6229 66.0128 66.1229 65.9092 66.6161L65.9098 66.6148C65.8478 66.9126 65.5841 67.1154 65.2932 67.1154C65.2523 67.1154 65.2088 67.1117 65.1642 67.103H65.1629H65.1617C64.8205 67.031 64.6022 66.6955 64.6741 66.3549C64.7678 65.9083 64.8472 65.4561 64.9136 64.9983C64.9154 64.9828 64.9179 64.9691 64.9198 64.9604C64.9223 64.9493 64.9229 64.9437 64.9229 64.9437V64.9418V64.94C65.0711 63.9078 65.1462 62.8533 65.1462 61.8025C65.1462 61.2045 64.6444 60.7175 64.06 60.7175C63.4757 60.7175 62.9974 61.1815 62.9757 61.7603L62.9759 61.762V61.762V61.762V61.762V61.762V61.762C62.9771 61.7757 62.9782 61.7888 62.9782 61.8025V61.8037V61.8049L62.9751 62.1523V62.1536V62.1548C62.9683 62.4749 62.6954 62.8061 62.3306 62.772C61.982 62.7658 61.7066 62.4767 61.7128 62.1306L61.7153 61.8515C61.714 61.836 61.7128 61.8204 61.7128 61.8037C61.7128 60.5091 62.7661 59.4552 64.0606 59.4552C65.3552 59.4552 66.4091 60.5091 66.4091 61.8037C66.4091 62.8923 66.3304 63.9853 66.1802 65.0547V65.0566V65.0585C66.1796 65.0616 66.179 65.0659 66.1778 65.0808C66.1772 65.0845 66.1767 65.0893 66.1763 65.0947L66.1752 65.1053L66.174 65.1149V65.1168V65.1186ZM62.3691 65.2395C62.7053 65.3263 62.9106 65.6681 62.8244 66.0068V66.0062C62.3269 67.9596 61.8914 69.2504 61.268 70.4395C60.6459 71.6268 59.8401 72.7031 58.6156 74.2296C58.4903 74.3847 58.3073 74.4654 58.1231 74.4654C57.9854 74.4654 57.8452 74.4201 57.7292 74.3264H57.7286C57.4575 74.1081 57.4147 73.7111 57.6318 73.4406C58.829 71.9481 59.5796 70.9451 60.1527 69.8521C60.7246 68.7604 61.1235 67.5694 61.6018 65.696C61.6861 65.3605 62.0248 65.1502 62.3691 65.2395ZM64.7586 68.5659H64.758H64.7567C64.4255 68.4474 64.0676 68.6273 63.9528 68.953C63.0608 71.4956 62.5453 72.49 61.0212 74.6027C60.8178 74.8856 60.8792 75.2789 61.162 75.4836H61.1627C61.2756 75.5655 61.4046 75.6033 61.5324 75.6033C61.7259 75.6033 61.9207 75.5127 62.0441 75.3415C63.634 73.1376 64.2171 72.0142 65.1444 69.3698C65.2592 69.0423 65.0874 68.6819 64.7586 68.5659ZM57.1699 51.2827C57.4621 51.0917 57.5421 50.699 57.3517 50.4087C57.1594 50.1153 56.7679 50.0353 56.477 50.227C53.4629 52.2057 51.3644 55.2223 50.5686 58.7202C50.5617 58.7488 50.558 58.7761 50.5562 58.7909C50.5549 58.7991 50.5542 58.8046 50.5537 58.8087L50.5531 58.8133V58.8158C50.3378 59.7903 50.2243 60.7933 50.2243 61.8019C50.2243 62.2343 50.1896 62.6691 50.122 63.0909C50.0655 63.4358 50.2987 63.7578 50.6405 63.8148H50.6424H50.6443C50.6796 63.821 50.7131 63.8235 50.746 63.8235C51.0506 63.8235 51.3179 63.6027 51.3688 63.2931C51.4469 62.8025 51.4879 62.3019 51.4879 61.8019C51.4879 60.8783 51.589 59.9577 51.7862 59.0664H51.7887L51.8272 58.9045C52.5672 55.7676 54.4585 53.063 57.1705 51.2821L57.1699 51.2827ZM73.4535 61.1953C73.6005 61.196 73.7562 61.2425 73.8772 61.3473L73.8759 61.3461C74 61.454 74.0732 61.6122 74.0676 61.8026C74.067 62.8739 74.0068 63.9501 73.8921 65.004L73.8884 65.0437L73.8874 65.0532L73.8865 65.0654L73.8861 65.0706V65.0706V65.0707C73.8856 65.0782 73.885 65.0869 73.884 65.0965V65.0977V65.0989C73.5583 68.0057 72.8028 70.8362 71.6373 73.5122C71.5337 73.7504 71.301 73.8912 71.0591 73.8912C70.9741 73.8912 70.8892 73.8751 70.806 73.8385C70.4866 73.6989 70.342 73.3273 70.4816 73.0079C71.5882 70.4677 72.3072 67.7812 72.6217 65.0202L72.6229 65.0071L72.6248 64.9904L72.6446 64.8142H72.6453C72.7513 63.8205 72.8053 62.8075 72.8053 61.8026V61.7989V61.7952C72.8121 61.601 72.8977 61.4447 73.0261 61.3405C73.1508 61.24 73.3065 61.1953 73.4535 61.1953ZM54.8661 65.1951C54.8714 65.1755 54.8755 65.1567 54.8791 65.1403L54.8822 65.1263C54.8853 65.1126 54.8891 65.0977 54.8934 65.081C55.1738 64.0178 55.3189 62.9174 55.3189 61.8033C55.3189 61.7883 55.3178 61.7746 55.3166 61.7603L55.3164 61.7586C55.3195 61.0471 55.4095 60.3393 55.5813 59.6558C55.6675 59.3183 55.4628 58.9771 55.1272 58.8915H55.1254H55.1235C54.7774 58.801 54.4412 59.0175 54.3587 59.3487V59.3493C54.1565 60.1483 54.0547 60.9739 54.0547 61.8039C54.0547 61.82 54.0554 61.8374 54.0572 61.8548C54.0529 62.8603 53.9189 63.8553 53.6615 64.8155H53.6584L53.6149 64.9687C53.2756 66.1622 52.7533 67.2893 52.0524 68.3159C51.857 68.6037 51.9308 68.997 52.218 69.1936C52.3272 69.2681 52.4512 69.3034 52.5734 69.3034C52.7744 69.3034 52.9729 69.2079 53.0957 69.028C53.8959 67.8538 54.4914 66.5648 54.8661 65.197V65.1951ZM69.4193 58.71L69.441 58.7441L69.4416 58.7447L69.6333 59.0679C70.0222 59.7751 70.2393 60.5573 70.2393 61.8041C70.2393 62.8865 70.1692 63.9808 70.0377 65.0557C70.0371 65.0607 70.0365 65.0669 70.0358 65.0787L70.0344 65.0968L70.034 65.1016L70.0334 65.1054V65.1091C69.7573 67.3013 69.204 69.4537 68.3895 71.5039C68.2909 71.7514 68.0533 71.9015 67.8034 71.9015C67.7233 71.9015 67.6464 71.886 67.5732 71.8587L67.5714 71.8568H67.5695C67.2457 71.7272 67.0875 71.3612 67.2165 71.0368C67.9851 69.1014 68.5086 67.0693 68.7723 64.9993C68.7735 64.9881 68.7754 64.9788 68.7766 64.9732C68.7779 64.9688 68.7783 64.967 68.7786 64.9657L68.7788 64.9642L68.7791 64.9621C68.7797 64.959 68.7802 64.9567 68.7807 64.9548L68.7807 64.9548C68.7812 64.9526 68.7816 64.951 68.7816 64.9497C68.9118 63.9088 68.9776 62.8512 68.9776 61.8035C68.9776 61.1528 68.9118 60.6813 68.7903 60.2893C68.6693 59.8985 68.49 59.5759 68.2487 59.2248C68.2134 59.174 68.1898 59.1206 68.1737 59.0685C68.1045 58.8451 68.1817 58.6523 68.1817 58.6523C68.2214 58.5357 68.2959 58.4265 68.4119 58.3471C68.6997 58.1498 69.0924 58.2237 69.2884 58.5102C69.3213 58.558 69.3523 58.6052 69.382 58.6517L69.3876 58.6604C69.3982 58.6771 69.4087 58.6939 69.4193 58.71ZM66.4834 73.0526C66.5988 72.725 66.9567 72.5495 67.2867 72.6655L67.2874 72.6674C67.6161 72.7821 67.7904 73.1413 67.6744 73.4713C67.4406 74.1387 67.1788 74.7305 66.8736 75.2801C66.7582 75.4873 66.5424 75.6045 66.3215 75.6045C66.2161 75.6045 66.1125 75.5778 66.0182 75.5276L66.0163 75.5264L66.0145 75.5251C65.7112 75.3552 65.6007 74.9706 65.7701 74.666C66.0387 74.1828 66.2719 73.6549 66.4834 73.0526ZM67.4325 56.6242C66.4295 55.9704 65.2633 55.6243 64.0618 55.6243C61.9186 55.6243 59.9584 56.7117 58.8202 58.5311C58.7911 58.5786 58.767 58.6262 58.7473 58.6652L58.7432 58.6731C58.729 58.7023 58.7166 58.7265 58.7035 58.75L58.6998 58.7562L58.698 58.7595C58.6961 58.7627 58.6944 58.766 58.693 58.7693L58.5268 59.0664H58.5354C58.1142 59.9131 57.8847 60.8454 57.8847 61.802C57.8847 61.8206 57.886 61.8404 57.8878 61.8615C57.8841 62.8825 57.7768 63.9042 57.5702 64.8967L57.564 64.9234L57.5578 64.95C57.556 64.9568 57.5547 64.963 57.5541 64.968C57.5529 64.973 57.5522 64.9761 57.5516 64.9792L57.5516 64.9792V64.9823L57.5504 64.9854C57.5268 65.1001 57.5014 65.213 57.4741 65.3259C57.3934 65.6646 57.6013 66.0058 57.9399 66.0877L57.9443 66.0889H57.9486C57.9914 66.0982 58.0386 66.105 58.0894 66.105C58.3754 66.105 58.6322 65.9109 58.7029 65.6224C58.7395 65.468 58.7736 65.3129 58.8065 65.156V65.1547C58.8106 65.1354 58.813 65.1169 58.8147 65.1033L58.8147 65.1033L58.8158 65.0952C58.8177 65.0803 58.8189 65.0728 58.8202 65.0666C59.0373 63.9985 59.1514 62.9005 59.1514 61.8026C59.1514 61.7858 59.1502 61.7666 59.1483 61.7461C59.1588 60.8423 59.415 59.964 59.8921 59.2004C59.9162 59.1613 59.9448 59.1235 59.9795 59.0776L59.9832 59.0726L59.987 59.0676H59.9894L60.0521 58.9783C60.9764 57.667 62.4508 56.8872 64.063 56.8872C65.0189 56.8872 65.9463 57.1627 66.7434 57.6825V57.6831C67.0355 57.8711 67.4257 57.791 67.6161 57.4983C67.8066 57.2061 67.7235 56.8147 67.4325 56.6249V56.6242ZM57.5568 67.5044C57.854 67.6861 57.9489 68.0732 57.7696 68.3716L57.769 68.3703C57.3578 69.0485 57.1129 69.5195 56.8948 69.9389L56.8937 69.941C56.5408 70.6202 56.2573 71.1642 55.5073 72.0897C55.3826 72.2448 55.2003 72.3242 55.0167 72.3242C54.879 72.3242 54.7369 72.2795 54.6203 72.184H54.6197L54.619 72.1834C54.3492 71.9638 54.307 71.5668 54.526 71.297C55.1965 70.4698 55.4233 70.0338 55.7727 69.3624L55.7747 69.3585L55.7883 69.3323C56.0103 68.9061 56.2648 68.4173 56.6896 67.7165C56.8714 67.4182 57.2585 67.3257 57.5556 67.5032L57.5562 67.5044H57.5568Z" style="fill:var(--sapContent_Illustrative_Color4)"/>
<path fill-rule="evenodd" clip-rule="evenodd" d="M72.7926 62.6511H74.0548C74.0315 63.4403 73.9766 64.2282 73.8921 65.0041L73.8884 65.0438L73.8874 65.0533L73.8865 65.0655L73.8861 65.0707V65.0707V65.0707C73.8856 65.0783 73.885 65.087 73.884 65.0965V65.0977V65.099C73.5583 68.0058 72.8028 70.8362 71.6373 73.5122C71.5337 73.7504 71.301 73.8912 71.0591 73.8912C70.9741 73.8912 70.8892 73.8751 70.806 73.8385C70.4866 73.699 70.342 73.3274 70.4816 73.0079C71.5882 70.4678 72.3072 67.7812 72.6217 65.0202L72.6229 65.0072L72.6248 64.9904L72.6446 64.8143H72.6453C72.7215 64.0998 72.7709 63.3753 72.7926 62.6511ZM54.0266 62.6511H55.2909C55.2363 63.4753 55.1024 64.2885 54.8934 65.081C54.8891 65.0978 54.8853 65.1127 54.8822 65.1263L54.8791 65.1403C54.8755 65.1567 54.8714 65.1756 54.8661 65.1952V65.197C54.4914 66.5648 53.8959 67.8538 53.0957 69.0281C52.9729 69.208 52.7744 69.3035 52.5734 69.3035C52.4512 69.3035 52.3272 69.2681 52.218 69.1937C51.9308 68.9971 51.857 68.6038 52.0524 68.316C52.7533 67.2893 53.2756 66.1622 53.6149 64.9688L53.6584 64.8156H53.6615C53.8507 64.1096 53.9732 63.385 54.0266 62.6511ZM77.8882 62.6511C77.867 63.4555 77.816 64.259 77.7376 65.0481C77.7369 65.0562 77.7363 65.0649 77.7357 65.0761V65.0847L77.7345 65.0953L77.7158 65.2739V65.2752V65.2764C77.6792 65.5977 77.4075 65.8378 77.0893 65.8378C77.0658 65.8378 77.0428 65.8366 77.0192 65.8341H77.0186C76.6706 65.7962 76.4231 65.483 76.4603 65.1375L76.4746 65.0022L76.4802 64.947C76.5559 64.1905 76.6048 63.4214 76.6256 62.6511H77.8882ZM50.18 62.6511H51.4491C51.4295 62.8664 51.4026 63.0807 51.3688 63.2932C51.3179 63.6027 51.0506 63.8236 50.746 63.8236C50.7131 63.8236 50.6796 63.8211 50.6443 63.8149H50.6424H50.6405C50.2987 63.7578 50.0655 63.4359 50.122 63.091C50.1452 62.9457 50.1646 62.7989 50.18 62.6511ZM57.8644 62.6511H59.1288C59.0857 63.4646 58.9813 64.2738 58.8202 65.0667C58.8189 65.0729 58.8177 65.0803 58.8158 65.0952L58.8147 65.1034L58.8147 65.1034L58.8147 65.1035C58.813 65.117 58.8106 65.1355 58.8065 65.1548V65.156C58.7736 65.313 58.7395 65.468 58.7029 65.6225C58.6322 65.9109 58.3754 66.1051 58.0894 66.1051C58.0386 66.1051 57.9914 66.0983 57.9486 66.089H57.9443L57.9399 66.0877C57.6013 66.0058 57.3934 65.6647 57.4741 65.326C57.5014 65.2131 57.5268 65.1002 57.5504 64.9854L57.5516 64.9823V64.9792L57.5516 64.9792C57.5522 64.9761 57.5529 64.973 57.5541 64.9681C57.5547 64.9631 57.556 64.9569 57.5578 64.9501L57.564 64.9234L57.5702 64.8967C57.7235 64.1602 57.8222 63.4076 57.8644 62.6511ZM61.9712 62.6511H62.7268C62.6192 62.7369 62.4829 62.7863 62.3306 62.7721C62.1959 62.7697 62.0721 62.725 61.9712 62.6511ZM65.1299 62.6511H66.3934C66.3635 63.4577 66.2914 64.2627 66.1802 65.0548V65.0567V65.0585C66.1796 65.0616 66.179 65.066 66.1778 65.0808C66.1772 65.0846 66.1767 65.0894 66.1763 65.0948L66.1752 65.1054L66.174 65.115V65.1168V65.1187C66.1021 65.623 66.0128 66.123 65.9092 66.6161L65.9098 66.6149C65.8478 66.9126 65.5841 67.1155 65.2932 67.1155C65.2523 67.1155 65.2088 67.1117 65.1642 67.103H65.1629H65.1617C64.8205 67.0311 64.6022 66.6955 64.6741 66.355C64.7678 65.9083 64.8472 65.4561 64.9136 64.9983C64.9154 64.9828 64.9179 64.9692 64.9198 64.9605C64.9223 64.9493 64.9229 64.9438 64.9229 64.9438V64.9419V64.94C65.0312 64.1856 65.1005 63.4192 65.1299 62.6511ZM68.9633 62.6511H70.2252C70.1987 63.4548 70.135 64.2606 70.0377 65.0558C70.0371 65.0608 70.0365 65.067 70.0358 65.0788L70.0344 65.0968L70.034 65.1017L70.0334 65.1054V65.1091C69.7573 67.3013 69.204 69.4538 68.3895 71.5039C68.2909 71.7514 68.0533 71.9015 67.8034 71.9015C67.7233 71.9015 67.6464 71.886 67.5732 71.8587L67.5714 71.8569H67.5695C67.2457 71.7272 67.0875 71.3612 67.2165 71.0368C67.9851 69.1015 68.5086 67.0693 68.7723 64.9994C68.7735 64.9882 68.7754 64.9789 68.7766 64.9733C68.7779 64.9689 68.7783 64.967 68.7786 64.9658L68.7788 64.9642L68.7791 64.9621C68.7797 64.959 68.7802 64.9567 68.7807 64.9549L68.7807 64.9548C68.7812 64.9526 68.7816 64.9511 68.7816 64.9497C68.8768 64.189 68.9375 63.4193 68.9633 62.6511ZM62.8244 66.0069C62.9106 65.6682 62.7053 65.3264 62.3691 65.2396C62.0248 65.1502 61.6861 65.3605 61.6018 65.6961C61.1235 67.5694 60.7246 68.7604 60.1527 69.8522C59.5796 70.9452 58.829 71.9482 57.6318 73.4407C57.4147 73.7111 57.4575 74.1081 57.7286 74.3265H57.7292C57.8452 74.4201 57.9854 74.4654 58.1231 74.4654C58.3073 74.4654 58.4903 74.3848 58.6156 74.2297C59.8401 72.7031 60.6459 71.6269 61.268 70.4396C61.8914 69.2505 62.3269 67.9596 62.8244 66.0063V66.0069ZM64.758 68.5659H64.7586C65.0874 68.6819 65.2592 69.0423 65.1444 69.3699C64.2171 72.0142 63.634 73.1376 62.0441 75.3416C61.9207 75.5128 61.7259 75.6034 61.5324 75.6034C61.4046 75.6034 61.2756 75.5655 61.1627 75.4836H61.162C60.8792 75.2789 60.8178 74.8857 61.0212 74.6028C62.5453 72.49 63.0608 71.4957 63.9528 68.953C64.0676 68.6274 64.4255 68.4475 64.7567 68.5659H64.758ZM67.2867 72.6655C66.9567 72.5495 66.5988 72.7251 66.4834 73.0526C66.2719 73.6549 66.0387 74.1828 65.7701 74.666C65.6007 74.9706 65.7112 75.3552 66.0145 75.5252L66.0163 75.5264L66.0182 75.5276C66.1125 75.5779 66.2161 75.6046 66.3215 75.6046C66.5424 75.6046 66.7582 75.4873 66.8736 75.2801C67.1788 74.7306 67.4406 74.1388 67.6744 73.4713C67.7904 73.1413 67.6161 72.7822 67.2874 72.6674L67.2867 72.6655ZM57.7696 68.3716C57.9489 68.0733 57.854 67.6862 57.5568 67.5045H57.5562L57.5556 67.5032C57.2585 67.3258 56.8714 67.4182 56.6896 67.7166C56.2648 68.4174 56.0103 68.9062 55.7883 69.3323L55.7883 69.3323L55.7747 69.3586L55.7727 69.3624L55.7727 69.3624C55.4233 70.0339 55.1965 70.4699 54.526 71.297C54.307 71.5669 54.3492 71.9639 54.619 72.1834L54.6197 72.1841H54.6203C54.7369 72.2796 54.879 72.3243 55.0167 72.3243C55.2003 72.3243 55.3826 72.2449 55.5073 72.0898C56.2573 71.1643 56.5408 70.6203 56.8937 69.941L56.8948 69.939L56.8948 69.939C57.1129 69.5195 57.3578 69.0485 57.769 68.3704L57.7696 68.3716Z" style="fill:var(--sapContent_Illustrative_Color15)"/>
<rect x="43.4824" y="61.7222" width="41.199" height="2.03913" rx="1.01957" style="fill:var(--sapContent_Illustrative_Color3)"/>
<path d="M91.0206 112.667C91.0206 111.981 89.031 111.433 86.3725 111.308C86.2205 108.653 85.6353 106.679 84.9498 106.68C84.2643 106.682 83.6943 108.671 83.5484 111.34C80.8824 111.522 78.9003 112.118 78.9095 112.805C78.9186 113.492 80.8991 114.041 83.5575 114.164C83.7171 116.819 84.2947 118.793 84.9787 118.791C85.6627 118.79 86.2357 116.8 86.3816 114.132C89.0477 113.949 91.0282 113.354 91.0206 112.667Z" style="fill:var(--sapContent_Illustrative_Color18)"/>
<path d="M60.1211 15.7272C60.1211 14.6991 57.1366 13.8761 53.149 13.6892C52.921 9.70659 52.0432 6.74528 51.0149 6.74756C49.9867 6.74984 49.1317 9.73394 48.9128 13.7371C44.9138 14.0106 41.9407 14.9043 41.9544 15.9347C41.9681 16.9651 44.9389 17.7881 48.9265 17.9727C49.1659 21.9553 50.0323 24.9166 51.0583 24.9143C52.0842 24.9121 52.9438 21.928 53.1627 17.9248C57.1617 17.6513 60.1325 16.7576 60.1211 15.7272Z" style="fill:var(--sapContent_Illustrative_Color18)"/>
</svg>
