<svg width="45" height="45" viewBox="0 0 45 45" fill="none" xmlns="http://www.w3.org/2000/svg" id="tnt-Dot-ChartBullet">
<rect x="4.36475" y="42.9819" width="18.6907" height="8.09727" rx="1.33104" transform="rotate(-90 4.36475 42.9819)" style="fill:var(--sapContent_Illustrative_Color14)"/>
<rect x="18.4512" y="42.9819" width="41.2192" height="8.09727" rx="1.33092" transform="rotate(-90 18.4512 42.9819)" style="fill:var(--sapContent_Illustrative_Color3)"/>
<rect x="32.5376" y="42.9819" width="32.4419" height="8.09727" rx="1.33104" transform="rotate(-90 32.5376 42.9819)" style="fill:var(--sapContent_Illustrative_Color2)"/>
<path fill-rule="evenodd" clip-rule="evenodd" d="M2.56592 14.0126C2.56592 13.4613 3.01282 13.0144 3.56411 13.0144H13.263C13.8143 13.0144 14.2612 13.4613 14.2612 14.0126C14.2612 14.5639 13.8143 15.0108 13.263 15.0108H3.56411C3.01282 15.0108 2.56592 14.5639 2.56592 14.0126Z" style="fill:var(--sapContent_Illustrative_Color4)"/>
<path fill-rule="evenodd" clip-rule="evenodd" d="M16.6523 27.432C16.6523 26.8807 17.0992 26.4338 17.6505 26.4338H27.3494C27.9007 26.4338 28.3476 26.8807 28.3476 27.432C28.3476 27.9833 27.9007 28.4302 27.3494 28.4302H17.6505C17.0992 28.4302 16.6523 27.9833 16.6523 27.432Z" style="fill:var(--sapContent_Illustrative_Color4)"/>
<path fill-rule="evenodd" clip-rule="evenodd" d="M30.7388 18.5099C30.7388 17.9586 31.1857 17.5117 31.737 17.5117H41.4359C41.9871 17.5117 42.434 17.9586 42.434 18.5099C42.434 19.0612 41.9871 19.5081 41.4359 19.5081H31.737C31.1857 19.5081 30.7388 19.0612 30.7388 18.5099Z" style="fill:var(--sapContent_Illustrative_Color4)"/>
</svg>
