<svg width="162" height="160" viewBox="0 0 162 160" fill="none" xmlns="http://www.w3.org/2000/svg" id="tnt-Dialog-Systems">
<circle cx="76.9422" cy="80.0001" r="76.9412" style="fill:var(--sapContent_Illustrative_Color7)"/>
<path fill-rule="evenodd" clip-rule="evenodd" d="M153.794 83.7274C153.853 82.4923 153.882 81.2497 153.882 80.0001C153.882 59.8158 146.11 41.4468 133.395 27.7226C132.809 27.6819 132.218 27.6611 131.621 27.6611C121.54 27.6611 112.849 33.5723 108.808 42.1174C106.363 40.9849 103.635 40.3415 100.761 40.3415C91.2636 40.3415 83.3878 47.265 81.9035 56.342C74.9649 56.7215 69.4068 62.2662 68.9908 69.1916C68.8317 69.1716 68.6717 69.1544 68.5108 69.14H68.5194C68.6824 67.9989 68.7596 66.8236 68.7596 65.6396C68.7596 51.7153 57.4692 40.4248 43.5448 40.4248C33.4641 40.4248 24.7732 46.336 20.7323 54.8811C18.2872 53.7486 15.5589 53.1051 12.6848 53.1051C9.60006 53.1051 6.68636 53.8355 4.10718 55.1329C1.44464 62.9334 0 71.298 0 80.0001C0 85.6606 0.611274 91.1784 1.77141 96.491H67.2668C74.5551 96.491 80.5142 90.8004 80.9434 83.62C81.508 83.6909 82.0833 83.7274 82.6671 83.7274H153.794Z" style="fill:var(--sapContent_Illustrative_Color18)"/>
<path d="M158.265 50.7177L132.941 34.0294C131.867 33.3219 130.424 33.6232 129.717 34.7024L105.451 71.738C104.744 72.8173 105.041 74.2657 106.115 74.9733L131.439 91.6615C132.513 92.3691 133.956 92.0677 134.663 90.9885L158.929 53.9529C159.636 52.8737 159.339 51.4252 158.265 50.7177Z" style="fill:var(--sapContent_Illustrative_Color20)"/>
<path d="M157.166 49.143L131.842 32.4547C130.768 31.7472 129.324 32.0485 128.617 33.1277L104.352 70.1633C103.644 71.2426 103.942 72.691 105.015 73.3986L130.339 90.0868C131.413 90.7944 132.857 90.493 133.564 89.4138L157.829 52.3782C158.536 51.299 158.239 49.8505 157.166 49.143Z" style="fill:var(--sapContent_Illustrative_Color19)"/>
<path d="M140.327 45.562C139.505 44.9589 138.522 44.6147 137.503 44.5727C136.484 44.5307 135.475 44.7929 134.604 45.3262C133.732 45.8594 133.037 46.6398 132.607 47.5686C132.176 48.4973 132.029 49.5328 132.185 50.5441C132.34 51.5554 132.791 52.4971 133.48 53.2501C134.17 54.0031 135.066 54.5336 136.057 54.7745C137.047 55.0155 138.087 54.956 139.045 54.6037C140.004 54.2514 140.837 53.6221 141.44 52.7952L137.277 49.7459L140.327 45.562Z" style="fill:var(--sapContent_Illustrative_Color7)"/>
<path d="M141.989 45.2552L138.943 49.436L143.102 52.4842C143.502 51.9353 143.791 51.3128 143.952 50.6523C144.112 49.9919 144.142 49.3064 144.038 48.635C143.935 47.9636 143.701 47.3195 143.349 46.7396C142.997 46.1597 142.535 45.6553 141.989 45.2552Z" style="fill:var(--sapContent_Illustrative_Color20)"/>
<path d="M141.561 62.8965L123.914 51.2674C123.328 50.8816 122.541 51.0459 122.155 51.6344C121.77 52.2229 121.932 53.0127 122.517 53.3985L140.164 65.0276C140.75 65.4134 141.537 65.2491 141.922 64.6606C142.308 64.0721 142.146 63.2823 141.561 62.8965Z" style="fill:var(--sapContent_Illustrative_Color7)"/>
<path d="M138.872 66.4165L121.225 54.7874C120.64 54.4016 119.852 54.5659 119.467 55.1544C119.081 55.7429 119.243 56.5327 119.829 56.9185L137.476 68.5476C138.061 68.9334 138.848 68.7691 139.234 68.1806C139.62 67.5922 139.457 66.8023 138.872 66.4165Z" style="fill:var(--sapContent_Illustrative_Color7)"/>
<path d="M128.044 64.4548L118.643 58.2596C118.058 57.8738 117.27 58.0381 116.885 58.6266C116.499 59.2151 116.661 60.0048 117.247 60.3906L126.648 66.5859C127.233 66.9717 128.021 66.8074 128.406 66.219C128.792 65.6305 128.63 64.8407 128.044 64.4548Z" style="fill:var(--sapContent_Illustrative_Color7)"/>
<path d="M92.5254 31.946C92.8393 31.1843 93.7112 30.8213 94.4728 31.1352L118.446 41.0143C119.207 41.3282 119.57 42.2001 119.256 42.9617L109.377 66.9346C109.063 67.6962 108.192 68.0592 107.43 67.7453L83.4571 57.8662C82.6954 57.5523 82.3324 56.6804 82.6463 55.9188L92.5254 31.946Z" style="fill:var(--sapContent_Illustrative_Color19)"/>
<path d="M91.1036 29.5561C91.4174 28.7944 92.2893 28.4314 93.051 28.7453L117.024 38.6245C117.785 38.9383 118.148 39.8102 117.835 40.5719L107.955 64.5447C107.642 65.3063 106.77 65.6693 106.008 65.3554L82.0352 55.4763C81.2735 55.1624 80.9105 54.2905 81.2244 53.5289L91.1036 29.5561Z" style="fill:var(--sapContent_Illustrative_Color18)"/>
<path d="M92.421 35.115C92.8918 33.9725 94.1996 33.4281 95.3421 33.8989L111.253 40.4557C112.396 40.9265 112.94 42.2344 112.469 43.3768L106.76 57.2316C106.289 58.3741 104.981 58.9185 103.839 58.4477L87.9276 51.8909C86.7851 51.42 86.2406 50.1122 86.7115 48.9698L92.421 35.115Z" style="fill:var(--sapContent_Illustrative_Color7)"/>
<path d="M104.519 47.199C106.222 47.901 108.172 47.0892 108.874 45.3857C109.576 43.6823 108.764 41.7323 107.061 41.0303C105.357 40.3283 103.407 41.1402 102.706 42.8436C102.004 44.5471 102.815 46.497 104.519 47.199Z" style="fill:var(--sapContent_Illustrative_Color19)"/>
<path d="M96.7072 51.9571C97.6269 51.7549 98.5599 51.6009 99.502 51.4958L99.1622 50.6299C96.8632 44.7194 96.3847 42.477 93.7962 39.8721C93.0469 39.0806 92.2346 38.3451 91.3672 37.6729L86.4397 49.6299C86.3635 49.8149 86.327 50.0141 86.3323 50.2162C86.3377 50.4183 86.3847 50.6193 86.4708 50.8077C86.5568 50.9962 86.6802 51.1684 86.8339 51.3145C86.9876 51.4607 87.1686 51.5779 87.3665 51.6595L92.1386 53.626C93.5502 52.8433 95.0915 52.2803 96.7072 51.9571Z" style="fill:var(--sapContent_Illustrative_Color19)"/>
<path d="M102.033 51.784C101.231 51.1878 100.24 51.1036 99.0746 51.2432C98.1774 51.3743 97.2876 51.5541 96.409 51.782C94.8666 52.1501 93.3883 52.757 92.0271 53.5808L104.364 58.665C102.851 55.3197 103.73 53.0477 102.033 51.784Z" style="fill:var(--sapContent_Illustrative_Color20)"/>
<path d="M34.7071 35.5699C34.4595 34.8992 34.8025 34.1548 35.4732 33.9072L59.7591 24.9422C60.4151 24.7 61.1449 25.0226 61.4073 25.6708L77.0283 64.2526C77.3025 64.9299 76.9622 65.6998 76.2767 65.9529L50.7774 75.3658C50.1067 75.6134 49.3623 75.2704 49.1147 74.5996L34.7071 35.5699Z" style="fill:var(--sapContent_Illustrative_Color20)"/>
<path d="M61.1537 32.7115L8.87207 52.011L22.3178 84.8791C22.3812 85.0368 22.5032 85.1635 22.6578 85.2322C22.8123 85.3009 22.987 85.306 23.1445 85.2465L74.2184 66.3928C74.3002 66.3627 74.375 66.3163 74.4383 66.2563C74.5017 66.1962 74.5523 66.1239 74.5872 66.0436C74.622 65.9632 74.6405 65.8766 74.6413 65.7887C74.6421 65.7009 74.6253 65.6136 74.5919 65.5323L61.1537 32.7115ZM16.6611 53.5271C16.6162 53.42 16.5933 53.305 16.5938 53.1889C16.5943 53.0729 16.6183 52.9583 16.6642 52.8522C16.7101 52.746 16.777 52.6506 16.8609 52.5715C16.9448 52.4925 17.0438 52.4315 17.1521 52.3923L32.5547 46.7065C32.7752 46.6251 33.0193 46.6355 33.2334 46.7353C33.4474 46.8351 33.6138 47.0163 33.6959 47.2388C33.7409 47.346 33.7638 47.461 33.7633 47.5771C33.7627 47.6931 33.7388 47.8076 33.6928 47.9138C33.6469 48.0199 33.58 48.1154 33.4961 48.1945C33.4122 48.2735 33.3132 48.3345 33.205 48.3736L17.8023 54.0595C17.5818 54.1409 17.3377 54.1305 17.1237 54.0307C16.9097 53.9308 16.7433 53.7497 16.6611 53.5271ZM66.641 65.0997L27.5216 79.5404C27.363 79.6003 27.187 79.5951 27.0314 79.5259C26.8757 79.4568 26.7528 79.329 26.689 79.1702L17.8013 57.4375C17.7678 57.3557 17.7509 57.2681 17.7519 57.1798C17.7529 57.0916 17.7716 57.0046 17.8069 56.924C17.8422 56.8434 17.8934 56.771 17.9573 56.7111C18.0213 56.6511 18.0967 56.605 18.1791 56.5753L57.3072 42.1314C57.4647 42.0719 57.6394 42.077 57.7939 42.1456C57.9485 42.2143 58.0705 42.3411 58.1339 42.4987L67.0232 64.2359C67.054 64.3174 67.0683 64.4042 67.0654 64.4912C67.0624 64.5782 67.0422 64.6636 67.006 64.7424C66.9698 64.8212 66.9183 64.8918 66.8545 64.9502C66.7907 65.0085 66.7159 65.0533 66.6345 65.082L66.641 65.0997Z" style="fill:var(--sapContent_Illustrative_Color19)"/>
<path d="M8.87218 52.0111L61.272 32.6681L58.5215 25.9444C58.4567 25.7864 58.3337 25.6594 58.1784 25.5904C58.023 25.5213 57.8475 25.5156 57.6888 25.5743L46.9375 29.543L47.943 31.9975C48.1573 32.0657 48.3545 32.1802 48.5208 32.333C48.6871 32.4857 48.8185 32.673 48.9058 32.8817C48.9802 33.0578 49.0185 33.247 49.0182 33.438C49.018 33.6289 48.9792 33.8176 48.9044 33.9926C48.8295 34.1675 48.7201 34.3252 48.5827 34.4559C48.4453 34.5866 48.2828 34.6878 48.105 34.7532C47.7394 34.8793 47.3387 34.8586 46.986 34.6955C46.6333 34.5323 46.3556 34.2391 46.2104 33.8767C46.1271 33.6778 46.0901 33.4626 46.1021 33.2477C46.1141 33.0327 46.1748 32.8237 46.2796 32.6366L45.266 30.1601L17.8868 40.2669L18.8972 42.7346C19.1092 42.8029 19.3041 42.917 19.4683 43.0687C19.6325 43.2205 19.7621 43.4063 19.848 43.6132C19.9217 43.7875 19.9599 43.9747 19.9605 44.1636C19.961 44.3526 19.9239 44.5396 19.8512 44.7134C19.7786 44.8872 19.6719 45.0443 19.5376 45.1754C19.4032 45.3065 19.2439 45.409 19.0691 45.4766C18.7034 45.6016 18.3032 45.5803 17.9508 45.4173C17.5984 45.2543 17.3205 44.9619 17.1744 44.6002C17.0891 44.3987 17.0513 44.1804 17.064 43.9623C17.0767 43.7442 17.1395 43.5324 17.2475 43.3436L16.2371 40.8759L6.46605 44.4828C6.38429 44.513 6.3095 44.5594 6.24614 44.6194C6.18278 44.6794 6.13214 44.7518 6.09729 44.8321C6.06243 44.9124 6.04402 44.9991 6.04322 45.087C6.04241 45.1748 6.05922 45.262 6.0926 45.3434L6.96431 47.4758L8.82405 52.0289L8.87218 52.0111Z" style="fill:var(--sapContent_Illustrative_Color18)"/>
<path d="M18.7895 44.6663L18.7413 44.6841C18.5264 44.7623 18.2893 44.7536 18.0796 44.6598C17.8698 44.5661 17.7037 44.3946 17.6159 44.1811L17.269 43.3355C17.1609 43.5244 17.0981 43.7362 17.0854 43.9542C17.0727 44.1723 17.1106 44.3906 17.1959 44.5921C17.342 44.9538 17.6198 45.2462 17.9722 45.4093C18.3246 45.5723 18.7249 45.5935 19.0906 45.4686C19.2654 45.4009 19.4247 45.2985 19.559 45.1674C19.6934 45.0362 19.8 44.8791 19.8727 44.7053C19.9453 44.5315 19.9825 44.3446 19.982 44.1556C19.9814 43.9666 19.9431 43.7794 19.8694 43.6051C19.7836 43.3982 19.654 43.2124 19.4898 43.0607C19.3255 42.9089 19.1306 42.7949 18.9186 42.7265L19.2656 43.5721C19.3085 43.6756 19.3302 43.7867 19.3293 43.8986C19.3284 44.0105 19.3051 44.1209 19.2606 44.2232C19.2161 44.3255 19.1513 44.4175 19.0703 44.4937C18.9894 44.5698 18.8938 44.6285 18.7895 44.6663Z" style="fill:var(--sapContent_Illustrative_Color20)"/>
<path d="M47.8089 33.9091L47.7608 33.9269C47.5465 34.0025 47.3111 33.9931 47.1025 33.9005C46.8938 33.8079 46.7274 33.6391 46.637 33.4283L46.314 32.6341C46.2092 32.8212 46.1485 33.0302 46.1365 33.2452C46.1245 33.4601 46.1615 33.6753 46.2448 33.8742C46.39 34.2367 46.6677 34.5298 47.0204 34.693C47.3731 34.8562 47.7738 34.8768 48.1395 34.7507C48.3172 34.6853 48.4797 34.5842 48.6171 34.4534C48.7545 34.3227 48.864 34.165 48.9388 33.9901C49.0137 33.8151 49.0524 33.6264 49.0527 33.4355C49.0529 33.2445 49.0147 33.0553 48.9403 32.8792C48.853 32.6705 48.7215 32.4832 48.5552 32.3305C48.3889 32.1778 48.1917 32.0633 47.9774 31.995L48.3085 32.8113C48.3523 32.9164 48.3739 33.0294 48.3722 33.1431C48.3704 33.2568 48.3453 33.3688 48.2983 33.4719C48.2514 33.5751 48.1837 33.6672 48.0994 33.7424C48.0152 33.8177 47.9163 33.8744 47.8089 33.9091Z" style="fill:var(--sapContent_Illustrative_Color20)"/>
<path d="M17.6159 44.1812C17.7036 44.3947 17.8698 44.5663 18.0795 44.66C18.2892 44.7537 18.5264 44.7624 18.7413 44.6842L18.7894 44.6664C18.8938 44.6287 18.9893 44.57 19.0703 44.4938C19.1513 44.4176 19.216 44.3256 19.2605 44.2233C19.305 44.1211 19.3284 44.0106 19.3292 43.8987C19.3301 43.7868 19.3084 43.6757 19.2655 43.5722L18.9186 42.7267L17.9082 40.259L16.8848 37.756C16.797 37.5425 16.6309 37.371 16.4211 37.2772C16.2114 37.1835 15.9743 37.1748 15.7594 37.253L15.7331 37.2627C15.6288 37.3005 15.5332 37.3592 15.4522 37.4354C15.3712 37.5115 15.3065 37.6035 15.262 37.7058C15.2175 37.8081 15.1942 37.9185 15.1933 38.0304C15.1924 38.1423 15.2141 38.2534 15.257 38.3569L16.2804 40.8599L17.2908 43.3276L17.6159 44.1812Z" style="fill:var(--sapContent_Illustrative_Color19)"/>
<path d="M46.6364 33.4284C46.7256 33.6423 46.8927 33.814 47.1032 33.9081C47.3138 34.0023 47.5517 34.0116 47.7679 33.9341L47.816 33.9164C47.9206 33.8786 48.0163 33.8197 48.0972 33.7432C48.1781 33.6667 48.2426 33.5742 48.2867 33.4715C48.3307 33.3687 48.3533 33.2579 48.3533 33.1458C48.3532 33.0337 48.3303 32.9226 48.2861 32.8194L47.9549 32.0031L46.9495 29.5487L45.9098 27.0015C45.8208 26.7881 45.6537 26.6168 45.4433 26.5235C45.2329 26.4301 44.9953 26.4217 44.78 26.5002L44.7319 26.5179C44.6277 26.5556 44.5323 26.6143 44.4515 26.6904C44.3708 26.7665 44.3064 26.8585 44.2623 26.9607C44.2182 27.0629 44.1952 27.1733 44.1948 27.285C44.1944 27.3967 44.2167 27.5074 44.2601 27.6105L45.2998 30.1577L46.3134 32.6342L46.6364 33.4284Z" style="fill:var(--sapContent_Illustrative_Color19)"/>
<path d="M57.6363 42.1352C57.2868 42.1601 56.9434 42.2378 56.6175 42.3657L18.8415 56.3105C18.5055 56.4269 18.1906 56.5974 17.9092 56.8153C17.7679 56.9578 17.9155 57.7214 18.0656 58.0875L26.4106 78.4849C26.5391 78.8143 26.715 79.1231 26.9328 79.4012C27.0719 79.5356 27.8165 79.4113 28.1841 79.2756L65.9601 65.3308C66.2962 65.2135 66.6106 65.0415 66.8909 64.8216C67.0322 64.6791 66.8862 63.9199 66.7345 63.5493L58.3862 43.1432C58.2438 42.7842 57.8127 42.1554 57.6363 42.1352ZM44.9337 53.5193C44.754 53.5845 44.5558 53.5772 44.3806 53.4988C44.2053 53.4205 44.0664 53.2771 43.9928 53.0988L43.591 52.1179C43.555 52.0314 43.5368 51.9385 43.5375 51.8449C43.5382 51.7513 43.5577 51.6589 43.5949 51.5734C43.6322 51.4878 43.6863 51.4109 43.7541 51.3472C43.8218 51.2836 43.9018 51.2345 43.9891 51.203L45.3019 50.7185C45.482 50.6531 45.6806 50.6601 45.8565 50.7381C46.0325 50.8161 46.1723 50.9591 46.2471 51.1374L46.649 52.1183C46.6843 52.2049 46.7019 52.2977 46.7009 52.3911C46.6999 52.4845 46.6803 52.5766 46.6431 52.662C46.606 52.7473 46.5521 52.8242 46.4847 52.888C46.4173 52.9517 46.3378 53.0011 46.2508 53.0331L44.9337 53.5193ZM47.2463 55.2855C47.4261 55.2215 47.6237 55.2294 47.7987 55.3076C47.9737 55.3858 48.1127 55.5284 48.1871 55.706L48.589 56.6869C48.6243 56.7735 48.642 56.8663 48.641 56.9597C48.64 57.0531 48.6203 57.1452 48.5832 57.2306C48.546 57.3159 48.4921 57.3928 48.4247 57.4566C48.3573 57.5203 48.2778 57.5697 48.1909 57.6017L46.8781 58.0863C46.6984 58.1503 46.5007 58.1424 46.3257 58.0642C46.1507 57.986 46.0117 57.8434 45.9373 57.6658L45.5354 56.6849C45.5001 56.5983 45.4824 56.5055 45.4834 56.4121C45.4844 56.3187 45.5041 56.2266 45.5413 56.1412C45.5784 56.0558 45.6323 55.979 45.6997 55.9152C45.7671 55.8514 45.8466 55.8021 45.9336 55.77L47.2463 55.2855ZM47.3971 61.0817C47.3611 60.9951 47.3429 60.9023 47.3436 60.8087C47.3443 60.7151 47.3638 60.6227 47.4011 60.5371C47.4383 60.4516 47.4924 60.3747 47.5602 60.311C47.628 60.2474 47.7079 60.1983 47.7953 60.1668L49.108 59.6822C49.2878 59.6183 49.4854 59.6262 49.6604 59.7044C49.8354 59.7826 49.9744 59.9252 50.0489 60.1028L50.4507 61.0837C50.486 61.1703 50.5037 61.2631 50.5027 61.3565C50.5017 61.4499 50.482 61.542 50.4449 61.6274C50.4077 61.7127 50.3538 61.7896 50.2864 61.8534C50.219 61.9171 50.1395 61.9665 50.0526 61.9985L48.7398 62.4831C48.5601 62.5471 48.3624 62.5392 48.1874 62.461C48.0124 62.3827 47.8734 62.2402 47.799 62.0626L47.3971 61.0817ZM39.6457 55.4111C39.4656 55.4765 39.267 55.4695 39.0911 55.3915C38.9151 55.3135 38.7753 55.1705 38.7005 54.9922L38.2986 54.0113C38.2626 53.9246 38.2443 53.8315 38.2448 53.7377C38.2454 53.6439 38.2647 53.5512 38.3018 53.4653C38.3388 53.3795 38.3927 53.3021 38.4603 53.238C38.5279 53.1738 38.6078 53.1242 38.6952 53.092L40.0079 52.6074C40.1888 52.543 40.3877 52.551 40.5639 52.6298C40.74 52.7085 40.8798 52.852 40.9547 53.0308L41.3522 54.0133C41.388 54.0995 41.4063 54.1919 41.4057 54.2852C41.4052 54.3784 41.386 54.4704 41.3492 54.5557C41.3124 54.641 41.2588 54.7178 41.1917 54.7816C41.1245 54.8453 41.0452 54.8946 40.9584 54.9266L39.6457 55.4111ZM41.9272 57.1737C42.1073 57.1083 42.3059 57.1153 42.4818 57.1933C42.6578 57.2713 42.7976 57.4143 42.8724 57.5927L43.2742 58.5735C43.3103 58.6603 43.3286 58.7533 43.3281 58.8472C43.3275 58.941 43.3081 59.0336 43.2711 59.1195C43.2341 59.2054 43.1801 59.2827 43.1125 59.3469C43.0449 59.411 42.965 59.4607 42.8777 59.4928L41.565 59.9774C41.3841 60.0418 41.1851 60.0338 41.009 59.9551C40.8329 59.8763 40.693 59.7328 40.6182 59.554L40.2207 58.5715C40.1849 58.4854 40.1666 58.3929 40.1671 58.2997C40.1677 58.2065 40.1869 58.1145 40.2237 58.0292C40.2605 57.9438 40.314 57.867 40.3812 57.8033C40.4483 57.7395 40.5277 57.6902 40.6145 57.6583L41.9272 57.1737ZM42.078 62.9699C42.0422 62.8838 42.0239 62.7913 42.0245 62.6981C42.025 62.6049 42.0442 62.5129 42.081 62.4276C42.1178 62.3423 42.1714 62.2654 42.2385 62.2017C42.3057 62.138 42.385 62.0886 42.4718 62.0567L43.7845 61.5721C43.9647 61.5079 44.1628 61.5155 44.3385 61.5933C44.5141 61.6712 44.654 61.8135 44.7297 61.9911L45.1316 62.9719C45.1676 63.0585 45.1858 63.1513 45.1851 63.2449C45.1844 63.3385 45.1649 63.4309 45.1276 63.5165C45.0904 63.602 45.0363 63.6789 44.9685 63.7426C44.9008 63.8062 44.8208 63.8553 44.7334 63.8868L43.4207 64.3714C43.2406 64.4368 43.042 64.4297 42.8661 64.3517C42.6901 64.2737 42.5502 64.1308 42.4755 63.9524L42.078 62.9699ZM34.4572 57.3164C34.277 57.3806 34.0789 57.373 33.9032 57.2952C33.7276 57.2173 33.5877 57.0751 33.512 56.8975L33.1145 55.915C33.0779 55.8287 33.0591 55.7359 33.0591 55.6423C33.0592 55.5487 33.0781 55.4561 33.1148 55.3703C33.1514 55.2845 33.2051 55.2072 33.2725 55.1431C33.3398 55.079 33.4194 55.0294 33.5066 54.9973L34.8193 54.5127C35.0002 54.4471 35.1996 54.4545 35.376 54.5334C35.5525 54.6123 35.6922 54.7566 35.7662 54.9361L36.168 55.917C36.2033 56.0036 36.221 56.0964 36.22 56.1898C36.219 56.2832 36.1993 56.3753 36.1622 56.4607C36.125 56.546 36.0712 56.6229 36.0038 56.6867C35.9364 56.7504 35.8568 56.7998 35.7699 56.8318L34.4572 57.3164ZM36.7386 59.079C36.9187 59.0136 37.1173 59.0206 37.2932 59.0986C37.4692 59.1766 37.6091 59.3196 37.6838 59.4979L38.0857 60.4788C38.1217 60.5656 38.14 60.6587 38.1395 60.7525C38.1389 60.8463 38.1196 60.9389 38.0826 61.0248C38.0455 61.1106 37.9916 61.188 37.924 61.2521C37.8564 61.3163 37.7765 61.3659 37.6892 61.3981L36.3764 61.8827C36.1959 61.9469 35.9974 61.9386 35.822 61.8594C35.6465 61.7803 35.5076 61.6365 35.434 61.4577L35.0321 60.4768C34.9961 60.3903 34.9779 60.2974 34.9786 60.2038C34.9793 60.1102 34.9988 60.0178 35.0361 59.9323C35.0733 59.8467 35.1274 59.7698 35.1952 59.7062C35.2629 59.6425 35.343 59.5934 35.4303 59.5619L36.7386 59.079ZM36.8895 64.8752C36.8535 64.7887 36.8352 64.6958 36.8359 64.6022C36.8366 64.5086 36.8561 64.4162 36.8934 64.3307C36.9306 64.2451 36.9848 64.1682 37.0525 64.1045C37.1203 64.0409 37.2003 63.9918 37.2876 63.9603L38.6003 63.4758C38.7804 63.4104 38.979 63.4174 39.155 63.4954C39.3309 63.5734 39.4708 63.7164 39.5455 63.8947L39.9474 64.8756C39.9834 64.9621 40.0016 65.055 40.0009 65.1486C40.0003 65.2422 39.9807 65.3346 39.9435 65.4201C39.9063 65.5057 39.8521 65.5826 39.7843 65.6463C39.7165 65.7099 39.6366 65.759 39.5492 65.7905L38.2365 66.275C38.0568 66.3402 37.8587 66.3329 37.6834 66.2545C37.5081 66.1762 37.3692 66.0328 37.2957 65.8545L36.8895 64.8752ZM29.2025 59.2311C29.0224 59.2965 28.8238 59.2894 28.6478 59.2114C28.4719 59.1335 28.332 58.9905 28.2572 58.8121L27.8554 57.8312C27.8201 57.7446 27.8024 57.6519 27.8034 57.5585C27.8044 57.4651 27.8241 57.3729 27.8612 57.2876C27.8984 57.2022 27.9523 57.1253 28.0197 57.0616C28.0871 56.9978 28.1666 56.9484 28.2535 56.9164L29.5663 56.4318C29.7459 56.3666 29.9441 56.374 30.1194 56.4523C30.2947 56.5307 30.4336 56.674 30.5071 56.8524L30.909 57.8333C30.945 57.9198 30.9631 58.0127 30.9625 58.1063C30.9618 58.1999 30.9422 58.2922 30.905 58.3778C30.8678 58.4633 30.8137 58.5403 30.7459 58.6039C30.6781 58.6676 30.5982 58.7166 30.5108 58.7481L29.2025 59.2311ZM31.484 60.9936C31.6649 60.9292 31.8638 60.9372 32.0399 61.0159C32.216 61.0947 32.3559 61.2382 32.4308 61.417L32.8326 62.3979C32.8679 62.4845 32.8856 62.5772 32.8846 62.6706C32.8836 62.764 32.8639 62.8562 32.8268 62.9416C32.7896 63.0269 32.7357 63.1038 32.6683 63.1676C32.6009 63.2313 32.5214 63.2807 32.4345 63.3127L31.1218 63.7973C30.9416 63.8615 30.7435 63.8539 30.5678 63.776C30.3922 63.6982 30.2522 63.556 30.1766 63.3784L29.7747 62.3975C29.7386 62.3107 29.7203 62.2177 29.7209 62.1238C29.7214 62.03 29.7408 61.9374 29.7778 61.8515C29.8149 61.7656 29.8688 61.6883 29.9364 61.6242C30.004 61.56 30.0839 61.5104 30.1712 61.4782L31.484 60.9936ZM31.6348 66.7898C31.5995 66.7032 31.5818 66.6105 31.5828 66.5171C31.5838 66.4237 31.6034 66.3316 31.6406 66.2462C31.6777 66.1608 31.7316 66.084 31.799 66.0202C31.8664 65.9564 31.946 65.907 32.0329 65.875L33.3457 65.3904C33.5258 65.3262 33.7239 65.3338 33.8996 65.4117C34.0752 65.4895 34.2152 65.6318 34.2908 65.8094L34.6927 66.7903C34.7287 66.877 34.747 66.9701 34.7465 67.0639C34.7459 67.1577 34.7266 67.2503 34.6896 67.3362C34.6525 67.4221 34.5986 67.4994 34.531 67.5636C34.4634 67.6277 34.3835 67.6774 34.2962 67.7095L32.9835 68.1941C32.8025 68.2585 32.6036 68.2505 32.4275 68.1718C32.2514 68.093 32.1115 67.9495 32.0366 67.7707L31.6348 66.7898ZM24.0446 61.1251C23.8644 61.1893 23.6663 61.1816 23.4906 61.1038C23.315 61.0259 23.175 60.8837 23.0994 60.7061L22.7018 59.7236C22.666 59.6374 22.6478 59.545 22.6483 59.4518C22.6489 59.3586 22.6681 59.2665 22.7049 59.1812C22.7417 59.0959 22.7953 59.0191 22.8624 58.9554C22.9296 58.8916 23.0089 58.8423 23.0957 58.8104L24.4084 58.3258C24.5886 58.2616 24.7866 58.2692 24.9623 58.347C25.1379 58.4249 25.2779 58.5671 25.3536 58.7447L25.7554 59.7256C25.7907 59.8122 25.8084 59.905 25.8074 59.9984C25.8064 60.0918 25.7867 60.1839 25.7496 60.2693C25.7124 60.3547 25.6585 60.4315 25.5911 60.4953C25.5237 60.5591 25.4442 60.6084 25.3573 60.6405L24.0446 61.1251ZM26.326 62.8876C26.5069 62.822 26.7063 62.8294 26.8827 62.9083C27.0591 62.9872 27.1989 63.1314 27.2729 63.311L27.6747 64.2919C27.71 64.3785 27.7277 64.4712 27.7267 64.5646C27.7257 64.658 27.706 64.7502 27.6689 64.8355C27.6317 64.9209 27.5779 64.9978 27.5105 65.0615C27.4431 65.1253 27.3635 65.1747 27.2766 65.2067L25.9638 65.6913C25.7841 65.7553 25.5864 65.7473 25.4115 65.6691C25.2365 65.5909 25.0975 65.4483 25.023 65.2707L24.6212 64.2898C24.5844 64.2032 24.5656 64.11 24.5658 64.016C24.566 63.922 24.5852 63.8291 24.6223 63.743C24.6595 63.657 24.7137 63.5796 24.7816 63.5155C24.8496 63.4515 24.9299 63.4022 25.0177 63.3706L26.326 62.8876ZM26.4769 68.6838C26.4409 68.5973 26.4227 68.5044 26.4234 68.4108C26.424 68.3172 26.4436 68.2248 26.4808 68.1393C26.518 68.0537 26.5722 67.9768 26.6399 67.9132C26.7077 67.8495 26.7877 67.8005 26.875 67.769L28.1877 67.2844C28.3678 67.219 28.5664 67.226 28.7424 67.304C28.9183 67.382 29.0582 67.525 29.1329 67.7034L29.5348 68.6842C29.5709 68.771 29.5892 68.864 29.5886 68.9579C29.5881 69.0517 29.5687 69.1443 29.5316 69.2302C29.4946 69.3161 29.4407 69.3934 29.3731 69.4575C29.3055 69.5217 29.2256 69.5713 29.1383 69.6035L27.8255 70.0881C27.645 70.1523 27.4465 70.144 27.2711 70.0649C27.0956 69.9857 26.9567 69.8419 26.8831 69.6631L26.4769 68.6838ZM54.2714 57.7762C54.4515 57.7108 54.6501 57.7178 54.8261 57.7958C55.002 57.8738 55.1418 58.0168 55.2166 58.1952L55.6185 59.176C55.6538 59.2626 55.6715 59.3554 55.6705 59.4488C55.6695 59.5422 55.6498 59.6344 55.6126 59.7197C55.5755 59.8051 55.5216 59.8819 55.4542 59.9457C55.3868 60.0095 55.3073 60.0589 55.2203 60.0909L53.9076 60.5755C53.7274 60.6397 53.5293 60.6321 53.3537 60.5542C53.178 60.4764 53.0381 60.3341 52.9624 60.1565L52.5649 59.174C52.5291 59.0878 52.5109 58.9954 52.5114 58.9022C52.5119 58.809 52.5311 58.717 52.5679 58.6317C52.6047 58.5463 52.6583 58.4695 52.7254 58.4058C52.7926 58.342 52.8719 58.2927 52.9587 58.2608L54.2714 57.7762ZM52.0415 56.1803C51.8618 56.2455 51.6637 56.2381 51.4884 56.1598C51.3131 56.0814 51.1742 55.9381 51.1007 55.7597L50.6988 54.7789C50.6628 54.6923 50.6446 54.5994 50.6453 54.5058C50.646 54.4122 50.6655 54.3199 50.7028 54.2343C50.74 54.1488 50.7941 54.0718 50.8619 54.0082C50.9296 53.9445 51.0097 53.8955 51.097 53.864L52.4097 53.3794C52.5898 53.314 52.7884 53.3211 52.9643 53.399C53.1403 53.477 53.2801 53.62 53.3549 53.7984L53.7568 54.7793C53.7921 54.8659 53.8098 54.9586 53.8088 55.052C53.8078 55.1454 53.7881 55.2376 53.7509 55.3229C53.7138 55.4083 53.6599 55.4852 53.5925 55.5489C53.5251 55.6127 53.4456 55.6621 53.3586 55.6941L52.0415 56.1803ZM50.486 48.8148C50.6662 48.7506 50.8643 48.7582 51.04 48.836C51.2156 48.9139 51.3556 49.0561 51.4313 49.2337L51.8331 50.2146C51.8684 50.3012 51.8861 50.394 51.8851 50.4874C51.8841 50.5808 51.8644 50.6729 51.8273 50.7583C51.7901 50.8437 51.7362 50.9205 51.6688 50.9843C51.6014 51.0481 51.5219 51.0974 51.435 51.1295L50.1222 51.614C49.9421 51.6783 49.7439 51.6707 49.5683 51.5928C49.3926 51.515 49.2527 51.3727 49.177 51.1951L48.7751 50.2142C48.7398 50.1276 48.7222 50.0349 48.7232 49.9414C48.7242 49.848 48.7438 49.7559 48.781 49.6705C48.8181 49.5852 48.872 49.5083 48.9394 49.4445C49.0068 49.3808 49.0864 49.3314 49.1733 49.2994L50.486 48.8148ZM29.673 74.5002C29.4933 74.5641 29.2956 74.5562 29.1206 74.478C28.9456 74.3998 28.8067 74.2572 28.7322 74.0796L28.3303 73.0987C28.2943 73.0122 28.2761 72.9193 28.2768 72.8257C28.2775 72.7321 28.297 72.6397 28.3343 72.5542C28.3715 72.4686 28.4256 72.3917 28.4934 72.3281C28.5611 72.2644 28.6411 72.2153 28.7284 72.1839L30.0412 71.6993C30.2213 71.6339 30.4199 71.6409 30.5958 71.7189C30.7718 71.7969 30.9117 71.9399 30.9864 72.1182L31.3883 73.0991C31.4236 73.1857 31.4412 73.2785 31.4402 73.3719C31.4392 73.4653 31.4196 73.5574 31.3824 73.6428C31.3453 73.7282 31.2914 73.805 31.224 73.8688C31.1566 73.9326 31.0771 73.9819 30.9901 74.0139L29.673 74.5002ZM34.8495 72.5893C34.6694 72.6535 34.4713 72.6459 34.2956 72.568C34.12 72.4902 33.98 72.3479 33.9043 72.1703L33.5025 71.1894C33.4672 71.1028 33.4495 71.0101 33.4505 70.9167C33.4515 70.8233 33.4712 70.7311 33.5083 70.6458C33.5455 70.5604 33.5993 70.4835 33.6667 70.4198C33.7341 70.356 33.8137 70.3066 33.9006 70.2746L35.2134 69.79C35.3935 69.7258 35.5916 69.7334 35.7673 69.8113C35.9429 69.8891 36.0829 70.0313 36.1586 70.209L36.5604 71.1898C36.5957 71.2764 36.6134 71.3692 36.6124 71.4626C36.6114 71.556 36.5917 71.6482 36.5546 71.7335C36.5174 71.8189 36.4636 71.8957 36.3962 71.9595C36.3288 72.0233 36.2492 72.0727 36.1623 72.1047L34.8495 72.5893ZM40.1086 70.673C39.9289 70.737 39.7312 70.729 39.5562 70.6508C39.3812 70.5726 39.2422 70.4301 39.1678 70.2524L38.7659 69.2716C38.73 69.185 38.7117 69.0922 38.7124 68.9986C38.7131 68.905 38.7326 68.8126 38.7698 68.727C38.8071 68.6415 38.8612 68.5646 38.929 68.5009C38.9967 68.4373 39.0767 68.3882 39.1641 68.3567L40.4768 67.8721C40.6569 67.8067 40.8555 67.8138 41.0315 67.8917C41.2074 67.9697 41.3472 68.1127 41.422 68.2911L41.8239 69.272C41.8592 69.3586 41.8769 69.4513 41.8759 69.5447C41.8749 69.6381 41.8552 69.7303 41.818 69.8156C41.7809 69.901 41.727 69.9779 41.6596 70.0416C41.5922 70.1054 41.5126 70.1548 41.4257 70.1868L40.1086 70.673ZM45.2852 68.7621C45.105 68.8263 44.9069 68.8187 44.7312 68.7409C44.5556 68.663 44.4156 68.5208 44.3399 68.3432L43.9425 67.3607C43.9066 67.2745 43.8884 67.182 43.889 67.0888C43.8895 66.9956 43.9087 66.9036 43.9454 66.8183C43.9822 66.733 44.0358 66.6562 44.103 66.5924C44.1701 66.5287 44.2495 66.4794 44.3362 66.4474L45.6489 65.9629C45.8291 65.8987 46.0273 65.9062 46.2029 65.9841C46.3786 66.062 46.5185 66.2042 46.5941 66.3818L46.996 67.3627C47.0313 67.4493 47.049 67.5421 47.048 67.6355C47.047 67.7289 47.0273 67.821 46.9902 67.9064C46.953 67.9917 46.8991 68.0686 46.8318 68.1324C46.7644 68.1961 46.6848 68.2455 46.5979 68.2775L45.2852 68.7621ZM50.5923 66.8683C50.4125 66.9323 50.2148 66.9243 50.0398 66.8461C49.8649 66.7679 49.7259 66.6253 49.6515 66.4477L49.2496 65.4668C49.2143 65.3802 49.1966 65.2875 49.1976 65.194C49.1986 65.1006 49.2182 65.0085 49.2554 64.9231C49.2926 64.8378 49.3464 64.7609 49.4138 64.6971C49.4812 64.6334 49.5608 64.584 49.6477 64.552L50.9604 64.0674C51.1402 64.0034 51.3379 64.0113 51.5128 64.0896C51.6878 64.1678 51.8268 64.3103 51.9013 64.488L52.3031 65.4688C52.3384 65.5555 52.3561 65.6482 52.3551 65.7416C52.3541 65.835 52.3344 65.9272 52.2973 66.0125C52.2601 66.0979 52.2063 66.1748 52.1389 66.2385C52.0715 66.3023 51.9919 66.3517 51.905 66.3837L50.5923 66.8683ZM53.5678 48.435C53.5325 48.3484 53.5147 48.2557 53.5158 48.1623C53.5168 48.0689 53.5365 47.9767 53.5736 47.8913C53.6108 47.806 53.6646 47.7291 53.732 47.6654C53.7994 47.6016 53.879 47.5522 53.9659 47.5202L55.2786 47.0356C55.4588 46.9714 55.6569 46.979 55.8325 47.0568C56.0082 47.1347 56.1481 47.2769 56.2238 47.4546L56.6257 48.4354C56.6617 48.5222 56.68 48.6153 56.6795 48.7091C56.6789 48.8029 56.6596 48.8955 56.6225 48.9814C56.5855 49.0673 56.5315 49.1446 56.4639 49.2087C56.3963 49.2729 56.3165 49.3226 56.2292 49.3547L54.9164 49.8393C54.7355 49.9037 54.5366 49.8957 54.3605 49.8169C54.1844 49.7382 54.0445 49.5947 53.9696 49.4159L53.5678 48.435ZM55.4914 52.9997C55.4554 52.9131 55.4372 52.8202 55.4379 52.7266C55.4386 52.633 55.4581 52.5407 55.4954 52.4551C55.5326 52.3696 55.5867 52.2927 55.6545 52.229C55.7222 52.1653 55.8022 52.1163 55.8896 52.0848L57.2023 51.6002C57.3824 51.5348 57.581 51.5419 57.7569 51.6199C57.9329 51.6978 58.0727 51.8408 58.1475 52.0192L58.5494 53.0001C58.5847 53.0867 58.6023 53.1794 58.6013 53.2728C58.6003 53.3662 58.5807 53.4584 58.5435 53.5437C58.5064 53.6291 58.4525 53.706 58.3851 53.7697C58.3177 53.8335 58.2381 53.8829 58.1512 53.9149L56.8385 54.3995C56.6587 54.4635 56.4611 54.4555 56.2861 54.3773C56.1111 54.2991 55.9721 54.1565 55.8976 53.9789L55.4914 52.9997ZM58.7002 58.7963C58.5205 58.8615 58.3223 58.8541 58.1471 58.7758C57.9718 58.6974 57.8329 58.5541 57.7593 58.3757L57.3575 57.3948C57.3215 57.3083 57.3033 57.2154 57.304 57.1218C57.3047 57.0282 57.3242 56.9358 57.3614 56.8503C57.3987 56.7648 57.4528 56.6878 57.5206 56.6242C57.5883 56.5605 57.6683 56.5115 57.7556 56.48L59.0684 55.9954C59.2485 55.93 59.4471 55.937 59.623 56.015C59.799 56.093 59.9388 56.236 60.0136 56.4144L60.4155 57.3952C60.4508 57.4818 60.4684 57.5746 60.4674 57.668C60.4664 57.7614 60.4468 57.8535 60.4096 57.9389C60.3725 58.0243 60.3186 58.1011 60.2512 58.1649C60.1838 58.2287 60.1042 58.2781 60.0173 58.3101L58.7002 58.7963Z" style="fill:var(--sapContent_Illustrative_Color7)"/>
<path d="M17.8222 54.0322L33.1986 48.3561C33.3069 48.317 33.4059 48.256 33.4898 48.177C33.5736 48.0979 33.6406 48.0024 33.6865 47.8963C33.7324 47.7901 33.7564 47.6756 33.7569 47.5595C33.7574 47.4435 33.7345 47.3284 33.6896 47.2213C33.5947 46.9989 33.4188 46.8213 33.1982 46.7252C32.9776 46.6291 32.7293 46.6219 32.5047 46.7052L17.1326 52.3797C17.0244 52.4188 16.9253 52.4798 16.8415 52.5588C16.7576 52.6379 16.6906 52.7334 16.6447 52.8395C16.5988 52.9457 16.5748 53.0602 16.5743 53.1763C16.5738 53.2923 16.5967 53.4074 16.6416 53.5145C16.7362 53.7361 16.9113 53.9134 17.1309 54.0097C17.3505 54.106 17.5979 54.1141 17.8222 54.0322Z" style="fill:var(--sapContent_Illustrative_Color7)"/>
<path d="M22.7417 58.9412C22.7009 58.9556 22.6634 58.9782 22.6317 59.0077C22.6 59.0371 22.5746 59.0729 22.5572 59.1127C22.5398 59.1525 22.5306 59.1955 22.5303 59.2391C22.53 59.2827 22.5386 59.326 22.5555 59.3663L23.245 61.059C23.2796 61.1426 23.3447 61.2097 23.4268 61.2467C23.5089 61.2836 23.6018 61.2875 23.6862 61.2575L25.7122 60.5096C25.7534 60.4952 25.7911 60.4723 25.8231 60.4425C25.855 60.4126 25.8804 60.3764 25.8978 60.336C25.9151 60.2957 25.9239 60.2522 25.9237 60.2082C25.9236 60.1641 25.9144 60.1206 25.8967 60.0802L25.2072 58.3874C25.1718 58.305 25.1066 58.2392 25.0249 58.2031C24.9433 58.1671 24.8513 58.1636 24.7676 58.1933L22.7417 58.9412Z" style="fill:var(--sapContent_Illustrative_Color18)"/>
<path d="M27.9217 57.0393C27.8807 57.0537 27.8431 57.0764 27.8111 57.1059C27.7791 57.1354 27.7535 57.1712 27.7357 57.2111C27.7179 57.2509 27.7083 57.294 27.7075 57.3379C27.7067 57.3817 27.7148 57.4252 27.7311 57.4659L28.425 59.1571C28.4597 59.2406 28.5247 59.3078 28.6068 59.3447C28.6889 59.3816 28.7818 59.3855 28.8662 59.3556L30.8922 58.6077C30.933 58.5927 30.9703 58.5695 31.0018 58.5395C31.0334 58.5095 31.0585 58.4734 31.0758 58.4332C31.093 58.3931 31.102 58.3498 31.1022 58.306C31.1023 58.2621 31.0936 58.2187 31.0767 58.1782L30.3872 56.4855C30.3505 56.4031 30.2844 56.3375 30.2021 56.3019C30.1198 56.2662 30.0274 56.263 29.9432 56.293L27.9217 57.0393Z" style="fill:var(--sapContent_Illustrative_Color18)"/>
<path d="M33.1665 55.1235C33.1257 55.1386 33.0884 55.1618 33.0568 55.1917C33.0253 55.2217 33.0001 55.2579 32.9829 55.298C32.9656 55.3382 32.9567 55.3814 32.9565 55.4253C32.9563 55.4691 32.965 55.5126 32.9819 55.553L33.6715 57.2458C33.707 57.3286 33.7722 57.395 33.854 57.4318C33.9358 57.4686 34.0281 57.4731 34.1126 57.4443L36.1386 56.6964C36.1796 56.6813 36.2171 56.658 36.2489 56.628C36.2807 56.598 36.3062 56.5618 36.3238 56.5216C36.3414 56.4814 36.3508 56.438 36.3515 56.394C36.3521 56.35 36.344 56.3062 36.3276 56.2653L35.6337 54.5742C35.599 54.4906 35.5339 54.4235 35.4518 54.3865C35.3697 54.3496 35.2769 54.3457 35.1925 54.3757L33.1665 55.1235Z" style="fill:var(--sapContent_Illustrative_Color18)"/>
<path d="M38.3455 53.2214C38.3045 53.2365 38.267 53.2597 38.2352 53.2898C38.2034 53.3198 38.1779 53.3559 38.1603 53.3961C38.1427 53.4363 38.1333 53.4797 38.1326 53.5238C38.132 53.5678 38.1402 53.6115 38.1566 53.6524L38.8504 55.3436C38.8851 55.4271 38.9502 55.4943 39.0323 55.5312C39.1144 55.5682 39.2072 55.572 39.2917 55.5421L41.3176 54.7942C41.3584 54.7792 41.3957 54.756 41.4273 54.726C41.4588 54.696 41.484 54.6599 41.5013 54.6197C41.5185 54.5796 41.5274 54.5363 41.5276 54.4925C41.5278 54.4487 41.5191 54.4052 41.5022 54.3647L40.8127 52.672C40.7771 52.5892 40.7119 52.5227 40.6301 52.4859C40.5483 52.4491 40.456 52.4447 40.3715 52.4735L38.3455 53.2214Z" style="fill:var(--sapContent_Illustrative_Color18)"/>
<path d="M43.6528 51.3277C43.612 51.3427 43.5747 51.3659 43.5431 51.3958C43.5116 51.4258 43.4864 51.462 43.4692 51.5021C43.4519 51.5423 43.4429 51.5855 43.4428 51.6294C43.4426 51.6732 43.4513 51.7167 43.4683 51.7571L44.1578 53.4499C44.1944 53.5322 44.2605 53.5978 44.3428 53.6335C44.4251 53.6692 44.5176 53.6723 44.6017 53.6423L46.6277 52.8945C46.6681 52.8796 46.7051 52.8566 46.7364 52.827C46.7678 52.7974 46.7929 52.7618 46.8103 52.7221C46.8276 52.6825 46.8369 52.6397 46.8375 52.5963C46.8381 52.5529 46.8301 52.5097 46.8138 52.4694L46.12 50.7783C46.0853 50.6947 46.0203 50.6276 45.9382 50.5906C45.8561 50.5537 45.7632 50.5498 45.6788 50.5798L43.6528 51.3277Z" style="fill:var(--sapContent_Illustrative_Color18)"/>
<path d="M51.8033 50.9939C51.8441 50.9796 51.8815 50.957 51.9132 50.9275C51.945 50.898 51.9703 50.8623 51.9877 50.8224C52.0052 50.7826 52.0143 50.7396 52.0146 50.696C52.0149 50.6524 52.0064 50.6091 51.9895 50.5689L51.2999 48.8761C51.2653 48.7926 51.2002 48.7254 51.1181 48.6885C51.036 48.6515 50.9432 48.6476 50.8587 48.6776L48.8328 49.4255C48.7916 49.4399 48.7538 49.4628 48.7219 49.4927C48.6899 49.5226 48.6645 49.5588 48.6472 49.5991C48.6298 49.6394 48.621 49.683 48.6212 49.727C48.6213 49.771 48.6305 49.8146 48.6482 49.855L49.3377 51.5477C49.3732 51.6301 49.4383 51.696 49.52 51.732C49.6016 51.7681 49.6936 51.7716 49.7773 51.7418L51.8033 50.9939Z" style="fill:var(--sapContent_Illustrative_Color18)"/>
<path d="M56.0792 47.1017C56.0445 47.0182 55.9794 46.951 55.8974 46.9141C55.8153 46.8771 55.7224 46.8733 55.638 46.9032L53.612 47.6511C53.5708 47.6655 53.533 47.6884 53.5011 47.7183C53.4692 47.7482 53.4438 47.7844 53.4265 47.8247C53.4091 47.865 53.4003 47.9085 53.4005 47.9526C53.4006 47.9966 53.4098 48.0402 53.4275 48.0806L54.117 49.7733C54.1526 49.8561 54.2177 49.9226 54.2995 49.9594C54.3813 49.9962 54.4737 50.0006 54.5582 49.9718L56.5842 49.2239C56.625 49.2089 56.6622 49.1857 56.6938 49.1558C56.7253 49.1258 56.7505 49.0896 56.7677 49.0495C56.785 49.0093 56.794 48.966 56.7941 48.9222C56.7943 48.8784 56.7856 48.8349 56.7687 48.7945L56.0792 47.1017Z" style="fill:var(--sapContent_Illustrative_Color18)"/>
<path d="M27.636 65.0745C27.6764 65.0589 27.7132 65.0354 27.7444 65.0053C27.7757 64.9752 27.8006 64.9391 27.8177 64.8992C27.8349 64.8592 27.844 64.8162 27.8445 64.7725C27.845 64.7289 27.8368 64.6855 27.8205 64.645L27.1266 62.9539C27.092 62.8703 27.0269 62.8031 26.9448 62.7662C26.8628 62.7293 26.7699 62.7254 26.6854 62.7554L24.6595 63.5033C24.6191 63.5188 24.5822 63.5423 24.551 63.5724C24.5198 63.6025 24.4949 63.6386 24.4777 63.6785C24.4606 63.7185 24.4515 63.7615 24.451 63.8052C24.4505 63.8488 24.4587 63.8922 24.4749 63.9327L25.1644 65.6255C25.2003 65.709 25.2663 65.7759 25.3491 65.8124C25.4318 65.849 25.5252 65.8525 25.61 65.8223L27.636 65.0745Z" style="fill:var(--sapContent_Illustrative_Color18)"/>
<path d="M32.8115 63.1739C32.8523 63.1589 32.8896 63.1357 32.9212 63.1057C32.9527 63.0757 32.9778 63.0396 32.9951 62.9995C33.0123 62.9593 33.0213 62.916 33.0215 62.8722C33.0217 62.8284 33.013 62.7849 32.9961 62.7444L32.3066 61.0517C32.2719 60.9681 32.2068 60.901 32.1247 60.8641C32.0426 60.8271 31.9498 60.8232 31.8654 60.8532L29.8394 61.6011C29.7986 61.6161 29.7612 61.6393 29.7297 61.6693C29.6981 61.6993 29.6729 61.7354 29.6557 61.7756C29.6385 61.8157 29.6295 61.859 29.6294 61.9028C29.6292 61.9466 29.6378 61.9901 29.6548 62.0306L30.3443 63.7233C30.3798 63.8061 30.445 63.8726 30.5268 63.9094C30.6086 63.9461 30.701 63.9506 30.7855 63.9218L32.8115 63.1739Z" style="fill:var(--sapContent_Illustrative_Color18)"/>
<path d="M38.062 61.2609C38.1024 61.2454 38.1392 61.2218 38.1704 61.1918C38.2016 61.1617 38.2266 61.1256 38.2437 61.0856C38.2609 61.0456 38.27 61.0026 38.2705 60.959C38.271 60.9153 38.2628 60.872 38.2465 60.8314L37.5526 59.1403C37.518 59.0568 37.4529 58.9896 37.3708 58.9527C37.2887 58.9157 37.1959 58.9119 37.1114 58.9418L35.0854 59.6897C35.0447 59.7047 35.0073 59.7279 34.9758 59.7579C34.9442 59.7879 34.919 59.824 34.9018 59.8642C34.8846 59.9043 34.8756 59.9476 34.8755 59.9914C34.8753 60.0353 34.8839 60.0787 34.9009 60.1192L35.5948 61.8103C35.6294 61.8939 35.6945 61.961 35.7766 61.9979C35.8587 62.0349 35.9515 62.0388 36.036 62.0088L38.062 61.2609Z" style="fill:var(--sapContent_Illustrative_Color18)"/>
<path d="M43.2365 59.3604C43.2775 59.3453 43.315 59.322 43.3468 59.292C43.3786 59.262 43.4041 59.2258 43.4217 59.1856C43.4393 59.1454 43.4487 59.102 43.4494 59.058C43.45 59.014 43.4418 58.9702 43.4254 58.9293L42.7315 57.2382C42.6969 57.1546 42.6318 57.0875 42.5497 57.0505C42.4676 57.0136 42.3748 57.0097 42.2903 57.0397L40.2643 57.7876C40.2231 57.802 40.1854 57.8249 40.1534 57.8548C40.1215 57.8846 40.0961 57.9209 40.0788 57.9612C40.0615 58.0015 40.0526 58.045 40.0528 58.089C40.053 58.1331 40.0622 58.1767 40.0798 58.217L40.7694 59.9098C40.8049 59.9926 40.87 60.0591 40.9518 60.0959C41.0336 60.1327 41.126 60.1371 41.2105 60.1083L43.2365 59.3604Z" style="fill:var(--sapContent_Illustrative_Color18)"/>
<path d="M48.5467 57.4606C48.5871 57.4457 48.6241 57.4228 48.6554 57.3932C48.6868 57.3636 48.7119 57.3279 48.7292 57.2883C48.7466 57.2486 48.7558 57.2058 48.7564 57.1624C48.7571 57.119 48.749 57.0759 48.7328 57.0356L48.039 55.3444C48.0052 55.2601 47.9402 55.1922 47.8578 55.1551C47.7754 55.118 47.6821 55.1147 47.5978 55.1459L45.5718 55.8938C45.531 55.9088 45.4936 55.932 45.4621 55.962C45.4305 55.992 45.4054 56.0282 45.3881 56.0683C45.3709 56.1084 45.3619 56.1517 45.3618 56.1955C45.3616 56.2393 45.3703 56.2828 45.3872 56.3233L46.0811 58.0144C46.1156 58.0975 46.1807 58.1642 46.2626 58.2003C46.3446 58.2365 46.437 58.2394 46.5207 58.2085L48.5467 57.4606Z" style="fill:var(--sapContent_Illustrative_Color18)"/>
<path d="M50.7475 53.9934C50.7067 54.0084 50.6694 54.0316 50.6379 54.0616C50.6063 54.0916 50.5812 54.1278 50.5639 54.1679C50.5467 54.208 50.5377 54.2513 50.5375 54.2951C50.5373 54.339 50.546 54.3824 50.563 54.4229L51.2525 56.1157C51.2891 56.198 51.3552 56.2636 51.4375 56.2993C51.5199 56.3349 51.6123 56.3381 51.6964 56.3081L53.7181 55.5618C53.759 55.5474 53.7966 55.5248 53.8286 55.4952C53.8605 55.4657 53.8862 55.4299 53.904 55.3901C53.9218 55.3502 53.9314 55.3071 53.9322 55.2633C53.933 55.2194 53.9249 55.1759 53.9086 55.1352L53.2147 53.444C53.18 53.3605 53.1149 53.2933 53.0328 53.2564C52.9507 53.2195 52.8579 53.2156 52.7735 53.2455L50.7475 53.9934Z" style="fill:var(--sapContent_Illustrative_Color18)"/>
<path d="M57.9989 51.6679C57.9643 51.5843 57.8992 51.5172 57.8171 51.4803C57.735 51.4433 57.6421 51.4395 57.5577 51.4694L55.5317 52.2173C55.4909 52.2323 55.4536 52.2555 55.4221 52.2855C55.3905 52.3155 55.3653 52.3516 55.3481 52.3918C55.3308 52.4319 55.3219 52.4752 55.3217 52.519C55.3216 52.5628 55.3302 52.6063 55.3472 52.6468L56.0367 54.3395C56.0733 54.4219 56.1394 54.4875 56.2217 54.5231C56.304 54.5588 56.3965 54.562 56.4806 54.532L58.5066 53.7841C58.547 53.7692 58.584 53.7463 58.6154 53.7167C58.6467 53.6871 58.6718 53.6514 58.6892 53.6117C58.7065 53.5721 58.7158 53.5293 58.7164 53.4859C58.717 53.4425 58.709 53.3994 58.6928 53.359L57.9989 51.6679Z" style="fill:var(--sapContent_Illustrative_Color18)"/>
<path d="M28.9931 67.3489C28.9584 67.2654 28.8934 67.1982 28.8113 67.1613C28.7292 67.1244 28.6363 67.1205 28.5519 67.1505L26.5434 67.8919C26.5026 67.9069 26.4653 67.9301 26.4338 67.9601C26.4022 67.99 26.3771 68.0262 26.3598 68.0663C26.3426 68.1065 26.3336 68.1498 26.3334 68.1936C26.3332 68.2374 26.3419 68.2808 26.3589 68.3213L27.0483 70.0141C27.0842 70.0976 27.1503 70.1645 27.233 70.201C27.3158 70.2376 27.4091 70.2412 27.4939 70.211L29.5199 69.4631C29.5603 69.4475 29.5972 69.424 29.6284 69.3939C29.6596 69.3638 29.6845 69.3278 29.7017 69.2878C29.7189 69.2478 29.7279 69.2048 29.7284 69.1611C29.7289 69.1175 29.7208 69.0741 29.7045 69.0336L28.9931 67.3489Z" style="fill:var(--sapContent_Illustrative_Color18)"/>
<path d="M34.1727 65.4467C34.1372 65.3639 34.072 65.2975 33.9902 65.2607C33.9084 65.2239 33.816 65.2194 33.7315 65.2482L31.7056 65.9961C31.6648 66.0111 31.6274 66.0343 31.5959 66.0643C31.5643 66.0943 31.5392 66.1304 31.5219 66.1706C31.5047 66.2107 31.4957 66.254 31.4956 66.2978C31.4954 66.3416 31.504 66.3851 31.521 66.4256L32.2105 68.1183C32.2461 68.2011 32.3113 68.2676 32.393 68.3044C32.4748 68.3412 32.5672 68.3456 32.6517 68.3168L34.6777 67.5689C34.7185 67.5539 34.7558 67.5307 34.7874 67.5007C34.8189 67.4707 34.8441 67.4346 34.8613 67.3945C34.8786 67.3543 34.8875 67.311 34.8877 67.2672C34.8878 67.2234 34.8792 67.1799 34.8622 67.1395L34.1727 65.4467Z" style="fill:var(--sapContent_Illustrative_Color18)"/>
<path d="M39.4188 63.5356C39.3842 63.452 39.3191 63.3849 39.237 63.3479C39.1549 63.311 39.0621 63.3071 38.9777 63.3371L36.9517 64.085C36.9109 64.1 36.8735 64.1232 36.842 64.1532C36.8104 64.1832 36.7853 64.2193 36.7681 64.2594C36.7508 64.2996 36.7418 64.3429 36.7417 64.3867C36.7415 64.4305 36.7501 64.474 36.7671 64.5144L37.461 66.2056C37.4955 66.2887 37.5606 66.3553 37.6425 66.3915C37.7244 66.4277 37.8169 66.4306 37.9005 66.3996L39.9265 65.6518C39.9669 65.6369 40.0039 65.6139 40.0353 65.5843C40.0667 65.5547 40.0917 65.5191 40.1091 65.4794C40.1265 65.4398 40.1358 65.397 40.1364 65.3536C40.137 65.3102 40.129 65.267 40.1127 65.2267L39.4188 63.5356Z" style="fill:var(--sapContent_Illustrative_Color18)"/>
<path d="M44.6154 61.6271C44.5807 61.5435 44.5156 61.4764 44.4335 61.4394C44.3514 61.4025 44.2586 61.3986 44.1742 61.4286L42.1482 62.1765C42.107 62.1909 42.0692 62.2138 42.0373 62.2436C42.0053 62.2735 41.9799 62.3098 41.9626 62.3501C41.9453 62.3904 41.9364 62.4339 41.9366 62.478C41.9368 62.522 41.946 62.5656 41.9636 62.606L42.6531 64.2987C42.6886 64.3811 42.7538 64.4469 42.8354 64.483C42.917 64.519 43.0091 64.5225 43.0928 64.4928L45.1187 63.7449C45.1595 63.7306 45.1969 63.7079 45.2287 63.6784C45.2604 63.649 45.2858 63.6132 45.3032 63.5734C45.3206 63.5336 45.3298 63.4905 45.3301 63.4469C45.3304 63.4033 45.3218 63.3601 45.3049 63.3198L44.6154 61.6271Z" style="fill:var(--sapContent_Illustrative_Color18)"/>
<path d="M49.8858 59.7417C49.8512 59.6586 49.7862 59.5919 49.7042 59.5558C49.6223 59.5196 49.5298 59.5167 49.4462 59.5476L47.4202 60.2955C47.3798 60.3104 47.3428 60.3333 47.3115 60.3629C47.2801 60.3925 47.2551 60.4282 47.2377 60.4678C47.2203 60.5075 47.2111 60.5502 47.2105 60.5936C47.2098 60.6371 47.2178 60.6802 47.2341 60.7205L47.9296 62.4161C47.9641 62.4992 48.0292 62.5658 48.1111 62.602C48.1931 62.6382 48.2855 62.6411 48.3691 62.6102L50.3951 61.8623C50.4355 61.8474 50.4725 61.8245 50.5038 61.7949C50.5352 61.7653 50.5603 61.7296 50.5776 61.69C50.595 61.6503 50.6043 61.6075 50.6049 61.5641C50.6055 61.5207 50.5975 61.4776 50.5813 61.4372L49.8858 59.7417Z" style="fill:var(--sapContent_Illustrative_Color18)"/>
<path d="M55.5882 59.9552C55.6292 59.9408 55.6667 59.9181 55.6987 59.8886C55.7307 59.8591 55.7564 59.8233 55.7742 59.7834C55.792 59.7435 55.8015 59.7004 55.8023 59.6566C55.8031 59.6128 55.7951 59.5692 55.7787 59.5285L55.0832 57.833C55.0477 57.7506 54.9826 57.6847 54.9009 57.6487C54.8193 57.6126 54.7273 57.6091 54.6436 57.6389L52.6176 58.3868C52.5768 58.4011 52.5394 58.4237 52.5077 58.4532C52.4759 58.4827 52.4506 58.5184 52.4332 58.5582C52.4157 58.5981 52.4066 58.6411 52.4063 58.6847C52.406 58.7283 52.4146 58.7716 52.4315 58.8118L53.1226 60.509C53.158 60.5914 53.2232 60.6573 53.3048 60.6933C53.3865 60.7293 53.4785 60.7328 53.5622 60.7031L55.5882 59.9552Z" style="fill:var(--sapContent_Illustrative_Color18)"/>
<path d="M57.397 56.6126C57.3562 56.6276 57.3188 56.6508 57.2873 56.6808C57.2557 56.7108 57.2306 56.7469 57.2133 56.787C57.1961 56.8272 57.1871 56.8705 57.187 56.9143C57.1868 56.9581 57.1955 57.0016 57.2124 57.042L57.9019 58.7348C57.9386 58.8171 58.0047 58.8827 58.087 58.9184C58.1693 58.9541 58.2617 58.9572 58.3459 58.9272L60.3719 58.1794C60.4123 58.1645 60.4493 58.1415 60.4806 58.1119C60.512 58.0823 60.537 58.0467 60.5544 58.007C60.5718 57.9674 60.581 57.9246 60.5816 57.8812C60.5823 57.8378 60.5742 57.7946 60.558 57.7543L59.8642 56.0632C59.8295 55.9796 59.7644 55.9125 59.6823 55.8755C59.6002 55.8386 59.5074 55.8347 59.423 55.8647L57.397 56.6126Z" style="fill:var(--sapContent_Illustrative_Color18)"/>
<path d="M30.8505 71.7621C30.8158 71.6786 30.7507 71.6114 30.6686 71.5745C30.5865 71.5376 30.4937 71.5337 30.4093 71.5636L28.3833 72.3115C28.3425 72.3265 28.3052 72.3498 28.2736 72.3797C28.2421 72.4097 28.2169 72.4459 28.1996 72.486C28.1824 72.5261 28.1735 72.5694 28.1733 72.6133C28.1731 72.6571 28.1818 72.7005 28.1987 72.741L28.8882 74.4338C28.9249 74.5161 28.991 74.5817 29.0733 74.6174C29.1556 74.6531 29.2481 74.6562 29.3322 74.6262L31.3582 73.8783C31.3986 73.8634 31.4356 73.8405 31.4669 73.8109C31.4983 73.7813 31.5234 73.7456 31.5407 73.706C31.5581 73.6664 31.5673 73.6236 31.568 73.5802C31.5686 73.5368 31.5606 73.4936 31.5444 73.4533L30.8505 71.7621Z" style="fill:var(--sapContent_Illustrative_Color18)"/>
<path d="M36.0303 69.8603C35.9957 69.7767 35.9306 69.7096 35.8485 69.6726C35.7664 69.6357 35.6736 69.6318 35.5892 69.6618L33.5632 70.4096C33.522 70.4241 33.4842 70.447 33.4523 70.4768C33.4203 70.5067 33.395 70.5429 33.3776 70.5832C33.3603 70.6236 33.3514 70.6671 33.3516 70.7111C33.3518 70.7552 33.361 70.7987 33.3787 70.8391L34.0681 72.5319C34.1036 72.6142 34.1687 72.6801 34.2504 72.7162C34.332 72.7522 34.424 72.7557 34.5077 72.7259L36.5337 71.978C36.5745 71.9637 36.6119 71.9411 36.6436 71.9116C36.6754 71.8821 36.7007 71.8464 36.7182 71.8066C36.7356 71.7668 36.7448 71.7237 36.745 71.6801C36.7453 71.6365 36.7368 71.5933 36.7199 71.553L36.0303 69.8603Z" style="fill:var(--sapContent_Illustrative_Color18)"/>
<path d="M41.2762 67.9487C41.2415 67.8651 41.1765 67.798 41.0944 67.761C41.0123 67.7241 40.9194 67.7202 40.835 67.7502L38.809 68.4981C38.7682 68.5131 38.731 68.5363 38.6994 68.5663C38.6678 68.5962 38.6427 68.6324 38.6254 68.6725C38.6082 68.7127 38.5992 68.756 38.599 68.7998C38.5989 68.8436 38.6076 68.8871 38.6245 68.9275L39.314 70.6203C39.3507 70.7026 39.4168 70.7682 39.4991 70.8039C39.5814 70.8396 39.6738 70.8427 39.758 70.8127L41.7664 70.0713C41.8068 70.0564 41.8438 70.0335 41.8752 70.0039C41.9065 69.9743 41.9316 69.9386 41.949 69.899C41.9663 69.8594 41.9756 69.8166 41.9762 69.7732C41.9768 69.7298 41.9688 69.6866 41.9526 69.6463L41.2762 67.9487Z" style="fill:var(--sapContent_Illustrative_Color18)"/>
<path d="M46.4562 66.0467C46.4215 65.9632 46.3564 65.896 46.2743 65.8591C46.1922 65.8222 46.0994 65.8183 46.015 65.8483L43.989 66.5961C43.9478 66.6106 43.91 66.6335 43.8781 66.6633C43.8462 66.6932 43.8207 66.7294 43.8034 66.7698C43.7861 66.8101 43.7772 66.8536 43.7774 66.8976C43.7776 66.9417 43.7868 66.9852 43.8044 67.0256L44.494 68.7184C44.5294 68.8007 44.5946 68.8666 44.6762 68.9027C44.7578 68.9387 44.8498 68.9422 44.9335 68.9124L46.9595 68.1646C47.0003 68.1502 47.0378 68.1276 47.0695 68.0981C47.1012 68.0686 47.1265 68.0329 47.144 67.9931C47.1614 67.9533 47.1705 67.9102 47.1708 67.8666C47.1711 67.823 47.1626 67.7798 47.1457 67.7395L46.4562 66.0467Z" style="fill:var(--sapContent_Illustrative_Color18)"/>
<path d="M51.7647 64.1572C51.7302 64.0741 51.6652 64.0074 51.5832 63.9712C51.5013 63.9351 51.4088 63.9322 51.3252 63.9631L49.2992 64.711C49.2588 64.7259 49.2218 64.7488 49.1904 64.7784C49.159 64.808 49.134 64.8437 49.1166 64.8833C49.0992 64.923 49.09 64.9658 49.0894 65.0092C49.0887 65.0526 49.0967 65.0957 49.113 65.1361L49.8069 66.8272C49.8406 66.9115 49.9056 66.9794 49.988 67.0165C50.0704 67.0536 50.1637 67.0569 50.2481 67.0257L52.296 66.2697C52.3368 66.2547 52.374 66.2315 52.4056 66.2015C52.4372 66.1716 52.4623 66.1354 52.4796 66.0953C52.4968 66.0551 52.5058 66.0118 52.506 65.968C52.5061 65.9242 52.4974 65.8807 52.4805 65.8403L51.7647 64.1572Z" style="fill:var(--sapContent_Illustrative_Color18)"/>
<path d="M31.0731 76.2606C30.8758 74.8192 30.7642 73.3436 30.7642 71.8508C30.7642 54.3059 44.9889 40.0728 62.5423 40.0728C75.2397 40.0728 86.1956 47.5197 91.2832 58.2954C94.3632 56.8626 97.7949 56.0647 101.415 56.0647C113.375 56.0647 123.301 64.7899 125.172 76.2263C134.257 76.7239 141.481 84.2566 141.481 93.4708C141.481 103.011 133.751 110.741 124.211 110.741H32.6346C23.0943 110.741 15.3643 103.011 15.3643 93.4708C15.3643 84.4625 22.2621 77.067 31.0645 76.2777L31.0731 76.2606Z" style="fill:var(--sapContent_Illustrative_Color8)"/>
<path d="M24.874 143.643C24.874 142.787 25.568 142.093 26.424 142.093H127.693C128.549 142.093 129.243 142.787 129.243 143.643V144.281H24.874V143.643Z" style="fill:var(--sapContent_Illustrative_Color2)"/>
<path d="M27.0163 146.146C27.3003 146.399 27.6678 146.539 28.0486 146.539H126.068C126.449 146.539 126.817 146.399 127.101 146.146L129.243 144.233H24.874L27.0163 146.146Z" style="fill:var(--sapContent_Illustrative_Color13)"/>
<rect x="35.1455" y="86.2629" width="83.8259" height="55.9279" rx="3.09996" style="fill:var(--sapContent_Illustrative_Color2)"/>
<path d="M77.0582 88.1341C77.3546 88.1341 77.5949 87.8934 77.5949 87.5964C77.5949 87.2995 77.3546 87.0588 77.0582 87.0588C76.7618 87.0588 76.5215 87.2995 76.5215 87.5964C76.5215 87.8934 76.7618 88.1341 77.0582 88.1341Z" style="fill:var(--sapContent_Illustrative_Color14)"/>
<rect x="37.917" y="88.8694" width="78.2835" height="50.715" rx="2.06664" style="fill:var(--sapContent_Illustrative_Color7)"/>
<path d="M70.9873 141.782H83.1306V142.154C83.1306 142.724 82.6679 143.187 82.0973 143.187H72.0206C71.4499 143.187 70.9873 142.724 70.9873 142.154V141.782Z" style="fill:var(--sapContent_Illustrative_Color14)"/>
<path fill-rule="evenodd" clip-rule="evenodd" d="M49.0197 97.4087C49.4759 97.4087 49.8457 97.7785 49.8457 98.2347V131.254C49.8457 131.71 49.4759 132.08 49.0197 132.08C48.5636 132.08 48.1938 131.71 48.1938 131.254V98.2347C48.1938 97.7785 48.5636 97.4087 49.0197 97.4087Z" style="fill:var(--sapContent_Illustrative_Color20)"/>
<rect x="48.1934" y="130.575" width="57.7277" height="1.65187" rx="0.825935" style="fill:var(--sapContent_Illustrative_Color20)"/>
<rect x="55.501" y="109.618" width="6.2822" height="16.8563" rx="1.16737" style="fill:var(--sapContent_Illustrative_Color20)"/>
<rect x="64.8965" y="100.59" width="6.2822" height="25.884" rx="1.16737" style="fill:var(--sapContent_Illustrative_Color3)"/>
<rect x="74.291" y="117.619" width="6.2822" height="8.855" rx="1.16737" style="fill:var(--sapContent_Illustrative_Color19)"/>
<rect x="83.6865" y="109.618" width="6.2822" height="16.8563" rx="1.16737" style="fill:var(--sapContent_Illustrative_Color2)"/>
<rect x="93.082" y="103.911" width="6.2822" height="22.5626" rx="1.16737" style="fill:var(--sapContent_Illustrative_Color20)"/>
</svg>
