<svg width="128" height="129" viewBox="0 0 128 129" fill="none" xmlns="http://www.w3.org/2000/svg" id="tnt-Spot-NoApplications">
<circle cx="64" cy="64.7703" r="64" style="fill:var(--sapContent_Illustrative_Color7)"/>
<path fill-rule="evenodd" clip-rule="evenodd" d="M27.0267 13.518C27.0863 12.8396 27.9591 12.6034 28.3526 13.1592L71.3383 73.8695C71.6985 74.3783 71.2981 75.0757 70.6771 75.0211L22.7265 70.8072C22.324 70.7718 22.0264 70.4168 22.0618 70.0143L27.0267 13.518ZM35.8011 40.6902C35.4076 40.1344 34.5348 40.3705 34.4752 41.0489L32.7146 61.0826C32.6793 61.4851 32.9769 61.84 33.3794 61.8754L50.3827 63.3697C51.0037 63.4243 51.4041 62.7269 51.0439 62.2181L35.8011 40.6902Z" style="fill:var(--sapContent_Illustrative_Color20)"/>
<path d="M70.9969 74.9766L72.5704 74.3117L71.0112 72.4206L70.9969 74.9766Z" style="fill:var(--sapContent_Illustrative_Color20)"/>
<path d="M27.4286 12.9277L29.002 12.2629L29.2713 14.6991L27.4286 12.9277Z" style="fill:var(--sapContent_Illustrative_Color20)"/>
<path fill-rule="evenodd" clip-rule="evenodd" d="M28.5326 12.8854C28.5922 12.207 29.465 11.9709 29.8585 12.5267L72.8441 73.2369C73.2044 73.7457 72.804 74.4431 72.183 74.3885L24.2324 70.1746C23.8299 70.1392 23.5322 69.7843 23.5676 69.3818L28.5326 12.8854ZM37.307 40.0576C36.9135 39.5018 36.0407 39.7379 35.9811 40.4163L34.2205 60.45C34.1851 60.8525 34.4828 61.2075 34.8853 61.2429L51.8886 62.7371C52.5096 62.7917 52.91 62.0943 52.5497 61.5855L37.307 40.0576Z" style="fill:var(--sapContent_Illustrative_Color19)"/>
<path fill-rule="evenodd" clip-rule="evenodd" d="M27.6953 25.5011C27.7153 25.5077 27.7364 25.5123 27.7586 25.5137L30.8469 25.7683C30.9994 25.7804 31.1329 25.6677 31.1451 25.5151C31.1583 25.363 31.047 25.2287 30.8925 25.2171L27.8041 24.9631C27.6518 24.9504 27.5181 25.0637 27.5061 25.2157C27.4948 25.3458 27.576 25.462 27.6953 25.5011Z" style="fill:var(--sapContent_Illustrative_Color8)"/>
<path fill-rule="evenodd" clip-rule="evenodd" d="M27.4178 28.6457C27.4377 28.6522 27.4589 28.6568 27.4811 28.6583L30.5693 28.9128C30.7219 28.925 30.8554 28.8122 30.8676 28.6597C30.8808 28.5075 30.7705 28.3719 30.615 28.3616L27.5266 28.1076C27.3743 28.0949 27.2405 28.2082 27.2285 28.3602C27.2173 28.4904 27.2985 28.6066 27.4178 28.6457Z" style="fill:var(--sapContent_Illustrative_Color8)"/>
<path fill-rule="evenodd" clip-rule="evenodd" d="M27.0961 32.3152C27.116 32.3218 27.1372 32.3264 27.1594 32.3278L32.5695 32.7731C32.7219 32.7858 32.8556 32.6725 32.8676 32.5205C32.8808 32.3683 32.7696 32.2336 32.6152 32.2219L27.2049 31.7772C27.0525 31.7645 26.9188 31.8778 26.9068 32.0298C26.8956 32.1599 26.9768 32.2761 27.0961 32.3152Z" style="fill:var(--sapContent_Illustrative_Color8)"/>
<path fill-rule="evenodd" clip-rule="evenodd" d="M26.7753 35.972C26.7953 35.9785 26.8165 35.9831 26.8387 35.9846L29.9269 36.2391C30.0794 36.2513 30.213 36.1385 30.2251 35.986C30.2382 35.8343 30.1272 35.699 29.9725 35.6879L26.8842 35.4339C26.7318 35.4212 26.5981 35.5345 26.5861 35.6865C26.5749 35.8167 26.6561 35.9329 26.7753 35.972Z" style="fill:var(--sapContent_Illustrative_Color8)"/>
<path fill-rule="evenodd" clip-rule="evenodd" d="M26.498 39.116C26.5179 39.1225 26.5391 39.1272 26.5613 39.1286L29.6495 39.3831C29.8021 39.3953 29.9356 39.2826 29.9478 39.13C29.9608 38.9784 29.8498 38.8431 29.6952 38.832L26.6068 38.578C26.4545 38.5653 26.3207 38.6786 26.3087 38.8306C26.2975 38.9607 26.3787 39.0769 26.498 39.116Z" style="fill:var(--sapContent_Illustrative_Color8)"/>
<path fill-rule="evenodd" clip-rule="evenodd" d="M26.2225 42.2609C26.2424 42.2674 26.2636 42.272 26.2858 42.2735L29.3742 42.5275C29.5267 42.5397 29.6603 42.4269 29.6724 42.2744C29.6855 42.1227 29.5748 41.9881 29.4199 41.9763L26.3313 41.7229C26.1789 41.7102 26.0452 41.8234 26.0332 41.9754C26.022 42.1056 26.1032 42.2218 26.2225 42.2609Z" style="fill:var(--sapContent_Illustrative_Color8)"/>
<path fill-rule="evenodd" clip-rule="evenodd" d="M25.9453 45.4047C25.9653 45.4112 25.9864 45.4158 26.0086 45.4173L29.0969 45.6718C29.2494 45.684 29.3829 45.5712 29.3951 45.4187C29.4083 45.2665 29.2959 45.1319 29.1425 45.1207L26.0541 44.8666C25.9018 44.854 25.7681 44.9672 25.7561 45.1192C25.7448 45.2494 25.826 45.3656 25.9453 45.4047Z" style="fill:var(--sapContent_Illustrative_Color8)"/>
<path fill-rule="evenodd" clip-rule="evenodd" d="M25.6234 49.0747C25.6433 49.0812 25.6645 49.0858 25.6867 49.0873L31.0968 49.5326C31.2492 49.5453 31.3829 49.432 31.3949 49.28C31.4081 49.1278 31.2976 48.9927 31.1425 48.9814L25.7322 48.5366C25.5798 48.5239 25.4461 48.6372 25.4341 48.7892C25.4229 48.9194 25.5041 49.0356 25.6234 49.0747Z" style="fill:var(--sapContent_Illustrative_Color8)"/>
<path fill-rule="evenodd" clip-rule="evenodd" d="M25.3026 52.7314C25.3226 52.7379 25.3438 52.7426 25.366 52.744L28.4542 52.9986C28.6067 53.0107 28.7402 52.898 28.7524 52.7454C28.7655 52.5938 28.6551 52.4581 28.4998 52.4474L25.4114 52.1934C25.2591 52.1807 25.1254 52.294 25.1134 52.446C25.1021 52.5761 25.1833 52.6923 25.3026 52.7314Z" style="fill:var(--sapContent_Illustrative_Color8)"/>
<path fill-rule="evenodd" clip-rule="evenodd" d="M25.0253 55.876C25.0452 55.8825 25.0664 55.8871 25.0886 55.8886L28.1768 56.1431C28.3294 56.1553 28.4629 56.0425 28.4751 55.89C28.4883 55.7378 28.3778 55.6027 28.2225 55.5919L25.1341 55.3379C24.9817 55.3252 24.848 55.4385 24.836 55.5905C24.8248 55.7207 24.906 55.8369 25.0253 55.876Z" style="fill:var(--sapContent_Illustrative_Color8)"/>
<path fill-rule="evenodd" clip-rule="evenodd" d="M24.748 59.0201C24.7679 59.0266 24.7891 59.0312 24.8113 59.0327L27.8995 59.2872C28.0521 59.2994 28.1856 59.1866 28.1978 59.0341C28.211 58.8819 28.0988 58.7468 27.9452 58.7361L24.8568 58.482C24.7044 58.4694 24.5707 58.5826 24.5587 58.7346C24.5475 58.8648 24.6287 58.981 24.748 59.0201Z" style="fill:var(--sapContent_Illustrative_Color8)"/>
<path fill-rule="evenodd" clip-rule="evenodd" d="M24.4726 62.1644C24.4925 62.1709 24.5137 62.1755 24.5359 62.177L27.6241 62.4315C27.7767 62.4437 27.9102 62.3309 27.9224 62.1784C27.9356 62.0262 27.8244 61.8915 27.6698 61.8803L24.5814 61.6263C24.4291 61.6136 24.2953 61.7269 24.2833 61.8789C24.2721 62.0091 24.3533 62.1253 24.4726 62.1644Z" style="fill:var(--sapContent_Illustrative_Color8)"/>
<path fill-rule="evenodd" clip-rule="evenodd" d="M24.1489 65.8338C24.1688 65.8404 24.19 65.845 24.2122 65.8465L29.6221 66.2923C29.7745 66.3049 29.9082 66.1917 29.9202 66.0397C29.9334 65.8875 29.8215 65.7513 29.6678 65.7411L24.2577 65.2958C24.1053 65.2831 23.9716 65.3964 23.9596 65.5484C23.9484 65.6785 24.0296 65.7948 24.1489 65.8338Z" style="fill:var(--sapContent_Illustrative_Color8)"/>
<path d="M50.2185 10.208L51.7972 25.3932L60.8367 21.1776L50.2185 10.208Z" style="fill:var(--sapContent_Illustrative_Color18)"/>
<path fill-rule="evenodd" clip-rule="evenodd" d="M80.7858 63.9992L71.7773 68.2002L51.8228 25.4102L51.8235 25.4098C51.4635 24.636 53.1874 23.0687 55.6746 21.9088C58.1622 20.7488 60.4713 20.4355 60.8321 21.2092C60.836 21.2176 60.8396 21.226 60.843 21.2346L80.7858 63.9992Z" style="fill:var(--sapContent_Illustrative_Color19)"/>
<path fill-rule="evenodd" clip-rule="evenodd" d="M56.4567 21.5687L77.0547 65.7385L80.7844 63.9992L60.8414 21.2338C60.8381 21.2256 60.8345 21.2174 60.8308 21.2094C60.5082 20.5177 58.6288 20.6947 56.4567 21.5687Z" style="fill:var(--sapContent_Illustrative_Color20)"/>
<path fill-rule="evenodd" clip-rule="evenodd" d="M82.0553 66.7213L73.0469 70.9224L71.7774 68.2001L71.7783 68.1997C71.4185 67.4258 73.1424 65.8586 75.6294 64.6988C78.117 63.5387 80.4261 63.2255 80.7869 63.9992C80.7913 64.0085 80.7953 64.0179 80.799 64.0274L82.0553 66.7213Z" style="fill:var(--sapContent_Illustrative_Color18)"/>
<path fill-rule="evenodd" clip-rule="evenodd" d="M84.6687 72.3253L75.6602 76.5263L73.0509 70.931C73.0495 70.9282 73.0482 70.9254 73.0469 70.9225C72.6861 70.1488 74.4102 68.5812 76.8978 67.4211C79.3854 66.261 81.6945 65.9478 82.0553 66.7215C82.0553 66.7216 82.0554 66.7216 82.0554 66.7217L82.0555 66.7216L84.6687 72.3253Z" style="fill:var(--sapContent_Illustrative_Color19)"/>
<ellipse cx="4.96992" cy="1.54576" rx="4.96992" ry="1.54576" transform="matrix(0.906295 -0.422645 -0.42264 -0.906298 76.3145 77.9268)" style="fill:var(--sapContent_Illustrative_Color20)"/>
<path fill-rule="evenodd" clip-rule="evenodd" d="M50.9315 17.0714C51.4991 16.6885 52.1674 16.3102 52.9023 15.9674C53.6383 15.6242 54.3586 15.3551 55.0175 15.1664L50.2179 10.2081L50.9315 17.0714Z" style="fill:var(--sapContent_Illustrative_Color20)"/>
<path d="M12.714 60.0773C11.8095 57.3754 13.5138 54.5001 16.3183 53.9967L93.2588 40.1863C95.5407 39.7767 97.7776 41.1027 98.5136 43.301L113.426 87.8445C114.33 90.5464 112.626 93.4217 109.822 93.9251L32.8811 107.736C30.5993 108.145 28.3623 106.819 27.6263 104.621L12.714 60.0773Z" style="fill:var(--sapContent_Illustrative_Color14)"/>
<path d="M14.5076 53.3685L12.9985 56.5483L16.5308 55.772L14.5076 53.3685Z" style="fill:var(--sapContent_Illustrative_Color14)"/>
<path d="M113.194 88.8816L113.165 91.4109L114.349 88.8815L113.194 88.8816Z" style="fill:var(--sapContent_Illustrative_Color14)"/>
<path d="M14.1867 57.121C13.2821 54.4191 14.9864 51.5438 17.7909 51.0404L94.7315 37.23C97.0133 36.8204 99.2503 38.1464 99.9863 40.3447L114.899 84.8882C115.803 87.5901 114.099 90.4654 111.294 90.9688L34.3538 104.779C32.0719 105.189 29.835 103.863 29.099 101.664L14.1867 57.121Z" style="fill:var(--sapContent_Illustrative_Color2)"/>
<path d="M14.1895 57.1293C13.2839 54.4245 14.9928 51.5468 17.8011 51.0474L94.7818 37.3569C97.0615 36.9515 99.2941 38.2773 100.029 40.473L102.463 47.7421L16.1837 63.0862L14.1895 57.1293Z" style="fill:var(--sapContent_Illustrative_Color13)"/>
<path d="M24.036 68.4913C23.6742 67.4105 24.356 66.2603 25.4779 66.0591L96.499 53.3166C97.4117 53.1528 98.3064 53.6832 98.6008 54.5625L108.419 83.8889C108.781 84.9697 108.099 86.1198 106.977 86.3211L35.9557 99.0636C35.043 99.2274 34.1483 98.697 33.854 97.8177L24.036 68.4913Z" style="fill:var(--sapContent_Illustrative_Color13)"/>
<path d="M25.3622 66.5695C25.0004 65.4886 25.6822 64.3385 26.8041 64.1372L97.8252 51.3947C98.7379 51.231 99.6326 51.7613 99.9269 52.6406L109.745 81.967C110.107 83.0478 109.425 84.198 108.303 84.3993L37.2819 97.1417C36.3692 97.3055 35.4745 96.7751 35.1801 95.8958L25.3622 66.5695Z" style="fill:var(--sapContent_Illustrative_Color8)"/>
<circle cx="2.10202" cy="2.10202" r="2.10202" transform="matrix(0.94827 -0.317465 0.317463 0.948271 18.9004 54.7549)" style="fill:var(--sapContent_Illustrative_Color20)"/>
<circle cx="2.10202" cy="2.10202" r="2.10202" transform="matrix(0.94827 -0.317465 0.317463 0.948271 26.875 53.4202)" style="fill:var(--sapContent_Illustrative_Color20)"/>
<circle cx="2.10202" cy="2.10202" r="2.10202" transform="matrix(0.94827 -0.317465 0.317463 0.948271 34.8516 51.9546)" style="fill:var(--sapContent_Illustrative_Color20)"/>
<path d="M32.1337 70.1625C31.7719 69.0817 32.4537 67.9315 33.5755 67.7302L53.2075 64.2079C54.1202 64.0441 55.0149 64.5745 55.3093 65.4538L57.5522 72.1533C57.914 73.2341 57.2322 74.3842 56.1103 74.5855L36.4783 78.1079C35.5656 78.2716 34.6709 77.7412 34.3766 76.8619L32.1337 70.1625Z" style="fill:var(--sapContent_Illustrative_Color6)"/>
<path d="M58.9696 64.9354C58.6078 63.8546 59.2896 62.7044 60.4115 62.5032L80.0435 58.9808C80.9562 58.8171 81.8509 59.3475 82.1452 60.2268L84.3881 66.9262C84.7499 68.007 84.0681 69.1572 82.9462 69.3585L63.3143 72.8808C62.4016 73.0446 61.5069 72.5142 61.2125 71.6349L58.9696 64.9354Z" style="fill:var(--sapContent_Illustrative_Color6)"/>
<path d="M36.7138 83.015C36.3519 81.9342 37.0338 80.784 38.1556 80.5827L57.7876 77.0604C58.7003 76.8967 59.595 77.427 59.8894 78.3063L62.1322 85.0058C62.4941 86.0866 61.8123 87.2368 60.6904 87.4381L41.0584 90.9604C40.1457 91.1241 39.251 90.5938 38.9566 89.7145L36.7138 83.015Z" style="fill:var(--sapContent_Illustrative_Color6)"/>
<path d="M93.6351 16.7167C93.8092 16.8347 93.9484 16.9975 94.0378 17.188C94.1273 17.3784 94.1637 17.5895 94.1434 17.7989L93.7889 22.7925C93.7307 23.6184 93.0169 24.0144 92.3695 23.9686C92.1039 23.9595 91.8484 23.8645 91.6415 23.6977C91.4345 23.531 91.2873 23.3016 91.2218 23.044C91.1939 22.9185 91.1852 22.7896 91.1959 22.6616L91.5503 17.668C91.5613 17.4486 91.6315 17.2363 91.7533 17.0535C91.8752 16.8707 92.0441 16.7242 92.2424 16.6296C92.4627 16.5243 92.7063 16.4771 92.95 16.4923C93.1938 16.5075 93.4296 16.5848 93.6351 16.7167Z" style="fill:var(--sapContent_Illustrative_Color5)"/>
<path d="M115.12 33.3971C115.182 33.534 115.215 33.6825 115.217 33.8331C115.219 33.9837 115.19 34.133 115.131 34.2715C115.072 34.4101 114.985 34.5348 114.875 34.6377C114.765 34.7406 114.635 34.8195 114.493 34.8693L109.969 36.6912C109.807 36.7562 109.632 36.788 109.457 36.7849C109.282 36.7818 109.109 36.7438 108.948 36.6732C108.788 36.6025 108.643 36.5005 108.523 36.3733C108.402 36.2461 108.308 36.096 108.246 35.932C108.218 35.8651 108.196 35.7961 108.18 35.7256C108.117 35.466 108.153 35.192 108.281 34.9576C108.41 34.7233 108.621 34.5456 108.874 34.4596L113.396 32.6397C113.559 32.5744 113.733 32.5423 113.908 32.5452C114.083 32.5481 114.256 32.5859 114.417 32.6564C114.577 32.7269 114.722 32.8288 114.843 32.9559C114.963 33.0831 115.058 33.2331 115.12 33.3971Z" style="fill:var(--sapContent_Illustrative_Color5)"/>
<path d="M107.596 21.9726C107.623 22.1348 107.616 22.3009 107.577 22.4607C107.538 22.6204 107.466 22.7704 107.367 22.9016L102.973 28.8304C102.774 29.0952 102.481 29.273 102.155 29.3266C101.828 29.3802 101.493 29.3054 101.221 29.118C100.968 28.9431 100.791 28.6797 100.724 28.3802C100.685 28.2075 100.684 28.0285 100.721 27.8555C100.758 27.6824 100.832 27.5194 100.938 27.3775L105.332 21.4487C105.531 21.1822 105.826 21.0035 106.155 20.9501C106.483 20.8966 106.82 20.9726 107.093 21.162C107.227 21.2563 107.341 21.3767 107.427 21.516C107.514 21.6553 107.571 21.8106 107.596 21.9726Z" style="fill:var(--sapContent_Illustrative_Color5)"/>
<path d="M81.6336 112.067C81.6336 111.465 79.8867 110.984 77.5526 110.874C77.4191 108.543 76.9054 106.81 76.3035 106.811C75.7016 106.812 75.2012 108.559 75.073 110.902C72.7323 111.062 70.992 111.585 71 112.189C71.008 112.792 72.7469 113.273 75.081 113.381C75.2212 115.713 75.7283 117.446 76.3288 117.445C76.9294 117.443 77.4325 115.697 77.5606 113.353C79.9014 113.193 81.6403 112.67 81.6336 112.067Z" style="fill:var(--sapContent_Illustrative_Color18)"/>
<path d="M15.3586 91.9406C15.3586 91.5394 14.194 91.2183 12.6379 91.1453C12.549 89.5912 12.2064 88.4356 11.8052 88.4365C11.4039 88.4374 11.0703 89.6019 10.9849 91.164C9.42437 91.2707 8.26421 91.6195 8.26955 92.0215C8.27489 92.4236 9.43416 92.7448 10.9902 92.8168C11.0836 94.3709 11.4217 95.5265 11.8221 95.5256C12.2224 95.5247 12.5579 94.3603 12.6433 92.7982C14.2038 92.6914 15.3631 92.3427 15.3586 91.9406Z" style="fill:var(--sapContent_Illustrative_Color18)"/>
<path d="M79.6141 17.0486C79.6141 16.4468 77.8672 15.9651 75.5331 15.8557C75.3996 13.5245 74.8858 11.7911 74.2839 11.7925C73.6821 11.7938 73.1816 13.5405 73.0535 15.8837C70.7127 16.0438 68.9725 16.5669 68.9805 17.17C68.9885 17.7731 70.7274 18.2549 73.0615 18.3629C73.2016 20.6941 73.7088 22.4274 74.3093 22.4261C74.9098 22.4248 75.413 20.6781 75.5411 18.3349C77.8818 18.1748 79.6208 17.6517 79.6141 17.0486Z" style="fill:var(--sapContent_Illustrative_Color18)"/>
<path d="M101.355 107.733C109.898 107.733 116.825 100.807 116.825 92.2636C116.825 83.7198 109.898 76.7937 101.355 76.7937C92.8109 76.7937 85.8848 83.7198 85.8848 92.2636C85.8848 100.807 92.8109 107.733 101.355 107.733Z" style="fill:var(--sapContent_Illustrative_Color3)"/>
<path d="M101.36 83.8398H101.354C100.2 83.8398 99.2637 84.7757 99.2637 85.9302V98.5978C99.2637 99.7522 100.2 100.688 101.354 100.688H101.36C102.514 100.688 103.45 99.7522 103.45 98.5978V85.9302C103.45 84.7757 102.514 83.8398 101.36 83.8398Z" style="fill:var(--sapContent_Illustrative_Color8)"/>
<path d="M93.2891 92.0249V92.4977C93.2891 93.5232 94.1204 94.3545 95.1459 94.3545H107.58C108.605 94.3545 109.437 93.5232 109.437 92.4977V92.0249C109.437 90.9994 108.605 90.1681 107.58 90.1681H95.1459C94.1204 90.1681 93.2891 90.9994 93.2891 92.0249Z" style="fill:var(--sapContent_Illustrative_Color8)"/>
</svg>
