<svg width="320" height="240" viewBox="0 0 320 240" fill="none" xmlns="http://www.w3.org/2000/svg" id="tnt-Scene-ChartFlow">
<path d="M305.547 19H14.4533C12.5559 18.9983 10.6768 19.3705 8.92329 20.0954C7.16981 20.8203 5.57638 21.8836 4.23409 23.2247C2.8918 24.5657 1.82697 26.1582 1.10045 27.911C0.373942 29.6638 -8.08861e-07 31.5426 0 33.44V204.547C0 208.38 1.52275 212.056 4.23328 214.767C6.9438 217.477 10.6201 219 14.4533 219H305.547C309.38 219 313.056 217.477 315.767 214.767C318.477 212.056 320 208.38 320 204.547V33.44C320 31.5426 319.626 29.6638 318.9 27.911C318.173 26.1582 317.108 24.5657 315.766 23.2247C314.424 21.8836 312.83 20.8203 311.077 20.0954C309.323 19.3705 307.444 18.9983 305.547 19Z" style="fill:var(--sapContent_Illustrative_Color7)"/>
<path d="M307.616 114.777L250.515 95.1718C248.094 94.3406 245.459 95.6337 244.629 98.0601L216.168 181.325C215.339 183.751 216.629 186.392 219.05 187.223L276.152 206.828C278.573 207.66 281.208 206.366 282.037 203.94L310.498 120.675C311.328 118.249 310.037 115.608 307.616 114.777Z" style="fill:var(--sapContent_Illustrative_Color18)"/>
<path d="M273.369 116.205C271.484 115.451 269.418 115.274 267.432 115.696C265.447 116.119 263.631 117.122 262.214 118.579C260.797 120.036 259.843 121.881 259.473 123.881C259.102 125.881 259.332 127.947 260.133 129.816C260.933 131.685 262.269 133.275 263.971 134.384C265.673 135.492 267.665 136.07 269.694 136.045C271.724 136.019 273.7 135.391 275.374 134.239C277.047 133.088 278.342 131.465 279.096 129.576L269.557 125.764L273.369 116.205Z" style="fill:var(--sapContent_Illustrative_Color7)"/>
<path d="M276.42 114.794L272.617 124.345L282.147 128.156C282.647 126.902 282.895 125.561 282.878 124.211C282.861 122.86 282.579 121.527 282.047 120.286C281.515 119.045 280.744 117.921 279.779 116.979C278.813 116.036 277.672 115.294 276.42 114.794Z" style="fill:var(--sapContent_Illustrative_Color19)"/>
<path d="M284.329 148.956L244.538 135.295C243.218 134.842 241.781 135.547 241.329 136.87C240.876 138.193 241.58 139.633 242.9 140.086L282.691 153.747C284.011 154.201 285.448 153.496 285.9 152.173C286.352 150.849 285.649 149.41 284.329 148.956Z" style="fill:var(--sapContent_Illustrative_Color7)"/>
<path d="M280.888 157.059L241.097 143.397C239.777 142.944 238.34 143.649 237.888 144.972C237.435 146.295 238.139 147.735 239.459 148.188L279.25 161.85C280.57 162.303 282.007 161.598 282.459 160.275C282.911 158.952 282.208 157.512 280.888 157.059Z" style="fill:var(--sapContent_Illustrative_Color7)"/>
<path d="M259.033 158.634L237.835 151.356C236.515 150.902 235.078 151.607 234.626 152.931C234.174 154.254 234.877 155.693 236.197 156.147L257.396 163.425C258.716 163.878 260.152 163.173 260.605 161.85C261.057 160.527 260.353 159.087 259.033 158.634Z" style="fill:var(--sapContent_Illustrative_Color7)"/>
<path d="M16 214.207C16 212.95 17.0195 211.93 18.2772 211.93H167.058C168.316 211.93 169.335 212.95 169.335 214.207V215.145H16V214.207Z" style="fill:var(--sapContent_Illustrative_Color18)"/>
<path d="M19.1473 217.884C19.5646 218.257 20.1045 218.463 20.664 218.463H164.671C165.231 218.463 165.771 218.257 166.188 217.884L169.335 215.074H16L19.1473 217.884Z" style="fill:var(--sapContent_Illustrative_Color19)"/>
<rect x="31.0906" y="129.907" width="123.154" height="82.1674" rx="4.55436" style="fill:var(--sapContent_Illustrative_Color18)"/>
<path d="M92.6677 132.656C93.1032 132.656 93.4562 132.302 93.4562 131.866C93.4562 131.43 93.1032 131.076 92.6677 131.076C92.2322 131.076 91.8792 131.43 91.8792 131.866C91.8792 132.302 92.2322 132.656 92.6677 132.656Z" style="fill:var(--sapContent_Illustrative_Color20)"/>
<rect x="35.1619" y="133.736" width="115.011" height="74.5088" rx="3.03624" style="fill:var(--sapContent_Illustrative_Color7)"/>
<path d="M83.7473 211.473H101.588V212.019C101.588 212.858 100.908 213.537 100.07 213.537H85.2654C84.427 213.537 83.7473 212.858 83.7473 212.019V211.473Z" style="fill:var(--sapContent_Illustrative_Color20)"/>
<path d="M258.613 45.3833C258.613 44.1945 255.162 43.2429 250.551 43.0267C250.287 38.4216 249.272 34.9974 248.083 35C246.894 35.0026 245.906 38.4532 245.652 43.0821C241.028 43.3984 237.59 44.4317 237.606 45.6232C237.622 46.8147 241.057 47.7663 245.668 47.9798C245.945 52.585 246.947 56.0092 248.133 56.0066C249.32 56.0039 250.313 52.5534 250.567 47.9245C255.191 47.6082 258.626 46.5748 258.613 45.3833Z" style="fill:var(--sapContent_Illustrative_Color3)"/>
<path d="M275.617 66.8971C275.617 66.1309 273.393 65.5176 270.422 65.3783C270.252 62.4106 269.598 60.2039 268.831 60.2056C268.065 60.2073 267.428 62.431 267.265 65.414C264.285 65.6179 262.069 66.2838 262.08 67.0516C262.09 67.8195 264.304 68.4327 267.275 68.5703C267.454 71.5381 268.099 73.7448 268.864 73.7431C269.628 73.7414 270.269 71.5177 270.432 68.5347C273.412 68.3308 275.626 67.6649 275.617 66.8971Z" style="fill:var(--sapContent_Illustrative_Color3)"/>
<path d="M23.5127 67.2369L80.6145 47.632C83.0355 46.8008 85.6704 48.0939 86.4997 50.5203L114.961 133.785C115.79 136.212 114.5 138.852 112.079 139.684L54.9771 159.289C52.5561 160.12 49.9212 158.827 49.0918 156.4L20.6308 73.1352C19.8015 70.7089 21.0917 68.0681 23.5127 67.2369Z" style="fill:var(--sapContent_Illustrative_Color18)"/>
<path fill-rule="evenodd" clip-rule="evenodd" d="M75.3718 78.1518C76.4626 78.2857 77.2383 79.2786 77.1044 80.3695L73.6044 108.869C73.5218 109.542 73.1026 110.126 72.492 110.42C71.8814 110.714 71.1633 110.677 70.5862 110.322L60.1401 103.893L56.5961 126.93C56.4289 128.016 55.4129 128.761 54.3266 128.594C53.2403 128.427 52.4952 127.411 52.6623 126.324L56.6623 100.324C56.7637 99.6652 57.1885 99.1007 57.7938 98.8208C58.399 98.5408 59.1042 98.5826 59.6721 98.9321L70.0319 105.307L73.154 79.8844C73.288 78.7935 74.2809 78.0178 75.3718 78.1518Z" style="fill:var(--sapContent_Illustrative_Color19)"/>
<path d="M35.4513 83.687C35.2734 83.1671 35.5506 82.6014 36.0706 82.4235L38.9184 81.449C39.4384 81.271 40.0041 81.5483 40.182 82.0682L55.6102 127.155C55.7881 127.675 55.5109 128.241 54.991 128.419L52.1431 129.393C51.6232 129.571 51.0574 129.294 50.8795 128.774L35.4513 83.687Z" style="fill:var(--sapContent_Illustrative_Color7)"/>
<path d="M52.7097 130.813C52.1906 130.993 51.6236 130.719 51.4433 130.199L50.4556 127.356C50.2753 126.837 50.55 126.27 51.0691 126.09L96.0844 110.453C96.6035 110.273 97.1705 110.548 97.3508 111.067L98.3384 113.91C98.5187 114.429 98.2441 114.996 97.725 115.177L52.7097 130.813Z" style="fill:var(--sapContent_Illustrative_Color7)"/>
<path d="M55.8007 140.077C55.4317 139.042 55.9684 137.894 57.0036 137.525L78.6871 129.795C79.7223 129.426 80.8641 129.976 81.2331 131.011C81.6021 132.046 81.0654 133.194 80.0302 133.563L58.3467 141.293C57.3115 141.662 56.1697 141.112 55.8007 140.077Z" style="fill:var(--sapContent_Illustrative_Color7)"/>
<path d="M93.9321 61.127C93.9321 55.6041 98.4093 51.127 103.932 51.127H208.541L236.068 73.9487V179.817C236.068 185.34 231.591 189.817 226.068 189.817H103.932C98.4093 189.817 93.9321 185.34 93.9321 179.817V61.127Z" style="fill:var(--sapContent_Illustrative_Color6)"/>
<path d="M88.9321 54.1269C88.9321 49.7087 92.5139 46.127 96.9321 46.127H202.441L231.068 70.103V176.817C231.068 181.236 227.486 184.817 223.068 184.817H96.9321C92.5139 184.817 88.9321 181.236 88.9321 176.817V54.1269Z" style="fill:var(--sapContent_Illustrative_Color8)"/>
<path d="M202.286 69.8853L231.068 75.6894V69.8853H202.286Z" style="fill:var(--sapContent_Illustrative_Color5)"/>
<path d="M202.286 69.8857H231.068L202.286 46.127V69.8857Z" style="fill:var(--sapContent_Illustrative_Color6)"/>
<rect x="104.12" y="84.3994" width="111.557" height="86.0762" rx="6" style="fill:var(--sapContent_Illustrative_Color7)"/>
<path fill-rule="evenodd" clip-rule="evenodd" d="M160.456 151.009V129.98H163.456V151.009C163.456 151.285 163.679 151.509 163.956 151.509H184V154.509H163.956C162.023 154.509 160.456 152.942 160.456 151.009Z" style="fill:var(--sapContent_Illustrative_Color20)"/>
<path fill-rule="evenodd" clip-rule="evenodd" d="M125.531 124.035L125.531 105.415L128.531 105.415L128.531 124.035L125.531 124.035Z" style="fill:var(--sapContent_Illustrative_Color20)"/>
<path fill-rule="evenodd" clip-rule="evenodd" d="M128.53 126.498L196.021 126.498V129.498H128.53V126.498Z" style="fill:var(--sapContent_Illustrative_Color20)"/>
<rect x="113.711" y="96.1914" width="32.3899" height="12.7326" rx="2.00019" style="fill:var(--sapContent_Illustrative_Color13)"/>
<rect x="115.025" y="121.024" width="23.7646" height="12.3554" rx="2.00019" style="fill:var(--sapContent_Illustrative_Color2)"/>
<rect x="183.706" y="121.024" width="22.3804" height="12.3554" rx="2.00019" style="fill:var(--sapContent_Illustrative_Color2)"/>
<rect x="173.72" y="146.328" width="32.2193" height="12.3554" rx="2.00019" style="fill:var(--sapContent_Illustrative_Color3)"/>
<rect x="161.511" y="116.372" width="15.852" height="15.852" rx="2.00019" transform="rotate(45 161.511 116.372)" style="fill:var(--sapContent_Illustrative_Color14)"/>
<path d="M125.973 59.2056H106.748C105.453 59.2056 104.402 60.256 104.402 61.5519C104.402 62.8477 105.453 63.8982 106.748 63.8982H125.973C127.269 63.8982 128.319 62.8477 128.319 61.5519C128.319 60.256 127.269 59.2056 125.973 59.2056Z" style="fill:var(--sapContent_Illustrative_Color14)"/>
<path d="M145.06 68.3208H106.391C105.292 68.3208 104.402 69.2111 104.402 70.3093C104.402 71.4075 105.292 72.2978 106.391 72.2978H145.06C146.158 72.2978 147.049 71.4075 147.049 70.3093C147.049 69.2111 146.158 68.3208 145.06 68.3208Z" style="fill:var(--sapContent_Illustrative_Color13)"/>
</svg>
