<svg width="45" height="45" viewBox="0 0 45 45" fill="none" xmlns="http://www.w3.org/2000/svg" id="tnt-Dot-ChartPie">
<path d="M21.4306 7.52303C21.4863 6.95885 21.0741 6.45329 20.5076 6.42914C17.2316 6.28945 13.9708 7.02895 11.0675 8.57971C7.86179 10.292 5.23581 12.9164 3.52164 16.1212C1.80747 19.3259 1.08211 22.9669 1.43728 26.5839C1.79245 30.2009 3.2122 33.6313 5.51699 36.4414C7.82178 39.2515 10.9081 41.315 14.3857 42.371C17.8632 43.427 21.5758 43.4281 25.054 42.3741C28.5322 41.3201 31.6197 39.2584 33.9262 36.4497C36.015 33.9059 37.3782 30.8529 37.8823 27.6129C37.9694 27.0527 37.5543 26.5495 36.9901 26.4937L19.725 24.7881L21.4306 7.52303Z" style="fill:var(--sapContent_Illustrative_Color8)"/>
<path fill-rule="evenodd" clip-rule="evenodd" d="M10.5963 7.69753C13.6576 6.06239 17.0958 5.28264 20.5502 5.42993C21.7273 5.48012 22.5342 6.52314 22.4257 7.62123L20.8184 23.8912L37.0884 25.4984C38.1865 25.6069 39.0514 26.6022 38.8703 27.7664C38.3389 31.1829 36.9015 34.402 34.6989 37.0842C32.267 40.0458 29.0114 42.2197 25.344 43.331C21.6765 44.4424 17.7619 44.4412 14.0951 43.3277C10.4282 42.2142 7.17397 40.0384 4.74376 37.0754C2.31354 34.1124 0.816525 30.4953 0.442028 26.6815C0.0675304 22.8677 0.832367 19.0285 2.63982 15.6494C4.44727 12.2703 7.21616 9.503 10.5963 7.69753ZM20.5076 6.42902C21.074 6.45318 21.4863 6.95873 21.4305 7.52292L19.725 24.788L36.9901 26.4936C37.5542 26.5493 37.9694 27.0525 37.8822 27.6127C37.3782 30.8528 36.015 33.9058 33.9261 36.4496C31.6197 39.2583 28.5321 41.32 25.054 42.374C21.5758 43.428 17.8632 43.4269 14.3856 42.3709C10.9081 41.3149 7.82174 39.2513 5.51695 36.4413C3.21216 33.6312 1.79241 30.2008 1.43724 26.5838C1.08207 22.9668 1.80743 19.3258 3.5216 16.121C5.23577 12.9163 7.86175 10.2919 11.0675 8.57959C13.9708 7.02884 17.2315 6.28934 20.5076 6.42902Z" style="fill:var(--sapContent_Illustrative_Color4)"/>
<path d="M21.4259 7.57084C21.4843 6.98024 21.0527 6.45087 20.4597 6.42714C17.338 6.3022 14.2355 6.97543 11.4464 8.38295C10.9166 8.65033 10.7432 9.31097 11.0411 9.82428L19.7251 24.7881L21.4259 7.57084Z" style="fill:var(--sapContent_Illustrative_Color20)"/>
<path d="M36.9422 26.4888C37.5328 26.5472 37.9675 27.074 37.8748 27.6602C37.4895 30.0949 36.6176 32.4311 35.3072 34.5276C33.8066 36.9283 31.7716 38.9499 29.361 40.4345C26.9503 41.9191 24.2292 42.8266 21.4101 43.0862C18.9481 43.3129 16.4695 43.0402 14.1219 42.2886C13.5566 42.1076 13.2818 41.4823 13.4955 40.9287L19.7249 24.788L36.9422 26.4888Z" style="fill:var(--sapContent_Illustrative_Color2)"/>
<path d="M33.9986 5.37117C34.3274 4.8771 34.9963 4.74091 35.4731 5.09427C38.2879 7.18035 40.5472 9.9347 42.0425 13.1154C43.5378 16.2962 44.2173 19.7932 44.0278 23.2916C43.9957 23.8842 43.4641 24.3124 42.8739 24.2504L24.6031 22.3297C23.7999 22.2453 23.3734 21.3381 23.8209 20.6657L33.9986 5.37117Z" style="fill:var(--sapContent_Illustrative_Color3)"/>
</svg>
