<svg width="128" height="128" viewBox="0 0 128 128" fill="none" xmlns="http://www.w3.org/2000/svg" id="tnt-Spot-ChartArea2">
<path d="M64 128C99.3462 128 128 99.3462 128 64C128 28.6538 99.3462 0 64 0C28.6538 0 0 28.6538 0 64C0 99.3462 28.6538 128 64 128Z" style="fill:var(--sapContent_Illustrative_Color7)"/>
<path fill-rule="evenodd" clip-rule="evenodd" d="M83.8684 124.856C107.875 117.023 125.641 95.3808 127.782 69.3114L98.4346 55.6084C96.7917 54.8413 94.8352 55.5528 94.0645 57.1975L67.6174 113.639C66.8467 115.283 67.5537 117.239 69.1966 118.006L83.8684 124.856Z" style="fill:var(--sapContent_Illustrative_Color18)"/>
<path fill-rule="evenodd" clip-rule="evenodd" d="M119.501 86.6797C119.991 87.2845 119.898 88.1722 119.293 88.6623L103.491 101.468C103.118 101.77 102.617 101.862 102.161 101.711C101.706 101.561 101.358 101.189 101.238 100.724L99.0754 92.3091L85.9384 102.308C85.3189 102.78 84.4345 102.66 83.963 102.04C83.4915 101.421 83.6115 100.536 84.231 100.065L99.0581 88.7793C99.434 88.4932 99.9282 88.4144 100.374 88.5694C100.821 88.7244 101.159 89.0926 101.277 89.55L103.422 97.8952L117.518 86.472C118.123 85.9819 119.01 86.0749 119.501 86.6797Z" style="fill:var(--sapContent_Illustrative_Color19)"/>
<path d="M96.4297 69.8646C96.5947 69.5121 97.0143 69.3601 97.3668 69.5252L99.2978 70.4292C99.6503 70.5942 99.8023 71.0138 99.6373 71.3663L85.3251 101.937C85.1601 102.289 84.7405 102.441 84.388 102.276L82.457 101.372C82.1045 101.207 81.9525 100.788 82.1175 100.435L96.4297 69.8646Z" style="fill:var(--sapContent_Illustrative_Color7)"/>
<path fill-rule="evenodd" clip-rule="evenodd" d="M107.999 110.477L83.5344 99.1606C83.1811 98.9972 82.7622 99.1511 82.5988 99.5044L81.7037 101.44C81.5403 101.793 81.6942 102.212 82.0475 102.375L105.118 113.046C106.104 112.218 107.065 111.361 107.999 110.477Z" style="fill:var(--sapContent_Illustrative_Color7)"/>
<path d="M79.0661 108.619C79.3872 107.909 80.2253 107.588 80.9345 107.909L95.789 114.635C96.4983 114.956 96.81 115.797 96.4889 116.507V116.507C96.1678 117.216 95.3297 117.537 94.6205 117.216L79.7659 110.491C79.0567 110.17 78.745 109.328 79.0661 108.619V108.619Z" style="fill:var(--sapContent_Illustrative_Color7)"/>
<path fill-rule="evenodd" clip-rule="evenodd" d="M24.6624 114.487H86.3119C89.6583 114.487 92.371 111.774 92.371 108.428V44.2815L75.6922 30.4536H12.3091C11.0097 30.4536 9.80593 30.8626 8.81936 31.5589C7.89753 33.1235 7.04035 34.7307 6.25149 36.3769C6.2505 36.422 6.25 36.4673 6.25 36.5127V91.62C10.553 100.601 16.8892 108.422 24.6624 114.487Z" style="fill:var(--sapContent_Illustrative_Color6)"/>
<path fill-rule="evenodd" clip-rule="evenodd" d="M21.0597 111.457H84.4944C87.1715 111.457 89.3417 109.287 89.3417 106.61V41.9511L71.9963 27.4238H11.4748C7.9766 32.438 5.17807 37.9765 3.2207 43.8978V84.1022C6.73222 94.725 12.9509 104.116 21.0597 111.457Z" style="fill:var(--sapContent_Illustrative_Color8)"/>
<path d="M71.9028 41.8191L89.3418 45.3359V41.8191H71.9028Z" style="fill:var(--sapContent_Illustrative_Color5)"/>
<path d="M71.9028 41.8194H89.3418L71.9028 27.4238V41.8194Z" style="fill:var(--sapContent_Illustrative_Color6)"/>
<path d="M97.8751 22.8469C97.8751 21.9485 95.2671 21.2293 91.7825 21.066C91.5832 17.5858 90.8162 14.998 89.9176 15C89.0191 15.002 88.272 17.6097 88.0807 21.1078C84.5861 21.3469 81.9881 22.1278 82 23.0282C82.012 23.9286 84.608 24.6478 88.0927 24.8091C88.3019 28.2894 89.0589 30.8771 89.9555 30.8751C90.8521 30.8731 91.6032 28.2655 91.7944 24.7673C95.289 24.5283 97.885 23.7474 97.8751 22.8469Z" style="fill:var(--sapContent_Illustrative_Color3)"/>
<path d="M114.231 40.0569C114.231 39.4779 112.55 39.0145 110.304 38.9092C110.176 36.6664 109.682 34.9987 109.102 35C108.523 35.0013 108.042 36.6818 107.919 38.9361C105.667 39.0902 103.992 39.5934 104 40.1737C104.008 40.754 105.681 41.2175 107.926 41.3214C108.061 43.5643 108.549 45.2319 109.127 45.2306C109.705 45.2293 110.189 43.5488 110.312 41.2945C112.564 41.1404 114.237 40.6372 114.231 40.0569Z" style="fill:var(--sapContent_Illustrative_Color3)"/>
<rect x="13" y="51.8271" width="65.6545" height="50.6581" rx="3.53116" style="fill:var(--sapContent_Illustrative_Color7)"/>
<path fill-rule="evenodd" clip-rule="evenodd" d="M72.4555 60.5808C72.9783 61.1239 73.2012 61.8781 73.2012 62.6319V95.0026C73.2012 96.3027 72.1473 97.3567 70.8471 97.3567H20.8067C19.5066 97.3567 18.4526 96.3027 18.4526 95.0026V76.9514C18.4526 76.0296 18.8042 75.1348 19.4865 74.515C22.6996 71.5961 26.9623 69.4174 32.0754 70.7269C41.0789 73.0326 48.4976 70.5932 54.5587 66.8859C56.2989 65.8214 57.9401 64.6691 59.4907 63.5804C64.7391 59.8955 68.9501 56.9388 72.4555 60.5808Z" style="fill:var(--sapContent_Illustrative_Color13)"/>
<path fill-rule="evenodd" clip-rule="evenodd" d="M73.2012 68.0513V95.0025C73.2012 96.3026 72.1473 97.3566 70.8471 97.3566H20.8067C19.5066 97.3566 18.4526 96.3026 18.4526 95.0025V81.4751C23.1472 82.5004 30.4267 82.95 38.1689 80.2784C41.8872 78.9953 45.561 76.9105 49.2829 74.7984C56.8046 70.5299 64.5226 66.1501 73.2012 68.0513Z" style="fill:var(--sapContent_Illustrative_Color3)"/>
<path fill-rule="evenodd" clip-rule="evenodd" d="M74.9668 66.6305V95.0023C74.9668 97.2776 73.1223 99.122 70.8471 99.122H20.8067C18.5315 99.122 16.687 97.2776 16.687 95.0023V79.2822L18.8293 79.75C23.2852 80.7232 30.2247 81.1517 37.5929 78.6092C41.1289 77.389 44.6575 75.393 48.4115 73.2626C48.4966 73.2143 48.5818 73.166 48.6671 73.1175C55.9935 68.9589 64.2368 64.2798 73.579 66.3265L74.9668 66.6305ZM20.2182 81.8096C24.8708 82.5629 31.3399 82.6347 38.1688 80.2782C41.8872 78.9951 45.561 76.9103 49.2829 74.7982C56.8046 70.5297 64.5226 66.1499 73.2012 68.0511V95.0023C73.2012 96.3025 72.1472 97.3564 70.8471 97.3564H20.8067C19.5066 97.3564 18.4526 96.3025 18.4526 95.0023V81.475C19.0063 81.5959 19.596 81.7088 20.2182 81.8096Z" style="fill:var(--sapContent_Illustrative_Color7)"/>
<path fill-rule="evenodd" clip-rule="evenodd" d="M73.2012 81.5835V95.0026C73.2012 96.3027 72.1473 97.3567 70.8471 97.3567H20.8067C19.5066 97.3567 18.4526 96.3027 18.4526 95.0026V92.3681C23.6408 87.8203 32.5621 83.3699 44.1724 86.1896C55.5718 88.9581 66.2733 85.4161 73.2012 81.5835Z" style="fill:var(--sapContent_Illustrative_Color2)"/>
<path d="M25.8611 37H14.5469C13.7842 37 13.166 37.6182 13.166 38.3809C13.166 39.1435 13.7842 39.7617 14.5469 39.7617H25.8611C26.6237 39.7617 27.2419 39.1435 27.2419 38.3809C27.2419 37.6182 26.6237 37 25.8611 37Z" style="fill:var(--sapContent_Illustrative_Color14)"/>
<path d="M37.0944 42.3645H14.3363C13.69 42.3645 13.166 42.8885 13.166 43.5348C13.166 44.1811 13.69 44.7051 14.3363 44.7051H37.0944C37.7407 44.7051 38.2647 44.1811 38.2647 43.5348C38.2647 42.8885 37.7407 42.3645 37.0944 42.3645Z" style="fill:var(--sapContent_Illustrative_Color13)"/>
</svg>
