<svg width="320" height="240" viewBox="0 0 320 240" fill="none" xmlns="http://www.w3.org/2000/svg" id="tnt-Scene-ChartBPMNFlow">
<path d="M305.547 18.8652H14.4533C12.5559 18.8635 10.6768 19.2357 8.92329 19.9606C7.16981 20.6855 5.57638 21.7489 4.23409 23.0899C2.8918 24.431 1.82697 26.0234 1.10045 27.7762C0.373942 29.529 -8.08861e-07 31.4078 0 33.3052V204.412C0 208.245 1.52275 211.921 4.23328 214.632C6.9438 217.342 10.6201 218.865 14.4533 218.865H305.547C309.38 218.865 313.056 217.342 315.767 214.632C318.477 211.921 320 208.245 320 204.412V33.3052C320 31.4078 319.626 29.529 318.9 27.7762C318.173 26.0234 317.108 24.431 315.766 23.0899C314.424 21.7489 312.83 20.6855 311.077 19.9606C309.323 19.2357 307.444 18.8635 305.547 18.8652V18.8652Z" style="fill:var(--sapContent_Illustrative_Color7)"/>
<path d="M307.616 114.642L250.515 95.037C248.094 94.2058 245.459 95.499 244.629 97.9253L216.168 181.19C215.339 183.617 216.629 186.258 219.05 187.089L276.152 206.694C278.573 207.525 281.208 206.232 282.037 203.805L310.498 120.54C311.328 118.114 310.037 115.473 307.616 114.642Z" style="fill:var(--sapContent_Illustrative_Color18)"/>
<path d="M273.369 116.07C271.484 115.316 269.418 115.139 267.432 115.562C265.447 115.984 263.631 116.987 262.214 118.444C260.797 119.901 259.843 121.746 259.473 123.746C259.102 125.746 259.332 127.812 260.133 129.681C260.933 131.551 262.269 133.14 263.971 134.249C265.673 135.357 267.665 135.936 269.694 135.91C271.724 135.884 273.7 135.256 275.374 134.104C277.047 132.953 278.342 131.33 279.096 129.441L269.557 125.629L273.369 116.07Z" style="fill:var(--sapContent_Illustrative_Color7)"/>
<path d="M276.42 114.659L272.617 124.21L282.147 128.021C282.647 126.767 282.895 125.427 282.878 124.076C282.861 122.726 282.579 121.392 282.047 120.151C281.515 118.91 280.744 117.786 279.779 116.844C278.813 115.902 277.672 115.159 276.42 114.659V114.659Z" style="fill:var(--sapContent_Illustrative_Color19)"/>
<path d="M284.329 148.822L244.538 135.16C243.218 134.707 241.781 135.412 241.329 136.735C240.876 138.058 241.58 139.498 242.9 139.951L282.691 153.613C284.011 154.066 285.448 153.361 285.9 152.038C286.352 150.715 285.649 149.275 284.329 148.822Z" style="fill:var(--sapContent_Illustrative_Color7)"/>
<path d="M280.888 156.924L241.097 143.262C239.777 142.809 238.34 143.514 237.888 144.837C237.435 146.16 238.139 147.6 239.459 148.054L279.25 161.715C280.57 162.168 282.007 161.463 282.459 160.14C282.911 158.817 282.208 157.377 280.888 156.924Z" style="fill:var(--sapContent_Illustrative_Color7)"/>
<path d="M259.033 158.499L237.835 151.221C236.515 150.768 235.078 151.473 234.626 152.796C234.174 154.119 234.877 155.559 236.197 156.012L257.396 163.29C258.716 163.743 260.152 163.038 260.605 161.715C261.057 160.392 260.353 158.952 259.033 158.499Z" style="fill:var(--sapContent_Illustrative_Color7)"/>
<path d="M16 214.073C16 212.815 17.0195 211.795 18.2772 211.795H167.058C168.316 211.795 169.335 212.815 169.335 214.073V215.01H16V214.073Z" style="fill:var(--sapContent_Illustrative_Color18)"/>
<path d="M19.1473 217.749C19.5646 218.122 20.1045 218.328 20.664 218.328H164.671C165.231 218.328 165.771 218.122 166.188 217.749L169.335 214.939H16L19.1473 217.749Z" style="fill:var(--sapContent_Illustrative_Color19)"/>
<rect x="31.0906" y="129.772" width="123.154" height="82.1674" rx="4.55436" style="fill:var(--sapContent_Illustrative_Color18)"/>
<path d="M92.6677 132.521C93.1032 132.521 93.4562 132.167 93.4562 131.731C93.4562 131.295 93.1032 130.941 92.6677 130.941C92.2322 130.941 91.8792 131.295 91.8792 131.731C91.8792 132.167 92.2322 132.521 92.6677 132.521Z" style="fill:var(--sapContent_Illustrative_Color20)"/>
<rect x="35.1619" y="133.601" width="115.011" height="74.5088" rx="3.03624" style="fill:var(--sapContent_Illustrative_Color7)"/>
<path d="M83.7473 211.338H101.588V211.884C101.588 212.723 100.908 213.403 100.07 213.403H85.2654C84.427 213.403 83.7473 212.723 83.7473 211.884V211.338Z" style="fill:var(--sapContent_Illustrative_Color20)"/>
<path d="M258.613 45.2486C258.613 44.0597 255.162 43.1081 250.551 42.892C250.287 38.2868 249.272 34.8626 248.083 34.8652C246.894 34.8679 245.906 38.3184 245.652 42.9473C241.028 43.2636 237.59 44.297 237.606 45.4885C237.622 46.6799 241.057 47.6316 245.668 47.8451C245.945 52.4502 246.947 55.8744 248.133 55.8718C249.32 55.8692 250.313 52.4186 250.567 47.7897C255.191 47.4734 258.626 46.4401 258.613 45.2486Z" style="fill:var(--sapContent_Illustrative_Color3)"/>
<path d="M275.617 66.7623C275.617 65.9961 273.393 65.3829 270.422 65.2436C270.252 62.2758 269.598 60.0691 268.831 60.0708C268.065 60.0725 267.428 62.2962 267.265 65.2793C264.285 65.4831 262.069 66.149 262.08 66.9169C262.09 67.6847 264.304 68.298 267.275 68.4356C267.454 71.4033 268.099 73.6101 268.864 73.6084C269.628 73.6067 270.269 71.383 270.432 68.3999C273.412 68.1961 275.626 67.5301 275.617 66.7623Z" style="fill:var(--sapContent_Illustrative_Color3)"/>
<path d="M23.5127 67.1021L80.6145 47.4972C83.0355 46.666 85.6704 47.9592 86.4997 50.3855L114.961 133.651C115.79 136.077 114.5 138.718 112.079 139.549L54.9771 159.154C52.5561 159.985 49.9212 158.692 49.0918 156.266L20.6308 73.0005C19.8015 70.5741 21.0917 67.9333 23.5127 67.1021Z" style="fill:var(--sapContent_Illustrative_Color18)"/>
<path fill-rule="evenodd" clip-rule="evenodd" d="M75.3718 78.017C76.4626 78.151 77.2383 79.1439 77.1044 80.2347L73.6044 108.735C73.5218 109.407 73.1026 109.992 72.492 110.285C71.8814 110.579 71.1633 110.542 70.5862 110.187L60.1401 103.759L56.5961 126.795C56.4289 127.881 55.4129 128.626 54.3266 128.459C53.2403 128.292 52.4952 127.276 52.6623 126.19L56.6623 100.19C56.7637 99.5305 57.1885 98.966 57.7938 98.686C58.399 98.4061 59.1042 98.4479 59.6721 98.7974L70.0319 105.173L73.154 79.7496C73.288 78.6587 74.2809 77.883 75.3718 78.017Z" style="fill:var(--sapContent_Illustrative_Color19)"/>
<path d="M35.4513 83.5522C35.2734 83.0323 35.5506 82.4666 36.0706 82.2887L38.9184 81.3142C39.4384 81.1363 40.0041 81.4135 40.182 81.9335L55.6102 127.02C55.7882 127.54 55.5109 128.106 54.991 128.284L52.1431 129.259C51.6232 129.436 51.0575 129.159 50.8795 128.639L35.4513 83.5522Z" style="fill:var(--sapContent_Illustrative_Color7)"/>
<path d="M52.7097 130.678C52.1906 130.858 51.6236 130.584 51.4433 130.065L50.4556 127.221C50.2753 126.702 50.55 126.135 51.0691 125.955L96.0844 110.319C96.6035 110.138 97.1705 110.413 97.3508 110.932L98.3384 113.775C98.5187 114.295 98.2441 114.862 97.725 115.042L52.7097 130.678Z" style="fill:var(--sapContent_Illustrative_Color7)"/>
<path d="M55.8007 139.942C55.4317 138.907 55.9684 137.759 57.0036 137.39L78.6871 129.66C79.7223 129.291 80.8641 129.841 81.2331 130.876V130.876C81.6021 131.911 81.0654 133.059 80.0302 133.428L58.3467 141.158C57.3115 141.527 56.1697 140.977 55.8007 139.942V139.942Z" style="fill:var(--sapContent_Illustrative_Color7)"/>
<path d="M93.9321 60.9922C93.9321 55.4693 98.4093 50.9922 103.932 50.9922H208.541L236.068 73.8139V179.683C236.068 185.205 231.591 189.683 226.068 189.683H103.932C98.4093 189.683 93.9321 185.205 93.9321 179.683V60.9922Z" style="fill:var(--sapContent_Illustrative_Color6)"/>
<path d="M88.9321 53.9922C88.9321 49.5739 92.5139 45.9922 96.9321 45.9922H202.441L231.068 69.9683V176.683C231.068 181.101 227.486 184.683 223.068 184.683H96.9321C92.5139 184.683 88.9321 181.101 88.9321 176.683V53.9922Z" style="fill:var(--sapContent_Illustrative_Color8)"/>
<path d="M202.286 69.7505L231.068 75.5546V69.7505H202.286Z" style="fill:var(--sapContent_Illustrative_Color5)"/>
<path d="M202.286 69.7509H231.068L202.286 45.9922V69.7509Z" style="fill:var(--sapContent_Illustrative_Color6)"/>
<rect x="104.12" y="84.3994" width="111.557" height="86.0762" rx="6" style="fill:var(--sapContent_Illustrative_Color7)"/>
<rect x="109.546" y="90.0708" width="101" height="37" rx="4" style="fill:var(--sapContent_Illustrative_Color18)"/>
<path fill-rule="evenodd" clip-rule="evenodd" d="M115.546 147.071H185.546V150.071H115.546V147.071Z" style="fill:var(--sapContent_Illustrative_Color20)"/>
<path fill-rule="evenodd" clip-rule="evenodd" d="M195.546 113.071L195.546 143.071L192.546 143.071L192.546 113.071L195.546 113.071Z" style="fill:var(--sapContent_Illustrative_Color20)"/>
<path fill-rule="evenodd" clip-rule="evenodd" d="M155.546 116.071L155.546 143.071L152.546 143.071L152.546 116.071L155.546 116.071Z" style="fill:var(--sapContent_Illustrative_Color20)"/>
<path fill-rule="evenodd" clip-rule="evenodd" d="M120.5 105.571L187 105.571V108.571L120.5 108.571V105.571Z" style="fill:var(--sapContent_Illustrative_Color20)"/>
<circle cx="121.546" cy="149.071" r="8" style="fill:var(--sapContent_Illustrative_Color2)"/>
<circle cx="121.546" cy="107.071" r="8" style="fill:var(--sapContent_Illustrative_Color13)"/>
<circle cx="194.546" cy="107.071" r="8" style="fill:var(--sapContent_Illustrative_Color3)"/>
<rect x="141.546" y="97.0708" width="30" height="20" rx="2.00019" style="fill:var(--sapContent_Illustrative_Color2)"/>
<rect x="176.546" y="139.071" width="29" height="20" rx="2.00019" style="fill:var(--sapContent_Illustrative_Color13)"/>
<rect x="154.438" y="139.071" width="13.9903" height="13.9903" rx="2.00019" transform="rotate(45 154.438 139.071)" style="fill:var(--sapContent_Illustrative_Color14)"/>
<path d="M125.973 59.2056H106.748C105.453 59.2056 104.402 60.256 104.402 61.5519C104.402 62.8477 105.453 63.8982 106.748 63.8982H125.973C127.269 63.8982 128.319 62.8477 128.319 61.5519C128.319 60.256 127.269 59.2056 125.973 59.2056Z" style="fill:var(--sapContent_Illustrative_Color14)"/>
<path d="M145.06 68.3208H106.391C105.292 68.3208 104.402 69.2111 104.402 70.3093C104.402 71.4075 105.292 72.2978 106.391 72.2978H145.06C146.158 72.2978 147.049 71.4075 147.049 70.3093C147.049 69.2111 146.158 68.3208 145.06 68.3208Z" style="fill:var(--sapContent_Illustrative_Color13)"/>
</svg>
