<svg width="45" height="45" id="tnt-Dot-ChartOrg" xmlns="http://www.w3.org/2000/svg" viewBox="0 0 45 45">
    <path d="m6.08,30.75l15.18-18.41.77.64L6.85,31.39l-.77-.64Z" style="fill:var(--sapContent_Illustrative_Color4)" fill-rule="evenodd" />
    <path d="m38.95,30.75l-15.18-18.41-.77.64,15.18,18.41.77-.64Z" style="fill:var(--sapContent_Illustrative_Color4)" fill-rule="evenodd" />
    <path d="m31.18,9.37c0,4.52-3.67,8.19-8.19,8.19s-8.19-3.67-8.19-8.19S18.47,1.18,22.99,1.18s8.19,3.67,8.19,8.19Z" style="fill:var(--sapContent_Illustrative_Color3)" />
    <path d="m16.85,14.79c.42-2.16,2.32-3.74,4.53-3.74h3.26c2.21,0,4.1,1.56,4.53,3.71-1.5,1.72-3.71,2.8-6.17,2.8s-4.65-1.07-6.15-2.78Zm8.93-8.35c0,1.53-1.24,2.77-2.77,2.77s-2.77-1.24-2.77-2.77,1.24-2.77,2.77-2.77,2.77,1.24,2.77,2.77Z" style="fill:var(--sapContent_Illustrative_Color8)" fill-rule="evenodd" />
    <path d="m22.99,15.58c3.43,0,6.21-2.78,6.21-6.21s-2.78-6.21-6.21-6.21-6.21,2.78-6.21,6.21,2.78,6.21,6.21,6.21Zm0,1.98c4.52,0,8.19-3.67,8.19-8.19S27.52,1.18,22.99,1.18s-8.19,3.67-8.19,8.19,3.67,8.19,8.19,8.19Z" style="fill:var(--sapContent_Illustrative_Color3)" fill-rule="evenodd" />
    <path d="m16.37,34.99c0,4.52-3.67,8.19-8.19,8.19S0,39.51,0,34.99s3.67-8.19,8.19-8.19,8.19,3.67,8.19,8.19Z" style="fill:var(--sapContent_Illustrative_Color2)" />
    <path d="m2.04,40.4c.42-2.16,2.32-3.74,4.53-3.74h3.26c2.21,0,4.1,1.56,4.53,3.71-1.5,1.72-3.71,2.8-6.17,2.8s-4.65-1.07-6.15-2.78Zm8.93-8.35c0,1.53-1.24,2.77-2.77,2.77s-2.77-1.24-2.77-2.77,1.24-2.77,2.77-2.77,2.77,1.24,2.77,2.77Z" style="fill:var(--sapContent_Illustrative_Color8)" fill-rule="evenodd" />
    <path d="m8.18,41.19c3.43,0,6.21-2.78,6.21-6.21s-2.78-6.21-6.21-6.21-6.21,2.78-6.21,6.21,2.78,6.21,6.21,6.21Zm0,1.98c4.52,0,8.19-3.67,8.19-8.19s-3.67-8.19-8.19-8.19S0,30.47,0,34.99s3.67,8.19,8.19,8.19Z" style="fill:var(--sapContent_Illustrative_Color2)" fill-rule="evenodd" />
    <path d="m45,34.99c0,4.52-3.67,8.19-8.19,8.19s-8.19-3.67-8.19-8.19,3.67-8.19,8.19-8.19,8.19,3.67,8.19,8.19Z" style="fill:var(--sapContent_Illustrative_Color13)" />
    <path d="m30.67,40.4c.42-2.16,2.32-3.74,4.53-3.74h3.26c2.21,0,4.1,1.56,4.53,3.71-1.5,1.72-3.71,2.8-6.17,2.8s-4.65-1.07-6.15-2.78Zm8.93-8.35c0,1.53-1.24,2.77-2.77,2.77s-2.77-1.24-2.77-2.77,1.24-2.77,2.77-2.77,2.77,1.24,2.77,2.77Z" style="fill:var(--sapContent_Illustrative_Color8)" fill-rule="evenodd" />
    <path d="m36.82,41.19c3.43,0,6.21-2.78,6.21-6.21s-2.78-6.21-6.21-6.21-6.21,2.78-6.21,6.21,2.78,6.21,6.21,6.21Zm0,1.98c4.52,0,8.19-3.67,8.19-8.19s-3.67-8.19-8.19-8.19-8.19,3.67-8.19,8.19,3.67,8.19,8.19,8.19Z" style="fill:var(--sapContent_Illustrative_Color13)" fill-rule="evenodd" />
</svg>