<svg width="321" height="240" viewBox="0 0 321 240" fill="none" xmlns="http://www.w3.org/2000/svg" id="tnt-Scene-Components">
<path d="M305.711 20.0059H14.6174C12.72 20.0041 10.8408 20.3763 9.08735 21.1012C7.33387 21.8261 5.74044 22.8895 4.39815 24.2305C3.05586 25.5716 1.99103 27.164 1.26452 28.9168C0.538005 30.6696 0.164062 32.5485 0.164063 34.4459V205.553C0.164063 209.386 1.68681 213.062 4.39734 215.773C7.10786 218.483 10.7841 220.006 14.6174 220.006H305.711C309.544 220.006 313.22 218.483 315.931 215.773C318.641 213.062 320.164 209.386 320.164 205.553V34.4459C320.164 32.5485 319.79 30.6696 319.064 28.9168C318.337 27.164 317.272 25.5716 315.93 24.2305C314.588 22.8895 312.994 21.8261 311.241 21.1012C309.487 20.3763 307.608 20.0041 305.711 20.0059Z" style="fill:var(--sapContent_Illustrative_Color7)"/>
<path d="M29.6128 133.019C29.6128 131.938 26.4737 131.072 22.2795 130.876C22.0397 126.687 21.1164 123.572 20.0349 123.574C18.9533 123.577 18.0541 126.716 17.8239 130.926C13.6176 131.214 10.4905 132.154 10.5049 133.238C10.5193 134.321 13.644 135.187 17.8382 135.381C18.09 139.57 19.0013 142.685 20.0804 142.682C21.1596 142.68 22.0636 139.541 22.2938 135.331C26.5001 135.043 29.6247 134.103 29.6128 133.019Z" style="fill:var(--sapContent_Illustrative_Color18)"/>
<path d="M297.169 172.858C297.169 171.953 294.54 171.228 291.028 171.063C290.828 167.556 290.054 164.947 289.149 164.949C288.243 164.951 287.49 167.58 287.297 171.105C283.775 171.346 281.157 172.133 281.169 173.041C281.181 173.948 283.798 174.673 287.31 174.836C287.52 178.343 288.283 180.951 289.187 180.949C290.091 180.947 290.848 178.319 291.04 174.794C294.562 174.553 297.179 173.766 297.169 172.858Z" style="fill:var(--sapContent_Illustrative_Color18)"/>
<path d="M200.832 50.3867C200.832 49.0284 196.889 47.9412 191.621 47.6942C191.32 42.4328 190.16 38.5207 188.802 38.5237C187.443 38.5267 186.314 42.469 186.025 47.7575C180.742 48.1189 176.814 49.2994 176.832 50.6607C176.85 52.022 180.775 53.1092 186.043 53.3531C186.359 58.6145 187.504 62.5267 188.859 62.5237C190.215 62.5207 191.35 58.5784 191.639 53.2899C196.922 52.9285 200.847 51.7479 200.832 50.3867Z" style="fill:var(--sapContent_Illustrative_Color18)"/>
<path fill-rule="evenodd" clip-rule="evenodd" d="M278.404 119.384L254.656 131.747L263.142 148.047L263.142 148.047C264.317 150.303 270.585 149.365 277.143 145.951C283.701 142.538 288.064 137.941 286.89 135.685C286.884 135.674 286.879 135.664 286.873 135.653L278.404 119.384Z" style="fill:var(--sapContent_Illustrative_Color20)"/>
<ellipse cx="266.518" cy="125.542" rx="13.3863" ry="4.60565" transform="rotate(-27.5 266.518 125.542)" style="fill:var(--sapContent_Illustrative_Color19)"/>
<path fill-rule="evenodd" clip-rule="evenodd" d="M270.741 114.314L254.897 122.561L257.826 128.188L257.827 128.188C257.827 128.188 257.827 128.188 257.827 128.188C258.558 129.593 262.698 128.885 267.073 126.608C271.448 124.33 274.402 121.345 273.671 119.94C273.667 119.933 273.663 119.926 273.659 119.919L270.741 114.314Z" style="fill:var(--sapContent_Illustrative_Color20)"/>
<ellipse cx="262.82" cy="118.437" rx="8.93099" ry="2.86759" transform="rotate(-27.5 262.82 118.437)" style="fill:var(--sapContent_Illustrative_Color19)"/>
<path fill-rule="evenodd" clip-rule="evenodd" d="M231.72 50.4442C232.548 48.7092 232.579 46.6201 231.623 44.7836C230.007 41.6783 226.179 40.4714 223.073 42.0879C219.968 43.7044 218.761 47.5323 220.378 50.6376C221.334 52.4748 223.064 53.6475 224.961 53.9641L258.077 117.578C259.048 119.445 261.349 120.17 263.216 119.199C265.082 118.227 265.808 115.926 264.836 114.06L231.72 50.4442Z" style="fill:var(--sapContent_Illustrative_Color19)"/>
<path d="M280.633 43.3261C283.066 42.9163 284.538 45.9264 282.72 47.5947L246.914 80.4592C246.342 80.9845 245.427 80.8236 245.068 80.1345L231.068 53.2409C230.698 52.5298 231.129 51.6644 231.919 51.5312L280.633 43.3261Z" style="fill:var(--sapContent_Illustrative_Color20)"/>
<path d="M279.562 45.5059C281.96 45.0678 283.483 47.9928 281.748 49.706L248.201 82.8427C247.636 83.4013 246.691 83.2529 246.324 82.5479L232.341 55.6866C231.974 54.9816 232.394 54.1226 233.176 53.9798L279.562 45.5059Z" style="fill:var(--sapContent_Illustrative_Color18)"/>
<path d="M150.505 157.312L119.735 130.727L242.501 144.862L272.03 170.717L150.505 157.312Z" style="fill:var(--sapContent_Illustrative_Color9)"/>
<path d="M119.755 130.759L150.443 157.23L137.534 189.423L107.505 161.432L119.755 130.759Z" style="fill:var(--sapContent_Illustrative_Color9)"/>
<path d="M150.426 157.272L271.992 170.718L259.492 202.018L137.534 189.523L150.426 157.272Z" style="fill:var(--sapContent_Illustrative_Color17)"/>
<path d="M189.586 128.508L158.816 101.923L240.355 112.206L270.107 138.048L189.586 128.508Z" style="fill:var(--sapContent_Illustrative_Color3)"/>
<path d="M158.836 101.957L189.524 128.429L176.957 160.152L146.586 132.63L158.836 101.957Z" style="fill:var(--sapContent_Illustrative_Color3)"/>
<path d="M189.507 128.469L270.161 138.02L257.66 169.32L176.881 160.227L189.507 128.469Z" style="fill:var(--sapContent_Illustrative_Color15)"/>
<path fill-rule="evenodd" clip-rule="evenodd" d="M191.585 105.893L172.491 98.2673L170.083 104.296L170.083 104.297C170.083 104.297 170.083 104.297 170.083 104.297C169.535 105.668 173.366 108.487 178.638 110.593C183.911 112.699 188.629 113.294 189.177 111.922C189.18 111.915 189.183 111.908 189.185 111.9L191.585 105.893Z" style="fill:var(--sapContent_Illustrative_Color15)"/>
<ellipse cx="182.037" cy="102.08" rx="10.2801" ry="2.67452" transform="rotate(21.7698 182.037 102.08)" style="fill:var(--sapContent_Illustrative_Color3)"/>
<path fill-rule="evenodd" clip-rule="evenodd" d="M217.988 109.447L198.895 101.822L196.487 107.851L196.487 107.851C196.487 107.851 196.487 107.851 196.487 107.851C195.939 109.223 199.769 112.042 205.042 114.147C210.314 116.253 215.033 116.848 215.581 115.476C215.582 115.473 215.583 115.469 215.585 115.465L217.988 109.447Z" style="fill:var(--sapContent_Illustrative_Color15)"/>
<ellipse cx="208.441" cy="105.634" rx="10.2801" ry="2.67452" transform="rotate(21.7698 208.441 105.634)" style="fill:var(--sapContent_Illustrative_Color3)"/>
<path fill-rule="evenodd" clip-rule="evenodd" d="M243.451 112.044L224.357 104.419L221.95 110.448L221.95 110.448C221.95 110.448 221.95 110.448 221.95 110.448C221.402 111.82 225.232 114.639 230.505 116.745C235.777 118.85 240.496 119.445 241.044 118.074C241.046 118.068 241.048 118.061 241.051 118.055L243.451 112.044Z" style="fill:var(--sapContent_Illustrative_Color15)"/>
<ellipse cx="233.904" cy="108.232" rx="10.2801" ry="2.67452" transform="rotate(21.7698 233.904 108.232)" style="fill:var(--sapContent_Illustrative_Color3)"/>
<path fill-rule="evenodd" clip-rule="evenodd" d="M258.511 127.685L239.417 120.06L237.009 126.089L237.009 126.089C237.009 126.089 237.009 126.089 237.009 126.089C236.461 127.461 240.292 130.28 245.564 132.386C250.837 134.491 255.555 135.086 256.103 133.715C256.104 133.711 256.106 133.707 256.107 133.704L258.511 127.685Z" style="fill:var(--sapContent_Illustrative_Color15)"/>
<ellipse cx="248.964" cy="123.873" rx="10.2801" ry="2.67452" transform="rotate(21.7698 248.964 123.873)" style="fill:var(--sapContent_Illustrative_Color3)"/>
<path fill-rule="evenodd" clip-rule="evenodd" d="M233.837 125.2L214.743 117.574L212.335 123.604L212.335 123.604C212.335 123.604 212.335 123.604 212.335 123.604C211.787 124.976 215.617 127.795 220.89 129.9C226.163 132.006 230.881 132.601 231.429 131.229C231.431 131.223 231.433 131.218 231.436 131.212L233.837 125.2Z" style="fill:var(--sapContent_Illustrative_Color15)"/>
<ellipse cx="224.289" cy="121.387" rx="10.2801" ry="2.67452" transform="rotate(21.7698 224.289 121.387)" style="fill:var(--sapContent_Illustrative_Color3)"/>
<path fill-rule="evenodd" clip-rule="evenodd" d="M207.432 121.646L188.338 114.021L185.931 120.05L185.931 120.05C185.931 120.05 185.931 120.05 185.931 120.05C185.383 121.422 189.213 124.241 194.486 126.346C199.758 128.452 204.477 129.047 205.024 127.675C205.026 127.672 205.027 127.668 205.028 127.665L207.432 121.646Z" style="fill:var(--sapContent_Illustrative_Color15)"/>
<ellipse cx="197.885" cy="117.833" rx="10.2801" ry="2.67452" transform="rotate(21.7698 197.885 117.833)" style="fill:var(--sapContent_Illustrative_Color3)"/>
<path fill-rule="evenodd" clip-rule="evenodd" d="M152.503 134.695L133.409 127.069L131.001 133.098L131.002 133.099C131.002 133.099 131.002 133.099 131.002 133.099C130.454 134.471 134.284 137.29 139.557 139.395C144.829 141.501 149.548 142.096 150.095 140.724C150.098 140.718 150.1 140.711 150.103 140.705L152.503 134.695Z" style="fill:var(--sapContent_Illustrative_Color17)"/>
<ellipse cx="142.956" cy="130.882" rx="10.2801" ry="2.67452" transform="rotate(21.7698 142.956 130.882)" style="fill:var(--sapContent_Illustrative_Color9)"/>
<path fill-rule="evenodd" clip-rule="evenodd" d="M168.352 150.448L149.258 142.822L146.851 148.848C146.851 148.849 146.85 148.85 146.85 148.852C146.302 150.223 150.132 153.042 155.405 155.148C160.678 157.254 165.396 157.849 165.944 156.477C165.944 156.477 165.944 156.477 165.944 156.477L168.352 150.448Z" style="fill:var(--sapContent_Illustrative_Color17)"/>
<ellipse cx="158.804" cy="146.635" rx="10.2801" ry="2.67452" transform="rotate(21.7698 158.804 146.635)" style="fill:var(--sapContent_Illustrative_Color9)"/>
<path d="M77.1365 91.0377L36.4812 91.8724L103.954 44.9503L143.356 44.2437L77.1365 91.0377Z" style="fill:var(--sapContent_Illustrative_Color2)"/>
<path d="M36.5187 91.8854L77.0368 91.0208L88.4099 121.876L47.9415 122.876L36.5187 91.8854Z" style="fill:var(--sapContent_Illustrative_Color14)"/>
<path d="M77.0516 91.0618L143.377 44.1877L155.033 75.812L88.4094 121.876L77.0516 91.0618Z" style="fill:var(--sapContent_Illustrative_Color13)"/>
<path fill-rule="evenodd" clip-rule="evenodd" d="M63.4877 72.8949L44.1963 80.0056L46.4416 86.0971L46.4417 86.097C46.4417 86.0971 46.4417 86.0972 46.4418 86.0972C46.9526 87.4832 51.6853 87.0149 57.0124 85.0513C62.3396 83.0877 66.244 80.3724 65.7331 78.9865C65.7316 78.9824 65.7301 78.9784 65.7285 78.9743L63.4877 72.8949Z" style="fill:var(--sapContent_Illustrative_Color14)"/>
<ellipse cx="53.8417" cy="76.4504" rx="10.2801" ry="2.67452" transform="rotate(-20.2337 53.8417 76.4504)" style="fill:var(--sapContent_Illustrative_Color13)"/>
<path fill-rule="evenodd" clip-rule="evenodd" d="M85.4872 57.8668L66.1958 64.9775L68.4411 71.069L68.4414 71.0689C68.4414 71.069 68.4414 71.0691 68.4415 71.0692C68.9523 72.4551 73.685 71.9869 79.0122 70.0233C84.3393 68.0597 88.2437 65.3444 87.7329 63.9584C87.7305 63.952 87.728 63.9455 87.7254 63.9391L85.4872 57.8668Z" style="fill:var(--sapContent_Illustrative_Color14)"/>
<ellipse cx="75.8412" cy="61.4224" rx="10.2801" ry="2.67452" transform="rotate(-20.2337 75.8412 61.4224)" style="fill:var(--sapContent_Illustrative_Color13)"/>
<path fill-rule="evenodd" clip-rule="evenodd" d="M106.147 42.7577L86.856 49.8684L89.1013 55.9599L89.1013 55.9599C89.1013 55.96 89.1014 55.9601 89.1014 55.9602C89.6123 57.3462 94.3449 56.8779 99.6721 54.9143C104.999 52.9508 108.904 50.2354 108.393 48.8495C108.392 48.8477 108.391 48.8459 108.391 48.8441L106.147 42.7577Z" style="fill:var(--sapContent_Illustrative_Color14)"/>
<ellipse cx="96.5013" cy="46.3135" rx="10.2801" ry="2.67452" transform="rotate(-20.2337 96.5013 46.3135)" style="fill:var(--sapContent_Illustrative_Color13)"/>
<path fill-rule="evenodd" clip-rule="evenodd" d="M127.805 44.3033L108.513 51.4141L110.758 57.5055L110.759 57.5054C110.759 57.5055 110.759 57.5056 110.759 57.5057C111.27 58.8917 116.002 58.4234 121.33 56.4598C126.657 54.4962 130.561 51.7809 130.05 50.395C130.048 50.3885 130.045 50.3821 130.043 50.3757L127.805 44.3033Z" style="fill:var(--sapContent_Illustrative_Color14)"/>
<ellipse cx="118.159" cy="47.8589" rx="10.2801" ry="2.67452" transform="rotate(-20.2337 118.159 47.8589)" style="fill:var(--sapContent_Illustrative_Color13)"/>
<path fill-rule="evenodd" clip-rule="evenodd" d="M107.806 58.9679L88.5142 66.0786L90.7586 72.1677C90.7589 72.1686 90.7592 72.1695 90.7596 72.1704C91.2704 73.5564 96.0031 73.0881 101.33 71.1245C106.657 69.1609 110.562 66.4456 110.051 65.0597C110.051 65.0596 110.051 65.0595 110.051 65.0593L107.806 58.9679Z" style="fill:var(--sapContent_Illustrative_Color14)"/>
<ellipse cx="98.1595" cy="62.5237" rx="10.2801" ry="2.67452" transform="rotate(-20.2337 98.1595 62.5237)" style="fill:var(--sapContent_Illustrative_Color13)"/>
<path fill-rule="evenodd" clip-rule="evenodd" d="M85.806 73.9962L66.5146 81.1069L68.7599 87.1984L68.7602 87.1983C68.7602 87.1983 68.7602 87.1984 68.7603 87.1984C69.2711 88.5844 74.0038 88.1161 79.3309 86.1525C84.6581 84.189 88.5625 81.4736 88.0516 80.0877C88.0493 80.0813 88.0469 80.075 88.0443 80.0687L85.806 73.9962Z" style="fill:var(--sapContent_Illustrative_Color14)"/>
<ellipse cx="76.16" cy="77.5518" rx="10.2801" ry="2.67452" transform="rotate(-20.2337 76.16 77.5518)" style="fill:var(--sapContent_Illustrative_Color13)"/>
<rect x="59.3735" y="140.338" width="18.3605" height="45.4466" transform="rotate(44.3357 59.3735 140.338)" style="fill:var(--sapContent_Illustrative_Color18)"/>
<rect x="72.5059" y="153.17" width="35.3742" height="45.4466" transform="rotate(44.3357 72.5059 153.17)" style="fill:var(--sapContent_Illustrative_Color19)"/>
<rect x="82.126" y="162.569" width="21.9245" height="45.4466" transform="rotate(44.3357 82.126 162.569)" style="fill:var(--sapContent_Illustrative_Color20)"/>
<rect x="63.2246" y="162.669" width="16.9292" height="20.1533" transform="rotate(44.3357 63.2246 162.669)" style="fill:var(--sapContent_Illustrative_Color20)"/>
<path d="M74.1687 187.121C70.407 191.225 64.7503 192.162 61.5342 189.215C58.3181 186.267 58.7605 180.55 62.5222 176.446C66.284 172.342 71.9406 171.405 75.1567 174.352C78.3728 177.3 77.9305 183.017 74.1687 187.121Z" style="fill:var(--sapContent_Illustrative_Color20)"/>
<path fill-rule="evenodd" clip-rule="evenodd" d="M63.5613 187.003C65.0842 188.399 68.8268 188.509 71.9572 185.094C75.0875 181.679 74.6525 177.96 73.1296 176.564C71.6068 175.168 67.8641 175.058 64.7338 178.473C61.6034 181.888 62.0384 185.607 63.5613 187.003ZM61.5342 189.215C64.7503 192.162 70.407 191.225 74.1687 187.121C77.9305 183.017 78.3728 177.3 75.1567 174.352C71.9406 171.405 66.284 172.342 62.5222 176.446C58.7605 180.55 58.3181 186.267 61.5342 189.215Z" style="fill:var(--sapContent_Illustrative_Color19)"/>
<path fill-rule="evenodd" clip-rule="evenodd" d="M92.1511 177.957L72.5714 158.826L46.4015 185.61L65.9811 204.741L92.1511 177.957ZM72.5059 153.17L40.745 185.676L66.0467 210.397L97.8075 177.891L72.5059 153.17Z" style="fill:var(--sapContent_Illustrative_Color18)"/>
</svg>
