<svg width="160" height="160" viewBox="0 0 160 160" fill="none" xmlns="http://www.w3.org/2000/svg" id="tnt-Dialog-Lock">
<circle cx="80.1719" cy="79.8972" r="78.7607" style="fill:var(--sapContent_Illustrative_Color7)"/>
<path fill-rule="evenodd" clip-rule="evenodd" d="M29.982 140.598C25.9356 137.249 22.2297 133.503 18.9238 129.419H133.558C134.975 129.419 136.124 130.568 136.124 131.985V135.327C134.292 137.177 132.368 138.937 130.36 140.598H29.982Z" style="fill:var(--sapContent_Illustrative_Color18)"/>
<path fill-rule="evenodd" clip-rule="evenodd" d="M141.419 129.419C138.113 133.503 134.408 137.249 130.361 140.598H99.9567C98.5395 140.598 97.3906 139.45 97.3906 138.032V131.985C97.3906 130.568 98.5395 129.419 99.9567 129.419H141.419Z" style="fill:var(--sapContent_Illustrative_Color20)"/>
<path fill-rule="evenodd" clip-rule="evenodd" d="M2.63281 66.0026C4.0804 57.8699 6.77617 50.1691 10.515 43.1052H17.5951C18.7124 43.1052 19.6181 44.011 19.6181 45.1282V64.1445C19.6181 65.2618 18.7124 66.1675 17.5951 66.1675H3.43406C3.14942 66.1675 2.87851 66.1087 2.63281 66.0026Z" style="fill:var(--sapContent_Illustrative_Color18)"/>
<path fill-rule="evenodd" clip-rule="evenodd" d="M2.91113 64.5226C4.32148 57.3954 6.69343 50.6139 9.88616 44.3191H17.1908C17.8611 44.3191 18.4046 44.8625 18.4046 45.5329V63.74C18.4046 64.4103 17.8611 64.9538 17.1908 64.9538H3.83893C3.4668 64.9538 3.13379 64.7863 2.91113 64.5226Z" style="fill:var(--sapContent_Illustrative_Color7)"/>
<path fill-rule="evenodd" clip-rule="evenodd" d="M17.5957 64.8847V44.3882C18.067 44.5548 18.4047 45.0041 18.4049 45.5324V63.7405C18.4047 64.2688 18.067 64.7182 17.5957 64.8847Z" style="fill:var(--sapContent_Illustrative_Color19)"/>
<path fill-rule="evenodd" clip-rule="evenodd" d="M2.91113 64.5225C3.50121 61.5406 4.25961 58.6191 5.17603 55.7686C6.4797 56.2449 8.05046 57.153 9.30102 58.8846C11.9309 62.526 13.5493 64.9536 13.5493 64.9536H3.8389C3.46679 64.9536 3.13379 64.7862 2.91113 64.5225Z" style="fill:var(--sapContent_Illustrative_Color19)"/>
<path d="M12.6448 60.9707C11.9699 60.7917 11.308 61.01 10.5939 61.427C10.0502 61.7639 9.52427 62.1316 9.01833 62.5285C8.12161 63.2039 7.3297 64.022 6.6709 64.9537H15.9767C14.1122 63.1225 14.0749 61.3503 12.6448 60.9707Z" style="fill:var(--sapContent_Illustrative_Color20)"/>
<path d="M13.6642 54.9176C14.8448 54.9176 15.802 53.9942 15.802 52.8552C15.802 51.7161 14.8448 50.7927 13.6642 50.7927C12.4835 50.7927 11.5264 51.7161 11.5264 52.8552C11.5264 53.9942 12.4835 54.9176 13.6642 54.9176Z" style="fill:var(--sapContent_Illustrative_Color18)"/>
<path fill-rule="evenodd" clip-rule="evenodd" d="M29.9521 19.2213C35.1645 14.9023 40.9426 11.2421 47.1586 8.36841H52.4667C54.0211 8.36841 55.2811 9.62842 55.2811 11.1827V37.6374C55.2811 39.1917 54.0211 40.4517 52.4668 40.4517H32.7665C31.2122 40.4517 29.9521 39.1917 29.9521 37.6374V19.2213Z" style="fill:var(--sapContent_Illustrative_Color18)"/>
<path fill-rule="evenodd" clip-rule="evenodd" d="M31.6406 17.8608C35.409 14.9087 39.4531 12.2924 43.728 10.0571H51.9038C52.8364 10.0571 53.5924 10.8131 53.5924 11.7457V37.0747C53.5924 38.0072 52.8364 38.7632 51.9038 38.7632H33.3292C32.3966 38.7632 31.6406 38.0072 31.6406 37.0747V17.8608Z" style="fill:var(--sapContent_Illustrative_Color7)"/>
<path fill-rule="evenodd" clip-rule="evenodd" d="M52.4668 38.667V10.1531C53.1226 10.3849 53.5925 11.0104 53.5925 11.7456V37.0745C53.5925 37.8097 53.1226 38.4352 52.4668 38.667Z" style="fill:var(--sapContent_Illustrative_Color19)"/>
<path d="M43.1253 20.9246C43.3509 23.0368 43.4295 25.4671 41.8235 25.4803C39.8101 25.4961 39.7702 23.4882 39.5446 21.3695C39.319 19.2508 39.4312 17.4779 40.9328 17.3115C42.3416 17.1531 42.8985 18.8032 43.1253 20.9246Z" style="fill:var(--sapContent_Illustrative_Color18)"/>
<path d="M44.2935 18.923C44.9764 18.0956 45.1625 17.1067 44.7091 16.7141C44.2557 16.3216 43.3345 16.6741 42.6516 17.5014C41.9687 18.3288 41.7826 19.3177 42.236 19.7103C42.6894 20.1028 43.6106 19.7503 44.2935 18.923Z" style="fill:var(--sapContent_Illustrative_Color18)"/>
<path d="M46.2883 23.0685C46.2883 24.2817 45.7289 25.2598 45.0393 25.2664C43.3546 25.2823 43.6949 24.2949 43.7903 23.0685C43.8857 21.8421 44.3497 20.8864 45.0393 20.8705C46.3037 20.8402 46.2883 21.8487 46.2883 23.0685Z" style="fill:var(--sapContent_Illustrative_Color18)"/>
<path d="M47.2115 26.6394H37.9466C37.8369 26.6394 37.748 26.7304 37.748 26.8427V33.2491C37.748 33.3614 37.8369 33.4524 37.9466 33.4524H47.2115C47.3212 33.4524 47.41 33.3614 47.41 33.2491V26.8427C47.41 26.7304 47.3212 26.6394 47.2115 26.6394Z" style="fill:var(--sapContent_Illustrative_Color18)"/>
<path d="M47.2052 25.4988H37.9544C37.8447 25.4988 37.7559 25.5898 37.7559 25.7021V28.0017C37.7559 28.1139 37.8447 28.205 37.9544 28.205H47.2052C47.3148 28.205 47.4037 28.1139 47.4037 28.0017V25.7021C47.4037 25.5898 47.3148 25.4988 47.2052 25.4988Z" style="fill:var(--sapContent_Illustrative_Color19)"/>
<path d="M47.7655 24.6155H37.468C37.3584 24.6155 37.2695 24.7065 37.2695 24.8188V27.3388C37.2695 27.4511 37.3584 27.5421 37.468 27.5421H47.7655C47.8751 27.5421 47.964 27.4511 47.964 27.3388V24.8188C47.964 24.7065 47.8751 24.6155 47.7655 24.6155Z" style="fill:var(--sapContent_Illustrative_Color18)"/>
<rect x="27.9121" y="48.2261" width="114.253" height="73.098" rx="7.94417" style="fill:var(--sapContent_Illustrative_Color13)"/>
<rect x="27.9121" y="48.2261" width="89.0574" height="73.098" rx="7.94417" style="fill:var(--sapContent_Illustrative_Color2)"/>
<rect x="41.3037" y="61.5024" width="65.16" height="49.4338" rx="5.77758" style="fill:var(--sapContent_Illustrative_Color14)"/>
<rect x="39.8604" y="60.0579" width="65.16" height="49.4338" rx="5.77758" style="fill:var(--sapContent_Illustrative_Color19)"/>
<rect x="37.3818" y="66.4902" width="5.61819" height="15.6988" rx="2.80909" style="fill:var(--sapContent_Illustrative_Color13)"/>
<rect x="37.3818" y="76.9202" width="3.7464" height="1.45233" style="fill:var(--sapContent_Illustrative_Color2)"/>
<rect x="37.3818" y="87.8662" width="5.61819" height="15.6988" rx="2.80909" style="fill:var(--sapContent_Illustrative_Color13)"/>
<rect x="37.3818" y="98.2964" width="3.7464" height="1.45233" style="fill:var(--sapContent_Illustrative_Color2)"/>
<rect x="94.1006" y="68.4768" width="6.30333" height="32.5966" rx="3.15167" style="fill:var(--sapContent_Illustrative_Color14)"/>
<rect x="94.1006" y="68.4768" width="4.75371" height="32.5966" rx="2.37686" style="fill:var(--sapContent_Illustrative_Color2)"/>
<circle cx="69.2918" cy="85.8997" r="18.3827" style="fill:var(--sapContent_Illustrative_Color20)"/>
<circle cx="68.5536" cy="85.1617" r="18.3827" style="fill:var(--sapContent_Illustrative_Color7)"/>
<circle cx="68.9156" cy="85.5231" r="11.7897" style="fill:var(--sapContent_Illustrative_Color15)"/>
<circle cx="68.193" cy="84.8007" r="11.7897" style="fill:var(--sapContent_Illustrative_Color3)"/>
<circle cx="68.915" cy="85.5229" r="4.68547" style="fill:var(--sapContent_Illustrative_Color15)"/>
<circle cx="68.1923" cy="84.8009" r="4.68547" style="fill:var(--sapContent_Illustrative_Color18)"/>
<path fill-rule="evenodd" clip-rule="evenodd" d="M68.4094 74.551C68.6088 74.551 68.7705 74.7127 68.7705 74.9121L68.7705 78.2121C68.7705 78.4115 68.6088 78.5732 68.4094 78.5732C68.21 78.5732 68.0483 78.4115 68.0483 78.2121L68.0483 74.9121C68.0483 74.7127 68.21 74.551 68.4094 74.551Z" style="fill:var(--sapContent_Illustrative_Color4)"/>
<path fill-rule="evenodd" clip-rule="evenodd" d="M68.4094 91.0293C68.6088 91.0293 68.7705 91.191 68.7705 91.3904L68.7705 94.6904C68.7705 94.8898 68.6088 95.0515 68.4094 95.0515C68.21 95.0515 68.0483 94.8898 68.0483 94.6904L68.0483 91.3904C68.0483 91.191 68.21 91.0293 68.4094 91.0293Z" style="fill:var(--sapContent_Illustrative_Color4)"/>
<path fill-rule="evenodd" clip-rule="evenodd" d="M78.2979 85.1623C78.2979 85.3618 78.1362 85.5234 77.9368 85.5234L74.6368 85.5234C74.4374 85.5234 74.2757 85.3618 74.2757 85.1623C74.2757 84.9629 74.4374 84.8012 74.6368 84.8012L77.9368 84.8012C78.1362 84.8012 78.2979 84.9629 78.2979 85.1623Z" style="fill:var(--sapContent_Illustrative_Color4)"/>
<path fill-rule="evenodd" clip-rule="evenodd" d="M61.8193 85.1623C61.8193 85.3618 61.6577 85.5234 61.4582 85.5234L58.1583 85.5234C57.9588 85.5234 57.7972 85.3618 57.7972 85.1623C57.7972 84.9629 57.9588 84.8012 58.1583 84.8012L61.4582 84.8012C61.6577 84.8012 61.8193 84.9629 61.8193 85.1623Z" style="fill:var(--sapContent_Illustrative_Color4)"/>
<path fill-rule="evenodd" clip-rule="evenodd" d="M75.0395 92.305C74.8985 92.446 74.6699 92.446 74.5288 92.305L72.1954 89.9715C72.0544 89.8305 72.0544 89.6019 72.1954 89.4609C72.3364 89.3199 72.5651 89.3199 72.7061 89.4609L75.0395 91.7943C75.1805 91.9353 75.1805 92.1639 75.0395 92.305Z" style="fill:var(--sapContent_Illustrative_Color4)"/>
<path fill-rule="evenodd" clip-rule="evenodd" d="M63.3891 80.6526C63.2481 80.7936 63.0195 80.7936 62.8785 80.6526L60.545 78.3192C60.404 78.1782 60.404 77.9495 60.545 77.8085C60.686 77.6675 60.9147 77.6675 61.0557 77.8085L63.3891 80.142C63.5301 80.283 63.5301 80.5116 63.3891 80.6526Z" style="fill:var(--sapContent_Illustrative_Color4)"/>
<path fill-rule="evenodd" clip-rule="evenodd" d="M75.5513 77.8091C75.6923 77.9501 75.6923 78.1788 75.5513 78.3198L73.2179 80.6532C73.0769 80.7942 72.8482 80.7942 72.7072 80.6532C72.5662 80.5122 72.5662 80.2836 72.7072 80.1425L75.0406 77.8091C75.1817 77.6681 75.4103 77.6681 75.5513 77.8091Z" style="fill:var(--sapContent_Illustrative_Color4)"/>
<path fill-rule="evenodd" clip-rule="evenodd" d="M63.8999 89.4612C64.041 89.6022 64.041 89.8309 63.8999 89.9719L61.5665 92.3053C61.4255 92.4463 61.1969 92.4463 61.0558 92.3053C60.9148 92.1643 60.9148 91.9357 61.0558 91.7946L63.3893 89.4612C63.5303 89.3202 63.7589 89.3202 63.8999 89.4612Z" style="fill:var(--sapContent_Illustrative_Color4)"/>
<path d="M68.6614 71.5527C68.4416 71.9334 67.8922 71.9334 67.6724 71.5527L66.3541 69.2694C66.1344 68.8887 66.4091 68.4129 66.8486 68.4129L69.4852 68.4129C69.9247 68.4129 70.1994 68.8887 69.9796 69.2694L68.6614 71.5527Z" style="fill:var(--sapContent_Illustrative_Color3)"/>
<path d="M38.04 121.352H54.1762L48.5928 128.663C48.2287 129.14 47.6631 129.42 47.0632 129.42H39.9646C38.9017 129.42 38.04 128.558 38.04 127.495V121.352Z" style="fill:var(--sapContent_Illustrative_Color13)"/>
<path fill-rule="evenodd" clip-rule="evenodd" d="M51.9484 124.269H38.04V121.352H54.1762L51.9484 124.269Z" style="fill:var(--sapContent_Illustrative_Color14)"/>
<path d="M64.1836 121.351H80.3198L74.7363 128.663C74.3723 129.14 73.8067 129.419 73.2068 129.419H66.1081C65.0452 129.419 64.1836 128.558 64.1836 127.495V121.351Z" style="fill:var(--sapContent_Illustrative_Color14)"/>
<path fill-rule="evenodd" clip-rule="evenodd" d="M77.2394 125.385H64.1836V121.351H80.3198L77.2394 125.385Z" style="fill:var(--sapContent_Illustrative_Color14)"/>
<path d="M106.466 121.351H90.3296L95.9131 128.662C96.2772 129.139 96.8427 129.419 97.4426 129.419H104.541C105.604 129.419 106.466 128.557 106.466 127.494V121.351Z" style="fill:var(--sapContent_Illustrative_Color13)"/>
<path fill-rule="evenodd" clip-rule="evenodd" d="M92.5575 124.268H106.466V121.351H90.3296L92.5575 124.268Z" style="fill:var(--sapContent_Illustrative_Color14)"/>
<path d="M132.612 121.351H116.476L122.06 128.663C122.424 129.14 122.989 129.419 123.589 129.419H130.688C131.751 129.419 132.612 128.558 132.612 127.495V121.351Z" style="fill:var(--sapContent_Illustrative_Color14)"/>
<path fill-rule="evenodd" clip-rule="evenodd" d="M119.557 125.385H132.612V121.351H116.476L119.557 125.385Z" style="fill:var(--sapContent_Illustrative_Color14)"/>
</svg>
