<svg width="321" height="240" viewBox="0 0 321 240" fill="none" xmlns="http://www.w3.org/2000/svg" id="tnt-Scene-Radar">
<path d="M305.879 20.0059H14.7857C12.8883 20.0041 11.0092 20.3763 9.25567 21.1012C7.50219 21.8261 5.90876 22.8895 4.56647 24.2305C3.22418 25.5716 2.15935 27.164 1.43284 28.9168C0.706324 30.6696 0.332381 32.5485 0.332382 34.4459V205.553C0.332382 209.386 1.85513 213.062 4.56566 215.773C7.27618 218.483 10.9524 220.006 14.7857 220.006H305.879C309.712 220.006 313.389 218.483 316.099 215.773C318.81 213.062 320.332 209.386 320.332 205.553V34.4459C320.332 32.5485 319.958 30.6696 319.232 28.9168C318.505 27.164 317.441 25.5716 316.098 24.2305C314.756 22.8895 313.163 21.8261 311.409 21.1012C309.656 20.3763 307.776 20.0041 305.879 20.0059V20.0059Z" style="fill:var(--sapContent_Illustrative_Color7)"/>
<path d="M177.349 124.242H177.35C181.116 124.242 184.169 127.294 184.169 131.06V141.57C184.169 145.335 181.116 148.388 177.35 148.388H177.349C173.583 148.388 170.53 145.335 170.53 141.57V131.06C170.53 127.294 173.583 124.242 177.349 124.242Z" style="fill:var(--sapContent_Illustrative_Color18)"/>
<path d="M176.726 135.291C176.726 134.922 177.024 134.624 177.393 134.624C177.762 134.624 178.06 134.922 178.06 135.291V160.908C178.06 161.276 177.762 161.575 177.393 161.575C177.024 161.575 176.726 161.276 176.726 160.908V135.291Z" style="fill:var(--sapContent_Illustrative_Color19)"/>
<path d="M191.501 137.575H191.502C194.816 137.575 197.502 140.261 197.502 143.575V145.598C197.502 148.911 194.816 151.597 191.502 151.597H191.501C188.188 151.597 185.502 148.911 185.502 145.598V143.575C185.502 140.261 188.188 137.575 191.501 137.575Z" style="fill:var(--sapContent_Illustrative_Color18)"/>
<path d="M191.07 145.757C191.07 145.542 191.245 145.367 191.461 145.367C191.676 145.367 191.851 145.542 191.851 145.757V160.751C191.851 160.967 191.676 161.142 191.461 161.142C191.245 161.142 191.07 160.967 191.07 160.751V145.757Z" style="fill:var(--sapContent_Illustrative_Color19)"/>
<path d="M15.5014 149.575H15.5021C18.8156 149.575 21.5018 152.261 21.5018 155.575V157.598C21.5018 160.911 18.8156 163.597 15.5021 163.597H15.5014C12.1879 163.597 9.50175 160.911 9.50175 157.598V155.575C9.50175 152.261 12.1879 149.575 15.5014 149.575Z" style="fill:var(--sapContent_Illustrative_Color18)"/>
<path d="M15.0701 157.757C15.0701 157.542 15.245 157.367 15.4607 157.367C15.6765 157.367 15.8514 157.542 15.8514 157.757V172.751C15.8514 172.967 15.6765 173.142 15.4607 173.142C15.245 173.142 15.0701 172.967 15.0701 172.751V157.757Z" style="fill:var(--sapContent_Illustrative_Color19)"/>
<rect x="263.264" y="123.521" width="16.2738" height="68.1082" style="fill:var(--sapContent_Illustrative_Color19)"/>
<rect x="279.538" y="123.521" width="25.6371" height="68.1082" style="fill:var(--sapContent_Illustrative_Color18)"/>
<path fill-rule="evenodd" clip-rule="evenodd" d="M290.214 141.513H286.398C286.068 141.513 285.8 141.246 285.8 140.915V133.757C285.8 133.427 286.068 133.158 286.398 133.158H290.214C290.545 133.158 290.813 133.427 290.813 133.757V140.915C290.813 141.246 290.545 141.513 290.214 141.513Z" style="fill:var(--sapContent_Illustrative_Color19)"/>
<path fill-rule="evenodd" clip-rule="evenodd" d="M298.314 141.513H294.498C294.168 141.513 293.9 141.246 293.9 140.915V133.757C293.9 133.427 294.168 133.158 294.498 133.158H298.314C298.645 133.158 298.913 133.427 298.913 133.757V140.915C298.913 141.246 298.645 141.513 298.314 141.513Z" style="fill:var(--sapContent_Illustrative_Color19)"/>
<path fill-rule="evenodd" clip-rule="evenodd" d="M290.214 155.066H286.398C286.068 155.066 285.8 154.798 285.8 154.467V147.31C285.8 146.979 286.068 146.711 286.398 146.711H290.214C290.545 146.711 290.813 146.979 290.813 147.31V154.467C290.813 154.798 290.545 155.066 290.214 155.066Z" style="fill:var(--sapContent_Illustrative_Color19)"/>
<path fill-rule="evenodd" clip-rule="evenodd" d="M290.214 167.382H286.398C286.068 167.382 285.8 167.114 285.8 166.783V159.625C285.8 159.295 286.068 159.027 286.398 159.027H290.214C290.545 159.027 290.813 159.295 290.813 159.625V166.783C290.813 167.114 290.545 167.382 290.214 167.382Z" style="fill:var(--sapContent_Illustrative_Color19)"/>
<path fill-rule="evenodd" clip-rule="evenodd" d="M298.314 155.066H294.498C294.168 155.066 293.9 154.798 293.9 154.467V147.31C293.9 146.979 294.168 146.711 294.498 146.711H298.314C298.645 146.711 298.913 146.979 298.913 147.31V154.467C298.913 154.798 298.645 155.066 298.314 155.066Z" style="fill:var(--sapContent_Illustrative_Color19)"/>
<path fill-rule="evenodd" clip-rule="evenodd" d="M298.314 167.382H294.498C294.168 167.382 293.9 167.114 293.9 166.783V159.625C293.9 159.295 294.168 159.027 294.498 159.027H298.314C298.645 159.027 298.913 159.295 298.913 159.625V166.783C298.913 167.114 298.645 167.382 298.314 167.382Z" style="fill:var(--sapContent_Illustrative_Color19)"/>
<path fill-rule="evenodd" clip-rule="evenodd" d="M245.398 196.673H234.533V133.491V123.357H245.398V196.673Z" style="fill:var(--sapContent_Illustrative_Color18)"/>
<path d="M245.392 138.919C240.095 138.162 235.945 136.232 234.533 135.362L245.392 134.492V138.919Z" style="fill:var(--sapContent_Illustrative_Color20)"/>
<path fill-rule="evenodd" clip-rule="evenodd" d="M255.979 133.731L255.133 133.953C244.746 136.674 233.823 136.597 223.475 133.731V133.731C223.185 133.731 222.936 133.522 222.886 133.236L218.009 105.411C217.945 105.045 218.227 104.709 218.599 104.709H239.727H260.856C261.228 104.709 261.509 105.045 261.446 105.411L256.568 133.236C256.519 133.522 256.27 133.731 255.979 133.731Z" style="fill:var(--sapContent_Illustrative_Color19)"/>
<ellipse cx="239.727" cy="105.04" rx="21.5984" ry="2.26575" style="fill:var(--sapContent_Illustrative_Color20)"/>
<path fill-rule="evenodd" clip-rule="evenodd" d="M242.423 121.771C241.866 121.782 241.411 121.332 241.411 120.775V113.774C241.411 113.226 241.851 112.781 242.398 112.77C243.637 112.745 244.843 112.702 246.017 112.644C246.591 112.615 247.076 113.071 247.076 113.647V120.654C247.076 121.185 246.661 121.623 246.13 121.649C244.924 121.706 243.689 121.747 242.423 121.771ZM251.154 121.309C250.573 121.361 250.076 120.901 250.076 120.317V113.288C250.076 112.768 250.473 112.336 250.99 112.287C252.233 112.17 253.435 112.035 254.599 111.884C255.202 111.806 255.74 112.273 255.74 112.881V119.932C255.74 120.435 255.367 120.86 254.868 120.92C253.667 121.066 252.429 121.197 251.154 121.309ZM258.793 120.37C258.765 120.374 258.74 120.353 258.74 120.325V111.902C258.74 111.528 259.016 111.207 259.384 111.14V111.14C259.916 111.043 260.378 111.505 260.284 112.036L258.83 120.333C258.827 120.352 258.812 120.367 258.793 120.37V120.37ZM220.615 120.277C220.632 120.377 220.711 120.455 220.811 120.47V120.47C220.954 120.491 221.082 120.381 221.082 120.237V112.189C221.082 111.736 220.743 111.348 220.296 111.272V111.272C219.661 111.163 219.114 111.716 219.225 112.351L220.615 120.277ZM237.42 112.778C237.969 112.787 238.411 113.233 238.411 113.782V120.783C238.411 121.338 237.958 121.788 237.403 121.779C236.138 121.76 234.903 121.724 233.698 121.674C233.165 121.652 232.747 121.212 232.747 120.679V113.674C232.747 113.101 233.227 112.645 233.799 112.67C234.974 112.722 236.181 112.758 237.42 112.778ZM228.824 112.352C229.345 112.396 229.747 112.83 229.747 113.352V120.377C229.747 120.958 229.254 121.416 228.676 121.37C227.402 121.268 226.165 121.148 224.964 121.014C224.461 120.958 224.082 120.531 224.082 120.024V112.981C224.082 112.377 224.613 111.911 225.212 111.983C226.377 112.122 227.58 112.245 228.824 112.352Z" style="fill:var(--sapContent_Illustrative_Color18)"/>
<rect x="273.26" y="150.688" width="9.42172" height="35.616" style="fill:var(--sapContent_Illustrative_Color19)"/>
<path fill-rule="evenodd" clip-rule="evenodd" d="M253.064 189.281H273.26V150.906C273.26 150.686 273.137 150.484 272.941 150.382L253.934 140.509C253.537 140.303 253.064 140.591 253.064 141.038V189.281Z" style="fill:var(--sapContent_Illustrative_Color18)"/>
<path fill-rule="evenodd" clip-rule="evenodd" d="M268.921 163.993H265.105C264.774 163.993 264.507 163.726 264.507 163.395V156.237C264.507 155.907 264.774 155.638 265.105 155.638H268.921C269.252 155.638 269.52 155.907 269.52 156.237V163.395C269.52 163.726 269.252 163.993 268.921 163.993Z" style="fill:var(--sapContent_Illustrative_Color19)"/>
<path fill-rule="evenodd" clip-rule="evenodd" d="M268.921 175.736H265.105C264.774 175.736 264.507 175.469 264.507 175.138V167.98C264.507 167.65 264.774 167.382 265.105 167.382H268.921C269.252 167.382 269.52 167.65 269.52 167.98V175.138C269.52 175.469 269.252 175.736 268.921 175.736Z" style="fill:var(--sapContent_Illustrative_Color19)"/>
<path d="M273.34 150.687L253.796 140.538H262.716L282.697 150.687H273.34Z" style="fill:var(--sapContent_Illustrative_Color20)"/>
<path fill-rule="evenodd" clip-rule="evenodd" d="M320.332 196.076C313.288 192.687 297.313 187.906 263.201 177.696L261.475 177.18C258.955 176.425 256.53 175.7 254.196 175.001C198.369 158.293 194.774 157.217 184.657 155.486C161.148 151.459 135.293 147.035 102.627 151.342C89.6426 153.063 81.6061 155.361 72.8534 157.863C62.8475 160.724 51.9056 163.852 31.5661 166.692C18.0795 168.582 11.1401 170.141 0.332382 172.832V205.553C0.332382 209.386 1.85513 213.062 4.56566 215.773C7.27618 218.483 10.9524 220.006 14.7857 220.006H305.879C309.712 220.006 313.389 218.483 316.099 215.773C318.81 213.062 320.332 209.386 320.332 205.553V196.076Z" style="fill:var(--sapContent_Illustrative_Color18)"/>
<path d="M119.611 183.282C121.59 170.023 132.976 160.209 146.382 160.209V160.209C159.788 160.209 171.175 170.023 173.154 183.282L178.631 219.984L114.134 219.984L119.611 183.282Z" style="fill:var(--sapContent_Illustrative_Color13)"/>
<path fill-rule="evenodd" clip-rule="evenodd" d="M149.627 204.202C146.235 194.453 143.088 185.411 148.41 181.121C154.772 175.993 157.401 169.561 157.69 162.772C154.23 161.111 150.395 160.193 146.381 160.193C132.95 160.193 121.518 170.478 119.435 184.435L114.133 219.967L154.041 219.967C153.359 214.93 151.457 209.463 149.627 204.202Z" style="fill:var(--sapContent_Illustrative_Color14)"/>
<ellipse cx="26.2931" cy="31.5722" rx="26.2931" ry="31.5722" transform="matrix(0.504307 0.863525 -0.811889 0.583813 146.036 109.771)" style="fill:var(--sapContent_Illustrative_Color13)"/>
<path fill-rule="evenodd" clip-rule="evenodd" d="M139.008 121.66C141.596 123.17 143.918 125.199 145.853 127.748C155.492 140.447 151.888 161.253 137.803 174.22C135.206 176.611 132.434 178.568 129.579 180.091C120.666 180.654 112.483 176.958 108.03 169.334C100.707 156.794 106.246 138.377 120.403 128.197C126.36 123.914 132.892 121.771 139.008 121.66Z" style="fill:var(--sapContent_Illustrative_Color14)"/>
<path d="M138.341 161.259C108.638 190.963 67.9118 196.326 50.1238 180.538C28.7306 161.55 37.2319 119.556 66.9354 89.853C96.639 60.1494 140.349 50.4187 158.164 68.2341C175.98 86.0496 168.045 131.555 138.341 161.259Z" style="fill:var(--sapContent_Illustrative_Color2)"/>
<path d="M133.342 154.384C104.162 183.564 64.1987 193.344 49.5528 176.198C32.8453 156.638 39.9679 119.37 69.1482 90.1901C98.3284 61.0099 139.273 53.0167 155.289 69.0328C171.305 85.0488 162.522 125.204 133.342 154.384Z" style="fill:var(--sapContent_Illustrative_Color8)"/>
<path fill-rule="evenodd" clip-rule="evenodd" d="M117.491 64.1248C101.892 67.7027 84.6093 76.8503 70.2088 91.2508C55.7931 105.666 46.8791 122.029 43.6085 137.119C40.3349 152.224 42.7329 165.904 50.6933 175.224C57.4523 183.137 70.3492 185.11 85.626 181.21C100.807 177.335 117.861 167.744 132.281 153.323C146.692 138.913 156.036 121.817 159.807 106.415C163.598 90.9315 161.688 77.5528 154.228 70.0934C146.76 62.6248 133.172 60.5278 117.491 64.1248ZM116.82 61.2008C132.91 57.5102 147.802 59.4246 156.35 67.9721C164.906 76.5288 166.612 91.2357 162.721 107.129C158.81 123.103 149.172 140.675 134.403 155.445C119.643 170.204 102.126 180.094 86.3681 184.117C70.7067 188.115 56.2991 186.405 48.4122 177.172C39.6652 166.932 37.2708 152.198 40.6766 136.484C44.0856 120.755 53.323 103.894 68.0875 89.1295C82.8673 74.3496 100.647 64.9106 116.82 61.2008Z" style="fill:var(--sapContent_Illustrative_Color2)"/>
<path fill-rule="evenodd" clip-rule="evenodd" d="M158.839 110.144C157.392 106.861 155.454 103.946 153.019 101.512C137.003 85.4956 99.3738 90.1738 74.1468 115.401C55.1972 134.35 48.1596 158.397 52.9939 177.4C52.0657 176.641 51.207 175.803 50.4239 174.884C34.2151 155.876 41.3605 119.459 69.9967 90.8227C98.633 62.1865 138.644 54.1723 154.196 69.7244C162.578 78.106 163.892 93.3688 158.839 110.144Z" style="fill:var(--sapContent_Illustrative_Color18)"/>
<ellipse cx="115.983" cy="140.324" rx="8.33199" ry="16.4392" transform="rotate(43.5117 115.983 140.324)" style="fill:var(--sapContent_Illustrative_Color4)"/>
<path d="M79.6719 104.131C79.3211 103.715 79.3489 103.098 79.7359 102.715V102.715C80.1375 102.318 80.7823 102.311 81.1916 102.701L116.505 136.318C118.113 137.849 118.036 140.438 116.338 141.87V141.87C114.763 143.198 112.409 142.997 111.082 141.422L79.6719 104.131Z" style="fill:var(--sapContent_Illustrative_Color5)"/>
<circle cx="78.5938" cy="101.644" r="4.20755" transform="rotate(10.0415 78.5938 101.644)" style="fill:var(--sapContent_Illustrative_Color4)"/>
<path d="M88.2629 62.8253L88.029 86.1686C88.0296 86.2133 88.0422 86.2569 88.0654 86.2949C88.0887 86.3329 88.1218 86.3638 88.1612 86.3844C88.2007 86.405 88.245 86.4145 88.2897 86.412C88.3343 86.4095 88.3775 86.395 88.4149 86.3701L96.0404 81.1382C96.0708 81.1173 96.1053 81.1033 96.1416 81.0973C96.1778 81.0914 96.2149 81.0936 96.25 81.1038C96.2852 81.1139 96.3175 81.1319 96.3448 81.1562C96.372 81.1806 96.3934 81.2107 96.4074 81.2445L101.807 94.1396C101.828 94.1928 101.867 94.2368 101.918 94.264C101.968 94.2912 102.026 94.2998 102.083 94.2884C102.139 94.2771 102.19 94.2464 102.227 94.2017C102.263 94.157 102.283 94.1011 102.283 94.0436L102.669 70.5882C102.67 70.5433 102.658 70.4993 102.635 70.4608C102.612 70.4224 102.579 70.3911 102.539 70.3702C102.5 70.3493 102.455 70.3397 102.41 70.3423C102.366 70.3449 102.322 70.3597 102.285 70.3851L94.5819 75.7396C94.5513 75.7604 94.5165 75.7742 94.4801 75.78C94.4437 75.7859 94.4066 75.7837 94.3713 75.7736C94.336 75.7635 94.3034 75.7457 94.2758 75.7215C94.2483 75.6973 94.2265 75.6673 94.2119 75.6336L88.7392 62.7263C88.7178 62.673 88.6783 62.6289 88.6277 62.6019C88.5771 62.5749 88.5184 62.5665 88.4619 62.5783C88.4054 62.59 88.3546 62.6211 88.3182 62.6663C88.2819 62.7114 88.2623 62.7676 88.2629 62.8253Z" style="fill:var(--sapContent_Illustrative_Color3)"/>
<path d="M38.7385 61.739L46.0111 83.9217C46.026 83.9638 46.052 84.0011 46.0862 84.0296C46.1204 84.0581 46.1616 84.0767 46.2056 84.0836C46.2496 84.0904 46.2947 84.0852 46.3361 84.0685C46.3776 84.0518 46.4139 84.0242 46.4413 83.9886L51.9835 76.5856C52.0055 76.556 52.0338 76.5317 52.0662 76.5144C52.0986 76.4971 52.1344 76.4873 52.171 76.4857C52.2075 76.484 52.2439 76.4906 52.2775 76.5049C52.3111 76.5192 52.3411 76.5409 52.3652 76.5685L61.6186 87.0475C61.6558 87.0911 61.707 87.1202 61.7634 87.1298C61.8199 87.1394 61.878 87.1288 61.9277 87.0999C61.9775 87.071 62.0159 87.0256 62.0362 86.9716C62.0565 86.9175 62.0575 86.8581 62.039 86.8036L54.8745 64.466C54.8604 64.4233 54.8349 64.3854 54.8009 64.3564C54.7668 64.3274 54.7255 64.3083 54.6814 64.3012C54.6372 64.2941 54.5919 64.2993 54.5503 64.3162C54.5087 64.333 54.4724 64.361 54.4452 64.397L48.8691 71.941C48.8467 71.9705 48.8182 71.9947 48.7856 72.012C48.753 72.0292 48.7171 72.039 48.6805 72.0408C48.6438 72.0425 48.6072 72.0362 48.5734 72.0221C48.5395 72.008 48.5092 71.9866 48.4846 71.9593L39.1578 61.4923C39.1204 61.4486 39.0689 61.4196 39.0123 61.4102C38.9557 61.4009 38.8975 61.4118 38.8477 61.4411C38.798 61.4704 38.7598 61.5161 38.7399 61.5706C38.7199 61.625 38.7195 61.6845 38.7385 61.739Z" style="fill:var(--sapContent_Illustrative_Color3)"/>
<path d="M198.895 56.1409H204.361C204.361 53.194 205.507 50.3679 207.549 48.2842C209.59 46.2004 212.358 45.0298 215.245 45.0298H250.46C253.346 45.0298 256.115 46.2004 258.156 48.2842C260.197 50.3679 261.344 53.194 261.344 56.1409C261.344 59.0877 260.197 61.9139 258.156 63.9977C256.115 66.0814 253.346 67.252 250.46 67.252H244.994C244.994 70.1989 243.848 73.025 241.806 75.1088C239.765 77.1925 236.997 78.3631 234.11 78.3631H198.895C196.009 78.3631 193.24 77.1925 191.199 75.1088C189.158 73.025 188.011 70.1989 188.011 67.252C188.011 64.3052 189.158 61.479 191.199 59.3953C193.24 57.3115 196.009 56.1409 198.895 56.1409V56.1409Z" style="fill:var(--sapContent_Illustrative_Color18)"/>
</svg>
