<svg width="128" height="128" viewBox="0 0 128 128" fill="none" xmlns="http://www.w3.org/2000/svg" id="tnt-Spot-Teams">
<circle cx="64" cy="64" r="64" style="fill:var(--sapContent_Illustrative_Color7)"/>
<path fill-rule="evenodd" clip-rule="evenodd" d="M3.56384 42.8884C8.0287 30.1059 16.4343 19.1725 27.3246 11.5442C37.2872 13.5608 44.7871 22.3664 44.7871 32.9238C44.7871 44.971 35.0209 54.7373 22.9736 54.7373C14.5164 54.7373 7.18336 49.9245 3.56384 42.8884Z" style="fill:var(--sapContent_Illustrative_Color19)"/>
<path d="M18.9415 38.2816C18.8665 38.4997 17.2066 37.542 15.6217 38.2816C13.7369 39.1576 13.546 41.69 13.1302 41.6014C12.653 41.5025 11.9816 37.9544 13.8698 36.7138C15.908 35.3709 19.0471 37.9714 18.9415 38.2816Z" style="fill:var(--sapContent_Illustrative_Color20)"/>
<path d="M28.4372 22.0102C28.3622 22.2283 26.7023 21.274 25.1174 22.0102C23.2326 22.8895 23.0417 25.4185 22.6259 25.3333C22.1488 25.231 21.4773 21.683 23.3655 20.4423C25.4037 19.1028 28.5428 21.7034 28.4372 22.0102Z" style="fill:var(--sapContent_Illustrative_Color20)"/>
<path d="M34.8995 34.5562C34.8245 34.771 33.1646 33.8166 31.5797 34.5562C29.6949 35.4322 29.504 37.9646 29.0882 37.876C28.611 37.7737 27.9396 34.2256 29.8278 32.9884C31.866 31.6455 34.9949 34.2461 34.8995 34.5562Z" style="fill:var(--sapContent_Illustrative_Color20)"/>
<path fill-rule="evenodd" clip-rule="evenodd" d="M3.56348 42.8895C3.74664 42.3651 3.93644 41.8438 4.13277 41.3257C6.77439 44.1759 10.1465 46.2862 13.9145 47.4066C18.8766 48.8822 24.2017 48.5448 28.9379 46.4549C33.6742 44.3651 37.5128 40.6589 39.7676 35.9989C42.0224 31.3389 42.5464 26.0289 41.2459 21.0181C42.971 23.6675 44.0996 26.6602 44.5535 29.789C45.0075 32.9178 44.7758 36.1078 43.8747 39.1382C42.9736 42.1686 41.4245 44.967 39.3348 47.3394C37.245 49.7118 34.6646 51.6016 31.7721 52.8779C28.8796 54.1542 25.7443 54.7865 22.5832 54.7311C19.4221 54.6756 16.3109 53.9336 13.465 52.5566C10.6191 51.1796 8.10654 49.2004 6.10133 46.7561C5.11786 45.5573 4.26796 44.2607 3.56348 42.8895Z" style="fill:var(--sapContent_Illustrative_Color20)"/>
<path fill-rule="evenodd" clip-rule="evenodd" d="M127.999 64.3595C128 64.2397 128 64.1198 128 63.9998C128 62.5011 127.948 61.0144 127.847 59.5414C127.415 59.7019 126.983 59.8631 126.552 60.0243C121.52 61.9031 116.504 63.7765 111.208 64.4338C109.16 64.6879 106.697 64.7842 104.043 64.888C93.2119 65.3115 79.1863 65.86 77.1376 77.7596C74.9113 90.6907 88.6522 103.329 98.7432 108.895C101.111 110.202 103.621 111.34 106.233 112.088C107.069 111.354 107.885 110.598 108.681 109.821C98.6569 107.667 89.2768 98.3861 84.5524 90.2119C81.9566 85.7206 79.4965 78.9709 83.7964 74.6882C88.0433 70.4584 95.392 70.1342 100.97 69.9916C107.354 69.8285 118.377 68.1479 127.999 64.3595ZM125.306 45.5669C124.121 46.0691 122.862 46.2973 121.555 46.0657C118.742 45.5671 116.001 44.2344 114.583 42.9536C113.851 42.2932 113.468 44.3621 114.384 44.6323C115.524 44.9688 116.626 45.427 117.716 45.8809C120.339 46.9721 122.9 48.0381 125.806 47.3263C125.648 46.7364 125.481 46.1499 125.306 45.5669Z" style="fill:var(--sapContent_Illustrative_Color19)"/>
<path fill-rule="evenodd" clip-rule="evenodd" d="M127.999 64.3597C128 64.2398 128 64.1199 128 63.9999C128 63.556 127.996 63.1132 127.987 62.6714C118.301 66.535 107.132 68.2455 100.689 68.4102C95.1105 68.5527 87.7618 68.877 83.5149 73.1068C81.0384 75.5733 80.8043 78.8583 81.547 82.0589C81.2234 79.3818 81.7271 76.7494 83.7965 74.6884C88.0433 70.4586 95.392 70.1344 100.97 69.9918C107.354 69.8286 118.377 68.1481 127.999 64.3597ZM107.538 110.909C104.355 110.209 101.306 108.883 98.4617 107.314C90.1473 102.727 79.3551 93.3401 77.058 82.9438C78.5407 93.9618 90.0091 104.078 98.7432 108.896C101.111 110.202 103.621 111.34 106.233 112.088C106.673 111.701 107.108 111.308 107.538 110.909ZM125.37 45.7813C125.522 46.2937 125.667 46.8088 125.807 47.3265C122.9 48.0383 120.339 46.9723 117.716 45.881C116.626 45.4272 115.524 44.9689 114.384 44.6324C113.765 44.4498 113.739 43.4451 114.014 43.0173C114.042 43.0304 114.071 43.0416 114.102 43.0508C114.435 43.1491 114.765 43.2578 115.092 43.3737C116.6 44.5155 119.049 45.6217 121.555 46.0659C122.446 46.2238 123.315 46.1679 124.153 45.9573C124.552 45.9306 124.958 45.8737 125.37 45.7813Z" style="fill:var(--sapContent_Illustrative_Color20)"/>
<path d="M60.0094 16.1068C60.8009 15.3152 60.8009 14.0319 60.0094 13.2404C59.2179 12.4489 57.9346 12.4489 57.143 13.2404C56.3515 14.0319 56.3515 15.3152 57.143 16.1068C57.9346 16.8983 59.2179 16.8983 60.0094 16.1068Z" style="fill:var(--sapContent_Illustrative_Color18)"/>
<path d="M99.0809 88.0418C99.5086 87.6141 99.5086 86.9206 99.0809 86.4928C98.6531 86.0651 97.9596 86.0651 97.5318 86.4928C97.1041 86.9206 97.1041 87.6141 97.5318 88.0418C97.9596 88.4696 98.6531 88.4696 99.0809 88.0418Z" style="fill:var(--sapContent_Illustrative_Color19)"/>
<path d="M78.2523 112.4C78.7054 111.947 78.7054 111.212 78.2523 110.759C77.7993 110.306 77.0649 110.306 76.6119 110.759C76.1589 111.212 76.1589 111.947 76.6119 112.4C77.0649 112.853 77.7993 112.853 78.2523 112.4Z" style="fill:var(--sapContent_Illustrative_Color18)"/>
<path fill-rule="evenodd" clip-rule="evenodd" d="M51.3598 32.7321C51.6418 32.4071 52.1338 32.3721 52.4588 32.654L55.1959 35.0281C55.5209 35.31 55.5558 35.802 55.2739 36.1271C54.992 36.4521 54.5 36.487 54.1749 36.2051L51.4379 33.8311C51.1129 33.5492 51.0779 33.0571 51.3598 32.7321Z" style="fill:var(--sapContent_Illustrative_Color20)"/>
<path fill-rule="evenodd" clip-rule="evenodd" d="M63.8224 27.5263C63.3981 27.4551 62.9964 27.7413 62.9251 28.1657L62.1366 32.8625C62.0654 33.2868 62.3516 33.6885 62.7759 33.7598C63.2003 33.831 63.602 33.5448 63.6732 33.1205L64.4618 28.4236C64.533 27.9993 64.2468 27.5976 63.8224 27.5263Z" style="fill:var(--sapContent_Illustrative_Color20)"/>
<path fill-rule="evenodd" clip-rule="evenodd" d="M54.0214 26.9877C54.4112 26.8057 54.8748 26.9741 55.0569 27.364L57.0318 31.593C57.2139 31.9828 57.0454 32.4464 56.6556 32.6285C56.2657 32.8106 55.8021 32.6421 55.6201 32.2523L53.6451 28.0233C53.4631 27.6334 53.6315 27.1698 54.0214 26.9877Z" style="fill:var(--sapContent_Illustrative_Color19)"/>
<path d="M52.2155 63.7698L48.021 67.539C49.2411 60.682 52.5404 51.0194 55.7846 44.9257C57.6828 41.3601 57.6938 37.265 59.902 38.6615C62.6993 40.4306 63.7027 45.6171 61.7084 50.0074C59.4378 55.0057 55.1547 60.3307 52.2155 63.7698Z" style="fill:var(--sapContent_Illustrative_Color5)"/>
<path d="M21.0278 61.0869L13.1694 68.7692L26.0285 74.3867L39.0273 63.6321L21.0278 61.0869Z" style="fill:var(--sapContent_Illustrative_Color13)"/>
<path d="M18.1503 91.83L22.2198 93.9786L28.0553 70.3649L16.5414 68.1114C13.49 67.5142 10.7121 69.996 10.9631 73.0951L11.6863 82.026C12.023 86.1843 14.4611 89.8822 18.1503 91.83Z" style="fill:var(--sapContent_Illustrative_Color2)"/>
<path d="M34.3344 102.497C39.5592 101.654 42.3195 94.584 43.0466 91.1541L35.4683 91.9869L28.1347 97.9008C28.0243 99.7837 29.1096 103.339 34.3344 102.497Z" style="fill:var(--sapContent_Illustrative_Color6)"/>
<path fill-rule="evenodd" clip-rule="evenodd" d="M13.4287 103.229C11.9756 101.358 10.624 99.4052 9.38209 97.3774C9.4745 96.5442 9.66 95.6094 9.95713 94.5648C11.1422 90.3984 15.7431 85.0941 20.8676 92.5668C21.837 91.647 23.8227 88.5798 24.0105 83.6691C16.9638 88.2476 7.18265 89.6952 5.41609 86.4519C4.14222 84.1131 8.86744 80.9675 14.7791 77.032C18.0653 74.8444 21.7181 72.4127 24.9109 69.7399C30.4752 65.0817 38.879 62.0761 44.9894 59.8907C47.4627 59.0061 49.5602 58.2559 50.9417 57.5849C55.6191 67.9263 56.1757 91.3736 34.9229 94.735C31.5542 101.789 23.7284 112.535 15.5638 102.014C15.0769 102.651 14.2863 103.091 13.4287 103.229Z" style="fill:var(--sapContent_Illustrative_Color8)"/>
<path fill-rule="evenodd" clip-rule="evenodd" d="M51.5766 59.1387C49.196 64.5796 44.9967 69.0575 42.0431 71.2784C39.4158 73.1483 32.5037 76.001 25.8735 72.4528C25.0778 72.027 24.2508 71.5238 23.4177 70.9482C23.9242 70.5511 24.4229 70.1482 24.9108 69.7398C30.4751 65.0816 38.8789 62.076 44.9893 59.8906C47.4626 59.006 49.5602 58.2558 50.9417 57.5848C51.1632 58.0745 51.3754 58.5937 51.5766 59.1387Z" style="fill:var(--sapContent_Illustrative_Color5)"/>
<path d="M50.8548 40.1557C61.2499 53.3696 46.7526 65.2347 40.2913 69.5236C37.5588 71.2361 30.4912 73.6782 24.0807 69.7469C16.0674 64.8328 5.15836 51.3482 19.5066 36.4113C32.0189 23.3857 45.9389 33.9067 50.8548 40.1557Z" style="fill:var(--sapContent_Illustrative_Color8)"/>
<path fill-rule="evenodd" clip-rule="evenodd" d="M34.897 70.821C40.7365 66.7659 53.7741 55.4496 43.7969 42.0786C40.6105 37.8085 33.5777 31.4924 25.9061 31.6973C36.4572 26.8121 46.7679 34.9603 50.8549 40.1556C61.25 53.3695 46.7527 65.2346 40.2914 69.5235C38.8319 70.4383 36.1354 71.5612 32.9628 71.8097C33.7441 71.4932 34.4007 71.1451 34.897 70.821Z" style="fill:var(--sapContent_Illustrative_Color6)"/>
<path d="M49.6736 37.5119C58.4067 46.8031 51.3692 52.7059 48.0162 56.8499C43.8181 62.0384 37.195 67.8777 29.4823 62.6938C19.8415 56.2139 17.6074 46.5761 24.0475 38.6881C30.4462 30.8506 38.7572 25.8979 49.6736 37.5119Z" style="fill:var(--sapContent_Illustrative_Color4)"/>
<path d="M47.3098 38.7799C49.0838 40.7097 50.3754 43.5147 51.0134 46.2655C51.1637 46.9135 50.9501 47.5853 50.4877 48.0636L49.3109 49.2808C48.6783 49.9352 47.5765 49.5524 47.4544 48.6504C47.1301 46.2529 46.4522 42.6596 45.0393 40.417C44.6662 39.8246 44.751 38.9904 45.3344 38.6034C45.9624 38.1866 46.7996 38.225 47.3098 38.7799Z" style="fill:var(--sapContent_Illustrative_Color8)"/>
<path d="M36.2744 85.1772C36.5764 83.6933 36.6562 82.1699 36.6528 80.9455C36.6491 79.5774 37.6988 78.3752 39.0352 78.0826C43.6089 77.0811 47.6246 74.0859 50.1212 71.7585C50.9346 71.0003 52.1796 71.3652 52.2044 72.4769C52.2331 73.766 52.1383 75.5308 51.713 77.74C51.4682 79.0111 50.8681 80.1988 49.9215 81.0818C46.2524 84.5039 41.289 86.3259 37.8688 87.0231C36.8471 87.2314 36.0665 86.1989 36.2744 85.1772Z" style="fill:var(--sapContent_Illustrative_Color15)"/>
<path d="M36.1082 83.9938C36.4102 82.5099 36.4899 80.9866 36.4866 79.7622C36.4828 78.3941 37.5325 77.1918 38.869 76.8992C43.4427 75.8977 47.4583 72.9025 49.955 70.5752C50.7683 69.817 52.0133 70.1819 52.0381 71.2935C52.0669 72.5827 51.9721 74.3474 51.5467 76.5567C51.3019 77.8278 50.7018 79.0155 49.7552 79.8984C46.0861 83.3205 41.1228 85.1425 37.7025 85.8398C36.6808 86.048 35.9002 85.0156 36.1082 83.9938Z" style="fill:var(--sapContent_Illustrative_Color3)"/>
<path fill-rule="evenodd" clip-rule="evenodd" d="M29.9845 93.9657C30.0636 93.7189 30.3277 93.5829 30.5745 93.6619C32.346 94.2294 34.2917 94.2996 35.0257 94.2639C35.2845 94.2513 35.5046 94.4509 35.5172 94.7098C35.5297 94.9686 35.3301 95.1887 35.0713 95.2013C34.2603 95.2407 32.1961 95.1668 30.2883 94.5557C30.0415 94.4766 29.9055 94.2125 29.9845 93.9657Z" style="fill:var(--sapContent_Illustrative_Color5)"/>
<path fill-rule="evenodd" clip-rule="evenodd" d="M13.7577 98.2296C14.0003 98.1384 14.2708 98.2611 14.362 98.5037C14.7888 99.6387 15.7018 101.096 16.1098 101.687C16.2571 101.9 16.2037 102.192 15.9905 102.339C15.7773 102.487 15.485 102.433 15.3377 102.22C14.9179 101.613 13.9518 100.079 13.4836 98.834C13.3924 98.5914 13.5151 98.3208 13.7577 98.2296Z" style="fill:var(--sapContent_Illustrative_Color5)"/>
<ellipse cx="21.6509" cy="62.5035" rx="4.56571" ry="5.60533" transform="rotate(-41.0635 21.6509 62.5035)" style="fill:var(--sapContent_Illustrative_Color5)"/>
<ellipse cx="20.2569" cy="63.8397" rx="4.56571" ry="5.60533" transform="rotate(-41.0635 20.2569 63.8397)" style="fill:var(--sapContent_Illustrative_Color6)"/>
<path d="M105.73 38.1811L117.216 38.6591L109.278 45.9525L99.1343 45.5769L105.73 38.1811Z" style="fill:var(--sapContent_Illustrative_Color13)"/>
<path d="M115.742 38.7704C111.621 40.3546 106.867 45.0451 105.085 46.3715L111.402 74.0828C113.429 74.69 118.308 72.1779 121.757 70.3451C122.883 69.7468 123.726 68.7239 123.77 67.4496C123.961 61.8758 121.794 48.7972 119.583 41.1142C119.075 39.3505 117.455 38.1119 115.742 38.7704Z" style="fill:var(--sapContent_Illustrative_Color2)"/>
<path d="M82.6842 60.4091C84.2281 56.5124 88.3762 46.5244 84.0823 47.0041C77.7318 47.7135 72.3353 44.6105 67.9175 42.4941C64.5672 40.8891 62.4909 38.1644 60.2772 39.7876C58.2655 41.2628 60.1428 45.9236 64.3618 49.1553C69.8983 53.3963 78.2429 58.0819 82.6842 60.4091Z" style="fill:var(--sapContent_Illustrative_Color8)"/>
<path d="M97.5869 90.6727C80.5877 75.9376 80.5661 56.6828 82.6802 48.8973C87.5549 48.2559 99.061 46.3365 106.088 43.7901C111.2 41.9377 115.134 52.3254 119.529 58.1319C123.925 63.9384 128.763 71.2653 125.484 72.6951C123.612 73.5112 121.934 72.1804 119.719 70.2843C116.757 67.7483 112.555 63.2561 111.073 60.9743C112.788 63.8897 113.204 67.5771 112.944 69.8212C112.817 70.9148 112.435 72.0428 112.917 73.0325C113.908 75.0669 116.556 77.4349 118.644 78.8995C119.834 79.7342 121.021 80.6552 121.647 81.9667C123.374 85.5798 123.641 90.101 120.213 91.5955C115.547 93.6299 111.49 89.6867 110.045 85.5298C107.885 84.7858 103.665 80.2575 101.824 78.0864C102.538 81.0676 105.765 82.3215 107.11 84.7461C108.456 87.1707 109.528 89.7043 109.946 91.1369C111.309 95.8072 108.491 99.5451 103.367 99.961C99.2682 100.294 97.8057 93.9074 97.5869 90.6727Z" style="fill:var(--sapContent_Illustrative_Color8)"/>
<path d="M99.5394 60.3071C95.4804 61.9342 90.3365 62.6892 87.1582 63.0689C86.4454 63.1541 85.9051 63.7548 85.958 64.4708C86.174 67.3952 87.0677 71.349 88.32 73.6966C88.8073 74.6102 89.6661 75.2768 90.6958 75.3858C93.8844 75.7234 99.7546 74.273 103.71 72.7095C104.977 72.2089 105.564 70.8043 105.164 69.5024L102.772 61.7205C102.366 60.3991 100.823 59.7928 99.5394 60.3071Z" style="fill:var(--sapContent_Illustrative_Color17)"/>
<path d="M98.2972 59.4402C94.2382 61.0672 89.0943 61.8223 85.916 62.202C85.2032 62.2872 84.6629 62.8879 84.7158 63.6038C84.9318 66.5283 85.8255 70.482 87.0778 72.8296C87.5651 73.7433 88.4239 74.4098 89.4536 74.5189C92.6422 74.8565 98.5124 73.4061 102.468 71.8426C103.734 71.3419 104.322 69.9373 103.922 68.6354L101.53 60.8535C101.124 59.5322 99.5804 58.9258 98.2972 59.4402Z" style="fill:var(--sapContent_Illustrative_Color9)"/>
<path d="M109.964 44.6202C108.655 43.5596 107.372 43.3575 106.075 43.7976C99.2208 46.125 88.2769 48.1661 83.154 48.8369C82.9882 48.8587 82.8286 48.8796 82.6758 48.8996C82.586 49.2304 80.2661 48.2373 80.5478 48.4919C82.1331 49.9246 86.4898 51.8384 89.2165 52.1197C99.6224 53.1934 106.244 49.0136 109.964 44.6202Z" style="fill:var(--sapContent_Illustrative_Color5)"/>
<path fill-rule="evenodd" clip-rule="evenodd" d="M81.8492 60.2055C82.5484 69.269 86.3748 80.954 97.5869 90.6728C97.8057 93.9075 99.2681 100.294 103.367 99.9611C108.491 99.5452 111.309 95.8073 109.946 91.137C109.528 89.7044 108.456 87.1708 107.11 84.7462C106.548 83.7329 105.657 82.9241 104.758 82.1082C103.705 81.152 102.641 80.186 102.082 78.8698L101.413 78.1679C93.3834 85.1915 84.0428 73.7038 81.8492 60.2055Z" style="fill:var(--sapContent_Illustrative_Color6)"/>
<path d="M94.3919 11.8404C78.4597 9.60909 73.0436 18.7331 72.3271 23.5741C70.4715 31.721 70.5605 48.4068 85.7605 49.9751C100.96 51.5434 108.184 41.8139 109.896 36.7531C111.366 29.3786 110.324 14.0717 94.3919 11.8404Z" style="fill:var(--sapContent_Illustrative_Color8)"/>
<path fill-rule="evenodd" clip-rule="evenodd" d="M82.5792 12.5254C85.5218 11.9418 89.0363 11.9308 93.191 12.8336C108.396 16.1376 108.421 28.2479 104.65 38.0695C102.256 44.3034 94.482 50.8418 80.3327 48.5413C81.8812 49.2621 83.6791 49.7603 85.7603 49.975C100.96 51.5433 108.184 41.8138 109.896 36.753C111.366 29.3785 110.324 14.0716 94.3918 11.8403C89.5301 11.1594 85.6477 11.5359 82.5792 12.5254Z" style="fill:var(--sapContent_Illustrative_Color6)"/>
<path d="M83.1346 18.1402L88.2064 18.1372C98.0277 18.1312 102.651 25.5152 101.907 33.3458C101.845 33.9944 101.761 34.6021 101.655 35.1718C99.1798 48.466 71.293 47.7315 70.5186 34.2312C69.9675 24.6237 73.1454 18.1463 83.1346 18.1402Z" style="fill:var(--sapContent_Illustrative_Color4)"/>
<path fill-rule="evenodd" clip-rule="evenodd" d="M96.1783 79.7668C96.2358 79.5142 96.4873 79.356 96.74 79.4135C97.79 79.6526 99.832 79.7057 101.544 77.9348L101.945 77.5195L102.27 77.9975C103.257 79.4531 104.985 81.8559 107.217 83.3997C108.327 84.1679 109.541 84.7082 110.834 84.8269C112.117 84.9449 113.515 84.6505 115.009 83.6897C115.227 83.5495 115.517 83.6126 115.658 83.8306C115.798 84.0486 115.735 84.3389 115.517 84.4791C113.859 85.5447 112.255 85.9 110.748 85.7614C109.249 85.6237 107.882 85.0014 106.683 84.1715C104.527 82.6803 102.842 80.4699 101.806 78.9802C99.8791 80.6652 97.6907 80.5925 96.5316 80.3285C96.2789 80.271 96.1207 80.0195 96.1783 79.7668Z" style="fill:var(--sapContent_Illustrative_Color5)"/>
<path fill-rule="evenodd" clip-rule="evenodd" d="M96.9909 90.1527C97.1674 89.963 97.4643 89.9523 97.6541 90.1289C98.0535 90.5007 99.3909 91.3391 101.241 91.3582C101.5 91.3608 101.708 91.5731 101.705 91.8322C101.702 92.0913 101.49 92.2992 101.231 92.2966C99.1241 92.2749 97.5676 91.3304 97.0147 90.8159C96.825 90.6393 96.8143 90.3424 96.9909 90.1527Z" style="fill:var(--sapContent_Illustrative_Color5)"/>
<path d="M99.1287 30.1415C99.9672 33.6948 97.9851 37.4734 96.6977 38.948C96.4976 39.1772 96.2101 39.2945 95.923 39.3067C95.3448 39.3313 94.9753 38.5783 95.1794 38.017C95.8252 36.241 96.1273 33.3468 95.4755 30.7228C95.3238 30.1119 95.8747 29.4163 96.5158 29.4711L98.5206 29.6425C98.8185 29.6679 99.0614 29.8565 99.1287 30.1415Z" style="fill:var(--sapContent_Illustrative_Color8)"/>
<path d="M95.7099 28.1275L97.7046 28.2058C98.0994 28.2212 98.4328 27.9966 98.4621 27.6554C98.5851 26.2233 98.0086 25.2657 97.5879 24.7693C97.357 24.4969 96.9691 24.4075 96.6188 24.4765L94.4978 24.8944C93.766 25.0387 93.4779 25.7868 93.8754 26.3997C94.0545 26.6759 94.2344 26.9719 94.3848 27.2563C94.6312 27.7222 95.1461 28.1053 95.7099 28.1275Z" style="fill:var(--sapContent_Illustrative_Color8)"/>
<ellipse cx="4.56571" cy="5.60533" rx="4.56571" ry="5.60533" transform="matrix(-0.999251 -0.0386881 -0.0386881 0.999251 113.791 26.7007)" style="fill:var(--sapContent_Illustrative_Color5)"/>
<ellipse cx="4.56571" cy="5.60533" rx="4.56571" ry="5.60533" transform="matrix(-0.999251 -0.0386881 -0.0386881 0.999251 115.714 26.8669)" style="fill:var(--sapContent_Illustrative_Color6)"/>
<path fill-rule="evenodd" clip-rule="evenodd" d="M42.0953 124.153C53.7452 121.709 64.1836 115.241 68.7302 103.769C74.1947 89.9799 65.4869 83.6487 52.5237 85.1565C44.4659 86.0937 36.6327 88.1956 28.7992 90.2977C23.2476 91.7874 17.6958 93.2771 12.0638 94.3524C11.7826 94.406 11.4943 94.4619 11.1997 94.519C10.2093 94.711 9.14809 94.9167 8.05002 95.0983C7.48438 94.0828 6.94557 93.0503 6.43457 92.0018C8.47834 91.6002 10.4905 91.0227 12.2374 90.5214C12.9108 90.3281 13.5447 90.1462 14.1259 89.99C16.1418 89.4482 18.7973 88.5894 21.8725 87.5948C38.1752 82.322 66.2768 73.2333 73.4625 87.3271C82.0837 104.236 64.1534 120.741 49.4828 126.346C46.9598 125.761 44.4941 125.027 42.0953 124.153ZM1.60344 78.3001C1.4524 77.6384 1.31162 76.9727 1.18127 76.3033C5.57024 74.8652 11.2273 75.2054 12.9953 75.5283C13.3074 75.5853 13.4306 75.885 13.3112 76.1789C13.2054 76.439 12.9493 76.6031 12.6687 76.5936C11.0256 76.5377 5.39252 76.4949 1.60344 78.3001Z" style="fill:var(--sapContent_Illustrative_Color19)"/>
<path fill-rule="evenodd" clip-rule="evenodd" d="M1.60344 78.3001C1.4524 77.6383 1.31162 76.9727 1.18127 76.3033C5.57024 74.8652 11.2273 75.2054 12.9953 75.5283C13.3074 75.5853 13.4306 75.885 13.3112 76.1789C13.2054 76.439 12.9493 76.6031 12.6687 76.5936C11.0256 76.5377 5.39251 76.4949 1.60344 78.3001ZM8.05003 95.0983C7.6829 94.4392 7.32709 93.7729 6.98284 93.0998C8.32682 92.8945 9.6272 92.6424 10.8243 92.4104L10.8258 92.4101C11.1198 92.3531 11.4076 92.2973 11.6884 92.2437C17.3204 91.1685 22.8721 89.6787 28.4237 88.189L28.4238 88.189C36.2573 86.087 44.0905 83.985 52.1482 83.0478C61.9496 81.9078 69.3182 85.2491 69.9678 92.9067C68.2395 86.751 61.3732 84.1272 52.5237 85.1565C44.466 86.0937 36.6328 88.1956 28.7992 90.2976L28.7992 90.2977L28.7991 90.2977C23.2475 91.7874 17.6958 93.2771 12.0638 94.3524C11.7831 94.4059 11.4954 94.4617 11.2014 94.5187L11.1997 94.519C10.2093 94.711 9.14809 94.9167 8.05003 95.0983ZM49.4828 126.346C48.2166 126.053 46.9648 125.721 45.7287 125.354C45.9732 125.285 46.2177 125.214 46.4622 125.141C59.5787 121.218 77.0542 107.395 75.1994 92.0112C78.7872 107.203 62.7933 121.261 49.4828 126.346Z" style="fill:var(--sapContent_Illustrative_Color20)"/>
<path d="M49.2526 108.544C49.0965 105.952 48.5318 104.025 47.864 104.029C47.1963 104.032 46.6382 105.969 46.4953 108.573C43.8941 108.753 41.9607 109.334 41.9673 110.005C41.9739 110.676 43.9107 111.211 46.5053 111.334C46.6614 113.925 47.2228 115.852 47.8906 115.849C48.5583 115.845 49.1164 113.909 49.2593 111.304C51.8605 111.125 53.7939 110.543 53.7873 109.872C53.7807 109.201 51.8439 108.663 49.2526 108.544Z" style="fill:var(--sapContent_Illustrative_Color3)"/>
<path d="M69.6969 11.801C69.5939 10.0603 69.2152 8.76465 68.7667 8.76465C68.3183 8.76465 67.9429 10.0702 67.8465 11.821C66.0958 11.9406 64.7968 12.3326 64.8035 12.7811C64.8101 13.2295 66.1091 13.5916 67.8499 13.6714C67.9562 15.4155 68.3349 16.7111 68.7834 16.7078C69.2318 16.7045 69.6072 15.4022 69.7036 13.6514C71.451 13.5318 72.7499 13.1432 72.7466 12.6914C72.7433 12.2395 71.441 11.8808 69.6969 11.801Z" style="fill:var(--sapContent_Illustrative_Color3)"/>
</svg>
