<svg width="45" height="45" viewBox="0 0 45 45" fill="none" xmlns="http://www.w3.org/2000/svg" id="tnt-Dot-ChartFlow">
<path fill-rule="evenodd" clip-rule="evenodd" d="M22.998 33.5126V23.6052H23.998V33.5126C23.998 33.9338 24.3395 34.2752 24.7607 34.2752H34.1907V35.2752H24.7607C23.7872 35.2752 22.998 34.4861 22.998 33.5126Z" style="fill:var(--sapContent_Illustrative_Color4)"/>
<path fill-rule="evenodd" clip-rule="evenodd" d="M5.83008 20.7216L5.83008 11.6902L6.83008 11.6902L6.83008 20.7216L5.83008 20.7216Z" style="fill:var(--sapContent_Illustrative_Color4)"/>
<path fill-rule="evenodd" clip-rule="evenodd" d="M7.28526 21.916L40.0215 21.916V22.916L7.28526 22.916V21.916Z" style="fill:var(--sapContent_Illustrative_Color4)"/>
<rect x="0.368164" y="6.95337" width="15.7106" height="6.17588" rx="1" style="fill:var(--sapContent_Illustrative_Color13)"/>
<rect x="0.368164" y="19.2612" width="11.5269" height="5.99293" rx="1" style="fill:var(--sapContent_Illustrative_Color2)"/>
<rect x="34.0476" y="19.2612" width="10.8555" height="5.99293" rx="1" style="fill:var(--sapContent_Illustrative_Color2)"/>
<rect x="29.2043" y="31.5349" width="15.6278" height="5.99293" rx="1" style="fill:var(--sapContent_Illustrative_Color3)"/>
<rect x="23.2822" y="17.0046" width="7.68895" height="7.68895" rx="1" transform="rotate(45 23.2822 17.0046)" style="fill:var(--sapContent_Illustrative_Color14)"/>
</svg>
