<svg width="321" height="240" viewBox="0 0 321 240" fill="none" xmlns="http://www.w3.org/2000/svg" id="tnt-Scene-FaceID">
<path d="M305.711 20.0059H14.6174C12.72 20.0041 10.8408 20.3763 9.08735 21.1012C7.33387 21.8261 5.74044 22.8895 4.39815 24.2305C3.05586 25.5716 1.99103 27.164 1.26452 28.9168C0.538005 30.6696 0.164062 32.5485 0.164063 34.4459V205.553C0.164063 209.386 1.68681 213.062 4.39734 215.773C7.10786 218.483 10.7841 220.006 14.6174 220.006H305.711C309.544 220.006 313.22 218.483 315.931 215.773C318.641 213.062 320.164 209.386 320.164 205.553V34.4459C320.164 32.5485 319.79 30.6696 319.064 28.9168C318.337 27.164 317.272 25.5716 315.93 24.2305C314.588 22.8895 312.994 21.8261 311.241 21.1012C309.487 20.3763 307.608 20.0041 305.711 20.0059Z" style="fill:var(--sapContent_Illustrative_Color7)"/>
<path fill-rule="evenodd" clip-rule="evenodd" d="M250.915 220.006C252.9 205.861 253.955 191.041 253.955 175.772V175.772H57.6387V175.772C57.6387 191.041 58.6938 205.861 60.6788 220.006H250.915Z" style="fill:var(--sapContent_Illustrative_Color18)"/>
<path fill-rule="evenodd" clip-rule="evenodd" d="M250.915 220.006C252.9 205.861 253.955 191.041 253.955 175.772V175.772H235.008C234.962 191.047 233.86 205.868 231.828 220.006H250.915Z" style="fill:var(--sapContent_Illustrative_Color19)"/>
<ellipse cx="155.798" cy="175.772" rx="98.1583" ry="19.2227" style="fill:var(--sapContent_Illustrative_Color20)"/>
<ellipse cx="13.908" cy="17.191" rx="13.908" ry="17.191" transform="matrix(-0.877901 -0.478843 -0.478843 0.877901 95.8833 86.0151)" style="fill:var(--sapContent_Illustrative_Color19)"/>
<path fill-rule="evenodd" clip-rule="evenodd" d="M57.6392 145.074H57.6392C57.6393 92.0185 101.586 49.0083 155.798 49.0083C210.001 49.0083 253.944 92.0067 253.956 145.052C253.956 145.06 253.956 145.067 253.956 145.075C253.956 155.691 210.009 164.297 155.798 164.297C101.586 164.297 57.6392 155.691 57.6392 145.075C57.6392 145.075 57.6392 145.074 57.6392 145.074Z" style="fill:var(--sapContent_Illustrative_Color18)"/>
<path fill-rule="evenodd" clip-rule="evenodd" d="M218.442 132.559C218.442 132.65 218.442 132.741 218.441 132.832H218.426C217.683 139.481 189.928 144.826 155.798 144.826C121.668 144.826 93.9123 139.481 93.1696 132.832H93.1555C93.1551 132.759 93.1549 132.685 93.1549 132.612C93.1545 132.594 93.1543 132.576 93.1543 132.559C93.1543 132.541 93.1545 132.523 93.1549 132.506C93.1842 98.6704 121.219 71.2505 155.798 71.2505C190.395 71.2505 218.442 98.6992 218.442 132.559Z" style="fill:var(--sapContent_Illustrative_Color20)"/>
<rect x="110.463" y="13.4246" width="8.60785" height="57.8257" rx="4.30393" style="fill:var(--sapContent_Illustrative_Color20)"/>
<rect x="192.524" y="8.70044" width="8.60785" height="62.5498" rx="4.30393" style="fill:var(--sapContent_Illustrative_Color20)"/>
<circle cx="114.767" cy="21.2784" r="12.578" style="fill:var(--sapContent_Illustrative_Color18)"/>
<path fill-rule="evenodd" clip-rule="evenodd" d="M109.843 30.4169C116.79 30.4169 122.421 24.7855 122.421 17.8389C122.421 14.6591 121.241 11.7549 119.295 9.54028C124.004 11.3583 127.345 15.9282 127.345 21.2783C127.345 28.225 121.713 33.8563 114.767 33.8563C111 33.8563 107.62 32.2005 105.314 29.577C106.72 30.1195 108.247 30.4169 109.843 30.4169Z" style="fill:var(--sapContent_Illustrative_Color19)"/>
<circle cx="196.828" cy="21.2784" r="12.578" style="fill:var(--sapContent_Illustrative_Color1)"/>
<circle cx="133.559" cy="108.038" r="8.76333" style="fill:var(--sapContent_Illustrative_Color8)"/>
<circle cx="178.036" cy="108.038" r="8.76333" style="fill:var(--sapContent_Illustrative_Color9)"/>
<ellipse cx="235.191" cy="94.4473" rx="13.908" ry="17.191" transform="rotate(-28.6099 235.191 94.4473)" style="fill:var(--sapContent_Illustrative_Color2)"/>
<path fill-rule="evenodd" clip-rule="evenodd" d="M128.245 163.53V52.8442C136.986 50.3473 146.232 49.0083 155.797 49.0083C210.001 49.0083 253.943 92.0067 253.955 145.052L253.955 145.075C253.955 155.691 210.008 164.297 155.797 164.297C146.232 164.297 136.986 164.029 128.245 163.53Z" style="fill:var(--sapContent_Illustrative_Color2)"/>
<path fill-rule="evenodd" clip-rule="evenodd" d="M234.27 156.624C234.959 152.045 235.316 147.36 235.316 142.594C235.316 96.7513 202.297 58.432 158.196 49.0364C211.291 50.2827 253.943 92.7914 253.955 145.052L253.955 145.075C253.955 149.409 246.629 153.409 234.27 156.624Z" style="fill:var(--sapContent_Illustrative_Color13)"/>
<path fill-rule="evenodd" clip-rule="evenodd" d="M128.245 143.579V77.484C136.56 73.492 145.912 71.2505 155.798 71.2505C190.395 71.2505 218.442 98.6992 218.442 132.559C218.442 132.65 218.442 132.741 218.441 132.832H218.426C217.683 139.481 189.928 144.826 155.798 144.826C145.911 144.826 136.56 144.378 128.245 143.579Z" style="fill:var(--sapContent_Illustrative_Color4)"/>
<rect x="192.524" y="13.4246" width="8.60785" height="57.8257" rx="4.30393" style="fill:var(--sapContent_Illustrative_Color5)"/>
<circle cx="196.828" cy="21.2784" r="12.578" style="fill:var(--sapContent_Illustrative_Color2)"/>
<path fill-rule="evenodd" clip-rule="evenodd" d="M191.09 30.8563C198.037 30.8563 203.668 25.2249 203.668 18.2783C203.668 14.6071 202.095 11.3033 199.587 9.00391C205.206 10.2616 209.406 15.2795 209.406 21.2784C209.406 28.225 203.774 33.8564 196.828 33.8564C193.552 33.8564 190.569 32.6043 188.331 30.5527C189.219 30.7514 190.142 30.8563 191.09 30.8563Z" style="fill:var(--sapContent_Illustrative_Color13)"/>
<path fill-rule="evenodd" clip-rule="evenodd" d="M128.245 115.008V101.069C129.719 99.9436 131.561 99.2751 133.558 99.2751C138.398 99.2751 142.322 103.199 142.322 108.038C142.322 112.878 138.398 116.802 133.558 116.802C131.561 116.802 129.719 116.133 128.245 115.008Z" style="fill:var(--sapContent_Illustrative_Color9)"/>
<circle cx="178.036" cy="108.038" r="8.76333" style="fill:var(--sapContent_Illustrative_Color9)"/>
<path fill-rule="evenodd" clip-rule="evenodd" d="M145.277 128.262C145.82 127.3 147.04 126.961 148.002 127.503C152.84 130.233 158.754 130.233 163.593 127.503C164.555 126.961 165.774 127.3 166.317 128.262C166.86 129.224 166.52 130.444 165.558 130.987C159.5 134.405 152.095 134.405 146.036 130.987C145.074 130.444 144.734 129.224 145.277 128.262Z" style="fill:var(--sapContent_Illustrative_Color5)"/>
<rect x="121.652" y="174.755" width="137.435" height="7.24475" rx="3.62237" transform="rotate(-90 121.652 174.755)" style="fill:var(--sapContent_Illustrative_Color3)"/>
<path d="M39.6137 138.298C39.6137 137.216 36.4747 136.351 32.2804 136.154C32.0406 131.965 31.1174 128.85 30.0358 128.853C28.9543 128.855 28.055 131.994 27.8248 136.204C23.6186 136.492 20.4915 137.432 20.5059 138.516C20.5203 139.6 23.645 140.465 27.8392 140.659C28.091 144.848 29.0023 147.963 30.0814 147.961C31.1605 147.958 32.0646 144.82 32.2948 140.609C36.501 140.321 39.6257 139.381 39.6137 138.298Z" style="fill:var(--sapContent_Illustrative_Color18)"/>
<path d="M297.169 172.858C297.169 171.953 294.54 171.228 291.028 171.063C290.828 167.556 290.054 164.947 289.149 164.949C288.243 164.951 287.49 167.58 287.297 171.105C283.775 171.346 281.157 172.133 281.169 173.041C281.181 173.948 283.798 174.673 287.31 174.836C287.52 178.343 288.283 180.951 289.187 180.949C290.091 180.947 290.848 178.319 291.04 174.794C294.562 174.553 297.179 173.766 297.169 172.858Z" style="fill:var(--sapContent_Illustrative_Color18)"/>
<path d="M261.602 55.8351C261.602 54.4769 257.66 53.3897 252.392 53.1427C252.09 47.8813 250.931 43.9692 249.572 43.9722C248.214 43.9752 247.084 47.9175 246.795 53.2059C241.512 53.5673 237.585 54.7479 237.603 56.1092C237.621 57.4705 241.545 58.5577 246.813 58.8016C247.13 64.063 248.274 67.9752 249.63 67.9722C250.985 67.9692 252.121 64.0269 252.41 58.7384C257.693 58.377 261.618 57.1964 261.602 55.8351Z" style="fill:var(--sapContent_Illustrative_Color18)"/>
</svg>
