<svg width="321" height="240" viewBox="0 0 321 240" fill="none" xmlns="http://www.w3.org/2000/svg" id="tnt-Scene-ChartGantt">
<path d="M305.883 19H14.7896C12.8922 18.9983 11.0131 19.3705 9.25959 20.0954C7.50611 20.8203 5.91268 21.8836 4.57039 23.2247C3.2281 24.5657 2.16327 26.1582 1.43676 27.911C0.710246 29.6638 0.336303 31.5426 0.336304 33.44V204.547C0.336304 208.38 1.85905 212.056 4.56958 214.767C7.28011 217.477 10.9564 219 14.7896 219H305.883C309.716 219 313.393 217.477 316.103 214.767C318.814 212.056 320.336 208.38 320.336 204.547V33.44C320.336 31.5426 319.962 29.6638 319.236 27.911C318.509 26.1582 317.445 24.5657 316.102 23.2247C314.76 21.8836 313.166 20.8203 311.413 20.0954C309.66 19.3705 307.78 18.9983 305.883 19V19Z" style="fill:var(--sapContent_Illustrative_Color7)"/>
<path d="M307.953 114.777L250.851 95.1718C248.43 94.3406 245.795 95.6337 244.966 98.0601L216.505 181.325C215.675 183.751 216.965 186.392 219.386 187.223L276.488 206.828C278.909 207.66 281.544 206.366 282.374 203.94L310.835 120.675C311.664 118.249 310.374 115.608 307.953 114.777Z" style="fill:var(--sapContent_Illustrative_Color18)"/>
<path d="M273.705 116.205C271.82 115.451 269.754 115.274 267.769 115.696C265.783 116.119 263.967 117.122 262.55 118.579C261.134 120.036 260.18 121.881 259.809 123.881C259.439 125.881 259.668 127.947 260.469 129.816C261.27 131.685 262.605 133.275 264.307 134.384C266.009 135.492 268.001 136.07 270.031 136.045C272.06 136.019 274.037 135.391 275.71 134.239C277.383 133.088 278.679 131.465 279.432 129.576L269.894 125.764L273.705 116.205Z" style="fill:var(--sapContent_Illustrative_Color7)"/>
<path d="M276.757 114.794L272.953 124.345L282.483 128.156C282.983 126.902 283.232 125.561 283.215 124.211C283.197 122.86 282.915 121.527 282.383 120.286C281.851 119.045 281.081 117.921 280.115 116.979C279.15 116.036 278.008 115.294 276.757 114.794V114.794Z" style="fill:var(--sapContent_Illustrative_Color19)"/>
<path d="M284.665 148.956L244.874 135.295C243.554 134.842 242.117 135.547 241.665 136.87C241.213 138.193 241.916 139.633 243.236 140.086L283.027 153.747C284.347 154.201 285.784 153.496 286.236 152.173C286.689 150.849 285.985 149.41 284.665 148.956Z" style="fill:var(--sapContent_Illustrative_Color7)"/>
<path d="M281.224 157.059L241.433 143.397C240.113 142.944 238.676 143.649 238.224 144.972C237.772 146.295 238.475 147.735 239.795 148.188L279.586 161.85C280.907 162.303 282.343 161.598 282.796 160.275C283.248 158.952 282.544 157.512 281.224 157.059Z" style="fill:var(--sapContent_Illustrative_Color7)"/>
<path d="M259.369 158.634L238.171 151.356C236.851 150.902 235.414 151.607 234.962 152.931C234.51 154.254 235.214 155.693 236.534 156.147L257.732 163.425C259.052 163.878 260.489 163.173 260.941 161.85C261.393 160.527 260.69 159.087 259.369 158.634Z" style="fill:var(--sapContent_Illustrative_Color7)"/>
<path d="M16.3363 214.207C16.3363 212.95 17.3558 211.93 18.6135 211.93H167.394C168.652 211.93 169.671 212.95 169.671 214.207V215.145H16.3363V214.207Z" style="fill:var(--sapContent_Illustrative_Color18)"/>
<path d="M19.4836 217.884C19.9009 218.257 20.4408 218.463 21.0003 218.463H165.007C165.567 218.463 166.107 218.257 166.524 217.884L169.671 215.074H16.3363L19.4836 217.884Z" style="fill:var(--sapContent_Illustrative_Color19)"/>
<rect x="31.4266" y="129.906" width="123.154" height="82.1674" rx="4.55436" style="fill:var(--sapContent_Illustrative_Color18)"/>
<path d="M93.0039 132.656C93.4394 132.656 93.7924 132.302 93.7924 131.866C93.7924 131.43 93.4394 131.076 93.0039 131.076C92.5684 131.076 92.2153 131.43 92.2153 131.866C92.2153 132.302 92.5684 132.656 93.0039 132.656Z" style="fill:var(--sapContent_Illustrative_Color20)"/>
<rect x="35.498" y="133.736" width="115.011" height="74.5088" rx="3.03624" style="fill:var(--sapContent_Illustrative_Color7)"/>
<path d="M84.0836 211.473H101.924V212.019C101.924 212.858 101.244 213.537 100.406 213.537H85.6017C84.7633 213.537 84.0836 212.858 84.0836 212.019V211.473Z" style="fill:var(--sapContent_Illustrative_Color20)"/>
<path d="M258.949 45.3833C258.949 44.1945 255.498 43.2429 250.887 43.0267C250.623 38.4216 249.608 34.9974 248.419 35C247.23 35.0026 246.242 38.4532 245.989 43.0821C241.365 43.3984 237.927 44.4317 237.943 45.6232C237.958 46.8147 241.394 47.7663 246.005 47.9798C246.281 52.585 247.283 56.0092 248.47 56.0066C249.656 56.0039 250.65 52.5534 250.903 47.9245C255.527 47.6082 258.962 46.5748 258.949 45.3833Z" style="fill:var(--sapContent_Illustrative_Color3)"/>
<path d="M275.953 66.8971C275.953 66.1309 273.729 65.5176 270.758 65.3783C270.588 62.4106 269.934 60.2039 269.168 60.2056C268.401 60.2073 267.764 62.431 267.601 65.414C264.621 65.6179 262.406 66.2838 262.416 67.0516C262.426 67.8195 264.64 68.4327 267.611 68.5703C267.79 71.5381 268.435 73.7448 269.2 73.7431C269.965 73.7414 270.605 71.5177 270.768 68.5347C273.748 68.3308 275.962 67.6649 275.953 66.8971Z" style="fill:var(--sapContent_Illustrative_Color3)"/>
<path d="M23.8492 67.2369L80.9511 47.632C83.372 46.8008 86.0069 48.0939 86.8363 50.5203L115.297 133.785C116.127 136.212 114.836 138.852 112.415 139.684L55.3136 159.289C52.8926 160.12 50.2577 158.827 49.4284 156.4L20.9674 73.1352C20.138 70.7089 21.4282 68.0681 23.8492 67.2369Z" style="fill:var(--sapContent_Illustrative_Color18)"/>
<path fill-rule="evenodd" clip-rule="evenodd" d="M75.7081 78.1518C76.7989 78.2857 77.5746 79.2786 77.4407 80.3695L73.9407 108.869C73.8581 109.542 73.4389 110.126 72.8283 110.42C72.2178 110.714 71.4996 110.677 70.9225 110.322L60.4764 103.893L56.9324 126.93C56.7652 128.016 55.7492 128.761 54.6629 128.594C53.5766 128.427 52.8315 127.411 52.9986 126.324L56.9986 100.324C57.1 99.6652 57.5248 99.1007 58.1301 98.8208C58.7353 98.5408 59.4405 98.5826 60.0085 98.9321L70.3682 105.307L73.4903 79.8844C73.6243 78.7935 74.6172 78.0178 75.7081 78.1518Z" style="fill:var(--sapContent_Illustrative_Color19)"/>
<path d="M35.7876 83.687C35.6097 83.1671 35.8869 82.6014 36.4069 82.4235L39.2547 81.449C39.7747 81.271 40.3404 81.5483 40.5183 82.0682L55.9465 127.155C56.1245 127.675 55.8472 128.241 55.3273 128.419L52.4794 129.393C51.9595 129.571 51.3938 129.294 51.2158 128.774L35.7876 83.687Z" style="fill:var(--sapContent_Illustrative_Color7)"/>
<path d="M53.046 130.813C52.5269 130.993 51.9599 130.719 51.7796 130.199L50.7919 127.356C50.6116 126.837 50.8863 126.27 51.4054 126.09L96.4207 110.453C96.9398 110.273 97.5068 110.548 97.6871 111.067L98.6747 113.91C98.855 114.429 98.5804 114.996 98.0613 115.177L53.046 130.813Z" style="fill:var(--sapContent_Illustrative_Color7)"/>
<path d="M56.137 140.077C55.768 139.042 56.3047 137.894 57.3399 137.525L79.0234 129.795C80.0586 129.426 81.2004 129.976 81.5694 131.011V131.011C81.9384 132.046 81.4017 133.194 80.3665 133.563L58.683 141.293C57.6478 141.662 56.5061 141.112 56.137 140.077V140.077Z" style="fill:var(--sapContent_Illustrative_Color7)"/>
<path d="M94.2684 61.127C94.2684 55.6041 98.7456 51.127 104.268 51.127H208.877L236.404 73.9487V179.817C236.404 185.34 231.927 189.817 226.404 189.817H104.268C98.7456 189.817 94.2684 185.34 94.2684 179.817V61.127Z" style="fill:var(--sapContent_Illustrative_Color6)"/>
<path d="M89.2684 54.1269C89.2684 49.7087 92.8502 46.127 97.2684 46.127H202.777L231.404 70.103V176.817C231.404 181.236 227.822 184.817 223.404 184.817H97.2684C92.8502 184.817 89.2684 181.236 89.2684 176.817V54.1269Z" style="fill:var(--sapContent_Illustrative_Color8)"/>
<path d="M202.623 69.8853L231.404 75.6894V69.8853H202.623Z" style="fill:var(--sapContent_Illustrative_Color5)"/>
<path d="M202.623 69.8857H231.404L202.623 46.127V69.8857Z" style="fill:var(--sapContent_Illustrative_Color6)"/>
<rect x="104.007" y="84.1938" width="111.557" height="86.0762" rx="6" style="fill:var(--sapContent_Illustrative_Color7)"/>
<path fill-rule="evenodd" clip-rule="evenodd" d="M127.236 94.5293C128.065 94.5293 128.736 95.2009 128.736 96.0293L128.736 158.434C128.736 159.263 128.065 159.934 127.236 159.934C126.408 159.934 125.736 159.263 125.736 158.434L125.736 96.0293C125.736 95.2009 126.408 94.5293 127.236 94.5293Z" style="fill:var(--sapContent_Illustrative_Color20)"/>
<path fill-rule="evenodd" clip-rule="evenodd" d="M160.286 94.5293C161.115 94.5293 161.786 95.2009 161.786 96.0293L161.786 158.434C161.786 159.263 161.115 159.934 160.286 159.934C159.458 159.934 158.786 159.263 158.786 158.434L158.786 96.0293C158.786 95.2009 159.458 94.5293 160.286 94.5293Z" style="fill:var(--sapContent_Illustrative_Color20)"/>
<path fill-rule="evenodd" clip-rule="evenodd" d="M193.336 94.5293C194.164 94.5293 194.836 95.2009 194.836 96.0293L194.836 158.434C194.836 159.263 194.164 159.934 193.336 159.934C192.508 159.934 191.836 159.263 191.836 158.434L191.836 96.0293C191.836 95.2009 192.508 94.5293 193.336 94.5293Z" style="fill:var(--sapContent_Illustrative_Color20)"/>
<rect x="113.021" y="101.475" width="35.2744" height="12.1679" rx="2" style="fill:var(--sapContent_Illustrative_Color3)"/>
<rect x="167.708" y="140.82" width="38.8438" height="12.1679" rx="2" style="fill:var(--sapContent_Illustrative_Color14)"/>
<rect x="167.708" y="120.999" width="21.3785" height="12.1679" rx="2" style="fill:var(--sapContent_Illustrative_Color2)"/>
<rect x="130.658" y="120.999" width="33.0498" height="12.1679" rx="2" style="fill:var(--sapContent_Illustrative_Color2)"/>
<path d="M125.861 59H106.636C105.34 59 104.29 60.0505 104.29 61.3463C104.29 62.6421 105.34 63.6926 106.636 63.6926H125.861C127.157 63.6926 128.207 62.6421 128.207 61.3463C128.207 60.0505 127.157 59 125.861 59Z" style="fill:var(--sapContent_Illustrative_Color14)"/>
<path d="M144.948 68.1152H106.278C105.18 68.1152 104.29 69.0055 104.29 70.1037C104.29 71.2019 105.18 72.0922 106.278 72.0922H144.948C146.046 72.0922 146.936 71.2019 146.936 70.1037C146.936 69.0055 146.046 68.1152 144.948 68.1152Z" style="fill:var(--sapContent_Illustrative_Color13)"/>
</svg>
