<svg width="45" height="46" viewBox="0 0 45 46" fill="none" xmlns="http://www.w3.org/2000/svg" id="tnt-Dot-ExternalLink">
<rect width="31.6789" height="21.1575" rx="2.75869" transform="matrix(1 0 0.156434 0.987688 0.199219 17.8206)" style="fill:var(--sapContent_Illustrative_Color5)"/>
<path d="M2.3401 19.2381C2.14148 17.9841 3.00973 16.9675 4.27938 16.9675H29.9121C31.1817 16.9675 32.372 17.9841 32.5706 19.2381L35.0188 34.6955C35.2175 35.9495 34.3492 36.9661 33.0796 36.9661H7.44685C6.17719 36.9661 4.98693 35.9495 4.78831 34.6955L2.3401 19.2381Z" style="fill:var(--sapContent_Illustrative_Color8)"/>
<path fill-rule="evenodd" clip-rule="evenodd" d="M4.12313 15.9797H29.7558C31.5778 15.9797 33.2858 17.4385 33.5708 19.238L36.019 34.6954C36.304 36.4949 35.0581 37.9537 33.2362 37.9537H7.60347C5.78153 37.9537 4.07351 36.4949 3.78849 34.6954L1.34028 19.238C1.05527 17.4385 2.30119 15.9797 4.12313 15.9797ZM4.27956 16.9674C3.00991 16.9674 2.14166 17.984 2.34028 19.238L4.78849 34.6954C4.98711 35.9494 6.17738 36.966 7.44703 36.966H33.0797C34.3494 36.966 35.2176 35.9494 35.019 34.6954L32.5708 19.238C32.3722 17.984 31.1819 16.9674 29.9123 16.9674H4.27956Z" style="fill:var(--sapContent_Illustrative_Color4)"/>
<path d="M2.3401 19.2381C2.14148 17.9841 3.00973 16.9675 4.27938 16.9675H29.9121C31.1817 16.9675 32.372 17.9841 32.5706 19.2381L32.8259 20.8498H2.59537L2.3401 19.2381Z" style="fill:var(--sapContent_Illustrative_Color2)"/>
<path d="M22.9492 26.4758C23.1822 23.1041 25.8792 22.2401 30.0162 20.9592C30.2336 20.8927 30.4523 21.0592 30.4423 21.282L31.249 23.7438C31.2364 24.0697 31.8323 24.0882 32.023 23.82L37.1793 16.2499C37.3213 16.0509 37.2087 15.7791 36.9672 15.7414L28.1944 13.5694C27.8687 13.5157 27.4172 13.9141 27.6596 14.1339L28.5818 16.6257C28.7493 16.7748 28.7152 17.0431 28.5178 17.1532C24.6705 19.2603 20.0837 19.5155 20.4003 24.7297C20.5371 27.0145 20.8076 28.7384 22.7196 30.536C23.0019 30.8029 23.3078 30.364 23.223 29.9868C23.0297 29.1392 22.8989 27.25 22.9504 26.479L22.9492 26.4758Z" style="fill:var(--sapContent_Illustrative_Color3)"/>
<path d="M40.3895 8.49364C40.4304 8.59485 40.4433 8.70522 40.4268 8.81313C40.4102 8.92104 40.3649 9.02251 40.2956 9.10685L38.6993 11.1559C38.4354 11.4949 38.0134 11.4592 37.7477 11.2523C37.6359 11.1716 37.5533 11.0568 37.5123 10.9251C37.4713 10.7934 37.4742 10.652 37.5205 10.5221C37.5447 10.46 37.5782 10.4019 37.6198 10.3499L39.2162 8.30081C39.2844 8.20948 39.376 8.13827 39.4814 8.09474C39.5867 8.0512 39.7018 8.03695 39.8146 8.0535C39.94 8.07184 40.0586 8.12189 40.1592 8.19892C40.2598 8.27594 40.3391 8.37739 40.3895 8.49364Z" style="fill:var(--sapContent_Illustrative_Color5)"/>
<path d="M44.8212 21.8919C44.8086 21.969 44.78 22.0426 44.7373 22.108C44.6946 22.1735 44.6388 22.2293 44.5733 22.2719C44.5078 22.3146 44.4342 22.3431 44.3571 22.3557C44.28 22.3682 44.2011 22.3646 44.1255 22.345L41.6499 21.8223C41.5609 21.8032 41.4767 21.7665 41.4021 21.7145C41.3274 21.6625 41.2639 21.5962 41.2152 21.5193C41.1665 21.4425 41.1336 21.3567 41.1184 21.267C41.1032 21.1773 41.106 21.0855 41.1267 20.9969C41.1343 20.9601 41.1448 20.924 41.1582 20.889C41.2059 20.7588 41.3006 20.6511 41.4237 20.5873C41.5468 20.5235 41.6894 20.5081 41.8233 20.5442L44.2976 21.0673C44.3866 21.0862 44.4709 21.1227 44.5455 21.1746C44.6202 21.2265 44.6838 21.2928 44.7326 21.3696C44.7813 21.4464 44.8143 21.5321 44.8295 21.6218C44.8447 21.7115 44.8419 21.8033 44.8212 21.8919Z" style="fill:var(--sapContent_Illustrative_Color5)"/>
<path d="M44.8833 14.7942C44.848 14.8719 44.7973 14.9416 44.7342 14.9991C44.671 15.0566 44.5969 15.1005 44.5162 15.1283L40.9089 16.4125C40.7468 16.4691 40.5691 16.461 40.4129 16.3896C40.2567 16.3183 40.1341 16.1894 40.0707 16.0297C40.0126 15.8815 40.0123 15.7167 40.0699 15.5682C40.1033 15.4827 40.1547 15.4054 40.2206 15.3415C40.2866 15.2776 40.3655 15.2287 40.4521 15.1981L44.0593 13.914C44.2223 13.8568 44.401 13.8651 44.558 13.937C44.715 14.009 44.838 14.1389 44.9011 14.2997C44.9316 14.379 44.9457 14.4638 44.9427 14.5487C44.9396 14.6337 44.9194 14.7172 44.8833 14.7942Z" style="fill:var(--sapContent_Illustrative_Color5)"/>
</svg>
