<svg width="45" height="45" viewBox="0 0 45 45" fill="none" xmlns="http://www.w3.org/2000/svg" id="tnt-Dot-ChartBPMNFlow">
<path fill-rule="evenodd" clip-rule="evenodd" d="M0.999992 31.8652L36 31.8652V32.8652L0.999992 32.8652V31.8652Z" style="fill:var(--sapContent_Illustrative_Color4)"/>
<path fill-rule="evenodd" clip-rule="evenodd" d="M41 13.8652L41 28.8652L40 28.8652L40 13.8652L41 13.8652Z" style="fill:var(--sapContent_Illustrative_Color4)"/>
<path fill-rule="evenodd" clip-rule="evenodd" d="M20.9998 15.3652L20.9998 28.8652L19.9998 28.8652L19.9998 15.3652L20.9998 15.3652Z" style="fill:var(--sapContent_Illustrative_Color4)"/>
<path fill-rule="evenodd" clip-rule="evenodd" d="M3.47704 10.3652L36.7271 10.3652V11.3652L3.47704 11.3652V10.3652Z" style="fill:var(--sapContent_Illustrative_Color4)"/>
<circle cx="4" cy="31.8652" r="4" style="fill:var(--sapContent_Illustrative_Color2)"/>
<circle cx="4" cy="10.8652" r="4" style="fill:var(--sapContent_Illustrative_Color13)"/>
<circle cx="40.5" cy="10.8652" r="4" style="fill:var(--sapContent_Illustrative_Color3)"/>
<rect x="13.9998" y="5.86523" width="15" height="10" rx="1.00009" style="fill:var(--sapContent_Illustrative_Color2)"/>
<rect x="31" y="26.8652" width="14" height="10" rx="1.00009" style="fill:var(--sapContent_Illustrative_Color13)"/>
<rect x="20.446" y="26.8652" width="6.99517" height="6.99517" rx="1.00009" transform="rotate(45 20.446 26.8652)" style="fill:var(--sapContent_Illustrative_Color14)"/>
</svg>
