<svg width="321" height="240" viewBox="0 0 321 240" fill="none" xmlns="http://www.w3.org/2000/svg" id="tnt-Scene-NoApplications">
<path d="M305.711 20.0059H14.6174C12.72 20.0041 10.8408 20.3763 9.08735 21.1012C7.33387 21.8261 5.74044 22.8895 4.39815 24.2305C3.05586 25.5716 1.99103 27.164 1.26452 28.9168C0.538005 30.6696 0.164062 32.5485 0.164063 34.4459V205.553C0.164063 209.386 1.68681 213.062 4.39734 215.773C7.10786 218.483 10.7841 220.006 14.6174 220.006H305.711C309.544 220.006 313.22 218.483 315.931 215.773C318.641 213.062 320.164 209.386 320.164 205.553V34.4459C320.164 32.5485 319.79 30.6696 319.064 28.9168C318.337 27.164 317.272 25.5716 315.93 24.2305C314.588 22.8895 312.994 21.8261 311.241 21.1012C309.487 20.3763 307.608 20.0041 305.711 20.0059Z" style="fill:var(--sapContent_Illustrative_Color7)"/>
<path d="M50.2752 8.09241L58.0746 36.8063L74.1404 25.8623L50.2752 8.09241Z" style="fill:var(--sapContent_Illustrative_Color18)"/>
<path fill-rule="evenodd" clip-rule="evenodd" d="M125.944 101.974L109.934 112.88L58.1293 36.8311L58.1297 36.8308C57.1941 35.4554 60.0186 31.8997 64.4392 28.8884C68.8603 25.8768 73.2037 24.5501 74.1404 25.9251C74.1462 25.9336 74.1518 25.9421 74.1572 25.9507L125.944 101.974Z" style="fill:var(--sapContent_Illustrative_Color19)"/>
<path fill-rule="evenodd" clip-rule="evenodd" d="M65.8394 27.9878L119.314 106.49L125.943 101.974L74.1565 25.9507C74.1534 25.9458 74.1502 25.9409 74.147 25.936C74.1446 25.9324 74.1422 25.9288 74.1397 25.9252C73.3025 24.696 69.7431 25.6257 65.8394 27.9878Z" style="fill:var(--sapContent_Illustrative_Color20)"/>
<path fill-rule="evenodd" clip-rule="evenodd" d="M129.241 106.812L113.23 117.718L109.935 112.88L109.935 112.88C108.999 111.504 111.824 107.948 116.245 104.937C120.666 101.925 125.009 100.599 125.946 101.974C125.953 101.984 125.96 101.994 125.966 102.005L129.241 106.812Z" style="fill:var(--sapContent_Illustrative_Color18)"/>
<path fill-rule="evenodd" clip-rule="evenodd" d="M136.026 116.772L120.016 127.678L113.249 117.743C113.243 117.735 113.237 117.727 113.231 117.718C112.294 116.343 115.119 112.787 119.54 109.775C123.961 106.764 128.305 105.437 129.241 106.812C129.242 106.812 129.242 106.812 129.242 106.813L129.242 106.812L136.026 116.772Z" style="fill:var(--sapContent_Illustrative_Color19)"/>
<ellipse cx="9.68603" cy="3.01258" rx="9.68603" ry="3.01258" transform="matrix(0.826467 -0.562986 -0.562986 -0.826467 121.711 130.167)" style="fill:var(--sapContent_Illustrative_Color20)"/>
<path fill-rule="evenodd" clip-rule="evenodd" d="M53.8008 21.0725C54.7729 20.1573 55.9405 19.2192 57.2477 18.3287C58.555 17.4382 59.8555 16.695 61.0631 16.1254L50.2751 8.09276L53.8008 21.0725Z" style="fill:var(--sapContent_Illustrative_Color20)"/>
<path fill-rule="evenodd" clip-rule="evenodd" d="M4.73509 62.2285C4.05867 61.0672 5.19658 59.6927 6.4638 60.1404L144.886 109.049C146.046 109.459 146.194 111.039 145.131 111.658L63.0417 159.469C62.3527 159.87 61.4687 159.637 61.0674 158.948L4.73509 62.2285ZM49.8208 96.0352C48.5535 95.5874 47.4156 96.9619 48.092 98.1233L68.0675 132.42C68.4689 133.109 69.3528 133.342 70.0419 132.941L99.1509 115.987C100.214 115.368 100.065 113.788 98.9053 113.378L49.8208 96.0352Z" style="fill:var(--sapContent_Illustrative_Color20)"/>
<path d="M145.598 111.221L147.377 108.358L142.71 107.085L145.598 111.221Z" style="fill:var(--sapContent_Illustrative_Color20)"/>
<path d="M4.71116 60.8203L6.49031 57.9569L9.69855 61.5772L4.71116 60.8203Z" style="fill:var(--sapContent_Illustrative_Color20)"/>
<path fill-rule="evenodd" clip-rule="evenodd" d="M6.44407 59.4932C5.76765 58.3318 6.90556 56.9573 8.17279 57.4051L146.595 106.313C147.755 106.723 147.903 108.303 146.84 108.922L64.7507 156.734C64.0616 157.135 63.1777 156.902 62.7763 156.213L6.44407 59.4932ZM51.5298 93.2998C50.2625 92.8521 49.1246 94.2266 49.801 95.3879L69.7765 129.685C70.1779 130.374 71.0618 130.607 71.7509 130.206L100.86 113.252C101.923 112.633 101.774 111.053 100.614 110.643L51.5298 93.2998Z" style="fill:var(--sapContent_Illustrative_Color19)"/>
<path fill-rule="evenodd" clip-rule="evenodd" d="M19.4578 80.7833C19.4974 80.7711 19.5368 80.7544 19.5743 80.7315L24.842 77.6251C25.1017 77.471 25.1886 77.1372 25.0345 76.8775C24.8825 76.6171 24.5501 76.5275 24.2879 76.6847L19.0206 79.7921C18.7605 79.9452 18.674 80.28 18.8277 80.5387C18.9578 80.7613 19.221 80.8561 19.4578 80.7833Z" style="fill:var(--sapContent_Illustrative_Color8)"/>
<path fill-rule="evenodd" clip-rule="evenodd" d="M22.5948 86.1667C22.6345 86.1545 22.6739 86.1378 22.7113 86.1148L27.979 83.0084C28.2387 82.8543 28.3256 82.5205 28.1715 82.2608C28.0195 82.0005 27.6872 81.9074 27.425 82.068L22.1576 85.1755C21.8975 85.3285 21.811 85.6634 21.9648 85.922C22.0949 86.1446 22.3581 86.2395 22.5948 86.1667Z" style="fill:var(--sapContent_Illustrative_Color8)"/>
<path fill-rule="evenodd" clip-rule="evenodd" d="M26.2538 92.4489C26.2935 92.4368 26.3329 92.4201 26.3703 92.3971L35.5978 86.9541C35.8579 86.8011 35.9444 86.4662 35.7906 86.2076C35.6387 85.9472 35.306 85.8566 35.0438 86.0137L25.8166 91.4578C25.5565 91.6108 25.47 91.9457 25.6238 92.2043C25.7539 92.4269 26.0171 92.5218 26.2538 92.4489Z" style="fill:var(--sapContent_Illustrative_Color8)"/>
<path fill-rule="evenodd" clip-rule="evenodd" d="M29.8993 98.7091C29.9389 98.6969 29.9783 98.6803 30.0158 98.6573L35.2835 95.5509C35.5432 95.3968 35.6301 95.063 35.476 94.8033C35.3243 94.544 34.9913 94.4523 34.7294 94.6105L29.462 97.718C29.202 97.871 29.1155 98.2058 29.2692 98.4645C29.3993 98.6871 29.6625 98.7819 29.8993 98.7091Z" style="fill:var(--sapContent_Illustrative_Color8)"/>
<path fill-rule="evenodd" clip-rule="evenodd" d="M33.0341 104.092C33.0737 104.08 33.1131 104.063 33.1506 104.04L38.4183 100.933C38.678 100.779 38.7648 100.446 38.6107 100.186C38.4591 99.9266 38.1261 99.8349 37.8642 99.9931L32.5968 103.101C32.3368 103.254 32.2502 103.588 32.404 103.847C32.5341 104.07 32.7973 104.165 33.0341 104.092Z" style="fill:var(--sapContent_Illustrative_Color8)"/>
<path fill-rule="evenodd" clip-rule="evenodd" d="M36.169 109.475C36.2087 109.463 36.2481 109.446 36.2855 109.423L41.5529 106.316C41.8126 106.162 41.8995 105.828 41.7454 105.568C41.5937 105.309 41.2621 105.218 40.9988 105.376L35.7318 108.484C35.4718 108.637 35.3852 108.972 35.539 109.231C35.6691 109.453 35.9323 109.548 36.169 109.475Z" style="fill:var(--sapContent_Illustrative_Color8)"/>
<path fill-rule="evenodd" clip-rule="evenodd" d="M39.3055 114.857C39.3451 114.845 39.3845 114.828 39.422 114.805L44.6897 111.699C44.9494 111.545 45.0362 111.211 44.8821 110.951C44.7302 110.691 44.3957 110.602 44.1356 110.759L38.8682 113.866C38.6082 114.019 38.5216 114.354 38.6754 114.613C38.8055 114.835 39.0687 114.93 39.3055 114.857Z" style="fill:var(--sapContent_Illustrative_Color8)"/>
<path fill-rule="evenodd" clip-rule="evenodd" d="M42.9629 121.14C43.0025 121.128 43.0419 121.111 43.0794 121.088L52.3069 115.645C52.567 115.492 52.6535 115.157 52.4997 114.899C52.3477 114.638 52.0158 114.546 51.7529 114.705L42.5257 120.149C42.2656 120.302 42.1791 120.637 42.3329 120.896C42.4629 121.118 42.7262 121.213 42.9629 121.14Z" style="fill:var(--sapContent_Illustrative_Color8)"/>
<path fill-rule="evenodd" clip-rule="evenodd" d="M46.6103 127.401C46.65 127.388 46.6894 127.372 46.7268 127.349L51.9945 124.242C52.2542 124.088 52.3411 123.755 52.187 123.495C52.0353 123.235 51.7031 123.142 51.4405 123.302L46.1731 126.409C45.9131 126.562 45.8265 126.897 45.9803 127.156C46.1104 127.379 46.3736 127.473 46.6103 127.401Z" style="fill:var(--sapContent_Illustrative_Color8)"/>
<path fill-rule="evenodd" clip-rule="evenodd" d="M49.7451 132.784C49.7848 132.771 49.8242 132.755 49.8616 132.732L55.1293 129.625C55.389 129.471 55.4759 129.137 55.3218 128.878C55.1698 128.617 54.8378 128.525 54.5752 128.685L49.3079 131.792C49.0478 131.945 48.9613 132.28 49.1151 132.539C49.2452 132.761 49.5084 132.856 49.7451 132.784Z" style="fill:var(--sapContent_Illustrative_Color8)"/>
<path fill-rule="evenodd" clip-rule="evenodd" d="M52.8798 138.166C52.9194 138.154 52.9588 138.137 52.9963 138.114L58.264 135.008C58.5237 134.854 58.6105 134.52 58.4565 134.26C58.3045 134 57.9697 133.91 57.7099 134.068L52.4425 137.175C52.1825 137.328 52.096 137.663 52.2497 137.922C52.3798 138.144 52.643 138.239 52.8798 138.166Z" style="fill:var(--sapContent_Illustrative_Color8)"/>
<path fill-rule="evenodd" clip-rule="evenodd" d="M56.0146 143.549C56.0542 143.537 56.0936 143.52 56.131 143.497L61.3987 140.391C61.6585 140.237 61.7453 139.903 61.5912 139.643C61.4392 139.383 61.1066 139.292 60.8447 139.451L55.5773 142.558C55.3173 142.711 55.2307 143.046 55.3845 143.305C55.5146 143.527 55.7778 143.622 56.0146 143.549Z" style="fill:var(--sapContent_Illustrative_Color8)"/>
<path fill-rule="evenodd" clip-rule="evenodd" d="M59.6736 149.831C59.7133 149.819 59.7527 149.802 59.7901 149.779L69.018 144.337C69.278 144.184 69.3645 143.849 69.2108 143.591C69.0588 143.33 68.7234 143.238 68.4639 143.397L59.2364 148.84C58.9763 148.993 58.8898 149.328 59.0436 149.587C59.1737 149.809 59.4369 149.904 59.6736 149.831Z" style="fill:var(--sapContent_Illustrative_Color8)"/>
<path d="M60.2614 95.7598C58.325 89.9756 61.9736 83.8202 67.9774 82.7425L232.692 53.1773C237.577 52.3005 242.366 55.1391 243.941 59.8454L275.865 155.204C277.802 160.988 274.153 167.144 268.149 168.221L103.435 197.786C98.5502 198.663 93.7613 195.825 92.1858 191.118L60.2614 95.7598Z" style="fill:var(--sapContent_Illustrative_Color14)"/>
<path d="M64.1008 81.398L60.8701 88.2052L68.4321 86.5434L64.1008 81.398Z" style="fill:var(--sapContent_Illustrative_Color14)"/>
<path d="M275.371 157.425L275.307 162.839L277.843 157.424L275.371 157.425Z" style="fill:var(--sapContent_Illustrative_Color14)"/>
<path d="M63.4157 89.431C61.4793 83.6467 65.1279 77.4913 71.1317 76.4137L235.846 46.8484C240.731 45.9716 245.52 48.8102 247.095 53.5165L279.02 148.875C280.956 154.659 277.308 160.815 271.304 161.892L106.589 191.458C101.705 192.334 96.9156 189.496 95.3401 184.789L63.4157 89.431Z" style="fill:var(--sapContent_Illustrative_Color2)"/>
<path d="M63.4217 89.4488C61.4832 83.6584 65.1415 77.4978 71.1535 76.4286L235.954 47.1202C240.834 46.2523 245.614 49.0906 247.187 53.7911L252.397 69.3528L67.691 102.201L63.4217 89.4488Z" style="fill:var(--sapContent_Illustrative_Color13)"/>
<path d="M84.4988 113.773C83.7242 111.459 85.1838 108.997 87.5855 108.566L239.627 81.2869C241.581 80.9363 243.497 82.0717 244.127 83.9541L265.145 146.736C265.92 149.05 264.46 151.512 262.058 151.943L110.017 179.222C108.063 179.572 106.147 178.437 105.517 176.555L84.4988 113.773Z" style="fill:var(--sapContent_Illustrative_Color13)"/>
<path d="M87.3387 109.658C86.564 107.344 88.0237 104.882 90.4254 104.451L242.467 77.1721C244.421 76.8215 246.337 77.957 246.967 79.8394L267.985 142.621C268.76 144.935 267.3 147.397 264.898 147.828L112.856 175.107C110.902 175.458 108.987 174.322 108.357 172.44L87.3387 109.658Z" style="fill:var(--sapContent_Illustrative_Color8)"/>
<circle cx="79.2017" cy="87.2041" r="4.5" transform="rotate(-18.5096 79.2017 87.2041)" style="fill:var(--sapContent_Illustrative_Color20)"/>
<circle cx="96.2739" cy="84.3469" r="4.5" transform="rotate(-18.5096 96.2739 84.3469)" style="fill:var(--sapContent_Illustrative_Color20)"/>
<circle cx="113.348" cy="81.2095" r="4.5" transform="rotate(-18.5096 113.348 81.2095)" style="fill:var(--sapContent_Illustrative_Color20)"/>
<path d="M101.835 117.35C101.06 115.036 102.52 112.574 104.921 112.143L146.95 104.602C148.904 104.252 150.819 105.387 151.449 107.27L156.251 121.612C157.025 123.926 155.566 126.388 153.164 126.819L111.136 134.359C109.182 134.71 107.266 133.575 106.636 131.692L101.835 117.35Z" style="fill:var(--sapContent_Illustrative_Color6)"/>
<path d="M159.288 106.16C158.513 103.846 159.973 101.384 162.375 100.953L204.403 93.4125C206.357 93.0619 208.272 94.1973 208.902 96.0797L213.704 110.422C214.478 112.736 213.019 115.198 210.617 115.629L168.589 123.169C166.635 123.52 164.72 122.385 164.089 120.502L159.288 106.16Z" style="fill:var(--sapContent_Illustrative_Color6)"/>
<path d="M111.639 144.864C110.865 142.551 112.324 140.088 114.726 139.657L156.754 132.117C158.708 131.766 160.624 132.902 161.254 134.784L166.055 149.126C166.83 151.44 165.37 153.902 162.969 154.333L120.94 161.874C118.987 162.224 117.071 161.089 116.441 159.207L111.639 144.864Z" style="fill:var(--sapContent_Illustrative_Color6)"/>
<path d="M256.265 8.96068C256.575 9.32072 256.782 9.75757 256.864 10.2253C256.946 10.6929 256.901 11.1742 256.733 11.6183L253.01 22.2861C252.395 24.0507 250.606 24.4914 249.223 24.0091C248.65 23.8323 248.149 23.4743 247.797 22.9888C247.445 22.5033 247.26 21.9165 247.269 21.3167C247.283 21.0271 247.34 20.7411 247.439 20.4685L251.162 9.80077C251.316 9.3294 251.594 8.90835 251.967 8.58218C252.341 8.25602 252.795 8.03687 253.283 7.94793C253.825 7.84882 254.384 7.88981 254.906 8.06705C255.428 8.24428 255.896 8.55188 256.265 8.96068Z" style="fill:var(--sapContent_Illustrative_Color5)"/>
<path d="M293.206 57.9913C293.261 58.3266 293.246 58.6698 293.161 58.9989C293.077 59.3281 292.924 59.6359 292.714 59.9028C292.503 60.1697 292.24 60.3899 291.94 60.5491C291.639 60.7084 291.309 60.8033 290.97 60.8278L280.041 62.1231C279.648 62.1683 279.25 62.1348 278.869 62.0244C278.489 61.914 278.135 61.7291 277.828 61.4803C277.52 61.2315 277.265 60.9239 277.077 60.5754C276.89 60.227 276.773 59.8446 276.735 59.4507C276.715 59.2888 276.708 59.1254 276.714 58.9623C276.729 58.3592 276.97 57.7837 277.388 57.3492C277.807 56.9147 278.373 56.6527 278.975 56.6149L289.899 55.323C290.292 55.2771 290.691 55.31 291.071 55.4198C291.451 55.5297 291.805 55.7142 292.113 55.9627C292.421 56.2112 292.676 56.5186 292.864 56.8669C293.051 57.2152 293.168 57.5975 293.206 57.9913Z" style="fill:var(--sapContent_Illustrative_Color5)"/>
<path d="M283.567 28.6594C283.53 29.0289 283.418 29.3869 283.238 29.7116C283.058 30.0363 282.813 30.3209 282.52 30.5479L269.444 40.8653C268.855 41.3248 268.111 41.5387 267.368 41.4624C266.625 41.3862 265.941 41.0256 265.457 40.4561C265.011 39.926 264.78 39.2476 264.811 38.5554C264.829 38.1565 264.933 37.7662 265.116 37.4111C265.299 37.056 265.556 36.7444 265.87 36.4977L278.945 26.1803C279.537 25.7179 280.285 25.5029 281.032 25.5805C281.779 25.6582 282.467 26.0225 282.951 26.5968C283.188 26.8815 283.364 27.2109 283.47 27.5653C283.575 27.9198 283.608 28.2919 283.567 28.6594Z" style="fill:var(--sapContent_Illustrative_Color5)"/>
<path d="M300.283 96.2809C300.283 94.9227 296.34 93.8355 291.072 93.5885C290.771 88.3271 289.612 84.415 288.253 84.418C286.895 84.421 285.765 88.3633 285.476 93.6518C280.193 94.0132 276.265 95.1937 276.283 96.555C276.301 97.9163 280.226 99.0035 285.494 99.2474C285.81 104.509 286.955 108.421 288.31 108.418C289.666 108.415 290.801 104.473 291.09 99.1842C296.374 98.8228 300.298 97.6422 300.283 96.2809Z" style="fill:var(--sapContent_Illustrative_Color18)"/>
<path d="M41.6211 186.88C41.6211 185.974 38.9926 185.25 35.4805 185.085C35.2797 181.577 34.5066 178.969 33.601 178.971C32.6954 178.973 31.9424 181.601 31.7496 185.127C28.2276 185.368 25.6091 186.155 25.6211 187.063C25.6332 187.97 28.2497 188.695 31.7617 188.857C31.9725 192.365 32.7356 194.973 33.6392 194.971C34.5428 194.969 35.2998 192.341 35.4926 188.815C39.0146 188.574 41.6311 187.787 41.6211 186.88Z" style="fill:var(--sapContent_Illustrative_Color18)"/>
<path d="M145.338 41.0344C145.338 39.6761 141.395 38.5889 136.127 38.3419C135.826 33.0805 134.666 29.1684 133.308 29.1714C131.949 29.1744 130.82 33.1167 130.531 38.4052C125.248 38.7666 121.32 39.9471 121.338 41.3084C121.356 42.6697 125.281 43.7569 130.549 44.0008C130.865 49.2622 132.01 53.1744 133.365 53.1714C134.72 53.1684 135.856 49.2261 136.145 43.9376C141.428 43.5762 145.353 42.3956 145.338 41.0344Z" style="fill:var(--sapContent_Illustrative_Color18)"/>
<path d="M258.918 201C278.203 201 293.836 185.367 293.836 166.082C293.836 146.797 278.203 131.164 258.918 131.164C239.633 131.164 224 146.797 224 166.082C224 185.367 239.633 201 258.918 201Z" style="fill:var(--sapContent_Illustrative_Color3)"/>
<path d="M258.93 147.068H258.918C256.312 147.068 254.199 149.181 254.199 151.786V180.379C254.199 182.985 256.312 185.097 258.918 185.097H258.93C261.536 185.097 263.649 182.985 263.649 180.379V151.786C263.649 149.181 261.536 147.068 258.93 147.068Z" style="fill:var(--sapContent_Illustrative_Color8)"/>
<path d="M240.711 165.543V166.61C240.711 168.925 242.587 170.802 244.902 170.802H272.968C275.282 170.802 277.159 168.925 277.159 166.61V165.543C277.159 163.229 275.282 161.352 272.968 161.352H244.902C242.587 161.352 240.711 163.229 240.711 165.543Z" style="fill:var(--sapContent_Illustrative_Color8)"/>
</svg>
