<svg width="160" height="160" id="tnt-Dialog-Fingerprint" xmlns="http://www.w3.org/2000/svg" viewBox="0 0 160 160">
    <circle cx="70.84" cy="70.84" r="70.84" style="fill:var(--sapContent_Illustrative_Color7)" />
    <path d="m13.61,112.6c-.66-.9-1.3-1.82-1.91-2.75h118.3c-.62.93-1.26,1.85-1.91,2.75H13.61Z" style="fill:var(--sapContent_Illustrative_Color2)" fill-rule="evenodd" />
    <path d="m15.79,115.44c-.77-.95-1.51-1.92-2.23-2.9h114.56c-.72.99-1.46,1.95-2.23,2.9H15.79Z" style="fill:var(--sapContent_Illustrative_Color13)" fill-rule="evenodd" />
    <rect x="18.13" y="39.63" width="105.43" height="70.34" rx="3.9" ry="3.9" style="fill:var(--sapContent_Illustrative_Color2)" />
    <path d="m70.85,41.98c.37,0,.68-.3.68-.68s-.3-.68-.68-.68-.68.3-.68.68.3.68.68.68Z" style="fill:var(--sapContent_Illustrative_Color14)" />
    <rect x="21.62" y="42.91" width="98.46" height="63.78" rx="2.6" ry="2.6" style="fill:var(--sapContent_Illustrative_Color7)" />
    <path d="m63.21,109.45h15.27v.47c0,.72-.58,1.3-1.3,1.3h-12.67c-.72,0-1.3-.58-1.3-1.3v-.47Z" style="fill:var(--sapContent_Illustrative_Color14)" />
    <path d="m36.19,54.67c0-2.48,2.01-4.48,4.48-4.48h3.96c.35,0,.64.29.64.64s-.29.64-.64.64h-3.96c-1.77,0-3.2,1.43-3.2,3.2v3.96c0,.35-.29.64-.64.64s-.64-.29-.64-.64v-3.96Z" style="fill:var(--sapContent_Illustrative_Color13)" fill-rule="evenodd" />
    <path d="m36.19,95.58c0,2.48,2.01,4.49,4.48,4.49h3.96c.35,0,.64-.29.64-.64s-.29-.64-.64-.64h-3.96c-1.77,0-3.2-1.43-3.2-3.2v-3.96c0-.35-.29-.64-.64-.64s-.64.29-.64.64v3.96Z" style="fill:var(--sapContent_Illustrative_Color13)" fill-rule="evenodd" />
    <path d="m105.5,54.67c0-2.48-2.01-4.48-4.48-4.48h-3.96c-.35,0-.64.29-.64.64s.29.64.64.64h3.96c1.77,0,3.2,1.43,3.2,3.2v3.96c0,.35.29.64.64.64s.64-.29.64-.64v-3.96Z" style="fill:var(--sapContent_Illustrative_Color13)" fill-rule="evenodd" />
    <path d="m105.5,95.58c0,2.48-2.01,4.49-4.48,4.49h-3.96c-.35,0-.64-.29-.64-.64s.29-.64.64-.64h3.96c1.77,0,3.2-1.43,3.2-3.2v-3.96c0-.35.29-.64.64-.64s.64.29.64.64v3.96Z" style="fill:var(--sapContent_Illustrative_Color13)" fill-rule="evenodd" />
    <circle cx="70.84" cy="75.13" r="25.49" style="fill:var(--sapContent_Illustrative_Color8)" />
    <path d="m70.91,59.75c4.18,0,8.1,1.65,11.02,4.64h0c.27.28.27.72-.01.99-.14.13-.31.2-.49.2s-.37-.07-.5-.21c-2.66-2.72-6.21-4.22-10.01-4.22-2.04,0-4.01.43-5.85,1.28-.35.16-.77.01-.93-.34-.16-.35,0-.77.34-.93,2.03-.93,4.19-1.41,6.44-1.41Zm10.32,11.21c-1.71-4.22-5.76-6.95-10.32-6.95-2.11,0-3.95.5-5.5,1.5-1.55,1-2.79,2.5-3.72,4.46-.17.35-.01.77.33.94h0c.35.16.77.02.94-.33.81-1.72,1.89-3.01,3.21-3.87,1.32-.86,2.9-1.29,4.74-1.29,3.98,0,7.52,2.38,9.02,6.07.11.28.38.44.65.44.09,0,.18-.02.26-.05.36-.15.53-.56.39-.91h0Zm4.71.83s0,.02,0,.03h0s0,0,0,0c.24,1.08.37,2.2.37,3.32,0,1.21-.06,2.42-.18,3.61,0,0,0,.02,0,.03h0s0,.02,0,.02l-.02.2h0c-.04.36-.34.63-.7.63-.03,0-.05,0-.08,0h0c-.39-.04-.66-.39-.62-.78l.02-.15v-.06c.12-1.15.18-2.33.18-3.5,0-1.03-.11-2.05-.33-3.04h0l-.04-.18c-.41-1.75-1.15-3.39-2.2-4.87-.22-.32-.15-.75.16-.98h0c.31-.22.75-.15.98.17,0,0,0,0,0,0,1.18,1.66,2,3.5,2.45,5.47,0,.03,0,.06.01.07h0Zm-12.67,7.04c-.08.56-.18,1.12-.29,1.67h0c-.07.33-.36.56-.69.56-.05,0-.09,0-.14-.01h0c-.38-.08-.62-.45-.54-.83.1-.5.19-1,.27-1.51,0-.02,0-.03,0-.04,0-.01,0-.02,0-.02h0c.16-1.15.25-2.33.25-3.49,0-.67-.56-1.21-1.21-1.21s-1.18.52-1.21,1.16h0s0,.03,0,.05h0s0,.39,0,.39h0c0,.36-.31.73-.72.69-.39,0-.69-.33-.69-.71v-.31s0-.03,0-.05c0-1.44,1.17-2.61,2.61-2.61s2.61,1.17,2.61,2.61c0,1.21-.09,2.43-.25,3.62h0s0,.01,0,.03c0,0,0,.02,0,.04h0Zm-4.23.13c.37.1.6.48.51.85h0c-.55,2.17-1.04,3.61-1.73,4.93-.69,1.32-1.59,2.52-2.95,4.22-.14.17-.34.26-.55.26-.15,0-.31-.05-.44-.15h0c-.3-.24-.35-.68-.11-.99,1.33-1.66,2.17-2.78,2.8-3.99.64-1.21,1.08-2.54,1.61-4.62.09-.37.47-.61.85-.51Zm2.66,3.7h0c-.37-.13-.77.07-.89.43-.99,2.83-1.57,3.94-3.26,6.29-.23.31-.16.75.16.98h0c.13.09.27.13.41.13.22,0,.43-.1.57-.29,1.77-2.45,2.42-3.7,3.45-6.64.13-.36-.06-.77-.43-.89Zm-8.44-19.23c.32-.21.41-.65.2-.97-.21-.33-.65-.42-.97-.2-3.35,2.2-5.69,5.56-6.57,9.45,0,.03-.01.06-.01.08,0,0,0,.02,0,.02h0c-.24,1.09-.37,2.21-.37,3.33,0,.48-.04.96-.11,1.43-.06.38.2.74.58.81h0s.08,0,.11,0c.34,0,.64-.25.69-.59.09-.55.13-1.1.13-1.66,0-1.03.11-2.05.33-3.04h0l.04-.18c.82-3.49,2.93-6.5,5.94-8.48h0Zm18.12,11.03c.16,0,.34.05.47.17h0c.14.12.22.29.21.51,0,1.19-.07,2.39-.2,3.56v.04s0,.01,0,.02h0s0,.02,0,.03h0c-.36,3.24-1.2,6.39-2.5,9.36-.12.26-.37.42-.64.42-.09,0-.19-.02-.28-.06-.36-.16-.52-.57-.36-.92,1.23-2.83,2.03-5.82,2.38-8.89h0s0-.03,0-.03l.02-.2h0c.12-1.11.18-2.23.18-3.35h0c0-.22.1-.4.25-.51.14-.11.31-.16.48-.16Zm-20.68,4.45s.01-.04.01-.06v-.02s.01-.03.02-.05c.31-1.18.47-2.41.47-3.65,0-.02,0-.03,0-.05h0c0-.79.1-1.58.29-2.34.1-.38-.13-.76-.51-.85h0c-.39-.1-.76.14-.85.51h0c-.22.89-.34,1.81-.34,2.73,0,.02,0,.04,0,.06,0,1.12-.15,2.23-.44,3.29h0l-.05.17c-.38,1.33-.96,2.58-1.74,3.72-.22.32-.14.76.18.98.12.08.26.12.4.12.22,0,.44-.11.58-.31.89-1.31,1.55-2.74,1.97-4.26h0Zm16.19-7.22l.02.04h0s.21.36.21.36c.43.79.67,1.66.67,3.04,0,1.2-.08,2.42-.22,3.62,0,0,0,.01,0,.03h0s0,.03,0,.03h0c-.31,2.45-.92,4.84-1.83,7.12-.11.28-.37.44-.65.44-.09,0-.17-.02-.26-.05h0s0,0,0,0c-.36-.14-.54-.55-.39-.91.86-2.15,1.44-4.41,1.73-6.72,0-.01,0-.02,0-.03,0,0,0,0,0-.01,0,0,0,0,0-.01h0c.14-1.16.22-2.34.22-3.5,0-.72-.07-1.25-.21-1.68-.13-.43-.33-.79-.6-1.18-.04-.06-.07-.12-.08-.17-.08-.25,0-.46,0-.46.04-.13.13-.25.26-.34.32-.22.76-.14.98.18.04.05.07.11.1.16h0s.02.05.04.06Zm-3.27,15.96c.13-.36.53-.56.89-.43h0c.37.13.56.53.43.9-.26.74-.55,1.4-.89,2.01-.13.23-.37.36-.61.36-.12,0-.23-.03-.34-.09h0s0,0,0,0c-.34-.19-.46-.62-.27-.96.3-.54.56-1.12.79-1.79Zm1.06-18.28c-1.12-.73-2.41-1.11-3.75-1.11-2.38,0-4.57,1.21-5.83,3.23-.03.05-.06.11-.08.15h0s-.03.07-.04.09h0s0,.02,0,.02l-.18.33h0c-.47.94-.72,1.98-.72,3.04,0,.02,0,.04,0,.07,0,1.14-.12,2.27-.35,3.38v.03s-.01.03-.01.03c0,0,0,.01,0,.02h0s0,.01,0,.01h0s0,0,0,0c-.03.13-.05.25-.08.38-.09.38.14.76.52.85h0s0,0,0,0c.05.01.1.02.16.02.32,0,.6-.22.68-.54.04-.17.08-.34.12-.52h0s0-.04,0-.06h0s0,0,0,0c0-.02,0-.02,0-.03.24-1.19.37-2.41.37-3.63,0-.02,0-.04,0-.06.01-1.01.3-1.98.83-2.83.03-.04.06-.09.1-.14,0,0,0,0,0-.01h0l.07-.1c1.03-1.46,2.67-2.33,4.46-2.33,1.06,0,2.1.31,2.98.88h0c.33.21.76.12.97-.2.21-.33.12-.76-.2-.97h0Zm-10.99,12.11c.33.2.44.63.24.96h0c-.46.75-.73,1.28-.97,1.74h0c-.39.76-.71,1.36-1.54,2.39-.14.17-.34.26-.55.26-.15,0-.31-.05-.44-.16h0c-.3-.25-.35-.69-.1-.99.75-.92,1-1.41,1.39-2.15h0s.02-.03.02-.03c.25-.47.53-1.02,1-1.8.2-.33.63-.43.96-.24h0s0,0,0,0Z" style="fill:var(--sapContent_Illustrative_Color4)" fill-rule="evenodd" />
    <path d="m80.63,76.09h1.4c-.03.88-.09,1.75-.18,2.62v.04s0,.01,0,.02h0s0,.02,0,.03h0c-.36,3.24-1.2,6.39-2.5,9.36-.12.26-.37.42-.64.42-.09,0-.19-.02-.28-.06-.36-.16-.52-.57-.36-.92,1.23-2.83,2.03-5.82,2.38-8.89h0s0-.03,0-.03l.02-.2h0c.08-.79.14-1.6.16-2.41Zm-20.88,0h1.41c-.06.92-.21,1.82-.44,2.7,0,.02,0,.04-.01.05v.02s-.01.04-.02.06h0c-.42,1.52-1.08,2.96-1.97,4.26-.14.2-.36.31-.58.31-.14,0-.27-.04-.4-.12-.32-.22-.4-.66-.18-.98.78-1.14,1.36-2.4,1.74-3.72l.05-.17h0c.21-.79.35-1.59.41-2.41Zm26.55,0c-.02.9-.08,1.79-.17,2.67,0,0,0,.02,0,.03h0s0,.02,0,.02l-.02.2h0c-.04.36-.34.63-.7.63-.03,0-.05,0-.08,0h0c-.39-.04-.66-.39-.62-.78l.02-.15v-.06c.09-.84.14-1.7.17-2.55h1.4Zm-30.83,0h1.41c-.02.24-.05.48-.09.71-.06.34-.35.59-.69.59-.04,0-.07,0-.11,0h0c-.38-.06-.64-.42-.58-.81.03-.16.05-.32.06-.49Zm8.55,0h1.41c-.05.91-.16,1.81-.34,2.69,0,0,0,.02,0,.03h0s0,0,0,0h0s0,.04,0,.06h0c-.04.18-.07.35-.12.52-.08.32-.36.54-.68.54-.06,0-.11,0-.16-.02h0c-.38-.09-.61-.47-.52-.85.03-.13.06-.25.08-.38h0s0-.01,0-.01h0s0-.02,0-.02v-.03s.01-.03.01-.03c.17-.82.28-1.66.33-2.5Zm4.57,0h.84c-.12.1-.27.15-.44.13-.15,0-.29-.05-.4-.13Zm3.51,0h1.41c-.03.9-.11,1.79-.24,2.67h0s0,.01,0,.03c0,0,0,0,0,.02,0,0,0,.01,0,.02h0c-.08.57-.18,1.12-.29,1.67h0c-.07.33-.36.56-.69.56-.05,0-.09,0-.14-.01h0c-.38-.08-.62-.45-.54-.83.1-.5.19-1,.27-1.51,0-.02,0-.03,0-.04,0-.01,0-.02,0-.02h0c.12-.84.2-1.7.23-2.55Zm4.26,0h1.4c-.03.89-.1,1.79-.21,2.68,0,0,0,.01,0,.03h0s0,.03,0,.03h0c-.31,2.45-.92,4.84-1.83,7.12-.11.28-.37.44-.65.44-.09,0-.17-.02-.26-.05h0s0,0,0,0c-.36-.14-.54-.55-.39-.91.86-2.15,1.44-4.41,1.73-6.72,0-.01,0-.02,0-.03,0,0,0,0,0-.01,0,0,0,0,0,0,0,0,0,0,0,0,0,0,0,0,0,0h0c.11-.85.17-1.71.2-2.56Zm-6.83,3.73c.1-.38-.13-.76-.51-.85-.38-.1-.76.13-.85.51-.53,2.08-.98,3.41-1.61,4.62-.64,1.22-1.47,2.33-2.8,3.99-.24.3-.19.74.11.99h0c.13.1.29.15.44.15.21,0,.41-.09.55-.26,1.36-1.7,2.26-2.9,2.95-4.22.69-1.32,1.18-2.76,1.73-4.93h0Zm2.15,2.85h0c.37.13.56.53.43.89-1.03,2.94-1.68,4.19-3.45,6.64-.14.19-.35.29-.57.29-.14,0-.29-.04-.41-.13h0c-.31-.23-.38-.67-.16-.98,1.7-2.35,2.27-3.46,3.26-6.29.13-.36.53-.56.89-.43h0Zm2.81,4.56c-.37-.13-.77.07-.89.43-.24.67-.49,1.26-.79,1.79-.19.34-.07.77.27.96h0s0,0,0,0c.1.06.22.09.34.09.25,0,.49-.13.61-.36.34-.61.63-1.27.89-2.01.13-.37-.06-.77-.43-.89h0Zm-10.59-4.78c.2-.33.09-.76-.24-.96h0c-.33-.2-.76-.1-.96.24-.47.78-.76,1.32-1,1.8h0l-.02.03h0c-.39.75-.64,1.24-1.39,2.16-.24.3-.2.74.1.99h0s0,0,0,0c.13.11.29.16.44.16.2,0,.41-.09.55-.26.83-1.03,1.15-1.64,1.54-2.39h0c.24-.47.52-.99.97-1.75h0Z" style="fill:var(--sapContent_Illustrative_Color15)" fill-rule="evenodd" />
    <path d="m49.15,75.06h43.57c.63,0,1.13.51,1.13,1.13h0c0,.63-.51,1.13-1.13,1.13h-43.57c-.63,0-1.13-.51-1.13-1.13h0c0-.63.51-1.13,1.13-1.13Z" style="fill:var(--sapContent_Illustrative_Color3)" />
    <path d="m12.9,30.07c1.15-1.64,2.37-3.22,3.66-4.75,2.29,4.04,2.99,9.37,3.16,13.17l-5.31.24c-.06-2.34-.46-5.75-1.5-8.66Z" style="fill:var(--sapContent_Illustrative_Color19)" fill-rule="evenodd" />
    <path d="m0,70.08c.12-11.25,2.86-21.88,7.64-31.29l8.3.68c2.1.17,3.78,1.8,4.03,3.89l2.55,21.56c.31,2.59-1.68,4.87-4.28,4.94l-16.32.4c-.66.02-1.3-.04-1.92-.17Z" style="fill:var(--sapContent_Illustrative_Color19)" fill-rule="evenodd" />
    <path d="m26.81,63.16l-6.18,5.89,1.08-3.94,5.09-1.95Z" style="fill:var(--sapContent_Illustrative_Color19)" />
    <path d="m12.9,30.07c.42-.6.86-1.19,1.3-1.78,1.5,2.01,2.72,4.7,3.5,7.81.26,1.05.42,1.86.47,2.47l-2.49.11c-.42-.42-.87-.91-1.35-1.45-.17-2.17-.59-4.82-1.43-7.16Z" style="fill:var(--sapContent_Illustrative_Color20)" fill-rule="evenodd" />
    <path d="m.48,62.52c1.14-9.71,4.23-18.81,8.89-26.91l10.2-.1c2.85-.03,5.3,2,5.81,4.8l3.23,17.67c.64,3.48-1.94,6.73-5.48,6.9l-15.73.76c-2.77.13-5.3-1.1-6.92-3.12Z" style="fill:var(--sapContent_Illustrative_Color18)" fill-rule="evenodd" />
    <path d="m11.27,57.95l-.77-7.01c-.99-.26-2.98-1.43-3.05-4.05-.1-3.28,2.35-4.13,3.8-4.13,1.6,0,4.39.85,4.94,4.39.44,2.83-1,3.71-1.77,3.79l.87,7.01h-4.02Z" style="fill:var(--sapContent_Illustrative_Color20)" />
    <path d="m9.51,43.15c1.61.03,4.3.92,4.84,4.39.44,2.83-1,3.71-1.77,3.79l.82,6.63h1.88l-.87-7.01c.77-.09,2.2-.96,1.77-3.79-.55-3.54-3.34-4.39-4.94-4.39-.51,0-1.14.1-1.74.38Z" style="fill:var(--sapContent_Illustrative_Color19)" fill-rule="evenodd" />
    <path d="m91.48,127.96c0-.69-1.99-1.23-4.65-1.36-.15-2.65-.74-4.63-1.42-4.63-.69,0-1.26,1.99-1.4,4.66-2.67.18-4.65.78-4.64,1.46,0,.69,1.99,1.24,4.65,1.36.16,2.65.74,4.63,1.42,4.63.68,0,1.26-1.99,1.4-4.66,2.67-.18,4.65-.78,4.64-1.46Z" style="fill:var(--sapContent_Illustrative_Color18)" />
    <path d="m70.84,18.51c0-1.03-2.98-1.85-6.97-2.04-.23-3.98-1.11-6.94-2.13-6.94-1.03,0-1.88,2.99-2.1,6.99-4,.27-6.97,1.17-6.96,2.2.01,1.03,2.98,1.85,6.97,2.04.24,3.98,1.11,6.94,2.13,6.94,1.03,0,1.89-2.99,2.1-6.99,4-.27,6.97-1.17,6.96-2.2Z" style="fill:var(--sapContent_Illustrative_Color18)" />
    <path d="m109.36,75.49c14.19,2.07,22.81-2.77,25.67-7.48,1.4,5.33,9.1,12.54,23.29,14.61-4.39,40.3-28.46,45.53-38.38,46.4-9.25-3.66-17.88-13.65-10.59-53.53Z" style="fill:var(--sapContent_Illustrative_Color19)" />
    <path d="m128.46,66.55l6.48,1.85-3.33,5.65-3.15-7.5Z" style="fill:var(--sapContent_Illustrative_Color19)" />
    <path d="m102.22,74.77c14.19,2.07,23.34-3.51,26.2-8.22,1.4,5.33,8.57,13.28,22.77,15.35-4.39,40.3-21.95,46.28-31.87,47.15-9.26-3.66-24.39-14.4-17.1-54.27Z" style="fill:var(--sapContent_Illustrative_Color18)" />
    <path d="m108.33,79.92c10.84,1.58,15.62,2.31,17.83-1.39,1.04,4.14,8.59,5.24,19.28,6.79l.3.04c-3.48,31.66-16.92,36.41-24.5,37.12-7.06-2.85-18.6-11.23-12.9-42.57Z" style="fill:var(--sapContent_Illustrative_Color20)" />
    <path d="m106.86,79.71c10.84,1.58,17.85-2.83,20.05-6.53,1.05,4.18,6.51,10.4,17.35,11.98-3.48,31.66-16.92,36.41-24.5,37.12-7.06-2.85-18.6-11.23-12.9-42.57Z" style="fill:var(--sapContent_Illustrative_Color19)" />
    <path d="m132.11,92.9c.43.62.29,1.5-.31,1.95l-12.29,9.39c-.6.46-1.43.33-1.86-.29l-3.3-4.77c-.43-.62-.29-1.5.31-1.95.6-.46,1.43-.33,1.86.29l2.52,3.64,11.2-8.56c.6-.46,1.43-.33,1.86.29Z" style="fill:var(--sapContent_Illustrative_Color7)" fill-rule="evenodd" />
</svg>