<svg width="136" height="129" viewBox="0 0 136 129" fill="none" xmlns="http://www.w3.org/2000/svg" id="tnt-Spot-Systems">
<circle cx="64" cy="64.7703" r="64" style="fill:var(--sapContent_Illustrative_Color7)"/>
<path fill-rule="evenodd" clip-rule="evenodd" d="M127.865 68.9653C127.954 67.5785 128 66.1797 128 64.7703C128 48.7341 122.102 34.0755 112.357 22.8452C111.801 22.8006 111.239 22.7778 110.672 22.7778C102.368 22.7778 95.208 27.6475 91.8791 34.6869C89.8648 33.754 87.6173 33.2239 85.2496 33.2239C77.4256 33.2239 70.9375 38.9276 69.7148 46.4052C63.9986 46.7178 59.4198 51.2857 59.0772 56.9909C58.946 56.9744 58.8141 56.9602 58.6816 56.9484H58.6886C58.8229 56.0084 58.8865 55.0401 58.8865 54.0647C58.8865 42.5938 49.5854 33.2927 38.1145 33.2927C29.81 33.2927 22.6504 38.1624 19.3215 45.2018C17.3072 44.2689 15.0596 43.7388 12.692 43.7388C8.71797 43.7388 5.0886 45.2103 2.31878 47.6383C0.807564 53.0911 0 58.8364 0 64.7703C0 69.8324 0.587699 74.7572 1.69859 79.4802H57.6567C63.6609 79.4802 68.5701 74.7922 68.9235 68.8768C69.3887 68.9352 69.8627 68.9653 70.3438 68.9653H127.865Z" style="fill:var(--sapContent_Illustrative_Color18)"/>
<path fill-rule="evenodd" clip-rule="evenodd" d="M119.726 33.2735C123.267 39.5246 125.786 46.4305 127.057 53.7643L113.179 74.9468C112.596 75.8359 111.407 76.0841 110.522 75.5013L89.6603 61.7534C88.7758 61.1706 88.531 59.9773 89.1135 59.0883L109.104 28.5782C109.686 27.6891 110.875 27.4409 111.76 28.0238L119.726 33.2735Z" style="fill:var(--sapContent_Illustrative_Color20)"/>
<path fill-rule="evenodd" clip-rule="evenodd" d="M119.063 32.1326C122.606 38.0975 125.208 44.6872 126.663 51.697L112.279 73.6501C111.697 74.5391 110.507 74.7874 109.623 74.2045L88.7608 60.4567C87.8763 59.8738 87.6315 58.6806 88.214 57.7915L108.204 27.2815C108.787 26.3924 109.976 26.1442 110.86 26.727L119.063 32.1326Z" style="fill:var(--sapContent_Illustrative_Color19)"/>
<path d="M117.851 37.5249C117.174 37.0281 116.364 36.7445 115.525 36.7099C114.685 36.6754 113.854 36.8914 113.136 37.3307C112.418 37.77 111.846 38.4128 111.491 39.1779C111.137 39.9431 111.016 40.7961 111.144 41.6292C111.272 42.4623 111.643 43.2381 112.211 43.8584C112.779 44.4787 113.517 44.9157 114.333 45.1142C115.149 45.3127 116.006 45.2637 116.795 44.9735C117.585 44.6833 118.271 44.1648 118.768 43.4837L115.338 40.9717L117.851 37.5249Z" style="fill:var(--sapContent_Illustrative_Color7)"/>
<path d="M119.219 37.2721L116.711 40.7163L120.137 43.2273C120.466 42.7752 120.704 42.2624 120.837 41.7183C120.969 41.1742 120.993 40.6095 120.908 40.0564C120.823 39.5033 120.63 38.9727 120.34 38.495C120.05 38.0172 119.67 37.6017 119.219 37.2721Z" style="fill:var(--sapContent_Illustrative_Color20)"/>
<path d="M118.868 51.8052L104.33 42.2251C103.848 41.9073 103.2 42.0427 102.882 42.5275C102.564 43.0122 102.698 43.6629 103.18 43.9807L117.718 53.5608C118.2 53.8786 118.848 53.7433 119.166 53.2585C119.484 52.7737 119.35 52.123 118.868 51.8052Z" style="fill:var(--sapContent_Illustrative_Color7)"/>
<path d="M116.653 54.7049L102.115 45.1248C101.633 44.807 100.985 44.9423 100.667 45.4271C100.349 45.9119 100.483 46.5626 100.965 46.8804L115.503 56.4605C115.985 56.7783 116.634 56.6429 116.951 56.1581C117.269 55.6734 117.135 55.0227 116.653 54.7049Z" style="fill:var(--sapContent_Illustrative_Color7)"/>
<path d="M107.731 53.0888L99.9866 47.9851C99.5043 47.6673 98.8558 47.8027 98.5382 48.2875C98.2205 48.7723 98.354 49.4229 98.8363 49.7407L106.581 54.8444C107.063 55.1622 107.712 55.0269 108.029 54.5421C108.347 54.0573 108.214 53.4066 107.731 53.0888Z" style="fill:var(--sapContent_Illustrative_Color7)"/>
<path d="M78.4654 26.308C78.724 25.6805 79.4422 25.3815 80.0697 25.6401L99.8185 33.7785C100.446 34.0371 100.745 34.7553 100.486 35.3828L92.348 55.1316C92.0894 55.7591 91.3712 56.0581 90.7437 55.7996L70.9949 47.6611C70.3674 47.4025 70.0684 46.6843 70.327 46.0568L78.4654 26.308Z" style="fill:var(--sapContent_Illustrative_Color19)"/>
<path d="M77.2935 24.3392C77.5521 23.7118 78.2704 23.4127 78.8978 23.6713L98.6467 31.8098C99.2741 32.0683 99.5732 32.7866 99.3146 33.414L91.1761 53.1629C90.9176 53.7903 90.1993 54.0894 89.5719 53.8308L69.823 45.6923C69.1955 45.4338 68.8965 44.7155 69.1551 44.0881L77.2935 24.3392Z" style="fill:var(--sapContent_Illustrative_Color18)"/>
<path d="M78.3778 28.919C78.7657 27.9778 79.843 27.5293 80.7842 27.9171L93.8917 33.3187C94.8329 33.7065 95.2814 34.7839 94.8936 35.7251L90.1901 47.1387C89.8022 48.0798 88.7248 48.5284 87.7837 48.1405L74.6762 42.739C73.735 42.3511 73.2864 41.2737 73.6743 40.3326L78.3778 28.919Z" style="fill:var(--sapContent_Illustrative_Color7)"/>
<path d="M88.3432 38.8737C89.7465 39.452 91.3529 38.7832 91.9312 37.38C92.5095 35.9767 91.8407 34.3703 90.4374 33.792C89.0341 33.2137 87.4277 33.8825 86.8494 35.2858C86.2711 36.6891 86.9399 38.2955 88.3432 38.8737Z" style="fill:var(--sapContent_Illustrative_Color19)"/>
<path d="M81.9089 42.7935C82.6666 42.6269 83.4352 42.5001 84.2112 42.4135L83.9313 41.7001C82.0374 36.8311 81.6432 34.9838 79.5108 32.8379C78.8935 32.1858 78.2244 31.5799 77.5098 31.0261L73.4505 40.8764C73.3877 41.0287 73.3577 41.1928 73.362 41.3593C73.3664 41.5258 73.4052 41.6914 73.4761 41.8467C73.547 42.0019 73.6486 42.1438 73.7753 42.2642C73.9019 42.3846 74.051 42.4811 74.214 42.5483L78.1452 44.1684C79.3082 43.5236 80.5778 43.0598 81.9089 42.7935Z" style="fill:var(--sapContent_Illustrative_Color19)"/>
<path d="M86.2943 42.6509C85.6343 42.1598 84.8172 42.0904 83.8574 42.2054C83.1184 42.3133 82.3853 42.4615 81.6616 42.6492C80.3909 42.9525 79.1731 43.4524 78.0517 44.1311L88.2153 48.3194C86.9688 45.5636 87.6924 43.6919 86.2943 42.6509Z" style="fill:var(--sapContent_Illustrative_Color20)"/>
<path d="M30.8342 29.2929C30.6302 28.7404 30.9128 28.1271 31.4653 27.9232L51.4721 20.5378C52.0125 20.3383 52.6137 20.6041 52.8299 21.138L65.6985 52.9218C65.9244 53.4798 65.644 54.1141 65.0793 54.3225L44.073 62.0769C43.5204 62.2808 42.9071 61.9983 42.7032 61.4457L30.8342 29.2929Z" style="fill:var(--sapContent_Illustrative_Color20)"/>
<path d="M52.6225 26.9382L9.55273 42.8372L20.6293 69.914C20.6816 70.0439 20.7821 70.1483 20.9094 70.2049C21.0367 70.2614 21.1807 70.2657 21.3104 70.2166L63.3852 54.685C63.4526 54.6601 63.5142 54.6219 63.5664 54.5724C63.6186 54.523 63.6603 54.4634 63.689 54.3972C63.7177 54.3311 63.7329 54.2597 63.7335 54.1873C63.7342 54.1149 63.7204 54.0431 63.6929 53.976L52.6225 26.9382ZM15.9694 44.0862C15.9323 43.9979 15.9135 43.9031 15.9139 43.8075C15.9144 43.712 15.9341 43.6176 15.9719 43.5301C16.0097 43.4427 16.0649 43.364 16.134 43.2989C16.203 43.2338 16.2847 43.1836 16.3738 43.1513L29.0626 38.4673C29.2442 38.4003 29.4453 38.4088 29.6216 38.491C29.7979 38.5733 29.935 38.7225 30.0027 38.9058C30.0397 38.9941 30.0586 39.0889 30.0581 39.1845C30.0577 39.2801 30.038 39.3744 30.0001 39.4619C29.9623 39.5493 29.9072 39.628 29.8381 39.6931C29.769 39.7582 29.6874 39.8084 29.5982 39.8407L16.9094 44.5247C16.7278 44.5917 16.5267 44.5832 16.3504 44.501C16.1741 44.4187 16.0371 44.2695 15.9694 44.0862ZM57.1429 53.6197L24.9163 65.5159C24.7856 65.5653 24.6406 65.561 24.5124 65.504C24.3842 65.447 24.2829 65.3418 24.2303 65.211L16.9087 47.3075C16.881 47.2402 16.8672 47.168 16.868 47.0953C16.8688 47.0226 16.8842 46.9509 16.9133 46.8845C16.9423 46.8181 16.9845 46.7585 17.0372 46.7091C17.0899 46.6597 17.152 46.6217 17.2199 46.5972L49.4537 34.6983C49.5834 34.6493 49.7274 34.6535 49.8547 34.7101C49.982 34.7666 50.0825 34.8711 50.1347 35.0009L57.4578 52.9081C57.4831 52.9752 57.4949 53.0467 57.4925 53.1184C57.4901 53.19 57.4734 53.2604 57.4436 53.3253C57.4138 53.3902 57.3713 53.4484 57.3188 53.4965C57.2662 53.5445 57.2046 53.5815 57.1375 53.6051L57.1429 53.6197Z" style="fill:var(--sapContent_Illustrative_Color19)"/>
<path d="M9.55192 42.8373L52.719 26.9024L50.4531 21.3635C50.3998 21.2333 50.2984 21.1287 50.1705 21.0718C50.0425 21.0149 49.8979 21.0102 49.7672 21.0585L40.9102 24.328L41.7385 26.35C41.9151 26.4062 42.0776 26.5006 42.2146 26.6264C42.3516 26.7522 42.4598 26.9065 42.5317 27.0784C42.593 27.2234 42.6245 27.3794 42.6243 27.5367C42.6241 27.694 42.5922 27.8494 42.5305 27.9936C42.4689 28.1377 42.3787 28.2675 42.2655 28.3752C42.1524 28.4829 42.0185 28.5663 41.8721 28.6201C41.5708 28.724 41.2407 28.707 40.9502 28.5726C40.6596 28.4382 40.4308 28.1967 40.3112 27.8981C40.2426 27.7342 40.2121 27.557 40.222 27.3799C40.2319 27.2028 40.2819 27.0306 40.3682 26.8765L39.5332 24.8363L16.9782 33.1624L17.8106 35.1953C17.9852 35.2516 18.1457 35.3455 18.281 35.4705C18.4163 35.5955 18.5231 35.7486 18.5938 35.9191C18.6545 36.0626 18.686 36.2168 18.6865 36.3725C18.6869 36.5282 18.6564 36.6822 18.5965 36.8254C18.5367 36.9686 18.4488 37.098 18.3381 37.206C18.2274 37.314 18.0962 37.3984 17.9522 37.4542C17.6509 37.5571 17.3212 37.5396 17.0309 37.4053C16.7406 37.271 16.5117 37.0301 16.3913 36.7321C16.321 36.5662 16.2899 36.3863 16.3004 36.2066C16.3108 36.027 16.3626 35.8525 16.4515 35.6969L15.6192 33.6641L7.56975 36.6355C7.50239 36.6603 7.44078 36.6986 7.38859 36.748C7.33639 36.7974 7.29468 36.857 7.26596 36.9232C7.23724 36.9894 7.22208 37.0608 7.22142 37.1331C7.22076 37.2055 7.2346 37.2774 7.2621 37.3444L7.98022 39.1011L9.51228 42.8519L9.55192 42.8373Z" style="fill:var(--sapContent_Illustrative_Color18)"/>
<path d="M17.7212 36.7866L17.6816 36.8013C17.5045 36.8657 17.3092 36.8585 17.1364 36.7813C16.9636 36.7041 16.8268 36.5628 16.7545 36.3869L16.4686 35.6903C16.3797 35.8459 16.3279 36.0204 16.3174 36.2C16.307 36.3797 16.3381 36.5595 16.4084 36.7255C16.5288 37.0235 16.7577 37.2644 17.048 37.3987C17.3383 37.533 17.668 37.5505 17.9693 37.4475C18.1133 37.3918 18.2445 37.3074 18.3552 37.1994C18.4659 37.0914 18.5537 36.962 18.6136 36.8188C18.6734 36.6756 18.7041 36.5216 18.7036 36.3659C18.7031 36.2102 18.6716 36.056 18.6109 35.9124C18.5402 35.742 18.4334 35.5889 18.2981 35.4639C18.1629 35.3389 18.0023 35.245 17.8276 35.1886L18.1135 35.8852C18.1488 35.9705 18.1667 36.062 18.166 36.1542C18.1652 36.2464 18.146 36.3373 18.1093 36.4216C18.0727 36.5059 18.0193 36.5817 17.9526 36.6444C17.8859 36.7071 17.8072 36.7555 17.7212 36.7866Z" style="fill:var(--sapContent_Illustrative_Color20)"/>
<path d="M41.6272 27.9247L41.5875 27.9393C41.411 28.0016 41.2171 27.9938 41.0452 27.9176C40.8733 27.8413 40.7363 27.7022 40.6618 27.5286L40.3957 26.8743C40.3093 27.0285 40.2593 27.2007 40.2494 27.3777C40.2396 27.5548 40.2701 27.7321 40.3386 27.8959C40.4582 28.1945 40.687 28.436 40.9776 28.5705C41.2681 28.7049 41.5983 28.7219 41.8995 28.618C42.0459 28.5641 42.1798 28.4808 42.293 28.3731C42.4062 28.2654 42.4963 28.1355 42.558 27.9914C42.6197 27.8472 42.6516 27.6918 42.6518 27.5345C42.652 27.3772 42.6205 27.2213 42.5592 27.0762C42.4873 26.9043 42.379 26.75 42.242 26.6242C42.105 26.4984 41.9425 26.4041 41.766 26.3478L42.0388 27.0203C42.0748 27.1069 42.0926 27.2 42.0912 27.2936C42.0897 27.3873 42.069 27.4796 42.0303 27.5645C41.9917 27.6495 41.9359 27.7254 41.8665 27.7874C41.7971 27.8494 41.7156 27.8961 41.6272 27.9247Z" style="fill:var(--sapContent_Illustrative_Color20)"/>
<path d="M16.7559 36.3869C16.8283 36.5627 16.9651 36.7041 17.1379 36.7813C17.3107 36.8585 17.506 36.8657 17.6831 36.8012L17.7227 36.7866C17.8087 36.7555 17.8874 36.7071 17.9541 36.6444C18.0208 36.5816 18.0741 36.5058 18.1108 36.4216C18.1475 36.3373 18.1667 36.2463 18.1674 36.1542C18.1682 36.062 18.1503 35.9705 18.115 35.8852L17.8291 35.1886L16.9968 33.1557L16.1537 31.0938C16.0814 30.9179 15.9445 30.7766 15.7717 30.6994C15.599 30.6221 15.4037 30.615 15.2266 30.6794L15.205 30.6874C15.119 30.7185 15.0402 30.7669 14.9735 30.8296C14.9068 30.8924 14.8535 30.9682 14.8169 31.0524C14.7802 31.1367 14.7609 31.2276 14.7602 31.3198C14.7595 31.412 14.7774 31.5035 14.8127 31.5888L15.6558 33.6508L16.4882 35.6836L16.7559 36.3869Z" style="fill:var(--sapContent_Illustrative_Color19)"/>
<path d="M40.6631 27.5287C40.7365 27.7049 40.8742 27.8464 41.0476 27.924C41.2211 28.0015 41.4171 28.0092 41.5951 27.9454L41.6348 27.9308C41.721 27.8996 41.7998 27.8511 41.8664 27.7881C41.9331 27.725 41.9863 27.6489 42.0225 27.5642C42.0588 27.4796 42.0775 27.3883 42.0774 27.2959C42.0773 27.2036 42.0585 27.1121 42.0221 27.027L41.7492 26.3546L40.921 24.3327L40.0645 22.2343C39.9911 22.0584 39.8535 21.9174 39.6801 21.8405C39.5068 21.7635 39.3111 21.7567 39.1337 21.8212L39.0941 21.8359C39.0082 21.8669 38.9296 21.9153 38.8631 21.978C38.7966 22.0407 38.7436 22.1164 38.7072 22.2007C38.6709 22.2849 38.652 22.3758 38.6517 22.4678C38.6514 22.5598 38.6697 22.6511 38.7055 22.736L39.562 24.8343L40.397 26.8745L40.6631 27.5287Z" style="fill:var(--sapContent_Illustrative_Color19)"/>
<path d="M49.7249 34.7016C49.4371 34.7221 49.1541 34.7861 48.8857 34.8915L17.7658 46.3792C17.4889 46.4751 17.2295 46.6156 16.9977 46.7951C16.8813 46.9125 17.0029 47.5415 17.1265 47.8431L24.0011 64.6465C24.107 64.9179 24.252 65.1723 24.4314 65.4014C24.5459 65.5121 25.1594 65.4097 25.4622 65.2979L56.5822 53.8102C56.859 53.7135 57.118 53.5718 57.3489 53.3907C57.4653 53.2733 57.345 52.6479 57.2201 52.3426L50.3428 35.532C50.2254 35.2362 49.8703 34.7182 49.7249 34.7016ZM39.2605 44.0799C39.1125 44.1336 38.9493 44.1275 38.8049 44.063C38.6604 43.9984 38.546 43.8803 38.4855 43.7334L38.1544 42.9253C38.1248 42.8541 38.1098 42.7775 38.1103 42.7004C38.1109 42.6233 38.127 42.5472 38.1577 42.4768C38.1883 42.4063 38.2329 42.3429 38.2888 42.2905C38.3446 42.238 38.4105 42.1976 38.4824 42.1717L39.5638 41.7725C39.7122 41.7186 39.8758 41.7244 40.0208 41.7887C40.1657 41.8529 40.2809 41.9707 40.3425 42.1176L40.6736 42.9257C40.7027 42.997 40.7172 43.0734 40.7164 43.1504C40.7155 43.2273 40.6994 43.3032 40.6688 43.3736C40.6381 43.4439 40.5938 43.5072 40.5382 43.5597C40.4827 43.6123 40.4172 43.6529 40.3456 43.6793L39.2605 44.0799ZM41.1657 45.5348C41.3137 45.4821 41.4766 45.4886 41.6208 45.553C41.7649 45.6175 41.8794 45.7349 41.9407 45.8813L42.2718 46.6893C42.3009 46.7607 42.3154 46.8371 42.3146 46.914C42.3138 46.991 42.2976 47.0669 42.267 47.1372C42.2364 47.2075 42.192 47.2708 42.1365 47.3234C42.0809 47.3759 42.0154 47.4166 41.9438 47.443L40.8624 47.8422C40.7143 47.8949 40.5514 47.8883 40.4073 47.8239C40.2631 47.7595 40.1486 47.642 40.0873 47.4957L39.7562 46.6876C39.7272 46.6163 39.7126 46.5399 39.7134 46.463C39.7142 46.386 39.7305 46.3101 39.7611 46.2398C39.7917 46.1694 39.8361 46.1061 39.8916 46.0536C39.9471 46.0011 40.0126 45.9604 40.0842 45.934L41.1657 45.5348ZM41.2899 50.3097C41.2603 50.2385 41.2453 50.1619 41.2458 50.0848C41.2464 50.0077 41.2625 49.9316 41.2932 49.8611C41.3238 49.7907 41.3684 49.7273 41.4243 49.6749C41.4801 49.6224 41.546 49.582 41.6179 49.5561L42.6993 49.1569C42.8474 49.1042 43.0103 49.1107 43.1544 49.1751C43.2986 49.2396 43.4131 49.357 43.4744 49.5033L43.8055 50.3114C43.8346 50.3827 43.8491 50.4592 43.8483 50.5361C43.8474 50.6131 43.8313 50.6889 43.8007 50.7593C43.77 50.8296 43.7257 50.8929 43.6701 50.9455C43.6146 50.998 43.5491 51.0387 43.4775 51.065L42.396 51.4642C42.248 51.517 42.0851 51.5104 41.941 51.446C41.7968 51.3816 41.6823 51.2641 41.621 51.1178L41.2899 50.3097ZM34.9043 45.6383C34.7559 45.6922 34.5923 45.6864 34.4474 45.6222C34.3024 45.5579 34.1872 45.4401 34.1256 45.2932L33.7945 44.4852C33.7648 44.4137 33.7498 44.337 33.7502 44.2597C33.7507 44.1824 33.7666 44.1061 33.7972 44.0354C33.8277 43.9646 33.8721 43.9009 33.9278 43.8481C33.9835 43.7952 34.0493 43.7543 34.1212 43.7278L35.2027 43.3286C35.3517 43.2756 35.5156 43.2822 35.6606 43.347C35.8057 43.4119 35.921 43.5301 35.9827 43.6774L36.3101 44.4868C36.3396 44.5578 36.3546 44.634 36.3542 44.7107C36.3538 44.7875 36.3379 44.8633 36.3076 44.9336C36.2773 45.0039 36.2332 45.0672 36.1779 45.1197C36.1225 45.1722 36.0572 45.2128 35.9857 45.2391L34.9043 45.6383ZM36.7838 47.0903C36.9321 47.0365 37.0957 47.0423 37.2407 47.1065C37.3856 47.1707 37.5008 47.2885 37.5624 47.4355L37.8935 48.2435C37.9231 48.315 37.9383 48.3917 37.9378 48.4689C37.9374 48.5462 37.9214 48.6225 37.8909 48.6933C37.8604 48.764 37.8159 48.8277 37.7602 48.8806C37.7045 48.9334 37.6387 48.9743 37.5668 49.0008L36.4854 49.4C36.3363 49.4531 36.1725 49.4465 36.0274 49.3816C35.8823 49.3168 35.7671 49.1985 35.7054 49.0512L35.3779 48.2419C35.3484 48.1709 35.3334 48.0947 35.3338 48.0179C35.3343 47.9411 35.3501 47.8653 35.3804 47.7951C35.4107 47.7248 35.4549 47.6615 35.5102 47.609C35.5655 47.5565 35.6309 47.5159 35.7023 47.4895L36.7838 47.0903ZM36.908 51.8653C36.8785 51.7943 36.8635 51.7181 36.8639 51.6413C36.8643 51.5646 36.8802 51.4888 36.9105 51.4185C36.9408 51.3482 36.9849 51.2849 37.0402 51.2324C37.0956 51.1799 37.1609 51.1393 37.2324 51.113L38.3138 50.7138C38.4622 50.6609 38.6255 50.6671 38.7702 50.7312C38.9149 50.7954 39.0301 50.9126 39.0925 51.0589L39.4236 51.8669C39.4532 51.9382 39.4682 52.0147 39.4676 52.0918C39.4671 52.1689 39.451 52.245 39.4203 52.3155C39.3896 52.386 39.345 52.4494 39.2892 52.5018C39.2334 52.5542 39.1675 52.5947 39.0956 52.6206L38.0141 53.0198C37.8658 53.0737 37.7022 53.0679 37.5572 53.0036C37.4123 52.9394 37.297 52.8216 37.2354 52.6747L36.908 51.8653ZM30.63 47.2079C30.4815 47.2608 30.3183 47.2545 30.1736 47.1904C30.0289 47.1263 29.9136 47.0091 29.8513 46.8628L29.5238 46.0534C29.4937 45.9823 29.4782 45.9059 29.4782 45.8287C29.4783 45.7516 29.4939 45.6754 29.5241 45.6047C29.5543 45.534 29.5985 45.4703 29.654 45.4175C29.7095 45.3647 29.7751 45.3239 29.8469 45.2974L30.9283 44.8982C31.0773 44.8442 31.2416 44.8503 31.3869 44.9153C31.5323 44.9803 31.6474 45.0991 31.7083 45.247L32.0394 46.0551C32.0685 46.1264 32.083 46.2028 32.0822 46.2798C32.0813 46.3567 32.0652 46.4326 32.0346 46.5029C32.0039 46.5733 31.9596 46.6366 31.904 46.6891C31.8485 46.7417 31.783 46.7823 31.7114 46.8087L30.63 47.2079ZM32.5094 48.6599C32.6578 48.606 32.8214 48.6118 32.9663 48.6761C33.1113 48.7403 33.2265 48.8581 33.2881 49.005L33.6191 49.8131C33.6488 49.8846 33.6639 49.9612 33.6634 50.0385C33.663 50.1158 33.6471 50.1921 33.6166 50.2629C33.586 50.3336 33.5416 50.3973 33.4859 50.4502C33.4302 50.503 33.3644 50.5439 33.2925 50.5704L32.2111 50.9696C32.0624 51.0225 31.8988 51.0156 31.7543 50.9505C31.6098 50.8853 31.4953 50.7668 31.4347 50.6195L31.1036 49.8114C31.0739 49.7402 31.0589 49.6636 31.0595 49.5865C31.0601 49.5094 31.0762 49.4333 31.1068 49.3629C31.1375 49.2924 31.1821 49.229 31.2379 49.1766C31.2937 49.1241 31.3597 49.0837 31.4316 49.0578L32.5094 48.6599ZM32.6337 53.4348C32.604 53.3636 32.589 53.2871 32.5896 53.21C32.5901 53.1328 32.6062 53.0567 32.6369 52.9863C32.6676 52.9158 32.7122 52.8524 32.768 52.8C32.8239 52.7475 32.8897 52.7071 32.9617 52.6812L34.0431 52.282C34.1915 52.2281 34.3551 52.2339 34.5 52.2982C34.645 52.3624 34.7602 52.4802 34.8218 52.6271L35.1528 53.4352C35.1824 53.5065 35.1975 53.583 35.1969 53.6601C35.1964 53.7372 35.1803 53.8133 35.1496 53.8838C35.1189 53.9542 35.0743 54.0176 35.0185 54.0701C34.9626 54.1225 34.8968 54.1629 34.8248 54.1888L33.7434 54.588C33.5954 54.6417 33.4321 54.6357 33.2877 54.5711C33.1433 54.5066 33.0289 54.3885 32.9683 54.2416L32.6337 53.4348ZM26.3011 48.7852C26.1528 48.8391 25.9892 48.8333 25.8442 48.769C25.6993 48.7048 25.584 48.587 25.5224 48.4401L25.1914 47.632C25.1623 47.5607 25.1478 47.4843 25.1486 47.4073C25.1494 47.3304 25.1656 47.2545 25.1962 47.1841C25.2268 47.1138 25.2712 47.0505 25.3267 46.998C25.3822 46.9454 25.4478 46.9048 25.5194 46.8784L26.6008 46.4792C26.7488 46.4255 26.9121 46.4315 27.0565 46.4961C27.2009 46.5606 27.3153 46.6787 27.3759 46.8256L27.7069 47.6337C27.7366 47.705 27.7516 47.7815 27.751 47.8586C27.7505 47.9357 27.7343 48.0118 27.7037 48.0823C27.673 48.1527 27.6284 48.2161 27.5726 48.2686C27.5168 48.321 27.4509 48.3614 27.3789 48.3873L26.3011 48.7852ZM28.1806 50.2372C28.3296 50.1841 28.4935 50.1907 28.6386 50.2556C28.7837 50.3205 28.8989 50.4387 28.9606 50.586L29.2916 51.394C29.3207 51.4654 29.3353 51.5418 29.3345 51.6187C29.3337 51.6957 29.3174 51.7716 29.2868 51.8419C29.2562 51.9122 29.2118 51.9756 29.1563 52.0281C29.1008 52.0806 29.0353 52.1213 28.9637 52.1477L27.8822 52.5469C27.7338 52.5998 27.5706 52.5935 27.4259 52.5294C27.2812 52.4652 27.1659 52.3481 27.1036 52.2017L26.7725 51.3937C26.7428 51.3222 26.7277 51.2456 26.7282 51.1683C26.7286 51.091 26.7446 51.0147 26.7751 50.9439C26.8056 50.8732 26.85 50.8095 26.9057 50.7566C26.9614 50.7038 27.0272 50.6629 27.0992 50.6364L28.1806 50.2372ZM28.3049 55.0121C28.2758 54.9408 28.2612 54.8644 28.262 54.7874C28.2628 54.7105 28.279 54.6346 28.3096 54.5643C28.3402 54.4939 28.3846 54.4306 28.4402 54.3781C28.4957 54.3256 28.5612 54.2849 28.6329 54.2585L29.7143 53.8593C29.8627 53.8064 30.0259 53.8127 30.1706 53.8768C30.3153 53.9409 30.4306 54.0581 30.4929 54.2044L30.824 55.0125C30.8537 55.0839 30.8687 55.1606 30.8683 55.2379C30.8678 55.3152 30.8519 55.3915 30.8214 55.4622C30.7909 55.533 30.7464 55.5967 30.6907 55.6495C30.6351 55.7024 30.5693 55.7433 30.4973 55.7698L29.4159 56.169C29.2669 56.222 29.103 56.2154 28.9579 56.1506C28.8128 56.0857 28.6976 55.9675 28.6359 55.8202L28.3049 55.0121ZM22.052 50.3455C21.9036 50.3984 21.7404 50.3921 21.5957 50.3279C21.451 50.2638 21.3357 50.1466 21.2734 50.0003L20.9459 49.191C20.9164 49.12 20.9014 49.0438 20.9018 48.967C20.9022 48.8902 20.9181 48.8144 20.9484 48.7441C20.9787 48.6739 21.0228 48.6106 21.0782 48.5581C21.1335 48.5056 21.1988 48.4649 21.2703 48.4386L22.3517 48.0394C22.5002 47.9865 22.6634 47.9928 22.8081 48.0569C22.9528 48.1211 23.068 48.2382 23.1304 48.3846L23.4614 49.1926C23.4905 49.264 23.5051 49.3404 23.5043 49.4173C23.5035 49.4943 23.4872 49.5702 23.4566 49.6405C23.426 49.7108 23.3816 49.7741 23.3261 49.8267C23.2706 49.8792 23.2051 49.9199 23.1334 49.9463L22.052 50.3455ZM23.9315 51.7975C24.0805 51.7434 24.2448 51.7495 24.3901 51.8145C24.5354 51.8795 24.6506 51.9983 24.7115 52.1462L25.0425 52.9543C25.0716 53.0256 25.0862 53.1021 25.0854 53.179C25.0846 53.2559 25.0683 53.3319 25.0377 53.4022C25.0071 53.4725 24.9628 53.5358 24.9072 53.5883C24.8517 53.6409 24.7862 53.6816 24.7145 53.7079L23.6331 54.1071C23.485 54.1599 23.3222 54.1533 23.1781 54.0889C23.0339 54.0244 22.9194 53.907 22.8581 53.7607L22.527 52.9526C22.4968 52.8812 22.4812 52.8045 22.4814 52.727C22.4816 52.6496 22.4974 52.5731 22.528 52.5022C22.5586 52.4313 22.6032 52.3675 22.6592 52.3148C22.7152 52.262 22.7814 52.2214 22.8537 52.1953L23.9315 51.7975ZM24.0558 56.5724C24.0261 56.5011 24.0111 56.4246 24.0117 56.3475C24.0122 56.2704 24.0283 56.1943 24.059 56.1238C24.0897 56.0533 24.1343 55.99 24.1901 55.9375C24.2459 55.8851 24.3118 55.8447 24.3837 55.8188L25.4652 55.4196C25.6135 55.3657 25.7771 55.3715 25.9221 55.4357C26.067 55.5 26.1822 55.6178 26.2438 55.7647L26.5749 56.5727C26.6046 56.6442 26.6197 56.7209 26.6192 56.7982C26.6188 56.8755 26.6028 56.9518 26.5723 57.0225C26.5418 57.0932 26.4974 57.1569 26.4417 57.2098C26.386 57.2626 26.3202 57.3035 26.2482 57.33L25.1668 57.7292C25.0181 57.7821 24.8546 57.7753 24.71 57.7101C24.5655 57.6449 24.4511 57.5264 24.3904 57.3791L24.0558 56.5724ZM46.953 47.5867C47.1013 47.5328 47.2649 47.5386 47.4099 47.6028C47.5548 47.6671 47.67 47.7849 47.7316 47.9318L48.0627 48.7399C48.0918 48.8112 48.1063 48.8876 48.1055 48.9646C48.1047 49.0415 48.0885 49.1174 48.0579 49.1878C48.0272 49.2581 47.9829 49.3214 47.9274 49.3739C47.8719 49.4264 47.8063 49.4671 47.7347 49.4935L46.6533 49.8927C46.5048 49.9456 46.3416 49.9394 46.1969 49.8752C46.0522 49.8111 45.9369 49.6939 45.8746 49.5476L45.5472 48.7382C45.5177 48.6672 45.5026 48.5911 45.5031 48.5143C45.5035 48.4375 45.5193 48.3617 45.5496 48.2914C45.5799 48.2211 45.6241 48.1578 45.6794 48.1053C45.7347 48.0528 45.8001 48.0122 45.8715 47.9859L46.953 47.5867ZM45.116 46.272C44.968 46.3257 44.8047 46.3196 44.6603 46.255C44.5159 46.1905 44.4015 46.0724 44.3409 45.9255L44.0098 45.1175C43.9802 45.0462 43.9652 44.9697 43.9658 44.8925C43.9663 44.8154 43.9824 44.7393 44.0131 44.6689C44.0438 44.5984 44.0884 44.535 44.1442 44.4826C44.2 44.4301 44.2659 44.3897 44.3379 44.3638L45.4193 43.9646C45.5677 43.9107 45.7312 43.9165 45.8762 43.9808C46.0211 44.045 46.1364 44.1628 46.198 44.3097L46.529 45.1178C46.5581 45.1891 46.5727 45.2655 46.5718 45.3425C46.571 45.4194 46.5548 45.4953 46.5242 45.5657C46.4936 45.636 46.4492 45.6993 46.3937 45.7518C46.3381 45.8044 46.2726 45.845 46.201 45.8714L45.116 46.272ZM43.8346 40.2042C43.983 40.1514 44.1462 40.1576 44.2909 40.2218C44.4356 40.2859 44.5509 40.4031 44.6132 40.5494L44.9443 41.3574C44.9734 41.4288 44.9879 41.5052 44.9871 41.5822C44.9863 41.6591 44.9701 41.735 44.9395 41.8053C44.9089 41.8756 44.8645 41.939 44.809 41.9915C44.7534 42.044 44.6879 42.0847 44.6163 42.1111L43.5349 42.5103C43.3864 42.5632 43.2232 42.5569 43.0785 42.4928C42.9338 42.4286 42.8186 42.3115 42.7562 42.1651L42.4251 41.3571C42.396 41.2858 42.3815 41.2093 42.3823 41.1324C42.3832 41.0554 42.3993 40.9795 42.4299 40.9092C42.4606 40.8389 42.5049 40.7756 42.5605 40.723C42.616 40.6705 42.6815 40.6298 42.7531 40.6034L43.8346 40.2042ZM26.6888 61.3639C26.5407 61.4166 26.3778 61.4101 26.2337 61.3457C26.0895 61.2812 25.975 61.1638 25.9137 61.0174L25.5826 60.2094C25.553 60.1381 25.538 60.0616 25.5386 59.9845C25.5391 59.9074 25.5552 59.8313 25.5859 59.7608C25.6166 59.6903 25.6611 59.627 25.717 59.5745C25.7728 59.5221 25.8387 59.4817 25.9106 59.4557L26.992 59.0565C27.1404 59.0027 27.304 59.0085 27.449 59.0727C27.5939 59.137 27.7091 59.2547 27.7707 59.4017L28.1018 60.2097C28.1309 60.2811 28.1454 60.3575 28.1446 60.4344C28.1438 60.5114 28.1276 60.5873 28.097 60.6576C28.0664 60.7279 28.022 60.7913 27.9664 60.8438C27.9109 60.8963 27.8454 60.937 27.7738 60.9634L26.6888 61.3639ZM30.9532 59.7897C30.8048 59.8426 30.6416 59.8363 30.4969 59.7722C30.3522 59.7081 30.2369 59.5909 30.1745 59.4446L29.8435 58.6365C29.8144 58.5652 29.7998 58.4888 29.8006 58.4118C29.8015 58.3349 29.8177 58.259 29.8483 58.1886C29.8789 58.1183 29.9233 58.055 29.9788 58.0025C30.0343 57.9499 30.0999 57.9093 30.1715 57.8829L31.2529 57.4837C31.4013 57.4308 31.5645 57.4371 31.7092 57.5012C31.8539 57.5653 31.9692 57.6825 32.0316 57.8288L32.3626 58.6369C32.3917 58.7082 32.4063 58.7846 32.4054 58.8616C32.4046 58.9385 32.3884 59.0144 32.3578 59.0848C32.3272 59.1551 32.2828 59.2184 32.2273 59.2709C32.1718 59.3234 32.1062 59.3641 32.0346 59.3905L30.9532 59.7897ZM35.2856 58.2111C35.1375 58.2638 34.9747 58.2573 34.8306 58.1928C34.6864 58.1284 34.5719 58.011 34.5106 57.8646L34.1795 57.0566C34.1499 56.9853 34.1348 56.9088 34.1354 56.8317C34.136 56.7546 34.1521 56.6785 34.1827 56.608C34.2134 56.5375 34.258 56.4742 34.3138 56.4217C34.3696 56.3693 34.4356 56.3289 34.5075 56.3029L35.5889 55.9037C35.7373 55.8499 35.9009 55.8556 36.0459 55.9199C36.1908 55.9841 36.306 56.1019 36.3676 56.2489L36.6986 57.0569C36.7277 57.1283 36.7423 57.2047 36.7415 57.2816C36.7407 57.3586 36.7244 57.4345 36.6938 57.5048C36.6632 57.5751 36.6188 57.6384 36.5633 57.691C36.5078 57.7435 36.4423 57.7842 36.3706 57.8106L35.2856 58.2111ZM39.5501 56.6369C39.4017 56.6898 39.2384 56.6835 39.0937 56.6194C38.949 56.5553 38.8337 56.4381 38.7714 56.2918L38.4439 55.4824C38.4144 55.4114 38.3995 55.3352 38.3999 55.2584C38.4003 55.1817 38.4161 55.1059 38.4464 55.0356C38.4767 54.9653 38.5209 54.902 38.5762 54.8495C38.6315 54.797 38.6969 54.7564 38.7683 54.7301L39.8498 54.3309C39.9982 54.278 40.1614 54.2842 40.3061 54.3484C40.4508 54.4125 40.5661 54.5297 40.6284 54.676L40.9595 55.484C40.9886 55.5554 41.0031 55.6318 41.0023 55.7088C41.0015 55.7857 40.9853 55.8616 40.9547 55.9319C40.9241 56.0023 40.8797 56.0656 40.8242 56.1181C40.7686 56.1706 40.7031 56.2113 40.6315 56.2377L39.5501 56.6369ZM43.9221 55.0768C43.774 55.1295 43.6111 55.1229 43.467 55.0585C43.3228 54.994 43.2084 54.8766 43.147 54.7303L42.816 53.9222C42.7869 53.8509 42.7723 53.7745 42.7731 53.6975C42.774 53.6206 42.7902 53.5447 42.8208 53.4743C42.8514 53.404 42.8958 53.3407 42.9513 53.2882C43.0068 53.2356 43.0723 53.195 43.1439 53.1686L44.2254 52.7694C44.3735 52.7167 44.5363 52.7232 44.6805 52.7876C44.8246 52.8521 44.9391 52.9695 45.0005 53.1158L45.3315 53.9239C45.3606 53.9952 45.3751 54.0717 45.3743 54.1486C45.3735 54.2256 45.3573 54.3015 45.3267 54.3718C45.2961 54.4421 45.2517 54.5054 45.1962 54.558C45.1406 54.6105 45.0751 54.6512 45.0035 54.6776L43.9221 55.0768ZM46.3733 39.8914C46.3442 39.82 46.3296 39.7436 46.3305 39.6667C46.3313 39.5897 46.3475 39.5138 46.3781 39.4435C46.4087 39.3732 46.4531 39.3099 46.5086 39.2573C46.5641 39.2048 46.6297 39.1641 46.7013 39.1377L47.7827 38.7385C47.9311 38.6856 48.0943 38.6919 48.239 38.756C48.3837 38.8202 48.499 38.9374 48.5614 39.0837L48.8924 39.8917C48.9221 39.9632 48.9372 40.0399 48.9367 40.1172C48.9363 40.1945 48.9203 40.2708 48.8898 40.3415C48.8593 40.4122 48.8149 40.4759 48.7592 40.5288C48.7035 40.5816 48.6377 40.6225 48.5658 40.649L47.4843 41.0482C47.3353 41.1013 47.1714 41.0947 47.0263 41.0298C46.8813 40.965 46.766 40.8467 46.7043 40.6994L46.3733 39.8914ZM47.958 43.6518C47.9284 43.5805 47.9134 43.5039 47.9139 43.4268C47.9145 43.3497 47.9306 43.2736 47.9613 43.2032C47.9919 43.1327 48.0365 43.0693 48.0923 43.0169C48.1482 42.9644 48.2141 42.924 48.286 42.8981L49.3674 42.4989C49.5158 42.445 49.6794 42.4508 49.8243 42.5151C49.9693 42.5793 50.0845 42.6971 50.1461 42.844L50.4772 43.6521C50.5063 43.7234 50.5208 43.7998 50.52 43.8768C50.5191 43.9537 50.503 44.0296 50.4724 44.1C50.4417 44.1703 50.3974 44.2336 50.3418 44.2861C50.2863 44.3387 50.2208 44.3794 50.1491 44.4057L49.0677 44.8049C48.9196 44.8577 48.7568 44.8511 48.6127 44.7867C48.4685 44.7222 48.354 44.6048 48.2927 44.4585L47.958 43.6518ZM50.6014 48.427C50.4534 48.4807 50.2901 48.4747 50.1457 48.4101C50.0013 48.3456 49.8869 48.2275 49.8263 48.0806L49.4953 47.2725C49.4656 47.2012 49.4507 47.1247 49.4512 47.0476C49.4518 46.9705 49.4679 46.8944 49.4985 46.8239C49.5292 46.7534 49.5738 46.6901 49.6296 46.6376C49.6855 46.5852 49.7513 46.5448 49.8233 46.5188L50.9047 46.1196C51.0531 46.0658 51.2167 46.0716 51.3616 46.1358C51.5066 46.2001 51.6218 46.3179 51.6834 46.4648L52.0144 47.2728C52.0435 47.3442 52.0581 47.4206 52.0573 47.4975C52.0564 47.5745 52.0402 47.6504 52.0096 47.7207C51.979 47.791 51.9346 47.8544 51.8791 47.9069C51.8236 47.9594 51.758 48.0001 51.6864 48.0265L50.6014 48.427Z" style="fill:var(--sapContent_Illustrative_Color7)"/>
<path d="M16.9257 44.5022L29.5928 39.8262C29.682 39.7939 29.7636 39.7437 29.8326 39.6786C29.9017 39.6135 29.9569 39.5348 29.9947 39.4474C30.0326 39.3599 30.0523 39.2655 30.0527 39.17C30.0532 39.0744 30.0343 38.9796 29.9973 38.8913C29.9191 38.7081 29.7742 38.5618 29.5924 38.4826C29.4107 38.4034 29.2062 38.3975 29.0211 38.4661L16.3576 43.1408C16.2684 43.173 16.1868 43.2232 16.1177 43.2884C16.0487 43.3535 15.9935 43.4322 15.9557 43.5196C15.9178 43.6071 15.8981 43.7014 15.8977 43.797C15.8972 43.8926 15.9161 43.9874 15.9531 44.0756C16.031 44.2582 16.1752 44.4042 16.3562 44.4836C16.5371 44.5629 16.7409 44.5696 16.9257 44.5022Z" style="fill:var(--sapContent_Illustrative_Color7)"/>
<path d="M20.9775 48.5463C20.9439 48.5581 20.913 48.5768 20.8869 48.601C20.8607 48.6253 20.8399 48.6548 20.8255 48.6876C20.8112 48.7204 20.8036 48.7558 20.8034 48.7917C20.8031 48.8277 20.8102 48.8633 20.8241 48.8965L21.3921 50.291C21.4207 50.3598 21.4743 50.4151 21.5419 50.4455C21.6095 50.476 21.686 50.4792 21.7556 50.4545L23.4246 49.8384C23.4586 49.8265 23.4896 49.8076 23.5159 49.783C23.5422 49.7584 23.5632 49.7286 23.5775 49.6954C23.5917 49.6622 23.599 49.6263 23.5989 49.59C23.5987 49.5538 23.5912 49.5179 23.5766 49.4846L23.0086 48.0901C22.9794 48.0222 22.9257 47.968 22.8585 47.9383C22.7912 47.9086 22.7154 47.9057 22.6465 47.9302L20.9775 48.5463Z" style="fill:var(--sapContent_Illustrative_Color18)"/>
<path d="M25.2446 46.9794C25.2108 46.9912 25.1799 47.0099 25.1535 47.0342C25.1272 47.0586 25.1061 47.088 25.0914 47.1209C25.0767 47.1537 25.0689 47.1892 25.0682 47.2253C25.0676 47.2614 25.0742 47.2973 25.0877 47.3308L25.6593 48.724C25.6878 48.7928 25.7414 48.8482 25.8091 48.8786C25.8767 48.909 25.9532 48.9122 26.0228 48.8875L27.6917 48.2714C27.7254 48.2591 27.7561 48.24 27.7821 48.2152C27.8081 48.1905 27.8288 48.1608 27.843 48.1277C27.8572 48.0946 27.8646 48.059 27.8647 48.0229C27.8649 47.9868 27.8577 47.951 27.8437 47.9176L27.2757 46.5231C27.2455 46.4553 27.1911 46.4013 27.1233 46.3719C27.0555 46.3425 26.9793 46.3399 26.91 46.3646L25.2446 46.9794Z" style="fill:var(--sapContent_Illustrative_Color18)"/>
<path d="M29.5654 45.4013C29.5318 45.4136 29.501 45.4327 29.475 45.4574C29.449 45.4821 29.4283 45.5119 29.4141 45.545C29.3999 45.5781 29.3925 45.6137 29.3924 45.6498C29.3923 45.6859 29.3994 45.7217 29.4134 45.7551L29.9814 47.1496C30.0107 47.2178 30.0644 47.2725 30.1317 47.3028C30.1991 47.3331 30.2752 47.3368 30.3448 47.3131L32.0138 46.697C32.0476 46.6845 32.0785 46.6654 32.1047 46.6406C32.1309 46.6159 32.1519 46.5861 32.1664 46.553C32.1809 46.5199 32.1886 46.4841 32.1892 46.4479C32.1897 46.4116 32.183 46.3755 32.1695 46.3418L31.5979 44.9487C31.5693 44.8798 31.5157 44.8245 31.448 44.7941C31.3804 44.7637 31.304 44.7605 31.2344 44.7851L29.5654 45.4013Z" style="fill:var(--sapContent_Illustrative_Color18)"/>
<path d="M33.8325 43.8343C33.7987 43.8468 33.7678 43.8659 33.7416 43.8906C33.7154 43.9154 33.6945 43.9452 33.6799 43.9783C33.6654 44.0114 33.6577 44.0472 33.6572 44.0834C33.6566 44.1197 33.6634 44.1557 33.6769 44.1894L34.2485 45.5826C34.277 45.6514 34.3307 45.7068 34.3983 45.7372C34.4659 45.7676 34.5424 45.7708 34.612 45.7461L36.2809 45.13C36.3146 45.1177 36.3453 45.0985 36.3713 45.0738C36.3973 45.0491 36.418 45.0193 36.4322 44.9863C36.4464 44.9532 36.4538 44.9176 36.4539 44.8815C36.4541 44.8454 36.447 44.8096 36.433 44.7762L35.865 43.3817C35.8357 43.3135 35.782 43.2588 35.7146 43.2285C35.6472 43.1981 35.5711 43.1945 35.5015 43.2182L33.8325 43.8343Z" style="fill:var(--sapContent_Illustrative_Color18)"/>
<path d="M38.204 42.2741C38.1704 42.2864 38.1397 42.3055 38.1137 42.3302C38.0877 42.3549 38.067 42.3847 38.0528 42.4178C38.0386 42.4509 38.0312 42.4865 38.031 42.5226C38.0309 42.5587 38.0381 42.5945 38.052 42.6279L38.62 44.0224C38.6502 44.0902 38.7047 44.1442 38.7725 44.1736C38.8403 44.203 38.9165 44.2056 38.9858 44.1809L40.6548 43.5648C40.6881 43.5525 40.7185 43.5336 40.7443 43.5093C40.7702 43.4849 40.7909 43.4555 40.8052 43.4228C40.8195 43.3902 40.8271 43.3549 40.8276 43.3192C40.8281 43.2834 40.8215 43.2479 40.8081 43.2146L40.2365 41.8215C40.2079 41.7527 40.1544 41.6973 40.0867 41.6669C40.0191 41.6365 39.9426 41.6333 39.873 41.658L38.204 42.2741Z" style="fill:var(--sapContent_Illustrative_Color18)"/>
<path d="M44.919 41.9992C44.9526 41.9874 44.9834 41.9688 45.0095 41.9445C45.0357 41.9202 45.0565 41.8907 45.0709 41.8579C45.0853 41.8251 45.0928 41.7897 45.0931 41.7538C45.0933 41.7178 45.0863 41.6822 45.0723 41.649L44.5043 40.2545C44.4758 40.1857 44.4221 40.1304 44.3545 40.1C44.2869 40.0695 44.2104 40.0663 44.1409 40.091L42.4718 40.7071C42.4379 40.719 42.4068 40.7379 42.3805 40.7625C42.3542 40.7871 42.3332 40.8169 42.3189 40.8501C42.3047 40.8834 42.2974 40.9192 42.2975 40.9555C42.2977 40.9918 42.3053 41.0277 42.3198 41.0609L42.8878 42.4554C42.917 42.5233 42.9707 42.5776 43.038 42.6072C43.1052 42.6369 43.181 42.6398 43.2499 42.6153L44.919 41.9992Z" style="fill:var(--sapContent_Illustrative_Color18)"/>
<path d="M48.4417 38.7929C48.4132 38.7241 48.3596 38.6687 48.292 38.6383C48.2244 38.6079 48.1479 38.6047 48.0783 38.6294L46.4093 39.2455C46.3754 39.2574 46.3442 39.2762 46.3179 39.3008C46.2916 39.3254 46.2707 39.3553 46.2564 39.3885C46.2422 39.4217 46.2349 39.4576 46.235 39.4938C46.2352 39.5301 46.2428 39.566 46.2573 39.5993L46.8253 40.9938C46.8546 41.062 46.9083 41.1167 46.9757 41.147C47.043 41.1774 47.1192 41.181 47.1888 41.1573L48.8578 40.5412C48.8914 40.5288 48.9221 40.5097 48.9481 40.485C48.9741 40.4603 48.9948 40.4305 49.009 40.3975C49.0232 40.3644 49.0306 40.3287 49.0308 40.2926C49.0309 40.2565 49.0237 40.2207 49.0098 40.1874L48.4417 38.7929Z" style="fill:var(--sapContent_Illustrative_Color18)"/>
<path d="M25.0095 53.5987C25.0428 53.5859 25.0731 53.5666 25.0988 53.5418C25.1245 53.517 25.1451 53.4873 25.1592 53.4544C25.1734 53.4214 25.1808 53.386 25.1812 53.35C25.1816 53.3141 25.1749 53.2784 25.1615 53.245L24.5899 51.8518C24.5613 51.783 24.5077 51.7276 24.4401 51.6972C24.3725 51.6668 24.296 51.6636 24.2264 51.6883L22.5574 52.3044C22.5241 52.3172 22.4938 52.3366 22.4681 52.3614C22.4424 52.3861 22.4219 52.4159 22.4077 52.4488C22.3936 52.4817 22.3861 52.5172 22.3857 52.5531C22.3853 52.5891 22.392 52.6248 22.4054 52.6582L22.9734 54.0527C23.003 54.1215 23.0574 54.1766 23.1255 54.2067C23.1937 54.2368 23.2706 54.2397 23.3405 54.2149L25.0095 53.5987Z" style="fill:var(--sapContent_Illustrative_Color18)"/>
<path d="M29.2736 52.0331C29.3072 52.0208 29.338 52.0017 29.364 51.977C29.39 51.9522 29.4107 51.9225 29.4249 51.8894C29.4391 51.8564 29.4465 51.8207 29.4466 51.7846C29.4467 51.7485 29.4396 51.7127 29.4257 51.6793L28.8576 50.2848C28.8291 50.216 28.7755 50.1607 28.7078 50.1303C28.6402 50.0998 28.5638 50.0966 28.4942 50.1213L26.8252 50.7374C26.7916 50.7498 26.7608 50.7689 26.7348 50.7936C26.7088 50.8183 26.6881 50.8481 26.6739 50.8812C26.6597 50.9142 26.6523 50.9499 26.6522 50.986C26.652 51.0221 26.6591 51.0579 26.6731 51.0912L27.2411 52.4857C27.2704 52.554 27.3241 52.6087 27.3915 52.639C27.4589 52.6693 27.535 52.673 27.6046 52.6493L29.2736 52.0331Z" style="fill:var(--sapContent_Illustrative_Color18)"/>
<path d="M33.5995 50.4573C33.6328 50.4445 33.6632 50.4252 33.6889 50.4004C33.7146 50.3756 33.7351 50.3458 33.7492 50.3129C33.7634 50.28 33.7709 50.2445 33.7713 50.2086C33.7717 50.1726 33.7649 50.1369 33.7515 50.1035L33.1799 48.7104C33.1514 48.6416 33.0977 48.5862 33.0301 48.5558C32.9625 48.5254 32.886 48.5222 32.8164 48.5469L31.1474 49.163C31.1138 49.1753 31.0831 49.1945 31.0571 49.2192C31.0311 49.2439 31.0103 49.2736 30.9961 49.3067C30.9819 49.3398 30.9746 49.3754 30.9744 49.4115C30.9743 49.4476 30.9814 49.4834 30.9954 49.5168L31.567 50.9099C31.5956 50.9788 31.6492 51.0341 31.7168 51.0645C31.7844 51.0949 31.8609 51.0981 31.9305 51.0735L33.5995 50.4573Z" style="fill:var(--sapContent_Illustrative_Color18)"/>
<path d="M37.8617 48.8918C37.8955 48.8793 37.9263 48.8602 37.9525 48.8354C37.9787 48.8107 37.9997 48.7809 38.0142 48.7478C38.0288 48.7147 38.0365 48.6789 38.037 48.6426C38.0376 48.6064 38.0308 48.5703 38.0173 48.5366L37.4457 47.1435C37.4171 47.0746 37.3635 47.0193 37.2959 46.9889C37.2283 46.9585 37.1518 46.9553 37.0822 46.98L35.4132 47.5961C35.3793 47.608 35.3481 47.6268 35.3218 47.6514C35.2955 47.676 35.2746 47.7058 35.2604 47.7391C35.2461 47.7723 35.2388 47.8081 35.2389 47.8444C35.2391 47.8807 35.2467 47.9166 35.2612 47.9498L35.8292 49.3443C35.8585 49.4126 35.9122 49.4673 35.9796 49.4976C36.0469 49.5279 36.1231 49.5316 36.1927 49.5079L37.8617 48.8918Z" style="fill:var(--sapContent_Illustrative_Color18)"/>
<path d="M42.2368 47.3265C42.2701 47.3142 42.3006 47.2953 42.3264 47.271C42.3522 47.2466 42.3729 47.2172 42.3872 47.1845C42.4015 47.1519 42.4091 47.1166 42.4096 47.0809C42.4101 47.0451 42.4035 47.0096 42.3902 46.9764L41.8186 45.5832C41.7908 45.5137 41.7372 45.4578 41.6694 45.4272C41.6015 45.3967 41.5246 45.394 41.4551 45.4197L39.7861 46.0358C39.7525 46.0481 39.7217 46.0673 39.6957 46.092C39.6697 46.1167 39.649 46.1465 39.6348 46.1795C39.6206 46.2126 39.6132 46.2482 39.6131 46.2843C39.613 46.3204 39.6201 46.3562 39.6341 46.3896L40.2057 47.7827C40.2341 47.8512 40.2877 47.9061 40.3552 47.9359C40.4227 47.9657 40.4989 47.9681 40.5678 47.9426L42.2368 47.3265Z" style="fill:var(--sapContent_Illustrative_Color18)"/>
<path d="M44.0497 44.4704C44.0161 44.4827 43.9854 44.5018 43.9594 44.5265C43.9334 44.5512 43.9127 44.581 43.8985 44.6141C43.8843 44.6471 43.8769 44.6828 43.8767 44.7189C43.8766 44.755 43.8838 44.7908 43.8977 44.8242L44.4657 46.2187C44.4959 46.2865 44.5504 46.3405 44.6182 46.3699C44.686 46.3993 44.7621 46.4019 44.8314 46.3772L46.4969 45.7624C46.5306 45.7505 46.5616 45.7319 46.5879 45.7075C46.6143 45.6832 46.6354 45.6538 46.6501 45.6209C46.6648 45.5881 46.6726 45.5525 46.6733 45.5164C46.6739 45.4804 46.6673 45.4445 46.6538 45.4109L46.0822 44.0178C46.0536 43.9489 46 43.8936 45.9324 43.8632C45.8648 43.8328 45.7883 43.8296 45.7187 43.8543L44.0497 44.4704Z" style="fill:var(--sapContent_Illustrative_Color18)"/>
<path d="M50.0217 42.5546C49.9931 42.4858 49.9395 42.4305 49.8719 42.4C49.8043 42.3696 49.7278 42.3664 49.6582 42.3911L47.9892 43.0072C47.9556 43.0196 47.9249 43.0387 47.8989 43.0634C47.8729 43.0881 47.8521 43.1179 47.8379 43.1509C47.8237 43.184 47.8164 43.2197 47.8162 43.2558C47.8161 43.2919 47.8232 43.3277 47.8372 43.361L48.4052 44.7555C48.4354 44.8234 48.4898 44.8774 48.5576 44.9068C48.6254 44.9362 48.7016 44.9388 48.7709 44.9141L50.4399 44.298C50.4732 44.2857 50.5037 44.2668 50.5295 44.2424C50.5554 44.218 50.576 44.1886 50.5903 44.156C50.6046 44.1233 50.6123 44.0881 50.6128 44.0523C50.6133 44.0166 50.6066 43.981 50.5933 43.9478L50.0217 42.5546Z" style="fill:var(--sapContent_Illustrative_Color18)"/>
<path d="M26.1283 55.4725C26.0998 55.4037 26.0462 55.3484 25.9785 55.318C25.9109 55.2875 25.8344 55.2844 25.7649 55.309L24.1103 55.9198C24.0767 55.9322 24.046 55.9513 24.02 55.976C23.994 56.0007 23.9732 56.0305 23.959 56.0635C23.9448 56.0966 23.9374 56.1323 23.9373 56.1684C23.9371 56.2045 23.9443 56.2403 23.9583 56.2736L24.5262 57.6681C24.5558 57.7369 24.6102 57.792 24.6784 57.8221C24.7466 57.8522 24.8234 57.8552 24.8933 57.8303L26.5623 57.2142C26.5956 57.2014 26.626 57.182 26.6517 57.1572C26.6774 57.1324 26.6979 57.1027 26.7121 57.0698C26.7262 57.0369 26.7337 57.0014 26.7341 56.9654C26.7345 56.9295 26.7278 56.8938 26.7144 56.8604L26.1283 55.4725Z" style="fill:var(--sapContent_Illustrative_Color18)"/>
<path d="M30.3947 53.9057C30.3654 53.8375 30.3117 53.7827 30.2444 53.7524C30.177 53.7221 30.1009 53.7185 30.0313 53.7422L28.3623 54.3583C28.3287 54.3707 28.2979 54.3898 28.2719 54.4145C28.2459 54.4392 28.2252 54.469 28.211 54.502C28.1968 54.5351 28.1894 54.5707 28.1893 54.6068C28.1891 54.6429 28.1963 54.6788 28.2102 54.7121L28.7782 56.1066C28.8075 56.1748 28.8612 56.2295 28.9286 56.2598C28.996 56.2902 29.0721 56.2938 29.1417 56.2701L30.8107 55.654C30.8443 55.6416 30.8751 55.6225 30.9011 55.5978C30.9271 55.5731 30.9478 55.5433 30.962 55.5103C30.9762 55.4772 30.9836 55.4415 30.9837 55.4054C30.9838 55.3693 30.9767 55.3335 30.9627 55.3002L30.3947 53.9057Z" style="fill:var(--sapContent_Illustrative_Color18)"/>
<path d="M34.717 52.331C34.6885 52.2622 34.6348 52.2068 34.5672 52.1764C34.4996 52.146 34.4231 52.1428 34.3536 52.1675L32.6845 52.7836C32.6509 52.7959 32.6202 52.8151 32.5942 52.8398C32.5682 52.8645 32.5475 52.8942 32.5333 52.9273C32.5191 52.9604 32.5117 52.996 32.5115 53.0321C32.5114 53.0682 32.5185 53.104 32.5325 53.1374L33.1041 54.5305C33.1326 54.599 33.1862 54.6539 33.2537 54.6837C33.3212 54.7135 33.3973 54.7159 33.4662 54.6904L35.1353 54.0743C35.1685 54.062 35.199 54.0432 35.2249 54.0188C35.2507 53.9944 35.2713 53.965 35.2856 53.9323C35.2999 53.8997 35.3076 53.8644 35.3081 53.8287C35.3086 53.7929 35.302 53.7574 35.2886 53.7241L34.717 52.331Z" style="fill:var(--sapContent_Illustrative_Color18)"/>
<path d="M38.9985 50.7589C38.9699 50.6901 38.9163 50.6348 38.8486 50.6044C38.781 50.5739 38.7046 50.5707 38.635 50.5954L36.966 51.2115C36.932 51.2234 36.9009 51.2423 36.8746 51.2669C36.8483 51.2915 36.8274 51.3213 36.8131 51.3545C36.7988 51.3878 36.7915 51.4236 36.7917 51.4599C36.7918 51.4962 36.7994 51.5321 36.8139 51.5653L37.382 52.9598C37.4112 53.0277 37.4649 53.0819 37.5321 53.1116C37.5994 53.1413 37.6752 53.1442 37.7441 53.1197L39.4131 52.5036C39.4467 52.4918 39.4775 52.4731 39.5037 52.4488C39.5298 52.4246 39.5507 52.3951 39.5651 52.3623C39.5794 52.3295 39.587 52.2941 39.5872 52.2581C39.5875 52.2222 39.5804 52.1866 39.5665 52.1534L38.9985 50.7589Z" style="fill:var(--sapContent_Illustrative_Color18)"/>
<path d="M43.3405 49.2056C43.312 49.1371 43.2585 49.0822 43.191 49.0524C43.1235 49.0226 43.0473 49.0202 42.9784 49.0457L41.3094 49.6618C41.2761 49.6741 41.2456 49.693 41.2198 49.7174C41.194 49.7417 41.1733 49.7711 41.159 49.8038C41.1447 49.8364 41.1371 49.8717 41.1366 49.9074C41.1361 49.9432 41.1427 49.9788 41.156 50.012L41.729 51.4088C41.7574 51.4772 41.8111 51.5321 41.8786 51.5619C41.9461 51.5917 42.0222 51.5942 42.0911 51.5687L43.7601 50.9526C43.7934 50.9403 43.8238 50.9214 43.8497 50.897C43.8755 50.8726 43.8962 50.8432 43.9105 50.8106C43.9248 50.7779 43.9324 50.7427 43.9329 50.7069C43.9335 50.6711 43.9268 50.6356 43.9135 50.6024L43.3405 49.2056Z" style="fill:var(--sapContent_Illustrative_Color18)"/>
<path d="M48.0379 49.3816C48.0717 49.3697 48.1026 49.351 48.1289 49.3267C48.1553 49.3024 48.1764 49.2729 48.1911 49.2401C48.2058 49.2072 48.2137 49.1717 48.2143 49.1356C48.2149 49.0995 48.2083 49.0636 48.1949 49.0301L47.6219 47.6333C47.5927 47.5654 47.539 47.5112 47.4717 47.4815C47.4045 47.4518 47.3287 47.4489 47.2598 47.4734L45.5908 48.0895C45.5571 48.1013 45.5263 48.12 45.5002 48.1443C45.474 48.1686 45.4532 48.198 45.4388 48.2308C45.4244 48.2636 45.4169 48.299 45.4167 48.335C45.4164 48.3709 45.4235 48.4065 45.4374 48.4397L46.0067 49.8378C46.0359 49.9057 46.0896 49.96 46.1569 49.9896C46.2241 50.0193 46.2999 50.0222 46.3689 49.9977L48.0379 49.3816Z" style="fill:var(--sapContent_Illustrative_Color18)"/>
<path d="M49.5263 46.6281C49.4927 46.6404 49.462 46.6596 49.436 46.6843C49.41 46.709 49.3892 46.7387 49.375 46.7718C49.3608 46.8049 49.3535 46.8405 49.3533 46.8766C49.3532 46.9127 49.3603 46.9485 49.3743 46.9819L49.9423 48.3764C49.9725 48.4442 50.0269 48.4982 50.0947 48.5276C50.1626 48.557 50.2387 48.5596 50.308 48.5349L51.977 47.9188C52.0103 47.9065 52.0408 47.8876 52.0666 47.8632C52.0925 47.8389 52.1131 47.8095 52.1274 47.7768C52.1417 47.7442 52.1494 47.7089 52.1499 47.6732C52.1504 47.6374 52.1437 47.6019 52.1304 47.5686L51.5588 46.1755C51.5303 46.1066 51.4766 46.0513 51.409 46.0209C51.3414 45.9905 51.2649 45.9873 51.1953 46.012L49.5263 46.6281Z" style="fill:var(--sapContent_Illustrative_Color18)"/>
<path d="M27.6584 59.1081C27.6298 59.0393 27.5762 58.9839 27.5086 58.9535C27.441 58.9231 27.3645 58.9199 27.2949 58.9446L25.6259 59.5607C25.5923 59.573 25.5616 59.5922 25.5356 59.6169C25.5096 59.6416 25.4889 59.6714 25.4747 59.7044C25.4604 59.7375 25.4531 59.7731 25.4529 59.8092C25.4528 59.8453 25.4599 59.8811 25.4739 59.9145L26.0419 61.309C26.0721 61.3768 26.1266 61.4309 26.1944 61.4603C26.2622 61.4897 26.3383 61.4922 26.4076 61.4675L28.0766 60.8514C28.1099 60.8392 28.1404 60.8203 28.1662 60.7959C28.1921 60.7715 28.2127 60.7421 28.227 60.7095C28.2413 60.6768 28.249 60.6416 28.2495 60.6058C28.25 60.57 28.2434 60.5345 28.23 60.5013L27.6584 59.1081Z" style="fill:var(--sapContent_Illustrative_Color18)"/>
<path d="M31.9242 57.5414C31.8956 57.4726 31.842 57.4173 31.7744 57.3869C31.7068 57.3564 31.6303 57.3532 31.5607 57.3779L29.8917 57.994C29.8578 58.0059 29.8267 58.0247 29.8004 58.0494C29.7741 58.074 29.7531 58.1038 29.7389 58.137C29.7246 58.1702 29.7173 58.2061 29.7174 58.2424C29.7176 58.2786 29.7252 58.3145 29.7397 58.3478L30.3077 59.7423C30.3369 59.8102 30.3906 59.8644 30.4578 59.8941C30.5251 59.9238 30.6009 59.9267 30.6699 59.9022L32.3389 59.2861C32.3725 59.2743 32.4033 59.2556 32.4294 59.2313C32.4555 59.207 32.4765 59.1776 32.4908 59.1448C32.5052 59.112 32.5127 59.0765 32.513 59.0406C32.5132 59.0047 32.5061 58.9691 32.4922 58.9359L31.9242 57.5414Z" style="fill:var(--sapContent_Illustrative_Color18)"/>
<path d="M36.2463 55.9667C36.2177 55.8979 36.1641 55.8426 36.0965 55.8122C36.0289 55.7817 35.9524 55.7785 35.8828 55.8032L34.2138 56.4193C34.1802 56.4317 34.1495 56.4508 34.1235 56.4755C34.0975 56.5002 34.0767 56.53 34.0625 56.5631C34.0483 56.5961 34.0409 56.6318 34.0408 56.6679C34.0407 56.704 34.0478 56.7398 34.0618 56.7731L34.6298 58.1676C34.66 58.2355 34.7144 58.2895 34.7822 58.3189C34.8501 58.3483 34.9262 58.3509 34.9955 58.3262L36.6501 57.7154C36.6834 57.7031 36.7139 57.6842 36.7397 57.6598C36.7655 57.6355 36.7862 57.6061 36.8005 57.5734C36.8148 57.5408 36.8224 57.5055 36.8229 57.4698C36.8234 57.434 36.8168 57.3985 36.8034 57.3652L36.2463 55.9667Z" style="fill:var(--sapContent_Illustrative_Color18)"/>
<path d="M40.5141 54.3998C40.4855 54.331 40.4319 54.2756 40.3643 54.2452C40.2966 54.2148 40.2202 54.2116 40.1506 54.2363L38.4816 54.8524C38.4477 54.8643 38.4165 54.8831 38.3902 54.9077C38.3639 54.9323 38.343 54.9622 38.3287 54.9954C38.3144 55.0286 38.3072 55.0645 38.3073 55.1008C38.3074 55.137 38.315 55.1729 38.3296 55.2062L38.8976 56.6007C38.9268 56.6685 38.9805 56.7228 39.0477 56.7525C39.115 56.7822 39.1908 56.7851 39.2597 56.7606L40.9287 56.1445C40.9623 56.1326 40.9932 56.114 41.0193 56.0897C41.0454 56.0654 41.0663 56.036 41.0807 56.0032C41.095 55.9704 41.1026 55.9349 41.1028 55.899C41.1031 55.8631 41.096 55.8274 41.0821 55.7943L40.5141 54.3998Z" style="fill:var(--sapContent_Illustrative_Color18)"/>
<path d="M44.8874 52.8433C44.859 52.7748 44.8054 52.7199 44.7379 52.6901C44.6704 52.6603 44.5942 52.6579 44.5253 52.6834L42.8563 53.2995C42.823 53.3118 42.7925 53.3307 42.7667 53.355C42.7409 53.3794 42.7202 53.4088 42.7059 53.4415C42.6916 53.4741 42.684 53.5094 42.6835 53.5451C42.6829 53.5809 42.6895 53.6164 42.7029 53.6497L43.2745 55.0428C43.3023 55.1123 43.3559 55.1682 43.4237 55.1988C43.4916 55.2293 43.5685 55.232 43.638 55.2064L45.3251 54.5836C45.3587 54.5712 45.3894 54.5521 45.4154 54.5274C45.4414 54.5027 45.4621 54.4729 45.4763 54.4399C45.4905 54.4068 45.4979 54.3711 45.4981 54.335C45.4982 54.2989 45.491 54.2631 45.4771 54.2298L44.8874 52.8433Z" style="fill:var(--sapContent_Illustrative_Color18)"/>
<path d="M27.8394 62.8138C27.6769 61.6264 27.585 60.4108 27.585 59.181C27.585 44.7275 39.3033 33.0022 53.7638 33.0022C64.224 33.0022 73.2495 39.137 77.4406 48.014C79.9779 46.8337 82.805 46.1764 85.7876 46.1764C95.64 46.1764 103.817 53.3643 105.358 62.7855C112.843 63.1955 118.794 69.4009 118.794 76.9916C118.794 84.8509 112.426 91.219 104.567 91.219H29.1257C21.2664 91.219 14.8984 84.8509 14.8984 76.9916C14.8984 69.5705 20.5809 63.4782 27.8324 62.8279L27.8394 62.8138Z" style="fill:var(--sapContent_Illustrative_Color8)"/>
<path d="M22.3105 108.195C22.3105 107.511 22.8649 106.957 23.5488 106.957H104.453C105.137 106.957 105.691 107.511 105.691 108.195V108.704H22.3105V108.195Z" style="fill:var(--sapContent_Illustrative_Color2)"/>
<path d="M24.022 110.194C24.2489 110.397 24.5425 110.509 24.8467 110.509H103.155C103.459 110.509 103.753 110.397 103.98 110.194L105.691 108.666H22.3105L24.022 110.194Z" style="fill:var(--sapContent_Illustrative_Color13)"/>
<rect x="30.5156" y="62.3538" width="66.9687" height="44.6809" rx="2.47656" style="fill:var(--sapContent_Illustrative_Color2)"/>
<path d="M64.0011 63.8487C64.2379 63.8487 64.4299 63.6564 64.4299 63.4192C64.4299 63.182 64.2379 62.9897 64.0011 62.9897C63.7642 62.9897 63.5723 63.182 63.5723 63.4192C63.5723 63.6564 63.7642 63.8487 64.0011 63.8487Z" style="fill:var(--sapContent_Illustrative_Color14)"/>
<rect x="32.7305" y="64.4363" width="62.5408" height="40.5163" rx="1.65104" style="fill:var(--sapContent_Illustrative_Color7)"/>
<path d="M59.1504 106.708H68.8517V107.005C68.8517 107.461 68.4821 107.83 68.0262 107.83H59.9759C59.52 107.83 59.1504 107.461 59.1504 107.005V106.708Z" style="fill:var(--sapContent_Illustrative_Color14)"/>
<path fill-rule="evenodd" clip-rule="evenodd" d="M41.5999 71.2583C41.9643 71.2583 42.2598 71.5537 42.2598 71.9182V98.2974C42.2598 98.6619 41.9643 98.9573 41.5999 98.9573C41.2355 98.9573 40.94 98.6619 40.94 98.2974V71.9182C40.94 71.5537 41.2355 71.2583 41.5999 71.2583Z" style="fill:var(--sapContent_Illustrative_Color20)"/>
<rect x="40.9395" y="97.7551" width="46.1187" height="1.31968" rx="0.65984" style="fill:var(--sapContent_Illustrative_Color20)"/>
<rect x="46.7773" y="81.0117" width="5.01886" height="13.4665" rx="0.932611" style="fill:var(--sapContent_Illustrative_Color20)"/>
<rect x="54.2832" y="73.7996" width="5.01886" height="20.6788" rx="0.932611" style="fill:var(--sapContent_Illustrative_Color3)"/>
<rect x="61.7891" y="87.4041" width="5.01886" height="7.07427" rx="0.932611" style="fill:var(--sapContent_Illustrative_Color19)"/>
<rect x="69.2949" y="81.0117" width="5.01886" height="13.4665" rx="0.932611" style="fill:var(--sapContent_Illustrative_Color2)"/>
<rect x="76.8008" y="76.4531" width="5.01886" height="18.0253" rx="0.932611" style="fill:var(--sapContent_Illustrative_Color20)"/>
</svg>
