<svg width="160" height="160" id="tnt-Dialog-NoFlows" xmlns="http://www.w3.org/2000/svg" viewBox="0 0 160 160">
    <circle cx="79.04" cy="80.67" r="78.05" style="fill:var(--sapContent_Illustrative_Color7)" />
    <path d="m22.48,29.57c.6-.65,1.43-1.04,2.32-1.07.88-.04,1.75.28,2.4.88l39.64,36.53c.65.6,1.03,1.43,1.07,2.32.04.88-.28,1.75-.88,2.4l-25.9,28.11c-.6.65-1.43,1.04-2.32,1.07-.88.04-1.75-.28-2.4-.88L.49,65.82l.72-13.16,21.27-23.09Z" style="fill:var(--sapContent_Illustrative_Color19)" />
    <path d="m22.34,26.39c.6-.65,1.43-1.04,2.32-1.07.88-.04,1.75.28,2.4.88l39.64,36.53c.65.6,1.03,1.43,1.07,2.32.04.88-.28,1.75-.88,2.4l-25.9,28.11c-.3.32-.65.58-1.05.77-.4.18-.83.29-1.26.31-.44.02-.87-.05-1.29-.2-.41-.15-.79-.38-1.11-.68L.35,62.64l.72-13.16,21.27-23.09Z" style="fill:var(--sapContent_Illustrative_Color18)" />
    <path d="m7.25,55.16l-5.38,8.87-1.51-1.39,6.89-7.48Z" style="fill:var(--sapContent_Illustrative_Color20)" />
    <path d="m7.25,55.16L.36,62.63l.72-13.16,6.17,5.69Z" style="fill:var(--sapContent_Illustrative_Color19)" />
    <path d="m44.78,15.27c3.39,5.91,6.76,12.94,1.94,15.1-6.04,2.7-8.74-3.15-12.14-9.07-3.4-5.93-5.34-11.28-1.04-13.75,4.04-2.32,7.83,1.79,11.24,7.73Z" style="fill:var(--sapContent_Illustrative_Color20)" />
    <path d="m45.72,7.85c.99-3.33.28-6.48-1.59-7.04-1.87-.56-4.19,1.69-5.18,5.02-.99,3.33-.28,6.48,1.59,7.04s4.19-1.69,5.18-5.02Z" style="fill:var(--sapContent_Illustrative_Color20)" />
    <path d="m57.05,17.41c1.56,3.56,1.13,7.17-.93,8.1-5.05,2.26-5.29-1.08-6.58-4.81-1.29-3.73-1.12-7.15.93-8.1,3.77-1.75,5.02,1.23,6.58,4.81Z" style="fill:var(--sapContent_Illustrative_Color20)" />
    <path d="m64.42,26.68l-27.88,12.2c-.33.14-.48.53-.34.86l8.24,18.82c.14.33.53.48.86.34l27.88-12.2c.33-.14.48-.53.34-.86l-8.24-18.82c-.14-.33-.53-.48-.86-.34Z" style="fill:var(--sapContent_Illustrative_Color19)" />
    <path d="m62.94,23.34l-27.83,12.18c-.33.14-.48.53-.34.86l2.96,6.75c.14.33.53.48.86.34l27.83-12.18c.33-.14.48-.53.34-.86l-2.96-6.76c-.14-.33-.53-.48-.86-.34Z" style="fill:var(--sapContent_Illustrative_Color20)" />
    <path d="m63.49,20l-30.98,13.56c-.33.14-.48.53-.34.86l3.24,7.4c.14.33.53.48.86.34l30.98-13.56c.33-.14.48-.53.34-.86l-3.24-7.4c-.14-.33-.53-.48-.86-.34Z" style="fill:var(--sapContent_Illustrative_Color19)" />
    <path d="m24.22,65.37c-1.17-3.5,1.04-7.22,4.67-7.88l99.65-17.89c2.96-.53,5.85,1.19,6.81,4.03l19.31,57.69c1.17,3.5-1.04,7.22-4.67,7.88l-99.65,17.89c-2.96.53-5.85-1.19-6.81-4.03l-19.31-57.69Z" style="fill:var(--sapContent_Illustrative_Color14)" />
    <path d="m26.54,56.68l-1.95,4.12,4.57-1.01-2.62-3.11Z" style="fill:var(--sapContent_Illustrative_Color14)" />
    <path d="m154.36,102.67l-.04,3.28,1.53-3.28h-1.5Z" style="fill:var(--sapContent_Illustrative_Color14)" />
    <path d="m26.13,61.54c-1.17-3.5,1.04-7.22,4.67-7.88l99.65-17.89c2.96-.53,5.85,1.19,6.81,4.03l19.31,57.69c1.17,3.5-1.04,7.22-4.67,7.88l-99.65,17.89c-2.96.53-5.85-1.19-6.81-4.03l-19.31-57.69Z" style="fill:var(--sapContent_Illustrative_Color2)" />
    <path d="m26.13,61.55c-1.17-3.5,1.04-7.23,4.68-7.88l99.71-17.73c2.95-.53,5.84,1.19,6.8,4.04l3.15,9.41-111.75,19.87-2.58-7.72Z" style="fill:var(--sapContent_Illustrative_Color13)" />
    <path d="m38.88,76.26c-.47-1.4.41-2.89,1.87-3.15l91.99-16.5c1.18-.21,2.34.47,2.72,1.61l12.72,37.98c.47,1.4-.41,2.89-1.87,3.15l-91.99,16.5c-1.18.21-2.34-.47-2.72-1.61l-12.72-37.98Z" style="fill:var(--sapContent_Illustrative_Color13)" />
    <path d="m40.6,73.77c-.47-1.4.41-2.89,1.87-3.15l91.99-16.5c1.18-.21,2.34.47,2.72,1.61l12.72,37.98c.47,1.4-.41,2.89-1.87,3.15l-91.99,16.5c-1.18.21-2.34-.48-2.72-1.61l-12.72-37.98Z" style="fill:var(--sapContent_Illustrative_Color8)" />
    <path d="m50.17,79.57c-.37-1.11.33-2.28,1.47-2.49l20.08-3.6c.93-.17,1.85.38,2.15,1.27l2.29,6.85c.37,1.11-.33,2.28-1.47,2.49l-20.08,3.6c-.93.17-1.85-.37-2.15-1.27l-2.29-6.85Z" style="fill:var(--sapContent_Illustrative_Color6)" />
    <path d="m56.31,97.19c-.37-1.11.33-2.28,1.47-2.49l20.08-3.6c.93-.17,1.85.38,2.15,1.27l2.29,6.85c.37,1.11-.33,2.28-1.47,2.49l-20.08,3.6c-.93.17-1.85-.37-2.15-1.27l-2.29-6.85Z" style="fill:var(--sapContent_Illustrative_Color6)" />
    <circle cx="35.68" cy="60.19" r="2.72" style="fill:var(--sapContent_Illustrative_Color20)" />
    <circle cx="46.01" cy="58.46" r="2.72" style="fill:var(--sapContent_Illustrative_Color20)" />
    <circle cx="56.33" cy="56.56" r="2.72" style="fill:var(--sapContent_Illustrative_Color20)" />
    <path d="m83.66,75.79l7.78-7.78c.46-.46,1.15-.61,1.76-.38l11.65,4.36c.39.15.52.64.25.96l-7.15,8.26c-.46.54-1.22.72-1.87.46l-12.21-4.88c-.4-.16-.51-.68-.2-.99Z" style="fill:var(--sapContent_Illustrative_Color6)" />
    <path d="m68.37,98.79l-6.41-19.18,1.72-.58,6.41,19.18-1.72.58Z" style="fill:var(--sapContent_Illustrative_Color6)" fill-rule="evenodd" />
    <path d="m129.02,69.09l-70.11,12.84-.33-1.79,70.11-12.84.33,1.79Z" style="fill:var(--sapContent_Illustrative_Color6)" fill-rule="evenodd" />
    <ellipse cx="121.47" cy="69.59" rx="7.36" ry="9.12" transform="translate(1.76 142.17) rotate(-61.03)" style="fill:var(--sapContent_Illustrative_Color6)" />
    <path d="m138.22,5.69c.18.21.3.46.35.73.05.27.02.55-.08.8l-2.15,6.16c-.36,1.02-1.39,1.27-2.19,1-.33-.1-.62-.31-.82-.59-.2-.28-.31-.62-.3-.97,0-.17.04-.33.1-.49l2.15-6.16c.09-.27.25-.52.47-.7.22-.19.48-.31.76-.37.31-.06.64-.03.94.07.3.1.57.28.79.52Z" style="fill:var(--sapContent_Illustrative_Color5)" />
    <path d="m159.55,34.01c.03.19.02.39-.03.58s-.14.37-.26.52c-.12.15-.27.28-.45.37-.17.09-.36.15-.56.16l-6.31.75c-.23.03-.46,0-.68-.06-.22-.06-.42-.17-.6-.31-.18-.14-.33-.32-.43-.52-.11-.2-.18-.42-.2-.65-.01-.09-.02-.19-.01-.28,0-.35.15-.68.39-.93.24-.25.57-.4.92-.42l6.31-.75c.23-.03.46,0,.68.06.22.06.43.17.6.31.18.14.33.32.43.52.11.2.18.42.2.65Z" style="fill:var(--sapContent_Illustrative_Color5)" />
    <path d="m153.98,17.07c-.02.21-.09.42-.19.61-.1.19-.24.35-.41.48l-7.55,5.96c-.34.27-.77.39-1.2.34s-.82-.25-1.1-.58c-.26-.31-.39-.7-.37-1.1.01-.23.07-.46.18-.66.11-.21.25-.39.44-.53l7.55-5.96c.34-.27.77-.39,1.21-.35.43.04.83.26,1.11.59.14.16.24.35.3.56s.08.42.06.63Z" style="fill:var(--sapContent_Illustrative_Color5)" />
    <path d="m113.45,133.91c0-.78-2.28-1.41-5.32-1.56-.17-3.04-.84-5.3-1.63-5.3-.78,0-1.44,2.28-1.6,5.33-3.05.21-5.32.89-5.31,1.68.01.79,2.28,1.41,5.32,1.56.18,3.04.84,5.3,1.63,5.3.78,0,1.44-2.28,1.61-5.33,3.05-.21,5.32-.89,5.31-1.68Z" style="fill:var(--sapContent_Illustrative_Color18)" />
    <path d="m27.06,107.67c0-.52-1.52-.94-3.55-1.04-.12-2.03-.56-3.53-1.09-3.53-.52,0-.96,1.52-1.07,3.56-2.03.14-3.55.59-3.54,1.12,0,.52,1.52.94,3.55,1.04.12,2.03.56,3.53,1.08,3.53.52,0,.96-1.52,1.07-3.56,2.03-.14,3.55-.59,3.54-1.12Z" style="fill:var(--sapContent_Illustrative_Color18)" />
    <path d="m85.61,23.35c0-.78-2.28-1.41-5.32-1.56-.17-3.04-.84-5.3-1.63-5.3-.78,0-1.44,2.28-1.6,5.33-3.05.21-5.32.89-5.31,1.68s2.28,1.41,5.32,1.56c.18,3.04.84,5.3,1.63,5.3.78,0,1.44-2.28,1.61-5.33,3.05-.21,5.32-.89,5.31-1.68Z" style="fill:var(--sapContent_Illustrative_Color18)" />
    <path d="m139.57,128.9c11.14,0,20.17-9.03,20.17-20.17s-9.03-20.17-20.17-20.17-20.17,9.03-20.17,20.17,9.03,20.17,20.17,20.17Z" style="fill:var(--sapContent_Illustrative_Color3)" />
    <path d="m139.58,97.76h0c-1.51,0-2.73,1.22-2.73,2.72v16.51c0,1.5,1.22,2.72,2.73,2.72h0c1.51,0,2.72-1.22,2.72-2.72v-16.51c0-1.51-1.22-2.72-2.72-2.72Z" style="fill:var(--sapContent_Illustrative_Color8)" />
    <path d="m129.05,108.43v.62c0,1.34,1.08,2.42,2.42,2.42h16.21c1.34,0,2.42-1.08,2.42-2.42v-.62c0-1.34-1.08-2.42-2.42-2.42h-16.21c-1.34,0-2.42,1.08-2.42,2.42Z" style="fill:var(--sapContent_Illustrative_Color8)" />
</svg>