<svg width="160" height="160" viewBox="0 0 160 160" fill="none" xmlns="http://www.w3.org/2000/svg" id="tnt-Dialog-FaceID">
<circle cx="79.9998" cy="84.4056" r="77.0916" style="fill:var(--sapContent_Illustrative_Color7)"/>
<path fill-rule="evenodd" clip-rule="evenodd" d="M20.8298 133.825C19.6983 125.335 19.0986 116.466 19.0986 107.344V107.344H142.421V107.344C142.421 115.666 141.922 123.777 140.975 131.583C126.874 149.782 104.805 161.497 79.9999 161.497C56.2292 161.497 34.9713 150.739 20.8298 133.825Z" style="fill:var(--sapContent_Illustrative_Color18)"/>
<path fill-rule="evenodd" clip-rule="evenodd" d="M126.674 145.767C129.123 133.792 130.478 120.851 130.518 107.344H142.421V107.344C142.421 115.666 141.922 123.777 140.975 131.582C136.847 136.91 132.036 141.682 126.674 145.767Z" style="fill:var(--sapContent_Illustrative_Color19)"/>
<ellipse cx="80.7603" cy="107.343" rx="61.6612" ry="12.0753" style="fill:var(--sapContent_Illustrative_Color20)"/>
<ellipse cx="8.73676" cy="10.799" rx="8.73676" ry="10.799" transform="matrix(-0.877901 -0.478843 -0.478843 0.877901 43.123 50.96)" style="fill:var(--sapContent_Illustrative_Color19)"/>
<path fill-rule="evenodd" clip-rule="evenodd" d="M19.0988 88.0599L19.0986 88.0599C19.0986 54.7312 46.7053 27.7129 80.7598 27.7129C114.805 27.7129 142.406 54.7162 142.421 88.0322C142.421 88.0414 142.421 88.0507 142.421 88.0599C142.421 94.729 114.815 100.135 80.76 100.135C46.7054 100.135 19.0988 94.729 19.0988 88.0599Z" style="fill:var(--sapContent_Illustrative_Color18)"/>
<path fill-rule="evenodd" clip-rule="evenodd" d="M120.112 80.1978C120.112 80.2551 120.112 80.3124 120.112 80.3696H120.102C119.636 84.5463 102.201 87.9041 80.7606 87.9041C59.3207 87.9041 41.8854 84.5463 41.4188 80.3696H41.4099C41.4097 80.3228 41.4095 80.276 41.4095 80.2291C41.4093 80.2187 41.4092 80.2082 41.4092 80.1977C41.4092 80.1873 41.4093 80.1768 41.4095 80.1663C41.4269 58.9108 59.0385 41.6851 80.7609 41.6851C102.494 41.6851 120.112 58.9278 120.112 80.1978Z" style="fill:var(--sapContent_Illustrative_Color20)"/>
<rect x="52.2817" y="5.35986" width="5.40729" height="36.325" rx="2.70364" style="fill:var(--sapContent_Illustrative_Color20)"/>
<rect x="103.831" y="2.39233" width="5.40729" height="39.2926" rx="2.70364" style="fill:var(--sapContent_Illustrative_Color20)"/>
<circle cx="54.9852" cy="10.2936" r="7.90127" style="fill:var(--sapContent_Illustrative_Color18)"/>
<path fill-rule="evenodd" clip-rule="evenodd" d="M51.8928 16.0342C56.2566 16.0342 59.7941 12.4967 59.7941 8.13291C59.7941 6.13546 59.0529 4.31111 57.8305 2.91992C60.7885 4.06197 62.8868 6.9327 62.8868 10.2935C62.8868 14.6573 59.3493 18.1948 54.9856 18.1948C52.6193 18.1948 50.4959 17.1546 49.0479 15.5065C49.9306 15.8473 50.8899 16.0342 51.8928 16.0342Z" style="fill:var(--sapContent_Illustrative_Color19)"/>
<circle cx="106.535" cy="10.2936" r="7.90127" style="fill:var(--sapContent_Illustrative_Color1)"/>
<circle cx="66.7901" cy="64.7945" r="5.50496" style="fill:var(--sapContent_Illustrative_Color8)"/>
<circle cx="94.7296" cy="64.7945" r="5.50496" style="fill:var(--sapContent_Illustrative_Color9)"/>
<ellipse cx="130.633" cy="56.2569" rx="8.73676" ry="10.799" transform="rotate(-28.6099 130.633 56.2569)" style="fill:var(--sapContent_Illustrative_Color2)"/>
<path fill-rule="evenodd" clip-rule="evenodd" d="M63.4521 99.6531V30.1226C68.9432 28.554 74.7512 27.7129 80.7599 27.7129C114.814 27.7129 142.421 54.7312 142.421 88.0599L142.421 88.0599C142.421 94.729 114.814 100.135 80.7597 100.135C74.7511 100.135 68.9431 99.967 63.4521 99.6531Z" style="fill:var(--sapContent_Illustrative_Color2)"/>
<path fill-rule="evenodd" clip-rule="evenodd" d="M130.055 95.315C130.488 92.4384 130.712 89.4956 130.712 86.5017C130.712 57.7042 109.971 33.6328 82.2671 27.7305C115.625 28.5136 142.421 55.2242 142.421 88.0598L142.421 88.0598C142.421 90.7827 137.819 93.2951 130.055 95.315Z" style="fill:var(--sapContent_Illustrative_Color13)"/>
<path fill-rule="evenodd" clip-rule="evenodd" d="M63.4521 87.1206V45.6009C68.6756 43.0931 74.5501 41.6851 80.7607 41.6851C102.494 41.6851 120.112 58.9278 120.112 80.1978C120.112 80.2551 120.112 80.3124 120.112 80.3696H120.102C119.635 84.5463 102.2 87.9041 80.7602 87.9041C74.5498 87.9041 68.6754 87.6223 63.4521 87.1206Z" style="fill:var(--sapContent_Illustrative_Color4)"/>
<rect x="103.831" y="5.35986" width="5.40729" height="36.325" rx="2.70364" style="fill:var(--sapContent_Illustrative_Color5)"/>
<circle cx="106.534" cy="10.2936" r="7.90127" style="fill:var(--sapContent_Illustrative_Color2)"/>
<path fill-rule="evenodd" clip-rule="evenodd" d="M102.93 16.3101C107.294 16.3101 110.831 12.7726 110.831 8.40888C110.831 6.1028 109.843 4.02745 108.268 2.58301C111.798 3.37306 114.436 6.52525 114.436 10.2936C114.436 14.6573 110.898 18.1948 106.534 18.1948C104.477 18.1948 102.603 17.4083 101.197 16.1195C101.755 16.2443 102.335 16.3101 102.93 16.3101Z" style="fill:var(--sapContent_Illustrative_Color13)"/>
<path fill-rule="evenodd" clip-rule="evenodd" d="M63.4521 69.1726V60.4164C64.3781 59.7094 65.5349 59.2896 66.7898 59.2896C69.8301 59.2896 72.2947 61.7542 72.2947 64.7945C72.2947 67.8348 69.8301 70.2995 66.7898 70.2995C65.5349 70.2995 64.3781 69.8796 63.4521 69.1726Z" style="fill:var(--sapContent_Illustrative_Color9)"/>
<circle cx="94.7296" cy="64.7945" r="5.50496" style="fill:var(--sapContent_Illustrative_Color9)"/>
<path fill-rule="evenodd" clip-rule="evenodd" d="M74.1511 77.4988C74.4921 76.8945 75.2584 76.681 75.8627 77.022C78.9021 78.7369 82.6172 78.7369 85.6566 77.022C86.2609 76.681 87.0272 76.8945 87.3682 77.4988C87.7092 78.1031 87.4957 78.8694 86.8914 79.2104C83.0856 81.3577 78.4338 81.3577 74.628 79.2104C74.0237 78.8694 73.8102 78.1031 74.1511 77.4988Z" style="fill:var(--sapContent_Illustrative_Color5)"/>
<rect x="59.3105" y="106.704" width="86.3342" height="4.55101" rx="2.27551" transform="rotate(-90 59.3105 106.704)" style="fill:var(--sapContent_Illustrative_Color3)"/>
</svg>
