<svg width="128" height="128" viewBox="0 0 128 128" fill="none" xmlns="http://www.w3.org/2000/svg" id="tnt-Spot-EmptyContentPane">
<path d="M64 128C99.3462 128 128 99.3462 128 64C128 28.6538 99.3462 0 64 0C28.6538 0 0 28.6538 0 64C0 99.3462 28.6538 128 64 128Z" style="fill:var(--sapContent_Illustrative_Color7)"/>
<path fill-rule="evenodd" clip-rule="evenodd" d="M60.4925 127.906V53.1395C60.4925 49.4568 57.8543 46.4714 54.6 46.4714H2.43009C0.84725 52.042 0 57.922 0 64C0 98.1694 26.7775 126.085 60.4925 127.906Z" style="fill:var(--sapContent_Illustrative_Color18)"/>
<path d="M54.0016 64.8091H2.07964C1.10206 64.8091 0.30957 65.6016 0.30957 66.5791V69.5293C0.30957 70.5068 1.10206 71.2993 2.07964 71.2993H54.0016C54.9792 71.2993 55.7717 70.5068 55.7717 69.5293V66.5791C55.7717 65.6016 54.9792 64.8091 54.0016 64.8091Z" style="fill:var(--sapContent_Illustrative_Color20)"/>
<path fill-rule="evenodd" clip-rule="evenodd" d="M10.7523 99.5182H12.2326C12.6849 99.5182 13.0516 99.1515 13.0516 98.6992C13.0516 98.2468 12.6849 97.8801 12.2326 97.8801H9.69313C10.0381 98.4319 10.3912 98.9779 10.7523 99.5182ZM7.12263 93.3713H12.2326C12.6849 93.3713 13.0516 93.0046 13.0516 92.5522C13.0516 92.0999 12.6849 91.7332 12.2326 91.7332H6.35811C6.3404 91.7332 6.32283 91.7337 6.3054 91.7348C6.57022 92.2847 6.84268 92.8302 7.12263 93.3713ZM6.97355 56.502H23.6391C24.4313 56.502 25.0736 57.1442 25.0736 57.9364C25.0736 58.7287 24.4313 59.3709 23.6391 59.3709H6.97355C6.18131 59.3709 5.53906 58.7287 5.53906 57.9364C5.53906 57.1442 6.18131 56.502 6.97355 56.502ZM6.35811 67.2815H20.157C20.6093 67.2815 20.976 67.6482 20.976 68.1005C20.976 68.5529 20.6093 68.9196 20.157 68.9196H6.35811C5.90576 68.9196 5.53906 68.5529 5.53906 68.1005C5.53906 67.6482 5.90576 67.2815 6.35811 67.2815ZM17.561 73.2927H6.35811C5.90576 73.2927 5.53906 73.6594 5.53906 74.1118C5.53906 74.5641 5.90576 74.9308 6.35811 74.9308H17.561C18.0134 74.9308 18.3801 74.5641 18.3801 74.1118C18.3801 73.6594 18.0134 73.2927 17.561 73.2927ZM6.35811 79.5769H19.3356C19.788 79.5769 20.1547 79.9436 20.1547 80.3959C20.1547 80.8483 19.788 81.215 19.3356 81.215H6.35811C5.90576 81.215 5.53906 80.8483 5.53906 80.3959C5.53906 79.9436 5.90576 79.5769 6.35811 79.5769ZM12.2326 85.5854H6.35811C5.90576 85.5854 5.53906 85.9522 5.53906 86.4045C5.53906 86.8568 5.90576 87.2235 6.35811 87.2235H12.2326C12.6849 87.2235 13.0516 86.8568 13.0516 86.4045C13.0516 85.9522 12.6849 85.5854 12.2326 85.5854ZM48.8562 67.1265H35.0573C34.605 67.1265 34.2383 67.4932 34.2383 67.9455C34.2383 68.3979 34.605 68.7646 35.0573 68.7646H48.8562C49.3085 68.7646 49.6752 68.3979 49.6752 67.9455C49.6752 67.4932 49.3085 67.1265 48.8562 67.1265ZM35.0573 73.1377H46.2602C46.7126 73.1377 47.0793 73.5044 47.0793 73.9567C47.0793 74.4091 46.7126 74.7758 46.2602 74.7758H35.0573C34.605 74.7758 34.2383 74.4091 34.2383 73.9567C34.2383 73.5044 34.605 73.1377 35.0573 73.1377ZM48.0348 79.4194H35.0573C34.605 79.4194 34.2383 79.7861 34.2383 80.2385C34.2383 80.6908 34.605 81.0575 35.0573 81.0575H48.0348C48.4872 81.0575 48.8539 80.6908 48.8539 80.2385C48.8539 79.7861 48.4872 79.4194 48.0348 79.4194ZM35.0573 85.4307H40.9318C41.3841 85.4307 41.7508 85.7974 41.7508 86.2497C41.7508 86.7021 41.3841 87.0688 40.9318 87.0688H35.0573C34.605 87.0688 34.2383 86.7021 34.2383 86.2497C34.2383 85.7974 34.605 85.4307 35.0573 85.4307ZM40.9318 91.5779H35.0573C34.605 91.5779 34.2383 91.9446 34.2383 92.3969C34.2383 92.8493 34.605 93.216 35.0573 93.216H40.9318C41.3841 93.216 41.7508 92.8493 41.7508 92.3969C41.7508 91.9446 41.3841 91.5779 40.9318 91.5779ZM35.0573 103.873H40.9318C41.3841 103.873 41.7508 104.24 41.7508 104.692C41.7508 105.144 41.3841 105.511 40.9318 105.511H35.0573C34.605 105.511 34.2383 105.144 34.2383 104.692C34.2383 104.24 34.605 103.873 35.0573 103.873ZM40.9318 97.7251H35.0573C34.605 97.7251 34.2383 98.0918 34.2383 98.5441C34.2383 98.9965 34.605 99.3632 35.0573 99.3632H40.9318C41.3841 99.3632 41.7508 98.9965 41.7508 98.5441C41.7508 98.0918 41.3841 97.7251 40.9318 97.7251ZM35.0573 110.02H40.9318C41.3841 110.02 41.7508 110.387 41.7508 110.839C41.7508 111.292 41.3841 111.658 40.9318 111.658H35.0573C34.605 111.658 34.2383 111.292 34.2383 110.839C34.2383 110.387 34.605 110.02 35.0573 110.02ZM40.9318 116.167H35.0573C34.605 116.167 34.2383 116.534 34.2383 116.987C34.2383 117.439 34.605 117.806 35.0573 117.806H40.9318C41.3841 117.806 41.7508 117.439 41.7508 116.987C41.7508 116.534 41.3841 116.167 40.9318 116.167Z" style="fill:var(--sapContent_Illustrative_Color13)"/>
<path d="M25.3857 36.2475C25.3857 33.6032 27.5294 31.4595 30.1738 31.4595H80.2611L93.4412 42.3867V93.0772C93.4412 95.7216 91.2975 97.8653 88.6531 97.8653H30.1738C27.5294 97.8653 25.3857 95.7216 25.3857 93.0772V36.2475Z" style="fill:var(--sapContent_Illustrative_Color6)"/>
<path d="M22.9932 32.8956C22.9932 30.7801 24.7081 29.0652 26.8236 29.0652H77.3417L91.0486 40.5451V91.6405C91.0486 93.756 89.3336 95.471 87.2181 95.471H26.8236C24.7081 95.471 22.9932 93.756 22.9932 91.6405V32.8956Z" style="fill:var(--sapContent_Illustrative_Color8)"/>
<path d="M77.2686 40.4407L91.0493 43.2197V40.4407H77.2686Z" style="fill:var(--sapContent_Illustrative_Color5)"/>
<path d="M77.2686 40.441H91.0493L77.2686 29.0652V40.441Z" style="fill:var(--sapContent_Illustrative_Color6)"/>
<path d="M95.6456 11.5887C95.8175 11.7885 95.9322 12.0309 95.9779 12.2905C96.0236 12.55 95.9984 12.8171 95.9051 13.0635L93.8389 18.9837C93.4976 19.963 92.5048 20.2076 91.7373 19.9399C91.4192 19.8418 91.1416 19.6431 90.9461 19.3737C90.7506 19.1042 90.6478 18.7786 90.6532 18.4458C90.6606 18.285 90.6923 18.1263 90.7472 17.975L92.8135 12.0549C92.8988 11.7933 93.0532 11.5596 93.2605 11.3786C93.4677 11.1976 93.72 11.076 93.9906 11.0266C94.2915 10.9716 94.6015 10.9944 94.8911 11.0927C95.1808 11.1911 95.4405 11.3618 95.6456 11.5887Z" style="fill:var(--sapContent_Illustrative_Color5)"/>
<path d="M116.145 38.799C116.176 38.9851 116.167 39.1756 116.12 39.3582C116.073 39.5409 115.989 39.7117 115.872 39.8598C115.755 40.008 115.609 40.1301 115.442 40.2185C115.276 40.3069 115.093 40.3596 114.905 40.3732L108.839 41.092C108.621 41.1171 108.4 41.0985 108.189 41.0372C107.978 40.976 107.782 40.8733 107.611 40.7353C107.44 40.5972 107.298 40.4265 107.194 40.2331C107.09 40.0397 107.026 39.8275 107.005 39.6089C106.993 39.5191 106.989 39.4284 106.993 39.3379C107.001 39.0032 107.135 38.6838 107.367 38.4427C107.599 38.2016 107.913 38.0562 108.247 38.0352L114.31 37.3182C114.528 37.2927 114.749 37.311 114.96 37.372C115.171 37.4329 115.368 37.5354 115.539 37.6732C115.71 37.8111 115.851 37.9817 115.955 38.175C116.059 38.3683 116.124 38.5805 116.145 38.799Z" style="fill:var(--sapContent_Illustrative_Color5)"/>
<path d="M110.796 22.5208C110.775 22.7258 110.713 22.9245 110.613 23.1047C110.513 23.2849 110.378 23.4428 110.215 23.5688L102.958 29.2946C102.631 29.5495 102.219 29.6683 101.806 29.6259C101.394 29.5836 101.014 29.3835 100.746 29.0674C100.498 28.7733 100.37 28.3968 100.387 28.0126C100.397 27.7913 100.455 27.5746 100.556 27.3776C100.658 27.1805 100.8 27.0076 100.975 26.8707L108.231 21.145C108.559 20.8883 108.975 20.769 109.389 20.8121C109.804 20.8552 110.186 21.0574 110.454 21.3761C110.585 21.5341 110.683 21.7169 110.742 21.9136C110.8 22.1103 110.819 22.3168 110.796 22.5208Z" style="fill:var(--sapContent_Illustrative_Color5)"/>
<rect x="88" y="52.8652" width="26.392" height="27.3346" rx="4.90138" style="fill:var(--sapContent_Illustrative_Color2)"/>
<path fill-rule="evenodd" clip-rule="evenodd" d="M104.561 65.5208C105.101 66.0423 105.101 66.8878 104.561 67.4092L100.414 71.4151C100.018 71.797 99.4236 71.9113 98.907 71.7046C98.3904 71.4979 98.0536 71.011 98.0536 70.4709L98.0536 62.4591C98.0536 61.919 98.3904 61.4321 98.907 61.2255C99.4236 61.0188 100.018 61.133 100.414 61.5149L104.561 65.5208Z" style="fill:var(--sapContent_Illustrative_Color7)"/>
<path fill-rule="evenodd" clip-rule="evenodd" d="M121.427 92.2837C120.585 91.5263 119.472 91.0654 118.25 91.0654H56.5512C53.9276 91.0654 51.8008 93.1923 51.8008 95.8158V105.515C51.8008 108.139 53.9276 110.265 56.5512 110.265H108.221C113.607 105.116 118.095 99.0363 121.427 92.2837Z" style="fill:var(--sapContent_Illustrative_Color20)"/>
<g clip-path="url(#clip0_619_3809)">
<path fill-rule="evenodd" clip-rule="evenodd" d="M64.1056 96.8124L64.105 96.8136L63.0368 99.2566H64.4268C64.4418 99.2566 64.4567 99.2572 64.4715 99.2583C64.6875 99.2411 64.9044 99.3461 65.0202 99.5462L65.7806 100.86L67.2473 99.4224C67.4762 99.1981 67.8437 99.2018 68.0681 99.4307C68.2924 99.6597 68.2887 100.027 68.0597 100.252L66.3809 101.897L67.4793 103.794C67.6399 104.072 67.5452 104.427 67.2677 104.587C66.9903 104.748 66.6352 104.653 66.4746 104.376L65.525 102.735L64.1691 104.064C63.7923 104.433 63.3157 104.675 62.8061 104.767V104.767L62.2662 104.864C61.9507 104.921 61.6488 104.712 61.5918 104.396C61.5348 104.081 61.7443 103.779 62.0597 103.722L62.5997 103.624C62.8836 103.573 63.1487 103.438 63.3574 103.234V103.234L64.9247 101.698L64.1832 100.417H62.5292L60.1837 105.781C59.8667 106.506 59.1593 106.988 58.3599 107.007L57.7312 107.027C57.4108 107.037 57.143 106.785 57.1331 106.464C57.1232 106.144 57.3749 105.876 57.6953 105.866L58.3311 105.847C58.6756 105.839 58.982 105.632 59.1201 105.316L61.2622 100.417H59.5543C59.2337 100.417 58.9739 100.158 58.9739 99.837C58.9739 99.5165 59.2337 99.2566 59.5543 99.2566H61.7698L63.0442 96.3421C63.2919 95.7849 63.8421 95.4185 64.4593 95.4185H65.4026C65.7232 95.4185 65.9831 95.6783 65.9831 95.9989C65.9831 96.3194 65.7232 96.5793 65.4026 96.5793H64.4593C64.3093 96.5793 64.1704 96.6677 64.1056 96.8124Z" style="fill:var(--sapContent_Illustrative_Color14)"/>
</g>
<rect x="75.001" y="99.0654" width="38.4" height="4" rx="2" style="fill:var(--sapContent_Illustrative_Color18)"/>
<defs>
<clipPath id="clip0_619_3809">
<rect width="11.6085" height="11.6085" style="fill:var(--sapContent_Illustrative_Color8)" transform="translate(56.8789 95.4185)"/>
</clipPath>
</defs>
</svg>
