<svg width="160" height="160" viewBox="0 0 160 160" fill="none" xmlns="http://www.w3.org/2000/svg" id="tnt-Dialog-EmptyContentPane">
<path d="M79.3943 159.789C123.243 159.789 158.789 124.243 158.789 80.3943C158.789 36.546 123.243 1 79.3943 1C35.546 1 0 36.546 0 80.3943C0 124.243 35.546 159.789 79.3943 159.789Z" style="fill:var(--sapContent_Illustrative_Color7)"/>
<path d="M74.4999 43.873H7.36565C3.29772 43.873 0 47.6048 0 52.2081V146.167C0 150.771 3.29772 154.502 7.36565 154.502H74.4999C78.5679 154.502 81.8656 150.771 81.8656 146.167V52.2081C81.8656 47.6048 78.5679 43.873 74.4999 43.873Z" style="fill:var(--sapContent_Illustrative_Color18)"/>
<path d="M73.7518 66.7952H8.8493C7.62733 66.7952 6.63672 67.7858 6.63672 69.0077V72.6954C6.63672 73.9174 7.62733 74.908 8.8493 74.908H73.7518C74.9738 74.908 75.9644 73.9174 75.9644 72.6954V69.0078C75.9644 67.7858 74.9738 66.7952 73.7518 66.7952Z" style="fill:var(--sapContent_Illustrative_Color20)"/>
<path d="M35.7989 56.4111H14.9669C13.9766 56.4111 13.1738 57.2139 13.1738 58.2042C13.1738 59.1946 13.9766 59.9974 14.9669 59.9974H35.7989C36.7892 59.9974 37.592 59.1946 37.592 58.2042C37.592 57.2139 36.7892 56.4111 35.7989 56.4111Z" style="fill:var(--sapContent_Illustrative_Color13)"/>
<path d="M31.4462 69.8855H14.1976C13.6322 69.8855 13.1738 70.3439 13.1738 70.9093C13.1738 71.4747 13.6322 71.9331 14.1976 71.9331H31.4462C32.0117 71.9331 32.47 71.4747 32.47 70.9093C32.47 70.3439 32.0117 69.8855 31.4462 69.8855Z" style="fill:var(--sapContent_Illustrative_Color13)"/>
<path d="M28.2013 77.3997H14.1976C13.6322 77.3997 13.1738 77.858 13.1738 78.4235C13.1738 78.9889 13.6322 79.4473 14.1976 79.4473H28.2013C28.7667 79.4473 29.2251 78.9889 29.2251 78.4235C29.2251 77.858 28.7667 77.3997 28.2013 77.3997Z" style="fill:var(--sapContent_Illustrative_Color13)"/>
<path d="M30.4195 85.2546H14.1976C13.6322 85.2546 13.1738 85.713 13.1738 86.2784C13.1738 86.8439 13.6322 87.3023 14.1976 87.3023H30.4195C30.985 87.3023 31.4433 86.8439 31.4433 86.2784C31.4433 85.713 30.985 85.2546 30.4195 85.2546Z" style="fill:var(--sapContent_Illustrative_Color13)"/>
<path d="M21.5407 92.7656H14.1976C13.6322 92.7656 13.1738 93.224 13.1738 93.7894C13.1738 94.3549 13.6322 94.8132 14.1976 94.8132H21.5407C22.1062 94.8132 22.5645 94.3549 22.5645 93.7894C22.5645 93.224 22.1062 92.7656 21.5407 92.7656Z" style="fill:var(--sapContent_Illustrative_Color13)"/>
<path d="M21.5407 100.45H14.1976C13.6322 100.45 13.1738 100.908 13.1738 101.474C13.1738 102.039 13.6322 102.498 14.1976 102.498H21.5407C22.1062 102.498 22.5645 102.039 22.5645 101.474C22.5645 100.908 22.1062 100.45 21.5407 100.45Z" style="fill:var(--sapContent_Illustrative_Color13)"/>
<path d="M21.5407 115.818H14.1976C13.6322 115.818 13.1738 116.277 13.1738 116.842C13.1738 117.408 13.6322 117.866 14.1976 117.866H21.5407C22.1062 117.866 22.5645 117.408 22.5645 116.842C22.5645 116.277 22.1062 115.818 21.5407 115.818Z" style="fill:var(--sapContent_Illustrative_Color13)"/>
<path d="M21.5407 108.134H14.1976C13.6322 108.134 13.1738 108.592 13.1738 109.158C13.1738 109.723 13.6322 110.181 14.1976 110.181H21.5407C22.1062 110.181 22.5645 109.723 22.5645 109.158C22.5645 108.592 22.1062 108.134 21.5407 108.134Z" style="fill:var(--sapContent_Illustrative_Color13)"/>
<path d="M21.5407 123.503H14.1976C13.6322 123.503 13.1738 123.961 13.1738 124.526C13.1738 125.092 13.6322 125.55 14.1976 125.55H21.5407C22.1062 125.55 22.5645 125.092 22.5645 124.526C22.5645 123.961 22.1062 123.503 21.5407 123.503Z" style="fill:var(--sapContent_Illustrative_Color13)"/>
<path d="M21.5056 131.219H14.1625C13.597 131.219 13.1387 131.678 13.1387 132.243C13.1387 132.808 13.597 133.267 14.1625 133.267H21.5056C22.071 133.267 22.5294 132.808 22.5294 132.243C22.5294 131.678 22.071 131.219 21.5056 131.219Z" style="fill:var(--sapContent_Illustrative_Color13)"/>
<path d="M67.3202 69.6919H50.0717C49.5062 69.6919 49.0479 70.1503 49.0479 70.7157C49.0479 71.2811 49.5062 71.7395 50.0717 71.7395H67.3202C67.8857 71.7395 68.3441 71.2811 68.3441 70.7157C68.3441 70.1503 67.8857 69.6919 67.3202 69.6919Z" style="fill:var(--sapContent_Illustrative_Color13)"/>
<path d="M64.0753 77.2058H50.0717C49.5062 77.2058 49.0479 77.6642 49.0479 78.2296C49.0479 78.7951 49.5062 79.2534 50.0717 79.2534H64.0753C64.6407 79.2534 65.0991 78.7951 65.0991 78.2296C65.0991 77.6642 64.6407 77.2058 64.0753 77.2058Z" style="fill:var(--sapContent_Illustrative_Color13)"/>
<path d="M66.2935 85.0581H50.0717C49.5062 85.0581 49.0479 85.5165 49.0479 86.0819C49.0479 86.6473 49.5062 87.1057 50.0717 87.1057H66.2935C66.859 87.1057 67.3174 86.6473 67.3174 86.0819C67.3174 85.5165 66.859 85.0581 66.2935 85.0581Z" style="fill:var(--sapContent_Illustrative_Color13)"/>
<path d="M57.4147 92.5718H50.0717C49.5062 92.5718 49.0479 93.0302 49.0479 93.5956C49.0479 94.161 49.5062 94.6194 50.0717 94.6194H57.4147C57.9802 94.6194 58.4386 94.161 58.4386 93.5956C58.4386 93.0302 57.9802 92.5718 57.4147 92.5718Z" style="fill:var(--sapContent_Illustrative_Color13)"/>
<path d="M57.4147 100.256H50.0717C49.5062 100.256 49.0479 100.714 49.0479 101.28C49.0479 101.845 49.5062 102.303 50.0717 102.303H57.4147C57.9802 102.303 58.4386 101.845 58.4386 101.28C58.4386 100.714 57.9802 100.256 57.4147 100.256Z" style="fill:var(--sapContent_Illustrative_Color13)"/>
<path d="M57.4147 115.625H50.0717C49.5062 115.625 49.0479 116.083 49.0479 116.649C49.0479 117.214 49.5062 117.672 50.0717 117.672H57.4147C57.9802 117.672 58.4386 117.214 58.4386 116.649C58.4386 116.083 57.9802 115.625 57.4147 115.625Z" style="fill:var(--sapContent_Illustrative_Color13)"/>
<path d="M57.4147 107.94H50.0717C49.5062 107.94 49.0479 108.399 49.0479 108.964C49.0479 109.529 49.5062 109.988 50.0717 109.988H57.4147C57.9802 109.988 58.4386 109.529 58.4386 108.964C58.4386 108.399 57.9802 107.94 57.4147 107.94Z" style="fill:var(--sapContent_Illustrative_Color13)"/>
<path d="M57.4147 123.309H50.0717C49.5062 123.309 49.0479 123.767 49.0479 124.333C49.0479 124.898 49.5062 125.357 50.0717 125.357H57.4147C57.9802 125.357 58.4386 124.898 58.4386 124.333C58.4386 123.767 57.9802 123.309 57.4147 123.309Z" style="fill:var(--sapContent_Illustrative_Color13)"/>
<path d="M57.4147 130.993H50.0717C49.5062 130.993 49.0479 131.452 49.0479 132.017C49.0479 132.582 49.5062 133.041 50.0717 133.041H57.4147C57.9802 133.041 58.4386 132.582 58.4386 132.017C58.4386 131.452 57.9802 130.993 57.4147 130.993Z" style="fill:var(--sapContent_Illustrative_Color13)"/>
<path d="M29.3086 35.7585C29.3086 32.116 32.2615 29.1631 35.904 29.1631H104.898L123.053 44.215V114.04C123.053 117.682 120.1 120.635 116.458 120.635H35.904C32.2615 120.635 29.3086 117.682 29.3086 114.04V35.7585Z" style="fill:var(--sapContent_Illustrative_Color6)"/>
<path d="M26.0117 31.1416C26.0117 28.2275 28.374 25.8652 31.2881 25.8652H100.875L119.756 41.6785V112.061C119.756 114.975 117.394 117.337 114.48 117.337H31.2881C28.374 117.337 26.0117 114.975 26.0117 112.061V31.1416Z" style="fill:var(--sapContent_Illustrative_Color8)"/>
<path d="M100.774 41.5347L119.757 45.3627V41.5347H100.774Z" style="fill:var(--sapContent_Illustrative_Color5)"/>
<path d="M100.774 41.5351H119.757L100.774 25.8652V41.5351Z" style="fill:var(--sapContent_Illustrative_Color6)"/>
<path d="M125.809 4.01989C126.024 4.26966 126.167 4.5727 126.225 4.89713C126.282 5.22156 126.25 5.55539 126.134 5.86347L123.551 13.2637C123.124 14.4878 121.883 14.7935 120.924 14.4589C120.526 14.3363 120.179 14.088 119.935 13.7512C119.69 13.4144 119.562 13.0073 119.569 12.5912C119.578 12.3903 119.618 12.1919 119.686 12.0029L122.269 4.60267C122.376 4.27567 122.569 3.98359 122.828 3.75733C123.087 3.53107 123.402 3.37905 123.741 3.31735C124.117 3.2486 124.504 3.27703 124.866 3.39998C125.228 3.52293 125.553 3.73631 125.809 4.01989Z" style="fill:var(--sapContent_Illustrative_Color5)"/>
<path d="M151.434 38.0326C151.472 38.2652 151.462 38.5032 151.403 38.7315C151.344 38.9598 151.238 39.1734 151.092 39.3586C150.946 39.5437 150.763 39.6964 150.555 39.8069C150.347 39.9174 150.118 39.9832 149.883 40.0002L142.301 40.8987C142.028 40.9301 141.752 40.9068 141.489 40.8303C141.225 40.7537 140.979 40.6254 140.766 40.4528C140.552 40.2803 140.375 40.0669 140.245 39.8251C140.115 39.5834 140.034 39.3182 140.008 39.0449C139.994 38.9326 139.989 38.8192 139.994 38.7061C140.004 38.2878 140.171 37.8885 140.461 37.5871C140.751 37.2857 141.144 37.104 141.562 37.0777L149.14 36.1815C149.413 36.1497 149.689 36.1725 149.953 36.2487C150.216 36.3249 150.462 36.4529 150.676 36.6253C150.889 36.7977 151.066 37.0109 151.196 37.2525C151.327 37.4942 151.407 37.7594 151.434 38.0326Z" style="fill:var(--sapContent_Illustrative_Color5)"/>
<path d="M144.747 17.685C144.721 17.9413 144.644 18.1896 144.519 18.4149C144.394 18.6401 144.224 18.8375 144.02 18.995L134.95 26.1522C134.541 26.4709 134.026 26.6193 133.51 26.5664C132.995 26.5135 132.52 26.2634 132.184 25.8683C131.875 25.5006 131.715 25.03 131.736 24.5498C131.749 24.2731 131.821 24.0023 131.948 23.756C132.074 23.5096 132.253 23.2935 132.47 23.1224L141.541 15.9652C141.951 15.6444 142.47 15.4953 142.989 15.5492C143.507 15.603 143.984 15.8557 144.32 16.2542C144.484 16.4516 144.606 16.6801 144.679 16.926C144.753 17.1719 144.776 17.43 144.747 17.685Z" style="fill:var(--sapContent_Illustrative_Color5)"/>
<rect x="112" y="52.8652" width="32.99" height="34.1682" rx="6.12672" style="fill:var(--sapContent_Illustrative_Color2)"/>
<path fill-rule="evenodd" clip-rule="evenodd" d="M132.702 68.685C133.377 69.3369 133.377 70.3937 132.702 71.0455L127.518 76.0529C127.024 76.5303 126.28 76.6731 125.635 76.4147C124.989 76.1564 124.568 75.5478 124.568 74.8727L124.568 64.8579C124.568 64.1828 124.989 63.5742 125.635 63.3158C126.28 63.0575 127.024 63.2003 127.518 63.6776L132.702 68.685Z" style="fill:var(--sapContent_Illustrative_Color7)"/>
<rect x="71" y="105.865" width="89" height="24" rx="5.93799" style="fill:var(--sapContent_Illustrative_Color20)"/>
<g clip-path="url(#clip0_619_3765)">
<path fill-rule="evenodd" clip-rule="evenodd" d="M86.381 113.049L86.3803 113.05L85.045 116.104H86.7826C86.8013 116.104 86.8199 116.105 86.8384 116.106C87.1084 116.085 87.3796 116.216 87.5243 116.466L88.4747 118.108L90.3081 116.311C90.5943 116.031 91.0536 116.036 91.3341 116.322C91.6145 116.608 91.6099 117.067 91.3237 117.348L89.2251 119.404L90.5981 121.776C90.7989 122.123 90.6805 122.567 90.3337 122.768C89.9869 122.968 89.543 122.85 89.3423 122.503L88.1553 120.453L86.4603 122.114C85.9894 122.574 85.3937 122.877 84.7567 122.992V122.992L84.0817 123.114C83.6874 123.185 83.31 122.923 83.2387 122.529C83.1675 122.135 83.4294 121.757 83.8237 121.686L84.4986 121.564C84.8535 121.5 85.1849 121.331 85.4457 121.076V121.076L87.4049 119.156L86.4781 117.555H84.4105L81.4786 124.26C81.0824 125.166 80.1982 125.768 79.1989 125.792L78.413 125.817C78.0125 125.829 77.6778 125.514 77.6654 125.114C77.653 124.713 77.9676 124.379 78.3682 124.366L79.1629 124.342C79.5935 124.332 79.9766 124.073 80.1491 123.679L82.8267 117.555H80.6919C80.2912 117.555 79.9663 117.23 79.9663 116.83C79.9663 116.429 80.2912 116.104 80.6919 116.104H83.4613L85.0543 112.461C85.3638 111.764 86.0517 111.306 86.8232 111.306H88.0023C88.403 111.306 88.7278 111.631 88.7278 112.032C88.7278 112.433 88.403 112.757 88.0023 112.757H86.8232C86.6357 112.757 86.462 112.868 86.381 113.049Z" style="fill:var(--sapContent_Illustrative_Color14)"/>
</g>
<rect x="100" y="115.865" width="48" height="5" rx="2.5" style="fill:var(--sapContent_Illustrative_Color18)"/>
<defs>
<clipPath id="clip0_619_3765">
<rect width="14.5107" height="14.5107" style="fill:var(--sapContent_Illustrative_Color8)" transform="translate(77.3477 111.306)"/>
</clipPath>
</defs>
</svg>
