<svg xmlns="http://www.w3.org/2000/svg" xmlns:xlink="http://www.w3.org/1999/xlink" width="128" height="128" viewBox="0 0 128 128" id="sapIllus-Spot-NoData">
    <path class="sapIllus_PatternShadow" style="fill:var(--sapIllus_PatternShadow)" d="M41.6179,32.7174H84.6273a1,1,0,0,1,.723.3092l7.2445,7.5824,7.4817,7.8491a1,1,0,0,1,.2761.69l-.0046,55.6069a4.1038,4.1038,0,0,1-.8787,2.1212A4.0564,4.0564,0,0,1,98.1,107.9631l-56.3858.0313a2.6167,2.6167,0,0,1-3.0812-3.2309l-.0152-69.0594Z"/>
    <path class="sapIllus_ObjectFillColor" style="fill:var(--sapIllus_ObjectFillColor)" d="M35.7928,27.4987H78.8022a1,1,0,0,1,.723.3092L86.77,35.39l7.4816,7.8492a1,1,0,0,1,.2762.69l-.0046,55.6069a3,3,0,0,1-3,3H35.808a2.9946,2.9946,0,0,1-3-2.9913c-.01-12.0564-.0423-57.0116-.0152-69.0595A2.9943,2.9943,0,0,1,35.7928,27.4987Z"/>
    <path class="sapIllus_BrandColorSecondary" style="fill:var(--sapIllus_BrandColorSecondary)" d="M93.2978,44.5335H78.8208a.9925.9925,0,0,1-.974-1.01V28.5108a.97.97,0,0,1,1.6628-.7143L93.9865,42.8092A1.0151,1.0151,0,0,1,93.2978,44.5335Z"/>
    <path class="sapIllus_Layering1" style="fill:var(--sapIllus_Layering1)" d="M104.608,38.9485l5.9157-1.7721c1.32-.3954.7584-2.5258-.5689-2.1282L104.0392,36.82c-1.32.3953-.7584,2.5258.5688,2.1282Z"/>
    <path class="sapIllus_Layering1" style="fill:var(--sapIllus_Layering1)" d="M85.2973,21.2465l.9718-5.9331c.2154-1.3151-1.777-1.8807-1.9941-.5554l-.9718,5.9332c-.2155,1.3151,1.777,1.8807,1.9941.5553Z"/>
    <path class="sapIllus_Layering1" style="fill:var(--sapIllus_Layering1)" d="M95.3034,29.0015a1.01,1.01,0,0,1-.6837-.267,1.0783,1.0783,0,0,1-.0864-1.4932l5.9511-6.8857a1.01,1.01,0,0,1,1.4538-.0884,1.0785,1.0785,0,0,1,.0865,1.4932l-5.9511,6.8858A1.0164,1.0164,0,0,1,95.3034,29.0015Z"/>
    <path class="sapIllus_StrokeDetailColor" style="fill:var(--sapIllus_StrokeDetailColor)" d="M94.8747,42.8861,80.0855,27.4623a1.5152,1.5152,0,0,0-1.0885-.4636H35.807a3.509,3.509,0,0,0-3.5146,3.4836c-.0294,13.2857.0137,66.7559.0157,69.0257a3.5076,3.5076,0,0,0,3.5146,3.4894H91.7709a3.5106,3.5106,0,0,0,3.5146-3.4982l.005-55.5785A1.49,1.49,0,0,0,94.8747,42.8861Zm-16.21-14.8355a1.15,1.15,0,0,1,.2561-.0309,1.04,1.04,0,0,1,.51.2134l14.276,14.8837.0194.02a.5891.5891,0,0,1,.0968.6251c-.1016.1764-.4086.24-.69.24L78.8355,44a.6031.6031,0,0,1-.5472-.6131c-.0087-4.9588-.017-9.9015-.0035-14.8689A.5189.5189,0,0,1,78.6646,28.0506Zm13.1062,73.95H35.8188a2.5045,2.5045,0,0,1-2.5107-2.491c-.002-2.2694-.0451-55.74-.0157-69.0248a2.5054,2.5054,0,0,1,2.5107-2.4861H77.3684a1.49,1.49,0,0,0-.0976.5106V43.4934A1.5145,1.5145,0,0,0,78.7894,45H78.92L94.286,47.9749l-.0046,51.5269A2.5074,2.5074,0,0,1,91.7708,102.0006Z"/>
</svg>