<svg xmlns="http://www.w3.org/2000/svg" xmlns:xlink="http://www.w3.org/1999/xlink" width="160" height="160" viewBox="0 0 160 160" id="sapIllus-Dialog-NoTasks">
      <path class="sapIllus_BackgroundColor" style="fill:var(--sapIllus_BackgroundColor)" d="M145,97.0426c0,27.58-18.2211,42.8945-41.6416,48.3423-20.648,4.8028-46.97,8.5323-66.6763-3.1025-17.9374-10.5906-19.2452-34.5187-19.6677-54.4875C16.1976,49.1763,50.3365,30,81.7246,30,118.7682,30,144.9991,61.7174,145,97.0426Z"/>
      <path class="sapIllus_AccentColor" style="fill:var(--sapIllus_AccentColor)" d="M19.7272,15.5613c-2.7045-1.0646-4.0164-3.65-5.0313-6.2854A.4261.4261,0,0,0,14.305,9H14.3a.4257.4257,0,0,0-.3926.2662c-1.3535,3.2757-3.3658,4.95-5.6959,6.8894l-.054.0451a.4415.4415,0,0,0-.1456.44.4315.4315,0,0,0,.3261.3235c2.0556.4456,5.2367,4.4551,5.2367,6.6A.4248.4248,0,0,0,14.0005,24a.4271.4271,0,0,0,.4084-.3125c.6822-2.3748,2.6612-6.2815,5.3166-7.3129a.439.439,0,0,0,.0017-.8133Z"/>
      <path class="sapIllus_AccentColor" style="fill:var(--sapIllus_AccentColor)" d="M28.6616,31.6283c-1.8466-.7174-2.7523-2.4863-3.4569-4.2907A.5281.5281,0,0,0,24.72,27h-.0061a.529.529,0,0,0-.487.3257,11.7361,11.7361,0,0,1-3.9923,4.7558l-.0392.0322a.5338.5338,0,0,0,.2239.9344c1.3617.2908,3.5528,3.017,3.5528,4.4191a.5316.5316,0,0,0,.4529.5275.5275.5275,0,0,0,.5818-.3772c.4735-1.6263,1.8373-4.2983,3.653-4.9939a.5345.5345,0,0,0,.002-.9953Z"/>
      <path class="sapIllus_ObjectFillColor" style="fill:var(--sapIllus_ObjectFillColor)" d="M103.1421,145.5516a67,67,0,0,0,17.61-6.6943V59.3415c0-7.5748,1.33-16.2542,10.7358-19.1528H49.31C34.0981,40.47,32,49.56,32,59.3415V139.02a31.4507,31.4507,0,0,0,4.7121,3.4233C56.345,154.0992,82.57,150.3631,103.1421,145.5516Z"/>
      <path class="sapIllus_BrandColorSecondary" style="fill:var(--sapIllus_BrandColorSecondary)" d="M138.7132,40.582c-2.95-1.0947-4.2358-.9927-7.2356-.0451-8.7282,2.7573-10.2251,10.6667-10.2251,18.63V71.0479h22.2a2.6758,2.6758,0,0,0,2.6715-2.68V63.6335C146.1243,55.7106,146.2338,43.3729,138.7132,40.582Z"/>
      <path class="sapIllus_Layering2" style="fill:var(--sapIllus_Layering2)" d="M65.9116,101.7133h24.382a2.0173,2.0173,0,0,0,0-4.013H65.9116a2.0173,2.0173,0,0,0,0,4.013Z"/>
      <path class="sapIllus_Layering2" style="fill:var(--sapIllus_Layering2)" d="M97.9646,101.7133h10.276a2.0121,2.0121,0,0,0,0-4.013H97.9646a2.0121,2.0121,0,0,0,0,4.013Z"/>
      <path class="sapIllus_Layering2" style="fill:var(--sapIllus_Layering2)" d="M65.915,120.775H103.29a2.0169,2.0169,0,0,0,0-4.013H65.915a2.0169,2.0169,0,0,0,0,4.013Z"/>
      <path class="sapIllus_Layering2" style="fill:var(--sapIllus_Layering2)" d="M65.9122,81.6484H104.293a2.0172,2.0172,0,0,0,0-4.013H65.9122a2.0172,2.0172,0,0,0,0,4.013Z"/>
      <path class="sapIllus_Layering2" style="fill:var(--sapIllus_Layering2)" d="M65.888,62.5867h41.2847a2.0135,2.0135,0,0,0,.1445-4.0129H66.0325a2.0135,2.0135,0,0,0-.1445,4.0129Z"/>
      <path class="sapIllus_StrokeDetailColor" style="fill:var(--sapIllus_StrokeDetailColor)" d="M47.9854,65.3328a.692.692,0,0,1-.4906-.2031l-4.187-4.18a.6969.6969,0,0,1,.9812-.99l3.6475,3.6416,6.451-7.7863a.6968.6968,0,1,1,1.0709.8917l-6.9376,8.3739a.6894.6894,0,0,1-.5028.2509A.2734.2734,0,0,1,47.9854,65.3328Z"/>
      <path class="sapIllus_StrokeDetailColor" style="fill:var(--sapIllus_StrokeDetailColor)" d="M47.9854,84.5961a.6921.6921,0,0,1-.4906-.2032l-4.187-4.18a.6969.6969,0,0,1,.9812-.99l3.6475,3.6416,6.451-7.7863a.6967.6967,0,1,1,1.0709.8916l-6.9376,8.3739a.689.689,0,0,1-.5028.2509A.254.254,0,0,1,47.9854,84.5961Z"/>
      <path class="sapIllus_StrokeDetailColor" style="fill:var(--sapIllus_StrokeDetailColor)" d="M47.9854,103.8593a.692.692,0,0,1-.4906-.2031l-4.187-4.18a.6969.6969,0,0,1,.9812-.99l3.6475,3.6416,6.451-7.7863a.6968.6968,0,1,1,1.0709.8917l-6.9376,8.3739a.6889.6889,0,0,1-.5028.2508A.254.254,0,0,1,47.9854,103.8593Z"/>
      <path class="sapIllus_StrokeDetailColor" style="fill:var(--sapIllus_StrokeDetailColor)" d="M47.9854,123.1226a.6921.6921,0,0,1-.4906-.2032l-4.187-4.18a.6969.6969,0,0,1,.9812-.99l3.6475,3.6417,6.451-7.7864a.6968.6968,0,1,1,1.0709.8917L48.5208,122.87a.689.689,0,0,1-.5028.2509A.254.254,0,0,1,47.9854,123.1226Z"/>
      <path class="sapIllus_PatternShadow" style="fill:var(--sapIllus_PatternShadow)" d="M139.0487,40.9147c-2.9664-1.1009-3.6459-1.94-6.6627-.9873-8.778,2.773-10.2834,10.7276-10.2834,18.7361V70.6127h21.3058a2.6911,2.6911,0,0,0,2.6867-2.6955V63.1559C146.0951,55.1877,146.6121,43.7216,139.0487,40.9147Z"/>
      <path class="sapIllus_StrokeDetailColor" style="fill:var(--sapIllus_StrokeDetailColor)" d="M146.6241,68.1813v-4.71c0-2.719-.0062-5.9039-.3-9.0452-.2183-4.2918-.999-9.2523-4.1809-12.3056a10.6191,10.6191,0,0,0-5.851-2.754s-.2808-.0441-.2906-.0432a17.2908,17.2908,0,0,0-2.9062-.1376H49.3008C33.1743,39.4838,31,49.5422,31,59.3415v78.7558c.1633.1564.3328.308.5.4614s.3289.3112.5.4616V59.3415C32,49.56,34.0981,40.47,49.31,40.1887h82.1661c-.052.0163-.096.0278-.149.0446-8.7346,2.76-10.3715,10.5946-10.5541,17.59-.0008.031-.0027.0621-.0035.0931-.0109.4487-.0155.8931-.0161,1.3331,0,.03-.0011.0614-.0011.0917v79.5158c.1658-.0933.3355-.1818.5-.2766.1687-.0972.3326-.2.5-.2988V71.7248h21.7a3.1806,3.1806,0,0,0,3.1719-3.1821Zm-1,.1864a2.1774,2.1774,0,0,1-2.1714,2.1784H126.5438c-2.87-25.476,6.0227-29.5137,10.5012-29.9709.4555.12.9377.27,1.4951.4771,7.0879,2.63,7.0854,14.4334,7.084,22.2438Z"/>
</svg>
