<svg xmlns="http://www.w3.org/2000/svg" xmlns:xlink="http://www.w3.org/1999/xlink" width="320" height="240" viewBox="0 0 320 240" id="sapIllus-Scene-UnableToUpload">
      <path class="sapIllus_BackgroundColor" style="fill:var(--sapIllus_BackgroundColor)" d="M275,129.3022c.0027,31.4042-21.7748,56.1723-46.7423,67.7765-29.88,13.8876-66.8657,14.1485-99.5785,11.811-25.6946-1.8361-47.7405-2.6826-65.588-21.7057-31.8915-33.992-17.9333-71.6649-11.1-90.9571,5.3025-14.9694,21.1636-34.4187,44.3981-51.68,34.6-25.7053,78.4459-25.4882,114.0223-9.3024C247.0735,51.9238,274.9965,88.3542,275,129.3022Z"/>
      <path class="sapIllus_ObjectFillColor" style="fill:var(--sapIllus_ObjectFillColor)" d="M245.9521,93.5408c-.483-.0929-4.22-13.319-4.6093-14.3966a58.13,58.13,0,0,0-13.4251-21.1051c-14.8356-15.0114-38.6473-21.81-59.3126-15.94-20.79,5.9052-35.4581,24.3786-43.7607,43.4359-15.4217-5.3107-29.5981-8.2786-44.7361-.1193-13.8457,7.4627-21.7657,20.9573-24.3254,36.1467-.0082.0489-2.7027.8607-5.2118,1.7343a38.4469,38.4469,0,0,0-11.6236,6.4115c-.8081.6565-1.517,1.332-2.0932,1.8965-6.0937,5.97-10.7351,11.9721-10.8507,22.1725-.2474,21.8264,12.3767,30.248,27.8081,33.8615,28.5523,6.6858,162.5567,7.6065,196.144-.026,23.9727-5.4476,36.4916-26.28,36.0321-47.0358C285.5122,119.0959,272.3833,96.5791,245.9521,93.5408Z"/>
      <path class="sapIllus_StrokeDetailColor" style="fill:var(--sapIllus_StrokeDetailColor)" d="M154.5474,193.51c-42.9805,0-86.2393-1.9629-100.85-5.3838-19.4493-4.5547-28.4082-15.4707-28.1944-34.3545.1123-9.8916,4.2925-15.9522,11.001-22.5244.59-.5772,1.3032-1.2578,2.1274-1.9268a38.8219,38.8219,0,0,1,11.7749-6.4961c1.3731-.4775,2.8013-.9375,3.8174-1.2646.44-.1416.8628-.2774,1.1138-.3623C58.1709,104.835,66.8755,91.98,79.8711,84.9746c14.4468-7.7871,27.8433-5.8223,44.7-.0615,9.8725-22.4024,25.8525-38.17,43.897-43.2954,20.5146-5.8252,44.5473.6318,59.8051,16.07a58.3848,58.3848,0,0,1,13.54,21.2871c.1142.3184.4824,1.5606.9922,3.2813.9463,3.1962,2.8681,9.6894,3.4209,10.8134,27.0078,3.2237,39.8037,26.8526,40.2607,47.4961.4307,19.4434-10.6641,41.6817-36.4209,47.5342C233.6162,191.8379,194.2,193.51,154.5474,193.51ZM99.8291,80.8477a39.9461,39.9461,0,0,0-19.4834,5.0078c-12.7939,6.8955-21.3423,19.6064-24.07,35.79-.0513.3213-.0513.3213-1.7456.8662-1.01.3252-2.43.7822-3.7945,1.2569a37.8161,37.8161,0,0,0-11.4731,6.3271c-.7925.6436-1.4854,1.3047-2.0581,1.8662-6.5264,6.3936-10.5928,12.2735-10.7012,21.8213-.2075,18.3359,8.5059,28.94,27.4219,33.3682,28.0244,6.5634,161.7129,7.7461,195.92-.0264,25.2061-5.7275,36.0635-27.501,35.6416-46.5381-.6435-29.0859-20.3486-44.3369-39.5918-46.5488l-.0381-.0059c-.47-.0908-.6455-.124-4.0107-11.4922-.4854-1.64-.8692-2.9345-.9737-3.2255a57.38,57.38,0,0,0-13.311-20.9239c-15.0093-15.187-38.6484-21.542-58.82-15.811-17.8691,5.0752-33.7017,20.8052-43.439,43.1558a.5011.5011,0,0,1-.6211.2724C115.605,82.8818,107.5562,80.8477,99.8291,80.8477Z"/>
      <path class="sapIllus_PatternShadow" style="fill:var(--sapIllus_PatternShadow)" d="M251.8672,160.1741c-8.9157,10.9816-23.1071,17.0028-44.1867,19.9487-27.1024,3.7876-63.92,2.7995-109.4523,3.99C81.1928,184.5578,43,183.1151,43,183.1151a41.6042,41.6042,0,0,0,9.0373,3.99c4.9673,1.2336,25.1038,4.9872,99.4108,5.4859,43.18.29,82.498-2.0971,95.5519-4.5907,8.3605-1.597,16.2827-4.7761,22-10,11.6224-10.783,16.5-22.0385,16.5-37a50.8336,50.8336,0,0,0-14.5581-35.6873c-7.029-6.9821-14.9255-8.0928-11.1057-3.6048C262.9087,105.3178,276.971,129.2537,251.8672,160.1741Z"/>
      <path class="sapIllus_BrandColorSecondary" style="fill:var(--sapIllus_BrandColorSecondary)" d="M136.6751,165.32a21.7492,21.7492,0,0,0,4.4337.1682l10.0728-.0039c1.23,0,1.7447.4958,1.7415,1.6982q-.0278,10.5192-.012,21.0384c.0037,9.5153-.675,18.5374-6.5233,26.4489q-.1412.1911-.2915.3889c-7.8036,10.2726-16.96,16.6164-29.83,17.3907-.0595.0036-3.452.2693-4.3269.409a2.3017,2.3017,0,0,0-1.5113,3.6066h0a2.5249,2.5249,0,0,0,1.8458.9613c1.7356.1059,7.687.3106,8.9828.3977,13.9222.9772,23.8261-2.3119,31.5546-5.0178,17.1941-6.02,27.27-23.18,30.0381-40.5115a62.1548,62.1548,0,0,0,.7768-9.7973V166.5843a1.0959,1.0959,0,0,1,1.0954-1.0964q7.3578,0,14.7161,0a2.3285,2.3285,0,0,0,1.0083-.15,1.0752,1.0752,0,0,0,.2591-1.6876l-31.458-34.292a1.088,1.088,0,0,0-1.6592.0543c-3.1663,3.9982-16.0889,17.2856-17.3218,18.6016-4.8,5.12-9.4911,10.3593-14.3172,15.4443C135.0273,164.4291,135.6128,165.0913,136.6751,165.32Z"/>
      <path class="sapIllus_Layering1" style="fill:var(--sapIllus_Layering1)" d="M268.8618,28.02a1.05,1.05,0,0,0-1.2319.825l-2.6061,13.1419a.9672.9672,0,0,0-.0237.2,1.049,1.049,0,0,0,.847,1.0452,1.0378,1.0378,0,0,0,.1843.02,1.0535,1.0535,0,0,0,1.0466-.845L269.6862,29.26a1.0364,1.0364,0,0,0-.1517-.7862A1.0474,1.0474,0,0,0,268.8618,28.02Z"/>
      <path class="sapIllus_Layering1" style="fill:var(--sapIllus_Layering1)" d="M293.7551,38.2717a1.05,1.05,0,0,0-1.4821.0726l-9.0038,9.94a1.05,1.05,0,0,0,1.5574,1.4073l9.0038-9.94A1.0517,1.0517,0,0,0,293.7551,38.2717Z"/>
      <path class="sapIllus_Layering1" style="fill:var(--sapIllus_Layering1)" d="M305.9221,60.7546a1.0485,1.0485,0,0,0-1.3015-.7114L291.754,63.8191a1.0431,1.0431,0,0,0-.7539.99,1.0867,1.0867,0,0,0,.042.3132,1.0493,1.0493,0,0,0,1.3025.71l12.8666-3.7759A1.0423,1.0423,0,0,0,305.9221,60.7546Z"/>
      <path class="sapIllus_Layering1" style="fill:var(--sapIllus_Layering1)" d="M255.001,52a28.8171,28.8171,0,0,0-28.7456,32.649q.0991.7836.2378,1.5532c.0615.338.1206.6757.1938,1.0095q.2287,1.0434.53,2.0582c.0977.3278.21.6484.3186.971q.2362.7.5072,1.3832c.12.3043.2335.6113.3638.91.2759.6337.579,1.2523.8981,1.8616.1657.3167.34.6266.5171.9363.2408.4212.4939.8335.7549,1.2413s.5315.8091.8125,1.2035c.2889.4051.5847.8049.8937,1.1942.233.2937.47.5826.7134.8669.3312.3859.6748.76,1.0255,1.1283.3538.3714.7178.7309,1.09,1.0833.3039.2869.6116.569.9275.843.2964.2569.593.5123.9.7575.5027.4015,1.0169.7891,1.546,1.1571.3258.2266.6622.4366.9976.65q.4941.315,1.0018.6093A28.9856,28.9856,0,1,0,255.001,52Z"/>
      <path class="sapIllus_ObjectFillColor" style="fill:var(--sapIllus_ObjectFillColor)" d="M260.3343,81l10.5266-10.53a3.0658,3.0658,0,1,0-4.3352-4.3362L256.001,76.6643,245.4743,66.133a3.1376,3.1376,0,0,0-4.3333,0,3.0693,3.0693,0,0,0,0,4.3362L251.6676,81,241.141,91.5308a3.0651,3.0651,0,1,0,4.3333,4.3362L256.001,85.3357,266.5257,95.867a3.0658,3.0658,0,1,0,4.3352-4.3362Z"/>
      <path class="sapIllus_StrokeDetailColor" style="fill:var(--sapIllus_StrokeDetailColor)" d="M201.0742,163.3134l-31.4585-34.292a1.5644,1.5644,0,0,0-1.2358-.5186,1.5843,1.5843,0,0,0-1.1836.6006c-2.5811,3.26-11.7129,12.7578-15.6123,16.8135-.8574.8925-1.46,1.5195-1.6826,1.7568-2.1167,2.2578-4.2124,4.5391-6.3081,6.82-2.6109,2.8418-5.3106,5.7813-8.0069,8.6211a1.581,1.581,0,0,0-.5429,1.5869,1.8589,1.8589,0,0,0,1.5268,1.1094,19.6218,19.6218,0,0,0,4.2236.1885c.148-.0059.2569-.01.315-.01l10.0732-.0039h.0034a1.3868,1.3868,0,0,1,.9869.2627,1.3054,1.3054,0,0,1,.2509.9346q-.027,10.29-.0122,20.582v.457c.003,8.83-.49,18.1231-6.4257,26.1524l-.2872.3828c-8.3754,11.0254-17.7373,16.4892-29.4643,17.1943-.03.002-3.46.2686-4.3731.4141a2.8021,2.8021,0,0,0-1.84,4.3906,3.0248,3.0248,0,0,0,2.2222,1.17c.8808.0537,2.8437.1338,4.7363.21,1.8364.0742,3.6059.1455,4.2422.1885,1.6977.1191,3.3393.1738,4.9262.1738,11.92,0,20.7466-3.09,26.8287-5.2187,18.6132-6.5176,27.8911-25.4034,30.3667-40.9043.4223-2.6462,1.1652-12.0337,1.4025-14.4241,1.0281-10.3569.0281-10.3569,4.1721-10.8455,2.1329-.2514,11.3258-1.1172,11.7432-1.3164a1.4608,1.4608,0,0,0,.8086-1.0517A1.65,1.65,0,0,0,201.0742,163.3134Zm-48.4277,69.0234c-6.815,2.3848-17.1148,5.9883-31.356,4.99-.6421-.0429-2.4228-.1152-4.27-.1894-1.8843-.0762-3.8388-.1553-4.7158-.209a2.0207,2.0207,0,0,1-1.4688-.752,1.8011,1.8011,0,0,1,1.1827-2.8222c.8134-.13,4.0771-.39,4.2788-.4043,12.0371-.7246,21.6323-6.3125,30.1977-17.5869l.295-.3946c6.1162-8.2734,6.625-17.749,6.6215-26.7461v-.458q-.0044-10.2889.0122-20.5791a2.2064,2.2064,0,0,0-.5434-1.6435,2.2835,2.2835,0,0,0-1.6944-.5557h-.0039l-10.0727.0039c-.065,0-.1865.0039-.3516.0108a18.8958,18.8958,0,0,1-3.977-.168c-.481-.1026-.7393-.2881-.7818-.4258-.04-.1289.0772-.3545.3135-.6035,2.7017-2.8457,5.4043-5.7881,8.0181-8.6328q3.1392-3.419,6.3008-6.8135c.2216-.2363.8212-.86,1.6738-1.7471,3.91-4.0664,13.0644-13.5888,15.6758-16.8857a.5786.5786,0,0,1,.436-.2227.6113.6113,0,0,1,.4624.1953l31.457,34.2911a.6638.6638,0,0,1,.1529.5576.4642.4642,0,0,1-.2574.3418,1.9585,1.9585,0,0,1-.7934.1015l-14.7163.001a1.5974,1.5974,0,0,0-1.5952,1.5957v15.9131a61.8383,61.8383,0,0,1-.77,9.7188C179.9253,207.4344,170.8447,225.9647,152.6465,232.3368Z"/>
</svg>
