<svg xmlns="http://www.w3.org/2000/svg" xmlns:xlink="http://www.w3.org/1999/xlink" width="160" height="160" viewBox="0 0 160 160" id="sapIllus-Dialog-NoSavedItems">
      <path class="sapIllus_BackgroundColor" style="fill:var(--sapIllus_BackgroundColor)" d="M31.718,140.9657V56.6524A46.03,46.03,0,0,0,14.8286,91.8957c-.35,21.9863,3.6217,41.3245,20.4675,51.5083-.893-.54-1.7561-1.1017-2.5781-1.6923C32.3781,141.4676,32.0458,141.2183,31.718,140.9657Z"/>
      <path class="sapIllus_BackgroundColor" style="fill:var(--sapIllus_BackgroundColor)" d="M126.718,59.0435v80.0491c-.33.217-.6609.4342-1,.6526-.62.3989-1.2585.8013-1.9082,1.2064,15.1032-9.41,21.8634-16.8622,22.58-35.3973C147.0678,88.0281,139.5279,71.152,126.718,59.0435Z"/>
      <path class="sapIllus_PatternShadow" style="fill:var(--sapIllus_PatternShadow)" d="M129.0112,49.6546H125.718v90.0878a84.0585,84.0585,0,0,0,7-4.9621V53.3613A3.7067,3.7067,0,0,0,129.0112,49.6546Z"/>
      <path class="sapIllus_Layering1" style="fill:var(--sapIllus_Layering1)" d="M59.7189,19.6629a1.001,1.001,0,0,1-1.0009-1.001L58.716,3.6472a1.001,1.001,0,0,1,2.002,0L60.72,18.6619A1.001,1.001,0,0,1,59.7189,19.6629Z"/>
      <path class="sapIllus_Layering1" style="fill:var(--sapIllus_Layering1)" d="M39.9017,22.9675a.9986.9986,0,0,1-.84-.4555l-5.2163-8.0332A1,1,0,0,1,35.5233,13.39L40.74,21.4231a1,1,0,0,1-.8379,1.5444Z"/>
      <path class="sapIllus_Layering1" style="fill:var(--sapIllus_Layering1)" d="M81.1771,22.9675a1,1,0,0,1-.8379-1.5444L85.5555,13.39a1,1,0,0,1,1.6777,1.0889L82.0169,22.512A1,1,0,0,1,81.1771,22.9675Z"/>
      <path class="sapIllus_ObjectFillColor" style="fill:var(--sapIllus_ObjectFillColor)" d="M124.0837,42.2876a3.6927,3.6927,0,0,0-2.0725-.633H75.718V78.0812a1.2511,1.2511,0,0,1-2.1951.821L71.532,76.6129a1.2219,1.2219,0,0,1-1.9591.1785L63.0985,69.49l-8.1923,9.42a1.2472,1.2472,0,0,1-2.1882-.8185V74.699l-1.8511,2.0875a1.2292,1.2292,0,0,1-2.1489-.8155V41.6546H36.4248a3.7056,3.7056,0,0,0-3.7068,3.7067v96.35c.822.5906,1.6851,1.1521,2.5781,1.6923.2012.1216.4026.2432.6074.3622.4089.2377.822.4724,1.2459.7.2315.1239.4719.2415.7077.3622q1.0294.5272,2.1165,1.0136c.3274.1461.6562.2913.9917.4317.3945.1655.7922.3288,1.198.4862.52.2013,1.0517.3943,1.59.5822.4667.1631.9429.32,1.424.4725.5122.1626,1.03.3213,1.5583.4721.3545.1014.711.2014,1.0728.2974.7905.2093,1.5925.41,2.4192.5936.2417.0537.4926.101.7375.1525q1.1009.231,2.2436.4321c.3111.0546.6234.1082.9393.1594.9687.1567,1.951.3034,2.9653.4272.1.0123.2056.0211.3064.033.9641.114,1.9531.21,2.959.294q.4363.0365.8779.0693c1.1143.0821,2.2442.153,3.41.1981,14.8534.5744,45.3714-1.653,56.7351-8.5159.6876-.4153,1.3542-.8244,2.01-1.2308.1335-.0827.2655-.165.3977-.2474.65-.405,1.2887-.8074,1.9082-1.2064V45.3613A3.7032,3.7032,0,0,0,124.0837,42.2876Z"/>
      <path class="sapIllus_StrokeDetailColor" style="fill:var(--sapIllus_StrokeDetailColor)" d="M59.3012,67.2751,52.718,74.699v3.3926a1.2471,1.2471,0,0,0,2.1882.8184l8.1926-9.42-1.9641-2.2149A1.2252,1.2252,0,0,0,59.3012,67.2751Z"/>
      <path class="sapIllus_StrokeDetailColor" style="fill:var(--sapIllus_StrokeDetailColor)" d="M122.0112,40.6546H71.718V75.9775a1.1979,1.1979,0,0,1-.1854.6354l1.99,2.2889a1.2511,1.2511,0,0,0,2.1952-.8209V41.6546h46.2932a3.7057,3.7057,0,0,1,3.7068,3.7067v94.3811c.3391-.2183.67-.4356,1-.6525V45.3613A4.7068,4.7068,0,0,0,122.0112,40.6546Z"/>
      <path class="sapIllus_StrokeDetailColor" style="fill:var(--sapIllus_StrokeDetailColor)" d="M31.718,45.3613v95.6044c.3278.2526.66.5019,1,.746v-96.35a3.7056,3.7056,0,0,1,3.7068-3.7067H48.718v-1H36.4248A4.7068,4.7068,0,0,0,31.718,45.3613Z"/>
      <path class="sapIllus_BrandColorSecondary" style="fill:var(--sapIllus_BrandColorSecondary)" d="M71.718,36.8881a1.2371,1.2371,0,0,0-1.2336-1.2335H49.9457a1.2278,1.2278,0,0,0-1.2277,1.2277V75.971a1.2292,1.2292,0,0,0,2.1489.8155L52.718,74.699l6.5832-7.4239a1.2252,1.2252,0,0,1,1.8335,0L63.0988,69.49l6.4746,7.3014a1.222,1.222,0,0,0,1.9592-.1785,1.1979,1.1979,0,0,0,.1854-.6354V36.8881Z"/>
</svg>
