<svg xmlns="http://www.w3.org/2000/svg" xmlns:xlink="http://www.w3.org/1999/xlink" width="320" height="240" viewBox="0 0 320 240" id="sapIllus-Scene-NoEmail">
    <path class="sapIllus_BackgroundColor" style="fill:var(--sapIllus_BackgroundColor)" d="M318.0092,206.2838c-.0946-12.27-9.8866-22.2741-21.8509-22.2741H255.9194a60.2942,60.2942,0,0,0,2.0653-15.0936,58.83,58.83,0,0,0-10.1567-32.2438,59.2277,59.2277,0,0,0,51.8708-64.7445c-3.0761-30.237-29.1534-52.934-59.5689-52.934H106.594a58.9646,58.9646,0,0,0-41.7393,17.34c-10.6978,10.7-17.8354,25.3509-17.8354,41.59a59.2885,59.2885,0,0,0,10.1592,32.3817,59.2518,59.2518,0,0,0-52.1819,58.63,60.46,60.46,0,0,0,1.66,13.8826,62.6808,62.6808,0,0,0,11.3491,23.45c.2729.3324.5644.648.8439.9745h-.0275c.4189.4989.86.977,1.2935,1.462.0223.0245.0436.05.0659.0745a59.8637,59.8637,0,0,0,44.62,20.2263H296.1194a21.4651,21.4651,0,0,0,15.4584-6.6316,22.7442,22.7442,0,0,0,5.9456-11.3046c.0912-.4312.1731-.8656.2389-1.3055.023-.1589.042-.3187.0617-.4786.0787-.618.138-1.2419.1648-1.8741l.0009-.01h-.0008q.0232-.555.0195-1.1161Z"/>
    <rect class="sapIllus_Layering1" style="fill:var(--sapIllus_Layering1)" x="196.0026" y="99.9153" width="8.0002" height="108.648"/>
    <polygon class="sapIllus_StrokeDetailColor" style="fill:var(--sapIllus_StrokeDetailColor)" points="204.009 99.915 204.009 107.996 196.003 104.127 196.024 99.939 204.009 99.915"/>
    <path class="sapIllus_BrandColorSecondary" style="fill:var(--sapIllus_BrandColorSecondary)" d="M247.9986,73.8817v24.09a3.0287,3.0287,0,0,1-3.0261,3.0313h-64.48c.0365-.45.0639-.91.0639-1.3791v-42.29a13.3226,13.3226,0,0,0-3.8825-9.4142,13.0809,13.0809,0,0,0-9.2323-3.9165h50.6A30.17,30.17,0,0,1,247.99,73.422C247.9986,73.5782,247.9986,73.7255,247.9986,73.8817Z"/>
    <path class="sapIllus_PatternHighlight" style="fill:var(--sapIllus_PatternHighlight)" d="M242.045,56.1293A29.8131,29.8131,0,0,0,218.12,44.0026H167.6529a13.0561,13.0561,0,0,1,9.2082,3.8994,13.2535,13.2535,0,0,1,3.8724,9.3738V99.3843c0,.4387-.027.8675-.06,1.29,1.8083-2.9386,3.6607-5.8512,5.6026-8.7038C197.9,74.8966,219.6308,56.0374,242.045,56.1293Z"/>
    <path class="sapIllus_AccentColor" style="fill:var(--sapIllus_AccentColor)" d="M218.2283,15.4757,199.7149,5.8019V29.3971l18.5134-11.208A1.5582,1.5582,0,0,0,218.2283,15.4757Z"/>
    <path class="sapIllus_Layering1" style="fill:var(--sapIllus_Layering1)" d="M202.0068,61.2268V6.1286a1.5922,1.5922,0,1,0-3.0013,0V61.2268a1.5922,1.5922,0,1,0,3.0013,0Z"/>
    <circle class="sapIllus_StrokeDetailColor" style="fill:var(--sapIllus_StrokeDetailColor)" cx="201.4947" cy="64.5013" r="4.5027"/>
    <circle class="sapIllus_ObjectFillColor" style="fill:var(--sapIllus_ObjectFillColor)" cx="200.5062" cy="62.5121" r="4.497"/>
    <path class="sapIllus_StrokeDetailColor" style="fill:var(--sapIllus_StrokeDetailColor)" d="M267.5,209.0106H177.4962a.5.5,0,0,1,0-1H267.5a.5.5,0,1,1,0,1Z"/>
    <path class="sapIllus_Layering1" style="fill:var(--sapIllus_Layering1)" d="M112.9473,65.8007a.4819.4819,0,0,1-.0909-.0083l-12.0195-2.189a.5.5,0,1,1,.18-.9834l12.02,2.189a.5.5,0,0,1-.0888.9917Z"/>
    <path class="sapIllus_Layering1" style="fill:var(--sapIllus_Layering1)" d="M118.4688,51.2347a.5028.5028,0,0,1-.377-.1708l-8.0381-9.2007a.5.5,0,0,1,.7539-.6582l8.0381,9.2006a.5.5,0,0,1-.3769.8291Z"/>
    <path class="sapIllus_Layering1" style="fill:var(--sapIllus_Layering1)" d="M132.6581,41.4351a.4994.4994,0,0,1-.4775-.3516l-3.6241-11.6674a.5.5,0,0,1,.9551-.2969l3.624,11.6675a.5.5,0,0,1-.3291.6259A.5074.5074,0,0,1,132.6581,41.4351Z"/>
    <path class="sapIllus_Layering1" style="fill:var(--sapIllus_Layering1)" d="M170.9189,127.922l9.5523-26.6341a7.6442,7.6442,0,0,0,.2512-.89l-12.1087.0964-1.8784,2.6628a39.3349,39.3349,0,0,1-3.4618,13.2268,21.3572,21.3572,0,0,1-2.9893,5.6341c-3.3811,4.54-7.5029,6.1565-7.04,8.105.1753.737.9034,1.0879,2.2958,1.7591a15.1747,15.1747,0,0,0,9.5908.6559C167.9357,131.8316,170.09,130.2322,170.9189,127.922Z"/>
    <path class="sapIllus_StrokeDetailColor" style="fill:var(--sapIllus_StrokeDetailColor)" d="M180.9939,57.3332l.0229,43.67h-26.45a13.6474,13.6474,0,0,1-.0732-1.3791v-42.29A13.3324,13.3324,0,0,1,167.0677,44.021c.2651-.0093.521-.0185.7768-.0185a13.132,13.132,0,0,1,9.2566,3.9165A13.3047,13.3047,0,0,1,180.9939,57.3332Z"/>
    <path class="sapIllus_ObjectFillColor" style="fill:var(--sapIllus_ObjectFillColor)" d="M90.8331,136.891a31.9247,31.9247,0,0,1-18.1081-4.0229,13.0339,13.0339,0,0,1-5.3113-4.8638c-1.1505-2.1485-1.187-5.0458.4512-6.8467a6.1029,6.1029,0,0,1,5.735-1.5407,14.4973,14.4973,0,0,1,5.493,2.8068,49.2448,49.2448,0,0,1,11.95,12.6918"/>
    <path class="sapIllus_Layering1" style="fill:var(--sapIllus_Layering1)" d="M95.3376,176.358a32.3621,32.3621,0,0,0-1.025,4.9524,11.9018,11.9018,0,0,0,.1547,5.27,9.1618,9.1618,0,0,0,.4955,1.2657l-2.66,3.5235c.1227,1.8606.1965,3.7251.3682,5.5818s.3434,3.7158.3681,5.5819a14.7622,14.7622,0,0,1,7.63,3.7268,1.0046,1.0046,0,0,1-.6494,1.757H90.4809c-1.7667-5.1313-4.202-10.549-4.9513-15.93a52.6893,52.6893,0,0,1,2.8554-25.6906q1.4874,2.0344,3.0448,4.0995,1.6215,2.1492,3.2332,4.2161Q95,175.5351,95.3376,176.358Z"/>
    <path class="sapIllus_ObjectFillColor" style="fill:var(--sapIllus_ObjectFillColor)" d="M166.751,58.2311a.03.03,0,0,1-.0332-.0123c-4.7948-6.1033-12.0985-5.0351-17.5948-2.287-1.8338.9168-12.5727,6.5451-11.2586,13.2674,0,0,1.456,6.4264,10.5636,2.8156.0248-.01.1555.0364.146.0614-.19.5031-1.6111,4.383-6.4051,10.6691-1.7954,2.3541-4.3558,4.9569-7.17,7.9622a176.5953,176.5953,0,0,1-22.3631,19.7909C81.4065,138.4642,82.0027,161.11,95.6447,175.8873c.0087.01-.1111.0957-.1167.1074-.1918.3955-5.2316,9.301,5.0211,22.4442q.3929.5036.8158,1.0152l5.8286,8.5771h14.9931c-.5519-1.4847-2.8474-5.6088-12.0731-5.4936-.0129,0-.4079-.3359-.4137-.3475l-6.2716-12.7314a1.2217,1.2217,0,0,1,.1892-.2388c1.1329-.45,32.0839-12.6634,18.688-36.9253-.0134-.0243.0082-.0425.0358-.04.5673.0556,2.3964-3.385,5.88-5.998a56.2771,56.2771,0,0,1,11.8446-7.494c7.013-3.4878,25.1664-14.0988,26.6631-35.5893a.0324.0324,0,0,1,.0059-.0166l2.7348-3.6463a.0311.0311,0,0,1,.0275-.0122l10.0683.9153h.4584V63.2773C179.8132,63.1046,172.1746,56.446,166.751,58.2311Z"/>
    <path class="sapIllus_Layering2" style="fill:var(--sapIllus_Layering2)" d="M154.5182,122.0706c1.4979.6474,3.0063,1.1877,4.5212,1.6759a36.98,36.98,0,0,0,7.819-20.5577c-.9606.7744-1.86,1.6625-2.7065,2.3553a26.9255,26.9255,0,0,1-5.0858,3.2777,21.9108,21.9108,0,0,1-7.5225,2.8016,68.4807,68.4807,0,0,1-12.8914.7606C143.0383,116.57,149.2279,119.7846,154.5182,122.0706Z"/>
    <circle class="sapIllus_StrokeDetailColor" style="fill:var(--sapIllus_StrokeDetailColor)" cx="175.0131" cy="78.0082" r="1.9977"/>
    <g>
      <path class="sapIllus_StrokeDetailColor" style="fill:var(--sapIllus_StrokeDetailColor)" d="M180.57,90.4481c-4.8168-1.1107-9.6267-2.0662-14.5432-.9887-5.4592,1.1965-10.7794,3.4994-16.0485,5.3331-.604.21-.3443,1.1766.2658.9643,4.7608-1.6568,9.5051-3.5507,14.3623-4.9055,5.3578-1.4945,10.3833-.6643,15.6977.5611C180.9308,91.5568,181.1981,90.5929,180.57,90.4481Z"/>
      <path class="sapIllus_StrokeDetailColor" style="fill:var(--sapIllus_StrokeDetailColor)" d="M180.361,100.3273c-3.8549-1.7426-7.8852-.8268-11.8954-1.5734-.6291-.1172-.8988.8464-.2659.9643.2111.0393.4237.0587.6355.0889a29.7478,29.7478,0,0,1-30.4,11.73c-.6279-.1322-.8963.8315-.2659.9643a30.7612,30.7612,0,0,0,28.0372-8.142,40.3039,40.3039,0,0,1-17.0827,28.1792c-8.9806,6.2054-19.9059,9.859-26.466,19.0318a24.2831,24.2831,0,0,0-4.3249-5.4466c-.4684-.4409-1.1769.2649-.7071.7071a22.6966,22.6966,0,0,1,4.8279,26.9276c-4.1613,8.046-12.692,12.1081-20.5271,15.7555-.583.2713-.0757,1.1336.5047.8634.2834-.1319.5688-.2666.8534-.4l6.1977,12.3989a.5071.5071,0,0,0,.442.878,10.7548,10.7548,0,0,1,11.5919,4.7555H107.775q-4.848-7.4552-9.6955-14.91c-1.5664-2.4108-3.1048-4.758-3.4226-7.683a24.3206,24.3206,0,0,1,1.179-8.9077c.5388.436,1.091.8615,1.6725,1.263.5314.367,1.032-.5023.5047-.8664a25.8689,25.8689,0,0,1-11.0519-20.2749c-.5492-9.0965,2.9483-17.6264,7.6633-25.2189,9.2152-14.8392,23.8512-24.7821,36.4669-36.4241,7.0125-6.4713,13.4221-13.6149,17.7984-22.1659a31.5826,31.5826,0,0,0,14.748-10.431c.3945-.5-.3085-1.2122-.7071-.7071a31.0346,31.0346,0,0,1-10.727,8.7352,25.5775,25.5775,0,0,1-7.3988,2.417c-4.3238.6318-8.2053-2.2652-6.1871-6.8934,1.0037-2.3018,3.0535-4.0491,4.9417-5.6325a28.6793,28.6793,0,0,1,6.9351-4.4888c5.2617-2.2831,11.825-2.0591,15.4956,2.8775a.52.52,0,0,0,.1263.114.4039.4039,0,0,0,.3837.1362,15.4956,15.4956,0,0,1,13.3539,5.3149c.4457.4944,1.176-.2355.7323-.7279A16.4517,16.4517,0,0,0,166.62,57.9089c-3.7818-4.7739-10.1739-5.46-15.6708-3.3651a28.5852,28.5852,0,0,0-8.0965,5.0593c-2.2612,1.9045-4.802,4.0955-5.5743,7.0772a5.6112,5.6112,0,0,0,2.0154,6.2178c2.4178,1.6544,5.5506,1.1154,8.1843.3816l.0184-.0059c-8.8325,16.4675-24.8333,27.05-38.227,39.4822-6.6159,6.1408-13.35,13.6059-17.88,21.98a49.6847,49.6847,0,0,0-12.6749-13.2047c-3.4359-2.4065-9.6942-4.4275-12.0686.5694-2.27,4.7786,2.0614,9.0553,5.8263,11.2021a32.6664,32.6664,0,0,0,17.557,4.1162,38.9847,38.9847,0,0,0-3.9956,20.21,26.8776,26.8776,0,0,0,8.9576,18.177c-1.4556,5.4213-2.2563,10.4978.7788,15.5468,3.4038,5.6623,7.1941,11.1244,10.8086,16.6579H59.5008a.5.5,0,0,0,0,1h107a.5.5,0,0,0,0-1H122.6243a.4651.4651,0,0,0-.0683-.236,11.7829,11.7829,0,0,0-12.0932-5.6153.4973.4973,0,0,0-.0317-.1163l-6.2431-12.49c8.031-3.8054,16.2528-8.3571,19.8929-16.9192a23.4325,23.4325,0,0,0-.9043-20.1134c.0149-.0169.0332-.0256.0468-.0454,7.2649-10.5523,20.4366-13.7664,29.9018-21.7256a41.141,41.141,0,0,0,14.2182-27.4981.435.435,0,0,0-.0062-.0573,31.574,31.574,0,0,0,2.4727-3.0266.4431.4431,0,0,0,.0833-.2328c3.1811.2714,6.4062-.1362,9.459,1.0507h1.1712A.4186.4186,0,0,0,180.361,100.3273ZM76.715,134.23c-4.1983-1.6779-11.19-5.389-9.4042-11.0717,1.1423-3.6347,5.3686-3.6617,8.2254-2.3578a26.0467,26.0467,0,0,1,5.814,4.0533,50.1394,50.1394,0,0,1,9.26,10.5156.4866.4866,0,0,0,.3226.2181c-.14.2691-.2723.5408-.4072.8117A32.2078,32.2078,0,0,1,76.715,134.23Z"/>
    </g>
</svg>