<svg xmlns="http://www.w3.org/2000/svg" xmlns:xlink="http://www.w3.org/1999/xlink" width="320" height="240" viewBox="0 0 320 240" id="sapIllus-Scene-NoSavedItems">
    <path class="sapIllus_BackgroundColor" style="fill:var(--sapIllus_BackgroundColor)" d="M287.1638,108.7653c-8.397-6.819-18.8223-11.4095-29.9378-14.3517a147.0083,147.0083,0,0,0-36.0745-4.467c-.62-.0043-1.2382,0-1.8574,0-.3916.0009-.7707-.0159-1.1394-.0471A40.78,40.78,0,0,0,234.9474,56.895h0a40.8441,40.8441,0,0,0-40.8439-40.844H67.7873a40.844,40.844,0,0,0-40.844,40.844h0a40.844,40.844,0,0,0,40.844,40.844H81.9318C52.71,107.46,29.8647,129.0074,29.9709,159.3748c.0725,20.7527,11.2812,40.8821,30.0132,53.2919,20.4721,13.5624,46.8115,13.45,71.2114,13.4177,19.8215-.0259,39.6431.1243,59.4643-.0113,18.7916-.1287,38.38.8054,57.0071-1.7552,36.5125-5.0191,64.44-32.61,64.324-65.9282C311.9257,139.7384,302.6223,121.318,287.1638,108.7653Z"/>
    <g>
      <path class="sapIllus_Layering2" style="fill:var(--sapIllus_Layering2)" d="M36.5766,79.2947q-.5244.2658-1.0821.5282a22.3357,22.3357,0,0,1-10.0639,2.5139,16.6256,16.6256,0,0,1-3.9854-.5677,6.762,6.762,0,0,1-4.1684,2.1983,1,1,0,0,1-1.1305-1.047l.2091-3.4094a30.4775,30.4775,0,0,1-9.126-9.6146c-2.9555-4.7466-2.9753-9.24-.0528-12.02a8.9773,8.9773,0,0,1,5.3987-2.2009,27.3559,27.3559,0,0,1,9.791.91,49.5269,49.5269,0,0,1,4.2257-9.0943c.8465-1.4,3.4233-5.658,8.0367-6.4245,3.5155-.5836,8.429,1.0339,11.6766,7.3246A24.28,24.28,0,0,1,48.947,60.08l2.7209,2.9529a.9768.9768,0,0,1-.09,1.4268,15.1756,15.1756,0,0,1-3.71,2.1309,20.2782,20.2782,0,0,1-5.7145,8.9977A25.3549,25.3549,0,0,1,36.5766,79.2947ZM24.4328,75.3889a9.1884,9.1884,0,0,0,1.14.0944,15.8154,15.8154,0,0,0,6.9641-1.8554,20.1373,20.1373,0,0,0,4.9888-3.1291,12.5611,12.5611,0,0,0,2.1761-2.5646,34.3055,34.3055,0,0,1-9.0229-1.54c-1.2564-.378-2.5108-.7953-3.7311-1.2054-.5544,2.0805-1.0652,4.21-1.5842,6.3728C25.062,72.8165,24.752,74.1082,24.4328,75.3889ZM28.96,58.6278c1.2809.4306,2.4973.8375,3.7224,1.2061a25.4573,25.4573,0,0,0,9.3214,1.1894,17.4027,17.4027,0,0,0-1.8462-9.5062c-1.044-2.0221-2.8867-3.9388-4.3888-3.6894-.6714.1125-1.7814.7551-3.2546,3.1916A42.3954,42.3954,0,0,0,28.96,58.6278Zm-16.8992,4.18a.4917.4917,0,0,0-.1051.1236.8119.8119,0,0,0-.0709.4841,6.722,6.722,0,0,0,1.22,2.8773,26.5834,26.5834,0,0,0,4.9907,5.9519c.1855-.7618.3681-1.5234.5476-2.2717.5429-2.2611,1.0908-4.5454,1.7043-6.8223a17.7427,17.7427,0,0,0-7.76-.5519A1.1666,1.1666,0,0,0,12.061,62.8079Z"/>
      <path class="sapIllus_ObjectFillColor" style="fill:var(--sapIllus_ObjectFillColor)" d="M47.8549,56.1464l-.7831.3969a.4325.4325,0,0,1-.58-.1864l-.4-.7771a.4263.4263,0,0,1,.1879-.5756l.7831-.3969a.4326.4326,0,0,1,.58.1864l.4.7772A.4261.4261,0,0,1,47.8549,56.1464Z"/>
      <path class="sapIllus_ObjectFillColor" style="fill:var(--sapIllus_ObjectFillColor)" d="M43.49,49.4325l-.8245-.53a.4758.4758,0,0,1-.1422-.6611l.5343-.8182a.4838.4838,0,0,1,.6661-.1412l.8245.53a.4758.4758,0,0,1,.1423.6611l-.5343.8182A.4839.4839,0,0,1,43.49,49.4325Z"/>
      <path class="sapIllus_ObjectFillColor" style="fill:var(--sapIllus_ObjectFillColor)" d="M43.3169,53.4948l-.5034-.3237a.2906.2906,0,0,1-.0868-.4036l.3262-.5a.2954.2954,0,0,1,.4067-.0862l.5034.3237a.2905.2905,0,0,1,.0868.4037l-.3262.4995A.2954.2954,0,0,1,43.3169,53.4948Z"/>
      <path class="sapIllus_ObjectFillColor" style="fill:var(--sapIllus_ObjectFillColor)" d="M39.7469,42.9274l-.5727.1768a.2945.2945,0,0,1-.3682-.1919l-.1782-.5684a.2916.2916,0,0,1,.1934-.3654l.5728-.1768a.2944.2944,0,0,1,.3681.1919l.1782.5684A.2914.2914,0,0,1,39.7469,42.9274Z"/>
      <path class="sapIllus_ObjectFillColor" style="fill:var(--sapIllus_ObjectFillColor)" d="M36.8341,47.73l-.3649-1.1642a.5968.5968,0,0,1,.3961-.7483l1.1731-.3622a.6031.6031,0,0,1,.754.3931l.365,1.1642a.5969.5969,0,0,1-.3962.7483l-1.173.3622A.6032.6032,0,0,1,36.8341,47.73Z"/>
      <path class="sapIllus_ObjectFillColor" style="fill:var(--sapIllus_ObjectFillColor)" d="M30.7667,46.652l-.8824.2066a.4447.4447,0,0,1-.5347-.3281l-.2082-.8757a.4411.4411,0,0,1,.3306-.5306l.8824-.2066a.4448.4448,0,0,1,.5347.3281l.2081.8757A.441.441,0,0,1,30.7667,46.652Z"/>
      <path class="sapIllus_ObjectFillColor" style="fill:var(--sapIllus_ObjectFillColor)" d="M30.2658,50.5465l-.397-.2553a.2291.2291,0,0,1-.0684-.3183l.2572-.3939a.2329.2329,0,0,1,.3207-.0679l.3969.2552a.2291.2291,0,0,1,.0685.3183l-.2572.3939A.2331.2331,0,0,1,30.2658,50.5465Z"/>
      <path class="sapIllus_ObjectFillColor" style="fill:var(--sapIllus_ObjectFillColor)" d="M13.4954,58.1228l-.77-.0784a.3775.3775,0,0,1-.339-.4133l.079-.7646a.379.379,0,0,1,.4164-.3364l.77.0784a.3776.3776,0,0,1,.339.4133l-.079.7646A.3789.3789,0,0,1,13.4954,58.1228Z"/>
      <path class="sapIllus_ObjectFillColor" style="fill:var(--sapIllus_ObjectFillColor)" d="M15.6671,72.687l-.57.043a.2794.2794,0,0,1-.3-.2561l-.0433-.5653a.2786.2786,0,0,1,.258-.2982l.57-.043a.2794.2794,0,0,1,.3.256l.0433.5654A.2787.2787,0,0,1,15.6671,72.687Z"/>
      <path class="sapIllus_ObjectFillColor" style="fill:var(--sapIllus_ObjectFillColor)" d="M9.0181,70.9367l.4825-.7388a.4368.4368,0,0,1,.6015-.1275l.7445.4788a.43.43,0,0,1,.1285.5969l-.4825.7389a.4369.4369,0,0,1-.6015.1274l-.7445-.4788A.43.43,0,0,1,9.0181,70.9367Z"/>
      <path class="sapIllus_ObjectFillColor" style="fill:var(--sapIllus_ObjectFillColor)" d="M6.12,61.48l1.1118.2777a.5577.5577,0,0,1,.4079.6771l-.28,1.1034a.5624.5624,0,0,1-.6823.4047l-1.1118-.2777a.5577.5577,0,0,1-.4079-.6771l.28-1.1034A.5624.5624,0,0,1,6.12,61.48Z"/>
      <path class="sapIllus_ObjectFillColor" style="fill:var(--sapIllus_ObjectFillColor)" d="M9.4352,66.7668,9.3887,66.16a.299.299,0,0,1,.2769-.32l.6113-.0461a.3.3,0,0,1,.3225.2748l.0465.6067a.299.299,0,0,1-.2769.32l-.6113.0461A.3.3,0,0,1,9.4352,66.7668Z"/>
    </g>
    <path class="sapIllus_Layering1" style="fill:var(--sapIllus_Layering1)" d="M258.0487,70.0082c-36.29-.7268-72.8618,7.1-100.0347,21.38-.0171-.0129-.0249-.033-.0434-.0443C134.17,76.76,101.8746,69.2862,69.9012,70.0161a.9265.9265,0,0,0-.9025.9258l.0031,98.0157a.9185.9185,0,0,0,.9419.9189c28.5664-.6288,57.3623,6.09,80.149,17.9324l.561,3.2876a.8337.8337,0,0,0,.843.8241h11.9805a.8339.8339,0,0,0,.8432-.8241l.4947-2.8232c26.3047-12.1793,59.8684-18.947,93.2038-18.2876a.9249.9249,0,0,0,.9568-.9136V70.9343A.9376.9376,0,0,0,258.0487,70.0082Z"/>
    <path class="sapIllus_Layering2" style="fill:var(--sapIllus_Layering2)" d="M251.0433,61.0274c-33.7895-.7484-67.8459,7.5841-92.9995,22.7669-.0239.0144-.0346.0395-.0561.0563-.46-.8-13.6179-22.6555-76.9148-22.8475-.4312-.0012-1.6358-.059-4.0676.0171a1.0594,1.0594,0,0,0-.6824.2289,1.1041,1.1041,0,0,0-.325.7656v103.06a.9871.9871,0,0,0,1.05.9456c29.0329-.7,58.2729,7.2376,80.0842,22.0391a.756.756,0,0,0,.4351.1271.738.738,0,0,0,.124-.0064l.0127-.0018a.7319.7319,0,0,0,.2754-.0914c25.0688-14.8893,59.5483-22.8531,93.0039-22.1187a1.014,1.014,0,0,0,1.022-.99V61.9993A.9794.9794,0,0,0,251.0433,61.0274Z"/>
    <path class="sapIllus_ObjectFillColor" style="fill:var(--sapIllus_ObjectFillColor)" d="M240.5026,53.51c-30.18-.7442-60.5855,7.847-83.0523,23.4831a.6439.6439,0,0,0-.0871.0968.614.614,0,0,0-.1009-.13c-18.8774-15.5905-44.4165-24.17-69.7788-23.4644a1.01,1.01,0,0,0-.9792,1.0067V160.3947a.9924.9924,0,0,0,1.0268.9894,106.8375,106.8375,0,0,1,69.6353,23.8277v.2559c.0564-.0394.1162-.0766.1723-.116.05.0411.1009.0808.15.122v-.2231c17.7051-12.3089,41.4153-20.7287,64.9583-23.1823l19.0439-16.7032V54.5144A1.0112,1.0112,0,0,0,240.5026,53.51Z"/>
    <path class="sapIllus_StrokeDetailColor" style="fill:var(--sapIllus_StrokeDetailColor)" d="M241.9935,54.5146a1.5171,1.5171,0,0,0-1.4738-1.5033c-30.23-.7481-60.4642,7.8318-82.9715,23.5373a98.3163,98.3163,0,0,0-13.39-9.2462l-13.226-10.8885c-.5174-.2394-.9368-.2095-.9371.0668l-.0007,3.9922A108.7924,108.7924,0,0,0,87.47,52.996a1.5178,1.5178,0,0,0-1.4671,1.5062V160.3947a1.4724,1.4724,0,0,0,.4517,1.0659,1.5114,1.5114,0,0,0,1.0908.4228,105.8473,105.8473,0,0,1,69.6221,23.9733.5046.5046,0,0,0,.5341.0692c.0179-.0083.0262-.0271.0425-.0372.0147-.0082.033-.005.0469-.0148,17.5281-12.33,41.1133-20.8213,64.7187-23.3021.0166.0015.0318.0092.0486.0092a.5552.5552,0,0,0,.3682-.14l18.8752-16.513a.5226.5226,0,0,0,.1763-.4858.4711.4711,0,0,0,.0156-.077ZM156.9872,184.4134a106.98,106.98,0,0,0-66.7263-23.5652c-.9124,0-1.8308.0122-2.743.0366a.3937.3937,0,0,1-.3637-.14.4838.4838,0,0,1-.148-.35V54.5022a.51.51,0,0,1,.491-.5076,107.6011,107.6011,0,0,1,42.4973,7.5526l-.0059,39.18c0,.2763,0,1.1452.9361.9337l.4775-.1854,1.0957-.4255q.7394-.2871,1.479-.5743l1.6238-.63,1.53-.5939q.5979-.2323,1.1962-.4645.3421-.1328.6827-.2666a1.4882,1.4882,0,0,1,.7324-.0927,1.1325,1.1325,0,0,1,.6223.3171c.1741.165.3044.3529.4582.5265.1617.1821.3284.3622.4927.5432q.4377.4826.8775.9643l1.1147,1.2237q.6288.6906,1.2578,1.3811.6438.7062,1.2869,1.4125.6.659,1.2007,1.318.5.5489,1,1.0975.3422.3755.6841.751l.2534.2784a.5807.5807,0,0,0,.937-.528l.0882-35.4261a.4575.4575,0,0,0-.0574-.1793c2.4109,1.6463,4.7471,3.3883,6.9856,5.2372a.1266.1266,0,0,1,.0442.097Zm1.0156-106.8955a.1476.1476,0,0,1,.07-.1174c22.34-15.6091,52.3606-24.1463,82.4214-23.3922a.51.51,0,0,1,.4942.5063v90.4611h-17.961a1.0187,1.0187,0,0,0-1.0293,1.0075v15.6462c-23.281,2.5141-46.5173,10.8217-63.9951,22.8785Zm64.9922,83.54V145.9832h17.2632Z"/>
    <g>
      <path class="sapIllus_BackgroundColor" style="fill:var(--sapIllus_BackgroundColor)" d="M126.8737,125.1229c-6.687-3.5727-15.3022-5.4265-23.96-6.1374a1.0157,1.0157,0,0,0-1.1078.9613c-.1438,4.0657-.6662,18.8418-.8026,22.7268a.9958.9958,0,0,0,.9371,1.0153c8.8221.7138,17.6525,2.5134,24.4966,6.1471a1.0165,1.0165,0,0,0,1.4985-.8737l.0629-21.7036A2.627,2.627,0,0,0,126.8737,125.1229Zm-2.9755,20.7042c-5.6265-2.5441-16.2477-4.2934-19.4049-4.7547a.9933.9933,0,0,1-.8649-1.0235c.146-3.1179.6282-13.4232.7821-16.7292a1.0077,1.0077,0,0,1,1.1092-.947c6.8517.5812,13.5789,1.9457,18.8425,4.7411a1.9488,1.9488,0,0,1,.3215.1766,1.8613,1.8613,0,0,1,.6989,1.4366l-.0485,16.1926A1.0169,1.0169,0,0,1,123.8982,145.8271Z"/>
      <path class="sapIllus_BackgroundColor" style="fill:var(--sapIllus_BackgroundColor)" d="M103.5862,140.9886l.0018-.0369h-.0018Z"/>
    </g>
    <path class="sapIllus_Layering1" style="fill:var(--sapIllus_Layering1)" d="M189.2586,154.9886a1.4939,1.4939,0,0,1-.9329-.33l-.2505-.2018a.507.507,0,0,1-.079-.7084.4963.4963,0,0,1,.7009-.08l.2515.2023a.495.495,0,0,0,.7311-.1236l.9641-1.5323a.495.495,0,0,1,.6882-.1551.5062.5062,0,0,1,.154.6956l-.9631,1.5318A1.4843,1.4843,0,0,1,189.2586,154.9886Zm-3.9966-2.9333a.4946.4946,0,0,1-.311-.11l-1.5616-1.2552a.5079.5079,0,0,1-.08-.7084.4973.4973,0,0,1,.7019-.08l1.5616,1.2552a.5079.5079,0,0,1,.08.7084A.4969.4969,0,0,1,185.262,152.0553Zm7.9435-2.47a.49.49,0,0,1-.2671-.0787.5065.5065,0,0,1-.154-.6956l1.07-1.7022a.4953.4953,0,0,1,.6882-.155.5064.5064,0,0,1,.154.6955l-1.07,1.7022A.4965.4965,0,0,1,193.2055,149.5851Zm-12.6294-1.2965a.4943.4943,0,0,1-.3109-.11l-1.5617-1.2558a.5078.5078,0,0,1-.08-.7083.4976.4976,0,0,1,.7019-.08l1.5616,1.2557a.5078.5078,0,0,1,.08.7083A.4984.4984,0,0,1,180.5761,148.2886Zm15.8394-3.81a.49.49,0,0,1-.2671-.0787.5065.5065,0,0,1-.154-.6956l1.07-1.7022a.4951.4951,0,0,1,.6883-.1551.5065.5065,0,0,1,.154.6956l-1.07,1.7022A.4962.4962,0,0,1,196.4155,144.479Zm-19.6391-.695a.5.5,0,0,1-.4786-.3619,8.15,8.15,0,0,1-.3178-2.1191.502.502,0,0,1,.4893-.5144.5235.5235,0,0,1,.5089.4937,7.1411,7.1411,0,0,0,.2768,1.8553.5046.5046,0,0,1-.3373.6257A.4874.4874,0,0,1,176.7764,143.784Zm22.4768-4.5987a.5.5,0,0,1-.4835-.6276,7.958,7.958,0,0,0,.2378-1.8745.502.502,0,0,1,.4991-.5011h.0029a.5014.5014,0,0,1,.4962.507,8.9172,8.9172,0,0,1-.269,2.1157A.5.5,0,0,1,199.2532,139.1853ZM177.36,137.9035a.4956.4956,0,0,1-.2233-.0532.5075.5075,0,0,1-.2232-.6768,8.8828,8.8828,0,0,1,.4367-.7778,8.4408,8.4408,0,0,1,.736-1.0012.4952.4952,0,0,1,.7048-.05.5081.5081,0,0,1,.05.7108,7.4482,7.4482,0,0,0-.6483.8811,7.86,7.86,0,0,0-.386.6892A.4993.4993,0,0,1,177.36,137.9035Zm10-2.1689c-.0127,0-.1024-.0029-.115-.0039a.5022.5022,0,0,1-.4592-.5415.5228.5228,0,0,1,.5352-.4637l-.038.5026.0682-.5016a.5018.5018,0,0,0,.4318-.2343l.4913-.78a.4989.4989,0,0,1,.6892-.1546.5076.5076,0,0,1,.1531.6961l-.4913.78A1.4892,1.4892,0,0,1,187.3607,135.7346Zm-5.5846-1.64a.5046.5046,0,0,1-.1209-.9933,5.6149,5.6149,0,0,1,2.1719-.1231.5041.5041,0,0,1-.14.9983,4.6361,4.6361,0,0,0-1.79.1034A.5163.5163,0,0,1,181.7761,134.0949Zm16.6933-.7413a.4968.4968,0,0,1-.42-.2323,5.0381,5.0381,0,0,0-1.0967-1.2361l-.13-.1009a.5076.5076,0,0,1-.1043-.7049.4964.4964,0,0,1,.6989-.1053l.1579.1235a6.0179,6.0179,0,0,1,1.3141,1.48.507.507,0,0,1-.1511.6966A.4968.4968,0,0,1,198.4694,133.3536Zm-7.0009-1.7017a.4965.4965,0,0,1-.4358-.2589.5065.5065,0,0,1,.193-.6857,6.2825,6.2825,0,0,1,2.0335-.7286.5039.5039,0,0,1,.1637.9944,5.2784,5.2784,0,0,0-1.7117.6153A.4972.4972,0,0,1,191.4685,131.6519Z"/>
    <g>
      <path class="sapIllus_BackgroundColor" style="fill:var(--sapIllus_BackgroundColor)" d="M202.3224,107.2039H202.31c-.6938-.0181-1.3885-.07-2.0645-.1543a.5011.5011,0,0,1-.4381-.5586.5076.5076,0,0,1,.5644-.4336c.6434.0806,1.3036.13,1.9638.1465a.5.5,0,0,1-.0128,1Zm4.0262-.2637a.5.5,0,0,1-.0759-.9941c.6434-.0987,1.2976-.2256,1.943-.3775a.5069.5069,0,0,1,.6079.3706.499.499,0,0,1-.375.6021c-.671.1582-1.351.29-2.022.3931A.525.525,0,0,1,206.3486,106.94Zm-9.961-.8208a.5016.5016,0,0,1-.1737-.0307,16.8246,16.8246,0,0,1-1.9075-.8277.497.497,0,0,1-.2171-.6733.5067.5067,0,0,1,.6809-.2153,15.8953,15.8953,0,0,0,1.7911.7778.4986.4986,0,0,1,.301.6416A.5054.5054,0,0,1,196.3876,106.1194Zm15.7942-.7763a.5046.5046,0,0,1-.4688-.3145.4978.4978,0,0,1,.2813-.65c.61-.2412,1.2207-.5078,1.8157-.793a.5085.5085,0,0,1,.675.2325.4983.4983,0,0,1-.2348.6679c-.6168.2949-1.2494.5713-1.8809.8213A.5075.5075,0,0,1,212.1818,105.3431Zm-20.9435-2.3111a.5057.5057,0,0,1-.3434-.1333,14.7566,14.7566,0,0,1-1.4289-1.5088.4969.4969,0,0,1,.074-.7031.5092.5092,0,0,1,.7115.0732,13.6428,13.6428,0,0,0,1.33,1.4053.4969.4969,0,0,1,.0276.7066A.5064.5064,0,0,1,191.2383,103.032Zm26.301-.4756a.5038.5038,0,0,1-.4214-.2246.4961.4961,0,0,1,.1431-.6924q.8289-.5427,1.62-1.1377a.5086.5086,0,0,1,.7086.0957.4963.4963,0,0,1-.0967.7c-.5467.4112-1.11.8067-1.6757,1.1758A.5061.5061,0,0,1,217.5393,102.5564Zm4.7012-3.7724a.5063.5063,0,0,1-.36-.1494.4963.4963,0,0,1,.0059-.7071q.7106-.6921,1.3707-1.4243a.5094.5094,0,0,1,.7135-.04.4967.4967,0,0,1,.04.706q-.681.7551-1.4161,1.4712A.5049.5049,0,0,1,222.2405,98.784Zm-34.4541-.626a.5065.5065,0,0,1-.4658-.3052,15.6489,15.6489,0,0,1-.6828-1.9487.4986.4986,0,0,1,.3523-.6152.5062.5062,0,0,1,.6207.3486,14.9269,14.9269,0,0,0,.64,1.8257.497.497,0,0,1-.2674.6552A.5134.5134,0,0,1,187.7864,98.158Zm38.3294-3.9731a.5078.5078,0,0,1-.2832-.086.4972.4972,0,0,1-.1352-.6943c.372-.5435.7263-1.1035,1.0549-1.6651a.5085.5085,0,0,1,.69-.1821.4966.4966,0,0,1,.1845.6831c-.3395.5816-.7075,1.1621-1.0924,1.7246A.505.505,0,0,1,226.1158,94.1849Zm-39.5787-1.86a.5034.5034,0,0,1-.5053-.4849c-.0059-.1977-.0088-.3965-.01-.5967,0-.4853.0177-.9682.0533-1.4516a.5056.5056,0,0,1,1.0085.0723q-.05.6883-.0513,1.3769c.001.189.0039.38.01.5689a.5034.5034,0,0,1-.4895.5151ZM228.945,88.89a.5083.5083,0,0,1-.1826-.0337.4975.4975,0,0,1-.2881-.6469c.2418-.6187.4579-1.2417.64-1.8526a.5048.5048,0,0,1,.6287-.3374.5.5,0,0,1,.34.6216c-.1914.6367-.4154,1.2861-.6681,1.93A.5039.5039,0,0,1,228.945,88.89Zm-41.6836-2.4975a.5107.5107,0,0,1-.1312-.0171.4988.4988,0,0,1-.3563-.6128c.1737-.6426.3819-1.2974.6188-1.9468a.5064.5064,0,0,1,.6473-.3.4988.4988,0,0,1,.304.64c-.228.6226-.4273,1.251-.5951,1.8667A.5039.5039,0,0,1,187.2614,86.3929Zm43.13-3.31c-.0178,0-.0345-.001-.0523-.0025a.5008.5008,0,0,1-.451-.5478,19.1579,19.1579,0,0,0,.1007-1.9448c0-.3843-.0129-.7632-.0365-1.1363a.5017.5017,0,0,1,.4717-.5307l.0325-.001a.5035.5035,0,0,1,.5043.4683q.0385.59.0385,1.2a19.9853,19.9853,0,0,1-.1066,2.0454A.5024.5024,0,0,1,230.3917,83.0833ZM189.541,80.8484a.51.51,0,0,1-.2437-.062.4978.4978,0,0,1-.1994-.6787c.3276-.59.6839-1.1782,1.0579-1.748a.5089.5089,0,0,1,.6987-.147.497.497,0,0,1,.148.6919c-.36.5493-.7026,1.1162-1.0184,1.6845A.5077.5077,0,0,1,189.541,80.8484Zm40.1885-4.851a.5049.5049,0,0,1-.4815-.3487,14.5734,14.5734,0,0,0-.7115-1.7978.4974.4974,0,0,1,.2417-.6656.5081.5081,0,0,1,.6721.2388,15.4712,15.4712,0,0,1,.7608,1.9219.4983.4983,0,0,1-.3286.6279A.5044.5044,0,0,1,229.73,75.9974Zm-36.7316-.064a.5089.5089,0,0,1-.33-.1206.4961.4961,0,0,1-.0533-.7051q.666-.7683,1.3865-1.4971a.5094.5094,0,0,1,.7144-.0088.4962.4962,0,0,1,.0079.7071q-.6957.7061-1.343,1.45A.5048.5048,0,0,1,192.9979,75.9334Zm4.37-4.146a.5062.5062,0,0,1-.3967-.19.4971.4971,0,0,1,.0839-.7026q.8038-.6284,1.6529-1.207a.51.51,0,0,1,.7027.1284.4976.4976,0,0,1-.13.6958q-.8186.5582-1.6,1.168A.5084.5084,0,0,1,197.3675,71.7874Zm29.4134-.98a.5058.5058,0,0,1-.3789-.1689,13.86,13.86,0,0,0-1.3875-1.35.4955.4955,0,0,1-.0563-.7051.51.51,0,0,1,.7115-.0557,14.88,14.88,0,0,1,1.49,1.4488.4961.4961,0,0,1-.0444.7055A.5054.5054,0,0,1,226.7809,70.8074ZM202.4625,68.553a.5049.5049,0,0,1-.45-.2729.4975.4975,0,0,1,.2211-.6729c.6138-.3091,1.24-.5981,1.8631-.8594a.5078.5078,0,0,1,.6622.2657.4975.4975,0,0,1-.2675.6552c-.6019.252-1.2069.5313-1.8.83A.5092.5092,0,0,1,202.4625,68.553Zm19.49-1.2993a.5121.5121,0,0,1-.2152-.0474,16.1691,16.1691,0,0,0-1.82-.7138.4992.4992,0,0,1-.3237-.6309.5057.5057,0,0,1,.6375-.3193,17.1321,17.1321,0,0,1,1.9362.7588.4967.4967,0,0,1,.2418.665A.505.505,0,0,1,221.9524,67.2537Zm-13.8383-.8374a.5.5,0,0,1-.1273-.9839l.4046-.1011q.81-.1962,1.6065-.3379a.5.5,0,1,1,.18.9844q-.7666.1362-1.5463.3252l-.39.0972A.5257.5257,0,0,1,208.1141,66.4163Zm8.012-.7056a.4294.4294,0,0,1-.0493-.0024c-.6286-.06-1.274-.09-1.9194-.09a.5241.5241,0,0,1-.53-.5.4818.4818,0,0,1,.4806-.5h.0493c.677,0,1.3559.0318,2.0161.0948a.5.5,0,0,1-.0474.9975Z"/>
      <ellipse class="sapIllus_BackgroundColor" style="fill:var(--sapIllus_BackgroundColor)" cx="208.4866" cy="85.9545" rx="17.7599" ry="13.4462" transform="translate(-11.5505 135.3359) rotate(-35.0542)"/>
    </g>
    <path class="sapIllus_ObjectFillColor" style="fill:var(--sapIllus_ObjectFillColor)" d="M310.3016,179.9558a1.1315,1.1315,0,0,0-1.27-.9707l-25.4,3.2992h0l.9868,7.49a.5058.5058,0,0,1-.4386.5659.4949.4949,0,0,1-.0667.0044.5073.5073,0,0,1-.5033-.4392l-.9865-7.49v0l-3.8826.5043.9868,7.49a.5086.5086,0,0,1-1.0086.1311l-.9868-7.4906-3.8813.5041h0l1.74,13.22a.5058.5058,0,0,1-.4389.5659.4949.4949,0,0,1-.0667.0045.5075.5075,0,0,1-.503-.4393l-1.74-13.22h0l-3.8828.5042,0,0,.9866,7.49a.5055.5055,0,0,1-.4386.5659.5077.5077,0,0,1-.57-.4348l-.9868-7.49v0l-3.8825.5043.9868,7.4906a.5059.5059,0,0,1-.4386.5659.519.519,0,0,1-.0667.0045.5074.5074,0,0,1-.5033-.4393l-.9868-7.4907-3.8813.5042h0l.9858,7.49a.5061.5061,0,0,1-.4389.566.5076.5076,0,0,1-.57-.4349l-.9858-7.49h0l-3.8826.5042.9868,7.49a.5086.5086,0,0,1-1.0086.1311l-.9868-7.4906-3.8816.5041h0l1.74,13.2205a.5059.5059,0,0,1-.4389.5659.4938.4938,0,0,1-.0664.0045.5077.5077,0,0,1-.5034-.4392l-1.74-13.2206h0l-3.8826.5042v0l.9858,7.49a.5058.5058,0,0,1-.4388.5659.4937.4937,0,0,1-.0664.0044.5076.5076,0,0,1-.5034-.4392l-.9858-7.49v0l-3.8823.5044.9866,7.49a.5057.5057,0,0,1-.4387.5659.499.499,0,0,1-.0666.0045.5075.5075,0,0,1-.5033-.4393l-.9866-7.4907-3.8815.5042h0l.9858,7.49a.5059.5059,0,0,1-.4389.566.4937.4937,0,0,1-.0664.0044.5075.5075,0,0,1-.5033-.4393l-.9859-7.49v0l-3.8825.5043.9868,7.49a.5058.5058,0,0,1-.4386.5659.4983.4983,0,0,1-.0667.0045.5074.5074,0,0,1-.5033-.4393l-.9868-7.4906-3.8823.5043,1.7412,13.22a.5086.5086,0,0,1-1.0087.1312l-1.7411-13.2205h0l-3.8816.5042h0l.9858,7.49a.5058.5058,0,0,1-.4388.5659.4941.4941,0,0,1-.0665.0044.5076.5076,0,0,1-.5033-.4392l-.9858-7.49v0l-3.8825.5043.9868,7.4906a.5056.5056,0,0,1-.4387.5659.4938.4938,0,0,1-.0664.0045.5075.5075,0,0,1-.5035-.4392l-.9866-7.4908h0l-3.8825.5043.9868,7.49a.5059.5059,0,0,1-.4389.5659.4937.4937,0,0,1-.0664.0044.5072.5072,0,0,1-.5033-.4392l-.9869-7.49v0l-3.8813.5042.9856,7.49a.5086.5086,0,0,1-1.0086.1312l-.9856-7.4907-3.8825.5043,1.7411,13.2205a.5058.5058,0,0,1-.4388.5659.5069.5069,0,0,1-.57-.4348l-1.7411-13.2205h0l-3.8826.5043h0l.9868,7.49a.506.506,0,0,1-.4386.566.5151.5151,0,0,1-.0667.0043.5073.5073,0,0,1-.5033-.4392l-.9868-7.49v0l-3.8813.5041.9858,7.4906a.5061.5061,0,0,1-.4389.566.5076.5076,0,0,1-.57-.4348l-.9858-7.4907h0l-3.8825.5042h0l.9868,7.49a.5059.5059,0,0,1-.4389.5659.4937.4937,0,0,1-.0664.0044.5072.5072,0,0,1-.5034-.4392l-.9868-7.49v0l-3.8813.5042.9856,7.49a.5086.5086,0,0,1-1.0086.1312l-.9856-7.4907-3.9492.5129a1.1275,1.1275,0,0,0-.9761,1.2632l2.6942,20.4615a1.1314,1.1314,0,0,0,1.2693.9707L312.02,201.6805a1.1275,1.1275,0,0,0,.9761-1.2632Z"/>
    <path class="sapIllus_AccentColor" style="fill:var(--sapIllus_AccentColor)" d="M296.6439,172.1726c-4.4187-1.6806-6.5522-5.7391-8.2-9.8744a.51.51,0,0,0-.4685-.3192.6036.6036,0,0,0-.4761.3075c-2.2363,5.2254-5.1282,7.4675-9.2847,10.2915a.5017.5017,0,0,0,.1346.8955c3.4668,1.09,8.6276,7.66,8.6276,10.9853a.5064.5064,0,0,0,.4375.4988.5191.5191,0,0,0,.0728.005.5093.5093,0,0,0,.4893-.3617c.873-2.9352,3.6613-9.05,7.9682-11.183q.3424-.17.6978-.3041a.5017.5017,0,0,0,.0019-.9412Z"/>
    <path class="sapIllus_AccentColor" style="fill:var(--sapIllus_AccentColor)" d="M265.6747,199c-2.3819-.9588-3.5435-3.3-4.4439-5.6871a.5016.5016,0,0,0-.46-.3315.6139.6139,0,0,0-.4678.3192c-1.2017,2.9711-2.9944,4.4954-5.0691,6.26l-.0517.0444a.5378.5378,0,0,0-.1714.5287.5137.5137,0,0,0,.3835.3888c1.8057.4,4.6006,3.9983,4.6006,5.9236a.5168.5168,0,0,0,.4294.518.49.49,0,0,0,.0716.0051.5042.5042,0,0,0,.48-.3754c.6058-2.1517,2.3565-5.6892,4.6963-6.6169a.5315.5315,0,0,0,.002-.9768Z"/>
    <path class="sapIllus_BrandColorSecondary" style="fill:var(--sapIllus_BrandColorSecondary)" d="M146.9912,106.806l-.1472-.17-.6516-.7525-.9523-1.1-1.1436-1.3207-1.2256-1.4155-1.1984-1.384-1.0617-1.2262q-.4184-.4832-.8359-.9664c-.1565-.1814-.3152-.3618-.469-.5443-.1467-.174-.2709-.3623-.4366-.5276a1.062,1.062,0,0,0-.5928-.3178,1.3551,1.3551,0,0,0-.6977.0929q-.3246.1342-.65.2672l-1.14.4656-1.457.5952-1.5467.6319-1.409.5755-1.0438.4264-.4017.1642c-.9671.1428-.9448-1.0132-.9448-1.58l.0082-43.1335c0-.5577.6175-.742,1.11-.5021l16.9911,8.2713a1.76,1.76,0,0,1,.8916,1.6l-.0089,41.4055C147.9892,106.704,147.7358,107.377,146.9912,106.806Z"/>
    <path class="sapIllus_PatternShadow" style="fill:var(--sapIllus_PatternShadow)" d="M146.9788,106.7943l-.1471-.17-.6512-.7523-.9515-1.1-1.1428-1.3205-1.2248-1.4151-1.1975-1.3837-1.061-1.226q-.4179-.4828-.8353-.9661c-.1563-.1814-.3149-.3618-.4687-.5443-.1465-.1739-.2707-.3621-.4362-.5274a1.0611,1.0611,0,0,0-.5924-.3177,1.3522,1.3522,0,0,0-.6972.0929q-.3243.1341-.65.2671l-1.139.4655-1.4559.5951-1.5456.6317-1.408.5754-1.0431.4264-.4014.164c-.9664.1429-.9441-1.0129-.9441-1.58l.0082-43.1242c0-.5575.617-.7417,1.1094-.5019l16.979,8.27a1.76,1.76,0,0,1,.8911,1.5995l-.0089,41.3965C147.9761,106.6924,147.7229,107.3653,146.9788,106.7943Z"/>
</svg>