<svg xmlns="http://www.w3.org/2000/svg" xmlns:xlink="http://www.w3.org/1999/xlink" width="160" height="160" viewBox="0 0 160 160" id="sapIllus-Dialog-NoEntries">
    <rect class="sapIllus_ObjectFillColor" style="fill:var(--sapIllus_ObjectFillColor)" x="33.3289" y="32.0861" width="90" height="90" rx="2.9999"/>
    <path class="sapIllus_PatternShadow" style="fill:var(--sapIllus_PatternShadow)" d="M128.8289,42.4468a3.8608,3.8608,0,0,0-3.8608-3.8607H42.6845a3.857,3.857,0,0,0-3.8556,3.8581l.0582,82.2837a3.8571,3.8571,0,0,0,3.8557,3.8582h82.2253a3.8609,3.8609,0,0,0,3.8608-3.8608Z"/>
    <rect class="sapIllus_ObjectFillColor" style="fill:var(--sapIllus_ObjectFillColor)" x="32.8289" y="31.5861" width="90" height="90" rx="3.8582"/>
    <path class="sapIllus_BrandColorSecondary" style="fill:var(--sapIllus_BrandColorSecondary)" d="M37.7126,31.5861h82.2325a3.8838,3.8838,0,0,1,3.8838,3.8838V48.5861a0,0,0,0,1,0,0h-90a0,0,0,0,1,0,0V35.47A3.8838,3.8838,0,0,1,37.7126,31.5861Z"/>
    <rect class="sapIllus_BackgroundColor" style="fill:var(--sapIllus_BackgroundColor)" x="42.8289" y="63.5861" width="13" height="8" rx="1.2512"/>
    <rect class="sapIllus_BackgroundColor" style="fill:var(--sapIllus_BackgroundColor)" x="63.8289" y="63.5861" width="51" height="8" rx="1.2545"/>
    <rect class="sapIllus_BackgroundColor" style="fill:var(--sapIllus_BackgroundColor)" x="42.8289" y="81.5861" width="13" height="8" rx="1.2512"/>
    <rect class="sapIllus_BackgroundColor" style="fill:var(--sapIllus_BackgroundColor)" x="63.8289" y="81.5861" width="51" height="8" rx="1.2545"/>
    <rect class="sapIllus_BackgroundColor" style="fill:var(--sapIllus_BackgroundColor)" x="42.8289" y="99.5861" width="13" height="8" rx="1.2512"/>
    <rect class="sapIllus_BackgroundColor" style="fill:var(--sapIllus_BackgroundColor)" x="63.8289" y="99.5861" width="51" height="8" rx="1.2545"/>
    <path class="sapIllus_BrandColorSecondary" style="fill:var(--sapIllus_BrandColorSecondary)" d="M36.826,31.5861H119.81a3.0189,3.0189,0,0,1,3.0189,3.0189V48.5861a0,0,0,0,1,0,0h-90a0,0,0,0,1,0,0V35.5832A3.9972,3.9972,0,0,1,36.826,31.5861Z"/>
    <path class="sapIllus_StrokeDetailColor" style="fill:var(--sapIllus_StrokeDetailColor)" d="M120.3289,122.5861h-84a3.5042,3.5042,0,0,1-3.5-3.5v-84a3.5042,3.5042,0,0,1,3.5-3.5h84a3.5043,3.5043,0,0,1,3.5,3.5v84A3.5043,3.5043,0,0,1,120.3289,122.5861Zm-84-90a2.5028,2.5028,0,0,0-2.5,2.5v84a2.5029,2.5029,0,0,0,2.5,2.5h84a2.503,2.503,0,0,0,2.5-2.5v-84a2.5029,2.5029,0,0,0-2.5-2.5Z"/>
    <path class="sapIllus_StrokeDetailColor" style="fill:var(--sapIllus_StrokeDetailColor)" d="M120.3289,31.5861h-84a3.5042,3.5042,0,0,0-3.5,3.5v84a3.5042,3.5042,0,0,0,3.5,3.5h84a3.5043,3.5043,0,0,0,3.5-3.5v-84A3.5043,3.5043,0,0,0,120.3289,31.5861Zm0,90h-84a2.5029,2.5029,0,0,1-2.5-2.5V48.5885l89,3.6v66.8974A2.503,2.503,0,0,1,120.3289,121.5861Zm-86.5-73v-13.5a2.5028,2.5028,0,0,1,2.5-2.5h84a2.5029,2.5029,0,0,1,2.5,2.5v13.5Z"/>
    <ellipse class="sapIllus_BackgroundColor" style="fill:var(--sapIllus_BackgroundColor)" cx="78.3289" cy="145.0861" rx="50.5" ry="4.5"/>
    <path class="sapIllus_Layering1" style="fill:var(--sapIllus_Layering1)" d="M143.2019,32.8419l-.0259-.0005-10.4941-.269a1,1,0,0,1-.6055-1.7749l8.8521-7.2114h-8.1a1,1,0,0,1,0-2H143.74a1,1,0,0,1,.6313,1.7754l-8.9375,7.2807,7.7935.2a1,1,0,0,1-.0249,2Z"/>
    <path class="sapIllus_Layering1" style="fill:var(--sapIllus_Layering1)" d="M151.2209,14.0944l-.0258-.0005-6.2456-.16a1,1,0,0,1-.6055-1.7749L148.73,8.5861h-3.9008a1,1,0,0,1,0-2h6.7119a1,1,0,0,1,.6313,1.7754l-4.4712,3.642,3.5454.0914a1,1,0,0,1-.0254,1.9995Z"/>
</svg>
