<svg width="128" height="128" viewBox="0 0 128 128" fill="none" xmlns="http://www.w3.org/2000/svg" id="sapIllus-Spot-NoDimensionsSet">
<mask id="mask0_107_1471" style="mask-type:alpha" maskUnits="userSpaceOnUse" x="0" y="0" width="128" height="128">
<circle cx="64" cy="64" r="64" style="fill:var(--sapContent_Illustrative_Color7)"/>
</mask>
<g mask="url(#mask0_107_1471)">
<path d="M139.93 -0.643246H-47.3064C-48.5268 -0.644372 -49.7355 -0.404957 -50.8634 0.0613058C-51.9913 0.527569 -53.0162 1.21154 -53.8796 2.07413C-54.743 2.93672 -55.4279 3.961 -55.8952 5.08843C-56.3625 6.21587 -56.603 7.42435 -56.603 8.6448V118.703C-56.603 121.169 -55.6236 123.534 -53.8801 125.277C-52.1366 127.02 -49.772 128 -47.3064 128H139.93C142.395 128 144.76 127.02 146.503 125.277C148.247 123.534 149.226 121.169 149.226 118.703V8.6448C149.226 7.42435 148.986 6.21587 148.518 5.08843C148.051 3.961 147.366 2.93672 146.503 2.07413C145.639 1.21154 144.614 0.527569 143.487 0.0613058C142.359 -0.404957 141.15 -0.644372 139.93 -0.643246Z" style="fill:var(--sapContent_Illustrative_Color7)"/>
<path d="M-33.3166 73.9698H41.7099C42.8662 73.9698 43.8036 74.9039 43.8036 76.0563V124.479C43.8036 125.632 42.8662 126.566 41.7099 126.566H-33.3166C-34.4729 126.566 -35.4102 125.632 -35.4102 124.479V76.0563C-35.4102 74.9039 -34.4729 73.9698 -33.3166 73.9698Z" style="fill:var(--sapContent_Illustrative_Color18)"/>
<path d="M-31.5796 76.8041H40.0771C41.1503 76.8041 42.0203 77.6711 42.0203 78.7405V122.356C42.0203 123.425 41.1503 124.292 40.0771 124.292H-31.5796C-32.6528 124.292 -33.5227 123.425 -33.5227 122.356V78.7405C-33.5227 77.6711 -32.6528 76.8041 -31.5796 76.8041Z" style="fill:var(--sapContent_Illustrative_Color7)"/>
<path d="M-46.3116 127.528H52.3148L49.8391 128.53C49.6828 128.592 49.5163 128.625 49.3481 128.627L-43.7779 128.858C-44.0235 128.859 -44.2643 128.791 -44.4727 128.661L-46.3093 127.521L-46.3116 127.528Z" style="fill:var(--sapContent_Illustrative_Color19)"/>
<path d="M-46.3116 127.168C-46.311 126.995 -46.2414 126.828 -46.1182 126.706C-45.9949 126.584 -45.8279 126.515 -45.6539 126.515H51.6571C51.8311 126.515 51.9981 126.584 52.1214 126.706C52.2447 126.828 52.3142 126.995 52.3148 127.168V127.528H-46.3116V127.168Z" style="fill:var(--sapContent_Illustrative_Color18)"/>
<path d="M8.73947 126.494H-2.63437V126.725C-2.63437 126.97 -2.53676 127.205 -2.36303 127.378C-2.1893 127.551 -1.95366 127.648 -1.70797 127.648H7.82002C8.06571 127.648 8.30134 127.551 8.47508 127.378C8.64881 127.205 8.74641 126.97 8.74641 126.725V126.494H8.73947Z" style="fill:var(--sapContent_Illustrative_Color20)"/>
<path d="M4.05196 75.8232C3.77184 75.8232 3.54476 75.5968 3.54476 75.3177C3.54476 75.0385 3.77184 74.8122 4.05196 74.8122C4.33208 74.8122 4.55916 75.0385 4.55916 75.3177C4.55916 75.5968 4.33208 75.8232 4.05196 75.8232Z" style="fill:var(--sapContent_Illustrative_Color19)"/>
<path d="M-31.9141 54.7441L4.81472 42.1339C6.37192 41.5992 8.06674 42.431 8.60019 43.9917L26.9068 97.5491C27.4402 99.1098 26.6103 100.808 25.0531 101.343L-11.6757 113.953C-13.2329 114.488 -14.9277 113.656 -15.4612 112.095L-33.7678 58.538C-34.3012 56.9773 -33.4713 55.2787 -31.9141 54.7441Z" style="fill:var(--sapContent_Illustrative_Color18)"/>
<path fill-rule="evenodd" clip-rule="evenodd" d="M1.44246 61.7647C2.14411 61.8509 2.64306 62.4895 2.55689 63.1912L0.305637 81.5228C0.252513 81.9554 -0.0170813 82.3313 -0.409822 82.5202C-0.802565 82.7092 -1.26447 82.6854 -1.63566 82.4569L-8.3548 78.3221L-10.6344 93.1394C-10.7419 93.8381 -11.3954 94.3173 -12.0941 94.2098C-12.7928 94.1023 -13.2721 93.4488 -13.1646 92.7501L-10.5917 76.0265C-10.5265 75.6025 -10.2533 75.2394 -9.864 75.0594C-9.4747 74.8793 -9.02108 74.9062 -8.65578 75.131L-1.99222 79.2316L0.0159817 62.8791C0.10215 62.1775 0.740805 61.6785 1.44246 61.7647Z" style="fill:var(--sapContent_Illustrative_Color19)"/>
<path d="M-13.1341 95.6372C-13.468 95.7531 -13.8327 95.5765 -13.9487 95.2426L-14.584 93.4137C-14.6999 93.0798 -14.5233 92.7151 -14.1894 92.5991L14.7652 82.5416C15.0991 82.4257 15.4638 82.6023 15.5797 82.9362L16.215 84.7651C16.331 85.099 16.1543 85.4637 15.8204 85.5797L-13.1341 95.6372Z" style="fill:var(--sapContent_Illustrative_Color7)"/>
<path d="M-11.1459 101.596C-11.3833 100.93 -11.0381 100.192 -10.3722 99.9544L3.57494 94.9826C4.24082 94.7452 4.97521 95.0986 5.21258 95.7645C5.44995 96.4304 5.10474 97.1687 4.43886 97.4061L-9.5083 102.378C-10.1742 102.615 -10.9086 102.262 -11.1459 101.596Z" style="fill:var(--sapContent_Illustrative_Color7)"/>
<path d="M141.261 60.9619L104.532 48.3517C102.975 47.817 101.28 48.6488 100.747 50.2095L82.44 103.767C81.9065 105.328 82.7364 107.026 84.2936 107.561L121.022 120.171C122.58 120.706 124.274 119.874 124.808 118.313L143.115 64.7558C143.648 63.1951 142.818 61.4965 141.261 60.9619Z" style="fill:var(--sapContent_Illustrative_Color18)"/>
<path d="M119.232 61.8804C118.02 61.3954 116.691 61.2816 115.414 61.5534C114.137 61.8252 112.969 62.4704 112.057 63.4075C111.146 64.3446 110.532 65.5314 110.294 66.8179C110.056 68.1045 110.203 69.433 110.718 70.6354C111.233 71.8378 112.093 72.8602 113.187 73.5733C114.282 74.2864 115.563 74.6582 116.869 74.6417C118.174 74.6252 119.445 74.221 120.522 73.4804C121.598 72.7398 122.431 71.696 122.916 70.4809L116.781 68.0292L119.232 61.8804Z" style="fill:var(--sapContent_Illustrative_Color7)"/>
<path d="M121.195 60.973L118.749 67.1162L124.878 69.5678C125.2 68.7611 125.36 67.8988 125.349 67.0302C125.338 66.1615 125.156 65.3036 124.814 64.5054C124.472 63.7072 123.976 62.9843 123.355 62.3782C122.734 61.7721 122 61.2946 121.195 60.973Z" style="fill:var(--sapContent_Illustrative_Color19)"/>
<path d="M126.282 82.9467L100.688 74.1594C99.8385 73.8678 98.9143 74.3214 98.6234 75.1724C98.3325 76.0234 98.7851 76.9496 99.6342 77.2411L125.228 86.0284C126.078 86.32 127.002 85.8664 127.293 85.0154C127.583 84.1644 127.131 83.2382 126.282 82.9467Z" style="fill:var(--sapContent_Illustrative_Color7)"/>
<path d="M124.069 88.1583L98.4744 79.371C97.6252 79.0795 96.7011 79.533 96.4102 80.384C96.1193 81.235 96.5719 82.1612 97.421 82.4528L123.015 91.2401C123.864 91.5316 124.788 91.0781 125.079 90.2271C125.37 89.3761 124.918 88.4499 124.069 88.1583Z" style="fill:var(--sapContent_Illustrative_Color7)"/>
<path d="M110.011 89.1712L96.3764 84.4899C95.5272 84.1984 94.6031 84.6519 94.3122 85.5029C94.0213 86.3539 94.4739 87.2801 95.323 87.5716L108.958 92.2529C109.807 92.5445 110.731 92.091 111.022 91.24C111.313 90.389 110.86 89.4628 110.011 89.1712Z" style="fill:var(--sapContent_Illustrative_Color7)"/>
<path d="M80.6042 18.4802H16.6635C12.7891 18.4802 9.64824 21.621 9.64824 25.4954V104.577C9.64824 108.451 12.7891 111.592 16.6635 111.592H80.6042C84.4786 111.592 87.6194 108.451 87.6194 104.577V25.4954C87.6194 21.621 84.4786 18.4802 80.6042 18.4802Z" style="fill:var(--sapContent_Illustrative_Color8)"/>
<path fill-rule="evenodd" clip-rule="evenodd" d="M16.8363 26.0185C16.8363 25.6996 16.9239 25.4441 17.031 25.4441H79.8325C79.9396 25.4441 80.0272 25.6875 80.0272 26.0185V104.055C80.0272 104.374 79.9396 104.63 79.8325 104.63H17.031C16.9239 104.63 16.8363 104.386 16.8363 104.055V26.0185Z" style="fill:var(--sapContent_Illustrative_Color8)"/>
<path d="M33.7221 27.7422H21.3565C20.523 27.7422 19.8473 28.4179 19.8473 29.2514C19.8473 30.0849 20.523 30.7606 21.3565 30.7606H33.7221C34.5556 30.7606 35.2313 30.0849 35.2313 29.2514C35.2313 28.4179 34.5556 27.7422 33.7221 27.7422Z" style="fill:var(--sapContent_Illustrative_Color14)"/>
<path d="M31.5176 69.3855C31.5176 68.6786 32.0907 68.1055 32.7976 68.1055H39.8858C40.5928 68.1055 41.1658 68.6786 41.1658 69.3855V92.9886C41.1658 93.6955 40.5928 94.2686 39.8858 94.2686H32.7976C32.0907 94.2686 31.5176 93.6955 31.5176 92.9886V69.3855Z" style="fill:var(--sapContent_Illustrative_Color18)"/>
<path d="M46.3116 55.2348C46.3116 54.5278 46.8846 53.9548 47.5916 53.9548H54.6798C55.3867 53.9548 55.9598 54.5278 55.9598 55.2348V93.3728C55.9598 94.0797 55.3867 94.6528 54.6798 94.6528H47.5916C46.8846 94.6528 46.3116 94.0797 46.3116 93.3728V55.2348Z" style="fill:var(--sapContent_Illustrative_Color18)"/>
<path d="M61.1055 79.677C61.1055 78.97 61.6786 78.397 62.3855 78.397H69.4738C70.1807 78.397 70.7538 78.97 70.7538 79.677V93.1055C70.7538 93.8124 70.1807 94.3855 69.4738 94.3855H62.3855C61.6786 94.3855 61.1055 93.8124 61.1055 93.1055V79.677Z" style="fill:var(--sapContent_Illustrative_Color18)"/>
<path opacity="0.5" d="M82.3975 80.2179C96.6896 80.2179 108.277 68.483 108.277 53.9831C108.277 39.4833 96.6896 27.7411 82.3975 27.7411C68.1054 27.7411 56.5185 39.4759 56.5185 53.9831C56.5185 68.4904 68.1054 80.2179 82.3975 80.2179Z" style="fill:var(--sapContent_Illustrative_Color7)"/>
<path d="M92.6208 30.7995L82.9503 27.7411L66.7344 75.6853L76.4123 78.7437L92.6208 30.7995Z" style="fill:var(--sapContent_Illustrative_Color8)"/>
<path d="M80.1862 80.2179L96.7116 32.1856L93.7043 31.2322L77.1715 79.2644L80.1862 80.2179Z" style="fill:var(--sapContent_Illustrative_Color8)"/>
<path d="M95.2817 77.3722L88.1983 80.2179L92.724 91.366L99.8001 88.5203L95.2817 77.3722Z" style="fill:var(--sapContent_Illustrative_Color6)"/>
<path d="M92.982 90.4786C92.6222 90.6264 92.3357 90.9099 92.1852 91.2672C92.0347 91.6245 92.0323 92.0265 92.1786 92.3855L102.748 118.283C103.188 119.331 104.028 120.164 105.083 120.598C106.139 121.033 107.324 121.033 108.38 120.6L109.22 120.256C109.751 120.045 110.235 119.731 110.642 119.331C111.05 118.932 111.373 118.456 111.593 117.931C112.028 116.878 112.028 115.698 111.593 114.645L101.024 88.777C100.951 88.5973 100.843 88.4337 100.706 88.2957C100.569 88.1577 100.407 88.048 100.227 87.973C100.047 87.898 99.8548 87.8591 99.66 87.8586C99.4653 87.8582 99.2724 87.8961 99.0924 87.9702L92.982 90.4786Z" style="fill:var(--sapContent_Illustrative_Color3)"/>
<path d="M87.9477 79.6311L88.6848 81.384C88.6848 81.384 92.3702 83.0196 96.262 79.6018L95.0827 76.7928L91.8321 78.3623L87.9477 79.6311Z" style="fill:var(--sapContent_Illustrative_Color4)"/>
<path d="M82.5744 81.1273C76.281 81.1427 70.1771 78.9853 65.3035 75.0232C60.43 71.061 57.0886 65.5393 55.8492 59.3998C54.6097 53.2602 55.549 46.8829 58.5067 41.3554C61.4645 35.8279 66.2576 31.4925 72.0688 29.0883C77.88 26.6842 84.3493 26.3603 90.3736 28.1719C96.398 29.9834 101.604 33.8183 105.105 39.0224C108.605 44.2266 110.183 50.4778 109.569 56.7102C108.955 62.9425 106.188 68.77 101.739 73.199C96.6585 78.2639 89.7658 81.1154 82.5744 81.1273ZM82.5744 29.2666C76.7971 29.2565 71.1952 31.2405 66.7235 34.8803C62.2518 38.5201 59.1872 43.5904 58.0521 49.2269C56.917 54.8635 57.7816 60.7173 60.4986 65.7905C63.2156 70.8636 67.6168 74.8422 72.9519 77.0478C78.287 79.2534 84.2257 79.5496 89.7557 77.8859C95.2857 76.2222 100.065 72.7016 103.278 67.9242C106.491 63.1468 107.94 57.4084 107.377 51.6872C106.814 45.9659 104.274 40.6161 100.191 36.5495C97.8801 34.2423 95.1347 32.4114 92.1118 31.1616C89.0888 29.9119 85.8478 29.2679 82.5744 29.2666Z" style="fill:var(--sapContent_Illustrative_Color4)"/>
<path d="M114.89 25.0035C114.653 24.8751 114.384 24.8131 114.114 24.8241C113.844 24.8351 113.582 24.9187 113.355 25.066L107.872 28.4299C106.965 28.9858 106.936 30.0336 107.372 30.7438C107.54 31.0409 107.799 31.2756 108.112 31.4125C108.425 31.5494 108.774 31.5811 109.106 31.5029C109.266 31.4603 109.418 31.3939 109.557 31.3059L115.041 27.942C115.284 27.7994 115.485 27.5936 115.621 27.3465C115.757 27.0994 115.824 26.8201 115.815 26.5382C115.804 26.2248 115.714 25.9193 115.552 25.6507C115.39 25.3822 115.162 25.1594 114.89 25.0035Z" style="fill:var(--sapContent_Illustrative_Color5)"/>
<path d="M83.1441 10.421C82.9508 10.4309 82.7618 10.481 82.589 10.568C82.4161 10.655 82.2633 10.7771 82.1403 10.9264C82.0173 11.0757 81.9268 11.249 81.8746 11.4352C81.8223 11.6214 81.8095 11.8164 81.8369 12.0078L82.4395 18.2398C82.4619 18.4638 82.5288 18.6811 82.6362 18.8789C82.7436 19.0768 82.8894 19.2512 83.065 19.3921C83.2407 19.5329 83.4427 19.6374 83.6592 19.6994C83.8758 19.7614 84.1025 19.7796 84.3263 19.753C84.4188 19.7446 84.5106 19.7287 84.6005 19.7053C84.9341 19.6238 85.2252 19.4203 85.4162 19.135C85.6073 18.8497 85.6845 18.5033 85.6326 18.1641L85.0287 11.935C85.0067 11.711 84.9401 11.4937 84.833 11.2958C84.7259 11.0979 84.5803 10.9233 84.4048 10.7823C84.2293 10.6413 84.0274 10.5368 83.811 10.4747C83.5945 10.4127 83.3678 10.3944 83.1441 10.421Z" style="fill:var(--sapContent_Illustrative_Color5)"/>
<path d="M100.628 12.2196C100.427 12.285 100.241 12.3906 100.082 12.5301C99.9232 12.6696 99.7945 12.8399 99.7038 13.0307L95.5475 21.5502C95.3632 21.9334 95.3343 22.3728 95.4667 22.7765C95.599 23.1803 95.8825 23.5172 96.2579 23.7168C96.6067 23.9004 97.012 23.9463 97.3934 23.8454C97.6131 23.7868 97.8176 23.6816 97.993 23.537C98.1684 23.3923 98.3106 23.2116 98.4098 23.0071L102.566 14.4876C102.752 14.1025 102.781 13.6606 102.647 13.2547C102.513 12.8489 102.228 12.5107 101.849 12.3113C101.662 12.2146 101.458 12.1566 101.248 12.1408C101.038 12.1251 100.827 12.1519 100.628 12.2196Z" style="fill:var(--sapContent_Illustrative_Color5)"/>
<path fill-rule="evenodd" clip-rule="evenodd" d="M22 48C23.1046 48 24 48.8954 24 50V54.1667C24 55.2712 23.1046 56.1667 22 56.1667C20.8954 56.1667 20 55.2712 20 54.1667V50C20 48.8954 20.8954 48 22 48ZM22 60.5C23.1046 60.5 24 61.3954 24 62.5V70.8333C24 71.9379 23.1046 72.8333 22 72.8333C20.8954 72.8333 20 71.9379 20 70.8333V62.5C20 61.3954 20.8954 60.5 22 60.5ZM22 77.1667C23.1046 77.1667 24 78.0621 24 79.1667V87.5C24 88.6046 23.1046 89.5 22 89.5C20.8954 89.5 20 88.6046 20 87.5L20 79.1667C20 78.0621 20.8954 77.1667 22 77.1667ZM22 93.8333C23.1046 93.8333 24 94.7288 24 95.8333V100C24 101.105 23.1046 102 22 102C20.8954 102 20 101.105 20 100V95.8333C20 94.7288 20.8954 93.8333 22 93.8333Z" style="fill:var(--sapContent_Illustrative_Color6)"/>
<path fill-rule="evenodd" clip-rule="evenodd" d="M20 101C20 99.8954 20.8954 99 22 99H26.1667C27.2712 99 28.1667 99.8954 28.1667 101C28.1667 102.105 27.2712 103 26.1667 103H22C20.8954 103 20 102.105 20 101ZM32.5 101C32.5 99.8954 33.3954 99 34.5 99H42.8333C43.9379 99 44.8333 99.8954 44.8333 101C44.8333 102.105 43.9379 103 42.8333 103H34.5C33.3954 103 32.5 102.105 32.5 101ZM49.1667 101C49.1667 99.8954 50.0621 99 51.1667 99H59.5C60.6046 99 61.5 99.8954 61.5 101C61.5 102.105 60.6046 103 59.5 103H51.1667C50.0621 103 49.1667 102.105 49.1667 101ZM65.8333 101C65.8333 99.8954 66.7288 99 67.8333 99H72C73.1046 99 74 99.8954 74 101C74 102.105 73.1046 103 72 103H67.8333C66.7288 103 65.8333 102.105 65.8333 101Z" style="fill:var(--sapContent_Illustrative_Color6)"/>
</g>
</svg>
