<svg width="320" height="200" viewBox="0 0 320 200" fill="none" xmlns="http://www.w3.org/2000/svg" id="sapIllus-Scene-AddPeople">
<path d="M305.547 6.15619e-06H14.4533C12.5559 -0.00174584 10.6768 0.37047 8.92329 1.09536C7.16981 1.82026 5.57638 2.88362 4.23409 4.22468C2.8918 5.56573 1.82697 7.15817 1.10045 8.91098C0.373942 10.6638 -8.08861e-07 12.5426 0 14.44V185.547C0 189.38 1.52275 193.056 4.23328 195.767C6.9438 198.477 10.6201 200 14.4533 200H305.547C309.38 200 313.056 198.477 315.767 195.767C318.477 193.056 320 189.38 320 185.547V14.44C320 12.5426 319.626 10.6638 318.9 8.91098C318.173 7.15817 317.108 5.56573 315.766 4.22468C314.424 2.88362 312.83 1.82026 311.077 1.09536C309.323 0.37047 307.444 -0.00174584 305.547 6.15619e-06V6.15619e-06Z" fill="var(--sapContent_Illustrative_Color7)"/>
<path d="M224.967 49.3718C223.952 61.1678 221.771 74.5407 212.764 72.8388C201.473 70.7014 203.414 59.6806 204.436 47.8485C205.458 36.0165 207.998 26.4482 216.586 27.1976C224.646 27.8878 225.984 37.5239 224.967 49.3718Z" fill="var(--sapContent_Illustrative_Color19)"/>
<path d="M233.669 39.7201C238.385 35.9513 240.494 30.7505 238.378 28.1037C236.263 25.4569 230.724 26.3663 226.008 30.1351C221.291 33.9038 219.183 39.1047 221.299 41.7515C223.414 44.3983 228.952 43.4888 233.669 39.7201Z" fill="var(--sapContent_Illustrative_Color19)"/>
<path d="M240.367 64.5857C239.059 71.2179 234.871 75.9476 231.003 75.222C221.552 73.4477 224.522 68.4254 226.379 61.8264C228.236 55.2274 231.865 50.515 235.743 51.1901C242.857 52.4209 241.682 57.9174 240.367 64.5857Z" fill="var(--sapContent_Illustrative_Color19)"/>
<path d="M241.684 85.1263L189.803 74.8921C189.189 74.771 188.593 75.1704 188.472 75.7842L181.564 110.807C181.443 111.421 181.842 112.017 182.456 112.138L234.336 122.372C234.95 122.493 235.546 122.094 235.667 121.48L242.576 86.457C242.697 85.8432 242.298 85.2474 241.684 85.1263Z" fill="var(--sapContent_Illustrative_Color18)"/>
<path d="M242.878 78.8841L191.077 68.6656C190.463 68.5445 189.867 68.9439 189.746 69.5577L187.266 82.1293C187.145 82.7431 187.544 83.3388 188.158 83.4599L239.959 93.6785C240.573 93.7995 241.169 93.4001 241.29 92.7863L243.77 80.2147C243.891 79.6009 243.492 79.0052 242.878 78.8841Z" fill="var(--sapContent_Illustrative_Color19)"/>
<path d="M246.97 74.6754L189.308 63.3008C188.694 63.1797 188.098 63.5791 187.977 64.1929L185.259 77.9697C185.138 78.5835 185.538 79.1793 186.152 79.3004L243.814 90.675C244.427 90.7961 245.023 90.3967 245.144 89.7829L247.862 76.0061C247.983 75.3923 247.584 74.7965 246.97 74.6754Z" fill="var(--sapContent_Illustrative_Color18)"/>
<path d="M76.2629 20.2899C75.8923 20.5868 75.6086 20.9781 75.4416 21.4226C75.2746 21.8672 75.2305 22.3485 75.3139 22.816L77.0093 33.9869C77.2888 35.8346 78.966 36.5972 80.4142 36.3778C81.0101 36.3096 81.5678 36.0498 82.0034 35.6374C82.4391 35.2251 82.7291 34.6825 82.83 34.0911C82.8702 33.804 82.8667 33.5124 82.8197 33.2262L81.1243 22.0553C81.06 21.5637 80.864 21.0986 80.557 20.7093C80.2501 20.3199 79.8436 20.0208 79.3806 19.8436C78.8659 19.6463 78.3094 19.5838 77.7638 19.6619C77.2182 19.74 76.7015 19.9562 76.2629 20.2899V20.2899Z" fill="var(--sapContent_Illustrative_Color5)"/>
<path d="M30.9282 61.6805C30.812 61.9999 30.7637 62.34 30.7864 62.6791C30.8091 63.0182 30.9022 63.3489 31.0598 63.65C31.2175 63.951 31.4361 64.2159 31.7019 64.4278C31.9676 64.6396 32.2746 64.7937 32.6033 64.8802L43.1073 68.1657C43.4854 68.2826 43.883 68.3229 44.2768 68.2844C44.6706 68.2459 45.0529 68.1293 45.4011 67.9415C45.7494 67.7536 46.0568 67.4982 46.3053 67.1903C46.5539 66.8823 46.7385 66.5279 46.8486 66.1477C46.8983 65.9923 46.9353 65.833 46.959 65.6715C47.0552 65.076 46.9248 64.466 46.5935 63.9619C46.2623 63.4578 45.7542 63.0961 45.1695 62.948L34.6694 59.6666C34.2916 59.5491 33.8941 59.5082 33.5003 59.5461C33.1065 59.5841 32.7242 59.7003 32.3759 59.8878C32.0275 60.0754 31.72 60.3305 31.4714 60.6383C31.2229 60.9461 31.0382 61.3005 30.9282 61.6805V61.6805Z" fill="var(--sapContent_Illustrative_Color5)"/>
<path d="M45.803 34.6248C45.7713 34.9947 45.8154 35.3672 45.9326 35.7195C46.0498 36.0719 46.2376 36.3966 46.4845 36.6738L57.4365 49.2223C57.9309 49.7824 58.6226 50.1296 59.367 50.1915C60.1114 50.2533 60.8509 50.025 61.4309 49.5542C61.967 49.1154 62.3186 48.4911 62.416 47.8051C62.4715 47.4096 62.4411 47.0068 62.3269 46.6241C62.2127 46.2414 62.0173 45.8879 61.7541 45.5875L50.8021 33.039C50.3054 32.4755 49.6097 32.1264 48.861 32.0652C48.1124 32.004 47.3692 32.2354 46.7876 32.7107C46.503 32.947 46.2692 33.2384 46.1 33.5673C45.9308 33.8962 45.8298 34.2559 45.803 34.6248V34.6248Z" fill="var(--sapContent_Illustrative_Color5)"/>
<path d="M38.6666 161.196C38.6666 159.838 34.7238 158.751 29.4558 158.504C29.1546 153.243 27.9949 149.33 26.6365 149.333C25.2781 149.337 24.1486 153.279 23.8594 158.567C18.5763 158.929 14.6486 160.109 14.6667 161.471C14.6848 162.832 18.6095 163.919 23.8775 164.163C24.1938 169.424 25.3383 173.337 26.6938 173.333C28.0492 173.33 29.1847 169.388 29.4739 164.1C34.757 163.738 38.6816 162.558 38.6666 161.196Z" fill="var(--sapContent_Illustrative_Color18)"/>
<path d="M300 169.242C300 168.337 297.371 167.612 293.859 167.447C293.659 163.94 292.886 161.331 291.98 161.333C291.074 161.336 290.321 163.964 290.129 167.489C286.606 167.73 283.988 168.517 284 169.425C284.012 170.332 286.629 171.057 290.141 171.22C290.351 174.727 291.114 177.336 292.018 177.334C292.922 177.332 293.679 174.703 293.871 171.178C297.394 170.937 300.01 170.15 300 169.242Z" fill="var(--sapContent_Illustrative_Color18)"/>
<path d="M142.667 21.1965C142.667 19.8382 138.724 18.751 133.456 18.504C133.155 13.2426 131.995 9.33049 130.637 9.3335C129.278 9.33651 128.149 13.2788 127.86 18.5673C122.576 18.9287 118.649 20.1093 118.667 21.4705C118.685 22.8318 122.61 23.919 127.878 24.163C128.194 29.4243 129.338 33.3365 130.694 33.3335C132.049 33.3305 133.185 29.3882 133.474 24.0997C138.757 23.7383 142.682 22.5577 142.667 21.1965Z" fill="var(--sapContent_Illustrative_Color18)"/>
<path d="M96.637 145.362L80.3955 78.7401L80.2543 78.7693L78.0099 69.5413L74.4822 70.2727C74.3168 70.3081 74.1603 70.3766 74.0218 70.4739C73.8832 70.5713 73.7655 70.6957 73.6754 70.8398C73.5853 70.9839 73.5247 71.1447 73.4972 71.313C73.4697 71.4812 73.4757 71.6534 73.5151 71.8195L93.0005 151.78C93.0808 152.099 93.2798 152.375 93.556 152.551C93.8322 152.727 94.1646 152.79 94.4843 152.726L197.396 131.388C197.562 131.354 197.719 131.286 197.858 131.189C197.996 131.092 198.114 130.968 198.204 130.823C198.293 130.679 198.353 130.518 198.379 130.349C198.405 130.181 198.396 130.009 198.355 129.843L197.354 125.724L98.1102 146.301C97.7924 146.369 97.4602 146.309 97.1848 146.134C96.9094 145.958 96.7128 145.681 96.637 145.362V145.362Z" fill="var(--sapContent_Illustrative_Color20)"/>
<path d="M185.768 56.8927L80.3955 78.7402L96.637 145.362C96.7128 145.681 96.9095 145.958 97.1849 146.134C97.4603 146.309 97.7925 146.369 98.1102 146.301L201.049 124.958C201.214 124.924 201.37 124.857 201.508 124.76C201.646 124.664 201.764 124.54 201.853 124.397C201.943 124.254 202.003 124.093 202.03 123.926C202.056 123.758 202.049 123.587 202.009 123.422L185.768 56.8927ZM94.8338 83.8709C94.7787 83.6535 94.768 83.4272 94.8023 83.2058C94.8367 82.9843 94.9153 82.7724 95.0334 82.583C95.1516 82.3935 95.3067 82.2303 95.4896 82.1034C95.6724 81.9766 95.8791 81.8886 96.097 81.8449L127.141 75.4084C127.585 75.3162 128.048 75.4061 128.428 75.6581C128.808 75.9102 129.074 76.3038 129.167 76.7524C129.222 76.9698 129.233 77.1961 129.199 77.4175C129.164 77.6389 129.086 77.8508 128.968 78.0403C128.849 78.2298 128.694 78.393 128.511 78.5199C128.328 78.6467 128.122 78.7347 127.904 78.7784L96.8601 85.2149C96.4156 85.3071 95.9526 85.2172 95.5726 84.9652C95.1926 84.7131 94.9268 84.3195 94.8338 83.8709ZM186.951 120.314L108.106 136.661C107.786 136.73 107.452 136.67 107.174 136.493C106.897 136.316 106.699 136.037 106.622 135.715L95.8887 91.665C95.8481 91.4993 95.8412 91.3272 95.8683 91.1589C95.8955 90.9907 95.9562 90.8299 96.0467 90.6862C96.1373 90.5425 96.2558 90.4188 96.3952 90.3227C96.5345 90.2267 96.6918 90.1601 96.8575 90.1271L175.72 73.7762C176.037 73.7077 176.37 73.7677 176.645 73.9431C176.92 74.1186 177.117 74.3957 177.193 74.7149L187.928 118.774C187.964 118.939 187.966 119.108 187.936 119.274C187.905 119.439 187.842 119.596 187.75 119.736C187.658 119.876 187.54 119.997 187.401 120.09C187.263 120.183 187.107 120.247 186.943 120.278L186.951 120.314Z" fill="var(--sapContent_Illustrative_Color19)"/>
<path d="M80.3955 78.74L186.006 56.8431L182.684 43.2146C182.606 42.8942 182.407 42.6166 182.13 42.4401C181.854 42.2637 181.52 42.2023 181.2 42.2688L159.531 46.7616L160.747 51.7369C161.136 51.9288 161.48 52.2041 161.754 52.5435C162.028 52.8828 162.225 53.2781 162.331 53.7017C162.423 54.0593 162.442 54.4317 162.386 54.7962C162.331 55.1608 162.203 55.51 162.01 55.8226C161.817 56.1352 161.563 56.4048 161.263 56.615C160.963 56.8252 160.623 56.9717 160.265 57.0456C159.531 57.1815 158.772 57.027 158.145 56.6142C157.518 56.2014 157.072 55.5619 156.899 54.8281C156.797 54.4244 156.788 54.0029 156.873 53.5959C156.957 53.1889 157.133 52.8072 157.387 52.48L156.162 47.4601L100.98 58.9014L102.201 63.9034C102.586 64.0948 102.926 64.3685 103.196 64.7054C103.466 65.0423 103.66 65.4343 103.765 65.8541C103.855 66.208 103.874 66.5764 103.821 66.9374C103.768 67.2985 103.644 67.6448 103.455 67.9558C103.266 68.2669 103.018 68.5362 102.723 68.748C102.429 68.9598 102.096 69.1097 101.742 69.1888C101.008 69.3224 100.25 69.167 99.6239 68.7545C98.9977 68.3421 98.5511 67.704 98.3759 66.9713C98.2708 66.5622 98.2614 66.1343 98.3482 65.7216C98.435 65.3088 98.6158 64.9224 98.8762 64.5928L97.6551 59.5907L77.9617 63.6739C77.7969 63.7079 77.6408 63.7752 77.5025 63.8716C77.3643 63.968 77.2469 64.0916 77.1573 64.2349C77.0676 64.3783 77.0076 64.5386 76.9809 64.7061C76.9541 64.8736 76.9612 65.045 77.0016 65.21L78.0541 69.5321L80.2985 78.7601L80.3955 78.74Z" fill="var(--sapContent_Illustrative_Color18)"/>
<path d="M101.442 67.5612L101.345 67.5813C100.912 67.669 100.462 67.5844 100.088 67.3452C99.7145 67.106 99.4465 66.7307 99.3401 66.2978L98.9203 64.5836C98.6598 64.9133 98.479 65.2997 98.3922 65.7124C98.3054 66.1252 98.3149 66.553 98.42 66.9621C98.5952 67.6948 99.0418 68.3329 99.6679 68.7454C100.294 69.1578 101.052 69.3132 101.787 69.1796C102.14 69.1006 102.473 68.9507 102.767 68.7389C103.062 68.5271 103.31 68.2577 103.499 67.9467C103.688 67.6356 103.812 67.2893 103.865 66.9282C103.919 66.5672 103.899 66.1988 103.809 65.8449C103.704 65.4251 103.51 65.0331 103.24 64.6962C102.97 64.3593 102.63 64.0856 102.245 63.8943L102.665 65.6085C102.717 65.8184 102.727 66.0367 102.693 66.2502C102.659 66.4636 102.583 66.6678 102.469 66.8503C102.354 67.0329 102.204 67.19 102.028 67.3122C101.851 67.4344 101.652 67.5191 101.442 67.5612Z" fill="var(--sapContent_Illustrative_Color20)"/>
<path d="M159.941 55.3486L159.844 55.3688C159.413 55.4516 158.966 55.3661 158.595 55.1294C158.223 54.8927 157.953 54.5227 157.841 54.0942L157.452 52.4849C157.199 52.8121 157.023 53.1939 156.938 53.6009C156.853 54.0079 156.862 54.4294 156.964 54.8331C157.137 55.5669 157.584 56.2064 158.21 56.6192C158.837 57.032 159.596 57.1864 160.331 57.0505C160.689 56.9767 161.028 56.8302 161.328 56.62C161.628 56.4098 161.882 56.1402 162.075 55.8275C162.269 55.5149 162.397 55.1657 162.452 54.8012C162.507 54.4366 162.489 54.0643 162.397 53.7067C162.29 53.2831 162.093 52.8878 161.819 52.5485C161.545 52.2091 161.202 51.9338 160.812 51.7419L161.21 53.3957C161.263 53.609 161.272 53.831 161.236 54.0476C161.2 54.2642 161.12 54.4708 161.001 54.6543C160.882 54.8378 160.726 54.9943 160.544 55.1138C160.361 55.2333 160.156 55.3133 159.941 55.3486V55.3486Z" fill="var(--sapContent_Illustrative_Color20)"/>
<path d="M99.3401 66.2982C99.4465 66.7311 99.7145 67.1063 100.088 67.3455C100.462 67.5847 100.912 67.6694 101.345 67.5817L101.442 67.5616C101.652 67.5194 101.851 67.4347 102.028 67.3125C102.204 67.1904 102.354 67.0332 102.469 66.8507C102.583 66.6681 102.659 66.464 102.693 66.2505C102.727 66.0371 102.717 65.8188 102.665 65.6088L102.245 63.8946L101.024 58.8925L99.7882 53.8193C99.6819 53.3864 99.4139 53.0111 99.0403 52.7719C98.6667 52.5327 98.2165 52.4481 97.7837 52.5357L97.7307 52.5467C97.5206 52.5889 97.3212 52.6736 97.1447 52.7958C96.9682 52.918 96.8183 53.0751 96.704 53.2576C96.5896 53.4402 96.5133 53.6443 96.4795 53.8578C96.4457 54.0712 96.4552 54.2895 96.5075 54.4995L97.7434 59.5728L98.9644 64.5748L99.3401 66.2982Z" fill="var(--sapContent_Illustrative_Color18)"/>
<path d="M157.841 54.094C157.95 54.5281 158.22 54.904 158.595 55.1442C158.97 55.3844 159.422 55.4704 159.857 55.3846L159.954 55.3645C160.164 55.3224 160.364 55.2373 160.54 55.1144C160.717 54.9916 160.867 54.8335 160.98 54.65C161.094 54.4665 161.169 54.2613 161.201 54.0472C161.233 53.833 161.221 53.6144 161.166 53.4047L160.768 51.7509L159.553 46.7756L158.298 41.6133C158.19 41.1801 157.92 40.8052 157.545 40.5665C157.17 40.3278 156.719 40.2437 156.285 40.3316L156.188 40.3517C155.978 40.3937 155.779 40.4784 155.603 40.6006C155.427 40.7228 155.278 40.8799 155.164 41.0625C155.05 41.245 154.975 41.4491 154.942 41.6623C154.909 41.8755 154.92 42.0934 154.973 42.3026L156.228 47.4649L157.452 52.4848L157.841 54.094Z" fill="var(--sapContent_Illustrative_Color19)"/>
<path d="M176.348 73.8781C175.673 73.8252 174.995 73.8751 174.336 74.0258L98.1995 89.8117C97.5243 89.9376 96.8742 90.1727 96.2742 90.508C95.9635 90.7396 96.0262 92.24 96.2077 92.9823L106.288 134.327C106.439 134.993 106.687 135.633 107.023 136.227C107.25 136.523 108.707 136.499 109.448 136.346L185.585 120.56C186.26 120.432 186.91 120.194 187.508 119.855C187.819 119.623 187.758 118.132 187.575 117.38L177.491 76.018C177.322 75.2917 176.679 73.9672 176.348 73.8781ZM148.824 91.9706C148.463 92.0435 148.086 91.9726 147.774 91.7727C147.462 91.5728 147.238 91.2592 147.148 90.8975L146.663 88.9092C146.619 88.7336 146.611 88.551 146.639 88.3725C146.667 88.1939 146.731 88.0232 146.827 87.8705C146.922 87.7178 147.048 87.5865 147.195 87.4844C147.343 87.3823 147.51 87.3116 147.686 87.2765L150.331 86.7279C150.694 86.6548 151.071 86.7252 151.385 86.9246C151.698 87.124 151.924 87.4372 152.016 87.7992L152.502 89.7876C152.544 89.9631 152.552 90.1453 152.523 90.3234C152.494 90.5015 152.43 90.6717 152.335 90.8241C152.239 90.9764 152.114 91.1077 151.967 91.2102C151.82 91.3126 151.654 91.384 151.479 91.4202L148.824 91.9706ZM152.733 96.0069C153.095 95.9363 153.47 96.0081 153.782 96.2077C154.094 96.4073 154.318 96.7194 154.409 97.08L154.895 99.0683C154.938 99.2438 154.945 99.426 154.916 99.6041C154.887 99.7822 154.823 99.9525 154.728 100.105C154.633 100.257 154.508 100.388 154.361 100.491C154.214 100.593 154.048 100.665 153.872 100.701L151.227 101.25C150.865 101.32 150.49 101.248 150.178 101.049C149.866 100.849 149.642 100.537 149.551 100.176L149.065 98.1881C149.022 98.0126 149.015 97.8304 149.044 97.6523C149.073 97.4742 149.137 97.3039 149.232 97.1516C149.328 96.9992 149.452 96.8679 149.599 96.7655C149.746 96.6631 149.913 96.5916 150.088 96.5554L152.733 96.0069ZM151.358 107.118C151.314 106.943 151.306 106.76 151.334 106.582C151.362 106.403 151.426 106.232 151.522 106.08C151.617 105.927 151.743 105.796 151.891 105.693C152.038 105.591 152.205 105.521 152.381 105.486L155.027 104.937C155.388 104.866 155.763 104.938 156.075 105.138C156.387 105.337 156.611 105.65 156.702 106.01L157.188 107.998C157.231 108.174 157.238 108.356 157.209 108.534C157.18 108.712 157.117 108.883 157.021 109.035C156.926 109.187 156.801 109.319 156.654 109.421C156.507 109.523 156.341 109.595 156.165 109.631L153.52 110.18C153.158 110.25 152.783 110.178 152.471 109.979C152.159 109.779 151.935 109.467 151.844 109.107L151.358 107.118ZM138.184 94.0654C137.821 94.1386 137.444 94.0682 137.13 93.8687C136.817 93.6693 136.591 93.3561 136.499 92.9941L136.013 91.0058C135.969 90.8298 135.961 90.6468 135.989 90.4678C136.017 90.2888 136.081 90.1174 136.176 89.9641C136.271 89.8108 136.397 89.6786 136.544 89.5755C136.692 89.4724 136.858 89.4005 137.034 89.3642L139.68 88.8156C140.044 88.7445 140.422 88.8169 140.735 89.0178C141.049 89.2187 141.275 89.5329 141.367 89.8958L141.844 91.886C141.887 92.0608 141.896 92.2426 141.868 92.4204C141.84 92.5983 141.777 92.7685 141.682 92.9208C141.588 93.0732 141.463 93.2045 141.317 93.3069C141.17 93.4093 141.004 93.4807 140.83 93.5168L138.184 94.0654ZM142.035 98.0859C142.397 98.0127 142.774 98.0831 143.088 98.2825C143.402 98.482 143.628 98.7951 143.719 99.1572L144.205 101.146C144.249 101.322 144.257 101.504 144.229 101.683C144.201 101.862 144.138 102.034 144.042 102.187C143.947 102.34 143.822 102.473 143.674 102.576C143.527 102.679 143.36 102.751 143.184 102.787L140.538 103.336C140.174 103.407 139.797 103.334 139.483 103.133C139.169 102.933 138.943 102.618 138.852 102.255L138.375 100.265C138.331 100.09 138.323 99.9087 138.35 99.7308C138.378 99.553 138.441 99.3828 138.536 99.2305C138.631 99.0781 138.755 98.9468 138.902 98.8444C139.048 98.7419 139.214 98.6705 139.389 98.6344L142.035 98.0859ZM140.659 109.197C140.615 109.022 140.607 108.841 140.635 108.663C140.662 108.485 140.726 108.315 140.82 108.162C140.915 108.01 141.039 107.879 141.186 107.776C141.332 107.674 141.498 107.603 141.673 107.566L144.319 107.018C144.681 106.947 145.057 107.018 145.37 107.217C145.684 107.416 145.91 107.728 146.003 108.089L146.489 110.077C146.533 110.253 146.541 110.436 146.513 110.614C146.485 110.793 146.421 110.963 146.325 111.116C146.23 111.269 146.104 111.4 145.957 111.502C145.809 111.604 145.642 111.675 145.466 111.71L142.821 112.259C142.458 112.332 142.081 112.261 141.767 112.062C141.454 111.863 141.228 111.549 141.136 111.187L140.659 109.197ZM127.729 96.2144C127.367 96.2853 126.991 96.214 126.678 96.0149C126.365 95.8158 126.138 95.504 126.045 95.1431L125.568 93.1529C125.523 92.9777 125.513 92.7951 125.54 92.6163C125.567 92.4376 125.63 92.2663 125.725 92.113C125.819 91.9597 125.944 91.8274 126.091 91.7243C126.238 91.6212 126.404 91.5494 126.58 91.5132L129.226 90.9647C129.59 90.8913 129.968 90.9627 130.283 91.1639C130.597 91.3652 130.822 91.6808 130.912 92.0448L131.398 94.0332C131.44 94.2087 131.448 94.3909 131.419 94.569C131.39 94.7471 131.326 94.9174 131.231 95.0697C131.135 95.2221 131.01 95.3534 130.863 95.4558C130.716 95.5582 130.55 95.6297 130.375 95.6659L127.729 96.2144ZM131.58 100.235C131.943 100.162 132.32 100.232 132.633 100.432C132.947 100.631 133.173 100.944 133.265 101.306L133.75 103.295C133.794 103.471 133.803 103.654 133.775 103.833C133.747 104.012 133.683 104.183 133.588 104.336C133.492 104.49 133.367 104.622 133.22 104.725C133.072 104.828 132.905 104.9 132.729 104.936L130.084 105.485C129.721 105.555 129.344 105.483 129.032 105.281C128.719 105.08 128.495 104.765 128.406 104.403L127.92 102.414C127.876 102.239 127.868 102.056 127.896 101.878C127.924 101.699 127.988 101.528 128.084 101.376C128.18 101.223 128.305 101.092 128.453 100.99C128.6 100.887 128.767 100.817 128.943 100.782L131.58 100.235ZM130.204 111.346C130.161 111.171 130.152 110.988 130.181 110.81C130.209 110.631 130.273 110.46 130.368 110.308C130.464 110.155 130.589 110.024 130.737 109.921C130.885 109.819 131.051 109.749 131.227 109.714L133.873 109.165C134.236 109.092 134.613 109.162 134.927 109.362C135.24 109.561 135.466 109.874 135.558 110.236L136.043 112.225C136.087 112.4 136.096 112.583 136.067 112.761C136.039 112.94 135.975 113.111 135.88 113.263C135.784 113.416 135.659 113.547 135.511 113.65C135.363 113.752 135.196 113.822 135.021 113.857L132.375 114.406C132.013 114.479 131.637 114.408 131.325 114.208C131.012 114.008 130.788 113.694 130.699 113.333L130.204 111.346ZM117.146 98.3624C116.783 98.4355 116.406 98.3651 116.092 98.1657C115.779 97.9663 115.553 97.6531 115.461 97.2911L114.975 95.3027C114.933 95.1272 114.926 94.945 114.954 94.7669C114.983 94.5888 115.047 94.4186 115.142 94.2662C115.238 94.1139 115.363 93.9826 115.51 93.8801C115.657 93.7777 115.823 93.7063 115.998 93.6701L118.644 93.1215C119.006 93.0486 119.382 93.1195 119.694 93.3194C120.006 93.5194 120.231 93.8329 120.32 94.1946L120.806 96.183C120.849 96.3585 120.858 96.5411 120.829 96.7197C120.801 96.8982 120.737 97.069 120.642 97.2216C120.546 97.3743 120.421 97.5057 120.273 97.6078C120.125 97.7099 119.959 97.7806 119.783 97.8156L117.146 98.3624ZM120.996 102.383C121.36 102.312 121.738 102.384 122.052 102.585C122.365 102.786 122.591 103.1 122.683 103.463L123.169 105.451C123.211 105.627 123.219 105.809 123.19 105.987C123.161 106.165 123.097 106.336 123.002 106.488C122.906 106.64 122.781 106.772 122.634 106.874C122.487 106.976 122.321 107.048 122.146 107.084L119.5 107.633C119.138 107.704 118.762 107.632 118.449 107.433C118.135 107.234 117.909 106.922 117.816 106.561L117.33 104.573C117.286 104.397 117.277 104.214 117.305 104.035C117.333 103.856 117.397 103.685 117.492 103.531C117.588 103.378 117.713 103.246 117.86 103.143C118.008 103.04 118.175 102.968 118.351 102.931L120.996 102.383ZM119.621 113.494C119.578 113.319 119.571 113.136 119.6 112.958C119.629 112.78 119.693 112.61 119.788 112.458C119.883 112.305 120.008 112.174 120.155 112.072C120.302 111.969 120.469 111.898 120.644 111.862L123.29 111.313C123.652 111.242 124.028 111.313 124.341 111.513C124.654 111.712 124.881 112.023 124.974 112.384L125.46 114.373C125.504 114.549 125.512 114.732 125.484 114.911C125.456 115.09 125.393 115.261 125.297 115.414C125.202 115.568 125.077 115.7 124.929 115.803C124.782 115.906 124.615 115.978 124.439 116.014L121.793 116.563C121.429 116.634 121.052 116.561 120.738 116.361C120.424 116.16 120.198 115.845 120.107 115.483L119.621 113.494ZM106.753 100.499C106.39 100.569 106.014 100.498 105.701 100.299C105.388 100.1 105.162 99.7882 105.068 99.4273L104.591 97.4371C104.548 97.2623 104.539 97.0805 104.567 96.9027C104.595 96.7248 104.658 96.5546 104.753 96.4023C104.847 96.25 104.972 96.1186 105.118 96.0162C105.265 95.9138 105.431 95.8424 105.605 95.8063L108.251 95.2577C108.614 95.1868 108.99 95.2582 109.303 95.4573C109.616 95.6564 109.842 95.9681 109.936 96.329L110.422 98.3174C110.464 98.4929 110.471 98.6751 110.443 98.8531C110.414 99.0312 110.35 99.2015 110.254 99.3539C110.159 99.5062 110.034 99.6375 109.887 99.7399C109.74 99.8424 109.574 99.9138 109.399 99.95L106.753 100.499ZM110.604 104.519C110.968 104.446 111.346 104.517 111.661 104.718C111.975 104.92 112.2 105.235 112.29 105.599L112.776 107.588C112.818 107.763 112.826 107.945 112.797 108.123C112.768 108.301 112.704 108.472 112.609 108.624C112.513 108.776 112.388 108.908 112.241 109.01C112.094 109.113 111.928 109.184 111.753 109.22L109.107 109.769C108.746 109.839 108.371 109.768 108.059 109.568C107.747 109.368 107.523 109.056 107.432 108.696L106.946 106.707C106.9 106.531 106.891 106.348 106.919 106.169C106.946 105.989 107.009 105.817 107.105 105.664C107.2 105.51 107.326 105.378 107.474 105.275C107.622 105.172 107.79 105.101 107.967 105.066L110.604 104.519ZM109.228 115.63C109.184 115.455 109.176 115.272 109.204 115.094C109.232 114.915 109.296 114.744 109.392 114.592C109.488 114.439 109.613 114.308 109.761 114.206C109.908 114.104 110.075 114.033 110.251 113.998L112.897 113.449C113.259 113.376 113.637 113.446 113.95 113.646C114.264 113.845 114.49 114.158 114.581 114.521L115.067 116.509C115.111 116.685 115.119 116.868 115.091 117.047C115.063 117.226 115 117.397 114.904 117.55C114.809 117.704 114.684 117.836 114.536 117.939C114.389 118.042 114.222 118.114 114.046 118.15L111.4 118.699C111.037 118.77 110.661 118.697 110.348 118.495C110.036 118.294 109.812 117.98 109.723 117.617L109.228 115.63ZM165.433 102.779C165.796 102.706 166.173 102.777 166.487 102.976C166.8 103.175 167.026 103.489 167.118 103.851L167.604 105.839C167.646 106.014 167.654 106.197 167.625 106.375C167.596 106.553 167.532 106.723 167.437 106.875C167.341 107.028 167.216 107.159 167.069 107.262C166.922 107.364 166.756 107.435 166.581 107.472L163.935 108.02C163.573 108.091 163.197 108.02 162.884 107.821C162.57 107.622 162.344 107.31 162.251 106.949L161.774 104.959C161.73 104.784 161.722 104.602 161.749 104.424C161.777 104.246 161.84 104.076 161.935 103.924C162.03 103.772 162.154 103.64 162.301 103.538C162.447 103.435 162.613 103.364 162.788 103.328L165.433 102.779ZM161.633 99.0919C161.271 99.1648 160.895 99.0938 160.583 98.8939C160.271 98.694 160.047 98.3804 159.957 98.0187L159.472 96.0304C159.428 95.8548 159.42 95.6722 159.448 95.4937C159.476 95.3152 159.54 95.1444 159.635 94.9917C159.731 94.8391 159.856 94.7077 160.004 94.6056C160.152 94.5035 160.319 94.4328 160.495 94.3977L163.14 93.8491C163.503 93.776 163.88 93.8464 164.194 94.0458C164.507 94.2453 164.733 94.5584 164.825 94.9204L165.311 96.9088C165.353 97.0843 165.36 97.2665 165.332 97.4446C165.303 97.6227 165.239 97.793 165.144 97.9453C165.048 98.0977 164.923 98.229 164.776 98.3314C164.629 98.4338 164.463 98.5053 164.288 98.5415L161.633 99.0919ZM160.777 84.5807C161.139 84.5098 161.516 84.5812 161.829 84.7803C162.142 84.9794 162.368 85.2911 162.462 85.652L162.948 87.6404C162.99 87.8159 162.997 87.9981 162.968 88.1762C162.94 88.3543 162.876 88.5245 162.78 88.6769C162.685 88.8292 162.56 88.9606 162.413 89.063C162.266 89.1654 162.1 89.2368 161.925 89.273L159.279 89.8216C158.916 89.8925 158.54 89.8211 158.227 89.6221C157.914 89.423 157.688 89.1112 157.594 88.7503L157.108 86.762C157.066 86.5865 157.059 86.4042 157.087 86.2262C157.116 86.0481 157.18 85.8778 157.276 85.7255C157.371 85.5731 157.496 85.4418 157.643 85.3394C157.79 85.237 157.956 85.1655 158.131 85.1293L160.777 84.5807ZM113.662 127.654C113.3 127.725 112.925 127.653 112.613 127.453C112.302 127.254 112.077 126.942 111.986 126.581L111.5 124.593C111.456 124.417 111.448 124.235 111.476 124.056C111.505 123.878 111.568 123.707 111.664 123.554C111.76 123.401 111.885 123.27 112.033 123.168C112.18 123.066 112.347 122.995 112.523 122.96L115.169 122.412C115.531 122.338 115.909 122.409 116.222 122.608C116.536 122.808 116.762 123.121 116.854 123.483L117.339 125.471C117.382 125.647 117.389 125.829 117.36 126.007C117.332 126.185 117.268 126.355 117.172 126.508C117.077 126.66 116.952 126.791 116.805 126.894C116.658 126.996 116.492 127.068 116.317 127.104L113.662 127.654ZM124.095 125.491C123.733 125.562 123.357 125.491 123.043 125.291C122.73 125.092 122.504 124.781 122.41 124.42L121.925 122.431C121.882 122.256 121.875 122.074 121.904 121.896C121.932 121.718 121.996 121.547 122.092 121.395C122.187 121.243 122.312 121.111 122.459 121.009C122.606 120.906 122.772 120.835 122.947 120.799L125.593 120.25C125.956 120.179 126.332 120.251 126.645 120.45C126.958 120.649 127.184 120.961 127.278 121.321L127.764 123.31C127.806 123.485 127.813 123.668 127.785 123.846C127.756 124.024 127.692 124.194 127.596 124.346C127.501 124.499 127.376 124.63 127.229 124.732C127.082 124.835 126.916 124.906 126.741 124.942L124.095 125.491ZM134.687 123.341C134.326 123.412 133.951 123.34 133.639 123.14C133.327 122.941 133.103 122.629 133.012 122.268L132.526 120.28C132.482 120.104 132.474 119.922 132.502 119.743C132.53 119.565 132.594 119.394 132.69 119.241C132.785 119.089 132.911 118.957 133.058 118.855C133.206 118.753 133.373 118.682 133.549 118.647L136.194 118.099C136.557 118.025 136.934 118.096 137.248 118.295C137.562 118.495 137.787 118.808 137.879 119.17L138.365 121.158C138.407 121.334 138.415 121.516 138.386 121.694C138.357 121.872 138.293 122.042 138.198 122.195C138.102 122.347 137.977 122.478 137.83 122.581C137.683 122.683 137.517 122.755 137.342 122.791L134.687 123.341ZM145.121 121.178C144.758 121.249 144.382 121.178 144.069 120.979C143.756 120.779 143.529 120.468 143.436 120.107L142.959 118.117C142.915 117.942 142.907 117.76 142.935 117.582C142.963 117.404 143.026 117.234 143.12 117.082C143.215 116.93 143.339 116.798 143.486 116.696C143.632 116.593 143.798 116.522 143.973 116.486L146.619 115.937C146.981 115.866 147.357 115.938 147.67 116.137C147.984 116.336 148.21 116.648 148.303 117.009L148.789 118.997C148.832 119.172 148.839 119.355 148.81 119.533C148.782 119.711 148.718 119.881 148.622 120.033C148.527 120.186 148.402 120.317 148.255 120.419C148.108 120.522 147.942 120.593 147.766 120.63L145.121 121.178ZM155.798 119.085C155.437 119.156 155.061 119.084 154.75 118.884C154.438 118.684 154.214 118.372 154.123 118.012L153.637 116.023C153.594 115.848 153.587 115.666 153.616 115.488C153.644 115.31 153.708 115.139 153.804 114.987C153.899 114.835 154.024 114.703 154.171 114.601C154.318 114.498 154.484 114.427 154.659 114.391L157.305 113.842C157.667 113.772 158.042 113.844 158.354 114.043C158.665 114.243 158.89 114.555 158.981 114.915L159.467 116.904C159.51 117.079 159.517 117.261 159.488 117.44C159.459 117.618 159.395 117.788 159.3 117.94C159.204 118.093 159.079 118.224 158.932 118.326C158.785 118.429 158.619 118.5 158.444 118.536L155.798 119.085ZM166.771 84.7401C166.728 84.5646 166.721 84.3824 166.75 84.2043C166.778 84.0262 166.842 83.8559 166.938 83.7036C167.033 83.5512 167.158 83.4199 167.305 83.3175C167.452 83.2151 167.618 83.1436 167.794 83.1074L170.439 82.5588C170.802 82.4879 171.178 82.5593 171.491 82.7584C171.804 82.9575 172.03 83.2693 172.124 83.6301L172.61 85.6185C172.654 85.7945 172.662 85.9775 172.634 86.1565C172.606 86.3355 172.542 86.5068 172.447 86.6601C172.352 86.8134 172.226 86.9456 172.079 87.0487C171.931 87.1518 171.765 87.2237 171.589 87.2601L168.943 87.8086C168.579 87.8797 168.201 87.8073 167.888 87.6064C167.574 87.4055 167.348 87.0913 167.256 86.7284L166.771 84.7401ZM169.134 94.0085C169.09 93.8329 169.082 93.6503 169.11 93.4718C169.138 93.2933 169.202 93.1225 169.298 92.9698C169.393 92.8171 169.519 92.6858 169.666 92.5837C169.814 92.4816 169.981 92.4109 170.157 92.3758L172.802 91.8273C173.165 91.7541 173.542 91.8245 173.856 92.0239C174.17 92.2234 174.396 92.5365 174.487 92.8986L174.973 94.8869C175.016 95.0624 175.023 95.2446 174.994 95.4227C174.965 95.6008 174.901 95.771 174.806 95.9234C174.71 96.0757 174.585 96.2071 174.438 96.3095C174.291 96.4119 174.125 96.4834 173.95 96.5196L171.304 97.0682C170.943 97.1387 170.568 97.0668 170.256 96.8672C169.944 96.6677 169.72 96.3556 169.629 95.995L169.134 94.0085ZM173.597 105.998C173.236 106.071 172.859 106 172.547 105.8C172.235 105.6 172.011 105.287 171.922 104.925L171.436 102.937C171.392 102.761 171.384 102.579 171.412 102.4C171.44 102.222 171.504 102.051 171.6 101.898C171.695 101.745 171.821 101.614 171.968 101.512C172.116 101.41 172.283 101.339 172.459 101.304L175.104 100.756C175.467 100.682 175.844 100.753 176.158 100.952C176.471 101.152 176.697 101.465 176.789 101.827L177.275 103.815C177.317 103.991 177.325 104.173 177.296 104.351C177.267 104.529 177.203 104.699 177.108 104.852C177.012 105.004 176.887 105.135 176.74 105.238C176.593 105.34 176.427 105.412 176.252 105.448L173.597 105.998Z" fill="var(--sapContent_Illustrative_Color7)"/>
<path d="M96.9057 85.1681L127.897 78.7425C128.115 78.6988 128.321 78.6109 128.504 78.484C128.687 78.3571 128.842 78.194 128.96 78.0045C129.078 77.815 129.157 77.6031 129.191 77.3817C129.226 77.1603 129.215 76.9339 129.16 76.7165V76.7165C129.043 76.2646 128.758 75.8749 128.364 75.6281C127.97 75.3813 127.498 75.2963 127.045 75.3908L96.0632 81.8145C95.8453 81.8582 95.6387 81.9462 95.4559 82.073C95.2731 82.1999 95.1178 82.3631 94.9996 82.5526C94.8815 82.7421 94.8029 82.954 94.7685 83.1754C94.7342 83.3968 94.7449 83.6231 94.8 83.8405V83.8405C94.9169 84.2909 95.2004 84.6796 95.5921 84.9266C95.9838 85.1735 96.454 85.2599 96.9057 85.1681Z" fill="var(--sapContent_Illustrative_Color7)"/>
<path d="M237.978 125.656C237.978 153.816 215.149 176.645 186.989 176.645C158.829 176.645 136 153.816 136 125.656C136 97.4951 158.829 74.6665 186.989 74.6665C215.149 74.6665 237.978 97.4951 237.978 125.656Z" fill="var(--sapContent_Illustrative_Color9)"/>
<path d="M186.989 120.852C194.24 120.852 200.118 114.974 200.118 107.722C200.118 100.471 194.24 94.5933 186.989 94.5933C179.738 94.5933 173.86 100.471 173.86 107.722C173.86 114.974 179.738 120.852 186.989 120.852Z" fill="var(--sapContent_Illustrative_Color17)"/>
<path d="M186.989 125.666C193.051 125.666 198.865 128.074 203.151 132.361C207.438 136.647 209.846 142.461 209.846 148.523V156.636H164.132V148.523C164.132 142.461 166.54 136.647 170.827 132.361C175.113 128.074 180.927 125.666 186.989 125.666V125.666Z" fill="var(--sapContent_Illustrative_Color17)"/>
<path d="M141.333 182.667C157.534 182.667 170.667 169.534 170.667 153.333C170.667 137.133 157.534 124 141.333 124C125.133 124 112 137.133 112 153.333C112 169.534 125.133 182.667 141.333 182.667Z" fill="var(--sapContent_Illustrative_Color3)"/>
<path d="M141.344 137.36H141.334C139.144 137.36 137.37 139.135 137.37 141.324V165.344C137.37 167.533 139.144 169.307 141.334 169.307H141.344C143.533 169.307 145.308 167.533 145.308 165.344V141.324C145.308 139.135 143.533 137.36 141.344 137.36Z" fill="var(--sapContent_Illustrative_Color8)"/>
<path d="M126.04 152.881V153.777C126.04 155.722 127.616 157.298 129.561 157.298H153.138C155.082 157.298 156.659 155.722 156.659 153.777V152.881C156.659 150.936 155.082 149.36 153.138 149.36H129.561C127.616 149.36 126.04 150.936 126.04 152.881Z" fill="var(--sapContent_Illustrative_Color8)"/>
</svg>
