<svg width="303" height="240" viewBox="0 0 303 240" fill="none" xmlns="http://www.w3.org/2000/svg" id="sapIllus-Scene-SuccessHighFive">
<path d="M288.981 50.8438H13.6697C11.8752 50.8421 10.0979 51.1941 8.43949 51.8797C6.78108 52.5653 5.27404 53.571 4.00453 54.8394C2.73501 56.1077 1.72791 57.6138 1.04079 59.2716C0.353668 60.9294 -7.65006e-07 62.7063 0 64.5009V226.331C0 229.956 1.44019 233.433 4.00376 235.996C6.56733 238.56 10.0443 240 13.6697 240H288.981C292.606 240 296.083 238.56 298.647 235.996C301.21 233.433 302.65 229.956 302.65 226.331V64.5009C302.65 62.7063 302.297 60.9294 301.61 59.2716C300.923 57.6138 299.915 56.1077 298.646 54.8394C297.376 53.571 295.869 52.5653 294.211 51.8797C292.553 51.1941 290.775 50.8421 288.981 50.8438V50.8438Z" fill="var(--sapContent_Illustrative_Color7)"/>
<path fill-rule="evenodd" clip-rule="evenodd" d="M185.585 13.8609C186.68 13.5197 187.866 13.6273 188.881 14.1602C189.896 14.6931 190.659 15.6075 191 16.7023L208.606 73.1945L210.991 73.4737L214.829 58.0385C215.694 54.5628 217.857 51.5504 220.874 49.6204C223.891 47.6903 227.533 46.9893 231.051 47.6614C231.243 47.698 231.426 47.7722 231.59 47.8798C231.754 47.9873 231.895 48.126 232.005 48.288C232.115 48.45 232.192 48.6321 232.232 48.8239C232.271 49.0157 232.273 49.2134 232.236 49.4058L220.856 109.146C220.778 109.803 220.641 110.451 220.448 111.083L245.871 140.586L193.068 145.357L184.289 130.723C182.422 130.416 180.593 129.895 178.837 129.167C175.836 127.924 173.109 126.101 170.812 123.803C168.515 121.506 166.693 118.778 165.45 115.776C164.208 112.774 163.569 109.557 163.57 106.308V98.8497C162.974 98.2279 162.509 97.4622 162.235 96.584L149.028 54.2082C148.084 51.1776 149.773 47.9556 152.802 47.0117C153.341 46.8438 153.886 46.7593 154.423 46.7509L151.465 37.2603C150.521 34.2297 152.21 31.0077 155.239 30.0639C156.365 29.7129 157.517 29.7263 158.569 30.0373C158.484 27.5159 160.078 25.1475 162.602 24.361C165.63 23.4171 168.851 25.1087 169.796 28.1393L170.104 29.1276C170.803 28.1923 171.792 27.4609 172.992 27.087C174.804 26.5222 176.686 26.9011 178.107 27.946C177.691 26.5622 177.544 25.1112 177.673 23.6712C177.806 22.1875 178.23 20.7446 178.921 19.4248C179.612 18.1051 180.556 16.9344 181.699 15.9797C182.843 15.025 184.163 14.305 185.585 13.8609Z" fill="var(--sapContent_Illustrative_Color19)"/>
<path fill-rule="evenodd" clip-rule="evenodd" d="M206.086 76.2513C206.387 77.0181 206.008 77.883 205.241 78.183C198.775 80.7135 196.161 85.031 195.684 86.5579C195.439 87.3438 194.603 87.7818 193.817 87.5362C193.031 87.2906 192.593 86.4544 192.838 85.6684C193.604 83.2193 196.905 78.2432 204.155 75.4061C204.922 75.1061 205.786 75.4845 206.086 76.2513Z" fill="var(--sapContent_Illustrative_Color14)"/>
<path fill-rule="evenodd" clip-rule="evenodd" d="M193.688 64.7221C192.169 65.2043 189.987 66.0206 187.045 67.3444C186.295 67.6824 185.412 67.3476 185.074 66.5966C184.736 65.8457 185.071 64.9631 185.822 64.6252C188.844 63.2653 191.135 62.4042 192.785 61.8801C194.372 61.376 195.499 61.1392 196.125 61.1392C196.948 61.1392 197.616 61.8067 197.616 62.6301C197.616 63.4536 196.948 64.1211 196.125 64.1211C196.125 64.1211 196.125 64.1211 196.124 64.1211C196.117 64.1215 196.064 64.1239 195.951 64.1401C195.83 64.1573 195.666 64.1867 195.455 64.2332C195.031 64.3261 194.447 64.4808 193.688 64.7221Z" fill="var(--sapContent_Illustrative_Color14)"/>
<path fill-rule="evenodd" clip-rule="evenodd" d="M179.366 26.8912C180.166 26.6934 180.974 27.181 181.172 27.9804L190.117 64.1363C190.315 64.9357 189.828 65.744 189.028 65.9418C188.229 66.1395 187.421 65.6519 187.223 64.8525L178.277 28.6966C178.079 27.8973 178.567 27.0889 179.366 26.8912Z" fill="var(--sapContent_Illustrative_Color14)"/>
<path fill-rule="evenodd" clip-rule="evenodd" d="M185 130.404C185.274 129.627 186.125 129.219 186.902 129.492C188.736 130.138 193.416 130.864 197.201 128.743C197.92 128.34 198.828 128.596 199.231 129.315C199.633 130.033 199.377 130.942 198.659 131.344C193.833 134.048 188.172 133.1 185.912 132.305C185.135 132.032 184.727 131.181 185 130.404Z" fill="var(--sapContent_Illustrative_Color14)"/>
<path fill-rule="evenodd" clip-rule="evenodd" d="M159.515 0.0546504C163.779 0.559383 166.827 4.42558 166.323 8.69004L160.731 55.9362H161.639L166.377 15.8981C166.792 12.3982 169.965 9.89679 173.465 10.311C176.964 10.7253 179.466 13.8983 179.052 17.3982L174.49 55.9362H174.938L177.45 38.7002C177.926 35.4327 180.961 33.1699 184.228 33.646C187.496 34.122 189.758 37.1568 189.282 40.4243L184.078 76.1424V77.138C184.124 92.7694 178.755 107.934 168.882 120.053C159.01 132.173 145.244 140.498 129.926 143.613L126.199 144.358C125.533 144.497 124.844 144.482 124.184 144.315C123.525 144.147 122.912 143.832 122.393 143.392C121.874 142.952 121.462 142.399 121.189 141.776C120.916 141.153 120.788 140.476 120.816 139.796L121.973 109.479C121.797 109.298 121.629 109.107 121.472 108.907C120.777 108.025 120.292 106.996 120.056 105.898L110.663 47.8847C110.561 47.2558 110.591 46.6125 110.75 45.9956C110.909 45.3787 111.195 44.8016 111.589 44.3006C111.982 43.7997 112.476 43.3859 113.037 43.0853C113.599 42.7848 114.217 42.604 114.852 42.5545C117.664 42.3348 120.453 43.2056 122.64 44.9863C124.828 46.7669 126.246 49.321 126.601 52.1191L129.194 72.5708L130.104 72.5724C129.92 71.9266 129.822 71.2448 129.822 70.5401V13.682C129.822 9.59366 133.136 6.27938 137.224 6.27938C141.313 6.27938 144.627 9.59366 144.627 13.682V55.9362H145.071L150.88 6.86224C151.384 2.59778 155.25 -0.450082 159.515 0.0546504Z" fill="var(--sapContent_Illustrative_Color3)"/>
<mask id="mask0_671_9660" class="sapIllus_MaskTypeAlpha" maskUnits="userSpaceOnUse" x="0" y="50" width="303" height="191">
<path d="M288.981 50.8438H13.6697C11.8752 50.8421 10.0979 51.1941 8.43949 51.8797C6.78108 52.5653 5.27404 53.571 4.00453 54.8394C2.73501 56.1077 1.72791 57.6138 1.04079 59.2716C0.353668 60.9294 -7.65006e-07 62.7063 0 64.5009V226.331C0 229.956 1.44019 233.433 4.00376 235.996C6.56733 238.56 10.0443 240 13.6697 240H288.981C292.606 240 296.083 238.56 298.647 235.996C301.21 233.433 302.65 229.956 302.65 226.331V64.5009C302.65 62.7063 302.297 60.9294 301.61 59.2716C300.923 57.6138 299.915 56.1077 298.646 54.8394C297.376 53.571 295.869 52.5653 294.211 51.8797C292.553 51.1941 290.775 50.8421 288.981 50.8438V50.8438Z" fill="var(--sapContent_Illustrative_Color7)"/>
</mask>
<g mask="url(#mask0_671_9660)">
<path d="M59.6493 286.239L16.9331 240.705C13.2519 236.785 11.2508 231.58 11.3581 226.204C11.4654 220.827 13.6724 215.706 17.5071 211.936L117.119 113.943C120.579 110.548 124.959 108.245 129.717 107.317C134.474 106.389 139.4 106.879 143.882 108.724V108.724C146.692 109.883 149.236 111.603 151.36 113.778C153.483 115.954 155.14 118.539 156.231 121.377C157.321 124.214 157.822 127.244 157.702 130.282C157.582 133.319 156.844 136.3 155.533 139.043L86.9788 282.012C85.8015 284.468 84.0432 286.6 81.8564 288.224C79.6695 289.847 77.1199 290.913 74.4283 291.329C71.7366 291.746 68.9841 291.5 66.4089 290.613C63.8338 289.726 61.5136 288.224 59.6493 286.239V286.239Z" fill="var(--sapContent_Illustrative_Color17)"/>
<path d="M151.679 155.861C149.189 132.005 125.051 108.702 102.82 122.12L-12.6105 233.354L78.0552 325.153L151.172 166.111C152.015 164.278 152.35 162.251 152.141 160.244L151.679 155.861Z" fill="var(--sapContent_Illustrative_Color9)"/>
<path d="M227.532 116.38C227.322 116.145 227.049 115.976 226.745 115.891C226.442 115.806 226.121 115.81 225.819 115.902C225.518 115.993 225.249 116.169 225.044 116.408C224.839 116.647 224.706 116.94 224.662 117.252L224.237 120.144C221.688 137.775 202.037 146.124 188.089 137.059L185.315 132.437C184.916 132.754 184.636 133.199 184.524 133.696C184.411 134.194 184.472 134.715 184.697 135.173L265.291 296.175L329.753 230.871L227.532 116.38Z" fill="var(--sapContent_Illustrative_Color2)"/>
</g>
<path fill-rule="evenodd" clip-rule="evenodd" d="M178.101 36.7623C178.914 36.9248 179.44 37.715 179.278 38.5274L174.864 60.5956C174.702 61.408 173.912 61.9348 173.099 61.7723C172.287 61.6099 171.76 60.8196 171.923 60.0073L176.336 37.939C176.499 37.1267 177.289 36.5999 178.101 36.7623Z" fill="var(--sapContent_Illustrative_Color15)"/>
<path fill-rule="evenodd" clip-rule="evenodd" d="M165.346 19.7165C166.17 19.799 166.772 20.534 166.689 21.3584L162.906 59.1897C162.824 60.014 162.089 60.6154 161.264 60.533C160.44 60.4505 159.839 59.7155 159.921 58.8911L163.704 21.0598C163.787 20.2355 164.522 19.6341 165.346 19.7165Z" fill="var(--sapContent_Illustrative_Color15)"/>
<path fill-rule="evenodd" clip-rule="evenodd" d="M150.838 8.36682C151.662 8.44589 152.267 9.1785 152.188 10.0031L147.774 56.0312C147.695 56.8559 146.962 57.4603 146.138 57.3812C145.313 57.3021 144.709 56.5695 144.788 55.7449L149.201 9.71679C149.281 8.89214 150.013 8.28774 150.838 8.36682Z" fill="var(--sapContent_Illustrative_Color15)"/>
<path d="M281.213 90.4009C281.213 88.7594 276.448 87.4455 270.081 87.147C269.717 80.7887 268.316 76.0608 266.674 76.0645C265.033 76.0681 263.668 80.8323 263.318 87.2235C256.933 87.6602 252.187 89.0869 252.209 90.732C252.231 92.3771 256.974 93.691 263.34 93.9859C263.722 100.344 265.105 105.072 266.743 105.068C268.381 105.065 269.754 100.301 270.103 93.9094C276.488 93.4727 281.231 92.046 281.213 90.4009Z" fill="var(--sapContent_Illustrative_Color18)"/>
<path d="M70.6184 98.0105C70.6184 96.7973 67.0965 95.8261 62.3909 95.6055C62.1219 90.9059 61.086 87.4114 59.8726 87.4141C58.6592 87.4168 57.6503 90.9381 57.392 95.662C52.673 95.9849 49.1646 97.0394 49.1807 98.2553C49.1969 99.4713 52.7026 100.442 57.4082 100.66C57.6907 105.36 58.7131 108.854 59.9238 108.852C61.1345 108.849 62.1488 105.328 62.4071 100.604C67.1261 100.281 70.6318 99.2265 70.6184 98.0105Z" fill="var(--sapContent_Illustrative_Color18)"/>
<path d="M31.5261 153.525C31.5261 152.597 28.8329 151.855 25.2345 151.686C25.0288 148.092 24.2367 145.42 23.3088 145.422C22.3809 145.424 21.6094 148.117 21.4119 151.729C17.8032 151.976 15.1203 152.782 15.1326 153.712C15.145 154.642 17.8258 155.385 21.4242 155.551C21.6402 159.145 22.422 161.817 23.3479 161.815C24.2737 161.813 25.0494 159.121 25.2469 155.508C28.8556 155.261 31.5364 154.455 31.5261 153.525Z" fill="var(--sapContent_Illustrative_Color18)"/>
<path d="M31.5261 72.8185C31.5261 71.8907 28.8329 71.1481 25.2345 70.9794C25.0288 67.3855 24.2367 64.7133 23.3088 64.7153C22.3809 64.7174 21.6094 67.4102 21.4119 71.0226C17.8032 71.2695 15.1203 72.0759 15.1326 73.0057C15.145 73.9356 17.8258 74.6782 21.4242 74.8448C21.6402 78.4387 22.422 81.111 23.3479 81.1089C24.2737 81.1068 25.0494 78.414 25.2469 74.8016C28.8556 74.5548 31.5364 73.7484 31.5261 72.8185Z" fill="var(--sapContent_Illustrative_Color18)"/>
<path d="M288.779 112.548C288.779 111.692 286.293 111.006 282.971 110.851C282.781 107.533 282.05 105.066 281.194 105.068C280.337 105.07 279.625 107.556 279.443 110.89C276.112 111.118 273.635 111.863 273.647 112.721C273.658 113.579 276.133 114.265 279.454 114.419C279.654 117.736 280.375 120.203 281.23 120.201C282.084 120.199 282.8 117.713 282.983 114.379C286.314 114.151 288.788 113.407 288.779 112.548Z" fill="var(--sapContent_Illustrative_Color18)"/>
<path d="M147.542 166.458C147.542 169.592 145.001 172.133 141.867 172.133C138.733 172.133 136.193 169.592 136.193 166.458C136.193 163.324 138.733 160.783 141.867 160.783C145.001 160.783 147.542 163.324 147.542 166.458Z" fill="var(--sapContent_Illustrative_Color17)"/>
<path d="M139.03 181.59C139.03 184.724 136.489 187.265 133.355 187.265C130.221 187.265 127.681 184.724 127.681 181.59C127.681 178.456 130.221 175.916 133.355 175.916C136.489 175.916 139.03 178.456 139.03 181.59Z" fill="var(--sapContent_Illustrative_Color17)"/>
</svg>
