<svg width="45" height="45" viewBox="0 0 45 45" fill="none" xmlns="http://www.w3.org/2000/svg" id="sapIllus-Dot-ErrorScreen">
<path d="M10.6424 7.6236L5.54685 38.337C5.33308 39.6255 6.20429 40.8433 7.49276 41.0571L28.9255 44.6129C30.214 44.8267 31.4318 43.9555 31.6456 42.667L36.7412 11.9536C36.9549 10.6651 36.0837 9.44729 34.7952 9.23352L13.3625 5.67766C12.074 5.46389 10.8562 6.33512 10.6424 7.6236Z" style="fill:var(--sapContent_Illustrative_Color3)"/>
<path d="M28.4929 7.12653H7.59012C6.30796 7.12653 5.26855 8.16593 5.26855 9.44809V39.4292C5.26855 40.7114 6.30796 41.7508 7.59012 41.7508H28.4929C29.7751 41.7508 30.8145 40.7114 30.8145 39.4292V9.44809C30.8145 8.16593 29.7751 7.12653 28.4929 7.12653Z" style="fill:var(--sapContent_Illustrative_Color8)"/>
<path d="M28.3283 42.0712H7.78935C7.05027 42.0689 6.34211 41.7743 5.8195 41.2517C5.29689 40.7291 5.00228 40.021 5 39.2819V9.61259C5.00228 8.87351 5.29689 8.16534 5.8195 7.64273C6.34211 7.12012 7.05027 6.82553 7.78935 6.82324H28.3716C28.7379 6.82324 29.1006 6.89537 29.439 7.03555C29.7775 7.17573 30.0849 7.38121 30.344 7.64022C30.603 7.89924 30.8084 8.20674 30.9486 8.54515C31.0888 8.88357 31.1609 9.24629 31.1609 9.61259V39.2819C31.161 39.6518 31.0874 40.0181 30.9446 40.3594C30.8017 40.7007 30.5923 41.0101 30.3287 41.2697C30.0651 41.5293 29.7525 41.7338 29.409 41.8714C29.0656 42.009 28.6982 42.077 28.3283 42.0712ZM7.78935 7.49025C7.21498 7.49025 6.66414 7.71842 6.25801 8.12456C5.85187 8.53069 5.62371 9.08153 5.62371 9.65589V39.2819C5.62371 39.8562 5.85187 40.4071 6.25801 40.8132C6.66414 41.2193 7.21498 41.4475 7.78935 41.4475H28.3716C28.9468 41.4475 29.4985 41.2196 29.906 40.8137C30.3135 40.4078 30.5436 39.857 30.5459 39.2819V9.61259C30.5436 9.03743 30.3135 8.48659 29.906 8.0807C29.4985 7.67481 28.9468 7.44694 28.3716 7.44695L7.78935 7.49025Z" style="fill:var(--sapContent_Illustrative_Color4)"/>
<path d="M30.546 15.5726C34.005 15.5726 36.809 12.7685 36.809 9.30954C36.809 5.85056 34.005 3.04651 30.546 3.04651C27.087 3.04651 24.283 5.85056 24.283 9.30954C24.283 12.7685 27.087 15.5726 30.546 15.5726Z" style="fill:var(--sapContent_Illustrative_Color8)"/>
<path fill-rule="evenodd" clip-rule="evenodd" d="M30.8059 2.90488C27.4458 2.90488 24.7219 5.62878 24.7219 8.98887C24.7219 12.349 27.4458 15.0729 30.8059 15.0729C34.166 15.0729 36.8899 12.349 36.8899 8.98887C36.8899 5.62878 34.166 2.90488 30.8059 2.90488ZM21.817 8.98887C21.817 4.02445 25.8415 0 30.8059 0C35.7703 0 39.7948 4.02445 39.7948 8.98887C39.7948 13.9533 35.7703 17.9777 30.8059 17.9777C25.8415 17.9777 21.817 13.9533 21.817 8.98887Z" style="fill:var(--sapContent_Illustrative_Color8)"/>
<path d="M30.8145 1.4267C29.3219 1.42499 27.8622 1.86605 26.6203 2.69407C25.3784 3.5221 24.41 4.69988 23.8376 6.07841C23.2652 7.45695 23.1145 8.97428 23.4047 10.4385C23.6948 11.9026 24.4127 13.2478 25.4676 14.3039C26.5224 15.36 27.8668 16.0794 29.3307 16.3713C30.7945 16.6631 32.312 16.5142 33.6912 15.9434C35.0704 15.3726 36.2493 14.4055 37.0787 13.1645C37.9082 11.9235 38.3509 10.4644 38.3509 8.97179C38.3441 6.97431 37.5482 5.06048 36.1365 3.64722C34.7249 2.23397 32.812 1.43583 30.8145 1.4267ZM33.6038 10.7043C33.6732 10.7737 33.7283 10.8561 33.7658 10.9467C33.8034 11.0374 33.8227 11.1346 33.8227 11.2327C33.8227 11.3309 33.8034 11.428 33.7658 11.5187C33.7283 11.6094 33.6732 11.6917 33.6038 11.7611C33.5345 11.8305 33.4521 11.8856 33.3614 11.9231C33.2707 11.9607 33.1736 11.98 33.0754 11.98C32.9773 11.98 32.8801 11.9607 32.7895 11.9231C32.6988 11.8856 32.6164 11.8305 32.547 11.7611L30.8145 10.0286L29.082 11.7611C29.0138 11.8351 28.9313 11.8945 28.8395 11.9357C28.7477 11.977 28.6485 11.9992 28.5479 12.001C28.4472 12.0028 28.3473 11.9843 28.2541 11.9464C28.1608 11.9086 28.0762 11.8522 28.0053 11.7807C27.9345 11.7093 27.8788 11.6242 27.8417 11.5307C27.8046 11.4371 27.7869 11.3371 27.7896 11.2365C27.7922 11.1359 27.8152 11.0368 27.8572 10.9454C27.8992 10.8539 27.9593 10.7719 28.0338 10.7043L29.7663 8.97179L28.0338 7.23927C27.9172 7.09626 27.8578 6.91504 27.8671 6.73072C27.8764 6.54641 27.9538 6.37213 28.0843 6.24163C28.2148 6.11113 28.3891 6.03374 28.5734 6.02441C28.7578 6.01507 28.939 6.07447 29.082 6.19111L30.8145 7.92362L32.547 6.19111C32.688 6.06108 32.8738 5.99046 33.0656 5.99395C33.2574 5.99745 33.4404 6.0748 33.5766 6.20988C33.7128 6.34496 33.7916 6.52736 33.7967 6.71912C33.8018 6.91087 33.7327 7.09718 33.6038 7.23927L31.8713 8.97179L33.6038 10.7043Z" style="fill:var(--sapContent_Illustrative_Color11)"/>
</svg>
