<svg width="128" height="128" viewBox="0 0 128 128" fill="none" xmlns="http://www.w3.org/2000/svg" id="sapIllus-Spot-FilterTable">
<circle cx="64" cy="64" r="64" fill="var(--sapContent_Illustrative_Color7)"/>
<mask id="mask0_1663_6302" class="sapIllus_MaskTypeAlpha" maskUnits="userSpaceOnUse" x="0" y="0" width="128" height="128">
<circle cx="64" cy="64" r="64" fill="var(--sapContent_Illustrative_Color7)"/>
</mask>
<g mask="url(#mask0_1663_6302)">
<path d="M73.1721 26.3999H3.64745C-0.565334 26.3999 -3.98047 29.815 -3.98047 34.0278V120.015C-3.98047 124.228 -0.565334 127.643 3.64745 127.643H73.1721C77.3849 127.643 80.8 124.228 80.8 120.015V34.0278C80.8 29.815 77.3849 26.3999 73.1721 26.3999Z" fill="var(--sapContent_Illustrative_Color8)"/>
<path fill-rule="evenodd" clip-rule="evenodd" d="M3.83533 34.5968C3.83533 34.2501 3.93062 33.9722 4.04708 33.9722H72.3331C72.4495 33.9722 72.5448 34.2368 72.5448 34.5968V119.449C72.5448 119.795 72.4495 120.073 72.3331 120.073H4.04708C3.93062 120.073 3.83533 119.809 3.83533 119.449V34.5968Z" fill="var(--sapContent_Illustrative_Color8)"/>
<path d="M72.5501 42.095H3.83533V49.1274H72.5501V42.095Z" fill="var(--sapContent_Illustrative_Color18)"/>
<path d="M7.81342 44.7527H19.6285C20.0149 44.7527 20.3299 45.1735 20.3299 45.6923C20.3299 46.2216 20.0149 46.6292 19.6285 46.6292H7.81342C7.42435 46.6292 7.10938 46.2084 7.10938 45.6923C7.10938 45.1735 7.41376 44.7527 7.81342 44.7527Z" fill="var(--sapContent_Illustrative_Color14)"/>
<path d="M7.81342 51.6289H17.4052C17.7916 51.6289 18.1066 52.0497 18.1066 52.5658C18.1066 53.0952 17.7916 53.5054 17.4052 53.5054H7.81342C7.42435 53.5054 7.10938 53.0846 7.10938 52.5658C7.10938 52.0497 7.41376 51.6289 7.81342 51.6289Z" fill="var(--sapContent_Illustrative_Color14)"/>
<path d="M7.81342 58.8198H18.9297C19.3188 58.8198 19.6338 59.2407 19.6338 59.7568C19.6338 60.2861 19.3188 60.6964 18.9297 60.6964H7.81342C7.42435 60.6964 7.10938 60.2755 7.10938 59.7568C7.10938 59.238 7.41376 58.8198 7.81342 58.8198Z" fill="var(--sapContent_Illustrative_Color14)"/>
<path d="M7.81342 65.7017H12.8422C13.2313 65.7017 13.5436 66.1225 13.5436 66.6386C13.5436 67.168 13.2313 67.5756 12.8422 67.5756H7.81342C7.42435 67.5756 7.10938 67.1574 7.10938 66.6386C7.10938 66.1145 7.41376 65.7017 7.81342 65.7017Z" fill="var(--sapContent_Illustrative_Color14)"/>
<path d="M7.81342 72.7258H12.8422C13.2313 72.7258 13.5436 73.144 13.5436 73.6628C13.5436 74.1921 13.2313 74.5997 12.8422 74.5997H7.81342C7.42435 74.5997 7.10938 74.1815 7.10938 73.6628C7.10938 73.144 7.41376 72.7258 7.81342 72.7258Z" fill="var(--sapContent_Illustrative_Color14)"/>
<path d="M7.81342 86.7905H12.8422C13.2313 86.7905 13.5436 87.2087 13.5436 87.7275C13.5436 88.2568 13.2313 88.6644 12.8422 88.6644H7.81342C7.42435 88.6644 7.10938 88.2436 7.10938 87.7275C7.10938 87.2087 7.41376 86.7905 7.81342 86.7905Z" fill="var(--sapContent_Illustrative_Color14)"/>
<path d="M7.81342 79.7585H12.8422C13.2313 79.7585 13.5436 80.1767 13.5436 80.6955C13.5436 81.2249 13.2313 81.6324 12.8422 81.6324H7.81342C7.42435 81.6324 7.10938 81.2143 7.10938 80.6955C7.10938 80.1767 7.41376 79.7585 7.81342 79.7585Z" fill="var(--sapContent_Illustrative_Color14)"/>
<path d="M7.81342 93.8203H12.8422C13.2313 93.8203 13.5436 94.2412 13.5436 94.7599C13.5436 95.2893 13.2313 95.6968 12.8422 95.6968H7.81342C7.42435 95.6968 7.10938 95.276 7.10938 94.7599C7.10938 94.2412 7.41376 93.8203 7.81342 93.8203Z" fill="var(--sapContent_Illustrative_Color14)"/>
<path d="M7.78965 100.882H12.8185C13.2049 100.882 13.5198 101.303 13.5198 101.819C13.5198 102.348 13.2049 102.759 12.8185 102.759H7.78965C7.40323 102.759 7.08826 102.338 7.08826 101.819C7.08826 101.303 7.41381 100.882 7.78965 100.882Z" fill="var(--sapContent_Illustrative_Color14)"/>
<path d="M32.5155 44.7527H44.3306C44.717 44.7527 45.032 45.1735 45.032 45.6923C45.032 46.2216 44.717 46.6292 44.3306 46.6292H32.5155C32.1265 46.6292 31.8115 46.2084 31.8115 45.6923C31.8115 45.1735 32.1265 44.7527 32.5155 44.7527Z" fill="var(--sapContent_Illustrative_Color14)"/>
<path d="M32.5155 51.6289H42.1073C42.4938 51.6289 42.8087 52.0497 42.8087 52.5658C42.8087 53.0952 42.4938 53.5054 42.1073 53.5054H32.5155C32.1265 53.5054 31.8115 53.0846 31.8115 52.5658C31.8115 52.0497 32.1265 51.6289 32.5155 51.6289Z" fill="var(--sapContent_Illustrative_Color14)"/>
<path d="M32.5155 58.8198H43.6319C44.0209 58.8198 44.3359 59.2407 44.3359 59.7568C44.3359 60.2861 44.0209 60.6964 43.6319 60.6964H32.5155C32.1265 60.6964 31.8115 60.2755 31.8115 59.7568C31.8115 59.238 32.1265 58.8198 32.5155 58.8198Z" fill="var(--sapContent_Illustrative_Color14)"/>
<path d="M32.5155 65.7017H37.5443C37.9334 65.7017 38.2457 66.1225 38.2457 66.6386C38.2457 67.168 37.9334 67.5756 37.5443 67.5756H32.5155C32.1265 67.5756 31.8115 67.1574 31.8115 66.6386C31.8115 66.1145 32.1265 65.7017 32.5155 65.7017Z" fill="var(--sapContent_Illustrative_Color14)"/>
<path d="M32.5155 72.7258H37.5443C37.9334 72.7258 38.2457 73.144 38.2457 73.6628C38.2457 74.1921 37.9334 74.5997 37.5443 74.5997H32.5155C32.1265 74.5997 31.8115 74.1815 31.8115 73.6628C31.8115 73.144 32.1265 72.7258 32.5155 72.7258Z" fill="var(--sapContent_Illustrative_Color14)"/>
<path d="M32.5155 86.7905H37.5443C37.9334 86.7905 38.2457 87.2087 38.2457 87.7275C38.2457 88.2568 37.9334 88.6644 37.5443 88.6644H32.5155C32.1265 88.6644 31.8115 88.2436 31.8115 87.7275C31.8115 87.2087 32.1265 86.7905 32.5155 86.7905Z" fill="var(--sapContent_Illustrative_Color14)"/>
<path d="M32.5155 79.7585H37.5443C37.9334 79.7585 38.2457 80.1767 38.2457 80.6955C38.2457 81.2249 37.9334 81.6324 37.5443 81.6324H32.5155C32.1265 81.6324 31.8115 81.2143 31.8115 80.6955C31.8115 80.1767 32.1265 79.7585 32.5155 79.7585Z" fill="var(--sapContent_Illustrative_Color14)"/>
<path d="M32.5155 93.8203H37.5443C37.9334 93.8203 38.2457 94.2412 38.2457 94.7599C38.2457 95.2893 37.9334 95.6968 37.5443 95.6968H32.5155C32.1265 95.6968 31.8115 95.276 31.8115 94.7599C31.8115 94.2412 32.1265 93.8203 32.5155 93.8203Z" fill="var(--sapContent_Illustrative_Color14)"/>
<path d="M32.4917 100.882H37.5205C37.9069 100.882 38.2219 101.303 38.2219 101.819C38.2219 102.348 37.9069 102.759 37.5205 102.759H32.4917C32.1053 102.759 31.7903 102.338 31.7903 101.819C31.7903 101.303 32.1053 100.882 32.4917 100.882Z" fill="var(--sapContent_Illustrative_Color14)"/>
<path d="M56.937 44.7527H68.752C69.1384 44.7527 69.4534 45.1735 69.4534 45.6923C69.4534 46.2216 69.1384 46.6292 68.752 46.6292H56.937C56.5479 46.6292 56.2329 46.2084 56.2329 45.6923C56.2329 45.1735 56.5479 44.7527 56.937 44.7527Z" fill="var(--sapContent_Illustrative_Color14)"/>
<path d="M56.937 51.6289H66.5288C66.9152 51.6289 67.2301 52.0497 67.2301 52.5658C67.2301 53.0952 66.9152 53.5054 66.5288 53.5054H56.937C56.5479 53.5054 56.2329 53.0846 56.2329 52.5658C56.2329 52.0497 56.5479 51.6289 56.937 51.6289Z" fill="var(--sapContent_Illustrative_Color14)"/>
<path d="M56.937 58.8198H68.0533C68.4424 58.8198 68.7573 59.2407 68.7573 59.7568C68.7573 60.2861 68.4424 60.6964 68.0533 60.6964H56.937C56.5479 60.6964 56.2329 60.2755 56.2329 59.7568C56.2329 59.238 56.5479 58.8198 56.937 58.8198Z" fill="var(--sapContent_Illustrative_Color14)"/>
<path d="M56.937 65.7017H61.9658C62.3522 65.7017 62.6672 66.1225 62.6672 66.6386C62.6672 67.168 62.3522 67.5756 61.9658 67.5756H56.937C56.5479 67.5756 56.2329 67.1574 56.2329 66.6386C56.2329 66.1145 56.5479 65.7017 56.937 65.7017Z" fill="var(--sapContent_Illustrative_Color14)"/>
<path d="M56.937 72.7258H61.9658C62.3522 72.7258 62.6672 73.144 62.6672 73.6628C62.6672 74.1921 62.3522 74.5997 61.9658 74.5997H56.937C56.5479 74.5997 56.2329 74.1815 56.2329 73.6628C56.2329 73.144 56.5479 72.7258 56.937 72.7258Z" fill="var(--sapContent_Illustrative_Color14)"/>
<path d="M56.937 86.7905H61.9658C62.3522 86.7905 62.6672 87.2087 62.6672 87.7275C62.6672 88.2568 62.3522 88.6644 61.9658 88.6644H56.937C56.5479 88.6644 56.2329 88.2436 56.2329 87.7275C56.2329 87.2087 56.5479 86.7905 56.937 86.7905Z" fill="var(--sapContent_Illustrative_Color14)"/>
<path d="M56.937 79.7585H61.9658C62.3522 79.7585 62.6672 80.1767 62.6672 80.6955C62.6672 81.2249 62.3522 81.6324 61.9658 81.6324H56.937C56.5479 81.6324 56.2329 81.2143 56.2329 80.6955C56.2329 80.1767 56.5479 79.7585 56.937 79.7585Z" fill="var(--sapContent_Illustrative_Color14)"/>
<path d="M56.937 93.8203H61.9658C62.3522 93.8203 62.6672 94.2412 62.6672 94.7599C62.6672 95.2893 62.3522 95.6968 61.9658 95.6968H56.937C56.5479 95.6968 56.2329 95.276 56.2329 94.7599C56.2329 94.2412 56.5479 93.8203 56.937 93.8203Z" fill="var(--sapContent_Illustrative_Color14)"/>
<path d="M56.9079 100.882H61.9368C62.3258 100.882 62.6408 101.303 62.6408 101.819C62.6408 102.348 62.3258 102.759 61.9368 102.759H56.9079C56.5189 102.759 56.2065 102.338 56.2065 101.819C56.2118 101.303 56.5242 100.882 56.9079 100.882Z" fill="var(--sapContent_Illustrative_Color14)"/>
<path d="M22.1958 36.4712H8.75036C7.84407 36.4712 7.10938 37.2059 7.10938 38.1122C7.10938 39.0185 7.84407 39.7532 8.75036 39.7532H22.1958C23.1021 39.7532 23.8368 39.0185 23.8368 38.1122C23.8368 37.2059 23.1021 36.4712 22.1958 36.4712Z" fill="var(--sapContent_Illustrative_Color14)"/>
<path d="M54.9657 52.4375L77.8479 76.8641C77.9381 76.962 77.988 77.0907 77.9875 77.2241V101.037C77.9868 101.278 78.05 101.515 78.1706 101.724C78.2912 101.933 78.4649 102.105 78.6739 102.224C78.8829 102.343 79.1195 102.403 79.3595 102.4C79.5995 102.396 79.8342 102.328 80.0395 102.203L95.5383 92.8496C95.7382 92.7294 95.9038 92.5592 96.0191 92.3557C96.1343 92.1522 96.1952 91.9222 96.196 91.688L96.2681 77.2241C96.2685 77.0933 96.3175 76.9673 96.4055 76.8709L119.765 51.4458L54.9657 52.4375Z" fill="var(--sapContent_Illustrative_Color2)"/>
<path d="M93.4165 77.0634V93.2164C93.4163 93.3075 93.4402 93.397 93.4858 93.4757C93.5313 93.5545 93.5968 93.6197 93.6757 93.6646C93.7545 93.7095 93.8438 93.7326 93.9344 93.7314C94.025 93.7302 94.1137 93.7049 94.1913 93.6579L95.2905 92.9945C95.5645 92.8282 95.7914 92.5937 95.9492 92.3138C96.1069 92.0338 96.1904 91.7177 96.1915 91.3959L96.2613 77.4188C96.2637 77.1595 96.3616 76.9102 96.5361 76.7192L118.954 52.3198C119.022 52.2455 119.067 52.153 119.083 52.0535C119.099 51.9541 119.085 51.8521 119.044 51.7602C119.003 51.6682 118.937 51.5903 118.852 51.5361C118.768 51.4818 118.669 51.4536 118.569 51.4549C118.513 51.4562 118.457 51.4669 118.405 51.4866L105.566 56.1509C105.453 56.1926 105.358 56.2727 105.298 56.3773L93.4841 76.7939C93.4377 76.8759 93.4144 76.969 93.4165 77.0634Z" fill="var(--sapContent_Illustrative_Color13)"/>
<path d="M86.7988 56.2235C105.87 56.2235 121.33 51.9374 121.33 46.6503C121.33 41.3632 105.87 37.0771 86.7988 37.0771C67.7275 37.0771 52.2672 41.3632 52.2672 46.6503C52.2672 51.9374 67.7275 56.2235 86.7988 56.2235Z" fill="var(--sapContent_Illustrative_Color13)"/>
<path d="M121.331 46.6593C121.331 44.2683 118.166 42.0833 112.936 40.4055L105.83 54.6498C115.168 52.9267 121.331 49.9878 121.331 46.6593Z" fill="var(--sapContent_Illustrative_Color14)"/>
<path d="M86.7989 58.1027C77.4131 58.1027 68.5657 57.0815 61.8873 55.2316C54.2652 53.1168 50.4 50.2322 50.4 46.6502C50.4 43.0682 54.2629 40.1858 61.8873 38.071C68.5657 36.2211 77.4131 35.2 86.7989 35.2C96.1847 35.2 105.043 36.2211 111.713 38.071C119.335 40.1858 123.2 43.0704 123.2 46.6502C123.2 50.2299 119.337 53.1168 111.713 55.2316C105.034 57.0747 96.1869 58.1027 86.7989 58.1027ZM86.7989 38.9563C77.7397 38.9563 69.2437 39.9277 62.8806 41.6915C55.9635 43.6093 54.1368 45.7671 54.1368 46.6502C54.1368 47.5332 55.9635 49.6933 62.8806 51.6111C69.2437 53.375 77.7465 54.3463 86.7989 54.3463C95.8513 54.3463 104.354 53.375 110.719 51.6111C117.634 49.6933 119.463 47.5355 119.463 46.6502C119.463 45.7649 117.634 43.6093 110.719 41.6915C104.354 39.9277 95.8603 38.9608 86.7989 38.9608V38.9563Z" fill="var(--sapContent_Illustrative_Color2)"/>
<path d="M64.0195 19.4859C64.0195 18.354 60.7339 17.448 56.3438 17.2422C56.0928 12.8577 55.1265 9.59759 53.9944 9.6001C52.8624 9.60261 51.9212 12.8878 51.6802 17.2949C47.2776 17.5961 44.0045 18.5799 44.0196 19.7143C44.0346 20.8487 47.3052 21.7547 51.6953 21.958C51.9588 26.3425 52.9126 29.6026 54.0421 29.6001C55.1716 29.5976 56.1179 26.3124 56.3589 21.9053C60.7615 21.6041 64.032 20.6203 64.0195 19.4859Z" fill="var(--sapContent_Illustrative_Color3)"/>
<path d="M78.4195 27.936C78.4195 27.3021 76.5795 26.7947 74.1211 26.6795C73.9805 24.2242 73.4394 22.3985 72.8054 22.3999C72.1715 22.4013 71.6444 24.241 71.5095 26.709C69.044 26.8777 67.2111 27.4286 67.2195 28.0638C67.2279 28.6991 69.0595 29.2065 71.5179 29.3203C71.6655 31.7756 72.1996 33.6013 72.8321 33.5999C73.4647 33.5985 73.9946 31.7588 74.1295 29.2908C76.595 29.1222 78.4265 28.5712 78.4195 27.936Z" fill="var(--sapContent_Illustrative_Color3)"/>
</g>
</svg>
