<svg width="128" height="128" viewBox="0 0 128 128" fill="none" xmlns="http://www.w3.org/2000/svg" id="sapIllus-Spot-SortColumn">
<mask id="mask0_1663_6139" class="sapIllus_MaskTypeAlpha" maskUnits="userSpaceOnUse" x="0" y="0" width="128" height="128">
<path d="M64 128C99.3462 128 128 99.3462 128 64C128 28.6538 99.3462 0 64 0C28.6538 0 0 28.6538 0 64C0 99.3462 28.6538 128 64 128Z" fill="var(--sapContent_Illustrative_Color7)"/>
</mask>
<g mask="url(#mask0_1663_6139)">
<path d="M64 128C99.3462 128 128 99.3462 128 64C128 28.6538 99.3462 0 64 0C28.6538 0 0 28.6538 0 64C0 99.3462 28.6538 128 64 128Z" fill="var(--sapContent_Illustrative_Color7)"/>
<path d="M96.3752 34.2593H22.2405C17.7484 34.2593 14.1068 37.9009 14.1068 42.393V134.082C14.1068 138.574 17.7484 142.216 22.2405 142.216H96.3752C100.867 142.216 104.509 138.574 104.509 134.082V42.393C104.509 37.9009 100.867 34.2593 96.3752 34.2593Z" fill="var(--sapContent_Illustrative_Color8)"/>
<path d="M112.608 35.053C112.608 34.1545 110 33.4354 106.515 33.272C106.316 29.7918 105.549 27.2041 104.65 27.2061C103.752 27.208 103.004 29.8157 102.813 33.3139C99.3185 33.5529 96.7205 34.3338 96.7325 35.2343C96.7444 36.1347 99.3405 36.8538 102.825 37.0152C103.034 40.4954 103.791 43.0832 104.688 43.0812C105.584 43.0792 106.336 40.4715 106.527 36.9734C110.021 36.7343 112.617 35.9534 112.608 35.053Z" fill="var(--sapContent_Illustrative_Color3)"/>
<path d="M123.191 46.0213C123.191 45.4423 121.51 44.9788 119.265 44.8735C119.136 42.6307 118.642 40.9631 118.063 40.9644C117.484 40.9656 117.002 42.6461 116.879 44.9005C114.627 45.0546 112.953 45.5578 112.96 46.1381C112.968 46.7184 114.641 47.1818 116.887 47.2858C117.022 49.5286 117.509 51.1963 118.087 51.195C118.665 51.1937 119.149 49.5132 119.272 47.2588C121.524 47.1048 123.197 46.6015 123.191 46.0213Z" fill="var(--sapContent_Illustrative_Color3)"/>
<path fill-rule="evenodd" clip-rule="evenodd" d="M22.4409 42.9968C22.4409 42.627 22.5284 42.3279 22.6328 42.3279H84.1944C84.3017 42.3279 84.3863 42.627 84.3863 42.9968V133.475C84.3863 133.845 84.3017 134.141 84.1944 134.141H22.6328C22.5284 134.141 22.4409 133.859 22.4409 133.475V42.9968Z" fill="var(--sapContent_Illustrative_Color8)"/>
<path d="M84.3863 50.9949H22.4409V58.4936H84.3863V50.9949Z" fill="var(--sapContent_Illustrative_Color18)"/>
<path d="M48.0188 44.9949H27.6902C26.7238 44.9949 25.9404 45.7783 25.9404 46.7447C25.9404 47.711 26.7238 48.4945 27.6902 48.4945H48.0188C48.9852 48.4945 49.7686 47.711 49.7686 46.7447C49.7686 45.7783 48.9852 44.9949 48.0188 44.9949Z" fill="var(--sapContent_Illustrative_Color14)"/>
<path d="M43.7714 53.8284H26.9395C26.3877 53.8284 25.9404 54.2757 25.9404 54.8274C25.9404 55.3792 26.3877 55.8265 26.9395 55.8265H43.7714C44.3231 55.8265 44.7704 55.3792 44.7704 54.8274C44.7704 54.2757 44.3231 53.8284 43.7714 53.8284Z" fill="var(--sapContent_Illustrative_Color14)"/>
<path d="M40.6048 61.158H26.9395C26.3877 61.158 25.9404 61.6053 25.9404 62.157C25.9404 62.7088 26.3877 63.1561 26.9395 63.1561H40.6048C41.1566 63.1561 41.6039 62.7088 41.6039 62.157C41.6039 61.6053 41.1566 61.158 40.6048 61.158Z" fill="var(--sapContent_Illustrative_Color14)"/>
<path d="M42.7695 68.8228H26.9395C26.3877 68.8228 25.9404 69.2701 25.9404 69.8218C25.9404 70.3736 26.3877 70.8209 26.9395 70.8209H42.7695C43.3212 70.8209 43.7685 70.3736 43.7685 69.8218C43.7685 69.2701 43.3212 68.8228 42.7695 68.8228Z" fill="var(--sapContent_Illustrative_Color14)"/>
<path d="M34.1052 76.1558H26.9395C26.3877 76.1558 25.9404 76.6031 25.9404 77.1548C25.9404 77.7066 26.3877 78.1539 26.9395 78.1539H34.1052C34.657 78.1539 35.1042 77.7066 35.1042 77.1548C35.1042 76.6031 34.657 76.1558 34.1052 76.1558Z" fill="var(--sapContent_Illustrative_Color14)"/>
<path d="M34.1052 83.6538H26.9395C26.3877 83.6538 25.9404 84.1011 25.9404 84.6529C25.9404 85.2047 26.3877 85.652 26.9395 85.652H34.1052C34.657 85.652 35.1042 85.2047 35.1042 84.6529C35.1042 84.1011 34.657 83.6538 34.1052 83.6538Z" fill="var(--sapContent_Illustrative_Color14)"/>
<path d="M34.1052 98.6516H26.9395C26.3877 98.6516 25.9404 99.0989 25.9404 99.6507C25.9404 100.202 26.3877 100.65 26.9395 100.65H34.1052C34.657 100.65 35.1042 100.202 35.1042 99.6507C35.1042 99.0989 34.657 98.6516 34.1052 98.6516Z" fill="var(--sapContent_Illustrative_Color14)"/>
<path d="M34.1052 91.1526H26.9395C26.3877 91.1526 25.9404 91.5999 25.9404 92.1517C25.9404 92.7034 26.3877 93.1507 26.9395 93.1507H34.1052C34.657 93.1507 35.1042 92.7034 35.1042 92.1517C35.1042 91.5999 34.657 91.1526 34.1052 91.1526Z" fill="var(--sapContent_Illustrative_Color14)"/>
<path d="M34.1052 106.15H26.9395C26.3877 106.15 25.9404 106.598 25.9404 107.149C25.9404 107.701 26.3877 108.149 26.9395 108.149H34.1052C34.657 108.149 35.1042 107.701 35.1042 107.149C35.1042 106.598 34.657 106.15 34.1052 106.15Z" fill="var(--sapContent_Illustrative_Color14)"/>
<path d="M78.7786 53.6365H61.9467C61.3949 53.6365 60.9476 54.0838 60.9476 54.6355C60.9476 55.1873 61.3949 55.6346 61.9467 55.6346H78.7786C79.3303 55.6346 79.7776 55.1873 79.7776 54.6355C79.7776 54.0838 79.3303 53.6365 78.7786 53.6365Z" fill="var(--sapContent_Illustrative_Color14)"/>
<path d="M75.612 60.969H61.9467C61.3949 60.969 60.9476 61.4163 60.9476 61.9681C60.9476 62.5198 61.3949 62.9671 61.9467 62.9671H75.612C76.1638 62.9671 76.6111 62.5198 76.6111 61.9681C76.6111 61.4163 76.1638 60.969 75.612 60.969Z" fill="var(--sapContent_Illustrative_Color14)"/>
<path d="M77.7767 68.6338H61.9467C61.3949 68.6338 60.9476 69.0811 60.9476 69.6329C60.9476 70.1846 61.3949 70.6319 61.9467 70.6319H77.7767C78.3284 70.6319 78.7757 70.1846 78.7757 69.6329C78.7757 69.0811 78.3284 68.6338 77.7767 68.6338Z" fill="var(--sapContent_Illustrative_Color14)"/>
<path d="M69.1124 75.9663H61.9467C61.3949 75.9663 60.9476 76.4136 60.9476 76.9654C60.9476 77.5172 61.3949 77.9645 61.9467 77.9645H69.1124C69.6642 77.9645 70.1115 77.5172 70.1115 76.9654C70.1115 76.4136 69.6642 75.9663 69.1124 75.9663Z" fill="var(--sapContent_Illustrative_Color14)"/>
<path d="M69.1124 83.4648H61.9467C61.3949 83.4648 60.9476 83.9121 60.9476 84.4639C60.9476 85.0157 61.3949 85.463 61.9467 85.463H69.1124C69.6642 85.463 70.1115 85.0157 70.1115 84.4639C70.1115 83.9121 69.6642 83.4648 69.1124 83.4648Z" fill="var(--sapContent_Illustrative_Color14)"/>
<path d="M69.1124 98.4622H61.9467C61.3949 98.4622 60.9476 98.9095 60.9476 99.4612C60.9476 100.013 61.3949 100.46 61.9467 100.46H69.1124C69.6642 100.46 70.1115 100.013 70.1115 99.4612C70.1115 98.9095 69.6642 98.4622 69.1124 98.4622Z" fill="var(--sapContent_Illustrative_Color14)"/>
<path d="M69.1124 90.9636H61.9467C61.3949 90.9636 60.9476 91.4109 60.9476 91.9627C60.9476 92.5145 61.3949 92.9618 61.9467 92.9618H69.1124C69.6642 92.9618 70.1115 92.5145 70.1115 91.9627C70.1115 91.4109 69.6642 90.9636 69.1124 90.9636Z" fill="var(--sapContent_Illustrative_Color14)"/>
<path d="M69.1124 105.958H61.9467C61.3949 105.958 60.9476 106.405 60.9476 106.957C60.9476 107.509 61.3949 107.956 61.9467 107.956H69.1124C69.6642 107.956 70.1115 107.509 70.1115 106.957C70.1115 106.405 69.6642 105.958 69.1124 105.958Z" fill="var(--sapContent_Illustrative_Color14)"/>
<path d="M87.0021 51.719H112.845C112.863 51.719 112.879 51.7258 112.891 51.738C112.903 51.7502 112.91 51.7667 112.91 51.7839V117.012C112.91 117.029 112.903 117.045 112.891 117.057C112.879 117.07 112.863 117.076 112.845 117.076H87.067C87.0498 117.076 87.0333 117.07 87.0211 117.057C87.0089 117.045 87.0021 117.029 87.0021 117.012V51.719Z" fill="var(--sapContent_Illustrative_Color6)"/>
<path d="M114.753 49.8423H88.845V115.203H114.753V49.8423Z" fill="var(--sapContent_Illustrative_Color8)"/>
<path d="M101.839 90.3102C106.072 90.3102 109.504 86.8783 109.504 82.6449C109.504 78.4116 106.072 74.9797 101.839 74.9797C97.6052 74.9797 94.1733 78.4116 94.1733 82.6449C94.1733 86.8783 97.6052 90.3102 101.839 90.3102Z" fill="var(--sapContent_Illustrative_Color3)"/>
<path d="M88.845 49.8423H114.697C114.712 49.8423 114.726 49.8482 114.737 49.8588C114.747 49.8694 114.753 49.8838 114.753 49.8987V57.674H88.845V49.8423Z" fill="var(--sapContent_Illustrative_Color18)"/>
<path d="M108.502 52.6643H91.6701C91.1183 52.6643 90.671 53.1116 90.671 53.6634C90.671 54.2152 91.1183 54.6625 91.6701 54.6625H108.502C109.054 54.6625 109.501 54.2152 109.501 53.6634C109.501 53.1116 109.054 52.6643 108.502 52.6643Z" fill="var(--sapContent_Illustrative_Color14)"/>
</g>
<path d="M99.9817 85.6252V79.24" stroke="white" stroke-width="1.05615" stroke-linecap="round" stroke-linejoin="round"/>
<path d="M101.578 85.0928L99.9817 86.6891L98.3854 85.0928" stroke="white" stroke-width="1.05615" stroke-linecap="round" stroke-linejoin="round"/>
<path d="M104.239 86.6895V80.3042" stroke="white" stroke-width="1.05615" stroke-linecap="round" stroke-linejoin="round"/>
<path d="M105.835 80.8363L104.239 79.24L102.642 80.8363" stroke="white" stroke-width="1.05615" stroke-linecap="round" stroke-linejoin="round"/>
</svg>
