<svg width="45" height="46" viewBox="0 0 45 46" fill="none" xmlns="http://www.w3.org/2000/svg" id="sapIllus-Dot-SimpleBell">
<path d="M22.3815 0.972168C21.5442 0.975142 20.7421 1.30904 20.1501 1.90106C19.5581 2.49308 19.2242 3.29518 19.2212 4.13243V8.52296H25.5417V4.13243C25.5388 3.29518 25.2049 2.49308 24.6128 1.90106C24.0208 1.30904 23.2187 0.975142 22.3815 0.972168Z" style="fill:var(--sapContent_Illustrative_Color15)"/>
<path d="M38.8938 21.8864V36.1753H5.65454V21.8864C5.76746 17.5536 7.568 13.4362 10.6725 10.4115C13.777 7.38693 17.9399 5.69427 22.2742 5.69427C26.6085 5.69427 30.7714 7.38693 33.8759 10.4115C36.9803 13.4362 38.7809 17.5536 38.8938 21.8864Z" style="fill:var(--sapContent_Illustrative_Color3)"/>
<path d="M22.3816 45.9722C24.6319 45.9722 26.4561 44.1479 26.4561 41.8977C26.4561 39.6474 24.6319 37.8232 22.3816 37.8232C20.1313 37.8232 18.3071 39.6474 18.3071 41.8977C18.3071 44.1479 20.1313 45.9722 22.3816 45.9722Z" style="fill:var(--sapContent_Illustrative_Color3)"/>
<path d="M42.6185 37.8232C41.334 37.3768 40.0882 36.8256 38.8939 36.1753H5.65464C4.45736 36.8276 3.20772 37.3788 1.91875 37.8232C0.880375 38.0489 0 38.6922 0 39.7532C0 40.262 0.202159 40.7501 0.561992 41.1099C0.921825 41.4697 1.40987 41.6719 1.91875 41.6719H42.6185C43.1284 41.6719 43.6176 41.4701 43.9793 41.1106C44.3409 40.7511 44.5456 40.2631 44.5485 39.7532C44.5485 38.6922 43.6569 38.0489 42.6185 37.8232Z" style="fill:var(--sapContent_Illustrative_Color15)"/>
<path opacity="0.36" d="M20.632 5.35138C16.5287 5.75755 12.7232 7.67497 9.95504 10.7309C7.18693 13.7869 5.6541 17.7631 5.65454 21.8864V36.1753H36.6365V21.9541C36.6364 17.6534 34.9687 13.5201 31.9839 10.4238C28.9991 7.32741 24.9298 5.50915 20.632 5.35138Z" style="fill:var(--sapContent_Illustrative_Color15)"/>
</svg>
