<svg width="161" height="161" viewBox="0 0 161 161" fill="none" xmlns="http://www.w3.org/2000/svg" id="sapIllus-Dialog-SleepingBell">
<path d="M9.99231 104.237C10.3812 104.232 10.7607 104.356 11.0718 104.589L18.9458 111.172C19.5384 111.661 19.3903 112.028 18.6212 112.028H17.2842V119.35L18.8082 119.385C59.7691 120.653 92.0024 138.757 99.8693 142.959C105.754 146.129 111.864 149.021 118.111 151.673C136.756 141.911 150.801 125.211 157.205 105.188C163.609 85.1644 161.858 63.4287 152.331 44.6849H116.788V44.7236H111.38V44.6849H77.5385C76.9501 44.6753 76.3885 44.4379 75.9722 44.0227L71.2238 39.0917C70.8609 38.6904 70.66 38.169 70.66 37.6283C70.66 37.0876 70.8609 36.5662 71.2238 36.1649L76.0568 30.6351C76.2543 30.388 76.5068 30.1903 76.7941 30.0575C77.074 29.9305 77.3795 29.8702 77.6867 29.8814H111.744C111.862 29.6712 112.008 29.478 112.178 29.3073C112.431 29.0569 112.731 28.8573 113.06 28.7191C113.395 28.5806 113.755 28.5123 114.118 28.5183C114.481 28.5153 114.841 28.5847 115.176 28.7226C115.727 28.9551 116.186 29.3624 116.482 29.8814H142.622C135.123 20.8362 125.714 13.5571 115.069 8.56434C104.424 3.5716 92.8061 0.988611 81.0451 1.00004C42.4901 1.00004 10.3098 28.2366 2.72864 64.4862C3.67248 63.9996 4.71168 63.7255 5.77309 63.6831H29.014C30.8819 63.7416 32.6536 64.5234 33.9541 65.8632C35.2546 67.203 35.9819 68.9955 35.9819 70.8612C35.9819 72.727 35.2546 74.5195 33.9541 75.8592C32.6536 77.199 30.8819 77.9809 29.014 78.0393H5.73076C4.02673 77.9735 2.40147 77.3057 1.14466 76.155C1.05294 77.7258 1.00002 79.3073 1.00002 80.8992C0.993487 89.8941 2.51065 98.8254 5.48734 107.315L8.90928 104.596C9.22131 104.361 9.6017 104.235 9.99231 104.237V104.237Z" fill="var(--sapContent_Illustrative_Color7)"/>
<path d="M11.0788 115.599C11.0806 115.15 11.2584 114.719 11.5742 114.399C11.89 114.079 12.3187 113.896 12.7686 113.887C12.9925 113.888 13.2141 113.933 13.4212 114.018C13.6287 114.103 13.8171 114.229 13.9751 114.388C14.1357 114.546 14.2639 114.733 14.3525 114.94C14.438 115.15 14.4823 115.373 14.4831 115.599V119.322C15.3685 119.322 16.3069 119.322 17.2841 119.357V112.049H7.30408C8.36255 114.543 9.54825 116.981 10.8565 119.354H11.0788V115.599Z" fill="var(--sapContent_Illustrative_Color19)"/>
<path d="M18.6213 112.049C19.3903 112.049 19.5385 111.697 18.9458 111.193L11.0719 104.61C10.7608 104.377 10.3813 104.253 9.99237 104.258C9.60035 104.254 9.21773 104.378 8.90229 104.61L5.48035 107.329C6.04126 108.928 6.6445 110.499 7.3042 112.049H18.6213Z" fill="var(--sapContent_Illustrative_Color20)"/>
<path d="M13.9893 114.387C13.8313 114.229 13.643 114.103 13.4354 114.018C13.1764 113.914 12.8959 113.875 12.6185 113.905C12.3411 113.935 12.0752 114.032 11.844 114.188C11.6129 114.344 11.4236 114.554 11.2926 114.8C11.1617 115.046 11.0932 115.321 11.093 115.599V119.343C12.102 119.343 13.2485 119.315 14.4973 119.343V115.617C14.5013 115.388 14.4581 115.162 14.3703 114.951C14.2823 114.74 14.1528 114.548 13.9893 114.387V114.387Z" fill="var(--sapContent_Illustrative_Color20)"/>
<path d="M80.9957 160.784C93.9234 160.804 106.661 157.679 118.108 151.68C111.864 149.031 105.761 146.139 99.8657 142.97C91.9988 138.743 59.7655 120.667 18.8046 119.396L17.2806 119.357C16.3034 119.336 15.3651 119.326 14.4796 119.322H10.8566C17.7501 131.877 27.8982 142.35 40.2379 149.645C52.5777 156.939 66.6551 160.787 80.9957 160.784V160.784Z" fill="var(--sapContent_Illustrative_Color19)"/>
<path d="M28.9718 78.0428C30.8304 77.9716 32.5891 77.1844 33.8788 75.8463C35.1685 74.5083 35.889 72.7235 35.889 70.8665C35.889 69.0095 35.1685 67.2247 33.8788 65.8867C32.5891 64.5486 30.8304 63.7614 28.9718 63.6902H5.73083C4.66648 63.7337 3.62472 64.0102 2.67931 64.5003C1.87641 68.3466 1.35877 72.2467 1.13062 76.1691C2.38676 77.3204 4.01267 77.9872 5.71671 78.0499L28.9718 78.0428Z" fill="var(--sapContent_Illustrative_Color18)"/>
<path d="M114.065 43.9628C113.193 43.9628 112.33 44.1342 111.525 44.4674C110.719 44.8006 109.988 45.2889 109.372 45.9045C108.755 46.52 108.267 47.2508 107.933 48.055C107.6 48.8592 107.429 49.7211 107.429 50.5914V59.8264H120.701V50.6266C120.701 49.7563 120.53 48.8944 120.197 48.0902C119.863 47.286 119.375 46.5553 118.758 45.9397C118.142 45.3241 117.41 44.8358 116.605 44.5026C115.8 44.1695 114.937 43.998 114.065 43.998V43.9628Z" fill="var(--sapContent_Illustrative_Color15)"/>
<path d="M148.704 87.8026V117.779H78.9389V87.8026C78.8243 83.1569 79.6418 78.5352 81.3433 74.2098C83.0448 69.8843 85.5959 65.9424 88.8463 62.6162C92.0968 59.29 95.981 56.6467 100.27 54.8419C104.559 53.0371 109.167 52.1074 113.821 52.1074C118.476 52.1074 123.084 53.0371 127.373 54.8419C131.662 56.6467 135.546 59.29 138.797 62.6162C142.047 65.9424 144.598 69.8843 146.3 74.2098C148.001 78.5352 148.819 83.1569 148.704 87.8026V87.8026Z" fill="var(--sapContent_Illustrative_Color3)"/>
<path d="M114.065 138.246C115.756 138.248 117.409 137.748 118.816 136.812C120.222 135.875 121.319 134.542 121.967 132.983C122.615 131.424 122.786 129.708 122.456 128.052C122.127 126.396 121.314 124.874 120.119 123.68C118.924 122.486 117.401 121.673 115.742 121.343C114.084 121.013 112.365 121.181 110.803 121.827C109.24 122.473 107.905 123.567 106.965 124.97C106.026 126.374 105.524 128.024 105.524 129.712C105.525 130.833 105.743 131.943 106.166 132.981C107.04 135.065 108.7 136.722 110.788 137.595C111.827 138.025 112.94 138.246 114.065 138.246V138.246Z" fill="var(--sapContent_Illustrative_Color3)"/>
<path d="M156.532 121.227C153.835 120.287 151.218 119.134 148.704 117.779H78.939C76.4276 119.134 73.8124 120.287 71.1179 121.227C68.9025 121.692 67.0822 123.027 67.0822 125.26C67.0816 126.327 67.5054 127.351 68.2604 128.106C68.6362 128.481 69.0821 128.779 69.5728 128.983C70.0611 129.193 70.5864 129.303 71.1179 129.307H156.515C157.045 129.309 157.571 129.205 158.061 129.003C158.552 128.801 158.997 128.505 159.373 128.13C159.748 127.756 160.046 127.311 160.248 126.822C160.451 126.332 160.555 125.808 160.554 125.278C160.572 123.027 158.723 121.682 156.532 121.227Z" fill="var(--sapContent_Illustrative_Color15)"/>
<path opacity="0.3" d="M110.382 53.1309C101.769 53.9861 93.7824 58.0063 87.9719 64.4109C82.1614 70.8154 78.9421 79.1472 78.9391 87.7885V117.765H143.949V87.9435C143.944 78.9297 140.444 70.2678 134.182 63.7747C127.92 57.2816 119.383 53.4619 110.361 53.1168L110.382 53.1309Z" fill="var(--sapContent_Illustrative_Color15)"/>
<path d="M116.591 30.1913C116.725 30.5199 116.792 30.872 116.789 31.2268V44.6954H152.334C149.642 39.4178 146.37 34.4562 142.577 29.9025H116.436C116.492 29.9835 116.545 30.0927 116.591 30.1913Z" fill="var(--sapContent_Illustrative_Color6)"/>
<path d="M111.581 30.1878C111.625 30.0835 111.676 29.9822 111.733 29.8849H77.6761C77.3689 29.8738 77.0633 29.934 76.7835 30.061C76.5 30.1952 76.2513 30.3928 76.0568 30.6386L71.2344 36.1684C70.8714 36.5697 70.6705 37.0911 70.6705 37.6318C70.6705 38.1725 70.8714 38.694 71.2344 39.0953L75.9827 44.0262C76.399 44.4414 76.9607 44.6789 77.5491 44.6884H111.391V31.2198C111.387 30.8668 111.452 30.5163 111.581 30.1878V30.1878Z" fill="var(--sapContent_Illustrative_Color6)"/>
<path d="M125.852 3.25677L115.782 6.03977L126.821 6.42363L125.852 3.25677Z" fill="var(--sapContent_Illustrative_Color3)"/>
<path d="M122.076 7.86314L115.782 6.03979L122.947 6.23173L122.076 7.86314Z" fill="var(--sapContent_Illustrative_Color15)"/>
<path d="M131.531 30.1145H146.36C149.824 30.1145 151.562 25.9665 149.123 23.5339L138.565 13.031L129.808 4.32033C126.707 1.23547 121.391 3.40727 121.391 7.76651V20.059C121.391 22.7249 122.459 25.2817 124.36 27.1674C126.261 29.053 128.841 30.1131 131.531 30.1145V30.1145Z" fill="var(--sapContent_Illustrative_Color20)"/>
<path opacity="0.5" d="M127.943 7.26595C127.268 6.59712 127.268 5.51293 127.942 4.84436C128.617 4.17578 129.711 4.17599 130.386 4.84482L156.778 31.0014C157.453 31.6702 157.453 32.7544 156.779 33.423C156.104 34.0915 155.01 34.0913 154.335 33.4225L127.943 7.26595Z" fill="var(--sapContent_Illustrative_Color8)"/>
<path d="M131.536 8.97852L127.712 12.7684C126.676 13.7958 126.093 15.1893 126.093 16.6422C126.093 18.0952 126.676 19.4886 127.712 20.516L131.201 23.9729C133.252 26.0061 136.033 27.1487 138.934 27.1494C141.835 27.1501 144.618 26.0088 146.67 23.9766V23.9766L131.536 8.97852Z" fill="var(--sapContent_Illustrative_Color4)"/>
<path d="M149.117 23.5339L138.559 13.031L129.801 4.32036C128.139 2.6664 129.701 6.35259 127.926 7.2487C127.609 6.92639 127.433 6.49342 127.436 6.0435C127.439 5.59358 127.62 5.16291 127.941 4.84472C128.265 4.52388 128.705 4.34366 129.163 4.34366C129.621 4.34366 130.06 4.52388 130.384 4.84472L156.778 31.0028C157.102 31.3239 157.284 31.7593 157.284 32.2133C157.284 32.6672 157.102 33.1026 156.778 33.4237V33.4237C156.618 33.5828 156.427 33.709 156.218 33.795C156.008 33.8811 155.783 33.9254 155.556 33.9254C155.329 33.9254 155.105 33.8811 154.895 33.795C154.685 33.709 154.495 33.5828 154.334 33.4237L149.464 28.5975C150.541 27.1627 150.617 25.0261 149.117 23.5339Z" fill="var(--sapContent_Illustrative_Color4)"/>
<path d="M129.801 4.32034L138.559 13.031L149.117 23.5339C150.617 25.0261 150.541 27.1627 149.46 28.5923L124.078 3.43857C124.073 3.4326 124.068 3.42694 124.063 3.42162C125.835 2.52551 128.139 2.66638 129.801 4.32034Z" fill="var(--sapContent_Illustrative_Color4)"/>
<path d="M125.172 7.04315C125.056 7.23794 124.571 7.1626 124.088 6.87486C123.605 6.58712 123.308 6.19595 123.424 6.00115C123.54 5.80635 124.026 5.8817 124.509 6.16943C124.991 6.45717 125.288 6.84835 125.172 7.04315Z" fill="var(--sapContent_Illustrative_Color4)"/>
<path d="M113.123 6.73148C113.407 7.10695 113.154 7.64701 112.683 7.66882L108.03 7.88465C105.745 7.99061 104.167 5.62982 105.138 3.55897V3.55897C106.109 1.48813 108.933 1.19173 110.313 3.01589L113.123 6.73148Z" fill="var(--sapContent_Illustrative_Color18)"/>
<path d="M116.591 30.1913C116.545 30.0864 116.493 29.9841 116.436 29.8849C116.201 29.4667 115.857 29.1195 115.441 28.8796C115.025 28.6398 114.552 28.5162 114.072 28.5219C113.709 28.5158 113.349 28.5841 113.014 28.7226C112.685 28.8608 112.385 29.0605 112.132 29.3108C111.958 29.4809 111.808 29.6741 111.687 29.8849C111.63 29.9822 111.579 30.0834 111.536 30.1878C111.398 30.523 111.33 30.8823 111.334 31.2445V44.7518H116.742V31.2268C116.761 30.875 116.71 30.5231 116.591 30.1913V30.1913Z" fill="var(--sapContent_Illustrative_Color4)"/>
<path d="M37.3501 101.997C38.1411 101.997 38.7824 101.356 38.7824 100.567C38.7824 99.7769 38.1411 99.1367 37.3501 99.1367C36.5591 99.1367 35.9178 99.7769 35.9178 100.567C35.9178 101.356 36.5591 101.997 37.3501 101.997Z" fill="var(--sapContent_Illustrative_Color10)"/>
<path d="M12.3983 90.3667C13.1894 90.3667 13.8306 89.7265 13.8306 88.9367C13.8306 88.1469 13.1894 87.5067 12.3983 87.5067C11.6073 87.5067 10.9661 88.1469 10.9661 88.9367C10.9661 89.7265 11.6073 90.3667 12.3983 90.3667Z" fill="var(--sapContent_Illustrative_Color10)"/>
<path d="M65.6324 55.1385C66.4234 55.1385 67.0646 54.4982 67.0646 53.7085C67.0646 52.9187 66.4234 52.2785 65.6324 52.2785C64.8413 52.2785 64.2001 52.9187 64.2001 53.7085C64.2001 54.4982 64.8413 55.1385 65.6324 55.1385Z" fill="var(--sapContent_Illustrative_Color10)"/>
<path d="M19.3127 57.8364C20.8051 57.8364 22.015 56.6285 22.015 55.1385C22.015 53.6485 20.8051 52.4406 19.3127 52.4406C17.8203 52.4406 16.6105 53.6485 16.6105 55.1385C16.6105 56.6285 17.8203 57.8364 19.3127 57.8364Z" fill="var(--sapContent_Illustrative_Color10)"/>
<path d="M52.8124 28.5183C54.3048 28.5183 55.5147 27.3104 55.5147 25.8204C55.5147 24.3303 54.3048 23.1224 52.8124 23.1224C51.3199 23.1224 50.1101 24.3303 50.1101 25.8204C50.1101 27.3104 51.3199 28.5183 52.8124 28.5183Z" fill="var(--sapContent_Illustrative_Color10)"/>
</svg>
