<svg xmlns="http://www.w3.org/2000/svg" xmlns:xlink="http://www.w3.org/1999/xlink" width="160" height="160" viewBox="0 0 160 160" id="sapIllus-Dialog-NoSearchResults">
    <path class="sapIllus_PatternShadow" d="M78.8168,82.9083A24.9673,24.9673,0,0,0,81.68,38.4427a29.0881,29.0881,0,0,1,.7673,3.0192A29.5484,29.5484,0,0,1,58.8452,75.9465a34.2358,34.2358,0,0,1-8.5962.3437c-.06-.006-.1125-.016-.1721-.0223A24.983,24.983,0,0,0,78.8168,82.9083Z"/>
    <ellipse class="sapIllus_BackgroundColor" cx="80.5" cy="142" rx="42.5" ry="6"/>
    <polygon class="sapIllus_StrokeDetailColor" points="82.398 89.003 83.107 89.911 82.404 89 82.398 89.003"/>
    <path class="sapIllus_StrokeDetailColor" d="M95.38,85.7983,92.3262,81.84l.0091-.01-.383.3661a41.0522,41.0522,0,0,1-7.9661,5.9209L82.4041,89l.7029.9112.2914.3733S92.0187,90.7408,95.38,85.7983Z"/>
      <path class="sapIllus_StrokeDetailColor" d="M52.7451,49.4438a.4992.4992,0,0,1-.414-.78,20.3084,20.3084,0,0,1,1.5507-2.0118.5.5,0,0,1,.752.6592,19.3825,19.3825,0,0,0-1.4746,1.9121A.4987.4987,0,0,1,52.7451,49.4438Z"/>
      <path class="sapIllus_StrokeDetailColor" d="M52.7451,49.4438a.4992.4992,0,0,1-.414-.78,20.3084,20.3084,0,0,1,1.5507-2.0118.5.5,0,0,1,.752.6592,19.3825,19.3825,0,0,0-1.4746,1.9121A.4987.4987,0,0,1,52.7451,49.4438Z"/>
      <path class="sapIllus_StrokeDetailColor" d="M50.5947,67.1768a.5.5,0,0,1-.4707-.3306,20.7026,20.7026,0,0,1-1.2168-6.8169,19.9752,19.9752,0,0,1,2.27-9.4312.5.5,0,0,1,.8867.4639A18.9645,18.9645,0,0,0,49.9072,60.02a19.7034,19.7034,0,0,0,1.1582,6.4878.5.5,0,0,1-.4707.6695Z"/>
      <path class="sapIllus_StrokeDetailColor" d="M50.5947,67.1768a.5.5,0,0,1-.4707-.3306,20.7026,20.7026,0,0,1-1.2168-6.8169,19.9752,19.9752,0,0,1,2.27-9.4312.5.5,0,0,1,.8867.4639A18.9645,18.9645,0,0,0,49.9072,60.02a19.7034,19.7034,0,0,0,1.1582,6.4878.5.5,0,0,1-.4707.6695Z"/>
    <path class="sapIllus_BrandColorSecondary" d="M117.76,114.8087l-22.38-29.01c-3.3608,4.9424-11.9811,4.4859-11.9811,4.4859l24.6323,31.9374a6.1156,6.1156,0,1,0,9.7289-7.4129Z"/>
    <path class="sapIllus_BrandColorSecondary" d="M91.9523,82.196l.383-.366a31.9783,31.9783,0,0,0,7.5153-30.15A17.5219,17.5219,0,0,1,89,35.5c0-.1463.0183-.2879.0219-.4331a31.975,31.975,0,1,0-8.9769,54.92c.8078-.2976,1.59-.6328,2.3589-.9872l0,0,1.5821-.8827A41.044,41.044,0,0,0,91.9523,82.196Zm-13.1355.7123A24.977,24.977,0,1,1,93.0494,53.24,24.9806,24.9806,0,0,1,78.8168,82.9083Z"/>
    <path class="sapIllus_Layering1" d="M106.5009,21.0009A14.4993,14.4993,0,1,0,121,35.5,14.5159,14.5159,0,0,0,106.5009,21.0009Z"/>
    <path class="sapIllus_ObjectFillColor" d="M106.5005,18A17.5,17.5,0,1,0,124,35.5,17.52,17.52,0,0,0,106.5005,18ZM121,35.5a14.4993,14.4993,0,1,1-14.4988-14.499A14.5158,14.5158,0,0,1,121,35.5Z"/>
    <path class="sapIllus_ObjectFillColor" d="M108.6828,35.4925l5.3047-5.3071a1.5438,1.5438,0,0,0,0-2.1847,1.58,1.58,0,0,0-2.1837,0l-5.3047,5.3071-5.3046-5.3071a1.58,1.58,0,0,0-2.1837,0,1.5479,1.5479,0,0,0,0,2.1847l5.3046,5.3071L99.0108,40.8a1.5479,1.5479,0,0,0,0,2.1847,1.58,1.58,0,0,0,2.1837,0l5.3046-5.3071,5.3047,5.3071A1.5445,1.5445,0,1,0,113.9875,40.8Z"/>
</svg>
