<svg width="121" height="160" viewBox="0 0 121 160" fill="none" xmlns="http://www.w3.org/2000/svg" id="sapIllus-Dialog-SimpleTask">
<g clip-path="url(#clip0_101_5701)">
<path d="M81.7354 125.503C82.7158 125.386 83.6505 125.022 84.4521 124.446C84.1924 124.323 83.9734 124.127 83.821 123.884C83.6687 123.64 83.5893 123.358 83.5924 123.07L84.0738 97.2779C84.0808 96.9128 84.218 96.5622 84.4608 96.2894C84.7036 96.0167 85.036 95.8397 85.3978 95.7906L105.026 93.0308C105.318 92.9861 105.617 93.0279 105.885 93.1512C106.13 92.3796 106.209 91.5653 106.118 90.7611L98.9216 29.8829C98.7475 28.4612 98.0598 27.152 96.9878 26.202C95.9158 25.2519 94.5335 24.7265 93.1011 24.7245C92.8655 24.726 92.6302 24.7403 92.3961 24.7675L6.92079 34.878C6.15266 34.9654 5.40938 35.2039 4.73376 35.5797C4.05815 35.9555 3.46354 36.4611 2.98411 37.0676C2.50468 37.6741 2.14992 38.3694 1.94024 39.1135C1.73056 39.8576 1.6701 40.6358 1.76235 41.4034L11.9847 127.867C12.0743 128.635 12.3141 129.377 12.6906 130.051C13.0671 130.726 13.5728 131.319 14.1787 131.799C14.7847 132.278 15.4791 132.633 16.2223 132.843C16.9655 133.054 17.7429 133.116 18.5101 133.026L81.7354 125.503ZM49.8562 34.6115C51.0859 34.6853 52.267 35.1174 53.254 35.8546C54.241 36.5917 54.9906 37.6016 55.4105 38.7597C55.8304 39.9178 55.9021 41.1734 55.6169 42.3718C55.3316 43.5702 54.7019 44.6589 53.8053 45.5037C52.9087 46.3484 51.7845 46.9123 50.5712 47.1257C49.358 47.3391 48.1088 47.1927 46.9777 46.7047C45.8467 46.2166 44.8832 45.4082 44.2061 44.3791C43.5291 43.35 43.1679 42.1452 43.1674 40.9134C43.2191 39.1908 43.9527 37.5593 45.207 36.3776C46.4613 35.1958 48.1336 34.5606 49.8562 34.6115Z" fill="var(--sapContent_Illustrative_Color6)"/>
<path d="M107.82 90.5548L100.624 29.6765C100.507 28.6863 100.196 27.7289 99.7083 26.859C99.2209 25.989 98.5669 25.2237 97.7837 24.6065C97.0005 23.9894 96.1034 23.5325 95.1436 23.2622C94.1839 22.9918 93.1802 22.9132 92.19 23.0308L6.70606 33.1327C5.71539 33.2489 4.75736 33.5594 3.88687 34.0464C3.01639 34.5334 2.25055 35.1874 1.6332 35.9708C1.01586 36.7543 0.559139 37.6518 0.289228 38.6121C0.019317 39.5723 -0.058466 40.5764 0.0602824 41.5667L10.2826 128.031C10.5011 129.876 11.3881 131.577 12.7758 132.813C14.1635 134.048 15.9558 134.733 17.8139 134.737C18.1012 134.735 18.3882 134.718 18.6736 134.685L81.8903 127.214C82.97 127.086 84.0096 126.728 84.9394 126.164C85.8692 125.601 86.6676 124.845 87.2809 123.947L106.513 95.7304C107.56 94.2196 108.024 92.3812 107.82 90.5548ZM11.9849 127.833L1.76255 41.369C1.67031 40.6015 1.73076 39.8232 1.94044 39.0791C2.15012 38.335 2.50488 37.6397 2.98431 37.0332C3.46374 36.4267 4.05835 35.921 4.73396 35.5453C5.40958 35.1695 6.15286 34.931 6.92099 34.8436L92.405 24.733C92.639 24.7059 92.8743 24.6915 93.1099 24.69C94.5423 24.692 95.9246 25.2175 96.9966 26.1676C98.0685 27.1176 98.7563 28.4267 98.9304 29.8485L106.126 90.7267C106.218 91.5308 106.138 92.3452 105.894 93.1168C105.626 92.9936 105.327 92.9517 105.035 92.9964L85.4067 95.7562C85.0448 95.8054 84.7125 95.9823 84.4697 96.2551C84.2269 96.5278 84.0896 96.8784 84.0827 97.2435L83.6012 123.036C83.5981 123.323 83.6774 123.606 83.8298 123.849C83.9822 124.093 84.2012 124.288 84.461 124.411C83.6594 124.988 82.7246 125.352 81.7441 125.469L18.5189 132.949C16.9747 133.133 15.4202 132.699 14.1957 131.74C12.9711 130.781 12.1762 129.376 11.9849 127.833Z" fill="var(--sapContent_Illustrative_Color6)"/>
<path d="M86.7994 120.74C87.7789 120.619 88.7127 120.256 89.5163 119.683C89.2572 119.559 89.0387 119.364 88.8865 119.12C88.7342 118.876 88.6545 118.594 88.6565 118.307L89.138 92.515C89.1446 92.149 89.2816 91.7972 89.5242 91.523C89.7669 91.2488 90.0994 91.0702 90.4619 91.0191L110.09 88.2679C110.382 88.2211 110.681 88.2631 110.95 88.3883C111.191 87.6161 111.267 86.8018 111.173 85.9982L103.977 25.12C103.803 23.6982 103.115 22.3892 102.043 21.4391C100.971 20.489 99.589 19.9635 98.1566 19.9616C97.9218 19.9488 97.6865 19.9488 97.4516 19.9616L11.9763 30.0635C11.2082 30.1531 10.4654 30.3933 9.79025 30.7703C9.11513 31.1473 8.521 31.6538 8.04186 32.2607C7.56271 32.8676 7.20797 33.5631 6.99793 34.3072C6.78789 35.0514 6.72672 35.8297 6.81784 36.5976L17.0487 123.07C17.1383 123.837 17.3782 124.58 17.7547 125.254C18.1312 125.929 18.6369 126.522 19.2428 127.001C19.8488 127.48 20.5432 127.835 21.2864 128.046C22.0296 128.256 22.807 128.319 23.5742 128.229L86.7994 120.74ZM54.9203 29.8486C56.15 29.9224 57.3311 30.3546 58.3181 31.0917C59.3051 31.8288 60.0547 32.8387 60.4746 33.9968C60.8945 35.1549 60.9662 36.4106 60.681 37.609C60.3958 38.8074 59.766 39.8961 58.8694 40.7408C57.9728 41.5855 56.8485 42.1494 55.6353 42.3628C54.422 42.5763 53.1729 42.4299 52.0418 41.9418C50.9108 41.4538 49.9473 40.6453 49.2702 39.6162C48.5931 38.5871 48.232 37.3824 48.2315 36.1505C48.2854 34.4287 49.0197 32.7986 50.2735 31.6173C51.5273 30.436 53.1984 29.8 54.9203 29.8486Z" fill="var(--sapContent_Illustrative_Color8)"/>
<path d="M112.884 85.7918L105.688 24.9136C105.451 22.9132 104.429 21.0887 102.848 19.8409C101.267 18.5931 99.2544 18.0242 97.2538 18.2593L11.7698 28.4128C10.7791 28.529 9.82112 28.8395 8.95063 29.3265C8.08015 29.8135 7.31431 30.4675 6.69696 31.2509C6.07962 32.0344 5.6229 32.9319 5.35299 33.8922C5.08308 34.8524 5.00524 35.8565 5.12399 36.8468L15.3463 123.311C15.5651 125.158 16.4533 126.86 17.8428 128.096C19.2323 129.332 21.0267 130.015 22.8863 130.017C23.1736 130.015 23.4606 129.998 23.746 129.965L86.9627 122.494C88.0423 122.366 89.0819 122.008 90.0117 121.444C90.9415 120.881 91.7399 120.125 92.3532 119.227L111.586 91.0105C112.639 89.4869 113.101 87.6314 112.884 85.7918ZM17.0486 123.07L6.82631 36.6061C6.73519 35.8383 6.79637 35.06 7.0064 34.3158C7.21644 33.5716 7.57119 32.8762 8.05033 32.2692C8.52947 31.6623 9.12361 31.1559 9.79872 30.7789C10.4738 30.4018 11.2167 30.1617 11.9848 30.0721L97.4601 19.9701C97.6949 19.9573 97.9303 19.9573 98.1651 19.9701C99.5975 19.9721 100.98 20.4976 102.052 21.4476C103.124 22.3977 103.811 23.7068 103.986 25.1286L111.173 86.0154C111.267 86.8189 111.191 87.6333 110.949 88.4055C110.681 88.2802 110.382 88.2383 110.09 88.2851L90.4618 91.0363C90.0992 91.0874 89.7668 91.266 89.5241 91.5402C89.2814 91.8144 89.1445 92.1661 89.1378 92.5322L88.6564 118.324C88.6543 118.612 88.7341 118.894 88.8863 119.137C89.0386 119.381 89.257 119.576 89.5161 119.7C88.7126 120.273 87.7788 120.636 86.7993 120.757L23.574 128.229C22.8068 128.319 22.0294 128.256 21.2863 128.046C20.5431 127.835 19.8487 127.48 19.2427 127.001C18.6367 126.522 18.131 125.928 17.7546 125.254C17.3781 124.579 17.1382 123.837 17.0486 123.07ZM109.901 90.0303L90.3759 117.731L90.8487 92.7042L109.901 90.0303Z" fill="var(--sapContent_Illustrative_Color4)"/>
<path d="M90.4016 117.731L109.918 90.0217L90.8745 92.7041L90.4016 117.731Z" fill="var(--sapContent_Illustrative_Color8)"/>
<path d="M54.9202 42.4438C58.6143 42.4438 61.609 39.6223 61.609 36.1419C61.609 32.6614 58.6143 29.84 54.9202 29.84C51.2261 29.84 48.2314 32.6614 48.2314 36.1419C48.2314 39.6223 51.2261 42.4438 54.9202 42.4438Z" fill="var(--sapContent_Illustrative_Color3)"/>
<path d="M84.742 56.4034L33.1723 61.7963C31.0802 62.0151 29.5616 63.8884 29.7804 65.9804L29.9932 68.0155C30.212 70.1076 32.0853 71.6261 34.1773 71.4074L85.747 66.0145C87.8391 65.7957 89.3577 63.9224 89.1389 61.8304L88.9261 59.7953C88.7074 57.7032 86.834 56.1846 84.742 56.4034Z" fill="var(--sapContent_Illustrative_Color6)"/>
<path d="M67.4777 75.4045L34.694 78.8329C32.9939 79.0107 31.7599 80.533 31.9376 82.2331L32.2989 85.6876C32.4767 87.3877 33.999 88.6217 35.6991 88.4439L68.4827 85.0156C70.1828 84.8378 71.4169 83.3155 71.2391 81.6154L70.8778 78.1609C70.7 76.4608 69.1777 75.2267 67.4777 75.4045Z" fill="var(--sapContent_Illustrative_Color6)"/>
<path d="M80.0331 61.0829C79.7125 60.7528 79.329 60.4903 78.9052 60.311C78.4813 60.1318 78.0258 60.0394 77.5656 60.0394C77.1055 60.0394 76.65 60.1318 76.2261 60.311C75.8023 60.4903 75.4187 60.7528 75.0982 61.0829L51.0255 85.1557L42.8579 76.9881C42.5333 76.6641 42.1481 76.4072 41.7242 76.232C41.3003 76.0569 40.8461 75.9669 40.3874 75.9673C39.9288 75.9677 39.4747 76.0584 39.0511 76.2343C38.6275 76.4102 38.2428 76.6678 37.9187 76.9924C37.5947 77.317 37.3378 77.7022 37.1626 78.1261C36.9875 78.55 36.8976 79.0043 36.898 79.4629C36.8983 79.9216 36.9891 80.3757 37.1649 80.7992C37.3408 81.2228 37.5984 81.6076 37.923 81.9316L48.558 92.5838C48.8786 92.914 49.2621 93.1765 49.686 93.3557C50.1098 93.535 50.5653 93.6273 51.0255 93.6273C51.4857 93.6273 51.9411 93.535 52.365 93.3557C52.7888 93.1765 53.1724 92.914 53.4929 92.5838L80.0675 66.0092C80.3977 65.6887 80.6602 65.3051 80.8394 64.8813C81.0187 64.4575 81.111 64.002 81.111 63.5418C81.111 63.0816 81.0187 62.6261 80.8394 62.2023C80.6602 61.7784 80.3977 61.3949 80.0675 61.0743L80.0331 61.0829Z" fill="var(--sapContent_Illustrative_Color3)"/>
<path d="M59.7783 33.7969C60.0056 33.4634 59.4077 32.6596 58.4426 32.0016C57.4776 31.3435 56.5109 31.0804 56.2835 31.4138C56.0561 31.7473 56.6542 32.5511 57.6192 33.2091C58.5843 33.8672 59.5509 34.1303 59.7783 33.7969Z" fill="var(--sapContent_Illustrative_Color8)"/>
</g>
<path d="M120.58 20.4091C120.44 20.2427 120.257 20.1173 120.052 20.0462C119.846 19.9752 119.626 19.9611 119.413 20.0054L114.32 20.886C114.145 20.9165 113.978 20.9822 113.83 21.0789C113.681 21.1757 113.553 21.3016 113.455 21.449C113.356 21.5965 113.288 21.7624 113.255 21.9368C113.222 22.1112 113.225 22.2904 113.263 22.4637C113.299 22.7358 113.422 22.989 113.614 23.1849C113.806 23.3809 114.056 23.509 114.327 23.5498C114.459 23.5677 114.592 23.5677 114.724 23.5498L119.816 22.6692C120.041 22.6349 120.253 22.5404 120.429 22.3957C120.604 22.251 120.738 22.0616 120.814 21.8473C120.904 21.6079 120.929 21.3492 120.888 21.097C120.847 20.8447 120.741 20.6076 120.58 20.4091Z" fill="var(--sapContent_Illustrative_Color5)"/>
<path d="M101.251 0.0668457C101.102 0.0129612 100.944 -0.00874538 100.786 0.00317922C100.629 0.0151038 100.475 0.0603829 100.337 0.13601C100.198 0.211637 100.077 0.315889 99.9813 0.441858C99.8859 0.567827 99.8183 0.71264 99.7831 0.866697L98.3742 5.70251C98.3243 5.87645 98.3096 6.05863 98.3312 6.23831C98.3527 6.41799 98.4099 6.59156 98.4995 6.74881C98.589 6.90605 98.7091 7.0438 98.8527 7.15396C98.9963 7.26412 99.1604 7.34448 99.3355 7.39029C99.4073 7.412 99.481 7.42675 99.5556 7.43431C99.8284 7.47251 100.106 7.40703 100.333 7.25079C100.559 7.09456 100.719 6.85891 100.781 6.59041L102.183 1.76195C102.234 1.58947 102.251 1.40846 102.232 1.22946C102.213 1.05046 102.158 0.877053 102.072 0.71931C101.985 0.561566 101.868 0.422642 101.727 0.310628C101.586 0.198615 101.424 0.115749 101.251 0.0668457Z" fill="var(--sapContent_Illustrative_Color5)"/>
<path d="M113.726 6.61322C113.556 6.60493 113.386 6.63051 113.226 6.68846C113.066 6.74641 112.919 6.83558 112.794 6.95079L107.158 12.0875C106.907 12.3201 106.755 12.6408 106.735 12.9826C106.714 13.3244 106.826 13.661 107.048 13.922C107.252 14.164 107.541 14.3189 107.855 14.3549C108.036 14.3769 108.22 14.3594 108.393 14.3037C108.567 14.2479 108.726 14.1553 108.861 14.0321L114.496 8.89538C114.75 8.66473 114.905 8.3443 114.926 8.0019C114.948 7.6595 114.836 7.322 114.614 7.06085C114.503 6.93033 114.368 6.8234 114.215 6.74648C114.063 6.66957 113.896 6.62424 113.726 6.61322Z" fill="var(--sapContent_Illustrative_Color5)"/>
<path d="M58.9474 160C82.6665 160 101.895 157.172 101.895 153.684C101.895 150.196 82.6665 147.368 58.9474 147.368C35.2282 147.368 16 150.196 16 153.684C16 157.172 35.2282 160 58.9474 160Z" fill="var(--sapContent_Illustrative_Color6)"/>
<defs>
<clipPath id="clip0_101_5701">
<rect width="112.935" height="116.529" fill="var(--sapContent_Illustrative_Color8)" transform="translate(0 18.2077)"/>
</clipPath>
</defs>
</svg>
