<svg width="160" height="160" viewBox="0 0 160 160" fill="none" xmlns="http://www.w3.org/2000/svg" id="sapIllus-Dialog-NoDimensionsSet">
<mask id="mask0_107_1472" style="mask-type:alpha" maskUnits="userSpaceOnUse" x="0" y="0" width="160" height="160">
<circle cx="79.6135" cy="79.6135" r="79.6135" style="fill:var(--sapContent_Illustrative_Color7)"/>
</mask>
<g mask="url(#mask0_107_1472)">
<path d="M191.354 -2.43719H-45.1252C-46.6666 -2.43861 -48.1932 -2.13623 -49.6177 -1.54734C-51.0422 -0.95845 -52.3366 -0.0945888 -53.4271 0.994859C-54.5175 2.08431 -55.3826 3.37797 -55.9728 4.80193C-56.563 6.22588 -56.8668 7.75219 -56.8668 9.29362V148.298C-56.8668 151.412 -55.6297 154.398 -53.4278 156.6C-51.2258 158.802 -48.2392 160.039 -45.1252 160.039H191.354C194.468 160.039 197.455 158.802 199.657 156.6C201.859 154.398 203.096 151.412 203.096 148.298V9.29362C203.096 7.75219 202.792 6.22588 202.202 4.80193C201.611 3.37797 200.746 2.08431 199.656 0.994859C198.566 -0.0945888 197.271 -0.95845 195.847 -1.54734C194.422 -2.13623 192.895 -2.43861 191.354 -2.43719Z" style="fill:var(--sapContent_Illustrative_Color7)"/>
<path d="M-27.4559 95.1899H67.3027C68.7631 95.1899 69.947 96.3697 69.947 97.8251V158.983C69.947 160.439 68.7631 161.619 67.3027 161.619H-27.4559C-28.9163 161.619 -30.1002 160.439 -30.1002 158.983V97.8251C-30.1002 96.3697 -28.9163 95.1899 -27.4559 95.1899Z" style="fill:var(--sapContent_Illustrative_Color18)"/>
<path d="M-25.2621 98.7696H65.2404C66.5958 98.7696 67.6946 99.8646 67.6946 101.215V156.301C67.6946 157.652 66.5958 158.747 65.2404 158.747H-25.2621C-26.6175 158.747 -27.7163 157.652 -27.7163 156.301V101.215C-27.7163 99.8646 -26.6175 98.7696 -25.2621 98.7696Z" style="fill:var(--sapContent_Illustrative_Color7)"/>
<path d="M19.7406 97.5307C19.3868 97.5307 19.1 97.2449 19.1 96.8923C19.1 96.5397 19.3868 96.2539 19.7406 96.2539C20.0944 96.2539 20.3812 96.5397 20.3812 96.8923C20.3812 97.2449 20.0944 97.5307 19.7406 97.5307Z" style="fill:var(--sapContent_Illustrative_Color19)"/>
<path d="M-25.6847 67.5171L20.7039 51.5904C22.6707 50.9151 24.8112 51.9657 25.485 53.9368L48.6062 121.58C49.28 123.551 48.2318 125.696 46.265 126.372L-0.123523 142.298C-2.09027 142.974 -4.23083 141.923 -4.90458 139.952L-28.0258 72.3088C-28.6996 70.3377 -27.6514 68.1923 -25.6847 67.5171Z" style="fill:var(--sapContent_Illustrative_Color18)"/>
<path fill-rule="evenodd" clip-rule="evenodd" d="M16.4452 76.3806C17.3333 76.4896 17.9649 77.2981 17.8558 78.1862L15.0125 101.339C14.9452 101.887 14.604 102.362 14.1068 102.602C13.6097 102.841 13.025 102.811 12.5551 102.522L4.0735 97.3021L1.19522 116.011C1.05915 116.895 0.231874 117.502 -0.652562 117.366C-1.537 117.23 -2.14367 116.403 -2.0076 115.518L1.24193 94.3962C1.32449 93.8596 1.67034 93.4 2.16313 93.172C2.65591 92.9441 3.23011 92.9781 3.69251 93.2627L12.1038 98.4389L14.6395 77.7912C14.7486 76.9031 15.557 76.2715 16.4452 76.3806Z" style="fill:var(--sapContent_Illustrative_Color19)"/>
<path d="M-15.9854 80.8827C-16.1302 80.4594 -15.9045 79.9988 -15.4812 79.8539L-13.171 79.0634C-12.7477 78.9185 -12.2871 79.1443 -12.1422 79.5676L0.390247 116.192C0.535104 116.615 0.309363 117.076 -0.11396 117.221L-2.42411 118.011C-2.84744 118.156 -3.30803 117.931 -3.45289 117.507L-15.9854 80.8827Z" style="fill:var(--sapContent_Illustrative_Color7)"/>
<path d="M-1.96382 119.165C-2.38647 119.311 -2.84811 119.088 -2.99492 118.665L-3.79608 116.359C-3.94289 115.936 -3.71928 115.474 -3.29663 115.327L33.2696 102.626C33.6923 102.479 34.1539 102.703 34.3007 103.125L35.1019 105.432C35.2487 105.855 35.0251 106.316 34.6024 106.463L-1.96382 119.165Z" style="fill:var(--sapContent_Illustrative_Color7)"/>
<path d="M0.545564 126.691C0.245094 125.848 0.683295 124.917 1.52618 124.617L19.1347 118.34C19.9775 118.039 20.9059 118.483 21.2064 119.326C21.5069 120.169 21.0687 121.1 20.2258 121.4L2.61731 127.677C1.77442 127.978 0.846035 127.534 0.545564 126.691Z" style="fill:var(--sapContent_Illustrative_Color7)"/>
<path d="M193.036 75.3701L146.647 59.4434C144.68 58.7682 142.54 59.8187 141.866 61.7898L118.745 129.433C118.071 131.404 119.119 133.549 121.086 134.225L167.474 150.151C169.441 150.827 171.582 149.776 172.255 147.805L195.377 80.1618C196.05 78.1907 195.002 76.0454 193.036 75.3701Z" style="fill:var(--sapContent_Illustrative_Color18)"/>
<path d="M165.214 76.5303C163.682 75.9177 162.004 75.7739 160.391 76.1172C158.778 76.4605 157.302 77.2754 156.151 78.459C155 79.6425 154.226 81.1415 153.925 82.7664C153.624 84.3913 153.81 86.0691 154.46 87.5878C155.111 89.1065 156.196 90.3978 157.579 91.2984C158.961 92.1991 160.579 92.6687 162.228 92.6478C163.877 92.6269 165.483 92.1164 166.842 91.1811C168.202 90.2457 169.254 88.9273 169.866 87.3927L162.117 84.2962L165.214 76.5303Z" style="fill:var(--sapContent_Illustrative_Color7)"/>
<path d="M174.117 103.137L141.791 92.0386C140.719 91.6704 139.552 92.2432 139.184 93.318C138.817 94.3928 139.389 95.5626 140.461 95.9308L172.787 107.029C173.859 107.397 175.026 106.825 175.394 105.75C175.761 104.675 175.189 103.505 174.117 103.137Z" style="fill:var(--sapContent_Illustrative_Color7)"/>
<path d="M171.322 109.719L138.996 98.6209C137.924 98.2527 136.756 98.8255 136.389 99.9003C136.022 100.975 136.593 102.145 137.666 102.513L169.991 113.612C171.064 113.98 172.231 113.407 172.598 112.332C172.966 111.257 172.394 110.087 171.322 109.719Z" style="fill:var(--sapContent_Illustrative_Color7)"/>
<path d="M153.567 110.999L136.346 105.086C135.274 104.718 134.107 105.291 133.739 106.366C133.372 107.44 133.944 108.61 135.016 108.978L152.237 114.891C153.309 115.259 154.477 114.686 154.844 113.611C155.211 112.537 154.64 111.367 153.567 110.999Z" style="fill:var(--sapContent_Illustrative_Color7)"/>
</g>
<path d="M116.426 21.7157H35.6689C30.7755 21.7157 26.8086 25.6826 26.8086 30.576V130.456C26.8086 135.349 30.7755 139.316 35.6689 139.316H116.426C121.319 139.316 125.286 135.349 125.286 130.456V30.576C125.286 25.6826 121.319 21.7157 116.426 21.7157Z" style="fill:var(--sapContent_Illustrative_Color8)"/>
<path fill-rule="evenodd" clip-rule="evenodd" d="M35.8871 31.2367C35.8871 30.8339 35.9978 30.5111 36.1331 30.5111H115.451C115.587 30.5111 115.697 30.8185 115.697 31.2367V129.797C115.697 130.2 115.587 130.523 115.451 130.523H36.1331C35.9978 130.523 35.8871 130.215 35.8871 129.797V31.2367Z" style="fill:var(--sapContent_Illustrative_Color8)"/>
<path d="M57.2139 33.4137H41.5962C40.5435 33.4137 39.6901 34.2671 39.6901 35.3198C39.6901 36.3725 40.5435 37.2259 41.5962 37.2259H57.2139C58.2666 37.2259 59.12 36.3725 59.12 35.3198C59.12 34.2671 58.2666 33.4137 57.2139 33.4137Z" style="fill:var(--sapContent_Illustrative_Color14)"/>
<path d="M54.4297 86.2858C54.4297 85.3909 55.1551 84.6655 56.0499 84.6655H64.9951C65.89 84.6655 66.6154 85.3909 66.6154 86.2858V116.089C66.6154 116.984 65.89 117.709 64.9951 117.709H56.0499C55.1551 117.709 54.4297 116.984 54.4297 116.089V86.2858Z" style="fill:var(--sapContent_Illustrative_Color18)"/>
<path d="M73.1144 68.4134C73.1144 67.5185 73.8399 66.7931 74.7347 66.7931H83.6799C84.5748 66.7931 85.3002 67.5185 85.3002 68.4134V116.575C85.3002 117.469 84.5748 118.195 83.6799 118.195H74.7347C73.8399 118.195 73.1144 117.469 73.1144 116.575V68.4134Z" style="fill:var(--sapContent_Illustrative_Color18)"/>
<path d="M91.7993 99.2839C91.7993 98.389 92.5247 97.6636 93.4195 97.6636H102.365C103.26 97.6636 103.985 98.389 103.985 99.2839V116.237C103.985 117.132 103.26 117.857 102.365 117.857H93.4195C92.5247 117.857 91.7993 117.132 91.7993 116.237V99.2839Z" style="fill:var(--sapContent_Illustrative_Color18)"/>
<path fill-rule="evenodd" clip-rule="evenodd" d="M42.0253 59.7468C43.4235 59.7468 44.557 60.9055 44.557 62.3347V67.7262C44.557 69.1555 43.4235 70.3141 42.0253 70.3141C40.6271 70.3141 39.4937 69.1555 39.4937 67.7262V62.3347C39.4937 60.9055 40.6271 59.7468 42.0253 59.7468ZM42.0253 75.9212C43.4235 75.9212 44.557 77.0799 44.557 78.5091V89.2921C44.557 90.7213 43.4235 91.88 42.0253 91.88C40.6271 91.88 39.4937 90.7213 39.4937 89.2921V78.5091C39.4937 77.0799 40.6271 75.9212 42.0253 75.9212ZM42.0253 97.4871C43.4235 97.4871 44.557 98.6457 44.557 100.075V110.858C44.557 112.287 43.4235 113.446 42.0253 113.446C40.6271 113.446 39.4937 112.287 39.4937 110.858V100.075C39.4937 98.6457 40.6271 97.4871 42.0253 97.4871ZM42.0253 119.053C43.4235 119.053 44.557 120.212 44.557 121.641V127.032C44.557 128.462 43.4235 129.62 42.0253 129.62C40.6271 129.62 39.4937 128.462 39.4937 127.032L39.4937 121.641C39.4937 120.212 40.6271 119.053 42.0253 119.053Z" style="fill:var(--sapContent_Illustrative_Color6)"/>
<path fill-rule="evenodd" clip-rule="evenodd" d="M39.4937 128.101C39.4937 126.703 40.6523 125.57 42.0816 125.57H47.4731C48.9023 125.57 50.061 126.703 50.061 128.101C50.061 129.499 48.9023 130.633 47.4731 130.633H42.0816C40.6523 130.633 39.4937 129.499 39.4937 128.101ZM55.6681 128.101C55.6681 126.703 56.8267 125.57 58.256 125.57H69.0389C70.4682 125.57 71.6268 126.703 71.6268 128.101C71.6268 129.499 70.4682 130.633 69.0389 130.633H58.256C56.8267 130.633 55.6681 129.499 55.6681 128.101ZM77.2339 128.101C77.2339 126.703 78.3926 125.57 79.8219 125.57H90.6048C92.034 125.57 93.1927 126.703 93.1927 128.101C93.1927 129.499 92.034 130.633 90.6048 130.633H79.8219C78.3926 130.633 77.2339 129.499 77.2339 128.101ZM98.7998 128.101C98.7998 126.703 99.9585 125.57 101.388 125.57H106.779C108.208 125.57 109.367 126.703 109.367 128.101C109.367 129.499 108.208 130.633 106.779 130.633H101.388C99.9585 130.633 98.7998 129.499 98.7998 128.101Z" style="fill:var(--sapContent_Illustrative_Color6)"/>
<path opacity="0.5" d="M116.666 99.6905C134.717 99.6905 149.351 84.8694 149.351 66.556C149.351 48.2426 134.717 33.4122 116.666 33.4122C98.6148 33.4122 83.9805 48.2333 83.9805 66.556C83.9805 84.8786 98.6148 99.6905 116.666 99.6905Z" style="fill:var(--sapContent_Illustrative_Color7)"/>
<path d="M129.578 37.275L117.364 33.4122L96.8832 93.9658L109.106 97.8286L129.578 37.275Z" style="fill:var(--sapContent_Illustrative_Color8)"/>
<path d="M113.873 99.6905L134.744 39.0257L130.946 37.8215L110.065 98.4863L113.873 99.6905Z" style="fill:var(--sapContent_Illustrative_Color8)"/>
<path d="M132.939 96.0963L123.992 99.6904L129.708 113.771L138.645 110.176L132.939 96.0963Z" style="fill:var(--sapContent_Illustrative_Color6)"/>
<path d="M130.034 112.65C129.58 112.837 129.218 113.195 129.028 113.646C128.838 114.097 128.835 114.605 129.019 115.058L142.369 147.767C142.925 149.091 143.985 150.142 145.318 150.691C146.651 151.24 148.148 151.241 149.481 150.694L150.543 150.258C151.213 149.992 151.824 149.595 152.339 149.091C152.854 148.587 153.262 147.985 153.54 147.322C154.09 145.993 154.09 144.501 153.54 143.172L140.191 110.501C140.099 110.274 139.962 110.067 139.79 109.893C139.617 109.718 139.411 109.58 139.184 109.485C138.958 109.391 138.714 109.341 138.468 109.341C138.222 109.34 137.979 109.388 137.751 109.482L130.034 112.65Z" style="fill:var(--sapContent_Illustrative_Color3)"/>
<path d="M123.676 98.9494L124.607 101.163C124.607 101.163 129.261 103.229 134.177 98.9123L132.687 95.3645L128.582 97.3469L123.676 98.9494Z" style="fill:var(--sapContent_Illustrative_Color4)"/>
<path d="M116.889 100.839C108.941 100.859 101.231 98.1338 95.076 93.1295C88.9207 88.1253 84.7006 81.1515 83.1351 73.3972C81.5697 65.6429 82.756 57.5884 86.4917 50.6072C90.2273 43.6259 96.281 38.1502 103.621 35.1138C110.96 32.0774 119.131 31.6683 126.74 33.9563C134.348 36.2443 140.924 41.0877 145.345 47.6606C149.766 54.2334 151.759 62.1288 150.983 70.0002C150.208 77.8717 146.713 85.2318 141.094 90.8256C134.677 97.2225 125.972 100.824 116.889 100.839ZM116.889 35.339C109.592 35.3262 102.517 37.8319 96.8694 42.429C91.2217 47.0261 87.3511 53.4299 85.9174 60.5489C84.4838 67.6678 85.5758 75.0612 89.0074 81.4686C92.439 87.8761 97.9977 92.9009 104.736 95.6866C111.474 98.4724 118.975 98.8465 125.959 96.7452C132.944 94.644 138.979 90.1974 143.038 84.1635C147.096 78.1297 148.926 70.8821 148.215 63.6561C147.504 56.4302 144.296 49.6733 139.139 44.5373C136.22 41.6233 132.753 39.3108 128.935 37.7324C125.117 36.154 121.023 35.3406 116.889 35.339Z" style="fill:var(--sapContent_Illustrative_Color4)"/>
<path d="M157.704 29.9546C157.404 29.7925 157.065 29.7142 156.724 29.7281C156.383 29.742 156.052 29.8476 155.766 30.0336L148.84 34.2822C147.694 34.9843 147.658 36.3077 148.208 37.2047C148.42 37.58 148.748 37.8763 149.143 38.0492C149.538 38.2221 149.979 38.2622 150.399 38.1634C150.6 38.1097 150.792 38.0258 150.969 37.9146L157.894 33.666C158.202 33.4859 158.455 33.226 158.627 32.9139C158.799 32.6017 158.884 32.249 158.872 31.893C158.858 31.4972 158.744 31.1114 158.54 30.7721C158.336 30.4329 158.048 30.1515 157.704 29.9546Z" style="fill:var(--sapContent_Illustrative_Color5)"/>
<path d="M117.609 11.537C117.365 11.5495 117.126 11.6127 116.908 11.7226C116.689 11.8325 116.496 11.9867 116.341 12.1753C116.186 12.3639 116.071 12.5827 116.005 12.8179C115.939 13.0531 115.923 13.2993 115.958 13.541L116.719 21.4122C116.747 21.6951 116.832 21.9695 116.967 22.2193C117.103 22.4692 117.287 22.6895 117.509 22.8674C117.731 23.0454 117.986 23.1773 118.259 23.2556C118.533 23.3339 118.819 23.3569 119.102 23.3233C119.219 23.3127 119.335 23.2926 119.448 23.2631C119.87 23.16 120.237 22.903 120.478 22.5427C120.72 22.1824 120.817 21.7449 120.752 21.3165L119.989 13.4492C119.961 13.1663 119.877 12.8918 119.742 12.6418C119.607 12.3918 119.423 12.1714 119.201 11.9933C118.979 11.8152 118.724 11.6832 118.451 11.6048C118.178 11.5264 117.891 11.5034 117.609 11.537Z" style="fill:var(--sapContent_Illustrative_Color5)"/>
<path d="M139.69 13.8086C139.436 13.8912 139.202 14.0246 139.001 14.2007C138.801 14.3769 138.638 14.5921 138.524 14.8331L133.274 25.5932C133.042 26.0771 133.005 26.6321 133.172 27.142C133.339 27.652 133.697 28.0775 134.171 28.3295C134.612 28.5615 135.124 28.6195 135.606 28.492C135.883 28.418 136.141 28.2851 136.363 28.1024C136.584 27.9197 136.764 27.6915 136.889 27.4332L142.139 16.6731C142.373 16.1867 142.41 15.6286 142.241 15.116C142.072 14.6034 141.711 14.1763 141.234 13.9245C140.997 13.8023 140.739 13.729 140.474 13.7091C140.209 13.6892 139.942 13.7231 139.69 13.8086Z" style="fill:var(--sapContent_Illustrative_Color5)"/>
</svg>
