<svg width="161" height="139" viewBox="0 0 161 139" fill="none" xmlns="http://www.w3.org/2000/svg" id="sapIllus-Dialog-NoTasks_v1">
<path d="M80.3362 118.998C80.4587 118.805 80.5487 118.594 80.6025 118.372C80.6341 118.247 80.6531 118.118 80.6594 117.989C80.6594 117.989 80.6594 117.989 80.6594 117.968C80.6651 117.808 80.6532 117.648 80.6239 117.492L78.205 104.701L73.648 80.7939C73.5699 80.3824 73.3689 80.0043 73.0715 79.7094C72.7741 79.4146 72.3943 79.2168 71.9822 79.1422C71.8651 79.1202 71.7462 79.1083 71.627 79.1067L55.1642 79.0499H55.086H50.9268H50.0353L44.0824 79.0286L28.8095 78.9753H28.7881L20.3561 78.9469H15.2343H12.748H11.0573C10.8985 78.9471 10.7402 78.9637 10.5849 78.9966C10.0693 79.1158 9.61838 79.427 9.324 79.8668C9.24145 79.9905 9.17238 80.1227 9.11799 80.2611C9.08954 80.3304 9.06581 80.4016 9.04696 80.4742C9.00695 80.6215 8.98312 80.7728 8.97592 80.9253C8.96899 81.0834 8.97971 81.2419 9.00788 81.3977L14.2717 110.029C16.9214 113.625 19.913 116.955 23.2046 119.974H78.6135C78.9595 119.969 79.2986 119.877 79.5996 119.706C79.9007 119.535 80.1539 119.292 80.3362 118.998ZM17.4293 94.5644C17.4297 94.4444 17.4541 94.3257 17.501 94.2153C17.548 94.1049 17.6166 94.005 17.7028 93.9215C17.8733 93.751 18.1046 93.6553 18.3457 93.6553C18.5868 93.6553 18.8181 93.751 18.9886 93.9215L21.1197 96.0526L21.347 95.8289C21.2614 95.6214 21.2075 95.4023 21.1872 95.1789L20.7325 89.9789C20.7027 89.7075 20.7311 89.4328 20.8158 89.1731C20.9005 88.9135 21.0396 88.6748 21.2238 88.4732C21.408 88.2715 21.633 88.1114 21.8839 88.0036C22.1349 87.8958 22.4059 87.8427 22.679 87.8478H27.4953C28.0752 87.858 28.6313 88.0805 29.0582 88.4733C29.485 88.8661 29.7529 89.4018 29.8111 89.9789L30.2551 95.1718C30.2848 95.4429 30.2566 95.7174 30.1721 95.9767C30.0876 96.2361 29.9488 96.4746 29.765 96.6762C29.5812 96.8778 29.3566 97.0379 29.1061 97.146C28.8556 97.254 28.585 97.3075 28.3122 97.3029H23.5065C23.2023 97.3013 22.9016 97.2385 22.6221 97.1182L21.7661 97.9777C21.5951 98.1504 21.3628 98.2487 21.1197 98.2512C20.8778 98.2481 20.6468 98.1499 20.4768 97.9777L17.7099 95.2073C17.6227 95.1242 17.553 95.0245 17.5049 94.9141C17.4567 94.8037 17.431 94.6848 17.4293 94.5644ZM29.4204 109.919H24.6041C24.2399 109.917 23.8815 109.827 23.5598 109.656L22.6115 110.608C22.4415 110.78 22.2105 110.879 21.9686 110.882C21.8487 110.881 21.7302 110.856 21.6198 110.809C21.5095 110.762 21.4095 110.694 21.3257 110.608L18.5553 107.838C18.4694 107.754 18.401 107.654 18.354 107.544C18.3071 107.433 18.2825 107.315 18.2818 107.195C18.2821 107.075 18.3065 106.956 18.3535 106.846C18.4005 106.735 18.4691 106.635 18.5553 106.552C18.7267 106.383 18.9576 106.289 19.1981 106.289C19.4387 106.289 19.6696 106.383 19.841 106.552L21.9721 108.683L22.3877 108.264C22.3377 108.111 22.3056 107.952 22.2918 107.791L21.8336 102.57C21.8038 102.299 21.8321 102.025 21.9166 101.765C22.0011 101.506 22.1399 101.267 22.3237 101.066C22.5075 100.864 22.7321 100.704 22.9826 100.596C23.2331 100.488 23.5037 100.434 23.7765 100.439H28.5928C29.1725 100.45 29.7282 100.673 30.1549 101.065C30.5816 101.458 30.8497 101.993 30.9086 102.57L31.3632 107.774C31.3952 108.046 31.3685 108.322 31.285 108.583C31.2015 108.844 31.0631 109.084 30.8791 109.288C30.6951 109.491 30.4697 109.652 30.2181 109.761C29.9665 109.87 29.6945 109.924 29.4204 109.919ZM33.9135 92.5789C33.8756 92.2349 33.9114 91.8867 34.0186 91.5576C34.1258 91.2285 34.3018 90.926 34.535 90.6703C34.7683 90.4146 35.0533 90.2115 35.3711 90.0745C35.689 89.9375 36.0324 89.8698 36.3784 89.876H64.5766C65.3124 89.8894 66.0178 90.1718 66.5596 90.6698C67.1014 91.1678 67.4421 91.8469 67.5175 92.5789C67.5554 92.9234 67.5195 93.272 67.4121 93.6016C67.3048 93.9311 67.1285 94.234 66.8949 94.49C66.6614 94.7461 66.3759 94.9495 66.0576 95.0866C65.7394 95.2238 65.3955 95.2915 65.049 95.2854H36.8544C36.1178 95.2726 35.4116 94.99 34.8695 94.4911C34.3275 93.9923 33.9873 93.3119 33.9135 92.5789ZM66.42 108.161H38.2254C37.4891 108.147 36.7833 107.864 36.2414 107.366C35.6995 106.867 35.359 106.187 35.2845 105.454C35.2463 105.109 35.2827 104.758 35.3911 104.428C35.4995 104.097 35.6775 103.794 35.9131 103.538C36.1486 103.282 36.4363 103.079 36.7567 102.943C37.0772 102.808 37.4229 102.742 37.7708 102.751H65.9654C66.7014 102.764 67.4072 103.046 67.9491 103.544C68.4911 104.042 68.8317 104.722 68.9063 105.454C68.9444 105.8 68.908 106.151 68.7996 106.481C68.6912 106.812 68.5133 107.116 68.2778 107.372C68.0423 107.629 67.7547 107.832 67.4343 107.968C67.1138 108.104 66.768 108.17 66.42 108.161Z" fill="var(--sapContent_Illustrative_Color8)"/>
<path d="M11.925 46.3593C11.9221 46.2402 11.9433 46.1217 11.9874 46.0109C12.0314 45.9002 12.0974 45.7995 12.1813 45.7149C12.2652 45.6304 12.3654 45.5636 12.4758 45.5187C12.5861 45.4738 12.7045 45.4516 12.8236 45.4536H14.4006L14.3829 44.6402C14.3809 44.5221 14.4028 44.4049 14.4471 44.2954C14.4914 44.1859 14.5572 44.0865 14.6407 44.003C14.7242 43.9195 14.8237 43.8536 14.9331 43.8093C15.0426 43.765 15.1599 43.7432 15.2779 43.7451L53.3431 44.214C53.571 44.2139 53.7899 44.3024 53.9536 44.4608C54.1174 44.6192 54.213 44.8352 54.2204 45.0629L54.7639 66.4912H88.5881C89.0713 66.4922 89.5392 66.661 89.9117 66.9687C90.2842 67.2764 90.5383 67.704 90.6304 68.1783L101.378 123.715C101.438 124.017 101.43 124.328 101.355 124.627C101.281 124.925 101.14 125.203 100.945 125.441C100.75 125.679 100.504 125.87 100.226 126.002C99.9477 126.133 99.6438 126.201 99.336 126.201H108.571C116.082 121.1 122.513 114.568 127.496 106.978C132.479 99.3882 135.916 90.8901 137.611 81.9701C138.413 77.7253 138.816 73.4147 138.815 69.0947C138.822 61.8148 137.675 54.5799 135.416 47.6593C134.459 44.7202 133.303 41.8497 131.956 39.0673C129.974 34.9826 127.595 31.103 124.853 27.4847C119.275 20.0983 112.268 13.9101 104.249 9.28896C96.2291 4.6678 87.3615 1.70823 78.1741 0.586577L77.9255 0.558157C77.3714 0.490671 76.8138 0.433842 76.2561 0.380564L75.8015 0.341499C75.3042 0.298877 74.8034 0.263356 74.3026 0.227837L73.7734 0.195883C73.2761 0.167468 72.7753 0.146156 72.2745 0.128396H71.7772C71.1272 0.128396 70.4701 0.0999756 69.813 0.0999756C32.5683 0.0999756 2.22133 29.6088 0.857422 66.5196H12.4116L11.925 46.3593Z" fill="var(--sapContent_Illustrative_Color7)"/>
<path d="M80.3364 118.998C80.1498 119.292 79.8917 119.534 79.5861 119.702C79.2805 119.87 78.9374 119.957 78.5889 119.957C78.9374 119.957 79.2805 119.87 79.5861 119.702C79.8917 119.534 80.1498 119.292 80.3364 118.998Z" fill="var(--sapContent_Illustrative_Color7)"/>
<path d="M71.6093 79.0889L55.1465 79.0321H55.0684H55.1465L71.6093 79.0889Z" fill="var(--sapContent_Illustrative_Color7)"/>
<path d="M12.7234 78.8829L11.0327 78.8793L12.7234 78.8864V78.8829Z" fill="var(--sapContent_Illustrative_Color7)"/>
<path d="M41.2129 131.28H39.8881C45.962 134.211 52.436 136.228 59.1 137.265L59.4161 137.314C59.8566 137.382 60.3041 137.442 60.7481 137.503L61.2595 137.567C61.668 137.62 62.08 137.666 62.492 137.709L63.1278 137.773L64.2822 137.876L65.0281 137.929C65.3833 137.954 65.7384 137.979 66.0936 137.996L66.9851 138.035C67.3048 138.035 67.6209 138.064 67.9441 138.071C68.413 138.071 68.8889 138.071 69.3649 138.092H69.816C70.4517 138.092 71.0875 138.092 71.7197 138.067L72.1673 138.05C72.661 138.05 73.1547 138.014 73.6484 137.986L74.1386 137.954C74.6216 137.925 75.1011 137.893 75.5806 137.851L76.0423 137.812C76.5396 137.765 77.0333 137.716 77.527 137.662L77.9142 137.62C78.447 137.556 78.9797 137.488 79.5125 137.41L79.7576 137.378C86.6887 136.376 93.4253 134.318 99.7332 131.276L41.2129 131.28Z" fill="var(--sapContent_Illustrative_Color18)"/>
<path d="M12.8228 45.453C12.7037 45.451 12.5854 45.4732 12.475 45.5181C12.3646 45.563 12.2645 45.6298 12.1805 45.7143C12.0966 45.7989 12.0306 45.8996 11.9866 46.0104C11.9425 46.1211 11.9213 46.2396 11.9242 46.3587L12.4215 66.4906H14.9078L14.3892 45.4707L12.8228 45.453Z" fill="var(--sapContent_Illustrative_Color7)"/>
<path d="M12.8228 45.453C12.7037 45.451 12.5854 45.4732 12.475 45.5181C12.3646 45.563 12.2645 45.6298 12.1805 45.7143C12.0966 45.7989 12.0306 45.8996 11.9866 46.0104C11.9425 46.1211 11.9213 46.2396 11.9242 46.3587L12.4215 66.4906H14.9078L14.3892 45.4707L12.8228 45.453Z" fill="var(--sapContent_Illustrative_Color19)"/>
<path d="M15.2202 78.8937L12.7233 78.883V78.8866L15.2202 78.8937Z" fill="var(--sapContent_Illustrative_Color7)"/>
<path opacity="0.5" d="M15.2202 78.8937L12.7233 78.883V78.8866L15.2202 78.8937Z" fill="var(--sapContent_Illustrative_Color20)"/>
<path d="M55.0684 79.0322L50.9092 79.018L55.0684 79.0322Z" fill="var(--sapContent_Illustrative_Color8)"/>
<path d="M53.3423 44.2133L15.2629 43.7622C15.1448 43.7603 15.0275 43.7822 14.9181 43.8265C14.8086 43.8708 14.7092 43.9366 14.6257 44.0201C14.5422 44.1036 14.4763 44.2031 14.432 44.3125C14.3877 44.422 14.3659 44.5392 14.3678 44.6573L14.3856 45.4707L14.9041 66.4905H20.0259L19.5997 48.9977H19.5357V47.996H20.1111C20.1636 47.9845 20.2172 47.9785 20.271 47.9783L22.0647 48.0032L50.0745 48.092L50.5611 66.4905H54.763L54.2373 45.0622C54.2299 44.8314 54.1317 44.6128 53.9642 44.4539C53.7966 44.295 53.5731 44.2085 53.3423 44.2133Z" fill="var(--sapContent_Illustrative_Color18)"/>
<path d="M20.3455 78.9113L15.2202 78.8936L20.3455 78.9113Z" fill="var(--sapContent_Illustrative_Color8)"/>
<path d="M19.5997 48.9977L20.0295 66.4906H24.821C24.6043 65.8406 24.9701 65.0982 25.6805 64.5619H24.828C24.5878 64.5619 24.3575 64.4665 24.1876 64.2966C24.0178 64.1268 23.9223 63.8964 23.9223 63.6562C23.9223 63.2756 23.9973 62.8987 24.143 62.5471C24.2886 62.1954 24.5021 61.8759 24.7712 61.6068C25.0404 61.3376 25.3599 61.1241 25.7115 60.9785C26.0631 60.8328 26.44 60.7579 26.8207 60.7579H28.4403C28.8603 60.1201 29.4197 59.586 30.0762 59.196C30.7327 58.8059 31.4692 58.57 32.2301 58.506L35.029 58.2751C36.1791 58.1817 37.3363 58.3228 38.4303 58.6898C39.5243 59.0568 40.5324 59.6421 41.3936 60.4102C42.2547 61.1784 42.9509 62.1134 43.44 63.1585C43.9291 64.2037 44.2009 65.3373 44.2389 66.4906H49.6484L49.1405 49.3529L19.5997 48.9977Z" fill="var(--sapContent_Illustrative_Color7)"/>
<path d="M28.7777 78.9398L20.3456 78.9114L28.7777 78.9398Z" fill="var(--sapContent_Illustrative_Color7)"/>
<path d="M20.2887 47.9783C20.235 47.9785 20.1814 47.9845 20.1289 47.996H22.0824L20.2887 47.9783Z" fill="var(--sapContent_Illustrative_Color7)"/>
<path d="M50.0144 79.0145L44.0615 78.9932L50.0144 79.0145Z" fill="var(--sapContent_Illustrative_Color7)"/>
<path d="M20.1296 47.996H19.5537V48.9985H19.5999V48.707C19.5946 48.546 19.6441 48.388 19.7404 48.2588C19.8366 48.1297 19.9738 48.037 20.1296 47.996Z" fill="var(--sapContent_Illustrative_Color8)"/>
<path opacity="0.5" d="M20.1296 47.996H19.5537V48.9985H19.5999V48.707C19.5946 48.546 19.6441 48.388 19.7404 48.2588C19.8366 48.1297 19.9738 48.037 20.1296 47.996Z" fill="var(--sapContent_Illustrative_Color20)"/>
<path d="M22.0862 48.0032L49.3964 48.3939C49.5749 48.4037 49.7431 48.4804 49.8676 48.6088C49.992 48.7372 50.0635 48.9078 50.0677 49.0865L50.4939 66.4906H50.5827L50.0961 48.092L22.0862 48.0032Z" fill="var(--sapContent_Illustrative_Color8)"/>
<path opacity="0.5" d="M22.0862 48.0032L49.3964 48.3939C49.5749 48.4037 49.7431 48.4804 49.8676 48.6088C49.992 48.7372 50.0635 48.9078 50.0677 49.0865L50.4939 66.4906H50.5827L50.0961 48.092L22.0862 48.0032Z" fill="var(--sapContent_Illustrative_Color20)"/>
<path d="M49.3927 48.3939L22.0861 48.0032H20.1325C19.9776 48.0448 19.8412 48.1377 19.7458 48.2667C19.6503 48.3957 19.6014 48.5532 19.6069 48.7136V49.0048L49.1369 49.36L49.6449 66.4977H50.5009L50.0746 49.0936C50.0721 48.9119 49.9999 48.7381 49.8731 48.6079C49.7462 48.4777 49.5743 48.4011 49.3927 48.3939Z" fill="var(--sapContent_Illustrative_Color7)"/>
<path d="M49.3927 48.3939L22.0861 48.0032H20.1325C19.9776 48.0448 19.8412 48.1377 19.7458 48.2667C19.6503 48.3957 19.6014 48.5532 19.6069 48.7136V49.0048L49.1369 49.36L49.6449 66.4977H50.5009L50.0746 49.0936C50.0721 48.9119 49.9999 48.7381 49.8731 48.6079C49.7462 48.4777 49.5743 48.4011 49.3927 48.3939Z" fill="var(--sapContent_Illustrative_Color19)"/>
<path d="M50.7998 79.0178L50.0142 79.0143L50.7998 79.0178Z" fill="var(--sapContent_Illustrative_Color7)"/>
<path opacity="0.5" d="M50.7998 79.0178L50.0142 79.0143L50.7998 79.0178Z" fill="var(--sapContent_Illustrative_Color20)"/>
<path d="M44.0613 78.9931L28.7954 78.9398L44.0613 78.9931Z" fill="var(--sapContent_Illustrative_Color7)"/>
<path opacity="0.5" d="M44.0613 78.9931L28.7954 78.9398L44.0613 78.9931Z" fill="var(--sapContent_Illustrative_Color20)"/>
<path d="M35.029 58.2751L32.2301 58.506C31.4692 58.57 30.7327 58.8059 30.0762 59.196C29.4197 59.5861 28.8603 60.1201 28.4403 60.7579H26.8207C26.052 60.7579 25.3148 61.0632 24.7713 61.6068C24.2277 62.1503 23.9224 62.8875 23.9224 63.6562C23.9224 63.8964 24.0178 64.1268 24.1876 64.2966C24.3575 64.4665 24.5879 64.5619 24.8281 64.5619H25.6805C24.9702 65.0983 24.615 65.8406 24.821 66.4906H44.2389C44.2009 65.3373 43.9291 64.2037 43.44 63.1585C42.9509 62.1134 42.2547 61.1784 41.3936 60.4102C40.5325 59.6421 39.5243 59.0568 38.4303 58.6898C37.3363 58.3228 36.1791 58.1817 35.029 58.2751Z" fill="var(--sapContent_Illustrative_Color7)"/>
<path d="M35.029 58.2751L32.2301 58.506C31.4692 58.57 30.7327 58.8059 30.0762 59.196C29.4197 59.5861 28.8603 60.1201 28.4403 60.7579H26.8207C26.052 60.7579 25.3148 61.0632 24.7713 61.6068C24.2277 62.1503 23.9224 62.8875 23.9224 63.6562C23.9224 63.8964 24.0178 64.1268 24.1876 64.2966C24.3575 64.4665 24.5879 64.5619 24.8281 64.5619H25.6805C24.9702 65.0983 24.615 65.8406 24.821 66.4906H44.2389C44.2009 65.3373 43.9291 64.2037 43.44 63.1585C42.9509 62.1134 42.2547 61.1784 41.3936 60.4102C40.5325 59.6421 39.5243 59.0568 38.4303 58.6898C37.3363 58.3228 36.1791 58.1817 35.029 58.2751Z" fill="var(--sapContent_Illustrative_Color18)"/>
<path d="M101.374 123.714L90.6367 68.1777C90.5445 67.7034 90.2904 67.2758 89.9179 66.9681C89.5454 66.6604 89.0776 66.4916 88.5944 66.4906H0.863658C0.831691 67.3501 0.810382 68.2132 0.810382 69.0834C0.788001 83.8228 5.50763 98.1785 14.2719 110.029L8.98318 81.3302C8.95502 81.1744 8.94429 81.016 8.95122 80.8578C8.95842 80.7053 8.98225 80.554 9.02226 80.4067C9.04112 80.3341 9.06485 80.263 9.0933 80.1936C9.14769 80.0552 9.21675 79.923 9.2993 79.7994C9.59368 79.3595 10.0446 79.0484 10.5602 78.9291C10.7155 78.8962 10.8738 78.8796 11.0326 78.8794H12.7233H15.2096H20.3314L28.7634 78.9078H28.7848L44.0577 78.9611L50.0106 78.9824H50.9021H55.0614H55.1395L54.4291 75.2033C54.3716 74.9003 54.3817 74.5883 54.4587 74.2896C54.5356 73.991 54.6776 73.713 54.8743 73.4755C55.0711 73.238 55.3179 73.0469 55.597 72.9158C55.8762 72.7847 56.1808 72.7168 56.4892 72.717H82.4923C82.9805 72.7167 83.4535 72.8869 83.8296 73.1981C84.2057 73.5094 84.4614 73.9422 84.5524 74.4218L89.7842 102.215C89.8423 102.518 89.8328 102.83 89.7563 103.128C89.6798 103.427 89.5382 103.705 89.3417 103.943C89.1452 104.18 88.8987 104.371 88.6196 104.503C88.3406 104.634 88.036 104.702 87.7277 104.701H78.2052L80.6418 117.488C80.6711 117.645 80.683 117.805 80.6773 117.964C80.6773 117.964 80.6773 117.964 80.6773 117.985C80.6711 118.115 80.652 118.243 80.6205 118.369C80.5666 118.59 80.4766 118.802 80.3541 118.994C80.1675 119.288 79.9094 119.531 79.6038 119.699C79.2982 119.866 78.9551 119.954 78.6066 119.953H23.1977C25.6664 122.218 28.2957 124.301 31.0651 126.187H99.3316C99.6379 126.186 99.9403 126.118 100.217 125.988C100.494 125.857 100.739 125.667 100.934 125.431C101.129 125.195 101.27 124.918 101.346 124.622C101.422 124.325 101.431 124.015 101.374 123.714Z" fill="var(--sapContent_Illustrative_Color2)"/>
<path d="M38.4672 129.856L35.8921 126.19H31.0652C33.876 128.103 36.825 129.804 39.888 131.28H41.2128C40.6745 131.28 40.144 131.151 39.6662 130.903C39.1883 130.655 38.7771 130.296 38.4672 129.856Z" fill="var(--sapContent_Illustrative_Color14)"/>
<path d="M38.4672 129.856C38.7775 130.295 39.1888 130.654 39.6667 130.901C40.1445 131.148 40.6747 131.277 41.2128 131.276H99.7437C102.805 129.8 105.753 128.099 108.563 126.186H35.8921L38.4672 129.856Z" fill="var(--sapContent_Illustrative_Color13)"/>
<path d="M71.9752 79.1281C72.3873 79.2027 72.7672 79.4004 73.0646 79.6953C73.362 79.9902 73.563 80.3683 73.641 80.7797L78.2052 104.701H87.7348C88.0431 104.702 88.3476 104.634 88.6267 104.503C88.9057 104.372 89.1523 104.18 89.3488 103.943C89.5453 103.705 89.6868 103.427 89.7633 103.128C89.8398 102.83 89.8494 102.518 89.7913 102.215L84.5559 74.4752C84.4648 73.9956 84.2092 73.5627 83.8331 73.2515C83.457 72.9402 82.984 72.77 82.4958 72.7703H56.4927C56.1843 72.7701 55.8796 72.838 55.6005 72.9691C55.3214 73.1003 55.0746 73.2914 54.8778 73.5289C54.681 73.7664 54.5391 74.0443 54.4622 74.343C54.3852 74.6416 54.3751 74.9536 54.4326 75.2566L55.143 79.0358L71.6058 79.0926C71.7298 79.0933 71.8534 79.1052 71.9752 79.1281Z" fill="var(--sapContent_Illustrative_Color13)"/>
<path d="M28.6819 89.7836C28.7678 89.8673 28.8362 89.9673 28.8831 90.0776C28.93 90.188 28.9546 90.3066 28.9554 90.4265C28.9546 90.5464 28.93 90.665 28.8831 90.7754C28.8362 90.8857 28.7678 90.9857 28.6819 91.0694L22.6153 97.136C22.8947 97.2563 23.1955 97.3191 23.4997 97.3206H28.316C28.5888 97.3253 28.8594 97.2718 29.1099 97.1638C29.3604 97.0557 29.5851 96.8956 29.7689 96.694C29.9526 96.4923 30.0914 96.2539 30.1759 95.9945C30.2604 95.7351 30.2887 95.4607 30.2589 95.1895L29.8043 89.9896C29.7461 89.4125 29.4782 88.8768 29.0513 88.484C28.6245 88.0912 28.0684 87.8686 27.4885 87.8585H22.6721C22.3991 87.8534 22.128 87.9065 21.8771 88.0143C21.6262 88.1221 21.4011 88.2822 21.217 88.4839C21.0328 88.6855 20.8937 88.9241 20.809 89.1838C20.7243 89.4434 20.6959 89.7182 20.7257 89.9896L21.1804 95.1895C21.2007 95.413 21.2546 95.6321 21.3402 95.8395L27.4139 89.7836C27.4968 89.6998 27.5955 89.6332 27.7043 89.5877C27.8132 89.5423 27.9299 89.5189 28.0479 89.5189C28.1658 89.5189 28.2826 89.5423 28.3914 89.5877C28.5002 89.6332 28.599 89.6998 28.6819 89.7836Z" fill="var(--sapContent_Illustrative_Color6)"/>
<path d="M30.909 102.57C30.8501 101.993 30.5819 101.458 30.1553 101.065C29.7286 100.673 29.1729 100.45 28.5932 100.439H23.7769C23.5041 100.434 23.2335 100.488 22.983 100.596C22.7325 100.704 22.5078 100.864 22.3241 101.066C22.1403 101.267 22.0015 101.506 21.917 101.765C21.8325 102.025 21.8042 102.299 21.834 102.57L22.2886 107.774C22.3024 107.934 22.3346 108.093 22.3845 108.246L28.2486 102.382C28.3318 102.295 28.4317 102.227 28.5421 102.179C28.6526 102.132 28.7714 102.108 28.8915 102.108C29.0116 102.108 29.1304 102.132 29.2409 102.179C29.3514 102.227 29.4512 102.295 29.5344 102.382C29.6203 102.466 29.6887 102.566 29.7356 102.676C29.7826 102.786 29.8071 102.905 29.8079 103.025C29.8075 103.145 29.7832 103.264 29.7362 103.374C29.6892 103.484 29.6206 103.584 29.5344 103.668L23.5602 109.674C23.8819 109.845 24.2402 109.935 24.6045 109.937H29.4208C29.6935 109.941 29.9642 109.888 30.2147 109.78C30.4652 109.672 30.6898 109.512 30.8736 109.31C31.0574 109.109 31.1961 108.87 31.2806 108.611C31.3651 108.351 31.3934 108.077 31.3636 107.806L30.909 102.57Z" fill="var(--sapContent_Illustrative_Color6)"/>
<path d="M65.0636 95.2854C65.4101 95.2915 65.7539 95.2238 66.0722 95.0866C66.3905 94.9495 66.6759 94.7461 66.9095 94.49C67.143 94.234 67.3193 93.9311 67.4267 93.6016C67.534 93.272 67.57 92.9234 67.5321 92.5789C67.4567 91.8469 67.1159 91.1678 66.5741 90.6698C66.0323 90.1718 65.3269 89.8894 64.5912 89.876H36.3788C36.0327 89.8698 35.6894 89.9375 35.3715 90.0745C35.0536 90.2115 34.7686 90.4146 34.5354 90.6703C34.3022 90.9261 34.1261 91.2285 34.0189 91.5576C33.9118 91.8867 33.8759 92.2349 33.9138 92.5789C33.9876 93.3119 34.3278 93.9923 34.8699 94.4911C35.4119 94.99 36.1182 95.2726 36.8548 95.2854H65.0636Z" fill="var(--sapContent_Illustrative_Color6)"/>
<path d="M68.8887 105.454C68.8141 104.722 68.4735 104.043 67.9316 103.544C67.3896 103.046 66.6838 102.764 65.9478 102.751H37.7532C37.4054 102.742 37.0596 102.808 36.7392 102.943C36.4187 103.079 36.1311 103.282 35.8955 103.538C35.6599 103.794 35.4819 104.097 35.3735 104.428C35.2651 104.759 35.2287 105.109 35.2669 105.454C35.3415 106.187 35.6819 106.867 36.2238 107.366C36.7657 107.864 37.4715 108.147 38.2078 108.161H66.4024C66.749 108.167 67.0928 108.099 67.4111 107.962C67.7294 107.825 68.0148 107.622 68.2483 107.366C68.4819 107.109 68.6582 106.807 68.7656 106.477C68.8729 106.148 68.9088 105.799 68.871 105.454H68.8887Z" fill="var(--sapContent_Illustrative_Color6)"/>
<path d="M21.1129 98.2512C21.3559 98.2487 21.5882 98.1504 21.7593 97.9777L22.6153 97.1182L28.6819 91.0516C28.7677 90.9679 28.8361 90.868 28.8831 90.7576C28.93 90.6472 28.9546 90.5287 28.9554 90.4087C28.9546 90.2888 28.93 90.1702 28.8831 90.0598C28.8361 89.9495 28.7677 89.8496 28.6819 89.7658C28.5987 89.6793 28.4988 89.6104 28.3884 89.5633C28.2779 89.5162 28.1591 89.492 28.039 89.492C27.9189 89.492 27.8 89.5162 27.6896 89.5633C27.5791 89.6104 27.4793 89.6793 27.3961 89.7658L21.3402 95.8217L21.1129 96.0455L18.9818 93.9144C18.8112 93.7439 18.58 93.6481 18.3389 93.6481C18.0977 93.6481 17.8665 93.7439 17.696 93.9144C17.6098 93.9979 17.5412 94.0978 17.4942 94.2082C17.4472 94.3186 17.4228 94.4373 17.4225 94.5573C17.4232 94.6772 17.4478 94.7958 17.4948 94.9062C17.5417 95.0165 17.6101 95.1165 17.696 95.2002L20.4629 97.9706C20.5473 98.058 20.6482 98.1278 20.7598 98.176C20.8714 98.2241 20.9914 98.2497 21.1129 98.2512Z" fill="var(--sapContent_Illustrative_Color3)"/>
<path d="M29.8076 103.039C29.8069 102.919 29.7823 102.801 29.7354 102.69C29.6884 102.58 29.62 102.48 29.5341 102.396C29.4509 102.31 29.3511 102.241 29.2406 102.194C29.1302 102.147 29.0113 102.122 28.8912 102.122C28.7712 102.122 28.6523 102.147 28.5419 102.194C28.4314 102.241 28.3316 102.31 28.2484 102.396L22.3843 108.253L21.9687 108.672L19.8376 106.541C19.6662 106.373 19.4352 106.278 19.1947 106.278C18.9541 106.278 18.7232 106.373 18.5518 106.541C18.4656 106.625 18.397 106.725 18.35 106.835C18.3031 106.945 18.2787 107.064 18.2783 107.184C18.2791 107.304 18.3036 107.423 18.3506 107.533C18.3975 107.643 18.4659 107.743 18.5518 107.827L21.3223 110.597C21.4061 110.683 21.5061 110.751 21.6164 110.798C21.7267 110.845 21.8452 110.87 21.9651 110.871C22.2071 110.868 22.438 110.77 22.608 110.597L23.5564 109.646L29.5448 103.682C29.6291 103.598 29.6957 103.497 29.7408 103.387C29.786 103.277 29.8087 103.158 29.8076 103.039Z" fill="var(--sapContent_Illustrative_Color3)"/>
<path d="M126.532 57.4617L126.376 56.1191L107.416 58.3604C106.91 58.4165 106.402 58.2708 106.003 57.9549C105.604 57.639 105.346 57.1784 105.285 56.6732L101.935 28.3152C101.915 28.1233 101.923 27.9294 101.96 27.7399C101.998 27.5312 102.071 27.3306 102.177 27.1467L101.896 27.1787C101.571 27.2164 101.256 27.3181 100.97 27.4778C100.685 27.6375 100.433 27.8521 100.23 28.1092C100.027 28.3661 99.8769 28.6605 99.7879 28.9757C99.6989 29.2908 99.6731 29.6204 99.7118 29.9456L103.068 58.2929C103.139 58.9012 103.432 59.462 103.891 59.8678C104.35 60.2735 104.942 60.4956 105.555 60.4915C105.653 60.4985 105.751 60.4985 105.849 60.4915L126.582 58.0407H126.628L126.532 57.4617Z" fill="var(--sapContent_Illustrative_Color16)"/>
<path d="M101.924 28.3082L105.274 56.6662C105.335 57.1714 105.593 57.6319 105.992 57.9478C106.392 58.2637 106.899 58.4094 107.405 58.3533L126.365 56.1121L125.576 49.4488C123.547 50.7234 121.195 51.3913 118.799 51.3739C112.53 51.3739 107.433 47.0051 107.433 41.617C107.433 36.2288 112.516 31.8565 118.799 31.8565C125.082 31.8565 130.165 36.2253 130.165 41.617C130.165 42.6052 129.993 43.5859 129.657 44.5153L136.051 43.7587L133.777 24.5432C133.749 24.2927 133.672 24.0501 133.55 23.8295C133.429 23.6088 133.264 23.4144 133.067 23.2575C132.729 22.9879 132.309 22.8413 131.877 22.8419C131.8 22.8366 131.723 22.8366 131.646 22.8419L103.615 26.1558C103.364 26.1834 103.121 26.2604 102.9 26.3823C102.678 26.5042 102.483 26.6686 102.326 26.8661C102.267 26.9447 102.215 27.0278 102.169 27.1148C102.064 27.2987 101.991 27.4993 101.953 27.7079C101.912 27.9053 101.903 28.1078 101.924 28.3082ZM117.695 30.2262C117.13 30.2434 116.581 30.0357 116.17 29.6487C115.758 29.2618 115.517 28.7272 115.5 28.1626C115.508 27.8827 115.571 27.6071 115.686 27.3517C115.801 27.0963 115.965 26.8661 116.169 26.6741C116.372 26.4821 116.612 26.3322 116.874 26.2329C117.136 26.1336 117.415 26.0869 117.695 26.0954C117.974 26.0869 118.253 26.1336 118.515 26.2329C118.777 26.3322 119.017 26.4821 119.22 26.6741C119.424 26.8661 119.588 27.0963 119.703 27.3517C119.818 27.6071 119.881 27.8827 119.89 28.1626C119.872 28.7272 119.631 29.2618 119.219 29.6487C118.808 30.0357 118.259 30.2434 117.695 30.2262Z" fill="var(--sapContent_Illustrative_Color1)"/>
<path d="M117.695 26.0954C117.415 26.0868 117.136 26.1336 116.874 26.2328C116.612 26.3321 116.373 26.4821 116.169 26.6741C115.965 26.866 115.801 27.0963 115.686 27.3517C115.571 27.6071 115.508 27.8826 115.5 28.1625C115.517 28.7272 115.759 29.2618 116.17 29.6487C116.582 30.0357 117.13 30.2434 117.695 30.2262C118.259 30.2434 118.808 30.0357 119.219 29.6487C119.631 29.2618 119.872 28.7272 119.89 28.1625C119.882 27.8826 119.818 27.6071 119.703 27.3517C119.589 27.0963 119.425 26.866 119.221 26.6741C119.017 26.4821 118.777 26.3321 118.515 26.2328C118.254 26.1336 117.975 26.0868 117.695 26.0954ZM119.293 27.4096C119.219 27.5197 118.902 27.4308 118.583 27.2177C118.263 27.0046 118.071 26.7382 118.146 26.6281C118.22 26.518 118.537 26.6068 118.856 26.8235C119.176 27.0402 119.368 27.2994 119.293 27.4096Z" fill="var(--sapContent_Illustrative_Color3)"/>
<path d="M118.857 26.8237C118.54 26.6069 118.224 26.5215 118.146 26.6282C118.067 26.7348 118.266 26.9837 118.583 27.2183C118.899 27.4529 119.216 27.5205 119.294 27.4103C119.372 27.3001 119.173 27.037 118.857 26.8237Z" fill="var(--sapContent_Illustrative_Color8)"/>
<path d="M118.81 31.8564C112.541 31.8564 107.444 36.2252 107.444 41.6169C107.444 47.0087 112.527 51.3739 118.81 51.3739C121.206 51.3913 123.558 50.7233 125.587 49.4488L125.452 48.3157C125.414 47.9912 125.44 47.6622 125.529 47.3477C125.618 47.0332 125.768 46.7394 125.97 46.483C126.173 46.2262 126.424 46.0118 126.709 45.8522C126.994 45.6925 127.308 45.5906 127.633 45.5524L127.913 45.5169C127.961 45.4306 128.015 45.3476 128.073 45.2682C128.231 45.0708 128.426 44.9063 128.647 44.7844C128.868 44.6625 129.111 44.5855 129.362 44.5579L129.654 44.5259C129.99 43.5966 130.162 42.6158 130.162 41.6276C130.162 36.2252 125.09 31.8564 118.81 31.8564ZM125.914 37.9514L117.197 46.6677C117.093 46.7775 116.967 46.8655 116.828 46.9264C116.689 46.9874 116.539 47.0202 116.388 47.0229C116.236 47.0206 116.086 46.988 115.947 46.927C115.808 46.866 115.682 46.7778 115.578 46.6677L112.093 43.1833C111.983 43.0788 111.895 42.9533 111.834 42.8142C111.773 42.6752 111.74 42.5253 111.738 42.3735C111.74 42.2216 111.772 42.0715 111.833 41.9324C111.894 41.7932 111.983 41.6678 112.093 41.5637C112.308 41.3504 112.599 41.2308 112.901 41.2308C113.204 41.2308 113.495 41.3504 113.709 41.5637L116.388 44.2418L124.294 36.3353C124.398 36.2257 124.524 36.1385 124.663 36.0789C124.802 36.0192 124.952 35.9885 125.104 35.9885C125.255 35.9885 125.405 36.0192 125.544 36.0789C125.683 36.1385 125.809 36.2257 125.914 36.3353C126.024 36.4399 126.112 36.5653 126.173 36.7044C126.234 36.8435 126.266 36.9933 126.269 37.1452C126.268 37.2951 126.238 37.4436 126.18 37.5819C126.122 37.7203 126.038 37.8458 125.931 37.9514H125.914Z" fill="var(--sapContent_Illustrative_Color8)"/>
<path d="M124.312 36.3353L116.405 44.2417L113.724 41.5636C113.509 41.3504 113.218 41.2308 112.916 41.2308C112.613 41.2308 112.323 41.3504 112.108 41.5636C111.997 41.6678 111.909 41.7932 111.848 41.9323C111.787 42.0715 111.754 42.2215 111.753 42.3735C111.755 42.5253 111.787 42.6751 111.848 42.8142C111.909 42.9533 111.998 43.0787 112.108 43.1833L115.592 46.6676C115.697 46.7778 115.822 46.8659 115.961 46.9269C116.1 46.9879 116.25 47.0205 116.402 47.0228C116.554 47.0201 116.703 46.9874 116.842 46.9264C116.981 46.8654 117.107 46.7775 117.212 46.6676L125.928 37.9514C126.038 37.8473 126.126 37.7224 126.187 37.584C126.248 37.4455 126.28 37.2964 126.283 37.1451C126.281 36.9933 126.248 36.8434 126.187 36.7044C126.126 36.5653 126.038 36.4398 125.928 36.3353C125.824 36.2263 125.698 36.1395 125.559 36.0802C125.42 36.0209 125.271 35.9903 125.12 35.9903C124.969 35.9903 124.82 36.0209 124.681 36.0802C124.542 36.1395 124.416 36.2263 124.312 36.3353Z" fill="var(--sapContent_Illustrative_Color3)"/>
<path d="M154.57 71.6691C154.54 71.7145 154.495 71.7488 154.444 71.7669C154.392 71.7849 154.337 71.7859 154.284 71.7694C154.232 71.753 154.187 71.7202 154.155 71.6759C154.124 71.6315 154.107 71.5781 154.108 71.5235V63.816L153.59 63.8835C153.528 63.8905 153.471 63.9201 153.429 63.9667C153.388 64.0132 153.365 64.0734 153.366 64.1357V66.2455H153.341L153.224 72.4825C153.218 72.5297 153.218 72.5774 153.224 72.6246C153.238 72.6682 153.257 72.7099 153.281 72.7489C153.33 72.8268 153.4 72.8895 153.483 72.93L153.281 73.0579C153.069 73.1728 152.838 73.2464 152.599 73.2746L152.4 73.2994L151.572 73.3953L142.849 74.4254L132.044 75.704C131.919 75.7164 131.793 75.7164 131.668 75.704H131.604C131.526 75.704 131.447 75.6792 131.373 75.6614L131.195 75.6117L131.018 75.5407C130.832 75.4499 130.661 75.33 130.513 75.1855C130.46 75.1322 130.41 75.0789 130.361 75.0185C130.311 74.9581 130.275 74.9049 130.233 74.8445C130.178 74.7605 130.129 74.6727 130.087 74.5817C130.009 74.4057 129.959 74.2188 129.938 74.0276L128.787 64.3062L126.61 45.8934C126.591 45.7096 126.6 45.5241 126.635 45.3428C126.633 45.3346 126.633 45.3261 126.635 45.318C126.653 45.2151 126.68 45.1141 126.716 45.0161C126.752 44.9185 126.795 44.8235 126.844 44.7319L126.567 44.7639C126.245 44.8012 125.933 44.9021 125.649 45.0606C125.366 45.2191 125.116 45.4321 124.916 45.6873C124.709 45.9411 124.555 46.2336 124.463 46.5477C124.37 46.8619 124.342 47.1913 124.379 47.5165L124.511 48.6354L125.292 55.2489L125.452 56.5844L125.516 57.1385L127.704 75.6508C127.777 76.2511 128.067 76.804 128.519 77.2061C128.97 77.6082 129.553 77.8318 130.158 77.8351C130.255 77.8344 130.353 77.8285 130.449 77.8174L151.018 75.3773C151.369 75.3343 151.707 75.2171 152.009 75.0333C152.311 74.8496 152.57 74.6036 152.769 74.3117L153.817 72.7738L155.145 70.8238L154.57 71.6691Z" fill="var(--sapContent_Illustrative_Color20)"/>
<path d="M126.617 45.3428C126.582 45.5241 126.573 45.7096 126.592 45.8934L128.769 64.3062L129.92 74.0276C129.941 74.2188 129.991 74.4057 130.069 74.5817C130.111 74.6727 130.16 74.7605 130.215 74.8445C130.258 74.9049 130.297 74.9653 130.343 75.0185C130.389 75.0718 130.442 75.1322 130.496 75.1855C130.644 75.33 130.814 75.4499 131 75.5407L131.177 75.6117L131.355 75.6614C131.43 75.6614 131.508 75.6934 131.586 75.704H131.65C131.775 75.7164 131.901 75.7164 132.026 75.704L142.831 74.4254L151.572 73.3918L152.4 73.2959L152.599 73.271C152.838 73.2428 153.069 73.1693 153.281 73.0544L153.483 72.9265C153.4 72.8859 153.33 72.8232 153.281 72.7454C153.257 72.7064 153.238 72.6646 153.224 72.621C153.218 72.5738 153.218 72.5262 153.224 72.479L153.341 66.2419L135.003 67.517C134.602 67.5239 134.212 67.3829 133.908 67.1209C133.604 66.8589 133.407 66.4942 133.355 66.0963L131.611 54.6309C131.573 54.446 131.574 54.255 131.614 54.0706C131.655 53.8861 131.734 53.7123 131.846 53.5604C131.958 53.4086 132.101 53.2821 132.266 53.1893C132.43 53.0965 132.613 53.0395 132.801 53.0219L152.439 51.6651C152.841 51.6565 153.232 51.7969 153.537 52.0591C153.842 52.3214 154.039 52.687 154.09 53.0859L155.636 63.1447L154.346 63.3081C154.285 63.3158 154.228 63.3457 154.187 63.3921C154.146 63.4385 154.123 63.4982 154.122 63.5603V71.5057C154.121 71.5603 154.138 71.6137 154.17 71.6581C154.201 71.7024 154.247 71.7353 154.299 71.7517C154.351 71.7681 154.407 71.7672 154.458 71.7491C154.51 71.731 154.554 71.6967 154.584 71.6514L155.177 70.8167L160.764 62.9245C160.792 62.8849 160.808 62.8384 160.81 62.7902C160.812 62.742 160.801 62.6942 160.777 62.6522C160.753 62.6103 160.718 62.5759 160.676 62.553C160.633 62.5302 160.585 62.5198 160.537 62.5231C160.574 62.336 160.582 62.1444 160.562 61.9548L158.221 42.1462C158.193 41.8967 158.116 41.6553 157.994 41.4359C157.872 41.2164 157.708 41.0233 157.511 40.8675C157.176 40.6005 156.76 40.4552 156.332 40.4555C156.257 40.4555 156.179 40.4555 156.104 40.4555L134.928 42.9418L128.578 43.6912L128.29 43.7267C128.04 43.7548 127.799 43.832 127.579 43.954C127.36 44.0759 127.167 44.2401 127.011 44.4371C126.953 44.5164 126.899 44.5995 126.851 44.6857C126.802 44.7774 126.759 44.8723 126.723 44.9699C126.688 45.068 126.66 45.169 126.642 45.2718C126.629 45.2779 126.619 45.2888 126.615 45.3022C126.61 45.3155 126.611 45.3301 126.617 45.3428ZM142.245 43.6948C142.804 43.6822 143.346 43.8901 143.753 44.2735C144.161 44.657 144.401 45.1852 144.422 45.7442C144.401 46.3032 144.161 46.8314 143.753 47.2148C143.346 47.5983 142.804 47.8061 142.245 47.7936C141.686 47.8061 141.144 47.5983 140.737 47.2148C140.329 46.8314 140.089 46.3032 140.068 45.7442C140.089 45.1858 140.329 44.6581 140.735 44.2748C141.142 43.8915 141.683 43.6832 142.241 43.6948H142.245Z" fill="var(--sapContent_Illustrative_Color2)"/>
<path d="M142.242 47.7936C142.801 47.8062 143.343 47.5983 143.75 47.2148C144.157 46.8314 144.398 46.3032 144.419 45.7442C144.398 45.1852 144.157 44.657 143.75 44.2736C143.343 43.8901 142.801 43.6823 142.242 43.6948C141.682 43.6823 141.141 43.8901 140.733 44.2736C140.326 44.657 140.086 45.1852 140.064 45.7442C140.086 46.3032 140.326 46.8314 140.733 47.2148C141.141 47.5983 141.682 47.8062 142.242 47.7936ZM142.693 44.2418C142.767 44.1352 143.08 44.2205 143.403 44.4336C143.726 44.6467 143.911 44.9095 143.836 45.0161C143.762 45.1226 143.449 45.0374 143.126 44.8243C142.803 44.6112 142.618 44.3199 142.693 44.224V44.2418Z" fill="var(--sapContent_Illustrative_Color3)"/>
<path d="M143.13 44.807C143.443 45.0203 143.756 45.1092 143.841 44.999C143.926 44.8888 143.72 44.6435 143.407 44.416C143.094 44.1885 142.778 44.1174 142.696 44.2241C142.614 44.3307 142.814 44.5938 143.13 44.807Z" fill="var(--sapContent_Illustrative_Color8)"/>
<path d="M154.332 63.3188L155.636 63.1448L154.105 53.0646C154.053 52.6658 153.856 52.3001 153.551 52.0379C153.246 51.7756 152.855 51.6353 152.453 51.6439L132.815 53.0078C132.627 53.0253 132.445 53.0824 132.28 53.1752C132.116 53.268 131.973 53.3944 131.86 53.5463C131.748 53.6981 131.669 53.8719 131.629 54.0564C131.588 54.2409 131.587 54.4318 131.625 54.6168L133.369 66.0821C133.421 66.48 133.618 66.8447 133.922 67.1068C134.226 67.3688 134.616 67.5098 135.017 67.5029L153.355 66.2278H153.38V64.118C153.38 64.0557 153.403 63.9955 153.444 63.949C153.485 63.9024 153.542 63.8728 153.604 63.8658L154.123 63.7983V63.5603C154.125 63.5022 154.147 63.4467 154.185 63.4028C154.223 63.3589 154.275 63.3292 154.332 63.3188ZM147.111 58.7689L143.957 61.9265L141.783 64.1109C141.68 64.2205 141.556 64.3084 141.418 64.3694C141.28 64.4303 141.131 64.4632 140.981 64.466C140.83 64.4632 140.681 64.4303 140.544 64.3694C140.406 64.3084 140.281 64.2205 140.178 64.1109L138.562 62.4912L136.701 60.6585C136.591 60.5549 136.504 60.4306 136.443 60.2928C136.382 60.155 136.349 60.0064 136.346 59.8557C136.346 59.7557 136.362 59.6564 136.392 59.5609C136.444 59.3677 136.546 59.1914 136.687 59.0495C136.901 58.8386 137.189 58.7204 137.489 58.7204C137.79 58.7204 138.078 58.8386 138.292 59.0495L138.576 59.3336L140.949 61.7063L143.879 58.7795L146.596 56.0588L148.795 53.8638C148.898 53.755 149.023 53.6684 149.161 53.6093C149.299 53.5501 149.447 53.5196 149.598 53.5196C149.748 53.5196 149.896 53.5501 150.034 53.6093C150.172 53.6684 150.297 53.755 150.4 53.8638C150.51 53.9671 150.598 54.0913 150.659 54.2292C150.72 54.3671 150.753 54.5158 150.755 54.6665C150.753 54.8172 150.72 54.9659 150.659 55.1038C150.598 55.2416 150.51 55.3659 150.4 55.4692L150.184 55.6859L147.111 58.7689Z" fill="var(--sapContent_Illustrative_Color8)"/>
<path d="M150.755 54.6593C150.753 54.5086 150.72 54.3599 150.659 54.2221C150.598 54.0842 150.51 53.9599 150.4 53.8566C150.296 53.7478 150.172 53.6613 150.034 53.6021C149.896 53.5429 149.747 53.5124 149.597 53.5124C149.447 53.5124 149.299 53.5429 149.161 53.6021C149.023 53.6613 148.898 53.7478 148.795 53.8566L146.61 56.041L143.893 58.7617L140.963 61.6884L138.587 59.3265L138.302 59.0423C138.088 58.8315 137.8 58.7133 137.5 58.7133C137.199 58.7133 136.911 58.8315 136.697 59.0423C136.556 59.1843 136.454 59.3606 136.402 59.5538C136.372 59.6493 136.357 59.7486 136.356 59.8486C136.359 59.9992 136.392 60.1478 136.453 60.2856C136.514 60.4234 136.602 60.5477 136.711 60.6513L138.555 62.4911L140.171 64.1108C140.274 64.2204 140.398 64.3083 140.536 64.3693C140.674 64.4303 140.823 64.4631 140.973 64.466C141.124 64.4631 141.273 64.4303 141.411 64.3693C141.548 64.3083 141.673 64.2204 141.776 64.1108L143.96 61.9264L147.115 58.7688L150.208 55.6787L150.425 55.462C150.53 55.3566 150.614 55.2314 150.67 55.0937C150.727 54.9559 150.756 54.8083 150.755 54.6593Z" fill="var(--sapContent_Illustrative_Color3)"/>
</svg>
