<svg xmlns="http://www.w3.org/2000/svg" xmlns:xlink="http://www.w3.org/1999/xlink" width="160" height="160" viewBox="0 0 160 160" id="sapIllus-Dialog-SuccessBalloon">
    <path class="sapIllus_BackgroundColor" d="M137.0164,35.9889H34.3406c-11.8,0-22.0157,9.5378-22.0157,21.3793v4.4165c0,11.8414,10.2159,21.473,22.0155,21.473h0c4.0443.231,5.9938,2.561,5.9938,5.5678l.0053.086c0,3.36-3.5713,6.1633-7.4228,6.1633H16.539a16.2089,16.2089,0,0,0-16.18,16.2375v.4443a16.2088,16.2088,0,0,0,16.18,16.2375h96.3287a16.4617,16.4617,0,0,0,16.4759-16.2357v-.3635a16.4633,16.4633,0,0,0-11.7447-15.476h.0041l-.0124-.002a16.16,16.16,0,0,0-1.8617-.4411c-3.0644-1.0464-5.3831-3.5445-5.3831-6.3489l-.003-.0951c0-3.3583,3.324-5.7741,7.1768-5.7741h19.497a21.5081,21.5081,0,0,0,21.47-21.546V57.5351A21.5083,21.5083,0,0,0,137.0164,35.9889Z"/>
    <path class="sapIllus_StrokeDetailColor" d="M77.1343,141.9923a5.9623,5.9623,0,0,1-3.7-1.3618,8.8807,8.8807,0,0,1-3.2265-5.9429c-.335-3.439.9716-6.7549,2.457-10.1318l.2978-.6724c1.5372-3.4815,2.8663-6.8906,2.2618-10.3237a19.3351,19.3351,0,0,0-1.8809-5.0083A20.9158,20.9158,0,0,1,71.4,103.4029a26.3679,26.3679,0,0,1,.8028-11.6489,40.34,40.34,0,0,1,2.2412-6.0728.5.5,0,0,1,.91.4151,39.3062,39.3062,0,0,0-2.1865,5.9223,25.3773,25.3773,0,0,0-.7851,11.1983,19.8465,19.8465,0,0,0,1.8613,4.8994,20.3466,20.3466,0,0,1,1.9648,5.27c.6534,3.7066-.7939,7.418-2.332,10.9019l-.2959.67c-1.4853,3.3755-2.6894,6.43-2.3769,9.6328a7.8458,7.8458,0,0,0,2.8476,5.2529,4.8731,4.8731,0,0,0,3.7168,1.1026.506.506,0,0,1,.5664.4238.5.5,0,0,1-.4238.5664A5.4753,5.4753,0,0,1,77.1343,141.9923Z"/>
    <path class="sapIllus_StrokeDetailColor" d="M55.6252,46.1781a.4993.4993,0,0,1-.4619-.3091,18.518,18.518,0,0,0-3.9746-4.9673.5.5,0,0,1-.127-.8511,18.23,18.23,0,0,0,4.3574-5.1557.5073.5073,0,0,1,.5186-.2461.4992.4992,0,0,1,.4082.4047,6.05,6.05,0,0,0,3.708,4.4932.5.5,0,0,1,.1123.8726,12.3957,12.3957,0,0,0-4.0615,5.4.5.5,0,0,1-.4531.3584Zm-3.4561-5.7525a21.4837,21.4837,0,0,1,3.3848,4.0689,14.505,14.505,0,0,1,3.3731-4.3692,7.1429,7.1429,0,0,1-3.2461-3.7368A19.1911,19.1911,0,0,1,52.1691,40.4256Z"/>
    <circle class="sapIllus_AccentColor" cx="113.836" cy="142.5056" r="5.4978"/>
    <rect class="sapIllus_BrandColorPrimary" x="19.0067" y="113.6531" width="7.7101" height="7.7101" rx="1.0538" transform="translate(-29.6343 9.921) rotate(-15)"/>
    <path class="sapIllus_AccentColor" d="M144.3412,111.0017a1.52,1.52,0,0,1-1.077-.4457v-.0005l-3.472-3.4834a1.5328,1.5328,0,0,1,0-2.1608l3.472-3.4834a1.5238,1.5238,0,0,1,2.154,0l3.4719,3.4839a1.5326,1.5326,0,0,1,0,2.1608l-3.4719,3.4834A1.5168,1.5168,0,0,1,144.3412,111.0017Zm-.359-1.1669a.5066.5066,0,0,0,.718,0l3.4719-3.483a.51.51,0,0,0,0-.72L144.7,102.1481a.5075.5075,0,0,0-.718.0005l-3.472,3.483a.51.51,0,0,0,0,.72Z"/>
    <rect class="sapIllus_BrandColorPrimary" x="38.9371" y="8.5876" width="4.8332" height="4.8332" rx="0.9894" transform="translate(80.9787 -5.1537) rotate(142.9148)"/>
    <path class="sapIllus_BrandColorSecondary" d="M134.707,55.9582a.4565.4565,0,0,1-.3653-.5326l.8646-4.6425a.96.96,0,0,1,1.12-.7683l4.6425.8647a.4791.4791,0,0,1,.293.1906.4723.4723,0,0,1,.0813.3211.5423.5423,0,0,1-.1987.3229c-.4223.3633-2.6371,1.8325-2.9326,2.0324-.4775.323-2.8138,1.98-3.2337,2.17A.4738.4738,0,0,1,134.707,55.9582Z"/>
    <path class="sapIllus_AccentColor" d="M33.5007,53.9877a7.2393,7.2393,0,0,1-2.23-.31,3.2177,3.2177,0,0,1-2.3475-3.0389c.0277-.4124.0835-.8161.1376-1.2065.1268-.9133.2464-1.7757-.11-2.1781a2.41,2.41,0,0,0-1.7507-.4492c-.3261-.0158-.6849.0157-1.055.0318-1.6383.0712-3.4969.1526-4.2992-.9749a2.8354,2.8354,0,0,1,.0474-2.8254c.5707-1.3633.64-2.6406.1754-3.254a1.9015,1.9015,0,0,0-1.7969-.493,7.9961,7.9961,0,0,0-2.96,1.1747.65.65,0,0,1-.8784-.24.63.63,0,0,1,.2439-.8658,9.0982,9.0982,0,0,1,3.4641-1.3326,3.042,3.042,0,0,1,2.9614.9972c.752.9943.7453,2.6757-.0172,4.4985-.3177.7594-.3831,1.3315-.1838,1.6111.3961.5563,2.0092.4864,3.1867.4351.39-.0169.7667-.0331,1.11-.0331h.0017a3.4718,3.4718,0,0,1,2.7222.8848c.7411.8375.5757,2.0308.4154,3.1852-.0512.3686-.104.75-.1284,1.1172a1.9711,1.9711,0,0,0,1.4713,1.7517,8.3219,8.3219,0,0,0,3.8649.031.6466.6466,0,0,1,.7658.4877.6358.6358,0,0,1-.4948.7549A11.5228,11.5228,0,0,1,33.5007,53.9877Z"/>
    <path class="sapIllus_BrandColorSecondary" d="M109.5863,49.62a32.62,32.62,0,1,0-37.168,32.2975,51.8006,51.8006,0,0,0-5.2828,2.7149.9556.9556,0,0,0,.362,1.7661,101.7166,101.7166,0,0,0,12.8884,1.0174.9537.9537,0,0,0,.81-1.4663l-2.4007-3.7636A32.619,32.619,0,0,0,109.5863,49.62Z"/>
    <path class="sapIllus_StrokeDetailColor" d="M72.4183,81.9178a27.4175,27.4175,0,0,0,6.3643.2681L80,84.0744l-8.1437-1.9026Z"/>
    <path class="sapIllus_ObjectFillColor" d="M58.3315,46.003a.4844.4844,0,0,1-.4471-.32,20.6537,20.6537,0,0,0-4.2394-5.67.5017.5017,0,0,1-.276-.3.5408.5408,0,0,1,.1475-.5845,20.7722,20.7722,0,0,0,4.6364-5.8735A.4772.4772,0,0,1,58.6548,33a.501.501,0,0,1,.3951.4195,6.8307,6.8307,0,0,0,3.9652,5.1438.514.514,0,0,1,.3063.418.5364.5364,0,0,1-.1976.4868,14.103,14.103,0,0,0-4.3282,6.1629.4923.4923,0,0,1-.4386.3719ZM54.5969,39.51a25.1941,25.1941,0,0,1,3.659,4.7455,16.2419,16.2419,0,0,1,3.6628-5.0906,7.9234,7.9234,0,0,1-3.5172-4.3483A21.3915,21.3915,0,0,1,54.5969,39.51Z"/>
    <path class="sapIllus_AccentColor" d="M105.8823,45.7611a20.6515,20.6515,0,0,1-6.008-2.0649.8864.8864,0,0,1-.4271-1.2058.9516.9516,0,0,1,1.2581-.3912,17.532,17.532,0,0,0,5.9808,1.9515,6.2769,6.2769,0,0,0,5.0817-1.6014c1.427-1.5044,1.5415-3.6958,1.663-6.0159a14.5327,14.5327,0,0,1,1.0991-5.78c1.7655-3.5793,6.643-5.4852,11.1017-4.3394a.907.907,0,0,1,.6778,1.0995.9372.9372,0,0,1-1.1432.6318c-3.619-.932-7.5381.56-8.934,3.39a13.0827,13.0827,0,0,0-.9246,5.1117c-.1327,2.5293-.2694,5.144-2.1385,7.1151a8.1736,8.1736,0,0,1-6.6235,2.1744C106.3232,45.8177,106.1017,45.7922,105.8823,45.7611Z"/>
    <path class="sapIllus_PatternShadow" d="M104.2528,31.74C101.5155,42.9363,94.079,53.0428,84.6849,59.9578,75.74,66.542,65.24,70.57,54.3613,73.0745A32.5994,32.5994,0,0,0,104.2528,31.74Z"/>
</svg>