<svg width="151" height="160" viewBox="0 0 151 160" fill="none" xmlns="http://www.w3.org/2000/svg" id="sapIllus-Dialog-SearchEarth">
<path d="M79.3521 142.954C118.755 142.954 150.697 110.953 150.697 71.4768C150.697 32.0007 118.766 0 79.3521 0C39.9382 0 8.00713 32.0007 8.00713 71.4768C8.00713 110.953 39.9488 142.954 79.3521 142.954Z" fill="var(--sapContent_Illustrative_Color7)"/>
<path d="M111.745 103.686C112.801 105.802 114.111 105.196 115.069 104.222C116.907 105.047 116.657 101.248 117.153 101.248H117.981L118.139 100.461C124.791 67.2188 105.462 46.7857 93.3915 36.9608L91.983 38.1214L91.9161 38.1532L91.8139 38.0685C91.4618 38.259 91.0851 38.4213 90.7224 38.5765C88.7751 39.0422 86.6271 38.7035 85.0883 39.8994C71.0031 26.8466 53.2875 19.5899 35.0859 19.4382C41.965 19.5256 48.7949 20.6141 55.3615 22.6697L55.6362 22.7543L55.8158 22.966C56.0622 23.2517 61.9393 30.0921 58.0553 33.8316C56.1538 35.6661 52.7945 35.8566 51.4353 35.8566C49.9335 35.9064 48.4382 35.6371 47.0477 35.0664C45.3434 34.2444 44.7272 32.544 44.2307 31.1858C44.0856 30.6259 43.8372 30.0983 43.4983 29.63C43.2623 29.3901 42.6778 29.3795 41.7376 29.3795C40.2449 29.432 38.7538 29.2352 37.3254 28.7974C33.5788 27.5945 32.3675 21.2797 32.2407 20.5636L32.0611 19.5052C31.4871 19.5052 30.9167 19.5475 30.3462 19.5793C29.2406 20.6259 28.1701 21.7077 27.1348 22.8249C27.2644 23.0234 27.382 23.2296 27.487 23.4422C28.1067 24.9733 27.8391 26.7513 26.6313 28.7339C24.7298 31.909 22.0536 32.5122 19.4654 32.6675C17.3127 35.9906 15.441 39.4882 13.8701 43.1239C15.5427 43.1239 17.8034 40.8202 20.6944 37.3524C21.8784 35.7973 23.3974 34.5299 25.1382 33.6446C26.8775 32.7701 28.7913 32.2998 30.7371 32.2688C34.908 32.4289 38.8499 34.2211 41.7165 37.2606C47.1181 42.6476 45.7413 49.481 42.9278 53.6896C40.9594 56.6353 36.9416 57.2174 31.9097 57.9018C30.7089 58.0676 29.4448 58.2334 28.1419 58.4522C22.4198 59.4329 20.3246 64.9433 19.145 69.6565C18.0146 74.1897 16.8526 76.5251 14.5427 78.7935C13.9355 79.4617 13.2002 80.0004 12.3806 80.3775C11.5588 80.7523 10.6704 80.9586 9.76777 80.9842C9.38238 80.9839 8.99793 80.9461 8.61983 80.8714C9.4861 87.5017 11.2845 93.9759 13.9616 100.101L14.3138 100.588C14.7434 101.188 15.2082 101.809 15.6871 102.454C16.2872 103.372 17.0193 104.196 17.8597 104.899C18.261 104.453 18.615 103.966 18.9161 103.446C19.1027 103.16 19.307 102.839 19.5358 102.465C20.9796 100.306 22.0219 99.4206 23.1452 99.4206C24.5537 99.4206 25.3073 100.913 25.5819 101.484C26.2762 102.642 27.2435 103.611 28.399 104.307C29.5581 104.998 30.8687 105.394 32.216 105.46C33.164 105.396 34.1012 105.221 35.0084 104.938C36.2329 104.556 37.5019 104.335 38.7833 104.282C39.606 104.266 40.4229 104.424 41.1813 104.744C41.9411 105.067 42.624 105.548 43.1849 106.155C44.3437 107.323 45.721 108.251 47.2379 108.886C48.7589 109.518 50.3905 109.841 52.0374 109.835H52.9107C56.844 109.835 57.9955 112.406 58.918 114.467C59.3309 115.688 60.0731 116.771 61.0625 117.596C61.5649 117.962 62.1704 118.158 62.7915 118.157C63.7335 118.084 64.6605 117.879 65.5451 117.546C68.1139 116.678 70.8061 116.231 73.5173 116.223C77.7077 116.223 80.1057 117 81.3135 118.725C82.5213 120.45 82.3699 122.729 81.0106 126.352C80.0282 129.029 78.0598 130.275 76.433 131.259C75.1921 131.928 74.1108 132.858 73.2638 133.986C72.6237 135.01 72.2833 136.193 72.2813 137.401C72.2736 138.416 72.0591 139.418 71.651 140.347C71.3189 141.103 70.8644 141.799 70.3059 142.407C73.3098 142.788 76.3348 142.978 79.3627 142.975C85.1396 142.978 90.8956 142.279 96.5043 140.893C104.378 131.09 109.329 118.943 110.044 104.91C111.438 105.33 111.213 104.003 111.745 103.686ZM38.3044 92.4814C38.1441 93.263 37.8147 94 37.3395 94.6404C36.8439 95.1475 36.2427 95.539 35.5789 95.7869C34.9052 96.0411 34.1836 96.1424 33.4661 96.0833H33.4344C31.0632 95.9135 28.7296 95.3965 26.508 94.5487L26.0749 94.4005C24.7277 93.9602 23.5154 93.1817 22.5536 92.1392C21.8846 91.483 21.5677 91.2114 20.9268 91.2114C20.4057 91.2367 19.8862 91.2885 19.3704 91.3666C18.2667 91.5271 17.1542 91.619 16.0392 91.6417C14.0673 91.6417 12.6588 91.1725 11.8665 90.2059C11.5073 89.7269 11.266 89.1697 11.1622 88.5796C11.0574 87.9922 11.0899 87.3884 11.2573 86.8157C11.8383 83.8912 13.6271 83.3161 15.0392 83.3161C16.3915 83.4006 17.7216 83.7007 18.9795 84.2051C19.9647 84.5958 20.9993 84.8475 22.0536 84.953C22.8789 84.9118 23.7017 84.8283 24.5185 84.7026C26.2516 84.4445 27.9993 84.2972 29.7511 84.2616C34.8535 84.2616 37.7304 86.2089 38.2903 90.1107C38.4697 90.8878 38.4745 91.6951 38.3044 92.4743V92.4814ZM67.1191 74.5531C65.1434 72.002 63.8274 69.0015 63.2879 65.8182C62.749 62.6411 63.0031 59.3798 64.0274 56.3249C65.2176 52.5537 68.7389 50.4652 73.9398 50.4652C82.2888 50.4652 94.7155 56.1097 99.8918 64.5447C102.653 69.0356 102.927 73.6852 100.681 77.9927C98.2826 82.6212 93.7049 85.1506 87.7609 85.1506C80.1197 85.1435 71.82 80.8855 67.1191 74.546V74.5531Z" fill="var(--sapContent_Illustrative_Color20)"/>
<path d="M106.649 108.857C106.399 108.392 105.241 106.3 103.315 106.134C101.825 106.003 100.582 106.97 98.9164 109.062C94.4866 114.625 94.3388 116.036 95.5395 119.688C95.727 120.287 96.1103 120.805 96.6276 121.159C97.1446 121.511 97.7641 121.681 98.3882 121.642C100.247 121.526 101.867 120.743 103.223 119.924C103.403 119.815 103.547 119.723 103.593 119.691C105.984 118.125 106.519 111.112 106.649 108.857Z" fill="var(--sapContent_Illustrative_Color17)"/>
<path d="M29.73 84.2616C27.9781 84.2955 26.2302 84.4428 24.4973 84.7026C23.6807 84.83 22.8579 84.9136 22.0324 84.9531C20.9781 84.8476 19.9435 84.5959 18.9583 84.2052C17.6994 83.704 16.3698 83.4041 15.018 83.3162C13.6095 83.3162 11.8171 83.8912 11.2361 86.8122C11.0695 87.385 11.037 87.9886 11.141 88.5761C11.2462 89.1647 11.4874 89.7204 11.8453 90.1989C12.6376 91.1655 14.0461 91.6347 16.018 91.6347C17.1329 91.6102 18.2454 91.5183 19.3492 91.3595C19.865 91.2814 20.3845 91.2296 20.9056 91.2043C21.5465 91.2043 21.8634 91.4759 22.5324 92.1321C23.4942 93.1747 24.7065 93.9532 26.0537 94.3934L26.4868 94.5416C28.7179 95.3877 31.0612 95.9 33.4414 96.0621H33.4731C34.1906 96.1212 34.9122 96.02 35.5859 95.7657C36.2497 95.5178 36.8509 95.1263 37.3465 94.6192C37.8203 93.978 38.1495 93.2413 38.3113 92.4602C38.4729 91.6803 38.4596 90.8742 38.2726 90.1001C37.7022 86.2125 34.8253 84.2616 29.73 84.2616Z" fill="var(--sapContent_Illustrative_Color17)"/>
<path d="M72.2848 137.38C72.2867 136.172 72.6272 134.988 73.2673 133.965C74.1143 132.837 75.1955 131.906 76.4364 131.238C78.0668 130.253 80.0352 129.008 81.0141 126.331C82.3698 122.708 82.5282 120.429 81.3169 118.703C80.1056 116.978 77.7111 116.199 73.5208 116.199C70.8092 116.209 68.117 116.658 65.5486 117.529C64.6591 117.867 63.7259 118.076 62.7773 118.15C62.1563 118.154 61.5503 117.959 61.0483 117.592C60.0589 116.767 59.3167 115.684 58.9039 114.463C57.9813 112.403 56.8298 109.831 52.8965 109.831H52.0233C50.3764 109.837 48.7448 109.515 47.2237 108.882C45.7068 108.248 44.3296 107.32 43.1707 106.152C42.6098 105.545 41.927 105.064 41.1671 104.74C40.4077 104.42 39.5896 104.262 38.7656 104.278C37.4854 104.332 36.2176 104.553 34.9943 104.934C34.0875 105.219 33.1501 105.394 32.2019 105.457C30.8546 105.39 29.544 104.994 28.3848 104.303C27.2294 103.607 26.262 102.638 25.5678 101.481C25.2931 100.909 24.5361 99.417 23.1311 99.417C22.0078 99.417 20.9655 100.302 19.5218 102.461C19.2929 102.835 19.0886 103.167 18.902 103.442C18.601 103.962 18.2469 104.449 17.8456 104.896C17.0054 104.193 16.2743 103.369 15.6765 102.451C15.1906 101.807 14.7304 101.184 14.2961 100.585L13.944 100.098C18.8894 111.418 26.6766 121.263 36.5472 128.673C46.4203 136.081 58.0396 140.801 70.2742 142.375C70.8327 141.767 71.2872 141.071 71.6193 140.315C72.0384 139.392 72.2649 138.393 72.2848 137.38Z" fill="var(--sapContent_Illustrative_Color17)"/>
<path d="M12.3841 80.4021C13.2037 80.0251 13.939 79.4863 14.5462 78.8182C16.8561 76.5498 18.0181 74.232 19.1485 69.6812C20.3281 64.968 22.4233 59.4505 28.1454 58.4769C29.4553 58.2581 30.7124 58.0923 31.9132 57.9265C36.9662 57.221 40.9664 56.66 42.9313 53.7143C45.7484 49.5057 47.1216 42.6723 41.72 37.2853C38.8546 34.2376 34.9095 32.4387 30.7335 32.2759C28.7877 32.3069 26.874 32.7772 25.1347 33.6517C23.3986 34.5271 21.8811 35.7821 20.6943 37.3242C17.8033 40.792 15.5427 43.0956 13.8701 43.0956H13.849C9.97987 52.0562 7.98907 61.7173 8.00005 71.4803C7.99932 74.6243 8.20517 77.765 8.61627 80.8819C8.99463 80.9549 9.37891 80.9927 9.76422 80.9948C10.6685 80.9767 11.5598 80.7751 12.3841 80.4021Z" fill="var(--sapContent_Illustrative_Color17)"/>
<path d="M26.6207 28.7022C27.8109 26.7196 28.0961 24.9416 27.4764 23.4105C27.3714 23.1978 27.2538 22.9917 27.1242 22.7931C24.2916 25.8456 21.729 29.1389 19.4654 32.6357C22.043 32.4699 24.7192 31.8666 26.6207 28.7022Z" fill="var(--sapContent_Illustrative_Color17)"/>
<path d="M37.3079 28.7692C38.7386 29.2073 40.232 29.404 41.7271 29.3513C42.6672 29.3513 43.2518 29.3513 43.4877 29.6018C43.8266 30.0701 44.075 30.5977 44.2202 31.1576C44.7167 32.5299 45.3329 34.2303 47.0372 35.0382C48.4276 35.6089 49.9229 35.8782 51.4247 35.8284C52.7839 35.8284 56.1433 35.6379 58.0448 33.8034C61.9182 30.0639 56.0517 23.22 55.8052 22.9378L55.6256 22.7261L55.351 22.6414C48.7844 20.5859 41.9544 19.4974 35.0753 19.41H32.0365V19.4558L32.216 20.5142C32.3534 21.2515 33.5506 27.5663 37.3079 28.7692Z" fill="var(--sapContent_Illustrative_Color17)"/>
<path d="M100.68 77.9715C102.927 73.6641 102.652 69.0144 99.8917 64.5235C94.7049 56.0991 82.2852 50.4441 73.9398 50.4441C68.7353 50.4441 65.2175 52.5325 64.0273 56.3038C63.0028 59.3586 62.7487 62.62 63.2878 65.7971C63.8273 68.9804 65.1433 71.9809 67.119 74.5319C71.8199 80.882 80.1196 85.1153 87.7608 85.1153C93.7048 85.1435 98.2825 82.6141 100.68 77.9715Z" fill="var(--sapContent_Illustrative_Color17)"/>
<path opacity="0.5" d="M106.336 104.451C125.703 104.451 141.394 88.4455 141.394 68.6581C141.394 48.8707 125.699 32.865 106.336 32.865C86.9721 32.865 71.2742 48.8707 71.2742 68.6581C71.2742 88.4455 86.9721 104.451 106.336 104.451Z" fill="var(--sapContent_Illustrative_Color7)"/>
<path opacity="0.7" d="M120.192 37.0314L107.086 32.865L85.1094 98.2811L98.2192 102.44L120.192 37.0314Z" fill="var(--sapContent_Illustrative_Color8)"/>
<path opacity="0.7" d="M103.339 104.451L125.71 38.9222L121.622 37.617L99.2649 103.146L103.339 104.451Z" fill="var(--sapContent_Illustrative_Color8)"/>
<path d="M123.822 100.546L114.237 104.426L120.365 119.631L129.953 115.751L123.822 100.546Z" fill="var(--sapContent_Illustrative_Color6)"/>
<path d="M120.217 118.64C119.85 118.792 119.559 119.084 119.407 119.451C119.331 119.632 119.292 119.827 119.292 120.023C119.292 120.219 119.331 120.413 119.407 120.594L133.907 156.38C134.503 157.817 135.643 158.959 137.077 159.555C138.509 160.148 140.117 160.148 141.549 159.555L142.682 159.093C144.106 158.49 145.236 157.349 145.827 155.918C146.415 154.484 146.415 152.876 145.827 151.442L131.309 115.708C131.235 115.526 131.125 115.36 130.985 115.222C130.846 115.08 130.681 114.967 130.499 114.89C130.317 114.815 130.122 114.775 129.925 114.774C129.727 114.774 129.531 114.812 129.347 114.886L120.217 118.64Z" fill="var(--sapContent_Illustrative_Color3)"/>
<path d="M113.854 103.643L114.861 106.046C114.861 106.046 119.886 108.272 125.125 103.605L123.53 99.7698L119.118 101.922L113.854 103.643Z" fill="var(--sapContent_Illustrative_Color4)"/>
<path d="M106.575 105.693C98.0532 105.7 89.7925 102.747 83.2008 97.3356C76.6094 91.9233 72.0967 84.3873 70.4326 76.0135C68.7674 67.6395 70.0517 58.946 74.0666 51.4142C78.0817 43.8824 84.5787 37.978 92.4512 34.7065C100.327 31.4381 109.089 31.0043 117.248 33.4788C125.404 35.959 132.45 41.1952 137.186 48.2956C141.922 55.3955 144.056 63.9201 143.225 72.4187C142.391 80.9166 138.64 88.8614 132.612 94.8979C129.196 98.3287 125.138 101.05 120.671 102.906C116.201 104.755 111.411 105.703 106.575 105.693ZM106.575 34.9429C98.7463 34.9288 91.1549 37.6356 85.0953 42.6017C79.0352 47.5656 74.8811 54.4815 73.3412 62.1705C71.8025 69.8622 72.9749 77.8505 76.6582 84.7731C80.3388 91.6934 86.301 97.1206 93.5287 100.13C100.759 103.138 108.807 103.542 116.301 101.273C123.789 98.9994 130.259 94.1974 134.612 87.6835C138.967 81.1641 140.93 73.3327 140.165 65.5254C139.4 57.7211 135.958 50.4239 130.425 44.8772C124.102 38.531 115.525 34.9559 106.575 34.9358V34.9429Z" fill="var(--sapContent_Illustrative_Color4)"/>
</svg>
