<svg width="45" height="45" viewBox="0 0 45 45" fill="none" xmlns="http://www.w3.org/2000/svg" id="sapIllus-Dot-SortColumn">
<path d="M34.8631 4.5H7.05137C5.36614 4.5 4 5.86614 4 7.55137V41.9486C4 43.6339 5.36614 45 7.05137 45H34.8631C36.5483 45 37.9145 43.6339 37.9145 41.9486V7.55137C37.9145 5.86614 36.5483 4.5 34.8631 4.5Z" style="fill:var(--sapContent_Illustrative_Color8)"/>
<path fill-rule="evenodd" clip-rule="evenodd" d="M34.8631 5.4H7.05137C5.8632 5.4 4.9 6.3632 4.9 7.55137V41.9486C4.9 43.1368 5.8632 44.1 7.05137 44.1H34.8631C36.0513 44.1 37.0145 43.1368 37.0145 41.9486V7.55137C37.0145 6.3632 36.0513 5.4 34.8631 5.4ZM7.05137 4.5H34.8631C36.5483 4.5 37.9145 5.86614 37.9145 7.55137V41.9486C37.9145 43.6339 36.5483 45 34.8631 45H7.05137C5.36614 45 4 43.6339 4 41.9486V7.55137C4 5.86614 5.36614 4.5 7.05137 4.5Z" style="fill:var(--sapContent_Illustrative_Color4)"/>
<path fill-rule="evenodd" clip-rule="evenodd" d="M7.12659 7.77778C7.12659 7.63908 7.15941 7.52686 7.19858 7.52686H30.2935C30.3337 7.52686 30.3655 7.63908 30.3655 7.77778V41.7208C30.3655 41.8595 30.3337 41.9707 30.2935 41.9707H7.19858C7.15941 41.9707 7.12659 41.8648 7.12659 41.7208V7.77778Z" style="fill:var(--sapContent_Illustrative_Color8)"/>
<path d="M30.3655 10.7786H7.12659V13.5917H30.3655V10.7786Z" style="fill:var(--sapContent_Illustrative_Color18)"/>
<path d="M16.7221 8.52734H9.09577C8.73323 8.52734 8.43933 8.82124 8.43933 9.18378C8.43933 9.54632 8.73323 9.84022 9.09577 9.84022H16.7221C17.0846 9.84022 17.3785 9.54632 17.3785 9.18378C17.3785 8.82124 17.0846 8.52734 16.7221 8.52734Z" style="fill:var(--sapContent_Illustrative_Color3)"/>
<path d="M15.1286 11.8413H8.81414C8.60714 11.8413 8.43933 12.0091 8.43933 12.2161C8.43933 12.4231 8.60714 12.5909 8.81414 12.5909H15.1286C15.3356 12.5909 15.5034 12.4231 15.5034 12.2161C15.5034 12.0091 15.3356 11.8413 15.1286 11.8413Z" style="fill:var(--sapContent_Illustrative_Color14)"/>
<path d="M13.9407 14.5911H8.81414C8.60714 14.5911 8.43933 14.7589 8.43933 14.9659C8.43933 15.1729 8.60714 15.3407 8.81414 15.3407H13.9407C14.1477 15.3407 14.3155 15.1729 14.3155 14.9659C14.3155 14.7589 14.1477 14.5911 13.9407 14.5911Z" style="fill:var(--sapContent_Illustrative_Color14)"/>
<path d="M14.7528 17.4666H8.81414C8.60714 17.4666 8.43933 17.6344 8.43933 17.8414C8.43933 18.0484 8.60714 18.2162 8.81414 18.2162H14.7528C14.9598 18.2162 15.1276 18.0484 15.1276 17.8414C15.1276 17.6344 14.9598 17.4666 14.7528 17.4666Z" style="fill:var(--sapContent_Illustrative_Color14)"/>
<path d="M11.5023 20.2175H8.81414C8.60714 20.2175 8.43933 20.3853 8.43933 20.5923C8.43933 20.7993 8.60714 20.9671 8.81414 20.9671H11.5023C11.7093 20.9671 11.8772 20.7993 11.8772 20.5923C11.8772 20.3853 11.7093 20.2175 11.5023 20.2175Z" style="fill:var(--sapContent_Illustrative_Color14)"/>
<path d="M11.5023 23.0305H8.81414C8.60714 23.0305 8.43933 23.1983 8.43933 23.4053C8.43933 23.6123 8.60714 23.7801 8.81414 23.7801H11.5023C11.7093 23.7801 11.8772 23.6123 11.8772 23.4053C11.8772 23.1983 11.7093 23.0305 11.5023 23.0305Z" style="fill:var(--sapContent_Illustrative_Color14)"/>
<path d="M11.5023 28.657H8.81414C8.60714 28.657 8.43933 28.8248 8.43933 29.0318C8.43933 29.2388 8.60714 29.4066 8.81414 29.4066H11.5023C11.7093 29.4066 11.8772 29.2388 11.8772 29.0318C11.8772 28.8248 11.7093 28.657 11.5023 28.657Z" style="fill:var(--sapContent_Illustrative_Color14)"/>
<path d="M11.5023 25.8435H8.81414C8.60714 25.8435 8.43933 26.0113 8.43933 26.2183C8.43933 26.4253 8.60714 26.5931 8.81414 26.5931H11.5023C11.7093 26.5931 11.8772 26.4253 11.8772 26.2183C11.8772 26.0113 11.7093 25.8435 11.5023 25.8435Z" style="fill:var(--sapContent_Illustrative_Color14)"/>
<path d="M11.5023 31.4702H8.81414C8.60714 31.4702 8.43933 31.638 8.43933 31.845C8.43933 32.052 8.60714 32.2198 8.81414 32.2198H11.5023C11.7093 32.2198 11.8772 32.052 11.8772 31.845C11.8772 31.638 11.7093 31.4702 11.5023 31.4702Z" style="fill:var(--sapContent_Illustrative_Color14)"/>
<path d="M28.2617 11.7695H21.9472C21.7402 11.7695 21.5724 11.9373 21.5724 12.1443C21.5724 12.3513 21.7402 12.5191 21.9472 12.5191H28.2617C28.4687 12.5191 28.6365 12.3513 28.6365 12.1443C28.6365 11.9373 28.4687 11.7695 28.2617 11.7695Z" style="fill:var(--sapContent_Illustrative_Color14)"/>
<path d="M27.0737 14.5203H21.9472C21.7402 14.5203 21.5724 14.6881 21.5724 14.8951C21.5724 15.1021 21.7402 15.2699 21.9472 15.2699H27.0737C27.2807 15.2699 27.4485 15.1021 27.4485 14.8951C27.4485 14.6881 27.2807 14.5203 27.0737 14.5203Z" style="fill:var(--sapContent_Illustrative_Color14)"/>
<path d="M27.8858 17.3958H21.9472C21.7402 17.3958 21.5724 17.5636 21.5724 17.7706C21.5724 17.9776 21.7402 18.1454 21.9472 18.1454H27.8858C28.0928 18.1454 28.2606 17.9776 28.2606 17.7706C28.2606 17.5636 28.0928 17.3958 27.8858 17.3958Z" style="fill:var(--sapContent_Illustrative_Color14)"/>
<path d="M24.6354 20.1465H21.9472C21.7402 20.1465 21.5724 20.3143 21.5724 20.5213C21.5724 20.7283 21.7402 20.8961 21.9472 20.8961H24.6354C24.8424 20.8961 25.0102 20.7283 25.0102 20.5213C25.0102 20.3143 24.8424 20.1465 24.6354 20.1465Z" style="fill:var(--sapContent_Illustrative_Color14)"/>
<path d="M24.6354 22.9595H21.9472C21.7402 22.9595 21.5724 23.1273 21.5724 23.3343C21.5724 23.5413 21.7402 23.7091 21.9472 23.7091H24.6354C24.8424 23.7091 25.0102 23.5413 25.0102 23.3343C25.0102 23.1273 24.8424 22.9595 24.6354 22.9595Z" style="fill:var(--sapContent_Illustrative_Color14)"/>
<path d="M24.6354 28.5857H21.9472C21.7402 28.5857 21.5724 28.7535 21.5724 28.9605C21.5724 29.1675 21.7402 29.3353 21.9472 29.3353H24.6354C24.8424 29.3353 25.0102 29.1675 25.0102 28.9605C25.0102 28.7535 24.8424 28.5857 24.6354 28.5857Z" style="fill:var(--sapContent_Illustrative_Color14)"/>
<path d="M24.6354 25.7727H21.9472C21.7402 25.7727 21.5724 25.9405 21.5724 26.1475C21.5724 26.3545 21.7402 26.5223 21.9472 26.5223H24.6354C24.8424 26.5223 25.0102 26.3545 25.0102 26.1475C25.0102 25.9405 24.8424 25.7727 24.6354 25.7727Z" style="fill:var(--sapContent_Illustrative_Color14)"/>
<path d="M24.6354 31.3979H21.9472C21.7402 31.3979 21.5724 31.5658 21.5724 31.7728C21.5724 31.9798 21.7402 32.1476 21.9472 32.1476H24.6354C24.8424 32.1476 25.0102 31.9798 25.0102 31.7728C25.0102 31.5658 24.8424 31.3979 24.6354 31.3979Z" style="fill:var(--sapContent_Illustrative_Color14)"/>
<path d="M42.2 8.1C42.2 12.2974 38.7974 15.7 34.6 15.7C30.4026 15.7 27 12.2974 27 8.1C27 3.90264 30.4026 0.5 34.6 0.5C38.7974 0.5 42.2 3.90264 42.2 8.1Z" style="fill:var(--sapContent_Illustrative_Color14)" stroke="white"/>
<path fill-rule="evenodd" clip-rule="evenodd" d="M33.0001 3.97168C33.2918 3.97168 33.5282 4.20811 33.5282 4.49976V10.4998C33.5282 10.7914 33.2918 11.0278 33.0001 11.0278C32.7085 11.0278 32.472 10.7914 32.472 10.4998V4.49976C32.472 4.20811 32.7085 3.97168 33.0001 3.97168Z" style="fill:var(--sapContent_Illustrative_Color8)"/>
<path fill-rule="evenodd" clip-rule="evenodd" d="M31.1267 9.62611C31.3329 9.41988 31.6673 9.41988 31.8735 9.62611L33.0001 10.7527L34.1267 9.62611C34.3329 9.41988 34.6673 9.41988 34.8735 9.62611C35.0798 9.83233 35.0798 10.1667 34.8735 10.3729L33.3735 11.8729C33.1673 12.0791 32.8329 12.0791 32.6267 11.8729L31.1267 10.3729C30.9205 10.1667 30.9205 9.83233 31.1267 9.62611Z" style="fill:var(--sapContent_Illustrative_Color8)"/>
<path fill-rule="evenodd" clip-rule="evenodd" d="M37.0001 4.97168C37.2918 4.97168 37.5282 5.20811 37.5282 5.49976V11.4998C37.5282 11.7914 37.2918 12.0278 37.0001 12.0278C36.7085 12.0278 36.472 11.7914 36.472 11.4998V5.49976C36.472 5.20811 36.7085 4.97168 37.0001 4.97168Z" style="fill:var(--sapContent_Illustrative_Color8)"/>
<path fill-rule="evenodd" clip-rule="evenodd" d="M37.0001 3.97168C37.1402 3.97168 37.2745 4.02732 37.3735 4.12635L38.8735 5.62635C39.0798 5.83258 39.0798 6.16694 38.8735 6.37316C38.6673 6.57939 38.3329 6.57939 38.1267 6.37316L37.0001 5.24657L35.8735 6.37316C35.6673 6.57939 35.3329 6.57939 35.1267 6.37316C34.9205 6.16694 34.9205 5.83258 35.1267 5.62635L36.6267 4.12635C36.7257 4.02732 36.8601 3.97168 37.0001 3.97168Z" style="fill:var(--sapContent_Illustrative_Color8)"/>
</svg>
