<svg width="320" height="202" viewBox="0 0 320 202" fill="none" xmlns="http://www.w3.org/2000/svg" id="sapIllus-Scene-FilterTable">
<path d="M305.547 6.15619e-06H14.4533C12.5559 -0.00174584 10.6768 0.37047 8.92329 1.09536C7.16981 1.82026 5.57638 2.88362 4.23409 4.22468C2.8918 5.56573 1.82697 7.15816 1.10045 8.91098C0.373942 10.6638 -8.08861e-07 12.5426 0 14.44V185.547C0 189.38 1.52275 193.056 4.23328 195.767C6.9438 198.477 10.6201 200 14.4533 200H305.547C309.38 200 313.056 198.477 315.767 195.767C318.477 193.056 320 189.38 320 185.547V14.44C320 12.5426 319.626 10.6638 318.9 8.91098C318.173 7.15816 317.108 5.56573 315.766 4.22468C314.424 2.88362 312.83 1.82026 311.077 1.09536C309.323 0.37047 307.444 -0.00174584 305.547 6.15619e-06V6.15619e-06Z" fill="var(--sapContent_Illustrative_Color7)"/>
<path d="M299.256 97.4949L237.461 76.2943C234.841 75.3954 231.99 76.7938 231.092 79.4177L200.292 169.46C199.394 172.084 200.791 174.94 203.411 175.839L265.206 197.039C267.826 197.938 270.677 196.54 271.575 193.916L302.375 103.873C303.273 101.25 301.876 98.3938 299.256 97.4949Z" fill="var(--sapContent_Illustrative_Color18)"/>
<path d="M262.194 99.0393C260.154 98.2239 257.918 98.0325 255.769 98.4895C253.62 98.9465 251.655 100.031 250.122 101.607C248.589 103.182 247.557 105.177 247.156 107.34C246.755 109.503 247.003 111.737 247.87 113.758C248.736 115.78 250.181 117.499 252.023 118.698C253.865 119.897 256.02 120.522 258.217 120.494C260.413 120.466 262.552 119.787 264.363 118.542C266.174 117.296 267.576 115.542 268.391 113.499L258.069 109.377L262.194 99.0393Z" fill="var(--sapContent_Illustrative_Color7)"/>
<path d="M265.496 97.5137L261.38 107.842L271.693 111.963C272.234 110.607 272.503 109.158 272.485 107.697C272.466 106.237 272.16 104.794 271.585 103.452C271.009 102.11 270.175 100.895 269.13 99.8761C268.086 98.8571 266.851 98.0543 265.496 97.5137V97.5137Z" fill="var(--sapContent_Illustrative_Color19)"/>
<path d="M274.054 134.456L230.993 119.683C229.564 119.193 228.009 119.955 227.52 121.386C227.03 122.817 227.792 124.374 229.22 124.864L272.282 139.638C273.711 140.128 275.265 139.365 275.755 137.934C276.244 136.504 275.483 134.946 274.054 134.456Z" fill="var(--sapContent_Illustrative_Color7)"/>
<path d="M270.331 143.219L227.269 128.445C225.841 127.955 224.286 128.717 223.796 130.148C223.307 131.579 224.068 133.136 225.497 133.626L268.558 148.4C269.987 148.89 271.542 148.127 272.031 146.697C272.521 145.266 271.759 143.709 270.331 143.219Z" fill="var(--sapContent_Illustrative_Color7)"/>
<path d="M246.68 144.921L223.739 137.051C222.311 136.561 220.756 137.323 220.266 138.754C219.777 140.185 220.538 141.742 221.967 142.232L244.908 150.102C246.336 150.593 247.891 149.83 248.38 148.399C248.87 146.969 248.108 145.412 246.68 144.921Z" fill="var(--sapContent_Illustrative_Color7)"/>
<path d="M36.2031 116H152.846C154.644 116 156.101 117.452 156.101 119.244V194.526C156.101 196.318 154.644 197.77 152.846 197.77H36.2031C34.4054 197.77 32.9481 196.318 32.9481 194.526V119.244C32.9481 117.452 34.4054 116 36.2031 116Z" fill="var(--sapContent_Illustrative_Color18)"/>
<path d="M38.9036 120.406H150.307C151.976 120.406 153.328 121.754 153.328 123.417V191.225C153.328 192.888 151.976 194.236 150.307 194.236H38.9036C37.2351 194.236 35.8826 192.888 35.8826 191.225V123.417C35.8826 121.754 37.2351 120.406 38.9036 120.406Z" fill="var(--sapContent_Illustrative_Color7)"/>
<path d="M15.9999 199.266H169.333L165.484 200.824C165.241 200.92 164.982 200.972 164.721 200.974L19.939 201.333C19.5573 201.335 19.1828 201.229 18.8588 201.028L16.0035 199.256L15.9999 199.266Z" fill="var(--sapContent_Illustrative_Color19)"/>
<path d="M15.9999 198.707C16.0009 198.437 16.109 198.179 16.3007 197.988C16.4924 197.798 16.7519 197.691 17.0225 197.691H168.311C168.581 197.691 168.841 197.798 169.032 197.988C169.224 198.179 169.332 198.437 169.333 198.707V199.266H15.9999V198.707Z" fill="var(--sapContent_Illustrative_Color18)"/>
<path d="M101.587 197.659H83.9043V198.018C83.9043 198.398 84.0561 198.764 84.3262 199.033C84.5963 199.302 84.9626 199.453 85.3446 199.453H100.158C100.54 199.453 100.906 199.302 101.176 199.033C101.446 198.764 101.598 198.398 101.598 198.018V197.659H101.587Z" fill="var(--sapContent_Illustrative_Color20)"/>
<path d="M94.2996 118.881C93.8641 118.881 93.5111 118.53 93.5111 118.096C93.5111 117.662 93.8641 117.31 94.2996 117.31C94.7351 117.31 95.0881 117.662 95.0881 118.096C95.0881 118.53 94.7351 118.881 94.2996 118.881Z" fill="var(--sapContent_Illustrative_Color19)"/>
<path d="M40.0001 81.0501C40.0001 79.8612 43.4511 78.9096 48.062 78.6935C48.3257 74.0883 49.3407 70.6641 50.5297 70.6667C51.7187 70.6694 52.7073 74.12 52.9604 78.7488C57.5845 79.0652 61.0224 80.0985 61.0065 81.29C60.9907 82.4815 57.5555 83.4331 52.9446 83.6466C52.6677 88.2517 51.6659 91.6759 50.4796 91.6733C49.2932 91.6707 48.2993 88.2201 48.0462 83.5912C43.4221 83.2749 39.9869 82.2416 40.0001 81.0501Z" fill="var(--sapContent_Illustrative_Color18)"/>
<path d="M18.6667 22.6915C18.6667 21.9253 20.8907 21.3121 23.8622 21.1728C24.0321 18.205 24.6862 15.9983 25.4524 16C26.2187 16.0017 26.8558 18.2254 27.0189 21.2085C29.9989 21.4123 32.2144 22.0782 32.2042 22.8461C32.194 23.6139 29.9802 24.2272 27.0087 24.3648C26.8303 27.3325 26.1847 29.5393 25.4201 29.5376C24.6556 29.5359 24.0151 27.3122 23.852 24.3291C20.872 24.1253 18.6582 23.4593 18.6667 22.6915Z" fill="var(--sapContent_Illustrative_Color18)"/>
<path d="M282.667 36.0247C282.667 35.2586 284.891 34.6453 287.862 34.506C288.032 31.5383 288.686 29.3316 289.452 29.3333C290.219 29.335 290.856 31.5587 291.019 34.5417C293.999 34.7456 296.214 35.4115 296.204 36.1793C296.194 36.9472 293.98 37.5604 291.009 37.698C290.83 40.6658 290.185 42.8725 289.42 42.8708C288.655 42.8691 288.015 40.6454 287.852 37.6624C284.872 37.4585 282.658 36.7926 282.667 36.0247Z" fill="var(--sapContent_Illustrative_Color18)"/>
<path d="M197.852 31.5767H89.2488C82.6681 31.5767 77.3334 36.9114 77.3334 43.4921V177.812C77.3334 184.392 82.6681 189.727 89.2488 189.727H197.852C204.433 189.727 209.768 184.392 209.768 177.812V43.4921C209.768 36.9114 204.433 31.5767 197.852 31.5767Z" fill="var(--sapContent_Illustrative_Color8)"/>
<path fill-rule="evenodd" clip-rule="evenodd" d="M89.5425 44.38C89.5425 43.8384 89.6913 43.4043 89.8733 43.4043H196.542C196.724 43.4043 196.872 43.8177 196.872 44.38V176.926C196.872 177.468 196.724 177.902 196.542 177.902H89.8733C89.6913 177.902 89.5425 177.488 89.5425 176.926V44.38Z" fill="var(--sapContent_Illustrative_Color8)"/>
<path d="M196.881 56.0933H89.5425V67.0785H196.881V56.0933Z" fill="var(--sapContent_Illustrative_Color18)"/>
<path d="M95.7565 60.2451H114.213C114.816 60.2451 115.308 60.9025 115.308 61.7129C115.308 62.5397 114.816 63.1764 114.213 63.1764H95.7565C95.1488 63.1764 94.6567 62.5191 94.6567 61.7129C94.6567 60.9025 95.1322 60.2451 95.7565 60.2451Z" fill="var(--sapContent_Illustrative_Color14)"/>
<path d="M95.7565 70.9856H110.74C111.343 70.9856 111.835 71.643 111.835 72.4492C111.835 73.2761 111.343 73.9169 110.74 73.9169H95.7565C95.1488 73.9169 94.6567 73.2595 94.6567 72.4492C94.6567 71.643 95.1322 70.9856 95.7565 70.9856Z" fill="var(--sapContent_Illustrative_Color14)"/>
<path d="M95.7565 82.2188H113.121C113.729 82.2188 114.221 82.8761 114.221 83.6823C114.221 84.5092 113.729 85.1501 113.121 85.1501H95.7565C95.1488 85.1501 94.6567 84.4927 94.6567 83.6823C94.6567 82.872 95.1322 82.2188 95.7565 82.2188Z" fill="var(--sapContent_Illustrative_Color14)"/>
<path d="M95.7565 92.9683H103.612C104.22 92.9683 104.708 93.6256 104.708 94.4318C104.708 95.2587 104.22 95.8954 103.612 95.8954H95.7565C95.1488 95.8954 94.6567 95.2422 94.6567 94.4318C94.6567 93.6132 95.1322 92.9683 95.7565 92.9683Z" fill="var(--sapContent_Illustrative_Color14)"/>
<path d="M95.7565 103.941H103.612C104.22 103.941 104.708 104.594 104.708 105.405C104.708 106.231 104.22 106.868 103.612 106.868H95.7565C95.1488 106.868 94.6567 106.215 94.6567 105.405C94.6567 104.594 95.1322 103.941 95.7565 103.941Z" fill="var(--sapContent_Illustrative_Color14)"/>
<path d="M95.7565 125.911H103.612C104.22 125.911 104.708 126.565 104.708 127.375C104.708 128.202 104.22 128.839 103.612 128.839H95.7565C95.1488 128.839 94.6567 128.181 94.6567 127.375C94.6567 126.565 95.1322 125.911 95.7565 125.911Z" fill="var(--sapContent_Illustrative_Color14)"/>
<path d="M95.7565 114.927H103.612C104.22 114.927 104.708 115.58 104.708 116.391C104.708 117.218 104.22 117.854 103.612 117.854H95.7565C95.1488 117.854 94.6567 117.201 94.6567 116.391C94.6567 115.58 95.1322 114.927 95.7565 114.927Z" fill="var(--sapContent_Illustrative_Color14)"/>
<path d="M95.7565 136.892H103.612C104.22 136.892 104.708 137.55 104.708 138.36C104.708 139.187 104.22 139.824 103.612 139.824H95.7565C95.1488 139.824 94.6567 139.166 94.6567 138.36C94.6567 137.55 95.1322 136.892 95.7565 136.892Z" fill="var(--sapContent_Illustrative_Color14)"/>
<path d="M95.7192 147.923H103.575C104.178 147.923 104.67 148.581 104.67 149.387C104.67 150.214 104.178 150.855 103.575 150.855H95.7192C95.1155 150.855 94.6235 150.197 94.6235 149.387C94.6235 148.581 95.1321 147.923 95.7192 147.923Z" fill="var(--sapContent_Illustrative_Color14)"/>
<path d="M134.343 60.2451H152.799C153.403 60.2451 153.895 60.9025 153.895 61.7129C153.895 62.5397 153.403 63.1764 152.799 63.1764H134.343C133.735 63.1764 133.243 62.5191 133.243 61.7129C133.243 60.9025 133.735 60.2451 134.343 60.2451Z" fill="var(--sapContent_Illustrative_Color14)"/>
<path d="M134.343 70.9856H149.326C149.93 70.9856 150.422 71.643 150.422 72.4492C150.422 73.2761 149.93 73.9169 149.326 73.9169H134.343C133.735 73.9169 133.243 73.2595 133.243 72.4492C133.243 71.643 133.735 70.9856 134.343 70.9856Z" fill="var(--sapContent_Illustrative_Color14)"/>
<path d="M134.343 82.2188H151.708C152.316 82.2188 152.808 82.8761 152.808 83.6823C152.808 84.5092 152.316 85.1501 151.708 85.1501H134.343C133.735 85.1501 133.243 84.4927 133.243 83.6823C133.243 82.872 133.735 82.2188 134.343 82.2188Z" fill="var(--sapContent_Illustrative_Color14)"/>
<path d="M134.343 92.9683H142.199C142.806 92.9683 143.294 93.6256 143.294 94.4318C143.294 95.2587 142.806 95.8954 142.199 95.8954H134.343C133.735 95.8954 133.243 95.2422 133.243 94.4318C133.243 93.6132 133.735 92.9683 134.343 92.9683Z" fill="var(--sapContent_Illustrative_Color14)"/>
<path d="M134.343 103.941H142.199C142.806 103.941 143.294 104.594 143.294 105.405C143.294 106.231 142.806 106.868 142.199 106.868H134.343C133.735 106.868 133.243 106.215 133.243 105.405C133.243 104.594 133.735 103.941 134.343 103.941Z" fill="var(--sapContent_Illustrative_Color14)"/>
<path d="M134.343 125.911H142.199C142.806 125.911 143.294 126.565 143.294 127.375C143.294 128.202 142.806 128.839 142.199 128.839H134.343C133.735 128.839 133.243 128.181 133.243 127.375C133.243 126.565 133.735 125.911 134.343 125.911Z" fill="var(--sapContent_Illustrative_Color14)"/>
<path d="M134.343 114.927H142.199C142.806 114.927 143.294 115.58 143.294 116.391C143.294 117.218 142.806 117.854 142.199 117.854H134.343C133.735 117.854 133.243 117.201 133.243 116.391C133.243 115.58 133.735 114.927 134.343 114.927Z" fill="var(--sapContent_Illustrative_Color14)"/>
<path d="M134.343 136.892H142.199C142.806 136.892 143.294 137.55 143.294 138.36C143.294 139.187 142.806 139.824 142.199 139.824H134.343C133.735 139.824 133.243 139.166 133.243 138.36C133.243 137.55 133.735 136.892 134.343 136.892Z" fill="var(--sapContent_Illustrative_Color14)"/>
<path d="M134.306 147.923H142.161C142.765 147.923 143.257 148.581 143.257 149.387C143.257 150.214 142.765 150.855 142.161 150.855H134.306C133.702 150.855 133.21 150.197 133.21 149.387C133.21 148.581 133.702 147.923 134.306 147.923Z" fill="var(--sapContent_Illustrative_Color14)"/>
<path d="M172.492 60.2451H190.948C191.551 60.2451 192.043 60.9025 192.043 61.7129C192.043 62.5397 191.551 63.1764 190.948 63.1764H172.492C171.884 63.1764 171.392 62.5191 171.392 61.7129C171.392 60.9025 171.884 60.2451 172.492 60.2451Z" fill="var(--sapContent_Illustrative_Color14)"/>
<path d="M172.492 70.9856H187.475C188.078 70.9856 188.57 71.643 188.57 72.4492C188.57 73.2761 188.078 73.9169 187.475 73.9169H172.492C171.884 73.9169 171.392 73.2595 171.392 72.4492C171.392 71.643 171.884 70.9856 172.492 70.9856Z" fill="var(--sapContent_Illustrative_Color14)"/>
<path d="M172.492 82.2188H189.856C190.464 82.2188 190.956 82.8761 190.956 83.6823C190.956 84.5092 190.464 85.1501 189.856 85.1501H172.492C171.884 85.1501 171.392 84.4927 171.392 83.6823C171.392 82.872 171.884 82.2188 172.492 82.2188Z" fill="var(--sapContent_Illustrative_Color14)"/>
<path d="M172.492 92.9683H180.347C180.951 92.9683 181.443 93.6256 181.443 94.4318C181.443 95.2587 180.951 95.8954 180.347 95.8954H172.492C171.884 95.8954 171.392 95.2422 171.392 94.4318C171.392 93.6132 171.884 92.9683 172.492 92.9683Z" fill="var(--sapContent_Illustrative_Color14)"/>
<path d="M172.492 103.941H180.347C180.951 103.941 181.443 104.594 181.443 105.405C181.443 106.231 180.951 106.868 180.347 106.868H172.492C171.884 106.868 171.392 106.215 171.392 105.405C171.392 104.594 171.884 103.941 172.492 103.941Z" fill="var(--sapContent_Illustrative_Color14)"/>
<path d="M172.492 125.911H180.347C180.951 125.911 181.443 126.565 181.443 127.375C181.443 128.202 180.951 128.839 180.347 128.839H172.492C171.884 128.839 171.392 128.181 171.392 127.375C171.392 126.565 171.884 125.911 172.492 125.911Z" fill="var(--sapContent_Illustrative_Color14)"/>
<path d="M172.492 114.927H180.347C180.951 114.927 181.443 115.58 181.443 116.391C181.443 117.218 180.951 117.854 180.347 117.854H172.492C171.884 117.854 171.392 117.201 171.392 116.391C171.392 115.58 171.884 114.927 172.492 114.927Z" fill="var(--sapContent_Illustrative_Color14)"/>
<path d="M172.492 136.892H180.347C180.951 136.892 181.443 137.55 181.443 138.36C181.443 139.187 180.951 139.824 180.347 139.824H172.492C171.884 139.824 171.392 139.166 171.392 138.36C171.392 137.55 171.884 136.892 172.492 136.892Z" fill="var(--sapContent_Illustrative_Color14)"/>
<path d="M172.446 147.923H180.301C180.909 147.923 181.401 148.581 181.401 149.387C181.401 150.214 180.909 150.855 180.301 150.855H172.446C171.838 150.855 171.35 150.197 171.35 149.387C171.359 148.581 171.846 147.923 172.446 147.923Z" fill="var(--sapContent_Illustrative_Color14)"/>
<path d="M118.223 47.3081H97.2201C95.8044 47.3081 94.6567 48.4558 94.6567 49.8715C94.6567 51.2872 95.8044 52.4348 97.2201 52.4348H118.223C119.639 52.4348 120.786 51.2872 120.786 49.8715C120.786 48.4558 119.639 47.3081 118.223 47.3081Z" fill="var(--sapContent_Illustrative_Color14)"/>
<path d="M169.412 72.2489L205.156 110.405C205.297 110.558 205.375 110.759 205.374 110.968V148.165C205.373 148.542 205.472 148.913 205.66 149.239C205.849 149.564 206.12 149.834 206.447 150.02C206.773 150.205 207.143 150.3 207.518 150.294C207.892 150.288 208.259 150.182 208.58 149.987L232.79 135.376C233.102 135.188 233.361 134.922 233.541 134.604C233.721 134.287 233.816 133.927 233.818 133.561L233.93 110.968C233.931 110.763 234.007 110.566 234.145 110.416L270.635 70.6997L169.412 72.2489Z" fill="var(--sapContent_Illustrative_Color2)"/>
<path d="M229.476 110.717V135.949C229.475 136.091 229.513 136.231 229.584 136.354C229.655 136.477 229.757 136.579 229.88 136.649C230.004 136.719 230.143 136.755 230.285 136.753C230.426 136.752 230.565 136.712 230.686 136.639L232.403 135.602C232.831 135.342 233.185 134.976 233.432 134.539C233.678 134.102 233.809 133.608 233.81 133.105L233.919 111.272C233.923 110.867 234.076 110.477 234.349 110.179L269.368 72.065C269.473 71.949 269.543 71.8044 269.568 71.6491C269.593 71.4937 269.572 71.3344 269.508 71.1908C269.444 71.0472 269.34 70.9255 269.208 70.8408C269.076 70.756 268.923 70.7119 268.766 70.7139V70.7139C268.678 70.716 268.592 70.7327 268.509 70.7635L248.454 78.0495C248.278 78.1147 248.13 78.2398 248.035 78.4032L229.581 110.296C229.509 110.424 229.472 110.569 229.476 110.717V110.717Z" fill="var(--sapContent_Illustrative_Color13)"/>
<path d="M219.138 78.1626C248.929 78.1626 273.08 71.4674 273.08 63.2085C273.08 54.9496 248.929 48.2544 219.138 48.2544C189.347 48.2544 165.197 54.9496 165.197 63.2085C165.197 71.4674 189.347 78.1626 219.138 78.1626Z" fill="var(--sapContent_Illustrative_Color13)"/>
<path d="M273.08 63.2228C273.08 59.4878 268.136 56.0747 259.966 53.4539L248.866 75.7046C263.453 73.013 273.08 68.4221 273.08 63.2228Z" fill="var(--sapContent_Illustrative_Color14)"/>
<path d="M219.138 81.0982C204.477 81.0982 190.657 79.5031 180.224 76.6134C168.318 73.3099 162.28 68.8039 162.28 63.2085C162.28 57.6131 168.314 53.1106 180.224 49.8071C190.657 46.9174 204.477 45.3223 219.138 45.3223C233.8 45.3223 247.638 46.9174 258.056 49.8071C269.962 53.1106 276 57.6166 276 63.2085C276 68.8004 269.966 73.3099 258.056 76.6134C247.624 79.4925 233.803 81.0982 219.138 81.0982ZM219.138 51.19C204.987 51.19 191.716 52.7074 181.776 55.4626C170.971 58.4584 168.117 61.8291 168.117 63.2085C168.117 64.5879 170.971 67.9621 181.776 70.9579C191.716 73.7131 204.998 75.2305 219.138 75.2305C233.279 75.2305 246.561 73.7131 256.504 70.9579C267.306 67.9621 270.163 64.5914 270.163 63.2085C270.163 61.8255 267.306 58.4584 256.504 55.4626C246.561 52.7074 233.293 51.1971 219.138 51.1971V51.19Z" fill="var(--sapContent_Illustrative_Color2)"/>
<path d="M183.555 20.7757C183.555 19.0076 178.423 17.5924 171.565 17.2709C171.173 10.4219 169.663 5.32933 167.895 5.33325C166.127 5.33717 164.657 10.469 164.28 17.3532C157.403 17.8237 152.29 19.3604 152.314 21.1325C152.337 22.9045 157.446 24.3198 164.304 24.6373C164.715 31.4862 166.205 36.5789 167.97 36.5749C169.734 36.571 171.212 31.4392 171.589 24.555C178.466 24.0845 183.575 22.5477 183.555 20.7757Z" fill="var(--sapContent_Illustrative_Color3)"/>
<path d="M206.049 33.9759C206.049 32.9858 203.175 32.1932 199.335 32.0132C199.115 28.1778 198.27 25.3259 197.279 25.3281C196.289 25.3303 195.466 28.2041 195.255 32.0593C191.404 32.3227 188.541 33.1834 188.554 34.1757C188.567 35.168 191.428 35.9606 195.268 36.1384C195.499 39.9738 196.333 42.8257 197.321 42.8235C198.309 42.8213 199.137 39.9475 199.348 36.0923C203.199 35.8288 206.06 34.9682 206.049 33.9759Z" fill="var(--sapContent_Illustrative_Color3)"/>
</svg>
