<svg width="160" height="160" viewBox="0 0 160 160" fill="none" xmlns="http://www.w3.org/2000/svg" id="sapIllus-Dialog-GroupTable">
<circle cx="80" cy="80" r="80" fill="var(--sapContent_Illustrative_Color7)"/>
<path d="M124.428 37.4707H55.4125C51.2306 37.4707 47.8405 40.8608 47.8405 45.0427V130.4C47.8405 134.582 51.2306 137.972 55.4125 137.972H124.428C128.61 137.972 132 134.582 132 130.4V45.0427C132 40.8608 128.61 37.4707 124.428 37.4707Z" fill="var(--sapContent_Illustrative_Color18)"/>
<path fill-rule="evenodd" clip-rule="evenodd" d="M55.599 45.6074C55.599 45.2632 55.6936 44.9873 55.8092 44.9873H123.595C123.711 44.9873 123.805 45.25 123.805 45.6074V129.838C123.805 130.182 123.711 130.458 123.595 130.458H55.8092C55.6936 130.458 55.599 130.195 55.599 129.838V45.6074Z" fill="var(--sapContent_Illustrative_Color18)"/>
<path d="M123.81 53.0505H55.599V60.0314H123.81V53.0505Z" fill="var(--sapContent_Illustrative_Color19)"/>
<path d="M59.548 55.689H71.2765C71.6601 55.689 71.9728 56.1067 71.9728 56.6217C71.9728 57.1472 71.6601 57.5518 71.2765 57.5518H59.548C59.1618 57.5518 58.8491 57.134 58.8491 56.6217C58.8491 56.1067 59.1513 55.689 59.548 55.689Z" fill="var(--sapContent_Illustrative_Color20)"/>
<path d="M59.548 62.5146H69.0696C69.4531 62.5146 69.7658 62.9324 69.7658 63.4447C69.7658 63.9702 69.4531 64.3774 69.0696 64.3774H59.548C59.1618 64.3774 58.8491 63.9597 58.8491 63.4447C58.8491 62.9324 59.1513 62.5146 59.548 62.5146Z" fill="var(--sapContent_Illustrative_Color20)"/>
<path d="M59.548 69.6533H70.5829C70.9691 69.6533 71.2818 70.0711 71.2818 70.5834C71.2818 71.1089 70.9691 71.5161 70.5829 71.5161H59.548C59.1618 71.5161 58.8491 71.0984 58.8491 70.5834C58.8491 70.0684 59.1513 69.6533 59.548 69.6533Z" fill="var(--sapContent_Illustrative_Color20)"/>
<path d="M59.548 76.4844H64.54C64.9262 76.4844 65.2362 76.9021 65.2362 77.4145C65.2362 77.9399 64.9262 78.3445 64.54 78.3445H59.548C59.1618 78.3445 58.8491 77.9294 58.8491 77.4145C58.8491 76.8942 59.1513 76.4844 59.548 76.4844Z" fill="var(--sapContent_Illustrative_Color20)"/>
<path d="M59.548 83.457H64.54C64.9262 83.457 65.2362 83.8722 65.2362 84.3871C65.2362 84.9126 64.9262 85.3172 64.54 85.3172H59.548C59.1618 85.3172 58.8491 84.9021 58.8491 84.3871C58.8491 83.8722 59.1513 83.457 59.548 83.457Z" fill="var(--sapContent_Illustrative_Color20)"/>
<path d="M59.548 97.4185H64.54C64.9262 97.4185 65.2362 97.8336 65.2362 98.3485C65.2362 98.874 64.9262 99.2786 64.54 99.2786H59.548C59.1618 99.2786 58.8491 98.8609 58.8491 98.3485C58.8491 97.8336 59.1513 97.4185 59.548 97.4185Z" fill="var(--sapContent_Illustrative_Color20)"/>
<path d="M59.548 90.4385H64.54C64.9262 90.4385 65.2362 90.8536 65.2362 91.3686C65.2362 91.894 64.9262 92.2986 64.54 92.2986H59.548C59.1618 92.2986 58.8491 91.8835 58.8491 91.3686C58.8491 90.8536 59.1513 90.4385 59.548 90.4385Z" fill="var(--sapContent_Illustrative_Color20)"/>
<path d="M59.548 104.397H64.54C64.9262 104.397 65.2362 104.815 65.2362 105.33C65.2362 105.856 64.9262 106.26 64.54 106.26H59.548C59.1618 106.26 58.8491 105.843 58.8491 105.33C58.8491 104.815 59.1513 104.397 59.548 104.397Z" fill="var(--sapContent_Illustrative_Color20)"/>
<path d="M59.5244 111.407H64.5164C64.9 111.407 65.2126 111.825 65.2126 112.337C65.2126 112.863 64.9 113.27 64.5164 113.27H59.5244C59.1408 113.27 58.8281 112.852 58.8281 112.337C58.8281 111.825 59.1513 111.407 59.5244 111.407Z" fill="var(--sapContent_Illustrative_Color20)"/>
<path d="M84.0691 55.689H95.7976C96.1812 55.689 96.4939 56.1067 96.4939 56.6217C96.4939 57.1472 96.1812 57.5518 95.7976 57.5518H84.0691C83.6829 57.5518 83.3702 57.134 83.3702 56.6217C83.3702 56.1067 83.6829 55.689 84.0691 55.689Z" fill="var(--sapContent_Illustrative_Color20)"/>
<path d="M84.0691 62.5146H93.5906C93.9742 62.5146 94.2869 62.9324 94.2869 63.4447C94.2869 63.9702 93.9742 64.3774 93.5906 64.3774H84.0691C83.6829 64.3774 83.3702 63.9597 83.3702 63.4447C83.3702 62.9324 83.6829 62.5146 84.0691 62.5146Z" fill="var(--sapContent_Illustrative_Color20)"/>
<path d="M84.0691 69.6533H95.104C95.4902 69.6533 95.8029 70.0711 95.8029 70.5834C95.8029 71.1089 95.4902 71.5161 95.104 71.5161H84.0691C83.6829 71.5161 83.3702 71.0984 83.3702 70.5834C83.3702 70.0684 83.6829 69.6533 84.0691 69.6533Z" fill="var(--sapContent_Illustrative_Color20)"/>
<path d="M84.0691 76.4844H89.0611C89.4473 76.4844 89.7573 76.9021 89.7573 77.4145C89.7573 77.9399 89.4473 78.3445 89.0611 78.3445H84.0691C83.6829 78.3445 83.3702 77.9294 83.3702 77.4145C83.3702 76.8942 83.6829 76.4844 84.0691 76.4844Z" fill="var(--sapContent_Illustrative_Color20)"/>
<path d="M84.0691 83.457H89.0611C89.4473 83.457 89.7573 83.8722 89.7573 84.3871C89.7573 84.9126 89.4473 85.3172 89.0611 85.3172H84.0691C83.6829 85.3172 83.3702 84.9021 83.3702 84.3871C83.3702 83.8722 83.6829 83.457 84.0691 83.457Z" fill="var(--sapContent_Illustrative_Color20)"/>
<path d="M84.0691 97.4185H89.0611C89.4473 97.4185 89.7573 97.8336 89.7573 98.3485C89.7573 98.874 89.4473 99.2786 89.0611 99.2786H84.0691C83.6829 99.2786 83.3702 98.8609 83.3702 98.3485C83.3702 97.8336 83.6829 97.4185 84.0691 97.4185Z" fill="var(--sapContent_Illustrative_Color20)"/>
<path d="M84.0691 90.4385H89.0611C89.4473 90.4385 89.7573 90.8536 89.7573 91.3686C89.7573 91.894 89.4473 92.2986 89.0611 92.2986H84.0691C83.6829 92.2986 83.3702 91.8835 83.3702 91.3686C83.3702 90.8536 83.6829 90.4385 84.0691 90.4385Z" fill="var(--sapContent_Illustrative_Color20)"/>
<path d="M84.0691 104.397H89.0611C89.4473 104.397 89.7573 104.815 89.7573 105.33C89.7573 105.856 89.4473 106.26 89.0611 106.26H84.0691C83.6829 106.26 83.3702 105.843 83.3702 105.33C83.3702 104.815 83.6829 104.397 84.0691 104.397Z" fill="var(--sapContent_Illustrative_Color20)"/>
<path d="M84.0455 111.407H89.0375C89.4211 111.407 89.7337 111.825 89.7337 112.337C89.7337 112.863 89.4211 113.27 89.0375 113.27H84.0455C83.6619 113.27 83.3492 112.852 83.3492 112.337C83.3492 111.825 83.6619 111.407 84.0455 111.407Z" fill="var(--sapContent_Illustrative_Color20)"/>
<path d="M108.312 55.689H120.04C120.424 55.689 120.736 56.1067 120.736 56.6217C120.736 57.1472 120.424 57.5518 120.04 57.5518H108.312C107.925 57.5518 107.613 57.134 107.613 56.6217C107.613 56.1067 107.925 55.689 108.312 55.689Z" fill="var(--sapContent_Illustrative_Color20)"/>
<path d="M108.312 62.5146H117.833C118.217 62.5146 118.529 62.9324 118.529 63.4447C118.529 63.9702 118.217 64.3774 117.833 64.3774H108.312C107.925 64.3774 107.613 63.9597 107.613 63.4447C107.613 62.9324 107.925 62.5146 108.312 62.5146Z" fill="var(--sapContent_Illustrative_Color20)"/>
<path d="M108.312 69.6533H119.347C119.733 69.6533 120.045 70.0711 120.045 70.5834C120.045 71.1089 119.733 71.5161 119.347 71.5161H108.312C107.925 71.5161 107.613 71.0984 107.613 70.5834C107.613 70.0684 107.925 69.6533 108.312 69.6533Z" fill="var(--sapContent_Illustrative_Color20)"/>
<path d="M108.312 76.4844H113.304C113.687 76.4844 114 76.9021 114 77.4145C114 77.9399 113.687 78.3445 113.304 78.3445H108.312C107.925 78.3445 107.613 77.9294 107.613 77.4145C107.613 76.8942 107.925 76.4844 108.312 76.4844Z" fill="var(--sapContent_Illustrative_Color20)"/>
<path d="M108.312 83.457H113.304C113.687 83.457 114 83.8722 114 84.3871C114 84.9126 113.687 85.3172 113.304 85.3172H108.312C107.925 85.3172 107.613 84.9021 107.613 84.3871C107.613 83.8722 107.925 83.457 108.312 83.457Z" fill="var(--sapContent_Illustrative_Color20)"/>
<path d="M108.312 97.4185H113.304C113.687 97.4185 114 97.8336 114 98.3485C114 98.874 113.687 99.2786 113.304 99.2786H108.312C107.925 99.2786 107.613 98.8609 107.613 98.3485C107.613 97.8336 107.925 97.4185 108.312 97.4185Z" fill="var(--sapContent_Illustrative_Color20)"/>
<path d="M108.312 90.4385H113.304C113.687 90.4385 114 90.8536 114 91.3686C114 91.894 113.687 92.2986 113.304 92.2986H108.312C107.925 92.2986 107.613 91.8835 107.613 91.3686C107.613 90.8536 107.925 90.4385 108.312 90.4385Z" fill="var(--sapContent_Illustrative_Color20)"/>
<path d="M108.312 104.397H113.304C113.687 104.397 114 104.815 114 105.33C114 105.856 113.687 106.26 113.304 106.26H108.312C107.925 106.26 107.613 105.843 107.613 105.33C107.613 104.815 107.925 104.397 108.312 104.397Z" fill="var(--sapContent_Illustrative_Color20)"/>
<path d="M108.283 111.407H113.275C113.661 111.407 113.974 111.825 113.974 112.337C113.974 112.863 113.661 113.27 113.275 113.27H108.283C107.897 113.27 107.587 112.852 107.587 112.337C107.592 111.825 107.902 111.407 108.283 111.407Z" fill="var(--sapContent_Illustrative_Color20)"/>
<path d="M73.8251 47.468H60.4781C59.5784 47.468 58.8491 48.1973 58.8491 49.097C58.8491 49.9966 59.5784 50.7259 60.4781 50.7259H73.8251C74.7247 50.7259 75.454 49.9966 75.454 49.097C75.454 48.1973 74.7247 47.468 73.8251 47.468Z" fill="var(--sapContent_Illustrative_Color20)"/>
<path d="M96.5875 17H27.572C23.3901 17 20 20.3901 20 24.572V109.93C20 114.112 23.3901 117.502 27.572 117.502H96.5875C100.769 117.502 104.16 114.112 104.16 109.93V24.572C104.16 20.3901 100.769 17 96.5875 17Z" fill="var(--sapContent_Illustrative_Color8)"/>
<path fill-rule="evenodd" clip-rule="evenodd" d="M27.7585 25.1367C27.7585 24.7925 27.8531 24.5166 27.9687 24.5166H95.7546C95.8702 24.5166 95.9648 24.7793 95.9648 25.1367V109.367C95.9648 109.711 95.8702 109.987 95.7546 109.987H27.9687C27.8531 109.987 27.7585 109.724 27.7585 109.367V25.1367Z" fill="var(--sapContent_Illustrative_Color8)"/>
<path d="M95.97 32.5798H27.7585V39.5607H95.97V32.5798Z" fill="var(--sapContent_Illustrative_Color18)"/>
<path d="M31.7076 35.2183H43.4361C43.8197 35.2183 44.1323 35.636 44.1323 36.151C44.1323 36.6765 43.8197 37.0811 43.4361 37.0811H31.7076C31.3213 37.0811 31.0087 36.6633 31.0087 36.151C31.0087 35.636 31.3108 35.2183 31.7076 35.2183Z" fill="var(--sapContent_Illustrative_Color14)"/>
<path d="M31.7076 42.0439H41.2291C41.6127 42.0439 41.9254 42.4617 41.9254 42.974C41.9254 43.4995 41.6127 43.9067 41.2291 43.9067H31.7076C31.3213 43.9067 31.0087 43.489 31.0087 42.974C31.0087 42.4617 31.3108 42.0439 31.7076 42.0439Z" fill="var(--sapContent_Illustrative_Color14)"/>
<path d="M31.7076 49.1829H42.7425C43.1287 49.1829 43.4413 49.6006 43.4413 50.1129C43.4413 50.6384 43.1287 51.0457 42.7425 51.0457H31.7076C31.3213 51.0457 31.0087 50.6279 31.0087 50.1129C31.0087 49.598 31.3108 49.1829 31.7076 49.1829Z" fill="var(--sapContent_Illustrative_Color14)"/>
<path d="M31.7076 56.0137H36.6995C37.0858 56.0137 37.3958 56.4314 37.3958 56.9438C37.3958 57.4692 37.0858 57.8738 36.6995 57.8738H31.7076C31.3213 57.8738 31.0087 57.4587 31.0087 56.9438C31.0087 56.4235 31.3108 56.0137 31.7076 56.0137Z" fill="var(--sapContent_Illustrative_Color14)"/>
<path d="M31.7076 62.9863H36.6995C37.0858 62.9863 37.3958 63.4015 37.3958 63.9164C37.3958 64.4419 37.0858 64.8465 36.6995 64.8465H31.7076C31.3213 64.8465 31.0087 64.4314 31.0087 63.9164C31.0087 63.4015 31.3108 62.9863 31.7076 62.9863Z" fill="var(--sapContent_Illustrative_Color14)"/>
<path d="M31.7076 76.9478H36.6995C37.0858 76.9478 37.3958 77.3629 37.3958 77.8778C37.3958 78.4033 37.0858 78.8079 36.6995 78.8079H31.7076C31.3213 78.8079 31.0087 78.3902 31.0087 77.8778C31.0087 77.3629 31.3108 76.9478 31.7076 76.9478Z" fill="var(--sapContent_Illustrative_Color14)"/>
<path d="M31.7076 69.9678H36.6995C37.0858 69.9678 37.3958 70.3829 37.3958 70.8979C37.3958 71.4233 37.0858 71.8279 36.6995 71.8279H31.7076C31.3213 71.8279 31.0087 71.4128 31.0087 70.8979C31.0087 70.3829 31.3108 69.9678 31.7076 69.9678Z" fill="var(--sapContent_Illustrative_Color14)"/>
<path d="M31.7076 83.9268H36.6995C37.0858 83.9268 37.3958 84.3445 37.3958 84.8595C37.3958 85.385 37.0858 85.7895 36.6995 85.7895H31.7076C31.3213 85.7895 31.0087 85.3718 31.0087 84.8595C31.0087 84.3445 31.3108 83.9268 31.7076 83.9268Z" fill="var(--sapContent_Illustrative_Color14)"/>
<path d="M31.6839 90.9365H36.6759C37.0595 90.9365 37.3721 91.3543 37.3721 91.8666C37.3721 92.3921 37.0595 92.7993 36.6759 92.7993H31.6839C31.3003 92.7993 30.9877 92.3815 30.9877 91.8666C30.9877 91.3543 31.3108 90.9365 31.6839 90.9365Z" fill="var(--sapContent_Illustrative_Color14)"/>
<path d="M56.2286 35.2183H67.9572C68.3408 35.2183 68.6534 35.636 68.6534 36.151C68.6534 36.6765 68.3408 37.0811 67.9572 37.0811H56.2286C55.8424 37.0811 55.5298 36.6633 55.5298 36.151C55.5298 35.636 55.8424 35.2183 56.2286 35.2183Z" fill="var(--sapContent_Illustrative_Color14)"/>
<path d="M56.2286 42.0439H65.7502C66.1338 42.0439 66.4464 42.4617 66.4464 42.974C66.4464 43.4995 66.1338 43.9067 65.7502 43.9067H56.2286C55.8424 43.9067 55.5298 43.489 55.5298 42.974C55.5298 42.4617 55.8424 42.0439 56.2286 42.0439Z" fill="var(--sapContent_Illustrative_Color14)"/>
<path d="M56.2286 49.1829H67.2635C67.6498 49.1829 67.9624 49.6006 67.9624 50.1129C67.9624 50.6384 67.6498 51.0457 67.2635 51.0457H56.2286C55.8424 51.0457 55.5298 50.6279 55.5298 50.1129C55.5298 49.598 55.8424 49.1829 56.2286 49.1829Z" fill="var(--sapContent_Illustrative_Color14)"/>
<path d="M56.2286 56.0137H61.2206C61.6068 56.0137 61.9169 56.4314 61.9169 56.9438C61.9169 57.4692 61.6068 57.8738 61.2206 57.8738H56.2286C55.8424 57.8738 55.5298 57.4587 55.5298 56.9438C55.5298 56.4235 55.8424 56.0137 56.2286 56.0137Z" fill="var(--sapContent_Illustrative_Color14)"/>
<path d="M56.2286 62.9863H61.2206C61.6068 62.9863 61.9169 63.4015 61.9169 63.9164C61.9169 64.4419 61.6068 64.8465 61.2206 64.8465H56.2286C55.8424 64.8465 55.5298 64.4314 55.5298 63.9164C55.5298 63.4015 55.8424 62.9863 56.2286 62.9863Z" fill="var(--sapContent_Illustrative_Color14)"/>
<path d="M56.2286 76.9478H61.2206C61.6068 76.9478 61.9169 77.3629 61.9169 77.8778C61.9169 78.4033 61.6068 78.8079 61.2206 78.8079H56.2286C55.8424 78.8079 55.5298 78.3902 55.5298 77.8778C55.5298 77.3629 55.8424 76.9478 56.2286 76.9478Z" fill="var(--sapContent_Illustrative_Color14)"/>
<path d="M56.2286 69.9678H61.2206C61.6068 69.9678 61.9169 70.3829 61.9169 70.8979C61.9169 71.4233 61.6068 71.8279 61.2206 71.8279H56.2286C55.8424 71.8279 55.5298 71.4128 55.5298 70.8979C55.5298 70.3829 55.8424 69.9678 56.2286 69.9678Z" fill="var(--sapContent_Illustrative_Color14)"/>
<path d="M56.2286 83.9268H61.2206C61.6068 83.9268 61.9169 84.3445 61.9169 84.8595C61.9169 85.385 61.6068 85.7895 61.2206 85.7895H56.2286C55.8424 85.7895 55.5298 85.3718 55.5298 84.8595C55.5298 84.3445 55.8424 83.9268 56.2286 83.9268Z" fill="var(--sapContent_Illustrative_Color14)"/>
<path d="M56.205 90.9365H61.197C61.5806 90.9365 61.8933 91.3543 61.8933 91.8666C61.8933 92.3921 61.5806 92.7993 61.197 92.7993H56.205C55.8215 92.7993 55.5088 92.3815 55.5088 91.8666C55.5088 91.3543 55.8215 90.9365 56.205 90.9365Z" fill="var(--sapContent_Illustrative_Color14)"/>
<path d="M80.4712 35.2183H92.1998C92.5834 35.2183 92.896 35.636 92.896 36.151C92.896 36.6765 92.5834 37.0811 92.1998 37.0811H80.4712C80.085 37.0811 79.7723 36.6633 79.7723 36.151C79.7723 35.636 80.085 35.2183 80.4712 35.2183Z" fill="var(--sapContent_Illustrative_Color14)"/>
<path d="M80.4712 42.0439H89.9928C90.3764 42.0439 90.689 42.4617 90.689 42.974C90.689 43.4995 90.3764 43.9067 89.9928 43.9067H80.4712C80.085 43.9067 79.7723 43.489 79.7723 42.974C79.7723 42.4617 80.085 42.0439 80.4712 42.0439Z" fill="var(--sapContent_Illustrative_Color14)"/>
<path d="M80.4712 49.1829H91.5061C91.8924 49.1829 92.205 49.6006 92.205 50.1129C92.205 50.6384 91.8924 51.0457 91.5061 51.0457H80.4712C80.085 51.0457 79.7723 50.6279 79.7723 50.1129C79.7723 49.598 80.085 49.1829 80.4712 49.1829Z" fill="var(--sapContent_Illustrative_Color14)"/>
<path d="M80.4712 56.0137H85.4632C85.8468 56.0137 86.1595 56.4314 86.1595 56.9438C86.1595 57.4692 85.8468 57.8738 85.4632 57.8738H80.4712C80.085 57.8738 79.7723 57.4587 79.7723 56.9438C79.7723 56.4235 80.085 56.0137 80.4712 56.0137Z" fill="var(--sapContent_Illustrative_Color14)"/>
<path d="M80.4712 62.9863H85.4632C85.8468 62.9863 86.1595 63.4015 86.1595 63.9164C86.1595 64.4419 85.8468 64.8465 85.4632 64.8465H80.4712C80.085 64.8465 79.7723 64.4314 79.7723 63.9164C79.7723 63.4015 80.085 62.9863 80.4712 62.9863Z" fill="var(--sapContent_Illustrative_Color14)"/>
<path d="M80.4712 76.9478H85.4632C85.8468 76.9478 86.1595 77.3629 86.1595 77.8778C86.1595 78.4033 85.8468 78.8079 85.4632 78.8079H80.4712C80.085 78.8079 79.7723 78.3902 79.7723 77.8778C79.7723 77.3629 80.085 76.9478 80.4712 76.9478Z" fill="var(--sapContent_Illustrative_Color14)"/>
<path d="M80.4712 69.9678H85.4632C85.8468 69.9678 86.1595 70.3829 86.1595 70.8979C86.1595 71.4233 85.8468 71.8279 85.4632 71.8279H80.4712C80.085 71.8279 79.7723 71.4128 79.7723 70.8979C79.7723 70.3829 80.085 69.9678 80.4712 69.9678Z" fill="var(--sapContent_Illustrative_Color14)"/>
<path d="M80.4712 83.9268H85.4632C85.8468 83.9268 86.1595 84.3445 86.1595 84.8595C86.1595 85.385 85.8468 85.7895 85.4632 85.7895H80.4712C80.085 85.7895 79.7723 85.3718 79.7723 84.8595C79.7723 84.3445 80.085 83.9268 80.4712 83.9268Z" fill="var(--sapContent_Illustrative_Color14)"/>
<path d="M80.4424 90.9365H85.4343C85.8206 90.9365 86.1332 91.3543 86.1332 91.8666C86.1332 92.3921 85.8206 92.7993 85.4343 92.7993H80.4424C80.0561 92.7993 79.7461 92.3815 79.7461 91.8666C79.7513 91.3543 80.0614 90.9365 80.4424 90.9365Z" fill="var(--sapContent_Illustrative_Color14)"/>
<path d="M45.9846 26.9973H32.6376C31.738 26.9973 31.0087 27.7266 31.0087 28.6263C31.0087 29.5259 31.738 30.2552 32.6376 30.2552H45.9846C46.8843 30.2552 47.6136 29.5259 47.6136 28.6263C47.6136 27.7266 46.8843 26.9973 45.9846 26.9973Z" fill="var(--sapContent_Illustrative_Color14)"/>
<path d="M136 20.8858C136 19.7539 132.879 18.8479 128.708 18.6421C128.47 14.2576 127.552 10.9975 126.476 11C125.401 11.0025 124.507 14.2877 124.278 18.6948C120.095 18.996 116.986 19.9798 117 21.1142C117.014 22.2486 120.121 23.1546 124.292 23.3579C124.542 27.7424 125.448 31.0025 126.521 31C127.595 30.9975 128.493 27.7123 128.722 23.3052C132.905 23.004 136.012 22.0202 136 20.8858Z" fill="var(--sapContent_Illustrative_Color3)"/>
<path d="M149 34.4258C149 33.6901 146.864 33.1011 144.011 32.9674C143.848 30.1175 143.22 27.9984 142.484 28C141.748 28.0016 141.136 30.137 140.979 33.0016C138.118 33.1974 135.99 33.8369 136 34.5742C136.01 35.3116 138.136 35.9005 140.989 36.0326C141.161 38.8825 141.781 41.0016 142.515 41C143.249 40.9984 143.864 38.863 144.021 35.9984C146.882 35.8026 149.008 35.1631 149 34.4258Z" fill="var(--sapContent_Illustrative_Color3)"/>
</svg>
