<svg width="320" height="214" viewBox="0 0 320 214" fill="none" xmlns="http://www.w3.org/2000/svg" id="sapIllus-Scene-SimpleReload">
<path d="M130.464 114.637H33.9315C18.1788 114.637 5.40869 127.408 5.40869 143.16C5.40869 158.913 18.1788 171.683 33.9315 171.683H130.464C146.217 171.683 158.987 158.913 158.987 143.16C158.987 127.408 146.217 114.637 130.464 114.637Z" fill="var(--sapContent_Illustrative_Color7)"/>
<path d="M165.608 142.947H69.0756C53.3228 142.947 40.5527 155.717 40.5527 171.47C40.5527 187.223 53.3228 199.993 69.0756 199.993H165.608C181.361 199.993 194.131 187.223 194.131 171.47C194.131 155.717 181.361 142.947 165.608 142.947Z" fill="var(--sapContent_Illustrative_Color7)"/>
<path d="M291.21 64.0664H194.677C178.924 64.0664 166.154 76.8365 166.154 92.5892C166.154 108.342 178.924 121.112 194.677 121.112H291.21C306.963 121.112 319.733 108.342 319.733 92.5892C319.733 76.8365 306.963 64.0664 291.21 64.0664Z" fill="var(--sapContent_Illustrative_Color7)"/>
<path d="M219.27 11.99H37.7951C16.9214 11.99 0 28.9114 0 49.7851V49.7984C0 70.6721 16.9214 87.5935 37.7951 87.5935H219.27C240.144 87.5935 257.065 70.6721 257.065 49.7984V49.7851C257.065 28.9114 240.144 11.99 219.27 11.99Z" fill="var(--sapContent_Illustrative_Color7)"/>
<path d="M154.904 29.1885L129.637 181.484C128.674 187.291 132.6 192.779 138.407 193.743L245.23 211.466C251.037 212.429 256.525 208.503 257.488 202.696L282.755 50.3999C283.719 44.5932 279.792 39.1049 273.986 38.1415L167.163 20.4188C161.356 19.4554 155.868 23.3817 154.904 29.1885Z" fill="var(--sapContent_Illustrative_Color3)"/>
<path d="M243.032 27.7525H139.212C133.326 27.7525 128.555 32.5242 128.555 38.4103V186.74C128.555 192.626 133.326 197.398 139.212 197.398H243.032C248.919 197.398 253.69 192.626 253.69 186.74V38.4103C253.69 32.5242 248.919 27.7525 243.032 27.7525Z" fill="var(--sapContent_Illustrative_Color8)"/>
<path fill-rule="evenodd" clip-rule="evenodd" d="M139.212 29.0859C134.063 29.0859 129.888 33.2606 129.888 38.4103V186.74C129.888 191.889 134.063 196.064 139.212 196.064H243.032C248.182 196.064 252.357 191.889 252.357 186.74V38.4103C252.357 33.2606 248.182 29.0859 243.032 29.0859H139.212ZM127.221 38.4103C127.221 31.7878 132.59 26.4192 139.212 26.4192H243.032C249.655 26.4192 255.023 31.7878 255.023 38.4103V186.74C255.023 193.362 249.655 198.731 243.032 198.731H139.212C132.59 198.731 127.221 193.362 127.221 186.74V38.4103Z" fill="var(--sapContent_Illustrative_Color4)"/>
<path d="M319.408 37.0515C319.155 36.7482 318.824 36.5188 318.452 36.3875C318.079 36.2562 317.677 36.2279 317.29 36.3054L308.044 37.9041C307.728 37.9612 307.426 38.0814 307.157 38.2576C306.888 38.4338 306.657 38.6623 306.478 38.9295C306.299 39.1967 306.175 39.4972 306.115 39.8132C306.055 40.1291 306.058 40.4539 306.126 40.7684C306.188 41.2631 306.41 41.7239 306.759 42.0801C307.108 42.4363 307.564 42.6681 308.058 42.7401C308.296 42.7726 308.538 42.7726 308.777 42.7401L318.023 41.1281C318.43 41.0683 318.814 40.8993 319.133 40.6389C319.452 40.3785 319.694 40.0365 319.835 39.6493C319.995 39.2165 320.039 38.7494 319.965 38.294C319.89 37.8386 319.698 37.4105 319.408 37.0515Z" fill="var(--sapContent_Illustrative_Color5)"/>
<path d="M284.265 0.122379C283.996 0.0244253 283.709 -0.0154524 283.424 0.00537082C283.139 0.026194 282.861 0.107267 282.609 0.243209C282.358 0.379151 282.137 0.566883 281.963 0.794059C281.79 1.02124 281.666 1.2827 281.6 1.5612L279.056 10.3405C278.963 10.6563 278.934 10.9875 278.971 11.3145C279.009 11.6415 279.111 11.9578 279.272 12.2447C279.434 12.5315 279.651 12.7831 279.911 12.9846C280.172 13.1861 280.47 13.3335 280.788 13.418C280.918 13.4574 281.052 13.4841 281.187 13.4979C281.682 13.5641 282.184 13.444 282.595 13.1608C283.006 12.8777 283.297 12.4518 283.412 11.9658L285.957 3.18651C286.048 2.87424 286.077 2.5469 286.041 2.22345C286.006 1.89999 285.906 1.5868 285.749 1.30194C285.592 1.01707 285.38 0.766153 285.125 0.563702C284.87 0.361251 284.578 0.211263 284.265 0.122379V0.122379Z" fill="var(--sapContent_Illustrative_Color5)"/>
<path d="M306.978 12.0058C306.673 11.987 306.366 12.0304 306.078 12.1335C305.789 12.2365 305.525 12.397 305.3 12.6053L295.068 21.9308C294.608 22.3473 294.328 22.9268 294.289 23.5462C294.249 24.1656 294.452 24.7762 294.855 25.2481C295.231 25.6833 295.751 25.9674 296.321 26.0474C296.652 26.0806 296.986 26.0444 297.303 25.9412C297.62 25.838 297.911 25.67 298.159 25.4479L308.391 16.1224C308.847 15.7 309.122 15.1178 309.16 14.4972C309.197 13.8766 308.993 13.2657 308.59 12.7918C308.388 12.5597 308.141 12.3706 307.864 12.2356C307.587 12.1006 307.286 12.0224 306.978 12.0058V12.0058Z" fill="var(--sapContent_Illustrative_Color5)"/>
<path d="M191.662 142.364C208.187 142.364 221.584 128.967 221.584 112.442C221.584 95.9166 208.187 82.5203 191.662 82.5203C175.137 82.5203 161.74 95.9166 161.74 112.442C161.74 128.967 175.137 142.364 191.662 142.364Z" fill="var(--sapContent_Illustrative_Color14)"/>
<path d="M194.233 108.299C194.219 108.582 194.265 108.865 194.368 109.13C194.47 109.394 194.627 109.635 194.827 109.835C195.028 110.036 195.268 110.193 195.533 110.295C195.797 110.397 196.081 110.443 196.364 110.43H206.089C206.373 110.443 206.657 110.397 206.922 110.295C207.188 110.193 207.429 110.036 207.63 109.836C207.832 109.636 207.99 109.395 208.094 109.131C208.198 108.866 208.246 108.583 208.234 108.299V98.4002C208.246 98.1161 208.198 97.8327 208.094 97.5681C207.99 97.3034 207.832 97.0633 207.63 96.8629C207.429 96.6624 207.188 96.5061 206.922 96.4038C206.657 96.3015 206.373 96.2555 206.089 96.2687C205.806 96.2554 205.523 96.3014 205.258 96.4038C204.994 96.5062 204.753 96.6628 204.553 96.8634C204.352 97.0641 204.195 97.3044 204.093 97.569C203.991 97.8337 203.944 98.1168 203.958 98.4002V101.971C202.358 100.182 200.399 98.7497 198.21 97.7673C196.02 96.7849 193.648 96.2744 191.248 96.2687C186.748 96.2722 182.433 98.0615 179.251 101.244C176.069 104.426 174.279 108.741 174.276 113.241C174.279 117.743 176.068 122.059 179.25 125.243C182.432 128.428 186.747 130.22 191.248 130.227C195.108 130.209 198.849 128.891 201.868 126.486C204.887 124.081 207.007 120.729 207.888 116.971C207.945 116.68 207.944 116.381 207.884 116.091C207.825 115.8 207.708 115.525 207.541 115.279C207.389 115.053 207.193 114.859 206.964 114.71C206.735 114.562 206.478 114.461 206.209 114.414C205.918 114.356 205.619 114.357 205.328 114.417C205.038 114.476 204.762 114.593 204.517 114.76C204.292 114.913 204.099 115.11 203.95 115.339C203.801 115.568 203.7 115.824 203.651 116.092C203.025 118.903 201.453 121.413 199.198 123.203C196.943 124.992 194.141 125.953 191.262 125.924C187.896 125.92 184.668 124.582 182.288 122.201C179.908 119.821 178.569 116.594 178.566 113.228C178.569 109.862 179.908 106.634 182.288 104.254C184.668 101.874 187.896 100.535 191.262 100.532C193.339 100.527 195.384 101.037 197.216 102.016C199.048 102.994 200.609 104.411 201.76 106.14H196.218C195.943 106.143 195.672 106.202 195.421 106.314C195.17 106.426 194.944 106.588 194.758 106.79C194.572 106.992 194.43 107.23 194.339 107.49C194.249 107.749 194.212 108.025 194.233 108.299Z" fill="var(--sapContent_Illustrative_Color8)"/>
</svg>
