<svg width="128" height="137" viewBox="0 0 128 137" fill="none" xmlns="http://www.w3.org/2000/svg" id="sapIllus-Spot-Tent">
<path d="M112.69 31.4022C106.69 24.3716 99.2251 18.7253 90.8152 14.8577C82.4054 10.9902 73.2547 8.9895 63.9947 9.00007C51.8032 8.98245 39.8658 12.452 29.5933 18.9965H35.3328C36.5322 18.9965 37.6822 19.472 38.5323 20.3139C39.3789 21.1592 39.8552 22.304 39.8552 23.5016C39.8552 24.6992 39.3789 25.8439 38.5323 26.6928C37.6822 27.5382 36.5322 28.0102 35.3328 28.0102H32.5107C32.5847 28.3342 32.62 28.6653 32.6235 28.9964C32.6235 29.5988 32.5036 30.1976 32.2708 30.7541C32.0309 31.3142 31.6781 31.8179 31.2372 32.237C30.7998 32.6597 30.2777 32.9873 29.7097 33.2021C29.1418 33.417 28.5315 33.5156 27.9248 33.4874H13.585C6.96713 41.8953 2.58935 51.8389 0.85376 62.3848C19.1939 50.4863 34.2463 32.2617 66.9579 28.0912C82.1302 26.161 97.6165 27.6967 112.69 31.4022Z" fill="var(--sapContent_Illustrative_Color7)"/>
<path d="M56.5655 93.8464H56.1739C52.3006 99.049 47.9546 103.882 43.1923 108.292H52.5087L56.5655 93.8464Z" fill="var(--sapContent_Illustrative_Color7)"/>
<path d="M56.5655 93.8464H56.1739C52.3006 99.049 47.9546 103.882 43.1923 108.292H52.5087L56.5655 93.8464Z" fill="var(--sapContent_Illustrative_Color20)"/>
<path d="M54.1631 93.9239C39.2448 94.4488 23.2682 95.8788 5.10095 97.7915C6.67427 101.472 8.58977 104.995 10.8263 108.313H40.8781C45.7498 103.941 50.1946 99.1229 54.1631 93.9204V93.9239Z" fill="var(--sapContent_Illustrative_Color7)"/>
<path d="M54.1631 93.9239C39.2448 94.4488 23.2682 95.8788 5.10095 97.7915C6.67427 101.472 8.58977 104.995 10.8263 108.313H40.8781C45.7498 103.941 50.1946 99.1229 54.1631 93.9204V93.9239Z" fill="var(--sapContent_Illustrative_Color20)"/>
<path d="M92.8683 123.896C92.5367 123.646 92.2827 123.307 92.1416 122.916C92.1734 123.057 92.1804 123.202 92.1628 123.346C92.1311 123.533 92.0535 123.709 91.9406 123.864C91.8242 124.015 91.6689 124.135 91.4961 124.216C91.3232 124.294 91.1292 124.329 90.9387 124.315L75.8511 124.389L75.8087 124.413C75.6253 124.494 75.4278 124.53 75.2302 124.523L62.8483 124.466C62.7636 124.473 62.6825 124.473 62.5978 124.466L49.5456 124.526C49.3551 124.544 49.1646 124.512 48.9917 124.435C48.8189 124.354 48.6637 124.234 48.5473 124.082C48.4344 123.927 48.3603 123.751 48.3321 123.561C48.3039 123.374 48.3215 123.184 48.3885 123.004L52.5123 108.313H43.1959C37.3188 113.758 30.8421 118.524 23.8927 122.518C28.9231 126.566 34.5426 129.824 40.5572 132.191C48.0216 135.118 55.9764 136.618 63.9983 136.608C71.9072 136.618 79.7526 135.16 87.1254 132.311C92.3639 130.285 97.3061 127.576 101.832 124.258L94.1136 124.343C93.6585 124.329 93.2211 124.17 92.8613 123.896H92.8683Z" fill="var(--sapContent_Illustrative_Color7)"/>
<path d="M10.8263 108.302C13.3274 112.015 16.2095 115.453 19.4266 118.57C19.476 118.461 19.5395 118.358 19.6171 118.263C19.7406 118.115 19.8958 117.996 20.0722 117.911C20.2451 117.827 20.432 117.774 20.626 117.763C20.8201 117.774 21.007 117.827 21.1799 117.915C21.3527 117.999 21.5009 118.119 21.6244 118.267C21.7478 118.415 21.8431 118.587 21.896 118.774C21.9454 118.961 21.956 119.154 21.9348 119.345L21.8431 120.792C22.0935 121.011 22.344 121.229 22.598 121.444C29.1488 117.731 35.2798 113.329 40.8781 108.306H10.8263V108.302Z" fill="var(--sapContent_Illustrative_Color7)"/>
<path d="M56.8019 93.0011C56.5937 93.2899 56.3856 93.5752 56.174 93.857H56.5655L56.8019 93.0011Z" fill="var(--sapContent_Illustrative_Color19)"/>
<path d="M58.0894 88.415L70.0199 45.8896L70.041 45.8227L69.9881 45.6501C69.9564 45.5515 69.9493 45.4458 69.967 45.3437C69.974 45.2415 70.0022 45.1394 70.0516 45.0478C70.1045 44.9562 70.1716 44.8787 70.2527 44.8118C70.3338 44.7484 70.4291 44.6991 70.5278 44.6674C70.6301 44.6392 70.736 44.6286 70.8383 44.6427C70.9371 44.6533 71.0323 44.6815 71.1205 44.7308C71.2193 44.6216 71.3392 44.53 71.4733 44.4666C71.6461 44.3891 71.8366 44.3574 72.0271 44.375L121.583 44.9668C119.206 40.0848 116.214 35.5269 112.679 31.4022C97.6094 27.7002 82.1232 26.1609 66.9508 28.0947C34.2427 32.2687 19.1974 50.4933 0.850206 62.3883C0.285786 65.8296 4.82042e-05 69.3062 4.82042e-05 72.7933C-0.0105347 81.3808 1.72153 89.8803 5.09394 97.7809C23.2577 95.8788 39.2378 94.4487 54.1561 93.9134C55.5284 92.131 56.8407 90.2994 58.093 88.4185L58.0894 88.415Z" fill="var(--sapContent_Illustrative_Color18)"/>
<path d="M82.289 79.5704C79.7561 73.7092 77.4103 67.7775 75.2584 61.779L92.1099 122.79C92.124 122.832 92.1381 122.874 92.1452 122.92C92.2863 123.311 92.5403 123.649 92.8718 123.899C93.2317 124.17 93.6656 124.322 94.1171 124.336L101.836 124.251C103.247 123.219 104.619 122.141 105.938 120.99C99.0664 113.801 92.5332 104.234 83.1603 81.6521L82.2925 79.5739L82.289 79.5704Z" fill="var(--sapContent_Illustrative_Color3)"/>
<path d="M121.604 44.9668L72.0447 44.375C71.8542 44.3574 71.6637 44.3891 71.4908 44.4666C71.3568 44.53 71.2368 44.6216 71.1381 44.7308C71.2298 44.7801 71.3144 44.847 71.3779 44.928C71.4414 45.0091 71.4873 45.1042 71.519 45.2028C74.9056 56.6962 78.9941 67.9713 83.7634 78.9645L84.6277 81.0533C93.9159 103.438 100.371 112.874 107.13 119.936C113.709 113.966 118.966 106.689 122.56 98.5734C126.155 90.4579 128.007 81.6838 128 72.811C128.017 63.1668 125.83 53.6459 121.608 44.9668H121.604Z" fill="var(--sapContent_Illustrative_Color3)"/>
<path d="M81.7317 32.1934L76.6585 33.5954L82.2195 33.7888L81.7317 32.1934Z" fill="var(--sapContent_Illustrative_Color3)"/>
<path d="M79.8292 34.5139L76.6584 33.5954L80.2682 33.6921L79.8292 34.5139Z" fill="var(--sapContent_Illustrative_Color15)"/>
<path d="M84.5922 45.7234H92.0626C93.8077 45.7234 94.6836 43.6338 93.455 42.4083L88.1361 37.1173L83.7243 32.7292C82.1622 31.1751 79.4842 32.2692 79.4842 34.4652V40.6578C79.484 42.0008 80.022 43.2889 80.9799 44.2388C81.9378 45.1887 83.2371 45.7228 84.5922 45.7234Z" fill="var(--sapContent_Illustrative_Color2)"/>
<path opacity="0.5" d="M82.7848 34.2131C82.4448 33.8761 82.4447 33.33 82.7846 32.9931C83.1244 32.6563 83.6755 32.6564 84.0155 32.9934L97.3112 46.1702C97.6512 46.5072 97.6513 47.0534 97.3114 47.3902C96.9716 47.727 96.4205 47.7269 96.0805 47.3899L82.7848 34.2131Z" fill="var(--sapContent_Illustrative_Color8)"/>
<path d="M84.5952 35.0758L82.6688 36.985C82.1465 37.5026 81.8531 38.2046 81.8531 38.9365C81.8531 39.6685 82.1465 40.3705 82.6688 40.888L84.426 42.6295C85.4592 43.6538 86.8607 44.2294 88.3221 44.2297C89.7835 44.2301 91.1852 43.6552 92.219 42.6314L84.5952 35.0758Z" fill="var(--sapContent_Illustrative_Color4)"/>
<path d="M93.4516 42.4083L88.1327 37.1173L83.7209 32.7292C82.8835 31.8959 83.6705 33.7529 82.7761 34.2044C82.6165 34.042 82.5279 33.8239 82.5294 33.5972C82.5308 33.3706 82.6223 33.1536 82.784 32.9933C82.9473 32.8317 83.1686 32.7409 83.3993 32.7409C83.63 32.7409 83.8514 32.8317 84.0146 32.9933L97.3111 46.1709C97.4742 46.3327 97.5658 46.552 97.5658 46.7807C97.5658 47.0094 97.4742 47.2287 97.3111 47.3905C97.2303 47.4707 97.1343 47.5342 97.0286 47.5776C96.923 47.6209 96.8098 47.6433 96.6955 47.6433C96.5811 47.6433 96.4679 47.6209 96.3623 47.5776C96.2567 47.5342 96.1607 47.4707 96.0798 47.3905L93.6266 44.9592C94.169 44.2364 94.2074 43.1601 93.4516 42.4083Z" fill="var(--sapContent_Illustrative_Color4)"/>
<path d="M83.7209 32.7292L88.1327 37.1173L93.4516 42.4083C94.2074 43.1601 94.169 44.2364 93.6246 44.9566L80.838 32.285C80.8355 32.2819 80.8329 32.2791 80.83 32.2764C81.7231 31.825 82.8834 31.8959 83.7209 32.7292Z" fill="var(--sapContent_Illustrative_Color4)"/>
<path d="M81.3889 34.1008C81.3304 34.199 81.0859 34.161 80.8428 34.0161C80.5996 33.8711 80.4499 33.674 80.5084 33.5759C80.567 33.4778 80.8115 33.5157 81.0546 33.6607C81.2978 33.8056 81.4474 34.0027 81.3889 34.1008Z" fill="var(--sapContent_Illustrative_Color4)"/>
<path d="M75.6797 34.3629C75.9069 34.2951 76.1171 34.5099 76.0445 34.7356L75.3256 36.9698C74.9727 38.0666 73.5803 38.3951 72.7743 37.5717C71.9683 36.7483 72.3266 35.3632 73.4307 35.0339L75.6797 34.3629Z" fill="var(--sapContent_Illustrative_Color8)"/>
<path d="M83.7565 78.961C78.9907 67.9642 74.9021 56.6892 71.5121 45.1993C71.4803 45.1006 71.4345 45.0091 71.371 44.9245C71.3075 44.8435 71.2228 44.7766 71.1311 44.7273C71.0429 44.678 70.9477 44.6498 70.8489 44.6392C70.7466 44.6251 70.6408 44.6357 70.5385 44.6639C70.4397 44.6956 70.3444 44.7449 70.2633 44.8083C70.1822 44.8752 70.1152 44.9527 70.0622 45.0443C70.0128 45.1359 69.9846 45.238 69.9776 45.3402C69.9599 45.4423 69.967 45.548 69.9987 45.6466L70.0517 45.8192L70.0305 45.8861L58.1001 88.4115C56.8478 90.2889 55.5355 92.124 54.1703 93.9204C50.2052 99.1194 45.7569 103.934 40.8853 108.302C35.2834 113.325 29.1559 117.731 22.6051 121.441C23.0319 121.8 23.4658 122.152 23.8997 122.497C30.8492 118.503 37.3259 113.737 43.2029 108.292C47.9652 103.885 52.3077 99.049 56.1846 93.8464C56.3962 93.5611 56.6043 93.2758 56.8125 92.9905L56.5761 93.8359L52.5194 108.295L48.3956 122.99C48.3285 123.166 48.3109 123.36 48.3391 123.547C48.3673 123.737 48.4414 123.913 48.5543 124.068C48.6707 124.22 48.8259 124.339 48.9988 124.42C49.1716 124.498 49.3621 124.53 49.5526 124.512L62.6048 124.452C62.492 124.435 62.3826 124.403 62.2768 124.357C62.0969 124.28 61.9381 124.156 61.8146 124.005C61.6912 123.85 61.6065 123.667 61.5642 123.473C61.5219 123.279 61.5324 123.078 61.5854 122.888L68.8593 87.1962C69.0322 86.3438 69.3109 86.3438 69.4872 87.1962L76.5178 122.955C76.5636 123.149 76.5636 123.35 76.5178 123.543C76.479 123.737 76.3908 123.92 76.2638 124.075C76.1474 124.213 76.0028 124.325 75.8405 124.406L90.9281 124.332C91.1186 124.346 91.3126 124.311 91.4855 124.234C91.6619 124.156 91.8136 124.033 91.93 123.882C92.0429 123.727 92.1205 123.55 92.1522 123.364C92.1699 123.219 92.1628 123.075 92.1311 122.934C92.1205 122.892 92.1099 122.846 92.0958 122.804L75.2443 61.7931C77.3962 67.7951 79.7385 73.7268 82.2749 79.5844L83.1427 81.6626C92.505 104.244 99.0523 113.811 105.921 121C106.319 120.655 106.714 120.303 107.106 119.944C100.347 112.881 93.8949 103.445 84.6066 81.0603L83.7565 78.968V78.961Z" fill="var(--sapContent_Illustrative_Color8)"/>
<path d="M75.2337 124.523C75.4312 124.53 75.6288 124.494 75.8122 124.413L75.8545 124.389C76.0168 124.308 76.1614 124.195 76.2778 124.058C76.4048 123.903 76.493 123.723 76.5318 123.526C76.5777 123.332 76.5777 123.131 76.5318 122.938L69.4977 87.1892C69.3214 86.3368 69.0427 86.3368 68.8698 87.1892L61.5959 122.881C61.543 123.071 61.5324 123.272 61.5747 123.466C61.617 123.66 61.7017 123.843 61.8252 123.998C61.9486 124.149 62.1074 124.269 62.2873 124.35C62.3931 124.396 62.5025 124.427 62.6154 124.445C62.7 124.452 62.7812 124.452 62.8658 124.445L75.2337 124.523Z" fill="var(--sapContent_Illustrative_Color4)"/>
<path d="M21.8924 118.771C21.8395 118.584 21.7443 118.411 21.6208 118.263C21.4973 118.115 21.3492 117.996 21.1763 117.911C21.0035 117.823 20.8165 117.77 20.6225 117.76C20.4285 117.77 20.2415 117.823 20.0686 117.908C19.8923 117.992 19.7371 118.112 19.6136 118.26C19.536 118.351 19.4725 118.457 19.4231 118.566C20.2098 119.327 21.0141 120.067 21.8395 120.789L21.9312 119.341C21.9524 119.151 21.9418 118.957 21.8924 118.771Z" fill="var(--sapContent_Illustrative_Color4)"/>
<path d="M29.7132 33.2021C30.2812 32.9873 30.8033 32.6597 31.2407 32.237C31.6817 31.8178 32.0344 31.3142 32.2743 30.7541C32.5071 30.1976 32.6271 29.5988 32.627 28.9964C32.6271 28.6653 32.5883 28.3342 32.5142 28.0102H35.3363C36.5357 28.0102 37.6857 27.5347 38.5358 26.6928C39.3825 25.8475 39.8587 24.6992 39.8587 23.5016C39.8587 22.3075 39.3825 21.1627 38.5358 20.3138C37.6857 19.4685 36.5357 18.9965 35.3363 18.9965H29.5968C26.997 20.6485 24.5241 22.4871 22.1888 24.4949C19.0316 27.2106 16.1495 30.2257 13.5779 33.498H27.9212C28.5315 33.5227 29.1418 33.424 29.7132 33.2021Z" fill="var(--sapContent_Illustrative_Color18)"/>
<path d="M66.1042 14.8895C66.3864 15.5904 66.0654 16.397 65.3846 16.6894C64.7038 16.9817 63.9277 16.6471 63.6455 15.9426C63.3633 15.2417 63.6843 14.4351 64.3651 14.1427C65.0459 13.8504 65.8291 14.185 66.1042 14.8895Z" fill="var(--sapContent_Illustrative_Color10)"/>
<path d="M83.0615 20.8774C82.9592 22.5611 82.5853 23.8151 82.1585 23.8151C81.721 23.8151 81.3577 22.5506 81.266 20.8563C79.5727 20.7401 78.3098 20.3632 78.3134 19.9264C78.3204 19.4896 79.5762 19.1444 81.266 19.0634C81.3683 17.3762 81.7351 16.1258 82.169 16.1258C82.6029 16.1258 82.9698 17.3903 83.0615 19.0846C84.7548 19.2008 86.0177 19.5812 86.0142 20.018C86.0106 20.4548 84.7513 20.8 83.0615 20.881V20.8774Z" fill="var(--sapContent_Illustrative_Color10)"/>
<path d="M48.6672 20.5569C48.8612 21.043 48.639 21.5995 48.1698 21.8003C47.7006 22.0011 47.1609 21.7721 46.9669 21.286C46.7728 20.7999 46.9951 20.2434 47.4643 20.0426C47.9334 19.8419 48.4767 20.0708 48.6672 20.5569Z" fill="var(--sapContent_Illustrative_Color10)"/>
</svg>
