<svg width="80" height="129" viewBox="0 0 80 129" fill="none" xmlns="http://www.w3.org/2000/svg" id="sapIllus-Spot-SimpleNotFoundMagnifier">
<circle cx="38.502" cy="37.5" r="35.5" fill="var(--sapContent_Illustrative_Color8)"/>
<path d="M38.792 20.3601C35.3308 20.3601 31.9474 21.3865 29.0695 23.3094C26.1917 25.2323 23.9486 27.9654 22.6241 31.1631C21.2996 34.3609 20.953 37.8795 21.6283 41.2742C22.3035 44.6688 23.9702 47.787 26.4176 50.2344C28.865 52.6819 31.9832 54.3486 35.3779 55.0238C38.7726 55.699 42.2913 55.3525 45.489 54.028C48.6867 52.7034 51.4198 50.4604 53.3427 47.5826C55.2657 44.7047 56.292 41.3213 56.292 37.8601C56.2762 33.2237 54.4274 28.7816 51.1489 25.5032C47.8704 22.2247 43.4284 20.3759 38.792 20.3601V20.3601ZM38.792 48.3601C38.2714 48.3601 37.7625 48.2056 37.3298 47.9161C36.8971 47.6267 36.56 47.2154 36.3612 46.7343C36.1625 46.2531 36.111 45.7238 36.2133 45.2133C36.3156 44.7029 36.5671 44.2343 36.9359 43.8669C37.3047 43.4995 37.7742 43.2498 38.2851 43.1494C38.7959 43.0491 39.325 43.1026 39.8054 43.3032C40.2858 43.5038 40.6958 43.8424 40.9836 44.2762C41.2714 44.7101 41.424 45.2195 41.422 45.7401C41.4066 46.4319 41.1243 47.0909 40.6341 47.5792C40.1439 48.0676 39.4838 48.3474 38.792 48.3601ZM42.292 38.9101C42.022 39.0601 41.632 39.3101 41.292 39.4801C41.0948 39.5632 40.9071 39.6671 40.732 39.7901L40.552 39.9601C40.4817 40.3669 40.2648 40.734 39.9424 40.9919C39.62 41.2498 39.2144 41.3808 38.802 41.3601C38.5684 41.3748 38.3343 41.3395 38.1154 41.2567C37.8964 41.1739 37.6976 41.0456 37.5321 40.8801C37.3665 40.7145 37.2381 40.5157 37.1554 40.2968C37.0726 40.0778 37.0374 39.8437 37.052 39.6101C37.052 38.3901 37.662 37.8601 39.052 36.6801C39.052 36.6801 39.442 36.3901 39.702 36.2301L40.552 35.7601C41.782 35.0601 42.302 34.5401 42.302 33.3101C42.302 31.9101 40.732 30.6901 38.802 30.6901C36.872 30.6901 35.302 31.9101 35.302 33.3101C35.302 33.7742 35.1176 34.2194 34.7895 34.5475C34.4613 34.8757 34.0162 35.0601 33.552 35.0601C33.0879 35.0601 32.6427 34.8757 32.3145 34.5475C31.9863 34.2194 31.802 33.7742 31.802 33.3101C31.802 29.8101 34.952 27.1901 38.802 27.1901C42.652 27.1901 45.802 29.8101 45.802 33.3101C45.792 35.9401 44.572 37.5301 42.292 38.9101Z" fill="var(--sapContent_Illustrative_Color14)"/>
<path opacity="0.2" d="M52.7822 6.11005L39.3222 1.93005L16.7422 67.3101L30.2122 71.47L52.7822 6.11005Z" fill="var(--sapContent_Illustrative_Color6)"/>
<path opacity="0.2" d="M35.472 73.53L58.472 8.02997L54.292 6.72998L31.292 72.23L35.472 73.53Z" fill="var(--sapContent_Illustrative_Color6)"/>
<path d="M56.4819 69.6001L46.6318 73.5301L52.9219 88.7301L62.7819 84.8501L56.4819 69.6001Z" fill="var(--sapContent_Illustrative_Color6)"/>
<path d="M51.4023 88.25L66.8923 125.39C67.5177 126.833 68.6901 127.97 70.1523 128.55C71.6244 129.146 73.2703 129.146 74.7423 128.55L75.9023 128.09C77.3572 127.495 78.5205 126.353 79.1423 124.91C79.4391 124.202 79.5919 123.443 79.5919 122.675C79.5919 121.908 79.4391 121.148 79.1423 120.44L63.6423 83.29L51.4023 88.25Z" fill="var(--sapContent_Illustrative_Color3)"/>
<path d="M46.272 72.6801L47.272 75.08C47.272 75.08 52.432 77.31 57.822 72.64L56.172 68.8101L51.652 70.96L46.272 72.6801Z" fill="var(--sapContent_Illustrative_Color6)"/>
<path d="M38.7921 74.73C31.3382 74.7393 24.0422 72.5818 17.7921 68.52C11.6075 64.5127 6.76037 58.7498 3.87207 51.97C1.01205 45.2523 0.262254 37.8238 1.7221 30.67C3.20241 23.484 6.80426 16.9072 12.0621 11.79C17.3944 6.61764 24.1186 3.11133 31.4121 1.7C38.7423 0.279608 46.3268 1.00893 53.2521 3.80004C60.1305 6.55705 66.0436 11.2805 70.2521 17.38C75.1099 24.4379 77.3021 32.9923 76.4376 41.5167C75.5731 50.0411 71.7081 57.9811 65.5321 63.92C58.3673 70.8692 48.7733 74.7477 38.7921 74.73ZM38.7921 4.02001C31.9522 4.01296 25.2575 5.99322 19.5221 9.72002C13.8516 13.4057 9.40347 18.6926 6.74206 24.91C4.11143 31.0774 3.41405 37.8979 4.74206 44.47C6.09834 51.0639 9.40466 57.0981 14.2321 61.79C19.1306 66.5496 25.3146 69.772 32.0221 71.0601C38.7356 72.3533 45.6797 71.6832 52.0221 69.13C58.3249 66.5989 63.7409 62.2647 67.5921 56.67C72.0522 50.1908 74.0662 42.3381 73.275 34.5121C72.4838 26.686 68.9388 19.3954 63.2721 13.94C56.7074 7.58373 47.9298 4.02682 38.7921 4.02001Z" fill="var(--sapContent_Illustrative_Color4)"/>
</svg>
