<svg width="45" height="45" viewBox="0 0 45 45" fill="none" xmlns="http://www.w3.org/2000/svg" id="sapIllus-Dot-SimpleCheckMark">
<path d="M22.3908 3.29492C17.3115 3.30981 12.4444 5.33798 8.85278 8.93641C5.26112 12.5348 3.23679 17.4111 3.22192 22.5C3.23679 27.5886 5.26124 32.4645 8.85299 36.0623C12.4447 39.6602 17.3118 41.6876 22.3908 41.7015C27.4692 41.6867 32.3354 39.6589 35.9264 36.0611C39.5174 32.4633 41.5414 27.588 41.5562 22.5C41.5423 17.4114 39.5187 12.5352 35.9276 8.93663C32.3365 5.3381 27.4698 3.30982 22.3908 3.29492ZM31.3978 18.0833L19.8979 29.6049C19.7246 29.7865 19.5164 29.9311 19.2859 30.0299C19.0553 30.1286 18.8071 30.1796 18.5563 30.1796C18.3056 30.1796 18.0574 30.1286 17.8268 30.0299C17.5963 29.9311 17.3881 29.7865 17.2148 29.6049L13.3803 25.7632C13.1986 25.5898 13.0539 25.3813 12.955 25.1503C12.8561 24.9192 12.8051 24.6705 12.8051 24.4191C12.8051 24.1677 12.8561 23.9189 12.955 23.6879C13.0539 23.4569 13.1986 23.2483 13.3803 23.075C13.5533 22.8929 13.7614 22.748 13.992 22.6489C14.2227 22.5498 14.4709 22.4988 14.7218 22.4988C14.9728 22.4988 15.2211 22.5498 15.4517 22.6489C15.6823 22.748 15.8904 22.8929 16.0634 23.075L18.5563 25.5727L28.7147 15.3916C28.888 15.2099 29.0962 15.0654 29.3268 14.9666C29.5574 14.8678 29.8055 14.8169 30.0563 14.8169C30.3071 14.8169 30.5552 14.8678 30.7858 14.9666C31.0164 15.0654 31.2246 15.2099 31.3978 15.3916C31.5797 15.5652 31.7244 15.774 31.8233 16.0054C31.9222 16.2367 31.9733 16.4857 31.9733 16.7374C31.9733 16.9891 31.9222 17.2381 31.8233 17.4695C31.7244 17.7008 31.5797 17.9096 31.3978 18.0833Z" style="fill:var(--sapContent_Illustrative_Color12)"/>
<path d="M22.4576 45C16.5038 44.9925 10.7959 42.6196 6.58592 38.4016C2.37591 34.1837 0.00745397 28.4651 0 22.5C0.00652406 16.5346 2.37468 10.8155 6.58489 6.59731C10.7951 2.37916 16.5035 0.00653637 22.4576 0C28.4118 0.00653637 34.1202 2.37916 38.3304 6.59731C42.5406 10.8155 44.9087 16.5346 44.9153 22.5C44.9078 28.4651 42.5393 34.1837 38.3293 38.4016C34.1193 42.6196 28.4115 44.9925 22.4576 45ZM22.4576 1.20296C16.822 1.2095 11.419 3.45539 7.43392 7.44794C3.44888 11.4405 1.20723 16.8537 1.20071 22.5C1.20724 28.146 3.449 33.5588 7.43413 37.5508C11.4193 41.5428 16.8223 43.7879 22.4576 43.7935C28.093 43.7879 33.496 41.5428 37.4811 37.5508C41.4663 33.5588 43.7081 28.146 43.7146 22.5C43.7081 16.8537 41.4664 11.4405 37.4813 7.44794C33.4963 3.45539 28.0933 1.2095 22.4576 1.20296Z" style="fill:var(--sapContent_Illustrative_Color12)"/>
</svg>
