<svg width="45" height="45" viewBox="0 0 45 45" fill="none" xmlns="http://www.w3.org/2000/svg" id="sapIllus-Dot-ResizeColumn">
<path d="M33.8631 4.5H6.05137C4.36614 4.5 3 5.86614 3 7.55137V41.9486C3 43.6339 4.36614 45 6.05137 45H33.8631C35.5483 45 36.9145 43.6339 36.9145 41.9486V7.55137C36.9145 5.86614 35.5483 4.5 33.8631 4.5Z" style="fill:var(--sapContent_Illustrative_Color8)"/>
<path fill-rule="evenodd" clip-rule="evenodd" d="M33.8631 5.4H6.05137C4.8632 5.4 3.9 6.3632 3.9 7.55137V41.9486C3.9 43.1368 4.8632 44.1 6.05137 44.1H33.8631C35.0513 44.1 36.0145 43.1368 36.0145 41.9486V7.55137C36.0145 6.3632 35.0513 5.4 33.8631 5.4ZM6.05137 4.5H33.8631C35.5483 4.5 36.9145 5.86614 36.9145 7.55137V41.9486C36.9145 43.6339 35.5483 45 33.8631 45H6.05137C4.36614 45 3 43.6339 3 41.9486V7.55137C3 5.86614 4.36614 4.5 6.05137 4.5Z" style="fill:var(--sapContent_Illustrative_Color4)"/>
<path fill-rule="evenodd" clip-rule="evenodd" d="M6.12659 7.77778C6.12659 7.63908 6.15941 7.52686 6.19858 7.52686H29.2935C29.3337 7.52686 29.3655 7.63908 29.3655 7.77778V41.7208C29.3655 41.8595 29.3337 41.9707 29.2935 41.9707H6.19858C6.15941 41.9707 6.12659 41.8648 6.12659 41.7208V7.77778Z" style="fill:var(--sapContent_Illustrative_Color8)"/>
<path d="M29.3655 10.7783H6.12659V13.5915H29.3655V10.7783Z" style="fill:var(--sapContent_Illustrative_Color18)"/>
<path d="M15.7221 8.52734H8.09577C7.73323 8.52734 7.43933 8.82124 7.43933 9.18378C7.43933 9.54632 7.73323 9.84022 8.09577 9.84022H15.7221C16.0846 9.84022 16.3785 9.54632 16.3785 9.18378C16.3785 8.82124 16.0846 8.52734 15.7221 8.52734Z" style="fill:var(--sapContent_Illustrative_Color3)"/>
<path d="M14.1286 11.8413H7.81414C7.60714 11.8413 7.43933 12.0091 7.43933 12.2161C7.43933 12.4231 7.60714 12.5909 7.81414 12.5909H14.1286C14.3356 12.5909 14.5034 12.4231 14.5034 12.2161C14.5034 12.0091 14.3356 11.8413 14.1286 11.8413Z" style="fill:var(--sapContent_Illustrative_Color14)"/>
<path d="M12.9407 14.5908H7.81414C7.60714 14.5908 7.43933 14.7586 7.43933 14.9656C7.43933 15.1726 7.60714 15.3404 7.81414 15.3404H12.9407C13.1477 15.3404 13.3155 15.1726 13.3155 14.9656C13.3155 14.7586 13.1477 14.5908 12.9407 14.5908Z" style="fill:var(--sapContent_Illustrative_Color14)"/>
<path d="M13.7528 17.4668H7.81414C7.60714 17.4668 7.43933 17.6346 7.43933 17.8416C7.43933 18.0486 7.60714 18.2164 7.81414 18.2164H13.7528C13.9598 18.2164 14.1276 18.0486 14.1276 17.8416C14.1276 17.6346 13.9598 17.4668 13.7528 17.4668Z" style="fill:var(--sapContent_Illustrative_Color14)"/>
<path d="M10.5023 20.2178H7.81414C7.60714 20.2178 7.43933 20.3856 7.43933 20.5926C7.43933 20.7996 7.60714 20.9674 7.81414 20.9674H10.5023C10.7093 20.9674 10.8772 20.7996 10.8772 20.5926C10.8772 20.3856 10.7093 20.2178 10.5023 20.2178Z" style="fill:var(--sapContent_Illustrative_Color14)"/>
<path d="M10.5023 23.0303H7.81414C7.60714 23.0303 7.43933 23.1981 7.43933 23.4051C7.43933 23.6121 7.60714 23.7799 7.81414 23.7799H10.5023C10.7093 23.7799 10.8772 23.6121 10.8772 23.4051C10.8772 23.1981 10.7093 23.0303 10.5023 23.0303Z" style="fill:var(--sapContent_Illustrative_Color14)"/>
<path d="M10.5023 28.6572H7.81414C7.60714 28.6572 7.43933 28.825 7.43933 29.032C7.43933 29.239 7.60714 29.4068 7.81414 29.4068H10.5023C10.7093 29.4068 10.8772 29.239 10.8772 29.032C10.8772 28.825 10.7093 28.6572 10.5023 28.6572Z" style="fill:var(--sapContent_Illustrative_Color14)"/>
<path d="M10.5023 25.8438H7.81414C7.60714 25.8438 7.43933 26.0116 7.43933 26.2186C7.43933 26.4256 7.60714 26.5934 7.81414 26.5934H10.5023C10.7093 26.5934 10.8772 26.4256 10.8772 26.2186C10.8772 26.0116 10.7093 25.8438 10.5023 25.8438Z" style="fill:var(--sapContent_Illustrative_Color14)"/>
<path d="M10.5023 31.4702H7.81414C7.60714 31.4702 7.43933 31.638 7.43933 31.845C7.43933 32.052 7.60714 32.2198 7.81414 32.2198H10.5023C10.7093 32.2198 10.8772 32.052 10.8772 31.845C10.8772 31.638 10.7093 31.4702 10.5023 31.4702Z" style="fill:var(--sapContent_Illustrative_Color14)"/>
<path d="M27.2617 11.7695H20.9472C20.7402 11.7695 20.5724 11.9373 20.5724 12.1443C20.5724 12.3513 20.7402 12.5191 20.9472 12.5191H27.2617C27.4687 12.5191 27.6365 12.3513 27.6365 12.1443C27.6365 11.9373 27.4687 11.7695 27.2617 11.7695Z" style="fill:var(--sapContent_Illustrative_Color14)"/>
<path d="M26.0737 14.5205H20.9472C20.7402 14.5205 20.5724 14.6883 20.5724 14.8953C20.5724 15.1023 20.7402 15.2701 20.9472 15.2701H26.0737C26.2807 15.2701 26.4485 15.1023 26.4485 14.8953C26.4485 14.6883 26.2807 14.5205 26.0737 14.5205Z" style="fill:var(--sapContent_Illustrative_Color14)"/>
<path d="M26.8858 17.3955H20.9472C20.7402 17.3955 20.5724 17.5633 20.5724 17.7703C20.5724 17.9773 20.7402 18.1451 20.9472 18.1451H26.8858C27.0928 18.1451 27.2606 17.9773 27.2606 17.7703C27.2606 17.5633 27.0928 17.3955 26.8858 17.3955Z" style="fill:var(--sapContent_Illustrative_Color14)"/>
<path d="M23.6354 20.1465H20.9472C20.7402 20.1465 20.5724 20.3143 20.5724 20.5213C20.5724 20.7283 20.7402 20.8961 20.9472 20.8961H23.6354C23.8424 20.8961 24.0102 20.7283 24.0102 20.5213C24.0102 20.3143 23.8424 20.1465 23.6354 20.1465Z" style="fill:var(--sapContent_Illustrative_Color14)"/>
<path d="M23.6354 22.9595H20.9472C20.7402 22.9595 20.5724 23.1273 20.5724 23.3343C20.5724 23.5413 20.7402 23.7091 20.9472 23.7091H23.6354C23.8424 23.7091 24.0102 23.5413 24.0102 23.3343C24.0102 23.1273 23.8424 22.9595 23.6354 22.9595Z" style="fill:var(--sapContent_Illustrative_Color14)"/>
<path d="M23.6354 28.5859H20.9472C20.7402 28.5859 20.5724 28.7537 20.5724 28.9607C20.5724 29.1677 20.7402 29.3355 20.9472 29.3355H23.6354C23.8424 29.3355 24.0102 29.1677 24.0102 28.9607C24.0102 28.7537 23.8424 28.5859 23.6354 28.5859Z" style="fill:var(--sapContent_Illustrative_Color14)"/>
<path d="M23.6354 25.7725H20.9472C20.7402 25.7725 20.5724 25.9403 20.5724 26.1473C20.5724 26.3543 20.7402 26.5221 20.9472 26.5221H23.6354C23.8424 26.5221 24.0102 26.3543 24.0102 26.1473C24.0102 25.9403 23.8424 25.7725 23.6354 25.7725Z" style="fill:var(--sapContent_Illustrative_Color14)"/>
<path d="M23.6354 31.3979H20.9472C20.7402 31.3979 20.5724 31.5658 20.5724 31.7728C20.5724 31.9798 20.7402 32.1476 20.9472 32.1476H23.6354C23.8424 32.1476 24.0102 31.9798 24.0102 31.7728C24.0102 31.5658 23.8424 31.3979 23.6354 31.3979Z" style="fill:var(--sapContent_Illustrative_Color14)"/>
<path d="M33.6 16.2C38.0735 16.2 41.7 12.5735 41.7 8.1C41.7 3.62649 38.0735 0 33.6 0C29.1265 0 25.5 3.62649 25.5 8.1C25.5 12.5735 29.1265 16.2 33.6 16.2Z" style="fill:var(--sapContent_Illustrative_Color14)"/>
<path fill-rule="evenodd" clip-rule="evenodd" d="M33.6 15.2C37.5212 15.2 40.7 12.0212 40.7 8.1C40.7 4.17878 37.5212 1 33.6 1C29.6788 1 26.5 4.17878 26.5 8.1C26.5 12.0212 29.6788 15.2 33.6 15.2ZM41.7 8.1C41.7 12.5735 38.0735 16.2 33.6 16.2C29.1265 16.2 25.5 12.5735 25.5 8.1C25.5 3.62649 29.1265 0 33.6 0C38.0735 0 41.7 3.62649 41.7 8.1Z" style="fill:var(--sapContent_Illustrative_Color8)"/>
<path fill-rule="evenodd" clip-rule="evenodd" d="M35.3337 4C35.0882 4 34.8892 4.199 34.8892 4.44449C34.8892 4.68997 35.0882 4.88897 35.3337 4.88897H36.4834L35.2416 6.13078C35.068 6.30436 35.068 6.5858 35.2416 6.75938C35.4152 6.93296 35.6966 6.93296 35.8702 6.75938L37.1117 5.51795V6.66692C37.1117 6.9124 37.3107 7.1114 37.5561 7.1114C37.8016 7.1114 38.0006 6.9124 38.0006 6.66692V4.44449C38.0006 4.199 37.8016 4 37.5561 4H35.3337ZM32.7588 9.24218C32.9324 9.41577 32.9324 9.6972 32.7588 9.87078L31.5186 11.111H32.6668C32.9123 11.111 33.1113 11.31 33.1113 11.5555C33.1113 11.801 32.9123 12 32.6668 12H30.4444C30.3265 12 30.2134 11.9532 30.1301 11.8698C30.0467 11.7864 29.9999 11.6734 29.9999 11.5555V9.33307C29.9999 9.08759 30.1989 8.88858 30.4444 8.88858C30.6898 8.88858 30.8889 9.08759 30.8889 9.33307V10.4836L32.1302 9.24218C32.3038 9.0686 32.5852 9.0686 32.7588 9.24218ZM30.889 5.33253C30.889 5.08705 31.088 4.88804 31.3335 4.88804H33.1114C33.3569 4.88804 33.5559 5.08705 33.5559 5.33253C33.5559 5.57801 33.3569 5.77702 33.1114 5.77702H31.778V7.11048C31.778 7.35596 31.579 7.55496 31.3335 7.55496C31.088 7.55496 30.889 7.35596 30.889 7.11048V5.33253ZM37.1118 8.88948C37.1118 8.644 36.9128 8.44499 36.6673 8.44499C36.4218 8.44499 36.2228 8.644 36.2228 8.88948V10.2229H34.8894C34.6439 10.2229 34.4449 10.4219 34.4449 10.6674C34.4449 10.9129 34.6439 11.1119 34.8894 11.1119H36.6673C36.9128 11.1119 37.1118 10.9129 37.1118 10.6674V8.88948Z" style="fill:var(--sapContent_Illustrative_Color8)"/>
</svg>
