<svg xmlns="http://www.w3.org/2000/svg" xmlns:xlink="http://www.w3.org/1999/xlink" width="160" height="160" viewBox="0 0 160 160" id="sapIllus-Dialog-BeforeSearch">
      <path class="sapIllus_AccentColor" d="M132.6937,27.73c-3.2533-1.26-4.83-4.3131-6.05-7.4252A.4783.4783,0,0,0,126.2047,20a.5881.5881,0,0,0-.4465.2938c-1.6253,3.8672-4.04,5.8423-6.8353,8.13l-.0664.0545a.481.481,0,0,0,.2027.8428c2.5332.54,6.303,5.2112,6.303,7.81a.4778.4778,0,0,0,.9369.1352c.8192-2.8039,3.1973-7.4187,6.3928-8.6383a.4815.4815,0,0,0,.0018-.8977Z"/>
      <path class="sapIllus_AccentColor" d="M112.8666,47.768c-1.831-.7278-2.728-2.5166-3.4249-4.3412a.4884.4884,0,0,0-.4476-.3185h-.0057a.4885.4885,0,0,0-.45.3067,11.7736,11.7736,0,0,1-3.943,4.8026l-.0392.0333a.5123.5123,0,0,0-.1665.5079.4964.4964,0,0,0,.3732.3735c1.3845.3028,3.5269,3.0264,3.5269,4.4835a.4983.4983,0,0,0,.4181.4976.4735.4735,0,0,0,.07.0049.49.49,0,0,0,.4676-.3607c.4694-1.6445,1.82-4.3465,3.6192-5.0512a.508.508,0,0,0,.0019-.9384Z"/>
    <ellipse class="sapIllus_BackgroundColor" cx="80.5" cy="142" rx="42.5" ry="6"/>
    <path class="sapIllus_NoColor" d="M85.2249,48.2865A25.9088,25.9088,0,1,0,68.9265,78.275,25.9112,25.9112,0,0,0,85.2249,48.2865Z"/>
    <path class="sapIllus_NoColor" d="M40.0092,59.22l.0312.1187c-.0051-.02-.0086-.04-.0136-.06S40.0142,59.2393,40.0092,59.22Z"/>
    <path class="sapIllus_PatternShadow" d="M68.9265,78.275A25.9007,25.9007,0,0,0,72.468,31.2983a34.2591,34.2591,0,0,1,1.2231,4.4233,29.3159,29.3159,0,0,1-23.416,34.2131,33.9609,33.9609,0,0,1-8.5285.3409c-.7736-.077-1.49-.1849-2.1779-.3039A25.9118,25.9118,0,0,0,68.9265,78.275Z"/>
    <path class="sapIllus_StrokeDetailColor" d="M72.291,84.5876c.3059.4336.59.8349.9111,1.2933l-.8993-1.2978Z"/>
      <path class="sapIllus_StrokeDetailColor" d="M42.626,66.5166a.5.5,0,0,1-.418-.2256,21.9665,21.9665,0,0,1-2.873-6.5459l.0009-.0005a21.0917,21.0917,0,0,1-.206-9.3359q.0557-.2739.1172-.543a.5.5,0,1,1,.9746.2217q-.0587.2586-.1113.52a20.0791,20.0791,0,0,0,.2246,9.0083l-.001,0a20.9567,20.9567,0,0,0,2.71,6.1265.5.5,0,0,1-.4179.7744Z"/>
      <path class="sapIllus_StrokeDetailColor" d="M40.39,48.2061a.4995.4995,0,0,1-.4716-.6651,21.0763,21.0763,0,0,1,1.0293-2.437.5.5,0,0,1,.8945.4463,20.0851,20.0851,0,0,0-.98,2.3208A.5.5,0,0,1,40.39,48.2061Z"/>
    <path class="sapIllus_StrokeDetailColor" d="M85.5592,81.5767l-2.658-3.8454a43.4693,43.4693,0,0,1-4.9776,3.7875A47.882,47.882,0,0,1,72.29,84.5854l.0015.0022.0118-.0045.8993,1.2978.0521.0741S82.053,86.1378,85.5592,81.5767Z"/>
    <path class="sapIllus_BrandColorSecondary" d="M107.3985,113.1019,82.8973,77.7253a32.9823,32.9823,0,1,0-13.0759,7.752c.8435-.2634,1.6632-.5664,2.47-.89l-.0015-.0022a47.882,47.882,0,0,0,5.6341-3.0666,43.4693,43.4693,0,0,0,4.9776-3.7875l2.658,3.8454c-3.5062,4.5611-12.305,4.3783-12.305,4.3783l-.0521-.0741,23.905,34.4959c.0969.1415.2021.2735.3081.4044a6.3072,6.3072,0,0,0,8.3437,1.09h0A6.308,6.308,0,0,0,107.3985,113.1019ZM68.9265,78.275A25.9007,25.9007,0,1,1,85.2249,48.2865,25.9118,25.9118,0,0,1,68.9265,78.275Z"/>
</svg>
