<svg width="78" height="128" viewBox="0 0 78 128" fill="none" xmlns="http://www.w3.org/2000/svg" id="sapIllus-Spot-SimpleMagnifier">
<path opacity="0.5" d="M37.4729 72.4172C56.901 72.4172 72.6131 56.3983 72.6131 36.599C72.6131 16.7997 56.8834 0.777222 37.4729 0.777222C18.0625 0.777222 2.32568 16.7962 2.32568 36.599C2.32568 56.4018 18.0625 72.4172 37.4729 72.4172Z" fill="var(--sapContent_Illustrative_Color7)"/>
<path d="M51.3586 4.94977L38.2252 0.777222L16.1973 66.2414L29.3377 70.4034L51.3586 4.94977Z" fill="var(--sapContent_Illustrative_Color8)"/>
<path d="M34.4702 72.4173L56.8937 6.84362L52.8103 5.53638L30.3867 71.1101L34.4702 72.4173Z" fill="var(--sapContent_Illustrative_Color8)"/>
<path d="M55.0003 68.5238L45.3887 72.4102L51.5315 87.6271L61.1396 83.7407L55.0003 68.5238Z" fill="var(--sapContent_Illustrative_Color6)"/>
<path d="M51.3973 86.6308C51.2152 86.7053 51.0496 86.8149 50.9099 86.9534C50.7701 87.0918 50.659 87.2565 50.5829 87.4379C50.5068 87.6194 50.4672 87.814 50.4663 88.0108C50.4654 88.2075 50.5033 88.4025 50.5778 88.5846L65.1241 124.396C65.7222 125.829 66.8646 126.967 68.3005 127.558C69.7365 128.15 71.3484 128.147 72.7824 127.551L73.9163 127.088C75.3457 126.485 76.4795 125.342 77.0709 123.908C77.6623 122.474 77.6635 120.864 77.0742 119.428L62.5243 83.6595C62.4499 83.4761 62.3399 83.3092 62.2008 83.1685C62.0616 83.0277 61.896 82.9159 61.7135 82.8393C61.531 82.7628 61.3351 82.7232 61.1372 82.7227C60.9393 82.7221 60.7432 82.7608 60.5603 82.8363L51.3973 86.6308Z" fill="var(--sapContent_Illustrative_Color3)"/>
<path d="M45.0073 71.6083L46.0176 74.0108C46.0176 74.0108 51.0548 76.2366 56.3074 71.5659L54.7072 67.729L50.2953 69.8842L45.0073 71.6083Z" fill="var(--sapContent_Illustrative_Color4)"/>
<path d="M37.7131 73.6575C28.574 73.6511 19.7638 70.2456 12.9955 64.1032C6.2273 57.9607 1.98478 49.5203 1.09285 40.423C0.200922 31.3258 2.72333 22.2218 8.16965 14.8814C13.616 7.5409 21.5969 2.48853 30.5608 0.706627C39.5246 -1.07528 48.8306 0.540639 56.6694 5.24018C64.5082 9.93972 70.3196 17.387 72.9735 26.134C75.6274 34.881 74.9343 44.3026 71.0289 52.5668C67.1234 60.8311 60.2848 67.3474 51.8426 70.8487C47.3627 72.7031 42.5616 73.6575 37.7131 73.6575ZM37.7131 2.86187C29.8651 2.85005 22.2559 5.56121 16.1829 10.5331C10.1099 15.505 5.94906 22.4298 4.40979 30.1269C2.87051 37.824 4.0481 45.8168 7.74179 52.7426C11.4355 59.6684 17.4166 65.0984 24.6654 68.1068C31.9141 71.1152 39.9818 71.5158 47.4928 69.2402C55.0038 66.9646 61.4932 62.1538 65.8545 55.6279C70.2158 49.1021 72.179 41.2652 71.4095 33.4535C70.6399 25.6417 67.1853 18.3388 61.6344 12.7898C55.2892 6.4434 46.6865 2.87307 37.7131 2.86187Z" fill="var(--sapContent_Illustrative_Color4)"/>
</svg>