<svg width="320" height="200" viewBox="0 0 320 200" fill="none" xmlns="http://www.w3.org/2000/svg" id="sapIllus-Scene-SuccessScreen">
<rect x="137.333" y="116" width="61.3333" height="52" fill="var(--sapContent_Illustrative_Color2)"/>
<rect x="96" y="126.667" width="93.3333" height="56" fill="var(--sapContent_Illustrative_Color8)"/>
<path d="M176.875 126.391L157.263 126.325L111.699 126.165L157.263 126.325L176.875 126.391Z" fill="var(--sapContent_Illustrative_Color7)"/>
<path d="M305.505 0.0239866H180.459V9.26259C180.458 10.1327 180.286 10.9941 179.952 11.7976C179.619 12.6011 179.131 13.3309 178.516 13.9455C177.266 15.1895 175.575 15.8873 173.813 15.8865H129.543C127.781 15.8863 126.09 15.1886 124.839 13.9455C123.599 12.7032 122.901 11.0194 122.897 9.26259V0.0239866H39.652V49.4912C39.648 51.2466 38.9495 52.9288 37.7096 54.1694C36.4605 55.4155 34.7694 56.1151 33.0065 56.1151H0V185.385C0.01884 187.276 0.408753 189.146 1.14756 190.887C1.87603 192.638 2.9402 194.229 4.27984 195.57C5.62779 196.911 7.22578 197.974 8.98295 198.698C10.727 199.426 12.5963 199.805 14.4856 199.815H30.4762C30.1754 199.202 30.0148 198.529 30.0059 197.846V191.551C30.0064 190.962 30.123 190.379 30.349 189.835C30.575 189.291 30.9059 188.797 31.3228 188.381C32.1646 187.541 33.3046 187.07 34.4926 187.071H103.849C103.698 186.748 103.62 186.396 103.619 186.039V184.932C103.618 184.607 103.682 184.284 103.806 183.984C103.931 183.683 104.113 183.41 104.343 183.18C104.81 182.716 105.44 182.455 106.098 182.454H105.891C105.322 182.455 104.771 182.261 104.329 181.903C103.889 181.545 103.585 181.046 103.469 180.49L94.9042 140.115L62.6361 140.61C62.358 140.615 62.089 140.51 61.8883 140.318C61.7883 140.223 61.7081 140.109 61.6524 139.983C61.5967 139.857 61.5666 139.721 61.5638 139.583L59.9788 75.0398C59.9739 74.8982 59.998 74.7571 60.0494 74.6252C60.1032 74.4939 60.1814 74.374 60.2798 74.2719C60.379 74.1687 60.4994 74.0883 60.6326 74.0363C60.7643 73.984 60.9047 73.9569 61.0464 73.9562H62.9277V73.014C62.924 72.8736 62.9496 72.734 63.0029 72.6041C63.055 72.4732 63.1334 72.3545 63.2334 72.2555C63.3332 72.1564 63.4514 72.078 63.5814 72.0246C63.7135 71.9739 63.8539 71.9483 63.9953 71.9493L109.343 72.4863C109.613 72.4857 109.873 72.5905 110.067 72.7784C110.262 72.9688 110.376 73.2268 110.387 73.4992L111.327 111.4H197.108C197.678 111.394 198.233 111.586 198.678 111.942C199.119 112.3 199.423 112.799 199.539 113.356L212.336 179.444C212.414 179.808 212.407 180.185 212.317 180.546C212.234 180.899 212.074 181.229 211.847 181.512C211.616 181.794 211.326 182.021 210.996 182.176C210.665 182.331 210.303 182.412 209.938 182.412H244.27V186.327C244.27 186.566 244.228 186.803 244.148 187.029H309.31C311.055 187.029 312.475 189.031 312.475 191.509V197.996C314.75 196.757 316.65 194.928 317.978 192.701C319.3 190.475 319.998 187.933 320 185.342V14.459C320 12.5588 319.624 10.6775 318.895 8.92337C318.166 7.16886 317.098 5.57583 315.753 4.23576C314.405 2.89491 312.807 1.83209 311.05 1.10755C309.292 0.386627 307.409 0.0184822 305.51 0.0239866H305.505ZM296.879 73.7866C296.879 73.9194 296.852 74.0508 296.8 74.1729C296.748 74.2946 296.672 74.405 296.578 74.498C296.483 74.5905 296.369 74.6626 296.245 74.71C296.121 74.757 295.991 74.7809 295.859 74.7807H294.029V76.7217C294.028 76.854 294.003 76.9849 293.954 77.108C293.902 77.2323 293.825 77.3445 293.728 77.4378C293.635 77.5325 293.523 77.6063 293.399 77.6545C293.275 77.7056 293.143 77.7312 293.009 77.7298L249.571 77.3247C249.304 77.3234 249.049 77.2167 248.861 77.0279C248.676 76.8373 248.571 76.5824 248.569 76.3165V14.459C248.569 14.3231 248.596 14.1885 248.649 14.0632C248.703 13.9376 248.781 13.8239 248.879 13.7288C248.978 13.6367 249.093 13.5633 249.218 13.512C249.346 13.4647 249.482 13.4423 249.618 13.4461L251.419 13.512V12.5698C251.421 12.4351 251.45 12.3021 251.504 12.1788C251.557 12.0543 251.636 11.942 251.734 11.849C251.831 11.7558 251.947 11.6836 252.073 11.637C252.199 11.5885 252.333 11.5676 252.468 11.5758L295.906 13.154C296.035 13.1563 296.162 13.1841 296.279 13.2359C296.397 13.2876 296.504 13.3623 296.593 13.4555C296.776 13.6391 296.879 13.8882 296.879 14.1481V73.7866Z" fill="var(--sapContent_Illustrative_Color7)"/>
<path d="M104.296 139.95L110.382 172.994L104.296 139.95Z" fill="var(--sapContent_Illustrative_Color7)"/>
<path d="M186.921 174.322C186.458 174.77 185.839 175.02 185.195 175.019C185.839 175.02 186.458 174.77 186.921 174.322V174.322Z" fill="var(--sapContent_Illustrative_Color7)"/>
<path d="M112.814 175.024C112.539 175.024 112.267 174.976 112.01 174.882C112.267 174.976 112.539 175.024 112.814 175.024V175.024Z" fill="var(--sapContent_Illustrative_Color7)"/>
<path d="M251.419 73.4141V13.5117L249.618 13.4457C249.482 13.4419 249.346 13.4643 249.218 13.5117C249.093 13.563 248.979 13.6364 248.88 13.7284C248.782 13.8236 248.703 13.9372 248.649 14.0629C248.597 14.1882 248.569 14.3227 248.569 14.4586V76.3256C248.571 76.5915 248.676 76.8463 248.861 77.037C249.05 77.2249 249.305 77.3314 249.571 77.3338L293.009 77.7295C293.143 77.7309 293.276 77.7053 293.399 77.6541C293.524 77.6068 293.636 77.5328 293.729 77.4374C293.826 77.3442 293.903 77.2319 293.954 77.1076C294.005 76.9852 294.031 76.8538 294.03 76.7213V74.7803L252.421 74.4081C252.157 74.4063 251.904 74.3016 251.716 74.1161C251.529 73.9296 251.423 73.6778 251.419 73.4141V73.4141Z" fill="var(--sapContent_Illustrative_Color7)"/>
<path d="M251.419 73.4141V13.5117L249.618 13.4457C249.482 13.4419 249.346 13.4643 249.218 13.5117C249.093 13.563 248.979 13.6364 248.88 13.7284C248.782 13.8236 248.703 13.9372 248.649 14.0629C248.597 14.1882 248.569 14.3227 248.569 14.4586V76.3256C248.571 76.5915 248.676 76.8463 248.861 77.037C249.05 77.2249 249.305 77.3314 249.571 77.3338L293.009 77.7295C293.143 77.7309 293.276 77.7053 293.399 77.6541C293.524 77.6068 293.636 77.5328 293.729 77.4374C293.826 77.3442 293.903 77.2319 293.954 77.1076C294.005 76.9852 294.031 76.8538 294.03 76.7213V74.7803L252.421 74.4081C252.157 74.4063 251.904 74.3016 251.716 74.1161C251.529 73.9296 251.423 73.6778 251.419 73.4141V73.4141Z" fill="var(--sapContent_Illustrative_Color19)"/>
<path d="M295.906 13.1717L252.468 11.5934C252.333 11.5852 252.198 11.6061 252.073 11.6547C251.946 11.7012 251.831 11.7734 251.734 11.8667C251.636 11.9597 251.557 12.0719 251.504 12.1964C251.449 12.3198 251.421 12.4528 251.419 12.5875V73.4132C251.423 73.6769 251.529 73.9288 251.715 74.1152C251.904 74.3007 252.157 74.4055 252.421 74.4073L294.029 74.7795H295.859C295.991 74.7798 296.121 74.7558 296.244 74.7088C296.369 74.6614 296.482 74.5893 296.578 74.4968C296.672 74.4038 296.747 74.2934 296.799 74.1717C296.852 74.0496 296.879 73.9182 296.879 73.7854V14.1516C296.876 13.8942 296.771 13.6487 296.588 13.4685C296.408 13.2835 296.163 13.1768 295.906 13.1717V13.1717ZM291.203 68.1791V68.1179L258.041 67.8022C257.832 67.7943 257.634 67.7047 257.491 67.5526C257.419 67.4775 257.363 67.3888 257.326 67.2917C257.289 67.1946 257.271 67.0911 257.274 66.9872V17.6802H257.199L257.241 16.5401H257.895C257.956 16.5307 258.018 16.5307 258.079 16.5401L260.124 16.6202L292.106 17.5059L292.204 68.0802L291.203 68.1791Z" fill="var(--sapContent_Illustrative_Color18)"/>
<path d="M258.07 16.5501C258.009 16.5407 257.947 16.5407 257.886 16.5501L260.116 16.6114L258.07 16.5501Z" fill="var(--sapContent_Illustrative_Color18)"/>
<path d="M257.246 17.681V66.988C257.241 67.1976 257.319 67.4008 257.462 67.5533C257.606 67.7055 257.804 67.7951 258.013 67.803L291.174 68.114L290.93 18.9059L257.246 17.681ZM283.805 54.4516L283.743 54.494C283.549 54.6382 283.313 54.7158 283.071 54.7154C282.887 54.7191 282.705 54.6787 282.539 54.5977C282.377 54.5145 282.236 54.3933 282.13 54.2443C282.04 54.1233 281.975 53.9856 281.937 53.8392C281.909 53.6913 281.909 53.5395 281.937 53.3916C281.961 53.2429 282.014 53.1003 282.093 52.9723C282.173 52.8441 282.277 52.7322 282.398 52.6425L282.478 52.586C283.5 51.9052 284.334 50.9787 284.905 49.8912C285.483 48.8075 285.781 47.5959 285.77 46.3673C285.771 46.0919 285.756 45.8167 285.728 45.5428H265.354C264.788 45.5427 264.227 45.4306 263.703 45.213C263.175 44.9958 262.696 44.6755 262.293 44.2708C261.891 43.8648 261.572 43.3849 261.352 42.8574C261.137 42.3345 261.026 41.7742 261.027 41.2085V36.9685C261.028 36.9124 261.05 36.8587 261.089 36.8177C261.13 36.7806 261.184 36.7605 261.239 36.7612L263.741 38.3253H263.812C264.176 38.183 264.564 38.1141 264.954 38.1227C265.38 38.1109 265.803 38.1946 266.191 38.3677H266.323L268.566 36.7565C268.622 36.7548 268.676 36.7751 268.717 36.813C268.755 36.854 268.777 36.9077 268.778 36.9638V40.3464C270.485 37.7506 273.726 35.998 277.441 35.998C281.312 35.998 284.665 37.8825 286.307 40.7092L286.349 40.7563C287.433 42.4429 288.013 44.404 288.023 46.4097C288.029 47.9941 287.65 49.5561 286.918 50.9606C286.185 52.364 285.123 53.5684 283.823 54.4705L283.805 54.4516Z" fill="var(--sapContent_Illustrative_Color7)"/>
<path d="M257.886 16.5503H257.232L257.19 17.6904H257.265V17.3606C257.258 17.1739 257.316 16.9906 257.43 16.8424C257.547 16.6924 257.714 16.5889 257.9 16.5503H257.886Z" fill="var(--sapContent_Illustrative_Color8)"/>
<path opacity="0.5" d="M257.886 16.5503H257.232L257.19 17.6904H257.265V17.3606C257.258 17.1739 257.316 16.9906 257.43 16.8424C257.547 16.6924 257.714 16.5889 257.9 16.5503H257.886Z" fill="var(--sapContent_Illustrative_Color19)"/>
<path d="M260.115 16.6158L291.264 17.8266C291.47 17.8397 291.662 17.9326 291.8 18.0857C291.937 18.2362 292.011 18.4334 292.007 18.6369V67.3032C292.011 67.4077 291.993 67.512 291.955 67.6094C291.918 67.7072 291.862 67.7969 291.791 67.8732C291.717 67.949 291.629 68.0098 291.532 68.0523C291.436 68.0942 291.332 68.1151 291.226 68.1135H291.194V68.1748L292.167 68.0805L292.068 17.4921L260.115 16.6158Z" fill="var(--sapContent_Illustrative_Color8)"/>
<path opacity="0.5" d="M260.115 16.6158L291.264 17.8266C291.47 17.8397 291.662 17.9326 291.8 18.0857C291.937 18.2362 292.011 18.4334 292.007 18.6369V67.3032C292.011 67.4077 291.993 67.512 291.955 67.6094C291.918 67.7072 291.862 67.7969 291.791 67.8732C291.717 67.949 291.629 68.0098 291.532 68.0523C291.436 68.0942 291.332 68.1151 291.226 68.1135H291.194V68.1748L292.167 68.0805L292.068 17.4921L260.115 16.6158Z" fill="var(--sapContent_Illustrative_Color19)"/>
<path d="M292.007 67.3036V18.6373C292.011 18.4339 291.937 18.2366 291.8 18.0861C291.661 17.9346 291.469 17.842 291.264 17.827L260.115 16.621L257.886 16.5503C257.701 16.5891 257.535 16.6906 257.416 16.8377C257.3 16.9869 257.24 17.1718 257.246 17.3606V17.6904L290.93 18.9247L291.175 68.1281H291.208C291.315 68.1269 291.422 68.1061 291.523 68.0668C291.626 68.0325 291.721 67.9762 291.8 67.9019C291.876 67.8243 291.934 67.731 291.969 67.6287C292.006 67.5278 292.022 67.4203 292.016 67.313L292.007 67.3036Z" fill="var(--sapContent_Illustrative_Color18)"/>
<path d="M292.007 67.3036V18.6373C292.011 18.4339 291.937 18.2366 291.8 18.0861C291.661 17.9346 291.469 17.842 291.264 17.827L260.115 16.621L257.886 16.5503C257.701 16.5891 257.535 16.6906 257.416 16.8377C257.3 16.9869 257.24 17.1718 257.246 17.3606V17.6904L290.93 18.9247L291.175 68.1281H291.208C291.315 68.1269 291.422 68.1061 291.523 68.0668C291.626 68.0325 291.721 67.9762 291.8 67.9019C291.876 67.8243 291.934 67.731 291.969 67.6287C292.006 67.5278 292.022 67.4203 292.016 67.313L292.007 67.3036Z" fill="var(--sapContent_Illustrative_Color19)"/>
<path d="M286.401 40.6994C284.755 37.9199 281.401 35.9883 277.531 35.9883C273.815 35.9883 270.575 37.7408 268.868 40.3367V36.9541C268.867 36.8992 268.845 36.8467 268.806 36.808C268.787 36.7882 268.763 36.7725 268.737 36.762C268.712 36.7515 268.684 36.7463 268.656 36.7468L266.403 38.3674H266.272C265.882 38.1974 265.46 38.1138 265.035 38.1224C264.642 38.1133 264.252 38.1822 263.887 38.325H263.816L261.314 36.7609C261.287 36.7604 261.259 36.7656 261.233 36.7761C261.207 36.7866 261.184 36.8023 261.164 36.8222C261.125 36.8608 261.103 36.9133 261.103 36.9682V41.2082C261.102 41.7739 261.212 42.3342 261.427 42.8571C261.644 43.3862 261.964 43.8666 262.368 44.2705C262.771 44.6752 263.251 44.9955 263.779 45.2127C264.301 45.4298 264.86 45.5419 265.425 45.5425H285.804C285.832 45.8164 285.846 46.0916 285.846 46.367C285.855 47.595 285.56 48.806 284.985 49.8909C284.408 50.9771 283.573 51.9043 282.554 52.5904L282.474 52.6469C282.351 52.7337 282.247 52.8442 282.168 52.972C282.089 53.1017 282.036 53.2458 282.013 53.396C281.985 53.5439 281.985 53.6957 282.013 53.8436C282.051 53.9896 282.116 54.1271 282.206 54.2487C282.314 54.3966 282.456 54.5161 282.62 54.5974C282.783 54.6789 282.964 54.7193 283.146 54.7151C283.388 54.7149 283.623 54.6391 283.819 54.4984L283.88 54.456C285.187 53.5534 286.257 52.3476 286.998 50.9415C287.733 49.5326 288.116 47.966 288.113 46.3764C288.106 44.3695 287.524 42.407 286.434 40.723L286.401 40.6994ZM267.588 42.1128L268.844 38.9893V40.4026L267.588 42.1128Z" fill="var(--sapContent_Illustrative_Color18)"/>
<path d="M267.56 42.1221L268.839 40.3978L268.816 38.9845L267.56 42.1221Z" fill="var(--sapContent_Illustrative_Color19)"/>
<path d="M176.752 9.26253V0.0239258H176.724V9.53104C176.738 9.44208 176.748 9.35247 176.752 9.26253V9.26253Z" fill="var(--sapContent_Illustrative_Color18)"/>
<path d="M152.64 1.89899C154.841 0.674085 156.901 0.0145104 158.989 0.561005C163.41 1.67284 163.561 6.83155 169.242 12.1834H173.832C174.153 12.1824 174.471 12.1266 174.773 12.0185C174.64 12.0464 174.504 12.0606 174.368 12.0609V0.0239258H150.98C151.107 0.165261 151.224 0.301891 151.356 0.443226C151.779 0.952031 152.212 1.42787 152.64 1.89899Z" fill="var(--sapContent_Illustrative_Color7)"/>
<path d="M129.072 12.1308C128.383 11.9372 127.775 11.5237 127.342 10.953C126.909 10.3808 126.675 9.68274 126.674 8.96489V0.060791H126.636V9.29937C126.639 9.99014 126.885 10.6577 127.332 11.1838C127.779 11.7065 128.395 12.0551 129.072 12.1685V12.1308Z" fill="var(--sapContent_Illustrative_Color18)"/>
<path d="M129.543 15.8864H173.837C175.599 15.8862 177.289 15.1885 178.54 13.9454C179.155 13.3309 179.643 12.601 179.976 11.7975C180.31 10.994 180.482 10.1326 180.482 9.26253V0.0239258H176.781V9.26253C176.781 9.35204 176.781 9.44153 176.748 9.53104V9.68652C176.754 10.2494 176.559 10.7959 176.198 11.2271C175.838 11.6549 175.338 11.9405 174.787 12.0327C174.485 12.1408 174.167 12.1965 173.846 12.1976H169.256L169.35 12.2918H129.98C129.661 12.2908 129.344 12.2416 129.04 12.1458C128.36 12.0318 127.742 11.6815 127.295 11.1564C126.85 10.6294 126.605 9.96204 126.604 9.27193V0.0616231H122.897V9.3002C122.899 10.1727 123.075 11.0361 123.415 11.8395C123.75 12.6453 124.242 13.3758 124.863 13.9878C125.486 14.5956 126.221 15.0757 127.027 15.4012C127.826 15.7244 128.681 15.8892 129.543 15.8864V15.8864Z" fill="var(--sapContent_Illustrative_Color18)"/>
<path d="M174.749 12.0186C175.284 11.8429 175.756 11.5156 176.108 11.0764C176.459 10.6333 176.674 10.0984 176.729 9.5358V0.0286865H174.344V12.0657C174.48 12.0653 174.616 12.0511 174.749 12.0233V12.0186Z" fill="var(--sapContent_Illustrative_Color18)"/>
<path d="M174.749 12.0186C175.284 11.8429 175.756 11.5156 176.108 11.0764C176.459 10.6333 176.674 10.0984 176.729 9.5358V0.0286865H174.344V12.0657C174.48 12.0653 174.616 12.0511 174.749 12.0233V12.0186Z" fill="var(--sapContent_Illustrative_Color19)"/>
<path d="M174.749 12.0179C175.3 11.9257 175.8 11.6401 176.16 11.2122C176.524 10.7805 176.721 10.2321 176.715 9.667V9.51624C176.665 10.0799 176.453 10.6169 176.104 11.0615C175.75 11.5015 175.276 11.8288 174.74 12.0037L174.749 12.0179Z" fill="var(--sapContent_Illustrative_Color8)"/>
<path opacity="0.2" d="M174.749 12.0179C175.3 11.9257 175.8 11.6401 176.16 11.2122C176.524 10.7805 176.721 10.2321 176.715 9.667V9.51624C176.665 10.0799 176.453 10.6169 176.104 11.0615C175.75 11.5015 175.276 11.8288 174.74 12.0037L174.749 12.0179Z" fill="var(--sapContent_Illustrative_Color19)"/>
<path d="M129.044 12.1312C129.199 12.1622 129.356 12.1795 129.514 12.183H140.501C142.529 9.46889 144.965 7.08517 147.72 5.11631C149.292 3.94785 150.927 2.86583 152.616 1.87503C152.183 1.40392 151.751 0.932816 151.304 0.4193C151.172 0.277965 151.055 0.141335 150.932 0H126.627V8.9512C126.624 9.67389 126.859 10.3774 127.295 10.9534C127.731 11.5284 128.344 11.9439 129.039 12.1359L129.044 12.1312Z" fill="var(--sapContent_Illustrative_Color18)"/>
<path d="M129.044 12.1312C129.199 12.1622 129.356 12.1795 129.514 12.183H140.501C142.529 9.46889 144.965 7.08517 147.72 5.11631C149.292 3.94785 150.927 2.86583 152.616 1.87503C152.183 1.40392 151.751 0.932816 151.304 0.4193C151.172 0.277965 151.055 0.141335 150.932 0H126.627V8.9512C126.624 9.67389 126.859 10.3774 127.295 10.9534C127.731 11.5284 128.344 11.9439 129.039 12.1359L129.044 12.1312Z" fill="var(--sapContent_Illustrative_Color19)"/>
<path d="M129.543 12.2017C129.385 12.1987 129.227 12.1814 129.073 12.1499C129.377 12.2435 129.694 12.2926 130.013 12.2959H140.501L140.572 12.2017H129.543Z" fill="var(--sapContent_Illustrative_Color8)"/>
<path opacity="0.5" d="M129.543 12.2017C129.385 12.1987 129.227 12.1814 129.073 12.1499C129.377 12.2435 129.694 12.2926 130.013 12.2959H140.501L140.572 12.2017H129.543Z" fill="var(--sapContent_Illustrative_Color8)"/>
<path d="M158.97 0.5606C156.882 0.0329498 154.822 0.67368 152.621 1.89858C150.932 2.89048 149.298 3.97247 147.725 5.13986C144.97 7.1097 142.535 9.49329 140.506 12.2066H169.223C163.56 6.83117 163.405 1.67243 158.97 0.5606Z" fill="var(--sapContent_Illustrative_Color18)"/>
<path d="M158.97 0.5606C156.882 0.0329498 154.822 0.67368 152.621 1.89858C150.932 2.89048 149.298 3.97247 147.725 5.13986C144.97 7.1097 142.535 9.49329 140.506 12.2066H169.223C163.56 6.83117 163.405 1.67243 158.97 0.5606Z" fill="var(--sapContent_Illustrative_Color20)"/>
<path d="M140.454 12.2764H169.317L169.223 12.1821H140.506L140.454 12.2764Z" fill="var(--sapContent_Illustrative_Color8)"/>
<path opacity="0.5" d="M140.454 12.2764H169.317L169.223 12.1821H140.506L140.454 12.2764Z" fill="var(--sapContent_Illustrative_Color19)"/>
<path d="M35.9743 49.4628V0.0239258H35.9507V49.7314C35.965 49.6424 35.9745 49.5528 35.979 49.4628H35.9743Z" fill="var(--sapContent_Illustrative_Color18)"/>
<path d="M33.9659 52.2236C33.8338 52.247 33.7002 52.2612 33.5662 52.266V0.0239645H14.5044C11.687 0.0174358 8.92915 0.83622 6.57029 2.37954C6.65092 2.36957 6.73098 2.35543 6.81015 2.33716C7.45447 2.25963 8.10746 2.36918 8.6914 2.6528C9.27706 2.93863 9.76723 3.38872 10.1023 3.94837C10.3339 3.53788 10.6031 3.14988 10.9066 2.78941C12.5385 0.862548 14.7349 0.0381175 15.8166 0.956794C16.8983 1.87547 16.4562 4.16979 14.8242 6.09666C14.0154 7.11634 12.9088 7.85752 11.6591 8.21668C11.8143 9.01286 11.9365 9.86087 12.0353 10.7466C12.3739 13.8371 12.5715 17.1962 11.7296 19.2926H13.5027C13.2722 18.3504 13.5027 17.1255 13.625 15.7451C13.8507 12.9184 14.9606 10.6665 16.6067 10.6288C19.6214 10.5581 19.5838 12.9184 19.5838 15.7451C19.6062 16.9798 19.3166 18.2001 18.742 19.2926H23.5815V26.105H22.2458V39.8427H0.0423584V52.3555H33.03C33.3471 52.3639 33.6634 52.3193 33.9659 52.2236V52.2236Z" fill="var(--sapContent_Illustrative_Color7)"/>
<path d="M3.4991 11.7962C3.1934 9.02607 3.14637 6.5056 3.80011 4.72949C1.37875 7.37574 0.0361789 10.8354 0.0375988 14.4251V19.2776H5.01351C3.96941 17.492 3.8001 14.6936 3.4991 11.7962Z" fill="var(--sapContent_Illustrative_Color7)"/>
<path d="M39.6803 49.4628V0.0239258H35.9742V49.4628C35.9697 49.5528 35.9603 49.6424 35.946 49.7314V49.8821C35.9441 50.4424 35.746 50.9842 35.3863 51.4133C35.0256 51.841 34.5261 52.1278 33.9754 52.2236C33.6736 52.3323 33.3554 52.3881 33.0348 52.3885H0.0518799V56.1244H33.0395C33.9124 56.1257 34.7771 55.9544 35.5839 55.6203C36.3919 55.2904 37.1259 54.8018 37.7426 54.1834C38.3585 53.5672 38.8475 52.8356 39.1817 52.0304C39.5167 51.2242 39.6893 50.3596 39.6897 49.4864L39.6803 49.4628Z" fill="var(--sapContent_Illustrative_Color18)"/>
<path d="M33.9659 52.2236C34.5016 52.0475 34.9752 51.7203 35.3299 51.2813C35.6796 50.8383 35.8936 50.3032 35.946 49.7408V0.0239258H33.5662V52.266C33.7002 52.2612 33.8338 52.247 33.9659 52.2236V52.2236Z" fill="var(--sapContent_Illustrative_Color18)"/>
<path d="M33.9659 52.2236C34.5016 52.0475 34.9752 51.7203 35.3299 51.2813C35.6796 50.8383 35.8936 50.3032 35.946 49.7408V0.0239258H33.5662V52.266C33.7002 52.2612 33.8338 52.247 33.9659 52.2236V52.2236Z" fill="var(--sapContent_Illustrative_Color19)"/>
<path d="M33.9658 52.2227C34.5165 52.1269 35.016 51.8401 35.3767 51.4124C35.7385 50.9809 35.9367 50.4353 35.9364 49.8718V49.7211C35.8863 50.2854 35.6721 50.8227 35.3203 51.2663C34.971 51.71 34.5004 52.0423 33.9658 52.2227Z" fill="var(--sapContent_Illustrative_Color8)"/>
<path opacity="0.2" d="M33.9658 52.2227C34.5165 52.1269 35.016 51.8401 35.3767 51.4124C35.7385 50.9809 35.9367 50.4353 35.9364 49.8718V49.7211C35.8863 50.2854 35.6721 50.8227 35.3203 51.2663C34.971 51.71 34.5004 52.0423 33.9658 52.2227Z" fill="var(--sapContent_Illustrative_Color19)"/>
<path d="M22.2643 26.1464V27.6681H0.0703125V39.8841H22.2737L22.2643 26.1464Z" fill="var(--sapContent_Illustrative_Color18)"/>
<path d="M22.2551 26.3864V26.1367C22.1754 26.1273 22.0949 26.1273 22.0152 26.1367H0.300984C0.270027 26.1297 0.237874 26.1297 0.206916 26.1367C0.177016 26.1484 0.149801 26.166 0.126957 26.1886C0.105448 26.2122 0.0879771 26.2393 0.0752302 26.2686C0.0703009 26.2999 0.0703009 26.3317 0.0752302 26.3629V27.4229C0.0741302 27.4859 0.0977684 27.5468 0.141066 27.5925C0.163836 27.6154 0.190996 27.6334 0.220896 27.6456C0.250796 27.6577 0.282834 27.6637 0.315093 27.6631H22.0293C22.0601 27.6635 22.0907 27.6574 22.1191 27.6453C22.1474 27.6331 22.1729 27.6151 22.1939 27.5925C22.2177 27.5712 22.2367 27.545 22.2497 27.5158C22.2627 27.4865 22.2693 27.4549 22.2692 27.4229L22.2551 26.3864Z" fill="var(--sapContent_Illustrative_Color19)"/>
<path d="M23.5909 26.1228V19.3104H0.0423584V26.1228H23.5909Z" fill="var(--sapContent_Illustrative_Color18)"/>
<path d="M3.49924 11.7967C3.81435 14.6987 3.96955 17.4924 5.03715 19.3345H11.7203C12.5621 17.238 12.3646 13.879 12.026 10.7885C11.9272 9.90279 11.8049 9.05479 11.6497 8.2586C12.8995 7.89944 14.0061 7.15826 14.8149 6.13858C16.4469 4.21171 16.889 1.89852 15.8073 0.998687C14.7256 0.0988558 12.5151 0.904466 10.8972 2.82662C10.591 3.18201 10.3186 3.56528 10.0836 3.97143C9.7485 3.41178 9.25833 2.96169 8.67266 2.67586C8.08873 2.39224 7.43574 2.28269 6.79142 2.36022C6.71035 2.36706 6.63006 2.38123 6.55155 2.4026C5.5342 3.06964 4.60368 3.86092 3.78143 4.75818C3.14651 6.50602 3.19354 9.01236 3.49924 11.7967Z" fill="var(--sapContent_Illustrative_Color18)"/>
<path d="M18.7418 19.3348C19.3164 18.2423 19.606 17.022 19.5836 15.7873C19.5836 12.9606 19.6212 10.6051 16.6066 10.671C14.9605 10.7087 13.8506 12.9701 13.6248 15.7873C13.512 17.1677 13.2721 18.4162 13.5026 19.3348H18.7418Z" fill="var(--sapContent_Illustrative_Color18)"/>
<path d="M112.814 191.532C112.799 190.46 113.092 189.408 113.656 188.498H106.103C105.629 188.496 105.165 188.359 104.767 188.102C104.368 187.845 104.052 187.479 103.855 187.047H34.4979C33.3092 187.047 32.1694 187.52 31.328 188.361C30.9111 188.777 30.5802 189.271 30.3543 189.815C30.1283 190.359 30.0117 190.942 30.0111 191.532V197.826C30.0178 198.509 30.1786 199.182 30.4814 199.795H113.153C112.937 199.161 112.827 198.496 112.828 197.826L112.814 191.532Z" fill="var(--sapContent_Illustrative_Color18)"/>
<path d="M65.5331 137.462C65.2573 137.468 64.9903 137.365 64.79 137.175C64.5925 136.985 64.4748 136.727 64.4608 136.454L62.9323 73.965H61.051C60.909 73.9628 60.7681 73.9901 60.6371 74.0451C60.5051 74.0972 60.3851 74.1757 60.2844 74.2759C60.1869 74.3788 60.1088 74.4985 60.054 74.6292C60.0025 74.7612 59.9785 74.9023 59.9834 75.0438L61.5684 139.587C61.5711 139.725 61.6013 139.861 61.657 139.987C61.7127 140.113 61.7929 140.227 61.8929 140.322C62.0936 140.514 62.3626 140.62 62.6407 140.614L94.9088 140.114L94.255 137.038L65.5331 137.462Z" fill="var(--sapContent_Illustrative_Color7)"/>
<path d="M65.5331 137.462C65.2573 137.468 64.9903 137.365 64.79 137.175C64.5925 136.985 64.4748 136.727 64.4608 136.454L62.9323 73.965H61.051C60.909 73.9628 60.7681 73.9901 60.6371 74.0451C60.5051 74.0972 60.3851 74.1757 60.2844 74.2759C60.1869 74.3788 60.1088 74.4985 60.054 74.6292C60.0025 74.7612 59.9785 74.9023 59.9834 75.0438L61.5684 139.587C61.5711 139.725 61.6013 139.861 61.657 139.987C61.7127 140.113 61.7929 140.227 61.8929 140.322C62.0936 140.514 62.3626 140.62 62.6407 140.614L94.9088 140.114L94.255 137.038L65.5331 137.462Z" fill="var(--sapContent_Illustrative_Color19)"/>
<path d="M103.727 136.869L104.296 139.95L103.727 136.869Z" fill="var(--sapContent_Illustrative_Color7)"/>
<path opacity="0.5" d="M103.727 136.869L104.296 139.95L103.727 136.869Z" fill="var(--sapContent_Illustrative_Color19)"/>
<path d="M65.5383 137.462L94.2555 137.015L92.7928 130.089L71.215 130.41C71.1081 130.409 71.0024 130.387 70.9046 130.344C70.8024 130.306 70.7105 130.245 70.6365 130.165C70.5597 130.088 70.4989 129.997 70.4578 129.896C70.4179 129.798 70.3987 129.692 70.4013 129.585L69.1315 78.1536H69.0563V76.9616H69.7335C69.796 76.955 69.8591 76.955 69.9216 76.9616L72.0615 76.9946L105.421 77.0982L106.328 111.395H111.285L110.345 73.4895C110.336 73.2182 110.221 72.9612 110.025 72.7734C109.831 72.5855 109.571 72.4807 109.301 72.4813L63.9534 71.9442C63.8119 71.9433 63.6716 71.9688 63.5395 72.0196C63.4089 72.0717 63.2904 72.1503 63.1915 72.2505C63.0926 72.3487 63.0143 72.4656 62.961 72.5944C62.9081 72.726 62.8825 72.8671 62.8858 73.009V73.9748L64.419 136.464C64.4239 136.604 64.4575 136.742 64.5178 136.869C64.5753 136.996 64.6585 137.11 64.7623 137.203C64.8677 137.296 64.9909 137.367 65.1245 137.411C65.2574 137.456 65.3983 137.474 65.5383 137.462V137.462Z" fill="var(--sapContent_Illustrative_Color18)"/>
<path d="M69.9352 76.9563C69.8726 76.9517 69.8097 76.9517 69.7471 76.9563H72.0986H69.9352Z" fill="var(--sapContent_Illustrative_Color18)"/>
<path d="M103.205 126.659C103.418 126.495 103.657 126.366 103.911 126.278C103.657 126.366 103.418 126.495 103.205 126.659V126.659Z" fill="var(--sapContent_Illustrative_Color18)"/>
<path d="M103.906 126.278C104.17 126.183 104.449 126.137 104.729 126.141C104.449 126.137 104.17 126.183 103.906 126.278V126.278Z" fill="var(--sapContent_Illustrative_Color18)"/>
<path d="M102.288 129.057C102.254 128.871 102.242 128.681 102.25 128.492C102.242 128.681 102.254 128.871 102.288 129.057L102.457 129.957L102.288 129.057Z" fill="var(--sapContent_Illustrative_Color18)"/>
<path d="M69.131 78.1719L70.4008 129.604C70.3986 129.712 70.4178 129.819 70.4573 129.919C70.501 130.018 70.5614 130.109 70.636 130.188C70.7116 130.264 70.801 130.324 70.8994 130.367C71.0001 130.405 71.1067 130.426 71.2145 130.428L92.7924 130.108L90.6807 120.158C89.2698 120.37 88.141 120.158 88.1034 119.107C88.1034 118.702 88.0517 118.123 87.9952 117.26C87.3728 117.561 86.6922 117.722 86.0011 117.731C81.7118 117.731 78.2315 112.799 78.2315 106.712C78.2315 104.21 78.1657 101.902 78.6548 100.055C77.1357 100.475 75.6777 100.022 75.3344 98.9952C75.0804 98.2226 75.5131 97.3416 76.3644 96.7009H75.3485C75.207 96.701 75.0669 96.6731 74.9362 96.619C74.8055 96.5648 74.6867 96.4854 74.5866 96.3852C74.4853 96.2857 74.4049 96.1669 74.35 96.0359C74.2951 95.9048 74.2668 95.7641 74.2668 95.622C74.2676 94.7064 74.6313 93.8287 75.278 93.1816C75.9267 92.5357 76.8042 92.1733 77.7189 92.1734H79.6472C80.1466 91.413 80.8125 90.7765 81.5943 90.3125C82.378 89.8497 83.2556 89.5696 84.1622 89.4928L87.4967 89.2148C89.0729 89.083 90.658 89.3235 92.1246 89.9168C93.5913 90.5064 94.8993 91.4327 95.9435 92.621C96.9847 93.8107 97.7351 95.2269 98.1352 96.7574C98.5305 98.2865 98.5627 99.8871 98.2292 101.431L96.6537 109.567C96.6318 109.668 96.5885 109.763 96.5267 109.845C96.4629 109.925 96.3827 109.991 96.2915 110.038C96.4514 110.429 96.6301 110.848 96.8371 111.357H105.27L104.301 78.5582L69.131 78.1719Z" fill="var(--sapContent_Illustrative_Color7)"/>
<path d="M69.7473 76.9802H69.0654V78.1721H69.1454V77.8282C69.1364 77.6399 69.1911 77.454 69.3006 77.3006C69.4087 77.146 69.5663 77.0329 69.7473 76.9802V76.9802Z" fill="var(--sapContent_Illustrative_Color8)"/>
<path opacity="0.5" d="M69.7473 76.9802H69.0654V78.1721H69.1454V77.8282C69.1364 77.6399 69.1911 77.454 69.3006 77.3006C69.4087 77.146 69.5663 77.0329 69.7473 76.9802V76.9802Z" fill="var(--sapContent_Illustrative_Color19)"/>
<path d="M72.0754 76.9897L104.602 77.4609C104.815 77.4726 105.016 77.5633 105.167 77.7153C105.314 77.8709 105.397 78.0758 105.402 78.29L106.215 111.405H106.342L105.435 77.1075L72.0754 76.9897Z" fill="var(--sapContent_Illustrative_Color8)"/>
<path opacity="0.5" d="M72.0754 76.9897L104.602 77.4609C104.815 77.4726 105.016 77.5633 105.167 77.7153C105.314 77.8709 105.397 78.0758 105.402 78.29L106.215 111.405H106.342L105.435 77.1075L72.0754 76.9897Z" fill="var(--sapContent_Illustrative_Color19)"/>
<path d="M104.616 77.4513L72.0893 76.9802H69.7378C69.5497 77.0286 69.3837 77.14 69.2675 77.2959C69.1546 77.4499 69.0967 77.6373 69.1029 77.8282V78.1721L104.273 78.5962L105.242 111.395H106.182L105.364 78.2664C105.362 78.0585 105.283 77.8587 105.143 77.7057C105.002 77.5516 104.809 77.4558 104.602 77.4372L104.616 77.4513Z" fill="var(--sapContent_Illustrative_Color18)"/>
<path d="M104.616 77.4513L72.0893 76.9802H69.7378C69.5497 77.0286 69.3837 77.14 69.2675 77.2959C69.1546 77.4499 69.0967 77.6373 69.1029 77.8282V78.1721L104.273 78.5962L105.242 111.395H106.182L105.364 78.2664C105.362 78.0585 105.283 77.8587 105.143 77.7057C105.002 77.5516 104.809 77.4558 104.602 77.4372L104.616 77.4513Z" fill="var(--sapContent_Illustrative_Color19)"/>
<path d="M96.654 109.586L98.2295 101.449C98.564 99.9056 98.5301 98.3044 98.1307 96.776C97.7346 95.244 96.9838 93.8269 95.9391 92.6396C94.8954 91.4528 93.5893 90.5268 92.1249 89.9354C90.6577 89.3443 89.0731 89.1039 87.497 89.2335L84.1625 89.5114C83.2559 89.5874 82.378 89.8676 81.5946 90.3312C80.8128 90.7951 80.1469 91.4316 79.6476 92.1921H77.7193C76.8046 92.1919 75.9271 92.5544 75.2784 93.2003C74.9573 93.52 74.7027 93.9003 74.5291 94.3191C74.3556 94.738 74.2666 95.1871 74.2672 95.6406C74.2675 95.9267 74.3808 96.2011 74.5823 96.4038C74.7862 96.6064 75.0618 96.7199 75.3489 96.7195H76.3648C75.5135 97.3602 75.0808 98.2412 75.3348 99.0138C75.6781 100.041 77.1361 100.493 78.6552 100.074C78.1849 101.921 78.2319 104.229 78.2319 106.731C78.2319 112.817 81.7122 117.75 85.9967 117.75C86.6894 117.741 87.3716 117.58 87.9956 117.279C88.0473 118.141 88.0849 118.721 88.1037 119.126C88.1414 120.195 89.2936 120.388 90.681 120.176L89.4582 114.405C89.3783 114.045 89.3783 113.672 89.4582 113.312C89.5429 112.955 89.7033 112.621 89.9285 112.332C90.1604 112.046 90.4527 111.814 90.7845 111.654C91.1188 111.497 91.483 111.415 91.8521 111.414H96.8092C96.6022 110.905 96.4235 110.471 96.2636 110.094C96.359 110.044 96.4412 109.971 96.5035 109.882C96.566 109.794 96.6078 109.693 96.6257 109.586H96.654Z" fill="var(--sapContent_Illustrative_Color18)"/>
<path d="M96.654 109.586L98.2295 101.449C98.564 99.9056 98.5301 98.3044 98.1307 96.776C97.7346 95.244 96.9838 93.8269 95.9391 92.6396C94.8954 91.4528 93.5893 90.5268 92.1249 89.9354C90.6577 89.3443 89.0731 89.1039 87.497 89.2335L84.1625 89.5114C83.2559 89.5874 82.378 89.8676 81.5946 90.3312C80.8128 90.7951 80.1469 91.4316 79.6476 92.1921H77.7193C76.8046 92.1919 75.9271 92.5544 75.2784 93.2003C74.9573 93.52 74.7027 93.9003 74.5291 94.3191C74.3556 94.738 74.2666 95.1871 74.2672 95.6406C74.2675 95.9267 74.3808 96.2011 74.5823 96.4038C74.7862 96.6064 75.0618 96.7199 75.3489 96.7195H76.3648C75.5135 97.3602 75.0808 98.2412 75.3348 99.0138C75.6781 100.041 77.1361 100.493 78.6552 100.074C78.1849 101.921 78.2319 104.229 78.2319 106.731C78.2319 112.817 81.7122 117.75 85.9967 117.75C86.6894 117.741 87.3716 117.58 87.9956 117.279C88.0473 118.141 88.0849 118.721 88.1037 119.126C88.1414 120.195 89.2936 120.388 90.681 120.176L89.4582 114.405C89.3783 114.045 89.3783 113.672 89.4582 113.312C89.5429 112.955 89.7033 112.621 89.9285 112.332C90.1604 112.046 90.4527 111.814 90.7845 111.654C91.1188 111.497 91.483 111.415 91.8521 111.414H96.8092C96.6022 110.905 96.4235 110.471 96.2636 110.094C96.359 110.044 96.4412 109.971 96.5035 109.882C96.566 109.794 96.6078 109.693 96.6257 109.586H96.654Z" fill="var(--sapContent_Illustrative_Color18)"/>
<path d="M312.452 191.532C312.452 189.054 311.041 187.047 309.287 187.047H244.111C243.976 187.467 243.713 187.834 243.358 188.097C242.995 188.357 242.559 188.497 242.112 188.498H113.656C113.091 189.408 112.799 190.46 112.814 191.532V197.826C112.813 198.496 112.923 199.161 113.139 199.795H307.561C309.345 199.772 311.07 199.148 312.457 198.024V198.024V191.532H312.452Z" fill="var(--sapContent_Illustrative_Color19)"/>
<path d="M212.317 179.49L199.52 113.402C199.413 112.839 199.116 112.33 198.678 111.96C198.234 111.596 197.677 111.396 197.103 111.395H91.8845C91.5154 111.396 91.151 111.478 90.8169 111.635C90.4838 111.795 90.1899 112.027 89.9563 112.314C89.7311 112.603 89.5707 112.937 89.4859 113.294C89.4036 113.653 89.4036 114.027 89.4859 114.387L90.7041 120.158L92.8158 130.108L94.269 137.014L94.9228 140.096L103.487 180.47C103.603 181.026 103.907 181.525 104.348 181.883C104.79 182.241 105.341 182.436 105.909 182.435H209.886C210.251 182.435 210.613 182.355 210.944 182.199C211.274 182.044 211.564 181.817 211.795 181.535C212.019 181.259 212.179 180.937 212.266 180.593C212.366 180.234 212.384 179.857 212.317 179.49V179.49ZM196.068 156.844H184.719L187.626 172.089C187.743 172.693 187.627 173.319 187.301 173.842C187.257 173.914 187.208 173.983 187.156 174.049C187.087 174.146 187.01 174.238 186.925 174.322C186.462 174.77 185.843 175.02 185.199 175.019H112.818C112.544 175.024 112.271 174.978 112.014 174.883C111.928 174.858 111.844 174.825 111.765 174.784C111.446 174.636 111.164 174.421 110.937 174.152C110.748 173.937 110.601 173.688 110.504 173.418C110.449 173.283 110.41 173.142 110.387 172.998L104.273 139.949L103.703 136.868L102.434 129.962L102.264 129.057C102.231 128.872 102.218 128.684 102.227 128.497C102.236 128.315 102.264 128.135 102.311 127.96C102.35 127.815 102.403 127.674 102.471 127.54L102.556 127.375C102.674 127.176 102.816 126.993 102.979 126.829C103.042 126.769 103.108 126.712 103.177 126.659C103.39 126.495 103.628 126.366 103.882 126.278C104.146 126.183 104.425 126.137 104.705 126.141H111.671L157.234 126.301L156.388 121.797C156.319 121.438 156.33 121.068 156.421 120.714C156.514 120.358 156.684 120.026 156.919 119.743C157.153 119.46 157.447 119.233 157.78 119.079C158.111 118.923 158.472 118.843 158.838 118.843H189.808C190.39 118.843 190.954 119.046 191.402 119.418C191.848 119.791 192.151 120.307 192.258 120.879L198.49 153.857C198.561 154.216 198.551 154.586 198.462 154.94C198.38 155.297 198.219 155.63 197.992 155.916C197.76 156.202 197.468 156.432 197.136 156.589C196.805 156.748 196.444 156.832 196.077 156.834L196.068 156.844Z" fill="var(--sapContent_Illustrative_Color2)"/>
<path d="M106.102 188.508H140.67C140.026 188.509 139.39 188.356 138.817 188.061C138.243 187.764 137.749 187.333 137.378 186.803L134.312 182.445H106.093C105.436 182.446 104.805 182.707 104.339 183.17C104.109 183.4 103.926 183.673 103.802 183.974C103.678 184.275 103.614 184.597 103.615 184.923V186.03C103.615 186.387 103.694 186.739 103.845 187.062C104.042 187.492 104.359 187.857 104.757 188.112C105.156 188.369 105.619 188.507 106.093 188.508H106.102Z" fill="var(--sapContent_Illustrative_Color14)"/>
<path d="M137.397 186.792C137.768 187.322 138.262 187.754 138.836 188.05C139.409 188.345 140.045 188.499 140.689 188.497H242.112C242.557 188.496 242.991 188.356 243.353 188.097C243.715 187.838 243.986 187.472 244.129 187.051C244.21 186.826 244.255 186.589 244.261 186.349V182.434H134.331L137.397 186.792Z" fill="var(--sapContent_Illustrative_Color13)"/>
<path d="M192.287 120.902C192.18 120.329 191.876 119.812 191.426 119.442C190.98 119.069 190.417 118.866 189.837 118.867H158.867C158.501 118.866 158.139 118.947 157.808 119.103C157.475 119.256 157.181 119.483 156.948 119.767C156.712 120.05 156.542 120.381 156.449 120.737C156.359 121.092 156.346 121.461 156.412 121.821L157.263 126.325L176.875 126.391C177.006 126.389 177.137 126.402 177.265 126.428C177.765 126.507 178.229 126.739 178.591 127.093C178.953 127.444 179.197 127.898 179.292 128.393L184.72 156.844H196.068C196.434 156.844 196.795 156.764 197.126 156.608C197.459 156.451 197.753 156.223 197.987 155.939C198.215 155.657 198.376 155.327 198.457 154.973C198.55 154.619 198.562 154.249 198.49 153.89L192.287 120.902Z" fill="var(--sapContent_Illustrative_Color13)"/>
<path d="M177.27 126.429C177.14 126.402 177.007 126.389 176.875 126.391L157.263 126.325L111.699 126.165H104.729C104.448 126.161 104.17 126.207 103.906 126.301C103.652 126.388 103.413 126.515 103.2 126.678C103.134 126.735 103.064 126.791 103.003 126.853C102.839 127.016 102.697 127.2 102.579 127.399L102.495 127.564C102.428 127.696 102.374 127.835 102.335 127.979C102.288 128.154 102.26 128.334 102.25 128.516C102.242 128.705 102.254 128.895 102.288 129.081L102.457 129.981L103.727 136.887L104.296 139.973L110.41 173.017C110.436 173.162 110.477 173.304 110.532 173.441C110.629 173.711 110.776 173.961 110.965 174.176C111.192 174.446 111.476 174.662 111.797 174.808C111.875 174.845 111.955 174.878 112.037 174.906C112.295 174.999 112.568 175.045 112.842 175.043H185.223C185.866 175.044 186.485 174.794 186.949 174.346C187.033 174.261 187.11 174.17 187.179 174.073C187.231 174.007 187.278 173.936 187.325 173.865C187.65 173.343 187.766 172.717 187.649 172.113L184.743 156.867L179.32 128.417C179.226 127.914 178.978 127.453 178.61 127.098C178.244 126.74 177.775 126.506 177.27 126.429V126.429ZM161.213 164.81C159.539 166.629 157.5 168.074 155.231 169.05C152.961 170.018 150.515 170.499 148.049 170.464C137.429 170.464 128.037 161.828 127.106 151.2C126.852 148.731 127.121 146.236 127.896 143.879C128.672 141.521 129.933 139.353 131.598 137.514C133.274 135.696 135.314 134.251 137.585 133.274C139.854 132.306 142.3 131.824 144.766 131.861C155.391 131.861 164.783 140.491 165.709 151.125C165.964 153.593 165.694 156.088 164.919 158.446C164.145 160.805 162.882 162.974 161.213 164.81V164.81Z" fill="var(--sapContent_Illustrative_Color8)"/>
<path d="M144.767 131.88C142.299 131.844 139.851 132.326 137.58 133.293C135.313 134.273 133.275 135.718 131.598 137.533C129.933 139.372 128.673 141.541 127.897 143.898C127.122 146.255 126.852 148.75 127.107 151.219C128.047 161.829 137.453 170.483 148.05 170.483C150.516 170.521 152.963 170.04 155.231 169.07C157.498 168.1 159.537 166.663 161.214 164.853C162.881 163.016 164.144 160.847 164.92 158.489C165.695 156.13 165.964 153.633 165.71 151.163C164.783 140.511 155.41 131.88 144.767 131.88ZM160.499 164.151C158.916 165.861 156.994 167.218 154.855 168.137C152.711 169.052 150.399 169.508 148.068 169.475C137.938 169.475 128.983 161.24 128.094 151.101C127.854 148.783 128.102 146.439 128.823 144.223C129.553 141.992 130.741 139.939 132.313 138.198C133.894 136.489 135.817 135.132 137.957 134.217C140.099 133.299 142.409 132.843 144.739 132.879C154.864 132.879 163.828 141.109 164.713 151.229C164.956 153.563 164.704 155.923 163.974 158.154C163.249 160.385 162.059 162.437 160.485 164.175L160.499 164.151Z" fill="var(--sapContent_Illustrative_Color3)"/>
<path d="M145.011 135.361C136.339 135.361 129.862 142.466 130.624 151.158C131.386 159.85 139.09 166.954 147.772 166.954C156.454 166.954 162.921 159.845 162.163 151.158C161.406 142.47 153.684 135.361 145.011 135.361ZM153.477 147.521L144.842 156.999C144.7 157.149 144.528 157.268 144.339 157.349C144.149 157.431 143.945 157.473 143.739 157.473C143.533 157.473 143.329 157.431 143.139 157.349C142.95 157.268 142.778 157.149 142.636 156.999L139.208 153.843C139.046 153.713 138.913 153.551 138.815 153.368C138.718 153.185 138.658 152.984 138.64 152.778C138.621 152.571 138.645 152.363 138.708 152.166C138.772 151.968 138.874 151.786 139.01 151.629C139.153 151.479 139.324 151.36 139.514 151.279C139.704 151.197 139.909 151.155 140.115 151.155C140.322 151.155 140.526 151.197 140.716 151.279C140.906 151.36 141.078 151.479 141.22 151.629L143.45 153.683L151.078 145.311C151.22 145.162 151.392 145.043 151.581 144.961C151.771 144.88 151.975 144.838 152.181 144.838C152.387 144.838 152.591 144.88 152.781 144.961C152.971 145.043 153.142 145.162 153.284 145.311C153.445 145.441 153.579 145.601 153.677 145.784C153.775 145.966 153.835 146.166 153.854 146.373C153.873 146.579 153.85 146.787 153.787 146.984C153.724 147.181 153.621 147.364 153.486 147.521H153.477Z" fill="var(--sapContent_Illustrative_Color12)"/>
</svg>
