<svg width="108" height="160" viewBox="0 0 108 160" fill="none" xmlns="http://www.w3.org/2000/svg" id="sapIllus-Dialog-SimpleNoSavedItems">
<path d="M23.2264 137.253H90.8256C91.6332 137.252 92.4309 137.075 93.1627 136.733C93.8944 136.392 94.5426 135.894 95.0617 135.275C95.5808 134.657 95.9583 133.932 96.1676 133.152C96.3769 132.372 96.4131 131.555 96.2735 130.76L79.4424 35.159C79.2172 33.8779 78.5476 32.7172 77.5511 31.8811C76.5546 31.045 75.2952 30.5872 73.9944 30.588H6.36864C5.56102 30.5888 4.76334 30.7663 4.03156 31.1079C3.29977 31.4496 2.65162 31.9473 2.13253 32.566C1.61343 33.1847 1.23596 33.9094 1.02662 34.6895C0.817275 35.4695 0.781143 36.2858 0.9207 37.0813L17.7518 132.682C17.981 133.966 18.6556 135.129 19.6568 135.965C20.6581 136.801 21.922 137.257 23.2264 137.253Z" fill="var(--sapContent_Illustrative_Color6)"/>
<path d="M90.8257 138.086H23.2265C21.7289 138.088 20.2788 137.561 19.1315 136.598C17.9842 135.636 17.2133 134.299 16.9547 132.824L0.0970081 37.2762C-0.0646986 36.3602 -0.0238668 35.4199 0.216715 34.5215C0.457296 33.623 0.891748 32.7881 1.48953 32.0755C2.08731 31.3629 2.83395 30.7899 3.6769 30.3967C4.51985 30.0035 5.43865 29.7997 6.36878 29.7996H73.968C75.4656 29.798 76.9157 30.3248 78.063 31.2874C79.2103 32.2499 79.9812 33.5865 80.2398 35.0616L97.0709 130.654C97.2327 131.57 97.1918 132.51 96.9512 133.408C96.7106 134.307 96.2761 135.142 95.6784 135.854C95.0806 136.567 94.334 137.14 93.491 137.533C92.6481 137.926 91.7292 138.13 90.7991 138.13L90.8257 138.086ZM6.36878 31.4207C5.68204 31.4207 5.00363 31.571 4.38119 31.8612C3.75875 32.1513 3.20741 32.5742 2.76586 33.1002C2.32431 33.6262 2.00329 34.2424 1.82534 34.9057C1.6474 35.569 1.61682 36.2632 1.73581 36.9396L18.567 132.532C18.757 133.622 19.3261 134.61 20.1737 135.322C21.0214 136.033 22.0932 136.422 23.1999 136.42H90.8257C91.512 136.419 92.1896 136.268 92.8113 135.977C93.433 135.686 93.9837 135.263 94.4249 134.738C94.8661 134.212 95.1872 133.597 95.3658 132.934C95.5444 132.271 95.5761 131.578 95.4587 130.902L78.6275 35.3096C78.4375 34.2193 77.8684 33.2312 77.0208 32.5196C76.1731 31.8081 75.1013 31.4189 73.9946 31.4207H6.36878Z" fill="var(--sapContent_Illustrative_Color6)"/>
<path d="M26.8677 133.639H94.4669C95.275 133.64 96.0734 133.463 96.806 133.122C97.5385 132.781 98.1874 132.283 98.7068 131.664C99.2262 131.045 99.6035 130.32 99.8123 129.539C100.021 128.758 100.056 127.941 99.9149 127.146L83.0837 31.5536C82.8605 30.2708 82.1915 29.108 81.1949 28.2702C80.1982 27.4324 78.9378 26.9732 77.6357 26.9737H10.0365C9.22778 26.9745 8.42895 27.1522 7.69611 27.4943C6.96326 27.8365 6.31413 28.3348 5.79421 28.9543C5.27429 29.5738 4.89621 30.2995 4.68641 31.0806C4.47661 31.8617 4.4402 32.6792 4.57974 33.4759L21.4109 129.068C21.6379 130.35 22.3094 131.511 23.3073 132.347C24.3053 133.183 25.5659 133.64 26.8677 133.639Z" fill="var(--sapContent_Illustrative_Color8)"/>
<path d="M62.3862 160C87.3053 160 107.506 158.776 107.506 157.267C107.506 155.757 87.3053 154.533 62.3862 154.533C37.4671 154.533 17.2661 155.757 17.2661 157.267C17.2661 158.776 37.4671 160 62.3862 160Z" fill="var(--sapContent_Illustrative_Color6)"/>
<path d="M94.4666 134.48H26.8674C25.3617 134.482 23.9044 133.948 22.7556 132.975C21.6069 132.001 20.8413 130.651 20.5956 129.165L3.76447 33.5733C3.60276 32.6574 3.64365 31.7171 3.88423 30.8186C4.12481 29.9201 4.55926 29.0852 5.15704 28.3726C5.75483 27.66 6.50142 27.087 7.34436 26.6938C8.18731 26.3006 9.10616 26.0968 10.0363 26.0968H77.6355C79.1326 26.0969 80.5819 26.6244 81.7288 27.5866C82.8757 28.5489 83.647 29.8844 83.9073 31.3587L100.738 126.951C100.9 127.868 100.859 128.809 100.618 129.709C100.377 130.608 99.9418 131.444 99.3432 132.158C98.7446 132.871 97.9971 133.445 97.153 133.838C96.309 134.232 95.389 134.436 94.4578 134.436L94.4666 134.48ZM10.0363 27.8065C9.34956 27.8064 8.67115 27.9568 8.04871 28.2469C7.42627 28.537 6.87492 28.9599 6.43337 29.4859C5.99182 30.0119 5.67075 30.6282 5.49281 31.2915C5.31486 31.9547 5.28434 32.649 5.40332 33.3253L22.2345 128.926C22.4264 130.015 22.9962 131.001 23.8437 131.711C24.6912 132.42 25.762 132.808 26.8674 132.806H94.4578C95.145 132.808 95.8242 132.658 96.4474 132.369C97.0706 132.079 97.6227 131.656 98.0645 131.13C98.5064 130.604 98.8273 129.987 99.0046 129.323C99.1819 128.659 99.2114 127.964 99.0908 127.287L82.2596 31.6953C82.068 30.6058 81.4984 29.6187 80.6511 28.9075C79.8037 28.1962 78.7329 27.8064 77.6266 27.8065H10.0363Z" fill="var(--sapContent_Illustrative_Color4)"/>
<path d="M36.1068 25.9462L41.1296 54.9932C41.2536 55.7373 40.4209 56.1182 39.792 55.5956L30.0476 47.5343C29.8849 47.3874 29.6734 47.3061 29.4541 47.3061C29.2348 47.3061 29.0234 47.3874 28.8606 47.5343L22.261 55.383C21.8092 55.9145 20.8259 55.5247 20.7019 54.7717L15.8741 25.9196C15.8427 25.8135 15.8373 25.7014 15.8582 25.5928C15.8792 25.4842 15.9259 25.3822 15.9945 25.2954C16.063 25.2086 16.1514 25.1395 16.2523 25.094C16.3531 25.0485 16.4634 25.0278 16.5739 25.0337H35.1058C35.3527 25.0457 35.5878 25.1434 35.7705 25.3099C35.9532 25.4764 36.0721 25.7014 36.1068 25.9462Z" fill="var(--sapContent_Illustrative_Color4)"/>
<path d="M38.0998 24.7237L43.1225 53.7707C43.2554 54.5237 42.4227 54.9046 41.7849 54.3819L32.0406 46.3207C31.8778 46.1738 31.6663 46.0925 31.447 46.0925C31.2277 46.0925 31.0163 46.1738 30.8535 46.3207L24.2096 54.1782C23.7667 54.7097 22.7834 54.3199 22.6594 53.5581L17.8226 24.706C17.8013 24.603 17.8035 24.4965 17.829 24.3945C17.8545 24.2925 17.9026 24.1975 17.9699 24.1166C18.0371 24.0358 18.1217 23.9711 18.2174 23.9275C18.3131 23.8838 18.4174 23.8622 18.5225 23.8644H37.0722C37.3165 23.8664 37.5525 23.9531 37.74 24.1099C37.9274 24.2666 38.0546 24.4836 38.0998 24.7237Z" fill="var(--sapContent_Illustrative_Color8)"/>
<path d="M43.0696 54.2934C42.8728 54.2941 42.6821 54.2252 42.5313 54.0987C42.3805 53.9722 42.2793 53.7964 42.2458 53.6024L41.5371 49.5009C41.4995 49.2824 41.5503 49.0579 41.6782 48.8769C41.8061 48.6958 42.0008 48.5729 42.2192 48.5353C42.4377 48.4978 42.6622 48.5485 42.8433 48.6764C43.0244 48.8044 43.1472 48.999 43.1848 49.2175L43.8935 53.3189C43.9186 53.5356 43.8629 53.754 43.737 53.9322C43.6112 54.1103 43.424 54.2358 43.2114 54.2845L43.0696 54.2934ZM40.3324 54.0099C40.1397 54.0074 39.9531 53.942 39.8008 53.8239L36.5852 51.1663C36.4149 51.0254 36.3075 50.8225 36.2867 50.6024C36.266 50.3823 36.3335 50.1629 36.4745 49.9926C36.6154 49.8223 36.8183 49.7149 37.0385 49.6941C37.2586 49.6734 37.4779 49.7409 37.6482 49.8819L40.8639 52.5394C40.9945 52.649 41.0883 52.7961 41.1326 52.9608C41.177 53.1255 41.1696 53.2999 41.1117 53.4603C41.0537 53.6207 40.9479 53.7594 40.8085 53.8577C40.6691 53.956 40.5029 54.0091 40.3324 54.0099ZM25.2109 53.8504C25.016 53.8519 24.8272 53.7826 24.6794 53.6556C24.5196 53.5068 24.4204 53.3043 24.4008 53.0868C24.3811 52.8694 24.4425 52.6524 24.5731 52.4774L27.2306 49.2883C27.3728 49.1192 27.5763 49.0134 27.7965 48.9943C28.0166 48.9752 28.2352 49.0443 28.4044 49.1865C28.5736 49.3286 28.6793 49.5321 28.6984 49.7522C28.7175 49.9723 28.6484 50.191 28.5063 50.3602L25.8487 53.5493C25.7726 53.645 25.6756 53.722 25.565 53.7742C25.4544 53.8265 25.3332 53.8525 25.2109 53.8504ZM22.5534 53.8504C22.3563 53.8506 22.1657 53.78 22.0162 53.6516C21.8666 53.5232 21.7681 53.3455 21.7384 53.1506L21.0474 49.0403C21.0265 48.8301 21.0862 48.6199 21.2145 48.4521C21.3428 48.2843 21.5301 48.1716 21.7384 48.1366C21.9467 48.1017 22.1605 48.1473 22.3365 48.2641C22.5125 48.3809 22.6375 48.5602 22.6863 48.7657L23.3772 52.876C23.3963 52.9842 23.3937 53.0952 23.3697 53.2024C23.3457 53.3097 23.3006 53.4111 23.2372 53.5009C23.1738 53.5906 23.0933 53.6669 23.0002 53.7254C22.9072 53.7839 22.8035 53.8234 22.6951 53.8416L22.5534 53.8504ZM33.8745 48.748C33.684 48.7482 33.4994 48.6825 33.3519 48.5619L31.465 47.0028H31.3941L31.1815 47.2509C31.0402 47.4195 30.8379 47.5253 30.6188 47.5452C30.3997 47.5651 30.1816 47.4975 30.0122 47.3572C29.8524 47.2084 29.7532 47.0059 29.7336 46.7884C29.714 46.571 29.7753 46.354 29.9059 46.179L30.1717 45.869C30.4818 45.5638 30.8933 45.3834 31.3279 45.3621C31.7625 45.3409 32.1897 45.4803 32.528 45.7538L34.406 47.3129C34.5367 47.4225 34.6305 47.5696 34.6748 47.7343C34.7191 47.899 34.7118 48.0734 34.6538 48.2338C34.5959 48.3941 34.49 48.5329 34.3506 48.6312C34.2113 48.7295 34.0451 48.7826 33.8745 48.7834V48.748ZM41.6257 46.0904C41.4289 46.0912 41.2381 46.0222 41.0873 45.8957C40.9365 45.7692 40.8354 45.5934 40.8019 45.3995L40.0932 41.298C40.0741 41.1897 40.0767 41.0788 40.1007 40.9716C40.1247 40.8643 40.1698 40.7629 40.2332 40.6731C40.2966 40.5834 40.3771 40.507 40.4701 40.4486C40.5632 40.3901 40.6669 40.3506 40.7753 40.3324C40.883 40.3134 40.9934 40.316 41.1001 40.3402C41.2068 40.3643 41.3076 40.4094 41.3967 40.4729C41.4857 40.5364 41.5612 40.617 41.6188 40.71C41.6763 40.803 41.7149 40.9065 41.732 41.0145L42.4407 45.116C42.4794 45.3333 42.4302 45.5571 42.3039 45.7381C42.1777 45.9192 41.9847 46.0427 41.7675 46.0816L41.6257 46.0904ZM21.1803 45.5943C20.9835 45.5951 20.7927 45.5261 20.6419 45.3996C20.4911 45.2732 20.39 45.0973 20.3565 44.9034L19.6744 40.793C19.648 40.6821 19.6448 40.5669 19.6648 40.4546C19.6848 40.3423 19.7277 40.2354 19.7908 40.1403C19.8538 40.0453 19.9358 39.9643 20.0314 39.9022C20.1271 39.8402 20.2345 39.7984 20.347 39.7796C20.4594 39.7607 20.5746 39.7652 20.6853 39.7927C20.796 39.8201 20.8998 39.8701 20.9904 39.9393C21.081 40.0086 21.1564 40.0958 21.2119 40.1954C21.2674 40.295 21.3019 40.4049 21.3132 40.5184L22.0042 44.6287C22.0266 44.8453 21.9686 45.0625 21.8412 45.2389C21.7137 45.4154 21.5258 45.5388 21.3132 45.5855L21.1803 45.5943ZM40.2084 37.8786C40.0115 37.8794 39.8208 37.8104 39.6699 37.6839C39.5191 37.5574 39.418 37.3816 39.3845 37.1876L38.6758 33.0861C38.6508 32.9759 38.6485 32.8618 38.669 32.7507C38.6895 32.6396 38.7324 32.5338 38.7951 32.4398C38.8578 32.3458 38.939 32.2656 39.0337 32.204C39.1284 32.1423 39.2346 32.1006 39.346 32.0814C39.4573 32.0621 39.5714 32.0657 39.6813 32.0919C39.7912 32.1182 39.8946 32.1665 39.9852 32.234C40.0758 32.3015 40.1518 32.3867 40.2084 32.4845C40.265 32.5822 40.3012 32.6905 40.3146 32.8027L41.0233 36.9041C41.062 37.1214 41.0128 37.3452 40.8866 37.5263C40.7603 37.7074 40.5673 37.8309 40.3501 37.8697L40.2084 37.8786ZM19.8338 37.3736C19.638 37.3741 19.4485 37.3048 19.2991 37.1782C19.1498 37.0516 19.0504 36.8759 19.0188 36.6827L18.3279 32.5723C18.3098 32.4642 18.3133 32.3535 18.338 32.2466C18.3628 32.1398 18.4083 32.0388 18.4721 31.9496C18.5358 31.8603 18.6165 31.7845 18.7096 31.7265C18.8026 31.6684 18.9062 31.6292 19.0144 31.6112C19.1226 31.5932 19.2333 31.5966 19.3401 31.6214C19.447 31.6461 19.5479 31.6917 19.6372 31.7554C19.7264 31.8192 19.8022 31.8998 19.8603 31.9929C19.9184 32.086 19.9575 32.1895 19.9755 32.2977L20.6665 36.3904C20.7024 36.6076 20.6508 36.8302 20.523 37.0095C20.3951 37.1888 20.2015 37.3102 19.9844 37.3471L19.8338 37.3736ZM38.8176 29.6668C38.6218 29.6672 38.4322 29.5979 38.2829 29.4713C38.1335 29.3447 38.0342 29.169 38.0026 28.9758L37.2939 24.8743C37.2689 24.7641 37.2666 24.65 37.2871 24.5389C37.3076 24.4278 37.3505 24.322 37.4132 24.228C37.4759 24.134 37.557 24.0537 37.6517 23.9921C37.7464 23.9305 37.8527 23.8888 37.964 23.8695C38.0754 23.8503 38.1895 23.8539 38.2994 23.8801C38.4093 23.9063 38.5127 23.9547 38.6033 24.0221C38.6939 24.0896 38.7698 24.1748 38.8265 24.2726C38.8831 24.3704 38.9193 24.4786 38.9327 24.5908L39.6414 28.6923C39.6604 28.8006 39.6579 28.9115 39.6339 29.0187C39.6099 29.126 39.5649 29.2274 39.5015 29.3172C39.4381 29.4069 39.3575 29.4832 39.2644 29.5417C39.1714 29.6002 39.0677 29.6397 38.9593 29.6579L38.8176 29.6668ZM18.443 29.1618C18.2477 29.1524 18.061 29.0787 17.912 28.9521C17.763 28.8256 17.66 28.6532 17.6192 28.462L17.0168 24.8566C16.9669 24.5021 17.0256 24.1407 17.1851 23.8201C17.292 23.6263 17.4715 23.4829 17.6842 23.4214C17.8968 23.36 18.1252 23.3855 18.319 23.4924C18.5128 23.5993 18.6563 23.7788 18.7177 23.9914C18.7792 24.2041 18.7536 24.4324 18.6467 24.6263L19.2669 28.1697C19.3028 28.3869 19.2512 28.6096 19.1234 28.7889C18.9955 28.9682 18.8019 29.0895 18.5848 29.1264L18.443 29.1618ZM34.4592 24.7326H30.2868C30.066 24.7326 29.8542 24.6448 29.698 24.4887C29.5419 24.3325 29.4541 24.1207 29.4541 23.8999C29.4541 23.679 29.5419 23.4672 29.698 23.3111C29.8542 23.1549 30.066 23.0672 30.2868 23.0672H34.4592C34.68 23.0672 34.8918 23.1549 35.048 23.3111C35.2042 23.4672 35.2919 23.679 35.2919 23.8999C35.2919 24.1207 35.2042 24.3325 35.048 24.4887C34.8918 24.6448 34.68 24.7326 34.4592 24.7326ZM26.1233 24.7326H21.9599C21.739 24.7326 21.5272 24.6448 21.3711 24.4887C21.2149 24.3325 21.1272 24.1207 21.1272 23.8999C21.1272 23.679 21.2149 23.4672 21.3711 23.3111C21.5272 23.1549 21.739 23.0672 21.9599 23.0672H26.1233C26.3442 23.0672 26.556 23.1549 26.7122 23.3111C26.8683 23.4672 26.956 23.679 26.956 23.8999C26.956 24.1207 26.8683 24.3325 26.7122 24.4887C26.556 24.6448 26.3442 24.7326 26.1233 24.7326Z" fill="var(--sapContent_Illustrative_Color4)"/>
<path d="M9.30729 8.28888C9.52906 8.23312 9.76179 8.23844 9.98076 8.30432C10.1997 8.37021 10.3968 8.49417 10.551 8.66305L14.3524 12.5498C14.4827 12.6835 14.5846 12.8422 14.6519 13.0163C14.7192 13.1904 14.7505 13.3764 14.7439 13.563C14.7374 13.7495 14.6931 13.9328 14.6137 14.1018C14.5344 14.2708 14.4216 14.4219 14.2822 14.5461C14.0846 14.7564 13.8239 14.8967 13.5395 14.9456C13.2551 14.9946 12.9625 14.9495 12.706 14.8172C12.5828 14.7516 12.4691 14.6695 12.368 14.5733L8.56658 10.6865C8.3958 10.5187 8.27355 10.3079 8.21279 10.0763C8.15203 9.84473 8.15501 9.60103 8.22142 9.37101C8.29251 9.1117 8.43009 8.87545 8.62055 8.68564C8.81101 8.49584 9.04773 8.35908 9.30729 8.28888Z" fill="var(--sapContent_Illustrative_Color5)"/>
<path d="M38.3184 2.84C38.4783 2.88552 38.6267 2.96449 38.7538 3.07169C38.8808 3.17889 38.9837 3.31187 39.0554 3.46182C39.1272 3.61176 39.1663 3.77525 39.1702 3.94145C39.174 4.10765 39.1425 4.27277 39.0777 4.42586L37.3018 9.41793C37.2373 9.59702 37.1376 9.7614 37.0086 9.90141C36.8796 10.0414 36.7239 10.1542 36.5507 10.2332C36.3775 10.3122 36.1902 10.3557 36 10.3613C35.8097 10.3668 35.6202 10.3343 35.4427 10.2656C35.3681 10.2399 35.2961 10.2071 35.2278 10.1676C34.9716 10.0322 34.7755 9.80562 34.6781 9.53266C34.5808 9.2597 34.5894 8.96018 34.7022 8.69324L36.4798 3.71196C36.5421 3.53312 36.6392 3.36844 36.7657 3.22751C36.8922 3.08659 37.0455 2.97224 37.2166 2.8911C37.3877 2.80995 37.5732 2.76364 37.7623 2.75487C37.9515 2.7461 38.1405 2.77504 38.3184 2.84Z" fill="var(--sapContent_Illustrative_Color5)"/>
<path d="M23.6474 0.742281C23.7975 0.839862 23.9267 0.966303 24.0274 1.11424C24.1282 1.26217 24.1986 1.42865 24.2344 1.60402L25.8784 9.45524C25.9495 9.80838 25.8815 10.1753 25.6885 10.4795C25.4955 10.7837 25.1925 11.0016 24.8427 11.0877C24.5197 11.1686 24.178 11.1229 23.8877 10.96C23.7198 10.8673 23.574 10.7393 23.4603 10.585C23.3466 10.4306 23.2677 10.2534 23.229 10.0656L21.5851 2.21436C21.5104 1.86124 21.5761 1.49293 21.7683 1.1874C21.9604 0.88187 22.2639 0.663091 22.6145 0.577368C22.7889 0.533932 22.9703 0.526144 23.1478 0.554484C23.3253 0.582823 23.4952 0.646693 23.6474 0.742281Z" fill="var(--sapContent_Illustrative_Color5)"/>
<path d="M30.9597 77.2192H75.4294C75.8962 77.2352 76.3604 77.1436 76.7863 76.9516C77.2121 76.7596 77.5881 76.4723 77.8852 76.1118C78.1823 75.7514 78.3926 75.3274 78.4997 74.8728C78.6069 74.4181 78.6081 73.945 78.5032 73.4898C78.2986 72.4654 77.7544 71.54 76.9587 70.8633C76.163 70.1865 75.1623 69.7979 74.1183 69.7603H29.6487C29.1813 69.7426 28.7161 69.8329 28.2894 70.0243C27.8627 70.2158 27.4859 70.5032 27.1884 70.8641C26.8909 71.225 26.6808 71.6497 26.5744 72.1051C26.4679 72.5605 26.468 73.0344 26.5747 73.4898C26.7809 74.5134 27.3255 75.4379 28.1209 76.1144C28.9163 76.7909 29.9162 77.1801 30.9597 77.2192Z" fill="var(--sapContent_Illustrative_Color3)"/>
<path d="M60.4231 88.8238H77.0948C77.5615 88.8402 78.0256 88.7488 78.4512 88.5568C78.8768 88.3647 79.2524 88.0772 79.5489 87.7164C79.8453 87.3557 80.0547 86.9315 80.1607 86.4768C80.2666 86.022 80.2663 85.549 80.1598 85.0944C79.9552 84.07 79.411 83.1446 78.6153 82.4679C77.8196 81.7911 76.8189 81.4025 75.7749 81.365H59.1121C58.6453 81.349 58.181 81.4405 57.7552 81.6325C57.3293 81.8245 56.9534 82.1118 56.6563 82.4723C56.3592 82.8327 56.1489 83.2567 56.0417 83.7114C55.9346 84.166 55.9333 84.6392 56.0382 85.0944C56.2443 86.118 56.7889 87.0425 57.5843 87.719C58.3797 88.3955 59.3797 88.7847 60.4231 88.8238Z" fill="var(--sapContent_Illustrative_Color6)"/>
<path d="M33.7507 88.6555H50.4224C50.8893 88.6715 51.3535 88.5799 51.7793 88.3879C52.2051 88.1959 52.5811 87.9086 52.8782 87.5481C53.1753 87.1876 53.3856 86.7637 53.4927 86.3091C53.5999 85.8544 53.6011 85.3812 53.4963 84.926C53.2899 83.8945 52.7392 82.9636 51.9344 82.286C51.1297 81.6085 50.1187 81.2244 49.067 81.1966H32.4396C31.9723 81.1788 31.5071 81.2691 31.0804 81.4606C30.6537 81.652 30.2769 81.9394 29.9794 82.3003C29.682 82.6612 29.4718 83.086 29.3654 83.5414C29.2589 83.9968 29.2591 84.4706 29.3658 84.926C29.5719 85.9497 30.1165 86.8742 30.9119 87.5507C31.7073 88.2272 32.7073 88.6163 33.7507 88.6555Z" fill="var(--sapContent_Illustrative_Color3)"/>
<path d="M34.982 98.7454H51.6714C52.1383 98.7613 52.6026 98.6698 53.0284 98.4778C53.4542 98.2858 53.8302 97.9984 54.1273 97.638C54.4243 97.2775 54.6346 96.8536 54.7418 96.399C54.849 95.9443 54.8501 95.4711 54.7453 95.0159C54.5371 93.986 53.9857 93.0572 53.1811 92.3813C52.3766 91.7055 51.3665 91.3226 50.3161 91.2953H33.671C33.2045 91.2779 32.7404 91.3682 32.3144 91.5591C31.8885 91.7501 31.5124 92.0366 31.2151 92.3964C30.9178 92.7563 30.7074 93.1797 30.6002 93.634C30.493 94.0883 30.492 94.5611 30.5971 95.0159C30.8017 96.0403 31.3459 96.9657 32.1416 97.6424C32.9374 98.3192 33.9381 98.7078 34.982 98.7454Z" fill="var(--sapContent_Illustrative_Color6)"/>
</svg>
