<svg xmlns="http://www.w3.org/2000/svg" xmlns:xlink="http://www.w3.org/1999/xlink" viewBox="0 0 78.69815 40.00002"><defs><clipPath id="clip-path" transform="translate(-1)"><path id="mask" d="M19.55546,0s-.00417,1.64256,4.35017,4.288c8.45427,5.13636,8.42578,9.84523,8.42578,10.83341,0,4.19769-4.36893,6.91125-6.39608,4.715a5.17972,5.17972,0,0,0,1.98908-3.74611,9.98417,9.98417,0,0,1-2.22114,1.12716,8.00573,8.00573,0,0,0,.53042-4.84011,7.4826,7.4826,0,0,1-3.34827,2.81787,5.913,5.913,0,0,0,.0663-4.34283s.1989,2.65211-5.83465,5.47S12.94,21.95813,12.94,21.95813a2.84215,2.84215,0,0,1,3.2447-.38021c2.7625,1.21353,1.64612,6.08339-2.79617,6.08339-4.325,0-7.16378-4.70344-7.16378-8.3762a10.43248,10.43248,0,0,1,2.9082-7.38519c2.18219-2.44406,4.873-3.73355,5.4506-6.43618-2.99051,2.771-8.3824,4.57941-11.5889,9.32155C.11451,19.04478,1.04959,24.67881,1.56807,26.41187A19.126,19.126,0,0,0,39,21.05015C39,5.11436,23.85009,3.4466,19.55546,0ZM17.00514,19.48482a2.33689,2.33689,0,0,1-1.14047-.21546,1.72716,1.72716,0,0,0-.64891-.11785,8.121,8.121,0,0,1,1.01422-.5817c.50914-.23443.94405-.24664,1.14635.21981A.53227.53227,0,0,1,17.00514,19.48482Z" fill="none"/></clipPath><linearGradient id="linear-gradient" x1="29.44308" y1="37.44692" x2="10.75619" y2="5.08026" gradientUnits="userSpaceOnUse"><stop offset="0" stop-color="#ff5a37"/><stop offset="1" stop-color="#ffa52d"/></linearGradient></defs><title>SVG_v01</title><g style="isolation:isolate"><g id="ui5Logo"><g clip-path="url(#clip-path)"><path id="BG" d="M19.55546,0s-.00417,1.64256,4.35017,4.288c8.45427,5.13636,8.42578,9.84523,8.42578,10.83341,0,4.19769-4.36893,6.91125-6.39608,4.715a5.17972,5.17972,0,0,0,1.98908-3.74611,9.98417,9.98417,0,0,1-2.22114,1.12716,8.00573,8.00573,0,0,0,.53042-4.84011,7.4826,7.4826,0,0,1-3.34827,2.81787,5.913,5.913,0,0,0,.0663-4.34283s.1989,2.65211-5.83465,5.47S12.94,21.95813,12.94,21.95813a2.84215,2.84215,0,0,1,3.2447-.38021c2.7625,1.21353,1.64612,6.08339-2.79617,6.08339-4.325,0-7.16378-4.70344-7.16378-8.3762a10.43248,10.43248,0,0,1,2.9082-7.38519c2.18219-2.44406,4.873-3.73355,5.4506-6.43618-2.99051,2.771-8.3824,4.57941-11.5889,9.32155C.11451,19.04478,1.04959,24.67881,1.56807,26.41187A19.126,19.126,0,0,0,39,21.05015C39,5.11436,23.85009,3.4466,19.55546,0Z" transform="translate(-1)" fill="#ff5a37"/><path id="bottomFeather" d="M39,21.05013a18.78352,18.78352,0,0,0-1.60291-7.96048,11.29368,11.29368,0,0,1-2.80642,11.15262,8.31954,8.31954,0,0,1-11.22512.6972s.47823,7.57095-8.48969,8.68744C9.01954,34.356,4.41029,30.62416,2.41051,25.8708A12.27936,12.27936,0,0,1,2.483,15.62821C.23445,19.75776,1.08314,24.791,1.56807,26.41189A19.126,19.126,0,0,0,39,21.05013Z" transform="translate(-1)" fill="#ffa52d" opacity="0.4" style="mix-blend-mode:lighten"/><path id="bottomFeather-2" data-name="bottomFeather" d="M37.06414,29.36188c-.99374.26917-8.78585,2.12314-13.69859-4.42241,0,0,2.28809,8.87291-7.43578,14.66071a19.27092,19.27092,0,0,0,21.13437-10.2383Z" transform="translate(-1)" fill="#ffa52d" opacity="0.6" style="mix-blend-mode:lighten"/><path id="bottomFeather-3" data-name="bottomFeather" d="M32.83421,34.97146c-6.09305-3.13608-9.46866-10.032-9.46866-10.032,2.71522,6.6219,1.5388,11.79022.32309,14.67542A19.22985,19.22985,0,0,0,32.83421,34.97146Z" transform="translate(-1)" fill="#ffa52d" opacity="0.8" style="mix-blend-mode:lighten"/><path id="headFeather" d="M18.46126,19.88394a9.52067,9.52067,0,0,0,4.43218-4.6941,5.91777,5.91777,0,0,0,.06568-4.34562s.199,2.65408-5.839,5.474S12.94,21.95813,12.94,21.95813a2.64667,2.64667,0,0,1,1.21309-.63221A18.63847,18.63847,0,0,0,18.46126,19.88394Z" transform="translate(-1)" fill="#ffa52d" opacity="0.6" style="mix-blend-mode:overlay"/><path id="headFeather-2" data-name="headFeather" d="M18.63427,21.11227a8.0613,8.0613,0,0,0,7.07956-3.89787,5.89552,5.89552,0,0,0,.54151-1.74633,9.51054,9.51054,0,0,0-.00865-3.17032s-.49169,1.37716-3.35325,2.89209a23.24959,23.24959,0,0,1-4.13125,1.6342c-6.823,2.07068-5.8222,5.1341-5.8222,5.1341C14.01522,21.24644,14.02171,21.11227,18.63427,21.11227Z" transform="translate(-1)" fill="#ffa52d" opacity="0.4" style="mix-blend-mode:overlay"/><path id="headFeather-3" data-name="headFeather" d="M18.63427,21.11227c2.38468,0,5.62675.1341,7.31067-1.27739a4.83546,4.83546,0,0,0,1.99333-3.75295,10.32718,10.32718,0,0,1-2.22473,1.13284,18.00819,18.00819,0,0,1-4.99418.59763C14.4433,17.45616,12.94,21.95813,12.94,21.95813,13.80545,21.15777,14.85862,21.11227,18.63427,21.11227Z" transform="translate(-1)" fill="#ffa52d" opacity="0.2" style="mix-blend-mode:overlay"/><path id="overlay" d="M19.55546,0s-.00417,1.64256,4.35017,4.288c8.45427,5.13636,8.42578,9.84523,8.42578,10.83341,0,4.19769-4.36893,6.91125-6.39608,4.715a5.17972,5.17972,0,0,0,1.98908-3.74611,9.98417,9.98417,0,0,1-2.22114,1.12716,8.00573,8.00573,0,0,0,.53042-4.84011,7.4826,7.4826,0,0,1-3.34827,2.81787,5.913,5.913,0,0,0,.0663-4.34283s.1989,2.65211-5.83465,5.47S12.94,21.95813,12.94,21.95813a2.84215,2.84215,0,0,1,3.2447-.38021c2.7625,1.21353,1.64612,6.08339-2.79617,6.08339-4.325,0-7.16378-4.70344-7.16378-8.3762a10.43248,10.43248,0,0,1,2.9082-7.38519c2.18219-2.44406,4.873-3.73355,5.4506-6.43618-2.99051,2.771-8.3824,4.57941-11.5889,9.32155C.11451,19.04478,1.04959,24.67881,1.56807,26.41187A19.126,19.126,0,0,0,39,21.05015C39,5.11436,23.85009,3.4466,19.55546,0Z" transform="translate(-1)" fill="url(#linear-gradient)" style="mix-blend-mode:overlay"/></g><path d="M51.30392,31.56678a8.69538,8.69538,0,0,1-2.96089-.4556,5.1254,5.1254,0,0,1-3.28626-3.37842,8.85591,8.85591,0,0,1-.39048-2.72768V14.8534h3.62255V24.91833A4.50677,4.50677,0,0,0,49.01,27.67316a2.75431,2.75431,0,0,0,2.34811.95437,2.68434,2.68434,0,0,0,2.30474-.95437,4.559,4.559,0,0,0,.71045-2.75482V14.8534h3.55743V24.98335a8.96384,8.96384,0,0,1-.39048,2.7386,5.35773,5.35773,0,0,1-1.1985,2.07694,5.23014,5.23014,0,0,1-2.06612,1.3123A8.73261,8.73261,0,0,1,51.30392,31.56678Z" transform="translate(-1)" fill="#ff5a37"/><path d="M61.217,31.2956V14.8534h3.60081V31.2956Z" transform="translate(-1)" fill="#ff5a37"/><path d="M73.19076,31.61015a9.56044,9.56044,0,0,1-3.53028-.59114,8.80963,8.80963,0,0,1-2.61929-1.58888l1.82209-2.37526a6.81111,6.81111,0,0,0,1.87088,1.20391,5.47928,5.47928,0,0,0,2.23962.47724,3.07181,3.07181,0,0,0,2.38067-.81883,2.98863,2.98863,0,0,0,.7429-2.08786,3.11321,3.11321,0,0,0-.72116-2.18543,2.735,2.735,0,0,0-2.12042-.78628,3.45656,3.45656,0,0,0-1.61052.39579,4.51468,4.51468,0,0,0-1.40456,1.17676L67.9088,23.7035l.66166-8.8501h9.97808l-.18442,2.73309H71.34693l-.31455,3.64418a3.70329,3.70329,0,0,1,1.23647-.71034,5.93868,5.93868,0,0,1,2.08235-.30914,6.02776,6.02776,0,0,1,2.30474.41212,4.74918,4.74918,0,0,1,1.68115,1.13339,4.68469,4.68469,0,0,1,1.01949,1.72993,6.85893,6.85893,0,0,1,.3416,2.21258,6.2596,6.2596,0,0,1-.44468,2.3969,5.21347,5.21347,0,0,1-1.28515,1.86547,5.88151,5.88151,0,0,1-2.0553,1.21473A8.05658,8.05658,0,0,1,73.19076,31.61015Z" transform="translate(-1)" fill="#ff5a37"/></g></g></svg>